<svg id="Layer_1_1_" enable-background="new 0 0 64 64" height="512" viewBox="0 0 64 64" width="512" xmlns="http://www.w3.org/2000/svg"><path d="m41 49v9l-9 4v-9z" fill="#68607c"/><path d="m32 53v9l-9-4v-9z" fill="#ed6571"/><path d="m32 45 9 4-9 4-9-4z" fill="#f69489"/><path d="m31 36h2v13h-2z" fill="#68607c"/><path d="m31 18h2v6h-2z" fill="#68607c"/><path d="m19.293 32.707-9.293-9.293v-5.414h2v4.586l8.707 8.707z" fill="#68607c"/><path d="m44.707 32.707-1.414-1.414 8.707-8.707v-4.586h2v5.414z" fill="#68607c"/><path d="m45 33h14v2h-14z" fill="#68607c"/><path d="m58 44h-10.414l-7.293-7.293 1.414-1.414 6.707 6.707h9.586z" fill="#68607c"/><path d="m5 33h13v2h-13z" fill="#68607c"/><path d="m17.414 44h-11.414v-2h10.586l6.707-6.707 1.414 1.414z" fill="#68607c"/><path d="m22.17 38c-2.09 0-3.95-1.53-4.15-3.61-.01-.13-.02-.26-.02-.39 0-1.1.45-2.1 1.17-2.83.73-.72 1.73-1.17 2.83-1.17.05 0 .1.01.15.01-.29-1.09-.29-2.3 1.31-3.87.71-.71 1.64-1.16 2.64-1.14.79.02 1.53.27 2.14.69.54-1.56 2.01-2.69 3.76-2.69s3.22 1.13 3.76 2.69c.61-.42 1.35-.67 2.14-.69 1-.02 1.93.43 2.64 1.14 1.6 1.57 1.6 2.78 1.31 3.87.05 0 .1-.01.15-.01 1.1 0 2.1.45 2.83 1.17.72.73 1.17 1.73 1.17 2.83 0 .13-.01.26-.02.39-.2 2.08-2.06 3.61-4.15 3.61h-.83v6c-2.21 0-4-1.79-4-4v-2z" fill="#ffd086"/><path d="m61 8v11h-16v-17h10z" fill="#91cbd7"/><path d="m40 8v11h-16v-17h10z" fill="#91cbd7"/><path d="m19 8v11h-16v-17h10z" fill="#91cbd7"/><path d="m61 8h-6v-6z" fill="#4e9bb9"/><path d="m40 8h-6v-6z" fill="#4e9bb9"/><path d="m19 8h-6v-6z" fill="#4e9bb9"/><circle cx="59" cy="34" fill="#91cbd7" r="3"/><circle cx="59" cy="43" fill="#91cbd7" r="3"/><circle cx="5" cy="34" fill="#91cbd7" r="3"/><circle cx="5" cy="43" fill="#91cbd7" r="3"/><g fill="#68607c"><path d="m6 10h10v2h-10z"/><path d="m6 14h10v2h-10z"/><path d="m6 6h5v2h-5z"/><path d="m27 10h10v2h-10z"/><path d="m27 14h10v2h-10z"/><path d="m27 6h5v2h-5z"/><path d="m48 10h10v2h-10z"/><path d="m48 14h10v2h-10z"/><path d="m48 6h5v2h-5z"/></g><path d="m31 28h2v10h-2z" fill="#f69489"/><path d="m29 38h-2v-2.586l-2-2v-3.414h2v2.586l2 2z" fill="#f69489"/><path d="m37 38h-2v-3.414l2-2v-2.586h2v3.414l-2 2z" fill="#f69489"/><path d="m45 52h2v2h-2z" fill="#68607c"/><path d="m49 52h2v2h-2z" fill="#68607c"/><path d="m49 56h2v2h-2z" fill="#68607c"/><path d="m49 48h2v2h-2z" fill="#68607c"/><path d="m17 52h2v2h-2z" fill="#68607c"/><path d="m13 52h2v2h-2z" fill="#68607c"/><path d="m13 56h2v2h-2z" fill="#68607c"/><path d="m13 48h2v2h-2z" fill="#68607c"/></svg>