<?xml version="1.0" encoding="iso-8859-1"?>
<!-- Generator: Adobe Illustrator 19.0.0, SVG Export Plug-In . SVG Version: 6.00 Build 0)  -->
<svg version="1.1" id="Capa_1" xmlns="http://www.w3.org/2000/svg" xmlns:xlink="http://www.w3.org/1999/xlink" x="0px" y="0px"
	 viewBox="0 0 512 512" style="enable-background:new 0 0 512 512;" xml:space="preserve">
<g>
	<path style="fill:#4DA7FF;" d="M213.326,0h85.333c4.71,0,8.533,3.823,8.533,8.533V128c0,4.71-3.823,8.533-8.533,8.533h-85.333
		c-4.71,0-8.533-3.823-8.533-8.533V8.533C204.792,3.823,208.615,0,213.326,0z"/>
	<path style="fill:#4DA7FF;" d="M93.859,0h85.333c4.71,0,8.533,3.823,8.533,8.533V128c0,4.71-3.823,8.533-8.533,8.533H93.859
		c-4.71,0-8.533-3.823-8.533-8.533V8.533C85.326,3.823,89.149,0,93.859,0z"/>
	<path style="fill:#4DA7FF;" d="M332.792,0h85.333c4.71,0,8.533,3.823,8.533,8.533V128c0,4.71-3.823,8.533-8.533,8.533h-85.333
		c-4.71,0-8.533-3.823-8.533-8.533V8.533C324.259,3.823,328.082,0,332.792,0z"/>
</g>
<g>
	<path style="fill:#666666;" d="M247.459,34.133h17.067c4.71,0,8.533,3.823,8.533,8.533l0,0c0,4.71-3.823,8.533-8.533,8.533h-17.067
		c-4.71,0-8.533-3.823-8.533-8.533l0,0C238.926,37.956,242.749,34.133,247.459,34.133z"/>
	<path style="fill:#666666;" d="M247.459,68.267h17.067c4.71,0,8.533,3.823,8.533,8.533l0,0c0,4.71-3.823,8.533-8.533,8.533h-17.067
		c-4.71,0-8.533-3.823-8.533-8.533l0,0C238.926,72.09,242.749,68.267,247.459,68.267z"/>
	<path style="fill:#666666;" d="M127.992,34.133h17.067c4.71,0,8.533,3.823,8.533,8.533l0,0c0,4.71-3.823,8.533-8.533,8.533h-17.067
		c-4.71,0-8.533-3.823-8.533-8.533l0,0C119.459,37.956,123.282,34.133,127.992,34.133z"/>
	<path style="fill:#666666;" d="M127.992,68.267h17.067c4.71,0,8.533,3.823,8.533,8.533l0,0c0,4.71-3.823,8.533-8.533,8.533h-17.067
		c-4.71,0-8.533-3.823-8.533-8.533l0,0C119.459,72.09,123.282,68.267,127.992,68.267z"/>
	<path style="fill:#666666;" d="M366.926,34.133h17.067c4.71,0,8.533,3.823,8.533,8.533l0,0c0,4.71-3.823,8.533-8.533,8.533h-17.067
		c-4.71,0-8.533-3.823-8.533-8.533l0,0C358.392,37.956,362.215,34.133,366.926,34.133z"/>
	<path style="fill:#666666;" d="M366.926,68.267h17.067c4.71,0,8.533,3.823,8.533,8.533l0,0c0,4.71-3.823,8.533-8.533,8.533h-17.067
		c-4.71,0-8.533-3.823-8.533-8.533l0,0C358.392,72.09,362.215,68.267,366.926,68.267z"/>
</g>
<path style="fill:#FFCF40;" d="M425.959,167.253c-1.357-3.115-4.437-5.129-7.834-5.12H93.859c-4.71-0.009-8.542,3.806-8.542,8.525
	c0,2.185,0.828,4.275,2.321,5.862l134.221,142.626V409.6c0,3.311,1.92,6.323,4.915,7.723c1.135,0.538,2.372,0.811,3.618,0.811
	c1.997,0,3.934-0.7,5.47-1.971l51.2-42.667c1.946-1.621,3.072-4.028,3.063-6.562v-47.787l134.221-142.592
	C426.71,174.063,427.342,170.394,425.959,167.253z"/>
<path style="fill:#666666;" d="M285.006,223.573l-20.48,15.36v-42.667h-17.067v42.667l-20.48-15.36l-10.24,13.653l34.133,25.6
	c3.038,2.278,7.202,2.278,10.24,0l34.133-25.6L285.006,223.573z"/>
<g>
	<path style="fill:#4DA7FF;" d="M273.059,460.8h34.133c4.71,0,8.533,3.823,8.533,8.533v34.133c0,4.71-3.823,8.533-8.533,8.533
		h-34.133c-4.71,0-8.533-3.823-8.533-8.533v-34.133C264.526,464.623,268.349,460.8,273.059,460.8z"/>
	<path style="fill:#4DA7FF;" d="M298.659,392.533h34.133c4.71,0,8.533,3.823,8.533,8.533V435.2c0,4.71-3.823,8.533-8.533,8.533
		h-34.133c-4.71,0-8.533-3.823-8.533-8.533v-34.133C290.126,396.356,293.949,392.533,298.659,392.533z"/>
	<path style="fill:#4DA7FF;" d="M179.192,435.2h34.133c4.71,0,8.533,3.823,8.533,8.533v34.133c0,4.71-3.823,8.533-8.533,8.533
		h-34.133c-4.71,0-8.533-3.823-8.533-8.533v-34.133C170.659,439.023,174.482,435.2,179.192,435.2z"/>
	<path style="fill:#4DA7FF;" d="M93.859,460.8h34.133c4.71,0,8.533,3.823,8.533,8.533v34.133c0,4.71-3.823,8.533-8.533,8.533H93.859
		c-4.71,0-8.533-3.823-8.533-8.533v-34.133C85.326,464.623,89.149,460.8,93.859,460.8z"/>
	<rect x="358.392" y="366.933" style="fill:#4DA7FF;" width="17.067" height="17.067"/>
	<rect x="358.392" y="494.933" style="fill:#4DA7FF;" width="17.067" height="17.067"/>
	<rect x="153.592" y="392.533" style="fill:#4DA7FF;" width="17.067" height="17.067"/>
</g>
<path style="opacity:0.15;fill:#666666;enable-background:new    ;" d="M425.959,167.253c-1.357-3.115-4.437-5.129-7.834-5.12h-76.8
	c4.71-0.009,8.542,3.806,8.542,8.525c0,2.185-0.828,4.275-2.321,5.862l-83.021,142.626v73.156l22.537-18.773
	c1.954-1.63,3.081-4.053,3.063-6.596v-47.787l134.221-142.592C426.71,174.063,427.342,170.394,425.959,167.253z"/>
<g>
</g>
<g>
</g>
<g>
</g>
<g>
</g>
<g>
</g>
<g>
</g>
<g>
</g>
<g>
</g>
<g>
</g>
<g>
</g>
<g>
</g>
<g>
</g>
<g>
</g>
<g>
</g>
<g>
</g>
</svg>
