<svg xmlns="http://www.w3.org/2000/svg" xmlns:xlink="http://www.w3.org/1999/xlink" viewBox="0 0 1080 1080"><style><![CDATA[.b{opacity:.7}.c{fill:#fff}.d{stroke:#fff}.e{stroke-miterlimit:10}]]></style><pattern x="-1209.89" width="646.854" height="646.854" patternUnits="userSpaceOnUse" id="A" viewBox="0 -646.85358 646.85358 646.85358" overflow="visible"><g fill="none" stroke-width=".5" class="d e"><path d="M.177-248.83l397.846-397.846"/><path d="M348.292-646.677L.177-298.56"/><path d="M.177-298.56l348.115-348.115"/><path d="M298.56-646.677L.177-348.292"/><path d="M.177-199.1l447.577-447.577"/><path d="M398.023-646.677L.177-248.83"/><path d="M.177-49.908l596.77-596.77"/><path d="M547.215-646.677L.177-99.638"/><path d="M.177-99.638l547.038-547.038"/><path d="M497.484-646.677L.177-149.37"/><path d="M.177-149.37l497.308-497.308"/><path d="M447.754-646.677L.177-199.1"/><path d="M.177-447.754L199.1-646.677"/><path d="M149.37-646.677L.177-497.485"/><path d="M.177-497.485L149.37-646.677"/><path d="M99.638-646.677l-99.46 99.46"/><path d="M.177-348.292L298.56-646.677"/><path d="M248.83-646.677L.177-398.023"/><path d="M.177-596.946l49.73-49.73"/><path d="M.177-547.215l99.46-99.46"/><path d="M49.907-646.677l-49.73 49.73"/><path d="M.177-398.023L248.83-646.677"/><path d="M199.1-646.677L.177-447.754"/><path d="M.177-.177l646.5-646.5"/><path d="M596.946-646.677L.177-49.908m646.5-198.922L398.023-.177m49.73 0L646.677-199.1M547.215-.177l99.462-99.462m0-49.73L497.484-.177"/><path d="M497.484-.177L646.677-149.37m0-49.73L447.754-.177M646.677-298.56L348.292-.177m49.73 0L646.677-248.83m0 248.653zm0-646.5L.177-.177m49.73 0l596.77-596.77m0 547.04l-49.73 49.73m49.73-547.037L99.638-.177m49.732 0l497.308-497.308"/><path d="M646.677-497.485L149.37-.177m49.73 0l447.577-447.577m0-149.192L49.907-.177m49.73 0l547.04-547.04m-.001 149.194L248.83-.177m49.73 0l348.115-348.115"/><path d="M646.677-447.754L199.1-.177m49.73 0l397.846-397.846m.001 49.73L298.56-.177m49.732 0L646.677-298.56"/></g></pattern><linearGradient id="B" gradientUnits="userSpaceOnUse" x1="11.716" y1="11.716" x2="1068.284" y2="1068.284"><stop offset="0" stop-color="#ff512f"/><stop offset=".421" stop-color="#ed3a54"/><stop offset=".781" stop-color="#e12a6d"/><stop offset="1" stop-color="#dd2476"/></linearGradient><path d="M1040 1080H40c-22.09 0-40-17.91-40-40V40C0 17.91 17.91 0 40 0h1000c22.09 0 40 17.91 40 40v1000c0 22.09-17.91 40-40 40z" fill="url(#B)"/><g opacity=".6" fill="none" stroke-width="2" class="d e"><path d="M930.66 243.428h1"/><path d="M937.787 243.428h103.15" stroke-dasharray="2.04255,6.12765"/><path d="M1044 243.428h1v1"/><path d="M1045 250.412v739.024" stroke-dasharray="1.99467,5.984"/><path d="M1045 992.428v1h-1"/><path d="M1037.98 993.428H109.736" stroke-dasharray="2.00701,6.02104"/><path d="M106.725 993.428h-1v-1"/><path d="M105.725 986.683V905.3" stroke-dasharray="1.91489,5.74468"/><path d="M105.725 902.428v-1"/></g><g class="b"><pattern id="C" xlink:href="#A" patternTransform="matrix(1.01402 0 0 1 607.33337 0)"/><path d="M790.245 243.428v546h-684.52v112H930.66v-658z" fill="url(#C)"/><g fill="none" stroke-width="2" class="d e"><path d="M791.245 243.428h-1v1"/><path d="M790.245 250.45v534.967" stroke-dasharray="2.00738,6.02214"/><path d="M790.245 788.428v1h-1"/><path d="M783.276 789.428H109.7" stroke-dasharray="1.98985,5.96956"/><path d="M106.725 789.428h-1v1"/><path d="M105.725 796.428v101" stroke-dasharray="2,6"/><path d="M105.725 900.428v1h1"/><path d="M112.732 901.428h813.924" stroke-dasharray="2.00227,6.00682"/><path d="M929.66 901.428h1v-1"/><path d="M930.66 894.4V247.437" stroke-dasharray="2.00612,6.01835"/><path d="M930.66 244.428v-1h-1"/><path d="M923.81 243.428H794.17" stroke-dasharray="1.9495,5.8485"/></g></g><g class="c"><path d="M63.458 80H38.5c-1.44 0-2.64-1.14-2.64-2.52V39.862c0-1.44 1.2-2.58 2.64-2.58h24.96c1.56 0 2.52 1.14 2.52 2.52 0 1.26-.9 2.58-2.52 2.58H41.02V54.5h15.72a2.56 2.56 0 0 1 2.58 2.58c0 1.38-1.02 2.58-2.58 2.58H41.02V74.9h22.44c1.62 0 2.52 1.26 2.52 2.58 0 1.38-.96 2.52-2.52 2.52zm28.138-28.318l-10.92 26.28c-.54 1.38-1.44 2.04-2.58 2.04-1.02 0-1.98-.66-2.58-2.04l-10.92-26.28c-.12-.42-.18-.72-.18-1.08 0-1.44 1.32-2.46 2.64-2.46.9 0 1.8.48 2.28 1.56l8.76 21 8.76-21c.42-1.14 1.5-1.62 2.34-1.62 1.38 0 2.64.96 2.64 2.46a2.99 2.99 0 0 1-.24 1.14z"/><use xlink:href="#G"/><use xlink:href="#H"/><path d="M204.094 80.06c-1.26 0-2.52-.9-2.52-2.58v-27.6l-11.64 21.72c-.78 1.5-1.92 1.62-2.4 1.62-.3 0-1.56-.12-2.4-1.62L173.555 50v27.48c0 1.68-1.26 2.58-2.64 2.58-1.26 0-2.52-.9-2.52-2.58v-37.5c0-1.98 1.38-2.7 2.76-2.7.9 0 1.62.42 2.16 1.5l14.22 26.46 14.28-26.46c.6-1.2 1.32-1.5 2.34-1.5 1.32 0 2.58.84 2.58 2.7v37.5c0 1.68-1.26 2.58-2.64 2.58z"/><use xlink:href="#I"/><use xlink:href="#J"/><use xlink:href="#G" x="164.745"/><use xlink:href="#K"/><path d="M343.04 80h-6.9c-1.62 0-2.52-1.26-2.52-2.52 0-1.38.9-2.58 2.52-2.58h.9V42.38h-.9c-1.62 0-2.52-1.26-2.52-2.52 0-1.38.9-2.58 2.52-2.58h6.9c1.74 0 2.64 1.2 2.64 2.58 0 1.26-.9 2.52-2.64 2.52h-.9V74.9h.9c1.74 0 2.64 1.2 2.64 2.58 0 1.26-.9 2.52-2.64 2.52zm20.52 0h-12.42c-1.38 0-2.64-1.26-2.64-2.52V39.862c0-1.38 1.26-2.58 2.64-2.58h12.42c12.36 0 16.44 10.2 16.44 21.3C380 69.74 375.92 80 363.56 80zm0-37.62h-9.9V74.9h9.9c7.74 0 11.28-5.7 11.28-16.32 0-10.44-3.54-16.2-11.28-16.2z"/><use xlink:href="#L"/><use xlink:href="#L" x="41.04"/><path d="M477.977 80.06c-1.14 0-2.28-.66-2.52-1.98-2.4 1.86-5.34 3-8.64 3-7.44 0-13.68-6.18-13.68-13.68v-16.62c0-1.68 1.26-2.58 2.52-2.58 1.38 0 2.64.9 2.64 2.52V67.4c0 4.68 3.9 8.58 8.52 8.58 4.68 0 8.58-3.9 8.58-8.58v-16.62c0-1.86 1.2-2.64 2.52-2.64 1.38 0 2.58.9 2.58 2.58v26.82c0 1.68-1.2 2.52-2.52 2.52z"/><use xlink:href="#M"/><use xlink:href="#M" x="13.019"/><use xlink:href="#N"/><use xlink:href="#J" x="296.683"/><use xlink:href="#N" x="43.968"/><use xlink:href="#J" x="340.651"/><use xlink:href="#O"/><use xlink:href="#K" x="331.782"/><use xlink:href="#J" x="422.309"/><use xlink:href="#N" x="169.593"/><path d="M740.09 80h-16.14c-1.38 0-2.64-1.26-2.64-2.52V39.862c0-1.44 1.08-2.58 2.52-2.58h14.88c6.12 0 11.22 5.04 11.22 11.1 0 3.24-1.32 6-3.42 7.98 3.84 2.16 6.3 6.24 6.3 10.92 0 6.96-5.76 12.72-12.72 12.72zm-1.38-37.62h-12.24V54.5h12.24c3.84 0 6.06-3.24 6.06-6.06 0-3.3-2.7-6.06-6.06-6.06zm1.38 17.22h-13.62v15.3h13.62c4.08 0 7.56-3.54 7.56-7.62 0-4.2-3.48-7.68-7.56-7.68z"/><use xlink:href="#N" x="245.071"/><use xlink:href="#P"/><use xlink:href="#H" x="671.772"/><path d="M842.748 93.68c-3.66 0-12.72-1.32-12.72-4.92 0-1.38 1.26-2.7 2.58-2.7 1.38 0 .18.18 3.36 1.38 1.44.54 3.6 1.14 6.78 1.14 6.66 0 9.9-3.18 9.9-9.48v-2.7c-2.34 2.22-5.7 3.6-9.9 3.6-9.48 0-15.06-6.72-15.06-15.96 0-9 5.4-16.92 15.06-16.92 4.2 0 7.44 1.26 9.9 3.84v-.24c0-1.68 1.38-2.58 2.58-2.58 1.26 0 2.58.9 2.58 2.58V79.1c0 9.54-5.7 14.58-15.06 14.58zm0-41.458c-6 0-9.9 4.68-9.9 11.82 0 6.84 3.6 10.86 9.9 10.86s9.9-4.02 9.9-10.86c0-7.14-3.84-11.82-9.9-11.82zm54.838-9.84h-9.96v35.1c0 1.62-1.2 2.52-2.52 2.52-1.26 0-2.58-.9-2.58-2.52v-35.1h-9.84c-1.74 0-2.64-1.32-2.64-2.58 0-1.2.9-2.52 2.58-2.52h24.96c1.68 0 2.58 1.32 2.58 2.52 0 1.26-.9 2.58-2.58 2.58z"/><use xlink:href="#J" x="656.233"/><use xlink:href="#N" x="403.516"/><path d="M973.713 80c-3.3 0-4.8-2.34-5.34-3.42-2.4 2.64-5.88 4.44-10.56 4.44-9.78 0-15.06-8.04-15.06-16.98s5.4-16.92 15.06-16.92c4.2 0 7.56 1.5 9.9 3.96v-.24c0-.66.24-2.7 2.52-2.7 1.26 0 2.64.66 2.64 2.52v23.16c0 .78.54 1.08.84 1.08 1.68 0 2.58 1.2 2.58 2.58 0 1.26-.9 2.52-2.58 2.52zm-15.9-27.78c-6 0-9.9 4.68-9.9 11.82 0 7.2 3.9 11.88 9.9 11.88 6.06 0 9.9-4.68 9.9-11.88 0-7.14-3.84-11.82-9.9-11.82z"/><use xlink:href="#Q"/><use xlink:href="#N" x="480.075"/><path d="M1046.85 79.94c-1.32 0-2.58-.84-2.58-2.52 0 0-3.54 3.6-9.9 3.6-9.66 0-15.06-7.92-15.06-16.98 0-9 5.4-16.92 15.06-16.92 4.2 0 7.56 1.44 9.9 3.9V39.86c0-1.74 1.26-2.58 2.58-2.58s2.58.84 2.58 2.52v37.62c0 1.68-1.26 2.52-2.58 2.52zm-12.48-27.72c-6 0-9.9 4.68-9.9 11.82 0 7.2 3.9 11.88 9.9 11.88 6.06 0 9.9-4.68 9.9-11.88 0-7.14-3.84-11.82-9.9-11.82zM68.8 141.26c-.6 0-1.2-.18-1.74-.84l-4.32-4.32-2.28 2.28c-2.34 2.4-5.58 3.84-9.18 3.84-7.02 0-12.84-5.7-12.84-12.78a12.76 12.76 0 0 1 6.42-11.16l-1.2-1.2c-2.4-2.4-3.72-4.86-3.72-8.4 0-6.18 5.1-11.28 11.28-11.28 8.04 0 11.7 7.68 11.7 8.46 0 1.44-1.38 2.58-2.7 2.58-2.4 0-3.84-5.88-9-5.88-3.36 0-6.12 2.64-6.12 6.12 0 1.92.6 3.12 2.16 4.68l15.48 15.48 4.14-4.14c.66-.54 1.2-.9 1.8-.9 1.38 0 2.58 1.26 2.58 2.7 0 .6-.18 1.32-.72 1.86l-4.2 4.08 4.32 4.38c.54.54.84 1.14.84 1.8 0 1.44-1.32 2.64-2.7 2.64zm-20.04-19.08c-3 1.02-5.16 3.84-5.16 7.2 0 4.14 3.48 7.74 7.62 7.74 2.16 0 4.08-.84 5.4-2.22l2.46-2.46-10.32-10.26zm45.778 19.02h-6.9c-1.62 0-2.52-1.26-2.52-2.52 0-1.38.9-2.58 2.52-2.58h.9v-32.52h-.9c-1.62 0-2.52-1.26-2.52-2.52 0-1.38.9-2.58 2.52-2.58h6.9c1.74 0 2.64 1.2 2.64 2.58 0 1.26-.9 2.52-2.64 2.52h-.9v32.52h.9c1.74 0 2.64 1.2 2.64 2.58 0 1.26-.9 2.52-2.64 2.52z"/><use xlink:href="#R"/><use xlink:href="#M" x="-350.08" y="61.2"/><use xlink:href="#G" x="55.562" y="61.2"/><use xlink:href="#S"/><use xlink:href="#Q" x="-765.537" y="61.2"/><use xlink:href="#P" x="-559.692" y="61.2"/><use xlink:href="#I" x="27.181" y="61.2"/><use xlink:href="#R" x="171.116"/><use xlink:href="#O" x="-294.329" y="61.2"/><path d="M373.473 135.68c-2.94 4.08-7.14 6.54-13.38 6.54-12.9 0-17.46-10.68-17.46-22.38 0-11.76 4.56-22.44 17.46-22.44 6.06 0 10.5 2.4 13.32 6.54.42.54.54 1.02.54 1.5 0 1.44-1.26 2.52-2.64 2.52-.78 0-1.5-.36-2.04-1.08-1.86-2.7-4.62-4.32-9.18-4.32-8.52 0-12.3 6.3-12.3 17.28s3.78 17.28 12.3 17.28c4.56 0 7.32-1.74 9.18-4.38.54-.78 1.26-1.14 2.04-1.14 1.38 0 2.7 1.14 2.7 2.58 0 .48-.18.96-.54 1.5z"/><use xlink:href="#I" x="166.258" y="61.2"/><use xlink:href="#R" x="310.193"/><use xlink:href="#Q" x="-532.743" y="61.2"/><use xlink:href="#P" x="-326.898" y="61.2"/><use xlink:href="#R" x="370.433"/><path d="M528.87 141.26c-1.14 0-2.28-.66-2.52-1.98-2.4 1.86-5.34 3-8.64 3-7.44 0-13.68-6.18-13.68-13.68v-16.62c0-1.68 1.26-2.58 2.52-2.58 1.38 0 2.64.9 2.64 2.52v16.68c0 4.68 3.9 8.58 8.52 8.58 4.68 0 8.58-3.9 8.58-8.58v-16.62c0-1.86 1.2-2.64 2.52-2.64 1.38 0 2.58.9 2.58 2.58v26.82c0 1.68-1.2 2.52-2.52 2.52z"/><use xlink:href="#N" x="27.253" y="61.2"/><use xlink:href="#Q" x="-394.505" y="61.2"/><use xlink:href="#I" x="386.573" y="61.2"/><path d="M659.066 141.2h-12.42c-1.38 0-2.64-1.26-2.64-2.52v-37.618c0-1.38 1.26-2.58 2.64-2.58h12.42c12.36 0 16.44 10.2 16.44 21.3 0 11.16-4.08 21.42-16.44 21.42zm0-37.62h-9.9v32.52h9.9c7.74 0 11.28-5.7 11.28-16.32 0-10.44-3.54-16.2-11.28-16.2z"/><use xlink:href="#N" x="170.348" y="61.2"/><use xlink:href="#S" x="531.047"/><path d="M748.224 141.32c-3.24 0-6-2.76-6-6.12v-34.138c0-1.74 1.26-2.58 2.58-2.58s2.58.84 2.58 2.52V135.2c0 .72.54 1.02.84 1.02 1.68 0 2.58 1.2 2.58 2.58 0 1.32-.9 2.52-2.58 2.52z"/><use xlink:href="#P" x="-33.024" y="61.2"/><use xlink:href="#R" x="664.303"/><use xlink:href="#N" x="288.183" y="61.2"/><path d="M39.547 172.814c-3.306 0-6.003-3.002-6.003-6.687s2.697-6.648 6.003-6.648c3.268 0 5.965 2.963 5.965 6.648s-2.697 6.688-5.965 6.688zm0-11.208c-1.9 0-3.838 1.785-3.838 4.52s1.938 4.52 3.838 4.52 3.8-1.785 3.8-4.52-1.9-4.52-3.8-4.52zm14.36-1.406l-7.257 26.216c-.19.532-.493.798-.95.798-.57 0-1.178-.456-1.178-1.102 0-.114 0-.228.037-.304l7.258-26.217c.19-.57.53-.835.987-.835.532 0 1.14.493 1.14 1.14 0 .076 0 .15-.038.304zm4.712 26.33c-3.268 0-5.966-3.002-5.966-6.687 0-3.646 2.698-6.648 5.966-6.648 3.306 0 6.003 3.002 6.003 6.648 0 3.686-2.697 6.688-6.003 6.688zm0-11.17c-1.9 0-3.8 1.785-3.8 4.482 0 2.736 1.9 4.52 3.8 4.52 1.938 0 3.837-1.785 3.837-4.52 0-2.697-1.9-4.482-3.837-4.482z"/><use xlink:href="#T"/><use xlink:href="#U"/><path d="M115.688 177.525H99.92c.342 4.332 3.153 7.485 7.295 7.485 2.052 0 4.483-.912 5.585-2.622.267-.418.57-.53.912-.53.57 0 1.178.455 1.178 1.025 0 .342 0 .418-.722 1.254-1.748 2.052-4.293 3.04-6.953 3.04-6.117 0-9.536-5.015-9.536-10.752 0-5.7 3.42-10.715 9.536-10.715s9.537 5.054 9.537 10.715c0 .57-.532 1.102-1.064 1.102zm-8.473-9.65c-4.56 0-6.953 3.495-7.295 7.485h14.628c-.342-4.332-3.153-7.485-7.333-7.485z"/><use xlink:href="#V"/><use xlink:href="#T" x="67.214"/><use xlink:href="#W"/><path d="M193.967 186.53c-.53 0-1.102-.38-1.102-1.063v-1.9c-1.596 2.242-4.065 3.61-7.37 3.61-6.117 0-9.536-5.015-9.536-10.752 0-5.7 3.42-10.715 9.536-10.715 3.306 0 5.775 1.368 7.37 3.572v-8.74c0-.684.57-1.063 1.102-1.063.494 0 1.064.38 1.064 1.063v24.925c0 .684-.57 1.063-1.064 1.063zm-8.473-18.655c-4.483 0-7.37 3.61-7.37 8.55s2.888 8.587 7.37 8.587c4.52 0 7.37-3.647 7.37-8.587s-2.85-8.55-7.37-8.55z"/><path d="M214.982 191.584c-.2 0-.38-.076-.608-.2-5.015-3.686-6.8-10.448-6.8-16.376 0-4.938 1.824-13.184 6.84-16.033.2-.076.38-.2.57-.2.607 0 1.025.608 1.025 1.18 0 .835-.15.455-1.33 1.52-3.686 3.306-4.94 8.738-4.94 13.525 0 4.408 1.52 11.816 5.774 14.552.38.267.57.57.57.912a1.13 1.13 0 0 1-1.102 1.103z" class="b"/><use xlink:href="#X" class="b"/><use xlink:href="#V" x="122.32" class="b"/><path d="M272.817 187.252c-2.28 0-6.117-.798-7.447-3-.15-.23-.15-.418-.15-.57 0-.607.53-1.14 1.102-1.14.228 0 .607.19.836.532 1.367 1.67 3.8 2.014 5.66 2.014 3.686 0 5.547-1.216 5.547-3.686 0-5.737-12.462-2.698-12.462-10.297 0-3.837 3.837-5.32 7.295-5.32 1.976 0 5.016.685 6.535 2.204.228.228.342.494.342.722 0 .57-.57 1.14-1.178 1.14-.23 0-.494-.076-.722-.304-1.18-1.14-3.306-1.596-4.978-1.596-3.344 0-5.13 1.292-5.13 3.153 0 5.32 12.462 2.508 12.462 10.297 0 4.33-3.8 5.85-7.713 5.85z" class="b"/><use xlink:href="#T" x="206.825" class="b"/><path d="M323.09 177.943l-3.8 3.838 3.534 3.533c.266.266.342.532.342.798 0 .608-.494 1.102-1.064 1.102-.266 0-.53-.076-.798-.342l-3.533-3.57-1.292 1.292c-1.558 1.558-3.57 2.583-5.965 2.583-4.445 0-8.13-3.61-8.13-8.093a8.08 8.08 0 0 1 4.065-7.066l-.722-.722c-1.558-1.56-2.394-3.23-2.394-5.357 0-3.914 3.23-7.144 7.143-7.144 4.445 0 7.333 4.218 7.333 5.054 0 .607-.57 1.063-1.14 1.063-1.102 0-2.508-3.95-6.193-3.95a5 5 0 0 0-4.978 4.978c0 1.596.532 2.583 1.7 3.762l10.563 10.562 3.8-3.837c.266-.228.53-.342.798-.342.53 0 1.063.53 1.063 1.102 0 .266-.076.494-.342.76zm-15.046-4.33c-2.052.912-3.495 3-3.495 5.433 0 3.268 2.697 5.966 5.927 5.966 1.672 0 3.04-.57 4.18-1.672l1.596-1.634-8.207-8.093z" class="b"/><use xlink:href="#X" x="115.785" class="b"/><use xlink:href="#U" x="270.966" class="b"/><path d="M379.063 187.176c-6.117 0-9.536-5.015-9.536-10.752 0-5.7 3.42-10.715 9.536-10.715s9.537 5.016 9.537 10.715c0 5.737-3.42 10.752-9.537 10.752zm0-19.3c-4.483 0-7.37 3.6-7.37 8.55s2.888 8.587 7.37 8.587c4.52 0 7.37-3.647 7.37-8.587s-2.85-8.55-7.37-8.55zm11.135 26.71c-.152.076-.304.076-.418.076-.646 0-1.102-.57-1.102-1.102 0-.418.228-.798.722-1.026 1.48-.646 2.926-1.937 2.926-4.407V167.42c0-.684.53-1.063 1.102-1.063.494 0 1.063.342 1.063 1.063v20.707c0 3.533-2.203 5.623-4.293 6.46zm3.23-31.877a2.166 2.166 0 1 1 0-4.332c1.14 0 2.166.95 2.166 2.166s-1.026 2.166-2.166 2.166z" class="b"/><use xlink:href="#W" x="244.26" class="b"/><path d="M436.555 184.29c-1.672 1.86-3.99 2.887-6.8 2.887-6.117 0-9.536-5.015-9.536-10.752 0-5.7 3.42-10.715 9.536-10.715 2.812 0 5.13 1.026 6.8 2.888.23.23.305.494.305.722 0 .57-.532 1.14-1.103 1.14-.266 0-.53-.114-.798-.38-1.254-1.406-3-2.204-5.205-2.204-4.483 0-7.37 3.61-7.37 8.55s2.888 8.587 7.37 8.587c2.204 0 3.95-.836 5.205-2.204.267-.266.532-.38.798-.38a1.13 1.13 0 0 1 1.103 1.102c0 .267-.076.494-.305.76z" class="b"/><use xlink:href="#T" x="363.723" class="b"/><use xlink:href="#W" x="296.509" class="b"/><path d="M490.475 186.53c-.532 0-1.102-.38-1.102-1.063v-1.9c-1.596 2.242-4.065 3.6-7.37 3.6-6.117 0-9.536-5.015-9.536-10.752 0-5.7 3.42-10.715 9.536-10.715 3.306 0 5.775 1.368 7.37 3.572v-8.74c0-.684.57-1.063 1.102-1.063.494 0 1.064.38 1.064 1.063v24.925c0 .684-.57 1.063-1.064 1.063zm-8.473-18.655c-4.483 0-7.37 3.6-7.37 8.55s2.888 8.587 7.37 8.587c4.52 0 7.37-3.647 7.37-8.587s-2.85-8.55-7.37-8.55zm15.24 23.52c-.2.114-.418.2-.608.2-.57 0-1.063-.532-1.063-1.103 0-.342.152-.722.494-.912 4.293-2.812 5.737-10.106 5.737-14.552 0-5.015-1.33-11.132-5.7-14.134-.343-.266-.57-.57-.57-.9 0-.57.494-1.18 1.102-1.18.152 0 .38.114.532.2 5.016 2.812 6.8 11.095 6.8 16.033 0 5.928-1.747 12.652-6.725 16.376z" class="b"/></g><linearGradient id="D" gradientUnits="userSpaceOnUse" x1="755.615" y1="824.058" x2="193.355" y2="261.798"><stop offset="0" stop-color="#fff"/><stop offset=".859" stop-color="#fff" stop-opacity=".313"/><stop offset="1" stop-color="#fff" stop-opacity=".2"/></linearGradient><path d="M790.245 789.428v-546H238.617v106H105.725v440z" fill="url(#D)" fill-opacity=".2" stroke-width="3" class="d e"/><linearGradient id="E" gradientUnits="userSpaceOnUse" x1="112.448" y1="236.705" x2="231.894" y2="356.151"><stop offset="0" stop-color="#fff" stop-opacity="0"/><stop offset=".142" stop-color="#fff" stop-opacity=".07"/><stop offset="1" stop-color="#fff" stop-opacity=".5"/></linearGradient><path d="M105.725 243.428h132.892v106H105.725z" fill="url(#E)" fill-opacity=".2" stroke-width="3" class="d e"/><g class="c"><path d="M132.6 769.058c-4.22 0-9-2.268-11.34-5.985a2.79 2.79 0 0 1-.44-1.512c0-1.45 1.26-2.583 2.7-2.583 1.197 0 1.638.44 2.583 1.7 1.575 1.953 4.032 3.023 6.5 3.023 4.348 0 8.758-3.97 8.758-9.64 0-5.732-4.4-9.702-8.758-9.702-3.34 0-5.607 1.7-6.678 3.528-.505.945-1.387 1.45-2.458 1.45-1.638 0-2.7-1.07-2.7-3.15v-19.972c0-1.45 1.26-2.646 2.7-2.646h19.153c1.827 0 2.772 1.26 2.772 2.7 0 1.323-.882 2.646-2.646 2.646H126.12v11.78c1.512-1.07 3.906-1.7 6.5-1.7 7.75 0 14.113 6.553 14.113 15.058 0 8.38-6.363 14.995-14.113 14.995zm30.627.442c-4.85 0-9.135-2.52-11.466-6.427-.315-.504-.44-1.008-.44-1.45 0-1.512 1.323-2.646 2.772-2.646.818 0 1.7.314 2.268 1.26a7.78 7.78 0 0 0 6.805 3.906c4.726 0 8.632-3.906 8.632-8.506 0-4.725-3.844-8.63-8.57-8.63h-.062c-1.638 0-2.646-1.26-2.646-2.646s1.07-2.7 2.7-2.7c3.844 0 6.93-2.96 6.93-6.93 0-3.78-3.087-6.867-6.93-6.867-6.1 0-6.174 6.174-9.45 6.174-1.45 0-2.835-1.134-2.835-2.646a2.8 2.8 0 0 1 .44-1.513c1.512-2.33 5.292-7.434 11.844-7.434 6.805 0 12.286 5.544 12.286 12.285 0 3.844-1.638 7.183-4.474 9.45 3.654 2.52 6.1 6.616 6.1 11.404a13.93 13.93 0 0 1-13.924 13.924z"/><use xlink:href="#Y"/><path d="M141 329.428H121.7c-1.827 0-2.898-1.07-2.898-2.395 0-.566.19-1.134.567-1.7l17.2-26.146c.756-1.196 1.196-2.646 1.196-3.78 0-3.718-2.77-6.553-6.49-6.553-3.34 0-6.174 2.835-7.245 4.852-.504.944-1.323 1.322-2.142 1.322-1.45 0-2.772-1.134-2.772-2.583 0-1.953 4.473-9.01 12.16-9.01 6.553 0 11.845 5.354 11.845 11.845 0 2.52-.882 4.977-2.142 6.804l-14.428 21.988H141c1.827 0 2.77 1.26 2.77 2.71 0 1.323-.944 2.646-2.77 2.646z"/><use xlink:href="#Y" x="-29.482" y="-439"/><path d="M143.76 842.365l-14.5 37.36c-.504 1.26-1.26 1.765-2.33 1.765-1.387 0-2.835-1.07-2.835-2.646 0-.378.126-.693.252-1.07l13.734-35.85h-16.81c-1.386 0-2.646-1-2.646-2.7 0-1.45 1.197-2.646 2.646-2.646H142c1.386 0 2.772.882 2.772 2.7 0 .756-.82 2.457-1 3.087zm28.792 0l-14.5 37.36c-.504 1.26-1.26 1.765-2.33 1.765-1.387 0-2.835-1.07-2.835-2.646 0-.378.126-.693.252-1.07l13.734-35.85H150.06c-1.386 0-2.646-1-2.646-2.7 0-1.45 1.197-2.646 2.646-2.646h20.73c1.386 0 2.772.882 2.772 2.7 0 .756-.82 2.457-1 3.087z"/><use xlink:href="#Y" x="-1.133" y="113"/></g><g opacity=".5" class="c"><path d="M129.145 972.428c-1.323 0-2.646-1.008-2.646-2.646v-33.77l-5.04 4.914c-.567.567-1.197.756-1.765.756-1.512 0-2.835-1.386-2.835-2.77 0-.693.252-1.323.82-1.9l9.388-9.072c.756-.693 1.575-1.008 2.33-1.008 1.764 0 2.52 1.764 2.52 3.213v39.566c0 1.7-1.323 2.7-2.772 2.7zM151.5 973.5c-13.483 0-13.483-16.003-13.483-25.2 0-8.884 1.386-21.862 13.42-21.862s13.546 12.663 13.546 21.862c0 9.576-.252 25.2-13.482 25.2zm8.064-25.2c0-5.545-.127-16.444-8.064-16.444s-8.064 10.9-8.064 16.444v3.527c0 6.553.882 16.318 8 16.318 7.245 0 8.128-9.766 8.128-16.318V948.3zm24.454 25.2c-13.483 0-13.483-16.003-13.483-25.2 0-8.884 1.386-21.862 13.42-21.862S197.5 939.1 197.5 948.298c0 9.576-.252 25.2-13.482 25.2zm8.064-25.2c0-5.545-.127-16.444-8.064-16.444s-8.064 10.9-8.064 16.444v3.527c0 6.553.882 16.318 8 16.318 7.245 0 8.128-9.766 8.128-16.318V948.3z"/><use xlink:href="#Y" x="21.42" y="204"/></g><g class="c"><use xlink:href="#Z"/><use xlink:href="#a"/><path d="M67.74 768.428c-.42 0-.784-.308-.784-.784V750.9l-3.052 2.968a.69.69 0 0 1-.532.252c-.448 0-.84-.42-.84-.868 0-.168.112-.364.252-.532l4.424-4.283c.224-.168.448-.225.532-.225.588 0 .812.42.812.98v18.45c0 .477-.336.784-.812.784zm11.088.476c-5.852 0-6.384-5.992-6.384-10.444 0-5.236 1.12-10.472 6.384-10.472 2.352 0 4.032 1.036 5.18 2.8.14.14.168.308.168.476 0 .393-.42.757-.84.757-.224 0-.448-.084-.644-.364-.896-1.288-2.072-2.072-3.864-2.072-3.528 0-4.788 3.36-4.788 8.848v.477c1.148-1.484 2.968-2.38 4.788-2.38 3.36 0 6.02 2.912 6.02 6.188s-2.66 6.188-6.02 6.188zm0-10.78c-2.184 0-4.48 1.904-4.48 4.76.504 2.353 1.624 4.424 4.48 4.424 2.408 0 4.396-2.1 4.396-4.592s-1.988-4.592-4.396-4.592z"/><use xlink:href="#Z" y="113"/><use xlink:href="#a" y="113"/><path d="M72.976 881.428H63.82c-.476 0-.812-.392-.812-.784a.79.79 0 0 1 .168-.447l8.344-11.788c.392-.588.644-1.372.644-2.1 0-2.044-1.624-3.724-3.668-3.724-2.66 0-3.724 2.912-4.48 2.912-.42 0-.868-.336-.868-.784 0-.644 2.128-3.724 5.348-3.724 2.912 0 5.264 2.38 5.264 5.235 0 1.064-.336 2.185-.98 3.08l-7.42 10.528h7.616c.504 0 .784.42.784.812 0 .364-.28.784-.784.784zm9.66.28c-1.876 0-4.004-1.008-5.04-2.66-.112-.168-.14-.308-.14-.448 0-.447.42-.812.84-.812s.448.224.868.672c.896 1.064 2.072 1.652 3.472 1.652 2.464 0 4.676-2.128 4.676-5.068 0-2.968-2.212-5.096-4.676-5.096-1.932 0-3.192 1.23-3.696 1.987-.168.28-.42.393-.756.393-.476 0-.812-.308-.812-.84v-9.212c0-.477.364-.784.784-.784h9.352c.56 0 .84.392.84.784s-.28.784-.84.784h-8.54v6.552c.896-.73 2.1-1.26 3.668-1.26 3.444 0 6.272 2.912 6.272 6.692 0 3.724-2.828 6.664-6.272 6.664z"/></g><g opacity=".5" class="c"><use xlink:href="#Z" y="204"/><use xlink:href="#a" y="204"/><use xlink:href="#b"/><use xlink:href="#b" x="14.307"/></g><g class="c"><path d="M43.857 329.428H34.7c-.476 0-.812-.392-.812-.784 0-.168.084-.336.168-.448l8.344-11.788c.392-.588.644-1.372.644-2.1 0-2.044-1.624-3.724-3.668-3.724-2.66 0-3.724 2.912-4.48 2.912-.42 0-.868-.336-.868-.784 0-.644 2.128-3.724 5.348-3.724 2.912 0 5.264 2.38 5.264 5.236 0 1.064-.336 2.184-.98 3.08l-7.42 10.528h7.616c.504 0 .784.42.784.812 0 .364-.28.784-.784.784z"/><use xlink:href="#c"/><use xlink:href="#c" x="15.567"/><use xlink:href="#c" x="31.135"/></g><g opacity=".8" class="c"><use xlink:href="#d"/><path d="M742.547 1046.317c-3.22 0-5.02-2.64-5.02-5.66 0-3 1.8-5.64 5.02-5.64s5.02 2.64 5.02 5.64c0 3.02-1.8 5.66-5.02 5.66zm0-10.162c-2.36 0-3.88 1.9-3.88 4.5s1.52 4.52 3.88 4.52c2.38 0 3.88-1.92 3.88-4.52s-1.5-4.5-3.88-4.5z"/><use xlink:href="#e"/><use xlink:href="#f"/><use xlink:href="#g"/><use xlink:href="#h"/><use xlink:href="#d" x="62.499"/><path d="M801.524 1039.416c-.64 0-1.16-.5-1.16-1.14s.52-1.14 1.16-1.14c.62 0 1.12.5 1.12 1.14s-.5 1.14-1.12 1.14zm0 6.562c-.64 0-1.16-.5-1.16-1.14s.52-1.14 1.16-1.14c.62 0 1.12.5 1.12 1.14s-.5 1.14-1.12 1.14z"/><use xlink:href="#i"/><use xlink:href="#j"/><use xlink:href="#h" x="53.399"/><path d="M856.524 1045.978h-6.66c-.3 0-.58-.28-.58-.56v-13.122c0-.36.28-.56.58-.56.26 0 .56.18.56.56v12.542h6.1c.36 0 .56.3.56.58 0 .26-.2.56-.56.56z"/><use xlink:href="#k"/><use xlink:href="#l"/><use xlink:href="#g" x="115.198"/><use xlink:href="#h" x="115.198"/><path d="M909.844 1045.978h-.62c-1.58 0-2.36-.78-2.36-2.34v-7.142h-1.02c-.36 0-.56-.3-.56-.58 0-.26.2-.56.56-.56h1.02v-3.06c0-.36.3-.56.58-.56s.56.2.56.56v3.06h1.84c.36 0 .56.3.56.56 0 .28-.2.58-.56.58h-1.84v7.142c0 .98.28 1.2 1.22 1.2h.62c.36 0 .56.3.56.58 0 .26-.2.56-.56.56zm3.178 1.78c-.08.06-.2.08-.3.08-.32 0-.54-.28-.54-.58 0-.56.86-.64 1-1.28-.6-.04-1.08-.54-1.08-1.14a1.16 1.16 0 0 1 1.16-1.16c.98 0 1.2 1 1.2 1.62 0 .98-.52 1.92-1.44 2.46z"/><use xlink:href="#i" x="111.938"/><use xlink:href="#j" x="111.938"/><use xlink:href="#h" x="165.338"/><path d="M966.703 1046.317c-4.4 0-5.82-3.7-5.82-7.46 0-3.74 1.42-7.482 5.82-7.482 1.8 0 3.38.64 4.44 2.18.1.1.12.2.12.32 0 .32-.3.56-.62.56-.28 0-.44-.24-.66-.52-.7-.9-1.76-1.4-3.28-1.4-3.02 0-4.682 2.32-4.682 6.342 0 3.04.96 6.32 4.682 6.32 3.16 0 4.54-2.42 4.68-5.74h-2.44a.57.57 0 0 1-.6-.58c0-.28.2-.58.56-.58h3.04c.34 0 .58.24.58.58 0 3.9-1.54 7.46-5.82 7.46z"/><use xlink:href="#e" x="224.836"/><use xlink:href="#k" x="127.658"/><use xlink:href="#f" x="237.677"/><path d="M1015.023 1045.978c-.28 0-.58-.2-.58-.56v-1c-.84 1.18-2.14 1.9-3.88 1.9-3.22 0-5.02-2.64-5.02-5.66 0-3 1.8-5.64 5.02-5.64 1.74 0 3.04.72 3.88 1.88v-4.6c0-.36.3-.56.58-.56.26 0 .56.2.56.56v13.122c0 .36-.3.56-.56.56zm-4.46-9.822c-2.36 0-3.88 1.9-3.88 4.5s1.52 4.52 3.88 4.52c2.38 0 3.88-1.92 3.88-4.52s-1.5-4.5-3.88-4.5zm8.437-2.72c-.64 0-1.14-.5-1.14-1.14s.5-1.14 1.14-1.14 1.14.5 1.14 1.14-.5 1.14-1.14 1.14zm0 12.543c-.28 0-.58-.18-.58-.56v-9.502c0-.36.28-.56.58-.56.26 0 .56.18.56.56v9.502c0 .36-.26.56-.56.56z"/><use xlink:href="#k" x="163.498"/><use xlink:href="#l" x="163.497"/></g><g opacity=".3" class="c"><path d="M42.328 1046.045c-3.568 0-5.47-1.97-5.503-2.002 0 .935-.7 1.4-1.468 1.4-.7 0-1.4-.467-1.4-1.4v-20.88a1.35 1.35 0 0 1 1.401-1.434c.767 0 1.468.467 1.468 1.4v6.238c1.334-1.368 3.168-2.17 5.503-2.17 5.37 0 8.373 4.403 8.373 9.406 0 5.037-3.002 9.44-8.373 9.44zm0-16c-3.335 0-5.503 2.602-5.503 6.57 0 4.003 2.168 6.604 5.503 6.604s5.504-2.602 5.504-6.604c0-3.97-2.168-6.57-5.504-6.57zm25.555 8.037h-12.34c.467 3.136 2.468 5.137 5.403 5.137 1.5 0 3.002-.533 3.97-1.734.3-.333.634-.533 1.034-.533.734 0 1.5.667 1.5 1.468 0 .4-.1.7-.8 1.4-1.5 1.468-3.57 2.235-5.704 2.235-5.37 0-8.372-4.437-8.372-9.44 0-4.97 3.002-9.406 8.372-9.406 5.437 0 8.34 4.437 8.34 9.406 0 .734-.534 1.468-1.4 1.468zm-6.937-8.038c-3.136 0-4.97 2.3-5.403 5.17H66.35c-.467-3.202-2.468-5.17-5.403-5.17zM88 1045.478c-1.834 0-2.668-1.3-2.97-1.9-1.334 1.468-3.27 2.47-5.87 2.47-5.437 0-8.372-4.47-8.372-9.44s3.002-9.406 8.372-9.406c2.335 0 4.203.834 5.504 2.202v-.134c0-.367.133-1.5 1.4-1.5.7 0 1.468.367 1.468 1.4v12.875c0 .434.3.6.467.6.935 0 1.435.667 1.435 1.434a1.37 1.37 0 0 1-1.435 1.401zm-8.84-15.443c-3.336 0-5.504 2.602-5.504 6.57 0 4.003 2.168 6.604 5.504 6.604 3.37 0 5.504-2.602 5.504-6.604 0-3.97-2.135-6.57-5.504-6.57z"/><use xlink:href="#m"/><path d="M115.158 1045.478h-.567c-3.17 0-4.37-1.668-4.37-4.403V1030.6h-1c-.8 0-1.435-.634-1.435-1.4 0-.8.634-1.435 1.4-1.435h1v-4.637c0-.934.7-1.4 1.435-1.4s1.4.467 1.4 1.4v4.637h2.135c.934 0 1.4.768 1.4 1.4 0 .8-.533 1.434-1.4 1.434h-2.135v10.774c0 .934.333 1.268 1.268 1.268h.833c.868 0 1.435.634 1.435 1.4 0 .8-.533 1.435-1.4 1.435zm4.604-20.415a2.402 2.402 0 1 1 0-4.803 2.402 2.402 0 1 1 0 4.803zm0 20.414c-.733 0-1.467-.5-1.467-1.4V1029.2c0-.935.733-1.435 1.467-1.435a1.37 1.37 0 0 1 1.401 1.435v14.876c0 .935-.7 1.4-1.4 1.4zm10.376-14.877h-1.5v13.442c0 .935-.7 1.4-1.468 1.4-.7 0-1.4-.467-1.4-1.4V1030.6h-1.37c-.9 0-1.4-.667-1.4-1.4 0-.768.5-1.435 1.4-1.435h1.367v-2.27c0-2.135 1.77-3.77 3.836-3.77.968 0 1.468.667 1.468 1.434 0 .7-.5 1.4-1.468 1.4-.566 0-.967.434-.967.9v2.302h1.5c.967 0 1.468.667 1.468 1.435 0 .733-.5 1.4-1.468 1.4z"/><use xlink:href="#m" x="42.068"/><path d="M154.725 1045.544c-1.802 0-3.336-1.534-3.336-3.402v-18.98c0-.967.7-1.434 1.435-1.434s1.435.467 1.435 1.4v19.013c0 .4.3.567.467.567.934 0 1.435.667 1.435 1.435 0 .733-.5 1.4-1.435 1.4zm15.37-.066v-1.264c1.886-.237 2.046-.437 2.046-3.157v-6.7c0-2.8-1.248-4.017-3.064-4.017-1.237 0-2.345.6-3.47 1.493v9.476c0 2.527.187 2.658 2.06 2.896v1.264h-8.968v-1.264c2.254-.33 2.5-.4 2.5-3v-8.2c0-2.446-.303-2.565-2.185-2.922v-1.184c2.173-.292 4.63-.807 6.653-1.533l-.052 2.95 2.6-1.745c1.16-.713 2-1.086 3.16-1.086 3.194 0 5.2 2.338 5.2 6.3v7.5c0 2.54.237 2.657 2.277 2.92v1.264h-8.74zm23.9-3.703c-2.458 3.427-5.488 4.178-7.014 4.178-5.142 0-8.124-3.936-8.124-8.594 0-2.745 1.183-5.396 2.832-7.062 1.74-1.8 3.945-2.814 6.082-2.814 3.73 0 6.396 3.126 6.37 6.347-.014.715-.08 1.277-.612 1.4-.767.184-6.17.5-10.318.647.062 4.587 2.717 6.74 5.556 6.74 1.572 0 3.104-.597 4.543-1.866l.686 1.014zm-7.07-12.7c-1.667 0-3.167 1.807-3.516 4.963l5.486-.118c.6-.026.848-.146.848-.792.04-2.022-1.037-4.053-2.818-4.053zm34.284.145c-1.943.343-2.248.624-3.105 2.765-1.33 3.462-3.102 8.53-4.934 13.94h-1.512l-4.65-11.46-4.55 11.46h-1.472l-4.685-14.192c-.687-1.985-.94-2.274-2.855-2.512v-1.25h9.397v1.25c-2.325.345-2.535.672-2.058 2.133l2.52 8.214c1.507-3.68 2.988-7.62 4.327-11.424h1.456c1.4 3.76 2.986 7.702 4.573 11.568.742-2.107 2.062-5.964 2.557-8.108.412-1.674-.008-2.078-2.753-2.383v-1.25h7.742v1.25zm9.4 3.746c-.92-2.606-2.155-3.984-4.2-3.984-1.206 0-2.225.86-2.225 2.266 0 1.497 1.046 2.264 3.16 3.216 3.278 1.496 5.3 2.787 5.3 5.736 0 3.85-3.6 5.764-6.945 5.764-2.06 0-4.088-.737-4.92-1.16l-.662-4.892 1.252-.224c.8 2.5 2.33 4.75 4.976 4.75 1.505 0 2.438-.952 2.438-2.28 0-1.423-.76-2.333-3.092-3.467-2.67-1.295-5.107-2.64-5.107-5.775 0-3.046 2.533-5.42 6.565-5.42 1.818 0 3.242.396 4.112.567l.62 4.577-1.25.328z"/></g><defs ><path id="G" d="M120.155 66.68h-22.2c.84 5.64 4.44 9.24 9.72 9.24 2.7 0 5.4-.96 7.14-3.12.54-.6 1.14-.96 1.86-.96 1.32 0 2.7 1.2 2.7 2.64 0 .72-.18 1.26-1.44 2.52-2.7 2.64-6.42 4.02-10.26 4.02-9.66 0-15.06-7.98-15.06-16.98 0-8.94 5.4-16.92 15.06-16.92 9.78 0 15 7.98 15 16.92 0 1.32-.96 2.64-2.52 2.64zm-12.48-14.46c-5.64 0-8.94 4.14-9.72 9.3h19.44c-.84-5.76-4.44-9.3-9.72-9.3z"/><path id="H" d="M150.335 80c-1.32 0-2.52-.9-2.52-2.52V60.8c0-4.68-3.9-8.58-8.58-8.58-4.62 0-8.52 3.9-8.52 8.58v16.62c0 1.68-1.26 2.64-2.64 2.64-1.26 0-2.52-.9-2.52-2.58v-26.82c0-1.74 1.26-2.52 2.52-2.52 1.2 0 2.28.66 2.58 1.98 2.34-1.86 5.28-3 8.58-3 7.44 0 13.68 6.18 13.68 13.68v16.62c0 1.68-1.2 2.58-2.58 2.58z"/><path id="I" d="M225.334 81.02c-9.66 0-15.06-7.92-15.06-16.98 0-9 5.4-16.92 15.06-16.92s15.06 7.92 15.06 16.92c0 9.06-5.4 16.98-15.06 16.98zm0-28.8c-6 0-9.9 4.68-9.9 11.82 0 7.2 3.9 11.88 9.9 11.88 6.06 0 9.9-4.68 9.9-11.88 0-7.14-3.84-11.82-9.9-11.82z"/><path id="J" d="M257.614 52.222c-4.62 0-8.52 3.9-8.52 8.58v16.62c0 1.68-1.26 2.58-2.64 2.58-1.26 0-2.52-.9-2.52-2.52v-26.76c0-1.68 1.38-2.58 2.52-2.58 1.2 0 2.34.66 2.58 2.04 2.34-1.92 5.52-3.06 8.58-3.06 1.74 0 2.64 1.2 2.64 2.58 0 1.32-.9 2.52-2.64 2.52z"/><path id="K" d="M331.58 80c-.9 0-1.8-.48-2.28-1.56l-3.18-7.8h-19.98l-3.24 7.8c-.48 1.08-1.38 1.56-2.22 1.56-1.32 0-2.7-1.02-2.7-2.52 0-.36.06-.72.24-1.02l15.42-37.498c.72-1.56 1.68-1.86 2.46-1.86.54 0 1.86.3 2.46 1.86l15.48 37.498c.12.3.18.66.18 1.02 0 1.5-1.26 2.52-2.64 2.52zm-15.48-33.6l-7.86 19.08h15.72l-7.86-19.08z"/><path id="L" d="M396.078 81.02c-4.38 0-10.5-1.8-13.92-4.98-.66-.6-.84-1.26-.84-1.86a2.6 2.6 0 0 1 2.58-2.58c.9 0 1.2.3 2.28 1.14 2.94 2.22 6.42 3.18 9.9 3.18 7.14 0 10.26-2.58 10.26-7.02 0-12.48-23.94-5.4-23.94-21.72 0-7.32 6.18-10.98 14.1-10.98 4.14 0 10.08 1.62 13.02 5.1.48.54.66 1.08.66 1.62 0 1.44-1.32 2.7-2.58 2.7-.9 0-1.38-.42-2.4-1.32-2.4-2.04-5.46-2.94-8.7-2.94-6.48 0-8.94 2.58-8.94 5.82 0 11.22 23.94 4.56 23.94 21.72 0 8.94-7.5 12.12-15.42 12.12z"/><path id="M" d="M493.998 53.242h-2.7v24.18c0 1.68-1.26 2.52-2.64 2.52-1.26 0-2.52-.84-2.52-2.52v-24.18h-2.46c-1.62 0-2.52-1.2-2.52-2.52 0-1.38.9-2.58 2.52-2.58h2.46v-4.08c0-3.84 3.18-6.78 6.9-6.78 1.74 0 2.64 1.2 2.64 2.58 0 1.26-.9 2.52-2.64 2.52-1.02 0-1.74.78-1.74 1.62v4.14h2.7c1.74 0 2.64 1.2 2.64 2.58 0 1.32-.9 2.52-2.64 2.52z"/><path id="N" d="M536.417 66.68h-22.2c.84 5.64 4.44 9.24 9.72 9.24 2.7 0 5.4-.96 7.14-3.12.54-.6 1.14-.96 1.86-.96 1.32 0 2.7 1.2 2.7 2.64 0 .72-.18 1.26-1.44 2.52-2.7 2.64-6.42 4.02-10.26 4.02-9.66 0-15.06-7.98-15.06-16.98 0-8.94 5.4-16.92 15.06-16.92 9.78 0 15 7.98 15 16.92 0 1.32-.96 2.64-2.52 2.64zm-12.48-14.46c-5.64 0-8.94 4.14-9.72 9.3h19.438c-.84-5.76-4.44-9.3-9.72-9.3z"/><path id="O" d="M609.603 81.02c-3.3 0-8.82-1.02-11.64-4.5-.36-.54-.54-1.08-.54-1.56 0-1.5 1.44-2.7 2.7-2.7.72 0 1.26.36 1.86 1.02 1.86 2.04 4.92 2.64 7.62 2.64 5.4 0 7.14-1.86 7.14-4.56 0-7.68-18.3-2.94-18.3-15.3 0-6.54 6.12-8.94 11.82-8.94 3.24 0 10.86 1.62 10.86 4.98 0 1.32-1.08 2.7-2.52 2.7-.54 0-1.38-.3-1.98-.78-1.62-1.38-3.96-1.8-6.36-1.8-4.98 0-6.72 1.86-6.72 3.84 0 7.14 18.36 2.52 18.36 15.3 0 7.08-5.94 9.66-12.3 9.66z"/><path id="P" d="M789.648 43.282a4.3 4.3 0 1 1 0-8.64 4.3 4.3 0 1 1 0 8.64zm0 36.72c-1.32 0-2.64-.9-2.64-2.52v-26.76c0-1.68 1.32-2.58 2.64-2.58 1.26 0 2.52.9 2.52 2.58v26.76c0 1.68-1.26 2.52-2.52 2.52z"/><path id="Q" d="M987.213 80h-1.02c-5.7 0-7.86-3-7.86-7.92v-18.84h-1.8c-1.44 0-2.58-1.14-2.58-2.52 0-1.44 1.14-2.58 2.52-2.58h1.8v-8.34c0-1.68 1.26-2.52 2.58-2.52s2.52.84 2.52 2.52v8.34h3.84c1.68 0 2.52 1.38 2.52 2.52 0 1.44-.96 2.58-2.52 2.58h-3.84v19.38c0 1.68.6 2.28 2.28 2.28h1.5c1.56 0 2.58 1.14 2.58 2.52 0 1.44-.96 2.58-2.52 2.58z"/><path id="R" d="M125.977 141.2c-1.32 0-2.52-.9-2.52-2.52V122c0-4.68-3.9-8.58-8.58-8.58-4.62 0-8.52 3.9-8.52 8.58v16.62c0 1.68-1.26 2.64-2.64 2.64-1.26 0-2.52-.9-2.52-2.58v-26.82c0-1.74 1.26-2.52 2.52-2.52 1.2 0 2.28.66 2.58 1.98 2.34-1.86 5.28-3 8.58-3 7.44 0 13.68 6.18 13.68 13.68v16.62c0 1.68-1.2 2.58-2.58 2.58z"/><path id="S" d="M206.737 137.66c-2.64 2.94-6.3 4.56-10.74 4.56-9.66 0-15.06-7.92-15.06-16.98 0-9 5.4-16.92 15.06-16.92 4.44 0 8.1 1.62 10.74 4.56.48.54.72 1.14.72 1.74 0 1.32-1.32 2.58-2.7 2.58-.54 0-1.2-.24-1.86-.84-1.68-1.86-3.9-2.94-6.9-2.94-6 0-9.9 4.68-9.9 11.82 0 7.2 3.9 11.88 9.9 11.88 3 0 5.28-1.14 6.9-2.94.54-.66 1.26-.9 1.86-.9 1.38 0 2.7 1.2 2.7 2.64 0 .54-.24 1.2-.72 1.74z"/><path id="T" d="M83.89 186.53h-1.178c-3 0-4.483-1.48-4.483-4.445V168.52h-1.937c-.684 0-1.063-.57-1.063-1.102 0-.494.38-1.063 1.063-1.063h1.938v-5.813c0-.684.57-1.063 1.103-1.063s1.063.38 1.063 1.063v5.813h3.495c.685 0 1.064.57 1.064 1.063 0 .532-.38 1.102-1.064 1.102h-3.495v13.564c0 1.86.532 2.28 2.317 2.28h1.178c.685 0 1.064.57 1.064 1.103 0 .493-.38 1.063-1.064 1.063z"/><path id="U" d="M96.317 168.217c-3.57 0-6.497 2.888-6.497 6.497v10.753c0 .684-.57 1.063-1.063 1.063-.532 0-1.103-.38-1.103-1.063V167.42c0-.684.57-1.063 1.103-1.063.494 0 1.063.38 1.063 1.063v1.558c1.7-1.86 3.95-2.925 6.497-2.925.684 0 1.102.57 1.102 1.063 0 .532-.418 1.102-1.102 1.102z"/><path id="V" d="M140.35 186.53h-.038c-1.254 0-3.04-.684-3.762-2.964-1.596 2.242-4.065 3.61-7.37 3.61-6.193 0-9.536-5.09-9.536-10.752 0-5.737 3.42-10.715 9.536-10.715 3.306 0 5.775 1.368 7.37 3.572v-1.862c0-.607.494-1.063 1.102-1.063.532 0 1.064.38 1.064 1.063v15.312c0 2.432 2.735.912 2.735 2.736a1.04 1.04 0 0 1-1.102 1.063zm-11.17-18.655c-4.483 0-7.37 3.61-7.37 8.55s2.888 8.587 7.37 8.587c4.52 0 7.37-3.647 7.37-8.587s-2.85-8.55-7.37-8.55z"/><path id="W" d="M172.003 177.525h-15.768c.342 4.332 3.153 7.485 7.295 7.485 2.052 0 4.483-.912 5.585-2.622.267-.418.57-.53.912-.53.57 0 1.178.455 1.178 1.025 0 .342 0 .418-.722 1.254-1.748 2.052-4.293 3.04-6.953 3.04-6.117 0-9.536-5.015-9.536-10.752 0-5.7 3.42-10.715 9.536-10.715s9.537 5.054 9.537 10.715c0 .57-.532 1.102-1.064 1.102zm-8.473-9.65c-4.56 0-6.953 3.495-7.295 7.485h14.628c-.342-4.332-3.153-7.485-7.333-7.485z"/><path id="X" d="M229.535 187.176c-3.306 0-5.775-1.367-7.37-3.61v9.84c0 .684-.57 1.102-1.063 1.102-.532 0-1.103-.418-1.103-1.102V167.42c0-.684.57-1.063 1.103-1.063.494 0 1.063.38 1.063 1.063v1.862c1.596-2.204 4.065-3.572 7.37-3.572 6.117 0 9.536 5.016 9.536 10.715 0 5.737-3.42 10.752-9.536 10.752zm0-19.3c-4.52 0-7.37 3.61-7.37 8.55s2.85 8.587 7.37 8.587 7.37-3.647 7.37-8.587-2.85-8.55-7.37-8.55z"/><path id="Y" d="M185.26 736.2c-3.195 0-5.804-2.9-5.804-6.464s2.608-6.428 5.804-6.428c3.158 0 5.766 2.865 5.766 6.428s-2.607 6.464-5.766 6.464zm0-9.77c-1.176 0-2.645 1.175-2.645 3.306s1.47 3.306 2.645 3.306 2.645-1.176 2.645-3.306-1.47-3.306-2.645-3.306zm15.315-1.8l-6.758 24.313c-.184.81-.81 1.176-1.433 1.176-.845 0-1.652-.588-1.652-1.543 0-.11 0-.294.036-.44l6.795-24.35c.22-.77.845-1.14 1.47-1.14.77 0 1.616.55 1.616 1.47 0 .184-.037.33-.073.514zm5.215 24.828c-3.158 0-5.766-2.9-5.766-6.464 0-3.526 2.607-6.428 5.766-6.428 3.195 0 5.804 2.9 5.804 6.428 0 3.563-2.608 6.464-5.804 6.464zm0-9.77c-1.14 0-2.607 1.175-2.607 3.306 0 2.167 1.47 3.342 2.607 3.342 1.176 0 2.645-1.175 2.645-3.342 0-2.13-1.47-3.306-2.645-3.306z"/><path id="Z" d="M43.857 768.428H34.7c-.476 0-.812-.392-.812-.784a.79.79 0 0 1 .168-.447l8.344-11.788c.392-.588.644-1.372.644-2.1 0-2.044-1.624-3.724-3.668-3.724-2.66 0-3.724 2.912-4.48 2.912-.42 0-.868-.336-.868-.784 0-.644 2.128-3.724 5.348-3.724 2.912 0 5.264 2.38 5.264 5.235 0 1.064-.336 2.185-.98 3.08l-7.42 10.528h7.616c.504 0 .784.42.784.812 0 .364-.28.784-.784.784z"/><path id="a" d="M54.077 768.904c-5.936 0-5.992-7.112-5.992-11.2 0-4.004.616-9.716 5.964-9.716 5.236 0 6.02 5.376 6.02 9.716 0 4.06-.084 11.2-5.992 11.2zm4.396-11.2c0-4.004-.56-8.12-4.396-8.12-4.2 0-4.396 5.152-4.396 8.12v1.792c0 3.248.616 7.812 4.368 7.812 3.836 0 4.424-4.563 4.424-7.812v-1.792z"/><path id="b" d="M69.365 963.916v2.128a.81.81 0 0 1-.784.813c-.392 0-.812-.31-.812-.812v-2.884c0-.477.336-.784.812-.784 2.408 0 4.368-1.988 4.368-4.368 0-2.436-1.96-4.424-4.368-4.424-3.052 0-3.444 2.912-4.564 2.912-.42 0-.84-.336-.84-.784 0-.616 2.128-3.724 5.404-3.724 3.304 0 5.964 2.66 5.964 5.992 0 3.275-2.548 5.655-5.18 5.936zm-.728 8.512c-.896 0-1.596-.7-1.596-1.596s.7-1.596 1.596-1.596c.868 0 1.596.7 1.596 1.596s-.728 1.596-1.596 1.596z"/><path id="c" d="M54.077 329.904c-5.936 0-5.992-7.112-5.992-11.2 0-4.004.616-9.716 5.964-9.716 5.236 0 6.02 5.376 6.02 9.716 0 4.06-.084 11.2-5.992 11.2zm4.396-11.2c0-4.004-.56-8.12-4.396-8.12-4.2 0-4.396 5.152-4.396 8.12v1.792c0 3.248.616 7.812 4.368 7.812 3.836 0 4.424-4.564 4.424-7.812v-1.792z"/><path id="d" d="M731.826 1046.357c-1.2 0-3.22-.42-3.92-1.58-.08-.12-.08-.22-.08-.3 0-.32.28-.6.58-.6.12 0 .32.1.44.28.72.88 2 1.06 2.98 1.06 1.94 0 2.92-.64 2.92-1.94 0-3.02-6.562-1.42-6.562-5.422 0-2.02 2.02-2.8 3.84-2.8 1.04 0 2.64.36 3.44 1.16.12.12.18.26.18.38a.65.65 0 0 1-.62.6.53.53 0 0 1-.38-.16c-.62-.6-1.74-.84-2.62-.84-1.76 0-2.7.68-2.7 1.66 0 2.8 6.562 1.32 6.562 5.422 0 2.28-2 3.08-4.06 3.08z"/><path id="e" d="M758.327 1045.978c-.28 0-.58-.2-.58-.56v-.64c-.84.98-2.06 1.54-3.42 1.54-2.48 0-4.56-2.08-4.56-4.56v-5.842c0-.36.3-.56.58-.56.26 0 .56.2.56.56v5.842c0 1.9 1.52 3.42 3.42 3.42s3.42-1.52 3.42-3.42v-5.842c0-.36.3-.56.58-.56.26 0 .56.2.56.56v9.502c0 .36-.3.56-.56.56z"/><path id="f" d="M766.286 1036.336a3.42 3.42 0 0 0-3.421 3.42v5.66c0 .36-.3.56-.56.56-.28 0-.58-.2-.58-.56v-9.502c0-.36.3-.56.58-.56.26 0 .56.2.56.56v.82c.9-.98 2.08-1.54 3.42-1.54.36 0 .58.3.58.56a.58.58 0 0 1-.58.581z"/><path id="g" d="M776.467 1044.797c-.88.98-2.1 1.52-3.58 1.52-3.22 0-5.02-2.64-5.02-5.66 0-3 1.8-5.64 5.02-5.64 1.48 0 2.7.54 3.58 1.52a.53.53 0 0 1 .16.381.63.63 0 0 1-.58.6c-.14 0-.28-.06-.42-.2-.66-.74-1.58-1.16-2.74-1.16-2.36 0-3.88 1.9-3.88 4.5s1.52 4.52 3.88 4.52c1.16 0 2.08-.44 2.74-1.16.14-.14.28-.2.42-.2.3 0 .58.26.58.58a.57.57 0 0 1-.16.399z"/><path id="h" d="M788.047 1041.236h-8.302c.18 2.28 1.66 3.94 3.84 3.94 1.08 0 2.36-.48 2.94-1.38.14-.22.3-.28.48-.28.3 0 .62.24.62.54 0 .18 0 .22-.38.66-.92 1.08-2.26 1.6-3.66 1.6-3.22 0-5.02-2.64-5.02-5.66 0-3 1.8-5.64 5.02-5.64s5.02 2.66 5.02 5.64c0 .3-.28.58-.56.58zm-4.46-5.08c-2.4 0-3.66 1.84-3.84 3.94h7.7c-.18-2.28-1.66-3.94-3.86-3.94z"/><path id="i" d="M818.486 1032.854h-3.88v12.563c0 .36-.28.56-.58.56-.26 0-.56-.18-.56-.56v-12.562h-3.88a.55.55 0 0 1-.58-.56.55.55 0 0 1 .58-.561h8.9c.36 0 .56.28.56.56s-.2.56-.56.56z"/><path id="j" d="M829.205 1045.978c-.28 0-.58-.2-.58-.56v-5.84c0-1.9-1.52-3.42-3.42-3.42a3.42 3.42 0 0 0-3.421 3.421v5.84c0 .36-.3.56-.56.56-.28 0-.58-.2-.58-.56v-13.122c0-.36.3-.56.58-.56.26 0 .56.2.56.56v4.26c.84-.98 2.06-1.54 3.42-1.54a4.6 4.6 0 0 1 4.561 4.561v5.84c0 .36-.3.56-.56.56z"/><path id="k" d="M869.346 1045.978h-.02c-.66 0-1.6-.36-1.98-1.56-.84 1.18-2.14 1.9-3.88 1.9-3.26 0-5.02-2.68-5.02-5.66 0-3.02 1.8-5.64 5.02-5.64 1.74 0 3.04.72 3.88 1.88v-.98c0-.32.26-.56.58-.56.28 0 .56.2.56.56v8.063c0 1.28 1.44.48 1.44 1.44a.55.55 0 0 1-.58.561zm-5.88-9.822c-2.36 0-3.88 1.9-3.88 4.5s1.52 4.52 3.88 4.52c2.38 0 3.88-1.92 3.88-4.52s-1.5-4.5-3.88-4.5z"/><path id="l" d="M880.305 1045.978c-.28 0-.58-.2-.58-.56v-5.84c0-1.9-1.52-3.42-3.42-3.42a3.42 3.42 0 0 0-3.421 3.421v5.84c0 .36-.3.56-.56.56-.28 0-.58-.2-.58-.56v-9.502c0-.36.3-.56.58-.56.26 0 .56.2.56.56v.64c.9-.98 2.08-1.54 3.42-1.54a4.6 4.6 0 0 1 4.561 4.561v5.84c0 .36-.3.56-.56.56z"/><path id="m" d="M104.714 1045.51c-.633 0-1.267-.367-1.4-1.1-1.334 1.034-2.97 1.668-4.804 1.668-4.136 0-7.604-3.436-7.604-7.605v-9.24a1.37 1.37 0 0 1 1.4-1.435c.768 0 1.468.5 1.468 1.4v9.272c0 2.602 2.168 4.77 4.736 4.77 2.603 0 4.77-2.17 4.77-4.77v-9.24c0-1.034.667-1.468 1.4-1.468.768 0 1.435.5 1.435 1.435v14.9c0 .934-.667 1.4-1.4 1.4z"/></defs></svg>