<svg xmlns="http://www.w3.org/2000/svg" xmlns:xlink="http://www.w3.org/1999/xlink" viewBox="0 0 2166 1080"><style><![CDATA[.L{fill:#fff}.M{opacity:.7}.N{stroke-miterlimit:10}]]></style><defs><linearGradient id="A" x1="283.25" y1="-259.75" x2="1882.75" y2="1339.75" gradientUnits="userSpaceOnUse"><stop offset="0" stop-color="#409fa7"/><stop offset=".066" stop-color="#4cac93"/><stop offset=".134" stop-color="#53b586"/><stop offset=".196" stop-color="#56b881"/><stop offset=".217" stop-color="#6fb46b"/><stop offset=".252" stop-color="#90ae4c"/><stop offset=".287" stop-color="#aaaa34"/><stop offset=".323" stop-color="#bda723"/><stop offset=".361" stop-color="#c8a519"/><stop offset=".401" stop-color="#cca416"/><stop offset=".598" stop-color="#fe5d11"/><stop offset=".806" stop-color="#b22435"/><stop offset="1" stop-color="#3c0a2f"/></linearGradient><path id="B" d="M106.958 1046.164a1.36 1.36 0 0 1-1.4-1.101 7.763 7.763 0 0 1-4.804 1.668 7.666 7.666 0 0 1-7.604-7.605v-9.24a1.434 1.434 0 0 1 2.868-.033v9.272a4.753 4.753 0 1 0 9.507 0v-9.24a1.33 1.33 0 0 1 1.4-1.468 1.364 1.364 0 0 1 1.435 1.435v14.9a1.328 1.328 0 0 1-1.401 1.4z"/><path id="C" d="M1364.875 1046.357c-1.2 0-3.22-.42-3.92-1.58a.482.482 0 0 1-.08-.3.546.546 0 0 1 1.021-.32 3.812 3.812 0 0 0 2.98 1.061c1.94 0 2.92-.64 2.92-1.94 0-3.02-6.562-1.42-6.562-5.422 0-2.02 2.02-2.8 3.84-2.8a5.415 5.415 0 0 1 3.44 1.16.558.558 0 0 1 .18.38.648.648 0 0 1-.62.6.531.531 0 0 1-.38-.16 4.001 4.001 0 0 0-2.62-.84c-1.76 0-2.7.68-2.7 1.66 0 2.8 6.562 1.32 6.562 5.422 0 2.28-2 3.08-4.06 3.08z"/><path id="D" d="M1375.195 1046.317c-3.22 0-5.02-2.64-5.02-5.66 0-3 1.8-5.64 5.02-5.64s5.02 2.64 5.02 5.64c0 3.02-1.8 5.66-5.02 5.66zm0-10.162c-2.36 0-3.88 1.9-3.88 4.5s1.52 4.52 3.88 4.52c2.38 0 3.88-1.92 3.88-4.52s-1.5-4.5-3.88-4.5z"/><path id="E" d="M1398.136 1036.336a3.418 3.418 0 0 0-3.421 3.42v5.66a.57.57 0 0 1-1.141 0v-9.502a.57.57 0 0 1 1.141 0v.82a4.565 4.565 0 0 1 3.421-1.54.57.57 0 1 1 0 1.141z"/><path id="F" d="M1407.915 1044.797a4.645 4.645 0 0 1-3.58 1.52c-3.22 0-5.02-2.64-5.02-5.66 0-3 1.8-5.64 5.02-5.64a4.647 4.647 0 0 1 3.58 1.52.531.531 0 0 1 .16.381.627.627 0 0 1-.58.6.587.587 0 0 1-.42-.2 3.526 3.526 0 0 0-2.74-1.16c-2.36 0-3.88 1.9-3.88 4.5s1.52 4.52 3.88 4.52a3.596 3.596 0 0 0 2.74-1.16.587.587 0 0 1 .42-.2.594.594 0 0 1 .58.58.571.571 0 0 1-.16.399z"/><path id="G" d="M1419.096 1041.236h-8.302c.18 2.28 1.66 3.94 3.84 3.94a3.615 3.615 0 0 0 2.94-1.381.525.525 0 0 1 .479-.28.611.611 0 0 1 .62.541c0 .18 0 .22-.38.66a4.72 4.72 0 0 1-3.66 1.601c-3.22 0-5.02-2.64-5.02-5.66 0-3 1.8-5.64 5.02-5.64s5.02 2.66 5.02 5.64a.606.606 0 0 1-.56.58zm-4.46-5.08c-2.4 0-3.66 1.84-3.84 3.94h7.7c-.18-2.28-1.66-3.94-3.86-3.94z"/><path id="H" d="M1442.113 1045.978h-2.28a.57.57 0 1 1 0-1.141h.56v-11.982h-.56a.56.56 0 1 1 0-1.12h2.28a.56.56 0 1 1 0 1.12h-.58v11.982h.58a.57.57 0 0 1 0 1.141z"/><path id="I" d="M1453.234 1045.978a.563.563 0 0 1-.58-.561v-5.84a3.42 3.42 0 1 0-6.841 0v5.84a.57.57 0 0 1-1.141 0v-9.502a.57.57 0 0 1 1.141 0v.64a4.563 4.563 0 0 1 7.981 3.021v5.84a.558.558 0 0 1-.561.561z"/><path id="J" d="M1459.714 1045.978h-.62a2.075 2.075 0 0 1-2.36-2.341v-7.142h-1.02a.57.57 0 0 1 0-1.14h1.02v-3.06a.562.562 0 0 1 .58-.561.546.546 0 0 1 .56.561v3.06h1.84a.57.57 0 0 1 0 1.14h-1.84v7.142c0 .98.28 1.2 1.22 1.2h.62a.57.57 0 0 1 0 1.141z"/><path id="K" d="M1501.274 1045.978h-.02a2.072 2.072 0 0 1-1.98-1.561 4.536 4.536 0 0 1-3.88 1.9c-3.26 0-5.02-2.68-5.02-5.66 0-3.02 1.8-5.64 5.02-5.64a4.571 4.571 0 0 1 3.88 1.88v-.98a.564.564 0 0 1 .581-.56.546.546 0 0 1 .56.56v8.063c0 1.28 1.44.48 1.44 1.44a.55.55 0 0 1-.58.561zm-5.88-9.822c-2.36 0-3.88 1.9-3.88 4.5s1.52 4.52 3.88 4.52c2.38 0 3.88-1.92 3.88-4.52s-1.5-4.5-3.88-4.5z"/><path id="L" d="M1509.492 1033.435a1.14 1.14 0 1 1 1.141-1.14 1.127 1.127 0 0 1-1.141 1.14zm0 12.543a.55.55 0 0 1-.58-.561v-9.502a.551.551 0 0 1 .58-.56.545.545 0 0 1 .561.56v9.502a.536.536 0 0 1-.561.561z"/><path id="M" d="M1549.853 1046.098a2.096 2.096 0 0 1-1.98-2.12v-11.683a.57.57 0 0 1 1.141 0v11.683c0 1.28 1.42.54 1.42 1.44a.645.645 0 0 1-.58.681z"/><path id="N" d="M1565.813 1045.978h-8.882a.606.606 0 0 1-.58-.561v-13.122a.59.59 0 0 1 .58-.561h8.882a.56.56 0 1 1 0 1.12h-8.32v4.92h6.1a.551.551 0 0 1 .58.561.561.561 0 0 1-.56.58h-6.12v5.92h8.32a.567.567 0 0 1 .58.58.55.55 0 0 1-.58.561z"/><path id="O" d="M1602.072 1050.538c-1.7 0-4.102-.64-4.102-1.36a.636.636 0 0 1 .58-.641 7.13 7.13 0 0 1 1.061.48 7.508 7.508 0 0 0 2.461.38c2.56 0 3.88-1.26 3.88-3.72v-1.4a4.776 4.776 0 0 1-3.88 1.7c-3.16 0-5.02-2.24-5.02-5.32 0-3 1.8-5.64 5.02-5.64a4.571 4.571 0 0 1 3.88 1.88v-.96a.57.57 0 0 1 1.141 0v9.742c0 3.18-1.9 4.86-5.02 4.86zm0-14.383c-2.36 0-3.88 1.9-3.88 4.5 0 2.58 1.42 4.18 3.88 4.18s3.88-1.6 3.88-4.18c0-2.6-1.5-4.5-3.88-4.5z"/><path id="P" d="M1618.152 1036.155l-5.42 12.823a2.071 2.071 0 0 1-2.141 1.2h-.88a.57.57 0 0 1 0-1.141h.88c.44 0 .9-.02 1.08-.48l1.14-2.72-4.142-9.683a.633.633 0 0 1-.04-.26.56.56 0 0 1 .58-.54.513.513 0 0 1 .5.34l3.722 8.682 3.68-8.682a.521.521 0 0 1 .52-.34.542.542 0 0 1 .561.54.633.633 0 0 1-.04.26z"/><path id="Q" d="M1634.553 1045.978a.583.583 0 0 1-.521-.34l-1.28-3.08h-7.2l-1.28 3.08a.564.564 0 0 1-1.081-.2.587.587 0 0 1 .04-.26l5.4-13.104a.631.631 0 0 1 .58-.38.517.517 0 0 1 .48.38l5.4 13.104a.587.587 0 0 1 .04.26.56.56 0 0 1-.58.54zm-5.4-12.183l-3.14 7.622h6.3z"/><path id="R" d="M65.28 684.472c-6.02 0-8.148-4.983-8.148-10.443 0-5.488 2.128-10.472 8.148-10.472 5.992 0 8.148 4.983 8.148 10.472 0 5.46-2.156 10.443-8.148 10.443zm0-19.32c-4.648 0-6.552 3.64-6.552 8.876 0 5.208 1.904 8.848 6.552 8.848 4.62 0 6.552-3.64 6.552-8.848 0-5.236-1.932-8.876-6.552-8.876z"/><path id="S" d="M182.734 655.348c-9.352 0-9.44-11.205-9.44-17.646 0-6.31.97-15.308 9.396-15.308 8.25 0 9.484 8.47 9.484 15.308 0 6.396-.132 17.646-9.44 17.646zm6.926-17.646c0-6.31-.882-12.793-6.926-12.793-6.617 0-6.926 8.117-6.926 12.793v2.823c0 5.117.97 12.308 6.882 12.308 6.043 0 6.97-7.2 6.97-12.308z"/><path id="T" d="M253.63 630.72a4.042 4.042 0 1 1 3.593-4.028 3.846 3.846 0 0 1-3.593 4.028zm0-6.752a2.765 2.765 0 1 0 2.289 2.724 2.54 2.54 0 0 0-2.289-2.724zm8.65-.847l-4.372 15.793c-.114.32-.297.48-.572.48a.704.704 0 0 1-.71-.664.444.444 0 0 1 .023-.183l4.372-15.793a.62.62 0 0 1 .595-.504.72.72 0 0 1 .687.688.644.644 0 0 1-.023.183zm2.838 15.86a4.039 4.039 0 1 1 3.616-4.028 3.843 3.843 0 0 1-3.616 4.028zm0-6.73a2.747 2.747 0 1 0 2.312 2.7 2.514 2.514 0 0 0-2.312-2.7z"/><path id="U" d="M482.22 948.205a8.479 8.479 0 0 0 6.408-2.881 9.989 9.989 0 0 0 2.376-6.911q0-5.184-2.808-7.992a9.932 9.932 0 0 0-7.344-2.809h-.792q-.793.145-.648-.73v-3.437q-.145-.8.648-.585h.432a9.874 9.874 0 0 0 3.816-.716 9.295 9.295 0 0 0 3.024-2.009 10.499 10.499 0 0 0 2.052-3.119 8.754 8.754 0 0 0 .612-4.052q-.216-7.6-7.272-7.816a6.539 6.539 0 0 0-5.04 1.872 8.988 8.988 0 0 0-2.592 5.544q0 1.01-.648.864h-3.816q-.864.073-.648-.72a14.312 14.312 0 0 1 4.032-8.929 11.988 11.988 0 0 1 8.784-3.672 12.158 12.158 0 0 1 8.928 3.672 13.41 13.41 0 0 1 2.7 4.105 14.071 14.071 0 0 1 .324 9.36 11.032 11.032 0 0 1-1.8 3.312 13.522 13.522 0 0 1-4.896 4.104q-.577.36.072.792a16.012 16.012 0 0 1 5.4 4.104q2.808 3.17 2.808 8.856a15.176 15.176 0 0 1-1.044 5.651 14.555 14.555 0 0 1-7.524 7.956 14.189 14.189 0 0 1-5.616 1.225 13.563 13.563 0 0 1-9.432-3.673q-3.96-3.743-4.248-10.224-.216-.36.576-.576h3.816q.72-.07.792.864.576 8.208 8.568 8.568h0z"/><path id="V" d="M521.283 923.01a.9.9 0 0 1-.928-.896v-9.344a5.471 5.471 0 1 0-10.943 0v9.344a.912.912 0 0 1-1.824 0v-20.99a.912.912 0 0 1 1.824 0v6.815a7.108 7.108 0 0 1 5.471-2.464 7.355 7.355 0 0 1 7.296 7.296v9.344a.892.892 0 0 1-.896.896z"/><path id="W" d="M586.083 923.01h-.032a3.313 3.313 0 0 1-3.167-2.496 7.261 7.261 0 0 1-6.208 3.04c-5.215 0-8.03-4.288-8.03-9.056 0-4.83 2.88-9.023 8.03-9.023a7.317 7.317 0 0 1 6.208 3.008v-1.567a.902.902 0 0 1 .928-.896.874.874 0 0 1 .896.896v12.895c0 2.048 2.304.77 2.304 2.305a.88.88 0 0 1-.928.896zm-9.408-15.71c-3.775 0-6.208 3.04-6.208 7.2s2.432 7.23 6.208 7.23c3.808 0 6.208-3.07 6.208-7.23s-2.4-7.2-6.208-7.2z"/><path id="X" d="M602.98 923.01a.9.9 0 0 1-.928-.896v-9.344a5.471 5.471 0 1 0-10.943 0v9.344a.912.912 0 0 1-1.824 0v-15.2a.912.912 0 0 1 1.824 0v1.023a7.299 7.299 0 0 1 12.767 4.832v9.344a.892.892 0 0 1-.896.896z"/><path id="Y" d="M608.42 902.946a1.824 1.824 0 1 1 1.824-1.824 1.803 1.803 0 0 1-1.824 1.824zm0 20.063a.88.88 0 0 1-.928-.896v-15.2a.882.882 0 0 1 .928-.896.872.872 0 0 1 .896.896v15.2a.856.856 0 0 1-.896.896z"/><path id="Z" d="M636.034 907.298l-8.67 20.51a3.31 3.31 0 0 1-3.423 1.92h-1.408a.912.912 0 0 1 0-1.824h1.408c.704 0 1.44-.032 1.728-.768l1.824-4.352-6.624-15.487a1.018 1.018 0 0 1-.064-.416.896.896 0 0 1 .928-.864.823.823 0 0 1 .8.544l5.952 13.888 5.888-13.888a.835.835 0 0 1 .832-.544.868.868 0 0 1 .896.864 1.018 1.018 0 0 1-.064.416z"/><path id="a" d="M660.226 915.426h-13.28c.288 3.647 2.656 6.303 6.144 6.303a5.785 5.785 0 0 0 4.704-2.207.838.838 0 0 1 .768-.448.978.978 0 0 1 .992.864c0 .287 0 .352-.608 1.056a7.556 7.556 0 0 1-5.856 2.56c-5.15 0-8.03-4.224-8.03-9.056 0-4.8 2.88-9.023 8.03-9.023s8.032 4.256 8.032 9.023a.969.969 0 0 1-.896.929zm-7.136-8.128c-3.84 0-5.855 2.944-6.144 6.304h12.32c-.288-3.647-2.656-6.304-6.176-6.304z"/><path id="b" d="M704.545 907.586a5.469 5.469 0 0 0-5.471 5.472v9.056a.912.912 0 0 1-1.824 0v-15.2a.912.912 0 0 1 1.824 0v1.312a7.308 7.308 0 0 1 5.471-2.464.912.912 0 1 1 0 1.824z"/><path id="c" d="M522.02 945.438h-13.28c.288 3.647 2.656 6.303 6.144 6.303a5.785 5.785 0 0 0 4.704-2.207.838.838 0 0 1 .768-.448.978.978 0 0 1 .992.863c0 .288 0 .353-.608 1.057a7.556 7.556 0 0 1-5.856 2.56c-5.15 0-8.03-4.224-8.03-9.056 0-4.8 2.88-9.023 8.03-9.023s8.032 4.256 8.032 9.023a.969.969 0 0 1-.896.929zm-7.136-8.128c-3.84 0-5.855 2.944-6.144 6.304h12.32c-.288-3.647-2.656-6.304-6.176-6.304z"/><path id="d" d="M563.97 951.134a7.434 7.434 0 0 1-5.728 2.432c-5.15 0-8.03-4.224-8.03-9.056 0-4.8 2.88-9.023 8.03-9.023a7.432 7.432 0 0 1 5.728 2.433.847.847 0 0 1 .256.607 1.003 1.003 0 0 1-.928.96.942.942 0 0 1-.672-.32 5.642 5.642 0 0 0-4.384-1.855c-3.775 0-6.208 3.04-6.208 7.2s2.432 7.23 6.208 7.23a5.748 5.748 0 0 0 4.384-1.855.908.908 0 0 1 1.6.608.918.918 0 0 1-.256.64z"/><path id="e" d="M573.282 953.02h-.992c-2.528 0-3.776-1.248-3.776-3.744v-11.423h-1.632a.912.912 0 0 1 0-1.824h1.632v-4.895a.9.9 0 0 1 .928-.896.874.874 0 0 1 .896.896v4.895h2.944a.912.912 0 0 1 0 1.824h-2.944v11.423c0 1.568.448 1.92 1.952 1.92h.992a.912.912 0 0 1 0 1.824z"/><path id="f" d="M587.298 932.96a1.824 1.824 0 1 1 1.824-1.824 1.803 1.803 0 0 1-1.824 1.824zm0 20.063a.88.88 0 0 1-.928-.895v-15.2a.882.882 0 0 1 .928-.896.872.872 0 0 1 .896.896v15.2a.856.856 0 0 1-.896.895z"/><path id="g" d="M637.12 937.31l-8.67 20.51a3.31 3.31 0 0 1-3.424 1.92h-1.408a.912.912 0 0 1 0-1.824h1.408c.704 0 1.44-.032 1.728-.768l1.824-4.352-6.623-15.487a1.011 1.011 0 0 1-.064-.416.896.896 0 0 1 .928-.864.823.823 0 0 1 .8.544l5.952 13.888 5.888-13.888a.835.835 0 0 1 .832-.544.868.868 0 0 1 .896.864 1.018 1.018 0 0 1-.064.416z"/><path id="h" d="M670.433 953.63c-1.92 0-5.15-.673-6.27-2.528a.772.772 0 0 1-.128-.479.873.873 0 0 1 1.632-.513c1.152 1.408 3.2 1.696 4.768 1.696 3.104 0 4.672-1.024 4.672-3.104 0-4.832-10.496-2.272-10.496-8.672 0-3.23 3.232-4.48 6.144-4.48 1.664 0 4.224.576 5.504 1.855a.897.897 0 0 1 .288.608 1.038 1.038 0 0 1-.992.96.85.85 0 0 1-.608-.256 6.397 6.397 0 0 0-4.192-1.344c-2.815 0-4.32 1.088-4.32 2.655 0 4.48 10.495 2.112 10.495 8.672 0 3.647-3.2 4.928-6.496 4.928z"/><path id="i" d="M459.16 976.575h-8.563a.583.583 0 0 1-.559-.54v-12.652a.569.569 0 0 1 .559-.54h8.563a.54.54 0 1 1 0 1.08h-8.023v4.744h5.882a.532.532 0 0 1 .56.541.542.542 0 0 1-.54.559h-5.902v5.71h8.023a.546.546 0 0 1 .559.56.53.53 0 0 1-.559.54z"/><path id="j" d="M471.51 976.595a.475.475 0 0 1-.405-.231l-4.147-5.73h-3.452v5.4a.55.55 0 0 1-1.1 0v-12.652a.57.57 0 0 1 .56-.54h5.208a3.886 3.886 0 0 1 3.916 3.877 3.927 3.927 0 0 1-3.761 3.915l3.645 5.054a.525.525 0 0 1 .135.347.609.609 0 0 1-.598.56zm-3.317-12.672h-4.687v5.612h4.667a2.806 2.806 0 1 0 .019-5.612z"/><path id="k" d="M1644.787 922.945h-.992c-2.528 0-3.776-1.248-3.776-3.744v-11.423h-1.632a.912.912 0 0 1 0-1.824h1.632v-4.896a.9.9 0 0 1 .928-.895.874.874 0 0 1 .896.895v4.896h2.944a.912.912 0 0 1 0 1.824h-2.944V919.2c0 1.568.448 1.92 1.952 1.92h.992a.912.912 0 0 1 0 1.824z"/><path id="l" d="M1453.943 976.575h-8.563a.584.584 0 0 1-.56-.54v-12.652a.57.57 0 0 1 .56-.54h8.563a.54.54 0 1 1 0 1.08h-8.023v4.744h5.883a.532.532 0 0 1 .559.541.542.542 0 0 1-.54.559h-5.902v5.71h8.023a.547.547 0 0 1 .56.56.531.531 0 0 1-.56.54z"/><path id="m" d="M1466.292 976.595a.476.476 0 0 1-.405-.231l-4.146-5.73h-3.453v5.4a.55.55 0 0 1-1.099 0v-12.652a.569.569 0 0 1 .559-.54h5.208a3.885 3.885 0 0 1 3.915 3.877 3.926 3.926 0 0 1-3.761 3.915l3.646 5.054a.527.527 0 0 1 .135.347.608.608 0 0 1-.598.56zm-3.317-12.672h-4.687v5.612h4.667a2.806 2.806 0 0 0 .02-5.612z"/><path id="n" d="M555.178 257.673a2.582 2.582 0 1 1 2.581-2.582 2.571 2.571 0 0 1-2.581 2.582zm0 21.945a1.506 1.506 0 0 1-1.578-1.506V262.12a1.514 1.514 0 0 1 1.578-1.542 1.477 1.477 0 0 1 1.506 1.542v15.993a1.447 1.447 0 0 1-1.506 1.506z"/><path id="o" d="M816.402 279.62a1.449 1.449 0 0 1-1.507-1.506v-9.97a5.11 5.11 0 1 0-10.22 0v9.933a1.524 1.524 0 0 1-1.577 1.578 1.477 1.477 0 0 1-1.506-1.542V255.63a1.542 1.542 0 0 1 3.083-.036v6.204a7.232 7.232 0 0 1 5.093-1.829 8.241 8.241 0 0 1 8.175 8.176v9.933a1.466 1.466 0 0 1-1.541 1.542z"/><path id="p" d="M97.397 66.638h-22.2c.84 5.64 4.44 9.24 9.72 9.24a9.005 9.005 0 0 0 7.14-3.12 2.483 2.483 0 0 1 1.86-.96 2.8 2.8 0 0 1 2.7 2.64c0 .72-.18 1.26-1.44 2.52a14.622 14.622 0 0 1-10.26 4.02c-9.66 0-15.06-7.98-15.06-16.98 0-8.94 5.4-16.92 15.06-16.92 9.78 0 15 7.98 15 16.92a2.558 2.558 0 0 1-2.52 2.64zm-12.48-14.46c-5.64 0-8.94 4.14-9.72 9.3h19.44c-.84-5.76-4.44-9.3-9.72-9.3z"/><path id="q" d="M643.21 79.958a2.424 2.424 0 0 1-2.521-2.52v-16.68a8.55 8.55 0 1 0-17.1 0v16.62a2.55 2.55 0 0 1-2.64 2.64 2.472 2.472 0 0 1-2.52-2.58V50.62a2.387 2.387 0 0 1 2.52-2.52 2.509 2.509 0 0 1 2.58 1.98 13.702 13.702 0 0 1 22.259 10.68v16.62a2.453 2.453 0 0 1-2.579 2.58z"/><path id="r" d="M717.427 80.978a13.132 13.132 0 0 1-9.9-3.96v13.02a2.501 2.501 0 0 1-2.64 2.58 2.472 2.472 0 0 1-2.52-2.58V50.68a2.472 2.472 0 0 1 2.52-2.58 2.501 2.501 0 0 1 2.64 2.58 14.402 14.402 0 0 1 9.9-3.66c9.66 0 15.06 7.92 15.06 16.92 0 9.12-5.4 17.04-15.06 17.04zm0-28.86c-5.94 0-9.9 4.74-9.9 11.82 0 7.2 3.9 11.94 9.9 11.94s9.9-4.68 9.9-11.88c0-7.14-3.9-11.88-9.9-11.88z"/><path id="s" d="M798.247 66.638h-22.2c.84 5.64 4.44 9.24 9.72 9.24a9.007 9.007 0 0 0 7.14-3.12 2.483 2.483 0 0 1 1.859-.96 2.8 2.8 0 0 1 2.7 2.64c0 .72-.18 1.26-1.44 2.52a14.618 14.618 0 0 1-10.259 4.02c-9.66 0-15.06-7.98-15.06-16.98 0-8.94 5.4-16.92 15.06-16.92 9.78 0 15 7.98 15 16.92a2.558 2.558 0 0 1-2.52 2.64zm-12.48-14.46c-5.64 0-8.94 4.14-9.72 9.3h19.438c-.84-5.76-4.44-9.3-9.72-9.3z"/><path id="t" d="M121.084 119.017h-15.768c.342 4.332 3.153 7.485 7.295 7.485a6.866 6.866 0 0 0 5.585-2.622.997.997 0 0 1 .912-.531 1.161 1.161 0 0 1 1.178 1.025c0 .342 0 .418-.722 1.254a8.969 8.969 0 0 1-6.953 3.039c-6.117 0-9.536-5.015-9.536-10.752 0-5.7 3.42-10.715 9.536-10.715s9.537 5.054 9.537 10.715a1.15 1.15 0 0 1-1.064 1.102zm-8.473-9.65c-4.56 0-6.953 3.495-7.295 7.485h14.628c-.342-4.332-3.153-7.485-7.333-7.485z"/><path id="u" d="M141.832 109.708a6.494 6.494 0 0 0-6.497 6.497v10.753a1.083 1.083 0 0 1-2.166 0V108.9a1.083 1.083 0 0 1 2.166 0v1.558a8.676 8.676 0 0 1 6.497-2.925 1.083 1.083 0 1 1 0 2.165z"/><path id="v" d="M213.835 104.2a2.166 2.166 0 1 1 2.165-2.166 2.141 2.141 0 0 1-2.165 2.166zm0 23.822a1.045 1.045 0 0 1-1.103-1.063V108.9a1.047 1.047 0 0 1 1.103-1.063 1.034 1.034 0 0 1 1.063 1.063v18.048a1.016 1.016 0 0 1-1.063 1.063z"/><path id="w" d="M235.796 128.02a1.068 1.068 0 0 1-1.102-1.063v-11.095a6.497 6.497 0 0 0-12.994 0v11.095a1.083 1.083 0 0 1-2.166 0V108.9a1.083 1.083 0 0 1 2.166 0v1.216a8.667 8.667 0 0 1 15.16 5.737v11.095a1.059 1.059 0 0 1-1.064 1.063z"/><path id="x" d="M331.632 128.667a8.619 8.619 0 0 1-7.371-3.609v9.84a1.083 1.083 0 1 1-2.166 0V108.9a1.083 1.083 0 0 1 2.166 0v1.862a8.686 8.686 0 0 1 7.371-3.572c6.117 0 9.536 5.016 9.536 10.715 0 5.737-3.42 10.752-9.536 10.752zm0-19.3c-4.52 0-7.37 3.61-7.37 8.55s2.85 8.587 7.37 8.587 7.37-3.647 7.37-8.587-2.85-8.55-7.37-8.55z"/><path id="y" d="M373.85 128.02h-1.178c-3 0-4.483-1.48-4.483-4.445v-13.564h-1.937a1.083 1.083 0 0 1 0-2.165h1.938v-5.814a1.068 1.068 0 0 1 1.103-1.063 1.037 1.037 0 0 1 1.063 1.063v5.813h3.495a1.083 1.083 0 0 1 0 2.165h-3.495v13.564c0 1.86.532 2.28 2.317 2.28h1.178a1.083 1.083 0 0 1 0 2.166z"/><path id="z" d="M458.55 128.02h-.038a3.933 3.933 0 0 1-3.762-2.964 8.619 8.619 0 0 1-7.371 3.609c-6.193 0-9.536-5.09-9.536-10.752 0-5.737 3.42-10.715 9.536-10.715a8.686 8.686 0 0 1 7.371 3.572V108.9a1.071 1.071 0 0 1 1.102-1.063 1.037 1.037 0 0 1 1.064 1.063v15.312c0 2.432 2.735.912 2.735 2.736a1.045 1.045 0 0 1-1.102 1.063zm-11.17-18.655c-4.483 0-7.37 3.61-7.37 8.55s2.888 8.587 7.37 8.587c4.52 0 7.37-3.647 7.37-8.587s-2.85-8.55-7.37-8.55z"/></defs><rect width="2166" height="1080" rx="40" fill="url(#A)"/><g opacity=".4" class="L"><path d="M44.572 1046.698a7.892 7.892 0 0 1-5.503-2.002 1.364 1.364 0 0 1-1.468 1.401 1.346 1.346 0 0 1-1.401-1.401v-20.88a1.435 1.435 0 0 1 2.869-.033v6.238a7.4 7.4 0 0 1 5.503-2.169c5.37 0 8.373 4.403 8.373 9.406 0 5.037-3.002 9.44-8.373 9.44zm0-16c-3.335 0-5.503 2.602-5.503 6.57 0 4.003 2.168 6.604 5.503 6.604s5.504-2.602 5.504-6.604c0-3.97-2.168-6.57-5.504-6.57zm25.555 8.038h-12.34c.467 3.136 2.468 5.137 5.403 5.137a5.003 5.003 0 0 0 3.969-1.734 1.383 1.383 0 0 1 1.034-.533 1.556 1.556 0 0 1 1.501 1.468c0 .4-.1.7-.8 1.4a8.129 8.129 0 0 1-5.704 2.235c-5.37 0-8.372-4.437-8.372-9.44 0-4.97 3.002-9.406 8.372-9.406 5.437 0 8.34 4.437 8.34 9.406a1.422 1.422 0 0 1-1.401 1.468zm-6.937-8.038c-3.136 0-4.97 2.3-5.403 5.17h10.807c-.467-3.202-2.468-5.17-5.403-5.17zm27.053 15.442a3.247 3.247 0 0 1-2.969-1.901 7.642 7.642 0 0 1-5.87 2.469c-5.437 0-8.372-4.47-8.372-9.44s3.002-9.406 8.372-9.406a7.369 7.369 0 0 1 5.504 2.202v-.134a1.376 1.376 0 0 1 1.4-1.501 1.341 1.341 0 0 1 1.468 1.401v12.875a.54.54 0 0 0 .467.601 1.418 1.418 0 1 1 0 2.835zm-8.84-15.443c-3.336 0-5.504 2.602-5.504 6.57 0 4.003 2.168 6.604 5.504 6.604 3.37 0 5.504-2.602 5.504-6.604 0-3.97-2.135-6.57-5.504-6.57z"/><use xlink:href="#B"/><path d="M117.402 1046.13h-.567c-3.17 0-4.37-1.668-4.37-4.403v-10.474h-1a1.418 1.418 0 1 1-.033-2.835h1v-4.637a1.355 1.355 0 0 1 1.435-1.4 1.328 1.328 0 0 1 1.401 1.4v4.637h2.135a1.383 1.383 0 0 1 1.4 1.401 1.356 1.356 0 0 1-1.4 1.434h-2.135v10.774c0 .934.333 1.268 1.268 1.268h.833a1.376 1.376 0 0 1 1.435 1.4 1.357 1.357 0 0 1-1.4 1.435zm4.603-20.413a2.401 2.401 0 1 1 2.402-2.401 2.392 2.392 0 0 1-2.402 2.401zm0 20.414a1.4 1.4 0 0 1-1.467-1.401v-14.876a1.408 1.408 0 0 1 1.467-1.435 1.374 1.374 0 0 1 1.401 1.435v14.876a1.346 1.346 0 0 1-1.401 1.401zm10.375-14.877h-1.5v13.442a1.364 1.364 0 0 1-1.468 1.401 1.346 1.346 0 0 1-1.401-1.401v-13.442h-1.367a1.418 1.418 0 0 1 0-2.835h1.367v-2.27a3.801 3.801 0 0 1 3.836-3.769 1.418 1.418 0 1 1 0 2.835.934.934 0 0 0-.967.9v2.302h1.5a1.418 1.418 0 1 1 0 2.835z"/><use xlink:href="#B" x="42.068"/><path d="M156.968 1046.198a3.403 3.403 0 0 1-3.336-3.402v-18.98a1.435 1.435 0 0 1 2.869-.033v19.013a.527.527 0 0 0 .467.567 1.418 1.418 0 1 1 0 2.835zm15.37-.068v-1.264c1.886-.237 2.046-.437 2.046-3.157v-6.7c0-2.8-1.248-4.017-3.064-4.017a5.597 5.597 0 0 0-3.47 1.493v9.476c0 2.527.187 2.658 2.06 2.896v1.264h-8.968v-1.264c2.254-.33 2.5-.4 2.5-3v-8.2c0-2.446-.303-2.565-2.185-2.922v-1.184a34.102 34.102 0 0 0 6.653-1.533l-.052 2.95 2.6-1.745a5.659 5.659 0 0 1 3.159-1.086c3.194 0 5.2 2.338 5.2 6.3v7.5c0 2.54.237 2.657 2.277 2.92v1.264zm23.91-3.7c-2.458 3.427-5.488 4.178-7.014 4.178-5.142 0-8.124-3.936-8.124-8.594a10.333 10.333 0 0 1 2.832-7.062 8.602 8.602 0 0 1 6.082-2.814 6.386 6.386 0 0 1 6.37 6.347c-.014.715-.08 1.277-.612 1.4-.767.184-6.17.5-10.318.647.062 4.587 2.717 6.74 5.556 6.74a6.776 6.776 0 0 0 4.543-1.866zm-7.07-12.7c-1.667 0-3.167 1.807-3.516 4.963l5.486-.118c.6-.026.848-.146.848-.792.04-2.022-1.037-4.053-2.818-4.053zm34.284.143c-1.943.343-2.248.624-3.105 2.765-1.33 3.462-3.102 8.53-4.934 13.94h-1.512l-4.65-11.46-4.55 11.46h-1.472l-4.685-14.192c-.687-1.985-.94-2.274-2.855-2.512v-1.25h9.397v1.25c-2.325.345-2.535.672-2.058 2.133l2.52 8.214c1.507-3.68 2.988-7.62 4.327-11.424h1.456c1.4 3.76 2.986 7.702 4.573 11.568.742-2.107 2.062-5.964 2.557-8.108.412-1.674-.008-2.078-2.753-2.383v-1.25h7.742zm9.4 3.737c-.92-2.606-2.155-3.984-4.2-3.984a2.166 2.166 0 0 0-2.225 2.266c0 1.497 1.046 2.264 3.16 3.216 3.278 1.496 5.3 2.787 5.3 5.736 0 3.85-3.6 5.764-6.945 5.764a12.073 12.073 0 0 1-4.92-1.161l-.662-4.892 1.252-.224c.8 2.5 2.33 4.75 4.976 4.75a2.231 2.231 0 0 0 2.438-2.281c0-1.423-.76-2.333-3.092-3.467-2.67-1.295-5.107-2.64-5.107-5.775 0-3.046 2.533-5.42 6.565-5.42a18.751 18.751 0 0 1 4.112.567l.62 4.577z"/></g><g class="L M"><use xlink:href="#C"/><use xlink:href="#D"/><path d="M1390.576 1045.978a.562.562 0 0 1-.58-.561v-.64a4.442 4.442 0 0 1-3.421 1.54 4.61 4.61 0 0 1-4.561-4.561v-5.842a.57.57 0 0 1 1.14 0v5.842a3.421 3.421 0 0 0 6.842 0v-5.842a.57.57 0 0 1 1.141 0v9.502a.558.558 0 0 1-.561.561z"/><use xlink:href="#E"/><use xlink:href="#F"/><use xlink:href="#G"/><use xlink:href="#C" x="60.1"/><path d="M1431.773 1039.416a1.14 1.14 0 1 1 0-2.28 1.14 1.14 0 0 1 0 2.28zm0 6.562a1.14 1.14 0 1 1 0-2.28 1.14 1.14 0 0 1 0 2.28z"/><use xlink:href="#H"/><use xlink:href="#I"/><use xlink:href="#J"/><use xlink:href="#G" x="51.62"/><use xlink:href="#E" x="79.678"/><use xlink:href="#I" x="34.78"/><use xlink:href="#K"/><use xlink:href="#J" x="47.22"/><use xlink:href="#L"/><use xlink:href="#D" x="141.859"/><use xlink:href="#I" x="79.379"/><use xlink:href="#K" x="44.6"/><use xlink:href="#M"/><use xlink:href="#N"/><use xlink:href="#I" x="123.699"/><use xlink:href="#G" x="169.677"/><use xlink:href="#E" x="197.736"/><use xlink:href="#O"/><use xlink:href="#P"/><use xlink:href="#Q"/><use xlink:href="#O" x="38.958"/><use xlink:href="#G" x="238.417"/><use xlink:href="#I" x="215.376"/><use xlink:href="#F" x="271.655"/><use xlink:href="#P" x="72.2"/><path d="M1692.75 1047.758a.513.513 0 0 1-.3.08.56.56 0 0 1-.54-.58c0-.56.86-.64 1-1.28a1.152 1.152 0 0 1 .08-2.301c.98 0 1.2 1 1.2 1.62a2.854 2.854 0 0 1-1.44 2.46z"/><use xlink:href="#H" x="261.417"/><use xlink:href="#I" x="261.416"/><use xlink:href="#J" x="261.416"/><use xlink:href="#G" x="313.036"/><use xlink:href="#E" x="341.094"/><use xlink:href="#I" x="296.196"/><use xlink:href="#K" x="261.416"/><use xlink:href="#J" x="308.636"/><use xlink:href="#L" x="261.416"/><use xlink:href="#D" x="403.275"/><use xlink:href="#I" x="340.796"/><use xlink:href="#K" x="306.026"/><use xlink:href="#M" x="261.417"/><path d="M1827.2 1045.997a.491.491 0 0 1-.42-.239l-4.302-5.94h-3.58v5.6a.57.57 0 0 1-1.141 0v-13.122a.59.59 0 0 1 .58-.561h5.4a4.03 4.03 0 0 1 4.061 4.02 4.072 4.072 0 0 1-3.9 4.062l3.78 5.24a.547.547 0 0 1 .141.359.631.631 0 0 1-.62.58zm-3.44-13.143h-4.86v5.82h4.84a2.911 2.911 0 1 0 .02-5.821z"/><use xlink:href="#G" x="420.054"/><use xlink:href="#I" x="397.014"/><use xlink:href="#G" x="442.994"/><path d="M1877.8 1036.096l-3.26 9.4c-.14.38-.32.48-.58.48-.34 0-.44-.12-.56-.48l-2.62-7.802-2.62 7.802c-.14.38-.32.48-.58.48a.584.584 0 0 1-.56-.48l-3.24-9.4a.876.876 0 0 1-.04-.221.569.569 0 0 1 .58-.52.519.519 0 0 1 .521.38l2.74 7.922 2.62-7.822c.12-.38.24-.48.58-.48.24 0 .44.08.56.48l2.66 7.822 2.7-7.922a.519.519 0 0 1 .521-.38.582.582 0 0 1 .62.54.607.607 0 0 1-.04.2z"/><use xlink:href="#K" x="388.516"/><path d="M1896.808 1046.317a4.537 4.537 0 0 1-3.881-1.9v1a.57.57 0 0 1-1.141 0v-13.122a.57.57 0 0 1 1.141 0v4.6a4.573 4.573 0 0 1 3.881-1.88c3.22 0 5.02 2.64 5.02 5.64 0 3.02-1.8 5.66-5.02 5.66zm0-10.162c-2.38 0-3.88 1.9-3.88 4.5s1.5 4.52 3.88 4.52 3.88-1.92 3.88-4.52-1.5-4.5-3.88-4.5z"/><use xlink:href="#M" x="355.933"/><use xlink:href="#G" x="497.714"/><use xlink:href="#N" x="367.495"/><use xlink:href="#I" x="491.193"/><use xlink:href="#G" x="537.172"/><use xlink:href="#E" x="565.23"/><use xlink:href="#O" x="367.494"/><use xlink:href="#P" x="367.494"/><use xlink:href="#Q" x="367.494"/><use xlink:href="#O" x="406.453"/><use xlink:href="#G" x="605.911"/><use xlink:href="#I" x="582.871"/><use xlink:href="#F" x="639.15"/><use xlink:href="#P" x="439.694"/><path d="M2074.506 1041.457l-2 2.02 1.86 1.86a.561.561 0 0 1 .181.421.577.577 0 0 1-.561.58.559.559 0 0 1-.42-.181l-1.86-1.88-.68.68a4.384 4.384 0 0 1-3.142 1.36 4.277 4.277 0 0 1-2.14-7.981l-.38-.38a3.77 3.77 0 0 1 2.501-6.582 4.385 4.385 0 0 1 3.861 2.661.594.594 0 0 1-.601.56c-.58 0-1.32-2.08-3.26-2.08a2.629 2.629 0 0 0-2.62 2.62 2.527 2.527 0 0 0 .899 1.98l5.562 5.562 2-2.02a.649.649 0 0 1 .421-.18.606.606 0 0 1 .56.58.525.525 0 0 1-.18.4zm-7.922-2.28a3.142 3.142 0 0 0 1.28 6.002 3.033 3.033 0 0 0 2.2-.881l.84-.86z"/><use xlink:href="#D" x="710.549"/><use xlink:href="#J" x="636.69"/><path d="M2106.944 1045.978a.563.563 0 0 1-.58-.561v-5.84a3.42 3.42 0 1 0-6.841 0v5.84a.57.57 0 0 1-1.141 0v-13.122a.57.57 0 0 1 1.141 0v4.26a4.442 4.442 0 0 1 3.421-1.54 4.597 4.597 0 0 1 4.561 4.561v5.84a.558.558 0 0 1-.561.561z"/><use xlink:href="#G" x="699.689"/><use xlink:href="#E" x="727.748"/><use xlink:href="#C" x="765.988"/></g><path d="M506.838 203.92v129.7h-352.97v-129.7h352.97m2-2h-356.97v133.7h356.97v-133.7z" class="L M"/><g fill="#ff0"><path d="M152.118 202.17h46.06v133.2h-46.06z"/><path d="M197.93 202.42v132.7h-45.56v-132.7h45.56m.5-.5h-46.56v133.7h46.56v-133.7z"/></g><path d="M1810.556 576.075v129.7H153.867v-129.7h1656.69m2-2H151.867v133.7h1660.69v-133.7z" class="L M"/><g fill="#ff0"><path d="M152.118 574.325h8.923v133.198h-8.923z"/><path d="M160.79 574.575v132.7h-8.423v-132.7h8.423m.5-.5h-9.423v133.7h9.423v-133.7z"/></g><path d="M2132.277 389.998v129.698H153.868V389.998h1978.41m2-2H151.868v133.698h1982.41V387.998z" class="L M"/><g fill="#ff0"><path d="M152.118 388.248h15.013v133.2h-15.013z"/><path d="M166.88 388.498v132.7h-14.513v-132.7h14.513m.5-.5h-15.513v133.7h15.513v-133.7z"/></g><path d="M350.525 761.3V891H153.867V761.3h196.657m2-2H151.867V893h200.657V759.3z" class="L M"/><g fill="#ff0"><path d="M152.118 759.55h1.607v133.2h-1.607z"/><path d="M153.475 759.8v132.7h-1.108V759.8h1.108m.5-.5h-2.108V893h2.108V759.3z"/></g><g opacity=".8" fill="none" stroke="#fff" stroke-width="2" class="N"><path d="M417.622 173.034v1"/><path d="M417.62 180.06l-.054 792.323" stroke-dasharray="2.00842 6.02527"/><path d="M417.567 975.396v1"/></g><g opacity=".8" fill="none" stroke="#fff" stroke-width="2" class="N"><path d="M1411.555 173.034v1"/><path d="M1411.555 180.06l-.044 792.31" stroke-dasharray="2.00839 6.02518"/><path d="M1411.51 975.383v1"/></g><g class="L"><path d="M46.52 684.472a10.337 10.337 0 0 1-6.692-2.464.729.729 0 0 1-.252-.56.852.852 0 0 1 .812-.812c.336 0 .308.084.896.532a8.873 8.873 0 0 0 5.236 1.708c3.528 0 5.572-1.315 5.572-3.836 0-6.636-11.844-2.94-11.844-10.584 0-3.36 2.94-4.9 6.552-4.9 2.016 0 4.844.867 6.104 2.632a.779.779 0 0 1-.672 1.26c-.392 0-.392-.112-.868-.588a6.481 6.481 0 0 0-4.564-1.708c-3.332 0-4.956 1.288-4.956 3.304 0 6.02 11.844 2.52 11.844 10.584 0 3.892-3.415 5.432-7.168 5.432z"/><use xlink:href="#R"/><path d="M87.903 683.996H78.58a.847.847 0 0 1-.812-.784v-18.368a.771.771 0 0 1 .812-.783.762.762 0 0 1 .784.783V682.4h8.54a.798.798 0 0 1 0 1.596zm19.432 0a.816.816 0 0 1-.728-.476l-1.792-4.312h-10.08l-1.792 4.313a.789.789 0 0 1-1.512-.28.824.824 0 0 1 .056-.364l7.56-18.34a.881.881 0 0 1 .812-.532.722.722 0 0 1 .672.532l7.56 18.34a.831.831 0 0 1 .056.364.783.783 0 0 1-.812.756zm-7.56-17.052l-4.396 10.668h8.82zm25.705 17.08a.692.692 0 0 1-.588-.336l-6.02-8.316h-5.012v7.84a.798.798 0 0 1-1.596 0v-18.368a.826.826 0 0 1 .812-.783h7.56a5.64 5.64 0 0 1 5.684 5.628 5.699 5.699 0 0 1-5.46 5.684l5.292 7.336a.767.767 0 0 1 .196.504.883.883 0 0 1-.868.813zm-4.816-18.396h-6.804v8.148h6.776a4.074 4.074 0 0 0 .028-8.148z"/><path d="M84.017 601.805a20.947 20.947 0 1 0 20.945 20.948 20.944 20.944 0 0 0-20.945-20.948zm0-10.56l-4.688 8.115h9.37zM68.26 595.47v9.37l8.116-4.687zM66.095 607h-9.37l4.685 8.115zm-5.472 11.07l-8.116 4.686 8.116 4.683zm-3.898 20.44l9.37-.001-4.685-8.114zm11.534 11.535l8.116-4.686-8.116-4.685zm15.758 4.22l4.682-8.116h-9.37zm15.754-4.22v-9.372l-8.118 4.685zm2.16-11.536l9.374.001-4.7-8.115zm5.477-11.068l8.118-4.686-8.118-4.683zM111.305 607l-9.374.002 4.684 8.115zM99.77 595.47l-8.118 4.687 8.118 4.685z" class="M"/></g><g fill="#ff0"><path d="M216.924 282.4a1.203 1.203 0 0 1-1.232-1.232v-26.315l-4.797 4.665a1.082 1.082 0 0 1-.836.396 1.393 1.393 0 0 1-1.32-1.364 1.467 1.467 0 0 1 .396-.836l6.953-6.733a1.659 1.659 0 0 1 .836-.352c.924 0 1.276.66 1.276 1.54v29a1.19 1.19 0 0 1-1.276 1.232zm13.596.758a9.432 9.432 0 0 1-8.009-4.444 1.644 1.644 0 0 1-.176-.704 1.38 1.38 0 0 1 1.276-1.32 1.179 1.179 0 0 1 1.012.66 6.913 6.913 0 0 0 12.806-3.564 6.884 6.884 0 0 0-6.865-6.909h-.044a1.276 1.276 0 0 1-1.276-1.276 1.239 1.239 0 0 1 1.276-1.232h.044a5.787 5.787 0 0 0 0-11.574c-4.796 0-5.413 4.577-7.173 4.577a1.308 1.308 0 0 1-1.32-1.232c0-.968 3.345-5.853 8.493-5.853a8.32 8.32 0 0 1 8.273 8.273 8.118 8.118 0 0 1-3.785 6.953 9.188 9.188 0 0 1 4.885 8.229 9.428 9.428 0 0 1-9.417 9.417zm14.08-.758a2.508 2.508 0 1 1 2.509-2.508 2.48 2.48 0 0 1-2.509 2.508zm13.067.758a9.432 9.432 0 0 1-8.009-4.444 1.645 1.645 0 0 1-.176-.704 1.379 1.379 0 0 1 1.276-1.32 1.179 1.179 0 0 1 1.012.66 6.913 6.913 0 0 0 12.806-3.564 6.884 6.884 0 0 0-6.865-6.909h-.044a1.277 1.277 0 0 1-1.276-1.276 1.239 1.239 0 0 1 1.276-1.232h.044a5.787 5.787 0 0 0 0-11.574c-4.796 0-5.413 4.577-7.173 4.577a1.308 1.308 0 0 1-1.32-1.232c0-.968 3.345-5.853 8.493-5.853a8.32 8.32 0 0 1 8.273 8.273 8.117 8.117 0 0 1-3.785 6.953 9.187 9.187 0 0 1 4.885 8.229 9.428 9.428 0 0 1-9.417 9.417z"/><path d="M275.842 258.532a4.042 4.042 0 1 1 3.593-4.028 3.846 3.846 0 0 1-3.593 4.028zm0-6.752a2.765 2.765 0 1 0 2.289 2.724 2.539 2.539 0 0 0-2.289-2.724zm8.65-.847l-4.372 15.792c-.114.32-.297.48-.572.48a.704.704 0 0 1-.71-.664.446.446 0 0 1 .023-.183l4.372-15.792a.62.62 0 0 1 .595-.504.72.72 0 0 1 .687.687.645.645 0 0 1-.023.183zm2.838 15.86a4.039 4.039 0 1 1 3.616-4.028 3.843 3.843 0 0 1-3.616 4.028zm0-6.73a2.747 2.747 0 1 0 2.312 2.701 2.515 2.515 0 0 0-2.312-2.701z" class="M"/><path d="M188.12 469.27c-9.352 0-9.44-11.205-9.44-17.646 0-6.308.97-15.307 9.396-15.307 8.25 0 9.484 8.47 9.484 15.307 0 6.397-.132 17.646-9.44 17.646zm6.926-17.646c0-6.308-.882-12.792-6.926-12.792-6.617 0-6.926 8.117-6.926 12.792v2.823c0 5.117.97 12.308 6.882 12.308 6.043 0 6.97-7.2 6.97-12.308zm8.554 16.896a2.514 2.514 0 1 1 2.514-2.515 2.486 2.486 0 0 1-2.514 2.515zm16.098.75a9.441 9.441 0 0 1-9.44-9.396 9.273 9.273 0 0 1 4.852-8.293 8.163 8.163 0 0 1-3.705-6.97 8.293 8.293 0 1 1 16.586 0 8.201 8.201 0 0 1-3.75 6.97 9.254 9.254 0 0 1 4.852 8.249 9.413 9.413 0 0 1-9.396 9.44zm0-16.322a6.904 6.904 0 1 0 6.882 6.926 6.928 6.928 0 0 0-6.882-6.926zm0-14.116a5.801 5.801 0 1 0 5.779 5.779 5.77 5.77 0 0 0-5.779-5.779zm19.232 29.688a1.206 1.206 0 0 1-1.235-1.235v-26.38l-4.808 4.676a1.087 1.087 0 0 1-.838.397 1.396 1.396 0 0 1-1.323-1.367 1.467 1.467 0 0 1 .397-.838l6.97-6.75a1.661 1.661 0 0 1 .838-.353c.926 0 1.28.662 1.28 1.544v29.07a1.193 1.193 0 0 1-1.279 1.235z"/><path d="M251.013 444.643a4.042 4.042 0 1 1 3.593-4.028 3.846 3.846 0 0 1-3.593 4.028zm0-6.752a2.765 2.765 0 1 0 2.289 2.724 2.539 2.539 0 0 0-2.289-2.724zm8.65-.847l-4.372 15.793c-.114.32-.297.48-.572.48a.704.704 0 0 1-.71-.664.446.446 0 0 1 .023-.183l4.372-15.792a.62.62 0 0 1 .595-.504.72.72 0 0 1 .687.687.645.645 0 0 1-.023.183zm2.838 15.86a4.039 4.039 0 1 1 3.616-4.028 3.843 3.843 0 0 1-3.616 4.028zm0-6.73a2.747 2.747 0 1 0 2.312 2.701 2.515 2.515 0 0 0-2.312-2.701z" class="M"/><use xlink:href="#S"/><path d="M198.215 654.598a2.515 2.515 0 1 1 2.514-2.515 2.486 2.486 0 0 1-2.514 2.515zm15.702.44a9.752 9.752 0 0 1-7.94-4.19 1.194 1.194 0 0 1-.22-.706 1.349 1.349 0 0 1 1.323-1.279c.662 0 .706.354 1.368 1.06a6.943 6.943 0 0 0 5.47 2.603 7.674 7.674 0 0 0 7.367-7.984c0-4.677-3.485-8.03-7.367-8.03a7.13 7.13 0 0 0-5.823 3.132 1.265 1.265 0 0 1-1.191.618 1.216 1.216 0 0 1-1.279-1.323v-14.514a1.206 1.206 0 0 1 1.235-1.235h14.734a1.238 1.238 0 1 1 0 2.471H208.14v10.322a8.933 8.933 0 0 1 5.779-1.985c5.426 0 9.88 4.588 9.88 10.544 0 5.866-4.456 10.498-9.88 10.498zm29.465-30.173l-11.16 28.938a1.229 1.229 0 0 1-1.103.838 1.347 1.347 0 0 1-1.323-1.279 1.884 1.884 0 0 1 .088-.485l10.455-27.218h-13.896a1.236 1.236 0 1 1 0-2.471H242.2c.794 0 1.324.44 1.324 1.104a1.366 1.366 0 0 1-.132.573z"/><use xlink:href="#T" class="M"/><use xlink:href="#S" x="-8.616" y="185.226"/><path d="M188.496 839.824a2.515 2.515 0 1 1 2.514-2.515 2.486 2.486 0 0 1-2.514 2.515zm23.95-5.867h-2.867v4.632a1.258 1.258 0 0 1-2.515 0v-4.632H195.2c-.882 0-1.323-.485-1.323-1.103a1.452 1.452 0 0 1 .22-.794l12.44-23.733a1.287 1.287 0 0 1 1.147-.706 1.301 1.301 0 0 1 1.279 1.235 1.482 1.482 0 0 1-.176.662l-11.47 21.924h9.75v-5.7a1.258 1.258 0 1 1 2.515-.044v5.734h2.867a1.204 1.204 0 0 1 1.235 1.235 1.24 1.24 0 0 1-1.235 1.279zm10.32 5.867a1.206 1.206 0 0 1-1.235-1.235v-26.38l-4.808 4.676a1.088 1.088 0 0 1-.838.397 1.397 1.397 0 0 1-1.323-1.367 1.469 1.469 0 0 1 .397-.839l6.97-6.75a1.663 1.663 0 0 1 .838-.353c.926 0 1.28.66 1.28 1.544v29.07a1.193 1.193 0 0 1-1.279 1.235z"/><use xlink:href="#T" x="-19.617" y="185.226" opacity=".8"/></g><g class="L"><path d="M70.423 486.444l-4.928 18.34a.775.775 0 0 1-.784.588.745.745 0 0 1-.756-.588l-4.2-15.512-4.172 15.512a.745.745 0 0 1-.756.588.775.775 0 0 1-.784-.588l-4.928-18.34a.779.779 0 0 1-.028-.252.812.812 0 0 1 .812-.812.698.698 0 0 1 .728.616l4.2 15.512L59 485.996a.742.742 0 0 1 .756-.56.752.752 0 0 1 .784.56l4.172 15.512 4.2-15.512a.736.736 0 0 1 .728-.616.812.812 0 0 1 .812.812.779.779 0 0 1-.028.252zm7.224 18.928h-3.192a.798.798 0 1 1 0-1.596h.784v-16.772h-.784a.784.784 0 1 1 0-1.568h3.192a.784.784 0 0 1 0 1.568h-.812v16.772h.812a.798.798 0 0 1 0 1.596zm18.48.028a.866.866 0 0 1-.672-.448l-10.948-16.156v15.792a.798.798 0 0 1-1.596 0V486.22a.797.797 0 0 1 1.512-.392l10.948 16.156V486.22a.798.798 0 0 1 1.596 0v18.368a.836.836 0 0 1-.84.812zm12.963-.028h-6.216a.848.848 0 0 1-.812-.784V486.22a.827.827 0 0 1 .812-.784h6.216c5.768 0 7.672 4.816 7.672 9.94 0 5.208-1.904 9.996-7.672 9.996zm0-18.368h-5.432v16.772h5.432c4.788 0 6.076-4.144 6.076-8.372 0-4.984-1.736-8.4-6.076-8.4z"/><path d="M99.852 430.435c-5.424-1.644-10.355-2.137-13.643-1.644a1.246 1.246 0 0 1-.657-.329 3.881 3.881 0 0 0-1.315-1.479c-.164-.164-.33-.33-.164-.657a36.83 36.83 0 0 0 0-12.821c-1.315-9.04-4.767-16.108-7.725-15.78-2.96.493-4.274 8.22-2.96 17.26.822 5.424 2.3 10.027 3.945 12.82a.308.308 0 0 1 0 .493c-.164.33-.164.493-.33.822a4.085 4.085 0 0 0-.164 1.315c0 .33-.164.493-.493.657a34.884 34.884 0 0 0-11.835 6.575c-7.232 5.59-11.67 12.163-9.862 14.465s9.205-.33 16.437-6.082a51.101 51.101 0 0 0 6.082-5.589c.33-.493.986-.164.986.493L76.84 474.98h9.533l-1.315-38.627a.603.603 0 0 1 .986-.493 40.664 40.664 0 0 0 10.684 4.767c8.876 2.63 16.6 2.3 17.588-.493.822-2.794-5.588-7.232-14.464-9.698z" class="M"/><path d="M64 876.297c-6.16 0-8.148-5.18-8.148-10.443 0-5.236 1.988-10.472 8.148-10.472a7.131 7.131 0 0 1 6.216 3.052.567.567 0 0 1 .168.448.839.839 0 0 1-.868.783c-.392 0-.616-.336-.924-.728a5.432 5.432 0 0 0-4.592-1.96c-4.228 0-6.552 3.248-6.552 8.876 0 4.256 1.344 8.848 6.552 8.848 4.424 0 6.356-3.388 6.552-8.036h-3.416a.8.8 0 0 1-.84-.812.787.787 0 0 1 .784-.812h4.256a.779.779 0 0 1 .812.813c0 5.46-2.156 10.443-8.148 10.443zm25.677-.477H77.255a.847.847 0 0 1-.812-.784V856.67a.826.826 0 0 1 .812-.783h12.432a.784.784 0 1 1 0 1.567H78.04v6.9h8.54a.771.771 0 0 1 .812.783.787.787 0 0 1-.784.813H78.04v8.288h11.648a.793.793 0 0 1 .812.812.77.77 0 0 1-.812.784z"/><use xlink:href="#R" x="36.503" y="191.825"/><path d="M97.16 800.25l-1.693-24.38h-3.78l-1.25 17.996h-2.53v-6.46h-20.8v13.15a113.837 113.837 0 0 0-22.681 5.601v39.655h17.28c0-5.273 5.4-8.438 5.4-14.766s-4.32-9.493-4.32-14.766h-3.24l6.48-8.438 6.48 8.438h-3.24c0 5.273 4.32 8.438 4.32 14.766s-5.4 9.493-5.4 14.766h10.8c0-5.273 5.4-8.438 5.4-14.766s-4.32-9.493-4.32-14.766h-3.24l6.48-8.438 6.48 8.438h-3.24c0 5.273 4.32 8.438 4.32 14.766s-5.4 9.493-5.4 14.766h10.8c0-5.273 5.4-8.438 5.4-14.766s-4.32-9.493-4.32-14.766h-3.24l6.48-8.438 6.48 8.438h-3.24c0 5.273 4.32 8.438 4.32 14.766s-5.4 9.493-5.4 14.767h19.44v-39.655a113.794 113.794 0 0 0-25.039-5.906zm-20.5-26.686h9.45c1.637 0 6.615 0 6.615.923h2.835c0-3.7-5.24-3.7-9.45-3.7h-9.45a27.628 27.628 0 0 1-6.143-.923 6.567 6.567 0 0 0 6.143 3.691z" class="M"/><path d="M49.614 317.228a.763.763 0 0 1-.784-.784v-9.1H37.966v9.1a.749.749 0 0 1-.784.784.77.77 0 0 1-.812-.784v-18.368a.77.77 0 0 1 .812-.784.749.749 0 0 1 .784.784v7.672H48.83v-7.672a.749.749 0 0 1 .784-.784.77.77 0 0 1 .812.784v18.368a.771.771 0 0 1-.812.784zm19.15-18.76l-6.076 11.144v6.832a.798.798 0 0 1-1.596 0v-6.832l-6.048-11.144a1.238 1.238 0 0 1-.084-.42.808.808 0 0 1 .84-.756.761.761 0 0 1 .672.392l5.404 10.052 5.46-10.052a.761.761 0 0 1 .672-.392.835.835 0 0 1 .868.756 1.344 1.344 0 0 1-.112.42zm11.65 18.76h-6.216a.848.848 0 0 1-.812-.784v-18.368a.827.827 0 0 1 .812-.784h6.216c5.768 0 7.672 4.816 7.672 9.94 0 5.208-1.904 9.996-7.672 9.996zm0-18.368H74.98v16.772h5.432c4.788 0 6.076-4.144 6.076-8.372 0-4.984-1.736-8.4-6.076-8.4zm26.123 18.396a.691.691 0 0 1-.588-.336l-6.02-8.316h-5.012v7.84a.798.798 0 0 1-1.596 0v-18.368a.827.827 0 0 1 .812-.784h7.56a5.641 5.641 0 0 1 5.684 5.628 5.7 5.7 0 0 1-5.46 5.684l5.292 7.336a.767.767 0 0 1 .196.504.883.883 0 0 1-.868.812zm-4.816-18.396h-6.804v8.148h6.776a4.074 4.074 0 0 0 .028-8.148zm18.872 18.844c-6.02 0-8.148-4.984-8.148-10.444 0-5.488 2.128-10.472 8.148-10.472 5.992 0 8.148 4.984 8.148 10.472 0 5.46-2.156 10.444-8.148 10.444zm0-19.32c-4.648 0-6.552 3.64-6.552 8.876 0 5.208 1.904 8.848 6.552 8.848 4.62 0 6.552-3.64 6.552-8.848 0-5.236-1.932-8.876-6.552-8.876z"/><path d="M104.025 260.772a67.135 67.135 0 0 0-2.411-7.795c-2.25-6.107-5.062-11.973-7.795-17.84-2.41-4.982-4.902-9.804-7.554-14.705l-3.375-6.187c-.402-.723-.562-.723-1.045 0-.08.16-.16.24-.24.402-4.42 7.955-8.68 16.07-12.536 24.268a148.705 148.705 0 0 0-7.473 18.161 26.019 26.019 0 0 0-1.446 8.437 22.115 22.115 0 0 0 26.196 20.491c7.955-1.527 13.5-6.187 16.553-13.74a18.115 18.115 0 0 0 1.125-11.491zM93.498 251.3l-4.34 5.464-4.982 6.348-5.062 6.348-3.375 4.26c-1.366 1.687-2.732 3.375-4.018 5.143a7.673 7.673 0 0 0-.964 1.286h-.16a3.367 3.367 0 0 1 .321-1.205l1.768-6.027 3.455-11.57c.08-.16.08-.32-.24-.24l-6.107.563c-.804.08-1.687.16-2.49.16-.08 0-.24.08-.24 0s.08-.16.08-.24c1.045-1.205 2.01-2.49 3.054-3.696l3.134-3.777 5.705-6.83 6.75-8.116 4.5-5.464h.08c.08.16 0 .24-.08.402-1.446 4.018-2.812 8.196-4.18 12.295l-1.687 5.062c-.08.24 0 .32.24.32l7.232-.643c.482 0 .964-.08 1.366-.08.08 0 .16-.08.24 0 .16.16.08.16 0 .24z" class="M"/><path d="M2055.88 463.052q-.122.658.54.54h3.54q.6-.06.54.532v2.838q.06.6-.54.6h-3.54q-.6-.06-.54.54v8.4q.06.72-.54.66h-3q-.48.06-.48-.66v-8.4q.06-.6-.54-.54h-13.62q-.54 0-.54-.6v-3.6l.24-1.02 12.48-26.76a.94.94 0 0 1 .84-.48h4.62q.6-.06.54.6zm-4.5-22.08l-10.2 22.08q-.3.54.36.54h9.78q.6.12.54-.54v-21.96c-.12-.4-.28-.44-.48-.12zm24.033-6.78a10.278 10.278 0 0 1 7.705 3.36 11.544 11.544 0 0 1 2.304 3.57 10.956 10.956 0 0 1 .769 4.47 13.201 13.201 0 0 1-1.329 6 8.237 8.237 0 0 1-3.663 3.6c-.16.12-.14.32.06.6a10.97 10.97 0 0 1 5.699 10.26 12.156 12.156 0 0 1-3.359 8.7 10.96 10.96 0 0 1-8.221 3.42 11.175 11.175 0 0 1-4.56-.9 11.979 11.979 0 0 1-3.66-2.52 12.157 12.157 0 0 1-3.36-8.7 10.948 10.948 0 0 1 5.761-10.26q.36-.36.06-.6a8.405 8.405 0 0 1-3.63-3.6 13.538 13.538 0 0 1-1.41-6 10.75 10.75 0 0 1 .783-4.47 11.016 11.016 0 0 1 2.407-3.57 10.084 10.084 0 0 1 7.645-3.36zm.025 40.02a6.939 6.939 0 0 0 5.34-2.28 8.277 8.277 0 0 0 1.98-5.82 9.683 9.683 0 0 0-1.921-6.24 7.089 7.089 0 0 0-10.739 0 9.677 9.677 0 0 0-1.92 6.24 8.277 8.277 0 0 0 1.979 5.82 6.642 6.642 0 0 0 5.28 2.28h0zm-.12-20.76q6.48-.36 6.54-7.77a8.064 8.064 0 0 0-1.74-5.301 6.283 6.283 0 0 0-9.6 0 8.353 8.353 0 0 0-1.74 5.301q.18 7.4 6.54 7.77zm27.66-19.38a11.617 11.617 0 0 1 8.46 3.48 11.877 11.877 0 0 1 2.49 3.84 12.925 12.925 0 0 1 .87 4.86v19.8a12.311 12.311 0 0 1-3.36 8.82 10.615 10.615 0 0 1-3.689 2.58 13.085 13.085 0 0 1-9.54 0 11.229 11.229 0 0 1-3.75-2.58 12.304 12.304 0 0 1-3.3-8.82v-19.8a12.018 12.018 0 0 1 3.3-8.7 11.512 11.512 0 0 1 8.519-3.48zm-7.38 12.18v19.8a8.365 8.365 0 0 0 1.98 5.88 6.777 6.777 0 0 0 5.399 2.28 7.008 7.008 0 0 0 5.4-2.28 8.626 8.626 0 0 0 2.04-5.88v-19.8a8.183 8.183 0 0 0-2.04-5.76 7.013 7.013 0 0 0-5.4-2.28 6.782 6.782 0 0 0-5.399 2.28 8.192 8.192 0 0 0-1.98 5.76h0zM1736.904 649.13q-.122.658.54.54h3.54q.6-.06.54.53v2.838q.06.6-.54.6h-3.54q-.6-.06-.54.54v8.4c.04.48-.14.7-.54.66h-3c-.32.04-.48-.18-.48-.66v-8.4q.06-.6-.54-.54h-13.62q-.54 0-.54-.6v-3.6l.24-1.02 12.48-26.76a.941.941 0 0 1 .84-.479h4.62q.6-.06.54.6zm-4.5-22.08l-10.2 22.08q-.3.54.36.54h9.78q.6.12.54-.54v-21.96c-.12-.4-.28-.44-.48-.12zm24-6.9a11.618 11.618 0 0 1 8.46 3.48 11.87 11.87 0 0 1 2.49 3.84 12.923 12.923 0 0 1 .87 4.859v19.8a12.31 12.31 0 0 1-3.36 8.819 10.617 10.617 0 0 1-3.689 2.58 13.085 13.085 0 0 1-9.54 0 11.23 11.23 0 0 1-3.75-2.58 12.301 12.301 0 0 1-3.3-8.819v-19.8a12.016 12.016 0 0 1 3.3-8.699 11.509 11.509 0 0 1 8.519-3.48zm-7.38 12.18v19.8a8.367 8.367 0 0 0 1.98 5.88 6.778 6.778 0 0 0 5.399 2.279 7.009 7.009 0 0 0 5.4-2.279 8.628 8.628 0 0 0 2.04-5.88v-19.8a8.183 8.183 0 0 0-2.04-5.76 7.013 7.013 0 0 0-5.4-2.28 6.782 6.782 0 0 0-5.399 2.28 8.192 8.192 0 0 0-1.98 5.76h0zm27.06 26.1a.477.477 0 0 0 .54.54h17.1q.66-.18.54.48v3.18c.08.44-.1.64-.54.6h-21.48q-.66.12-.54-.6v-3.18a18.245 18.245 0 0 1 1.23-6.96 15.337 15.337 0 0 1 3.329-5.1q2.16-2.04 4.3-3.9 2.13-1.86 4.23-3.48a12.757 12.757 0 0 0 3.3-3.69 10.176 10.176 0 0 0 1.32-4.71 7.425 7.425 0 0 0-1.74-5.16 5.831 5.831 0 0 0-4.74-2.1 6.368 6.368 0 0 0-5.16 2.22 8.222 8.222 0 0 0-1.92 5.28q0 .84-.66.66h-3.18q-.66.18-.54-.54a12.939 12.939 0 0 1 3.36-8.221 10.538 10.538 0 0 1 8.16-3.6 10.381 10.381 0 0 1 7.8 3.24 11.633 11.633 0 0 1 2.34 3.54 10.775 10.775 0 0 1 .78 4.5 13.448 13.448 0 0 1-1.26 5.7 12.511 12.511 0 0 1-3.301 4.199l-8.46 7.08q-4.26 3.48-4.8 10.02h0z"/><g class="M"><path d="M442.62 915.127v10.326q0 .72.576.287 2.303-3.023 8.568-3.6a12.646 12.646 0 0 1 9.864 4.382 16.228 16.228 0 0 1 3.744 10.919 16.638 16.638 0 0 1-3.888 10.99 13.283 13.283 0 0 1-4.392 3.557 12.751 12.751 0 0 1-5.76 1.257 13.264 13.264 0 0 1-5.796-1.225 12.752 12.752 0 0 1-4.428-3.527 16.805 16.805 0 0 1-2.844-5.076 18.741 18.741 0 0 1-.972-6.229v-22.104a16.593 16.593 0 0 1 .972-5.796 14.582 14.582 0 0 1 2.844-4.717 13.238 13.238 0 0 1 10.368-4.464 14.141 14.141 0 0 1 9.072 3.097 12.796 12.796 0 0 1 4.464 8.279q.07.65-.72.648h-4.104q-.72 0-.72-.792a9.264 9.264 0 0 0-2.448-4.393 7.979 7.979 0 0 0-5.616-1.8 7.771 7.771 0 0 0-6.48 2.82 10.763 10.763 0 0 0-2.304 7.158zm0 22.422a11.993 11.993 0 0 0 2.232 7.56 8.212 8.212 0 0 0 12.96 0 12.834 12.834 0 0 0 2.232-7.704 14.545 14.545 0 0 0-.576-4.212 11.74 11.74 0 0 0-1.584-3.348 7.317 7.317 0 0 0-6.408-2.952q-4.465.145-6.66 2.88-2.197 2.738-2.196 7.776h0z"/><use xlink:href="#U"/></g><path d="M303.736 834.355q-.12.658.54.54h3.54q.6-.06.54.53v2.838q.06.6-.54.6h-3.54q-.6-.06-.54.54v8.4c.04.48-.14.7-.54.66h-3c-.32.04-.48-.18-.48-.66v-8.4q.06-.6-.54-.54h-13.62q-.54 0-.54-.6v-3.6l.24-1.02 12.48-26.76a.941.941 0 0 1 .84-.479h4.62q.6-.06.54.6zm-4.5-22.08l-10.2 22.08q-.3.54.36.54h9.78q.6.12.54-.54v-21.96c-.12-.4-.28-.44-.48-.12zm29.46 24.84v-8.52q0-.6-.54-.18-1.927 2.46-7.223 2.88a10.335 10.335 0 0 1-8.246-3.66 13.469 13.469 0 0 1-3.07-9.06 13.863 13.863 0 0 1 3.12-9.12 10.708 10.708 0 0 1 8.52-3.96 10.429 10.429 0 0 1 8.52 3.9 14.216 14.216 0 0 1 3.12 9.359v18.36a12.833 12.833 0 0 1-3.12 8.7q-3 3.54-8.64 3.66a11.478 11.478 0 0 1-7.56-2.579 10.681 10.681 0 0 1-3.66-6.841q0-.48.54-.48h3.36q.602 0 .663.66a7.02 7.02 0 0 0 1.988 3.66 6.785 6.785 0 0 0 4.76 1.5 6.879 6.879 0 0 0 5.542-2.341 9.183 9.183 0 0 0 1.927-5.939zm0-18.7a10.019 10.019 0 0 0-1.867-6.338 6.612 6.612 0 0 0-5.542-2.572 6.288 6.288 0 0 0-5.423 2.572 10.467 10.467 0 0 0-1.927 6.458 10.021 10.021 0 0 0 1.867 6.339 6.436 6.436 0 0 0 2.26 1.884 5.834 5.834 0 0 0 3.102.567 7.119 7.119 0 0 0 5.633-2.392 10.386 10.386 0 0 0 1.897-6.519h0zm123.03-570.3a10.279 10.279 0 0 1 7.705 3.36 11.535 11.535 0 0 1 2.304 3.57 10.939 10.939 0 0 1 .769 4.47 13.207 13.207 0 0 1-1.329 6 8.237 8.237 0 0 1-3.663 3.6c-.16.12-.14.32.06.6a10.972 10.972 0 0 1 5.7 10.26 12.159 12.159 0 0 1-3.36 8.7 10.958 10.958 0 0 1-8.22 3.42 11.175 11.175 0 0 1-4.56-.9 11.979 11.979 0 0 1-3.66-2.52 12.157 12.157 0 0 1-3.36-8.7 10.948 10.948 0 0 1 5.76-10.26q.36-.36.06-.6a8.405 8.405 0 0 1-3.63-3.6 13.538 13.538 0 0 1-1.41-6 10.75 10.75 0 0 1 .783-4.47 11.008 11.008 0 0 1 2.407-3.57 10.085 10.085 0 0 1 7.645-3.36zm.025 40.02a6.939 6.939 0 0 0 5.34-2.28 8.279 8.279 0 0 0 1.98-5.82 9.686 9.686 0 0 0-1.92-6.24 7.09 7.09 0 0 0-10.74 0 9.683 9.683 0 0 0-1.92 6.24 8.279 8.279 0 0 0 1.98 5.82 6.641 6.641 0 0 0 5.28 2.28h0zm-.12-20.76q6.48-.36 6.54-7.77a8.064 8.064 0 0 0-1.74-5.301 6.283 6.283 0 0 0-9.6 0 8.356 8.356 0 0 0-1.74 5.301q.18 7.4 6.54 7.77zm19.32-6.874v8.604c0 .4.16.48.48.24q1.92-2.52 7.14-3a10.536 10.536 0 0 1 8.22 3.652 13.52 13.52 0 0 1 3.12 9.099 13.867 13.867 0 0 1-3.24 9.159 11.068 11.068 0 0 1-3.66 2.963 10.629 10.629 0 0 1-4.8 1.047 11.049 11.049 0 0 1-4.83-1.02 10.625 10.625 0 0 1-3.69-2.94 13.991 13.991 0 0 1-2.37-4.23 15.61 15.61 0 0 1-.81-5.19v-18.42a13.833 13.833 0 0 1 .81-4.83 12.144 12.144 0 0 1 2.37-3.93 11.03 11.03 0 0 1 8.64-3.72 11.784 11.784 0 0 1 7.56 2.58 10.664 10.664 0 0 1 3.72 6.9q.06.54-.6.54h-3.42c-.4 0-.6-.22-.6-.66a7.715 7.715 0 0 0-2.04-3.66 6.649 6.649 0 0 0-4.68-1.5 6.476 6.476 0 0 0-5.4 2.35 8.97 8.97 0 0 0-1.92 5.965zm0 18.685a9.995 9.995 0 0 0 1.86 6.3 6.843 6.843 0 0 0 10.8 0 10.695 10.695 0 0 0 1.86-6.42 12.115 12.115 0 0 0-.48-3.51 9.771 9.771 0 0 0-1.32-2.79 6.096 6.096 0 0 0-5.34-2.46 7 7 0 0 0-5.55 2.4 10.119 10.119 0 0 0-1.83 6.48h0z"/><g class="M"><use xlink:href="#V"/><path d="M539.203 923a.899.899 0 0 1-.928-.896V921.1a7.107 7.107 0 0 1-5.472 2.464 7.376 7.376 0 0 1-7.295-7.296v-9.343a.912.912 0 0 1 1.824 0v9.343a5.472 5.472 0 1 0 10.943 0v-9.343a.912.912 0 0 1 1.824 0v15.2a.892.892 0 0 1-.896.896zm25.63 0a.874.874 0 0 1-.896-.896V911.36a4.08 4.08 0 0 0-8.159-.031v10.783a.874.874 0 0 1-.896.896.899.899 0 0 1-.928-.896V911.36a4.064 4.064 0 0 0-8.127-.031v10.783a.912.912 0 0 1-1.824 0v-15.2a.912.912 0 0 1 1.824 0v.2a5.816 5.816 0 0 1 4.063-1.632 5.935 5.935 0 0 1 4.992 2.721 5.906 5.906 0 0 1 10.879 3.136V922.1a.9.9 0 0 1-.928.896z"/><use xlink:href="#W"/><use xlink:href="#X"/><use xlink:href="#Y"/><path d="M619.075 923.01h-.992c-2.528 0-3.776-1.248-3.776-3.744v-11.423h-1.632a.912.912 0 0 1 0-1.824h1.632v-4.896a.9.9 0 0 1 .928-.896.874.874 0 0 1 .896.896v4.896h2.944a.912.912 0 0 1 0 1.824h-2.944v11.423c0 1.568.448 1.92 1.952 1.92h.992a.912.912 0 0 1 0 1.824z"/><use xlink:href="#Z"/><use xlink:href="#a"/><use xlink:href="#X" x="75.005"/><path d="M688.354 923.01h-.992c-2.528 0-3.776-1.248-3.776-3.744v-11.423h-1.632a.912.912 0 0 1 0-1.824h1.632v-4.896a.9.9 0 0 1 .928-.896.874.874 0 0 1 .896.896v4.896h2.944a.912.912 0 0 1 0 1.824H685.4v11.423c0 1.568.448 1.92 1.952 1.92h.992a.912.912 0 0 1 0 1.824z"/><use xlink:href="#Y" x="84.03"/><use xlink:href="#b"/><use xlink:href="#a" x="60.634"/><use xlink:href="#c"/><path d="M529.25 953.214a3.354 3.354 0 0 1-3.168-3.393v-18.687a.912.912 0 0 1 1.824 0v18.687c0 2.048 2.27.864 2.27 2.305a1.032 1.032 0 0 1-.928 1.088z"/><use xlink:href="#c" x="24.862"/><use xlink:href="#d"/><use xlink:href="#e"/><use xlink:href="#b" x="-120.799" y="30.014"/><use xlink:href="#f"/><use xlink:href="#d" x="41.152"/><use xlink:href="#f" x="22.208"/><use xlink:href="#e" x="46.88"/><use xlink:href="#g"/><path d="M660.29 953.02a.899.899 0 0 1-.928-.895v-1.024a7.107 7.107 0 0 1-5.472 2.464 7.376 7.376 0 0 1-7.295-7.296v-9.343a.912.912 0 0 1 1.824 0v9.343a5.472 5.472 0 0 0 10.943 0v-9.343a.912.912 0 0 1 1.824 0v15.2a.892.892 0 0 1-.896.895z"/><use xlink:href="#h"/><path d="M694.08 945.438H680.8c.288 3.647 2.656 6.303 6.144 6.303a5.785 5.785 0 0 0 4.704-2.207.838.838 0 0 1 .768-.448.978.978 0 0 1 .992.863c0 .288 0 .353-.608 1.057a7.556 7.556 0 0 1-5.856 2.56c-5.15 0-8.03-4.224-8.03-9.056 0-4.8 2.88-9.023 8.03-9.023s8.032 4.256 8.032 9.023a.969.969 0 0 1-.896.929zm-7.136-8.128c-3.84 0-5.855 2.944-6.144 6.304h12.32c-.288-3.647-2.656-6.304-6.176-6.304z"/><path d="M443.13 970.635h-4.687v5.4a.55.55 0 0 1-1.099 0v-12.652a.569.569 0 0 1 .559-.54h5.208a3.896 3.896 0 1 1 .02 7.792zm0-6.712h-4.687v5.612h4.667a2.806 2.806 0 0 0 .02-5.612z"/><use xlink:href="#i"/><use xlink:href="#j"/><path d="M488.912 963.653l-4.185 7.676v4.706a.55.55 0 0 1-1.1 0v-4.706l-4.166-7.676a.859.859 0 0 1-.058-.29.556.556 0 0 1 .578-.521.524.524 0 0 1 .463.27l3.723 6.925 3.76-6.925a.525.525 0 0 1 .463-.27.575.575 0 0 1 .598.521.932.932 0 0 1-.077.29z"/><use xlink:href="#i" x="41.25"/><path d="M513.046 976.575a.561.561 0 0 1-.501-.328l-1.234-2.97h-6.943l-1.234 2.97a.543.543 0 0 1-1.041-.192.571.571 0 0 1 .039-.251l5.208-12.633a.607.607 0 0 1 .559-.367.497.497 0 0 1 .463.367l5.208 12.633a.577.577 0 0 1 .038.251.539.539 0 0 1-.559.521zm-5.208-11.746l-3.028 7.35h6.076z"/><use xlink:href="#j" x="53.267"/><use xlink:href="#U" x="961.72"/><path d="M1476.267 900.108a13.942 13.942 0 0 1 10.152 4.177 14.253 14.253 0 0 1 2.988 4.607 15.506 15.506 0 0 1 1.044 5.832v23.76a14.774 14.774 0 0 1-4.032 10.584 12.754 12.754 0 0 1-4.428 3.097 15.707 15.707 0 0 1-11.448 0 13.477 13.477 0 0 1-4.5-3.097 14.76 14.76 0 0 1-3.96-10.584v-23.76a14.416 14.416 0 0 1 3.96-10.439 13.814 13.814 0 0 1 10.224-4.177zm-8.856 14.616v23.76a10.04 10.04 0 0 0 2.376 7.057 8.136 8.136 0 0 0 6.48 2.735 8.414 8.414 0 0 0 6.48-2.735 10.356 10.356 0 0 0 2.448-7.057v-23.76a9.82 9.82 0 0 0-2.448-6.912 8.418 8.418 0 0 0-6.48-2.735 8.139 8.139 0 0 0-6.48 2.735 9.83 9.83 0 0 0-2.376 6.912h0zm30.815 25.56q.577 7.705 8.46 7.92a7.802 7.802 0 0 0 6.002-2.376 9.353 9.353 0 0 0 2.314-6.696v-6.408a9.426 9.426 0 0 0-2.016-6.192 7.277 7.277 0 0 0-2.556-1.871 8.243 8.243 0 0 0-3.348-.648 10.229 10.229 0 0 0-6.984 2.376.717.717 0 0 1-.936.36h-3.456q-.793.215-.576-.576v-24.12q-.216-.8.576-.648h21.96q.718-.07.648.648v3.528q.07.792-.648.72h-17.136q-.793-.07-.648.647v13.896q0 .647.648.288a14.568 14.568 0 0 1 6.984-1.584 12.393 12.393 0 0 1 9.144 3.6q3.527 3.53 3.528 9.576v6.408a14.679 14.679 0 0 1-1.044 5.724 13.498 13.498 0 0 1-2.916 4.356 14.035 14.035 0 0 1-4.356 2.88 13.79 13.79 0 0 1-5.364 1.008 13.622 13.622 0 0 1-5.328-.972 12.771 12.771 0 0 1-4.104-2.772 13.781 13.781 0 0 1-3.888-9.288c-.097-.48.117-.695.64-.647h3.62q.78-.144.78.864h0z"/><use xlink:href="#V" x="1025.712" y="-0.065"/><path d="M1564.915 922.945a.899.899 0 0 1-.928-.896v-1.024a7.107 7.107 0 0 1-5.472 2.464 7.376 7.376 0 0 1-7.295-7.296v-9.343a.912.912 0 0 1 1.824 0v9.343a5.472 5.472 0 0 0 10.943 0v-9.343a.912.912 0 0 1 1.824 0v15.2a.892.892 0 0 1-.896.896zm25.63 0a.874.874 0 0 1-.896-.896v-10.752a4.08 4.08 0 0 0-8.159-.031v10.783a.874.874 0 0 1-.896.896.899.899 0 0 1-.928-.896v-10.752a4.064 4.064 0 0 0-8.127-.031v10.783a.912.912 0 0 1-1.824 0v-15.2a.912.912 0 0 1 1.824 0v.2a5.816 5.816 0 0 1 4.063-1.632 5.91 5.91 0 0 0 9.951 0 5.853 5.853 0 0 1 5.92 5.856v10.783a.9.9 0 0 1-.928.896z"/><use xlink:href="#W" x="1025.711" y="-0.065"/><use xlink:href="#X" x="1025.72" y="-0.065"/><use xlink:href="#Y" x="1025.71" y="-0.063"/><use xlink:href="#k"/><use xlink:href="#g" x="1024.945" y="-30.076"/><path d="M1664.563 906.786a1.052 1.052 0 0 1-.48.16 1.028 1.028 0 0 1-.896-1.088c0-.704 1.824-.864 1.824-2.912v-2.432a.91.91 0 0 1 .896-.96.935.935 0 0 1 .928.96v2.432a4.56 4.56 0 0 1-2.272 3.84z"/><use xlink:href="#h" x="1005.649" y="-30.076"/><use xlink:href="#a" x="1046.704" y="-0.064"/><use xlink:href="#X" x="1121.708" y="-0.065"/><use xlink:href="#k" x="89.63"/><path d="M1738.193 902.883a1.824 1.824 0 1 1 1.824-1.824 1.804 1.804 0 0 1-1.824 1.824zm0 20.063a.879.879 0 0 1-.928-.896v-15.2a.882.882 0 0 1 .928-.896.872.872 0 0 1 .896.896v15.2a.856.856 0 0 1-.896.896zm12.415-15.424a5.469 5.469 0 0 0-5.471 5.472v9.056a.912.912 0 0 1-1.824 0v-15.2a.912.912 0 0 1 1.824 0v1.312a7.306 7.306 0 0 1 5.471-2.464.912.912 0 1 1 0 1.824zm15.777 7.84h-13.28c.288 3.647 2.656 6.303 6.144 6.303a5.786 5.786 0 0 0 4.704-2.207.838.838 0 0 1 .768-.448.979.979 0 0 1 .992.864c0 .287 0 .352-.608 1.056a7.554 7.554 0 0 1-5.855 2.56c-5.15 0-8.03-4.224-8.03-9.056 0-4.8 2.88-9.023 8.03-9.023s8.03 4.256 8.03 9.023a.969.969 0 0 1-.896.929zm-7.136-8.128c-3.84 0-5.855 2.944-6.144 6.304h12.32c-.288-3.647-2.656-6.304-6.176-6.304z"/><use xlink:href="#c" x="1025.71" y="-0.063"/><use xlink:href="#X" x="962.52" y="29.948"/><use xlink:href="#c" x="1062.414" y="-0.063"/><use xlink:href="#b" x="891.249" y="29.949"/><path d="M1604.753 960.254c-2.72 0-6.56-1.024-6.56-2.177a1.015 1.015 0 0 1 .928-1.023 11.575 11.575 0 0 1 1.696.768 11.987 11.987 0 0 0 3.936.608c4.096 0 6.208-2.016 6.208-5.95v-2.24a7.639 7.639 0 0 1-6.208 2.72c-5.055 0-8.03-3.584-8.03-8.512 0-4.8 2.88-9.023 8.03-9.023a7.317 7.317 0 0 1 6.208 3.008v-1.535a.912.912 0 0 1 1.824 0v15.583c0 5.087-3.04 7.775-8.032 7.775zm0-23.007c-3.775 0-6.208 3.04-6.208 7.2 0 4.128 2.272 6.688 6.208 6.688s6.208-2.56 6.208-6.687c0-4.16-2.4-7.2-6.208-7.2z"/><use xlink:href="#Z" x="994.446" y="29.949"/><path d="M1653.65 952.958a.899.899 0 0 1-.928-.896v-1.024a7.107 7.107 0 0 1-5.472 2.464 7.376 7.376 0 0 1-7.295-7.296v-9.343a.912.912 0 0 1 1.824 0v9.343a5.472 5.472 0 1 0 10.943 0v-9.343a.912.912 0 0 1 1.824 0v15.2a.892.892 0 0 1-.896.895zm10.143.608c-1.92 0-5.15-.673-6.27-2.528a.772.772 0 0 1-.128-.48.873.873 0 0 1 1.632-.513c1.152 1.408 3.2 1.696 4.768 1.696 3.104 0 4.672-1.024 4.672-3.104 0-4.832-10.496-2.272-10.496-8.672 0-3.23 3.232-4.48 6.144-4.48 1.664 0 4.224.576 5.504 1.855a.897.897 0 0 1 .288.608 1.038 1.038 0 0 1-.992.96.85.85 0 0 1-.608-.256 6.397 6.397 0 0 0-4.192-1.344c-2.815 0-4.32 1.088-4.32 2.655 0 4.48 10.495 2.112 10.495 8.672 0 3.647-3.2 4.928-6.496 4.928z"/><use xlink:href="#c" x="1165.42" y="-0.063"/><path d="M1437.91 970.635h-4.687v5.4a.55.55 0 0 1-1.1 0v-12.652a.57.57 0 0 1 .56-.54h5.208a3.896 3.896 0 1 1 .019 7.792zm0-6.712h-4.687v5.612h4.667a2.806 2.806 0 1 0 .019-5.612z"/><use xlink:href="#l"/><use xlink:href="#m"/><path d="M1483.694 963.653l-4.186 7.676v4.706a.55.55 0 0 1-1.099 0v-4.706l-4.166-7.676a.861.861 0 0 1-.058-.29.557.557 0 0 1 .579-.521.525.525 0 0 1 .463.27l3.722 6.925 3.76-6.925a.524.524 0 0 1 .463-.27.575.575 0 0 1 .598.521.932.932 0 0 1-.077.29z"/><use xlink:href="#l" x="41.25"/><path d="M1507.83 976.575a.561.561 0 0 1-.501-.328l-1.234-2.97h-6.943l-1.234 2.97a.543.543 0 0 1-1.042-.192.571.571 0 0 1 .039-.251l5.208-12.633a.608.608 0 0 1 .56-.367.499.499 0 0 1 .463.367l5.207 12.633a.564.564 0 0 1 .039.251.54.54 0 0 1-.56.521zm-5.208-11.746l-3.028 7.35h6.075z"/><use xlink:href="#m" x="53.268"/></g></g><g opacity=".8" class="L"><path d="M547.894 279.62a1.468 1.468 0 0 1-1.506-1.506v-11.295a3.783 3.783 0 1 0-7.566-.036v11.295a1.466 1.466 0 0 1-1.541 1.542 1.449 1.449 0 0 1-1.507-1.506v-11.295a3.801 3.801 0 0 0-7.602-.036v11.295a1.495 1.495 0 0 1-1.578 1.542 1.468 1.468 0 0 1-1.506-1.506v-16.03a1.573 1.573 0 0 1 2.869-.86 6.905 6.905 0 0 1 3.979-1.255 6.791 6.791 0 0 1 5.344 2.546 6.717 6.717 0 0 1 5.307-2.546 6.849 6.849 0 0 1 6.885 6.813v11.295a1.495 1.495 0 0 1-1.578 1.542z"/><use xlink:href="#n"/><path d="M564.573 279.7a3.659 3.659 0 0 1-3.586-3.658V255.63a1.542 1.542 0 0 1 3.084-.036v20.44a.566.566 0 0 0 .502.61 1.524 1.524 0 1 1 0 3.048zm7.46 0a3.659 3.659 0 0 1-3.586-3.658V255.63a1.542 1.542 0 0 1 3.084-.036v20.44a.567.567 0 0 0 .502.61 1.524 1.524 0 1 1 0 3.048z"/><use xlink:href="#n" x="22.592"/><path d="M591.97 280.228c-5.773 0-9-4.733-9-10.147 0-5.38 3.227-10.112 9-10.112s9 4.733 9 10.112c0 5.415-3.227 10.147-9 10.147zm0-17.212c-3.586 0-5.917 2.797-5.917 7.064 0 4.303 2.33 7.1 5.917 7.1 3.622 0 5.917-2.797 5.917-7.1 0-4.267-2.295-7.064-5.917-7.064zm27.364 16.604a1.449 1.449 0 0 1-1.507-1.506v-9.97a5.11 5.11 0 1 0-10.22 0v9.933a1.524 1.524 0 0 1-1.577 1.578 1.477 1.477 0 0 1-1.506-1.542v-16.03a1.426 1.426 0 0 1 1.506-1.506 1.5 1.5 0 0 1 1.542 1.183 8.189 8.189 0 0 1 13.303 6.383v9.933a1.466 1.466 0 0 1-1.541 1.542zm36.472 0a1.468 1.468 0 0 1-1.506-1.506V266.82a3.783 3.783 0 1 0-7.566-.036v11.295a1.467 1.467 0 0 1-1.542 1.542 1.448 1.448 0 0 1-1.506-1.506V266.82a3.802 3.802 0 0 0-7.603-.036v11.295a1.495 1.495 0 0 1-1.577 1.542 1.468 1.468 0 0 1-1.506-1.506v-16.03a1.573 1.573 0 0 1 2.868-.86 6.906 6.906 0 0 1 3.98-1.255 6.789 6.789 0 0 1 5.343 2.546 6.717 6.717 0 0 1 5.307-2.546 6.848 6.848 0 0 1 6.885 6.813v11.295a1.495 1.495 0 0 1-1.577 1.542zm21.267-7.962h-13.268c.502 3.37 2.653 5.522 5.8 5.522a5.381 5.381 0 0 0 4.267-1.865 1.486 1.486 0 0 1 1.111-.573 1.674 1.674 0 0 1 1.614 1.578c0 .43-.107.753-.86 1.506a8.736 8.736 0 0 1-6.131 2.402c-5.773 0-9-4.77-9-10.147 0-5.343 3.228-10.112 9-10.112 5.845 0 8.964 4.77 8.964 10.112a1.529 1.529 0 0 1-1.506 1.578zm-7.458-8.642c-3.37 0-5.344 2.475-5.8 5.558h11.618c-.502-3.442-2.653-5.558-5.8-5.558zm20.3 24.778c-2.187 0-7.603-.8-7.603-2.94a1.67 1.67 0 0 1 1.542-1.614c.825 0 .107.107 2.008.825a11.208 11.208 0 0 0 4.053.682c3.98 0 5.916-1.9 5.916-5.666v-1.613a8.388 8.388 0 0 1-5.916 2.151c-5.666 0-9-4.016-9-9.538 0-5.38 3.228-10.112 9-10.112a7.724 7.724 0 0 1 5.916 2.295v-.143a1.526 1.526 0 0 1 1.542-1.542 1.505 1.505 0 0 1 1.542 1.542v16.96c0 5.702-3.406 8.714-9 8.714zm0-24.778c-3.586 0-5.917 2.797-5.917 7.064 0 4.087 2.15 6.5 5.917 6.5s5.916-2.403 5.916-6.5c0-4.267-2.295-7.064-5.916-7.064zm31.056 16.604a3.488 3.488 0 0 1-3.191-2.044 8.218 8.218 0 0 1-6.312 2.653c-5.845 0-9-4.805-9-10.147s3.227-10.112 9-10.112a7.925 7.925 0 0 1 5.917 2.367v-.144a1.479 1.479 0 0 1 1.506-1.613 1.441 1.441 0 0 1 1.577 1.506v13.84a.581.581 0 0 0 .503.646 1.524 1.524 0 1 1 0 3.048zm-9.503-16.603c-3.586 0-5.917 2.797-5.917 7.064 0 4.303 2.33 7.1 5.917 7.1 3.622 0 5.917-2.797 5.917-7.1 0-4.267-2.295-7.064-5.917-7.064zm37.513-.395l-5.56 15.742a1.63 1.63 0 0 1-1.577 1.255c-.753 0-1.184-.323-1.507-1.255l-4.195-11.834-4.23 11.834a1.553 1.553 0 0 1-3.049 0l-5.52-15.742a1.569 1.569 0 0 1-.072-.574 1.545 1.545 0 0 1 1.578-1.47 1.422 1.422 0 0 1 1.398 1.004l4.16 11.977 4.23-11.726c.287-.825.645-1.255 1.506-1.255.8 0 1.22.395 1.507 1.255l4.195 11.726 4.195-11.977a1.409 1.409 0 0 1 1.362-1.004 1.593 1.593 0 0 1 1.649 1.506 1.496 1.496 0 0 1-.071.538zm20.226 16.998a3.489 3.489 0 0 1-3.191-2.044 8.216 8.216 0 0 1-6.311 2.653c-5.846 0-9-4.805-9-10.147s3.228-10.112 9-10.112a7.923 7.923 0 0 1 5.916 2.367v-.144a1.479 1.479 0 0 1 1.506-1.613 1.442 1.442 0 0 1 1.578 1.506v13.84a.58.58 0 0 0 .502.646 1.524 1.524 0 1 1 0 3.048zm-9.502-16.603c-3.586 0-5.917 2.797-5.917 7.064 0 4.303 2.33 7.1 5.917 7.1 3.62 0 5.916-2.797 5.916-7.1 0-4.267-2.295-7.064-5.916-7.064zm19.726 16.603h-.6c-3.406 0-4.697-1.793-4.697-4.733v-11.26h-1.076a1.524 1.524 0 0 1-.036-3.048h1.076v-4.984a1.456 1.456 0 0 1 1.542-1.506 1.428 1.428 0 0 1 1.506 1.506v4.984h2.295a1.486 1.486 0 0 1 1.506 1.506 1.458 1.458 0 0 1-1.506 1.542h-2.295v11.582c0 1.004.358 1.363 1.362 1.363h.896a1.479 1.479 0 0 1 1.542 1.506 1.458 1.458 0 0 1-1.506 1.542zm10.076 0h-.6c-3.406 0-4.697-1.793-4.697-4.733v-11.26h-1.076a1.524 1.524 0 1 1-.036-3.048h1.076v-4.984a1.456 1.456 0 0 1 1.542-1.506 1.428 1.428 0 0 1 1.506 1.506v4.984h2.295a1.486 1.486 0 0 1 1.506 1.506 1.458 1.458 0 0 1-1.506 1.542h-2.295v11.582c0 1.004.358 1.363 1.362 1.363h.896a1.479 1.479 0 0 1 1.542 1.506 1.458 1.458 0 0 1-1.506 1.542z"/><use xlink:href="#o"/><path d="M830.175 280.228c-5.773 0-9-4.733-9-10.147 0-5.38 3.228-10.112 9-10.112s9 4.733 9 10.112c0 5.415-3.228 10.147-9 10.147zm0-17.212c-3.586 0-5.917 2.797-5.917 7.064 0 4.303 2.33 7.1 5.917 7.1 3.62 0 5.916-2.797 5.916-7.1 0-4.267-2.295-7.064-5.916-7.064zm27.075 16.638a1.462 1.462 0 0 1-1.506-1.183 8.346 8.346 0 0 1-5.163 1.793 8.241 8.241 0 0 1-8.176-8.176v-9.933a1.542 1.542 0 0 1 3.084-.036v9.968a5.109 5.109 0 1 0 10.219 0v-9.933a1.43 1.43 0 0 1 1.507-1.578 1.466 1.466 0 0 1 1.541 1.542v16.028a1.428 1.428 0 0 1-1.506 1.506zm14.05-16.638a5.166 5.166 0 0 0-5.092 5.128v9.933a1.495 1.495 0 0 1-1.578 1.542 1.468 1.468 0 0 1-1.506-1.506V262.12a1.519 1.519 0 0 1 1.506-1.542 1.472 1.472 0 0 1 1.542 1.219 8.292 8.292 0 0 1 5.128-1.829 1.525 1.525 0 1 1 0 3.048zm8.94 17.212c-1.973 0-5.27-.6-6.957-2.7a1.587 1.587 0 0 1 1.291-2.546 1.471 1.471 0 0 1 1.111.609 6.129 6.129 0 0 0 4.555 1.578c3.227 0 4.267-1.1 4.267-2.725 0-4.6-10.937-1.757-10.937-9.144 0-3.908 3.657-5.343 7.064-5.343 1.936 0 6.5.968 6.5 2.977a1.61 1.61 0 0 1-1.506 1.613 2.159 2.159 0 0 1-1.184-.466 5.816 5.816 0 0 0-3.801-1.076c-2.977 0-4.017 1.112-4.017 2.295 0 4.267 10.973 1.506 10.973 9.144 0 4.23-3.55 5.773-7.35 5.773zm24.28 4.124c-.574 0-.86-.144-2-1.398-3.514-3.73-4.697-9.216-4.733-14.2 0-4.913 1.578-11.582 5.737-14.88a1.627 1.627 0 0 1 .969-.359 1.585 1.585 0 0 1 1.577 1.542c0 .682-.215.717-1.22 1.72-2.868 2.905-3.98 7.638-3.98 11.977 0 4.375 1.327 10.076 4.697 12.9a1.555 1.555 0 0 1 .538 1.112 1.615 1.615 0 0 1-1.577 1.578zm26.572-4.698a1.477 1.477 0 0 1-1.506-1.542v-16.495l-6.957 12.98a1.569 1.569 0 0 1-1.435.968 1.707 1.707 0 0 1-1.434-.968l-6.92-12.9V278.1a1.494 1.494 0 0 1-1.578 1.542 1.477 1.477 0 0 1-1.506-1.542v-22.4a1.51 1.51 0 0 1 1.649-1.613 1.375 1.375 0 0 1 1.291.896l8.498 15.813 8.535-15.813a1.376 1.376 0 0 1 1.398-.896 1.485 1.485 0 0 1 1.541 1.613v22.412a1.494 1.494 0 0 1-1.577 1.542zm31.774-23.666l-5.916 22.375a1.361 1.361 0 0 1-1.471 1.255 1.52 1.52 0 0 1-1.542-1.255l-4.84-17.176-4.805 17.176a1.484 1.484 0 0 1-1.506 1.255 1.438 1.438 0 0 1-1.507-1.255l-5.916-22.375a2.103 2.103 0 0 1-.072-.502 1.497 1.497 0 0 1 1.614-1.398 1.465 1.465 0 0 1 1.435 1.111l4.518 17.104 4.733-16.96a1.553 1.553 0 0 1 3.048 0l4.733 16.96 4.52-17.104a1.594 1.594 0 0 1 1.47-1.183 1.523 1.523 0 0 1 1.578 1.47 2.102 2.102 0 0 1-.072.502z"/><use xlink:href="#o" x="163.968"/><path d="M988.333 283.025c-1.04 1.147-1.326 1.327-1.9 1.327a1.734 1.734 0 0 1-1.613-1.614 1.428 1.428 0 0 1 .537-1.076c3.37-2.833 4.698-8.534 4.698-12.9 0-4.338-1.112-9.072-4.017-11.977-.896-.896-1.184-1.04-1.184-1.72a1.586 1.586 0 0 1 1.578-1.542 1.548 1.548 0 0 1 .968.359c4.124 3.263 5.737 10.004 5.737 14.88 0 5.02-1.3 10.4-4.805 14.272zm27.567-14.45h-8.713v10.04a1.022 1.022 0 0 1-2.044 0V255.09a1.058 1.058 0 0 1 1.04-1.004h9.682a7.243 7.243 0 1 1 .035 14.486zm0-12.48h-8.713v10.435h8.678a5.218 5.218 0 1 0 .035-10.435zm21.242 24.134c-7.7 0-10.435-6.382-10.435-13.375 0-7.028 2.726-13.4 10.435-13.4 7.674 0 10.435 6.383 10.435 13.4 0 6.993-2.76 13.375-10.435 13.375zm0-24.742c-5.952 0-8.4 4.66-8.4 11.367 0 6.67 2.438 11.332 8.4 11.332 5.917 0 8.4-4.662 8.4-11.332 0-6.706-2.474-11.367-8.4-11.367zm28.108.6h-6.956v22.52a.988.988 0 0 1-1.04 1.004.976.976 0 0 1-1.004-1.004v-22.52h-6.957a1.005 1.005 0 1 1 0-2.008h15.957a1.004 1.004 0 0 1 0 2.008zm20.12 23.524h-15.92a1.085 1.085 0 0 1-1.04-1.004v-23.523a1.058 1.058 0 0 1 1.04-1.004h15.92a1.005 1.005 0 1 1 0 2.008h-14.917v8.82h10.937a.988.988 0 0 1 1.04 1.004 1.008 1.008 0 0 1-1.004 1.04h-10.973v10.614h14.917a1.016 1.016 0 0 1 1.04 1.04.986.986 0 0 1-1.04 1.004zm21.518.034a1.108 1.108 0 0 1-.86-.574l-14.02-20.7v20.224a1.022 1.022 0 0 1-2.044 0V255.08a1.02 1.02 0 0 1 1.937-.502l14.02 20.7V255.09a1.022 1.022 0 0 1 2.044 0v23.523a1.071 1.071 0 0 1-1.076 1.04zm20.192-23.558h-6.957v22.52a.988.988 0 0 1-1.04 1.004.977.977 0 0 1-1.004-1.004v-22.52h-6.956a1.005 1.005 0 1 1 0-2.008h15.957a1.004 1.004 0 0 1 0 2.008zm7.46 23.524h-4.088a1.022 1.022 0 1 1 0-2.044h1.005v-21.48h-1.005a1.005 1.005 0 1 1 0-2.008h4.088a1.004 1.004 0 1 1 0 2.008h-1.04v21.48h1.04a1.022 1.022 0 0 1 0 2.044zm23.06 0a1.046 1.046 0 0 1-.933-.609l-2.295-5.522h-12.9l-2.295 5.522a1.009 1.009 0 0 1-1.936-.359 1.063 1.063 0 0 1 .071-.466l9.682-23.487a1.129 1.129 0 0 1 1.04-.681.924.924 0 0 1 .86.681l9.682 23.487a1.05 1.05 0 0 1 .072.466 1.003 1.003 0 0 1-1.04.968zm-9.682-21.837l-5.63 13.662h11.295zm26.106 21.837h-11.94a1.085 1.085 0 0 1-1.04-1.004v-23.523a.988.988 0 0 1 1.04-1.004.977.977 0 0 1 1.004 1.004v22.483h10.937a1.022 1.022 0 0 1 0 2.044z"/></g><g class="L"><path d="M63.737 80.018a2.574 2.574 0 0 1-1.98-1.08l-12.48-17.46h-7.74v15.9a2.501 2.501 0 0 1-2.64 2.58 2.456 2.456 0 0 1-2.52-2.52V39.82a2.491 2.491 0 0 1 2.52-2.58h15.54c5.28 0 12.06 4.14 12.06 12.06a12.096 12.096 0 0 1-11.04 12.12l10.5 14.46a2.355 2.355 0 0 1 .54 1.56 2.76 2.76 0 0 1-2.76 2.58zm-9.36-37.68h-12.84v14.04h12.78a7.02 7.02 0 0 0 .06-14.04z"/><use xlink:href="#p"/><path d="M128.776 79.958a2.424 2.424 0 0 1-2.52-2.52v-16.68a8.55 8.55 0 1 0-17.099 0v16.62a2.551 2.551 0 0 1-2.64 2.64 2.472 2.472 0 0 1-2.52-2.58V50.62a2.387 2.387 0 0 1 2.52-2.52 2.509 2.509 0 0 1 2.58 1.98 13.703 13.703 0 0 1 22.259 10.68v16.62a2.454 2.454 0 0 1-2.58 2.58z"/><use xlink:href="#p" x="65.699"/><path d="M209.595 51.52l-9.3 26.34a2.727 2.727 0 0 1-2.64 2.1c-1.26 0-1.98-.54-2.52-2.1l-7.02-19.8-7.08 19.8a2.598 2.598 0 0 1-5.1 0l-9.24-26.34a2.64 2.64 0 0 1-.12-.96 2.585 2.585 0 0 1 2.64-2.46 2.378 2.378 0 0 1 2.34 1.68l6.96 20.04 7.08-19.62c.48-1.38 1.08-2.1 2.52-2.1 1.32 0 2.04.66 2.52 2.1l7.02 19.62 7.02-20.04a2.359 2.359 0 0 1 2.28-1.68 2.666 2.666 0 0 1 2.76 2.52 2.484 2.484 0 0 1-.12.9zm32.64 28.438a5.839 5.839 0 0 1-5.34-3.42 13.747 13.747 0 0 1-10.56 4.44c-9.78 0-15.06-8.04-15.06-16.98s5.4-16.92 15.06-16.92a13.258 13.258 0 0 1 9.899 3.96v-.24a2.476 2.476 0 0 1 2.52-2.7 2.412 2.412 0 0 1 2.64 2.52v23.16a.971.971 0 0 0 .84 1.08 2.55 2.55 0 1 1 0 5.1zm-15.9-27.78c-6 0-9.9 4.68-9.9 11.82 0 7.2 3.9 11.88 9.9 11.88 6.06 0 9.9-4.68 9.9-11.88 0-7.14-3.84-11.82-9.9-11.82zm36.72 28.8a14.199 14.199 0 0 1-9.899-3.6 2.453 2.453 0 0 1-2.64 2.52 2.421 2.421 0 0 1-2.52-2.52V39.82a2.58 2.58 0 0 1 5.16-.06v11.22a13.318 13.318 0 0 1 9.899-3.9c9.66 0 15.06 7.92 15.06 16.92 0 9.06-5.4 16.98-15.06 16.98zm0-28.8c-6 0-9.9 4.68-9.9 11.82 0 7.2 3.9 11.88 9.9 11.88s9.9-4.68 9.9-11.88c0-7.14-3.9-11.82-9.9-11.82zm25.44 27.9a6.122 6.122 0 0 1-6-6.12V39.82a2.58 2.58 0 0 1 5.16-.06v34.198a.947.947 0 0 0 .84 1.02 2.55 2.55 0 1 1 0 5.1z"/><use xlink:href="#p" x="222.897"/><path d="M366.792 79.958h-24.96a2.601 2.601 0 0 1-2.64-2.52V39.82a2.612 2.612 0 0 1 2.64-2.58h24.96a2.425 2.425 0 0 1 2.52 2.52 2.505 2.505 0 0 1-2.52 2.58h-22.44v12.12h15.72a2.561 2.561 0 0 1 2.58 2.58 2.523 2.523 0 0 1-2.58 2.58h-15.72v15.24h22.44a2.471 2.471 0 0 1 2.52 2.58 2.425 2.425 0 0 1-2.52 2.52zm31.08 0a2.424 2.424 0 0 1-2.52-2.52v-16.68a8.55 8.55 0 1 0-17.099 0v16.62a2.55 2.55 0 0 1-2.64 2.64 2.472 2.472 0 0 1-2.52-2.58V50.62a2.387 2.387 0 0 1 2.52-2.52 2.509 2.509 0 0 1 2.58 1.98 13.703 13.703 0 0 1 22.259 10.68v16.62a2.454 2.454 0 0 1-2.58 2.58z"/><use xlink:href="#p" x="334.795"/><path d="M452.472 52.18a8.644 8.644 0 0 0-8.52 8.58v16.62a2.501 2.501 0 0 1-2.64 2.58 2.456 2.456 0 0 1-2.52-2.52V50.68a2.541 2.541 0 0 1 2.52-2.58 2.463 2.463 0 0 1 2.58 2.04 13.875 13.875 0 0 1 8.58-3.06 2.552 2.552 0 1 1 0 5.1zm17.4 41.457c-3.66 0-12.72-1.32-12.72-4.92a2.794 2.794 0 0 1 2.58-2.7c1.38 0 .18.18 3.36 1.38a18.748 18.748 0 0 0 6.78 1.14c6.66 0 9.9-3.18 9.9-9.48v-2.7a14.039 14.039 0 0 1-9.9 3.6c-9.48 0-15.06-6.72-15.06-15.96 0-9 5.4-16.92 15.06-16.92 4.2 0 7.44 1.26 9.9 3.84v-.24a2.553 2.553 0 0 1 2.58-2.58 2.519 2.519 0 0 1 2.58 2.58v28.38c0 9.54-5.7 14.58-15.06 14.58zm0-41.458c-6 0-9.9 4.68-9.9 11.82 0 6.84 3.6 10.86 9.9 10.86s9.9-4.02 9.9-10.86c0-7.14-3.84-11.82-9.9-11.82zm47.158-.48l-16.2 36.838a6.876 6.876 0 0 1-6.6 4.02h-1.92a2.42 2.42 0 0 1-2.52-2.64 2.387 2.387 0 0 1 2.52-2.52h1.86a1.894 1.894 0 0 0 1.98-.96l3.96-8.88-11.7-25.86a2.168 2.168 0 0 1-.3-1.14 2.705 2.705 0 0 1 2.76-2.52 2.309 2.309 0 0 1 2.16 1.56l9.78 21.72 9.54-21.72a2.376 2.376 0 0 1 2.22-1.5 2.659 2.659 0 0 1 2.76 2.46 2.035 2.035 0 0 1-.3 1.14zm18.542-8.46a4.32 4.32 0 1 1 4.319-4.319 4.302 4.302 0 0 1-4.319 4.319zm0 36.72a2.52 2.52 0 0 1-2.64-2.52V50.68a2.533 2.533 0 0 1 2.64-2.58 2.472 2.472 0 0 1 2.52 2.58v26.76a2.421 2.421 0 0 1-2.52 2.52zm18.898 1.018c-3.3 0-8.82-1.02-11.64-4.5a2.655 2.655 0 0 1 2.16-4.26 2.463 2.463 0 0 1 1.859 1.02c1.86 2.04 4.92 2.64 7.62 2.64 5.4 0 7.14-1.86 7.14-4.56 0-7.68-18.3-2.94-18.3-15.3 0-6.54 6.12-8.94 11.82-8.94 3.24 0 10.86 1.62 10.86 4.98a2.694 2.694 0 0 1-2.52 2.7 3.612 3.612 0 0 1-1.98-.78c-1.62-1.38-3.96-1.8-6.36-1.8-4.98 0-6.72 1.86-6.72 3.84 0 7.14 18.36 2.52 18.36 15.3 0 7.08-5.94 9.66-12.3 9.66zm43.08.06a15.03 15.03 0 0 1-15.06-15.06V39.76a2.581 2.581 0 0 1 5.16 0v26.22a9.93 9.93 0 1 0 19.859 0V39.82a2.55 2.55 0 1 1 5.1-.06v26.22a15.03 15.03 0 0 1-15.06 15.06z"/><use xlink:href="#q"/><path d="M661.5 79.958h-1.02c-5.7 0-7.86-3-7.86-7.92V53.2h-1.8a2.55 2.55 0 0 1-.061-5.1h1.8v-8.34a2.436 2.436 0 0 1 2.579-2.52 2.39 2.39 0 0 1 2.521 2.52v8.34h3.84a2.487 2.487 0 0 1 2.52 2.52 2.441 2.441 0 0 1-2.52 2.58h-3.84v19.38c0 1.68.6 2.28 2.28 2.28h1.5a2.475 2.475 0 0 1 2.58 2.52 2.441 2.441 0 0 1-2.52 2.58zm35.097 0a5.837 5.837 0 0 1-5.339-3.42 13.748 13.748 0 0 1-10.56 4.44c-9.78 0-15.06-8.04-15.06-16.98s5.4-16.92 15.06-16.92a13.259 13.259 0 0 1 9.899 3.96v-.24a2.475 2.475 0 0 1 2.52-2.7 2.412 2.412 0 0 1 2.64 2.52v23.16a.971.971 0 0 0 .84 1.08 2.55 2.55 0 1 1 0 5.1zM680.7 52.18c-6 0-9.9 4.68-9.9 11.82 0 7.2 3.9 11.88 9.9 11.88 6.06 0 9.9-4.68 9.9-11.88 0-7.14-3.84-11.82-9.9-11.82z"/><use xlink:href="#r"/><use xlink:href="#r" x="34.861"/><use xlink:href="#s"/><path d="M830.346 79.897a2.436 2.436 0 0 1-2.58-2.52 14.518 14.518 0 0 1-9.899 3.6c-9.66 0-15.06-7.92-15.06-16.98 0-9 5.4-16.92 15.06-16.92a13.224 13.224 0 0 1 9.899 3.9V39.82a2.58 2.58 0 0 1 5.159-.06v37.618a2.436 2.436 0 0 1-2.579 2.52zm-12.48-27.72c-6 0-9.9 4.68-9.9 11.82 0 7.2 3.9 11.88 9.9 11.88 6.06 0 9.9-4.68 9.9-11.88 0-7.14-3.84-11.82-9.9-11.82zm61.08 27.78h-24.96a2.602 2.602 0 0 1-2.64-2.52V39.82a2.612 2.612 0 0 1 2.64-2.58h24.96a2.425 2.425 0 0 1 2.52 2.52 2.504 2.504 0 0 1-2.52 2.58h-22.44v12.12h15.72a2.561 2.561 0 0 1 2.58 2.58 2.523 2.523 0 0 1-2.58 2.58h-15.72v15.24h22.44a2.471 2.471 0 0 1 2.52 2.58 2.425 2.425 0 0 1-2.52 2.52z"/><use xlink:href="#q" x="266.815"/><use xlink:href="#s" x="145.498"/><path d="M964.025 52.18a8.644 8.644 0 0 0-8.521 8.58v16.62a2.501 2.501 0 0 1-2.64 2.58 2.456 2.456 0 0 1-2.52-2.52V50.68a2.541 2.541 0 0 1 2.52-2.58 2.463 2.463 0 0 1 2.58 2.04 13.874 13.874 0 0 1 8.58-3.06 2.552 2.552 0 1 1 0 5.1zm17.4 41.457c-3.66 0-12.72-1.32-12.72-4.92a2.794 2.794 0 0 1 2.58-2.7c1.38 0 .18.18 3.36 1.38a18.749 18.749 0 0 0 6.78 1.14c6.66 0 9.9-3.18 9.9-9.48v-2.7a14.038 14.038 0 0 1-9.899 3.6c-9.48 0-15.06-6.72-15.06-15.96 0-9 5.4-16.92 15.06-16.92 4.2 0 7.44 1.26 9.9 3.84v-.24a2.553 2.553 0 0 1 2.58-2.58 2.518 2.518 0 0 1 2.579 2.58v28.38c0 9.54-5.7 14.58-15.06 14.58zm0-41.458c-6 0-9.9 4.68-9.9 11.82 0 6.84 3.6 10.86 9.9 10.86s9.9-4.02 9.9-10.86c0-7.14-3.84-11.82-9.9-11.82zm47.76-.48l-16.2 36.838a6.876 6.876 0 0 1-6.6 4.02h-1.92a2.42 2.42 0 0 1-2.52-2.64 2.386 2.386 0 0 1 2.52-2.52h1.86a1.894 1.894 0 0 0 1.979-.96l3.96-8.88-11.7-25.86a2.165 2.165 0 0 1-.301-1.14 2.706 2.706 0 0 1 2.761-2.52 2.308 2.308 0 0 1 2.159 1.56l9.78 21.72 9.54-21.72a2.376 2.376 0 0 1 2.22-1.5 2.659 2.659 0 0 1 2.76 2.46 2.035 2.035 0 0 1-.3 1.14z"/></g><g fill="#f3f917"><path d="M42.4 114.306c-3.306 0-6.003-3.002-6.003-6.687s2.697-6.648 6.003-6.648c3.268 0 5.965 2.963 5.965 6.648s-2.697 6.688-5.965 6.688zm0-11.208c-1.9 0-3.838 1.785-3.838 4.52s1.938 4.52 3.838 4.52 3.8-1.785 3.8-4.52-1.9-4.52-3.8-4.52zm14.36-1.406l-7.257 26.216c-.2.532-.494.798-.95.798a1.168 1.168 0 0 1-1.178-1.102.756.756 0 0 1 .037-.304l7.258-26.217a1.026 1.026 0 0 1 .987-.835 1.194 1.194 0 0 1 1.14 1.14 1.066 1.066 0 0 1-.038.304zm4.712 26.33c-3.268 0-5.966-3.002-5.966-6.687 0-3.646 2.698-6.648 5.966-6.648 3.306 0 6.003 3.002 6.003 6.648 0 3.686-2.697 6.688-6.003 6.688zm0-11.17c-1.9 0-3.8 1.785-3.8 4.482 0 2.736 1.9 4.52 3.8 4.52 1.938 0 3.837-1.785 3.837-4.52 0-2.697-1.9-4.482-3.837-4.482zm39.518-7.6l-6.193 17.857c-.266.722-.607.912-1.102.912-.646 0-.836-.228-1.064-.912l-4.977-14.817-4.978 14.817c-.266.722-.608.912-1.102.912a1.111 1.111 0 0 1-1.064-.912l-6.155-17.857a1.645 1.645 0 0 1-.075-.418 1.079 1.079 0 0 1 1.102-.987.986.986 0 0 1 .988.722l5.205 15.046 4.977-14.855c.23-.723.456-.912 1.103-.912.456 0 .836.15 1.063.912l5.054 14.855 5.13-15.046a.986.986 0 0 1 .988-.722 1.028 1.028 0 0 1 1.102 1.405z"/><use xlink:href="#t"/><path d="M125.836 108.834a1.259 1.259 0 0 1-.57.19 1.22 1.22 0 0 1-1.063-1.292c0-.836 2.165-1.025 2.165-3.457v-2.888a1.081 1.081 0 0 1 1.064-1.14 1.11 1.11 0 0 1 1.102 1.14v2.888a5.416 5.416 0 0 1-2.697 4.559z"/><use xlink:href="#u"/><use xlink:href="#t" x="40.119"/><path d="M189.74 128.02a1.067 1.067 0 0 1-1.102-1.063v-1.216a8.44 8.44 0 0 1-6.497 2.925 8.758 8.758 0 0 1-8.663-8.662V108.9a1.083 1.083 0 0 1 2.166 0v11.095a6.497 6.497 0 1 0 12.994 0V108.9a1.083 1.083 0 0 1 2.166 0v18.048a1.059 1.059 0 0 1-1.064 1.063zm12.048.723c-2.28 0-6.117-.798-7.447-3a.922.922 0 0 1-.151-.57 1.036 1.036 0 0 1 1.938-.607c1.367 1.67 3.8 2.014 5.66 2.014 3.686 0 5.547-1.216 5.547-3.686 0-5.737-12.462-2.698-12.462-10.297 0-3.837 3.837-5.32 7.295-5.32 1.976 0 5.015.685 6.535 2.204a1.064 1.064 0 0 1 .342.722 1.232 1.232 0 0 1-1.178 1.14 1.006 1.006 0 0 1-.722-.304 7.598 7.598 0 0 0-4.978-1.596c-3.344 0-5.13 1.292-5.13 3.153 0 5.32 12.462 2.508 12.462 10.297 0 4.33-3.8 5.85-7.713 5.85z"/><use xlink:href="#v"/><use xlink:href="#w"/><path d="M249.82 136.685c-3.23 0-7.79-1.216-7.79-2.584a1.206 1.206 0 0 1 1.103-1.216 13.688 13.688 0 0 1 2.014.912 14.237 14.237 0 0 0 4.673.722c4.863 0 7.37-2.394 7.37-7.067v-2.66a9.072 9.072 0 0 1-7.371 3.229c-6.003 0-9.536-4.256-9.536-10.106 0-5.7 3.42-10.715 9.536-10.715a8.686 8.686 0 0 1 7.371 3.572v-1.824a1.083 1.083 0 0 1 2.166 0v18.503c0 6.04-3.6 9.233-9.537 9.233zm0-27.318c-4.483 0-7.37 3.61-7.37 8.55 0 4.9 2.698 7.94 7.37 7.94s7.37-3.04 7.37-7.94c0-4.94-2.85-8.55-7.37-8.55z"/></g><g class="L"><path d="M286.146 109.328l-7.484 17.82a1.249 1.249 0 0 1-1.064.874 1.294 1.294 0 0 1-1.102-.874l-7.484-17.78a1.206 1.206 0 0 1-.076-.494 1.062 1.062 0 0 1 1.102-1.025.976.976 0 0 1 .95.646l6.6 15.616 6.573-15.616a1.084 1.084 0 0 1 2.09.342.907.907 0 0 1-.114.494zm9.387 19.415c-2.28 0-6.117-.798-7.447-3a.922.922 0 0 1-.151-.57 1.036 1.036 0 0 1 1.938-.607c1.367 1.67 3.8 2.014 5.66 2.014 3.686 0 5.547-1.216 5.547-3.686 0-5.737-12.462-2.698-12.462-10.297 0-3.837 3.837-5.32 7.295-5.32 1.976 0 5.016.685 6.535 2.204a1.064 1.064 0 0 1 .342.722 1.232 1.232 0 0 1-1.178 1.14 1.006 1.006 0 0 1-.722-.304 7.599 7.599 0 0 0-4.978-1.596c-3.344 0-5.13 1.292-5.13 3.153 0 5.32 12.462 2.508 12.462 10.297 0 4.33-3.8 5.85-7.713 5.85zm13.11-.723a2.166 2.166 0 1 1 2.166-2.166 2.141 2.141 0 0 1-2.166 2.166z"/><use xlink:href="#x"/><path d="M353.595 128.667c-6.117 0-9.536-5.015-9.536-10.752 0-5.7 3.42-10.715 9.536-10.715s9.537 5.016 9.537 10.715c0 5.737-3.42 10.752-9.537 10.752zm0-19.3c-4.483 0-7.37 3.61-7.37 8.55s2.888 8.587 7.37 8.587c4.52 0 7.37-3.647 7.37-8.587s-2.85-8.55-7.37-8.55z"/><use xlink:href="#y"/><path d="M394.747 119.017H378.98c.342 4.332 3.153 7.485 7.295 7.485a6.866 6.866 0 0 0 5.585-2.622.997.997 0 0 1 .912-.531 1.161 1.161 0 0 1 1.178 1.025c0 .342 0 .418-.722 1.254a8.969 8.969 0 0 1-6.953 3.039c-6.117 0-9.536-5.015-9.536-10.752 0-5.7 3.42-10.715 9.536-10.715s9.537 5.054 9.537 10.715a1.15 1.15 0 0 1-1.064 1.102zm-8.473-9.65c-4.56 0-6.953 3.495-7.295 7.485h14.628c-.342-4.332-3.153-7.485-7.333-7.485z"/><use xlink:href="#w" x="180.041"/><use xlink:href="#y" x="54.3"/><use xlink:href="#v" x="219.18"/><use xlink:href="#z"/><path d="M466.112 128.25a3.982 3.982 0 0 1-3.762-4.027v-22.188a1.083 1.083 0 0 1 2.166 0v22.188c0 2.432 2.697 1.026 2.697 2.736a1.224 1.224 0 0 1-1.102 1.291z"/><use xlink:href="#x" x="156.366"/><use xlink:href="#t" x="397.351"/><use xlink:href="#u" x="390.094"/><path d="M557.688 109.366L547.4 133.72c-.76 1.786-2.317 2.28-4.065 2.28h-1.67a1.083 1.083 0 0 1 0-2.165h1.67c.836 0 1.7-.038 2.052-.912l2.166-5.167-7.864-18.4a1.206 1.206 0 0 1-.076-.494 1.062 1.062 0 0 1 1.102-1.025.976.976 0 0 1 .95.646l7.066 16.5 7-16.5a.99.99 0 0 1 .988-.646 1.03 1.03 0 0 1 1.063 1.025 1.206 1.206 0 0 1-.076.494zm19.112 9.65h-15.77c.342 4.332 3.153 7.485 7.295 7.485a6.866 6.866 0 0 0 5.585-2.622.997.997 0 0 1 .912-.531 1.161 1.161 0 0 1 1.178 1.025c0 .342 0 .418-.722 1.254a8.969 8.969 0 0 1-6.953 3.039c-6.117 0-9.536-5.015-9.536-10.752 0-5.7 3.42-10.715 9.536-10.715s9.537 5.054 9.537 10.715a1.15 1.15 0 0 1-1.064 1.102zm-8.473-9.65c-4.56 0-6.953 3.495-7.295 7.485h14.628c-.342-4.332-3.153-7.485-7.333-7.485z"/><use xlink:href="#z" x="142.91"/><use xlink:href="#u" x="472.093"/></g></svg>