<svg xmlns="http://www.w3.org/2000/svg" xmlns:xlink="http://www.w3.org/1999/xlink" viewBox="0 0 1080 1080"><style><![CDATA[.J{stroke:#fff}.K{stroke-width:2}.L{stroke-miterlimit:10}.M{opacity:.8}]]></style><linearGradient id="A" gradientUnits="userSpaceOnUse" x1="11.75" y1="11.75" x2="1068.25" y2="1068.25"><stop offset="0" stop-color="#66c2a5"/><stop offset=".208" stop-color="#9cad6f"/><stop offset=".501" stop-color="#e28826"/><stop offset=".637" stop-color="#ff750e"/><stop offset=".661" stop-color="#fe6d19"/><stop offset=".754" stop-color="#fb4d45"/><stop offset=".838" stop-color="#f73561"/><stop offset=".909" stop-color="#f52472"/><stop offset=".966" stop-color="#f31a7b"/><stop offset="1" stop-color="#f2177e"/></linearGradient><path d="M1080,1040c0,22-18,40-40,40H40c-22,0-40-18-40-40V40C0,18,18,0,40,0h1000c22,0,40,18,40,40V1040z" fill="url(#A)"/><g fill="#fff"><path d="M976.028 151.5c-21.956 0-39.73 17.49-39.73 39.06s17.774 39.054 39.73 39.054c21.932 0 39.727-17.485 39.727-39.054s-17.795-39.06-39.727-39.06zm0-19.692l-8.89 15.132h17.77l-8.88-15.132zm-29.888 7.876v17.47l15.394-8.74-15.394-8.732zm-4.105 21.5l-17.773.002 8.887 15.132 8.887-15.134zm-10.38 20.643l-15.394 8.737 15.394 8.73v-17.468zm-7.394 38.113h17.773l-8.887-15.13-8.887 15.13zm21.878 21.508l15.394-8.738-15.394-8.736v17.474zm29.888 7.87l8.88-15.133h-17.77l8.89 15.133zm29.88-7.87v-17.474l-15.4 8.736 15.4 8.738zm4.098-21.5h17.78l-8.895-15.13-8.885 15.13zm10.39-20.637l15.4-8.738-15.4-8.732v17.47zm7.39-38.116l-17.78.004 8.885 15.132 8.895-15.136zm-21.878-21.503l-15.4 8.74 15.4 8.736v-17.474z" opacity=".7"/><path d="M839.576 922.856h65.01v63.907h-65.01z" fill-opacity=".3" class="J K L"/></g><g fill="none" class="J K L"><path d="M34.55 131.807h870.036v855.29H34.55z"/><path d="M336.84 987.098v-1"/><path d="M336.84 980.098V615.11" stroke-dasharray="1.99993,5.99979"/><path d="M336.84 612.11v-1h-1"/><path d="M329.875 611.11H38.532" stroke-dasharray="1.98869,5.96606"/><path d="M35.55 611.11h-1"/></g><g fill="#fff"><path d="M61.372 641.214c-.68-4.896-3.4-5.712-5.304-5.712-4.352 0-7.07 5.983-7.207 19.65 1.972-2.108 4.623-3.74 7.547-3.74 5.508 0 10.54 3.944 10.54 15.095 0 9.52-4.08 15.366-10.54 15.366-8.5 0-12.58-4.896-12.58-22.573 0-19.72 4.624-27.877 12.375-27.877 6.323 0 8.703 3.807 9.655 9.52l-4.487.272zm-12.646 23.117c0 9.927 2.583 13.463 6.935 13.463 3.808 0 6.392-2.855 6.392-11.355 0-8.77-2.992-10.946-6.12-10.946s-5.576 2.04-7.207 4.216v4.623z"/><use xlink:href="#C"/><path d="M105.64 674.802v6.8l-4.08 9.79h-2.04l3.128-10.2h-2.72v-6.392h5.712z"/><use xlink:href="#C" x="39.855"/><use xlink:href="#D"/><use xlink:href="#E"/><path d="M200.43 674.802v6.8l-4.08 9.79h-2.04l3.128-10.2h-2.72v-6.392h5.712z"/><use xlink:href="#E" x="39.845"/><use xlink:href="#D" x="94.789"/><use xlink:href="#D" x="122.26"/><path d="M61.723 727.195c-.494 0-1.063-.342-1.063-1.063v-12.35H45.917v12.35c0 .684-.494 1.063-1.063 1.063-.532 0-1.103-.342-1.103-1.063v-24.925c0-.722.57-1.063 1.103-1.063.57 0 1.063.38 1.063 1.063v10.4H60.66v-10.4c0-.684.494-1.063 1.063-1.063.532 0 1.102.342 1.102 1.063v24.925c0 .684-.53 1.063-1.102 1.063z"/><use xlink:href="#F"/><path d="M113.82 727.195c-.53 0-1.063-.38-1.063-1.063v-12.767c0-2.62-2.204-4.825-4.825-4.825s-4.863 2.204-4.863 4.787v12.805c0 .684-.532 1.063-1.063 1.063s-1.103-.38-1.103-1.063v-12.767c0-2.62-2.203-4.825-4.787-4.825-2.66 0-4.863 2.204-4.863 4.787v12.805c0 .684-.57 1.063-1.063 1.063-.532 0-1.103-.38-1.103-1.063v-18.048c0-.684.57-1.063 1.103-1.063.494 0 1.063.38 1.063 1.063v.23c1.254-1.216 2.964-1.938 4.825-1.938 2.432 0 4.598 1.216 5.928 3.23 1.253-1.937 3.42-3.23 5.9-3.23 3.95 0 7.03 3.116 7.03 6.953v12.805c0 .684-.57 1.063-1.103 1.063zm25.233 0h-.038c-1.254 0-3.04-.684-3.762-2.964-1.596 2.242-4.065 3.6-7.37 3.6-6.193 0-9.536-5.1-9.536-10.752 0-5.737 3.42-10.715 9.536-10.715 3.306 0 5.775 1.368 7.37 3.572v-1.862c0-.607.494-1.063 1.102-1.063.532 0 1.064.38 1.064 1.063v15.312c0 2.432 2.735.912 2.735 2.736a1.04 1.04 0 0 1-1.102 1.063zm-11.17-18.655c-4.483 0-7.37 3.6-7.37 8.55s2.888 8.587 7.37 8.587c4.52 0 7.37-3.647 7.37-8.587s-2.85-8.55-7.37-8.55z"/><use xlink:href="#G"/><use xlink:href="#H"/><use xlink:href="#I"/><use xlink:href="#J"/><path d="M201.338 708.007c-.23.114-.38.2-.57.2-.646 0-1.063-.684-1.063-1.292 0-.836 2.165-1.025 2.165-3.457v-2.888c0-.723.532-1.14 1.064-1.14a1.11 1.11 0 0 1 1.102 1.14v2.888c0 .873-.418 3.305-2.697 4.56zm13.68 19.9c-2.28 0-6.117-.798-7.447-3-.15-.23-.15-.418-.15-.57 0-.607.53-1.14 1.102-1.14.228 0 .607.2.836.532 1.367 1.67 3.8 2.014 5.66 2.014 3.686 0 5.547-1.216 5.547-3.686 0-5.737-12.462-2.698-12.462-10.297 0-3.837 3.837-5.32 7.295-5.32 1.976 0 5.016.684 6.535 2.204.228.228.342.494.342.722 0 .57-.57 1.14-1.178 1.14-.23 0-.494-.076-.722-.304-1.18-1.14-3.306-1.596-4.978-1.596-3.344 0-5.13 1.292-5.13 3.153 0 5.32 12.462 2.508 12.462 10.297 0 4.33-3.8 5.85-7.713 5.85zm36.628-9.717H235.88c.342 4.332 3.153 7.485 7.295 7.485 2.052 0 4.483-.912 5.585-2.622.267-.418.57-.53.912-.53.57 0 1.178.455 1.178 1.025 0 .342 0 .418-.722 1.254-1.748 2.052-4.293 3.04-6.953 3.04-6.117 0-9.536-5.015-9.536-10.752 0-5.7 3.42-10.715 9.536-10.715s9.537 5.054 9.537 10.715c0 .57-.532 1.102-1.064 1.102zm-8.473-9.65c-4.56 0-6.953 3.495-7.295 7.485h14.628c-.342-4.332-3.153-7.485-7.333-7.485z"/><use xlink:href="#G" x="113.619"/><use xlink:href="#I" x="106.818"/><use xlink:href="#H" x="124.335"/><use xlink:href="#K"/><path d="M323.648 718.2H307.88c.342 4.332 3.153 7.485 7.295 7.485 2.052 0 4.483-.912 5.585-2.622.267-.418.57-.53.912-.53.57 0 1.178.455 1.178 1.025 0 .342 0 .418-.722 1.254-1.748 2.052-4.293 3.04-6.953 3.04-6.117 0-9.536-5.015-9.536-10.752 0-5.7 3.42-10.715 9.536-10.715s9.537 5.054 9.537 10.715c0 .57-.532 1.102-1.064 1.102zm-8.473-9.65c-4.56 0-6.953 3.495-7.295 7.485h14.628c-.342-4.332-3.153-7.485-7.333-7.485zM60.887 753.8H45.12c.342 4.332 3.153 7.485 7.295 7.485 2.052 0 4.483-.912 5.585-2.622.267-.418.57-.53.912-.53.57 0 1.178.455 1.178 1.025 0 .342 0 .418-.722 1.254-1.748 2.052-4.293 3.04-6.953 3.04-6.117 0-9.536-5.015-9.536-10.752 0-5.7 3.42-10.715 9.536-10.715s9.537 5.054 9.537 10.715c0 .57-.532 1.102-1.064 1.102zm-8.473-9.65c-4.56 0-6.953 3.495-7.295 7.485h14.628c-.342-4.332-3.153-7.485-7.333-7.485zm17.062 18.872c-2.052 0-3.762-1.9-3.762-4.027v-22.188c0-.684.57-1.063 1.103-1.063.494 0 1.063.38 1.063 1.063v22.188c0 2.432 2.697 1.026 2.697 2.736 0 .646-.455 1.3-1.102 1.3zm20.936-9.222H74.645c.342 4.332 3.153 7.485 7.295 7.485 2.052 0 4.483-.912 5.585-2.622.267-.418.57-.53.912-.53.57 0 1.178.455 1.178 1.025 0 .342 0 .418-.722 1.254-1.748 2.052-4.293 3.04-6.953 3.04-6.117 0-9.536-5.015-9.536-10.752 0-5.7 3.42-10.715 9.536-10.715s9.537 5.054 9.537 10.715c0 .57-.532 1.102-1.064 1.102zm-8.473-9.65c-4.56 0-6.953 3.495-7.295 7.485h14.628c-.342-4.332-3.153-7.485-7.333-7.485z"/><use xlink:href="#L"/><use xlink:href="#I" x="-56.47" y="35.6"/><use xlink:href="#K" x="-170.089" y="35.6"/><use xlink:href="#M"/><use xlink:href="#L" x="48.867"/><use xlink:href="#M" x="26.371"/><use xlink:href="#I" x="-0.8" y="35.6"/><use xlink:href="#J" x="-0.8" y="35.6"/><use xlink:href="#F" x="141.698" y="35.6"/><path d="M237.13 763.516c-2.28 0-6.117-.798-7.447-3-.15-.23-.15-.418-.15-.57 0-.607.53-1.14 1.102-1.14.228 0 .607.2.836.532 1.367 1.67 3.8 2.014 5.66 2.014 3.686 0 5.547-1.216 5.547-3.686 0-5.737-12.462-2.698-12.462-10.297 0-3.837 3.837-5.32 7.295-5.32 1.976 0 5.015.684 6.535 2.204.228.228.342.494.342.722 0 .57-.57 1.14-1.178 1.14-.23 0-.494-.076-.722-.304-1.178-1.14-3.306-1.596-4.978-1.596-3.344 0-5.13 1.292-5.13 3.153 0 5.32 12.462 2.508 12.462 10.297 0 4.33-3.8 5.85-7.713 5.85zm28.07-9.716h-15.768c.342 4.332 3.153 7.485 7.295 7.485 2.052 0 4.483-.912 5.585-2.622.267-.418.57-.53.912-.53.57 0 1.178.455 1.178 1.025 0 .342 0 .418-.722 1.254-1.748 2.052-4.293 3.04-6.953 3.04-6.117 0-9.536-5.015-9.536-10.752 0-5.7 3.42-10.715 9.536-10.715s9.537 5.054 9.537 10.715c0 .57-.532 1.102-1.064 1.102zm-8.473-9.65c-4.56 0-6.953 3.495-7.295 7.485h14.628c-.342-4.332-3.153-7.485-7.333-7.485zm679.765 166.315h-.032c-1.1 0-2.64-.594-3.268-2.574-1.387 1.947-3.53 3.136-6.403 3.136-5.38 0-8.284-4.423-8.284-9.34 0-4.983 2.97-9.308 8.284-9.308 2.872 0 5.017 1.188 6.403 3.103v-1.617c0-.528.43-.924.957-.924.462 0 .924.33.924.924v13.3c0 2.112 2.377.792 2.377 2.377 0 .43-.298.924-.958.924zm-9.703-16.205c-3.895 0-6.402 3.135-6.402 7.426s2.508 7.46 6.402 7.46c3.928 0 6.403-3.168 6.403-7.46s-2.476-7.426-6.403-7.426zm35.147 16.205c-.462 0-.924-.33-.924-.924v-11.1c0-2.277-1.914-4.2-4.2-4.2s-4.225 1.914-4.225 4.158v11.123c0 .594-.462.924-.925.924s-.957-.33-.957-.924v-11.1c0-2.277-1.914-4.2-4.158-4.2-2.3 0-4.225 1.914-4.225 4.158v11.123c0 .594-.495.924-.924.924-.463 0-.957-.33-.957-.924v-15.678c0-.594.494-.924.957-.924.43 0 .924.33.924.924v.198c1.1-1.057 2.574-1.684 4.2-1.684 2.112 0 3.994 1.057 5.148 2.806 1.1-1.684 2.97-2.806 5.116-2.806 3.433 0 6.105 2.707 6.105 6.04v11.123c0 .594-.495.924-.957.924zm12.868.562c-5.313 0-8.284-4.357-8.284-9.34 0-4.95 2.97-9.308 8.284-9.308s8.284 4.357 8.284 9.308c0 4.983-2.97 9.34-8.284 9.34zm0-16.767c-3.895 0-6.402 3.135-6.402 7.426s2.508 7.46 6.402 7.46c3.928 0 6.403-3.168 6.403-7.46s-2.476-7.426-6.403-7.426z"/><use xlink:href="#N"/><use xlink:href="#O"/><path d="M1031.926 910.465h-1.022c-2.607 0-3.895-1.287-3.895-3.86V894.82h-1.684c-.594 0-.924-.495-.924-.957 0-.43.33-.924.924-.924h1.684v-5.05c0-.594.495-.924.957-.924s.924.33.924.924v5.05h3.036c.595 0 .925.495.925.924 0 .462-.33.957-.925.957h-3.036v11.783c0 1.617.462 1.98 2.014 1.98h1.022c.595 0 .925.495.925.957 0 .43-.33.924-.925.924zm-90.946 9.258l-5.38 15.513c-.23.627-.528.792-.957.792-.562 0-.727-.198-.924-.792l-4.324-12.872-4.323 12.872c-.23.627-.528.792-.957.792s-.76-.264-.925-.792l-5.347-15.513a1.39 1.39 0 0 1-.065-.362c0-.528.527-.858.957-.858.33 0 .726.165.857.627l4.522 13.07 4.323-12.905c.198-.627.396-.792.957-.792.396 0 .727.132.924.792l4.4 12.905 4.456-13.07c.165-.462.495-.627.858-.627.495 0 1.022.33 1.022.9 0 .133-.032.23-.065.33zm18.117 8.483H945.4c.297 3.763 2.74 6.502 6.337 6.502 1.782 0 3.895-.792 4.852-2.277.23-.363.495-.462.792-.462.495 0 1.023.396 1.023.9 0 .298 0 .363-.627 1.1-1.52 1.782-3.73 2.64-6.04 2.64-5.313 0-8.284-4.357-8.284-9.34 0-4.95 2.97-9.308 8.284-9.308s8.284 4.4 8.284 9.308c0 .495-.462.957-.924.957zm-7.36-8.383c-3.96 0-6.04 3.036-6.337 6.502h12.707c-.297-3.763-2.74-6.502-6.37-6.502zm12.143-.463c-.198.1-.33.165-.495.165-.562 0-.924-.595-.924-1.123 0-.726 1.88-.9 1.88-3.003v-2.5c0-.627.462-1 .924-1s.957.363.957 1v2.5c0 .76-.362 2.87-2.343 3.96zm14.554.76a5.64 5.64 0 0 0-5.644 5.644v9.34c0 .594-.495.924-.924.924-.463 0-.957-.33-.957-.924v-15.678c0-.594.494-.924.957-.924.43 0 .924.33.924.924v1.354c1.485-1.617 3.433-2.542 5.644-2.542a.95.95 0 0 1 .957.925c0 .462-.362.957-.957.957zm17.484 8.086H982.22c.297 3.763 2.74 6.502 6.337 6.502 1.782 0 3.895-.792 4.852-2.277.23-.363.495-.462.792-.462.495 0 1.023.396 1.023.9 0 .298 0 .363-.627 1.1-1.52 1.782-3.73 2.64-6.04 2.64-5.313 0-8.284-4.357-8.284-9.34 0-4.95 2.97-9.308 8.284-9.308s8.284 4.4 8.284 9.308c0 .495-.462.957-.924.957zm-7.36-8.383c-3.96 0-6.04 3.036-6.337 6.502h12.707c-.297-3.763-2.74-6.502-6.37-6.502zm-55.86 39.82c-1.452 1.617-3.466 2.5-5.908 2.5-5.313 0-8.284-4.357-8.284-9.34 0-4.95 2.97-9.308 8.284-9.308 2.442 0 4.456.892 5.908 2.5a.87.87 0 0 1 .264.627c0 .495-.462 1-.957 1-.23 0-.462-.1-.693-.33-1.1-1.222-2.607-1.914-4.52-1.914-3.895 0-6.402 3.135-6.402 7.426s2.508 7.46 6.402 7.46c1.914 0 3.433-.726 4.52-1.914.23-.23.463-.33.693-.33a.98.98 0 0 1 .957.957.94.94 0 0 1-.264.66zm18.05 1.946c-.462 0-.957-.33-.957-.924v-1.057c-1.386 1.617-3.4 2.542-5.644 2.542-4.093 0-7.525-3.433-7.525-7.525V945c0-.594.495-.924.957-.924.43 0 .925.33.925.924v9.638a5.643 5.643 0 1 0 11.287 0V945c0-.594.495-.924.957-.924.43 0 .925.33.925.924v15.678c0 .594-.495.924-.925.924z"/><use xlink:href="#P"/><use xlink:href="#P" x="10.89"/><path d="M992.255 953.77h-13.697c.297 3.763 2.74 6.502 6.337 6.502 1.782 0 3.895-.792 4.852-2.277.23-.363.495-.462.792-.462.495 0 1.023.396 1.023.892 0 .297 0 .362-.627 1.1-1.52 1.782-3.73 2.64-6.04 2.64-5.313 0-8.284-4.357-8.284-9.34 0-4.95 2.97-9.308 8.284-9.308s8.284 4.4 8.284 9.308c0 .495-.462.957-.924.957zm-7.36-8.383c-3.96 0-6.04 3.036-6.337 6.502h12.707c-.297-3.763-2.74-6.502-6.37-6.502zm26.335 16.203c-.463 0-.958-.33-.958-.924v-9.638a5.62 5.62 0 0 0-5.644-5.644 5.64 5.64 0 0 0-5.644 5.644v9.638c0 .594-.495.924-.924.924-.463 0-.957-.33-.957-.924V945c0-.594.494-.924.957-.924.43 0 .924.33.924.924v1.057c1.485-1.617 3.433-2.542 5.644-2.542 4.093 0 7.525 3.4 7.525 7.525v9.638c0 .594-.495.924-.924.924zm11.35 0h-1.022c-2.607 0-3.895-1.287-3.895-3.86v-11.783h-1.684c-.594 0-.924-.495-.924-.957 0-.43.33-.924.924-.924h1.684v-5.05c0-.594.495-.924.957-.924s.924.33.924.924v5.05h3.036c.595 0 .925.495.925.924 0 .462-.33.957-.925.957h-3.036v11.783c0 1.617.462 1.98 2.014 1.98h1.022c.595 0 .925.495.925.957 0 .43-.33.924-.925.924zm7.193.2c-1.782 0-3.267-1.65-3.267-3.5v-19.274c0-.594.494-.924.957-.924.43 0 .924.33.924.924V958.3c0 2.112 2.344.892 2.344 2.377 0 .56-.396 1.122-.958 1.122zm18.187-16.414l-8.944 21.156c-.66 1.55-2.014 1.98-3.53 1.98h-1.452c-.595 0-.925-.495-.925-.957 0-.43.33-.924.925-.924h1.452c.726 0 1.485-.033 1.782-.792l1.88-4.5-6.832-15.974c-.065-.165-.065-.297-.065-.43 0-.527.462-.9.957-.9.297 0 .66.132.825.56l6.14 14.324 6.073-14.324c.165-.43.527-.56.857-.56.495 0 .925.363.925.9 0 .133 0 .265-.066.43z"/><use xlink:href="#N" x="-67.747" y="76.689"/><path d="M944.213 987.78c-1.98 0-5.314-.693-6.47-2.607-.132-.198-.132-.363-.132-.495 0-.528.462-1 .957-1 .198 0 .528.165.727.462 1.188 1.453 3.3 1.75 4.918 1.75 3.2 0 4.818-1.057 4.818-3.202 0-4.983-10.825-2.343-10.825-8.944 0-3.333 3.333-4.62 6.337-4.62 1.716 0 4.356.594 5.677 1.914.197.198.297.43.297.627 0 .495-.495 1-1.023 1a.87.87 0 0 1-.627-.264c-1.023-1-2.87-1.387-4.323-1.387-2.905 0-4.456 1.122-4.456 2.74 0 4.62 10.825 2.18 10.825 8.944 0 3.763-3.3 5.083-6.7 5.083zm11.12-21.32a1.881 1.881 0 1 1 0-3.762 1.881 1.881 0 1 1 0 3.762zm0 20.694c-.463 0-.957-.297-.957-.924v-15.678c0-.594.462-.924.957-.924.43 0 .924.297.924.924v15.678a.88.88 0 0 1-.924.924z"/><use xlink:href="#O" x="-45.505" y="76.689"/><path d="M987.904 994.68c-2.806 0-6.766-1.057-6.766-2.244 0-.528.43-1.057.957-1.057.363 0 1.122.562 1.75.792.858.297 2.212.627 4.06.627 4.225 0 6.403-2.08 6.403-6.14v-2.3c-1.452 1.75-3.53 2.806-6.403 2.806-5.215 0-8.284-3.696-8.284-8.78 0-4.95 2.97-9.308 8.284-9.308 2.872 0 5.017 1.188 6.403 3.103v-1.584c0-.594.495-.924.957-.924.43 0 .924.33.924.924v16.073c0 5.248-3.135 8.02-8.284 8.02zm0-23.73c-3.895 0-6.402 3.135-6.402 7.426 0 4.258 2.343 6.898 6.402 6.898s6.403-2.64 6.403-6.898c0-4.3-2.476-7.426-6.403-7.426zM73.43 160.164v44.818h6.75v5.4h-6.75v14.76h-6.48v-14.76h-20.8v-3.06l17.82-47.158h9.45zm-21.15 44.818h14.67v-38.878h-.18l-14.5 38.878z"/><use xlink:href="#Q"/><path d="M126.256 225.14v-5.4h7.92v-52.198l-8.1.72v-3.96c3.7-.9 7.3-2.52 10.26-5.04h4.32v60.478h7.56v5.4h-21.96zm40.59-8.46v9l-5.4 12.96h-2.7l4.14-13.5h-3.6v-8.46h7.56zm22.588 9.362c-10.08 0-16.02-7.92-16.02-17.28 0-8 4.23-13.77 10.44-18.18-5.76-4.6-9-9.1-9-16.74 0-8.55 6.48-14.58 14.58-14.58s14.58 6.03 14.58 14.58c0 7.65-3.24 12.15-9 16.74 6.2 4.4 10.44 10.17 10.44 18.18 0 9.36-5.94 17.28-16.02 17.28zm0-32.04c-5.22 3.87-9.54 8-9.54 15.03 0 5.3 2.88 11.6 9.54 11.6s9.54-6.3 9.54-11.6c0-7.02-4.32-11.16-9.54-15.03zm0-29.34c-5.58 0-8.1 4.32-8.1 8.46 0 6.57 3.24 11.43 8.1 14.4 4.86-2.97 8.1-7.83 8.1-14.4 0-4.14-2.52-8.46-8.1-8.46zm27.36 45.36c.54 4.68 2.52 10.62 8.28 10.62 5.58 0 9.72-5.76 9.72-17 0-12.15-4.14-15.93-8.9-15.93-3.7 0-7.1 2.8-8.2 6.3l-5.04-.9 2.16-32.938h22.86l-.54 5.4h-17.1l-1.26 19.8c2.25-1.9 5.3-3.06 8.64-3.06 7.56 0 13.86 7.02 13.86 21.148 0 14.85-7.2 22.6-15.84 22.6-9.36 0-14.04-7.02-14.58-15.48l5.94-.54z"/><use xlink:href="#Q" x="161.813"/><path d="M292.3 216.68v9l-5.4 12.96h-2.7l4.14-13.5h-3.6v-8.46h7.56z"/><use xlink:href="#Q" x="214.55"/><use xlink:href="#Q" x="250.909"/><use xlink:href="#Q" x="287.267"/><path d="M442.103 225.14c-.504 0-1.044-.36-1.044-1.008v-1.8c-1.512 2.124-3.852 3.42-6.983 3.42-5.795 0-9.035-4.752-9.035-10.187 0-5.4 3.24-10.15 9.035-10.15 3.132 0 5.472 1.296 6.983 3.384v-8.28c0-.647.54-1.008 1.044-1.008.468 0 1.008.36 1.008 1.008v23.613c0 .647-.54 1.008-1.008 1.008zm-8.027-17.674c-4.248 0-6.983 3.42-6.983 8.1s2.735 8.136 6.983 8.136c4.284 0 6.983-3.456 6.983-8.136s-2.7-8.1-6.983-8.1zm32.218 17.674h-.036c-1.188 0-2.88-.647-3.563-2.808-1.512 2.124-3.852 3.42-6.983 3.42-5.867 0-9.035-4.824-9.035-10.187 0-5.435 3.24-10.15 9.035-10.15 3.132 0 5.472 1.296 6.983 3.384v-1.764c0-.576.468-1.008 1.044-1.008.504 0 1.008.36 1.008 1.008v14.506c0 2.304 2.6.864 2.6 2.592 0 .468-.324 1.008-1.043 1.008zm-10.583-17.674c-4.248 0-6.983 3.42-6.983 8.1s2.735 8.136 6.983 8.136c4.284 0 6.983-3.456 6.983-8.136s-2.7-8.1-6.983-8.1zm15.23-4.894c-1.152 0-2.052-.9-2.052-2.052s.9-2.052 2.052-2.052 2.052.9 2.052 2.052-.9 2.052-2.052 2.052zm0 22.57c-.504 0-1.044-.324-1.044-1.008v-17.098c0-.648.504-1.008 1.044-1.008.468 0 1.008.323 1.008 1.008v17.098a.96.96 0 0 1-1.008 1.008zm8.964.215c-1.944 0-3.564-1.8-3.564-3.815v-21.02c0-.647.54-1.008 1.044-1.008.468 0 1.008.36 1.008 1.008v21.02c0 2.304 2.556.972 2.556 2.592 0 .612-.432 1.224-1.043 1.224zm19.114-17.9l-9.755 23.073c-.72 1.7-2.195 2.16-3.852 2.16h-1.584c-.648 0-1.008-.54-1.008-1.043 0-.47.36-1 1.008-1h1.584c.792 0 1.62-.035 1.944-.863l2.052-4.896-7.45-17.422c-.072-.18-.072-.324-.072-.468 0-.576.504-.972 1.044-.972.324 0 .72.144.9.6l6.695 15.622 6.623-15.622c.18-.468.576-.6.936-.6.54 0 1.008.396 1.008.972 0 .144 0 .288-.072.468zm34.415 17.673c-.504 0-1.008-.36-1.008-1.008V212.04a4.63 4.63 0 0 0-4.571-4.571c-2.484 0-4.607 2.088-4.607 4.535v12.13c0 .647-.504 1.008-1.008 1.008s-1.044-.36-1.044-1.008V212.04c0-2.483-2.088-4.57-4.536-4.57-2.52 0-4.607 2.088-4.607 4.535v12.13c0 .647-.54 1.008-1.008 1.008-.504 0-1.044-.36-1.044-1.008v-17.098c0-.648.54-1.008 1.044-1.008.468 0 1.008.36 1.008 1.008v.216a6.54 6.54 0 0 1 4.572-1.836c2.304 0 4.355 1.152 5.615 3.06 1.188-1.836 3.24-3.06 5.58-3.06 3.744 0 6.66 2.952 6.66 6.587v12.13c0 .647-.54 1.008-1.044 1.008zm21.347-8.54h-14.938c.324 4.104 2.988 7.092 6.9 7.092 1.944 0 4.248-.864 5.3-2.484.252-.396.54-.504.864-.504.54 0 1.116.433 1.116.973 0 .323 0 .396-.685 1.188-1.655 1.943-4.067 2.88-6.587 2.88-5.794 0-9.034-4.752-9.034-10.187 0-5.4 3.24-10.15 9.034-10.15s9.035 4.787 9.035 10.15c0 .54-.504 1.044-1.008 1.044zm-8.027-9.143c-4.32 0-6.586 3.312-6.9 7.1H553.7c-.324-4.104-2.987-7.1-6.947-7.1zm20.81 25.89c-3.06 0-7.38-1.152-7.38-2.447 0-.576.468-1.152 1.044-1.152.396 0 1.224.612 1.907.864.937.323 2.412.684 4.428.684 4.607 0 6.983-2.268 6.983-6.695v-2.52c-1.584 1.907-3.852 3.06-6.983 3.06-5.687 0-9.035-4.03-9.035-9.575 0-5.4 3.24-10.15 9.035-10.15 3.132 0 5.472 1.296 6.983 3.384v-1.728c0-.648.54-1.008 1.044-1.008.468 0 1.008.36 1.008 1.008v17.53c0 5.724-3.42 8.747-9.035 8.747zm0-25.88c-4.247 0-6.983 3.42-6.983 8.1 0 4.644 2.556 7.523 6.983 7.523s6.983-2.88 6.983-7.523c0-4.68-2.7-8.1-6.983-8.1z" class="M"/><use xlink:href="#R" class="M"/><path d="M627.068 207.36l-5.867 16.918c-.252.685-.576.864-1.044.864-.612 0-.792-.216-1.008-.864l-4.716-14.038-4.716 14.038c-.252.685-.575.864-1.043.864s-.828-.288-1.01-.864l-5.83-16.918c-.036-.107-.07-.287-.07-.396 0-.576.575-.936 1.043-.936.36 0 .792.18.937.684l4.932 14.254 4.715-14.074c.216-.684.432-.863 1.044-.863.432 0 .792.144 1.008.863l4.787 14.074 4.86-14.254c.18-.504.54-.684.937-.684.54 0 1.115.36 1.115.972 0 .144-.035.252-.07.36z" class="M"/><use xlink:href="#R" x="48.888" class="M"/><path d="M658.856 225.14h-1.115c-2.844 0-4.248-1.404-4.248-4.212v-12.85h-1.835c-.648 0-1.008-.54-1.008-1.044 0-.468.36-1.008 1.008-1.008h1.835v-5.508c0-.647.54-1.008 1.044-1.008s1.008.36 1.008 1.008v5.508h3.312c.648 0 1 .54 1 1.008 0 .504-.36 1.044-1 1.044h-3.312v12.85c0 1.765.504 2.16 2.196 2.16h1.115c.648 0 1 .54 1 1.044 0 .468-.36 1.008-1 1.008zm10.152 0h-1.115c-2.844 0-4.248-1.404-4.248-4.212v-12.85H661.8c-.648 0-1.008-.54-1.008-1.044 0-.468.36-1.008 1.008-1.008h1.835v-5.508c0-.647.54-1.008 1.044-1.008s1.008.36 1.008 1.008v5.508H669c.648 0 1 .54 1 1.008 0 .504-.36 1.044-1 1.044h-3.312v12.85c0 1.765.504 2.16 2.196 2.16h1.115c.648 0 1 .54 1 1.044 0 .468-.36 1.008-1 1.008zm27.07 0c-.504 0-1.044-.36-1.044-1.008v-10.5a6.13 6.13 0 0 0-6.155-6.155c-3.384 0-6.155 2.735-6.155 6.155v10.5c0 .647-.54 1.008-1.008 1.008-.504 0-1.044-.36-1.044-1.008V200.52c0-.647.54-1.008 1.044-1.008.468 0 1.008.36 1.008 1.008v7.667c1.512-1.764 3.708-2.77 6.155-2.77 4.464 0 8.207 3.708 8.207 8.207v10.5c0 .647-.54 1.008-1.008 1.008zm13.285.614c-5.795 0-9.035-4.752-9.035-10.187 0-5.4 3.24-10.15 9.035-10.15s9.035 4.75 9.035 10.15c0 5.436-3.24 10.188-9.035 10.188zm0-18.286c-4.247 0-6.983 3.42-6.983 8.1s2.736 8.136 6.983 8.136c4.283 0 6.983-3.456 6.983-8.136s-2.7-8.1-6.983-8.1zm27.683 17.672c-.504 0-1.044-.36-1.044-1.008v-1.152c-1.512 1.765-3.707 2.772-6.155 2.772-4.463 0-8.207-3.744-8.207-8.207v-10.5c0-.648.54-1.008 1.044-1.008.47 0 1.008.36 1.008 1.008v10.5a6.156 6.156 0 1 0 12.311 0v-10.5c0-.648.54-1.008 1.044-1.008.468 0 1.008.36 1.008 1.008v17.098c0 .647-.54 1.008-1.008 1.008zm13.608-17.348c-3.384 0-6.155 2.735-6.155 6.155v10.187c0 .647-.54 1.008-1.008 1.008-.504 0-1.044-.36-1.044-1.008v-17.098c0-.648.54-1.008 1.044-1.008.468 0 1.008.36 1.008 1.008v1.476c1.62-1.764 3.744-2.77 6.155-2.77.648 0 1.044.54 1.044 1.008 0 .504-.396 1.044-1.044 1.044zm8.966 18.033c-2.16 0-5.796-.756-7.056-2.844-.144-.216-.144-.396-.144-.54 0-.576.504-1.08 1.044-1.08.216 0 .576.18.792.504 1.296 1.584 3.6 1.907 5.363 1.907 3.5 0 5.255-1.15 5.255-3.5 0-5.436-11.807-2.556-11.807-9.755 0-3.636 3.636-5.04 6.9-5.04 1.872 0 4.752.647 6.2 2.088.216.216.324.468.324.684 0 .54-.54 1.08-1.116 1.08-.216 0-.468-.072-.684-.288-1.116-1.08-3.132-1.512-4.716-1.512-3.167 0-4.86 1.224-4.86 2.987 0 5.04 11.807 2.376 11.807 9.755 0 4.104-3.6 5.543-7.307 5.543z" class="M"/><path d="M61.522 285.958c-10.56 0-13.97-8.88-13.97-17.906 0-8.977 3.408-17.953 13.97-17.953 4.32 0 8.113 1.536 10.657 5.232.24.24.288.48.288.768 0 .77-.72 1.345-1.488 1.345-.672 0-1.056-.576-1.584-1.248-1.68-2.16-4.224-3.36-7.873-3.36-7.25 0-11.233 5.568-11.233 15.217 0 7.297 2.304 15.17 11.233 15.17 7.584 0 10.897-5.81 11.233-13.777h-5.856a1.37 1.37 0 0 1-1.44-1.393c0-.672.48-1.392 1.344-1.392H74.1c.816 0 1.392.576 1.392 1.392 0 9.36-3.696 17.906-13.97 17.906z"/><use xlink:href="#S"/><use xlink:href="#T"/><path d="M129.295 285.958c-4.176 0-7.297-1.73-9.313-4.56v2.4c0 .863-.72 1.344-1.344 1.344-.672 0-1.392-.48-1.392-1.344v-31.49c0-.864.72-1.344 1.392-1.344.625 0 1.344.48 1.344 1.344v11.04c2.016-2.784 5.137-4.513 9.313-4.513 7.73 0 12.05 6.337 12.05 13.537 0 7.25-4.32 13.586-12.05 13.586zm0-24.387c-5.712 0-9.313 4.56-9.313 10.8s3.6 10.85 9.313 10.85 9.313-4.608 9.313-10.85-3.6-10.8-9.312-10.8z"/><use xlink:href="#U"/><use xlink:href="#S" x="95.997"/><path d="M204.317 286.053c-2.88 0-7.73-1.008-9.41-3.792-.192-.288-.192-.528-.192-.72 0-.768.672-1.44 1.392-1.44.288 0 .768.24 1.056.672 1.728 2.112 4.8 2.544 7.153 2.544 4.656 0 7.008-1.536 7.008-4.656 0-7.25-15.745-3.408-15.745-13.01 0-4.85 4.848-6.72 9.217-6.72 2.496 0 6.336.864 8.257 2.784.288.288.432.624.432.912 0 .72-.72 1.44-1.488 1.44a1.27 1.27 0 0 1-.912-.384c-1.488-1.44-4.176-2.016-6.29-2.016-4.225 0-6.48 1.632-6.48 3.984 0 6.72 15.745 3.168 15.745 13.01 0 5.473-4.8 7.393-9.745 7.393z"/><use xlink:href="#T" x="128.635"/><path d="M250.636 285.43c-2.592 0-4.752-2.4-4.752-5.09v-28.034c0-.864.72-1.344 1.393-1.344.624 0 1.344.48 1.344 1.344v28.034c0 3.072 3.408 1.297 3.408 3.457 0 .815-.576 1.632-1.392 1.632z"/><use xlink:href="#U" x="109.342"/><path d="M296.235 262.004c-4.513 0-8.2 3.648-8.2 8.208v13.586c0 .863-.72 1.344-1.344 1.344-.672 0-1.392-.48-1.392-1.344v-22.803c0-.863.72-1.344 1.392-1.344.625 0 1.344.48 1.344 1.344v1.97c2.16-2.353 4.993-3.696 8.2-3.696.864 0 1.392.72 1.392 1.344 0 .672-.528 1.393-1.392 1.393zm36.385 11.76H312.7c.432 5.473 3.984 9.457 9.217 9.457 2.592 0 5.665-1.152 7.057-3.312.336-.528.72-.672 1.152-.672.72 0 1.488.576 1.488 1.296 0 .432 0 .528-.912 1.584-2.208 2.593-5.424 3.84-8.785 3.84-7.73 0-12.05-6.337-12.05-13.586 0-7.2 4.32-13.537 12.05-13.537s12.05 6.385 12.05 13.537c0 .72-.672 1.393-1.344 1.393zm-10.705-12.193c-5.76 0-8.785 4.417-9.217 9.457h18.48c-.432-5.473-3.984-9.457-9.265-9.457zm37.345 23.57c-.672 0-1.392-.48-1.392-1.344V269.78c0-4.56-3.648-8.2-8.208-8.2-4.513 0-8.2 3.648-8.2 8.2v14.018c0 .863-.72 1.344-1.344 1.344-.672 0-1.392-.48-1.392-1.344v-22.803c0-.863.72-1.344 1.392-1.344.625 0 1.344.48 1.344 1.344v1.536c2.16-2.352 4.993-3.696 8.2-3.696 5.952 0 10.945 4.944 10.945 10.945v14.018c0 .863-.72 1.344-1.344 1.344zm28.414-11.376h-19.92c.432 5.473 3.984 9.457 9.217 9.457 2.592 0 5.665-1.152 7.057-3.312.336-.528.72-.672 1.152-.672.72 0 1.488.576 1.488 1.296 0 .432 0 .528-.912 1.584-2.208 2.593-5.424 3.84-8.785 3.84-7.73 0-12.05-6.337-12.05-13.586 0-7.2 4.32-13.537 12.05-13.537s12.05 6.385 12.05 13.537c0 .72-.672 1.393-1.344 1.393zM376.97 261.57c-5.76 0-8.785 4.417-9.217 9.457h18.48c-.432-5.473-3.984-9.457-9.265-9.457zm27.743.434c-4.513 0-8.2 3.648-8.2 8.208v13.586c0 .863-.72 1.344-1.344 1.344-.672 0-1.393-.48-1.393-1.344v-22.803c0-.863.72-1.344 1.393-1.344.624 0 1.344.48 1.344 1.344v1.97c2.16-2.353 4.993-3.696 8.2-3.696.864 0 1.392.72 1.392 1.344 0 .672-.528 1.393-1.392 1.393zm14.88 34.083c-4.08 0-9.84-1.536-9.84-3.265 0-.77.624-1.536 1.392-1.536.528 0 1.632.816 2.544 1.152 1.248.432 3.216.912 5.905.912 6.145 0 9.313-3.024 9.313-8.93v-3.36c-2.112 2.544-5.136 4.08-9.312 4.08-7.585 0-12.05-5.377-12.05-12.77 0-7.2 4.32-13.537 12.05-13.537 4.176 0 7.296 1.73 9.313 4.513v-2.304c0-.864.72-1.345 1.392-1.345.624 0 1.344.48 1.344 1.345v23.378c0 7.632-4.56 11.665-12.05 11.665zm0-34.516c-5.665 0-9.313 4.56-9.313 10.8 0 6.193 3.408 10.033 9.313 10.033s9.313-3.84 9.313-10.033c0-6.24-3.6-10.8-9.312-10.8zm38.593-.001l-13 30.77c-.96 2.257-2.928 2.88-5.136 2.88h-2.112c-.864 0-1.344-.72-1.344-1.393 0-.624.48-1.344 1.344-1.344h2.112c1.056 0 2.16-.048 2.592-1.152l2.736-6.528-9.937-23.234c-.096-.24-.096-.432-.096-.624 0-.768.672-1.296 1.392-1.296.432 0 .96.192 1.2.816l8.93 20.834 8.833-20.834c.24-.624.768-.816 1.248-.816.72 0 1.344.528 1.344 1.296 0 .192 0 .384-.096.624zm26.687 24.388c-4.176 0-7.297-1.73-9.313-4.56v12.433c0 .864-.72 1.393-1.344 1.393-.672 0-1.392-.528-1.392-1.393v-32.835c0-.863.72-1.344 1.392-1.344.625 0 1.344.48 1.344 1.344v2.353c2.016-2.784 5.137-4.513 9.313-4.513 7.73 0 12.05 6.337 12.05 13.537 0 7.25-4.32 13.586-12.05 13.586zm0-24.387c-5.712 0-9.313 4.56-9.313 10.8s3.6 10.85 9.313 10.85 9.313-4.608 9.313-10.85-3.6-10.8-9.312-10.8z"/><use xlink:href="#T" x="412.166"/><path d="M538.2 285.14h-1.488c-3.792 0-5.665-1.872-5.665-5.616v-17.138H528.6c-.864 0-1.344-.72-1.344-1.393 0-.624.48-1.344 1.344-1.344h2.448v-7.345c0-.864.72-1.344 1.392-1.344s1.344.48 1.344 1.344v7.345h4.416c.864 0 1.344.72 1.344 1.344 0 .673-.48 1.393-1.344 1.393h-4.416v17.138c0 2.352.672 2.88 2.928 2.88h1.488c.864 0 1.344.72 1.344 1.393 0 .624-.48 1.344-1.344 1.344zm26.4-11.376h-19.922c.432 5.473 3.984 9.457 9.217 9.457 2.592 0 5.664-1.152 7.057-3.312.336-.528.72-.672 1.152-.672.72 0 1.487.576 1.487 1.296 0 .432 0 .528-.912 1.584-2.208 2.593-5.424 3.84-8.784 3.84-7.73 0-12.05-6.337-12.05-13.586 0-7.2 4.32-13.537 12.05-13.537s12.05 6.385 12.05 13.537c0 .72-.672 1.393-1.344 1.393zm-10.705-12.193c-5.76 0-8.785 4.417-9.217 9.457h18.48c-.432-5.473-3.984-9.457-9.265-9.457zm37.343 23.57c-.672 0-1.392-.48-1.392-1.344V269.78c0-4.56-3.648-8.2-8.2-8.2-4.513 0-8.2 3.648-8.2 8.2v14.018c0 .863-.72 1.344-1.344 1.344-.672 0-1.393-.48-1.393-1.344v-22.803c0-.863.72-1.344 1.393-1.344.624 0 1.344.48 1.344 1.344v1.536c2.16-2.352 4.992-3.696 8.2-3.696 5.952 0 10.944 4.944 10.944 10.945v14.018c0 .863-.72 1.344-1.344 1.344zm15.552 0h-1.5c-3.792 0-5.664-1.872-5.664-5.616v-17.138h-2.448c-.864 0-1.345-.72-1.345-1.393 0-.624.48-1.344 1.345-1.344h2.448v-7.345c0-.864.72-1.344 1.392-1.344s1.344.48 1.344 1.344v7.345h4.417c.864 0 1.344.72 1.344 1.344 0 .673-.48 1.393-1.344 1.393h-4.417v17.138c0 2.352.673 2.88 2.93 2.88h1.488c.864 0 1.344.72 1.344 1.393 0 .624-.48 1.344-1.344 1.344zm6.143-30.097c-1.536 0-2.736-1.2-2.736-2.736s1.2-2.736 2.736-2.736 2.736 1.2 2.736 2.736-1.2 2.736-2.736 2.736zm0 30.1c-.672 0-1.393-.432-1.393-1.344v-22.803c0-.863.672-1.344 1.393-1.344.624 0 1.344.432 1.344 1.344V283.8c0 .863-.624 1.344-1.344 1.344zm32.267-.003h-.048c-1.585 0-3.84-.864-4.753-3.744-2.016 2.832-5.137 4.56-9.312 4.56-7.825 0-12.05-6.433-12.05-13.586 0-7.248 4.32-13.537 12.05-13.537 4.176 0 7.297 1.73 9.313 4.513v-2.353c0-.768.624-1.344 1.393-1.344.672 0 1.344.48 1.344 1.344v19.346c0 3.072 3.456 1.152 3.456 3.457 0 .624-.432 1.344-1.392 1.344zm-14.113-23.57c-5.665 0-9.312 4.56-9.312 10.8s3.647 10.85 9.313 10.85c5.712 0 9.313-4.608 9.313-10.85s-3.6-10.8-9.312-10.8zm23.653 23.86c-2.593 0-4.753-2.4-4.753-5.1v-28.034c0-.864.72-1.344 1.393-1.344.624 0 1.344.48 1.344 1.344v28.034c0 3.072 3.408 1.297 3.408 3.457 0 .815-.576 1.632-1.392 1.632zM853.567 968.8c-4.248 0-6.264-3.96-6.264-13.354s2.016-13.354 6.264-13.354 6.263 3.96 6.263 13.354-2.016 13.354-6.263 13.354zm0-24.55c-2.376 0-3.672 2.663-3.672 11.194s1.296 11.194 3.672 11.194 3.67-2.664 3.67-11.194-1.296-11.194-3.67-11.194zm10.62 20.807v3.384h-3.023v-3.384h3.023zm4.715-2.664c.216 1.87 1.008 4.247 3.312 4.247 2.23 0 3.888-2.304 3.888-6.803 0-4.86-1.656-6.37-3.563-6.37-1.477 0-2.844 1.115-3.276 2.52l-2.016-.36.864-13.174h9.143l-.216 2.16h-6.84l-.504 7.92c.9-.756 2.123-1.224 3.455-1.224 3.023 0 5.544 2.808 5.544 8.46 0 5.94-2.88 9.035-6.336 9.035-3.743 0-5.615-2.808-5.83-6.2l2.376-.216zm14.978-13.515c-1.857 0-3.373-1.657-3.373-3.692s1.516-3.672 3.373-3.672c1.836 0 3.352 1.637 3.352 3.672s-1.516 3.692-3.352 3.692zm0-6.2c-1.067 0-2.156.986-2.156 2.497s1.1 2.497 2.156 2.497 2.135-.986 2.135-2.497-1.067-2.497-2.135-2.497zm8.07-.776l-4.077 14.478c-.106.293-.277.44-.534.44-.32 0-.66-.252-.66-.608 0-.063 0-.126.02-.168l4.077-14.477c.106-.315.3-.462.555-.462.3 0 .64.272.64.63 0 .042 0 .084-.02.168zm2.647 14.54c-1.836 0-3.352-1.657-3.352-3.692 0-2.015 1.516-3.672 3.352-3.672 1.856 0 3.372 1.657 3.372 3.672 0 2.035-1.516 3.692-3.372 3.692zm0-6.168c-1.067 0-2.135.985-2.135 2.476 0 1.5 1.067 2.496 2.135 2.496 1.088 0 2.155-.985 2.155-2.496 0-1.5-1.067-2.476-2.155-2.476z"/></g><g opacity=".5" fill="#fff"><path d="M42.328 1046.045c-3.568 0-5.47-1.97-5.503-2.002 0 .935-.7 1.4-1.468 1.4-.7 0-1.4-.467-1.4-1.4v-20.88a1.35 1.35 0 0 1 1.401-1.434c.767 0 1.468.467 1.468 1.4v6.238c1.334-1.368 3.168-2.17 5.503-2.17 5.37 0 8.373 4.403 8.373 9.406 0 5.037-3.002 9.44-8.373 9.44zm0-16c-3.335 0-5.503 2.602-5.503 6.57 0 4.003 2.168 6.604 5.503 6.604s5.504-2.602 5.504-6.604c0-3.97-2.168-6.57-5.504-6.57zm25.555 8.037h-12.34c.467 3.136 2.468 5.137 5.403 5.137 1.5 0 3.002-.533 3.97-1.734.3-.333.634-.533 1.034-.533.734 0 1.5.667 1.5 1.468 0 .4-.1.7-.8 1.4-1.5 1.468-3.57 2.235-5.704 2.235-5.37 0-8.372-4.437-8.372-9.44 0-4.97 3.002-9.406 8.372-9.406 5.437 0 8.34 4.437 8.34 9.406 0 .734-.534 1.468-1.4 1.468zm-6.937-8.038c-3.136 0-4.97 2.3-5.403 5.17H66.35c-.467-3.202-2.468-5.17-5.403-5.17zM88 1045.478c-1.834 0-2.668-1.3-2.97-1.9-1.334 1.468-3.27 2.47-5.87 2.47-5.437 0-8.372-4.47-8.372-9.44s3.002-9.406 8.372-9.406c2.335 0 4.203.834 5.504 2.202v-.134c0-.367.133-1.5 1.4-1.5.7 0 1.468.367 1.468 1.4v12.875c0 .434.3.6.467.6.935 0 1.435.667 1.435 1.434a1.37 1.37 0 0 1-1.435 1.401zm-8.84-15.443c-3.336 0-5.504 2.602-5.504 6.57 0 4.003 2.168 6.604 5.504 6.604 3.37 0 5.504-2.602 5.504-6.604 0-3.97-2.135-6.57-5.504-6.57z"/><use xlink:href="#V"/><path d="M115.158 1045.478h-.567c-3.17 0-4.37-1.668-4.37-4.403V1030.6h-1c-.8 0-1.435-.634-1.435-1.4 0-.8.634-1.435 1.4-1.435h1v-4.637c0-.934.7-1.4 1.435-1.4s1.4.467 1.4 1.4v4.637h2.135c.934 0 1.4.768 1.4 1.4 0 .8-.533 1.434-1.4 1.434h-2.135v10.774c0 .934.333 1.268 1.268 1.268h.833c.868 0 1.435.634 1.435 1.4 0 .8-.533 1.435-1.4 1.435zm4.604-20.415a2.402 2.402 0 1 1 0-4.803 2.402 2.402 0 1 1 0 4.803zm0 20.414c-.733 0-1.467-.5-1.467-1.4V1029.2c0-.935.733-1.435 1.467-1.435a1.37 1.37 0 0 1 1.401 1.435v14.876c0 .935-.7 1.4-1.4 1.4zm10.376-14.877h-1.5v13.442c0 .935-.7 1.4-1.468 1.4-.7 0-1.4-.467-1.4-1.4V1030.6h-1.37c-.9 0-1.4-.667-1.4-1.4 0-.768.5-1.435 1.4-1.435h1.367v-2.27c0-2.135 1.77-3.77 3.836-3.77.968 0 1.468.667 1.468 1.434 0 .7-.5 1.4-1.468 1.4-.566 0-.967.434-.967.9v2.302h1.5c.967 0 1.468.667 1.468 1.435 0 .733-.5 1.4-1.468 1.4z"/><use xlink:href="#V" x="42.068"/><path d="M154.725 1045.544c-1.802 0-3.336-1.534-3.336-3.402v-18.98c0-.967.7-1.434 1.435-1.434s1.435.467 1.435 1.4v19.013c0 .4.3.567.467.567.934 0 1.435.667 1.435 1.435 0 .733-.5 1.4-1.435 1.4zm15.37-.066v-1.264c1.886-.237 2.046-.437 2.046-3.157v-6.7c0-2.8-1.248-4.017-3.064-4.017-1.237 0-2.345.6-3.47 1.493v9.476c0 2.527.187 2.658 2.06 2.896v1.264h-8.968v-1.264c2.254-.33 2.5-.4 2.5-3v-8.2c0-2.446-.303-2.565-2.185-2.922v-1.184c2.173-.292 4.63-.807 6.653-1.533l-.052 2.95 2.6-1.745c1.16-.713 2-1.086 3.16-1.086 3.194 0 5.2 2.338 5.2 6.3v7.5c0 2.54.237 2.657 2.277 2.92v1.264h-8.74zm23.9-3.703c-2.458 3.427-5.488 4.178-7.014 4.178-5.142 0-8.124-3.936-8.124-8.594 0-2.745 1.183-5.396 2.832-7.062 1.74-1.8 3.945-2.814 6.082-2.814 3.73 0 6.396 3.126 6.37 6.347-.014.715-.08 1.277-.612 1.4-.767.184-6.17.5-10.318.647.062 4.587 2.717 6.74 5.556 6.74 1.572 0 3.104-.597 4.543-1.866l.686 1.014zm-7.07-12.7c-1.667 0-3.167 1.807-3.516 4.963l5.486-.118c.6-.026.848-.146.848-.792.04-2.022-1.037-4.053-2.818-4.053zm34.284.145c-1.943.343-2.248.624-3.105 2.765-1.33 3.462-3.102 8.53-4.934 13.94h-1.512l-4.65-11.46-4.55 11.46h-1.472l-4.685-14.192c-.687-1.985-.94-2.274-2.855-2.512v-1.25h9.397v1.25c-2.325.345-2.535.672-2.058 2.133l2.52 8.214c1.507-3.68 2.988-7.62 4.327-11.424h1.456c1.4 3.76 2.986 7.702 4.573 11.568.742-2.107 2.062-5.964 2.557-8.108.412-1.674-.008-2.078-2.753-2.383v-1.25h7.742v1.25zm9.4 3.746c-.92-2.606-2.155-3.984-4.2-3.984-1.206 0-2.225.86-2.225 2.266 0 1.497 1.046 2.264 3.16 3.216 3.278 1.496 5.3 2.787 5.3 5.736 0 3.85-3.6 5.764-6.945 5.764-2.06 0-4.088-.737-4.92-1.16l-.662-4.892 1.252-.224c.8 2.5 2.33 4.75 4.976 4.75 1.505 0 2.438-.952 2.438-2.28 0-1.423-.76-2.333-3.092-3.467-2.67-1.295-5.107-2.64-5.107-5.775 0-3.046 2.533-5.42 6.565-5.42 1.818 0 3.242.396 4.112.567l.62 4.577-1.25.328z"/></g><g opacity=".5" fill="#fff"><use xlink:href="#W"/><use xlink:href="#X"/><path d="M738.646 1045.978c-.28 0-.58-.2-.58-.56v-.64c-.84.98-2.06 1.54-3.42 1.54-2.48 0-4.56-2.08-4.56-4.56v-5.842c0-.36.3-.56.58-.56.26 0 .56.2.56.56v5.842c0 1.9 1.52 3.42 3.42 3.42s3.42-1.52 3.42-3.42v-5.842c0-.36.3-.56.58-.56.26 0 .56.2.56.56v9.502c0 .36-.3.56-.56.56z"/><use xlink:href="#Y"/><path d="M756.786 1044.797c-.88.98-2.1 1.52-3.58 1.52-3.22 0-5.02-2.64-5.02-5.66 0-3 1.8-5.64 5.02-5.64 1.48 0 2.7.54 3.58 1.52a.53.53 0 0 1 .16.381.63.63 0 0 1-.58.6c-.14 0-.28-.06-.42-.2-.66-.74-1.58-1.16-2.74-1.16-2.36 0-3.88 1.9-3.88 4.5s1.52 4.52 3.88 4.52c1.16 0 2.08-.44 2.74-1.16.14-.14.28-.2.42-.2.3 0 .58.26.58.58a.57.57 0 0 1-.16.399z"/><use xlink:href="#Z"/><path d="M772.345 1039.417c-.64 0-1.16-.5-1.16-1.14s.52-1.14 1.16-1.14c.62 0 1.12.5 1.12 1.14s-.5 1.14-1.12 1.14zm0 6.562c-.64 0-1.16-.5-1.16-1.14s.52-1.14 1.16-1.14c.62 0 1.12.5 1.12 1.14s-.5 1.14-1.12 1.14zm12.88.34c-1.54 0-3.64-.62-4.78-1.76a.52.52 0 0 1-.18-.4.61.61 0 0 1 .58-.58c.24 0 .22.06.64.38 1.06.78 2.38 1.22 3.74 1.22 2.52 0 3.98-.94 3.98-2.74 0-4.74-8.462-2.1-8.462-7.562 0-2.4 2.1-3.5 4.68-3.5 1.44 0 3.46.62 4.36 1.88.08.12.12.22.12.34 0 .32-.28.56-.6.56-.28 0-.28-.08-.62-.42-.84-.84-2.08-1.22-3.26-1.22-2.38 0-3.54.92-3.54 2.36 0 4.3 8.462 1.8 8.462 7.562 0 2.78-2.44 3.88-5.12 3.88z"/><use xlink:href="#a"/><use xlink:href="#b"/><path d="M825.986 1045.978c-.28 0-.58-.2-.58-.56v-1c-.84 1.18-2.14 1.9-3.88 1.9-3.22 0-5.02-2.64-5.02-5.66 0-3 1.8-5.64 5.02-5.64 1.74 0 3.04.72 3.88 1.88v-4.6c0-.36.3-.56.58-.56.26 0 .56.2.56.56v13.122c0 .36-.3.56-.56.56zm-4.46-9.822c-2.36 0-3.88 1.9-3.88 4.5s1.52 4.52 3.88 4.52c2.38 0 3.88-1.92 3.88-4.52s-1.5-4.5-3.88-4.5z"/><use xlink:href="#c"/><use xlink:href="#a" x="41.02"/><path d="M860.546 1045.998c-.18 0-.34-.12-.48-.32l-7.82-11.543v11.282c0 .36-.3.56-.56.56-.28 0-.58-.2-.58-.56v-13.122c0-.34.3-.6.6-.6.18 0 .34.12.48.32l7.822 11.542v-11.262c0-.36.3-.56.56-.56.28 0 .58.2.58.56v13.122c0 .34-.3.58-.6.58z"/><use xlink:href="#a" x="71.64"/><use xlink:href="#d"/><use xlink:href="#c" x="53.478"/><use xlink:href="#X" x="168.538"/><use xlink:href="#b" x="93.619"/><use xlink:href="#a" x="118.239"/><path d="M925.403 1046.098c-1.08 0-1.98-1-1.98-2.12v-11.683c0-.36.3-.56.58-.56.26 0 .56.2.56.56v11.683c0 1.28 1.42.54 1.42 1.44 0 .34-.24.68-.58.68zm14.54-.12h-6.66c-.3 0-.58-.28-.58-.56v-13.122c0-.36.28-.56.58-.56.26 0 .56.18.56.56v12.542h6.1c.36 0 .56.3.56.58 0 .26-.2.56-.56.56z"/><use xlink:href="#a" x="149.979"/><path d="M960.184 1046.318c-1.74 0-3.04-.72-3.88-1.9v1c0 .36-.3.56-.56.56-.28 0-.58-.2-.58-.56v-13.122c0-.36.3-.56.58-.56.26 0 .56.2.56.56v4.6c.84-1.16 2.14-1.88 3.88-1.88 3.22 0 5.02 2.64 5.02 5.64 0 3.02-1.8 5.66-5.02 5.66zm0-10.162c-2.38 0-3.88 1.9-3.88 4.5s1.5 4.52 3.88 4.52 3.88-1.92 3.88-4.52-1.5-4.5-3.88-4.5z"/><use xlink:href="#X" x="249.278"/><use xlink:href="#Y" x="237.498"/><use xlink:href="#a" x="193.334"/><use xlink:href="#d" x="121.694"/><use xlink:href="#X" x="286.252"/><use xlink:href="#Y" x="274.473"/><use xlink:href="#c" x="193.731"/><use xlink:href="#Z" x="267.751"/><use xlink:href="#W" x="330.25"/></g><g fill="#fff"><path d="M62.02 42.38h-9.96v35.1c0 1.62-1.2 2.52-2.52 2.52-1.26 0-2.58-.9-2.58-2.52v-35.1h-9.84c-1.74 0-2.64-1.32-2.64-2.58 0-1.2.9-2.52 2.58-2.52h24.96c1.68 0 2.58 1.32 2.58 2.52 0 1.26-.9 2.58-2.58 2.58zM92.018 80c-1.32 0-2.52-.9-2.52-2.52V60.8c0-4.68-3.9-8.58-8.58-8.58-4.62 0-8.52 3.9-8.52 8.58v16.62c0 1.68-1.26 2.64-2.64 2.64-1.26 0-2.52-.9-2.52-2.58V39.862c0-1.74 1.26-2.58 2.52-2.58 1.38 0 2.64.84 2.64 2.52v10.38c2.22-2.1 5.22-3.06 8.52-3.06 7.44 0 13.68 6.18 13.68 13.68v16.62c0 1.68-1.2 2.58-2.58 2.58z"/><use xlink:href="#e"/><use xlink:href="#f"/><use xlink:href="#g"/><use xlink:href="#h"/><use xlink:href="#e" x="125.997"/><use xlink:href="#i"/><use xlink:href="#h" x="80.879"/><use xlink:href="#j"/><use xlink:href="#k"/><use xlink:href="#l"/><use xlink:href="#g" x="200.814"/><path d="M422.3 53.242h-2.7v24.18c0 1.68-1.26 2.52-2.64 2.52-1.26 0-2.52-.84-2.52-2.52v-24.18H412c-1.62 0-2.52-1.2-2.52-2.52 0-1.38.9-2.58 2.52-2.58h2.46v-4.08c0-3.84 3.18-6.78 6.9-6.78 1.74 0 2.64 1.2 2.64 2.58 0 1.26-.9 2.52-2.64 2.52-1.02 0-1.74.78-1.74 1.62v4.14h2.7c1.74 0 2.64 1.2 2.64 2.58 0 1.32-.9 2.52-2.64 2.52zm30.6 27.778c-4.38 0-10.5-1.8-13.92-4.98-.66-.6-.84-1.26-.84-1.86a2.6 2.6 0 0 1 2.58-2.579c.9 0 1.2.3 2.28 1.14 2.94 2.22 6.42 3.18 9.9 3.18 7.14 0 10.26-2.58 10.26-7.02 0-12.48-23.94-5.4-23.94-21.72 0-7.32 6.18-10.98 14.1-10.98 4.14 0 10.08 1.62 13.02 5.1.48.54.66 1.08.66 1.62 0 1.44-1.32 2.7-2.58 2.7-.9 0-1.38-.42-2.4-1.32-2.4-2.04-5.46-2.94-8.7-2.94-6.48 0-8.94 2.58-8.94 5.82 0 11.22 23.94 4.56 23.94 21.72 0 8.94-7.5 12.12-15.42 12.12z"/><use xlink:href="#g" x="295.324"/><use xlink:href="#l" x="152.277"/><use xlink:href="#k" x="199.378"/><use xlink:href="#m"/><use xlink:href="#f" x="439.55"/><use xlink:href="#g" x="439.552"/><path d="M689.966 51.56l-9.3 26.34c-.48 1.32-1.32 2.1-2.64 2.1-1.26 0-1.98-.54-2.52-2.1l-7.02-19.8-7.08 19.8c-.48 1.44-1.32 2.1-2.58 2.1-1.2 0-2.04-.66-2.52-2.1l-9.24-26.34c-.12-.36-.12-.6-.12-.96 0-1.5 1.38-2.46 2.64-2.46.96 0 1.92.48 2.34 1.68l6.96 20.04 7.08-19.62c.48-1.38 1.08-2.1 2.52-2.1 1.32 0 2.04.66 2.52 2.1l7.02 19.62 7.02-20.04c.42-1.2 1.38-1.68 2.28-1.68 1.38 0 2.76 1.02 2.76 2.52 0 .3 0 .54-.12.9zm28.26 15.12h-22.2c.84 5.64 4.44 9.24 9.72 9.24 2.7 0 5.4-.96 7.14-3.12.54-.6 1.14-.96 1.86-.96 1.32 0 2.7 1.2 2.7 2.64 0 .72-.18 1.26-1.44 2.52-2.7 2.64-6.42 4.02-10.26 4.02-9.66 0-15.06-7.98-15.06-16.98 0-8.94 5.4-16.92 15.06-16.92 9.78 0 15 7.98 15 16.92 0 1.32-.96 2.64-2.52 2.64zm-12.48-14.46c-5.64 0-8.94 4.14-9.72 9.3h19.438c-.84-5.76-4.44-9.3-9.72-9.3z"/><use xlink:href="#m" x="169.736"/><path d="M762.626 80h-6.9c-1.62 0-2.52-1.26-2.52-2.52 0-1.38.9-2.58 2.52-2.58h.9V42.38h-.9c-1.62 0-2.52-1.26-2.52-2.52 0-1.38.9-2.58 2.52-2.58h6.9c1.74 0 2.64 1.2 2.64 2.58 0 1.26-.9 2.52-2.64 2.52h-.9V74.9h.9c1.74 0 2.64 1.2 2.64 2.58 0 1.26-.9 2.52-2.64 2.52zm18.12 1.02c-3.3 0-8.82-1.02-11.64-4.5-.36-.54-.54-1.08-.54-1.56 0-1.5 1.44-2.7 2.7-2.7.72 0 1.26.36 1.86 1.02 1.86 2.04 4.92 2.64 7.62 2.64 5.4 0 7.14-1.86 7.14-4.56 0-7.68-18.3-2.94-18.3-15.3 0-6.54 6.12-8.94 11.82-8.94 3.24 0 10.86 1.62 10.86 4.98 0 1.32-1.08 2.7-2.52 2.7-.54 0-1.38-.3-1.98-.78-1.62-1.38-3.96-1.8-6.36-1.8-4.98 0-6.72 1.86-6.72 3.84 0 7.14 18.36 2.52 18.36 15.3 0 7.08-5.94 9.66-12.3 9.66zm59.04-1.02c-.9 0-1.8-.48-2.28-1.56l-3.18-7.8h-19.98l-3.24 7.8c-.48 1.08-1.38 1.56-2.22 1.56-1.32 0-2.7-1.02-2.7-2.52 0-.36.06-.72.24-1.02l15.42-37.498c.72-1.56 1.68-1.86 2.46-1.86.54 0 1.86.3 2.46 1.86l15.48 37.498a2.8 2.8 0 0 1 .18 1.02c0 1.5-1.26 2.52-2.64 2.52zm-15.48-33.6l-7.86 19.08h15.72l-7.86-19.08zm60.36 33.6c-1.26 0-2.52-.9-2.52-2.52V58.582c0-3.48-2.88-6.36-6.3-6.36-3.54 0-6.36 2.88-6.36 6.3v18.9c0 1.68-1.2 2.58-2.58 2.58-1.32 0-2.52-.9-2.52-2.52v-18.9c0-3.48-2.88-6.36-6.36-6.36s-6.36 2.88-6.36 6.3v18.9c0 1.68-1.26 2.58-2.64 2.58-1.26 0-2.52-.9-2.52-2.52v-26.82c0-1.74 1.32-2.58 2.64-2.58.84 0 1.68.36 2.16 1.14a11.56 11.56 0 0 1 6.66-2.1c3.6 0 6.84 1.62 8.94 4.26 2.1-2.64 5.28-4.26 8.88-4.26 6.36 0 11.52 5.1 11.52 11.4v18.9c0 1.68-1.26 2.58-2.64 2.58z"/><use xlink:href="#k" x="573.953"/><path d="M952.885 80h-21.48c-2.88 0-2.94-1.98-2.94-2.88 0-.36.18-.9.54-1.32l18.42-22.56h-16.44c-1.74 0-2.58-1.2-2.58-2.52 0-1.38.84-2.58 2.52-2.58h21.898c1.62 0 2.52 1.14 2.52 2.4 0 .6-.24 1.2-.66 1.74l-18.3 22.62h16.44c1.68 0 2.58 1.2 2.58 2.58 0 1.26-.9 2.52-2.52 2.52z"/><use xlink:href="#j" x="650.571"/><use xlink:href="#i" x="710.329"/><path d="M1016.604 93.68c-3.66 0-12.72-1.32-12.72-4.92 0-1.38 1.26-2.7 2.58-2.7 1.38 0 .18.18 3.36 1.38 1.44.54 3.6 1.14 6.78 1.14 6.66 0 9.9-3.18 9.9-9.48v-2.7c-2.34 2.22-5.7 3.6-9.9 3.6-9.48 0-15.06-6.72-15.06-15.96 0-9 5.4-16.92 15.06-16.92 4.2 0 7.44 1.26 9.9 3.84v-.24c0-1.68 1.38-2.58 2.58-2.58 1.26 0 2.58.9 2.58 2.58V79.1c0 9.54-5.7 14.58-15.06 14.58zm0-41.46c-6 0-9.9 4.68-9.9 11.82 0 6.84 3.6 10.86 9.9 10.86s9.9-4.02 9.9-10.86c0-7.14-3.84-11.82-9.9-11.82zm24.66 28.68a4.32 4.32 0 1 1 0-8.64 4.32 4.32 0 1 1 0 8.64zm-.12-12.84c-1.32 0-2.64-.9-2.64-2.58v-26.7c0-1.68 1.32-2.58 2.64-2.58 1.26 0 2.58.9 2.58 2.58v26.7c0 1.68-1.32 2.58-2.58 2.58z"/></g><defs ><path id="C" d="M71.845 641.894c.545-5.78 3.672-10.47 9.995-10.47 5.508 0 10.947 3.807 10.947 11.967 0 6.935-2.855 10.88-6.392 11.56v.136c5.508 1.836 7.207 7.003 7.207 12.24 0 10.063-5.847 14.55-11.967 14.55-6.527 0-10.946-5.235-11.015-12.374h4.487c.408 5.303 2.72 8.295 7.072 8.295 3.264 0 6.527-3.536 6.527-10.268 0-8.09-3.4-10.402-11.15-10.402v-4.08c7.343 0 10.335-1.768 10.335-9.383 0-5.848-2.312-8.16-5.71-8.16-4.216 0-5.712 3.536-5.848 6.936l-4.488-.544z"/><path id="D" d="M150.178 681.874c-8.023 0-11.83-7.48-11.83-25.226s3.808-25.225 11.83-25.225 11.83 7.48 11.83 25.225-3.81 25.226-11.83 25.226zm0-46.37c-4.487 0-6.936 5.03-6.936 21.146s2.448 21.146 6.936 21.146 6.935-5.03 6.935-21.146-2.447-21.146-6.935-21.146z"/><path id="E" d="M177.65 681.874c-8.023 0-11.83-7.48-11.83-25.226s3.808-25.225 11.83-25.225 11.83 7.48 11.83 25.225-3.807 25.226-11.83 25.226zm0-46.37c-4.488 0-6.936 5.03-6.936 21.146s2.447 21.146 6.936 21.146 6.936-5.03 6.936-21.146-2.448-21.146-6.936-21.146z"/><path id="F" d="M83.382 727.195c-.53 0-1.102-.38-1.102-1.063v-1.216c-1.596 1.86-3.913 2.925-6.497 2.925-4.71 0-8.663-3.95-8.663-8.662v-11.095c0-.684.57-1.063 1.103-1.063.493 0 1.063.38 1.063 1.063v11.095a6.47 6.47 0 1 0 12.994 0v-11.095c0-.684.57-1.063 1.102-1.063.494 0 1.064.38 1.064 1.063v18.048c0 .684-.57 1.063-1.064 1.063z"/><path id="G" d="M159.116 727.195c-.53 0-1.102-.38-1.102-1.063v-11.095a6.47 6.47 0 0 0-6.497-6.497c-3.57 0-6.497 2.888-6.497 6.497v11.095c0 .684-.57 1.063-1.063 1.063-.532 0-1.103-.38-1.103-1.063v-18.048c0-.684.57-1.063 1.103-1.063.494 0 1.063.38 1.063 1.063v1.216c1.7-1.86 3.95-2.926 6.497-2.926 4.71 0 8.663 3.914 8.663 8.663v11.095c0 .684-.57 1.063-1.064 1.063z"/><path id="H" d="M165.58 703.373a2.14 2.14 0 1 1 0-4.332 2.14 2.14 0 1 1 0 4.332zm0 23.822c-.532 0-1.103-.342-1.103-1.063v-18.048c0-.684.532-1.063 1.103-1.063.494 0 1.063.342 1.063 1.063v18.048c0 .684-.494 1.063-1.063 1.063z"/><path id="I" d="M178.232 727.195h-1.178c-3 0-4.483-1.48-4.483-4.445v-13.564h-1.937c-.684 0-1.063-.57-1.063-1.102 0-.494.38-1.063 1.063-1.063h1.938v-5.813c0-.684.57-1.063 1.103-1.063s1.063.38 1.063 1.063v5.813h3.495c.685 0 1.064.57 1.064 1.063 0 .532-.38 1.102-1.064 1.102h-3.495v13.564c0 1.86.532 2.28 2.317 2.28h1.178c.685 0 1.064.57 1.064 1.103 0 .493-.38 1.063-1.064 1.063z"/><path id="J" d="M198.37 708.54l-10.297 24.354c-.76 1.786-2.317 2.28-4.065 2.28h-1.67c-.685 0-1.064-.57-1.064-1.102 0-.494.38-1.063 1.064-1.063h1.67c.836 0 1.7-.038 2.052-.912l2.166-5.167-7.864-18.4c-.076-.19-.076-.342-.076-.494 0-.607.53-1.025 1.102-1.025.342 0 .76.15.95.646l7.066 16.49 6.99-16.49c.19-.494.607-.646.988-.646.57 0 1.063.418 1.063 1.025 0 .152 0 .305-.076.494z"/><path id="K" d="M304.277 708.88c-3.57 0-6.497 2.888-6.497 6.497v10.753c0 .684-.57 1.063-1.063 1.063-.532 0-1.103-.38-1.103-1.063v-18.048c0-.684.57-1.063 1.103-1.063.494 0 1.063.38 1.063 1.063v1.558c1.7-1.86 3.95-2.925 6.497-2.925.684 0 1.102.57 1.102 1.063 0 .532-.418 1.102-1.102 1.102z"/><path id="L" d="M110.703 760.553c-1.672 1.86-3.99 2.887-6.8 2.887-6.117 0-9.536-5.015-9.536-10.752 0-5.7 3.42-10.715 9.536-10.715 2.812 0 5.13 1.026 6.8 2.888.23.23.305.494.305.722 0 .57-.532 1.14-1.103 1.14-.266 0-.53-.114-.798-.38-1.254-1.406-3-2.204-5.205-2.204-4.483 0-7.37 3.61-7.37 8.55s2.888 8.587 7.37 8.587c2.204 0 3.95-.836 5.205-2.204.267-.266.532-.38.798-.38a1.13 1.13 0 0 1 1.103 1.102c0 .267-.076.494-.305.76z"/><path id="M" d="M138.407 738.972a2.14 2.14 0 1 1 0-4.332 2.14 2.14 0 0 1 0 4.332zm0 23.822c-.532 0-1.103-.342-1.103-1.063v-18.048c0-.684.532-1.063 1.103-1.063.494 0 1.063.342 1.063 1.063v18.048c0 .684-.494 1.063-1.063 1.063z"/><path id="N" d="M1000.84 910.465c-.462 0-.957-.33-.957-.924v-1.057c-1.386 1.617-3.4 2.542-5.644 2.542-4.093 0-7.525-3.433-7.525-7.525v-9.638c0-.594.495-.924.957-.924.43 0 .925.33.925.924v9.638a5.62 5.62 0 1 0 11.287 0v-9.638c0-.594.495-.924.957-.924.43 0 .925.33.925.924v15.678c0 .594-.495.924-.925.924z"/><path id="O" d="M1020.575 910.465c-.463 0-.958-.33-.958-.924v-9.638a5.62 5.62 0 0 0-5.644-5.644 5.64 5.64 0 0 0-5.644 5.644v9.638c0 .594-.495.924-.924.924-.463 0-.957-.33-.957-.924v-15.678c0-.594.494-.924.957-.924.43 0 .924.33.924.924v1.057c1.485-1.617 3.433-2.542 5.644-2.542 4.093 0 7.525 3.4 7.525 7.525v9.638c0 .594-.495.924-.924.924z"/><path id="P" d="M963.88 945.683a5.64 5.64 0 0 0-5.644 5.644v9.34c0 .594-.495.924-.924.924-.463 0-.957-.33-.957-.924V945c0-.594.494-.924.957-.924.43 0 .924.33.924.924v1.354c1.485-1.617 3.433-2.542 5.644-2.542a.95.95 0 0 1 .957.925c0 .462-.362.957-.957.957z"/><path id="Q" d="M100.337 226.042c-10.62 0-15.66-9.9-15.66-33.39s5.04-33.39 15.66-33.39 15.66 9.9 15.66 33.39-5.04 33.39-15.66 33.39zm0-61.378c-5.94 0-9.18 6.66-9.18 27.99s3.24 27.988 9.18 27.988 9.18-6.66 9.18-27.988-3.24-27.99-9.18-27.99z"/><path id="R" d="M599.78 225.14h-.036c-1.187 0-2.88-.647-3.563-2.808-1.512 2.124-3.852 3.42-6.983 3.42-5.867 0-9.035-4.824-9.035-10.187 0-5.435 3.24-10.15 9.035-10.15 3.132 0 5.472 1.296 6.983 3.384v-1.764c0-.576.468-1.008 1.044-1.008.504 0 1.008.36 1.008 1.008v14.506c0 2.304 2.592.864 2.592 2.592 0 .468-.324 1.008-1.044 1.008zm-10.583-17.674c-4.247 0-6.983 3.42-6.983 8.1s2.736 8.136 6.983 8.136c4.283 0 6.983-3.456 6.983-8.136s-2.7-8.1-6.983-8.1z"/><path id="S" d="M84.705 285.43c-2.592 0-4.752-2.4-4.752-5.09v-28.034c0-.864.72-1.344 1.392-1.344.625 0 1.344.48 1.344 1.344v28.034c0 3.072 3.408 1.297 3.408 3.457 0 .815-.576 1.632-1.392 1.632z"/><path id="T" d="M100.45 285.958c-7.73 0-12.05-6.337-12.05-13.586 0-7.2 4.32-13.537 12.05-13.537s12.05 6.337 12.05 13.537c0 7.25-4.32 13.586-12.05 13.586zm0-24.387c-5.665 0-9.313 4.56-9.313 10.8s3.648 10.85 9.313 10.85c5.712 0 9.313-4.608 9.313-10.85s-3.6-10.8-9.312-10.8z"/><path id="U" d="M171.152 285.14h-.048c-1.584 0-3.84-.864-4.752-3.744-2.016 2.832-5.136 4.56-9.312 4.56-7.825 0-12.05-6.433-12.05-13.586 0-7.248 4.32-13.537 12.05-13.537 4.176 0 7.296 1.73 9.313 4.513v-2.353c0-.768.624-1.344 1.392-1.344.672 0 1.344.48 1.344 1.344v19.346c0 3.072 3.457 1.152 3.457 3.457 0 .624-.432 1.344-1.392 1.344zm-14.113-23.57c-5.665 0-9.313 4.56-9.313 10.8s3.648 10.85 9.313 10.85c5.712 0 9.313-4.608 9.313-10.85s-3.6-10.8-9.312-10.8z"/><path id="V" d="M104.714 1045.51c-.633 0-1.267-.367-1.4-1.1-1.334 1.034-2.97 1.668-4.804 1.668-4.136 0-7.604-3.436-7.604-7.605v-9.24a1.37 1.37 0 0 1 1.4-1.435c.768 0 1.468.5 1.468 1.4v9.272c0 2.602 2.168 4.77 4.736 4.77 2.603 0 4.77-2.17 4.77-4.77v-9.24c0-1.034.667-1.468 1.4-1.468.768 0 1.435.5 1.435 1.435v14.9c0 .934-.667 1.4-1.4 1.4z"/><path id="W" d="M712.146 1046.358c-1.2 0-3.22-.42-3.92-1.58-.08-.12-.08-.22-.08-.3 0-.32.28-.6.58-.6.12 0 .32.1.44.28.72.88 2 1.06 2.98 1.06 1.94 0 2.92-.64 2.92-1.94 0-3.02-6.562-1.42-6.562-5.422 0-2.02 2.02-2.8 3.84-2.8 1.04 0 2.64.36 3.44 1.16.12.12.18.26.18.38a.65.65 0 0 1-.62.6.53.53 0 0 1-.38-.16c-.62-.6-1.74-.84-2.62-.84-1.76 0-2.7.68-2.7 1.66 0 2.8 6.562 1.32 6.562 5.422 0 2.28-2 3.08-4.06 3.08z"/><path id="X" d="M722.866 1046.318c-3.22 0-5.02-2.64-5.02-5.66 0-3 1.8-5.64 5.02-5.64s5.02 2.64 5.02 5.64c0 3.02-1.8 5.66-5.02 5.66zm0-10.162c-2.36 0-3.88 1.9-3.88 4.5s1.52 4.52 3.88 4.52c2.38 0 3.88-1.92 3.88-4.52s-1.5-4.5-3.88-4.5z"/><path id="Y" d="M746.605 1036.337a3.42 3.42 0 0 0-3.421 3.42v5.66c0 .36-.3.56-.56.56-.28 0-.58-.2-.58-.56v-9.502c0-.36.3-.56.58-.56.26 0 .56.2.56.56v.82c.9-.98 2.08-1.54 3.42-1.54.36 0 .58.3.58.56a.58.58 0 0 1-.58.581z"/><path id="Z" d="M768.367 1041.237h-8.302c.18 2.28 1.66 3.94 3.84 3.94 1.08 0 2.36-.48 2.94-1.38.14-.22.3-.28.48-.28.3 0 .62.24.62.54 0 .18 0 .22-.38.66-.92 1.08-2.26 1.6-3.66 1.6-3.22 0-5.02-2.64-5.02-5.66 0-3 1.8-5.64 5.02-5.64s5.02 2.66 5.02 5.64c0 .3-.28.58-.56.58zm-4.46-5.08c-2.4 0-3.66 1.84-3.84 3.94h7.7c-.18-2.28-1.66-3.94-3.86-3.94z"/><path id="a" d="M802.786 1045.978h-.02c-.66 0-1.6-.36-1.98-1.56-.84 1.18-2.14 1.9-3.88 1.9-3.26 0-5.02-2.68-5.02-5.66 0-3.02 1.8-5.64 5.02-5.64 1.74 0 3.04.72 3.88 1.88v-.98c0-.32.26-.56.58-.56.28 0 .56.2.56.56v8.063c0 1.28 1.44.48 1.44 1.44a.55.55 0 0 1-.58.561zm-5.88-9.822c-2.36 0-3.88 1.9-3.88 4.5s1.52 4.52 3.88 4.52c2.38 0 3.88-1.92 3.88-4.52s-1.5-4.5-3.88-4.5z"/><path id="b" d="M813.745 1045.978c-.28 0-.58-.2-.58-.56v-5.84c0-1.9-1.52-3.42-3.42-3.42a3.42 3.42 0 0 0-3.421 3.421v5.84c0 .36-.3.56-.56.56-.28 0-.58-.2-.58-.56v-9.502c0-.36.3-.56.58-.56.26 0 .56.2.56.56v.64c.9-.98 2.08-1.54 3.42-1.54a4.6 4.6 0 0 1 4.561 4.561v5.84c0 .36-.3.56-.56.56z"/><path id="c" d="M829.964 1033.435c-.64 0-1.14-.5-1.14-1.14s.5-1.14 1.14-1.14 1.14.5 1.14 1.14-.5 1.14-1.14 1.14zm0 12.543c-.28 0-.58-.18-.58-.56v-9.502c0-.36.28-.56.58-.56.26 0 .56.18.56.56v9.502c0 .36-.26.56-.56.56z"/><path id="d" d="M880.484 1045.978h-.62c-1.58 0-2.36-.78-2.36-2.34v-7.142h-1.02c-.36 0-.56-.3-.56-.58 0-.26.2-.56.56-.56h1.02v-3.06c0-.36.3-.56.58-.56s.56.2.56.56v3.06h1.84c.36 0 .56.3.56.56 0 .28-.2.58-.56.58h-1.84v7.142c0 .98.28 1.2 1.22 1.2h.62c.36 0 .56.3.56.58 0 .26-.2.56-.56.56z"/><path id="e" d="M126.578 66.68h-22.2c.84 5.64 4.44 9.24 9.72 9.24 2.7 0 5.4-.96 7.14-3.12.54-.6 1.14-.96 1.86-.96 1.32 0 2.7 1.2 2.7 2.64 0 .72-.18 1.26-1.44 2.52-2.7 2.64-6.42 4.02-10.26 4.02-9.66 0-15.06-7.98-15.06-16.98 0-8.94 5.4-16.92 15.06-16.92 9.78 0 15 7.98 15 16.92 0 1.32-.96 2.64-2.52 2.64zm-12.48-14.46c-5.64 0-8.94 4.14-9.72 9.3h19.44c-.84-5.76-4.44-9.3-9.72-9.3z"/><path id="f" d="M163.957 61.52h-12.84v15.9c0 1.56-1.2 2.58-2.52 2.58-1.44 0-2.64-.96-2.64-2.52V39.862c0-1.08.72-2.58 2.52-2.58h15.54c5.28 0 12.06 4.14 12.06 12.06 0 6.78-5.4 12.18-12.12 12.18zm0-19.14h-12.84v14.04h12.78a6.99 6.99 0 0 0 7.02-7.02c0-3.9-3.12-7.02-6.96-7.02z"/><path id="g" d="M191.676 81.02c-9.66 0-15.06-7.92-15.06-16.98 0-9 5.4-16.92 15.06-16.92s15.06 7.92 15.06 16.92c0 9.06-5.4 16.98-15.06 16.98zm0-28.8c-6 0-9.9 4.68-9.9 11.82 0 7.2 3.9 11.88 9.9 11.88 6.06 0 9.9-4.68 9.9-11.88 0-7.14-3.84-11.82-9.9-11.82z"/><path id="h" d="M220.656 80h-1.02c-5.7 0-7.86-3-7.86-7.92v-18.84h-1.8c-1.44 0-2.58-1.14-2.58-2.52 0-1.44 1.14-2.58 2.52-2.58h1.8v-8.34c0-1.68 1.26-2.52 2.58-2.52s2.52.84 2.52 2.52v8.34h3.84c1.68 0 2.52 1.38 2.52 2.52 0 1.44-.96 2.58-2.52 2.58h-3.84v19.38c0 1.68.6 2.28 2.28 2.28h1.5c1.56 0 2.58 1.14 2.58 2.52 0 1.44-.96 2.58-2.52 2.58z"/><path id="i" d="M284.194 80c-1.32 0-2.52-.9-2.52-2.52V60.8c0-4.68-3.9-8.58-8.58-8.58-4.62 0-8.52 3.9-8.52 8.58v16.62c0 1.68-1.26 2.64-2.64 2.64-1.26 0-2.52-.9-2.52-2.58V50.662c0-1.74 1.26-2.52 2.52-2.52 1.2 0 2.28.66 2.58 1.98 2.34-1.86 5.28-3 8.58-3 7.44 0 13.68 6.18 13.68 13.68v16.62c0 1.68-1.2 2.58-2.58 2.58z"/><path id="j" d="M311.254 43.282a4.3 4.3 0 1 1 0-8.64 4.3 4.3 0 1 1 0 8.64zm0 36.72c-1.32 0-2.64-.9-2.64-2.52V50.72c0-1.68 1.32-2.58 2.64-2.58 1.26 0 2.52.9 2.52 2.58v26.76c0 1.68-1.26 2.52-2.52 2.52z"/><path id="k" d="M348.752 80c-3.3 0-4.8-2.34-5.34-3.42-2.4 2.64-5.88 4.44-10.56 4.44-9.78 0-15.06-8.04-15.06-16.98s5.4-16.92 15.06-16.92c4.2 0 7.56 1.5 9.9 3.96v-.24c0-.66.24-2.7 2.52-2.7 1.26 0 2.64.66 2.64 2.52v23.16c0 .78.54 1.08.84 1.08 1.68 0 2.58 1.2 2.58 2.58 0 1.26-.9 2.52-2.58 2.52zm-15.9-27.78c-6 0-9.9 4.68-9.9 11.82 0 7.2 3.9 11.88 9.9 11.88 6.06 0 9.9-4.68 9.9-11.88 0-7.14-3.84-11.82-9.9-11.82z"/><path id="l" d="M360.393 80.12c-3.24 0-6-2.76-6-6.12v-34.14c0-1.74 1.26-2.58 2.58-2.58s2.58.84 2.58 2.52V74c0 .72.54 1.02.84 1.02 1.68 0 2.58 1.2 2.58 2.58 0 1.32-.9 2.52-2.58 2.52z"/><path id="m" d="M569.01 52.22c-4.62 0-8.52 3.9-8.52 8.58v16.62c0 1.68-1.26 2.58-2.64 2.58-1.26 0-2.52-.9-2.52-2.52V50.72c0-1.68 1.38-2.58 2.52-2.58 1.2 0 2.34.66 2.58 2.04 2.34-1.92 5.52-3.06 8.58-3.06 1.74 0 2.64 1.2 2.64 2.58 0 1.32-.9 2.52-2.64 2.52z"/></defs></svg>