<svg xmlns="http://www.w3.org/2000/svg" xmlns:xlink="http://www.w3.org/1999/xlink" viewBox="0 0 1080 1080"><style><![CDATA[.P{fill:#fff}.Q{opacity:.7}.R{opacity:.6}.S{stroke-miterlimit:10}.T{stroke-width:2}]]></style><linearGradient id="A" gradientUnits="userSpaceOnUse" x1="11.716" y1="11.716" x2="1068.284" y2="1068.284"><stop offset="0" stop-color="#0f2027"/><stop offset=".5" stop-color="#203a43"/><stop offset=".807" stop-color="#294c5b"/><stop offset="1" stop-color="#2c5364"/></linearGradient><path d="M1040 1080H40c-22.09 0-40-17.91-40-40V40C0 17.91 17.91 0 40 0h1000c22.09 0 40 17.91 40 40v1000c0 22.09-17.91 40-40 40z" fill="url(#A)"/><g class="P R"><path d="M42.328 1046.045c-3.568 0-5.47-1.97-5.503-2.002 0 .935-.7 1.4-1.468 1.4-.7 0-1.4-.467-1.4-1.4v-20.88a1.35 1.35 0 0 1 1.401-1.434c.767 0 1.468.467 1.468 1.4v6.238c1.334-1.368 3.168-2.17 5.503-2.17 5.37 0 8.373 4.403 8.373 9.406 0 5.037-3.002 9.44-8.373 9.44zm0-16c-3.335 0-5.503 2.602-5.503 6.57 0 4.003 2.168 6.604 5.503 6.604s5.504-2.602 5.504-6.604c0-3.97-2.168-6.57-5.504-6.57zm25.555 8.037h-12.34c.467 3.136 2.468 5.137 5.403 5.137 1.5 0 3.002-.533 3.97-1.734.3-.333.634-.533 1.034-.533.734 0 1.5.667 1.5 1.468 0 .4-.1.7-.8 1.4-1.5 1.468-3.57 2.235-5.704 2.235-5.37 0-8.372-4.437-8.372-9.44 0-4.97 3.002-9.406 8.372-9.406 5.437 0 8.34 4.437 8.34 9.406 0 .734-.534 1.468-1.4 1.468zm-6.937-8.038c-3.136 0-4.97 2.3-5.403 5.17H66.35c-.467-3.202-2.468-5.17-5.403-5.17zM88 1045.478c-1.834 0-2.668-1.3-2.97-1.9-1.334 1.468-3.27 2.47-5.87 2.47-5.437 0-8.372-4.47-8.372-9.44s3.002-9.406 8.372-9.406c2.335 0 4.203.834 5.504 2.202v-.134c0-.367.133-1.5 1.4-1.5.7 0 1.468.367 1.468 1.4v12.875c0 .434.3.6.467.6.935 0 1.435.667 1.435 1.434a1.37 1.37 0 0 1-1.435 1.401zm-8.84-15.443c-3.336 0-5.504 2.602-5.504 6.57 0 4.003 2.168 6.604 5.504 6.604 3.37 0 5.504-2.602 5.504-6.604 0-3.97-2.135-6.57-5.504-6.57z"/><use xlink:href="#D"/><path d="M115.158 1045.478h-.567c-3.17 0-4.37-1.668-4.37-4.403V1030.6h-1c-.8 0-1.435-.634-1.435-1.4 0-.8.634-1.435 1.4-1.435h1v-4.637c0-.934.7-1.4 1.435-1.4s1.4.467 1.4 1.4v4.637h2.135c.934 0 1.4.768 1.4 1.4 0 .8-.533 1.434-1.4 1.434h-2.135v10.774c0 .934.333 1.268 1.268 1.268h.833c.868 0 1.435.634 1.435 1.4 0 .8-.533 1.435-1.4 1.435zm4.604-20.415a2.402 2.402 0 1 1 0-4.803 2.402 2.402 0 1 1 0 4.803zm0 20.414c-.733 0-1.467-.5-1.467-1.4V1029.2c0-.935.733-1.435 1.467-1.435a1.37 1.37 0 0 1 1.401 1.435v14.876c0 .935-.7 1.4-1.4 1.4zm10.376-14.877h-1.5v13.442c0 .935-.7 1.4-1.468 1.4-.7 0-1.4-.467-1.4-1.4V1030.6h-1.37c-.9 0-1.4-.667-1.4-1.4 0-.768.5-1.435 1.4-1.435h1.367v-2.27c0-2.135 1.77-3.77 3.836-3.77.968 0 1.468.667 1.468 1.434 0 .7-.5 1.4-1.468 1.4-.566 0-.967.434-.967.9v2.302h1.5c.967 0 1.468.667 1.468 1.435 0 .733-.5 1.4-1.468 1.4z"/><use xlink:href="#D" x="42.068"/><path d="M154.725 1045.544c-1.802 0-3.336-1.534-3.336-3.402v-18.98c0-.967.7-1.434 1.435-1.434s1.435.467 1.435 1.4v19.013c0 .4.3.567.467.567.934 0 1.435.667 1.435 1.435 0 .733-.5 1.4-1.435 1.4zm15.37-.066v-1.264c1.886-.237 2.046-.437 2.046-3.157v-6.7c0-2.8-1.248-4.017-3.064-4.017-1.237 0-2.345.6-3.47 1.493v9.476c0 2.527.187 2.658 2.06 2.896v1.264h-8.968v-1.264c2.254-.33 2.5-.4 2.5-3v-8.2c0-2.446-.303-2.565-2.185-2.922v-1.184c2.173-.292 4.63-.807 6.653-1.533l-.052 2.95 2.6-1.745c1.16-.713 2-1.086 3.16-1.086 3.194 0 5.2 2.338 5.2 6.3v7.5c0 2.54.237 2.657 2.277 2.92v1.264h-8.74zm23.9-3.703c-2.458 3.427-5.488 4.178-7.014 4.178-5.142 0-8.124-3.936-8.124-8.594 0-2.745 1.183-5.396 2.832-7.062 1.74-1.8 3.945-2.814 6.082-2.814 3.73 0 6.396 3.126 6.37 6.347-.014.715-.08 1.277-.612 1.4-.767.184-6.17.5-10.318.647.062 4.587 2.717 6.74 5.556 6.74 1.572 0 3.104-.597 4.543-1.866l.686 1.014zm-7.07-12.7c-1.667 0-3.167 1.807-3.516 4.963l5.486-.118c.6-.026.848-.146.848-.792.04-2.022-1.037-4.053-2.818-4.053zm34.284.145c-1.943.343-2.248.624-3.105 2.765-1.33 3.462-3.102 8.53-4.934 13.94h-1.512l-4.65-11.46-4.55 11.46h-1.472l-4.685-14.192c-.687-1.985-.94-2.274-2.855-2.512v-1.25h9.397v1.25c-2.325.345-2.535.672-2.058 2.133l2.52 8.214c1.507-3.68 2.988-7.62 4.327-11.424h1.456c1.4 3.76 2.986 7.702 4.573 11.568.742-2.107 2.062-5.964 2.557-8.108.412-1.674-.008-2.078-2.753-2.383v-1.25h7.742v1.25zm9.4 3.746c-.92-2.606-2.155-3.984-4.2-3.984-1.206 0-2.225.86-2.225 2.266 0 1.497 1.046 2.264 3.16 3.216 3.278 1.496 5.3 2.787 5.3 5.736 0 3.85-3.6 5.764-6.945 5.764-2.06 0-4.088-.737-4.92-1.16l-.662-4.892 1.252-.224c.8 2.5 2.33 4.75 4.976 4.75 1.505 0 2.438-.952 2.438-2.28 0-1.423-.76-2.333-3.092-3.467-2.67-1.295-5.107-2.64-5.107-5.775 0-3.046 2.533-5.42 6.565-5.42 1.818 0 3.242.396 4.112.567l.62 4.577-1.25.328z"/></g><g class="P Q"><path d="M820.265 1046.358c-1.2 0-3.22-.42-3.92-1.58-.08-.12-.08-.22-.08-.3 0-.32.28-.6.58-.6.12 0 .32.1.44.28.72.88 2 1.06 2.98 1.06 1.94 0 2.92-.64 2.92-1.94 0-3.02-6.562-1.42-6.562-5.422 0-2.02 2.02-2.8 3.84-2.8 1.04 0 2.64.36 3.44 1.16.12.12.18.26.18.38a.65.65 0 0 1-.62.6.53.53 0 0 1-.38-.16c-.62-.6-1.74-.84-2.62-.84-1.76 0-2.7.68-2.7 1.66 0 2.8 6.562 1.32 6.562 5.422 0 2.28-2 3.08-4.06 3.08z"/><use xlink:href="#E"/><use xlink:href="#F"/><use xlink:href="#G"/><path d="M864.905 1044.797c-.88.98-2.1 1.52-3.58 1.52-3.22 0-5.02-2.64-5.02-5.66 0-3 1.8-5.64 5.02-5.64 1.48 0 2.7.54 3.58 1.52a.53.53 0 0 1 .16.381.63.63 0 0 1-.58.6c-.14 0-.28-.06-.42-.2-.66-.74-1.58-1.16-2.74-1.16-2.36 0-3.88 1.9-3.88 4.5s1.52 4.52 3.88 4.52c1.16 0 2.08-.44 2.74-1.16.14-.14.28-.2.42-.2.3 0 .58.26.58.58a.57.57 0 0 1-.16.399zm11.58-3.56h-8.302c.18 2.28 1.66 3.94 3.84 3.94 1.08 0 2.36-.48 2.94-1.38.14-.22.3-.28.48-.28.3 0 .62.24.62.54 0 .18 0 .22-.38.66-.92 1.08-2.26 1.6-3.66 1.6-3.22 0-5.02-2.64-5.02-5.66 0-3 1.8-5.64 5.02-5.64s5.02 2.66 5.02 5.64c0 .3-.28.58-.56.58zm-4.46-5.08c-2.4 0-3.66 1.84-3.84 3.94h7.7c-.18-2.28-1.66-3.94-3.86-3.94zm8.438 3.26c-.64 0-1.16-.5-1.16-1.14s.52-1.14 1.16-1.14c.62 0 1.12.5 1.12 1.14s-.5 1.14-1.12 1.14zm0 6.562c-.64 0-1.16-.5-1.16-1.14s.52-1.14 1.16-1.14c.62 0 1.12.5 1.12 1.14s-.5 1.14-1.12 1.14zm14.22.34c-4.3 0-5.82-3.56-5.82-7.46 0-3.92 1.52-7.482 5.82-7.482 4.28 0 5.82 3.562 5.82 7.482 0 3.9-1.54 7.46-5.82 7.46zm0-13.803c-3.32 0-4.682 2.6-4.682 6.342 0 3.72 1.36 6.32 4.682 6.32 3.3 0 4.68-2.6 4.68-6.32 0-3.74-1.38-6.342-4.68-6.342z"/><use xlink:href="#F" x="64.619"/><use xlink:href="#G" x="64.62"/><path d="M940.626 1032.455l-3.52 13.103a.55.55 0 0 1-.56.42c-.24 0-.48-.14-.54-.42l-3-11.083-2.98 11.083c-.06.28-.3.42-.54.42-.26 0-.48-.14-.56-.42l-3.52-13.103c-.02-.06-.02-.12-.02-.18a.58.58 0 0 1 .58-.58c.26 0 .46.14.52.44l3 11.082 2.98-11.082c.08-.28.3-.4.54-.4.26 0 .48.12.56.4l2.98 11.082 3-11.082c.08-.3.28-.44.52-.44a.58.58 0 0 1 .58.58c0 .06 0 .12-.02.18z"/><use xlink:href="#E" x="116.159"/><use xlink:href="#G" x="104.379"/><path d="M963.122 1046.098c-1.08 0-1.98-1-1.98-2.12v-11.683c0-.36.3-.56.58-.56.26 0 .56.2.56.56v11.683c0 1.28 1.42.54 1.42 1.44 0 .34-.24.68-.58.68zm11.422-.12c-.28 0-.58-.2-.58-.56v-1c-.84 1.18-2.14 1.9-3.88 1.9-3.22 0-5.02-2.64-5.02-5.66 0-3 1.8-5.64 5.02-5.64 1.74 0 3.04.72 3.88 1.88v-4.6c0-.36.3-.56.58-.56.26 0 .56.2.56.56v13.122c0 .36-.3.56-.56.56zm-4.46-9.822c-2.36 0-3.88 1.9-3.88 4.5s1.52 4.52 3.88 4.52c2.38 0 3.88-1.92 3.88-4.52s-1.5-4.5-3.88-4.5zm13.336-2.72c-.64 0-1.14-.5-1.14-1.14s.5-1.14 1.14-1.14 1.14.5 1.14 1.14-.5 1.14-1.14 1.14zm0 12.543c-.28 0-.58-.18-.58-.56v-9.502c0-.36.28-.56.58-.56.26 0 .56.18.56.56v9.502c0 .36-.26.56-.56.56zm11.963 0c-.28 0-.58-.2-.58-.56v-5.84c0-1.9-1.52-3.42-3.42-3.42a3.42 3.42 0 0 0-3.421 3.421v5.84c0 .36-.3.56-.56.56-.28 0-.58-.2-.58-.56v-9.502c0-.36.3-.56.58-.56.26 0 .56.2.56.56v.64c.9-.98 2.08-1.54 3.42-1.54a4.6 4.6 0 0 1 4.561 4.561v5.84c0 .36-.3.56-.56.56zm13.14 0h-4.44c-.3 0-.58-.28-.58-.56v-13.122c0-.3.28-.56.58-.56h4.44c4.12 0 5.48 3.44 5.48 7.102 0 3.72-1.36 7.142-5.48 7.142zm0-13.123h-3.88v11.982h3.88c3.42 0 4.34-2.96 4.34-5.98 0-3.562-1.24-6.002-4.34-6.002z"/><use xlink:href="#H"/><path d="M1033.002 1045.978h-.62c-1.58 0-2.36-.78-2.36-2.34v-7.142H1029c-.36 0-.56-.3-.56-.58 0-.26.2-.56.56-.56h1.02v-3.06c0-.36.3-.56.58-.56s.56.2.56.56v3.06h1.84c.36 0 .56.3.56.56 0 .28-.2.58-.56.58h-1.84v7.142c0 .98.28 1.2 1.22 1.2h.62c.36 0 .56.3.56.58 0 .26-.2.56-.56.56z"/><use xlink:href="#H" x="18.879"/></g><g opacity=".3" fill="none" stroke="#fff" class="S T"><path d="M962.67 775.728v-1"/><path d="M962.67 770.714v-455.56" stroke-dasharray="2.00687,4.01374"/><path d="M962.67 313.148v-1"/></g><g fill="#42dfce"><path d="M902.4 237.356h-12.854c-1.218 0-1.932-.714-1.932-1.596 0-.378.126-.757.378-1.135l11.468-17.433c.504-.8.798-1.765.798-2.52 0-2.48-1.848-4.37-4.326-4.37-2.227 0-4.117 1.9-4.83 3.234-.336.63-.883.883-1.43.883-.966 0-1.848-.757-1.848-1.723 0-1.302 2.982-6.007 8.107-6.007a7.92 7.92 0 0 1 7.897 7.897c0 1.68-.6 3.318-1.43 4.536l-9.62 14.66h9.62c1.218 0 1.85.84 1.85 1.807 0 .882-.63 1.764-1.85 1.764zm14.1 0c-.882 0-1.765-.672-1.765-1.764v-22.517l-3.36 3.276a1.62 1.62 0 0 1-1.176.505c-1 0-1.9-.925-1.9-1.85 0-.462.168-.882.546-1.26l6.26-6.05c.504-.462 1.05-.672 1.554-.672 1.177 0 1.68 1.176 1.68 2.143v26.38c0 1.134-.883 1.806-1.85 1.806zm24.025-26.044l-9.66 24.9c-.337.84-.84 1.176-1.555 1.176-.924 0-1.9-.714-1.9-1.764 0-.252.084-.463.168-.715l9.158-23.902H925.55c-.925 0-1.765-.672-1.765-1.806 0-.967.798-1.765 1.765-1.765h13.82c.924 0 1.848.588 1.848 1.807 0 .504-.546 1.638-.672 2.06zm3.063 29.74c-.252.168-.588.294-.882.294-.967 0-1.765-.882-1.765-1.85 0-1.428 1.597-1.723 1.597-2.395v-.042s-1.68-.462-1.68-2.982c0-1.555 1.386-2.604 2.814-2.604 1.975 0 3.15 2.227 3.15 4.033 0 2.058-1.176 4.326-3.234 5.545z"/><use xlink:href="#I"/><path d="M979.603 238.07c-8.99 0-8.99-10.67-8.99-16.804 0-5.923.924-14.576 8.947-14.576s9.032 8.443 9.032 14.576c0 6.386-.168 16.804-9 16.804zm5.377-16.804c0-3.696-.084-10.964-5.377-10.964s-5.377 7.268-5.377 10.964v2.353c0 4.37.588 10.88 5.335 10.88 4.83 0 5.42-6.51 5.42-10.88v-2.353z"/><use xlink:href="#I" x="41.665"/></g><g class="P"><use xlink:href="#J" class="Q"/><use xlink:href="#K" class="Q"/><path d="M958.864 265.9c-5.15 0-8.03-4.224-8.03-9.056 0-4.8 2.88-9.023 8.03-9.023s8.032 4.225 8.032 9.023c0 4.832-2.88 9.056-8.032 9.056zm0-16.255c-3.775 0-6.207 3.04-6.207 7.2s2.432 7.23 6.207 7.23c3.81 0 6.208-3.07 6.208-7.23s-2.4-7.2-6.208-7.2z" class="Q"/><use xlink:href="#J" x="57.503" class="Q"/><path d="M992.465 265.548c-1.73 0-3.168-1.6-3.168-3.393V243.47c0-.575.48-.896.928-.896.416 0 .896.32.896.896v18.687c0 2.048 2.27.864 2.27 2.305 0 .544-.384 1.088-.928 1.088z" class="Q"/><use xlink:href="#K" x="61.95" class="Q"/><path d="M839.4 293.548c-1.73 0-3.168-1.6-3.168-3.393V271.47c0-.575.48-.896.928-.896.416 0 .896.32.896.896v18.687c0 2.048 2.27.864 2.27 2.305 0 .544-.384 1.088-.928 1.088zm3.488-20.255a1.823 1.823 0 1 1 0-3.647 1.823 1.823 0 1 1 0 3.647zm0 20.063c-.448 0-.928-.288-.928-.896v-15.2c0-.576.448-.896.928-.896.416 0 .896.288.896.896v15.2c0 .575-.416.896-.896.896zm10.016-20.99h-.992c-.768 0-1.407.64-1.407 1.376v2.623h2.4c.608 0 .896.48.896.896 0 .448-.32.928-.896.928h-2.4v14.27c0 .575-.448.896-.896.896s-.896-.288-.896-.896v-14.27h-2.208c-.576 0-.896-.48-.896-.928 0-.416.32-.896.896-.896h2.208v-2.623c0-1.76 1.44-3.168 3.168-3.168h1.023c.576 0 .928.448.928.928 0 .448-.32.864-.928.864zm8.586 20.99h-.992c-2.528 0-3.776-1.248-3.776-3.744V278.2H855.1c-.575 0-.896-.48-.896-.928 0-.416.32-.896.896-.896h1.632v-4.896c0-.575.48-.896.93-.896s.896.32.896.896v4.896h2.944c.575 0 .896.48.896.896 0 .448-.32.928-.896.928h-2.944v11.423c0 1.568.448 1.92 1.952 1.92h.992c.575 0 .896.48.896.93 0 .416-.32.896-.896.896zm16.95-7.583h-13.28c.288 3.647 2.656 6.303 6.144 6.303 1.728 0 3.775-.768 4.704-2.207.224-.353.48-.448.768-.448.48 0 .992.384.992.863 0 .288 0 .353-.608 1.057-1.472 1.728-3.615 2.56-5.855 2.56-5.15 0-8.03-4.224-8.03-9.056 0-4.8 2.88-9.023 8.03-9.023s8.03 4.256 8.03 9.023c0 .48-.448.93-.896.93zm-7.136-8.128c-3.84 0-5.855 2.944-6.144 6.304h12.32c-.288-3.647-2.656-6.304-6.176-6.304zm24.99 15.71c-.448 0-.928-.32-.928-.896v-1.6c-1.344 1.888-3.424 3.04-6.208 3.04-5.15 0-8.03-4.224-8.03-9.056 0-4.8 2.88-9.023 8.03-9.023 2.784 0 4.864 1.152 6.208 3.008v-7.36c0-.575.48-.896.928-.896.416 0 .896.32.896.896v21c0 .575-.48.896-.896.896zm-7.136-15.7c-3.775 0-6.207 3.04-6.207 7.2s2.432 7.23 6.207 7.23c3.8 0 6.208-3.07 6.208-7.23s-2.4-7.2-6.208-7.2zm25.888 16.254c-2.784 0-4.863-1.152-6.207-3.04v8.288c0 .575-.48.928-.896.928-.448 0-.928-.353-.928-.928V277.26c0-.576.48-.896.928-.896.416 0 .896.32.896.896v1.567c1.344-1.855 3.423-3.008 6.207-3.008 5.15 0 8.03 4.225 8.03 9.023 0 4.832-2.88 9.056-8.03 9.056zm0-16.255c-3.808 0-6.207 3.04-6.207 7.2s2.4 7.23 6.207 7.23 6.208-3.07 6.208-7.23-2.4-7.2-6.208-7.2z" class="Q"/><use xlink:href="#K" x="-7.457" y="28" class="Q"/><path d="M950.768 277.933a5.47 5.47 0 0 0-5.471 5.472v9.056c0 .575-.48.896-.896.896-.448 0-.928-.32-.928-.896v-15.2c0-.576.48-.896.928-.896.416 0 .896.32.896.896v1.312c1.44-1.567 3.327-2.464 5.47-2.464.576 0 .93.48.93.896 0 .447-.353.928-.93.928zm22.975 15.423c-.448 0-.928-.32-.928-.896v-1.6c-1.345 1.888-3.424 3.04-6.208 3.04-5.15 0-8.03-4.224-8.03-9.056 0-4.8 2.88-9.023 8.03-9.023 2.784 0 4.863 1.152 6.208 3.008v-7.36c0-.575.48-.896.928-.896.416 0 .896.32.896.896v21c0 .575-.48.896-.896.896zm-7.136-15.7c-3.775 0-6.208 3.04-6.208 7.2s2.433 7.23 6.208 7.23c3.808 0 6.208-3.07 6.208-7.23s-2.4-7.2-6.208-7.2zm28 15.7h-.032c-1.056 0-2.56-.576-3.167-2.496-1.345 1.888-3.424 3.04-6.208 3.04-5.216 0-8.03-4.288-8.03-9.056 0-4.83 2.88-9.023 8.03-9.023 2.784 0 4.863 1.152 6.208 3.008v-1.567c0-.512.415-.896.928-.896.447 0 .896.32.896.896v12.895c0 2.048 2.304.77 2.304 2.305 0 .416-.288.895-.928.895zm-9.407-15.7c-3.775 0-6.208 3.04-6.208 7.2s2.433 7.23 6.208 7.23c3.808 0 6.208-3.07 6.208-7.23s-2.4-7.2-6.208-7.2zm25.76-.001l-8.67 20.5c-.64 1.504-1.952 1.92-3.424 1.92h-1.408c-.575 0-.896-.48-.896-.928 0-.416.32-.896.896-.896h1.408c.704 0 1.44-.032 1.728-.768l1.824-4.352-6.624-15.487c-.063-.16-.063-.288-.063-.416 0-.512.448-.864.928-.864.288 0 .64.13.8.544l5.952 13.888 5.888-13.888c.16-.415.512-.544.83-.544.48 0 .896.353.896.864a1.01 1.01 0 0 1-.064.416z" class="Q"/></g><g opacity=".3" fill="none" stroke="#fff" class="S T"><path d="M909.543 737.895l.784.62"/><path d="M913.422 740.963l100.6 79.57" stroke-dasharray="1.97329,3.94658"/><path d="M1015.568 821.76l.784.62"/></g><linearGradient id="B" gradientUnits="userSpaceOnUse" x1="40.937" y1="588.856" x2="1018.528" y2="588.856"><stop offset="0" stop-color="#ff0080"/><stop offset=".066" stop-color="#ff0978"/><stop offset=".175" stop-color="#ff2261"/><stop offset=".313" stop-color="#ff4b3c"/><stop offset=".474" stop-color="#ff8209"/><stop offset=".5" stop-color="#ff8c00"/><stop offset=".586" stop-color="#e3981e"/><stop offset=".773" stop-color="#9cb76b"/><stop offset="1" stop-color="#40e0d0"/></linearGradient><path d="M1016.528 941.433a2 2 0 0 1-2-2V836.927a2 2 0 1 1 4 0v102.506a2 2 0 0 1-2 2zm-16.033-2V824.638a2 2 0 1 0-4 0v114.795a2 2 0 1 0 4 0zm-18.033 0V812.35a2 2 0 1 0-4 0v127.083a2 2 0 1 0 4 0zm-18.033 0V800.06a2 2 0 1 0-4 0v139.372a2 2 0 1 0 4 0zm-18.033 0V786.738a2 2 0 1 0-4 0v152.694a2 2 0 1 0 4 0zm-18.033 0V769.22a2 2 0 1 0-4 0v170.213a2 2 0 1 0 4 0zm-18.033 0V750.11a2 2 0 1 0-4 0v189.323a2 2 0 1 0 4 0zm-18.033 0V737.83a2 2 0 1 0-4 0v201.603a2 2 0 1 0 4 0zm-18.033 0V726.075a2 2 0 1 0-4 0v213.357a2 2 0 1 0 4 0zm-18.033 0V718.26a2 2 0 1 0-4 0v221.172a2 2 0 1 0 4 0zm-18.033 0V710.446a2 2 0 1 0-4 0v228.986a2 2 0 1 0 4 0zm-18.032 0v-236.8a2 2 0 1 0-4 0v236.8a2 2 0 1 0 4 0zm-18.034 0V685.945a2 2 0 1 0-4 0v253.487a2 2 0 1 0 4 0zm-18.032 0V667.445a2 2 0 1 0-4 0v271.987a2 2 0 1 0 4 0zm-18.034 0V648.946a2 2 0 1 0-4 0v290.486a2 2 0 1 0 4 0zm-18.032 0V635.267a2 2 0 1 0-4 0v304.166a2 2 0 1 0 4 0zm-18.033 0V625.646a2 2 0 1 0-4 0v313.787a2 2 0 1 0 4 0zm-18.033 0v-323.41a2 2 0 1 0-4 0v323.41a2 2 0 1 0 4 0zm-18.033 0V608.25a2 2 0 1 0-4 0v331.183a2 2 0 1 0 4 0zm-18.033 0V605.857a2 2 0 1 0-4 0v333.575a2 2 0 1 0 4 0zm-18.033 0V603.465a2 2 0 1 0-4 0v335.968a2 2 0 1 0 4 0zm-18.033 0v-338.36a2 2 0 1 0-4 0v338.36a2 2 0 1 0 4 0zm-18.033 0V584.268a2 2 0 1 0-4 0v355.165a2 2 0 1 0 4 0zm-18.033 0V566.99a2 2 0 1 0-4 0v372.44a2 2 0 1 0 4 0zm-18.033 0v-389.72a2 2 0 1 0-4 0v389.72a2 2 0 1 0 4 0zm-18.033 0V539.276a2 2 0 1 0-4 0v400.156a2 2 0 1 0 4 0zm-18.033 0v-407.4a2 2 0 1 0-4 0v407.4a2 2 0 1 0 4 0zm-18.033 0V524.8a2 2 0 1 0-4 0v414.623a2 2 0 1 0 4 0zm-18.033 0v-419.25a2 2 0 1 0-4 0v419.25a2 2 0 1 0 4 0zm-18.033 0V519.97a2 2 0 1 0-4 0v419.463a2 2 0 1 0 4 0zm-18.033 0V519.757a2 2 0 1 0-4 0v419.676a2 2 0 1 0 4 0zm-18.033 0v-421a2 2 0 1 0-4 0v421a2 2 0 1 0 4 0zm-18.033 0V505.1a2 2 0 1 0-4 0v434.334a2 2 0 1 0 4 0zm-18.033 0V491.756a2 2 0 1 0-4 0v447.677a2 2 0 1 0 4 0zm-18.033 0v-461.02a2 2 0 1 0-4 0v461.02a2 2 0 1 0 4 0zm-18.033 0V467.145a2 2 0 1 0-4 0v472.288a2 2 0 1 0 4 0zm-18.032 0V456.406a2 2 0 1 0-4 0v483.026a2 2 0 1 0 4 0zm-18.034 0V445.668a2 2 0 1 0-4 0v493.765a2 2 0 1 0 4 0zm-18.032 0V432.675a2 2 0 1 0-4 0v506.758a2 2 0 1 0 4 0zm-18.034 0V417.5a2 2 0 1 0-4 0v521.923a2 2 0 1 0 4 0zm-18.032 0V402.346a2 2 0 1 0-4 0v537.087a2 2 0 1 0 4 0zm-18.033 0V387.18a2 2 0 1 0-4 0v552.252a2 2 0 1 0 4 0zm-18.033 0V372.016a2 2 0 1 0-4 0v567.417a2 2 0 1 0 4 0zm-18.033 0V356.85a2 2 0 1 0-4 0v582.582a2 2 0 1 0 4 0zm-18.033 0V341.686a2 2 0 1 0-4 0v597.747a2 2 0 1 0 4 0zm-18.033 0V326.52a2 2 0 1 0-4 0v612.912a2 2 0 1 0 4 0zm-18.033 0V311.356a2 2 0 1 0-4 0v628.077a2 2 0 1 0 4 0zm-18.033 0V296.2a2 2 0 1 0-4 0v643.242a2 2 0 1 0 4 0zm-18.034 0V281.025a2 2 0 1 0-4 0v658.407a2 2 0 1 0 4 0zm-18.032 0V265.86a2 2 0 1 0-4 0v673.572a2 2 0 1 0 4 0zm-18.033 0V255.63a2 2 0 1 0-4 0v683.803a2 2 0 1 0 4 0zm-18.033 0v-688.14a2 2 0 1 0-4 0v688.14a2 2 0 1 0 4 0zm-18.033 0v-692.48a2 2 0 1 0-4 0v692.48a2 2 0 1 0 4 0zm-18.033 0V242.617a2 2 0 1 0-4 0v696.815a2 2 0 1 0 4 0zm-17.833 0V238.278a2 2 0 1 0-4 0v701.154a2 2 0 1 0 4 0z" fill="url(#B)"/><g opacity=".8" class="P"><path d="M410.5 455.093h-1.548v2.808c0 .972-.828 1.512-1.548 1.512-.756 0-1.548-.54-1.548-1.512v-2.808h-8.603c-1.008 0-1.62-.612-1.62-1.44 0-.216.036-.504.216-.8l9.936-18.898c.287-.575.827-.827 1.296-.827.827 0 1.62.647 1.62 1.476a1.39 1.39 0 0 1-.216.792l-8.7 16.63h6.083v-4.104c0-1.044.756-1.584 1.512-1.584.792 0 1.584.504 1.584 1.548v4.14h1.548c1.008 0 1.548.72 1.548 1.548 0 .792-.54 1.512-1.548 1.512zm18.746 0h-1.548v2.808c0 .972-.828 1.512-1.548 1.512-.756 0-1.548-.54-1.548-1.512v-2.808H416c-1.008 0-1.62-.612-1.62-1.44 0-.216.036-.504.216-.8l9.936-18.898c.287-.575.827-.827 1.296-.827.827 0 1.62.647 1.62 1.476a1.39 1.39 0 0 1-.216.792l-8.7 16.63h6.083v-4.104c0-1.044.756-1.584 1.512-1.584.792 0 1.584.504 1.584 1.548v4.14h1.548c1.008 0 1.548.72 1.548 1.548 0 .792-.54 1.512-1.548 1.512z"/><use xlink:href="#L"/></g><path d="M770.228 629.142h-11.015c-1.044 0-1.656-.612-1.656-1.368 0-.323.108-.647.324-.972l9.826-14.937c.433-.685.685-1.513.685-2.16 0-2.124-1.584-3.743-3.708-3.743-1.907 0-3.527 1.62-4.14 2.77a1.34 1.34 0 0 1-1.224.756c-.828 0-1.584-.648-1.584-1.476 0-1.116 2.556-5.147 6.947-5.147 3.744 0 6.768 3.06 6.768 6.767a7.02 7.02 0 0 1-1.224 3.888l-8.243 12.563h8.243c1.044 0 1.583.72 1.583 1.548 0 .756-.54 1.512-1.583 1.512zm18.286-22.318l-8.278 21.346c-.288.72-.72 1.008-1.332 1.008-.792 0-1.62-.612-1.62-1.512 0-.216.072-.396.145-.612l7.847-20.48h-9.6a1.48 1.48 0 0 1-1.512-1.548 1.52 1.52 0 0 1 1.512-1.512h11.842c.792 0 1.584.504 1.584 1.548 0 .432-.468 1.404-.576 1.764zm7.336 2.756c-1.825 0-3.314-1.657-3.314-3.692s1.5-3.672 3.314-3.672c1.805 0 3.295 1.637 3.295 3.672s-1.5 3.692-3.295 3.692zm0-5.58c-.67 0-1.5.672-1.5 1.9s.84 1.888 1.5 1.888 1.5-.67 1.5-1.888-.84-1.9-1.5-1.9zm8.75-1.027l-3.86 13.9c-.104.462-.46.672-.818.672-.482 0-.943-.336-.943-.882 0-.062 0-.168.02-.25l3.882-13.9c.126-.44.482-.65.84-.65.44 0 .923.315.923.84 0 .104-.02.188-.042.294zm2.98 14.183c-1.804 0-3.294-1.657-3.294-3.692 0-2.015 1.5-3.672 3.294-3.672 1.825 0 3.315 1.657 3.315 3.672 0 2.035-1.5 3.692-3.315 3.692zm0-5.58c-.65 0-1.5.672-1.5 1.9 0 1.237.84 1.9 1.5 1.9.672 0 1.5-.672 1.5-1.9 0-1.217-.84-1.9-1.5-1.9z" opacity=".8" class="P"/><g opacity=".8" class="P"><path d="M1001.597 798.54c-2.988 0-5.147-1.296-6.623-3.563-.252-.324-.36-.612-.36-.937 0-.828.792-1.476 1.62-1.476a1.47 1.47 0 0 1 1.26.684c.936 1.44 2.195 2.232 4.104 2.232 3.455 0 5.003-3.096 5.147-9.936-1.188 1.152-3.06 2.052-5.147 2.052-4.284 0-7.703-3.743-7.703-7.955 0-4.247 3.42-8 7.703-8 7.595 0 8.207 7.774 8.207 13.426 0 6.73-1.477 13.463-8.207 13.463zm0-23.793c-2.448 0-4.644 2.195-4.644 4.895 0 2.664 2.195 4.86 4.644 4.86 2.52 0 4.607-2.123 4.715-4.967-.432-2.77-1.907-4.787-4.715-4.787zm12.503 12.213a1.5 1.5 0 0 1-1.51-1.5c0-.83.67-1.47 1.5-1.47s1.5.63 1.5 1.47-.672 1.5-1.5 1.5zm7.468.2c-1.406 0-3-.756-3.776-1.993a.93.93 0 0 1-.147-.504c0-.482.42-.86.902-.86.398 0 .546.147.86.566.524.65 1.343 1.008 2.16 1.008 1.447 0 2.916-1.322 2.916-3.2 0-1.9-1.47-3.23-2.916-3.23-1.112 0-1.867.566-2.225 1.175-.167.314-.46.482-.817.482-.546 0-.902-.356-.902-1.05v-6.65c0-.482.42-.88.902-.88h6.378a.86.86 0 0 1 .923.902c0 .44-.294.88-.88.88h-5.54v3.924c.504-.356 1.3-.566 2.16-.566 2.58 0 4.7 2.182 4.7 5.015 0 2.8-2.12 4.993-4.7 4.993z"/><use xlink:href="#L" x="596.709" y="339.514"/></g><g opacity=".8" class="P"><path d="M42.125 219.566c-7.595 0-8.207-7.74-8.207-13.427 0-6.73 1.477-13.462 8.207-13.462 3.024 0 5.184 1.33 6.66 3.6a1.41 1.41 0 0 1 .324.936c0 .828-.756 1.476-1.584 1.476-.468 0-.936-.216-1.296-.72-.936-1.404-2.16-2.195-4.104-2.195-3.42 0-5.003 3.06-5.1 9.935 1.188-1.152 3.024-2.052 5.1-2.052 4.32 0 7.74 3.743 7.74 7.955s-3.42 7.955-7.74 7.955zm0-12.85c-2.483 0-4.57 2.16-4.715 4.967.468 2.808 1.943 4.824 4.715 4.824 2.484 0 4.644-2.232 4.644-4.896s-2.16-4.896-4.644-4.896zm25.345 7.92h-1.55v2.808c0 .972-.828 1.512-1.548 1.512-.756 0-1.548-.54-1.548-1.512v-2.808H54.22c-1.008 0-1.62-.612-1.62-1.44 0-.216.036-.504.216-.8l9.936-18.898c.287-.575.827-.827 1.295-.827.828 0 1.62.647 1.62 1.476a1.39 1.39 0 0 1-.216.792l-8.7 16.63h6.083v-4.104c0-1.044.756-1.584 1.512-1.584.792 0 1.584.504 1.584 1.548v4.14h1.548c1.008 0 1.548.72 1.548 1.548 0 .792-.54 1.512-1.548 1.512z"/><use xlink:href="#L" x="-361.777" y="-240.458"/></g><g class="P"><circle cx="42.937" cy="237.954" r="8" opacity=".4"/><use xlink:href="#M"/><circle cx="403.4" cy="478.412" r="8" opacity=".4"/><use xlink:href="#M" x="360.462" y="240.458"/><circle cx="764.063" cy="648.142" r="8" opacity=".4"/><use xlink:href="#M" x="721.126" y="410.187"/><circle cx="1016.528" cy="836.927" r="8" opacity=".4"/><use xlink:href="#M" x="973.59" y="598.972"/></g><g fill="none" stroke="#fff" class="S"><path d="M41.617 414.285l975.708 3.764M41.617 659.56l975.708 3.764" opacity=".3" class="T"/><path d="M40.817 940.702h977.625" stroke-width="1.688"/></g><path d="M41.02 977.305v-2.04h2.992v-19.718l-3.06.27v-1.495c1.393-.34 2.752-.952 3.875-1.904h1.63v22.846h2.855v2.04H41.02zm12.648-4.555c.34 2.448 1.7 2.855 2.65 2.855 2.176 0 3.537-3 3.604-9.824-.984 1.054-2.3 1.87-3.773 1.87-2.754 0-5.27-1.972-5.27-7.547 0-4.76 2.04-7.684 5.27-7.684 4.25 0 6.3 2.448 6.3 11.287 0 9.86-2.312 13.938-6.187 13.938-3.162 0-4.352-1.903-4.828-4.76l2.244-.136zM60 961.2c0-4.964-1.3-6.73-3.467-6.73-1.904 0-3.195 1.428-3.195 5.678 0 4.385 1.496 5.473 3.06 5.473s2.8-1.02 3.604-2.107V961.2zm13.387-3.885c-.34-2.447-1.7-2.855-2.65-2.855-2.176 0-3.537 2.992-3.605 9.825.986-1.054 2.313-1.87 3.775-1.87 2.752 0 5.27 1.972 5.27 7.547 0 4.76-2.04 7.684-5.27 7.684-4.25 0-6.3-2.447-6.3-11.287 0-9.858 2.313-13.938 6.188-13.938 3.162 0 4.352 1.904 4.828 4.76l-2.244.136zm-6.322 11.56c0 4.964 1.3 6.73 3.467 6.73 1.904 0 3.195-1.428 3.195-5.677 0-4.386-1.496-5.474-3.06-5.474s-2.8 1.02-3.604 2.107v2.312zm16.385 8.77c-4.012 0-5.916-3.74-5.916-12.612s1.904-12.613 5.916-12.613 5.916 3.74 5.916 12.613-1.904 12.612-5.916 12.612zm0-23.186c-2.244 0-3.467 2.516-3.467 10.573s1.223 10.572 3.467 10.572 3.467-2.516 3.467-10.572-1.223-10.573-3.467-10.573z" class="P R"/><g class="P R"><path d="M380.688 977.305v-2.04h2.992v-19.718l-3.06.27v-1.495c1.395-.34 2.754-.952 3.876-1.904h1.632v22.846h2.855v2.04h-8.295zm12.648-4.555c.34 2.448 1.7 2.855 2.65 2.855 2.176 0 3.536-3 3.604-9.824-.985 1.054-2.312 1.87-3.773 1.87-2.754 0-5.27-1.972-5.27-7.547 0-4.76 2.04-7.684 5.27-7.684 4.25 0 6.3 2.448 6.3 11.287 0 9.86-2.312 13.938-6.187 13.938-3.162 0-4.352-1.903-4.828-4.76l2.244-.136zm6.323-11.56c0-4.964-1.292-6.73-3.468-6.73-1.903 0-3.195 1.428-3.195 5.678 0 4.385 1.495 5.473 3.06 5.473s2.787-1.02 3.604-2.107V961.2zm10.404 16.455c-3.808 0-6.05-3-6.05-6.527 0-3.025 1.598-5.2 3.943-6.867-2.176-1.733-3.4-3.434-3.4-6.323 0-3.23 2.447-5.508 5.507-5.508s5.508 2.278 5.508 5.508c0 2.9-1.224 4.6-3.4 6.323 2.346 1.666 3.943 3.842 3.943 6.867 0 3.536-2.244 6.527-6.052 6.527zm0-12.103c-1.972 1.462-3.604 3.025-3.604 5.678 0 2.005 1.088 4.385 3.604 4.385s3.604-2.38 3.604-4.385c0-2.652-1.63-4.216-3.604-5.678zm0-11.083c-2.107 0-3.06 1.632-3.06 3.195 0 2.482 1.224 4.318 3.06 5.44 1.836-1.12 3.06-2.957 3.06-5.44 0-1.563-.952-3.195-3.06-3.195z"/><use xlink:href="#N"/></g><g class="P R"><path d="M739.04 977.305v-2.04c2.176-7.275 8.976-11.354 8.976-16.93 0-2.584-1.292-3.876-2.958-3.876-1.938 0-3.366 1.496-3.57 5.168h-2.244c.27-5.576 2.787-7.208 5.745-7.208 3.23 0 5.474 2.176 5.474 6.256 0 6.12-5.508 8.022-9.18 16.6h9.314v2.04h-11.56z"/><use xlink:href="#N" x="333.53"/><use xlink:href="#O"/><use xlink:href="#N" x="361.002"/></g><g class="P R"><path d="M968.533 977.305v-2.04c2.176-7.275 8.975-11.354 8.975-16.93 0-2.584-1.29-3.876-2.957-3.876-1.937 0-3.366 1.496-3.57 5.168h-2.243c.27-5.576 2.788-7.208 5.745-7.208 3.23 0 5.474 2.176 5.474 6.256 0 6.12-5.508 8.022-9.18 16.6h9.314v2.04h-11.56z"/><use xlink:href="#O" x="217.118"/><path d="M995.937 977.305v-2.04h2.992v-19.718l-3.06.27v-1.495c1.394-.34 2.753-.952 3.875-1.904h1.632v22.846h2.855v2.04h-8.295zm12.918-5.71c.204 1.768.952 4 3.128 4 2.107 0 3.672-2.176 3.672-6.425 0-4.6-1.564-6.018-3.366-6.018-1.394 0-2.686 1.054-3.094 2.38l-1.903-.34.815-12.443h8.636l-.204 2.04h-6.46l-.476 7.48c.85-.714 2.006-1.156 3.264-1.156 2.855 0 5.235 2.652 5.235 8 0 5.6-2.72 8.533-5.983 8.533-3.535 0-5.304-2.65-5.508-5.848l2.244-.203z"/></g><g class="P"><path d="M62.26 78.9H37.3c-1.44 0-2.64-1.14-2.64-2.52V38.762c0-1.44 1.2-2.58 2.64-2.58h24.96c1.56 0 2.52 1.14 2.52 2.52 0 1.26-.9 2.58-2.52 2.58H39.82V53.4h15.72a2.56 2.56 0 0 1 2.58 2.58c0 1.38-1.02 2.58-2.58 2.58H39.82V73.8h22.44c1.62 0 2.52 1.26 2.52 2.58 0 1.38-.96 2.52-2.52 2.52zm32.34.06c-.72 0-1.38-.24-1.92-.96L82.9 66.06 73.12 78c-.6.6-1.26.9-1.92.9-1.38 0-2.7-1.14-2.7-2.52 0-.54.24-1.2.72-1.74l10.32-12.66-8.82-10.74c-.48-.54-.66-1.14-.66-1.68 0-1.44 1.32-2.58 2.7-2.58a2.32 2.32 0 0 1 1.92.96l8.22 10.08 8.28-10.08c.54-.66 1.14-.96 1.8-.96 1.38 0 2.76 1.14 2.76 2.58 0 .54-.24 1.08-.66 1.62l-8.88 10.8 10.44 12.66a2.64 2.64 0 0 1 .66 1.739c0 1.44-1.38 2.58-2.7 2.58z"/><use xlink:href="#P"/><use xlink:href="#Q"/><use xlink:href="#R"/><path d="M206.196 78.9c-1.26 0-2.52-.9-2.52-2.52V57.482c0-3.48-2.88-6.36-6.3-6.36-3.54 0-6.36 2.88-6.36 6.3v18.9c0 1.68-1.2 2.58-2.58 2.58-1.32 0-2.52-.9-2.52-2.52V57.482c0-3.48-2.88-6.36-6.36-6.36s-6.36 2.88-6.36 6.3v18.9c0 1.68-1.26 2.58-2.64 2.58-1.26 0-2.52-.9-2.52-2.52V49.562c0-1.74 1.32-2.58 2.64-2.58.84 0 1.68.36 2.16 1.14 1.86-1.32 4.2-2.1 6.66-2.1 3.6 0 6.84 1.62 8.94 4.26 2.1-2.64 5.28-4.26 8.88-4.26 6.36 0 11.52 5.1 11.52 11.4v18.9c0 1.68-1.26 2.58-2.64 2.58z"/><use xlink:href="#R" x="79.138"/><path d="M277.476 60.42h-12.84v15.9c0 1.56-1.2 2.58-2.52 2.58-1.44 0-2.64-.96-2.64-2.52V38.762c0-1.08.72-2.58 2.52-2.58h15.54c5.28 0 12.06 4.14 12.06 12.06 0 6.78-5.4 12.18-12.12 12.18zm0-19.14h-12.84v14.04h12.78a6.99 6.99 0 0 0 7.02-7.02c0-3.9-3.12-7.02-6.96-7.02zm28.68 38.64c-9.66 0-15.06-7.92-15.06-16.98 0-9 5.4-16.92 15.06-16.92s15.06 7.92 15.06 16.92c0 9.06-5.4 16.98-15.06 16.98zm0-28.8c-6 0-9.9 4.68-9.9 11.82 0 7.2 3.9 11.88 9.9 11.88 6.06 0 9.9-4.68 9.9-11.88 0-7.14-3.84-11.82-9.9-11.82zm43.08-.54l-10.92 26.28c-.54 1.38-1.44 2.04-2.58 2.04-1.02 0-1.98-.66-2.58-2.04l-10.92-26.28c-.12-.42-.18-.72-.18-1.08 0-1.44 1.32-2.46 2.64-2.46.9 0 1.8.48 2.28 1.56l8.76 21 8.76-21c.42-1.14 1.5-1.62 2.34-1.62 1.38 0 2.64.96 2.64 2.46 0 .3-.06.72-.24 1.14z"/><use xlink:href="#R" x="216.355"/><use xlink:href="#Q" x="266.335"/><use xlink:href="#P" x="305.393"/><path d="M450.632 50.642l-16.2 36.838c-1.2 2.76-3.84 4.02-6.6 4.02h-1.92c-1.74 0-2.52-1.26-2.52-2.64 0-1.26.78-2.52 2.52-2.52h1.86c.78 0 1.62-.12 1.98-.96l3.96-8.88-11.7-25.858c-.24-.42-.3-.78-.3-1.14 0-1.5 1.44-2.52 2.76-2.52.9 0 1.68.48 2.16 1.56l9.78 21.72 9.54-21.72c.48-1.08 1.38-1.5 2.22-1.5 1.38 0 2.76 1.02 2.76 2.46 0 .42-.06.72-.3 1.14z"/><use xlink:href="#S"/><use xlink:href="#T"/><path d="M531.512 78.9h-12.42c-1.38 0-2.64-1.26-2.64-2.52V38.762c0-1.38 1.26-2.58 2.64-2.58h12.42c12.36 0 16.44 10.2 16.44 21.3 0 11.16-4.08 21.42-16.44 21.42zm0-37.62h-9.9V73.8h9.9c7.74 0 11.28-5.7 11.28-16.32 0-10.44-3.54-16.2-11.28-16.2z"/><use xlink:href="#U"/><path d="M610.23 75.36c-2.64 2.94-6.3 4.56-10.74 4.56-9.66 0-15.06-7.92-15.06-16.98 0-9 5.4-16.92 15.06-16.92 4.44 0 8.1 1.62 10.74 4.56.48.54.72 1.14.72 1.74 0 1.32-1.32 2.58-2.7 2.58-.54 0-1.2-.24-1.86-.84-1.68-1.86-3.9-2.94-6.9-2.94-6 0-9.9 4.68-9.9 11.82 0 7.2 3.9 11.88 9.9 11.88 3 0 5.28-1.14 6.9-2.94.54-.66 1.26-.9 1.86-.9 1.38 0 2.7 1.2 2.7 2.64 0 .54-.24 1.2-.72 1.74z"/><use xlink:href="#Q" x="496.972"/><use xlink:href="#U" x="79.2"/><path d="M694.588 78.9c-3.3 0-4.8-2.34-5.34-3.42-2.4 2.64-5.88 4.44-10.56 4.44-9.78 0-15.06-8.04-15.06-16.98s5.4-16.92 15.06-16.92c4.2 0 7.56 1.5 9.9 3.96v-.24c0-.66.24-2.7 2.52-2.7 1.26 0 2.64.66 2.64 2.52v23.16c0 .78.54 1.08.84 1.08 1.68 0 2.58 1.2 2.58 2.58 0 1.26-.9 2.52-2.58 2.52zM678.69 51.12c-6 0-9.9 4.68-9.9 11.82 0 7.2 3.9 11.88 9.9 11.88 6.06 0 9.9-4.68 9.9-11.88 0-7.14-3.84-11.82-9.9-11.82z"/><use xlink:href="#T" x="224.698"/><use xlink:href="#S" x="263.627"/><path d="M765.268 78.9c-1.32 0-2.52-.9-2.52-2.52V59.7c0-4.68-3.9-8.58-8.58-8.58-4.62 0-8.52 3.9-8.52 8.58v16.62c0 1.68-1.26 2.64-2.64 2.64-1.26 0-2.52-.9-2.52-2.58V49.562c0-1.74 1.26-2.52 2.52-2.52 1.2 0 2.28.66 2.58 1.98 2.34-1.86 5.28-3 8.58-3 7.44 0 13.68 6.18 13.68 13.68v16.62c0 1.68-1.2 2.58-2.58 2.58zM787.1 92.58c-3.66 0-12.72-1.32-12.72-4.92 0-1.38 1.26-2.7 2.58-2.7 1.38 0 .18.18 3.36 1.38 1.44.54 3.6 1.14 6.78 1.14 6.66 0 9.9-3.18 9.9-9.48v-2.7c-2.34 2.22-5.7 3.6-9.9 3.6-9.48 0-15.06-6.72-15.06-15.96 0-9 5.4-16.92 15.06-16.92 4.2 0 7.44 1.26 9.9 3.84v-.24c0-1.68 1.38-2.58 2.58-2.58 1.26 0 2.58.9 2.58 2.58V78c0 9.54-5.7 14.58-15.06 14.58zm0-41.46c-6 0-9.9 4.68-9.9 11.82 0 6.84 3.6 10.86 9.9 10.86s9.9-4.02 9.9-10.86c0-7.14-3.84-11.82-9.9-11.82z"/><g class="Q"><path d="M40.307 113.185c-3.306 0-6.003-3.002-6.003-6.687S37 99.85 40.307 99.85c3.268 0 5.965 2.963 5.965 6.648s-2.697 6.688-5.965 6.688zm0-11.208c-1.9 0-3.838 1.785-3.838 4.52s1.938 4.52 3.838 4.52 3.8-1.785 3.8-4.52-1.9-4.52-3.8-4.52zm14.36-1.406L47.4 126.787c-.2.532-.493.798-.95.798-.57 0-1.178-.456-1.178-1.102 0-.114 0-.228.037-.304l7.258-26.217c.2-.57.53-.835.987-.835.532 0 1.14.493 1.14 1.14 0 .076 0 .15-.038.304zm4.712 26.33c-3.268 0-5.966-3.002-5.966-6.687 0-3.646 2.698-6.648 5.966-6.648 3.306 0 6.003 3.002 6.003 6.648 0 3.686-2.697 6.688-6.003 6.688zm0-11.17c-1.9 0-3.8 1.785-3.8 4.482 0 2.736 1.9 4.52 3.8 4.52 1.938 0 3.837-1.785 3.837-4.52 0-2.697-1.9-4.482-3.837-4.482zm43.32-7.6l-6.193 17.857c-.266.722-.607.912-1.102.912-.646 0-.836-.228-1.064-.912l-4.977-14.817-4.978 14.817c-.266.722-.608.912-1.102.912s-.874-.304-1.064-.912l-6.155-17.857a1.65 1.65 0 0 1-.075-.418c0-.607.607-.987 1.102-.987.38 0 .836.2.988.722l5.205 15.046 4.977-14.855c.23-.723.456-.912 1.103-.912.456 0 .836.15 1.063.912l5.054 14.855 5.13-15.046c.2-.532.57-.722.988-.722.57 0 1.178.38 1.178 1.025a1.12 1.12 0 0 1-.076.38z"/><use xlink:href="#V"/><use xlink:href="#W"/><use xlink:href="#X"/><use xlink:href="#Y"/><use xlink:href="#Z"/><use xlink:href="#V" x="95.53"/><use xlink:href="#Z" x="44.801"/><path d="M261.917 126.9c-.532 0-1.102-.38-1.102-1.063v-1.216c-1.596 1.86-3.913 2.925-6.497 2.925-4.71 0-8.663-3.95-8.663-8.662V107.79c0-.684.57-1.063 1.103-1.063.493 0 1.063.38 1.063 1.063v11.095a6.47 6.47 0 1 0 12.994 0V107.79c0-.684.57-1.063 1.102-1.063.494 0 1.064.38 1.064 1.063v18.048c0 .684-.57 1.063-1.064 1.063z"/><use xlink:href="#X" x="128.21"/><use xlink:href="#a"/><use xlink:href="#b"/><use xlink:href="#c"/><use xlink:href="#V" x="210.668"/><use xlink:href="#d"/><use xlink:href="#X" x="229.06"/><use xlink:href="#c" x="66.499"/><path d="M398.336 108.207l-7.484 17.82c-.23.494-.57.874-1.064.874s-.874-.38-1.102-.874l-7.484-17.78c-.076-.2-.076-.342-.076-.494 0-.607.53-1.025 1.102-1.025.342 0 .76.15.95.646l6.6 15.616 6.573-15.616c.23-.494.608-.684.988-.684.57 0 1.102.418 1.102 1.025 0 .114 0 .305-.114.494z"/><use xlink:href="#c" x="91.844"/><use xlink:href="#d" x="69.88"/><path d="M438.465 135.564c-3.23 0-7.79-1.216-7.79-2.584 0-.608.494-1.216 1.103-1.216.418 0 1.29.646 2.014.912.987.342 2.545.722 4.673.722 4.863 0 7.37-2.394 7.37-7.067v-2.66c-1.672 2.014-4.065 3.23-7.37 3.23-6.003 0-9.536-4.256-9.536-10.106 0-5.7 3.42-10.715 9.536-10.715 3.306 0 5.775 1.368 7.37 3.572v-1.824c0-.684.57-1.063 1.102-1.063.494 0 1.064.38 1.064 1.063v18.503c0 6.04-3.6 9.233-9.537 9.233zm0-27.318c-4.483 0-7.37 3.61-7.37 8.55 0 4.9 2.698 7.94 7.37 7.94s7.37-3.04 7.37-7.94c0-4.94-2.85-8.55-7.37-8.55z"/><use xlink:href="#V" x="355.522"/><use xlink:href="#d" x="144.854"/><use xlink:href="#X" x="373.915"/><use xlink:href="#e"/><path d="M549.194 127.622c-2.28 0-6.117-.798-7.447-3-.15-.23-.15-.418-.15-.57 0-.607.53-1.14 1.102-1.14.228 0 .607.2.836.532 1.367 1.67 3.8 2.014 5.66 2.014 3.686 0 5.547-1.216 5.547-3.686 0-5.737-12.462-2.698-12.462-10.297 0-3.837 3.837-5.32 7.295-5.32 1.976 0 5.016.685 6.535 2.204.228.228.342.494.342.722 0 .57-.57 1.14-1.178 1.14-.23 0-.494-.076-.722-.304-1.18-1.14-3.306-1.596-4.978-1.596-3.344 0-5.13 1.292-5.13 3.153 0 5.32 12.462 2.508 12.462 10.297 0 4.33-3.8 5.85-7.713 5.85zm17.3 0c-2.28 0-6.117-.798-7.447-3-.15-.23-.15-.418-.15-.57 0-.607.53-1.14 1.102-1.14.228 0 .607.2.836.532 1.367 1.67 3.8 2.014 5.66 2.014 3.686 0 5.547-1.216 5.547-3.686 0-5.737-12.462-2.698-12.462-10.297 0-3.837 3.837-5.32 7.295-5.32 1.976 0 5.015.685 6.535 2.204.228.228.342.494.342.722 0 .57-.57 1.14-1.178 1.14-.23 0-.494-.076-.722-.304-1.178-1.14-3.306-1.596-4.978-1.596-3.344 0-5.13 1.292-5.13 3.153 0 5.32 12.462 2.508 12.462 10.297 0 4.33-3.8 5.85-7.713 5.85z"/><use xlink:href="#b" x="287.162"/><path d="M612.956 126.9c-.53 0-1.102-.38-1.102-1.063v-11.095a6.47 6.47 0 0 0-6.497-6.497c-3.57 0-6.497 2.888-6.497 6.497v11.095c0 .684-.57 1.063-1.063 1.063-.532 0-1.103-.38-1.103-1.063v-24.925c0-.684.57-1.063 1.103-1.063.494 0 1.063.38 1.063 1.063v8.093c1.596-1.86 3.913-2.926 6.497-2.926 4.71 0 8.663 3.914 8.663 8.663v11.095c0 .684-.57 1.063-1.064 1.063z"/><use xlink:href="#a" x="343.134"/><use xlink:href="#d" x="303.654"/><path d="M681.243 127.508v6.23c0 .684-.57 1.102-1.102 1.102a1.07 1.07 0 0 1-1.064-1.102v-6.23c-2.773-.228-6.192-1.33-8.17-3.305-.266-.267-.342-.494-.342-.76a1.16 1.16 0 0 1 1.103-1.103c.455 0 .418.114 1.216.722 2.014 1.482 4.52 2.318 7.104 2.318 4.787 0 7.56-1.786 7.56-5.205 0-9.005-16.07-4-16.07-14.362 0-4.18 3.306-6.23 7.6-6.573V93.4c0-.76.532-1.14 1.064-1.14s1.102.38 1.102 1.14v5.85c2.622.2 5.9 1.368 7.4 3.496.15.228.228.418.228.646 0 .608-.532 1.063-1.14 1.063-.532 0-.532-.15-1.178-.798-1.596-1.596-3.95-2.317-6.193-2.317-4.52 0-6.725 1.748-6.725 4.483 0 8.17 16.07 3.42 16.07 14.362 0 4.863-3.913 7.028-8.473 7.332zm17.745-.608c-.57 0-1.063-.418-1.063-1.063v-22.72l-4.142 4.027c-.2.228-.456.342-.722.342-.608 0-1.14-.57-1.14-1.178 0-.23.15-.494.342-.722l6.003-5.813c.304-.228.608-.304.722-.304.798 0 1.103.57 1.103 1.33v25.04c0 .646-.456 1.063-1.103 1.063zm7.906 0a2.166 2.166 0 1 1 0-4.331 2.166 2.166 0 1 1 0 4.331zm14.666.646c-3.2 0-5.47-1.367-7.03-3.76-.2-.23-.228-.418-.228-.646 0-.57.57-1.063 1.14-1.063.304 0 .608.152.874.494 1.216 1.785 2.812 2.812 5.243 2.812 4.787 0 6.497-4.56 6.497-12.007v-.646c-1.596 2.052-4.027 3.268-6.497 3.268-4.56 0-8.17-3.95-8.17-8.396 0-4.483 3.6-8.436 8.17-8.436 7.94 0 8.663 8.17 8.663 14.172 0 7.105-1.52 14.2-8.663 14.2zm0-26.216c-3.268 0-5.965 2.888-5.965 6.27 0 3.343 2.697 6.23 5.965 6.23 2.964 0 6.08-2.62 6.08-6.46-.684-3.23-2.204-6.04-6.08-6.04zm21.736 26.216c-8.055 0-8.13-9.65-8.13-15.197 0-5.434.836-13.185 8.093-13.185 7.105 0 8.17 7.295 8.17 13.185 0 5.5-.114 15.197-8.13 15.197zm5.965-15.197c0-5.434-.76-11.02-5.965-11.02-5.7 0-5.965 7-5.965 11.02v2.432c0 4.407.836 10.6 5.927 10.6 5.205 0 6.003-6.193 6.003-10.6v-2.432z"/><use xlink:href="#Z" x="585.61"/><use xlink:href="#e" x="265.92"/><use xlink:href="#W" x="681.14"/><use xlink:href="#Y" x="682.127"/><use xlink:href="#a" x="576.754"/><path d="M891.947 108.245L881.65 132.6c-.76 1.786-2.317 2.28-4.064 2.28h-1.672c-.685 0-1.064-.57-1.064-1.102 0-.494.38-1.063 1.064-1.063h1.672c.835 0 1.71-.038 2.05-.912l2.166-5.167-7.865-18.4c-.075-.2-.075-.342-.075-.494 0-.607.53-1.025 1.102-1.025.342 0 .76.15.95.646l7.066 16.5 6.99-16.5c.19-.494.607-.646.987-.646.57 0 1.064.418 1.064 1.025 0 .152 0 .304-.076.494z"/></g></g><defs ><path id="D" d="M104.714 1045.51c-.633 0-1.267-.367-1.4-1.1-1.334 1.034-2.97 1.668-4.804 1.668-4.136 0-7.604-3.436-7.604-7.605v-9.24a1.37 1.37 0 0 1 1.4-1.435c.768 0 1.468.5 1.468 1.4v9.272c0 2.602 2.168 4.77 4.736 4.77 2.603 0 4.77-2.17 4.77-4.77v-9.24c0-1.034.667-1.468 1.4-1.468.768 0 1.435.5 1.435 1.435v14.9c0 .934-.667 1.4-1.4 1.4z"/><path id="E" d="M830.985 1046.318c-3.22 0-5.02-2.64-5.02-5.66 0-3 1.8-5.64 5.02-5.64s5.02 2.64 5.02 5.64c0 3.02-1.8 5.66-5.02 5.66zm0-10.162c-2.36 0-3.88 1.9-3.88 4.5s1.52 4.52 3.88 4.52c2.38 0 3.88-1.92 3.88-4.52s-1.5-4.5-3.88-4.5z"/><path id="F" d="M846.766 1045.978c-.28 0-.58-.2-.58-.56v-.64c-.84.98-2.06 1.54-3.42 1.54-2.48 0-4.56-2.08-4.56-4.56v-5.842c0-.36.3-.56.58-.56.26 0 .56.2.56.56v5.842c0 1.9 1.52 3.42 3.42 3.42s3.42-1.52 3.42-3.42v-5.842c0-.36.3-.56.58-.56.26 0 .56.2.56.56v9.502c0 .36-.3.56-.56.56z"/><path id="G" d="M854.725 1036.336a3.42 3.42 0 0 0-3.421 3.42v5.66c0 .36-.3.56-.56.56-.28 0-.58-.2-.58-.56v-9.502c0-.36.3-.56.58-.56.26 0 .56.2.56.56v.82c.9-.98 2.08-1.54 3.42-1.54.36 0 .58.3.58.56a.58.58 0 0 1-.58.581z"/><path id="H" d="M1026.944 1045.978h-.02c-.66 0-1.6-.36-1.98-1.56-.84 1.18-2.14 1.9-3.88 1.9-3.26 0-5.02-2.68-5.02-5.66 0-3.02 1.8-5.64 5.02-5.64 1.74 0 3.04.72 3.88 1.88v-.98c0-.32.26-.56.58-.56.28 0 .56.2.56.56v8.063c0 1.28 1.44.48 1.44 1.44a.55.55 0 0 1-.58.561zm-5.88-9.822c-2.36 0-3.88 1.9-3.88 4.5s1.52 4.52 3.88 4.52c2.38 0 3.88-1.92 3.88-4.52s-1.5-4.5-3.88-4.5z"/><path id="I" d="M958.77 238.07c-9 0-9-10.67-9-16.804 0-5.923.925-14.576 8.948-14.576s9.03 8.443 9.03 14.576c0 6.386-.168 16.804-8.99 16.804zm5.377-16.804c0-3.696-.084-10.964-5.377-10.964s-5.377 7.268-5.377 10.964v2.353c0 4.37.588 10.88 5.335 10.88 4.83 0 5.42-6.51 5.42-10.88v-2.353z"/><path id="J" d="M921.233 265.9c-2.784 0-4.863-1.152-6.207-3.04v8.288c0 .575-.48.928-.896.928-.448 0-.928-.353-.928-.928V249.26c0-.576.48-.896.928-.896.416 0 .896.32.896.896v1.567c1.344-1.855 3.423-3.008 6.207-3.008 5.15 0 8.03 4.225 8.03 9.023 0 4.832-2.88 9.056-8.03 9.056zm0-16.255c-3.808 0-6.207 3.04-6.207 7.2s2.4 7.23 6.207 7.23 6.208-3.07 6.208-7.23-2.4-7.2-6.208-7.2z"/><path id="K" d="M947.505 257.773h-13.28c.288 3.647 2.656 6.303 6.144 6.303 1.73 0 3.776-.768 4.704-2.207.224-.353.48-.448.768-.448.48 0 .992.384.992.863 0 .288 0 .353-.607 1.057-1.473 1.728-3.616 2.56-5.856 2.56-5.15 0-8.03-4.224-8.03-9.056 0-4.8 2.88-9.023 8.03-9.023s8.032 4.256 8.032 9.023c0 .48-.448.93-.896.93zm-7.136-8.128c-3.84 0-5.855 2.944-6.144 6.304h12.32c-.288-3.647-2.655-6.304-6.176-6.304z"/><path id="L" d="M434.493 439.85c-1.825 0-3.314-1.657-3.314-3.692s1.49-3.672 3.314-3.672c1.805 0 3.295 1.637 3.295 3.672s-1.5 3.692-3.295 3.692zm0-5.58c-.67 0-1.5.672-1.5 1.89s.84 1.888 1.5 1.888 1.51-.67 1.51-1.888-.84-1.89-1.51-1.89zm8.75-1.027l-3.86 13.89c-.104.462-.46.672-.818.672-.482 0-.943-.336-.943-.882 0-.062 0-.168.02-.25l3.882-13.91c.126-.44.482-.65.84-.65.44 0 .923.315.923.84 0 .105-.02.188-.042.294zm2.98 14.183c-1.804 0-3.294-1.657-3.294-3.692 0-2.015 1.5-3.672 3.294-3.672 1.825 0 3.315 1.657 3.315 3.672 0 2.035-1.5 3.692-3.315 3.692zm0-5.58c-.65 0-1.49.672-1.49 1.89 0 1.237.84 1.91 1.49 1.91.672 0 1.51-.672 1.51-1.91 0-1.217-.84-1.89-1.51-1.89z"/><path id="M" d="M42.938 230.955a7.01 7.01 0 0 1 7 7 7.01 7.01 0 0 1-7 7 7.01 7.01 0 0 1-7-7 7.01 7.01 0 0 1 7-7m0-2a9 9 0 1 0 0 18 9 9 0 1 0 0-18z"/><path id="N" d="M423.8 977.645c-4.01 0-5.915-3.74-5.915-12.612s1.904-12.613 5.915-12.613 5.916 3.74 5.916 12.613-1.904 12.612-5.916 12.612zm0-23.186c-2.243 0-3.468 2.516-3.468 10.573s1.225 10.572 3.468 10.572 3.468-2.516 3.468-10.572-1.224-10.573-3.468-10.573z"/><path id="O" d="M771.066 977.645c-4.012 0-5.915-3.74-5.915-12.612s1.903-12.613 5.915-12.613 5.916 3.74 5.916 12.613-1.904 12.612-5.916 12.612zm0-23.186c-2.243 0-3.467 2.516-3.467 10.573s1.224 10.572 3.467 10.572 3.468-2.516 3.468-10.572-1.224-10.573-3.468-10.573z"/><path id="P" d="M111.34 78.9h-1.02c-5.7 0-7.86-3-7.86-7.92v-18.84h-1.8c-1.44 0-2.58-1.14-2.58-2.52 0-1.44 1.14-2.58 2.52-2.58h1.8v-8.34c0-1.68 1.26-2.52 2.58-2.52s2.52.84 2.52 2.52v8.34h3.84c1.68 0 2.52 1.38 2.52 2.52 0 1.44-.96 2.58-2.52 2.58h-3.84v19.38c0 1.68.6 2.28 2.28 2.28h1.5c1.56 0 2.58 1.14 2.58 2.52 0 1.44-.96 2.58-2.52 2.58z"/><path id="Q" d="M131.738 51.12c-4.62 0-8.52 3.9-8.52 8.58v16.62c0 1.68-1.26 2.58-2.64 2.58-1.26 0-2.52-.9-2.52-2.52V49.62c0-1.68 1.38-2.58 2.52-2.58 1.2 0 2.34.66 2.58 2.04 2.34-1.92 5.52-3.06 8.58-3.06 1.74 0 2.64 1.2 2.64 2.58 0 1.32-.9 2.52-2.64 2.52z"/><path id="R" d="M161.438 65.58h-22.2c.84 5.64 4.44 9.24 9.72 9.24 2.7 0 5.4-.96 7.14-3.12.54-.6 1.14-.96 1.86-.96 1.32 0 2.7 1.2 2.7 2.64 0 .72-.18 1.26-1.44 2.52-2.7 2.64-6.42 4.02-10.26 4.02-9.66 0-15.06-7.98-15.06-16.98 0-8.94 5.4-16.92 15.06-16.92 9.78 0 15 7.98 15 16.92 0 1.32-.96 2.64-2.52 2.64zm-12.48-14.46c-5.64 0-8.94 4.14-9.72 9.3h19.44c-.84-5.76-4.44-9.3-9.72-9.3z"/><path id="S" d="M469.173 42.182a4.3 4.3 0 1 1 0-8.64 4.3 4.3 0 1 1 0 8.64zm0 36.72c-1.32 0-2.64-.9-2.64-2.52V49.62c0-1.68 1.32-2.58 2.64-2.58 1.26 0 2.52.9 2.52 2.58v26.76c0 1.68-1.26 2.52-2.52 2.52z"/><path id="T" d="M488.072 79.92c-3.3 0-8.82-1.02-11.64-4.5-.36-.54-.54-1.08-.54-1.56 0-1.5 1.44-2.7 2.7-2.7.72 0 1.26.36 1.86 1.02 1.86 2.04 4.92 2.64 7.62 2.64 5.4 0 7.14-1.86 7.14-4.56 0-7.68-18.3-2.94-18.3-15.3 0-6.54 6.12-8.94 11.82-8.94 3.24 0 10.86 1.62 10.86 4.98 0 1.32-1.08 2.7-2.52 2.7-.54 0-1.38-.3-1.98-.78-1.62-1.38-3.96-1.8-6.36-1.8-4.98 0-6.72 1.86-6.72 3.84 0 7.14 18.36 2.52 18.36 15.3 0 7.08-5.94 9.66-12.3 9.66z"/><path id="U" d="M579.21 65.58h-22.2c.84 5.64 4.44 9.24 9.72 9.24 2.7 0 5.4-.96 7.14-3.12.54-.6 1.14-.96 1.86-.96 1.32 0 2.7 1.2 2.7 2.64 0 .72-.18 1.26-1.44 2.52-2.7 2.64-6.42 4.02-10.26 4.02-9.66 0-15.06-7.98-15.06-16.98 0-8.94 5.4-16.92 15.06-16.92 9.78 0 15 7.98 15 16.92 0 1.32-.96 2.64-2.52 2.64zm-12.48-14.46c-5.64 0-8.94 4.14-9.72 9.3h19.438c-.84-5.76-4.44-9.3-9.72-9.3z"/><path id="V" d="M114.33 127.546c-6.117 0-9.536-5.015-9.536-10.752 0-5.7 3.42-10.715 9.536-10.715s9.537 5.016 9.537 10.715c0 5.737-3.42 10.752-9.537 10.752zm0-19.3c-4.483 0-7.37 3.61-7.37 8.55s2.888 8.587 7.37 8.587c4.52 0 7.37-3.647 7.37-8.587s-2.85-8.55-7.37-8.55z"/><path id="W" d="M136.292 108.587c-3.57 0-6.497 2.888-6.497 6.497v10.753c0 .684-.57 1.063-1.063 1.063-.532 0-1.103-.38-1.103-1.063V107.79c0-.684.57-1.063 1.103-1.063.494 0 1.063.38 1.063 1.063v1.558c1.7-1.86 3.95-2.925 6.497-2.925.684 0 1.102.57 1.102 1.063 0 .532-.418 1.102-1.102 1.102z"/><path id="X" d="M143.17 127.128c-2.052 0-3.762-1.9-3.762-4.027v-22.188c0-.684.57-1.063 1.103-1.063.494 0 1.063.38 1.063 1.063V123.1c0 2.432 2.697 1.026 2.697 2.736 0 .645-.455 1.29-1.102 1.29z"/><path id="Y" d="M164.106 126.9c-.532 0-1.102-.38-1.102-1.063v-1.9c-1.596 2.242-4.065 3.61-7.37 3.61-6.117 0-9.536-5.015-9.536-10.752 0-5.7 3.42-10.715 9.536-10.715 3.306 0 5.775 1.368 7.37 3.572v-8.74c0-.684.57-1.063 1.102-1.063.494 0 1.064.38 1.064 1.063v24.925c0 .684-.57 1.063-1.064 1.063zm-8.473-18.655c-4.483 0-7.37 3.61-7.37 8.55s2.888 8.587 7.37 8.587c4.52 0 7.37-3.647 7.37-8.587s-2.85-8.55-7.37-8.55z"/><path id="Z" d="M187.895 127.546c-3.306 0-5.775-1.367-7.37-3.61v9.84c0 .684-.57 1.102-1.063 1.102-.532 0-1.103-.418-1.103-1.102V107.79c0-.684.57-1.063 1.103-1.063.494 0 1.063.38 1.063 1.063v1.862c1.596-2.204 4.065-3.572 7.37-3.572 6.117 0 9.536 5.016 9.536 10.715 0 5.737-3.42 10.752-9.536 10.752zm0-19.3c-4.52 0-7.37 3.61-7.37 8.55s2.85 8.587 7.37 8.587 7.37-3.647 7.37-8.587-2.85-8.55-7.37-8.55z"/><path id="a" d="M295.016 126.9h-.038c-1.254 0-3.04-.684-3.762-2.964-1.596 2.242-4.065 3.61-7.37 3.61-6.193 0-9.536-5.09-9.536-10.752 0-5.737 3.42-10.715 9.536-10.715 3.306 0 5.775 1.368 7.37 3.572v-1.862c0-.607.494-1.063 1.102-1.063.532 0 1.064.38 1.064 1.063V123.1c0 2.432 2.735.912 2.735 2.736a1.04 1.04 0 0 1-1.102 1.063zm-11.17-18.655c-4.483 0-7.37 3.61-7.37 8.55s2.888 8.587 7.37 8.587c4.52 0 7.37-3.647 7.37-8.587s-2.85-8.55-7.37-8.55z"/><path id="b" d="M305.77 126.9h-1.178c-3 0-4.483-1.48-4.483-4.445V108.89h-1.937c-.684 0-1.063-.57-1.063-1.102 0-.494.38-1.063 1.063-1.063h1.938v-5.813c0-.684.57-1.063 1.103-1.063s1.063.38 1.063 1.063v5.813h3.495c.685 0 1.064.57 1.064 1.063 0 .532-.38 1.102-1.064 1.102h-3.495v13.564c0 1.86.532 2.28 2.317 2.28h1.178c.685 0 1.064.57 1.064 1.103 0 .493-.38 1.063-1.064 1.063z"/><path id="c" d="M310.636 103.078a2.14 2.14 0 1 1 0-4.332 2.14 2.14 0 0 1 0 4.332zm0 23.822c-.532 0-1.103-.342-1.103-1.063V107.79c0-.684.532-1.063 1.103-1.063.494 0 1.063.342 1.063 1.063v18.048c0 .684-.494 1.063-1.063 1.063z"/><path id="d" d="M354.56 126.9c-.53 0-1.102-.38-1.102-1.063v-11.095a6.47 6.47 0 0 0-6.497-6.497c-3.57 0-6.497 2.888-6.497 6.497v11.095c0 .684-.57 1.063-1.063 1.063-.532 0-1.103-.38-1.103-1.063V107.79c0-.684.57-1.063 1.103-1.063.494 0 1.063.38 1.063 1.063v1.216c1.7-1.86 3.95-2.926 6.497-2.926 4.71 0 8.663 3.914 8.663 8.663v11.095c0 .684-.57 1.063-1.064 1.063z"/><path id="e" d="M538.02 117.896h-15.768c.342 4.332 3.153 7.485 7.295 7.485 2.052 0 4.483-.912 5.585-2.622.267-.418.57-.53.912-.53.57 0 1.178.455 1.178 1.025 0 .342 0 .418-.722 1.254-1.748 2.052-4.293 3.04-6.953 3.04-6.117 0-9.536-5.015-9.536-10.752 0-5.7 3.42-10.715 9.536-10.715s9.537 5.054 9.537 10.715c0 .57-.532 1.102-1.064 1.102zm-8.473-9.65c-4.56 0-6.953 3.495-7.295 7.485h14.628c-.342-4.332-3.153-7.485-7.333-7.485z"/></defs></svg>