<svg xmlns="http://www.w3.org/2000/svg" xmlns:xlink="http://www.w3.org/1999/xlink" viewBox="0 0 1080 1080"><linearGradient id="A" gradientUnits="userSpaceOnUse" x1="11.716" y1="11.716" x2="1068.284" y2="1068.284"><stop offset="0" stop-color="#1a2980"/><stop offset=".086" stop-color="#1b3a86"/><stop offset=".396" stop-color="#1f719c"/><stop offset=".662" stop-color="#229aab"/><stop offset=".872" stop-color="#23b3b5"/><stop offset="1" stop-color="#24bcb8"/></linearGradient><path d="M1040 1080H40c-22.09 0-40-17.91-40-40V40C0 17.91 17.91 0 40 0h1000c22.09 0 40 17.91 40 40v1000c0 22.09-17.91 40-40 40z" fill="url(#A)"/><g fill="none" stroke="#fff" stroke-width="3" stroke-linecap="round" stroke-miterlimit="10"><path d="M454.208 320.01h521.727" stroke-dasharray="3,9"/><path d="M105.96 774.982h1.5"/><path d="M116.48 774.982h584.82" stroke-dasharray="3.00679,9.02037"/><path d="M705.812 774.982h1.5"/></g><g fill="#fff"><path d="M602.127 286.665h24.805v-71.24a10.47 10.47 0 0 0-10.468-10.468H462.798a10.47 10.47 0 0 0-10.468 10.468v71.24h149.797z" opacity=".1"/><path d="M478.706 286.665l-95.377 115.68c-10.496 12.73-19.085 36.647-19.085 53.147v80.752c0 18.658 9.672 35.295 24.09 46.052-14.32 9.56-23.498 25.3-23.498 43.084 0 16.89 8.558 31.937 21.673 41.597-13.115 9.66-21.525 24.708-21.525 41.597 0 17.782 9.007 33.525 23.326 43.084-14.416 10.755-24.064 27.394-24.064 46.052v95.077c0 32.357 28.66 59.423 62.92 59.423h62.92v-.977c10.473 7.59 23.56 12.862 37.752 12.862H553c14.192 0 27.28-5.27 37.75-12.862v.977h62.92c34.26 0 61.346-27.068 61.346-59.423V797.7c0-18.658-8.886-35.295-23.302-46.052 14.32-9.56 23.894-25.304 23.894-43.087 0-16.89-8.36-31.937-21.476-41.597 13.115-9.66 21.624-24.708 21.624-41.597 0-17.782-9.744-33.525-24.063-43.084 14.416-10.755 23.326-27.394 23.326-46.052v-80.75c0-16.5-8.517-40.474-18.927-53.276l-93.963-115.55h-123.42z" opacity=".4"/></g><g opacity=".55"><linearGradient id="B" gradientUnits="userSpaceOnUse" x1="364.244" y1="642.054" x2="715.756" y2="642.054"><stop offset="0" stop-color="#fff"/><stop offset="1" stop-color="#33ebff"/></linearGradient><path d="M715.756 625.378c0-17.782-9.744-33.525-24.063-43.084 14.417-10.755 23.326-27.394 23.326-46.052v-80.75c0-16.5-8.517-40.474-18.927-53.276l-66.847-82.205h-178.03l-67.884 82.334c-10.496 12.73-19.084 36.647-19.084 53.147v80.752c0 18.658 9.672 35.295 24.09 46.052-14.32 9.56-23.498 25.3-23.498 43.084 0 16.89 8.557 31.937 21.673 41.597-13.115 9.66-21.525 24.708-21.525 41.597 0 17.782 9.007 33.525 23.326 43.084-14.416 10.755-24.063 27.394-24.063 46.052v95.077c0 32.357 28.66 59.423 62.92 59.423h62.92v-.977c10.473 7.59 23.56 12.862 37.75 12.862H553c14.192 0 27.28-5.27 37.75-12.862v.977h62.92c34.26 0 61.345-27.068 61.345-59.423V797.7c0-18.658-8.886-35.295-23.302-46.052 14.32-9.56 23.894-25.304 23.894-43.087 0-16.89-8.36-31.937-21.476-41.597 13.115-9.66 21.624-24.707 21.624-41.597z" fill="url(#B)"/></g><path d="M873.766 358.553c-.324 0-.612-.216-.864-.576l-14.074-20.77v20.302c0 .648-.54 1.008-1.008 1.008-.504 0-1.044-.36-1.044-1.008v-23.613a1.11 1.11 0 0 1 1.08-1.08c.324 0 .612.216.864.576l14.074 20.77v-20.266c0-.648.54-1.008 1.008-1.008.504 0 1.044.36 1.044 1.008v23.613c0 .612-.54 1.044-1.08 1.044zm13.68.575c-5.795 0-9.035-4.75-9.035-10.187 0-5.4 3.24-10.15 9.035-10.15s9.035 4.75 9.035 10.15c0 5.435-3.24 10.187-9.035 10.187zm0-18.286c-4.247 0-6.983 3.42-6.983 8.1s2.736 8.135 6.983 8.135c4.283 0 6.983-3.456 6.983-8.135s-2.7-8.1-6.983-8.1zm20.807.325c-3.384 0-6.155 2.735-6.155 6.155v10.187c0 .648-.54 1.008-1.008 1.008-.504 0-1.044-.36-1.044-1.008v-17.1c0-.647.54-1.008 1.044-1.008.468 0 1.008.36 1.008 1.008v1.476c1.62-1.764 3.744-2.77 6.155-2.77.648 0 1.044.54 1.044 1.008 0 .504-.396 1.044-1.044 1.044zm26.638-.432l-5.867 16.918c-.252.684-.576.864-1.044.864-.612 0-.792-.216-1.008-.864l-4.716-14.04-4.716 14.04c-.252.684-.575.864-1.043.864s-.828-.288-1-.864l-5.83-16.918c-.036-.108-.07-.288-.07-.396 0-.576.575-.936 1.043-.936.36 0 .792.18.937.684l4.932 14.254 4.715-14.074c.216-.684.432-.864 1.044-.864.432 0 .792.144 1.008.864l4.787 14.074 4.86-14.254c.18-.504.54-.684.937-.684.54 0 1.115.36 1.115.972a1.06 1.06 0 0 1-.071.36zm21.6 17.782h-.036c-1.187 0-2.88-.648-3.563-2.808-1.512 2.124-3.852 3.42-6.983 3.42-5.867 0-9.035-4.823-9.035-10.187 0-5.436 3.24-10.15 9.035-10.15 3.132 0 5.472 1.296 6.983 3.384v-1.764c0-.576.468-1.008 1.044-1.008.504 0 1.008.36 1.008 1.008v14.506c0 2.304 2.592.864 2.592 2.592 0 .468-.324 1.008-1.044 1.008zM945.9 340.843c-4.247 0-6.983 3.42-6.983 8.1s2.736 8.135 6.983 8.135c4.283 0 6.983-3.456 6.983-8.135s-2.7-8.1-6.983-8.1zm29.7 0l-9.755 23.073c-.72 1.692-2.196 2.16-3.852 2.16h-1.584c-.648 0-1.008-.54-1.008-1.044 0-.468.36-1.008 1.008-1.008h1.584c.792 0 1.62-.036 1.943-.864l2.052-4.896-7.45-17.422c-.07-.18-.07-.324-.07-.468 0-.576.504-.972 1.043-.972.324 0 .72.144.9.612l6.695 15.622 6.623-15.622c.18-.468.576-.612.936-.612.54 0 1.008.396 1.008.972 0 .144 0 .288-.07.468z" fill="#80f6ff"/><g fill="#fff"><path d="M912.94 408.933c-3.984 0-6.865-1.728-8.833-4.752-.336-.432-.48-.816-.48-1.248 0-1.104 1.056-1.968 2.16-1.968.575 0 1.248.24 1.68.912 1.248 1.92 2.93 2.977 5.473 2.977 4.608 0 6.673-4.128 6.864-13.25-1.584 1.536-4.08 2.736-6.864 2.736-5.713 0-10.273-4.992-10.273-10.6 0-5.665 4.56-10.657 10.273-10.657 10.13 0 10.944 10.37 10.944 17.905 0 8.977-1.968 17.954-10.944 17.954zm0-31.73c-3.265 0-6.192 2.928-6.192 6.528 0 3.552 2.928 6.48 6.192 6.48 3.36 0 6.145-2.832 6.288-6.625-.576-3.696-2.544-6.384-6.288-6.384zm32.93 1.15l-11.04 28.467c-.385.96-.96 1.344-1.776 1.344-1.057 0-2.16-.816-2.16-2.016 0-.288.096-.528.2-.816l10.465-27.314h-12.816c-1.057 0-2.017-.768-2.017-2.064a2.03 2.03 0 0 1 2.017-2.017h15.793c1.057 0 2.112.672 2.112 2.064 0 .576-.624 1.872-.768 2.352zm9.777 3.676c-2.435 0-4.42-2.2-4.42-4.925s1.986-4.897 4.42-4.897c2.407 0 4.394 2.183 4.394 4.897s-1.986 4.925-4.394 4.925zm0-7.444c-.896 0-2.015.896-2.015 2.52s1.12 2.52 2.015 2.52 2.016-.896 2.016-2.52-1.12-2.52-2.016-2.52zm11.67-1.37l-5.15 18.526c-.14.615-.615.896-1.1.896-.644 0-1.26-.448-1.26-1.176 0-.084 0-.224.028-.335l5.177-18.554a1.14 1.14 0 0 1 1.119-.868c.588 0 1.23.42 1.23 1.12 0 .14-.027.252-.056.392zm3.974 18.917c-2.406 0-4.394-2.2-4.394-4.925 0-2.687 1.987-4.897 4.394-4.897 2.435 0 4.422 2.2 4.422 4.897 0 2.714-1.987 4.925-4.422 4.925zm0-7.444c-.867 0-1.986.896-1.986 2.52 0 1.65 1.12 2.546 1.986 2.546.896 0 2.015-.896 2.015-2.546 0-1.623-1.12-2.52-2.015-2.52z"/><use xlink:href="#D" opacity=".75"/><use xlink:href="#E" opacity=".75"/><use xlink:href="#F" opacity=".75"/><path d="M863.44 421.97l-7.588 17.948c-.56 1.316-1.708 1.68-2.996 1.68h-1.232c-.504 0-.784-.42-.784-.812 0-.364.28-.784.784-.784h1.232c.616 0 1.26-.028 1.512-.672l1.596-3.808-5.796-13.552c-.056-.14-.056-.252-.056-.364 0-.448.392-.756.812-.756.252 0 .56.112.7.476l5.208 12.152 5.152-12.152c.14-.364.448-.476.728-.476.42 0 .784.308.784.756 0 .112 0 .224-.056.364z" opacity=".75"/><use xlink:href="#F" x="27.952" opacity=".75"/><path d="M882.085 435.885c-1.513 0-2.772-1.4-2.772-2.968v-16.352c0-.504.42-.784.813-.784.363 0 .783.28.783.784v16.352c0 1.792 1.988.756 1.988 2.016 0 .476-.336.952-.812.952zm3.613-17.725c-.896 0-1.597-.7-1.597-1.596s.7-1.596 1.597-1.596 1.596.7 1.596 1.596-.7 1.596-1.596 1.596zm0 17.556c-.393 0-.812-.252-.812-.784v-13.3c0-.504.393-.784.813-.784.363 0 .783.252.783.784v13.3c0 .504-.363.784-.783.784zm16.184.001c-.393 0-.812-.28-.812-.784v-8.176a4.77 4.77 0 0 0-4.788-4.788c-2.632 0-4.788 2.128-4.788 4.788v8.176c0 .504-.42.784-.783.784-.393 0-.812-.28-.812-.784v-13.3c0-.504.42-.784.813-.784.363 0 .783.28.783.784v.896c1.26-1.372 2.912-2.156 4.788-2.156a6.44 6.44 0 0 1 6.385 6.384v8.176c0 .504-.42.784-.784.784zm10.33 6.383c-2.38 0-5.74-.896-5.74-1.904 0-.448.363-.896.812-.896.308 0 .952.476 1.484.672.728.252 1.876.532 3.443.532 3.584 0 5.433-1.764 5.433-5.208v-1.96c-1.232 1.484-2.996 2.38-5.433 2.38-4.424 0-7.027-3.136-7.027-7.448 0-4.2 2.52-7.896 7.027-7.896 2.437 0 4.256 1.008 5.433 2.632v-1.344c0-.504.42-.784.812-.784.364 0 .784.28.784.784v13.636c0 4.452-2.66 6.804-7.028 6.804zm0-20.132c-3.304 0-5.432 2.66-5.432 6.3 0 3.612 1.988 5.852 5.432 5.852s5.433-2.24 5.433-5.852c0-3.64-2.1-6.3-5.433-6.3z" opacity=".75"/><use xlink:href="#D" x="117.903" opacity=".75"/><path d="M951.604 435.717h-.028c-.924 0-2.24-.504-2.77-2.184-1.177 1.652-2.996 2.66-5.433 2.66-4.563 0-7.027-3.752-7.027-7.924 0-4.228 2.52-7.896 7.027-7.896 2.437 0 4.256 1.008 5.433 2.632v-1.372c0-.448.363-.784.812-.784.393 0 .784.28.784.784v11.284c0 1.792 2.016.672 2.016 2.016a.77.77 0 0 1-.812.784zm-8.232-13.748c-3.304 0-5.432 2.66-5.432 6.3s2.128 6.328 5.432 6.328c3.332 0 5.433-2.688 5.433-6.328s-2.1-6.3-5.433-6.3zm16.156 13.748h-.868c-2.212 0-3.304-1.092-3.304-3.276v-9.996h-1.428c-.504 0-.784-.42-.784-.812 0-.364.28-.784.784-.784h1.428v-4.284c0-.504.42-.784.812-.784s.784.28.784.784v4.284h2.576c.504 0 .784.42.784.784 0 .392-.28.812-.784.812h-2.576v9.996c0 1.372.393 1.68 1.708 1.68h.868c.504 0 .784.42.784.812 0 .364-.28.784-.784.784z" opacity=".75"/><use xlink:href="#E" x="141.531" opacity=".75"/></g><g fill="#80f6ff"><path d="M112.693 822.026c-4.932 0-9.035-3.96-9.035-9.035v-16.234c0-.647.54-1.008 1.044-1.008s1.044.36 1.044 1.008v16.234c0 3.815 3.132 6.983 6.947 6.983a7.04 7.04 0 0 0 6.982-6.983v-16.234c0-.647.54-1.008 1.044-1.008.47 0 1.008.36 1.008 1.008v16.234c0 4.932-3.96 9.035-9.034 9.035zm28.654-.648c-.504 0-1.044-.36-1.044-1.008v-10.5a6.13 6.13 0 0 0-6.155-6.155c-3.384 0-6.155 2.736-6.155 6.155v10.5c0 .648-.54 1.008-1.008 1.008-.504 0-1.044-.36-1.044-1.008v-17.098c0-.647.54-1.008 1.044-1.008.468 0 1.008.36 1.008 1.008v1.15c1.62-1.764 3.744-2.77 6.155-2.77 4.464 0 8.207 3.708 8.207 8.207v10.5c0 .648-.54 1.008-1.008 1.008zm6.12-22.568a2.03 2.03 0 1 1 0-4.104c1.152 0 2.052.9 2.052 2.052s-.9 2.052-2.052 2.052zm0 22.57c-.504 0-1.044-.323-1.044-1.008v-17.098c0-.647.504-1.008 1.044-1.008.468 0 1.008.324 1.008 1.008v17.098a.96.96 0 0 1-1.008 1.008z"/><use xlink:href="#G"/><use xlink:href="#H"/><path d="M200.062 821.378c-.504 0-1.044-.36-1.044-1.008v-1.8c-1.512 2.124-3.852 3.42-6.983 3.42-5.795 0-9.035-4.752-9.035-10.187 0-5.4 3.24-10.15 9.035-10.15 3.132 0 5.472 1.296 6.983 3.384v-8.28c0-.647.54-1.008 1.044-1.008.468 0 1.008.36 1.008 1.008v23.613c0 .648-.54 1.008-1.008 1.008zm-8.027-17.674c-4.247 0-6.983 3.42-6.983 8.1s2.736 8.135 6.983 8.135c4.283 0 6.983-3.456 6.983-8.135s-2.7-8.1-6.983-8.1zM221.014 822c-2.77 0-6.55-1.116-8.603-3.168-.252-.252-.324-.468-.324-.72 0-.54.504-1.044 1.044-1.044.432 0 .396.108 1.15.684 1.908 1.404 4.284 2.196 6.73 2.196 4.535 0 7.163-1.692 7.163-4.932 0-8.53-15.226-3.78-15.226-13.606 0-4.32 3.78-6.3 8.423-6.3 2.592 0 6.227 1.116 7.847 3.384.144.216.216.396.216.6 0 .576-.504 1.008-1.08 1.008-.504 0-.504-.144-1.115-.756-1.512-1.512-3.744-2.195-5.867-2.195-4.284 0-6.37 1.655-6.37 4.247 0 7.74 15.226 3.24 15.226 13.606 0 5.004-4.392 6.983-9.215 6.983zm18.684-.622h-1.115c-2.844 0-4.248-1.403-4.248-4.2v-12.85H232.5c-.648 0-1.008-.54-1.008-1.044 0-.468.36-1.008 1.008-1.008h1.835v-5.508c0-.647.54-1.008 1.044-1.008s1.008.36 1.008 1.008v5.508h3.312c.648 0 1 .54 1 1.008 0 .504-.36 1.044-1 1.044h-3.312v12.85c0 1.764.504 2.16 2.196 2.16h1.115c.648 0 1 .54 1 1.044 0 .468-.36 1.008-1 1.008zm22.354 0h-.036c-1.187 0-2.88-.647-3.563-2.808-1.512 2.124-3.852 3.42-6.983 3.42-5.867 0-9.035-4.823-9.035-10.187 0-5.436 3.24-10.15 9.035-10.15 3.132 0 5.472 1.296 6.983 3.384v-1.764c0-.576.468-1.008 1.044-1.008.504 0 1.008.36 1.008 1.008v14.506c0 2.304 2.592.864 2.592 2.592 0 .468-.324 1.008-1.044 1.008zm-10.583-17.674c-4.247 0-6.983 3.42-6.983 8.1s2.736 8.135 6.983 8.135c4.283 0 6.983-3.456 6.983-8.135s-2.7-8.1-6.983-8.1z"/><use xlink:href="#G" x="112.787"/><use xlink:href="#H" x="112.786"/><path d="M302.625 822.063c-2.16 0-5.796-.756-7.056-2.844-.144-.216-.144-.396-.144-.54 0-.576.504-1.08 1.044-1.08.216 0 .576.18.792.504 1.296 1.584 3.6 1.908 5.363 1.908 3.49 0 5.255-1.152 5.255-3.492 0-5.436-11.807-2.556-11.807-9.755 0-3.635 3.636-5.04 6.91-5.04 1.872 0 4.752.647 6.19 2.088.216.216.324.468.324.684 0 .54-.54 1.08-1.116 1.08-.216 0-.468-.072-.684-.288-1.116-1.08-3.132-1.512-4.716-1.512-3.167 0-4.86 1.224-4.86 2.987 0 5.04 11.807 2.376 11.807 9.755 0 4.104-3.6 5.544-7.307 5.544z"/></g><g fill="#fff"><path d="M113.224 871.794c-3.697 0-6.96-1.92-8.737-4.896-.24-.384-.336-.768-.336-1.104 0-1.152 1.008-2.017 2.112-2.017.624 0 1.296.24 1.73.96a5.93 5.93 0 0 0 5.184 2.977c3.6 0 6.577-2.977 6.577-6.48 0-3.6-2.93-6.576-6.528-6.576h-.05c-1.248 0-2.016-.96-2.016-2.017s.815-2.064 2.064-2.064a5.2 5.2 0 0 0 5.28-5.28c0-2.88-2.353-5.232-5.28-5.232-4.657 0-4.705 4.704-7.2 4.704-1.104 0-2.16-.863-2.16-2.016a2.12 2.12 0 0 1 .336-1.152c1.152-1.776 4.032-5.664 9.025-5.664 5.184 0 9.36 4.224 9.36 9.36 0 2.93-1.248 5.473-3.408 7.2 2.784 1.92 4.656 5.04 4.656 8.688 0 5.856-4.752 10.608-10.608 10.608zm24.286 0c-10.272 0-10.272-12.192-10.272-19.2 0-6.77 1.056-16.657 10.225-16.657s10.32 9.648 10.32 16.657c0 7.297-.2 19.2-10.272 19.2zm6.145-19.2c0-4.225-.096-12.53-6.145-12.53s-6.145 8.305-6.145 12.53v2.688c0 4.992.672 12.433 6.097 12.433 5.52 0 6.192-7.44 6.192-12.433v-2.688zm11.123-7.702c-2.435 0-4.42-2.2-4.42-4.925s1.986-4.897 4.42-4.897c2.407 0 4.394 2.183 4.394 4.897s-1.986 4.925-4.394 4.925zm0-7.443c-.896 0-2.015.896-2.015 2.52s1.12 2.52 2.015 2.52 2.016-.896 2.016-2.52-1.12-2.52-2.016-2.52zm11.67-1.37l-5.15 18.525c-.14.615-.615.896-1.1.896-.644 0-1.26-.447-1.26-1.176 0-.083 0-.224.028-.335l5.177-18.554c.168-.588.644-.868 1.12-.868.588 0 1.23.42 1.23 1.12 0 .14-.027.252-.056.393zm3.974 18.917c-2.406 0-4.394-2.2-4.394-4.925 0-2.687 1.987-4.897 4.394-4.897 2.435 0 4.422 2.2 4.422 4.897 0 2.714-1.987 4.925-4.422 4.925zm0-7.443c-.867 0-1.986.896-1.986 2.52 0 1.65 1.12 2.546 1.986 2.546.896 0 2.015-.896 2.015-2.546 0-1.623-1.12-2.52-2.015-2.52zm639.638 198.804c-1.2 0-3.22-.42-3.92-1.58-.08-.12-.08-.22-.08-.3 0-.32.28-.602.58-.602.12 0 .32.102.44.28.72.88 2 1.06 2.98 1.06 1.94 0 2.92-.64 2.92-1.94 0-3.02-6.562-1.42-6.562-5.422 0-2.02 2.02-2.8 3.84-2.8 1.04 0 2.64.36 3.44 1.16a.56.56 0 0 1 .18.38.65.65 0 0 1-.62.6.53.53 0 0 1-.38-.16c-.62-.6-1.74-.84-2.62-.84-1.76 0-2.7.682-2.7 1.66 0 2.8 6.562 1.32 6.562 5.422 0 2.28-2 3.08-4.06 3.08z"/><use xlink:href="#I"/><path d="M837.362 1045.98c-.28 0-.58-.2-.58-.56v-.64c-.84.98-2.06 1.54-3.42 1.54-2.48 0-4.56-2.08-4.56-4.56v-5.842c0-.36.3-.56.58-.56.26 0 .56.2.56.56v5.842c0 1.9 1.52 3.42 3.42 3.42s3.42-1.52 3.42-3.42v-5.842c0-.36.3-.56.58-.56.26 0 .56.2.56.56v9.502a.56.56 0 0 1-.561.561z"/><use xlink:href="#J"/><use xlink:href="#K"/><use xlink:href="#L"/><path d="M872.66 1039.416c-.64 0-1.16-.5-1.16-1.14s.52-1.14 1.16-1.14c.62 0 1.12.5 1.12 1.14s-.5 1.14-1.12 1.14zm0 6.563c-.64 0-1.16-.5-1.16-1.14s.52-1.14 1.16-1.14c.62 0 1.12.5 1.12 1.14s-.5 1.14-1.12 1.14z"/><use xlink:href="#K" x="34.04"/><path d="M895.28 1046.098c-1.08 0-1.98-1-1.98-2.12v-11.684c0-.36.3-.56.58-.56.26 0 .56.2.56.56v11.684c0 1.28 1.42.54 1.42 1.44 0 .34-.24.68-.58.68z"/><use xlink:href="#M"/><path d="M915.48 1045.98c-.28 0-.56-.2-.56-.56v-6.72c0-1.38-1.16-2.54-2.54-2.54s-2.56 1.16-2.56 2.52v6.742c0 .36-.28.56-.56.56s-.58-.2-.58-.56v-6.72a2.57 2.57 0 0 0-2.521-2.541c-1.4 0-2.56 1.16-2.56 2.52v6.742c0 .36-.3.56-.56.56-.28 0-.58-.2-.58-.56v-9.502c0-.36.3-.56.58-.56.26 0 .56.2.56.56v.12a3.64 3.64 0 0 1 2.54-1.02 3.71 3.71 0 0 1 3.121 1.701c.66-1.02 1.8-1.7 3.1-1.7 2.08 0 3.7 1.64 3.7 3.66v6.742c0 .36-.3.56-.58.56z"/><use xlink:href="#N"/><use xlink:href="#O"/><use xlink:href="#L" x="79.538"/><use xlink:href="#N" x="32.04"/><use xlink:href="#K" x="116.24"/><use xlink:href="#O" x="43.14"/><use xlink:href="#M" x="83.857"/><use xlink:href="#I" x="169.7"/><path d="M1007.24 1045.98c-.28 0-.58-.2-.58-.56v-5.842c0-1.9-1.52-3.42-3.42-3.42a3.42 3.42 0 0 0-3.421 3.42v5.842c0 .36-.3.56-.56.56-.28 0-.58-.2-.58-.56v-9.502c0-.36.3-.56.58-.56.26 0 .56.2.56.56v.64c.9-.98 2.08-1.54 3.42-1.54a4.6 4.6 0 0 1 4.561 4.561v5.842c0 .36-.3.56-.56.56zm4.758 0c-.64 0-1.14-.5-1.14-1.14s.5-1.14 1.14-1.14 1.14.5 1.14 1.14-.5 1.14-1.14 1.14z"/><use xlink:href="#I" x="199.76"/><use xlink:href="#J" x="187.578"/><path d="M1040.3 1050.54c-1.7 0-4.102-.64-4.102-1.36 0-.32.26-.64.58-.64.22 0 .68.34 1.06.48.52.18 1.34.38 2.46.38 2.56 0 3.88-1.26 3.88-3.72v-1.4c-.88 1.06-2.14 1.7-3.88 1.7-3.16 0-5.02-2.24-5.02-5.322 0-3 1.8-5.64 5.02-5.64 1.74 0 3.04.72 3.88 1.88v-.96c0-.36.3-.56.58-.56.26 0 .56.2.56.56v9.742c0 3.182-1.9 4.86-5.02 4.86zm0-14.383c-2.36 0-3.88 1.9-3.88 4.5 0 2.582 1.42 4.182 3.88 4.182s3.88-1.6 3.88-4.182c0-2.6-1.5-4.5-3.88-4.5z"/></g><g opacity=".4" fill="#fff"><path d="M42.328 1046.045c-3.568 0-5.47-1.97-5.503-2.002 0 .935-.7 1.4-1.468 1.4-.7 0-1.4-.467-1.4-1.4v-20.88a1.35 1.35 0 0 1 1.401-1.434c.767 0 1.468.467 1.468 1.4v6.238c1.334-1.368 3.168-2.17 5.503-2.17 5.37 0 8.373 4.403 8.373 9.406 0 5.037-3.002 9.44-8.373 9.44zm0-16c-3.335 0-5.503 2.602-5.503 6.57 0 4.003 2.168 6.604 5.503 6.604s5.504-2.602 5.504-6.604c0-3.97-2.168-6.57-5.504-6.57zm25.555 8.037h-12.34c.467 3.136 2.468 5.137 5.403 5.137 1.5 0 3.002-.533 3.97-1.734.3-.333.634-.533 1.034-.533.734 0 1.5.667 1.5 1.468 0 .4-.1.7-.8 1.4-1.5 1.468-3.57 2.235-5.704 2.235-5.37 0-8.372-4.437-8.372-9.44 0-4.97 3.002-9.406 8.372-9.406 5.437 0 8.34 4.437 8.34 9.406 0 .734-.534 1.468-1.4 1.468zm-6.937-8.038c-3.136 0-4.97 2.3-5.403 5.17H66.35c-.467-3.202-2.468-5.17-5.403-5.17zM88 1045.478c-1.834 0-2.668-1.3-2.97-1.9-1.334 1.468-3.27 2.47-5.87 2.47-5.437 0-8.372-4.47-8.372-9.44s3.002-9.406 8.372-9.406c2.335 0 4.203.834 5.504 2.202v-.134c0-.367.133-1.5 1.4-1.5.7 0 1.468.367 1.468 1.4v12.875c0 .434.3.6.467.6.935 0 1.435.667 1.435 1.434a1.37 1.37 0 0 1-1.435 1.401zm-8.84-15.443c-3.336 0-5.504 2.602-5.504 6.57 0 4.003 2.168 6.604 5.504 6.604 3.37 0 5.504-2.602 5.504-6.604 0-3.97-2.135-6.57-5.504-6.57z"/><use xlink:href="#P"/><path d="M115.158 1045.478h-.567c-3.17 0-4.37-1.668-4.37-4.403V1030.6h-1c-.8 0-1.435-.634-1.435-1.4 0-.8.634-1.435 1.4-1.435h1v-4.637c0-.934.7-1.4 1.435-1.4s1.4.467 1.4 1.4v4.637h2.135c.934 0 1.4.768 1.4 1.4 0 .8-.533 1.434-1.4 1.434h-2.135v10.774c0 .934.333 1.268 1.268 1.268h.833c.868 0 1.435.634 1.435 1.4 0 .8-.533 1.435-1.4 1.435zm4.604-20.415a2.402 2.402 0 1 1 0-4.803 2.402 2.402 0 1 1 0 4.803zm0 20.414c-.733 0-1.467-.5-1.467-1.4V1029.2c0-.935.733-1.435 1.467-1.435a1.37 1.37 0 0 1 1.401 1.435v14.876c0 .935-.7 1.4-1.4 1.4zm10.376-14.877h-1.5v13.442c0 .935-.7 1.4-1.468 1.4-.7 0-1.4-.467-1.4-1.4V1030.6h-1.37c-.9 0-1.4-.667-1.4-1.4 0-.768.5-1.435 1.4-1.435h1.367v-2.27c0-2.135 1.77-3.77 3.836-3.77.968 0 1.468.667 1.468 1.434 0 .7-.5 1.4-1.468 1.4-.566 0-.967.434-.967.9v2.302h1.5c.967 0 1.468.667 1.468 1.435 0 .733-.5 1.4-1.468 1.4z"/><use xlink:href="#P" x="42.068"/><path d="M154.725 1045.544c-1.802 0-3.336-1.534-3.336-3.402v-18.98c0-.967.7-1.434 1.435-1.434s1.435.467 1.435 1.4v19.013c0 .4.3.567.467.567.934 0 1.435.667 1.435 1.435 0 .733-.5 1.4-1.435 1.4zm15.37-.066v-1.264c1.886-.237 2.046-.437 2.046-3.157v-6.7c0-2.8-1.248-4.017-3.064-4.017-1.237 0-2.345.6-3.47 1.493v9.476c0 2.527.187 2.658 2.06 2.896v1.264h-8.968v-1.264c2.254-.33 2.5-.4 2.5-3v-8.2c0-2.446-.303-2.565-2.185-2.922v-1.184c2.173-.292 4.63-.807 6.653-1.533l-.052 2.95 2.6-1.745c1.16-.713 2-1.086 3.16-1.086 3.194 0 5.2 2.338 5.2 6.3v7.5c0 2.54.237 2.657 2.277 2.92v1.264h-8.74zm23.9-3.703c-2.458 3.427-5.488 4.178-7.014 4.178-5.142 0-8.124-3.936-8.124-8.594 0-2.745 1.183-5.396 2.832-7.062 1.74-1.8 3.945-2.814 6.082-2.814 3.73 0 6.396 3.126 6.37 6.347-.014.715-.08 1.277-.612 1.4-.767.184-6.17.5-10.318.647.062 4.587 2.717 6.74 5.556 6.74 1.572 0 3.104-.597 4.543-1.866l.686 1.014zm-7.07-12.7c-1.667 0-3.167 1.807-3.516 4.963l5.486-.118c.6-.026.848-.146.848-.792.04-2.022-1.037-4.053-2.818-4.053zm34.284.145c-1.943.343-2.248.624-3.105 2.765-1.33 3.462-3.102 8.53-4.934 13.94h-1.512l-4.65-11.46-4.55 11.46h-1.472l-4.685-14.192c-.687-1.985-.94-2.274-2.855-2.512v-1.25h9.397v1.25c-2.325.345-2.535.672-2.058 2.133l2.52 8.214c1.507-3.68 2.988-7.62 4.327-11.424h1.456c1.4 3.76 2.986 7.702 4.573 11.568.742-2.107 2.062-5.964 2.557-8.108.412-1.674-.008-2.078-2.753-2.383v-1.25h7.742v1.25zm9.4 3.746c-.92-2.606-2.155-3.984-4.2-3.984-1.206 0-2.225.86-2.225 2.266 0 1.497 1.046 2.264 3.16 3.216 3.278 1.496 5.3 2.787 5.3 5.736 0 3.85-3.6 5.764-6.945 5.764-2.06 0-4.088-.737-4.92-1.16l-.662-4.892 1.252-.224c.8 2.5 2.33 4.75 4.976 4.75 1.505 0 2.438-.952 2.438-2.28 0-1.423-.76-2.333-3.092-3.467-2.67-1.295-5.107-2.64-5.107-5.775 0-3.046 2.533-5.42 6.565-5.42 1.818 0 3.242.396 4.112.567l.62 4.577-1.25.328z"/></g><g fill="#fff"><path d="M123.758 80c-.78 0-1.62-.42-2.16-1.32l-20.16-30.3v29.04c0 1.68-1.26 2.58-2.64 2.58-1.26 0-2.52-.9-2.52-2.52V39.862c0-1.68 1.32-2.58 2.64-2.58.84 0 1.56.36 2.16 1.26l20.16 30.3v-28.98c0-1.74 1.26-2.58 2.52-2.58 1.38 0 2.64.84 2.64 2.52V77.42c0 1.62-1.32 2.58-2.64 2.58z"/><use xlink:href="#Q"/><use xlink:href="#R"/><path d="M229.296 51.562l-9.3 26.34c-.48 1.32-1.32 2.1-2.64 2.1-1.26 0-1.98-.54-2.52-2.1l-7.02-19.8-7.08 19.8c-.48 1.44-1.32 2.1-2.58 2.1-1.2 0-2.04-.66-2.52-2.1l-9.24-26.34c-.12-.36-.12-.6-.12-.96 0-1.5 1.38-2.46 2.64-2.46.96 0 1.92.48 2.34 1.68l6.96 20.04 7.08-19.62c.48-1.38 1.08-2.1 2.52-2.1 1.32 0 2.04.66 2.52 2.1l7.02 19.62 7.02-20.04c.42-1.2 1.38-1.68 2.28-1.68 1.38 0 2.76 1.02 2.76 2.52 0 .3 0 .54-.12.9z"/><use xlink:href="#S"/><path d="M293.676 51.742l-16.2 36.838c-1.2 2.76-3.84 4.02-6.6 4.02h-1.92c-1.74 0-2.52-1.26-2.52-2.64 0-1.26.78-2.52 2.52-2.52h1.86c.78 0 1.62-.12 1.98-.96l3.96-8.88-11.7-25.86a2.17 2.17 0 0 1-.3-1.14c0-1.5 1.44-2.52 2.76-2.52.9 0 1.68.48 2.16 1.56l9.78 21.72 9.54-21.72c.48-1.08 1.38-1.5 2.22-1.5 1.38 0 2.76 1.02 2.76 2.46 0 .42-.06.72-.3 1.14z"/></g><g fill="#80f6ff"><path d="M336.815 80.06c-.66 0-1.44-.36-1.98-1.08l-12.48-17.46h-7.74v15.9c0 1.68-1.26 2.58-2.64 2.58-1.26 0-2.52-.9-2.52-2.52V39.862c0-1.08.72-2.58 2.52-2.58h15.54c5.28 0 12.06 4.14 12.06 12.06 0 6.3-4.74 11.58-11.04 12.12l10.5 14.46c.42.54.54 1.02.54 1.56 0 1.44-1.38 2.58-2.76 2.58zm-9.36-37.68h-12.84v14.04h12.78c3.9 0 7.02-3.18 7.02-7.08 0-4.08-3.48-6.96-6.96-6.96z"/><use xlink:href="#T"/><use xlink:href="#U"/><path d="M433.473 51.742l-16.2 36.838c-1.2 2.76-3.84 4.02-6.6 4.02h-1.92c-1.74 0-2.52-1.26-2.52-2.64 0-1.26.78-2.52 2.52-2.52h1.86c.78 0 1.62-.12 1.98-.96l3.96-8.88-11.7-25.86a2.16 2.16 0 0 1-.3-1.14c0-1.5 1.44-2.52 2.76-2.52.9 0 1.68.48 2.16 1.56l9.78 21.72 9.54-21.72c.48-1.08 1.38-1.5 2.22-1.5 1.38 0 2.76 1.02 2.76 2.46 0 .42-.06.72-.3 1.14z"/><use xlink:href="#U" x="59.879"/><use xlink:href="#V"/><use xlink:href="#T" x="135.537"/><use xlink:href="#W"/></g><g fill="#fff"><use xlink:href="#X"/><use xlink:href="#V" x="120.297"/><path d="M638.31 80c-1.26 0-2.52-.9-2.52-2.52v-18.9c0-3.48-2.88-6.36-6.3-6.36-3.54 0-6.36 2.88-6.36 6.3v18.9c0 1.68-1.2 2.58-2.58 2.58-1.32 0-2.52-.9-2.52-2.52v-18.9c0-3.48-2.88-6.36-6.36-6.36s-6.36 2.88-6.36 6.3v18.9c0 1.68-1.26 2.58-2.64 2.58-1.26 0-2.52-.9-2.52-2.52v-26.82c0-1.74 1.32-2.58 2.64-2.58.84 0 1.68.36 2.16 1.14 1.86-1.32 4.2-2.1 6.66-2.1 3.6 0 6.84 1.62 8.94 4.26a11.24 11.24 0 0 1 8.88-4.26c6.36 0 11.52 5.1 11.52 11.4v18.9c0 1.68-1.26 2.58-2.64 2.58z"/><use xlink:href="#Q" x="514.01"/><use xlink:href="#W" x="168.598"/><use xlink:href="#Y"/><use xlink:href="#X" x="185.457"/><use xlink:href="#V" x="303.354"/><use xlink:href="#V" x="314.634"/><use xlink:href="#Q" x="673.065"/><path d="M848.844 53.242h-2.7v24.18c0 1.68-1.26 2.52-2.64 2.52-1.26 0-2.52-.84-2.52-2.52v-24.18h-2.46c-1.62 0-2.52-1.2-2.52-2.52 0-1.38.9-2.58 2.52-2.58h2.46v-4.08c0-3.84 3.18-6.78 6.9-6.78 1.74 0 2.64 1.2 2.64 2.58 0 1.26-.9 2.52-2.64 2.52-1.02 0-1.74.78-1.74 1.62v4.14h2.7c1.74 0 2.64 1.2 2.64 2.58 0 1.32-.9 2.52-2.64 2.52zm41.698-10.86h-9.96v35.1c0 1.62-1.2 2.52-2.52 2.52-1.26 0-2.58-.9-2.58-2.52v-35.1h-9.84c-1.74 0-2.64-1.32-2.64-2.58 0-1.2.9-2.52 2.58-2.52h24.96c1.68 0 2.58 1.32 2.58 2.52 0 1.26-.9 2.58-2.58 2.58zM920.3 80c-1.32 0-2.52-.9-2.52-2.52V60.8c0-4.68-3.9-8.58-8.58-8.58-4.62 0-8.52 3.9-8.52 8.58v16.62c0 1.68-1.26 2.64-2.64 2.64-1.26 0-2.52-.9-2.52-2.58V39.862c0-1.74 1.26-2.58 2.52-2.58 1.38 0 2.64.84 2.64 2.52v10.38c2.22-2.1 5.22-3.06 8.52-3.06 7.44 0 13.68 6.18 13.68 13.68v16.62c0 1.68-1.2 2.58-2.58 2.58z"/><use xlink:href="#T" x="585.347"/><use xlink:href="#Z"/><use xlink:href="#R" x="806.862"/><path d="M388.324 122.72h-12.84v15.9c0 1.56-1.2 2.58-2.52 2.58-1.44 0-2.64-.96-2.64-2.52v-37.618c0-1.08.72-2.58 2.52-2.58h15.54c5.28 0 12.06 4.14 12.06 12.06 0 6.78-5.4 12.18-12.12 12.18zm0-19.14h-12.84v14.04h12.78a6.99 6.99 0 0 0 7.02-7.02c0-3.9-3.12-7.02-6.96-7.02z"/><use xlink:href="#a"/><use xlink:href="#S" x="183.446" y="61.2"/><use xlink:href="#W" x="-60.268" y="61.2"/><use xlink:href="#Y" x="-230.068" y="61.2"/><use xlink:href="#Z" x="-468.319" y="61.2"/><use xlink:href="#U" x="128.666" y="61.2"/><path d="M564.84 141.2H548.7c-1.38 0-2.64-1.26-2.64-2.52v-37.618c0-1.44 1.08-2.58 2.52-2.58h14.88c6.12 0 11.22 5.04 11.22 11.1 0 3.24-1.32 6-3.42 7.98 3.84 2.16 6.3 6.24 6.3 10.92 0 6.96-5.76 12.72-12.72 12.72zm-1.38-37.62h-12.24v12.12h12.24c3.84 0 6.06-3.24 6.06-6.06 0-3.3-2.7-6.06-6.06-6.06zm1.38 17.22h-13.62v15.3h13.62c4.08 0 7.56-3.54 7.56-7.62 0-4.2-3.48-7.68-7.56-7.68z"/><use xlink:href="#Q" x="448.76" y="61.2"/><use xlink:href="#Y" x="-92.55" y="61.2"/><use xlink:href="#Y" x="-76.892" y="61.2"/><use xlink:href="#a" x="241.554"/><use xlink:href="#T" x="314.242" y="61.2"/><use xlink:href="#W" x="178.705" y="61.2"/></g><defs ><path id="D" d="M817.437 422.22c-2.632 0-4.788 2.128-4.788 4.788v7.924c0 .504-.42.784-.783.784-.393 0-.812-.28-.812-.784v-13.3c0-.504.42-.784.813-.784.363 0 .783.28.783.784v1.148c1.26-1.372 2.912-2.156 4.788-2.156.504 0 .813.42.813.784 0 .392-.31.812-.812.812z"/><path id="E" d="M833.397 429.08h-11.62c.252 3.192 2.324 5.516 5.376 5.516 1.513 0 3.305-.672 4.116-1.932.196-.308.42-.392.672-.392.42 0 .868.336.868.756 0 .252 0 .308-.532.924-1.288 1.512-3.164 2.24-5.124 2.24-4.508 0-7.027-3.696-7.027-7.924 0-4.2 2.52-7.896 7.027-7.896s7.028 3.724 7.028 7.896c0 .42-.392.812-.784.812zm-6.244-7.112c-3.36 0-5.124 2.576-5.376 5.516h10.78c-.252-3.192-2.324-5.516-5.404-5.516z"/><path id="F" d="M848.348 434.065c-1.232 1.372-2.94 2.128-5.013 2.128-4.508 0-7.027-3.696-7.027-7.924 0-4.2 2.52-7.896 7.027-7.896 2.072 0 3.78.756 5.013 2.128a.74.74 0 0 1 .224.532c0 .42-.392.84-.812.84-.195 0-.392-.084-.588-.28-.924-1.036-2.212-1.624-3.836-1.624-3.304 0-5.432 2.66-5.432 6.3s2.128 6.328 5.432 6.328c1.624 0 2.912-.616 3.836-1.624.196-.196.393-.28.588-.28.42 0 .813.364.813.812 0 .196-.056.364-.224.56z"/><path id="G" d="M159.455 821.378h-1.115c-2.844 0-4.248-1.403-4.248-4.21v-12.85h-1.835c-.648 0-1.008-.54-1.008-1.044 0-.468.36-1.008 1.008-1.008h1.835v-5.508c0-.647.54-1.008 1.044-1.008s1.008.36 1.008 1.008v5.508h3.312c.648 0 1.01.54 1.01 1.008 0 .504-.36 1.044-1.01 1.044h-3.312v12.85c0 1.764.504 2.16 2.196 2.16h1.115c.648 0 1.01.54 1.01 1.044 0 .468-.36 1.008-1.01 1.008z"/><path id="H" d="M179.254 812.848h-14.938c.324 4.104 2.987 7.09 6.91 7.09 1.944 0 4.248-.864 5.29-2.483.252-.396.54-.504.864-.504.54 0 1.116.432 1.116.972 0 .323 0 .396-.685 1.188-1.655 1.944-4.067 2.88-6.587 2.88-5.795 0-9.035-4.752-9.035-10.187 0-5.4 3.24-10.15 9.035-10.15s9.035 4.788 9.035 10.15c0 .54-.504 1.044-1.008 1.044zm-8.027-9.144c-4.32 0-6.587 3.312-6.91 7.092h13.858c-.324-4.104-2.987-7.092-6.947-7.092z"/><path id="I" d="M821.18 1046.318c-3.22 0-5.02-2.64-5.02-5.662 0-3 1.8-5.64 5.02-5.64s5.02 2.64 5.02 5.64c0 3.02-1.8 5.662-5.02 5.662zm0-10.162c-2.36 0-3.88 1.9-3.88 4.5s1.52 4.52 3.88 4.52c2.38 0 3.88-1.92 3.88-4.52s-1.5-4.5-3.88-4.5z"/><path id="J" d="M845.72 1036.336a3.42 3.42 0 0 0-3.421 3.42v5.662c0 .36-.3.56-.56.56-.28 0-.58-.2-.58-.56v-9.502c0-.36.3-.56.58-.56.26 0 .56.2.56.56v.82c.9-.98 2.08-1.54 3.42-1.54.36 0 .58.3.58.56a.58.58 0 0 1-.58.58z"/><path id="K" d="M856.3 1044.797c-.88.98-2.1 1.52-3.58 1.52-3.22 0-5.02-2.64-5.02-5.662 0-3 1.8-5.64 5.02-5.64 1.48 0 2.7.54 3.58 1.52.12.12.16.262.16.38 0 .3-.28.6-.58.6-.14 0-.28-.06-.42-.2-.66-.74-1.58-1.16-2.74-1.16-2.36 0-3.88 1.9-3.88 4.5s1.52 4.52 3.88 4.52c1.16 0 2.08-.44 2.74-1.16.14-.14.28-.2.42-.2.3 0 .58.26.58.58 0 .14-.04.26-.16.398z"/><path id="L" d="M868.282 1041.236h-8.302c.18 2.28 1.66 3.94 3.84 3.94 1.08 0 2.36-.48 2.94-1.38.14-.22.3-.28.48-.28.3 0 .62.24.62.54 0 .18 0 .22-.38.658-.92 1.082-2.26 1.602-3.66 1.602-3.22 0-5.02-2.64-5.02-5.662 0-3 1.8-5.64 5.02-5.64s5.02 2.66 5.02 5.64c0 .3-.28.58-.56.58zm-4.46-5.08c-2.4 0-3.66 1.84-3.84 3.94h7.7c-.18-2.28-1.66-3.94-3.86-3.94z"/><path id="M" d="M898.66 1033.436c-.64 0-1.14-.5-1.14-1.14s.5-1.14 1.14-1.14 1.14.5 1.14 1.14-.5 1.14-1.14 1.14zm0 12.543c-.28 0-.58-.18-.58-.56v-9.502c0-.36.28-.56.58-.56.26 0 .56.18.56.56v9.502c0 .36-.26.56-.56.56z"/><path id="N" d="M929.56 1045.98h-.02c-.66 0-1.6-.36-1.98-1.56-.84 1.18-2.14 1.9-3.88 1.9-3.26 0-5.02-2.682-5.02-5.662 0-3.02 1.8-5.64 5.02-5.64 1.74 0 3.04.72 3.88 1.88v-.98c0-.32.26-.56.58-.56.28 0 .56.2.56.56v8.063c0 1.28 1.44.48 1.44 1.44a.55.55 0 0 1-.58.561zm-5.88-9.822c-2.36 0-3.88 1.9-3.88 4.5s1.52 4.52 3.88 4.52c2.38 0 3.88-1.92 3.88-4.52s-1.5-4.5-3.88-4.5z"/><path id="O" d="M936.02 1045.98h-.62c-1.58 0-2.36-.78-2.36-2.342v-7.14h-1.02c-.36 0-.56-.3-.56-.58 0-.26.2-.56.56-.56h1.02v-3.06c0-.36.3-.56.58-.56s.56.2.56.56v3.06h1.84c.36 0 .56.3.56.56 0 .28-.2.58-.56.58h-1.84v7.14c0 .98.28 1.2 1.22 1.2h.62c.36 0 .56.3.56.58 0 .26-.2.56-.56.56z"/><path id="P" d="M104.714 1045.51c-.633 0-1.267-.367-1.4-1.1-1.334 1.034-2.97 1.668-4.804 1.668-4.136 0-7.604-3.436-7.604-7.605v-9.24a1.37 1.37 0 0 1 1.4-1.435c.768 0 1.468.5 1.468 1.4v9.272c0 2.602 2.168 4.77 4.736 4.77 2.603 0 4.77-2.17 4.77-4.77v-9.24c0-1.034.667-1.468 1.4-1.468.768 0 1.435.5 1.435 1.435v14.9c0 .934-.667 1.4-1.4 1.4z"/><path id="Q" d="M146.2 81.02c-9.66 0-15.06-7.92-15.06-16.98 0-9 5.4-16.92 15.06-16.92s15.06 7.92 15.06 16.92c0 9.06-5.4 16.98-15.06 16.98zm0-28.8c-6 0-9.9 4.68-9.9 11.82 0 7.2 3.9 11.88 9.9 11.88 6.06 0 9.9-4.68 9.9-11.88 0-7.14-3.84-11.82-9.9-11.82z"/><path id="R" d="M179.678 52.222c-4.62 0-8.52 3.9-8.52 8.58v16.62c0 1.68-1.26 2.58-2.64 2.58-1.26 0-2.52-.9-2.52-2.52v-26.76c0-1.68 1.38-2.58 2.52-2.58 1.2 0 2.34.66 2.58 2.04 2.34-1.92 5.52-3.06 8.58-3.06 1.74 0 2.64 1.2 2.64 2.58 0 1.32-.9 2.52-2.64 2.52z"/><path id="S" d="M261.936 80c-3.3 0-4.8-2.34-5.34-3.42-2.4 2.64-5.88 4.44-10.56 4.44-9.78 0-15.06-8.04-15.06-16.98s5.4-16.92 15.06-16.92c4.2 0 7.56 1.5 9.9 3.96v-.24c0-.66.24-2.7 2.52-2.7 1.26 0 2.64.66 2.64 2.52v23.16c0 .78.54 1.08.84 1.08 1.68 0 2.58 1.2 2.58 2.58 0 1.26-.9 2.52-2.58 2.52zm-15.9-27.78c-6 0-9.9 4.68-9.9 11.82 0 7.2 3.9 11.88 9.9 11.88 6.06 0 9.9-4.68 9.9-11.88 0-7.14-3.84-11.82-9.9-11.82z"/><path id="T" d="M369.275 66.68h-22.2c.84 5.64 4.44 9.24 9.72 9.24 2.7 0 5.4-.96 7.14-3.12.54-.6 1.14-.96 1.86-.96 1.32 0 2.7 1.2 2.7 2.64 0 .72-.18 1.26-1.44 2.52-2.7 2.64-6.42 4.02-10.26 4.02-9.66 0-15.06-7.98-15.06-16.98 0-8.94 5.4-16.92 15.06-16.92 9.78 0 15 7.98 15 16.92 0 1.32-.96 2.64-2.52 2.64zm-12.48-14.46c-5.64 0-8.94 4.14-9.72 9.3h19.44c-.84-5.76-4.44-9.3-9.72-9.3z"/><path id="U" d="M400.294 76.46c-2.64 2.94-6.3 4.56-10.74 4.56-9.66 0-15.06-7.92-15.06-16.98 0-9 5.4-16.92 15.06-16.92 4.44 0 8.1 1.62 10.74 4.56.48.54.72 1.14.72 1.74 0 1.32-1.32 2.58-2.7 2.58-.54 0-1.2-.24-1.86-.84-1.68-1.86-3.9-2.94-6.9-2.94-6 0-9.9 4.68-9.9 11.82 0 7.2 3.9 11.88 9.9 11.88 3 0 5.28-1.14 6.9-2.94.54-.66 1.26-.9 1.86-.9 1.38 0 2.7 1.2 2.7 2.64 0 .54-.24 1.2-.72 1.74z"/><path id="V" d="M473.013 80.12c-3.24 0-6-2.76-6-6.12V39.862c0-1.74 1.26-2.58 2.58-2.58s2.58.84 2.58 2.52V74c0 .72.54 1.02.84 1.02 1.68 0 2.58 1.2 2.58 2.58 0 1.32-.9 2.52-2.58 2.52z"/><path id="W" d="M521.432 81.02c-3.3 0-8.82-1.02-11.64-4.5-.36-.54-.54-1.08-.54-1.56 0-1.5 1.44-2.7 2.7-2.7.72 0 1.26.36 1.86 1.02 1.86 2.04 4.92 2.64 7.62 2.64 5.4 0 7.14-1.86 7.14-4.56 0-7.68-18.3-2.94-18.3-15.3 0-6.54 6.12-8.94 11.82-8.94 3.24 0 10.86 1.62 10.86 4.98 0 1.32-1.08 2.7-2.52 2.7-.54 0-1.38-.3-1.98-.78-1.62-1.38-3.96-1.8-6.36-1.8-4.98 0-6.72 1.86-6.72 3.84 0 7.14 18.36 2.52 18.36 15.3 0 7.08-5.94 9.66-12.3 9.66z"/><path id="X" d="M579.99 80c-.9 0-1.8-.48-2.28-1.56l-3.18-7.8h-19.98l-3.24 7.8c-.48 1.08-1.38 1.56-2.22 1.56-1.32 0-2.7-1.02-2.7-2.52 0-.36.06-.72.24-1.02l15.42-37.498c.72-1.56 1.68-1.86 2.46-1.86.54 0 1.86.3 2.46 1.86l15.48 37.498c.12.3.18.66.18 1.02 0 1.5-1.26 2.52-2.64 2.52zm-15.48-33.6l-7.86 19.08h15.72l-7.86-19.08z"/><path id="Y" d="M717.45 80h-1.02c-5.7 0-7.86-3-7.86-7.92v-18.84h-1.8c-1.44 0-2.58-1.14-2.58-2.52 0-1.44 1.14-2.58 2.52-2.58h1.8v-8.34c0-1.68 1.26-2.52 2.58-2.52s2.52.84 2.52 2.52v8.34h3.84c1.68 0 2.52 1.38 2.52 2.52 0 1.44-.96 2.58-2.52 2.58h-3.84v19.38c0 1.68.6 2.28 2.28 2.28h1.5c1.56 0 2.58 1.14 2.58 2.52 0 1.44-.96 2.58-2.52 2.58z"/><path id="Z" d="M963.982 43.282a4.3 4.3 0 1 1 0-8.64 4.3 4.3 0 1 1 0 8.64zm0 36.72c-1.32 0-2.64-.9-2.64-2.52v-26.76c0-1.68 1.32-2.58 2.64-2.58 1.26 0 2.52.9 2.52 2.58v26.76c0 1.68-1.26 2.52-2.52 2.52z"/><path id="a" d="M410.164 141.32c-3.24 0-6-2.76-6-6.12v-34.138c0-1.74 1.26-2.58 2.58-2.58s2.58.84 2.58 2.52V135.2c0 .72.54 1.02.84 1.02 1.68 0 2.58 1.2 2.58 2.58 0 1.32-.9 2.52-2.58 2.52z"/></defs></svg>