<svg xmlns="http://www.w3.org/2000/svg" xmlns:xlink="http://www.w3.org/1999/xlink" viewBox="0 0 1080 1080"><style><![CDATA[.M{opacity:.7}.N{fill:#fff}.O{opacity:.4}]]></style><linearGradient id="A" gradientUnits="userSpaceOnUse" x1="11.716" y1="11.716" x2="1068.284" y2="1068.284"><stop offset="0" stop-color="#2c3e50"/><stop offset=".048" stop-color="#2d4459"/><stop offset=".37" stop-color="#306890"/><stop offset=".648" stop-color="#3282b9"/><stop offset=".867" stop-color="#3392d2"/><stop offset="1" stop-color="#3498db"/></linearGradient><path d="M1040 1080H40c-22.09 0-40-17.91-40-40V40C0 17.91 17.91 0 40 0h1000c22.09 0 40 17.91 40 40v1000c0 22.09-17.91 40-40 40z" fill="url(#A)"/><g opacity=".35" class="N"><path d="M42.328 1046.045c-3.568 0-5.47-1.97-5.503-2.002 0 .935-.7 1.4-1.468 1.4-.7 0-1.4-.467-1.4-1.4v-20.88a1.35 1.35 0 0 1 1.401-1.434c.767 0 1.468.467 1.468 1.4v6.238c1.334-1.368 3.168-2.17 5.503-2.17 5.37 0 8.373 4.403 8.373 9.406 0 5.037-3.002 9.44-8.373 9.44zm0-16c-3.335 0-5.503 2.602-5.503 6.57 0 4.003 2.168 6.604 5.503 6.604s5.504-2.602 5.504-6.604c0-3.97-2.168-6.57-5.504-6.57zm25.555 8.037h-12.34c.467 3.136 2.468 5.137 5.403 5.137 1.5 0 3.002-.533 3.97-1.734.3-.333.634-.533 1.034-.533.734 0 1.5.667 1.5 1.468 0 .4-.1.7-.8 1.4-1.5 1.468-3.57 2.235-5.704 2.235-5.37 0-8.372-4.437-8.372-9.44 0-4.97 3.002-9.406 8.372-9.406 5.437 0 8.34 4.437 8.34 9.406 0 .734-.534 1.468-1.4 1.468zm-6.937-8.038c-3.136 0-4.97 2.3-5.403 5.17H66.35c-.467-3.202-2.468-5.17-5.403-5.17zM88 1045.478c-1.834 0-2.668-1.3-2.97-1.9-1.334 1.468-3.27 2.47-5.87 2.47-5.437 0-8.372-4.47-8.372-9.44s3.002-9.406 8.372-9.406c2.335 0 4.203.834 5.504 2.202v-.134c0-.367.133-1.5 1.4-1.5.7 0 1.468.367 1.468 1.4v12.875c0 .434.3.6.467.6.935 0 1.435.667 1.435 1.434a1.37 1.37 0 0 1-1.435 1.401zm-8.84-15.443c-3.336 0-5.504 2.602-5.504 6.57 0 4.003 2.168 6.604 5.504 6.604 3.37 0 5.504-2.602 5.504-6.604 0-3.97-2.135-6.57-5.504-6.57z"/><use xlink:href="#D"/><path d="M115.158 1045.478h-.567c-3.17 0-4.37-1.668-4.37-4.403V1030.6h-1c-.8 0-1.435-.634-1.435-1.4 0-.8.634-1.435 1.4-1.435h1v-4.637c0-.934.7-1.4 1.435-1.4s1.4.467 1.4 1.4v4.637h2.135c.934 0 1.4.768 1.4 1.4 0 .8-.533 1.434-1.4 1.434h-2.135v10.774c0 .934.333 1.268 1.268 1.268h.833c.868 0 1.435.634 1.435 1.4 0 .8-.533 1.435-1.4 1.435zm4.604-20.415a2.402 2.402 0 1 1 0-4.803 2.402 2.402 0 1 1 0 4.803zm0 20.414c-.733 0-1.467-.5-1.467-1.4V1029.2c0-.935.733-1.435 1.467-1.435a1.37 1.37 0 0 1 1.401 1.435v14.876c0 .935-.7 1.4-1.4 1.4zm10.376-14.877h-1.5v13.442c0 .935-.7 1.4-1.468 1.4-.7 0-1.4-.467-1.4-1.4V1030.6h-1.37c-.9 0-1.4-.667-1.4-1.4 0-.768.5-1.435 1.4-1.435h1.367v-2.27c0-2.135 1.77-3.77 3.836-3.77.968 0 1.468.667 1.468 1.434 0 .7-.5 1.4-1.468 1.4-.566 0-.967.434-.967.9v2.302h1.5c.967 0 1.468.667 1.468 1.435 0 .733-.5 1.4-1.468 1.4z"/><use xlink:href="#D" x="42.068"/><path d="M154.725 1045.544c-1.802 0-3.336-1.534-3.336-3.402v-18.98c0-.967.7-1.434 1.435-1.434s1.435.467 1.435 1.4v19.013c0 .4.3.567.467.567.934 0 1.435.667 1.435 1.435 0 .733-.5 1.4-1.435 1.4zm15.37-.066v-1.264c1.886-.237 2.046-.437 2.046-3.157v-6.7c0-2.8-1.248-4.017-3.064-4.017-1.237 0-2.345.6-3.47 1.493v9.476c0 2.527.187 2.658 2.06 2.896v1.264h-8.968v-1.264c2.254-.33 2.5-.4 2.5-3v-8.2c0-2.446-.303-2.565-2.185-2.922v-1.184c2.173-.292 4.63-.807 6.653-1.533l-.052 2.95 2.6-1.745c1.16-.713 2-1.086 3.16-1.086 3.194 0 5.2 2.338 5.2 6.3v7.5c0 2.54.237 2.657 2.277 2.92v1.264h-8.74zm23.9-3.703c-2.458 3.427-5.488 4.178-7.014 4.178-5.142 0-8.124-3.936-8.124-8.594 0-2.745 1.183-5.396 2.832-7.062 1.74-1.8 3.945-2.814 6.082-2.814 3.73 0 6.396 3.126 6.37 6.347-.014.715-.08 1.277-.612 1.4-.767.184-6.17.5-10.318.647.062 4.587 2.717 6.74 5.556 6.74 1.572 0 3.104-.597 4.543-1.866l.686 1.014zm-7.07-12.7c-1.667 0-3.167 1.807-3.516 4.963l5.486-.118c.6-.026.848-.146.848-.792.04-2.022-1.037-4.053-2.818-4.053zm34.284.145c-1.943.343-2.248.624-3.105 2.765-1.33 3.462-3.102 8.53-4.934 13.94h-1.512l-4.65-11.46-4.55 11.46h-1.472l-4.685-14.192c-.687-1.985-.94-2.274-2.855-2.512v-1.25h9.397v1.25c-2.325.345-2.535.672-2.058 2.133l2.52 8.214c1.507-3.68 2.988-7.62 4.327-11.424h1.456c1.4 3.76 2.986 7.702 4.573 11.568.742-2.107 2.062-5.964 2.557-8.108.412-1.674-.008-2.078-2.753-2.383v-1.25h7.742v1.25zm9.4 3.746c-.92-2.606-2.155-3.984-4.2-3.984-1.206 0-2.225.86-2.225 2.266 0 1.497 1.046 2.264 3.16 3.216 3.278 1.496 5.3 2.787 5.3 5.736 0 3.85-3.6 5.764-6.945 5.764-2.06 0-4.088-.737-4.92-1.16l-.662-4.892 1.252-.224c.8 2.5 2.33 4.75 4.976 4.75 1.505 0 2.438-.952 2.438-2.28 0-1.423-.76-2.333-3.092-3.467-2.67-1.295-5.107-2.64-5.107-5.775 0-3.046 2.533-5.42 6.565-5.42 1.818 0 3.242.396 4.112.567l.62 4.577-1.25.328z"/></g><g opacity=".6" class="N"><use xlink:href="#E"/><use xlink:href="#F"/><path d="M646.806 1045.98c-.28 0-.58-.2-.58-.56v-.64c-.84.98-2.06 1.54-3.42 1.54-2.48 0-4.56-2.08-4.56-4.56v-5.842c0-.36.3-.56.58-.56.26 0 .56.2.56.56v5.842c0 1.9 1.52 3.42 3.42 3.42s3.42-1.52 3.42-3.42v-5.842c0-.36.3-.56.58-.56.26 0 .56.2.56.56v9.502c0 .36-.3.56-.56.56z"/><use xlink:href="#G"/><path d="M664.944 1044.797c-.88.98-2.1 1.52-3.58 1.52-3.22 0-5.02-2.64-5.02-5.662 0-3 1.8-5.64 5.02-5.64 1.48 0 2.7.54 3.58 1.52.12.12.16.262.16.38 0 .3-.28.6-.58.6-.14 0-.28-.06-.42-.2-.66-.74-1.58-1.16-2.74-1.16-2.36 0-3.88 1.9-3.88 4.5s1.52 4.52 3.88 4.52c1.16 0 2.08-.44 2.74-1.16.14-.14.28-.2.42-.2.3 0 .58.26.58.58 0 .14-.04.26-.16.398z"/><use xlink:href="#H"/><path d="M680.503 1039.416c-.64 0-1.16-.5-1.16-1.14s.52-1.14 1.16-1.14c.62 0 1.12.5 1.12 1.14s-.5 1.14-1.12 1.14zm0 6.563c-.64 0-1.16-.5-1.16-1.14s.52-1.14 1.16-1.14c.62 0 1.12.5 1.12 1.14s-.5 1.14-1.12 1.14z"/><use xlink:href="#I"/><use xlink:href="#J"/><use xlink:href="#K"/><use xlink:href="#H" x="62.78"/><use xlink:href="#L"/><use xlink:href="#M"/><use xlink:href="#H" x="92.559"/><use xlink:href="#G" x="121.818"/><use xlink:href="#E" x="161.658"/><path d="M796.683 1032.855h-.62c-.48 0-.88.4-.88.86v1.64h1.5c.38 0 .56.3.56.56 0 .28-.2.58-.56.58h-1.5v8.922c0 .36-.28.56-.56.56s-.56-.18-.56-.56v-8.922h-1.38c-.36 0-.56-.3-.56-.58 0-.26.2-.56.56-.56h1.38v-1.64c0-1.1.9-1.98 1.98-1.98h.64c.36 0 .58.28.58.58 0 .28-.2.54-.58.54z"/><use xlink:href="#F" x="172.718"/><use xlink:href="#G" x="160.938"/><path d="M827.662 1045.98h-4.44a.61.61 0 0 1-.58-.561v-13.123c0-.3.28-.56.58-.56h4.44c4.12 0 5.48 3.44 5.48 7.102 0 3.72-1.36 7.143-5.48 7.143zm0-13.123h-3.88v11.982h3.88c3.42 0 4.34-2.96 4.34-5.98 0-3.562-1.24-6.002-4.34-6.002zm8.558.58c-.64 0-1.14-.5-1.14-1.14s.5-1.14 1.14-1.14 1.14.5 1.14 1.14-.5 1.14-1.14 1.14zm0 12.543c-.28 0-.58-.18-.58-.56v-9.502c0-.36.28-.56.58-.56.26 0 .56.18.56.56v9.502c0 .36-.26.56-.56.56z"/><use xlink:href="#E" x="222.657"/><use xlink:href="#H" x="181.619"/><use xlink:href="#N"/><use xlink:href="#E" x="256.955"/><use xlink:href="#H" x="215.917"/><use xlink:href="#K" x="182.218"/><use xlink:href="#F" x="286.037"/><use xlink:href="#L" x="182.217"/><use xlink:href="#M" x="182.217"/><use xlink:href="#G" x="292.075"/><use xlink:href="#F" x="322.415"/><path d="M962.82 1046.098c-1.08 0-1.98-1-1.98-2.12v-11.684c0-.36.3-.56.58-.56.26 0 .56.2.56.56v11.684c0 1.28 1.42.54 1.42 1.44 0 .34-.24.68-.58.68zm3.198 1.66c-.08.06-.2.08-.3.08-.32 0-.54-.28-.54-.58 0-.56.86-.64 1-1.28-.6-.04-1.08-.54-1.08-1.14a1.16 1.16 0 0 1 1.16-1.16c.98 0 1.2 1 1.2 1.62 0 .98-.52 1.92-1.44 2.46z"/><use xlink:href="#I" x="285.956"/><use xlink:href="#J" x="285.957"/><path d="M1013.04 1045.98c-.28 0-.58-.2-.58-.56v-1c-.84 1.18-2.14 1.9-3.88 1.9-3.22 0-5.02-2.64-5.02-5.662 0-3 1.8-5.64 5.02-5.64 1.74 0 3.04.72 3.88 1.88v-4.602c0-.36.3-.56.58-.56.26 0 .56.2.56.56v13.123c0 .36-.3.56-.56.56zm-4.46-9.822c-2.36 0-3.88 1.9-3.88 4.5s1.52 4.52 3.88 4.52c2.38 0 3.88-1.92 3.88-4.52s-1.5-4.5-3.88-4.5z"/><use xlink:href="#N" x="155.357"/><use xlink:href="#M" x="275.255"/><use xlink:href="#N" x="174.237"/></g><g class="N"><use xlink:href="#O"/><use xlink:href="#P"/><use xlink:href="#O" x="19.514"/><use xlink:href="#Q"/><path d="M749.29 203.5c-.484 0-.924-.33-.924-.924v-6.117c0-1.716-1.43-3.146-3.146-3.146-1.694 0-3.125 1.43-3.125 3.146v6.095c0 .616-.462.968-.968.968-.462 0-.924-.33-.924-.946v-9.835c0-.638.462-.924.924-.924.44 0 .836.242.946.726a5.01 5.01 0 0 1 3.146-1.1 5.06 5.06 0 0 1 5.017 5.017v6.095c0 .616-.44.946-.946.946z"/><use xlink:href="#R"/><path d="M769.794 203.873c-1.2 0-3.234-.374-4.27-1.65-.132-.198-.198-.396-.198-.572 0-.55.528-1 1-1 .264 0 .462.132.682.374.682.748 1.804.968 2.794.968 1.98 0 2.62-.682 2.62-1.672 0-2.816-6.7-1.078-6.7-5.6 0-2.398 2.245-3.278 4.335-3.278 1.188 0 3.982.594 3.982 1.826 0 .484-.396 1-.924 1-.198 0-.506-.1-.727-.286-.594-.506-1.452-.66-2.332-.66-1.826 0-2.464.682-2.464 1.408 0 2.62 6.733.924 6.733 5.6 0 2.596-2.178 3.542-4.5 3.542zm-61.356 223.412c-.484 0-.924-.33-.924-.924v-6.117c0-1.716-1.43-3.146-3.146-3.146-1.694 0-3.125 1.43-3.125 3.146v6.095c0 .616-.462.968-.968.968-.462 0-.924-.33-.924-.946v-13.796a.89.89 0 0 1 .924-.946c.506 0 .968.308.968.924v3.807c.814-.77 1.914-1.122 3.125-1.122a5.06 5.06 0 0 1 5.017 5.017v6.095c0 .616-.44.946-.946.946z"/><use xlink:href="#S"/><use xlink:href="#T"/><use xlink:href="#Q" x="12.497" y="223.785"/><use xlink:href="#U"/><use xlink:href="#V"/><use xlink:href="#O" x="64.24" y="223.785"/><use xlink:href="#V" x="11.77"/><use xlink:href="#W"/><path d="M803.146 427.285c-.33 0-.66-.176-.836-.572l-1.166-2.86h-7.327l-1.188 2.86c-.176.396-.506.572-.814.572-.484 0-1-.374-1-.924 0-.132.022-.264.088-.374l5.655-13.752c.264-.572.616-.682.902-.682.198 0 .682.1.902.682l5.677 13.752a1.03 1.03 0 0 1 .066.374c0 .55-.462.924-.968.924zm-5.677-12.322l-2.882 6.997h5.765l-2.882-6.997z"/><use xlink:href="#X"/><use xlink:href="#Y"/><use xlink:href="#X" x="30.844"/><path d="M753.603 460.017c-1.54 0-2.75-.528-3.63-1.452v4.775c0 .616-.462.946-.968.946-.462 0-.924-.33-.924-.946v-14.435c0-.616.462-.946.924-.946.506 0 .968.33.968.946 0 0 1.298-1.342 3.63-1.342 3.542 0 5.523 2.904 5.523 6.205 0 3.345-1.98 6.25-5.523 6.25zm0-10.584c-2.178 0-3.63 1.738-3.63 4.334 0 2.64 1.43 4.38 3.63 4.38s3.63-1.716 3.63-4.357c0-2.618-1.43-4.356-3.63-4.356zm11.814 10.584c-1.2 0-3.234-.374-4.27-1.65-.132-.198-.198-.396-.198-.572 0-.55.528-1 1-1 .264 0 .462.132.682.374.682.748 1.804.968 2.794.968 1.98 0 2.62-.682 2.62-1.672 0-2.816-6.7-1.078-6.7-5.6 0-2.398 2.244-3.278 4.334-3.278 1.188 0 3.982.594 3.982 1.826 0 .484-.396 1-.924 1-.198 0-.506-.1-.726-.286-.594-.506-1.452-.66-2.332-.66-1.826 0-2.464.682-2.464 1.408 0 2.62 6.733.924 6.733 5.6 0 2.596-2.178 3.542-4.5 3.542zm-51.983 65.743c-.462 0-.924-.33-.924-.924v-6.932c0-1.275-1.056-2.332-2.3-2.332a2.33 2.33 0 0 0-2.332 2.311v6.93c0 .616-.44.946-.946.946-.484 0-.924-.33-.924-.924v-6.932a2.35 2.35 0 0 0-2.332-2.332c-1.276 0-2.333 1.057-2.333 2.3v6.93c0 .616-.462.946-.968.946-.462 0-.924-.33-.924-.924V515c0-.638.484-.946.968-.946.308 0 .616.133.792.418.682-.483 1.54-.77 2.442-.77 1.32 0 2.508.594 3.278 1.563a4.12 4.12 0 0 1 3.256-1.562c2.333 0 4.225 1.87 4.225 4.18v6.93c0 .616-.462.946-.968.946z"/><use xlink:href="#Z"/><use xlink:href="#a"/><use xlink:href="#b"/><path d="M756.575 525.803c-1.188 0-2.2-1.012-2.2-2.244v-12.52c0-.64.462-.946.946-.946s.946.308.946.924v12.54c0 .264.198.374.308.374.616 0 .946.44.946.946a.89.89 0 0 1-.946.924z"/><use xlink:href="#Z" x="42.196"/><use xlink:href="#b" x="28.36"/><path d="M709.383 235.76c-.484 0-.946-.308-.946-.924 0 0-1.298 1.32-3.63 1.32-3.542 0-5.523-2.904-5.523-6.227 0-3.3 1.98-6.205 5.523-6.205 1.54 0 2.772.528 3.63 1.43v-4.093c0-.638.462-.946.946-.946s.946.308.946.924v13.796c0 .616-.462.924-.946.924zm-4.577-10.166c-2.2 0-3.63 1.716-3.63 4.334 0 2.64 1.43 4.357 3.63 4.357 2.222 0 3.63-1.716 3.63-4.357 0-2.618-1.408-4.334-3.63-4.334z"/><use xlink:href="#V" x="-45.87" y="-191.504"/><use xlink:href="#c"/><use xlink:href="#O" x="32.032" y="32.282"/><path d="M747.97 235.782c-.484 0-.924-.33-.924-.924v-6.117c0-1.716-1.43-3.146-3.146-3.146-1.694 0-3.125 1.43-3.125 3.146v6.095c0 .616-.462.968-.968.968-.462 0-.924-.33-.924-.946v-13.796a.89.89 0 0 1 .924-.946c.506 0 .968.308.968.924v3.807c.814-.77 1.915-1.122 3.125-1.122a5.06 5.06 0 0 1 5.017 5.017v6.095c0 .616-.44.946-.946.946z"/><use xlink:href="#S" x="39.535" y="-191.503"/><use xlink:href="#d"/><use xlink:href="#V" x="12.672" y="-191.504"/><use xlink:href="#Q" x="50.777" y="32.282"/><use xlink:href="#e"/><use xlink:href="#X" x="11.33" y="-191.918"/><use xlink:href="#Q" x="2.201" y="64.225"/><use xlink:href="#f"/><use xlink:href="#f" x="5.016"/><use xlink:href="#T" x="27.237" y="-159.56"/><use xlink:href="#g"/><path d="M787.57 267.747c-.264 0-.506-.088-.704-.352l-3.586-4.378-3.586 4.378c-.22.22-.462.33-.704.33-.506 0-1-.418-1-.924 0-.198.088-.44.264-.638l3.785-4.643-3.235-3.938c-.176-.198-.242-.418-.242-.616 0-.528.484-.946 1-.946a.85.85 0 0 1 .704.352l3.014 3.696 3.037-3.696c.198-.242.418-.352.66-.352.506 0 1.012.418 1.012.946 0 .198-.088.396-.242.594l-3.256 3.96 3.828 4.643a.97.97 0 0 1 .242.638c0 .528-.506.946-1 .946z"/><use xlink:href="#d" x="-65.383" y="97.072"/><use xlink:href="#R" x="-46.553" y="129.357"/><use xlink:href="#h"/><use xlink:href="#P" x="26.378" y="129.356"/><use xlink:href="#f" x="3.728" y="65.13"/><use xlink:href="#f" x="8.734" y="65.13"/><use xlink:href="#Q" x="29.787" y="129.355"/><path d="M708.438 362.57c-.484 0-.924-.33-.924-.924v-6.117c0-1.716-1.43-3.146-3.146-3.146-1.694 0-3.125 1.43-3.125 3.146v6.095c0 .616-.462.968-.968.968-.462 0-.924-.33-.924-.946V347.85a.89.89 0 0 1 .924-.946c.506 0 .968.308.968.924v3.807c.814-.77 1.914-1.122 3.125-1.122a5.06 5.06 0 0 1 5.017 5.017v6.095c0 .616-.44.946-.946.946z"/><use xlink:href="#S" y="-64.714"/><use xlink:href="#T" y="-64.716"/><use xlink:href="#Q" x="12.497" y="159.07"/><use xlink:href="#U" y="-64.715"/><use xlink:href="#V" y="-64.716"/><use xlink:href="#O" x="64.24" y="159.07"/><use xlink:href="#V" x="11.77" y="-64.716"/><use xlink:href="#W" y="-64.716"/><path d="M798.966 362.57h-5.92c-.506 0-.968-.462-.968-.924V347.85a.92.92 0 0 1 .924-.946h5.457c2.244 0 4.114 1.848 4.114 4.07a3.96 3.96 0 0 1-1.254 2.926c1.408.792 2.31 2.29 2.31 4.005a4.7 4.7 0 0 1-4.665 4.665zm-.506-13.796h-4.49v4.444h4.49c1.408 0 2.222-1.188 2.222-2.222a2.23 2.23 0 0 0-2.222-2.222zm.506 6.315h-4.995v5.61h4.995c1.496 0 2.772-1.298 2.772-2.794 0-1.54-1.276-2.816-2.772-2.816z"/><use xlink:href="#c" x="-19.25" y="64.301"/><use xlink:href="#g" x="-53.525" y="32.357"/><use xlink:href="#f" x="-17.556" y="32.356"/><use xlink:href="#V" x="-29.458" y="-127.203"/><use xlink:href="#g" x="-31.527" y="32.357"/><use xlink:href="#O" x="0.002" y="191.428"/><use xlink:href="#Y" x="-10.383" y="-64.715"/><use xlink:href="#h" x="0.233" y="62.072"/><use xlink:href="#S" x="21.166" y="-32.357"/><path d="M751.38 384.74c-1.694 0-3.125 1.43-3.125 3.146v6.095c0 .616-.462.946-.968.946-.462 0-.924-.33-.924-.924V384.2c0-.616.506-.946.924-.946.44 0 .858.242.946.748a5.09 5.09 0 0 1 3.146-1.122c.638 0 .968.44.968.946 0 .484-.33.924-.968.924zm11.2 8.9c-.968 1.078-2.3 1.672-3.938 1.672-3.542 0-5.523-2.904-5.523-6.227 0-3.3 1.98-6.205 5.523-6.205 1.628 0 2.97.594 3.938 1.672.176.198.264.418.264.638 0 .484-.484.946-1 .946-.198 0-.44-.088-.682-.308-.616-.682-1.43-1.078-2.53-1.078-2.2 0-3.63 1.716-3.63 4.334 0 2.64 1.43 4.357 3.63 4.357 1.1 0 1.936-.418 2.53-1.078a.88.88 0 0 1 .682-.33c.506 0 1 .44 1 .968 0 .198-.088.44-.264.638z"/><use xlink:href="#Y" x="47.983" y="-64.715"/><use xlink:href="#f" x="35.772" y="127.202"/><use xlink:href="#g" x="17.095" y="127.202"/><use xlink:href="#e" x="96.116" y="127.202"/><path d="M807.8 381.462a1.58 1.58 0 0 1-1.584-1.584c0-.88.704-1.584 1.584-1.584s1.584.704 1.584 1.584-.704 1.584-1.584 1.584zm0 13.466c-.484 0-.968-.33-.968-.924V384.2c0-.616.484-.946.968-.946.462 0 .924.33.924.946v9.813c0 .616-.462.924-.924.924z"/><use xlink:href="#e" x="111.716" y="127.202"/><path d="M714.934 481.57l-3.4 9.66c-.176.484-.484.77-.968.77-.462 0-.726-.198-.924-.77l-2.574-7.26-2.596 7.26c-.176.528-.484.77-.946.77-.44 0-.748-.242-.924-.77l-3.388-9.66c-.044-.132-.044-.22-.044-.352 0-.55.506-.902.968-.902a.87.87 0 0 1 .858.616l2.552 7.35 2.596-7.194c.176-.507.396-.77.924-.77.484 0 .748.242.924.77l2.574 7.194 2.574-7.35c.154-.44.506-.616.836-.616.506 0 1.012.374 1.012.924 0 .1 0 .198-.044.33zM726.02 492c-.484 0-.924-.33-.924-.924v-6.117c0-1.716-1.43-3.146-3.146-3.146-1.694 0-3.125 1.43-3.125 3.146v6.095c0 .616-.462.97-.968.97-.462 0-.924-.33-.924-.946V477.28a.89.89 0 0 1 .924-.946c.506 0 .968.308.968.924v3.807c.814-.77 1.914-1.122 3.125-1.122a5.06 5.06 0 0 1 5.017 5.017v6.095c0 .616-.44.946-.946.946z"/><use xlink:href="#i"/><use xlink:href="#i" x="13.154"/><use xlink:href="#j"/><use xlink:href="#k"/><use xlink:href="#l"/><use xlink:href="#m"/><use xlink:href="#n"/><use xlink:href="#i" x="88.723"/><path d="M840.683 492.023c-.418 0-.836-.242-.924-.727-.88.682-1.958 1.1-3.168 1.1-2.728 0-5.017-2.267-5.017-5.018v-6.095c0-.616.462-.946.924-.946.506 0 .968.33.968.925v6.116c0 1.717 1.43 3.146 3.124 3.146 1.716 0 3.146-1.43 3.146-3.146v-6.095c0-.682.44-.968.924-.968.506 0 .946.33.946.946v9.835c0 .616-.44.925-.924.925z"/><use xlink:href="#m" x="56.759"/><path d="M867.48 492c-.484 0-.924-.33-.924-.924v-6.117c0-1.716-1.43-3.146-3.146-3.146-1.694 0-3.125 1.43-3.125 3.146v6.095c0 .616-.462.97-.968.97-.462 0-.924-.33-.924-.946V477.28a.89.89 0 0 1 .924-.946c.506 0 .968.308.968.924v3.807c.814-.77 1.915-1.122 3.125-1.122a5.06 5.06 0 0 1 5.017 5.017v6.095c0 .616-.44.946-.946.946z"/><use xlink:href="#o"/><path d="M720.473 590.983c-.484 0-.924-.33-.924-.924v-6.117c0-1.716-1.43-3.146-3.146-3.146-1.694 0-3.125 1.43-3.125 3.146v6.095c0 .616-.462.97-.968.97-.462 0-.924-.33-.924-.946v-13.796a.89.89 0 0 1 .924-.946c.506 0 .968.308.968.924v3.807c.814-.77 1.915-1.122 3.125-1.122a5.06 5.06 0 0 1 5.017 5.017v6.095c0 .616-.44.946-.946.946z"/><use xlink:href="#k" x="-45.521" y="98.983"/><use xlink:href="#o" x="29.699"/><path d="M749.512 580.906l-3.28 3.278 3.41 5.347c.088.176.154.352.154.528 0 .527-.484.946-1 .946-.264 0-.55-.133-.75-.44l-3.212-4.995-1.87 1.87v2.62c0 .594-.506.924-.924.924-.484 0-.968-.33-.968-.924V576.24c0-.616.462-.924.924-.924.506 0 .968.308.968.924v8.537l5.193-5.192c.22-.22.462-.286.704-.286.484 0 .946.44.946.946 0 .22-.1.462-.308.66z"/><use xlink:href="#Z" x="34.626" y="65.226"/><use xlink:href="#l" x="-10.167" y="98.983"/><path d="M783.325 591.357c-1.54 0-2.75-.528-3.63-1.452v4.774c0 .616-.462.946-.968.946-.462 0-.924-.33-.924-.946v-14.434c0-.616.462-.946.924-.946.506 0 .968.33.968.946 0 0 1.298-1.343 3.63-1.343 3.542 0 5.523 2.904 5.523 6.205 0 3.345-1.98 6.25-5.523 6.25zm0-10.583c-2.178 0-3.63 1.737-3.63 4.334 0 2.64 1.43 4.38 3.63 4.38s3.63-1.717 3.63-4.356c0-2.62-1.43-4.356-3.63-4.356z"/><use xlink:href="#i" x="61.57" y="98.982"/><path d="M812.938 591.006c-.264 0-.506-.09-.704-.353l-3.586-4.38-3.586 4.38c-.22.22-.462.33-.704.33-.506 0-1-.418-1-.924 0-.198.088-.44.264-.64l3.785-4.643-3.235-3.938a.92.92 0 0 1-.242-.616c0-.528.484-.946 1-.946.242 0 .506.09.704.353l3.014 3.696 3.037-3.696c.198-.242.418-.353.66-.353.506 0 1.012.418 1.012.946 0 .198-.088.396-.242.595l-3.256 3.96 3.828 4.643a.97.97 0 0 1 .242.639c0 .527-.506.946-1 .946z"/></g><g fill="#ff0"><use xlink:href="#p"/><path d="M511.656 568.574c-2.184 0-4.032-1.147-5.096-2.827-.084-.168-.112-.337-.112-.448a.88.88 0 0 1 .812-.84c.252 0 .476.14.644.42.784 1.26 2.184 2.1 3.752 2.1a4.42 4.42 0 0 0 4.396-4.368c0-2.436-1.96-4.396-4.368-4.396h-.028c-.42 0-.812-.336-.812-.812s.392-.783.812-.783h.028c1.988 0 3.668-1.652 3.668-3.696a3.7 3.7 0 0 0-3.668-3.668c-3.052 0-3.444 2.912-4.564 2.912-.42 0-.84-.336-.84-.784 0-.616 2.128-3.724 5.404-3.724 2.884 0 5.264 2.38 5.264 5.264 0 1.904-.952 3.5-2.408 4.424 1.904 1.008 3.108 2.968 3.108 5.236a6 6 0 0 1-5.992 5.991z"/><use xlink:href="#q"/><path d="M535.987 570.59c-.112.084-.28.11-.42.11-.448 0-.756-.392-.756-.812 0-.784 1.204-.896 1.4-1.792-.84-.056-1.512-.756-1.512-1.596 0-.952.784-1.624 1.624-1.624 1.372 0 1.68 1.4 1.68 2.268 0 1.372-.728 2.688-2.016 3.444z"/><use xlink:href="#q" x="20.999"/><use xlink:href="#q" x="35.447"/><use xlink:href="#q" x="49.894"/><use xlink:href="#p" x="130.156" y="-364.6"/><path d="M642.596 203.974c-3.276 0-5.992-2.66-5.992-5.964 0-2.296 1.204-4.256 3.08-5.264-1.428-.924-2.352-2.52-2.352-4.424 0-2.884 2.352-5.264 5.264-5.264a5.28 5.28 0 0 1 5.264 5.264c0 1.904-.952 3.5-2.38 4.424 1.876 1.008 3.08 2.968 3.08 5.236 0 3.275-2.632 5.99-5.964 5.99zm0-10.36c-2.38 0-4.396 1.932-4.396 4.368 0 2.407 1.96 4.396 4.368 4.396a4.4 4.4 0 0 0 4.396-4.368c0-2.436-1.932-4.396-4.368-4.396zm0-8.96c-2.044 0-3.668 1.65-3.668 3.668s1.624 3.696 3.668 3.696c2.016 0 3.668-1.652 3.668-3.696a3.68 3.68 0 0 0-3.668-3.668z"/><use xlink:href="#q" x="130.772" y="-364.6"/><path d="M45.77 879.375h-1.82v2.94c0 .504-.42.784-.812.784-.364 0-.784-.28-.784-.784v-2.94h-7.532c-.56 0-.84-.3-.84-.7a.92.92 0 0 1 .14-.504l7.896-15.064c.168-.308.448-.447.728-.447.392 0 .812.336.812.783a.94.94 0 0 1-.112.42l-7.28 13.916h6.188v-3.6c0-.56.42-.84.784-.84.392 0 .812.28.812.812v3.64h1.82c.504 0 .784.393.784.784s-.28.813-.784.813zm27.467 3.725c-.392 0-.784-.28-.784-.784v-9.408a3.6 3.6 0 0 0-3.556-3.556c-1.932 0-3.584 1.624-3.584 3.528v9.436c0 .504-.392.784-.784.784s-.812-.28-.812-.784v-9.408c0-1.932-1.624-3.556-3.528-3.556-1.96 0-3.584 1.624-3.584 3.528v9.436c0 .504-.42.784-.784.784-.392 0-.812-.28-.812-.784v-13.3c0-.504.42-.784.812-.784.364 0 .784.28.784.784v.168a5.09 5.09 0 0 1 3.556-1.428c1.792 0 3.388.896 4.368 2.38.924-1.428 2.52-2.38 4.34-2.38 2.912 0 5.18 2.296 5.18 5.124v9.436c0 .504-.42.784-.812.784z"/><use xlink:href="#r"/><use xlink:href="#s"/><use xlink:href="#s" x="5.571"/><use xlink:href="#r" x="16.155"/><path d="M104.764 883.574c-4.508 0-7.028-3.695-7.028-7.924 0-4.2 2.52-7.896 7.028-7.896s7.028 3.696 7.028 7.896c0 4.23-2.52 7.924-7.028 7.924zm0-14.224c-3.304 0-5.432 2.66-5.432 6.3s2.128 6.328 5.432 6.328c3.332 0 5.432-2.687 5.432-6.328s-2.1-6.3-5.432-6.3zm21.783 13.75c-.392 0-.812-.28-.812-.784v-8.176a4.77 4.77 0 0 0-4.788-4.788c-2.632 0-4.788 2.128-4.788 4.788v8.176c0 .504-.42.784-.784.784-.392 0-.812-.28-.812-.784v-13.3c0-.504.42-.784.812-.784.364 0 .784.28.784.784v.896c1.26-1.372 2.912-2.156 4.788-2.156a6.44 6.44 0 0 1 6.384 6.384v8.176c0 .504-.42.784-.784.784z"/></g><g class="N O"><path d="M36.396 933.804c-.02.2.072.303.28.28H45.8c.23-.04.322.053.28.28v1.688c.04.23-.053.333-.28.313H34.33c-.23.02-.323-.083-.28-.312v-1.72c.104-2.812.916-4.947 2.438-6.406L41.02 924c1.52-1.146 2.344-2.646 2.47-4.5-.02-1.125-.334-2.04-.937-2.75-.604-.73-1.448-1.104-2.53-1.125-1.187.02-2.104.417-2.75 1.188s-1 1.7-1.03 2.813c.02.292-.094.417-.344.375H34.21c-.23.042-.323-.052-.28-.28.083-1.708.677-3.177 1.78-4.406 1.083-1.23 2.53-1.864 4.344-1.906 1.688.02 3.072.594 4.156 1.72 1.083 1.104 1.646 2.53 1.688 4.28-.125 2.27-.937 4.03-2.437 5.28l-4.53 3.78c-1.52 1.25-2.365 3.03-2.53 5.344v-.03.03zm14.454-2.564c.166 2.25 1.416 3.428 3.75 3.53 1.083 0 1.97-.354 2.656-1.062.666-.708 1-1.697 1.03-2.97v-2.844c0-1.125-.303-2.04-.906-2.75-.625-.73-1.5-1.104-2.625-1.125-1.354.042-2.386.396-3.094 1.063-.104.146-.24.198-.406.156h-1.53c-.23.042-.323-.052-.28-.28v-10.72c-.042-.23.052-.322.28-.28h9.75c.23-.04.322.053.28.28v1.594c.04.23-.053.334-.28.313H51.85c-.2-.04-.303.053-.28.28v6.188c0 .188.094.23.28.125.833-.458 1.864-.697 3.094-.72 1.688.02 3.04.553 4.063 1.594 1.04 1.042 1.572 2.47 1.594 4.28v2.844c-.042 1.875-.636 3.365-1.78 4.47s-2.584 1.677-4.312 1.72c-1.75-.042-3.146-.594-4.187-1.656-1.062-1.062-1.636-2.437-1.72-4.125-.042-.208.052-.302.28-.28h1.625c.23-.02.344.104.344.375v-.03.03z"/><use xlink:href="#t"/></g><g class="N O"><path d="M421.906 913.672l.188-.14h1.11c.114 0 .166.053.156.156v9.875a.11.11 0 0 0 .141.156h2.03a.1.1 0 0 1 .141.141v.766c.01.115-.037.16-.14.14H420c-.115.02-.167-.025-.156-.14v-.766c-.01-.114.04-.16.156-.14h2.11c.104.01.15-.04.14-.156v-8.328c-.01-.125-.062-.135-.156-.03-.5.46-1.203.875-2.14 1.25-.084.042-.13.016-.14-.078v-.797c0-.062.036-.11.11-.14.885-.375 1.547-.963 1.984-1.766v-.016.016z"/><use xlink:href="#u"/><use xlink:href="#u" x="7.352"/></g><g class="N O"><path d="M290.905 913.672l.188-.14h1.1c.114 0 .166.053.156.156v9.875a.11.11 0 0 0 .141.156h2.03a.1.1 0 0 1 .141.141v.766c.01.115-.037.16-.14.14H289c-.115.02-.167-.025-.156-.14v-.766a.11.11 0 0 1 .156-.14h2.1c.104.01.15-.04.14-.156v-8.328c-.01-.125-.062-.135-.156-.03-.5.46-1.203.875-2.14 1.25-.084.042-.13.016-.14-.078v-.797c0-.062.036-.1.1-.14.885-.375 1.547-.963 1.984-1.766v-.016.016zm6.135 8.53c.083 1.125.708 1.714 1.875 1.766.54 0 .984-.177 1.328-.53.333-.354.505-.85.516-1.484v-1.422c0-.562-.15-1.02-.453-1.375-.312-.364-.75-.552-1.312-.562-.678.02-1.193.198-1.547.53-.053.073-.12.1-.203.078h-.766a.1.1 0 0 1-.141-.141v-5.36a.1.1 0 0 1 .141-.141h4.875a.1.1 0 0 1 .141.141v.797c.02.115-.026.167-.14.156h-3.812c-.104-.02-.15.026-.14.14v3.094c0 .094.047.115.14.063.416-.23.932-.35 1.547-.36.844.01 1.52.276 2.03.797.52.52.786 1.234.797 2.14v1.422c-.02.938-.318 1.683-.9 2.234s-1.292.838-2.156.86c-.875-.02-1.573-.297-2.094-.828-.53-.53-.818-1.22-.86-2.062-.02-.104.025-.15.14-.14h.813c.114-.01.172.053.172.187v-.016.016z"/><use xlink:href="#v"/></g><g class="N O"><path d="M160.812 923.484c-.01.104.036.15.14.14h4.563a.1.1 0 0 1 .141.141v.844c.02.115-.026.166-.14.156h-5.734a.11.11 0 0 1-.141-.156v-.86c.052-1.406.458-2.474 1.22-3.203l2.266-1.97a2.95 2.95 0 0 0 1.234-2.25c-.01-.562-.167-1.02-.47-1.375-.303-.364-.725-.552-1.266-.562-.594.01-1.053.21-1.375.594s-.495.854-.516 1.406c.01.146-.047.21-.172.188h-.844a.1.1 0 0 1-.141-.141c.04-.854.338-1.588.89-2.203.54-.614 1.266-.932 2.172-.953.844.01 1.536.297 2.078.86.54.553.822 1.266.844 2.14-.062 1.136-.47 2.016-1.22 2.64l-2.266 1.89c-.76.625-1.183 1.516-1.266 2.672v-.016.016z"/><use xlink:href="#v" x="-136.353"/><use xlink:href="#v" x="-129"/></g><g class="N O"><path d="M548.688 922.203c.083 1.125.708 1.714 1.875 1.766.54 0 .984-.177 1.328-.53.333-.354.505-.85.516-1.484v-1.422c0-.562-.15-1.02-.453-1.375-.312-.364-.75-.552-1.312-.562-.678.02-1.193.198-1.547.53-.053.073-.12.1-.203.078h-.766a.1.1 0 0 1-.141-.141v-5.36a.1.1 0 0 1 .141-.141H553a.1.1 0 0 1 .141.141v.797c.02.115-.026.167-.14.156h-3.812c-.104-.02-.15.026-.14.14v3.094c0 .094.047.115.14.063.416-.23.932-.35 1.547-.36.844.01 1.52.276 2.03.797.52.52.786 1.234.797 2.14v1.422c-.02.938-.318 1.683-.89 2.234s-1.292.838-2.156.86c-.875-.02-1.573-.297-2.094-.828-.53-.53-.818-1.22-.86-2.062-.02-.104.025-.15.14-.14h.813c.114-.01.172.053.172.187v-.016.016z"/><use xlink:href="#u" x="128"/></g><g class="N"><use xlink:href="#t" x="600.38" y="0.1" class="O"/><use xlink:href="#t" x="829.755" y="0.1" class="O"/><g class="O"><path d="M1021.1 931.34c.166 2.25 1.416 3.428 3.75 3.53 1.083 0 1.97-.354 2.656-1.062.666-.708 1-1.697 1.03-2.97v-2.844c0-1.125-.303-2.04-.906-2.75-.625-.73-1.5-1.104-2.625-1.125-1.354.042-2.386.396-3.094 1.063-.104.146-.24.198-.406.156h-1.53c-.23.042-.323-.052-.28-.28v-10.72c-.042-.23.052-.322.28-.28h9.75c.23-.04.322.053.28.28v1.594c.04.23-.053.334-.28.313h-7.625c-.21-.04-.303.053-.28.28v6.188c0 .188.094.23.28.125.833-.458 1.864-.697 3.094-.72 1.688.02 3.04.553 4.063 1.594 1.04 1.042 1.572 2.47 1.594 4.28v2.844c-.042 1.875-.636 3.365-1.78 4.47s-2.584 1.677-4.312 1.72c-1.75-.042-3.146-.594-4.188-1.656-1.062-1.062-1.636-2.437-1.72-4.125-.042-.208.052-.302.28-.28h1.625c.23-.02.344.104.344.375v-.03.03z"/><use xlink:href="#t" x="970.24" y="0.1"/></g></g><path d="M34.03 902.777h640.477m218.223 0h153.487" opacity=".3" fill="none" stroke="#fff" stroke-width="2" stroke-miterlimit="10"/><g opacity=".5" class="N"><use xlink:href="#O" x="-664.902" y="765.214"/><path d="M51.037 968.714c-.484 0-.924-.33-.924-.924v-6.117c0-1.716-1.43-3.146-3.146-3.146-1.694 0-3.125 1.43-3.125 3.146v6.095c0 .616-.462.97-.968.97-.462 0-.924-.33-.924-.946v-13.796a.89.89 0 0 1 .924-.946c.506 0 .968.308.968.924v3.807c.814-.77 1.914-1.122 3.125-1.122a5.06 5.06 0 0 1 5.017 5.017v6.095c0 .616-.44.946-.946.946z"/><use xlink:href="#i" x="-674.986" y="476.713"/><path d="M76.974 968.736c-.418 0-.836-.242-.924-.727-.88.682-1.958 1.1-3.168 1.1-2.728 0-5.017-2.267-5.017-5.018v-6.095c0-.616.462-.946.924-.946.506 0 .968.33.968.925v6.116c0 1.717 1.43 3.146 3.125 3.146 1.716 0 3.146-1.43 3.146-3.146v-6.095c0-.682.44-.968.924-.968.506 0 .946.33.946.946v9.835c0 .616-.44.925-.924.925z"/><use xlink:href="#w"/><use xlink:href="#x"/><use xlink:href="#l" x="-669.704" y="476.714"/><path d="M127.86 968.69c-.484 0-.946-.308-.946-.924 0 0-1.298 1.32-3.63 1.32-3.542 0-5.523-2.904-5.523-6.227 0-3.3 1.98-6.205 5.523-6.205 1.54 0 2.772.528 3.63 1.43v-4.092c0-.64.462-.946.946-.946s.946.308.946.924v13.796c0 .616-.462.924-.946.924zm-4.577-10.165c-2.2 0-3.63 1.716-3.63 4.335 0 2.64 1.43 4.356 3.63 4.356 2.222 0 3.63-1.717 3.63-4.356 0-2.62-1.408-4.335-3.63-4.335z"/><use xlink:href="#n" x="-669.705" y="476.713"/><use xlink:href="#a" x="-581.306" y="442.954"/><use xlink:href="#w" x="81.729"/><use xlink:href="#y"/><path d="M189.766 969.088c-1.2 0-3.234-.374-4.27-1.65-.132-.198-.198-.396-.198-.572 0-.55.528-1 1-1 .264 0 .462.133.682.375.682.748 1.804.968 2.794.968 1.98 0 2.62-.683 2.62-1.673 0-2.816-6.71-1.078-6.71-5.6 0-2.398 2.244-3.278 4.334-3.278 1.188 0 3.982.594 3.982 1.826 0 .484-.396 1-.924 1-.198 0-.506-.1-.726-.286-.594-.506-1.452-.66-2.332-.66-1.826 0-2.464.683-2.464 1.408 0 2.618 6.733.924 6.733 5.6 0 2.597-2.178 3.543-4.51 3.543z"/><use xlink:href="#j" x="-554.272" y="476.713"/><use xlink:href="#y" x="42.394"/><use xlink:href="#z"/><path d="M250.662 958.35l-5.94 13.5c-.44 1.012-1.408 1.475-2.42 1.475h-.704c-.638 0-.924-.463-.924-.97 0-.462.286-.924.924-.924h.682c.286 0 .594-.044.726-.353l1.452-3.256-4.29-9.483c-.088-.154-.1-.286-.1-.418 0-.55.528-.925 1.012-.925.33 0 .616.177.792.572l3.586 7.965 3.5-7.965a.87.87 0 0 1 .814-.55c.506 0 1.012.374 1.012.902a.75.75 0 0 1-.11.418z"/><use xlink:href="#y" x="78.999"/><use xlink:href="#x" x="173.62"/><use xlink:href="#z" x="50.444"/></g><g fill="#f0f"><path d="M892.73 383.853h19.248v10.784H892.73z"/><path d="M911.98 394.637l12.692-5.393-12.692-5.392zm-19.25-43.14h3.74v10.784h-3.74z"/><path d="M896.47 362.28l12.692-5.392-12.692-5.393zm-3.74 53.92h3.037v10.784h-3.037z"/><path d="M895.768 426.994l12.692-5.392-12.692-5.392zm-3.038 21.57h.305v10.784h-.305z"/><path d="M892.73 459.35l12.692-5.393-12.692-5.4zm0 21.572h66.294v10.785H892.73z"/><path d="M959.025 491.707l12.692-5.393-12.692-5.393zM892.73 580.16h22.343v10.788H892.73z"/><path d="M915.074 590.936l12.692-5.4-12.692-5.396z"/></g><linearGradient id="B" gradientUnits="userSpaceOnUse" x1="354.26" y1="849.05" x2="354.26" y2="192.707"><stop offset="0" stop-color="#e5c400"/><stop offset="1" stop-color="#ff0"/></linearGradient><path d="M674.508 235.492H629.55v-10.785h44.958v10.785zm0-42.785h-1.977v10.785h1.977v-10.785zm-44.958 32l-12.694 5.4 12.694 5.396v-10.785zm44.958 32.358h-53.514v10.785h53.514v-10.785zm-53.514 0l-12.694 5.4 12.694 5.396v-10.785zm53.514 64.715h-98.763v10.785h98.763V321.78zm-98.763 0l-12.7 5.396 12.7 5.4V321.78zm98.763 94.43H408.113v10.784h266.395V416.2zm-266.395 0l-12.692 5.393 12.692 5.392V416.2zm266.395 32.355H281.5v10.784h393.018v-10.784zm-393.018 0l-12.694 5.392 12.694 5.393v-10.784zm393.018 64.714H34.15v10.785h640.358V513.28zm0 17.257H34.15v10.785h640.358v-10.785zm0 17.257h-75.083v10.785h75.083v-10.785zm-75.083 0l-12.692 5.387 12.692 5.398v-10.785zm75.083-196.297H528.924v10.785h145.585v-10.785zm-145.585 0l-12.692 5.393 12.692 5.393v-10.785zm145.585-62.074h-68.5v10.785h68.5v-10.785zm-68.5 0l-12.694 5.4 12.694 5.396v-10.785zm68.5 94.43H470.903v10.784h203.605v-10.784zm-203.605 0l-12.692 5.393 12.692 5.392v-10.784zm-310.08 97.07l-12.692 5.393 12.692 5.393v-10.785zm513.685 0H160.823v10.785h513.685v-10.785zm0 99.23H34.15v10.785h640.358V580.15zm0 17.258H34.15v10.785h640.358V597.41zm0 17.257H34.15v10.785h640.358v-10.785zm0 17.257H34.15v10.785h640.358v-10.785zm0 17.257H34.15v10.785h640.358V649.18zm0 17.257H34.15v10.785h640.358v-10.785zm0 17.257H34.15v10.785h640.358v-10.785zm0 17.257H34.15v10.785h640.358V700.95zm0 17.257H34.15v10.785h640.358v-10.785zm0 17.257H34.15v10.785h640.358v-10.785zm0 17.257H34.15v10.785h640.358V752.72zm0 17.257H34.15v10.785h640.358v-10.785zm0 17.257H34.15v10.785h640.358v-10.785zm0 17.257H34.15v10.785h640.358V804.49zm0 17.257H34.15v10.785h640.358v-10.785zm0 16.514H46.706v10.788h627.802v-10.788zm-627.802.002l-12.694 5.392 12.694 5.393v-10.785z" fill="url(#B)"/><g class="N"><path d="M64.54 40.642L51.94 77.96c-.42 1.26-1.38 2.04-2.58 2.04-1.08 0-2.04-.78-2.52-2.04L34.18 40.642c-.12-.3-.12-.66-.12-.9 0-1.56 1.32-2.46 2.58-2.46.96 0 1.98.54 2.4 1.74l10.32 30.42 10.38-30.42c.36-1.2 1.38-1.74 2.34-1.74 1.32 0 2.7.9 2.7 2.46a1.84 1.84 0 0 1-.24.9zM94.65 80c-3.3 0-4.8-2.34-5.34-3.42-2.4 2.64-5.88 4.44-10.56 4.44-9.78 0-15.06-8.04-15.06-16.98s5.4-16.92 15.06-16.92c4.2 0 7.56 1.5 9.9 3.96v-.24c0-.66.24-2.7 2.52-2.7 1.26 0 2.64.66 2.64 2.52v23.16c0 .78.54 1.08.84 1.08 1.68 0 2.58 1.2 2.58 2.58 0 1.26-.9 2.52-2.58 2.52zm-15.9-27.78c-6 0-9.9 4.68-9.9 11.82 0 7.2 3.9 11.88 9.9 11.88 6.06 0 9.9-4.68 9.9-11.88 0-7.14-3.84-11.82-9.9-11.82z"/><use xlink:href="#AA"/><use xlink:href="#AA" x="29.218"/><path d="M162.808 43.282a4.32 4.32 0 1 1 0-8.64 4.32 4.32 0 1 1 0 8.64zm0 36.72c-1.32 0-2.64-.9-2.64-2.52v-26.76c0-1.68 1.32-2.58 2.64-2.58 1.26 0 2.52.9 2.52 2.58v26.76c0 1.68-1.26 2.52-2.52 2.52zM196.466 80c-1.32 0-2.52-.9-2.52-2.52V60.8c0-4.68-3.9-8.58-8.58-8.58-4.62 0-8.52 3.9-8.52 8.58v16.62c0 1.68-1.26 2.64-2.64 2.64-1.26 0-2.52-.9-2.52-2.58V50.66c0-1.74 1.26-2.52 2.52-2.52 1.2 0 2.28.66 2.58 1.98 2.34-1.86 5.28-3 8.58-3 7.44 0 13.68 6.18 13.68 13.68v16.62c0 1.68-1.2 2.58-2.58 2.58zm34.32-13.32h-22.2c.84 5.64 4.44 9.24 9.72 9.24 2.7 0 5.4-.96 7.14-3.12.54-.6 1.14-.96 1.86-.96 1.32 0 2.7 1.2 2.7 2.64 0 .72-.18 1.26-1.44 2.52-2.7 2.64-6.42 4.02-10.26 4.02-9.66 0-15.06-7.98-15.06-16.98 0-8.94 5.4-16.92 15.06-16.92 9.78 0 15 7.98 15 16.92 0 1.32-.96 2.64-2.52 2.64zm-12.48-14.46c-5.64 0-8.94 4.14-9.72 9.3h19.44c-.84-5.76-4.44-9.3-9.72-9.3zm29.1 28.8c-3.3 0-8.82-1.02-11.64-4.5-.36-.54-.54-1.08-.54-1.56 0-1.5 1.44-2.7 2.7-2.7.72 0 1.26.36 1.86 1.02 1.86 2.04 4.92 2.64 7.62 2.64 5.4 0 7.14-1.86 7.14-4.56 0-7.68-18.3-2.94-18.3-15.3 0-6.54 6.12-8.94 11.82-8.94 3.24 0 10.86 1.62 10.86 4.98 0 1.32-1.08 2.7-2.52 2.7-.54 0-1.38-.3-1.98-.78-1.62-1.38-3.96-1.8-6.36-1.8-4.98 0-6.72 1.86-6.72 3.84 0 7.14 18.36 2.52 18.36 15.3 0 7.08-5.94 9.66-12.3 9.66zm71.578-40.558l-9.9 37.438c-.3 1.44-1.08 2.1-2.46 2.1-1.26 0-2.16-.66-2.58-2.1l-8.1-28.74-8.04 28.74c-.42 1.44-1.26 2.1-2.52 2.1-1.32 0-2.16-.66-2.52-2.1l-9.9-37.438c-.06-.24-.12-.54-.12-.84 0-1.5 1.38-2.34 2.7-2.34 1.02 0 2.04.6 2.4 1.86l7.56 28.62 7.92-28.38c.42-1.44 1.26-2.1 2.52-2.1 1.32 0 2.16.66 2.58 2.1l7.92 28.38 7.56-28.62c.36-1.32 1.56-1.98 2.46-1.98 1.32 0 2.64.96 2.64 2.46 0 .3-.06.6-.12.84zm16.98 40.558c-9.66 0-15.06-7.92-15.06-16.98 0-9 5.4-16.92 15.06-16.92s15.06 7.92 15.06 16.92c0 9.06-5.4 16.98-15.06 16.98zm0-28.8c-6 0-9.9 4.68-9.9 11.82 0 7.2 3.9 11.88 9.9 11.88 6.06 0 9.9-4.68 9.9-11.88 0-7.14-3.84-11.82-9.9-11.82zm33.48.002c-4.62 0-8.52 3.9-8.52 8.58v16.62c0 1.68-1.26 2.58-2.64 2.58-1.26 0-2.52-.9-2.52-2.52v-26.76c0-1.68 1.38-2.58 2.52-2.58 1.2 0 2.34.66 2.58 2.04a13.88 13.88 0 0 1 8.58-3.06c1.74 0 2.64 1.2 2.64 2.58 0 1.32-.9 2.52-2.64 2.52zm31.5.298l-8.94 8.94 9.3 14.58c.24.48.42.96.42 1.44 0 1.44-1.32 2.58-2.7 2.58-.72 0-1.5-.36-2.04-1.2l-8.76-13.62-5.1 5.1v7.14c0 1.62-1.38 2.52-2.52 2.52-1.32 0-2.64-.9-2.64-2.52V39.802c0-1.68 1.26-2.52 2.52-2.52 1.38 0 2.64.84 2.64 2.52v23.28l14.16-14.16c.6-.6 1.26-.78 1.92-.78 1.32 0 2.58 1.2 2.58 2.58 0 .6-.3 1.26-.84 1.8zm8.7 28.38a4.32 4.32 0 1 1 0-8.64 4.32 4.32 0 1 1 0 8.64zm-.12-12.84c-1.32 0-2.64-.9-2.64-2.58v-26.7c0-1.68 1.32-2.58 2.64-2.58 1.26 0 2.58.9 2.58 2.58v26.7c0 1.68-1.32 2.58-2.58 2.58z"/><path d="M53.073 102.544l-8.244 15.122v9.27c0 .684-.57 1.063-1.103 1.063-.494 0-1.063-.38-1.063-1.063v-9.27l-8.207-15.122a1.73 1.73 0 0 1-.114-.57c0-.607.57-1.025 1.14-1.025a1.03 1.03 0 0 1 .911.531l7.333 13.64 7.4-13.64a1.03 1.03 0 0 1 .912-.531c.57 0 1.178.418 1.178 1.025 0 .152-.076.38-.152.57zm17.78 16.452H55.084c.342 4.332 3.153 7.485 7.295 7.485 2.052 0 4.483-.912 5.585-2.622.267-.418.57-.53.912-.53.57 0 1.178.455 1.178 1.025 0 .342 0 .418-.722 1.254-1.748 2.052-4.293 3.04-6.953 3.04-6.117 0-9.536-5.015-9.536-10.752 0-5.7 3.42-10.715 9.536-10.715s9.537 5.054 9.537 10.715c0 .57-.532 1.102-1.064 1.102zm-8.473-9.65c-4.56 0-6.953 3.495-7.295 7.485h14.628c-.342-4.332-3.153-7.485-7.333-7.485zM94.754 128h-.038c-1.254 0-3.04-.684-3.762-2.964-1.596 2.242-4.065 3.6-7.37 3.6-6.193 0-9.536-5.1-9.536-10.752 0-5.737 3.42-10.715 9.536-10.715 3.306 0 5.775 1.368 7.37 3.572v-1.862c0-.607.494-1.063 1.102-1.063.532 0 1.064.38 1.064 1.063v15.31c0 2.432 2.735.912 2.735 2.736A1.04 1.04 0 0 1 94.754 128zm-11.17-18.655c-4.483 0-7.37 3.6-7.37 8.55s2.888 8.587 7.37 8.587c4.52 0 7.37-3.647 7.37-8.587s-2.85-8.55-7.37-8.55z" class="M"/><use xlink:href="#AB" class="M"/><path d="M113.336 128.228c-2.052 0-3.762-1.9-3.762-4.027v-22.188c0-.684.57-1.063 1.103-1.063.494 0 1.063.38 1.063 1.063V124.2c0 2.432 2.697 1.026 2.697 2.736 0 .645-.455 1.3-1.102 1.3zm19.416-18.883L122.455 133.7c-.76 1.786-2.317 2.28-4.064 2.28h-1.672c-.685 0-1.064-.57-1.064-1.102 0-.494.38-1.063 1.064-1.063h1.672c.835 0 1.7-.038 2.05-.912l2.166-5.167-7.865-18.4c-.075-.2-.075-.342-.075-.494 0-.607.53-1.025 1.102-1.025.342 0 .76.15.95.646l7.066 16.5 7-16.5c.2-.494.607-.646.987-.646.57 0 1.064.418 1.064 1.025 0 .152 0 .304-.076.494z" class="M"/><use xlink:href="#AC" class="M"/><use xlink:href="#AD" class="M"/><use xlink:href="#AE" class="M"/><use xlink:href="#AF" class="M"/><use xlink:href="#AE" x="37.745" class="M"/></g><g fill="#ff0"><path d="M256.1 128.646c-3.306 0-5.775-1.367-7.37-3.6v1.9c0 .684-.57 1.063-1.063 1.063-.532 0-1.103-.38-1.103-1.063V102.01c0-.684.57-1.063 1.103-1.063.494 0 1.063.38 1.063 1.063v8.74c1.596-2.204 4.065-3.572 7.37-3.572 6.117 0 9.536 5.016 9.536 10.715 0 5.737-3.42 10.752-9.536 10.752zm0-19.3c-4.52 0-7.37 3.6-7.37 8.55s2.85 8.587 7.37 8.587 7.37-3.647 7.37-8.587-2.85-8.55-7.37-8.55zm29.677 9.65H270c.342 4.332 3.153 7.485 7.295 7.485 2.052 0 4.483-.912 5.585-2.622.267-.418.57-.53.912-.53.57 0 1.178.455 1.178 1.025 0 .342 0 .418-.722 1.254-1.748 2.052-4.293 3.04-6.953 3.04-6.117 0-9.536-5.015-9.536-10.752 0-5.7 3.42-10.715 9.536-10.715s9.537 5.054 9.537 10.715c0 .57-.532 1.102-1.064 1.102zm-8.473-9.65c-4.56 0-6.953 3.495-7.295 7.485h14.628c-.342-4.332-3.153-7.485-7.333-7.485z"/><use xlink:href="#AG"/><use xlink:href="#AH"/><use xlink:href="#AB" x="223.434"/><use xlink:href="#AF" x="130.33"/></g><g class="N"><use xlink:href="#AD" x="198.728" class="M"/><use xlink:href="#AI" class="M"/><use xlink:href="#AJ" class="M"/></g><g fill="#f0f"><use xlink:href="#AD" x="272.334"/><use xlink:href="#AG" x="167"/><use xlink:href="#AK"/><path d="M494.118 118.996H478.35c.342 4.332 3.153 7.485 7.295 7.485 2.052 0 4.483-.912 5.585-2.622.267-.418.57-.53.912-.53.57 0 1.178.455 1.178 1.025 0 .342 0 .418-.722 1.254-1.748 2.052-4.293 3.04-6.953 3.04-6.117 0-9.536-5.015-9.536-10.752 0-5.7 3.42-10.715 9.536-10.715s9.537 5.054 9.537 10.715c0 .57-.532 1.102-1.064 1.102zm-8.473-9.65c-4.56 0-6.953 3.495-7.295 7.485h14.628c-.342-4.332-3.153-7.485-7.333-7.485z"/><use xlink:href="#AB" x="400.39"/></g><g class="N"><path d="M532.497 109.307l-7.484 17.82c-.23.494-.57.874-1.064.874s-.874-.38-1.102-.874l-7.485-17.78c-.075-.2-.075-.342-.075-.494 0-.607.53-1.025 1.102-1.025.342 0 .76.15.95.646l6.6 15.616 6.573-15.616c.23-.494.608-.684.988-.684.57 0 1.102.418 1.102 1.025 0 .114 0 .305-.114.494z" class="M"/><use xlink:href="#AD" x="373.142" class="M"/><use xlink:href="#AC" x="414.829" class="M"/><use xlink:href="#AC" x="433.64" class="M"/><use xlink:href="#AL" class="M"/><use xlink:href="#AI" x="218.077" class="M"/><use xlink:href="#AF" x="421.137" class="M"/><use xlink:href="#AL" x="55.896" class="M"/><use xlink:href="#AI" x="273.974" class="M"/><use xlink:href="#AK" x="211.047" class="M"/><use xlink:href="#AB" x="590.233" class="M"/><use xlink:href="#AH" x="399.024" class="M"/><use xlink:href="#AJ" x="316.154" class="M"/><path d="M758.252 128c-.53 0-1.102-.38-1.102-1.063v-1.216c-1.596 1.86-3.913 2.925-6.497 2.925-4.71 0-8.663-3.95-8.663-8.662V108.89c0-.684.57-1.063 1.103-1.063.493 0 1.063.38 1.063 1.063v11.095a6.47 6.47 0 1 0 12.994 0V108.89c0-.684.57-1.063 1.102-1.063.494 0 1.064.38 1.064 1.063v18.048c0 .684-.57 1.063-1.064 1.063z" class="M"/><use xlink:href="#AC" x="620.37" class="M"/><use xlink:href="#AK" x="314.977" class="M"/><use xlink:href="#AL" x="196.687" class="M"/><use xlink:href="#AH" x="497.975" class="M"/><use xlink:href="#AI" x="435.966" class="M"/></g><defs ><path id="D" d="M104.714 1045.51c-.633 0-1.267-.367-1.4-1.1-1.334 1.034-2.97 1.668-4.804 1.668-4.136 0-7.604-3.436-7.604-7.605v-9.24a1.37 1.37 0 0 1 1.4-1.435c.768 0 1.468.5 1.468 1.4v9.272c0 2.602 2.168 4.77 4.736 4.77 2.603 0 4.77-2.17 4.77-4.77v-9.24c0-1.034.667-1.468 1.4-1.468.768 0 1.435.5 1.435 1.435v14.9c0 .934-.667 1.4-1.4 1.4z"/><path id="E" d="M620.305 1046.357c-1.2 0-3.22-.42-3.92-1.58-.08-.12-.08-.22-.08-.3 0-.32.28-.602.58-.602.12 0 .32.102.44.28.72.88 2 1.06 2.98 1.06 1.94 0 2.92-.64 2.92-1.94 0-3.02-6.562-1.42-6.562-5.422 0-2.02 2.02-2.8 3.84-2.8 1.04 0 2.64.36 3.44 1.16.12.12.18.26.18.38a.65.65 0 0 1-.62.6c-.12 0-.26-.04-.38-.16-.62-.6-1.74-.84-2.62-.84-1.76 0-2.7.682-2.7 1.66 0 2.8 6.562 1.32 6.562 5.422 0 2.28-2 3.08-4.06 3.08z"/><path id="F" d="M631.025 1046.318c-3.22 0-5.02-2.64-5.02-5.662 0-3 1.8-5.64 5.02-5.64s5.02 2.64 5.02 5.64c0 3.02-1.8 5.662-5.02 5.662zm0-10.162c-2.36 0-3.88 1.9-3.88 4.5s1.52 4.52 3.88 4.52c2.38 0 3.88-1.92 3.88-4.52s-1.5-4.5-3.88-4.5z"/><path id="G" d="M654.765 1036.336a3.42 3.42 0 0 0-3.421 3.42v5.662c0 .36-.3.56-.56.56-.28 0-.58-.2-.58-.56v-9.502c0-.36.3-.56.58-.56.26 0 .56.2.56.56v.82c.9-.98 2.08-1.54 3.42-1.54.36 0 .58.3.58.56a.58.58 0 0 1-.58.58z"/><path id="H" d="M676.525 1041.236h-8.302c.18 2.28 1.66 3.94 3.84 3.94 1.08 0 2.36-.48 2.94-1.38.14-.22.3-.28.48-.28.3 0 .62.24.62.54 0 .18 0 .22-.38.658-.92 1.082-2.26 1.602-3.66 1.602-3.22 0-5.02-2.64-5.02-5.662 0-3 1.8-5.64 5.02-5.64s5.02 2.66 5.02 5.64c0 .3-.28.58-.56.58zm-4.46-5.08c-2.4 0-3.66 1.84-3.84 3.94h7.7c-.18-2.28-1.66-3.94-3.86-3.94z"/><path id="I" d="M694.144 1046.338c-2.74 0-5.02-2.2-5.02-5.02v-9.02c0-.36.3-.56.58-.56s.58.2.58.56v9.02c0 2.12 1.74 3.88 3.86 3.88s3.88-1.76 3.88-3.88v-9.02c0-.36.3-.56.58-.56.26 0 .56.2.56.56v9.02a5.01 5.01 0 0 1-5.021 5.021z"/><path id="J" d="M706.043 1046.318c-1.54 0-3.64-.62-4.78-1.76-.14-.14-.18-.262-.18-.4a.61.61 0 0 1 .58-.58c.24 0 .22.06.64.38a6.33 6.33 0 0 0 3.74 1.221c2.52 0 3.98-.94 3.98-2.74 0-4.742-8.462-2.102-8.462-7.562 0-2.4 2.1-3.5 4.68-3.5 1.44 0 3.46.62 4.36 1.88.08.12.12.22.12.34 0 .32-.28.56-.6.56-.28 0-.28-.08-.62-.42-.84-.842-2.08-1.22-3.26-1.22-2.38 0-3.54.92-3.54 2.36 0 4.3 8.462 1.8 8.462 7.563 0 2.78-2.44 3.88-5.12 3.88z"/><path id="K" d="M728.005 1044.137c-.98 1.36-2.38 2.182-4.46 2.182-4.3 0-5.82-3.56-5.82-7.46 0-3.922 1.52-7.482 5.82-7.482 2.02 0 3.5.8 4.44 2.18.1.102.12.2.12.32 0 .32-.3.56-.62.56-.16 0-.32-.06-.44-.22-.72-1.04-1.8-1.7-3.5-1.7-3.32 0-4.682 2.6-4.682 6.342 0 3.72 1.36 6.32 4.682 6.32 1.7 0 2.8-.64 3.54-1.7.1-.2.28-.26.44-.26.3 0 .6.26.6.58a.63.63 0 0 1-.12.34z"/><path id="L" d="M750.803 1045.98c-.28 0-.58-.2-.58-.56v-5.842c0-1.9-1.52-3.42-3.42-3.42a3.42 3.42 0 0 0-3.421 3.42v5.842c0 .36-.3.56-.56.56-.28 0-.58-.2-.58-.56v-9.502c0-.36.3-.56.58-.56.26 0 .56.2.56.56v.64c.9-.98 2.08-1.54 3.42-1.54a4.6 4.6 0 0 1 4.561 4.561v5.842c0 .36-.3.56-.56.56z"/><path id="M" d="M757.683 1045.98h-.62c-1.58 0-2.36-.78-2.36-2.342v-7.14h-1.02c-.36 0-.56-.3-.56-.58 0-.26.2-.56.56-.56h1.02v-3.06c0-.36.3-.56.58-.56s.56.2.56.56v3.06h1.84c.36 0 .56.3.56.56 0 .28-.2.58-.56.58h-1.84v7.14c0 .98.28 1.2 1.22 1.2h.62c.36 0 .56.3.56.58 0 .26-.2.56-.56.56z"/><path id="N" d="M871.523 1045.98h-.02c-.66 0-1.6-.36-1.98-1.56-.84 1.18-2.14 1.9-3.88 1.9-3.26 0-5.02-2.682-5.02-5.662 0-3.02 1.8-5.64 5.02-5.64 1.74 0 3.04.72 3.88 1.88v-.98c0-.32.26-.56.58-.56.28 0 .56.2.56.56v8.063c0 1.28 1.44.48 1.44 1.44a.55.55 0 0 1-.58.561zm-5.88-9.822c-2.36 0-3.88 1.9-3.88 4.5s1.52 4.52 3.88 4.52c2.38 0 3.88-1.92 3.88-4.52s-1.5-4.5-3.88-4.5z"/><path id="O" d="M703.948 203.5h-.374c-2.1 0-2.882-1.1-2.882-2.904v-6.91h-.66c-.528 0-.946-.418-.946-.924 0-.528.418-.946.924-.946h.66v-3.06c0-.616.462-.924.946-.924s.924.308.924.924v3.06h1.408c.616 0 .924.506.924.924 0 .528-.352.946-.924.946h-1.408v7.107c0 .616.22.836.836.836h.55c.572 0 .946.418.946.924 0 .528-.352.946-.924.946z"/><path id="P" d="M716.445 198.614h-8.14c.308 2.068 1.628 3.39 3.564 3.39 1 0 1.98-.352 2.618-1.144.198-.22.418-.353.682-.353.484 0 1 .44 1 .968 0 .264-.066.462-.528.924-1 .968-2.354 1.474-3.763 1.474-3.542 0-5.523-2.926-5.523-6.227 0-3.278 1.98-6.205 5.523-6.205 3.586 0 5.5 2.926 5.5 6.205 0 .484-.352.968-.924.968zm-4.577-5.303c-2.068 0-3.278 1.518-3.564 3.41h7.13c-.308-2.112-1.628-3.41-3.564-3.41z"/><path id="Q" d="M737.213 203.5c-1.2 0-1.76-.858-1.958-1.254-.88.968-2.156 1.628-3.873 1.628-3.586 0-5.523-2.948-5.523-6.227s1.98-6.205 5.523-6.205c1.54 0 2.772.55 3.63 1.452v-.088c0-.242.088-1 .924-1 .462 0 .968.242.968.924v8.494c0 .286.198.396.308.396.616 0 .946.44.946.946 0 .462-.33.924-.946.924zm-5.83-10.187c-2.2 0-3.63 1.716-3.63 4.334 0 2.64 1.43 4.357 3.63 4.357 2.222 0 3.63-1.716 3.63-4.357 0-2.618-1.408-4.334-3.63-4.334z"/><path id="R" d="M762.073 203.52c-.418 0-.836-.242-.924-.726a5.12 5.12 0 0 1-3.168 1.1 5.06 5.06 0 0 1-5.017-5.017v-6.095c0-.616.462-.946.924-.946.506 0 .968.33.968.924v6.117c0 1.716 1.43 3.146 3.125 3.146 1.716 0 3.146-1.43 3.146-3.146v-6.095c0-.682.44-.968.924-.968.506 0 .946.33.946.946v9.835c0 .616-.44.924-.924.924z"/><path id="S" d="M721.9 422.4h-8.14c.308 2.068 1.628 3.39 3.564 3.39 1 0 1.98-.352 2.618-1.145.198-.22.418-.352.682-.352.484 0 1 .44 1 .968 0 .264-.066.462-.528.924-1 .968-2.354 1.474-3.763 1.474-3.542 0-5.523-2.926-5.523-6.227 0-3.278 1.98-6.205 5.523-6.205 3.586 0 5.5 2.926 5.5 6.205 0 .484-.352.968-.924.968zm-4.577-5.303c-2.068 0-3.278 1.518-3.564 3.41h7.13c-.308-2.112-1.628-3.41-3.564-3.41z"/><path id="T" d="M730.723 427.66c-1.54 0-2.75-.528-3.63-1.452v4.774c0 .616-.462.946-.968.946-.462 0-.924-.33-.924-.946v-14.434c0-.616.462-.946.924-.946.506 0 .968.33.968.946 0 0 1.298-1.342 3.63-1.342 3.542 0 5.523 2.904 5.523 6.205 0 3.345-1.98 6.25-5.523 6.25zm0-10.584c-2.178 0-3.63 1.738-3.63 4.334 0 2.64 1.43 4.38 3.63 4.38s3.63-1.716 3.63-4.357c0-2.618-1.43-4.356-3.63-4.356z"/><path id="U" d="M756.418 427.285h-.374c-2.1 0-2.882-1.1-2.882-2.904v-6.91h-.66c-.528 0-.946-.418-.946-.924 0-.528.418-.946.924-.946h.66v-3.06c0-.616.462-.924.946-.924s.924.308.924.924v3.06h1.408c.616 0 .924.506.924.924 0 .528-.352.946-.924.946H755v7.107c0 .616.22.836.836.836h.55c.572 0 .946.418.946.924 0 .528-.352.946-.924.946z"/><path id="V" d="M760.334 413.82a1.58 1.58 0 0 1-1.584-1.584c0-.88.704-1.584 1.584-1.584s1.584.704 1.584 1.584-.704 1.584-1.584 1.584zm0 13.466c-.484 0-.968-.33-.968-.924v-9.813c0-.616.484-.946.968-.946.462 0 .924.33.924.946v9.813c0 .616-.462.924-.924.924z"/><path id="W" d="M779.914 427.66c-1.2 0-3.234-.374-4.27-1.65-.132-.198-.198-.396-.198-.572 0-.55.528-1 1-1 .264 0 .462.132.682.374.682.748 1.804.968 2.794.968 1.98 0 2.62-.682 2.62-1.672 0-2.816-6.71-1.078-6.71-5.61 0-2.398 2.244-3.278 4.334-3.278 1.188 0 3.982.594 3.982 1.826 0 .484-.396 1-.924 1-.198 0-.506-.1-.726-.286-.594-.506-1.452-.66-2.332-.66-1.826 0-2.464.682-2.464 1.408 0 2.618 6.733.924 6.733 5.61 0 2.596-2.178 3.542-4.51 3.542z"/><path id="X" d="M713.344 459.643c-.462 0-.924-.33-.924-.924v-6.93c0-1.276-1.056-2.333-2.31-2.333a2.33 2.33 0 0 0-2.332 2.311v6.93c0 .616-.44.946-.946.946-.484 0-.924-.33-.924-.924v-6.93a2.35 2.35 0 0 0-2.332-2.333c-1.276 0-2.333 1.056-2.333 2.31v6.93c0 .616-.462.946-.968.946-.462 0-.924-.33-.924-.924v-9.835c0-.638.484-.946.968-.946.308 0 .616.132.792.418a4.24 4.24 0 0 1 2.442-.77c1.32 0 2.508.594 3.278 1.562a4.12 4.12 0 0 1 3.256-1.562c2.333 0 4.225 1.87 4.225 4.18v6.93c0 .616-.462.946-.968.946z"/><path id="Y" d="M726.147 459.665c-.418 0-.836-.242-.924-.726a5.12 5.12 0 0 1-3.168 1.1 5.06 5.06 0 0 1-5.017-5.017v-6.095c0-.616.462-.946.924-.946.506 0 .968.33.968.924v6.117c0 1.716 1.43 3.146 3.124 3.146 1.716 0 3.146-1.43 3.146-3.146v-6.095c0-.682.44-.968.924-.968.506 0 .946.33.946.946v9.835c0 .616-.44.924-.924.924z"/><path id="Z" d="M726.92 520.874h-8.14c.308 2.068 1.628 3.39 3.564 3.39 1 0 1.98-.353 2.618-1.145.198-.22.418-.352.682-.352.484 0 1 .44 1 .968 0 .265-.066.462-.528.924-1 .97-2.354 1.475-3.763 1.475-3.542 0-5.523-2.927-5.523-6.227 0-3.278 1.98-6.205 5.523-6.205 3.586 0 5.5 2.927 5.5 6.205 0 .483-.352.968-.924.968zm-4.577-5.303c-2.068 0-3.278 1.52-3.564 3.4h7.13c-.308-2.112-1.628-3.4-3.564-3.4z"/><path id="a" d="M741.066 525.76c-1.2 0-1.76-.858-1.96-1.254-.88.968-2.156 1.628-3.873 1.628-3.586 0-5.523-2.948-5.523-6.227s1.98-6.205 5.523-6.205c1.54 0 2.772.55 3.63 1.452v-.088c0-.242.088-1 .924-1 .462 0 .968.242.968.924v8.493c0 .286.198.396.308.396.616 0 .946.44.946.946 0 .462-.33.924-.946.924zm-5.83-10.187c-2.2 0-3.63 1.716-3.63 4.335 0 2.64 1.43 4.356 3.63 4.356 2.222 0 3.63-1.717 3.63-4.356 0-2.62-1.408-4.335-3.63-4.335z"/><path id="b" d="M747.73 526.133c-1.2 0-3.234-.374-4.27-1.65-.132-.198-.198-.396-.198-.572 0-.55.528-1 1-1 .264 0 .462.133.682.374.682.75 1.804.97 2.794.97 1.98 0 2.62-.683 2.62-1.672 0-2.816-6.71-1.08-6.71-5.61 0-2.398 2.245-3.278 4.335-3.278 1.188 0 3.982.594 3.982 1.826 0 .484-.396 1-.924 1-.198 0-.506-.1-.727-.286-.594-.506-1.452-.66-2.332-.66-1.826 0-2.464.682-2.464 1.408 0 2.618 6.733.924 6.733 5.61 0 2.596-2.178 3.542-4.51 3.542z"/><path id="c" d="M724.123 236.156c-1.54 0-2.75-.528-3.63-1.452v4.774c0 .616-.462.946-.968.946-.462 0-.924-.33-.924-.946v-14.434c0-.616.462-.946.924-.946.506 0 .968.33.968.946 0 0 1.298-1.342 3.63-1.342 3.542 0 5.523 2.904 5.523 6.205 0 3.345-1.98 6.25-5.523 6.25zm0-10.583c-2.178 0-3.63 1.738-3.63 4.334 0 2.64 1.43 4.38 3.63 4.38s3.63-1.716 3.63-4.357c0-2.618-1.43-4.356-3.63-4.356z"/><path id="d" d="M769.75 225.595c-1.694 0-3.125 1.43-3.125 3.146v6.095c0 .616-.462.946-.968.946-.462 0-.924-.33-.924-.924v-9.813c0-.616.506-.946.924-.946.44 0 .858.242.946.748a5.09 5.09 0 0 1 3.146-1.122c.638 0 .968.44.968.946 0 .484-.33.924-.968.924z"/><path id="e" d="M703.904 268.1c-1.2 0-3.234-.374-4.27-1.65-.132-.198-.198-.396-.198-.572 0-.55.528-1 1-1 .264 0 .462.132.682.374.682.748 1.804.968 2.794.968 1.98 0 2.62-.682 2.62-1.672 0-2.816-6.71-1.078-6.71-5.61 0-2.398 2.245-3.278 4.335-3.278 1.188 0 3.982.594 3.982 1.826 0 .484-.396 1-.924 1-.198 0-.506-.1-.727-.286-.594-.506-1.452-.66-2.332-.66-1.826 0-2.464.682-2.464 1.408 0 2.618 6.733.924 6.733 5.61 0 2.596-2.178 3.542-4.51 3.542z"/><path id="f" d="M744.472 267.77c-1.188 0-2.2-1.012-2.2-2.244v-12.52c0-.638.462-.946.946-.946s.946.308.946.924v12.542c0 .264.198.374.308.374.616 0 .946.44.946.946a.89.89 0 0 1-.946.924z"/><path id="g" d="M771.115 268.1c-3.542 0-5.523-2.904-5.523-6.227 0-3.3 1.98-6.205 5.523-6.205s5.523 2.904 5.523 6.205c0 3.323-1.98 6.227-5.523 6.227zm0-10.562c-2.2 0-3.63 1.716-3.63 4.334 0 2.64 1.43 4.357 3.63 4.357 2.222 0 3.63-1.716 3.63-4.357 0-2.618-1.408-4.334-3.63-4.334z"/><path id="h" d="M725.1 333.23c-2.354 0-3.608-1.298-3.63-1.32 0 .616-.462.924-.968.924-.462 0-.924-.308-.924-.924v-13.774a.89.89 0 0 1 .924-.946c.506 0 .968.308.968.924v4.115c.88-.902 2.1-1.43 3.63-1.43 3.542 0 5.523 2.904 5.523 6.205 0 3.323-1.98 6.227-5.523 6.227zm0-10.562c-2.2 0-3.63 1.716-3.63 4.334 0 2.64 1.43 4.357 3.63 4.357s3.63-1.716 3.63-4.357c0-2.618-1.43-4.334-3.63-4.334z"/><path id="i" d="M734.91 492.375c-3.542 0-5.523-2.904-5.523-6.227 0-3.3 1.98-6.205 5.523-6.205s5.523 2.904 5.523 6.205c0 3.322-1.98 6.227-5.523 6.227zm0-10.562c-2.2 0-3.63 1.716-3.63 4.335 0 2.64 1.43 4.356 3.63 4.356 2.222 0 3.63-1.717 3.63-4.356 0-2.62-1.408-4.335-3.63-4.335z"/><path id="j" d="M761.726 492.375c-1.54 0-2.75-.528-3.63-1.452v4.774c0 .616-.462.946-.968.946-.462 0-.924-.33-.924-.946v-14.434c0-.616.462-.946.924-.946.506 0 .968.33.968.946 0 0 1.298-1.343 3.63-1.343 3.542 0 5.523 2.904 5.523 6.205 0 3.345-1.98 6.25-5.523 6.25zm0-10.584c-2.178 0-3.63 1.738-3.63 4.335 0 2.64 1.43 4.38 3.63 4.38s3.63-1.717 3.63-4.356c0-2.62-1.43-4.357-3.63-4.357z"/><path id="k" d="M770.877 478.535c-.88 0-1.584-.704-1.584-1.584a1.58 1.58 0 1 1 3.168 0c0 .88-.704 1.584-1.584 1.584zm0 13.466c-.484 0-.968-.33-.968-.924v-9.813c0-.616.484-.946.968-.946.462 0 .924.33.924.946v9.813c0 .616-.462.924-.924.924z"/><path id="l" d="M784.1 492c-.484 0-.924-.33-.924-.924v-6.117c0-1.716-1.43-3.146-3.146-3.146-1.694 0-3.125 1.43-3.125 3.146v6.095c0 .616-.462.97-.968.97-.462 0-.924-.33-.924-.946v-9.836c0-.638.462-.924.924-.924.44 0 .836.242.946.726.858-.682 1.936-1.1 3.146-1.1a5.06 5.06 0 0 1 5.017 5.017v6.095c0 .616-.44.946-.946.946z"/><path id="m" d="M792.987 497.018c-1.342 0-4.665-.484-4.665-1.804 0-.507.462-1 .946-1 .506 0 .066.065 1.232.506.528.198 1.32.418 2.486.418 2.442 0 3.63-1.166 3.63-3.477v-1c-.858.814-2.1 1.32-3.63 1.32-3.477 0-5.523-2.464-5.523-5.853 0-3.3 1.98-6.205 5.523-6.205 1.54 0 2.73.462 3.63 1.408v-.088c0-.616.506-.946.946-.946.462 0 .946.33.946.946v10.407c0 3.5-2.1 5.347-5.523 5.347zm0-15.204c-2.2 0-3.63 1.716-3.63 4.335 0 2.508 1.32 3.982 3.63 3.982s3.63-1.475 3.63-3.982c0-2.62-1.408-4.335-3.63-4.335z"/><path id="n" d="M815.978 490.703c-.968 1.078-2.3 1.672-3.938 1.672-3.542 0-5.523-2.904-5.523-6.227 0-3.3 1.98-6.205 5.523-6.205 1.628 0 2.97.594 3.938 1.672.176.198.264.418.264.64 0 .483-.484.945-1 .945-.198 0-.44-.088-.682-.308-.616-.682-1.43-1.078-2.53-1.078-2.2 0-3.63 1.716-3.63 4.335 0 2.64 1.43 4.356 3.63 4.356 1.1 0 1.936-.418 2.53-1.078a.88.88 0 0 1 .682-.33c.506 0 1 .44 1 .968 0 .198-.088.44-.264.64z"/><path id="o" d="M708.747 589.686c-.968 1.078-2.3 1.672-3.938 1.672-3.542 0-5.523-2.904-5.523-6.227 0-3.3 1.98-6.205 5.523-6.205 1.628 0 2.97.594 3.938 1.672.176.198.264.418.264.64 0 .483-.484.946-1 .946-.198 0-.44-.09-.682-.31-.616-.682-1.43-1.078-2.53-1.078-2.2 0-3.63 1.716-3.63 4.335 0 2.64 1.43 4.356 3.63 4.356 1.1 0 1.936-.418 2.53-1.078a.88.88 0 0 1 .682-.33c.506 0 1 .44 1 .968 0 .198-.088.44-.264.64z"/><path id="p" d="M498.496 568.38c-1.876 0-4.004-1.008-5.04-2.66a.76.76 0 0 1-.14-.448c0-.448.42-.812.84-.812s.448.224.868.672c.896 1.063 2.072 1.65 3.472 1.65 2.464 0 4.676-2.128 4.676-5.067 0-2.968-2.212-5.096-4.676-5.096-1.932 0-3.192 1.23-3.696 1.987-.168.28-.42.393-.756.393-.476 0-.812-.31-.812-.84v-9.212c0-.476.364-.783.784-.783h9.352c.56 0 .84.392.84.783s-.28.784-.84.784h-8.54v6.552c.896-.728 2.1-1.26 3.668-1.26 3.444 0 6.272 2.912 6.272 6.692 0 3.724-2.828 6.664-6.272 6.664z"/><path id="q" d="M525.936 568.574c-5.936 0-5.992-7.11-5.992-11.2 0-4.004.616-9.716 5.964-9.716 5.236 0 6.02 5.376 6.02 9.716 0 4.06-.084 11.2-5.992 11.2zm4.396-11.2c0-4.004-.56-8.12-4.396-8.12-4.2 0-4.396 5.15-4.396 8.12v1.792c0 3.248.616 7.812 4.368 7.812 3.836 0 4.424-4.563 4.424-7.812v-1.792z"/><path id="r" d="M78.025 865.543c-.896 0-1.596-.7-1.596-1.597s.7-1.596 1.596-1.596 1.596.7 1.596 1.596-.7 1.597-1.596 1.597zm0 17.556c-.392 0-.812-.252-.812-.784v-13.3c0-.504.392-.784.812-.784.364 0 .784.252.784.784v13.3c0 .504-.364.784-.784.784z"/><path id="s" d="M84.997 883.267c-1.512 0-2.772-1.4-2.772-2.968v-16.353c0-.504.42-.783.812-.783a.78.78 0 0 1 .784.783V880.3c0 1.792 1.988.756 1.988 2.016 0 .477-.336.952-.812.952z"/><path id="t" d="M73.9 915.24c1.146 1.188 1.74 2.74 1.78 4.656v10.563c-.042 1.917-.636 3.48-1.78 4.688-1.146 1.188-2.656 1.802-4.53 1.844-1.854-.042-3.365-.656-4.53-1.844-1.146-1.208-1.73-2.77-1.75-4.687v-10.562c.02-1.916.604-3.47 1.75-4.656 1.166-1.208 2.677-1.822 4.53-1.844 1.875.02 3.385.636 4.53 1.844zm-8.47 4.656v10.563c.02 1.292.375 2.334 1.063 3.125.708.792 1.666 1.198 2.875 1.22 1.208-.02 2.166-.427 2.875-1.22s1.072-1.833 1.094-3.125v-10.562c-.02-1.29-.386-2.322-1.094-3.094-.71-.79-1.667-1.197-2.875-1.22-1.21.02-2.167.428-2.875 1.22-.687.77-1.042 1.803-1.062 3.094v-.03.03z"/><path id="u" d="M432.212 914.203c.572.594.87 1.37.89 2.328v5.28c-.02.96-.318 1.74-.89 2.344-.573.594-1.328.9-2.266.922-.928-.02-1.683-.328-2.266-.922-.573-.604-.865-1.385-.875-2.344v-5.28c.01-.958.302-1.734.875-2.328.583-.604 1.338-.91 2.266-.922.938.01 1.692.318 2.266.922zm-4.234 2.328v5.28c.01.646.188 1.167.53 1.563.354.396.833.6 1.438.61.604-.01 1.083-.213 1.438-.61s.536-.916.547-1.562v-5.28c-.01-.646-.193-1.16-.547-1.547-.354-.396-.834-.6-1.437-.61-.604.01-1.084.214-1.437.61-.344.386-.52.9-.53 1.547v-.016.016z"/><path id="v" d="M308.563 914.203c.572.594.87 1.37.89 2.328v5.28c-.02.96-.318 1.74-.89 2.344-.573.594-1.328.9-2.266.922-.928-.02-1.683-.328-2.266-.922-.573-.604-.865-1.385-.875-2.344v-5.28c.01-.958.302-1.734.875-2.328.583-.604 1.338-.91 2.266-.922.937.01 1.692.318 2.266.922zm-4.234 2.328v5.28c.01.646.188 1.167.53 1.563.354.396.833.6 1.438.61.604-.01 1.083-.213 1.438-.61s.536-.916.547-1.562v-5.28c-.01-.646-.193-1.16-.547-1.547-.354-.396-.834-.6-1.437-.61-.604.01-1.084.214-1.437.61-.344.386-.52.9-.53 1.547v-.016.016z"/><path id="w" d="M84.695 969.088c-1.2 0-3.234-.374-4.27-1.65-.132-.198-.198-.396-.198-.572 0-.55.528-1 1-1 .264 0 .462.133.682.375.682.748 1.804.968 2.794.968 1.98 0 2.62-.683 2.62-1.673 0-2.816-6.71-1.078-6.71-5.6 0-2.398 2.245-3.278 4.335-3.278 1.188 0 3.982.594 3.982 1.826 0 .484-.396 1-.924 1-.198 0-.506-.1-.727-.286-.594-.506-1.452-.66-2.332-.66-1.826 0-2.464.683-2.464 1.408 0 2.618 6.733.924 6.733 5.6 0 2.597-2.178 3.543-4.51 3.543z"/><path id="x" d="M102.318 968.714c-1.2 0-1.76-.858-1.958-1.254-.88.968-2.156 1.628-3.873 1.628-3.586 0-5.523-2.948-5.523-6.227s1.98-6.205 5.523-6.205c1.54 0 2.772.55 3.63 1.452v-.088c0-.242.088-1 .924-1 .462 0 .968.242.968.924v8.493c0 .286.198.396.308.396.616 0 .946.44.946.946 0 .462-.33.924-.946.924zm-5.83-10.187c-2.2 0-3.63 1.716-3.63 4.335 0 2.64 1.43 4.356 3.63 4.356 2.222 0 3.63-1.717 3.63-4.356 0-2.62-1.408-4.335-3.63-4.335z"/><path id="y" d="M182.793 963.83h-8.14c.308 2.068 1.628 3.39 3.564 3.39 1 0 1.98-.353 2.618-1.145.198-.22.418-.352.682-.352.484 0 1 .44 1 .968 0 .264-.066.462-.528.924-1 .97-2.354 1.475-3.763 1.475-3.542 0-5.523-2.927-5.523-6.227 0-3.278 1.98-6.205 5.523-6.205 3.586 0 5.5 2.927 5.5 6.205 0 .483-.352.968-.924.968zm-4.577-5.303c-2.068 0-3.278 1.52-3.564 3.4h7.13c-.308-2.112-1.628-3.4-3.564-3.4z"/><path id="z" d="M233.502 958.526c-1.694 0-3.125 1.43-3.125 3.146v6.095c0 .616-.462.946-.968.946-.462 0-.924-.33-.924-.924v-9.813c0-.616.506-.946.924-.946.44 0 .858.242.946.748a5.09 5.09 0 0 1 3.146-1.122c.638 0 .968.44.968.946 0 .483-.33.924-.968.924z"/><path id="AA" d="M126.03 76.46c-2.64 2.94-6.3 4.56-10.74 4.56-9.66 0-15.06-7.92-15.06-16.98 0-9 5.4-16.92 15.06-16.92 4.44 0 8.1 1.62 10.74 4.56.48.54.72 1.14.72 1.74 0 1.32-1.32 2.58-2.7 2.58-.54 0-1.2-.24-1.86-.84-1.68-1.86-3.9-2.94-6.9-2.94-6 0-9.9 4.68-9.9 11.82 0 7.2 3.9 11.88 9.9 11.88 3 0 5.28-1.14 6.9-2.94.54-.66 1.26-.9 1.86-.9 1.38 0 2.7 1.2 2.7 2.64 0 .54-.24 1.2-.72 1.74z"/><path id="AB" d="M106.46 109.687c-3.57 0-6.497 2.888-6.497 6.497v10.753c0 .684-.57 1.063-1.063 1.063-.532 0-1.103-.38-1.103-1.063V108.89c0-.684.57-1.063 1.103-1.063.494 0 1.063.38 1.063 1.063v1.558c1.7-1.86 3.95-2.925 6.497-2.925.684 0 1.102.57 1.102 1.063 0 .532-.418 1.102-1.102 1.102z"/><path id="AC" d="M158.288 125.76c-1.672 1.86-3.99 2.887-6.8 2.887-6.117 0-9.536-5.015-9.536-10.752 0-5.7 3.42-10.715 9.536-10.715 2.812 0 5.13 1.026 6.8 2.888.23.23.305.494.305.722 0 .57-.532 1.14-1.103 1.14-.266 0-.53-.114-.798-.38-1.254-1.406-3-2.204-5.205-2.204-4.483 0-7.37 3.61-7.37 8.55s2.888 8.587 7.37 8.587c2.204 0 3.95-.836 5.205-2.204.267-.266.532-.38.798-.38a1.13 1.13 0 0 1 1.103 1.102c0 .267-.076.494-.305.76z"/><path id="AD" d="M181.468 128h-.038c-1.254 0-3.04-.684-3.762-2.964-1.596 2.242-4.065 3.61-7.37 3.61-6.193 0-9.536-5.09-9.536-10.752 0-5.737 3.42-10.715 9.536-10.715 3.306 0 5.775 1.368 7.37 3.572v-1.862c0-.607.494-1.063 1.102-1.063.532 0 1.064.38 1.064 1.063V124.2c0 2.432 2.735.912 2.735 2.736a1.04 1.04 0 0 1-1.102 1.063zm-11.17-18.655c-4.483 0-7.37 3.61-7.37 8.55s2.888 8.587 7.37 8.587c4.52 0 7.37-3.647 7.37-8.587s-2.85-8.55-7.37-8.55z"/><path id="AE" d="M190.855 128.722c-2.28 0-6.117-.798-7.447-3-.15-.23-.15-.418-.15-.57 0-.607.53-1.14 1.102-1.14.228 0 .607.19.836.532 1.367 1.67 3.8 2.014 5.66 2.014 3.686 0 5.547-1.216 5.547-3.686 0-5.737-12.462-2.698-12.462-10.297 0-3.837 3.837-5.32 7.295-5.32 1.976 0 5.015.685 6.535 2.204.228.228.342.494.342.722 0 .57-.57 1.14-1.178 1.14-.23 0-.494-.076-.722-.304-1.178-1.14-3.306-1.596-4.978-1.596-3.344 0-5.13 1.292-5.13 3.153 0 5.32 12.462 2.508 12.462 10.297 0 4.33-3.8 5.85-7.713 5.85z"/><path id="AF" d="M218.176 118.996h-15.768c.342 4.332 3.153 7.485 7.295 7.485 2.052 0 4.483-.912 5.585-2.622.267-.418.57-.53.912-.53.57 0 1.178.455 1.178 1.025 0 .342 0 .418-.722 1.254-1.748 2.052-4.293 3.04-6.953 3.04-6.117 0-9.536-5.015-9.536-10.752 0-5.7 3.42-10.715 9.536-10.715s9.537 5.054 9.537 10.715c0 .57-.532 1.102-1.064 1.102zm-8.473-9.65c-4.56 0-6.953 3.495-7.295 7.485h14.628c-.342-4.332-3.153-7.485-7.333-7.485z"/><path id="AG" d="M296.797 103.077h-1.178c-.912 0-1.672.76-1.672 1.633v3.116h2.85c.723 0 1.064.57 1.064 1.063 0 .532-.38 1.102-1.064 1.102h-2.85v16.946c0 .684-.53 1.063-1.063 1.063s-1.063-.342-1.063-1.063V109.99h-2.622c-.684 0-1.063-.57-1.063-1.102 0-.494.38-1.063 1.063-1.063h2.622v-3.116a3.77 3.77 0 0 1 3.761-3.761h1.216c.685 0 1.103.53 1.103 1.102 0 .532-.38 1.026-1.103 1.026z"/><path id="AH" d="M308.69 128.646c-6.117 0-9.536-5.015-9.536-10.752 0-5.7 3.42-10.715 9.536-10.715s9.537 5.016 9.537 10.715c0 5.737-3.42 10.752-9.537 10.752zm0-19.3c-4.483 0-7.37 3.61-7.37 8.55s2.888 8.587 7.37 8.587c4.52 0 7.37-3.647 7.37-8.587s-2.85-8.55-7.37-8.55z"/><path id="AI" d="M399.5 128c-.53 0-1.102-.38-1.102-1.063v-11.095a6.47 6.47 0 0 0-6.497-6.497c-3.57 0-6.497 2.888-6.497 6.497v11.095c0 .684-.57 1.063-1.063 1.063-.532 0-1.103-.38-1.103-1.063V108.89c0-.684.57-1.063 1.103-1.063.494 0 1.063.38 1.063 1.063v1.216c1.7-1.86 3.95-2.926 6.497-2.926 4.71 0 8.663 3.914 8.663 8.663v11.095c0 .684-.57 1.063-1.064 1.063z"/><path id="AJ" d="M421.236 128c-.53 0-1.102-.38-1.102-1.063v-1.9c-1.596 2.242-4.065 3.61-7.37 3.61-6.117 0-9.536-5.015-9.536-10.752 0-5.7 3.42-10.715 9.536-10.715 3.306 0 5.775 1.368 7.37 3.572v-8.74c0-.684.57-1.063 1.102-1.063.494 0 1.064.38 1.064 1.063v24.925c0 .684-.57 1.063-1.064 1.063zm-8.473-18.655c-4.483 0-7.37 3.61-7.37 8.55s2.888 8.587 7.37 8.587c4.52 0 7.37-3.647 7.37-8.587s-2.85-8.55-7.37-8.55z"/><path id="AK" d="M473.98 128h-1.178c-3 0-4.483-1.48-4.483-4.445V109.99h-1.937c-.684 0-1.063-.57-1.063-1.102 0-.494.38-1.063 1.063-1.063h1.938v-5.813c0-.684.57-1.063 1.103-1.063s1.063.38 1.063 1.063v5.813h3.495c.685 0 1.064.57 1.064 1.063 0 .532-.38 1.102-1.064 1.102h-3.495v13.564c0 1.86.532 2.28 2.317 2.28h1.178c.685 0 1.064.57 1.064 1.103 0 .493-.38 1.063-1.064 1.063z"/><path id="AL" d="M596.376 104.178a2.14 2.14 0 1 1 0-4.332 2.14 2.14 0 0 1 0 4.332zm0 23.822c-.532 0-1.103-.342-1.103-1.063V108.89c0-.684.532-1.063 1.103-1.063.494 0 1.063.342 1.063 1.063v18.048c0 .684-.494 1.063-1.063 1.063z"/></defs></svg>