<svg xmlns="http://www.w3.org/2000/svg" xmlns:xlink="http://www.w3.org/1999/xlink" viewBox="0 0 1080 1080"><linearGradient id="A" gradientUnits="userSpaceOnUse" x1="540" y1="1080" x2="540" y2="0"><stop offset="0" stop-color="#4a7c9a"/><stop offset=".168" stop-color="#669caf"/><stop offset=".428" stop-color="#8bc6cc"/><stop offset=".663" stop-color="#a6e5e2"/><stop offset=".861" stop-color="#b7f8ee"/><stop offset="1" stop-color="#bdfff3"/></linearGradient><path d="M1040 1080H40c-22.09 0-40-17.91-40-40V40C0 17.91 17.91 0 40 0h1000c22.09 0 40 17.91 40 40v1000c0 22.09-17.91 40-40 40z" fill="url(#A)"/><path d="M62 632.295c-.588 0-1.176-.448-1.176-1.176V616.1l-2.24 2.185a1.08 1.08 0 0 1-.783.336c-.673 0-1.26-.616-1.26-1.232 0-.308.112-.588.364-.84l4.172-4.032c.336-.308.7-.447 1.036-.447.784 0 1.12.783 1.12 1.428v17.584c0 .756-.588 1.204-1.232 1.204zm15.523-3.36H76.32v2.185c0 .756-.645 1.176-1.204 1.176-.588 0-1.204-.42-1.204-1.176v-2.185H67.22c-.783 0-1.26-.476-1.26-1.12a1.14 1.14 0 0 1 .168-.616l7.73-14.7c.224-.448.644-.645 1.008-.645.644 0 1.26.504 1.26 1.148 0 .196-.028.392-.168.616l-6.776 12.936h4.732v-3.192c0-.812.588-1.23 1.176-1.23.616 0 1.232.392 1.232 1.204v3.22h1.204a1.14 1.14 0 0 1 1.203 1.204c0 .616-.42 1.176-1.203 1.176zm8.597 3.835c-2.156 0-4.06-1.12-5.097-2.855a1.22 1.22 0 0 1-.195-.645c0-.672.588-1.176 1.23-1.176a1.13 1.13 0 0 1 1.01.56c.615 1.064 1.735 1.736 3.023 1.736 2.1 0 3.836-1.736 3.836-3.78 0-2.1-1.708-3.836-3.808-3.836h-.02c-.728 0-1.176-.56-1.176-1.176s.476-1.204 1.204-1.204c1.708 0 3.08-1.315 3.08-3.08 0-1.68-1.372-3.052-3.08-3.052-2.716 0-2.744 2.744-4.2 2.744-.644 0-1.26-.504-1.26-1.176 0-.225.056-.448.195-.672.673-1.036 2.353-3.305 5.265-3.305a5.47 5.47 0 0 1 5.46 5.46c0 1.708-.73 3.192-1.988 4.2 1.624 1.12 2.716 2.94 2.716 5.068a6.19 6.19 0 0 1-6.187 6.188z" opacity=".7" fill="#1c5e7f"/><g opacity=".7" fill="#ed8208"><path d="M994.08 305.296h-8.568c-.812 0-1.288-.477-1.288-1.064 0-.252.084-.504.252-.756l7.644-11.62c.336-.532.532-1.176.532-1.68 0-1.652-1.23-2.912-2.884-2.912-1.484 0-2.744 1.26-3.22 2.156-.223.42-.588.588-.95.588-.645 0-1.232-.504-1.232-1.148 0-.867 1.988-4.004 5.404-4.004a5.28 5.28 0 0 1 5.264 5.265 5.47 5.47 0 0 1-.95 3.023l-6.412 9.772h6.412c.812 0 1.23.56 1.23 1.204 0 .588-.42 1.176-1.23 1.176zm9.24.474c-2.324 0-4.005-1.008-5.152-2.77-.196-.252-.28-.477-.28-.73 0-.644.617-1.147 1.26-1.147.337 0 .73.14.98.53.73 1.12 1.708 1.736 3.192 1.736 2.688 0 3.892-2.408 4.004-7.728-.925.896-2.38 1.596-4.004 1.596-3.332 0-5.992-2.912-5.992-6.188 0-3.304 2.66-6.216 5.992-6.216 5.907 0 6.384 6.048 6.384 10.444 0 5.236-1.148 10.472-6.384 10.472zm0-18.508c-1.904 0-3.612 1.708-3.612 3.808 0 2.072 1.708 3.78 3.612 3.78 1.96 0 3.584-1.652 3.668-3.864-.336-2.155-1.484-3.724-3.668-3.724z"/><use xlink:href="#E"/></g><path d="M235.592 501.495h-8.568c-.812 0-1.288-.477-1.288-1.064 0-.252.084-.504.252-.756l7.645-11.62c.336-.532.53-1.176.53-1.68 0-1.652-1.23-2.912-2.884-2.912-1.483 0-2.744 1.26-3.22 2.156-.224.42-.588.588-.952.588-.644 0-1.23-.504-1.23-1.148 0-.867 1.987-4.004 5.403-4.004a5.28 5.28 0 0 1 5.265 5.265c0 1.12-.393 2.212-.952 3.023l-6.412 9.772h6.412c.812 0 1.23.56 1.23 1.204 0 .588-.42 1.176-1.23 1.176zm8.708.475c-5.992 0-5.992-7.1-5.992-11.2 0-3.947.616-9.716 5.965-9.716s6.02 5.628 6.02 9.716c0 4.257-.112 11.2-5.992 11.2zm3.584-11.2c0-2.464-.056-7.308-3.584-7.308s-3.584 4.844-3.584 7.308v1.568c0 2.912.393 7.252 3.557 7.252 3.22 0 3.6-4.34 3.6-7.252v-1.568zm9.743 11.004c-1.876 0-4.004-1.008-5.04-2.66a1.24 1.24 0 0 1-.196-.672c0-.645.56-1.148 1.204-1.148.532 0 .73.196 1.148.756.7.868 1.792 1.344 2.884 1.344 1.932 0 3.892-1.764 3.892-4.283 0-2.55-1.96-4.312-3.892-4.312-1.484 0-2.492.756-2.968 1.568-.225.42-.616.644-1.093.644-.728 0-1.204-.476-1.204-1.4v-8.876c0-.645.56-1.177 1.204-1.177h8.513c.812 0 1.23.56 1.23 1.204 0 .588-.392 1.176-1.176 1.176h-7.392v5.236c.672-.476 1.735-.756 2.884-.756 3.443 0 6.27 2.912 6.27 6.692 0 3.724-2.828 6.663-6.272 6.663z" opacity=".7" fill="#ed8208"/><g opacity=".7" fill="#ed8208"><path d="M896.784 263.577c-2.156 0-4.06-1.12-5.096-2.855a1.22 1.22 0 0 1-.196-.645c0-.672.588-1.176 1.23-1.176a1.13 1.13 0 0 1 1.01.56c.616 1.064 1.735 1.736 3.024 1.736 2.1 0 3.836-1.736 3.836-3.78a3.84 3.84 0 0 0-3.81-3.836h-.027c-.73 0-1.177-.56-1.177-1.176s.476-1.204 1.204-1.204c1.708 0 3.08-1.315 3.08-3.08 0-1.68-1.372-3.052-3.08-3.052-2.716 0-2.744 2.744-4.2 2.744-.644 0-1.26-.504-1.26-1.176a1.23 1.23 0 0 1 .196-.672c.672-1.036 2.352-3.305 5.264-3.305a5.47 5.47 0 0 1 5.46 5.46c0 1.708-.728 3.192-1.987 4.2 1.623 1.12 2.715 2.94 2.715 5.068a6.19 6.19 0 0 1-6.187 6.188zm13.186-.475c-.588 0-1.176-.448-1.176-1.176v-15l-2.24 2.185a1.08 1.08 0 0 1-.783.336c-.673 0-1.26-.616-1.26-1.232 0-.308.112-.588.364-.84l4.172-4.032c.336-.308.7-.447 1.036-.447.784 0 1.12.783 1.12 1.428v17.584c0 .756-.588 1.204-1.232 1.204z"/><use xlink:href="#E" x="-97.66" y="-42.193"/></g><g fill="#154b60"><path d="M44.228 1046.045c-3.568 0-5.47-1.97-5.503-2.002 0 .935-.7 1.4-1.468 1.4-.7 0-1.4-.467-1.4-1.4v-20.88a1.35 1.35 0 0 1 1.401-1.434c.767 0 1.468.467 1.468 1.4v6.238c1.334-1.368 3.168-2.17 5.503-2.17 5.37 0 8.373 4.403 8.373 9.406 0 5.037-3.002 9.44-8.373 9.44zm0-16c-3.335 0-5.503 2.602-5.503 6.57 0 4.003 2.168 6.604 5.503 6.604s5.504-2.602 5.504-6.604c0-3.97-2.168-6.57-5.504-6.57zm25.555 8.037h-12.34c.467 3.136 2.468 5.137 5.403 5.137 1.5 0 3.002-.533 3.97-1.734.3-.333.634-.533 1.034-.533.734 0 1.5.667 1.5 1.468 0 .4-.1.7-.8 1.4-1.5 1.468-3.57 2.235-5.704 2.235-5.37 0-8.372-4.437-8.372-9.44 0-4.97 3.002-9.406 8.372-9.406 5.437 0 8.34 4.437 8.34 9.406 0 .734-.534 1.468-1.4 1.468zm-6.937-8.038c-3.136 0-4.97 2.3-5.403 5.17H68.25c-.467-3.202-2.468-5.17-5.403-5.17zm27.054 15.444c-1.834 0-2.668-1.3-2.97-1.9-1.334 1.468-3.27 2.47-5.87 2.47-5.437 0-8.372-4.47-8.372-9.44s3.002-9.406 8.372-9.406c2.335 0 4.203.834 5.504 2.202v-.134c0-.367.133-1.5 1.4-1.5.7 0 1.468.367 1.468 1.4v12.875c0 .434.3.6.467.6.935 0 1.435.667 1.435 1.434a1.37 1.37 0 0 1-1.435 1.401zm-8.84-15.443c-3.336 0-5.504 2.602-5.504 6.57 0 4.003 2.168 6.604 5.504 6.604 3.37 0 5.504-2.602 5.504-6.604 0-3.97-2.135-6.57-5.504-6.57z"/><use xlink:href="#F"/><path d="M117.058 1045.478h-.567c-3.17 0-4.37-1.668-4.37-4.403V1030.6h-1c-.8 0-1.435-.634-1.435-1.4 0-.8.634-1.435 1.4-1.435h1v-4.637c0-.934.7-1.4 1.435-1.4s1.4.467 1.4 1.4v4.637h2.135c.934 0 1.4.768 1.4 1.4 0 .8-.533 1.434-1.4 1.434h-2.135v10.774c0 .934.333 1.268 1.268 1.268h.833c.868 0 1.435.634 1.435 1.4 0 .8-.533 1.435-1.4 1.435zm4.604-20.415a2.402 2.402 0 1 1 0-4.803 2.402 2.402 0 1 1 0 4.803zm0 20.414c-.733 0-1.467-.5-1.467-1.4V1029.2c0-.935.733-1.435 1.467-1.435a1.37 1.37 0 0 1 1.401 1.435v14.876c0 .935-.7 1.4-1.4 1.4zm10.376-14.877h-1.5v13.442c0 .935-.7 1.4-1.468 1.4-.7 0-1.4-.467-1.4-1.4V1030.6h-1.37c-.9 0-1.4-.667-1.4-1.4 0-.768.5-1.435 1.4-1.435h1.367v-2.27c0-2.135 1.77-3.77 3.836-3.77.968 0 1.468.667 1.468 1.434 0 .7-.5 1.4-1.468 1.4-.566 0-.967.434-.967.9v2.302h1.5c.967 0 1.468.667 1.468 1.435 0 .733-.5 1.4-1.468 1.4z"/><use xlink:href="#F" x="42.068"/><path d="M156.625 1045.544c-1.802 0-3.336-1.534-3.336-3.402v-18.98c0-.967.7-1.434 1.435-1.434s1.435.467 1.435 1.4v19.013c0 .4.3.567.467.567.934 0 1.435.667 1.435 1.435 0 .733-.5 1.4-1.435 1.4zm15.37-.066v-1.264c1.886-.237 2.046-.437 2.046-3.157v-6.7c0-2.8-1.248-4.017-3.064-4.017-1.237 0-2.345.6-3.47 1.493v9.476c0 2.527.187 2.658 2.06 2.896v1.264h-8.968v-1.264c2.254-.33 2.5-.4 2.5-3v-8.2c0-2.446-.303-2.565-2.185-2.922v-1.184c2.173-.292 4.63-.807 6.653-1.533l-.052 2.95 2.6-1.745c1.16-.713 2-1.086 3.16-1.086 3.194 0 5.2 2.338 5.2 6.3v7.5c0 2.54.237 2.657 2.277 2.92v1.264h-8.74zm23.9-3.703c-2.458 3.427-5.488 4.178-7.014 4.178-5.142 0-8.124-3.936-8.124-8.594 0-2.745 1.183-5.396 2.832-7.062 1.74-1.8 3.945-2.814 6.082-2.814 3.73 0 6.396 3.126 6.37 6.347-.014.715-.08 1.277-.612 1.4-.767.184-6.17.5-10.318.647.062 4.587 2.717 6.74 5.556 6.74 1.572 0 3.104-.597 4.543-1.866l.686 1.014zm-7.07-12.7c-1.667 0-3.167 1.807-3.516 4.963l5.486-.118c.6-.026.848-.146.848-.792.04-2.022-1.037-4.053-2.818-4.053zm34.284.145c-1.943.343-2.248.624-3.105 2.765-1.33 3.462-3.102 8.53-4.934 13.94h-1.512l-4.65-11.46-4.55 11.46h-1.472l-4.685-14.192c-.687-1.985-.94-2.274-2.855-2.512v-1.25h9.397v1.25c-2.325.345-2.535.672-2.058 2.133l2.52 8.214c1.507-3.68 2.988-7.62 4.327-11.424H211c1.4 3.76 2.986 7.702 4.573 11.568.742-2.107 2.062-5.964 2.557-8.108.412-1.674-.008-2.078-2.753-2.383v-1.25h7.742v1.25z"/><path d="M232.528 1032.956c-.92-2.606-2.155-3.984-4.2-3.984-1.206 0-2.225.86-2.225 2.266 0 1.497 1.046 2.264 3.16 3.216 3.278 1.496 5.3 2.787 5.3 5.736 0 3.85-3.6 5.764-6.945 5.764-2.06 0-4.088-.737-4.92-1.16l-.662-4.892 1.252-.224c.8 2.5 2.33 4.75 4.976 4.75 1.505 0 2.438-.952 2.438-2.28 0-1.423-.76-2.333-3.092-3.467-2.67-1.295-5.107-2.64-5.107-5.775 0-3.046 2.533-5.42 6.565-5.42 1.818 0 3.242.396 4.112.567l.62 4.577-1.25.328zm484.755 13.402c-1.2 0-3.22-.42-3.92-1.58-.08-.12-.08-.22-.08-.3 0-.32.28-.6.58-.6.12 0 .32.1.44.28.72.88 2 1.06 2.98 1.06 1.94 0 2.92-.64 2.92-1.94 0-3.02-6.562-1.42-6.562-5.422 0-2.02 2.02-2.8 3.84-2.8 1.04 0 2.64.36 3.44 1.16a.56.56 0 0 1 .18.38.65.65 0 0 1-.62.6.53.53 0 0 1-.38-.16c-.62-.6-1.74-.84-2.62-.84-1.76 0-2.7.68-2.7 1.66 0 2.8 6.562 1.32 6.562 5.422 0 2.28-2 3.08-4.06 3.08z"/><use xlink:href="#G"/><path d="M743.784 1045.98c-.28 0-.58-.2-.58-.56v-.64c-.84.98-2.06 1.54-3.42 1.54-2.48 0-4.56-2.08-4.56-4.56v-5.842c0-.36.3-.56.58-.56.26 0 .56.2.56.56v5.842c0 1.9 1.52 3.42 3.42 3.42s3.42-1.52 3.42-3.42v-5.842c0-.36.3-.56.58-.56.26 0 .56.2.56.56v9.502c0 .36-.3.56-.56.56z"/><use xlink:href="#H"/><use xlink:href="#I"/><use xlink:href="#J"/><path d="M777.482 1039.417c-.64 0-1.16-.5-1.16-1.14s.52-1.14 1.16-1.14c.62 0 1.12.5 1.12 1.14s-.5 1.14-1.12 1.14zm0 6.562c-.64 0-1.16-.5-1.16-1.14s.52-1.14 1.16-1.14c.62 0 1.12.5 1.12 1.14s-.5 1.14-1.12 1.14zm11.138.001h-2.28c-.36 0-.58-.3-.58-.56a.58.58 0 0 1 .58-.58h.56v-11.982h-.56c-.36 0-.58-.28-.58-.56s.22-.56.58-.56h2.28c.36 0 .56.28.56.56s-.2.56-.56.56h-.58v11.982h.58c.36 0 .56.3.56.58 0 .26-.2.56-.56.56z"/><use xlink:href="#K"/><use xlink:href="#L"/><use xlink:href="#J" x="44.92"/><use xlink:href="#H" x="74.18"/><use xlink:href="#K" x="36.379"/><use xlink:href="#M"/><use xlink:href="#L" x="49.219"/><path d="M859.2 1033.436c-.64 0-1.14-.5-1.14-1.14s.5-1.14 1.14-1.14 1.14.5 1.14 1.14-.5 1.14-1.14 1.14zm0 12.543c-.28 0-.58-.18-.58-.56v-9.502c0-.36.28-.56.58-.56.26 0 .56.18.56.56v9.502c0 .36-.26.56-.56.56z"/><use xlink:href="#G" x="139.159"/><use xlink:href="#K" x="82.977"/><use xlink:href="#M" x="46.6"/><path d="M901.16 1046.1c-1.08 0-1.98-1-1.98-2.12v-11.683c0-.36.3-.56.58-.56.26 0 .56.2.56.56v11.683c0 1.28 1.42.54 1.42 1.44 0 .34-.24.68-.58.68zm16.762-.12h-8.882c-.3 0-.58-.28-.58-.56v-13.122c0-.3.28-.56.58-.56h8.882a.55.55 0 0 1 .58.561.55.55 0 0 1-.58.56h-8.32v4.92h6.1a.55.55 0 0 1 .58.561c0 .28-.2.58-.56.58h-6.12v5.92h8.32c.38 0 .58.3.58.58a.55.55 0 0 1-.58.561z"/><use xlink:href="#K" x="129.297"/><use xlink:href="#J" x="168.178"/><use xlink:href="#H" x="197.437"/><use xlink:href="#N"/><use xlink:href="#O"/><path d="M989.46 1045.98c-.2 0-.42-.12-.52-.34l-1.28-3.08h-7.2l-1.28 3.08c-.08.22-.32.34-.5.34-.3 0-.58-.22-.58-.54 0-.1 0-.16.04-.26l5.4-13.104a.63.63 0 0 1 .58-.38c.2 0 .38.12.48.38l5.4 13.104c.04.1.04.16.04.26 0 .32-.28.54-.58.54zm-5.4-12.183l-3.14 7.622h6.3l-3.16-7.622z"/><use xlink:href="#N" x="40.56"/><use xlink:href="#J" x="239.716"/><use xlink:href="#K" x="224.577"/><use xlink:href="#I" x="274.157"/><use xlink:href="#O" x="75"/></g><linearGradient id="B" gradientUnits="userSpaceOnUse" x1="529.551" y1="943.981" x2="529.551" y2="273.102"><stop offset="0" stop-color="#f09819"/><stop offset=".219" stop-color="#f28f1c"/><stop offset=".579" stop-color="#f77624"/><stop offset="1" stop-color="#ff512f"/></linearGradient><path d="M1025.1 943.98h-41.797V315.295h26.798c8.284 0 15 6.716 15 15V943.98zm-94.407-655.88c0-8.284-6.716-15-15-15h-26.798v670.88h41.798v-655.88zm-94.407 23.206c0-8.284-6.716-15-15-15H794.5V943.98h41.798V311.308zm-95.304 59.07c0-8.284-6.716-15-15-15h-26.797V943.98h41.797V370.38zm-94.407-8.44c0-8.284-6.716-15-15-15H604.78v597.04h41.798V361.94zm-95.304-16.877c0-8.284-6.716-15-15-15h-26.797V943.98h41.797V345.063zm-95.304-8.44c0-8.284-6.716-15-15-15h-26.798V943.98h41.798V336.624zm-94.407 145.568c0-8.284-6.716-15-15-15h-26.798v476.79h41.798v-461.79zm-94.407 44.303c0-8.284-6.716-15-15-15H225.36V943.98h41.797V526.495zM171.1 642.527c0-8.284-6.716-15-15-15h-26.797V943.98H171.1V642.527zm-95.304 59.07c0-8.284-6.716-15-15-15H34V943.98h41.797V701.598z" fill="url(#B)"/><linearGradient id="C" gradientUnits="userSpaceOnUse" x1="550.898" y1="943.981" x2="550.898" y2="574.786"><stop offset="0" stop-color="#2980b9"/><stop offset=".227" stop-color="#2a6d9a"/><stop offset=".567" stop-color="#2b5372"/><stop offset=".836" stop-color="#2c4459"/><stop offset="1" stop-color="#2c3e50"/></linearGradient><path d="M1046 943.98h-41.797v-278.48H1031c8.284 0 15 6.716 15 15v263.48zm-94.407-291.96c0-8.284-6.716-15-15-15h-26.797v306.96h41.797v-291.96zm-94.407-62.237c0-8.284-6.716-15-15-15H815.39V943.98h41.797V589.786zm-94.407 23.206c0-8.284-6.716-15-15-15h-26.797v345.99h41.797v-330.99zm-95.304 31.646c0-8.284-6.716-15-15-15H625.68V943.98h41.798V644.638zm-94.407-48.524c0-8.284-6.716-15-15-15h-26.797V943.98h41.797V596.115zm-95.304 8.44c0-8.284-6.716-15-15-15h-26.798V943.98h41.798V604.553zm-95.304-14.768c0-8.284-6.716-15-15-15h-26.798V943.98h41.798V589.786zm-94.407 0c0-8.284-6.716-15-15-15h-26.797V943.98h41.797V589.786zm-94.407 73.84c0-8.284-6.716-15-15-15H151.85V943.98h41.798V663.624zm-96.056-6.33c0-8.284-6.716-15-15-15H55.795V943.98h41.798V657.295z" fill="url(#C)"/><g opacity=".6" fill="#fff"><use xlink:href="#P"/><path d="M46.947 974.877c-3.304 0-4.872-3.08-4.872-10.39s1.568-10.388 4.872-10.388 4.872 3.08 4.872 10.388-1.568 10.39-4.872 10.39zm0-19.097c-1.848 0-2.855 2.072-2.855 8.708s1.008 8.708 2.855 8.708 2.856-2.07 2.856-8.708-1.008-8.708-2.856-8.708z"/><use xlink:href="#Q"/><path d="M64.473 954.38h9.072v1.063l-5.88 19.152h-2.128l5.88-18.536h-6.944v-1.68z"/></g><path d="M983.203 974.597v-1.68c1.793-5.992 7.393-9.353 7.393-13.944 0-2.128-1.064-3.192-2.436-3.192-1.596 0-2.77 1.232-2.94 4.257h-1.85c.225-4.593 2.297-5.937 4.732-5.937 2.66 0 4.508 1.792 4.508 5.152 0 5.04-4.535 6.607-7.56 13.664h7.672v1.68h-9.52zm15.625.28c-3.305 0-4.873-3.08-4.873-10.4s1.568-10.388 4.873-10.388 4.87 3.08 4.87 10.388-1.568 10.4-4.87 10.4zm0-19.097c-1.848 0-2.855 2.072-2.855 8.708s1.008 8.708 2.855 8.708 2.855-2.07 2.855-8.708-1.008-8.708-2.855-8.708zm7.502 18.817v-1.68h2.465v-16.24l-2.52.224v-1.23c1.146-.28 2.268-.784 3.2-1.568h1.344v18.816h2.352v1.68h-6.832zm9.465-20.217h9.072v1.063l-5.88 19.152h-2.127l5.88-18.536h-6.943v-1.68z" opacity=".6" fill="#fff"/><g opacity=".6" fill="#fff"><use xlink:href="#P" x="477.735"/><use xlink:href="#Q" x="466.424"/><path d="M532.185 974.597v-1.68h2.464v-16.24l-2.52.224v-1.23c1.147-.28 2.268-.784 3.19-1.568h1.345v18.816h2.352v1.68h-6.832z"/><use xlink:href="#P" x="509.99"/></g><path d="M35.856 312.58h1012.38M35.856 523.046h1012.38M35.856 733.514h1012.38" opacity=".3" fill="none" stroke="#000" stroke-width="2" stroke-miterlimit="10" stroke-dasharray="2,6"/><g fill="#333"><path d="M80.258 40.462L70.36 77.9c-.3 1.44-1.08 2.1-2.46 2.1-1.26 0-2.16-.66-2.58-2.1l-8.1-28.74-8.04 28.74c-.42 1.44-1.26 2.1-2.52 2.1-1.32 0-2.16-.66-2.52-2.1l-9.9-37.438c-.06-.24-.12-.54-.12-.84 0-1.5 1.38-2.34 2.7-2.34 1.02 0 2.04.6 2.4 1.86l7.56 28.62 7.92-28.38c.42-1.44 1.26-2.1 2.52-2.1 1.32 0 2.16.66 2.58 2.1l7.92 28.38 7.56-28.62c.36-1.32 1.56-1.98 2.46-1.98 1.32 0 2.64.96 2.64 2.46 0 .3-.06.6-.12.84zm28.74 26.218H86.8c.84 5.64 4.44 9.24 9.72 9.24 2.7 0 5.4-.96 7.14-3.12.54-.6 1.14-.96 1.86-.96 1.32 0 2.7 1.2 2.7 2.64 0 .72-.18 1.26-1.44 2.52-2.7 2.64-6.42 4.02-10.26 4.02-9.66 0-15.06-7.98-15.06-16.98 0-8.94 5.4-16.92 15.06-16.92 9.78 0 15 7.98 15 16.92 0 1.32-.96 2.64-2.52 2.64zm-12.48-14.46c-5.64 0-8.94 4.14-9.72 9.3h19.44c-.84-5.76-4.44-9.3-9.72-9.3zm23.222-2.52c-.12 1.62-1.38 2.46-2.52 2.46s-2.4-.84-2.52-2.46l-.84-9.96v-.36c0-1.86 1.62-3.18 3.36-3.18 1.8 0 3.42 1.38 3.42 3.12v.3l-.9 10.08zm18.958 2.522c-4.62 0-8.52 3.9-8.52 8.58v16.62c0 1.68-1.26 2.58-2.64 2.58-1.26 0-2.52-.9-2.52-2.52v-26.76c0-1.68 1.38-2.58 2.52-2.58 1.2 0 2.34.66 2.58 2.04a13.88 13.88 0 0 1 8.58-3.06c1.74 0 2.64 1.2 2.64 2.58 0 1.32-.9 2.52-2.64 2.52z"/><use xlink:href="#R"/><path d="M191.305 80h-6.9c-1.62 0-2.52-1.26-2.52-2.52 0-1.38.9-2.58 2.52-2.58h.9v-32.52h-.9c-1.62 0-2.52-1.26-2.52-2.52 0-1.38.9-2.58 2.52-2.58h6.9c1.74 0 2.64 1.2 2.64 2.58 0 1.26-.9 2.52-2.64 2.52h-.9V74.9h.9c1.74 0 2.64 1.2 2.64 2.58 0 1.26-.9 2.52-2.64 2.52z"/><use xlink:href="#S"/><use xlink:href="#T"/><use xlink:href="#R" x="116.518"/><use xlink:href="#U"/><path d="M324.383 80h-1.02c-5.7 0-7.86-3-7.86-7.92V53.24h-1.8c-1.44 0-2.58-1.14-2.58-2.52 0-1.44 1.14-2.58 2.52-2.58h1.8v-8.34c0-1.68 1.26-2.52 2.58-2.52s2.52.84 2.52 2.52v8.34h3.84c1.68 0 2.52 1.38 2.52 2.52 0 1.44-.96 2.58-2.52 2.58h-3.84v19.38c0 1.68.6 2.28 2.28 2.28h1.5c1.56 0 2.58 1.14 2.58 2.52 0 1.44-.96 2.58-2.52 2.58z"/><use xlink:href="#V"/><use xlink:href="#S" x="142.856"/><path d="M386.002 93.68c-3.66 0-12.72-1.32-12.72-4.92 0-1.38 1.26-2.7 2.58-2.7 1.38 0 .18.18 3.36 1.38 1.44.54 3.6 1.14 6.78 1.14 6.66 0 9.9-3.18 9.9-9.48v-2.7c-2.34 2.22-5.7 3.6-9.9 3.6-9.48 0-15.06-6.72-15.06-15.96 0-9 5.4-16.92 15.06-16.92 4.2 0 7.44 1.26 9.9 3.84v-.24c0-1.68 1.38-2.58 2.58-2.58 1.26 0 2.58.9 2.58 2.58V79.1c0 9.54-5.7 14.58-15.06 14.58zm0-41.458c-6 0-9.9 4.68-9.9 11.82 0 6.84 3.6 10.86 9.9 10.86s9.9-4.02 9.9-10.86c0-7.14-3.84-11.82-9.9-11.82zm55.798-9.84h-9.96v35.1c0 1.62-1.2 2.52-2.52 2.52-1.26 0-2.58-.9-2.58-2.52v-35.1h-9.84c-1.74 0-2.64-1.32-2.64-2.58 0-1.2.9-2.52 2.58-2.52h24.96c1.68 0 2.58 1.32 2.58 2.52 0 1.26-.9 2.58-2.58 2.58z"/><use xlink:href="#W"/><use xlink:href="#V" x="156.346"/><use xlink:href="#X"/><use xlink:href="#Y"/><path d="M598.15 80c-3.3 0-4.8-2.34-5.34-3.42-2.4 2.64-5.88 4.44-10.56 4.44-9.78 0-15.06-8.04-15.06-16.98s5.4-16.92 15.06-16.92c4.2 0 7.56 1.5 9.9 3.96v-.24c0-.66.24-2.7 2.52-2.7 1.26 0 2.64.66 2.64 2.52v23.16c0 .78.54 1.08.84 1.08 1.68 0 2.58 1.2 2.58 2.58 0 1.26-.9 2.52-2.58 2.52zm-15.9-27.778c-6 0-9.9 4.68-9.9 11.82 0 7.2 3.9 11.88 9.9 11.88 6.06 0 9.9-4.68 9.9-11.88 0-7.14-3.84-11.82-9.9-11.82z"/><use xlink:href="#U" x="314.327"/><path d="M675.848 80.06c-1.26 0-2.52-.9-2.52-2.58v-27.6L661.7 71.6c-.78 1.5-1.92 1.62-2.4 1.62-.3 0-1.56-.12-2.4-1.62L645.3 50v27.48c0 1.68-1.26 2.58-2.64 2.58-1.26 0-2.52-.9-2.52-2.58v-37.5c0-1.98 1.38-2.7 2.76-2.7.9 0 1.62.42 2.16 1.5l14.22 26.46 14.28-26.46c.6-1.2 1.32-1.5 2.34-1.5 1.32 0 2.58.84 2.58 2.7v37.5c0 1.68-1.26 2.58-2.64 2.58zm32.34 0c-1.14 0-2.28-.66-2.52-1.98-2.4 1.86-5.34 3-8.64 3-7.44 0-13.68-6.18-13.68-13.68V50.78c0-1.68 1.26-2.58 2.52-2.58 1.38 0 2.64.9 2.64 2.52V67.4c0 4.68 3.9 8.58 8.52 8.58 4.68 0 8.58-3.9 8.58-8.58V50.78c0-1.86 1.2-2.64 2.52-2.64 1.38 0 2.58.9 2.58 2.58v26.82c0 1.68-1.2 2.52-2.52 2.52z"/><use xlink:href="#X" x="219.66"/><path d="M769.387 80c-1.32 0-2.52-.9-2.52-2.52V60.8c0-4.68-3.9-8.58-8.58-8.58-4.62 0-8.52 3.9-8.52 8.58v16.62c0 1.68-1.26 2.64-2.64 2.64-1.26 0-2.52-.9-2.52-2.58V39.862c0-1.74 1.26-2.58 2.52-2.58 1.38 0 2.64.84 2.64 2.52v10.38c2.22-2.1 5.22-3.06 8.52-3.06 7.44 0 13.68 6.18 13.68 13.68v16.62c0 1.68-1.2 2.58-2.58 2.58z"/><use xlink:href="#V" x="459.226"/><path d="M824.108 80c-1.32 0-2.52-.9-2.52-2.52V60.8c0-4.68-3.9-8.58-8.58-8.58-4.62 0-8.52 3.9-8.52 8.58v16.62c0 1.68-1.26 2.64-2.64 2.64-1.26 0-2.52-.9-2.52-2.58V50.66c0-1.74 1.26-2.52 2.52-2.52 1.2 0 2.28.66 2.58 1.98a13.67 13.67 0 0 1 8.58-3c7.44 0 13.68 6.18 13.68 13.68v16.62c0 1.68-1.2 2.58-2.58 2.58z"/></g><g fill="#ed8208"><path d="M66.82 141.26c-.66 0-1.44-.36-1.98-1.08l-12.48-17.46h-7.74v15.9c0 1.68-1.26 2.58-2.64 2.58-1.26 0-2.52-.9-2.52-2.52v-37.618c0-1.08.72-2.58 2.52-2.58h15.54c5.28 0 12.06 4.14 12.06 12.06 0 6.3-4.74 11.58-11.04 12.12l10.5 14.46c.42.54.54 1.02.54 1.56 0 1.44-1.38 2.58-2.76 2.58zm-9.36-37.68H44.62v14.04H57.4c3.9 0 7.02-3.18 7.02-7.08 0-4.08-3.48-6.96-6.96-6.96z"/><use xlink:href="#R" x="-66.707" y="61.2"/><path d="M130.418 141.2c-1.32 0-2.52-.9-2.52-2.52V122c0-4.68-3.9-8.58-8.58-8.58-4.62 0-8.52 3.9-8.52 8.58v16.62c0 1.68-1.26 2.64-2.64 2.64-1.26 0-2.52-.9-2.52-2.58v-26.82c0-1.74 1.26-2.52 2.52-2.52 1.2 0 2.28.66 2.58 1.98a13.67 13.67 0 0 1 8.58-3c7.44 0 13.68 6.18 13.68 13.68v16.62c0 1.68-1.2 2.58-2.58 2.58z"/><use xlink:href="#R" x="-2.447" y="61.2"/><use xlink:href="#W" x="-273.393" y="61.2"/><path d="M241.717 141.2c-3.3 0-4.8-2.34-5.34-3.42-2.4 2.64-5.88 4.44-10.56 4.44-9.78 0-15.06-8.04-15.06-16.98s5.4-16.92 15.06-16.92c4.2 0 7.56 1.5 9.9 3.96v-.24c0-.66.24-2.7 2.52-2.7 1.26 0 2.64.66 2.64 2.52v23.16c0 .78.54 1.08.84 1.08 1.68 0 2.58 1.2 2.58 2.58 0 1.26-.9 2.52-2.58 2.52zm-15.9-27.778c-6 0-9.898 4.68-9.898 11.82 0 7.2 3.9 11.88 9.898 11.88 6.06 0 9.9-4.68 9.9-11.88 0-7.14-3.84-11.82-9.9-11.82zm36 28.798c-6.42 0-9.84-3.54-9.9-3.6 0 1.68-1.26 2.52-2.64 2.52-1.26 0-2.52-.84-2.52-2.52v-37.558c0-1.74 1.26-2.58 2.52-2.58 1.38 0 2.64.84 2.64 2.52v11.22c2.4-2.46 5.7-3.9 9.9-3.9 9.66 0 15.06 7.92 15.06 16.92 0 9.06-5.4 16.98-15.06 16.98zm0-28.8c-6 0-9.9 4.68-9.9 11.82 0 7.2 3.9 11.88 9.9 11.88s9.9-4.68 9.9-11.88c0-7.14-3.9-11.82-9.9-11.82z"/><use xlink:href="#Z"/><use xlink:href="#R" x="151.151" y="61.2"/><use xlink:href="#U" x="34.633" y="61.2"/></g><g fill="#333"><use xlink:href="#T" x="130.99" y="61.2"/><use xlink:href="#U" x="98.951" y="61.2"/><path d="M416.615 141.26a4.3 4.3 0 0 1-4.32-4.32c0-2.4 1.92-4.2 4.32-4.2s4.32 1.8 4.32 4.2a4.3 4.3 0 0 1-4.319 4.32z"/></g><g fill="#1c5e7f"><path d="M464.613 103.582h-22.438v12.12h15.72a2.56 2.56 0 0 1 2.58 2.58c0 1.38-1.02 2.58-2.58 2.58h-15.72v17.82a2.58 2.58 0 0 1-2.521 2.52c-1.44 0-2.64-1.14-2.64-2.52v-37.618c0-1.44 1.2-2.58 2.64-2.58h24.96c1.56 0 2.52 1.14 2.52 2.52 0 1.26-.9 2.58-2.52 2.58zm14.457 38.638c-9.66 0-15.06-7.92-15.06-16.98 0-9 5.4-16.92 15.06-16.92s15.06 7.92 15.06 16.92c0 9.06-5.4 16.98-15.06 16.98zm0-28.8c-6 0-9.9 4.68-9.9 11.82 0 7.2 3.9 11.88 9.9 11.88 6.06 0 9.9-4.68 9.9-11.88 0-7.14-3.84-11.82-9.9-11.82z"/><use xlink:href="#U" x="209.285" y="61.2"/><use xlink:href="#U" x="234.665" y="61.2"/><use xlink:href="#V" x="219.726" y="61.2"/><use xlink:href="#Z" x="278.931"/><path d="M609.566 103.582h-22.44v12.12h15.72a2.56 2.56 0 0 1 2.58 2.58c0 1.38-1.02 2.58-2.58 2.58h-15.72v17.82a2.58 2.58 0 0 1-2.52 2.52c-1.44 0-2.64-1.14-2.64-2.52v-37.618c0-1.44 1.2-2.58 2.64-2.58h24.96c1.56 0 2.52 1.14 2.52 2.52 0 1.26-.9 2.58-2.52 2.58zm26.454 37.678c-1.14 0-2.28-.66-2.52-1.98-2.4 1.86-5.34 3-8.64 3-7.44 0-13.68-6.18-13.68-13.68v-16.62c0-1.68 1.26-2.58 2.52-2.58 1.38 0 2.64.9 2.64 2.52v16.68c0 4.68 3.9 8.58 8.52 8.58 4.68 0 8.58-3.9 8.58-8.58v-16.62c0-1.86 1.2-2.64 2.52-2.64 1.38 0 2.58.9 2.58 2.58v26.818c0 1.68-1.2 2.52-2.52 2.52z"/><use xlink:href="#Y" x="119" y="61.2"/><use xlink:href="#Z" x="395.083"/><use xlink:href="#U" x="397.675" y="61.2"/></g><path d="M43.537 189.8v6.23c0 .684-.57 1.102-1.102 1.102a1.07 1.07 0 0 1-1.064-1.102v-6.23c-2.773-.23-6.192-1.33-8.17-3.305-.266-.268-.342-.494-.342-.76a1.16 1.16 0 0 1 1.103-1.104c.455 0 .418.115 1.216.723 2.014 1.482 4.52 2.318 7.104 2.318 4.787 0 7.56-1.787 7.56-5.205 0-9.006-16.07-4-16.07-14.363 0-4.18 3.306-6.23 7.6-6.572V155.7c0-.76.532-1.14 1.064-1.14s1.102.38 1.102 1.14v5.852c2.622.2 5.9 1.367 7.4 3.496.15.227.228.418.228.645 0 .6-.532 1.064-1.14 1.064-.532 0-.532-.152-1.178-.8-1.596-1.596-3.95-2.316-6.193-2.316-4.52 0-6.725 1.748-6.725 4.482 0 8.17 16.07 3.42 16.07 14.363 0 4.863-3.913 7.027-8.473 7.332zm27.245-.6h-11.02c-.57 0-1.103-.533-1.103-1.064v-24.924c0-.646.343-1.064.988-1.064h10.297c3.76 0 6.84 3.115 6.84 6.764 0 2.242-.988 4.18-2.698 5.434a7.71 7.71 0 0 1 4.521 7.066c0 4.332-3.495 7.8-7.826 7.8zm-.836-24.924h-9.12v9.346h9.12c3.077 0 4.673-2.736 4.673-4.635 0-2.623-2.128-4.7-4.673-4.7zm.836 11.512h-9.955v11.246h9.955c3.115 0 5.66-2.508 5.66-5.623s-2.546-5.623-5.66-5.623z"/><use xlink:href="#a"/><use xlink:href="#b"/><use xlink:href="#b" x="7.561"/><use xlink:href="#a" x="21.926"/><use xlink:href="#c"/><use xlink:href="#d"/><path d="M172.77 189.846c-3.306 0-5.775-1.367-7.37-3.61v9.842c0 .684-.57 1.102-1.063 1.102-.532 0-1.103-.418-1.103-1.102V170.1c0-.684.57-1.064 1.103-1.064.494 0 1.063.38 1.063 1.064v1.86c1.596-2.203 4.065-3.572 7.37-3.572 6.117 0 9.536 5.016 9.536 10.715 0 5.738-3.42 10.752-9.536 10.752zm0-19.3c-4.52 0-7.37 3.61-7.37 8.55s2.85 8.588 7.37 8.588 7.37-3.648 7.37-8.588-2.85-8.55-7.37-8.55z"/><use xlink:href="#c" x="74.974"/><path d="M233.037 170.432l-6.193 17.857c-.266.72-.607.912-1.102.912-.646 0-.836-.23-1.064-.912l-4.978-14.82-4.978 14.818c-.266.72-.608.912-1.102.912s-.874-.305-1.064-.912l-6.154-17.857c-.038-.113-.076-.305-.076-.418 0-.607.607-.988 1.102-.988.38 0 .836.2.988.723l5.205 15.045 4.977-14.855c.23-.723.456-.912 1.103-.912.456 0 .836.152 1.063.912l5.054 14.855 5.13-15.045c.2-.533.57-.723.987-.723.57 0 1.18.38 1.18 1.025 0 .152-.038.268-.076.38zm20.103 9.763h-15.77c.342 4.332 3.153 7.486 7.295 7.486 2.052 0 4.483-.912 5.585-2.623.267-.418.57-.53.912-.53.57 0 1.178.455 1.178 1.025 0 .342 0 .418-.722 1.254-1.748 2.053-4.293 3.04-6.953 3.04-6.117 0-9.536-5.014-9.536-10.752 0-5.7 3.42-10.715 9.536-10.715s9.537 5.055 9.537 10.715c0 .57-.532 1.102-1.064 1.102zm-8.473-9.65c-4.56 0-6.953 3.496-7.295 7.486H252c-.342-4.332-3.153-7.486-7.333-7.486z"/><use xlink:href="#e"/><use xlink:href="#f"/><use xlink:href="#g"/><path d="M333.012 186.96c-1.672 1.86-3.99 2.887-6.8 2.887-6.117 0-9.536-5.014-9.536-10.752 0-5.7 3.42-10.715 9.536-10.715 2.812 0 5.13 1.027 6.8 2.89.23.23.305.494.305.72 0 .57-.532 1.14-1.103 1.14-.266 0-.53-.113-.798-.38-1.254-1.406-3-2.205-5.205-2.205-4.483 0-7.37 3.61-7.37 8.55s2.888 8.588 7.37 8.588c2.204 0 3.95-.836 5.205-2.205.267-.266.532-.38.798-.38a1.13 1.13 0 0 1 1.103 1.102c0 .266-.076.494-.305.76z"/><use xlink:href="#h"/><use xlink:href="#c" x="236.735"/><use xlink:href="#e" x="111.83"/><use xlink:href="#a" x="307.756"/><use xlink:href="#d" x="263.875"/><path d="M434.052 170.508l-7.484 17.818c-.23.494-.57.875-1.064.875s-.874-.38-1.102-.875l-7.485-17.78c-.075-.2-.075-.342-.075-.494 0-.607.53-1.025 1.102-1.025.342 0 .76.152.95.646l6.6 15.615 6.573-15.615c.23-.494.608-.684.988-.684.57 0 1.102.418 1.102 1.025 0 .113 0 .305-.114.494zm20.178 9.687h-15.768c.342 4.332 3.153 7.486 7.295 7.486 2.052 0 4.483-.912 5.585-2.623.267-.418.57-.53.912-.53.57 0 1.178.455 1.178 1.025 0 .342 0 .418-.722 1.254-1.748 2.053-4.293 3.04-6.953 3.04-6.117 0-9.536-5.014-9.536-10.752 0-5.7 3.42-10.715 9.536-10.715s9.537 5.055 9.537 10.715c0 .57-.532 1.102-1.064 1.102zm-8.473-9.65c-4.56 0-6.953 3.496-7.295 7.486H453.1c-.342-4.332-3.153-7.486-7.333-7.486z"/><use xlink:href="#f" x="180.763"/><use xlink:href="#h" x="139.228"/><path d="M511.798 189.2c-.53 0-1.063-.38-1.063-1.064V175.37c0-2.62-2.203-4.826-4.825-4.826s-4.863 2.205-4.863 4.787v12.805c0 .684-.532 1.064-1.063 1.064s-1.103-.38-1.103-1.064V175.37c0-2.62-2.203-4.826-4.787-4.826-2.66 0-4.863 2.205-4.863 4.787v12.805c0 .684-.57 1.064-1.063 1.064-.532 0-1.103-.38-1.103-1.064V170.1c0-.684.57-1.064 1.103-1.064.494 0 1.063.38 1.063 1.064v.23c1.254-1.217 2.964-1.94 4.825-1.94 2.432 0 4.598 1.217 5.928 3.23 1.254-1.937 3.42-3.23 5.89-3.23 3.95 0 7.03 3.117 7.03 6.953v12.805c0 .684-.57 1.064-1.103 1.064z"/><use xlink:href="#g" x="221.613"/><use xlink:href="#d" x="406.097"/><use xlink:href="#h" x="223.664"/><path d="M1011.655 656.447c-.588 0-1.176-.447-1.176-1.176v-15.008l-2.24 2.184a1.08 1.08 0 0 1-.783.336 1.31 1.31 0 0 1-1.26-1.23c0-.3.112-.588.364-.84l4.172-4.032c.336-.308.7-.448 1.036-.448.784 0 1.12.784 1.12 1.428v17.584c0 .757-.588 1.204-1.232 1.204zm10.08.477c-2.156 0-4.06-1.12-5.096-2.856a1.22 1.22 0 0 1-.196-.644c0-.672.588-1.177 1.232-1.177.364 0 .756.14 1.008.56a3.46 3.46 0 0 0 3.024 1.736c2.1 0 3.836-1.736 3.836-3.78 0-2.1-1.708-3.836-3.8-3.836h-.027c-.73 0-1.177-.56-1.177-1.176s.477-1.204 1.204-1.204c1.708 0 3.08-1.316 3.08-3.08 0-1.68-1.372-3.052-3.08-3.052-2.716 0-2.744 2.743-4.2 2.743-.644 0-1.26-.504-1.26-1.176a1.24 1.24 0 0 1 .196-.672c.672-1.036 2.352-3.304 5.264-3.304a5.47 5.47 0 0 1 5.46 5.46c0 1.708-.728 3.2-1.987 4.2 1.624 1.12 2.716 2.94 2.716 5.067a6.19 6.19 0 0 1-6.188 6.188zm18.452-.477h-8.568c-.812 0-1.288-.476-1.288-1.063 0-.252.084-.504.252-.756l7.645-11.62c.336-.532.53-1.176.53-1.68 0-1.65-1.23-2.9-2.884-2.9-1.483 0-2.744 1.26-3.22 2.155-.224.42-.588.588-.952.588-.644 0-1.23-.504-1.23-1.147 0-.868 1.987-4.004 5.403-4.004a5.28 5.28 0 0 1 5.265 5.264c0 1.12-.393 2.212-.952 3.024l-6.412 9.77h6.412c.812 0 1.23.56 1.23 1.204 0 .588-.42 1.176-1.23 1.176z" opacity=".7" fill="#1c5e7f"/><defs ><path id="E" d="M1018.383 305.77c-3.416 0-6.187-2.77-6.187-6.16 0-2.155 1.035-3.976 2.716-5.096-1.26-1.008-1.988-2.492-1.988-4.2a5.47 5.47 0 0 1 5.46-5.46c2.996 0 5.46 2.464 5.46 5.46 0 1.708-.728 3.192-1.987 4.2 1.623 1.12 2.688 2.94 2.688 5.068 0 3.416-2.744 6.188-6.16 6.188zm0-9.996c-2.1 0-3.81 1.765-3.81 3.81 0 2.1 1.736 3.808 3.78 3.808 2.1 0 3.808-1.736 3.808-3.78 0-2.1-1.736-3.836-3.78-3.836zm0-8.512c-1.764 0-3.052 1.372-3.052 3.052 0 1.708 1.288 3.108 3.052 3.108 1.68 0 3.053-1.4 3.053-3.108a3.06 3.06 0 0 0-3.053-3.052z"/><path id="F" d="M106.614 1045.51c-.633 0-1.267-.367-1.4-1.1-1.334 1.034-2.97 1.668-4.804 1.668-4.136 0-7.604-3.436-7.604-7.605v-9.24a1.37 1.37 0 0 1 1.4-1.435c.768 0 1.468.5 1.468 1.4v9.272c0 2.602 2.168 4.77 4.736 4.77 2.603 0 4.77-2.17 4.77-4.77v-9.24c0-1.034.667-1.468 1.4-1.468.768 0 1.435.5 1.435 1.435v14.9c0 .934-.667 1.4-1.4 1.4z"/><path id="G" d="M728.003 1046.318c-3.22 0-5.02-2.64-5.02-5.66 0-3 1.8-5.64 5.02-5.64s5.02 2.64 5.02 5.64c0 3.02-1.8 5.66-5.02 5.66zm0-10.162c-2.36 0-3.88 1.9-3.88 4.5s1.52 4.52 3.88 4.52c2.38 0 3.88-1.92 3.88-4.52s-1.5-4.5-3.88-4.5z"/><path id="H" d="M751.743 1036.337a3.42 3.42 0 0 0-3.421 3.42v5.66c0 .36-.3.56-.56.56-.28 0-.58-.2-.58-.56v-9.502c0-.36.3-.56.58-.56.26 0 .56.2.56.56v.82c.9-.98 2.08-1.54 3.42-1.54.36 0 .58.3.58.56a.58.58 0 0 1-.58.581z"/><path id="I" d="M761.923 1044.798c-.88.98-2.1 1.52-3.58 1.52-3.22 0-5.02-2.64-5.02-5.66 0-3 1.8-5.64 5.02-5.64 1.48 0 2.7.54 3.58 1.52a.53.53 0 0 1 .16.381.63.63 0 0 1-.58.6c-.14 0-.28-.06-.42-.2-.66-.74-1.58-1.16-2.74-1.16-2.36 0-3.88 1.9-3.88 4.5s1.52 4.52 3.88 4.52c1.16 0 2.08-.44 2.74-1.16.14-.14.28-.2.42-.2.3 0 .58.26.58.58a.57.57 0 0 1-.16.399z"/><path id="J" d="M773.504 1041.237h-8.302c.18 2.28 1.66 3.94 3.84 3.94 1.08 0 2.36-.48 2.94-1.38.14-.22.3-.28.48-.28.3 0 .62.24.62.54 0 .18 0 .22-.38.66-.92 1.08-2.26 1.6-3.66 1.6-3.22 0-5.02-2.64-5.02-5.66 0-3 1.8-5.64 5.02-5.64s5.02 2.66 5.02 5.64c0 .3-.28.58-.56.58zm-4.46-5.08c-2.4 0-3.66 1.84-3.84 3.94h7.7c-.18-2.28-1.66-3.94-3.86-3.94z"/><path id="K" d="M800.143 1045.98c-.28 0-.58-.2-.58-.56v-5.84c0-1.9-1.52-3.42-3.42-3.42a3.42 3.42 0 0 0-3.421 3.421v5.84c0 .36-.3.56-.56.56-.28 0-.58-.2-.58-.56v-9.502c0-.36.3-.56.58-.56.26 0 .56.2.56.56v.64c.9-.98 2.08-1.54 3.42-1.54a4.6 4.6 0 0 1 4.561 4.561v5.84c0 .36-.3.56-.56.56z"/><path id="L" d="M807.023 1045.98h-.62c-1.58 0-2.36-.78-2.36-2.34v-7.142h-1.02c-.36 0-.56-.3-.56-.58 0-.26.2-.56.56-.56h1.02v-3.06c0-.36.3-.56.58-.56s.56.2.56.56v3.06h1.84c.36 0 .56.3.56.56 0 .28-.2.58-.56.58h-1.84v7.142c0 .98.28 1.2 1.22 1.2h.62c.36 0 .56.3.56.58 0 .26-.2.56-.56.56z"/><path id="M" d="M850.183 1045.98h-.02c-.66 0-1.6-.36-1.98-1.56-.84 1.18-2.14 1.9-3.88 1.9-3.26 0-5.02-2.68-5.02-5.66 0-3.02 1.8-5.64 5.02-5.64 1.74 0 3.04.72 3.88 1.88v-.98c0-.32.26-.56.58-.56.28 0 .56.2.56.56v8.063c0 1.28 1.44.48 1.44 1.44a.55.55 0 0 1-.58.561zm-5.88-9.822c-2.36 0-3.88 1.9-3.88 4.5s1.52 4.52 3.88 4.52c2.38 0 3.88-1.92 3.88-4.52s-1.5-4.5-3.88-4.5z"/><path id="N" d="M955.78 1050.54c-1.7 0-4.102-.64-4.102-1.36 0-.32.26-.64.58-.64.22 0 .68.34 1.06.48.52.18 1.34.38 2.46.38 2.56 0 3.88-1.26 3.88-3.72v-1.4c-.88 1.06-2.14 1.7-3.88 1.7-3.16 0-5.02-2.24-5.02-5.32 0-3 1.8-5.64 5.02-5.64 1.74 0 3.04.72 3.88 1.88v-.96c0-.36.3-.56.58-.56.26 0 .56.2.56.56v9.742c0 3.18-1.9 4.86-5.02 4.86zm0-14.383c-2.36 0-3.88 1.9-3.88 4.5 0 2.58 1.42 4.18 3.88 4.18s3.88-1.6 3.88-4.18c0-2.6-1.5-4.5-3.88-4.5z"/><path id="O" d="M972.26 1036.156l-5.42 12.823c-.4.94-1.22 1.2-2.14 1.2h-.88c-.36 0-.56-.3-.56-.58 0-.26.2-.56.56-.56h.88c.44 0 .9-.02 1.08-.48l1.14-2.72-4.142-9.683c-.04-.1-.04-.18-.04-.26 0-.32.28-.54.58-.54.18 0 .4.08.5.34l3.722 8.682 3.68-8.682a.52.52 0 0 1 .52-.34c.3 0 .56.22.56.54 0 .08 0 .16-.04.26z"/><path id="P" d="M31.323 974.597v-1.68c1.792-5.992 7.393-9.353 7.393-13.944 0-2.128-1.064-3.192-2.437-3.192-1.596 0-2.77 1.232-2.94 4.257h-1.85c.225-4.593 2.296-5.937 4.732-5.937 2.66 0 4.508 1.792 4.508 5.152 0 5.04-4.536 6.607-7.56 13.664h7.672v1.68h-9.52z"/><path id="Q" d="M58.258 974.877c-3.304 0-4.872-3.08-4.872-10.39s1.568-10.388 4.872-10.388 4.872 3.08 4.872 10.388-1.568 10.39-4.872 10.39zm0-19.097c-1.848 0-2.855 2.072-2.855 8.708s1.008 8.708 2.855 8.708 2.856-2.07 2.856-8.708-1.01-8.708-2.856-8.708z"/><path id="R" d="M166.465 66.68h-22.2c.84 5.64 4.44 9.24 9.72 9.24 2.7 0 5.4-.96 7.14-3.12.54-.6 1.14-.96 1.86-.96 1.32 0 2.7 1.2 2.7 2.64 0 .72-.18 1.26-1.44 2.52-2.7 2.64-6.42 4.02-10.26 4.02-9.66 0-15.06-7.98-15.06-16.98 0-8.94 5.4-16.92 15.06-16.92 9.78 0 15 7.98 15 16.92 0 1.32-.96 2.64-2.52 2.64zm-12.48-14.46c-5.64 0-8.94 4.14-9.72 9.3h19.44c-.84-5.76-4.44-9.3-9.72-9.3z"/><path id="S" d="M222.024 80c-1.32 0-2.52-.9-2.52-2.52V60.8c0-4.68-3.9-8.58-8.58-8.58-4.62 0-8.52 3.9-8.52 8.58v16.62c0 1.68-1.26 2.64-2.64 2.64-1.26 0-2.52-.9-2.52-2.58V50.66c0-1.74 1.26-2.52 2.52-2.52 1.2 0 2.28.66 2.58 1.98a13.67 13.67 0 0 1 8.579-3c7.44 0 13.68 6.18 13.68 13.68v16.62c0 1.68-1.2 2.58-2.58 2.58z"/><path id="T" d="M253.944 51.682l-10.92 26.278c-.54 1.38-1.44 2.04-2.58 2.04-1.02 0-1.98-.66-2.58-2.04l-10.92-26.278c-.12-.42-.18-.72-.18-1.08 0-1.44 1.32-2.46 2.64-2.46.9 0 1.8.48 2.28 1.56l8.76 21 8.76-21c.42-1.14 1.5-1.62 2.34-1.62 1.38 0 2.64.96 2.64 2.46 0 .3-.06.72-.24 1.14z"/><path id="U" d="M298.883 81.02c-3.3 0-8.82-1.02-11.64-4.5-.36-.54-.54-1.08-.54-1.56 0-1.5 1.44-2.7 2.7-2.7.72 0 1.26.36 1.86 1.02 1.86 2.04 4.92 2.64 7.62 2.64 5.4 0 7.14-1.86 7.14-4.56 0-7.68-18.3-2.94-18.3-15.3 0-6.54 6.12-8.94 11.82-8.94 3.24 0 10.86 1.62 10.86 4.98 0 1.32-1.08 2.7-2.52 2.7-.54 0-1.38-.3-1.98-.78-1.62-1.38-3.96-1.8-6.36-1.8-4.98 0-6.72 1.86-6.72 3.84 0 7.14 18.36 2.52 18.36 15.3 0 7.08-5.94 9.66-12.3 9.66z"/><path id="V" d="M331.944 43.28a4.3 4.3 0 1 1 0-8.64 4.3 4.3 0 1 1 0 8.64zm0 36.72c-1.32 0-2.64-.9-2.64-2.52v-26.76c0-1.68 1.32-2.58 2.64-2.58 1.26 0 2.52.9 2.52 2.58v26.76c0 1.68-1.26 2.52-2.52 2.52z"/><path id="W" d="M483.19 51.562l-9.3 26.34c-.48 1.32-1.32 2.1-2.64 2.1-1.26 0-1.98-.54-2.52-2.1l-7.02-19.8-7.08 19.8c-.48 1.44-1.32 2.1-2.58 2.1-1.2 0-2.04-.66-2.52-2.1l-9.24-26.34c-.12-.36-.12-.6-.12-.96 0-1.5 1.38-2.46 2.64-2.46.96 0 1.92.48 2.34 1.68l6.96 20.04 7.08-19.62c.48-1.38 1.08-2.1 2.52-2.1 1.32 0 2.04.66 2.52 2.1l7.02 19.62 7.02-20.04c.42-1.2 1.38-1.68 2.28-1.68 1.38 0 2.76 1.02 2.76 2.52 0 .3 0 .54-.12.9z"/><path id="X" d="M520.87 76.46c-2.64 2.94-6.3 4.56-10.74 4.56-9.66 0-15.06-7.92-15.06-16.98 0-9 5.4-16.92 15.06-16.92 4.44 0 8.1 1.62 10.74 4.56.48.54.72 1.14.72 1.74 0 1.32-1.32 2.58-2.7 2.58-.54 0-1.2-.24-1.86-.84-1.68-1.86-3.9-2.94-6.9-2.94-6 0-9.9 4.68-9.9 11.82 0 7.2 3.9 11.88 9.9 11.88 3 0 5.28-1.14 6.9-2.94.54-.66 1.26-.9 1.86-.9 1.38 0 2.7 1.2 2.7 2.64 0 .54-.24 1.2-.72 1.74z"/><path id="Y" d="M551.1 66.68h-22.2c.84 5.64 4.44 9.24 9.72 9.24 2.7 0 5.4-.96 7.14-3.12.54-.6 1.14-.96 1.86-.96 1.32 0 2.7 1.2 2.7 2.64 0 .72-.18 1.26-1.44 2.52-2.7 2.64-6.42 4.02-10.26 4.02-9.66 0-15.06-7.98-15.06-16.98 0-8.94 5.4-16.92 15.06-16.92 9.78 0 15 7.98 15 16.92 0 1.32-.96 2.64-2.52 2.64zm-12.48-14.46c-5.64 0-8.94 4.14-9.72 9.3h19.438c-.84-5.76-4.44-9.3-9.72-9.3z"/><path id="Z" d="M286.537 141.32c-3.24 0-6-2.76-6-6.12v-34.138c0-1.74 1.26-2.58 2.58-2.58s2.58.84 2.58 2.52V135.2c0 .72.54 1.02.84 1.02 1.68 0 2.58 1.2 2.58 2.58 0 1.32-.9 2.52-2.58 2.52z"/><path id="a" d="M83.474 165.38a2.14 2.14 0 1 1 0-4.332 2.14 2.14 0 0 1 0 4.332zm0 23.822c-.532 0-1.103-.342-1.103-1.064V170.1c0-.684.532-1.064 1.103-1.064.494 0 1.063.342 1.063 1.064v18.047c0 .684-.494 1.064-1.063 1.064z"/><path id="b" d="M92.936 189.428c-2.052 0-3.762-1.898-3.762-4.027v-22.187c0-.684.57-1.064 1.103-1.064.494 0 1.063.38 1.063 1.064V185.4c0 2.432 2.697 1.027 2.697 2.736 0 .646-.455 1.29-1.102 1.29z"/><path id="c" d="M119.762 189.846c-6.117 0-9.536-5.014-9.536-10.752 0-5.7 3.42-10.715 9.536-10.715s9.537 5.016 9.537 10.715c0 5.738-3.42 10.752-9.537 10.752zm0-19.3c-4.483 0-7.37 3.61-7.37 8.55s2.888 8.588 7.37 8.588c4.52 0 7.37-3.648 7.37-8.588s-2.85-8.55-7.37-8.55z"/><path id="d" d="M149.325 189.2c-.53 0-1.102-.38-1.102-1.064v-11.094a6.47 6.47 0 0 0-6.497-6.498c-3.57 0-6.497 2.89-6.497 6.498v11.094c0 .684-.57 1.064-1.063 1.064-.532 0-1.103-.38-1.103-1.064V170.1c0-.684.57-1.064 1.103-1.064.494 0 1.063.38 1.063 1.064v1.215c1.7-1.86 3.95-2.926 6.497-2.926 4.71 0 8.663 3.914 8.663 8.664v11.094c0 .684-.57 1.064-1.064 1.064z"/><path id="e" d="M266.63 170.887c-3.57 0-6.497 2.89-6.497 6.498v10.752c0 .684-.57 1.064-1.063 1.064-.532 0-1.103-.38-1.103-1.064V170.1c0-.684.57-1.064 1.103-1.064.494 0 1.063.38 1.063 1.064v1.557c1.7-1.86 3.95-2.924 6.497-2.924.684 0 1.102.568 1.102 1.063 0 .533-.418 1.102-1.102 1.102z"/><path id="f" d="M284.64 189.922c-2.28 0-6.117-.797-7.447-3-.15-.23-.15-.418-.15-.57 0-.607.53-1.14 1.102-1.14.228 0 .607.19.836.533 1.367 1.67 3.8 2.014 5.66 2.014 3.686 0 5.547-1.217 5.547-3.686 0-5.738-12.462-2.7-12.462-10.297 0-3.838 3.837-5.32 7.295-5.32 1.976 0 5.015.686 6.535 2.205.228.227.342.494.342.72 0 .57-.57 1.14-1.178 1.14-.23 0-.494-.076-.722-.305-1.178-1.14-3.306-1.596-4.978-1.596-3.344 0-5.13 1.293-5.13 3.154 0 5.318 12.462 2.508 12.462 10.297 0 4.33-3.8 5.85-7.713 5.85z"/><path id="g" d="M312.72 180.195h-15.768c.342 4.332 3.153 7.486 7.295 7.486 2.052 0 4.483-.912 5.585-2.623.267-.418.57-.53.912-.53.57 0 1.178.455 1.178 1.025 0 .342 0 .418-.722 1.254-1.748 2.053-4.293 3.04-6.953 3.04-6.117 0-9.536-5.014-9.536-10.752 0-5.7 3.42-10.715 9.536-10.715s9.537 5.055 9.537 10.715c0 .57-.532 1.102-1.064 1.102zm-8.473-9.65c-4.56 0-6.953 3.496-7.295 7.486h14.628c-.342-4.332-3.153-7.486-7.333-7.486z"/><path id="h" d="M344.072 189.2h-1.178c-3 0-4.483-1.482-4.483-4.445V171.19h-1.937c-.684 0-1.063-.57-1.063-1.102 0-.494.38-1.064 1.063-1.064h1.938v-5.812c0-.684.57-1.064 1.103-1.064s1.063.38 1.063 1.064v5.813h3.495c.685 0 1.064.57 1.064 1.064 0 .53-.38 1.102-1.064 1.102h-3.495v13.564c0 1.86.532 2.28 2.317 2.28h1.178c.685 0 1.064.57 1.064 1.102 0 .494-.38 1.064-1.064 1.064z"/></defs></svg>