<svg xmlns="http://www.w3.org/2000/svg" xmlns:xlink="http://www.w3.org/1999/xlink" viewBox="0 0 1080 1080"><defs><linearGradient id="A" x1="11.716" y1="11.716" x2="1068.284" y2="1068.284" gradientUnits="userSpaceOnUse"><stop offset="0" stop-color="#434343"/><stop offset=".228" stop-color="#3a3a3a"/><stop offset=".604" stop-color="#212121"/><stop offset="1"/></linearGradient><clipPath id="B"><rect width="1080" height="1080" rx="40" fill="none"/></clipPath><linearGradient id="C" x1="575.397" y1="1014.613" x2="575.397" y2="-5188.305" gradientUnits="userSpaceOnUse"><stop offset="0" stop-color="#36c500"/><stop offset=".009" stop-color="#2bd117"/><stop offset=".023" stop-color="#1ddf32"/><stop offset=".039" stop-color="#13eb48"/><stop offset=".058" stop-color="#0af459"/><stop offset=".081" stop-color="#04fa64"/><stop offset=".113" stop-color="#01fe6b"/><stop offset=".202" stop-color="#00ff6d"/></linearGradient><linearGradient id="D" x1="539.178" y1="1014.613" x2="539.178" y2="-7206.671" gradientUnits="userSpaceOnUse"><stop offset="0" stop-color="#fff" stop-opacity=".15"/><stop offset=".018" stop-color="#fff" stop-opacity=".224"/><stop offset=".063" stop-color="#fff" stop-opacity=".385"/><stop offset=".113" stop-color="#fff" stop-opacity=".533"/><stop offset=".168" stop-color="#fff" stop-opacity=".66"/><stop offset=".229" stop-color="#fff" stop-opacity=".767"/><stop offset=".297" stop-color="#fff" stop-opacity=".853"/><stop offset=".377" stop-color="#fff" stop-opacity=".92"/><stop offset=".476" stop-color="#fff" stop-opacity=".966"/><stop offset=".615" stop-color="#fff" stop-opacity=".993"/><stop offset="1" stop-color="#fff"/></linearGradient><path id="E" d="M88.46 909.228a8.362 8.362 0 0 1-6.443 2.736c-5.795 0-9.035-4.752-9.035-10.187 0-5.4 3.24-10.15 9.035-10.15a8.361 8.361 0 0 1 6.443 2.735 1.57 1.57 0 0 1 .432 1.044 1.676 1.676 0 0 1-1.62 1.548 1.702 1.702 0 0 1-1.116-.504 5.29 5.29 0 0 0-4.14-1.764c-3.6 0-5.94 2.808-5.94 7.09 0 4.32 2.34 7.128 5.94 7.128a5.353 5.353 0 0 0 4.14-1.765 1.437 1.437 0 0 1 1.116-.539 1.553 1.553 0 0 1 1.188 2.627z"/><path id="F" d="M143.144 903.36h-13.318c.504 3.384 2.664 5.544 5.83 5.544a5.403 5.403 0 0 0 4.284-1.872 1.488 1.488 0 0 1 1.116-.576 1.68 1.68 0 0 1 1.62 1.584c0 .432-.108.756-.864 1.512a8.772 8.772 0 0 1-6.155 2.412c-5.795 0-9.035-4.788-9.035-10.187 0-5.363 3.24-10.15 9.035-10.15 5.867 0 9 4.787 9 10.15a1.535 1.535 0 0 1-1.512 1.584zm-7.487-8.675c-3.383 0-5.363 2.483-5.83 5.58h11.663c-.504-3.455-2.664-5.58-5.832-5.58z"/><path id="G" d="M162.44 911.315a1.462 1.462 0 0 1-1.548-1.512 8.71 8.71 0 0 1-5.939 2.16c-5.795 0-9.035-4.752-9.035-10.187 0-5.4 3.24-10.15 9.035-10.15a7.933 7.933 0 0 1 5.939 2.34v-6.695a1.548 1.548 0 0 1 3.096-.036v22.57a1.462 1.462 0 0 1-1.548 1.512zm-7.487-16.63c-3.6 0-5.94 2.808-5.94 7.09 0 4.32 2.34 7.128 5.94 7.128 3.636 0 5.94-2.808 5.94-7.128 0-4.283-2.304-7.09-5.94-7.09z"/><path id="H" d="M54.158 957.438c-5.936 0-5.992-7.11-5.992-11.2 0-4.004.616-9.716 5.964-9.716 5.236 0 6.02 5.376 6.02 9.716 0 4.06-.084 11.2-5.992 11.2zm4.396-11.2c0-4.004-.56-8.12-4.396-8.12-4.2 0-4.396 5.15-4.396 8.12v1.792c0 3.248.616 7.812 4.368 7.812 3.836 0 4.424-4.563 4.424-7.812z"/><path id="I" d="M103.69 943.467a4.786 4.786 0 0 0-4.788 4.788v7.924a.798.798 0 0 1-1.596 0v-13.3a.798.798 0 0 1 1.596 0v1.148a6.393 6.393 0 0 1 4.788-2.156.798.798 0 1 1 0 1.596z"/><path id="J" d="M111.53 957.438c-4.508 0-7.028-3.695-7.028-7.924 0-4.2 2.52-7.896 7.028-7.896s7.028 3.695 7.028 7.896c0 4.23-2.52 7.924-7.028 7.924zm0-14.224c-3.304 0-5.432 2.66-5.432 6.3s2.128 6.328 5.432 6.328c3.332 0 5.432-2.687 5.432-6.328s-2.1-6.3-5.432-6.3z"/><path id="K" d="M125.613 956.963h-.868c-2.212 0-3.304-1.092-3.304-3.276v-9.995h-1.428a.798.798 0 0 1 0-1.597h1.428v-4.284a.786.786 0 0 1 .812-.783.764.764 0 0 1 .784.783v4.284h2.576a.798.798 0 0 1 0 1.597h-2.576v9.995c0 1.372.392 1.68 1.708 1.68h.868a.798.798 0 0 1 0 1.596z"/><path id="L" d="M140.172 950.327h-11.62c.252 3.19 2.324 5.516 5.376 5.516a5.061 5.061 0 0 0 4.116-1.932.734.734 0 0 1 .672-.393.856.856 0 0 1 .868.757c0 .252 0 .308-.532.924a6.611 6.611 0 0 1-5.124 2.239c-4.508 0-7.028-3.695-7.028-7.924 0-4.2 2.52-7.896 7.028-7.896s7.028 3.724 7.028 7.896a.848.848 0 0 1-.784.813zm-6.244-7.112c-3.36 0-5.124 2.576-5.376 5.516h10.78c-.252-3.19-2.324-5.516-5.404-5.516z"/><path id="M" d="M147.564 957.495c-1.68 0-4.508-.588-5.488-2.212a.678.678 0 0 1-.112-.42.763.763 0 0 1 1.428-.448c1.008 1.23 2.8 1.483 4.172 1.483 2.716 0 4.088-.896 4.088-2.716 0-4.228-9.184-1.987-9.184-7.588 0-2.828 2.828-3.92 5.376-3.92a7.585 7.585 0 0 1 4.816 1.624.784.784 0 0 1 .252.532.908.908 0 0 1-.868.84.742.742 0 0 1-.532-.224 5.6 5.6 0 0 0-3.668-1.177c-2.464 0-3.78.952-3.78 2.324 0 3.92 9.184 1.85 9.184 7.588 0 3.192-2.8 4.313-5.684 4.313z"/><path id="N" d="M209.89 956.963a.787.787 0 0 1-.812-.784v-.896a6.218 6.218 0 0 1-4.788 2.155 6.454 6.454 0 0 1-6.384-6.384v-8.176a.798.798 0 0 1 1.596 0v8.176a4.788 4.788 0 1 0 9.576 0v-8.176a.798.798 0 0 1 1.596 0v13.3a.781.781 0 0 1-.784.784z"/><path id="O" d="M225.88 956.963a.787.787 0 0 1-.812-.784v-1.4a6.353 6.353 0 0 1-5.432 2.659c-4.508 0-7.028-3.695-7.028-7.924 0-4.2 2.52-7.896 7.028-7.896a6.4 6.4 0 0 1 5.432 2.632v-6.44a.798.798 0 0 1 1.596 0v18.368a.781.781 0 0 1-.784.784zm-6.244-13.748c-3.304 0-5.432 2.66-5.432 6.3s2.128 6.328 5.432 6.328c3.332 0 5.432-2.687 5.432-6.328s-2.1-6.3-5.432-6.3z"/><path id="P" d="M104.714 1045.51a1.36 1.36 0 0 1-1.4-1.101 7.763 7.763 0 0 1-4.804 1.668 7.666 7.666 0 0 1-7.604-7.605v-9.24a1.434 1.434 0 0 1 2.868-.033v9.272a4.753 4.753 0 1 0 9.507 0v-9.24a1.33 1.33 0 0 1 1.4-1.468 1.364 1.364 0 0 1 1.435 1.435v14.9a1.328 1.328 0 0 1-1.401 1.4z"/><path id="Q" d="M327.1 1046.357c-1.2 0-3.22-.42-3.92-1.58a.478.478 0 0 1-.08-.299.546.546 0 0 1 1.021-.32 3.815 3.815 0 0 0 2.98 1.061c1.94 0 2.92-.64 2.92-1.94 0-3.02-6.562-1.42-6.562-5.422 0-2.02 2.02-2.8 3.84-2.8a5.415 5.415 0 0 1 3.44 1.16.556.556 0 0 1 .18.379.647.647 0 0 1-.62.6.527.527 0 0 1-.38-.16 4.001 4.001 0 0 0-2.62-.84c-1.76 0-2.7.682-2.7 1.66 0 2.8 6.562 1.32 6.562 5.422 0 2.28-2 3.08-4.06 3.08z"/><path id="R" d="M337.83 1046.318c-3.22 0-5.02-2.64-5.02-5.662 0-3 1.8-5.64 5.02-5.64s5.02 2.64 5.02 5.64c0 3.02-1.8 5.662-5.02 5.662zm0-10.162c-2.36 0-3.88 1.9-3.88 4.5s1.52 4.52 3.88 4.52c2.38 0 3.88-1.92 3.88-4.52s-1.5-4.5-3.88-4.5z"/><path id="S" d="M353.61 1045.98a.563.563 0 0 1-.58-.561v-.64a4.443 4.443 0 0 1-3.421 1.541 4.61 4.61 0 0 1-4.561-4.561v-5.842a.57.57 0 0 1 1.14 0v5.842a3.421 3.421 0 0 0 6.842 0v-5.842a.57.57 0 0 1 1.141 0v9.502a.559.559 0 0 1-.561.561z"/><path id="T" d="M361.57 1036.336a3.418 3.418 0 0 0-3.421 3.42v5.662a.57.57 0 0 1-1.141 0v-9.502a.57.57 0 0 1 1.141 0v.82a4.566 4.566 0 0 1 3.421-1.541.57.57 0 1 1 0 1.141z"/><path id="U" d="M371.75 1044.797a4.646 4.646 0 0 1-3.58 1.521c-3.22 0-5.02-2.64-5.02-5.662 0-3 1.8-5.64 5.02-5.64a4.651 4.651 0 0 1 3.58 1.52.534.534 0 0 1 .16.381.626.626 0 0 1-.58.6.586.586 0 0 1-.42-.199 3.526 3.526 0 0 0-2.74-1.16c-2.36 0-3.88 1.9-3.88 4.5s1.52 4.52 3.88 4.52a3.592 3.592 0 0 0 2.74-1.16.586.586 0 0 1 .42-.199.594.594 0 0 1 .58.58.569.569 0 0 1-.16.398z"/><path id="V" d="M383.33 1041.236h-8.302c.18 2.28 1.66 3.94 3.84 3.94a3.615 3.615 0 0 0 2.94-1.381.526.526 0 0 1 .479-.279.611.611 0 0 1 .62.541c0 .18 0 .22-.38.658a4.718 4.718 0 0 1-3.66 1.602c-3.22 0-5.02-2.64-5.02-5.662 0-3 1.8-5.64 5.02-5.64s5.02 2.66 5.02 5.64a.605.605 0 0 1-.56.58zm-4.46-5.08c-2.4 0-3.66 1.84-3.84 3.94h7.7c-.18-2.28-1.66-3.94-3.86-3.94z"/><path id="W" d="M405.49 1045.998a.615.615 0 0 1-.48-.32l-7.82-11.543v11.283a.57.57 0 0 1-1.141 0v-13.123a.569.569 0 0 1 1.08-.279l7.822 11.54v-11.262a.57.57 0 0 1 1.14 0v13.123a.597.597 0 0 1-.6.58z"/><path id="X" d="M429.45 1045.98a.563.563 0 0 1-.58-.561v-5.842a3.42 3.42 0 0 0-6.841 0v5.842a.57.57 0 0 1-1.141 0v-9.502a.57.57 0 0 1 1.141 0v.64a4.563 4.563 0 0 1 7.981 3.02v5.842a.558.558 0 0 1-.561.561z"/><path id="Y" d="M443.408 1033.436a1.141 1.141 0 1 1 1.141-1.141 1.127 1.127 0 0 1-1.141 1.141zm0 12.543a.55.55 0 0 1-.58-.561v-9.502a.552.552 0 0 1 .58-.561.545.545 0 0 1 .561.561v9.502a.536.536 0 0 1-.561.561z"/><path id="Z" d="M460.748 1046.098a2.096 2.096 0 0 1-1.98-2.119v-11.684a.57.57 0 0 1 1.141 0v11.684c0 1.28 1.42.54 1.42 1.44a.645.645 0 0 1-.58.68z"/><path id="a" d="M490.548 1045.98h-.62a2.075 2.075 0 0 1-2.36-2.342v-7.14h-1.02a.57.57 0 0 1 0-1.141h1.02v-3.06a.563.563 0 0 1 .58-.561.547.547 0 0 1 .56.561v3.06h1.84a.57.57 0 0 1 0 1.141h-1.84v7.14c0 .98.28 1.2 1.22 1.2h.62a.57.57 0 0 1 0 1.141z"/><path id="b" d="M508.27 1045.98h-.02a2.073 2.073 0 0 1-1.98-1.561 4.538 4.538 0 0 1-3.88 1.9c-3.26 0-5.02-2.682-5.02-5.662 0-3.02 1.8-5.64 5.02-5.64a4.572 4.572 0 0 1 3.88 1.881v-.98a.565.565 0 0 1 .581-.561.547.547 0 0 1 .56.561v8.063c0 1.28 1.44.48 1.44 1.44a.55.55 0 0 1-.58.561zm-5.88-9.822c-2.36 0-3.88 1.9-3.88 4.5s1.52 4.52 3.88 4.52c2.38 0 3.88-1.92 3.88-4.52s-1.5-4.5-3.88-4.5z"/><path id="c" d="M531.47 1045.98a.564.564 0 0 1-.581-.561v-1a4.538 4.538 0 0 1-3.88 1.9c-3.22 0-5.02-2.64-5.02-5.662 0-3 1.8-5.64 5.02-5.64a4.572 4.572 0 0 1 3.88 1.881v-4.602a.57.57 0 0 1 1.141 0v13.123a.558.558 0 0 1-.56.561zm-4.46-9.822c-2.36 0-3.88 1.9-3.88 4.5s1.52 4.52 3.88 4.52c2.38 0 3.88-1.92 3.88-4.52s-1.5-4.5-3.88-4.5z"/><path id="d" d="M615.766 1044.137a5.123 5.123 0 0 1-4.461 2.182c-4.3 0-5.82-3.56-5.82-7.46 0-3.922 1.52-7.482 5.82-7.482a5.067 5.067 0 0 1 4.44 2.18.407.407 0 0 1 .12.32.6.6 0 0 1-.62.561.528.528 0 0 1-.439-.221 3.939 3.939 0 0 0-3.501-1.699c-3.32 0-4.682 2.6-4.682 6.342 0 3.72 1.36 6.32 4.682 6.32a3.988 3.988 0 0 0 3.541-1.701.465.465 0 0 1 .439-.26.612.612 0 0 1 .601.58.63.63 0 0 1-.12.34z"/><path id="e" d="M643.906 1045.98a.547.547 0 0 1-.56-.561v-6.72a2.551 2.551 0 0 0-5.102-.021v6.742a.546.546 0 0 1-.56.561.563.563 0 0 1-.58-.561v-6.72a2.541 2.541 0 0 0-5.081-.021v6.742a.57.57 0 0 1-1.141 0v-9.502a.57.57 0 0 1 1.141 0v.12a3.64 3.64 0 0 1 2.54-1.02 3.695 3.695 0 0 0 6.222 0 3.658 3.658 0 0 1 3.7 3.66v6.742a.563.563 0 0 1-.58.561z"/><path id="f" d="M762.404 1046.318c-4.3 0-5.82-3.56-5.82-7.46 0-3.922 1.52-7.482 5.82-7.482 4.28 0 5.82 3.56 5.82 7.482 0 3.9-1.54 7.46-5.82 7.46zm0-13.803c-3.32 0-4.682 2.6-4.682 6.342 0 3.72 1.36 6.32 4.682 6.32 3.3 0 4.68-2.6 4.68-6.32 0-3.742-1.38-6.342-4.68-6.342z"/><path id="g" d="M145.6 109.89a23.074 23.074 0 0 0-23.084 23.084v38.203a3.848 3.848 0 0 1-7.694 0v-64.122a3.848 3.848 0 0 1 7.694 0v5.535a30.822 30.822 0 0 1 23.084-10.395 3.848 3.848 0 1 1 0 7.694z"/><path id="h" d="M183.398 177.25c-21.734 0-33.884-17.82-33.884-38.203 0-20.25 12.15-38.068 33.884-38.068s33.883 17.818 33.883 38.068c0 20.384-12.15 38.203-33.883 38.203zm0-68.577c-15.93 0-26.19 12.824-26.19 30.374s10.26 30.51 26.19 30.51c16.064 0 26.188-12.96 26.188-30.51s-10.125-30.374-26.188-30.374z"/><path id="i" d="M251.3 174.956h-4.185c-10.665 0-15.93-5.265-15.93-15.794V110.97h-6.885a3.848 3.848 0 0 1 0-7.694h6.885V82.62a3.794 3.794 0 0 1 3.915-3.78 3.685 3.685 0 0 1 3.78 3.78v20.654h12.42a3.848 3.848 0 0 1 0 7.694h-12.42v48.193c0 6.614 1.9 8.1 8.235 8.1h4.185a3.848 3.848 0 0 1 0 7.694z"/><path id="j" d="M357.14 177.52c-8.1 0-21.734-2.834-26.46-10.664a3.26 3.26 0 0 1-.54-2.025 3.682 3.682 0 0 1 6.885-2.159c4.86 5.94 13.5 7.154 20.114 7.154 13.094 0 19.71-4.32 19.71-13.095 0-20.384-44.278-9.584-44.278-36.583 0-13.635 13.634-18.9 25.92-18.9 7.02 0 17.82 2.43 23.22 7.83a3.775 3.775 0 0 1 1.215 2.564 4.376 4.376 0 0 1-4.185 4.05 3.573 3.573 0 0 1-2.565-1.08c-4.185-4.05-11.745-5.67-17.684-5.67-11.88 0-18.225 4.6-18.225 11.205 0 18.9 44.278 8.91 44.278 36.583 0 15.4-13.5 20.79-27.404 20.79z"/><path id="k" d="M167.196 313.956a3.794 3.794 0 0 1-3.915-3.78v-39.418a23.084 23.084 0 0 0-46.168 0v39.418a3.848 3.848 0 0 1-7.694 0v-64.122a3.848 3.848 0 0 1 7.694 0v4.32a30.795 30.795 0 0 1 53.863 20.384v39.418a3.763 3.763 0 0 1-3.78 3.78z"/><path id="l" d="M212.962 344.734c-11.475 0-27.674-4.32-27.674-9.18 0-2.16 1.755-4.32 3.915-4.32 1.485 0 4.6 2.295 7.155 3.24a50.593 50.593 0 0 0 16.605 2.564c17.28 0 26.188-8.505 26.188-25.11v-9.45c-5.94 7.154-14.444 11.475-26.188 11.475-21.33 0-33.884-15.12-33.884-35.908 0-20.25 12.15-38.068 33.884-38.068 11.744 0 20.52 4.86 26.188 12.69v-6.48a3.848 3.848 0 0 1 7.695 0v65.742c0 21.465-12.824 32.804-33.883 32.804zm0-97.06c-15.93 0-26.19 12.824-26.19 30.374 0 17.414 9.584 28.214 26.19 28.214s26.188-10.8 26.188-28.214c0-17.55-10.125-30.374-26.188-30.374z"/><path id="m" d="M329.735 313.956h-.135c-4.455 0-10.8-2.43-13.365-10.53-5.67 7.965-14.444 12.824-26.188 12.824-22.004 0-33.884-18.09-33.884-38.203 0-20.385 12.15-38.068 33.884-38.068 11.744 0 20.52 4.86 26.188 12.69v-6.615a3.804 3.804 0 0 1 3.915-3.779 3.684 3.684 0 0 1 3.78 3.779v54.403c0 8.64 9.72 3.24 9.72 9.72a3.713 3.713 0 0 1-3.915 3.78zm-39.688-66.282c-15.93 0-26.19 12.824-26.19 30.374s10.26 30.51 26.19 30.51c16.064 0 26.188-12.96 26.188-30.51s-10.125-30.374-26.188-30.374z"/><path id="n" d="M313.397 455.25c-11.744 0-20.52-4.86-26.19-12.824V477.4a3.848 3.848 0 1 1-7.694 0v-92.336a3.848 3.848 0 0 1 7.694 0v6.615c5.67-7.83 14.445-12.69 26.19-12.69 21.734 0 33.884 17.818 33.884 38.068 0 20.384-12.15 38.203-33.884 38.203zm0-68.577c-16.064 0-26.19 12.824-26.19 30.374s10.125 30.51 26.19 30.51 26.19-12.96 26.19-30.51-10.125-30.374-26.19-30.374z"/><path id="o" d="M673.705 452.956h-.135c-4.455 0-10.8-2.43-13.364-10.53-5.67 7.965-14.444 12.824-26.188 12.824-22.005 0-33.884-18.09-33.884-38.203 0-20.385 12.15-38.068 33.884-38.068 11.744 0 20.52 4.86 26.188 12.69v-6.615a3.804 3.804 0 0 1 3.915-3.779 3.684 3.684 0 0 1 3.779 3.779v54.403c0 8.64 9.72 3.24 9.72 9.72a3.713 3.713 0 0 1-3.915 3.78zm-39.687-66.282c-15.93 0-26.19 12.824-26.19 30.374s10.26 30.51 26.19 30.51c16.063 0 26.188-12.96 26.188-30.51s-10.125-30.374-26.188-30.374z"/></defs><rect width="1080" height="1080" rx="40" fill="url(#A)"/><g clip-path="url(#B)"><path d="M619.73 1003.572h3.4v11.04h-3.4zm296.697 11.04h3.4V718.52h-3.4zm-341.032 0h3.4v-8.692h-3.4zm235.312 0h3.4V883.84h-3.4zm211.44 0h3.4v-2694.22h-3.4zm-661.6 0h3.4v-2.82h-3.4zm95.49 0h3.4v-4.346h-3.4zm368.314 0h3.4V864.996h-3.4zm-221.67 0h3.4v-10.16h-3.4zm-20.462 0h3.4v-9.103h-3.4zm381.955 0h3.4V449.57h-3.4zm-170.516 0h3.4v-31.185h-3.4zm180.747 0h3.4V56.798h-3.4zm-109.13 0h3.4V829.33h-3.4zm-225.08 0h3.4v-12.568h-3.4zm105.72 0h3.4v-21.67h-3.4zm-334.21 0h3.4v-3.465h-3.4zm37.513 0h3.4v-4.11h-3.4zm562.702 0h3.4v-2629.618h-3.4zm-10.23 0h3.4V-603.354h-3.4zm-651.37 0h3.4v-2.584h-3.4zm37.513 0h3.4v-3.054h-3.4zm637.73 0h3.4v-2792.468h-3.4zm-528.6 0h3.4v-5.227h-3.4zm-211.44 0h3.4v-1.527h-3.4zm245.543 0h3.4v-6.284h-3.4zm122.77 0h3.4v-14.095h-3.4zm-180.747 0h3.4v-4.522h-3.4zm136.413 0h3.4v-10.16h-3.4zm54.565 0h3.4v-14.917h-3.4zm344.442 0h3.4v-2325.225h-3.4zm-13.64 0h3.4v-1158.8h-3.4zm-572.933 0h3.4v-3.465h-3.4zm208.03 0h3.4v-11.922h-3.4zm17.052 0h3.4V1001.4h-3.4zm313.75 0h3.4V493.534h-3.4zm-34.103 0h3.4V692.948h-3.4zm105.72 0h3.4l-3.4-5528.86zm-388.776 0h3.4V1001.8h-3.4zm334.21 0h3.4V53.433h-3.4zm-381.955 0h3.4v-9.514h-3.4zm-75.027 0h3.4v-6.05h-3.4zm259.184 0h3.4v-27.72h-3.4zm-436.52 0h3.4v-2.173h-3.4zm538.83 0h3.4V816.096h-3.4zm-40.924 0h3.4v-162.85h-3.4zm150.054 0h3.4V-117.045h-3.4zm-20.462 0h3.4V246.118h-3.4zm-133.002 0h3.4V854.23h-3.4zm-412.648 0h3.4v-3.7h-3.4zm245.543 0h3.4V999.46h-3.4zm44.334 0h3.4v-19.498h-3.4zm10.23 0h3.4v-20.555h-3.4zm-395.596 0h3.4v-1.938h-3.4zm705.935 0h3.4l-3.4-6202.918zm-208.03 0h3.4V859.837h-3.4zm-44.334 0h3.4v-28.777h-3.4zm214.85 0h3.4V-581.82h-3.4zm-808.245 0h3.4v-.646h-3.4zm484.264 0h3.4v-15.387h-3.4zm-180.747 0h3.4v-4.992h-3.4zm279.646 0h3.4v-25.547h-3.4zm-313.75 0h3.4v-4.346h-3.4zm197.798 0h3.4v-14.506h-3.4zm105.72 0h3.4V991.65h-3.4zm-204.62 0h3.4v-7.34h-3.4zm426.3 0h3.4V-14.31h-3.4zm-75.027 0h3.4V737.587h-3.4zm-409.238 0h3.4v-5.227h-3.4zm248.953 0h3.4v-21.67h-3.4zm-208.03 0h3.4v-6.695h-3.4zm317.16 0h3.4V834.265h-3.4zm-150.054 0h3.4v-18.617h-3.4zm204.62 0h3.4v-281.96h-3.4zm-528.6 0h3.4v-3.054h-3.4zm122.77 0h3.4v-5.227h-3.4zm412.648 0h3.4v-298.56h-3.4zm-409.238 0h3.4v-5.403h-3.4zm276.235 0h3.4V985.13h-3.4zm-525.188 0h3.4v-1.057h-3.4zm450.16 0h3.4V995.76h-3.4zm-600.215 0h3.4v-.235h-3.4zm525.188 0h3.4v-12.157h-3.4zm252.363 0h3.4v-204.35h-3.4zm-167.106 0h3.4v-20.38h-3.4zm173.926 0h3.4v-211.75h-3.4zm-709.345 0h3.4v-.646h-3.4zm665.01 0h3.4v-169.58h-3.4zm-361.493 0h3.4v-4.992h-3.4zm211.44 0h3.4v-17.325h-3.4zm252.364 0h3.4v-493.04h-3.4zm-330.8 0h3.4v-11.276h-3.4zm323.98 0h3.4V604.345h-3.4zm-313.75 0h3.4v-12.157h-3.4zm61.386 0h3.4V998.17h-3.4zm-402.417 0h3.4v-1.527h-3.4zm105.72 0h3.4v-3.23h-3.4zm617.267 0h3.4v-2640.384h-3.4zm-337.62 0h3.4V998.99h-3.4zm57.975 0h3.4v-21.025h-3.4zm197.8 0h3.4v-347.46h-3.4zm17.052 0h3.4v-444.14h-3.4zm-818.476 0h3.4v-.41h-3.4zm760.5 0h3.4v-211.75h-3.4zm-354.673 0h3.4v-6.52h-3.4zm317.16 0h3.4v-171.15h-3.4zm-115.95 0h3.4v-21.436h-3.4zm122.77 0h3.4V831.798h-3.4zm-678.653 0h3.4v-.646h-3.4zm651.37 0h3.4V857.37h-3.4zm-392.186 0h3.4v-4.11h-3.4zm388.776 0h3.4v-155.45h-3.4zm-504.726 0h3.4v-1.938h-3.4zm358.083 0h3.4V998.58h-3.4zm-197.798 0h3.4v-4.757h-3.4zm480.855 0h3.4v-694.92h-3.4zm-767.32 0h3.4v-.646h-3.4zm668.42 0h3.4V827.76h-3.4z" fill="url(#C)"/><path d="M281.7 1013.32h3.4v1.292h-3.4zm54.565 1.292h3.4v-1.938h-3.4zm433.1 0h3.4v-23.198h-3.4zm-23.872 0h3.4v-21.67h-3.4zm-323.98 0h3.4v-3.465h-3.4zm-136.412 0h3.4v-1.527h-3.4zm122.77 0h3.4v-3.23h-3.4zm532.01 0h3.4V644.946h-3.4zm-624.088 0h3.4v-1.762h-3.4zm167.105 0h3.4v-4.757h-3.4zm450.162 0h3.4V682.18h-3.4zm-702.525 0h3.4v-.88h-3.4zm139.823 0h3.4v-2.82h-3.4zm245.543 0h3.4v-10.63h-3.4zm-255.774 0h3.4v-2.82h-3.4zm-115.95 0h3.4v-1.057h-3.4zm129.592 0h3.4v-2.82h-3.4zm535.42 0h3.4V767.196h-3.4zm-832.117 0h0zm184.157 0h3.4v-1.057h-3.4zm81.848 0h3.4v-2.173h-3.4zm688.883 0h3.4v-2938.047h-3.4zm-965.12 0h0zm876.45 0h3.4v-375.5h-3.4zm-248.953 0h3.4v-16.268h-3.4zm-630.908 0h0zm115.95 0h3.4v-.646h-3.4zm197.798 0h3.4v-3.054h-3.4zm474.034 0h3.4v-168h-3.4zm-630.908 0h3.4v-.88h-3.4zm197.798 0h3.4v-3.465h-3.4zm-34.103 0h3.4v-3.054h-3.4zm317.16 0h3.4v-16.68h-3.4zm-388.776 0h3.4v-1.527h-3.4zm-160.285 0h3.4v-.41h-3.4zm170.516 0h3.4v-1.938h-3.4zm272.825 0h3.4v-9.338h-3.4zm126.18 0h3.4V994.47h-3.4zm-252.363 0h3.4v-4.522h-3.4zm-337.62 0h3.4v-.41h-3.4zm17.052 0h3.4v-.41h-3.4zm177.336 0h3.4v-1.938h-3.4zm716.166 0h3.4l-3.4-8221.284zm-948.067 0h3.4v-.235h-3.4zm456.982 0h3.4v-6.93h-3.4zm-375.135 0h3.4v-.41h-3.4zm30.693 0h3.4v-.646h-3.4zm-119.36 0h0zm122.77 0h3.4v-.88h-3.4zm255.773 0h3.4v-4.346h-3.4zm225.08 0h3.4V998.58h-3.4zm-61.386 0h3.4v-11.452h-3.4zm-57.975 0h3.4v-7.34h-3.4zm-538.83 0h0zm92.078 0h3.4v-.235h-3.4zm126.182 0h3.4v-1.057h-3.4zm368.314 0h3.4v-11.04h-3.4zm-371.724 0h3.4v-1.057h-3.4zm-23.872 0h3.4v-.88h-3.4zm702.525 0h3.4V696.986h-3.4zm-767.32 0h3.4v-.41h-3.4zm119.36 0h3.4v-1.292h-3.4zm532.01 0h3.4V886.306h-3.4zm-637.73 0h3.4v-.41h-3.4zm395.596 0h3.4v-7.34h-3.4zm139.823 0h3.4v-17.97h-3.4zm-671.832 0h0zm6.82 0h0zm532.01 0h3.4v-8.457h-3.4zm231.9 0h3.4v-127.4h-3.4zm-334.21 0h3.4v-4.522h-3.4zm-180.747 0h3.4v-1.527h-3.4zm64.796 0h3.4v-2.584h-3.4zm-51.155 0h3.4v-1.527h-3.4zm716.166 0h3.4v-2675.826h-3.4zm-975.35 0h0zm334.21 0h3.4v-3.054h-3.4zm54.565 0h3.4v-3.876h-3.4zm-334.21 0h3.4v-.235h-3.4zm630.908 0h3.4v-20.555h-3.4zm-433.1 0h3.4v-1.527h-3.4zm-248.953 0h0zm177.336 0h3.4v-.88h-3.4zm654.78 0h3.4v-197.62h-3.4zm-641.14 0h3.4v-1.057h-3.4zm-27.283 0h3.4v-.88h-3.4zm228.49 0h3.4v-3.876h-3.4zm-388.776 0h0zm6.82 0h0zm487.675 0h3.4v-6.93h-3.4zm136.412 0h3.4V998.58h-3.4zm218.26 0h3.4v-214.22h-3.4zm-422.88 0h3.4v-4.522h-3.4zm-375.134 0h3.4v-.235h-3.4zm153.464 0h3.4v-1.057h-3.4zm153.464 0h3.4v-3.465h-3.4zm579.754 0h3.4V-21.936h-3.4zm-115.95 0h3.4v-189.32h-3.4zm-221.67 0h3.4v-13.86h-3.4zm-378.545 0h3.4v-1.292h-3.4zm487.675 0h3.4v-22.317h-3.4zm-368.314 0h3.4v-3.054h-3.4zm276.235 0h3.4V999.46h-3.4zm-508.137 0h3.4v-.41h-3.4zm-54.565 0h3.4v-.235h-3.4zm399.007 0h3.4v-5.227h-3.4zm341.03 0h3.4V849.967h-3.4zm-736.628 0h3.4v-.235h-3.4zm705.935 0h3.4V869.93h-3.4zm-279.646 0h3.4v-6.284h-3.4zm-187.567 0h3.4v-2.584h-3.4zm-231.9 0h3.4v-.235h-3.4zm484.265 0h3.4v-9.984h-3.4zm-446.75 0h3.4v-.41h-3.4zm293.287 0h3.4v-4.11h-3.4zm-180.747 0h3.4v-1.292h-3.4zm-126.182 0h3.4v-.41h-3.4zm-3.4 0h3.4v-.41h-3.4zm416.058 0h3.4v-6.93h-3.4zm-37.514 0h3.4v-5.638h-3.4zm276.235 0h3.4v-30.128h-3.4zm-719.576 0h0zm934.426 0h3.4V-1210.57h-3.4zm-668.422 0h3.4v-2.173h-3.4zm-173.926 0h3.4v-.41h-3.4zm272.825 0h3.4v-3.876h-3.4zm-269.415 0h3.4v-.41h-3.4zm395.596 0h3.4v-7.34h-3.4zm27.283 0h3.4v-9.338h-3.4zm-64.796 0h3.4v-6.05h-3.4zm-129.592 0h3.4v-3.23h-3.4zm337.62 0h3.4v-20.8h-3.4zm-463.802 0h3.4v-1.292h-3.4zm-173.926 0h3.4v-.235h-3.4zm658.2 0h3.4V992.53h-3.4zm-671.832 0h0zm44.334 0h3.4v-.235h-3.4zm126.182 0h3.4v-1.057h-3.4zm569.522 0h3.4v-147.15h-3.4zm-743.448 0h0zm477.444 0h3.4v-7.165h-3.4zm388.776 0h3.4V604.345h-3.4zm-712.756 0h3.4v-.88h-3.4zm525.188 0h3.4V992.53h-3.4zm-170.516 0h3.4v-9.103h-3.4zm-286.466 0h3.4v-1.527h-3.4zm-231.9 0h0zm51.155 0h3.4v-.235h-3.4zm460.392 0h3.4v-8.692h-3.4zm27.283 0h3.4v-10.16h-3.4zm279.646 0h3.4V813.63h-3.4zm-225.08 0h3.4v-14.917h-3.4zm-467.213 0h3.4v-.646h-3.4zm-139.823 0h0zm903.733 0h3.4v-507.17h-3.4zm-54.565 0h3.4V788.057h-3.4zm-419.47 0h3.4v-4.757h-3.4zm-286.466 0h3.4v-.646h-3.4zm109.13 0h3.4v-1.527h-3.4zm-92.078 0h3.4v-.88h-3.4zm20.462 0h3.4v-1.057h-3.4zm746.86 0h3.4V43.563h-3.4zm-105.72 0h3.41V821.03h-3.4zm-838.937 0h0zm327.4 0h3.4v-2.82h-3.4zm37.513 0h3.4v-3.23h-3.4zm51.155 0h3.4v-4.11h-3.4zm323.98 0h3.4V988.83h-3.4zm20.462 0h3.4V892.138h-3.4zm3.4 0h3.4V889.67h-3.4zm-30.693 0h3.4v-24.255h-3.4zm-252.363 0h3.4v-5.638h-3.4zm-88.668 0h3.4v-3.876h-3.4zm-248.953 0h3.4v-.646h-3.4zm347.852 0h3.4v-6.05h-3.4zm289.877 0h3.4v-145.58h-3.4zm-501.316 0h3.4v-1.938h-3.4zm-173.926 0h3.4v-.41h-3.4zm-54.565 0h0z" fill="url(#D)"/></g><g opacity=".4" fill="none" stroke="#fff" stroke-linejoin="round" stroke-width="2"><path d="M96.412 725.025h1"/><path d="M103.397 725.025h938.61" stroke-dasharray="1.99492 5.98477"/><path d="M1045 725.025h1"/></g><path d="M39.794 736.13a6.857 6.857 0 0 1-5.823-3.231 1.196 1.196 0 0 1-.128-.513 1.003 1.003 0 0 1 .928-.96.858.858 0 0 1 .736.48 5.026 5.026 0 0 0 9.312-2.592 5.005 5.005 0 0 0-4.992-5.023h-.032a.928.928 0 0 1-.928-.928.901.901 0 0 1 .928-.896h.032a4.208 4.208 0 0 0 0-8.415c-3.488 0-3.936 3.327-5.216 3.327a.95.95 0 0 1-.96-.895c0-.704 2.432-4.256 6.176-4.256a6.05 6.05 0 0 1 6.016 6.016 5.902 5.902 0 0 1-2.752 5.056 6.681 6.681 0 0 1 3.552 5.983 6.855 6.855 0 0 1-6.848 6.848zm10.88-.543a1.824 1.824 0 1 1 1.824-1.824 1.803 1.803 0 0 1-1.824 1.824zm10.43.32a7.073 7.073 0 0 1-5.759-3.04.868.868 0 0 1-.16-.512.978.978 0 0 1 .96-.929c.48 0 .512.257.992.77a5.035 5.035 0 0 0 3.967 1.888 5.828 5.828 0 0 0 0-11.615 5.173 5.173 0 0 0-4.224 2.271.917.917 0 0 1-.864.448.882.882 0 0 1-.928-.96V713.7a.874.874 0 0 1 .896-.896h10.688a.898.898 0 1 1 0 1.792h-9.76v7.487a6.477 6.477 0 0 1 4.191-1.44 7.647 7.647 0 0 1 0 15.264zm14.17-16.713a3.296 3.296 0 1 1 2.93-3.285 3.136 3.136 0 0 1-2.93 3.285zm0-5.506a2.254 2.254 0 1 0 1.866 2.221 2.07 2.07 0 0 0-1.866-2.221zm7.054-.7l-3.564 12.877c-.093.26-.242.392-.466.392a.574.574 0 0 1-.579-.541.364.364 0 0 1 .019-.149l3.564-12.877a.505.505 0 0 1 .485-.41.586.586 0 0 1 .56.56.524.524 0 0 1-.019.149zm2.314 12.933a3.293 3.293 0 1 1 2.949-3.284 3.134 3.134 0 0 1-2.949 3.284zm0-5.486a2.24 2.24 0 1 0 1.885 2.202 2.051 2.051 0 0 0-1.885-2.202z" opacity=".3" fill="#fff"/><g fill="#44ff30"><path d="M45.118 911.964c-1.98 0-5.3-.612-6.983-2.7a1.593 1.593 0 0 1 1.296-2.556 1.477 1.477 0 0 1 1.116.612 6.152 6.152 0 0 0 4.571 1.584c3.24 0 4.284-1.116 4.284-2.736 0-4.607-10.98-1.764-10.98-9.18 0-3.924 3.67-5.363 7.1-5.363 1.944 0 6.515.972 6.515 2.987a1.616 1.616 0 0 1-1.512 1.62 2.165 2.165 0 0 1-1.187-.468 5.836 5.836 0 0 0-3.816-1.08c-2.987 0-4.03 1.116-4.03 2.304 0 4.283 11.015 1.512 11.015 9.18 0 4.248-3.563 5.796-7.38 5.796zm23.867-.576a1.468 1.468 0 0 1-1.512-1.188 8.376 8.376 0 0 1-5.183 1.8 8.273 8.273 0 0 1-8.207-8.206v-9.972a1.548 1.548 0 0 1 3.096-.035v10.007a5.129 5.129 0 1 0 10.259 0v-9.972a1.435 1.435 0 0 1 1.512-1.583 1.472 1.472 0 0 1 1.548 1.548v16.1a1.434 1.434 0 0 1-1.512 1.512z"/><use xlink:href="#E"/><use xlink:href="#E" x="17.173"/><path d="M123.848 903.36H110.53c.504 3.384 2.664 5.544 5.83 5.544a5.403 5.403 0 0 0 4.284-1.872 1.488 1.488 0 0 1 1.116-.576 1.68 1.68 0 0 1 1.62 1.584c0 .432-.108.756-.864 1.512a8.772 8.772 0 0 1-6.155 2.412c-5.795 0-9.035-4.788-9.035-10.187 0-5.363 3.24-10.15 9.035-10.15 5.867 0 9 4.787 9 10.15a1.535 1.535 0 0 1-1.512 1.584zm-7.487-8.675c-3.383 0-5.363 2.483-5.83 5.58h11.663c-.504-3.455-2.664-5.58-5.832-5.58z"/><use xlink:href="#F"/><use xlink:href="#G"/><use xlink:href="#F" x="39.852"/><use xlink:href="#G" x="39.85"/></g><g opacity=".3" fill="#fff"><path d="M231.88 895.298h-1.62v14.506a1.471 1.471 0 0 1-1.583 1.512 1.453 1.453 0 0 1-1.512-1.512v-14.506h-1.476a1.53 1.53 0 0 1 0-3.06h1.476V889.8a4.102 4.102 0 0 1 4.14-4.067 1.531 1.531 0 1 1 0 3.06 1.008 1.008 0 0 0-1.044.972v2.484h1.62a1.531 1.531 0 1 1 0 3.06zm20.77 16.054a3.503 3.503 0 0 1-3.204-2.052 8.248 8.248 0 0 1-6.335 2.664c-5.867 0-9.035-4.824-9.035-10.187s3.24-10.15 9.035-10.15a7.955 7.955 0 0 1 5.939 2.376v-.145a1.485 1.485 0 0 1 1.512-1.619 1.447 1.447 0 0 1 1.584 1.512v13.894a.582.582 0 0 0 .504.648 1.53 1.53 0 1 1 0 3.06zm-9.54-16.666c-3.6 0-5.94 2.808-5.94 7.1 0 4.32 2.34 7.128 5.94 7.128 3.636 0 5.94-2.808 5.94-7.128 0-4.283-2.304-7.1-5.94-7.1zm14.293-5.364a2.592 2.592 0 1 1 2.592-2.592 2.581 2.581 0 0 1-2.592 2.592zm0 22.03a1.512 1.512 0 0 1-1.583-1.512v-16.054a1.52 1.52 0 0 1 1.583-1.548 1.483 1.483 0 0 1 1.512 1.548v16.054a1.452 1.452 0 0 1-1.512 1.512zm8.35.072a3.673 3.673 0 0 1-3.6-3.672v-20.48a1.548 1.548 0 0 1 3.096-.036v20.518a.569.569 0 0 0 .504.612 1.53 1.53 0 1 1 0 3.06z"/><use xlink:href="#F" x="141.329"/><use xlink:href="#G" x="141.328"/></g><g opacity=".5" fill="#fff"><path d="M40.72 957.438a6.001 6.001 0 0 1-5.096-2.827 1.044 1.044 0 0 1-.112-.448.877.877 0 0 1 .812-.84.751.751 0 0 1 .644.42 4.398 4.398 0 0 0 8.148-2.269 4.38 4.38 0 0 0-4.368-4.396h-.028a.812.812 0 0 1-.812-.812.788.788 0 0 1 .812-.783h.028a3.682 3.682 0 0 0 0-7.364c-3.052 0-3.444 2.912-4.564 2.912a.832.832 0 0 1-.84-.784c0-.616 2.128-3.724 5.404-3.724a5.294 5.294 0 0 1 5.264 5.264 5.164 5.164 0 0 1-2.408 4.424 5.846 5.846 0 0 1 3.108 5.236 5.999 5.999 0 0 1-5.992 5.991z"/><use xlink:href="#H"/><use xlink:href="#H" x="13.608"/><path d="M88.346 957.438a6.354 6.354 0 0 1-5.432-2.659v7.252a.798.798 0 1 1-1.596 0V942.88a.798.798 0 0 1 1.596 0v1.372a6.401 6.401 0 0 1 5.432-2.632c4.508 0 7.028 3.695 7.028 7.896 0 4.228-2.52 7.924-7.028 7.924zm0-14.224c-3.332 0-5.432 2.66-5.432 6.3s2.1 6.328 5.432 6.328 5.432-2.687 5.432-6.328-2.1-6.3-5.432-6.3z"/><use xlink:href="#I"/><use xlink:href="#J"/><use xlink:href="#K"/><use xlink:href="#L"/><use xlink:href="#M"/><use xlink:href="#K" x="34.299"/><path d="M166.52 957.495c-1.68 0-4.508-.588-5.488-2.212a.678.678 0 0 1-.112-.42.764.764 0 0 1 1.428-.448c1.008 1.23 2.8 1.483 4.172 1.483 2.716 0 4.088-.896 4.088-2.716 0-4.228-9.184-1.987-9.184-7.588 0-2.828 2.828-3.92 5.376-3.92a7.586 7.586 0 0 1 4.816 1.624.784.784 0 0 1 .252.532.908.908 0 0 1-.868.84.742.742 0 0 1-.532-.224 5.599 5.599 0 0 0-3.668-1.177c-2.464 0-3.78.952-3.78 2.324 0 3.92 9.184 1.85 9.184 7.588 0 3.192-2.8 4.313-5.684 4.313z"/><use xlink:href="#M" x="36.316"/><use xlink:href="#K" x="70.615"/><use xlink:href="#N"/><use xlink:href="#O"/><path d="M230.05 939.407a1.596 1.596 0 1 1 1.596-1.597 1.578 1.578 0 0 1-1.596 1.597zm0 17.556a.77.77 0 0 1-.812-.784v-13.3a.772.772 0 0 1 .812-.784.763.763 0 0 1 .784.784v13.3a.749.749 0 0 1-.784.784z"/><use xlink:href="#L" x="105.868"/><use xlink:href="#O" x="35.503"/><path d="M284.818 956.963h-.028a2.899 2.899 0 0 1-2.772-2.184 6.353 6.353 0 0 1-5.432 2.659c-4.564 0-7.028-3.752-7.028-7.924 0-4.228 2.52-7.896 7.028-7.896a6.4 6.4 0 0 1 5.432 2.632v-1.372a.789.789 0 0 1 .812-.784.765.765 0 0 1 .784.784v11.284c0 1.792 2.016.672 2.016 2.016a.77.77 0 0 1-.812.784zm-8.232-13.748c-3.304 0-5.432 2.66-5.432 6.3s2.128 6.328 5.432 6.328c3.332 0 5.432-2.687 5.432-6.328s-2.1-6.3-5.432-6.3z"/><use xlink:href="#I" x="189.472"/><use xlink:href="#J" x="189.472"/><use xlink:href="#N" x="111.803"/><path d="M337.037 956.963a.787.787 0 0 1-.812-.784v-8.176a4.788 4.788 0 1 0-9.576 0v8.176a.798.798 0 0 1-1.596 0v-13.3a.798.798 0 0 1 1.596 0v.896a6.387 6.387 0 0 1 11.172 4.228v8.176a.781.781 0 0 1-.784.784z"/><use xlink:href="#O" x="126.893"/><use xlink:href="#K" x="241.104"/><path d="M380.633 956.963a.787.787 0 0 1-.812-.784v-8.176a4.788 4.788 0 1 0-9.576 0v8.176a.798.798 0 0 1-1.596 0V937.81a.798.798 0 0 1 1.596 0v5.965a6.219 6.219 0 0 1 4.788-2.156 6.435 6.435 0 0 1 6.384 6.384v8.176a.781.781 0 0 1-.784.784z"/><use xlink:href="#L" x="256.198"/><path d="M422.968 943.13l-4.564 13.16c-.196.532-.448.672-.812.672-.476 0-.616-.168-.784-.672l-3.668-10.92-3.668 10.92c-.196.532-.448.672-.812.672a.818.818 0 0 1-.784-.672l-4.536-13.16a1.175 1.175 0 0 1-.056-.308.796.796 0 0 1 .812-.729.728.728 0 0 1 .728.532l3.836 11.088 3.668-10.948c.168-.53.336-.672.812-.672.336 0 .616.112.784.672l3.724 10.948 3.78-11.088a.727.727 0 0 1 .728-.532.758.758 0 0 1 .812 1.036z"/><use xlink:href="#J" x="319.166"/><use xlink:href="#I" x="342.35"/><path d="M450.267 957.13a2.935 2.935 0 0 1-2.772-2.968V937.81a.798.798 0 0 1 1.596 0v16.353c0 1.792 1.988.756 1.988 2.016a.903.903 0 0 1-.812.952z"/><use xlink:href="#O" x="238.975"/></g><g opacity=".2" fill="#fff"><path d="M42.328 1046.045a7.892 7.892 0 0 1-5.503-2.002 1.364 1.364 0 0 1-1.468 1.401 1.346 1.346 0 0 1-1.401-1.401v-20.88a1.435 1.435 0 0 1 2.869-.033v6.238a7.4 7.4 0 0 1 5.503-2.169c5.37 0 8.373 4.403 8.373 9.406 0 5.037-3.002 9.44-8.373 9.44zm0-16c-3.335 0-5.503 2.602-5.503 6.57 0 4.003 2.168 6.604 5.503 6.604s5.504-2.602 5.504-6.604c0-3.97-2.168-6.57-5.504-6.57zm25.555 8.037h-12.34c.467 3.136 2.468 5.137 5.403 5.137a5.003 5.003 0 0 0 3.969-1.734 1.383 1.383 0 0 1 1.034-.533 1.556 1.556 0 0 1 1.501 1.468c0 .4-.1.7-.8 1.4a8.129 8.129 0 0 1-5.704 2.235c-5.37 0-8.372-4.437-8.372-9.44 0-4.97 3.002-9.406 8.372-9.406 5.437 0 8.34 4.437 8.34 9.406a1.422 1.422 0 0 1-1.401 1.468zm-6.937-8.038c-3.136 0-4.97 2.3-5.403 5.17H66.35c-.467-3.202-2.468-5.17-5.403-5.17zM88 1045.478a3.247 3.247 0 0 1-2.969-1.901 7.642 7.642 0 0 1-5.87 2.469c-5.437 0-8.372-4.47-8.372-9.44s3.002-9.406 8.372-9.406a7.369 7.369 0 0 1 5.504 2.202v-.134a1.376 1.376 0 0 1 1.4-1.501 1.341 1.341 0 0 1 1.468 1.401v12.875a.54.54 0 0 0 .467.601 1.418 1.418 0 1 1 0 2.835zm-8.84-15.443c-3.336 0-5.504 2.602-5.504 6.57 0 4.003 2.168 6.604 5.504 6.604 3.37 0 5.504-2.602 5.504-6.604 0-3.97-2.135-6.57-5.504-6.57z"/><use xlink:href="#P"/><path d="M115.158 1045.478h-.567c-3.17 0-4.37-1.668-4.37-4.403V1030.6h-1a1.418 1.418 0 1 1-.033-2.835h1v-4.637a1.355 1.355 0 0 1 1.435-1.4 1.328 1.328 0 0 1 1.401 1.4v4.637h2.135a1.383 1.383 0 0 1 1.4 1.401 1.356 1.356 0 0 1-1.4 1.434h-2.135v10.774c0 .934.333 1.268 1.268 1.268h.833a1.376 1.376 0 0 1 1.435 1.4 1.357 1.357 0 0 1-1.4 1.435zm4.604-20.415a2.401 2.401 0 1 1 2.402-2.401 2.392 2.392 0 0 1-2.402 2.401zm0 20.414a1.4 1.4 0 0 1-1.467-1.401V1029.2a1.408 1.408 0 0 1 1.467-1.435 1.374 1.374 0 0 1 1.401 1.435v14.876a1.346 1.346 0 0 1-1.401 1.401zm10.376-14.877h-1.5v13.442a1.364 1.364 0 0 1-1.468 1.401 1.346 1.346 0 0 1-1.401-1.401V1030.6h-1.37a1.418 1.418 0 0 1 0-2.835h1.367v-2.27a3.801 3.801 0 0 1 3.836-3.769 1.418 1.418 0 1 1 0 2.835.934.934 0 0 0-.967.9v2.302h1.5a1.418 1.418 0 1 1 0 2.835z"/><use xlink:href="#P" x="42.068"/><path d="M154.725 1045.544a3.403 3.403 0 0 1-3.336-3.402v-18.98a1.435 1.435 0 0 1 2.869-.033v19.013a.527.527 0 0 0 .467.567 1.418 1.418 0 1 1 0 2.835zm15.37-.066v-1.264c1.886-.237 2.046-.437 2.046-3.157v-6.7c0-2.8-1.248-4.017-3.064-4.017a5.597 5.597 0 0 0-3.47 1.493v9.476c0 2.527.187 2.658 2.06 2.896v1.264h-8.968v-1.264c2.254-.33 2.5-.4 2.5-3v-8.2c0-2.446-.303-2.565-2.185-2.922v-1.184a34.101 34.101 0 0 0 6.653-1.533l-.052 2.95 2.6-1.745a5.659 5.659 0 0 1 3.159-1.086c3.194 0 5.2 2.338 5.2 6.3v7.5c0 2.54.237 2.657 2.277 2.92v1.264zm23.9-3.703c-2.458 3.427-5.488 4.178-7.014 4.178-5.142 0-8.124-3.936-8.124-8.594a10.333 10.333 0 0 1 2.832-7.062 8.602 8.602 0 0 1 6.082-2.814 6.386 6.386 0 0 1 6.37 6.347c-.014.715-.08 1.277-.612 1.4-.767.184-6.17.5-10.318.647.062 4.587 2.717 6.74 5.556 6.74a6.776 6.776 0 0 0 4.543-1.866zm-7.07-12.7c-1.667 0-3.167 1.807-3.516 4.963l5.486-.118c.6-.026.848-.146.848-.792.04-2.022-1.037-4.053-2.818-4.053zm34.284.145c-1.943.343-2.248.624-3.105 2.765-1.33 3.462-3.102 8.53-4.934 13.94h-1.512l-4.65-11.46-4.55 11.46h-1.472l-4.685-14.192c-.687-1.985-.94-2.274-2.855-2.512v-1.25h9.397v1.25c-2.325.345-2.535.672-2.058 2.133l2.52 8.214c1.507-3.68 2.988-7.62 4.327-11.424h1.456c1.4 3.76 2.986 7.702 4.573 11.568.742-2.107 2.062-5.964 2.557-8.108.412-1.674-.008-2.078-2.753-2.383v-1.25h7.742zm9.4 3.746c-.92-2.606-2.155-3.984-4.2-3.984a2.166 2.166 0 0 0-2.225 2.266c0 1.497 1.046 2.264 3.16 3.216 3.278 1.496 5.3 2.787 5.3 5.736 0 3.85-3.6 5.764-6.945 5.764a12.073 12.073 0 0 1-4.92-1.161l-.662-4.892 1.252-.224c.8 2.5 2.33 4.75 4.976 4.75a2.231 2.231 0 0 0 2.438-2.281c0-1.423-.76-2.333-3.092-3.467-2.67-1.295-5.107-2.64-5.107-5.775 0-3.046 2.533-5.42 6.565-5.42a18.751 18.751 0 0 1 4.112.567l.62 4.577z"/></g><g opacity=".5" fill="#fff"><use xlink:href="#Q"/><use xlink:href="#R"/><use xlink:href="#S"/><use xlink:href="#T"/><use xlink:href="#U"/><use xlink:href="#V"/><path d="M387.31 1039.416a1.14 1.14 0 1 1 0-2.279 1.14 1.14 0 0 1 0 2.279zm0 6.563a1.141 1.141 0 1 1 0-2.281 1.141 1.141 0 0 1 0 2.281z"/><use xlink:href="#W"/><use xlink:href="#R" x="75.67"/><use xlink:href="#X"/><path d="M440.83 1036.137l-3.94 9.38c-.12.26-.3.46-.56.46a.682.682 0 0 1-.58-.461l-3.94-9.36a.633.633 0 0 1-.04-.26.56.56 0 0 1 .58-.541.513.513 0 0 1 .5.34l3.48 8.223 3.46-8.223a.57.57 0 0 1 1.1.18.489.489 0 0 1-.06.262z"/><use xlink:href="#Y"/><use xlink:href="#R" x="113.54"/><use xlink:href="#Z"/><use xlink:href="#V" x="88.84"/><use xlink:href="#X" x="54.218"/><use xlink:href="#a"/><use xlink:href="#b"/><use xlink:href="#X" x="89.778"/><use xlink:href="#c"/><path d="M548.867 1032.475l-4.44 13.123a.563.563 0 0 1-.521.381.583.583 0 0 1-.56-.381l-4.44-13.123a.861.861 0 0 1-.04-.219.569.569 0 0 1 .58-.521.521.521 0 0 1 .521.381l3.9 11.52 3.92-11.52a.579.579 0 0 1 1.12.141.821.821 0 0 1-.04.219z"/><use xlink:href="#Y" x="107.997"/><use xlink:href="#R" x="221.537"/><use xlink:href="#Z" x="107.998"/><path d="M580.168 1041.236h-8.302c.18 2.28 1.66 3.94 3.84 3.94a3.615 3.615 0 0 0 2.94-1.381.526.526 0 0 1 .48-.279.611.611 0 0 1 .62.541c0 .18 0 .22-.38.658a4.718 4.718 0 0 1-3.66 1.602c-3.22 0-5.02-2.64-5.02-5.662 0-3 1.8-5.64 5.02-5.64s5.02 2.66 5.02 5.64a.605.605 0 0 1-.56.58zm-4.46-5.08c-2.4 0-3.66 1.84-3.84 3.94h7.7c-.18-2.28-1.66-3.94-3.86-3.94z"/><use xlink:href="#X" x="162.216"/><use xlink:href="#a" x="107.997"/><use xlink:href="#d"/><use xlink:href="#b" x="120.216"/><use xlink:href="#e"/><path d="M652.165 1046.318a4.54 4.54 0 0 1-3.881-1.9v5.182a.57.57 0 1 1-1.141 0v-13.684a.57.57 0 0 1 1.141 0v.98a4.574 4.574 0 0 1 3.881-1.881c3.22 0 5.02 2.64 5.02 5.64 0 3.022-1.8 5.662-5.02 5.662zm0-10.162c-2.38 0-3.88 1.9-3.88 4.5s1.5 4.52 3.88 4.52 3.88-1.92 3.88-4.52-1.5-4.5-3.88-4.5z"/><use xlink:href="#b" x="161.735"/><use xlink:href="#Y" x="229.575"/><path d="M680.945 1050.54c-1.7 0-4.102-.64-4.102-1.36a.636.636 0 0 1 .58-.641 7.13 7.13 0 0 1 1.061.48 7.513 7.513 0 0 0 2.461.379c2.56 0 3.88-1.26 3.88-3.72v-1.4a4.773 4.773 0 0 1-3.88 1.701c-3.16 0-5.02-2.24-5.02-5.322 0-3 1.8-5.64 5.02-5.64a4.572 4.572 0 0 1 3.88 1.881v-.96a.57.57 0 0 1 1.141 0v9.742c0 3.182-1.9 4.86-5.02 4.86zm0-14.383c-2.36 0-3.88 1.9-3.88 4.5 0 2.582 1.42 4.182 3.88 4.182s3.88-1.6 3.88-4.182c0-2.6-1.5-4.5-3.88-4.5z"/><use xlink:href="#X" x="267.915"/><use xlink:href="#Q" x="376.823"/><use xlink:href="#b" x="217.155"/><use xlink:href="#X" x="306.934"/><use xlink:href="#c" x="217.155"/><use xlink:href="#f"/><use xlink:href="#S" x="425.494"/><use xlink:href="#a" x="295.616"/><use xlink:href="#U" x="424.933"/><use xlink:href="#R" x="465.973"/><use xlink:href="#e" x="180.318"/><use xlink:href="#V" x="453.154"/><use xlink:href="#Q" x="515.662"/><path d="M857.38 1048.64a.749.749 0 0 1-.319-.1c-2.64-1.94-3.58-5.502-3.58-8.623 0-2.6.96-6.94 3.6-8.44a.904.904 0 0 1 .3-.1.596.596 0 0 1 .54.619c0 .44-.08.24-.7.8-1.94 1.74-2.6 4.602-2.6 7.12 0 2.32.8 6.223 3.04 7.662a.563.563 0 0 1-.28 1.061z"/><use xlink:href="#W" x="464.373"/><path d="M883.603 1045.98a.585.585 0 0 1-.521-.34l-1.28-3.082h-7.2l-1.28 3.082a.564.564 0 0 1-1.081-.201.589.589 0 0 1 .04-.26l5.4-13.104a.632.632 0 0 1 .58-.379.516.516 0 0 1 .48.379l5.4 13.104a.589.589 0 0 1 .04.26.56.56 0 0 1-.58.541zm-5.4-12.184l-3.14 7.623h6.3zm15.677-1.32l-4.44 13.123a.563.563 0 0 1-.521.381.583.583 0 0 1-.56-.381l-4.44-13.123a.862.862 0 0 1-.04-.219.57.57 0 0 1 .58-.521.521.521 0 0 1 .521.381l3.9 11.52 3.92-11.52a.579.579 0 0 1 1.12.141.821.821 0 0 1-.04.219z"/><use xlink:href="#d" x="290.014"/><use xlink:href="#f" x="151.136"/><path d="M922.418 1048.54a.683.683 0 0 1-.32.1.59.59 0 0 1-.561-.58.542.542 0 0 1 .261-.48c2.26-1.48 3.02-5.32 3.02-7.662 0-2.64-.7-5.86-3-7.44a.64.64 0 0 1-.3-.48.63.63 0 0 1 .58-.619.807.807 0 0 1 .28.1c2.64 1.48 3.58 5.842 3.58 8.44 0 3.12-.92 6.662-3.54 8.623zm15.96-2.56h-4.44a.607.607 0 0 1-.58-.561v-13.123a.59.59 0 0 1 .58-.561h4.44c4.12 0 5.48 3.44 5.48 7.102 0 3.72-1.36 7.143-5.48 7.143zm0-13.123h-3.88v11.982h3.88c3.42 0 4.34-2.96 4.34-5.98 0-3.563-1.24-6.002-4.34-6.002z"/><use xlink:href="#b" x="448.53"/><use xlink:href="#a" x="472.31"/><use xlink:href="#b" x="467.41"/><path d="M988.977 1039.816h-4.86v5.602a.57.57 0 0 1-1.141 0v-13.123a.59.59 0 0 1 .58-.561h5.4a4.041 4.041 0 1 1 .02 8.082zm0-6.96h-4.86v5.82h4.84a2.91 2.91 0 1 0 .02-5.82z"/><use xlink:href="#T" x="638.727"/><use xlink:href="#R" x="669.067"/><path d="M1013.155 1050.22a.455.455 0 0 1-.22.041.594.594 0 0 1-.58-.58.586.586 0 0 1 .38-.541 2.393 2.393 0 0 0 1.541-2.32v-10.902a.551.551 0 0 1 .58-.561.545.545 0 0 1 .56.561v10.902a3.554 3.554 0 0 1-2.261 3.4zm1.7-16.783a1.141 1.141 0 1 1 0-2.281 1.141 1.141 0 0 1 0 2.281z"/><use xlink:href="#V" x="643.948"/><use xlink:href="#U" x="666.607"/><use xlink:href="#a" x="554.028"/></g><g fill="#fff"><path d="M75.94 133.378H43.135v37.798a3.848 3.848 0 0 1-7.694 0V82.62a3.984 3.984 0 0 1 3.915-3.78h36.45a27.269 27.269 0 1 1 .135 54.538zm0-46.98H43.135v39.283h32.67a19.642 19.642 0 0 0 .135-39.283z"/><use xlink:href="#g"/><use xlink:href="#h"/><use xlink:href="#i"/><path d="M321.5 142.962h-56.022c1.215 15.4 11.204 26.595 25.92 26.595 7.3 0 15.93-3.24 19.844-9.315a3.543 3.543 0 0 1 3.24-1.89c2.025 0 4.185 1.62 4.185 3.646 0 1.215 0 1.484-2.565 4.454-6.21 7.3-15.254 10.8-24.704 10.8-21.734 0-33.884-17.82-33.884-38.203 0-20.25 12.15-38.068 33.884-38.068s33.883 17.954 33.883 38.068a4.086 4.086 0 0 1-3.78 3.914zm-30.104-34.288c-16.2 0-24.704 12.42-25.92 26.594h51.973c-1.215-15.4-11.205-26.594-26.054-26.594z"/><use xlink:href="#j"/><use xlink:href="#i" x="170.773"/><use xlink:href="#j" x="104.893"/><path d="M96.323 281.962H40.3c1.215 15.4 11.204 26.595 25.92 26.595 7.3 0 15.93-3.24 19.844-9.315a3.543 3.543 0 0 1 3.24-1.89c2.025 0 4.185 1.62 4.185 3.646 0 1.215 0 1.484-2.565 4.454-6.21 7.3-15.254 10.8-24.704 10.8-21.734 0-33.884-17.82-33.884-38.203 0-20.25 12.15-38.068 33.884-38.068s33.883 17.954 33.883 38.068a4.086 4.086 0 0 1-3.78 3.914zM66.22 247.674c-16.2 0-24.704 12.42-25.92 26.594h51.973c-1.215-15.4-11.205-26.594-26.054-26.594z"/><use xlink:href="#k"/><use xlink:href="#l"/><use xlink:href="#m"/><use xlink:href="#l" x="157.004"/><path d="M420.186 229.314a7.695 7.695 0 1 1 7.695-7.694 7.606 7.606 0 0 1-7.695 7.694zm0 84.642a3.711 3.711 0 0 1-3.915-3.78v-64.122a3.718 3.718 0 0 1 3.915-3.779 3.677 3.677 0 0 1 3.78 3.779v64.122a3.611 3.611 0 0 1-3.78 3.78z"/><use xlink:href="#k" x="326.967"/><use xlink:href="#l" x="326.968"/></g><g fill="#44ff30"><path d="M633.887 316.25a28.935 28.935 0 0 1-24.569-13.635 5.038 5.038 0 0 1-.539-2.159 4.231 4.231 0 0 1 3.914-4.05 3.624 3.624 0 0 1 3.105 2.024 21.204 21.204 0 0 0 39.283-10.935 21.116 21.116 0 0 0-21.06-21.194h-.135a3.917 3.917 0 0 1-3.915-3.915 3.801 3.801 0 0 1 3.915-3.779h.135a17.752 17.752 0 0 0 0-35.504c-14.714 0-16.604 14.04-22.004 14.04a4.011 4.011 0 0 1-4.05-3.78c0-2.97 10.26-17.954 26.054-17.954a25.524 25.524 0 0 1 25.379 25.379 24.901 24.901 0 0 1-11.609 21.329 28.185 28.185 0 0 1 14.984 25.244 28.921 28.921 0 0 1-28.889 28.889zm45.9-2.294a7.695 7.695 0 1 1 7.694-7.694 7.606 7.606 0 0 1-7.694 7.694zm44.007 1.35c-9.045 0-19.304-4.86-24.3-12.824a3.648 3.648 0 0 1-.675-2.16 4.127 4.127 0 0 1 4.05-3.914c2.024 0 2.16 1.08 4.185 3.24a21.245 21.245 0 0 0 16.739 7.965c11.88 0 22.544-10.26 22.544-24.434 0-14.3-10.664-24.57-22.544-24.57a21.815 21.815 0 0 0-17.819 9.585 3.869 3.869 0 0 1-3.645 1.89 3.723 3.723 0 0 1-3.915-4.05V221.62a3.69 3.69 0 0 1 3.78-3.78h45.088a3.789 3.789 0 1 1 0 7.56H706.1V257a27.33 27.33 0 0 1 17.685-6.074c16.604 0 30.24 14.04 30.24 32.264 0 17.954-13.635 32.128-30.24 32.128zm51.674-70.716c-6.848 0-12.436-6.218-12.436-13.853s5.588-13.773 12.436-13.773c6.77 0 12.356 6.14 12.356 13.773s-5.588 13.853-12.356 13.853zm0-23.22c-3.936 0-7.95 3.7-7.95 9.366s4.015 9.366 7.95 9.366 7.87-3.7 7.87-9.366-3.936-9.366-7.87-9.366zm29.75-2.9l-15.032 54.306c-.394 1.103-1.023 1.653-1.968 1.653a2.421 2.421 0 0 1-2.44-2.283 1.525 1.525 0 0 1 .079-.629L800.9 217.2a2.128 2.128 0 0 1 2.047-1.731 2.476 2.476 0 0 1 2.361 2.361 2.209 2.209 0 0 1-.079.63zm9.76 54.542c-6.77 0-12.356-6.218-12.356-13.852 0-7.557 5.588-13.773 12.356-13.773 6.847 0 12.436 6.217 12.436 13.773 0 7.634-5.6 13.852-12.436 13.852zm0-23.14c-3.936 0-7.87 3.7-7.87 9.288 0 5.666 3.936 9.365 7.87 9.365 4.014 0 7.95-3.7 7.95-9.365 0-5.6-3.936-9.288-7.95-9.288z"/><use xlink:href="#h" x="-114.478" y="278"/><path d="M136.822 364.4h-4.185a5.967 5.967 0 0 0-5.94 5.805v11.07h10.125a3.677 3.677 0 0 1 3.78 3.779 3.795 3.795 0 0 1-3.78 3.915h-10.125v60.207a3.685 3.685 0 0 1-3.78 3.78 3.605 3.605 0 0 1-3.78-3.78V388.97h-9.314a3.848 3.848 0 0 1 0-7.694h9.314v-11.07a13.395 13.395 0 0 1 13.364-13.364h4.32a3.831 3.831 0 0 1 3.915 3.915 3.619 3.619 0 0 1-3.915 3.645zm106.916 88.556h-.135c-4.455 0-10.8-2.43-13.365-10.53-5.67 7.965-14.444 12.824-26.188 12.824-22.004 0-33.884-18.1-33.884-38.203 0-20.385 12.15-38.068 33.884-38.068 11.744 0 20.52 4.86 26.188 12.7v-6.615a3.804 3.804 0 0 1 3.915-3.779 3.684 3.684 0 0 1 3.78 3.779v54.403c0 8.64 9.72 3.24 9.72 9.72a3.713 3.713 0 0 1-3.915 3.78zm-39.688-66.282c-15.93 0-26.2 12.824-26.2 30.374s10.26 30.5 26.2 30.5c16.064 0 26.188-12.96 26.188-30.5s-10.124-30.374-26.188-30.374z"/><use xlink:href="#n"/><use xlink:href="#h" x="203.978" y="278"/><use xlink:href="#n" x="151.063"/><path d="M564.223 452.956a3.794 3.794 0 0 1-3.915-3.78v-4.32a29.987 29.987 0 0 1-23.084 10.395 31.117 31.117 0 0 1-30.779-30.778v-39.42a3.848 3.848 0 0 1 7.695 0v39.42a23.084 23.084 0 0 0 46.168 0v-39.42a3.848 3.848 0 0 1 7.695 0v64.122a3.763 3.763 0 0 1-3.78 3.78zm29.567.8c-7.3 0-13.364-6.75-13.364-14.3V360.62a3.848 3.848 0 0 1 7.694 0v78.837c0 8.64 9.584 3.645 9.584 9.72 0 2.295-1.62 4.6-3.915 4.6z"/><use xlink:href="#o"/><path d="M707.86 452.956h-4.185c-10.664 0-15.93-5.265-15.93-15.794V388.97h-6.885a3.848 3.848 0 0 1 0-7.694h6.885V360.62a3.794 3.794 0 0 1 3.914-3.78 3.685 3.685 0 0 1 3.78 3.78v20.654h12.42a3.848 3.848 0 0 1 0 7.694h-12.42v48.193c0 6.614 1.9 8.1 8.234 8.1h4.185a3.848 3.848 0 0 1 0 7.694zm13.24-84.642a7.695 7.695 0 1 1 7.695-7.694 7.607 7.607 0 0 1-7.695 7.694zm0 84.642a3.71 3.71 0 0 1-3.914-3.78v-64.122a3.718 3.718 0 0 1 3.914-3.779 3.677 3.677 0 0 1 3.78 3.779v64.122a3.611 3.611 0 0 1-3.78 3.78zm46.97 2.294c-21.734 0-33.884-17.82-33.884-38.203 0-20.25 12.15-38.068 33.884-38.068s33.884 17.818 33.884 38.068c0 20.384-12.15 38.203-33.884 38.203zm0-68.577c-15.93 0-26.2 12.824-26.2 30.374s10.26 30.5 26.2 30.5c16.064 0 26.188-12.96 26.188-30.5s-10.124-30.374-26.188-30.374zm100.976 66.283a3.794 3.794 0 0 1-3.915-3.78v-39.418a23.084 23.084 0 0 0-46.168 0v39.418a3.848 3.848 0 0 1-7.695 0v-64.122a3.848 3.848 0 0 1 7.695 0v4.32a30.794 30.794 0 0 1 53.862 20.384v39.418a3.763 3.763 0 0 1-3.779 3.78z"/></g><g fill="#fff"><path d="M95.918 525.54l-26.594 63.313c-.8 1.755-2.025 3.104-3.78 3.104s-3.105-1.35-3.915-3.104l-26.594-63.178a4.296 4.296 0 0 1-.27-1.755 3.776 3.776 0 0 1 3.915-3.645 3.467 3.467 0 0 1 3.375 2.295l23.5 55.482L88.9 522.57a3.85 3.85 0 0 1 7.424 1.215 3.235 3.235 0 0 1-.405 1.755zm67.634 34.422H107.53c1.215 15.4 11.204 26.595 25.92 26.595 7.3 0 15.93-3.24 19.844-9.315a3.543 3.543 0 0 1 3.24-1.89c2.025 0 4.185 1.62 4.185 3.646 0 1.215 0 1.484-2.565 4.454-6.2 7.3-15.254 10.8-24.704 10.8-21.734 0-33.884-17.82-33.884-38.203 0-20.25 12.15-38.068 33.884-38.068s33.883 17.954 33.883 38.068a4.086 4.086 0 0 1-3.78 3.914zm-30.104-34.288c-16.2 0-24.704 12.42-25.92 26.594H159.5c-1.215-15.4-11.205-26.594-26.054-26.594z"/><use xlink:href="#g" x="61.826" y="417"/><path d="M283.43 525.674l-36.583 86.53c-2.7 6.345-8.235 8.1-14.445 8.1h-5.94a3.848 3.848 0 0 1 0-7.694h5.94c2.97 0 6.075-.135 7.3-3.24l7.695-18.36-27.944-65.337a4.289 4.289 0 0 1-.27-1.755 3.776 3.776 0 0 1 3.915-3.645 3.467 3.467 0 0 1 3.375 2.295l25.11 58.587 24.84-58.587a3.52 3.52 0 0 1 3.51-2.295 3.659 3.659 0 0 1 3.78 3.645 4.289 4.289 0 0 1-.27 1.755z"/><use xlink:href="#g" x="201.684" y="417"/><use xlink:href="#m" x="91.905" y="278"/><use xlink:href="#g" x="316.27" y="417"/><path d="M526.643 559.962H470.62c1.215 15.4 11.204 26.595 25.92 26.595 7.3 0 15.93-3.24 19.844-9.315a3.543 3.543 0 0 1 3.24-1.89c2.025 0 4.185 1.62 4.185 3.646 0 1.215 0 1.484-2.565 4.454-6.2 7.3-15.254 10.8-24.704 10.8-21.734 0-33.884-17.82-33.884-38.203 0-20.25 12.15-38.068 33.884-38.068s33.883 17.954 33.883 38.068a4.086 4.086 0 0 1-3.78 3.914zm-30.104-34.288c-16.2 0-24.704 12.42-25.92 26.594h51.973c-1.215-15.4-11.205-26.594-26.054-26.594zm56.564 67.092c-7.3 0-13.364-6.75-13.364-14.3V499.62a3.848 3.848 0 0 1 7.694 0v78.837c0 8.64 9.585 3.645 9.585 9.72 0 2.295-1.62 4.6-3.915 4.6zm67.63-67.092l-36.583 86.53c-2.7 6.345-8.235 8.1-14.444 8.1h-5.94a3.848 3.848 0 0 1 0-7.694h5.94c2.97 0 6.075-.135 7.3-3.24l7.695-18.36-27.944-65.337a4.296 4.296 0 0 1-.27-1.755 3.776 3.776 0 0 1 3.915-3.645 3.467 3.467 0 0 1 3.375 2.295l25.1 58.587 24.84-58.587a3.52 3.52 0 0 1 3.51-2.295 3.659 3.659 0 0 1 3.78 3.645 4.282 4.282 0 0 1-.271 1.755zm57.78-22.274h-4.185a5.967 5.967 0 0 0-5.939 5.805v11.07h10.124a3.677 3.677 0 0 1 3.78 3.779 3.794 3.794 0 0 1-3.78 3.915H668.4v60.207a3.685 3.685 0 0 1-3.78 3.78 3.605 3.605 0 0 1-3.779-3.78V527.97h-9.314a3.848 3.848 0 0 1 0-7.694h9.314v-11.07a13.394 13.394 0 0 1 13.364-13.364h4.32a3.83 3.83 0 0 1 3.915 3.915 3.619 3.619 0 0 1-3.915 3.645z"/><use xlink:href="#o" x="85.4" y="139"/><path d="M772.472 507.314a7.695 7.695 0 1 1 7.694-7.694 7.606 7.606 0 0 1-7.694 7.694zm0 84.642a3.711 3.711 0 0 1-3.915-3.78v-64.122a3.718 3.718 0 0 1 3.915-3.779 3.677 3.677 0 0 1 3.78 3.779v64.122a3.611 3.611 0 0 1-3.78 3.78zm29.566.8c-7.3 0-13.365-6.75-13.365-14.3V499.62a3.848 3.848 0 0 1 7.695 0v78.837c0 8.64 9.584 3.645 9.584 9.72 0 2.295-1.62 4.6-3.914 4.6z"/></g></svg>