<svg xmlns="http://www.w3.org/2000/svg" xmlns:xlink="http://www.w3.org/1999/xlink" viewBox="0 0 1080 1080"><linearGradient id="A" gradientUnits="userSpaceOnUse" x1="11.716" y1="11.716" x2="1068.284" y2="1068.284"><stop offset="0" stop-color="#0b486b"/><stop offset=".103" stop-color="#2b4c60"/><stop offset=".35" stop-color="#725346"/><stop offset=".571" stop-color="#aa5a32"/><stop offset=".76" stop-color="#d35e23"/><stop offset=".91" stop-color="#ec611a"/><stop offset="1" stop-color="#f56217"/></linearGradient><path d="M1040 1080H40c-22.09 0-40-17.91-40-40V40C0 17.91 17.91 0 40 0h1000c22.09 0 40 17.91 40 40v1000c0 22.09-17.91 40-40 40z" fill="url(#A)"/><g opacity=".3" fill="#fff"><path d="M42.328 1046.045c-3.568 0-5.47-1.97-5.503-2.002 0 .935-.7 1.4-1.468 1.4-.7 0-1.4-.467-1.4-1.4v-20.88a1.35 1.35 0 0 1 1.401-1.434c.767 0 1.468.467 1.468 1.4v6.238c1.334-1.368 3.168-2.17 5.503-2.17 5.37 0 8.373 4.403 8.373 9.406 0 5.037-3.002 9.44-8.373 9.44zm0-16c-3.335 0-5.503 2.602-5.503 6.57 0 4.003 2.168 6.604 5.503 6.604s5.504-2.602 5.504-6.604c0-3.97-2.168-6.57-5.504-6.57zm25.555 8.037h-12.34c.467 3.136 2.468 5.137 5.403 5.137 1.5 0 3.002-.533 3.97-1.734.3-.333.634-.533 1.034-.533.734 0 1.5.667 1.5 1.468 0 .4-.1.7-.8 1.4-1.5 1.468-3.57 2.235-5.704 2.235-5.37 0-8.372-4.437-8.372-9.44 0-4.97 3.002-9.406 8.372-9.406 5.437 0 8.34 4.437 8.34 9.406 0 .734-.534 1.468-1.4 1.468zm-6.937-8.038c-3.136 0-4.97 2.3-5.403 5.17H66.35c-.467-3.202-2.468-5.17-5.403-5.17zM88 1045.478c-1.834 0-2.668-1.3-2.97-1.9-1.334 1.468-3.27 2.47-5.87 2.47-5.437 0-8.372-4.47-8.372-9.44s3.002-9.406 8.372-9.406c2.335 0 4.203.834 5.504 2.202v-.134c0-.367.133-1.5 1.4-1.5.7 0 1.468.367 1.468 1.4v12.875c0 .434.3.6.467.6.935 0 1.435.667 1.435 1.434a1.37 1.37 0 0 1-1.435 1.401zm-8.84-15.443c-3.336 0-5.504 2.602-5.504 6.57 0 4.003 2.168 6.604 5.504 6.604 3.37 0 5.504-2.602 5.504-6.604 0-3.97-2.135-6.57-5.504-6.57z"/><use xlink:href="#D"/><path d="M115.158 1045.478h-.567c-3.17 0-4.37-1.668-4.37-4.403V1030.6h-1c-.8 0-1.435-.634-1.435-1.4 0-.8.634-1.435 1.4-1.435h1v-4.637c0-.934.7-1.4 1.435-1.4s1.4.467 1.4 1.4v4.637h2.135c.934 0 1.4.768 1.4 1.4 0 .8-.533 1.434-1.4 1.434h-2.135v10.774c0 .934.333 1.268 1.268 1.268h.833c.868 0 1.435.634 1.435 1.4 0 .8-.533 1.435-1.4 1.435zm4.604-20.415a2.402 2.402 0 1 1 0-4.803 2.402 2.402 0 1 1 0 4.803zm0 20.414c-.733 0-1.467-.5-1.467-1.4V1029.2c0-.935.733-1.435 1.467-1.435a1.37 1.37 0 0 1 1.401 1.435v14.876c0 .935-.7 1.4-1.4 1.4zm10.376-14.877h-1.5v13.442c0 .935-.7 1.4-1.468 1.4-.7 0-1.4-.467-1.4-1.4V1030.6h-1.37c-.9 0-1.4-.667-1.4-1.4 0-.768.5-1.435 1.4-1.435h1.367v-2.27c0-2.135 1.77-3.77 3.836-3.77.968 0 1.468.667 1.468 1.434 0 .7-.5 1.4-1.468 1.4-.566 0-.967.434-.967.9v2.302h1.5c.967 0 1.468.667 1.468 1.435 0 .733-.5 1.4-1.468 1.4z"/><use xlink:href="#D" x="42.068"/><path d="M154.725 1045.544c-1.802 0-3.336-1.534-3.336-3.402v-18.98c0-.967.7-1.434 1.435-1.434s1.435.467 1.435 1.4v19.013c0 .4.3.567.467.567.934 0 1.435.667 1.435 1.435 0 .733-.5 1.4-1.435 1.4zm15.37-.066v-1.264c1.886-.237 2.046-.437 2.046-3.157v-6.7c0-2.8-1.248-4.017-3.064-4.017-1.237 0-2.345.6-3.47 1.493v9.476c0 2.527.187 2.658 2.06 2.896v1.264h-8.968v-1.264c2.254-.33 2.5-.4 2.5-3v-8.2c0-2.446-.303-2.565-2.185-2.922v-1.184c2.173-.292 4.63-.807 6.653-1.533l-.052 2.95 2.6-1.745c1.16-.713 2-1.086 3.16-1.086 3.194 0 5.2 2.338 5.2 6.3v7.5c0 2.54.237 2.657 2.277 2.92v1.264h-8.74zm23.9-3.703c-2.458 3.427-5.488 4.178-7.014 4.178-5.142 0-8.124-3.936-8.124-8.594 0-2.745 1.183-5.396 2.832-7.062 1.74-1.8 3.945-2.814 6.082-2.814 3.73 0 6.396 3.126 6.37 6.347-.014.715-.08 1.277-.612 1.4-.767.184-6.17.5-10.318.647.062 4.587 2.717 6.74 5.556 6.74 1.572 0 3.104-.597 4.543-1.866l.686 1.014zm-7.07-12.7c-1.667 0-3.167 1.807-3.516 4.963l5.486-.118c.6-.026.848-.146.848-.792.04-2.022-1.037-4.053-2.818-4.053zm34.284.145c-1.943.343-2.248.624-3.105 2.765-1.33 3.462-3.102 8.53-4.934 13.94h-1.512l-4.65-11.46-4.55 11.46h-1.472l-4.685-14.192c-.687-1.985-.94-2.274-2.855-2.512v-1.25h9.397v1.25c-2.325.345-2.535.672-2.058 2.133l2.52 8.214c1.507-3.68 2.988-7.62 4.327-11.424h1.456c1.4 3.76 2.986 7.702 4.573 11.568.742-2.107 2.062-5.964 2.557-8.108.412-1.674-.008-2.078-2.753-2.383v-1.25h7.742v1.25zm9.4 3.746c-.92-2.606-2.155-3.984-4.2-3.984-1.206 0-2.225.86-2.225 2.266 0 1.497 1.046 2.264 3.16 3.216 3.278 1.496 5.3 2.787 5.3 5.736 0 3.85-3.6 5.764-6.945 5.764-2.06 0-4.088-.737-4.92-1.16l-.662-4.892 1.252-.224c.8 2.5 2.33 4.75 4.976 4.75 1.505 0 2.438-.952 2.438-2.28 0-1.423-.76-2.333-3.092-3.467-2.67-1.295-5.107-2.64-5.107-5.775 0-3.046 2.533-5.42 6.565-5.42 1.818 0 3.242.396 4.112.567l.62 4.577-1.25.328z"/></g><g opacity=".7" fill="#fff"><use xlink:href="#E"/><use xlink:href="#F"/><use xlink:href="#G"/><use xlink:href="#H"/><path d="M657.51 1044.797c-.88.98-2.1 1.52-3.58 1.52-3.22 0-5.02-2.64-5.02-5.662 0-3 1.8-5.64 5.02-5.64 1.48 0 2.7.54 3.58 1.52.12.12.16.262.16.38 0 .3-.28.6-.58.6-.14 0-.28-.06-.42-.2-.66-.74-1.58-1.16-2.74-1.16-2.36 0-3.88 1.9-3.88 4.5s1.52 4.52 3.88 4.52c1.16 0 2.08-.44 2.74-1.16.14-.14.28-.2.42-.2.3 0 .58.26.58.58 0 .14-.04.26-.16.398z"/><use xlink:href="#I"/><use xlink:href="#E" x="62.5"/><path d="M682.568 1039.416c-.64 0-1.16-.5-1.16-1.14s.52-1.14 1.16-1.14c.62 0 1.12.5 1.12 1.14s-.5 1.14-1.12 1.14zm0 6.563c-.64 0-1.16-.5-1.16-1.14s.52-1.14 1.16-1.14c.62 0 1.12.5 1.12 1.14s-.5 1.14-1.12 1.14zm18.202-13.124h-8.32v4.92h6.1a.55.55 0 0 1 .58.561c0 .28-.2.58-.56.58h-6.12v6.502c0 .36-.3.56-.56.56-.28 0-.58-.2-.58-.56v-13.123c0-.3.28-.56.58-.56h8.882a.55.55 0 0 1 .58.561.55.55 0 0 1-.58.561z"/><use xlink:href="#F" x="82.308"/><use xlink:href="#H" x="70.538"/><path d="M724.928 1046.318c-1.74 0-3.04-.72-3.88-1.9v1c0 .36-.3.56-.56.56-.28 0-.58-.2-.58-.56v-13.123c0-.36.3-.56.58-.56.26 0 .56.2.56.56v4.602c.84-1.16 2.14-1.88 3.88-1.88 3.22 0 5.02 2.64 5.02 5.64 0 3.02-1.8 5.662-5.02 5.662zm0-10.162c-2.38 0-3.88 1.9-3.88 4.5s1.5 4.52 3.88 4.52 3.88-1.92 3.88-4.52-1.5-4.5-3.88-4.5z"/><use xlink:href="#I" x="72.248"/><use xlink:href="#E" x="134.756"/><use xlink:href="#J"/><use xlink:href="#K"/><use xlink:href="#F" x="161.026"/><use xlink:href="#H" x="149.256"/><use xlink:href="#L"/><path d="M812.028 1045.98c-.28 0-.58-.2-.58-.56v-1c-.84 1.18-2.14 1.9-3.88 1.9-3.22 0-5.02-2.64-5.02-5.662 0-3 1.8-5.64 5.02-5.64 1.74 0 3.04.72 3.88 1.88v-4.602c0-.36.3-.56.58-.56.26 0 .56.2.56.56v13.123c0 .36-.3.56-.56.56zm-4.46-9.822c-2.36 0-3.88 1.9-3.88 4.5s1.52 4.52 3.88 4.52c2.38 0 3.88-1.92 3.88-4.52s-1.5-4.5-3.88-4.5zm19.138 9.822h-5.802a.61.61 0 0 1-.58-.561v-13.123c0-.34.18-.56.52-.56h5.42c1.98 0 3.6 1.64 3.6 3.56 0 1.182-.52 2.2-1.42 2.86a4.06 4.06 0 0 1 2.38 3.721c0 2.28-1.84 4.102-4.12 4.102zm-.44-13.123h-4.8v4.92h4.8c1.62 0 2.46-1.44 2.46-2.44 0-1.38-1.12-2.48-2.46-2.48zm.44 6.06h-5.24v5.922h5.24c1.64 0 2.98-1.32 2.98-2.96s-1.34-2.96-2.98-2.96z"/><use xlink:href="#M"/><path d="M854.606 1045.98c-.28 0-.58-.2-.58-.56v-5.842c0-1.9-1.52-3.42-3.42-3.42a3.42 3.42 0 0 0-3.421 3.42v5.842c0 .36-.3.56-.56.56-.28 0-.58-.2-.58-.56v-9.502c0-.36.3-.56.58-.56.26 0 .56.2.56.56v.64c.9-.98 2.08-1.54 3.42-1.54a4.6 4.6 0 0 1 4.561 4.561v5.842c0 .36-.3.56-.56.56zm10.7-9.644l-3.44 3.44 3.4 5.32c.06.08.12.2.12.32 0 .28-.3.54-.6.54-.18 0-.36-.08-.48-.262l-3.28-5.1-2.06 2.08v2.74c0 .36-.3.56-.56.56-.28 0-.58-.2-.58-.56v-13.123c0-.36.3-.56.58-.56.26 0 .56.2.56.56v8.762l5.52-5.52a.56.56 0 0 1 .42-.18c.32 0 .58.26.58.56a.56.56 0 0 1-.181.42z"/><use xlink:href="#J" x="113.639"/><use xlink:href="#K" x="113.637"/><use xlink:href="#M" x="60.499"/><use xlink:href="#L" x="107.918"/><use xlink:href="#L" x="112.298"/><path d="M924.343 1046.318c-1.54 0-3.64-.62-4.78-1.76-.14-.14-.18-.262-.18-.4a.61.61 0 0 1 .58-.58c.24 0 .22.06.64.38a6.33 6.33 0 0 0 3.74 1.221c2.52 0 3.98-.94 3.98-2.74 0-4.742-8.462-2.102-8.462-7.562 0-2.4 2.1-3.5 4.68-3.5 1.44 0 3.46.62 4.36 1.88.08.12.12.22.12.34 0 .32-.28.56-.6.56-.28 0-.28-.08-.62-.42-.84-.842-2.08-1.22-3.26-1.22-2.38 0-3.54.92-3.54 2.36 0 4.3 8.462 1.8 8.462 7.563 0 2.78-2.44 3.88-5.12 3.88z"/><use xlink:href="#N"/><use xlink:href="#H" x="294.734"/><use xlink:href="#I" x="283.56"/><use xlink:href="#I" x="295.52"/><use xlink:href="#N" x="36.095"/><path d="M981.998 1046.258c-2 0-3.62-1.6-3.62-3.58 0-.38.3-.58.58-.58s.58.2.58.58c0 1.34 1.08 2.44 2.42 2.44 1.38 0 2.48-1.1 2.48-2.44v-10.383c0-.36.28-.56.56-.56s.58.2.58.56v10.383c0 1.98-1.64 3.58-3.58 3.58z"/><use xlink:href="#F" x="369.38"/><use xlink:href="#G" x="369.388"/><use xlink:href="#H" x="369.388"/><path d="M1027.32 1045.98c-.28 0-.58-.2-.58-.56v-5.842c0-1.9-1.52-3.42-3.42-3.42a3.42 3.42 0 0 0-3.421 3.42v5.842c0 .36-.3.56-.56.56-.28 0-.58-.2-.58-.56v-9.502c0-.36.3-.56.58-.56.26 0 .56.2.56.56v.64c.9-.98 2.08-1.54 3.42-1.54a4.6 4.6 0 0 1 4.56 4.561v5.842c0 .36-.3.56-.56.56z"/><use xlink:href="#M" x="197.333"/><use xlink:href="#L" x="244.752"/></g><linearGradient id="B" gradientUnits="userSpaceOnUse" x1="189.269" y1="231.713" x2="982.731" y2="1025.175"><stop offset="0" stop-color="#fb725b"/><stop offset="1" stop-color="#fb8e1a"/></linearGradient><path d="M1046 666.876v288.68c0 8.468-6.865 15.333-15.333 15.333H332.238c-8.468 0-15.333-6.865-15.333-15.333v-288.68c0-8.468 6.865-15.333 15.333-15.333h698.428c8.468 0 15.333 6.865 15.333 15.333zM297.483 378H49.333C40.865 378 34 384.865 34 393.333v206.49c0 8.468 6.865 15.333 15.333 15.333h248.15c8.468 0 15.333-6.865 15.333-15.333v-206.49c0-8.468-6.865-15.333-15.333-15.333zm19.422-168.667V632.12c0 8.468 6.865 15.333 15.333 15.333h319.195c8.468 0 15.333-6.865 15.333-15.333V209.333c0-8.468-6.865-15.333-15.333-15.333H332.238c-8.468 0-15.333 6.865-15.333 15.333zm-19.422 409.91H49.333c-8.468 0-15.333 6.865-15.333 15.333v320.978c0 8.468 6.865 15.333 15.333 15.333h248.15c8.468 0 15.333-6.865 15.333-15.333V634.578c0-8.468-6.865-15.333-15.333-15.333zM686.19 194h344.477c8.468 0 15.333 6.865 15.333 15.333V632.12c0 8.468-6.865 15.333-15.333 15.333H686.19c-8.468 0-15.333-6.865-15.333-15.333V209.333c0-8.468 6.865-15.333 15.333-15.333z" fill="url(#B)"/><path d="M312.816 209.333v149.244c0 8.468-6.865 15.333-15.333 15.333H49.333c-8.468 0-15.333-6.865-15.333-15.333V209.333C34 200.865 40.865 194 49.333 194h248.15c8.468 0 15.333 6.865 15.333 15.333z" fill="#10edf8"/><path d="M349.65 706.365h-19.28c-1.827 0-2.898-1.07-2.898-2.395 0-.566.2-1.134.567-1.7l17.2-26.146c.756-1.196 1.196-2.646 1.196-3.78 0-3.718-2.77-6.553-6.5-6.553-3.34 0-6.174 2.835-7.245 4.852-.504.944-1.323 1.322-2.142 1.322-1.45 0-2.772-1.134-2.772-2.583 0-1.953 4.473-9 12.16-9 6.553 0 11.845 5.354 11.845 11.845 0 2.52-.882 4.977-2.142 6.804L335.223 701h14.428c1.827 0 2.77 1.26 2.77 2.7 0 1.323-.944 2.646-2.77 2.646zm20.853 1.072c-13.483 0-13.483-16.003-13.483-25.2 0-8.884 1.386-21.862 13.42-21.862s13.546 12.663 13.546 21.862c0 9.576-.252 25.2-13.482 25.2zm8.064-25.2c0-5.545-.127-16.444-8.064-16.444s-8.064 10.9-8.064 16.444v3.527c0 6.553.882 16.318 8 16.318 7.245 0 8.128-9.766 8.128-16.318v-3.527z"/><use xlink:href="#O"/><use xlink:href="#P"/><path d="M335.097 739.94c-4.384 0-8.03-3.52-8.03-8.03V717.48c0-.575.48-.896.928-.896s.928.32.928.896V731.9c0 3.392 2.784 6.207 6.176 6.207a6.26 6.26 0 0 0 6.208-6.207V717.48c0-.575.48-.896.928-.896.416 0 .896.32.896.896V731.9c0 4.383-3.52 8.03-8.03 8.03z"/><use xlink:href="#Q"/><use xlink:href="#R"/><path d="M397.977 739.365h-7.104c-.48 0-.928-.448-.928-.896v-21c0-.48.447-.896.928-.896h7.104c6.592 0 8.768 5.504 8.768 11.36 0 5.95-2.176 11.423-8.768 11.423zm0-21h-6.208v19.166h6.208c5.472 0 6.943-4.735 6.943-9.567 0-5.695-1.983-9.6-6.943-9.6zm21.086 11.135h-7.775v8.96c0 .575-.48.896-.896.896-.448 0-.928-.32-.928-.896v-21c0-.48.447-.896.928-.896h8.64c3.615 0 6.495 2.88 6.495 6.432 0 3.615-2.88 6.495-6.464 6.495zm0-11.135h-7.775v9.312h7.744c2.592 0 4.67-2.048 4.67-4.64s-2.08-4.672-4.64-4.672zM56.593 433.672c-4.22 0-9-2.268-11.34-5.985a2.79 2.79 0 0 1-.44-1.512c0-1.45 1.26-2.583 2.7-2.583 1.197 0 1.638.44 2.583 1.7 1.575 1.953 4.032 3.023 6.5 3.023 4.348 0 8.758-3.97 8.758-9.64 0-5.732-4.4-9.702-8.758-9.702-3.34 0-5.607 1.7-6.678 3.528-.505.945-1.387 1.45-2.458 1.45-1.638 0-2.7-1.07-2.7-3.15v-19.97c0-1.45 1.26-2.646 2.7-2.646H66.6c1.827 0 2.772 1.26 2.772 2.7 0 1.323-.882 2.646-2.646 2.646H50.104v11.78c1.512-1.07 3.906-1.7 6.5-1.7 7.75 0 14.113 6.553 14.113 15.058 0 8.38-6.363 14.995-14.113 14.995z"/><use xlink:href="#O" x="-313.595" y="-273.325"/><path d="M104.22 434.113c-5.23 0-9-2.27-11.593-6.237-.44-.567-.63-1.07-.63-1.64 0-1.45 1.386-2.583 2.835-2.583.756 0 1.64.315 2.205 1.197 1.64 2.52 3.844 3.906 7.183 3.906 6.048 0 8.758-5.418 9-17.39-2.08 2.016-5.355 3.59-9 3.59-7.497 0-13.482-6.553-13.482-13.924 0-7.435 5.985-13.986 13.482-13.986 13.294 0 14.365 13.608 14.365 23.5 0 11.78-2.584 23.563-14.365 23.563zm0-41.646c-4.284 0-8.128 3.843-8.128 8.568 0 4.662 3.844 8.506 8.128 8.506 4.4 0 8.064-3.718 8.254-8.694-.757-4.852-3.34-8.38-8.254-8.38z"/><use xlink:href="#S"/><use xlink:href="#T"/><path d="M83.88 470.042h-.992c-2.527 0-3.775-1.248-3.775-3.744v-11.423H77.48c-.576 0-.896-.48-.896-.928 0-.416.32-.896.896-.896h1.632v-4.896c0-.575.48-.896.928-.896s.896.32.896.896v4.896h2.944c.576 0 .896.48.896.896 0 .448-.32.928-.896.928h-2.944v11.423c0 1.568.448 1.92 1.952 1.92h.992c.576 0 .896.48.896.93 0 .416-.32.896-.896.896z"/><use xlink:href="#U"/><use xlink:href="#V"/><use xlink:href="#W"/><use xlink:href="#T" x="73.63"/><use xlink:href="#X"/><use xlink:href="#Y"/><use xlink:href="#T" x="120.349"/><use xlink:href="#Z"/><use xlink:href="#U" x="127.102"/><use xlink:href="#V" x="127.1"/><use xlink:href="#V" x="132.828"/><path d="M52.492 502.586c-2.784 0-4.864-1.152-6.208-3.04v8.288a.92.92 0 0 1-.896.928c-.448 0-.928-.353-.928-.928v-21.887c0-.576.48-.896.928-.896.416 0 .896.32.896.896v1.567c1.344-1.855 3.424-3.008 6.208-3.008 5.15 0 8.03 4.225 8.03 9.023 0 4.832-2.88 9.056-8.03 9.056zm0-16.255c-3.808 0-6.208 3.04-6.208 7.2s2.4 7.23 6.208 7.23 6.207-3.07 6.207-7.23-2.4-7.2-6.207-7.2z"/><use xlink:href="#T" x="2.883" y="32"/><use xlink:href="#X" x="-70.748" y="32"/><path d="M100.684 502.042h-.992c-2.527 0-3.775-1.248-3.775-3.744v-11.423h-1.632c-.576 0-.896-.48-.896-.928 0-.416.32-.896.896-.896h1.632v-4.896c0-.575.48-.896.928-.896s.896.32.896.896v4.896h2.944c.576 0 .896.48.896.896 0 .448-.32.928-.896.928H97.74v11.423c0 1.568.448 1.92 1.952 1.92h.992c.576 0 .896.48.896.93 0 .416-.32.896-.896.896zm12.734-9.952h-10.016c-.576 0-.928-.48-.928-.928a.92.92 0 0 1 .928-.896h10.016a.9.9 0 0 1 .928.896c0 .447-.32.928-.928.928zm10.08 10.496c-2.687 0-4.607-1.152-5.92-3.168-.16-.2-.192-.352-.192-.544 0-.48.48-.896.96-.896.256 0 .512.128.735.416 1.024 1.504 2.368 2.367 4.416 2.367 4.032 0 5.472-3.84 5.472-10.1v-.544c-1.344 1.73-3.392 2.752-5.472 2.752-3.84 0-6.88-3.327-6.88-7.07 0-3.775 3.04-7.104 6.88-7.104 6.688 0 7.296 6.88 7.296 11.936 0 5.983-1.28 11.967-7.296 11.967zm0-22.078c-2.752 0-5.023 2.432-5.023 5.28 0 2.815 2.27 5.248 5.023 5.248 2.496 0 5.12-2.208 5.12-5.44-.576-2.72-1.856-5.087-5.12-5.087zm24.576-.513L135.498 502.5a.87.87 0 0 1-.768.447c-.48 0-.93-.352-.93-.863a.99.99 0 0 1 .128-.48l12.575-22.462c.192-.32.48-.48.77-.48.48 0 .928.385.928.896a.87.87 0 0 1-.128.447z"/><use xlink:href="#a"/><use xlink:href="#a" x="8.319"/><use xlink:href="#b"/><use xlink:href="#U" x="110.273" y="32"/><use xlink:href="#c"/><use xlink:href="#X" x="73.57" y="32"/><path d="M296.8 608H141.823a10.01 10.01 0 0 1-10.006-10.006v-32.987A10.01 10.01 0 0 1 141.823 555H296.8a10.01 10.01 0 0 1 10.006 10.006v32.987A10.01 10.01 0 0 1 296.81 608z" opacity=".4" fill="#fff"/><use xlink:href="#d"/><use xlink:href="#P" x="298.763" y="-456.338"/><use xlink:href="#R" x="311.678" y="-452.34"/><use xlink:href="#e"/><use xlink:href="#T" x="647.181" y="-183.016"/><use xlink:href="#f"/><use xlink:href="#U" x="657.39" y="-183.015"/><use xlink:href="#e" x="61.44"/><use xlink:href="#W" x="657.392" y="-183.014"/><use xlink:href="#T" x="731.02" y="-183.016"/><use xlink:href="#X" x="657.402" y="-183.015"/><use xlink:href="#g"/><use xlink:href="#T" x="777.74" y="-183.016"/><use xlink:href="#Z" x="657.39" y="-183.015"/><use xlink:href="#g" x="47.934"/><use xlink:href="#h"/><use xlink:href="#i"/><path d="M931.378 287.027h-10.464c-.544 0-.928-.448-.928-.896 0-.192.096-.385.192-.513l9.535-13.47a4.51 4.51 0 0 0 .735-2.4c0-2.336-1.855-4.256-4.2-4.256-3.04 0-4.256 3.327-5.12 3.327-.48 0-.992-.384-.992-.896 0-.736 2.432-4.256 6.1-4.256 3.328 0 6.016 2.72 6.016 5.983a6.13 6.13 0 0 1-1.12 3.52l-8.48 12.03h8.704c.575 0 .896.48.896.93 0 .416-.32.896-.895.896zm9.76.543c-6.783 0-6.847-8.127-6.847-12.8 0-4.576.704-11.104 6.815-11.104 5.983 0 6.88 6.144 6.88 11.104 0 4.64-.096 12.8-6.848 12.8zm5.024-12.8c0-4.576-.64-9.28-5.024-9.28-4.8 0-5.023 5.888-5.023 9.28v2.048c0 3.712.704 8.927 4.992 8.927 4.384 0 5.056-5.215 5.056-8.927v-2.048z"/><use xlink:href="#j"/><path d="M977.968 265.46l-8.095 21c-.192.416-.48.608-.8.608-.447 0-.96-.384-.96-.928 0-.128.032-.225.064-.353l7.583-19.742h-10.08c-.48 0-.928-.416-.928-.896s.448-.896.928-.896h11.424c.575 0 .96.32.96.8a.98.98 0 0 1-.097.416zm15.104-.48l-12.575 22.495c-.192.32-.48.447-.768.447-.48 0-.93-.352-.93-.863a.99.99 0 0 1 .128-.48l12.575-22.462c.192-.32.48-.48.77-.48.48 0 .928.385.928.896a.87.87 0 0 1-.128.447z"/><use xlink:href="#j" x="44.873"/><path d="M1017.393 287.57c-3.744 0-6.848-3.04-6.848-6.815 0-2.624 1.376-4.863 3.52-6.016-1.632-1.056-2.687-2.88-2.687-5.056a6.03 6.03 0 0 1 6.016-6.016 6.03 6.03 0 0 1 6.016 6.016c0 2.176-1.088 4-2.72 5.056 2.144 1.152 3.52 3.392 3.52 5.983 0 3.744-3.008 6.848-6.815 6.848zm0-11.84c-2.72 0-5.023 2.208-5.023 4.99 0 2.752 2.24 5.023 4.99 5.023 2.784 0 5.024-2.27 5.024-4.99 0-2.784-2.208-5.023-4.992-5.023zm0-10.24c-2.336 0-4.19 1.888-4.19 4.19s1.855 4.224 4.19 4.224c2.304 0 4.19-1.888 4.19-4.224a4.21 4.21 0 0 0-4.191-4.191z"/><use xlink:href="#Z" x="485.393" y="-151.015"/><use xlink:href="#k"/><use xlink:href="#l"/><use xlink:href="#U" x="628.59" y="-151.015"/><use xlink:href="#l" x="36.831"/><use xlink:href="#W" x="633.872" y="-151.014"/><use xlink:href="#k" x="75.327"/><use xlink:href="#U" x="686.35" y="-151.015"/><path d="M795.188 319.22c-1.728 0-3.167-1.6-3.167-3.393V297.14c0-.575.48-.896.928-.896.416 0 .896.32.896.896v18.687c0 2.048 2.272.864 2.272 2.305 0 .544-.385 1.088-.93 1.088z"/><use xlink:href="#W" x="686.35" y="-151.014"/><use xlink:href="#c" x="604.203" y="-183.016"/><use xlink:href="#k" x="137.086"/><use xlink:href="#X" x="682.862" y="-151.015"/><use xlink:href="#k" x="156.095"/><use xlink:href="#X" x="701.872" y="-151.015"/><use xlink:href="#d" x="-353.951" y="0.14"/><path d="M372.708 242.606H370v4.914c0 1.7-1.45 2.646-2.7 2.646-1.323 0-2.7-.945-2.7-2.646v-4.914h-15.058c-1.765 0-2.835-1.07-2.835-2.52a2.56 2.56 0 0 1 .378-1.387l17.4-33.077c.504-1.008 1.45-1.448 2.27-1.448 1.448 0 2.835 1.134 2.835 2.583 0 .44-.063.882-.378 1.386l-15.247 29.107h10.647v-7.182c0-1.827 1.323-2.772 2.646-2.772 1.386 0 2.77.882 2.77 2.7v7.245h2.7c1.765 0 2.7 1.26 2.7 2.7 0 1.387-.945 2.646-2.7 2.646zm-37.61 45.137c-4.384 0-8.03-3.52-8.03-8.03V265.28c0-.575.48-.896.928-.896s.928.32.928.896v14.432c0 3.392 2.784 6.207 6.176 6.207a6.26 6.26 0 0 0 6.208-6.207V265.28c0-.575.48-.896.928-.896.416 0 .896.32.896.896v14.432c0 4.383-3.52 8.03-8.03 8.03z"/><use xlink:href="#Q" y="-452.2"/><use xlink:href="#m"/><use xlink:href="#T" x="317.744" y="-182.876"/><use xlink:href="#m" x="26.239"/><use xlink:href="#U" x="317.744" y="-182.875"/><use xlink:href="#n"/><use xlink:href="#h" x="-443.581" y="0.14"/><use xlink:href="#T" x="393.102" y="-182.876"/><path d="M484.532 287.167c-.447 0-.928-.32-.928-.896v-1.024c-1.344 1.568-3.296 2.464-5.472 2.464-3.968 0-7.295-3.328-7.295-7.296v-9.343c0-.576.48-.896.928-.896.416 0 .896.32.896.896v9.343a5.45 5.45 0 1 0 10.943 0v-9.343c0-.576.48-.896.928-.896.416 0 .896.32.896.896v15.2c0 .575-.48.896-.896.896z"/><use xlink:href="#X" x="337.04" y="-182.875"/><use xlink:href="#o"/><use xlink:href="#h" x="-358.814" y="0.14"/><use xlink:href="#T" x="477.868" y="-182.876"/><use xlink:href="#n" x="132.476"/><use xlink:href="#p"/><use xlink:href="#p" x="25.152"/><use xlink:href="#o" x="102.75"/><use xlink:href="#f" x="-101.988" y="0.14"/><use xlink:href="#m" x="272.281"/><path d="M332.758 322.89c-.14 0-.28-.056-.448-.14-3.696-2.716-5.012-7.7-5.012-12.068 0-3.64 1.344-9.716 5.04-11.815.14-.056.28-.14.42-.14.447 0 .756.447.756.867 0 .616-.112.336-.98 1.12-2.716 2.437-3.64 6.44-3.64 9.968 0 3.248 1.12 8.708 4.256 10.725.28.195.42.42.42.672 0 .42-.364.812-.812.812z"/><use xlink:href="#q"/><use xlink:href="#r"/><use xlink:href="#s"/><use xlink:href="#t"/><path d="M388.027 321.66c-.112.084-.28.1-.42.1-.448 0-.756-.392-.756-.812 0-.784 1.204-.896 1.4-1.792-.84-.056-1.512-.756-1.512-1.596 0-.952.784-1.624 1.624-1.624 1.372 0 1.68 1.4 1.68 2.268 0 1.372-.728 2.688-2.016 3.444zm28.84-2.493c-.393 0-.784-.28-.784-.784v-9.408a3.6 3.6 0 0 0-3.557-3.556c-1.932 0-3.584 1.624-3.584 3.528v9.436c0 .504-.392.784-.783.784s-.812-.28-.812-.784v-9.408c0-1.932-1.624-3.556-3.528-3.556-1.96 0-3.584 1.624-3.584 3.528v9.436c0 .504-.42.784-.783.784-.393 0-.812-.28-.812-.784v-13.3c0-.504.42-.784.813-.784.363 0 .783.28.783.784v.168c.925-.896 2.185-1.428 3.557-1.428 1.792 0 3.388.896 4.368 2.38.924-1.428 2.52-2.38 4.34-2.38 2.912 0 5.18 2.296 5.18 5.124v9.436c0 .504-.42.784-.812.784zm9.8.476c-4.508 0-7.027-3.695-7.027-7.924 0-4.2 2.52-7.896 7.027-7.896s7.028 3.695 7.028 7.896c0 4.23-2.52 7.924-7.028 7.924zm0-14.224c-3.304 0-5.432 2.66-5.432 6.3s2.128 6.328 5.432 6.328c3.332 0 5.433-2.687 5.433-6.328s-2.1-6.3-5.433-6.3z"/><use xlink:href="#s" x="69.298"/><use xlink:href="#u"/><use xlink:href="#v"/><use xlink:href="#r" x="117.878"/><use xlink:href="#v" x="33.124"/><use xlink:href="#w"/><use xlink:href="#t" x="141.65"/><use xlink:href="#w" x="33.544"/><use xlink:href="#u" x="105.893"/><use xlink:href="#q" x="221.362"/><path d="M571.9 322.75a.93.93 0 0 1-.448.14c-.42 0-.784-.392-.784-.812 0-.252.112-.532.364-.672 3.164-2.072 4.23-7.448 4.23-10.725 0-3.695-.98-8.203-4.2-10.416-.252-.195-.42-.42-.42-.672 0-.42.363-.867.812-.867.112 0 .28.084.393.14 3.695 2.072 5.012 8.176 5.012 11.815 0 4.368-1.288 9.324-4.956 12.068zM148.63 592.042c-.672 0-1.344-.513-1.344-1.344v-17.15l-2.56 2.496c-.288.288-.608.384-.896.384-.768 0-1.44-.704-1.44-1.408 0-.352.128-.672.416-.96l4.768-4.607c.384-.352.8-.512 1.184-.512.896 0 1.28.896 1.28 1.632v20.095c0 .863-.672 1.376-1.408 1.376zm29.913 0c-.28 0-.588-.168-.728-.477l-1.792-4.312h-10.08l-1.792 4.312c-.112.3-.448.477-.7.477-.42 0-.812-.3-.812-.756 0-.14 0-.225.056-.364l7.56-18.34a.88.88 0 0 1 .812-.532c.28 0 .532.168.672.532l7.56 18.34a.83.83 0 0 1 .056.364c0 .447-.392.756-.812.756zM170.983 575l-4.396 10.668h8.82L170.983 575zm13.295-1.326h-.868c-.672 0-1.232.56-1.232 1.204v2.296h2.1c.532 0 .784.42.784.784 0 .392-.28.812-.784.812h-2.1v12.488c0 .504-.392.784-.784.784s-.784-.252-.784-.784V578.77h-1.932c-.504 0-.784-.42-.784-.812 0-.364.28-.784.784-.784h1.932v-2.296a2.78 2.78 0 0 1 2.772-2.772h.896c.504 0 .812.393.812.813 0 .392-.28.756-.812.756zm8.202 24.752c-2.38 0-5.74-.896-5.74-1.904 0-.448.364-.896.812-.896.308 0 .952.476 1.484.672.728.252 1.876.532 3.444.532 3.584 0 5.432-1.765 5.432-5.208v-1.96c-1.232 1.483-2.996 2.38-5.432 2.38-4.424 0-7.028-3.137-7.028-7.448 0-4.2 2.52-7.896 7.028-7.896 2.436 0 4.256 1.008 5.432 2.632v-1.345c0-.504.42-.783.812-.783a.78.78 0 0 1 .784.783v13.637c0 4.45-2.66 6.804-7.028 6.804zm0-20.132c-3.304 0-5.432 2.66-5.432 6.3 0 3.612 1.988 5.852 5.432 5.852s5.432-2.24 5.432-5.852c0-3.64-2.1-6.3-5.432-6.3zm21.3 13.748c-.392 0-.812-.28-.812-.784v-8.176a4.77 4.77 0 0 0-4.788-4.788c-2.632 0-4.788 2.128-4.788 4.788v8.176c0 .504-.42.784-.784.784-.392 0-.812-.28-.812-.784V572.9c0-.504.42-.784.812-.784.364 0 .784.28.784.784v5.964c1.176-1.372 2.884-2.155 4.788-2.155a6.44 6.44 0 0 1 6.384 6.384v8.176c0 .504-.42.784-.784.784zm17.443 0h-.028c-.924 0-2.24-.504-2.772-2.185-1.176 1.652-2.996 2.66-5.432 2.66-4.564 0-7.028-3.752-7.028-7.924 0-4.228 2.52-7.896 7.028-7.896 2.436 0 4.256 1.008 5.432 2.632v-1.372c0-.448.364-.784.812-.784.392 0 .784.28.784.784v11.284c0 1.792 2.016.672 2.016 2.016a.77.77 0 0 1-.812.784zM223 578.294c-3.304 0-5.432 2.66-5.432 6.3s2.128 6.328 5.432 6.328c3.332 0 5.432-2.688 5.432-6.328s-2.1-6.3-5.432-6.3z"/><use xlink:href="#x"/><path d="M248.537 574.485c-.896 0-1.596-.7-1.596-1.596s.7-1.596 1.596-1.596 1.596.7 1.596 1.596-.7 1.596-1.596 1.596zm0 17.557c-.392 0-.812-.252-.812-.784v-13.3c0-.504.392-.784.812-.784.364 0 .784.252.784.784v13.3c0 .504-.364.784-.784.784zm7.755.532c-1.68 0-4.508-.6-5.488-2.213-.112-.168-.112-.308-.112-.42a.86.86 0 0 1 .812-.84c.168 0 .448.14.616.393 1.008 1.23 2.8 1.483 4.172 1.483 2.716 0 4.088-.896 4.088-2.716 0-4.228-9.184-1.988-9.184-7.588 0-2.828 2.828-3.92 5.376-3.92 1.456 0 3.696.504 4.816 1.624.168.168.252.364.252.532 0 .42-.42.84-.868.84-.168 0-.364-.057-.532-.225-.868-.84-2.436-1.176-3.668-1.176-2.464 0-3.78.952-3.78 2.324 0 3.92 9.184 1.848 9.184 7.588 0 3.192-2.8 4.312-5.684 4.312zm12.068-.532h-.868c-2.212 0-3.304-1.092-3.304-3.276v-9.996h-1.428c-.504 0-.784-.42-.784-.812 0-.364.28-.784.784-.784h1.428V572.9c0-.504.42-.784.812-.784s.784.28.784.784v4.284h2.576c.504 0 .784.42.784.784 0 .392-.28.812-.784.812h-2.576v9.996c0 1.372.392 1.68 1.708 1.68h.868c.504 0 .784.42.784.813 0 .364-.28.784-.784.784zm16.268 0h-.028c-.924 0-2.24-.504-2.772-2.185-1.176 1.652-2.996 2.66-5.432 2.66-4.564 0-7.028-3.752-7.028-7.924 0-4.228 2.52-7.896 7.028-7.896 2.436 0 4.256 1.008 5.432 2.632v-1.372c0-.448.364-.784.812-.784.392 0 .784.28.784.784v11.284c0 1.792 2.016.672 2.016 2.016a.77.77 0 0 1-.812.784zm-8.232-13.748c-3.304 0-5.432 2.66-5.432 6.3s2.128 6.328 5.432 6.328c3.332 0 5.432-2.688 5.432-6.328s-2.1-6.3-5.432-6.3z"/><use xlink:href="#x" x="53.394"/><path d="M60.316 228.4c-1.144 1.112-2.603 1.828-4.377 2.148v2.598c0 .448-.144.817-.433 1.105a1.5 1.5 0 0 1-1.106.434c-.428 0-.785-.145-1.074-.434s-.433-.657-.433-1.105v-2.533c-1.24-.107-2.362-.374-3.367-.802s-1.967-1.07-2.886-1.924c-.448-.385-.673-.823-.673-1.314 0-.385.15-.732.448-1.043s.652-.465 1.06-.465a1.33 1.33 0 0 1 .93.353c.684.642 1.4 1.145 2.116 1.508s1.518.6 2.373.737v-7.407c-2.052-.47-3.623-1.213-4.714-2.23s-1.635-2.4-1.635-4.152c0-1.688.582-3.083 1.747-4.185s2.698-1.77 4.602-2.004v-1.667c0-.45.15-.818.45-1.106s.673-.433 1.122-.433c.427 0 .78.144 1.058.433s.417.657.417 1.106v1.7c1.005.15 1.935.417 2.8.802s1.57.854 2.148 1.4c.5.43.737.888.737 1.38 0 .385-.145.728-.433 1.026a1.4 1.4 0 0 1-1.042.45 1.07 1.07 0 0 1-.738-.257c-.385-.385-.887-.737-1.507-1.06a7.78 7.78 0 0 0-1.956-.705v7.118c2.053.535 3.58 1.278 4.586 2.23s1.507 2.357 1.507 4.217a5.46 5.46 0 0 1-1.716 4.072zm-9.876-12.585c.566.523 1.384.956 2.453 1.298v-6.477c-1.026.17-1.833.534-2.42 1.1s-.882 1.23-.882 2.02c0 .854.283 1.544.85 2.068zm7.68 10.533c.556-.534.834-1.165.834-1.893-.02-.812-.284-1.5-.786-2.036s-1.245-1-2.23-1.362v6.445c.898-.235 1.625-.62 2.18-1.154zm31.528 16.764h-2.7v4.914c0 1.7-1.45 2.646-2.7 2.646-1.323 0-2.7-.945-2.7-2.646v-4.914H66.463c-1.765 0-2.835-1.07-2.835-2.52a2.56 2.56 0 0 1 .378-1.387l17.4-33.077c.504-1.008 1.45-1.448 2.268-1.448 1.45 0 2.836 1.134 2.836 2.583 0 .44-.063.882-.378 1.386l-15.247 29.107H81.52v-7.182c0-1.827 1.323-2.772 2.646-2.772 1.386 0 2.77.882 2.77 2.7v7.245h2.7c1.765 0 2.7 1.26 2.7 2.7 0 1.387-.945 2.646-2.7 2.646z"/><use xlink:href="#O" x="-294.337" y="-455.684"/><path d="M122.282 251.313c-4.22 0-9-2.268-11.34-5.985a2.79 2.79 0 0 1-.44-1.512c0-1.45 1.26-2.583 2.7-2.583 1.197 0 1.638.44 2.583 1.7 1.575 1.953 4.032 3.023 6.5 3.023 4.348 0 8.758-3.97 8.758-9.64 0-5.732-4.4-9.702-8.758-9.702-3.34 0-5.607 1.7-6.678 3.528-.505.945-1.387 1.45-2.458 1.45-1.638 0-2.7-1.07-2.7-3.15V208.47c0-1.45 1.26-2.646 2.7-2.646h19.15c1.827 0 2.772 1.26 2.772 2.7 0 1.323-.882 2.646-2.646 2.646h-16.633v11.78c1.512-1.07 3.906-1.7 6.5-1.7 7.75 0 14.113 6.553 14.113 15.058 0 8.38-6.363 14.995-14.113 14.995zm27.83-.63h-1.488c-3.792 0-5.664-1.872-5.664-5.616V227.93h-2.448c-.864 0-1.345-.72-1.345-1.393 0-.624.48-1.344 1.345-1.344h2.448v-7.345c0-.864.72-1.344 1.392-1.344s1.344.48 1.344 1.344v7.345h4.417c.864 0 1.344.72 1.344 1.344 0 .673-.48 1.393-1.344 1.393h-4.417v17.138c0 2.352.673 2.88 2.93 2.88h1.488c.864 0 1.344.72 1.344 1.393 0 .624-.48 1.344-1.344 1.344zm25.298 0c-.672 0-1.392-.48-1.392-1.344v-14.02c0-4.56-3.648-8.2-8.2-8.2-4.513 0-8.2 3.648-8.2 8.2v14.018c0 .863-.72 1.344-1.344 1.344-.672 0-1.393-.48-1.393-1.344v-22.803c0-.863.72-1.344 1.393-1.344.624 0 1.344.48 1.344 1.344v1.536c2.16-2.352 4.992-3.696 8.2-3.696 5.952 0 10.944 4.944 10.944 10.945v14.018c0 .863-.72 1.344-1.344 1.344z"/><use xlink:href="#S" y="-186.36"/><use xlink:href="#c" x="-153.596" y="-218.36"/><use xlink:href="#y"/><use xlink:href="#l" x="-607.28" y="-35.344"/><use xlink:href="#X" x="-43.936" y="-186.36"/><use xlink:href="#Z" x="-76.736" y="-186.36"/><use xlink:href="#T" x="70.044" y="-186.359"/><use xlink:href="#c" x="-67.876" y="-218.36"/><path d="M178.178 283.683c-.448 0-.896-.32-.896-.896v-10.752c0-2.208-1.856-4.063-4.064-4.063s-4.096 1.855-4.096 4.032v10.783c0 .575-.447.896-.896.896s-.928-.32-.928-.896v-10.752c0-2.208-1.856-4.063-4.032-4.063-2.24 0-4.096 1.855-4.096 4.032v10.783c0 .575-.48.896-.896.896-.448 0-.928-.32-.928-.896v-15.2c0-.576.48-.896.928-.896.416 0 .896.32.896.896v.19a5.82 5.82 0 0 1 4.064-1.632c2.048 0 3.87 1.024 4.99 2.72 1.056-1.633 2.88-2.72 4.96-2.72 3.327 0 5.92 2.624 5.92 5.856v10.783c0 .575-.48.896-.928.896z"/><use xlink:href="#Y" x="-117.914" y="-158.359"/><use xlink:href="#T" x="-4.124" y="-158.359"/><use xlink:href="#c" x="-135.486" y="-190.36"/><use xlink:href="#i" x="-807.856" y="24.656"/><use xlink:href="#l" x="-590.578" y="-7.344"/><use xlink:href="#o" x="-378.194" y="24.516"/><use xlink:href="#b" x="-31.494" y="-190.359"/><use xlink:href="#y" x="94.302" y="28"/><use xlink:href="#f" x="-540.756" y="24.657"/><use xlink:href="#V" x="97.36" y="-158.359"/><use xlink:href="#o" x="-293.844" y="24.516"/><use xlink:href="#X" x="74.972" y="-158.36"/><path d="M58.42 676.7c-7.687 0-13.924-6.237-13.924-13.86 0-4.85 2.33-8.946 6.11-11.467-2.835-2.268-4.474-5.606-4.474-9.45 0-6.74 5.48-12.285 12.286-12.285 6.74 0 12.285 5.544 12.285 12.285 0 3.844-1.638 7.183-4.473 9.45 3.654 2.52 6.048 6.616 6.048 11.404 0 7.687-6.174 13.924-13.86 13.924zm0-22.492c-4.726 0-8.568 3.97-8.568 8.568 0 4.725 3.906 8.568 8.505 8.568 4.726 0 8.568-3.906 8.568-8.506 0-4.725-3.906-8.63-8.505-8.63zm0-19.153c-3.97 0-6.867 3.087-6.867 6.867 0 3.844 2.897 6.993 6.867 6.993 3.78 0 6.867-3.15 6.867-6.993 0-3.78-3.087-6.867-6.867-6.867z"/><use xlink:href="#O" x="-312.84" y="-30.737"/><path d="M114.93 636.567l-14.5 37.36c-.504 1.26-1.26 1.765-2.33 1.765-1.387 0-2.835-1.07-2.835-2.646 0-.378.126-.693.252-1.07l13.734-35.85H92.44c-1.386 0-2.646-1-2.646-2.7 0-1.45 1.197-2.646 2.646-2.646h20.73c1.386 0 2.772.882 2.772 2.7 0 .756-.82 2.457-1 3.087zM69.323 691l-5.632 20.96c-.128.448-.48.672-.896.672-.384 0-.768-.224-.863-.672l-4.8-17.727-4.768 17.727c-.096.448-.48.672-.864.672-.416 0-.768-.224-.896-.672L44.972 691c-.032-.096-.032-.2-.032-.287a.93.93 0 0 1 .928-.929c.416 0 .736.225.832.704l4.8 17.727 4.768-17.727c.128-.448.48-.64.864-.64.416 0 .768.2.896.64l4.768 17.727 4.8-17.727c.128-.48.448-.704.832-.704a.93.93 0 0 1 .928.929.9.9 0 0 1-.031.287z"/><use xlink:href="#i" x="-825.671" y="425.603"/><use xlink:href="#y" x="18.152" y="428.947"/><use xlink:href="#V" x="2.628" y="242.588"/><use xlink:href="#Y" x="-51.547" y="242.588"/><use xlink:href="#h" x="-756.872" y="425.603"/><use xlink:href="#T" x="86.37" y="242.588"/><use xlink:href="#Z" x="-33.98" y="242.588"/><use xlink:href="#Y" x="13.957" y="242.588"/><use xlink:href="#h" x="-691.368" y="425.603"/><use xlink:href="#i" x="-691.369" y="425.603"/><use xlink:href="#b" x="-127.39" y="242.588"/><use xlink:href="#T" x="9.123" y="274.588"/><use xlink:href="#c" x="-128.797" y="242.587"/><use xlink:href="#V" x="-9.245" y="274.588"/><use xlink:href="#p" x="-459.465" y="457.463"/><path d="M120.683 728.47c-.19.097-.32.16-.48.16-.544 0-.896-.576-.896-1.088 0-.704 1.824-.864 1.824-2.912V722.2c0-.607.448-.96.896-.96s.93.353.93.96v2.432c0 .736-.353 2.784-2.272 3.84z"/><use xlink:href="#X" x="-25.436" y="274.588"/><use xlink:href="#f" x="-578.508" y="457.604"/><use xlink:href="#k" x="-527.052" y="425.603"/><use xlink:href="#V" x="64.706" y="274.588"/><use xlink:href="#V" x="70.433" y="274.588"/><use xlink:href="#k" x="-510.51" y="425.603"/><use xlink:href="#T" x="126.752" y="274.588"/><use xlink:href="#l" x="-492.653" y="425.603"/><use xlink:href="#y" x="151.459" y="460.947"/><use xlink:href="#k" x="-450.733" y="425.603"/><use xlink:href="#c" x="30.753" y="242.587"/><use xlink:href="#i" x="-641.618" y="457.603"/><use xlink:href="#X" x="121.437" y="274.588"/><g fill="#fff"><path d="M45.64 80.84c-5.94 0-10.8-4.8-10.8-10.74 0-1.74 1.26-2.64 2.52-2.64 1.38 0 2.64.9 2.64 2.64a5.61 5.61 0 0 0 5.58 5.58c3.24 0 5.7-2.52 5.7-5.58v-30.24c0-1.74 1.2-2.58 2.52-2.58 1.38 0 2.58.84 2.58 2.52v30.3c0 5.94-4.92 10.74-10.74 10.74z"/><use xlink:href="#z"/><use xlink:href="#AA"/><use xlink:href="#AB"/></g><g fill="#0ff"><path d="M160.454 60.624c-1.206 1.172-2.745 1.927-4.615 2.266v2.74c0 .473-.152.862-.457 1.166s-.693.457-1.167.457c-.45 0-.83-.152-1.133-.457s-.457-.693-.457-1.166v-2.67c-1.308-.113-2.5-.394-3.55-.845s-2.074-1.127-3.043-2.03c-.474-.406-.7-.868-.7-1.387 0-.406.157-.77.473-1.1a1.5 1.5 0 0 1 1.116-.49 1.4 1.4 0 0 1 .981.372c.72.676 1.465 1.207 2.23 1.6s1.6.643 2.502.778v-7.8c-2.164-.496-3.82-1.28-4.97-2.35s-1.725-2.53-1.725-4.38c0-1.78.614-3.25 1.843-4.413s2.846-1.865 4.853-2.114v-1.76c0-.473.157-.862.473-1.166s.7-.457 1.184-.457c.45 0 .823.152 1.116.457s.44.693.44 1.166v1.792c1.06.158 2.04.44 2.94.845s1.657.902 2.266 1.488c.52.45.778.936.778 1.454 0 .406-.152.767-.457 1.082a1.47 1.47 0 0 1-1.099.473c-.316 0-.575-.1-.778-.27-.406-.406-.936-.777-1.6-1.116a8.32 8.32 0 0 0-2.062-.744v7.506c2.164.564 3.775 1.348 4.835 2.35s1.6 2.485 1.6 4.447c0 1.7-.603 3.123-1.8 4.294zM150.04 47.352c.597.552 1.46 1 2.587 1.37v-6.83c-1.082.18-1.933.563-2.553 1.15s-.93 1.296-.93 2.13c0 .902.298 1.63.896 2.18zm8.1 11.108c.586-.563.88-1.23.88-1.995-.022-.856-.3-1.572-.828-2.147s-1.313-1.053-2.35-1.437v6.797c.947-.248 1.713-.654 2.3-1.217zm31.043 14.34h-2.58v4.68c0 1.62-1.38 2.52-2.58 2.52-1.26 0-2.58-.9-2.58-2.52V72.8h-14.34c-1.68 0-2.7-1.02-2.7-2.4 0-.36.06-.84.36-1.32l16.56-31.5c.48-.96 1.38-1.38 2.16-1.38 1.38 0 2.7 1.08 2.7 2.46 0 .42-.06.84-.36 1.32l-14.52 27.72h10.14v-6.84c0-1.74 1.26-2.64 2.52-2.64 1.32 0 2.64.84 2.64 2.58v6.9h2.58c1.68 0 2.58 1.2 2.58 2.58 0 1.32-.9 2.52-2.58 2.52zm8.52 7.26a4.3 4.3 0 0 1-4.32-4.32c0-2.4 1.92-4.2 4.32-4.2s4.32 1.8 4.32 4.2a4.3 4.3 0 0 1-4.319 4.32zm20.158.54c-4.02 0-8.58-2.16-10.8-5.7-.3-.48-.42-.96-.42-1.44 0-1.38 1.2-2.46 2.58-2.46 1.14 0 1.56.42 2.46 1.62 1.5 1.86 3.84 2.88 6.18 2.88 4.14 0 8.34-3.78 8.34-9.18 0-5.46-4.2-9.24-8.34-9.24-3.18 0-5.34 1.62-6.36 3.36-.48.9-1.32 1.38-2.34 1.38-1.56 0-2.58-1.02-2.58-3V39.8c0-1.38 1.2-2.52 2.58-2.52h18.24c1.74 0 2.64 1.2 2.64 2.58 0 1.26-.84 2.52-2.52 2.52h-15.84V53.6c1.44-1.02 3.72-1.62 6.18-1.62 7.38 0 13.44 6.24 13.44 14.34 0 7.98-6.06 14.28-13.44 14.28z"/><use xlink:href="#AC"/><use xlink:href="#AD"/><use xlink:href="#AE"/><use xlink:href="#AF"/><use xlink:href="#AF" x="12.48"/><use xlink:href="#AE" x="36.6"/><use xlink:href="#AG"/><use xlink:href="#AH"/></g><g fill="#fff"><path d="M465.895 40.462l-9.9 37.438c-.3 1.44-1.08 2.1-2.46 2.1-1.26 0-2.16-.66-2.58-2.1l-8.1-28.74-8.04 28.74c-.42 1.44-1.26 2.1-2.52 2.1-1.32 0-2.16-.66-2.52-2.1l-9.9-37.438c-.06-.24-.12-.54-.12-.84 0-1.5 1.38-2.34 2.7-2.34 1.02 0 2.04.6 2.4 1.86l7.56 28.62 7.92-28.38c.42-1.44 1.26-2.1 2.52-2.1 1.32 0 2.16.66 2.58 2.1l7.92 28.38 7.56-28.62c.36-1.32 1.56-1.98 2.46-1.98 1.32 0 2.64.96 2.64 2.46 0 .3-.06.6-.12.84z"/><use xlink:href="#AG" x="125.218"/><use xlink:href="#z" x="440.177"/><use xlink:href="#AF" x="227.036"/><path d="M573.055 79.94c-1.32 0-2.58-.84-2.58-2.52 0 0-3.54 3.6-9.9 3.6-9.66 0-15.06-7.92-15.06-16.98 0-9 5.4-16.92 15.06-16.92 4.2 0 7.56 1.44 9.9 3.9v-11.16c0-1.74 1.26-2.58 2.58-2.58s2.58.84 2.58 2.52V77.42c0 1.68-1.26 2.52-2.58 2.52zm-12.48-27.72c-6 0-9.9 4.68-9.9 11.82 0 7.2 3.9 11.88 9.9 11.88 6.06 0 9.9-4.68 9.9-11.88 0-7.14-3.84-11.82-9.9-11.82z"/><use xlink:href="#AC" x="345.654"/><use xlink:href="#AI"/><use xlink:href="#AJ"/><use xlink:href="#AH" x="296.683"/><use xlink:href="#AA" x="611.644"/><path d="M742.962 53.242h-2.7v24.18c0 1.68-1.26 2.52-2.64 2.52-1.26 0-2.52-.84-2.52-2.52v-24.18h-2.46c-1.62 0-2.52-1.2-2.52-2.52 0-1.38.9-2.58 2.52-2.58h2.46v-4.08c0-3.84 3.18-6.78 6.9-6.78 1.74 0 2.64 1.2 2.64 2.58 0 1.26-.9 2.52-2.64 2.52-1.02 0-1.74.78-1.74 1.62v4.14h2.7c1.74 0 2.64 1.2 2.64 2.58 0 1.32-.9 2.52-2.64 2.52z"/><use xlink:href="#AG" x="404.622"/><use xlink:href="#AI" x="159.286"/><path d="M841.238 80c-1.26 0-2.52-.9-2.52-2.52v-18.9c0-3.48-2.88-6.36-6.3-6.36-3.54 0-6.36 2.88-6.36 6.3v18.9c0 1.68-1.2 2.58-2.58 2.58-1.32 0-2.52-.9-2.52-2.52v-18.9c0-3.48-2.88-6.36-6.36-6.36s-6.36 2.88-6.36 6.3v18.9c0 1.68-1.26 2.58-2.64 2.58-1.26 0-2.52-.9-2.52-2.52v-26.82c0-1.74 1.32-2.58 2.64-2.58.84 0 1.68.36 2.16 1.14 1.86-1.32 4.2-2.1 6.66-2.1 3.6 0 6.84 1.62 8.94 4.26 2.1-2.64 5.28-4.26 8.88-4.26 6.36 0 11.52 5.1 11.52 11.4v18.9c0 1.68-1.26 2.58-2.64 2.58z"/><use xlink:href="#AB" x="-84.478" y="61.2"/><path d="M77.498 141.2c-1.32 0-2.52-.9-2.52-2.52V122c0-4.68-3.9-8.58-8.58-8.58-4.62 0-8.52 3.9-8.52 8.58v16.62c0 1.68-1.26 2.64-2.64 2.64-1.26 0-2.52-.9-2.52-2.58v-37.618c0-1.74 1.26-2.58 2.52-2.58 1.38 0 2.64.84 2.64 2.52v10.38c2.22-2.1 5.22-3.06 8.52-3.06 7.44 0 13.68 6.18 13.68 13.68v16.62c0 1.68-1.2 2.58-2.58 2.58z"/><use xlink:href="#AK"/><path d="M145.417 142.28c-8.22 0-15.06-6.6-15.06-15.06V101c0-1.68 1.26-2.52 2.58-2.52s2.58.84 2.58 2.52v26.22c0 5.52 4.44 9.96 9.9 9.96s9.96-4.44 9.96-9.96v-26.16c0-1.74 1.2-2.58 2.52-2.58 1.38 0 2.58.84 2.58 2.52v26.22c0 8.22-6.6 15.06-15.06 15.06zm33.06-.06c-4.38 0-10.5-1.8-13.92-4.98-.66-.6-.84-1.26-.84-1.86a2.6 2.6 0 0 1 2.58-2.58c.9 0 1.2.3 2.28 1.14 2.94 2.22 6.42 3.18 9.9 3.18 7.14 0 10.26-2.58 10.26-7.02 0-12.48-23.94-5.4-23.94-21.72 0-7.32 6.18-10.98 14.1-10.98 4.14 0 10.08 1.62 13.02 5.1.48.54.66 1.08.66 1.62 0 1.44-1.32 2.7-2.58 2.7-.9 0-1.38-.42-2.4-1.32-2.4-2.04-5.46-2.94-8.7-2.94-6.48 0-8.94 2.58-8.94 5.82 0 11.22 23.94 4.56 23.94 21.72 0 8.94-7.5 12.12-15.42 12.12zm49.258-19.5h-12.84v15.9c0 1.56-1.2 2.58-2.52 2.58-1.44 0-2.64-.96-2.64-2.52v-37.618c0-1.08.72-2.58 2.52-2.58h15.54c5.28 0 12.06 4.14 12.06 12.06 0 6.78-5.4 12.18-12.12 12.18zm0-19.14h-12.84v14.04h12.78a6.99 6.99 0 0 0 7.02-7.02c0-3.9-3.12-7.02-6.96-7.02z"/><use xlink:href="#AG" x="-100.043" y="61.2"/><use xlink:href="#AL"/><use xlink:href="#AK" x="234.715"/><use xlink:href="#AD" x="75.993" y="61.2"/><path d="M399.272 142.22c-13.2 0-17.46-11.1-17.46-22.38 0-11.58 4.56-22.44 17.46-22.44 5.46 0 10.02 1.92 13.32 6.54.36.48.54 1.02.54 1.5 0 1.44-1.5 2.58-2.88 2.58-1.08 0-1.2-.48-2.16-1.56-1.92-2.34-4.5-3.9-8.82-3.9-9.24 0-12.3 7.86-12.3 17.28 0 8.22 2.22 17.28 12.3 17.28 7.32 0 11.7-5.22 12.12-13.86h-5.4c-1.74 0-2.64-1.26-2.64-2.58s.9-2.58 2.52-2.58h8.22c1.56 0 2.64 1.08 2.64 2.64-.24 11.22-4.74 21.48-17.46 21.48z"/><use xlink:href="#AD" x="143.97" y="61.2"/><use xlink:href="#AE" x="142.77" y="61.2"/><path d="M476.3 141.14c-1.32 0-2.58-.84-2.58-2.52 0 0-3.54 3.6-9.9 3.6-9.66 0-15.06-7.92-15.06-16.98 0-9 5.4-16.92 15.06-16.92 4.2 0 7.56 1.44 9.9 3.9v-11.16c0-1.74 1.26-2.58 2.58-2.58s2.58.84 2.58 2.52v37.618c0 1.68-1.26 2.52-2.58 2.52zm-12.48-27.72c-6 0-9.9 4.68-9.9 11.82 0 7.2 3.9 11.88 9.9 11.88 6.06 0 9.9-4.68 9.9-11.88 0-7.14-3.84-11.82-9.9-11.82z"/><use xlink:href="#AB" x="375.772" y="61.2"/><use xlink:href="#AG" x="168.992" y="61.2"/><path d="M566.068 141.2c-1.26 0-2.52-.96-2.52-2.52v-32.16l-4.8 4.68c-.54.54-1.14.72-1.68.72-1.44 0-2.7-1.32-2.7-2.64 0-.66.24-1.26.78-1.8l8.94-8.64c.72-.66 1.5-.96 2.22-.96 1.68 0 2.4 1.68 2.4 3.06v37.678c0 1.62-1.26 2.58-2.64 2.58z"/><use xlink:href="#AM"/><use xlink:href="#AM" x="29.759"/><path d="M638.7 110.595c-3.043 0-5.526-2.763-5.526-6.155s2.483-6.12 5.526-6.12c3.008 0 5.5 2.728 5.5 6.12s-2.482 6.155-5.5 6.155zm0-9.303c-1.12 0-2.52 1.12-2.52 3.147s1.4 3.148 2.52 3.148 2.518-1.12 2.518-3.148-1.398-3.147-2.518-3.147zm14.583-1.714l-6.435 23.152a1.36 1.36 0 0 1-1.364 1.119c-.804 0-1.573-.56-1.573-1.47 0-.105 0-.28.035-.42l6.47-23.187a1.42 1.42 0 0 1 1.398-1.084c.734 0 1.54.524 1.54 1.4 0 .175-.035.314-.07.5zm4.967 23.642c-3.008 0-5.5-2.763-5.5-6.155 0-3.357 2.483-6.12 5.5-6.12 3.042 0 5.525 2.763 5.525 6.12 0 3.393-2.483 6.155-5.525 6.155zm0-9.303c-1.084 0-2.483 1.12-2.483 3.147 0 2.063 1.4 3.183 2.483 3.183 1.12 0 2.518-1.12 2.518-3.183 0-2.028-1.398-3.147-2.518-3.147zm50.24 27.343c-.66 0-1.44-.36-1.98-1.08l-12.48-17.46h-7.74v15.9c0 1.68-1.26 2.58-2.64 2.58-1.26 0-2.52-.9-2.52-2.52v-37.618c0-1.08.72-2.58 2.52-2.58h15.54c5.28 0 12.06 4.14 12.06 12.06 0 6.3-4.74 11.58-11.04 12.12l10.5 14.46a2.35 2.35 0 0 1 .539 1.56c0 1.44-1.38 2.58-2.76 2.58zm-9.36-37.68H686.3v14.04h12.78c3.9 0 7.02-3.18 7.02-7.08 0-4.08-3.48-6.96-6.96-6.96z"/><use xlink:href="#AN"/><path d="M773.53 141.2c-1.32 0-2.52-.9-2.52-2.52V122c0-4.68-3.9-8.58-8.58-8.58-4.62 0-8.52 3.9-8.52 8.58v16.62c0 1.68-1.26 2.64-2.64 2.64-1.26 0-2.52-.9-2.52-2.58v-26.82c0-1.74 1.26-2.52 2.52-2.52 1.2 0 2.28.66 2.58 1.98 2.34-1.86 5.28-3 8.58-3 7.44 0 13.68 6.18 13.68 13.68v16.62c0 1.68-1.2 2.58-2.58 2.58zm34.32-13.32h-22.2c.84 5.64 4.44 9.24 9.72 9.24 2.7 0 5.4-.96 7.14-3.12.54-.6 1.14-.96 1.86-.96 1.32 0 2.7 1.2 2.7 2.64 0 .72-.18 1.26-1.44 2.52-2.7 2.64-6.42 4.02-10.26 4.02-9.66 0-15.06-7.98-15.06-16.98 0-8.94 5.4-16.92 15.06-16.92 9.78 0 15 7.98 15 16.92 0 1.32-.96 2.64-2.52 2.64zm-12.48-14.46c-5.64 0-8.94 4.14-9.72 9.3h19.45c-.84-5.76-4.44-9.3-9.72-9.3z"/><use xlink:href="#AL" x="537.037"/><use xlink:href="#AJ" x="218.62" y="61.2"/><path d="M907.8 142.22c-6.42 0-9.84-3.54-9.9-3.6 0 1.68-1.26 2.52-2.64 2.52-1.26 0-2.52-.84-2.52-2.52v-37.558c0-1.74 1.26-2.58 2.52-2.58 1.38 0 2.64.84 2.64 2.52v11.22c2.4-2.46 5.7-3.9 9.9-3.9 9.66 0 15.06 7.92 15.06 16.92 0 9.06-5.4 16.98-15.06 16.98zm0-28.8c-6 0-9.9 4.68-9.9 11.82 0 7.2 3.9 11.88 9.9 11.88s9.9-4.68 9.9-11.88c0-7.14-3.9-11.82-9.9-11.82zm25.45 27.9c-3.24 0-6-2.76-6-6.12v-34.138c0-1.74 1.26-2.58 2.58-2.58s2.58.84 2.58 2.52V135.2c0 .72.54 1.02.84 1.02 1.68 0 2.58 1.2 2.58 2.58 0 1.32-.9 2.52-2.58 2.52z"/><use xlink:href="#AN" x="222.9"/><use xlink:href="#AA" x="876.212" y="61.2"/></g><defs ><path id="D" d="M104.714 1045.51c-.633 0-1.267-.367-1.4-1.1-1.334 1.034-2.97 1.668-4.804 1.668-4.136 0-7.604-3.436-7.604-7.605v-9.24a1.37 1.37 0 0 1 1.4-1.435c.768 0 1.468.5 1.468 1.4v9.272c0 2.602 2.168 4.77 4.736 4.77 2.603 0 4.77-2.17 4.77-4.77v-9.24c0-1.034.667-1.468 1.4-1.468.768 0 1.435.5 1.435 1.435v14.9c0 .934-.667 1.4-1.4 1.4z"/><path id="E" d="M612.87 1046.357c-1.2 0-3.22-.42-3.92-1.58-.08-.12-.08-.22-.08-.3 0-.32.28-.602.58-.602.12 0 .32.102.44.28.72.88 2 1.06 2.98 1.06 1.94 0 2.92-.64 2.92-1.94 0-3.02-6.562-1.42-6.562-5.422 0-2.02 2.02-2.8 3.84-2.8 1.04 0 2.64.36 3.44 1.16.12.12.18.26.18.38a.65.65 0 0 1-.62.6c-.12 0-.26-.04-.38-.16-.62-.6-1.74-.84-2.62-.84-1.76 0-2.7.682-2.7 1.66 0 2.8 6.562 1.32 6.562 5.422 0 2.28-2 3.08-4.06 3.08z"/><path id="F" d="M623.6 1046.318c-3.22 0-5.02-2.64-5.02-5.662 0-3 1.8-5.64 5.02-5.64s5.02 2.64 5.02 5.64c0 3.02-1.8 5.662-5.02 5.662zm0-10.162c-2.36 0-3.88 1.9-3.88 4.5s1.52 4.52 3.88 4.52c2.38 0 3.88-1.92 3.88-4.52s-1.5-4.5-3.88-4.5z"/><path id="G" d="M639.37 1045.98c-.28 0-.58-.2-.58-.56v-.64c-.84.98-2.06 1.54-3.42 1.54-2.48 0-4.56-2.08-4.56-4.56v-5.842c0-.36.3-.56.58-.56.26 0 .56.2.56.56v5.842c0 1.9 1.52 3.42 3.42 3.42s3.42-1.52 3.42-3.42v-5.842c0-.36.3-.56.58-.56.26 0 .56.2.56.56v9.502c0 .36-.3.56-.56.56z"/><path id="H" d="M647.33 1036.336a3.42 3.42 0 0 0-3.421 3.42v5.662c0 .36-.3.56-.56.56-.28 0-.58-.2-.58-.56v-9.502c0-.36.3-.56.58-.56.26 0 .56.2.56.56v.82c.9-.98 2.08-1.54 3.42-1.54.36 0 .58.3.58.56a.58.58 0 0 1-.58.58z"/><path id="I" d="M669.1 1041.236h-8.302c.18 2.28 1.66 3.94 3.84 3.94 1.08 0 2.36-.48 2.94-1.38.14-.22.3-.28.48-.28.3 0 .62.24.62.54 0 .18 0 .22-.38.658-.92 1.082-2.26 1.602-3.66 1.602-3.22 0-5.02-2.64-5.02-5.662 0-3 1.8-5.64 5.02-5.64s5.02 2.66 5.02 5.64c0 .3-.28.58-.56.58zm-4.46-5.08c-2.4 0-3.66 1.84-3.84 3.94h7.7c-.18-2.28-1.66-3.94-3.86-3.94z"/><path id="J" d="M754.585 1047.758c-.08.06-.2.08-.3.08-.32 0-.54-.28-.54-.58 0-.56.86-.64 1-1.28-.6-.04-1.08-.54-1.08-1.14 0-.68.56-1.16 1.16-1.16.98 0 1.2 1 1.2 1.62 0 .98-.52 1.92-1.44 2.46z"/><path id="K" d="M778.11 1032.455l-3.52 13.104c-.08.28-.3.42-.56.42-.24 0-.48-.14-.54-.42l-3-11.084-2.98 11.084c-.06.28-.3.42-.54.42-.26 0-.48-.14-.56-.42l-3.52-13.104c-.02-.06-.02-.12-.02-.18a.58.58 0 0 1 .58-.58c.26 0 .46.14.52.44l3 11.082 2.98-11.082a.53.53 0 0 1 .54-.4c.26 0 .48.12.56.4l2.98 11.082 3-11.082c.08-.3.28-.44.52-.44a.58.58 0 0 1 .58.58c0 .06 0 .12-.02.18z"/><path id="L" d="M800.606 1046.098c-1.08 0-1.98-1-1.98-2.12v-11.684c0-.36.3-.56.58-.56.26 0 .56.2.56.56v11.684c0 1.28 1.42.54 1.42 1.44 0 .34-.24.68-.58.68z"/><path id="M" d="M843.647 1045.98h-.02c-.66 0-1.6-.36-1.98-1.56-.84 1.18-2.14 1.9-3.88 1.9-3.26 0-5.02-2.682-5.02-5.662 0-3.02 1.8-5.64 5.02-5.64 1.74 0 3.04.72 3.88 1.88v-.98c0-.32.26-.56.58-.56.28 0 .56.2.56.56v8.063c0 1.28 1.44.48 1.44 1.44a.55.55 0 0 1-.58.561zm-5.88-9.822c-2.36 0-3.88 1.9-3.88 4.5s1.52 4.52 3.88 4.52c2.38 0 3.88-1.92 3.88-4.52s-1.5-4.5-3.88-4.5z"/><path id="N" d="M935.123 1045.98h-.62c-1.58 0-2.36-.78-2.36-2.342v-7.14h-1.02c-.36 0-.56-.3-.56-.58 0-.26.2-.56.56-.56h1.02v-3.06c0-.36.3-.56.58-.56s.56.2.56.56v3.06h1.84c.36 0 .56.3.56.56 0 .28-.2.58-.56.58h-1.84v7.14c0 .98.28 1.2 1.22 1.2h.62c.36 0 .56.3.56.58 0 .26-.2.56-.56.56z"/><path id="O" d="M394.19 706.43a4.52 4.52 0 0 1-4.536-4.537c0-2.52 2.017-4.4 4.536-4.4s4.536 1.89 4.536 4.4-2.016 4.537-4.536 4.537z"/><path id="P" d="M416.617 706.995c-4.22 0-9-2.268-11.34-5.985a2.79 2.79 0 0 1-.44-1.512c0-1.45 1.26-2.583 2.71-2.583 1.197 0 1.638.44 2.583 1.7 1.575 1.953 4.032 3.023 6.49 3.023 4.348 0 8.758-3.97 8.758-9.64 0-5.732-4.4-9.702-8.758-9.702-3.34 0-5.607 1.7-6.678 3.528-.505.945-1.387 1.45-2.458 1.45-1.638 0-2.71-1.07-2.71-3.15v-19.972c0-1.45 1.26-2.646 2.71-2.646h19.153c1.827 0 2.772 1.26 2.772 2.71 0 1.323-.882 2.646-2.646 2.646h-16.633v11.78c1.512-1.07 3.906-1.7 6.49-1.7 7.75 0 14.113 6.553 14.113 15.058 0 8.38-6.363 14.995-14.113 14.995z"/><path id="Q" d="M352.857 739.91c-2.464 0-5.823-.992-7.647-2.815-.224-.225-.288-.416-.288-.64 0-.48.448-.928.928-.928.385 0 .353.096 1.024.608 1.696 1.248 3.808 1.95 5.983 1.95 4.032 0 6.368-1.504 6.368-4.384 0-7.583-13.535-3.36-13.535-12.095 0-3.84 3.36-5.6 7.487-5.6 2.304 0 5.535.992 6.976 3.008.128.192.19.352.19.544 0 .512-.447.896-.96.896-.447 0-.447-.13-.99-.673-1.345-1.344-3.328-1.95-5.216-1.95-3.808 0-5.664 1.472-5.664 3.775 0 6.88 13.535 2.88 13.535 12.095 0 4.448-3.903 6.208-8.19 6.208z"/><path id="R" d="M378.297 739.91c-7.04 0-9.31-5.92-9.31-11.936 0-5.983 2.27-11.967 9.31-11.967 2.88 0 5.408 1.024 7.104 3.488.16.16.192.32.192.512 0 .512-.48.896-.992.896-.447 0-.704-.384-1.056-.832-1.12-1.44-2.815-2.24-5.248-2.24-4.83 0-7.487 3.712-7.487 10.143 0 4.864 1.536 10.11 7.487 10.11 5.056 0 7.264-3.87 7.488-9.183h-3.904c-.64 0-.96-.48-.96-.93s.32-.928.896-.928h4.863c.544 0 .928.384.928.928 0 6.24-2.464 11.936-9.312 11.936z"/><path id="S" d="M60.17 449.052h-6.207v20.095c0 .575-.448.896-.928.896-.416 0-.896-.288-.896-.896v-20.095h-6.207c-.576 0-.93-.416-.93-.896a.88.88 0 0 1 .929-.896H60.17c.576 0 .896.448.896.896s-.32.896-.896.896z"/><path id="T" d="M67.464 470.586c-5.15 0-8.03-4.224-8.03-9.056 0-4.8 2.88-9.023 8.03-9.023s8.03 4.225 8.03 9.023c0 4.832-2.88 9.056-8.03 9.056zm0-16.255c-3.775 0-6.207 3.04-6.207 7.2s2.432 7.23 6.207 7.23c3.808 0 6.208-3.07 6.208-7.23s-2.4-7.2-6.208-7.2z"/><path id="U" d="M103.11 470.042h-.03c-1.057 0-2.56-.576-3.168-2.496-1.344 1.888-3.424 3.04-6.208 3.04-5.216 0-8.03-4.288-8.03-9.056 0-4.83 2.88-9.023 8.03-9.023 2.784 0 4.864 1.152 6.208 3.008v-1.567c0-.512.416-.896.928-.896.448 0 .896.32.896.896v12.895c0 2.048 2.305.77 2.305 2.305 0 .416-.288.896-.93.896zm-9.407-15.71c-3.775 0-6.207 3.04-6.207 7.2s2.432 7.23 6.207 7.23c3.808 0 6.208-3.07 6.208-7.23s-2.4-7.2-6.208-7.2z"/><path id="V" d="M108.84 470.234c-1.728 0-3.167-1.6-3.167-3.393v-18.687c0-.575.48-.896.928-.896.416 0 .896.32.896.896v18.687c0 2.048 2.272.864 2.272 2.305 0 .544-.385 1.088-.93 1.088z"/><path id="W" d="M130.98 468.154c-1.407 1.567-3.36 2.432-5.728 2.432-5.15 0-8.03-4.224-8.03-9.056 0-4.8 2.88-9.023 8.03-9.023 2.368 0 4.32.864 5.728 2.433.192.19.256.416.256.607 0 .48-.447.96-.928.96-.224 0-.448-.096-.672-.32-1.056-1.184-2.527-1.855-4.384-1.855-3.775 0-6.207 3.04-6.207 7.2s2.432 7.23 6.207 7.23c1.856 0 3.328-.703 4.384-1.855.224-.224.448-.32.672-.32a.95.95 0 0 1 .928.929c0 .224-.063.415-.256.64z"/><path id="X" d="M156.998 470.65c-1.92 0-5.152-.673-6.272-2.528-.128-.192-.128-.352-.128-.48 0-.513.448-.96.93-.96.19 0 .512.16.703.447 1.152 1.408 3.2 1.696 4.77 1.696 3.104 0 4.67-1.024 4.67-3.104 0-4.832-10.495-2.272-10.495-8.672 0-3.23 3.232-4.48 6.144-4.48 1.664 0 4.224.576 5.504 1.855.19.192.288.416.288.608 0 .48-.48.96-.992.96a.85.85 0 0 1-.608-.256c-.99-.96-2.783-1.344-4.19-1.344-2.815 0-4.32 1.088-4.32 2.655 0 4.48 10.495 2.112 10.495 8.672 0 3.647-3.2 4.928-6.495 4.928z"/><path id="Y" d="M171.43 470.042h-.992c-2.527 0-3.775-1.248-3.775-3.744v-11.423h-1.632c-.576 0-.896-.48-.896-.928 0-.416.32-.896.896-.896h1.632v-4.896c0-.575.48-.896.928-.896s.896.32.896.896v4.896h2.944c.576 0 .896.48.896.896 0 .448-.32.928-.896.928h-2.944v11.423c0 1.568.448 1.92 1.952 1.92h.992c.576 0 .896.48.896.93 0 .416-.32.896-.896.896z"/><path id="Z" d="M204.23 449.052h-.992c-.768 0-1.408.64-1.408 1.376v2.623h2.4c.607 0 .896.48.896.896 0 .448-.32.928-.896.928h-2.4v14.27c0 .575-.447.896-.896.896s-.896-.288-.896-.896v-14.27h-2.207c-.576 0-.896-.48-.896-.928 0-.416.32-.896.896-.896h2.207v-2.623c0-1.76 1.44-3.168 3.168-3.168h1.024c.576 0 .928.448.928.928 0 .448-.32.864-.928.864z"/><path id="a" d="M154.698 502.042c-.48 0-.896-.352-.896-.896v-19.135l-3.487 3.392a.79.79 0 0 1-.608.288c-.512 0-.96-.48-.96-.992 0-.192.128-.416.288-.608l5.056-4.896c.256-.19.512-.256.607-.256.673 0 .93.48.93 1.12v21.087c0 .544-.385.896-.93.896z"/><path id="b" d="M194.824 486.235l-5.215 15.04c-.225.607-.513.768-.93.768-.544 0-.703-.192-.896-.768l-4.19-12.48-4.192 12.48c-.224.607-.512.768-.928.768s-.735-.256-.896-.768l-5.184-15.04c-.032-.097-.064-.256-.064-.353 0-.512.512-.832.928-.832.32 0 .704.16.832.608l4.384 12.67 4.192-12.51c.19-.608.384-.77.928-.77.384 0 .704.13.896.77l4.256 12.51 4.32-12.67c.16-.448.48-.608.832-.608.48 0 .992.32.992.864 0 .128-.032.224-.064.32z"/><path id="c" d="M223.24 486.62a5.47 5.47 0 0 0-5.472 5.472v9.056c0 .575-.48.896-.896.896-.448 0-.928-.32-.928-.896v-15.2c0-.576.48-.896.928-.896.416 0 .896.32.896.896v1.312c1.44-1.567 3.328-2.464 5.472-2.464a.92.92 0 0 1 .928.896c0 .447-.352.928-.928.928z"/><path id="d" d="M693.016 250.027c-1.323 0-2.646-1.008-2.646-2.646v-33.77l-5.04 4.914c-.567.567-1.197.756-1.765.756-1.512 0-2.835-1.386-2.835-2.77 0-.693.252-1.323.82-1.89l9.388-9.072c.756-.693 1.575-1.008 2.33-1.008 1.764 0 2.52 1.764 2.52 3.213v39.566c0 1.7-1.323 2.71-2.772 2.71z"/><path id="e" d="M704.79 287.22c-1.728 0-3.167-1.6-3.167-3.393V265.14c0-.575.48-.896.928-.896.416 0 .896.32.896.896v18.687c0 2.048 2.272.864 2.272 2.305 0 .544-.385 1.088-.93 1.088z"/><path id="f" d="M733.238 287.57c-2.784 0-4.864-1.152-6.208-3.04v1.6c0 .575-.48.896-.896.896-.448 0-.928-.32-.928-.896v-20.99c0-.575.48-.896.928-.896.416 0 .896.32.896.896v7.36c1.344-1.855 3.424-3.008 6.208-3.008 5.15 0 8.03 4.225 8.03 9.023 0 4.832-2.88 9.056-8.03 9.056zm0-16.255c-3.808 0-6.208 3.04-6.208 7.2s2.4 7.23 6.208 7.23 6.207-3.07 6.207-7.23-2.4-7.2-6.207-7.2z"/><path id="g" d="M828.822 287.027h-.992c-2.527 0-3.775-1.248-3.775-3.744V271.86h-1.632c-.576 0-.896-.48-.896-.928 0-.416.32-.896.896-.896h1.632v-4.896c0-.575.48-.896.928-.896s.896.32.896.896v4.896h2.944c.576 0 .896.48.896.896 0 .448-.32.928-.896.928h-2.944v11.423c0 1.568.448 1.92 1.952 1.92h.992c.576 0 .896.48.896.93 0 .416-.32.896-.896.896z"/><path id="h" d="M892.978 287.027c-.447 0-.928-.32-.928-.896v-9.344a5.45 5.45 0 0 0-5.472-5.472 5.47 5.47 0 0 0-5.472 5.472v9.344c0 .575-.48.896-.896.896-.448 0-.928-.32-.928-.896v-20.99c0-.575.48-.896.928-.896.416 0 .896.32.896.896v6.815c1.344-1.567 3.296-2.464 5.472-2.464 3.968 0 7.296 3.296 7.296 7.296v9.344c0 .575-.48.896-.896.896z"/><path id="i" d="M911.283 279.444h-13.28c.288 3.647 2.656 6.303 6.144 6.303 1.73 0 3.776-.768 4.704-2.207.224-.353.48-.448.768-.448.48 0 .992.384.992.863 0 .288 0 .353-.608 1.057-1.472 1.728-3.615 2.56-5.855 2.56-5.15 0-8.03-4.224-8.03-9.056 0-4.8 2.88-9.023 8.03-9.023s8.03 4.256 8.03 9.023c0 .48-.447.93-.895.93zm-7.136-8.128c-3.84 0-5.855 2.944-6.144 6.304h12.32c-.288-3.647-2.656-6.304-6.176-6.304z"/><path id="j" d="M957 287.57c-6.784 0-6.848-8.127-6.848-12.8 0-4.576.703-11.104 6.815-11.104 5.983 0 6.88 6.144 6.88 11.104 0 4.64-.096 12.8-6.847 12.8zm5.023-12.8c0-4.576-.64-9.28-5.023-9.28-4.8 0-5.024 5.888-5.024 9.28v2.048c0 3.712.704 8.927 4.992 8.927 4.384 0 5.056-5.215 5.056-8.927v-2.048z"/><path id="k" d="M693.27 298.964a1.8 1.8 0 1 1 0-3.647 1.8 1.8 0 1 1 0 3.647zm0 20.063c-.448 0-.928-.288-.928-.896v-15.2c0-.576.447-.896.928-.896.416 0 .896.288.896.896v15.2c0 .575-.416.896-.896.896z"/><path id="l" d="M711.125 319.027c-.447 0-.928-.32-.928-.896v-9.344a5.45 5.45 0 0 0-5.472-5.472 5.47 5.47 0 0 0-5.472 5.472v9.344c0 .575-.48.896-.896.896-.448 0-.928-.32-.928-.896v-15.2c0-.576.48-.896.928-.896.416 0 .896.32.896.896v1.023c1.44-1.567 3.328-2.464 5.472-2.464 3.968 0 7.296 3.296 7.296 7.296v9.344c0 .575-.48.896-.896.896z"/><path id="m" d="M375.386 287.167h-.992c-2.527 0-3.775-1.248-3.775-3.744V272h-1.632c-.576 0-.896-.48-.896-.928 0-.416.32-.896.896-.896h1.632v-4.896c0-.575.48-.896.928-.896s.896.32.896.896v4.896h2.944c.576 0 .896.48.896.896 0 .448-.32.928-.896.928h-2.944v11.423c0 1.568.448 1.92 1.952 1.92h.992c.576 0 .896.48.896.93 0 .416-.32.896-.896.896z"/><path id="n" d="M426.584 287.36c-1.728 0-3.167-1.6-3.167-3.393V265.28c0-.575.48-.896.928-.896.416 0 .896.32.896.896v18.687c0 2.048 2.272.864 2.272 2.305 0 .544-.385 1.088-.93 1.088z"/><path id="o" d="M517.044 279.584h-13.28c.288 3.647 2.656 6.303 6.144 6.303 1.73 0 3.776-.768 4.704-2.207.224-.353.48-.448.768-.448.48 0 .992.384.992.863 0 .288 0 .353-.608 1.057-1.472 1.728-3.615 2.56-5.855 2.56-5.15 0-8.03-4.224-8.03-9.056 0-4.8 2.88-9.023 8.03-9.023s8.03 4.256 8.03 9.023c0 .48-.447.93-.896.93zm-7.136-8.128c-3.84 0-5.855 2.944-6.144 6.304h12.32c-.288-3.647-2.656-6.304-6.176-6.304z"/><path id="p" d="M576.05 287.167c-.448 0-.928-.32-.928-.896v-1.6c-1.344 1.888-3.424 3.04-6.208 3.04-5.15 0-8.03-4.224-8.03-9.056 0-4.8 2.88-9.023 8.03-9.023 2.784 0 4.864 1.152 6.208 3.008v-7.36c0-.575.48-.896.928-.896.416 0 .896.32.896.896v20.99c0 .575-.48.896-.896.896zm-7.136-15.71c-3.775 0-6.207 3.04-6.207 7.2s2.432 7.23 6.207 7.23c3.808 0 6.208-3.07 6.208-7.23s-2.4-7.2-6.208-7.2z"/><path id="q" d="M347.29 317.515c-1.232 1.372-2.94 2.128-5.013 2.128-4.508 0-7.027-3.695-7.027-7.924 0-4.2 2.52-7.896 7.027-7.896 2.072 0 3.78.756 5.013 2.128a.74.74 0 0 1 .224.532c0 .42-.392.84-.812.84-.195 0-.392-.084-.588-.28-.924-1.036-2.212-1.624-3.836-1.624-3.304 0-5.432 2.66-5.432 6.3s2.128 6.328 5.432 6.328c1.624 0 2.912-.616 3.836-1.624.196-.196.393-.28.588-.28.42 0 .813.364.813.813 0 .196-.056.364-.224.56z"/><path id="r" d="M364.368 319.167h-.028c-.924 0-2.24-.504-2.77-2.184-1.177 1.65-2.996 2.66-5.433 2.66-4.563 0-7.027-3.752-7.027-7.924 0-4.228 2.52-7.896 7.027-7.896 2.437 0 4.256 1.008 5.433 2.632v-1.372c0-.448.363-.784.812-.784.393 0 .784.28.784.784v11.284c0 1.792 2.016.672 2.016 2.016 0 .364-.252.784-.812.784zm-8.232-13.748c-3.304 0-5.432 2.66-5.432 6.3s2.128 6.328 5.432 6.328c3.332 0 5.433-2.687 5.433-6.328s-2.1-6.3-5.433-6.3z"/><path id="s" d="M372.992 305.67c-2.632 0-4.788 2.128-4.788 4.788v7.924c0 .504-.42.784-.783.784-.393 0-.812-.28-.812-.784v-13.3c0-.504.42-.784.813-.784.363 0 .783.28.783.784v1.148c1.26-1.372 2.912-2.156 4.788-2.156.504 0 .813.42.813.784 0 .392-.31.812-.812.812z"/><path id="t" d="M379.403 319.7c-1.68 0-4.508-.588-5.487-2.212-.112-.168-.112-.31-.112-.42 0-.448.392-.84.812-.84.168 0 .448.14.616.393 1.008 1.23 2.8 1.483 4.172 1.483 2.717 0 4.088-.896 4.088-2.716 0-4.228-9.184-1.987-9.184-7.588 0-2.828 2.828-3.92 5.376-3.92 1.456 0 3.696.504 4.816 1.624.168.168.252.364.252.532 0 .42-.42.84-.868.84a.74.74 0 0 1-.532-.224c-.868-.84-2.436-1.177-3.668-1.177-2.464 0-3.78.952-3.78 2.324 0 3.92 9.185 1.85 9.185 7.588 0 3.192-2.8 4.312-5.685 4.312z"/><path id="u" d="M449.15 319.167h-.868c-2.212 0-3.304-1.092-3.304-3.276v-9.995h-1.428c-.504 0-.784-.42-.784-.812 0-.364.28-.784.784-.784h1.428v-4.284c0-.504.42-.783.812-.783s.784.28.784.783v4.284h2.576c.504 0 .784.42.784.784 0 .392-.28.813-.784.813h-2.576v9.995c0 1.372.393 1.68 1.708 1.68h.868c.504 0 .784.42.784.812 0 .364-.28.784-.784.784z"/><path id="v" d="M457.746 325.55c-2.38 0-5.74-.896-5.74-1.903 0-.448.363-.896.812-.896.308 0 .952.476 1.484.672.728.252 1.876.532 3.443.532 3.584 0 5.433-1.764 5.433-5.208v-1.96c-1.232 1.483-2.996 2.38-5.433 2.38-4.424 0-7.027-3.136-7.027-7.448 0-4.2 2.52-7.896 7.027-7.896 2.437 0 4.256 1.008 5.433 2.632v-1.344c0-.504.42-.784.812-.784.364 0 .784.28.784.784v13.636c0 4.452-2.66 6.804-7.028 6.804zm0-20.132c-3.304 0-5.432 2.66-5.432 6.3 0 3.612 1.988 5.853 5.432 5.853s5.433-2.24 5.433-5.853c0-3.64-2.1-6.3-5.433-6.3z"/><path id="w" d="M513.38 312.53h-11.62c.252 3.19 2.324 5.516 5.376 5.516 1.513 0 3.305-.672 4.116-1.932.196-.31.42-.393.672-.393.42 0 .868.336.868.757 0 .252 0 .308-.532.924-1.288 1.512-3.164 2.24-5.124 2.24-4.508 0-7.027-3.695-7.027-7.924 0-4.2 2.52-7.896 7.027-7.896s7.028 3.724 7.028 7.896c0 .42-.392.813-.784.813zm-6.244-7.112c-3.36 0-5.124 2.576-5.376 5.516h10.78c-.252-3.19-2.324-5.516-5.404-5.516z"/><path id="x" d="M244.896 592.042c-.392 0-.812-.28-.812-.784v-8.176a4.77 4.77 0 0 0-4.788-4.788c-2.632 0-4.788 2.128-4.788 4.788v8.176c0 .504-.42.784-.784.784-.392 0-.812-.28-.812-.784v-13.3c0-.504.42-.784.812-.784.364 0 .784.28.784.784v.896c1.26-1.372 2.912-2.155 4.788-2.155a6.44 6.44 0 0 1 6.384 6.384v8.176c0 .504-.42.784-.784.784z"/><path id="y" d="M87.588 283.683h-.03c-1.057 0-2.56-.576-3.168-2.496-1.344 1.888-3.424 3.04-6.208 3.04-5.216 0-8.03-4.288-8.03-9.056 0-4.83 2.88-9.023 8.03-9.023 2.784 0 4.864 1.152 6.208 3.008v-1.567c0-.512.416-.896.928-.896.448 0 .896.32.896.896v12.895c0 2.048 2.305.77 2.305 2.305 0 .416-.288.895-.93.895zm-9.407-15.71c-3.775 0-6.207 3.04-6.207 7.2s2.432 7.23 6.207 7.23c3.808 0 6.208-3.07 6.208-7.23s-2.4-7.2-6.208-7.2z"/><path id="z" d="M86.798 80.06c-1.14 0-2.28-.66-2.52-1.98-2.4 1.86-5.34 3-8.64 3-7.44 0-13.68-6.18-13.68-13.68v-16.62c0-1.68 1.26-2.58 2.52-2.58 1.38 0 2.64.9 2.64 2.52V67.4c0 4.68 3.9 8.58 8.52 8.58 4.68 0 8.58-3.9 8.58-8.58v-16.62c0-1.86 1.2-2.64 2.52-2.64 1.38 0 2.58.9 2.58 2.58v26.82c0 1.68-1.2 2.52-2.52 2.52z"/><path id="AA" d="M105.458 81.02c-3.3 0-8.82-1.02-11.64-4.5-.36-.54-.54-1.08-.54-1.56 0-1.5 1.44-2.7 2.7-2.7.72 0 1.26.36 1.86 1.02 1.86 2.04 4.92 2.64 7.62 2.64 5.4 0 7.14-1.86 7.14-4.56 0-7.68-18.3-2.94-18.3-15.3 0-6.54 6.12-8.94 11.82-8.94 3.24 0 10.86 1.62 10.86 4.98 0 1.32-1.08 2.7-2.52 2.7-.54 0-1.38-.3-1.98-.78-1.62-1.38-3.96-1.8-6.36-1.8-4.98 0-6.72 1.86-6.72 3.84 0 7.14 18.36 2.52 18.36 15.3 0 7.08-5.94 9.66-12.3 9.66z"/><path id="AB" d="M131.678 80h-1.02c-5.7 0-7.86-3-7.86-7.92v-18.84h-1.8c-1.44 0-2.58-1.14-2.58-2.52 0-1.44 1.14-2.58 2.52-2.58h1.8v-8.34c0-1.68 1.26-2.52 2.58-2.52s2.52.84 2.52 2.52v8.34h3.84c1.68 0 2.52 1.38 2.52 2.52 0 1.44-.96 2.58-2.52 2.58h-3.84v19.38c0 1.68.6 2.28 2.28 2.28h1.5c1.56 0 2.58 1.14 2.58 2.52 0 1.44-.96 2.58-2.52 2.58z"/><path id="AC" d="M272.16 42.382h-9.96v35.1c0 1.62-1.2 2.52-2.52 2.52-1.26 0-2.58-.9-2.58-2.52v-35.1h-9.84c-1.74 0-2.64-1.32-2.64-2.58 0-1.2.9-2.52 2.58-2.52h24.96c1.68 0 2.58 1.32 2.58 2.52 0 1.26-.9 2.58-2.58 2.58z"/><path id="AD" d="M290.82 52.222c-4.62 0-8.52 3.9-8.52 8.58v16.62c0 1.68-1.26 2.58-2.64 2.58-1.26 0-2.52-.9-2.52-2.52v-26.76c0-1.68 1.38-2.58 2.52-2.58 1.2 0 2.34.66 2.58 2.04a13.88 13.88 0 0 1 8.58-3.06c1.74 0 2.64 1.2 2.64 2.58 0 1.32-.9 2.52-2.64 2.52z"/><path id="AE" d="M298.5 43.282a4.3 4.3 0 1 1 0-8.64 4.3 4.3 0 1 1 0 8.64zm0 36.72c-1.32 0-2.64-.9-2.64-2.52v-26.76c0-1.68 1.32-2.58 2.64-2.58 1.26 0 2.52.9 2.52 2.58v26.76c0 1.68-1.26 2.52-2.52 2.52z"/><path id="AF" d="M314.22 80.12c-3.24 0-6-2.76-6-6.12V39.862c0-1.74 1.26-2.58 2.58-2.58s2.58.84 2.58 2.52V74c0 .72.54 1.02.84 1.02 1.68 0 2.58 1.2 2.58 2.58 0 1.32-.9 2.52-2.58 2.52z"/><path id="AG" d="M357.658 81.02c-9.66 0-15.06-7.92-15.06-16.98 0-9 5.4-16.92 15.06-16.92s15.06 7.92 15.06 16.92c0 9.06-5.4 16.98-15.06 16.98zm0-28.8c-6 0-9.9 4.68-9.9 11.82 0 7.2 3.9 11.88 9.9 11.88 6.06 0 9.9-4.68 9.9-11.88 0-7.14-3.84-11.82-9.9-11.82z"/><path id="AH" d="M402.237 80c-1.32 0-2.52-.9-2.52-2.52V60.8c0-4.68-3.9-8.58-8.58-8.58-4.62 0-8.52 3.9-8.52 8.58v16.62c0 1.68-1.26 2.64-2.64 2.64-1.26 0-2.52-.9-2.52-2.58v-26.82c0-1.74 1.26-2.52 2.52-2.52 1.2 0 2.28.66 2.58 1.98 2.34-1.86 5.28-3 8.58-3 7.44 0 13.68 6.18 13.68 13.68v16.62c0 1.68-1.2 2.58-2.58 2.58z"/><path id="AI" d="M636.474 52.222c-4.62 0-8.52 3.9-8.52 8.58v16.62c0 1.68-1.26 2.58-2.64 2.58-1.26 0-2.52-.9-2.52-2.52v-26.76c0-1.68 1.38-2.58 2.52-2.58 1.2 0 2.34.66 2.58 2.04 2.34-1.92 5.52-3.06 8.58-3.06 1.74 0 2.64 1.2 2.64 2.58 0 1.32-.9 2.52-2.64 2.52z"/><path id="AJ" d="M668.38 80c-3.3 0-4.8-2.34-5.34-3.42-2.4 2.64-5.88 4.44-10.56 4.44-9.78 0-15.06-8.04-15.06-16.98s5.4-16.92 15.06-16.92c4.2 0 7.56 1.5 9.9 3.96v-.24c0-.66.24-2.7 2.52-2.7 1.26 0 2.64.66 2.64 2.52v23.16c0 .78.54 1.08.84 1.08 1.68 0 2.58 1.2 2.58 2.58 0 1.26-.9 2.52-2.58 2.52zm-15.9-27.78c-6 0-9.9 4.68-9.9 11.82 0 7.2 3.9 11.88 9.9 11.88 6.06 0 9.9-4.68 9.9-11.88 0-7.14-3.84-11.82-9.9-11.82z"/><path id="AK" d="M111.818 127.88h-22.2c.84 5.64 4.44 9.24 9.72 9.24 2.7 0 5.4-.96 7.14-3.12.54-.6 1.14-.96 1.86-.96 1.32 0 2.7 1.2 2.7 2.64 0 .72-.18 1.26-1.44 2.52-2.7 2.64-6.42 4.02-10.26 4.02-9.66 0-15.06-7.98-15.06-16.98 0-8.94 5.4-16.92 15.06-16.92 9.78 0 15 7.98 15 16.92 0 1.32-.96 2.64-2.52 2.64zm-12.48-14.46c-5.64 0-8.94 4.14-9.72 9.3h19.44c-.84-5.76-4.44-9.3-9.72-9.3z"/><path id="AL" d="M317.313 112.762l-9.3 26.34c-.48 1.32-1.32 2.1-2.64 2.1-1.26 0-1.98-.54-2.52-2.1l-7.02-19.8-7.08 19.8c-.48 1.44-1.32 2.1-2.58 2.1-1.2 0-2.04-.66-2.52-2.1l-9.24-26.34c-.12-.36-.12-.6-.12-.96 0-1.5 1.38-2.46 2.64-2.46.96 0 1.92.48 2.34 1.68l6.96 20.04 7.08-19.62c.48-1.38 1.08-2.1 2.52-2.1 1.32 0 2.04.66 2.52 2.1l7.02 19.62 7.02-20.04c.42-1.2 1.38-1.68 2.28-1.68 1.38 0 2.76 1.02 2.76 2.52 0 .3 0 .54-.12.9z"/><path id="AM" d="M586.168 142.22c-12.84 0-12.84-15.24-12.84-24 0-8.46 1.32-20.82 12.78-20.82s12.9 12.06 12.9 20.82c0 9.12-.24 24-12.84 24zm7.68-24c0-5.28-.12-15.66-7.68-15.66s-7.68 10.38-7.68 15.66v3.36c0 6.24.84 15.54 7.62 15.54 6.9 0 7.74-9.3 7.74-15.54v-3.36z"/><path id="AN" d="M742.15 127.88h-22.2c.84 5.64 4.44 9.24 9.72 9.24 2.7 0 5.4-.96 7.14-3.12.54-.6 1.14-.96 1.86-.96 1.32 0 2.7 1.2 2.7 2.64 0 .72-.18 1.26-1.44 2.52-2.7 2.64-6.42 4.02-10.26 4.02-9.66 0-15.06-7.98-15.06-16.98 0-8.94 5.4-16.92 15.06-16.92 9.78 0 15 7.98 15 16.92 0 1.32-.96 2.64-2.52 2.64zm-12.48-14.46c-5.64 0-8.94 4.14-9.72 9.3h19.438c-.84-5.76-4.44-9.3-9.72-9.3z"/></defs></svg>