<svg xmlns="http://www.w3.org/2000/svg" xmlns:xlink="http://www.w3.org/1999/xlink" viewBox="0 0 1080 1080"><linearGradient id="A" gradientUnits="userSpaceOnUse" x1="11.716" y1="11.716" x2="1068.284" y2="1068.284"><stop offset="0" stop-color="#000428"/><stop offset=".233" stop-color="#001a48"/><stop offset=".57" stop-color="#003670"/><stop offset=".837" stop-color="#004889"/><stop offset="1" stop-color="#004e92"/></linearGradient><path d="M1040 1080H40c-22.09 0-40-17.91-40-40V40C0 17.91 17.91 0 40 0h1000c22.09 0 40 17.91 40 40v1000c0 22.09-17.91 40-40 40z" fill="url(#A)"/><g fill="#0075a3"><path d="M44.228 1046.045c-3.568 0-5.47-1.97-5.503-2.002 0 .935-.7 1.4-1.468 1.4-.7 0-1.4-.467-1.4-1.4v-20.88a1.35 1.35 0 0 1 1.401-1.434c.767 0 1.468.467 1.468 1.4v6.238c1.334-1.368 3.168-2.17 5.503-2.17 5.37 0 8.373 4.403 8.373 9.406 0 5.037-3.002 9.44-8.373 9.44zm0-16c-3.335 0-5.503 2.602-5.503 6.57 0 4.003 2.168 6.604 5.503 6.604s5.504-2.602 5.504-6.604c0-3.97-2.168-6.57-5.504-6.57zm25.555 8.037h-12.34c.467 3.136 2.468 5.137 5.403 5.137 1.5 0 3.002-.533 3.97-1.734.3-.333.634-.533 1.034-.533.734 0 1.5.667 1.5 1.468 0 .4-.1.7-.8 1.4-1.5 1.468-3.57 2.235-5.704 2.235-5.37 0-8.372-4.437-8.372-9.44 0-4.97 3.002-9.406 8.372-9.406 5.437 0 8.34 4.437 8.34 9.406 0 .734-.534 1.468-1.4 1.468zm-6.937-8.038c-3.136 0-4.97 2.3-5.403 5.17H68.25c-.467-3.202-2.468-5.17-5.403-5.17zm27.054 15.444c-1.834 0-2.668-1.3-2.97-1.9-1.334 1.468-3.27 2.47-5.87 2.47-5.437 0-8.372-4.47-8.372-9.44s3.002-9.406 8.372-9.406c2.335 0 4.203.834 5.504 2.202v-.134c0-.367.133-1.5 1.4-1.5.7 0 1.468.367 1.468 1.4v12.875c0 .434.3.6.467.6.935 0 1.435.667 1.435 1.434a1.37 1.37 0 0 1-1.435 1.401zm-8.84-15.443c-3.336 0-5.504 2.602-5.504 6.57 0 4.003 2.168 6.604 5.504 6.604 3.37 0 5.504-2.602 5.504-6.604 0-3.97-2.135-6.57-5.504-6.57z"/><use xlink:href="#I"/><path d="M117.058 1045.478h-.567c-3.17 0-4.37-1.668-4.37-4.403V1030.6h-1c-.8 0-1.435-.634-1.435-1.4 0-.8.634-1.435 1.4-1.435h1v-4.637c0-.934.7-1.4 1.435-1.4s1.4.467 1.4 1.4v4.637h2.135c.934 0 1.4.768 1.4 1.4 0 .8-.533 1.434-1.4 1.434h-2.135v10.774c0 .934.333 1.268 1.268 1.268h.833c.868 0 1.435.634 1.435 1.4 0 .8-.533 1.435-1.4 1.435zm4.604-20.415a2.402 2.402 0 1 1 0-4.803 2.402 2.402 0 1 1 0 4.803zm0 20.414c-.733 0-1.467-.5-1.467-1.4V1029.2c0-.935.733-1.435 1.467-1.435a1.37 1.37 0 0 1 1.401 1.435v14.876c0 .935-.7 1.4-1.4 1.4zm10.376-14.877h-1.5v13.442c0 .935-.7 1.4-1.468 1.4-.7 0-1.4-.467-1.4-1.4V1030.6h-1.37c-.9 0-1.4-.667-1.4-1.4 0-.768.5-1.435 1.4-1.435h1.367v-2.27c0-2.135 1.77-3.77 3.836-3.77.968 0 1.468.667 1.468 1.434 0 .7-.5 1.4-1.468 1.4-.566 0-.967.434-.967.9v2.302h1.5c.967 0 1.468.667 1.468 1.435 0 .733-.5 1.4-1.468 1.4z"/><use xlink:href="#I" x="42.068"/><path d="M156.625 1045.544c-1.802 0-3.336-1.534-3.336-3.402v-18.98c0-.967.7-1.434 1.435-1.434s1.435.467 1.435 1.4v19.013c0 .4.3.567.467.567.934 0 1.435.667 1.435 1.435 0 .733-.5 1.4-1.435 1.4zm15.37-.066v-1.264c1.886-.237 2.046-.437 2.046-3.157v-6.7c0-2.8-1.248-4.017-3.064-4.017-1.237 0-2.345.6-3.47 1.493v9.476c0 2.527.187 2.658 2.06 2.896v1.264h-8.968v-1.264c2.254-.33 2.5-.4 2.5-3v-8.2c0-2.446-.303-2.565-2.185-2.922v-1.184c2.173-.292 4.63-.807 6.653-1.533l-.052 2.95 2.6-1.745c1.16-.713 2-1.086 3.16-1.086 3.194 0 5.2 2.338 5.2 6.3v7.5c0 2.54.237 2.657 2.277 2.92v1.264h-8.74zm23.9-3.703c-2.458 3.427-5.488 4.178-7.014 4.178-5.142 0-8.124-3.936-8.124-8.594 0-2.745 1.183-5.396 2.832-7.062 1.74-1.8 3.945-2.814 6.082-2.814 3.73 0 6.396 3.126 6.37 6.347-.014.715-.08 1.277-.612 1.4-.767.184-6.17.5-10.318.647.062 4.587 2.717 6.74 5.556 6.74 1.572 0 3.104-.597 4.543-1.866l.686 1.014zm-7.07-12.7c-1.667 0-3.167 1.807-3.516 4.963l5.486-.118c.6-.026.848-.146.848-.792.04-2.022-1.037-4.053-2.818-4.053zm34.284.145c-1.943.343-2.248.624-3.105 2.765-1.33 3.462-3.102 8.53-4.934 13.94h-1.512l-4.65-11.46-4.55 11.46h-1.472l-4.685-14.192c-.687-1.985-.94-2.274-2.855-2.512v-1.25h9.397v1.25c-2.325.345-2.535.672-2.058 2.133l2.52 8.214c1.507-3.68 2.988-7.62 4.327-11.424H211c1.4 3.76 2.986 7.702 4.573 11.568.742-2.107 2.062-5.964 2.557-8.108.412-1.674-.008-2.078-2.753-2.383v-1.25h7.742v1.25z"/><path d="M232.528 1032.956c-.92-2.606-2.155-3.984-4.21-3.984-1.206 0-2.225.86-2.225 2.266 0 1.497 1.046 2.264 3.16 3.216 3.278 1.496 5.3 2.787 5.3 5.736 0 3.85-3.6 5.764-6.945 5.764-2.06 0-4.088-.737-4.92-1.16l-.662-4.892 1.252-.224c.8 2.51 2.33 4.75 4.976 4.75 1.505 0 2.438-.952 2.438-2.28 0-1.423-.76-2.333-3.092-3.467-2.67-1.295-5.107-2.64-5.107-5.775 0-3.046 2.533-5.42 6.565-5.42 1.818 0 3.242.396 4.112.567l.62 4.577-1.25.328z"/></g><g fill="#009ccc"><path d="M744.482 1046.357c-1.2 0-3.22-.42-3.92-1.58-.08-.12-.08-.22-.08-.3 0-.32.28-.6.58-.6.12 0 .32.1.44.28.72.88 2 1.06 2.98 1.06 1.94 0 2.92-.64 2.92-1.94 0-3.02-6.562-1.42-6.562-5.422 0-2.02 2.02-2.8 3.84-2.8 1.04 0 2.64.36 3.44 1.16.12.12.18.26.18.38a.65.65 0 0 1-.62.6.53.53 0 0 1-.38-.16c-.62-.6-1.74-.84-2.62-.84-1.76 0-2.7.68-2.7 1.66 0 2.8 6.562 1.32 6.562 5.422 0 2.28-2 3.08-4.06 3.08z"/><use xlink:href="#J"/><path d="M769.382 1045.978c-.28 0-.58-.2-.58-.56v-.64c-.84.98-2.06 1.54-3.42 1.54-2.48 0-4.56-2.08-4.56-4.56v-5.842c0-.36.3-.56.58-.56.26 0 .56.2.56.56v5.842c0 1.9 1.52 3.42 3.42 3.42s3.42-1.52 3.42-3.42v-5.842c0-.36.3-.56.58-.56.26 0 .56.2.56.56v9.502c0 .36-.3.56-.56.56z"/><use xlink:href="#K"/><use xlink:href="#L"/><path d="M796.702 1041.236H788.4c.18 2.28 1.66 3.94 3.84 3.94 1.08 0 2.36-.48 2.94-1.38.14-.22.3-.28.48-.28.3 0 .62.24.62.54 0 .18 0 .22-.38.66-.92 1.08-2.26 1.6-3.66 1.6-3.22 0-5.02-2.64-5.02-5.66 0-3 1.8-5.64 5.02-5.64s5.02 2.66 5.02 5.64c0 .3-.28.58-.56.58zm-4.46-5.08c-2.4 0-3.66 1.84-3.84 3.94h7.7c-.18-2.28-1.66-3.94-3.86-3.94zm7.638 3.26c-.64 0-1.16-.5-1.16-1.14s.52-1.14 1.16-1.14c.62 0 1.12.5 1.12 1.14s-.5 1.14-1.12 1.14zm0 6.562c-.64 0-1.16-.5-1.16-1.14s.52-1.14 1.16-1.14c.62 0 1.12.5 1.12 1.14s-.5 1.14-1.12 1.14zm9.54 0h-2.28c-.36 0-.58-.3-.58-.56a.58.58 0 0 1 .58-.58h.56v-11.982h-.56c-.36 0-.58-.28-.58-.56s.22-.56.58-.56h2.28c.36 0 .56.28.56.56s-.2.56-.56.56h-.58v11.982h.58c.36 0 .56.3.56.58 0 .26-.2.56-.56.56z"/><use xlink:href="#M"/><use xlink:href="#N"/><use xlink:href="#O"/><use xlink:href="#K" x="66.978"/><use xlink:href="#M" x="33.18"/><use xlink:href="#P"/><use xlink:href="#N" x="45.22"/><path d="M873.6 1033.435c-.64 0-1.14-.5-1.14-1.14s.5-1.14 1.14-1.14 1.14.5 1.14 1.14-.5 1.14-1.14 1.14zm0 12.543c-.28 0-.58-.18-.58-.56v-9.502c0-.36.28-.56.58-.56.26 0 .56.18.56.56v9.502c0 .36-.26.56-.56.56z"/><use xlink:href="#J" x="126.357"/><use xlink:href="#M" x="75.78"/><use xlink:href="#P" x="42.6"/><path d="M912.36 1046.098c-1.08 0-1.98-1-1.98-2.12v-11.683c0-.36.3-.56.58-.56.26 0 .56.2.56.56v11.683c0 1.28 1.42.54 1.42 1.44 0 .34-.24.68-.58.68zm15.16-.12h-8.882c-.3 0-.58-.28-.58-.56v-13.122c0-.3.28-.56.58-.56h8.882a.55.55 0 0 1 .58.561.55.55 0 0 1-.58.56h-8.32v4.92h6.1a.55.55 0 0 1 .58.561c0 .28-.2.58-.56.58h-6.12v5.92h8.32c.38 0 .58.3.58.58a.55.55 0 0 1-.58.561z"/><use xlink:href="#M" x="118.1"/><use xlink:href="#O" x="112.857"/><use xlink:href="#K" x="179.838"/><use xlink:href="#Q"/><use xlink:href="#R"/><path d="M993.46 1045.978c-.2 0-.42-.12-.52-.34l-1.28-3.08h-7.2l-1.28 3.08c-.08.22-.32.34-.5.34-.3 0-.58-.22-.58-.54 0-.1 0-.16.04-.26l5.4-13.104a.63.63 0 0 1 .58-.38c.2 0 .38.12.48.38l5.4 13.104c.04.1.04.16.04.26 0 .32-.28.54-.58.54zm-5.4-12.183l-3.14 7.622h6.3l-3.16-7.622z"/><use xlink:href="#Q" x="37.358"/><use xlink:href="#O" x="178.797"/><use xlink:href="#M" x="206.178"/><use xlink:href="#L" x="250.958"/><use xlink:href="#R" x="69.398"/></g><g fill="#fff"><use xlink:href="#S"/><path d="M95.807 79c-1.32 0-2.52-.9-2.52-2.52V59.8c0-4.68-3.9-8.58-8.58-8.58-4.62 0-8.52 3.9-8.52 8.58v16.62c0 1.68-1.26 2.64-2.64 2.64-1.26 0-2.52-.9-2.52-2.58V38.862c0-1.74 1.26-2.58 2.52-2.58 1.38 0 2.64.84 2.64 2.52v10.38c2.22-2.1 5.22-3.06 8.52-3.06 7.44 0 13.68 6.18 13.68 13.68v16.62c0 1.68-1.2 2.58-2.58 2.58zm10.92-36.718a4.32 4.32 0 1 1 0-8.64 4.32 4.32 0 1 1 0 8.64zm0 36.72c-1.32 0-2.64-.9-2.64-2.52v-26.76c0-1.68 1.32-2.58 2.64-2.58 1.26 0 2.52.9 2.52 2.58v26.76c0 1.68-1.26 2.52-2.52 2.52z"/><use xlink:href="#T"/><use xlink:href="#U"/><use xlink:href="#S" x="159.417"/><use xlink:href="#V"/><path d="M288.223 79.06c-1.14 0-2.28-.66-2.52-1.98-2.4 1.86-5.34 3-8.64 3-7.44 0-13.68-6.18-13.68-13.68v-16.62c0-1.68 1.26-2.58 2.52-2.58 1.38 0 2.64.9 2.64 2.52V66.4c0 4.68 3.9 8.58 8.52 8.58 4.68 0 8.58-3.9 8.58-8.58v-16.62c0-1.86 1.2-2.64 2.52-2.64 1.38 0 2.58.9 2.58 2.58v26.82c0 1.68-1.2 2.52-2.52 2.52z"/><use xlink:href="#W"/><path d="M334.302 78.94c-1.32 0-2.58-.84-2.58-2.52 0 0-3.54 3.6-9.9 3.6-9.66 0-15.06-7.92-15.06-16.98 0-9 5.4-16.92 15.06-16.92 4.2 0 7.56 1.44 9.9 3.9V38.86c0-1.74 1.26-2.58 2.58-2.58s2.58.84 2.58 2.52v37.62c0 1.68-1.26 2.52-2.58 2.52zm-12.48-27.72c-6 0-9.9 4.68-9.9 11.82 0 7.2 3.9 11.88 9.9 11.88 6.06 0 9.9-4.68 9.9-11.88 0-7.14-3.84-11.82-9.9-11.82zm49.918 28.8c-13.2 0-17.46-11.1-17.46-22.38 0-11.58 4.56-22.44 17.46-22.44 5.46 0 10.02 1.92 13.32 6.54.36.48.54 1.02.54 1.5 0 1.44-1.5 2.58-2.88 2.58-1.08 0-1.2-.48-2.16-1.56-1.92-2.34-4.5-3.9-8.82-3.9-9.24 0-12.3 7.86-12.3 17.28 0 8.22 2.22 17.28 12.3 17.28 7.32 0 11.7-5.22 12.12-13.86h-5.4c-1.74 0-2.64-1.26-2.64-2.58s.9-2.58 2.52-2.58h8.22c1.56 0 2.64 1.08 2.64 2.64-.24 11.22-4.74 21.48-17.46 21.48z"/><use xlink:href="#X"/><use xlink:href="#T" x="310.734"/><use xlink:href="#X" x="65.7"/><use xlink:href="#Y"/><use xlink:href="#Z"/><use xlink:href="#a"/><use xlink:href="#b"/><path d="M631.705 79c-1.32 0-2.64-.9-2.64-2.52V58.66h-19.8v17.82c0 1.62-1.38 2.52-2.52 2.52-1.32 0-2.64-.9-2.64-2.52V38.802c0-1.68 1.32-2.52 2.64-2.52 1.14 0 2.52.84 2.52 2.52v14.76h19.8v-14.7c0-1.74 1.38-2.58 2.52-2.58 1.32 0 2.64.84 2.64 2.58V76.42c0 1.68-1.38 2.58-2.52 2.58z"/><use xlink:href="#Z" x="132.297"/><use xlink:href="#W" x="378.821"/><path d="M694.8 52.242h-2.7v24.18c0 1.68-1.26 2.52-2.64 2.52-1.26 0-2.52-.84-2.52-2.52v-24.18h-2.46c-1.62 0-2.52-1.2-2.52-2.52 0-1.38.9-2.58 2.52-2.58h2.46v-4.08c0-3.84 3.18-6.78 6.9-6.78 1.74 0 2.64 1.2 2.64 2.58 0 1.26-.9 2.52-2.64 2.52-1.02 0-1.74.78-1.74 1.62v4.14h2.7c1.74 0 2.64 1.2 2.64 2.58 0 1.32-.9 2.52-2.64 2.52zM720.13 79h-6.9c-1.62 0-2.52-1.26-2.52-2.52 0-1.38.9-2.58 2.52-2.58h.9V41.38h-.9c-1.62 0-2.52-1.26-2.52-2.52 0-1.38.9-2.58 2.52-2.58h6.9c1.74 0 2.64 1.2 2.64 2.58 0 1.26-.9 2.52-2.64 2.52h-.9V73.9h.9c1.74 0 2.64 1.2 2.64 2.58 0 1.26-.9 2.52-2.64 2.52z"/><use xlink:href="#a" x="183.402"/><use xlink:href="#c"/><path d="M798.848 60.52h-12.84v15.9c0 1.56-1.2 2.58-2.52 2.58-1.44 0-2.64-.96-2.64-2.52V38.862c0-1.08.72-2.58 2.52-2.58h15.54c5.28 0 12.06 4.14 12.06 12.06 0 6.78-5.4 12.18-12.12 12.18zm0-19.14h-12.84v14.04h12.78a6.99 6.99 0 0 0 7.02-7.02c0-3.9-3.12-7.02-6.96-7.02z"/><use xlink:href="#V" x="584.606"/><use xlink:href="#d"/><use xlink:href="#b" x="332.441"/><use xlink:href="#Y" x="432.207"/><path d="M64.367 102.582h-22.44v12.12h15.72a2.56 2.56 0 0 1 2.58 2.58c0 1.38-1.02 2.58-2.58 2.58h-15.72v17.82a2.58 2.58 0 0 1-2.52 2.52c-1.44 0-2.64-1.14-2.64-2.52v-37.618c0-1.44 1.2-2.58 2.64-2.58h24.96c1.56 0 2.52 1.14 2.52 2.52 0 1.26-.9 2.58-2.52 2.58z"/><use xlink:href="#Y" x="-423.774" y="61.2"/><use xlink:href="#V" x="-144.779" y="61.2"/><path d="M157.304 140.2c-1.26 0-2.52-.9-2.52-2.52v-18.9c0-3.48-2.88-6.36-6.3-6.36-3.54 0-6.36 2.88-6.36 6.3v18.9c0 1.68-1.2 2.58-2.58 2.58-1.32 0-2.52-.9-2.52-2.52v-18.9c0-3.48-2.88-6.36-6.36-6.36s-6.36 2.88-6.36 6.3v18.9c0 1.68-1.26 2.58-2.64 2.58-1.26 0-2.52-.9-2.52-2.52v-26.82c0-1.74 1.32-2.58 2.64-2.58.84 0 1.68.36 2.16 1.14a11.56 11.56 0 0 1 6.66-2.1c3.6 0 6.84 1.62 8.94 4.26 2.1-2.64 5.28-4.26 8.88-4.26 6.36 0 11.52 5.1 11.52 11.4v18.9c0 1.68-1.26 2.58-2.64 2.58z"/></g><g fill="#0ff"><path d="M205.183 140.26c-.66 0-1.44-.36-1.98-1.08l-12.48-17.46h-7.74v15.9c0 1.68-1.26 2.58-2.64 2.58-1.26 0-2.52-.9-2.52-2.52v-37.618c0-1.08.72-2.58 2.52-2.58h15.54c5.28 0 12.06 4.14 12.06 12.06 0 6.3-4.74 11.58-11.04 12.12l10.5 14.46c.42.54.54 1.02.54 1.56 0 1.44-1.38 2.58-2.76 2.58zm-9.36-37.68h-12.84v14.04h12.78c3.9 0 7.02-3.18 7.02-7.08 0-4.08-3.48-6.96-6.96-6.96z"/><use xlink:href="#X" x="-180.897" y="61.2"/><path d="M270.222 140.2c-1.32 0-2.52-.9-2.52-2.52V121c0-4.68-3.9-8.58-8.58-8.58-4.62 0-8.52 3.9-8.52 8.58v16.62c0 1.68-1.26 2.64-2.64 2.64-1.26 0-2.52-.9-2.52-2.58v-26.82c0-1.74 1.26-2.52 2.52-2.52 1.2 0 2.28.66 2.58 1.98 2.34-1.86 5.28-3 8.58-3 7.44 0 13.68 6.18 13.68 13.68v16.62c0 1.68-1.2 2.58-2.58 2.58z"/><use xlink:href="#X" x="-115.198" y="61.2"/><use xlink:href="#d" x="-537.387" y="61.2"/><use xlink:href="#U" x="205.555" y="61.2"/><path d="M404.5 141.22c-6.42 0-9.84-3.54-9.9-3.6 0 1.68-1.26 2.52-2.64 2.52-1.26 0-2.52-.84-2.52-2.52v-37.558c0-1.74 1.26-2.58 2.52-2.58 1.38 0 2.64.84 2.64 2.52v11.22c2.4-2.46 5.7-3.9 9.9-3.9 9.66 0 15.06 7.92 15.06 16.92 0 9.06-5.4 16.98-15.06 16.98zm0-28.8c-6 0-9.9 4.68-9.9 11.82 0 7.2 3.9 11.88 9.9 11.88s9.9-4.68 9.9-11.88c0-7.14-3.9-11.82-9.9-11.82zm25.44 27.9c-3.24 0-6-2.76-6-6.12v-34.138c0-1.74 1.26-2.58 2.58-2.58s2.58.84 2.58 2.52V134.2c0 .72.54 1.02.84 1.02 1.68 0 2.58 1.2 2.58 2.58 0 1.32-.9 2.52-2.58 2.52z"/><use xlink:href="#X" x="42" y="61.2"/><use xlink:href="#c" x="-274.108" y="61.2"/></g><g fill="#fff"><path d="M525.52 140.2h-16.14c-1.38 0-2.64-1.26-2.64-2.52v-37.618c0-1.44 1.08-2.58 2.52-2.58h14.88c6.12 0 11.22 5.04 11.22 11.1a10.8 10.8 0 0 1-3.42 7.979c3.84 2.16 6.3 6.24 6.3 10.92 0 6.96-5.76 12.72-12.72 12.72zm-1.38-37.62H511.9v12.12h12.24c3.84 0 6.06-3.24 6.06-6.06 0-3.3-2.7-6.06-6.06-6.06zm1.38 17.22H511.9v15.3h13.62c4.08 0 7.56-3.54 7.56-7.62 0-4.2-3.48-7.68-7.56-7.68zm42.42-7.858l-16.2 36.838c-1.2 2.76-3.84 4.02-6.6 4.02h-1.92c-1.74 0-2.52-1.26-2.52-2.64 0-1.26.78-2.52 2.52-2.52h1.86c.78 0 1.62-.12 1.98-.96l3.96-8.88-11.7-25.86c-.24-.42-.3-.78-.3-1.14 0-1.5 1.44-2.52 2.76-2.52.9 0 1.68.48 2.16 1.56l9.78 21.72 9.54-21.72c.48-1.08 1.38-1.5 2.22-1.5 1.38 0 2.76 1.02 2.76 2.46 0 .42-.06.72-.3 1.14zm34.378 28.258H583.96c-1.74 0-2.76-1.02-2.76-2.28 0-.54.18-1.08.54-1.62l16.38-24.9c.72-1.14 1.14-2.52 1.14-3.6 0-3.54-2.64-6.24-6.18-6.24-3.18 0-5.88 2.7-6.9 4.62-.48.9-1.26 1.26-2.04 1.26-1.38 0-2.64-1.08-2.64-2.46 0-1.86 4.26-8.58 11.58-8.58a11.31 11.31 0 0 1 11.28 11.28c0 2.4-.84 4.74-2.04 6.48l-13.74 20.94h13.74c1.74 0 2.64 1.2 2.64 2.58 0 1.26-.9 2.52-2.64 2.52z"/><use xlink:href="#e"/><path d="M660.28 133h-2.58v4.68c0 1.62-1.38 2.52-2.58 2.52-1.26 0-2.58-.9-2.58-2.52V133H638.2c-1.68 0-2.7-1.02-2.7-2.4 0-.36.06-.84.36-1.32l16.56-31.5c.48-.96 1.38-1.38 2.16-1.38 1.38 0 2.7 1.08 2.7 2.46a2.32 2.32 0 0 1-.36 1.32L642.4 127.9h10.14v-6.84c0-1.74 1.26-2.64 2.52-2.64 1.32 0 2.64.84 2.64 2.58v6.9h2.58c1.68 0 2.58 1.2 2.58 2.58 0 1.32-.9 2.52-2.58 2.52z"/><use xlink:href="#e" x="56.218"/></g><linearGradient id="B" gradientUnits="userSpaceOnUse" x1="542.204" y1="715.667" x2="542.204" y2="246"><stop offset="0" stop-color="#b2fefa"/><stop offset="1" stop-color="#0ed2f7"/></linearGradient><path d="M641.666 645l-198.924 70.667V596l198.924-350z" opacity=".2" fill="url(#B)"/><linearGradient id="C" gradientUnits="userSpaceOnUse" x1="542.204" y1="946" x2="542.204" y2="654.8"><stop offset="0" stop-color="#757f9a"/><stop offset=".187" stop-color="#8d96ad"/><stop offset=".544" stop-color="#b5bccd"/><stop offset=".828" stop-color="#ced4e1"/><stop offset="1" stop-color="#d7dde8"/></linearGradient><path d="M641.666 654.8l-198.924 66.15-30 225.05h258.924z" opacity=".2" fill="url(#C)"/><linearGradient id="D" gradientUnits="userSpaceOnUse" x1="239.299" y1="946" x2="239.299" y2="720.95"><stop offset="0" stop-color="#757f9a"/><stop offset=".187" stop-color="#8d96ad"/><stop offset=".544" stop-color="#b5bccd"/><stop offset=".828" stop-color="#ced4e1"/><stop offset="1" stop-color="#d7dde8"/></linearGradient><path d="M442.742 946H65.856c-16.57 0-30-13.43-30-30V720.95h406.886V946z" fill="url(#D)"/><linearGradient id="E" gradientUnits="userSpaceOnUse" x1="239.299" y1="718.5" x2="239.299" y2="596"><stop offset="0" stop-color="#a3e8e4"/><stop offset="1" stop-color="#0ed2f7"/></linearGradient><path d="M442.742 718.5H35.856V626c0-16.57 13.43-30 30-30h376.886v122.5z" fill="url(#E)"/><linearGradient id="F" gradientUnits="userSpaceOnUse" x1="844.948" y1="946" x2="844.948" y2="654.8"><stop offset="0" stop-color="#757f9a"/><stop offset=".187" stop-color="#8d96ad"/><stop offset=".544" stop-color="#b5bccd"/><stop offset=".828" stop-color="#ced4e1"/><stop offset="1" stop-color="#d7dde8"/></linearGradient><path d="M1018.23 946H641.666V654.8h406.566V916c0 16.57-13.432 30-30 30z" fill="url(#F)"/><linearGradient id="G" gradientUnits="userSpaceOnUse" x1="844.951" y1="645" x2="844.951" y2="246"><stop offset="0" stop-color="#a3e8e4"/><stop offset="1" stop-color="#0ed2f7"/></linearGradient><path d="M1048.236 645h-406.57V246h376.57c16.568 0 30 13.43 30 30v369z" fill="url(#G)"/><g opacity=".5" fill="#fff"><path d="M37.25 213.3v-2.4c2.56-8.56 10.558-13.358 10.558-19.917 0-3.04-1.52-4.56-3.48-4.56-2.28 0-3.96 1.76-4.2 6.078h-2.64c.32-6.56 3.28-8.48 6.76-8.48 3.8 0 6.438 2.56 6.438 7.36 0 7.198-6.48 9.438-10.798 19.517h10.958v2.4H37.25z"/><use xlink:href="#f"/><path d="M70.288 213.3v-2.4h3.52v-23.196l-3.6.32v-1.76c1.64-.4 3.24-1.12 4.56-2.24h1.92V210.9h3.36v2.4h-9.76zm23.518-23.515c-.4-2.88-2-3.36-3.12-3.36-2.56 0-4.16 3.52-4.24 11.558 1.16-1.24 2.72-2.2 4.44-2.2 3.24 0 6.2 2.32 6.2 8.878 0 5.6-2.4 9.04-6.2 9.04-5 0-7.398-2.88-7.398-13.278 0-11.598 2.72-16.397 7.278-16.397 3.72 0 5.12 2.24 5.68 5.6l-2.64.16zm-7.438 13.598c0 5.84 1.52 7.918 4.08 7.918 2.24 0 3.76-1.68 3.76-6.68 0-5.16-1.76-6.438-3.6-6.438s-3.28 1.2-4.24 2.48v2.72z"/></g><g opacity=".5" fill="#fff"><path d="M987.97 213.3v-2.4c2.56-8.56 10.558-13.358 10.558-19.917 0-3.04-1.52-4.56-3.48-4.56-2.28 0-3.96 1.76-4.2 6.078h-2.64c.32-6.56 3.28-8.48 6.76-8.48 3.8 0 6.438 2.56 6.438 7.36 0 7.198-6.48 9.438-10.798 19.517h10.958v2.4H987.97z"/><use xlink:href="#f" x="950.719"/><path d="M1029.847 184.425v19.916h3v2.4h-3v6.56h-2.88v-6.56h-9.238v-1.36l7.92-20.956h4.2zm-9.398 19.916h6.52v-17.276h-.08l-6.438 17.276z"/><use xlink:href="#f" x="981.439"/></g><g fill="#fff"><path d="M76.626 913.59l-3.9 3.94 3.627 3.627c.273.273.35.546.35.82 0 .624-.507 1.13-1.092 1.13-.273 0-.546-.078-.82-.35l-3.627-3.666-1.326 1.325c-1.6 1.6-3.666 2.652-6.123 2.652-4.563 0-8.346-3.705-8.346-8.307 0-3.16 1.677-5.812 4.173-7.255l-.74-.74c-1.6-1.6-2.457-3.314-2.457-5.5 0-4.017 3.315-7.332 7.332-7.332 4.563 0 7.527 4.33 7.527 5.188 0 .624-.585 1.092-1.17 1.092-1.13 0-2.574-4.057-6.357-4.057a5.13 5.13 0 0 0-5.109 5.109c0 1.64.546 2.652 1.755 3.86l10.842 10.843 3.9-3.94c.273-.234.546-.352.82-.352.546 0 1.092.547 1.092 1.132 0 .272-.078.507-.35.78zm-15.445-4.445c-2.106.936-3.588 3.08-3.588 5.577 0 3.354 2.77 6.123 6.084 6.123a5.91 5.91 0 0 0 4.29-1.716l1.638-1.678-8.424-8.307z"/><use xlink:href="#g"/><path d="M122.722 922.405c-.546 0-1.13-.4-1.13-1.092v-1.248c-1.638 1.9-4.017 3.003-6.67 3.003-4.836 0-8.892-4.056-8.892-8.893v-11.388c0-.702.585-1.093 1.13-1.093.507 0 1.092.4 1.092 1.093v11.388a6.669 6.669 0 1 0 13.338 0v-11.388c0-.702.585-1.093 1.13-1.093.507 0 1.092.4 1.092 1.093v18.525c0 .702-.585 1.092-1.092 1.092zm21.724-2.3c-1.716 1.9-4.095 2.964-6.98 2.964-6.28 0-9.8-5.148-9.8-11.037 0-5.85 3.5-10.998 9.8-10.998 2.886 0 5.265 1.053 6.98 2.964a1.03 1.03 0 0 1 .312.741c0 .585-.546 1.17-1.13 1.17-.273 0-.546-.117-.82-.4-1.287-1.442-3.08-2.262-5.343-2.262-4.602 0-7.566 3.705-7.566 8.775s2.964 8.814 7.566 8.814c2.262 0 4.056-.858 5.343-2.263.273-.272.546-.4.82-.4a1.16 1.16 0 0 1 1.131 1.131c0 .273-.078.507-.312.78zm8.07 2.536c-2.106 0-3.86-1.95-3.86-4.134V895.73c0-.702.585-1.092 1.13-1.092.507 0 1.092.4 1.092 1.092v22.777c0 2.496 2.77 1.053 2.77 2.808 0 .663-.468 1.326-1.13 1.326zm21.5-9.478H157.82c.35 4.446 3.237 7.684 7.488 7.684 2.106 0 4.602-.937 5.733-2.7.273-.43.585-.546.936-.546.585 0 1.2.468 1.2 1.053 0 .352 0 .43-.74 1.287-1.794 2.106-4.407 3.12-7.137 3.12-6.28 0-9.8-5.148-9.8-11.037 0-5.85 3.5-10.998 9.8-10.998s9.8 5.187 9.8 10.998c0 .585-.546 1.13-1.092 1.13zm-8.697-9.906c-4.68 0-7.137 3.588-7.488 7.684h15.016c-.35-4.446-3.237-7.684-7.527-7.684zm34.007 19.15h-.04c-1.287 0-3.12-.702-3.86-3.042-1.638 2.3-4.173 3.705-7.566 3.705-6.357 0-9.8-5.226-9.8-11.037 0-5.9 3.5-10.998 9.8-10.998 3.393 0 5.928 1.403 7.566 3.666v-1.9c0-.624.507-1.093 1.13-1.093.546 0 1.092.4 1.092 1.093v15.718c0 2.496 2.808.936 2.808 2.808a1.07 1.07 0 0 1-1.131 1.092zm-11.466-19.15c-4.602 0-7.566 3.705-7.566 8.775s2.964 8.814 7.566 8.814c4.64 0 7.566-3.744 7.566-8.814s-2.925-8.775-7.566-8.775zm24.257.35a6.67 6.67 0 0 0-6.669 6.67v11.037c0 .702-.585 1.092-1.092 1.092-.546 0-1.13-.4-1.13-1.092v-18.525c0-.702.585-1.093 1.13-1.093.507 0 1.092.4 1.092 1.093v1.6c1.755-1.9 4.056-3.003 6.67-3.003.702 0 1.13.585 1.13 1.092 0 .546-.43 1.13-1.13 1.13z"/><use xlink:href="#h"/><path d="M76.157 888.752c-6.28 0-9.79-5.148-9.79-11.038 0-5.85 3.5-10.998 9.79-10.998s9.8 5.148 9.8 10.998c0 5.9-3.5 11.038-9.8 11.038zm0-19.813c-4.602 0-7.566 3.705-7.566 8.775s2.964 8.814 7.566 8.814c4.64 0 7.566-3.744 7.566-8.814s-2.925-8.775-7.566-8.775z"/><use xlink:href="#i"/><use xlink:href="#i" x="17.744"/><path d="M126.427 863.635c-1.248 0-2.223-.976-2.223-2.224s.975-2.223 2.223-2.223 2.223.975 2.223 2.223-.975 2.224-2.223 2.224zm0 24.454c-.546 0-1.13-.352-1.13-1.093V868.47c0-.702.546-1.092 1.13-1.092.507 0 1.092.35 1.092 1.092v18.525a1.04 1.04 0 0 1-1.092 1.093z"/><use xlink:href="#j"/><use xlink:href="#h" x="92.78"/><path d="M176.385 888.1c-.546 0-1.13-.4-1.13-1.093v-1.248c-1.638 1.9-4.017 3.004-6.67 3.004-4.836 0-8.892-4.057-8.892-8.893v-11.4c0-.702.585-1.092 1.13-1.092.507 0 1.092.4 1.092 1.092v11.4a6.669 6.669 0 1 0 13.338 0v-11.4c0-.702.585-1.092 1.13-1.092.507 0 1.092.4 1.092 1.092v18.525c0 .702-.585 1.093-1.092 1.093zm23.44-9.244h-16.186c.35 4.445 3.237 7.683 7.488 7.683 2.106 0 4.602-.936 5.733-2.7.273-.43.585-.547.936-.547.585 0 1.2.47 1.2 1.054 0 .35 0 .43-.74 1.287-1.794 2.105-4.407 3.12-7.137 3.12-6.28 0-9.8-5.148-9.8-11.038 0-5.85 3.5-10.998 9.8-10.998s9.8 5.188 9.8 10.998c0 .585-.546 1.132-1.092 1.132zm-8.697-9.907c-4.68 0-7.137 3.6-7.488 7.684h15.016c-.35-4.446-3.237-7.684-7.527-7.684z"/><use xlink:href="#j" x="72.5"/><path d="M71.945 684.6a6.67 6.67 0 0 0-6.669 6.67v11.037c0 .702-.585 1.092-1.092 1.092-.546 0-1.13-.4-1.13-1.092v-18.525c0-.702.585-1.093 1.13-1.093.507 0 1.092.4 1.092 1.093v1.6c1.755-1.9 4.057-3.003 6.67-3.003.702 0 1.13.585 1.13 1.092 0 .546-.43 1.13-1.13 1.13zm19.882 9.566H75.642c.35 4.446 3.237 7.684 7.488 7.684 2.106 0 4.602-.937 5.733-2.7.273-.43.585-.546.936-.546.585 0 1.2.468 1.2 1.053 0 .352 0 .43-.74 1.287-1.794 2.106-4.407 3.12-7.137 3.12-6.28 0-9.8-5.148-9.8-11.037 0-5.85 3.5-10.998 9.8-10.998s9.8 5.187 9.8 10.998c0 .585-.546 1.13-1.092 1.13zm-8.697-9.906c-4.68 0-7.137 3.588-7.488 7.684h15.016c-.35-4.446-3.237-7.684-7.527-7.684z"/><use xlink:href="#g" x="12.589" y="-218.995"/><use xlink:href="#k"/><path d="M167.175 684.143l-6.357 18.33c-.273.74-.624.936-1.13.936-.663 0-.858-.233-1.092-.936l-5.1-15.2-5.1 15.2c-.273.74-.624.936-1.13.936s-.897-.312-1.092-.936l-6.318-18.33c-.04-.117-.078-.312-.078-.43 0-.624.624-1.015 1.13-1.015.4 0 .858.195 1.014.74l5.343 15.445 5.1-15.25c.234-.74.468-.937 1.13-.937.468 0 .858.156 1.092.937l5.187 15.25 5.265-15.445c.195-.546.585-.74 1.014-.74.585 0 1.2.4 1.2 1.054 0 .156-.04.272-.078.4zm23.398 19.267h-.04c-1.287 0-3.12-.702-3.86-3.042-1.638 2.3-4.173 3.705-7.566 3.705-6.357 0-9.8-5.226-9.8-11.037 0-5.9 3.5-10.998 9.8-10.998 3.393 0 5.928 1.403 7.566 3.666v-1.9c0-.624.507-1.093 1.13-1.093.546 0 1.092.4 1.092 1.093V699.5c0 2.496 2.808.936 2.808 2.808a1.07 1.07 0 0 1-1.131 1.092zm-11.466-19.15c-4.602 0-7.566 3.705-7.566 8.775s2.964 8.814 7.566 8.814c4.64 0 7.566-3.744 7.566-8.814s-2.925-8.775-7.566-8.775zm25.153 19.812c-3.393 0-5.928-1.404-7.566-3.705v1.95c0 .702-.585 1.092-1.092 1.092-.546 0-1.13-.4-1.13-1.092v-25.585c0-.702.585-1.092 1.13-1.092.507 0 1.092.4 1.092 1.092v8.97c1.638-2.263 4.173-3.666 7.566-3.666 6.28 0 9.8 5.147 9.8 10.998 0 5.9-3.5 11.037-9.8 11.037zm0-19.812c-4.64 0-7.566 3.705-7.566 8.775s2.925 8.814 7.566 8.814 7.566-3.744 7.566-8.814-2.925-8.775-7.566-8.775zm17.513 19.384c-2.106 0-3.86-1.95-3.86-4.134v-22.777c0-.702.585-1.092 1.13-1.092.507 0 1.092.4 1.092 1.092V699.5c0 2.496 2.77 1.053 2.77 2.808 0 .663-.468 1.326-1.13 1.326z"/><use xlink:href="#k" x="106.7"/><path d="M254.726 704.15c-2.34 0-6.28-.82-7.645-3.08-.156-.234-.156-.43-.156-.585 0-.624.546-1.17 1.13-1.17.234 0 .624.195.858.546 1.404 1.716 3.9 2.067 5.812 2.067 3.783 0 5.694-1.248 5.694-3.783 0-5.9-12.792-2.77-12.792-10.57 0-3.94 3.94-5.46 7.488-5.46 2.028 0 5.148.702 6.708 2.263.234.233.35.507.35.74 0 .585-.585 1.17-1.2 1.17a1.03 1.03 0 0 1-.74-.312c-1.2-1.17-3.393-1.638-5.1-1.638-3.433 0-5.266 1.326-5.266 3.237 0 5.46 12.792 2.574 12.792 10.57 0 4.446-3.9 6.006-7.917 6.006zm101.207 218.98c-11.395 0-12.312-11.6-12.312-20.143 0-10.098 2.214-20.196 12.313-20.196 4.536 0 7.776 1.998 10 5.4a2.12 2.12 0 0 1 .486 1.404c0 1.242-1.134 2.214-2.376 2.214-.702 0-1.404-.324-1.944-1.08-1.404-2.106-3.24-3.294-6.156-3.294-5.13 0-7.506 4.6-7.668 14.904a11.17 11.17 0 0 1 7.668-3.078c6.48 0 11.6 5.616 11.6 11.934s-5.13 11.935-11.6 11.935zm0-19.278c-3.726 0-6.858 3.24-7.074 7.452.702 4.212 2.916 7.236 7.074 7.236 3.726 0 6.966-3.35 6.966-7.345s-3.24-7.344-6.966-7.344zm26.19 18.9c-3.618 0-7.722-1.944-9.72-5.13a2.39 2.39 0 0 1-.378-1.296c0-1.242 1.08-2.215 2.322-2.215 1.026 0 1.404.38 2.214 1.458 1.35 1.675 3.456 2.593 5.562 2.593 3.726 0 7.506-3.402 7.506-8.263 0-4.914-3.78-8.315-7.506-8.315-2.862 0-4.806 1.458-5.724 3.023-.432.8-1.188 1.242-2.106 1.242-1.404 0-2.322-.918-2.322-2.7v-17.12c0-1.242 1.08-2.268 2.322-2.268h16.416c1.566 0 2.376 1.08 2.376 2.32 0 1.135-.756 2.27-2.268 2.27H376.56v10.098c1.296-.918 3.348-1.458 5.562-1.458 6.642 0 12.096 5.616 12.096 12.906 0 7.183-5.454 12.853-12.096 12.853zm19.434-28.802c-2.638 0-4.8-2.396-4.8-5.336s2.153-5.306 4.8-5.306c2.607 0 4.76 2.364 4.76 5.306s-2.153 5.336-4.76 5.336zm0-8.064c-.97 0-2.183.97-2.183 2.73s1.213 2.73 2.183 2.73 2.183-.97 2.183-2.73-1.213-2.73-2.183-2.73zM414.2 884.4l-5.58 20.07c-.15.667-.667.97-1.183.97-.697 0-1.364-.485-1.364-1.273 0-.1 0-.242.03-.364l5.6-20.102c.182-.637.697-.94 1.212-.94.637 0 1.334.454 1.334 1.213 0 .15-.03.272-.06.424zm4.306 20.496c-2.607 0-4.76-2.396-4.76-5.336 0-2.9 2.153-5.306 4.76-5.306 2.638 0 4.8 2.395 4.8 5.306 0 2.94-2.152 5.336-4.8 5.336zm0-8.064c-.94 0-2.153.97-2.153 2.73 0 1.8 1.213 2.76 2.153 2.76.97 0 2.183-.97 2.183-2.76 0-1.76-1.212-2.73-2.183-2.73zM355.88 702.977c-4.158 0-7.83-2.16-9.828-5.508-.27-.433-.378-.864-.378-1.242 0-1.296 1.134-2.27 2.376-2.27.702 0 1.458.27 1.944 1.08a6.67 6.67 0 0 0 5.832 3.35c4.05 0 7.398-3.35 7.398-7.3 0-4.05-3.294-7.398-7.344-7.398h-.054c-1.404 0-2.268-1.08-2.268-2.268s.918-2.322 2.322-2.322c3.294 0 5.94-2.538 5.94-5.94 0-3.24-2.646-5.886-5.94-5.886-5.238 0-5.292 5.292-8.1 5.292-1.242 0-2.43-.972-2.43-2.27a2.39 2.39 0 0 1 .378-1.296c1.296-1.998 4.536-6.372 10.152-6.372 5.832 0 10.53 4.752 10.53 10.53 0 3.294-1.404 6.156-3.834 8.1 3.132 2.16 5.238 5.67 5.238 9.773a11.94 11.94 0 0 1-11.934 11.935zm26.242-.377c-3.618 0-7.722-1.944-9.72-5.13a2.39 2.39 0 0 1-.378-1.296c0-1.242 1.08-2.215 2.322-2.215 1.026 0 1.404.38 2.214 1.458 1.35 1.675 3.456 2.593 5.562 2.593 3.726 0 7.506-3.402 7.506-8.263 0-4.914-3.78-8.315-7.506-8.315-2.862 0-4.806 1.458-5.724 3.023-.432.8-1.188 1.242-2.106 1.242-1.404 0-2.322-.918-2.322-2.7V665.88c0-1.242 1.08-2.268 2.322-2.268h16.416c1.566 0 2.376 1.08 2.376 2.32 0 1.135-.756 2.27-2.268 2.27H376.56V678.3c1.296-.918 3.348-1.458 5.562-1.458 6.642 0 12.096 5.616 12.096 12.906 0 7.183-5.454 12.853-12.096 12.853zm19.434-28.803c-2.638 0-4.8-2.396-4.8-5.336s2.153-5.306 4.8-5.306c2.607 0 4.76 2.364 4.76 5.306s-2.153 5.336-4.76 5.336zm0-8.064c-.97 0-2.183.97-2.183 2.73s1.213 2.73 2.183 2.73 2.183-.97 2.183-2.73-1.213-2.73-2.183-2.73zm12.643-1.486l-5.58 20.07c-.15.667-.667.97-1.183.97-.697 0-1.364-.485-1.364-1.273 0-.1 0-.242.03-.364l5.6-20.102c.182-.637.697-.94 1.212-.94.637 0 1.334.454 1.334 1.213 0 .15-.03.272-.06.424zm4.306 20.496c-2.607 0-4.76-2.396-4.76-5.336 0-2.9 2.153-5.306 4.76-5.306 2.638 0 4.8 2.395 4.8 5.306 0 2.94-2.152 5.336-4.8 5.336zm0-8.064c-.94 0-2.153.97-2.153 2.73 0 1.8 1.213 2.76 2.153 2.76.97 0 2.183-.97 2.183-2.76 0-1.76-1.212-2.73-2.183-2.73zm545.745-47.654c-3.62 0-7.723-1.944-9.72-5.13a2.39 2.39 0 0 1-.378-1.296c0-1.242 1.08-2.215 2.322-2.215 1.026 0 1.403.38 2.214 1.458 1.35 1.675 3.456 2.593 5.563 2.593 3.726 0 7.506-3.402 7.506-8.263 0-4.914-3.78-8.315-7.506-8.315-2.862 0-4.807 1.458-5.725 3.023-.432.8-1.187 1.242-2.105 1.242-1.404 0-2.322-.918-2.322-2.7v-17.118c0-1.242 1.08-2.268 2.322-2.268h16.416c1.566 0 2.376 1.08 2.376 2.32 0 1.135-.757 2.27-2.27 2.27h-14.256v10.098c1.296-.918 3.348-1.458 5.563-1.458 6.642 0 12.096 5.616 12.096 12.906 0 7.183-5.454 12.853-12.096 12.853zm36.612-34.02l-12.42 32.022c-.433 1.08-1.08 1.512-1.998 1.512-1.188 0-2.43-.918-2.43-2.268 0-.324.108-.594.216-.918L996 594.627h-14.42c-1.187 0-2.268-.864-2.268-2.322 0-1.242 1.026-2.268 2.268-2.268h17.768c1.188 0 2.375.756 2.375 2.32 0 .648-.7 2.106-.863 2.646zm9.658 5.22c-2.638 0-4.8-2.396-4.8-5.336s2.152-5.306 4.8-5.306c2.607 0 4.76 2.364 4.76 5.306s-2.153 5.336-4.76 5.336zm0-8.064c-.97 0-2.183.97-2.183 2.73s1.213 2.73 2.183 2.73 2.183-.97 2.183-2.73-1.213-2.73-2.183-2.73zm12.644-1.486l-5.58 20.07c-.15.667-.667.97-1.183.97-.697 0-1.364-.485-1.364-1.273 0-.1 0-.242.03-.364l5.6-20.102c.182-.637.697-.94 1.213-.94.637 0 1.334.454 1.334 1.213 0 .15-.03.272-.06.424zm4.305 20.496c-2.607 0-4.76-2.396-4.76-5.336 0-2.9 2.152-5.306 4.76-5.306 2.64 0 4.8 2.395 4.8 5.306 0 2.94-2.152 5.336-4.8 5.336zm0-8.064c-.94 0-2.152.97-2.152 2.73 0 1.8 1.213 2.76 2.152 2.76.97 0 2.184-.97 2.184-2.76 0-1.76-1.213-2.73-2.184-2.73zm-49.99 312.82h-2.32v4.213c0 1.458-1.242 2.268-2.322 2.268-1.134 0-2.32-.8-2.32-2.268v-4.213h-12.906c-1.513 0-2.43-.918-2.43-2.16 0-.324.054-.757.324-1.188l14.904-28.35c.432-.864 1.24-1.242 1.944-1.242 1.242 0 2.43.973 2.43 2.214a2.09 2.09 0 0 1-.324 1.188l-13.068 24.948h9.127v-6.156c0-1.565 1.133-2.376 2.268-2.376 1.188 0 2.376.756 2.376 2.322v6.2h2.32c1.513 0 2.322 1.08 2.322 2.322 0 1.188-.8 2.268-2.322 2.268zm14.417 7.398c-4.158 0-7.83-2.16-9.828-5.508-.27-.433-.378-.864-.378-1.242 0-1.296 1.134-2.27 2.376-2.27.702 0 1.458.27 1.944 1.08a6.67 6.67 0 0 0 5.832 3.35c4.05 0 7.397-3.35 7.397-7.3 0-4.05-3.293-7.398-7.344-7.398h-.054c-1.404 0-2.27-1.08-2.27-2.268s.918-2.322 2.322-2.322c3.294 0 5.94-2.538 5.94-5.94 0-3.24-2.646-5.886-5.94-5.886-5.238 0-5.292 5.292-8.1 5.292-1.242 0-2.43-.972-2.43-2.27a2.39 2.39 0 0 1 .378-1.296c1.297-1.998 4.536-6.372 10.152-6.372 5.832 0 10.53 4.752 10.53 10.53 0 3.294-1.403 6.156-3.834 8.1 3.132 2.16 5.237 5.67 5.237 9.773a11.94 11.94 0 0 1-11.934 11.935zm18.623-29.18c-2.637 0-4.8-2.396-4.8-5.336s2.153-5.306 4.8-5.306c2.607 0 4.76 2.364 4.76 5.306s-2.153 5.336-4.76 5.336zm0-8.064c-.97 0-2.183.97-2.183 2.73s1.213 2.73 2.183 2.73 2.184-.97 2.184-2.73-1.213-2.73-2.184-2.73zm12.644-1.486l-5.58 20.07c-.15.667-.666.97-1.182.97-.697 0-1.365-.485-1.365-1.273 0-.1 0-.242.03-.364l5.6-20.102c.182-.637.697-.94 1.212-.94.637 0 1.334.454 1.334 1.213 0 .15-.03.272-.06.424zm4.306 20.496c-2.607 0-4.76-2.396-4.76-5.336 0-2.9 2.152-5.306 4.76-5.306 2.638 0 4.8 2.395 4.8 5.306 0 2.94-2.152 5.336-4.8 5.336zm0-8.064c-.94 0-2.152.97-2.152 2.73 0 1.8 1.213 2.76 2.152 2.76.97 0 2.183-.97 2.183-2.76 0-1.76-1.212-2.73-2.183-2.73z"/></g><defs ><path id="I" d="M106.614 1045.51c-.633 0-1.267-.367-1.4-1.1-1.334 1.034-2.97 1.668-4.804 1.668-4.136 0-7.604-3.436-7.604-7.605v-9.24a1.37 1.37 0 0 1 1.4-1.435c.768 0 1.468.5 1.468 1.4v9.272c0 2.602 2.168 4.77 4.736 4.77 2.603 0 4.77-2.17 4.77-4.77v-9.24c0-1.034.667-1.468 1.4-1.468.768 0 1.435.5 1.435 1.435v14.9c0 .934-.667 1.4-1.4 1.4z"/><path id="J" d="M754.403 1046.317c-3.22 0-5.02-2.64-5.02-5.66 0-3 1.8-5.64 5.02-5.64s5.02 2.64 5.02 5.64c0 3.02-1.8 5.66-5.02 5.66zm0-10.162c-2.36 0-3.88 1.9-3.88 4.5s1.52 4.52 3.88 4.52c2.38 0 3.88-1.92 3.88-4.52s-1.5-4.5-3.88-4.5z"/><path id="K" d="M776.542 1036.336a3.42 3.42 0 0 0-3.421 3.42v5.66c0 .36-.3.56-.56.56-.28 0-.58-.2-.58-.56v-9.502c0-.36.3-.56.58-.56.26 0 .56.2.56.56v.82c.9-.98 2.08-1.54 3.42-1.54.36 0 .58.3.58.56a.58.58 0 0 1-.58.581z"/><path id="L" d="M785.92 1044.797c-.88.98-2.1 1.52-3.58 1.52-3.22 0-5.02-2.64-5.02-5.66 0-3 1.8-5.64 5.02-5.64 1.48 0 2.7.54 3.58 1.52a.53.53 0 0 1 .16.381.63.63 0 0 1-.58.6c-.14 0-.28-.06-.42-.2-.66-.74-1.58-1.16-2.74-1.16-2.36 0-3.88 1.9-3.88 4.5s1.52 4.52 3.88 4.52c1.16 0 2.08-.44 2.74-1.16.14-.14.28-.2.42-.2.3 0 .58.26.58.58a.57.57 0 0 1-.16.399z"/><path id="M" d="M820.14 1045.978c-.28 0-.58-.2-.58-.56v-5.84c0-1.9-1.52-3.42-3.42-3.42a3.42 3.42 0 0 0-3.421 3.421v5.84c0 .36-.3.56-.56.56-.28 0-.58-.2-.58-.56v-9.502c0-.36.3-.56.58-.56.26 0 .56.2.56.56v.64c.9-.98 2.08-1.54 3.42-1.54a4.6 4.6 0 0 1 4.561 4.561v5.84c0 .36-.3.56-.56.56z"/><path id="N" d="M826.22 1045.978h-.62c-1.58 0-2.36-.78-2.36-2.34v-7.142h-1.02c-.36 0-.56-.3-.56-.58 0-.26.2-.56.56-.56h1.02v-3.06c0-.36.3-.56.58-.56s.56.2.56.56v3.06h1.84c.36 0 .56.3.56.56 0 .28-.2.58-.56.58h-1.84v7.142c0 .98.28 1.2 1.22 1.2h.62c.36 0 .56.3.56.58 0 .26-.2.56-.56.56z"/><path id="O" d="M836.823 1041.236h-8.302c.18 2.28 1.66 3.94 3.84 3.94 1.08 0 2.36-.48 2.94-1.38.14-.22.3-.28.48-.28.3 0 .62.24.62.54 0 .18 0 .22-.38.66-.92 1.08-2.26 1.6-3.66 1.6-3.22 0-5.02-2.64-5.02-5.66 0-3 1.8-5.64 5.02-5.64s5.02 2.66 5.02 5.64c0 .3-.28.58-.56.58zm-4.46-5.08c-2.4 0-3.66 1.84-3.84 3.94h7.7c-.18-2.28-1.66-3.94-3.86-3.94z"/><path id="P" d="M866.18 1045.978h-.02c-.66 0-1.6-.36-1.98-1.56-.84 1.18-2.14 1.9-3.88 1.9-3.26 0-5.02-2.68-5.02-5.66 0-3.02 1.8-5.64 5.02-5.64 1.74 0 3.04.72 3.88 1.88v-.98c0-.32.26-.56.58-.56.28 0 .56.2.56.56v8.063c0 1.28 1.44.48 1.44 1.44a.55.55 0 0 1-.58.561zm-5.88-9.822c-2.36 0-3.88 1.9-3.88 4.5s1.52 4.52 3.88 4.52c2.38 0 3.88-1.92 3.88-4.52s-1.5-4.5-3.88-4.5z"/><path id="Q" d="M962.18 1050.538c-1.7 0-4.102-.64-4.102-1.36 0-.32.26-.64.58-.64.22 0 .68.34 1.06.48.52.18 1.34.38 2.46.38 2.56 0 3.88-1.26 3.88-3.72v-1.4c-.88 1.06-2.14 1.7-3.88 1.7-3.16 0-5.02-2.24-5.02-5.32 0-3 1.8-5.64 5.02-5.64 1.74 0 3.04.72 3.88 1.88v-.96c0-.36.3-.56.58-.56.26 0 .56.2.56.56v9.742c0 3.18-1.9 4.86-5.02 4.86zm0-14.383c-2.36 0-3.88 1.9-3.88 4.5 0 2.58 1.42 4.18 3.88 4.18s3.88-1.6 3.88-4.18c0-2.6-1.5-4.5-3.88-4.5z"/><path id="R" d="M977.86 1036.155l-5.42 12.823c-.4.94-1.22 1.2-2.14 1.2h-.88c-.36 0-.56-.3-.56-.58 0-.26.2-.56.56-.56h.88c.44 0 .9-.02 1.08-.48l1.14-2.72-4.142-9.683c-.04-.1-.04-.18-.04-.26 0-.32.28-.54.58-.54.18 0 .4.08.5.34l3.722 8.682 3.68-8.682a.52.52 0 0 1 .52-.34c.3 0 .56.22.56.54 0 .08 0 .16-.04.26z"/><path id="S" d="M66.587 73.48c-2.94 4.08-7.14 6.54-13.38 6.54-12.9 0-17.46-10.68-17.46-22.38 0-11.76 4.56-22.44 17.46-22.44 6.06 0 10.5 2.4 13.32 6.54.42.54.54 1.02.54 1.5 0 1.44-1.26 2.52-2.64 2.52-.78 0-1.5-.36-2.04-1.08-1.86-2.7-4.62-4.32-9.18-4.32-8.52 0-12.3 6.3-12.3 17.28s3.78 17.28 12.3 17.28c4.56 0 7.32-1.74 9.18-4.38.54-.78 1.26-1.14 2.04-1.14 1.38 0 2.7 1.14 2.7 2.58 0 .48-.18.96-.54 1.5z"/><path id="T" d="M140.386 79c-1.32 0-2.52-.9-2.52-2.52V59.8c0-4.68-3.9-8.58-8.58-8.58-4.62 0-8.52 3.9-8.52 8.58v16.62c0 1.68-1.26 2.64-2.64 2.64-1.26 0-2.52-.9-2.52-2.58v-26.82c0-1.74 1.26-2.52 2.52-2.52 1.2 0 2.28.66 2.58 1.98 2.34-1.86 5.28-3 8.58-3 7.44 0 13.68 6.18 13.68 13.68v16.62c0 1.68-1.2 2.58-2.58 2.58z"/><path id="U" d="M178.125 79c-3.3 0-4.8-2.34-5.34-3.42-2.4 2.64-5.88 4.44-10.56 4.44-9.78 0-15.06-8.04-15.06-16.98s5.4-16.92 15.06-16.92c4.2 0 7.56 1.5 9.9 3.96v-.24c0-.66.24-2.7 2.52-2.7 1.26 0 2.64.66 2.64 2.52v23.16c0 .78.54 1.08.84 1.08 1.68 0 2.58 1.2 2.58 2.58 0 1.26-.9 2.52-2.58 2.52zm-15.9-27.78c-6 0-9.9 4.68-9.9 11.82 0 7.2 3.9 11.88 9.9 11.88 6.06 0 9.9-4.68 9.9-11.88 0-7.14-3.84-11.82-9.9-11.82z"/><path id="V" d="M244.124 80.02c-9.66 0-15.06-7.92-15.06-16.98 0-9 5.4-16.92 15.06-16.92s15.06 7.92 15.06 16.92c0 9.06-5.4 16.98-15.06 16.98zm0-28.8c-6 0-9.9 4.68-9.9 11.82 0 7.2 3.9 11.88 9.9 11.88 6.06 0 9.9-4.68 9.9-11.88 0-7.14-3.84-11.82-9.9-11.82z"/><path id="W" d="M302.503 79.12c-3.24 0-6-2.76-6-6.12V38.862c0-1.74 1.26-2.58 2.58-2.58s2.58.84 2.58 2.52V73c0 .72.54 1.02.84 1.02 1.68 0 2.58 1.2 2.58 2.58 0 1.32-.9 2.52-2.58 2.52z"/><path id="X" d="M419.74 65.68h-22.2c.84 5.64 4.44 9.24 9.72 9.24 2.7 0 5.4-.96 7.14-3.12.54-.6 1.14-.96 1.86-.96 1.32 0 2.7 1.2 2.7 2.64 0 .72-.18 1.26-1.44 2.52-2.7 2.64-6.42 4.02-10.26 4.02-9.66 0-15.06-7.98-15.06-16.98 0-8.94 5.4-16.92 15.06-16.92 9.78 0 15 7.98 15 16.92 0 1.32-.96 2.64-2.52 2.64zm-12.48-14.46c-5.64 0-8.94 4.14-9.72 9.3h19.44c-.84-5.76-4.44-9.3-9.72-9.3z"/><path id="Y" d="M505.72 51.222c-4.62 0-8.52 3.9-8.52 8.58v16.62c0 1.68-1.26 2.58-2.64 2.58-1.26 0-2.52-.9-2.52-2.52v-26.76c0-1.68 1.38-2.58 2.52-2.58 1.2 0 2.34.66 2.58 2.04 2.34-1.92 5.52-3.06 8.58-3.06 1.74 0 2.64 1.2 2.64 2.58 0 1.32-.9 2.52-2.64 2.52z"/><path id="Z" d="M537.627 79c-3.3 0-4.8-2.34-5.34-3.42-2.4 2.64-5.88 4.44-10.56 4.44-9.78 0-15.06-8.04-15.06-16.98s5.4-16.92 15.06-16.92c4.2 0 7.56 1.5 9.9 3.96v-.24c0-.66.24-2.7 2.52-2.7 1.26 0 2.64.66 2.64 2.52v23.16c0 .78.54 1.08.84 1.08 1.68 0 2.58 1.2 2.58 2.58 0 1.26-.9 2.52-2.58 2.52zm-15.898-27.78c-6 0-9.9 4.68-9.9 11.82 0 7.2 3.9 11.88 9.9 11.88 6.06 0 9.9-4.68 9.9-11.88 0-7.14-3.84-11.82-9.9-11.82z"/><path id="a" d="M553.528 79h-1.02c-5.7 0-7.86-3-7.86-7.92v-18.84h-1.8c-1.44 0-2.58-1.14-2.58-2.52 0-1.44 1.14-2.58 2.52-2.58h1.8v-8.34c0-1.68 1.26-2.52 2.58-2.52s2.52.84 2.52 2.52v8.34h3.84c1.68 0 2.52 1.38 2.52 2.52 0 1.44-.96 2.58-2.52 2.58h-3.84v19.38c0 1.68.6 2.28 2.28 2.28h1.5c1.56 0 2.58 1.14 2.58 2.52 0 1.44-.96 2.58-2.52 2.58z"/><path id="b" d="M585.206 65.68h-22.2c.84 5.64 4.44 9.24 9.72 9.24 2.7 0 5.4-.96 7.14-3.12.54-.6 1.14-.96 1.86-.96 1.32 0 2.7 1.2 2.7 2.64 0 .72-.18 1.26-1.44 2.52-2.7 2.64-6.42 4.02-10.26 4.02-9.66 0-15.06-7.98-15.06-16.98 0-8.94 5.4-16.92 15.06-16.92 9.78 0 15 7.98 15 16.92 0 1.32-.96 2.64-2.52 2.64zm-12.48-14.46c-5.64 0-8.94 4.14-9.72 9.3h19.438c-.84-5.76-4.44-9.3-9.72-9.3z"/><path id="c" d="M752.468 80.02c-3.3 0-8.82-1.02-11.64-4.5-.36-.54-.54-1.08-.54-1.56 0-1.5 1.44-2.7 2.7-2.7.72 0 1.26.36 1.86 1.02 1.86 2.04 4.92 2.64 7.62 2.64 5.4 0 7.14-1.86 7.14-4.56 0-7.68-18.3-2.94-18.3-15.3 0-6.54 6.12-8.94 11.82-8.94 3.24 0 10.86 1.62 10.86 4.98 0 1.32-1.08 2.7-2.52 2.7-.54 0-1.38-.3-1.98-.78-1.62-1.38-3.96-1.8-6.36-1.8-4.98 0-6.72 1.86-6.72 3.84 0 7.14 18.36 2.52 18.36 15.3 0 7.08-5.94 9.66-12.3 9.66z"/><path id="d" d="M888.427 50.562l-9.3 26.34c-.48 1.32-1.32 2.1-2.64 2.1-1.26 0-1.98-.54-2.52-2.1l-7.02-19.8-7.08 19.8c-.48 1.44-1.32 2.1-2.58 2.1-1.2 0-2.04-.66-2.52-2.1l-9.24-26.34c-.12-.36-.12-.6-.12-.96 0-1.5 1.38-2.46 2.64-2.46.96 0 1.92.48 2.34 1.68l6.96 20.04 7.08-19.62c.48-1.38 1.08-2.1 2.52-2.1 1.32 0 2.04.66 2.52 2.1l7.02 19.62 7.02-20.04c.42-1.2 1.38-1.68 2.28-1.68 1.38 0 2.76 1.02 2.76 2.52 0 .3 0 .54-.12.9z"/><path id="e" d="M620.98 141.22c-12.84 0-12.84-15.24-12.84-24 0-8.46 1.32-20.82 12.78-20.82s12.9 12.06 12.9 20.82c0 9.12-.24 24-12.84 24zm7.68-24c0-5.28-.12-15.66-7.68-15.66s-7.68 10.38-7.68 15.66v3.36c0 6.24.84 15.54 7.62 15.54 6.9 0 7.74-9.3 7.74-15.54v-3.36z"/><path id="f" d="M59.568 213.7c-4.72 0-6.96-4.4-6.96-14.838s2.24-14.838 6.96-14.838 6.958 4.4 6.958 14.838-2.24 14.838-6.958 14.838zm0-27.275c-2.64 0-4.08 2.96-4.08 12.438s1.44 12.438 4.08 12.438 4.08-2.96 4.08-12.437-1.44-12.437-4.08-12.437z"/><path id="g" d="M100.883 922.405c-.546 0-1.13-.4-1.13-1.092v-11.39a6.64 6.64 0 0 0-6.669-6.669c-3.666 0-6.67 2.964-6.67 6.67v11.39c0 .702-.585 1.092-1.092 1.092-.546 0-1.13-.4-1.13-1.092v-18.525c0-.702.585-1.093 1.13-1.093.507 0 1.092.39 1.092 1.093v1.248c1.755-1.91 4.057-3.003 6.67-3.003 4.836 0 8.893 4.017 8.893 8.892v11.39c0 .702-.585 1.092-1.092 1.092z"/><path id="h" d="M63.17 862.504h-1.21c-.936 0-1.716.78-1.716 1.677v3.198h2.925c.74 0 1.092.585 1.092 1.092 0 .546-.4 1.13-1.092 1.13h-2.925v17.395c0 .702-.546 1.093-1.092 1.093s-1.092-.352-1.092-1.093v-17.395h-2.69c-.702 0-1.092-.585-1.092-1.13 0-.507.4-1.092 1.092-1.092h2.69v-3.198a3.87 3.87 0 0 1 3.861-3.861h1.248c.702 0 1.13.546 1.13 1.13 0 .547-.4 1.054-1.13 1.054z"/><path id="i" d="M96.32 888.83c-2.34 0-6.28-.82-7.645-3.082-.156-.233-.156-.43-.156-.585 0-.624.546-1.17 1.13-1.17.234 0 .624.195.858.546 1.404 1.717 3.9 2.067 5.812 2.067 3.783 0 5.694-1.248 5.694-3.783 0-5.89-12.793-2.77-12.793-10.57 0-3.94 3.94-5.46 7.488-5.46 2.028 0 5.148.702 6.71 2.262.234.234.35.507.35.74 0 .585-.585 1.17-1.21 1.17-.234 0-.507-.078-.74-.312-1.21-1.17-3.393-1.64-5.11-1.64-3.432 0-5.265 1.326-5.265 3.237 0 5.46 12.792 2.574 12.792 10.57 0 4.446-3.9 6.007-7.917 6.007z"/><path id="j" d="M136.137 888.322c-2.106 0-3.86-1.95-3.86-4.134V861.41c0-.7.585-1.092 1.13-1.092.507 0 1.092.39 1.092 1.092v22.777c0 2.496 2.77 1.053 2.77 2.808 0 .663-.468 1.326-1.13 1.326z"/><path id="k" d="M136.56 694.166h-16.186c.35 4.446 3.237 7.684 7.488 7.684 2.106 0 4.602-.937 5.733-2.69.273-.43.585-.546.936-.546.585 0 1.21.468 1.21 1.053 0 .352 0 .43-.74 1.287-1.794 2.106-4.407 3.12-7.137 3.12-6.28 0-9.8-5.148-9.8-11.037 0-5.85 3.5-10.998 9.8-10.998s9.8 5.187 9.8 10.998c0 .585-.546 1.13-1.092 1.13zm-8.697-9.906c-4.68 0-7.137 3.588-7.488 7.684h15.016c-.35-4.446-3.237-7.684-7.527-7.684z"/></defs></svg>