<svg xmlns="http://www.w3.org/2000/svg" xmlns:xlink="http://www.w3.org/1999/xlink" viewBox="0 0 1080 1080"><linearGradient id="A" gradientUnits="userSpaceOnUse" x1="11.716" y1="11.716" x2="1068.284" y2="1068.284"><stop offset="0" stop-color="#403a3e"/><stop offset=".323" stop-color="#744650"/><stop offset=".622" stop-color="#9c505d"/><stop offset=".857" stop-color="#b55666"/><stop offset="1" stop-color="#be5869"/></linearGradient><path d="M1040 1080H40c-22.09 0-40-17.91-40-40V40C0 17.91 17.91 0 40 0h1000c22.09 0 40 17.91 40 40v1000c0 22.09-17.91 40-40 40z" fill="url(#A)"/><g opacity=".5" fill="#fff"><path d="M42.328 1046.045c-3.568 0-5.47-1.97-5.503-2.002 0 .935-.7 1.4-1.468 1.4-.7 0-1.4-.467-1.4-1.4v-20.88a1.35 1.35 0 0 1 1.401-1.434c.767 0 1.468.467 1.468 1.4v6.238c1.334-1.368 3.168-2.17 5.503-2.17 5.37 0 8.373 4.403 8.373 9.406 0 5.037-3.002 9.44-8.373 9.44zm0-16c-3.335 0-5.503 2.602-5.503 6.57 0 4.003 2.168 6.604 5.503 6.604s5.504-2.602 5.504-6.604c0-3.97-2.168-6.57-5.504-6.57zm25.555 8.037h-12.34c.467 3.136 2.468 5.137 5.403 5.137 1.5 0 3.002-.533 3.97-1.734.3-.333.634-.533 1.034-.533.734 0 1.5.667 1.5 1.468 0 .4-.1.7-.8 1.4-1.5 1.468-3.57 2.235-5.704 2.235-5.37 0-8.372-4.437-8.372-9.44 0-4.97 3.002-9.406 8.372-9.406 5.437 0 8.34 4.437 8.34 9.406 0 .734-.534 1.468-1.4 1.468zm-6.937-8.038c-3.136 0-4.97 2.3-5.403 5.17H66.35c-.467-3.202-2.468-5.17-5.403-5.17zM88 1045.478c-1.834 0-2.668-1.3-2.97-1.9-1.334 1.468-3.27 2.47-5.87 2.47-5.437 0-8.372-4.47-8.372-9.44s3.002-9.406 8.372-9.406c2.335 0 4.203.834 5.504 2.202v-.134c0-.367.133-1.5 1.4-1.5.7 0 1.468.367 1.468 1.4v12.875c0 .434.3.6.467.6.935 0 1.435.667 1.435 1.434a1.37 1.37 0 0 1-1.435 1.401zm-8.84-15.443c-3.336 0-5.504 2.602-5.504 6.57 0 4.003 2.168 6.604 5.504 6.604 3.37 0 5.504-2.602 5.504-6.604 0-3.97-2.135-6.57-5.504-6.57z"/><use xlink:href="#C"/><path d="M115.158 1045.478h-.567c-3.17 0-4.37-1.668-4.37-4.403V1030.6h-1c-.8 0-1.435-.634-1.435-1.4 0-.8.634-1.435 1.4-1.435h1v-4.637c0-.934.7-1.4 1.435-1.4s1.4.467 1.4 1.4v4.637h2.135c.934 0 1.4.768 1.4 1.4 0 .8-.533 1.434-1.4 1.434h-2.135v10.774c0 .934.333 1.268 1.268 1.268h.833c.868 0 1.435.634 1.435 1.4 0 .8-.533 1.435-1.4 1.435zm4.604-20.415a2.402 2.402 0 1 1 0-4.803 2.402 2.402 0 1 1 0 4.803zm0 20.414c-.733 0-1.467-.5-1.467-1.4V1029.2c0-.935.733-1.435 1.467-1.435a1.37 1.37 0 0 1 1.401 1.435v14.876c0 .935-.7 1.4-1.4 1.4zm10.376-14.877h-1.5v13.442c0 .935-.7 1.4-1.468 1.4-.7 0-1.4-.467-1.4-1.4V1030.6h-1.37c-.9 0-1.4-.667-1.4-1.4 0-.768.5-1.435 1.4-1.435h1.367v-2.27c0-2.135 1.77-3.77 3.836-3.77.968 0 1.468.667 1.468 1.434 0 .7-.5 1.4-1.468 1.4-.566 0-.967.434-.967.9v2.302h1.5c.967 0 1.468.667 1.468 1.435 0 .733-.5 1.4-1.468 1.4z"/><use xlink:href="#C" x="42.068"/><path d="M154.725 1045.544c-1.802 0-3.336-1.534-3.336-3.402v-18.98c0-.967.7-1.434 1.435-1.434s1.435.467 1.435 1.4v19.013c0 .4.3.567.467.567.934 0 1.435.667 1.435 1.435 0 .733-.5 1.4-1.435 1.4zm15.37-.066v-1.264c1.886-.237 2.046-.437 2.046-3.157v-6.7c0-2.8-1.248-4.017-3.064-4.017-1.237 0-2.345.6-3.47 1.493v9.476c0 2.527.187 2.658 2.06 2.896v1.264h-8.968v-1.264c2.254-.33 2.5-.4 2.5-3v-8.2c0-2.446-.303-2.565-2.185-2.922v-1.184c2.173-.292 4.63-.807 6.653-1.533l-.052 2.95 2.6-1.745c1.16-.713 2-1.086 3.16-1.086 3.194 0 5.2 2.338 5.2 6.3v7.5c0 2.54.237 2.657 2.277 2.92v1.264h-8.74zm23.9-3.703c-2.458 3.427-5.488 4.178-7.014 4.178-5.142 0-8.124-3.936-8.124-8.594 0-2.745 1.183-5.396 2.832-7.062 1.74-1.8 3.945-2.814 6.082-2.814 3.73 0 6.396 3.126 6.37 6.347-.014.715-.08 1.277-.612 1.4-.767.184-6.17.5-10.318.647.062 4.587 2.717 6.74 5.556 6.74 1.572 0 3.104-.597 4.543-1.866l.686 1.014zm-7.07-12.7c-1.667 0-3.167 1.807-3.516 4.963l5.486-.118c.6-.026.848-.146.848-.792.04-2.022-1.037-4.053-2.818-4.053zm34.284.145c-1.943.343-2.248.624-3.105 2.765-1.33 3.462-3.102 8.53-4.934 13.94h-1.512l-4.65-11.46-4.55 11.46h-1.472l-4.685-14.192c-.687-1.985-.94-2.274-2.855-2.512v-1.25h9.397v1.25c-2.325.345-2.535.672-2.058 2.133l2.52 8.214c1.507-3.68 2.988-7.62 4.327-11.424h1.456c1.4 3.76 2.986 7.702 4.573 11.568.742-2.107 2.062-5.964 2.557-8.108.412-1.674-.008-2.078-2.753-2.383v-1.25h7.742v1.25zm9.4 3.746c-.92-2.606-2.155-3.984-4.2-3.984-1.206 0-2.225.86-2.225 2.266 0 1.497 1.046 2.264 3.16 3.216 3.278 1.496 5.3 2.787 5.3 5.736 0 3.85-3.6 5.764-6.945 5.764-2.06 0-4.088-.737-4.92-1.16l-.662-4.892 1.252-.224c.8 2.5 2.33 4.75 4.976 4.75 1.505 0 2.438-.952 2.438-2.28 0-1.423-.76-2.333-3.092-3.467-2.67-1.295-5.107-2.64-5.107-5.775 0-3.046 2.533-5.42 6.565-5.42 1.818 0 3.242.396 4.112.567l.62 4.577-1.25.328z"/></g><g opacity=".5" fill="#fff"><path d="M903.458 1046.357c-1.2 0-3.22-.42-3.92-1.58-.08-.12-.08-.22-.08-.3 0-.32.28-.602.58-.602.12 0 .32.102.44.28.72.88 2 1.06 2.98 1.06 1.94 0 2.92-.64 2.92-1.94 0-3.02-6.562-1.42-6.562-5.422 0-2.02 2.02-2.8 3.84-2.8 1.04 0 2.64.36 3.44 1.16a.56.56 0 0 1 .18.38.65.65 0 0 1-.62.6.53.53 0 0 1-.38-.16c-.62-.6-1.74-.84-2.62-.84-1.76 0-2.7.682-2.7 1.66 0 2.8 6.562 1.32 6.562 5.422 0 2.28-2 3.08-4.06 3.08zm10.722-.04c-3.22 0-5.02-2.64-5.02-5.662 0-3 1.8-5.64 5.02-5.64s5.02 2.64 5.02 5.64c0 3.02-1.8 5.662-5.02 5.662zm0-10.162c-2.36 0-3.88 1.9-3.88 4.5s1.52 4.52 3.88 4.52c2.38 0 3.88-1.92 3.88-4.52s-1.5-4.5-3.88-4.5z"/><use xlink:href="#D"/><path d="M937.918 1036.336a3.42 3.42 0 0 0-3.421 3.42v5.662c0 .36-.3.56-.56.56-.28 0-.58-.2-.58-.56v-9.502c0-.36.3-.56.58-.56.26 0 .56.2.56.56v.82c.9-.98 2.08-1.54 3.42-1.54.36 0 .58.3.58.56a.58.58 0 0 1-.58.58zm10.182 8.46c-.88.98-2.1 1.52-3.58 1.52-3.22 0-5.02-2.64-5.02-5.662 0-3 1.8-5.64 5.02-5.64 1.48 0 2.7.54 3.58 1.52.12.12.16.262.16.38a.63.63 0 0 1-.58.6c-.14 0-.28-.06-.42-.2-.66-.74-1.58-1.16-2.74-1.16-2.36 0-3.88 1.9-3.88 4.5s1.52 4.52 3.88 4.52c1.16 0 2.08-.44 2.74-1.16.14-.14.28-.2.42-.2.3 0 .58.26.58.58 0 .14-.04.26-.16.398z"/><use xlink:href="#E"/><path d="M963.658 1039.416c-.64 0-1.16-.5-1.16-1.14s.52-1.14 1.16-1.14c.62 0 1.12.5 1.12 1.14s-.5 1.14-1.12 1.14zm0 6.563c-.64 0-1.16-.5-1.16-1.14s.52-1.14 1.16-1.14c.62 0 1.12.5 1.12 1.14s-.5 1.14-1.12 1.14zm14.74-6.163h-4.86v5.602c0 .36-.3.56-.56.56-.28 0-.58-.2-.58-.56v-13.123c0-.3.28-.56.58-.56h5.4c2.26 0 4.06 1.8 4.06 4.02 0 2.26-1.8 4.06-4.04 4.06zm0-6.96h-4.86v5.82h4.84c1.62 0 2.92-1.28 2.92-2.9s-1.3-2.92-2.9-2.92z"/><use xlink:href="#D" x="63.58"/><path d="M1001.958 1046.318c-1.74 0-3.04-.72-3.88-1.9v1c0 .36-.3.56-.56.56-.28 0-.58-.2-.58-.56v-13.123c0-.36.3-.56.58-.56.26 0 .56.2.56.56v4.602c.84-1.16 2.14-1.88 3.88-1.88 3.22 0 5.02 2.64 5.02 5.64 0 3.02-1.8 5.662-5.02 5.662zm0-10.162c-2.38 0-3.88 1.9-3.88 4.5s1.5 4.52 3.88 4.52 3.88-1.92 3.88-4.52-1.5-4.5-3.88-4.5zm19.602 9.824c-.28 0-.56-.2-.56-.56v-10.863l-4.76 8.844c-.12.26-.3.36-.46.36-.22 0-.4-.12-.54-.36l-4.74-8.844v10.863c0 .36-.3.56-.56.56-.28 0-.58-.2-.58-.56v-13.123c0-.34.3-.56.6-.56a.52.52 0 0 1 .479.281l5.302 9.902 5.32-9.902c.12-.2.3-.28.48-.28.3 0 .6.22.6.56v13.123c0 .36-.3.56-.58.56z"/><use xlink:href="#E" x="74.32"/><path d="M1045.958 1045.98c-.28 0-.58-.2-.58-.56v-1c-.84 1.18-2.14 1.9-3.88 1.9-3.22 0-5.02-2.64-5.02-5.662 0-3 1.8-5.64 5.02-5.64 1.74 0 3.04.72 3.88 1.88v-4.602c0-.36.3-.56.58-.56.26 0 .56.2.56.56v13.123c0 .36-.3.56-.56.56zm-4.46-9.822c-2.36 0-3.88 1.9-3.88 4.5s1.52 4.52 3.88 4.52c2.38 0 3.88-1.92 3.88-4.52s-1.5-4.5-3.88-4.5z"/></g><defs><path id="B" d="M84.664 84.664H1080V1080H84.664z"/><path id="C" d="M104.714 1045.51c-.633 0-1.267-.367-1.4-1.1-1.334 1.034-2.97 1.668-4.804 1.668-4.136 0-7.604-3.436-7.604-7.605v-9.24a1.37 1.37 0 0 1 1.4-1.435c.768 0 1.468.5 1.468 1.4v9.272c0 2.602 2.168 4.77 4.736 4.77 2.603 0 4.77-2.17 4.77-4.77v-9.24c0-1.034.667-1.468 1.4-1.468.768 0 1.435.5 1.435 1.435v14.9c0 .934-.667 1.4-1.4 1.4z"/><path id="D" d="M929.96 1045.98c-.28 0-.58-.2-.58-.56v-.64c-.84.98-2.06 1.54-3.42 1.54-2.48 0-4.56-2.08-4.56-4.56v-5.842c0-.36.3-.56.58-.56.26 0 .56.2.56.56v5.842c0 1.9 1.52 3.42 3.42 3.42s3.42-1.52 3.42-3.42v-5.842c0-.36.3-.56.58-.56.26 0 .56.2.56.56v9.502c0 .36-.3.56-.56.56z"/><path id="E" d="M959.68 1041.236h-8.302c.18 2.28 1.66 3.94 3.84 3.94 1.08 0 2.36-.48 2.94-1.38.14-.22.3-.28.48-.28.3 0 .62.24.62.54 0 .18 0 .22-.38.658-.92 1.082-2.26 1.602-3.66 1.602-3.22 0-5.02-2.64-5.02-5.662 0-3 1.8-5.64 5.02-5.64s5.02 2.66 5.02 5.64c0 .3-.28.58-.56.58zm-4.46-5.08c-2.4 0-3.66 1.84-3.84 3.94h7.7c-.18-2.28-1.66-3.94-3.86-3.94z"/><path id="F" d="M423.968 108.774h-61.38c1.33 16.86 12.276 29.137 28.397 29.137 7.987 0 17.453-3.55 21.742-10.206 1.036-1.627 2.22-2.07 3.55-2.07 2.22 0 4.585 1.774 4.585 3.993 0 1.33 0 1.627-2.8 4.88-6.804 7.987-16.713 11.832-27.066 11.832-23.812 0-37.124-19.523-37.124-41.856 0-22.186 13.31-41.71 37.124-41.71s37.124 19.67 37.124 41.71c0 2.22-2.07 4.29-4.142 4.29zm-32.982-37.567c-17.75 0-27.066 13.607-28.397 29.137h56.943c-1.33-16.86-12.276-29.137-28.545-29.137z"/><path id="G" d="M191.028 295.956h-.148c-4.88 0-11.833-2.662-14.643-11.537-6.212 8.727-15.826 14.05-28.693 14.05-24.108 0-37.124-19.82-37.124-41.856 0-22.334 13.31-41.71 37.124-41.71 12.868 0 22.48 5.325 28.693 13.903v-7.248c0-2.366 1.923-4.14 4.29-4.14 2.07 0 4.142 1.48 4.142 4.14v59.605c0 9.466 10.65 3.55 10.65 10.65 0 1.922-1.33 4.14-4.29 4.14zm-43.484-72.62c-17.453 0-28.693 14.05-28.693 33.278s11.24 33.426 28.693 33.426c17.6 0 28.693-14.2 28.693-33.426s-11.093-33.278-28.693-33.278z"/><path id="H" d="M260.244 223.188l-29.137 69.367c-.888 1.923-2.22 3.402-4.142 3.402s-3.402-1.48-4.29-3.402l-29.137-69.22c-.296-.74-.296-1.33-.296-1.923 0-2.366 2.07-3.993 4.29-3.993 1.33 0 2.958.59 3.698 2.514l25.735 60.79 25.587-60.79c.888-1.923 2.367-2.662 3.846-2.662 2.218 0 4.29 1.627 4.29 3.993 0 .444 0 1.184-.444 1.923z"/><path id="I" d="M214.542 448.972c-7.987 0-14.643-7.395-14.643-15.678v-86.375c0-2.662 2.22-4.14 4.3-4.14 1.923 0 4.14 1.48 4.14 4.14v86.375c0 9.466 10.5 3.994 10.5 10.65 0 2.514-1.774 5.028-4.29 5.028z"/><path id="J" d="M489.333 355.35a8.33 8.33 0 1 1 0-16.861 8.33 8.33 0 1 1 0 16.861zm0 92.735c-2.07 0-4.3-1.33-4.3-4.14V373.69c0-2.662 2.07-4.14 4.3-4.14 1.923 0 4.14 1.33 4.14 4.14v70.254c0 2.662-1.923 4.14-4.14 4.14z"/><path id="K" d="M42.83 659.606a8.33 8.33 0 1 1 0-16.861 8.33 8.33 0 1 1 0 16.861zm0 92.735c-2.07 0-4.3-1.33-4.3-4.142v-70.254c0-2.662 2.07-4.142 4.3-4.142 1.923 0 4.14 1.33 4.14 4.142V748.2c0 2.662-1.923 4.142-4.14 4.142z"/></defs><clipPath id="L"><use xlink:href="#B"/></clipPath><g opacity=".2" clip-path="url(#L)"><path d="M991.54 578.646c2.625 2.588 1.807 5.403.077 7.856-2.32 3.29-4.683 6.704-7.666 9.342-8.664 7.663-17.418 15.26-26.556 22.344-16.774 13.002-34.56 24.503-53.41 34.317-4.845 2.523-9.62 5.183-13.698 7.388l42.587 5.343c16.6 2.402 32.678 6.964 48.324 13.007 9.01 3.48 17.9 7.3 27.023 10.45 3.86 1.333 8.2 1.255 12.276 1.993 1.396.252 2.697 1.037 4.04 1.58-.897 1.066-1.616 2.41-2.736 3.13-1.484.953-3.263 1.467-4.947 2.085L976 712.382l-43.618 14.543c-7.554 2.343-15.413 3.7-23.687 5.634 1.205 1.384 1.835 2.3 2.647 3.008 6.2 5.414 12.23 11.078 18.736 16.114l44.884 33.797c2.807 2.063 6.344 3.855 9.73 4.28 14.09 1.773 28.24 3.12 42.393 4.343 12.26 1.06 24.546 1.817 36.83 2.56l33.602 1.75 21.397 1.572c-.675 1.1-1.38 1.666-2.135 1.743-6.24.636-12.488 1.68-18.732 1.664l-71.1-.828c-6.12-.116-12.216-1.192-18.338-1.568-4.102-.252-8.233-.048-12.35-.048l-.307 1.136 21.423 15.774c15.363 11.244 31.407 21.117 49.63 27.316 34.934 11.883 70.434 21.713 106.278 30.36l47.636 11.034 54.676 11.88 29.865 6.843V907c-1.695-.02-3.418.15-5.08-.092l-33.316-5.007-37.34-6.084-43.178-8.348c-18.294-3.692-36.745-6.812-54.783-11.507-24.03-6.254-47.85-13.395-71.51-20.94-11.26-3.59-22.802-7.635-32.698-13.878-17.078-10.775-32.932-23.483-49.393-35.25-3.868-2.766-7.856-6.438-12.225-7.204-8.896-1.56-18.094-1.352-27.156-2.023-3.446-.255-7.146-.244-10.235-1.538-8.12-3.4-16.456-6.683-23.825-11.392-19.36-12.37-38.333-25.354-57.288-38.344-6.862-4.703-13.347-10-21.613-12.022-9.92-2.438-19.875-4.768-29.885-6.793-1.315-.266-3.954 1.212-4.4 2.457-1.123 3.064-1.243 6.482-1.93 9.724-1.147 5.422-.16 11.978-7.45 14.288-.5.16-.948 1.716-.79 2.493.44 2.152 1.135 4.265 1.874 6.342l14.924 41.725c6 16.743 13.145 32.94 23.415 47.542l38.217 53.4c7.513 10.33 16.04 19.808 26.132 27.722L914 953.776l38.068 29.77c4.143 3.297 7.9 7.092 11.818 10.66l-.79 1.013c-.572-.237-1.184-.407-1.71-.722-13.295-7.958-26.992-15.33-39.76-24.06-14.417-9.855-28.267-20.6-41.848-31.595-8.865-7.177-17.763-14.708-24.947-23.473-11.047-13.478-20.79-28.044-30.788-42.355-7.21-10.32-14.477-20.668-20.76-31.557-9.802-16.99-14.376-36.164-21.265-54.373-2.707-7.156-5.1-14.43-8.052-22.834-4.647 11.922-12.76 6.985-19.76 5.74-1.506 3.357-2.135 7.723-4.583 9.35-2.288 1.52-6.508.133-9.794.028l2.256 15.2c1.133 8.254 2.426 16.496 3.192 24.786.48 5.197 1.38 10.864-.108 15.634-3.94 12.634-8.85 24.986-13.785 37.287-8.943 22.298-19.657 43.71-33.452 63.455-2.095 3-4.998 5.432-7.528 8.127l-1.073-.763c.514-1.338.922-2.73 1.56-4.006 5.133-10.296 10.842-20.343 15.36-30.9l25.776-62.884c4.06-9.625 5.036-19.21 3.204-29.432-2.005-11.19-3.26-22.5-5.07-33.738-.643-3.988-.035-8.758-4.25-11.265-4.883-2.904-9.942-5.545-15.075-7.98-2.694-1.28-5.552-1.893-5.316 2.99.12 2.463-.75 4.966-.7 7.442.14 7.3.652 14.595.763 21.895.142 9.33-.276 18.677.107 27.994.575 13.958-1.8 27.568-4.7 41.044-3.98 18.628-8.463 37.164-13.3 55.6-3.817 14.542-7.127 29.423-18.243 40.832-11.39 11.69-22.186 23.99-33.94 35.294-13.007 12.5-26.707 24.31-40.304 36.193-6.598 5.765-13.65 11.012-20.495 16.493l-.75-.74c1.21-1.61 2.268-3.36 3.65-4.803l26.448-27.365 54.83-57.42c6.54-6.912 11.707-14.922 14.416-24.044 6.165-20.762 12.398-41.534 17.526-62.565 4.19-17.18 6.267-34.812 6.252-52.575-.005-6.45-.458-12.903-.837-19.346-.137-2.33-.658-4.637-1.026-7.11l-11.755 10.51c-3.353 3.153-7.45 5.667-7.622 11.245-.286 9.23-.898 18.458-1.652 27.664-1.287 15.705-2.005 31.515-4.444 47.048-2.068 13.17-6.19 26.018-9.515 38.98-.435 1.696-1.525 3.225-2.31 4.83-.618-2.65-.593-5.04-.184-7.363 1.464-8.31 3.34-16.56 4.534-24.907 1.69-11.83 3.46-23.695 4.182-35.606.7-11.7.155-23.497.155-34.37l-11.342 21.75c-10.55 19.564-23.937 37.15-39.036 53.312-9.967 10.67-20.99 20.37-31.774 30.25-12.625 11.565-26.267 21.853-40.932 30.71-3.522 2.127-7.46 3.563-11.207 5.317l-.686-1.34c17.09-13.852 34.678-27.143 51.135-41.712 16.7-14.785 31.728-31.36 44.618-49.66 12.613-17.906 23.426-36.852 31.326-57.357-1.556 1.47-2.682 3.245-4.113 4.724l-18.233 18.598c-4.115 4.307-10.062 7.473-11.23 13.816-2.37 12.863-10.176 21.74-20.177 29.092-18.02 13.248-37.455 24.207-57.49 34.003-16.403 8.02-33.1 15.495-49.97 22.475-7.446 3.08-15.647 4.334-23.505 6.417v-1.697c.422-.03.9.06 1.26-.108l52.164-24.6c11.877-5.94 23.516-12.464 34.763-19.522 12.417-7.792 24.456-16.23 36.272-24.913 5.252-3.86 9.554-9.013 14.287-13.58l-.93-1.13-16.77 10.278c-.182-1.473.138-2.247.705-2.738l14.9-12.837c1.963-1.79 4.376-3.955 4.9-6.322L630.172 785l19.535-89.068c1.365-6.12 3.385-12.097 5.302-18.84 14.966 7.795 25.248 20.428 38.545 29.462l1.742-26.084 1.694-.35 8.643 12.855c2.42-1.968 4.867-4.612 7.87-6.222 3.188-1.7 3.27-4.115 3.15-6.985l-.777-22.316c-.02-1.342.983-2.7 1.514-4.05 1.207.954 2.857 1.663 3.544 2.904 2.948 5.324 5.548 10.84 8.403 16.217 2.04 3.844 3.865 4.033 5.868.302 1.59-2.963 2.35-6.37 3.503-9.573l2.94-7.932 9.045 11.426 2.44-11.116 5.122-21.292c.544-2.124 1.942-4.482 4.37-2.326 4.793 4.257 9.104 9.052 13.76 13.47 2.914 2.764 6.098 5.244 9.964 8.535l9.794-44.215c3.983 3.476 7.212 5.9 9.962 8.78 5.122 5.365 9.915 11.04 14.95 16.492 1.968 2.13 4.072 2.734 7.26 1.533 14.725-5.544 29.63-10.61 44.425-15.97l115.402-41.994h3.394zM628.514 843.063l1.06.634c4.525-4.89 9.473-9.46 13.48-14.745 6.767-8.923 12.555-18.6 19.486-27.382 5.153-6.53 2.51-12.087-.105-18.173-4.863-11.32-5.1-22.55.816-33.696 4.546-8.564 13.794-12.62 22.952-9.834 1.06.322 2.268.153 3.407.212-.07-1.028-.073-2.066-.223-3.083-.604-4.094-.39-8.592-2.094-12.173-2.39-5.026-6.005-9.538-9.504-13.947-2.532-3.2-5.674-5.91-8.642-8.738-2.844-2.708-5.814-5.282-8.865-8.04l-31.77 148.963zm302.048-73.51l-24.907-20.208c-4.08-3.41-7.74-7.318-11.762-10.804-3.906-3.386-8.668-4.252-13.692-3.758l-19.723 2.1c3.42 2.52 6.53 5 9.835 7.21l48.72 32.28c11.234 7.44 20.7 10.5 31.663 9.094l-20.134-15.904zM803.9 637.293l-1.604.37c.278 2.492.323 5.056 1.058 7.405.125.398 3.214-.132 4.934-.233l.254-1.5-4.642-6.043zm-37.586 23.35c.19.292 1.952-.445 3.65-.875l-5.532-4.883-.894.196c.885 1.88 1.648 3.84 2.776 5.562z"/></g><linearGradient id="M" gradientUnits="userSpaceOnUse" x1="163.443" y1="181.841" x2="591.282" y2="609.679"><stop offset="0" stop-color="#00d2ff"/><stop offset=".112" stop-color="#09c5f9"/><stop offset=".502" stop-color="#239de5"/><stop offset=".812" stop-color="#3484d9"/><stop offset="1" stop-color="#3a7bd5"/></linearGradient><path d="M13.956 331.328H740.77V460.19H13.956z" fill="url(#M)"/><g fill="#fc9cb4"><path d="M72.115 146.342c-11.4 0-26.918-4.585-35.35-13.015-1.035-1.036-1.33-1.923-1.33-2.958 0-2.22 2.07-4.3 4.3-4.3 1.774 0 1.627.444 4.733 2.8 7.84 5.77 17.6 9.022 27.658 9.022 18.636 0 29.433-6.952 29.433-20.263 0-35.053-62.563-15.53-62.563-55.908 0-17.75 15.53-25.883 34.6-25.883 10.65 0 25.587 4.585 32.243 13.903.6.887.887 1.627.887 2.514 0 2.367-2.07 4.14-4.437 4.14-2.07 0-2.07-.6-4.585-3.106C91.5 47.1 82.32 44.3 73.594 44.3c-17.6 0-26.18 6.804-26.18 17.453 0 31.8 62.563 13.312 62.563 55.908 0 20.56-18.044 28.693-37.863 28.693zm51.025-95.25a8.33 8.33 0 0 1-8.431-8.431 8.33 8.33 0 0 1 8.431-8.431 8.33 8.33 0 0 1 8.43 8.431 8.33 8.33 0 0 1-8.43 8.431zm0 92.735c-2.07 0-4.3-1.33-4.3-4.14V69.432c0-2.662 2.07-4.14 4.3-4.14 1.923 0 4.14 1.33 4.14 4.14v70.254c0 2.662-1.923 4.14-4.14 4.14zm112.554.001c-2.07 0-4.14-1.48-4.14-4.14V90c0-10.205-8.578-18.784-18.784-18.784s-18.932 8.58-18.932 18.636v49.844c0 2.662-2.07 4.14-4.14 4.14s-4.3-1.48-4.3-4.14V90c0-10.205-8.578-18.784-18.636-18.784-10.353 0-18.932 8.58-18.932 18.636v49.844c0 2.662-2.218 4.14-4.14 4.14-2.07 0-4.3-1.48-4.3-4.14V69.432c0-2.662 2.22-4.14 4.3-4.14 1.923 0 4.14 1.48 4.14 4.14v.888c4.88-4.733 11.537-7.543 18.784-7.543 9.466 0 17.896 4.733 23.073 12.572 4.88-7.543 13.3-12.572 22.925-12.572 15.382 0 27.362 12.128 27.362 27.066v49.844c0 2.662-2.22 4.14-4.3 4.14zm52.206 2.514c-12.868 0-22.48-5.324-28.693-14.05V170.6a4.26 4.26 0 0 1-4.141 4.289c-2.07 0-4.3-1.627-4.3-4.3V69.432c0-2.662 2.22-4.14 4.3-4.14 1.923 0 4.14 1.48 4.14 4.14v7.248c6.212-8.58 15.826-13.903 28.693-13.903 23.813 0 37.124 19.523 37.124 41.7 0 22.334-13.3 41.856-37.124 41.856zm0-75.135c-17.6 0-28.693 14.05-28.693 33.278S270.3 137.91 287.9 137.91s28.693-14.2 28.693-33.426S305.5 71.207 287.9 71.207zm60.492 73.508c-7.987 0-14.643-7.395-14.643-15.678V42.662c0-2.662 2.22-4.14 4.3-4.14 1.923 0 4.14 1.48 4.14 4.14v86.375c0 9.466 10.5 3.994 10.5 10.65 0 2.514-1.774 5.028-4.3 5.028z"/><use xlink:href="#F"/><path d="M501.315 146.342c-12.868 0-22.48-5.324-28.693-14.05v7.396c0 2.662-2.218 4.14-4.14 4.14-2.07 0-4.3-1.48-4.3-4.14V42.662c0-2.662 2.22-4.14 4.3-4.14 1.923 0 4.14 1.48 4.14 4.14V76.68c6.212-8.58 15.826-13.903 28.693-13.903 23.813 0 37.124 19.523 37.124 41.71 0 22.333-13.31 41.856-37.124 41.856zm0-75.135c-17.6 0-28.693 14.05-28.693 33.278s11.093 33.426 28.693 33.426 28.693-14.2 28.693-33.426-11.093-33.278-28.693-33.278z"/><use xlink:href="#F" x="189.9"/><path d="M693.436 143.828c-2.07 0-4.3-1.48-4.3-4.14v-7.396c-6.212 8.727-15.826 14.05-28.693 14.05-23.812 0-37.124-19.523-37.124-41.856 0-22.186 13.3-41.7 37.124-41.7 12.868 0 22.48 5.325 28.693 13.903V42.662c0-2.662 2.218-4.14 4.3-4.14 1.923 0 4.142 1.48 4.142 4.14v97.025c0 2.662-2.22 4.14-4.142 4.14zm-32.982-72.62c-17.453 0-28.693 14.05-28.693 33.278s11.24 33.426 28.693 33.426c17.6 0 28.693-14.2 28.693-33.426s-11.093-33.278-28.693-33.278zm139.912 72.62c-2.07 0-4.3-1.48-4.3-4.14V96.5c0-14.05-11.24-25.3-25.3-25.3-13.903 0-25.292 11.24-25.292 25.292V139.7c0 2.662-2.218 4.14-4.14 4.14-2.07 0-4.3-1.48-4.3-4.14V69.432c0-2.662 2.22-4.14 4.3-4.14 1.923 0 4.14 1.48 4.14 4.14v4.733c6.656-7.247 15.382-11.4 25.292-11.4 18.34 0 33.722 15.234 33.722 33.722v43.188c0 2.662-2.22 4.14-4.142 4.14z"/><use xlink:href="#F" x="458.038"/><path d="M918.978 143.828h-4.585c-11.684 0-17.453-5.768-17.453-17.305V73.72h-7.543c-2.662 0-4.14-2.218-4.14-4.3 0-1.923 1.48-4.14 4.14-4.14h7.543V42.66c0-2.662 2.22-4.14 4.3-4.14s4.14 1.48 4.14 4.14V65.3h13.607c2.663 0 4.142 2.218 4.142 4.14 0 2.07-1.48 4.3-4.142 4.3H905.38v52.802c0 7.247 2.07 8.874 9.022 8.874h4.585c2.663 0 4.142 2.22 4.142 4.3 0 1.922-1.48 4.14-4.142 4.14zm39.342 2.8c-8.875 0-23.812-3.106-29-11.684-.6-.888-.6-1.627-.6-2.22 0-2.366 2.07-4.437 4.3-4.437.887 0 2.366.74 3.254 2.07 5.324 6.507 14.8 7.84 22.038 7.84 14.347 0 21.594-4.733 21.594-14.347 0-22.333-48.512-10.5-48.512-40.082 0-14.938 14.938-20.707 28.397-20.707 7.7 0 19.523 2.662 25.44 8.58.887.887 1.33 1.923 1.33 2.8 0 2.22-2.22 4.437-4.585 4.437a3.88 3.88 0 0 1-2.8-1.183c-4.585-4.437-12.868-6.212-19.375-6.212-13.016 0-19.967 5.03-19.967 12.276 0 20.707 48.512 9.762 48.512 40.082 0 16.86-14.8 22.777-30.024 22.777zM98.886 295.956c-2.07 0-4.3-1.48-4.3-4.14v-43.188c0-14.05-11.24-25.3-25.3-25.3-13.903 0-25.3 11.24-25.3 25.3v43.188c0 2.662-2.218 4.14-4.14 4.14-2.07 0-4.3-1.48-4.3-4.14V194.8c0-2.662 2.22-4.14 4.3-4.14 1.923 0 4.14 1.48 4.14 4.14v31.503c6.212-7.247 15.234-11.4 25.292-11.4 18.34 0 33.722 15.234 33.722 33.722v43.188c0 2.662-2.22 4.14-4.142 4.14z"/><use xlink:href="#G"/><use xlink:href="#H"/><use xlink:href="#F" x="-91.106" y="152.129"/><path d="M410.2 298.47c-12.868 0-22.48-5.324-28.693-14.05v38.307a4.26 4.26 0 0 1-4.141 4.289c-2.07 0-4.3-1.627-4.3-4.3V221.56c0-2.662 2.22-4.14 4.3-4.14 1.923 0 4.14 1.48 4.14 4.14v7.248c6.212-8.58 15.826-13.903 28.693-13.903 23.813 0 37.124 19.523 37.124 41.7 0 22.334-13.3 41.856-37.124 41.856zm0-75.135c-17.6 0-28.693 14.05-28.693 33.278S392.6 290.04 410.2 290.04s28.693-14.2 28.693-33.426-11.093-33.278-28.693-33.278zm79.57 1.332c-13.903 0-25.292 11.24-25.292 25.3v41.857c0 2.662-2.218 4.14-4.14 4.14-2.07 0-4.3-1.48-4.3-4.14V221.56c0-2.662 2.22-4.14 4.3-4.14 1.923 0 4.14 1.48 4.14 4.14v6.064c6.656-7.247 15.382-11.388 25.292-11.388a4.26 4.26 0 0 1 4.289 4.141c0 2.07-1.627 4.3-4.3 4.3zm72.47 36.236h-61.38c1.33 16.86 12.276 29.137 28.397 29.137 7.987 0 17.453-3.55 21.742-10.206 1.036-1.627 2.22-2.07 3.55-2.07 2.22 0 4.585 1.774 4.585 3.993 0 1.33 0 1.627-2.8 4.88-6.804 7.987-16.713 11.832-27.066 11.832-23.813 0-37.124-19.523-37.124-41.856 0-22.186 13.3-41.7 37.124-41.7s37.124 19.67 37.124 41.7c0 2.22-2.07 4.3-4.142 4.3zm-32.982-37.567c-17.75 0-27.066 13.607-28.397 29.137h56.943c-1.33-16.86-12.276-29.137-28.545-29.137z"/><use xlink:href="#H" x="375.216"/><use xlink:href="#F" x="284.109" y="152.129"/><path d="M784.243 295.956c-2.07 0-4.3-1.48-4.3-4.14v-43.188c0-14.05-11.24-25.3-25.3-25.3-13.903 0-25.292 11.24-25.292 25.3v43.188c0 2.662-2.218 4.14-4.14 4.14-2.07 0-4.3-1.48-4.3-4.14V221.56c0-2.662 2.22-4.14 4.3-4.14 1.923 0 4.14 1.48 4.14 4.14v4.733c6.656-7.247 15.382-11.4 25.292-11.4 18.34 0 33.722 15.234 33.722 33.722v43.188c0 2.662-2.22 4.14-4.142 4.14zm42.003 0h-4.585c-11.684 0-17.453-5.768-17.453-17.305v-52.8h-7.543c-2.662 0-4.14-2.218-4.14-4.3 0-1.923 1.48-4.14 4.14-4.14h7.543V194.8c0-2.662 2.22-4.14 4.3-4.14s4.14 1.48 4.14 4.14v22.63h13.607c2.663 0 4.142 2.218 4.142 4.14 0 2.07-1.48 4.3-4.142 4.3H812.64v52.802c0 7.247 2.07 8.874 9.022 8.874h4.585c2.663 0 4.142 2.22 4.142 4.3 0 1.922-1.48 4.14-4.142 4.14z"/><use xlink:href="#F" x="477.708" y="152.129"/><path d="M981.244 295.956c-2.07 0-4.29-1.48-4.29-4.14v-7.396c-6.212 8.727-15.826 14.05-28.693 14.05-23.812 0-37.124-19.523-37.124-41.856 0-22.186 13.31-41.71 37.124-41.71 12.868 0 22.48 5.325 28.693 13.903V194.8c0-2.662 2.22-4.14 4.29-4.14 1.923 0 4.142 1.48 4.142 4.14v97.025c0 2.662-2.22 4.14-4.142 4.14zm-32.982-72.62c-17.453 0-28.693 14.05-28.693 33.278s11.24 33.426 28.693 33.426c17.6 0 28.693-14.2 28.693-33.426s-11.093-33.278-28.693-33.278z"/></g><g fill="#4affff"><path d="M98.886 448.084c-2.07 0-4.29-1.48-4.29-4.14v-43.188c0-14.05-11.24-25.292-25.29-25.292-13.903 0-25.29 11.24-25.29 25.292v43.188c0 2.662-2.218 4.14-4.14 4.14-2.07 0-4.3-1.48-4.3-4.14v-97.025c0-2.662 2.22-4.14 4.3-4.14 1.923 0 4.14 1.48 4.14 4.14v31.503c6.212-7.247 15.234-11.39 25.292-11.39 18.34 0 33.722 15.234 33.722 33.722v43.188c0 2.662-2.22 4.14-4.142 4.14z"/><use xlink:href="#G" y="152.128"/><use xlink:href="#I"/><path d="M251.663 351.06h-4.585c-3.55 0-6.508 2.96-6.508 6.36v12.128h11.093c2.81 0 4.142 2.218 4.142 4.14 0 2.07-1.48 4.29-4.142 4.29H240.57v65.965c0 2.662-2.07 4.14-4.14 4.14s-4.14-1.33-4.14-4.14v-65.965h-10.206c-2.662 0-4.14-2.218-4.14-4.29 0-1.923 1.48-4.14 4.14-4.14h10.206V357.42c0-8.134 6.655-14.642 14.642-14.642h4.733c2.663 0 4.3 2.07 4.3 4.29 0 2.07-1.48 3.993-4.3 3.993z"/><use xlink:href="#G" x="174.812" y="152.128"/><path d="M439.196 450.6c-12.868 0-22.48-5.324-28.693-14.05v7.396c0 2.662-2.218 4.14-4.14 4.14-2.07 0-4.3-1.48-4.3-4.14v-97.025c0-2.662 2.22-4.14 4.3-4.14 1.923 0 4.14 1.48 4.14 4.14v34.018c6.212-8.58 15.826-13.903 28.693-13.903 23.813 0 37.124 19.523 37.124 41.71 0 22.333-13.31 41.856-37.124 41.856zm0-75.135c-17.6 0-28.693 14.05-28.693 33.278s11.093 33.426 28.693 33.426 28.693-14.2 28.693-33.426-11.093-33.278-28.693-33.278z"/><use xlink:href="#J"/><use xlink:href="#I" x="305.702"/><use xlink:href="#I" x="329.216"/><use xlink:href="#J" x="67.587"/><path d="M606.9 450.6c-23.812 0-37.124-19.523-37.124-41.856 0-22.186 13.3-41.7 37.124-41.7s37.124 19.523 37.124 41.7c0 22.333-13.312 41.856-37.124 41.856zm0-75.135c-17.453 0-28.693 14.05-28.693 33.278s11.24 33.426 28.693 33.426c17.6 0 28.693-14.2 28.693-33.426S624.5 375.465 606.9 375.465zm109.16 72.62c-2.07 0-4.3-1.48-4.3-4.14v-43.188c0-14.05-11.24-25.292-25.3-25.292-13.903 0-25.292 11.24-25.292 25.292v43.188c0 2.662-2.218 4.14-4.14 4.14-2.07 0-4.3-1.48-4.3-4.14V373.7c0-2.662 2.22-4.14 4.3-4.14 1.923 0 4.14 1.48 4.14 4.14v4.733c6.656-7.247 15.382-11.4 25.292-11.4 18.34 0 33.722 15.234 33.722 33.722v43.188c0 2.662-2.22 4.14-4.142 4.14z"/></g><g fill="#fc9cb4"><path d="M131.868 600.213c-2.07 0-4.14-1.48-4.14-4.142v-49.695c0-10.205-8.58-18.783-18.784-18.783s-18.932 8.578-18.932 18.636v49.843c0 2.662-2.07 4.142-4.14 4.142s-4.3-1.48-4.3-4.142v-49.695c0-10.205-8.578-18.783-18.636-18.783-10.353 0-18.932 8.578-18.932 18.636v49.843c0 2.662-2.218 4.142-4.14 4.142-2.07 0-4.3-1.48-4.3-4.142V525.82c0-2.662 2.22-4.142 4.3-4.142 1.923 0 4.14 1.48 4.14 4.142v.888c4.88-4.733 11.537-7.543 18.784-7.543 9.466 0 17.896 4.732 23.073 12.57 4.88-7.543 13.3-12.57 22.925-12.57 15.382 0 27.362 12.128 27.362 27.066v49.843c0 2.662-2.22 4.142-4.3 4.142zm92.3 0H224c-4.88 0-11.833-2.662-14.643-11.536-6.212 8.726-15.826 14.05-28.693 14.05-24.108 0-37.124-19.82-37.124-41.857 0-22.333 13.3-41.708 37.124-41.708 12.868 0 22.48 5.324 28.693 13.902v-7.247c0-2.366 1.923-4.142 4.3-4.142 2.07 0 4.142 1.48 4.142 4.142v59.605c0 9.466 10.65 3.55 10.65 10.648 0 1.923-1.33 4.142-4.3 4.142zm-43.484-72.62c-17.453 0-28.693 14.05-28.693 33.277s11.24 33.427 28.693 33.427c17.6 0 28.693-14.2 28.693-33.427s-11.093-33.277-28.693-33.277zM250.63 601.1c-7.987 0-14.643-7.396-14.643-15.678v-86.376c0-2.662 2.22-4.142 4.3-4.142 1.923 0 4.14 1.48 4.14 4.142v86.376c0 9.466 10.5 3.993 10.5 10.648 0 2.515-1.774 5.03-4.3 5.03zm86.077-.887h-.148c-4.88 0-11.833-2.662-14.643-11.536-6.212 8.726-15.826 14.05-28.693 14.05-24.108 0-37.124-19.82-37.124-41.857 0-22.333 13.3-41.708 37.124-41.708 12.868 0 22.48 5.324 28.693 13.902v-7.247c0-2.366 1.923-4.142 4.3-4.142 2.07 0 4.142 1.48 4.142 4.142v59.605c0 9.466 10.65 3.55 10.65 10.648 0 1.923-1.33 4.142-4.3 4.142zm-43.484-72.62c-17.453 0-28.693 14.05-28.693 33.277s11.24 33.427 28.693 33.427c17.6 0 28.693-14.2 28.693-33.427s-11.093-33.277-28.693-33.277zm89.035 1.33c-13.903 0-25.3 11.24-25.3 25.3v41.856c0 2.662-2.218 4.142-4.14 4.142-2.07 0-4.3-1.48-4.3-4.142v-70.254c0-2.662 2.22-4.142 4.3-4.142 1.923 0 4.14 1.48 4.14 4.142v6.064c6.656-7.248 15.382-11.4 25.3-11.4a4.26 4.26 0 0 1 4.289 4.141c0 2.07-1.627 4.3-4.3 4.3zm16.416-21.446a8.43 8.43 0 1 1 0-16.861 8.43 8.43 0 1 1 0 16.861zm0 92.735c-2.07 0-4.3-1.33-4.3-4.142v-70.254c0-2.662 2.07-4.142 4.3-4.142 1.923 0 4.14 1.33 4.14 4.142v70.254c0 2.662-1.923 4.142-4.14 4.142zm93.476 0H492c-4.88 0-11.833-2.662-14.643-11.536-6.212 8.726-15.826 14.05-28.693 14.05-24.108 0-37.124-19.82-37.124-41.857 0-22.333 13.3-41.708 37.124-41.708 12.868 0 22.48 5.324 28.693 13.902v-7.247c0-2.366 1.923-4.142 4.3-4.142 2.07 0 4.142 1.48 4.142 4.142v59.605c0 9.466 10.65 3.55 10.65 10.648 0 1.923-1.33 4.142-4.3 4.142zm-43.484-72.62c-17.453 0-28.693 14.05-28.693 33.277s11.24 33.427 28.693 33.427c17.6 0 28.693-14.2 28.693-33.427s-11.093-33.277-28.693-33.277z"/><use xlink:href="#K"/><path d="M122.402 752.342c-2.07 0-4.3-1.48-4.3-4.142v-43.187c0-14.05-11.24-25.3-25.3-25.3-13.903 0-25.3 11.24-25.3 25.3V748.2c0 2.662-2.218 4.142-4.14 4.142-2.07 0-4.3-1.48-4.3-4.142v-70.254c0-2.662 2.22-4.142 4.3-4.142 1.923 0 4.14 1.48 4.14 4.142v4.733c6.656-7.248 15.382-11.4 25.292-11.4 18.34 0 33.722 15.233 33.722 33.722v43.19c0 2.662-2.22 4.142-4.142 4.142zm42.003-97.025h-4.585c-3.55 0-6.508 2.958-6.508 6.36v12.128h11.093c2.8 0 4.142 2.22 4.142 4.142 0 2.07-1.48 4.3-4.142 4.3h-11.093V748.2c0 2.662-2.07 4.142-4.14 4.142s-4.14-1.33-4.14-4.142v-65.965h-10.206c-2.662 0-4.14-2.22-4.14-4.3 0-1.923 1.48-4.142 4.14-4.142h10.206v-12.128c0-8.135 6.655-14.643 14.642-14.643h4.733c2.663 0 4.3 2.07 4.3 4.3 0 2.07-1.48 3.993-4.3 3.993zM240.72 717.3h-61.38c1.33 16.86 12.276 29.137 28.397 29.137 7.987 0 17.453-3.55 21.742-10.205 1.036-1.627 2.22-2.07 3.55-2.07 2.22 0 4.585 1.775 4.585 3.993 0 1.332 0 1.627-2.8 4.88-6.804 7.987-16.713 11.833-27.066 11.833-23.812 0-37.124-19.523-37.124-41.857 0-22.185 13.3-41.708 37.124-41.708s37.124 19.67 37.124 41.708c0 2.22-2.07 4.3-4.142 4.3zm-32.982-37.567c-17.75 0-27.066 13.606-28.397 29.137h56.943c-1.33-16.86-12.276-29.137-28.545-29.137zm106.044 63.892c-6.508 7.247-15.53 11.24-26.475 11.24-23.812 0-37.124-19.523-37.124-41.857 0-22.185 13.3-41.708 37.124-41.708 10.945 0 19.967 3.993 26.475 11.24.888.888 1.184 1.923 1.184 2.8 0 2.22-2.07 4.437-4.3 4.437-1.035 0-2.07-.443-3.106-1.48-4.88-5.473-11.684-8.578-20.263-8.578-17.453 0-28.693 14.05-28.693 33.277s11.24 33.427 28.693 33.427c8.58 0 15.382-3.254 20.263-8.578 1.036-1.036 2.07-1.48 3.106-1.48 2.22 0 4.3 1.923 4.3 4.3 0 1.035-.296 1.923-1.184 2.958zm37.122 8.727h-4.585c-11.684 0-17.453-5.77-17.453-17.305v-52.802h-7.543c-2.662 0-4.14-2.22-4.14-4.3 0-1.923 1.48-4.142 4.14-4.142h7.543v-22.63c0-2.662 2.22-4.142 4.3-4.142s4.14 1.48 4.14 4.142v22.63h13.607c2.663 0 4.142 2.22 4.142 4.142 0 2.07-1.48 4.3-4.142 4.3h-13.607v52.802c0 7.247 2.07 8.874 9.022 8.874h4.585c2.663 0 4.142 2.22 4.142 4.3 0 1.923-1.48 4.142-4.142 4.142z"/><use xlink:href="#K" x="321.088"/><path d="M413.9 754.856c-23.812 0-37.124-19.523-37.124-41.857 0-22.185 13.3-41.708 37.124-41.708s37.124 19.523 37.124 41.708c0 22.334-13.312 41.857-37.124 41.857zm0-75.135c-17.453 0-28.693 14.05-28.693 33.277s11.24 33.427 28.693 33.427c17.6 0 28.693-14.2 28.693-33.427S431.5 679.72 413.9 679.72zm109.148 72.62c-2.07 0-4.3-1.48-4.3-4.142v-43.187c0-14.05-11.24-25.3-25.292-25.3-13.903 0-25.292 11.24-25.292 25.3V748.2c0 2.662-2.218 4.142-4.14 4.142-2.07 0-4.3-1.48-4.3-4.142v-70.254c0-2.662 2.22-4.142 4.3-4.142 1.923 0 4.14 1.48 4.14 4.142v4.733c6.656-7.248 15.382-11.4 25.292-11.4 18.34 0 33.722 15.233 33.722 33.722v43.19c0 2.662-2.22 4.142-4.142 4.142zm39.637 2.8c-8.875 0-23.812-3.106-29-11.685-.6-.888-.6-1.627-.6-2.22 0-2.366 2.07-4.437 4.3-4.437.887 0 2.366.74 3.254 2.07 5.324 6.508 14.8 7.84 22.038 7.84 14.347 0 21.594-4.733 21.594-14.347 0-22.334-48.512-10.5-48.512-40.082 0-14.938 14.938-20.706 28.397-20.706 7.7 0 19.523 2.662 25.44 8.578.887.888 1.33 1.923 1.33 2.8 0 2.22-2.22 4.438-4.585 4.438-.888 0-1.923-.296-2.8-1.184-4.585-4.437-12.868-6.212-19.375-6.212-13.016 0-19.967 5.03-19.967 12.276 0 20.706 48.512 9.762 48.512 40.082 0 16.86-14.8 22.777-30.024 22.777z"/></g></svg>