<svg xmlns="http://www.w3.org/2000/svg" xmlns:xlink="http://www.w3.org/1999/xlink" viewBox="0 0 1080 1080"><defs><linearGradient id="A" x1="11.716" y1="11.716" x2="1068.284" y2="1068.284" gradientUnits="userSpaceOnUse"><stop offset="0" stop-color="#603813"/><stop offset=".335" stop-color="#83644a"/><stop offset=".628" stop-color="#9c8472"/><stop offset=".859" stop-color="#ac988b"/><stop offset="1" stop-color="#b29f94"/></linearGradient><linearGradient id="B" x1="23.595" y1="141.109" x2="394.606" y2="141.109" gradientUnits="userSpaceOnUse"><stop offset="0" stop-color="#bc4e9c"/><stop offset=".421" stop-color="#db2979"/><stop offset=".781" stop-color="#f01062"/><stop offset="1" stop-color="#f80759"/></linearGradient><linearGradient id="C" x1="131.205" y1="613.195" x2="476.229" y2="958.219" gradientUnits="userSpaceOnUse"><stop offset="0" stop-color="#00d2ff"/><stop offset=".112" stop-color="#09c5f9"/><stop offset=".502" stop-color="#239de5"/><stop offset=".812" stop-color="#3484d9"/><stop offset="1" stop-color="#3a7bd5"/></linearGradient><path id="D" d="M104.714 1045.51a1.36 1.36 0 0 1-1.4-1.101 7.763 7.763 0 0 1-4.804 1.668 7.666 7.666 0 0 1-7.604-7.605v-9.24a1.434 1.434 0 0 1 2.868-.033v9.272a4.753 4.753 0 1 0 9.507 0v-9.24a1.33 1.33 0 0 1 1.4-1.468 1.364 1.364 0 0 1 1.435 1.435v14.9a1.328 1.328 0 0 1-1.401 1.4z"/><path id="E" d="M917.98 1046.357c-1.2 0-3.22-.42-3.92-1.58a.482.482 0 0 1-.08-.3.546.546 0 0 1 1.021-.32 3.812 3.812 0 0 0 2.98 1.061c1.94 0 2.92-.64 2.92-1.94 0-3.02-6.562-1.42-6.562-5.422 0-2.02 2.02-2.8 3.84-2.8a5.415 5.415 0 0 1 3.44 1.16.558.558 0 0 1 .18.38.648.648 0 0 1-.62.6.531.531 0 0 1-.38-.16 4.001 4.001 0 0 0-2.62-.84c-1.76 0-2.7.68-2.7 1.66 0 2.8 6.562 1.32 6.562 5.422 0 2.28-2 3.08-4.06 3.08z"/><path id="F" d="M928.7 1046.317c-3.22 0-5.02-2.64-5.02-5.66 0-3 1.8-5.64 5.02-5.64s5.02 2.64 5.02 5.64c0 3.02-1.8 5.66-5.02 5.66zm0-10.162c-2.36 0-3.88 1.9-3.88 4.5s1.52 4.52 3.88 4.52c2.38 0 3.88-1.92 3.88-4.52s-1.5-4.5-3.88-4.5z"/><path id="G" d="M962.62 1044.797a4.645 4.645 0 0 1-3.58 1.52c-3.22 0-5.02-2.64-5.02-5.66 0-3 1.8-5.64 5.02-5.64a4.647 4.647 0 0 1 3.58 1.52.531.531 0 0 1 .16.381.627.627 0 0 1-.58.6.587.587 0 0 1-.42-.2 3.526 3.526 0 0 0-2.74-1.16c-2.36 0-3.88 1.9-3.88 4.5s1.52 4.52 3.88 4.52a3.596 3.596 0 0 0 2.74-1.16.587.587 0 0 1 .42-.2.594.594 0 0 1 .58.58.571.571 0 0 1-.16.399z"/><path id="H" d="M196.7 189.166c-20.93 0-32.63-17.16-32.63-36.79 0-19.5 11.7-36.66 32.63-36.66s32.63 17.16 32.63 36.66c0 19.63-11.7 36.79-32.63 36.79zm0-66.042c-15.34 0-25.22 12.35-25.22 29.25s9.88 29.38 25.22 29.38c15.47 0 25.22-12.48 25.22-29.38s-9.75-29.25-25.22-29.25z"/><path id="I" d="M380.78 186.956h-.13c-4.3 0-10.4-2.34-12.87-10.14-5.46 7.67-13.91 12.35-25.22 12.35-21.19 0-32.632-17.42-32.632-36.79 0-19.63 11.7-36.66 32.632-36.66 11.3 0 19.76 4.68 25.22 12.22v-6.37a3.663 3.663 0 0 1 3.77-3.64 3.549 3.549 0 0 1 3.641 3.64v52.393c0 8.32 9.36 3.12 9.36 9.36a3.576 3.576 0 0 1-3.77 3.641zm-38.22-63.832c-15.34 0-25.222 12.35-25.222 29.25s9.88 29.38 25.222 29.38c15.47 0 25.22-12.48 25.22-29.38s-9.75-29.25-25.22-29.25z"/><path id="J" d="M418.996 105.443a7.411 7.411 0 1 1 7.41-7.411 7.326 7.326 0 0 1-7.41 7.411zm0 81.513a3.574 3.574 0 0 1-3.771-3.641v-61.752a3.581 3.581 0 0 1 3.771-3.64 3.541 3.541 0 0 1 3.64 3.64v61.752a3.477 3.477 0 0 1-3.64 3.641z"/><path id="K" d="M456.305 189.426c-7.8 0-20.93-2.73-25.48-10.27a3.134 3.134 0 0 1-.521-1.949 3.547 3.547 0 0 1 6.631-2.08c4.68 5.72 13 6.9 19.37 6.9 12.61 0 18.98-4.16 18.98-12.6 0-19.63-42.642-9.23-42.642-35.23 0-13.13 13.13-18.2 24.96-18.2 6.76 0 17.16 2.34 22.36 7.54a3.637 3.637 0 0 1 1.17 2.47 4.215 4.215 0 0 1-4.03 3.9 3.443 3.443 0 0 1-2.47-1.04c-4.03-3.9-11.31-5.46-17.03-5.46-11.44 0-17.55 4.42-17.55 10.8 0 18.2 42.642 8.58 42.642 35.23 0 14.82-13 20.02-26.392 20.02z"/><path id="L" d="M583.056 186.956h-.13c-4.3 0-10.4-2.34-12.87-10.14-5.46 7.67-13.9 12.35-25.22 12.35-21.2 0-32.63-17.42-32.63-36.79 0-19.63 11.7-36.66 32.63-36.66 11.31 0 19.76 4.68 25.22 12.22v-6.37a3.664 3.664 0 0 1 3.771-3.64 3.548 3.548 0 0 1 3.64 3.64v52.393c0 8.32 9.36 3.12 9.36 9.36a3.576 3.576 0 0 1-3.77 3.641zm-38.222-63.832c-15.34 0-25.22 12.35-25.22 29.25s9.88 29.38 25.22 29.38c15.47 0 25.22-12.48 25.22-29.38s-9.75-29.25-25.22-29.25z"/><path id="M" d="M639.212 189.426c-7.8 0-20.93-2.73-25.48-10.27a3.139 3.139 0 0 1-.52-1.949 3.546 3.546 0 0 1 6.63-2.08c4.68 5.72 13 6.9 19.37 6.9 12.6 0 18.98-4.16 18.98-12.6 0-19.63-42.642-9.23-42.642-35.23 0-13.13 13.13-18.2 24.96-18.2 6.76 0 17.16 2.34 22.36 7.54a3.641 3.641 0 0 1 1.17 2.47 4.215 4.215 0 0 1-4.03 3.9 3.44 3.44 0 0 1-2.47-1.04c-4.03-3.9-11.31-5.46-17.03-5.46-11.44 0-17.55 4.42-17.55 10.8 0 18.2 42.642 8.58 42.642 35.23 0 14.82-13 20.02-26.39 20.02z"/><path id="N" d="M731.383 156.145h-53.95c1.17 14.82 10.8 25.61 24.96 25.61 7.02 0 15.34-3.12 19.1-8.97a3.411 3.411 0 0 1 3.12-1.819c1.95 0 4.03 1.56 4.03 3.5 0 1.17 0 1.43-2.47 4.3-5.98 7.02-14.7 10.4-23.8 10.4-20.932 0-32.632-17.16-32.632-36.79 0-19.5 11.7-36.66 32.632-36.66s32.63 17.3 32.63 36.66a3.935 3.935 0 0 1-3.641 3.77zm-29-33.02c-15.6 0-23.79 11.96-24.96 25.6h50.052c-1.17-14.82-10.79-25.6-25.09-25.6z"/><path id="O" d="M850.59 124.294a22.22 22.22 0 0 0-22.23 22.23v36.79a3.706 3.706 0 0 1-7.41 0v-61.752a3.706 3.706 0 0 1 7.41 0v5.33a29.683 29.683 0 0 1 22.23-10.01 3.706 3.706 0 1 1 0 7.41z"/><path id="P" d="M910.26 179.286c-5.72 6.37-13.65 9.88-23.27 9.88-20.93 0-32.63-17.16-32.63-36.79 0-19.5 11.7-36.66 32.63-36.66 9.62 0 17.55 3.5 23.27 9.88a3.443 3.443 0 0 1 1.04 2.47 4.073 4.073 0 0 1-3.77 3.9 3.831 3.831 0 0 1-2.73-1.3c-4.3-4.81-10.27-7.54-17.81-7.54-15.34 0-25.22 12.35-25.22 29.25s9.88 29.38 25.22 29.38a23.364 23.364 0 0 0 17.811-7.54 3.689 3.689 0 0 1 6.5 2.47 3.725 3.725 0 0 1-1.04 2.6z"/><path id="Q" d="M165.512 317.956a3.654 3.654 0 0 1-3.771-3.641v-37.96a22.231 22.231 0 0 0-44.462 0v37.96a3.706 3.706 0 0 1-7.41 0v-61.752a3.706 3.706 0 0 1 7.41 0v4.16a29.657 29.657 0 0 1 51.872 19.631v37.96a3.624 3.624 0 0 1-3.64 3.641z"/><path id="R" d="M463.985 317.956h-4.03c-10.27 0-15.34-5.07-15.34-15.21v-46.41h-6.63a3.706 3.706 0 0 1 0-7.41h6.63v-19.892a3.654 3.654 0 0 1 3.771-3.64 3.548 3.548 0 0 1 3.64 3.64v19.892h11.96a3.706 3.706 0 0 1 0 7.41h-11.96v46.41c0 6.37 1.82 7.8 7.93 7.8h4.03a3.706 3.706 0 0 1 0 7.41z"/><path id="S" d="M643.772 317.956h-4.03c-10.27 0-15.34-5.07-15.34-15.21v-46.41h-6.63a3.706 3.706 0 0 1 0-7.41h6.63v-19.892a3.654 3.654 0 0 1 3.77-3.64 3.549 3.549 0 0 1 3.641 3.64v19.892h11.96a3.706 3.706 0 0 1 0 7.41h-11.96v46.41c0 6.37 1.82 7.8 7.93 7.8h4.03a3.706 3.706 0 0 1 0 7.41z"/><path id="T" d="M103.632 386.294a22.221 22.221 0 0 0-22.231 22.23v36.79a3.706 3.706 0 0 1-7.41 0v-61.752a3.706 3.706 0 0 1 7.41 0v5.33a29.685 29.685 0 0 1 22.231-10.01 3.706 3.706 0 1 1 0 7.41z"/><path id="U" d="M166.007 418.145h-53.952c1.17 14.82 10.8 25.61 24.96 25.61 7.02 0 15.34-3.12 19.1-8.97a3.411 3.411 0 0 1 3.12-1.819c1.95 0 4.03 1.56 4.03 3.5 0 1.17 0 1.43-2.47 4.3-5.98 7.02-14.7 10.4-23.79 10.4-20.93 0-32.63-17.16-32.63-36.79 0-19.5 11.7-36.66 32.63-36.66s32.63 17.3 32.63 36.66a3.934 3.934 0 0 1-3.64 3.77zm-28.99-33.02c-15.6 0-23.79 11.96-24.96 25.6h50.052c-1.17-14.82-10.8-25.6-25.09-25.6z"/><path id="V" d="M264.44 834.166c-27.562 0-27.82-33.02-27.82-52.002 0-18.59 2.86-45.11 27.69-45.11 24.31 0 27.95 24.96 27.95 45.11 0 18.85-.4 52.002-27.82 52.002zm20.4-52.002c0-18.59-2.6-37.7-20.4-37.7-19.5 0-20.41 23.92-20.41 37.7v8.32c0 15.08 2.86 36.27 20.28 36.27 17.81 0 20.54-21.2 20.54-36.27z"/><path id="W" d="M480.493 834.166c-27.56 0-27.82-33.02-27.82-52.002 0-18.59 2.86-45.11 27.69-45.11 24.31 0 27.95 24.96 27.95 45.11 0 18.85-.4 52.002-27.82 52.002zm20.41-52.002c0-18.59-2.6-37.7-20.41-37.7-19.5 0-20.4 23.92-20.4 37.7v8.32c0 15.08 2.86 36.27 20.28 36.27 17.81 0 20.54-21.2 20.54-36.27z"/><path id="X" d="M183.288 917.627h-37.35c.8 10.26 7.47 17.73 17.28 17.73 4.86 0 10.62-2.16 13.23-6.2a2.36 2.36 0 0 1 2.16-1.26 2.752 2.752 0 0 1 2.79 2.43c0 .8 0 1-1.7 2.97a21.248 21.248 0 0 1-16.47 7.2c-14.49 0-22.59-11.88-22.59-25.47 0-13.5 8.1-25.38 22.59-25.38s22.59 11.97 22.59 25.38a2.724 2.724 0 0 1-2.519 2.61zm-20.07-22.86c-10.8 0-16.47 8.28-17.28 17.73h34.648c-.8-10.26-7.47-17.73-17.37-17.73z"/></defs><rect width="1080" height="1080" rx="40" fill="url(#A)"/><g opacity=".3" fill="#fff"><path d="M42.328 1046.045a7.892 7.892 0 0 1-5.503-2.002 1.364 1.364 0 0 1-1.468 1.401 1.346 1.346 0 0 1-1.401-1.401v-20.88a1.435 1.435 0 0 1 2.869-.033v6.238a7.4 7.4 0 0 1 5.503-2.169c5.37 0 8.373 4.403 8.373 9.406 0 5.037-3.002 9.44-8.373 9.44zm0-16c-3.335 0-5.503 2.602-5.503 6.57 0 4.003 2.168 6.604 5.503 6.604s5.504-2.602 5.504-6.604c0-3.97-2.168-6.57-5.504-6.57zm25.555 8.037h-12.34c.467 3.136 2.468 5.137 5.403 5.137a5.003 5.003 0 0 0 3.969-1.734 1.383 1.383 0 0 1 1.034-.533 1.556 1.556 0 0 1 1.501 1.468c0 .4-.1.7-.8 1.4a8.129 8.129 0 0 1-5.704 2.235c-5.37 0-8.372-4.437-8.372-9.44 0-4.97 3.002-9.406 8.372-9.406 5.437 0 8.34 4.437 8.34 9.406a1.422 1.422 0 0 1-1.401 1.468zm-6.937-8.038c-3.136 0-4.97 2.3-5.403 5.17H66.35c-.467-3.202-2.468-5.17-5.403-5.17zM88 1045.478a3.247 3.247 0 0 1-2.969-1.901 7.642 7.642 0 0 1-5.87 2.469c-5.437 0-8.372-4.47-8.372-9.44s3.002-9.406 8.372-9.406a7.369 7.369 0 0 1 5.504 2.202v-.134a1.376 1.376 0 0 1 1.4-1.501 1.341 1.341 0 0 1 1.468 1.401v12.875a.54.54 0 0 0 .467.601 1.418 1.418 0 1 1 0 2.835zm-8.84-15.443c-3.336 0-5.504 2.602-5.504 6.57 0 4.003 2.168 6.604 5.504 6.604 3.37 0 5.504-2.602 5.504-6.604 0-3.97-2.135-6.57-5.504-6.57z"/><use xlink:href="#D"/><path d="M115.158 1045.478h-.567c-3.17 0-4.37-1.668-4.37-4.403V1030.6h-1a1.418 1.418 0 1 1-.033-2.835h1v-4.637a1.355 1.355 0 0 1 1.435-1.4 1.328 1.328 0 0 1 1.401 1.4v4.637h2.135a1.383 1.383 0 0 1 1.4 1.401 1.356 1.356 0 0 1-1.4 1.434h-2.135v10.774c0 .934.333 1.268 1.268 1.268h.833a1.376 1.376 0 0 1 1.435 1.4 1.357 1.357 0 0 1-1.4 1.435zm4.604-20.415a2.401 2.401 0 1 1 2.402-2.401 2.392 2.392 0 0 1-2.402 2.401zm0 20.414a1.4 1.4 0 0 1-1.467-1.401V1029.2a1.408 1.408 0 0 1 1.467-1.435 1.374 1.374 0 0 1 1.401 1.435v14.876a1.346 1.346 0 0 1-1.401 1.401zm10.376-14.877h-1.5v13.442a1.364 1.364 0 0 1-1.468 1.401 1.346 1.346 0 0 1-1.401-1.401V1030.6h-1.37a1.418 1.418 0 0 1 0-2.835h1.367v-2.27a3.801 3.801 0 0 1 3.836-3.769 1.418 1.418 0 1 1 0 2.835.934.934 0 0 0-.967.9v2.302h1.5a1.418 1.418 0 1 1 0 2.835z"/><use xlink:href="#D" x="42.068"/><path d="M154.725 1045.544a3.403 3.403 0 0 1-3.336-3.402v-18.98a1.435 1.435 0 0 1 2.869-.033v19.013a.527.527 0 0 0 .467.567 1.418 1.418 0 1 1 0 2.835zm15.37-.066v-1.264c1.886-.237 2.046-.437 2.046-3.157v-6.7c0-2.8-1.248-4.017-3.064-4.017a5.597 5.597 0 0 0-3.47 1.493v9.476c0 2.527.187 2.658 2.06 2.896v1.264h-8.968v-1.264c2.254-.33 2.5-.4 2.5-3v-8.2c0-2.446-.303-2.565-2.185-2.922v-1.184a34.101 34.101 0 0 0 6.653-1.533l-.052 2.95 2.6-1.745a5.659 5.659 0 0 1 3.159-1.086c3.194 0 5.2 2.338 5.2 6.3v7.5c0 2.54.237 2.657 2.277 2.92v1.264zm23.9-3.703c-2.458 3.427-5.488 4.178-7.014 4.178-5.142 0-8.124-3.936-8.124-8.594a10.333 10.333 0 0 1 2.832-7.062 8.602 8.602 0 0 1 6.082-2.814 6.386 6.386 0 0 1 6.37 6.347c-.014.715-.08 1.277-.612 1.4-.767.184-6.17.5-10.318.647.062 4.587 2.717 6.74 5.556 6.74a6.776 6.776 0 0 0 4.543-1.866zm-7.07-12.7c-1.667 0-3.167 1.807-3.516 4.963l5.486-.118c.6-.026.848-.146.848-.792.04-2.022-1.037-4.053-2.818-4.053zm34.284.145c-1.943.343-2.248.624-3.105 2.765-1.33 3.462-3.102 8.53-4.934 13.94h-1.512l-4.65-11.46-4.55 11.46h-1.472l-4.685-14.192c-.687-1.985-.94-2.274-2.855-2.512v-1.25h9.397v1.25c-2.325.345-2.535.672-2.058 2.133l2.52 8.214c1.507-3.68 2.988-7.62 4.327-11.424h1.456c1.4 3.76 2.986 7.702 4.573 11.568.742-2.107 2.062-5.964 2.557-8.108.412-1.674-.008-2.078-2.753-2.383v-1.25h7.742zm9.4 3.746c-.92-2.606-2.155-3.984-4.2-3.984a2.166 2.166 0 0 0-2.225 2.266c0 1.497 1.046 2.264 3.16 3.216 3.278 1.496 5.3 2.787 5.3 5.736 0 3.85-3.6 5.764-6.945 5.764a12.073 12.073 0 0 1-4.92-1.161l-.662-4.892 1.252-.224c.8 2.5 2.33 4.75 4.976 4.75a2.231 2.231 0 0 0 2.438-2.281c0-1.423-.76-2.333-3.092-3.467-2.67-1.295-5.107-2.64-5.107-5.775 0-3.046 2.533-5.42 6.565-5.42a18.751 18.751 0 0 1 4.112.567l.62 4.577z"/></g><g opacity=".7" fill="#fff"><use xlink:href="#E"/><use xlink:href="#F"/><path d="M944.48 1045.978a.562.562 0 0 1-.58-.561v-.64a4.442 4.442 0 0 1-3.421 1.54 4.61 4.61 0 0 1-4.561-4.561v-5.842a.57.57 0 0 1 1.14 0v5.842a3.421 3.421 0 0 0 6.842 0v-5.842a.571.571 0 0 1 1.141 0v9.502a.558.558 0 0 1-.561.561zm7.96-9.642a3.418 3.418 0 0 0-3.421 3.42v5.66a.57.57 0 0 1-1.141 0v-9.502a.57.57 0 0 1 1.141 0v.82a4.565 4.565 0 0 1 3.421-1.54.571.571 0 1 1 0 1.141z"/><use xlink:href="#G"/><path d="M974.2 1041.236h-8.302c.18 2.28 1.66 3.94 3.84 3.94a3.615 3.615 0 0 0 2.94-1.381.525.525 0 0 1 .479-.28.611.611 0 0 1 .62.541c0 .18 0 .22-.38.66a4.72 4.72 0 0 1-3.66 1.601c-3.22 0-5.02-2.64-5.02-5.66 0-3 1.8-5.64 5.02-5.64s5.02 2.66 5.02 5.64a.606.606 0 0 1-.56.58zm-4.46-5.08c-2.4 0-3.66 1.84-3.84 3.94h7.7c-.18-2.28-1.66-3.94-3.86-3.94zm8.438 3.26a1.14 1.14 0 1 1 0-2.28 1.14 1.14 0 0 1 0 2.28zm0 6.562a1.14 1.14 0 1 1 0-2.28 1.14 1.14 0 0 1 0 2.28zm18.202 0h-8.882a.606.606 0 0 1-.58-.561v-13.122a.59.59 0 0 1 .58-.561h8.882a.56.56 0 1 1 0 1.12h-8.32v4.92h6.1a.551.551 0 0 1 .58.561.561.561 0 0 1-.56.58h-6.12v5.92h8.32a.567.567 0 0 1 .58.58.55.55 0 0 1-.58.561z"/><use xlink:href="#G" x="44.298"/><use xlink:href="#F" x="85.337"/><use xlink:href="#E" x="106.796"/><path d="M1031.515 1033.435a1.14 1.14 0 1 1 1.141-1.14 1.127 1.127 0 0 1-1.141 1.14zm0 12.543a.55.55 0 0 1-.58-.561v-9.502a.551.551 0 0 1 .58-.56.545.545 0 0 1 .561.56v9.502a.536.536 0 0 1-.561.561zm13.843 0h-.02a2.072 2.072 0 0 1-1.98-1.561 4.536 4.536 0 0 1-3.88 1.9c-3.26 0-5.02-2.68-5.02-5.66 0-3.02 1.8-5.64 5.02-5.64a4.571 4.571 0 0 1 3.88 1.88v-.98a.564.564 0 0 1 .581-.56.546.546 0 0 1 .56.56v8.063c0 1.28 1.44.48 1.44 1.44a.55.55 0 0 1-.58.561zm-5.88-9.822c-2.36 0-3.88 1.9-3.88 4.5s1.52 4.52 3.88 4.52c2.38 0 3.88-1.92 3.88-4.52s-1.5-4.5-3.88-4.5z"/></g><path d="M23.595 74.663h371.01v132.892H23.595z" fill="url(#B)"/><path d="M24.956 719.445H582.48V851.97H24.956z" fill="url(#C)"/><g fill="#fff"><path d="M94.924 186.956H37.2a3.935 3.935 0 0 1-3.77-3.641V98.032a3.837 3.837 0 0 1 3.77-3.64h57.723a3.642 3.642 0 1 1 0 7.28h-54.08v31.98h39.65a3.582 3.582 0 0 1 3.77 3.64 3.654 3.654 0 0 1-3.64 3.77h-39.78v38.48h54.082a3.683 3.683 0 0 1 3.77 3.77 3.576 3.576 0 0 1-3.77 3.641zm62-7.67c-5.72 6.37-13.65 9.88-23.27 9.88-20.932 0-32.632-17.16-32.632-36.8 0-19.5 11.7-36.66 32.632-36.66 9.62 0 17.55 3.5 23.27 9.88a3.443 3.443 0 0 1 1.04 2.47 4.074 4.074 0 0 1-3.77 3.9 3.829 3.829 0 0 1-2.73-1.3c-4.3-4.8-10.27-7.54-17.8-7.54-15.34 0-25.222 12.35-25.222 29.25s9.88 29.38 25.222 29.38a23.364 23.364 0 0 0 17.811-7.54 3.689 3.689 0 0 1 6.5 2.47 3.725 3.725 0 0 1-1.04 2.6z"/><use xlink:href="#H"/><path d="M260 189.426c-7.8 0-20.93-2.73-25.48-10.27a3.134 3.134 0 0 1-.52-1.949 3.547 3.547 0 0 1 6.631-2.08c4.68 5.72 13 6.9 19.37 6.9 12.6 0 18.98-4.16 18.98-12.6 0-19.63-42.642-9.23-42.642-35.23 0-13.13 13.13-18.2 24.96-18.2 6.76 0 17.16 2.34 22.36 7.54a3.637 3.637 0 0 1 1.17 2.47 4.215 4.215 0 0 1-4.03 3.9 3.443 3.443 0 0 1-2.47-1.04c-4.03-3.9-11.3-5.46-17.03-5.46-11.44 0-17.55 4.42-17.55 10.8 0 18.2 42.642 8.58 42.642 35.23 0 14.82-13 20.02-26.392 20.02zm37.308-83.983a7.411 7.411 0 1 1 7.41-7.411 7.326 7.326 0 0 1-7.41 7.411zm0 81.513a3.573 3.573 0 0 1-3.77-3.641v-61.752a3.58 3.58 0 0 1 3.77-3.64 3.541 3.541 0 0 1 3.641 3.64v61.752a3.478 3.478 0 0 1-3.641 3.641z"/><use xlink:href="#I"/><use xlink:href="#J"/><use xlink:href="#K"/><use xlink:href="#L"/><use xlink:href="#M"/><use xlink:href="#N"/><use xlink:href="#I" x="431.07"/><use xlink:href="#O"/><use xlink:href="#P"/><path d="M976.04 186.956a3.654 3.654 0 0 1-3.771-3.641v-37.96a22.231 22.231 0 0 0-44.461 0v37.96a3.706 3.706 0 0 1-7.41 0V98.032a3.706 3.706 0 0 1 7.41 0v27.7a28.877 28.877 0 0 1 22.23-10.01 29.88 29.88 0 0 1 29.642 29.641v37.96a3.624 3.624 0 0 1-3.641 3.641zM97.263 287.145H43.3c1.17 14.82 10.8 25.6 24.96 25.6 7.02 0 15.34-3.12 19.1-8.97a3.411 3.411 0 0 1 3.12-1.819c1.95 0 4.03 1.56 4.03 3.5 0 1.17 0 1.43-2.47 4.3-5.98 7.02-14.7 10.4-23.8 10.4-20.932 0-32.632-17.16-32.632-36.8 0-19.5 11.7-36.66 32.632-36.66s32.63 17.3 32.63 36.66a3.935 3.935 0 0 1-3.641 3.77zm-29-33.02c-15.6 0-23.8 11.96-24.96 25.6h50.052c-1.17-14.82-10.8-25.6-25.1-25.6z"/><use xlink:href="#Q"/><path d="M209.58 347.597c-11.05 0-26.65-4.16-26.65-8.84a4.126 4.126 0 0 1 3.771-4.16c1.43 0 4.42 2.2 6.9 3.12a48.728 48.728 0 0 0 15.991 2.47c16.64 0 25.22-8.19 25.22-24.18v-9.1c-5.72 6.89-13.91 11.05-25.22 11.05-20.54 0-32.632-14.56-32.632-34.58 0-19.5 11.7-36.66 32.632-36.66 11.3 0 19.76 4.68 25.22 12.22v-6.24a3.706 3.706 0 0 1 7.41 0v63.312c0 20.67-12.35 31.59-32.63 31.59zm0-93.473c-15.34 0-25.222 12.35-25.222 29.25 0 16.77 9.23 27.17 25.222 27.17s25.22-10.4 25.22-27.17c0-16.9-9.75-29.25-25.22-29.25z"/><use xlink:href="#J" x="-161.058" y="131"/><use xlink:href="#Q" x="163.668"/><use xlink:href="#N" x="-329.143" y="131"/><use xlink:href="#R"/><path d="M528.596 317.956a3.654 3.654 0 0 1-3.771-3.641v-37.96a22.23 22.23 0 1 0-44.461 0v37.96a3.706 3.706 0 0 1-7.41 0v-85.283a3.706 3.706 0 0 1 7.41 0v27.69a28.877 28.877 0 0 1 22.23-10.01 29.88 29.88 0 0 1 29.642 29.641v37.96a3.624 3.624 0 0 1-3.641 3.641z"/><use xlink:href="#I" x="230.106" y="131"/><use xlink:href="#S"/><path d="M710.72 320.166c-11.3 0-19.76-4.68-25.22-12.35v33.672a3.706 3.706 0 1 1-7.41 0v-88.924a3.706 3.706 0 0 1 7.41 0v6.37c5.46-7.54 13.9-12.22 25.22-12.22 20.932 0 32.632 17.16 32.632 36.66 0 19.63-11.7 36.8-32.632 36.8zm0-66.042c-15.47 0-25.22 12.35-25.22 29.25s9.75 29.38 25.22 29.38 25.222-12.48 25.222-29.38-9.75-29.25-25.222-29.25zm54.47 64.612c-7.02 0-12.87-6.5-12.87-13.78v-75.924a3.706 3.706 0 0 1 7.41 0v75.924c0 8.32 9.23 3.5 9.23 9.36 0 2.2-1.56 4.42-3.77 4.42z"/><use xlink:href="#L" x="259.094" y="131"/><path d="M906.89 317.956a3.654 3.654 0 0 1-3.771-3.641v-37.96a22.23 22.23 0 1 0-44.461 0v37.96a3.706 3.706 0 0 1-7.41 0v-61.752a3.706 3.706 0 0 1 7.41 0v4.16a29.657 29.657 0 0 1 51.872 19.631v37.96a3.624 3.624 0 0 1-3.641 3.641z"/><use xlink:href="#R" x="481.122"/><use xlink:href="#K" x="519.481" y="131"/><path d="M65.02 448.956h-4.03c-10.27 0-15.34-5.07-15.34-15.21v-46.41h-6.63a3.706 3.706 0 0 1 0-7.41h6.63v-19.892a3.654 3.654 0 0 1 3.77-3.64 3.549 3.549 0 0 1 3.641 3.64v19.892h11.96a3.706 3.706 0 0 1 0 7.41H53.06v46.41c0 6.37 1.82 7.8 7.93 7.8h4.03a3.706 3.706 0 0 1 0 7.41z"/><use xlink:href="#T"/><use xlink:href="#U"/><use xlink:href="#U" x="71.238"/><use xlink:href="#M" x="-367.652" y="262"/><use xlink:href="#N" x="-342.303" y="262"/><path d="M454.73 384.993l-25.61 60.973c-.78 1.7-1.95 3-3.64 3s-2.99-1.3-3.77-3l-25.61-60.842a4.136 4.136 0 0 1-.26-1.69 3.637 3.637 0 0 1 3.771-3.51 3.339 3.339 0 0 1 3.25 2.21l22.62 53.432 22.49-53.432a3.709 3.709 0 0 1 7.15 1.17 3.114 3.114 0 0 1-.39 1.689z"/><use xlink:href="#U" x="353.851"/><use xlink:href="#T" x="458.473"/><path d="M632.695 385.124l-35.23 83.333c-2.6 6.1-7.93 7.8-13.9 7.8h-5.72a3.706 3.706 0 0 1 0-7.41h5.72c2.86 0 5.85-.13 7.02-3.12l7.41-17.68-26.91-62.922a4.122 4.122 0 0 1-.261-1.69 3.637 3.637 0 0 1 3.771-3.51 3.338 3.338 0 0 1 3.25 2.21l24.18 56.422 23.92-56.422a3.391 3.391 0 0 1 3.381-2.21 3.524 3.524 0 0 1 3.64 3.51 4.136 4.136 0 0 1-.26 1.69z"/><use xlink:href="#S" x="44.56" y="131"/><use xlink:href="#J" x="282.074" y="262"/><path d="M801.304 448.956a3.549 3.549 0 0 1-3.64-3.641v-43.682a16.704 16.704 0 0 0-16.511-16.51c-8.97 0-16.64 7.54-16.64 16.38v43.812a3.549 3.549 0 0 1-3.64 3.641 3.654 3.654 0 0 1-3.771-3.641v-43.682a16.511 16.511 0 0 0-33.021-.13v43.812a3.706 3.706 0 0 1-7.41 0v-61.752a3.706 3.706 0 0 1 7.41 0v.78a23.627 23.627 0 0 1 16.511-6.63 24.113 24.113 0 0 1 20.281 11.05 23.997 23.997 0 0 1 44.201 12.74v43.812a3.654 3.654 0 0 1-3.77 3.641z"/><use xlink:href="#N" x="143.109" y="262"/><path d="M97.263 516.124l-35.23 83.333c-2.6 6.1-7.93 7.8-13.91 7.8H42.4a3.706 3.706 0 0 1 0-7.41h5.72c2.86 0 5.85-.13 7.02-3.12l7.4-17.68-26.91-62.922a4.136 4.136 0 0 1-.26-1.69 3.637 3.637 0 0 1 3.771-3.51 3.339 3.339 0 0 1 3.25 2.21l24.18 56.422 23.92-56.422a3.39 3.39 0 0 1 3.38-2.21 3.524 3.524 0 0 1 3.641 3.51 4.122 4.122 0 0 1-.261 1.69z"/><use xlink:href="#H" x="-66.948" y="393"/><path d="M225.82 579.956a3.654 3.654 0 0 1-3.771-3.641v-4.16a28.875 28.875 0 0 1-22.23 10.011 29.967 29.967 0 0 1-29.642-29.641v-37.962a3.706 3.706 0 0 1 7.411 0v37.962a22.23 22.23 0 1 0 44.461 0v-37.962a3.706 3.706 0 0 1 7.41 0v61.752a3.624 3.624 0 0 1-3.64 3.641z"/><use xlink:href="#K" x="-167.828" y="393"/><use xlink:href="#U" x="214.643" y="131"/><use xlink:href="#L" x="-121.938" y="393"/><use xlink:href="#O" x="-350.735" y="393"/><use xlink:href="#P" x="-350.735" y="393"/><path d="M625.305 579.956a3.654 3.654 0 0 1-3.771-3.641v-37.96a22.231 22.231 0 0 0-44.462 0v37.96a3.706 3.706 0 0 1-7.41 0v-85.283a3.706 3.706 0 0 1 7.41 0v27.7a28.877 28.877 0 0 1 22.231-10.01 29.88 29.88 0 0 1 29.641 29.641v37.96a3.624 3.624 0 0 1-3.64 3.641zm21.838 0a7.41 7.41 0 1 1 7.41-7.41 7.325 7.325 0 0 1-7.41 7.41zM62.8 834.166a27.825 27.825 0 0 1-27.82-27.69 27.331 27.331 0 0 1 14.3-24.441 24.058 24.058 0 0 1-10.92-20.541 24.441 24.441 0 0 1 48.882 0 24.165 24.165 0 0 1-11.051 20.541 27.274 27.274 0 0 1 14.301 24.311 27.741 27.741 0 0 1-27.691 27.821zm0-48.102a20.346 20.346 0 1 0 20.281 20.411 20.417 20.417 0 0 0-20.281-20.411zm0-41.602a17.096 17.096 0 1 0 17.031 17.03 17.005 17.005 0 0 0-17.031-17.03zm77.1 87.494H97.4a3.747 3.747 0 0 1-3.77-3.641 3.69 3.69 0 0 1 .779-2.08l38.742-54.73a18.326 18.326 0 0 0 2.989-9.751 17.145 17.145 0 0 0-17.03-17.29c-12.35 0-17.3 13.52-20.8 13.52-1.95 0-4.03-1.56-4.03-3.64 0-3 9.88-17.3 24.83-17.3a24.469 24.469 0 0 1 24.441 24.311 24.904 24.904 0 0 1-4.551 14.301l-34.45 48.882h35.36a3.706 3.706 0 0 1 0 7.41zm17.94 11.57a3.38 3.38 0 0 1-1.95.521 3.637 3.637 0 0 1-3.51-3.771c0-3.64 5.6-4.16 6.5-8.32a7.482 7.482 0 0 1 .52-14.95c6.37 0 7.8 6.5 7.8 10.53a18.553 18.553 0 0 1-9.36 15.99zm44.33-10.27c-8.7 0-18.6-4.68-23.4-12.35a3.515 3.515 0 0 1-.649-2.08 3.974 3.974 0 0 1 3.899-3.77c1.95 0 2.08 1.04 4.03 3.12a20.458 20.458 0 0 0 16.121 7.67c11.44 0 21.7-9.88 21.7-23.53 0-13.78-10.27-23.66-21.7-23.66a21.009 21.009 0 0 0-17.161 9.23 3.727 3.727 0 0 1-3.51 1.819 3.585 3.585 0 0 1-3.771-3.899v-42.772a3.553 3.553 0 0 1 3.641-3.64h43.42a3.649 3.649 0 1 1 0 7.28h-39.65v30.42a26.32 26.32 0 0 1 17.031-5.85c16 0 29.12 13.52 29.12 31.07 0 17.3-13.13 30.94-29.12 30.94z"/><use xlink:href="#V"/><use xlink:href="#V" x="63.178"/><path d="M370.386 843.526a3.384 3.384 0 0 1-1.95.521 3.638 3.638 0 0 1-3.511-3.771c0-3.64 5.59-4.16 6.5-8.32a7.482 7.482 0 0 1 .52-14.95c6.37 0 7.8 6.5 7.8 10.53a18.555 18.555 0 0 1-9.36 15.99z"/><use xlink:href="#V" x="152.875"/><use xlink:href="#W"/><use xlink:href="#W" x="63.179"/><use xlink:href="#M" x="-10.912" y="645"/><path d="M691.48 834.166c-20.932 0-32.632-17.16-32.632-36.8 0-19.5 11.7-36.66 32.632-36.66s32.63 17.16 32.63 36.66c0 19.63-11.7 36.8-32.63 36.8zm0-66.042c-15.34 0-25.222 12.35-25.222 29.25s9.88 29.38 25.222 29.38c15.47 0 25.22-12.48 25.22-29.38s-9.75-29.25-25.22-29.25zm90.736-21.45h-4.03a5.745 5.745 0 0 0-5.72 5.59v10.66h9.75a3.541 3.541 0 0 1 3.64 3.64 3.654 3.654 0 0 1-3.64 3.77h-9.75v57.98a3.549 3.549 0 0 1-3.641 3.641 3.472 3.472 0 0 1-3.64-3.641v-57.98h-8.97a3.706 3.706 0 0 1 0-7.41h8.97v-10.66a12.899 12.899 0 0 1 12.87-12.87h4.16a3.69 3.69 0 0 1 3.771 3.771 3.486 3.486 0 0 1-3.771 3.51z"/><use xlink:href="#L" x="276.77" y="645"/><use xlink:href="#O" x="47.973" y="645"/><path d="M61.25 940.486c-19.35 0-26.188-16.02-26.188-33.57 0-17.64 6.84-33.658 26.188-33.658 19.26 0 26.2 16.02 26.2 33.658 0 17.55-6.93 33.57-26.2 33.57zm0-62.098c-14.94 0-21.06 11.7-21.06 28.528 0 16.74 6.12 28.44 21.06 28.44 14.85 0 21.06-11.7 21.06-28.44 0-16.83-6.2-28.528-21.06-28.528zm71.458 60.568a2.529 2.529 0 0 1-2.609-2.52v-26.28a15.39 15.39 0 1 0-30.779 0v26.28a2.565 2.565 0 0 1-5.13 0v-42.75a2.565 2.565 0 0 1 5.13 0v2.88a20.53 20.53 0 0 1 35.909 13.59v26.28a2.51 2.51 0 0 1-2.521 2.52z"/><use xlink:href="#X"/><path d="M250.155 917.627h-37.348c.8 10.26 7.47 17.73 17.28 17.73 4.86 0 10.62-2.16 13.23-6.2a2.36 2.36 0 0 1 2.159-1.26 2.751 2.751 0 0 1 2.79 2.43c0 .8 0 1-1.7 2.97a21.244 21.244 0 0 1-16.469 7.2c-14.5 0-22.6-11.88-22.6-25.47 0-13.5 8.1-25.38 22.6-25.38s22.6 11.97 22.6 25.38a2.724 2.724 0 0 1-2.52 2.61zm-20.068-22.86c-10.8 0-16.47 8.28-17.28 17.73h34.648c-.8-10.26-7.47-17.73-17.37-17.73zm65.517-.09l-17.73 42.208a2.955 2.955 0 0 1-2.52 2.07 3.065 3.065 0 0 1-2.609-2.07l-17.73-42.118a2.85 2.85 0 0 1-.181-1.17 2.518 2.518 0 0 1 2.61-2.43 2.313 2.313 0 0 1 2.25 1.53l15.66 36.988 15.57-36.988a2.567 2.567 0 0 1 4.95.81 2.151 2.151 0 0 1-.271 1.17z"/><use xlink:href="#X" x="157.405"/><path d="M369.943 895.578a15.382 15.382 0 0 0-15.39 15.389v25.47a2.565 2.565 0 0 1-5.13 0v-42.75a2.565 2.565 0 0 1 5.13 0v3.7a20.548 20.548 0 0 1 15.39-6.93 2.565 2.565 0 1 1 0 5.13z"/><path d="M413.412 894.768l-24.4 57.688c-1.8 4.23-5.5 5.4-9.63 5.4h-3.96a2.565 2.565 0 0 1 0-5.13h3.96c1.98 0 4.05-.1 4.86-2.16l5.13-12.24-18.63-43.56a2.85 2.85 0 0 1-.181-1.17 2.518 2.518 0 0 1 2.61-2.43 2.313 2.313 0 0 1 2.25 1.53l16.74 39.06 16.56-39.06a2.347 2.347 0 0 1 2.34-1.53 2.44 2.44 0 0 1 2.52 2.43 2.864 2.864 0 0 1-.18 1.17zm39.778 45.718c-19.08 0-19.26-22.86-19.26-36 0-12.87 1.98-31.23 19.17-31.23 16.83 0 19.35 17.28 19.35 31.23 0 13.05-.27 36-19.26 36zm14.13-36c0-12.87-1.8-26.1-14.13-26.1-13.5 0-14.13 16.56-14.13 26.1v5.76c0 10.44 1.98 25.1 14.04 25.1 12.33 0 14.22-14.67 14.22-25.1zm17 34.47a5.13 5.13 0 1 1 5.13-5.13 5.071 5.071 0 0 1-5.13 5.13zm30.15 1.53a19.262 19.262 0 0 1-19.259-19.17 18.92 18.92 0 0 1 9.899-16.919 16.654 16.654 0 0 1-7.56-14.22 16.919 16.919 0 0 1 33.838 0 16.729 16.729 0 0 1-7.649 14.22 18.881 18.881 0 0 1 9.899 16.829 19.203 19.203 0 0 1-19.169 19.26zm0-33.3a14.085 14.085 0 1 0 14.039 14.129 14.135 14.135 0 0 0-14.039-14.129zm0-28.8a11.835 11.835 0 1 0 11.789 11.789 11.772 11.772 0 0 0-11.789-11.789zm57.508 62.28c-5.4 0-14.5-1.9-17.64-7.1a2.172 2.172 0 0 1-.36-1.351 2.455 2.455 0 0 1 4.59-1.439c3.24 3.96 9 4.77 13.4 4.77 8.73 0 13.14-2.88 13.14-8.73 0-13.6-29.52-6.4-29.52-24.4 0-9.1 9.1-12.6 17.28-12.6 4.68 0 11.88 1.62 15.48 5.22a2.517 2.517 0 0 1 .81 1.71 2.917 2.917 0 0 1-2.789 2.699 2.383 2.383 0 0 1-1.71-.72c-2.8-2.7-7.83-3.78-11.8-3.78-7.92 0-12.15 3.06-12.15 7.47 0 12.6 29.52 5.94 29.52 24.4 0 10.26-9 13.86-18.27 13.86z"/><use xlink:href="#X" x="452.509"/><path d="M681.156 933.646a20.906 20.906 0 0 1-16.109 6.84c-14.5 0-22.6-11.88-22.6-25.47 0-13.5 8.1-25.38 22.6-25.38a20.906 20.906 0 0 1 16.109 6.84 2.387 2.387 0 0 1 .72 1.71 2.82 2.82 0 0 1-2.61 2.7 2.653 2.653 0 0 1-1.89-.9 15.868 15.868 0 0 0-12.329-5.22c-10.62 0-17.46 8.55-17.46 20.25s6.84 20.34 17.46 20.34a16.174 16.174 0 0 0 12.329-5.22 2.554 2.554 0 0 1 4.5 1.71 2.582 2.582 0 0 1-.72 1.8zm27.54 6.84c-14.5 0-22.6-11.88-22.6-25.47 0-13.5 8.1-25.38 22.6-25.38s22.6 11.88 22.6 25.38c0 13.6-8.1 25.47-22.6 25.47zm0-45.72c-10.62 0-17.46 8.55-17.46 20.25s6.84 20.34 17.46 20.34c10.7 0 17.46-8.64 17.46-20.34s-6.75-20.25-17.46-20.25zm67.318 44.2a2.529 2.529 0 0 1-2.609-2.52v-26.28a15.39 15.39 0 0 0-30.779 0v26.28a2.565 2.565 0 0 1-5.13 0v-42.75a2.565 2.565 0 0 1 5.13 0v2.88a20.53 20.53 0 0 1 35.909 13.59v26.28a2.51 2.51 0 0 1-2.52 2.52zm50.58 0a2.53 2.53 0 0 1-2.61-2.52v-4.5c-3.78 5.3-9.63 8.55-17.46 8.55-14.5 0-22.6-11.88-22.6-25.47 0-13.5 8.1-25.38 22.6-25.38 7.83 0 13.68 3.24 17.46 8.46v-20.7a2.565 2.565 0 0 1 5.13 0v59.038a2.509 2.509 0 0 1-2.52 2.52zm-20.07-44.188c-10.62 0-17.46 8.55-17.46 20.25s6.84 20.34 17.46 20.34c10.7 0 17.46-8.64 17.46-20.34s-6.75-20.25-17.46-20.25zm45.9 45.898c-5.4 0-14.5-1.9-17.64-7.1a2.173 2.173 0 0 1-.36-1.351 2.455 2.455 0 0 1 4.59-1.439c3.24 3.96 9 4.77 13.4 4.77 8.73 0 13.14-2.88 13.14-8.73 0-13.6-29.52-6.4-29.52-24.4 0-9.1 9.1-12.6 17.28-12.6 4.68 0 11.88 1.62 15.48 5.22a2.517 2.517 0 0 1 .81 1.71 2.917 2.917 0 0 1-2.789 2.699 2.383 2.383 0 0 1-1.71-.72c-2.8-2.7-7.83-3.78-11.8-3.78-7.92 0-12.15 3.06-12.15 7.47 0 12.6 29.52 5.94 29.52 24.4 0 10.26-9 13.86-18.27 13.86z"/></g></svg>