<svg xmlns="http://www.w3.org/2000/svg" xmlns:xlink="http://www.w3.org/1999/xlink" viewBox="0 0 1080 1080"><linearGradient id="A" gradientUnits="userSpaceOnUse" x1="11.716" y1="11.716" x2="1068.284" y2="1068.284"><stop offset="0" stop-color="#4bc0c8"/><stop offset=".073" stop-color="#56bac9"/><stop offset=".199" stop-color="#72aacb"/><stop offset=".363" stop-color="#a08fcd"/><stop offset=".486" stop-color="#c779d0"/><stop offset=".664" stop-color="#c29dbf"/><stop offset=".885" stop-color="#bcc4ac"/><stop offset="1" stop-color="#bad3a5"/></linearGradient><path d="M1040 1080H40c-22.09 0-40-17.91-40-40V40C0 17.91 17.91 0 40 0h1000c22.09 0 40 17.91 40 40v1000c0 22.09-17.91 40-40 40z" fill="url(#A)"/><g stroke="#fff" stroke-width="2" stroke-miterlimit="10"><path d="M826.357 912.17h78.328v74.93h-78.328z" fill="#fff" fill-opacity=".2"/><g fill="none"><path d="M34.65 131.807h870.036v855.29H34.65z"/><path d="M34.1 677.835h1"/><path d="M41.17 677.835h304.48" stroke-dasharray="2.02312,6.06935"/><path d="M348.683 677.835h1v1"/><path d="M349.683 684.782v298.342" stroke-dasharray="1.98234,5.94702"/><path d="M349.683 986.098v1"/></g></g><g fill="#fff"><path d="M935.535 904.466c-1.814 0-2.64-1.287-2.937-1.88-1.32 1.452-3.234 2.442-5.8 2.442-5.38 0-8.284-4.423-8.284-9.34s2.97-9.308 8.284-9.308c2.3 0 4.16.825 5.446 2.18v-.132c0-.363.132-1.485 1.386-1.485.693 0 1.452.363 1.452 1.386v12.74c0 .43.297.594.462.594.925 0 1.42.66 1.42 1.42 0 .692-.495 1.386-1.42 1.386zm-8.746-15.28c-3.3 0-5.445 2.574-5.445 6.502 0 3.96 2.146 6.535 5.445 6.535 3.334 0 5.446-2.574 5.446-6.535 0-3.928-2.112-6.502-5.446-6.502zm34.223 15.28c-.692 0-1.386-.495-1.386-1.386v-10.396c0-1.915-1.584-3.5-3.466-3.5-1.947 0-3.498 1.584-3.498 3.466v10.396c0 .924-.66 1.42-1.42 1.42-.726 0-1.386-.495-1.386-1.386v-10.396c0-1.915-1.584-3.5-3.498-3.5s-3.5 1.584-3.5 3.466v10.396c0 .924-.693 1.42-1.452 1.42-.693 0-1.386-.495-1.386-1.386v-14.754c0-.957.726-1.42 1.452-1.42.462 0 .924.198 1.188.627a6.36 6.36 0 0 1 3.664-1.155c1.98 0 3.763.892 4.917 2.344 1.155-1.452 2.905-2.344 4.885-2.344 3.5 0 6.337 2.806 6.337 6.27v10.396c0 .924-.692 1.42-1.452 1.42zm13.363.56c-5.313 0-8.284-4.357-8.284-9.34 0-4.95 2.97-9.308 8.284-9.308s8.284 4.357 8.284 9.308c0 4.983-2.97 9.34-8.284 9.34zm0-15.843c-3.3 0-5.445 2.574-5.445 6.502 0 3.96 2.146 6.535 5.445 6.535 3.334 0 5.446-2.574 5.446-6.535 0-3.928-2.112-6.502-5.446-6.502zM999.95 904.5c-.627 0-1.254-.363-1.386-1.1-1.32 1.022-2.937 1.65-4.753 1.65-4.093 0-7.525-3.4-7.525-7.524v-9.143c0-.924.693-1.42 1.387-1.42.76 0 1.452.495 1.452 1.386v9.176c0 2.574 2.146 4.72 4.687 4.72 2.574 0 4.72-2.146 4.72-4.72v-9.143c0-1.023.66-1.452 1.386-1.452.76 0 1.42.495 1.42 1.42v14.753c0 .925-.66 1.387-1.387 1.387z"/><use xlink:href="#C"/><use xlink:href="#D"/><path d="M941.212 916.384l-5.115 14.5c-.264.727-.727 1.155-1.452 1.155-.693 0-1.1-.297-1.387-1.155l-3.86-10.892-3.895 10.892c-.264.792-.726 1.155-1.42 1.155-.66 0-1.122-.363-1.387-1.155l-5.082-14.5c-.066-.198-.066-.33-.066-.527 0-.825.76-1.354 1.452-1.354.528 0 1.057.264 1.287.924l3.83 11.023 3.895-10.792c.264-.76.594-1.155 1.386-1.155.727 0 1.122.363 1.387 1.155l3.86 10.792 3.86-11.023c.23-.66.76-.924 1.254-.924.76 0 1.52.56 1.52 1.386a1.36 1.36 0 0 1-.066.495zm17.4 8.316H946.4c.462 3.103 2.442 5.083 5.347 5.083 1.485 0 2.97-.528 3.928-1.717.297-.33.627-.527 1.023-.527.726 0 1.485.66 1.485 1.452 0 .396-.1.692-.793 1.386-1.484 1.452-3.53 2.212-5.644 2.212-5.313 0-8.284-4.4-8.284-9.34 0-4.918 2.97-9.308 8.284-9.308 5.38 0 8.25 4.4 8.25 9.308 0 .727-.527 1.452-1.386 1.452zm-6.865-7.954c-3.103 0-4.918 2.277-5.347 5.116h10.693c-.462-3.17-2.442-5.116-5.347-5.116zm12.463-.098a1.54 1.54 0 0 1-.726.165c-.792 0-1.42-.727-1.42-1.485 0-.462.197-.858.692-1.188.858-.462 1.452-1.485 1.452-2.277v-2.508c0-.958.66-1.453 1.387-1.453.76 0 1.42.495 1.42 1.453v2.508c0 1.057-.495 3.334-2.806 4.786z"/><use xlink:href="#E"/><use xlink:href="#F"/><path d="M932.697 957.645c-1.452 1.617-3.466 2.5-5.908 2.5-5.313 0-8.284-4.357-8.284-9.34 0-4.95 2.97-9.308 8.284-9.308 2.442 0 4.456.892 5.908 2.5.264.297.396.627.396.957 0 .727-.726 1.42-1.484 1.42-.298 0-.66-.132-1.023-.462-.924-1.023-2.146-1.617-3.796-1.617-3.3 0-5.445 2.574-5.445 6.502 0 3.96 2.146 6.535 5.445 6.535 1.65 0 2.904-.627 3.796-1.617.297-.363.693-.495 1.023-.495.76 0 1.484.66 1.484 1.452 0 .297-.132.66-.396.957zm16.663 1.98c-.627 0-1.254-.363-1.386-1.1-1.32 1.023-2.937 1.65-4.753 1.65-4.093 0-7.525-3.4-7.525-7.524v-9.143c0-.924.693-1.42 1.387-1.42.76 0 1.452.495 1.452 1.386v9.176c0 2.574 2.146 4.72 4.687 4.72 2.574 0 4.72-2.146 4.72-4.72v-9.143c0-1.023.66-1.452 1.386-1.452.76 0 1.42.495 1.42 1.42v14.753c0 .925-.66 1.387-1.387 1.387z"/><use xlink:href="#E" x="-16.17" y="27.563"/><use xlink:href="#E" x="-4.62" y="27.563"/><use xlink:href="#F" x="-4.62" y="27.565"/><use xlink:href="#C" x="-10.234" y="55.126"/><use xlink:href="#D" x="-11.557" y="55.126"/><path d="M1026.276 959.658c-1.782 0-3.3-1.52-3.3-3.367v-18.78c0-.957.692-1.42 1.42-1.42s1.42.462 1.42 1.386V956.3c0 .396.297.562.462.562.925 0 1.42.66 1.42 1.42 0 .727-.495 1.387-1.42 1.387zm18.714-15.61l-8.912 20.265c-.66 1.52-2.112 2.2-3.63 2.2h-1.057c-.957 0-1.386-.692-1.386-1.452 0-.692.43-1.386 1.386-1.386h1.023c.43 0 .9-.066 1.1-.528l2.18-4.885-6.437-14.225a1.19 1.19 0 0 1-.165-.627c0-.825.793-1.387 1.52-1.387.495 0 .924.264 1.188.858l5.38 11.947 5.247-11.947c.265-.595.76-.825 1.222-.825.76 0 1.52.56 1.52 1.354a1.12 1.12 0 0 1-.165.627zm-112.36 43.14c-.627 0-1.254-.363-1.386-1.1-1.32 1.023-2.937 1.65-4.753 1.65-4.093 0-7.525-3.4-7.525-7.524v-9.143c0-.924.693-1.42 1.387-1.42.76 0 1.452.495 1.452 1.386v9.176c0 2.574 2.146 4.72 4.687 4.72 2.574 0 4.72-2.146 4.72-4.72v-9.143c0-1.023.66-1.452 1.386-1.452.76 0 1.42.495 1.42 1.42V985.8c0 .925-.66 1.387-1.387 1.387zm11.583.528c-1.815 0-4.853-.562-6.403-2.476-.198-.297-.297-.595-.297-.858 0-.825.792-1.485 1.485-1.485.396 0 .692.198 1.022.562 1.023 1.122 2.707 1.452 4.192 1.452 2.97 0 3.927-1.023 3.927-2.5 0-4.225-10.066-1.617-10.066-8.416 0-3.598 3.367-4.918 6.502-4.918 1.782 0 5.975.892 5.975 2.74 0 .727-.595 1.485-1.387 1.485-.297 0-.76-.165-1.1-.43-.892-.76-2.18-1-3.5-1-2.74 0-3.696 1.023-3.696 2.112 0 3.928 10.1 1.387 10.1 8.416 0 3.895-3.268 5.314-6.766 5.314zm11.68-20.76c-1.32 0-2.376-1.056-2.376-2.376s1.056-2.376 2.376-2.376 2.377 1.056 2.377 2.376-1.057 2.376-2.377 2.376zm0 20.2c-.726 0-1.452-.495-1.452-1.386v-14.72c0-.924.727-1.42 1.452-1.42.693 0 1.387.495 1.387 1.42v14.72c0 .924-.693 1.386-1.387 1.386z"/><use xlink:href="#C" x="-43.92" y="82.688"/><path d="M989.06 994.68c-2.013 0-6.997-.727-6.997-2.707 0-.76.693-1.485 1.42-1.485.76 0 .1.1 1.848.76.792.297 1.98.627 3.73.627 3.664 0 5.446-1.75 5.446-5.215v-1.485c-1.287 1.222-3.136 1.98-5.446 1.98-5.215 0-8.284-3.696-8.284-8.78 0-4.95 2.97-9.308 8.284-9.308 2.3 0 4.093.693 5.446 2.112v-.132c0-.924.76-1.42 1.42-1.42.693 0 1.42.495 1.42 1.42v15.6c0 5.248-3.135 8.02-8.284 8.02zm0-22.807c-3.3 0-5.445 2.574-5.445 6.502 0 3.763 1.98 5.974 5.445 5.974s5.446-2.2 5.446-5.974c0-3.928-2.112-6.502-5.446-6.502zM82.278 153.266v44.818h6.75v5.4h-6.75v14.76h-6.48v-14.76H55v-3.06l17.82-47.158h9.45zM61.13 198.084H75.8v-38.878h-.18l-14.5 38.878zm49.857 21.06c-10.08 0-16.02-7.92-16.02-17.28 0-8 4.23-13.77 10.44-18.18-5.76-4.6-9-9.1-9-16.74 0-8.55 6.48-14.58 14.58-14.58s14.58 6.03 14.58 14.58c0 7.65-3.24 12.15-9 16.74 6.2 4.4 10.44 10.17 10.44 18.18 0 9.36-5.94 17.28-16.02 17.28zm0-32.04c-5.22 3.87-9.54 8-9.54 15.03 0 5.3 2.88 11.6 9.54 11.6s9.54-6.3 9.54-11.6c0-7.02-4.32-11.16-9.54-15.03zm0-29.34c-5.58 0-8.1 4.32-8.1 8.46 0 6.57 3.24 11.43 8.1 14.4 4.86-2.97 8.1-7.83 8.1-14.4 0-4.14-2.52-8.46-8.1-8.46z"/><use xlink:href="#G"/><path d="M173.894 209.783v9l-5.4 12.96h-2.7l4.14-13.5h-3.6v-8.46h7.56z"/><use xlink:href="#G" x="47.337"/><use xlink:href="#G" x="83.695"/><use xlink:href="#G" x="120.055"/><path d="M295.748 209.783v9l-5.4 12.96h-2.7l4.14-13.5h-3.6v-8.46h7.56z"/><use xlink:href="#G" x="169.192"/><use xlink:href="#G" x="205.55"/><use xlink:href="#G" x="241.908"/><path d="M433.244 218.243c-.504 0-1.044-.36-1.044-1.008v-1.8c-1.512 2.124-3.852 3.42-6.983 3.42-5.795 0-9.034-4.752-9.034-10.187 0-5.4 3.24-10.15 9.034-10.15 3.132 0 5.472 1.296 6.983 3.384v-8.28c0-.647.54-1.008 1.044-1.008.468 0 1.008.36 1.008 1.008v23.613c0 .647-.54 1.008-1.008 1.008zm-8.027-17.674c-4.247 0-6.982 3.42-6.982 8.1s2.735 8.136 6.982 8.136c4.284 0 6.983-3.456 6.983-8.136s-2.7-8.1-6.983-8.1zm32.22 17.674h-.036c-1.188 0-2.88-.647-3.563-2.808-1.512 2.124-3.852 3.42-6.983 3.42-5.867 0-9.035-4.824-9.035-10.187 0-5.435 3.24-10.15 9.035-10.15 3.132 0 5.472 1.296 6.983 3.384v-1.764c0-.576.468-1.008 1.044-1.008.504 0 1.008.36 1.008 1.008v14.506c0 2.304 2.6.864 2.6 2.592 0 .468-.323 1.008-1.043 1.008zm-10.583-17.674c-4.248 0-6.983 3.42-6.983 8.1s2.735 8.136 6.983 8.136c4.283 0 6.983-3.456 6.983-8.136s-2.7-8.1-6.983-8.1zm15.227-4.895c-1.152 0-2.052-.9-2.052-2.052s.9-2.052 2.052-2.052a2.03 2.03 0 0 1 2.052 2.052c0 1.152-.9 2.052-2.052 2.052zm0 22.57c-.504 0-1.044-.324-1.044-1.008v-17.098c0-.648.504-1.008 1.044-1.008.468 0 1.008.323 1.008 1.008v17.098a.96.96 0 0 1-1.008 1.008zm8.965.216c-1.944 0-3.564-1.8-3.564-3.815v-21.02c0-.647.54-1.008 1.044-1.008.47 0 1.008.36 1.008 1.008v21.02c0 2.304 2.556.972 2.556 2.592 0 .612-.432 1.224-1.043 1.224zm19.115-17.9l-9.755 23.073c-.72 1.7-2.195 2.16-3.852 2.16h-1.584c-.647 0-1.008-.54-1.008-1.043 0-.47.36-1 1.008-1h1.584c.792 0 1.62-.035 1.943-.863l2.052-4.896-7.45-17.422c-.072-.18-.072-.324-.072-.468 0-.576.504-.972 1.044-.972.323 0 .72.144.9.6l6.695 15.622 6.623-15.622c.18-.468.576-.6.937-.6.54 0 1.008.396 1.008.972 0 .144 0 .288-.072.468zm34.414 17.673c-.504 0-1.008-.36-1.008-1.008V205.14c0-2.483-2.087-4.57-4.57-4.57s-4.607 2.088-4.607 4.535v12.13c0 .647-.504 1.008-1.008 1.008s-1.044-.36-1.044-1.008V205.14c0-2.483-2.088-4.57-4.535-4.57-2.52 0-4.607 2.088-4.607 4.535v12.13c0 .647-.54 1.008-1.008 1.008-.504 0-1.044-.36-1.044-1.008v-17.098c0-.648.54-1.008 1.044-1.008.468 0 1.008.36 1.008 1.008v.216a6.54 6.54 0 0 1 4.57-1.836c2.304 0 4.355 1.152 5.615 3.06 1.188-1.836 3.24-3.06 5.58-3.06 3.744 0 6.66 2.952 6.66 6.587v12.13c0 .647-.54 1.008-1.044 1.008zm21.35-8.53h-14.938c.324 4.104 2.988 7.092 6.9 7.092 1.944 0 4.248-.864 5.292-2.484.252-.396.54-.504.863-.504.54 0 1.116.433 1.116.973 0 .323 0 .396-.684 1.188-1.656 1.943-4.067 2.88-6.588 2.88-5.795 0-9.034-4.752-9.034-10.187 0-5.4 3.24-10.15 9.034-10.15s9.035 4.787 9.035 10.15c0 .54-.504 1.044-1.008 1.044zm-8.027-9.143c-4.32 0-6.587 3.312-6.9 7.1h13.858c-.323-4.104-2.987-7.1-6.947-7.1zm20.81 25.88c-3.06 0-7.38-1.152-7.38-2.447 0-.576.468-1.152 1.044-1.152.396 0 1.224.612 1.908.864.936.323 2.412.684 4.428.684 4.607 0 6.982-2.268 6.982-6.695v-2.52c-1.583 1.907-3.852 3.06-6.982 3.06-5.687 0-9.035-4.03-9.035-9.575 0-5.4 3.24-10.15 9.035-10.15 3.13 0 5.47 1.296 6.982 3.384v-1.728c0-.648.54-1.008 1.044-1.008.468 0 1.008.36 1.008 1.008v17.53c0 5.724-3.42 8.747-9.034 8.747zm0-25.88c-4.248 0-6.983 3.42-6.983 8.1 0 4.644 2.556 7.523 6.983 7.523s6.982-2.88 6.982-7.523c0-4.68-2.7-8.1-6.982-8.1zm32.218 17.673h-.036c-1.187 0-2.88-.647-3.563-2.808-1.512 2.124-3.852 3.42-6.983 3.42-5.867 0-9.035-4.824-9.035-10.187 0-5.435 3.24-10.15 9.035-10.15 3.132 0 5.472 1.296 6.983 3.384v-1.764c0-.576.468-1.008 1.044-1.008.504 0 1.008.36 1.008 1.008v14.506c0 2.304 2.592.864 2.592 2.592 0 .468-.324 1.008-1.044 1.008zM580.34 200.57c-4.247 0-6.983 3.42-6.983 8.1s2.736 8.136 6.983 8.136c4.283 0 6.983-3.456 6.983-8.136s-2.7-8.1-6.983-8.1zm37.86-.1l-5.867 16.918c-.252.685-.576.864-1.044.864-.612 0-.792-.216-1.008-.864l-4.716-14.038-4.716 14.038c-.252.685-.575.864-1.043.864s-.828-.288-1-.864l-5.83-16.918c-.036-.107-.07-.287-.07-.396 0-.576.575-.936 1.043-.936.36 0 .792.18.937.684l4.932 14.254 4.715-14.074c.216-.684.432-.863 1.044-.863.432 0 .792.144 1.008.863l4.787 14.074 4.86-14.254c.18-.504.54-.684.937-.684.54 0 1.115.36 1.115.972 0 .144-.035.252-.07.36zm21.6 17.783h-.036c-1.187 0-2.88-.647-3.563-2.808-1.512 2.124-3.852 3.42-6.983 3.42-5.867 0-9.035-4.824-9.035-10.187 0-5.435 3.24-10.15 9.035-10.15 3.132 0 5.472 1.296 6.983 3.384v-1.764c0-.576.468-1.008 1.044-1.008.504 0 1.008.36 1.008 1.008v14.506c0 2.304 2.592.864 2.592 2.592 0 .468-.324 1.008-1.044 1.008zm-10.583-17.674c-4.247 0-6.983 3.42-6.983 8.1s2.736 8.136 6.983 8.136c4.283 0 6.983-3.456 6.983-8.136s-2.7-8.1-6.983-8.1zm20.78 17.674h-1.115c-2.844 0-4.248-1.404-4.248-4.212v-12.85H642.8c-.648 0-1.008-.54-1.008-1.044 0-.468.36-1.008 1.008-1.008h1.835v-5.508c0-.647.54-1.008 1.044-1.008s1.008.36 1.008 1.008v5.508H650c.648 0 1 .54 1 1.008 0 .504-.36 1.044-1 1.044h-3.312v12.85c0 1.765.504 2.16 2.196 2.16h1.115c.648 0 1 .54 1 1.044 0 .468-.36 1.008-1 1.008zm10.152 0h-1.115c-2.844 0-4.248-1.404-4.248-4.212v-12.85h-1.835c-.648 0-1.008-.54-1.008-1.044 0-.468.36-1.008 1.008-1.008h1.835v-5.508c0-.647.54-1.008 1.044-1.008s1.008.36 1.008 1.008v5.508h3.312c.648 0 1 .54 1 1.008 0 .504-.36 1.044-1 1.044h-3.312v12.85c0 1.765.504 2.16 2.196 2.16h1.115c.648 0 1 .54 1 1.044 0 .468-.36 1.008-1 1.008zm27.07 0c-.504 0-1.044-.36-1.044-1.008v-10.5a6.13 6.13 0 0 0-6.155-6.155c-3.384 0-6.155 2.735-6.155 6.155v10.5c0 .647-.54 1.008-1.008 1.008-.504 0-1.044-.36-1.044-1.008v-23.613c0-.647.54-1.008 1.044-1.008.468 0 1.008.36 1.008 1.008v7.667c1.512-1.764 3.708-2.77 6.155-2.77 4.464 0 8.207 3.708 8.207 8.207v10.5c0 .647-.54 1.008-1.008 1.008zm13.285.612c-5.795 0-9.035-4.752-9.035-10.187 0-5.4 3.24-10.15 9.035-10.15s9.035 4.75 9.035 10.15c0 5.436-3.24 10.188-9.035 10.188zm0-18.286c-4.247 0-6.983 3.42-6.983 8.1s2.736 8.136 6.983 8.136c4.283 0 6.983-3.456 6.983-8.136s-2.7-8.1-6.983-8.1zm27.683 17.674c-.504 0-1.044-.36-1.044-1.008v-1.152c-1.512 1.765-3.707 2.772-6.155 2.772-4.463 0-8.207-3.744-8.207-8.207v-10.5c0-.648.54-1.008 1.044-1.008.47 0 1.008.36 1.008 1.008v10.5a6.156 6.156 0 1 0 12.311 0v-10.5c0-.648.54-1.008 1.044-1.008.468 0 1.008.36 1.008 1.008v17.098c0 .647-.54 1.008-1.008 1.008zm13.608-17.35c-3.384 0-6.155 2.735-6.155 6.155v10.187c0 .647-.54 1.008-1.008 1.008-.504 0-1.044-.36-1.044-1.008v-17.098c0-.648.54-1.008 1.044-1.008.468 0 1.008.36 1.008 1.008v1.476c1.62-1.764 3.744-2.77 6.155-2.77.648 0 1.044.54 1.044 1.008 0 .504-.396 1.044-1.044 1.044zm8.964 18.033c-2.16 0-5.796-.756-7.056-2.844-.144-.216-.144-.396-.144-.54 0-.576.504-1.08 1.044-1.08.216 0 .576.18.792.504 1.296 1.584 3.6 1.907 5.363 1.907 3.5 0 5.255-1.15 5.255-3.5 0-5.436-11.807-2.556-11.807-9.755 0-3.636 3.636-5.04 6.9-5.04 1.872 0 4.752.647 6.2 2.088.216.216.324.468.324.684 0 .54-.54 1.08-1.116 1.08-.216 0-.468-.072-.684-.288-1.116-1.08-3.132-1.512-4.716-1.512-3.167 0-4.86 1.224-4.86 2.987 0 5.04 11.807 2.376 11.807 9.755 0 4.104-3.6 5.543-7.307 5.543z" opacity=".8"/><path d="M69.3 279.668c-10.56 0-13.97-8.88-13.97-17.906 0-8.977 3.408-17.953 13.97-17.953 4.32 0 8.113 1.536 10.657 5.232.24.24.288.48.288.768 0 .77-.72 1.345-1.488 1.345-.672 0-1.056-.576-1.584-1.248-1.68-2.16-4.224-3.36-7.873-3.36-7.25 0-11.233 5.568-11.233 15.217 0 7.297 2.304 15.17 11.233 15.17 7.584 0 10.897-5.81 11.233-13.777h-5.856a1.37 1.37 0 0 1-1.44-1.393c0-.672.48-1.392 1.344-1.392h7.297c.816 0 1.392.576 1.392 1.392 0 9.36-3.696 17.906-13.97 17.906z"/><use xlink:href="#H"/><use xlink:href="#I"/><path d="M137.064 279.668c-4.176 0-7.297-1.73-9.313-4.56v2.4c0 .863-.72 1.344-1.344 1.344-.672 0-1.392-.48-1.392-1.344v-31.5c0-.864.72-1.344 1.392-1.344.625 0 1.344.48 1.344 1.344v11.04c2.016-2.784 5.137-4.513 9.313-4.513 7.73 0 12.05 6.337 12.05 13.537 0 7.25-4.32 13.586-12.05 13.586zm0-24.387c-5.712 0-9.313 4.56-9.313 10.8s3.6 10.85 9.313 10.85 9.313-4.608 9.313-10.85-3.6-10.8-9.312-10.8zm41.856 23.57h-.048c-1.584 0-3.84-.864-4.752-3.744-2.016 2.832-5.136 4.56-9.312 4.56-7.825 0-12.05-6.433-12.05-13.586 0-7.248 4.32-13.537 12.05-13.537 4.176 0 7.296 1.73 9.313 4.513v-2.353c0-.768.624-1.344 1.392-1.344.672 0 1.344.48 1.344 1.344v19.346c0 3.072 3.457 1.152 3.457 3.457 0 .624-.432 1.344-1.392 1.344zm-14.113-23.57c-5.665 0-9.313 4.56-9.313 10.8s3.648 10.85 9.313 10.85c5.712 0 9.313-4.608 9.313-10.85s-3.6-10.8-9.312-10.8z"/><use xlink:href="#H" x="95.997"/><path d="M235.656 255.138L227.83 277.7c-.336.912-.768 1.152-1.392 1.152-.816 0-1.056-.288-1.344-1.152l-6.3-18.722-6.3 18.722c-.336.912-.768 1.152-1.392 1.152s-1.104-.384-1.344-1.152L202 255.138a2.05 2.05 0 0 1-.096-.528c0-.768.768-1.248 1.392-1.248.48 0 1.056.24 1.25.912l6.576 19 6.3-18.77c.288-.912.576-1.152 1.392-1.152.576 0 1.056.192 1.344 1.152l6.385 18.77 6.48-19c.24-.672.72-.912 1.248-.912.72 0 1.488.48 1.488 1.296 0 .192-.048.336-.096.48zm5.134-6.385c-1.536 0-2.736-1.2-2.736-2.736s1.2-2.736 2.736-2.736 2.736 1.2 2.736 2.736-1.2 2.736-2.736 2.736zm0 30.1c-.672 0-1.392-.432-1.392-1.344v-22.803c0-.863.672-1.344 1.392-1.344.625 0 1.344.432 1.344 1.344v22.803c0 .863-.624 1.344-1.344 1.344zm27.745-.001c-.672 0-1.392-.48-1.392-1.344V263.5c0-4.56-3.648-8.2-8.2-8.2-4.513 0-8.2 3.648-8.2 8.2v14.018c0 .863-.72 1.344-1.344 1.344-.672 0-1.393-.48-1.393-1.344v-22.803c0-.863.72-1.344 1.393-1.344.624 0 1.344.48 1.344 1.344v1.536c2.16-2.352 4.993-3.696 8.2-3.696 5.952 0 10.945 4.944 10.945 10.945v14.018c0 .863-.72 1.344-1.344 1.344zm28.415 0c-.672 0-1.392-.48-1.392-1.344v-2.4c-2.016 2.832-5.136 4.56-9.312 4.56-7.73 0-12.05-6.337-12.05-13.586 0-7.2 4.32-13.537 12.05-13.537 4.176 0 7.296 1.73 9.313 4.513v-11.04c0-.864.72-1.344 1.392-1.344.624 0 1.344.48 1.344 1.344v31.5c0 .863-.72 1.344-1.344 1.344zm-10.705-23.57c-5.665 0-9.313 4.56-9.313 10.8s3.648 10.85 9.313 10.85c5.712 0 9.313-4.608 9.313-10.85s-3.6-10.8-9.312-10.8zm50.353 12.193h-19.92c.432 5.473 3.984 9.457 9.217 9.457 2.592 0 5.665-1.152 7.057-3.312.336-.528.72-.672 1.152-.672.72 0 1.488.576 1.488 1.296 0 .432 0 .528-.912 1.584-2.208 2.593-5.424 3.84-8.785 3.84-7.73 0-12.05-6.337-12.05-13.586 0-7.2 4.32-13.537 12.05-13.537s12.05 6.385 12.05 13.537c0 .72-.672 1.393-1.344 1.393zm-10.705-12.193c-5.76 0-8.785 4.417-9.217 9.457h18.48c-.432-5.473-3.984-9.457-9.265-9.457zm37.344 23.57c-.672 0-1.392-.48-1.392-1.344V263.5c0-4.56-3.648-8.2-8.2-8.2-4.513 0-8.2 3.648-8.2 8.2v14.018c0 .863-.72 1.344-1.344 1.344-.672 0-1.392-.48-1.392-1.344v-22.803c0-.863.72-1.344 1.392-1.344.625 0 1.344.48 1.344 1.344v1.536c2.16-2.352 4.993-3.696 8.2-3.696 5.952 0 10.945 4.944 10.945 10.945v14.018c0 .863-.72 1.344-1.344 1.344zm28.416-11.377h-19.92c.432 5.473 3.984 9.457 9.217 9.457 2.592 0 5.665-1.152 7.057-3.312.336-.528.72-.672 1.152-.672.72 0 1.488.576 1.488 1.296 0 .432 0 .528-.912 1.584-2.2 2.593-5.424 3.84-8.785 3.84-7.73 0-12.05-6.337-12.05-13.586 0-7.2 4.32-13.537 12.05-13.537S393 258.93 393 266.082c0 .72-.672 1.393-1.344 1.393zM380.95 255.28c-5.76 0-8.785 4.417-9.217 9.457h18.48c-.432-5.473-3.984-9.457-9.265-9.457zm27.742.434c-4.513 0-8.2 3.648-8.2 8.208v13.586c0 .863-.72 1.344-1.344 1.344-.672 0-1.393-.48-1.393-1.344v-22.803c0-.863.72-1.344 1.393-1.344.624 0 1.344.48 1.344 1.344v1.97c2.16-2.353 4.993-3.696 8.2-3.696.864 0 1.392.72 1.392 1.344 0 .672-.528 1.393-1.392 1.393zm14.88 34.083c-4.08 0-9.84-1.536-9.84-3.265 0-.77.624-1.536 1.392-1.536.528 0 1.632.816 2.544 1.152 1.248.432 3.216.912 5.905.912 6.145 0 9.313-3.024 9.313-8.93v-3.36c-2.112 2.544-5.136 4.08-9.312 4.08-7.585 0-12.05-5.377-12.05-12.77 0-7.2 4.32-13.537 12.05-13.537 4.176 0 7.296 1.73 9.313 4.513v-2.304c0-.864.72-1.345 1.392-1.345.624 0 1.344.48 1.344 1.345v23.378c0 7.632-4.56 11.665-12.05 11.665zm0-34.516c-5.665 0-9.313 4.56-9.313 10.8 0 6.193 3.408 10.033 9.313 10.033s9.313-3.84 9.313-10.033c0-6.24-3.6-10.8-9.312-10.8zm38.592-.001l-13 30.77c-.96 2.257-2.928 2.88-5.136 2.88h-2.112c-.864 0-1.344-.72-1.344-1.393 0-.624.48-1.344 1.344-1.344h2.112c1.056 0 2.16-.048 2.592-1.152l2.736-6.528-9.937-23.234c-.096-.24-.096-.432-.096-.624 0-.768.672-1.296 1.392-1.296.432 0 .96.192 1.2.816l8.93 20.834 8.833-20.834c.24-.624.768-.816 1.248-.816.72 0 1.344.528 1.344 1.296 0 .192 0 .384-.096.624zm26.686 24.388c-4.176 0-7.297-1.73-9.313-4.56v12.433c0 .864-.72 1.393-1.344 1.393-.672 0-1.392-.528-1.392-1.393v-32.835c0-.863.72-1.344 1.392-1.344.625 0 1.344.48 1.344 1.344v2.353c2.016-2.784 5.137-4.513 9.313-4.513 7.73 0 12.05 6.337 12.05 13.537 0 7.25-4.32 13.586-12.05 13.586zm0-24.387c-5.712 0-9.313 4.56-9.313 10.8s3.6 10.85 9.313 10.85 9.313-4.608 9.313-10.85-3.6-10.8-9.312-10.8z"/><use xlink:href="#I" x="408.378"/><path d="M542.178 278.852H540.7c-3.792 0-5.665-1.872-5.665-5.616v-17.138h-2.448c-.864 0-1.344-.72-1.344-1.393 0-.624.48-1.344 1.344-1.344h2.448v-7.345c0-.864.72-1.344 1.392-1.344s1.344.48 1.344 1.344v7.345h4.417c.864 0 1.344.72 1.344 1.344 0 .673-.48 1.393-1.344 1.393h-4.417v17.138c0 2.352.672 2.88 2.928 2.88h1.488c.864 0 1.344.72 1.344 1.393 0 .624-.48 1.344-1.344 1.344zm26.402-11.377h-19.92c.432 5.473 3.984 9.457 9.216 9.457 2.593 0 5.665-1.152 7.057-3.312.336-.528.72-.672 1.152-.672.72 0 1.488.576 1.488 1.296 0 .432 0 .528-.912 1.584-2.208 2.593-5.425 3.84-8.785 3.84-7.73 0-12.05-6.337-12.05-13.586 0-7.2 4.32-13.537 12.05-13.537s12.05 6.385 12.05 13.537c0 .72-.673 1.393-1.345 1.393zm-10.705-12.193c-5.76 0-8.784 4.417-9.216 9.457h18.48c-.432-5.473-3.983-9.457-9.265-9.457zm37.342 23.57c-.672 0-1.392-.48-1.392-1.344V263.5c0-4.56-3.648-8.2-8.2-8.2-4.513 0-8.2 3.648-8.2 8.2v14.018c0 .863-.72 1.344-1.344 1.344-.672 0-1.393-.48-1.393-1.344v-22.803c0-.863.72-1.344 1.393-1.344.624 0 1.344.48 1.344 1.344v1.536c2.16-2.352 4.992-3.696 8.2-3.696 5.952 0 10.944 4.944 10.944 10.945v14.018c0 .863-.72 1.344-1.344 1.344zm15.553 0h-1.488c-3.792 0-5.664-1.872-5.664-5.616v-17.138h-2.448c-.864 0-1.345-.72-1.345-1.393 0-.624.48-1.344 1.345-1.344h2.448v-7.345c0-.864.72-1.344 1.392-1.344s1.344.48 1.344 1.344v7.345h4.417c.864 0 1.344.72 1.344 1.344 0 .673-.48 1.393-1.344 1.393h-4.417v17.138c0 2.352.673 2.88 2.93 2.88h1.488c.864 0 1.344.72 1.344 1.393 0 .624-.48 1.344-1.344 1.344zm6.143-30.1c-1.536 0-2.736-1.2-2.736-2.736s1.2-2.736 2.736-2.736 2.736 1.2 2.736 2.736-1.2 2.736-2.736 2.736zm0 30.1c-.672 0-1.393-.432-1.393-1.344v-22.803c0-.863.672-1.344 1.393-1.344.624 0 1.344.432 1.344 1.344v22.803c0 .863-.624 1.344-1.344 1.344zm32.257-.001h-.048c-1.585 0-3.84-.864-4.753-3.744-2.016 2.832-5.137 4.56-9.312 4.56-7.825 0-12.05-6.433-12.05-13.586 0-7.248 4.32-13.537 12.05-13.537 4.176 0 7.297 1.73 9.313 4.513v-2.353c0-.768.624-1.344 1.393-1.344.672 0 1.344.48 1.344 1.344v19.346c0 3.072 3.456 1.152 3.456 3.457 0 .624-.432 1.344-1.392 1.344zm-14.113-23.57c-5.665 0-9.312 4.56-9.312 10.8s3.647 10.85 9.313 10.85c5.712 0 9.313-4.608 9.313-10.85s-3.6-10.8-9.312-10.8zm23.663 23.858c-2.593 0-4.753-2.4-4.753-5.1v-28.034c0-.864.72-1.344 1.393-1.344.624 0 1.344.48 1.344 1.344v28.034c0 3.072 3.408 1.297 3.408 3.457 0 .815-.576 1.632-1.392 1.632zM71.647 709.215c-.68-4.896-3.4-5.712-5.304-5.712-4.352 0-7.07 5.983-7.207 19.65 1.972-2.108 4.623-3.74 7.547-3.74 5.508 0 10.54 3.944 10.54 15.095 0 9.52-4.08 15.366-10.54 15.366-8.5 0-12.58-4.896-12.58-22.573 0-19.72 4.624-27.877 12.375-27.877 6.323 0 8.703 3.807 9.655 9.52l-4.487.272zM59 732.332c0 9.927 2.583 13.463 6.935 13.463 3.808 0 6.392-2.855 6.392-11.355 0-8.77-2.992-10.946-6.12-10.946S60.63 725.534 59 727.7v4.623z"/><use xlink:href="#J"/><path d="M115.914 742.803v6.8l-4.08 9.79h-2.04l3.128-10.2h-2.72v-6.392h5.712z"/><use xlink:href="#J" x="39.845"/><use xlink:href="#K"/><use xlink:href="#L"/><path d="M210.704 742.803v6.8l-4.08 9.79h-2.04l3.128-10.2h-2.72v-6.392h5.712z"/><use xlink:href="#L" x="39.846"/><use xlink:href="#K" x="94.789"/><use xlink:href="#K" x="122.259"/><path d="M73.038 797.195c-.494 0-1.063-.342-1.063-1.063v-12.35H57.232v12.35c0 .684-.494 1.063-1.063 1.063-.532 0-1.103-.342-1.103-1.063v-24.925c0-.722.57-1.063 1.103-1.063.57 0 1.063.38 1.063 1.063v10.4h14.742v-10.4c0-.684.494-1.063 1.063-1.063.532 0 1.102.342 1.102 1.063v24.925c0 .684-.53 1.063-1.102 1.063zm20.9 0c-.532 0-1.102-.38-1.102-1.063v-1.216c-1.596 1.86-3.913 2.925-6.497 2.925-4.7 0-8.663-3.95-8.663-8.662v-11.095c0-.684.57-1.063 1.103-1.063.493 0 1.063.38 1.063 1.063v11.095a6.497 6.497 0 1 0 12.994 0v-11.095c0-.684.57-1.063 1.102-1.063.494 0 1.064.38 1.064 1.063v18.048c0 .684-.57 1.063-1.064 1.063zm29.677 0c-.53 0-1.063-.38-1.063-1.063v-12.767c0-2.62-2.204-4.825-4.825-4.825s-4.863 2.204-4.863 4.787v12.805c0 .684-.532 1.063-1.063 1.063s-1.103-.38-1.103-1.063v-12.767c0-2.62-2.203-4.825-4.787-4.825-2.66 0-4.863 2.204-4.863 4.787v12.805c0 .684-.57 1.063-1.063 1.063-.532 0-1.103-.38-1.103-1.063v-18.048c0-.684.57-1.063 1.103-1.063.494 0 1.063.38 1.063 1.063v.23c1.254-1.216 2.964-1.938 4.825-1.938 2.432 0 4.598 1.216 5.928 3.23 1.253-1.937 3.42-3.23 5.9-3.23 3.95 0 7.03 3.116 7.03 6.953v12.805c0 .684-.57 1.063-1.103 1.063zm24.473 0h-.038c-1.254 0-3.04-.684-3.762-2.964-1.596 2.242-4.065 3.6-7.37 3.6-6.193 0-9.536-5.1-9.536-10.752 0-5.737 3.42-10.715 9.536-10.715 3.306 0 5.775 1.368 7.37 3.572v-1.862c0-.607.494-1.063 1.102-1.063.532 0 1.064.38 1.064 1.063v15.312c0 2.432 2.735.912 2.735 2.736a1.04 1.04 0 0 1-1.102 1.063zm-11.17-18.655c-4.483 0-7.37 3.6-7.37 8.55s2.888 8.587 7.37 8.587c4.52 0 7.37-3.647 7.37-8.587s-2.85-8.55-7.37-8.55z"/><use xlink:href="#M"/><use xlink:href="#N"/><use xlink:href="#O"/><path d="M206.646 778.54l-10.297 24.354c-.76 1.786-2.317 2.28-4.065 2.28h-1.67c-.685 0-1.064-.57-1.064-1.102 0-.494.38-1.063 1.064-1.063h1.67c.836 0 1.7-.038 2.052-.912l2.166-5.167-7.864-18.4c-.076-.2-.076-.342-.076-.494 0-.607.53-1.025 1.102-1.025.342 0 .76.15.95.646l7.066 16.5 7-16.5c.2-.494.607-.646.988-.646.57 0 1.063.418 1.063 1.025 0 .152 0 .305-.076.494zm4.487-.532c-.23.114-.38.2-.57.2-.646 0-1.063-.684-1.063-1.292 0-.836 2.165-1.025 2.165-3.457v-2.888c0-.723.532-1.14 1.064-1.14a1.11 1.11 0 0 1 1.102 1.14v2.888c0 .873-.418 3.305-2.697 4.56zm10.64 19.91c-2.28 0-6.117-.798-7.447-3-.15-.23-.15-.418-.15-.57 0-.607.53-1.14 1.102-1.14.228 0 .607.2.836.532 1.367 1.67 3.8 2.014 5.66 2.014 3.686 0 5.547-1.216 5.547-3.686 0-5.737-12.462-2.698-12.462-10.297 0-3.837 3.837-5.32 7.295-5.32 1.976 0 5.015.684 6.535 2.204.228.228.342.494.342.722 0 .57-.57 1.14-1.178 1.14-.23 0-.494-.076-.722-.304-1.178-1.14-3.306-1.596-4.978-1.596-3.344 0-5.13 1.292-5.13 3.153 0 5.32 12.462 2.508 12.462 10.297 0 4.33-3.8 5.85-7.713 5.85z"/><use xlink:href="#P"/><use xlink:href="#M" x="109.06"/><use xlink:href="#O" x="102.258"/><use xlink:href="#N" x="119.006"/><use xlink:href="#Q"/><use xlink:href="#P" x="65.93"/><path d="M72.96 823.8H57.194c.342 4.332 3.153 7.485 7.295 7.485 2.052 0 4.483-.912 5.585-2.622.267-.418.57-.53.912-.53.57 0 1.178.455 1.178 1.025 0 .342 0 .418-.722 1.254-1.748 2.052-4.293 3.04-6.953 3.04-6.117 0-9.536-5.015-9.536-10.752 0-5.7 3.42-10.715 9.536-10.715s9.537 5.054 9.537 10.715c0 .57-.532 1.102-1.064 1.102zm-8.473-9.65c-4.56 0-6.953 3.495-7.295 7.485H71.82c-.342-4.332-3.153-7.485-7.333-7.485zm15.543 18.872c-2.052 0-3.762-1.9-3.762-4.027v-22.188c0-.684.57-1.063 1.103-1.063.494 0 1.063.38 1.063 1.063v22.188c0 2.432 2.697 1.026 2.697 2.736 0 .645-.455 1.3-1.102 1.3zm20.176-9.222H84.44c.342 4.332 3.153 7.485 7.295 7.485 2.052 0 4.483-.912 5.585-2.622.267-.418.57-.53.912-.53.57 0 1.178.455 1.178 1.025 0 .342 0 .418-.722 1.254-1.748 2.052-4.293 3.04-6.953 3.04-6.117 0-9.536-5.015-9.536-10.752 0-5.7 3.42-10.715 9.536-10.715s9.537 5.054 9.537 10.715c0 .57-.532 1.102-1.064 1.102zm-8.473-9.65c-4.56 0-6.953 3.495-7.295 7.485h14.628c-.342-4.332-3.153-7.485-7.333-7.485z"/><use xlink:href="#R"/><use xlink:href="#O" x="-54.95" y="35.6"/><use xlink:href="#Q" x="-162.491" y="35.598"/><use xlink:href="#N" x="-27.174" y="35.6"/><use xlink:href="#R" x="46.587"/><use xlink:href="#N" x="-2.321" y="35.6"/><use xlink:href="#O" x="-1.561" y="35.6"/><path d="M205.084 814.14l-10.297 24.354c-.76 1.786-2.317 2.28-4.064 2.28h-1.672c-.685 0-1.064-.57-1.064-1.102 0-.494.38-1.063 1.064-1.063h1.672c.835 0 1.7-.038 2.05-.912l2.166-5.167-7.865-18.4c-.075-.2-.075-.342-.075-.494 0-.607.53-1.025 1.102-1.025.342 0 .76.15.95.646l7.066 16.5 7-16.5c.2-.494.607-.646.987-.646.57 0 1.064.418 1.064 1.025 0 .152 0 .305-.076.494zm27.512 18.655c-.53 0-1.102-.38-1.102-1.063v-1.216c-1.596 1.86-3.913 2.925-6.497 2.925-4.7 0-8.663-3.95-8.663-8.662v-11.095c0-.684.57-1.063 1.103-1.063.493 0 1.063.38 1.063 1.063v11.095a6.497 6.497 0 1 0 12.994 0v-11.095c0-.684.57-1.063 1.102-1.063.494 0 1.064.38 1.064 1.063v18.048c0 .684-.57 1.063-1.064 1.063zm11.288.722c-2.28 0-6.117-.798-7.447-3-.15-.23-.15-.418-.15-.57 0-.607.53-1.14 1.102-1.14.228 0 .607.2.836.532 1.367 1.67 3.8 2.014 5.66 2.014 3.686 0 5.547-1.216 5.547-3.686 0-5.737-12.462-2.698-12.462-10.297 0-3.837 3.837-5.32 7.295-5.32 1.976 0 5.016.684 6.535 2.204.228.228.342.494.342.722 0 .57-.57 1.14-1.178 1.14-.23 0-.494-.076-.722-.304-1.18-1.14-3.306-1.596-4.978-1.596-3.344 0-5.13 1.292-5.13 3.153 0 5.32 12.462 2.508 12.462 10.297 0 4.33-3.8 5.85-7.713 5.85z"/><use xlink:href="#P" x="14.325" y="35.6"/></g><g opacity=".5" fill="#fff"><path d="M42.328 1046.045c-3.568 0-5.47-1.97-5.503-2.002 0 .935-.7 1.4-1.468 1.4-.7 0-1.4-.467-1.4-1.4v-20.88a1.35 1.35 0 0 1 1.401-1.434c.767 0 1.468.467 1.468 1.4v6.238c1.334-1.368 3.168-2.17 5.503-2.17 5.37 0 8.373 4.403 8.373 9.406 0 5.037-3.002 9.44-8.373 9.44zm0-16c-3.335 0-5.503 2.602-5.503 6.57 0 4.003 2.168 6.604 5.503 6.604s5.504-2.602 5.504-6.604c0-3.97-2.168-6.57-5.504-6.57zm25.555 8.037h-12.34c.467 3.136 2.468 5.137 5.403 5.137 1.5 0 3.002-.533 3.97-1.734.3-.333.634-.533 1.034-.533.734 0 1.5.667 1.5 1.468 0 .4-.1.7-.8 1.4-1.5 1.468-3.57 2.235-5.704 2.235-5.37 0-8.372-4.437-8.372-9.44 0-4.97 3.002-9.406 8.372-9.406 5.437 0 8.34 4.437 8.34 9.406 0 .734-.534 1.468-1.4 1.468zm-6.937-8.038c-3.136 0-4.97 2.3-5.403 5.17H66.35c-.467-3.202-2.468-5.17-5.403-5.17zM88 1045.478c-1.834 0-2.668-1.3-2.97-1.9-1.334 1.468-3.27 2.47-5.87 2.47-5.437 0-8.372-4.47-8.372-9.44s3.002-9.406 8.372-9.406c2.335 0 4.203.834 5.504 2.202v-.134c0-.367.133-1.5 1.4-1.5.7 0 1.468.367 1.468 1.4v12.875c0 .434.3.6.467.6.935 0 1.435.667 1.435 1.434a1.37 1.37 0 0 1-1.435 1.401zm-8.84-15.443c-3.336 0-5.504 2.602-5.504 6.57 0 4.003 2.168 6.604 5.504 6.604 3.37 0 5.504-2.602 5.504-6.604 0-3.97-2.135-6.57-5.504-6.57z"/><use xlink:href="#S"/><path d="M115.158 1045.478h-.567c-3.17 0-4.37-1.668-4.37-4.403V1030.6h-1c-.8 0-1.435-.634-1.435-1.4 0-.8.634-1.435 1.4-1.435h1v-4.637c0-.934.7-1.4 1.435-1.4s1.4.467 1.4 1.4v4.637h2.135c.934 0 1.4.768 1.4 1.4 0 .8-.533 1.434-1.4 1.434h-2.135v10.774c0 .934.333 1.268 1.268 1.268h.833c.868 0 1.435.634 1.435 1.4 0 .8-.533 1.435-1.4 1.435zm4.604-20.415a2.402 2.402 0 1 1 0-4.803 2.402 2.402 0 1 1 0 4.803zm0 20.414c-.733 0-1.467-.5-1.467-1.4V1029.2c0-.935.733-1.435 1.467-1.435a1.37 1.37 0 0 1 1.401 1.435v14.876c0 .935-.7 1.4-1.4 1.4zm10.376-14.877h-1.5v13.442c0 .935-.7 1.4-1.468 1.4-.7 0-1.4-.467-1.4-1.4V1030.6h-1.37c-.9 0-1.4-.667-1.4-1.4 0-.768.5-1.435 1.4-1.435h1.367v-2.27c0-2.135 1.77-3.77 3.836-3.77.968 0 1.468.667 1.468 1.434 0 .7-.5 1.4-1.468 1.4-.566 0-.967.434-.967.9v2.302h1.5c.967 0 1.468.667 1.468 1.435 0 .733-.5 1.4-1.468 1.4z"/><use xlink:href="#S" x="42.068"/><path d="M154.725 1045.544c-1.802 0-3.336-1.534-3.336-3.402v-18.98c0-.967.7-1.434 1.435-1.434s1.435.467 1.435 1.4v19.013c0 .4.3.567.467.567.934 0 1.435.667 1.435 1.435 0 .733-.5 1.4-1.435 1.4zm15.37-.066v-1.264c1.886-.237 2.046-.437 2.046-3.157v-6.7c0-2.8-1.248-4.017-3.064-4.017-1.237 0-2.345.6-3.47 1.493v9.476c0 2.527.187 2.658 2.06 2.896v1.264h-8.968v-1.264c2.254-.33 2.5-.4 2.5-3v-8.2c0-2.446-.303-2.565-2.185-2.922v-1.184c2.173-.292 4.63-.807 6.653-1.533l-.052 2.95 2.6-1.745c1.16-.713 2-1.086 3.16-1.086 3.194 0 5.2 2.338 5.2 6.3v7.5c0 2.54.237 2.657 2.277 2.92v1.264h-8.74zm23.9-3.703c-2.458 3.427-5.488 4.178-7.014 4.178-5.142 0-8.124-3.936-8.124-8.594 0-2.745 1.183-5.396 2.832-7.062 1.74-1.8 3.945-2.814 6.082-2.814 3.73 0 6.396 3.126 6.37 6.347-.014.715-.08 1.277-.612 1.4-.767.184-6.17.5-10.318.647.062 4.587 2.717 6.74 5.556 6.74 1.572 0 3.104-.597 4.543-1.866l.686 1.014zm-7.07-12.7c-1.667 0-3.167 1.807-3.516 4.963l5.486-.118c.6-.026.848-.146.848-.792.04-2.022-1.037-4.053-2.818-4.053zm34.284.145c-1.943.343-2.248.624-3.105 2.765-1.33 3.462-3.102 8.53-4.934 13.94h-1.512l-4.65-11.46-4.55 11.46h-1.472l-4.685-14.192c-.687-1.985-.94-2.274-2.855-2.512v-1.25h9.397v1.25c-2.325.345-2.535.672-2.058 2.133l2.52 8.214c1.507-3.68 2.988-7.62 4.327-11.424h1.456c1.4 3.76 2.986 7.702 4.573 11.568.742-2.107 2.062-5.964 2.557-8.108.412-1.674-.008-2.078-2.753-2.383v-1.25h7.742v1.25zm9.4 3.746c-.92-2.606-2.155-3.984-4.2-3.984-1.206 0-2.225.86-2.225 2.266 0 1.497 1.046 2.264 3.16 3.216 3.278 1.496 5.3 2.787 5.3 5.736 0 3.85-3.6 5.764-6.945 5.764-2.06 0-4.088-.737-4.92-1.16l-.662-4.892 1.252-.224c.8 2.5 2.33 4.75 4.976 4.75 1.505 0 2.438-.952 2.438-2.28 0-1.423-.76-2.333-3.092-3.467-2.67-1.295-5.107-2.64-5.107-5.775 0-3.046 2.533-5.42 6.565-5.42 1.818 0 3.242.396 4.112.567l.62 4.577-1.25.328z"/></g><g opacity=".8" fill="#fff"><use xlink:href="#T"/><use xlink:href="#U"/><path d="M640.225 1045.98c-.28 0-.58-.2-.58-.56v-.64c-.84.98-2.06 1.54-3.42 1.54-2.48 0-4.56-2.08-4.56-4.56v-5.842c0-.36.3-.56.58-.56.26 0 .56.2.56.56v5.842c0 1.9 1.52 3.42 3.42 3.42s3.42-1.52 3.42-3.42v-5.842c0-.36.3-.56.58-.56.26 0 .56.2.56.56v9.502a.56.56 0 0 1-.561.561z"/><use xlink:href="#V"/><use xlink:href="#W"/><use xlink:href="#X"/><use xlink:href="#T" x="62.5"/><path d="M683.423 1039.416c-.64 0-1.16-.5-1.16-1.14s.52-1.14 1.16-1.14c.62 0 1.12.5 1.12 1.14s-.5 1.14-1.12 1.14zm0 6.563c-.64 0-1.16-.5-1.16-1.14s.52-1.14 1.16-1.14c.62 0 1.12.5 1.12 1.14s-.5 1.14-1.12 1.14zm14.22.34c-4.4 0-5.82-3.7-5.82-7.46 0-3.742 1.42-7.482 5.82-7.482 1.8 0 3.38.64 4.44 2.18.1.102.12.2.12.32 0 .32-.3.56-.62.56-.28 0-.44-.24-.66-.52-.7-.9-1.76-1.4-3.28-1.4-3.02 0-4.682 2.32-4.682 6.342 0 3.04.96 6.32 4.682 6.32 3.16 0 4.54-2.42 4.68-5.74h-2.44a.57.57 0 0 1-.6-.58c0-.28.2-.58.56-.58h3.04c.34 0 .58.238.58.58 0 3.9-1.54 7.46-5.82 7.46z"/><use xlink:href="#Y"/><use xlink:href="#U" x="90.219"/><path d="M727.083 1046.318c-1.74 0-3.04-.72-3.88-1.9v1c0 .36-.3.56-.56.56-.28 0-.58-.2-.58-.56v-13.123c0-.36.3-.56.58-.56.26 0 .56.2.56.56v4.602c.84-1.16 2.14-1.88 3.88-1.88 3.22 0 5.02 2.64 5.02 5.64 0 3.02-1.8 5.662-5.02 5.662zm0-10.162c-2.38 0-3.88 1.9-3.88 4.5s1.5 4.52 3.88 4.52 3.88-1.92 3.88-4.52-1.5-4.5-3.88-4.5z"/><use xlink:href="#Z"/><use xlink:href="#Y" x="41.597"/><path d="M770.944 1032.455l-3.52 13.104c-.08.28-.3.42-.56.42-.24 0-.48-.14-.54-.42l-3-11.084-2.98 11.084c-.06.28-.3.42-.54.42-.26 0-.48-.14-.56-.42l-3.52-13.104c-.02-.06-.02-.12-.02-.18a.58.58 0 0 1 .58-.58c.26 0 .46.14.52.44l3 11.082 2.98-11.082a.53.53 0 0 1 .54-.4c.26 0 .48.12.56.4l2.98 11.082 3-11.082c.08-.3.28-.44.52-.44a.58.58 0 0 1 .58.58c0 .06 0 .12-.02.18z"/><use xlink:href="#a"/><use xlink:href="#b"/><use xlink:href="#c"/><path d="M815.443 1045.98h-8.882a.61.61 0 0 1-.58-.561v-13.123c0-.3.28-.56.58-.56h8.882a.55.55 0 0 1 .58.561.55.55 0 0 1-.58.561h-8.32v4.92h6.1a.55.55 0 0 1 .58.561c0 .28-.2.58-.56.58h-6.12v5.922h8.32c.38 0 .58.3.58.58a.55.55 0 0 1-.58.561z"/><use xlink:href="#b" x="41.52"/><path d="M839.203 1041.236H830.9c.18 2.28 1.66 3.94 3.84 3.94 1.08 0 2.36-.48 2.94-1.38.14-.22.3-.28.48-.28.3 0 .62.24.62.54 0 .18 0 .22-.38.658-.92 1.082-2.26 1.602-3.66 1.602-3.22 0-5.02-2.64-5.02-5.662 0-3 1.8-5.64 5.02-5.64s5.02 2.66 5.02 5.64c0 .3-.28.58-.56.58zm-4.46-5.08c-2.4 0-3.66 1.84-3.84 3.94h7.7c-.18-2.28-1.66-3.94-3.86-3.94z"/><use xlink:href="#V" x="198.518"/><path d="M853.3 1050.54c-1.7 0-4.102-.64-4.102-1.36 0-.32.26-.64.58-.64.22 0 .68.34 1.06.48.52.18 1.34.38 2.46.38 2.56 0 3.88-1.26 3.88-3.72v-1.4c-.88 1.06-2.14 1.7-3.88 1.7-3.16 0-5.02-2.24-5.02-5.322 0-3 1.8-5.64 5.02-5.64 1.74 0 3.04.72 3.88 1.88v-.96c0-.36.3-.56.58-.56.26 0 .56.2.56.56v9.742c0 3.182-1.9 4.86-5.02 4.86zm0-14.383c-2.36 0-3.88 1.9-3.88 4.5 0 2.582 1.42 4.182 3.88 4.182s3.88-1.6 3.88-4.182c0-2.6-1.5-4.5-3.88-4.5zm16.482-.001l-5.42 12.822c-.4.94-1.22 1.2-2.14 1.2h-.88c-.36 0-.56-.3-.56-.58 0-.262.2-.56.56-.56h.88c.44 0 .9-.02 1.08-.48l1.14-2.72-4.142-9.682c-.04-.1-.04-.18-.04-.26 0-.32.28-.54.58-.54.18 0 .4.08.5.34l3.722 8.682 3.68-8.682a.52.52 0 0 1 .52-.34c.3 0 .56.22.56.54 0 .08 0 .16-.04.26zm16.84 7.98c-.98 1.36-2.38 2.182-4.46 2.182-4.3 0-5.82-3.56-5.82-7.46 0-3.922 1.52-7.482 5.82-7.482 2.02 0 3.5.8 4.44 2.18.1.102.12.2.12.32 0 .32-.3.56-.62.56a.53.53 0 0 1-.44-.22c-.72-1.04-1.8-1.7-3.5-1.7-3.32 0-4.682 2.6-4.682 6.342 0 3.72 1.36 6.32 4.682 6.32 1.7 0 2.8-.64 3.54-1.7.1-.2.28-.26.44-.26.3 0 .6.26.6.58a.63.63 0 0 1-.12.34z"/><use xlink:href="#U" x="269.015"/><path d="M909.24 1045.98c-.28 0-.58-.2-.58-.56v-.64c-.84.98-2.06 1.54-3.42 1.54-2.48 0-4.56-2.08-4.56-4.56v-5.842c0-.36.3-.56.58-.56.26 0 .56.2.56.56v5.842c0 1.9 1.52 3.42 3.42 3.42s3.42-1.52 3.42-3.42v-5.842c0-.36.3-.56.58-.56.26 0 .56.2.56.56v9.502c0 .36-.3.56-.56.56z"/><use xlink:href="#b" x="135.758"/><use xlink:href="#W" x="274.195"/><use xlink:href="#a" x="162.22"/><use xlink:href="#Y" x="233.377"/><use xlink:href="#Z" x="213.899"/><use xlink:href="#b" x="184.338"/><use xlink:href="#c" x="184.337"/><use xlink:href="#U" x="370.435"/><path d="M1005.94 1045.98h-.62c-1.58 0-2.36-.78-2.36-2.342v-7.14h-1.02c-.36 0-.56-.3-.56-.58 0-.26.2-.56.56-.56h1.02v-3.06c0-.36.3-.56.58-.56s.56.2.56.56v3.06h1.84c.36 0 .56.3.56.56 0 .28-.2.58-.56.58h-1.84v7.14c0 .98.28 1.2 1.22 1.2h.62c.36 0 .56.3.56.58 0 .26-.2.56-.56.56zm10.94 0c-.28 0-.58-.2-.58-.56v-5.842c0-1.9-1.52-3.42-3.42-3.42a3.42 3.42 0 0 0-3.421 3.42v5.842c0 .36-.3.56-.56.56-.28 0-.58-.2-.58-.56v-13.123c0-.36.3-.56.58-.56.26 0 .56.2.56.56v4.262c.84-.98 2.06-1.54 3.42-1.54a4.6 4.6 0 0 1 4.561 4.561v5.842c0 .36-.3.56-.56.56z"/><use xlink:href="#X" x="359.174"/><use xlink:href="#V" x="388.436"/><use xlink:href="#T" x="428.274"/></g><g fill="#fff"><path d="M61.42 42.382h-9.96v35.1c0 1.62-1.2 2.52-2.52 2.52-1.26 0-2.58-.9-2.58-2.52v-35.1h-9.84c-1.74 0-2.64-1.32-2.64-2.58 0-1.2.9-2.52 2.58-2.52h24.96c1.68 0 2.58 1.32 2.58 2.52 0 1.26-.9 2.58-2.58 2.58zM93.58 80c-1.32 0-2.52-.9-2.52-2.52V60.8c0-4.68-3.9-8.58-8.58-8.58-4.62 0-8.52 3.9-8.52 8.58v16.62c0 1.68-1.26 2.64-2.64 2.64-1.26 0-2.52-.9-2.52-2.58V39.862c0-1.74 1.26-2.58 2.52-2.58 1.38 0 2.64.84 2.64 2.52v10.38c2.22-2.1 5.22-3.06 8.52-3.06 7.44 0 13.68 6.18 13.68 13.68v16.62c0 1.68-1.2 2.58-2.58 2.58z"/><use xlink:href="#d"/><use xlink:href="#e"/><use xlink:href="#f"/><use xlink:href="#g"/><use xlink:href="#d" x="128.397"/><use xlink:href="#h"/><use xlink:href="#g" x="81.36"/><use xlink:href="#i"/><path d="M355.113 80c-3.3 0-4.8-2.34-5.34-3.42-2.4 2.64-5.88 4.44-10.56 4.44-9.78 0-15.06-8.04-15.06-16.98s5.4-16.92 15.06-16.92c4.2 0 7.56 1.5 9.9 3.96v-.24c0-.66.24-2.7 2.52-2.7 1.26 0 2.64.66 2.64 2.52v23.16c0 .78.54 1.08.84 1.08 1.68 0 2.58 1.2 2.58 2.58 0 1.26-.9 2.52-2.58 2.52zm-15.9-27.78c-6 0-9.9 4.68-9.9 11.82 0 7.2 3.9 11.88 9.9 11.88 6.06 0 9.9-4.68 9.9-11.88 0-7.14-3.84-11.82-9.9-11.82zm27.3 27.9c-3.24 0-6-2.76-6-6.12V39.862c0-1.74 1.26-2.58 2.58-2.58s2.58.84 2.58 2.52V74c0 .72.54 1.02.84 1.02 1.68 0 2.58 1.2 2.58 2.58 0 1.32-.9 2.52-2.58 2.52z"/><use xlink:href="#f" x="204.653"/><path d="M428.9 53.242h-2.7v24.18c0 1.68-1.26 2.52-2.64 2.52-1.26 0-2.52-.84-2.52-2.52v-24.18h-2.46c-1.62 0-2.52-1.2-2.52-2.52 0-1.38.9-2.58 2.52-2.58h2.46v-4.08c0-3.84 3.18-6.78 6.9-6.78 1.74 0 2.64 1.2 2.64 2.58 0 1.26-.9 2.52-2.64 2.52-1.02 0-1.74.78-1.74 1.62v4.14h2.7c1.74 0 2.64 1.2 2.64 2.58 0 1.32-.9 2.52-2.64 2.52zm63.54-12.78l-9.9 37.438c-.3 1.44-1.08 2.1-2.46 2.1-1.26 0-2.16-.66-2.58-2.1l-8.1-28.74-8.04 28.74c-.42 1.44-1.26 2.1-2.52 2.1-1.32 0-2.16-.66-2.52-2.1l-9.9-37.438c-.06-.24-.12-.54-.12-.84 0-1.5 1.38-2.34 2.7-2.34 1.02 0 2.04.6 2.4 1.86l7.56 28.62 7.92-28.38c.42-1.44 1.26-2.1 2.52-2.1 1.32 0 2.16.66 2.58 2.1l7.92 28.38 7.56-28.62c.36-1.32 1.56-1.98 2.46-1.98 1.32 0 2.64.96 2.64 2.46 0 .3-.06.6-.12.84z"/><use xlink:href="#i" x="184.245"/><use xlink:href="#h" x="245.695"/><path d="M567.69 79.94c-1.32 0-2.58-.84-2.58-2.52 0 0-3.54 3.6-9.9 3.6-9.66 0-15.06-7.92-15.06-16.98 0-9 5.4-16.92 15.06-16.92 4.2 0 7.56 1.44 9.9 3.9v-11.16c0-1.74 1.26-2.58 2.58-2.58s2.58.84 2.58 2.52V77.42c0 1.68-1.26 2.52-2.58 2.52zm-12.48-27.72c-6 0-9.9 4.68-9.9 11.82 0 7.2 3.9 11.88 9.9 11.88 6.06 0 9.9-4.68 9.9-11.88 0-7.14-3.84-11.82-9.9-11.82z"/><use xlink:href="#e" x="443.103"/><use xlink:href="#f" x="444.293"/><path d="M698.668 51.562l-9.3 26.34c-.48 1.32-1.32 2.1-2.64 2.1-1.26 0-1.98-.54-2.52-2.1l-7.02-19.8-7.08 19.8c-.48 1.44-1.32 2.1-2.58 2.1-1.2 0-2.04-.66-2.52-2.1l-9.24-26.34c-.12-.36-.12-.6-.12-.96 0-1.5 1.38-2.46 2.64-2.46.96 0 1.92.48 2.34 1.68l6.96 20.04 7.08-19.62c.48-1.38 1.08-2.1 2.52-2.1 1.32 0 2.04.66 2.52 2.1l7.02 19.62 7.02-20.04c.42-1.2 1.38-1.68 2.28-1.68 1.38 0 2.76 1.02 2.76 2.52 0 .3 0 .54-.12.9zM727.9 66.68h-22.2c.84 5.64 4.44 9.24 9.72 9.24 2.7 0 5.4-.96 7.14-3.12.54-.6 1.14-.96 1.86-.96 1.32 0 2.7 1.2 2.7 2.64 0 .72-.18 1.26-1.44 2.52-2.7 2.64-6.42 4.02-10.26 4.02-9.66 0-15.06-7.98-15.06-16.98 0-8.94 5.4-16.92 15.06-16.92 9.78 0 15 7.98 15 16.92 0 1.32-.96 2.64-2.52 2.64zM715.4 52.22c-5.64 0-8.94 4.14-9.72 9.3h19.438c-.84-5.76-4.44-9.3-9.72-9.3zm32.76.002c-4.62 0-8.52 3.9-8.52 8.58v16.62c0 1.68-1.26 2.58-2.64 2.58-1.26 0-2.52-.9-2.52-2.52v-26.76c0-1.68 1.38-2.58 2.52-2.58 1.2 0 2.34.66 2.58 2.04a13.88 13.88 0 0 1 8.58-3.06c1.74 0 2.64 1.2 2.64 2.58 0 1.32-.9 2.52-2.64 2.52zM773.97 80h-6.9c-1.62 0-2.52-1.26-2.52-2.52 0-1.38.9-2.58 2.52-2.58h.9V42.38h-.9c-1.62 0-2.52-1.26-2.52-2.52 0-1.38.9-2.58 2.52-2.58h6.9c1.74 0 2.64 1.2 2.64 2.58 0 1.26-.9 2.52-2.64 2.52h-.9V74.9h.9c1.74 0 2.64 1.2 2.64 2.58 0 1.26-.9 2.52-2.64 2.52zm16.678 1.02c-3.3 0-8.82-1.02-11.64-4.5-.36-.54-.54-1.08-.54-1.56 0-1.5 1.44-2.7 2.7-2.7.72 0 1.26.36 1.86 1.02 1.86 2.04 4.92 2.64 7.62 2.64 5.4 0 7.14-1.86 7.14-4.56 0-7.68-18.3-2.94-18.3-15.3 0-6.54 6.12-8.94 11.82-8.94 3.24 0 10.86 1.62 10.86 4.98 0 1.32-1.08 2.7-2.52 2.7-.54 0-1.38-.3-1.98-.78-1.62-1.38-3.96-1.8-6.36-1.8-4.98 0-6.72 1.86-6.72 3.84 0 7.14 18.36 2.52 18.36 15.3 0 7.08-5.94 9.66-12.3 9.66zm60.96-1.02c-.9 0-1.8-.48-2.28-1.56l-3.18-7.8h-19.98l-3.24 7.8c-.48 1.08-1.38 1.56-2.22 1.56-1.32 0-2.7-1.02-2.7-2.52 0-.36.06-.72.24-1.02l15.42-37.498c.72-1.56 1.68-1.86 2.46-1.86.54 0 1.86.3 2.46 1.86l15.48 37.498c.12.3.18.66.18 1.02 0 1.5-1.26 2.52-2.64 2.52zm-15.48-33.6l-7.86 19.08h15.72l-7.86-19.08zm61.32 33.6c-1.26 0-2.52-.9-2.52-2.52v-18.9c0-3.48-2.88-6.36-6.3-6.36-3.54 0-6.36 2.88-6.36 6.3v18.9c0 1.68-1.2 2.58-2.58 2.58-1.32 0-2.52-.9-2.52-2.52v-18.9c0-3.48-2.88-6.36-6.36-6.36s-6.36 2.88-6.36 6.3v18.9c0 1.68-1.26 2.58-2.64 2.58-1.26 0-2.52-.9-2.52-2.52V50.66c0-1.74 1.32-2.58 2.64-2.58.84 0 1.68.36 2.16 1.14a11.56 11.56 0 0 1 6.66-2.1c3.6 0 6.84 1.62 8.94 4.26 2.1-2.64 5.28-4.26 8.88-4.26 6.36 0 11.52 5.1 11.52 11.4v18.9c0 1.68-1.26 2.58-2.64 2.58zm37.8 0c-3.3 0-4.8-2.34-5.34-3.42-2.4 2.64-5.88 4.44-10.56 4.44-9.78 0-15.06-8.04-15.06-16.98s5.4-16.92 15.06-16.92c4.2 0 7.56 1.5 9.9 3.96v-.24c0-.66.24-2.7 2.52-2.7 1.26 0 2.64.66 2.64 2.52v23.16c0 .78.54 1.08.84 1.08 1.68 0 2.58 1.2 2.58 2.58 0 1.26-.9 2.52-2.58 2.52zm-15.898-27.78c-6 0-9.9 4.68-9.9 11.82 0 7.2 3.9 11.88 9.9 11.88 6.06 0 9.9-4.68 9.9-11.88 0-7.14-3.84-11.82-9.9-11.82zM966.387 80h-21.48c-2.88 0-2.94-1.98-2.94-2.88 0-.36.18-.9.54-1.32l18.42-22.56h-16.44c-1.74 0-2.58-1.2-2.58-2.52 0-1.38.84-2.58 2.52-2.58h21.898c1.62 0 2.52 1.14 2.52 2.4 0 .6-.24 1.2-.66 1.74l-18.3 22.62h16.44c1.68 0 2.58 1.2 2.58 2.58 0 1.26-.9 2.52-2.52 2.52z"/><use xlink:href="#i" x="659.632"/><use xlink:href="#h" x="722.27"/><path d="M1031.787 93.68c-3.66 0-12.72-1.32-12.72-4.92 0-1.38 1.26-2.7 2.58-2.7 1.38 0 .18.18 3.36 1.38 1.44.54 3.6 1.14 6.78 1.14 6.66 0 9.9-3.18 9.9-9.48v-2.7c-2.34 2.22-5.7 3.6-9.9 3.6-9.48 0-15.06-6.72-15.06-15.96 0-9 5.4-16.92 15.06-16.92 4.2 0 7.44 1.26 9.9 3.84v-.24c0-1.68 1.38-2.58 2.58-2.58 1.26 0 2.58.9 2.58 2.58V79.1c0 9.54-5.7 14.58-15.06 14.58zm0-41.458c-6 0-9.9 4.68-9.9 11.82 0 6.84 3.6 10.86 9.9 10.86s9.9-4.02 9.9-10.86c0-7.14-3.84-11.82-9.9-11.82zm-187.81 914.435c-4.956 0-7.3-4.62-7.3-15.585s2.353-15.584 7.3-15.584 7.3 4.62 7.3 15.584-2.353 15.585-7.3 15.585zm0-28.65c-2.772 0-4.284 3.1-4.284 13.064s1.512 13.064 4.284 13.064 4.285-3.108 4.285-13.064-1.512-13.064-4.285-13.064zm12.39 24.283v3.948h-3.528V962.3h3.528zm9.702 4.367c-4.704 0-7.477-3.696-7.477-8.065 0-3.738 1.974-6.427 4.872-8.485-2.687-2.143-4.2-4.243-4.2-7.813 0-4 3.024-6.805 6.805-6.805s6.806 2.814 6.806 6.805c0 3.57-1.513 5.67-4.2 7.813 2.9 2.06 4.873 4.747 4.873 8.485 0 4.37-2.772 8.065-7.478 8.065zm0-14.954c-2.436 1.806-4.452 3.738-4.452 7.015 0 2.48 1.344 5.42 4.452 5.42s4.453-2.94 4.453-5.42c0-3.276-2.017-5.2-4.453-7.015zm0-13.695c-2.604 0-3.78 2.017-3.78 3.95 0 3.066 1.513 5.335 3.78 6.72 2.27-1.386 3.78-3.654 3.78-6.72 0-1.933-1.177-3.95-3.78-3.95zm13.27 5.392c-2.167 0-3.935-1.935-3.935-4.3s1.768-4.286 3.935-4.286c2.142 0 3.9 1.9 3.9 4.286s-1.768 4.3-3.9 4.3zm0-7.225c-1.245 0-2.515 1.15-2.515 2.914s1.27 2.914 2.515 2.914 2.5-1.15 2.5-2.914-1.245-2.914-2.5-2.914zm9.413-.906l-4.756 16.898c-.125.343-.324.514-.623.514-.373 0-.77-.294-.77-.7 0-.073 0-.146.024-.195l4.757-16.898c.124-.368.348-.54.646-.54.35 0 .748.318.748.734 0 .05 0 .1-.025.196zm3.088 16.972c-2.142 0-3.9-1.935-3.9-4.3 0-2.35 1.77-4.285 3.9-4.285 2.166 0 3.935 1.935 3.935 4.285 0 2.376-1.77 4.3-3.935 4.3zm0-7.2c-1.245 0-2.5 1.15-2.5 2.9 0 1.764 1.245 2.915 2.5 2.915 1.27 0 2.516-1.15 2.516-2.915 0-1.738-1.246-2.9-2.516-2.9z"/><path d="M1004.563 180.57c-8.25-2.5-15.75-3.25-20.75-2.5-.25 0-.75-.25-1-.5-.5-1-1.25-1.75-2-2.25-.25-.25-.5-.5-.25-1 1-4.75 1.25-11.75 0-19.5-2-13.75-7.25-24.5-11.75-24-4.5.75-6.5 12.5-4.5 26.25 1.25 8.25 3.5 15.25 6 19.5.25.25.25.5 0 .75-.25.5-.25.75-.5 1.25-.25.75-.25 1.5-.25 2s-.25.75-.75 1c-4.75 1.25-11.5 4.75-18 10-11 8.5-17.75 18.5-15 22s14-.5 25-9.25c3.5-2.75 6.75-5.75 9.25-8.5.5-.75 1.5-.25 1.5.75l-2 51.747h14.5l-2-58.747c0-.75.75-1.25 1.5-.75 4 2.75 9.75 5.25 16.25 7.25 13.5 4 25.25 3.5 26.75-.75 1.25-4.25-8.5-11-22-14.75z" opacity=".7"/></g><defs ><path id="C" d="M1019.65 904.466c-.727 0-1.387-.495-1.387-1.386v-9.176c0-2.574-2.146-4.72-4.72-4.72-2.54 0-4.687 2.146-4.687 4.72v9.143c0 .924-.693 1.452-1.452 1.452-.693 0-1.386-.495-1.386-1.42v-14.754c0-.957.692-1.386 1.386-1.386.66 0 1.254.363 1.42 1.09 1.287-1.023 2.904-1.65 4.72-1.65 4.093 0 7.525 3.4 7.525 7.525v9.143c0 .924-.66 1.42-1.42 1.42z"/><path id="D" d="M1031.035 904.466h-.56c-3.136 0-4.324-1.65-4.324-4.356v-10.363h-1c-.792 0-1.42-.628-1.42-1.387 0-.792.627-1.42 1.387-1.42h.99v-4.588c0-.924.693-1.386 1.42-1.386s1.386.462 1.386 1.386v4.588h2.112c.924 0 1.387.76 1.387 1.386 0 .792-.528 1.42-1.387 1.42h-2.112v10.66c0 .924.33 1.254 1.254 1.254h.825c.858 0 1.42.627 1.42 1.387 0 .792-.528 1.42-1.387 1.42z"/><path id="E" d="M978.467 916.747c-2.54 0-4.687 2.146-4.687 4.72v9.143c0 .924-.693 1.42-1.452 1.42-.693 0-1.386-.495-1.386-1.386v-14.72c0-.924.76-1.42 1.386-1.42.66 0 1.287.363 1.42 1.122 1.287-1.057 3.037-1.684 4.72-1.684.957 0 1.452.66 1.452 1.42 0 .726-.495 1.386-1.452 1.386z"/><path id="F" d="M995.456 924.7h-12.212c.462 3.103 2.442 5.083 5.347 5.083 1.485 0 2.97-.528 3.928-1.717.297-.33.627-.527 1.023-.527.726 0 1.485.66 1.485 1.452 0 .396-.1.692-.793 1.386-1.484 1.452-3.53 2.212-5.644 2.212-5.313 0-8.284-4.4-8.284-9.34 0-4.918 2.97-9.308 8.284-9.308 5.38 0 8.25 4.4 8.25 9.308 0 .727-.527 1.452-1.386 1.452zm-6.865-7.954c-3.103 0-4.918 2.277-5.347 5.116h10.693c-.462-3.17-2.442-5.116-5.347-5.116z"/><path id="G" d="M147.345 219.144c-10.62 0-15.66-9.9-15.66-33.39s5.04-33.39 15.66-33.39 15.66 9.9 15.66 33.39-5.04 33.39-15.66 33.39zm0-61.378c-5.94 0-9.18 6.66-9.18 27.99s3.24 27.988 9.18 27.988 9.18-6.66 9.18-27.988-3.24-27.99-9.18-27.99z"/><path id="H" d="M92.473 279.14c-2.592 0-4.752-2.4-4.752-5.09v-28.034c0-.864.72-1.344 1.392-1.344.625 0 1.344.48 1.344 1.344v28.034c0 3.072 3.408 1.297 3.408 3.457 0 .815-.576 1.632-1.392 1.632z"/><path id="I" d="M108.217 279.668c-7.73 0-12.05-6.337-12.05-13.586 0-7.2 4.32-13.537 12.05-13.537s12.05 6.337 12.05 13.537c0 7.25-4.32 13.586-12.05 13.586zm0-24.387c-5.665 0-9.313 4.56-9.313 10.8s3.648 10.85 9.313 10.85c5.712 0 9.313-4.608 9.313-10.85s-3.6-10.8-9.312-10.8z"/><path id="J" d="M82.12 709.895c.545-5.78 3.672-10.47 9.995-10.47 5.508 0 10.947 3.807 10.947 11.967 0 6.935-2.855 10.88-6.392 11.56v.136c5.508 1.836 7.207 7.003 7.207 12.24 0 10.063-5.847 14.55-11.967 14.55-6.527 0-10.946-5.235-11.015-12.374h4.487c.408 5.303 2.72 8.295 7.072 8.295 3.264 0 6.527-3.536 6.527-10.268 0-8.09-3.4-10.402-11.15-10.402v-4.08c7.343 0 10.335-1.768 10.335-9.383 0-5.848-2.312-8.16-5.71-8.16-4.216 0-5.712 3.536-5.848 6.936l-4.488-.544z"/><path id="K" d="M160.453 749.874c-8.023 0-11.83-7.48-11.83-25.226s3.808-25.225 11.83-25.225 11.83 7.48 11.83 25.225-3.81 25.226-11.83 25.226zm0-46.37c-4.487 0-6.936 5.03-6.936 21.146s2.448 21.146 6.936 21.146 6.935-5.03 6.935-21.146-2.447-21.146-6.935-21.146z"/><path id="L" d="M187.924 749.874c-8.023 0-11.83-7.48-11.83-25.226s3.808-25.225 11.83-25.225 11.83 7.48 11.83 25.225-3.807 25.226-11.83 25.226zm0-46.37c-4.488 0-6.936 5.03-6.936 21.146s2.447 21.146 6.936 21.146 6.936-5.03 6.936-21.146-2.448-21.146-6.936-21.146z"/><path id="M" d="M167.39 797.195c-.53 0-1.102-.38-1.102-1.063v-11.095a6.47 6.47 0 0 0-6.497-6.497c-3.57 0-6.497 2.888-6.497 6.497v11.095c0 .684-.57 1.063-1.063 1.063-.532 0-1.103-.38-1.103-1.063v-18.048c0-.684.57-1.063 1.103-1.063.494 0 1.063.38 1.063 1.063v1.216c1.7-1.86 3.95-2.926 6.497-2.926 4.71 0 8.663 3.914 8.663 8.663v11.095c0 .684-.57 1.063-1.064 1.063z"/><path id="N" d="M173.094 773.373a2.14 2.14 0 1 1 0-4.332 2.14 2.14 0 0 1 0 4.332zm0 23.822c-.532 0-1.103-.342-1.103-1.063v-18.048c0-.684.532-1.063 1.103-1.063.494 0 1.063.342 1.063 1.063v18.048c0 .684-.494 1.063-1.063 1.063z"/><path id="O" d="M184.987 797.195h-1.178c-3 0-4.483-1.48-4.483-4.445v-13.564h-1.937c-.684 0-1.063-.57-1.063-1.102 0-.494.38-1.063 1.063-1.063h1.938v-5.813c0-.684.57-1.063 1.103-1.063s1.063.38 1.063 1.063v5.813h3.495c.685 0 1.064.57 1.064 1.063 0 .532-.38 1.102-1.064 1.102h-3.495v13.564c0 1.86.532 2.28 2.317 2.28h1.178c.685 0 1.064.57 1.064 1.103 0 .493-.38 1.063-1.064 1.063z"/><path id="P" d="M256.88 788.2h-15.768c.342 4.332 3.153 7.485 7.295 7.485 2.052 0 4.483-.912 5.585-2.622.267-.418.57-.53.912-.53.57 0 1.178.455 1.178 1.025 0 .342 0 .418-.722 1.254-1.748 2.052-4.293 3.04-6.953 3.04-6.117 0-9.536-5.015-9.536-10.752 0-5.7 3.42-10.715 9.536-10.715s9.537 5.054 9.537 10.715c0 .57-.532 1.102-1.064 1.102zm-8.473-9.65c-4.56 0-6.953 3.495-7.295 7.485h14.628c-.342-4.332-3.153-7.485-7.333-7.485z"/><path id="Q" d="M304.953 778.882c-3.57 0-6.497 2.888-6.497 6.497v10.753c0 .684-.57 1.063-1.063 1.063-.532 0-1.103-.38-1.103-1.063v-18.048c0-.684.57-1.063 1.103-1.063.494 0 1.063.38 1.063 1.063v1.558c1.7-1.86 3.95-2.925 6.497-2.925.684 0 1.102.57 1.102 1.063 0 .532-.418 1.102-1.102 1.102z"/><path id="R" d="M119.738 830.554c-1.672 1.86-3.99 2.887-6.8 2.887-6.117 0-9.536-5.015-9.536-10.752 0-5.7 3.42-10.715 9.536-10.715 2.812 0 5.13 1.026 6.8 2.888.23.23.305.494.305.722 0 .57-.532 1.14-1.103 1.14-.266 0-.53-.114-.798-.38-1.254-1.406-3-2.204-5.205-2.204-4.483 0-7.37 3.61-7.37 8.55s2.888 8.587 7.37 8.587c2.204 0 3.95-.836 5.205-2.204.267-.266.532-.38.798-.38a1.13 1.13 0 0 1 1.103 1.102c0 .267-.076.494-.305.76z"/><path id="S" d="M104.714 1045.51c-.633 0-1.267-.367-1.4-1.1-1.334 1.034-2.97 1.668-4.804 1.668-4.136 0-7.604-3.436-7.604-7.605v-9.24a1.37 1.37 0 0 1 1.4-1.435c.768 0 1.468.5 1.468 1.4v9.272c0 2.602 2.168 4.77 4.736 4.77 2.603 0 4.77-2.17 4.77-4.77v-9.24c0-1.034.667-1.468 1.4-1.468.768 0 1.435.5 1.435 1.435v14.9c0 .934-.667 1.4-1.4 1.4z"/><path id="T" d="M613.724 1046.357c-1.2 0-3.22-.42-3.92-1.58-.08-.12-.08-.22-.08-.3 0-.32.28-.602.58-.602.12 0 .32.102.44.28.72.88 2 1.06 2.98 1.06 1.94 0 2.92-.64 2.92-1.94 0-3.02-6.562-1.42-6.562-5.422 0-2.02 2.02-2.8 3.84-2.8 1.04 0 2.64.36 3.44 1.16.12.12.18.26.18.38a.65.65 0 0 1-.62.6c-.12 0-.26-.04-.38-.16-.62-.6-1.74-.84-2.62-.84-1.76 0-2.7.682-2.7 1.66 0 2.8 6.562 1.32 6.562 5.422 0 2.28-2 3.08-4.06 3.08z"/><path id="U" d="M624.445 1046.318c-3.22 0-5.02-2.64-5.02-5.662 0-3 1.8-5.64 5.02-5.64s5.02 2.64 5.02 5.64c0 3.02-1.8 5.662-5.02 5.662zm0-10.162c-2.36 0-3.88 1.9-3.88 4.5s1.52 4.52 3.88 4.52c2.38 0 3.88-1.92 3.88-4.52s-1.5-4.5-3.88-4.5z"/><path id="V" d="M648.184 1036.336a3.42 3.42 0 0 0-3.421 3.42v5.662c0 .36-.3.56-.56.56-.28 0-.58-.2-.58-.56v-9.502c0-.36.3-.56.58-.56.26 0 .56.2.56.56v.82c.9-.98 2.08-1.54 3.42-1.54.36 0 .58.3.58.56a.58.58 0 0 1-.58.58z"/><path id="W" d="M658.365 1044.797c-.88.98-2.1 1.52-3.58 1.52-3.22 0-5.02-2.64-5.02-5.662 0-3 1.8-5.64 5.02-5.64 1.48 0 2.7.54 3.58 1.52.12.12.16.262.16.38 0 .3-.28.6-.58.6-.14 0-.28-.06-.42-.2-.66-.74-1.58-1.16-2.74-1.16-2.36 0-3.88 1.9-3.88 4.5s1.52 4.52 3.88 4.52c1.16 0 2.08-.44 2.74-1.16.14-.14.28-.2.42-.2.3 0 .58.26.58.58 0 .14-.04.26-.16.398z"/><path id="X" d="M669.946 1041.236h-8.302c.18 2.28 1.66 3.94 3.84 3.94 1.08 0 2.36-.48 2.94-1.38.14-.22.3-.28.48-.28.3 0 .62.24.62.54 0 .18 0 .22-.38.658-.92 1.082-2.26 1.602-3.66 1.602-3.22 0-5.02-2.64-5.02-5.662 0-3 1.8-5.64 5.02-5.64s5.02 2.66 5.02 5.64c0 .3-.28.58-.56.58zm-4.46-5.08c-2.4 0-3.66 1.84-3.84 3.94h7.7c-.18-2.28-1.66-3.94-3.86-3.94z"/><path id="Y" d="M707.703 1046.098c-1.08 0-1.98-1-1.98-2.12v-11.684c0-.36.3-.56.58-.56.26 0 .56.2.56.56v11.684c0 1.28 1.42.54 1.42 1.44 0 .34-.24.68-.58.68z"/><path id="Z" d="M744.923 1045.98h-.02c-.66 0-1.6-.36-1.98-1.56-.84 1.18-2.14 1.9-3.88 1.9-3.26 0-5.02-2.682-5.02-5.662 0-3.02 1.8-5.64 5.02-5.64 1.74 0 3.04.72 3.88 1.88v-.98c0-.32.26-.56.58-.56.28 0 .56.2.56.56v8.063c0 1.28 1.44.48 1.44 1.44a.55.55 0 0 1-.58.561zm-5.88-9.822c-2.36 0-3.88 1.9-3.88 4.5s1.52 4.52 3.88 4.52c2.38 0 3.88-1.92 3.88-4.52s-1.5-4.5-3.88-4.5z"/><path id="a" d="M773.48 1033.436c-.64 0-1.14-.5-1.14-1.14s.5-1.14 1.14-1.14 1.14.5 1.14 1.14-.5 1.14-1.14 1.14zm0 12.543c-.28 0-.58-.18-.58-.56v-9.502c0-.36.28-.56.58-.56.26 0 .56.18.56.56v9.502c0 .36-.26.56-.56.56z"/><path id="b" d="M785.442 1045.98c-.28 0-.58-.2-.58-.56v-5.842c0-1.9-1.52-3.42-3.42-3.42a3.42 3.42 0 0 0-3.421 3.42v5.842c0 .36-.3.56-.56.56-.28 0-.58-.2-.58-.56v-9.502c0-.36.3-.56.58-.56.26 0 .56.2.56.56v.64c.9-.98 2.08-1.54 3.42-1.54a4.6 4.6 0 0 1 4.561 4.561v5.842c0 .36-.3.56-.56.56z"/><path id="c" d="M797.683 1045.98c-.28 0-.58-.2-.58-.56v-1c-.84 1.18-2.14 1.9-3.88 1.9-3.22 0-5.02-2.64-5.02-5.662 0-3 1.8-5.64 5.02-5.64 1.74 0 3.04.72 3.88 1.88v-4.602c0-.36.3-.56.58-.56.26 0 .56.2.56.56v13.123c0 .36-.3.56-.56.56zm-4.46-9.822c-2.36 0-3.88 1.9-3.88 4.5s1.52 4.52 3.88 4.52c2.38 0 3.88-1.92 3.88-4.52s-1.5-4.5-3.88-4.5z"/><path id="d" d="M127.898 66.68h-22.2c.84 5.64 4.44 9.24 9.72 9.24 2.7 0 5.4-.96 7.14-3.12.54-.6 1.14-.96 1.86-.96 1.32 0 2.7 1.2 2.7 2.64 0 .72-.18 1.26-1.44 2.52-2.7 2.64-6.42 4.02-10.26 4.02-9.66 0-15.06-7.98-15.06-16.98 0-8.94 5.4-16.92 15.06-16.92 9.78 0 15 7.98 15 16.92 0 1.32-.96 2.64-2.52 2.64zm-12.48-14.46c-5.64 0-8.94 4.14-9.72 9.3h19.44c-.84-5.76-4.44-9.3-9.72-9.3z"/><path id="e" d="M165.997 61.52h-12.84v15.9c0 1.56-1.2 2.58-2.52 2.58-1.44 0-2.64-.96-2.64-2.52V39.862c0-1.08.72-2.58 2.52-2.58h15.54c5.28 0 12.06 4.14 12.06 12.06 0 6.78-5.4 12.18-12.12 12.18zm0-19.14h-12.84v14.04h12.78a6.99 6.99 0 0 0 7.02-7.02c0-3.9-3.12-7.02-6.96-7.02z"/><path id="f" d="M194.677 81.02c-9.66 0-15.06-7.92-15.06-16.98 0-9 5.4-16.92 15.06-16.92s15.06 7.92 15.06 16.92c0 9.06-5.4 16.98-15.06 16.98zm0-28.8c-6 0-9.9 4.68-9.9 11.82 0 7.2 3.9 11.88 9.9 11.88 6.06 0 9.9-4.68 9.9-11.88 0-7.14-3.84-11.82-9.9-11.82z"/><path id="g" d="M224.616 80h-1.02c-5.7 0-7.86-3-7.86-7.92v-18.84h-1.8c-1.44 0-2.58-1.14-2.58-2.52 0-1.44 1.14-2.58 2.52-2.58h1.8v-8.34c0-1.68 1.26-2.52 2.58-2.52s2.52.84 2.52 2.52v8.34h3.84c1.68 0 2.52 1.38 2.52 2.52 0 1.44-.96 2.58-2.52 2.58h-3.84v19.38c0 1.68.6 2.28 2.28 2.28h1.5c1.56 0 2.58 1.14 2.58 2.52 0 1.44-.96 2.58-2.52 2.58z"/><path id="h" d="M287.675 80c-1.32 0-2.52-.9-2.52-2.52V60.8c0-4.68-3.9-8.58-8.58-8.58-4.62 0-8.52 3.9-8.52 8.58v16.62c0 1.68-1.26 2.64-2.64 2.64-1.26 0-2.52-.9-2.52-2.58v-26.82c0-1.74 1.26-2.52 2.52-2.52 1.2 0 2.28.66 2.58 1.98 2.34-1.86 5.28-3 8.58-3 7.44 0 13.68 6.18 13.68 13.68v16.62c0 1.68-1.2 2.58-2.58 2.58z"/><path id="i" d="M316.655 43.282a4.3 4.3 0 1 1 0-8.64 4.3 4.3 0 1 1 0 8.64zm0 36.72c-1.32 0-2.64-.9-2.64-2.52v-26.76c0-1.68 1.32-2.58 2.64-2.58 1.26 0 2.52.9 2.52 2.58v26.76c0 1.68-1.26 2.52-2.52 2.52z"/></defs></svg>