<svg xmlns="http://www.w3.org/2000/svg" xmlns:xlink="http://www.w3.org/1999/xlink" viewBox="0 0 1080 1080"><linearGradient id="A" gradientUnits="userSpaceOnUse" x1="11.716" y1="11.716" x2="1068.284" y2="1068.284"><stop offset="0" stop-color="#dc2424"/><stop offset=".082" stop-color="#cc2931"/><stop offset=".393" stop-color="#953c5f"/><stop offset=".661" stop-color="#6c4a81"/><stop offset=".872" stop-color="#535395"/><stop offset="1" stop-color="#4a569d"/></linearGradient><path d="M1040 1080H40c-22.09 0-40-17.91-40-40V40C0 17.91 17.91 0 40 0h1000c22.09 0 40 17.91 40 40v1000c0 22.09-17.91 40-40 40z" fill="url(#A)"/><path d="M44.228 1046.045c-3.568 0-5.47-1.97-5.503-2.002 0 .935-.7 1.4-1.468 1.4-.7 0-1.4-.467-1.4-1.4v-20.88a1.35 1.35 0 0 1 1.401-1.434c.767 0 1.468.467 1.468 1.4v6.238c1.334-1.368 3.168-2.17 5.503-2.17 5.37 0 8.373 4.403 8.373 9.406 0 5.04-3.002 9.442-8.373 9.442zm0-16c-3.335 0-5.503 2.602-5.503 6.57 0 4.003 2.168 6.604 5.503 6.604s5.504-2.602 5.504-6.604c0-3.968-2.168-6.57-5.504-6.57zm25.555 8.037h-12.34c.467 3.136 2.468 5.137 5.403 5.137 1.5 0 3.002-.533 3.97-1.734.3-.333.634-.533 1.034-.533.734 0 1.5.667 1.5 1.468 0 .4-.1.7-.8 1.4-1.5 1.468-3.57 2.235-5.704 2.235-5.37 0-8.372-4.437-8.372-9.44 0-4.97 3.002-9.406 8.372-9.406 5.437 0 8.34 4.437 8.34 9.406 0 .734-.534 1.467-1.4 1.467zm-6.938-8.038c-3.136 0-4.97 2.3-5.403 5.17H68.25c-.467-3.202-2.468-5.17-5.404-5.17zm27.055 15.444c-1.834 0-2.668-1.3-2.97-1.9-1.334 1.468-3.27 2.47-5.87 2.47-5.438 0-8.372-4.47-8.372-9.44s3.002-9.406 8.372-9.406c2.335 0 4.203.834 5.504 2.202v-.134c0-.367.133-1.5 1.4-1.5.7 0 1.468.367 1.468 1.4v12.875c0 .434.3.6.467.6.935 0 1.435.667 1.435 1.434a1.37 1.37 0 0 1-1.435 1.4zm-8.84-15.444c-3.336 0-5.504 2.602-5.504 6.57 0 4.003 2.168 6.604 5.504 6.604 3.37 0 5.504-2.602 5.504-6.604 0-3.968-2.135-6.57-5.504-6.57zm25.554 15.476c-.633 0-1.267-.367-1.4-1.1-1.334 1.034-2.97 1.668-4.804 1.668-4.136 0-7.604-3.436-7.604-7.605v-9.24a1.37 1.37 0 0 1 1.4-1.435c.768 0 1.468.5 1.468 1.4v9.272c0 2.602 2.168 4.77 4.736 4.77 2.603 0 4.77-2.17 4.77-4.77v-9.24c0-1.034.667-1.468 1.4-1.468.768 0 1.435.5 1.435 1.435v14.9c-.001.934-.668 1.4-1.402 1.4zm10.444-.032h-.567c-3.17 0-4.37-1.668-4.37-4.403V1030.6h-1c-.8 0-1.435-.634-1.435-1.4 0-.8.634-1.435 1.4-1.435h1v-4.637c0-.934.7-1.4 1.435-1.4s1.4.467 1.4 1.4v4.637h2.135c.934 0 1.4.768 1.4 1.4 0 .8-.533 1.434-1.4 1.434h-2.135v10.774c0 .934.333 1.268 1.268 1.268h.833c.868 0 1.435.634 1.435 1.4-.001.8-.534 1.435-1.4 1.435zm4.604-20.415a2.401 2.401 0 1 1 0-4.802 2.401 2.401 0 1 1 0 4.802zm0 20.415c-.733 0-1.467-.5-1.467-1.4V1029.2c0-.935.733-1.435 1.467-1.435a1.37 1.37 0 0 1 1.401 1.435v14.876c0 .935-.7 1.402-1.4 1.402zm10.376-14.878h-1.5v13.442c0 .935-.7 1.4-1.468 1.4-.7 0-1.4-.467-1.4-1.4V1030.6h-1.37c-.9 0-1.4-.667-1.4-1.4 0-.768.5-1.435 1.4-1.435h1.367v-2.27c0-2.135 1.77-3.77 3.836-3.77.968 0 1.468.667 1.468 1.434 0 .7-.5 1.4-1.468 1.4-.566 0-.967.434-.967.9v2.302h1.5c.967 0 1.468.667 1.468 1.435 0 .734-.5 1.4-1.467 1.4zm16.644 14.9c-.633 0-1.267-.367-1.4-1.1-1.334 1.034-2.97 1.668-4.804 1.668-4.136 0-7.604-3.436-7.604-7.605v-9.24a1.37 1.37 0 0 1 1.4-1.435c.768 0 1.468.5 1.468 1.4v9.272c0 2.602 2.168 4.77 4.736 4.77 2.603 0 4.77-2.17 4.77-4.77v-9.24c0-1.034.667-1.468 1.4-1.468.768 0 1.435.5 1.435 1.435v14.9c-.001.934-.667 1.4-1.402 1.4zm7.943.034c-1.802 0-3.336-1.534-3.336-3.402v-18.98c0-.967.7-1.434 1.435-1.434s1.435.467 1.435 1.4v19.013c0 .4.3.567.467.567.934 0 1.435.667 1.435 1.435-.002.733-.503 1.4-1.436 1.4zm15.37-.066v-1.264c1.886-.237 2.046-.438 2.046-3.157v-6.7c0-2.8-1.248-4.017-3.064-4.017-1.237 0-2.345.6-3.47 1.493v9.476c0 2.527.187 2.658 2.06 2.896v1.264h-8.968v-1.264c2.254-.33 2.5-.4 2.5-3v-8.2c0-2.446-.303-2.565-2.185-2.922v-1.184c2.173-.292 4.63-.807 6.653-1.533l-.052 2.95 2.6-1.745c1.16-.713 2-1.086 3.16-1.086 3.194 0 5.2 2.338 5.2 6.3v7.5c0 2.54.237 2.657 2.277 2.92v1.264h-8.74zm23.9-3.703c-2.458 3.427-5.488 4.178-7.014 4.178-5.142 0-8.124-3.936-8.124-8.594 0-2.745 1.183-5.396 2.832-7.062 1.74-1.8 3.945-2.814 6.082-2.814 3.73 0 6.396 3.126 6.37 6.347-.014.715-.08 1.277-.612 1.4-.767.184-6.17.5-10.318.647.062 4.587 2.717 6.74 5.556 6.74 1.572 0 3.104-.597 4.543-1.866l.685 1.014zm-7.07-12.7c-1.667 0-3.167 1.807-3.516 4.963l5.486-.118c.6-.026.848-.146.848-.792.04-2.022-1.037-4.053-2.818-4.053zm34.284.145c-1.943.343-2.248.624-3.105 2.765-1.33 3.462-3.102 8.53-4.934 13.94h-1.512l-4.65-11.46-4.55 11.46h-1.472l-4.685-14.192c-.687-1.985-.94-2.274-2.855-2.512v-1.25h9.397v1.25c-2.325.345-2.535.672-2.058 2.133l2.52 8.214c1.507-3.68 2.988-7.62 4.327-11.424h1.456c1.4 3.76 2.986 7.702 4.573 11.568.742-2.107 2.062-5.964 2.557-8.108.412-1.674-.008-2.078-2.753-2.383v-1.25h7.742v1.25zm9.4 3.746c-.92-2.606-2.155-3.984-4.2-3.984-1.206 0-2.225.86-2.225 2.266 0 1.497 1.046 2.264 3.16 3.216 3.278 1.496 5.3 2.787 5.3 5.736 0 3.85-3.6 5.764-6.945 5.764-2.06 0-4.088-.737-4.92-1.16l-.662-4.892 1.252-.224c.8 2.5 2.33 4.75 4.976 4.75 1.505 0 2.438-.952 2.438-2.28 0-1.423-.76-2.333-3.092-3.467-2.67-1.295-5.107-2.64-5.107-5.775 0-3.046 2.533-5.42 6.565-5.42 1.818 0 3.242.396 4.112.567l.62 4.577-1.25.328z" opacity=".7" fill="#fff"/><g fill="#fff"><path d="M605.604 1046.357c-1.2 0-3.22-.42-3.92-1.58-.08-.12-.08-.22-.08-.3 0-.32.28-.602.58-.602.12 0 .32.102.44.28.72.88 2 1.06 2.98 1.06 1.94 0 2.92-.64 2.92-1.94 0-3.02-6.562-1.42-6.562-5.422 0-2.02 2.02-2.8 3.84-2.8 1.04 0 2.64.36 3.44 1.16.12.12.18.26.18.38a.65.65 0 0 1-.62.6c-.12 0-.26-.04-.38-.16-.62-.6-1.74-.84-2.62-.84-1.76 0-2.7.682-2.7 1.66 0 2.8 6.562 1.32 6.562 5.422.001 2.282-2 3.08-4.06 3.08z"/><use xlink:href="#C"/><path d="M632.105 1045.98c-.28 0-.58-.2-.58-.56v-.64c-.84.98-2.06 1.54-3.42 1.54-2.48 0-4.56-2.08-4.56-4.56v-5.842c0-.36.3-.56.58-.56.26 0 .56.2.56.56v5.842c0 1.9 1.52 3.42 3.42 3.42s3.42-1.52 3.42-3.42v-5.842c0-.36.3-.56.58-.56a.56.56 0 0 1 .561.561v9.502a.56.56 0 0 1-.561.562z"/><use xlink:href="#D"/><path d="M650.245 1044.797c-.88.98-2.1 1.52-3.58 1.52-3.22 0-5.02-2.64-5.02-5.662 0-3 1.8-5.64 5.02-5.64 1.48 0 2.7.54 3.58 1.52.12.12.16.262.16.38 0 .3-.28.6-.58.6-.14 0-.28-.06-.42-.2-.66-.74-1.58-1.16-2.74-1.16-2.36 0-3.88 1.9-3.88 4.5s1.52 4.52 3.88 4.52c1.16 0 2.08-.44 2.74-1.16.14-.14.28-.2.42-.2.3 0 .58.26.58.58a.57.57 0 0 1-.16.398z"/><use xlink:href="#E"/><path d="M665.804 1039.416c-.64 0-1.16-.5-1.16-1.14s.52-1.14 1.16-1.14c.62 0 1.12.5 1.12 1.14s-.5 1.14-1.12 1.14zm0 6.563c-.64 0-1.16-.5-1.16-1.14s.52-1.14 1.16-1.14c.62 0 1.12.5 1.12 1.14s-.5 1.14-1.12 1.14zm11.14.001h-2.28c-.36 0-.58-.3-.58-.56a.58.58 0 0 1 .58-.58h.56v-11.982h-.56c-.36 0-.58-.28-.58-.56s.22-.56.58-.56h2.28c.36 0 .56.28.56.56s-.2.56-.56.56h-.58v11.982h.58c.36 0 .56.3.56.58 0 .26-.2.56-.56.56z"/><use xlink:href="#F"/><path d="M695.345 1045.98h-.62c-1.58 0-2.36-.78-2.36-2.342v-7.14h-1.02c-.36 0-.56-.3-.56-.58 0-.26.2-.56.56-.56h1.02v-3.06c0-.36.3-.56.58-.56s.56.2.56.56v3.06h1.84c.36 0 .56.3.56.56 0 .28-.2.58-.56.58h-1.84v7.14c0 .98.28 1.2 1.22 1.2h.62c.36 0 .56.3.56.58-.002.26-.202.56-.56.56z"/><use xlink:href="#E" x="44.92"/><use xlink:href="#D" x="74.181"/><use xlink:href="#F" x="36.379"/><use xlink:href="#G"/><path d="M744.563 1045.98h-.62c-1.58 0-2.36-.78-2.36-2.342v-7.14h-1.02c-.36 0-.56-.3-.56-.58 0-.26.2-.56.56-.56h1.02v-3.06c0-.36.3-.56.58-.56s.56.2.56.56v3.06h1.84c.36 0 .56.3.56.56 0 .28-.2.58-.56.58h-1.84v7.14c0 .98.28 1.2 1.22 1.2h.62c.36 0 .56.3.56.58a.56.56 0 0 1-.561.561zm2.96-12.544c-.64 0-1.14-.5-1.14-1.14s.5-1.14 1.14-1.14 1.14.5 1.14 1.14-.5 1.14-1.14 1.14zm0 12.543c-.28 0-.58-.18-.58-.56v-9.502c0-.36.28-.56.58-.56.26 0 .56.18.56.56v9.502c0 .36-.26.56-.56.56z"/><use xlink:href="#C" x="139.159"/><use xlink:href="#H"/><use xlink:href="#G" x="46.599"/><path d="M789.482 1046.098c-1.08 0-1.98-1-1.98-2.12v-11.684c0-.36.3-.56.58-.56a.56.56 0 0 1 .561.561v11.684c0 1.28 1.42.54 1.42 1.44-.001.34-.24.68-.58.68zm16.743-.1c-.16 0-.32-.08-.42-.24l-4.302-5.94h-3.58v5.602a.56.56 0 0 1-.561.561c-.28 0-.58-.2-.58-.56v-13.123c0-.3.28-.56.58-.56h5.4c2.26 0 4.06 1.8 4.06 4.02 0 2.2-1.72 3.94-3.9 4.06l3.78 5.242c.1.12.14.24.14.36 0 .3-.3.58-.62.58zm-3.442-13.143h-4.86v5.82h4.84a2.91 2.91 0 0 0 2.921-2.92c0-1.82-1.54-2.9-2.902-2.9z"/><use xlink:href="#E" x="156.737"/><use xlink:href="#H" x="58.619"/><path d="M842.304 1041.236h-8.302c.18 2.28 1.66 3.94 3.84 3.94 1.08 0 2.36-.48 2.94-1.38.14-.22.3-.28.48-.28.3 0 .62.24.62.54 0 .18 0 .22-.38.658-.92 1.082-2.26 1.602-3.66 1.602-3.22 0-5.02-2.64-5.02-5.662 0-3 1.8-5.64 5.02-5.64s5.02 2.66 5.02 5.64c0 .3-.28.58-.56.58zm-4.46-5.08c-2.4 0-3.66 1.84-3.84 3.94h7.7c-.18-2.28-1.66-3.94-3.86-3.94zm20.56-.06l-3.26 9.402c-.14.38-.32.48-.58.48-.34 0-.44-.12-.56-.48l-2.62-7.803-2.62 7.803c-.14.38-.32.48-.58.48s-.46-.16-.56-.48l-3.24-9.402a.86.86 0 0 1-.04-.221c0-.318.32-.52.58-.52a.52.52 0 0 1 .521.381l2.74 7.922 2.62-7.822c.12-.38.24-.48.58-.48.24 0 .44.08.56.48l2.66 7.822 2.7-7.922c.1-.28.3-.38.52-.38.3 0 .62.2.62.54 0 .08-.02.14-.04.2z"/><use xlink:href="#G" x="132.299"/><path d="M878.222 1046.318c-1.74 0-3.04-.72-3.88-1.9v1a.56.56 0 0 1-.561.561c-.28 0-.58-.2-.58-.56v-13.123c0-.36.3-.56.58-.56a.56.56 0 0 1 .561.561v4.602c.84-1.16 2.14-1.88 3.88-1.88 3.22 0 5.02 2.64 5.02 5.64-.001 3.02-1.8 5.66-5.02 5.66zm0-10.162c-2.38 0-3.88 1.9-3.88 4.5s1.5 4.52 3.88 4.52 3.88-1.92 3.88-4.52-1.5-4.5-3.88-4.5zm9.378 9.942c-1.08 0-1.98-1-1.98-2.12v-11.684c0-.36.3-.56.58-.56a.56.56 0 0 1 .561.561v11.684c0 1.28 1.42.54 1.42 1.44-.001.34-.242.68-.58.68z"/><use xlink:href="#E" x="237.196"/><path d="M916.322 1045.98h-8.882a.61.61 0 0 1-.58-.561v-13.123c0-.3.28-.56.58-.56h8.882a.55.55 0 0 1 .58.561.55.55 0 0 1-.58.561H908v4.92h6.1a.55.55 0 0 1 .58.561c0 .28-.2.58-.56.58H908v5.922h8.32c.38 0 .58.3.58.58a.55.55 0 0 1-.58.56z"/><use xlink:href="#F" x="239.375"/><use xlink:href="#E" x="278.256"/><use xlink:href="#D" x="307.516"/><path d="M954.18 1050.54c-1.7 0-4.102-.64-4.102-1.36 0-.32.26-.64.58-.64.22 0 .68.34 1.06.48.52.18 1.34.38 2.46.38 2.56 0 3.88-1.26 3.88-3.72v-1.4c-.88 1.06-2.14 1.7-3.88 1.7-3.16 0-5.02-2.24-5.02-5.322 0-3 1.8-5.64 5.02-5.64 1.74 0 3.04.72 3.88 1.88v-.96c0-.36.3-.56.58-.56.26 0 .56.2.56.56v9.742c-.001 3.182-1.9 4.862-5.02 4.862zm0-14.383c-2.36 0-3.88 1.9-3.88 4.5 0 2.582 1.42 4.182 3.88 4.182s3.88-1.6 3.88-4.182c0-2.6-1.5-4.5-3.88-4.5z"/><use xlink:href="#I"/><path d="M987.86 1045.98c-.2 0-.42-.12-.52-.34l-1.28-3.082h-7.2l-1.28 3.082c-.08.22-.32.34-.5.34-.3 0-.58-.22-.58-.54 0-.1 0-.16.04-.26l5.4-13.104c.1-.238.34-.38.58-.38.2 0 .38.12.48.38l5.4 13.104c.04.1.04.16.04.26.001.32-.28.54-.58.54zm-5.4-12.184l-3.14 7.623h6.3l-3.16-7.623zm12.28 16.744c-1.7 0-4.102-.64-4.102-1.36 0-.32.26-.64.58-.64.22 0 .68.34 1.06.48.52.18 1.34.38 2.46.38 2.56 0 3.88-1.26 3.88-3.72v-1.4c-.88 1.06-2.14 1.7-3.88 1.7-3.16 0-5.02-2.24-5.02-5.322 0-3 1.8-5.64 5.02-5.64 1.74 0 3.04.72 3.88 1.88v-.96c0-.36.3-.56.58-.56.26 0 .56.2.56.56v9.742c0 3.182-1.9 4.862-5.02 4.862zm0-14.383c-2.36 0-3.88 1.9-3.88 4.5 0 2.582 1.42 4.182 3.88 4.182s3.88-1.6 3.88-4.182c0-2.6-1.5-4.5-3.88-4.5z"/><use xlink:href="#E" x="349.794"/><use xlink:href="#H" x="251.677"/><path d="M1034.48 1044.797c-.88.98-2.1 1.52-3.58 1.52-3.22 0-5.02-2.64-5.02-5.662 0-3 1.8-5.64 5.02-5.64 1.48 0 2.7.54 3.58 1.52.12.12.16.262.16.38 0 .3-.28.6-.58.6-.14 0-.28-.06-.42-.2-.66-.74-1.58-1.16-2.74-1.16-2.36 0-3.88 1.9-3.88 4.5s1.52 4.52 3.88 4.52c1.16 0 2.08-.44 2.74-1.16.14-.14.28-.2.42-.2.3 0 .58.26.58.58a.56.56 0 0 1-.16.398z"/><use xlink:href="#I" x="75"/></g><g fill="none" stroke="#fff" stroke-width="2" stroke-miterlimit="10"><path d="M37.3 995.72h869.536V156.182c0-16.57-13.43-30-30-30H37.3V995.72z" stroke-dasharray="2,6"/><path d="M122.327 995.72h784.5v-713c0-16.57-13.43-30-30-30h-754.5v743z"/></g><path d="M906.837 995.72H858.02v-38.816a10 10 0 0 1 10-10h38.816v48.816z" fill="#fff" fill-opacity=".3" stroke="#fff" stroke-width="2" stroke-miterlimit="10"/><path d="M995.75 154.365l-1.754-25.862h-3.916l-1.295 19.1h-2.62v-6.853h-21.537v13.95c-8.133 1.176-15.998 3.175-23.495 5.94v42.065h17.9c0-5.594 5.594-8.95 5.594-15.663s-4.475-10.07-4.475-15.663h-3.357l6.713-8.95 6.713 8.95h-3.357c0 5.594 4.476 8.95 4.476 15.663s-5.595 10.07-5.594 15.663h11.188c0-5.594 5.594-8.95 5.594-15.663s-4.475-10.07-4.475-15.663h-3.357l6.713-8.95 6.713 8.95h-3.356c0 5.594 4.476 8.95 4.476 15.663s-5.595 10.07-5.595 15.663h11.2c0-5.594 5.594-8.95 5.594-15.663s-4.476-10.07-4.476-15.663h-3.357l6.713-8.95 6.713 8.95h-3.357c0 5.594 4.476 8.95 4.476 15.663s-5.595 10.07-5.595 15.664h20.14V160.63c-8.245-3.044-16.935-5.16-25.937-6.265zm-21.823-28.3h9.8c1.696 0 6.853 0 6.853.98h2.937c0-3.916-5.428-3.916-9.8-3.916h-9.8c-1.785 0-5.34-.6-6.363-.98.17.064 1.468 3.916 6.363 3.916z" opacity=".4" fill="#fff"/><g fill="#fff"><path d="M75.9 155.8c-.16-1.08-.41-1.95-.75-2.61s-.73-1.17-1.17-1.53-.91-.6-1.4-.72-.95-.18-1.35-.18c-1.92 0-3.45 1.38-4.6 4.14s-1.73 7.16-1.77 13.2c.88-.92 1.9-1.7 3.03-2.34s2.35-.96 3.63-.96c1.2 0 2.36.23 3.48.7s2.11 1.22 2.97 2.28 1.55 2.44 2.07 4.14.78 3.77.78 6.2c0 4.24-.83 7.56-2.5 9.96s-3.93 3.6-6.8 3.6c-1.88 0-3.51-.3-4.89-.93s-2.53-1.68-3.45-3.18-1.6-3.53-2.07-6.1-.7-5.8-.7-9.72c0-4.36.25-8.1.75-11.19s1.22-5.64 2.16-7.62 2.08-3.44 3.42-4.38 2.87-1.4 4.6-1.4c1.4 0 2.6.2 3.57.6s1.8.97 2.46 1.7 1.19 1.63 1.6 2.67.7 2.18.9 3.42l-3.958.24zm-11.16 20.4c0 2.2.14 4.05.42 5.55s.68 2.72 1.2 3.66 1.16 1.62 1.92 2.04 1.62.63 2.58.63c.84 0 1.61-.17 2.3-.5s1.3-.9 1.77-1.68.86-1.81 1.14-3.1.42-2.86.42-4.74c0-1.92-.15-3.51-.45-4.77s-.7-2.25-1.2-2.97-1.08-1.22-1.74-1.5-1.33-.42-2.01-.42c-1.4 0-2.63.38-3.69 1.14s-1.95 1.62-2.67 2.58v4.08z"/><use xlink:href="#J"/><use xlink:href="#K"/><use xlink:href="#J" x="35.16"/><use xlink:href="#L"/><use xlink:href="#L" x="24.24"/><use xlink:href="#K" x="83.636"/><use xlink:href="#L" x="59.398"/><use xlink:href="#L" x="83.637"/><path d="M272.572 169.42c0 3.92-.2 7.28-.63 10.08s-1.06 5.1-1.92 6.9-1.95 3.13-3.27 3.99-2.86 1.3-4.62 1.3-3.3-.43-4.62-1.3-2.4-2.19-3.27-3.99-1.5-4.1-1.92-6.9-.63-6.16-.63-10.08.2-7.28.63-10.08 1.06-5.1 1.92-6.9 1.95-3.13 3.27-4 2.86-1.3 4.62-1.3 3.3.43 4.62 1.3 2.41 2.19 3.27 4 1.5 4.1 1.92 6.9.63 6.16.63 10.08zm-4.32 0c0-3.56-.13-6.53-.39-8.9s-.65-4.3-1.17-5.73-1.16-2.47-1.92-3.1-1.64-.93-2.64-.93-1.88.31-2.64.93-1.4 1.65-1.92 3.1-.9 3.35-1.17 5.73-.4 5.35-.4 8.9.13 6.53.4 8.9.65 4.3 1.17 5.73 1.16 2.47 1.92 3.1a4.05 4.05 0 0 0 2.64.93c1 0 1.88-.3 2.64-.93s1.4-1.65 1.92-3.1.9-3.35 1.17-5.73.39-5.35.39-8.9z"/><path d="M299.146 191.08c-.392 0-.812-.28-.812-.784v-1.4c-1.176 1.65-2.996 2.66-5.432 2.66-4.51 0-7.028-3.695-7.028-7.924 0-4.2 2.52-7.896 7.028-7.896 2.436 0 4.256 1.008 5.432 2.632v-6.44c0-.504.42-.783.812-.783.364 0 .784.28.784.783v18.368c.001.504-.42.784-.784.784zm-6.243-13.748c-3.305 0-5.433 2.66-5.433 6.3s2.128 6.328 5.433 6.328c3.332 0 5.432-2.688 5.432-6.328s-2.1-6.3-5.432-6.3z" opacity=".6"/><use xlink:href="#M" opacity=".6"/><path d="M321.574 173.523c-.896 0-1.596-.7-1.596-1.597s.7-1.596 1.596-1.596 1.597.7 1.597 1.596a1.58 1.58 0 0 1-1.597 1.597zm0 17.556c-.392 0-.812-.252-.812-.784v-13.3c0-.504.392-.784.812-.784.364 0 .784.252.784.784v13.3c0 .504-.364.784-.784.784zm6.973.168c-1.512 0-2.772-1.4-2.772-2.968v-16.353c0-.504.42-.783.812-.783.364 0 .784.28.784.783v16.353c0 1.792 1.987.756 1.987 2.016 0 .476-.336.952-.8.952zm14.867-13.917l-7.588 17.948c-.56 1.315-1.708 1.68-2.995 1.68h-1.23c-.504 0-.784-.42-.784-.812 0-.364.28-.784.784-.784h1.232c.615 0 1.26-.028 1.512-.672l1.596-3.8-5.796-13.552c-.056-.14-.056-.252-.056-.364 0-.447.392-.756.812-.756.252 0 .56.112.7.477l5.208 12.15 5.152-12.15c.14-.364.447-.477.728-.477.42 0 .784.3.784.756 0 .113 0 .225-.057.365zm26.768 13.75c-.392 0-.784-.28-.784-.784v-9.408a3.6 3.6 0 0 0-3.556-3.556c-1.932 0-3.584 1.624-3.584 3.528v9.436c0 .504-.392.784-.784.784s-.812-.28-.812-.784v-9.408c0-1.932-1.624-3.556-3.528-3.556-1.96 0-3.584 1.624-3.584 3.528v9.436c0 .504-.42.784-.784.784-.392 0-.812-.28-.812-.784v-13.3c0-.504.42-.784.812-.784.364 0 .784.28.784.784v.168a5.09 5.09 0 0 1 3.557-1.428c1.792 0 3.388.896 4.367 2.38.925-1.428 2.52-2.38 4.34-2.38 2.912 0 5.18 2.296 5.18 5.124v9.436c-.001.504-.42.784-.813.784zm16.604-6.637h-11.62c.252 3.2 2.324 5.516 5.376 5.516 1.512 0 3.304-.672 4.116-1.932.196-.3.42-.393.672-.393.42 0 .868.336.868.757 0 .252 0 .308-.532.924-1.288 1.512-3.164 2.24-5.124 2.24-4.508 0-7.028-3.695-7.028-7.924 0-4.2 2.52-7.896 7.028-7.896s7.028 3.724 7.028 7.896c0 .42-.392.813-.784.813zm-6.244-7.112c-3.36 0-5.124 2.576-5.376 5.516h10.78c-.252-3.192-2.324-5.516-5.404-5.516zm16.184 20.132c-2.38 0-5.74-.896-5.74-1.903 0-.448.364-.896.812-.896.308 0 .952.476 1.483.672.73.252 1.876.532 3.444.532 3.584 0 5.432-1.764 5.432-5.208v-1.96c-1.23 1.483-2.995 2.38-5.432 2.38-4.424 0-7.028-3.136-7.028-7.448 0-4.2 2.52-7.896 7.028-7.896 2.437 0 4.256 1.008 5.432 2.632v-1.344c0-.504.42-.784.812-.784.364 0 .784.28.784.784v13.636c.001 4.45-2.66 6.803-7.027 6.803zm0-20.132c-3.304 0-5.432 2.66-5.432 6.3 0 3.612 1.987 5.853 5.432 5.853s5.432-2.24 5.432-5.853c-.001-3.64-2.1-6.3-5.432-6.3zm25.06 13.75h-.028c-.924 0-2.24-.504-2.77-2.184-1.176 1.65-2.996 2.66-5.432 2.66-4.564 0-7.028-3.752-7.028-7.924 0-4.228 2.52-7.896 7.028-7.896 2.436 0 4.256 1.008 5.432 2.632v-1.372c0-.448.364-.784.812-.784.393 0 .784.28.784.784v11.284c0 1.792 2.017.672 2.017 2.016a.77.77 0 0 1-.814.785zm-8.23-13.748c-3.305 0-5.433 2.66-5.433 6.3s2.128 6.328 5.433 6.328c3.332 0 5.432-2.688 5.432-6.328s-2.1-6.3-5.432-6.3zm29.455-.085l-4.563 13.16c-.196.532-.448.672-.812.672-.476 0-.615-.168-.783-.672l-3.668-10.92-3.668 10.92c-.196.532-.448.672-.812.672s-.644-.224-.784-.672l-4.535-13.16c-.028-.084-.057-.224-.057-.308 0-.448.448-.73.812-.73.28 0 .615.14.728.532l3.836 11.088 3.668-10.948c.168-.53.336-.672.812-.672.336 0 .615.112.783.672l3.725 10.948 3.78-11.088c.14-.392.42-.532.728-.532.42 0 .868.28.868.756-.002.113-.03.197-.058.28z" opacity=".6"/><use xlink:href="#M" x="141.847" opacity=".6"/><path d="M467.732 191.08h-.867c-2.213 0-3.305-1.092-3.305-3.276v-9.995h-1.428c-.504 0-.784-.42-.784-.812 0-.364.28-.784.784-.784h1.428v-4.284c0-.504.42-.783.812-.783s.784.28.784.783v4.284h2.575c.504 0 .784.42.784.784 0 .392-.28.812-.784.812h-2.575v9.995c0 1.372.392 1.68 1.708 1.68h.867c.504 0 .784.42.784.812.002.363-.28.783-.783.783zm7.896 0h-.867c-2.213 0-3.305-1.092-3.305-3.276v-9.995h-1.428c-.504 0-.784-.42-.784-.812 0-.364.28-.784.784-.784h1.428v-4.284c0-.504.42-.783.812-.783s.784.28.784.783v4.284h2.575c.504 0 .784.42.784.784 0 .392-.28.812-.784.812h-2.575v9.995c0 1.372.392 1.68 1.708 1.68h.867c.504 0 .784.42.784.812.001.363-.28.783-.783.783zm21.056 0c-.392 0-.812-.28-.812-.784v-8.176a4.77 4.77 0 0 0-4.788-4.788c-2.632 0-4.788 2.128-4.788 4.788v8.176c0 .504-.42.784-.784.784-.392 0-.812-.28-.812-.784v-18.368c0-.504.42-.783.812-.783.364 0 .784.28.784.783v5.965c1.176-1.372 2.884-2.156 4.788-2.156a6.44 6.44 0 0 1 6.384 6.384v8.176c0 .503-.42.783-.784.783zm10.332.475c-4.508 0-7.028-3.695-7.028-7.924 0-4.2 2.52-7.896 7.028-7.896s7.028 3.695 7.028 7.896c0 4.228-2.52 7.924-7.028 7.924zm0-14.224c-3.304 0-5.432 2.66-5.432 6.3s2.128 6.328 5.432 6.328c3.332 0 5.432-2.688 5.432-6.328s-2.1-6.3-5.432-6.3zm21.53 13.75c-.392 0-.812-.28-.812-.784v-.896c-1.176 1.372-2.884 2.155-4.788 2.155-3.472 0-6.384-2.9-6.384-6.384v-8.176c0-.504.42-.784.812-.784.364 0 .784.28.784.784v8.176a4.788 4.788 0 1 0 9.576 0v-8.176c0-.504.42-.784.812-.784.364 0 .784.28.784.784v13.3c0 .505-.42.785-.784.785zm10.585-13.497c-2.633 0-4.788 2.128-4.788 4.788v7.924c0 .504-.42.784-.784.784-.393 0-.812-.28-.812-.784v-13.3c0-.504.42-.784.812-.784.364 0 .784.28.784.784v1.148c1.26-1.372 2.912-2.156 4.788-2.156.504 0 .812.42.812.784-.001.392-.308.812-.812.812zm6.972 14.027c-1.68 0-4.5-.588-5.488-2.212-.112-.168-.112-.3-.112-.42a.86.86 0 0 1 .812-.84c.168 0 .447.14.615.393 1 1.23 2.8 1.483 4.173 1.483 2.716 0 4.088-.896 4.088-2.716 0-4.228-9.185-1.987-9.185-7.588 0-2.828 2.828-3.92 5.376-3.92 1.456 0 3.696.504 4.816 1.624.168.168.252.364.252.532 0 .42-.42.84-.868.84a.74.74 0 0 1-.532-.224c-.867-.84-2.436-1.177-3.668-1.177-2.464 0-3.78.952-3.78 2.324 0 3.92 9.184 1.85 9.184 7.588-.001 3.194-2.8 4.314-5.684 4.314z" opacity=".6"/><path d="M79.96 230.022c-.494 0-1.063-.342-1.063-1.063V216.6H64.153v12.35c0 .684-.494 1.063-1.063 1.063-.532 0-1.102-.342-1.102-1.063v-24.925c0-.722.57-1.063 1.102-1.063.57 0 1.063.38 1.063 1.063v10.4h14.742v-10.4c0-.684.494-1.063 1.063-1.063.532 0 1.102.342 1.102 1.063v24.925c.001.683-.53 1.063-1.1 1.063z"/><use xlink:href="#N"/><path d="M130.536 230.022c-.532 0-1.064-.38-1.064-1.063v-12.767c0-2.62-2.204-4.825-4.825-4.825s-4.863 2.204-4.863 4.787v12.805c0 .684-.532 1.063-1.064 1.063s-1.102-.38-1.102-1.063v-12.767c0-2.62-2.204-4.825-4.788-4.825-2.66 0-4.863 2.204-4.863 4.787v12.805c0 .684-.57 1.063-1.063 1.063-.532 0-1.102-.38-1.102-1.063V210.9c0-.684.57-1.063 1.102-1.063.494 0 1.063.38 1.063 1.063v.23c1.254-1.216 2.964-1.938 4.825-1.938 2.432 0 4.598 1.216 5.927 3.23 1.254-1.938 3.42-3.23 5.9-3.23 3.952 0 7.03 3.116 7.03 6.953v12.805c0 .682-.57 1.062-1.1 1.062zm24.472 0h-.038c-1.254 0-3.04-.684-3.76-2.964-1.596 2.242-4.065 3.6-7.37 3.6-6.193 0-9.537-5.1-9.537-10.752 0-5.737 3.42-10.715 9.537-10.715 3.306 0 5.775 1.368 7.37 3.572V210.9c0-.607.494-1.063 1.102-1.063.532 0 1.064.38 1.064 1.063v15.312c0 2.432 2.736.912 2.736 2.736-.001.494-.343 1.064-1.103 1.064zm-11.17-18.655c-4.483 0-7.37 3.6-7.37 8.55s2.887 8.587 7.37 8.587c4.52 0 7.37-3.647 7.37-8.587s-2.85-8.55-7.37-8.55z"/><use xlink:href="#O"/><path d="M180.015 206.2a2.166 2.166 0 1 1 0-4.332 2.166 2.166 0 1 1 0 4.332zm0 23.822c-.532 0-1.102-.342-1.102-1.063V210.9c0-.684.532-1.063 1.102-1.063.494 0 1.063.342 1.063 1.063v18.048c0 .683-.494 1.063-1.063 1.063zm12.653 0H191.5c-3 0-4.483-1.48-4.483-4.445v-13.564h-1.938c-.684 0-1.064-.57-1.064-1.102 0-.494.38-1.063 1.064-1.063h1.938v-5.813c0-.684.57-1.063 1.102-1.063s1.064.38 1.064 1.063v5.813h3.496c.684 0 1.063.57 1.063 1.063 0 .532-.38 1.102-1.063 1.102h-3.496v13.564c0 1.86.532 2.28 2.317 2.28h1.178c.684 0 1.063.57 1.063 1.103 0 .493-.38 1.063-1.063 1.063zm20.898-18.655L203.27 235.72c-.76 1.786-2.318 2.28-4.065 2.28h-1.672c-.684 0-1.063-.57-1.063-1.102 0-.494.38-1.063 1.063-1.063h1.672c.836 0 1.7-.038 2.052-.912l2.166-5.167-7.865-18.4c-.076-.2-.076-.342-.076-.494 0-.607.532-1.025 1.102-1.025.342 0 .76.15.95.646l7.067 16.5 7-16.5c.2-.494.608-.646.988-.646.57 0 1.064.418 1.064 1.025-.002.153-.002.304-.078.495zm6.766-.533c-.228.114-.38.2-.57.2-.646 0-1.064-.684-1.064-1.292 0-.836 2.166-1.025 2.166-3.457v-2.888c0-.722.532-1.14 1.063-1.14a1.11 1.11 0 0 1 1.102 1.14v2.888c.001.874-.417 3.306-2.697 4.56zm12.918 19.9c-2.28 0-6.117-.798-7.447-3-.152-.23-.152-.418-.152-.57 0-.607.532-1.14 1.102-1.14.228 0 .608.2.836.532 1.368 1.67 3.8 2.014 5.66 2.014 3.685 0 5.547-1.216 5.547-3.686 0-5.737-12.462-2.698-12.462-10.297 0-3.837 3.837-5.32 7.295-5.32 1.976 0 5.015.685 6.535 2.204.228.228.342.494.342.722 0 .57-.57 1.14-1.178 1.14-.228 0-.494-.076-.722-.304-1.178-1.14-3.305-1.596-4.977-1.596-3.344 0-5.13 1.292-5.13 3.153 0 5.32 12.462 2.508 12.462 10.297 0 4.33-3.8 5.85-7.713 5.85zm35.1-9.727h-15.768c.342 4.332 3.154 7.485 7.295 7.485 2.052 0 4.483-.912 5.585-2.622.266-.418.57-.53.912-.53.57 0 1.178.455 1.178 1.025 0 .342 0 .418-.722 1.254-1.748 2.052-4.293 3.04-6.953 3.04-6.117 0-9.537-5.015-9.537-10.752 0-5.7 3.42-10.715 9.537-10.715s9.537 5.054 9.537 10.715c0 .57-.53 1.102-1.064 1.102zm-8.472-9.65c-4.56 0-6.953 3.495-7.295 7.485h14.628c-.342-4.332-3.154-7.485-7.333-7.485z"/><use xlink:href="#O" x="114.388"/><use xlink:href="#P"/><use xlink:href="#Q"/><use xlink:href="#R"/><use xlink:href="#S"/><path d="M365.555 221.017h-15.768c.342 4.332 3.154 7.485 7.295 7.485 2.052 0 4.483-.912 5.585-2.622.266-.418.57-.53.912-.53.57 0 1.178.455 1.178 1.025 0 .342 0 .418-.722 1.254-1.748 2.052-4.293 3.04-6.953 3.04-6.117 0-9.537-5.015-9.537-10.752 0-5.7 3.42-10.715 9.537-10.715s9.537 5.054 9.537 10.715c0 .57-.532 1.102-1.064 1.102zm-8.472-9.65c-4.56 0-6.953 3.495-7.295 7.485h14.628c-.342-4.332-3.154-7.485-7.333-7.485zm16.302 18.883c-2.052 0-3.76-1.9-3.76-4.027v-22.188c0-.684.57-1.063 1.102-1.063.494 0 1.063.38 1.063 1.063v22.188c0 2.432 2.698 1.026 2.698 2.736 0 .645-.456 1.3-1.102 1.3z"/><use xlink:href="#S" x="56.998"/><path d="M413.092 227.78c-1.672 1.86-4 2.887-6.8 2.887-6.117 0-9.537-5.015-9.537-10.752 0-5.7 3.42-10.715 9.537-10.715 2.812 0 5.13 1.026 6.8 2.888.228.23.304.494.304.722 0 .57-.532 1.14-1.102 1.14-.266 0-.532-.114-.798-.38-1.253-1.406-3-2.204-5.205-2.204-4.483 0-7.37 3.61-7.37 8.55s2.887 8.587 7.37 8.587c2.204 0 3.952-.836 5.205-2.204.266-.266.532-.38.798-.38a1.13 1.13 0 0 1 1.102 1.102c0 .265-.076.492-.304.76z"/><use xlink:href="#P" x="123.148"/><use xlink:href="#R" x="117.107"/><use xlink:href="#Q" x="134.168"/><path d="M458.92 227.78c-1.672 1.86-4 2.887-6.8 2.887-6.117 0-9.537-5.015-9.537-10.752 0-5.7 3.42-10.715 9.537-10.715 2.812 0 5.13 1.026 6.8 2.888a1.01 1.01 0 0 1 .304.722c0 .57-.532 1.14-1.102 1.14-.266 0-.532-.114-.798-.38-1.254-1.406-3.002-2.204-5.206-2.204-4.483 0-7.37 3.6-7.37 8.55s2.887 8.587 7.37 8.587c2.204 0 3.952-.836 5.206-2.204.266-.266.532-.38.798-.38a1.13 1.13 0 0 1 1.102 1.102c0 .265-.077.492-.304.76zm4.448-21.58a2.166 2.166 0 1 1 0-4.332 2.166 2.166 0 1 1 0 4.332zm0 23.822c-.532 0-1.102-.342-1.102-1.063V210.9c0-.684.532-1.063 1.102-1.063.494 0 1.063.342 1.063 1.063v18.048c.001.683-.493 1.063-1.063 1.063zm11.892 0h-1.178c-3 0-4.483-1.48-4.483-4.445v-13.564h-1.938c-.684 0-1.064-.57-1.064-1.102 0-.494.38-1.063 1.064-1.063h1.938v-5.813c0-.684.57-1.063 1.102-1.063s1.064.38 1.064 1.063v5.813h3.496c.684 0 1.063.57 1.063 1.063 0 .532-.38 1.102-1.063 1.102h-3.496v13.564c0 1.86.532 2.28 2.317 2.28h1.178c.684 0 1.063.57 1.063 1.103.001.493-.38 1.063-1.063 1.063zm19.38-18.655l-10.296 24.354c-.76 1.786-2.318 2.28-4.065 2.28h-1.672c-.684 0-1.064-.57-1.064-1.102 0-.494.38-1.063 1.064-1.063h1.672c.836 0 1.7-.038 2.052-.912l2.166-5.167-7.865-18.4c-.076-.2-.076-.342-.076-.494 0-.607.532-1.025 1.102-1.025.342 0 .76.15.95.646l7.067 16.5 7-16.5c.2-.494.608-.646.988-.646.57 0 1.064.418 1.064 1.025-.002.153-.002.304-.078.495z"/><use xlink:href="#N" x="419.77"/><path d="M531.918 230.744c-2.28 0-6.117-.798-7.447-3-.152-.23-.152-.418-.152-.57 0-.607.532-1.14 1.102-1.14.228 0 .608.2.836.532 1.368 1.67 3.8 2.014 5.66 2.014 3.685 0 5.547-1.216 5.547-3.686 0-5.737-12.462-2.698-12.462-10.297 0-3.837 3.837-5.32 7.295-5.32 1.976 0 5.015.685 6.535 2.204.228.228.342.494.342.722 0 .57-.57 1.14-1.178 1.14-.228 0-.494-.076-.722-.304-1.178-1.14-3.306-1.596-4.977-1.596-3.344 0-5.13 1.292-5.13 3.153 0 5.32 12.462 2.508 12.462 10.297 0 4.33-3.8 5.85-7.713 5.85zm30.02-.722h-.038c-1.254 0-3.04-.684-3.76-2.964-1.596 2.242-4.065 3.6-7.37 3.6-6.193 0-9.537-5.1-9.537-10.752 0-5.737 3.42-10.715 9.537-10.715 3.306 0 5.775 1.368 7.37 3.572V210.9c0-.607.494-1.063 1.102-1.063.53 0 1.063.38 1.063 1.063v15.312c0 2.432 2.735.912 2.735 2.736a1.04 1.04 0 0 1-1.101 1.064zm-11.17-18.655c-4.483 0-7.37 3.6-7.37 8.55s2.887 8.587 7.37 8.587c4.52 0 7.37-3.647 7.37-8.587s-2.85-8.55-7.37-8.55zm22.875 27.318c-3.23 0-7.8-1.216-7.8-2.584 0-.608.494-1.216 1.103-1.216.418 0 1.3.646 2.014.912.987.342 2.545.722 4.673.722 4.863 0 7.37-2.394 7.37-7.067v-2.66c-1.672 2.014-4.065 3.23-7.37 3.23-6.003 0-9.536-4.256-9.536-10.106 0-5.7 3.42-10.715 9.536-10.715 3.306 0 5.775 1.368 7.37 3.572v-1.824c0-.684.57-1.063 1.102-1.063.494 0 1.064.38 1.064 1.063v18.503c-.001 6.04-3.612 9.233-9.538 9.233zm0-27.318c-4.483 0-7.37 3.6-7.37 8.55 0 4.9 2.698 7.94 7.37 7.94s7.37-3.04 7.37-7.94c0-4.94-2.85-8.55-7.37-8.55zm30.55 9.65h-15.768c.342 4.332 3.153 7.485 7.295 7.485 2.052 0 4.483-.912 5.585-2.622.267-.418.57-.53.912-.53.57 0 1.178.455 1.178 1.025 0 .342 0 .418-.722 1.254-1.748 2.052-4.293 3.04-6.953 3.04-6.117 0-9.536-5.015-9.536-10.752 0-5.7 3.42-10.715 9.536-10.715s9.537 5.054 9.537 10.715c.001.57-.53 1.102-1.064 1.102zm-8.472-9.65c-4.56 0-6.953 3.495-7.295 7.485h14.628c-.342-4.332-3.154-7.485-7.333-7.485zM160.777 855.78v29.88h4.5v3.6h-4.5v9.84h-4.32v-9.84h-13.86v-2.04l11.88-31.44h6.3zm-14.1 29.88h9.78v-25.92h-.12l-9.66 25.92z"/><use xlink:href="#T"/><use xlink:href="#K" x="83.855" y="708.02"/><use xlink:href="#T" x="35.158"/><use xlink:href="#U"/><use xlink:href="#U" x="24.239"/><use xlink:href="#K" x="167.492" y="708.02"/><use xlink:href="#U" x="59.397"/><use xlink:href="#U" x="83.637"/><use xlink:href="#U" x="107.875"/><path d="M153.945 940.528c-8.36 0-11.057-7.028-11.057-14.172 0-7.104 2.698-14.2 11.057-14.2 3.42 0 6.42 1.216 8.435 4.142.2.2.228.38.228.608 0 .607-.57 1.063-1.178 1.063-.532 0-.836-.456-1.254-.987-1.33-1.7-3.344-2.66-6.23-2.66-5.737 0-8.89 4.407-8.89 12.044 0 5.775 1.824 12.007 8.89 12.007 6.003 0 8.625-4.598 8.89-10.904H158.2c-.76 0-1.14-.57-1.14-1.103s.38-1.102 1.064-1.102h5.775c.646 0 1.102.456 1.102 1.102-.001 7.4-2.926 14.172-11.057 14.172z"/><use xlink:href="#V"/><use xlink:href="#W"/><path d="M205.32 940.528c-3.306 0-5.775-1.367-7.37-3.61v1.9c0 .684-.57 1.063-1.063 1.063-.532 0-1.102-.38-1.102-1.063v-24.925c0-.684.57-1.063 1.102-1.063.494 0 1.063.38 1.063 1.063v8.74c1.596-2.204 4.065-3.572 7.37-3.572 6.117 0 9.537 5.016 9.537 10.715-.001 5.738-3.42 10.752-9.537 10.752zm0-19.3c-4.52 0-7.37 3.61-7.37 8.55s2.85 8.587 7.37 8.587 7.37-3.647 7.37-8.587-2.85-8.55-7.37-8.55z"/><use xlink:href="#X"/><use xlink:href="#V" x="72.958"/><path d="M264 948.546c-3.23 0-7.8-1.216-7.8-2.584 0-.608.494-1.216 1.102-1.216.418 0 1.292.646 2.014.912.988.342 2.546.722 4.673.722 4.863 0 7.37-2.394 7.37-7.067v-2.66c-1.672 2.014-4.065 3.23-7.37 3.23-6.003 0-9.537-4.256-9.537-10.106 0-5.7 3.42-10.715 9.537-10.715 3.306 0 5.775 1.368 7.37 3.572V920.8c0-.684.57-1.063 1.102-1.063.494 0 1.064.38 1.064 1.063v18.503c0 6.04-3.6 9.233-9.537 9.233zm0-27.318c-4.483 0-7.37 3.6-7.37 8.55 0 4.9 2.697 7.94 7.37 7.94s7.37-3.04 7.37-7.94c0-4.94-2.85-8.55-7.37-8.55zm30.54 9.65h-15.768c.342 4.332 3.154 7.485 7.295 7.485 2.052 0 4.483-.912 5.585-2.622.266-.418.57-.53.912-.53.57 0 1.178.455 1.178 1.025 0 .342 0 .418-.722 1.254-1.748 2.052-4.293 3.04-6.953 3.04-6.117 0-9.537-5.015-9.537-10.752 0-5.7 3.42-10.715 9.537-10.715s9.537 5.054 9.537 10.715c-.001.57-.532 1.102-1.064 1.102zm-8.473-9.65c-4.56 0-6.953 3.495-7.295 7.485H293.4c-.342-4.332-3.153-7.485-7.333-7.485z"/><use xlink:href="#W" x="124.028"/><path d="M326.766 939.883h-1.178c-3 0-4.483-1.48-4.483-4.445v-13.564h-1.938c-.684 0-1.064-.57-1.064-1.102 0-.494.38-1.063 1.064-1.063h1.938v-5.813c0-.684.57-1.063 1.102-1.063s1.064.38 1.064 1.063v5.813h3.496c.684 0 1.063.57 1.063 1.063 0 .532-.38 1.102-1.063 1.102h-3.496v13.564c0 1.86.532 2.28 2.317 2.28h1.178c.684 0 1.063.57 1.063 1.103 0 .492-.38 1.063-1.063 1.063zm19.264 0c-.532 0-1.102-.38-1.102-1.063v-11.095a6.47 6.47 0 0 0-6.497-6.497c-3.57 0-6.497 2.888-6.497 6.497v11.095c0 .684-.57 1.063-1.064 1.063-.532 0-1.102-.38-1.102-1.063v-24.925c0-.684.57-1.063 1.102-1.063.494 0 1.064.38 1.064 1.063v8.093c1.596-1.86 3.914-2.926 6.497-2.926 4.7 0 8.663 3.914 8.663 8.663v11.095c-.001.683-.57 1.063-1.064 1.063z"/><use xlink:href="#S" x="31.203" y="709.861"/><path d="M380.496 921.57c-3.57 0-6.497 2.888-6.497 6.497v10.753c0 .684-.57 1.063-1.064 1.063-.532 0-1.102-.38-1.102-1.063v-18.05c0-.684.57-1.063 1.102-1.063.494 0 1.064.38 1.064 1.063v1.558c1.7-1.86 3.952-2.925 6.497-2.925.684 0 1.102.57 1.102 1.063 0 .533-.418 1.102-1.102 1.102zm27.09 18.313c-.532 0-1.064-.38-1.064-1.063v-12.767c0-2.62-2.204-4.825-4.825-4.825s-4.863 2.204-4.863 4.787v12.805c0 .684-.532 1.063-1.064 1.063s-1.102-.38-1.102-1.063v-12.767c0-2.62-2.204-4.825-4.788-4.825-2.66 0-4.863 2.204-4.863 4.787v12.805c0 .684-.57 1.063-1.064 1.063-.532 0-1.102-.38-1.102-1.063v-18.048c0-.684.57-1.063 1.102-1.063.494 0 1.064.38 1.064 1.063V921c1.254-1.216 2.964-1.938 4.825-1.938 2.432 0 4.598 1.216 5.927 3.23 1.254-1.938 3.42-3.23 5.9-3.23 3.952 0 7.03 3.116 7.03 6.953v12.805c.001.683-.57 1.063-1.1 1.063z"/><use xlink:href="#X" x="194.366"/><use xlink:href="#V" x="267.324"/><path d="M161.43 966.478h-15.768c.342 4.332 3.154 7.485 7.295 7.485 2.052 0 4.483-.912 5.585-2.622.266-.418.57-.53.912-.53.57 0 1.178.455 1.178 1.025 0 .342 0 .418-.722 1.254-1.748 2.052-4.293 3.04-6.953 3.04-6.117 0-9.537-5.015-9.537-10.752 0-5.7 3.42-10.715 9.537-10.715s9.537 5.054 9.537 10.715c0 .57-.532 1.102-1.064 1.102zm-8.473-9.65c-4.56 0-6.953 3.495-7.295 7.485H160.3c-.342-4.332-3.153-7.485-7.333-7.485z"/><use xlink:href="#Y"/><use xlink:href="#S" x="-133.067" y="745.461"/><path d="M216.226 957.17c-3.57 0-6.497 2.888-6.497 6.497v10.753c0 .684-.57 1.063-1.063 1.063-.532 0-1.102-.38-1.102-1.063v-18.05c0-.684.57-1.063 1.102-1.063.494 0 1.063.38 1.063 1.063v1.558c1.7-1.86 3.952-2.925 6.497-2.925.684 0 1.102.57 1.102 1.063 0 .533-.418 1.102-1.102 1.102zm11.02 26.976c-3.23 0-7.8-1.216-7.8-2.584 0-.608.494-1.216 1.102-1.216.418 0 1.292.646 2.014.912.988.342 2.546.722 4.673.722 4.863 0 7.37-2.394 7.37-7.067v-2.66c-1.672 2.014-4.065 3.23-7.37 3.23-6.003 0-9.537-4.256-9.537-10.106 0-5.7 3.42-10.715 9.537-10.715 3.306 0 5.775 1.368 7.37 3.572V956.4c0-.684.57-1.063 1.102-1.063.494 0 1.064.38 1.064 1.063v18.503c-.001 6.04-3.6 9.233-9.537 9.233zm0-27.32c-4.483 0-7.37 3.6-7.37 8.55 0 4.9 2.697 7.94 7.37 7.94s7.37-3.04 7.37-7.94c0-4.94-2.85-8.55-7.37-8.55zm29.8.001L246.74 981.18c-.76 1.786-2.318 2.28-4.065 2.28h-1.672c-.684 0-1.063-.57-1.063-1.102 0-.494.38-1.063 1.063-1.063h1.672c.836 0 1.7-.038 2.052-.912l2.166-5.167-7.865-18.4c-.076-.2-.076-.342-.076-.494 0-.607.532-1.025 1.102-1.025.342 0 .76.15.95.646l7.067 16.5 7-16.5c.2-.494.608-.646.988-.646.57 0 1.064.418 1.064 1.025-.002.153-.002.305-.078.495zm19.61 19.3c-3.306 0-5.775-1.367-7.37-3.6v9.84c0 .684-.57 1.102-1.063 1.102-.532 0-1.102-.418-1.102-1.102V956.37c0-.684.57-1.063 1.102-1.063.494 0 1.063.38 1.063 1.063v1.862c1.596-2.204 4.065-3.572 7.37-3.572 6.117 0 9.537 5.016 9.537 10.715 0 5.736-3.42 10.75-9.537 10.75zm0-19.3c-4.52 0-7.37 3.6-7.37 8.55s2.85 8.587 7.37 8.587 7.37-3.647 7.37-8.587-2.85-8.55-7.37-8.55zm21.205 19.3c-6.117 0-9.537-5.015-9.537-10.752 0-5.7 3.42-10.715 9.537-10.715s9.537 5.016 9.537 10.715c-.001 5.737-3.42 10.752-9.537 10.752zm0-19.3c-4.483 0-7.37 3.6-7.37 8.55s2.887 8.587 7.37 8.587c4.52 0 7.37-3.647 7.37-8.587s-2.85-8.55-7.37-8.55z"/><use xlink:href="#P" x="17.099" y="745.46"/><path d="M337.48 966.478h-15.768c.342 4.332 3.154 7.485 7.295 7.485 2.052 0 4.483-.912 5.585-2.622.266-.418.57-.53.912-.53.57 0 1.178.455 1.178 1.025 0 .342 0 .418-.722 1.254-1.748 2.052-4.293 3.04-6.953 3.04-6.117 0-9.537-5.015-9.537-10.752 0-5.7 3.42-10.715 9.537-10.715s9.537 5.054 9.537 10.715c0 .57-.53 1.102-1.064 1.102zm-8.472-9.65c-4.56 0-6.953 3.495-7.295 7.485h14.628c-.342-4.332-3.153-7.485-7.333-7.485z"/><use xlink:href="#Y" x="176.05"/><use xlink:href="#P" x="69.12" y="745.46"/><path d="M373.468 951.66a2.166 2.166 0 1 1 0-4.332 2.166 2.166 0 1 1 0 4.332zm0 23.822c-.532 0-1.102-.342-1.102-1.063v-18.05c0-.684.532-1.063 1.102-1.063.494 0 1.063.342 1.063 1.063v18.048a1.01 1.01 0 0 1-1.063 1.063zm24.772 0h-.038c-1.254 0-3.04-.684-3.76-2.964-1.596 2.242-4.065 3.6-7.37 3.6-6.193 0-9.537-5.1-9.537-10.752 0-5.737 3.42-10.715 9.537-10.715 3.306 0 5.775 1.368 7.37 3.572v-1.862c0-.607.494-1.063 1.102-1.063.532 0 1.064.38 1.064 1.063v15.312c0 2.432 2.736.912 2.736 2.736-.001.494-.343 1.064-1.103 1.064zm-11.17-18.655c-4.483 0-7.37 3.6-7.37 8.55s2.887 8.587 7.37 8.587c4.52 0 7.37-3.647 7.37-8.587s-2.85-8.55-7.37-8.55zm17.975 18.873c-2.05 0-3.76-1.9-3.76-4.027v-22.188c0-.684.57-1.063 1.102-1.063.494 0 1.064.38 1.064 1.063v22.188c0 2.432 2.698 1.026 2.698 2.736-.001.645-.457 1.3-1.103 1.3zm531.5-61.234c-1.814 0-2.64-1.287-2.938-1.88-1.32 1.452-3.234 2.442-5.8 2.442-5.38 0-8.284-4.423-8.284-9.34s2.97-9.308 8.284-9.308c2.3 0 4.16.825 5.446 2.18v-.132c0-.363.132-1.485 1.386-1.485.693 0 1.452.363 1.452 1.386v12.74c0 .43.297.594.462.594.925 0 1.42.66 1.42 1.42.001.692-.494 1.386-1.42 1.386zm-8.746-15.28c-3.3 0-5.445 2.574-5.445 6.502 0 3.96 2.146 6.535 5.445 6.535 3.334 0 5.446-2.574 5.446-6.535 0-3.928-2.112-6.502-5.446-6.502zm34.223 15.28c-.692 0-1.386-.495-1.386-1.386v-10.396c0-1.915-1.584-3.5-3.466-3.5-1.947 0-3.498 1.584-3.498 3.466v10.396c0 .924-.66 1.42-1.42 1.42-.726 0-1.386-.495-1.386-1.386v-10.396c0-1.915-1.584-3.5-3.498-3.5s-3.5 1.584-3.5 3.466v10.396c0 .924-.693 1.42-1.452 1.42-.693 0-1.386-.495-1.386-1.386v-14.754c0-.957.726-1.42 1.452-1.42.462 0 .924.198 1.188.627a6.36 6.36 0 0 1 3.664-1.155c1.98 0 3.763.892 4.917 2.344 1.155-1.452 2.905-2.344 4.885-2.344 3.5 0 6.337 2.806 6.337 6.27v10.396c0 .925-.693 1.42-1.452 1.42zm13.363.56c-5.313 0-8.284-4.357-8.284-9.34 0-4.95 2.97-9.308 8.284-9.308s8.284 4.357 8.284 9.308c0 4.984-2.97 9.34-8.284 9.34zm0-15.842c-3.3 0-5.445 2.574-5.445 6.502 0 3.96 2.146 6.535 5.445 6.535 3.334 0 5.446-2.574 5.446-6.535 0-3.928-2.112-6.502-5.446-6.502zm25.575 15.315c-.627 0-1.254-.363-1.386-1.1-1.32 1.022-2.938 1.65-4.753 1.65a7.59 7.59 0 0 1-7.525-7.524v-9.143c0-.924.693-1.42 1.387-1.42.76 0 1.452.495 1.452 1.386v9.176c0 2.574 2.146 4.72 4.687 4.72 2.574 0 4.72-2.146 4.72-4.72v-9.143c0-1.023.66-1.452 1.386-1.452.76 0 1.42.495 1.42 1.42v14.753c-.001.925-.66 1.387-1.388 1.387z"/><use xlink:href="#Z"/><path d="M1032.035 914.466h-.56c-3.136 0-4.324-1.65-4.324-4.356v-10.363h-1c-.792 0-1.42-.628-1.42-1.387 0-.792.627-1.42 1.387-1.42h1v-4.588c0-.924.693-1.386 1.42-1.386s1.386.462 1.386 1.386v4.588h2.112c.924 0 1.387.76 1.387 1.386 0 .792-.528 1.42-1.387 1.42h-2.112v10.66c0 .924.33 1.254 1.254 1.254h.825c.858 0 1.42.627 1.42 1.387 0 .8-.528 1.418-1.387 1.418zm-89.823 11.918l-5.115 14.5c-.264.727-.727 1.155-1.452 1.155-.693 0-1.1-.297-1.387-1.155l-3.86-10.892-3.895 10.892c-.264.792-.726 1.155-1.42 1.155-.66 0-1.122-.363-1.387-1.155l-5.082-14.5c-.066-.198-.066-.33-.066-.527 0-.825.76-1.354 1.452-1.354.528 0 1.057.264 1.287.924l3.83 11.023 3.895-10.792c.264-.76.594-1.155 1.386-1.155.727 0 1.122.363 1.387 1.155l3.86 10.792 3.86-11.023c.23-.66.76-.924 1.254-.924.76 0 1.52.56 1.52 1.386-.001.165-.001.297-.067.495zm17.4 8.316H947.4c.462 3.103 2.442 5.083 5.347 5.083 1.485 0 2.97-.528 3.928-1.717.297-.33.627-.527 1.023-.527.726 0 1.485.66 1.485 1.452 0 .396-.1.692-.793 1.386-1.484 1.452-3.53 2.212-5.644 2.212-5.313 0-8.284-4.4-8.284-9.34 0-4.918 2.97-9.308 8.284-9.308 5.38 0 8.25 4.4 8.25 9.308 0 .727-.527 1.452-1.385 1.452zm-6.866-7.954c-3.103 0-4.918 2.277-5.347 5.116h10.693c-.46-3.17-2.44-5.116-5.346-5.116zm12.464-.098a1.54 1.54 0 0 1-.726.165c-.792 0-1.42-.727-1.42-1.485 0-.462.197-.858.692-1.188.858-.462 1.452-1.485 1.452-2.277v-2.508c0-.958.66-1.453 1.387-1.453.76 0 1.42.495 1.42 1.453v2.508c.001 1.056-.494 3.333-2.805 4.785zm14.267.1c-2.54 0-4.687 2.146-4.687 4.72v9.143c0 .924-.693 1.42-1.452 1.42-.693 0-1.386-.495-1.386-1.386v-14.72c0-.924.76-1.42 1.386-1.42.66 0 1.287.363 1.42 1.122a7.63 7.63 0 0 1 4.72-1.684c.957 0 1.452.66 1.452 1.42 0 .726-.495 1.386-1.452 1.386zm16.99 7.953h-12.212c.462 3.103 2.442 5.083 5.347 5.083 1.485 0 2.97-.528 3.928-1.717.297-.33.627-.527 1.023-.527.726 0 1.485.66 1.485 1.452 0 .396-.1.692-.793 1.386-1.484 1.452-3.53 2.212-5.644 2.212-5.313 0-8.284-4.4-8.284-9.34 0-4.918 2.97-9.308 8.284-9.308 5.38 0 8.25 4.4 8.25 9.308.001.727-.527 1.452-1.385 1.452zm-6.865-7.954c-3.103 0-4.918 2.277-5.347 5.116h10.693c-.46-3.17-2.442-5.116-5.346-5.116zm-55.894 40.9c-1.452 1.617-3.466 2.5-5.908 2.5-5.313 0-8.284-4.357-8.284-9.34 0-4.95 2.97-9.308 8.284-9.308 2.442 0 4.456.892 5.908 2.5.264.297.396.627.396.957 0 .727-.726 1.42-1.484 1.42-.298 0-.66-.132-1.023-.462-.924-1.023-2.146-1.617-3.796-1.617-3.3 0-5.445 2.574-5.445 6.502 0 3.96 2.146 6.535 5.445 6.535 1.65 0 2.904-.627 3.796-1.617.297-.363.693-.495 1.023-.495.76 0 1.484.66 1.484 1.452 0 .296-.132.66-.396.957zm17.323 1.98c-.627 0-1.254-.363-1.386-1.1-1.32 1.023-2.938 1.65-4.753 1.65a7.59 7.59 0 0 1-7.525-7.524v-9.143c0-.924.693-1.42 1.387-1.42.76 0 1.452.495 1.452 1.386v9.176c0 2.574 2.146 4.72 4.687 4.72 2.574 0 4.72-2.146 4.72-4.72v-9.143c0-1.023.66-1.452 1.386-1.452.76 0 1.42.495 1.42 1.42v14.753c-.001.925-.66 1.387-1.388 1.387z"/><use xlink:href="#a"/><use xlink:href="#a" x="11.55"/><path d="M992.496 962.265h-12.212c.462 3.103 2.442 5.083 5.347 5.083 1.485 0 2.97-.528 3.928-1.717.297-.33.627-.527 1.023-.527.726 0 1.485.66 1.485 1.452 0 .396-.1.692-.793 1.386-1.484 1.452-3.53 2.212-5.644 2.212-5.313 0-8.284-4.4-8.284-9.34 0-4.918 2.97-9.308 8.284-9.308 5.38 0 8.25 4.4 8.25 9.308.001.726-.527 1.452-1.385 1.452zm-6.865-7.954c-3.103 0-4.918 2.277-5.347 5.116h10.693c-.46-3.17-2.442-5.116-5.346-5.116z"/><use xlink:href="#Z" x="-10.894" y="55.126"/><path d="M1019.82 969.592h-.56c-3.136 0-4.324-1.65-4.324-4.356v-10.363h-1c-.792 0-1.42-.628-1.42-1.387 0-.792.627-1.42 1.387-1.42h1v-4.588c0-.924.693-1.386 1.42-1.386s1.386.462 1.386 1.386v4.588h2.112c.925 0 1.387.76 1.387 1.386 0 .792-.528 1.42-1.387 1.42h-2.112v10.66c0 .924.33 1.254 1.254 1.254h.825c.858 0 1.42.627 1.42 1.387 0 .8-.528 1.418-1.387 1.418zm7.456.066c-1.782 0-3.3-1.52-3.3-3.367v-18.78c0-.957.692-1.42 1.42-1.42s1.42.462 1.42 1.386v18.812c0 .396.297.562.462.562.925 0 1.42.66 1.42 1.42 0 .726-.495 1.386-1.42 1.386zm18.054-15.61l-8.912 20.265c-.66 1.52-2.112 2.2-3.63 2.2h-1.057c-.957 0-1.386-.692-1.386-1.452 0-.692.43-1.386 1.386-1.386h1.023c.43 0 .9-.066 1.1-.528l2.18-4.885-6.437-14.225a1.19 1.19 0 0 1-.165-.627c0-.825.793-1.387 1.52-1.387.495 0 .924.264 1.188.858l5.38 11.947 5.247-11.947c.265-.595.76-.825 1.222-.825.76 0 1.52.56 1.52 1.354 0 .23-.033.395-.165.627zm-111.7 43.14c-.627 0-1.254-.363-1.386-1.1-1.32 1.023-2.938 1.65-4.753 1.65a7.59 7.59 0 0 1-7.525-7.524v-9.143c0-.924.693-1.42 1.387-1.42.76 0 1.452.495 1.452 1.386v9.176c0 2.574 2.146 4.72 4.687 4.72 2.574 0 4.72-2.146 4.72-4.72v-9.143c0-1.023.66-1.452 1.386-1.452.76 0 1.42.495 1.42 1.42V995.8c-.001.925-.662 1.387-1.388 1.387zm11.583.528c-1.815 0-4.853-.562-6.403-2.476-.198-.297-.297-.595-.297-.858 0-.825.792-1.485 1.485-1.485.396 0 .692.198 1.022.562 1.023 1.122 2.707 1.452 4.192 1.452 2.97 0 3.927-1.023 3.927-2.5 0-4.225-10.066-1.617-10.066-8.416 0-3.598 3.367-4.918 6.502-4.918 1.782 0 5.975.892 5.975 2.74 0 .727-.595 1.485-1.387 1.485-.297 0-.76-.165-1.1-.43-.892-.76-2.18-1-3.5-1-2.74 0-3.696 1.023-3.696 2.112 0 3.928 10.1 1.387 10.1 8.416 0 3.895-3.268 5.315-6.766 5.315zm11.682-20.76c-1.32 0-2.376-1.056-2.376-2.376s1.056-2.376 2.376-2.376 2.377 1.056 2.377 2.376-1.057 2.376-2.377 2.376zm0 20.2c-.726 0-1.452-.495-1.452-1.386v-14.72c0-.924.727-1.42 1.452-1.42.693 0 1.387.495 1.387 1.42v14.72c-.001.924-.694 1.386-1.387 1.386z"/><use xlink:href="#Z" x="-43.92" y="82.688"/><path d="M990.06 1004.68c-2.013 0-6.997-.727-6.997-2.707 0-.76.693-1.485 1.42-1.485.76 0 .1.1 1.848.76.792.297 1.98.627 3.73.627 3.664 0 5.446-1.75 5.446-5.215v-1.485c-1.287 1.222-3.136 1.98-5.446 1.98-5.215 0-8.284-3.696-8.284-8.78 0-4.95 2.97-9.308 8.284-9.308 2.3 0 4.093.693 5.446 2.112v-.132c0-.924.76-1.42 1.42-1.42.693 0 1.42.495 1.42 1.42v15.6c0 5.248-3.135 8.02-8.284 8.02zm0-22.807c-3.3 0-5.445 2.574-5.445 6.502 0 3.763 1.98 5.974 5.445 5.974s5.446-2.2 5.446-5.974c0-3.928-2.112-6.502-5.446-6.502zM801.726 970.3c0 2.8-.15 5.184-.448 7.176s-.755 3.63-1.367 4.912-1.388 2.23-2.328 2.84-2.036.918-3.3.918-2.35-.306-3.3-.918-1.716-1.56-2.328-2.84-1.068-2.918-1.367-4.912-.448-4.385-.448-7.176.15-5.183.448-7.176.754-3.63 1.367-4.912 1.388-2.228 2.328-2.84 2.036-.918 3.3-.918 2.35.307 3.3.918 1.715 1.56 2.328 2.84 1.068 2.92 1.367 4.912.448 4.386.448 7.176zm-3.076 0l-.278-6.343c-.186-1.694-.463-3.054-.833-4.08s-.827-1.758-1.367-2.2a2.88 2.88 0 0 0-1.88-.662 2.88 2.88 0 0 0-1.88.662c-.54.442-.997 1.175-1.367 2.2s-.648 2.385-.833 4.08-.278 3.8-.278 6.343l.278 6.343c.185 1.695.462 3.055.833 4.08s.826 1.758 1.367 2.2a2.88 2.88 0 0 0 1.879.662 2.89 2.89 0 0 0 1.88-.662c.542-.442.997-1.175 1.367-2.2s.647-2.385.833-4.08.278-3.808.278-6.343zm8.244 11.404v4.015h-3.588v-4.015h3.588zm14.35-26.824v21.27h3.204v2.563h-3.204v7.005h-3.075v-7.005h-9.867v-1.452l8.458-22.383h4.484zm-10.038 21.27h6.962v-18.452h-.085l-6.877 18.452zm19.05-12.645c-2.204 0-4.002-1.967-4.002-4.383s1.8-4.357 4.002-4.357c2.178 0 3.977 1.942 3.977 4.357s-1.8 4.383-3.977 4.383zm0-7.346c-1.267 0-2.56 1.17-2.56 2.963s1.292 2.964 2.56 2.964 2.533-1.17 2.533-2.964-1.267-2.963-2.533-2.963zm9.575-.922l-4.838 17.184c-.126.348-.33.522-.633.522-.38 0-.785-.3-.785-.722 0-.075 0-.15.025-.2l4.838-17.184c.127-.373.355-.547.66-.547.354 0 .76.323.76.746-.002.052-.002.1-.026.2zm3.14 17.258c-2.178 0-3.977-1.967-3.977-4.383 0-2.4 1.798-4.357 3.977-4.357 2.204 0 4.002 1.967 4.002 4.357 0 2.416-1.798 4.383-4.002 4.383zm0-7.32c-1.267 0-2.533 1.17-2.533 2.938 0 1.793 1.267 2.963 2.533 2.963 1.292 0 2.558-1.17 2.558-2.963 0-1.767-1.266-2.938-2.558-2.938zM64.08 44.38h-9.96v35.1c0 1.62-1.2 2.52-2.52 2.52-1.26 0-2.58-.9-2.58-2.52v-35.1h-9.84c-1.74 0-2.64-1.32-2.64-2.58 0-1.2.9-2.52 2.58-2.52h24.96c1.68 0 2.58 1.32 2.58 2.52 0 1.26-.9 2.58-2.58 2.58z"/><use xlink:href="#b"/><use xlink:href="#c"/><path d="M165.06 63.52h-12.84v15.9c0 1.56-1.2 2.58-2.52 2.58-1.44 0-2.64-.96-2.64-2.52V41.862c0-1.08.72-2.58 2.52-2.58h15.54c5.28 0 12.06 4.14 12.06 12.06-.002 6.78-5.402 12.18-12.12 12.18zm0-19.14h-12.84v14.04H165a6.99 6.99 0 0 0 7.02-7.02c0-3.9-3.12-7.02-6.96-7.02z"/><use xlink:href="#d"/><use xlink:href="#e"/><path d="M256.557 68.68h-22.2c.84 5.64 4.44 9.24 9.72 9.24 2.7 0 5.4-.96 7.14-3.12.54-.6 1.14-.96 1.86-.96 1.32 0 2.7 1.2 2.7 2.64 0 .72-.18 1.26-1.44 2.52-2.7 2.64-6.42 4.02-10.26 4.02-9.66 0-15.06-7.98-15.06-16.98 0-8.94 5.4-16.92 15.06-16.92 9.78 0 15 7.98 15 16.92-.001 1.32-.96 2.64-2.52 2.64zm-12.48-14.46c-5.64 0-8.94 4.14-9.72 9.3h19.44c-.84-5.76-4.44-9.3-9.72-9.3zM287.937 82c-1.32 0-2.52-.9-2.52-2.52V62.8c0-4.68-3.9-8.58-8.58-8.58-4.62 0-8.52 3.9-8.52 8.58v16.62c0 1.68-1.26 2.64-2.64 2.64-1.26 0-2.52-.9-2.52-2.58V52.66c0-1.74 1.26-2.52 2.52-2.52 1.2 0 2.28.66 2.58 1.98 2.34-1.86 5.28-3 8.58-3 7.44 0 13.68 6.18 13.68 13.68v16.62c0 1.68-1.2 2.58-2.58 2.58z"/><use xlink:href="#e" x="81.358"/><use xlink:href="#f"/><path d="M352.975 82c-3.3 0-4.8-2.34-5.34-3.42-2.4 2.64-5.88 4.44-10.56 4.44-9.78 0-15.06-8.04-15.06-16.98s5.4-16.92 15.06-16.92c4.2 0 7.56 1.5 9.9 3.96v-.24c0-.66.24-2.7 2.52-2.7 1.26 0 2.64.66 2.64 2.52V75.82c0 .78.54 1.08.84 1.08 1.68 0 2.58 1.2 2.58 2.58 0 1.26-.9 2.52-2.58 2.52zm-15.9-27.78c-6 0-9.9 4.68-9.9 11.82 0 7.2 3.9 11.88 9.9 11.88 6.06 0 9.9-4.68 9.9-11.88 0-7.14-3.84-11.82-9.9-11.82z"/><use xlink:href="#g"/><path d="M395.994 83.02c-9.66 0-15.06-7.92-15.06-16.98 0-9 5.4-16.92 15.06-16.92s15.06 7.92 15.06 16.92c-.001 9.06-5.4 16.98-15.06 16.98zm0-28.8c-6 0-9.9 4.68-9.9 11.82 0 7.2 3.9 11.88 9.9 11.88 6.06 0 9.9-4.68 9.9-11.88 0-7.14-3.84-11.82-9.9-11.82zm29.58 1.02h-2.7v24.18c0 1.68-1.26 2.52-2.64 2.52-1.26 0-2.52-.84-2.52-2.52V55.24h-2.46c-1.62 0-2.52-1.2-2.52-2.52 0-1.38.9-2.58 2.52-2.58h2.46v-4.08c0-3.84 3.18-6.78 6.9-6.78 1.74 0 2.64 1.2 2.64 2.58 0 1.26-.9 2.52-2.64 2.52-1.02 0-1.74.78-1.74 1.62v4.14h2.7c1.74 0 2.64 1.2 2.64 2.58.001 1.32-.9 2.52-2.64 2.52zm34.38 27.78c-13.2 0-17.46-11.1-17.46-22.38 0-11.58 4.56-22.44 17.46-22.44 5.46 0 10.02 1.92 13.32 6.54.36.48.54 1.02.54 1.5 0 1.44-1.5 2.58-2.88 2.58-1.08 0-1.2-.48-2.16-1.56-1.92-2.34-4.5-3.9-8.82-3.9-9.24 0-12.3 7.86-12.3 17.28 0 8.22 2.22 17.28 12.3 17.28 7.32 0 11.7-5.22 12.12-13.86h-5.4c-1.74 0-2.64-1.26-2.64-2.58s.9-2.58 2.52-2.58h8.22c1.56 0 2.64 1.08 2.64 2.64-.24 11.22-4.74 21.48-17.46 21.48z"/><use xlink:href="#c" x="379.79"/><use xlink:href="#d" x="333.292"/><path d="M558.17 82h-1.02c-5.7 0-7.86-3-7.86-7.92V55.24h-1.8c-1.44 0-2.58-1.14-2.58-2.52 0-1.44 1.14-2.58 2.52-2.58h1.8v-8.34c0-1.68 1.26-2.52 2.58-2.52s2.52.84 2.52 2.52v8.34h3.84c1.68 0 2.52 1.38 2.52 2.52 0 1.44-.96 2.58-2.52 2.58h-3.84v19.38c0 1.68.6 2.28 2.28 2.28h1.5c1.56 0 2.58 1.14 2.58 2.52-.001 1.44-.96 2.58-2.52 2.58z"/><use xlink:href="#b" x="495.83"/><path d="M622.8 68.68h-22.2c.84 5.64 4.44 9.24 9.72 9.24 2.7 0 5.4-.96 7.14-3.12.54-.6 1.14-.96 1.86-.96 1.32 0 2.7 1.2 2.7 2.64 0 .72-.18 1.26-1.44 2.52-2.7 2.64-6.42 4.02-10.26 4.02-9.66 0-15.06-7.98-15.06-16.98 0-8.94 5.4-16.92 15.06-16.92 9.78 0 15 7.98 15 16.92 0 1.32-.96 2.64-2.52 2.64zm-12.48-14.46c-5.64 0-8.94 4.14-9.72 9.3h19.438c-.84-5.76-4.44-9.3-9.718-9.3zm31.55 0c-4.62 0-8.52 3.9-8.52 8.58v16.62c0 1.68-1.26 2.58-2.64 2.58-1.26 0-2.52-.9-2.52-2.52V52.72c0-1.68 1.38-2.58 2.52-2.58 1.2 0 2.34.66 2.58 2.04a13.88 13.88 0 0 1 8.58-3.06c1.74 0 2.64 1.2 2.64 2.58.001 1.32-.9 2.52-2.64 2.52zM687.35 82c-1.26 0-2.52-.9-2.52-2.52v-18.9c0-3.48-2.88-6.36-6.3-6.36-3.54 0-6.36 2.88-6.36 6.3v18.9c0 1.68-1.2 2.58-2.58 2.58-1.32 0-2.52-.9-2.52-2.52v-18.9c0-3.48-2.88-6.36-6.36-6.36s-6.36 2.88-6.36 6.3v18.9c0 1.68-1.26 2.58-2.64 2.58-1.26 0-2.52-.9-2.52-2.52V52.66c0-1.74 1.32-2.58 2.64-2.58.84 0 1.68.36 2.16 1.14a11.56 11.56 0 0 1 6.66-2.1c3.6 0 6.84 1.62 8.94 4.26 2.1-2.64 5.28-4.26 8.88-4.26 6.36 0 11.52 5.1 11.52 11.4v18.9c0 1.68-1.26 2.58-2.64 2.58zm37.8 0c-3.3 0-4.8-2.34-5.34-3.42-2.4 2.64-5.88 4.44-10.56 4.44-9.78 0-15.06-8.04-15.06-16.98s5.4-16.92 15.06-16.92c4.2 0 7.56 1.5 9.9 3.96v-.24c0-.66.24-2.7 2.52-2.7 1.26 0 2.64.66 2.64 2.52v23.16c0 .78.54 1.08.84 1.08 1.68 0 2.58 1.2 2.58 2.58.001 1.26-.9 2.52-2.58 2.52zm-15.9-27.78c-6 0-9.9 4.68-9.9 11.82 0 7.2 3.9 11.88 9.9 11.88 6.06 0 9.9-4.68 9.9-11.88 0-7.14-3.84-11.82-9.9-11.82z"/><use xlink:href="#g" x="373.375"/><use xlink:href="#f" x="442.731"/><path d="M777.348 83.02c-3.3 0-8.82-1.02-11.64-4.5-.36-.54-.54-1.08-.54-1.56 0-1.5 1.44-2.7 2.7-2.7.72 0 1.26.36 1.86 1.02 1.86 2.04 4.92 2.64 7.62 2.64 5.4 0 7.14-1.86 7.14-4.56 0-7.68-18.3-2.94-18.3-15.3 0-6.54 6.12-8.94 11.82-8.94 3.24 0 10.86 1.62 10.86 4.98 0 1.32-1.08 2.7-2.52 2.7-.54 0-1.38-.3-1.98-.78-1.62-1.38-3.96-1.8-6.36-1.8-4.98 0-6.72 1.86-6.72 3.84 0 7.14 18.36 2.52 18.36 15.3.001 7.08-5.94 9.66-12.298 9.66zM835.906 82c-.9 0-1.8-.48-2.28-1.56l-3.18-7.8h-19.98l-3.24 7.8c-.48 1.08-1.38 1.56-2.22 1.56-1.32 0-2.7-1.02-2.7-2.52 0-.36.06-.72.24-1.02l15.42-37.498c.72-1.56 1.68-1.86 2.46-1.86.54 0 1.86.3 2.46 1.86l15.48 37.498c.12.3.18.66.18 1.02 0 1.5-1.26 2.52-2.64 2.52zm-15.48-33.6l-7.86 19.08h15.72l-7.86-19.08zm60.12 33.6c-1.26 0-2.52-.9-2.52-2.52v-18.9c0-3.48-2.88-6.36-6.3-6.36-3.54 0-6.36 2.88-6.36 6.3v18.9c0 1.68-1.2 2.58-2.58 2.58-1.32 0-2.52-.9-2.52-2.52v-18.9c0-3.48-2.88-6.36-6.36-6.36s-6.36 2.88-6.36 6.3v18.9c0 1.68-1.26 2.58-2.64 2.58-1.26 0-2.52-.9-2.52-2.52V52.66c0-1.74 1.32-2.58 2.64-2.58.84 0 1.68.36 2.16 1.14a11.56 11.56 0 0 1 6.66-2.1c3.6 0 6.84 1.62 8.94 4.26 2.1-2.64 5.28-4.26 8.88-4.26 6.36 0 11.52 5.1 11.52 11.4v18.9c.001 1.68-1.26 2.58-2.64 2.58zm37.8 0c-3.3 0-4.8-2.34-5.34-3.42-2.4 2.64-5.88 4.44-10.56 4.44-9.78 0-15.06-8.04-15.06-16.98s5.4-16.92 15.06-16.92c4.2 0 7.56 1.5 9.9 3.96v-.24c0-.66.24-2.7 2.52-2.7 1.26 0 2.64.66 2.64 2.52v23.16c0 .78.54 1.08.84 1.08 1.68 0 2.58 1.2 2.58 2.58 0 1.26-.9 2.52-2.58 2.52zm-15.9-27.78c-6 0-9.9 4.68-9.9 11.82 0 7.2 3.9 11.88 9.9 11.88 6.06 0 9.9-4.68 9.9-11.88.001-7.14-3.84-11.82-9.9-11.82zM949.486 82h-21.48c-2.88 0-2.94-1.98-2.94-2.88 0-.36.18-.9.54-1.32l18.42-22.56h-16.44c-1.74 0-2.58-1.2-2.58-2.52 0-1.38.84-2.58 2.52-2.58h21.9c1.62 0 2.52 1.14 2.52 2.4 0 .6-.24 1.2-.66 1.74l-18.3 22.62h16.44c1.68 0 2.58 1.2 2.58 2.58-.001 1.26-.902 2.52-2.52 2.52zm8.7-36.72a4.32 4.32 0 1 1 0-8.639 4.32 4.32 0 1 1 0 8.639zm0 36.72c-1.32 0-2.64-.9-2.64-2.52V52.72c0-1.68 1.32-2.58 2.64-2.58 1.26 0 2.52.9 2.52 2.58v26.76c-.001 1.68-1.26 2.52-2.52 2.52zm32.46 0c-1.32 0-2.52-.9-2.52-2.52V62.8c0-4.68-3.9-8.58-8.58-8.58-4.62 0-8.52 3.9-8.52 8.58v16.62c0 1.68-1.26 2.64-2.64 2.64-1.26 0-2.52-.9-2.52-2.58V52.66c0-1.74 1.26-2.52 2.52-2.52 1.2 0 2.28.66 2.58 1.98 2.34-1.86 5.28-3 8.58-3 7.44 0 13.68 6.18 13.68 13.68v16.62c.001 1.68-1.2 2.58-2.578 2.58zm21.84 13.68c-3.66 0-12.72-1.32-12.72-4.92 0-1.38 1.26-2.7 2.58-2.7 1.38 0 .18.18 3.36 1.38 1.44.54 3.6 1.14 6.78 1.14 6.66 0 9.9-3.18 9.9-9.48v-2.7c-2.34 2.22-5.7 3.6-9.9 3.6-9.48 0-15.06-6.72-15.06-15.96 0-9 5.4-16.92 15.06-16.92 4.2 0 7.44 1.26 9.9 3.84v-.24c0-1.68 1.38-2.58 2.58-2.58 1.26 0 2.58.9 2.58 2.58V81.1c.002 9.54-5.697 14.58-15.057 14.58zm0-41.46c-6 0-9.9 4.68-9.9 11.82 0 6.84 3.6 10.86 9.9 10.86s9.9-4.02 9.9-10.86c.001-7.14-3.84-11.82-9.9-11.82z"/></g><defs ><path id="C" d="M616.325 1046.318c-3.22 0-5.02-2.64-5.02-5.662 0-3 1.8-5.64 5.02-5.64s5.02 2.64 5.02 5.64c0 3.022-1.8 5.662-5.02 5.662zm0-10.162c-2.36 0-3.88 1.9-3.88 4.5s1.52 4.52 3.88 4.52c2.38 0 3.88-1.92 3.88-4.52s-1.5-4.5-3.88-4.5z"/><path id="D" d="M640.064 1036.336a3.42 3.42 0 0 0-3.421 3.42v5.662a.56.56 0 0 1-.561.561c-.28 0-.58-.2-.58-.56v-9.502c0-.36.3-.56.58-.56a.56.56 0 0 1 .561.561v.82c.9-.98 2.08-1.54 3.42-1.54a.58.58 0 0 1 .58.561.58.58 0 0 1-.58.58z"/><path id="E" d="M661.826 1041.236h-8.302c.18 2.28 1.66 3.94 3.84 3.94 1.08 0 2.36-.48 2.94-1.38.14-.22.3-.28.48-.28.3 0 .62.24.62.54 0 .18 0 .22-.38.658-.92 1.082-2.26 1.602-3.66 1.602-3.22 0-5.02-2.64-5.02-5.662 0-3 1.8-5.64 5.02-5.64s5.02 2.66 5.02 5.64c.001.3-.28.58-.56.58zm-4.46-5.08c-2.4 0-3.66 1.84-3.84 3.94h7.7c-.18-2.28-1.66-3.94-3.86-3.94z"/><path id="F" d="M688.465 1045.98c-.28 0-.58-.2-.58-.56v-5.842c0-1.9-1.52-3.42-3.42-3.42a3.42 3.42 0 0 0-3.421 3.42v5.842a.56.56 0 0 1-.561.561c-.28 0-.58-.2-.58-.56v-9.502c0-.36.3-.56.58-.56a.56.56 0 0 1 .561.561v.64c.9-.98 2.08-1.54 3.42-1.54 2.48 0 4.56 2.06 4.56 4.56v5.842a.56.56 0 0 1-.561.56z"/><path id="G" d="M738.505 1045.98h-.02c-.66 0-1.6-.36-1.98-1.56-.84 1.18-2.14 1.9-3.88 1.9-3.26 0-5.02-2.682-5.02-5.662 0-3.02 1.8-5.64 5.02-5.64 1.74 0 3.04.72 3.88 1.88v-.98c0-.32.26-.56.58-.56.28 0 .56.2.56.56v8.062c0 1.28 1.44.48 1.44 1.44a.55.55 0 0 1-.58.562zm-5.88-9.823c-2.36 0-3.88 1.9-3.88 4.5s1.52 4.52 3.88 4.52c2.38 0 3.88-1.92 3.88-4.52s-1.5-4.5-3.88-4.5z"/><path id="H" d="M771.443 1045.98c-.28 0-.58-.2-.58-.56v-5.842c0-1.9-1.52-3.42-3.42-3.42a3.42 3.42 0 0 0-3.421 3.42v5.842a.56.56 0 0 1-.561.561c-.28 0-.58-.2-.58-.56v-9.502c0-.36.3-.56.58-.56a.56.56 0 0 1 .561.561v.64c.9-.98 2.08-1.54 3.42-1.54 2.48 0 4.56 2.06 4.56 4.56v5.842c0 .358-.3.56-.56.56z"/><path id="I" d="M970.66 1036.156l-5.42 12.822c-.4.94-1.22 1.2-2.14 1.2h-.88c-.36 0-.56-.3-.56-.58 0-.262.2-.56.56-.56h.88c.44 0 .9-.02 1.08-.48l1.14-2.72-4.142-9.682c-.04-.1-.04-.18-.04-.26 0-.32.28-.54.58-.54.18 0 .4.08.5.34l3.722 8.682 3.68-8.682a.52.52 0 0 1 .52-.34c.3 0 .56.22.56.54-.001.082-.001.162-.04.26z"/><path id="J" d="M85.14 156.4a13.92 13.92 0 0 1 .81-3.601c.42-1.12 1-2.1 1.7-2.94s1.6-1.5 2.64-1.98 2.26-.72 3.66-.72c1.2 0 2.38.2 3.54.63a8.53 8.53 0 0 1 3.09 1.95c.9.88 1.63 1.98 2.2 3.3s.84 2.88.84 4.68c0 3.08-.55 5.47-1.65 7.17s-2.43 2.71-4 3.03v.12c1.2.4 2.2.97 3.03 1.7a9.05 9.05 0 0 1 1.979 2.55c.5.96.85 2 1.05 3.12s.3 2.26.3 3.42c0 2.24-.3 4.16-.9 5.76s-1.39 2.93-2.37 4-2.1 1.84-3.36 2.34a10.56 10.56 0 0 1-3.93.75c-1.44 0-2.75-.27-3.93-.8s-2.2-1.3-3.06-2.28-1.53-2.14-2-3.48-.72-2.8-.72-4.35h3.96c.2 2.36.8 4.17 1.83 5.43s2.49 1.9 4.4 1.9c.72 0 1.42-.19 2.1-.57s1.3-.95 1.83-1.7.98-1.7 1.32-2.85.5-2.45.5-3.93c0-1.8-.2-3.3-.57-4.47s-.97-2.12-1.77-2.82-1.82-1.2-3.06-1.47-2.72-.42-4.44-.42v-3.6c1.6 0 2.98-.12 4.14-.36s2.11-.66 2.85-1.26 1.28-1.44 1.62-2.52.5-2.46.5-4.14c0-2.6-.46-4.45-1.38-5.55s-2.14-1.65-3.66-1.65c-.92 0-1.7.18-2.34.54s-1.17.83-1.6 1.4a5.59 5.59 0 0 0-.899 1.95c-.18.72-.29 1.46-.33 2.22l-3.96-.48z"/><path id="K" d="M114.96 185.44v6l-3.6 8.64h-1.8l2.76-9h-2.4v-5.64h5.04z"/><path id="L" d="M164.697 169.42c0 3.92-.2 7.28-.63 10.08s-1.06 5.1-1.92 6.9-1.95 3.13-3.27 3.99-2.86 1.3-4.62 1.3-3.3-.43-4.62-1.3-2.41-2.19-3.27-3.99-1.5-4.1-1.92-6.9-.63-6.16-.63-10.08.2-7.28.63-10.08 1.06-5.1 1.92-6.9 1.95-3.13 3.27-4 2.86-1.3 4.62-1.3 3.3.43 4.62 1.3 2.4 2.19 3.27 4 1.5 4.1 1.92 6.9.63 6.16.63 10.08zm-4.32 0c0-3.56-.13-6.53-.4-8.9s-.65-4.3-1.17-5.73-1.16-2.47-1.92-3.1a4.06 4.06 0 0 0-2.641-.931c-1 0-1.88.31-2.64.93s-1.4 1.65-1.92 3.1-.9 3.35-1.17 5.73-.4 5.35-.4 8.9.13 6.53.4 8.9.65 4.3 1.17 5.73 1.16 2.47 1.92 3.1 1.64.93 2.64.93 1.88-.3 2.64-.93 1.4-1.65 1.92-3.1.91-3.35 1.17-5.73.4-5.35.4-8.9z"/><path id="M" d="M317.963 191.08h-.028c-.924 0-2.24-.504-2.77-2.184-1.176 1.65-2.996 2.66-5.432 2.66-4.564 0-7.028-3.752-7.028-7.924 0-4.228 2.52-7.896 7.028-7.896 2.436 0 4.256 1.008 5.432 2.632v-1.372c0-.448.364-.784.812-.784.393 0 .784.28.784.784v11.284c0 1.792 2.017.672 2.017 2.016a.77.77 0 0 1-.814.785zm-8.232-13.748c-3.305 0-5.433 2.66-5.433 6.3s2.128 6.328 5.433 6.328c3.332 0 5.432-2.688 5.432-6.328s-2.1-6.3-5.432-6.3z"/><path id="N" d="M100.86 230.022c-.532 0-1.102-.38-1.102-1.063v-1.216c-1.596 1.86-3.914 2.925-6.497 2.925-4.71 0-8.663-3.95-8.663-8.662V210.91c0-.684.57-1.063 1.102-1.063.494 0 1.064.38 1.064 1.063v11.095a6.47 6.47 0 1 0 12.994 0V210.91c0-.684.57-1.063 1.102-1.063.494 0 1.064.38 1.064 1.063v18.048c0 .683-.57 1.063-1.064 1.063z"/><path id="O" d="M174.312 230.022c-.532 0-1.102-.38-1.102-1.063v-11.095a6.47 6.47 0 0 0-6.497-6.497c-3.57 0-6.497 2.888-6.497 6.497v11.095c0 .684-.57 1.063-1.064 1.063-.532 0-1.102-.38-1.102-1.063V210.91c0-.684.57-1.063 1.102-1.063.494 0 1.064.38 1.064 1.063v1.216c1.7-1.86 3.952-2.926 6.497-2.926 4.71 0 8.663 3.914 8.663 8.663v11.095c0 .683-.57 1.063-1.064 1.063z"/><path id="P" d="M300.244 230.022h-1.178c-3 0-4.483-1.48-4.483-4.445v-13.564h-1.938c-.684 0-1.064-.57-1.064-1.102 0-.494.38-1.063 1.064-1.063h1.938v-5.813c0-.684.57-1.063 1.102-1.063s1.064.38 1.064 1.063v5.813h3.496c.684 0 1.063.57 1.063 1.063 0 .532-.38 1.102-1.063 1.102h-3.496v13.564c0 1.86.532 2.28 2.317 2.28h1.178c.684 0 1.063.57 1.063 1.103 0 .493-.38 1.063-1.063 1.063z"/><path id="Q" d="M304.348 206.2a2.14 2.14 0 1 1 0-4.332 2.14 2.14 0 1 1 0 4.332zm0 23.822c-.532 0-1.102-.342-1.102-1.063V210.91c0-.684.532-1.063 1.102-1.063.494 0 1.064.342 1.064 1.063v18.048c0 .683-.494 1.063-1.064 1.063z"/><path id="R" d="M317.95 211.708c-3.57 0-6.497 2.888-6.497 6.497v10.753c0 .684-.57 1.063-1.063 1.063-.532 0-1.102-.38-1.102-1.063V210.9c0-.684.57-1.063 1.102-1.063.494 0 1.063.38 1.063 1.063v1.558c1.7-1.86 3.952-2.925 6.497-2.925.684 0 1.102.57 1.102 1.063 0 .533-.418 1.102-1.102 1.102z"/><path id="S" d="M336.562 221.017h-15.768c.342 4.332 3.154 7.485 7.295 7.485 2.052 0 4.483-.912 5.585-2.622.266-.418.57-.53.912-.53.57 0 1.178.455 1.178 1.025 0 .342 0 .418-.722 1.254-1.748 2.052-4.293 3.04-6.953 3.04-6.117 0-9.537-5.015-9.537-10.752 0-5.7 3.42-10.715 9.537-10.715s9.537 5.054 9.537 10.715c0 .57-.532 1.102-1.064 1.102zm-8.473-9.65c-4.56 0-6.953 3.495-7.295 7.485h14.628c-.34-4.332-3.153-7.485-7.333-7.485z"/><path id="T" d="M189.396 888.18c0 1.56-.24 3.04-.72 4.44s-1.18 2.62-2.1 3.66-2.04 1.87-3.36 2.5-2.82.93-4.5.93-3.18-.3-4.5-.93-2.44-1.45-3.36-2.5-1.62-2.26-2.1-3.66-.72-2.88-.72-4.44c0-2.68.64-5 1.92-6.96s2.96-3.68 5.04-5.16c-1.92-1.52-3.4-3.12-4.44-4.8s-1.56-3.8-1.56-6.36c0-1.44.25-2.75.75-3.93a9.31 9.31 0 0 1 2.07-3.061c.88-.86 1.9-1.53 3.1-2s2.45-.72 3.8-.72 2.63.24 3.8.72 2.2 1.15 3.1 2 1.57 1.88 2.07 3.06.75 2.5.75 3.93c0 2.56-.52 4.68-1.56 6.36s-2.52 3.28-4.44 4.8c2.08 1.48 3.76 3.2 5.04 5.16s1.92 4.28 1.92 6.96zm-4.32.18c0-1.16-.17-2.22-.5-3.18a10.4 10.4 0 0 0-1.38-2.64 14.11 14.11 0 0 0-2.01-2.221 31.2 31.2 0 0 0-2.46-1.979l-2.46 1.98c-.76.68-1.43 1.42-2 2.22s-1.04 1.68-1.38 2.64-.5 2.02-.5 3.18c0 .88.12 1.78.36 2.7s.62 1.75 1.14 2.5a6.42 6.42 0 0 0 1.98 1.83c.8.48 1.76.72 2.88.72s2.08-.24 2.88-.72 1.46-1.1 1.98-1.83.9-1.57 1.14-2.5a10.66 10.66 0 0 0 .36-2.7zm-.96-23.94a6.63 6.63 0 0 0-.33-2.04c-.22-.68-.55-1.3-1-1.83s-1-.97-1.68-1.3-1.48-.48-2.4-.48-1.72.16-2.4.48-1.24.75-1.68 1.3a5.56 5.56 0 0 0-.99 1.83 6.6 6.6 0 0 0-.33 2.04c0 2.2.49 4.1 1.47 5.7s2.29 2.9 3.93 3.9c1.64-1 2.95-2.3 3.93-3.9s1.47-3.5 1.47-5.7z"/><path id="U" d="M248.553 877.44c0 3.92-.2 7.28-.63 10.08s-1.06 5.1-1.92 6.9-1.95 3.13-3.27 3.99-2.86 1.3-4.62 1.3-3.3-.43-4.62-1.3-2.41-2.19-3.27-3.99-1.5-4.1-1.92-6.9-.63-6.16-.63-10.08.2-7.28.63-10.08 1.06-5.1 1.92-6.9 1.95-3.13 3.27-4 2.86-1.3 4.62-1.3 3.3.43 4.62 1.3 2.4 2.19 3.27 4 1.5 4.1 1.92 6.9.63 6.16.63 10.08zm-4.32 0c0-3.56-.13-6.53-.4-8.9s-.65-4.3-1.17-5.73-1.16-2.47-1.92-3.1-1.64-.93-2.64-.93-1.88.31-2.64.93-1.4 1.65-1.92 3.1-.9 3.35-1.17 5.73-.4 5.35-.4 8.9.13 6.53.4 8.9.65 4.3 1.17 5.73 1.16 2.47 1.92 3.1a4.05 4.05 0 0 0 2.64.93c1 0 1.88-.3 2.64-.93s1.4-1.65 1.92-3.1.9-3.35 1.17-5.73.4-5.35.4-8.9z"/><path id="V" d="M171.54 940.1c-2.052 0-3.76-1.9-3.76-4.027v-22.188c0-.684.57-1.063 1.102-1.063.494 0 1.063.38 1.063 1.063v22.188c0 2.432 2.698 1.026 2.698 2.736 0 .646-.456 1.29-1.102 1.29z"/><path id="W" d="M183.242 940.528c-6.117 0-9.537-5.015-9.537-10.752 0-5.7 3.42-10.715 9.537-10.715s9.537 5.016 9.537 10.715c0 5.738-3.42 10.752-9.537 10.752zm0-19.3c-4.483 0-7.37 3.61-7.37 8.55s2.887 8.587 7.37 8.587c4.52 0 7.37-3.647 7.37-8.587s-2.85-8.55-7.37-8.55z"/><path id="X" d="M237.694 939.883h-.038c-1.254 0-3.04-.684-3.76-2.964-1.596 2.242-4.065 3.61-7.37 3.61-6.193 0-9.537-5.09-9.537-10.752 0-5.737 3.42-10.715 9.537-10.715 3.306 0 5.775 1.368 7.37 3.572v-1.862c0-.607.494-1.063 1.102-1.063.532 0 1.064.38 1.064 1.063v15.312c0 2.432 2.736.912 2.736 2.736-.001.493-.343 1.064-1.103 1.064zm-11.17-18.655c-4.483 0-7.37 3.61-7.37 8.55s2.887 8.587 7.37 8.587c4.52 0 7.37-3.647 7.37-8.587s-2.85-8.55-7.37-8.55z"/><path id="Y" d="M181.76 975.482c-.532 0-1.102-.38-1.102-1.063v-11.095a6.47 6.47 0 0 0-6.497-6.497c-3.57 0-6.497 2.888-6.497 6.497v11.095c0 .684-.57 1.063-1.063 1.063-.532 0-1.102-.38-1.102-1.063V956.37c0-.684.57-1.063 1.102-1.063.494 0 1.063.38 1.063 1.063v1.216c1.7-1.86 3.952-2.926 6.497-2.926 4.71 0 8.663 3.914 8.663 8.663v11.095c-.001.684-.57 1.063-1.064 1.063z"/><path id="Z" d="M1020.65 914.466c-.727 0-1.387-.495-1.387-1.386v-9.176c0-2.574-2.146-4.72-4.72-4.72-2.54 0-4.687 2.146-4.687 4.72v9.143c0 .924-.693 1.452-1.452 1.452-.693 0-1.386-.495-1.386-1.42v-14.754c0-.957.692-1.386 1.386-1.386.66 0 1.254.363 1.42 1.09 1.287-1.023 2.904-1.65 4.72-1.65 4.093 0 7.525 3.4 7.525 7.525v9.143c.001.924-.66 1.42-1.418 1.42z"/><path id="a" d="M963.957 954.31c-2.54 0-4.687 2.146-4.687 4.72v9.143c0 .924-.693 1.42-1.452 1.42-.693 0-1.386-.495-1.386-1.386v-14.72c0-.924.76-1.42 1.386-1.42.66 0 1.287.363 1.42 1.122a7.63 7.63 0 0 1 4.72-1.684c.957 0 1.452.66 1.452 1.42 0 .725-.495 1.386-1.452 1.386z"/><path id="b" d="M93.84 82c-1.32 0-2.52-.9-2.52-2.52V62.8c0-4.68-3.9-8.58-8.58-8.58-4.62 0-8.52 3.9-8.52 8.58v16.62c0 1.68-1.26 2.64-2.64 2.64-1.26 0-2.52-.9-2.52-2.58V41.862c0-1.74 1.26-2.58 2.52-2.58 1.38 0 2.64.84 2.64 2.52v10.38c2.22-2.1 5.22-3.06 8.52-3.06 7.44 0 13.68 6.18 13.68 13.68v16.62c0 1.68-1.2 2.58-2.58 2.58z"/><path id="c" d="M128.16 68.68h-22.2c.84 5.64 4.44 9.24 9.72 9.24 2.7 0 5.4-.96 7.14-3.12.54-.6 1.14-.96 1.86-.96 1.32 0 2.7 1.2 2.7 2.64 0 .72-.18 1.26-1.44 2.52-2.7 2.64-6.42 4.02-10.26 4.02-9.66 0-15.06-7.98-15.06-16.98 0-8.94 5.4-16.92 15.06-16.92 9.78 0 15 7.98 15 16.92 0 1.32-.96 2.64-2.52 2.64zm-12.48-14.46c-5.64 0-8.94 4.14-9.72 9.3h19.44c-.84-5.76-4.44-9.3-9.72-9.3z"/><path id="d" d="M194.938 83.02c-9.66 0-15.06-7.92-15.06-16.98 0-9 5.4-16.92 15.06-16.92s15.06 7.92 15.06 16.92c0 9.06-5.4 16.98-15.06 16.98zm0-28.8c-6 0-9.9 4.68-9.9 11.82 0 7.2 3.9 11.88 9.9 11.88 6.06 0 9.9-4.68 9.9-11.88.001-7.14-3.84-11.82-9.9-11.82z"/><path id="e" d="M224.878 82h-1.02c-5.7 0-7.86-3-7.86-7.92V55.24h-1.8c-1.44 0-2.58-1.14-2.58-2.52 0-1.44 1.14-2.58 2.52-2.58h1.8v-8.34c0-1.68 1.26-2.52 2.58-2.52s2.52.84 2.52 2.52v8.34h3.84c1.68 0 2.52 1.38 2.52 2.52 0 1.44-.96 2.58-2.52 2.58h-3.84v19.38c0 1.68.6 2.28 2.28 2.28h1.5c1.56 0 2.58 1.14 2.58 2.52 0 1.44-.96 2.58-2.52 2.58z"/><path id="f" d="M315.717 45.28a4.3 4.3 0 1 1 0-8.639 4.3 4.3 0 1 1 0 8.639zm0 36.72c-1.32 0-2.64-.9-2.64-2.52V52.72c0-1.68 1.32-2.58 2.64-2.58 1.26 0 2.52.9 2.52 2.58v26.76c0 1.68-1.26 2.52-2.52 2.52z"/><path id="g" d="M364.375 82.12c-3.24 0-6-2.76-6-6.12V41.862c0-1.74 1.26-2.58 2.58-2.58s2.58.84 2.58 2.52V76c0 .72.54 1.02.84 1.02 1.68 0 2.58 1.2 2.58 2.58 0 1.32-.9 2.52-2.58 2.52z"/></defs></svg>