<svg xmlns="http://www.w3.org/2000/svg" xmlns:xlink="http://www.w3.org/1999/xlink" viewBox="0 0 1080 1080"><style><![CDATA[.T{fill:none}.U{stroke:#fff}.V{stroke-width:2}.W{stroke-miterlimit:10}.X{stroke-linecap:round}]]></style><defs><linearGradient id="A" x1="11.716" y1="11.716" x2="1068.284" y2="1068.284" gradientUnits="userSpaceOnUse"><stop offset="0" stop-color="#0032b3"/><stop offset=".033" stop-color="#093baf"/><stop offset=".297" stop-color="#4f808f"/><stop offset=".536" stop-color="#86b776"/><stop offset=".74" stop-color="#aede63"/><stop offset=".901" stop-color="#c6f658"/><stop offset="1" stop-color="#cfff54"/></linearGradient><clipPath id="B"><rect width="1080" height="1080" rx="40" class="T"/></clipPath><linearGradient id="C" x1="-19.88" y1="-74.276" x2="333.109" y2="278.713" gradientUnits="userSpaceOnUse"><stop offset=".205" stop-color="#00338c"/><stop offset="1" stop-color="#2f405d"/></linearGradient><linearGradient id="D" x1="216.541" y1="951.741" x2="1066.779" y2="161.842" gradientUnits="userSpaceOnUse"><stop offset="0" stop-color="#579a78"/><stop offset="1" stop-color="#00338c"/></linearGradient><path id="E" d="M214.487 563.395a1.824 1.824 0 1 1 1.824-1.824 1.803 1.803 0 0 1-1.824 1.824z"/><path id="F" d="M243.35 563.94a7.259 7.259 0 0 1-6.208-3.04v1.6a.912.912 0 0 1-1.824 0v-21a.912.912 0 0 1 1.824 0v7.36a7.315 7.315 0 0 1 6.208-3.008c5.15 0 8.03 4.224 8.03 9.023 0 4.832-2.88 9.055-8.03 9.055zm0-16.255c-3.808 0-6.208 3.04-6.208 7.2s2.4 7.23 6.208 7.23 6.208-3.072 6.208-7.23-2.4-7.2-6.208-7.2z"/><path id="G" d="M278.614 563.395h-.992c-2.528 0-3.776-1.248-3.776-3.744v-11.423h-1.632a.912.912 0 0 1 0-1.824h1.632v-4.896a.899.899 0 0 1 .928-.896.874.874 0 0 1 .896.896v4.896h2.944a.912.912 0 0 1 0 1.824h-2.944v11.423c0 1.568.448 1.92 1.952 1.92h.992a.912.912 0 0 1 0 1.824z"/><path id="H" d="M312.63 555.81h-13.28c.288 3.648 2.656 6.304 6.144 6.304a5.784 5.784 0 0 0 4.704-2.208.839.839 0 0 1 .768-.448.978.978 0 0 1 .992.864c0 .288 0 .352-.608 1.056a7.556 7.556 0 0 1-5.856 2.56c-5.15 0-8.03-4.224-8.03-9.055 0-4.8 2.88-9.023 8.03-9.023s8.032 4.256 8.032 9.023a.969.969 0 0 1-.896.928zm-7.136-8.127c-3.84 0-5.855 2.944-6.144 6.304h12.32c-.288-3.648-2.656-6.304-6.176-6.304z"/><path id="I" d="M349.62 563.395a.899.899 0 0 1-.928-.896v-1.6a7.261 7.261 0 0 1-6.208 3.04c-5.15 0-8.03-4.224-8.03-9.055 0-4.8 2.88-9.023 8.03-9.023a7.316 7.316 0 0 1 6.208 3.008v-7.36a.912.912 0 0 1 1.824 0v21a.892.892 0 0 1-.896.896zm-7.136-15.71c-3.775 0-6.208 3.04-6.208 7.2s2.432 7.23 6.208 7.23c3.808 0 6.208-3.072 6.208-7.23s-2.4-7.2-6.208-7.2z"/><path id="J" d="M355.348 543.332a1.824 1.824 0 1 1 1.824-1.824 1.803 1.803 0 0 1-1.824 1.824zm0 20.063a.88.88 0 0 1-.928-.896v-15.2a.882.882 0 0 1 .928-.896.872.872 0 0 1 .896.896v15.2a.856.856 0 0 1-.896.896z"/><path id="K" d="M373.843 563.395a.899.899 0 0 1-.928-.896v-9.343a5.471 5.471 0 1 0-10.943 0v9.343a.912.912 0 0 1-1.824 0v-15.2a.912.912 0 0 1 1.824 0v1.024a7.299 7.299 0 0 1 12.767 4.832v9.343a.892.892 0 0 1-.896.896z"/><path id="L" d="M427.506 563.395a.899.899 0 0 1-.928-.896v-9.343a5.471 5.471 0 1 0-10.943 0v9.343a.912.912 0 0 1-1.824 0v-21a.912.912 0 0 1 1.824 0v6.815a7.107 7.107 0 0 1 5.471-2.464 7.355 7.355 0 0 1 7.296 7.295v9.343a.892.892 0 0 1-.896.896z"/><path id="M" d="M264.502 597.427a1.304 1.304 0 0 1-1.344-1.056 7.449 7.449 0 0 1-4.607 1.6 7.355 7.355 0 0 1-7.295-7.296v-8.863a1.376 1.376 0 0 1 2.751-.032v8.895a4.56 4.56 0 1 0 9.12 0v-8.863a1.276 1.276 0 0 1 1.344-1.408 1.309 1.309 0 0 1 1.376 1.376v14.303a1.275 1.275 0 0 1-1.344 1.344z"/><path id="N" d="M443.89 590.29h-11.84c.448 3.008 2.368 4.928 5.184 4.928a4.804 4.804 0 0 0 3.808-1.664 1.324 1.324 0 0 1 .992-.512 1.493 1.493 0 0 1 1.44 1.408c0 .384-.096.672-.768 1.344a7.797 7.797 0 0 1-5.472 2.144c-5.15 0-8.03-4.256-8.03-9.055 0-4.768 2.88-9.023 8.03-9.023 5.216 0 8 4.256 8 9.023a1.364 1.364 0 0 1-1.344 1.408zm-6.656-7.71c-3.007 0-4.768 2.208-5.184 4.96h10.368c-.448-3.072-2.368-4.96-5.184-4.96z"/><path id="O" d="M219.96 615.972a5.469 5.469 0 0 0-5.471 5.472v9.055a.912.912 0 0 1-1.824 0v-15.2a.912.912 0 0 1 1.824 0v1.312a7.306 7.306 0 0 1 5.471-2.464.912.912 0 1 1 0 1.824z"/><path id="P" d="M290.8 629.507a7.433 7.433 0 0 1-5.728 2.432c-5.15 0-8.03-4.224-8.03-9.055 0-4.8 2.88-9.023 8.03-9.023a7.433 7.433 0 0 1 5.728 2.432.848.848 0 0 1 .256.608 1.003 1.003 0 0 1-.928.96.943.943 0 0 1-.672-.32 5.64 5.64 0 0 0-4.384-1.856c-3.775 0-6.208 3.04-6.208 7.2s2.432 7.23 6.208 7.23a5.75 5.75 0 0 0 4.384-1.856.908.908 0 0 1 1.6.608.917.917 0 0 1-.256.64z"/><path id="Q" d="M318.095 632.003c-1.92 0-5.15-.672-6.27-2.528a.773.773 0 0 1-.128-.48.873.873 0 0 1 1.632-.512c1.152 1.408 3.2 1.696 4.768 1.696 3.104 0 4.672-1.024 4.672-3.104 0-4.832-10.496-2.27-10.496-8.67 0-3.23 3.232-4.48 6.144-4.48 1.664 0 4.224.576 5.504 1.856a.896.896 0 0 1 .288.608 1.037 1.037 0 0 1-.992.96.848.848 0 0 1-.608-.256 6.397 6.397 0 0 0-4.192-1.344c-2.815 0-4.32 1.088-4.32 2.656 0 4.48 10.495 2.112 10.495 8.67 0 3.648-3.2 4.928-6.496 4.928z"/><path id="R" d="M389.454 632.003c-1.92 0-5.15-.672-6.27-2.528a.773.773 0 0 1-.128-.48.873.873 0 0 1 1.632-.512c1.152 1.408 3.2 1.696 4.768 1.696 3.104 0 4.672-1.024 4.672-3.104 0-4.832-10.496-2.27-10.496-8.67 0-3.23 3.232-4.48 6.144-4.48 1.664 0 4.224.576 5.504 1.856a.896.896 0 0 1 .288.608 1.037 1.037 0 0 1-.992.96.848.848 0 0 1-.608-.256 6.398 6.398 0 0 0-4.192-1.344c-2.815 0-4.32 1.088-4.32 2.656 0 4.48 10.495 2.112 10.495 8.67 0 3.648-3.2 4.928-6.496 4.928z"/><path id="S" d="M426.254 631.94c-5.15 0-8.03-4.224-8.03-9.055 0-4.8 2.88-9.023 8.03-9.023s8.032 4.224 8.032 9.023c0 4.832-2.88 9.055-8.032 9.055zm0-16.255c-3.775 0-6.208 3.04-6.208 7.2s2.432 7.23 6.208 7.23c3.808 0 6.208-3.072 6.208-7.23s-2.4-7.2-6.208-7.2z"/><path id="T" d="M285.08 665.395h-.992c-2.528 0-3.776-1.248-3.776-3.744v-11.423h-1.632a.912.912 0 0 1 0-1.824h1.632v-4.896a.899.899 0 0 1 .928-.896.873.873 0 0 1 .896.896v4.896h2.944a.912.912 0 0 1 0 1.824h-2.944v11.423c0 1.568.448 1.92 1.952 1.92h.992a.912.912 0 0 1 0 1.824z"/><path id="U" d="M304.95 665.395h-.032a3.313 3.313 0 0 1-3.167-2.496 7.261 7.261 0 0 1-6.208 3.04c-5.215 0-8.03-4.288-8.03-9.055 0-4.832 2.88-9.023 8.03-9.023a7.316 7.316 0 0 1 6.208 3.008V649.3a.901.901 0 0 1 .928-.896.873.873 0 0 1 .896.896v12.895c0 2.048 2.304.768 2.304 2.304a.88.88 0 0 1-.928.896zm-9.408-15.71c-3.775 0-6.208 3.04-6.208 7.2s2.432 7.23 6.208 7.23c3.808 0 6.208-3.072 6.208-7.23s-2.4-7.2-6.208-7.2z"/><path id="V" d="M364.182 665.587a3.353 3.353 0 0 1-3.168-3.392V643.51a.912.912 0 0 1 1.824 0v18.687c0 2.048 2.27.864 2.27 2.304a1.032 1.032 0 0 1-.928 1.088z"/><path id="W" d="M149.325 834.193c-3.887 0-6.06-3.187-6.06-6.83 0-3.62 2.172-6.808 6.06-6.808s6.06 3.187 6.06 6.808c0 3.645-2.172 6.83-6.06 6.83zm0-12.263c-2.85 0-4.683 2.293-4.683 5.432s1.834 5.455 4.683 5.455c2.873 0 4.683-2.317 4.683-5.455s-1.8-5.432-4.683-5.432z"/><path id="X" d="M168.583 882.478h-10.018c.217 2.752 2.003 4.755 4.635 4.755a4.364 4.364 0 0 0 3.548-1.665.633.633 0 0 1 .579-.338.738.738 0 0 1 .749.651c0 .217 0 .266-.458.797a5.699 5.699 0 0 1-4.417 1.931c-3.887 0-6.06-3.187-6.06-6.83 0-3.62 2.172-6.808 6.06-6.808s6.06 3.21 6.06 6.808a.731.731 0 0 1-.676.7zm-5.383-6.132c-2.897 0-4.418 2.22-4.635 4.756h9.293c-.217-2.752-2.003-4.756-4.66-4.756z"/><path id="Y" d="M309.306 174.66h-.992a1.414 1.414 0 0 0-1.408 1.375v2.624h2.4a.871.871 0 0 1 .896.896.899.899 0 0 1-.896.928h-2.4v14.27a.873.873 0 0 1-.896.896.855.855 0 0 1-.896-.896v-14.27h-2.208a.912.912 0 0 1 0-1.824h2.208v-2.624a3.175 3.175 0 0 1 3.168-3.167h1.024a.908.908 0 0 1 .928.928.858.858 0 0 1-.928.864z"/><path id="Z" d="M327.16 202.946c-2.72 0-6.56-1.024-6.56-2.176a1.015 1.015 0 0 1 .928-1.024 11.534 11.534 0 0 1 1.696.768 11.989 11.989 0 0 0 3.936.608c4.096 0 6.208-2.016 6.208-5.952v-2.24a7.641 7.641 0 0 1-6.208 2.72c-5.055 0-8.03-3.584-8.03-8.51 0-4.8 2.88-9.023 8.03-9.023a7.316 7.316 0 0 1 6.208 3.008v-1.536a.912.912 0 0 1 1.824 0v15.583c0 5.087-3.04 7.775-8.032 7.775zm0-23.006c-3.775 0-6.208 3.04-6.208 7.2 0 4.127 2.272 6.688 6.208 6.688s6.208-2.56 6.208-6.687c0-4.16-2.4-7.2-6.208-7.2z"/><path id="a" d="M342.265 195.842a3.353 3.353 0 0 1-3.168-3.392v-18.687a.912.912 0 0 1 1.824 0v18.687c0 2.048 2.27.864 2.27 2.304a1.032 1.032 0 0 1-.928 1.088z"/><path id="b" d="M399.895 195.65h-.032a3.313 3.313 0 0 1-3.167-2.496 7.261 7.261 0 0 1-6.208 3.04c-5.215 0-8.03-4.288-8.03-9.055 0-4.832 2.88-9.023 8.03-9.023a7.316 7.316 0 0 1 6.208 3.008v-1.568a.901.901 0 0 1 .928-.896.873.873 0 0 1 .896.896v12.895c0 2.048 2.304.768 2.304 2.304a.88.88 0 0 1-.928.896zm-9.408-15.71c-3.775 0-6.208 3.04-6.208 7.2s2.432 7.23 6.208 7.23c3.808 0 6.208-3.072 6.208-7.23s-2.4-7.2-6.208-7.2z"/><path id="c" d="M268.47 263.65a.873.873 0 0 1-.896-.896v-10.75a4.08 4.08 0 0 0-8.159-.032v10.783a.873.873 0 0 1-.896.896.899.899 0 0 1-.928-.896v-10.75a4.064 4.064 0 0 0-8.127-.032v10.783a.912.912 0 0 1-1.824 0v-15.2a.912.912 0 0 1 1.824 0v.192a5.814 5.814 0 0 1 4.063-1.632 5.935 5.935 0 0 1 4.992 2.72 5.907 5.907 0 0 1 10.879 3.136v10.783a.899.899 0 0 1-.928.896z"/><path id="d" d="M104.714 1045.51a1.36 1.36 0 0 1-1.4-1.101 7.763 7.763 0 0 1-4.804 1.668 7.666 7.666 0 0 1-7.604-7.605v-9.24a1.434 1.434 0 0 1 2.868-.033v9.272a4.753 4.753 0 1 0 9.507 0v-9.24a1.33 1.33 0 0 1 1.4-1.468 1.364 1.364 0 0 1 1.435 1.435v14.9a1.328 1.328 0 0 1-1.401 1.4z"/><path id="e" d="M500.087 1046.358c-1.2 0-3.22-.42-3.92-1.58a.482.482 0 0 1-.08-.3.546.546 0 0 1 1.021-.32 3.812 3.812 0 0 0 2.98 1.061c1.94 0 2.92-.64 2.92-1.94 0-3.02-6.562-1.42-6.562-5.422 0-2.02 2.02-2.8 3.84-2.8a5.415 5.415 0 0 1 3.44 1.16.558.558 0 0 1 .18.38.648.648 0 0 1-.62.6.531.531 0 0 1-.38-.16 4.001 4.001 0 0 0-2.62-.84c-1.76 0-2.7.68-2.7 1.66 0 2.8 6.562 1.32 6.562 5.422 0 2.28-2 3.08-4.06 3.08z"/><path id="f" d="M510.808 1046.318c-3.22 0-5.02-2.64-5.02-5.66 0-3 1.8-5.64 5.02-5.64s5.02 2.64 5.02 5.64c0 3.02-1.8 5.66-5.02 5.66zm0-10.162c-2.36 0-3.88 1.9-3.88 4.5s1.52 4.52 3.88 4.52c2.38 0 3.88-1.92 3.88-4.52s-1.5-4.5-3.88-4.5z"/><path id="g" d="M526.588 1045.978a.562.562 0 0 1-.58-.561v-.64a4.442 4.442 0 0 1-3.421 1.54 4.61 4.61 0 0 1-4.561-4.561v-5.842a.57.57 0 0 1 1.14 0v5.842a3.421 3.421 0 1 0 6.842 0v-5.842a.57.57 0 0 1 1.141 0v9.502a.558.558 0 0 1-.561.561z"/><path id="h" d="M534.547 1036.336a3.418 3.418 0 0 0-3.421 3.42v5.66a.57.57 0 0 1-1.141 0v-9.502a.57.57 0 0 1 1.141 0v.82a4.565 4.565 0 0 1 3.421-1.54.57.57 0 1 1 0 1.141z"/><path id="i" d="M544.728 1044.797a4.645 4.645 0 0 1-3.58 1.521c-3.22 0-5.02-2.64-5.02-5.66 0-3 1.8-5.64 5.02-5.64a4.647 4.647 0 0 1 3.58 1.52.531.531 0 0 1 .16.381.627.627 0 0 1-.58.6.587.587 0 0 1-.42-.2 3.526 3.526 0 0 0-2.74-1.16c-2.36 0-3.88 1.9-3.88 4.5s1.52 4.52 3.88 4.52a3.596 3.596 0 0 0 2.74-1.16.587.587 0 0 1 .42-.2.594.594 0 0 1 .58.58.571.571 0 0 1-.16.399z"/><path id="j" d="M556.308 1041.237h-8.302c.18 2.28 1.66 3.94 3.84 3.94a3.615 3.615 0 0 0 2.94-1.381.525.525 0 0 1 .479-.28.611.611 0 0 1 .62.541c0 .18 0 .22-.38.66a4.72 4.72 0 0 1-3.66 1.601c-3.22 0-5.02-2.64-5.02-5.66 0-3 1.8-5.64 5.02-5.64s5.02 2.66 5.02 5.64a.606.606 0 0 1-.56.58zm-4.46-5.08c-2.4 0-3.66 1.84-3.84 3.94h7.7c-.18-2.28-1.66-3.94-3.86-3.94z"/><path id="k" d="M600.506 1045.978a.563.563 0 0 1-.58-.561v-5.84a3.42 3.42 0 1 0-6.841 0v5.84a.57.57 0 0 1-1.141 0v-9.502a.57.57 0 0 1 1.141 0v.64a4.563 4.563 0 0 1 7.981 3.021v5.84a.558.558 0 0 1-.561.561z"/><path id="l" d="M604.305 1033.435a1.14 1.14 0 1 1 1.141-1.14 1.127 1.127 0 0 1-1.141 1.14zm0 12.543a.55.55 0 0 1-.58-.561v-9.502a.551.551 0 0 1 .58-.56.545.545 0 0 1 .561.56v9.502a.536.536 0 0 1-.561.561z"/><path id="m" d="M638.785 1046.098a2.096 2.096 0 0 1-1.98-2.12v-11.683a.57.57 0 0 1 1.141 0v11.683c0 1.28 1.42.54 1.42 1.44a.645.645 0 0 1-.58.681z"/><path id="n" d="M862.484 1032.855h-3.88v12.563a.551.551 0 0 1-.58.561.545.545 0 0 1-.56-.561v-12.562h-3.88a.56.56 0 1 1 0-1.12h8.9a.56.56 0 1 1 0 1.12z"/><path id="o" d="M66.55 43.28a4.32 4.32 0 1 1 4.32-4.319 4.302 4.302 0 0 1-4.32 4.319zm0 36.72a2.52 2.52 0 0 1-2.64-2.52V50.72a2.534 2.534 0 0 1 2.64-2.58 2.472 2.472 0 0 1 2.52 2.58v26.76a2.421 2.421 0 0 1-2.52 2.52z"/><path id="p" d="M126.548 66.68h-22.2c.84 5.64 4.44 9.24 9.72 9.24a9.005 9.005 0 0 0 7.14-3.12 2.483 2.483 0 0 1 1.86-.96 2.8 2.8 0 0 1 2.7 2.64c0 .72-.18 1.26-1.44 2.52a14.622 14.622 0 0 1-10.26 4.02c-9.66 0-15.06-7.98-15.06-16.98 0-8.94 5.4-16.92 15.06-16.92 9.78 0 15 7.98 15 16.92a2.558 2.558 0 0 1-2.52 2.64zm-12.48-14.46c-5.64 0-8.94 4.14-9.72 9.3h19.44c-.84-5.76-4.44-9.3-9.72-9.3z"/><path id="q" d="M141.61 81.02c-3.3 0-8.82-1.02-11.64-4.5a2.655 2.655 0 0 1 2.16-4.26 2.464 2.464 0 0 1 1.86 1.02c1.86 2.04 4.92 2.64 7.62 2.64 5.4 0 7.14-1.86 7.14-4.56 0-7.68-18.3-2.94-18.3-15.3 0-6.54 6.12-8.94 11.82-8.94 3.24 0 10.86 1.62 10.86 4.98a2.694 2.694 0 0 1-2.52 2.7 3.612 3.612 0 0 1-1.98-.78c-1.62-1.38-3.96-1.8-6.36-1.8-4.98 0-6.72 1.86-6.72 3.84 0 7.14 18.36 2.52 18.36 15.3 0 7.08-5.94 9.66-12.3 9.66z"/><path id="r" d="M351.12 79.94a2.436 2.436 0 0 1-2.58-2.52 14.518 14.518 0 0 1-9.9 3.6c-9.66 0-15.06-7.92-15.06-16.98 0-9 5.4-16.92 15.06-16.92a13.225 13.225 0 0 1 9.9 3.9v-11.16a2.58 2.58 0 0 1 5.16-.06V77.42a2.436 2.436 0 0 1-2.58 2.52zm-12.48-27.72c-6 0-9.9 4.68-9.9 11.82 0 7.2 3.9 11.88 9.9 11.88 6.06 0 9.9-4.68 9.9-11.88 0-7.14-3.84-11.82-9.9-11.82z"/><path id="s" d="M458.158 80a5.839 5.839 0 0 1-5.34-3.42 13.747 13.747 0 0 1-10.56 4.44c-9.78 0-15.06-8.04-15.06-16.98s5.4-16.92 15.06-16.92a13.258 13.258 0 0 1 9.899 3.96v-.24a2.476 2.476 0 0 1 2.52-2.7 2.412 2.412 0 0 1 2.64 2.52v23.16a.971.971 0 0 0 .84 1.08 2.55 2.55 0 1 1 0 5.1zm-15.9-27.78c-6 0-9.9 4.68-9.9 11.82 0 7.2 3.9 11.88 9.9 11.88 6.06 0 9.9-4.68 9.9-11.88 0-7.14-3.84-11.82-9.9-11.82z"/><path id="t" d="M707.335 80h-1.02c-5.7 0-7.86-3-7.86-7.92V53.24h-1.8a2.55 2.55 0 0 1-.06-5.1h1.8v-8.34a2.436 2.436 0 0 1 2.58-2.52 2.39 2.39 0 0 1 2.52 2.52v8.34h3.84a2.487 2.487 0 0 1 2.52 2.52 2.441 2.441 0 0 1-2.52 2.58h-3.84v19.38c0 1.68.6 2.28 2.28 2.28h1.5a2.475 2.475 0 0 1 2.58 2.52 2.441 2.441 0 0 1-2.52 2.58z"/></defs><rect width="1080" height="1080" rx="40" fill="url(#A)"/><path d="M193.456 139.06v279.433A279.434 279.434 0 0 0 472.889 139.06z" fill="#00204a"/><g clip-path="url(#B)"><circle cx="193.456" cy="139.06" r="329.433" opacity=".3" class="T U V"/><path d="M472.89 139.06h0a279.433 279.433 0 1 0-558.866 0 279.434 279.434 0 0 0 279.433 279.434V139.06z" fill="url(#C)"/></g><g fill="#fff"><path d="M933.04 451.048a800.775 800.775 0 0 1-172.33 255.295 800.843 800.843 0 0 1-255.308 172.342C407.155 920.24 302.198 941.3 193.456 941.3v50.267c115.556 0 227.1-22.4 331.493-66.55a851.025 851.025 0 0 0 271.306-183.142 850.953 850.953 0 0 0 183.128-271.292q14.167-33.495 25.333-67.94L956.88 387.1q-10.512 32.398-23.84 63.936zm-739.584 419.89v50.267a792.395 792.395 0 0 0 146.62-13.533l-9.423-49.397a741.47 741.47 0 0 1-137.197 12.663z" opacity=".2"/><path d="M710.948 656.582a730.589 730.589 0 0 1-232.911 157.224 718.786 718.786 0 0 1-147.383 44.468l9.423 49.397a768.153 768.153 0 0 0 157.507-47.523 780.77 780.77 0 0 0 248.909-168.023 795.705 795.705 0 0 0 65.07-73.613L771.837 587.7a744.564 744.564 0 0 1-60.889 68.883z" opacity=".4"/></g><path d="M905.187 139.1c0 96.477-18.695 189.594-55.565 276.764A710.456 710.456 0 0 1 696.73 642.364a710.517 710.517 0 0 1-226.512 152.904c-87.166 36.868-180.285 55.562-276.762 55.562v-50.267c89.663 0 176.205-17.374 257.215-51.638A660.336 660.336 0 0 0 661.186 606.82 660.279 660.279 0 0 0 803.28 396.317c34.266-81.014 51.64-167.554 51.64-257.217zm90.48 0c0 85.484-13.03 168.625-38.79 248.012l47.836 15.543c27.374-84.362 41.22-172.714 41.22-263.555zm-20.107 0h-50.267c0 99.203-19.223 194.95-57.135 284.583a727.146 727.146 0 0 1-96.323 164.016l39.726 30.814a777.086 777.086 0 0 0 102.94-175.284c40.516-95.79 61.06-198.113 61.06-304.13z" fill="url(#D)"/><g fill="#fff"><path d="M118.388 594.76c-.008 5.335-1.374 11.382-.57 18.1.82 1.24 1.58 2.53 2.27 3.795.718-4.303 1.855-12.172 1.35-16.304-.193-1.585-1.362-3.485-3.05-5.6z"/><path d="M160.858 597.297c-4.008 3.246-6.68 1.527-11.262 1.718-2.035.085-4.625 1.81-6.876 3.7a26.146 26.146 0 0 0 2.149-8.887 142.835 142.835 0 0 0 9.5-13.901c5.154-8.972 3.245-22.096 3.245-22.096a91.229 91.229 0 0 1-3.054 9.879c-1.74 4.744-5.318 9.753-10.833 16.105-.766-5.804-.885-13.554 3.913-23.98 0 0-9.88 7.015-9.45 19.184.148 4.21.414 7.622.565 10.57-2.7 3.897-4.514 9.658-5.71 15.072l.85-6.314c2.434-19.184-1.718-23.48-3.722-33.645s2.433-20.474 2.433-20.474a33.213 33.213 0 0 0-7.219 15.606c-1.492 9.306 2.925 18.755 4.928 29.064 1.46 7.51-1.82 19.872-3.71 26.037.135-4.054.755-10.237 1.61-22.22 1.336-18.708-17.944-39.61-17.944-39.61 3.054 9.83 7.254 11.93 12.027 26.852a47.25 47.25 0 0 1 2.155 14.557c-1.89-5.6-6.442-10.127-11.447-14.11-2.02-3.104-3.798-5.736-4.308-8.972a14.47 14.47 0 0 1 1.575-9.306s-5.44 1.288-4.152 9.735a18.782 18.782 0 0 0 .411 1.975c-4.326-6.78-5.995-16.007-5.995-16.007a23.87 23.87 0 0 0 1.575 17.467c2.242 4.416 6.75 9.105 10.85 13.43a32.201 32.201 0 0 1 .603 5.038 87.537 87.537 0 0 1-.679 13.364 12.55 12.55 0 0 0-.897-.669c-6.968-4.676-11.263-8.54-12.695-12.193a53.402 53.402 0 0 0-2.959-6.323s.478 10.786 5.822 16.13c3.388 3.388 7.73 7.005 10.846 9.954a18.293 18.293 0 0 0 2.135 5.795c4.725 8.446 12.456 9.346 12.456 9.346l-.01-.02a.841.841 0 0 0 .697-.163 1.497 1.497 0 0 0 .356-.445c.96.574 2.376-.61 3.396-2.562 0 0 5.918-7.11 8.972-13.22s8.4-5.154 16.608-8.018 11.263-16.202 11.263-16.202a55.201 55.201 0 0 1-8.018 8.757zm-40.77 19.358c-.7-1.267-1.45-2.556-2.27-3.795-.804-6.717.562-12.764.57-18.1 1.688 2.105 2.857 4.005 3.05 5.6.503 4.13-.633 12-1.352 16.304z"/></g><g class="T U V W X"><path d="M193.456 139.06h0"/><path d="M199.46 139.06h843.475" stroke-dasharray="0 6.00338"/><path d="M1045.936 139.06h0"/></g><g opacity=".3" class="T U V W X"><path d="M414.286 310.353h0"/><path d="M419.015 314.022L809.198 616.68" stroke-dasharray="0 5.98552"/><path d="M811.563 618.513h0"/></g><g opacity=".3" class="T U V W X"><path d="M459.345 225.453h0"/><path d="M465.026 227.3l536.85 174.433" stroke-dasharray="0 5.9733"/><path d="M1004.716 402.654h0"/></g><g class="T U V W X"><path d="M193.456 139.06h0"/><path d="M193.456 145.04V847.84" stroke-dasharray="0 5.98126"/><path d="M193.456 850.83h0"/></g><g fill="#fff"><use xlink:href="#E"/><use xlink:href="#E" x="7.553"/><use xlink:href="#E" x="15.103"/><use xlink:href="#F"/><path d="M267.957 563.395a.899.899 0 0 1-.928-.896v-1.024a7.108 7.108 0 0 1-5.472 2.464 7.375 7.375 0 0 1-7.295-7.295V547.3a.912.912 0 0 1 1.824 0v9.343a5.472 5.472 0 0 0 10.943 0V547.3a.912.912 0 0 1 1.824 0v15.2a.892.892 0 0 1-.896.896z"/><use xlink:href="#G"/><path d="M294.838 542.404h-.992a1.414 1.414 0 0 0-1.408 1.376v2.624h2.4a.871.871 0 0 1 .896.896.899.899 0 0 1-.896.928h-2.4v14.27a.874.874 0 0 1-.896.896.855.855 0 0 1-.896-.896v-14.27h-2.208a.912.912 0 0 1 0-1.824h2.208v-2.624a3.175 3.175 0 0 1 3.168-3.167h1.024a.908.908 0 0 1 .928.928.857.857 0 0 1-.928.864z"/><use xlink:href="#H"/><use xlink:href="#H" x="18.494"/><use xlink:href="#I"/><use xlink:href="#J"/><use xlink:href="#K"/><path d="M385.65 570.7c-2.72 0-6.56-1.024-6.56-2.176a1.015 1.015 0 0 1 .928-1.024 11.535 11.535 0 0 1 1.696.768 11.99 11.99 0 0 0 3.936.608c4.096 0 6.208-2.016 6.208-5.952v-2.24a7.641 7.641 0 0 1-6.208 2.72c-5.055 0-8.03-3.583-8.03-8.5 0-4.8 2.88-9.023 8.03-9.023a7.316 7.316 0 0 1 6.208 3.008v-1.536a.912.912 0 0 1 1.824 0v15.583c0 5.088-3.04 7.775-8.032 7.775zm0-23.006c-3.775 0-6.208 3.04-6.208 7.2 0 4.127 2.272 6.688 6.208 6.688s6.208-2.56 6.208-6.687c0-4.16-2.4-7.2-6.208-7.2zm24.994 15.7h-.992c-2.528 0-3.776-1.248-3.776-3.744v-11.423h-1.632a.912.912 0 0 1 0-1.824h1.632v-4.896a.899.899 0 0 1 .928-.896.873.873 0 0 1 .896.896v4.896h2.944a.912.912 0 0 1 0 1.824H407.7v11.423c0 1.568.448 1.92 1.952 1.92h.992a.912.912 0 0 1 0 1.824z"/><use xlink:href="#L"/><use xlink:href="#H" x="133.82"/><path d="M471.345 563.395a.874.874 0 0 1-.896-.896v-10.75a4.08 4.08 0 0 0-8.159-.032V562.5a.873.873 0 0 1-.896.896.899.899 0 0 1-.928-.896v-10.75a4.064 4.064 0 0 0-8.127-.032V562.5a.912.912 0 0 1-1.824 0v-15.2a.912.912 0 0 1 1.824 0v.192a5.814 5.814 0 0 1 4.063-1.632 5.935 5.935 0 0 1 4.992 2.72 5.907 5.907 0 0 1 10.879 3.136V562.5a.899.899 0 0 1-.928.896zM215.67 597.46a3.265 3.265 0 0 1-3.2-3.264V576a1.376 1.376 0 0 1 2.752-.032v18.24a.505.505 0 0 0 .448.544 1.36 1.36 0 1 1 0 2.72zm5.12-19.648a2.304 2.304 0 1 1 2.304-2.304 2.294 2.294 0 0 1-2.304 2.304zm0 19.583a1.344 1.344 0 0 1-1.408-1.344v-14.27a1.351 1.351 0 0 1 1.408-1.376 1.318 1.318 0 0 1 1.344 1.376v14.27a1.291 1.291 0 0 1-1.344 1.344zm25.727 0a1.31 1.31 0 0 1-1.344-1.344v-10.08a3.376 3.376 0 0 0-6.751-.032v10.08a1.309 1.309 0 0 1-1.376 1.376 1.292 1.292 0 0 1-1.344-1.344v-10.08a3.392 3.392 0 0 0-6.784-.032v10.08a1.334 1.334 0 0 1-1.408 1.376 1.31 1.31 0 0 1-1.344-1.344v-14.303a1.404 1.404 0 0 1 2.56-.768 6.166 6.166 0 0 1 3.552-1.12 6.057 6.057 0 0 1 4.768 2.272 5.994 5.994 0 0 1 4.736-2.272 6.111 6.111 0 0 1 6.144 6.08v10.08a1.334 1.334 0 0 1-1.408 1.376z"/><use xlink:href="#M"/><path d="M289.205 582.74l-4.768 4.768 4.96 7.775a1.757 1.757 0 0 1 .224.768 1.443 1.443 0 0 1-1.44 1.376 1.295 1.295 0 0 1-1.088-.64l-4.672-7.264-2.72 2.72v3.808a1.376 1.376 0 0 1-2.752 0v-20.095a1.291 1.291 0 0 1 1.344-1.344 1.308 1.308 0 0 1 1.408 1.344v12.415l7.55-7.55a1.373 1.373 0 0 1 1.024-.416 1.431 1.431 0 0 1 1.376 1.376 1.408 1.408 0 0 1-.448.96zm10.208 15.2c-5.15 0-8.03-4.224-8.03-9.055 0-4.8 2.88-9.023 8.03-9.023s8.032 4.224 8.032 9.023c0 4.832-2.88 9.055-8.032 9.055zm0-15.36c-3.2 0-5.28 2.496-5.28 6.304 0 3.84 2.08 6.335 5.28 6.335 3.232 0 5.28-2.496 5.28-6.335 0-3.808-2.048-6.304-5.28-6.304zm24.417 14.815a1.293 1.293 0 0 1-1.344-1.344v-8.896a4.56 4.56 0 1 0-9.119 0v8.863a1.36 1.36 0 0 1-1.408 1.408 1.318 1.318 0 0 1-1.344-1.376V576a1.376 1.376 0 0 1 2.752-.032v5.536a6.451 6.451 0 0 1 4.543-1.632 7.355 7.355 0 0 1 7.296 7.295v8.863a1.309 1.309 0 0 1-1.376 1.376z"/><use xlink:href="#M" x="77.278"/><path d="M359.572 597.94c-1.76 0-4.704-.544-6.208-2.4a1.416 1.416 0 0 1 1.152-2.272 1.316 1.316 0 0 1 .992.544 5.467 5.467 0 0 0 4.063 1.408c2.88 0 3.808-.992 3.808-2.432 0-4.096-9.76-1.568-9.76-8.16 0-3.488 3.264-4.768 6.304-4.768 1.728 0 5.792.864 5.792 2.656a1.437 1.437 0 0 1-1.344 1.44 1.929 1.929 0 0 1-1.056-.416 5.188 5.188 0 0 0-3.392-.96c-2.656 0-3.584.992-3.584 2.048 0 3.808 9.8 1.344 9.8 8.16 0 3.776-3.168 5.152-6.56 5.152zm23.168-7.65H370.9c.448 3.008 2.368 4.928 5.184 4.928a4.804 4.804 0 0 0 3.808-1.664 1.324 1.324 0 0 1 .992-.512 1.493 1.493 0 0 1 1.44 1.408c0 .384-.096.672-.768 1.344a7.797 7.797 0 0 1-5.472 2.144c-5.15 0-8.03-4.256-8.03-9.055 0-4.768 2.88-9.023 8.03-9.023 5.216 0 8 4.256 8 9.023a1.364 1.364 0 0 1-1.344 1.408zm-6.656-7.7c-3.007 0-4.768 2.208-5.184 4.96h10.368c-.448-3.072-2.368-4.96-5.184-4.96zm26.59 14.815a3.114 3.114 0 0 1-2.848-1.824 7.332 7.332 0 0 1-5.632 2.368c-5.215 0-8.03-4.288-8.03-9.055s2.88-9.023 8.03-9.023a7.07 7.07 0 0 1 5.28 2.112v-.128a1.32 1.32 0 0 1 1.344-1.44 1.286 1.286 0 0 1 1.408 1.344v12.35a.518.518 0 0 0 .448.576 1.36 1.36 0 1 1 0 2.72zm-8.48-14.815c-3.2 0-5.28 2.496-5.28 6.304 0 3.84 2.08 6.335 5.28 6.335 3.232 0 5.28-2.496 5.28-6.335 0-3.808-2.048-6.304-5.28-6.304zm33.472-.352l-4.96 14.047a1.454 1.454 0 0 1-1.408 1.12c-.672 0-1.056-.288-1.344-1.12l-3.744-10.56-3.775 10.56a1.386 1.386 0 0 1-2.72 0l-4.928-14.047a1.409 1.409 0 0 1-.064-.512 1.378 1.378 0 0 1 1.408-1.312 1.268 1.268 0 0 1 1.248.896l3.7 10.687 3.776-10.463c.256-.736.576-1.12 1.344-1.12.704 0 1.088.352 1.344 1.12l3.744 10.463 3.744-10.687a1.258 1.258 0 0 1 1.216-.896 1.422 1.422 0 0 1 1.472 1.344 1.326 1.326 0 0 1-.064.48z"/><use xlink:href="#N"/><use xlink:href="#N" x="18.113"/><path d="M480.114 597.363a1.299 1.299 0 0 1-1.376-1.344 7.742 7.742 0 0 1-5.28 1.92c-5.15 0-8.03-4.224-8.03-9.055 0-4.8 2.88-9.023 8.03-9.023a7.053 7.053 0 0 1 5.28 2.08v-5.95a1.376 1.376 0 0 1 2.752-.032v20.063a1.299 1.299 0 0 1-1.376 1.344zm-6.656-14.783c-3.2 0-5.28 2.496-5.28 6.304 0 3.84 2.08 6.335 5.28 6.335 3.232 0 5.28-2.496 5.28-6.335 0-3.808-2.048-6.304-5.28-6.304z"/><use xlink:href="#O"/><use xlink:href="#H" x="-76.358" y="68"/><use xlink:href="#I" x="-94.852" y="68"/><path d="M272.976 631.395a.899.899 0 0 1-.928-.896v-1.024a7.108 7.108 0 0 1-5.472 2.464 7.375 7.375 0 0 1-7.295-7.295V615.3a.912.912 0 0 1 1.824 0v9.343a5.472 5.472 0 0 0 10.943 0V615.3a.912.912 0 0 1 1.824 0v15.2a.892.892 0 0 1-.896.896z"/><use xlink:href="#P"/><use xlink:href="#H" x="-3.943" y="68"/><use xlink:href="#Q"/><use xlink:href="#H" x="36.313" y="68"/><path d="M373.838 631.395a.874.874 0 0 1-.896-.896v-10.75a4.08 4.08 0 0 0-8.159-.032V630.5a.873.873 0 0 1-.896.896.899.899 0 0 1-.928-.896v-10.75a4.064 4.064 0 0 0-8.127-.032V630.5a.912.912 0 0 1-1.824 0v-15.2a.912.912 0 0 1 1.824 0v.192a5.814 5.814 0 0 1 4.063-1.632 5.935 5.935 0 0 1 4.992 2.72 5.907 5.907 0 0 1 10.879 3.136V630.5a.899.899 0 0 1-.928.896z"/><use xlink:href="#J" x="23.962" y="68"/><use xlink:href="#R"/><use xlink:href="#Q" x="85.919"/><use xlink:href="#J" x="58.812" y="68"/><use xlink:href="#S"/><use xlink:href="#K" x="77.307" y="68"/><use xlink:href="#Q" x="142.91"/><use xlink:href="#R" x="-171.447" y="34"/><path d="M240.63 665.395a.899.899 0 0 1-.928-.896v-1.024a7.108 7.108 0 0 1-5.472 2.464 7.375 7.375 0 0 1-7.295-7.295V649.3a.912.912 0 0 1 1.824 0v9.343a5.472 5.472 0 0 0 10.943 0V649.3a.912.912 0 0 1 1.824 0v15.2a.892.892 0 0 1-.896.896z"/><use xlink:href="#F" x="10.113" y="102"/><use xlink:href="#R" x="-119.447" y="34"/><use xlink:href="#T"/><use xlink:href="#U"/><use xlink:href="#K" x="-51.997" y="102"/><use xlink:href="#T" x="47.134"/><use xlink:href="#J" x="-19.038" y="102"/><use xlink:href="#U" x="52.864"/><use xlink:href="#V"/><use xlink:href="#V" x="6.368"/><path d="M387.54 649.684l-8.67 20.5a3.31 3.31 0 0 1-3.423 1.92h-1.408a.912.912 0 0 1 0-1.824h1.408c.704 0 1.44-.032 1.728-.768L379 665.17l-6.624-15.487a1.017 1.017 0 0 1-.064-.416.895.895 0 0 1 .928-.864.822.822 0 0 1 .8.544l5.952 13.887 5.888-13.887a.834.834 0 0 1 .832-.544.867.867 0 0 1 .896.864 1.017 1.017 0 0 1-.064.416zm-274.52 184.51a5.478 5.478 0 0 1-4.683-2.293v1.207a.688.688 0 0 1-1.376 0V817.27a.688.688 0 0 1 1.376 0v5.553a5.518 5.518 0 0 1 4.683-2.27c3.886 0 6.06 3.187 6.06 6.808 0 3.645-2.172 6.83-6.06 6.83zm0-12.263c-2.873 0-4.683 2.293-4.683 5.432s1.8 5.455 4.683 5.455 4.683-2.317 4.683-5.455-1.8-5.432-4.683-5.432zm19.818 6.132H122.82c.217 2.752 2.003 4.755 4.635 4.755a4.364 4.364 0 0 0 3.548-1.665.633.633 0 0 1 .579-.338.738.738 0 0 1 .749.651c0 .217 0 .266-.458.797a5.699 5.699 0 0 1-4.417 1.931c-3.887 0-6.06-3.187-6.06-6.83 0-3.62 2.172-6.808 6.06-6.808s6.06 3.2 6.06 6.808a.731.731 0 0 1-.676.7zm-5.383-6.132c-2.897 0-4.418 2.22-4.635 4.756h9.293c-.217-2.752-2.003-4.756-4.66-4.756zm13.35-3.983h-.75a1.067 1.067 0 0 0-1.062 1.038v1.98h1.8a.658.658 0 0 1 .676.676.678.678 0 0 1-.676.7h-1.8v10.767a.659.659 0 0 1-.676.676.644.644 0 0 1-.676-.676V822.34h-1.666a.688.688 0 0 1 0-1.376h1.666v-1.98a2.395 2.395 0 0 1 2.39-2.39h.772a.685.685 0 0 1 .7.7.647.647 0 0 1-.7.651z"/><use xlink:href="#W"/><path d="M163.76 822.148a4.125 4.125 0 0 0-4.128 4.127v6.832a.688.688 0 0 1-1.376 0V821.64a.688.688 0 0 1 1.376 0v1a5.511 5.511 0 0 1 4.128-1.858.688.688 0 1 1 0 1.376zm12.788 5.914H166.53c.217 2.752 2.003 4.755 4.635 4.755a4.364 4.364 0 0 0 3.548-1.665.633.633 0 0 1 .579-.338.738.738 0 0 1 .749.651c0 .217 0 .266-.458.797a5.699 5.699 0 0 1-4.417 1.931c-3.887 0-6.06-3.187-6.06-6.83 0-3.62 2.172-6.808 6.06-6.808s6.06 3.2 6.06 6.808a.731.731 0 0 1-.676.7zm-5.383-6.132c-2.897 0-4.418 2.22-4.635 4.756h9.293c-.217-2.752-2.003-4.756-4.66-4.756zm-31.1 66.27h-.024a2.5 2.5 0 0 1-2.39-1.883 5.477 5.477 0 0 1-4.683 2.293c-3.935 0-6.06-3.234-6.06-6.83 0-3.646 2.172-6.808 6.06-6.808a5.517 5.517 0 0 1 4.683 2.27v-1.184a.681.681 0 0 1 .7-.676.659.659 0 0 1 .676.676v9.73c0 1.545 1.738.58 1.738 1.738a.664.664 0 0 1-.7.676zm-7.097-11.853c-2.85 0-4.683 2.293-4.683 5.432s1.834 5.455 4.683 5.455c2.873 0 4.683-2.317 4.683-5.455s-1.8-5.432-4.683-5.432zm14.412-3.984h-.75a1.067 1.067 0 0 0-1.062 1.038v1.98h1.8a.658.658 0 0 1 .676.676.678.678 0 0 1-.676.7h-1.8v10.767a.659.659 0 0 1-.676.676.644.644 0 0 1-.676-.676v-10.767h-1.666a.688.688 0 0 1 0-1.376h1.666v-1.98a2.395 2.395 0 0 1 2.39-2.39h.772a.685.685 0 0 1 .7.7.647.647 0 0 1-.7.651zm7.434 15.837h-.75a2.504 2.504 0 0 1-2.848-2.824v-8.618h-1.23a.688.688 0 0 1 0-1.376h1.23v-3.693a.678.678 0 0 1 .7-.676.659.659 0 0 1 .676.676v3.693h2.22a.688.688 0 0 1 0 1.376h-2.22v8.618c0 1.183.338 1.448 1.472 1.448h.75a.688.688 0 0 1 0 1.376z"/><use xlink:href="#X"/><path d="M177.635 876.564a4.125 4.125 0 0 0-4.128 4.127v6.832a.688.688 0 0 1-1.376 0v-11.467a.688.688 0 0 1 1.376 0v1a5.511 5.511 0 0 1 4.128-1.858.688.688 0 1 1 0 1.376zM111.398 916.4a.888.888 0 0 1-.386-.121c-3.187-2.342-4.32-6.64-4.32-10.404 0-3.138 1.16-8.376 4.345-10.187a1.055 1.055 0 0 1 .362-.121.72.72 0 0 1 .651.749c0 .53-.096.3-.845.965-2.34 2.1-3.138 5.553-3.138 8.594 0 2.8.966 7.508 3.67 9.246a.679.679 0 0 1-.338 1.279zm13.494-4.625a5.607 5.607 0 0 1-4.321 1.834c-3.887 0-6.06-3.187-6.06-6.83 0-3.62 2.172-6.808 6.06-6.808a5.607 5.607 0 0 1 4.321 1.835.637.637 0 0 1 .193.458.757.757 0 0 1-.7.725.713.713 0 0 1-.507-.241 4.254 4.254 0 0 0-3.307-1.4c-2.85 0-4.683 2.293-4.683 5.432s1.834 5.455 4.683 5.455a4.339 4.339 0 0 0 3.307-1.399.685.685 0 0 1 1.207.458.692.692 0 0 1-.193.483z"/><use xlink:href="#W" x="-15.84" y="79.417"/><path d="M158.3 901.274l-3.935 11.346c-.17.458-.386.58-.7.58-.4 0-.53-.145-.676-.58l-3.162-9.415-3.162 9.415c-.17.458-.386.58-.7.58a.705.705 0 0 1-.676-.579l-3.9-11.346a1.036 1.036 0 0 1-.048-.266.687.687 0 0 1 .7-.628.627.627 0 0 1 .627.459l3.307 9.56 3.162-9.438c.145-.46.3-.58.7-.58.3 0 .53.097.676.58l3.2 9.438 3.26-9.56a.627.627 0 0 1 .627-.459.703.703 0 0 1 .749.652.717.717 0 0 1-.048.241zm6.396 12.384c-1.448 0-3.887-.507-4.73-1.907a.582.582 0 0 1-.097-.362.659.659 0 0 1 1.231-.386 4.601 4.601 0 0 0 3.597 1.279c2.34 0 3.524-.772 3.524-2.342 0-3.646-7.918-1.714-7.918-6.542 0-2.437 2.438-3.38 4.635-3.38a6.54 6.54 0 0 1 4.152 1.399.679.679 0 0 1 .217.459.782.782 0 0 1-.748.724.639.639 0 0 1-.458-.192 4.824 4.824 0 0 0-3.163-1.014c-2.124 0-3.26.82-3.26 2.003 0 3.38 7.918 1.594 7.918 6.542 0 2.752-2.414 3.718-4.9 3.718zm8.1 2.63a.804.804 0 0 1-.386.121.713.713 0 0 1-.676-.7.653.653 0 0 1 .314-.579c2.728-1.787 3.645-6.422 3.645-9.246 0-3.187-.845-7.072-3.62-8.98a.777.777 0 0 1-.362-.579.761.761 0 0 1 .7-.749.942.942 0 0 1 .338.121c3.187 1.786 4.32 7.05 4.32 10.187 0 3.766-1.1 8.04-4.272 10.404zm-32.73 45.156h-.024a2.5 2.5 0 0 1-2.39-1.883 5.477 5.477 0 0 1-4.683 2.293c-3.935 0-6.06-3.234-6.06-6.83 0-3.646 2.172-6.808 6.06-6.808a5.517 5.517 0 0 1 4.683 2.27V949.3a.681.681 0 0 1 .7-.676.659.659 0 0 1 .676.676v9.73c0 1.545 1.738.58 1.738 1.738a.664.664 0 0 1-.7.676zm-7.097-11.853c-2.85 0-4.683 2.293-4.683 5.432s1.834 5.455 4.683 5.455c2.873 0 4.683-2.317 4.683-5.455s-1.8-5.432-4.683-5.432zm14.412-3.98h-.75a1.067 1.067 0 0 0-1.062 1.037v1.98h1.8a.658.658 0 0 1 .676.676.678.678 0 0 1-.676.7h-1.8v10.767a.659.659 0 0 1-.676.676.644.644 0 0 1-.676-.676V950h-1.666a.688.688 0 0 1 0-1.376h1.666v-1.98a2.395 2.395 0 0 1 2.39-2.39h.772a.685.685 0 0 1 .7.7.648.648 0 0 1-.7.652zm7.434 15.834h-.75a2.504 2.504 0 0 1-2.848-2.824V950h-1.23a.688.688 0 0 1 0-1.376h1.23v-3.693a.678.678 0 0 1 .7-.676.659.659 0 0 1 .676.676v3.693h2.22a.688.688 0 0 1 0 1.376h-2.22v8.618c0 1.183.338 1.448 1.472 1.448h.75a.688.688 0 0 1 0 1.376z"/><use xlink:href="#X" y="73.245"/><path d="M177.635 949.8a4.125 4.125 0 0 0-4.128 4.127v6.832a.688.688 0 0 1-1.376 0V949.3a.688.688 0 0 1 1.376 0v1a5.511 5.511 0 0 1 4.128-1.858.688.688 0 1 1 0 1.376zM98.92 989.655a.887.887 0 0 1-.386-.121c-3.187-2.342-4.32-6.64-4.32-10.404 0-3.138 1.16-8.376 4.345-10.187a1.055 1.055 0 0 1 .362-.121.72.72 0 0 1 .651.749c0 .53-.096.3-.845.965-2.34 2.1-3.138 5.553-3.138 8.594 0 2.8.966 7.508 3.67 9.245a.68.68 0 0 1-.338 1.28zm7.7-2.752c-1.448 0-3.887-.507-4.73-1.907a.582.582 0 0 1-.097-.362.659.659 0 0 1 1.231-.386 4.601 4.601 0 0 0 3.597 1.279c2.34 0 3.524-.772 3.524-2.342 0-3.646-7.918-1.714-7.918-6.542 0-2.437 2.438-3.38 4.635-3.38a6.546 6.546 0 0 1 4.152 1.399.679.679 0 0 1 .217.459.782.782 0 0 1-.748.724.639.639 0 0 1-.458-.192 4.824 4.824 0 0 0-3.163-1.014c-2.124 0-3.26.82-3.26 2.003 0 3.38 7.918 1.594 7.918 6.542 0 2.752-2.414 3.718-4.9 3.718zm17.765-.46a.679.679 0 0 1-.7-.676v-7.05a4.128 4.128 0 1 0-8.255 0v7.05a.688.688 0 0 1-1.376 0v-15.836a.688.688 0 0 1 1.376 0v5.142a5.362 5.362 0 0 1 4.128-1.858 5.548 5.548 0 0 1 5.503 5.504v7.05a.673.673 0 0 1-.676.676zm14.773-5.72H129.14c.217 2.752 2.003 4.755 4.635 4.755a4.364 4.364 0 0 0 3.548-1.665.633.633 0 0 1 .579-.338.738.738 0 0 1 .749.651c0 .217 0 .266-.458.797a5.699 5.699 0 0 1-4.417 1.931c-3.887 0-6.06-3.187-6.06-6.83 0-3.62 2.172-6.808 6.06-6.808s6.06 3.2 6.06 6.808a.731.731 0 0 1-.676.7zm-5.383-6.132c-2.897 0-4.418 2.22-4.635 4.756h9.293c-.217-2.752-2.003-4.756-4.66-4.756z"/><use xlink:href="#X" x="-14.991" y="98.245"/><path d="M163.2 986.854a5.478 5.478 0 0 1-4.683-2.293v6.252a.688.688 0 1 1-1.376 0V974.3a.688.688 0 0 1 1.376 0v1.184a5.518 5.518 0 0 1 4.683-2.27c3.886 0 6.06 3.187 6.06 6.808 0 3.645-2.172 6.83-6.06 6.83zm0-12.263c-2.873 0-4.683 2.293-4.683 5.432s1.8 5.455 4.683 5.455 4.683-2.317 4.683-5.455-1.8-5.432-4.683-5.432zm9.607 14.943a.804.804 0 0 1-.386.121.712.712 0 0 1-.676-.7.656.656 0 0 1 .313-.58c2.728-1.786 3.646-6.42 3.646-9.245 0-3.187-.845-7.072-3.62-8.98a.777.777 0 0 1-.362-.579.761.761 0 0 1 .7-.749.942.942 0 0 1 .338.121c3.187 1.786 4.32 7.05 4.32 10.187 0 3.766-1.1 8.04-4.273 10.404zM229 195.65h-14.7c-1.392 0-2.208-.816-2.208-1.824a2.321 2.321 0 0 1 .432-1.296l13.105-19.922a5.773 5.773 0 0 0 .912-2.88 4.859 4.859 0 0 0-4.944-4.992c-2.544 0-4.704 2.16-5.52 3.696a1.791 1.791 0 0 1-1.632 1.008 2.072 2.072 0 0 1-2.112-1.968c0-1.488 3.408-6.865 9.265-6.865a9.045 9.045 0 0 1 9.025 9.025 9.356 9.356 0 0 1-1.632 5.184l-10.993 16.753H229a2.042 2.042 0 1 1 0 4.081zm13.488.48a10.61 10.61 0 0 1-8.641-4.561 2.121 2.121 0 0 1-.336-1.152 2.03 2.03 0 0 1 2.064-1.968c.912 0 1.248.336 1.968 1.296a6.382 6.382 0 0 0 4.944 2.304c3.312 0 6.672-3.024 6.672-7.345 0-4.37-3.36-7.393-6.672-7.393a5.737 5.737 0 0 0-5.088 2.688 2.033 2.033 0 0 1-1.873 1.104c-1.248 0-2.064-.816-2.064-2.4v-15.217a2.07 2.07 0 0 1 2.064-2.016h14.593a1.976 1.976 0 0 1 2.112 2.064 1.937 1.937 0 0 1-2.016 2.016h-12.673v8.977a8.867 8.867 0 0 1 4.944-1.296c5.904 0 10.753 4.993 10.753 11.473 0 6.384-4.85 11.425-10.753 11.425zm17.507-26.566a4.942 4.942 0 1 1 4.394-4.925 4.702 4.702 0 0 1-4.394 4.925zm0-7.444a2.582 2.582 0 1 0 2.015 2.519 2.306 2.306 0 0 0-2.015-2.519zm11.67-1.37l-5.15 18.526a1.089 1.089 0 0 1-1.091.896 1.201 1.201 0 0 1-1.259-1.175 1.487 1.487 0 0 1 .028-.336l5.177-18.554a1.143 1.143 0 0 1 1.12-.868 1.182 1.182 0 0 1 1.231 1.119 1.903 1.903 0 0 1-.056.392zm3.974 18.917a4.938 4.938 0 1 1 4.422-4.925 4.699 4.699 0 0 1-4.422 4.925zm0-7.444a2.599 2.599 0 1 0 2.015 2.519 2.307 2.307 0 0 0-2.015-2.519z"/><use xlink:href="#S" x="-134.004" y="-435.746"/><use xlink:href="#Y"/><use xlink:href="#Z"/><use xlink:href="#a"/><use xlink:href="#S" x="-73.494" y="-435.746"/><use xlink:href="#F" x="128.642" y="-367.746"/><use xlink:href="#b"/><use xlink:href="#a" x="63.999"/><path d="M233.493 229.65a.874.874 0 0 1-.896-.896v-10.75a4.08 4.08 0 0 0-8.159-.032v10.783a.873.873 0 0 1-.896.896.899.899 0 0 1-.928-.896v-10.75a4.064 4.064 0 0 0-8.127-.032v10.783a.912.912 0 0 1-1.824 0v-15.2a.912.912 0 0 1 1.824 0v.192a5.814 5.814 0 0 1 4.063-1.632 5.935 5.935 0 0 1 4.992 2.72 5.907 5.907 0 0 1 10.879 3.136v10.783a.899.899 0 0 1-.928.896z"/><use xlink:href="#H" x="-60.16" y="-333.743"/><path d="M262.4 229.65h-.992c-2.528 0-3.776-1.248-3.776-3.744v-11.423H256a.912.912 0 0 1 0-1.824h1.632v-4.896a.899.899 0 0 1 .928-.896.873.873 0 0 1 .896.896v4.896h2.944a.912.912 0 0 1 0 1.824h-2.944v11.423c0 1.568.448 1.92 1.952 1.92h.992a.912.912 0 0 1 0 1.824z"/><use xlink:href="#L" x="-148.252" y="-333.745"/><use xlink:href="#b" x="-99.425" y="34"/><use xlink:href="#K" x="-56.478" y="-333.745"/><use xlink:href="#H" x="23.68" y="-333.743"/><use xlink:href="#H" x="49.374" y="-333.743"/><path d="M386.9 229.65a.873.873 0 0 1-.896-.896v-10.75a4.08 4.08 0 0 0-8.159-.032v10.783a.874.874 0 0 1-.896.896.899.899 0 0 1-.928-.896v-10.75a4.064 4.064 0 0 0-8.127-.032v10.783a.912.912 0 0 1-1.824 0v-15.2a.912.912 0 0 1 1.824 0v.192a5.814 5.814 0 0 1 4.063-1.632 5.935 5.935 0 0 1 4.992 2.72 5.907 5.907 0 0 1 10.879 3.136v10.783a.899.899 0 0 1-.928.896z"/><use xlink:href="#J" x="37.024" y="-333.744"/><use xlink:href="#R" x="13.062" y="-401.745"/><use xlink:href="#Q" x="98.981" y="-401.745"/><use xlink:href="#J" x="71.872" y="-333.744"/><use xlink:href="#S" x="13.062" y="-401.746"/><use xlink:href="#K" x="90.367" y="-333.745"/><use xlink:href="#Q" x="155.972" y="-401.745"/><use xlink:href="#P" x="-65.114" y="-367.744"/><use xlink:href="#S" x="-189.816" y="-367.746"/><use xlink:href="#c"/><use xlink:href="#H" x="-25.185" y="-299.743"/><use xlink:href="#Y" x="-4.741" y="68"/><use xlink:href="#O" x="95.26" y="-367.745"/><use xlink:href="#S" x="-101.114" y="-367.746"/><use xlink:href="#c" x="88.7"/><use xlink:href="#P" x="91.14" y="-367.744"/><use xlink:href="#S" x="-33.564" y="-367.746"/><path d="M424.946 247.844l-5.216 15.04c-.224.608-.512.768-.928.768-.544 0-.704-.192-.896-.768l-4.192-12.48-4.19 12.48c-.224.608-.512.768-.928.768a.934.934 0 0 1-.896-.768l-5.184-15.04a1.356 1.356 0 0 1-.064-.352.909.909 0 0 1 .928-.832.831.831 0 0 1 .832.608l4.383 12.67 4.192-12.51c.192-.608.384-.768.928-.768.384 0 .704.128.896.768l4.256 12.51 4.32-12.67a.83.83 0 0 1 .832-.608.931.931 0 0 1 .992.864.957.957 0 0 1-.064.32z"/><use xlink:href="#Q" x="114.692" y="-367.745"/><path d="M443.283 266.498a.833.833 0 0 1-.48.128.895.895 0 0 1-.864-.928c0-.896 1.376-1.024 1.6-2.048a1.842 1.842 0 0 1 .128-3.68c1.568 0 1.92 1.6 1.92 2.592a4.567 4.567 0 0 1-2.304 3.936z"/><use xlink:href="#Q" x="-100.089" y="-333.745"/><use xlink:href="#L" x="-186.588" y="-265.745"/><use xlink:href="#H" x="-52.768" y="-265.743"/><use xlink:href="#H" x="-34.272" y="-265.743"/><path d="M290.453 298.194a7.259 7.259 0 0 1-6.208-3.04v8.287a.912.912 0 1 1-1.824 0v-21.886a.912.912 0 0 1 1.824 0v1.568a7.315 7.315 0 0 1 6.208-3.008c5.15 0 8.03 4.224 8.03 9.023 0 4.832-2.88 9.055-8.03 9.055zm0-16.255c-3.808 0-6.208 3.04-6.208 7.2s2.4 7.23 6.208 7.23 6.208-3.072 6.208-7.23-2.4-7.2-6.208-7.2z"/><use xlink:href="#b" x="-74.339" y="102"/><use xlink:href="#K" x="-31.391" y="-265.745"/><use xlink:href="#I" x="11.776" y="-265.745"/><use xlink:href="#Z" x="53.532" y="102"/><use xlink:href="#S" x="-26.331" y="-333.746"/><use xlink:href="#b" x="27.932" y="102"/><use xlink:href="#G" x="158.269" y="-265.745"/><use xlink:href="#Q" x="127.3" y="-333.745"/></g><path d="M535.935 823.8a.766.766 0 0 1-1.052-.352l-7.473-14.983-1.406 4.02a.69.69 0 0 1-.363.463.887.887 0 0 1-1.139-.402.928.928 0 0 1-.012-.588l2.047-5.8a1.054 1.054 0 0 1 .376-.437c.526-.263.914.014 1.164.515l8.235 16.5a.758.758 0 0 1-.376 1.064zm12.84-6.576l-8.133 4.2a.807.807 0 0 1-1.082-.323.794.794 0 0 1-.057-.475l2-14.3a3.941 3.941 0 0 0-.394-2.161 3.695 3.695 0 0 0-4.971-1.621c-2.363 1.224-1.97 4.3-2.64 4.647a.858.858 0 0 1-1.131-.297c-.296-.572.177-4.287 3.038-5.768a5.271 5.271 0 0 1 7.084 2.229 5.369 5.369 0 0 1 .546 3.187l-1.75 12.765 6.765-3.503a.799.799 0 0 1 .734 1.418zm-2.658-15.814a2.883 2.883 0 1 1 .887-3.747 2.743 2.743 0 0 1-.887 3.747zm-2.292-4.236a1.972 1.972 0 1 0 2.36.933 1.812 1.812 0 0 0-2.36-.933zm5.14-3.467l2.617 11.4a.426.426 0 0 1-.196.496.502.502 0 0 1-.67-.176.318.318 0 0 1-.048-.123l-2.617-11.4a.441.441 0 0 1 .203-.518.514.514 0 0 1 .664.197.462.462 0 0 1 .048.123zm7.163 8.987a2.881 2.881 0 1 1 .901-3.754 2.742 2.742 0 0 1-.901 3.754zm-2.284-4.222a1.959 1.959 0 1 0 2.367.91 1.795 1.795 0 0 0-2.367-.91zm15.036-2.205l-7.632 4.3a.799.799 0 1 1-.785-1.391l7.632-4.308a.798.798 0 1 1 .785 1.39zm12.2 3.288a6.188 6.188 0 0 1-5.692.266.761.761 0 0 1-.348-.314.856.856 0 0 1 .312-1.126c.362-.213.5-.034 1.1.14a4.404 4.404 0 0 0 3.829-.339 5.099 5.099 0 0 0-5.157-8.757 4.525 4.525 0 0 0-2.176 3.588.802.802 0 0 1-.452.722.773.773 0 0 1-1.126-.312l-4.674-7.937a.766.766 0 0 1 .278-1.073l8.058-4.744a.786.786 0 1 1 .795 1.351l-7.358 4.333 3.324 5.645a5.671 5.671 0 0 1 2.521-2.946 6.69 6.69 0 0 1 6.776 11.507zm12.46-7.258a5.993 5.993 0 0 1-8.227-1.948 5.887 5.887 0 0 1-.129-6.098 5.18 5.18 0 0 1-4.319-2.54 5.264 5.264 0 0 1 8.973-5.508 5.205 5.205 0 0 1 .286 5.016 5.875 5.875 0 0 1 5.365 2.852 5.975 5.975 0 0 1-1.949 8.227zm-10.107-16.466a3.682 3.682 0 1 0 5.045 1.207 3.662 3.662 0 0 0-5.045-1.207zm4.688 7.637a4.382 4.382 0 1 0 6.023 1.461 4.398 4.398 0 0 0-6.023-1.461zm5.643-9.788a2.883 2.883 0 1 1 .609-3.802 2.742 2.742 0 0 1-.609 3.802zm-2.597-4.056a1.972 1.972 0 1 0 2.422.756 1.811 1.811 0 0 0-2.422-.756zm4.87-3.837l3.45 11.168a.425.425 0 0 1-.159.509.502.502 0 0 1-.682-.125.327.327 0 0 1-.057-.119l-3.45-11.168a.441.441 0 0 1 .164-.531.513.513 0 0 1 .677.148.458.458 0 0 1 .057.118zm7.806 8.437a2.881 2.881 0 1 1 .623-3.812 2.741 2.741 0 0 1-.623 3.812zm-2.588-4.042a1.959 1.959 0 1 0 2.427.732 1.793 1.793 0 0 0-2.427-.732zm15.655-9.652a4.787 4.787 0 0 0-1.289 6.648l4.435 6.568a.798.798 0 0 1-1.323.893l-7.444-11.023a.798.798 0 0 1 1.323-.894l.643.95a6.398 6.398 0 0 1 2.762-4.467.798.798 0 1 1 .893 1.323zm15.872-2.676l-9.524 6.655c2.035 2.472 5.064 3.2 7.565 1.44a5.058 5.058 0 0 0 2.267-3.94.734.734 0 0 1 .326-.706.856.856 0 0 1 1.145.122c.145.207.176.253.093 1.063a6.612 6.612 0 0 1-2.917 4.771c-3.695 2.582-7.877.996-10.298-2.47-2.406-3.442-2.457-7.915 1.238-10.497s7.893-.973 10.283 2.447a.848.848 0 0 1-.178 1.114zm-9.2-2.253c-2.754 1.925-2.725 5.046-1.247 7.6l8.835-6.174c-2.035-2.472-5.064-3.2-7.588-1.426zm26.42-2.088a.787.787 0 0 1-1.118-.152l-.827-1.13a6.353 6.353 0 0 1-2.81 5.354c-3.636 2.663-7.852 1.17-10.35-2.24-2.48-3.388-2.632-7.857 1.004-10.52a6.401 6.401 0 0 1 5.936-1.086l-3.804-5.193a.798.798 0 0 1 1.287-.943l10.85 14.814a.781.781 0 0 1-.169 1.096zm-13.158-7.4c-2.665 1.95-2.8 5.354-.66 8.3s5.455 3.847 8.12 1.895c2.687-1.97 2.793-5.377.643-8.312s-5.416-3.84-8.103-1.872zm26.215-2.536a.787.787 0 0 1-1.121-.128l-.545-.7a6.217 6.217 0 0 1-2.488 4.622 6.453 6.453 0 0 1-8.948-1.183l-4.972-6.487a.798.798 0 0 1 1.266-.971l4.973 6.487a4.787 4.787 0 0 0 7.598-5.824l-4.973-6.487a.798.798 0 0 1 1.267-.971l8.1 10.554a.78.78 0 0 1-.146 1.099zM674.6 732.3a6.503 6.503 0 0 1-2.585 4.792c-3.52 2.814-7.796 1.502-10.437-1.8-2.623-3.28-2.963-7.74.557-10.555a6.505 6.505 0 0 1 5.243-1.469.743.743 0 0 1 .507.275.877.877 0 0 1-.109 1.163.825.825 0 0 1-.634.149 4.937 4.937 0 0 0-4.01 1.127c-2.58 2.063-2.58 5.47-.307 8.313s5.614 3.612 8.194 1.55a5.032 5.032 0 0 0 1.981-3.664.82.82 0 0 1 .284-.585.83.83 0 0 1 1.141.127.799.799 0 0 1 .175.577zm7.714-4.216l-.67.552c-1.707 1.407-3.244 1.26-4.633-.427l-6.357-7.714-1.102.908a.798.798 0 0 1-1.015-1.231l1.102-.908-2.724-3.306a.786.786 0 0 1 .128-1.121.765.765 0 0 1 1.104.106l2.725 3.306 1.988-1.64a.798.798 0 0 1 1.015 1.232l-1.988 1.638 6.357 7.714c.873 1.06 1.37 1.047 2.386.2l.67-.552a.798.798 0 0 1 1.015 1.231zm-8.152-16.072a1.596 1.596 0 1 1 .196-2.248 1.577 1.577 0 0 1-.196 2.248zm11.3 13.442a.77.77 0 0 1-1.126-.078l-8.553-10.184a.772.772 0 0 1 .118-1.123.763.763 0 0 1 1.104.097l8.553 10.184a.75.75 0 0 1-.096 1.104zm8.73-6.824c-3.4 2.948-7.733 1.8-10.498-1.397-2.747-3.177-3.258-7.62.152-10.568s7.733-1.8 10.48 1.377c2.765 3.197 3.275 7.642-.134 10.6zm-9.302-10.76c-2.5 2.16-2.37 5.564.01 8.317s5.748 3.396 8.247 1.234c2.52-2.18 2.35-5.585-.03-8.34s-5.708-3.392-8.23-1.213zm25.6-4.37a.787.787 0 0 1-1.128-.037l-5.48-6.068a4.789 4.789 0 1 0-7.108 6.419l5.48 6.068a.798.798 0 0 1-1.185 1.069l-8.915-9.87a.798.798 0 0 1 1.185-1.07l.6.665a6.388 6.388 0 0 1 11.126-4.351l5.48 6.068a.781.781 0 0 1-.056 1.107zm-88.696 155.954a5.992 5.992 0 0 1-8.198-2.057 5.885 5.885 0 0 1-.048-6.097 5.181 5.181 0 0 1-4.284-2.597 5.263 5.263 0 0 1 9.042-5.387 5.205 5.205 0 0 1 .22 5.018 5.872 5.872 0 0 1 5.325 2.921 5.973 5.973 0 0 1-2.056 8.198zm-9.886-16.594a3.681 3.681 0 1 0 5.027 1.273 3.662 3.662 0 0 0-5.027-1.273zm4.585 7.695a4.381 4.381 0 1 0 6.001 1.541 4.397 4.397 0 0 0-6.001-1.541zm17.777 1.315c-5.046 3.128-8.842-2.9-10.996-6.364-2.1-3.403-4.597-8.584-.05-11.402 4.45-2.76 7.95 1.397 10.238 5.087 2.14 3.452 5.83 9.566.808 12.68zm-2.165-11.838c-2.1-3.404-4.755-6.608-8.016-4.587-3.57 2.214-1.022 6.696.542 9.22l.944 1.523c1.712 2.762 4.64 6.316 7.83 4.34 3.26-2.02 1.355-6.212-.356-8.973zm2.628-6.97a2.881 2.881 0 1 1 .599-3.801 2.741 2.741 0 0 1-.599 3.801zm-2.606-4.046a1.971 1.971 0 1 0 2.423.749 1.81 1.81 0 0 0-2.423-.749zm4.858-3.848l3.476 11.153a.426.426 0 0 1-.157.509.503.503 0 0 1-.682-.124.32.32 0 0 1-.057-.119l-3.476-11.152a.44.44 0 0 1 .162-.531.513.513 0 0 1 .677.146.471.471 0 0 1 .057.118zm7.823 8.4a2.88 2.88 0 1 1 .613-3.811 2.739 2.739 0 0 1-.613 3.811zm-2.597-4.033a1.958 1.958 0 1 0 2.428.727 1.793 1.793 0 0 0-2.428-.727zm15.66-9.705a4.787 4.787 0 0 0-1.281 6.65l4.444 6.563a.799.799 0 0 1-1.322.896l-7.458-11.017a.799.799 0 0 1 1.322-.896l.644.95a6.396 6.396 0 0 1 2.757-4.471.798.798 0 1 1 .895 1.322zm15.88-2.68l-9.524 6.655c2.035 2.472 5.064 3.2 7.565 1.44a5.058 5.058 0 0 0 2.267-3.94.734.734 0 0 1 .326-.706.856.856 0 0 1 1.145.122c.145.207.176.253.093 1.063a6.612 6.612 0 0 1-2.917 4.77c-3.695 2.582-7.877.996-10.298-2.47-2.406-3.442-2.457-7.915 1.238-10.497s7.893-.973 10.283 2.447a.848.848 0 0 1-.178 1.114zm-9.2-2.253c-2.754 1.925-2.725 5.046-1.247 7.6l8.835-6.174c-2.035-2.472-5.064-3.2-7.588-1.426zm26.483-2.083a.787.787 0 0 1-1.118-.155l-.825-1.13a6.354 6.354 0 0 1-2.823 5.35c-3.643 2.655-7.857 1.153-10.348-2.264-2.475-3.395-2.615-7.866 1.028-10.52a6.402 6.402 0 0 1 5.94-1.073l-3.794-5.204a.798.798 0 0 1 1.29-.94l10.82 14.845a.78.78 0 0 1-.172 1.095zm-13.145-7.432c-2.67 1.946-2.823 5.35-.68 8.3s5.448 3.86 8.118 1.914c2.693-1.963 2.807-5.372.663-8.314s-5.4-3.853-8.102-1.9zm26.218-2.44a.787.787 0 0 1-1.121-.134l-.542-.713a6.219 6.219 0 0 1-2.508 4.613 6.454 6.454 0 0 1-8.944-1.222l-4.946-6.5a.798.798 0 0 1 1.271-.965l4.946 6.5a4.788 4.788 0 0 0 7.625-5.792l-4.946-6.5a.798.798 0 0 1 1.271-.965l8.045 10.6a.781.781 0 0 1-.15 1.099zm11.624-11.23a6.502 6.502 0 0 1-2.615 4.775c-3.538 2.794-7.805 1.454-10.425-1.863-2.603-3.296-2.915-7.758.623-10.55a6.5 6.5 0 0 1 5.251-1.436.74.74 0 0 1 .505.278.877.877 0 0 1-.117 1.162.819.819 0 0 1-.635.145 4.938 4.938 0 0 0-4.017 1.103c-2.593 2.048-2.614 5.453-.36 8.3s5.6 3.647 8.184 1.6a5.033 5.033 0 0 0 2.004-3.651.795.795 0 0 1 1.428-.45.803.803 0 0 1 .171.578zm7.728-4.153l-.674.547c-1.716 1.395-3.252 1.235-4.63-.46l-6.303-7.757-1.108.9a.798.798 0 0 1-1.006-1.239l1.108-.9-2.7-3.324a.787.787 0 0 1 .136-1.12.764.764 0 0 1 1.103.114l2.7 3.324 2-1.624a.798.798 0 0 1 1.006 1.238l-2 1.624 6.303 7.758c.865 1.064 1.363 1.056 2.385.227l.673-.548a.798.798 0 0 1 1.006 1.239zm-8.004-16.155a1.595 1.595 0 1 1 .213-2.246 1.577 1.577 0 0 1-.213 2.246zm11.185 13.528a.77.77 0 0 1-1.125-.087l-8.473-10.248a.772.772 0 0 1 .126-1.122.763.763 0 0 1 1.104.105l8.473 10.248a.749.749 0 0 1-.105 1.103zm8.79-6.736c-3.437 2.916-7.75 1.73-10.484-1.495-2.717-3.202-3.187-7.65.25-10.565s7.75-1.73 10.466 1.474c2.735 3.223 3.205 7.67-.232 10.587zm-9.2-10.844c-2.52 2.137-2.42 5.54-.066 8.316s5.716 3.448 8.235 1.3c2.54-2.155 2.402-5.562.048-8.338s-5.676-3.444-8.217-1.3zm25.677-4.133a.786.786 0 0 1-1.127-.05l-5.414-6.126a4.788 4.788 0 1 0-7.176 6.34l5.414 6.127a.798.798 0 0 1-1.196 1.057l-8.806-9.966a.798.798 0 0 1 1.196-1.057l.593.67a6.387 6.387 0 0 1 11.171-4.229l5.414 6.126a.781.781 0 0 1-.068 1.106z" fill="#192066"/><g opacity=".5" fill="#1b467f"><path d="M42.328 1046.045a7.892 7.892 0 0 1-5.503-2.002 1.364 1.364 0 0 1-1.468 1.401 1.346 1.346 0 0 1-1.401-1.401v-20.88a1.435 1.435 0 0 1 2.869-.033v6.238a7.4 7.4 0 0 1 5.503-2.169c5.37 0 8.373 4.403 8.373 9.406 0 5.037-3.002 9.44-8.373 9.44zm0-16c-3.335 0-5.503 2.602-5.503 6.57 0 4.003 2.168 6.604 5.503 6.604s5.504-2.602 5.504-6.604c0-3.97-2.168-6.57-5.504-6.57zm25.555 8.037h-12.34c.467 3.136 2.468 5.137 5.403 5.137a5.003 5.003 0 0 0 3.969-1.734 1.383 1.383 0 0 1 1.034-.533 1.556 1.556 0 0 1 1.501 1.468c0 .4-.1.7-.8 1.4a8.129 8.129 0 0 1-5.704 2.235c-5.37 0-8.372-4.437-8.372-9.44 0-4.97 3.002-9.406 8.372-9.406 5.437 0 8.34 4.437 8.34 9.406a1.422 1.422 0 0 1-1.401 1.468zm-6.937-8.038c-3.136 0-4.97 2.3-5.403 5.17H66.35c-.467-3.202-2.468-5.17-5.403-5.17zM88 1045.478a3.247 3.247 0 0 1-2.969-1.901 7.642 7.642 0 0 1-5.87 2.469c-5.437 0-8.372-4.47-8.372-9.44s3.002-9.406 8.372-9.406a7.369 7.369 0 0 1 5.504 2.202v-.134a1.376 1.376 0 0 1 1.4-1.501 1.341 1.341 0 0 1 1.468 1.401v12.875a.54.54 0 0 0 .467.601 1.418 1.418 0 1 1 0 2.835zm-8.84-15.443c-3.336 0-5.504 2.602-5.504 6.57 0 4.003 2.168 6.604 5.504 6.604 3.37 0 5.504-2.602 5.504-6.604 0-3.97-2.135-6.57-5.504-6.57z"/><use xlink:href="#d"/><path d="M115.158 1045.478h-.567c-3.17 0-4.37-1.668-4.37-4.403V1030.6h-1a1.418 1.418 0 1 1-.033-2.835h1v-4.637a1.355 1.355 0 0 1 1.435-1.4 1.328 1.328 0 0 1 1.401 1.4v4.637h2.135a1.383 1.383 0 0 1 1.4 1.401 1.356 1.356 0 0 1-1.4 1.434h-2.135v10.774c0 .934.333 1.268 1.268 1.268h.833a1.376 1.376 0 0 1 1.435 1.4 1.357 1.357 0 0 1-1.4 1.435zm4.604-20.415a2.401 2.401 0 1 1 2.402-2.401 2.392 2.392 0 0 1-2.402 2.401zm0 20.414a1.4 1.4 0 0 1-1.467-1.401V1029.2a1.408 1.408 0 0 1 1.467-1.435 1.374 1.374 0 0 1 1.401 1.435v14.876a1.346 1.346 0 0 1-1.401 1.401zm10.376-14.877h-1.5v13.442a1.364 1.364 0 0 1-1.468 1.401 1.346 1.346 0 0 1-1.401-1.401V1030.6h-1.37a1.418 1.418 0 0 1 0-2.835h1.367v-2.27a3.801 3.801 0 0 1 3.836-3.769 1.418 1.418 0 1 1 0 2.835.934.934 0 0 0-.967.9v2.302h1.5a1.418 1.418 0 1 1 0 2.835z"/><use xlink:href="#d" x="42.068"/><path d="M154.725 1045.544a3.403 3.403 0 0 1-3.336-3.402v-18.98a1.435 1.435 0 0 1 2.869-.033v19.013a.527.527 0 0 0 .467.567 1.418 1.418 0 1 1 0 2.835zm15.37-.066v-1.264c1.886-.237 2.046-.437 2.046-3.157v-6.7c0-2.8-1.248-4.017-3.064-4.017a5.597 5.597 0 0 0-3.47 1.493v9.476c0 2.527.187 2.658 2.06 2.896v1.264h-8.968v-1.264c2.254-.33 2.5-.4 2.5-3v-8.2c0-2.446-.303-2.565-2.185-2.922v-1.184a34.101 34.101 0 0 0 6.653-1.533l-.052 2.95 2.6-1.745a5.659 5.659 0 0 1 3.159-1.086c3.194 0 5.2 2.338 5.2 6.3v7.5c0 2.54.237 2.657 2.277 2.92v1.264zm23.9-3.703c-2.458 3.427-5.488 4.178-7.014 4.178-5.142 0-8.124-3.936-8.124-8.594a10.333 10.333 0 0 1 2.832-7.062 8.602 8.602 0 0 1 6.082-2.814 6.386 6.386 0 0 1 6.37 6.347c-.014.715-.08 1.277-.612 1.4-.767.184-6.17.5-10.318.647.062 4.587 2.717 6.74 5.556 6.74a6.776 6.776 0 0 0 4.543-1.866zm-7.07-12.7c-1.667 0-3.167 1.807-3.516 4.963l5.486-.118c.6-.026.848-.146.848-.792.04-2.022-1.037-4.053-2.818-4.053zm34.284.145c-1.943.343-2.248.624-3.105 2.765-1.33 3.462-3.102 8.53-4.934 13.94h-1.512l-4.65-11.46-4.55 11.46h-1.472l-4.685-14.192c-.687-1.985-.94-2.274-2.855-2.512v-1.25h9.397v1.25c-2.325.345-2.535.672-2.058 2.133l2.52 8.214c1.507-3.68 2.988-7.62 4.327-11.424h1.456c1.4 3.76 2.986 7.702 4.573 11.568.742-2.107 2.062-5.964 2.557-8.108.412-1.674-.008-2.078-2.753-2.383v-1.25h7.742zm9.4 3.746c-.92-2.606-2.155-3.984-4.2-3.984a2.166 2.166 0 0 0-2.225 2.266c0 1.497 1.046 2.264 3.16 3.216 3.278 1.496 5.3 2.787 5.3 5.736 0 3.85-3.6 5.764-6.945 5.764a12.073 12.073 0 0 1-4.92-1.161l-.662-4.892 1.252-.224c.8 2.5 2.33 4.75 4.976 4.75a2.231 2.231 0 0 0 2.438-2.281c0-1.423-.76-2.333-3.092-3.467-2.67-1.295-5.107-2.64-5.107-5.775 0-3.046 2.533-5.42 6.565-5.42a18.751 18.751 0 0 1 4.112.567l.62 4.577z"/></g><g opacity=".5" fill="#1b467f"><use xlink:href="#e"/><use xlink:href="#f"/><use xlink:href="#g"/><use xlink:href="#h"/><use xlink:href="#i"/><use xlink:href="#j"/><use xlink:href="#e" x="62.499"/><path d="M569.785 1039.416a1.14 1.14 0 1 1 0-2.28 1.14 1.14 0 0 1 0 2.28zm0 6.562a1.14 1.14 0 1 1 0-2.28 1.14 1.14 0 0 1 0 2.28zm19.843 0a.583.583 0 0 1-.521-.34l-1.28-3.08h-7.2l-1.28 3.08a.564.564 0 0 1-1.081-.2.587.587 0 0 1 .04-.26l5.4-13.104a.631.631 0 0 1 .58-.38.517.517 0 0 1 .48.38l5.4 13.104a.587.587 0 0 1 .04.26.56.56 0 0 1-.58.54zm-5.4-12.183l-3.14 7.622h6.3z"/><use xlink:href="#k"/><use xlink:href="#l"/><path d="M620.728 1045.978a.546.546 0 0 1-.56-.561v-6.72a2.551 2.551 0 0 0-5.102-.021v6.74a.546.546 0 0 1-.56.561.562.562 0 0 1-.58-.561v-6.72a2.541 2.541 0 0 0-5.081-.021v6.74a.571.571 0 0 1-1.141 0v-9.502a.571.571 0 0 1 1.141 0v.12a3.635 3.635 0 0 1 2.54-1.02 3.71 3.71 0 0 1 3.121 1.7 3.692 3.692 0 0 1 6.801 1.96v6.74a.562.562 0 0 1-.58.561zm13.68 0h-.02a2.072 2.072 0 0 1-1.98-1.561 4.536 4.536 0 0 1-3.88 1.9c-3.26 0-5.02-2.68-5.02-5.66 0-3.02 1.8-5.64 5.02-5.64a4.571 4.571 0 0 1 3.88 1.88v-.98a.564.564 0 0 1 .581-.56.546.546 0 0 1 .56.56v8.063c0 1.28 1.44.48 1.44 1.44a.55.55 0 0 1-.58.561zm-5.88-9.822c-2.36 0-3.88 1.9-3.88 4.5s1.52 4.52 3.88 4.52c2.38 0 3.88-1.92 3.88-4.52s-1.5-4.5-3.88-4.5z"/><use xlink:href="#m"/><path d="M652.085 1039.817h-4.86v5.6a.57.57 0 0 1-1.141 0v-13.122a.59.59 0 0 1 .58-.561h5.4a4.041 4.041 0 1 1 .02 8.082zm0-6.962h-4.86v5.82h4.84a2.911 2.911 0 1 0 .02-5.821z"/><use xlink:href="#h" x="128.858"/><use xlink:href="#f" x="159.197"/><path d="M686.426 1045.978a.563.563 0 0 1-.581-.561v-1a4.536 4.536 0 0 1-3.88 1.9c-3.22 0-5.02-2.64-5.02-5.66 0-3 1.8-5.64 5.02-5.64a4.571 4.571 0 0 1 3.88 1.88v-4.6a.57.57 0 0 1 1.141 0v13.122a.558.558 0 0 1-.56.561zm-4.46-9.822c-2.36 0-3.88 1.9-3.88 4.5s1.52 4.52 3.88 4.52c2.38 0 3.88-1.92 3.88-4.52s-1.5-4.5-3.88-4.5z"/><use xlink:href="#g" x="171.617"/><use xlink:href="#i" x="165.017"/><path d="M715.965 1045.978h-.62a2.075 2.075 0 0 1-2.36-2.341v-7.142h-1.02a.57.57 0 0 1 0-1.14h1.02v-3.06a.562.562 0 0 1 .58-.561.546.546 0 0 1 .56.561v3.06h1.84a.57.57 0 0 1 0 1.14h-1.84v7.142c0 .98.28 1.2 1.22 1.2h.62a.57.57 0 0 1 0 1.141z"/><use xlink:href="#l" x="114.618"/><use xlink:href="#f" x="216.077"/><use xlink:href="#k" x="142.339"/><path d="M755.104 1046.318a7.388 7.388 0 0 1-4.78-1.76.523.523 0 0 1-.181-.4.609.609 0 0 1 .58-.58c.24 0 .22.06.64.38a6.335 6.335 0 0 0 3.74 1.221c2.52 0 3.98-.94 3.98-2.74 0-4.74-8.462-2.1-8.462-7.562 0-2.4 2.1-3.5 4.68-3.5a5.74 5.74 0 0 1 4.361 1.881.557.557 0 0 1-.48.9c-.28 0-.28-.08-.62-.42a4.625 4.625 0 0 0-3.261-1.221c-2.38 0-3.54.92-3.54 2.36 0 4.3 8.462 1.8 8.462 7.562 0 2.78-2.44 3.88-5.12 3.88z"/><use xlink:href="#i" x="225.636"/><use xlink:href="#l" x="169.198"/><use xlink:href="#j" x="229.617"/><use xlink:href="#k" x="196.918"/><use xlink:href="#i" x="264.055"/><use xlink:href="#j" x="264.056"/><path d="M824.102 1047.758a.513.513 0 0 1-.3.08.56.56 0 0 1-.54-.58c0-.56.86-.64 1-1.28a1.152 1.152 0 0 1 .08-2.301c.98 0 1.2 1 1.2 1.62a2.854 2.854 0 0 1-1.44 2.46zm21.382-1.78a.546.546 0 0 1-.561-.561v-10.862l-4.76 8.843a.528.528 0 0 1-.46.359.62.62 0 0 1-.541-.359l-4.74-8.843v10.862a.571.571 0 0 1-1.141 0v-13.122a.58.58 0 0 1 .601-.561.522.522 0 0 1 .479.28l5.302 9.902 5.32-9.902a.544.544 0 0 1 .48-.28.581.581 0 0 1 .601.561v13.122a.563.563 0 0 1-.58.561zm5.818 0h-2.28a.571.571 0 1 1 0-1.141h.56v-11.982h-.56a.56.56 0 1 1 0-1.12h2.28a.56.56 0 1 1 0 1.12h-.58v11.982h.58a.571.571 0 0 1 0 1.141z"/><use xlink:href="#n"/><use xlink:href="#n" x="15.279"/><use xlink:href="#j" x="331.272"/><use xlink:href="#i" x="353.932"/><path d="M909.78 1045.978a.563.563 0 0 1-.58-.561v-5.84a3.42 3.42 0 1 0-6.841 0v5.84a.57.57 0 0 1-1.141 0v-13.122a.57.57 0 0 1 1.141 0v4.26a4.442 4.442 0 0 1 3.421-1.54 4.597 4.597 0 0 1 4.561 4.561v5.84a.558.558 0 0 1-.561.561z"/><use xlink:href="#k" x="321.054"/><use xlink:href="#f" x="418.532"/><use xlink:href="#m" x="299.933"/><use xlink:href="#f" x="434.872"/><path d="M957.64 1050.538c-1.7 0-4.102-.64-4.102-1.36a.636.636 0 0 1 .58-.641 7.129 7.129 0 0 1 1.061.48 7.508 7.508 0 0 0 2.461.38c2.56 0 3.88-1.26 3.88-3.72v-1.4a4.776 4.776 0 0 1-3.88 1.7c-3.16 0-5.02-2.24-5.02-5.32 0-3 1.8-5.64 5.02-5.64a4.571 4.571 0 0 1 3.88 1.88v-.96a.57.57 0 0 1 1.141 0v9.742c0 3.18-1.9 4.86-5.02 4.86zm0-14.383c-2.36 0-3.88 1.9-3.88 4.5 0 2.58 1.42 4.18 3.88 4.18s3.88-1.6 3.88-4.18c0-2.6-1.5-4.5-3.88-4.5zm16.48.001l-5.42 12.823a2.071 2.071 0 0 1-2.141 1.2h-.88a.571.571 0 0 1 0-1.141h.88c.44 0 .9-.02 1.08-.48l1.14-2.72-4.142-9.683a.633.633 0 0 1-.04-.26.559.559 0 0 1 .58-.54.513.513 0 0 1 .5.34l3.722 8.682 3.68-8.682a.521.521 0 0 1 .52-.34.542.542 0 0 1 .561.54.633.633 0 0 1-.04.26zm16.34 9.84a.491.491 0 0 1-.42-.239l-4.302-5.94h-3.58v5.6a.57.57 0 0 1-1.141 0v-13.122a.59.59 0 0 1 .58-.561h5.4a4.03 4.03 0 0 1 4.061 4.021 4.072 4.072 0 0 1-3.9 4.062l3.78 5.24a.547.547 0 0 1 .141.359.631.631 0 0 1-.62.58zm-3.44-13.143h-4.86v5.82H987a2.911 2.911 0 1 0 .02-5.821z"/><use xlink:href="#j" x="446.492"/><path d="M1013.9 1036.136l-3.94 9.382a.657.657 0 0 1-.56.46.681.681 0 0 1-.58-.46l-3.94-9.362a.633.633 0 0 1-.04-.26.56.56 0 0 1 .58-.54.513.513 0 0 1 .5.34l3.48 8.222 3.46-8.222a.57.57 0 0 1 1.1.18.484.484 0 0 1-.06.261z"/><use xlink:href="#l" x="412.172"/><use xlink:href="#j" x="472.592"/><path d="M1045 1036.096l-3.26 9.4c-.14.38-.32.48-.58.48-.34 0-.44-.12-.56-.48l-2.62-7.802-2.62 7.802c-.14.38-.32.48-.58.48a.584.584 0 0 1-.56-.48l-3.24-9.4a.876.876 0 0 1-.04-.221.569.569 0 0 1 .58-.52.519.519 0 0 1 .521.38l2.74 7.922 2.62-7.822c.12-.38.24-.48.58-.48.24 0 .44.08.56.48l2.66 7.822 2.7-7.922a.519.519 0 0 1 .521-.38.582.582 0 0 1 .62.54.607.607 0 0 1-.04.2z"/></g><g fill="#fff"><path d="M59.77 80H41.53a2.601 2.601 0 0 1-2.64-2.52V39.862a2.58 2.58 0 0 1 5.16-.06v35.1h15.72a2.55 2.55 0 0 1 0 5.1z"/><use xlink:href="#o"/><path d="M98.35 51.68L87.43 77.96A2.736 2.736 0 0 1 84.85 80a2.905 2.905 0 0 1-2.58-2.04L71.35 51.68a3.69 3.69 0 0 1-.18-1.08 2.588 2.588 0 0 1 2.64-2.46 2.456 2.456 0 0 1 2.28 1.56l8.76 21 8.76-21a2.585 2.585 0 0 1 4.98.84 2.992 2.992 0 0 1-.24 1.14z"/><use xlink:href="#p"/><use xlink:href="#q"/><path d="M166.268 80h-1.02c-5.7 0-7.86-3-7.86-7.92V53.24h-1.8a2.55 2.55 0 1 1-.06-5.1h1.8V39.8a2.436 2.436 0 0 1 2.58-2.52 2.389 2.389 0 0 1 2.52 2.52v8.34h3.84a2.488 2.488 0 0 1 2.52 2.52 2.441 2.441 0 0 1-2.52 2.58h-3.84v19.38c0 1.68.6 2.28 2.28 2.28h1.5a2.475 2.475 0 0 1 2.58 2.52 2.441 2.441 0 0 1-2.52 2.58zm17.64 1.02c-9.66 0-15.06-7.92-15.06-16.98 0-9 5.4-16.92 15.06-16.92s15.06 7.92 15.06 16.92c0 9.06-5.4 16.98-15.06 16.98zm0-28.8c-6 0-9.9 4.68-9.9 11.82 0 7.2 3.9 11.88 9.9 11.88 6.06 0 9.9-4.68 9.9-11.88 0-7.14-3.84-11.82-9.9-11.82zm42.66 24.24a13.936 13.936 0 0 1-10.74 4.56c-9.66 0-15.06-7.92-15.06-16.98 0-9 5.4-16.92 15.06-16.92a13.936 13.936 0 0 1 10.74 4.56 2.615 2.615 0 0 1 .72 1.74 2.794 2.794 0 0 1-2.7 2.58 2.84 2.84 0 0 1-1.86-.84 8.814 8.814 0 0 0-6.9-2.94c-6 0-9.9 4.68-9.9 11.82 0 7.2 3.9 11.88 9.9 11.88a8.923 8.923 0 0 0 6.9-2.939 2.396 2.396 0 0 1 1.86-.9 2.59 2.59 0 0 1 1.98 4.38zm26.22-23.94l-8.94 8.94 9.3 14.58a3.298 3.298 0 0 1 .42 1.44 2.705 2.705 0 0 1-2.7 2.58 2.428 2.428 0 0 1-2.04-1.2l-8.76-13.62-5.1 5.1v7.14a2.581 2.581 0 0 1-5.16 0V39.802a2.421 2.421 0 0 1 2.52-2.52 2.453 2.453 0 0 1 2.64 2.52v23.28l14.16-14.16a2.575 2.575 0 0 1 1.92-.78 2.682 2.682 0 0 1 2.58 2.58 2.641 2.641 0 0 1-.84 1.8zm41.038-10.14h-22.44V54.5h15.72a2.561 2.561 0 0 1 2.58 2.58 2.523 2.523 0 0 1-2.58 2.58h-15.72v17.82a2.581 2.581 0 0 1-5.16 0V39.862a2.612 2.612 0 0 1 2.64-2.58h24.96a2.425 2.425 0 0 1 2.52 2.52 2.505 2.505 0 0 1-2.52 2.58z"/><use xlink:href="#p" x="193.372"/><use xlink:href="#r"/><path d="M379.98 81.02c-4.38 0-10.5-1.8-13.92-4.98a2.4 2.4 0 0 1-.84-1.86 2.599 2.599 0 0 1 2.58-2.58c.9 0 1.2.3 2.28 1.14a16.242 16.242 0 0 0 9.899 3.18c7.14 0 10.26-2.58 10.26-7.02 0-12.48-23.94-5.4-23.94-21.72 0-7.32 6.18-10.98 14.1-10.98 4.14 0 10.08 1.62 13.02 5.1a2.365 2.365 0 0 1 .66 1.62 2.795 2.795 0 0 1-2.58 2.7c-.9 0-1.38-.42-2.4-1.32a13.181 13.181 0 0 0-8.7-2.94c-6.48 0-8.94 2.58-8.94 5.82 0 11.22 23.94 4.56 23.94 21.72 0 8.94-7.5 12.12-15.42 12.12z"/><use xlink:href="#p" x="296.99"/><use xlink:href="#s"/><path d="M502.256 51.56l-9.3 26.34a2.727 2.727 0 0 1-2.64 2.1c-1.26 0-1.98-.54-2.52-2.1l-7.02-19.8-7.08 19.8a2.598 2.598 0 0 1-5.1 0l-9.24-26.34a2.64 2.64 0 0 1-.12-.96 2.585 2.585 0 0 1 2.64-2.46 2.378 2.378 0 0 1 2.34 1.68l6.96 20.04 7.08-19.62c.48-1.38 1.08-2.1 2.52-2.1 1.32 0 2.04.66 2.52 2.1l7.02 19.62 7.02-20.04a2.359 2.359 0 0 1 2.28-1.68 2.666 2.666 0 0 1 2.76 2.52 2.484 2.484 0 0 1-.12.9z"/><use xlink:href="#p" x="403.369"/><use xlink:href="#p" x="434.568"/><use xlink:href="#r" x="241.196"/><path d="M636.595 80h-24.96a2.601 2.601 0 0 1-2.64-2.52V39.862a2.612 2.612 0 0 1 2.64-2.58h24.96a2.425 2.425 0 0 1 2.52 2.52 2.505 2.505 0 0 1-2.52 2.58h-22.44V54.5h15.72a2.561 2.561 0 0 1 2.58 2.58 2.523 2.523 0 0 1-2.58 2.58h-15.72V74.9h22.44a2.471 2.471 0 0 1 2.52 2.58 2.425 2.425 0 0 1-2.52 2.52zm43.86 0a2.457 2.457 0 0 1-2.52-2.52v-18.9a6.33 6.33 0 1 0-12.659-.06v18.9a2.454 2.454 0 0 1-2.58 2.58 2.424 2.424 0 0 1-2.52-2.52v-18.9a6.36 6.36 0 0 0-12.719-.06v18.9a2.501 2.501 0 0 1-2.64 2.58 2.456 2.456 0 0 1-2.52-2.52V50.66a2.632 2.632 0 0 1 4.8-1.44 11.56 11.56 0 0 1 6.66-2.1 11.358 11.358 0 0 1 8.939 4.26 11.24 11.24 0 0 1 8.88-4.26 11.459 11.459 0 0 1 11.52 11.4v18.9a2.501 2.501 0 0 1-2.64 2.58z"/><use xlink:href="#o" x="623.326"/><use xlink:href="#t"/><path d="M740.512 80h-18.24a2.601 2.601 0 0 1-2.64-2.52V39.862a2.58 2.58 0 0 1 5.16-.06v35.1h15.72a2.55 2.55 0 0 1 0 5.1z"/><use xlink:href="#p" x="644.144"/><use xlink:href="#q" x="644.143"/><use xlink:href="#q" x="668.682"/><path d="M868.85 80.06a2.472 2.472 0 0 1-2.52-2.58v-27.6L854.69 71.6a2.626 2.626 0 0 1-2.4 1.62 2.857 2.857 0 0 1-2.4-1.62L838.312 50v27.48a2.501 2.501 0 0 1-2.64 2.58 2.472 2.472 0 0 1-2.52-2.58v-37.5a2.526 2.526 0 0 1 2.76-2.7 2.3 2.3 0 0 1 2.16 1.5l14.22 26.46 14.28-26.46a2.303 2.303 0 0 1 2.34-1.5 2.485 2.485 0 0 1 2.58 2.7v37.5a2.501 2.501 0 0 1-2.64 2.58z"/><use xlink:href="#p" x="775.662"/><use xlink:href="#t" x="210.055"/><path d="M946.13 80a2.424 2.424 0 0 1-2.52-2.52V60.8a8.55 8.55 0 1 0-17.099 0v16.62a2.55 2.55 0 0 1-2.64 2.64 2.472 2.472 0 0 1-2.52-2.58V39.862a2.58 2.58 0 0 1 5.16-.06v10.38a12.097 12.097 0 0 1 8.52-3.06 13.79 13.79 0 0 1 13.68 13.68v16.62a2.454 2.454 0 0 1-2.58 2.58z"/><use xlink:href="#s" x="524.152"/><path d="M1011.3 80a2.423 2.423 0 0 1-2.52-2.52V60.8a8.55 8.55 0 1 0-17.099 0v16.62a2.551 2.551 0 0 1-2.64 2.64 2.472 2.472 0 0 1-2.52-2.58V50.66a2.387 2.387 0 0 1 2.52-2.52 2.509 2.509 0 0 1 2.58 1.98 13.702 13.702 0 0 1 22.259 10.68v16.62a2.454 2.454 0 0 1-2.58 2.58zm32.76-13.32h-22.2c.84 5.64 4.44 9.24 9.72 9.24a9.007 9.007 0 0 0 7.14-3.12 2.483 2.483 0 0 1 1.859-.96 2.8 2.8 0 0 1 2.7 2.64c0 .72-.18 1.26-1.44 2.52a14.618 14.618 0 0 1-10.259 4.02c-9.66 0-15.06-7.98-15.06-16.98 0-8.94 5.4-16.92 15.06-16.92 9.78 0 15 7.98 15 16.92a2.558 2.558 0 0 1-2.52 2.64zm-12.48-14.46c-5.64 0-8.94 4.14-9.72 9.3h19.438c-.84-5.76-4.44-9.3-9.72-9.3z"/></g></svg>