<svg xmlns="http://www.w3.org/2000/svg" xmlns:xlink="http://www.w3.org/1999/xlink" viewBox="0 0 1080 1080"><style><![CDATA[.R{stroke-dasharray:1.9772,5.93161}.S{stroke-miterlimit:10}.T{fill:#d62374}.U{stroke-dasharray:2.06372,6.19115}]]></style><linearGradient id="A" gradientUnits="userSpaceOnUse" x1="11.716" y1="11.716" x2="1068.284" y2="1068.284"><stop offset="0"/><stop offset=".396" stop-color="#212121"/><stop offset=".772" stop-color="#3a3a3a"/><stop offset="1" stop-color="#434343"/></linearGradient><path d="M1040 1080H40c-22.09 0-40-17.91-40-40V40C0 17.91 17.91 0 40 0h1000c22.09 0 40 17.91 40 40v1000c0 22.09-17.91 40-40 40z" fill="url(#A)"/><g fill="#999"><use xlink:href="#C"/><use xlink:href="#D"/><use xlink:href="#E"/><use xlink:href="#F"/><use xlink:href="#G"/><use xlink:href="#H"/><use xlink:href="#C" x="62.5"/><path d="M579.165 1039.417c-.64 0-1.16-.5-1.16-1.14s.52-1.14 1.16-1.14c.62 0 1.12.5 1.12 1.14s-.5 1.14-1.12 1.14zm0 6.562c-.64 0-1.16-.5-1.16-1.14s.52-1.14 1.16-1.14c.62 0 1.12.5 1.12 1.14s-.5 1.14-1.12 1.14z"/><use xlink:href="#I"/><use xlink:href="#J"/><use xlink:href="#K"/><path d="M639.966 1045.998c-.18 0-.34-.12-.48-.32l-7.82-11.543v11.282c0 .36-.3.56-.56.56-.28 0-.58-.2-.58-.56v-13.122c0-.34.3-.6.6-.6.18 0 .34.12.48.32l7.822 11.542v-11.262c0-.36.3-.56.56-.56.28 0 .58.2.58.56v13.122c0 .34-.3.58-.6.58z"/><use xlink:href="#H" x="86.738"/><path d="M668.527 1036.097l-3.26 9.4c-.14.38-.32.48-.58.48-.34 0-.44-.12-.56-.48l-2.62-7.802-2.62 7.802c-.14.38-.32.48-.58.48s-.46-.16-.56-.48l-3.24-9.4c-.02-.06-.04-.16-.04-.22 0-.32.32-.52.58-.52.2 0 .44.1.52.38l2.74 7.922 2.62-7.822c.12-.38.24-.48.58-.48.24 0 .44.08.56.48l2.66 7.822 2.7-7.922c.1-.28.3-.38.52-.38.3 0 .62.2.62.54 0 .08-.02.14-.04.2z"/><use xlink:href="#C" x="164.358"/><path d="M680.783 1047.76c-.08.06-.2.08-.3.08-.32 0-.54-.28-.54-.58 0-.56.86-.64 1-1.28-.6-.04-1.08-.54-1.08-1.14 0-.68.56-1.16 1.16-1.16.98 0 1.2 1 1.2 1.62 0 .98-.52 1.92-1.44 2.46z"/><use xlink:href="#J" x="89.439"/><use xlink:href="#D" x="187.217"/><use xlink:href="#E" x="187.218"/><path d="M728.564 1046.1c-1.08 0-1.98-1-1.98-2.12v-11.683c0-.36.3-.56.58-.56.26 0 .56.2.56.56v11.683c0 1.28 1.42.54 1.42 1.44 0 .34-.24.68-.58.68zm11.42-.122c-.28 0-.58-.2-.58-.56v-1c-.84 1.18-2.14 1.9-3.88 1.9-3.22 0-5.02-2.64-5.02-5.66 0-3 1.8-5.64 5.02-5.64 1.74 0 3.04.72 3.88 1.88v-4.6c0-.36.3-.56.58-.56.26 0 .56.2.56.56v13.122c0 .36-.3.56-.56.56zm-4.46-9.822c-2.36 0-3.88 1.9-3.88 4.5s1.52 4.52 3.88 4.52c2.38 0 3.88-1.92 3.88-4.52s-1.5-4.5-3.88-4.5z"/><use xlink:href="#H" x="186.716"/><use xlink:href="#F" x="215.978"/><use xlink:href="#K" x="153.437"/><use xlink:href="#D" x="263.435"/><use xlink:href="#E" x="263.436"/><use xlink:href="#L"/><use xlink:href="#M"/><path d="M829.243 1036.156l-5.42 12.823c-.4.94-1.22 1.2-2.14 1.2h-.88c-.36 0-.56-.3-.56-.58 0-.26.2-.56.56-.56h.88c.44 0 .9-.02 1.08-.48l1.14-2.72-4.142-9.683c-.04-.1-.04-.18-.04-.26 0-.32.28-.54.58-.54.18 0 .4.08.5.34l3.722 8.682 3.68-8.682a.52.52 0 0 1 .52-.34c.3 0 .56.22.56.54 0 .08 0 .16-.04.26z"/><use xlink:href="#J" x="235.617"/><use xlink:href="#H" x="292.355"/><path d="M870.003 1041.237H861.7c.18 2.28 1.66 3.94 3.84 3.94 1.08 0 2.36-.48 2.94-1.38.14-.22.3-.28.48-.28.3 0 .62.24.62.54 0 .18 0 .22-.38.66-.92 1.08-2.26 1.6-3.66 1.6-3.22 0-5.02-2.64-5.02-5.66 0-3 1.8-5.64 5.02-5.64s5.02 2.66 5.02 5.64c0 .3-.28.58-.56.58zm-4.46-5.08c-2.4 0-3.66 1.84-3.84 3.94h7.7c-.18-2.28-1.66-3.94-3.86-3.94zm14.88.18l-3.44 3.44 3.4 5.32c.06.08.12.2.12.32 0 .28-.3.54-.6.54-.18 0-.36-.08-.48-.26l-3.28-5.1-2.06 2.08v2.74c0 .36-.3.56-.56.56-.28 0-.58-.2-.58-.56v-13.122c0-.36.3-.56.58-.56.26 0 .56.2.56.56v8.762l5.52-5.52a.56.56 0 0 1 .42-.18c.32 0 .58.26.58.56a.56.56 0 0 1-.181.421z"/><use xlink:href="#H" x="325.874"/><path d="M899.52 1046.318c-1.74 0-3.04-.72-3.88-1.9v5.182c0 .36-.3.58-.56.58a.58.58 0 0 1-.58-.58v-13.684c0-.36.3-.56.58-.56.26 0 .56.2.56.56v.98c.84-1.16 2.14-1.88 3.88-1.88 3.22 0 5.02 2.64 5.02 5.64 0 3.02-1.8 5.66-5.02 5.66zm0-10.162c-2.38 0-3.88 1.9-3.88 4.5s1.5 4.52 3.88 4.52 3.88-1.92 3.88-4.52-1.5-4.5-3.88-4.5z"/><use xlink:href="#H" x="350.254"/><use xlink:href="#F" x="379.514"/><use xlink:href="#C" x="419.354"/><path d="M934.94 1035.876c-.12.06-.2.1-.3.1-.34 0-.56-.36-.56-.68 0-.44 1.14-.54 1.14-1.82v-1.52c0-.38.28-.6.56-.6s.58.22.58.6v1.52c0 .46-.22 1.74-1.42 2.4z"/><use xlink:href="#I" x="356.195"/><use xlink:href="#C" x="450.594"/><use xlink:href="#C" x="460.094"/><use xlink:href="#D" x="460.093"/><use xlink:href="#G" x="441.713"/><use xlink:href="#N"/><path d="M1012.8 1045.978h-.02c-.66 0-1.6-.36-1.98-1.56-.84 1.18-2.14 1.9-3.88 1.9-3.26 0-5.02-2.68-5.02-5.66 0-3.02 1.8-5.64 5.02-5.64 1.74 0 3.04.72 3.88 1.88v-.98c0-.32.26-.56.58-.56.28 0 .56.2.56.56v8.063c0 1.28 1.44.48 1.44 1.44a.55.55 0 0 1-.58.561zm-5.88-9.822c-2.36 0-3.88 1.9-3.88 4.5s1.52 4.52 3.88 4.52c2.38 0 3.88-1.92 3.88-4.52s-1.5-4.5-3.88-4.5z"/><use xlink:href="#M" x="200.618"/><use xlink:href="#N" x="22.86"/><use xlink:href="#D" x="509.593"/><use xlink:href="#L" x="234.378"/></g><g fill="#b3b3b3"><path d="M42.328 1046.045c-3.568 0-5.47-1.97-5.503-2.002 0 .935-.7 1.4-1.468 1.4-.7 0-1.4-.467-1.4-1.4v-20.88a1.35 1.35 0 0 1 1.401-1.434c.767 0 1.468.467 1.468 1.4v6.238c1.334-1.368 3.168-2.17 5.503-2.17 5.37 0 8.373 4.403 8.373 9.406 0 5.037-3.002 9.44-8.373 9.44zm0-16c-3.335 0-5.503 2.602-5.503 6.57 0 4.003 2.168 6.604 5.503 6.604s5.504-2.602 5.504-6.604c0-3.97-2.168-6.57-5.504-6.57zm25.555 8.037h-12.34c.467 3.136 2.468 5.137 5.403 5.137 1.5 0 3.002-.533 3.97-1.734.3-.333.634-.533 1.034-.533.734 0 1.5.667 1.5 1.468 0 .4-.1.7-.8 1.4-1.5 1.468-3.57 2.235-5.704 2.235-5.37 0-8.372-4.437-8.372-9.44 0-4.97 3.002-9.406 8.372-9.406 5.437 0 8.34 4.437 8.34 9.406 0 .734-.534 1.468-1.4 1.468zm-6.937-8.038c-3.136 0-4.97 2.3-5.403 5.17H66.35c-.467-3.202-2.468-5.17-5.403-5.17zM88 1045.478c-1.834 0-2.668-1.3-2.97-1.9-1.334 1.468-3.27 2.47-5.87 2.47-5.437 0-8.372-4.47-8.372-9.44s3.002-9.406 8.372-9.406c2.335 0 4.203.834 5.504 2.202v-.134c0-.367.133-1.5 1.4-1.5.7 0 1.468.367 1.468 1.4v12.875c0 .434.3.6.467.6.935 0 1.435.667 1.435 1.434a1.37 1.37 0 0 1-1.435 1.401zm-8.84-15.443c-3.336 0-5.504 2.602-5.504 6.57 0 4.003 2.168 6.604 5.504 6.604 3.37 0 5.504-2.602 5.504-6.604 0-3.97-2.135-6.57-5.504-6.57z"/><use xlink:href="#O"/><path d="M115.158 1045.478h-.567c-3.17 0-4.37-1.668-4.37-4.403V1030.6h-1c-.8 0-1.435-.634-1.435-1.4 0-.8.634-1.435 1.4-1.435h1v-4.637c0-.934.7-1.4 1.435-1.4s1.4.467 1.4 1.4v4.637h2.135c.934 0 1.4.768 1.4 1.4 0 .8-.533 1.434-1.4 1.434h-2.135v10.774c0 .934.333 1.268 1.268 1.268h.833c.868 0 1.435.634 1.435 1.4 0 .8-.533 1.435-1.4 1.435zm4.604-20.415a2.402 2.402 0 1 1 0-4.803 2.402 2.402 0 1 1 0 4.803zm0 20.414c-.733 0-1.467-.5-1.467-1.4V1029.2c0-.935.733-1.435 1.467-1.435a1.37 1.37 0 0 1 1.401 1.435v14.876c0 .935-.7 1.4-1.4 1.4zm10.376-14.877h-1.5v13.442c0 .935-.7 1.4-1.468 1.4-.7 0-1.4-.467-1.4-1.4V1030.6h-1.37c-.9 0-1.4-.667-1.4-1.4 0-.768.5-1.435 1.4-1.435h1.367v-2.27c0-2.135 1.77-3.77 3.836-3.77.968 0 1.468.667 1.468 1.434 0 .7-.5 1.4-1.468 1.4-.566 0-.967.434-.967.9v2.302h1.5c.967 0 1.468.667 1.468 1.435 0 .733-.5 1.4-1.468 1.4z"/><use xlink:href="#O" x="42.068"/><path d="M154.725 1045.544c-1.802 0-3.336-1.534-3.336-3.402v-18.98c0-.967.7-1.434 1.435-1.434s1.435.467 1.435 1.4v19.013c0 .4.3.567.467.567.934 0 1.435.667 1.435 1.435 0 .733-.5 1.4-1.435 1.4zm15.37-.066v-1.264c1.886-.237 2.046-.437 2.046-3.157v-6.7c0-2.8-1.248-4.017-3.064-4.017-1.237 0-2.345.6-3.47 1.493v9.476c0 2.527.187 2.658 2.06 2.896v1.264h-8.968v-1.264c2.254-.33 2.5-.4 2.5-3v-8.2c0-2.446-.303-2.565-2.185-2.922v-1.184c2.173-.292 4.63-.807 6.653-1.533l-.052 2.95 2.6-1.745c1.16-.713 2-1.086 3.16-1.086 3.194 0 5.2 2.338 5.2 6.3v7.5c0 2.54.237 2.657 2.277 2.92v1.264h-8.74zm23.9-3.703c-2.458 3.427-5.488 4.178-7.014 4.178-5.142 0-8.124-3.936-8.124-8.594 0-2.745 1.183-5.396 2.832-7.062 1.74-1.8 3.945-2.814 6.082-2.814 3.73 0 6.396 3.126 6.37 6.347-.014.715-.08 1.277-.612 1.4-.767.184-6.17.5-10.318.647.062 4.587 2.717 6.74 5.556 6.74 1.572 0 3.104-.597 4.543-1.866l.686 1.014zm-7.07-12.7c-1.667 0-3.167 1.807-3.516 4.963l5.486-.118c.6-.026.848-.146.848-.792.04-2.022-1.037-4.053-2.818-4.053zm34.284.145c-1.943.343-2.248.624-3.105 2.765-1.33 3.462-3.102 8.53-4.934 13.94h-1.512l-4.65-11.46-4.55 11.46h-1.472l-4.685-14.192c-.687-1.985-.94-2.274-2.855-2.512v-1.25h9.397v1.25c-2.325.345-2.535.672-2.058 2.133l2.52 8.214c1.507-3.68 2.988-7.62 4.327-11.424h1.456c1.4 3.76 2.986 7.702 4.573 11.568.742-2.107 2.062-5.964 2.557-8.108.412-1.674-.008-2.078-2.753-2.383v-1.25h7.742v1.25zm9.4 3.746c-.92-2.606-2.155-3.984-4.2-3.984-1.206 0-2.225.86-2.225 2.266 0 1.497 1.046 2.264 3.16 3.216 3.278 1.496 5.3 2.787 5.3 5.736 0 3.85-3.6 5.764-6.945 5.764-2.06 0-4.088-.737-4.92-1.16l-.662-4.892 1.252-.224c.8 2.5 2.33 4.75 4.976 4.75 1.505 0 2.438-.952 2.438-2.28 0-1.423-.76-2.333-3.092-3.467-2.67-1.295-5.107-2.64-5.107-5.775 0-3.046 2.533-5.42 6.565-5.42 1.818 0 3.242.396 4.112.567l.62 4.577-1.25.328z"/></g><path d="M364.22 98.468l161.668 93.338v186.676L364.22 471.82l-161.668-93.34V191.806L364.22 98.468zM241.356 408.13l123.782 71.464v142.93L241.356 694l-123.78-71.464v-142.93l123.78-71.464zm290.497-25.88l160.512 92.67v185.34l-160.512 92.67-160.5-92.67V474.92l160.5-92.67zM666.13 144.188l133.325 76.974v153.95L666.13 452.087l-133.326-76.975v-153.95l133.326-76.974zM115.075 286.613l80.978 46.753v93.505l-80.978 46.753-80.98-46.753v-93.505l80.98-46.752zM554.763 36.006l71.435 41.242v82.485l-71.435 41.243-71.435-41.243V77.248l71.435-41.242z" fill="#333"/><g opacity=".8" fill="none" stroke="#d62374" stroke-width="3" class="S"><path d="M170.863 36.706l.866-.5.866.5"/><path d="M177.957 39.802l61.66 35.6" stroke-dasharray="2.06373,6.19119"/><path d="M242.298 76.948l.866.5v1"/><path d="M243.164 84.64v71.198" class="U"/><path d="M243.164 158.933v1l-.866.5"/><path d="M236.936 163.53l-61.66 35.6" stroke-dasharray="2.06374,6.19123"/><path d="M172.595 200.676l-.866.5-.866-.5"/><path d="M165.5 197.58l-61.66-35.6" stroke-dasharray="2.06374,6.19121"/><path d="M101.16 160.433l-.866-.5v-1"/><path d="M100.294 152.742V81.544" class="U"/><path d="M100.294 78.448v-1l.866-.5"/><path d="M106.522 73.853l61.66-35.6" stroke-dasharray="2.06372,6.19117"/></g><path d="M335.7 646.82l69.4 40.073v80.148l-69.4 40.073-69.4-40.073v-80.148l69.4-40.073zm-69.9 127.042l62.18 35.9v71.8l-62.18 35.9-62.18-35.9v-71.8l62.18-35.9z" fill="#333"/><g fill="#666"><path d="M240.97 854.34h-6.216c-.42 0-.812-.392-.812-.784V835.19c0-.42.393-.783.813-.783h6.216c5.768 0 7.672 4.815 7.672 9.94 0 5.208-1.904 9.996-7.672 9.996zm0-18.368h-5.433v16.772h5.433c4.788 0 6.076-4.145 6.076-8.372 0-4.984-1.736-8.4-6.076-8.4z"/><use xlink:href="#P"/><use xlink:href="#Q"/><use xlink:href="#R"/><use xlink:href="#S"/><path d="M491.24 576.746c-6.16 0-8.147-5.18-8.147-10.443 0-5.236 1.987-10.472 8.147-10.472 2.52 0 4.732.896 6.216 3.052.14.14.168.28.168.448 0 .447-.42.783-.867.783-.393 0-.616-.336-.925-.728-.98-1.26-2.464-1.96-4.592-1.96-4.228 0-6.552 3.248-6.552 8.876 0 4.256 1.344 8.848 6.552 8.848 4.424 0 6.356-3.388 6.552-8.036h-3.416a.8.8 0 0 1-.84-.812c0-.393.28-.812.784-.812h4.256c.477 0 .813.336.813.813 0 5.46-2.156 10.443-8.148 10.443z"/><use xlink:href="#T"/><use xlink:href="#U"/><use xlink:href="#Q" x="268.135" y="-278.072"/><path d="M563.983 576.27c-.393 0-.812-.28-.812-.784V567.3a4.77 4.77 0 0 0-4.788-4.788c-2.632 0-4.788 2.128-4.788 4.788v8.176c0 .504-.42.784-.783.784-.393 0-.812-.28-.812-.784v-18.368c0-.504.42-.783.813-.783.363 0 .783.28.783.783v5.965c1.177-1.372 2.885-2.156 4.788-2.156a6.44 6.44 0 0 1 6.385 6.384v8.176c0 .504-.42.784-.784.784z"/><use xlink:href="#V"/><use xlink:href="#W"/><use xlink:href="#X"/><use xlink:href="#U" x="130.396" y="-280.452"/><use xlink:href="#R" x="383.554" y="-558.524"/><use xlink:href="#S" x="383.552" y="-558.523"/><use xlink:href="#P" x="434.147" y="-558.523"/><use xlink:href="#X" x="61.348"/><path d="M526.5 127.2c-.28 0-.532-.168-.672-.477l-5.04-10.443-4.648 5.712v4.396c0 .504-.363.784-.783.784-.393 0-.812-.252-.812-.784V108.02c0-.504.393-.783.813-.783.363 0 .783.252.783.783v11.452l9.633-11.956c.168-.224.363-.336.56-.336.448 0 .896.364.896.813 0 .168-.056.336-.224.532l-5.124 6.355 5.376 11.144c.057.14.057.225.057.364 0 .42-.42.812-.812.812z"/><use xlink:href="#T" x="27.785" y="-449.1"/><use xlink:href="#X" x="-93.372" y="-168.647"/><use xlink:href="#T" x="54.353" y="-449.1"/><path d="M580.002 127.17h-.868c-2.212 0-3.304-1.092-3.304-3.276V113.9h-1.428c-.504 0-.784-.42-.784-.812 0-.364.28-.784.784-.784h1.428v-4.284c0-.504.42-.783.812-.783s.784.28.784.783v4.284h2.576c.504 0 .784.42.784.784 0 .392-.28.813-.784.813h-2.576v9.995c0 1.372.393 1.68 1.708 1.68h.868c.504 0 .784.42.784.812 0 .364-.28.784-.784.784z"/><use xlink:href="#P" x="331.193" y="-727.169"/></g><g class="T"><path d="M140.117 125.637c-2.156 0-5.096-.867-6.69-2.464-.196-.195-.252-.363-.252-.56 0-.42.392-.812.812-.812.336 0 .308.084.896.532 1.483 1.092 3.332 1.708 5.235 1.708 3.528 0 5.572-1.315 5.572-3.836 0-6.636-11.844-2.94-11.844-10.584 0-3.36 2.94-4.9 6.552-4.9 2.016 0 4.844.867 6.104 2.632.112.168.168.308.168.476 0 .448-.392.784-.84.784-.392 0-.392-.112-.868-.588-1.176-1.176-2.91-1.708-4.563-1.708-3.332 0-4.956 1.288-4.956 3.304 0 6.02 11.844 2.52 11.844 10.584 0 3.892-3.416 5.432-7.168 5.432z"/><use xlink:href="#P" x="-103.456" y="-729.18"/><use xlink:href="#X" x="-477.656" y="-170.657"/><use xlink:href="#V" x="-396.623" y="-451.109"/><path d="M196.144 116.453h-8.764c-.504 0-.812-.42-.812-.812 0-.364.308-.784.812-.784h8.764a.79.79 0 0 1 .813.784c0 .392-.28.812-.812.812zm14.7 8.707c-.224 0-.504-.084-.644-.364l-5.572-8.624-5.544 8.624a.72.72 0 0 1-.645.364c-.42 0-.867-.364-.867-.784 0-.14.084-.308.168-.448l5.964-9.24-5.32-8.26c-.084-.17-.14-.28-.14-.448 0-.448.42-.812.84-.812.224 0 .448.112.644.393l4.9 7.672 4.928-7.672c.196-.28.42-.393.645-.393.447 0 .812.364.812.813a.89.89 0 0 1-.112.448l-5.292 8.26 5.937 9.24c.084.14.14.3.14.448 0 .42-.392.784-.84.784z"/></g><g fill="#666"><path d="M325.51 285.2h-6.805v7.84c0 .504-.42.784-.783.784-.393 0-.812-.28-.812-.784v-18.368c0-.42.393-.783.813-.783h7.56c3.164 0 5.684 2.52 5.684 5.628 0 3.164-2.52 5.684-5.655 5.684zm0-9.744h-6.805v8.148h6.776c2.268 0 4.088-1.792 4.088-4.06a4.07 4.07 0 0 0-4.06-4.088z"/><use xlink:href="#V" x="-233.517" y="-282.446"/><use xlink:href="#Y"/><use xlink:href="#Q" x="99.326" y="-560.518"/><path d="M395.173 293.825c-.393 0-.812-.28-.812-.784v-8.176a4.77 4.77 0 0 0-4.788-4.788c-2.632 0-4.788 2.128-4.788 4.788v8.176c0 .504-.42.784-.783.784-.393 0-.812-.28-.812-.784v-18.368c0-.504.42-.783.813-.783.363 0 .783.28.783.783v5.965c1.177-1.372 2.885-2.156 4.788-2.156a6.44 6.44 0 0 1 6.385 6.384v8.176c0 .504-.42.784-.784.784z"/><use xlink:href="#V" x="-168.809" y="-282.446"/><path d="M84.443 388.8c-.392 0-.784-.28-.784-.784V372.8l-6.664 12.376c-.168.364-.42.504-.644.504-.31 0-.56-.168-.756-.504L68.958 372.8v15.204c0 .504-.42.784-.783.784-.393 0-.812-.28-.812-.784v-18.368c0-.476.42-.783.84-.783.28 0 .504.11.672.392l7.42 13.86 7.448-13.86a.76.76 0 0 1 .672-.392c.42 0 .84.308.84.783v18.368c0 .504-.42.784-.812.784z"/><use xlink:href="#P" x="-162.91" y="-465.542"/><use xlink:href="#S" x="-183.462" y="-465.543"/><use xlink:href="#U" x="-401.254" y="-187.47"/><use xlink:href="#X" x="-505.918" y="92.981"/><use xlink:href="#V" x="-423.485" y="-187.472"/><path d="M164.523 388.967c-1.513 0-2.772-1.4-2.772-2.968v-16.353c0-.504.42-.783.813-.783.363 0 .783.28.783.783V386c0 1.792 1.988.756 1.988 2.016 0 .477-.336.952-.812.952zm45.755 182.8a.69.69 0 0 1-.588-.336l-6.02-8.316h-5.013v7.84c0 .504-.42.784-.783.784-.393 0-.812-.28-.812-.784v-18.368c0-.42.393-.783.813-.783h7.56c3.164 0 5.684 2.52 5.684 5.628 0 3.08-2.407 5.516-5.46 5.684l5.292 7.336c.14.168.196.336.196.504 0 .42-.42.813-.868.813zm-4.815-18.396h-6.805v8.148h6.776c2.268 0 4.088-1.82 4.088-4.088 0-2.548-2.156-4.06-4.06-4.06z"/><use xlink:href="#P" x="-37.217" y="-282.601"/><path d="M238.052 578.123c-2.38 0-5.74-.896-5.74-1.903 0-.448.363-.896.812-.896.308 0 .952.476 1.484.672.728.252 1.876.532 3.443.532 3.584 0 5.433-1.764 5.433-5.208v-1.96c-1.232 1.483-2.996 2.38-5.433 2.38-4.424 0-7.027-3.136-7.027-7.448 0-4.2 2.52-7.896 7.027-7.896 2.437 0 4.256 1.008 5.433 2.632v-1.344c0-.504.42-.784.812-.784.364 0 .784.28.784.784v13.636c0 4.452-2.66 6.804-7.028 6.804zm0-20.132c-3.304 0-5.432 2.66-5.432 6.3 0 3.612 1.988 5.853 5.432 5.853s5.433-2.24 5.433-5.853c0-3.64-2.1-6.3-5.433-6.3z"/><use xlink:href="#P" x="-3.086" y="-282.601"/><use xlink:href="#Y" x="-85.917" y="277.915"/><use xlink:href="#Z"/><use xlink:href="#W" x="-333.892" y="439.828"/><use xlink:href="#U" x="-212.727" y="159.377"/><use xlink:href="#X" x="-317.391" y="439.828"/><use xlink:href="#T" x="-169.667" y="159.377"/><use xlink:href="#Z" x="68.567" y="163.907"/><path d="M371.944 729.01h-11.62c.252 3.19 2.324 5.516 5.376 5.516 1.513 0 3.305-.672 4.116-1.932.196-.31.42-.393.672-.393.42 0 .868.336.868.757 0 .252 0 .308-.532.924-1.288 1.512-3.164 2.24-5.124 2.24-4.508 0-7.027-3.695-7.027-7.924 0-4.2 2.52-7.896 7.027-7.896s7.028 3.724 7.028 7.896c0 .42-.392.813-.784.813zM365.7 721.9c-3.36 0-5.124 2.576-5.376 5.516h10.78c-.252-3.19-2.324-5.516-5.404-5.516z"/><use xlink:href="#X" x="-265.625" y="439.828"/></g><g fill="#999"><path d="M380.16 954.06h-8.764c-.504 0-.812-.42-.812-.812 0-.364.31-.784.813-.784h8.764c.532 0 .813.42.813.784 0 .392-.28.812-.812.812zm0 3.976h-8.764c-.504 0-.812-.42-.812-.783 0-.393.31-.812.813-.812h8.764c.532 0 .813.42.813.813 0 .363-.28.783-.812.783z"/><use xlink:href="#a"/><use xlink:href="#b"/><use xlink:href="#c"/><use xlink:href="#d"/><use xlink:href="#e"/><path d="M463.376 962.77h-.867c-2.213 0-3.305-1.092-3.305-3.276v-9.995h-1.428c-.504 0-.784-.42-.784-.812 0-.364.28-.784.784-.784h1.428v-4.284c0-.504.42-.783.813-.783s.784.28.784.783v4.284h2.575c.504 0 .784.42.784.784 0 .392-.28.813-.784.813H460.8v9.995c0 1.372.392 1.68 1.708 1.68h.867c.504 0 .784.42.784.812 0 .364-.28.784-.784.784z"/><use xlink:href="#a" x="75.543"/><use xlink:href="#e" x="29.008"/><use xlink:href="#a" x="96.093"/><path d="M505.46 962.77c-.393 0-.812-.28-.812-.784v-1.4c-1.176 1.65-2.995 2.66-5.432 2.66-4.508 0-7.028-3.695-7.028-7.924 0-4.2 2.52-7.896 7.028-7.896 2.437 0 4.256 1.008 5.432 2.632v-6.44c0-.504.42-.783.813-.783a.78.78 0 0 1 .784.783v18.368c0 .504-.42.784-.784.784zm-6.244-13.748c-3.304 0-5.432 2.66-5.432 6.3s2.128 6.328 5.432 6.328c3.332 0 5.432-2.687 5.432-6.328s-2.1-6.3-5.432-6.3z"/><use xlink:href="#d" x="83.692"/><path d="M526.907 948.63c-.168.084-.28.14-.42.14-.476 0-.784-.504-.784-.952 0-.616 1.596-.756 1.596-2.548v-2.128c0-.532.393-.84.784-.84s.813.308.813.84v2.128c0 .645-.31 2.437-1.988 3.36z"/><use xlink:href="#c" x="119.643"/><use xlink:href="#f"/><use xlink:href="#g"/><path d="M601.78 962.77h-.028c-.924 0-2.24-.504-2.772-2.184-1.176 1.65-2.995 2.66-5.432 2.66-4.563 0-7.028-3.752-7.028-7.924 0-4.228 2.52-7.896 7.028-7.896 2.437 0 4.256 1.008 5.432 2.632v-1.372c0-.448.364-.784.813-.784.392 0 .784.28.784.784v11.284c0 1.792 2.016.672 2.016 2.016 0 .364-.252.784-.812.784zm-8.232-13.748c-3.304 0-5.432 2.66-5.432 6.3s2.128 6.328 5.432 6.328c3.332 0 5.432-2.687 5.432-6.328s-2.1-6.3-5.432-6.3z"/><use xlink:href="#f" x="52.108"/><path d="M625.298 962.937c-1.512 0-2.772-1.4-2.772-2.968v-16.353c0-.504.42-.783.813-.783a.78.78 0 0 1 .784.783v16.353c0 1.792 1.987.756 1.987 2.016 0 .477-.336.952-.812.952z"/><use xlink:href="#a" x="237.493"/><use xlink:href="#b" x="237.493"/><use xlink:href="#g" x="80.304"/><use xlink:href="#c" x="254.236"/><use xlink:href="#c" x="267.536"/><path d="M706.048 962.77h-.867c-2.213 0-3.305-1.092-3.305-3.276V949.5h-1.428c-.504 0-.784-.42-.784-.812 0-.364.28-.784.784-.784h1.428v-4.284c0-.504.42-.783.813-.783s.784.28.784.783v4.284h2.575c.504 0 .784.42.784.784 0 .392-.28.813-.784.813h-2.575v9.995c0 1.372.392 1.68 1.708 1.68h.867c.504 0 .784.42.784.812 0 .364-.28.784-.784.784zm9.716.475c-4.508 0-7.028-3.695-7.028-7.924 0-4.2 2.52-7.896 7.028-7.896s7.028 3.695 7.028 7.896c0 4.23-2.52 7.924-7.028 7.924zm0-14.224c-3.304 0-5.432 2.66-5.432 6.3s2.128 6.328 5.432 6.328c3.332 0 5.432-2.687 5.432-6.328s-2.1-6.3-5.432-6.3zM740 963.245c-2.436 0-4.256-1.008-5.432-2.66v1.4c0 .504-.42.784-.784.784-.393 0-.812-.28-.812-.784v-18.368c0-.504.42-.783.813-.783a.78.78 0 0 1 .784.783v6.44c1.176-1.624 2.996-2.632 5.432-2.632 4.508 0 7.028 3.695 7.028 7.896 0 4.23-2.52 7.924-7.028 7.924zm0-14.224c-3.332 0-5.432 2.66-5.432 6.3s2.1 6.328 5.432 6.328 5.432-2.687 5.432-6.328-2.1-6.3-5.432-6.3z"/><use xlink:href="#g" x="179.952"/><use xlink:href="#g" x="196.696"/><use xlink:href="#c" x="370.63"/></g><g fill="none" stroke="#999" class="S"><path d="M316.488 940.266l12.185 7.035v14.07l-12.185 7.035-12.185-7.035V947.3l12.185-7.035z"/><path d="M324.104 977.2l-19.8-11.432v-22.864l19.8-11.432 19.8 11.432v22.864z"/><path d="M331.72 922.678l27.417 15.83v31.658l-27.417 15.83-27.417-15.83v-31.658l27.417-15.83z"/></g><path d="M908.548 954.06h-8.765c-.504 0-.812-.42-.812-.812 0-.364.308-.784.812-.784h8.765c.532 0 .812.42.812.784 0 .392-.28.812-.812.812zm0 3.976h-8.765c-.504 0-.812-.42-.812-.783 0-.393.308-.812.812-.812h8.765c.532 0 .812.42.812.813 0 .363-.28.783-.812.783zm20.187 4.734c-.4 0-.812-.28-.812-.784V953.8a4.77 4.77 0 0 0-4.788-4.788c-2.632 0-4.787 2.128-4.787 4.788v8.176c0 .504-.42.784-.785.784-.392 0-.812-.28-.812-.784v-13.3c0-.504.42-.784.812-.784.365 0 .785.28.785.784v.896c1.26-1.372 2.912-2.156 4.787-2.156a6.44 6.44 0 0 1 6.385 6.384v8.176c0 .504-.42.784-.785.784zm9.492.475c-4.508 0-7.027-3.695-7.027-7.924 0-4.2 2.52-7.896 7.027-7.896s7.028 3.695 7.028 7.896c0 4.23-2.52 7.924-7.028 7.924zm0-14.224c-3.304 0-5.432 2.66-5.432 6.3s2.128 6.328 5.432 6.328c3.332 0 5.432-2.687 5.432-6.328s-2.1-6.3-5.432-6.3zm14.083 13.75h-.867c-2.213 0-3.305-1.092-3.305-3.276V949.5H946.7c-.504 0-.784-.42-.784-.812 0-.364.28-.784.784-.784h1.428v-4.284c0-.504.42-.783.813-.783s.783.28.783.783v4.284h2.576c.504 0 .784.42.784.784 0 .392-.28.813-.784.813h-2.576v9.995c0 1.372.393 1.68 1.7 1.68h.867c.504 0 .784.42.784.812 0 .364-.28.784-.784.784zm19.376 0c-.392 0-.812-.28-.812-.784V953.8c0-2.66-2.127-4.788-4.787-4.788-2.633 0-4.788 2.128-4.788 4.788v8.176c0 .504-.42.784-.784.784-.393 0-.812-.28-.812-.784v-18.368c0-.504.42-.783.813-.783a.78.78 0 0 1 .784.783v5.965c1.176-1.372 2.884-2.156 4.788-2.156a6.44 6.44 0 0 1 6.384 6.384v8.176c0 .504-.42.784-.784.784zm17.714 0h-.03c-.924 0-2.24-.504-2.77-2.184-1.176 1.65-2.996 2.66-5.432 2.66-4.564 0-7.028-3.752-7.028-7.924 0-4.228 2.52-7.896 7.028-7.896 2.436 0 4.256 1.008 5.432 2.632v-1.372c0-.448.364-.784.813-.784.392 0 .783.28.783.784v11.284c0 1.792 2.017.672 2.017 2.016a.77.77 0 0 1-.812.784zm-8.232-13.748c-3.305 0-5.432 2.66-5.432 6.3s2.127 6.328 5.432 6.328c3.332 0 5.432-2.687 5.432-6.328s-2.1-6.3-5.432-6.3zm16.586.25c-2.633 0-4.8 2.128-4.8 4.788v7.924c0 .504-.42.784-.783.784-.393 0-.812-.28-.812-.784v-13.3c0-.504.42-.784.813-.784.363 0 .783.28.783.784v1.148c1.26-1.372 2.912-2.156 4.8-2.156.504 0 .812.42.812.784 0 .392-.308.812-.812.812zm19.684 13.497c-.393 0-.785-.28-.785-.784v-9.408a3.6 3.6 0 0 0-3.555-3.556c-1.933 0-3.584 1.624-3.584 3.528v9.436c0 .504-.393.784-.785.784s-.812-.28-.812-.784v-9.408c0-1.932-1.624-3.556-3.528-3.556-1.96 0-3.584 1.624-3.584 3.528v9.436c0 .504-.42.784-.783.784-.393 0-.812-.28-.812-.784v-13.3c0-.504.42-.784.813-.784.363 0 .783.28.783.784v.168a5.09 5.09 0 0 1 3.557-1.428c1.792 0 3.388.896 4.367 2.38.924-1.428 2.52-2.38 4.34-2.38 2.912 0 5.18 2.296 5.18 5.124v9.436c0 .504-.42.784-.812.784zm8.26-18.37h-.868a1.24 1.24 0 0 0-1.232 1.204v2.296h2.1c.53 0 .783.42.783.784 0 .392-.28.813-.783.813h-2.1v12.487c0 .504-.392.784-.784.784s-.783-.252-.783-.784v-12.487h-1.933c-.504 0-.784-.42-.784-.812 0-.364.28-.784.784-.784h1.933v-2.296a2.78 2.78 0 0 1 2.771-2.771h.896c.504 0 .812.392.812.812 0 .393-.28.756-.812.756zm13.83 18.37c-.392 0-.812-.28-.812-.784v-.896c-1.176 1.372-2.885 2.155-4.788 2.155-3.472 0-6.384-2.9-6.384-6.384v-8.176c0-.504.42-.784.812-.784.364 0 .784.28.784.784v8.176a4.788 4.788 0 1 0 9.576 0v-8.176c0-.504.42-.784.812-.784.364 0 .784.28.784.784v13.3c0 .504-.42.784-.784.784zm6.132.167c-1.512 0-2.77-1.4-2.77-2.968v-16.353c0-.504.42-.783.812-.783a.78.78 0 0 1 .784.783v16.353c0 1.792 1.988.756 1.988 2.016 0 .477-.336.952-.812.952z" class="T"/><g opacity=".8" fill="none" stroke="#d62374" stroke-width="3" class="S"><path d="M857.788 923.178l.866-.5.866.5"/><path d="M864.657 926.144l17.98 10.38" class="R"/><path d="M885.205 938.007l.866.5v1"/><path d="M886.07 945.44v20.76" class="R"/><path d="M886.07 969.165v1l-.866.5"/><path d="M880.068 973.63l-17.98 10.38" class="R"/><path d="M859.52 985.494l-.866.5-.866-.5"/><path d="M852.65 982.528l-17.98-10.38" class="R"/><path d="M832.104 970.665l-.866-.5v-1"/><path d="M831.238 963.234v-20.76" class="R"/><path d="M831.238 939.507v-1l.866-.5"/><path d="M837.24 935.042l17.98-10.38" class="R"/></g><g class="T"><use xlink:href="#h"/><path d="M415.427 243.763c-2.044 0-4.233-1.46-4.233-4.088v-42.63a24.86 24.86 0 0 0-24.966-24.965c-13.724 0-24.965 11.096-24.965 24.965v42.63c0 2.628-2.2 4.088-4.088 4.088-2.044 0-4.234-1.46-4.234-4.088v-69.348c0-2.63 2.2-4.088 4.234-4.088 1.897 0 4.088 1.46 4.088 4.088V175c6.57-7.154 15.184-11.242 24.965-11.242 18.104 0 33.287 15.037 33.287 33.287v42.63c0 2.628-2.19 4.088-4.088 4.088z"/><use xlink:href="#h" x="191.985"/><path d="M606.1 243.763c-2.044 0-4.234-1.46-4.234-4.088v-4.672c-6.132 7.154-15.037 11.242-24.965 11.242-18.104 0-33.287-15.184-33.287-33.287v-42.63c0-2.63 2.19-4.088 4.233-4.088 1.898 0 4.088 1.46 4.088 4.088v42.63a24.86 24.86 0 1 0 49.931 0v-42.63c0-2.63 2.2-4.088 4.234-4.088 1.897 0 4.088 1.46 4.088 4.088v69.348c0 2.628-2.2 4.088-4.088 4.088z"/><use xlink:href="#i"/><use xlink:href="#j"/><path d="M755.75 173.393c-13.724 0-24.966 11.096-24.966 24.966v41.316c0 2.628-2.19 4.088-4.088 4.088-2.044 0-4.233-1.46-4.233-4.088v-69.348c0-2.63 2.19-4.088 4.233-4.088 1.898 0 4.088 1.46 4.088 4.088v5.985c6.57-7.153 15.184-11.24 24.966-11.24 2.628 0 4.233 2.19 4.233 4.088 0 2.043-1.605 4.233-4.233 4.233z"/><use xlink:href="#k"/><path d="M860.84 244.64c-7.884 0-14.454-7.3-14.454-15.476v-85.262c0-2.628 2.2-4.088 4.234-4.088 1.897 0 4.088 1.46 4.088 4.088v85.262c0 9.344 10.365 3.94 10.365 10.512 0 2.482-1.752 4.964-4.233 4.964zm14.45-92.416c-4.672 0-8.32-3.65-8.32-8.322s3.65-8.322 8.32-8.322 8.322 3.65 8.322 8.322-3.65 8.322-8.322 8.322zm0 91.54c-2.044 0-4.233-1.314-4.233-4.088v-69.348c0-2.63 2.044-4.088 4.233-4.088 1.898 0 4.088 1.313 4.088 4.088v69.348c0 2.628-1.897 4.088-4.088 4.088zm93.732-.001h-.146c-4.817 0-11.68-2.628-14.454-11.388-6.13 8.614-15.62 13.87-28.322 13.87-23.798 0-36.646-19.564-36.646-41.317 0-22.046 13.14-41.17 36.646-41.17 12.7 0 22.2 5.256 28.322 13.724v-7.153c0-2.336 1.898-4.088 4.234-4.088 2.044 0 4.088 1.46 4.088 4.088v58.836c0 9.344 10.512 3.504 10.512 10.512 0 1.898-1.314 4.088-4.234 4.088zM926.1 172.08c-17.23 0-28.324 13.87-28.324 32.85s11.096 32.995 28.324 32.995c17.373 0 28.322-14.016 28.322-32.995s-10.95-32.85-28.322-32.85zm115.63 71.683c-2.043 0-4.233-1.46-4.233-4.088v-42.63a24.86 24.86 0 0 0-24.966-24.965c-13.723 0-24.965 11.096-24.965 24.965v42.63c0 2.628-2.2 4.088-4.088 4.088-2.044 0-4.234-1.46-4.234-4.088v-69.348c0-2.63 2.2-4.088 4.234-4.088 1.898 0 4.088 1.46 4.088 4.088V175c6.57-7.154 15.184-11.242 24.965-11.242 18.103 0 33.287 15.037 33.287 33.287v42.63c0 2.628-2.2 4.088-4.088 4.088zM535.554 379.33c-7.154 9.928-17.374 15.914-32.558 15.914-31.4 0-42.484-25.988-42.484-54.457 0-28.615 11.096-54.603 42.484-54.603 14.746 0 25.55 5.84 32.4 15.913.73.73.876 1.46.876 2.336 0 2.336-2.2 4.088-4.525 4.088-1.168 0-2.336-.437-3.212-1.605-5.256-7.592-13.14-12.4-25.55-12.4-24.235 0-34.163 18.98-34.163 46.28 0 27.155 9.928 46.135 34.163 46.135 12.4 0 20.44-4.672 25.842-12.4.73-1.46 2.044-1.897 3.212-1.897 2.2 0 4.38 1.897 4.38 4.233 0 .73-.292 1.606-.876 2.482zm42.63 15.915c-23.506 0-36.646-19.27-36.646-41.317 0-21.9 13.14-41.17 36.646-41.17s36.645 19.27 36.645 41.17c0 22.046-13.14 41.317-36.645 41.317zm0-74.166c-17.228 0-28.323 13.87-28.323 32.85s11.096 32.995 28.323 32.995c17.373 0 28.323-14.016 28.323-32.995s-10.95-32.85-28.323-32.85zm141.762 71.684c-2.044 0-4.088-1.46-4.088-4.088V339.62c0-10.074-8.468-18.54-18.542-18.54s-18.687 8.467-18.687 18.395v49.2c0 2.628-2.044 4.088-4.088 4.088s-4.233-1.46-4.233-4.088V339.62c0-10.074-8.468-18.54-18.396-18.54-10.22 0-18.687 8.467-18.687 18.395v49.2c0 2.628-2.2 4.088-4.088 4.088-2.044 0-4.234-1.46-4.234-4.088v-69.348c0-2.63 2.2-4.088 4.234-4.088 1.897 0 4.088 1.46 4.088 4.088v.875c4.817-4.672 11.388-7.445 18.54-7.445 9.344 0 17.666 4.672 22.775 12.4 4.818-7.446 13.14-12.4 22.63-12.4 15.184 0 27 11.972 27 26.717v49.2c0 2.628-2.2 4.088-4.233 4.088zm53 2.482c-12.702 0-22.2-5.256-28.323-13.87v37.813c0 2.627-2.2 4.233-4.088 4.233-2.044 0-4.234-1.606-4.234-4.233v-99.86c0-2.63 2.2-4.088 4.234-4.088 1.897 0 4.088 1.46 4.088 4.088v7.153c6.132-8.468 15.62-13.724 28.323-13.724 23.505 0 36.645 19.27 36.645 41.17 0 22.046-13.14 41.317-36.645 41.317zm0-74.166c-17.374 0-28.323 13.87-28.323 32.85s10.95 32.995 28.323 32.995 28.323-14.016 28.323-32.995-10.95-32.85-28.323-32.85zm122.93 71.684h-.146c-4.818 0-11.68-2.628-14.454-11.388-6.132 8.614-15.62 13.87-28.323 13.87-23.797 0-36.645-19.564-36.645-41.317 0-22.046 13.14-41.17 36.645-41.17 12.702 0 22.2 5.256 28.323 13.724v-7.153c0-2.336 1.898-4.088 4.234-4.088 2.044 0 4.088 1.46 4.088 4.088v58.836c0 9.344 10.512 3.504 10.512 10.512 0 1.898-1.314 4.088-4.234 4.088zm-42.923-71.684c-17.228 0-28.323 13.87-28.323 32.85s11.096 32.995 28.323 32.995c17.374 0 28.323-14.016 28.323-32.995s-10.95-32.85-28.323-32.85zm115.63 71.684c-2.045 0-4.234-1.46-4.234-4.088v-42.63a24.86 24.86 0 0 0-24.965-24.965c-13.725 0-24.966 11.096-24.966 24.965v42.63c0 2.628-2.2 4.088-4.088 4.088-2.044 0-4.233-1.46-4.233-4.088v-69.348c0-2.63 2.2-4.088 4.233-4.088 1.897 0 4.088 1.46 4.088 4.088V324c6.57-7.154 15.184-11.242 24.966-11.242 18.104 0 33.287 15.037 33.287 33.287v42.63c0 2.628-2.2 4.088-4.088 4.088z"/><use xlink:href="#l"/><path d="M329.99 541.763c-1.897 0-4.088-1.314-4.088-4.088v-47.45h-56.646v47.45c0 2.628-1.897 4.088-4.088 4.088-2.044 0-4.233-1.314-4.233-4.088v-95.773c0-2.773 2.19-4.088 4.233-4.088 2.2 0 4.088 1.46 4.088 4.088v40.003h56.646v-40.003c0-2.628 1.898-4.088 4.088-4.088 2.044 0 4.234 1.314 4.234 4.088v95.773c0 2.628-2.044 4.088-4.234 4.088z"/><use xlink:href="#k" x="-412.297" y="298"/><use xlink:href="#i" x="-189.532" y="298.001"/><path d="M542.127 541.763h-16.644c-2.628 0-4.234-2.2-4.234-4.088 0-2.044 1.606-4.234 4.234-4.234h4.088V446h-4.088c-2.628 0-4.234-2.044-4.234-4.088s1.606-4.088 4.234-4.088h16.644c2.628 0 4.088 2.044 4.088 4.088s-1.46 4.088-4.088 4.088h-4.234v87.45h4.234c2.628 0 4.088 2.2 4.088 4.234 0 1.898-1.46 4.088-4.088 4.088zm76.793 0c-2.044 0-4.233-1.46-4.233-4.088v-42.63a24.86 24.86 0 0 0-24.966-24.965c-13.724 0-24.965 11.096-24.965 24.965v42.63c0 2.628-2.2 4.088-4.088 4.088-2.044 0-4.234-1.46-4.234-4.088v-69.348c0-2.63 2.2-4.088 4.234-4.088 1.897 0 4.088 1.46 4.088 4.088V473c6.57-7.154 15.184-11.242 24.965-11.242 18.104 0 33.287 15.037 33.287 33.287v42.63c0 2.628-2.2 4.088-4.088 4.088zm75.776-71.83l-28.762 68.473c-.876 1.897-2.2 3.357-4.088 3.357s-3.357-1.46-4.233-3.357L628.85 470.08c-.292-.73-.292-1.314-.292-1.898 0-2.336 2.044-3.94 4.234-3.94 1.313 0 2.92.584 3.65 2.48l25.403 60.005 25.258-60.005c.876-1.897 2.336-2.628 3.796-2.628 2.2 0 4.233 1.605 4.233 3.94 0 .438 0 1.168-.437 1.898zm73.144 37.227h-60.6c1.313 16.645 12.117 28.762 28.03 28.762 7.884 0 17.228-3.504 21.46-10.074 1.022-1.605 2.2-2.043 3.504-2.043 2.2 0 4.526 1.752 4.526 3.94 0 1.314 0 1.605-2.774 4.818-6.716 7.883-16.497 11.68-26.717 11.68-23.506 0-36.646-19.27-36.646-41.317 0-21.9 13.14-41.17 36.646-41.17s36.645 19.418 36.645 41.17c0 2.2-2.044 4.233-4.088 4.233zm-32.557-37.082c-17.52 0-26.718 13.432-28.03 28.76h56.208c-1.313-16.644-12.117-28.76-28.177-28.76zm109.204 71.685c-2.044 0-4.234-1.46-4.234-4.088v-42.63a24.86 24.86 0 0 0-24.965-24.965c-13.724 0-24.966 11.096-24.966 24.965v42.63c0 2.628-2.2 4.088-4.088 4.088-2.044 0-4.233-1.46-4.233-4.088v-69.348c0-2.63 2.2-4.088 4.233-4.088 1.898 0 4.088 1.46 4.088 4.088V473c6.57-7.154 15.184-11.242 24.966-11.242 18.104 0 33.287 15.037 33.287 33.287v42.63c0 2.628-2.2 4.088-4.088 4.088zm42.925 0h-4.526c-11.533 0-17.228-5.693-17.228-17.082v-52.12h-7.445c-2.628 0-4.088-2.2-4.088-4.233 0-1.898 1.46-4.088 4.088-4.088h7.445v-22.338c0-2.628 2.2-4.088 4.234-4.088s4.088 1.46 4.088 4.088v22.338h13.432c2.628 0 4.088 2.2 4.088 4.088 0 2.043-1.46 4.233-4.088 4.233H873.98v52.12c0 7.154 2.044 8.76 8.905 8.76h4.526c2.628 0 4.088 2.2 4.088 4.234 0 1.898-1.46 4.088-4.088 4.088zm75.918-34.603h-60.588c1.314 16.645 12.117 28.762 28.03 28.762 7.884 0 17.228-3.504 21.46-10.074 1.022-1.605 2.2-2.043 3.504-2.043 2.2 0 4.526 1.752 4.526 3.94 0 1.314 0 1.605-2.774 4.818-6.715 7.883-16.497 11.68-26.717 11.68-23.506 0-36.646-19.27-36.646-41.317 0-21.9 13.14-41.17 36.646-41.17s36.645 19.418 36.645 41.17c0 2.2-2.043 4.233-4.088 4.233zm-32.557-37.082c-17.52 0-26.717 13.432-28.03 28.76h56.2c-1.314-16.644-12.118-28.76-28.178-28.76zm112.563 71.685c-2.044 0-4.234-1.46-4.234-4.088v-7.3c-6.13 8.614-15.62 13.87-28.322 13.87-23.506 0-36.646-19.27-36.646-41.317 0-21.9 13.14-41.17 36.646-41.17 12.7 0 22.2 5.256 28.322 13.724v-33.58c0-2.628 2.2-4.088 4.234-4.088 1.898 0 4.088 1.46 4.088 4.088v95.773c0 2.628-2.2 4.088-4.088 4.088zm-32.557-71.684c-17.23 0-28.324 13.87-28.324 32.85s11.096 32.995 28.324 32.995c17.373 0 28.322-14.016 28.322-32.995s-10.95-32.85-28.322-32.85z"/><use xlink:href="#k" x="-586.699" y="447"/><path d="M334.728 690.763h-42.34c-2.2 0-4.233-2.044-4.233-4.088v-95.773c0-2.482 1.313-4.088 3.796-4.088h39.564c14.454 0 26.28 11.972 26.28 25.987 0 8.614-3.796 16.06-10.365 20.878 10.512 4.817 17.373 15.184 17.373 27.154 0 16.645-13.432 29.93-30.075 29.93zM331.516 595h-35.04v35.915h35.04c11.826 0 17.958-10.512 17.958-17.812 0-10.074-8.176-18.104-17.958-18.104zm3.212 44.236h-38.25v43.215h38.25c11.972 0 21.754-9.635 21.754-21.607s-9.782-21.607-21.754-21.607zm105.994 16.926h-60.588c1.313 16.645 12.117 28.762 28.03 28.762 7.884 0 17.228-3.504 21.46-10.074 1.022-1.605 2.2-2.043 3.504-2.043 2.2 0 4.526 1.752 4.526 3.94 0 1.314 0 1.605-2.774 4.818-6.716 7.883-16.497 11.68-26.717 11.68-23.506 0-36.646-19.27-36.646-41.317 0-21.9 13.14-41.17 36.646-41.17s36.645 19.418 36.645 41.17c0 2.2-2.044 4.233-4.088 4.233zm-32.557-37.082c-17.52 0-26.718 13.432-28.03 28.76h56.208c-1.313-16.644-12.117-28.76-28.177-28.76zm112.563 37.082H460.14c1.313 16.645 12.117 28.762 28.03 28.762 7.884 0 17.228-3.504 21.46-10.074 1.022-1.605 2.2-2.043 3.504-2.043 2.2 0 4.526 1.752 4.526 3.94 0 1.314 0 1.605-2.774 4.818-6.716 7.883-16.497 11.68-26.717 11.68-23.506 0-36.646-19.27-36.646-41.317 0-21.9 13.14-41.17 36.646-41.17s36.645 19.418 36.645 41.17c0 2.2-2.044 4.233-4.088 4.233zM488.17 619.08c-17.52 0-26.718 13.432-28.03 28.76h56.208c-1.313-16.644-12.117-28.76-28.177-28.76zm81.324 26.28h-36.56c-2.103 0-3.387-2.2-3.387-4.234 0-1.898 1.284-4.088 3.387-4.088h36.56c2.22 0 3.388 2.2 3.388 4.088 0 2.044-1.168 4.234-3.388 4.234zM652.65 595h-60.734v35.915h44.53c2.773 0 4.233 2.044 4.233 4.088s-1.46 4.233-4.088 4.233h-44.675v47.45c0 2.628-2.2 4.088-4.088 4.088-2.044 0-4.233-1.46-4.233-4.088v-95.773c0-2.2 2.044-4.088 4.233-4.088h64.822c2.774 0 4.234 2.044 4.234 4.088S655.424 595 652.65 595zm36.058 25.393c-13.724 0-24.965 11.096-24.965 24.966v41.316c0 2.628-2.2 4.088-4.088 4.088-2.044 0-4.234-1.46-4.234-4.088v-69.348c0-2.63 2.2-4.088 4.234-4.088 1.897 0 4.088 1.46 4.088 4.088v5.985c6.57-7.153 15.184-11.24 24.965-11.24 2.628 0 4.234 2.2 4.234 4.088 0 2.043-1.606 4.233-4.234 4.233z"/><use xlink:href="#m"/><path d="M783.9 656.162h-60.6c1.313 16.645 12.117 28.762 28.03 28.762 7.884 0 17.228-3.504 21.46-10.074 1.022-1.605 2.2-2.043 3.504-2.043 2.2 0 4.526 1.752 4.526 3.94 0 1.314 0 1.605-2.774 4.818-6.716 7.883-16.497 11.68-26.717 11.68-23.506 0-36.646-19.27-36.646-41.317 0-21.9 13.14-41.17 36.646-41.17s36.645 19.418 36.645 41.17c0 2.2-2.044 4.233-4.088 4.233zm-32.557-37.082c-17.52 0-26.718 13.432-28.03 28.76h56.208c-1.313-16.644-12.117-28.76-28.177-28.76zm109.204 71.683c-2.044 0-4.234-1.46-4.234-4.088v-42.63a24.86 24.86 0 0 0-24.965-24.965c-13.724 0-24.966 11.096-24.966 24.965v42.63c0 2.628-2.2 4.088-4.088 4.088-2.044 0-4.233-1.46-4.233-4.088v-69.348c0-2.63 2.2-4.088 4.233-4.088 1.898 0 4.088 1.46 4.088 4.088V622c6.57-7.154 15.184-11.242 24.966-11.242 18.104 0 33.287 15.037 33.287 33.287v42.63c0 2.628-2.2 4.088-4.088 4.088zm82.05 0c-2.044 0-4.234-1.46-4.234-4.088v-7.3c-6.13 8.614-15.62 13.87-28.322 13.87-23.506 0-36.646-19.27-36.646-41.317 0-21.9 13.14-41.17 36.646-41.17 12.7 0 22.2 5.256 28.322 13.724v-33.58c0-2.628 2.2-4.088 4.234-4.088 1.898 0 4.088 1.46 4.088 4.088v95.773c0 2.628-2.2 4.088-4.088 4.088zM910.04 619.08c-17.23 0-28.324 13.87-28.324 32.85s11.096 32.995 28.324 32.995c17.373 0 28.322-14.016 28.322-32.995s-10.95-32.85-28.322-32.85zm64.533 72.56c-7.884 0-14.454-7.3-14.454-15.476v-85.262c0-2.628 2.2-4.088 4.234-4.088 1.898 0 4.088 1.46 4.088 4.088v85.262c0 9.344 10.365 3.94 10.365 10.512 0 2.482-1.752 4.964-4.233 4.964z"/><use xlink:href="#l" y="298"/><path d="M437.6 839.763h-16.644c-2.628 0-4.234-2.2-4.234-4.088 0-2.044 1.606-4.234 4.234-4.234h4.088V744h-4.088c-2.628 0-4.234-2.044-4.234-4.088s1.606-4.088 4.234-4.088H437.6c2.628 0 4.088 2.044 4.088 4.088S440.218 744 437.6 744h-4.234v87.45h4.234c2.628 0 4.088 2.2 4.088 4.234 0 1.898-1.46 4.088-4.088 4.088zm76.784 0c-2.044 0-4.233-1.46-4.233-4.088v-42.63a24.86 24.86 0 0 0-24.966-24.965c-13.724 0-24.965 11.096-24.965 24.965v42.63c0 2.628-2.2 4.088-4.088 4.088-2.044 0-4.234-1.46-4.234-4.088v-69.348c0-2.63 2.2-4.088 4.234-4.088 1.897 0 4.088 1.46 4.088 4.088V771c6.57-7.154 15.184-11.242 24.965-11.242 18.104 0 33.287 15.037 33.287 33.287v42.63c0 2.628-2.2 4.088-4.088 4.088zm40.59 2.774c-8.76 0-23.505-3.065-28.615-11.533-.584-.876-.584-1.605-.584-2.2 0-2.336 2.044-4.38 4.234-4.38.876 0 2.336.73 3.212 2.045 5.256 6.424 14.6 7.737 21.753 7.737 14.162 0 21.315-4.672 21.315-14.16 0-22.046-47.887-10.366-47.887-39.565 0-14.745 14.746-20.44 28.03-20.44 7.592 0 19.27 2.628 25.1 8.468.876.876 1.314 1.898 1.314 2.773 0 2.2-2.2 4.38-4.526 4.38-.876 0-1.897-.293-2.773-1.168-4.526-4.38-12.702-6.133-19.126-6.133-12.848 0-19.7 4.965-19.7 12.118 0 20.44 47.887 9.636 47.887 39.565 0 16.643-14.6 22.482-29.638 22.482zm103.513-37.375h-60.588c1.313 16.645 12.117 28.762 28.03 28.762 7.884 0 17.228-3.504 21.46-10.074 1.022-1.605 2.2-2.043 3.504-2.043 2.2 0 4.526 1.752 4.526 3.94 0 1.314 0 1.605-2.774 4.818-6.716 7.883-16.497 11.68-26.717 11.68-23.506 0-36.646-19.27-36.646-41.317 0-21.9 13.14-41.17 36.646-41.17s36.645 19.418 36.645 41.17c0 2.2-2.044 4.233-4.088 4.233zM625.93 768.08c-17.52 0-26.718 13.432-28.03 28.76h56.208c-1.313-16.644-12.117-28.76-28.177-28.76z"/><use xlink:href="#n"/><use xlink:href="#j" x="57.786" y="596"/><use xlink:href="#m" x="83.948" y="149"/><use xlink:href="#n" x="129.354"/><use xlink:href="#m" x="176.51" y="149"/><path d="M960.4 839.763c-2.044 0-4.233-1.46-4.233-4.088v-7.3c-6.133 8.614-15.622 13.87-28.324 13.87-23.505 0-36.645-19.27-36.645-41.317 0-21.9 13.14-41.17 36.645-41.17 12.702 0 22.2 5.256 28.324 13.724v-33.58c0-2.628 2.2-4.088 4.233-4.088 1.897 0 4.088 1.46 4.088 4.088v95.773c0 2.628-2.2 4.088-4.088 4.088zm-32.558-71.684c-17.227 0-28.322 13.87-28.322 32.85s11.096 32.995 28.322 32.995c17.374 0 28.324-14.016 28.324-32.995s-10.95-32.85-28.324-32.85zm115.922 37.083h-60.588c1.313 16.645 12.117 28.762 28.03 28.762 7.883 0 17.226-3.504 21.46-10.074 1.02-1.605 2.2-2.043 3.504-2.043 2.2 0 4.525 1.752 4.525 3.94 0 1.314 0 1.605-2.773 4.818-6.716 7.883-16.498 11.68-26.717 11.68-23.506 0-36.646-19.27-36.646-41.317 0-21.9 13.14-41.17 36.646-41.17s36.644 19.418 36.644 41.17c0 2.2-2.044 4.233-4.088 4.233zm-32.557-37.082c-17.52 0-26.718 13.432-28.03 28.76h56.208c-1.313-16.644-12.118-28.76-28.177-28.76z"/></g><defs ><path id="C" d="M509.466 1046.358c-1.2 0-3.22-.42-3.92-1.58-.08-.12-.08-.22-.08-.3 0-.32.28-.6.58-.6.12 0 .32.1.44.28.72.88 2 1.06 2.98 1.06 1.94 0 2.92-.64 2.92-1.94 0-3.02-6.562-1.42-6.562-5.422 0-2.02 2.02-2.8 3.84-2.8 1.04 0 2.64.36 3.44 1.16.12.12.18.26.18.38a.65.65 0 0 1-.62.6.53.53 0 0 1-.38-.16c-.62-.6-1.74-.84-2.62-.84-1.76 0-2.7.68-2.7 1.66 0 2.8 6.562 1.32 6.562 5.422 0 2.28-2 3.08-4.06 3.08z"/><path id="D" d="M520.187 1046.318c-3.22 0-5.02-2.64-5.02-5.66 0-3 1.8-5.64 5.02-5.64s5.02 2.64 5.02 5.64c0 3.02-1.8 5.66-5.02 5.66zm0-10.162c-2.36 0-3.88 1.9-3.88 4.5s1.52 4.52 3.88 4.52c2.38 0 3.88-1.92 3.88-4.52s-1.5-4.5-3.88-4.5z"/><path id="E" d="M535.967 1045.978c-.28 0-.58-.2-.58-.56v-.64c-.84.98-2.06 1.54-3.42 1.54-2.48 0-4.56-2.08-4.56-4.56v-5.842c0-.36.3-.56.58-.56.26 0 .56.2.56.56v5.842c0 1.9 1.52 3.42 3.42 3.42s3.42-1.52 3.42-3.42v-5.842c0-.36.3-.56.58-.56.26 0 .56.2.56.56v9.502c0 .36-.3.56-.56.56z"/><path id="F" d="M543.926 1036.337a3.42 3.42 0 0 0-3.421 3.42v5.66c0 .36-.3.56-.56.56-.28 0-.58-.2-.58-.56v-9.502c0-.36.3-.56.58-.56.26 0 .56.2.56.56v.82c.9-.98 2.08-1.54 3.42-1.54.36 0 .58.3.58.56a.58.58 0 0 1-.58.581z"/><path id="G" d="M554.107 1044.798c-.88.98-2.1 1.52-3.58 1.52-3.22 0-5.02-2.64-5.02-5.66 0-3 1.8-5.64 5.02-5.64 1.48 0 2.7.54 3.58 1.52a.53.53 0 0 1 .16.381.63.63 0 0 1-.58.6c-.14 0-.28-.06-.42-.2-.66-.74-1.58-1.16-2.74-1.16-2.36 0-3.88 1.9-3.88 4.5s1.52 4.52 3.88 4.52c1.16 0 2.08-.44 2.74-1.16.14-.14.28-.2.42-.2.3 0 .58.26.58.58a.57.57 0 0 1-.16.399z"/><path id="H" d="M565.688 1041.237h-8.302c.18 2.28 1.66 3.94 3.84 3.94 1.08 0 2.36-.48 2.94-1.38.14-.22.3-.28.48-.28.3 0 .62.24.62.54 0 .18 0 .22-.38.66-.92 1.08-2.26 1.6-3.66 1.6-3.22 0-5.02-2.64-5.02-5.66 0-3 1.8-5.64 5.02-5.64s5.02 2.66 5.02 5.64c0 .3-.28.58-.56.58zm-4.46-5.08c-2.4 0-3.66 1.84-3.84 3.94h7.7c-.18-2.28-1.66-3.94-3.86-3.94z"/><path id="I" d="M598.207 1045.978c-.2 0-.42-.12-.52-.34l-1.28-3.08h-7.2l-1.28 3.08c-.08.22-.32.34-.5.34-.3 0-.58-.22-.58-.54 0-.1 0-.16.04-.26l5.4-13.104a.63.63 0 0 1 .58-.38c.2 0 .38.12.48.38l5.4 13.104c.04.1.04.16.04.26 0 .32-.28.54-.58.54zm-5.4-12.183l-3.14 7.622h6.3l-3.16-7.622z"/><path id="J" d="M606.906 1045.978h-5.802c-.3 0-.58-.28-.58-.56v-13.122c0-.34.18-.56.52-.56h5.42c1.98 0 3.6 1.64 3.6 3.56 0 1.18-.52 2.2-1.42 2.86a4.06 4.06 0 0 1 2.38 3.721c0 2.28-1.84 4.1-4.12 4.1zm-.44-13.123h-4.8v4.92h4.8c1.62 0 2.46-1.44 2.46-2.44 0-1.38-1.12-2.48-2.46-2.48zm.44 6.062h-5.24v5.92h5.24c1.64 0 2.98-1.32 2.98-2.96s-1.34-2.96-2.98-2.96z"/><path id="K" d="M623.347 1044.138c-.98 1.36-2.38 2.18-4.46 2.18-4.3 0-5.82-3.56-5.82-7.46 0-3.92 1.52-7.482 5.82-7.482 2.02 0 3.5.8 4.44 2.18.1.1.12.2.12.32 0 .32-.3.56-.62.56-.16 0-.32-.06-.44-.22-.72-1.04-1.8-1.7-3.5-1.7-3.32 0-4.682 2.6-4.682 6.342 0 3.72 1.36 6.32 4.682 6.32 1.7 0 2.8-.64 3.54-1.7.1-.2.28-.26.44-.26.3 0 .6.26.6.58 0 .1-.04.22-.12.34z"/><path id="L" d="M811.362 1045.978c-.28 0-.58-.2-.58-.56v-5.84c0-1.9-1.52-3.42-3.42-3.42a3.42 3.42 0 0 0-3.421 3.421v5.84c0 .36-.3.56-.56.56-.28 0-.58-.2-.58-.56v-9.502c0-.36.3-.56.58-.56.26 0 .56.2.56.56v.64c.9-.98 2.08-1.54 3.42-1.54a4.6 4.6 0 0 1 4.561 4.561v5.84c0 .36-.3.56-.56.56z"/><path id="M" d="M818.242 1045.978h-.62c-1.58 0-2.36-.78-2.36-2.34v-7.142h-1.02c-.36 0-.56-.3-.56-.58 0-.26.2-.56.56-.56h1.02v-3.06c0-.36.3-.56.58-.56s.56.2.56.56v3.06h1.84c.36 0 .56.3.56.56 0 .28-.2.58-.56.58h-1.84v7.142c0 .98.28 1.2 1.22 1.2h.62c.36 0 .56.3.56.58 0 .26-.2.56-.56.56z"/><path id="N" d="M998.958 1033.435c-.64 0-1.14-.5-1.14-1.14s.5-1.14 1.14-1.14 1.14.5 1.14 1.14-.5 1.14-1.14 1.14zm0 12.543c-.28 0-.58-.18-.58-.56v-9.502c0-.36.28-.56.58-.56.26 0 .56.18.56.56v9.502c0 .36-.26.56-.56.56z"/><path id="O" d="M104.714 1045.51c-.633 0-1.267-.367-1.4-1.1-1.334 1.034-2.97 1.668-4.804 1.668-4.136 0-7.604-3.436-7.604-7.605v-9.24a1.37 1.37 0 0 1 1.4-1.435c.768 0 1.468.5 1.468 1.4v9.272c0 2.602 2.168 4.77 4.736 4.77 2.603 0 4.77-2.17 4.77-4.77v-9.24c0-1.034.667-1.468 1.4-1.468.768 0 1.435.5 1.435 1.435v14.9c0 .934-.667 1.4-1.4 1.4z"/><path id="P" d="M264.77 847.705h-11.62c.252 3.19 2.324 5.516 5.376 5.516 1.513 0 3.305-.672 4.116-1.932.196-.31.42-.393.672-.393.42 0 .868.336.868.757 0 .252 0 .308-.532.924-1.288 1.512-3.164 2.24-5.124 2.24-4.508 0-7.027-3.695-7.027-7.924 0-4.2 2.52-7.896 7.027-7.896s7.028 3.724 7.028 7.896c0 .42-.392.813-.784.813zm-6.244-7.112c-3.36 0-5.124 2.576-5.376 5.516h10.78c-.252-3.19-2.324-5.516-5.404-5.516z"/><path id="Q" d="M280.28 852.69c-1.232 1.372-2.94 2.128-5.013 2.128-4.508 0-7.027-3.695-7.027-7.924 0-4.2 2.52-7.896 7.027-7.896 2.072 0 3.78.756 5.013 2.128a.74.74 0 0 1 .224.532c0 .42-.392.84-.812.84-.195 0-.392-.084-.588-.28-.924-1.036-2.212-1.624-3.836-1.624-3.304 0-5.432 2.66-5.432 6.3s2.128 6.328 5.432 6.328c1.624 0 2.912-.616 3.836-1.624.196-.196.393-.28.588-.28.42 0 .813.364.813.813 0 .196-.056.364-.224.56z"/><path id="R" d="M284.676 836.786c-.896 0-1.597-.7-1.597-1.597s.7-1.596 1.597-1.596 1.596.7 1.596 1.596-.7 1.597-1.596 1.597zm0 17.556c-.393 0-.812-.252-.812-.784v-13.3c0-.504.393-.784.813-.784.363 0 .783.252.783.784v13.3c0 .504-.363.784-.783.784z"/><path id="S" d="M294.112 854.873c-1.68 0-4.508-.588-5.487-2.212-.112-.168-.112-.31-.112-.42 0-.448.392-.84.812-.84.168 0 .448.14.616.393 1.008 1.23 2.8 1.483 4.172 1.483 2.717 0 4.088-.896 4.088-2.716 0-4.228-9.184-1.987-9.184-7.588 0-2.828 2.828-3.92 5.376-3.92 1.456 0 3.696.504 4.816 1.624.168.168.252.364.252.532 0 .42-.42.84-.868.84a.74.74 0 0 1-.532-.224c-.868-.84-2.436-1.177-3.668-1.177-2.464 0-3.78.952-3.78 2.324 0 3.92 9.185 1.85 9.185 7.588 0 3.192-2.8 4.312-5.685 4.312z"/><path id="T" d="M517.167 576.27h-.028c-.924 0-2.24-.504-2.77-2.184-1.177 1.65-2.996 2.66-5.433 2.66-4.563 0-7.027-3.752-7.027-7.924 0-4.228 2.52-7.896 7.027-7.896 2.437 0 4.256 1.008 5.433 2.632v-1.372c0-.448.363-.784.812-.784.393 0 .784.28.784.784v11.284c0 1.792 2.016.672 2.016 2.016 0 .364-.252.784-.812.784zm-8.232-13.748c-3.304 0-5.432 2.66-5.432 6.3s2.128 6.328 5.432 6.328c3.332 0 5.433-2.687 5.433-6.328s-2.1-6.3-5.433-6.3z"/><path id="U" d="M532.26 576.27c-.393 0-.812-.28-.812-.784v-.896c-1.176 1.372-2.884 2.155-4.788 2.155-3.472 0-6.384-2.91-6.384-6.384v-8.176c0-.504.42-.784.813-.784.363 0 .783.28.783.784v8.176a4.77 4.77 0 1 0 9.576 0v-8.176c0-.504.42-.784.813-.784.363 0 .783.28.783.784v13.3c0 .504-.42.784-.783.784z"/><path id="V" d="M574.875 576.746c-4.508 0-7.027-3.695-7.027-7.924 0-4.2 2.52-7.896 7.027-7.896s7.028 3.695 7.028 7.896c0 4.23-2.52 7.924-7.028 7.924zm0-14.224c-3.304 0-5.432 2.66-5.432 6.3s2.128 6.328 5.432 6.328c3.332 0 5.433-2.687 5.433-6.328s-2.1-6.3-5.433-6.3z"/><path id="W" d="M638.492 293.242c-1.372 1.904-3.332 3.052-6.244 3.052-6.02 0-8.147-4.983-8.147-10.443 0-5.488 2.128-10.472 8.147-10.472 2.828 0 4.9 1.12 6.216 3.052.14.14.168.28.168.448 0 .447-.42.783-.867.783a.74.74 0 0 1-.616-.308c-1.008-1.456-2.52-2.38-4.9-2.38-4.647 0-6.552 3.64-6.552 8.876 0 5.208 1.904 8.848 6.552 8.848 2.38 0 3.92-.896 4.956-2.38.14-.28.393-.364.616-.364.42 0 .84.364.84.813 0 .14-.056.308-.168.476z"/><path id="X" d="M648.068 282.322c-2.632 0-4.788 2.128-4.788 4.788v7.924c0 .504-.42.784-.783.784-.393 0-.812-.28-.812-.784v-13.3c0-.504.42-.784.813-.784.363 0 .783.28.783.784v1.148c1.26-1.372 2.912-2.156 4.788-2.156.504 0 .813.42.813.784 0 .392-.31.812-.812.812z"/><path id="Y" d="M363.7 293.825c-.393 0-.812-.28-.812-.784v-8.176a4.77 4.77 0 0 0-4.788-4.788c-2.632 0-4.788 2.128-4.788 4.788v8.176c0 .504-.42.784-.783.784-.393 0-.812-.28-.812-.784v-13.3c0-.504.42-.784.813-.784.363 0 .783.28.783.784v.896c1.26-1.372 2.912-2.156 4.788-2.156a6.44 6.44 0 0 1 6.385 6.384v8.176c0 .504-.42.784-.784.784z"/><path id="Z" d="M287.416 571.74h-.868c-2.212 0-3.304-1.092-3.304-3.276v-9.995h-1.428c-.504 0-.784-.42-.784-.812 0-.364.28-.784.784-.784h1.428v-4.284c0-.504.42-.783.812-.783s.784.28.784.783v4.284h2.576c.504 0 .784.42.784.784 0 .392-.28.813-.784.813h-2.576v9.995c0 1.372.393 1.68 1.708 1.68h.868c.504 0 .784.42.784.812 0 .364-.28.784-.784.784z"/><path id="a" d="M391.977 945.214c-.896 0-1.596-.7-1.596-1.597s.7-1.596 1.596-1.596 1.597.7 1.597 1.596-.7 1.597-1.597 1.597zm0 17.556c-.392 0-.812-.252-.812-.784v-13.3c0-.504.392-.784.812-.784.364 0 .784.252.784.784v13.3c0 .504-.364.784-.784.784z"/><path id="b" d="M408.72 962.77c-.392 0-.812-.28-.812-.784v-8.176c0-2.66-2.128-4.788-4.787-4.788-2.633 0-4.788 2.128-4.788 4.788v8.176c0 .504-.42.784-.784.784-.393 0-.812-.28-.812-.784v-13.3c0-.504.42-.784.813-.784.364 0 .784.28.784.784v.896c1.26-1.372 2.912-2.156 4.788-2.156a6.44 6.44 0 0 1 6.384 6.384v8.176c0 .504-.42.784-.784.784z"/><path id="c" d="M417.904 963.302c-1.68 0-4.508-.588-5.488-2.212-.11-.168-.11-.31-.11-.42 0-.448.392-.84.812-.84.168 0 .448.14.616.393 1.008 1.23 2.8 1.483 4.172 1.483 2.716 0 4.088-.896 4.088-2.716 0-4.228-9.184-1.987-9.184-7.588 0-2.828 2.828-3.92 5.376-3.92 1.456 0 3.695.504 4.815 1.624.168.168.252.364.252.532 0 .42-.42.84-.867.84a.74.74 0 0 1-.532-.224c-.868-.84-2.437-1.177-3.668-1.177-2.464 0-3.78.952-3.78 2.324 0 3.92 9.184 1.85 9.184 7.588 0 3.192-2.8 4.312-5.684 4.312z"/><path id="d" d="M439.156 956.134h-11.62c.252 3.19 2.324 5.516 5.376 5.516 1.512 0 3.304-.672 4.116-1.932.196-.31.42-.393.672-.393.42 0 .868.336.868.757 0 .252 0 .308-.532.924-1.288 1.512-3.164 2.24-5.124 2.24-4.508 0-7.028-3.695-7.028-7.924 0-4.2 2.52-7.896 7.028-7.896s7.028 3.724 7.028 7.896c0 .42-.393.813-.784.813zm-6.244-7.112c-3.36 0-5.124 2.576-5.376 5.516h10.78c-.252-3.19-2.324-5.516-5.404-5.516z"/><path id="e" d="M454.668 961.117c-1.232 1.372-2.94 2.128-5.012 2.128-4.51 0-7.028-3.695-7.028-7.924 0-4.2 2.52-7.896 7.028-7.896 2.07 0 3.78.756 5.012 2.128a.74.74 0 0 1 .224.532c0 .42-.392.84-.812.84-.196 0-.393-.084-.588-.28-.925-1.036-2.212-1.624-3.836-1.624-3.305 0-5.433 2.66-5.433 6.3s2.128 6.328 5.433 6.328c1.624 0 2.91-.616 3.836-1.624.195-.196.392-.28.588-.28.42 0 .812.364.812.813 0 .196-.056.364-.224.56z"/><path id="f" d="M565.658 962.77c-.392 0-.812-.28-.812-.784v-1.4c-1.176 1.65-2.996 2.66-5.432 2.66-4.51 0-7.028-3.695-7.028-7.924 0-4.2 2.52-7.896 7.028-7.896 2.436 0 4.256 1.008 5.432 2.632v-6.44c0-.504.42-.783.812-.783a.78.78 0 0 1 .784.783v18.368c0 .504-.42.784-.784.784zm-6.243-13.748c-3.305 0-5.433 2.66-5.433 6.3s2.128 6.328 5.433 6.328c3.332 0 5.432-2.687 5.432-6.328s-2.1-6.3-5.432-6.3z"/><path id="g" d="M583.046 956.134h-11.62c.252 3.19 2.323 5.516 5.376 5.516 1.512 0 3.304-.672 4.115-1.932.196-.31.42-.393.672-.393.42 0 .868.336.868.757 0 .252 0 .308-.53.924-1.288 1.512-3.164 2.24-5.124 2.24-4.51 0-7.028-3.695-7.028-7.924 0-4.2 2.52-7.896 7.028-7.896s7.027 3.724 7.027 7.896c0 .42-.392.813-.784.813zm-6.243-7.112c-3.36 0-5.124 2.576-5.376 5.516h10.78c-.252-3.19-2.324-5.516-5.403-5.516z"/><path id="h" d="M343.305 243.763c-1.46 0-3.066-.876-3.796-2.482l-9.344-22.482h-52.56l-9.344 22.482c-.584 1.606-2.336 2.482-3.65 2.482-2.19 0-4.233-1.605-4.233-3.94 0-.73 0-1.168.292-1.898l39.42-95.627c.73-1.752 2.48-2.774 4.233-2.774 1.46 0 2.774.876 3.504 2.774l39.42 95.627c.292.73.292 1.168.292 1.898 0 2.336-2.044 3.94-4.233 3.94zm-39.42-88.912l-22.922 55.625h45.99l-23.067-55.625z"/><path id="i" d="M648.002 246.536c-8.76 0-23.506-3.065-28.615-11.533-.584-.876-.584-1.605-.584-2.19 0-2.336 2.044-4.38 4.233-4.38.876 0 2.336.73 3.212 2.045 5.256 6.424 14.6 7.737 21.754 7.737 14.16 0 21.315-4.672 21.315-14.16 0-22.046-47.887-10.366-47.887-39.565 0-14.745 14.745-20.44 28.03-20.44 7.592 0 19.27 2.628 25.11 8.468.876.876 1.313 1.898 1.313 2.773 0 2.2-2.19 4.38-4.525 4.38a3.87 3.87 0 0 1-2.774-1.168c-4.525-4.38-12.7-6.133-19.125-6.133-12.848 0-19.7 4.965-19.7 12.118 0 20.44 47.887 9.636 47.887 39.565 0 16.643-14.6 22.482-29.637 22.482z"/><path id="j" d="M712.388 243.763h-4.525c-11.534 0-17.228-5.693-17.228-17.082v-52.12h-7.446c-2.628 0-4.088-2.2-4.088-4.233 0-1.898 1.46-4.088 4.088-4.088h7.446v-22.338c0-2.628 2.19-4.088 4.233-4.088s4.088 1.46 4.088 4.088v22.338h13.432c2.628 0 4.088 2.19 4.088 4.088 0 2.043-1.46 4.233-4.088 4.233h-13.432v52.12c0 7.154 2.044 8.76 8.906 8.76h4.525c2.628 0 4.088 2.2 4.088 4.234 0 1.898-1.46 4.088-4.088 4.088z"/><path id="k" d="M836.165 243.763h-.146c-4.817 0-11.68-2.628-14.453-11.388-6.132 8.614-15.622 13.87-28.323 13.87-23.798 0-36.646-19.564-36.646-41.317 0-22.046 13.14-41.17 36.646-41.17 12.7 0 22.19 5.256 28.323 13.724v-7.153c0-2.336 1.897-4.088 4.233-4.088 2.044 0 4.088 1.46 4.088 4.088v58.836c0 9.344 10.512 3.504 10.512 10.512 0 1.898-1.313 4.088-4.233 4.088zm-42.923-71.684c-17.228 0-28.323 13.87-28.323 32.85s11.096 32.995 28.323 32.995c17.373 0 28.323-14.016 28.323-32.995s-10.95-32.85-28.323-32.85z"/><path id="l" d="M1047.716 321.08l-39.565 93.583c-2.92 6.862-8.905 8.76-15.62 8.76h-6.424c-2.628 0-4.088-2.2-4.088-4.233 0-1.898 1.46-4.088 4.088-4.088h6.424c3.212 0 6.57-.146 7.884-3.504l8.32-19.855-30.22-70.662c-.292-.73-.292-1.314-.292-1.898 0-2.336 2.044-3.94 4.233-3.94 1.314 0 2.92.584 3.65 2.48l27.155 63.362 26.863-63.362c.73-1.897 2.336-2.48 3.796-2.48 2.19 0 4.088 1.605 4.088 3.94 0 .584 0 1.168-.292 1.898z"/><path id="m" d="M700.535 599.224c-4.672 0-8.322-3.65-8.322-8.322s3.65-8.322 8.322-8.322 8.32 3.65 8.32 8.322-3.65 8.322-8.32 8.322zm0 91.54c-2.044 0-4.234-1.314-4.234-4.088v-69.348c0-2.63 2.044-4.088 4.234-4.088 1.897 0 4.088 1.313 4.088 4.088v69.348c0 2.628-1.898 4.088-4.088 4.088z"/><path id="n" d="M732.068 831.15c-6.424 7.153-15.33 11.096-26.133 11.096-23.506 0-36.646-19.27-36.646-41.317 0-21.9 13.14-41.17 36.646-41.17 10.804 0 19.71 3.94 26.133 11.096.876.876 1.168 1.898 1.168 2.773 0 2.2-2.044 4.38-4.233 4.38-1.022 0-2.044-.438-3.066-1.46-4.817-5.4-11.533-8.467-20-8.467-17.228 0-28.323 13.87-28.323 32.85s11.096 32.995 28.323 32.995c8.468 0 15.184-3.212 20-8.468 1.022-1.022 2.044-1.46 3.066-1.46 2.19 0 4.233 1.898 4.233 4.234 0 1.02-.292 1.897-1.168 2.92z"/></defs></svg>