<svg xmlns="http://www.w3.org/2000/svg" xmlns:xlink="http://www.w3.org/1999/xlink" viewBox="0 0 1080 2166"><defs><linearGradient id="A" x1="-259.784" y1="283.216" x2="1339.784" y2="1882.784" gradientUnits="userSpaceOnUse"><stop offset="0" stop-color="#43cea2"/><stop offset=".282" stop-color="#34a4a0"/><stop offset=".598" stop-color="#257c9e"/><stop offset=".848" stop-color="#1b639d"/><stop offset="1" stop-color="#185a9d"/></linearGradient><linearGradient id="B" x1="34" y1="1459.828" x2="995.842" y2="1459.828" gradientUnits="userSpaceOnUse"><stop offset="0" stop-color="#ffac27"/><stop offset="1" stop-color="#e71da0"/></linearGradient><linearGradient id="C" x1="33.998" y1="1123.655" x2="1021.025" y2="1123.655" gradientUnits="userSpaceOnUse"><stop offset="0" stop-opacity=".2"/><stop offset="1"/></linearGradient><path id="D" d="M312.024 203.847a1.596 1.596 0 0 1-1.672-1.596v-11.284h-12.538v11.284a1.634 1.634 0 0 1-3.268 0v-23.86a1.634 1.634 0 0 1 3.268 0v9.347h12.538v-9.31a1.634 1.634 0 1 1 3.268 0v23.784a1.609 1.609 0 0 1-1.596 1.634z"/><path id="E" d="M322.932 203.847h-4.37a1.615 1.615 0 0 1 0-3.229h.57v-20.593h-.57a1.615 1.615 0 0 1 0-3.229h4.37a1.616 1.616 0 1 1 0 3.229h-.57v20.593h.57a1.616 1.616 0 1 1 0 3.229z"/><path id="F" d="M345.312 178.923l-7.98 23.632a1.724 1.724 0 0 1-1.634 1.292 1.789 1.789 0 0 1-1.596-1.292l-8.017-23.632a1.622 1.622 0 0 1 3.077-1.026l6.535 19.263 6.573-19.263a1.511 1.511 0 0 1 1.481-1.102 1.621 1.621 0 0 1 1.71 1.558 1.175 1.175 0 0 1-.151.57z"/><path id="G" d="M373.28 203.81a1.543 1.543 0 0 1-1.634-1.596 9.196 9.196 0 0 1-6.27 2.279c-6.117 0-9.536-5.015-9.536-10.752 0-5.7 3.42-10.715 9.536-10.715a8.375 8.375 0 0 1 6.27 2.47v-7.066a1.634 1.634 0 0 1 3.268-.038v23.822a1.543 1.543 0 0 1-1.634 1.596zm-7.903-17.554c-3.8 0-6.27 2.964-6.27 7.485 0 4.56 2.47 7.522 6.27 7.522 3.838 0 6.27-2.963 6.27-7.522 0-4.52-2.432-7.485-6.27-7.485z"/><path id="H" d="M396.117 195.413h-14.06c.532 3.57 2.812 5.85 6.155 5.85a5.701 5.701 0 0 0 4.521-1.976 1.572 1.572 0 0 1 1.178-.607 1.773 1.773 0 0 1 1.71 1.672c0 .456-.114.798-.912 1.596a9.259 9.259 0 0 1-6.497 2.545c-6.117 0-9.536-5.053-9.536-10.752 0-5.66 3.42-10.715 9.536-10.715 6.193 0 9.5 5.054 9.5 10.715a1.62 1.62 0 0 1-1.596 1.672zm-7.903-9.157c-3.57 0-5.66 2.622-6.155 5.9h12.31c-.532-3.647-2.812-5.9-6.155-5.9z"/><path id="I" d="M419.79 203.847a3.695 3.695 0 0 1-3.381-2.166 8.707 8.707 0 0 1-6.687 2.812c-6.193 0-9.536-5.09-9.536-10.752s3.42-10.715 9.536-10.715a8.398 8.398 0 0 1 6.27 2.508v-.15a1.567 1.567 0 0 1 1.596-1.71 1.527 1.527 0 0 1 1.672 1.596v14.666a.615.615 0 0 0 .531.684 1.615 1.615 0 1 1 0 3.229zm-10.068-17.592c-3.8 0-6.27 2.964-6.27 7.485 0 4.56 2.47 7.522 6.27 7.522 3.838 0 6.27-2.963 6.27-7.522 0-4.52-2.432-7.485-6.27-7.485z"/><path id="J" d="M535.348 186.255a5.474 5.474 0 0 0-5.396 5.434v10.524a1.584 1.584 0 0 1-1.671 1.634 1.556 1.556 0 0 1-1.597-1.596v-16.945a1.609 1.609 0 0 1 1.597-1.634 1.558 1.558 0 0 1 1.633 1.292 8.79 8.79 0 0 1 5.434-1.938 1.616 1.616 0 1 1 0 3.229z"/><path id="K" d="M565.14 204.493c-8.13 0-8.13-9.65-8.13-15.197 0-5.357.836-13.185 8.093-13.185s8.17 7.638 8.17 13.185c0 5.775-.152 15.197-8.13 15.197zm4.863-15.197c0-3.344-.076-9.917-4.863-9.917s-4.863 6.573-4.863 9.917v2.128c0 3.95.532 9.84 4.825 9.84 4.37 0 4.9-5.89 4.9-9.84z"/><path id="L" d="M682.67 204.493a8.316 8.316 0 0 1-6.27-2.507v8.244a1.583 1.583 0 0 1-1.671 1.634 1.566 1.566 0 0 1-1.597-1.634v-24.924a1.566 1.566 0 0 1 1.597-1.634 1.583 1.583 0 0 1 1.671 1.634 9.12 9.12 0 0 1 6.27-2.318c6.117 0 9.536 5.016 9.536 10.715 0 5.775-3.42 10.8-9.536 10.8zm0-18.274c-3.762 0-6.27 3-6.27 7.484 0 4.56 2.47 7.56 6.27 7.56s6.27-2.963 6.27-7.522c0-4.52-2.47-7.522-6.27-7.522z"/><path id="M" d="M726.14 204.493c-6.117 0-9.536-5.015-9.536-10.752 0-5.7 3.42-10.715 9.536-10.715s9.537 5.016 9.537 10.715c0 5.737-3.42 10.752-9.537 10.752zm0-18.237c-3.8 0-6.27 2.964-6.27 7.485 0 4.56 2.47 7.522 6.27 7.522 3.838 0 6.27-2.963 6.27-7.522 0-4.52-2.432-7.485-6.27-7.485z"/><path id="N" d="M1040.176 203.615c-3.776 0-5.568-3.52-5.568-11.87s1.792-11.87 5.568-11.87 5.567 3.52 5.567 11.87-1.792 11.87-5.567 11.87zm0-21.822c-2.112 0-3.264 2.368-3.264 9.95s1.152 9.95 3.264 9.95 3.264-2.368 3.264-9.95-1.152-9.95-3.264-9.95z"/><path id="O" d="M541.745 2081.272c-2.317 0-8.055-.836-8.055-3.116a1.768 1.768 0 0 1 1.634-1.709c.874 0 .114.113 2.128.873a11.846 11.846 0 0 0 4.293.723c4.218 0 6.27-2.014 6.27-6.004v-1.71a8.892 8.892 0 0 1-6.27 2.279c-6.003 0-9.536-4.256-9.536-10.106 0-5.7 3.42-10.715 9.536-10.715a8.188 8.188 0 0 1 6.27 2.432v-.15a1.616 1.616 0 0 1 1.634-1.634 1.595 1.595 0 0 1 1.634 1.634v17.97c0 6.04-3.6 9.233-9.537 9.233zm0-26.255c-3.8 0-6.27 2.964-6.27 7.485 0 4.33 2.28 6.877 6.27 6.877s6.27-2.546 6.27-6.877c0-4.52-2.432-7.485-6.27-7.485z"/><path id="P" d="M39.906 287.577v-2.02h2.816v-19.54l-2.88.27v-1.482a8.69 8.69 0 0 0 3.648-1.887h1.536v22.64h2.688v2.02z"/><path id="Q" d="M52.45 283.063c.32 2.426 1.6 2.83 2.496 2.83 2.048 0 3.328-2.965 3.392-9.737a4.932 4.932 0 0 1-3.552 1.853c-2.592 0-4.96-1.954-4.96-7.48 0-4.717 1.92-7.614 4.96-7.614 4 0 5.92 2.426 5.92 11.186 0 9.77-2.176 13.813-5.823 13.813-2.976 0-4.096-1.887-4.544-4.717zm5.952-11.455c0-4.92-1.216-6.67-3.264-6.67-1.792 0-3.008 1.415-3.008 5.626 0 4.346 1.408 5.424 2.88 5.424a4.351 4.351 0 0 0 3.392-2.089z"/><path id="R" d="M179.714 281.917c.192 1.752.896 3.976 2.944 3.976 1.984 0 3.456-2.156 3.456-6.368 0-4.548-1.472-5.963-3.168-5.963a3.216 3.216 0 0 0-2.912 2.358l-1.792-.337.768-12.33h8.127l-.192 2.02h-6.08l-.448 7.412a4.64 4.64 0 0 1 3.071-1.146c2.688 0 4.928 2.628 4.928 7.917 0 5.56-2.56 8.457-5.63 8.457-3.328 0-4.992-2.628-5.184-5.795z"/><path id="S" d="M491.875 1959.916v16.778h2.4v2.02h-2.4v5.525h-2.304v-5.525h-7.39v-1.146l6.335-17.654zm-7.52 16.778h5.215v-14.555h-.064z"/><path id="T" d="M104.758 2131.433a1.36 1.36 0 0 1-1.4-1.101 7.763 7.763 0 0 1-4.804 1.668 7.666 7.666 0 0 1-7.604-7.605v-9.24a1.434 1.434 0 0 1 2.868-.033v9.272a4.753 4.753 0 1 0 9.507 0v-9.24a1.33 1.33 0 0 1 1.4-1.468 1.364 1.364 0 0 1 1.435 1.435v14.9a1.328 1.328 0 0 1-1.401 1.4z"/><path id="U" d="M715.908 2132.318c-3.22 0-5.02-2.64-5.02-5.662 0-3 1.8-5.64 5.02-5.64s5.02 2.64 5.02 5.64c0 3.02-1.8 5.662-5.02 5.662zm0-10.162c-2.36 0-3.88 1.9-3.88 4.5s1.52 4.52 3.88 4.52c2.38 0 3.88-1.92 3.88-4.52s-1.5-4.5-3.88-4.5z"/><path id="V" d="M749.828 2130.797a4.646 4.646 0 0 1-3.58 1.521c-3.22 0-5.02-2.64-5.02-5.662 0-3 1.8-5.64 5.02-5.64a4.651 4.651 0 0 1 3.58 1.52.534.534 0 0 1 .16.381.626.626 0 0 1-.58.6.586.586 0 0 1-.42-.199 3.526 3.526 0 0 0-2.74-1.16c-2.36 0-3.88 1.9-3.88 4.5s1.52 4.52 3.88 4.52a3.592 3.592 0 0 0 2.74-1.16.586.586 0 0 1 .42-.199.594.594 0 0 1 .58.58.569.569 0 0 1-.16.398z"/><path id="W" d="M761.408 2127.236h-8.302c.18 2.28 1.66 3.94 3.84 3.94a3.615 3.615 0 0 0 2.94-1.381.526.526 0 0 1 .479-.279.611.611 0 0 1 .62.541c0 .18 0 .22-.38.658a4.718 4.718 0 0 1-3.66 1.602c-3.22 0-5.02-2.64-5.02-5.662 0-3 1.8-5.64 5.02-5.64s5.02 2.66 5.02 5.64a.605.605 0 0 1-.56.58zm-4.46-5.08c-2.4 0-3.66 1.84-3.84 3.94h7.7c-.18-2.28-1.66-3.94-3.86-3.94z"/><path id="X" d="M789.666 2132.098a2.096 2.096 0 0 1-1.98-2.119v-11.684a.57.57 0 0 1 1.141 0v11.684c0 1.28 1.42.54 1.42 1.44a.645.645 0 0 1-.58.68z"/><path id="Y" d="M826.887 2131.98h-.02a2.073 2.073 0 0 1-1.98-1.561 4.538 4.538 0 0 1-3.88 1.9c-3.26 0-5.02-2.682-5.02-5.662 0-3.02 1.8-5.64 5.02-5.64a4.572 4.572 0 0 1 3.88 1.881v-.98a.565.565 0 0 1 .581-.561.547.547 0 0 1 .56.561v8.063c0 1.28 1.44.48 1.44 1.44a.55.55 0 0 1-.58.561zm-5.88-9.822c-2.36 0-3.88 1.9-3.88 4.5s1.52 4.52 3.88 4.52c2.38 0 3.88-1.92 3.88-4.52s-1.5-4.5-3.88-4.5z"/><path id="Z" d="M884.284 2131.98h-.62a2.075 2.075 0 0 1-2.36-2.342v-7.14h-1.02a.57.57 0 0 1 0-1.141h1.02v-3.06a.563.563 0 0 1 .58-.561.547.547 0 0 1 .56.561v3.06h1.84a.57.57 0 0 1 0 1.141h-1.84v7.14c0 .98.28 1.2 1.22 1.2h.62a.57.57 0 0 1 0 1.141z"/><path id="a" d="M895.225 2131.98a.563.563 0 0 1-.58-.561v-5.842a3.42 3.42 0 0 0-6.841 0v5.842a.57.57 0 0 1-1.141 0v-13.123a.57.57 0 0 1 1.141 0v4.262a4.443 4.443 0 0 1 3.421-1.541 4.598 4.598 0 0 1 4.561 4.561v5.842a.558.558 0 0 1-.561.561z"/><path id="b" d="M83.08 80h-6.9a2.55 2.55 0 0 1 0-5.1h.9v-32.52h-.9a2.55 2.55 0 0 1 0-5.1h6.9a2.551 2.551 0 1 1 0 5.1h-.9V74.9h.9a2.551 2.551 0 1 1 0 5.1z"/><path id="c" d="M282.276 43.282a4.32 4.32 0 1 1 4.32-4.319 4.302 4.302 0 0 1-4.32 4.319zm0 36.72a2.52 2.52 0 0 1-2.64-2.52v-26.76a2.534 2.534 0 0 1 2.64-2.58 2.472 2.472 0 0 1 2.52 2.58v26.76a2.421 2.421 0 0 1-2.52 2.52z"/><path id="d" d="M503.19 43.282a4.32 4.32 0 1 1 4.319-4.319 4.302 4.302 0 0 1-4.319 4.319zm0 36.72a2.52 2.52 0 0 1-2.64-2.52v-26.76a2.533 2.533 0 0 1 2.64-2.58 2.472 2.472 0 0 1 2.52 2.58v26.76a2.421 2.421 0 0 1-2.52 2.52z"/><path id="e" d="M589.6 81.02c-9.66 0-15.06-7.92-15.06-16.98 0-9 5.4-16.92 15.06-16.92s15.06 7.92 15.06 16.92c0 9.06-5.4 16.98-15.06 16.98zm0-28.8c-6 0-9.9 4.68-9.9 11.82 0 7.2 3.9 11.88 9.9 11.88 6.06 0 9.9-4.68 9.9-11.88 0-7.14-3.84-11.82-9.9-11.82z"/><path id="f" d="M711.387 80.12a6.122 6.122 0 0 1-6-6.12V39.862a2.58 2.58 0 0 1 5.16-.06V74a.947.947 0 0 0 .84 1.02 2.55 2.55 0 1 1 0 5.1z"/><path id="g" d="M117.937 128a1.068 1.068 0 0 1-1.102-1.063v-11.095a6.497 6.497 0 1 0-12.994 0v11.095a1.083 1.083 0 0 1-2.166 0V108.89a1.083 1.083 0 0 1 2.166 0v1.216a8.667 8.667 0 0 1 15.16 5.737v11.095a1.059 1.059 0 0 1-1.064 1.063z"/><path id="h" d="M191.352 128a1.037 1.037 0 0 1-1.063-1.063V114.17a4.844 4.844 0 0 0-9.688-.038v12.805a1.037 1.037 0 0 1-1.063 1.063 1.068 1.068 0 0 1-1.103-1.063V114.17a4.825 4.825 0 0 0-9.65-.038v12.805a1.083 1.083 0 0 1-2.166 0V108.89a1.083 1.083 0 0 1 2.166 0v.23a6.906 6.906 0 0 1 4.825-1.938 7.048 7.048 0 0 1 5.928 3.229 7.013 7.013 0 0 1 12.918 3.724v12.805a1.068 1.068 0 0 1-1.103 1.063z"/><path id="i" d="M216.585 128h-.038a3.933 3.933 0 0 1-3.762-2.964 8.619 8.619 0 0 1-7.371 3.609c-6.193 0-9.536-5.09-9.536-10.752 0-5.737 3.42-10.715 9.536-10.715a8.686 8.686 0 0 1 7.371 3.572v-1.862a1.071 1.071 0 0 1 1.102-1.063 1.037 1.037 0 0 1 1.064 1.063V124.2c0 2.432 2.735.912 2.735 2.736a1.045 1.045 0 0 1-1.102 1.064zm-11.17-18.655c-4.483 0-7.37 3.61-7.37 8.55s2.888 8.587 7.37 8.587c4.52 0 7.37-3.647 7.37-8.587s-2.85-8.55-7.37-8.55z"/><path id="j" d="M221.49 104.178a2.166 2.166 0 1 1 2.165-2.166 2.141 2.141 0 0 1-2.165 2.166zm0 23.822a1.045 1.045 0 0 1-1.103-1.063V108.89a1.047 1.047 0 0 1 1.103-1.063 1.034 1.034 0 0 1 1.063 1.063v18.048a1.016 1.016 0 0 1-1.063 1.063z"/><path id="k" d="M291.293 128h-1.178c-3 0-4.483-1.48-4.483-4.445V109.99h-1.937a1.083 1.083 0 0 1 0-2.165h1.938v-5.813a1.068 1.068 0 0 1 1.103-1.063 1.037 1.037 0 0 1 1.063 1.063v5.813h3.495a1.083 1.083 0 0 1 0 2.165h-3.495v13.564c0 1.86.532 2.28 2.317 2.28h1.178a1.083 1.083 0 0 1 0 2.166z"/><path id="l" d="M400.31 118.996h-15.768c.342 4.332 3.153 7.485 7.295 7.485a6.866 6.866 0 0 0 5.585-2.622.997.997 0 0 1 .912-.531 1.161 1.161 0 0 1 1.178 1.025c0 .342 0 .418-.722 1.254a8.969 8.969 0 0 1-6.953 3.039c-6.117 0-9.536-5.015-9.536-10.752 0-5.7 3.42-10.715 9.536-10.715s9.537 5.054 9.537 10.715a1.15 1.15 0 0 1-1.064 1.102zm-8.473-9.65c-4.56 0-6.953 3.495-7.295 7.485h14.628c-.342-4.332-3.153-7.485-7.333-7.485z"/><path id="m" d="M453.93 109.687a6.494 6.494 0 0 0-6.497 6.497v10.753a1.083 1.083 0 0 1-2.166 0V108.89a1.083 1.083 0 0 1 2.166 0v1.558a8.676 8.676 0 0 1 6.497-2.925 1.083 1.083 0 1 1 0 2.165z"/></defs><rect width="1080" height="2166" rx="40" fill="url(#A)"/><path d="M995.842 1989.015C697.48 1706.043 150.922 1553.568 93.24 1087.33 87.587 1041.632 61.975 961.094 34 930.642v1058.373z" fill="url(#B)"/><path d="M325.744 422.34H33.998v-33.49h291.746zm-61.325-98.767H33.998v33.49h230.42zm-47.76-65.278H33.998v33.49h182.66zm693.048 718.06H33.998v33.49h875.708zM387.58 454.13H33.998v33.49H387.58zm69.494 65.278H33.998v33.49h423.076zm65.577 65.278H33.998v33.49H522.65zm72.623 65.278H33.998v33.49h561.275zm52.913 65.278H33.998v33.49h614.188zm63.64 65.278H33.998v33.49h677.828zm75.218 65.278H33.998v33.49h753.047zm61.775 65.278H33.998v33.49h814.82zm110.642 130.556H33.998v33.49h925.463zm32.69 65.278H33.998v33.49H992.15zm28.873 65.278H33.998v33.49h987.026zm0 65.278H33.998v33.49h987.026zm-13.654 65.278H33.998v33.49h973.372zm-27.615 65.278H33.998v33.49h945.757zm-48.148 65.278H33.998v33.49h897.61zm-48.148 65.278H33.998v33.49H883.46zm-55.026 65.278H33.998v33.49h794.436zm-55.026 65.278h-739.4v33.49h739.4zm-55.026 65.278H33.998v33.49h684.384zm-61.904 65.278H33.998v33.49h622.48zm-48.148 65.278H33.998v33.49H608.33zm-55.026 65.278H33.998v33.49h519.306zm-48.148 65.278H33.998v33.49h471.16z" opacity=".6" fill="url(#C)"/><g fill="#006837"><use xlink:href="#D"/><use xlink:href="#E"/><use xlink:href="#F"/><use xlink:href="#G"/><use xlink:href="#H"/><use xlink:href="#I"/><path d="M430.622 203.847h-.647c-3.6 0-4.977-1.9-4.977-5.016V186.9h-1.14a1.615 1.615 0 0 1-.038-3.23h1.14v-5.28a1.542 1.542 0 0 1 1.634-1.596 1.513 1.513 0 0 1 1.596 1.596v5.28h2.432a1.575 1.575 0 0 1 1.596 1.596 1.546 1.546 0 0 1-1.596 1.634H428.2v12.272c0 1.063.38 1.443 1.443 1.443h.95a1.568 1.568 0 0 1 1.634 1.596 1.546 1.546 0 0 1-1.596 1.634zm19.948 0a1.535 1.535 0 0 1-1.596-1.596V191.7a5.415 5.415 0 1 0-10.829 0v10.524a1.615 1.615 0 0 1-1.671 1.672 1.566 1.566 0 0 1-1.597-1.634V178.43a1.634 1.634 0 0 1 3.268-.038v6.573a7.662 7.662 0 0 1 5.396-1.938 8.734 8.734 0 0 1 8.663 8.663v10.524a1.554 1.554 0 0 1-1.634 1.634zm12.275.646c-2.1 0-5.585-.646-7.37-2.85a1.681 1.681 0 0 1 1.368-2.697 1.564 1.564 0 0 1 1.178.646 6.492 6.492 0 0 0 4.825 1.672c3.42 0 4.52-1.178 4.52-2.887 0-4.863-11.6-1.862-11.6-9.7 0-4.14 3.876-5.66 7.485-5.66 2.052 0 6.877 1.026 6.877 3.154a1.706 1.706 0 0 1-1.596 1.709 2.288 2.288 0 0 1-1.254-.493 6.161 6.161 0 0 0-4.027-1.141c-3.153 0-4.256 1.178-4.256 2.432 0 4.52 11.627 1.596 11.627 9.7 0 4.482-3.762 6.116-7.8 6.116zm29.03 0a8.318 8.318 0 0 1-6.27-2.507v8.244a1.583 1.583 0 0 1-1.671 1.634 1.565 1.565 0 0 1-1.597-1.634v-24.924a1.565 1.565 0 0 1 1.597-1.634 1.583 1.583 0 0 1 1.671 1.634 9.12 9.12 0 0 1 6.27-2.318c6.117 0 9.536 5.016 9.536 10.715 0 5.775-3.42 10.8-9.536 10.8zm0-18.274c-3.762 0-6.27 3-6.27 7.484 0 4.56 2.47 7.56 6.27 7.56s6.27-2.963 6.27-7.522c0-4.52-2.47-7.522-6.27-7.522z"/><use xlink:href="#H" x="125.627"/><use xlink:href="#J"/><path d="M551.65 203.847a1.579 1.579 0 0 1-1.596-1.596v-20.365l-3.04 2.964a1.47 1.47 0 0 1-1.063.456 1.774 1.774 0 0 1-1.71-1.672 1.558 1.558 0 0 1 .494-1.14l5.66-5.472a2.098 2.098 0 0 1 1.406-.607c1.063 0 1.52 1.063 1.52 1.938v23.86a1.606 1.606 0 0 1-1.672 1.634z"/><use xlink:href="#K"/><use xlink:href="#K" x="19.607"/><path d="M598.77 207.19a1.546 1.546 0 0 1-.798.266 1.672 1.672 0 0 1-1.596-1.672c0-1.292 1.443-1.558 1.443-2.165v-.038s-1.52-.418-1.52-2.698a2.459 2.459 0 0 1 2.546-2.355c1.785 0 2.85 2.014 2.85 3.647a6.013 6.013 0 0 1-2.926 5.016z"/><use xlink:href="#K" x="48.106"/><use xlink:href="#K" x="67.714"/><use xlink:href="#K" x="87.32"/><use xlink:href="#L"/><path d="M712.538 195.413h-14.06c.532 3.57 2.812 5.85 6.155 5.85a5.701 5.701 0 0 0 4.521-1.976 1.572 1.572 0 0 1 1.178-.607 1.773 1.773 0 0 1 1.71 1.672c0 .456-.114.798-.912 1.596a9.259 9.259 0 0 1-6.497 2.545c-6.117 0-9.536-5.053-9.536-10.752 0-5.66 3.42-10.715 9.536-10.715 6.193 0 9.5 5.054 9.5 10.715a1.62 1.62 0 0 1-1.596 1.672zm-7.903-9.157c-3.57 0-5.66 2.622-6.155 5.9h12.31c-.532-3.647-2.81-5.9-6.155-5.9z"/><use xlink:href="#M"/><use xlink:href="#L" x="66.31"/><path d="M765.852 203.923a3.877 3.877 0 0 1-3.8-3.876V178.43a1.634 1.634 0 0 1 3.268-.038v21.656a.6.6 0 0 0 .532.646 1.615 1.615 0 1 1 0 3.229zm20.898-8.5H772.7c.532 3.57 2.812 5.85 6.155 5.85a5.701 5.701 0 0 0 4.521-1.976 1.572 1.572 0 0 1 1.178-.607 1.773 1.773 0 0 1 1.71 1.672c0 .456-.114.798-.912 1.596a9.259 9.259 0 0 1-6.497 2.545c-6.117 0-9.536-5.053-9.536-10.752 0-5.66 3.42-10.715 9.536-10.715 6.193 0 9.5 5.054 9.5 10.715a1.62 1.62 0 0 1-1.596 1.672zm-7.903-9.157c-3.57 0-5.66 2.622-6.155 5.9H785c-.532-3.647-2.812-5.9-6.155-5.9zm243.858-1.456c.256-2.72 1.728-4.928 4.704-4.928 2.592 0 5.152 1.792 5.152 5.632 0 3.264-1.344 5.12-3.008 5.44v.064c2.592.864 3.392 3.296 3.392 5.76 0 4.735-2.752 6.847-5.632 6.847-3.072 0-5.15-2.464-5.184-5.823h2.112c.192 2.496 1.28 3.903 3.328 3.903 1.536 0 3.072-1.664 3.072-4.832 0-3.808-1.6-4.896-5.248-4.896v-1.92c3.456 0 4.864-.832 4.864-4.416 0-2.752-1.088-3.84-2.687-3.84-1.984 0-2.688 1.664-2.752 3.264z"/><use xlink:href="#N"/><use xlink:href="#N" x="-1000.469"/></g><g opacity=".8" fill="#f8aa00"><use xlink:href="#D" x="23.42" y="1868.763"/><use xlink:href="#E" x="23.42" y="1868.763"/><use xlink:href="#F" x="23.42" y="1868.763"/><path d="M387.427 2047.268l-14.323 25.607a1.578 1.578 0 0 1-1.368.874 1.705 1.705 0 0 1-1.672-1.634 2.578 2.578 0 0 1 .229-.798l14.285-25.608a1.591 1.591 0 0 1 1.406-.873 1.673 1.673 0 0 1 1.71 1.558 1.561 1.561 0 0 1-.267.874zm22.686 25.342a1.555 1.555 0 0 1-1.443-.988l-2.014-4.938h-12.652l-2.052 4.938a1.544 1.544 0 0 1-1.405.988 1.678 1.678 0 0 1-1.71-1.596 1.251 1.251 0 0 1 .151-.646l9.765-23.747a1.661 1.661 0 0 1 1.559-1.178 1.726 1.726 0 0 1 1.558 1.178l9.802 23.747a1.765 1.765 0 0 1 .114.646 1.621 1.621 0 0 1-1.672 1.596zm-9.802-21.277l-4.978 12.083h9.954z"/><use xlink:href="#E" x="95.961" y="1868.763"/><path d="M433.408 2072.6h-7.865a1.729 1.729 0 0 1-1.672-1.596v-23.822a1.705 1.705 0 0 1 1.672-1.634h7.865c7.827 0 10.4 6.46 10.4 13.487 0 7.067-2.583 13.564-10.4 13.564zm0-23.822h-6.27v20.593h6.27c4.9 0 7.143-3.6 7.143-10.335 0-6.6-2.24-10.258-7.143-10.258zm22.115 24.467a14.3 14.3 0 0 1-8.814-3.153 1.52 1.52 0 0 1-.532-1.178 1.646 1.646 0 0 1 1.634-1.634c.57 0 .76.2 1.444.722a10.28 10.28 0 0 0 6.269 2.014c4.52 0 6.497-1.634 6.497-4.445 0-7.902-15.16-3.42-15.16-13.754 0-4.635 3.913-6.953 8.93-6.953 2.62 0 6.383 1.026 8.244 3.23a1.497 1.497 0 0 1 .418 1.026 1.77 1.77 0 0 1-1.634 1.71c-.57 0-.873-.267-1.52-.836a8.344 8.344 0 0 0-5.509-1.862c-4.104 0-5.66 1.634-5.66 3.686 0 7.105 15.16 2.888 15.16 13.754 0 5.66-4.75 7.675-9.765 7.675z"/><use xlink:href="#G" x="120.128" y="1868.76"/><use xlink:href="#J" x="-27.006" y="1868.763"/><path d="M526.848 2072.647a1.549 1.549 0 0 1-1.597-1.254 8.842 8.842 0 0 1-5.471 1.899 8.733 8.733 0 0 1-8.663-8.662v-10.524a1.634 1.634 0 0 1 3.268-.038v10.563a5.415 5.415 0 1 0 10.829 0v-10.524a1.515 1.515 0 0 1 1.596-1.672 1.554 1.554 0 0 1 1.634 1.634v16.983a1.514 1.514 0 0 1-1.596 1.596z"/><use xlink:href="#O"/><path d="M579.932 2070.368a8.825 8.825 0 0 1-6.801 2.887c-6.117 0-9.536-5.015-9.536-10.752 0-5.7 3.42-10.715 9.536-10.715a8.826 8.826 0 0 1 6.801 2.888 1.652 1.652 0 0 1 .456 1.103 1.77 1.77 0 0 1-1.71 1.634 1.799 1.799 0 0 1-1.178-.532 5.581 5.581 0 0 0-4.369-1.862c-3.8 0-6.27 2.964-6.27 7.485 0 4.56 2.47 7.522 6.27 7.522a5.65 5.65 0 0 0 4.369-1.861 1.517 1.517 0 0 1 1.178-.57 1.641 1.641 0 0 1 1.254 2.774z"/><use xlink:href="#M" x="-133.743" y="1868.762"/><path d="M621.2 2054.676l-6.915 16.642a1.732 1.732 0 0 1-1.634 1.292 1.84 1.84 0 0 1-1.634-1.292l-6.915-16.642a2.361 2.361 0 0 1-.113-.684 1.639 1.639 0 0 1 1.672-1.558 1.555 1.555 0 0 1 1.443.987l5.547 13.3 5.548-13.3a1.637 1.637 0 0 1 3.153.532 1.884 1.884 0 0 1-.152.722z"/><use xlink:href="#H" x="244.69" y="1868.762"/><path d="M654.412 2055.018a5.474 5.474 0 0 0-5.396 5.434v10.524a1.584 1.584 0 0 1-1.671 1.634 1.557 1.557 0 0 1-1.597-1.596v-16.945a1.609 1.609 0 0 1 1.597-1.634 1.56 1.56 0 0 1 1.634 1.292 8.785 8.785 0 0 1 5.433-1.938 1.616 1.616 0 1 1 0 3.229z"/><use xlink:href="#I" x="255.588" y="1868.763"/><use xlink:href="#O" x="146.707"/><use xlink:href="#H" x="323.076" y="1868.762"/><path d="M737.814 2058.894c-3.306 0-6.003-3.002-6.003-6.687s2.697-6.648 6.003-6.648c3.268 0 5.965 2.963 5.965 6.648s-2.697 6.688-5.965 6.688zm0-10.106c-1.216 0-2.735 1.216-2.735 3.42s1.52 3.42 2.735 3.42 2.735-1.216 2.735-3.42-1.52-3.42-2.735-3.42zm15.844-1.862l-6.99 25.152a1.48 1.48 0 0 1-1.481 1.216 1.63 1.63 0 0 1-1.71-1.596 2.008 2.008 0 0 1 .038-.456l7.028-25.19a1.554 1.554 0 0 1 1.521-1.179 1.605 1.605 0 0 1 1.672 1.521 2.554 2.554 0 0 1-.076.531zm5.395 25.685c-3.268 0-5.965-3.002-5.965-6.687 0-3.646 2.697-6.648 5.965-6.648 3.306 0 6.004 3.002 6.004 6.648 0 3.686-2.698 6.688-6.004 6.688zm0-10.106c-1.178 0-2.697 1.216-2.697 3.42 0 2.242 1.52 3.458 2.697 3.458 1.216 0 2.736-1.216 2.736-3.458 0-2.203-1.52-3.42-2.736-3.42z"/></g><path d="M41.076 2068.012c-4.844 0-7.142-3.52-7.142-11.87s2.298-11.87 7.142-11.87 7.142 3.52 7.142 11.87-2.3 11.87-7.142 11.87zm0-21.823c-2.71 0-4.187 2.368-4.187 9.952s1.478 9.95 4.187 9.95 4.187-2.368 4.187-9.95-1.478-9.952-4.187-9.952z" fill="#f8aa00" opacity=".8"/><path d="M1024.7 2062.315c.192 1.663.896 3.775 2.944 3.775 1.984 0 3.456-2.048 3.456-6.048 0-4.32-1.472-5.663-3.168-5.663a3.184 3.184 0 0 0-2.912 2.239l-1.792-.32.768-11.712h8.127l-.192 1.92h-6.08l-.448 7.04a4.789 4.789 0 0 1 3.072-1.088c2.688 0 4.927 2.496 4.927 7.52 0 5.28-2.56 8.03-5.63 8.03-3.328 0-4.992-2.495-5.184-5.503zm12.287 0c.192 1.663.896 3.775 2.944 3.775 1.984 0 3.456-2.048 3.456-6.048 0-4.32-1.472-5.663-3.168-5.663a3.184 3.184 0 0 0-2.912 2.239l-1.792-.32.768-11.712h8.127l-.192 1.92h-6.08l-.448 7.04a4.786 4.786 0 0 1 3.071-1.088c2.688 0 4.928 2.496 4.928 7.52 0 5.28-2.56 8.03-5.63 8.03-3.328 0-4.992-2.495-5.184-5.503z" opacity=".8" fill="#f8aa00"/><g fill="#fff"><use xlink:href="#P"/><use xlink:href="#Q"/><use xlink:href="#Q" x="12.927"/><path d="M81.12 287.914c-3.776 0-5.567-3.706-5.567-12.5s1.79-12.5 5.567-12.5 5.567 3.706 5.567 12.5-1.79 12.5-5.567 12.5zm0-22.978c-2.112 0-3.264 2.493-3.264 10.478s1.152 10.478 3.264 10.478 3.264-2.493 3.264-10.478-1.152-10.478-3.264-10.478z"/></g><g opacity=".7" fill="#fff"><use xlink:href="#R"/><path d="M193.633 284.4v3.167h-2.687V284.4z"/><use xlink:href="#R" x="18.751"/></g><path d="M988.703 1182.704c.256-2.864 1.728-5.188 4.704-5.188 2.592 0 5.15 1.887 5.15 5.93 0 3.437-1.344 5.4-3.007 5.728v.067c2.592.9 3.392 3.47 3.392 6.064 0 4.986-2.752 7.2-5.632 7.2-3.072 0-5.15-2.595-5.184-6.132h2.112c.192 2.628 1.28 4.1 3.328 4.1 1.536 0 3.072-1.752 3.072-5.088 0-4-1.6-5.154-5.248-5.154v-2.02c3.456 0 4.863-.876 4.863-4.65 0-2.897-1.088-4.043-2.687-4.043-1.984 0-2.688 1.752-2.752 3.437zm18.11 19.81c-3.776 0-5.568-3.706-5.568-12.5s1.792-12.5 5.568-12.5 5.567 3.706 5.567 12.5-1.8 12.5-5.567 12.5zm0-22.978c-2.112 0-3.264 2.493-3.264 10.478s1.152 10.48 3.264 10.48 3.264-2.493 3.264-10.48-1.152-10.478-3.264-10.478z" opacity=".7" fill="#fff"/><g opacity=".7" fill="#fff"><use xlink:href="#P" x="431.969" y="1696.663"/><use xlink:href="#S"/></g><g fill="#fff"><path d="M42.577 1201.178v-2.02c2.048-7.2 8.447-11.253 8.447-16.778 0-2.56-1.216-3.84-2.784-3.84-1.824 0-3.168 1.482-3.36 5.12h-2.112c.256-5.525 2.624-7.143 5.407-7.143 3.04 0 5.152 2.156 5.152 6.2 0 6.064-5.184 7.95-8.64 16.44h8.767v2.02zm18.495.337c-3.776 0-5.567-3.706-5.567-12.5s1.8-12.5 5.567-12.5 5.567 3.706 5.567 12.5-1.8 12.5-5.567 12.5zm0-22.978c-2.112 0-3.264 2.493-3.264 10.478s1.152 10.48 3.264 10.48 3.264-2.493 3.264-10.48-1.152-10.478-3.264-10.478zM74 1201.515c-3.776 0-5.568-3.706-5.568-12.5s1.792-12.5 5.568-12.5 5.567 3.706 5.567 12.5-1.792 12.5-5.567 12.5zm0-22.978c-2.112 0-3.264 2.493-3.264 10.478s1.152 10.48 3.264 10.48 3.264-2.493 3.264-10.48-1.152-10.478-3.264-10.478z"/><use xlink:href="#S" x="-401.588" y="-783.063"/></g><path d="M34 218.295h1004.673" fill="none" stroke-miterlimit="10" stroke="#006837"/><path d="M1037.214 223.28l8.635-4.986-8.635-4.986v9.972z" fill="#006837"/><path d="M33.874 2028.65H1034.52" fill="none" stroke-miterlimit="10" stroke="#f8aa00"/><path d="M1032.184 2036.627l13.816-7.976-13.816-7.978v15.954z" fill="#f8aa00"/><g fill="#fff"><path d="M41.42 1984.24v-2.02c2.048-7.2 8.447-11.253 8.447-16.778 0-2.56-1.216-3.84-2.784-3.84-1.824 0-3.168 1.482-3.36 5.12H41.61c.256-5.525 2.624-7.143 5.407-7.143 3.04 0 5.152 2.156 5.152 6.2 0 6.064-5.184 7.95-8.64 16.44h8.77v2.02zm18.495.338c-3.776 0-5.567-3.706-5.567-12.5s1.8-12.5 5.567-12.5 5.567 3.706 5.567 12.5-1.792 12.5-5.567 12.5zm0-22.978c-2.112 0-3.264 2.493-3.264 10.478s1.152 10.48 3.264 10.48 3.264-2.493 3.264-10.48-1.152-10.478-3.264-10.478z"/><use xlink:href="#P" x="29.224" y="1696.663"/><path d="M88.586 1964.43c-.32-2.426-1.6-2.83-2.496-2.83-2.048 0-3.328 2.965-3.392 9.737a4.93 4.93 0 0 1 3.552-1.854c2.592 0 4.96 1.954 4.96 7.48 0 4.717-1.92 7.614-4.96 7.614-4 0-5.92-2.426-5.92-11.186 0-9.77 2.176-13.813 5.823-13.813 2.976 0 4.096 1.887 4.544 4.717zm-5.952 11.455c0 4.92 1.216 6.67 3.264 6.67 1.792 0 3.008-1.415 3.008-5.627 0-4.346-1.408-5.424-2.88-5.424a4.351 4.351 0 0 0-3.392 2.089z"/></g><g opacity=".6" fill="#fff"><path d="M42.372 2131.967a7.892 7.892 0 0 1-5.503-2.002 1.364 1.364 0 0 1-1.468 1.401 1.346 1.346 0 0 1-1.401-1.401v-20.88a1.435 1.435 0 0 1 2.869-.033v6.238a7.4 7.4 0 0 1 5.503-2.169c5.37 0 8.373 4.403 8.373 9.406 0 5.037-3.002 9.44-8.373 9.44zm0-16c-3.335 0-5.503 2.602-5.503 6.57 0 4.003 2.168 6.604 5.503 6.604s5.504-2.602 5.504-6.604c0-3.97-2.168-6.57-5.504-6.57zm25.555 8.037h-12.34c.467 3.136 2.468 5.137 5.403 5.137a5.003 5.003 0 0 0 3.969-1.734 1.383 1.383 0 0 1 1.034-.533 1.556 1.556 0 0 1 1.501 1.468c0 .4-.1.7-.8 1.4a8.129 8.129 0 0 1-5.704 2.235c-5.37 0-8.372-4.437-8.372-9.44 0-4.97 3.002-9.406 8.372-9.406 5.437 0 8.34 4.437 8.34 9.406a1.422 1.422 0 0 1-1.401 1.468zM61 2115.956c-3.136 0-4.97 2.3-5.403 5.17h10.807c-.467-3.202-2.468-5.17-5.403-5.17zm27.053 15.444a3.247 3.247 0 0 1-2.969-1.901 7.642 7.642 0 0 1-5.87 2.469c-5.437 0-8.372-4.47-8.372-9.44s3.002-9.406 8.372-9.406a7.369 7.369 0 0 1 5.504 2.202v-.134a1.376 1.376 0 0 1 1.4-1.501 1.341 1.341 0 0 1 1.468 1.401v12.875a.54.54 0 0 0 .467.601 1.418 1.418 0 1 1 0 2.835zm-8.84-15.443c-3.336 0-5.504 2.602-5.504 6.57 0 4.003 2.168 6.604 5.504 6.604 3.37 0 5.504-2.602 5.504-6.604 0-3.97-2.135-6.57-5.504-6.57z"/><use xlink:href="#T"/><path d="M115.202 2131.4h-.567c-3.17 0-4.37-1.668-4.37-4.403v-10.474h-1a1.418 1.418 0 1 1-.033-2.835h1v-4.637a1.355 1.355 0 0 1 1.435-1.4 1.328 1.328 0 0 1 1.401 1.4v4.637h2.135a1.383 1.383 0 0 1 1.4 1.401 1.356 1.356 0 0 1-1.4 1.434h-2.135v10.774c0 .934.333 1.268 1.268 1.268h.833a1.376 1.376 0 0 1 1.435 1.4 1.357 1.357 0 0 1-1.4 1.435zm4.604-20.415a2.401 2.401 0 1 1 2.402-2.401 2.392 2.392 0 0 1-2.402 2.401zm0 20.414a1.4 1.4 0 0 1-1.467-1.401v-14.876a1.408 1.408 0 0 1 1.467-1.435 1.374 1.374 0 0 1 1.401 1.435v14.876a1.346 1.346 0 0 1-1.401 1.401zm10.376-14.877h-1.5v13.442a1.364 1.364 0 0 1-1.468 1.401 1.346 1.346 0 0 1-1.401-1.401v-13.442h-1.367a1.418 1.418 0 0 1 0-2.835h1.367v-2.268a3.801 3.801 0 0 1 3.836-3.769 1.418 1.418 0 1 1 0 2.835.934.934 0 0 0-.967.9v2.302h1.5a1.418 1.418 0 1 1 0 2.835z"/><use xlink:href="#T" x="42.068"/><path d="M154.768 2131.466a3.403 3.403 0 0 1-3.336-3.402v-18.98a1.435 1.435 0 0 1 2.869-.033v19.013a.527.527 0 0 0 .467.567 1.418 1.418 0 1 1 0 2.835zm15.37-.066v-1.264c1.886-.237 2.046-.437 2.046-3.157v-6.7c0-2.8-1.248-4.017-3.064-4.017a5.597 5.597 0 0 0-3.47 1.493v9.476c0 2.527.187 2.658 2.06 2.896v1.264h-8.968v-1.264c2.254-.33 2.5-.4 2.5-3v-8.2c0-2.446-.303-2.565-2.185-2.922v-1.184a34.102 34.102 0 0 0 6.653-1.533l-.052 2.95 2.6-1.745a5.659 5.659 0 0 1 3.159-1.086c3.194 0 5.2 2.338 5.2 6.3v7.5c0 2.54.237 2.657 2.277 2.92v1.264zm23.9-3.703c-2.458 3.427-5.488 4.178-7.014 4.178-5.142 0-8.124-3.936-8.124-8.594a10.333 10.333 0 0 1 2.832-7.062 8.602 8.602 0 0 1 6.082-2.814 6.386 6.386 0 0 1 6.37 6.347c-.014.715-.08 1.277-.612 1.4-.767.184-6.17.5-10.318.647.062 4.587 2.717 6.74 5.556 6.74a6.776 6.776 0 0 0 4.543-1.866zm-7.07-12.7c-1.667 0-3.167 1.807-3.516 4.963l5.486-.118c.6-.026.848-.146.848-.792.04-2.022-1.037-4.053-2.818-4.053zm34.284.143c-1.943.343-2.248.624-3.105 2.765-1.33 3.462-3.102 8.53-4.934 13.94h-1.512l-4.65-11.46-4.55 11.46h-1.472l-4.685-14.192c-.687-1.985-.94-2.274-2.855-2.512v-1.25h9.397v1.25c-2.325.345-2.535.672-2.058 2.133l2.52 8.214c1.507-3.68 2.988-7.62 4.327-11.424h1.456c1.4 3.76 2.986 7.702 4.573 11.568.742-2.107 2.062-5.964 2.557-8.108.412-1.674-.008-2.078-2.753-2.383v-1.25h7.742zm9.4 3.748c-.92-2.606-2.155-3.984-4.2-3.984a2.166 2.166 0 0 0-2.225 2.266c0 1.497 1.046 2.264 3.16 3.216 3.278 1.496 5.3 2.787 5.3 5.736 0 3.85-3.6 5.764-6.945 5.764a12.073 12.073 0 0 1-4.92-1.161l-.662-4.892 1.252-.224c.8 2.5 2.33 4.75 4.976 4.75a2.231 2.231 0 0 0 2.438-2.281c0-1.423-.76-2.333-3.092-3.467-2.67-1.295-5.107-2.64-5.107-5.775 0-3.046 2.533-5.42 6.565-5.42a18.751 18.751 0 0 1 4.112.567l.62 4.577z"/></g><g opacity=".6" fill="#fff"><path d="M705.187 2132.357c-1.2 0-3.22-.42-3.92-1.58a.478.478 0 0 1-.08-.299.546.546 0 0 1 1.021-.32 3.815 3.815 0 0 0 2.98 1.061c1.94 0 2.92-.64 2.92-1.94 0-3.02-6.562-1.42-6.562-5.422 0-2.02 2.02-2.8 3.84-2.8a5.415 5.415 0 0 1 3.44 1.16.556.556 0 0 1 .18.379.647.647 0 0 1-.62.6.527.527 0 0 1-.38-.16 4.001 4.001 0 0 0-2.62-.84c-1.76 0-2.7.682-2.7 1.66 0 2.8 6.562 1.32 6.562 5.422 0 2.28-2 3.08-4.06 3.08z"/><use xlink:href="#U"/><path d="M731.688 2131.98a.563.563 0 0 1-.58-.561v-.64a4.443 4.443 0 0 1-3.421 1.541 4.61 4.61 0 0 1-4.561-4.561v-5.842a.57.57 0 0 1 1.14 0v5.842a3.421 3.421 0 0 0 6.842 0v-5.842a.571.571 0 0 1 1.141 0v9.502a.559.559 0 0 1-.561.561zm7.96-9.644a3.418 3.418 0 0 0-3.421 3.42v5.662a.57.57 0 0 1-1.141 0v-9.502a.57.57 0 0 1 1.141 0v.82a4.566 4.566 0 0 1 3.421-1.541.57.57 0 1 1 0 1.141z"/><use xlink:href="#V"/><use xlink:href="#W"/><path d="M765.386 2125.416a1.14 1.14 0 1 1 0-2.279 1.14 1.14 0 0 1 0 2.279zm0 6.563a1.141 1.141 0 1 1 0-2.281 1.141 1.141 0 0 1 0 2.281zm14.22.34c-4.4 0-5.82-3.7-5.82-7.46 0-3.742 1.42-7.482 5.82-7.482a5.096 5.096 0 0 1 4.44 2.18.407.407 0 0 1 .12.32.6.6 0 0 1-.62.561c-.28 0-.44-.24-.66-.52a3.879 3.879 0 0 0-3.28-1.4c-3.02 0-4.682 2.32-4.682 6.342 0 3.04.96 6.32 4.682 6.32 3.16 0 4.54-2.42 4.68-5.74h-2.44a.572.572 0 0 1-.6-.58.561.561 0 0 1 .56-.58h3.04a.556.556 0 0 1 .58.58c0 3.9-1.54 7.46-5.82 7.46z"/><use xlink:href="#X"/><use xlink:href="#U" x="80.719"/><path d="M809.046 2132.318a4.54 4.54 0 0 1-3.881-1.9v1a.57.57 0 0 1-1.141 0v-13.123a.57.57 0 0 1 1.141 0v4.602a4.574 4.574 0 0 1 3.881-1.881c3.22 0 5.02 2.64 5.02 5.64 0 3.02-1.8 5.662-5.02 5.662zm0-10.162c-2.38 0-3.88 1.9-3.88 4.5s1.5 4.52 3.88 4.52 3.88-1.92 3.88-4.52-1.5-4.5-3.88-4.5z"/><use xlink:href="#Y"/><use xlink:href="#X" x="41.599"/><path d="M848.026 2131.98a.545.545 0 0 1-.56-.561v-6.502h-7.762v6.502a.536.536 0 0 1-.561.561.55.55 0 0 1-.58-.561v-13.123a.55.55 0 0 1 .58-.561.536.536 0 0 1 .561.561v5.48h7.762v-5.48a.536.536 0 0 1 .56-.561.55.55 0 0 1 .58.561v13.123a.552.552 0 0 1-.58.561z"/><use xlink:href="#W" x="99.058"/><use xlink:href="#Y" x="46.959"/><use xlink:href="#X" x="88.558"/><use xlink:href="#Z"/><use xlink:href="#a"/><path d="M908.364 2131.98h-4.44a.607.607 0 0 1-.58-.561v-13.123a.59.59 0 0 1 .58-.561h4.44c4.12 0 5.48 3.44 5.48 7.102 0 3.72-1.36 7.143-5.48 7.143zm0-13.123h-3.88v11.982h3.88c3.42 0 4.34-2.96 4.34-5.98 0-3.562-1.24-6.002-4.34-6.002z"/><use xlink:href="#Y" x="99.898"/><use xlink:href="#Z" x="48.56"/><use xlink:href="#Y" x="118.778"/><path d="M962.424 2131.98h-8.882a.607.607 0 0 1-.58-.561v-13.123a.59.59 0 0 1 .58-.561h8.882a.561.561 0 1 1 0 1.121h-8.32v4.92h6.1a.551.551 0 0 1 .58.561.561.561 0 0 1-.56.58h-6.12v5.922h8.32a.567.567 0 0 1 .58.58.55.55 0 0 1-.58.561zm10.58.018a.498.498 0 0 1-.421-.221l-3.54-4.48-3.54 4.48a.496.496 0 0 1-.42.221.582.582 0 0 1-.601-.561.63.63 0 0 1 .12-.4l3.7-4.66-3.24-4.08a.7.7 0 0 1-.14-.4.6.6 0 0 1 .62-.561.496.496 0 0 1 .42.221l3.08 3.9 3.1-3.9a.442.442 0 0 1 .399-.221.6.6 0 0 1 .62.561.544.544 0 0 1-.14.359l-3.26 4.12 3.72 4.66a.577.577 0 0 1 .16.4.619.619 0 0 1-.64.561z"/><use xlink:href="#V" x="233.856"/><use xlink:href="#a" x="99.578"/><use xlink:href="#Y" x="181.577"/><path d="M1019.423 2131.98a.563.563 0 0 1-.58-.561v-5.842a3.421 3.421 0 0 0-6.841 0v5.842a.57.57 0 0 1-1.141 0v-9.502a.57.57 0 0 1 1.141 0v.64a4.563 4.563 0 0 1 7.981 3.02v5.842a.558.558 0 0 1-.561.561zm7.78 4.56c-1.7 0-4.102-.64-4.102-1.36a.636.636 0 0 1 .58-.641 7.129 7.129 0 0 1 1.061.48 7.513 7.513 0 0 0 2.461.379c2.56 0 3.88-1.26 3.88-3.72v-1.4a4.773 4.773 0 0 1-3.88 1.701c-3.16 0-5.02-2.24-5.02-5.322 0-3 1.8-5.64 5.02-5.64a4.572 4.572 0 0 1 3.88 1.881v-.96a.57.57 0 0 1 1.141 0v9.742c0 3.182-1.9 4.86-5.02 4.86zm0-14.383c-2.36 0-3.88 1.9-3.88 4.5 0 2.582 1.42 4.182 3.88 4.182s3.88-1.6 3.88-4.182c0-2.6-1.5-4.5-3.88-4.5z"/><use xlink:href="#W" x="282.676"/></g><g fill="#fff"><path d="M67.06 80a2.52 2.52 0 0 1-2.64-2.52V59.66h-19.8v17.82a2.581 2.581 0 0 1-5.16 0V39.802a2.581 2.581 0 0 1 5.16 0v14.76h19.8v-14.7a2.58 2.58 0 1 1 5.16 0V77.42a2.541 2.541 0 0 1-2.52 2.58z"/><use xlink:href="#b"/><path d="M117.218 40.642l-12.6 37.318a2.723 2.723 0 0 1-2.58 2.04 2.824 2.824 0 0 1-2.52-2.04L86.86 40.642a2.561 2.561 0 0 1 4.859-1.62l10.32 30.42 10.38-30.42a2.387 2.387 0 0 1 2.34-1.74 2.56 2.56 0 0 1 2.7 2.46 1.841 1.841 0 0 1-.24.9zm28.32-.66l-22.62 40.438a2.494 2.494 0 0 1-2.16 1.38 2.692 2.692 0 0 1-2.64-2.58 4.069 4.069 0 0 1 .36-1.26l22.56-40.438a2.511 2.511 0 0 1 2.22-1.38 2.643 2.643 0 0 1 2.7 2.46 2.464 2.464 0 0 1-.42 1.38zM180.157 80a2.457 2.457 0 0 1-2.28-1.56l-3.18-7.8h-19.98l-3.24 7.8a2.44 2.44 0 0 1-2.22 1.56 2.651 2.651 0 0 1-2.7-2.52 1.976 1.976 0 0 1 .24-1.02l15.42-37.498a2.621 2.621 0 0 1 2.46-1.86 2.725 2.725 0 0 1 2.46 1.86l15.48 37.498a2.812 2.812 0 0 1 .18 1.02 2.561 2.561 0 0 1-2.64 2.52zm-15.48-33.6l-7.86 19.08h15.72z"/><use xlink:href="#b" x="109.737"/><path d="M214.537 80h-12.42a2.73 2.73 0 0 1-2.64-2.52V39.862a2.693 2.693 0 0 1 2.64-2.58h12.42c12.36 0 16.44 10.2 16.44 21.3 0 11.16-4.08 21.42-16.44 21.42zm0-37.62h-9.9V74.9h9.9c7.74 0 11.28-5.7 11.28-16.32 0-10.44-3.54-16.2-11.28-16.2zm33.72 38.64c-4.38 0-10.5-1.8-13.92-4.98a2.4 2.4 0 0 1-.84-1.86 2.599 2.599 0 0 1 2.58-2.58c.9 0 1.2.3 2.28 1.14a16.242 16.242 0 0 0 9.899 3.18c7.14 0 10.26-2.58 10.26-7.02 0-12.48-23.94-5.4-23.94-21.72 0-7.32 6.18-10.98 14.1-10.98 4.14 0 10.08 1.62 13.02 5.1a2.365 2.365 0 0 1 .66 1.62 2.795 2.795 0 0 1-2.58 2.7c-.9 0-1.38-.42-2.4-1.32a13.181 13.181 0 0 0-8.7-2.94c-6.48 0-8.94 2.58-8.94 5.82 0 11.22 23.94 4.56 23.94 21.72 0 8.94-7.5 12.12-15.42 12.12z"/><use xlink:href="#c"/><path d="M301.175 81.02c-3.3 0-8.82-1.02-11.64-4.5a2.655 2.655 0 0 1 2.16-4.26 2.464 2.464 0 0 1 1.86 1.02c1.86 2.04 4.92 2.64 7.62 2.64 5.4 0 7.14-1.86 7.14-4.56 0-7.68-18.3-2.94-18.3-15.3 0-6.54 6.12-8.94 11.82-8.94 3.24 0 10.86 1.62 10.86 4.98a2.694 2.694 0 0 1-2.52 2.7 3.612 3.612 0 0 1-1.98-.78c-1.62-1.38-3.96-1.8-6.36-1.8-4.98 0-6.72 1.86-6.72 3.84 0 7.14 18.36 2.52 18.36 15.3 0 7.08-5.94 9.66-12.3 9.66z"/><use xlink:href="#c" x="50.038"/><path d="M365.972 80a2.424 2.424 0 0 1-2.52-2.52V60.8a8.55 8.55 0 1 0-17.099 0v16.62a2.551 2.551 0 0 1-2.64 2.64 2.472 2.472 0 0 1-2.52-2.58V50.66a2.387 2.387 0 0 1 2.52-2.52 2.509 2.509 0 0 1 2.58 1.98 13.703 13.703 0 0 1 22.259 10.68v16.62a2.454 2.454 0 0 1-2.58 2.58zm47.818.06a2.574 2.574 0 0 1-1.98-1.08l-12.48-17.46h-7.74v15.9a2.501 2.501 0 0 1-2.64 2.58 2.456 2.456 0 0 1-2.52-2.52V39.862a2.491 2.491 0 0 1 2.52-2.58h15.54c5.28 0 12.06 4.14 12.06 12.06a12.096 12.096 0 0 1-11.04 12.12l10.5 14.46a2.355 2.355 0 0 1 .54 1.56 2.76 2.76 0 0 1-2.76 2.58zm-9.36-37.68H391.6v14.04h12.78a7.02 7.02 0 0 0 .06-14.04zm43.02 24.3h-22.2c.84 5.64 4.44 9.24 9.72 9.24a9.005 9.005 0 0 0 7.14-3.12 2.483 2.483 0 0 1 1.86-.96 2.8 2.8 0 0 1 2.7 2.64c0 .72-.18 1.26-1.44 2.52a14.622 14.622 0 0 1-10.26 4.02c-9.66 0-15.06-7.98-15.06-16.98 0-8.94 5.4-16.92 15.06-16.92 9.78 0 15 7.98 15 16.92a2.558 2.558 0 0 1-2.52 2.64zm-12.48-14.46c-5.64 0-8.94 4.14-9.72 9.3h19.44c-.84-5.76-4.44-9.3-9.72-9.3zM492.2 80a2.457 2.457 0 0 1-2.52-2.52v-18.9a6.33 6.33 0 1 0-12.659-.06v18.9a2.454 2.454 0 0 1-2.58 2.58 2.424 2.424 0 0 1-2.52-2.52v-18.9a6.36 6.36 0 0 0-12.719-.06v18.9a2.501 2.501 0 0 1-2.64 2.58 2.456 2.456 0 0 1-2.52-2.52V50.66a2.632 2.632 0 0 1 4.8-1.44 11.56 11.56 0 0 1 6.66-2.1 11.359 11.359 0 0 1 8.939 4.26 11.24 11.24 0 0 1 8.88-4.26 11.459 11.459 0 0 1 11.519 11.4v18.9A2.501 2.501 0 0 1 492.2 80z"/><use xlink:href="#d"/><path d="M522.1 81.02c-3.3 0-8.82-1.02-11.64-4.5a2.655 2.655 0 0 1 2.16-4.26 2.463 2.463 0 0 1 1.859 1.02c1.86 2.04 4.92 2.64 7.62 2.64 5.4 0 7.14-1.86 7.14-4.56 0-7.68-18.3-2.94-18.3-15.3 0-6.54 6.12-8.94 11.82-8.94 3.24 0 10.86 1.62 10.86 4.98a2.694 2.694 0 0 1-2.521 2.7 3.612 3.612 0 0 1-1.979-.78c-1.62-1.38-3.96-1.8-6.36-1.8-4.98 0-6.72 1.86-6.72 3.84 0 7.14 18.36 2.52 18.36 15.3 0 7.08-5.94 9.66-12.3 9.66zm26.1 0c-3.3 0-8.82-1.02-11.64-4.5a2.655 2.655 0 0 1 2.16-4.26 2.463 2.463 0 0 1 1.859 1.02c1.86 2.04 4.92 2.64 7.62 2.64 5.4 0 7.14-1.86 7.14-4.56 0-7.68-18.3-2.94-18.3-15.3 0-6.54 6.12-8.94 11.82-8.94 3.24 0 10.86 1.62 10.86 4.98a2.694 2.694 0 0 1-2.52 2.7 3.612 3.612 0 0 1-1.98-.78c-1.62-1.38-3.96-1.8-6.36-1.8-4.98 0-6.72 1.86-6.72 3.84 0 7.14 18.36 2.52 18.36 15.3 0 7.08-5.94 9.66-12.3 9.66z"/><use xlink:href="#d" x="63.84"/><use xlink:href="#e"/><path d="M634.168 80a2.423 2.423 0 0 1-2.52-2.52V60.8a8.55 8.55 0 1 0-17.1 0v16.62a2.55 2.55 0 0 1-2.64 2.64 2.472 2.472 0 0 1-2.52-2.58V50.66a2.387 2.387 0 0 1 2.52-2.52 2.509 2.509 0 0 1 2.58 1.98 13.702 13.702 0 0 1 22.259 10.68v16.62a2.454 2.454 0 0 1-2.58 2.58zm11.162 5.28a2.433 2.433 0 0 1-1.261.42 2.641 2.641 0 0 1-2.52-2.64c0-2.04 2.28-2.46 2.28-3.42v-.06s-2.4-.66-2.4-4.26a3.882 3.882 0 0 1 4.021-3.72c2.82 0 4.5 3.18 4.5 5.76a9.492 9.492 0 0 1-4.619 7.919zm38.577-4.26c-13.2 0-17.46-11.1-17.46-22.38 0-11.58 4.56-22.44 17.46-22.44 5.46 0 10.02 1.92 13.32 6.54a2.561 2.561 0 0 1 .54 1.5 2.873 2.873 0 0 1-2.88 2.58c-1.08 0-1.2-.48-2.16-1.56-1.92-2.34-4.5-3.9-8.82-3.9-9.24 0-12.3 7.86-12.3 17.28 0 8.22 2.22 17.28 12.3 17.28 7.32 0 11.7-5.22 12.12-13.86h-5.4a2.502 2.502 0 0 1-2.641-2.58 2.472 2.472 0 0 1 2.521-2.58h8.22a2.52 2.52 0 0 1 2.64 2.64c-.24 11.22-4.74 21.48-17.46 21.48z"/><use xlink:href="#f"/><use xlink:href="#e" x="141.106"/><path d="M765.565 81.02a14.203 14.203 0 0 1-9.9-3.6 2.453 2.453 0 0 1-2.64 2.52 2.421 2.421 0 0 1-2.52-2.52V39.862a2.58 2.58 0 0 1 5.159-.06v11.22a13.321 13.321 0 0 1 9.9-3.9c9.66 0 15.06 7.92 15.06 16.92 0 9.06-5.4 16.98-15.06 16.98zm0-28.8c-6 0-9.9 4.68-9.9 11.82 0 7.2 3.9 11.88 9.9 11.88s9.9-4.68 9.9-11.88c0-7.14-3.9-11.82-9.9-11.82zM814.943 80a5.837 5.837 0 0 1-5.339-3.42 13.748 13.748 0 0 1-10.56 4.44c-9.78 0-15.06-8.04-15.06-16.98s5.4-16.92 15.06-16.92a13.259 13.259 0 0 1 9.899 3.96v-.24a2.475 2.475 0 0 1 2.52-2.7 2.412 2.412 0 0 1 2.64 2.52v23.16a.971.971 0 0 0 .84 1.08 2.55 2.55 0 1 1 0 5.1zm-15.898-27.78c-6 0-9.9 4.68-9.9 11.82 0 7.2 3.9 11.88 9.9 11.88 6.06 0 9.9-4.68 9.9-11.88 0-7.14-3.84-11.82-9.9-11.82z"/><use xlink:href="#f" x="114.958"/><use xlink:href="#f" x="126.237"/><path d="M869.242 51.742l-16.2 36.838a6.876 6.876 0 0 1-6.6 4.02h-1.92a2.42 2.42 0 0 1-2.52-2.64 2.386 2.386 0 0 1 2.52-2.52h1.86a1.894 1.894 0 0 0 1.979-.96l3.96-8.88-11.7-25.86a2.165 2.165 0 0 1-.301-1.14 2.706 2.706 0 0 1 2.761-2.52 2.309 2.309 0 0 1 2.159 1.56l9.78 21.72 9.54-21.72a2.376 2.376 0 0 1 2.22-1.5 2.659 2.659 0 0 1 2.76 2.46 2.035 2.035 0 0 1-.3 1.14z"/></g><g opacity=".7" fill="#fff"><path d="M53.073 103.077h-7.37v23.86A1.047 1.047 0 0 1 44.601 128a1.035 1.035 0 0 1-1.064-1.063v-23.86h-7.37a1.065 1.065 0 1 1 0-2.128h16.907a1.064 1.064 0 0 1 0 2.128zM72.68 128a1.068 1.068 0 0 1-1.102-1.063v-11.095a6.497 6.497 0 1 0-12.994 0v11.095a1.083 1.083 0 0 1-2.166 0v-24.925a1.083 1.083 0 0 1 2.166 0v8.093a8.44 8.44 0 0 1 6.497-2.926 8.734 8.734 0 0 1 8.663 8.663v11.095A1.059 1.059 0 0 1 72.681 128zm25.195 0h-.038a3.933 3.933 0 0 1-3.762-2.964 8.619 8.619 0 0 1-7.371 3.609c-6.193 0-9.536-5.1-9.536-10.752 0-5.737 3.42-10.715 9.536-10.715a8.686 8.686 0 0 1 7.371 3.572v-1.862a1.071 1.071 0 0 1 1.102-1.063 1.037 1.037 0 0 1 1.064 1.063V124.2c0 2.432 2.735.912 2.735 2.736A1.045 1.045 0 0 1 97.875 128zm-11.17-18.655c-4.483 0-7.37 3.6-7.37 8.55s2.888 8.587 7.37 8.587c4.52 0 7.37-3.647 7.37-8.587s-2.85-8.55-7.37-8.55z"/><use xlink:href="#g"/><path d="M137.508 109.687l-6.534 6.535 6.46 10.106a1.083 1.083 0 0 1 .228.608 1.155 1.155 0 0 1-1.14 1.025 1.077 1.077 0 0 1-.912-.494l-6.23-9.688-3.913 3.95v5.206a1.083 1.083 0 0 1-2.166 0V102a1.083 1.083 0 0 1 2.166 0v16.642l10.486-10.486a1.068 1.068 0 0 1 .798-.342 1.096 1.096 0 0 1 1.103 1.063 1.064 1.064 0 0 1-.343.798zm9.615 19.035c-2.28 0-6.117-.798-7.447-3a.922.922 0 0 1-.151-.57 1.036 1.036 0 0 1 1.938-.607c1.367 1.67 3.8 2.014 5.66 2.014 3.686 0 5.547-1.216 5.547-3.686 0-5.737-12.462-2.698-12.462-10.297 0-3.837 3.837-5.32 7.295-5.32 1.976 0 5.015.685 6.535 2.204a1.064 1.064 0 0 1 .342.722 1.232 1.232 0 0 1-1.178 1.14 1.006 1.006 0 0 1-.722-.304 7.597 7.597 0 0 0-4.978-1.596c-3.344 0-5.13 1.292-5.13 3.153 0 5.32 12.462 2.508 12.462 10.297 0 4.33-3.8 5.85-7.713 5.85z"/><use xlink:href="#h"/><use xlink:href="#i"/><use xlink:href="#j"/><path d="M243.45 128a1.068 1.068 0 0 1-1.102-1.063v-11.095a6.497 6.497 0 1 0-12.994 0v11.095a1.083 1.083 0 0 1-2.166 0V108.9a1.083 1.083 0 0 1 2.166 0v1.216a8.667 8.667 0 0 1 15.16 5.737v11.095A1.059 1.059 0 0 1 243.45 128zm9.122.228a3.982 3.982 0 0 1-3.762-4.027v-22.188a1.083 1.083 0 0 1 2.166 0V124.2c0 2.432 2.697 1.026 2.697 2.736a1.224 1.224 0 0 1-1.102 1.291zm20.176-18.883L262.45 133.7c-.76 1.786-2.317 2.28-4.064 2.28h-1.672a1.083 1.083 0 0 1 0-2.165h1.672c.835 0 1.7-.038 2.05-.912l2.166-5.167-7.865-18.4a1.22 1.22 0 0 1-.075-.494 1.062 1.062 0 0 1 1.102-1.025.976.976 0 0 1 .95.646l7.066 16.5 7-16.5a.989.989 0 0 1 .987-.646 1.03 1.03 0 0 1 1.064 1.025 1.206 1.206 0 0 1-.076.494z"/><use xlink:href="#k"/><path d="M303.72 128.646c-6.117 0-9.536-5.015-9.536-10.752 0-5.7 3.42-10.715 9.536-10.715s9.537 5.016 9.537 10.715c0 5.737-3.42 10.752-9.537 10.752zm0-19.3c-4.483 0-7.37 3.6-7.37 8.55s2.888 8.587 7.37 8.587c4.52 0 7.37-3.647 7.37-8.587s-2.85-8.55-7.37-8.55zm46.85-.116l-6.193 17.857c-.266.722-.607.912-1.102.912-.646 0-.836-.228-1.064-.912l-4.977-14.817-4.978 14.817c-.266.722-.608.912-1.102.912a1.111 1.111 0 0 1-1.064-.912l-6.154-17.857a1.605 1.605 0 0 1-.076-.418 1.079 1.079 0 0 1 1.102-.987.986.986 0 0 1 .988.722l5.205 15.046 4.977-14.855c.23-.723.456-.912 1.103-.912.456 0 .836.15 1.063.912l5.054 14.855 5.13-15.046a.985.985 0 0 1 .987-.722 1.028 1.028 0 0 1 1.103 1.405z"/><use xlink:href="#j" x="133.15"/><path d="M377.474 128a1.067 1.067 0 0 1-1.102-1.063v-1.9a8.619 8.619 0 0 1-7.371 3.609c-6.117 0-9.536-5.015-9.536-10.752 0-5.7 3.42-10.715 9.536-10.715a8.686 8.686 0 0 1 7.371 3.572v-8.74a1.083 1.083 0 0 1 2.166 0v24.925a1.059 1.059 0 0 1-1.064 1.063zM369 109.345c-4.483 0-7.37 3.61-7.37 8.55s2.888 8.587 7.37 8.587c4.52 0 7.37-3.647 7.37-8.587s-2.85-8.55-7.37-8.55z"/><use xlink:href="#l"/><path d="M411.485 128.722c-2.28 0-6.117-.798-7.447-3a.922.922 0 0 1-.151-.57 1.036 1.036 0 0 1 1.938-.607c1.367 1.67 3.8 2.014 5.66 2.014 3.686 0 5.547-1.216 5.547-3.686 0-5.737-12.462-2.698-12.462-10.297 0-3.837 3.837-5.32 7.295-5.32 1.976 0 5.016.685 6.535 2.204a1.064 1.064 0 0 1 .342.722 1.232 1.232 0 0 1-1.178 1.14 1.006 1.006 0 0 1-.722-.304 7.599 7.599 0 0 0-4.978-1.596c-3.344 0-5.13 1.292-5.13 3.153 0 5.32 12.462 2.508 12.462 10.297 0 4.33-3.8 5.85-7.713 5.85zm20.482-.076a8.619 8.619 0 0 1-7.371-3.609v9.84a1.083 1.083 0 1 1-2.166 0V108.9a1.083 1.083 0 0 1 2.166 0v1.862a8.686 8.686 0 0 1 7.371-3.572c6.117 0 9.536 5.016 9.536 10.715 0 5.737-3.42 10.752-9.536 10.752zm0-19.3c-4.52 0-7.37 3.6-7.37 8.55s2.85 8.587 7.37 8.587 7.37-3.647 7.37-8.587-2.85-8.55-7.37-8.55z"/><use xlink:href="#m"/><use xlink:href="#l" x="72.992"/><use xlink:href="#i" x="281.378"/><path d="M518.9 128a1.068 1.068 0 0 1-1.102-1.063v-1.9a8.619 8.619 0 0 1-7.371 3.609c-6.117 0-9.536-5.015-9.536-10.752 0-5.7 3.42-10.715 9.536-10.715a8.686 8.686 0 0 1 7.371 3.572v-8.74a1.083 1.083 0 0 1 2.166 0v24.925A1.059 1.059 0 0 1 518.9 128zm-8.473-18.655c-4.483 0-7.37 3.6-7.37 8.55s2.888 8.587 7.37 8.587c4.52 0 7.37-3.647 7.37-8.587s-2.85-8.55-7.37-8.55zM550.288 128a1.067 1.067 0 0 1-1.102-1.063v-1.9a8.619 8.619 0 0 1-7.371 3.609c-6.117 0-9.536-5.015-9.536-10.752 0-5.7 3.42-10.715 9.536-10.715a8.686 8.686 0 0 1 7.371 3.572v-8.74a1.083 1.083 0 0 1 2.166 0v24.925a1.059 1.059 0 0 1-1.064 1.063zm-8.473-18.655c-4.483 0-7.37 3.6-7.37 8.55s2.888 8.587 7.37 8.587c4.52 0 7.37-3.647 7.37-8.587s-2.85-8.55-7.37-8.55z"/><use xlink:href="#m" x="110.723"/><path d="M583.7 128a1.068 1.068 0 0 1-1.102-1.063v-1.216a8.44 8.44 0 0 1-6.497 2.925 8.758 8.758 0 0 1-8.663-8.662V108.9a1.083 1.083 0 0 1 2.166 0v11.095a6.497 6.497 0 0 0 12.994 0V108.9a1.083 1.083 0 0 1 2.166 0v18.048a1.059 1.059 0 0 1-1.064 1.063zm14.365 8.664c-3.23 0-7.8-1.216-7.8-2.584a1.206 1.206 0 0 1 1.103-1.216 13.689 13.689 0 0 1 2.014.912 14.236 14.236 0 0 0 4.673.722c4.863 0 7.37-2.394 7.37-7.067v-2.66a9.072 9.072 0 0 1-7.371 3.229c-6.003 0-9.536-4.256-9.536-10.106 0-5.7 3.42-10.715 9.536-10.715a8.686 8.686 0 0 1 7.371 3.572v-1.824a1.083 1.083 0 0 1 2.166 0v18.503c0 6.04-3.6 9.233-9.537 9.233zm0-27.318c-4.483 0-7.37 3.6-7.37 8.55 0 4.9 2.698 7.94 7.37 7.94s7.37-3.04 7.37-7.94c0-4.94-2.85-8.55-7.37-8.55z"/><use xlink:href="#k" x="336.439"/><use xlink:href="#m" x="186.228"/><path d="M659.53 118.996h-15.768c.342 4.332 3.153 7.485 7.295 7.485a6.866 6.866 0 0 0 5.585-2.622.997.997 0 0 1 .912-.531 1.161 1.161 0 0 1 1.178 1.025c0 .342 0 .418-.722 1.254a8.969 8.969 0 0 1-6.953 3.039c-6.117 0-9.536-5.015-9.536-10.752 0-5.7 3.42-10.715 9.536-10.715s9.537 5.054 9.537 10.715a1.15 1.15 0 0 1-1.064 1.102zm-8.473-9.65c-4.56 0-6.953 3.495-7.295 7.485H658.4c-.342-4.332-3.153-7.485-7.333-7.485z"/><use xlink:href="#i" x="467.605"/><use xlink:href="#k" x="403.652"/><use xlink:href="#h" x="532.09"/><path d="M745.977 118.996H730.2c.342 4.332 3.153 7.485 7.295 7.485a6.866 6.866 0 0 0 5.585-2.622.997.997 0 0 1 .912-.531 1.161 1.161 0 0 1 1.178 1.025c0 .342 0 .418-.722 1.254a8.969 8.969 0 0 1-6.953 3.039c-6.117 0-9.536-5.015-9.536-10.752 0-5.7 3.42-10.715 9.536-10.715s9.537 5.054 9.537 10.715a1.15 1.15 0 0 1-1.064 1.102zm-8.473-9.65c-4.56 0-6.953 3.495-7.295 7.485h14.628c-.342-4.332-3.153-7.485-7.333-7.485z"/><use xlink:href="#g" x="649.13"/><use xlink:href="#k" x="488.087"/></g></svg>