<svg xmlns="http://www.w3.org/2000/svg" xmlns:xlink="http://www.w3.org/1999/xlink" viewBox="0 0 1080 1080"><style><![CDATA[.K{opacity:.7}.L{fill:#fff}.M{opacity:.3}.N{stroke-miterlimit:10}]]></style><linearGradient id="A" gradientUnits="userSpaceOnUse" x1="11.716" y1="11.716" x2="1068.284" y2="1068.284"><stop offset="0" stop-color="#f953c6"/><stop offset=".08" stop-color="#f24dbd"/><stop offset=".484" stop-color="#d33395"/><stop offset=".805" stop-color="#c0237c"/><stop offset="1" stop-color="#b91d73"/></linearGradient><path d="M1040 1080H40c-22.09 0-40-17.91-40-40V40C0 17.91 17.91 0 40 0h1000c22.09 0 40 17.91 40 40v1000c0 22.09-17.91 40-40 40z" fill="url(#A)"/><g fill="#ff0"><use xlink:href="#C" class="K"/><use xlink:href="#C" y="89.348" class="K"/><use xlink:href="#C" y="178.696" class="K"/><use xlink:href="#C" y="446.74" class="K"/><use xlink:href="#D" class="K"/><use xlink:href="#E" class="K"/><use xlink:href="#D" x="538.128" class="K"/><use xlink:href="#E" x="-89.688" y="178.696" class="K"/><path d="M629.688 677.46c-31.754 0-57.495 25.742-57.495 57.495s25.74 57.495 57.495 57.495 57.495-25.742 57.495-57.495-25.742-57.495-57.495-57.495z" class="K"/><use xlink:href="#E" x="89.688" y="89.348" class="K"/></g><use xlink:href="#F" fill="none" stroke="#e6e6e6" stroke-width="2" class="M N"/><g fill="#e6e6e6"><use xlink:href="#G" class="M"/><use xlink:href="#H" class="M"/><use xlink:href="#G" x="-89.688" y="89.347" class="M"/><use xlink:href="#G" y="89.347" class="M"/><use xlink:href="#H" y="89.347" class="M"/><use xlink:href="#G" x="-89.688" y="178.695" class="M"/><use xlink:href="#G" y="178.695" class="M"/><use xlink:href="#H" y="178.695" class="M"/><use xlink:href="#G" x="-89.688" y="268.042" class="M"/><use xlink:href="#G" y="268.042" class="M"/><use xlink:href="#H" y="268.042" class="M"/><use xlink:href="#H" y="357.39" class="M"/><use xlink:href="#H" y="446.738" class="M"/><path d="M540 334.89c23.53 0 42.674 19.143 42.674 42.674S563.53 420.24 540 420.24s-42.674-19.143-42.674-42.674S516.47 334.89 540 334.89m0-2c-24.673 0-44.674 20-44.674 44.674s20 44.674 44.674 44.674 44.674-20 44.674-44.674-20-44.674-44.674-44.674z" class="M"/><path d="M540 424.24c23.53 0 42.674 19.143 42.674 42.674S563.53 509.587 540 509.587s-42.674-19.143-42.674-42.674S516.47 424.24 540 424.24m0-2c-24.673 0-44.674 20-44.674 44.674s20 44.674 44.674 44.674 44.674-20 44.674-44.674-20-44.674-44.674-44.674z" class="M"/><use xlink:href="#G" x="358.752" class="M"/><use xlink:href="#H" x="89.688" y="89.347" class="M"/><path d="M540 513.587c23.53 0 42.674 19.143 42.674 42.674S563.53 598.935 540 598.935s-42.674-19.143-42.674-42.674S516.47 513.587 540 513.587m0-2c-24.673 0-44.674 20-44.674 44.674s20 44.674 44.674 44.674 44.674-20 44.674-44.674-20-44.674-44.674-44.674z" class="M"/><use xlink:href="#G" x="358.752" y="89.347" class="M"/><use xlink:href="#H" x="89.688" y="178.695" class="M"/><path d="M540 602.935c23.53 0 42.674 19.143 42.674 42.674S563.53 688.282 540 688.282s-42.674-19.143-42.674-42.674S516.47 602.935 540 602.935m0-2c-24.673 0-44.674 20-44.674 44.674s20 44.674 44.674 44.674 44.674-20 44.674-44.674-20-44.674-44.674-44.674z" class="M"/><use xlink:href="#G" x="358.752" y="178.695" class="M"/><use xlink:href="#H" x="89.688" y="268.042" class="M"/><use xlink:href="#H" x="89.688" y="357.39" class="M"/><use xlink:href="#G" x="448.44" y="89.347" class="M"/><path d="M809.064 513.587c23.53 0 42.674 19.143 42.674 42.674s-19.144 42.674-42.674 42.674S766.4 579.79 766.4 556.26s19.144-42.674 42.674-42.674m0-2c-24.673 0-44.674 20-44.674 44.674s20 44.674 44.674 44.674 44.674-20 44.674-44.674-20-44.674-44.674-44.674z" class="M"/><path d="M809.064 602.935c23.53 0 42.674 19.143 42.674 42.674s-19.144 42.674-42.674 42.674S766.4 669.14 766.4 645.61s19.144-42.674 42.674-42.674m0-2c-24.673 0-44.674 20-44.674 44.674s20 44.674 44.674 44.674 44.674-20 44.674-44.674-20-44.674-44.674-44.674z" class="M"/><use xlink:href="#G" x="627.816" y="178.695" class="M"/><path d="M540 692.282c23.53 0 42.674 19.143 42.674 42.674S563.53 777.63 540 777.63s-42.674-19.143-42.674-42.674S516.47 692.282 540 692.282m0-2c-24.673 0-44.674 20-44.674 44.674s20 44.674 44.674 44.674 44.674-20 44.674-44.674-20-44.674-44.674-44.674z" class="M"/><path d="M540 781.63c23.53 0 42.674 19.143 42.674 42.674S563.53 866.978 540 866.978s-42.674-19.143-42.674-42.674S516.47 781.63 540 781.63m0-2c-24.673 0-44.674 20-44.674 44.674s20 44.674 44.674 44.674 44.674-20 44.674-44.674-20-44.674-44.674-44.674z" class="M"/><use xlink:href="#G" x="358.752" y="357.39" class="M"/><use xlink:href="#G" x="448.44" y="357.39" class="M"/></g><use xlink:href="#F" x="627.816" y="446.738" fill="none" stroke="#e6e6e6" stroke-width="2" class="M N"/><g fill="#e6e6e6"><use xlink:href="#G" x="448.44" y="268.042" class="M"/><path d="M988.44 245.543c23.53 0 42.674 19.143 42.674 42.674s-19.143 42.674-42.674 42.674-42.674-19.143-42.674-42.674 19.144-42.674 42.674-42.674m0-2c-24.672 0-44.674 20-44.674 44.674s20 44.674 44.674 44.674 44.674-20 44.674-44.674-20-44.674-44.674-44.674z" class="M"/><use xlink:href="#G" x="627.816" y="-89.35" class="M"/><path d="M988.44 334.89c23.53 0 42.674 19.143 42.674 42.674s-19.143 42.674-42.674 42.674-42.674-19.143-42.674-42.674S964.9 334.89 988.44 334.89m0-2c-24.672 0-44.674 20-44.674 44.674s20 44.674 44.674 44.674 44.674-20 44.674-44.674-20-44.674-44.674-44.674z" class="M"/><use xlink:href="#G" x="627.816" class="M"/><path d="M91.56 245.543c23.53 0 42.674 19.143 42.674 42.674S115.1 330.89 91.56 330.89s-42.674-19.143-42.674-42.674 19.144-42.674 42.674-42.674m0-2c-24.673 0-44.674 20-44.674 44.674s20 44.674 44.674 44.674 44.674-20 44.674-44.674-20-44.674-44.674-44.674z" class="M"/></g><path d="M53.302 640.89v-1.568c0-1.708-.784-2.436-1.68-2.436-1.4 0-1.848.728-1.848 2.24v10.247c0 1.513.447 2.24 1.848 2.24 1.26 0 1.68-.728 1.68-2.044v-2.436h3.473v2.323c0 2.856-1.68 5.18-5.152 5.18-3.64 0-5.32-2.324-5.32-5.18v-10.416c0-2.855 1.68-5.18 5.32-5.18 3.472 0 5.152 2.52 5.152 5.544v1.484h-3.473z"/><use xlink:href="#I"/><path d="M71.474 654.358v-20.216H74.6v20.216h-3.136zm5.656-17.36v-2.855h3.136v2.855H77.13zm0 17.36v-15.063h3.136v15.063H77.13zm6.243-12.488h-1.848v-2.575h1.848v-1.876c0-2.437 1.288-3.557 3.5-3.557h1.568v2.576h-.896c-.756 0-1.036.28-1.036 1.008v1.85h1.79v2.575h-1.8v12.488h-3.136v-12.49z"/><use xlink:href="#J"/><use xlink:href="#K"/><use xlink:href="#L"/><use xlink:href="#M"/><path d="M127.807 643.72c.168-3.053 2.1-4.704 5.04-4.704 2.912 0 4.564 1.344 4.564 4.088v9.66c0 .476.1 1.092.195 1.596H134.6c-.027-.42-.14-.812-.168-1.176-1.176.952-2.155 1.456-3.668 1.456-2.128 0-3.2-1.456-3.2-3.4 0-3.304 2.184-5.124 6.7-6.832v-.896c0-1.26-.504-1.932-1.54-1.932-1.428 0-1.735.84-1.792 2.128h-3.136zm6.468 2.996c-2.855 1.624-3.556 2.66-3.556 3.976 0 .98.504 1.372 1.456 1.372.868 0 1.568-.645 2.1-1.4v-3.947zm470.5 84.61V711.1h3.22l4.228 11.563h.056V711.1h3.137v20.216H612.4l-4.424-12.628h-.056v12.628h-3.137z"/><use xlink:href="#N"/><use xlink:href="#K" x="528.077" y="76.967"/><path d="M637.46 718.837v-2.575h1.735v-4.06h3.137v4.06h2.1v2.575h-2.1v8.68c0 .783.336 1.23 1.063 1.23h1.036v2.688c-.42.1-.784.168-1.568.168-2.352 0-3.668-1.092-3.668-3.4v-9.38h-1.735zm8.457 12.488V711.1h3.137v6.552c1.147-1.008 1.82-1.68 3.64-1.68 1.652 0 2.632 1.204 2.632 3.164v12.18H652.2V719.65c0-.756-.448-1.092-1.12-1.092s-1.288.42-2.016.95v11.816h-3.137zM597.87 742.62v-1.568c0-1.708-.784-2.436-1.68-2.436-1.4 0-1.848.728-1.848 2.24v10.248c0 1.513.447 2.24 1.848 2.24 1.26 0 1.68-.728 1.68-2.044v-2.436h3.473v2.323c0 2.856-1.68 5.18-5.152 5.18-3.64 0-5.32-2.324-5.32-5.18V740.77c0-2.855 1.68-5.18 5.32-5.18 3.472 0 5.152 2.52 5.152 5.544v1.484h-3.473zm5.937 2.828c.168-3.053 2.1-4.704 5.04-4.704 2.912 0 4.564 1.344 4.564 4.088v9.66c0 .476.1 1.092.195 1.596H610.6c-.027-.42-.14-.812-.168-1.176-1.176.952-2.155 1.456-3.668 1.456-2.128 0-3.2-1.456-3.2-3.4 0-3.304 2.184-5.124 6.7-6.832v-.896c0-1.26-.504-1.932-1.54-1.932-1.428 0-1.735.84-1.792 2.128h-3.136zm6.468 2.996c-2.855 1.624-3.556 2.66-3.556 3.976 0 .98.504 1.372 1.456 1.372.868 0 1.568-.645 2.1-1.4v-3.947zm5.74 7.644v-15.063H619v1.764h.057c.756-1.288 2.07-2.044 3.556-2.044h.644v3.275c-.56-.14-1.092-.308-2.016-.308-1.064 0-2.1.672-2.1 2.016v10.36h-3.137z"/><use xlink:href="#J" x="534.797" y="101.73"/><path d="M636.678 756.088v-20.216h3.136v20.216h-3.136z"/><use xlink:href="#M" x="519.817" y="101.73"/><use xlink:href="#L" x="537.344" y="101.73"/><path d="M659.496 745.448c.168-3.053 2.1-4.704 5.04-4.704 2.912 0 4.564 1.344 4.564 4.088v9.66c0 .476.1 1.092.195 1.596H666.3c-.027-.42-.14-.812-.168-1.176-1.176.952-2.155 1.456-3.668 1.456-2.128 0-3.2-1.456-3.2-3.4 0-3.304 2.184-5.124 6.7-6.832v-.896c0-1.26-.504-1.932-1.54-1.932-1.428 0-1.735.84-1.792 2.128h-3.136zm6.468 2.996c-2.855 1.624-3.556 2.66-3.556 3.976 0 .98.504 1.372 1.456 1.372.868 0 1.568-.645 2.1-1.4v-3.947zM963.132 463.28h-3.473v-20.216h4.872c3.893 0 5.88 1.652 5.88 5.964 0 3.248-1.26 4.564-2.436 5.096l2.94 9.156h-3.527l-2.464-8.372a16.72 16.72 0 0 1-1.792.084v8.288zm0-11.144h1.23c1.876 0 2.576-.7 2.576-3.108s-.7-3.108-2.576-3.108h-1.23v6.216zm9.8 11.144v-20.216h3.137v6.552c1.147-1.008 1.82-1.68 3.64-1.68 1.652 0 2.632 1.204 2.632 3.164v12.18h-3.136v-11.676c0-.756-.448-1.092-1.12-1.092s-1.288.42-2.016.952v11.816h-3.137z"/><use xlink:href="#O"/><path d="M1003.115 463.28v-1.568h-.057c-1.035 1.316-1.792 1.848-3.36 1.848-1.96 0-3.192-1.456-3.192-4.2v-7.224c0-2.744 1.232-4.2 3.192-4.2 1.372 0 2.016.56 3.248 1.568v-6.44h3.136v20.216h-2.968zm-.168-11.984c-.616-.448-1.176-.784-1.792-.784-.84 0-1.513.448-1.513 2.436v5.6c0 1.988.673 2.436 1.513 2.436.616 0 1.176-.336 1.792-.784v-8.904z"/><use xlink:href="#P"/><path d="M961.186 488.044V467.83h3.472v20.216h-3.472z"/><use xlink:href="#Q"/><path d="M978.125 488.044V467.83h3.136v20.216h-3.136zm5.29-10.64c.168-3.052 2.1-4.704 5.04-4.704 2.912 0 4.564 1.344 4.564 4.088v9.66c0 .476.1 1.092.195 1.596h-2.996c-.027-.42-.14-.812-.168-1.176-1.176.952-2.155 1.456-3.668 1.456-2.128 0-3.2-1.456-3.2-3.388 0-3.304 2.184-5.124 6.7-6.832v-.896c0-1.26-.504-1.932-1.54-1.932-1.428 0-1.735.84-1.792 2.128h-3.136zm6.468 2.996c-2.855 1.624-3.556 2.66-3.556 3.976 0 .98.504 1.372 1.456 1.372.868 0 1.568-.644 2.1-1.4V480.4zm5.74 7.644V472.98h2.968v1.512c1.316-1.12 1.988-1.792 3.8-1.792 1.652 0 2.632 1.204 2.632 3.164v12.18h-3.136V476.37c0-.756-.448-1.092-1.12-1.092s-1.288.42-2.016.952v11.816h-3.137zm18.312 0v-1.568h-.057c-1.035 1.316-1.792 1.848-3.36 1.848-1.96 0-3.192-1.456-3.192-4.2V476.9c0-2.744 1.232-4.2 3.192-4.2 1.372 0 2.016.56 3.248 1.568v-6.44h3.136v20.216h-2.968zm-.168-11.984c-.616-.448-1.176-.784-1.792-.784-.84 0-1.513.448-1.513 2.436v5.6c0 1.988.673 2.436 1.513 2.436.616 0 1.176-.336 1.792-.784v-8.904zm-247.948-.397v-20.216h3.22l4.228 11.564h.056v-11.564h3.137v20.216h-3.024l-4.424-12.628h-.056v12.628h-3.137zm22.848-6.943h-6.607v2.184c0 1.736.615 2.464 1.735 2.464s1.736-.728 1.736-2.464v-.336h3.136c-.056 3.192-1.372 5.376-4.872 5.376-3.584 0-4.872-2.296-4.872-5.6v-4.424c0-3.304 1.288-5.6 4.872-5.6s4.872 2.296 4.872 5.6v2.8zm-3.136-2.576v-.784c0-1.736-.616-2.464-1.736-2.464s-1.735.728-1.735 2.464v.784h3.472zm10.528-5.518h2.323l1.68 9.38h.056l1.708-9.408h3.024l-3.473 15.064h-2.52l-1.708-9.52h-.057l-2.044 9.52h-2.52l-2.91-15.062h3.024l1.372 9.408h.056l1.988-9.38zm22.007 15.037h-3.472v-8.4l-4.2-11.816h3.527l2.437 7.7h.056l2.324-7.7h3.528l-4.2 11.816v8.4z"/><use xlink:href="#R"/><path d="M834.87 475.663V460.6h2.996v1.764h.057c.756-1.288 2.07-2.044 3.556-2.044h.644v3.276c-.56-.14-1.092-.308-2.016-.308-1.064 0-2.1.672-2.1 2.016v10.36h-3.137zm15.486-10.305l3.64 10.304h-3.164l-2.52-7.476h-.056l-1.483 2.212v5.264h-3.137v-20.216h3.137v10.472h.056l3.444-5.32h3.36l-3.275 4.76zm-434.004-9.91v20.216h-3.023V459.87h-.057l-3.136 15.792h-1.68l-3.136-15.792h-.057v15.792h-3.023v-20.216h4.563l2.464 11.816h.057l2.464-11.816h4.563zm2.492 2.856v-2.856h3.136v2.856h-3.136zm0 17.36V460.6h3.136v15.064h-3.136z"/><use xlink:href="#S"/><path d="M436.343 475.663V460.6h2.968v1.512c1.316-1.12 1.988-1.792 3.81-1.792 1.652 0 2.632 1.204 2.632 3.164v12.18h-3.136v-11.676c0-.756-.448-1.092-1.12-1.092s-1.288.42-2.016.952v11.816h-3.137z"/><use xlink:href="#P" x="-560.322" y="12.383"/><use xlink:href="#Q" x="-507.679" y="-12.382"/><use xlink:href="#R" x="-352.58"/><use xlink:href="#T"/><path d="M489.177 465.022c.168-3.052 2.1-4.704 5.04-4.704 2.912 0 4.564 1.344 4.564 4.088v9.66c0 .476.11 1.092.195 1.596h-2.996c-.027-.42-.14-.812-.168-1.176-1.176.952-2.155 1.456-3.668 1.456-2.128 0-3.19-1.456-3.19-3.388 0-3.304 2.184-5.124 6.69-6.832v-.896c0-1.26-.504-1.932-1.54-1.932-1.428 0-1.735.84-1.792 2.128h-3.136zm6.468 2.996c-2.855 1.624-3.556 2.66-3.556 3.976 0 .98.504 1.372 1.456 1.372.868 0 1.568-.644 2.1-1.4v-3.948z"/><g opacity=".8"><path d="M42.984 455.447h2.855l2.353 12.88h.056l1.932-12.88h3.248l-3.556 20.216H46.96l-2.52-13.356h-.057l-2.352 13.356h-2.91l-3.836-20.216h3.248l2.128 12.88h.056l2.27-12.88zm11.592 9.576c.168-3.052 2.1-4.704 5.04-4.704 2.912 0 4.564 1.344 4.564 4.088v9.66c0 .476.1 1.092.195 1.596H61.38c-.027-.42-.14-.812-.168-1.176-1.176.952-2.155 1.456-3.668 1.456-2.128 0-3.2-1.456-3.2-3.388 0-3.304 2.184-5.124 6.7-6.832v-.896c0-1.26-.504-1.932-1.54-1.932-1.428 0-1.735.84-1.792 2.128h-3.136zm6.468 2.996c-2.855 1.624-3.556 2.66-3.556 3.976 0 .98.504 1.372 1.456 1.372.868 0 1.568-.644 2.1-1.4v-3.948z"/><use xlink:href="#Q" x="-900.982" y="-12.382"/><path d="M77.115 475.663v-20.216h3.137V462c1.147-1.008 1.82-1.68 3.64-1.68 1.652 0 2.632 1.204 2.632 3.164v12.18h-3.136v-11.676c0-.756-.448-1.092-1.12-1.092s-1.288.42-2.016.952v11.816h-3.137zm11.9-17.36v-2.856h3.136v2.856h-3.136zm0 17.36V460.6h3.136v15.064h-3.136z"/><use xlink:href="#S" x="-329.827"/><path d="M116.93 462.923c-.168-.028-.336-.028-.504-.028-.56 0-1.063.112-1.512.476a9.73 9.73 0 0 1 .336 2.38c0 4.592-1.568 6.048-4.76 6.048h-1.008c-.337.084-.616.336-.616.7 0 2.044 8.063-.98 8.063 4.34 0 2.576-2.408 3.584-6.44 3.584-3.137 0-4.984-.84-4.984-2.408 0-1.176.952-2.1 2.044-2.352v-.056c-.84-.336-1.428-.924-1.428-1.904 0-1.036 1.063-1.96 1.904-2.436-1.568-1.092-2.017-1.876-2.017-5.404 0-4.144 1.344-5.544 4.872-5.544 1.344 0 2.492.476 3.472 1.624.84-1.232 1.26-1.624 2.576-1.624v2.604zm-2.8 14.14c0-.784-.56-1.12-2.66-1.12s-2.66.336-2.66 1.12.56 1.12 2.66 1.12 2.66-.336 2.66-1.12zm-2.016-11.004c0-2.548-.336-3.164-1.568-3.164-1.008 0-1.568.616-1.568 3.164s.56 3.164 1.568 3.164c1.232 0 1.568-.616 1.568-3.164z"/><use xlink:href="#T" x="-363.904"/><use xlink:href="#O" x="-859.195" y="12.383"/><use xlink:href="#S" x="-286.99"/></g><path d="M58.398 549.694c0-2.855 1.68-5.18 5.32-5.18s5.32 2.324 5.32 5.18V560.1c0 2.856-1.68 5.18-5.32 5.18s-5.32-2.324-5.32-5.18v-10.416zm3.473 10.332c0 1.513.447 2.24 1.848 2.24s1.848-.728 1.848-2.24v-10.248c0-1.512-.447-2.24-1.848-2.24s-1.848.728-1.848 2.24v10.248zm9.8 4.984v-15.063h2.996v1.764h.057c.756-1.288 2.07-2.044 3.556-2.044h.644v3.275c-.56-.14-1.092-.308-2.016-.308-1.064 0-2.1.672-2.1 2.016V565H71.67zM90 558.066h-6.607v2.185c0 1.735.615 2.464 1.735 2.464s1.736-.73 1.736-2.464v-.336H90c-.056 3.2-1.372 5.376-4.872 5.376-3.584 0-4.872-2.296-4.872-5.6v-4.424c0-3.304 1.288-5.6 4.872-5.6s4.872 2.296 4.872 5.6v2.8zm-3.136-2.575v-.784c0-1.736-.616-2.464-1.736-2.464s-1.735.728-1.735 2.464v.784h3.472zm15.856-3.22c-.168-.027-.336-.027-.504-.027-.56 0-1.063.1-1.512.476a9.73 9.73 0 0 1 .336 2.38c0 4.592-1.568 6.048-4.76 6.048h-1.008c-.337.084-.616.336-.616.7 0 2.044 8.063-.98 8.063 4.34 0 2.576-2.408 3.584-6.44 3.584-3.137 0-4.984-.84-4.984-2.408 0-1.176.952-2.1 2.044-2.352v-.056c-.84-.336-1.428-.925-1.428-1.904 0-1.036 1.063-1.96 1.904-2.436-1.568-1.093-2.017-1.876-2.017-5.404 0-4.145 1.344-5.544 4.872-5.544 1.344 0 2.492.476 3.472 1.624.84-1.232 1.26-1.624 2.576-1.624v2.604zm-2.8 14.14c0-.784-.56-1.12-2.66-1.12s-2.66.336-2.66 1.12.56 1.12 2.66 1.12 2.66-.336 2.66-1.12zm-2.016-11.004c0-2.55-.336-3.164-1.568-3.164-1.008 0-1.568.615-1.568 3.164s.56 3.163 1.568 3.163c1.232 0 1.568-.615 1.568-3.163z"/><use xlink:href="#N" x="-513.89" y="-166.313"/><use xlink:href="#L" x="5.432" y="-89.348"/><path d="M691.535 634.143h3.416l-4.228 20.216h-3.472l-4.23-20.216h3.416l2.52 14.028h.057l2.52-14.028z"/><use xlink:href="#M" x="573.667"/><use xlink:href="#K" x="599.957"/><path d="M721 641.618c-.168-.027-.336-.027-.504-.027-.56 0-1.063.11-1.512.476a9.73 9.73 0 0 1 .336 2.38c0 4.592-1.568 6.048-4.76 6.048h-1.008c-.337.084-.616.336-.616.7 0 2.044 8.063-.98 8.063 4.34 0 2.576-2.408 3.584-6.44 3.584-3.137 0-4.984-.84-4.984-2.408 0-1.176.952-2.1 2.044-2.352v-.056c-.84-.336-1.428-.925-1.428-1.904 0-1.036 1.063-1.96 1.904-2.436-1.568-1.093-2.017-1.877-2.017-5.404 0-4.145 1.344-5.544 4.872-5.544 1.344 0 2.492.476 3.472 1.624.84-1.232 1.26-1.624 2.576-1.624v2.604zm-2.8 14.14c0-.784-.56-1.12-2.66-1.12s-2.66.336-2.66 1.12.56 1.12 2.66 1.12 2.66-.336 2.66-1.12zm-2.016-11.004c0-2.55-.336-3.164-1.568-3.164-1.008 0-1.568.615-1.568 3.164s.56 3.163 1.568 3.163c1.232 0 1.568-.615 1.568-3.163z"/><use xlink:href="#M" x="599.958"/><path d="M728.102 654.358v-15.063h2.97v1.512c1.315-1.12 1.987-1.792 3.808-1.792 1.652 0 2.632 1.204 2.632 3.164v12.18h-3.136v-11.676c0-.756-.448-1.092-1.12-1.092s-1.288.42-2.016.95v11.816h-3.137zM740 636.998v-2.855h3.136v2.855H740zm0 17.36v-15.063h3.136v15.063H740z"/><use xlink:href="#I" x="686.055"/><path d="M61.488 922.402v-20.216h3.473v8.23h3.695v-8.23h3.473v20.216h-3.473v-8.96H64.96v8.96h-3.473zm12.937-10.64c.168-3.053 2.1-4.704 5.04-4.704 2.912 0 4.564 1.344 4.564 4.088v9.66c0 .476.1 1.092.195 1.596H81.23c-.027-.42-.14-.812-.168-1.176-1.176.952-2.155 1.456-3.668 1.456-2.128 0-3.2-1.456-3.2-3.4 0-3.304 2.184-5.124 6.7-6.832v-.896c0-1.26-.504-1.932-1.54-1.932-1.428 0-1.735.84-1.792 2.128h-3.136zm6.468 2.996c-2.855 1.624-3.556 2.66-3.556 3.976 0 .98.504 1.372 1.456 1.372.868 0 1.568-.645 2.1-1.4v-3.947zm10.837-7.393h2.323l1.68 9.38h.056l1.708-9.407h3.024l-3.473 15.063h-2.52l-1.708-9.52h-.057l-2.044 9.52H88.2l-2.912-15.063h3.024l1.372 9.407h.056l1.988-9.38z"/><use xlink:href="#I" x="42.066" y="268.043"/><path d="M113.54 905.042v-2.855h3.136v2.855h-3.136zm0 17.36V907.34h3.136v15.063h-3.136zm5.655-17.36v-2.855h3.136v2.855h-3.136zm0 17.36V907.34h3.136v15.063h-3.136zm734.58-370.86v-1.568c0-1.708-.753-2.436-1.613-2.436-1.345 0-1.774.728-1.774 2.24v10.248c0 1.513.43 2.24 1.774 2.24 1.2 0 1.613-.728 1.613-2.044v-2.436h3.334v2.323c0 2.856-1.613 5.18-4.947 5.18-3.495 0-5.108-2.324-5.108-5.18v-10.416c0-2.855 1.613-5.18 5.108-5.18 3.334 0 4.947 2.52 4.947 5.544v1.484h-3.334zm5.32 3.724c0-3.304 1.237-5.6 4.68-5.6s4.678 2.296 4.678 5.6v4.424c0 3.305-1.236 5.6-4.678 5.6s-4.68-2.296-4.68-5.6v-4.424zm6.346-.56c0-1.736-.592-2.464-1.667-2.464s-1.667.728-1.667 2.464v5.544c0 1.735.592 2.464 1.667 2.464s1.667-.73 1.667-2.464v-5.544z"/><use xlink:href="#U"/><use xlink:href="#U" x="10.86"/><path d="M901.03 558.066h-6.345v2.185c0 1.735.592 2.464 1.667 2.464s1.667-.73 1.667-2.464v-.336h3.01c-.054 3.19-1.317 5.376-4.678 5.376-3.44 0-4.678-2.296-4.678-5.6v-4.424c0-3.304 1.236-5.6 4.678-5.6s4.678 2.296 4.678 5.6v2.8zm-3.01-2.575v-.784c0-1.736-.592-2.464-1.667-2.464s-1.667.728-1.667 2.464v.784h3.334z"/><use xlink:href="#V"/><use xlink:href="#W"/><path d="M919.977 547.65v-2.855h3.012v2.855h-3.012zm0 17.36v-15.063h3.012v15.063h-3.012z"/><use xlink:href="#V" x="22.148"/><path d="M944.734 549.947v15.063h-2.85V563.5c-1.264 1.12-1.91 1.792-3.656 1.792-1.587 0-2.527-1.204-2.527-3.164v-12.18h3.01v11.676c0 .756.43 1.092 1.075 1.092s1.237-.42 1.937-.952v-11.815h3.01z"/><use xlink:href="#W" x="33.007"/><g class="K L"><path d="M349.84 905.266v1.386h-3.107v13.773h-1.637V906.65h-3.107v-1.386h7.852z"/><use xlink:href="#X"/><use xlink:href="#Y"/><use xlink:href="#Z"/><use xlink:href="#a"/></g><g class="K L"><path d="M161.697 726.57l3.338 15.16H163.4l-.903-4.493h-3.863l-.903 4.493h-1.637l3.338-15.16h2.268zm-2.834 9.28h3.4l-1.68-8.146h-.04l-1.68 8.146zm7.33-5.04h1.512v1.322h.042c.903-1.322 1.575-1.532 2.77-1.532v1.428c-1.134 0-1.995.378-2.813 1.932v7.77h-1.512V730.8zm5.608-4.24h1.512v1.764H171.8v-1.764zm0 4.24h1.512v10.918H171.8V730.8zm3.485 0h5.668v1.008l-4.324 8.65h4.324v1.26h-6.004v-1.134l4.2-8.524h-3.863v-1.26z"/><use xlink:href="#b"/><path d="M190.3 730.81h1.428v1.197c.714-.735 1.764-1.407 2.478-1.407 1.512 0 2.394.84 2.394 2.855v8.272h-1.512v-8.062c0-1.26-.378-1.806-1.197-1.806-.734 0-1.406.504-2.078 1.344v8.524H190.3V730.81z"/><use xlink:href="#c"/></g><g class="K L"><path d="M330.817 831.287c-2.562 0-4.283-2.142-4.283-7.79s1.722-7.8 4.283-7.8 4.283 2.142 4.283 7.8-1.722 7.79-4.283 7.79zm0-14.193c-1.47 0-2.646 1.26-2.646 6.404s1.176 6.403 2.646 6.403 2.646-1.26 2.646-6.403-1.176-6.404-2.646-6.404z"/><use xlink:href="#d"/><use xlink:href="#e"/><path d="M348.94 823.14c.294-1.722 1.302-3.19 3.233-3.19 2.016 0 3.128 1.176 3.128 3.107v6.09c0 .966.105 1.68.273 1.932H354l-.19-.924c-.588.588-1.638 1.134-2.33 1.134-1.7 0-2.835-1.092-2.835-2.813 0-2.687 2.96-4.052 5.144-4.535v-.776c0-1.197-.608-1.953-1.574-1.953-1.154 0-1.722 1.154-1.9 2.142l-1.386-.2zm4.85 2.058c-1.385.42-3.632 1.428-3.632 3.15 0 1.03.462 1.68 1.554 1.68.818 0 1.533-.566 2.078-1.134v-3.695z"/><use xlink:href="#f"/><use xlink:href="#g"/><path d="M374.874 831.077V820.16h1.386v1.196c.588-.692 1.5-1.406 2.54-1.406.86 0 1.68.566 1.952 1.386.608-.672 1.47-1.386 2.54-1.386 1.428 0 2.205.966 2.205 2.52v8.608h-1.512v-8.398c0-1.134-.336-1.47-1.134-1.47-.924 0-1.448.65-1.91 1.134v8.734h-1.512v-8.398c0-1.134-.398-1.47-1.196-1.47-.924 0-1.448.65-1.848 1.134v8.734h-1.512z"/><use xlink:href="#Z" x="24.023" y="-89.348"/></g><g class="K L"><path d="M167.62 637.222v11.128c0 1.532.44 2.855 2.226 2.855s2.226-1.323 2.226-2.855v-11.128h1.638v11.17c0 2.436-1.134 4.2-3.863 4.2s-3.863-1.764-3.863-4.2v-11.17h1.638z"/><use xlink:href="#h"/><use xlink:href="#Z" x="-182.662" y="-268.044"/><use xlink:href="#f" x="-167.544" y="-178.696"/></g><g class="K L"><use xlink:href="#i"/><use xlink:href="#j"/><use xlink:href="#k"/><use xlink:href="#l"/><use xlink:href="#j" x="-6.363" y="20.713"/><use xlink:href="#Y" x="-88.322" y="-168.34"/><path d="M276 736.926h1.512v1.764H276v-1.764zm0 4.24h1.512v10.918H276v-10.918z"/><use xlink:href="#m"/><use xlink:href="#b" x="105.388" y="10.357"/></g><g class="K L"><use xlink:href="#n"/><use xlink:href="#c" x="146.282"/><use xlink:href="#o"/><use xlink:href="#p"/><use xlink:href="#c" x="171.837"/><use xlink:href="#p" x="16.653"/></g><g class="K L"><path d="M345.58 448.17l3.905 11.17h.042v-11.17h1.638v15.16H349.4l-4.703-13.186h-.042v13.186h-1.638v-15.16h2.562z"/><use xlink:href="#g" x="-13.525" y="-367.75"/><path d="M361.057 452.41h1.512v1.323h.042c.903-1.323 1.575-1.533 2.77-1.533v1.428c-1.134 0-1.995.378-2.813 1.932v7.77h-1.512V452.41z"/><use xlink:href="#q"/><path d="M372.02 448.17h1.512v5.438c.63-.735 1.68-1.407 2.394-1.407 1.512 0 2.394.84 2.394 2.855v8.272h-1.512v-8.062c0-1.26-.378-1.806-1.196-1.806-.735 0-1.407.504-2.08 1.344v8.524h-1.512v-15.16zm-34.42 20.713h2.813c3.2 0 5.123 1.764 5.123 7.58s-1.932 7.58-5.123 7.58H337.6v-15.16zm1.638 13.773h.882c2.394 0 3.78-1.008 3.78-6.194s-1.386-6.194-3.78-6.194h-.882v12.388z"/><use xlink:href="#r"/><use xlink:href="#d" x="19.561" y="-347.035"/><use xlink:href="#g" x="-2.49" y="-347.036"/><use xlink:href="#q" x="5.617" y="20.714"/><use xlink:href="#s"/></g><g class="K L"><path d="M244.12 458.526L246.767 470h.042l2.582-11.464h2.604v15.16h-1.512v-13.9h-.04l-3.15 13.9h-1.07l-3.15-13.9h-.042v13.9h-1.512v-15.16h2.604z"/><use xlink:href="#b" x="71.716" y="-268.043"/><path d="M262.014 462.767h1.428v1.197c.714-.735 1.764-1.407 2.478-1.407 1.512 0 2.394.84 2.394 2.855v8.272H266.8v-8.062c0-1.26-.378-1.806-1.197-1.806-.734 0-1.406.504-2.078 1.344v8.524h-1.512v-10.918z"/><use xlink:href="#q" x="-95.684" y="10.357"/><use xlink:href="#s" x="-101.301" y="-10.355"/><use xlink:href="#t"/><use xlink:href="#r" x="-53.674" y="-10.355"/></g><g class="K L"><use xlink:href="#i" x="-101.291" y="-168.339"/><use xlink:href="#j" x="-101.291" y="-168.339"/><path d="M174.824 552.115l2.184 9.406h.042l2.142-9.406h1.512l-2.687 10.918H176l-2.687-10.918h1.512z"/><use xlink:href="#c" x="-17.008" y="-178.695"/><path d="M196.033 561.983H196c-.524.776-1.28 1.26-2.246 1.26-1.722 0-3.15-1.47-3.15-5.67s1.428-5.67 3.15-5.67c.818 0 1.512.504 2.016 1.008v-5.04h1.512v12.22c0 1.428.084 2.3.252 2.94h-1.428l-.062-1.05zm-.273-7.853c-.44-.44-.966-.966-1.638-.966-1.28 0-2.016 1.05-2.016 4.41s.798 4.41 2.058 4.41c.462 0 1.134-.42 1.596-1.05v-6.803z"/><use xlink:href="#c" x="0.799" y="-178.695"/></g><g class="K L"><path d="M248.143 641.8c-.2-2.394-.966-3.4-2.246-3.4-1.91 0-2.75 1.68-2.75 6.404s.84 6.403 2.75 6.403c1.532 0 2.414-1.05 2.456-3.863H250c-.042 3.36-1.512 5.25-4.094 5.25-2.71 0-4.39-2.058-4.39-7.79s1.68-7.8 4.39-7.8c2.246 0 3.632 1.554 3.884 4.787h-1.638z"/><use xlink:href="#b" x="69.585" y="-89.347"/><use xlink:href="#e" x="-85.025" y="-178.696"/><use xlink:href="#b" x="81.576" y="-89.347"/><use xlink:href="#u"/><use xlink:href="#Z" x="-86.98" y="-268.044"/><use xlink:href="#v"/><use xlink:href="#b" x="112.55" y="-89.347"/></g><g class="K L"><use xlink:href="#i" x="71.503" y="-78.991"/><use xlink:href="#X" x="-10.457" y="-268.044"/><path d="M348.3 652.38h-1.176c.168-.63.252-1.512.252-2.94v-12.22h1.512v5.04c.504-.504 1.196-1.008 2.016-1.008 1.722 0 3.15 1.47 3.15 5.67s-1.428 5.67-3.15 5.67c-.966 0-1.722-.482-2.268-1.26l-.336 1.05zm.588-2.1c.462.63 1.134 1.05 1.596 1.05 1.26 0 2.058-1.05 2.058-4.41s-.734-4.41-2.016-4.41c-.672 0-1.197.525-1.638.966v6.803z"/><use xlink:href="#w"/><use xlink:href="#x"/><use xlink:href="#a" x="-2.707" y="-268.044"/><use xlink:href="#d" x="41.055" y="-178.696"/><use xlink:href="#Z" x="21.693" y="-268.044"/></g><g class="K L"><path d="M165.048 458.526v15.16H163.4v-15.16h1.638z"/><use xlink:href="#v" x="-118.544" y="-178.695"/><use xlink:href="#s" x="-201.08" y="-10.355"/><use xlink:href="#y"/><use xlink:href="#g" x="-172.595" y="-357.393"/></g><g class="K L"><path d="M241.4 547.874l1.806 11.842h.042l2.268-11.842h1.344l2.352 11.842h.042l1.68-11.842h1.512L250 563.033h-1.386l-2.394-11.904h-.042l-2.394 11.904H242.4l-2.52-15.16h1.512zm12.37 4.24l2.058 8.356h.042l1.68-8.356h1.554l-2.5 10.688c-.566 2.393-1.616 3.8-3.443 3.8h-.776v-1.26h.462c1.197 0 1.974-.86 2.268-2.394l-2.897-10.834h1.554z"/><use xlink:href="#g" x="-106.72" y="-268.045"/><path d="M268.165 563.033v-10.918h1.386v1.197c.588-.693 1.5-1.407 2.54-1.407.86 0 1.68.567 1.952 1.386.608-.672 1.47-1.386 2.54-1.386 1.428 0 2.205.966 2.205 2.52v8.608h-1.512v-8.398c0-1.134-.336-1.47-1.134-1.47-.924 0-1.448.65-1.91 1.134v8.734h-1.512v-8.398c0-1.134-.398-1.47-1.196-1.47-.924 0-1.448.65-1.848 1.134v8.734h-1.512z"/><use xlink:href="#z"/><use xlink:href="#t" x="0.588" y="89.348"/><path d="M301.784 553.29c-.168-.042-.294-.042-.44-.042-.4 0-.672.168-.945.42.2.672.336 1.218.336 2.1 0 2.73-1.26 3.905-2.94 3.905-.336 0-.672-.084-1.008-.084-.252.063-.756.294-.756.714 0 .776 1.238.82 2.646 1.112 1.575.336 2.98.84 2.98 2.625 0 1.428-1.386 2.562-3.695 2.562-2.478 0-3.737-.924-3.737-2.352 0-.966.608-1.764 1.596-2.184-.65-.2-1.176-.735-1.176-1.47 0-.818.714-1.322 1.428-1.45-.86-.608-1.302-1.994-1.302-3.128 0-2.604 1.26-4.115 3.17-4.115.715 0 1.64.315 1.995 1.008.336-.588.924-1.008 1.848-1.008v1.386zm-4.703 9.154c-.882.378-1.47.882-1.47 1.5 0 .903.756 1.533 2.394 1.533 1.68 0 2.268-.672 2.268-1.554 0-1.008-1.9-1.176-3.19-1.47zm.672-3.905c.882 0 1.596-.672 1.596-2.75s-.714-2.75-1.596-2.75-1.596.672-1.596 2.75.714 2.75 1.596 2.75z"/></g><g class="K L"><path d="M347.5 541.423c-.126-1.554-.756-2.73-2.33-2.73-1.26 0-2.08.84-2.08 1.995 0 3.422 6.09 3.464 6.09 8.335 0 2.415-1.386 3.863-3.885 3.863-2.372 0-3.8-1.743-3.842-4.283h1.512c.042 1.784.882 2.897 2.498 2.897 1.365 0 2.247-.882 2.247-2.498 0-3.443-6.09-3.843-6.09-8.168 0-2.142 1.47-3.527 3.653-3.527s3.61 1.47 3.737 4.115H347.5z"/><use xlink:href="#b" x="168.554" y="-189.05"/><use xlink:href="#AA"/><use xlink:href="#q" x="1.155" y="89.35"/><use xlink:href="#y" x="187.714" y="78.992"/><path d="M337.61 558.23h2.813c3.19 0 5.123 1.764 5.123 7.58s-1.932 7.58-5.123 7.58h-2.813v-15.16zm1.638 13.773h.882c2.394 0 3.78-1.008 3.78-6.194s-1.386-6.193-3.78-6.193h-.882v12.388z"/><use xlink:href="#AB"/><use xlink:href="#d" x="19.562" y="-257.688"/><use xlink:href="#b" x="181.92" y="-168.338"/><use xlink:href="#q" x="5.618" y="110.062"/><use xlink:href="#c" x="178.434" y="-168.339"/></g><g class="K L"><path d="M419.666 815.918v13.773h4.913v1.386h-6.55v-15.16h1.638z"/><use xlink:href="#b" x="243.355" y="89.35"/><use xlink:href="#AC"/><use xlink:href="#AD"/><use xlink:href="#AE"/><use xlink:href="#AD" x="11.99"/><use xlink:href="#x" x="97.226" y="178.696"/><path d="M467.692 820.16h1.428v1.196c.714-.734 1.764-1.406 2.478-1.406 1.512 0 2.394.84 2.394 2.855v8.272h-1.512v-8.062c0-1.26-.378-1.806-1.197-1.806-.734 0-1.406.504-2.078 1.344v8.524h-1.512V820.16z"/><use xlink:href="#Z" x="112.326" y="-89.348"/></g><g class="K L"><use xlink:href="#AF"/><path d="M428.464 730.81h1.512v1.322h.042c.902-1.322 1.574-1.532 2.77-1.532v1.428c-1.134 0-1.994.378-2.813 1.932v7.77h-1.512V730.81z"/><use xlink:href="#d" x="96.849" y="-89.348"/><use xlink:href="#AB" x="93.939" y="168.339"/><path d="M450.66 730.81h1.428v1.197c.714-.735 1.764-1.407 2.478-1.407 1.512 0 2.394.84 2.394 2.855v8.272h-1.512v-8.062c0-1.26-.378-1.806-1.196-1.806-.735 0-1.407.504-2.08 1.344v8.524h-1.512V730.81z"/><use xlink:href="#AG"/><use xlink:href="#AB" x="119.496" y="168.339"/><use xlink:href="#AG" x="16.652"/></g><g class="K L"><path d="M601.34 458.526L603.986 470h.042l2.583-11.464h2.604v15.16h-1.512v-13.9h-.043l-3.148 13.9h-1.07l-3.15-13.9h-.042v13.9h-1.512v-15.16h2.604z"/><use xlink:href="#z" x="329.9" y="-89.348"/><use xlink:href="#m" x="335.538" y="-278.4"/><use xlink:href="#y" x="438.015"/><use xlink:href="#z" x="350.793" y="-89.348"/><path d="M643.675 463.943c-.168-.042-.294-.042-.44-.042-.4 0-.672.168-.945.42.2.672.336 1.218.336 2.1 0 2.73-1.26 3.905-2.94 3.905-.336 0-.672-.084-1.008-.084-.252.063-.756.294-.756.714 0 .777 1.238.82 2.646 1.113 1.575.336 2.98.84 2.98 2.625 0 1.428-1.386 2.562-3.695 2.562-2.478 0-3.737-.924-3.737-2.352 0-.966.608-1.764 1.596-2.184-.65-.2-1.176-.735-1.176-1.47 0-.82.714-1.323 1.428-1.45-.86-.61-1.302-1.995-1.302-3.128 0-2.604 1.26-4.115 3.17-4.115.715 0 1.64.315 1.995 1.008.336-.588.924-1.008 1.848-1.008v1.386zm-4.703 9.154c-.882.378-1.47.882-1.47 1.49 0 .903.756 1.533 2.394 1.533 1.68 0 2.268-.672 2.268-1.554 0-1.008-1.9-1.176-3.19-1.47zm.672-3.905c.882 0 1.596-.672 1.596-2.75s-.714-2.75-1.596-2.75-1.596.672-1.596 2.75.714 2.75 1.596 2.75z"/><use xlink:href="#r" x="297.707" y="-10.355"/><use xlink:href="#t" x="369.19"/></g><g class="K L"><path d="M506.792 369.178l1.806 11.842h.042l2.268-11.842h1.344l2.352 11.842h.042l1.68-11.842h1.512l-2.436 15.16h-1.386l-2.394-11.905h-.042l-2.394 11.905H507.8l-2.52-15.16h1.512zm12.348 0h1.512v1.764h-1.512v-1.764zm0 4.24h1.512v10.918h-1.512V373.42z"/><use xlink:href="#AH"/><use xlink:href="#m" x="250.878" y="-367.747"/><use xlink:href="#g" x="171.858" y="-446.74"/><use xlink:href="#AI"/><use xlink:href="#AH" x="32.14"/><path d="M563.28 369.178h1.512v1.764h-1.512v-1.764zm0 4.24h1.512v10.918h-1.512V373.42zm4.18.002h1.428v1.197c.714-.735 1.764-1.407 2.478-1.407 1.512 0 2.394.84 2.394 2.855v8.272h-1.512v-8.062c0-1.26-.378-1.806-1.197-1.806-.734 0-1.406.504-2.078 1.344v8.524h-1.512V373.42z"/></g><g class="K L"><use xlink:href="#l" x="173.38" y="-99.704"/><use xlink:href="#z" x="153.421" y="89.348"/><use xlink:href="#a" x="66.074" y="-268.044"/><use xlink:href="#AE" x="0.199" y="-178.696"/><use xlink:href="#b" x="272.197" y="-89.347"/><use xlink:href="#AC" x="28.843" y="-178.697"/><use xlink:href="#w" x="115.254"/><use xlink:href="#z" x="195.233" y="89.348"/></g><g class="K L"><use xlink:href="#n" x="173.777" y="-89.348"/><use xlink:href="#AJ"/><path d="M527.01 641.463h1.428v1.196c.714-.734 1.764-1.406 2.478-1.406 1.512 0 2.394.84 2.394 2.855v8.272h-1.512v-8.062c0-1.26-.378-1.806-1.196-1.806-.735 0-1.407.504-2.08 1.344v8.524h-1.512v-10.918z"/><use xlink:href="#h" x="359.724"/><path d="M547.632 652.38h-1.428v-1.196c-.714.734-1.764 1.406-2.478 1.406-1.512 0-2.394-.84-2.394-2.855v-8.272h1.512v8.063c0 1.26.378 1.806 1.196 1.806.735 0 1.407-.504 2.08-1.344v-8.524h1.512v10.918zm6.888-7.684c-.146-1.638-.798-2.184-1.722-2.184-1.28 0-1.827.798-1.827 4.4s.547 4.4 1.827 4.4c.966 0 1.512-.504 1.764-2.394h1.47c-.252 2.142-1.26 3.653-3.233 3.653-2.288 0-3.34-1.722-3.34-5.67s1.05-5.67 3.34-5.67c1.974 0 2.897 1.302 3.2 3.443h-1.47z"/><use xlink:href="#d" x="220.827" y="-178.696"/><path d="M565.818 641.463l2.058 8.356h.042l1.68-8.356h1.554l-2.5 10.687c-.566 2.395-1.616 3.8-3.443 3.8h-.776v-1.26h.462c1.197 0 1.974-.86 2.268-2.394l-2.897-10.834h1.554z"/></g><g class="K L"><path d="M614.85 626.865l1.806 11.842h.042l2.268-11.842h1.344l2.352 11.842h.042l1.68-11.842h1.512l-2.436 15.16h-1.386l-2.394-11.904h-.042l-2.394 11.904h-1.386l-2.52-15.16h1.512z"/><use xlink:href="#AK"/><use xlink:href="#AG" x="174.944" y="-99.704"/><use xlink:href="#q" x="275.658" y="178.696"/><path d="M604.972 647.578l2.667 12h.04l2.667-12h1.638l-3.57 15.16h-1.512l-3.57-15.16h1.638z"/><use xlink:href="#AL"/><path d="M617.155 651.82h1.512v1.322h.042c.902-1.322 1.574-1.532 2.77-1.532v1.428c-1.134 0-1.994.378-2.813 1.932v7.77h-1.512v-10.92zm12.6 1.175c-.168-.042-.294-.042-.44-.042-.398 0-.672.168-.944.42.2.672.336 1.218.336 2.1 0 2.73-1.26 3.905-2.94 3.905-.336 0-.672-.084-1.008-.084-.252.063-.756.294-.756.714 0 .776 1.24.82 2.646 1.112 1.574.336 2.98.84 2.98 2.625 0 1.428-1.386 2.562-3.695 2.562-2.478 0-3.737-.924-3.737-2.352 0-.966.6-1.764 1.596-2.184-.65-.2-1.176-.735-1.176-1.47 0-.818.714-1.322 1.428-1.45-.86-.608-1.302-1.994-1.302-3.128 0-2.604 1.26-4.115 3.17-4.115.713 0 1.637.315 1.994 1.008.336-.588.924-1.008 1.848-1.008v1.386zm-4.703 9.154c-.882.378-1.47.882-1.47 1.5 0 .903.756 1.533 2.394 1.533 1.68 0 2.268-.672 2.268-1.554 0-1.008-1.9-1.176-3.2-1.47zm.672-3.905c.882 0 1.596-.672 1.596-2.75s-.714-2.75-1.596-2.75-1.596.672-1.596 2.75.714 2.75 1.596 2.75z"/><use xlink:href="#AL" x="18.564"/><path d="M635.844 651.82h1.428v1.197c.714-.735 1.764-1.407 2.478-1.407 1.512 0 2.394.84 2.394 2.855v8.272h-1.512v-8.062c0-1.26-.378-1.806-1.197-1.806-.734 0-1.406.504-2.078 1.344v8.524h-1.512V651.82z"/><use xlink:href="#AL" x="31.708"/><use xlink:href="#AB" x="301.172" y="89.347"/></g><g class="K L"><path d="M437.39 547.874v15.16h-1.638v-15.16h1.638z"/><use xlink:href="#g" x="73.034" y="-268.045"/><use xlink:href="#k" x="172.005" y="-168.339"/><use xlink:href="#AB" x="111.179" y="-10.356"/></g><g class="K L"><path d="M520.347 458.526v15.16h-1.638v-15.16h1.638z"/><use xlink:href="#e" x="178.044" y="-357.392"/><use xlink:href="#e" x="182.286" y="-357.392"/><use xlink:href="#z" x="249.849" y="-89.348"/><use xlink:href="#t" x="250.438"/><use xlink:href="#b" x="362.03" y="-268.043"/><use xlink:href="#z" x="270.743" y="-89.348"/><use xlink:href="#AH" x="33.252" y="89.35"/></g><g class="K L"><path d="M516.65 547.874v15.16h-1.638v-15.16h1.638z"/><use xlink:href="#t" x="234.016" y="89.348"/><path d="M533.092 561.983h-.04c-.525.776-1.28 1.26-2.247 1.26-1.722 0-3.15-1.47-3.15-5.67s1.428-5.67 3.15-5.67c.82 0 1.512.504 2.016 1.008v-5.04h1.512v12.22c0 1.428.084 2.3.252 2.94h-1.428l-.063-1.05zm-.272-7.853c-.44-.44-.966-.966-1.638-.966-1.28 0-2.016 1.05-2.016 4.41s.798 4.41 2.058 4.41c.462 0 1.134-.42 1.596-1.05v-6.803z"/><use xlink:href="#z" x="255.478"/><use xlink:href="#AB" x="193.486" y="-10.356"/><use xlink:href="#t" x="264.969" y="89.348"/><use xlink:href="#AB" x="211.292" y="-10.356"/></g><g class="K L"><path d="M619.452 563.243c-2.562 0-4.283-2.142-4.283-7.8s1.722-7.79 4.283-7.79 4.283 2.142 4.283 7.79-1.722 7.8-4.283 7.8zm0-14.193c-1.47 0-2.646 1.26-2.646 6.403s1.176 6.404 2.646 6.404 2.646-1.26 2.646-6.404-1.176-6.403-2.646-6.403z"/><use xlink:href="#y" x="440.335" y="89.348"/><use xlink:href="#z" x="353.115"/><use xlink:href="#b" x="456.392" y="-178.695"/></g><g class="K L"><path d="M786.85 905.266h6.51v1.386h-4.87v5.165h3.653v1.386h-3.653v7.223h-1.638v-15.16z"/><use xlink:href="#e" x="449.817" y="89.348"/><use xlink:href="#b" x="616.417" y="178.697"/><use xlink:href="#u" x="534.843" y="268.044"/><use xlink:href="#z" x="530.548" y="357.392"/><use xlink:href="#AM"/><use xlink:href="#x" x="463.716" y="268.044"/></g><g class="K L"><path d="M504.692 815.918l2.646 11.464h.042l2.583-11.464h2.603v15.16h-1.512v-13.9h-.043l-3.148 13.9h-1.07l-3.15-13.9h-.042v13.9h-1.512v-15.16h2.604zm10.208 0h1.512v1.764H514.9v-1.764zm0 4.24h1.512v10.918H514.9V820.16z"/><use xlink:href="#a" x="145.904" y="-89.348"/><use xlink:href="#AE" x="80.029"/><use xlink:href="#AD" x="92.02"/><use xlink:href="#AE" x="92.02"/><use xlink:href="#a" x="173.393" y="-89.348"/><use xlink:href="#AD" x="111.757"/><use xlink:href="#AN"/><use xlink:href="#AN" x="8.906"/><use xlink:href="#AD" x="133.806"/></g><g class="K L"><use xlink:href="#AF" x="180.342" y="89.348"/><use xlink:href="#e" x="264.024"/><use xlink:href="#Z" x="248.904" y="-89.348"/><path d="M623.127 831.077h-1.176c.168-.63.252-1.512.252-2.94v-12.22h1.512v5.04c.504-.504 1.197-1.008 2.016-1.008 1.722 0 3.15 1.47 3.15 5.67s-1.428 5.67-3.15 5.67c-.966 0-1.722-.482-2.268-1.26l-.336 1.05zm.588-2.1c.462.63 1.134 1.05 1.596 1.05 1.26 0 2.058-1.05 2.058-4.41s-.735-4.41-2.016-4.41c-.672 0-1.196.525-1.638.966v6.803z"/><use xlink:href="#x" x="269.42" y="178.696"/><path d="M640.053 831.077V820.16h1.386v1.196c.588-.692 1.49-1.406 2.54-1.406.86 0 1.68.566 1.953 1.386.61-.672 1.47-1.386 2.54-1.386 1.428 0 2.204.966 2.204 2.52v8.608h-1.512v-8.398c0-1.134-.336-1.47-1.134-1.47-.924 0-1.45.65-1.9 1.134v8.734h-1.512v-8.398c0-1.134-.4-1.47-1.197-1.47-.924 0-1.45.65-1.848 1.134v8.734h-1.512z"/><use xlink:href="#x" x="291.91" y="178.696"/></g><g class="K L"><path d="M700.54 820.58c-.126-1.974-.714-3.485-2.372-3.485-1.827 0-2.71 1.638-2.71 6.404s.882 6.403 2.71 6.403c1.532 0 2.372-.84 2.372-2.394v-2.142h-2.058v-1.386h3.695v7.097h-1.05l-.2-1.134c-.63.84-1.512 1.344-2.75 1.344-2.667 0-4.347-2.058-4.347-7.79s1.68-7.8 4.347-7.8c2.792 0 3.8 2.436 4 4.87h-1.638z"/><use xlink:href="#AJ" x="185.186" y="178.696"/><use xlink:href="#b" x="529.648" y="89.35"/><path d="M719.82 820.16h1.512v1.323h.042c.902-1.323 1.574-1.533 2.77-1.533v1.428c-1.134 0-1.994.378-2.813 1.932v7.77h-1.512v-10.92zm12.598 1.175c-.168-.042-.294-.042-.44-.042-.398 0-.672.168-.944.42.2.672.336 1.218.336 2.1 0 2.73-1.26 3.905-2.94 3.905-.336 0-.672-.084-1.008-.084-.252.063-.756.294-.756.714 0 .777 1.24.818 2.646 1.113 1.574.336 2.98.84 2.98 2.624 0 1.428-1.386 2.562-3.695 2.562-2.478 0-3.737-.924-3.737-2.352 0-.966.6-1.764 1.596-2.184-.65-.2-1.176-.734-1.176-1.47 0-.82.714-1.323 1.428-1.448-.86-.6-1.302-1.995-1.302-3.13 0-2.604 1.26-4.115 3.17-4.115.713 0 1.637.314 1.994 1.008.336-.588.924-1.008 1.848-1.008v1.386zm-4.703 9.154c-.882.378-1.47.882-1.47 1.5 0 .902.756 1.532 2.394 1.532 1.68 0 2.268-.672 2.268-1.554 0-1.008-1.9-1.176-3.2-1.47zm.672-3.905c.882 0 1.596-.672 1.596-2.75s-.714-2.75-1.596-2.75-1.596.672-1.596 2.75.714 2.75 1.596 2.75z"/><use xlink:href="#AD" x="291.71"/><use xlink:href="#Z" x="374.238" y="-89.348"/></g><g class="K L"><path d="M514.234 726.57v1.386h-3.107v13.773h-1.64v-13.773h-3.107v-1.386h7.853z"/><use xlink:href="#AK" x="-112.84" y="99.703"/><use xlink:href="#o" x="166.86"/><use xlink:href="#o" x="175.344"/><use xlink:href="#AK" x="-88.543" y="99.703"/><use xlink:href="#AG" x="85.982"/><use xlink:href="#AG" x="93.31"/><use xlink:href="#AK" x="-66.556" y="99.703"/><use xlink:href="#j" x="299.545" y="10.355"/></g><g class="K L"><use xlink:href="#l" x="529.236" y="-99.704"/><use xlink:href="#Z" x="426.59" y="-268.044"/><use xlink:href="#w" x="443.622"/><use xlink:href="#AO"/><use xlink:href="#e" x="466.848" y="-178.696"/><use xlink:href="#x" x="454.435"/><path d="M824.9 641.463h1.428v1.196c.714-.734 1.764-1.406 2.478-1.406 1.512 0 2.394.84 2.394 2.855v8.272h-1.512v-8.062c0-1.26-.378-1.806-1.196-1.806-.735 0-1.407.504-2.08 1.344v8.524H824.9v-10.918z"/><use xlink:href="#AM" x="17.428" y="-268.045"/></g><g class="K L"><path d="M867.99 637.222h2.813c3.19 0 5.123 1.764 5.123 7.58s-1.932 7.58-5.123 7.58h-2.813v-15.16zm1.638 13.773h.882c2.394 0 3.78-1.008 3.78-6.193s-1.386-6.194-3.78-6.194h-.882v12.388z"/><use xlink:href="#AJ" x="358.934"/><use xlink:href="#e" x="541.038" y="-178.696"/><use xlink:href="#Z" x="525.916" y="-268.044"/><use xlink:href="#k" x="623.354" y="-78.991"/><use xlink:href="#Z" x="546.076" y="-268.044"/><use xlink:href="#w" x="563.105"/><use xlink:href="#X" x="574.718" y="-268.044"/></g><g class="K L"><path d="M679.744 547.874h3.356c2.3 0 3.8 1.638 3.8 4.157s-1.5 4.157-3.8 4.157h-1.816v6.845h-1.54v-15.16zm1.54 6.93h1.62c1.54 0 2.448-.882 2.448-2.77s-.908-2.77-2.448-2.77h-1.62v5.543zm7.442 3.022v.6c0 2.666.573 3.548 1.916 3.548 1.086 0 1.54-1.07 1.718-2.058l1.343.168c-.218 1.638-1.383 3.15-3.26 3.15-2.15 0-3.14-1.722-3.14-5.67s.987-5.67 3.14-5.67c2.172 0 3.14 2.058 3.14 5.207v.714h-4.857zm3.436-1.26c-.04-2.352-.434-3.4-1.718-3.4-1.026 0-1.697.798-1.718 3.4h3.436zm2.762-4.45h1.343v1.197c.67-.735 1.658-1.407 2.33-1.407 1.422 0 2.25.84 2.25 2.855v8.272h-1.42v-8.062c0-1.26-.355-1.806-1.126-1.806-.7 0-1.323.504-1.954 1.344v8.524h-1.422v-10.918z"/><use xlink:href="#AP"/><path d="M714.862 554.887c-.257-.945-.632-1.722-1.777-1.722-.67 0-1.145.567-1.145 1.302 0 2.226 4.344 2.352 4.344 5.753 0 1.722-1.185 3.023-2.804 3.023-1.856 0-2.784-1.07-3.278-2.897l1.304-.294c.296.966.83 1.932 1.876 1.932.77 0 1.48-.756 1.48-1.66 0-2.52-4.344-2.56-4.344-5.773a2.62 2.62 0 0 1 2.665-2.646c1.58 0 2.527.966 2.863 2.604l-1.185.378zm2.98-2.772l1.935 8.356h.04l1.58-8.356h1.46l-2.35 10.688c-.533 2.393-1.52 3.8-3.238 3.8h-.73v-1.26h.435c1.125 0 1.856-.86 2.133-2.394l-2.726-10.834h1.462zm5.763-4.24h1.422v15.16h-1.422v-15.16zm3.89 4.24l2.053 9.406h.04l2.014-9.406h1.422l-2.527 10.918H728.6l-2.527-10.918h1.422z"/><use xlink:href="#AQ"/><use xlink:href="#AP" x="39.103"/><path d="M750.036 547.874h1.422v1.764h-1.422v-1.764zm0 4.24h1.422v10.918h-1.422v-10.918z"/><use xlink:href="#AQ" x="19.542"/></g><g class="K L"><use xlink:href="#i" x="538.012" y="-178.695"/><use xlink:href="#AJ" x="286.738" y="-99.704"/><use xlink:href="#k" x="538.013" y="-178.694"/><path d="M793.073 558.23v11.38c0 3.107-1.05 3.99-3.737 3.99-.2 0-.525-.062-.84-.126l.126-1.428a2.8 2.8 0 0 0 .944.168c1.323 0 1.87-.567 1.87-2.226V558.23h1.638z"/><use xlink:href="#X" x="445.603" y="-347.035"/><use xlink:href="#u" x="531.428" y="-78.991"/><use xlink:href="#AE" x="361.922" y="-257.687"/><use xlink:href="#X" x="466.519" y="-347.035"/><use xlink:href="#AO" x="19.033" y="-78.991"/></g><g class="K L"><path d="M706.242 720.12c-.126-1.554-.756-2.73-2.33-2.73-1.26 0-2.08.84-2.08 1.995 0 3.422 6.09 3.464 6.09 8.335 0 2.415-1.386 3.863-3.885 3.863-2.372 0-3.8-1.743-3.842-4.283h1.512c.042 1.784.882 2.897 2.498 2.897 1.365 0 2.247-.882 2.247-2.498 0-3.443-6.09-3.843-6.09-8.168 0-2.142 1.47-3.527 3.653-3.527s3.61 1.47 3.737 4.115h-1.512z"/><use xlink:href="#b" x="527.306" y="-10.355"/><use xlink:href="#AA" x="358.752" y="178.696"/><use xlink:href="#q" x="359.907" y="268.045"/><use xlink:href="#y" x="546.466" y="257.688"/><path d="M697.76 741.504c-.2-2.394-.966-3.4-2.247-3.4-1.9 0-2.75 1.68-2.75 6.403s.84 6.404 2.75 6.404c1.533 0 2.415-1.05 2.457-3.863h1.638c-.042 3.36-1.512 5.25-4.095 5.25-2.708 0-4.388-2.058-4.388-7.8s1.68-7.8 4.388-7.8c2.247 0 3.633 1.554 3.885 4.787h-1.638zm3.78 2.646c.294-1.722 1.302-3.2 3.233-3.2 2.016 0 3.13 1.176 3.13 3.107v6.1c0 .966.104 1.68.272 1.932H706.6l-.188-.924c-.588.588-1.638 1.134-2.33 1.134-1.7 0-2.834-1.092-2.834-2.813 0-2.687 2.96-4.053 5.145-4.535v-.777c0-1.196-.6-1.952-1.575-1.952-1.155 0-1.722 1.155-1.9 2.142l-1.386-.2zm4.85 2.058c-1.387.42-3.633 1.428-3.633 3.15 0 1.028.462 1.68 1.554 1.68.82 0 1.532-.567 2.08-1.134v-3.695zm4.137-5.04h1.512v1.322h.042c.903-1.322 1.575-1.532 2.77-1.532v1.428c-1.134 0-1.995.378-2.813 1.932v7.77h-1.512V741.17z"/><use xlink:href="#b" x="533.523" y="10.358"/><use xlink:href="#e" x="378.913" y="-78.991"/><use xlink:href="#z" x="446.478" y="189.053"/><path d="M732.304 741.168h1.428v1.197c.714-.735 1.764-1.407 2.478-1.407 1.512 0 2.394.84 2.394 2.855v8.272h-1.512v-8.062c0-1.26-.378-1.806-1.196-1.806-.735 0-1.407.504-2.08 1.344v8.524h-1.512v-10.918z"/><use xlink:href="#c" x="542.004" y="10.358"/></g><g class="K L"><path d="M971.117 279.83l2.646 11.464h.042l2.582-11.464H979V295h-1.512v-13.9h-.04l-3.15 13.9h-1.07l-3.15-13.9h-.042V295h-1.512v-15.16h2.604z"/><use xlink:href="#s" x="603.624" y="-189.052"/><path d="M990.227 279.83h1.512v1.764h-1.512v-1.764zm0 4.24h1.512V295h-1.512v-10.918zm4.18.002h1.428v1.197c.714-.735 1.764-1.407 2.478-1.407 1.512 0 2.394.84 2.394 2.855V295h-1.512v-8.062c0-1.26-.378-1.806-1.197-1.806-.734 0-1.406.504-2.078 1.344V295h-1.512v-10.918zm9.64 5.71v.6c0 2.667.608 3.548 2.036 3.548 1.155 0 1.638-1.07 1.827-2.058l1.428.168c-.23 1.638-1.47 3.15-3.465 3.15-2.3 0-3.338-1.722-3.338-5.67s1.05-5.67 3.338-5.67c2.3 0 3.338 2.058 3.338 5.207v.714h-5.164zm3.652-1.26c-.04-2.352-.46-3.4-1.826-3.4-1.092 0-1.806.798-1.826 3.4h3.652z"/></g><g class="K L"><path d="M882.007 458.526L884.652 470h.042l2.583-11.464h2.604v15.16h-1.512v-13.9h-.043l-3.148 13.9h-1.07l-3.15-13.9h-.042v13.9h-1.512v-15.16h2.604zm9.933 7.224c.294-1.722 1.302-3.2 3.233-3.2 2.016 0 3.13 1.176 3.13 3.107v6.1c0 .966.104 1.68.272 1.932H897l-.188-.924c-.588.588-1.638 1.134-2.33 1.134-1.7 0-2.834-1.092-2.834-2.813 0-2.687 2.96-4.052 5.145-4.535v-.777c0-1.197-.6-1.953-1.575-1.953-1.155 0-1.722 1.155-1.9 2.142l-1.386-.2zm4.85 2.058c-1.387.42-3.633 1.428-3.633 3.15 0 1.03.462 1.68 1.554 1.68.82 0 1.532-.567 2.08-1.134v-3.695zm8.505-2.268c-.273-.945-.672-1.722-1.9-1.722-.714 0-1.218.567-1.218 1.302 0 2.226 4.62 2.352 4.62 5.753 0 1.722-1.26 3.023-2.98 3.023-1.974 0-2.96-1.07-3.485-2.897l1.386-.294c.315.966.882 1.932 1.995 1.932.818 0 1.574-.756 1.574-1.66 0-2.52-4.62-2.562-4.62-5.774 0-1.428 1.176-2.646 2.834-2.646 1.68 0 2.688.966 3.045 2.604l-1.26.378z"/><use xlink:href="#AH" x="385.484" y="89.35"/><path d="M918.252 471.71v1.974h-1.764v-1.974h1.764z"/></g><g class="K L"><use xlink:href="#i" x="717.504" y="-356.379"/><use xlink:href="#j" x="717.504" y="-356.379"/><use xlink:href="#k" x="717.505" y="-356.379"/><path d="M953.698 378.522v6.55h4.45v-6.55h1.638v15.16h-1.638v-7.223h-4.45v7.223h-1.638v-15.16h1.638zm8.36 7.223c.294-1.722 1.302-3.2 3.233-3.2 2.016 0 3.128 1.176 3.128 3.107v6.1c0 .966.105 1.68.273 1.932h-1.574l-.2-.924c-.588.588-1.638 1.134-2.33 1.134-1.7 0-2.835-1.092-2.835-2.813 0-2.687 2.96-4.053 5.144-4.535v-.777c0-1.196-.608-1.952-1.574-1.952-1.154 0-1.722 1.154-1.9 2.142l-1.386-.2zm4.85 2.058c-1.385.42-3.632 1.428-3.632 3.15 0 1.028.462 1.68 1.554 1.68.818 0 1.533-.567 2.078-1.134v-3.695zm4.43 5.88v-10.918h1.386v1.196c.588-.692 1.5-1.406 2.54-1.406.86 0 1.68.566 1.953 1.386.6-.672 1.47-1.386 2.54-1.386 1.428 0 2.204.966 2.204 2.52v8.608h-1.512v-8.398c0-1.134-.336-1.47-1.134-1.47-.924 0-1.45.65-1.9 1.134v8.734h-1.512v-8.398c0-1.134-.4-1.47-1.197-1.47-.924 0-1.45.65-1.848 1.134v8.734h-1.512zm14.805-9.87h.042c.504-.777 1.26-1.26 2.226-1.26 1.722 0 3.15 1.47 3.15 5.67s-1.428 5.67-3.15 5.67c-.818 0-1.512-.504-2.016-1.008v4.367h-1.512v-14.487h1.26v1.05zm.252 7.853c.44.44.966.966 1.638.966 1.28 0 2.016-1.05 2.016-4.4s-.798-4.4-2.058-4.4c-.462 0-1.134.42-1.596 1.05v6.803zm11.507-6.13c-.273-.945-.672-1.722-1.9-1.722-.714 0-1.218.566-1.218 1.302 0 2.226 4.62 2.352 4.62 5.753 0 1.722-1.26 3.023-2.98 3.023-1.974 0-2.96-1.07-3.485-2.897l1.386-.294c.315.966.882 1.932 1.995 1.932.818 0 1.574-.756 1.574-1.66 0-2.52-4.62-2.562-4.62-5.773 0-1.428 1.176-2.646 2.834-2.646 1.68 0 2.688.966 3.045 2.604l-1.26.378z"/><use xlink:href="#f" x="643.356" y="-437.396"/><use xlink:href="#z" x="728.73" y="-169.352"/><path d="M1014.43 382.764h1.512v1.322h.042c.902-1.322 1.574-1.532 2.77-1.532v1.428c-1.134 0-1.994.378-2.813 1.932v7.77h-1.512v-10.918z"/><use xlink:href="#AJ" x="500.711" y="-258.699"/></g><g class="K L"><path d="M872.25 369.178l2.667 12h.04l2.667-12h1.638l-3.57 15.16h-1.512l-3.57-15.16h1.638z"/><use xlink:href="#AK" x="253.158" y="-257.687"/><path d="M887.54 373.42h1.512v1.323h.042c.903-1.323 1.575-1.533 2.77-1.533v1.428c-1.134 0-1.995.378-2.813 1.932v7.77h-1.512v-10.92zm5.713 10.917V373.42h1.386v1.197c.588-.693 1.5-1.407 2.54-1.407.86 0 1.68.567 1.952 1.386.608-.672 1.47-1.386 2.54-1.386 1.428 0 2.205.966 2.205 2.52v8.608h-1.512v-8.398c0-1.134-.336-1.47-1.134-1.47-.924 0-1.448.65-1.9 1.134v8.734h-1.512v-8.398c0-1.134-.398-1.47-1.196-1.47-.924 0-1.448.65-1.848 1.134v8.734h-1.512z"/><use xlink:href="#g" x="539.713" y="-446.74"/><use xlink:href="#AI" x="367.855"/><use xlink:href="#q" x="556.725" y="-78.99"/></g><g class="K L"><path d="M74.13 279.83L77.47 295h-1.637l-.903-4.493h-3.863L70.162 295h-1.637l3.338-15.16h2.268zm-2.834 9.28h3.4l-1.68-8.146h-.04l-1.68 8.146zm7.52-9.28h1.512V295h-1.512v-15.16z"/><use xlink:href="#s" x="-294.643" y="-189.052"/><use xlink:href="#AH" x="-431.422" y="-89.347"/><path d="M99.52 279.83h1.512v9.574h.042l2.897-5.333h1.554l-2.016 3.485 2.52 7.433h-1.554l-1.974-5.92h-.042l-1.428 2.688V295H99.52v-15.16z"/><use xlink:href="#r" x="-240.422" y="-189.052"/></g><g opacity=".5" class="L"><path d="M42.328 1046.045c-3.568 0-5.47-1.97-5.503-2.002 0 .935-.7 1.4-1.468 1.4-.7 0-1.4-.467-1.4-1.4v-20.88a1.35 1.35 0 0 1 1.401-1.434c.767 0 1.468.467 1.468 1.4v6.238c1.334-1.368 3.168-2.17 5.503-2.17 5.37 0 8.373 4.403 8.373 9.406 0 5.037-3.002 9.44-8.373 9.44zm0-16c-3.335 0-5.503 2.602-5.503 6.57 0 4.003 2.168 6.604 5.503 6.604s5.504-2.602 5.504-6.604c0-3.97-2.168-6.57-5.504-6.57zm25.555 8.037h-12.34c.467 3.136 2.468 5.137 5.403 5.137 1.5 0 3.002-.533 3.97-1.734.3-.333.634-.533 1.034-.533.734 0 1.5.667 1.5 1.468 0 .4-.1.7-.8 1.4-1.5 1.468-3.57 2.235-5.704 2.235-5.37 0-8.372-4.437-8.372-9.44 0-4.97 3.002-9.406 8.372-9.406 5.437 0 8.34 4.437 8.34 9.406 0 .734-.534 1.468-1.4 1.468zm-6.937-8.038c-3.136 0-4.97 2.3-5.403 5.17H66.35c-.467-3.202-2.468-5.17-5.403-5.17zM88 1045.478c-1.834 0-2.668-1.3-2.97-1.9-1.334 1.468-3.27 2.47-5.87 2.47-5.437 0-8.372-4.47-8.372-9.44s3.002-9.406 8.372-9.406c2.335 0 4.203.834 5.504 2.202v-.134c0-.367.133-1.5 1.4-1.5.7 0 1.468.367 1.468 1.4v12.875c0 .434.3.6.467.6.935 0 1.435.667 1.435 1.434a1.37 1.37 0 0 1-1.435 1.401zm-8.84-15.443c-3.336 0-5.504 2.602-5.504 6.57 0 4.003 2.168 6.604 5.504 6.604 3.37 0 5.504-2.602 5.504-6.604 0-3.97-2.135-6.57-5.504-6.57z"/><use xlink:href="#AR"/><path d="M115.158 1045.478h-.567c-3.17 0-4.37-1.668-4.37-4.403V1030.6h-1c-.8 0-1.435-.634-1.435-1.4 0-.8.634-1.435 1.4-1.435h1v-4.637c0-.934.7-1.4 1.435-1.4s1.4.467 1.4 1.4v4.637h2.135c.934 0 1.4.768 1.4 1.4 0 .8-.533 1.434-1.4 1.434h-2.135v10.774c0 .934.333 1.268 1.268 1.268h.833c.868 0 1.435.634 1.435 1.4 0 .8-.533 1.435-1.4 1.435zm4.604-20.415a2.402 2.402 0 1 1 0-4.803 2.402 2.402 0 1 1 0 4.803zm0 20.414c-.733 0-1.467-.5-1.467-1.4V1029.2c0-.935.733-1.435 1.467-1.435a1.37 1.37 0 0 1 1.401 1.435v14.876c0 .935-.7 1.4-1.4 1.4zm10.376-14.877h-1.5v13.442c0 .935-.7 1.4-1.468 1.4-.7 0-1.4-.467-1.4-1.4V1030.6h-1.37c-.9 0-1.4-.667-1.4-1.4 0-.768.5-1.435 1.4-1.435h1.367v-2.27c0-2.135 1.77-3.77 3.836-3.77.968 0 1.468.667 1.468 1.434 0 .7-.5 1.4-1.468 1.4-.566 0-.967.434-.967.9v2.302h1.5c.967 0 1.468.667 1.468 1.435 0 .733-.5 1.4-1.468 1.4z"/><use xlink:href="#AR" x="42.068"/><path d="M154.725 1045.544c-1.802 0-3.336-1.534-3.336-3.402v-18.98c0-.967.7-1.434 1.435-1.434s1.435.467 1.435 1.4v19.013c0 .4.3.567.467.567.934 0 1.435.667 1.435 1.435 0 .733-.5 1.4-1.435 1.4zm15.37-.066v-1.264c1.886-.237 2.046-.437 2.046-3.157v-6.7c0-2.8-1.248-4.017-3.064-4.017-1.237 0-2.345.6-3.47 1.493v9.476c0 2.527.187 2.658 2.06 2.896v1.264h-8.968v-1.264c2.254-.33 2.5-.4 2.5-3v-8.2c0-2.446-.303-2.565-2.185-2.922v-1.184c2.173-.292 4.63-.807 6.653-1.533l-.052 2.95 2.6-1.745c1.16-.713 2-1.086 3.16-1.086 3.194 0 5.2 2.338 5.2 6.3v7.5c0 2.54.237 2.657 2.277 2.92v1.264h-8.74zm23.9-3.703c-2.458 3.427-5.488 4.178-7.014 4.178-5.142 0-8.124-3.936-8.124-8.594 0-2.745 1.183-5.396 2.832-7.062 1.74-1.8 3.945-2.814 6.082-2.814 3.73 0 6.396 3.126 6.37 6.347-.014.715-.08 1.277-.612 1.4-.767.184-6.17.5-10.318.647.062 4.587 2.717 6.74 5.556 6.74 1.572 0 3.104-.597 4.543-1.866l.686 1.014zm-7.07-12.7c-1.667 0-3.167 1.807-3.516 4.963l5.486-.118c.6-.026.848-.146.848-.792.04-2.022-1.037-4.053-2.818-4.053zm34.284.145c-1.943.343-2.248.624-3.105 2.765-1.33 3.462-3.102 8.53-4.934 13.94h-1.512l-4.65-11.46-4.55 11.46h-1.472l-4.685-14.192c-.687-1.985-.94-2.274-2.855-2.512v-1.25h9.397v1.25c-2.325.345-2.535.672-2.058 2.133l2.52 8.214c1.507-3.68 2.988-7.62 4.327-11.424h1.456c1.4 3.76 2.986 7.702 4.573 11.568.742-2.107 2.062-5.964 2.557-8.108.412-1.674-.008-2.078-2.753-2.383v-1.25h7.742v1.25zm9.4 3.746c-.92-2.606-2.155-3.984-4.2-3.984-1.206 0-2.225.86-2.225 2.266 0 1.497 1.046 2.264 3.16 3.216 3.278 1.496 5.3 2.787 5.3 5.736 0 3.85-3.6 5.764-6.945 5.764-2.06 0-4.088-.737-4.92-1.16l-.662-4.892 1.252-.224c.8 2.5 2.33 4.75 4.976 4.75 1.505 0 2.438-.952 2.438-2.28 0-1.423-.76-2.333-3.092-3.467-2.67-1.295-5.107-2.64-5.107-5.775 0-3.046 2.533-5.42 6.565-5.42 1.818 0 3.242.396 4.112.567l.62 4.577-1.25.328z"/></g><g opacity=".5" class="L"><use xlink:href="#AS"/><path d="M830.645 1046.318c-3.22 0-5.02-2.64-5.02-5.662 0-3 1.8-5.64 5.02-5.64s5.02 2.64 5.02 5.64c0 3.02-1.8 5.662-5.02 5.662zm0-10.162c-2.36 0-3.88 1.9-3.88 4.5s1.52 4.52 3.88 4.52c2.38 0 3.88-1.92 3.88-4.52s-1.5-4.5-3.88-4.5zm15.78 9.824c-.28 0-.58-.2-.58-.56v-.64c-.84.98-2.06 1.54-3.42 1.54-2.48 0-4.56-2.08-4.56-4.56v-5.842c0-.36.3-.56.58-.56.26 0 .56.2.56.56v5.842c0 1.9 1.52 3.42 3.42 3.42s3.42-1.52 3.42-3.42v-5.842c0-.36.3-.56.58-.56.26 0 .56.2.56.56v9.502a.56.56 0 0 1-.561.561z"/><use xlink:href="#AT"/><use xlink:href="#AU"/><use xlink:href="#AV"/><use xlink:href="#AS" x="62.499"/><path d="M889.622 1039.416c-.64 0-1.16-.5-1.16-1.14s.52-1.14 1.16-1.14c.62 0 1.12.5 1.12 1.14s-.5 1.14-1.12 1.14zm0 6.563c-.64 0-1.16-.5-1.16-1.14s.52-1.14 1.16-1.14c.62 0 1.12.5 1.12 1.14s-.5 1.14-1.12 1.14zm23.083-13.524l-3.52 13.104c-.08.28-.3.42-.56.42-.24 0-.48-.14-.54-.42l-3-11.084-2.98 11.084c-.06.28-.3.42-.54.42-.26 0-.48-.14-.56-.42l-3.52-13.104c-.02-.06-.02-.12-.02-.18a.58.58 0 0 1 .58-.58c.26 0 .46.14.52.44l3 11.082 2.98-11.082a.53.53 0 0 1 .54-.4c.26 0 .48.12.56.4l2.98 11.082 3-11.082c.08-.3.28-.44.52-.44a.58.58 0 0 1 .58.58c0 .06 0 .12-.02.18z"/><use xlink:href="#AV" x="47.54"/><path d="M936.924 1045.98c-.2 0-.42-.12-.52-.34l-1.28-3.082h-7.2l-1.28 3.082a.56.56 0 0 1-.501.34c-.3 0-.58-.22-.58-.54 0-.1 0-.16.04-.26l5.4-13.104c.1-.238.34-.38.58-.38.2 0 .38.12.48.38l5.4 13.104c.04.1.04.16.04.26 0 .32-.28.54-.58.54zm-5.4-12.184l-3.14 7.623h6.3l-3.16-7.623z"/><use xlink:href="#AT" x="89.419"/><use xlink:href="#AV" x="78.255"/><path d="M961.478 1046.318c-1.54 0-3.64-.62-4.78-1.76-.14-.14-.18-.262-.18-.4a.61.61 0 0 1 .58-.58c.24 0 .22.06.64.38a6.33 6.33 0 0 0 3.74 1.221c2.52 0 3.98-.94 3.98-2.74 0-4.742-8.462-2.102-8.462-7.562 0-2.4 2.1-3.5 4.68-3.5 1.44 0 3.46.62 4.36 1.88.08.12.12.22.12.34 0 .32-.28.56-.6.56-.28 0-.28-.08-.62-.42-.84-.842-2.08-1.22-3.26-1.22-2.38 0-3.54.92-3.54 2.36 0 4.3 8.462 1.8 8.462 7.563 0 2.78-2.44 3.88-5.12 3.88zm10.78-.338h-.62c-1.58 0-2.36-.78-2.36-2.342v-7.14h-1.02c-.36 0-.56-.3-.56-.58 0-.26.2-.56.56-.56h1.02v-3.06c0-.36.3-.56.58-.56s.56.2.56.56v3.06h1.84c.36 0 .56.3.56.56 0 .28-.2.58-.56.58h-1.84v7.14c0 .98.28 1.2 1.22 1.2h.62c.36 0 .56.3.56.58 0 .26-.2.56-.56.56zm2.96-12.544c-.64 0-1.14-.5-1.14-1.14s.5-1.14 1.14-1.14 1.14.5 1.14 1.14-.5 1.14-1.14 1.14zm0 12.543c-.28 0-.58-.18-.58-.56v-9.502c0-.36.28-.56.58-.56.26 0 .56.18.56.56v9.502c0 .36-.26.56-.56.56z"/><use xlink:href="#AW"/><use xlink:href="#AW" x="4.38"/><path d="M989.776 1045.98h-2.28c-.36 0-.58-.3-.58-.56a.58.58 0 0 1 .58-.58h.56v-11.982h-.56c-.36 0-.58-.28-.58-.56s.22-.56.58-.56h2.28c.36 0 .56.28.56.56s-.2.56-.56.56h-.58v11.982h.58c.36 0 .56.3.56.58 0 .26-.2.56-.56.56zm11.522 0c-.28 0-.58-.2-.58-.56v-5.842c0-1.9-1.52-3.42-3.42-3.42a3.42 3.42 0 0 0-3.421 3.42v5.842c0 .36-.3.56-.56.56-.28 0-.58-.2-.58-.56v-9.502c0-.36.3-.56.58-.56.26 0 .56.2.56.56v.64c.9-.98 2.08-1.54 3.42-1.54a4.6 4.6 0 0 1 4.561 4.561v5.842c0 .36-.3.56-.56.56zm4.36 0c-.64 0-1.14-.5-1.14-1.14s.5-1.14 1.14-1.14 1.14.5 1.14 1.14-.5 1.14-1.14 1.14z"/><use xlink:href="#AU" x="153.212"/><path d="M1024.898 1046.318c-3.22 0-5.022-2.64-5.022-5.662 0-3 1.8-5.64 5.022-5.64s5.02 2.64 5.02 5.64c0 3.02-1.8 5.662-5.02 5.662zm0-10.162c-2.36 0-3.88 1.9-3.88 4.5s1.52 4.52 3.88 4.52c2.38 0 3.88-1.92 3.88-4.52s-1.5-4.5-3.88-4.5zm20.42 9.824c-.28 0-.56-.2-.56-.56v-6.72c0-1.38-1.16-2.54-2.54-2.54s-2.56 1.16-2.56 2.52v6.742c0 .36-.28.56-.56.56s-.58-.2-.58-.56v-6.72a2.57 2.57 0 0 0-2.521-2.541c-1.4 0-2.56 1.16-2.56 2.52v6.742c0 .36-.3.56-.56.56-.28 0-.58-.2-.58-.56v-9.502c0-.36.3-.56.58-.56.26 0 .56.2.56.56v.12a3.64 3.64 0 0 1 2.54-1.02 3.71 3.71 0 0 1 3.121 1.701 3.69 3.69 0 0 1 3.1-1.7c2.08 0 3.7 1.64 3.7 3.66v6.742c0 .36-.3.56-.58.56z"/></g><g class="L"><use xlink:href="#AX"/><use xlink:href="#AY"/><use xlink:href="#AZ"/><path d="M343.747 81.08c-8.22 0-15.06-6.6-15.06-15.06v-26.22c0-1.68 1.26-2.52 2.58-2.52s2.58.84 2.58 2.52v26.22c0 5.52 4.44 9.96 9.9 9.96s9.96-4.44 9.96-9.96v-26.16c0-1.74 1.2-2.58 2.52-2.58 1.38 0 2.58.84 2.58 2.52v26.22c0 8.22-6.6 15.06-15.06 15.06z"/><use xlink:href="#Aa"/><use xlink:href="#Aa" x="43.439"/><use xlink:href="#Ab"/><use xlink:href="#Ac"/><use xlink:href="#Ab" x="50.998"/><use xlink:href="#AY" x="254.817"/><use xlink:href="#Ad"/><use xlink:href="#Ae"/><use xlink:href="#Af"/><use xlink:href="#AY" x="378.643"/></g><g fill="#ff0"><path d="M681.1 41.002c-1.56.9-2.58 2.76-2.58 4.2v4.62c0 1.74-1.26 2.52-2.58 2.52s-2.58-.78-2.58-2.52v-4.62c0-1.74.96-6.24 5.16-8.64.48-.24.9-.36 1.32-.36 1.5 0 2.58 1.38 2.58 2.76 0 .78-.42 1.56-1.32 2.04zm11.46 0c-1.62.9-2.58 2.76-2.58 4.2v4.62c0 1.74-1.26 2.52-2.58 2.52s-2.58-.78-2.58-2.52v-4.62c0-1.68.9-6.24 5.16-8.64.42-.18.9-.36 1.32-.36 1.44 0 2.58 1.32 2.58 2.7 0 .84-.36 1.56-1.32 2.1zm16.918 40.018c-4.38 0-10.5-1.8-13.92-4.98a2.4 2.4 0 0 1-.84-1.86 2.6 2.6 0 0 1 2.58-2.58c.9 0 1.2.3 2.28 1.14 2.94 2.22 6.42 3.18 9.9 3.18 7.14 0 10.26-2.58 10.26-7.02 0-12.48-23.94-5.4-23.94-21.72 0-7.32 6.18-10.98 14.1-10.98 4.14 0 10.08 1.62 13.02 5.1.48.54.66 1.08.66 1.62 0 1.44-1.32 2.7-2.58 2.7-.9 0-1.38-.42-2.4-1.32-2.4-2.04-5.46-2.94-8.7-2.94-6.48 0-8.94 2.58-8.94 5.82 0 11.22 23.94 4.56 23.94 21.72 0 8.94-7.5 12.12-15.42 12.12z"/><use xlink:href="#Ab" x="289.242"/><use xlink:href="#Ag"/><use xlink:href="#Ah"/><use xlink:href="#Ah" x="11.279"/><path d="M797.984 80h-6.898c-1.62 0-2.52-1.26-2.52-2.52 0-1.38.9-2.58 2.52-2.58h.9v-32.52h-.9c-1.62 0-2.52-1.26-2.52-2.52 0-1.38.9-2.58 2.52-2.58h6.898c1.74 0 2.64 1.2 2.64 2.58 0 1.26-.9 2.52-2.64 2.52h-.9V74.9h.9c1.74 0 2.64 1.2 2.64 2.58 0 1.26-.9 2.52-2.64 2.52z"/><use xlink:href="#AZ" x="520.836"/><path d="M838.785 52.042c-.48.24-.9.3-1.32.3-1.44 0-2.58-1.32-2.58-2.7 0-.84.36-1.56 1.26-2.16 1.56-.84 2.64-2.7 2.64-4.14v-4.56c0-1.74 1.2-2.64 2.52-2.64 1.38 0 2.58.9 2.58 2.64v4.56c0 1.92-.9 6.06-5.1 8.7zm11.398 0c-.42.18-.84.3-1.26.3-1.38 0-2.58-1.32-2.58-2.7 0-.84.36-1.56 1.32-2.16 1.56-.84 2.58-2.7 2.58-4.14v-4.56c0-1.74 1.26-2.64 2.52-2.64 1.38 0 2.64.9 2.64 2.64v4.56c0 1.86-.9 6.18-5.22 8.7z"/></g><g class="L"><use xlink:href="#AX" x="-44.588" y="61.2"/><path d="M235.325 141.2c-1.32 0-2.52-.9-2.52-2.52V122c0-4.68-3.9-8.58-8.58-8.58-4.62 0-8.52 3.9-8.52 8.58v16.62c0 1.68-1.26 2.64-2.64 2.64-1.26 0-2.52-.9-2.52-2.58v-37.618c0-1.74 1.26-2.58 2.52-2.58 1.38 0 2.64.84 2.64 2.52v10.38c2.22-2.1 5.22-3.06 8.52-3.06 7.44 0 13.68 6.18 13.68 13.68v16.62c0 1.68-1.2 2.58-2.58 2.58z"/><use xlink:href="#AY" x="-8.762" y="61.2"/><path d="M305.344 122.72h-12.84v15.9c0 1.56-1.2 2.58-2.52 2.58-1.44 0-2.64-.96-2.64-2.52v-37.618c0-1.08.72-2.58 2.52-2.58h15.54c5.28 0 12.06 4.14 12.06 12.06 0 6.78-5.4 12.18-12.12 12.18zm0-19.14h-12.84v14.04h12.78a6.99 6.99 0 0 0 7.021-7.02c0-3.9-3.12-7.02-6.96-7.02z"/><use xlink:href="#Ac" x="-135.72" y="61.2"/><use xlink:href="#Af" x="-257.997" y="61.2"/><use xlink:href="#Ag" x="-367.424" y="61.2"/><use xlink:href="#Ad" x="-149.1" y="61.2"/><path d="M457.74 135.68c-2.94 4.08-7.14 6.54-13.38 6.54-12.9 0-17.46-10.68-17.46-22.38 0-11.76 4.56-22.44 17.46-22.44 6.06 0 10.5 2.4 13.32 6.54.42.54.54 1.02.54 1.5 0 1.44-1.26 2.52-2.64 2.52-.78 0-1.5-.36-2.04-1.08-1.86-2.7-4.62-4.32-9.18-4.32-8.52 0-12.3 6.3-12.3 17.28s3.78 17.28 12.3 17.28c4.56 0 7.32-1.74 9.18-4.38.54-.78 1.26-1.14 2.04-1.14 1.38 0 2.7 1.14 2.7 2.58 0 .48-.18.96-.54 1.5zm10.08 5.64c-3.24 0-6-2.76-6-6.12v-34.138c0-1.74 1.26-2.58 2.58-2.58s2.58.84 2.58 2.52V135.2c0 .72.54 1.02.84 1.02 1.68 0 2.58 1.2 2.58 2.58 0 1.32-.9 2.52-2.58 2.52z"/><use xlink:href="#Ag" x="-270.647" y="61.2"/><path d="M523.258 141.2c-1.26 0-2.52-.9-2.52-2.52v-18.9c0-3.48-2.88-6.36-6.3-6.36-3.54 0-6.36 2.88-6.36 6.3v18.9c0 1.68-1.2 2.58-2.58 2.58-1.32 0-2.52-.9-2.52-2.52v-18.9c0-3.48-2.88-6.36-6.36-6.36s-6.36 2.88-6.36 6.3v18.9c0 1.68-1.26 2.58-2.64 2.58-1.26 0-2.52-.9-2.52-2.52v-26.82c0-1.74 1.32-2.58 2.64-2.58.84 0 1.68.36 2.16 1.14a11.56 11.56 0 0 1 6.66-2.1c3.6 0 6.84 1.62 8.94 4.26a11.24 11.24 0 0 1 8.88-4.26c6.36 0 11.52 5.1 11.52 11.4v18.9c0 1.68-1.26 2.58-2.64 2.58zm37.802 0c-3.3 0-4.8-2.34-5.34-3.42-2.4 2.64-5.88 4.44-10.56 4.44-9.78 0-15.06-8.04-15.06-16.98s5.4-16.92 15.06-16.92c4.2 0 7.56 1.5 9.9 3.96v-.24c0-.66.24-2.7 2.52-2.7 1.26 0 2.64.66 2.64 2.52v23.16c0 .78.54 1.08.84 1.08 1.68 0 2.58 1.2 2.58 2.58 0 1.26-.9 2.52-2.58 2.52zm-15.9-27.78c-6 0-9.9 4.68-9.9 11.82 0 7.2 3.9 11.88 9.9 11.88 6.06 0 9.9-4.68 9.9-11.88 0-7.14-3.84-11.82-9.9-11.82z"/><use xlink:href="#Ab" x="127.614" y="61.2"/><path d="M608.638 127.88h-22.2c.84 5.64 4.44 9.24 9.72 9.24 2.7 0 5.4-.96 7.14-3.12.54-.6 1.14-.96 1.86-.96 1.32 0 2.7 1.2 2.7 2.64 0 .72-.18 1.26-1.44 2.52-2.7 2.64-6.42 4.02-10.26 4.02-9.66 0-15.06-7.98-15.06-16.98 0-8.94 5.398-16.92 15.06-16.92 9.78 0 15 7.98 15 16.92 0 1.32-.96 2.64-2.52 2.64zm-12.48-14.46c-5.64 0-8.94 4.14-9.72 9.3h19.44c-.84-5.76-4.44-9.3-9.72-9.3z"/><use xlink:href="#Ae" x="50.517" y="61.2"/><path d="M676.676 154.88c-3.66 0-12.72-1.32-12.72-4.92 0-1.38 1.26-2.7 2.58-2.7 1.38 0 .18.18 3.36 1.38 1.44.54 3.6 1.14 6.78 1.14 6.66 0 9.9-3.18 9.9-9.48v-2.7c-2.34 2.22-5.7 3.6-9.9 3.6-9.48 0-15.06-6.72-15.06-15.96 0-9 5.4-16.92 15.06-16.92 4.2 0 7.44 1.26 9.9 3.84v-.24c0-1.68 1.38-2.58 2.58-2.58 1.26 0 2.58.9 2.58 2.58v28.38c0 9.54-5.7 14.58-15.06 14.58zm0-41.458c-6 0-9.898 4.68-9.898 11.82 0 6.84 3.6 10.86 9.898 10.86s9.9-4.02 9.9-10.86c0-7.14-3.84-11.82-9.9-11.82zm33.66 0c-4.62 0-8.52 3.9-8.52 8.58v16.62c0 1.68-1.26 2.58-2.64 2.58-1.26 0-2.52-.9-2.52-2.52v-26.76c0-1.68 1.38-2.58 2.52-2.58 1.2 0 2.34.66 2.58 2.04a13.88 13.88 0 0 1 8.58-3.06c1.74 0 2.64 1.2 2.64 2.58 0 1.32-.9 2.52-2.64 2.52z"/><use xlink:href="#AY" x="462.828" y="61.2"/><use xlink:href="#AY" x="495.588" y="61.2"/><path d="M816.354 141.2c-1.26 0-2.52-.9-2.52-2.52v-18.9c0-3.48-2.88-6.36-6.3-6.36-3.54 0-6.36 2.88-6.36 6.3v18.9c0 1.68-1.2 2.58-2.58 2.58-1.32 0-2.52-.9-2.52-2.52v-18.9c0-3.48-2.88-6.36-6.36-6.36s-6.36 2.88-6.36 6.3v18.9c0 1.68-1.26 2.58-2.64 2.58-1.26 0-2.52-.9-2.52-2.52v-26.82c0-1.74 1.32-2.58 2.64-2.58.84 0 1.68.36 2.16 1.14 1.86-1.32 4.2-2.1 6.66-2.1 3.6 0 6.84 1.62 8.94 4.26a11.24 11.24 0 0 1 8.881-4.26c6.36 0 11.52 5.1 11.52 11.4v18.9c0 1.68-1.26 2.58-2.64 2.58z"/><use xlink:href="#AY" x="573.527" y="61.2"/><path d="M882.113 141.2c-1.32 0-2.52-.9-2.52-2.52V122c0-4.68-3.9-8.58-8.58-8.58-4.62 0-8.52 3.9-8.52 8.58v16.62c0 1.68-1.26 2.64-2.64 2.64-1.26 0-2.52-.9-2.52-2.58v-26.82c0-1.74 1.26-2.52 2.52-2.52 1.2 0 2.28.66 2.58 1.98 2.34-1.86 5.28-3 8.58-3 7.44 0 13.68 6.18 13.68 13.68v16.62c0 1.68-1.2 2.58-2.58 2.58z"/><use xlink:href="#Ab" x="449.869" y="61.2"/></g><g opacity=".8" class="L"><path d="M124.274 189.2h-8.435c-.57 0-1.103-.532-1.103-1.063v-24.925c0-.57.532-1.063 1.103-1.063h8.435c7.827 0 10.4 6.535 10.4 13.487 0 7.067-2.583 13.564-10.4 13.564zm0-24.924h-7.37v22.758h7.37c6.497 0 8.245-5.623 8.245-11.36 0-6.763-2.356-11.397-8.245-11.397z"/><use xlink:href="#Ai"/><use xlink:href="#Aj"/><use xlink:href="#Ak"/><use xlink:href="#Al"/><use xlink:href="#Am"/><use xlink:href="#Ai" x="79.608"/><use xlink:href="#Am" x="41.227"/><use xlink:href="#An"/><use xlink:href="#Ai" x="142.46"/><path d="M318.602 164.277h-1.178c-.912 0-1.672.76-1.672 1.633v3.116h2.85c.723 0 1.064.57 1.064 1.063 0 .532-.38 1.102-1.064 1.102h-2.85v16.946c0 .684-.53 1.063-1.063 1.063s-1.063-.342-1.063-1.063V171.2h-2.622c-.684 0-1.063-.57-1.063-1.102 0-.494.38-1.063 1.063-1.063h2.622V165.9a3.77 3.77 0 0 1 3.761-3.761h1.216c.685 0 1.103.53 1.103 1.102 0 .532-.38 1.026-1.103 1.026zm21.126 15.92H323.96c.342 4.332 3.153 7.485 7.295 7.485 2.052 0 4.483-.912 5.585-2.622.267-.418.57-.53.912-.53.57 0 1.178.455 1.178 1.025 0 .342 0 .418-.722 1.254-1.748 2.052-4.293 3.04-6.953 3.04-6.117 0-9.536-5.015-9.536-10.752 0-5.7 3.42-10.715 9.536-10.715s9.537 5.054 9.537 10.715c0 .57-.532 1.102-1.064 1.102zm-8.473-9.65c-4.56 0-6.953 3.495-7.295 7.485h14.628c-.342-4.332-3.153-7.485-7.333-7.485z"/><use xlink:href="#Ao"/><path d="M384.53 180.196h-15.768c.342 4.332 3.153 7.485 7.295 7.485 2.052 0 4.483-.912 5.585-2.622.267-.418.57-.53.912-.53.57 0 1.178.455 1.178 1.025 0 .342 0 .418-.722 1.254-1.748 2.052-4.293 3.04-6.953 3.04-6.117 0-9.536-5.015-9.536-10.752 0-5.7 3.42-10.715 9.536-10.715s9.537 5.054 9.537 10.715c0 .57-.532 1.102-1.064 1.102zm-8.473-9.65c-4.56 0-6.953 3.495-7.295 7.485H383.4c-.342-4.332-3.153-7.485-7.333-7.485z"/><use xlink:href="#Ap"/><use xlink:href="#Aq"/><use xlink:href="#Ar"/><path d="M448.665 197.864c-3.23 0-7.79-1.216-7.79-2.584 0-.608.494-1.216 1.103-1.216.418 0 1.29.646 2.014.912.987.342 2.545.722 4.673.722 4.863 0 7.37-2.394 7.37-7.067v-2.66c-1.672 2.014-4.065 3.23-7.37 3.23-6.003 0-9.536-4.256-9.536-10.106 0-5.7 3.42-10.715 9.536-10.715 3.306 0 5.775 1.368 7.37 3.572v-1.824c0-.684.57-1.063 1.102-1.063.494 0 1.064.38 1.064 1.063v18.503c0 6.04-3.6 9.233-9.537 9.233zm0-27.318c-4.483 0-7.37 3.61-7.37 8.55 0 4.9 2.698 7.94 7.37 7.94s7.37-3.04 7.37-7.94c0-4.94-2.85-8.55-7.37-8.55z"/><use xlink:href="#As"/><path d="M500.306 170.507l-7.484 17.82c-.23.494-.57.874-1.064.874s-.874-.38-1.102-.874l-7.485-17.78c-.075-.2-.075-.342-.075-.494 0-.607.53-1.025 1.102-1.025.342 0 .76.15.95.646l6.6 15.616 6.573-15.616c.23-.494.608-.684.988-.684.57 0 1.102.418 1.102 1.025 0 .114 0 .305-.114.494z"/><use xlink:href="#Ai" x="364.67"/><use xlink:href="#Ap" x="135.954"/><use xlink:href="#At"/><path d="M583.446 189.2c-.53 0-1.063-.38-1.063-1.063V175.37c0-2.62-2.203-4.825-4.825-4.825s-4.863 2.204-4.863 4.787v12.805c0 .684-.532 1.063-1.063 1.063s-1.103-.38-1.103-1.063V175.37c0-2.62-2.203-4.825-4.787-4.825-2.66 0-4.863 2.204-4.863 4.787v12.805c0 .684-.57 1.063-1.063 1.063-.532 0-1.103-.38-1.103-1.063V170.09c0-.684.57-1.063 1.103-1.063.494 0 1.063.38 1.063 1.063v.23c1.254-1.216 2.964-1.938 4.825-1.938 2.432 0 4.598 1.216 5.928 3.23 1.254-1.937 3.42-3.23 5.89-3.23 3.95 0 7.03 3.116 7.03 6.953v12.805c0 .684-.57 1.063-1.103 1.063z"/><use xlink:href="#Ai" x="450.17"/><use xlink:href="#At" x="73.718"/><path d="M639.385 189.2h-1.178c-3 0-4.483-1.48-4.483-4.445V171.2h-1.937c-.684 0-1.063-.57-1.063-1.102 0-.494.38-1.063 1.063-1.063h1.938v-5.813c0-.684.57-1.063 1.103-1.063s1.063.38 1.063 1.063v5.813h3.495c.685 0 1.064.57 1.064 1.063 0 .532-.38 1.102-1.064 1.102H635.9v13.564c0 1.86.532 2.28 2.317 2.28h1.178c.685 0 1.064.57 1.064 1.103 0 .493-.38 1.063-1.064 1.063zm3.687-19.187c-.23.114-.38.2-.57.2-.646 0-1.063-.684-1.063-1.292 0-.836 2.165-1.025 2.165-3.457v-2.888c0-.722.532-1.14 1.064-1.14a1.11 1.11 0 0 1 1.102 1.14v2.888c0 .873-.418 3.305-2.697 4.56z"/><use xlink:href="#Aj" x="489.765"/><use xlink:href="#Ak" x="498.313"/><use xlink:href="#Ar" x="275.192"/><use xlink:href="#Aq" x="306.378"/><use xlink:href="#At" x="193.188"/><use xlink:href="#Aj" x="591.262"/><path d="M784.694 189.2h-1.178c-3 0-4.483-1.48-4.483-4.445V171.19h-1.937c-.684 0-1.063-.57-1.063-1.102 0-.494.38-1.063 1.063-1.063h1.938v-5.813c0-.684.57-1.063 1.103-1.063s1.063.38 1.063 1.063v5.813h3.495c.685 0 1.064.57 1.064 1.063 0 .532-.38 1.102-1.064 1.102H781.2v13.564c0 1.86.532 2.28 2.317 2.28h1.178c.685 0 1.064.57 1.064 1.103 0 .493-.38 1.063-1.064 1.063z"/><use xlink:href="#As" x="325.617"/><path d="M843.97 170.43l-6.193 17.857c-.266.722-.607.912-1.102.912-.646 0-.836-.228-1.064-.912l-4.977-14.817-4.978 14.817c-.266.722-.608.912-1.102.912s-.874-.304-1.064-.912l-6.155-17.857c-.037-.113-.075-.304-.075-.418 0-.607.607-.987 1.102-.987.38 0 .836.19.988.722l5.205 15.046 4.977-14.855c.23-.723.456-.912 1.103-.912.456 0 .836.15 1.063.912l5.054 14.855 5.13-15.046c.19-.532.57-.722.988-.722.57 0 1.178.38 1.178 1.025 0 .152-.038.267-.076.38z"/><use xlink:href="#Al" x="646.17"/><use xlink:href="#Am" x="646.169"/><use xlink:href="#An" x="604.942"/><use xlink:href="#Ao" x="541.521"/><use xlink:href="#Ap" x="519.558"/><use xlink:href="#Aq" x="519.548"/><path d="M968.45 170.43l-6.193 17.857c-.266.722-.607.912-1.102.912-.646 0-.836-.228-1.064-.912l-4.977-14.817-4.978 14.817c-.266.722-.608.912-1.102.912s-.874-.304-1.064-.912l-6.154-17.857c-.038-.113-.076-.304-.076-.418 0-.607.607-.987 1.102-.987.38 0 .836.19.988.722l5.205 15.046 4.977-14.855c.23-.723.456-.912 1.103-.912.456 0 .836.15 1.063.912l5.054 14.855 5.13-15.046c.19-.532.57-.722.987-.722.57 0 1.18.38 1.18 1.025 0 .152-.038.267-.076.38z"/></g><defs ><path id="C" d="M91.56 409.417c31.754 0 57.495 25.742 57.495 57.495s-25.742 57.495-57.495 57.495-57.495-25.742-57.495-57.495 25.74-57.495 57.495-57.495"/><path id="D" d="M450.312 409.417c-31.754 0-57.495 25.742-57.495 57.495s25.742 57.495 57.495 57.495 57.495-25.742 57.495-57.495-25.742-57.495-57.495-57.495z"/><path id="E" d="M809.064 409.417c-31.754 0-57.495 25.742-57.495 57.495s25.742 57.495 57.495 57.495 57.495-25.742 57.495-57.495-25.74-57.495-57.495-57.495z"/><path id="F" d="M181.248 423.27c24.065 0 43.644 19.58 43.644 43.644s-19.58 43.644-43.644 43.644-43.644-19.58-43.644-43.644 19.58-43.644 43.644-43.644"/><path id="G" d="M270.936 424.24c23.53 0 42.674 19.143 42.674 42.674s-19.144 42.674-42.674 42.674-42.674-19.143-42.674-42.674 19.144-42.674 42.674-42.674m0-2c-24.673 0-44.674 20-44.674 44.674s20 44.674 44.674 44.674 44.674-20 44.674-44.674-20-44.674-44.674-44.674z"/><path id="H" d="M360.624 424.24c23.53 0 42.674 19.143 42.674 42.674s-19.144 42.674-42.674 42.674-42.674-19.143-42.674-42.674 19.144-42.674 42.674-42.674m0-2c-24.672 0-44.674 20-44.674 44.674s20 44.674 44.674 44.674 44.674-20 44.674-44.674-20-44.674-44.674-44.674z"/><path id="I" d="M59.238 643.72c.168-3.053 2.1-4.704 5.04-4.704 2.912 0 4.564 1.344 4.564 4.088v9.66c0 .476.11 1.092.195 1.596h-2.996c-.027-.42-.14-.812-.168-1.176-1.176.952-2.155 1.456-3.668 1.456-2.128 0-3.19-1.456-3.19-3.39 0-3.304 2.184-5.124 6.69-6.832v-.896c0-1.26-.504-1.932-1.54-1.932-1.428 0-1.735.84-1.792 2.128h-3.136zm6.468 2.996c-2.855 1.624-3.556 2.66-3.556 3.976 0 .98.504 1.372 1.456 1.372.868 0 1.568-.645 2.1-1.4v-3.947z"/><path id="J" d="M89.813 644.614c0-3.304 1.288-5.6 4.872-5.6s4.872 2.296 4.872 5.6v4.424c0 3.305-1.288 5.6-4.872 5.6s-4.872-2.296-4.872-5.6v-4.424zm6.608-.56c0-1.736-.616-2.464-1.736-2.464s-1.735.728-1.735 2.464v5.544c0 1.735.615 2.464 1.735 2.464s1.736-.73 1.736-2.464v-5.544z"/><path id="K" d="M101.853 654.358v-15.063h2.996v1.764h.057c.756-1.288 2.07-2.044 3.556-2.044h.644v3.275c-.56-.14-1.092-.308-2.016-.308-1.064 0-2.1.672-2.1 2.016v10.36h-3.137z"/><path id="L" d="M110.616 654.358v-15.063h2.968v1.512c1.316-1.12 1.988-1.792 3.81-1.792 1.652 0 2.632 1.204 2.632 3.164v12.18h-3.136v-11.676c0-.756-.448-1.092-1.12-1.092s-1.288.42-2.016.95v11.816h-3.137z"/><path id="M" d="M122.516 636.998v-2.855h3.136v2.855h-3.136zm0 17.36v-15.063h3.136v15.063h-3.136z"/><path id="N" d="M617.9 721.58c0-3.304 1.288-5.6 4.872-5.6s4.872 2.296 4.872 5.6v4.424c0 3.305-1.288 5.6-4.872 5.6s-4.872-2.296-4.872-5.6v-4.424zm6.608-.56c0-1.736-.616-2.464-1.736-2.464s-1.736.728-1.736 2.464v5.544c0 1.735.616 2.464 1.736 2.464s1.736-.73 1.736-2.464v-5.544z"/><path id="O" d="M984.635 453.537c0-3.304 1.288-5.6 4.872-5.6s4.872 2.296 4.872 5.6v4.424c0 3.304-1.288 5.6-4.872 5.6s-4.872-2.296-4.872-5.6v-4.424zm6.608-.56c0-1.736-.616-2.464-1.736-2.464s-1.735.728-1.735 2.464v5.544c0 1.736.615 2.464 1.735 2.464s1.736-.728 1.736-2.464v-5.544z"/><path id="P" d="M1018.122 456.337h-6.608v2.184c0 1.736.616 2.464 1.736 2.464s1.736-.728 1.736-2.464v-.336h3.136c-.056 3.192-1.372 5.376-4.872 5.376-3.584 0-4.872-2.296-4.872-5.6v-4.424c0-3.304 1.288-5.6 4.872-5.6s4.872 2.296 4.872 5.6v2.8zm-3.136-2.576v-.784c0-1.736-.616-2.464-1.736-2.464s-1.736.728-1.736 2.464v.784h3.473z"/><path id="Q" d="M973.477 477.152c-.224-1.204-.783-1.876-1.792-1.876-.812 0-1.372.42-1.372 1.204 0 2.352 5.88 3.304 5.88 7.784 0 2.688-1.85 4.06-4.396 4.06-2.744 0-4.312-1.568-4.788-4.2l2.744-.756c.196 1.26.644 2.38 2.072 2.38.812 0 1.4-.476 1.4-1.316 0-2.604-5.88-3.584-5.88-7.7 0-2.38 1.85-4.032 4.2-4.032 2.464 0 4.116 1.652 4.592 4.004l-2.66.448z"/><path id="R" d="M822.83 465.918c0-3.304 1.288-5.6 4.872-5.6s4.872 2.296 4.872 5.6v4.424c0 3.304-1.288 5.6-4.872 5.6s-4.872-2.296-4.872-5.6v-4.424zm6.608-.56c0-1.736-.616-2.464-1.736-2.464s-1.736.728-1.736 2.464v5.544c0 1.736.616 2.464 1.736 2.464s1.736-.728 1.736-2.464v-5.544z"/><path id="S" d="M424.47 475.663V460.6h2.97v1.512c1.315-1.12 1.987-1.792 3.808-1.792 1.652 0 2.632 1.204 2.632 3.164v12.18h-3.136v-11.676c0-.756-.448-1.092-1.12-1.092s-1.288.42-2.016.952v11.816h-3.137z"/><path id="T" d="M481.058 463.175V460.6h1.735v-4.06h3.137v4.06h2.1v2.576h-2.1v8.68c0 .784.336 1.232 1.063 1.232h1.036v2.688c-.42.112-.784.168-1.568.168-2.352 0-3.668-1.092-3.668-3.388v-9.38h-1.735z"/><path id="U" d="M870.116 565.01v-15.063h2.85v1.512c1.264-1.12 1.91-1.792 3.656-1.792 1.587 0 2.527 1.204 2.527 3.164v12.18h-3.01v-11.676c0-.756-.43-1.092-1.076-1.092s-1.236.42-1.936.95v11.816h-3.01z"/><path id="V" d="M908.877 555.1v-.392c0-1.736-.592-2.464-1.667-2.464s-1.667.728-1.667 2.464v5.544c0 1.735.592 2.464 1.667 2.464s1.667-.73 1.667-2.464v-.952h3.01v.392c0 3.305-1.236 5.6-4.678 5.6s-4.68-2.296-4.68-5.6v-4.424c0-3.304 1.237-5.6 4.68-5.6 3.388 0 4.624 2.212 4.678 5.432h-3.01z"/><path id="W" d="M912.37 552.522v-2.575h1.667v-4.06h3.012v4.06h2.017v2.575h-2.017v8.68c0 .783.322 1.23 1.02 1.23h.995v2.688c-.403.11-.753.168-1.506.168-2.26 0-3.522-1.092-3.522-3.39v-9.38h-1.667z"/><path id="X" d="M350.684 915.218v.608c0 2.667.608 3.55 2.036 3.55 1.155 0 1.638-1.07 1.827-2.058l1.428.168c-.23 1.638-1.47 3.15-3.465 3.15-2.29 0-3.338-1.722-3.338-5.67s1.05-5.67 3.338-5.67c2.3 0 3.338 2.058 3.338 5.207v.714h-5.164zm3.652-1.26c-.04-2.352-.46-3.4-1.826-3.4-1.092 0-1.806.798-1.826 3.4h3.652z"/><path id="Y" d="M356.205 909.507h1.555l1.805 3.82 1.596-3.82h1.555l-2.352 5.25 2.77 5.67h-1.555l-1.973-4.283-1.848 4.283h-1.555l2.52-5.67-2.52-5.25z"/><path id="Z" d="M364.06 912.488c.294-1.722 1.302-3.19 3.233-3.19 2.016 0 3.13 1.176 3.13 3.107v6.09c0 .966.104 1.68.272 1.932h-1.575l-.188-.924c-.588.588-1.638 1.134-2.33 1.134-1.7 0-2.834-1.092-2.834-2.813 0-2.687 2.96-4.052 5.145-4.535v-.776c0-1.197-.61-1.953-1.575-1.953-1.155 0-1.722 1.154-1.9 2.142l-1.386-.2zm4.85 2.058c-1.387.42-3.633 1.428-3.633 3.15 0 1.03.462 1.68 1.554 1.68.82 0 1.532-.566 2.08-1.134v-3.695z"/><path id="a" d="M377.414 912.278c-.273-.944-.672-1.722-1.9-1.722-.714 0-1.218.566-1.218 1.302 0 2.226 4.62 2.352 4.62 5.753 0 1.722-1.26 3.023-2.98 3.023-1.974 0-2.96-1.07-3.485-2.897l1.386-.294c.315.966.882 1.932 1.995 1.932.818 0 1.574-.756 1.574-1.658 0-2.52-4.62-2.562-4.62-5.774 0-1.428 1.176-2.646 2.834-2.646 1.68 0 2.688.966 3.045 2.604l-1.26.378z"/><path id="b" d="M185.11 730.6c2.29 0 3.338 1.722 3.338 5.67s-1.05 5.67-3.338 5.67-3.338-1.722-3.338-5.67 1.05-5.67 3.338-5.67zm0 10.078c1.28 0 1.826-.798 1.826-4.41s-.545-4.41-1.826-4.41-1.826.798-1.826 4.41.545 4.41 1.826 4.41z"/><path id="c" d="M198.993 733.792c.294-1.722 1.302-3.19 3.233-3.19 2.016 0 3.13 1.176 3.13 3.107v6.09c0 .966.104 1.68.272 1.932h-1.575l-.188-.924c-.588.588-1.638 1.134-2.33 1.134-1.7 0-2.834-1.092-2.834-2.813 0-2.687 2.96-4.053 5.145-4.535v-.777c0-1.196-.61-1.952-1.575-1.952-1.155 0-1.722 1.155-1.9 2.142l-1.386-.2zm4.85 2.058c-1.387.42-3.633 1.428-3.633 3.15 0 1.028.462 1.68 1.554 1.68.82 0 1.532-.567 2.08-1.134v-3.695z"/><path id="d" d="M337.033 815.918h1.512v9.574h.042l2.897-5.333h1.554l-2.016 3.485 2.52 7.433h-1.554l-1.974-5.92h-.042l-1.428 2.688v3.233h-1.512v-15.16z"/><path id="e" d="M344.97 815.918h1.512v15.16h-1.512v-15.16z"/><path id="f" d="M358.054 815.918h1.512v5.438c.63-.734 1.68-1.406 2.394-1.406 1.512 0 2.394.84 2.394 2.855v8.272h-1.512v-8.062c0-1.26-.378-1.806-1.196-1.806-.735 0-1.407.504-2.08 1.344v8.524h-1.512v-15.16z"/><path id="g" d="M369.52 819.95c2.288 0 3.34 1.722 3.34 5.67s-1.05 5.67-3.34 5.67-3.34-1.722-3.34-5.67 1.05-5.67 3.34-5.67zm0 10.078c1.28 0 1.827-.798 1.827-4.41s-.547-4.41-1.827-4.41-1.827.798-1.827 4.41.547 4.41 1.827 4.41z"/><path id="h" d="M174.846 641.463h1.47V637.8h1.512v3.653h2.016v1.26h-2.016v7.643c0 .63.336 1.092 1.092 1.092.294 0 .672-.126.924-.2v1.134a4.46 4.46 0 0 1-1.428.21c-1.428 0-2.1-.672-2.1-2.352v-7.517h-1.47v-1.26z"/><path id="i" d="M260.134 716.213l3.905 11.17h.042v-11.17h1.638v15.16h-1.764l-4.703-13.186h-.042v13.186h-1.638v-15.16h2.562z"/><path id="j" d="M268.723 726.165v.61c0 2.666.61 3.548 2.037 3.548 1.154 0 1.638-1.07 1.826-2.058l1.428.168c-.23 1.638-1.47 3.15-3.464 3.15-2.288 0-3.34-1.722-3.34-5.67s1.05-5.67 3.34-5.67c2.3 0 3.34 2.058 3.34 5.207v.714h-5.166zm3.654-1.26c-.043-2.352-.463-3.4-1.827-3.4-1.092 0-1.806.798-1.827 3.4h3.654z"/><path id="k" d="M276.03 720.454l1.554 8.02h.042l1.764-8.02h1.428l1.806 8.02h.042l1.428-8.02h1.428l-2.268 10.918h-1.26l-1.9-8.482h-.042l-1.9 8.482h-1.26l-2.3-10.918h1.428z"/><path id="l" d="M251.482 736.926l2.646 11.464h.042l2.583-11.464h2.604v15.16h-1.512v-13.9h-.043l-3.148 13.9h-1.07l-3.15-13.9h-.042v13.9h-1.512v-15.16h2.604z"/><path id="m" d="M284.472 744.4c-.147-1.638-.798-2.184-1.722-2.184-1.28 0-1.826.798-1.826 4.41s.545 4.41 1.826 4.41c.966 0 1.512-.504 1.764-2.394h1.47c-.252 2.142-1.26 3.653-3.233 3.653-2.29 0-3.338-1.722-3.338-5.67s1.05-5.67 3.338-5.67c1.974 0 2.897 1.302 3.19 3.443h-1.47z"/><path id="n" d="M337.883 726.57v7.727h.042l4.24-7.727h1.764l-2.94 5.29 3.485 9.868h-1.764l-2.813-8.188h-.042l-1.974 3.527v4.66h-1.638v-15.16h1.638z"/><path id="o" d="M354.39 730.81h1.428v1.197c.714-.735 1.764-1.407 2.478-1.407 1.512 0 2.394.84 2.394 2.855v8.272h-1.512v-8.062c0-1.26-.378-1.806-1.197-1.806-.734 0-1.406.504-2.078 1.344v8.524h-1.512V730.81z"/><path id="p" d="M367.533 733.582c-.273-.945-.672-1.722-1.9-1.722-.714 0-1.218.567-1.218 1.302 0 2.226 4.62 2.352 4.62 5.753 0 1.722-1.26 3.023-2.98 3.023-1.974 0-2.96-1.07-3.485-2.897l1.386-.294c.315.966.882 1.932 1.995 1.932.818 0 1.574-.756 1.574-1.66 0-2.52-4.62-2.56-4.62-5.773 0-1.428 1.176-2.646 2.834-2.646 1.68 0 2.688.966 3.045 2.604l-1.26.378z"/><path id="q" d="M365.257 452.41h1.47v-3.653h1.512v3.653h2.016v1.26h-2.016v7.643c0 .63.336 1.092 1.092 1.092.294 0 .672-.126.924-.2v1.134a4.46 4.46 0 0 1-1.428.21c-1.428 0-2.1-.672-2.1-2.352v-7.517h-1.47v-1.26z"/><path id="r" d="M347.607 476.105c.294-1.722 1.302-3.19 3.233-3.19 2.016 0 3.13 1.176 3.13 3.107v6.09c0 .966.104 1.68.272 1.932h-1.575l-.188-.924c-.588.588-1.638 1.134-2.33 1.134-1.7 0-2.834-1.092-2.834-2.813 0-2.687 2.96-4.052 5.145-4.535v-.777c0-1.197-.61-1.953-1.575-1.953-1.155 0-1.722 1.155-1.9 2.142l-1.386-.2zm4.85 2.058c-1.387.42-3.633 1.428-3.633 3.15 0 1.03.462 1.68 1.554 1.68.82 0 1.532-.567 2.08-1.134v-3.695z"/><path id="s" d="M377.426 476.105c.294-1.722 1.302-3.19 3.233-3.19 2.016 0 3.128 1.176 3.128 3.107v6.09c0 .966.105 1.68.273 1.932h-1.574l-.19-.924c-.588.588-1.638 1.134-2.33 1.134-1.7 0-2.835-1.092-2.835-2.813 0-2.687 2.96-4.052 5.144-4.535v-.777c0-1.197-.608-1.953-1.574-1.953-1.154 0-1.722 1.155-1.9 2.142l-1.386-.2zm4.85 2.058c-1.385.42-3.632 1.428-3.632 3.15 0 1.03.462 1.68 1.554 1.68.818 0 1.533-.567 2.078-1.134v-3.695z"/><path id="t" d="M285.238 462.767h1.428v1.197c.714-.735 1.764-1.407 2.478-1.407 1.512 0 2.394.84 2.394 2.855v8.272h-1.512v-8.062c0-1.26-.378-1.806-1.197-1.806-.734 0-1.406.504-2.078 1.344v8.524h-1.512v-10.918z"/><path id="u" d="M271.747 641.463h1.512v1.323h.042c.902-1.323 1.574-1.533 2.77-1.533v1.428c-1.134 0-1.994.378-2.813 1.932v7.77h-1.512v-10.918z"/><path id="v" d="M291.13 651.33h-.043c-.524.777-1.28 1.26-2.246 1.26-1.722 0-3.15-1.47-3.15-5.67s1.428-5.67 3.15-5.67c.818 0 1.512.504 2.016 1.008v-5.04h1.512v12.22c0 1.428.084 2.3.252 2.94h-1.428l-.062-1.05zm-.273-7.853c-.44-.44-.966-.966-1.638-.966-1.28 0-2.016 1.05-2.016 4.41s.798 4.41 2.058 4.41c.462 0 1.134-.42 1.596-1.05v-6.803z"/><path id="w" d="M356.018 641.463h1.512v1.323h.042c.903-1.323 1.575-1.533 2.77-1.533v1.428c-1.134 0-1.995.378-2.813 1.932v7.77h-1.512v-10.918z"/><path id="x" d="M361.352 644.444c.294-1.722 1.302-3.19 3.233-3.19 2.016 0 3.128 1.176 3.128 3.107v6.09c0 .966.105 1.68.273 1.932h-1.574l-.19-.924c-.588.588-1.638 1.134-2.33 1.134-1.7 0-2.835-1.092-2.835-2.813 0-2.687 2.96-4.052 5.144-4.535v-.776c0-1.197-.608-1.953-1.574-1.953-1.154 0-1.722 1.154-1.9 2.142l-1.386-.2zm4.85 2.058c-1.385.42-3.632 1.428-3.632 3.15 0 1.03.462 1.68 1.554 1.68.818 0 1.533-.566 2.078-1.134v-3.695z"/><path id="y" d="M185.46 458.526h1.512v5.438c.63-.735 1.68-1.407 2.394-1.407 1.512 0 2.394.84 2.394 2.855v8.272h-1.512v-8.062c0-1.26-.378-1.806-1.197-1.806-.734 0-1.406.504-2.078 1.344v8.524h-1.512v-15.16z"/><path id="z" d="M281.647 547.874h1.512v1.764h-1.512v-1.764zm0 4.24h1.512v10.918h-1.512v-10.918z"/><path id="AA" d="M365.15 552.677h-1.428v-1.197c-.714.735-1.764 1.407-2.478 1.407-1.512 0-2.394-.84-2.394-2.855v-8.272h1.512v8.063c0 1.26.378 1.806 1.197 1.806.734 0 1.406-.504 2.078-1.344v-8.524h1.512v10.918z"/><path id="AB" d="M347.608 565.453c.294-1.722 1.302-3.19 3.233-3.19 2.016 0 3.128 1.176 3.128 3.107v6.09c0 .966.105 1.68.273 1.932h-1.574l-.19-.924c-.588.588-1.638 1.134-2.33 1.134-1.7 0-2.835-1.092-2.835-2.813 0-2.687 2.96-4.053 5.144-4.535v-.777c0-1.196-.608-1.952-1.574-1.952-1.154 0-1.722 1.155-1.9 2.142l-1.386-.2zm4.85 2.058c-1.385.42-3.632 1.428-3.632 3.15 0 1.028.462 1.68 1.554 1.68.818 0 1.533-.567 2.078-1.134v-3.695z"/><path id="AC" d="M439.95 831.077h-1.428v-1.196c-.714.734-1.764 1.406-2.478 1.406-1.512 0-2.394-.84-2.394-2.855v-8.272h1.512v8.063c0 1.26.378 1.806 1.197 1.806.734 0 1.406-.504 2.078-1.344v-8.524h1.512v10.918z"/><path id="AD" d="M442.62 815.918h1.512v1.764h-1.512v-1.764zm0 4.24h1.512v10.918h-1.512V820.16z"/><path id="AE" d="M451.038 822.93c-.272-.944-.672-1.722-1.9-1.722-.714 0-1.218.566-1.218 1.302 0 2.226 4.62 2.352 4.62 5.753 0 1.722-1.26 3.023-2.98 3.023-1.974 0-2.96-1.07-3.485-2.897l1.386-.294c.314.966.882 1.932 1.994 1.932.82 0 1.575-.756 1.575-1.658 0-2.52-4.62-2.562-4.62-5.774 0-1.428 1.176-2.646 2.835-2.646 1.68 0 2.688.966 3.044 2.604l-1.26.378z"/><path id="AF" d="M423.97 726.57l3.34 15.16h-1.64l-.902-4.493h-3.863l-.902 4.493h-1.64l3.34-15.16h2.268zm-2.835 9.28h3.402l-1.68-8.146h-.043l-1.68 8.146z"/><path id="AG" d="M463.806 733.582c-.272-.945-.672-1.722-1.9-1.722-.714 0-1.218.567-1.218 1.302 0 2.226 4.62 2.352 4.62 5.753 0 1.722-1.26 3.023-2.98 3.023-1.974 0-2.96-1.07-3.485-2.897l1.386-.294c.314.966.882 1.932 1.994 1.932.82 0 1.575-.756 1.575-1.66 0-2.52-4.62-2.56-4.62-5.773 0-1.428 1.176-2.646 2.835-2.646 1.68 0 2.688.966 3.044 2.604l-1.26.378z"/><path id="AH" d="M527.56 376.19c-.272-.945-.672-1.722-1.9-1.722-.714 0-1.218.567-1.218 1.302 0 2.226 4.62 2.352 4.62 5.753 0 1.722-1.26 3.023-2.98 3.023-1.974 0-2.96-1.07-3.485-2.897l1.386-.294c.314.966.882 1.932 1.994 1.932.82 0 1.575-.756 1.575-1.66 0-2.52-4.62-2.562-4.62-5.774 0-1.428 1.176-2.646 2.835-2.646 1.68 0 2.688.966 3.044 2.604l-1.26.378z"/><path id="AI" d="M546.565 373.42h1.428v1.197c.714-.735 1.764-1.407 2.478-1.407 1.512 0 2.394.84 2.394 2.855v8.272h-1.512v-8.062c0-1.26-.378-1.806-1.196-1.806-.735 0-1.407.504-2.08 1.344v8.524h-1.512V373.42z"/><path id="AJ" d="M519.996 647.174v.608c0 2.667.61 3.55 2.037 3.55 1.154 0 1.638-1.07 1.826-2.058l1.428.168c-.23 1.638-1.47 3.15-3.464 3.15-2.288 0-3.34-1.722-3.34-5.67s1.05-5.67 3.34-5.67c2.3 0 3.34 2.058 3.34 5.207v.714h-5.166zm3.654-1.26c-.043-2.352-.463-3.4-1.827-3.4-1.092 0-1.806.798-1.827 3.4h3.654z"/><path id="AK" d="M627.496 636.817v.61c0 2.666.608 3.548 2.036 3.548 1.155 0 1.638-1.07 1.827-2.058l1.428.168c-.23 1.638-1.47 3.15-3.465 3.15-2.29 0-3.338-1.722-3.338-5.67s1.05-5.67 3.338-5.67c2.3 0 3.338 2.058 3.338 5.207v.714h-5.164zm3.652-1.26c-.04-2.352-.46-3.4-1.826-3.4-1.092 0-1.806.798-1.826 3.4h3.652z"/><path id="AL" d="M613.102 647.578h1.512v1.764h-1.512v-1.764zm0 4.24h1.512v10.918h-1.512V651.82z"/><path id="AM" d="M821.31 919.375h-.04c-.525.777-1.28 1.26-2.247 1.26-1.722 0-3.15-1.47-3.15-5.67s1.428-5.67 3.15-5.67c.82 0 1.512.504 2.016 1.008v-5.04h1.512v12.22c0 1.428.084 2.3.252 2.94h-1.428l-.063-1.05zm-.272-7.853c-.44-.44-.966-.966-1.638-.966-1.28 0-2.016 1.05-2.016 4.41s.798 4.41 2.058 4.41c.462 0 1.134-.42 1.596-1.05v-6.803z"/><path id="AN" d="M559.94 821.21h.042c.504-.777 1.26-1.26 2.226-1.26 1.722 0 3.15 1.47 3.15 5.67s-1.428 5.67-3.15 5.67c-.818 0-1.512-.504-2.016-1.008v4.367h-1.512V820.16h1.26v1.05zm.252 7.853c.44.44.966.966 1.638.966 1.28 0 2.016-1.05 2.016-4.41s-.798-4.41-2.058-4.41c-.462 0-1.134.42-1.596 1.05v6.803z"/><path id="AO" d="M805.267 641.463l2.058 8.356h.042l1.68-8.356h1.554l-2.498 10.687c-.567 2.395-1.617 3.8-3.443 3.8h-.777v-1.26h.462c1.196 0 1.974-.86 2.268-2.394l-2.897-10.834h1.554z"/><path id="AP" d="M702.9 552.115h1.343v1.197c.67-.735 1.658-1.407 2.33-1.407 1.422 0 2.25.84 2.25 2.855v8.272h-1.42v-8.062c0-1.26-.355-1.806-1.126-1.806-.69 0-1.322.504-1.955 1.344v8.524h-1.42v-10.918z"/><path id="AQ" d="M733.83 555.097c.276-1.722 1.224-3.19 3.04-3.19 1.896 0 2.942 1.176 2.942 3.107v6.09c0 .966.1 1.68.257 1.932h-1.48l-.178-.924c-.553.588-1.54 1.134-2.19 1.134-1.6 0-2.665-1.092-2.665-2.813 0-2.687 2.783-4.053 4.837-4.535v-.777c0-1.196-.572-1.952-1.48-1.952-1.086 0-1.62 1.155-1.777 2.142l-1.303-.2zm4.56 2.058c-1.303.42-3.416 1.428-3.416 3.15 0 1.028.435 1.68 1.46 1.68.77 0 1.44-.567 1.955-1.134v-3.695z"/><path id="AR" d="M104.714 1045.51c-.633 0-1.267-.367-1.4-1.1-1.334 1.034-2.97 1.668-4.804 1.668-4.136 0-7.604-3.436-7.604-7.605v-9.24a1.37 1.37 0 0 1 1.4-1.435c.768 0 1.468.5 1.468 1.4v9.272c0 2.602 2.168 4.77 4.736 4.77 2.603 0 4.77-2.17 4.77-4.77v-9.24c0-1.034.667-1.468 1.4-1.468.768 0 1.435.5 1.435 1.435v14.9c0 .934-.667 1.4-1.4 1.4z"/><path id="AS" d="M819.924 1046.357c-1.2 0-3.22-.42-3.92-1.58-.08-.12-.08-.22-.08-.3 0-.32.28-.602.58-.602.12 0 .32.102.44.28.72.88 2 1.06 2.98 1.06 1.94 0 2.92-.64 2.92-1.94 0-3.02-6.562-1.42-6.562-5.422 0-2.02 2.02-2.8 3.84-2.8 1.04 0 2.64.36 3.44 1.16.12.12.18.26.18.38a.65.65 0 0 1-.62.6c-.12 0-.26-.04-.38-.16-.62-.6-1.74-.84-2.62-.84-1.76 0-2.7.682-2.7 1.66 0 2.8 6.562 1.32 6.562 5.422 0 2.28-2 3.08-4.06 3.08z"/><path id="AT" d="M854.384 1036.336a3.42 3.42 0 0 0-3.421 3.42v5.662c0 .36-.3.56-.56.56-.28 0-.58-.2-.58-.56v-9.502c0-.36.3-.56.58-.56.26 0 .56.2.56.56v.82c.9-.98 2.08-1.54 3.42-1.54.36 0 .58.3.58.56a.58.58 0 0 1-.58.58z"/><path id="AU" d="M864.565 1044.797c-.88.98-2.1 1.52-3.58 1.52-3.22 0-5.02-2.64-5.02-5.662 0-3 1.8-5.64 5.02-5.64 1.48 0 2.7.54 3.58 1.52.12.12.16.262.16.38 0 .3-.28.6-.58.6-.14 0-.28-.06-.42-.2-.66-.74-1.58-1.16-2.74-1.16-2.36 0-3.88 1.9-3.88 4.5s1.52 4.52 3.88 4.52c1.16 0 2.08-.44 2.74-1.16.14-.14.28-.2.42-.2.3 0 .58.26.58.58 0 .14-.04.26-.16.398z"/><path id="AV" d="M876.145 1041.236h-8.302c.18 2.28 1.66 3.94 3.84 3.94 1.08 0 2.36-.48 2.94-1.38.14-.22.3-.28.48-.28.3 0 .62.24.62.54 0 .18 0 .22-.38.658-.92 1.082-2.26 1.602-3.66 1.602-3.22 0-5.02-2.64-5.02-5.662 0-3 1.8-5.64 5.02-5.64s5.02 2.66 5.02 5.64c0 .3-.28.58-.56.58zm-4.46-5.08c-2.4 0-3.66 1.84-3.84 3.94h7.7c-.18-2.28-1.66-3.94-3.86-3.94z"/><path id="AW" d="M980.598 1046.098c-1.08 0-1.98-1-1.98-2.12v-11.684c0-.36.3-.56.58-.56.26 0 .56.2.56.56v11.684c0 1.28 1.42.54 1.42 1.44 0 .34-.24.68-.58.68z"/><path id="AX" d="M250.155 42.382h-9.96v35.1c0 1.62-1.2 2.52-2.52 2.52-1.26 0-2.58-.9-2.58-2.52v-35.1h-9.84c-1.74 0-2.64-1.32-2.64-2.58 0-1.2.9-2.52 2.58-2.52h24.96c1.68 0 2.58 1.32 2.58 2.52 0 1.26-.9 2.58-2.58 2.58z"/><path id="AY" d="M277.207 66.68h-22.2c.84 5.64 4.44 9.24 9.72 9.24 2.7 0 5.4-.96 7.14-3.12.54-.6 1.14-.96 1.86-.96 1.32 0 2.7 1.2 2.7 2.64 0 .72-.18 1.26-1.44 2.52-2.7 2.64-6.42 4.02-10.26 4.02-9.66 0-15.06-7.98-15.06-16.98 0-8.94 5.4-16.92 15.06-16.92 9.78 0 15 7.98 15 16.92 0 1.32-.96 2.64-2.52 2.64zm-12.48-14.46c-5.64 0-8.94 4.14-9.72 9.3h19.44c-.84-5.76-4.44-9.3-9.72-9.3z"/><path id="AZ" d="M308.588 80c-1.32 0-2.52-.9-2.52-2.52V60.8c0-4.68-3.9-8.58-8.58-8.58-4.62 0-8.52 3.9-8.52 8.58v16.62c0 1.68-1.26 2.64-2.64 2.64-1.26 0-2.52-.9-2.52-2.58v-26.82c0-1.74 1.26-2.52 2.52-2.52 1.2 0 2.28.66 2.58 1.98 2.34-1.86 5.28-3 8.58-3 7.44 0 13.68 6.18 13.68 13.68v16.62c0 1.68-1.2 2.58-2.58 2.58z"/><path id="Aa" d="M376.807 81.02c-4.38 0-10.5-1.8-13.92-4.98-.66-.6-.84-1.26-.84-1.86 0-1.38 1.14-2.58 2.58-2.58.9 0 1.2.3 2.28 1.14 2.94 2.22 6.42 3.18 9.9 3.18 7.14 0 10.26-2.58 10.26-7.02 0-12.48-23.94-5.4-23.94-21.72 0-7.32 6.18-10.98 14.1-10.98 4.14 0 10.08 1.62 13.02 5.1.48.54.66 1.08.66 1.62 0 1.44-1.32 2.7-2.58 2.7-.9 0-1.38-.42-2.4-1.32-2.4-2.04-5.46-2.94-8.7-2.94-6.48 0-8.94 2.58-8.94 5.82 0 11.22 23.938 4.56 23.938 21.72 0 8.94-7.5 12.12-15.42 12.12z"/><path id="Ab" d="M449.346 80h-1.02c-5.7 0-7.86-3-7.86-7.92v-18.84h-1.8c-1.44 0-2.58-1.14-2.58-2.52 0-1.44 1.14-2.58 2.52-2.58h1.8v-8.34c0-1.68 1.26-2.52 2.58-2.52s2.52.84 2.52 2.52v8.34h3.84c1.68 0 2.52 1.38 2.52 2.52 0 1.44-.96 2.58-2.52 2.58h-3.84v19.38c0 1.68.6 2.28 2.28 2.28h1.5c1.56 0 2.58 1.14 2.58 2.52 0 1.44-.96 2.58-2.52 2.58z"/><path id="Ac" d="M484.444 80c-3.3 0-4.8-2.34-5.34-3.42-2.4 2.64-5.88 4.44-10.56 4.44-9.78 0-15.06-8.04-15.06-16.98s5.398-16.92 15.06-16.92c4.2 0 7.56 1.5 9.9 3.96v-.24c0-.66.24-2.7 2.52-2.7 1.26 0 2.64.66 2.64 2.52v23.16c0 .78.54 1.08.84 1.08 1.68 0 2.58 1.2 2.58 2.58 0 1.26-.9 2.52-2.58 2.52zm-15.9-27.78c-6 0-9.9 4.68-9.9 11.82 0 7.2 3.9 11.88 9.9 11.88 6.06 0 9.9-4.68 9.9-11.88 0-7.14-3.84-11.82-9.9-11.82z"/><path id="Ad" d="M548.643 81.02c-3.3 0-8.82-1.02-11.64-4.5-.36-.54-.54-1.08-.54-1.56 0-1.5 1.44-2.7 2.7-2.7.72 0 1.26.36 1.86 1.02 1.86 2.04 4.92 2.64 7.62 2.64 5.4 0 7.14-1.86 7.14-4.56 0-7.68-18.3-2.94-18.3-15.3 0-6.54 6.12-8.94 11.82-8.94 3.24 0 10.86 1.62 10.86 4.98 0 1.32-1.08 2.7-2.52 2.7-.54 0-1.38-.3-1.98-.78-1.62-1.38-3.96-1.8-6.36-1.8-4.98 0-6.72 1.86-6.72 3.84 0 7.14 18.36 2.52 18.36 15.3 0 7.08-5.94 9.66-12.3 9.66z"/><path id="Ae" d="M607.2 80c-.9 0-1.8-.48-2.28-1.56l-3.18-7.8h-19.98l-3.24 7.8c-.48 1.08-1.38 1.56-2.22 1.56-1.32 0-2.7-1.02-2.7-2.52 0-.36.06-.72.24-1.02l15.42-37.498c.72-1.56 1.68-1.86 2.46-1.86.54 0 1.86.3 2.46 1.86l15.48 37.498c.12.3.18.66.18 1.02 0 1.5-1.26 2.52-2.64 2.52zm-15.48-33.6l-7.86 19.08h15.72l-7.86-19.08z"/><path id="Af" d="M627.36 52.222c-4.62 0-8.52 3.9-8.52 8.58v16.62c0 1.68-1.26 2.58-2.64 2.58-1.26 0-2.52-.9-2.52-2.52v-26.76c0-1.68 1.38-2.58 2.52-2.58 1.2 0 2.34.66 2.58 2.04a13.88 13.88 0 0 1 8.579-3.06c1.74 0 2.64 1.2 2.64 2.58 0 1.32-.9 2.52-2.64 2.52z"/><path id="Ag" d="M746.867 43.282a4.3 4.3 0 1 1 0-8.64 4.3 4.3 0 1 1 0 8.64zm0 36.72c-1.32 0-2.64-.9-2.64-2.52v-26.76c0-1.68 1.32-2.58 2.64-2.58 1.26 0 2.52.9 2.52 2.58v26.76c0 1.68-1.26 2.52-2.52 2.52z"/><path id="Ah" d="M761.387 80.12c-3.24 0-6-2.76-6-6.12V39.862c0-1.74 1.26-2.58 2.58-2.58s2.58.84 2.58 2.52V74c0 .72.54 1.02.84 1.02 1.68 0 2.58 1.2 2.58 2.58 0 1.32-.9 2.52-2.58 2.52z"/><path id="Ai" d="M155.812 180.196h-15.768c.342 4.332 3.153 7.485 7.295 7.485 2.052 0 4.483-.912 5.585-2.622.267-.418.57-.53.912-.53.57 0 1.178.455 1.178 1.025 0 .342 0 .418-.722 1.254-1.748 2.052-4.293 3.04-6.953 3.04-6.117 0-9.536-5.015-9.536-10.752 0-5.7 3.42-10.715 9.536-10.715s9.537 5.054 9.537 10.715c0 .57-.532 1.102-1.064 1.102zm-8.473-9.65c-4.56 0-6.953 3.495-7.295 7.485h14.628c-.342-4.332-3.153-7.485-7.333-7.485z"/><path id="Aj" d="M166.985 189.922c-2.28 0-6.117-.798-7.447-3-.15-.23-.15-.418-.15-.57 0-.607.53-1.14 1.102-1.14.228 0 .607.19.836.532 1.367 1.67 3.8 2.014 5.66 2.014 3.686 0 5.547-1.216 5.547-3.686 0-5.737-12.462-2.698-12.462-10.297 0-3.837 3.837-5.32 7.295-5.32 1.976 0 5.016.685 6.535 2.204.228.228.342.494.342.722 0 .57-.57 1.14-1.178 1.14-.23 0-.494-.076-.722-.304-1.18-1.14-3.306-1.596-4.978-1.596-3.344 0-5.13 1.292-5.13 3.153 0 5.32 12.462 2.508 12.462 10.297 0 4.33-3.8 5.85-7.713 5.85z"/><path id="Ak" d="M187.467 189.846c-3.306 0-5.775-1.367-7.37-3.61v9.84c0 .684-.57 1.102-1.063 1.102-.532 0-1.103-.418-1.103-1.102V170.09c0-.684.57-1.063 1.103-1.063.494 0 1.063.38 1.063 1.063v1.862c1.596-2.204 4.065-3.572 7.37-3.572 6.117 0 9.536 5.016 9.536 10.715 0 5.737-3.42 10.752-9.536 10.752zm0-19.3c-4.52 0-7.37 3.61-7.37 8.55s2.85 8.587 7.37 8.587 7.37-3.647 7.37-8.587-2.85-8.55-7.37-8.55z"/><path id="Al" d="M201.87 165.378a2.14 2.14 0 1 1 0-4.332 2.14 2.14 0 0 1 0 4.332zm0 23.822c-.532 0-1.103-.342-1.103-1.063V170.09c0-.684.532-1.063 1.103-1.063.494 0 1.063.342 1.063 1.063v18.048c0 .684-.494 1.063-1.063 1.063z"/><path id="Am" d="M214.523 189.2h-1.178c-3 0-4.483-1.48-4.483-4.445V171.19h-1.937c-.684 0-1.063-.57-1.063-1.102 0-.494.38-1.063 1.063-1.063h1.938v-5.813c0-.684.57-1.063 1.103-1.063s1.063.38 1.063 1.063v5.813h3.495c.685 0 1.064.57 1.064 1.063 0 .532-.38 1.102-1.064 1.102h-3.495v13.564c0 1.86.532 2.28 2.317 2.28h1.178c.685 0 1.064.57 1.064 1.103 0 .493-.38 1.063-1.064 1.063z"/><path id="An" d="M275.775 189.2c-.53 0-1.102-.38-1.102-1.063v-11.095a6.47 6.47 0 0 0-6.497-6.497c-3.57 0-6.497 2.888-6.497 6.497v11.095c0 .684-.57 1.063-1.063 1.063-.532 0-1.103-.38-1.103-1.063v-24.925c0-.684.57-1.063 1.103-1.063.494 0 1.063.38 1.063 1.063v8.093c1.596-1.86 3.913-2.926 6.497-2.926 4.71 0 8.663 3.914 8.663 8.663v11.095c0 .684-.57 1.063-1.064 1.063z"/><path id="Ao" d="M361.692 189.2c-.53 0-1.102-.38-1.102-1.063v-1.9c-1.596 2.242-4.065 3.61-7.37 3.61-6.117 0-9.536-5.015-9.536-10.752 0-5.7 3.42-10.715 9.536-10.715 3.306 0 5.775 1.368 7.37 3.572v-8.74c0-.684.57-1.063 1.102-1.063.494 0 1.064.38 1.064 1.063v24.925c0 .684-.57 1.063-1.064 1.063zm-8.473-18.655c-4.483 0-7.37 3.61-7.37 8.55s2.888 8.587 7.37 8.587c4.52 0 7.37-3.647 7.37-8.587s-2.85-8.55-7.37-8.55z"/><path id="Ap" d="M398.02 170.887c-3.57 0-6.497 2.888-6.497 6.497v10.753c0 .684-.57 1.063-1.063 1.063-.532 0-1.103-.38-1.103-1.063V170.09c0-.684.57-1.063 1.103-1.063.494 0 1.063.38 1.063 1.063v1.558c1.7-1.86 3.95-2.925 6.497-2.925.684 0 1.102.57 1.102 1.063 0 .532-.418 1.102-1.102 1.102z"/><path id="Aq" d="M420.1 189.2h-.038c-1.254 0-3.04-.684-3.762-2.964-1.596 2.242-4.065 3.61-7.37 3.61-6.193 0-9.536-5.09-9.536-10.752 0-5.737 3.42-10.715 9.536-10.715 3.306 0 5.775 1.368 7.37 3.572v-1.862c0-.607.494-1.063 1.102-1.063.532 0 1.064.38 1.064 1.063V185.4c0 2.432 2.735.912 2.735 2.736a1.04 1.04 0 0 1-1.102 1.063zm-11.17-18.655c-4.483 0-7.37 3.61-7.37 8.55s2.888 8.587 7.37 8.587c4.52 0 7.37-3.647 7.37-8.587s-2.85-8.55-7.37-8.55z"/><path id="Ar" d="M427.652 189.428c-2.052 0-3.762-1.9-3.762-4.027v-22.188c0-.684.57-1.063 1.103-1.063.494 0 1.063.38 1.063 1.063V185.4c0 2.432 2.697 1.026 2.697 2.736 0 .645-.455 1.29-1.102 1.29z"/><path id="As" d="M471.503 189.846c-6.117 0-9.536-5.015-9.536-10.752 0-5.7 3.42-10.715 9.536-10.715s9.537 5.016 9.537 10.715c0 5.737-3.42 10.752-9.537 10.752zm0-19.3c-4.483 0-7.37 3.61-7.37 8.55s2.888 8.587 7.37 8.587c4.52 0 7.37-3.647 7.37-8.587s-2.85-8.55-7.37-8.55z"/><path id="At" d="M553.352 189.2c-.53 0-1.102-.38-1.102-1.063v-11.095a6.47 6.47 0 0 0-6.497-6.497c-3.57 0-6.497 2.888-6.497 6.497v11.095c0 .684-.57 1.063-1.063 1.063-.532 0-1.103-.38-1.103-1.063V170.09c0-.684.57-1.063 1.103-1.063.494 0 1.063.38 1.063 1.063v1.216c1.7-1.86 3.95-2.926 6.497-2.926 4.71 0 8.663 3.914 8.663 8.663v11.095c0 .684-.57 1.063-1.064 1.063z"/></defs></svg>