<svg xmlns="http://www.w3.org/2000/svg" xmlns:xlink="http://www.w3.org/1999/xlink" viewBox="0 0 1080 1080"><style><![CDATA[.H{opacity:.6}.I{fill:#ff23e2}]]></style><defs><linearGradient id="A" x1="11.716" y1="11.716" x2="1068.284" y2="1068.284" gradientUnits="userSpaceOnUse"><stop offset="0" stop-color="#acb6e5"/><stop offset=".421" stop-color="#98dbe7"/><stop offset=".781" stop-color="#8bf4e8"/><stop offset="1" stop-color="#86fde8"/></linearGradient><linearGradient id="B" x1="229.321" y1="349.108" x2="643.958" y2="763.745" gradientUnits="userSpaceOnUse"><stop offset="0" stop-color="#f953c6"/><stop offset=".08" stop-color="#f24dbd"/><stop offset=".484" stop-color="#d33395"/><stop offset=".805" stop-color="#c0237c"/><stop offset="1" stop-color="#b91d73"/></linearGradient><path id="C" d="M104.714 1045.51a1.36 1.36 0 0 1-1.4-1.101 7.763 7.763 0 0 1-4.804 1.668 7.666 7.666 0 0 1-7.604-7.605v-9.24a1.434 1.434 0 0 1 2.868-.033v9.272a4.753 4.753 0 1 0 9.507 0v-9.24a1.33 1.33 0 0 1 1.4-1.468 1.364 1.364 0 0 1 1.435 1.435v14.9a1.328 1.328 0 0 1-1.401 1.4z"/><path id="D" d="M915.54 1046.357c-1.2 0-3.22-.42-3.92-1.58a.482.482 0 0 1-.08-.3.546.546 0 0 1 1.021-.32 3.812 3.812 0 0 0 2.98 1.061c1.94 0 2.92-.64 2.92-1.94 0-3.02-6.562-1.42-6.562-5.422 0-2.02 2.02-2.8 3.84-2.8a5.415 5.415 0 0 1 3.44 1.16.558.558 0 0 1 .18.38.648.648 0 0 1-.62.6.531.531 0 0 1-.38-.16 4.001 4.001 0 0 0-2.62-.84c-1.76 0-2.7.68-2.7 1.66 0 2.8 6.562 1.32 6.562 5.422 0 2.28-2 3.08-4.06 3.08z"/><path id="E" d="M926.26 1046.317c-3.22 0-5.02-2.64-5.02-5.66 0-3 1.8-5.64 5.02-5.64s5.02 2.64 5.02 5.64c0 3.02-1.8 5.66-5.02 5.66zm0-10.162c-2.36 0-3.88 1.9-3.88 4.5s1.52 4.52 3.88 4.52c2.38 0 3.88-1.92 3.88-4.52s-1.5-4.5-3.88-4.5z"/><path id="F" d="M950 1036.336a3.418 3.418 0 0 0-3.421 3.42v5.66a.57.57 0 0 1-1.141 0v-9.502a.57.57 0 0 1 1.141 0v.82a4.565 4.565 0 0 1 3.421-1.54.57.57 0 1 1 0 1.141z"/><path id="G" d="M971.76 1041.236h-8.302c.18 2.28 1.66 3.94 3.84 3.94a3.615 3.615 0 0 0 2.94-1.381.525.525 0 0 1 .479-.28.611.611 0 0 1 .62.541c0 .18 0 .22-.38.66a4.72 4.72 0 0 1-3.66 1.601c-3.22 0-5.02-2.64-5.02-5.66 0-3 1.8-5.64 5.02-5.64s5.02 2.66 5.02 5.64a.606.606 0 0 1-.56.58zm-4.46-5.08c-2.4 0-3.66 1.84-3.84 3.94h7.7c-.18-2.28-1.66-3.94-3.86-3.94z"/><path id="H" d="M328.068 111.733c0 27.37-20.06 40.46-36.9 40.46-23.3 0-37.23-18.7-37.23-37.57 0-28.05 21.76-40.8 37.23-40.8 21.08 0 36.9 16.83 36.9 37.91zm-58.3-2.55c0 21.42 9.35 37.4 23.3 37.4 10.54 0 19.21-7.82 19.21-31.11 0-19.9-8-36.04-22.78-36.04-10.54 0-19.72 10.54-19.72 29.75z"/><path id="I" d="M439.928 135.703c-10.7 13.43-22.44 16.5-27.7 16.5-20.9 0-33.15-17-33.15-36.2a43.778 43.778 0 0 1 11.22-29.749c6.97-7.82 16.15-12.4 25-12.4 14.1 0 25.5 12.58 25.5 25.84 0 3.4-.85 4.76-3.9 5.44-2.9.51-24.14 2.2-44.37 2.89.17 23.12 13.43 32.64 25.33 32.64 6.8 0 13.26-2.72 19.38-8.5zm-46.58-34.68c9.52 0 18.87-.17 28.73-.5 3.06 0 4.08-1.02 4.08-3.4.17-8.84-5.6-17-14.96-17-7.82 0-15.3 7.14-17.85 20.91z"/><path id="J" d="M534.104 150.153v-4.42c10.7-1.02 11.9-2.04 11.9-13.6v-35.02c0-10.54-.5-11.22-10.7-12.92v-4.08a107.242 107.242 0 0 0 24.14-6.63v58.65c0 11.56 1.2 12.58 12.07 13.6v4.42zm9-99.79a8.743 8.743 0 0 1 8.67-8.84 8.5 8.5 0 0 1 8.5 8.84 8.705 8.705 0 0 1-8.67 8.67 8.908 8.908 0 0 1-8.5-8.67z"/><path id="K" d="M613.493 95.923c-3.23-10.03-9.18-16.83-17.5-16.83-6.46 0-11.05 5.1-11.05 11.73 0 7.65 6.8 11.56 14.45 14.8 12.75 5.27 21.42 11.4 21.42 23.12 0 15.47-14.45 23.46-28.05 23.46-8.67 0-16.5-3.23-19.55-5.78-1.2-2.38-2.72-13.94-2.72-20.06l4.42-.85c3.06 11.22 10.7 21.08 20.9 21.08a11.857 11.857 0 0 0 12.07-11.899c0-7.48-4.93-11.56-13.43-15.47-10.2-4.76-21.25-10.37-21.25-23.46 0-11.9 10.2-21.93 25.84-21.93a39.569 39.569 0 0 1 15.13 2.89c1.36 3.9 3.23 13.94 3.74 18.2z"/><path id="L" d="M683.2 149.983a17.24 17.24 0 0 1-7.14 2.21c-10.71 0-16.66-6.8-16.66-20.23v-49.47h-11.73l-.68-1.7 4.6-4.93h7.82v-12.4l11.05-11.22 2.38.34v23.3h19.2c1.53 1.7 1.02 5.44-1.02 6.63h-18.2v43.69c0 13.77 5.6 16.32 9.86 16.32a24.301 24.301 0 0 0 10.54-2.89l1.53 4.42z"/><path id="M" d="M590.03 299.037v-4.42c10.03-1.02 11.22-2.38 11.22-14.1v-28.4c0-11.73-4.08-19.38-15.47-19.38-6.8 0-13.43 4.25-18.53 8.67v39.95c0 11.56 1.02 12.24 11.05 13.26v4.42h-36.89v-4.42c11.56-1.2 12.4-2.04 12.4-13.26v-35.19c0-10.88-1.02-11.39-10.2-13.1v-3.9a102.285 102.285 0 0 0 23.629-6.97v13.6c3.4-2.55 7.14-5.1 11.4-8 4.76-3.06 9.18-5.1 14.1-5.1 13.43 0 21.93 9.52 21.93 25.84v32.8c0 11.56.85 12.24 10.7 13.26v4.42z"/><path id="N" d="M288.967 447.92v-4.42c10.03-1.02 11.22-2.38 11.22-14.1V401c0-11.73-4.08-19.38-15.47-19.38-6.8 0-13.43 4.25-18.53 8.67v39.95c0 11.56 1.02 12.24 11.05 13.26v4.42h-36.89v-4.42c11.56-1.2 12.4-2.04 12.4-13.26v-35.19c0-10.88-1.02-11.39-10.2-13.1v-3.9a102.286 102.286 0 0 0 23.629-6.97v13.6c3.4-2.55 7.14-5.1 11.4-8 4.76-3.06 9.18-5.1 14.1-5.1 13.43 0 21.93 9.52 21.93 25.84v32.8c0 11.56.85 12.24 10.7 13.26v4.42z"/><path id="O" d="M87.9 598.9a14.273 14.273 0 0 1-8.225-3.324 18.187 18.187 0 0 1-4.2-7.876c-7 4.726-15.4 11.2-20.65 11.2-12.425 0-21-10.325-21-21.35 0-8.575 4.55-14 14.175-17.325 10.5-3.5 23.275-8.226 27.125-11.376v-3.15c0-12.6-5.95-19.775-14.7-19.775a9.869 9.869 0 0 0-7.875 3.5c-2.275 2.274-3.85 6.125-5.25 11.55a4.872 4.872 0 0 1-5.075 4.025c-3.15 0-7.7-3.5-7.7-7.525 0-2.625 2.275-4.55 5.6-7 4.9-3.5 16.275-10.325 26.25-12.25a22.824 22.824 0 0 1 14.351 4.725c6.125 5.075 7.875 12.25 7.875 21.35v32.55c0 7.875 3.15 10.5 6.125 10.5a13.284 13.284 0 0 0 6.3-1.925l1.75 4.55zm-12.775-44.1c-3.675 1.925-12.075 5.6-15.75 7.35-6.825 3.15-10.675 6.475-10.675 12.775 0 9.1 7 13.475 12.425 13.475 4.55-.175 10.675-3.15 14-6.3z"/><path id="P" d="M316.094 581.927c-11.025 13.825-23.1 16.975-28.525 16.975-21.525 0-34.125-17.5-34.125-37.275a45.066 45.066 0 0 1 11.55-30.625c7.175-8.05 16.625-12.775 25.726-12.775 14.525 0 26.25 12.95 26.25 26.6 0 3.5-.875 4.9-4.025 5.6-2.975.525-24.85 2.275-45.676 2.976.175 23.8 13.825 33.6 26.076 33.6 7 0 13.65-2.8 19.95-8.75zm-47.95-35.7c9.8 0 19.425-.175 29.576-.524 3.15 0 4.2-1.05 4.2-3.5.175-9.1-5.775-17.5-15.4-17.5-8.05 0-15.75 7.35-18.375 21.525z"/><path id="Q" d="M183.75 752.692V750.3c5.796-.553 6.44-1.104 6.44-7.36V724c0-5.704-.276-6.072-5.795-6.992V714.8a57.964 57.964 0 0 0 13.063-3.588v31.738c0 6.256.644 6.808 6.53 7.36v2.392zm4.876-54a4.731 4.731 0 0 1 4.691-4.784 4.6 4.6 0 0 1 4.6 4.784 4.711 4.711 0 0 1-4.692 4.691 4.82 4.82 0 0 1-4.6-4.691z"/><path id="R" d="M257.165 744.873c-5.795 7.268-12.143 8.923-14.995 8.923-11.315 0-17.94-9.2-17.94-19.595a23.689 23.689 0 0 1 6.072-16.099c3.772-4.232 8.74-6.716 13.523-6.716 7.635 0 13.8 6.808 13.8 13.983 0 1.84-.46 2.575-2.116 2.943-1.564.276-13.063 1.196-24.01 1.564.092 12.51 7.268 17.663 13.708 17.663 3.68 0 7.175-1.473 10.487-4.6zm-25.207-18.768a447.02 447.02 0 0 0 15.547-.275c1.656 0 2.208-.553 2.208-1.84.092-4.784-3.036-9.2-8.096-9.2-4.232 0-8.28 3.864-9.66 11.315z"/><path id="S" d="M281.452 723.346c-1.748-5.428-4.967-9.107-9.475-9.107-3.496 0-5.98 2.76-5.98 6.348 0 4.14 3.68 6.256 7.82 8.004 6.9 2.852 11.59 6.163 11.59 12.51 0 8.372-7.82 12.695-15.18 12.695-4.692 0-8.924-1.747-10.58-3.127-.644-1.288-1.472-7.544-1.472-10.855l2.392-.46c1.656 6.07 5.796 11.407 11.315 11.407a6.417 6.417 0 0 0 6.532-6.439c0-4.048-2.668-6.256-7.268-8.372-5.52-2.576-11.5-5.61-11.5-12.695 0-6.44 5.52-11.867 13.983-11.867a21.415 21.415 0 0 1 8.188 1.563 69.144 69.144 0 0 1 2.024 9.844z"/><path id="T" d="M303.348 752.6a9.324 9.324 0 0 1-3.864 1.195c-5.795 0-9.015-3.68-9.015-10.947v-26.77h-6.348l-.368-.92 2.484-2.668h4.232v-6.716l5.98-6.07 1.288.184V712.5h10.395a2.617 2.617 0 0 1-.552 3.588h-9.843v23.643c0 7.452 3.036 8.832 5.335 8.832a13.144 13.144 0 0 0 5.704-1.564l.828 2.393z"/><path id="U" d="M347.69 731.9c0 14.812-10.855 21.895-19.963 21.895-12.604 0-20.147-10.12-20.147-20.33 0-15.18 11.775-22.08 20.147-22.08 11.407 0 19.963 9.107 19.963 20.515zm-31.554-1.38c0 11.592 5.06 20.24 12.603 20.24 5.704 0 10.396-4.232 10.396-16.835 0-10.764-4.324-19.504-12.327-19.504-5.704 0-10.67 5.704-10.67 16.1z"/><path id="V" d="M624.24 744.873c-5.795 7.268-12.143 8.923-14.995 8.923-11.315 0-17.94-9.2-17.94-19.595a23.689 23.689 0 0 1 6.072-16.099c3.77-4.232 8.74-6.716 13.523-6.716 7.635 0 13.8 6.808 13.8 13.983 0 1.84-.46 2.575-2.116 2.943-1.564.276-13.063 1.196-24.01 1.564.092 12.51 7.268 17.663 13.708 17.663 3.68 0 7.175-1.473 10.487-4.6zm-25.207-18.768a447.02 447.02 0 0 0 15.547-.275c1.656 0 2.208-.553 2.208-1.84.092-4.784-3.036-9.2-8.096-9.2-4.232 0-8.28 3.864-9.66 11.315z"/><path id="W" d="M648.526 723.346c-1.748-5.428-4.968-9.107-9.475-9.107-3.496 0-5.98 2.76-5.98 6.348 0 4.14 3.68 6.256 7.82 8.004 6.9 2.852 11.59 6.163 11.59 12.51 0 8.372-7.82 12.695-15.18 12.695-4.692 0-8.924-1.747-10.58-3.127-.644-1.288-1.472-7.544-1.472-10.855l2.392-.46c1.656 6.07 5.796 11.407 11.315 11.407a6.417 6.417 0 0 0 6.532-6.439c0-4.048-2.668-6.256-7.268-8.372-5.52-2.576-11.5-5.61-11.5-12.695 0-6.44 5.52-11.867 13.983-11.867a21.415 21.415 0 0 1 8.188 1.563 69.144 69.144 0 0 1 2.024 9.844z"/><path id="X" d="M730.59 731.9c0 14.812-10.855 21.895-19.963 21.895-12.604 0-20.147-10.12-20.147-20.33 0-15.18 11.775-22.08 20.147-22.08 11.407 0 19.963 9.107 19.963 20.515zm-31.554-1.38c0 11.592 5.06 20.24 12.603 20.24 5.704 0 10.395-4.232 10.395-16.835 0-10.764-4.324-19.504-12.327-19.504-5.704 0-10.67 5.704-10.67 16.1z"/><path id="Y" d="M781.372 744.413c-4.048 5.335-10.21 9.383-15.64 9.383-11.592 0-18.4-9.383-18.4-19.227 0-7.084 3.036-13.247 9.2-18.03a24.344 24.344 0 0 1 13.891-5.151 13.733 13.733 0 0 1 8.188 2.392 3.383 3.383 0 0 1 1.472 2.852c0 1.933-2.024 3.956-3.036 3.956-.46 0-.92-.275-1.748-1.012a13.34 13.34 0 0 0-9.2-3.771c-6.072 0-11.407 5.06-11.407 14.72 0 12.787 8.74 17.02 13.89 17.02 3.956 0 6.992-1.105 11.224-5.06z"/><path id="Z" d="M89.173 812.02c2.76-4.6 6.716-9.75 11.13-9.75 3.128 0 5.336 2.392 5.336 4.6a5.168 5.168 0 0 1-2.944 4.508 2.134 2.134 0 0 1-2.484-.184 4.943 4.943 0 0 0-3.864-1.933c-2.392 0-5.336 2.76-7.36 7.912v16.835c0 6.07.46 6.623 7.543 7.176v2.392h-21.16v-2.392c5.704-.553 6.348-1.104 6.348-7.176v-19.043c0-6.072-.46-6.44-5.704-7.176v-2.023a52.053 52.053 0 0 0 12.972-3.772v10.027z"/><path id="a" d="M550.087 844.68a7.503 7.503 0 0 1-4.324-1.747 9.561 9.561 0 0 1-2.208-4.141c-3.68 2.484-8.096 5.888-10.855 5.888a11.105 11.105 0 0 1-11.04-11.223c0-4.508 2.392-7.36 7.452-9.107 5.52-1.84 12.235-4.324 14.26-5.98v-1.655c0-6.624-3.128-10.396-7.728-10.396a5.187 5.187 0 0 0-4.14 1.84c-1.196 1.195-2.024 3.22-2.76 6.07a2.561 2.561 0 0 1-2.668 2.116c-1.656 0-4.048-1.84-4.048-3.956 0-1.38 1.196-2.392 2.944-3.68 2.576-1.84 8.556-5.428 13.8-6.44a12 12 0 0 1 7.544 2.483c3.22 2.668 4.14 6.44 4.14 11.224v17.11c0 4.14 1.656 5.52 3.22 5.52a6.984 6.984 0 0 0 3.312-1.012l.92 2.392zm-6.715-23.183c-1.932 1.012-6.348 2.944-8.28 3.864-3.588 1.655-5.612 3.403-5.612 6.716a6.735 6.735 0 0 0 6.532 7.083 13.156 13.156 0 0 0 7.36-3.312z"/><path id="b" d="M296.17 913.668c0 14.812-10.855 21.895-19.963 21.895-12.604 0-20.147-10.12-20.147-20.33 0-15.18 11.775-22.08 20.147-22.08 11.407 0 19.963 9.107 19.963 20.515zm-31.554-1.38c0 11.592 5.06 20.24 12.603 20.24 5.704 0 10.396-4.232 10.396-16.835 0-10.764-4.324-19.503-12.327-19.503-5.704 0-10.67 5.703-10.67 16.1z"/><path id="c" d="M806.026 905.757c0 13.43-4.876 29.806-18.675 29.806-13.892 0-18.86-15.18-18.86-29.714 0-13.432 5.06-29.807 18.86-29.807s18.675 15.547 18.675 29.715zm-29.347-.093c0 12.88 2.668 26.77 10.672 26.77 8.28 0 10.487-13.8 10.487-26.68 0-13.063-2.3-26.68-10.58-26.68-8.372 0-10.58 13.8-10.58 26.586z"/></defs><g fill="url(#A)"><rect width="1080" height="1080" rx="40"/><rect width="1080" height="1080" rx="40"/></g><g opacity=".3"><path d="M42.328 1046.045a7.892 7.892 0 0 1-5.503-2.002 1.364 1.364 0 0 1-1.468 1.401 1.346 1.346 0 0 1-1.401-1.401v-20.88a1.435 1.435 0 0 1 2.869-.033v6.238a7.4 7.4 0 0 1 5.503-2.169c5.37 0 8.373 4.403 8.373 9.406 0 5.037-3.002 9.44-8.373 9.44zm0-16c-3.335 0-5.503 2.602-5.503 6.57 0 4.003 2.168 6.604 5.503 6.604s5.504-2.602 5.504-6.604c0-3.97-2.168-6.57-5.504-6.57zm25.555 8.037h-12.34c.467 3.136 2.468 5.137 5.403 5.137a5.003 5.003 0 0 0 3.969-1.734 1.383 1.383 0 0 1 1.034-.533 1.556 1.556 0 0 1 1.501 1.468c0 .4-.1.7-.8 1.4a8.129 8.129 0 0 1-5.704 2.235c-5.37 0-8.372-4.437-8.372-9.44 0-4.97 3.002-9.406 8.372-9.406 5.437 0 8.34 4.437 8.34 9.406a1.422 1.422 0 0 1-1.401 1.468zm-6.937-8.038c-3.136 0-4.97 2.3-5.403 5.17H66.35c-.467-3.202-2.468-5.17-5.403-5.17zM88 1045.478a3.247 3.247 0 0 1-2.969-1.901 7.642 7.642 0 0 1-5.87 2.469c-5.437 0-8.372-4.47-8.372-9.44s3.002-9.406 8.372-9.406a7.369 7.369 0 0 1 5.504 2.202v-.134a1.376 1.376 0 0 1 1.4-1.501 1.341 1.341 0 0 1 1.468 1.401v12.875a.54.54 0 0 0 .467.601 1.418 1.418 0 1 1 0 2.835zm-8.84-15.443c-3.336 0-5.504 2.602-5.504 6.57 0 4.003 2.168 6.604 5.504 6.604 3.37 0 5.504-2.602 5.504-6.604 0-3.97-2.135-6.57-5.504-6.57z"/><use xlink:href="#C"/><path d="M115.158 1045.478h-.567c-3.17 0-4.37-1.668-4.37-4.403V1030.6h-1a1.418 1.418 0 1 1-.033-2.835h1v-4.637a1.355 1.355 0 0 1 1.435-1.4 1.328 1.328 0 0 1 1.401 1.4v4.637h2.135a1.383 1.383 0 0 1 1.4 1.401 1.356 1.356 0 0 1-1.4 1.434h-2.135v10.774c0 .934.333 1.268 1.268 1.268h.833a1.376 1.376 0 0 1 1.435 1.4 1.357 1.357 0 0 1-1.4 1.435zm4.604-20.415a2.401 2.401 0 1 1 2.402-2.401 2.392 2.392 0 0 1-2.402 2.401zm0 20.414a1.4 1.4 0 0 1-1.467-1.401V1029.2a1.408 1.408 0 0 1 1.467-1.435 1.374 1.374 0 0 1 1.401 1.435v14.876a1.346 1.346 0 0 1-1.401 1.401zm10.376-14.877h-1.5v13.442a1.364 1.364 0 0 1-1.468 1.401 1.346 1.346 0 0 1-1.401-1.401V1030.6h-1.37a1.418 1.418 0 0 1 0-2.835h1.367v-2.27a3.801 3.801 0 0 1 3.836-3.769 1.418 1.418 0 1 1 0 2.835.934.934 0 0 0-.967.9v2.302h1.5a1.418 1.418 0 1 1 0 2.835z"/><use xlink:href="#C" x="42.068"/><path d="M154.725 1045.544a3.403 3.403 0 0 1-3.336-3.402v-18.98a1.435 1.435 0 0 1 2.869-.033v19.013a.527.527 0 0 0 .467.567 1.418 1.418 0 1 1 0 2.835zm15.37-.066v-1.264c1.886-.237 2.046-.437 2.046-3.157v-6.7c0-2.8-1.248-4.017-3.064-4.017a5.597 5.597 0 0 0-3.47 1.493v9.476c0 2.527.187 2.658 2.06 2.896v1.264h-8.968v-1.264c2.254-.33 2.5-.4 2.5-3v-8.2c0-2.446-.303-2.565-2.185-2.922v-1.184a34.101 34.101 0 0 0 6.653-1.533l-.052 2.95 2.6-1.745a5.659 5.659 0 0 1 3.159-1.086c3.194 0 5.2 2.338 5.2 6.3v7.5c0 2.54.237 2.657 2.277 2.92v1.264zm23.9-3.703c-2.458 3.427-5.488 4.178-7.014 4.178-5.142 0-8.124-3.936-8.124-8.594a10.333 10.333 0 0 1 2.832-7.062 8.602 8.602 0 0 1 6.082-2.814 6.386 6.386 0 0 1 6.37 6.347c-.014.715-.08 1.277-.612 1.4-.767.184-6.17.5-10.318.647.062 4.587 2.717 6.74 5.556 6.74a6.776 6.776 0 0 0 4.543-1.866zm-7.07-12.7c-1.667 0-3.167 1.807-3.516 4.963l5.486-.118c.6-.026.848-.146.848-.792.04-2.022-1.037-4.053-2.818-4.053zm34.284.145c-1.943.343-2.248.624-3.105 2.765-1.33 3.462-3.102 8.53-4.934 13.94h-1.512l-4.65-11.46-4.55 11.46h-1.472l-4.685-14.192c-.687-1.985-.94-2.274-2.855-2.512v-1.25h9.397v1.25c-2.325.345-2.535.672-2.058 2.133l2.52 8.214c1.507-3.68 2.988-7.62 4.327-11.424h1.456c1.4 3.76 2.986 7.702 4.573 11.568.742-2.107 2.062-5.964 2.557-8.108.412-1.674-.008-2.078-2.753-2.383v-1.25h7.742zm9.4 3.746c-.92-2.606-2.155-3.984-4.2-3.984a2.166 2.166 0 0 0-2.225 2.266c0 1.497 1.046 2.264 3.16 3.216 3.278 1.496 5.3 2.787 5.3 5.736 0 3.85-3.6 5.764-6.945 5.764a12.073 12.073 0 0 1-4.92-1.161l-.662-4.892 1.252-.224c.8 2.5 2.33 4.75 4.976 4.75a2.231 2.231 0 0 0 2.438-2.281c0-1.423-.76-2.333-3.092-3.467-2.67-1.295-5.107-2.64-5.107-5.775 0-3.046 2.533-5.42 6.565-5.42a18.751 18.751 0 0 1 4.112.567l.62 4.577z"/></g><g opacity=".5"><use xlink:href="#D"/><use xlink:href="#E"/><path d="M942.042 1045.978a.562.562 0 0 1-.58-.561v-.64a4.442 4.442 0 0 1-3.421 1.54 4.61 4.61 0 0 1-4.561-4.561v-5.842a.57.57 0 0 1 1.14 0v5.842a3.421 3.421 0 0 0 6.842 0v-5.842a.57.57 0 0 1 1.141 0v9.502a.558.558 0 0 1-.561.561z"/><use xlink:href="#F"/><path d="M960.18 1044.797a4.645 4.645 0 0 1-3.58 1.52c-3.22 0-5.02-2.64-5.02-5.66 0-3 1.8-5.64 5.02-5.64a4.647 4.647 0 0 1 3.58 1.52.531.531 0 0 1 .16.381.627.627 0 0 1-.58.6.587.587 0 0 1-.42-.2 3.526 3.526 0 0 0-2.74-1.16c-2.36 0-3.88 1.9-3.88 4.5s1.52 4.52 3.88 4.52a3.596 3.596 0 0 0 2.74-1.16.587.587 0 0 1 .42-.2.594.594 0 0 1 .58.58.571.571 0 0 1-.16.399z"/><use xlink:href="#G"/><path d="M975.74 1039.416a1.14 1.14 0 1 1 0-2.28 1.14 1.14 0 0 1 0 2.28zm0 6.562a1.14 1.14 0 1 1 0-2.28 1.14 1.14 0 0 1 0 2.28zm18.2-13.124h-8.32v4.92h6.1a.551.551 0 0 1 .58.561.561.561 0 0 1-.56.58h-6.12v6.5a.57.57 0 0 1-1.141 0v-13.122a.59.59 0 0 1 .58-.561h8.882a.56.56 0 1 1 0 1.12z"/><use xlink:href="#E" x="72.82"/><use xlink:href="#F" x="61.04"/><path d="M1018.098 1046.317a4.537 4.537 0 0 1-3.881-1.9v1a.57.57 0 0 1-1.141 0v-13.122a.57.57 0 0 1 1.141 0v4.6a4.573 4.573 0 0 1 3.881-1.88c3.22 0 5.02 2.64 5.02 5.64 0 3.02-1.8 5.66-5.02 5.66zm0-10.162c-2.38 0-3.88 1.9-3.88 4.5s1.5 4.52 3.88 4.52 3.88-1.92 3.88-4.52-1.5-4.5-3.88-4.5z"/><use xlink:href="#G" x="62.76"/><use xlink:href="#D" x="125.257"/></g><path d="M117.164 461.265h638.95v190.324h-638.95z" fill="url(#B)"/><path d="M84.8 65.494c-3.06-10.88-7.48-22.6-22.27-22.6-13.1 0-18.87 9.52-18.87 18.7 0 12.4 8.16 18.2 21.6 25.16 13.26 6.8 29.4 14.8 29.4 33.83 0 17.85-15.13 32.13-37.74 32.13a59.179 59.179 0 0 1-16.66-2.55 58.155 58.155 0 0 1-8.33-3.57c-1.36-3.57-3.57-18.2-4.6-26.35l4.93-1.2c2.72 10.37 10.37 27.54 27.88 27.54 12.75 0 20.4-8 20.4-20.4 0-12.58-9.35-18.53-22.1-25.33-10.88-5.78-28.05-14.28-28.05-33.5 0-16.32 13.1-30.26 35.02-30.26 7.82 0 14.96 1.87 21.42 3.9l2.9 23.46zm15.64 76.84a9.522 9.522 0 1 1 19.04 0c0 5.95-4.08 9.86-9.52 9.86s-9.52-3.9-9.52-9.86zm134.296 7.82c-13.1-14.8-26.86-31.45-42.16-49.47-3.9-4.6-6.3-5.27-9.18-4.76v32.3c0 14.96 1.7 16.15 15.64 17.17v4.76h-44.2v-4.76c12.92-1.02 14.45-2.2 14.45-17.17v-66.47c0-15.47-1.53-16.32-14.96-17.34v-4.76h43.86v4.76c-13.1 1.02-14.8 2.2-14.8 17.34v29.75c3.74-1.02 7.14-3.4 11.9-7.82 9.35-9 20.9-20.74 28.56-30.1 4.93-6.12 4.93-7.82-2.9-8.67l-3.74-.5v-4.76h40.8v4.76c-12.92 1.2-16.83 2.9-27.7 12.75-6.46 5.95-18.53 18.02-30.1 29.75 12.92 15.98 31.45 37.06 39.95 46.24 9 9.7 12.4 11.22 20.74 12.24v4.76z" class="H"/><use xlink:href="#H" class="H"/><path d="M353.228 91.843c5.1-8.5 12.4-18.02 20.57-18.02 5.78 0 9.86 4.42 9.86 8.5a9.551 9.551 0 0 1-5.44 8.33c-2.04.85-3.57.68-4.6-.34-2.38-2.55-4.42-3.57-7.14-3.57-4.42 0-9.86 5.1-13.6 14.62v31.11c0 11.22.85 12.24 13.94 13.26v4.42h-39.1v-4.42c10.54-1.02 11.73-2.04 11.73-13.26v-35.19c0-11.22-.85-11.9-10.54-13.26v-3.74a96.163 96.163 0 0 0 23.97-6.97v18.53z" class="H"/><use xlink:href="#I" class="H"/><path d="M495.005 152.193a13.864 13.864 0 0 1-7.99-3.23 17.666 17.666 0 0 1-4.08-7.649c-6.8 4.6-14.96 10.88-20.06 10.88-12.07 0-20.4-10.03-20.4-20.74 0-8.33 4.42-13.6 13.77-16.83 10.2-3.4 22.6-8 26.35-11.05v-3.06c0-12.24-5.78-19.2-14.28-19.2a9.588 9.588 0 0 0-7.65 3.4c-2.2 2.2-3.74 5.95-5.1 11.22a4.732 4.732 0 0 1-4.93 3.91c-3.06 0-7.48-3.4-7.48-7.3 0-2.55 2.2-4.42 5.44-6.8 4.76-3.4 15.8-10.03 25.5-11.9a22.169 22.169 0 0 1 13.94 4.59c5.95 4.93 7.65 11.9 7.65 20.74v31.62c0 7.65 3.06 10.2 5.95 10.2a12.906 12.906 0 0 0 6.12-1.87l1.7 4.42zm-12.4-42.84c-3.57 1.87-11.73 5.44-15.3 7.14-6.63 3.06-10.37 6.29-10.37 12.41 0 8.84 6.8 13.1 12.07 13.1 4.42-.17 10.37-3.06 13.6-6.12z" class="H"/><use xlink:href="#J" class="H"/><use xlink:href="#K" class="H"/><use xlink:href="#L" class="H"/><path d="M738.098 150.153v-4.42c9.86-1.02 11.22-2.04 11.22-13.1v-28.22c0-13.94-5.27-20.9-16.66-20.9-6.46 0-12.92 3.23-17.68 8.67v40.46c0 10.88.85 12.07 10.88 13.1v4.42h-36.04v-4.42c10.2-.85 11.73-1.87 11.73-13.1v-81.09c0-10.7-.34-11.56-11.56-12.58v-3.9a186.084 186.084 0 0 0 24.99-5.95v57.12c5.95-6.12 15.13-12.4 24.3-12.4 13.77 0 23.46 8.67 23.46 29.07v29.75c0 11.22 1.2 12.24 11.22 13.1v4.42z" class="H"/><use xlink:href="#I" x="393.879" class="H"/><path d="M78.85 299.037v-4.42c9.52-.85 10.7-1.87 10.7-12.58v-41.65c0-7.65-.5-9-8.67-9H57.6v50.66c0 10.54 1.2 11.56 11.9 12.58v4.42H32.27v-4.42c10.54-1.2 12.07-2.04 12.07-12.58v-50.66H32.1l-.85-1.87 4.76-4.76h8.33v-4.08a41.059 41.059 0 0 1 1.87-13.09 40.608 40.608 0 0 1 13.939-20.229c6.97-5.6 14.8-8.67 21.08-9.35 10.37.34 16.15 5.44 18.02 8.16a6.31 6.31 0 0 1 .85 6.12 12.77 12.77 0 0 1-3.74 4.25c-2.04 1.19-3.57 1.19-4.93-.34-3.74-4.42-9.52-9.86-17.68-9.86-4.93 0-8.33 2.72-10.54 5.95-3.23 4.42-5.6 13.1-5.6 26.69v5.78h13.43c13.6 0 23.12-.5 31.96-2.2v59.5c0 10.7 1.02 11.56 11.9 12.58v4.42z" class="H"/><path d="M138.858 240.727c5.1-8.5 12.4-18.02 20.57-18.02 5.78 0 9.86 4.42 9.86 8.5a9.551 9.551 0 0 1-5.44 8.33c-2.04.85-3.57.68-4.6-.34-2.38-2.55-4.42-3.57-7.14-3.57-4.42 0-9.86 5.1-13.6 14.62v31.11c0 11.22.85 12.24 13.94 13.26v4.42h-39.1v-4.42c10.54-1.02 11.73-2.04 11.73-13.26v-35.19c0-11.22-.85-11.9-10.54-13.26v-3.74a96.164 96.164 0 0 0 23.97-6.97v18.53z" class="H"/><use xlink:href="#K" x="-403.917" y="148.884" class="H"/><use xlink:href="#L" x="-433.164" y="148.884" class="H"/><path d="M353.733 299.037v-4.76c10.7-1.36 12.24-2.72 10.03-9.35s-5.6-15.81-9.35-26.18h-36.2l-7.48 21.93c-3.74 10.71-2.2 12.41 10.54 13.6v4.76h-36.9v-4.76c10.7-1.53 13.1-2.55 19.04-17.5l35.19-89.25 5.27-1.53 32.8 91.12c5.44 14.62 7.65 16.15 18.7 17.17v4.76zm-16.66-90.95h-.34l-15.98 43.35h31.28z" class="H"/><use xlink:href="#K" x="-177.989" y="148.884" class="H"/><use xlink:href="#J" x="-90.952" y="148.884" class="H"/><path d="M532.738 301.077a13.864 13.864 0 0 1-7.99-3.23 17.667 17.667 0 0 1-4.08-7.649c-6.8 4.6-14.96 10.88-20.06 10.88-12.07 0-20.4-10.03-20.4-20.74 0-8.33 4.42-13.6 13.77-16.83 10.2-3.4 22.6-8 26.35-11.05v-3.06c0-12.24-5.78-19.2-14.28-19.2a9.588 9.588 0 0 0-7.65 3.4c-2.2 2.2-3.74 5.95-5.1 11.22a4.732 4.732 0 0 1-4.93 3.91c-3.06 0-7.48-3.4-7.48-7.3 0-2.55 2.2-4.42 5.44-6.8 4.76-3.4 15.8-10.03 25.5-11.9a22.169 22.169 0 0 1 13.94 4.59c5.95 4.93 7.65 11.9 7.65 20.74v31.62c0 7.65 3.06 10.2 5.95 10.2a12.906 12.906 0 0 0 6.12-1.87l1.7 4.42zm-12.4-42.84c-3.57 1.87-11.73 5.44-15.3 7.14-6.63 3.06-10.37 6.29-10.37 12.41 0 8.84 6.8 13.1 12.07 13.1 4.42-.17 10.37-3.06 13.6-6.12z" class="H"/><use xlink:href="#M" class="H"/><use xlink:href="#M" x="111.178" class="H"/><path d="M789.1 301.077a13.864 13.864 0 0 1-7.99-3.23 17.667 17.667 0 0 1-4.08-7.649c-6.8 4.6-14.96 10.88-20.06 10.88-12.07 0-20.4-10.03-20.4-20.74 0-8.33 4.42-13.6 13.77-16.83 10.2-3.4 22.6-8 26.35-11.05v-3.06c0-12.24-5.78-19.2-14.28-19.2a9.588 9.588 0 0 0-7.65 3.4c-2.2 2.2-3.74 5.95-5.1 11.22a4.733 4.733 0 0 1-4.93 3.91c-3.06 0-7.48-3.4-7.48-7.3 0-2.55 2.2-4.42 5.44-6.8 4.76-3.4 15.8-10.03 25.5-11.9a22.169 22.169 0 0 1 13.94 4.59c5.95 4.93 7.65 11.9 7.65 20.74v31.62c0 7.65 3.06 10.2 5.95 10.2a12.906 12.906 0 0 0 6.12-1.87l1.7 4.42zm-12.4-42.84c-3.57 1.87-11.73 5.44-15.3 7.14-6.63 3.06-10.37 6.29-10.37 12.41 0 8.84 6.8 13.1 12.07 13.1 4.42-.17 10.37-3.06 13.6-6.12z" class="H"/><use xlink:href="#L" x="147.038" y="148.884" class="H"/><use xlink:href="#J" x="304.972" y="148.884" class="H"/><path d="M949.404 260.617c0 27.37-20.06 40.46-36.9 40.46-23.3 0-37.23-18.7-37.23-37.57 0-28.05 21.76-40.8 37.23-40.8 21.08 0 36.9 16.83 36.9 37.9zm-58.3-2.55c0 21.42 9.35 37.4 23.3 37.4 10.54 0 19.2-7.82 19.2-31.1 0-19.9-8-36.04-22.78-36.04-10.54 0-19.72 10.54-19.72 29.75zm105.9 40.97v-4.42c10.03-1.02 11.22-2.38 11.22-14.1v-28.4c0-11.73-4.08-19.38-15.47-19.38-6.8 0-13.43 4.25-18.53 8.67v39.95c0 11.56 1.02 12.24 11.05 13.26v4.42h-36.9v-4.42c11.56-1.2 12.4-2.04 12.4-13.26v-35.2c0-10.88-1.02-11.4-10.2-13.1v-3.9a102.275 102.275 0 0 0 23.63-6.97v13.6c3.4-2.55 7.14-5.1 11.4-8 4.76-3.06 9.18-5.1 14.1-5.1 13.43 0 21.93 9.52 21.93 25.84v32.8c0 11.56.85 12.24 10.7 13.26v4.42zM66.1 447.75a17.24 17.24 0 0 1-7.14 2.21c-10.7 0-16.66-6.8-16.66-20.23v-49.47H30.57l-.68-1.7 4.6-4.93h7.82v-12.4L53.35 350l2.38.34v23.3h19.2c1.53 1.7 1.02 5.44-1.02 6.63H55.7v43.7c0 13.77 5.6 16.32 9.86 16.32a24.301 24.301 0 0 0 10.54-2.89l1.53 4.42z" class="H"/><use xlink:href="#H" x="-180.03" y="297.767" class="H"/><path d="M231.675 449.96a13.864 13.864 0 0 1-7.99-3.23 17.667 17.667 0 0 1-4.08-7.649c-6.8 4.6-14.96 10.88-20.06 10.88-12.07 0-20.4-10.03-20.4-20.74 0-8.33 4.42-13.6 13.77-16.83 10.2-3.4 22.6-8 26.35-11.05v-3.06c0-12.24-5.78-19.2-14.28-19.2a9.589 9.589 0 0 0-7.65 3.4c-2.2 2.2-3.74 5.95-5.1 11.22a4.732 4.732 0 0 1-4.93 3.91c-3.06 0-7.48-3.4-7.48-7.3 0-2.55 2.2-4.42 5.44-6.8 4.76-3.4 15.8-10.03 25.5-11.9a22.169 22.169 0 0 1 13.94 4.59c5.95 4.93 7.65 11.9 7.65 20.74v31.62c0 7.65 3.06 10.2 5.95 10.2a12.906 12.906 0 0 0 6.12-1.87l1.7 4.42zm-12.4-42.84c-3.57 1.87-11.73 5.44-15.3 7.14-6.63 3.06-10.37 6.29-10.37 12.41 0 8.84 6.8 13.1 12.07 13.1 4.42-.17 10.37-3.06 13.6-6.12z" class="H"/><use xlink:href="#N" class="H"/><use xlink:href="#N" x="82.789" class="H"/><use xlink:href="#H" x="152.658" y="297.767" class="H"/><path d="M563.007 443.84a190.512 190.512 0 0 0-24.99 6.12l-1.02-1.02v-12.07c-3.9 2.9-7.82 5.95-12.58 8.84-4.93 2.9-8.5 4.25-13.1 4.25-11.4 0-21.08-6.97-21.08-25.33V391.3c0-9.35-.68-10.03-10.37-11.9v-3.9a202.245 202.245 0 0 0 24.31-3.061c-.5 5.27-.5 13.26-.5 24.82v22.78c0 15.13 7.3 19.2 14.96 19.2 6.12 0 12.58-2.55 18.36-8.16v-39.61c0-9.69-1.02-10.37-13.26-12.07v-3.9a180.952 180.952 0 0 0 26.689-3.061v56.78c0 8.5 1.36 9.7 7.82 10.03l4.76.34z" class="H"/><use xlink:href="#N" x="319.599" class="H"/><path d="M706.486 432.62c-7.48 9.86-18.87 17.34-28.9 17.34-21.42 0-34-17.34-34-35.53 0-13.1 5.6-24.48 17-33.32 8.84-6.8 19.04-9.52 25.67-9.52 6.8 0 12.4 2.2 15.13 4.42 2.2 1.87 2.72 3.4 2.72 5.27 0 3.57-3.74 7.3-5.6 7.3-.85 0-1.7-.5-3.23-1.87a24.654 24.654 0 0 0-17-6.97c-11.22 0-21.08 9.35-21.08 27.2 0 23.63 16.15 31.45 25.67 31.45 7.3 0 12.92-2.04 20.74-9.35zm59.498.85c-10.7 13.43-22.44 16.5-27.7 16.5-20.9 0-33.15-17-33.15-36.2a43.778 43.778 0 0 1 11.21-29.77c6.97-7.82 16.15-12.4 25-12.4 14.1 0 25.5 12.58 25.5 25.84 0 3.4-.85 4.76-3.9 5.44-2.9.5-24.14 2.2-44.37 2.9.17 23.12 13.43 32.64 25.33 32.64 6.8 0 13.26-2.72 19.38-8.5zm-46.58-34.68a824.59 824.59 0 0 0 28.729-.51c3.06 0 4.08-1.02 4.08-3.4.17-8.84-5.6-17-14.96-17-7.82 0-15.3 7.14-17.85 20.9z" class="H"/><use xlink:href="#O" class="H"/><g fill="#fff"><path d="M204.448 521.55c-1.575 2.8-5.075 7.35-7.875 8.925l-9.975-.525c3.325 3.85 5.25 9.275 5.25 15.575 0 18.9-15.75 28-30.625 28a73.508 73.508 0 0 1-8.925-.875c-2.45 1.575-5.25 4.725-5.25 7.175 0 3.5 3.15 6.825 11.025 6.825l18.375-.175c10.85 0 25.2 3.5 25.2 20.65 0 17.676-20.476 34.65-43.75 34.65-19.425 0-30.1-11.375-30.275-21.35a13.629 13.629 0 0 1 4.2-9.8 167.391 167.391 0 0 1 14.525-12.25 23.297 23.297 0 0 1-12.95-9.625 13.154 13.154 0 0 1-1.925-7.351 37.683 37.683 0 0 0 15.4-10.675 25.245 25.245 0 0 1-15.4-23.45c0-19.95 17.85-29.05 31.325-29.05a34.835 34.835 0 0 1 16.8 4.375 204.727 204.727 0 0 0 23.801-2.45zm-54.95 81.026c-4.55 3.675-8.05 8.575-8.05 13.65 0 9.45 10.15 16.625 23.1 16.625 16.625 0 25.2-8.575 25.2-19.426 0-5.95-2.975-10.325-8.05-12.425-4.375-1.75-9.45-2.275-16.8-2.275-8.4 0-12.25 1.05-15.4 3.85zm-2.975-58.102c0 13.65 6.65 23.45 16.45 23.45 7.7-.175 14.525-7 14.525-20.825s-6.475-23.625-16.45-23.625c-7.7 0-14.525 7.35-14.525 21z"/><path d="M226.843 536.775c5.25-8.75 12.775-18.55 21.176-18.55 5.95 0 10.15 4.55 10.15 8.75a9.831 9.831 0 0 1-5.6 8.575c-2.1.875-3.675.7-4.725-.35-2.45-2.626-4.55-3.676-7.35-3.676-4.55 0-10.15 5.25-14 15.05v32.025c0 11.55.875 12.6 14.35 13.65v4.55h-40.25v-4.55c10.85-1.05 12.075-2.1 12.075-13.65v-36.226c0-11.55-.875-12.25-10.85-13.65v-3.85a98.991 98.991 0 0 0 24.676-7.176v19.075z"/><use xlink:href="#P"/><use xlink:href="#P" x="64.746"/><path d="M430.714 596.802v-4.55c10.325-1.05 11.55-2.45 11.55-14.525V548.5c0-12.075-4.2-19.95-15.925-19.95-7 0-13.825 4.375-19.075 8.925V578.6c0 11.9 1.05 12.6 11.375 13.65v4.55h-37.976v-4.55c11.9-1.226 12.775-2.1 12.775-13.65v-36.226c0-11.2-1.05-11.726-10.5-13.476v-4.024a105.266 105.266 0 0 0 24.326-7.176v14c3.5-2.625 7.35-5.25 11.725-8.225 4.9-3.15 9.45-5.25 14.525-5.25 13.826 0 22.576 9.8 22.576 26.6V578.6c0 11.9.875 12.6 11.025 13.65v4.55zm149.798-4.55c-3.85.7-16.975 2.975-27.125 6.65v-11.375l-10.675 6.3c-6.825 4.024-11.55 5.074-13.65 5.074-14 0-32.376-12.774-32.376-37.275 0-24.325 21.35-43.4 45.15-43.4a40.402 40.402 0 0 1 11.55 1.925v-24.675c0-11.55-.875-12.075-13.475-12.95v-4.2c9.1-1.225 20.825-3.85 27.3-6.125v104.477c0 9.1 1.225 9.975 7.7 10.675l5.6.525zm-27.125-58.626c-4.2-6.125-11.375-8.926-18.025-8.926-8.05 0-22.75 6.825-22.75 32.2 0 20.825 12.775 30.976 23.976 30.976 6.3 0 12.6-2.8 16.8-5.95z"/><use xlink:href="#P" x="324.968"/><use xlink:href="#O" x="609.86"/><path d="M706.68 596.802v-4.55c11.025-1.05 12.6-2.1 12.6-13.65v-82.776c0-11.9-1.05-12.426-12.075-13.3v-4.2a134.586 134.586 0 0 0 25.9-6.125v106.402c0 11.55 1.4 12.6 12.6 13.65v4.55z"/></g><path d="M82.1 752.692v-2.576c7.452-.735 7.82-1.195 7.728-10.947l-.276-37.534h-.368l-22.45 50.415h-1.84l-20.607-49.126h-.184l-1.38 26.22c-.368 7.544-.368 11.592-.276 15.27.184 4.415 2.392 5.06 8.463 5.703v2.576H29.467v-2.576c5.335-.644 7.175-1.655 7.82-5.52.46-3.22 1.012-7.268 1.748-16.835l1.288-19.135c.828-11.96.368-12.328-8.003-13.155v-2.576h15.087l20.975 45.998 21.25-45.998h15.64v2.576c-8.095.735-8.74.92-8.463 10.396l.92 33.302c.276 9.752.552 10.212 8.556 10.947v2.576zm51.887 1.104a7.503 7.503 0 0 1-4.324-1.747 9.561 9.561 0 0 1-2.208-4.141c-3.68 2.484-8.096 5.888-10.855 5.888a11.105 11.105 0 0 1-11.04-11.223c0-4.508 2.392-7.36 7.452-9.107 5.52-1.84 12.235-4.324 14.26-5.98v-1.655c0-6.624-3.128-10.396-7.728-10.396a5.187 5.187 0 0 0-4.14 1.84c-1.196 1.195-2.024 3.22-2.76 6.07a2.562 2.562 0 0 1-2.668 2.116c-1.656 0-4.048-1.84-4.048-3.956 0-1.38 1.196-2.392 2.944-3.68 2.576-1.84 8.556-5.428 13.8-6.44a12 12 0 0 1 7.544 2.483c3.22 2.668 4.14 6.44 4.14 11.224v17.1c0 4.14 1.656 5.52 3.22 5.52a6.984 6.984 0 0 0 3.312-1.012l.92 2.392zm-6.715-23.183c-1.932 1.012-6.348 2.944-8.28 3.864-3.588 1.655-5.612 3.403-5.612 6.716a6.735 6.735 0 0 0 6.532 7.083 13.156 13.156 0 0 0 7.36-3.312z" class="H"/><path d="M164.982 752.692V750.3c5.428-.553 6.072-1.288 6.072-7.636v-15.363c0-6.348-2.208-10.487-8.372-10.487-3.68 0-7.268 2.3-10.027 4.69v21.62c0 6.256.552 6.623 5.98 7.176v2.392h-19.963V750.3c6.255-.645 6.715-1.104 6.715-7.176v-19.043c0-5.888-.552-6.164-5.52-7.084v-2.115a55.341 55.341 0 0 0 12.788-3.772v7.36c1.84-1.38 3.864-2.76 6.164-4.323 2.576-1.656 4.968-2.76 7.635-2.76 7.268 0 11.868 5.15 11.868 13.983v17.755c0 6.256.46 6.623 5.795 7.176v2.392z" class="H"/><use xlink:href="#Q" class="H"/><path d="M209.234 712.5v-2.023a25.809 25.809 0 0 1 1.012-7.544 22.193 22.193 0 0 1 7.084-10.764 18.738 18.738 0 0 1 10.119-4.968 9.944 9.944 0 0 1 7.268 3.128 3.001 3.001 0 0 1 .46 3.22 5.271 5.271 0 0 1-1.748 2.208 1.628 1.628 0 0 1-2.484-.275c-1.84-1.656-4.416-3.404-7.452-3.404a5.322 5.322 0 0 0-4.876 2.76c-1.196 1.748-2.208 6.164-2.116 13.983v3.68h10.855a3.183 3.183 0 0 1-.92 3.588h-9.936v26.495c0 6.808.644 7.083 7.912 7.82v2.3h-21.71V750.3c5.888-.553 6.532-1.013 6.532-7.084v-27.14h-6.44l-.368-.92 2.484-2.668z" class="H"/><use xlink:href="#R" class="H"/><use xlink:href="#S" class="H"/><use xlink:href="#T" class="H"/><use xlink:href="#U" class="H"/><path d="M384.95 712.767a10.289 10.289 0 0 1 4.508-1.38c10.2 0 16.283 8.28 16.283 17.387 0 13.892-10.947 22.815-22.907 25.022a15.678 15.678 0 0 1-6.348-1.655v12.05c0 6.992.644 7.452 7.82 8.096v2.484h-21.803v-2.484c5.888-.552 6.716-1.104 6.716-7.176v-41.58c0-5.98-.368-6.164-6.072-6.9v-2.208a69.581 69.581 0 0 0 13.339-3.955v7.268zm-8.463 32.935a12.734 12.734 0 0 0 8.647 3.587c7.728 0 12.88-6.623 12.88-17.02 0-9.844-5.612-15.363-12.328-15.363-2.944 0-6.715 2.023-9.2 3.864zm42.873-24.564c2.76-4.6 6.716-9.75 11.132-9.75 3.127 0 5.335 2.392 5.335 4.6a5.168 5.168 0 0 1-2.944 4.508 2.134 2.134 0 0 1-2.484-.184 4.943 4.943 0 0 0-3.864-1.933c-2.392 0-5.336 2.76-7.36 7.912v16.835c0 6.07.46 6.623 7.543 7.176v2.392h-21.16V750.3c5.704-.553 6.348-1.104 6.348-7.176V724.08c0-6.072-.46-6.44-5.704-7.176v-2.023a52.053 52.053 0 0 0 12.972-3.772v10.027z" class="H"/><use xlink:href="#U" x="125.763" class="H"/><path d="M523.87 752.692V750.3c5.428-.553 6.44-.92 6.44-7.452v-15.363c0-6.53-2.3-10.67-8.095-10.67-3.312 0-6.808 1.84-10.304 4.783a21.526 21.526 0 0 1 .276 3.864V743.4c0 5.796.828 6.348 5.888 6.9v2.392h-19.687V750.3c5.704-.553 6.532-1.013 6.532-7.084v-15.823c0-6.808-2.392-10.58-8.003-10.58-3.68 0-7.268 2.483-10.027 4.783v21.62c0 5.98.736 6.53 5.244 7.084v2.392h-19.41V750.3c6.072-.553 6.9-1.104 6.9-7.084v-19.043c0-5.888-.276-6.348-5.61-7.176v-2.115a56.158 56.158 0 0 0 12.787-3.772v7.452c1.932-1.288 3.956-2.944 6.716-4.692a13.68 13.68 0 0 1 7.543-2.483c4.416 0 8.372 2.76 10.21 7.543a86.134 86.134 0 0 1 7.636-5.151 12.71 12.71 0 0 1 6.899-2.392c7.176 0 11.684 5.06 11.684 14.075v17.755c0 6.164.736 6.53 5.98 7.084v2.392z" class="H"/><use xlink:href="#Q" x="359.256" class="H"/><use xlink:href="#S" x="304.518" class="H"/><use xlink:href="#V" class="H"/><use xlink:href="#W" class="H"/><path d="M686.245 752.6a9.324 9.324 0 0 1-3.864 1.195c-5.795 0-9.015-3.68-9.015-10.947v-26.77h-6.348l-.368-.92 2.484-2.668h4.232v-6.716l5.98-6.07 1.288.184V712.5h10.396a2.617 2.617 0 0 1-.552 3.588h-9.843v23.643c0 7.452 3.036 8.832 5.335 8.832a13.144 13.144 0 0 0 5.704-1.564l.828 2.393z" class="H"/><use xlink:href="#X" class="H"/><g class="I"><use xlink:href="#Y"/><path d="M825.528 750.484a103.135 103.135 0 0 0-13.523 3.312l-.552-.552v-6.53l-6.808 4.783c-2.668 1.564-4.6 2.3-7.083 2.3-6.164 0-11.407-3.77-11.407-13.707v-18.03c0-5.06-.368-5.428-5.612-6.44v-2.116a109.24 109.24 0 0 0 13.155-1.655c-.276 2.852-.276 7.176-.276 13.43v12.328c0 8.188 3.956 10.396 8.095 10.396a14.296 14.296 0 0 0 9.936-4.416V722.15c0-5.244-.552-5.612-7.175-6.532v-2.116a97.82 97.82 0 0 0 14.443-1.655v30.727c0 4.6.736 5.243 4.232 5.428l2.576.184z"/><use xlink:href="#T" x="537.914"/><use xlink:href="#Y" x="114.168"/><path d="M934.914 731.9c0 14.812-10.855 21.895-19.963 21.895-12.604 0-20.147-10.12-20.147-20.33 0-15.18 11.776-22.08 20.147-22.08 11.407 0 19.963 9.107 19.963 20.515zm-31.555-1.38c0 11.592 5.06 20.24 12.604 20.24 5.704 0 10.396-4.232 10.396-16.835 0-10.764-4.323-19.504-12.327-19.504-5.704 0-10.672 5.704-10.672 16.1zm61.915 23.276a7.503 7.503 0 0 1-4.324-1.747 9.557 9.557 0 0 1-2.208-4.141c-3.68 2.484-8.096 5.888-10.855 5.888a11.105 11.105 0 0 1-11.039-11.223c0-4.508 2.392-7.36 7.45-9.107 5.52-1.84 12.235-4.324 14.26-5.98v-1.655c0-6.624-3.128-10.396-7.728-10.396a5.187 5.187 0 0 0-4.14 1.84c-1.196 1.195-2.024 3.22-2.76 6.07a2.562 2.562 0 0 1-2.668 2.116c-1.656 0-4.048-1.84-4.048-3.956 0-1.38 1.195-2.392 2.943-3.68 2.576-1.84 8.556-5.428 13.8-6.44a11.997 11.997 0 0 1 7.543 2.483c3.22 2.668 4.14 6.44 4.14 11.224v17.1c0 4.14 1.655 5.52 3.22 5.52a6.984 6.984 0 0 0 3.312-1.012l.92 2.392zm-6.716-23.183c-1.932 1.012-6.348 2.944-8.28 3.864-3.588 1.655-5.612 3.403-5.612 6.716a6.735 6.735 0 0 0 6.532 7.083 13.157 13.157 0 0 0 7.359-3.312z"/><path d="M969.966 752.692V750.3c5.796-.553 6.624-1.104 6.624-7.176V699.61c0-6.256-.553-6.532-6.348-6.992v-2.208a70.736 70.736 0 0 0 13.615-3.22v55.934c0 6.07.735 6.623 6.623 7.176v2.392z"/></g><path d="M1010.26 750.76c0 7.083-6.44 11.04-12.052 12.695l-1.012-2.668c4.416-1.84 7.084-4.23 7.084-7.728 0-3.312-2.576-5.428-5.796-6.164-.46-.092-1.104-.735-1.104-2.3 0-2.3 2.208-3.77 4.416-3.77 3.312 0 8.464 3.496 8.464 9.936zm-955.494 52.9a10.289 10.289 0 0 1 4.508-1.38c10.2 0 16.283 8.28 16.283 17.387 0 13.892-10.948 22.815-22.907 25.022a15.679 15.679 0 0 1-6.348-1.655v12.05c0 6.992.644 7.452 7.82 8.096v2.484H32.32v-2.484c5.888-.552 6.716-1.104 6.716-7.176v-41.58c0-5.98-.368-6.164-6.072-6.9v-2.208a69.58 69.58 0 0 0 13.339-3.955v7.268zm-8.463 32.935a12.734 12.734 0 0 0 8.647 3.587c7.728 0 12.88-6.623 12.88-17.02 0-9.844-5.612-15.363-12.328-15.363-2.944 0-6.715 2.023-9.2 3.864z" class="H"/><use xlink:href="#Z" class="H"/><use xlink:href="#U" x="-204.42" y="90.884" class="H"/><path d="M193.684 843.575v-2.392c5.428-.553 6.44-.92 6.44-7.452v-15.363c0-6.53-2.3-10.67-8.095-10.67-3.312 0-6.808 1.84-10.304 4.783a21.526 21.526 0 0 1 .276 3.864v17.938c0 5.796.828 6.348 5.888 6.9v2.392H168.2v-2.392c5.704-.553 6.532-1.013 6.532-7.084v-15.823c0-6.808-2.392-10.58-8.003-10.58-3.68 0-7.268 2.483-10.027 4.783v21.62c0 5.98.736 6.53 5.244 7.084v2.392h-19.41v-2.392c6.072-.553 6.9-1.104 6.9-7.084v-19.043c0-5.888-.276-6.348-5.61-7.176v-2.115a56.158 56.158 0 0 0 12.787-3.772v7.452c1.932-1.288 3.956-2.944 6.716-4.692a13.68 13.68 0 0 1 7.543-2.483c4.416 0 8.372 2.76 10.21 7.543a86.134 86.134 0 0 1 7.636-5.151 12.71 12.71 0 0 1 6.899-2.392c7.176 0 11.684 5.06 11.684 14.075V834.1c0 6.164.736 6.53 5.98 7.084v2.392z" class="H"/><use xlink:href="#X" x="-477.566" y="90.884" class="H"/><path d="M271.057 843.483a9.324 9.324 0 0 1-3.864 1.195c-5.795 0-9.015-3.68-9.015-10.947v-26.77h-6.348l-.368-.92 2.484-2.668h4.232v-6.716l5.98-6.07 1.288.184v12.604h10.396a2.617 2.617 0 0 1-.552 3.588h-9.843v23.643c0 7.452 3.036 8.832 5.335 8.832a13.144 13.144 0 0 0 5.704-1.564l.828 2.393z" class="H"/><use xlink:href="#R" x="51.059" y="90.883" class="H"/><g class="I"><use xlink:href="#Z" x="248.49"/><use xlink:href="#R" x="127.417" y="90.883"/><path d="M410.8 843.575v-2.392c5.428-.553 6.072-1.288 6.072-7.636v-15.363c0-6.348-2.208-10.487-8.372-10.487-3.68 0-7.268 2.3-10.027 4.7v21.62c0 6.256.552 6.623 5.98 7.176v2.392H384.5v-2.392c6.255-.645 6.715-1.104 6.715-7.176v-19.043c0-5.888-.552-6.164-5.52-7.084v-2.115a55.341 55.341 0 0 0 12.788-3.772v7.36c1.84-1.38 3.864-2.76 6.164-4.323 2.576-1.656 4.968-2.76 7.635-2.76 7.268 0 11.868 5.15 11.868 13.983v17.755c0 6.256.46 6.623 5.795 7.176v2.392zm51.796-7.82c-5.795 7.268-12.143 8.923-14.995 8.923-11.315 0-17.94-9.2-17.94-19.595a23.689 23.689 0 0 1 6.072-16.099c3.772-4.232 8.74-6.716 13.523-6.716 7.635 0 13.8 6.808 13.8 13.983 0 1.84-.46 2.575-2.116 2.943-1.564.276-13.063 1.196-24 1.564.092 12.5 7.268 17.663 13.708 17.663 3.68 0 7.175-1.473 10.487-4.6zM437.4 816.988a447.02 447.02 0 0 0 15.547-.275c1.656 0 2.208-.553 2.208-1.84.092-4.784-3.036-9.2-8.096-9.2-4.232 0-8.28 3.864-9.66 11.315zm87.202-11.315c-4.6.736-5.428 1.84-7.36 6.9-2.76 7.268-6.808 19.503-11.04 32.014h-2.576c-3.68-9.936-7.452-18.95-11.223-28.6l-10.855 28.6h-2.668c-3.312-10.947-6.808-21.803-10.58-32.842-1.656-4.784-2.484-5.428-6.9-6.072v-2.3h19.043v2.3c-5.52.92-5.98 1.473-4.6 5.612l6.716 21.435h.184l10.67-28.887h2.392c3.404 9.567 7.175 19.32 11.04 29.163h.184c2.024-6.348 4.6-14.352 6.256-21.16 1.196-4.784.644-5.336-5.336-6.164v-2.3h16.65z"/><use xlink:href="#a"/><path d="M573.64 803.2a9.682 9.682 0 0 1 3.771-.92c9.844 0 18.123 8.463 18.123 19.318a22.868 22.868 0 0 1-23.091 23.091 32.118 32.118 0 0 1-13.523-3.312v-51.15c0-5.703-.184-6.256-6.072-6.808v-2.116a74.549 74.549 0 0 0 13.339-3.22v28.335zm-7.452 29.714a7.334 7.334 0 0 0 .552 3.128c.552 1.84 3.312 5.06 8.188 5.152 7.636 0 12.512-6.532 12.512-17.203 0-10.487-6.44-16.56-14.076-16.56a15.301 15.301 0 0 0-7.175 1.748zm27.97 10.67v-2.392c5.796-.553 6.624-1.104 6.624-7.176v-43.514c0-6.256-.552-6.532-6.348-6.992v-2.208a70.719 70.719 0 0 0 13.615-3.22v55.934c0 6.07.736 6.623 6.624 7.176v2.392z"/><use xlink:href="#R" x="389.705" y="90.883"/><path d="M671.158 814.23c-1.748-5.428-4.967-9.107-9.475-9.107-3.496 0-5.98 2.76-5.98 6.348 0 4.14 3.68 6.256 7.82 8.004 6.9 2.852 11.59 6.163 11.59 12.51 0 8.372-7.82 12.695-15.18 12.695-4.692 0-8.924-1.747-10.58-3.127-.644-1.288-1.472-7.544-1.472-10.855l2.392-.46c1.656 6.07 5.796 11.407 11.315 11.407a6.417 6.417 0 0 0 6.532-6.439c0-4.048-2.668-6.256-7.268-8.372-5.52-2.576-11.5-5.61-11.5-12.695 0-6.44 5.52-11.867 13.983-11.867a21.415 21.415 0 0 1 8.188 1.563 69.142 69.142 0 0 1 2.024 9.844z"/></g><path d="M753.678 806.87c-6.44.736-7.635 2.392-10.67 6.808-2.576 3.588-4.784 7.36-8.003 12.235 3.864 3.864 12.235 13.155 14.995 18.5l-.644.92c-5.06-.46-10.12-2.576-11.223-3.77-1.104-1.38-4.968-5.704-8.004-8.924-6.624 8.924-12.695 12.235-19.227 12.235-11.683 0-18.215-8.74-18.215-16.743 0-8.464 6.072-12.144 13.8-17.755-4.14-3.956-6.624-7.82-6.624-12.788 0-8.187 7-14.535 15.087-14.535 7.452 0 13.615 5.336 13.615 12.695a10.524 10.524 0 0 1-3.864 8.096 82.532 82.532 0 0 1-7.452 5.52c3.036 2.576 9.568 8.28 15.456 14.26a63.583 63.583 0 0 0 5.52-10.579c1.748-4.232.92-5.336-5.612-6.164v-2.576h21.067zm-25.667 23.274a173.389 173.389 0 0 0-19.135-17.755c-6.07 4.23-8.372 8.647-8.372 13.155a12.468 12.468 0 0 0 12.696 12.972c6.255 0 11.775-4.14 14.8-8.372zm-21.527-34.773c0 4.783 2.852 8.003 8.372 12.235 4.416-3.22 6.808-6.808 6.808-11.775 0-5.244-3.128-9.66-7.636-9.66-4.324 0-7.543 3.68-7.543 9.2zm73.324 16.65c2.76-4.6 6.716-9.75 11.132-9.75 3.127 0 5.335 2.392 5.335 4.6a5.168 5.168 0 0 1-2.944 4.508 2.134 2.134 0 0 1-2.484-.184 4.943 4.943 0 0 0-3.864-1.933c-2.392 0-5.336 2.76-7.36 7.912v16.835c0 6.07.46 6.623 7.543 7.176v2.392h-21.16v-2.392c5.704-.553 6.348-1.104 6.348-7.176v-19.043c0-6.072-.46-6.44-5.704-7.176v-2.023a52.053 52.053 0 0 0 12.972-3.772v10.027z" class="H"/><use xlink:href="#R" x="569.562" y="90.883" class="H"/><use xlink:href="#a" x="306.447" class="H"/><path d="M896.922 835.296c-4.048 5.335-10.2 9.383-15.64 9.383-11.592 0-18.4-9.383-18.4-19.227 0-7.084 3.036-13.247 9.2-18.03a24.344 24.344 0 0 1 13.891-5.151 13.733 13.733 0 0 1 8.188 2.392 3.383 3.383 0 0 1 1.472 2.852c0 1.933-2.024 3.956-3.036 3.956-.46 0-.92-.275-1.748-1.012a13.34 13.34 0 0 0-9.2-3.771c-6.072 0-11.407 5.06-11.407 14.72 0 12.787 8.74 17.02 13.9 17.02 3.956 0 6.992-1.104 11.224-5.06zm23.09 8.28v-2.392c5.336-.553 6.072-1.104 6.072-7.084v-15.27c0-7.543-2.853-11.315-9.016-11.315a12.973 12.973 0 0 0-9.567 4.692V834.1c0 5.888.46 6.53 5.888 7.084v2.392h-19.503v-2.392c5.52-.46 6.348-1.013 6.348-7.084v-43.882c0-5.796-.185-6.256-6.256-6.808v-2.116a100.615 100.615 0 0 0 13.523-3.22v30.9c3.22-3.312 8.188-6.716 13.155-6.716 7.45 0 12.695 4.7 12.695 15.73v16.1c0 6.07.644 6.624 6.07 7.084v2.392z" class="H"/><g class="I"><path d="M59.734 934.46v-2.392c5.428-.552 6.072-1.288 6.072-7.636v-15.363c0-6.348-2.208-10.487-8.372-10.487-3.68 0-7.268 2.3-10.027 4.69v21.62c0 6.256.552 6.624 5.98 7.176v2.392H33.423v-2.392c6.255-.645 6.715-1.104 6.715-7.176V905.85c0-5.888-.552-6.164-5.52-7.084v-2.115a55.341 55.341 0 0 0 12.788-3.772v7.36c1.84-1.38 3.864-2.76 6.164-4.323 2.576-1.656 4.968-2.76 7.635-2.76 7.268 0 11.868 5.15 11.868 13.983v17.755c0 6.256.46 6.624 5.795 7.176v2.392z"/><use xlink:href="#V" x="-512.71" y="181.767"/><path d="M129.93 934.367a9.324 9.324 0 0 1-3.864 1.195c-5.795 0-9.015-3.68-9.015-10.947v-26.77h-6.348l-.368-.92 2.484-2.668h4.232v-6.716l5.98-6.07 1.288.184v12.604h10.395a2.617 2.617 0 0 1-.552 3.588h-9.843V921.5c0 7.452 3.036 8.832 5.335 8.832a13.144 13.144 0 0 0 5.704-1.564l.828 2.393zm27.598-18.123h-20.975l1.288-5.06h21.067zm39.007 6.623c-1.38 3.588-2.852 7.912-4.232 11.592h-30.358l-.552-1.38c7.912-11.684 15.363-23.46 22.907-35.786h-8.187c-6.624 0-7.82 1.472-10.396 6.624l-1.288 2.483-2.3-.828c1.012-3.496 2.392-9.383 3.128-13.34h1.932c.552 1.472 1.656 2.023 5.06 2.023h21.16l.552 1.288-22.447 35.878h9.107c6.992 0 8.832-1.932 12.328-7.45l1.196-2.208z"/><use xlink:href="#V" x="-396.242" y="181.767"/><path d="M242.074 902.904c2.76-4.6 6.716-9.75 11.13-9.75 3.128 0 5.336 2.392 5.336 4.6a5.168 5.168 0 0 1-2.944 4.508 2.132 2.132 0 0 1-2.484-.185 4.945 4.945 0 0 0-3.864-1.932c-2.392 0-5.336 2.76-7.36 7.912v16.835c0 6.07.46 6.624 7.543 7.176v2.392h-21.16v-2.392c5.704-.552 6.348-1.104 6.348-7.176V905.85c0-6.072-.46-6.44-5.704-7.176v-2.023a52.053 52.053 0 0 0 12.972-3.772v10.027z"/><use xlink:href="#b"/><path d="M345.755 926.64c-5.795 7.268-12.143 8.923-14.995 8.923-11.315 0-17.94-9.2-17.94-19.595a23.689 23.689 0 0 1 6.072-16.099c3.772-4.232 8.74-6.716 13.523-6.716 7.635 0 13.8 6.808 13.8 13.983 0 1.84-.46 2.575-2.116 2.943-1.564.276-13.063 1.196-24 1.564.092 12.5 7.268 17.663 13.708 17.663 3.68 0 7.175-1.473 10.487-4.6zm-25.206-18.768a447.02 447.02 0 0 0 15.547-.275c1.656 0 2.208-.553 2.208-1.84.092-4.784-3.036-9.2-8.096-9.2-4.232 0-8.28 3.864-9.66 11.315zm76.08 26.588v-2.392c5.428-.552 6.44-.92 6.44-7.452v-15.363c0-6.53-2.3-10.67-8.095-10.67-3.312 0-6.808 1.84-10.304 4.783a21.526 21.526 0 0 1 .276 3.864v17.938c0 5.796.828 6.35 5.888 6.9v2.392h-19.687v-2.392c5.704-.552 6.532-1.013 6.532-7.084V909.16c0-6.808-2.392-10.58-8.003-10.58-3.68 0-7.268 2.483-10.027 4.783v21.62c0 5.98.736 6.532 5.244 7.084v2.392h-19.4v-2.392c6.072-.552 6.9-1.104 6.9-7.084V905.94c0-5.888-.276-6.348-5.6-7.176v-2.115a56.158 56.158 0 0 0 12.787-3.772v7.452c1.932-1.288 3.956-2.944 6.716-4.692a13.68 13.68 0 0 1 7.543-2.483c4.416 0 8.372 2.76 10.2 7.543a86.135 86.135 0 0 1 7.636-5.151 12.71 12.71 0 0 1 6.899-2.392c7.176 0 11.684 5.06 11.684 14.075v17.755c0 6.164.736 6.532 5.98 7.084v2.392z"/><path d="M415.767 934.46v-2.392c5.796-.552 6.44-1.104 6.44-7.36v-18.95c0-5.704-.276-6.072-5.795-6.992v-2.208a57.963 57.963 0 0 0 13.063-3.588v31.738c0 6.256.644 6.81 6.53 7.36v2.392zm4.876-54a4.731 4.731 0 0 1 4.691-4.784 4.6 4.6 0 0 1 4.6 4.784 4.711 4.711 0 0 1-4.692 4.691 4.82 4.82 0 0 1-4.6-4.691z"/><use xlink:href="#W" x="-189.796" y="181.766"/><use xlink:href="#S" x="205.062" y="181.766"/><path d="M490.654 934.46v-2.392c5.796-.552 6.44-1.104 6.44-7.36v-18.95c0-5.704-.276-6.072-5.795-6.992v-2.208a57.964 57.964 0 0 0 13.063-3.588v31.738c0 6.256.644 6.81 6.53 7.36v2.392zm4.876-54a4.731 4.731 0 0 1 4.691-4.784 4.6 4.6 0 0 1 4.6 4.784 4.711 4.711 0 0 1-4.692 4.691 4.82 4.82 0 0 1-4.6-4.691z"/><use xlink:href="#b" x="254.19"/><path d="M576.12 934.46v-2.392c5.428-.552 6.072-1.288 6.072-7.636v-15.363c0-6.348-2.208-10.487-8.372-10.487-3.68 0-7.268 2.3-10.027 4.69v21.62c0 6.256.552 6.624 5.98 7.176v2.392H549.8v-2.392c6.255-.645 6.715-1.104 6.715-7.176V905.85c0-5.888-.552-6.164-5.52-7.084v-2.115a55.341 55.341 0 0 0 12.788-3.772v7.36c1.84-1.38 3.864-2.76 6.164-4.323 2.576-1.656 4.968-2.76 7.635-2.76 7.268 0 11.868 5.15 11.868 13.983v17.755c0 6.256.46 6.624 5.795 7.176v2.392z"/><use xlink:href="#S" x="336.804" y="181.766"/></g><path d="M656.252 894.073a9.682 9.682 0 0 1 3.771-.92c9.844 0 18.123 8.463 18.123 19.318a22.868 22.868 0 0 1-23.091 23.091 32.118 32.118 0 0 1-13.523-3.312V881.1c0-5.703-.184-6.256-6.072-6.808v-2.116a74.548 74.548 0 0 0 13.339-3.22v28.335zm-7.452 29.714a7.334 7.334 0 0 0 .552 3.128c.552 1.84 3.312 5.06 8.188 5.152 7.636 0 12.512-6.532 12.512-17.203 0-10.487-6.44-16.56-14.076-16.56a15.302 15.302 0 0 0-7.175 1.748zm69.734-27.23c-4.875.736-5.704 1.473-8.187 6.716-2.3 4.876-5.152 12.512-11.5 27.7-6.164 14.72-8.187 19.963-9.476 24.93a2.726 2.726 0 0 1-2.944 2.208c-2.576 0-5.244-2.208-5.244-4.416 0-1.472.828-2.3 2.392-3.312 2.852-1.84 4.692-4.14 6.808-8.187a35.095 35.095 0 0 0 2.852-6.348 5.855 5.855 0 0 0-.092-4.14c-3.68-10.487-7.82-21.62-10.58-28.15-1.932-5.06-2.852-6.256-7.912-6.992v-2.3h18.675v2.3c-4.232.736-4.692 1.656-3.496 5.06l8.372 23.1c2.576-6.255 6.532-17.1 8.464-22.906 1.104-3.496.46-4.508-4.784-5.244v-2.3h16.65zm48.566 25.85c-1.196 3.864-2.116 7.912-3.22 12.052h-34.406v-2.116c5.15-5.06 10.303-10.303 14.903-15.64 5.704-6.808 11.5-14.352 11.5-22.263 0-7.728-4.048-12.235-10.855-12.235-6.255 0-10.12 4.968-12.5 8.556l-2.024-1.84 5.244-7.45a16.713 16.713 0 0 1 12.419-5.428 15.103 15.103 0 0 1 15.455 15.547c0 8.004-3.68 13.432-12.143 22.447L738.4 927.744h17.2c4.968 0 6.164-.368 8.923-6.163z" class="H"/><use xlink:href="#c" class="H"/><path d="M815.503 900.88c3.496-1.288 7.82-2.76 10.304-2.76 11.775 0 17.755 8.003 17.755 15.547 0 5.52-2.576 10.764-8.187 15.363-4.968 4.048-11.13 6.44-16.007 6.53a15.589 15.589 0 0 1-9.476-3.22c-1.196-1.288-1.656-2.023-1.472-3.128a5.649 5.649 0 0 1 1.932-3.035 1.747 1.747 0 0 1 2.484 0 16.677 16.677 0 0 0 11.315 4.691c7.82 0 11.684-6.716 11.684-13.615 0-8.096-4.968-13.892-14.995-13.892a26.944 26.944 0 0 0-9.476 1.84l3.588-28.06h26.22l.552.736-2.392 5.98h-21.435z" class="H"/><use xlink:href="#c" x="77.279" class="H"/></svg>