<svg xmlns="http://www.w3.org/2000/svg" xmlns:xlink="http://www.w3.org/1999/xlink" viewBox="0 0 1080 1080" xmlns:v="https://vecta.io/nano"><style><![CDATA[.O{fill:#fff}.P{opacity:.4}.Q{fill:#f18330}.R{fill:#26b1fe}.S{stroke-miterlimit:10}]]></style><defs><linearGradient id="A" x1="82.397" y1="559.344" x2="997.749" y2="559.344" gradientUnits="userSpaceOnUse"><stop offset="0" stop-color="#f18330"/><stop offset=".1" stop-color="#e98538"/><stop offset=".252" stop-color="#d5894d"/><stop offset=".438" stop-color="#b3916f"/><stop offset=".649" stop-color="#849c9f"/><stop offset=".88" stop-color="#48a9dc"/><stop offset="1" stop-color="#26b1fe"/><stop offset="1"/></linearGradient><linearGradient id="B" x1="83.168" y1="818.184" x2="996.775" y2="818.184" xlink:href="#A"/><path id="C" d="M104.814 1045.51a1.36 1.36 0 0 1-1.4-1.101 7.763 7.763 0 0 1-4.804 1.668 7.666 7.666 0 0 1-7.604-7.605v-9.24a1.434 1.434 0 0 1 2.868-.033v9.272a4.753 4.753 0 1 0 9.507 0v-9.24a1.33 1.33 0 0 1 1.4-1.468 1.364 1.364 0 0 1 1.435 1.435v14.9a1.328 1.328 0 0 1-1.401 1.4z"/><path id="D" d="M518.487 1046.357c-1.2 0-3.22-.42-3.92-1.58a.478.478 0 0 1-.08-.299.546.546 0 0 1 1.021-.32 3.815 3.815 0 0 0 2.98 1.061c1.94 0 2.92-.64 2.92-1.94 0-3.02-6.562-1.42-6.562-5.422 0-2.02 2.02-2.8 3.84-2.8a5.415 5.415 0 0 1 3.44 1.16.556.556 0 0 1 .18.379.647.647 0 0 1-.62.6.527.527 0 0 1-.38-.16 4.001 4.001 0 0 0-2.62-.84c-1.76 0-2.7.682-2.7 1.66 0 2.8 6.562 1.32 6.562 5.422 0 2.28-2 3.08-4.06 3.08z"/><path id="E" d="M529.208 1046.318c-3.22 0-5.02-2.64-5.02-5.662 0-3 1.8-5.64 5.02-5.64s5.02 2.64 5.02 5.64c0 3.02-1.8 5.662-5.02 5.662zm0-10.162c-2.36 0-3.88 1.9-3.88 4.5s1.52 4.52 3.88 4.52c2.38 0 3.88-1.92 3.88-4.52s-1.5-4.5-3.88-4.5z"/><path id="F" d="M552.947 1036.336a3.418 3.418 0 0 0-3.421 3.42v5.662a.57.57 0 0 1-1.141 0v-9.502a.57.57 0 0 1 1.141 0v.82a4.566 4.566 0 0 1 3.421-1.541.57.57 0 1 1 0 1.141z"/><path id="G" d="M563.128 1044.797a4.646 4.646 0 0 1-3.58 1.521c-3.22 0-5.02-2.64-5.02-5.662 0-3 1.8-5.64 5.02-5.64a4.651 4.651 0 0 1 3.58 1.52.534.534 0 0 1 .16.381.626.626 0 0 1-.58.6.586.586 0 0 1-.42-.199 3.526 3.526 0 0 0-2.74-1.16c-2.36 0-3.88 1.9-3.88 4.5s1.52 4.52 3.88 4.52a3.592 3.592 0 0 0 2.74-1.16.586.586 0 0 1 .42-.199.594.594 0 0 1 .58.58.569.569 0 0 1-.16.398z"/><path id="H" d="M574.708 1041.236h-8.302c.18 2.28 1.66 3.94 3.84 3.94a3.615 3.615 0 0 0 2.94-1.381.526.526 0 0 1 .479-.279.611.611 0 0 1 .62.541c0 .18 0 .22-.38.658a4.718 4.718 0 0 1-3.66 1.602c-3.22 0-5.02-2.64-5.02-5.662 0-3 1.8-5.64 5.02-5.64s5.02 2.66 5.02 5.64a.605.605 0 0 1-.56.58zm-4.46-5.08c-2.4 0-3.66 1.84-3.84 3.94h7.7c-.18-2.28-1.66-3.94-3.86-3.94z"/><path id="I" d="M622.587 1045.98h-.02a2.073 2.073 0 0 1-1.98-1.561 4.538 4.538 0 0 1-3.88 1.9c-3.26 0-5.02-2.682-5.02-5.662 0-3.02 1.8-5.64 5.02-5.64a4.572 4.572 0 0 1 3.88 1.881v-.98a.565.565 0 0 1 .581-.561.547.547 0 0 1 .56.561v8.063c0 1.28 1.44.48 1.44 1.44a.55.55 0 0 1-.58.561zm-5.88-9.822c-2.36 0-3.88 1.9-3.88 4.5s1.52 4.52 3.88 4.52c2.38 0 3.88-1.92 3.88-4.52s-1.5-4.5-3.88-4.5z"/><path id="J" d="M678.803 1046.098a2.096 2.096 0 0 1-1.98-2.119v-11.684a.57.57 0 0 1 1.141 0v11.684c0 1.28 1.42.54 1.42 1.44a.645.645 0 0 1-.58.68z"/><path id="K" d="M714.204 1036.156l-5.42 12.822a2.072 2.072 0 0 1-2.141 1.201h-.88a.563.563 0 0 1-.56-.58.557.557 0 0 1 .56-.561h.88c.44 0 .9-.02 1.08-.48l1.14-2.72-4.142-9.682a.633.633 0 0 1-.04-.26.56.56 0 0 1 .58-.541.513.513 0 0 1 .5.34l3.722 8.682 3.68-8.682a.521.521 0 0 1 .52-.34.543.543 0 0 1 .561.541.633.633 0 0 1-.04.26z"/><path id="L" d="M731.044 1044.137a5.123 5.123 0 0 1-4.461 2.182c-4.3 0-5.82-3.56-5.82-7.46 0-3.922 1.52-7.482 5.82-7.482a5.067 5.067 0 0 1 4.44 2.18.407.407 0 0 1 .12.32.6.6 0 0 1-.62.561.528.528 0 0 1-.439-.221 3.939 3.939 0 0 0-3.501-1.699c-3.32 0-4.682 2.6-4.682 6.342 0 3.72 1.36 6.32 4.682 6.32a3.988 3.988 0 0 0 3.541-1.701.465.465 0 0 1 .439-.26.612.612 0 0 1 .601.58.63.63 0 0 1-.12.34z"/><path id="M" d="M753.843 1045.98a.563.563 0 0 1-.58-.561v-5.842a3.42 3.42 0 0 0-6.841 0v5.842a.57.57 0 0 1-1.141 0v-9.502a.57.57 0 0 1 1.141 0v.64a4.563 4.563 0 0 1 7.981 3.02v5.842a.558.558 0 0 1-.561.561z"/><path id="N" d="M760.722 1045.98h-.62a2.075 2.075 0 0 1-2.36-2.342v-7.14h-1.02a.57.57 0 0 1 0-1.141h1.02v-3.06a.563.563 0 0 1 .58-.561.547.547 0 0 1 .56.561v3.06h1.84a.57.57 0 0 1 0 1.141h-1.84v7.14c0 .98.28 1.2 1.22 1.2h.62a.57.57 0 0 1 0 1.141z"/><path id="O" d="M816.66 1033.436a1.141 1.141 0 1 1 1.141-1.141 1.127 1.127 0 0 1-1.141 1.141zm0 12.543a.55.55 0 0 1-.58-.561v-9.502a.552.552 0 0 1 .58-.561.545.545 0 0 1 .561.561v9.502a.536.536 0 0 1-.561.561z"/><path id="P" d="M828.222 1036.137l-3.94 9.38c-.12.26-.3.46-.56.46a.682.682 0 0 1-.58-.461l-3.94-9.36a.633.633 0 0 1-.04-.26.56.56 0 0 1 .58-.541.513.513 0 0 1 .5.34l3.48 8.223 3.46-8.223a.57.57 0 0 1 1.1.18.489.489 0 0 1-.06.262z"/><path id="Q" d="M899.44 1032.855h-.62a.885.885 0 0 0-.881.859v1.64h1.5a.545.545 0 0 1 .56.561.563.563 0 0 1-.56.58h-1.5v8.922a.546.546 0 0 1-.56.561.534.534 0 0 1-.561-.561v-8.922h-1.38a.57.57 0 0 1 0-1.141h1.38v-1.64a1.986 1.986 0 0 1 1.98-1.98h.64a.569.569 0 0 1 .58.58.536.536 0 0 1-.58.541z"/><path id="R" d="M115.423 257.4h-11.62c.252 3.19 2.323 5.516 5.376 5.516a5.059 5.059 0 0 0 4.115-1.932.734.734 0 0 1 .672-.393.856.856 0 0 1 .868.757c0 .252 0 .308-.53.924a6.611 6.611 0 0 1-5.124 2.239c-4.51 0-7.028-3.695-7.028-7.924 0-4.2 2.52-7.895 7.028-7.895s7.027 3.724 7.027 7.895a.848.848 0 0 1-.784.813zm-6.243-7.112c-3.36 0-5.124 2.576-5.376 5.516h10.78c-.252-3.19-2.324-5.516-5.403-5.516z"/><path id="S" d="M220.4 250.54a4.785 4.785 0 0 0-4.788 4.788v7.924a.798.798 0 0 1-1.597 0v-13.3a.798.798 0 0 1 1.597 0v1.148a6.393 6.393 0 0 1 4.788-2.156.798.798 0 1 1 0 1.596z"/><path id="T" d="M1022.88 894.388l.384-.288h2.208a.284.284 0 0 1 .32.32v19.744q-.097.32.256.32h4.063c.234-.063.33.023.288.26v1.56c.02.238-.075.336-.288.293h-11.04q-.352.032-.32-.293v-1.56q-.064-.356.32-.26h4.192q.32 0 .288-.32v-16.672c0-.235-.097-.257-.288-.064a13.703 13.703 0 0 1-4.288 2.496c-.15.085-.245.043-.288-.128v-1.6a.31.31 0 0 1 .224-.288 7.988 7.988 0 0 0 3.969-3.52h0z"/><path id="U" d="M203.894 960.383a3.673 3.673 0 0 1-3.6-3.672v-20.48a1.548 1.548 0 0 1 3.096-.036v20.518a.569.569 0 0 0 .504.612 1.53 1.53 0 1 1 0 3.06z"/><path id="V" d="M406.862 937.897a2.592 2.592 0 1 1 2.592-2.592 2.58 2.58 0 0 1-2.592 2.592zm0 22.03a1.512 1.512 0 0 1-1.584-1.512V942.36a1.52 1.52 0 0 1 1.584-1.548 1.483 1.483 0 0 1 1.512 1.548v16.054a1.452 1.452 0 0 1-1.512 1.512z"/><path id="W" d="M115.306 989.48c-1.68 0-4.508-.588-5.487-2.212a.675.675 0 0 1-.112-.42.764.764 0 0 1 1.428-.448c1.008 1.23 2.8 1.483 4.172 1.483 2.717 0 4.088-.896 4.088-2.716 0-4.228-9.184-1.987-9.184-7.588 0-2.828 2.828-3.92 5.376-3.92a7.587 7.587 0 0 1 4.816 1.624.784.784 0 0 1 .252.532.908.908 0 0 1-.868.84.742.742 0 0 1-.532-.224 5.599 5.599 0 0 0-3.668-1.177c-2.464 0-3.78.952-3.78 2.324 0 3.92 9.185 1.85 9.185 7.588 0 3.192-2.8 4.313-5.685 4.313z"/><path id="X" d="M137.986 988.948h-.028a2.898 2.898 0 0 1-2.771-2.184 6.355 6.355 0 0 1-5.433 2.659c-4.563 0-7.027-3.752-7.027-7.924 0-4.228 2.52-7.896 7.027-7.896a6.403 6.403 0 0 1 5.433 2.632v-1.372a.789.789 0 0 1 .812-.784.764.764 0 0 1 .784.784v11.284c0 1.792 2.016.672 2.016 2.016a.77.77 0 0 1-.812.784zm-8.232-13.748c-3.304 0-5.432 2.66-5.432 6.3s2.128 6.328 5.432 6.328c3.332 0 5.433-2.687 5.433-6.328s-2.1-6.3-5.433-6.3z"/><path id="Y" d="M166.405 982.313h-11.62c.252 3.19 2.324 5.516 5.376 5.516a5.06 5.06 0 0 0 4.116-1.932.734.734 0 0 1 .672-.393.856.856 0 0 1 .868.757c0 .252 0 .308-.532.924a6.611 6.611 0 0 1-5.124 2.239c-4.508 0-7.027-3.695-7.027-7.924 0-4.2 2.52-7.896 7.027-7.896s7.028 3.724 7.028 7.896a.848.848 0 0 1-.784.813zm-6.244-7.112c-3.36 0-5.124 2.576-5.376 5.516h10.78c-.252-3.19-2.324-5.516-5.404-5.516z"/><path id="Z" d="M182.337 988.948a.787.787 0 0 1-.812-.784v-1.4a6.355 6.355 0 0 1-5.433 2.659c-4.508 0-7.027-3.695-7.027-7.924 0-4.2 2.52-7.896 7.027-7.896a6.403 6.403 0 0 1 5.433 2.632v-6.44a.798.798 0 0 1 1.596 0v18.368a.781.781 0 0 1-.784.784zm-6.244-13.748c-3.304 0-5.432 2.66-5.432 6.3s2.128 6.328 5.432 6.328c3.332 0 5.433-2.687 5.433-6.328s-2.1-6.3-5.433-6.3z"/><path id="a" d="M224.308 988.948h-.868c-2.212 0-3.304-1.092-3.304-3.276v-9.995h-1.428a.798.798 0 0 1 0-1.597h1.428v-4.284a.786.786 0 0 1 .812-.783.763.763 0 0 1 .784.783v4.284h2.576a.798.798 0 0 1 0 1.597h-2.576v9.995c0 1.372.393 1.68 1.708 1.68h.868a.798.798 0 0 1 0 1.596z"/><path id="b" d="M114.357 52.336a8.644 8.644 0 0 0-8.52 8.58v16.62a2.501 2.501 0 0 1-2.64 2.58 2.456 2.456 0 0 1-2.52-2.52v-26.76a2.541 2.541 0 0 1 2.52-2.58 2.463 2.463 0 0 1 2.58 2.04 13.874 13.874 0 0 1 8.579-3.06 2.552 2.552 0 1 1 0 5.1z"/><path id="c" d="M187.256 66.796h-22.2c.84 5.64 4.44 9.24 9.72 9.24a9.005 9.005 0 0 0 7.14-3.12 2.484 2.484 0 0 1 1.859-.96 2.801 2.801 0 0 1 2.701 2.64c0 .72-.18 1.26-1.44 2.52a14.622 14.622 0 0 1-10.26 4.02c-9.66 0-15.06-7.98-15.06-16.98 0-8.94 5.4-16.92 15.06-16.92 9.78 0 15 7.98 15 16.92a2.558 2.558 0 0 1-2.52 2.64zm-12.48-14.46c-5.64 0-8.94 4.14-9.72 9.3h19.44c-.84-5.76-4.44-9.3-9.72-9.3z"/><path id="d" d="M371.68 80.115a5.839 5.839 0 0 1-5.34-3.42 13.746 13.746 0 0 1-10.56 4.44c-9.78 0-15.06-8.04-15.06-16.98s5.4-16.92 15.06-16.92a13.259 13.259 0 0 1 9.899 3.96v-.24a2.476 2.476 0 0 1 2.521-2.7 2.412 2.412 0 0 1 2.64 2.52v23.16a.971.971 0 0 0 .84 1.08 2.55 2.55 0 1 1 0 5.1zm-15.9-27.78c-6 0-9.9 4.68-9.9 11.82 0 7.2 3.9 11.88 9.9 11.88 6.06 0 9.9-4.68 9.9-11.88 0-7.14-3.84-11.82-9.9-11.82z"/><path id="e" d="M387.22 53.356h-2.7v24.18a2.453 2.453 0 0 1-2.641 2.52 2.421 2.421 0 0 1-2.52-2.52v-24.18h-2.46a2.55 2.55 0 0 1 0-5.1h2.46v-4.08a6.836 6.836 0 0 1 6.899-6.78 2.551 2.551 0 1 1 0 5.1 1.68 1.68 0 0 0-1.739 1.62v4.14h2.7a2.552 2.552 0 1 1 0 5.1z"/><path id="f" d="M412.9 43.396a4.32 4.32 0 1 1 4.32-4.319 4.302 4.302 0 0 1-4.32 4.319zm0 36.72a2.521 2.521 0 0 1-2.641-2.52v-26.76a2.534 2.534 0 0 1 2.641-2.58 2.472 2.472 0 0 1 2.52 2.58v26.76a2.421 2.421 0 0 1-2.52 2.52z"/><path id="g" d="M523.177 76.575a13.935 13.935 0 0 1-10.739 4.56c-9.66 0-15.06-7.92-15.06-16.98 0-9 5.4-16.92 15.06-16.92a13.935 13.935 0 0 1 10.739 4.56 2.618 2.618 0 0 1 .72 1.74 2.794 2.794 0 0 1-2.7 2.58 2.84 2.84 0 0 1-1.859-.84 8.814 8.814 0 0 0-6.899-2.94c-6 0-9.9 4.68-9.9 11.82 0 7.2 3.9 11.88 9.9 11.88a8.923 8.923 0 0 0 6.899-2.939 2.396 2.396 0 0 1 1.859-.9 2.59 2.59 0 0 1 1.98 4.38z"/><path id="h" d="M560.136 43.396a4.32 4.32 0 1 1 4.319-4.319 4.302 4.302 0 0 1-4.319 4.319zm0 36.72a2.52 2.52 0 0 1-2.64-2.52v-26.76a2.533 2.533 0 0 1 2.64-2.58 2.472 2.472 0 0 1 2.52 2.58v26.76a2.421 2.421 0 0 1-2.52 2.52z"/><path id="i" d="M595.174 80.055a2.436 2.436 0 0 1-2.58-2.52 14.518 14.518 0 0 1-9.899 3.6c-9.66 0-15.06-7.92-15.06-16.98 0-9 5.4-16.92 15.06-16.92a13.224 13.224 0 0 1 9.899 3.9v-11.16a2.58 2.58 0 0 1 5.159-.06v37.618a2.436 2.436 0 0 1-2.579 2.52zm-12.48-27.72c-6 0-9.9 4.68-9.9 11.82 0 7.2 3.9 11.88 9.9 11.88 6.06 0 9.9-4.68 9.9-11.88 0-7.14-3.84-11.82-9.9-11.82z"/><path id="j" d="M630.034 66.796h-22.2c.84 5.64 4.44 9.24 9.72 9.24a9.007 9.007 0 0 0 7.14-3.12 2.483 2.483 0 0 1 1.859-.96 2.8 2.8 0 0 1 2.7 2.64c0 .72-.18 1.26-1.44 2.52a14.618 14.618 0 0 1-10.259 4.02c-9.66 0-15.06-7.98-15.06-16.98 0-8.94 5.4-16.92 15.06-16.92 9.78 0 15 7.98 15 16.92a2.558 2.558 0 0 1-2.52 2.64zm-12.48-14.46c-5.64 0-8.94 4.14-9.72 9.3h19.438c-.84-5.76-4.44-9.3-9.72-9.3z"/><path id="k" d="M827.13 80.115a5.836 5.836 0 0 1-5.34-3.42 13.748 13.748 0 0 1-10.56 4.44c-9.78 0-15.06-8.04-15.06-16.98s5.4-16.92 15.06-16.92a13.259 13.259 0 0 1 9.899 3.96v-.24a2.476 2.476 0 0 1 2.52-2.7 2.412 2.412 0 0 1 2.64 2.52v23.16a.971.971 0 0 0 .841 1.08 2.55 2.55 0 1 1 0 5.1zm-15.9-27.78c-6 0-9.9 4.68-9.9 11.82 0 7.2 3.9 11.88 9.9 11.88 6.06 0 9.9-4.68 9.9-11.88 0-7.14-3.84-11.82-9.9-11.82z"/><path id="l" d="M980.485 81.135c-3.3 0-8.82-1.02-11.64-4.5a2.655 2.655 0 0 1 2.16-4.26 2.463 2.463 0 0 1 1.859 1.02c1.86 2.04 4.92 2.64 7.62 2.64 5.4 0 7.14-1.86 7.14-4.56 0-7.68-18.3-2.94-18.3-15.3 0-6.54 6.12-8.94 11.82-8.94 3.24 0 10.86 1.62 10.86 4.98a2.694 2.694 0 0 1-2.52 2.7 3.612 3.612 0 0 1-1.98-.78c-1.62-1.38-3.96-1.8-6.36-1.8-4.98 0-6.72 1.86-6.72 3.84 0 7.14 18.36 2.52 18.36 15.3 0 7.08-5.94 9.66-12.3 9.66z"/><path id="m" d="M238.494 138.335c-9.66 0-15.06-7.92-15.06-16.98 0-9 5.4-16.92 15.06-16.92s15.06 7.92 15.06 16.92c0 9.06-5.4 16.98-15.06 16.98zm0-28.8c-6 0-9.9 4.68-9.9 11.82 0 7.2 3.9 11.88 9.9 11.88 6.06 0 9.9-4.68 9.9-11.88 0-7.14-3.84-11.82-9.9-11.82z"/><path id="n" d="M106.646 166.983a6.494 6.494 0 0 0-6.497 6.497v10.753a1.083 1.083 0 0 1-2.166 0v-18.048a1.083 1.083 0 0 1 2.166 0v1.558a8.676 8.676 0 0 1 6.497-2.925 1.083 1.083 0 1 1 0 2.165z"/><path id="o" d="M128.715 185.297h-.038a3.933 3.933 0 0 1-3.762-2.964 8.619 8.619 0 0 1-7.371 3.609c-6.193 0-9.536-5.09-9.536-10.752 0-5.737 3.42-10.715 9.536-10.715a8.686 8.686 0 0 1 7.371 3.572v-1.862a1.071 1.071 0 0 1 1.102-1.063 1.037 1.037 0 0 1 1.064 1.063v15.312c0 2.432 2.735.912 2.735 2.736a1.045 1.045 0 0 1-1.102 1.064zm-11.17-18.655c-4.483 0-7.37 3.61-7.37 8.55s2.888 8.587 7.37 8.587c4.52 0 7.37-3.647 7.37-8.587s-2.85-8.55-7.37-8.55z"/></defs><rect width="1080" height="1080" rx="40" fill="#26232c"/><g class="O P"><path d="M42.428 1046.045a7.892 7.892 0 0 1-5.503-2.002 1.364 1.364 0 0 1-1.468 1.401 1.346 1.346 0 0 1-1.401-1.401v-20.88a1.435 1.435 0 0 1 2.869-.033v6.238a7.4 7.4 0 0 1 5.503-2.169c5.37 0 8.373 4.403 8.373 9.406 0 5.037-3.002 9.44-8.373 9.44zm0-16c-3.335 0-5.503 2.602-5.503 6.57 0 4.003 2.168 6.604 5.503 6.604s5.504-2.602 5.504-6.604c0-3.97-2.168-6.57-5.504-6.57zm25.555 8.037h-12.34c.467 3.136 2.468 5.137 5.403 5.137a5.003 5.003 0 0 0 3.969-1.734 1.383 1.383 0 0 1 1.034-.533 1.556 1.556 0 0 1 1.501 1.468c0 .4-.1.7-.8 1.4a8.129 8.129 0 0 1-5.704 2.235c-5.37 0-8.372-4.437-8.372-9.44 0-4.97 3.002-9.406 8.372-9.406 5.437 0 8.34 4.437 8.34 9.406a1.422 1.422 0 0 1-1.401 1.468zm-6.937-8.038c-3.136 0-4.97 2.3-5.403 5.17H66.45c-.467-3.202-2.468-5.17-5.403-5.17zm27.054 15.444a3.247 3.247 0 0 1-2.969-1.901 7.642 7.642 0 0 1-5.87 2.469c-5.437 0-8.372-4.47-8.372-9.44s3.002-9.406 8.372-9.406a7.369 7.369 0 0 1 5.504 2.202v-.134a1.376 1.376 0 0 1 1.4-1.501 1.341 1.341 0 0 1 1.468 1.401v12.875a.54.54 0 0 0 .467.601 1.418 1.418 0 1 1 0 2.835zm-8.84-15.443c-3.336 0-5.504 2.602-5.504 6.57 0 4.003 2.168 6.604 5.504 6.604 3.37 0 5.504-2.602 5.504-6.604 0-3.97-2.135-6.57-5.504-6.57z"/><use xlink:href="#C"/><path d="M115.258 1045.478h-.567c-3.17 0-4.37-1.668-4.37-4.403V1030.6h-1a1.418 1.418 0 1 1-.033-2.835h1v-4.637a1.355 1.355 0 0 1 1.435-1.4 1.328 1.328 0 0 1 1.401 1.4v4.637h2.135a1.383 1.383 0 0 1 1.4 1.401 1.356 1.356 0 0 1-1.4 1.434h-2.135v10.774c0 .934.333 1.268 1.268 1.268h.833a1.376 1.376 0 0 1 1.435 1.4 1.357 1.357 0 0 1-1.4 1.435zm4.604-20.415a2.401 2.401 0 1 1 2.402-2.401 2.392 2.392 0 0 1-2.402 2.401zm0 20.414a1.4 1.4 0 0 1-1.467-1.401V1029.2a1.408 1.408 0 0 1 1.467-1.435 1.374 1.374 0 0 1 1.401 1.435v14.876a1.346 1.346 0 0 1-1.401 1.401zm10.376-14.877h-1.5v13.442a1.364 1.364 0 0 1-1.468 1.401 1.346 1.346 0 0 1-1.401-1.401V1030.6h-1.37a1.418 1.418 0 0 1 0-2.835h1.367v-2.27a3.801 3.801 0 0 1 3.836-3.769 1.418 1.418 0 1 1 0 2.835.934.934 0 0 0-.967.9v2.302h1.5a1.418 1.418 0 1 1 0 2.835z"/><use xlink:href="#C" x="42.068"/><path d="M154.825 1045.544a3.403 3.403 0 0 1-3.336-3.402v-18.98a1.435 1.435 0 0 1 2.869-.033v19.013a.527.527 0 0 0 .467.567 1.418 1.418 0 1 1 0 2.835zm15.37-.066v-1.264c1.886-.237 2.046-.437 2.046-3.157v-6.7c0-2.8-1.248-4.017-3.064-4.017a5.597 5.597 0 0 0-3.47 1.493v9.476c0 2.527.187 2.658 2.06 2.896v1.264h-8.968v-1.264c2.254-.33 2.5-.4 2.5-3v-8.2c0-2.446-.303-2.565-2.185-2.922v-1.184a34.101 34.101 0 0 0 6.653-1.533l-.052 2.95 2.6-1.745a5.659 5.659 0 0 1 3.159-1.086c3.194 0 5.2 2.338 5.2 6.3v7.5c0 2.54.237 2.657 2.277 2.92v1.264zm23.9-3.703c-2.458 3.427-5.488 4.178-7.014 4.178-5.142 0-8.124-3.936-8.124-8.594a10.333 10.333 0 0 1 2.832-7.062 8.602 8.602 0 0 1 6.082-2.814 6.386 6.386 0 0 1 6.37 6.347c-.014.715-.08 1.277-.612 1.4-.767.184-6.17.5-10.318.647.062 4.587 2.717 6.74 5.556 6.74a6.776 6.776 0 0 0 4.543-1.866zm-7.07-12.7c-1.667 0-3.167 1.807-3.516 4.963l5.486-.118c.6-.026.848-.146.848-.792.04-2.022-1.037-4.053-2.818-4.053zm34.284.145c-1.943.343-2.248.624-3.105 2.765-1.33 3.462-3.102 8.53-4.934 13.94h-1.512l-4.65-11.46-4.55 11.46h-1.472l-4.685-14.192c-.687-1.985-.94-2.274-2.855-2.512v-1.25h9.397v1.25c-2.325.345-2.535.672-2.058 2.133l2.52 8.214c1.507-3.68 2.988-7.62 4.327-11.424h1.456c1.4 3.76 2.986 7.702 4.573 11.568.742-2.107 2.062-5.964 2.557-8.108.412-1.674-.008-2.078-2.753-2.383v-1.25h7.742zm9.4 3.746c-.92-2.606-2.155-3.984-4.2-3.984a2.166 2.166 0 0 0-2.225 2.266c0 1.497 1.046 2.264 3.16 3.216 3.278 1.496 5.3 2.787 5.3 5.736 0 3.85-3.6 5.764-6.945 5.764a12.073 12.073 0 0 1-4.92-1.161l-.662-4.892 1.252-.224c.8 2.5 2.33 4.75 4.976 4.75a2.231 2.231 0 0 0 2.438-2.281c0-1.423-.76-2.333-3.092-3.467-2.67-1.295-5.107-2.64-5.107-5.775 0-3.046 2.533-5.42 6.565-5.42a18.751 18.751 0 0 1 4.112.567l.62 4.577z"/></g><g class="O P"><use xlink:href="#D"/><use xlink:href="#E"/><path d="M544.988 1045.98a.563.563 0 0 1-.58-.561v-.64a4.443 4.443 0 0 1-3.421 1.541 4.61 4.61 0 0 1-4.561-4.561v-5.842a.57.57 0 0 1 1.14 0v5.842a3.421 3.421 0 0 0 6.842 0v-5.842a.57.57 0 0 1 1.141 0v9.502a.559.559 0 0 1-.561.561z"/><use xlink:href="#F"/><use xlink:href="#G"/><use xlink:href="#H"/><path d="M578.686 1039.416a1.14 1.14 0 1 1 0-2.279 1.14 1.14 0 0 1 0 2.279zm0 6.563a1.141 1.141 0 1 1 0-2.281 1.141 1.141 0 0 1 0 2.281zm18.182.02a.492.492 0 0 1-.42-.24l-4.302-5.94h-3.58v5.602a.571.571 0 0 1-1.141 0v-13.123a.59.59 0 0 1 .58-.561h5.4a4.042 4.042 0 0 1 .16 8.082l3.78 5.242a.545.545 0 0 1 .141.359.631.631 0 0 1-.62.58zm-3.44-13.143h-4.86v5.82h4.84a2.91 2.91 0 1 0 .02-5.82z"/><use xlink:href="#E" x="75.539"/><use xlink:href="#I"/><path d="M634.007 1045.98a.564.564 0 0 1-.581-.561v-1a4.538 4.538 0 0 1-3.88 1.9c-3.22 0-5.02-2.64-5.02-5.662 0-3 1.8-5.64 5.02-5.64a4.572 4.572 0 0 1 3.88 1.881v-4.602a.57.57 0 0 1 1.141 0v13.123a.558.558 0 0 1-.56.561zm-4.46-9.822c-2.36 0-3.88 1.9-3.88 4.5s1.52 4.52 3.88 4.52c2.38 0 3.88-1.92 3.88-4.52s-1.5-4.5-3.88-4.5zm22.22 9.822h-8.882a.607.607 0 0 1-.58-.561v-13.123a.59.59 0 0 1 .58-.561h8.882a.561.561 0 1 1 0 1.121h-8.32v4.92h6.1a.551.551 0 0 1 .58.561.561.561 0 0 1-.56.58h-6.12v5.922h8.32a.567.567 0 0 1 .58.58.55.55 0 0 1-.58.56z"/><use xlink:href="#G" x="99.177"/><use xlink:href="#E" x="140.216"/><use xlink:href="#J"/><use xlink:href="#E" x="156.556"/><path d="M697.724 1050.54c-1.7 0-4.102-.64-4.102-1.36a.636.636 0 0 1 .58-.641 7.13 7.13 0 0 1 1.061.48 7.513 7.513 0 0 0 2.461.379c2.56 0 3.88-1.26 3.88-3.72v-1.4a4.774 4.774 0 0 1-3.88 1.701c-3.16 0-5.02-2.24-5.02-5.322 0-3 1.8-5.64 5.02-5.64a4.572 4.572 0 0 1 3.88 1.881v-.96a.57.57 0 0 1 1.141 0v9.742c0 3.182-1.9 4.86-5.02 4.86zm0-14.383c-2.36 0-3.88 1.9-3.88 4.5 0 2.582 1.42 4.182 3.88 4.182s3.88-1.6 3.88-4.182c0-2.6-1.5-4.5-3.88-4.5z"/><use xlink:href="#K"/><use xlink:href="#L"/><use xlink:href="#H" x="167.636"/><use xlink:href="#M"/><use xlink:href="#N"/><use xlink:href="#H" x="197.415"/><use xlink:href="#F" x="226.675"/><path d="M782.46 1047.758a.513.513 0 0 1-.3.08.559.559 0 0 1-.54-.58c0-.56.86-.64 1-1.28a1.152 1.152 0 0 1 .08-2.301c.98 0 1.2 1 1.2 1.62a2.852 2.852 0 0 1-1.44 2.459zm14.08-1.42a5.012 5.012 0 0 1-5.021-5.021v-9.02a.58.58 0 0 1 1.16 0v9.02a3.871 3.871 0 1 0 7.742 0v-9.02a.57.57 0 0 1 1.14 0v9.02a5.01 5.01 0 0 1-5.02 5.021z"/><use xlink:href="#M" x="59.017"/><use xlink:href="#O"/><use xlink:href="#P"/><use xlink:href="#H" x="264.534"/><use xlink:href="#F" x="293.793"/><use xlink:href="#D" x="333.633"/><use xlink:href="#O" x="42.2"/><use xlink:href="#N" x="105.198"/><use xlink:href="#K" x="162.716"/><use xlink:href="#E" x="359.172"/><use xlink:href="#Q"/><use xlink:href="#L" x="185.736"/><use xlink:href="#I" x="306.913"/><use xlink:href="#J" x="255.075"/><use xlink:href="#O" x="120.197"/><use xlink:href="#Q" x="44.48"/><use xlink:href="#E" x="421.772"/><use xlink:href="#F" x="409.991"/><use xlink:href="#M" x="219.695"/><use xlink:href="#O" x="160.677"/><use xlink:href="#I" x="368.593"/><path d="M1003.498 1045.98h-4.44a.607.607 0 0 1-.58-.561v-13.123a.59.59 0 0 1 .58-.561h4.44c4.12 0 5.48 3.44 5.48 7.102 0 3.72-1.36 7.143-5.48 7.143zm0-13.123h-3.88v11.982h3.88c3.42 0 4.34-2.96 4.34-5.98 0-3.563-1.24-6.002-4.34-6.002z"/><use xlink:href="#I" x="399.333"/><use xlink:href="#P" x="204.256"/><use xlink:href="#O" x="218.396"/><use xlink:href="#D" x="523.31"/></g><g class="O P"><path d="M41.113 264.5a6.354 6.354 0 0 1-5.433-2.659v1.4a.798.798 0 0 1-1.596 0v-18.368a.798.798 0 0 1 1.596 0v6.44a6.402 6.402 0 0 1 5.433-2.632c4.508 0 7.027 3.695 7.027 7.895 0 4.23-2.52 7.924-7.027 7.924zm0-14.224c-3.332 0-5.433 2.66-5.433 6.3s2.1 6.328 5.433 6.328 5.432-2.687 5.432-6.328-2.1-6.3-5.432-6.3zM64.48 257.4H52.86c.252 3.2 2.323 5.516 5.376 5.516a5.059 5.059 0 0 0 4.115-1.932.734.734 0 0 1 .672-.393.856.856 0 0 1 .868.757c0 .252 0 .308-.53.924a6.611 6.611 0 0 1-5.124 2.239c-4.5 0-7.028-3.695-7.028-7.924 0-4.2 2.52-7.895 7.028-7.895s7.027 3.724 7.027 7.895a.848.848 0 0 1-.784.813zm-6.243-7.112c-3.36 0-5.124 2.576-5.376 5.516h10.78c-.252-3.2-2.324-5.516-5.403-5.516zm15.113-4.62h-.868a1.238 1.238 0 0 0-1.232 1.204v2.296h2.1a.763.763 0 0 1 .784.784.788.788 0 0 1-.784.813h-2.1v12.487a.764.764 0 0 1-.783.784.748.748 0 0 1-.784-.784v-12.487H67.75a.799.799 0 0 1 0-1.597h1.933v-2.296a2.778 2.778 0 0 1 2.771-2.771h.896a.794.794 0 0 1 .812.812.75.75 0 0 1-.812.756zM82.9 264.5c-4.508 0-7.028-3.695-7.028-7.924 0-4.2 2.52-7.895 7.028-7.895s7.028 3.695 7.028 7.895c0 4.23-2.52 7.924-7.028 7.924zm0-14.224c-3.304 0-5.432 2.66-5.432 6.3s2.128 6.328 5.432 6.328c3.332 0 5.432-2.687 5.432-6.328s-2.1-6.3-5.432-6.3zm17.194.254a4.786 4.786 0 0 0-4.788 4.788v7.924a.798.798 0 0 1-1.596 0v-13.3a.798.798 0 0 1 1.596 0v1.148a6.393 6.393 0 0 1 4.788-2.156.798.798 0 1 1 0 1.596z"/><use xlink:href="#R"/><path d="M127.547 245.107a2.284 2.284 0 0 0-1.232 1.96v2.128a.798.798 0 0 1-1.596 0v-2.128a4.108 4.108 0 0 1 2.016-3.36.637.637 0 0 1 .42-.14.858.858 0 0 1 .784.868.761.761 0 0 1-.392.672zm4.508 0a2.278 2.278 0 0 0-1.204 1.96v2.128a.798.798 0 0 1-1.596 0v-2.128a4.105 4.105 0 0 1 2.016-3.36.686.686 0 0 1 .42-.14.837.837 0 0 1 .784.868.738.738 0 0 1-.42.672zm7.598 19.46c-1.68 0-4.508-.588-5.488-2.212a.68.68 0 0 1-.111-.42.764.764 0 0 1 1.428-.448c1.008 1.23 2.8 1.483 4.172 1.483 2.716 0 4.088-.896 4.088-2.716 0-4.228-9.184-1.987-9.184-7.588 0-2.828 2.828-3.92 5.376-3.92a7.585 7.585 0 0 1 4.815 1.624.784.784 0 0 1 .252.532.907.907 0 0 1-.867.84.742.742 0 0 1-.532-.224 5.601 5.601 0 0 0-3.668-1.177c-2.464 0-3.78.952-3.78 2.324 0 3.92 9.184 1.85 9.184 7.588 0 3.192-2.8 4.313-5.684 4.313zm21.03-.532a.788.788 0 0 1-.812-.784v-8.176a4.788 4.788 0 1 0-9.575 0v8.176a.798.798 0 0 1-1.597 0v-18.368a.798.798 0 0 1 1.597 0v5.965a6.219 6.219 0 0 1 4.788-2.156 6.435 6.435 0 0 1 6.384 6.384v8.176a.781.781 0 0 1-.784.784z"/><use xlink:href="#R" x="62.85"/><path d="M185.394 264.203a2.934 2.934 0 0 1-2.771-2.968v-16.353a.798.798 0 0 1 1.596 0v16.353c0 1.792 1.988.756 1.988 2.016a.903.903 0 0 1-.812.952zm8.516-.168h-.868c-2.212 0-3.304-1.092-3.304-3.276v-9.995h-1.43a.799.799 0 0 1 0-1.597h1.43v-4.284a.786.786 0 0 1 .812-.783.763.763 0 0 1 .784.783v4.284h2.576a.799.799 0 0 1 0 1.597h-2.576v9.995c0 1.372.392 1.68 1.708 1.68h.868a.798.798 0 0 1 0 1.596zm15.712-6.635h-11.62c.252 3.2 2.324 5.516 5.376 5.516a5.063 5.063 0 0 0 4.116-1.932.734.734 0 0 1 .672-.393.856.856 0 0 1 .868.757c0 .252 0 .308-.532.924a6.611 6.611 0 0 1-5.124 2.239c-4.508 0-7.028-3.695-7.028-7.924 0-4.2 2.52-7.895 7.028-7.895s7.028 3.724 7.028 7.895a.849.849 0 0 1-.784.813zm-6.244-7.112c-3.36 0-5.124 2.576-5.376 5.516h10.78c-.252-3.2-2.324-5.516-5.404-5.516z"/><use xlink:href="#S"/><path d="M230.657 246.48a1.596 1.596 0 1 1 1.596-1.597 1.577 1.577 0 0 1-1.596 1.597zm0 17.556a.77.77 0 0 1-.812-.784v-13.3a.772.772 0 0 1 .813-.784.763.763 0 0 1 .784.784v13.3a.749.749 0 0 1-.784.784zm17.18-.001a.788.788 0 0 1-.812-.784v-8.176a4.788 4.788 0 1 0-9.575 0v8.176a.798.798 0 0 1-1.597 0v-13.3a.798.798 0 0 1 1.597 0v.896a6.387 6.387 0 0 1 11.172 4.228v8.176a.781.781 0 0 1-.784.784zm18.116.475a6.354 6.354 0 0 1-5.433-2.659v7.252a.798.798 0 1 1-1.596 0V249.95a.798.798 0 0 1 1.596 0v1.372a6.402 6.402 0 0 1 5.433-2.632c4.508 0 7.027 3.695 7.027 7.895 0 4.23-2.52 7.924-7.027 7.924zm0-14.224c-3.332 0-5.433 2.66-5.433 6.3s2.1 6.328 5.433 6.328 5.432-2.687 5.432-6.328-2.1-6.3-5.432-6.3zm13.524 13.917a2.935 2.935 0 0 1-2.772-2.968v-16.353a.798.798 0 0 1 1.597 0v16.353c0 1.792 1.987.756 1.987 2.016a.903.903 0 0 1-.812.952zm18.092-.168h-.028a2.9 2.9 0 0 1-2.772-2.184 6.352 6.352 0 0 1-5.432 2.659c-4.563 0-7.028-3.752-7.028-7.924 0-4.228 2.52-7.895 7.028-7.895a6.4 6.4 0 0 1 5.432 2.632v-1.372a.789.789 0 0 1 .813-.784.765.765 0 0 1 .784.784v11.284c0 1.792 2.016.672 2.016 2.016a.77.77 0 0 1-.812.784zm-8.232-13.748c-3.304 0-5.432 2.66-5.432 6.3s2.128 6.328 5.432 6.328c3.332 0 5.432-2.687 5.432-6.328s-2.1-6.3-5.432-6.3zm23.148 12.096a6.504 6.504 0 0 1-5.012 2.128c-4.5 0-7.028-3.695-7.028-7.924 0-4.2 2.52-7.895 7.028-7.895a6.504 6.504 0 0 1 5.012 2.128.742.742 0 0 1 .224.532.877.877 0 0 1-.812.84.823.823 0 0 1-.588-.28 4.937 4.937 0 0 0-3.836-1.624c-3.305 0-5.433 2.66-5.433 6.3s2.128 6.328 5.433 6.328a5.033 5.033 0 0 0 3.836-1.624.823.823 0 0 1 .588-.28.831.831 0 0 1 .812.813.799.799 0 0 1-.224.56z"/><use xlink:href="#R" x="213.051"/><path d="M332.688 249.896a.929.929 0 0 1-.42.14.9.9 0 0 1-.784-.952c0-.616 1.596-.756 1.596-2.548v-2.128a.796.796 0 0 1 .784-.84.818.818 0 0 1 .813.84v2.128a3.992 3.992 0 0 1-1.988 3.36zm4.564 0a.928.928 0 0 1-.421.14.899.899 0 0 1-.783-.952c0-.616 1.596-.756 1.596-2.548v-2.128a.796.796 0 0 1 .784-.84.818.818 0 0 1 .812.84v2.128a3.99 3.99 0 0 1-1.987 3.36zM353.66 264.5c-4.5 0-7.028-3.695-7.028-7.924 0-4.2 2.52-7.895 7.028-7.895s7.027 3.695 7.027 7.895c0 4.23-2.52 7.924-7.027 7.924zm0-14.224c-3.305 0-5.433 2.66-5.433 6.3s2.128 6.328 5.433 6.328c3.332 0 5.432-2.687 5.432-6.328s-2.1-6.3-5.432-6.3z"/><use xlink:href="#S" x="150.443"/><path d="M386.172 264.035a.787.787 0 0 1-.812-.784v-1.4a6.352 6.352 0 0 1-5.432 2.659c-4.508 0-7.028-3.695-7.028-7.924 0-4.2 2.52-7.895 7.028-7.895a6.4 6.4 0 0 1 5.432 2.632v-6.44a.798.798 0 0 1 1.597 0v18.368a.781.781 0 0 1-.784.784zm-6.244-13.748c-3.304 0-5.432 2.66-5.432 6.3s2.128 6.328 5.432 6.328c3.332 0 5.432-2.687 5.432-6.328s-2.1-6.3-5.432-6.3z"/><use xlink:href="#R" x="288.577"/><use xlink:href="#S" x="194.388"/></g><path d="M981.8 264.037h-.028a2.898 2.898 0 0 1-2.771-2.184 6.355 6.355 0 0 1-5.433 2.66c-4.563 0-7.027-3.752-7.027-7.924 0-4.228 2.52-7.896 7.027-7.896a6.403 6.403 0 0 1 5.433 2.632v-1.372a.789.789 0 0 1 .812-.784.764.764 0 0 1 .784.784v11.284c0 1.792 2.016.672 2.016 2.016a.77.77 0 0 1-.812.784zm-8.232-13.748c-3.304 0-5.432 2.66-5.432 6.3s2.128 6.328 5.432 6.328c3.332 0 5.433-2.688 5.433-6.328s-2.1-6.3-5.433-6.3zm17.266-4.62h-.868a1.237 1.237 0 0 0-1.231 1.204v2.296h2.1a.763.763 0 0 1 .784.784.787.787 0 0 1-.784.812h-2.1v12.488a.765.765 0 0 1-.784.784.748.748 0 0 1-.784-.784v-12.488h-1.932a.798.798 0 0 1 0-1.596h1.932v-2.296a2.778 2.778 0 0 1 2.772-2.772h.896a.795.795 0 0 1 .813.812.751.751 0 0 1-.812.756zm9.184 18.367h-.868c-2.212 0-3.304-1.092-3.304-3.276v-9.996h-1.428a.798.798 0 0 1 0-1.596h1.428v-4.284a.787.787 0 0 1 .812-.784.764.764 0 0 1 .784.784v4.284h2.576a.798.798 0 0 1 0 1.596h-2.576v9.996c0 1.372.393 1.68 1.708 1.68h.868a.798.798 0 0 1 0 1.596zm16.52-6.637h-11.62c.252 3.192 2.324 5.516 5.376 5.516a5.06 5.06 0 0 0 4.116-1.932.735.735 0 0 1 .672-.392.856.856 0 0 1 .868.756c0 .252 0 .308-.532.924a6.61 6.61 0 0 1-5.124 2.24c-4.508 0-7.027-3.696-7.027-7.924 0-4.2 2.52-7.896 7.027-7.896s7.028 3.724 7.028 7.896a.847.847 0 0 1-.784.812zm-6.244-7.112c-3.36 0-5.124 2.576-5.376 5.516h10.78c-.252-3.192-2.324-5.516-5.404-5.516zm17.304.252a4.786 4.786 0 0 0-4.788 4.788v7.924a.798.798 0 0 1-1.596 0v-13.3a.798.798 0 0 1 1.596 0v1.148a6.394 6.394 0 0 1 4.788-2.156.798.798 0 1 1 0 1.596z" class="O P"/><path d="M110.405 718.425a.882.882 0 0 1-.748-1.057l2.84-15a.885.885 0 0 1 1.083-.71.874.874 0 0 1 .716 1.051l-2.84 15a.859.859 0 0 1-1.051.716zm3.747-19.787a1.831 1.831 0 1 1 2.139-1.459 1.811 1.811 0 0 1-2.139 1.459zm14.494 23.242a.904.904 0 0 1-.747-1.058l1.745-9.216a5.492 5.492 0 0 0-10.793-2.044l-1.745 9.216a.915.915 0 0 1-1.799-.34l2.84-14.992a.916.916 0 0 1 1.799.341l-.2 1a7.327 7.327 0 0 1 11.689 7.149l-1.745 9.216a.896.896 0 0 1-1.052.717zm1.384 7.192a.749.749 0 0 1-.359-.002.955.955 0 0 1-.742-1.09.94.94 0 0 1 .762-.737 3.845 3.845 0 0 0 3.123-3.202l3.257-17.2a.886.886 0 0 1 1.083-.711.876.876 0 0 1 .717 1.052l-3.258 17.2a5.708 5.708 0 0 1-4.582 4.69zm7.697-25.97a1.831 1.831 0 1 1 .681-3.599 1.831 1.831 0 0 1-.681 3.599zm14.2 23.198a.902.902 0 0 1-.747-1.057l.2-1a7.139 7.139 0 0 1-5.857 1.408 7.404 7.404 0 0 1-5.833-8.559l1.745-9.216a.916.916 0 0 1 1.799.341l-1.745 9.216a5.493 5.493 0 1 0 10.794 2.044l1.745-9.216a.915.915 0 0 1 1.798.341l-2.84 15a.895.895 0 0 1-1.051.716zm14.8-12.962a5.489 5.489 0 0 0-6.418 4.374l-1.7 8.932a.916.916 0 0 1-1.8-.34l2.84-14.992a.916.916 0 0 1 1.8.341l-.245 1.295a7.334 7.334 0 0 1 5.856-1.408.916.916 0 1 1-.341 1.799zm.623 15.875a.883.883 0 0 1-.748-1.057l2.84-15a.886.886 0 0 1 1.083-.711.875.875 0 0 1 .717 1.051l-2.84 14.992a.861.861 0 0 1-1.052.716zm3.748-19.787a1.831 1.831 0 1 1 2.139-1.459 1.811 1.811 0 0 1-2.139 1.459zm16.634 15.9l-13.097-2.48c-.396 3.65 1.442 6.713 4.883 7.365a5.804 5.804 0 0 0 5.051-1.3.844.844 0 0 1 .842-.299.983.983 0 0 1 .817 1.038c-.055.284-.066.347-.798.928a7.582 7.582 0 0 1-6.253 1.432c-5.082-.963-7.133-5.666-6.23-10.433.896-4.733 4.525-8.36 9.607-7.4s7.126 5.698 6.235 10.4a.972.972 0 0 1-1.058.748zm-5.52-9.348c-3.788-.718-6.325 1.8-7.237 5.068l12.15 2.3c.397-3.65-1.442-6.712-4.913-7.37zM195.5 735.16c-1.894-.358-4.955-1.625-5.714-3.664a.779.779 0 0 1-.037-.498.877.877 0 0 1 1.706-.199c.873 1.604 2.84 2.27 4.386 2.563 3.06.58 4.8-.137 5.188-2.188.902-4.766-9.928-4.2-8.732-10.513.604-3.187 4.024-3.814 6.895-3.27 1.642.3 4.06 1.356 5.083 2.857a.907.907 0 0 1 .17.653 1.042 1.042 0 0 1-1.157.763.849.849 0 0 1-.552-.367 6.425 6.425 0 0 0-3.884-2.108c-2.777-.526-4.464.268-4.757 1.813-.837 4.418 9.957 4.044 8.732 10.514-.682 3.598-4.077 4.263-7.327 3.646zm26.355-18.153l-16.604 19.838a.873.873 0 0 1-.841.298.898.898 0 0 1-.754-1.025.965.965 0 0 1 .216-.448l16.598-19.807a.904.904 0 0 1 .848-.33.925.925 0 0 1 .748 1.057.888.888 0 0 1-.21.418zm8.67 2.72l-.98-.185a1.42 1.42 0 0 0-1.646 1.094l-.5 2.587 2.367.448a.877.877 0 0 1 .717 1.052.904.904 0 0 1-1.058.748l-2.367-.448-2.665 14.075a.877.877 0 0 1-1.051.717.858.858 0 0 1-.717-1.051l2.666-14.075-2.178-.413a.916.916 0 0 1 .341-1.8l2.178.413.5-2.587a3.189 3.189 0 0 1 3.717-2.534l1 .2a.913.913 0 0 1 .742 1.09.861.861 0 0 1-1.077.678zm15.867 24.452l-.03-.007a3.325 3.325 0 0 1-2.658-3.054 7.285 7.285 0 0 1-6.69 1.839c-5.144-.974-7.12-5.73-6.23-10.432.902-4.765 4.525-8.36 9.606-7.4a7.343 7.343 0 0 1 5.561 4.127l.293-1.547a.906.906 0 0 1 1.082-.711.877.877 0 0 1 .717 1.051l-2.4 12.72c-.382 2.02 2.13 1.188 1.843 2.703a.884.884 0 0 1-1.083.711zm-6.344-17.253c-3.724-.705-6.7 1.838-7.467 5.94s1.048 7.587 4.77 8.292c3.756.712 6.696-1.87 7.474-5.974s-1.022-7.547-4.778-8.26zm15.275 18.943l-.98-.186c-2.493-.473-3.5-1.937-3.024-4.397l2.134-11.267-1.6-.305a.905.905 0 0 1-.71-1.084.896.896 0 0 1 1.051-.717l1.6.306.914-4.828a.903.903 0 0 1 1.082-.711.876.876 0 0 1 .716 1.051l-.914 4.828 2.904.55a.917.917 0 0 1-.341 1.801l-2.904-.55-2.134 11.267c-.292 1.546.084 1.977 1.567 2.258l.98.185a.917.917 0 0 1-.341 1.801zm19.598 3.7l-.03-.006a3.327 3.327 0 0 1-2.658-3.054 7.29 7.29 0 0 1-6.69 1.839c-5.144-.975-7.12-5.73-6.23-10.432.902-4.765 4.525-8.362 9.606-7.4a7.342 7.342 0 0 1 5.561 4.126l.293-1.547a.908.908 0 0 1 1.083-.711.878.878 0 0 1 .716 1.052l-2.408 12.72c-.383 2.02 2.13 1.187 1.842 2.702a.884.884 0 0 1-1.083.711zm-6.344-17.252c-3.724-.705-6.7 1.838-7.467 5.94s1.048 7.588 4.77 8.293c3.756.7 6.696-1.87 7.474-5.974s-1.022-7.548-4.778-8.26zm12.59 18.632a3.367 3.367 0 0 1-2.491-3.937l3.5-18.43a.916.916 0 0 1 1.799.341l-3.5 18.43c-.382 2.02 2.08 1.275 1.8 2.696a1.036 1.036 0 0 1-1.118.899zm4.106.58a.883.883 0 0 1-.748-1.057l2.84-15a.886.886 0 0 1 1.083-.711.876.876 0 0 1 .717 1.052l-2.84 15a.86.86 0 0 1-1.052.716zm3.748-19.787a1.831 1.831 0 1 1 2.139-1.459 1.809 1.809 0 0 1-2.139 1.459zm6.76 21.777l-.978-.185c-2.493-.473-3.5-1.937-3.025-4.398l2.134-11.266-1.6-.306a.916.916 0 0 1 .341-1.8l1.6.305.914-4.828a.904.904 0 0 1 1.083-.71.876.876 0 0 1 .716 1.051l-.914 4.828 2.903.55a.916.916 0 0 1-.341 1.8l-2.903-.55-2.134 11.267c-.292 1.546.084 1.977 1.567 2.258l.978.185a.916.916 0 0 1-.341 1.8zm4.04.767a.884.884 0 0 1-.748-1.058l2.84-15a.885.885 0 0 1 1.083-.71.874.874 0 0 1 .716 1.051l-2.84 15a.861.861 0 0 1-1.051.717zm3.747-19.787a1.831 1.831 0 1 1 2.14-1.46 1.811 1.811 0 0 1-2.14 1.46zm16.636 15.9l-13.097-2.48c-.397 3.65 1.442 6.713 4.882 7.364a5.809 5.809 0 0 0 5.052-1.299.845.845 0 0 1 .842-.3.983.983 0 0 1 .816 1.038c-.054.284-.065.347-.797.93a7.587 7.587 0 0 1-6.254 1.431c-5.08-.962-7.132-5.665-6.23-10.432.896-4.733 4.525-8.36 9.606-7.4s7.127 5.697 6.236 10.4a.974.974 0 0 1-1.058.749zm-5.52-9.35c-3.787-.718-6.325 1.8-7.236 5.068l12.15 2.3c.397-3.65-1.442-6.712-4.914-7.37zm13.27 19.185c-1.894-.358-4.956-1.625-5.714-3.665a.776.776 0 0 1-.037-.497.876.876 0 0 1 1.705-.2c.874 1.604 2.84 2.27 4.387 2.563 3.06.58 4.8-.136 5.188-2.188.902-4.766-9.928-4.2-8.732-10.513.604-3.187 4.023-3.814 6.896-3.27 1.642.3 4.06 1.357 5.082 2.858a.903.903 0 0 1 .171.653 1.041 1.041 0 0 1-1.157.762.849.849 0 0 1-.553-.366 6.416 6.416 0 0 0-3.883-2.109c-2.777-.525-4.464.268-4.757 1.813-.837 4.418 9.957 4.043 8.73 10.513-.682 3.598-4.076 4.263-7.326 3.647zm-207.47-409.488a7.462 7.462 0 0 1-6.245-.106c-4.725-2.1-5.644-7.15-3.673-11.58 1.958-4.402 6.32-7.102 11.047-5a7.455 7.455 0 0 1 4.261 4.567.844.844 0 0 1-.013.662 1.006 1.006 0 0 1-1.242.501.937.937 0 0 1-.485-.567 5.668 5.668 0 0 0-3.265-3.49c-3.463-1.54-6.933.257-8.63 4.072s-.72 7.625 2.744 9.164a5.768 5.768 0 0 0 4.777.086.912.912 0 0 1 1.22 1.211.926.926 0 0 1-.496.482zm8.87 6.615c-4.726-2.102-5.645-7.15-3.674-11.58 1.958-4.402 6.322-7.103 11.048-5s5.644 7.15 3.686 11.553c-1.97 4.432-6.335 7.13-11.06 5.03zm6.63-14.9c-3.464-1.54-6.933.257-8.63 4.07s-.72 7.625 2.744 9.165c3.492 1.554 6.946-.285 8.643-4.1s.735-7.582-2.757-9.136zm6.7 20.448a3.365 3.365 0 0 1-1.521-4.402l7.62-17.14a.916.916 0 0 1 1.674.743l-7.622 17.14c-.835 1.877 1.73 1.718 1.144 3.04a1.036 1.036 0 0 1-1.295.619zm5.84 2.596a3.366 3.366 0 0 1-1.521-4.402l7.622-17.14a.916.916 0 0 1 1.673.744l-7.62 17.14c-.836 1.878 1.73 1.72 1.144 3.04a1.037 1.037 0 0 1-1.296.618zm3.866 1.508a.883.883 0 0 1-.486-1.2l6.2-13.94a.885.885 0 0 1 1.217-.442.875.875 0 0 1 .457 1.187l-6.2 13.94a.859.859 0 0 1-1.186.456zm8.183-18.4a1.831 1.831 0 1 1 2.417-.929 1.811 1.811 0 0 1-2.417.929zm.87 23.096c-1.76-.783-4.45-2.718-4.72-4.877a.772.772 0 0 1 .078-.492.876.876 0 0 1 1.706.195c.482 1.76 2.243 2.86 3.68 3.5 2.848 1.266 4.703.967 5.552-.94 1.97-4.432-8.7-6.364-6.1-12.235 1.317-2.964 4.8-2.8 7.462-1.603 1.526.68 3.64 2.252 4.3 3.947a.9.9 0 0 1 .017.675 1.042 1.042 0 0 1-1.302.477.853.853 0 0 1-.453-.483 6.429 6.429 0 0 0-3.297-2.942c-2.582-1.148-4.405-.764-5.045.674-1.827 4.1 8.765 6.218 6.1 12.235-1.487 3.346-4.944 3.214-7.968 1.87zm9.55 3.578a.882.882 0 0 1-.485-1.199l6.2-13.94a.884.884 0 0 1 1.217-.443.875.875 0 0 1 .457 1.187l-6.2 13.94a.86.86 0 0 1-1.187.456zm8.183-18.4a1.831 1.831 0 1 1 2.417-.929 1.811 1.811 0 0 1-2.417.929zm2.69 23.832c-4.725-2.102-5.644-7.15-3.673-11.582 1.958-4.402 6.32-7.102 11.047-5s5.644 7.15 3.687 11.552c-1.972 4.432-6.335 7.13-11.06 5.03zm6.63-14.9c-3.463-1.54-6.933.256-8.63 4.07s-.72 7.625 2.744 9.165c3.492 1.553 6.946-.285 8.643-4.102s.736-7.582-2.757-9.135zm16.425 24.566a.903.903 0 0 1-.484-1.2l3.8-8.57a5.492 5.492 0 1 0-10.037-4.464l-3.8 8.57a.916.916 0 0 1-1.674-.744l6.2-13.94a.916.916 0 0 1 1.674.744l-.418.94a7.327 7.327 0 0 1 9.739 9.639l-3.812 8.57a.897.897 0 0 1-1.187.456zm8.793 4.577c-1.762-.783-4.45-2.718-4.722-4.877a.772.772 0 0 1 .078-.492.876.876 0 0 1 1.706.196c.482 1.76 2.242 2.86 3.682 3.5 2.846 1.266 4.702.967 5.55-.94 1.97-4.432-8.7-6.363-6.1-12.234 1.318-2.965 4.8-2.8 7.462-1.604 1.526.68 3.64 2.252 4.3 3.947a.902.902 0 0 1 .017.676 1.042 1.042 0 0 1-1.302.476.85.85 0 0 1-.453-.483 6.425 6.425 0 0 0-3.296-2.941c-2.583-1.148-4.406-.765-5.046.673-1.827 4.1 8.765 6.22 6.1 12.235-1.487 3.346-4.944 3.215-7.967 1.87zM43.994 360.87q-.064.35.288.288h1.888c.213-.02.3.073.288.283v1.514c.02.2-.075.315-.288.315h-1.888q-.32-.03-.288.288v4.48c.02.256-.075.373-.288.352h-1.6q-.256.03-.256-.352v-4.48q.03-.32-.288-.288h-7.265c-.2 0-.288-.105-.288-.315v-1.925l.128-.544 6.656-14.272a.501.501 0 0 1 .448-.256h2.464c.213-.02.3.085.288.32zm-2.4-11.776l-5.44 11.776c-.107.192-.043.288.2.288h5.217q.32.064.288-.288v-11.712q-.097-.32-.257-.064zm12.82-3.617a5.483 5.483 0 0 1 4.109 1.792 6.162 6.162 0 0 1 1.229 1.904 5.845 5.845 0 0 1 .41 2.384 7.054 7.054 0 0 1-.709 3.2 4.395 4.395 0 0 1-1.954 1.92c-.085.064-.075.17.032.32a5.853 5.853 0 0 1 3.04 5.472 6.485 6.485 0 0 1-1.792 4.64 5.845 5.845 0 0 1-4.384 1.824 5.968 5.968 0 0 1-2.433-.48 6.391 6.391 0 0 1-1.952-1.344 6.489 6.489 0 0 1-1.792-4.64 5.84 5.84 0 0 1 3.072-5.472q.192-.192.032-.32a4.487 4.487 0 0 1-1.937-1.92 7.223 7.223 0 0 1-.752-3.2 5.734 5.734 0 0 1 .418-2.384 5.875 5.875 0 0 1 1.284-1.904 5.378 5.378 0 0 1 4.077-1.792zm.013 21.344a3.703 3.703 0 0 0 2.849-1.216 4.414 4.414 0 0 0 1.056-3.104 5.171 5.171 0 0 0-1.023-3.328 3.782 3.782 0 0 0-5.729 0 5.165 5.165 0 0 0-1.023 3.328 4.414 4.414 0 0 0 1.056 3.104 3.542 3.542 0 0 0 2.815 1.216h0zm-.063-11.072q3.456-.193 3.488-4.145a4.3 4.3 0 0 0-.929-2.827 3.352 3.352 0 0 0-5.12 0 4.461 4.461 0 0 0-.928 2.827q.097 3.952 3.488 4.145z" class="Q"/><g class="R"><path d="M1021.078 771.224a.254.254 0 0 0 .288.287h9.12c.235-.063.33.02.288.257v1.695q.064.353-.288.32h-11.455c-.235.043-.33-.064-.288-.32v-1.695a9.727 9.727 0 0 1 .655-3.712 8.18 8.18 0 0 1 1.776-2.721q1.15-1.087 2.288-2.08 1.135-.992 2.256-1.855a6.81 6.81 0 0 0 1.76-1.968 5.425 5.425 0 0 0 .704-2.513 3.958 3.958 0 0 0-.928-2.752 3.112 3.112 0 0 0-2.528-1.12 3.397 3.397 0 0 0-2.752 1.185 4.379 4.379 0 0 0-1.023 2.815c0 .3-.118.416-.353.353h-1.696c-.234.063-.33-.032-.287-.288a6.892 6.892 0 0 1 1.792-4.384 5.618 5.618 0 0 1 4.352-1.92 5.536 5.536 0 0 1 4.16 1.728 6.194 6.194 0 0 1 1.248 1.888 5.764 5.764 0 0 1 .416 2.4 7.179 7.179 0 0 1-.672 3.04 6.691 6.691 0 0 1-1.761 2.24l-4.512 3.775a7.334 7.334 0 0 0-2.56 5.345h0zm18.624-20.416a6.198 6.198 0 0 1 4.512 1.855 6.341 6.341 0 0 1 1.328 2.048 6.901 6.901 0 0 1 .464 2.592v10.56a6.569 6.569 0 0 1-1.792 4.704 5.665 5.665 0 0 1-1.968 1.376 6.988 6.988 0 0 1-5.088 0 5.979 5.979 0 0 1-2-1.376 6.562 6.562 0 0 1-1.761-4.704v-10.56a6.407 6.407 0 0 1 1.761-4.64 6.138 6.138 0 0 1 4.544-1.855zm-3.937 6.495v10.56a4.46 4.46 0 0 0 1.057 3.136 3.611 3.611 0 0 0 2.88 1.216 3.737 3.737 0 0 0 2.88-1.216 4.603 4.603 0 0 0 1.088-3.136v-10.56a4.364 4.364 0 0 0-1.088-3.071 3.74 3.74 0 0 0-2.88-1.216 3.614 3.614 0 0 0-2.88 1.216 4.368 4.368 0 0 0-1.057 3.071h0z"/><use xlink:href="#T"/><use xlink:href="#T" x="14.08"/></g><path d="M36.397 741.04a.254.254 0 0 0 .288.287h9.12c.235-.063.33.02.288.257v1.695q.064.353-.288.32H34.35c-.235.043-.33-.064-.288-.32v-1.695a9.726 9.726 0 0 1 .655-3.712 8.18 8.18 0 0 1 1.776-2.721q1.15-1.087 2.288-2.08 1.135-.992 2.256-1.855a6.81 6.81 0 0 0 1.76-1.968 5.425 5.425 0 0 0 .704-2.513 3.958 3.958 0 0 0-.928-2.752 3.112 3.112 0 0 0-2.528-1.12 3.397 3.397 0 0 0-2.752 1.185 4.379 4.379 0 0 0-1.023 2.815c0 .3-.118.416-.353.353H34.22c-.234.063-.33-.032-.287-.288a6.892 6.892 0 0 1 1.792-4.384 5.618 5.618 0 0 1 4.352-1.92 5.536 5.536 0 0 1 4.16 1.728 6.194 6.194 0 0 1 1.248 1.888 5.764 5.764 0 0 1 .416 2.4 7.179 7.179 0 0 1-.672 3.04 6.691 6.691 0 0 1-1.761 2.24l-4.512 3.775a7.334 7.334 0 0 0-2.56 5.345h0zm18.016.96a3.772 3.772 0 0 0 2.848-1.28 4.441 4.441 0 0 0 1.056-3.072 4.808 4.808 0 0 0-1.247-3.552 4.416 4.416 0 0 0-3.265-1.248h-.352q-.353.064-.288-.325v-1.526q-.064-.356.288-.26h.2a4.374 4.374 0 0 0 1.696-.318 4.11 4.11 0 0 0 1.344-.893 4.639 4.639 0 0 0 .912-1.387 3.888 3.888 0 0 0 .272-1.8q-.097-3.378-3.232-3.475a2.91 2.91 0 0 0-2.24.832 3.996 3.996 0 0 0-1.151 2.464c0 .3-.097.428-.288.385H49.26q-.384.032-.288-.32a6.362 6.362 0 0 1 1.792-3.968 5.328 5.328 0 0 1 3.904-1.632 5.402 5.402 0 0 1 3.968 1.632 5.96 5.96 0 0 1 1.2 1.824 6.253 6.253 0 0 1 .144 4.159 4.889 4.889 0 0 1-.8 1.473 6 6 0 0 1-2.176 1.823q-.256.16.032.353a7.109 7.109 0 0 1 2.399 1.824 5.733 5.733 0 0 1 1.248 3.936 6.732 6.732 0 0 1-.464 2.512 6.463 6.463 0 0 1-3.344 3.536 6.308 6.308 0 0 1-2.496.544 6.031 6.031 0 0 1-4.192-1.632 6.365 6.365 0 0 1-1.888-4.544q-.095-.16.256-.256h1.696c.213-.02.33.107.352.384q.256 3.65 3.8 3.8h0z" class="Q"/><path d="M934.285 786.507a.25.25 0 0 1 .319.288v1.664a.282.282 0 0 1-.319.319h-10.208q-.353 0-.32-.32v-1.664c-.02-.213.085-.3.32-.288h10.208zm5.76 7.136q.256 3.425 3.76 3.52a3.466 3.466 0 0 0 2.667-1.057 4.155 4.155 0 0 0 1.028-2.976v-2.85a4.191 4.191 0 0 0-.896-2.752 3.25 3.25 0 0 0-1.136-.832 3.678 3.678 0 0 0-1.488-.287 4.545 4.545 0 0 0-3.104 1.056.318.318 0 0 1-.415.16h-1.536c-.235.063-.32-.02-.257-.256v-10.72c-.063-.234.02-.33.257-.288h9.76q.32-.03.288.288v1.568q.03.353-.288.32h-7.616q-.353-.032-.288.288V785q0 .287.288.128a6.482 6.482 0 0 1 3.104-.704 5.505 5.505 0 0 1 4.063 1.6 5.753 5.753 0 0 1 1.568 4.256v2.85a6.535 6.535 0 0 1-.464 2.544 5.997 5.997 0 0 1-1.296 1.936 6.233 6.233 0 0 1-1.937 1.28 6.125 6.125 0 0 1-2.384.448 6.048 6.048 0 0 1-2.368-.433 5.669 5.669 0 0 1-1.824-1.231 6.126 6.126 0 0 1-1.728-4.128c-.043-.213.052-.3.284-.288h1.608q.347-.064.348.384h0zm23.327-14.303a39.412 39.412 0 0 0-4.159 9.408 39.851 39.851 0 0 0-1.072 4.752 40.252 40.252 0 0 0-.496 5.04q.03.384-.32.352h-1.792q-.352-.064-.256-.352a35.241 35.241 0 0 1 .544-4.929 49.449 49.449 0 0 1 1.185-4.991 43.894 43.894 0 0 1 1.823-4.929 39.694 39.694 0 0 1 2.464-4.704q.3-.447-.03-.447h-9.632c-.235.043-.32-.064-.257-.32v-1.632c-.063-.234.02-.33.257-.288h11.615c.234-.043.32.054.256.288v2.304l-.128.448zm4.694-3.328a2.236 2.236 0 0 1 1.604.652 2.343 2.343 0 0 1 .615 1.642v1.14a2.343 2.343 0 0 1-.615 1.642 2.104 2.104 0 0 1-1.604.652 2.194 2.194 0 0 1-.877-.168 2.237 2.237 0 0 1-.709-.484 2.303 2.303 0 0 1-.635-1.642v-1.14a2.303 2.303 0 0 1 .635-1.642 2.213 2.213 0 0 1 1.586-.652zm-.635 13.208c-.062.15-.137.218-.224.205h-.802c-.15 0-.187-.062-.112-.187l7.52-12.76c.037-.15.1-.2.224-.187h.802c.15-.024.187.03.112.168zm-.56-10.857v1.025a1.32 1.32 0 0 0 .317.971 1.383 1.383 0 0 0 1.772-.01 1.329 1.329 0 0 0 .317-.961v-1.025a1.329 1.329 0 0 0-.317-.961 1.193 1.193 0 0 0-.895-.327q-1.138 0-1.194 1.288zm6.287 11.343a2.043 2.043 0 0 1-1.567-.672 2.213 2.213 0 0 1-.484-.719 2.262 2.262 0 0 1-.168-.886v-1.12a2.203 2.203 0 0 1 .652-1.623 2.054 2.054 0 0 1 1.567-.635 2.099 2.099 0 0 1 1.604.635 2.277 2.277 0 0 1 .635 1.623v1.12a2.231 2.231 0 0 1-2.239 2.276zm1.213-2.332v-1.008a1.089 1.089 0 0 0-1.213-1.25 1.184 1.184 0 0 0-.877.317 1.263 1.263 0 0 0-.317.933v1.008a1.289 1.289 0 0 0 .317.951 1.184 1.184 0 0 0 .877.317q1.157 0 1.213-1.27h0zm-40.6 145.248a.25.25 0 0 1 .319.288v1.664a.282.282 0 0 1-.319.319h-10.208q-.353 0-.32-.32V932.9c-.02-.213.085-.3.32-.288h10.208zm5.696 7.136q.256 3.425 3.76 3.52a3.466 3.466 0 0 0 2.667-1.057 4.155 4.155 0 0 0 1.028-2.976v-2.85a4.191 4.191 0 0 0-.896-2.752 3.25 3.25 0 0 0-1.136-.832 3.678 3.678 0 0 0-1.488-.287 4.545 4.545 0 0 0-3.104 1.056.318.318 0 0 1-.415.16h-1.536c-.235.063-.32-.02-.257-.256v-10.72c-.063-.234.02-.33.257-.288h9.76q.32-.03.288.288v1.568q.03.353-.288.32h-7.616q-.353-.032-.288.288v6.176q0 .287.288.128a6.482 6.482 0 0 1 3.104-.704 5.505 5.505 0 0 1 4.063 1.6 5.753 5.753 0 0 1 1.568 4.256v2.85a6.535 6.535 0 0 1-.464 2.544 5.997 5.997 0 0 1-1.296 1.936 6.233 6.233 0 0 1-1.937 1.28 6.124 6.124 0 0 1-2.384.448 6.048 6.048 0 0 1-2.368-.433 5.669 5.669 0 0 1-1.824-1.231 6.126 6.126 0 0 1-1.728-4.128c-.043-.213.052-.3.284-.288h1.608q.347-.064.348.384h0zm14.56 2.56a.254.254 0 0 0 .288.287h9.12c.235-.063.33.02.288.257v1.695q.064.353-.288.32H951.98c-.235.043-.33-.064-.288-.32v-1.695a9.726 9.726 0 0 1 .655-3.712 8.18 8.18 0 0 1 1.776-2.721q1.15-1.087 2.288-2.08 1.135-.992 2.256-1.855a6.81 6.81 0 0 0 1.76-1.968 5.425 5.425 0 0 0 .704-2.513 3.958 3.958 0 0 0-.928-2.752 3.112 3.112 0 0 0-2.528-1.12 3.397 3.397 0 0 0-2.752 1.185 4.379 4.379 0 0 0-1.023 2.815c0 .3-.118.416-.353.353h-1.696c-.234.063-.33-.032-.287-.288a6.892 6.892 0 0 1 1.792-4.384 5.618 5.618 0 0 1 4.352-1.92 5.536 5.536 0 0 1 4.16 1.728 6.194 6.194 0 0 1 1.248 1.888 5.764 5.764 0 0 1 .416 2.4 7.179 7.179 0 0 1-.672 3.04 6.691 6.691 0 0 1-1.761 2.24l-4.512 3.775a7.334 7.334 0 0 0-2.56 5.345h0zm14.038-20.1a2.236 2.236 0 0 1 1.604.652 2.343 2.343 0 0 1 .615 1.642v1.14a2.343 2.343 0 0 1-.615 1.642 2.104 2.104 0 0 1-1.604.652 2.194 2.194 0 0 1-.877-.168 2.237 2.237 0 0 1-.709-.484 2.303 2.303 0 0 1-.635-1.642v-1.14a2.303 2.303 0 0 1 .635-1.642 2.213 2.213 0 0 1 1.586-.652zm-.635 13.208c-.062.15-.137.218-.224.205h-.802c-.15 0-.187-.062-.112-.187l7.52-12.76c.037-.15.1-.2.224-.187h.802c.15-.024.187.03.112.168zm-.56-10.857v1.025a1.32 1.32 0 0 0 .317.971 1.383 1.383 0 0 0 1.772-.01 1.329 1.329 0 0 0 .317-.961v-1.025a1.329 1.329 0 0 0-.317-.961 1.193 1.193 0 0 0-.896-.327q-1.138 0-1.194 1.288zm6.287 11.343a2.043 2.043 0 0 1-1.567-.672 2.213 2.213 0 0 1-.484-.719 2.262 2.262 0 0 1-.168-.886v-1.12a2.203 2.203 0 0 1 .652-1.623 2.054 2.054 0 0 1 1.567-.635 2.099 2.099 0 0 1 1.604.635 2.277 2.277 0 0 1 .635 1.623v1.12a2.231 2.231 0 0 1-2.239 2.276zm1.213-2.332v-1.008a1.089 1.089 0 0 0-1.213-1.25 1.184 1.184 0 0 0-.877.317 1.263 1.263 0 0 0-.317.933v1.008a1.289 1.289 0 0 0 .317.951 1.184 1.184 0 0 0 .877.317q1.157 0 1.213-1.27h0z" fill="#7f7f7f"/><path d="M302.445 944.005c0-.213-.096-.32-.288-.32a5.958 5.958 0 0 1-3.495-2.181 7.807 7.807 0 0 1-.85-1.699 5.538 5.538 0 0 1-.305-1.859q-.097-.482.353-.385h1.347c.385-.064.598.054.642.353a4.74 4.74 0 0 0 .993 2.661 3.373 3.373 0 0 0 2.758 1.122q3.75-.095 3.815-3.75a3.44 3.44 0 0 0-1.378-2.982 12.656 12.656 0 0 0-1.508-.914q-.834-.432-1.86-.882a9.942 9.942 0 0 1-1.764-.978 9.595 9.595 0 0 1-1.443-1.234 5.378 5.378 0 0 1-1.01-1.619 5.193 5.193 0 0 1-.337-2.101 5.813 5.813 0 0 1 1.199-3.607 6.475 6.475 0 0 1 3.246-2.036c.17 0 .256-.117.256-.353v-3.143c-.043-.213.053-.3.287-.288h1.632q.32 0 .32.288v3.078q-.064.353.224.353a5.112 5.112 0 0 1 3.357 2.021 5.872 5.872 0 0 1 1.088 3.527q.095.48-.316.385h-1.36q-.507.095-.57-.353-.064-3.43-3.56-3.527a3.228 3.228 0 0 0-2.597 1.026 3.785 3.785 0 0 0-.897 2.532 3.248 3.248 0 0 0 1.182 2.662 8.446 8.446 0 0 0 1.294.882 15.889 15.889 0 0 0 1.55.753 14.796 14.796 0 0 1 2.269 1.219 9.63 9.63 0 0 1 1.63 1.347 5.381 5.381 0 0 1 1.343 3.848 5.74 5.74 0 0 1-1.339 4.009 5.348 5.348 0 0 1-3.441 1.892c-.2 0-.286.106-.286.32v3.078c.02.235-.075.33-.3.3H302.7c-.214.042-.3-.043-.257-.257zm30.1 1.835q-.122.66.54.54h3.54q.6-.06.54.532v2.838q.06.6-.54.6h-3.54q-.6-.06-.54.54v8.4q.06.72-.54.66h-3q-.48.06-.48-.66v-8.4q.06-.6-.54-.54h-13.62q-.54 0-.54-.6v-3.6l.24-1.02 12.48-26.76a.94.94 0 0 1 .84-.48h4.62c.4-.04.58.16.54.6zm-4.5-22.08l-10.2 22.08q-.3.54.36.54h9.78q.6.122.54-.54v-21.96c-.12-.4-.28-.44-.48-.12zm25.198-6.9a11.617 11.617 0 0 1 8.46 3.479 11.884 11.884 0 0 1 2.49 3.841 12.923 12.923 0 0 1 .87 4.859v19.8a12.311 12.311 0 0 1-3.36 8.82 10.617 10.617 0 0 1-3.689 2.58 13.085 13.085 0 0 1-9.54 0 11.23 11.23 0 0 1-3.75-2.58 12.303 12.303 0 0 1-3.3-8.82v-19.8a12.018 12.018 0 0 1 3.3-8.7 11.512 11.512 0 0 1 8.519-3.479zm-7.38 12.18v19.8a8.363 8.363 0 0 0 1.98 5.88 6.776 6.776 0 0 0 5.399 2.28 7.007 7.007 0 0 0 5.4-2.28 8.625 8.625 0 0 0 2.04-5.88v-19.8a8.183 8.183 0 0 0-2.04-5.76 7.013 7.013 0 0 0-5.4-2.28 6.782 6.782 0 0 0-5.399 2.28 8.19 8.19 0 0 0-1.98 5.76h0z" class="O P"/><g class="O P"><use xlink:href="#U"/><path d="M209.87 938.28a2.592 2.592 0 1 1 2.592-2.592 2.58 2.58 0 0 1-2.592 2.592zm0 22.03a1.512 1.512 0 0 1-1.584-1.512v-16.054a1.52 1.52 0 0 1 1.584-1.548 1.483 1.483 0 0 1 1.512 1.548V958.8a1.452 1.452 0 0 1-1.512 1.512zm20.734-17l-6.552 15.767a1.64 1.64 0 0 1-1.548 1.224 1.741 1.741 0 0 1-1.547-1.224l-6.552-15.767a2.202 2.202 0 0 1-.107-.647 1.552 1.552 0 0 1 1.583-1.476 1.474 1.474 0 0 1 1.368.936l5.255 12.6 5.256-12.6a1.551 1.551 0 0 1 2.987.504 1.801 1.801 0 0 1-.144.684zm18.036 9h-13.32c.504 3.384 2.664 5.544 5.83 5.544a5.402 5.402 0 0 0 4.283-1.872 1.491 1.491 0 0 1 1.116-.576 1.68 1.68 0 0 1 1.62 1.584c0 .432-.108.756-.864 1.512a8.772 8.772 0 0 1-6.155 2.412c-5.795 0-9.035-4.788-9.035-10.187 0-5.363 3.24-10.15 9.035-10.15 5.867 0 9 4.787 9 10.15a1.535 1.535 0 0 1-1.512 1.584zm-7.487-8.675c-3.384 0-5.363 2.483-5.83 5.58h11.662c-.504-3.455-2.663-5.58-5.83-5.58zm18.18 17.278c-1.98 0-5.292-.612-6.983-2.7a1.593 1.593 0 0 1 1.296-2.556 1.479 1.479 0 0 1 1.116.612 6.151 6.151 0 0 0 4.571 1.584c3.24 0 4.283-1.116 4.283-2.736 0-4.607-10.98-1.764-10.98-9.18 0-3.924 3.672-5.363 7.1-5.363 1.944 0 6.516.972 6.516 2.987a1.617 1.617 0 0 1-1.512 1.62 2.168 2.168 0 0 1-1.188-.468 5.833 5.833 0 0 0-3.815-1.08c-2.987 0-4.03 1.116-4.03 2.304 0 4.283 11.015 1.512 11.015 9.18 0 4.248-3.563 5.796-7.38 5.796z"/></g><g class="O P"><path d="M399.552 959.927a1.474 1.474 0 0 1-1.512-1.512v-11.34a3.798 3.798 0 0 0-7.596-.036v11.34a1.472 1.472 0 0 1-1.548 1.548 1.454 1.454 0 0 1-1.512-1.512v-11.34a3.816 3.816 0 0 0-7.631-.036v11.34a1.501 1.501 0 0 1-1.584 1.548 1.474 1.474 0 0 1-1.512-1.512v-16.1a1.579 1.579 0 0 1 2.88-.864 6.934 6.934 0 0 1 3.995-1.26 6.813 6.813 0 0 1 5.363 2.556 6.743 6.743 0 0 1 5.328-2.556 6.875 6.875 0 0 1 6.911 6.839v11.34a1.501 1.501 0 0 1-1.584 1.548z"/><use xlink:href="#V"/><use xlink:href="#U" x="212.399" y="-0.383"/><use xlink:href="#U" x="219.886" y="-0.383"/><use xlink:href="#V" x="22.678"/><path d="M443.796 960.54c-5.795 0-9.035-4.752-9.035-10.187 0-5.4 3.24-10.15 9.035-10.15s9.035 4.75 9.035 10.15c0 5.436-3.24 10.188-9.035 10.188zm0-17.278c-3.6 0-5.94 2.808-5.94 7.1 0 4.32 2.34 7.128 5.94 7.128 3.636 0 5.94-2.808 5.94-7.128 0-4.283-2.304-7.1-5.94-7.1zm27.466 16.665a1.454 1.454 0 0 1-1.512-1.512v-10.007a5.13 5.13 0 1 0-10.259 0v9.97a1.53 1.53 0 0 1-1.584 1.584 1.483 1.483 0 0 1-1.512-1.548v-16.1a1.432 1.432 0 0 1 1.512-1.512 1.505 1.505 0 0 1 1.548 1.188 8.221 8.221 0 0 1 13.354 6.407v9.97a1.472 1.472 0 0 1-1.548 1.548z"/></g><g class="O P"><use xlink:href="#W"/><use xlink:href="#X"/><path d="M151.957 975.172l-5.516 13.133a.92.92 0 0 1-.784.644.954.954 0 0 1-.812-.644L139.33 975.2a.894.894 0 0 1-.056-.364.783.783 0 0 1 .812-.756.719.719 0 0 1 .7.477l4.872 11.508 4.844-11.508a.799.799 0 0 1 1.54.252.668.668 0 0 1-.084.363z"/><use xlink:href="#Y"/><use xlink:href="#Z"/><path d="M193.65 971.393a1.596 1.596 0 1 1 1.596-1.597 1.578 1.578 0 0 1-1.596 1.597zm0 17.556a.77.77 0 0 1-.812-.784v-13.3a.772.772 0 0 1 .813-.784.762.762 0 0 1 .783.784v13.3a.749.749 0 0 1-.783.784zm16.183-.001a.787.787 0 0 1-.812-.784v-8.176a4.788 4.788 0 0 0-9.576 0v8.176a.798.798 0 0 1-1.596 0v-13.3a.798.798 0 0 1 1.596 0v.896a6.388 6.388 0 0 1 11.173 4.228v8.176a.781.781 0 0 1-.784.784z"/><use xlink:href="#a"/><path d="M233.24 989.424c-4.508 0-7.027-3.695-7.027-7.924 0-4.2 2.52-7.896 7.027-7.896s7.028 3.695 7.028 7.896c0 4.23-2.52 7.924-7.028 7.924zm0-14.224c-3.304 0-5.432 2.66-5.432 6.3s2.128 6.328 5.432 6.328c3.332 0 5.433-2.687 5.433-6.328s-2.1-6.3-5.433-6.3z"/><use xlink:href="#a" x="23.66"/><use xlink:href="#X" x="127.369"/><path d="M270.928 989.116a2.935 2.935 0 0 1-2.772-2.968v-16.353a.798.798 0 0 1 1.596 0v16.353c0 1.792 1.988.756 1.988 2.016a.903.903 0 0 1-.812.952z"/></g><g class="O P"><use xlink:href="#W" x="204.144" y="-0.007"/><use xlink:href="#X" x="204.704" y="-0.008"/><path d="M356.915 975.164l-5.516 13.133a.92.92 0 0 1-.784.644.954.954 0 0 1-.812-.644l-5.517-13.105a.894.894 0 0 1-.056-.364.783.783 0 0 1 .812-.756.719.719 0 0 1 .7.477l4.872 11.508 4.844-11.508a.799.799 0 0 1 1.54.252.668.668 0 0 1-.084.363z"/><use xlink:href="#Y" x="204.258" y="-0.008"/><use xlink:href="#Z" x="203.949" y="-0.008"/><path d="M402.05 989.416a6.355 6.355 0 0 1-5.433-2.659v7.252a.798.798 0 1 1-1.596 0v-19.152a.798.798 0 0 1 1.596 0v1.372a6.403 6.403 0 0 1 5.433-2.632c4.508 0 7.027 3.695 7.027 7.896 0 4.23-2.52 7.924-7.027 7.924zm0-14.224c-3.332 0-5.433 2.66-5.433 6.3s2.1 6.328 5.433 6.328 5.432-2.687 5.432-6.328-2.1-6.3-5.432-6.3z"/><use xlink:href="#Y" x="258.073" y="-0.008"/><path d="M434.417 975.444a4.786 4.786 0 0 0-4.788 4.788v7.924a.798.798 0 0 1-1.596 0v-13.3a.798.798 0 0 1 1.596 0v1.148a6.395 6.395 0 0 1 4.788-2.156.798.798 0 1 1 0 1.596z"/><use xlink:href="#Z" x="270.168" y="-0.008"/><use xlink:href="#X" x="333.334" y="-0.008"/><path d="M486.188 975.192L478.6 993.14a2.898 2.898 0 0 1-2.996 1.68h-1.232a.798.798 0 0 1 0-1.596h1.232c.616 0 1.26-.028 1.512-.672l1.596-3.81-5.796-13.552a.894.894 0 0 1-.056-.364.783.783 0 0 1 .812-.756.719.719 0 0 1 .7.477l5.208 12.15 5.152-12.15a.73.73 0 0 1 .728-.477.76.76 0 0 1 .784.756.894.894 0 0 1-.056.364z"/></g><path d="M114.088 955.115a.477.477 0 0 0 .54.54h17.1q.66-.18.54.48v3.18c.08.44-.1.64-.54.6h-21.48q-.66.12-.54-.6v-3.18a18.245 18.245 0 0 1 1.23-6.96 15.337 15.337 0 0 1 3.329-5.1q2.16-2.04 4.3-3.9 2.13-1.86 4.23-3.48a12.757 12.757 0 0 0 3.3-3.69 10.176 10.176 0 0 0 1.32-4.71 7.425 7.425 0 0 0-1.74-5.16 5.831 5.831 0 0 0-4.74-2.1 6.368 6.368 0 0 0-5.16 2.22 8.222 8.222 0 0 0-1.92 5.28q0 .84-.66.66h-3.18q-.66.18-.54-.54a12.939 12.939 0 0 1 3.36-8.221 10.538 10.538 0 0 1 8.16-3.6 10.381 10.381 0 0 1 7.8 3.24 11.633 11.633 0 0 1 2.34 3.54 10.775 10.775 0 0 1 .78 4.5 13.448 13.448 0 0 1-1.26 5.7 12.511 12.511 0 0 1-3.301 4.199l-8.46 7.08q-4.26 3.48-4.8 10.02h0zm27.12-4.8q.48 6.42 7.05 6.6a6.498 6.498 0 0 0 5.001-1.98 7.788 7.788 0 0 0 1.929-5.579v-5.34a7.852 7.852 0 0 0-1.68-5.159 6.079 6.079 0 0 0-2.13-1.561 6.873 6.873 0 0 0-2.79-.54 8.517 8.517 0 0 0-5.82 1.98.597.597 0 0 1-.78.3h-2.88c-.44.12-.6-.04-.48-.48v-20.1q-.18-.66.48-.54h18.3q.6-.06.54.54v2.94q.06.66-.54.6h-14.28q-.662-.06-.54.54v11.58c0 .36.18.44.54.24a12.135 12.135 0 0 1 5.819-1.32 10.324 10.324 0 0 1 7.62 3 10.783 10.783 0 0 1 2.94 7.979v5.34a12.24 12.24 0 0 1-.87 4.77 11.245 11.245 0 0 1-2.43 3.63 11.691 11.691 0 0 1-3.631 2.4 11.493 11.493 0 0 1-4.47.84 11.341 11.341 0 0 1-4.439-.811 10.614 10.614 0 0 1-3.42-2.31 11.482 11.482 0 0 1-3.24-7.74c-.08-.4.098-.58.532-.54h3.017c.434-.08.65.16.65.72h0zm28.26-20.965v8.604c0 .4.16.48.48.24q1.92-2.52 7.14-3a10.534 10.534 0 0 1 8.22 3.651 13.524 13.524 0 0 1 3.12 9.1 13.864 13.864 0 0 1-3.24 9.158 11.058 11.058 0 0 1-3.66 2.963 10.614 10.614 0 0 1-4.8 1.048 11.052 11.052 0 0 1-4.83-1.02 10.622 10.622 0 0 1-3.689-2.939 13.991 13.991 0 0 1-2.37-4.23 15.609 15.609 0 0 1-.811-5.189v-18.42a13.829 13.829 0 0 1 .811-4.83 12.148 12.148 0 0 1 2.37-3.931 11.027 11.027 0 0 1 8.64-3.72 11.784 11.784 0 0 1 7.561 2.58 10.666 10.666 0 0 1 3.72 6.9c.04.36-.16.54-.6.54h-3.42q-.6 0-.6-.66a7.722 7.722 0 0 0-2.04-3.66 6.65 6.65 0 0 0-4.68-1.5 6.473 6.473 0 0 0-5.4 2.351 8.968 8.968 0 0 0-1.92 5.965zm0 18.685a9.996 9.996 0 0 0 1.86 6.3 6.843 6.843 0 0 0 10.8 0 10.696 10.696 0 0 0 1.86-6.42 12.137 12.137 0 0 0-.48-3.51 9.765 9.765 0 0 0-1.32-2.79 6.092 6.092 0 0 0-5.34-2.46 6.999 6.999 0 0 0-5.55 2.399 10.12 10.12 0 0 0-1.83 6.48h0z" class="O P"/><g class="R"><path d="M61.858 42.497H39.42v12.12h15.72a2.561 2.561 0 0 1 2.58 2.58 2.523 2.523 0 0 1-2.58 2.58H39.42v17.82a2.581 2.581 0 0 1-5.16 0v-37.62a2.612 2.612 0 0 1 2.64-2.58h24.96a2.426 2.426 0 0 1 2.521 2.52 2.505 2.505 0 0 1-2.521 2.58zm33.06 37.618a5.839 5.839 0 0 1-5.34-3.42 13.748 13.748 0 0 1-10.56 4.44c-9.78 0-15.06-8.04-15.06-16.98s5.4-16.92 15.06-16.92a13.257 13.257 0 0 1 9.899 3.96v-.24a2.476 2.476 0 0 1 2.52-2.7 2.412 2.412 0 0 1 2.641 2.52v23.16a.971.971 0 0 0 .84 1.08 2.55 2.55 0 1 1 0 5.1zm-15.9-27.78c-6 0-9.9 4.68-9.9 11.82 0 7.2 3.9 11.88 9.9 11.88 6.06 0 9.9-4.68 9.9-11.88 0-7.14-3.84-11.82-9.9-11.82z"/><use xlink:href="#b"/><path d="M157.977 42.497h-22.44v12.12h15.72a2.561 2.561 0 0 1 2.58 2.58 2.523 2.523 0 0 1-2.58 2.58h-15.72v17.82a2.575 2.575 0 0 1-2.52 2.52 2.602 2.602 0 0 1-2.641-2.52V39.977a2.613 2.613 0 0 1 2.641-2.58h24.96a2.425 2.425 0 0 1 2.52 2.52 2.505 2.505 0 0 1-2.52 2.58z"/><use xlink:href="#c"/><path d="M233.755 51.676l-9.3 26.34a2.728 2.728 0 0 1-2.641 2.1c-1.26 0-1.98-.54-2.52-2.1l-7.02-19.8-7.08 19.8a2.598 2.598 0 0 1-5.1 0l-9.24-26.34a2.64 2.64 0 0 1-.12-.96 2.585 2.585 0 0 1 2.641-2.46 2.379 2.379 0 0 1 2.34 1.68l6.96 20.04 7.08-19.62c.48-1.38 1.08-2.1 2.52-2.1 1.32 0 2.04.66 2.52 2.1l7.02 19.62 7.02-20.04a2.359 2.359 0 0 1 2.28-1.68 2.667 2.667 0 0 1 2.76 2.52 2.484 2.484 0 0 1-.12.9z"/><use xlink:href="#c" x="75.719"/><path d="M283.255 52.336a8.644 8.644 0 0 0-8.52 8.58v16.62a2.501 2.501 0 0 1-2.64 2.58 2.456 2.456 0 0 1-2.52-2.52v-26.76a2.541 2.541 0 0 1 2.52-2.58 2.464 2.464 0 0 1 2.58 2.04 13.874 13.874 0 0 1 8.579-3.06 2.552 2.552 0 1 1 0 5.1z"/></g><g class="Q"><path d="M323.033 42.497h-9.96v35.1a2.424 2.424 0 0 1-2.521 2.52 2.505 2.505 0 0 1-2.58-2.52v-35.1h-9.84a2.534 2.534 0 0 1-2.641-2.58 2.506 2.506 0 0 1 2.58-2.52h24.96a2.55 2.55 0 1 1 0 5.1zm16.74 9.84a8.644 8.644 0 0 0-8.52 8.58v16.62a2.502 2.502 0 0 1-2.641 2.58 2.456 2.456 0 0 1-2.52-2.52v-26.76a2.541 2.541 0 0 1 2.52-2.58 2.463 2.463 0 0 1 2.58 2.04 13.874 13.874 0 0 1 8.58-3.06 2.552 2.552 0 1 1 0 5.1z"/><use xlink:href="#d"/><use xlink:href="#e"/><use xlink:href="#e" x="16.44"/><use xlink:href="#f"/><path d="M446.2 76.575a13.938 13.938 0 0 1-10.74 4.56c-9.66 0-15.06-7.92-15.06-16.98 0-9 5.4-16.92 15.06-16.92a13.938 13.938 0 0 1 10.74 4.56 2.616 2.616 0 0 1 .719 1.74 2.793 2.793 0 0 1-2.699 2.58 2.838 2.838 0 0 1-1.859-.84 8.816 8.816 0 0 0-6.9-2.94c-6 0-9.9 4.68-9.9 11.82 0 7.2 3.9 11.88 9.9 11.88a8.925 8.925 0 0 0 6.9-2.939 2.394 2.394 0 0 1 1.859-.9 2.591 2.591 0 0 1 1.98 4.38zm47.277 3.54a2.457 2.457 0 0 1-2.28-1.56l-3.18-7.8h-19.98l-3.24 7.8a2.44 2.44 0 0 1-2.22 1.56 2.651 2.651 0 0 1-2.7-2.52 1.976 1.976 0 0 1 .239-1.02l15.42-37.498a2.621 2.621 0 0 1 2.46-1.86 2.724 2.724 0 0 1 2.46 1.86l15.48 37.498a2.802 2.802 0 0 1 .18 1.02 2.561 2.561 0 0 1-2.64 2.52zm-15.48-33.6l-7.86 19.08h15.72z"/><use xlink:href="#g"/><use xlink:href="#g" x="29.219"/><use xlink:href="#h"/><use xlink:href="#i"/><use xlink:href="#j"/><path d="M661.412 80.115a2.423 2.423 0 0 1-2.52-2.52v-16.68a8.55 8.55 0 1 0-17.1 0v16.62a2.55 2.55 0 0 1-2.64 2.64 2.472 2.472 0 0 1-2.52-2.58v-26.82a2.387 2.387 0 0 1 2.52-2.52 2.509 2.509 0 0 1 2.58 1.98 13.702 13.702 0 0 1 22.259 10.68v16.62a2.454 2.454 0 0 1-2.58 2.58zm18.302 0h-1.02c-5.7 0-7.86-3-7.86-7.92v-18.84h-1.8a2.55 2.55 0 0 1-.061-5.1h1.8v-8.34a2.436 2.436 0 0 1 2.579-2.52 2.39 2.39 0 0 1 2.52 2.52v8.34h3.84a2.487 2.487 0 0 1 2.52 2.52 2.441 2.441 0 0 1-2.52 2.58h-3.84v19.38c0 1.68.6 2.28 2.28 2.28h1.5a2.475 2.475 0 0 1 2.58 2.52 2.441 2.441 0 0 1-2.52 2.58zm16.2 1.02c-3.3 0-8.82-1.02-11.64-4.5a2.655 2.655 0 0 1 2.16-4.26 2.463 2.463 0 0 1 1.859 1.02c1.86 2.04 4.92 2.64 7.62 2.64 5.4 0 7.14-1.86 7.14-4.56 0-7.68-18.3-2.94-18.3-15.3 0-6.54 6.12-8.94 11.82-8.94 3.24 0 10.86 1.62 10.86 4.98a2.694 2.694 0 0 1-2.521 2.7 3.612 3.612 0 0 1-1.979-.78c-1.62-1.38-3.96-1.8-6.36-1.8-4.98 0-6.72 1.86-6.72 3.84 0 7.14 18.36 2.52 18.36 15.3 0 7.08-5.94 9.66-12.3 9.66zm57.72-.96a2.108 2.108 0 0 1-1.74-.84l-4.32-4.32-2.28 2.28a12.841 12.841 0 1 1-15.6-20.099l-1.2-1.2a11.091 11.091 0 0 1-3.72-8.399 11.345 11.345 0 0 1 11.28-11.28c8.04 0 11.7 7.68 11.7 8.46a2.746 2.746 0 0 1-2.7 2.58c-2.4 0-3.84-5.88-9-5.88a6.069 6.069 0 0 0-6.12 6.12 5.931 5.931 0 0 0 2.16 4.68l15.48 15.48 4.14-4.14a3.015 3.015 0 0 1 1.8-.9 2.707 2.707 0 0 1 2.58 2.7 2.618 2.618 0 0 1-.721 1.86l-4.2 4.08 4.32 4.38a2.532 2.532 0 0 1 .84 1.8 2.757 2.757 0 0 1-2.699 2.64zm-20.04-19.08a7.592 7.592 0 0 0-5.16 7.2 7.814 7.814 0 0 0 7.62 7.739 7.414 7.414 0 0 0 5.399-2.22l2.46-2.46zm62.638-18.598H773.8v12.12h15.72a2.561 2.561 0 0 1 2.58 2.58 2.523 2.523 0 0 1-2.58 2.58H773.8v17.82a2.575 2.575 0 0 1-2.52 2.52 2.602 2.602 0 0 1-2.64-2.52v-37.62a2.612 2.612 0 0 1 2.64-2.58h24.96a2.425 2.425 0 0 1 2.52 2.52 2.504 2.504 0 0 1-2.52 2.58z"/><use xlink:href="#k"/><path d="M843.03 80.115H842c-5.7 0-7.86-3-7.86-7.92v-18.84h-1.8a2.55 2.55 0 0 1-.061-5.1h1.8v-8.34a2.436 2.436 0 0 1 2.579-2.52 2.39 2.39 0 0 1 2.521 2.52v8.34h3.84a2.487 2.487 0 0 1 2.52 2.52 2.441 2.441 0 0 1-2.52 2.58h-3.84v19.38c0 1.68.6 2.28 2.28 2.28h1.5a2.475 2.475 0 0 1 2.58 2.52 2.441 2.441 0 0 1-2.52 2.58z"/><use xlink:href="#k" x="51"/><path d="M890.43 80.235a6.122 6.122 0 0 1-6-6.12V39.977a2.58 2.58 0 0 1 5.16-.06v34.198a.947.947 0 0 0 .84 1.02 2.55 2.55 0 1 1 0 5.1z"/><use xlink:href="#h" x="339.594"/><path d="M919.647 80.115h-1.02c-5.7 0-7.86-3-7.86-7.92v-18.84h-1.8a2.55 2.55 0 0 1-.061-5.1h1.8v-8.34a2.436 2.436 0 0 1 2.579-2.52 2.39 2.39 0 0 1 2.521 2.52v8.34h3.84a2.487 2.487 0 0 1 2.52 2.52 2.441 2.441 0 0 1-2.52 2.58h-3.84v19.38c0 1.68.6 2.28 2.28 2.28h1.5a2.475 2.475 0 0 1 2.58 2.52 2.441 2.441 0 0 1-2.52 2.58z"/><use xlink:href="#h" x="368.691"/><use xlink:href="#j" x="333.832"/><use xlink:href="#l"/></g><g class="O"><path d="M49.14 138.335c-9.66 0-15.06-7.92-15.06-16.98 0-9 5.4-16.92 15.06-16.92s15.06 7.92 15.06 16.92c0 9.06-5.4 16.98-15.06 16.98zm0-28.8c-6 0-9.898 4.68-9.898 11.82 0 7.2 3.9 11.88 9.898 11.88 6.06 0 9.9-4.68 9.9-11.88 0-7.14-3.84-11.82-9.9-11.82zm44.578 27.78a2.424 2.424 0 0 1-2.52-2.52v-16.68a8.549 8.549 0 1 0-17.099 0v16.62a2.55 2.55 0 0 1-2.64 2.64 2.472 2.472 0 0 1-2.52-2.58v-26.82a2.387 2.387 0 0 1 2.52-2.52 2.51 2.51 0 0 1 2.58 1.98 13.702 13.702 0 0 1 22.259 10.68v16.62a2.454 2.454 0 0 1-2.58 2.58zm50.28-5.52c-2.94 4.08-7.14 6.54-13.38 6.54-12.9 0-17.46-10.68-17.46-22.38 0-11.76 4.56-22.44 17.46-22.44 6.06 0 10.5 2.4 13.32 6.54a2.31 2.31 0 0 1 .539 1.5 2.6 2.6 0 0 1-2.64 2.52 2.509 2.509 0 0 1-2.04-1.08c-1.86-2.7-4.62-4.32-9.18-4.32-8.52 0-12.3 6.3-12.3 17.28s3.78 17.28 12.3 17.28c4.56 0 7.32-1.74 9.18-4.38a2.424 2.424 0 0 1 2.04-1.14 2.525 2.525 0 0 1 2.16 4.08zm34.02 5.52a5.841 5.841 0 0 1-5.34-3.42 13.744 13.744 0 0 1-10.559 4.44c-9.78 0-15.06-8.04-15.06-16.98s5.4-16.92 15.06-16.92a13.26 13.26 0 0 1 9.899 3.96v-.24a2.475 2.475 0 0 1 2.52-2.7 2.411 2.411 0 0 1 2.64 2.52v23.16a.972.972 0 0 0 .84 1.08 2.55 2.55 0 1 1 0 5.1zm-15.898-27.78c-6 0-9.9 4.68-9.9 11.82 0 7.2 3.9 11.88 9.9 11.88 6.06 0 9.9-4.68 9.9-11.88 0-7.14-3.84-11.82-9.9-11.82zm28.198 27.9a6.122 6.122 0 0 1-6-6.12v-34.14a2.58 2.58 0 0 1 5.16-.06v34.198a.947.947 0 0 0 .84 1.02 2.55 2.55 0 1 1 0 5.1zm9.3-36.84a4.32 4.32 0 1 1 4.319-4.319 4.302 4.302 0 0 1-4.319 4.319zm0 36.72a2.52 2.52 0 0 1-2.64-2.52v-26.76a2.533 2.533 0 0 1 2.64-2.58 2.472 2.472 0 0 1 2.521 2.58v26.76a2.421 2.421 0 0 1-2.521 2.52zm19.56-26.76h-2.7v24.18a2.453 2.453 0 0 1-2.64 2.52 2.421 2.421 0 0 1-2.52-2.52v-24.18h-2.46a2.55 2.55 0 0 1 0-5.1h2.46v-4.08a6.836 6.836 0 0 1 6.899-6.78 2.551 2.551 0 1 1 0 5.1 1.682 1.682 0 0 0-1.74 1.62v4.14h2.7a2.552 2.552 0 1 1 0 5.1z"/><use xlink:href="#m"/><use xlink:href="#b" x="157.616" y="57.201"/><path d="M302.033 137.315a2.424 2.424 0 0 1-2.521-2.52v-16.68a8.549 8.549 0 1 0-17.099 0v16.62a2.551 2.551 0 0 1-2.641 2.64 2.472 2.472 0 0 1-2.52-2.58v-26.82a2.387 2.387 0 0 1 2.52-2.52 2.509 2.509 0 0 1 2.58 1.98 13.703 13.703 0 0 1 22.26 10.68v16.62a2.455 2.455 0 0 1-2.58 2.58z"/><use xlink:href="#f" x="-99.046" y="57.201"/><use xlink:href="#d" x="-19.368" y="57.2"/><path d="M361.072 109.356a2.799 2.799 0 0 1-1.32.3 2.705 2.705 0 0 1-2.58-2.7 2.478 2.478 0 0 1 1.26-2.16 5.202 5.202 0 0 0 2.641-4.14v-4.56a2.551 2.551 0 1 1 5.1 0v4.56a10.63 10.63 0 0 1-5.1 8.7zm19.86 28.98c-3.3 0-8.82-1.02-11.64-4.5a2.656 2.656 0 0 1 2.16-4.26 2.464 2.464 0 0 1 1.86 1.02c1.86 2.04 4.92 2.64 7.62 2.64 5.4 0 7.14-1.86 7.14-4.56 0-7.68-18.3-2.94-18.3-15.3 0-6.54 6.12-8.94 11.82-8.94 3.24 0 10.86 1.62 10.86 4.98a2.694 2.694 0 0 1-2.521 2.7 3.609 3.609 0 0 1-1.979-.78c-1.62-1.38-3.96-1.8-6.36-1.8-4.98 0-6.72 1.86-6.72 3.84 0 7.14 18.36 2.52 18.36 15.3 0 7.08-5.94 9.66-12.3 9.66zm55.738-.96a2.576 2.576 0 0 1-1.98-1.08l-12.48-17.46h-7.74v15.9a2.501 2.501 0 0 1-2.641 2.58 2.456 2.456 0 0 1-2.52-2.52V97.177a2.491 2.491 0 0 1 2.52-2.58h15.54c5.28 0 12.06 4.14 12.06 12.06a12.096 12.096 0 0 1-11.039 12.12l10.5 14.46a2.355 2.355 0 0 1 .54 1.56 2.76 2.76 0 0 1-2.76 2.58zm-9.36-37.68h-12.84v14.04h12.78a7.02 7.02 0 0 0 .061-14.04z"/><use xlink:href="#m" x="217.556"/><path d="M505.43 137.315a5.839 5.839 0 0 1-5.34-3.42 13.746 13.746 0 0 1-10.56 4.44c-9.78 0-15.06-8.04-15.06-16.98s5.4-16.92 15.06-16.92a13.257 13.257 0 0 1 9.899 3.96v-.24a2.476 2.476 0 0 1 2.521-2.7 2.412 2.412 0 0 1 2.64 2.52v23.16a.971.971 0 0 0 .84 1.08 2.55 2.55 0 1 1 0 5.1zm-15.9-27.78c-6 0-9.9 4.68-9.9 11.82 0 7.2 3.9 11.88 9.9 11.88 6.06 0 9.9-4.68 9.9-11.88 0-7.14-3.84-11.82-9.9-11.82z"/><use xlink:href="#i" x="-57.824" y="57.2"/><use xlink:href="#l" x="-424.417" y="57.2"/></g><g opacity=".5" fill="none" stroke="#fff" stroke-width="2" class="S"><path d="M83.836 282.447v1"/><path d="M83.836 289.468v695.47" stroke-dasharray="2.00713 6.02138"/><path d="M83.836 987.95v1"/></g><g opacity=".5" fill="none" stroke="#fff" stroke-width="2" class="S"><path d="M996.334 282.447v1"/><path d="M996.334 289.468l-.004 695.447" stroke-dasharray="2.00706 6.02118"/><path d="M996.33 987.926v1"/></g><g fill="none" stroke-width="7" class="S"><path d="M83.818 356.634l912.5 405.422" stroke="url(#A)"/><path d="M83.82 731.69l912.302 172.987" stroke="url(#B)"/></g><circle cx="83.836" cy="731.758" r="11" class="Q"/><circle cx="996.334" cy="761.995" r="11" class="R"/><circle cx="83.836" cy="356.63" r="11" class="Q"/><circle cx="996.334" cy="904.68" r="11" class="R"/><g opacity=".8" class="O"><path d="M55.578 185.297a1.105 1.105 0 0 1-.987-.646l-2.43-5.85H38.48l-2.432 5.852a1.07 1.07 0 0 1-2.052-.38 1.119 1.119 0 0 1 .076-.494l10.26-24.887a1.194 1.194 0 0 1 1.102-.722.98.98 0 0 1 .912.722l10.26 24.887a1.132 1.132 0 0 1 .075.494 1.062 1.062 0 0 1-1.102 1.025zm-10.258-23.14l-5.966 14.476h11.97zm27.657 4.447l-7.484 17.82a1.249 1.249 0 0 1-1.064.874 1.294 1.294 0 0 1-1.102-.874l-7.484-17.78a1.206 1.206 0 0 1-.076-.494 1.062 1.062 0 0 1 1.102-1.025.976.976 0 0 1 .95.646l6.6 15.616 6.58-15.62a1.084 1.084 0 0 1 2.09.342.907.907 0 0 1-.114.494zm20.177 9.688H77.387c.342 4.332 3.153 7.485 7.295 7.485a6.866 6.866 0 0 0 5.585-2.622.997.997 0 0 1 .912-.531 1.161 1.161 0 0 1 1.178 1.025c0 .342 0 .418-.722 1.254a8.969 8.969 0 0 1-6.953 3.039c-6.117 0-9.536-5.015-9.536-10.752 0-5.7 3.42-10.715 9.536-10.715s9.537 5.054 9.537 10.715a1.15 1.15 0 0 1-1.064 1.102zm-8.473-9.65c-4.56 0-6.953 3.495-7.295 7.485h14.628c-.342-4.332-3.153-7.485-7.333-7.485z"/><use xlink:href="#n"/><use xlink:href="#o"/><path d="M141.18 193.96c-3.23 0-7.8-1.216-7.8-2.584a1.206 1.206 0 0 1 1.103-1.216 13.688 13.688 0 0 1 2.014.912 14.237 14.237 0 0 0 4.673.722c4.863 0 7.37-2.394 7.37-7.067v-2.66a9.072 9.072 0 0 1-7.371 3.23c-6.003 0-9.536-4.256-9.536-10.106 0-5.7 3.42-10.715 9.536-10.715a8.686 8.686 0 0 1 7.371 3.572v-1.824a1.083 1.083 0 0 1 2.166 0v18.503c0 6.04-3.6 9.233-9.537 9.233zm0-27.318c-4.483 0-7.37 3.6-7.37 8.55 0 4.9 2.698 7.94 7.37 7.94s7.37-3.04 7.37-7.94c0-4.94-2.85-8.55-7.37-8.55zm31.3 9.65h-15.768c.342 4.332 3.153 7.485 7.295 7.485a6.866 6.866 0 0 0 5.585-2.622.997.997 0 0 1 .912-.531 1.161 1.161 0 0 1 1.178 1.025c0 .342 0 .418-.722 1.254a8.969 8.969 0 0 1-6.953 3.039c-6.117 0-9.536-5.015-9.536-10.752 0-5.7 3.42-10.715 9.536-10.715s9.537 5.054 9.537 10.715a1.15 1.15 0 0 1-1.064 1.102zm-8.473-9.65c-4.56 0-6.953 3.495-7.295 7.485h14.628c-.342-4.332-3.153-7.485-7.333-7.485zm31.387 19.3a8.619 8.619 0 0 1-7.371-3.609v9.84a1.083 1.083 0 1 1-2.166 0v-25.988a1.083 1.083 0 0 1 2.166 0v1.862a8.686 8.686 0 0 1 7.371-3.572c6.117 0 9.536 5.016 9.536 10.715 0 5.737-3.42 10.752-9.536 10.752zm0-19.3c-4.52 0-7.37 3.6-7.37 8.55s2.85 8.587 7.37 8.587 7.37-3.647 7.37-8.587-2.85-8.55-7.37-8.55zm30.436 9.65h-15.768c.342 4.332 3.153 7.485 7.295 7.485a6.866 6.866 0 0 0 5.585-2.622.997.997 0 0 1 .912-.531 1.161 1.161 0 0 1 1.178 1.025c0 .342 0 .418-.722 1.254a8.969 8.969 0 0 1-6.953 3.039c-6.117 0-9.536-5.015-9.536-10.752 0-5.7 3.42-10.715 9.536-10.715s9.537 5.054 9.537 10.715a1.15 1.15 0 0 1-1.064 1.102zm-8.473-9.65c-4.56 0-6.953 3.495-7.295 7.485H224.7c-.342-4.332-3.153-7.485-7.333-7.485z"/><use xlink:href="#n" x="132.684"/><path d="M266.613 185.297a1.068 1.068 0 0 1-1.102-1.063v-1.9a8.619 8.619 0 0 1-7.371 3.609c-6.117 0-9.536-5.015-9.536-10.752 0-5.7 3.42-10.715 9.536-10.715a8.686 8.686 0 0 1 7.371 3.572v-8.74a1.083 1.083 0 0 1 2.166 0v24.925a1.059 1.059 0 0 1-1.064 1.063zm-8.473-18.655c-4.483 0-7.37 3.61-7.37 8.55s2.888 8.587 7.37 8.587c4.52 0 7.37-3.647 7.37-8.587s-2.85-8.55-7.37-8.55z"/><use xlink:href="#o" x="163.435"/><path d="M312.327 166.642l-10.297 24.354c-.76 1.786-2.317 2.28-4.065 2.28h-1.67a1.083 1.083 0 0 1 0-2.165h1.67c.836 0 1.7-.038 2.052-.912l2.166-5.167-7.864-18.4a1.206 1.206 0 0 1-.076-.494 1.062 1.062 0 0 1 1.102-1.025.976.976 0 0 1 .95.646l7.066 16.5 6.99-16.5a.99.99 0 0 1 .988-.646 1.03 1.03 0 0 1 1.063 1.025 1.206 1.206 0 0 1-.076.494z"/></g></svg>