<svg xmlns="http://www.w3.org/2000/svg" xmlns:xlink="http://www.w3.org/1999/xlink" viewBox="0 0 1080 1080"><style><![CDATA[.L{opacity:.7}]]></style><linearGradient id="A" gradientUnits="userSpaceOnUse" x1="11.716" y1="11.716" x2="1068.284" y2="1068.284"><stop offset="0" stop-color="#f7ff15"/><stop offset=".307" stop-color="#facf16"/><stop offset=".612" stop-color="#fda717"/><stop offset=".853" stop-color="#fe8e18"/><stop offset="1" stop-color="#ff8518"/></linearGradient><path d="M1040 1080H40c-22.09 0-40-17.91-40-40V40C0 17.91 17.91 0 40 0h1000c22.09 0 40 17.91 40 40v1000c0 22.09-17.91 40-40 40z" fill="url(#A)"/><g opacity=".5" fill="#9b1f28"><path d="M42.328 1046.045c-3.568 0-5.47-1.97-5.503-2.002 0 .935-.7 1.4-1.468 1.4-.7 0-1.4-.467-1.4-1.4v-20.88a1.35 1.35 0 0 1 1.401-1.434c.767 0 1.468.467 1.468 1.4v6.238c1.334-1.368 3.168-2.17 5.503-2.17 5.37 0 8.373 4.403 8.373 9.406 0 5.037-3.002 9.44-8.373 9.44zm0-16c-3.335 0-5.503 2.602-5.503 6.57 0 4.003 2.168 6.604 5.503 6.604s5.504-2.602 5.504-6.604c0-3.97-2.168-6.57-5.504-6.57zm25.555 8.037h-12.34c.467 3.136 2.468 5.137 5.403 5.137 1.5 0 3.002-.533 3.97-1.734.3-.333.634-.533 1.034-.533.734 0 1.5.667 1.5 1.468 0 .4-.1.7-.8 1.4-1.5 1.468-3.57 2.235-5.704 2.235-5.37 0-8.372-4.437-8.372-9.44 0-4.97 3.002-9.406 8.372-9.406 5.437 0 8.34 4.437 8.34 9.406 0 .734-.534 1.468-1.4 1.468zm-6.937-8.038c-3.136 0-4.97 2.3-5.403 5.17H66.35c-.467-3.202-2.468-5.17-5.403-5.17zM88 1045.478c-1.834 0-2.668-1.3-2.97-1.9-1.334 1.468-3.27 2.47-5.87 2.47-5.437 0-8.372-4.47-8.372-9.44s3.002-9.406 8.372-9.406c2.335 0 4.203.834 5.504 2.202v-.134c0-.367.133-1.5 1.4-1.5.7 0 1.468.367 1.468 1.4v12.875c0 .434.3.6.467.6.935 0 1.435.667 1.435 1.434a1.37 1.37 0 0 1-1.435 1.401zm-8.84-15.443c-3.336 0-5.504 2.602-5.504 6.57 0 4.003 2.168 6.604 5.504 6.604 3.37 0 5.504-2.602 5.504-6.604 0-3.97-2.135-6.57-5.504-6.57z"/><use xlink:href="#C"/><path d="M115.158 1045.478h-.567c-3.17 0-4.37-1.668-4.37-4.403V1030.6h-1c-.8 0-1.435-.634-1.435-1.4 0-.8.634-1.435 1.4-1.435h1v-4.637c0-.934.7-1.4 1.435-1.4s1.4.467 1.4 1.4v4.637h2.135c.934 0 1.4.768 1.4 1.4 0 .8-.533 1.434-1.4 1.434h-2.135v10.774c0 .934.333 1.268 1.268 1.268h.833c.868 0 1.435.634 1.435 1.4 0 .8-.533 1.435-1.4 1.435zm4.604-20.415a2.402 2.402 0 1 1 0-4.803 2.402 2.402 0 1 1 0 4.803zm0 20.414c-.733 0-1.467-.5-1.467-1.4V1029.2c0-.935.733-1.435 1.467-1.435a1.37 1.37 0 0 1 1.401 1.435v14.876c0 .935-.7 1.4-1.4 1.4zm10.376-14.877h-1.5v13.442c0 .935-.7 1.4-1.468 1.4-.7 0-1.4-.467-1.4-1.4V1030.6h-1.37c-.9 0-1.4-.667-1.4-1.4 0-.768.5-1.435 1.4-1.435h1.367v-2.27c0-2.135 1.77-3.77 3.836-3.77.968 0 1.468.667 1.468 1.434 0 .7-.5 1.4-1.468 1.4-.566 0-.967.434-.967.9v2.302h1.5c.967 0 1.468.667 1.468 1.435 0 .733-.5 1.4-1.468 1.4z"/><use xlink:href="#C" x="42.068"/><path d="M154.725 1045.544c-1.802 0-3.336-1.534-3.336-3.402v-18.98c0-.967.7-1.434 1.435-1.434s1.435.467 1.435 1.4v19.013c0 .4.3.567.467.567.934 0 1.435.667 1.435 1.435 0 .733-.5 1.4-1.435 1.4zm15.37-.066v-1.264c1.886-.237 2.046-.437 2.046-3.157v-6.7c0-2.8-1.248-4.017-3.064-4.017-1.237 0-2.345.6-3.47 1.493v9.476c0 2.527.187 2.658 2.06 2.896v1.264h-8.968v-1.264c2.254-.33 2.5-.4 2.5-3v-8.2c0-2.446-.303-2.565-2.185-2.922v-1.184c2.173-.292 4.63-.807 6.653-1.533l-.052 2.95 2.6-1.745c1.16-.713 2-1.086 3.16-1.086 3.194 0 5.2 2.338 5.2 6.3v7.5c0 2.54.237 2.657 2.277 2.92v1.264h-8.74zm23.9-3.703c-2.458 3.427-5.488 4.178-7.014 4.178-5.142 0-8.124-3.936-8.124-8.594 0-2.745 1.183-5.396 2.832-7.062 1.74-1.8 3.945-2.814 6.082-2.814 3.73 0 6.396 3.126 6.37 6.347-.014.715-.08 1.277-.612 1.4-.767.184-6.17.5-10.318.647.062 4.587 2.717 6.74 5.556 6.74 1.572 0 3.104-.597 4.543-1.866l.686 1.014zm-7.07-12.7c-1.667 0-3.167 1.807-3.516 4.963l5.486-.118c.6-.026.848-.146.848-.792.04-2.022-1.037-4.053-2.818-4.053zm34.284.145c-1.943.343-2.248.624-3.105 2.765-1.33 3.462-3.102 8.53-4.934 13.94h-1.512l-4.65-11.46-4.55 11.46h-1.472l-4.685-14.192c-.687-1.985-.94-2.274-2.855-2.512v-1.25h9.397v1.25c-2.325.345-2.535.672-2.058 2.133l2.52 8.214c1.507-3.68 2.988-7.62 4.327-11.424h1.456c1.4 3.76 2.986 7.702 4.573 11.568.742-2.107 2.062-5.964 2.557-8.108.412-1.674-.008-2.078-2.753-2.383v-1.25h7.742v1.25zm9.4 3.746c-.92-2.606-2.155-3.984-4.2-3.984-1.206 0-2.225.86-2.225 2.266 0 1.497 1.046 2.264 3.16 3.216 3.278 1.496 5.3 2.787 5.3 5.736 0 3.85-3.6 5.764-6.945 5.764-2.06 0-4.088-.737-4.92-1.16l-.662-4.892 1.252-.224c.8 2.5 2.33 4.75 4.976 4.75 1.505 0 2.438-.952 2.438-2.28 0-1.423-.76-2.333-3.092-3.467-2.67-1.295-5.107-2.64-5.107-5.775 0-3.046 2.533-5.42 6.565-5.42 1.818 0 3.242.396 4.112.567l.62 4.577-1.25.328z"/></g><g opacity=".8" fill="#9b1f28"><path d="M686.083 1046.357c-1.2 0-3.22-.42-3.92-1.58-.08-.12-.08-.22-.08-.3 0-.32.28-.602.58-.602.12 0 .32.102.44.28.72.88 2 1.06 2.98 1.06 1.94 0 2.92-.64 2.92-1.94 0-3.02-6.562-1.42-6.562-5.422 0-2.02 2.02-2.8 3.84-2.8 1.04 0 2.64.36 3.44 1.16.12.12.18.26.18.38a.65.65 0 0 1-.62.6c-.12 0-.26-.04-.38-.16-.62-.6-1.74-.84-2.62-.84-1.76 0-2.7.682-2.7 1.66 0 2.8 6.562 1.32 6.562 5.422 0 2.28-2 3.08-4.06 3.08z" class="L"/><use xlink:href="#D" class="L"/><use xlink:href="#E" class="L"/><use xlink:href="#F" class="L"/><path d="M730.724 1044.797c-.88.98-2.1 1.52-3.58 1.52-3.22 0-5.02-2.64-5.02-5.662 0-3 1.8-5.64 5.02-5.64 1.48 0 2.7.54 3.58 1.52.12.12.16.262.16.38 0 .3-.28.6-.58.6-.14 0-.28-.06-.42-.2-.66-.74-1.58-1.16-2.74-1.16-2.36 0-3.88 1.9-3.88 4.5s1.52 4.52 3.88 4.52c1.16 0 2.08-.44 2.74-1.16.14-.14.28-.2.42-.2.3 0 .58.26.58.58 0 .14-.04.26-.16.398z" class="L"/><use xlink:href="#G" class="L"/><path d="M746.282 1039.416c-.64 0-1.16-.5-1.16-1.14s.52-1.14 1.16-1.14c.62 0 1.12.5 1.12 1.14s-.5 1.14-1.12 1.14zm0 6.563c-.64 0-1.16-.5-1.16-1.14s.52-1.14 1.16-1.14c.62 0 1.12.5 1.12 1.14s-.5 1.14-1.12 1.14zm18.202.001h-8.882a.61.61 0 0 1-.58-.561v-13.123c0-.3.28-.56.58-.56h8.882a.55.55 0 0 1 .58.561.55.55 0 0 1-.58.561h-8.32v4.92h6.1a.55.55 0 0 1 .58.561c0 .28-.2.58-.56.58h-6.12v5.922h8.32c.38 0 .58.3.58.58a.55.55 0 0 1-.58.561zm11.34 0c-.28 0-.58-.2-.58-.56v-.64c-.84.98-2.06 1.54-3.42 1.54-2.48 0-4.56-2.08-4.56-4.56v-5.842c0-.36.3-.56.58-.56.26 0 .56.2.56.56v5.842c0 1.9 1.52 3.42 3.42 3.42s3.42-1.52 3.42-3.42v-5.842c0-.36.3-.56.58-.56.26 0 .56.2.56.56v9.502a.56.56 0 0 1-.561.561z" class="L"/><use xlink:href="#F" x="63.24" class="L"/><use xlink:href="#D" x="93.58" class="L"/><path d="M802.804 1046.318c-1.74 0-3.04-.72-3.88-1.9v5.182c0 .36-.3.58-.56.58a.58.58 0 0 1-.58-.58v-13.684c0-.36.3-.56.58-.56.26 0 .56.2.56.56v.98c.84-1.16 2.14-1.88 3.88-1.88 3.22 0 5.02 2.64 5.02 5.64 0 3.02-1.8 5.662-5.02 5.662zm0-10.162c-2.38 0-3.88 1.9-3.88 4.5s1.5 4.52 3.88 4.52 3.88-1.92 3.88-4.52-1.5-4.5-3.88-4.5z" class="L"/><use xlink:href="#G" x="76.919" class="L"/><use xlink:href="#H" class="L"/><path d="M843.563 1045.98c-.28 0-.58-.2-.58-.56v-5.842c0-1.9-1.52-3.42-3.42-3.42a3.42 3.42 0 0 0-3.421 3.42v5.842c0 .36-.3.56-.56.56-.28 0-.58-.2-.58-.56v-9.502c0-.36.3-.56.58-.56.26 0 .56.2.56.56v.64c.9-.98 2.08-1.54 3.42-1.54a4.6 4.6 0 0 1 4.561 4.561v5.842c0 .36-.3.56-.56.56zm17.58-13.125h-8.32v4.92h6.1a.55.55 0 0 1 .58.561c0 .28-.2.58-.56.58h-6.12v6.502c0 .36-.3.56-.56.56-.28 0-.58-.2-.58-.56v-13.123c0-.3.28-.56.58-.56h8.882a.55.55 0 0 1 .58.561.55.55 0 0 1-.58.561z" class="L"/><use xlink:href="#D" x="169.476" class="L"/><use xlink:href="#D" x="181.436" class="L"/><path d="M894.662 1045.98c-.28 0-.58-.2-.58-.56v-1c-.84 1.18-2.14 1.9-3.88 1.9-3.22 0-5.02-2.64-5.02-5.662 0-3 1.8-5.64 5.02-5.64 1.74 0 3.04.72 3.88 1.88v-4.602c0-.36.3-.56.58-.56.26 0 .56.2.56.56v13.123c0 .36-.3.56-.56.56zm-4.46-9.822c-2.36 0-3.88 1.9-3.88 4.5s1.52 4.52 3.88 4.52c2.38 0 3.88-1.92 3.88-4.52s-1.5-4.5-3.88-4.5zm16.898 10.16c-1.54 0-3.64-.62-4.78-1.76-.14-.14-.18-.262-.18-.4a.61.61 0 0 1 .58-.58c.24 0 .22.06.64.38a6.33 6.33 0 0 0 3.74 1.221c2.52 0 3.98-.94 3.98-2.74 0-4.742-8.462-2.102-8.462-7.562 0-2.4 2.1-3.5 4.68-3.5 1.44 0 3.46.62 4.36 1.88.08.12.12.22.12.34 0 .32-.28.56-.6.56-.28 0-.28-.08-.62-.42-.84-.842-2.08-1.22-3.26-1.22-2.38 0-3.54.92-3.54 2.36 0 4.3 8.462 1.8 8.462 7.563 0 2.78-2.44 3.88-5.12 3.88z" class="L"/><use xlink:href="#H" x="92.056" class="L"/><path d="M930.72 1032.855h-.62c-.48 0-.88.4-.88.86v1.64h1.5c.38 0 .56.3.56.56 0 .28-.2.58-.56.58h-1.5v8.922c0 .36-.28.56-.56.56s-.56-.18-.56-.56v-8.922h-1.38c-.36 0-.56-.3-.56-.58 0-.26.2-.56.56-.56h1.38v-1.64c0-1.1.9-1.98 1.98-1.98h.64c.36 0 .58.28.58.58 0 .28-.2.54-.58.54z" class="L"/><use xlink:href="#G" x="199.935" class="L"/><path d="M948.84 1045.98h-.62c-1.58 0-2.36-.78-2.36-2.342v-7.14h-1.02c-.36 0-.56-.3-.56-.58 0-.26.2-.56.56-.56h1.02v-3.06c0-.36.3-.56.58-.56s.56.2.56.56v3.06h1.84c.36 0 .56.3.56.56 0 .28-.2.58-.56.58H947v7.14c0 .98.28 1.2 1.22 1.2h.62c.36 0 .56.3.56.58 0 .26-.2.56-.56.56z" class="L"/><use xlink:href="#I" class="L"/><path d="M977.04 1045.98c-.2 0-.42-.12-.52-.34l-1.28-3.082h-7.2l-1.28 3.082a.56.56 0 0 1-.501.34c-.3 0-.58-.22-.58-.54 0-.1 0-.16.04-.26l5.4-13.104c.1-.238.34-.38.58-.38.2 0 .38.12.48.38l5.4 13.104a.59.59 0 0 1 .04.26c0 .32-.28.54-.58.54zm-5.4-12.184l-3.14 7.623h6.3l-3.16-7.623z" class="L"/><use xlink:href="#E" x="275.156" class="L"/><use xlink:href="#J" class="L"/><path d="M1005.74 1045.98c-.28 0-.58-.2-.58-.56v-5.842c0-1.9-1.52-3.42-3.42-3.42a3.42 3.42 0 0 0-3.421 3.42v5.842c0 .36-.3.56-.56.56-.28 0-.58-.2-.58-.56v-13.123c0-.36.3-.56.58-.56.26 0 .56.2.56.56v4.262c.84-.98 2.06-1.54 3.42-1.54a4.6 4.6 0 0 1 4.561 4.561v5.842c0 .36-.3.56-.56.56z" class="L"/><use xlink:href="#D" x="316.716" class="L"/><use xlink:href="#F" x="304.937" class="L"/><path d="M1028.098 1033.436c-.64 0-1.14-.5-1.14-1.14s.5-1.14 1.14-1.14 1.14.5 1.14 1.14-.5 1.14-1.14 1.14zm0 12.543c-.28 0-.58-.18-.58-.56v-9.502c0-.36.28-.56.58-.56.26 0 .56.18.56.56v9.502c0 .36-.26.56-.56.56z" class="L"/><use xlink:href="#J" x="40.36" class="L"/><use xlink:href="#I" x="86.32" class="L"/></g><g opacity=".18" fill="#ed1a24"><path d="M380.686 757.72v-93.104h17.795v93.104h-17.795zm28.11 0v-93.104h24.888l16.118 61.123h.26l16.118-61.123h24.9v93.104h-15.217v-73.245h-.258L456.64 757.72h-13.4l-18.955-73.245h-.258v73.245H408.8zm92.586 0v-93.104h17.795v93.104h-17.795z"/><use xlink:href="#K"/><path d="M586.102 757.72l23.083-93.104H632l22.438 93.104h-17.02l-4.514-19.6h-24.63l-5.028 19.6h-17.15zm25.404-35.333h17.666l-8.64-37.654h-.258l-8.77 37.654zm61.12 7.736c0 10.316 4.514 13.153 11.605 13.153s11.606-2.837 11.606-13.153v-6.2h17.795v3.868c0 22.953-12.12 31.206-29.4 31.206s-29.4-8.253-29.4-31.206v-33.27c0-22.953 12.12-31.206 29.4-31.206s29.4 8.253 29.4 31.206v.258H695.84v-2.58c0-10.316-4.514-13.153-11.606-13.153s-11.605 2.837-11.605 13.153v37.912zm47.71 27.597v-93.104h17.796v77.37h28.628v15.732h-46.424zm47.968-63.188c0-22.953 12.12-31.206 29.4-31.206s29.4 8.253 29.4 31.206v33.27c0 22.953-12.12 31.206-29.4 31.206s-29.4-8.253-29.4-31.206v-33.27zm17.796 35.6c0 10.316 4.513 13.153 11.605 13.153s11.605-2.837 11.605-13.153V692.2c0-10.316-4.514-13.153-11.605-13.153s-11.605 2.837-11.605 13.153v37.912zm48.742 27.598v-93.104h25.66c21.922 0 32.625 10.316 32.625 27.854s-10.703 27.854-32.625 27.854h-7.865v37.396h-17.795zm17.795-52.097h9.542c8.77 0 13.153-4.385 13.153-13.153s-4.385-13.152-13.153-13.152h-9.542v26.306zm86.91 52.097l-15.475-37.912h-8.5v37.912H897.77v-93.104h25.8c21.406 0 31.594 10.316 31.594 27.854 0 11.605-4.127 19.988-14.057 23.728l17.538 41.522H939.55zm-23.984-52.612h9.154c7.867 0 12.64-3.87 12.64-12.896s-4.77-12.895-12.64-12.895h-9.154v25.8zm47.196 52.612v-93.104h17.795v93.104h-17.795z"/><use xlink:href="#K" x="461.378"/><path d="M405.963 855.097c0 10.316 4.514 13.153 11.605 13.153s11.605-2.837 11.605-13.153v-6.2h17.795v3.868c0 22.953-12.12 31.206-29.4 31.206s-29.4-8.253-29.4-31.206v-33.27c0-22.953 12.12-31.206 29.4-31.206s29.4 8.253 29.4 31.206v.258h-17.795v-2.58c0-10.316-4.514-13.153-11.605-13.153s-11.605 2.837-11.605 13.153v37.912zm47.71 27.595V789.6h17.795v77.37h28.628v15.732h-46.423zm50.546-63.186c0-22.953 12.12-31.206 29.4-31.206s29.4 8.253 29.4 31.206v33.27c0 22.953-12.12 31.206-29.4 31.206s-29.4-8.253-29.4-31.206v-33.27zm17.796 35.6c0 10.316 4.513 13.153 11.605 13.153s11.605-2.837 11.605-13.153v-37.912c0-10.316-4.514-13.153-11.605-13.153s-11.605 2.837-11.605 13.153v37.912zm104.19-65.506v15.732h-20.762v77.37H587.65v-77.37H566.9V789.6h59.318zm3.867 93.102V789.6h17.795v37.14h25.146V789.6H690.8v93.104h-17.795V842.46H647.87v40.233h-17.795zm71.05 0V789.6h17.795v93.104h-17.795z"/><use xlink:href="#L"/><path d="M793.195 882.692V789.6h19.472l24.76 55.2h.258v-55.2h16.248v93.104H836.91L809.7 822.6h-.26v60.092h-16.247zm71.05 0V789.6h17.796v93.104h-17.796zm27.08-93.102h24.76c20.374 0 31.722 8.77 32.495 32.238v28.627c-.773 23.47-12.12 32.238-32.495 32.238h-24.76V789.6zm17.795 77.37h6.2c9.8 0 15.475-4.642 15.475-18.568v-24.5c0-13.153-4.385-18.57-15.475-18.57h-6.2v61.64zm47.196 15.732V789.6H974.1v93.104h-17.795zm28.11 0V789.6h19.472l24.76 55.2h.258v-55.2h16.248v93.104h-17.02l-27.2-60.092h-.258v60.092h-16.248zM333.5 914.563v15.732h-20.76v77.37h-17.796v-77.37h-20.76v-15.732H333.5zm3.86 93.103v-93.104h17.795v37.14H380.3v-37.14h17.796v93.104H380.3v-40.233h-25.146v40.233H337.36zm68.47 0v-93.104h17.795v93.104H405.83zm20.77 0l23.082-93.104h22.825l22.438 93.104h-17.02l-4.514-19.6h-24.63l-5.03 19.6H426.6zm25.404-35.333h17.666l-8.64-37.654h-.258l-8.768 37.654zm45.896 35.333v-93.104h24.888l16.12 61.123h.258l16.12-61.123h24.887v93.104h-15.216V934.42h-.258l-18.956 73.245h-13.4l-18.957-73.245h-.258v73.245H497.9zm88.975 0v-93.104h48.743v15.732H604.67V951.7h23.598v15.73H604.67v24.5h32.238v15.732h-50.033z"/><use xlink:href="#M"/><path d="M703.96 1007.666v-93.104h17.795v37.14H746.9v-37.14h17.796v93.104H746.9v-40.233h-25.146v40.233H703.96zm68.472-63.186c0-22.953 12.12-31.206 29.4-31.206s29.4 8.253 29.4 31.206v33.27c0 22.953-12.12 31.206-29.4 31.206s-29.4-8.253-29.4-31.206v-33.27zm17.795 35.6c0 10.316 4.514 13.153 11.605 13.153s11.606-2.837 11.606-13.153v-37.912c0-10.316-4.514-13.153-11.606-13.153s-11.605 2.837-11.605 13.153v37.912zm72.986-37.654l13.4-27.854H895.7l-22.567 44.102 24.76 49.002h-19.214l-15.474-32.883-15.475 32.883h-19.214l25.017-49.002-22.824-44.102H849.8l13.412 27.854z"/><use xlink:href="#L" x="171.113" y="124.974"/><path d="M964.31 1007.666v-93.104h24.887l16.12 61.123h.258l16.12-61.123h24.888v93.104h-15.216V934.42h-.258l-18.957 73.245h-13.4l-18.956-73.245h-.258v73.245H964.31z"/></g><g opacity=".1" fill="#ed1c24"><path d="M384.296 329.3v-93.104h17.796V329.3h-17.796zm25.532 0v-93.104h24.888l16.12 61.123h.258l16.12-61.123H492.1V329.3h-15.217v-73.245h-.258L457.67 329.3h-13.4l-18.956-73.245h-.258V329.3H409.84zm90.007 0v-93.104h17.796V329.3h-17.796zm27.08-93.114h24.76c20.374 0 31.722 8.77 32.495 32.238v28.627c-.773 23.47-12.12 32.238-32.495 32.238h-24.76v-93.104zm17.795 77.37h6.2c9.8 0 15.475-4.642 15.475-18.568v-24.5c0-13.153-4.385-18.57-15.475-18.57h-6.2v61.64zm39.845 15.744l23.082-93.104h22.825L652.9 329.3h-17.02l-4.514-19.6h-24.63l-5.03 19.6h-17.15zm25.403-35.333h17.667l-8.64-37.654h-.258l-8.77 37.654zm61.122 7.727c0 10.316 4.514 13.153 11.605 13.153S694.29 312 694.29 301.694v-6.2h17.795v3.868c0 22.953-12.12 31.206-29.4 31.206s-29.4-8.253-29.4-31.206v-33.27c0-22.953 12.12-31.206 29.4-31.206s29.4 8.253 29.4 31.206v.258H694.29v-2.58c0-10.316-4.514-13.153-11.606-13.153s-11.605 2.837-11.605 13.153v37.912zm47.7 27.606v-93.104h17.796v77.37h28.627V329.3H718.8z"/><use xlink:href="#N"/><path d="M833.296 329.3v-93.104h25.66c21.922 0 32.625 10.316 32.625 27.854s-10.703 27.854-32.625 27.854h-7.865V329.3h-17.796zm17.796-52.097h9.542c8.77 0 13.153-4.385 13.153-13.153s-4.385-13.152-13.153-13.152h-9.542v26.306zm86.912 52.097l-15.475-37.912h-8.5V329.3h-17.795v-93.104h25.8c21.406 0 31.594 10.316 31.594 27.854 0 11.605-4.127 19.988-14.057 23.728L957.1 329.3h-19.085zm-23.985-52.612h9.155c7.866 0 12.638-3.87 12.638-12.896s-4.77-12.895-12.638-12.895h-9.155v25.8zm47.195 52.612v-93.104h17.795V329.3h-17.795zm27.08-93.114h24.76c20.375 0 31.723 8.77 32.496 32.238v28.627c-.773 23.47-12.12 32.238-32.496 32.238h-24.76v-93.104zm17.796 77.37h6.2c9.8 0 15.475-4.642 15.475-18.568v-24.5c0-13.153-4.385-18.57-15.475-18.57h-6.2v61.64zm-587.23 119.11c0 10.316 4.514 13.153 11.605 13.153s11.606-2.837 11.606-13.153v-6.2h17.795v3.868c0 22.953-12.12 31.206-29.4 31.206s-29.4-8.253-29.4-31.206v-33.27c0-22.953 12.12-31.206 29.4-31.206s29.4 8.253 29.4 31.206v.258H442.07v-2.58c0-10.316-4.514-13.153-11.606-13.153s-11.605 2.837-11.605 13.153v37.912zm47.712 27.596V367.16h17.796v77.37h28.627v15.732H466.57z"/><use xlink:href="#N" x="-252.223" y="130.974"/><path d="M633.944 367.16v15.732h-20.76v77.37h-17.796v-77.37h-20.76V367.16h59.317zm6.446 93.103V367.16h17.795v37.14h25.146v-37.14h17.796v93.104H683.33V420.03h-25.146v40.233H640.4zm68.472 0V367.16h17.795v93.104h-17.795z"/><use xlink:href="#O"/><use xlink:href="#P"/><path d="M869.403 460.263V367.16H887.2v93.104h-17.796zm24.5-93.103h24.76c20.374 0 31.722 8.77 32.495 32.238v28.627c-.773 23.47-12.12 32.238-32.495 32.238h-24.76V367.16zm17.795 77.37h6.2c9.8 0 15.475-4.642 15.475-18.568v-24.5c0-13.153-4.385-18.57-15.475-18.57h-6.2v61.64zm47.195 15.733V367.16h17.795v93.104h-17.795z"/><use xlink:href="#P" x="183.494"/><path d="M326.012 498.133v15.732H305.25v77.37h-17.795v-77.37h-20.762v-15.732h59.318zm3.868 93.103v-93.103h17.796v37.138h25.146v-37.138h17.795v93.103H372.82v-40.233h-25.146v40.233H329.88zm71.05 0v-93.103h17.796v93.103H400.93zm20.77 0l23.083-93.103h22.824l22.438 93.103h-17.02l-4.514-19.6h-24.63l-5.028 19.6H421.7zm25.404-35.333h17.666l-8.64-37.654h-.258l-8.77 37.654zM493 591.236v-93.103h24.888l16.12 61.123h.258l16.12-61.123h24.888v93.103h-15.217V518h-.258l-18.956 73.245h-13.4L508.487 518h-.258v73.245H493zm88.975 0v-93.103h48.743v15.732H599.77v21.406h23.6V551h-23.6v24.5h32.238v15.732h-50.033z"/><use xlink:href="#M" x="-4.9" y="-416.43"/><path d="M699.06 591.236v-93.103h17.795v37.138H742v-37.138h17.796v93.103H742v-40.233h-25.146v40.233H699.06zm68.47-63.186c0-22.953 12.12-31.206 29.4-31.206s29.4 8.253 29.4 31.206v33.27c0 22.953-12.12 31.206-29.4 31.206s-29.4-8.253-29.4-31.206v-33.27zm17.795 35.6c0 10.316 4.514 13.153 11.605 13.153s11.606-2.837 11.606-13.153v-37.9c0-10.316-4.514-13.153-11.606-13.153s-11.605 2.836-11.605 13.153v37.912zm75.565-37.654l13.4-27.853h19.085l-22.566 44.1 24.76 49.002h-19.214L860.9 558.352l-15.474 32.883h-19.214l25.017-49.002-22.825-44.1h19.085l13.4 27.853z"/><path d="M893.257 591.236l23.082-93.103h22.825l22.438 93.103h-17.02l-4.514-19.6h-24.63l-5.03 19.6h-17.15zm25.403-35.333h17.667l-8.64-37.654h-.258l-8.77 37.654zm45.906 35.333v-93.103h24.888l16.12 61.123h.258l16.12-61.123h24.888v93.103h-15.217V518h-.258l-18.956 73.245h-13.4L980.04 518h-.258v73.245h-15.217z"/></g><g opacity=".05" fill="#ed1c24"><use xlink:href="#M" x="-363.313" y="-807.368"/><path d="M340.65 200.3v-93.104h17.795v37.14h25.146v-37.14h17.796V200.3H383.6v-40.233h-25.146V200.3H340.65zm68.47 0v-93.104h17.795V200.3H409.12z"/><use xlink:href="#O" x="-299.742" y="-259.963"/><path d="M501.2 200.3v-93.104h24.888l16.118 61.123h.26l16.118-61.123h24.888V200.3h-15.216v-73.245h-.258L549.03 200.3h-13.4l-18.956-73.245h-.258V200.3H501.2zm88.964 0v-93.104h48.744v15.732H607.96v21.406h23.598v15.73H607.96v24.5h32.237V200.3h-50.033z"/><use xlink:href="#M" x="0.711" y="-807.368"/><path d="M704.67 200.3v-93.104h17.795v37.14h25.146v-37.14h17.795V200.3H747.61v-40.233h-25.146V200.3H704.67zm68.473-63.188c0-22.953 12.12-31.206 29.4-31.206s29.4 8.253 29.4 31.206v33.27c0 22.953-12.12 31.206-29.4 31.206s-29.4-8.253-29.4-31.206v-33.27zm17.795 35.6c0 10.316 4.514 13.153 11.605 13.153s11.605-2.837 11.605-13.153V134.8c0-10.316-4.513-13.153-11.605-13.153s-11.605 2.837-11.605 13.153v37.912zm72.985-37.652l13.4-27.854h19.085l-22.566 44.102 24.76 49.002h-19.214l-15.475-32.883L848.45 200.3h-19.214l25.017-49.002-22.825-44.102h19.085l13.4 27.854z"/><path d="M893.7 200.3l23.082-93.104h22.825l22.438 93.104h-17.02l-4.514-19.6H915.9l-5.03 19.6H893.7zm25.403-35.333h17.667l-8.64-37.654h-.258l-8.77 37.654zM965.02 200.3v-93.104h24.888l16.12 61.123h.258l16.12-61.123h24.888V200.3h-15.217v-73.245h-.258l-18.96 73.245h-13.4l-18.956-73.245h-.258V200.3H965.02z"/></g><g fill="#42210b"><path d="M485.5 155.785v-4.6c9.7-1.02 10.7-2.2 10.7-13.1V109.88c0-13.94-5.27-20.4-15.98-20.4-5.95 0-12.24 2.9-16.66 8.16v40.463c0 10.7.85 11.9 10.7 13.1v4.6h-37.233v-4.6c10.54-1.2 11.73-2.2 11.73-13.26V52.757c-9.182-.85-18.02-1.2-33.322-1.2h-11.052v82.626c0 14.45 1.53 15.64 16.66 16.662v4.93H372.44v-4.93c14.62-1.02 15.98-2.2 15.98-16.662V51.567h-9.86c-15.132 0-18.2 1.53-20.74 5.6-2.04 3.06-3.74 6.97-5.6 14.792h-5.1l1.87-30.943h3.4c2.55 3.74 4.6 4.25 9.352 4.25h70.725c13.77 0 16.322-1.02 16.322-4.25v-2.38c3.9-.68 10.03-2.38 14.8-4.08V91.35c6.3-6.46 14.8-11.9 23.632-12.07 14.45-.34 23.972 8.84 23.972 28.732v29.922c0 11.4 1.2 12.24 11.05 13.26v4.6H485.5zm97.073-14.79c-10.7 13.77-22.6 16.83-28.222 16.83-21.252 0-33.493-17-33.493-36.213 0-11.9 4.42-22.44 11.4-29.922 7.14-7.82 16.322-12.4 25.162-12.4 14.45 0 26.013 12.75 25.843 26.182 0 3.4-.68 4.93-4.08 5.6-2.72.34-23.97 2.04-43.693 2.72.34 22.27 13.092 31.792 24.992 31.792 6.8 0 13.262-2.72 19.382-8.33l2.72 3.74zM536.5 106.65c9 0 17.852-.17 27.202-.5 2.9 0 3.9-.85 3.9-3.4.17-8.84-5.27-17.17-14.1-17.17-7.48 0-14.8 7.3-17 21.082zm162.186 22.103c-.85 5.95-4.42 21.762-5.78 27.032H609.94v-4.93c15.302-1.2 16.83-2.55 16.83-16.492V67.208c0-15.13-1.53-15.8-14.45-17v-4.93h76.506c0 4.08.85 15.64 1.53 24.652l-5.27.85c-1.53-6.97-3.4-11.05-5.6-14.45-2.55-3.74-7.14-4.93-18.872-4.93h-12.07c-5.44 0-5.95.5-5.95 5.6v38.26h15.302c15.13 0 16.32-1.36 18.36-12.75h5.1v32.813h-5.1c-2.2-12.07-3.57-13.1-18.36-13.1H642.58v31.453c0 8 1.02 11.9 4.08 13.94 3.23 2.04 9.18 2.04 17.34 2.04 12.24 0 17.17-1.36 20.9-5.6 3.06-3.57 6.12-9.35 8.672-16.15l5.1.85zM813.78 50.207c-10.03.85-13.94 3.23-14.8 10.03-.5 4.76-1.02 11.9-1.02 26.862v14.96c0 19.55-3.06 34.172-12.752 44.374-7.82 8.16-19.2 11.9-30.602 11.9-10.2 0-20.062-2.38-27.713-8.33-10.03-7.65-14.8-20.402-14.8-40.293V67.718c0-15.47-1.53-16.15-14.8-17.5v-4.93h45.224v4.93c-13.1 1.02-14.45 2.04-14.45 17.5v38.253c0 27.202 10.54 42.673 31.112 42.673 23.632 0 31.453-19.55 31.453-47.774V87.1c0-14.96-.5-21.932-1.2-27.202-1.02-6.46-4.6-8.84-16.5-9.7v-4.93h40.803v4.93zm72.08 105.578v-4.6c9.52-1.02 10.7-2.2 10.7-12.92V109.88c0-13.94-5.44-20.4-15.812-20.4-6.12 0-12.24 2.9-16.83 8v40.803c0 10.7 1.02 11.9 10.54 12.92v4.6h-36.894v-4.6c10.2-1.02 11.562-1.87 11.562-13.1V57.347c0-10.54-.5-11.22-11.22-12.24v-4.08c8.33-1.2 18.87-3.9 26.012-5.95V91.35c6.12-5.95 15.13-12.07 24.142-12.07 13.94 0 23.462 8.84 23.462 28.902v30.093c0 11.05 1.2 11.9 10.88 12.92v4.6H885.86zm89.252 2.04c-2.9 0-6.46-1.53-8.33-3.4-2.2-2.2-3.4-4.6-4.08-7.3-6.8 4.6-14.96 10.7-19.722 10.7-12.4 0-20.9-10.37-20.9-20.912 0-8.5 4.42-13.6 13.6-16.66 10.2-3.57 22.782-8.16 26.522-11.22v-3.4c0-11.9-5.44-18.702-13.602-18.702-3.06 0-5.6 1.2-7.3 3.23-2.04 2.38-3.57 6.12-4.93 11.4-.85 3.06-2.72 4.25-5.44 4.25-3.23 0-8-3.4-8-7.48 0-2.72 2.2-4.6 5.6-7.14 4.93-3.57 16.32-10.03 26.013-11.9 5.27 0 10.54 1.53 14.28 4.6 6.3 5.1 8 12.07 8 21.25v30.942c0 7.65 2.9 10.03 5.78 10.03 2.04 0 4.42-.85 6.12-1.7l1.7 4.6-15.302 8.84zm-12.92-42.843c-3.57 1.87-10.54 5.1-14.28 6.8-6.3 3.06-9.86 6.12-9.86 12.4 0 8.84 6.63 12.92 11.73 12.92 4.08 0 9.352-2.55 12.412-5.44V114.98zm75.48-13.262c-3.4-10.03-9.18-16.83-17.512-16.83-6.12 0-10.54 4.76-10.54 11.22 0 7.14 6.12 11.05 13.94 14.45 13.092 5.44 21.762 11.4 21.762 23.462 0 15.8-14.62 23.802-28.392 23.802-8.84 0-16.83-3.23-19.892-5.78-1.2-2.38-2.72-14.1-2.9-20.572l4.76-.68c3.06 11.05 10.7 21.252 21.08 21.252 6.12 0 11.562-4.6 11.562-11.4 0-7.14-4.42-11.05-13.26-15.3-9.86-4.6-21.592-10.37-21.592-23.632 0-12.24 10.37-22.44 26.352-22.44 7.3 0 11.9 1.53 15.47 3.06 1.36 3.74 3.23 14.28 3.74 18.2l-4.6 1.2zm-416.17 130.483c3.23-1.53 5.44-2.04 7.65-2.04 18.702 0 33.833 15.98 33.833 35.873 0 24.822-19.893 42.673-43.014 42.673-7.48 0-16.15-1.7-25.842-6.12v-94.02c0-10.54-.5-11.56-11.05-12.58v-4.08c8-1.02 19.04-3.57 26.012-5.95v51.514l12.4-5.27zm-12.4 54.914c0 2.55.34 4.25.85 5.95 1.2 3.23 6.12 9 14.28 9 13.432.17 22.102-11.73 22.102-31.622 0-19.722-11.56-30.433-25.162-30.433-4.25 0-9 1.2-12.07 2.72v44.373zM719.255 308.7c-2.9 0-6.46-1.53-8.33-3.4-2.2-2.2-3.4-4.6-4.08-7.3-6.8 4.6-14.96 10.7-19.72 10.7-12.412 0-20.912-10.37-20.912-20.9 0-8.5 4.42-13.602 13.602-16.662 10.2-3.57 22.78-8.16 26.52-11.22v-3.4c0-11.9-5.44-18.702-13.602-18.702-3.06 0-5.6 1.2-7.3 3.23-2.04 2.38-3.57 6.12-4.93 11.4-.85 3.06-2.72 4.25-5.44 4.25-3.23 0-8-3.4-8-7.48 0-2.72 2.2-4.6 5.6-7.14 4.93-3.57 16.32-10.03 26.012-11.9 5.27 0 10.54 1.53 14.28 4.6 6.3 5.1 8 12.07 8 21.25v30.942c0 7.65 2.9 10.03 5.78 10.03 2.04 0 4.42-.85 6.12-1.7l1.7 4.6-15.302 8.84zm-12.92-42.843c-3.57 1.87-10.54 5.1-14.28 6.8-6.3 3.06-9.86 6.12-9.86 12.4 0 8.84 6.63 12.92 11.73 12.92 4.08 0 9.35-2.55 12.4-5.44v-26.692z"/><use xlink:href="#Q"/><use xlink:href="#Q" x="83.302"/><path d="M961.172 291.877c-10.7 13.77-22.6 16.83-28.223 16.83-21.252 0-33.492-17-33.492-36.213 0-11.9 4.42-22.44 11.4-29.922 7.14-7.82 16.32-12.4 25.162-12.4 14.45 0 26.012 12.75 25.842 26.182 0 3.4-.68 4.93-4.08 5.6-2.72.34-23.972 2.04-43.693 2.72.34 22.27 13.1 31.792 24.992 31.792 6.8 0 13.26-2.72 19.38-8.33l2.72 3.74zm-46.074-34.343c9.012 0 17.852-.17 27.203-.5 2.9 0 3.9-.85 3.9-3.4.17-8.84-5.27-17.17-14.1-17.17-7.48 0-14.8 7.3-17.002 21.082zm130.396 44.716c-3.9.68-17.172 2.9-27.713 6.46v-10.88l-10.37 6.3c-6.3 3.74-10.37 4.6-12.4 4.6-13.77 0-31.963-12.4-31.963-36.383 0-23.462 20.4-42.163 44.203-42.163 2.2 0 6.63.34 10.54 1.7V208.4c0-10.7-1.02-11.22-12.75-12.24v-4.25c9.18-1.2 20.9-3.74 27.712-5.95v100.818c0 9 1.02 9.86 7.48 10.54l5.27.5v4.42zm-27.713-56.785c-3.9-5.95-10.54-8.84-16.5-8.84-7.3 0-21.42 6.3-21.42 31.112 0 20.402 12.4 29.922 22.78 29.922 5.6 0 11.05-2.38 15.13-5.27v-46.924zm-731.19 137.62c3.23-1.53 5.44-2.04 7.65-2.04 18.7 0 33.832 15.98 33.832 35.873 0 24.82-19.9 42.673-43.014 42.673-7.48 0-16.15-1.7-25.842-6.12v-94.018c0-10.54-.5-11.56-11.05-12.58v-4.08c8-1.02 19.04-3.57 26.012-5.95v51.515l12.412-5.27zM274.18 438c0 2.55.34 4.25.85 5.95 1.2 3.23 6.12 9 14.28 9 13.43.17 22.102-11.73 22.102-31.622 0-19.722-11.562-30.433-25.162-30.433-4.25 0-9 1.2-12.07 2.72V438zm119.344 4.76c-10.7 13.77-22.6 16.83-28.222 16.83-21.252 0-33.493-17-33.493-36.213 0-11.9 4.42-22.44 11.4-29.922 7.14-7.82 16.322-12.4 25.162-12.4 14.45 0 26.013 12.75 25.843 26.182 0 3.4-.68 4.93-4.08 5.6-2.72.34-23.97 2.04-43.693 2.72.34 22.27 13.092 31.792 24.992 31.792 6.8 0 13.262-2.72 19.382-8.33l2.72 3.74zm-46.073-34.343c9 0 17.852-.17 27.202-.5 2.9 0 3.9-.85 3.9-3.4.17-8.84-5.27-17.172-14.1-17.172-7.48 0-14.8 7.3-17 21.082zm109.485 34.343c-10.7 13.77-22.612 16.83-28.223 16.83-21.252 0-33.492-17-33.492-36.213 0-11.9 4.42-22.44 11.4-29.922 7.14-7.82 16.32-12.4 25.162-12.4 14.45 0 26.012 12.75 25.842 26.182 0 3.4-.68 4.93-4.08 5.6-2.72.34-23.973 2.04-43.693 2.72.34 22.27 13.1 31.792 25 31.792 6.8 0 13.26-2.72 19.382-8.33l2.72 3.74zm-46.074-34.343c9 0 17.852-.17 27.202-.5 2.9 0 3.9-.85 3.9-3.4.17-8.84-5.27-17.172-14.1-17.172-7.48 0-14.792 7.3-17.002 21.082zm89.253 15.643h-39.443l2.38-9.86h39.442l-2.38 9.86zm52.362 33.5v-4.6c9.52-1.02 10.7-2.2 10.7-12.92v-28.392c0-13.94-5.44-20.402-15.8-20.402-6.12 0-12.242 2.9-16.832 8v40.803c0 10.7 1.02 11.9 10.54 12.92v4.6h-36.893v-4.6c10.2-1.02 11.56-1.87 11.56-13.1v-80.756c0-10.54-.5-11.22-11.22-12.24v-4.08c8.33-1.2 18.87-3.9 26.012-5.95v56.274c6.12-5.95 15.13-12.07 24.143-12.07 13.94 0 23.46 8.84 23.46 28.902v30.092c0 11.05 1.2 11.9 10.88 12.92v4.6h-36.553zm89.253 2.04c-2.9 0-6.46-1.53-8.33-3.4-2.2-2.2-3.4-4.6-4.08-7.3-6.8 4.6-14.96 10.7-19.722 10.7-12.4 0-20.9-10.37-20.9-20.9 0-8.5 4.42-13.602 13.6-16.662 10.2-3.57 22.782-8.16 26.522-11.22v-3.4c0-11.9-5.44-18.7-13.602-18.7-3.06 0-5.6 1.2-7.3 3.23-2.04 2.38-3.57 6.12-4.93 11.4-.85 3.06-2.72 4.25-5.44 4.25-3.23 0-8-3.4-8-7.48 0-2.72 2.2-4.6 5.6-7.14 4.93-3.57 16.32-10.03 26.013-11.9 5.27 0 10.54 1.53 14.28 4.6 6.3 5.1 8 12.07 8 21.252v30.942c0 7.65 2.9 10.03 5.78 10.03 2.04 0 4.42-.85 6.12-1.7l1.7 4.6-15.302 8.84zm-12.92-42.843c-3.57 1.87-10.54 5.1-14.28 6.8-6.3 3.06-9.86 6.12-9.86 12.4 0 8.84 6.63 12.92 11.73 12.92 4.08 0 9.352-2.55 12.412-5.44v-26.7zm56.608-17.68c5.27-9 12.4-18.02 20.232-18.02 6.12 0 10.2 4.6 10.2 8.84 0 3.9-2.38 7.48-5.95 9.18-2.04.85-3.57.5-4.6-.5-2.55-2.38-4.592-3.4-7.48-3.4-4.08 0-9.18 4.42-12.75 13.43v31.282c0 11.05.85 12.07 13.94 13.1v4.6h-40.463v-4.6c10.37-1.02 11.56-2.04 11.56-13.1v-35.532c0-10.88-.85-11.392-10.2-12.92v-3.9c8.67-1.36 16.492-3.4 25.162-6.8v18.36h.34zm128.53 58.483v-4.6c9.52-1.02 11.22-1.87 11.22-13.6v-28.562c0-12.4-4.6-19.04-14.28-19.04-5.78 0-11.73 3.06-18.02 8.16.34 2.04.5 4.08.5 7.14v33.323c0 10.54 1.53 11.56 10.54 12.58v4.6h-36.893v-4.6c10.03-1.02 11.4-1.87 11.4-12.75V410.63c0-12.58-4.6-19.04-14.28-19.04-6.3 0-12.58 4.25-17.512 8.33v40.293c0 10.7 1.36 11.73 9.352 12.75v4.6H719.25v-4.6c11.05-1.02 12.4-1.87 12.4-13.1V404.68c0-10.7-.5-11.562-10.03-13.1v-4.08c7.48-1.36 16.66-3.57 24.82-6.97v13.77c3.57-2.55 7.14-5.44 12.07-8.5 4.6-2.9 8.67-4.76 14.1-4.76 8.33 0 15.472 5.27 18.872 13.94 4.93-3.74 9.7-6.8 13.77-9.52 3.74-2.38 8.16-4.42 12.92-4.42 13.602 0 21.932 9.52 21.932 26.182v32.813c0 11.222 1.02 11.73 10.7 12.92v4.6H813.93z"/><path d="M849.647 457.55v-4.59c10.54-1.02 11.73-2.04 11.73-13.6v-34.853c0-10.71-.68-11.392-10.37-12.92v-4.25c8.84-1.36 17.512-3.57 25.332-6.46v58.484c0 11.56 1.02 12.58 11.9 13.6v4.59h-38.592zm9-99.798c0-5.44 4.25-9.52 9.352-9.52 4.93 0 9 4.08 9 9.52 0 4.93-4.08 9.18-9.18 9.18-4.932 0-9.182-4.25-9.182-9.18z"/><path d="M934.14 457.55v-4.6c9.52-1.02 10.7-2.2 10.7-14.1v-28.393c0-11.9-4.42-18.87-14.8-18.87-6.3 0-12.58 3.9-17.512 8.16v40.123c0 11.392 1.02 12.07 10.54 13.1v4.6h-37.573v-4.6c11.222-1.2 12.07-2.04 12.07-13.26v-35.192c0-10.7-1.02-11.22-10.03-12.92v-4.08c8.5-1.53 17.002-3.74 24.992-6.97v13.43c3.4-2.55 6.97-5.1 11.22-7.82 4.93-3.23 9.012-5.1 13.94-5.1 13.602 0 21.932 9.52 21.932 26.012v32.813c0 11.392 1.02 11.9 10.7 13.1v4.6h-36.21zm112.206-73.104c-1.36 2.72-4.76 7.3-7.48 8.84l-9.7-.5c3.06 3.57 4.93 8.84 4.93 14.8 0 18.2-15.472 27.032-30.263 27.032-2.9 0-5.95-.34-8.67-.85-2.04 1.53-4.42 4.42-4.42 6.63 0 3.23 2.9 6.63 10.54 6.63 6.12 0 11.9-.34 17.68-.34 10.54 0 24.652 3.4 24.652 20.23 0 17.682-20.4 34.003-43.014 34.003-19.38 0-29.582-11.05-29.752-20.912-.17-3.74 1.53-6.8 4.25-9.35 3.57-3.4 9.7-8.16 13.77-11.4-6.12-1.87-10.37-5.6-12.58-9.35-1.53-2.38-2.2-5.6-2.04-7.48 7.3-2.55 12.75-7.14 15.47-10.37-8.16-3.4-15.13-11.4-15.13-22.782 0-19.38 17.342-28.222 30.943-28.222 5.78 0 11.22 1.53 16.5 4.42 8.5-.5 17.172-1.53 23.463-2.38l.85 1.36zm-54.234 78.886c-3.9 3.57-6.97 7.82-6.97 12.4 0 9.18 9.52 16.32 22.27 16.32 15.642 0 23.803-8 23.803-18.36 0-5.78-3.06-10.03-8-11.9-4.42-1.7-9-2.04-16.15-2.04-8.16 0-11.9 1.02-14.96 3.57zm-1.7-56.784c0 12.92 6.12 22.44 15.302 22.44 7.3-.17 13.26-6.8 13.26-20.062 0-12.92-5.78-22.6-15.13-22.6-6.97 0-13.43 7.14-13.43 20.23zm-503.726 128.1c3.06-1.87 6.3-2.72 8.5-2.72 19.042 0 30.263 15.64 30.263 32.303 0 25.502-20.232 41.993-42.334 46.243-4.76-.17-9.18-1.7-11.4-2.9v22.27c0 12.24 1.2 13.26 14.28 14.28v4.76h-41.483v-4.76c10.88-1.02 12.24-2.04 12.24-12.92V554.37c0-10.7-.85-11.22-11.05-12.4v-4.25c7.65-1.36 17.342-4.25 26.012-7.48v13.26l14.96-8.84zm-14.96 60.865c3.57 3.74 10.03 6.63 15.47 6.63 13.432 0 22.442-12.07 22.442-31.113 0-18.7-10.54-28.392-22.102-28.392-5.1 0-11.562 3.4-15.812 6.63v46.244zm119.004-1.87c-10.7 13.77-22.6 16.83-28.222 16.83-21.252 0-33.493-17-33.493-36.213 0-11.9 4.42-22.44 11.4-29.922 7.14-7.82 16.322-12.4 25.162-12.4 14.45 0 26.013 12.75 25.843 26.182 0 3.4-.68 4.93-4.08 5.6-2.72.34-23.97 2.04-43.693 2.72.34 22.27 13.092 31.792 24.992 31.792 6.8 0 13.262-2.72 19.382-8.33l2.72 3.74zM544.657 559.3c9 0 17.852-.17 27.202-.5 2.9 0 3.9-.85 3.9-3.4.17-8.84-5.27-17.172-14.1-17.172-7.48 0-14.8 7.3-17 21.082zm94.355-4.93c-3.4-10.03-9.182-16.83-17.512-16.83-6.12 0-10.54 4.76-10.54 11.22 0 7.14 6.12 11.05 13.94 14.45 13.1 5.44 21.762 11.4 21.762 23.462 0 15.812-14.62 23.802-28.393 23.802-8.84 0-16.832-3.23-19.892-5.78-1.2-2.38-2.72-14.1-2.9-20.57l4.76-.68c3.06 11.05 10.7 21.252 21.082 21.252 6.12 0 11.56-4.6 11.56-11.4 0-7.14-4.42-11.05-13.262-15.302-9.86-4.6-21.592-10.37-21.592-23.632 0-12.24 10.37-22.44 26.353-22.44 7.3 0 11.9 1.53 15.472 3.06 1.36 3.74 3.23 14.28 3.74 18.2l-4.6 1.2zm44.54 53.894c-2.9 1.53-5.44 2.2-6.97 2.2-11.22 0-17.512-6.63-17.512-20.4V540.93H647.5l-.68-1.87 4.6-5.1h7.65v-12.4L671.64 510l2.2.5v23.46h18.87c1.7 1.7 1.2 5.6-1.02 6.97h-17.852v43.354c0 13.6 5.78 15.98 10.03 15.98 3.9 0 7.65-1.36 10.03-2.55l1.53 4.6-11.9 5.95zm19.037.17v-4.6c10.54-1.02 11.73-2.04 11.73-13.6V555.4c0-10.7-.68-11.392-10.37-12.92v-4.25c8.84-1.36 17.512-3.57 25.332-6.46v58.484c0 11.56 1.02 12.58 11.9 13.6v4.6H702.6zm9-99.797c0-5.44 4.25-9.52 9.35-9.52 4.93 0 9 4.08 9 9.52 0 4.93-4.08 9.18-9.18 9.18-4.93 0-9.18-4.25-9.18-9.18zm91.637 84.325c-7.65 10.03-18.87 17.512-28.902 17.512-21.932 0-34.682-17.34-34.682-35.703 0-12.92 5.95-24.48 17.17-32.982 9.18-7.14 19.552-9.86 26.183-9.86 6.8 0 12.4 2.2 14.96 4.42 2.38 1.87 2.9 3.4 2.9 5.27 0 3.9-3.9 7.82-5.95 7.82-1.02 0-1.87-.5-3.23-1.87-5.6-5.1-11.4-7.3-17.172-7.3-10.37 0-19.72 8.84-19.72 26.692 0 23.462 16.15 31.282 25.332 31.282 7.14 0 12.58-2.04 20.06-9l3.06 3.74zm4.077 15.472v-4.6c10.54-1.02 11.73-2.04 11.73-13.6V555.4c0-10.7-.68-11.392-10.37-12.92v-4.25c8.84-1.36 17.512-3.57 25.332-6.46v58.484c0 11.56 1.02 12.58 11.9 13.6v4.6h-38.593zm9-99.797c0-5.44 4.25-9.52 9.35-9.52 4.93 0 9 4.08 9 9.52 0 4.93-4.08 9.18-9.18 9.18-4.93 0-9.18-4.25-9.18-9.18zm110.678 95.377c-3.9.68-17.172 2.9-27.713 6.46v-10.88l-10.37 6.3c-6.3 3.74-10.37 4.6-12.4 4.6-13.77 0-31.963-12.4-31.963-36.383 0-23.462 20.4-42.163 44.203-42.163 2.2 0 6.63.34 10.54 1.7v-23.46c0-10.7-1.02-11.22-12.75-12.24v-4.25c9.18-1.2 20.9-3.74 27.712-5.95v100.818c0 9 1.02 9.86 7.48 10.54l5.27.5v4.42zM899.3 547.23c-3.9-5.95-10.54-8.84-16.5-8.84-7.3 0-21.42 6.3-21.42 31.113 0 20.4 12.4 29.922 22.78 29.922 5.6 0 11.05-2.38 15.13-5.27V547.23zm90.273 46.413c-10.7 13.77-22.6 16.83-28.223 16.83-21.252 0-33.492-17-33.492-36.213 0-11.9 4.42-22.44 11.4-29.922 7.14-7.82 16.32-12.4 25.162-12.4 14.45 0 26.012 12.75 25.842 26.182 0 3.4-.68 4.93-4.08 5.6-2.72.34-23.972 2.04-43.693 2.72.34 22.27 13.1 31.792 24.992 31.792 6.8 0 13.26-2.72 19.38-8.33l2.72 3.74zM943.5 559.3c9.012 0 17.852-.17 27.203-.5 2.9 0 3.9-.85 3.9-3.4.17-8.84-5.27-17.172-14.1-17.172-7.48 0-14.8 7.3-17.002 21.082zm94.352-4.93c-3.4-10.03-9.182-16.83-17.512-16.83-6.12 0-10.54 4.76-10.54 11.22 0 7.14 6.12 11.05 13.94 14.45 13.1 5.44 21.762 11.4 21.762 23.462 0 15.812-14.62 23.802-28.393 23.802-8.84 0-16.83-3.23-19.9-5.78-1.2-2.38-2.72-14.1-2.9-20.57l4.76-.68c3.06 11.05 10.7 21.252 21.082 21.252 6.12 0 11.56-4.6 11.56-11.4 0-7.14-4.42-11.05-13.26-15.302-9.86-4.6-21.592-10.37-21.592-23.632 0-12.24 10.37-22.44 26.353-22.44 7.3 0 11.9 1.53 15.47 3.06 1.36 3.74 3.23 14.28 3.74 18.2l-4.6 1.2z"/></g><defs ><path id="C" d="M104.714 1045.51c-.633 0-1.267-.367-1.4-1.1-1.334 1.034-2.97 1.668-4.804 1.668-4.136 0-7.604-3.436-7.604-7.605v-9.24a1.37 1.37 0 0 1 1.4-1.435c.768 0 1.468.5 1.468 1.4v9.272c0 2.602 2.168 4.77 4.736 4.77 2.603 0 4.77-2.17 4.77-4.77v-9.24c0-1.034.667-1.468 1.4-1.468.768 0 1.435.5 1.435 1.435v14.9c0 .934-.667 1.4-1.4 1.4z"/><path id="D" d="M696.804 1046.318c-3.22 0-5.02-2.64-5.02-5.662 0-3 1.8-5.64 5.02-5.64s5.02 2.64 5.02 5.64c0 3.02-1.8 5.662-5.02 5.662zm0-10.162c-2.36 0-3.88 1.9-3.88 4.5s1.52 4.52 3.88 4.52c2.38 0 3.88-1.92 3.88-4.52s-1.5-4.5-3.88-4.5z"/><path id="E" d="M712.584 1045.98c-.28 0-.58-.2-.58-.56v-.64c-.84.98-2.06 1.54-3.42 1.54-2.48 0-4.56-2.08-4.56-4.56v-5.842c0-.36.3-.56.58-.56.26 0 .56.2.56.56v5.842c0 1.9 1.52 3.42 3.42 3.42s3.42-1.52 3.42-3.42v-5.842c0-.36.3-.56.58-.56.26 0 .56.2.56.56v9.502c0 .36-.3.56-.56.56z"/><path id="F" d="M720.543 1036.336a3.42 3.42 0 0 0-3.421 3.42v5.662c0 .36-.3.56-.56.56-.28 0-.58-.2-.58-.56v-9.502c0-.36.3-.56.58-.56.26 0 .56.2.56.56v.82c.9-.98 2.08-1.54 3.42-1.54.36 0 .58.3.58.56a.58.58 0 0 1-.58.58z"/><path id="G" d="M742.305 1041.236h-8.302c.18 2.28 1.66 3.94 3.84 3.94 1.08 0 2.36-.48 2.94-1.38.14-.22.3-.28.48-.28.3 0 .62.24.62.54 0 .18 0 .22-.38.658-.92 1.082-2.26 1.602-3.66 1.602-3.22 0-5.02-2.64-5.02-5.662 0-3 1.8-5.64 5.02-5.64s5.02 2.66 5.02 5.64c0 .3-.28.58-.56.58zm-4.46-5.08c-2.4 0-3.66 1.84-3.84 3.94h7.7c-.18-2.28-1.66-3.94-3.86-3.94z"/><path id="H" d="M832.604 1045.98h-.02c-.66 0-1.6-.36-1.98-1.56-.84 1.18-2.14 1.9-3.88 1.9-3.26 0-5.02-2.682-5.02-5.662 0-3.02 1.8-5.64 5.02-5.64 1.74 0 3.04.72 3.88 1.88v-.98c0-.32.26-.56.58-.56.28 0 .56.2.56.56v8.063c0 1.28 1.44.48 1.44 1.44a.55.55 0 0 1-.58.561zm-5.88-9.822c-2.36 0-3.88 1.9-3.88 4.5s1.52 4.52 3.88 4.52c2.38 0 3.88-1.92 3.88-4.52s-1.5-4.5-3.88-4.5z"/><path id="I" d="M959.84 1036.156l-5.42 12.822c-.4.94-1.22 1.2-2.14 1.2h-.88c-.36 0-.56-.3-.56-.58 0-.262.2-.56.56-.56h.88c.44 0 .9-.02 1.08-.48l1.14-2.72-4.142-9.682c-.04-.1-.04-.18-.04-.26 0-.32.28-.54.58-.54.18 0 .4.08.5.34l3.722 8.682 3.68-8.682a.52.52 0 0 1 .52-.34c.3 0 .56.22.56.54 0 .08 0 .16-.04.26z"/><path id="J" d="M994.8 1045.98h-.62c-1.58 0-2.36-.78-2.36-2.342v-7.14h-1.02c-.36 0-.56-.3-.56-.58 0-.26.2-.56.56-.56h1.02v-3.06c0-.36.3-.56.58-.56s.56.2.56.56v3.06h1.84c.36 0 .56.3.56.56 0 .28-.2.58-.56.58h-1.84v7.14c0 .98.28 1.2 1.22 1.2h.62c.36 0 .56.3.56.58 0 .26-.2.56-.56.56z"/><path id="K" d="M528.462 664.615h24.76c20.375 0 31.723 8.77 32.496 32.238v28.627c-.773 23.47-12.12 32.238-32.496 32.238h-24.76v-93.104zm17.796 77.37h6.19c9.8 0 15.474-4.642 15.474-18.568v-24.5c0-13.153-4.384-18.57-15.474-18.57h-6.19v61.64z"/><path id="L" d="M721.885 882.692l23.083-93.104h22.825l22.438 93.104h-17.02l-4.514-19.6h-24.63l-5.028 19.6h-17.15zm25.404-35.333h17.666l-8.64-37.654h-.258l-8.77 37.654z"/><path id="M" d="M700.093 914.563v15.732h-20.76v77.37h-17.796v-77.37h-20.76v-15.732h59.317z"/><path id="N" d="M766.758 266.103c0-22.953 12.122-31.206 29.4-31.206s29.4 8.253 29.4 31.206v33.27c0 22.953-12.12 31.206-29.4 31.206s-29.4-8.253-29.4-31.206v-33.27zm17.796 35.59c0 10.316 4.513 13.153 11.605 13.153s11.605-2.837 11.605-13.153v-37.912c0-10.316-4.514-13.153-11.605-13.153s-11.605 2.837-11.605 13.153v37.912z"/><path id="O" d="M729.622 460.263l23.082-93.104h22.825l22.438 93.104h-17.02l-4.514-19.6h-24.63l-5.03 19.6h-17.15zm25.403-35.333h17.667l-8.64-37.654h-.258l-8.77 37.654z"/><path id="P" d="M800.932 460.263V367.16h19.472l24.76 55.19h.258v-55.19h16.248v93.104h-17.022l-27.208-60.092h-.26v60.092h-16.247z"/><path id="Q" d="M784.196 306.668v-4.59c9.52-1.02 10.71-2.2 10.71-14.1v-28.393c0-11.9-4.42-18.872-14.79-18.872-6.3 0-12.58 3.91-17.512 8.16v40.123c0 11.392 1.02 12.07 10.54 13.09v4.59h-37.572v-4.59c11.22-1.19 12.07-2.04 12.07-13.26v-35.192c0-10.71-1.02-11.22-10.03-12.92v-4.08c8.5-1.53 17-3.74 24.99-6.97v13.43c3.4-2.55 6.97-5.1 11.222-7.82 4.93-3.23 9.01-5.1 13.94-5.1 13.602 0 21.932 9.52 21.932 26.012v32.813c0 11.392 1.02 11.9 10.71 13.09v4.59h-36.213z"/></defs></svg>