<svg xmlns="http://www.w3.org/2000/svg" xmlns:xlink="http://www.w3.org/1999/xlink" viewBox="0 0 1080 1080"><defs><linearGradient id="A" x1="11.716" y1="11.716" x2="1068.284" y2="1068.284" gradientUnits="userSpaceOnUse"><stop offset="0" stop-color="#ba5370"/><stop offset=".068" stop-color="#bf6079"/><stop offset=".383" stop-color="#d697a2"/><stop offset=".655" stop-color="#e6c0bf"/><stop offset=".87" stop-color="#f0d9d1"/><stop offset="1" stop-color="#f4e2d8"/></linearGradient><linearGradient id="B" x1="540" y1="1045.1" x2="540" y2="399.963" gradientUnits="userSpaceOnUse"><stop offset="0" stop-color="#0c0552"/><stop offset=".242" stop-color="#3b0950"/><stop offset=".765" stop-color="#9d114c"/><stop offset="1" stop-color="#c4144b"/></linearGradient><path id="C" d="M104.714 1045.51a1.36 1.36 0 0 1-1.4-1.101 7.763 7.763 0 0 1-4.804 1.668 7.666 7.666 0 0 1-7.604-7.605v-9.24a1.434 1.434 0 0 1 2.868-.033v9.272a4.753 4.753 0 1 0 9.507 0v-9.24a1.33 1.33 0 0 1 1.4-1.468 1.364 1.364 0 0 1 1.435 1.435v14.9a1.328 1.328 0 0 1-1.401 1.4z"/><path id="D" d="M752.94 1046.357c-1.2 0-3.22-.42-3.92-1.58a.482.482 0 0 1-.08-.3.546.546 0 0 1 1.021-.32 3.812 3.812 0 0 0 2.98 1.061c1.94 0 2.92-.64 2.92-1.94 0-3.02-6.562-1.42-6.562-5.422 0-2.02 2.02-2.8 3.84-2.8a5.415 5.415 0 0 1 3.44 1.16.558.558 0 0 1 .18.38.648.648 0 0 1-.62.6.531.531 0 0 1-.38-.16 4.001 4.001 0 0 0-2.62-.84c-1.76 0-2.7.68-2.7 1.66 0 2.8 6.562 1.32 6.562 5.422 0 2.28-2 3.08-4.06 3.08z"/><path id="E" d="M763.66 1046.317c-3.22 0-5.02-2.64-5.02-5.66 0-3 1.8-5.64 5.02-5.64s5.02 2.64 5.02 5.64c0 3.02-1.8 5.66-5.02 5.66zm0-10.162c-2.36 0-3.88 1.9-3.88 4.5s1.52 4.52 3.88 4.52c2.38 0 3.88-1.92 3.88-4.52s-1.5-4.5-3.88-4.5z"/><path id="F" d="M779.44 1045.977a.562.562 0 0 1-.58-.561v-.64a4.442 4.442 0 0 1-3.421 1.54 4.61 4.61 0 0 1-4.561-4.561v-5.842a.57.57 0 0 1 1.14 0v5.842a3.421 3.421 0 1 0 6.842 0v-5.842a.57.57 0 0 1 1.141 0v9.502a.558.558 0 0 1-.561.561z"/><path id="G" d="M787.4 1036.336a3.418 3.418 0 0 0-3.421 3.42v5.66a.57.57 0 0 1-1.141 0v-9.502a.57.57 0 0 1 1.141 0v.82a4.565 4.565 0 0 1 3.421-1.54.57.57 0 1 1 0 1.141z"/><path id="H" d="M797.58 1044.797a4.645 4.645 0 0 1-3.58 1.521c-3.22 0-5.02-2.64-5.02-5.66 0-3 1.8-5.64 5.02-5.64a4.647 4.647 0 0 1 3.58 1.52.531.531 0 0 1 .16.381.627.627 0 0 1-.58.6.587.587 0 0 1-.42-.2 3.526 3.526 0 0 0-2.74-1.16c-2.36 0-3.88 1.9-3.88 4.5s1.52 4.52 3.88 4.52a3.596 3.596 0 0 0 2.74-1.16.587.587 0 0 1 .42-.2.594.594 0 0 1 .58.58.571.571 0 0 1-.16.399z"/><path id="I" d="M809.16 1041.236h-8.302c.18 2.28 1.66 3.94 3.84 3.94a3.615 3.615 0 0 0 2.94-1.381.525.525 0 0 1 .479-.28.611.611 0 0 1 .62.541c0 .18 0 .22-.38.66a4.72 4.72 0 0 1-3.66 1.601c-3.22 0-5.02-2.64-5.02-5.66 0-3 1.8-5.64 5.02-5.64s5.02 2.66 5.02 5.64a.606.606 0 0 1-.56.58zm-4.46-5.08c-2.4 0-3.66 1.84-3.84 3.94h7.7c-.18-2.28-1.66-3.94-3.86-3.94z"/><path id="J" d="M845.2 1045.977h-.02a2.072 2.072 0 0 1-1.98-1.561 4.536 4.536 0 0 1-3.88 1.9c-3.26 0-5.02-2.68-5.02-5.66 0-3.02 1.8-5.64 5.02-5.64a4.571 4.571 0 0 1 3.88 1.88v-.98a.564.564 0 0 1 .581-.56.546.546 0 0 1 .56.56v8.063c0 1.28 1.44.48 1.44 1.44a.55.55 0 0 1-.58.561zm-5.88-9.822c-2.36 0-3.88 1.9-3.88 4.5s1.52 4.52 3.88 4.52c2.38 0 3.88-1.92 3.88-4.52s-1.5-4.5-3.88-4.5z"/><path id="K" d="M851.26 1045.977h-.62a2.075 2.075 0 0 1-2.36-2.341v-7.142h-1.02a.57.57 0 0 1 0-1.14h1.02v-3.06a.562.562 0 0 1 .58-.561.546.546 0 0 1 .56.561v3.06h1.84a.57.57 0 0 1 0 1.14h-1.84v7.142c0 .98.28 1.2 1.22 1.2h.62a.57.57 0 0 1 0 1.141z"/><path id="L" d="M854.218 1033.434a1.14 1.14 0 1 1 1.141-1.14 1.127 1.127 0 0 1-1.141 1.14zm0 12.543a.55.55 0 0 1-.58-.561v-9.502a.551.551 0 0 1 .58-.56.545.545 0 0 1 .561.56v9.502a.536.536 0 0 1-.561.561z"/><path id="M" d="M878.14 1045.977a.563.563 0 0 1-.58-.561v-5.84a3.42 3.42 0 1 0-6.841 0v5.84a.57.57 0 0 1-1.141 0v-9.502a.57.57 0 0 1 1.141 0v.64a4.563 4.563 0 0 1 7.981 3.021v5.84a.558.558 0 0 1-.561.561z"/><path id="N" d="M543.234 747.173v-1.92h2.816v-18.56l-2.88.256v-1.408a8.855 8.855 0 0 0 3.647-1.791h1.536v21.502h2.688v1.92z"/><path id="O" d="M556.033 741.797c.192 1.664.896 3.776 2.944 3.776 1.983 0 3.456-2.048 3.456-6.048 0-4.32-1.473-5.663-3.168-5.663a3.183 3.183 0 0 0-2.912 2.239l-1.792-.32.77-11.71h8.127l-.192 1.92h-6.08l-.448 7.04a4.786 4.786 0 0 1 3.072-1.088c2.688 0 4.928 2.495 4.928 7.52 0 5.28-2.56 8.032-5.632 8.032-3.328 0-4.992-2.496-5.184-5.504z"/><path id="P" d="M405.308 66.68h-22.2c.84 5.64 4.44 9.24 9.72 9.24a9.005 9.005 0 0 0 7.14-3.12 2.483 2.483 0 0 1 1.86-.96 2.8 2.8 0 0 1 2.7 2.64c0 .72-.18 1.26-1.44 2.52a14.622 14.622 0 0 1-10.26 4.02c-9.66 0-15.06-7.98-15.06-16.98 0-8.94 5.4-16.92 15.06-16.92 9.78 0 15 7.98 15 16.92a2.558 2.558 0 0 1-2.52 2.64zm-12.48-14.46c-5.64 0-8.94 4.14-9.72 9.3h19.44c-.84-5.76-4.44-9.3-9.72-9.3z"/><path id="Q" d="M580.205 81.02c-9.66 0-15.06-7.92-15.06-16.98 0-9 5.4-16.92 15.06-16.92s15.06 7.92 15.06 16.92c0 9.06-5.4 16.98-15.06 16.98zm0-28.8c-6 0-9.9 4.68-9.9 11.82 0 7.2 3.9 11.88 9.9 11.88 6.06 0 9.9-4.68 9.9-11.88 0-7.14-3.84-11.82-9.9-11.82z"/><path id="R" d="M590.783 141.2a5.839 5.839 0 0 1-5.34-3.42 13.747 13.747 0 0 1-10.56 4.44c-9.78 0-15.06-8.04-15.06-16.98s5.4-16.92 15.06-16.92a13.258 13.258 0 0 1 9.899 3.96v-.24a2.476 2.476 0 0 1 2.52-2.7 2.412 2.412 0 0 1 2.64 2.52v23.16a.971.971 0 0 0 .84 1.08 2.55 2.55 0 1 1 0 5.1zm-15.9-27.78c-6 0-9.9 4.68-9.9 11.82 0 7.2 3.9 11.88 9.9 11.88 6.06 0 9.9-4.68 9.9-11.88 0-7.14-3.84-11.82-9.9-11.82z"/><path id="S" d="M486.78 189.917a8.619 8.619 0 0 1-7.371-3.609v9.84a1.083 1.083 0 1 1-2.166 0V170.16a1.083 1.083 0 0 1 2.166 0v1.862a8.686 8.686 0 0 1 7.371-3.572c6.117 0 9.536 5.016 9.536 10.715 0 5.737-3.42 10.752-9.536 10.752zm0-19.3c-4.52 0-7.37 3.61-7.37 8.55s2.85 8.587 7.37 8.587 7.37-3.647 7.37-8.587-2.85-8.55-7.37-8.55z"/><path id="T" d="M560.498 189.917c-8.055 0-8.13-9.65-8.13-15.197 0-5.434.836-13.185 8.093-13.185 7.105 0 8.17 7.295 8.17 13.185 0 5.51-.114 15.197-8.13 15.197zm5.965-15.197c0-5.434-.76-11.02-5.965-11.02-5.7 0-5.965 6.99-5.965 11.02v2.432c0 4.407.836 10.6 5.927 10.6 5.205 0 6.003-6.193 6.003-10.6z"/></defs><rect width="1080" height="1080" rx="40" fill="url(#A)"/><g opacity=".4" fill="#b5124c"><path d="M42.328 1046.045a7.892 7.892 0 0 1-5.503-2.002 1.364 1.364 0 0 1-1.468 1.401 1.346 1.346 0 0 1-1.401-1.401v-20.88a1.435 1.435 0 0 1 2.869-.033v6.238a7.4 7.4 0 0 1 5.503-2.169c5.37 0 8.373 4.403 8.373 9.406 0 5.037-3.002 9.44-8.373 9.44zm0-16c-3.335 0-5.503 2.602-5.503 6.57 0 4.003 2.168 6.604 5.503 6.604s5.504-2.602 5.504-6.604c0-3.97-2.168-6.57-5.504-6.57zm25.555 8.037h-12.34c.467 3.136 2.468 5.137 5.403 5.137a5.003 5.003 0 0 0 3.969-1.734 1.383 1.383 0 0 1 1.034-.533 1.556 1.556 0 0 1 1.501 1.468c0 .4-.1.7-.8 1.4a8.129 8.129 0 0 1-5.704 2.235c-5.37 0-8.372-4.437-8.372-9.44 0-4.97 3.002-9.406 8.372-9.406 5.437 0 8.34 4.437 8.34 9.406a1.422 1.422 0 0 1-1.401 1.468zm-6.937-8.038c-3.136 0-4.97 2.3-5.403 5.17H66.35c-.467-3.202-2.468-5.17-5.403-5.17zM88 1045.478a3.247 3.247 0 0 1-2.969-1.901 7.642 7.642 0 0 1-5.87 2.469c-5.437 0-8.372-4.47-8.372-9.44s3.002-9.406 8.372-9.406a7.369 7.369 0 0 1 5.504 2.202v-.134a1.376 1.376 0 0 1 1.4-1.501 1.341 1.341 0 0 1 1.468 1.401v12.875a.54.54 0 0 0 .467.601 1.418 1.418 0 1 1 0 2.835zm-8.84-15.443c-3.336 0-5.504 2.602-5.504 6.57 0 4.003 2.168 6.604 5.504 6.604 3.37 0 5.504-2.602 5.504-6.604 0-3.97-2.135-6.57-5.504-6.57z"/><use xlink:href="#C"/><path d="M115.158 1045.478h-.567c-3.17 0-4.37-1.668-4.37-4.403V1030.6h-1a1.418 1.418 0 1 1-.033-2.835h1v-4.637a1.355 1.355 0 0 1 1.435-1.4 1.328 1.328 0 0 1 1.401 1.4v4.637h2.135a1.383 1.383 0 0 1 1.4 1.401 1.356 1.356 0 0 1-1.4 1.434h-2.135v10.774c0 .934.333 1.268 1.268 1.268h.833a1.376 1.376 0 0 1 1.435 1.4 1.357 1.357 0 0 1-1.4 1.435zm4.604-20.415a2.401 2.401 0 1 1 2.402-2.401 2.392 2.392 0 0 1-2.402 2.401zm0 20.414a1.4 1.4 0 0 1-1.467-1.401V1029.2a1.408 1.408 0 0 1 1.467-1.435 1.374 1.374 0 0 1 1.401 1.435v14.876a1.346 1.346 0 0 1-1.401 1.401zm10.376-14.877h-1.5v13.442a1.364 1.364 0 0 1-1.468 1.401 1.346 1.346 0 0 1-1.401-1.401V1030.6h-1.37a1.418 1.418 0 0 1 0-2.835h1.367v-2.27a3.801 3.801 0 0 1 3.836-3.769 1.418 1.418 0 1 1 0 2.835.934.934 0 0 0-.967.9v2.302h1.5a1.418 1.418 0 1 1 0 2.835z"/><use xlink:href="#C" x="42.068"/><path d="M154.725 1045.544a3.403 3.403 0 0 1-3.336-3.402v-18.98a1.435 1.435 0 0 1 2.869-.033v19.013a.527.527 0 0 0 .467.567 1.418 1.418 0 1 1 0 2.835zm15.37-.066v-1.264c1.886-.237 2.046-.437 2.046-3.157v-6.7c0-2.8-1.248-4.017-3.064-4.017a5.597 5.597 0 0 0-3.47 1.493v9.476c0 2.527.187 2.658 2.06 2.896v1.264h-8.968v-1.264c2.254-.33 2.5-.4 2.5-3v-8.2c0-2.446-.303-2.565-2.185-2.922v-1.184a34.101 34.101 0 0 0 6.653-1.533l-.052 2.95 2.6-1.745a5.659 5.659 0 0 1 3.159-1.086c3.194 0 5.2 2.338 5.2 6.3v7.5c0 2.54.237 2.657 2.277 2.92v1.264zm23.9-3.703c-2.458 3.427-5.488 4.178-7.014 4.178-5.142 0-8.124-3.936-8.124-8.594a10.333 10.333 0 0 1 2.832-7.062 8.602 8.602 0 0 1 6.082-2.814 6.386 6.386 0 0 1 6.37 6.347c-.014.715-.08 1.277-.612 1.4-.767.184-6.17.5-10.318.647.062 4.587 2.717 6.74 5.556 6.74a6.776 6.776 0 0 0 4.543-1.866zm-7.07-12.7c-1.667 0-3.167 1.807-3.516 4.963l5.486-.118c.6-.026.848-.146.848-.792.04-2.022-1.037-4.053-2.818-4.053zm34.284.145c-1.943.343-2.248.624-3.105 2.765-1.33 3.462-3.102 8.53-4.934 13.94h-1.512l-4.65-11.46-4.55 11.46h-1.472l-4.685-14.192c-.687-1.985-.94-2.274-2.855-2.512v-1.25h9.397v1.25c-2.325.345-2.535.672-2.058 2.133l2.52 8.214c1.507-3.68 2.988-7.62 4.327-11.424h1.456c1.4 3.76 2.986 7.702 4.573 11.568.742-2.107 2.062-5.964 2.557-8.108.412-1.674-.008-2.078-2.753-2.383v-1.25h7.742zm9.4 3.746c-.92-2.606-2.155-3.984-4.2-3.984a2.166 2.166 0 0 0-2.225 2.266c0 1.497 1.046 2.264 3.16 3.216 3.278 1.496 5.3 2.787 5.3 5.736 0 3.85-3.6 5.764-6.945 5.764a12.073 12.073 0 0 1-4.92-1.161l-.662-4.892 1.252-.224c.8 2.5 2.33 4.75 4.976 4.75a2.231 2.231 0 0 0 2.438-2.281c0-1.423-.76-2.333-3.092-3.467-2.67-1.295-5.107-2.64-5.107-5.775 0-3.046 2.533-5.42 6.565-5.42a18.751 18.751 0 0 1 4.112.567l.62 4.577z"/></g><g opacity=".7" fill="#b5124c"><use xlink:href="#D"/><use xlink:href="#E"/><use xlink:href="#F"/><use xlink:href="#G"/><use xlink:href="#H"/><use xlink:href="#I"/><path d="M813.14 1039.416a1.14 1.14 0 1 1 0-2.28 1.14 1.14 0 0 1 0 2.28zm0 6.562a1.14 1.14 0 1 1 0-2.28 1.14 1.14 0 0 1 0 2.28zm18.18.02a.616.616 0 0 1-.48-.319l-7.82-11.543v11.282a.57.57 0 0 1-1.141 0v-13.122a.569.569 0 0 1 1.08-.28l7.822 11.542v-11.262a.57.57 0 0 1 1.14 0v13.122a.597.597 0 0 1-.6.58z"/><use xlink:href="#J"/><use xlink:href="#K"/><use xlink:href="#L"/><use xlink:href="#E" x="98.52"/><use xlink:href="#M"/><use xlink:href="#J" x="46.6"/><path d="M896.178 1046.097a2.096 2.096 0 0 1-1.98-2.12v-11.683a.571.571 0 0 1 1.141 0v11.683c0 1.28 1.42.54 1.42 1.44a.645.645 0 0 1-.58.681zm17.242-1.96a5.125 5.125 0 0 1-4.461 2.181c-4.3 0-5.82-3.56-5.82-7.46 0-3.92 1.52-7.482 5.82-7.482a5.065 5.065 0 0 1 4.44 2.181.405.405 0 0 1 .12.32.6.6 0 0 1-.62.561.528.528 0 0 1-.439-.221 3.937 3.937 0 0 0-3.501-1.7c-3.32 0-4.682 2.6-4.682 6.342 0 3.72 1.36 6.32 4.682 6.32a3.988 3.988 0 0 0 3.541-1.701.465.465 0 0 1 .439-.26.612.612 0 0 1 .601.58.633.633 0 0 1-.12.34z"/><use xlink:href="#J" x="80.94"/><use xlink:href="#M" x="58.958"/><use xlink:href="#H" x="150.878"/><use xlink:href="#I" x="150.88"/><use xlink:href="#G" x="180.138"/><path d="M976.876 1045.977h-2.28a.57.57 0 1 1 0-1.141h.56v-11.982h-.56a.56.56 0 1 1 0-1.12h2.28a.56.56 0 1 1 0 1.12h-.58v11.982h.58a.57.57 0 0 1 0 1.141z"/><use xlink:href="#M" x="110.257"/><use xlink:href="#D" x="242.017"/><use xlink:href="#K" x="153.517"/><use xlink:href="#L" x="153.517"/><use xlink:href="#K" x="163.537"/><use xlink:href="#F" x="246.118"/><use xlink:href="#K" x="181.356"/><use xlink:href="#I" x="234.858"/></g><g fill="#b5124c"><circle cx="540" cy="714.907" r="330.193" opacity=".07"/><circle cx="540" cy="707.137" r="337.963" opacity=".07"/><circle cx="540" cy="699.541" r="345.559" opacity=".07"/><circle cx="540" cy="692.109" r="352.991" opacity=".07"/><circle cx="540" cy="684.83" r="360.27" opacity=".07"/><circle cx="540" cy="677.696" r="367.405" opacity=".07"/><circle cx="540" cy="670.697" r="374.403" opacity=".07"/><circle cx="540" cy="663.826" r="381.274" opacity=".07"/><circle cx="540" cy="657.078" r="388.022" opacity=".07"/><circle cx="540" cy="650.444" r="394.656" opacity=".07"/><circle cx="540" cy="643.921" r="401.18" opacity=".07"/></g><circle cx="540" cy="722.532" r="322.569" fill="url(#B)"/><g fill="#ffcfc2"><path d="M516.803 747.173v-1.92c2.048-6.848 8.447-10.687 8.447-15.935 0-2.432-1.216-3.647-2.784-3.647-1.823 0-3.168 1.407-3.36 4.863h-2.112c.256-5.248 2.624-6.783 5.408-6.783 3.04 0 5.15 2.048 5.15 5.887 0 5.76-5.184 7.552-8.64 15.615h8.768v1.92zm17.855.32c-3.775 0-5.567-3.52-5.567-11.87s1.792-11.87 5.567-11.87 5.567 3.52 5.567 11.87-1.792 11.87-5.567 11.87zm0-21.822c-2.112 0-3.264 2.367-3.264 9.95s1.15 9.95 3.264 9.95 3.264-2.368 3.264-9.95-1.152-9.95-3.264-9.95z"/><use xlink:href="#N"/><use xlink:href="#O"/></g><g fill="#170652"><use xlink:href="#N" x="-24.576" y="-380.309"/><path d="M531.842 362.575c.32 2.305 1.6 2.688 2.495 2.688 2.048 0 3.328-2.816 3.392-9.248a5.018 5.018 0 0 1-3.552 1.761c-2.592 0-4.96-1.856-4.96-7.104 0-4.48 1.92-7.23 4.96-7.23 4 0 5.92 2.304 5.92 10.623 0 9.28-2.176 13.12-5.823 13.12-2.976 0-4.096-1.792-4.544-4.48zm5.95-10.88c0-4.672-1.216-6.335-3.264-6.335-1.792 0-3.008 1.344-3.008 5.343 0 4.128 1.408 5.152 2.88 5.152a4.383 4.383 0 0 0 3.392-1.984zm3.97-7.935h10.367v1.216l-6.72 21.887h-2.432l6.72-21.183h-7.936z"/><use xlink:href="#O" x="-0.001" y="-380.309"/><path d="M509.538 326.22a7.069 7.069 0 0 0 5.332-2.402 8.425 8.425 0 0 0 1.992-5.742 9.504 9.504 0 0 0-2.344-6.68 8.247 8.247 0 0 0-6.094-2.344h-.703q-.587.06-.527-.586v-2.812q-.06-.644.527-.527h.352a7.839 7.839 0 0 0 5.742-2.285 8.27 8.27 0 0 0 2.227-5.977q-.352-6.2-6.094-6.562a6.012 6.012 0 0 0-4.16 1.582 7.286 7.286 0 0 0-2.168 4.629q0 .82-.586.703h-3.164q-.703.118-.527-.586a11.649 11.649 0 0 1 3.34-7.441 10.468 10.468 0 0 1 14.766 0 10.921 10.921 0 0 1 3.047 7.676 10.361 10.361 0 0 1-1.992 6.328 11.123 11.123 0 0 1-4.102 3.398q-.47.294.06.645a12.841 12.841 0 0 1 4.512 3.457q2.226 2.52 2.344 7.383a12.752 12.752 0 0 1-3.398 8.613 11.734 11.734 0 0 1-8.438 3.691 11.349 11.349 0 0 1-7.852-3.047 11.945 11.945 0 0 1-3.574-8.496q-.118-.352.527-.47h3.164q.644-.116.645.703.527 6.855 7.148 7.148h0zm23.722-38.613l.703-.527h4.16q.644 0 .586.586v37.03q-.118.645.527.586h7.617q.644-.116.527.527v2.87c.04.43-.137.605-.527.527H526.1c-.43.078-.625-.097-.586-.527v-2.87q-.06-.644.586-.527h7.9q.585.06.527-.586v-31.23q-.06-.703-.586-.117a25.72 25.72 0 0 1-8.027 4.688q-.47.235-.527-.293v-2.988a.567.567 0 0 1 .41-.527 14.728 14.728 0 0 0 7.441-6.621h0zm24.013 38.906a3.415 3.415 0 0 1-3.516 3.633q-3.282-.235-3.516-3.633a3.432 3.432 0 0 1 3.516-3.574 3.389 3.389 0 0 1 3.516 3.574h0zM578.7 315.03q-.06.645.527.586h3.574q.644-.116.527.527v2.87q.116.645-.527.586h-3.574q-.587-.116-.527.527v8.438c.078.508-.098.722-.527.645h-2.988c-.4.078-.567-.136-.527-.645v-8.437q.116-.644-.527-.527h-13.594q-.587.06-.527-.586v-3.7l.234-.996 12.48-26.777a.773.773 0 0 1 .82-.469h4.63q.644-.058.527.586zm-14.707 0q-.352.645.352.586h9.785q.644.06.527-.586v-21.914q-.118-.703-.47-.117z"/></g><path d="M504.166 703.02q-.06.586.527.527h17.1q.644-.117.527.527v3.164c.078.43-.098.624-.527.586H500.3c-.43.038-.606-.156-.527-.586v-3.223q.292-7.9 4.57-12.012a108.982 108.982 0 0 1 8.496-7.383 11.076 11.076 0 0 0 4.629-8.437 7.911 7.911 0 0 0-1.758-5.156 5.985 5.985 0 0 0-4.746-2.109 6.511 6.511 0 0 0-5.156 2.227 8.452 8.452 0 0 0-1.934 5.273q.058.82-.645.703h-3.164q-.645.117-.527-.527a12.927 12.927 0 0 1 3.34-8.262 10.664 10.664 0 0 1 8.145-3.574 10.54 10.54 0 0 1 7.793 3.223 11.391 11.391 0 0 1 3.164 8.027q-.352 6.387-4.57 9.902l-8.496 7.1q-4.278 3.516-4.746 10.02h0zm40.948-34.804a12.462 12.462 0 0 1 3.34 8.73v19.805a12.679 12.679 0 0 1-3.34 8.789 11.654 11.654 0 0 1-8.496 3.457 11.784 11.784 0 0 1-8.496-3.457 12.456 12.456 0 0 1-3.281-8.789v-19.805a12.244 12.244 0 0 1 3.281-8.73 11.474 11.474 0 0 1 8.496-3.457 11.352 11.352 0 0 1 8.496 3.457zm-15.88 8.73v19.805a8.844 8.844 0 0 0 1.992 5.859 7.501 7.501 0 0 0 10.781 0 8.683 8.683 0 0 0 2.051-5.859v-19.805a8.455 8.455 0 0 0-2.051-5.801 7.501 7.501 0 0 0-10.781 0 8.61 8.61 0 0 0-1.992 5.801h0zm28.82 28.184a3.416 3.416 0 0 1-3.516 3.633q-3.282-.236-3.516-3.633a3.432 3.432 0 0 1 3.516-3.574 3.389 3.389 0 0 1 3.516 3.574h0zm13.994-.293a7.071 7.071 0 0 0 5.332-2.402 8.425 8.425 0 0 0 1.992-5.742 9.503 9.503 0 0 0-2.344-6.68 8.245 8.245 0 0 0-6.094-2.344h-.703q-.587.06-.527-.586v-2.812q-.06-.645.527-.527h.352a7.842 7.842 0 0 0 5.742-2.285 8.271 8.271 0 0 0 2.227-5.977q-.352-6.2-6.094-6.562a6.012 6.012 0 0 0-4.16 1.582 7.285 7.285 0 0 0-2.168 4.629q0 .82-.586.703h-3.164q-.703.117-.527-.586a11.646 11.646 0 0 1 3.34-7.441 10.468 10.468 0 0 1 14.766 0 10.92 10.92 0 0 1 3.047 7.676 10.363 10.363 0 0 1-1.992 6.328 11.128 11.128 0 0 1-4.102 3.398q-.47.293.06.645a12.836 12.836 0 0 1 4.512 3.457q2.226 2.52 2.344 7.383a12.754 12.754 0 0 1-3.398 8.613 11.734 11.734 0 0 1-8.437 3.691 11.351 11.351 0 0 1-7.852-3.047 11.946 11.946 0 0 1-3.574-8.496q-.118-.352.527-.47h3.164q.644-.117.645.703.527 6.855 7.148 7.148h0z" fill="#ffcfc2"/><g fill="#fff"><path d="M301.33 42.382H278.9V54.5h15.72a2.561 2.561 0 0 1 2.58 2.58 2.523 2.523 0 0 1-2.58 2.58H278.9v17.82a2.581 2.581 0 0 1-5.16 0V39.862a2.612 2.612 0 0 1 2.64-2.58h24.96a2.425 2.425 0 0 1 2.52 2.52 2.505 2.505 0 0 1-2.52 2.58zM328.4 66.68h-22.2c.84 5.64 4.44 9.24 9.72 9.24a9.005 9.005 0 0 0 7.14-3.12 2.484 2.484 0 0 1 1.86-.96 2.8 2.8 0 0 1 2.7 2.64c0 .72-.18 1.26-1.44 2.52a14.622 14.622 0 0 1-10.26 4.02c-9.66 0-15.06-7.98-15.06-16.98 0-8.94 5.4-16.92 15.06-16.92 9.78 0 15 7.98 15 16.92a2.558 2.558 0 0 1-2.52 2.64zM315.9 52.22c-5.64 0-8.94 4.14-9.72 9.3h19.44c-.84-5.76-4.44-9.3-9.72-9.3zm59.578-.66l-9.3 26.34a2.727 2.727 0 0 1-2.64 2.1c-1.26 0-1.98-.54-2.52-2.1l-7.02-19.8-7.08 19.8a2.598 2.598 0 0 1-5.1 0l-9.24-26.34a2.64 2.64 0 0 1-.12-.96 2.585 2.585 0 0 1 2.64-2.46 2.378 2.378 0 0 1 2.34 1.68l6.96 20.04 7.08-19.62c.48-1.38 1.08-2.1 2.52-2.1 1.32 0 2.04.66 2.52 2.1l7.02 19.62 7.02-20.04a2.359 2.359 0 0 1 2.28-1.68 2.666 2.666 0 0 1 2.76 2.52 2.494 2.494 0 0 1-.12.9z"/><use xlink:href="#P"/><path d="M426.187 52.22a8.644 8.644 0 0 0-8.52 8.58v16.62a2.501 2.501 0 0 1-2.64 2.58 2.456 2.456 0 0 1-2.52-2.52V50.72a2.541 2.541 0 0 1 2.52-2.58 2.463 2.463 0 0 1 2.58 2.04 13.874 13.874 0 0 1 8.58-3.06 2.552 2.552 0 1 1 0 5.1zm29.52 28.86a15.03 15.03 0 0 1-15.06-15.06V39.8a2.581 2.581 0 0 1 5.16 0v26.22a9.929 9.929 0 1 0 19.859 0V39.86a2.55 2.55 0 0 1 5.1-.06v26.22a15.031 15.031 0 0 1-15.06 15.06zm34.86-.06c-4.38 0-10.5-1.8-13.92-4.98a2.4 2.4 0 0 1-.84-1.86 2.599 2.599 0 0 1 2.58-2.58c.9 0 1.2.3 2.28 1.14a16.242 16.242 0 0 0 9.899 3.18c7.14 0 10.26-2.58 10.26-7.02 0-12.48-23.94-5.4-23.94-21.72 0-7.32 6.18-10.98 14.1-10.98 4.14 0 10.08 1.62 13.02 5.1a2.365 2.365 0 0 1 .66 1.62 2.795 2.795 0 0 1-2.58 2.7c-.9 0-1.38-.42-2.4-1.32a13.181 13.181 0 0 0-8.7-2.94c-6.48 0-8.94 2.58-8.94 5.82 0 11.22 23.94 4.56 23.94 21.72 0 8.94-7.5 12.12-15.42 12.12zm74.458-40.558l-9.9 37.438a2.277 2.277 0 0 1-2.46 2.1 2.543 2.543 0 0 1-2.58-2.1l-8.1-28.74-8.04 28.74a2.483 2.483 0 0 1-2.52 2.1 2.404 2.404 0 0 1-2.52-2.1l-9.9-37.438a3.559 3.559 0 0 1-.12-.84 2.504 2.504 0 0 1 2.7-2.34 2.451 2.451 0 0 1 2.4 1.86l7.56 28.62 7.92-28.38a2.598 2.598 0 0 1 5.1 0l7.92 28.38 7.56-28.62a2.67 2.67 0 0 1 2.46-1.98 2.547 2.547 0 0 1 2.64 2.46 3.559 3.559 0 0 1-.12.84z"/><use xlink:href="#Q"/><path d="M638.763 80a2.457 2.457 0 0 1-2.52-2.52v-18.9a6.33 6.33 0 1 0-12.659-.06v18.9a2.454 2.454 0 0 1-2.58 2.58 2.424 2.424 0 0 1-2.52-2.52v-18.9a6.36 6.36 0 0 0-12.719-.06v18.9a2.501 2.501 0 0 1-2.64 2.58 2.456 2.456 0 0 1-2.52-2.52V50.66a2.632 2.632 0 0 1 4.8-1.44 11.56 11.56 0 0 1 6.66-2.1 11.359 11.359 0 0 1 8.939 4.26 11.24 11.24 0 0 1 8.88-4.26 11.459 11.459 0 0 1 11.52 11.4v18.9a2.501 2.501 0 0 1-2.64 2.58z"/><use xlink:href="#P" x="268.435"/><path d="M705.723 80a2.424 2.424 0 0 1-2.52-2.52V60.8a8.55 8.55 0 1 0-17.099 0v16.62a2.551 2.551 0 0 1-2.64 2.64 2.472 2.472 0 0 1-2.52-2.58V50.66a2.387 2.387 0 0 1 2.52-2.52 2.509 2.509 0 0 1 2.58 1.98 13.703 13.703 0 0 1 22.259 10.68v16.62a2.454 2.454 0 0 1-2.58 2.58zm50.64 0a2.457 2.457 0 0 1-2.28-1.56l-3.18-7.8h-19.98l-3.24 7.8a2.44 2.44 0 0 1-2.22 1.56 2.651 2.651 0 0 1-2.7-2.52 1.976 1.976 0 0 1 .24-1.02l15.42-37.498a2.621 2.621 0 0 1 2.46-1.86 2.725 2.725 0 0 1 2.46 1.86l15.48 37.498a2.812 2.812 0 0 1 .18 1.02 2.561 2.561 0 0 1-2.64 2.52zm-15.48-33.6l-7.86 19.08h15.72zm36.24 5.82a8.644 8.644 0 0 0-8.519 8.58v16.62a2.501 2.501 0 0 1-2.64 2.58 2.456 2.456 0 0 1-2.52-2.52V50.72a2.541 2.541 0 0 1 2.52-2.58 2.463 2.463 0 0 1 2.58 2.04 13.874 13.874 0 0 1 8.58-3.06 2.552 2.552 0 1 1 0 5.1zM806.2 66.68H784c.84 5.64 4.44 9.24 9.72 9.24a9.005 9.005 0 0 0 7.14-3.12 2.484 2.484 0 0 1 1.86-.96 2.8 2.8 0 0 1 2.7 2.64c0 .72-.18 1.26-1.44 2.52a14.622 14.622 0 0 1-10.26 4.02c-9.66 0-15.06-7.98-15.06-16.98 0-8.94 5.4-16.92 15.06-16.92 9.78 0 15 7.98 15 16.92a2.558 2.558 0 0 1-2.52 2.64zm-12.48-14.46c-5.64 0-8.94 4.14-9.72 9.3h19.44c-.84-5.76-4.44-9.3-9.72-9.3zM268.48 141.2h-12.42a2.73 2.73 0 0 1-2.64-2.52v-37.618a2.693 2.693 0 0 1 2.64-2.58h12.42c12.36 0 16.44 10.2 16.44 21.3 0 11.16-4.08 21.42-16.44 21.42zm0-37.62h-9.9v32.52h9.9c7.74 0 11.28-5.7 11.28-16.32 0-10.44-3.54-16.2-11.28-16.2zm48.12 9.362l-16.2 36.838a6.876 6.876 0 0 1-6.6 4.02h-1.92a2.42 2.42 0 0 1-2.52-2.64 2.387 2.387 0 0 1 2.52-2.52h1.86a1.894 1.894 0 0 0 1.98-.96l3.96-8.88-11.7-25.86a2.168 2.168 0 0 1-.3-1.14 2.705 2.705 0 0 1 2.76-2.52 2.31 2.31 0 0 1 2.16 1.56l9.78 21.72 9.54-21.72a2.375 2.375 0 0 1 2.22-1.5 2.659 2.659 0 0 1 2.76 2.46 2.039 2.039 0 0 1-.3 1.14zm6.84-8.46a4.32 4.32 0 1 1 4.32-4.319 4.302 4.302 0 0 1-4.32 4.319zm0 36.72a2.52 2.52 0 0 1-2.64-2.52v-26.76a2.534 2.534 0 0 1 2.64-2.58 2.472 2.472 0 0 1 2.52 2.58v26.76a2.421 2.421 0 0 1-2.52 2.52zm33.06-.002a2.424 2.424 0 0 1-2.52-2.52V122a8.55 8.55 0 1 0-17.099 0v16.62a2.551 2.551 0 0 1-2.64 2.64 2.472 2.472 0 0 1-2.52-2.58v-26.82a2.387 2.387 0 0 1 2.52-2.52 2.509 2.509 0 0 1 2.58 1.98A13.703 13.703 0 0 1 359.08 122v16.62a2.454 2.454 0 0 1-2.58 2.58zm22.44 13.68c-3.66 0-12.72-1.32-12.72-4.92a2.794 2.794 0 0 1 2.58-2.7c1.38 0 .18.18 3.36 1.38a18.748 18.748 0 0 0 6.78 1.14c6.66 0 9.9-3.18 9.9-9.48v-2.7a14.039 14.039 0 0 1-9.9 3.6c-9.48 0-15.06-6.72-15.06-15.96 0-9 5.4-16.92 15.06-16.92 4.2 0 7.44 1.26 9.9 3.84v-.24a2.553 2.553 0 0 1 2.58-2.58 2.519 2.519 0 0 1 2.58 2.58v28.38c0 9.54-5.7 14.58-15.06 14.58zm0-41.458c-6 0-9.9 4.68-9.9 11.82 0 6.84 3.6 10.86 9.9 10.86s9.9-4.02 9.9-10.86c0-7.14-3.84-11.82-9.9-11.82z"/><use xlink:href="#Q" x="-152.907" y="61.2"/><path d="M456.277 114.442h-2.7v24.18a2.453 2.453 0 0 1-2.64 2.52 2.421 2.421 0 0 1-2.52-2.52v-24.18h-2.46a2.55 2.55 0 0 1 0-5.1h2.46v-4.08a6.836 6.836 0 0 1 6.899-6.78 2.551 2.551 0 1 1 0 5.1 1.681 1.681 0 0 0-1.74 1.62v4.14h2.7a2.552 2.552 0 1 1 0 5.1zm37.92 26.758h-16.14a2.73 2.73 0 0 1-2.64-2.52v-37.618a2.511 2.511 0 0 1 2.52-2.58h14.88a11.255 11.255 0 0 1 11.22 11.1 10.801 10.801 0 0 1-3.42 7.979 12.411 12.411 0 0 1 6.3 10.919 12.804 12.804 0 0 1-12.72 12.72zm-1.38-37.62h-12.24v12.12h12.24a6.06 6.06 0 1 0 0-12.12zm1.38 17.22h-13.62v15.3h13.62a7.65 7.65 0 0 0 0-15.3zm30.72-7.378a8.644 8.644 0 0 0-8.52 8.58v16.62a2.501 2.501 0 0 1-2.64 2.58 2.456 2.456 0 0 1-2.52-2.52v-26.76a2.541 2.541 0 0 1 2.52-2.58 2.463 2.463 0 0 1 2.58 2.04 13.875 13.875 0 0 1 8.58-3.06 2.552 2.552 0 1 1 0 5.1z"/><use xlink:href="#P" x="148.695" y="61.2"/><use xlink:href="#R"/><path d="M607.163 142.22c-3.3 0-8.82-1.02-11.64-4.5a2.655 2.655 0 0 1 2.16-4.26 2.464 2.464 0 0 1 1.86 1.02c1.86 2.04 4.92 2.64 7.62 2.64 5.4 0 7.14-1.86 7.14-4.56 0-7.68-18.3-2.94-18.3-15.3 0-6.54 6.12-8.94 11.82-8.94 3.24 0 10.86 1.62 10.86 4.98a2.694 2.694 0 0 1-2.52 2.7 3.612 3.612 0 0 1-1.98-.78c-1.62-1.38-3.96-1.8-6.36-1.8-4.98 0-6.72 1.86-6.72 3.84 0 7.14 18.36 2.52 18.36 15.3 0 7.08-5.94 9.66-12.3 9.66zm26.82-1.02h-1.02c-5.7 0-7.86-3-7.86-7.92v-18.84h-1.8a2.55 2.55 0 0 1-.06-5.1h1.8V101a2.436 2.436 0 0 1 2.58-2.52 2.389 2.389 0 0 1 2.52 2.52v8.34h3.84a2.488 2.488 0 0 1 2.52 2.52 2.441 2.441 0 0 1-2.52 2.58h-3.84v19.38c0 1.68.6 2.28 2.28 2.28h1.5a2.475 2.475 0 0 1 2.58 2.52 2.441 2.441 0 0 1-2.52 2.58zm48.837-5.52c-2.94 4.08-7.14 6.54-13.38 6.54-12.9 0-17.46-10.68-17.46-22.38 0-11.76 4.56-22.44 17.46-22.44 6.06 0 10.5 2.4 13.32 6.54a2.31 2.31 0 0 1 .54 1.5 2.6 2.6 0 0 1-2.64 2.52 2.51 2.51 0 0 1-2.04-1.08c-1.86-2.7-4.62-4.32-9.18-4.32-8.52 0-12.3 6.3-12.3 17.28s3.78 17.28 12.3 17.28c4.56 0 7.32-1.74 9.18-4.38a2.425 2.425 0 0 1 2.04-1.14 2.525 2.525 0 0 1 2.16 4.08z"/><use xlink:href="#R" x="125.457"/><path d="M747.38 141.2a2.424 2.424 0 0 1-2.52-2.52V122a8.55 8.55 0 1 0-17.099 0v16.62a2.55 2.55 0 0 1-2.64 2.64 2.472 2.472 0 0 1-2.52-2.58v-26.82a2.387 2.387 0 0 1 2.52-2.52 2.509 2.509 0 0 1 2.58 1.98A13.703 13.703 0 0 1 749.96 122v16.62a2.454 2.454 0 0 1-2.58 2.58zm31.98-3.54a13.936 13.936 0 0 1-10.74 4.56c-9.66 0-15.06-7.92-15.06-16.98 0-9 5.4-16.92 15.06-16.92a13.936 13.936 0 0 1 10.74 4.56 2.615 2.615 0 0 1 .72 1.74 2.794 2.794 0 0 1-2.7 2.58 2.84 2.84 0 0 1-1.86-.84 8.814 8.814 0 0 0-6.9-2.94c-6 0-9.9 4.68-9.9 11.82 0 7.2 3.9 11.88 9.9 11.88a8.923 8.923 0 0 0 6.9-2.939 2.396 2.396 0 0 1 1.86-.9 2.59 2.59 0 0 1 1.98 4.38z"/><use xlink:href="#P" x="404.412" y="61.2"/><path d="M829.398 113.422a8.644 8.644 0 0 0-8.52 8.58v16.62a2.501 2.501 0 0 1-2.64 2.58 2.456 2.456 0 0 1-2.52-2.52v-26.76a2.541 2.541 0 0 1 2.52-2.58 2.463 2.463 0 0 1 2.58 2.04 13.874 13.874 0 0 1 8.58-3.06 2.552 2.552 0 1 1 0 5.1z"/></g><g opacity=".7" fill="#fff"><path d="M359.063 189.27h-8.435a1.151 1.151 0 0 1-1.103-1.063v-24.925a1.122 1.122 0 0 1 1.103-1.063h8.435c7.827 0 10.4 6.535 10.4 13.487 0 7.067-2.583 13.564-10.4 13.564zm0-24.924h-7.37v22.758h7.37c6.497 0 8.245-5.623 8.245-11.36 0-6.763-2.356-11.397-8.245-11.397zm31.537 15.92h-15.768c.342 4.332 3.153 7.485 7.295 7.485a6.866 6.866 0 0 0 5.585-2.622.997.997 0 0 1 .912-.531 1.161 1.161 0 0 1 1.178 1.025c0 .342 0 .418-.722 1.254a8.969 8.969 0 0 1-6.953 3.039c-6.117 0-9.536-5.015-9.536-10.752 0-5.7 3.42-10.715 9.536-10.715s9.537 5.054 9.537 10.715a1.15 1.15 0 0 1-1.065 1.102zm-8.473-9.65c-4.56 0-6.953 3.495-7.295 7.485h14.628c-.342-4.332-3.153-7.485-7.333-7.485zm33.136 18.654h-.038a3.933 3.933 0 0 1-3.762-2.964 8.619 8.619 0 0 1-7.371 3.609c-6.193 0-9.536-5.1-9.536-10.752 0-5.737 3.42-10.715 9.536-10.715a8.686 8.686 0 0 1 7.371 3.572v-1.862a1.071 1.071 0 0 1 1.102-1.063 1.037 1.037 0 0 1 1.064 1.063v15.312c0 2.432 2.735.912 2.735 2.736a1.045 1.045 0 0 1-1.102 1.064zm-11.17-18.655c-4.483 0-7.37 3.6-7.37 8.55s2.888 8.587 7.37 8.587c4.52 0 7.37-3.647 7.37-8.587s-2.85-8.55-7.37-8.55zm21.925 18.655h-1.178c-3 0-4.483-1.48-4.483-4.445V171.26h-1.937a1.083 1.083 0 0 1 0-2.165h1.938v-5.813a1.068 1.068 0 0 1 1.103-1.063 1.037 1.037 0 0 1 1.063 1.063v5.813h3.495a1.083 1.083 0 0 1 0 2.165h-3.495v13.565c0 1.86.532 2.28 2.317 2.28h1.178a1.083 1.083 0 0 1 0 2.166zm20.024 0a1.068 1.068 0 0 1-1.102-1.063v-11.095a6.497 6.497 0 0 0-12.994 0v11.095a1.083 1.083 0 0 1-2.166 0v-24.925a1.083 1.083 0 0 1 2.166 0v8.093a8.44 8.44 0 0 1 6.497-2.926 8.734 8.734 0 0 1 8.663 8.663v11.095a1.059 1.059 0 0 1-1.064 1.063zm11.706.723c-2.28 0-6.117-.798-7.447-3a.922.922 0 0 1-.151-.57 1.036 1.036 0 0 1 1.938-.607c1.367 1.67 3.8 2.014 5.66 2.014 3.686 0 5.547-1.216 5.547-3.686 0-5.737-12.462-2.698-12.462-10.297 0-3.837 3.837-5.32 7.295-5.32 1.976 0 5.015.685 6.535 2.204a1.064 1.064 0 0 1 .342.722 1.232 1.232 0 0 1-1.178 1.14 1.006 1.006 0 0 1-.722-.304 7.598 7.598 0 0 0-4.978-1.596c-3.344 0-5.13 1.292-5.13 3.153 0 5.32 12.462 2.508 12.462 10.297 0 4.33-3.8 5.85-7.713 5.85z"/><use xlink:href="#S"/><path d="M517.215 180.266h-15.768c.342 4.332 3.153 7.485 7.295 7.485a6.866 6.866 0 0 0 5.585-2.622.997.997 0 0 1 .912-.531 1.161 1.161 0 0 1 1.178 1.025c0 .342 0 .418-.722 1.254a8.969 8.969 0 0 1-6.953 3.039c-6.117 0-9.536-5.015-9.536-10.752 0-5.7 3.42-10.715 9.536-10.715s9.537 5.054 9.537 10.715a1.15 1.15 0 0 1-1.064 1.102zm-8.473-9.65c-4.56 0-6.953 3.495-7.295 7.485h14.628c-.342-4.332-3.153-7.485-7.333-7.485zm21.965.342a6.494 6.494 0 0 0-6.497 6.497v10.753a1.083 1.083 0 0 1-2.166 0V170.16a1.083 1.083 0 0 1 2.166 0v1.558a8.676 8.676 0 0 1 6.497-2.925 1.083 1.083 0 1 1 0 2.165zm16.567 18.312a1.038 1.038 0 0 1-1.063-1.063v-22.72l-4.142 4.027a.936.936 0 0 1-.722.342 1.203 1.203 0 0 1-1.14-1.178 1.258 1.258 0 0 1 .342-.722l6.003-5.813a1.437 1.437 0 0 1 .722-.304c.798 0 1.103.57 1.103 1.33v25.04a1.028 1.028 0 0 1-1.103 1.063z"/><use xlink:href="#T"/><use xlink:href="#T" x="19.607"/><path d="M606.437 170.958l-6.534 6.535 6.46 10.106a1.083 1.083 0 0 1 .228.608 1.155 1.155 0 0 1-1.14 1.025 1.077 1.077 0 0 1-.912-.494l-6.23-9.688-3.913 3.95v5.206a1.083 1.083 0 0 1-2.166 0v-24.925a1.083 1.083 0 0 1 2.166 0v16.642l10.486-10.486a1.068 1.068 0 0 1 .798-.342 1.096 1.096 0 0 1 1.103 1.063 1.064 1.064 0 0 1-.343.798z"/><use xlink:href="#S" x="141.013"/><path d="M658.23 180.266h-15.768c.342 4.332 3.153 7.485 7.295 7.485a6.866 6.866 0 0 0 5.585-2.622.997.997 0 0 1 .912-.531 1.161 1.161 0 0 1 1.178 1.025c0 .342 0 .418-.722 1.254a8.969 8.969 0 0 1-6.953 3.039c-6.117 0-9.536-5.015-9.536-10.752 0-5.7 3.42-10.715 9.536-10.715s9.537 5.054 9.537 10.715a1.15 1.15 0 0 1-1.064 1.102zm-8.473-9.65c-4.56 0-6.953 3.495-7.295 7.485H657.1c-.342-4.332-3.153-7.485-7.333-7.485zm21.963 19.3c-6.117 0-9.536-5.015-9.536-10.752 0-5.7 3.42-10.715 9.536-10.715s9.537 5.016 9.537 10.715c0 5.737-3.42 10.752-9.537 10.752zm0-19.3c-4.483 0-7.37 3.6-7.37 8.55s2.888 8.587 7.37 8.587c4.52 0 7.37-3.647 7.37-8.587s-2.85-8.55-7.37-8.55z"/><use xlink:href="#S" x="207.778"/><path d="M711.62 189.5a3.982 3.982 0 0 1-3.762-4.027v-22.188a1.083 1.083 0 0 1 2.166 0v22.188c0 2.432 2.697 1.026 2.697 2.736a1.224 1.224 0 0 1-1.102 1.291zm20.936-9.234H716.8c.342 4.332 3.153 7.485 7.295 7.485a6.866 6.866 0 0 0 5.585-2.622.997.997 0 0 1 .912-.531 1.161 1.161 0 0 1 1.178 1.025c0 .342 0 .418-.722 1.254a8.969 8.969 0 0 1-6.953 3.039c-6.117 0-9.536-5.015-9.536-10.752 0-5.7 3.42-10.715 9.536-10.715s9.537 5.054 9.537 10.715a1.15 1.15 0 0 1-1.064 1.102zm-8.473-9.65c-4.56 0-6.953 3.495-7.295 7.485h14.628c-.342-4.332-3.153-7.485-7.333-7.485z"/></g></svg>