<svg xmlns="http://www.w3.org/2000/svg" xmlns:xlink="http://www.w3.org/1999/xlink" viewBox="0 0 1080 1080"><defs><linearGradient id="A" x1="11.716" y1="11.716" x2="1068.284" y2="1068.284" gradientUnits="userSpaceOnUse"><stop offset="0" stop-color="#38659d"/><stop offset=".178" stop-color="#33779a"/><stop offset=".512" stop-color="#2a9694"/><stop offset=".534" stop-color="#2f9b94"/><stop offset=".739" stop-color="#57c093"/><stop offset=".901" stop-color="#70d793"/><stop offset="1" stop-color="#79e093"/></linearGradient><linearGradient id="B" x1="33.956" y1="474.934" x2="1045.936" y2="474.934" gradientUnits="userSpaceOnUse"><stop offset="0" stop-color="#00b0a1"/><stop offset=".278" stop-color="#29c6a1"/><stop offset=".595" stop-color="#51dca2"/><stop offset=".847" stop-color="#6aeaa2"/><stop offset="1" stop-color="#73efa2"/></linearGradient><linearGradient id="C" x1="33.956" y1="891.183" x2="1045.936" y2="891.183" gradientUnits="userSpaceOnUse"><stop offset="0" stop-color="#ad5389"/><stop offset=".268" stop-color="#863c76"/><stop offset=".59" stop-color="#5e2463"/><stop offset=".845" stop-color="#451557"/><stop offset="1" stop-color="#3c1053"/></linearGradient><path id="D" d="M104.714 1045.51a1.36 1.36 0 0 1-1.4-1.101 7.763 7.763 0 0 1-4.804 1.668 7.666 7.666 0 0 1-7.604-7.605v-9.24a1.434 1.434 0 0 1 2.868-.033v9.272a4.753 4.753 0 1 0 9.507 0v-9.24a1.33 1.33 0 0 1 1.4-1.468 1.364 1.364 0 0 1 1.435 1.435v14.9a1.328 1.328 0 0 1-1.401 1.4z"/><path id="E" d="M777.7 1046.358c-1.2 0-3.22-.42-3.92-1.58a.482.482 0 0 1-.08-.3.546.546 0 0 1 1.021-.32 3.812 3.812 0 0 0 2.98 1.061c1.94 0 2.92-.64 2.92-1.94 0-3.02-6.562-1.42-6.562-5.422 0-2.02 2.02-2.8 3.84-2.8a5.415 5.415 0 0 1 3.44 1.16.558.558 0 0 1 .18.38.648.648 0 0 1-.62.6.531.531 0 0 1-.38-.16 4.001 4.001 0 0 0-2.62-.84c-1.76 0-2.7.68-2.7 1.66 0 2.8 6.562 1.32 6.562 5.422 0 2.28-2 3.08-4.06 3.08z"/><path id="F" d="M788.422 1046.318c-3.22 0-5.02-2.64-5.02-5.66 0-3 1.8-5.64 5.02-5.64s5.02 2.64 5.02 5.64c0 3.02-1.8 5.66-5.02 5.66zm0-10.162c-2.36 0-3.88 1.9-3.88 4.5s1.52 4.52 3.88 4.52c2.38 0 3.88-1.92 3.88-4.52s-1.5-4.5-3.88-4.5z"/><path id="G" d="M804.202 1045.978a.562.562 0 0 1-.58-.561v-.64a4.442 4.442 0 0 1-3.421 1.54 4.61 4.61 0 0 1-4.561-4.561v-5.842a.57.57 0 0 1 1.14 0v5.842a3.421 3.421 0 1 0 6.842 0v-5.842a.57.57 0 0 1 1.141 0v9.502a.558.558 0 0 1-.561.561z"/><path id="H" d="M812.16 1036.337a3.418 3.418 0 0 0-3.421 3.42v5.66a.57.57 0 0 1-1.141 0v-9.502a.57.57 0 0 1 1.141 0v.82a4.565 4.565 0 0 1 3.421-1.54.57.57 0 1 1 0 1.141z"/><path id="I" d="M912.06 1045.978h-.62a2.075 2.075 0 0 1-2.36-2.341v-7.142h-1.02a.57.57 0 0 1 0-1.14h1.02v-3.06a.562.562 0 0 1 .58-.561.546.546 0 0 1 .56.561v3.06h1.84a.57.57 0 0 1 0 1.14h-1.84v7.142c0 .98.28 1.2 1.22 1.2h.62a.57.57 0 0 1 0 1.141z"/><path id="J" d="M924.88 1045.978h-.02a2.072 2.072 0 0 1-1.98-1.561 4.536 4.536 0 0 1-3.88 1.9c-3.26 0-5.02-2.68-5.02-5.66 0-3.02 1.8-5.64 5.02-5.64a4.571 4.571 0 0 1 3.88 1.88v-.98a.564.564 0 0 1 .581-.56.546.546 0 0 1 .56.56v8.063c0 1.28 1.44.48 1.44 1.44a.55.55 0 0 1-.58.561zm-5.88-9.822c-2.36 0-3.88 1.9-3.88 4.5s1.52 4.52 3.88 4.52c2.38 0 3.88-1.92 3.88-4.52s-1.5-4.5-3.88-4.5z"/><path id="K" d="M131.74 81.02c-9.66 0-15.06-7.92-15.06-16.98 0-9 5.4-16.92 15.06-16.92s15.06 7.92 15.06 16.92c0 9.06-5.4 16.98-15.06 16.98zm0-28.8c-6 0-9.9 4.68-9.9 11.82 0 7.2 3.9 11.88 9.9 11.88 6.06 0 9.9-4.68 9.9-11.88 0-7.14-3.84-11.82-9.9-11.82z"/><path id="L" d="M237.637 81.02c-3.3 0-8.82-1.02-11.64-4.5a2.655 2.655 0 0 1 2.16-4.26 2.465 2.465 0 0 1 1.86 1.02c1.86 2.04 4.92 2.64 7.62 2.64 5.4 0 7.14-1.86 7.14-4.56 0-7.68-18.3-2.94-18.3-15.3 0-6.54 6.12-8.94 11.82-8.94 3.24 0 10.86 1.62 10.86 4.98a2.694 2.694 0 0 1-2.52 2.699 3.618 3.618 0 0 1-1.98-.779c-1.62-1.38-3.96-1.8-6.36-1.8-4.98 0-6.72 1.86-6.72 3.84 0 7.14 18.36 2.52 18.36 15.3 0 7.08-5.94 9.66-12.3 9.66z"/><path id="M" d="M693.563 43.28a4.32 4.32 0 1 1 4.319-4.319 4.302 4.302 0 0 1-4.319 4.319zm0 36.72a2.519 2.519 0 0 1-2.64-2.52V50.72a2.533 2.533 0 0 1 2.64-2.58 2.471 2.471 0 0 1 2.52 2.58v26.76a2.42 2.42 0 0 1-2.52 2.52z"/><path id="N" d="M117.46 104.48a4.32 4.32 0 1 1 4.319-4.319 4.302 4.302 0 0 1-4.319 4.319zm0 36.72a2.52 2.52 0 0 1-2.641-2.52v-26.76a2.533 2.533 0 0 1 2.641-2.58 2.471 2.471 0 0 1 2.52 2.58v26.76a2.42 2.42 0 0 1-2.52 2.52z"/><path id="O" d="M135.76 142.22c-3.3 0-8.82-1.02-11.64-4.5a2.655 2.655 0 0 1 2.159-4.26 2.462 2.462 0 0 1 1.86 1.02c1.86 2.04 4.92 2.64 7.62 2.64 5.4 0 7.14-1.86 7.14-4.56 0-7.68-18.3-2.94-18.3-15.3 0-6.54 6.12-8.94 11.82-8.94 3.24 0 10.86 1.62 10.86 4.98a2.694 2.694 0 0 1-2.52 2.699 3.612 3.612 0 0 1-1.98-.779c-1.62-1.38-3.96-1.8-6.36-1.8-4.98 0-6.72 1.86-6.72 3.84 0 7.14 18.36 2.52 18.36 15.3 0 7.08-5.94 9.66-12.3 9.66z"/><path id="P" d="M456.798 141.32a6.122 6.122 0 0 1-6-6.12v-34.138a2.58 2.58 0 0 1 5.16-.061V135.2a.947.947 0 0 0 .84 1.021 2.55 2.55 0 1 1 0 5.1z"/><path id="Q" d="M783.155 852.967h-10.36c.393 2.63 2.072 4.31 4.536 4.31a4.201 4.201 0 0 0 3.332-1.455 1.161 1.161 0 0 1 .868-.447 1.305 1.305 0 0 1 1.26 1.23c0 .336-.084.588-.672 1.176a6.822 6.822 0 0 1-4.788 1.877c-4.508 0-7.027-3.725-7.027-7.924 0-4.172 2.52-7.896 7.027-7.896 4.564 0 7 3.725 7 7.896a1.194 1.194 0 0 1-1.176 1.232zm-5.824-6.748c-2.632 0-4.172 1.932-4.536 4.34h9.072c-.392-2.687-2.072-4.34-4.536-4.34z"/><path id="R" d="M810.847 842.048a2.017 2.017 0 1 1 2.016-2.018 2.008 2.008 0 0 1-2.016 2.018zm0 17.135a1.176 1.176 0 0 1-1.232-1.176v-12.488a1.182 1.182 0 0 1 1.232-1.203 1.153 1.153 0 0 1 1.176 1.203v12.488a1.129 1.129 0 0 1-1.176 1.176z"/><path id="S" d="M833.526 859.66c-1.54 0-4.115-.477-5.432-2.1a1.239 1.239 0 0 1 1.008-1.988 1.15 1.15 0 0 1 .868.477 4.787 4.787 0 0 0 3.556 1.23c2.52 0 3.332-.867 3.332-2.127 0-3.584-8.54-1.373-8.54-7.14 0-3.05 2.856-4.172 5.517-4.172 1.512 0 5.067.756 5.067 2.324a1.257 1.257 0 0 1-1.176 1.26 1.695 1.695 0 0 1-.924-.363 4.535 4.535 0 0 0-2.968-.84c-2.324 0-3.137.867-3.137 1.79 0 3.332 8.568 1.176 8.568 7.14 0 3.305-2.77 4.508-5.74 4.508z"/><path id="T" d="M854.526 859.66c-4.508 0-7.027-3.695-7.027-7.924 0-4.2 2.52-7.896 7.027-7.896s7.028 3.695 7.028 7.896c0 4.23-2.52 7.924-7.028 7.924zm0-13.44c-2.8 0-4.62 2.184-4.62 5.516 0 3.36 1.82 5.543 4.62 5.543 2.828 0 4.62-2.184 4.62-5.543 0-3.332-1.792-5.516-4.62-5.516z"/><path id="U" d="M876.17 859.182a1.131 1.131 0 0 1-1.177-1.176v-7.783a3.99 3.99 0 1 0-7.979 0v7.756a1.191 1.191 0 0 1-1.232 1.232 1.154 1.154 0 0 1-1.176-1.205V845.49a1.113 1.113 0 0 1 1.176-1.176 1.171 1.171 0 0 1 1.204.924 6.395 6.395 0 0 1 10.389 4.984v7.756a1.145 1.145 0 0 1-1.204 1.203z"/><path id="V" d="M907.445 859.66a6.129 6.129 0 0 1-4.62-1.848v6.076a1.167 1.167 0 0 1-1.232 1.203 1.153 1.153 0 0 1-1.176-1.203v-18.37a1.153 1.153 0 0 1 1.176-1.203 1.167 1.167 0 0 1 1.232 1.203 6.724 6.724 0 0 1 4.62-1.707c4.508 0 7.027 3.695 7.027 7.896 0 4.256-2.52 7.95-7.027 7.95zm0-13.47c-2.772 0-4.62 2.213-4.62 5.518 0 3.36 1.82 5.57 4.62 5.57s4.62-2.184 4.62-5.543c0-3.332-1.82-5.545-4.62-5.545z"/><path id="W" d="M34.348 869.183v-1.92h2.815v-18.56l-2.88.256v-1.408a8.859 8.859 0 0 0 3.648-1.791h1.535v21.502h2.688v1.92z"/><path id="X" d="M46.25 864.895c.32 2.305 1.6 2.688 2.496 2.688 2.048 0 3.327-2.816 3.392-9.248a5.018 5.018 0 0 1-3.552 1.761c-2.592 0-4.96-1.856-4.96-7.104 0-4.48 1.92-7.23 4.96-7.23 4 0 5.92 2.304 5.92 10.623 0 9.28-2.176 13.12-5.823 13.12-2.976 0-4.096-1.792-4.544-4.48zm5.95-10.88c0-4.672-1.216-6.336-3.264-6.336-1.792 0-3.008 1.345-3.008 5.344 0 4.128 1.408 5.152 2.88 5.152a4.383 4.383 0 0 0 3.392-1.984z"/><path id="Y" d="M74.922 869.504c-3.775 0-5.567-3.52-5.567-11.87s1.792-11.87 5.567-11.87 5.567 3.52 5.567 11.87-1.79 11.87-5.567 11.87zm0-21.823c-2.11 0-3.264 2.368-3.264 9.952s1.152 9.95 3.264 9.95 3.264-2.368 3.264-9.95-1.15-9.952-3.264-9.952z"/></defs><rect width="1080" height="1080" rx="40" fill="url(#A)"/><path d="M33.956 827.73s18.675-17.07 37.48-17.07c18.677 0 18.677-42.92 37.483-42.92 18.677 0 18.677 46.15 37.48 46.15 18.68 0 18.68-29.536 37.474-29.536 18.688 0 18.688-81.693 37.483-81.693 18.688 0 18.688-12.446 37.48-12.446 18.69 0 18.69 33.686 37.48 33.686 18.69 0 18.69-19.846 37.483-19.846 9.375 0 28.1 1.38 37.474 1.38 18.7 0 18.7 41.062 37.483 41.062 18.7 0 18.7-5.98 37.48-5.98 18.702 0 18.702-49.842 37.48-49.842 18.704 0 18.704-129.674 37.483-129.674 18.704 0 18.704-112.604 37.474-112.604 18.713 0 18.713-38.77 37.48-38.77 18.715 0 18.715-58.592 37.483-58.592 18.715 0 18.715-146.3 37.48-146.3 18.716 0 18.716-82.608 37.476-82.608 18.724 0 18.724 124.15 37.48 124.15 18.725 0 18.725 7.38 37.48 7.38 18.727 0 18.727-83.068 37.483-83.068 18.727 0 18.727 64.142 37.48 64.142 18.73 0 18.73-44.757 37.474-44.757 18.738 0 18.738-37.39 37.483-37.39 18.738 0 18.738 135.22 37.48 135.22s18.74-6.465 37.48-6.465 18.742-48.462 37.483-48.462V827.73z" fill="url(#B)"/><path d="M33.956 827.73s18.675 7.84 37.48 7.84c18.677 0 18.677 15.235 37.483 15.235 18.677 0 18.677 7.835 37.48 7.835 18.68 0 18.68 3.7 37.474 3.7 18.688 0 18.688-3.7 37.483-3.7 18.688 0 18.688-7.835 37.48-7.835 18.69 0 18.69 7.835 37.48 7.835 18.69 0 18.69 3.7 37.483 3.7 18.69 0 18.69 11.55 37.474 11.55h37.483c18.7 0 18.7-3.7 37.48-3.7 18.702 0 18.702 3.7 37.48 3.7 18.704 0 18.704-7.86 37.483-7.86 18.704 0 18.704 4.17 37.474 4.17 18.713 0 18.713 3.7 37.48 3.7h37.483c18.715 0 18.715 7.836 37.48 7.836 18.716 0 18.716 7.38 37.476 7.38 18.724 0 18.724 30.93 37.48 30.93 18.725 0 18.725-7.855 37.48-7.855 18.727 0 18.727 11.545 37.483 11.545 18.727 0 18.727 7.84 37.48 7.84 18.73 0 18.73 7.835 37.474 7.835 18.738 0 18.738 15.24 37.483 15.24 18.738 0 18.738-3.7 37.48-3.7s18.74 3.7 37.48 3.7 18.742-3.7 37.483-3.7V827.73z" fill="url(#C)"/><g opacity=".4" fill="#fff"><path d="M42.328 1046.045a7.892 7.892 0 0 1-5.503-2.002 1.364 1.364 0 0 1-1.468 1.401 1.346 1.346 0 0 1-1.401-1.401v-20.88a1.435 1.435 0 0 1 2.869-.033v6.238a7.4 7.4 0 0 1 5.503-2.169c5.37 0 8.373 4.403 8.373 9.406 0 5.037-3.002 9.44-8.373 9.44zm0-16c-3.335 0-5.503 2.602-5.503 6.57 0 4.003 2.168 6.604 5.503 6.604s5.504-2.602 5.504-6.604c0-3.97-2.168-6.57-5.504-6.57zm25.555 8.037h-12.34c.467 3.136 2.468 5.137 5.403 5.137a5.003 5.003 0 0 0 3.969-1.734 1.383 1.383 0 0 1 1.034-.533 1.556 1.556 0 0 1 1.501 1.468c0 .4-.1.7-.8 1.4a8.129 8.129 0 0 1-5.704 2.235c-5.37 0-8.372-4.437-8.372-9.44 0-4.97 3.002-9.406 8.372-9.406 5.437 0 8.34 4.437 8.34 9.406a1.422 1.422 0 0 1-1.401 1.468zm-6.937-8.038c-3.136 0-4.97 2.3-5.403 5.17H66.35c-.467-3.202-2.468-5.17-5.403-5.17zM88 1045.478a3.247 3.247 0 0 1-2.969-1.901 7.642 7.642 0 0 1-5.87 2.469c-5.437 0-8.372-4.47-8.372-9.44s3.002-9.406 8.372-9.406a7.369 7.369 0 0 1 5.504 2.202v-.134a1.376 1.376 0 0 1 1.4-1.501 1.341 1.341 0 0 1 1.468 1.401v12.875a.54.54 0 0 0 .467.601 1.418 1.418 0 1 1 0 2.835zm-8.84-15.443c-3.336 0-5.504 2.602-5.504 6.57 0 4.003 2.168 6.604 5.504 6.604 3.37 0 5.504-2.602 5.504-6.604 0-3.97-2.135-6.57-5.504-6.57z"/><use xlink:href="#D"/><path d="M115.158 1045.478h-.567c-3.17 0-4.37-1.668-4.37-4.403V1030.6h-1a1.418 1.418 0 1 1-.033-2.835h1v-4.637a1.355 1.355 0 0 1 1.435-1.4 1.328 1.328 0 0 1 1.401 1.4v4.637h2.135a1.383 1.383 0 0 1 1.4 1.401 1.356 1.356 0 0 1-1.4 1.434h-2.135v10.774c0 .934.333 1.268 1.268 1.268h.833a1.376 1.376 0 0 1 1.435 1.4 1.357 1.357 0 0 1-1.4 1.435zm4.604-20.415a2.401 2.401 0 1 1 2.402-2.401 2.392 2.392 0 0 1-2.402 2.401zm0 20.414a1.4 1.4 0 0 1-1.467-1.401V1029.2a1.408 1.408 0 0 1 1.467-1.435 1.374 1.374 0 0 1 1.401 1.435v14.876a1.346 1.346 0 0 1-1.401 1.401zm10.376-14.877h-1.5v13.442a1.364 1.364 0 0 1-1.468 1.401 1.346 1.346 0 0 1-1.401-1.401V1030.6h-1.37a1.418 1.418 0 0 1 0-2.835h1.367v-2.27a3.801 3.801 0 0 1 3.836-3.769 1.418 1.418 0 1 1 0 2.835.934.934 0 0 0-.967.9v2.302h1.5a1.418 1.418 0 1 1 0 2.835z"/><use xlink:href="#D" x="42.068"/><path d="M154.725 1045.544a3.403 3.403 0 0 1-3.336-3.402v-18.98a1.435 1.435 0 0 1 2.869-.033v19.013a.527.527 0 0 0 .467.567 1.418 1.418 0 1 1 0 2.835zm15.37-.066v-1.264c1.886-.237 2.046-.437 2.046-3.157v-6.7c0-2.8-1.248-4.017-3.064-4.017a5.597 5.597 0 0 0-3.47 1.493v9.476c0 2.527.187 2.658 2.06 2.896v1.264h-8.968v-1.264c2.254-.33 2.5-.4 2.5-3v-8.2c0-2.446-.303-2.565-2.185-2.922v-1.184a34.101 34.101 0 0 0 6.653-1.533l-.052 2.95 2.6-1.745a5.659 5.659 0 0 1 3.159-1.086c3.194 0 5.2 2.338 5.2 6.3v7.5c0 2.54.237 2.657 2.277 2.92v1.264zm23.9-3.703c-2.458 3.427-5.488 4.178-7.014 4.178-5.142 0-8.124-3.936-8.124-8.594a10.333 10.333 0 0 1 2.832-7.062 8.602 8.602 0 0 1 6.082-2.814 6.386 6.386 0 0 1 6.37 6.347c-.014.715-.08 1.277-.612 1.4-.767.184-6.17.5-10.318.647.062 4.587 2.717 6.74 5.556 6.74a6.776 6.776 0 0 0 4.543-1.866zm-7.07-12.7c-1.667 0-3.167 1.807-3.516 4.963l5.486-.118c.6-.026.848-.146.848-.792.04-2.022-1.037-4.053-2.818-4.053zm34.284.145c-1.943.343-2.248.624-3.105 2.765-1.33 3.462-3.102 8.53-4.934 13.94h-1.512l-4.65-11.46-4.55 11.46h-1.472l-4.685-14.192c-.687-1.985-.94-2.274-2.855-2.512v-1.25h9.397v1.25c-2.325.345-2.535.672-2.058 2.133l2.52 8.214c1.507-3.68 2.988-7.62 4.327-11.424h1.456c1.4 3.76 2.986 7.702 4.573 11.568.742-2.107 2.062-5.964 2.557-8.108.412-1.674-.008-2.078-2.753-2.383v-1.25h7.742zm9.4 3.746c-.92-2.606-2.155-3.984-4.2-3.984a2.166 2.166 0 0 0-2.225 2.266c0 1.497 1.046 2.264 3.16 3.216 3.278 1.496 5.3 2.787 5.3 5.736 0 3.85-3.6 5.764-6.945 5.764a12.073 12.073 0 0 1-4.92-1.161l-.662-4.892 1.252-.224c.8 2.5 2.33 4.75 4.976 4.75a2.231 2.231 0 0 0 2.438-2.281c0-1.423-.76-2.333-3.092-3.467-2.67-1.295-5.107-2.64-5.107-5.775 0-3.046 2.533-5.42 6.565-5.42a18.751 18.751 0 0 1 4.112.567l.62 4.577z"/></g><g opacity=".8"><use xlink:href="#E"/><use xlink:href="#F"/><use xlink:href="#G"/><use xlink:href="#H"/><path d="M822.342 1044.798a4.645 4.645 0 0 1-3.58 1.521c-3.22 0-5.02-2.64-5.02-5.66 0-3 1.8-5.64 5.02-5.64a4.647 4.647 0 0 1 3.58 1.52.531.531 0 0 1 .16.381.627.627 0 0 1-.58.6.587.587 0 0 1-.42-.2 3.526 3.526 0 0 0-2.74-1.16c-2.36 0-3.88 1.9-3.88 4.5s1.52 4.52 3.88 4.52a3.596 3.596 0 0 0 2.74-1.16.587.587 0 0 1 .42-.2.594.594 0 0 1 .58.58.571.571 0 0 1-.16.399zm11.58-3.56h-8.302c.18 2.28 1.66 3.94 3.84 3.94a3.615 3.615 0 0 0 2.94-1.381.525.525 0 0 1 .479-.28.611.611 0 0 1 .62.541c0 .18 0 .22-.38.66a4.72 4.72 0 0 1-3.66 1.601c-3.22 0-5.02-2.64-5.02-5.66 0-3 1.8-5.64 5.02-5.64s5.02 2.66 5.02 5.64a.606.606 0 0 1-.56.58zm-4.46-5.08c-2.4 0-3.66 1.84-3.84 3.94h7.7c-.18-2.28-1.66-3.94-3.86-3.94z"/><use xlink:href="#E" x="62.5"/><path d="M847.4 1039.417a1.14 1.14 0 1 1 0-2.28 1.14 1.14 0 0 1 0 2.28zm0 6.562a1.14 1.14 0 1 1 0-2.28 1.14 1.14 0 0 1 0 2.28zm18.202-.001h-8.882a.606.606 0 0 1-.58-.561v-13.122a.59.59 0 0 1 .58-.561h8.882a.56.56 0 1 1 0 1.12h-8.32v4.92h6.1a.551.551 0 0 1 .58.561.561.561 0 0 1-.56.58h-6.12v5.92h8.32a.567.567 0 0 1 .58.58.55.55 0 0 1-.58.561z"/><use xlink:href="#G" x="72.738"/><use xlink:href="#H" x="72.74"/><use xlink:href="#F" x="103.078"/><path d="M902.24 1046.358c-1.2 0-3.22-.42-3.92-1.58a.482.482 0 0 1-.08-.3.546.546 0 0 1 1.02-.32 3.812 3.812 0 0 0 2.98 1.061c1.94 0 2.92-.64 2.92-1.94 0-3.02-6.562-1.42-6.562-5.422 0-2.02 2.02-2.8 3.84-2.8a5.415 5.415 0 0 1 3.44 1.16.558.558 0 0 1 .18.38.648.648 0 0 1-.62.6.531.531 0 0 1-.38-.16 4.001 4.001 0 0 0-2.62-.84c-1.76 0-2.7.68-2.7 1.66 0 2.8 6.562 1.32 6.562 5.422 0 2.28-2 3.08-4.06 3.08z"/><use xlink:href="#I"/><use xlink:href="#J"/><use xlink:href="#I" x="18.88"/><path d="M934.118 1047.758a.513.513 0 0 1-.3.08.56.56 0 0 1-.54-.58c0-.56.86-.64 1-1.28a1.152 1.152 0 0 1 .08-2.301c.98 0 1.2 1 1.2 1.62a2.854 2.854 0 0 1-1.44 2.46zm23.522-15.302l-3.52 13.103a.553.553 0 0 1-.56.42.533.533 0 0 1-.541-.42l-3-11.083-2.98 11.083a.533.533 0 0 1-.54.42.554.554 0 0 1-.561-.42l-3.52-13.103a.545.545 0 0 1-.021-.181.581.581 0 0 1 .58-.58.499.499 0 0 1 .521.44l3 11.082 2.98-11.082a.529.529 0 0 1 .54-.4.537.537 0 0 1 .56.4l2.98 11.082 3-11.082a.526.526 0 0 1 .521-.44.581.581 0 0 1 .58.58.545.545 0 0 1-.021.181z"/><use xlink:href="#F" x="175.738"/><use xlink:href="#H" x="163.96"/><path d="M980.138 1046.098a2.096 2.096 0 0 1-1.98-2.12v-11.683a.57.57 0 0 1 1.141 0v11.683c0 1.28 1.42.54 1.42 1.44a.645.645 0 0 1-.58.681zm11.422-.12a.563.563 0 0 1-.581-.561v-1a4.536 4.536 0 0 1-3.88 1.9c-3.22 0-5.02-2.64-5.02-5.66 0-3 1.8-5.64 5.02-5.64a4.571 4.571 0 0 1 3.88 1.88v-4.6a.57.57 0 0 1 1.141 0v13.122a.558.558 0 0 1-.56.561zm-4.46-9.822c-2.36 0-3.88 1.9-3.88 4.5s1.52 4.52 3.88 4.52c2.38 0 3.88-1.92 3.88-4.52s-1.5-4.5-3.88-4.5zm19.138 9.822h-5.802a.606.606 0 0 1-.58-.561v-13.122a.495.495 0 0 1 .521-.561h5.42a3.616 3.616 0 0 1 3.601 3.561 3.471 3.471 0 0 1-1.42 2.861 4.1 4.1 0 0 1-1.74 7.821zm-.44-13.123h-4.8v4.92h4.8a2.461 2.461 0 1 0 0-4.921zm.44 6.062h-5.24v5.92h5.24a2.961 2.961 0 1 0 0-5.921z"/><use xlink:href="#J" x="98.3"/><path d="M1034.138 1045.978a.563.563 0 0 1-.58-.561v-5.84a3.42 3.42 0 1 0-6.841 0v5.84a.571.571 0 0 1-1.141 0v-9.502a.571.571 0 0 1 1.141 0v.64a4.563 4.563 0 0 1 7.981 3.021v5.84a.558.558 0 0 1-.561.561zm10.7-9.64l-3.44 3.44 3.4 5.32a.564.564 0 0 1 .12.319.608.608 0 0 1-.6.541.565.565 0 0 1-.48-.261l-3.28-5.1-2.06 2.08v2.74a.571.571 0 0 1-1.141 0v-13.122a.571.571 0 0 1 1.141 0v8.762l5.52-5.52a.564.564 0 0 1 .421-.18.577.577 0 0 1 .58.56.561.561 0 0 1-.181.421z"/></g><g fill="#fff"><path d="M62.26 80H37.3a2.601 2.601 0 0 1-2.64-2.52V39.862a2.612 2.612 0 0 1 2.64-2.58h24.96a2.425 2.425 0 0 1 2.521 2.52 2.506 2.506 0 0 1-2.521 2.58H39.82V54.5h15.72a2.561 2.561 0 0 1 2.58 2.58 2.523 2.523 0 0 1-2.58 2.58H39.82V74.9h22.44a2.471 2.471 0 0 1 2.521 2.58A2.425 2.425 0 0 1 62.259 80zm30.96.06a2.446 2.446 0 0 1-2.52-1.98 13.964 13.964 0 0 1-8.64 3A13.79 13.79 0 0 1 68.38 67.4V50.78a2.58 2.58 0 0 1 5.16-.06V67.4a8.549 8.549 0 1 0 17.099 0V50.78a2.393 2.393 0 0 1 2.52-2.64 2.454 2.454 0 0 1 2.58 2.58v26.82a2.39 2.39 0 0 1-2.521 2.521zm21.72-27.84a8.643 8.643 0 0 0-8.52 8.579v16.62a2.501 2.501 0 0 1-2.641 2.58 2.456 2.456 0 0 1-2.52-2.52V50.72a2.541 2.541 0 0 1 2.52-2.58 2.463 2.463 0 0 1 2.58 2.04 13.875 13.875 0 0 1 8.58-3.061 2.552 2.552 0 1 1 0 5.101z"/><use xlink:href="#K"/><path d="M165.998 81.02a13.13 13.13 0 0 1-9.899-3.96v13.02a2.502 2.502 0 0 1-2.641 2.58 2.472 2.472 0 0 1-2.52-2.58V50.72a2.471 2.471 0 0 1 2.52-2.58 2.501 2.501 0 0 1 2.641 2.58 14.398 14.398 0 0 1 9.899-3.66c9.66 0 15.06 7.92 15.06 16.92 0 9.12-5.4 17.04-15.06 17.04zm0-28.86c-5.94 0-9.9 4.74-9.9 11.82 0 7.2 3.9 11.94 9.9 11.94s9.9-4.68 9.9-11.88c0-7.14-3.9-11.88-9.9-11.88zm45.36 14.52h-22.2c.84 5.64 4.44 9.24 9.72 9.24a9.008 9.008 0 0 0 7.14-3.119 2.481 2.481 0 0 1 1.859-.96 2.8 2.8 0 0 1 2.7 2.64c0 .72-.18 1.26-1.44 2.52a14.62 14.62 0 0 1-10.26 4.021c-9.66 0-15.06-7.98-15.06-16.98 0-8.94 5.4-16.92 15.06-16.92 9.78 0 15 7.98 15 16.92a2.558 2.558 0 0 1-2.519 2.64zm-12.48-14.46c-5.64 0-8.94 4.14-9.72 9.3h19.44c-.84-5.76-4.44-9.3-9.72-9.3zm23.34-2.52a2.521 2.521 0 0 1-5.04 0l-.84-9.96v-.36a3.278 3.278 0 0 1 3.36-3.18 3.326 3.326 0 0 1 3.42 3.12v.3z"/><use xlink:href="#L"/></g><g fill="#73efa2"><path d="M292.415 80h-24.96a2.601 2.601 0 0 1-2.64-2.52V39.862a2.612 2.612 0 0 1 2.64-2.58h24.96a2.425 2.425 0 0 1 2.521 2.52 2.506 2.506 0 0 1-2.521 2.58h-22.438V54.5h15.72a2.561 2.561 0 0 1 2.58 2.58 2.523 2.523 0 0 1-2.58 2.58h-15.72V74.9h22.438a2.471 2.471 0 0 1 2.521 2.58 2.425 2.425 0 0 1-2.521 2.52zm29.395-3.54a13.933 13.933 0 0 1-10.739 4.561c-9.66 0-15.06-7.92-15.06-16.98 0-9 5.4-16.92 15.06-16.92a13.933 13.933 0 0 1 10.739 4.561 2.612 2.612 0 0 1 .72 1.739 2.793 2.793 0 0 1-2.699 2.58 2.842 2.842 0 0 1-1.86-.84 8.814 8.814 0 0 0-6.899-2.939c-6 0-9.9 4.68-9.9 11.82 0 7.2 3.9 11.88 9.9 11.88a8.922 8.922 0 0 0 6.899-2.939 2.396 2.396 0 0 1 1.86-.9 2.59 2.59 0 0 1 1.979 4.38z"/><use xlink:href="#K" x="207.96"/><path d="M383.67 80a2.423 2.423 0 0 1-2.521-2.52V60.8a8.549 8.549 0 1 0-17.099 0v16.62a2.551 2.551 0 0 1-2.641 2.641 2.472 2.472 0 0 1-2.52-2.58V50.66a2.387 2.387 0 0 1 2.52-2.52 2.509 2.509 0 0 1 2.58 1.98 13.703 13.703 0 0 1 22.26 10.68v16.62a2.454 2.454 0 0 1-2.58 2.58z"/><use xlink:href="#K" x="273.17"/><path d="M462.267 80a2.456 2.456 0 0 1-2.52-2.52v-18.9a6.33 6.33 0 1 0-12.659-.06v18.9a2.454 2.454 0 0 1-2.58 2.58 2.423 2.423 0 0 1-2.521-2.52v-18.9a6.36 6.36 0 0 0-12.719-.06v18.9a2.501 2.501 0 0 1-2.641 2.58 2.456 2.456 0 0 1-2.52-2.52V50.66a2.632 2.632 0 0 1 4.8-1.439 11.559 11.559 0 0 1 6.66-2.101 11.359 11.359 0 0 1 8.939 4.261 11.237 11.237 0 0 1 8.88-4.261 11.46 11.46 0 0 1 11.52 11.4v18.9a2.501 2.501 0 0 1-2.641 2.58zm33.6-28.26l-16.2 36.84a6.875 6.875 0 0 1-6.6 4.02h-1.92a2.42 2.42 0 0 1-2.52-2.64 2.387 2.387 0 0 1 2.52-2.52h1.86c.78 0 1.62-.12 1.98-.96l3.96-8.88-11.7-25.86a2.163 2.163 0 0 1-.3-1.14 2.705 2.705 0 0 1 2.76-2.521 2.308 2.308 0 0 1 2.159 1.561l9.78 21.72 9.54-21.72a2.375 2.375 0 0 1 2.221-1.5 2.659 2.659 0 0 1 2.76 2.46 2.034 2.034 0 0 1-.301 1.14z"/></g><g fill="#fff"><path d="M517.827 80h-6.9a2.55 2.55 0 0 1 0-5.1h.9V42.38h-.9a2.55 2.55 0 0 1 0-5.1h6.9a2.551 2.551 0 1 1 0 5.1h-.9V74.9h.9a2.551 2.551 0 1 1 0 5.1zm16.08 1.02c-3.3 0-8.82-1.02-11.64-4.5a2.655 2.655 0 0 1 2.16-4.26 2.462 2.462 0 0 1 1.859 1.02c1.86 2.04 4.92 2.64 7.62 2.64 5.4 0 7.14-1.86 7.14-4.56 0-7.68-18.3-2.94-18.3-15.3 0-6.54 6.12-8.94 11.82-8.94 3.24 0 10.86 1.62 10.86 4.98a2.694 2.694 0 0 1-2.521 2.699 3.615 3.615 0 0 1-1.979-.779c-1.62-1.38-3.96-1.8-6.36-1.8-4.98 0-6.72 1.86-6.72 3.84 0 7.14 18.36 2.52 18.36 15.3 0 7.08-5.94 9.66-12.3 9.66zm43.62 0c-13.2 0-17.46-11.1-17.46-22.38 0-11.58 4.56-22.438 17.46-22.438 5.46 0 10.02 1.92 13.32 6.54a2.559 2.559 0 0 1 .54 1.499 2.873 2.873 0 0 1-2.88 2.58c-1.08 0-1.2-.48-2.16-1.56-1.92-2.34-4.5-3.9-8.82-3.9-9.24 0-12.3 7.86-12.3 17.28 0 8.22 2.22 17.28 12.3 17.28 7.32 0 11.7-5.22 12.12-13.86h-5.4a2.502 2.502 0 0 1-2.641-2.579 2.471 2.471 0 0 1 2.521-2.58h8.22a2.52 2.52 0 0 1 2.64 2.64c-.24 11.22-4.74 21.48-17.46 21.48zm34.92-28.8a8.644 8.644 0 0 0-8.521 8.579v16.62a2.5 2.5 0 0 1-2.64 2.58 2.456 2.456 0 0 1-2.52-2.52V50.72a2.541 2.541 0 0 1 2.52-2.58 2.463 2.463 0 0 1 2.58 2.04 13.875 13.875 0 0 1 8.58-3.061 2.552 2.552 0 1 1 0 5.101z"/><use xlink:href="#K" x="497.505"/><path d="M688.343 51.56l-9.3 26.34a2.727 2.727 0 0 1-2.64 2.1c-1.26 0-1.98-.54-2.52-2.1l-7.02-19.8-7.08 19.8a2.598 2.598 0 0 1-5.1 0l-9.24-26.34a2.642 2.642 0 0 1-.12-.96 2.585 2.585 0 0 1 2.64-2.46 2.378 2.378 0 0 1 2.34 1.68l6.96 20.04 7.08-19.62c.48-1.38 1.08-2.1 2.52-2.1 1.32 0 2.04.66 2.52 2.1l7.02 19.62 7.02-20.04a2.359 2.359 0 0 1 2.28-1.68 2.666 2.666 0 0 1 2.76 2.52 2.488 2.488 0 0 1-.12.9z"/><use xlink:href="#M"/><path d="M726.623 80a2.423 2.423 0 0 1-2.521-2.52V60.8a8.55 8.55 0 1 0-17.1 0v16.62a2.55 2.55 0 0 1-2.64 2.641 2.472 2.472 0 0 1-2.52-2.58V50.66a2.387 2.387 0 0 1 2.52-2.52 2.509 2.509 0 0 1 2.58 1.98 13.702 13.702 0 0 1 22.259 10.68v16.62a2.453 2.453 0 0 1-2.579 2.58zm21.24 13.68c-3.66 0-12.72-1.32-12.72-4.92a2.794 2.794 0 0 1 2.58-2.7c1.38 0 .18.18 3.36 1.38a18.748 18.748 0 0 0 6.78 1.141c6.66 0 9.9-3.18 9.9-9.48v-2.7a14.038 14.038 0 0 1-9.899 3.6c-9.48 0-15.06-6.72-15.06-15.96 0-9 5.4-16.92 15.06-16.92 4.2 0 7.44 1.26 9.9 3.84v-.24a2.553 2.553 0 0 1 2.58-2.58 2.518 2.518 0 0 1 2.579 2.58V79.1c0 9.54-5.7 14.58-15.06 14.58zm0-41.458c-6 0-9.9 4.68-9.9 11.82 0 6.84 3.6 10.86 9.9 10.86s9.9-4.02 9.9-10.86c0-7.14-3.84-11.82-9.9-11.82zm75.477-11.76l-9.9 37.438a2.278 2.278 0 0 1-2.46 2.1 2.542 2.542 0 0 1-2.58-2.1l-8.1-28.74-8.04 28.74a2.483 2.483 0 0 1-2.52 2.1 2.405 2.405 0 0 1-2.521-2.1l-9.9-37.438a3.565 3.565 0 0 1-.12-.84 2.504 2.504 0 0 1 2.7-2.34 2.452 2.452 0 0 1 2.4 1.859l7.56 28.62 7.92-28.38a2.599 2.599 0 0 1 5.101 0l7.92 28.38 7.56-28.62a2.669 2.669 0 0 1 2.459-1.979 2.548 2.548 0 0 1 2.641 2.46 3.565 3.565 0 0 1-.12.84zM850.82 80a2.423 2.423 0 0 1-2.52-2.52V60.8a8.55 8.55 0 1 0-17.1 0v16.62a2.55 2.55 0 0 1-2.64 2.641 2.472 2.472 0 0 1-2.52-2.58v-37.62a2.58 2.58 0 0 1 5.159-.061v10.38a12.1 12.1 0 0 1 8.52-3.061A13.79 13.79 0 0 1 853.4 60.8v16.62a2.453 2.453 0 0 1-2.58 2.58z"/><use xlink:href="#M" x="167.579"/><path d="M875.06 80.12a6.122 6.122 0 0 1-6-6.12V39.862a2.58 2.58 0 0 1 5.16-.061V74a.947.947 0 0 0 .84 1.021 2.55 2.55 0 1 1 0 5.1zm31.2-13.44h-22.2c.84 5.64 4.44 9.24 9.72 9.24a9.008 9.008 0 0 0 7.14-3.119 2.481 2.481 0 0 1 1.859-.96 2.8 2.8 0 0 1 2.7 2.64c0 .72-.18 1.26-1.44 2.52a14.616 14.616 0 0 1-10.259 4.021c-9.66 0-15.06-7.98-15.06-16.98 0-8.94 5.4-16.92 15.06-16.92 9.78 0 15 7.98 15 16.92a2.558 2.558 0 0 1-2.52 2.64zm-12.48-14.46c-5.64 0-8.94 4.14-9.72 9.3h19.44c-.84-5.76-4.44-9.3-9.72-9.3z"/></g><g fill="#3c1053"><path d="M62.26 141.2H37.3a2.601 2.601 0 0 1-2.64-2.52v-37.618a2.612 2.612 0 0 1 2.64-2.58h24.96a2.425 2.425 0 0 1 2.521 2.52 2.506 2.506 0 0 1-2.521 2.58H39.82v12.12h15.72a2.561 2.561 0 0 1 2.58 2.58 2.523 2.523 0 0 1-2.58 2.58H39.82v15.24h22.44a2.471 2.471 0 0 1 2.521 2.58 2.425 2.425 0 0 1-2.521 2.52zm44.818 0a2.456 2.456 0 0 1-2.52-2.52v-18.9a6.33 6.33 0 0 0-12.659-.06v18.898a2.454 2.454 0 0 1-2.58 2.58 2.423 2.423 0 0 1-2.521-2.52v-18.9a6.36 6.36 0 0 0-12.719-.06v18.898a2.501 2.501 0 0 1-2.641 2.58 2.456 2.456 0 0 1-2.52-2.52v-26.82a2.632 2.632 0 0 1 4.8-1.439 11.559 11.559 0 0 1 6.66-2.101 11.359 11.359 0 0 1 8.939 4.261 11.237 11.237 0 0 1 8.88-4.261 11.46 11.46 0 0 1 11.52 11.4v18.898a2.501 2.501 0 0 1-2.641 2.58z"/><use xlink:href="#N"/><use xlink:href="#O"/><use xlink:href="#O" x="25.5"/><use xlink:href="#N" x="62.04"/><use xlink:href="#K" x="69.717" y="61.2"/><path d="M245.436 141.2a2.423 2.423 0 0 1-2.521-2.52V122a8.549 8.549 0 1 0-17.099 0v16.62a2.551 2.551 0 0 1-2.641 2.641 2.472 2.472 0 0 1-2.52-2.58v-26.82a2.386 2.386 0 0 1 2.52-2.52 2.509 2.509 0 0 1 2.58 1.979 13.703 13.703 0 0 1 22.26 10.68v16.62a2.454 2.454 0 0 1-2.58 2.58z"/><use xlink:href="#L" x="25.38" y="61.2"/></g><g fill="#fff"><path d="M320.375 141.2a2.457 2.457 0 0 1-2.28-1.56l-3.18-7.8h-19.98l-3.24 7.8a2.439 2.439 0 0 1-2.22 1.56 2.65 2.65 0 0 1-2.7-2.52 1.978 1.978 0 0 1 .24-1.021l15.42-37.498a2.623 2.623 0 0 1 2.46-1.86 2.725 2.725 0 0 1 2.46 1.86l15.48 37.498a2.805 2.805 0 0 1 .18 1.021 2.56 2.56 0 0 1-2.64 2.52zm-15.48-33.6l-7.86 19.08h15.72zm34.44 5.822a8.644 8.644 0 0 0-8.52 8.579v16.62a2.5 2.5 0 0 1-2.64 2.58 2.456 2.456 0 0 1-2.52-2.52v-26.76a2.541 2.541 0 0 1 2.52-2.58 2.463 2.463 0 0 1 2.58 2.04 13.874 13.874 0 0 1 8.579-3.061 2.552 2.552 0 1 1 0 5.101zm28.487 14.458h-22.2c.84 5.64 4.44 9.24 9.72 9.24a9.005 9.005 0 0 0 7.14-3.119 2.483 2.483 0 0 1 1.86-.96 2.8 2.8 0 0 1 2.7 2.64c0 .72-.18 1.26-1.44 2.52a14.62 14.62 0 0 1-10.26 4.021c-9.66 0-15.06-7.98-15.06-16.98 0-8.94 5.4-16.92 15.06-16.92 9.78 0 15 7.98 15 16.92a2.558 2.558 0 0 1-2.521 2.64zm-12.48-14.46c-5.64 0-8.94 4.14-9.72 9.3h19.44c-.84-5.76-4.44-9.3-9.72-9.3zm58.978-9.838h-22.438v12.12h15.72a2.561 2.561 0 0 1 2.58 2.58 2.523 2.523 0 0 1-2.58 2.58h-15.72v17.82a2.575 2.575 0 0 1-2.521 2.52 2.601 2.601 0 0 1-2.64-2.52v-37.618a2.612 2.612 0 0 1 2.64-2.58h24.96a2.425 2.425 0 0 1 2.521 2.52 2.506 2.506 0 0 1-2.521 2.58zm31.077 37.618a5.839 5.839 0 0 1-5.34-3.42 13.746 13.746 0 0 1-10.56 4.44c-9.78 0-15.06-8.04-15.06-16.98s5.4-16.92 15.06-16.92a13.259 13.259 0 0 1 9.899 3.96v-.24a2.476 2.476 0 0 1 2.52-2.7 2.412 2.412 0 0 1 2.641 2.52v23.16a.971.971 0 0 0 .84 1.08 2.55 2.55 0 1 1 0 5.1zm-15.9-27.778c-6 0-9.9 4.68-9.9 11.82 0 7.2 3.9 11.88 9.9 11.88 6.06 0 9.9-4.68 9.9-11.88 0-7.14-3.84-11.82-9.9-11.82z"/><use xlink:href="#P"/><use xlink:href="#P" x="11.279"/><use xlink:href="#N" x="359.017"/><path d="M510.135 141.2a2.423 2.423 0 0 1-2.521-2.52V122a8.549 8.549 0 1 0-17.099 0v16.62a2.551 2.551 0 0 1-2.641 2.641 2.472 2.472 0 0 1-2.52-2.58v-26.82a2.386 2.386 0 0 1 2.52-2.52 2.509 2.509 0 0 1 2.58 1.98 13.702 13.702 0 0 1 22.259 10.68v16.62a2.453 2.453 0 0 1-2.579 2.58zm21.84 13.68c-3.66 0-12.72-1.32-12.72-4.92a2.794 2.794 0 0 1 2.58-2.7c1.38 0 .18.18 3.36 1.38a18.747 18.747 0 0 0 6.78 1.141c6.66 0 9.9-3.18 9.9-9.48v-2.7a14.038 14.038 0 0 1-9.899 3.6c-9.48 0-15.06-6.72-15.06-15.96 0-9 5.4-16.92 15.06-16.92 4.2 0 7.44 1.26 9.9 3.84v-.24a2.553 2.553 0 0 1 2.58-2.58 2.518 2.518 0 0 1 2.579 2.58v28.38c0 9.54-5.7 14.58-15.06 14.58zm0-41.458c-6 0-9.9 4.68-9.9 11.82 0 6.84 3.6 10.86 9.9 10.86s9.9-4.02 9.9-10.86c0-7.14-3.84-11.82-9.9-11.82z"/></g><path d="M993.076 818.207c-6.16 0-8.147-5.18-8.147-10.443 0-5.404 2.128-10.472 8.147-10.472a7.163 7.163 0 0 1 6.216 3.052 1.192 1.192 0 0 1 .252.7 1.34 1.34 0 0 1-1.344 1.203c-.504 0-.56-.224-1.008-.728a4.884 4.884 0 0 0-4.116-1.82c-4.312 0-5.74 3.668-5.74 8.064 0 3.836 1.036 8.063 5.74 8.063 3.416 0 5.46-2.436 5.656-6.468h-2.52a1.167 1.167 0 0 1-1.231-1.204 1.153 1.153 0 0 1 1.176-1.204h3.836a1.176 1.176 0 0 1 1.232 1.232c-.112 5.236-2.212 10.023-8.148 10.023zm18.06-.477h-5.796a1.274 1.274 0 0 1-1.232-1.176V799a1.257 1.257 0 0 1 1.232-1.204h5.796c5.768 0 7.672 4.76 7.672 9.94 0 5.208-1.904 9.996-7.672 9.996zm0-17.556h-4.62v15.176h4.62c3.6 0 5.264-2.66 5.264-7.616 0-4.872-1.652-7.56-5.264-7.56zm19.29 8.933h-5.992v7.42a1.204 1.204 0 0 1-2.408.028V799a1.162 1.162 0 0 1 1.176-1.204h7.252a5.656 5.656 0 0 1-.027 11.312zm0-8.932h-5.992v6.552h5.964a3.276 3.276 0 0 0 .028-6.552z" fill="#481759"/><g fill="#33e77f"><use xlink:href="#Q"/><path d="M804.883 859.182a1.146 1.146 0 0 1-1.176-1.176v-8.82a2.954 2.954 0 0 0-5.908-.027v8.82a1.144 1.144 0 0 1-1.203 1.203 1.131 1.131 0 0 1-1.177-1.176v-8.82a2.968 2.968 0 0 0-5.936-.027v8.82a1.167 1.167 0 0 1-1.232 1.203 1.146 1.146 0 0 1-1.176-1.176V845.49a1.229 1.229 0 0 1 2.24-.672 5.4 5.4 0 0 1 3.107-.98 5.301 5.301 0 0 1 4.173 1.988 5.243 5.243 0 0 1 4.144-1.988 5.348 5.348 0 0 1 5.376 5.32v8.82a1.167 1.167 0 0 1-1.232 1.203z"/><use xlink:href="#R"/><path d="M820.507 859.66c-1.54 0-4.115-.477-5.432-2.1a1.239 1.239 0 0 1 1.008-1.988 1.15 1.15 0 0 1 .868.477 4.787 4.787 0 0 0 3.556 1.23c2.52 0 3.332-.867 3.332-2.127 0-3.584-8.54-1.373-8.54-7.14 0-3.05 2.856-4.172 5.517-4.172 1.512 0 5.067.756 5.067 2.324a1.257 1.257 0 0 1-1.176 1.26 1.695 1.695 0 0 1-.924-.363 4.535 4.535 0 0 0-2.968-.84c-2.324 0-3.137.867-3.137 1.79 0 3.332 8.568 1.176 8.568 7.14 0 3.305-2.772 4.508-5.74 4.508z"/><use xlink:href="#S"/><use xlink:href="#R" x="32.311"/><use xlink:href="#T"/><use xlink:href="#U"/><use xlink:href="#S" x="51.967"/><use xlink:href="#V"/><use xlink:href="#Q" x="146.578"/><path d="M940.037 846.22a4.034 4.034 0 0 0-3.976 4.004v7.756a1.167 1.167 0 0 1-1.232 1.203 1.146 1.146 0 0 1-1.176-1.176v-12.488a1.186 1.186 0 0 1 1.176-1.203 1.149 1.149 0 0 1 1.204.951 6.483 6.483 0 0 1 4.004-1.428 1.191 1.191 0 1 1 0 2.381z"/><use xlink:href="#V" x="48.775"/><use xlink:href="#Q" x="195.355"/><path d="M988.81 846.22a4.034 4.034 0 0 0-3.976 4.004v7.756a1.167 1.167 0 0 1-1.232 1.203 1.146 1.146 0 0 1-1.176-1.176v-12.488a1.186 1.186 0 0 1 1.176-1.203 1.149 1.149 0 0 1 1.204.951 6.484 6.484 0 0 1 4.004-1.428 1.191 1.191 0 1 1 0 2.381z"/><use xlink:href="#S" x="162.537"/><use xlink:href="#T" x="156.266"/><use xlink:href="#U" x="156.266"/></g><g fill="#481759"><use xlink:href="#W"/><use xlink:href="#X"/><use xlink:href="#X" x="12.93"/><use xlink:href="#Y"/><path d="M997.746 987.323v-1.92c2.048-6.848 8.447-10.687 8.447-15.935 0-2.432-1.216-3.648-2.783-3.648-1.824 0-3.168 1.408-3.36 4.864h-2.11c.256-5.248 2.623-6.783 5.407-6.783 3.04 0 5.15 2.048 5.15 5.887 0 5.76-5.184 7.552-8.64 15.615h8.767v1.92z"/><use xlink:href="#Y" x="941.318" y="118.139"/><use xlink:href="#W" x="991.109" y="118.14"/><path d="M1035.633 964.22H1046v1.216l-6.72 21.887h-2.432l6.72-21.183h-7.936zm-95.745-638.198h-8.203c-.312.03-.453-.124-.422-.47v-2.4q-.047-.467.422-.422h8.203c.344.063.5-.077.47-.422v-8.25c-.063-.344.077-.5.422-.47h2.484c.344-.03.484.125.422.47v8.25c-.03.345.124.485.47.422h8.203q.467-.045.422.422v2.4q.045.47-.422.47h-8.203c-.345-.062-.5.078-.47.422v8.25q.094.517-.422.422h-2.484q-.47.047-.422-.422v-8.25c.03-.344-.125-.484-.47-.422h0zm22.104-18.14l.563-.422h3.328c.344 0 .5.157.47.47v29.625c-.063.345.077.5.422.47h6.094q.516-.094.422.422v2.297c.03.345-.1.484-.422.422h-16.594c-.345.063-.5-.077-.47-.422v-2.297c-.03-.344.124-.484.47-.422h6.328c.312.03.452-.124.422-.47V312.57c-.03-.375-.187-.405-.47-.094a20.571 20.571 0 0 1-6.422 3.75q-.376.188-.422-.234v-2.4a.454.454 0 0 1 .328-.422 11.782 11.782 0 0 0 5.953-5.297h0zm18.778 29.438q-.047.47.422.422h13.688q.516-.094.422.422v2.53c.063.345-.078.5-.422.47h-17.203c-.345.03-.485-.124-.422-.47v-2.578q.234-6.328 3.656-9.6a87.491 87.491 0 0 1 6.797-5.906 8.859 8.859 0 0 0 3.703-6.75 6.324 6.324 0 0 0-1.406-4.125 4.79 4.79 0 0 0-3.797-1.687 5.211 5.211 0 0 0-4.125 1.781 6.767 6.767 0 0 0-1.547 4.219c.03.438-.14.626-.516.563h-2.53q-.517.095-.422-.422a10.34 10.34 0 0 1 2.672-6.609 8.534 8.534 0 0 1 6.516-2.859 8.431 8.431 0 0 1 6.234 2.578 9.119 9.119 0 0 1 2.531 6.422 10.545 10.545 0 0 1-3.656 7.922l-6.797 5.672a10.864 10.864 0 0 0-3.797 8.016h0zm33.165-12.048q0-.467-.422-.14-1.5 1.97-5.766 2.297a8.422 8.422 0 0 1-6.562-2.906 11.015 11.015 0 0 1-2.437-7.266 11.43 11.43 0 0 1 2.484-7.312 9.02 9.02 0 0 1 13.641-.047 11.589 11.589 0 0 1 2.484 7.5v14.672a10.473 10.473 0 0 1-2.484 6.984 9.161 9.161 0 0 1-6.937 2.906 9.498 9.498 0 0 1-6.047-2.062 8.075 8.075 0 0 1-2.906-5.437q-.094-.422.422-.422h2.672q.47 0 .516.563a5.812 5.812 0 0 0 1.594 2.906 6.291 6.291 0 0 0 8.203-.656 7.26 7.26 0 0 0 1.547-4.781zm0-8.1a8.327 8.327 0 0 0-1.5-5.109 5.348 5.348 0 0 0-4.406-2.062 5.168 5.168 0 0 0-4.312 2.063 8.856 8.856 0 0 0-1.547 5.203 8.476 8.476 0 0 0 1.5 5.109 5.126 5.126 0 0 0 4.266 1.969q5.953-.375 6-7.172h0zm13.51-9.085a3.544 3.544 0 0 1 .929 2.459v1.695a3.543 3.543 0 0 1-.929 2.459 3.234 3.234 0 0 1-2.405.983 3.198 3.198 0 0 1-2.377-.983 3.477 3.477 0 0 1-.957-2.459v-1.695a3.478 3.478 0 0 1 .957-2.459 3.198 3.198 0 0 1 2.377-.983 3.234 3.234 0 0 1 2.405.983zm-3.7 19.13h-1.202q-.328.026-.164-.273l11.26-19.157q.1-.328.355-.273h1.202q.3-.026.164.246l-11.286 19.157c-.073.22-.183.318-.328.3zm-.52-15.058q.1 1.913 1.804 1.94 1.723-.026 1.804-1.94v-1.53q-.082-1.912-1.804-1.94-1.695.026-1.804 1.94zm7.078 14.483a3.442 3.442 0 0 1-.956-2.433v-1.667a3.442 3.442 0 0 1 .956-2.432 3.466 3.466 0 0 1 4.782 0 3.504 3.504 0 0 1 .93 2.432v1.667a3.504 3.504 0 0 1-.93 2.433 3.399 3.399 0 0 1-4.782 0zm4.182-2.514v-1.504q-.082-1.857-1.804-1.885-1.695.026-1.804 1.885v1.504q.108 1.885 1.804 1.912 1.72-.026 1.804-1.912h0z"/></g><path d="M971.604 912.487q.516-.094.47.422v2.484q0 .516-.47.47h-15.328q-.516.047-.47-.47v-2.484q-.047-.516.47-.422h15.328zm9.026 14.53q-.047.47.422.422h13.688q.516-.094.422.422v2.53c.063.344-.078.5-.422.47h-17.203c-.344.03-.484-.125-.422-.47v-2.578q.234-6.328 3.656-9.6a87.257 87.257 0 0 1 6.797-5.906 8.859 8.859 0 0 0 3.703-6.75 6.324 6.324 0 0 0-1.406-4.125 4.787 4.787 0 0 0-3.797-1.687 5.21 5.21 0 0 0-4.125 1.781 6.767 6.767 0 0 0-1.547 4.219q.047.656-.516.563h-2.53q-.516.094-.422-.422a10.346 10.346 0 0 1 2.672-6.609 8.532 8.532 0 0 1 6.516-2.859 8.431 8.431 0 0 1 6.234 2.578 9.109 9.109 0 0 1 2.531 6.422 10.545 10.545 0 0 1-3.656 7.922l-6.797 5.672a10.864 10.864 0 0 0-3.797 8.016h0zm35.97-25.312a61.008 61.008 0 0 0-6.281 14.109 61.935 61.935 0 0 0-2.344 14.719c.063.405-.094.578-.47.516h-2.672q-.516-.047-.422-.516a60.304 60.304 0 0 1 2.625-14.906 61.971 61.971 0 0 1 6.422-14.437q.422-.656-.047-.656h-14.437q-.516.094-.422-.47v-2.484q-.094-.516.422-.422h17.4q.516-.094.422.422v3.47l-.187.656zm10.7-3.93a3.547 3.547 0 0 1 .929 2.46v1.694a3.545 3.545 0 0 1-.929 2.46 3.234 3.234 0 0 1-2.405.983 3.198 3.198 0 0 1-2.377-.983 3.479 3.479 0 0 1-.957-2.46v-1.694a3.481 3.481 0 0 1 .957-2.46 3.205 3.205 0 0 1 2.377-.983 3.241 3.241 0 0 1 2.405.983zm-3.7 19.13h-1.202q-.328.028-.164-.273l11.26-19.156q.1-.328.355-.273h1.202q.3-.028.164.246l-11.286 19.156q-.1.328-.328.3zm-.52-15.058q.1 1.913 1.804 1.94 1.723-.026 1.804-1.94v-1.53q-.082-1.913-1.804-1.94-1.695.028-1.804 1.94zm7.078 14.484a3.444 3.444 0 0 1-.956-2.433v-1.667a3.446 3.446 0 0 1 .956-2.433 3.468 3.468 0 0 1 4.782 0 3.508 3.508 0 0 1 .93 2.433v1.667a3.506 3.506 0 0 1-.93 2.433 3.399 3.399 0 0 1-4.782 0zm4.182-2.515v-1.503q-.082-1.86-1.804-1.886-1.695.028-1.804 1.886v1.503q.108 1.885 1.804 1.913 1.72-.026 1.804-1.913h0z" fill="#33e77f"/><path d="M44.812 789.606a6.64 6.64 0 0 1 1.781 4.656v10.563a6.753 6.753 0 0 1-1.781 4.688 6.214 6.214 0 0 1-4.531 1.844 6.286 6.286 0 0 1-4.531-1.844 6.649 6.649 0 0 1-1.75-4.687v-10.562a6.538 6.538 0 0 1 1.75-4.656 6.125 6.125 0 0 1 4.531-1.844 6.057 6.057 0 0 1 4.531 1.844zm-8.47 4.656v10.563a4.72 4.72 0 0 0 1.063 3.125 4 4 0 0 0 5.75 0 4.622 4.622 0 0 0 1.094-3.125v-10.562a4.505 4.505 0 0 0-1.094-3.094 4 4 0 0 0-5.75 0 4.599 4.599 0 0 0-1.062 3.094h0zm16.79-5.922a2.356 2.356 0 0 1 .619 1.64v1.13a2.35 2.35 0 0 1-.619 1.639 2.153 2.153 0 0 1-1.604.656 2.129 2.129 0 0 1-1.584-.656 2.313 2.313 0 0 1-.639-1.639v-1.13a2.319 2.319 0 0 1 .639-1.64 2.133 2.133 0 0 1 1.584-.656 2.157 2.157 0 0 1 1.604.656zm-2.46 12.753h-.802c-.145.013-.183-.048-.1-.183l7.507-12.77c.048-.145.127-.205.236-.182h.8c.135-.012.17.043.1.164l-7.523 12.77c-.05.145-.122.213-.22.2zm-.346-10.038q.072 1.274 1.2 1.293 1.148-.018 1.203-1.293v-1.02q-.056-1.276-1.203-1.294-1.128.02-1.2 1.294zm4.72 9.656a2.294 2.294 0 0 1-.639-1.622v-1.1a2.294 2.294 0 0 1 .639-1.622 2.165 2.165 0 0 1 1.584-.637 2.192 2.192 0 0 1 1.604.637 2.339 2.339 0 0 1 .619 1.622v1.1a2.339 2.339 0 0 1-.619 1.622 2.163 2.163 0 0 1-1.604.655 2.138 2.138 0 0 1-1.584-.655zm2.787-1.677v-1.002q-.056-1.238-1.203-1.257-1.13.018-1.202 1.257v1.002q.072 1.257 1.202 1.275 1.148-.02 1.203-1.275h0z" opacity=".7" fill="#fff"/></svg>