<svg xmlns="http://www.w3.org/2000/svg" xmlns:xlink="http://www.w3.org/1999/xlink" viewBox="0 0 1080 1080"><defs><linearGradient id="A" x1="11.75" y1="11.75" x2="1068.25" y2="1068.25" gradientUnits="userSpaceOnUse"><stop offset="0" stop-color="#ec008c"/><stop offset=".216" stop-color="#f01d82"/><stop offset=".561" stop-color="#f74573"/><stop offset=".834" stop-color="#fb5e6a"/><stop offset="1" stop-color="#fc6767"/></linearGradient><linearGradient id="B" x1="540" y1="193.602" x2="540" y2="993.602" gradientUnits="userSpaceOnUse"><stop offset="0" stop-color="#cc2b5e"/><stop offset=".112" stop-color="#bf2d64"/><stop offset=".502" stop-color="#973478"/><stop offset=".812" stop-color="#7e3884"/><stop offset="1" stop-color="#753a88"/></linearGradient><path id="C" d="M106.614 1045.51a1.36 1.36 0 0 1-1.4-1.101 7.763 7.763 0 0 1-4.804 1.668 7.666 7.666 0 0 1-7.604-7.605v-9.24a1.434 1.434 0 0 1 2.868-.033v9.272a4.753 4.753 0 1 0 9.507 0v-9.24a1.33 1.33 0 0 1 1.4-1.468 1.364 1.364 0 0 1 1.435 1.435v14.9a1.328 1.328 0 0 1-1.401 1.4z"/><path id="D" d="M887.38 1046.318c-3.22 0-5.02-2.64-5.02-5.662 0-3 1.8-5.64 5.02-5.64s5.02 2.64 5.02 5.64c0 3.02-1.8 5.662-5.02 5.662zm0-10.162c-2.36 0-3.88 1.9-3.88 4.5s1.52 4.52 3.88 4.52c2.38 0 3.88-1.92 3.88-4.52s-1.5-4.5-3.88-4.5z"/><path id="E" d="M911.12 1036.336a3.418 3.418 0 0 0-3.421 3.42v5.662a.57.57 0 0 1-1.141 0v-9.502a.57.57 0 0 1 1.141 0v.82a4.566 4.566 0 0 1 3.421-1.541.57.57 0 1 1 0 1.141z"/><path id="F" d="M513.395 901.83c0-.26-.117-.39-.352-.39a7.007 7.007 0 0 1-4.336-2.734 7.341 7.341 0 0 1-1.445-4.414q-.117-.586.43-.508h1.68q.703-.078.78.47a5.647 5.647 0 0 0 1.25 3.32 4.471 4.471 0 0 0 3.438 1.367q4.648-.195 4.766-4.648a4.405 4.405 0 0 0-1.719-3.75 22.907 22.907 0 0 0-4.18-2.227 11.892 11.892 0 0 1-4.023-2.773 6.768 6.768 0 0 1-1.68-4.609 7.136 7.136 0 0 1 5.547-7.07c.234 0 .352-.143.352-.43v-3.906q-.08-.43.352-.352h2.03c.26-.025.39.092.39.352v3.828c-.026.287.078.43.313.43a6.458 6.458 0 0 1 4.18 2.539 7.341 7.341 0 0 1 1.367 4.375q.117.625-.39.508h-1.72q-.665.08-.742-.47-.08-4.18-4.453-4.375a4.138 4.138 0 0 0-3.203 1.289 4.39 4.39 0 0 0-1.133 3.125 4.262 4.262 0 0 0 1.484 3.359 15.691 15.691 0 0 0 3.555 2.031 15.563 15.563 0 0 1 4.883 3.203 6.757 6.757 0 0 1 1.68 4.805 7.569 7.569 0 0 1-1.68 5 6.94 6.94 0 0 1-4.336 2.344q-.352 0-.352.39v3.828q.078.43-.352.39h-2.03q-.39.038-.352-.352z"/><path id="G" d="M554.65 892.183q-.04.43.352.39h2.383q.43-.078.352.352v1.914q.078.43-.352.39h-2.383q-.39-.078-.352.352v5.625c.052.34-.065.48-.352.43h-1.992c-.26.052-.378-.09-.352-.43v-5.625q.078-.43-.352-.352h-9.062q-.39.04-.352-.39v-2.46l.156-.664 8.32-17.852a.515.515 0 0 1 .547-.312h3.086q.43-.038.352.39zm-9.805 0q-.234.43.234.39h6.523q.43.04.352-.39v-14.61c-.053-.312-.156-.338-.312-.078z"/><path id="H" d="M517.402 931.636v-1.8c1.92-6.42 7.92-10.02 7.92-14.94 0-2.28-1.14-3.42-2.6-3.42-1.71 0-2.97 1.32-3.15 4.56h-1.98c.24-4.92 2.46-6.36 5.07-6.36 2.85 0 4.83 1.92 4.83 5.52 0 5.4-4.86 7.08-8.1 14.64h8.22v1.8z"/><path id="I" d="M535.04 931.936c-3.54 0-5.22-3.3-5.22-11.13s1.68-11.13 5.22-11.13 5.22 3.3 5.22 11.13-1.68 11.13-5.22 11.13zm0-20.46c-1.98 0-3.06 2.22-3.06 9.33s1.08 9.33 3.06 9.33 3.06-2.22 3.06-9.33-1.08-9.33-3.06-9.33z"/><path id="J" d="M108.613 82.12a6.122 6.122 0 0 1-6-6.12V41.862a2.58 2.58 0 0 1 5.16-.06V76a.947.947 0 0 0 .84 1.02 2.55 2.55 0 1 1 0 5.1z"/><path id="K" d="M127.932 83.02c-9.66 0-15.06-7.92-15.06-16.98 0-9 5.4-16.92 15.06-16.92s15.06 7.92 15.06 16.92c0 9.06-5.4 16.98-15.06 16.98zm0-28.8c-6 0-9.9 4.68-9.9 11.82 0 7.2 3.9 11.88 9.9 11.88 6.06 0 9.9-4.68 9.9-11.88 0-7.14-3.84-11.82-9.9-11.82z"/><path id="L" d="M212.17 82a5.839 5.839 0 0 1-5.34-3.42 13.746 13.746 0 0 1-10.56 4.44c-9.78 0-15.06-8.04-15.06-16.98s5.4-16.92 15.06-16.92a13.257 13.257 0 0 1 9.899 3.96v-.24a2.476 2.476 0 0 1 2.521-2.7 2.412 2.412 0 0 1 2.64 2.52v23.16a.971.971 0 0 0 .84 1.08 2.55 2.55 0 1 1 0 5.1zm-15.9-27.78c-6 0-9.9 4.68-9.9 11.82 0 7.2 3.9 11.88 9.9 11.88 6.06 0 9.9-4.68 9.9-11.88 0-7.14-3.84-11.82-9.9-11.82z"/><path id="M" d="M303.908 68.68h-22.2c.84 5.64 4.44 9.24 9.72 9.24a9.007 9.007 0 0 0 7.14-3.12 2.483 2.483 0 0 1 1.859-.96 2.8 2.8 0 0 1 2.7 2.64c0 .72-.18 1.26-1.44 2.52a14.622 14.622 0 0 1-10.26 4.02c-9.66 0-15.06-7.98-15.06-16.98 0-8.94 5.4-16.92 15.06-16.92 9.78 0 15 7.98 15 16.92a2.558 2.558 0 0 1-2.52 2.64zm-12.48-14.46c-5.64 0-8.94 4.14-9.72 9.3h19.44c-.84-5.76-4.44-9.3-9.72-9.3z"/><path id="N" d="M367.267 82h-1.02c-5.7 0-7.86-3-7.86-7.92V55.24h-1.8a2.55 2.55 0 0 1-.061-5.1h1.8v-8.34a2.436 2.436 0 0 1 2.58-2.52 2.389 2.389 0 0 1 2.52 2.52v8.34h3.84a2.488 2.488 0 0 1 2.521 2.52 2.441 2.441 0 0 1-2.521 2.58h-3.84v19.38c0 1.68.6 2.28 2.28 2.28h1.5a2.475 2.475 0 0 1 2.58 2.52 2.441 2.441 0 0 1-2.521 2.58z"/><path id="O" d="M541.983 68.68h-22.2c.84 5.64 4.44 9.24 9.72 9.24a9.004 9.004 0 0 0 7.14-3.12 2.484 2.484 0 0 1 1.86-.96 2.8 2.8 0 0 1 2.7 2.64c0 .72-.18 1.26-1.44 2.52a14.622 14.622 0 0 1-10.26 4.02c-9.66 0-15.06-7.98-15.06-16.98 0-8.94 5.4-16.92 15.06-16.92 9.78 0 15 7.98 15 16.92a2.558 2.558 0 0 1-2.521 2.64zm-12.48-14.46c-5.64 0-8.94 4.14-9.72 9.3h19.44c-.84-5.76-4.44-9.3-9.72-9.3z"/><path id="P" d="M690.302 54.22a8.644 8.644 0 0 0-8.52 8.58v16.62a2.502 2.502 0 0 1-2.641 2.58 2.456 2.456 0 0 1-2.52-2.52V52.72a2.541 2.541 0 0 1 2.52-2.58 2.463 2.463 0 0 1 2.58 2.04 13.874 13.874 0 0 1 8.58-3.06 2.552 2.552 0 1 1 0 5.1z"/><path id="Q" d="M942.046 83.02c-3.3 0-8.82-1.02-11.64-4.5a2.655 2.655 0 0 1 2.159-4.26 2.463 2.463 0 0 1 1.86 1.02c1.86 2.04 4.92 2.64 7.62 2.64 5.4 0 7.14-1.86 7.14-4.56 0-7.68-18.3-2.94-18.3-15.3 0-6.54 6.12-8.94 11.82-8.94 3.24 0 10.86 1.62 10.86 4.98a2.694 2.694 0 0 1-2.521 2.7 3.609 3.609 0 0 1-1.979-.78c-1.62-1.38-3.96-1.8-6.36-1.8-4.98 0-6.72 1.86-6.72 3.84 0 7.14 18.36 2.52 18.36 15.3 0 7.08-5.94 9.66-12.3 9.66z"/><path id="R" d="M507.45 115.42a8.644 8.644 0 0 0-8.52 8.58v16.62a2.502 2.502 0 0 1-2.641 2.58 2.456 2.456 0 0 1-2.52-2.52v-26.76a2.541 2.541 0 0 1 2.52-2.58 2.463 2.463 0 0 1 2.58 2.04 13.874 13.874 0 0 1 8.58-3.06 2.552 2.552 0 1 1 0 5.1z"/></defs><rect width="1080" height="1080" rx="40" fill="url(#A)"/><circle cx="540" cy="593.602" r="400" fill="url(#B)"/><g fill="#fff"><circle cx="540" cy="507.102" r="303.5" opacity=".1"/><circle cx="540" cy="446.602" r="233" opacity=".1"/></g><g opacity=".5" fill="#fff"><path d="M44.228 1046.045a7.892 7.892 0 0 1-5.503-2.002 1.364 1.364 0 0 1-1.468 1.401 1.346 1.346 0 0 1-1.401-1.401v-20.88a1.435 1.435 0 0 1 2.869-.033v6.238a7.4 7.4 0 0 1 5.503-2.169c5.37 0 8.373 4.403 8.373 9.406 0 5.037-3.002 9.44-8.373 9.44zm0-16c-3.335 0-5.503 2.602-5.503 6.57 0 4.003 2.168 6.604 5.503 6.604s5.504-2.602 5.504-6.604c0-3.97-2.168-6.57-5.504-6.57zm25.555 8.037h-12.34c.467 3.136 2.468 5.137 5.403 5.137a5.003 5.003 0 0 0 3.969-1.734 1.383 1.383 0 0 1 1.034-.533 1.556 1.556 0 0 1 1.501 1.468c0 .4-.1.7-.8 1.4a8.129 8.129 0 0 1-5.704 2.235c-5.37 0-8.372-4.437-8.372-9.44 0-4.97 3.002-9.406 8.372-9.406 5.437 0 8.34 4.437 8.34 9.406a1.422 1.422 0 0 1-1.401 1.468zm-6.937-8.038c-3.136 0-4.97 2.3-5.403 5.17H68.25c-.467-3.202-2.468-5.17-5.403-5.17zm27.054 15.444a3.247 3.247 0 0 1-2.969-1.901 7.642 7.642 0 0 1-5.87 2.469c-5.437 0-8.372-4.47-8.372-9.44s3.002-9.406 8.372-9.406a7.369 7.369 0 0 1 5.504 2.202v-.134a1.376 1.376 0 0 1 1.4-1.501 1.341 1.341 0 0 1 1.468 1.401v12.875a.54.54 0 0 0 .467.601 1.418 1.418 0 1 1 0 2.835zm-8.84-15.443c-3.336 0-5.504 2.602-5.504 6.57 0 4.003 2.168 6.604 5.504 6.604 3.37 0 5.504-2.602 5.504-6.604 0-3.97-2.135-6.57-5.504-6.57z"/><use xlink:href="#C"/><path d="M117.058 1045.478h-.567c-3.17 0-4.37-1.668-4.37-4.403V1030.6h-1a1.418 1.418 0 1 1-.033-2.835h1v-4.637a1.355 1.355 0 0 1 1.435-1.4 1.328 1.328 0 0 1 1.401 1.4v4.637h2.135a1.383 1.383 0 0 1 1.4 1.401 1.356 1.356 0 0 1-1.4 1.434h-2.135v10.774c0 .934.333 1.268 1.268 1.268h.833a1.376 1.376 0 0 1 1.435 1.4 1.357 1.357 0 0 1-1.4 1.435zm4.604-20.415a2.401 2.401 0 1 1 2.402-2.401 2.392 2.392 0 0 1-2.402 2.401zm0 20.414a1.4 1.4 0 0 1-1.467-1.401V1029.2a1.408 1.408 0 0 1 1.467-1.435 1.374 1.374 0 0 1 1.401 1.435v14.876a1.346 1.346 0 0 1-1.401 1.401zm10.376-14.877h-1.5v13.442a1.364 1.364 0 0 1-1.468 1.401 1.346 1.346 0 0 1-1.401-1.401V1030.6h-1.37a1.418 1.418 0 0 1 0-2.835h1.367v-2.27a3.801 3.801 0 0 1 3.836-3.769 1.418 1.418 0 1 1 0 2.835.934.934 0 0 0-.967.9v2.302h1.5a1.418 1.418 0 1 1 0 2.835z"/><use xlink:href="#C" x="42.068"/><path d="M156.625 1045.544a3.403 3.403 0 0 1-3.336-3.402v-18.98a1.435 1.435 0 0 1 2.869-.033v19.013a.527.527 0 0 0 .467.567 1.418 1.418 0 1 1 0 2.835zm15.37-.066v-1.264c1.886-.237 2.046-.437 2.046-3.157v-6.7c0-2.8-1.248-4.017-3.064-4.017a5.597 5.597 0 0 0-3.47 1.493v9.476c0 2.527.187 2.658 2.06 2.896v1.264h-8.968v-1.264c2.254-.33 2.5-.4 2.5-3v-8.2c0-2.446-.303-2.565-2.185-2.922v-1.184a34.101 34.101 0 0 0 6.653-1.533l-.052 2.95 2.6-1.745a5.659 5.659 0 0 1 3.159-1.086c3.194 0 5.2 2.338 5.2 6.3v7.5c0 2.54.237 2.657 2.277 2.92v1.264zm23.9-3.703c-2.458 3.427-5.488 4.178-7.014 4.178-5.142 0-8.124-3.936-8.124-8.594a10.333 10.333 0 0 1 2.832-7.062 8.602 8.602 0 0 1 6.082-2.814 6.386 6.386 0 0 1 6.37 6.347c-.014.715-.08 1.277-.612 1.4-.767.184-6.17.5-10.318.647.062 4.587 2.717 6.74 5.556 6.74a6.776 6.776 0 0 0 4.543-1.866zm-7.07-12.7c-1.667 0-3.167 1.807-3.516 4.963l5.486-.118c.6-.026.848-.146.848-.792.04-2.022-1.037-4.053-2.818-4.053zm34.284.145c-1.943.343-2.248.624-3.105 2.765-1.33 3.462-3.102 8.53-4.934 13.94h-1.512l-4.65-11.46-4.55 11.46h-1.472l-4.685-14.192c-.687-1.985-.94-2.274-2.855-2.512v-1.25h9.397v1.25c-2.325.345-2.535.672-2.058 2.133l2.52 8.214c1.507-3.68 2.988-7.62 4.327-11.424H211c1.4 3.76 2.986 7.702 4.573 11.568.742-2.107 2.062-5.964 2.557-8.108.412-1.674-.008-2.078-2.753-2.383v-1.25h7.742zm9.4 3.746c-.92-2.606-2.155-3.984-4.2-3.984a2.166 2.166 0 0 0-2.225 2.266c0 1.497 1.046 2.264 3.16 3.216 3.278 1.496 5.3 2.787 5.3 5.736 0 3.85-3.6 5.764-6.945 5.764a12.073 12.073 0 0 1-4.92-1.161l-.662-4.892 1.252-.224c.8 2.5 2.33 4.75 4.976 4.75a2.231 2.231 0 0 0 2.438-2.281c0-1.423-.76-2.333-3.092-3.467-2.67-1.295-5.107-2.64-5.107-5.775 0-3.046 2.533-5.42 6.565-5.42a18.751 18.751 0 0 1 4.112.567l.62 4.577z"/></g><g opacity=".7" fill="#fff"><path d="M876.66 1046.357c-1.2 0-3.22-.42-3.92-1.58a.478.478 0 0 1-.08-.299.546.546 0 0 1 1.021-.32 3.815 3.815 0 0 0 2.98 1.061c1.94 0 2.92-.64 2.92-1.94 0-3.02-6.562-1.42-6.562-5.422 0-2.02 2.02-2.8 3.84-2.8a5.415 5.415 0 0 1 3.44 1.16.556.556 0 0 1 .18.379.647.647 0 0 1-.62.6.527.527 0 0 1-.38-.16 4.001 4.001 0 0 0-2.62-.84c-1.76 0-2.7.682-2.7 1.66 0 2.8 6.562 1.32 6.562 5.422 0 2.28-2 3.08-4.06 3.08z"/><use xlink:href="#D"/><path d="M903.16 1045.98a.563.563 0 0 1-.58-.561v-.64a4.443 4.443 0 0 1-3.421 1.541 4.61 4.61 0 0 1-4.561-4.561v-5.842a.57.57 0 0 1 1.14 0v5.842a3.421 3.421 0 0 0 6.842 0v-5.842a.57.57 0 0 1 1.141 0v9.502a.559.559 0 0 1-.561.561z"/><use xlink:href="#E"/><path d="M921.3 1044.797a4.646 4.646 0 0 1-3.58 1.521c-3.22 0-5.02-2.64-5.02-5.662 0-3 1.8-5.64 5.02-5.64a4.651 4.651 0 0 1 3.58 1.52.534.534 0 0 1 .16.381.626.626 0 0 1-.58.6.586.586 0 0 1-.42-.199 3.526 3.526 0 0 0-2.74-1.16c-2.36 0-3.88 1.9-3.88 4.5s1.52 4.52 3.88 4.52a3.592 3.592 0 0 0 2.74-1.16.586.586 0 0 1 .42-.199.594.594 0 0 1 .58.58.569.569 0 0 1-.16.398zm11.58-3.56h-8.302c.18 2.28 1.66 3.94 3.84 3.94a3.615 3.615 0 0 0 2.94-1.381.526.526 0 0 1 .479-.279.611.611 0 0 1 .62.541c0 .18 0 .22-.38.658a4.718 4.718 0 0 1-3.66 1.602c-3.22 0-5.02-2.64-5.02-5.662 0-3 1.8-5.64 5.02-5.64s5.02 2.66 5.02 5.64a.605.605 0 0 1-.56.58zm-4.46-5.08c-2.4 0-3.66 1.84-3.84 3.94h7.7c-.18-2.28-1.66-3.94-3.86-3.94zm8.438 3.26a1.14 1.14 0 1 1 0-2.279 1.14 1.14 0 0 1 0 2.279zm0 6.563a1.141 1.141 0 1 1 0-2.281 1.141 1.141 0 0 1 0 2.281zm23.082-13.524l-3.52 13.104a.554.554 0 0 1-.56.42.534.534 0 0 1-.541-.42l-3-11.084-2.98 11.084a.534.534 0 0 1-.54.42.555.555 0 0 1-.561-.42l-3.52-13.104a.539.539 0 0 1-.021-.18.581.581 0 0 1 .58-.58.499.499 0 0 1 .521.439l3 11.082 2.98-11.082a.53.53 0 0 1 .54-.4.538.538 0 0 1 .56.4l2.98 11.082 3-11.082a.526.526 0 0 1 .521-.439.581.581 0 0 1 .58.58.539.539 0 0 1-.021.18z"/><use xlink:href="#D" x="79.08"/><use xlink:href="#E" x="67.3"/><path d="M982.438 1046.098a2.096 2.096 0 0 1-1.98-2.119v-11.684a.571.571 0 0 1 1.141 0v11.684c0 1.28 1.42.54 1.42 1.44a.645.645 0 0 1-.58.68zm11.422-.118a.564.564 0 0 1-.581-.561v-1a4.538 4.538 0 0 1-3.88 1.9c-3.22 0-5.02-2.64-5.02-5.662 0-3 1.8-5.64 5.02-5.64a4.572 4.572 0 0 1 3.88 1.881v-4.602a.57.57 0 0 1 1.141 0v13.123a.558.558 0 0 1-.56.561zm-4.46-9.822c-2.36 0-3.88 1.9-3.88 4.5s1.52 4.52 3.88 4.52c2.38 0 3.88-1.92 3.88-4.52s-1.5-4.5-3.88-4.5zm19.14 9.822h-5.802a.607.607 0 0 1-.58-.561v-13.123a.496.496 0 0 1 .52-.561h5.42a3.616 3.616 0 0 1 3.601 3.561 3.469 3.469 0 0 1-1.42 2.861 4.1 4.1 0 0 1-1.74 7.822zm-.44-13.123h-4.8v4.92h4.8a2.46 2.46 0 1 0 0-4.92zm.44 6.06h-5.24v5.922h5.24a2.961 2.961 0 1 0 0-5.922zm16.94 7.063h-.02a2.073 2.073 0 0 1-1.98-1.561 4.538 4.538 0 0 1-3.88 1.9c-3.26 0-5.02-2.682-5.02-5.662 0-3.02 1.8-5.64 5.02-5.64a4.572 4.572 0 0 1 3.88 1.881v-.98a.565.565 0 0 1 .581-.561.547.547 0 0 1 .56.561v8.063c0 1.28 1.44.48 1.44 1.44a.55.55 0 0 1-.58.561zm-5.88-9.822c-2.36 0-3.88 1.9-3.88 4.5s1.52 4.52 3.88 4.52c2.38 0 3.88-1.92 3.88-4.52s-1.5-4.5-3.88-4.5zm16.838 9.822a.563.563 0 0 1-.58-.561v-5.842a3.42 3.42 0 0 0-6.841 0v5.842a.571.571 0 0 1-1.141 0v-9.502a.571.571 0 0 1 1.141 0v.64a4.563 4.563 0 0 1 7.981 3.02v5.842a.558.558 0 0 1-.561.561zm10.702-9.644l-3.44 3.44 3.4 5.32a.567.567 0 0 1 .12.32.609.609 0 0 1-.6.541.564.564 0 0 1-.48-.262l-3.28-5.1-2.06 2.08v2.74a.57.57 0 0 1-1.141 0v-13.123a.57.57 0 0 1 1.141 0v8.762l5.52-5.52a.567.567 0 0 1 .421-.18.577.577 0 0 1 .58.561.559.559 0 0 1-.181.42z"/></g><path d="M956.94 602.845h-7.86q-.45.045-.404-.45v-2.3q-.045-.448.404-.404h7.86q.494.1.45-.404V591.4q-.1-.494.404-.45h2.38q.494-.044.404.45v7.906q-.045.495.45.404h7.86q.448-.044.404.404v2.3q.044.45-.404.45h-7.86q-.495-.1-.45.404v7.906q.1.495-.404.404h-2.38q-.45.045-.404-.404v-7.906q.044-.494-.45-.404h0zm21.185-17.385l.54-.404h3.2c.33 0 .48.15.45.45v28.4q-.1.495.404.45h5.84q.494-.1.404.404v2.2c.03.33-.105.464-.404.404h-15.902c-.33.06-.48-.074-.45-.404v-2.2q-.045-.494.45-.404h6.064q.448.045.404-.45v-23.943q-.045-.54-.45-.1a19.716 19.716 0 0 1-6.154 3.594q-.36.18-.404-.225v-2.3a.435.435 0 0 1 .314-.404 11.292 11.292 0 0 0 5.705-5.076h0zm27.72 16.666q0-.448-.404-.135-1.438 1.887-5.525 2.2a8.069 8.069 0 0 1-6.289-2.785 10.553 10.553 0 0 1-2.336-6.963 10.949 10.949 0 0 1 2.381-7.008 8.644 8.644 0 0 1 13.072-.045 11.111 11.111 0 0 1 2.381 7.188v14.06a10.043 10.043 0 0 1-2.381 6.693 8.781 8.781 0 0 1-6.648 2.785 9.106 9.106 0 0 1-5.795-1.977 7.735 7.735 0 0 1-2.785-5.211q-.1-.404.404-.404h2.56q.448 0 .494.54a5.561 5.561 0 0 0 1.527 2.785 6.029 6.029 0 0 0 7.861-.629 6.959 6.959 0 0 0 1.482-4.582zm0-7.77a7.983 7.983 0 0 0-1.437-4.896 5.126 5.126 0 0 0-4.223-1.977 4.952 4.952 0 0 0-4.133 1.977 8.476 8.476 0 0 0-1.482 4.986 8.116 8.116 0 0 0 1.438 4.896 4.913 4.913 0 0 0 4.088 1.887q5.704-.36 5.75-6.873h0zm19.995 12.127q-.045.495.404.45h2.74q.494-.1.404.404v2.2q.1.495-.404.45h-2.74q-.45-.1-.404.404v6.47q.1.584-.404.494h-2.3c-.3.06-.435-.104-.404-.494v-6.47q.1-.494-.404-.404h-10.422q-.45.045-.404-.45v-2.83l.18-.764 9.568-20.53a.593.593 0 0 1 .629-.359h3.55q.494-.044.404.45zm-11.275 0q-.27.495.27.45h7.502q.494.045.404-.45v-16.8q-.1-.54-.36-.1zm22.607-20.753a3.395 3.395 0 0 1 .891 2.357v1.624a3.391 3.391 0 0 1-.891 2.356 3.101 3.101 0 0 1-2.305.943 3.068 3.068 0 0 1-2.278-.943 3.329 3.329 0 0 1-.917-2.356v-1.624a3.333 3.333 0 0 1 .917-2.357 3.071 3.071 0 0 1 2.278-.942 3.104 3.104 0 0 1 2.305.942zm-3.536 18.333h-1.152c-.2.017-.262-.07-.157-.262l10.8-18.36c.07-.2.184-.297.34-.262h1.152c.192-.018.244.062.157.235l-10.816 18.36q-.105.313-.314.288zm-.498-14.43q.105 1.834 1.73 1.86 1.65-.025 1.73-1.86v-1.467q-.078-1.833-1.73-1.86-1.624.026-1.73 1.86zm6.783 13.88a3.3 3.3 0 0 1-.917-2.331v-1.598a3.298 3.298 0 0 1 .917-2.331 3.119 3.119 0 0 1 2.278-.916 3.153 3.153 0 0 1 2.305.916 3.358 3.358 0 0 1 .891 2.331v1.598a3.36 3.36 0 0 1-.891 2.331 3.104 3.104 0 0 1-2.305.942 3.071 3.071 0 0 1-2.278-.942zm4.007-2.4v-1.44q-.078-1.78-1.73-1.807-1.624.026-1.73 1.807v1.44q.105 1.808 1.73 1.834 1.65-.026 1.73-1.834h0z" opacity=".7" fill="#fff"/><path d="M1023.47 564.725v-323.85a47.273 47.273 0 0 0-47.273-47.273H814.44m0 800h161.756a47.273 47.273 0 0 0 47.273-47.273v-306.2" opacity=".7" fill="none" stroke="#fff" stroke-miterlimit="10" stroke-width="2" stroke-dasharray="2 6"/><g fill="#ff0"><use xlink:href="#F"/><path d="M537.265 888.394q0-.4-.352-.117-1.25 1.64-4.805 1.914a7.016 7.016 0 0 1-5.469-2.422 9.176 9.176 0 0 1-2.031-6.055 9.521 9.521 0 0 1 2.07-6.094 7.517 7.517 0 0 1 11.367-.039 9.663 9.663 0 0 1 2.07 6.25v12.227a8.733 8.733 0 0 1-2.07 5.82 7.635 7.635 0 0 1-5.781 2.422 7.919 7.919 0 0 1-5.039-1.719 6.725 6.725 0 0 1-2.422-4.531q-.08-.352.352-.352h2.227q.4 0 .43.47a4.834 4.834 0 0 0 1.328 2.422 5.243 5.243 0 0 0 6.836-.547 6.051 6.051 0 0 0 1.289-3.984zm0-6.758a6.942 6.942 0 0 0-1.25-4.258 4.458 4.458 0 0 0-3.672-1.719 4.307 4.307 0 0 0-3.594 1.719 7.37 7.37 0 0 0-1.289 4.336 7.056 7.056 0 0 0 1.25 4.258 4.272 4.272 0 0 0 3.555 1.641q4.96-.312 5-5.977h0z"/><use xlink:href="#G"/><path d="M573.287 875.23a8.312 8.312 0 0 1 2.227 5.82v13.203a8.453 8.453 0 0 1-2.227 5.859 7.77 7.77 0 0 1-5.664 2.305 7.855 7.855 0 0 1-5.664-2.305 8.3 8.3 0 0 1-2.187-5.859V881.05a8.162 8.162 0 0 1 2.188-5.82 7.652 7.652 0 0 1 5.664-2.305 7.572 7.572 0 0 1 5.664 2.305zm-10.586 5.82v13.203a5.892 5.892 0 0 0 1.328 3.906 5.001 5.001 0 0 0 7.188 0 5.788 5.788 0 0 0 1.367-3.906V881.05a5.64 5.64 0 0 0-1.367-3.867 5.001 5.001 0 0 0-7.187 0 5.74 5.74 0 0 0-1.328 3.867h0z"/></g><g fill="#fff"><use xlink:href="#H" opacity=".5"/><use xlink:href="#I" opacity=".5"/><path d="M543.98 931.636v-1.8h2.64v-17.4l-2.7.24v-1.32a8.305 8.305 0 0 0 3.419-1.68h1.44v20.16h2.52v1.8zm18.54-17.64c-.3-2.16-1.5-2.52-2.34-2.52-1.92 0-3.12 2.64-3.18 8.67a4.707 4.707 0 0 1 3.33-1.65c2.43 0 4.65 1.74 4.65 6.66 0 4.2-1.8 6.78-4.65 6.78-3.75 0-5.55-2.16-5.55-9.96 0-8.7 2.04-12.3 5.46-12.3 2.8 0 3.84 1.68 4.26 4.2zm-5.58 10.2c0 4.38 1.14 5.94 3.06 5.94 1.68 0 2.82-1.26 2.82-5 0-3.87-1.32-4.83-2.7-4.83a4.11 4.11 0 0 0-3.18 1.859z" opacity=".5"/></g><g fill="#ff0"><path d="M513.5 744.787c0-.26-.117-.4-.352-.4a7.007 7.007 0 0 1-4.336-2.734 7.341 7.341 0 0 1-1.445-4.414q-.117-.586.43-.508h1.68q.703-.078.78.47a5.647 5.647 0 0 0 1.25 3.32 4.471 4.471 0 0 0 3.438 1.367q4.648-.195 4.766-4.648a4.405 4.405 0 0 0-1.719-3.75 22.907 22.907 0 0 0-4.18-2.227 11.892 11.892 0 0 1-4.023-2.773 6.768 6.768 0 0 1-1.68-4.609 7.136 7.136 0 0 1 5.547-7.07c.234 0 .352-.143.352-.43v-3.906q-.08-.43.352-.352h2.03c.26-.025.4.092.4.352v3.828c-.026.287.078.43.313.43a6.458 6.458 0 0 1 4.18 2.539 7.341 7.341 0 0 1 1.367 4.375q.117.625-.4.508h-1.72q-.665.08-.742-.47-.08-4.18-4.453-4.375a4.138 4.138 0 0 0-3.203 1.289 4.39 4.39 0 0 0-1.133 3.125 4.262 4.262 0 0 0 1.484 3.359 15.691 15.691 0 0 0 3.555 2.031 15.562 15.562 0 0 1 4.883 3.203 6.757 6.757 0 0 1 1.68 4.805 7.569 7.569 0 0 1-1.68 5 6.94 6.94 0 0 1-4.336 2.344q-.352 0-.352.4v3.828q.078.43-.352.4h-2.03q-.4.038-.352-.352zm14.3-6.6q.312 4.22 4.688 4.414a4.423 4.423 0 0 0 3.32-1.328 5.338 5.338 0 0 0 1.289-3.711v-3.555a5.114 5.114 0 0 0-1.133-3.437 4.2 4.2 0 0 0-3.281-1.406 5.711 5.711 0 0 0-3.867 1.328.445.445 0 0 1-.508.195h-1.914q-.43.08-.352-.352v-13.398q-.08-.43.352-.352H538.6q.43-.078.352.352v1.992q.078.43-.352.4h-9.53q-.4-.078-.352.352v7.734c0 .234.117.287.352.156a8.243 8.243 0 0 1 3.867-.898 6.919 6.919 0 0 1 5.078 1.992 7.362 7.362 0 0 1 1.992 5.352v3.555a7.651 7.651 0 0 1-2.227 5.586 7.744 7.744 0 0 1-5.391 2.148 7.255 7.255 0 0 1-5.234-2.07 7.53 7.53 0 0 1-2.148-5.156q-.08-.4.352-.352h2.03q.43-.038.43.47h0z"/><use xlink:href="#G" x="0.115" y="-157.043"/><path d="M563.284 741.39q-.04.39.352.352h11.406q.43-.078.352.352v2.11c.052.287-.065.416-.352.39h-14.336c-.287.025-.404-.104-.352-.39v-2.148q.195-5.273 3.047-8.008a72.871 72.871 0 0 1 5.664-4.922 7.383 7.383 0 0 0 3.086-5.625 5.274 5.274 0 0 0-1.172-3.437 3.993 3.993 0 0 0-3.164-1.406 4.343 4.343 0 0 0-3.437 1.484 5.636 5.636 0 0 0-1.289 3.516c.025.365-.117.52-.43.47h-2.11q-.43.08-.352-.352a8.617 8.617 0 0 1 2.227-5.508 7.112 7.112 0 0 1 5.43-2.383 7.028 7.028 0 0 1 5.195 2.148 7.598 7.598 0 0 1 2.109 5.352 8.787 8.787 0 0 1-3.047 6.602l-5.664 4.727a9.051 9.051 0 0 0-3.164 6.68h0z"/></g><g fill="#fff"><use xlink:href="#H" x="0.114" y="-157.044" opacity=".5"/><use xlink:href="#I" x="0.115" y="-157.044" opacity=".5"/><use xlink:href="#I" x="12.535" y="-157.044" opacity=".5"/><path d="M559.995 774.892c-3.36 0-5.34-2.64-5.34-5.76a7.251 7.251 0 0 1 3.48-6.06c-1.92-1.53-3-3.03-3-5.58a4.86 4.86 0 1 1 9.72 0c0 2.55-1.08 4.05-3 5.58a7.251 7.251 0 0 1 3.48 6.06c0 3.12-1.98 5.76-5.34 5.76zm0-10.68c-1.74 1.29-3.18 2.67-3.18 5 0 1.77.96 3.87 3.18 3.87s3.18-2.1 3.18-3.87c0-2.34-1.44-3.72-3.18-5zm0-9.78a2.638 2.638 0 0 0-2.7 2.82 3.159 3.159 0 1 0 5.399 0 2.638 2.638 0 0 0-2.7-2.82z" opacity=".5"/></g><g fill="#ff0"><use xlink:href="#F" y="-455.5"/><path d="M532.108 444.144a4.713 4.713 0 0 0 3.555-1.602 5.617 5.617 0 0 0 1.328-3.828 6.337 6.337 0 0 0-1.562-4.453 5.5 5.5 0 0 0-4.062-1.562h-.47q-.4.04-.352-.4v-1.875q-.04-.43.352-.352h.234a5.224 5.224 0 0 0 3.828-1.523 5.513 5.513 0 0 0 1.484-3.984q-.234-4.14-4.062-4.375a4.008 4.008 0 0 0-2.773 1.055 4.856 4.856 0 0 0-1.445 3.086c0 .365-.13.52-.4.47h-2.1c-.312.053-.43-.078-.352-.4a7.763 7.763 0 0 1 2.227-4.961 6.978 6.978 0 0 1 9.844 0 7.282 7.282 0 0 1 2.031 5.117 6.908 6.908 0 0 1-1.328 4.219 7.416 7.416 0 0 1-2.734 2.266c-.2.13-.195.273.04.43a8.568 8.568 0 0 1 3.008 2.305 7.514 7.514 0 0 1 1.563 4.922 8.502 8.502 0 0 1-2.266 5.742 7.823 7.823 0 0 1-5.625 2.461 7.566 7.566 0 0 1-5.234-2.031 7.962 7.962 0 0 1-2.383-5.664c-.053-.156.064-.26.352-.312h2.1q.43-.078.43.47.352 4.57 4.766 4.766h0zm13.48-1.21q-.04.4.352.352h11.406q.43-.078.352.352v2.1c.052.287-.065.416-.352.4H543c-.287.025-.404-.104-.352-.4V443.6q.195-5.273 3.047-8.008a72.872 72.872 0 0 1 5.664-4.922 7.383 7.383 0 0 0 3.086-5.625 5.274 5.274 0 0 0-1.172-3.437 3.993 3.993 0 0 0-3.164-1.406 4.343 4.343 0 0 0-3.437 1.484 5.636 5.636 0 0 0-1.289 3.516c.025.365-.117.52-.43.47h-2.1q-.43.08-.352-.352a8.617 8.617 0 0 1 2.227-5.508 7.112 7.112 0 0 1 5.43-2.383 7.028 7.028 0 0 1 5.195 2.148 7.598 7.598 0 0 1 2.109 5.352 8.787 8.787 0 0 1-3.047 6.602l-5.664 4.727a9.051 9.051 0 0 0-3.164 6.68h0zm27.7-23.203a8.312 8.312 0 0 1 2.227 5.82v13.203a8.453 8.453 0 0 1-2.227 5.859 7.77 7.77 0 0 1-5.664 2.305 7.855 7.855 0 0 1-5.664-2.305 8.3 8.3 0 0 1-2.187-5.859V425.55a8.162 8.162 0 0 1 2.188-5.82 7.652 7.652 0 0 1 5.664-2.305 7.572 7.572 0 0 1 5.664 2.305zm-10.586 5.82v13.203a5.892 5.892 0 0 0 1.328 3.906 5.001 5.001 0 0 0 7.188 0 5.788 5.788 0 0 0 1.367-3.906V425.55a5.64 5.64 0 0 0-1.367-3.867 5.001 5.001 0 0 0-7.187 0 5.74 5.74 0 0 0-1.328 3.867h0z"/></g><g fill="#fff"><use xlink:href="#H" y="-455.5" opacity=".5"/><use xlink:href="#I" y="-455.5" opacity=".5"/><use xlink:href="#I" x="12.42" y="-455.5" opacity=".5"/><use xlink:href="#I" x="24.84" y="-455.5" opacity=".5"/><path d="M81.133 83.02c-13.2 0-17.46-11.1-17.46-22.38 0-11.58 4.56-22.44 17.46-22.44 5.46 0 10.02 1.92 13.32 6.54a2.559 2.559 0 0 1 .539 1.5 2.873 2.873 0 0 1-2.88 2.58c-1.08 0-1.2-.48-2.16-1.56-1.92-2.34-4.5-3.9-8.82-3.9-9.24 0-12.3 7.86-12.3 17.28 0 8.22 2.22 17.28 12.3 17.28 7.32 0 11.7-5.22 12.12-13.86h-5.4a2.501 2.501 0 0 1-2.64-2.579 2.472 2.472 0 0 1 2.521-2.58h8.22a2.52 2.52 0 0 1 2.641 2.64c-.24 11.22-4.74 21.48-17.46 21.48z"/><use xlink:href="#J"/><use xlink:href="#K"/><path d="M162.79 83.02a14.196 14.196 0 0 1-9.899-3.6 2.453 2.453 0 0 1-2.641 2.52 2.421 2.421 0 0 1-2.52-2.52V41.862a2.58 2.58 0 0 1 5.16-.06v11.22a13.317 13.317 0 0 1 9.899-3.9c9.66 0 15.06 7.92 15.06 16.92 0 9.06-5.4 16.98-15.06 16.98zm0-28.8c-6 0-9.9 4.68-9.9 11.82 0 7.2 3.9 11.88 9.9 11.88s9.9-4.68 9.9-11.88c0-7.14-3.9-11.82-9.9-11.82z"/><use xlink:href="#L"/><use xlink:href="#J" x="114.957"/></g><g fill="#ff0"><path d="M269.108 82a2.52 2.52 0 0 1-2.64-2.52V61.66h-19.8v17.82a2.58 2.58 0 0 1-5.159 0V41.802a2.58 2.58 0 0 1 5.159 0v14.76h19.8v-14.7a2.58 2.58 0 1 1 5.159 0V79.42a2.541 2.541 0 0 1-2.52 2.58z"/><use xlink:href="#M"/><use xlink:href="#L" x="127.917"/><use xlink:href="#J" x="242.874"/><use xlink:href="#N"/><path d="M397.565 82a2.423 2.423 0 0 1-2.52-2.52V62.8a8.55 8.55 0 1 0-17.1 0v16.62a2.55 2.55 0 0 1-2.64 2.64 2.472 2.472 0 0 1-2.52-2.58V41.862a2.58 2.58 0 0 1 5.159-.06v10.38a12.097 12.097 0 0 1 8.52-3.06 13.79 13.79 0 0 1 13.68 13.68v16.62a2.454 2.454 0 0 1-2.58 2.58zm48.06 0h-24.96a2.601 2.601 0 0 1-2.64-2.52V41.862a2.612 2.612 0 0 1 2.64-2.58h24.96a2.425 2.425 0 0 1 2.52 2.52 2.504 2.504 0 0 1-2.52 2.58h-22.44V56.5h15.72a2.561 2.561 0 0 1 2.58 2.58 2.523 2.523 0 0 1-2.58 2.58h-15.72V76.9h22.44a2.471 2.471 0 0 1 2.52 2.58 2.425 2.425 0 0 1-2.52 2.52zm29.94.06a2.251 2.251 0 0 1-1.92-.96l-9.78-11.94-9.78 11.94a2.73 2.73 0 0 1-1.92.9 2.697 2.697 0 0 1-2.7-2.52 2.736 2.736 0 0 1 .72-1.74l10.32-12.66-8.82-10.74a2.506 2.506 0 0 1-.66-1.68 2.705 2.705 0 0 1 2.7-2.58 2.322 2.322 0 0 1 1.92.96l8.22 10.08 8.28-10.08a2.282 2.282 0 0 1 1.801-.96 2.76 2.76 0 0 1 2.76 2.58 2.685 2.685 0 0 1-.66 1.62l-8.88 10.8 10.44 12.66a2.642 2.642 0 0 1 .66 1.74 2.746 2.746 0 0 1-2.7 2.58zm20.46.96a13.128 13.128 0 0 1-9.899-3.96v13.02a2.502 2.502 0 0 1-2.641 2.58 2.472 2.472 0 0 1-2.52-2.58V52.72a2.472 2.472 0 0 1 2.52-2.58 2.502 2.502 0 0 1 2.641 2.58 14.398 14.398 0 0 1 9.899-3.66c9.66 0 15.06 7.92 15.06 16.92 0 9.12-5.4 17.04-15.06 17.04zm0-28.86c-5.94 0-9.9 4.74-9.9 11.82 0 7.2 3.9 11.94 9.9 11.94s9.9-4.68 9.9-11.88c0-7.14-3.9-11.88-9.9-11.88z"/><use xlink:href="#O"/><path d="M573.363 82a2.424 2.424 0 0 1-2.521-2.52V62.8a8.549 8.549 0 1 0-17.099 0v16.62a2.551 2.551 0 0 1-2.641 2.64 2.472 2.472 0 0 1-2.52-2.58V52.66a2.387 2.387 0 0 1 2.52-2.52 2.509 2.509 0 0 1 2.58 1.98 13.703 13.703 0 0 1 22.26 10.68v16.62a2.454 2.454 0 0 1-2.58 2.58zm34.32-.06a2.437 2.437 0 0 1-2.58-2.52 14.515 14.515 0 0 1-9.899 3.6c-9.66 0-15.06-7.92-15.06-16.98 0-9 5.4-16.92 15.06-16.92a13.222 13.222 0 0 1 9.899 3.9V41.86a2.58 2.58 0 0 1 5.16-.06v37.62a2.436 2.436 0 0 1-2.58 2.52zm-12.48-27.72c-6 0-9.9 4.68-9.9 11.82 0 7.2 3.9 11.88 9.9 11.88 6.06 0 9.9-4.68 9.9-11.88 0-7.14-3.84-11.82-9.9-11.82zm23.94-8.94a4.32 4.32 0 1 1 4.32-4.319 4.302 4.302 0 0 1-4.32 4.319zm0 36.72a2.52 2.52 0 0 1-2.64-2.52V52.72a2.533 2.533 0 0 1 2.64-2.58 2.472 2.472 0 0 1 2.521 2.58v26.76a2.421 2.421 0 0 1-2.521 2.52z"/><use xlink:href="#N" x="270.895"/><path d="M667.98 82.06a2.446 2.446 0 0 1-2.521-1.98 13.965 13.965 0 0 1-8.64 3 13.79 13.79 0 0 1-13.679-13.68V52.78a2.58 2.58 0 0 1 5.159-.06V69.4a8.55 8.55 0 1 0 17.1 0V52.78a2.393 2.393 0 0 1 2.52-2.64 2.454 2.454 0 0 1 2.58 2.58v26.82a2.39 2.39 0 0 1-2.52 2.52z"/><use xlink:href="#P"/><path d="M718.79 68.68h-22.2c.84 5.64 4.44 9.24 9.72 9.24a9.007 9.007 0 0 0 7.14-3.12 2.483 2.483 0 0 1 1.859-.96 2.8 2.8 0 0 1 2.7 2.64c0 .72-.18 1.26-1.44 2.52a14.622 14.622 0 0 1-10.26 4.02c-9.66 0-15.06-7.98-15.06-16.98 0-8.94 5.4-16.92 15.06-16.92 9.78 0 15 7.98 15 16.92a2.558 2.558 0 0 1-2.52 2.64zM706.3 54.22c-5.64 0-8.94 4.14-9.72 9.3h19.44c-.84-5.76-4.44-9.3-9.72-9.3z"/></g><g fill="#fff"><path d="M755.688 63.52h-12.84v15.9a2.58 2.58 0 0 1-5.159.06V41.862a2.491 2.491 0 0 1 2.52-2.58h15.54c5.28 0 12.06 4.14 12.06 12.06a12.099 12.099 0 0 1-12.119 12.179zm0-19.14h-12.84v14.04h12.78a7.02 7.02 0 0 0 .061-14.04z"/><use xlink:href="#M" x="494.14"/><path d="M818.327 54.22a8.644 8.644 0 0 0-8.52 8.58v16.62a2.501 2.501 0 0 1-2.64 2.58 2.456 2.456 0 0 1-2.52-2.52V52.72a2.541 2.541 0 0 1 2.52-2.58 2.463 2.463 0 0 1 2.58 2.04 13.874 13.874 0 0 1 8.579-3.06 2.552 2.552 0 1 1 0 5.1zm22.08 10.8h-17.16a2.55 2.55 0 1 1 0-5.1h17.16a2.55 2.55 0 0 1 0 5.1zm25.26-1.5h-12.84v15.9a2.58 2.58 0 0 1-5.16.06V41.862a2.491 2.491 0 0 1 2.52-2.58h15.54c5.28 0 12.06 4.14 12.06 12.06a12.099 12.099 0 0 1-12.12 12.179zm0-19.14h-12.84v14.04h12.78a7.02 7.02 0 0 0 .06-14.04z"/><use xlink:href="#O" x="366.042"/><use xlink:href="#P" x="238.004"/><use xlink:href="#Q"/><use xlink:href="#K" x="843.874"/><path d="M1016.384 82a2.423 2.423 0 0 1-2.52-2.52V62.8a8.55 8.55 0 1 0-17.1 0v16.62a2.55 2.55 0 0 1-2.64 2.64 2.472 2.472 0 0 1-2.52-2.58V52.66a2.387 2.387 0 0 1 2.52-2.52 2.509 2.509 0 0 1 2.58 1.98 13.702 13.702 0 0 1 22.259 10.68v16.62a2.454 2.454 0 0 1-2.58 2.58zm-734.83 61.2a2.52 2.52 0 0 1-2.64-2.52v-17.82h-19.8v17.82a2.58 2.58 0 0 1-5.159 0v-37.678a2.58 2.58 0 0 1 5.159 0v14.76h19.8v-14.7a2.58 2.58 0 1 1 5.159 0v37.558a2.541 2.541 0 0 1-2.52 2.58z"/><use xlink:href="#L" x="107.602" y="61.2"/><use xlink:href="#Q" x="-606.492" y="61.2"/><path d="M391.41 143.2a2.546 2.546 0 0 1-2.159-1.32l-20.16-30.3v29.04a2.502 2.502 0 0 1-2.641 2.58 2.456 2.456 0 0 1-2.52-2.52v-37.618a2.533 2.533 0 0 1 2.64-2.58 2.478 2.478 0 0 1 2.16 1.26l20.16 30.3v-28.98a2.58 2.58 0 0 1 5.16-.06v37.618a2.571 2.571 0 0 1-2.641 2.58z"/><use xlink:href="#O" x="-115.653" y="61.2"/><path d="M457.41 114.88l-10.92 26.28a2.737 2.737 0 0 1-2.58 2.04 2.906 2.906 0 0 1-2.58-2.04l-10.92-26.28a3.692 3.692 0 0 1-.181-1.08 2.589 2.589 0 0 1 2.641-2.46 2.456 2.456 0 0 1 2.279 1.56l8.76 21 8.76-21a2.584 2.584 0 0 1 4.979.84 2.99 2.99 0 0 1-.239 1.14z"/><use xlink:href="#O" x="-54.813" y="61.2"/><use xlink:href="#R"/><path d="M542.25 143.2H526.1a2.73 2.73 0 0 1-2.64-2.52v-37.618a2.511 2.511 0 0 1 2.52-2.58h14.88a11.255 11.255 0 0 1 11.22 11.1 10.802 10.802 0 0 1-3.42 7.98 12.411 12.411 0 0 1 6.3 10.919 12.804 12.804 0 0 1-12.72 12.72zm-1.38-37.62h-12.24v12.12h12.24a6.06 6.06 0 0 0 0-12.12zm1.38 17.22h-13.62v15.3h13.62a7.65 7.65 0 0 0 0-15.3zm42.598 7.08h-22.2c.84 5.64 4.44 9.24 9.72 9.24a9.004 9.004 0 0 0 7.14-3.12 2.484 2.484 0 0 1 1.86-.96 2.8 2.8 0 0 1 2.7 2.64c0 .72-.18 1.26-1.44 2.52a14.622 14.622 0 0 1-10.26 4.02c-9.66 0-15.06-7.98-15.06-16.98 0-8.94 5.4-16.92 15.06-16.92 9.78 0 15 7.98 15 16.92a2.558 2.558 0 0 1-2.52 2.64zm-12.48-14.46c-5.64 0-8.94 4.14-9.72 9.3h19.44c-.84-5.76-4.44-9.3-9.72-9.3z"/><use xlink:href="#O" x="75.624" y="61.2"/><path d="M648.987 143.2a2.424 2.424 0 0 1-2.52-2.52V124a8.549 8.549 0 1 0-17.099 0v16.62a2.551 2.551 0 0 1-2.641 2.64 2.472 2.472 0 0 1-2.52-2.58v-26.82a2.387 2.387 0 0 1 2.52-2.52 2.509 2.509 0 0 1 2.58 1.98 13.703 13.703 0 0 1 22.26 10.68v16.62a2.454 2.454 0 0 1-2.58 2.58zm48.06 0a2.52 2.52 0 0 1-2.64-2.52v-17.82h-19.8v17.82a2.581 2.581 0 0 1-5.16 0v-37.678a2.581 2.581 0 0 1 5.16 0v14.76h19.8v-14.7a2.58 2.58 0 1 1 5.16 0v37.558a2.541 2.541 0 0 1-2.521 2.58zm11.4-36.72a4.32 4.32 0 1 1 4.32-4.319 4.302 4.302 0 0 1-4.32 4.319zm0 36.72a2.52 2.52 0 0 1-2.64-2.52v-26.76a2.533 2.533 0 0 1 2.64-2.58 2.472 2.472 0 0 1 2.521 2.58v26.76a2.421 2.421 0 0 1-2.521 2.52zm22.56 13.68c-3.66 0-12.72-1.32-12.72-4.92a2.794 2.794 0 0 1 2.58-2.7c1.38 0 .18.18 3.36 1.38a18.754 18.754 0 0 0 6.78 1.14c6.66 0 9.9-3.18 9.9-9.48v-2.7a14.038 14.038 0 0 1-9.899 3.6c-9.48 0-15.06-6.72-15.06-15.96 0-9 5.4-16.92 15.06-16.92 4.2 0 7.44 1.26 9.9 3.84v-.24a2.553 2.553 0 0 1 2.58-2.58 2.519 2.519 0 0 1 2.58 2.58v28.38c0 9.54-5.7 14.58-15.06 14.58zm0-41.458c-6 0-9.9 4.68-9.9 11.82 0 6.84 3.6 10.86 9.9 10.86s9.9-4.02 9.9-10.86c0-7.14-3.84-11.82-9.9-11.82zm45.96 27.778a2.424 2.424 0 0 1-2.52-2.52V124a8.55 8.55 0 1 0-17.099 0v16.62a2.551 2.551 0 0 1-2.641 2.64 2.472 2.472 0 0 1-2.52-2.58v-37.618a2.58 2.58 0 0 1 5.16-.06v10.38a12.097 12.097 0 0 1 8.52-3.06 13.791 13.791 0 0 1 13.68 13.68v16.62a2.454 2.454 0 0 1-2.58 2.58z"/><use xlink:href="#O" x="269.301" y="61.2"/><use xlink:href="#R" x="324.114"/></g></svg>