<svg xmlns="http://www.w3.org/2000/svg" xmlns:xlink="http://www.w3.org/1999/xlink" viewBox="0 0 1080 1080"><style><![CDATA[.X{opacity:.3}.Y{stroke-linejoin:round}.Z{stroke:#ff0}.a{fill:#fff}.b{opacity:.5}.c{stroke-miterlimit:10}.d{stroke-linecap:square}]]></style><linearGradient id="A" gradientUnits="userSpaceOnUse" x1="11.75" y1="11.75" x2="1068.25" y2="1068.25"><stop offset="0" stop-color="#414d0b"/><stop offset=".239" stop-color="#505b0f"/><stop offset=".712" stop-color="#697215"/><stop offset="1" stop-color="#727a17"/></linearGradient><path d="M1080,1040c0,22-18,40-40,40H40c-22,0-40-18-40-40V40C0,18,18,0,40,0h1000c22,0,40,18,40,40V1040z" fill="url(#A)"/><g fill="#ff0" class="X"><path d="M42.328 1046.045c-3.568 0-5.47-1.97-5.503-2.002 0 .935-.7 1.4-1.468 1.4-.7 0-1.4-.467-1.4-1.4v-20.88a1.35 1.35 0 0 1 1.401-1.434c.767 0 1.468.467 1.468 1.4v6.238c1.334-1.368 3.168-2.17 5.503-2.17 5.37 0 8.373 4.403 8.373 9.406 0 5.037-3.002 9.44-8.373 9.44zm0-16c-3.335 0-5.503 2.602-5.503 6.57 0 4.003 2.168 6.604 5.503 6.604s5.504-2.602 5.504-6.604c0-3.97-2.168-6.57-5.504-6.57zm25.555 8.037h-12.34c.467 3.136 2.468 5.137 5.403 5.137 1.5 0 3.002-.533 3.97-1.734.3-.333.634-.533 1.034-.533.734 0 1.5.667 1.5 1.468 0 .4-.1.7-.8 1.4-1.5 1.468-3.57 2.235-5.704 2.235-5.37 0-8.372-4.437-8.372-9.44 0-4.97 3.002-9.406 8.372-9.406 5.437 0 8.34 4.437 8.34 9.406 0 .734-.534 1.468-1.4 1.468zm-6.937-8.038c-3.136 0-4.97 2.3-5.403 5.17H66.35c-.467-3.202-2.468-5.17-5.403-5.17zM88 1045.478c-1.834 0-2.668-1.3-2.97-1.9-1.334 1.468-3.27 2.47-5.87 2.47-5.437 0-8.372-4.47-8.372-9.44s3.002-9.406 8.372-9.406c2.335 0 4.203.834 5.504 2.202v-.134c0-.367.133-1.5 1.4-1.5.7 0 1.468.367 1.468 1.4v12.875c0 .434.3.6.467.6.935 0 1.435.667 1.435 1.434a1.37 1.37 0 0 1-1.435 1.401zm-8.84-15.443c-3.336 0-5.504 2.602-5.504 6.57 0 4.003 2.168 6.604 5.504 6.604 3.37 0 5.504-2.602 5.504-6.604 0-3.97-2.135-6.57-5.504-6.57z"/><use xlink:href="#C"/><path d="M115.158 1045.478h-.567c-3.17 0-4.37-1.668-4.37-4.403V1030.6h-1c-.8 0-1.435-.634-1.435-1.4 0-.8.634-1.435 1.4-1.435h1v-4.637c0-.934.7-1.4 1.435-1.4s1.4.467 1.4 1.4v4.637h2.135c.934 0 1.4.768 1.4 1.4 0 .8-.533 1.434-1.4 1.434h-2.135v10.774c0 .934.333 1.268 1.268 1.268h.833c.868 0 1.435.634 1.435 1.4 0 .8-.533 1.435-1.4 1.435zm4.604-20.415a2.402 2.402 0 1 1 0-4.803 2.402 2.402 0 1 1 0 4.803zm0 20.414c-.733 0-1.467-.5-1.467-1.4V1029.2c0-.935.733-1.435 1.467-1.435a1.37 1.37 0 0 1 1.401 1.435v14.876c0 .935-.7 1.4-1.4 1.4zm10.376-14.877h-1.5v13.442c0 .935-.7 1.4-1.468 1.4-.7 0-1.4-.467-1.4-1.4V1030.6h-1.37c-.9 0-1.4-.667-1.4-1.4 0-.768.5-1.435 1.4-1.435h1.367v-2.27c0-2.135 1.77-3.77 3.836-3.77.968 0 1.468.667 1.468 1.434 0 .7-.5 1.4-1.468 1.4-.566 0-.967.434-.967.9v2.302h1.5c.967 0 1.468.667 1.468 1.435 0 .733-.5 1.4-1.468 1.4z"/><use xlink:href="#C" x="42.068"/><path d="M154.725 1045.544c-1.802 0-3.336-1.534-3.336-3.402v-18.98c0-.967.7-1.434 1.435-1.434s1.435.467 1.435 1.4v19.013c0 .4.3.567.467.567.934 0 1.435.667 1.435 1.435 0 .733-.5 1.4-1.435 1.4zm15.37-.066v-1.264c1.886-.237 2.046-.437 2.046-3.157v-6.7c0-2.8-1.248-4.017-3.064-4.017-1.237 0-2.345.6-3.47 1.493v9.476c0 2.527.187 2.658 2.06 2.896v1.264h-8.968v-1.264c2.254-.33 2.5-.4 2.5-3v-8.2c0-2.446-.303-2.565-2.185-2.922v-1.184c2.173-.292 4.63-.807 6.653-1.533l-.052 2.95 2.6-1.745c1.16-.713 2-1.086 3.16-1.086 3.194 0 5.2 2.338 5.2 6.3v7.5c0 2.54.237 2.657 2.277 2.92v1.264h-8.74zm23.9-3.703c-2.458 3.427-5.488 4.178-7.014 4.178-5.142 0-8.124-3.936-8.124-8.594 0-2.745 1.183-5.396 2.832-7.062 1.74-1.8 3.945-2.814 6.082-2.814 3.73 0 6.396 3.126 6.37 6.347-.014.715-.08 1.277-.612 1.4-.767.184-6.17.5-10.318.647.062 4.587 2.717 6.74 5.556 6.74 1.572 0 3.104-.597 4.543-1.866l.686 1.014zm-7.07-12.7c-1.667 0-3.167 1.807-3.516 4.963l5.486-.118c.6-.026.848-.146.848-.792.04-2.022-1.037-4.053-2.818-4.053zm34.284.145c-1.943.343-2.248.624-3.105 2.765-1.33 3.462-3.102 8.53-4.934 13.94h-1.512l-4.65-11.46-4.55 11.46h-1.472l-4.685-14.192c-.687-1.985-.94-2.274-2.855-2.512v-1.25h9.397v1.25c-2.325.345-2.535.672-2.058 2.133l2.52 8.214c1.507-3.68 2.988-7.62 4.327-11.424h1.456c1.4 3.76 2.986 7.702 4.573 11.568.742-2.107 2.062-5.964 2.557-8.108.412-1.674-.008-2.078-2.753-2.383v-1.25h7.742v1.25zm9.4 3.746c-.92-2.606-2.155-3.984-4.2-3.984-1.206 0-2.225.86-2.225 2.266 0 1.497 1.046 2.264 3.16 3.216 3.278 1.496 5.3 2.787 5.3 5.736 0 3.85-3.6 5.764-6.945 5.764-2.06 0-4.088-.737-4.92-1.16l-.662-4.892 1.252-.224c.8 2.5 2.33 4.75 4.976 4.75 1.505 0 2.438-.952 2.438-2.28 0-1.423-.76-2.333-3.092-3.467-2.67-1.295-5.107-2.64-5.107-5.775 0-3.046 2.533-5.42 6.565-5.42 1.818 0 3.242.396 4.112.567l.62 4.577-1.25.328z"/></g><g fill="#ff0" class="b"><path d="M821 1046.357c-1.2 0-3.22-.42-3.92-1.58-.08-.12-.08-.22-.08-.3 0-.32.28-.602.58-.602.12 0 .32.102.44.28.72.88 2 1.06 2.98 1.06 1.94 0 2.92-.64 2.92-1.94 0-3.02-6.562-1.42-6.562-5.422 0-2.02 2.02-2.8 3.84-2.8 1.04 0 2.64.36 3.44 1.16.12.12.18.26.18.38a.65.65 0 0 1-.62.6c-.12 0-.26-.04-.38-.16-.62-.6-1.74-.84-2.62-.84-1.76 0-2.7.682-2.7 1.66 0 2.8 6.562 1.32 6.562 5.422 0 2.28-2 3.08-4.06 3.08z"/><use xlink:href="#D"/><use xlink:href="#E"/><use xlink:href="#F"/><path d="M865.64 1044.797c-.88.98-2.1 1.52-3.58 1.52-3.22 0-5.02-2.64-5.02-5.662 0-3 1.8-5.64 5.02-5.64 1.48 0 2.7.54 3.58 1.52.12.12.16.262.16.38a.63.63 0 0 1-.58.6c-.14 0-.28-.06-.42-.2-.66-.74-1.58-1.16-2.74-1.16-2.36 0-3.88 1.9-3.88 4.5s1.52 4.52 3.88 4.52c1.16 0 2.08-.44 2.74-1.16.14-.14.28-.2.42-.2.3 0 .58.26.58.58 0 .14-.04.26-.16.398zm11.58-3.56h-8.302c.18 2.28 1.66 3.94 3.84 3.94 1.08 0 2.36-.48 2.94-1.38.14-.22.3-.28.48-.28.3 0 .62.24.62.54 0 .18 0 .22-.38.658-.92 1.082-2.26 1.602-3.66 1.602-3.22 0-5.02-2.64-5.02-5.662 0-3 1.8-5.64 5.02-5.64s5.02 2.66 5.02 5.64c0 .3-.28.58-.56.58zm-4.46-5.08c-2.4 0-3.66 1.84-3.84 3.94h7.7c-.18-2.28-1.66-3.94-3.86-3.94zm8.438 3.26c-.64 0-1.16-.5-1.16-1.14s.52-1.14 1.16-1.14c.62 0 1.12.5 1.12 1.14s-.5 1.14-1.12 1.14zm0 6.563c-.64 0-1.16-.5-1.16-1.14s.52-1.14 1.16-1.14c.62 0 1.12.5 1.12 1.14s-.5 1.14-1.12 1.14zm14.222.34c-4.3 0-5.82-3.56-5.82-7.46 0-3.922 1.52-7.482 5.82-7.482 4.28 0 5.82 3.56 5.82 7.482 0 3.9-1.54 7.46-5.82 7.46zm0-13.803c-3.32 0-4.682 2.6-4.682 6.342 0 3.72 1.36 6.32 4.682 6.32 3.3 0 4.68-2.6 4.68-6.32 0-3.742-1.38-6.342-4.68-6.342z"/><use xlink:href="#E" x="64.62"/><use xlink:href="#F" x="64.62"/><path d="M941.36 1032.455l-3.52 13.104c-.08.28-.3.42-.56.42-.24 0-.48-.14-.54-.42l-3-11.084-2.98 11.084c-.06.28-.3.42-.54.42-.26 0-.48-.14-.56-.42l-3.52-13.104c-.02-.06-.02-.12-.02-.18a.58.58 0 0 1 .58-.58c.26 0 .46.14.52.44l3 11.082 2.98-11.082a.53.53 0 0 1 .54-.4c.26 0 .48.12.56.4l2.98 11.082 3-11.082c.08-.3.28-.44.52-.44a.58.58 0 0 1 .58.58c0 .06 0 .12-.02.18z"/><use xlink:href="#D" x="116.158"/><use xlink:href="#F" x="104.378"/><path d="M963.857 1046.098c-1.08 0-1.98-1-1.98-2.12v-11.684c0-.36.3-.56.58-.56.26 0 .56.2.56.56v11.684c0 1.28 1.42.54 1.42 1.44 0 .34-.24.68-.58.68zm11.42-.118c-.28 0-.58-.2-.58-.56v-1c-.84 1.18-2.14 1.9-3.88 1.9-3.22 0-5.02-2.64-5.02-5.662 0-3 1.8-5.64 5.02-5.64 1.74 0 3.04.72 3.88 1.88v-4.602c0-.36.3-.56.58-.56.26 0 .56.2.56.56v13.123c0 .36-.3.56-.56.56zm-4.46-9.822c-2.36 0-3.88 1.9-3.88 4.5s1.52 4.52 3.88 4.52c2.38 0 3.88-1.92 3.88-4.52s-1.5-4.5-3.88-4.5zm13.337-2.722c-.64 0-1.14-.5-1.14-1.14s.5-1.14 1.14-1.14 1.14.5 1.14 1.14-.5 1.14-1.14 1.14zm0 12.543c-.28 0-.58-.18-.58-.56v-9.502c0-.36.28-.56.58-.56.26 0 .56.18.56.56v9.502c0 .36-.26.56-.56.56zm11.962.001c-.28 0-.58-.2-.58-.56v-5.842c0-1.9-1.52-3.42-3.42-3.42a3.42 3.42 0 0 0-3.421 3.42v5.842c0 .36-.3.56-.56.56-.28 0-.58-.2-.58-.56v-9.502c0-.36.3-.56.58-.56.26 0 .56.2.56.56v.64c.9-.98 2.08-1.54 3.42-1.54a4.6 4.6 0 0 1 4.561 4.561v5.842c0 .36-.3.56-.56.56zm13.14 0h-4.44a.61.61 0 0 1-.58-.561v-13.123c0-.3.28-.56.58-.56h4.44c4.12 0 5.48 3.44 5.48 7.102 0 3.72-1.36 7.143-5.48 7.143zm0-13.123h-3.88v11.982h3.88c3.42 0 4.34-2.96 4.34-5.98 0-3.562-1.24-6.002-4.34-6.002z"/><use xlink:href="#G"/><path d="M1033.736 1045.98h-.62c-1.58 0-2.36-.78-2.36-2.342v-7.14h-1.02c-.36 0-.56-.3-.56-.58 0-.26.2-.56.56-.56h1.02v-3.06c0-.36.3-.56.58-.56s.56.2.56.56v3.06h1.84c.36 0 .56.3.56.56 0 .28-.2.58-.56.58h-1.84v7.14c0 .98.28 1.2 1.22 1.2h.62c.36 0 .56.3.56.58 0 .26-.2.56-.56.56z"/><use xlink:href="#G" x="18.878"/></g><g class="a b"><use xlink:href="#H"/><path d="M44.983 999.156c.28 2.016 1.4 2.352 2.184 2.352 1.792 0 2.912-2.464 2.968-8.092-.812.868-1.904 1.54-3.108 1.54-2.268 0-4.34-1.624-4.34-6.216 0-3.92 1.68-6.328 4.34-6.328 3.5 0 5.18 2.017 5.18 9.296 0 8.12-1.904 11.48-5.096 11.48-2.604 0-3.584-1.568-3.976-3.92l1.848-.112zm5.208-9.52c0-4.1-1.064-5.544-2.856-5.544-1.568 0-2.632 1.176-2.632 4.676 0 3.6 1.232 4.508 2.52 4.508s2.296-.84 2.968-1.736v-1.903zm5.21 8.568c.168 1.456.784 3.304 2.576 3.304 1.736 0 3.024-1.792 3.024-5.292 0-3.78-1.288-4.955-2.772-4.955-1.148 0-2.212.867-2.548 1.96l-1.568-.28.672-10.248h7.112l-.168 1.68h-5.32l-.392 6.16c.7-.588 1.652-.952 2.688-.952 2.352 0 4.312 2.185 4.312 6.58 0 4.62-2.24 7.028-4.928 7.028-2.912 0-4.368-2.185-4.536-4.816l1.848-.168zm14.1 4.984c-3.304 0-4.872-3.08-4.872-10.4S66.196 982.4 69.5 982.4s4.872 3.08 4.872 10.388-1.568 10.4-4.872 10.4zm0-19.096c-1.848 0-2.856 2.07-2.856 8.707s1.008 8.708 2.856 8.708 2.856-2.07 2.856-8.708-1.008-8.707-2.856-8.707z"/></g><path d="M34.23 963l1011.77.118" fill="none" stroke="#fff" stroke-width="2" stroke-dasharray="3.06658,0" enable-background="new" class="X c"/><g class="a b"><use xlink:href="#H" x="470.133" y="-4.376"/><path d="M514.556 994.78c.28 2.016 1.4 2.352 2.184 2.352 1.792 0 2.912-2.464 2.968-8.092-.812.868-1.904 1.54-3.108 1.54-2.268 0-4.34-1.624-4.34-6.216 0-3.92 1.68-6.328 4.34-6.328 3.5 0 5.18 2.017 5.18 9.296 0 8.12-1.904 11.48-5.096 11.48-2.604 0-3.584-1.568-3.976-3.92l1.848-.112zm5.208-9.52c0-4.1-1.064-5.545-2.856-5.545-1.568 0-2.632 1.177-2.632 4.677 0 3.6 1.232 4.508 2.52 4.508s2.296-.84 2.968-1.736v-1.903zm8.566 13.553c-3.136 0-4.984-2.464-4.984-5.376 0-2.492 1.316-4.284 3.248-5.656-1.792-1.428-2.8-2.828-2.8-5.208 0-2.66 2.016-4.536 4.536-4.536s4.536 1.876 4.536 4.536c0 2.38-1.008 3.78-2.8 5.208 1.932 1.372 3.248 3.164 3.248 5.656 0 2.912-1.848 5.376-4.984 5.376zm0-9.968c-1.624 1.203-2.968 2.5-2.968 4.676 0 1.65.896 3.6 2.968 3.6s2.968-1.96 2.968-3.6c0-2.185-1.344-3.473-2.968-4.676zm0-9.13c-1.736 0-2.52 1.345-2.52 2.633 0 2.044 1.008 3.556 2.52 4.48 1.512-.924 2.52-2.436 2.52-4.48 0-1.288-.784-2.633-2.52-2.633zm11.313 19.098c-3.304 0-4.872-3.08-4.872-10.4s1.568-10.388 4.872-10.388 4.872 3.08 4.872 10.388-1.568 10.4-4.872 10.4zm0-19.097c-1.848 0-2.856 2.072-2.856 8.708s1.008 8.708 2.856 8.708 2.856-2.07 2.856-8.708-1.008-8.708-2.856-8.708z"/></g><g class="a b"><use xlink:href="#I"/><path d="M1019.68 998.813c-3.304 0-4.87-3.08-4.87-10.4s1.567-10.388 4.87-10.388 4.872 3.08 4.872 10.388-1.567 10.4-4.872 10.4zm0-19.097c-1.848 0-2.855 2.072-2.855 8.708s1.008 8.708 2.855 8.708 2.856-2.07 2.856-8.708-1.008-8.708-2.856-8.708zm7.505 18.816v-1.68h2.465v-16.24l-2.52.224v-1.23c1.148-.28 2.27-.784 3.192-1.568h1.344v18.816h2.352v1.68h-6.832z"/><use xlink:href="#I" x="32.255"/></g><g class="b"><g class="a"><use xlink:href="#J"/><use xlink:href="#K"/><use xlink:href="#L"/><use xlink:href="#M"/><use xlink:href="#N"/><use xlink:href="#O"/><use xlink:href="#P"/><use xlink:href="#N" x="47.376"/><use xlink:href="#P" x="33.012"/><use xlink:href="#Q"/><use xlink:href="#R"/><use xlink:href="#S"/><use xlink:href="#T"/><use xlink:href="#U"/><use xlink:href="#N" x="132.214"/><use xlink:href="#V"/></g><g fill="#35becd"><use xlink:href="#J"/><use xlink:href="#K"/><use xlink:href="#L"/><use xlink:href="#M"/><use xlink:href="#N"/><use xlink:href="#O"/><use xlink:href="#P"/><use xlink:href="#N" x="47.376"/><use xlink:href="#P" x="33.012"/><use xlink:href="#Q"/><use xlink:href="#R"/><use xlink:href="#S"/><use xlink:href="#T"/><use xlink:href="#U"/><use xlink:href="#N" x="132.214"/><use xlink:href="#V"/></g></g><g class="X"><g class="a"><use xlink:href="#W"/><use xlink:href="#X"/><use xlink:href="#Y"/><use xlink:href="#Z"/><use xlink:href="#a"/><use xlink:href="#K" x="714.354" y="-117.378"/><use xlink:href="#b"/><use xlink:href="#c"/></g><g fill="#fff100"><use xlink:href="#W"/><use xlink:href="#X"/><use xlink:href="#Y"/><use xlink:href="#Z"/><use xlink:href="#a"/><use xlink:href="#K" x="714.354" y="-117.378"/><use xlink:href="#b"/><use xlink:href="#c"/></g><g class="a"><use xlink:href="#d"/><use xlink:href="#e"/><use xlink:href="#f"/><use xlink:href="#g"/><use xlink:href="#h"/><use xlink:href="#i"/><use xlink:href="#j"/><use xlink:href="#k"/><use xlink:href="#l"/><use xlink:href="#m"/><use xlink:href="#n"/></g><g fill="#fff100"><use xlink:href="#d"/><use xlink:href="#e"/><use xlink:href="#f"/><use xlink:href="#g"/><use xlink:href="#h"/><use xlink:href="#i"/><use xlink:href="#j"/><use xlink:href="#k"/><use xlink:href="#l"/><use xlink:href="#m"/><use xlink:href="#n"/></g></g><g fill="none"><g stroke-width="2" stroke-dasharray="0.50832,4.06654" class="Y d"><circle cx="35.782" cy="248.913" r="16.751" stroke="#35becd" class="X"/><g class="Z"><circle cx="1046.28" cy="407.979" r="16.751" class="X"/><circle cx="686.691" cy="132.019" r="16.751" class="X"/></g></g><g class="c"><g stroke-linecap="round" stroke-dasharray="2.29993,0" class="Y Z"><path d="M34.63 812.246l16.302 18.746 16.302-147.474 16.346-68.194 16.302-25.71 16.302-20.13 16.302-5.91 16.346-19.42 16.302-7.83 16.302-6.674 16.302-6.972 16.346 23.563 16.302 20.97 16.302 37.418 16.302-.793 16.346-5.056 16.302 6.794 16.302 11.768 16.3-11.51 16.346 11.764 16.302-11.6 16.3 1.246 16.302 2.474 16.346 1.938 16.302 8.417 16.302 7.35 16.302-14.273 16.346-7.697 16.302-69.16L507.688 503l16.3 1.198 16.346-37.03 16.302-2 16.302 5.564 16.3 6.712 16.346 6.604 16.3-25.584 16.302 6.957 16.302 4.675 16.346-105.615 16.302-80.74 16.3 10.54 16.302 10.65 16.346 64.097 16.302 9.707 16.302 9.494 16.302 9.337 16.346 9.083 16.3 60.948 16.302 7.305 16.302-19.373 16.346-32.587 16.302 2.273 16.3 4.556 16.302-1.562 16.346-1.893 16.302 3.474 16.302 3.103 16.3 2.852 32.648 5.464 16.302-36.224 16.1 2.94" class="X"/><path d="M214.082 829.792l16.302-.71 16.302-43.975 16.302-5.617 16.346 27.068 16.302-15.986 16.302 5.264 16.3 34.3 16.346-14.817 16.302 5.515 16.3-58.4 16.302-2.236 16.346 6.37 16.302-17.813 16.302-147.974 16.302-3.447 16.346-2.817 16.302 53.824 16.302 9.996 16.3-29.66 16.346-12.584 16.302-28 16.302-106.7 16.3 13.154 16.346 14.988 16.3 16.688 16.302 14.01L654.49 553.8l16.346 13.098 16.302 5.232 16.3 12.676 16.302 12.31 16.346 11.678 16.302 83.922 16.302 6.364 16.302 7.63 16.346 5.55 16.3 9.813 16.302 9.48 16.302 1.335 16.346 4.55 16.302 4.89 16.3 3.755 16.302 8.38 16.346 8.608 16.302 6.568 16.302 7.23 16.3 15.356 16.346 5.364 16.302-13.27 16.302 17.854 16.302.607M34.63 852.12l16.302 2.482 16.302-6.83 16.346 2.748 16.302 32.273 32.603 3.826 16.346-93.623 16.302-.704" class="X"/><path d="M34.63 895.53l16.302-49.5 16.302-77.897 16.346-91.886 16.302-63.654 16.302-45.015 16.302 52.356 16.346 9.43 16.302 9.162 16.302 8.92 16.302 12.475 16.346 44.14 16.302 7.118 16.302-17.13 16.302 17.794 16.346 4.56 16.302 18.38 16.302-10.04 16.3 2.355 16.346 5.14 16.302-4.003 16.3 6.89 16.302 5.136 16.346 4.13 16.302 3.604 16.302 4.78 16.302 9.602 16.346 6.14 16.302 2.835 16.302-8.77 16.3 14.386 16.346 1.01 16.302 4.192 16.302 2.268 16.3 2.114 16.346 2.227 16.3.554 16.302 1.64 16.302-4.365 16.346-3.974 16.302.906 16.3-24.668 16.302 2.044 16.346 1.98 32.603 3.86 16.302 21.943 16.346 1.63 16.3.426 16.302 2.553 16.302-3.118 16.346 1.793 16.302-4.147 16.3.718 16.302.507 16.346.584 16.302.91 16.302 1.225 32.648 2.027 16.302.97 16.302 8.426 16.302.846" class="X"/><path d="M34.63 917.106l16.302.727 16.302.802 16.346-6.597 16.302-6.18 16.302 1.26 16.302 1.316 16.346-12.108 32.603 3.38 16.302-4.523 16.346 13.74 16.302-10.212 16.302-32.083 16.302 2.628 16.346-2.83 16.302-7.792 16.302 2.672 16.3 2.53 16.346 2.512 16.302 2.45 16.3-2.004 16.302 2.544 16.346 2.214 16.302 1.68 16.302-15.603 16.302.18 16.346 61.552 16.302-.44 16.302-38.627 16.3-.63 16.346-8.782 16.302-4.12 16.302 4.57 16.3 4.358 16.346-8.894 16.3-65.896 16.302-6.854 16.302 73.384 16.346 8.324 16.302-79.975 16.3 3.39 16.302.905 16.346 6.028L752.39 760.8l16.302-12.857 16.302 5.076 16.346-3.378 16.3-.53L833.94 752l16.302-18.008 16.346-27.76 16.302 16.596 16.3 11.027 16.302 9.482 16.346 7.117 16.302 4.7 16.302 2.92 16.3 45.83 16.346 2.194 16.302-4.63 16.302 4.748 16.302 5.472" class="X"/><path d="M34.63 935.27l16.302-3.033 16.302-2.857 16.346-2.695 16.302-80.658 16.302 5.765 16.302 5.556 16.346 5.352 16.302 5.246 16.302 2.284 16.302 2.376 16.346-11.115 16.302-2.282 16.302 8.273 16.302-9.376 16.346 3.27 16.302-8.345 16.302-7.612 16.3-17.582 16.346 4.737 16.302-5.1 16.3-13.756 16.302 6.143 16.346 6.197 48.905 18.72 16.346 6.057 16.302 5.845 16.302.53 16.3 5.53 16.346 5.167 16.302 3.745 16.302 4.546 16.3 4.263 16.346 3.99 16.3 3.777 16.302 1.333 16.302-1.324 16.346 3.57 16.302-47.252 16.3-19.708 16.302 16.046 16.346 2.576 16.302 7.787 16.302-4.05 16.302.345 16.346 3.683 16.3-2.07 16.302 3.694 16.302-2.94 16.346-2.65 16.302 4.764 16.3 4.703 16.302 4.138 16.346 3.302 16.302 2.486 16.302-9.126 16.3 2.125 16.346 2.41 16.302-3.424 32.603 3.57" class="X"/><path d="M34.63 879.783l16.302-4.4 16.302-6.18 16.346-5.747 16.302-3.354 16.302-4.957 16.302-5.473 16.346-1.77 16.302-3.872 16.302 15.233 16.302-25.324 16.346-22.058 16.302 2.85 16.302 21.007 16.302 3.784 16.346-10.566 16.302 4.012 16.302 3.922 16.3 3.786 16.346 3.664 16.302-2.586 16.3-8.058 16.302 3.955 16.346 3.875 16.302-1.54 16.302-42.43 16.302-29.47 16.346 55.693 16.302-200.346 16.302-62.224 16.3 24.534 16.346 43.442 16.302.524 16.302-12.817 16.3-257.058 16.346 19.454 16.3 10.3 16.302-62.3 16.302-47.064 16.346 21.192 16.302-169.107 16.3 531.364 16.302 47.044 16.346 4.635 16.302-5.684 16.302-8.737 16.302 6.354 16.346 33.674 16.3-4.312 16.302 6.37 16.302 1.7 16.346 16.804 16.302 19.123 16.3 4.895 16.302 49.532 16.346 46.503 16.302-17.287 16.302 2.176 16.3-101.878 16.346-26.377 16.302 5.268 16.302 124.943 16.302-6.177" class="X"/><path d="M34.63 952.833l16.302-1.194 16.302-1.15 16.346-2.316 16.302-2.816 16.302-3.278 16.302-4.276 16.346-5.763 16.302-6.055 16.302-5.25 16.302-4.416 16.346-5.94 16.302-4.037 16.302-1.38 16.302-7.56 16.346-3.44 16.302.428 16.302.908 16.3 1.338 16.346-14.668 16.302 1.208 16.3 1.2 16.302-4.866 16.346-1.1 16.302.136 16.302-.97 16.302 1.333 16.346 2.398 16.302.204 16.302 1.617 16.3 12.786 16.346-7.564 16.302 1.553 16.302 11.155 16.3.675 16.346-.16 16.3-1.08 16.302 1.83 16.302 1.045 16.346-2.937 16.302-7.26 16.3-15.088 16.302 1.45 16.346-8.134 16.302 1.565 16.302 2.198 16.302 1.448 16.346.828 16.3-3.393 16.302-4.798 16.302 1.31 16.346 9.308 16.302-26.11 16.3-9.48 16.302 7.54 16.346 7.466 16.302 12.374 16.302.775 16.3-6.35 16.346.643 16.302.677 16.302.716 16.302.748" class="X"/><path d="M34.63 580.607l16.302 92.078 16.302 6.734 16.346 56.667 16.302 17.354 16.302-.232 16.302-.703 16.346 1.122 16.302.878 16.302 5.687 16.302 15.887 16.346 18.773 16.302-3.957 16.302-17.15 16.302 2.57 16.346.723 16.302-2.725 16.302-2.44 16.3 2.9 16.346 1.21 16.302 6.108 16.3-17.763 16.302 4.75 16.346 18.734 16.302.952 16.302 1.296 16.302-21.494 16.346-22.678 16.302 17.7 16.302 44.187 16.3-35.347 16.346-1.564 16.302-2.28 16.302-8.5 16.3 6.926 16.346 4.887 16.3-6.164 16.302-.03 16.302 10.906 16.346 17.802 16.302 5.725 16.3-3.677 16.302 22.56 16.346 5.977 16.302-21.206 16.302 3.76 16.302.137 16.346 2.09 16.3 7.34 16.302 2.098 16.302 32.853 16.346 18.583 16.302-4.423 16.3 1.256 16.302 1.21 16.346 1.165 16.302 1.117 16.302 1.074 16.3 1.854 16.346.86 48.905 3.05" class="X"/><path d="M34.63 876.7l16.302-4.3 16.302-4.047L83.58 870.4l16.302 2.024 16.302 4.464 16.302 3.876 16.346-3.714 16.302-2.88 16.3-3.18 16.302-25.115 16.346 15.237 16.302-4.612 16.302 3.033 16.302 2.948 16.346.572 16.302.625 16.302 2.457 16.3 2.392 16.346-3.802 16.302-5.525 16.3-1.298 16.302-1.162 16.346-4.702 16.302-6.168 16.302-23.17 16.302-8.316 16.346 28.17 16.302 4.3 16.302-15.502 16.3 36.682 16.346 15.92 16.302 8.117 16.302 2.43 16.3-21.35 16.346 1.144 16.3 2.708 16.302.787 16.302-65 16.346 14.192 16.302 37.48 16.3-2.9 16.302-10.398 16.346 2.396 16.302 2.237 16.302 12.335 16.302-12.35 16.346-7.307 16.3 28.302 16.302 1.24 16.302-7.887 16.346-3.18 16.302 2.033 16.3-2.288 16.302 10.918 16.346 10.68L948.14 869l32.603 2.032 16.346 4.443 16.302 1.002 32.603 2.06m-1011.364 61l16.302.414 16.302.517 16.346-.422 16.302-.38 16.302 6.594 16.302-3.878 16.346 2.07 16.302-2.777 16.302 1.992 16.302-.338 16.346-26.148 16.302 1.224 16.302 4.554L263 920.752l16.346 4.193 16.302.8 16.302.796 16.3.783 16.346.766 16.302 3.537 16.3-2.042 16.302.725 16.346.796 16.302.77 16.302.5 16.302-4.292 32.648 1.077 16.302.5 16.3.538 16.346-1.626 16.302-1.556 32.603 1.153 16.346 2.927 16.3-3.34 16.302-3.2 16.302 4.248 16.346-4.897 16.302-6.124 16.3.64 16.302-9.286 16.346.783 16.302-1.545 16.302.797 16.302.703 16.346-.254 16.3 3.952 16.302.514 16.302 1.57 16.346-3.202 16.302.44 16.3-10.77 16.302-.233 16.346.04 16.302.82 16.302.283 16.3-10.603 16.346-2.33 16.302-3.506 16.302 1.43 16.302.9" class="X"/><path d="M882.89 930.96l16.3-3.924 16.302 8.72 16.346 8.517 16.302.373 16.302-9.64 16.3.125 16.346-.3 16.302-15.956 16.302-15.56 16.302-12.113M833.94 748.318l16.302 7.31M34.63 861.066l16.302 20.257 16.302 1.183L83.58 906.83l16.302.86 16.302-1.46 16.302.95 16.346.97 16.302.977 16.302-6.592 16.302-9.448 16.346-50.46 16.302 8.595 16.302-3.576 16.302.56 16.346 16.707 16.302 2.13 16.302 3.888 16.3 7.306 16.346 1.908 16.302.25 16.3 1.97 16.302 1.926 16.346 1.81 16.302 9.956 16.302-35.915 16.302-7.058 16.346.84 16.302 24.56 16.302 15.18 16.3 32.447 16.346-1.827 16.302-7.996 16.302 5.782 16.3-.848 16.346-1.507 16.3-.566 16.302-2.776 16.302-4.04 16.346.57 16.302-1.11 16.3 11.53 16.302 1.79 16.346 1.907 16.302 1.844" class="X"/><path d="M377.186 868.833l16.302-285.344 16.346 26.185 16.302-159.94 16.302 32.07 16.302-45.952 16.346 107.072 16.302 54.646 16.302 43.3 16.3-179.228 16.346 49.59 16.302 40.233 16.302-11.424 16.3 71.3 16.346 21.583 16.3 17.185 16.302 14.097 16.302 18 16.346 9.908 16.302-127.773 16.3 12.267L719.74 649.4l16.346 8.48 16.302-18.852 16.302 21.552 16.302 15.635 16.346 14.893 16.3-49.886 16.302 5.92 16.302 5.453L866.59 722.3l16.302 85.6 16.3-20.714 16.302 13.432 16.346 15.677 16.302 20.93 16.302 18.976 16.3 14.806 16.346 10.2 16.302 6.47 16.302 3.733 16.302 1.992" class="X"/><path d="M34.63 915.375l16.302-.685 16.302-1.163 16.346-1.087 16.302-.507 16.302-.955 16.302.567 16.346.092 16.302-4.52 16.302-21.482 16.302.996 16.346-22.33 16.302.203 16.302 37.008 16.302-8.59 16.346-15.902 16.302-1.977 16.302.308 16.3 10.848 16.346-10.798 16.302-6.825 16.3-18.302 16.302-22.396 16.346 2.87 16.302-3.508 16.302 5.973 16.302 3.882 16.346 12.732 16.302-25.96 16.302 3.555 16.3 3.46 16.346 3.132 16.302 3.5 16.302 3.614 16.3-2.117 16.346 3.15 16.3 18.968 16.302-9.227 16.302 2.082 16.346 2.857 16.302 6.8 16.3 2.15 16.302 4.018 16.346 1.152 16.302.835 16.302 1.97 16.302 1.884 16.346 1.84 16.3 4.76 16.302 1.382 16.302-1.675 16.346-2.665 16.302 3.318 16.3.053 16.302-.24 16.346-.363 16.302 1.24 16.302 1.225 16.3 1.206 32.648 2.348 16.302 1.137 16.302 5.356" class="X"/><path d="M99.882 799.5l16.302-2.94 16.302-2.545 16.346-2.373 16.302-2.107 16.302-1.754 16.302-1.323 16.346-1.752 16.302-.64 16.302 13.13 16.302 1.47 16.346 4.158 16.302 3.328 16.302-89.936 16.3-11.23 16.346-11.19 16.302 18.843 16.3 3.443 16.302-83.253 16.346 3.842 16.302-6.7 16.302 21.166 16.302 157.57 16.346 8.66 16.302-7.257 16.302 5.08 16.3-49.788 16.346-16.63 16.302 4.6 16.302-1.51 16.3-34.08 16.346 43 16.3-39.576 16.302 5.063 16.302 6.4 16.346 3.62 16.302 39.337 16.3 5.8 16.302 34.228 16.346 3.133 16.302 27.63 16.302 9.654 16.302 1.857 16.346 1.763 16.3 2.74 16.302 23.858 16.302 1.136 16.346-1.008 16.302 3.286 16.3.647 16.302.63 16.346.616 16.302 4.47 16.302.564 65.25 2.244 16.302-2.834" class="X"/><path d="M442.437 900.724L458.738 893l16.346-19.538 16.302 2.332 16.302 2.274 16.3 2.14 16.346-7.49 16.302.612 16.302 2.12 16.3-6.697 16.346-6.254 16.3-3.012 16.302-2.735 16.302-40.524 16.346 14.984 16.302-5.6 16.3-48.96 16.302 42.245 16.346-6.472 16.302 13.318 16.302 25.353 16.302 8.588 16.346 3.22 16.3-.666 16.302 2.93 16.302-4.26 16.346-19.464 16.302 38.524 16.3-12.154 16.302 7.38 16.346 6.934 16.302 2.517 16.302 3.048 16.3 6.628 16.346-2.204 16.302 2.054 16.302 1.954 16.302 1.864" class="X"/><path d="M214.082 921.538l16.302 3.15 16.302-26.127 16.302 5.246 16.346-139.46L295.634 781l16.302 15.41 16.3-22.438 16.346 16.004 16.302 13.837 16.3-48.734 16.302 11.732 16.346 10.844 16.302-1.66 16.302-102.815 16.302 16.692 16.346 166.464 16.302 6.05 16.302-3.077 16.3-2.65 16.346 4.33 16.302-3.473 16.302 4.37 16.3-9.84 16.346-1.6 16.3-7.84 16.302-7.094 16.302 34.167 16.346-24.144 16.302 73.803 16.3-17.172 16.302-41.86 16.346 2.572 16.302-11.94 16.302-29.326 16.302-8.17 16.346-33.52 16.3 44.335 16.302 6.003 16.302 39.553 16.346-6.692 16.302 4.34 16.3 2.867 16.302 3.146 16.346 3.624 16.302 3.984 16.302 4.083 16.3 3.89 16.346 3.512 16.302 3.043 16.302 2.6 16.302 2.25" class="X"/><path d="M34.63 851.75l16.302.987 16.302-2.432 16.346 1.044 16.302-2.34 16.302-2.295 16.302-2.252 16.346 1.028 48.905-6.803 16.346 16.764 16.302-5.47 16.302-2.3 16.302.797 32.648 1.7 16.302.9 16.3.94 16.346.87 16.302.696 16.3.687 16.302.78 16.346-10.814 16.302-2.188 16.302 6.33 16.302-2.325 16.346.465 16.302-2.38 16.302.387 16.3.357 16.346 3.167 16.302-2.38 16.302-2.417 16.3 5.845 16.346 8.586 16.3-5.148 16.302.497 16.302-4.885 16.346-7.642 16.302-21.158 16.3 27.47 16.302 13.937 16.346 11.172 16.302-2.386 16.302-12.42 16.302.5 16.346 13.52 16.3.252 16.302.442 16.302 15.782 16.346.75 32.603.69 16.302 2.902 16.346.504 16.302.62 16.302 7.957 16.3 17.394 16.346-6.625 16.302-11.17 16.302-4.02 16.302 5.175" class="X"/><path d="M34.63 917.687l16.302-1.52 16.302.85 16.346.53 16.302.782 16.302 15.243 16.302.31 16.346-9.878 16.302.59 16.302.642 16.302-43.292 16.346-357.46 16.302 7.15 16.302 301.84 16.302-41.817 16.346 4.163 16.302 3.546 16.302 2.977 16.3 2.7 16.346-38.215 16.302 2.777 16.3 2.846 16.302-14.594 16.346 21.402 16.302 2.924 16.302 27.13 16.302-4.008 16.346-87.855 16.302-9.435 16.302 1.944 16.3-11.642 16.346-5.872 16.302-3.75 16.302-20.477 16.3-50.904 16.346 3.495 16.3 3.326 16.302 3.293 16.302 3.5 16.346 3.436 16.302 3.064 16.3 3.566 16.302 131.164 16.346 1.235 16.302 37.27 16.302 73.2 16.302.258 16.346 15.75 16.3.29 16.302 5.34 16.302-7.97 16.346 12.05 16.302.23 16.3.142 16.302-1.914 16.346-.93 16.302.04 16.302.004 81.552-.136" class="X"/><path d="M34.63 837.04l16.302 1.123 16.302 1.246 16.346 1.388 16.302 1.328 16.302 1.298 16.302 1.243 16.346 1.088 16.302.916 16.302.876 16.302.862 16.346-14.607 16.302 3.364 16.302 31.143 16.302-12.047 16.346.33 16.302.37 16.302.54 16.3.43 16.346-.043 16.302-.386 16.3.13 16.302.598 16.346.55 16.302.522 16.302.413 16.302 9.973 16.346-9.4 16.302.284 16.302 10.1h16.3l16.346.358 16.302.48 16.302-8.898 16.3.5 16.346.382 16.3 7.27 16.302.244 16.302-6.684 16.346 2.635 16.302 18.718 16.3-1.88 16.302-1.86 16.346 4.862 16.302-8.675 16.302 7.014 16.302-6.447 16.346.228 16.3.21 16.302.165 16.302 6.783 32.648.326 16.3 11.128 16.302-2.015 16.346.2 16.302.255 16.302-1.883 32.648.61 16.302 13.04 16.302 2.3 16.302.164" class="X"/><path d="M34.63 856.135l16.302.642 16.302.435 16.346-.895 16.302-2.243 16.302.477 16.302-.884 16.346.392 16.302.53 16.302.593 16.302 1.895 16.346 3.777 16.302-5.46 16.302-81.038 16.302-195.743 16.346 177.918 16.302-38.05 16.302-6.43 16.3-24.734 16.346-13.086 16.302-7.97 16.3-33.255 16.302-13.757 16.346-27.66 16.302-2.78 16.302 237.257 16.302 29.292 16.346 4.695 16.302-1.348 16.302 2.227 16.3-7.156 16.346.898 16.302-2.84 16.302-1.852 16.3-7.63 16.346-2.03 16.3 1.14 16.302-4.767 16.302.833 16.346-.372 16.302 19.152 16.3.872 16.302 6.904 16.346 14 16.302-62.11 16.302 50.87 16.302 5.85 16.346.094 16.3 1.727 16.302.033 16.302 30.083 16.346 3.223 16.302.484 16.3-.895 16.302.183 16.346.154 16.302.12 16.302 1.17 16.3 1.143 48.95.123 16.302.026" class="X"/><path d="M719.74 870.857l16.346 16.99 16.302-28.776 16.302 40.16 16.302.086 16.346-.115 16.3.173 16.302-.115 16.302 5.663 16.346 5.888 16.302-5.784 16.3 17.233 16.302.07 16.346-5.624 16.302.18 16.302.217 16.3 5.854 16.346-5.39 16.302.2 16.302-5.387 16.302.13" class="X"/><path d="M34.63 793.875l16.302-5.55 16.302-8.227 16.346-10.572 16.302-10.44 16.302-13.3 16.302-12.07 16.346-12.335 16.302-9.727 16.302-5.382 16.302-5.815 16.346 78.107 16.302 6.8 16.302-4.234L263 793.572l16.346 26.1 16.302 2.293 16.302-2.413 16.3 6.725 16.346 1.04 16.302 1.154 16.3 2.317 16.302 2.2 16.346-3.585 16.302.005 32.603 1.003 16.346.776 16.302 1.185 16.302 1.172 16.3 1.262 16.346.68 16.302.034 16.302.55 16.3 2.106 16.346 2.206 16.3 1.578 16.302.365 16.302.803 16.346.614 16.302 1.426 16.3.625 16.302 3.005 16.346 7.654 16.302.426 16.302.803 16.302.987 16.346 5.454 16.3 5.18 16.302 5.73 16.302 24.816 16.346 4.2 16.302 3.183 16.3.58 16.302.755 16.346.718 16.302.307 16.302.277 16.3.256 16.346-17.547 16.302.348 16.302 20.827 16.302.238M34.63 919.028l16.302 2.245 16.302 2.323 32.648 4.233 16.302 1.923 16.302 1.846 16.346-1.447 16.302-1.487 16.302.685 16.302 1.534 16.346-1.56 16.302.073 16.302-1.5 16.302.25 16.346.56 16.302-1.547 16.302-4.134 16.3.3 16.346-2.15 16.302.9 16.3-39.306 16.302 11.743 16.346-17.408 16.302 14.124 16.302-15.26 16.302-13.517 16.346 5.218 16.302 12.923 16.302-1.448 16.3 12.95 16.346-10.552 16.302-1.325 16.302 16.092 16.3 1.86 16.346 1.33 16.3 1.762 16.302 1.93 16.302 1.648 16.346-2.575 16.302-1.468 16.3.143 16.302.182 16.346 1.613L752.4 904.3l16.302 1.373 16.302 1.625 16.346-1.05 16.3 4.95 16.302 1.243 16.302-.432 16.346-5.076 16.302 2.44 16.3.846 16.302.818 16.346.887 32.603 1.626 16.3.795 16.346.902 16.302.73 16.302.697 16.302-.925" class="X"/><path d="M34.63 804.05l16.302-33.955 16.302 1.176 16.346 1.7 16.302 1.4 16.302 3 16.302 27.96 16.346 27.068 16.302-5.395 16.302-5.683 16.302-5.524 16.346-51.034 16.302 6.06 16.302 34.082 16.302.914 16.346-4.01 16.302 28.366 16.302 13.972 16.3 2.487 16.346 1.59 16.302-10.54 16.3-2.644 16.302 1.136 16.346 15.2 16.302-13.113 16.302.13 16.302 1.108 16.346 7.474 16.302.466 16.302.438 32.648.462 16.302.094 16.302-9.26 16.3-1.645 32.648.033 16.302-4.37 16.302 14.48 16.346 6.873 16.302 40.1 16.3-37 16.302 12.812 16.346-14.18 16.302-.106 16.302-.22 16.302-.325 16.346-.193 16.3-.4 16.302 14.966 16.302-19.215 16.346 53.383 16.302 1.68 16.3-2.682 16.302 1.44 16.346 1.96 16.302-.11 16.302 13.893 16.3-2.164 16.346.43 16.302-.09 16.302.433 16.302-1.143" class="X"/><path d="M34.63 883.557l16.302 1.528 16.302-.32L83.58 868.6l16.302-6.9 16.302 23.847 16.302 1.74 16.346 3.26 16.302 3.108 16.302-.104 16.302 1.633 16.346-30.742 16.302 2.227 16.302-14.567L263 861.366l16.346 2.133 16.302 8.52 16.302-4.598 16.3 1.816 16.346 1.716 16.302 1.614 16.3 1.52 16.302-4.354 16.346 1.466 16.302-15.423 16.302-20.468 16.302.76 16.346 1.73 32.603 3.38 16.3-3.36 16.346 1.9 16.302 1.95 16.302-7.803 16.3 4.955 16.346 1.03 16.3-.837 16.302 1.96 16.302 29.693 16.346 2.294 16.302.888 16.3 5.654 16.302-.404 16.346 1.273 16.302-6.945 16.302 1.265 16.302 1.188L801.34 877l16.3 2.626 16.302 10.124 16.302 1.595 16.346.78 16.302 6.786 16.3 2.777 16.302-.122 16.346.573 16.302.552 16.302 1.9 16.3 7.964 16.346 3.106 16.302.38 16.302 1.688 16.302.35m-913.5 24.065l16.346-2.6 16.302.307 16.302-16.234 16.302-10.226 16.346-4.55 16.302.864 16.302-17.08 16.302 1.185 16.346 13.54 16.302-11.208 16.302 1.294 16.3 1.216 16.346 1.246 32.602 2.173 16.302 11.774 16.346.008 16.302 1.027 16.302 1.095 16.302-.82 16.346 2.998 16.302-2.882 16.302-2.653 16.3-7.747 16.346 1.373 16.302-4.072 16.302 7.762 16.3-14.945 16.346 1.93 16.3 1.633 16.302 1.324 16.302-1.982 16.346 1.04 16.302 8.73 32.603 1.94 16.346.908 16.302.822 16.302.73 16.302.658 16.346.587 48.904 1.68 16.346.38 16.302.322 65.25 1.654 16.302.437 16.3-.66 16.346.452 48.905 1.3" class="X"/><path d="M34.63 956.675h163.105l16.346-60.943 16.302 1.53 16.302 19.302 16.302.658 16.346.45 16.302-9.24 32.603 1.192 16.346.52 16.302.973 16.3.41 16.302.43 16.346.32 16.302.083 16.302-.263 16.302-.414 16.346 10.694 16.302.032 16.302-7.095 16.3-.21 32.648.468 16.302-8.716 16.3 5.496 32.648 7.445 16.302 1.976 16.302-4.942 16.346 10.632 16.302-8.224 16.3.484 16.302-14.546 16.346-6.116 16.302-6.07 16.302.425 16.302.277 16.346.15 16.3 1.808 16.302.374 16.302 17.352 16.346.628 16.302-1.488 16.3.285 16.302 18.99 16.346 18.7 32.603.127 16.3-28.282 16.346.4 16.302 1.84 16.302-5.43 16.302 1.813" class="X"/><path d="M34.63 755.267l16.302-12.13 16.302 1.785 16.346 11.705 16.302.883 16.302 1.664 16.302 12.12 16.346 11.932 16.302 11.745 16.302 11.183 16.302 11.41 16.346 10.96 16.302 3.17 16.302-9.61 16.302 1.4 16.346 1.384 16.302-.39 16.302 3.12 16.3 1.346 16.346 3.038 16.302 1.3 16.3 1.283 32.648 2.536 16.302-1.996 16.302 1.267 16.302 3.476 16.346-.35 16.302 1.662 16.302.653 16.3 6.574 16.346-2.425 16.302-1.166 16.302 5.65 16.3 4.333 16.346 8.697 16.3.314 16.302.27 16.302 3.164 16.346 8.1 16.302 4.252 16.3 4.91 16.302 14.215 16.346-1.637 16.302-2.53 16.302.97 16.302 2.13 16.346 1.822 16.3 2.746 16.302 9.804 16.302-3.174 16.346 7.45 16.302-8.78 16.3 8.12 16.302 1.202 16.346 1.148 16.302.572 16.302.534 16.3-.024 16.346-17.8 16.302 23.757 16.302-3.21 16.302-.064" class="X"/><path d="M34.63 899.704l16.302-20.095 16.302-.795 16.346-.718 16.302 4.103 16.302-.193 16.302-.03 16.346.164 16.302.443 16.302-.977 16.302 2.047 16.346-33.184 16.302.716 16.302-9.26 16.302-15.635 16.346 29.58 16.302 6.217 16.302 1.76 16.3.586 16.346-.546 16.302.5 16.3.428 16.302-15.23 16.346-7.202 16.302 3.648 16.302 16.107 16.302 1.3 16.346-3.687 16.302-2.502 16.302.085 16.3-1.82 16.346-.878 16.302-2.183 16.302 4.18 16.3-1.707 16.346 1.042 16.3-4.802 16.302 5.16 16.302-.23 16.346.175 16.302 2.784 16.3 2.46 16.302.582 16.346 4.52 16.302 3.04 16.302.347 16.302.915 16.346 2.595 16.3 3.16 16.302 2.154 16.302 27.84 16.346 3.927 16.302 3.2 16.3 3.43 16.302 1.054 16.346 1.044 16.302.45 16.302.253 16.3 1.19 16.346-20.087 16.302.265 16.302 20.51 16.302.09" class="X"/><path d="M34.63 785.515l16.302-81.5 16.302 3.158 16.346 3.66 16.302 3.357 16.302 1.297 16.302 2.264 16.346 2.328 16.302 2.088 16.302 2.523 16.302 2.37 16.346 76.102 16.302 1.81 16.302-58.18 16.302 10.696 16.346 17.497 16.302 2.302 16.302 9.366 16.3 24.394 16.346.404 16.302 1.148 16.3.853 16.302 1.38 16.346 1.245 16.302-.837 16.302-2.974 16.302-1.167 16.346 6.102 16.302 1.23 16.302 2.228 16.3 2.89 16.346.99 16.302 1.502 16.302.934 16.3.91 16.346 1.374 16.3 12.597 16.302.7 16.302 3.144 16.346 2.532 16.302 22.135 16.3 5.657 16.302-69.095 16.346 40.795 16.302-32.225 16.302.415 16.302 27.358 16.346-10.53 16.3 11.18 16.302.02 16.302 7.545 16.346-8.586 16.302 29.418 16.3.597 16.302 4.005 16.346 5.2 16.302-.505 16.302 28.564 16.3 18.418 16.346-.17 16.302-6.08 16.302-.18 16.302-.16" class="X"/><path d="M687.138 878.294l16.3 13.134 16.302 2.6 16.346 6.665 16.302 5.21 16.302 1.547 16.302 1.954 16.346.657 32.603.617 16.302 15.3 16.346-12.02 16.302 2.324 16.3 1.685 16.302.028 16.346-.142 16.302-.045 16.302 5.254 16.3-.08 16.346.195 16.302-1.03 32.603-.1" class="X"/><path d="M736.088 885.906l16.302-29.608 16.302.318 16.302 2.31 16.346 4.406 16.3 14.762 16.302 2.195 16.302-6.29 16.346-12.843 16.302 40.41 16.3 8.47 32.648 4.27 16.302.047 16.302 10.632 16.3-4.165 32.648.12 16.302.046 16.302 2.136" class="X"/><path d="M719.74 801.272l16.346.876 16.302-24.744 16.302-75.402 16.302 26.79 16.346 107.17 16.3 27.493 16.302 3.982 16.302 2.988 16.346 14.09 16.302 13.57 16.3 2.9 16.302-8.943 16.346-8.946 16.302 38.216 16.302-.055 16.3 8.8L997.09 930l16.302-5.987 16.302-.06 16.302-.043" class="X"/><path d="M719.74 860.764l16.346-15.704 16.302 2.744 16.302 2.864 16.302-.38 16.346 5.025 16.3 19.41 16.302 5.307 16.302 7.84 16.346-2.156 16.302-.59 16.3.844 16.302 12.464 16.346 12.695 16.302-.258 16.302-.214 16.3 14.065 16.346-.134 16.302-.15 32.603-.368" class="X"/><path d="M34.63 801.23l16.302-31.108 16.302-9.764 16.346 2.108 16.302 6.516 16.302 7.252 16.302 11.4 16.346 13.79 16.302 20.013 16.302 11.476 16.302 10.607 16.346 10.447 16.302.935 16.302 5.956 16.302 3.822 16.346 2.71 16.302.48 16.302.51 16.3 3.5 16.346 4.496 16.302.247 16.3 4.507 16.302.228 16.346-1.253 16.302 3.673 48.95 6.647 16.302 1.206 16.302-.74 16.3-1.11 16.346-2.203 16.302 1.175 16.302.476 16.3-.452 16.346.617 32.603 1.584 16.302.97 16.346 1.42 16.302 2.207 16.3 1.637 16.302 1.785 16.346 4.5 16.302 2.924 16.302 4.857 16.302 2.48 16.346.145 16.3.328 16.302.07 16.302 1.227 16.346.4 16.302.41 16.3-.394 16.302.956 16.346.77 16.302-1.86 16.302 5.104 16.3 2.074 16.346 4.088 16.302-2.586 16.302-.363 16.302.912" class="X"/><path d="M34.63 903.62l16.302 8.3 16.302 2.43 16.346-31.527 16.302 5.27 16.302 4.025 16.302 1.547 16.346 6.137 16.302 3.488 16.302-1.135 16.302 2.273 16.346 2.435 16.302-2.3 16.302 1 16.302-3.097 16.346 1.052 16.302-4.94 16.302-11.597 16.3-6.39 16.346-.287 16.302-2.162 16.3 1.87 16.302 2.835 16.346 13.782 16.302 3.45 16.302-.952 16.302-.24 16.346 1.452 16.302.655 16.302.602 16.3-.106 16.346-.595 16.302.846 16.302.718 16.3 2.085 16.346 1.49 16.3.014 16.302 1.465 16.302.068 16.346 1.543 16.302 2.038 16.3.577 16.302.527 16.346.447 16.302 2.382 16.302.5 16.302.536 16.346.483 16.3-.026 16.302 6.5 16.302 2.74 16.346.837 16.302.46 16.3-1.365 16.302.97 16.346.442 16.302.488 16.302 1.056 16.3 1.043 16.346-1.594 16.302.467 16.302-.59 16.302.384" class="X"/><path d="M736.088 838.4l16.302 18.84 16.302 24.27 16.302 6.526 16.346 7.684 16.3-1.24 16.302 2.104 16.302-4.565 16.346 4.34 16.302 5.53 16.3-9.007 16.302 19.043 16.346 20.192 16.302.105 16.302-3.165 16.3 2.4 16.346-.91 16.302 6.66 16.302-5.276 16.302-2.03" class="X"/><path d="M34.63 933.732l16.302-1.406 16.302 2.262 32.648 1.27 16.302 3.51 32.648 1.044 48.905.545 16.346-2.182 16.302-.596 16.302.3 16.302.574 16.346.42 16.302-1.858 16.302-.62 16.3 1.82 16.346.572 16.302-.767 16.3.78 32.648 1.1 16.302-.47 16.302-1.713 16.302-.42 16.346.515 16.302-3.072 16.302.543 16.3.51 32.648-.692 16.302.455 16.3.587 16.346-1.254 16.3.278 16.302.41 16.302-1.457 16.346.418 16.302-2.477 32.603.878 16.346.418 16.302.403 16.302.228 16.302.53 16.346-8.727 16.3-.106 16.302.48 16.302 7.62 16.346.187 16.302 1.45 16.3.255 48.95.74 16.302-4.282 16.3-.793 16.346-.28 16.302-.95 16.302-.827 16.302.33" class="X"/><path d="M34.63 828.31l16.302-59.377 16.302-16.372L83.58 741.46l16.302-11.6 16.302-10.292 16.302-10.617 16.346 241.92 16.302-28.865 16.302-28.538 16.302-28.297 16.346-39.442 16.302-5.232 16.302-40.362 16.302.575 16.346.503 16.302.55 16.302.65 16.3 11.822 16.346.615 16.302.532 32.603.885 16.346 7.064 16.302 17.018 16.302 8.38 16.302.69 16.346-3.72 16.302.442 16.302 1.372 16.3 1.175 16.346.983 16.302-.202 16.302.75 16.3-.44 16.346.6 16.3.545 16.302-.576 16.302-1.614 16.346 8.232 16.302 16.145 16.3 7.536 16.302 9.75 16.346 14.17 16.302 5.333 16.302-.21 16.302 10.967 16.346-.22 16.3 7.696 16.302-9.26 16.302 7.735 16.346 11.956 16.302 1.052 32.603-.187 16.346 1.05 48.904-.18 16.346 7.915 16.302-4.607 16.302-1.205 16.302 7.944" class="X"/><path d="M34.63 902.81l16.302 1.08 16.302-4.454 16.346 1.454 16.302 1.226 16.302 1.098L132.485 899l16.346-3.804 16.302 6.432 16.302-3.742 16.302 1.016 16.346-3.573 16.302 6.133 16.302 1.1 16.302-3.308 16.346.94 16.302 1.013 16.302.978 16.3.476 16.346-3.63 16.302.78 16.3.837 16.302.984 16.346 4.916 16.302 1.045 16.302.94 16.302.418 16.346.153 16.302.015 16.302-.184 16.3.06 16.346 3.837 16.302.43 16.302-2.986 16.3.403 16.346.283 16.3 3.903 16.302-3.115 16.302.176 16.346 3.604 16.302 3.788 16.3.483 16.302.386 16.346.095 16.302 3.707 16.302.452 16.302.253 16.346 1.624 16.3.28 16.302.25 16.302 3.22 16.346.13 16.302.54 32.603.744 16.346.335 16.302.303 16.302.278 16.3.255 16.346.25 16.302-2.37 32.603.54" class="X"/><path d="M34.63 906.674l32.603-.27 16.346-.068 16.302-.137 16.302-.346 16.302-.403 16.346-.23 16.302-.577 16.302-.128 16.302-.258 16.346 28.106 16.302-3.932 16.302-3.81 16.302.157 16.346.133 16.302.088 16.302.175 16.3.237 16.346.043 16.302.254 16.3-3.543 16.302.525 16.346-3.174 16.302-3.05 16.302.67 16.302-9.988 16.346 4.156 16.302-2.87 16.302.773 16.3-16.328 16.346.723 16.302-5.838 16.302 10.25 16.3 16.595 16.346-3.095 32.603.038 16.302 3.164 16.346-.275 16.302-.145 48.95.842 16.302-12.6 16.302.226 16.302.372 16.346.512 16.3.288 16.302 9.588 16.302 6.412 16.346 6.992 16.302.733 32.603 1.065 16.346.484 16.302.442 16.302.41 16.3.373 32.648.68 16.302.31 16.302.292" class="X"/><path d="M148.83 913.273l16.302.28 16.302-1.306 16.302.154 16.346-77.21 16.302.675 16.302 15.685 16.302.782 32.648 1.964 16.302.78 16.3-6.624 16.346.76 16.302.975 16.3.723 16.302.312 16.346.194 16.302.3 16.302.4 16.302 12.87 16.346-3.818 16.302.277 16.302 1.584 16.3-2.568 16.346.116 16.302.058 16.302 2.788 16.3-1.28 16.346.147 16.3 4.318 16.302.3 16.302 1.768 16.346 4.614 16.302-3.36 16.3 3.234 16.302-8.73 16.346.54 16.302.647 16.302.515 16.302 13.036 16.346.026 16.3 6.687 16.302 3.988 16.302-1.147 16.346 24.283 16.302.073 16.3 7.813 16.302.155 16.346.193 16.302.234 16.302.265 16.3 5.233 16.346 8.825 16.302 5.03 16.302-9.556 16.302 1.366" class="X"/><path d="M34.63 924.1l32.603 1.868 16.346.882 16.302.857 32.603 1.66 16.346-8.057 16.302 1 16.302-7.333 16.302 1.21 16.346 1.17 32.603 2.244 16.302-6.34 32.648 2.117 32.603 1.988 16.346.967 16.302 4.946 16.3-2.897 16.302 1.224 16.346 1.044 16.302 1.173 16.302 9.12 16.302-1.733 16.346-4.025 16.302 1.04 16.302 2.516 16.3-72.992 16.346-56.218 16.302-3.212 16.302-13.442 16.3-70.115 16.346-16.372 16.3 5.173 16.302-7.85 16.302 27.634 16.346 35.106 16.302 115.602 16.3 25.49L719.74 915.2l16.346 1.303 16.302 3.836 16.302 1.104 16.302-2.502 16.346.98 16.3 3.486 16.302 5.507 16.302-8.258 16.346.696 16.302 4.856 32.603.775 65.25 1.477 16.346 4.345 48.905.992" class="X"/><path d="M67.234 940.782l16.346-.308 16.302-5.216 16.302-3.726 16.302-2.15 16.346-.898 16.302-2.12 16.302-1.19 16.302-.716 16.346 4.294 16.302-.343 16.302-.668 16.302.182 16.346.075 16.302 2.456 16.302-.187 16.3-.156 16.346.202 16.302.302 16.3.782 16.302.458 16.346.347 16.302-.09 16.302.31 16.302.36 16.346.23 16.302-.084 16.302.2 16.3-.108 16.346.27 16.302-.03 16.302.354 32.648.292 16.3-.255 16.302.204h16.302l16.346-.095 16.302-.202 16.3.09 16.302.82 16.346.072 16.302.883 16.302-.587 16.302-.858 16.346-.022 16.3-.337L833.94 935l16.302.306 16.346-.196 16.302-.154 48.95.125 16.302-1.77 16.302 1.816 16.3.012 16.346.902h16.302l16.302-1.62 16.302-.012" class="X"/><path d="M34.63 919.267l16.302-12.984 16.302-29.96 16.346.57 16.302-.67 16.302-.827 16.302-.882 16.346-.694 16.302 3.478 16.302 1.17 16.302 1.052 16.346-.487 16.302 1.568 16.302 3.813 16.302 1.35 16.346 1.272 16.302 6.98 16.302 3.915 16.3.898 16.346 3.538 16.302 3.367 16.3 8.667 16.302-3.98 16.346 4.625 16.302.573 16.302 2.566 16.302.506 16.346.442 16.302-.104 16.302.37 16.3-.92 16.346.928 16.302.44 16.302.363 32.648-.212 16.3-.513 16.302.06 16.302-.37 16.346.67 16.302.964 16.3.83 16.302 2.037 16.346 2.762 16.302.74 16.302 2.265 16.302 1.83 16.346 2.184 16.3.798 16.302.214 16.302.573 16.346.648 16.302 2.002 16.3.185 16.302-1.6 16.346-1.556 16.302.24 32.603-.2 16.346.248 16.302-.433 32.603.45" class="X"/><path d="M34.63 915.392l16.302.75 16.302.8 16.346-4.84 16.302.888 16.302-45.615 16.302 1.635 16.346 2.118 16.302 2.584 16.302 1.34 16.302 9.603 16.346 2.787 16.302.01 16.302-12.672 16.302 1.242 16.346 1.21 16.302-1.37 48.95 3.383 16.302 10.704 16.3 1.07 16.302 1.103 16.346-7.968 16.302 5.672 16.302-3.304 16.302 3.242 32.648 1.982 32.603 1.913 16.346.952 16.302-6.94 16.302 1.046 16.3 1.4 16.346 17.936 16.3 9.985 16.302-4.576 16.302 8.91 16.346.476 16.302 3.974 16.3 5.6 16.302 2.033 16.346.294 16.302-1.044 16.302 1.61 32.648.54 16.3-2.27 16.302.286 16.302.897 16.346.38 16.302.573 16.3-.413 16.302.19 32.648.37 16.302-.11 16.3-.97 16.346.2 16.302 1.037 32.603.358" class="X"/><path d="M34.63 876.803l16.302 20.53 16.302-.008 16.346.362 16.302.422 16.302 2.314 16.302-1.603 16.346.36 16.302.393 16.302.44 16.302.494 16.346 18.638 16.302-.96 16.302-2.494 16.302-3.112 16.346 6.512 16.302-2.12 16.302-.606 16.3-.238 16.346.637 16.302.734 16.3-.655 16.302.017 16.346-1.806 16.302-12.314 16.302 1.014 16.302.896 16.346.795 16.302-1.627 16.302-.444 16.3.144 16.346-.417 16.302 5.163 16.302 3.395 16.3.626 16.346.643 16.3 1.404 16.302 5.84 16.302-1.966 16.346-.62 16.302 4.498 16.3 3.364 16.302.743 16.346 1.562 16.302 1.235 16.302.27 16.302 2.86 16.346.69 16.3.227 16.302 2.01 16.302-3.483 16.346 4.377 16.302.728 16.3.3 16.302.088 16.346.098 32.603.237 16.3 1.396 16.346-.563 16.302-.723 32.603.24" class="X"/><path d="M34.63 905.89l16.302 1.832 16.302 1.423 16.346 1.382 16.302 1.342 16.302 24.655 16.302.586 16.346-.496 16.302-19.41 16.302.143 16.302 1.417 16.346 10.44 16.302.1 16.302-16.407 16.302-.116 16.346.55 16.302.497 16.302.463 16.3-.187 16.346-1.4 16.302-.71 16.3 1.082 16.302-2.933 16.346-.013 16.302-.536 16.302-1.018 16.302 1.632 32.648 2.1 16.302 1.008 16.3.004 16.346.948 16.302-.007 16.302.9 16.3.955 16.346-2.37 16.3-1.776 16.302-.313 16.302 18.953 16.346.455 16.302 2.32 16.3.372 16.302.274 32.648.643 32.603.578 16.346.27 16.3.76 16.302-.013 16.302 1.06 16.346.41 16.302.59 16.3.238 16.302-.213 16.346-.28 16.302 1.168 16.302.11 16.3-4.604 16.346 2.674 16.302.052 16.302.748 16.302.16" class="X"/><path d="M34.63 870.53l16.302 29.534 16.302 28.744 16.346 14.167 16.302-6.344 16.302-6.213 16.302-5.808 16.346-1.486 16.302-1.396 16.302-1.317 16.302-1.25 16.346-6.595 16.302.643 16.302.996 16.302 1.36 16.346 3.192 16.302 1.43 16.302.775 16.3.77 16.346-.12 16.302.382 16.3.346 16.302.966 16.346 4.97 16.302 4.225 16.302 1.423 16.302.772 16.346.248 16.302 1.3 16.302.463 16.3.602 16.346-.643 16.302-.675 16.302 1.242 16.3-.428 16.346.576 16.3.02 16.302.4 16.302.384 16.346.302 16.302.162 16.3.504 16.302-.015 16.346 1.02 16.302-.272 16.302.35 16.302.172 16.346.248 16.3.502 16.302-.657 16.302.163 16.346-.265 16.302.483 16.3-.037 48.95.664 65.25.816 32.603.36" class="X"/><path d="M34.63 948.095l16.302-.65 16.302-1.436 16.346-.56 16.302-.53 32.603-.967 16.346-1.168 16.302-.387 16.302-.356 16.302-.037 16.346-.92 16.302.407 16.302-12.52 16.302-2.225 16.346-2.1 16.302 3.714 16.302.77 16.3-1.948 16.346.794 16.302 8.365 16.3-9.378 16.302-6.446 16.346 17.392 16.302-1.786 16.302-1.686 16.302-3.328 16.346-2.732 16.302-3.82 16.302 4.016 16.3.703 16.346-2.367 16.302.744 16.302 1.083 16.3-6.4 16.346 1.51 16.3 2.454 16.302-3.262 16.302 1.403 16.346.722 16.302 5.326 16.3 2.154 16.302 1.97 16.346.45 32.603.847 16.302.563 16.346.44 16.3-1.998 16.302 2.3 16.302 1.644 16.346 2.06 16.302.924 16.3 1.2 48.95.572 16.302-1.2 16.3.188 16.346.172 32.603.284 16.302.114" class="X"/><path d="M34.63 945.807l16.302-.16 16.302-.125 16.346-.11 16.302-.097 16.302-.082 16.302-.04 16.346-1.04 16.302-.984 16.302-.928 16.302.315 16.346-5.887 16.302-.196 16.302-6.565 16.302-2.62 16.346.515 16.302-3.543 16.302.25 16.3-.627 16.346.07 16.302.823 16.3-.42 32.648.224 16.302.71 16.302-.255 16.302 4.96 16.346 3.667 16.302-.027 16.302.746 16.3 3.572 16.346.406 16.302.137 16.302.646 16.3.128 16.346-1.757 32.603.802 16.302-1.042 16.346 1.8 32.603.706 48.95.906 16.302.28 16.302.394 16.346.25 16.3-.05 16.302.24 16.302.195 16.346.743 16.302.17 16.3-.067 32.648.41 16.302.2 16.302.27 16.3.444 16.346.23 16.302-.26 32.603.315" class="X"/></g><g stroke-width="3"><path d="M35.43 248.63l15.502 143.096 16.302 31.99L83.58 437.92l16.302 11.37 16.302 17.416 16.302 20.415 16.346 47.723 16.302 44.084 16.302 13.352 16.302 13.77 16.346 22.116 16.302 4.09 16.302 12.54 16.302 12.334 16.346 9.934 16.302 7.27 16.302-33.117 16.3-71.163 16.346-9.342 16.302-7.216 16.3-80.543 16.302 15.855 16.346 14.986 16.302-162.564 16.302 46.946 16.302 12.55 16.346-9.815 16.302 12.256 16.302 7.564 16.3-31.22 16.346-4.23 16.302.062 16.302 6.988 16.3 11.462 16.346 36.817 16.3 47.92 16.302 7.66 16.302-20.547 16.346 8.26 16.302 17.16 16.3 27.19 16.302 35.03 16.346 10.504 16.302 1.582 16.302 10.303 16.302 9.644 16.346 9.354 16.3 28.036 16.302 10.148 16.302 7.88 16.346 25.08L882.89 662l16.3-5.686 16.302 3.76 16.346 6.108 16.302 6.662 16.302 7.004 16.3-7.567 16.346 6.53 16.302 5.468 16.302 4.406 16.302 3.576" stroke="#68d3d8"/><path d="M35.23 684l15.702-39 16.302-43.687 32.648 11.677 16.302 6.045 16.302 45.954 16.346 38.765 16.302 37.547 16.302 20.084 16.302 3.49 16.346 34.764 16.302 2.54 16.302-3.293 16.302 2.134 16.346 18.197 16.302-48.348 16.302-2.9 16.3-7.745 16.346-2.92 16.302-2.886 16.3 20.57 16.302-2.86 16.346 1.7 16.302-2.84 16.302 1.706 16.302-2.806 16.346 14.862 16.302 1.464 16.302 1.392 32.648 2.665 16.302 1.405 32.603 2.985 16.346 1.437 16.3 1.538 16.302 1.582 16.302 1.428 16.346 9.14 16.302 8.895 16.3-93.09 16.302 84.8 16.346 30.67 16.302 7.578 16.302-.142 16.302 7.704 16.346-.433 16.3 23.462 16.302 7.633 16.302-8.207 16.346 1.6 16.302-1.102 16.3 1.785 16.302-3.295 16.346-3.233 16.302.67 16.302-.036 32.648.022 16.302-.04 16.302-1.615 16.302 7.023" stroke="#cff"/><path d="M35.63 847.183L50.933 717.12l16.302-23.983L83.58 703.24l16.302 22.14 16.302 29.307 16.302 12.276 16.346 4.063 16.302 28.216 16.302 7.94 16.302 3.74 16.346 2.334 16.302-28.42 16.302 8.912 16.302 3.02 16.346 3.573 16.302-23.186 16.302-14.72 16.3-7.743 16.346 7.035 16.302 23.977 16.3 21.395 16.302 23.192 16.346 7.506 16.302 4.285 16.302 3.662 16.302 2.254 16.346 1.865 16.302 1.126 16.302 2.53 16.3.357 16.346-1.53 16.302-2.297 16.302-.644 16.3-.088 16.346-.1 16.3-.21 16.302.437 16.302 2.368 16.346 1.446 16.302 3.803 16.3 4.233 16.302 9.53 16.346 5.778 16.302 5.14 16.302 4.526 16.302 2.823 16.346 2.365 16.3 2.292 16.302 1.326 16.302 5.56 16.346 1.248 16.302-.836 16.3-.01 16.302-.4 16.346-.416 16.302-2.21 16.302 2.053 16.3.828 16.346-1.04 16.302-.962 16.302 1.07 16.302.283" stroke="#ffce00"/></g></g></g><path d="M38.23 864.193l12.295-5.755 32.634-4.604h16.295l16.295 2.302 16.295 5.755 16.34 3.453h16.295l16.295 2.302 16.295 17.266 16.34-10.36 16.295 3.453 16.295-1.15 16.295-2.302 16.34 4.604 16.295 2.302h16.295l16.295 2.302h16.34l16.295-2.302 16.295-1.15 16.295-6.906 16.34 1.15 16.295-2.302 16.295 3.453h16.295l16.34 3.453h16.295l16.295 2.302 16.295-2.302h16.34l16.295-1.15 16.295 1.15 16.295-2.302h48.93l16.295 2.302 16.34-1.15 16.295 3.453 16.295 2.302 16.295 5.755 16.34 2.302 48.884 3.453 16.34 1.15 16.295 2.302h16.295l16.295-1.15 16.34 3.453 16.295 2.302 32.59 2.302 16.34 1.15 16.295 3.453 16.295 2.302 16.295 1.15h16.34l32.59 2.302h14.295" fill="#727a17" stroke="#1a1a1a" stroke-width="7" class="c d"/><g fill="#68d3d8"><path d="M63.54 222.09h-3.68c-.864 0-1.344-.672-1.344-1.344 0-.736.48-1.376 1.344-1.376h.48v-17.343h-.48c-.864 0-1.344-.672-1.344-1.344 0-.736.48-1.376 1.344-1.376h3.68c.928 0 1.408.64 1.408 1.376 0 .672-.48 1.344-1.408 1.344h-.48v17.343h.48c.928 0 1.408.64 1.408 1.376 0 .672-.48 1.344-1.408 1.344z"/><use xlink:href="#o"/><use xlink:href="#p"/><use xlink:href="#q"/><path d="M128.75 214.987H116.9c.448 3.008 2.368 4.928 5.184 4.928 1.44 0 2.88-.512 3.808-1.664.288-.32.608-.512.992-.512.704 0 1.44.64 1.44 1.408 0 .384-.096.672-.768 1.344-1.44 1.407-3.424 2.144-5.472 2.144-5.15 0-8.03-4.256-8.03-9.056 0-4.768 2.88-9.023 8.03-9.023 5.216 0 8 4.256 8 9.023 0 .704-.512 1.408-1.344 1.408zm-6.656-7.71c-3.007 0-4.768 2.207-5.184 4.96h10.368c-.448-3.07-2.368-4.96-5.184-4.96z"/><use xlink:href="#r"/></g><g fill="#cff"><path d="M74.196 589.424c-.352 0-.768-.192-1.056-.576l-6.655-9.312h-4.128v8.48c0 .896-.672 1.376-1.408 1.376-.672 0-1.344-.48-1.344-1.344v-20.062c0-.576.384-1.376 1.344-1.376h8.287c2.816 0 6.432 2.208 6.432 6.432 0 3.36-2.528 6.176-5.888 6.463l5.6 7.712c.224.288.288.544.288.832 0 .768-.736 1.376-1.472 1.376zm-4.992-20.095h-6.848v7.487h6.815c2.08 0 3.744-1.695 3.744-3.775 0-2.176-1.855-3.712-3.7-3.712zm23.552 20.095c-.608 0-1.216-.353-1.344-1.056-1.28 1-2.848 1.6-4.607 1.6-3.968 0-7.295-3.296-7.295-7.296v-8.863c0-.896.672-1.376 1.344-1.376.736 0 1.408.48 1.408 1.344v8.896c0 2.496 2.08 4.576 4.544 4.576a4.62 4.62 0 0 0 4.576-4.576V573.8c0-.992.64-1.408 1.344-1.408.736 0 1.376.48 1.376 1.376v14.304c0 .895-.64 1.344-1.344 1.344z"/><use xlink:href="#o" x="30.273" y="367.301"/><use xlink:href="#o" x="45.793" y="367.301"/><path d="M131.477 569.81c-1.28 0-2.304-1.023-2.304-2.304s1.024-2.304 2.304-2.304 2.304 1.024 2.304 2.304-1.024 2.304-2.304 2.304zm0 19.583c-.704 0-1.408-.48-1.408-1.344v-14.27c0-.896.704-1.376 1.408-1.376.672 0 1.344.48 1.344 1.376v14.27c0 .896-.672 1.344-1.344 1.344z"/><use xlink:href="#q" x="43.461" y="367.302"/></g><path d="M67.445 681.828c-4.384 0-8.032-3.52-8.032-8.03v-13.983c0-.896.672-1.344 1.376-1.344s1.376.448 1.376 1.344v13.983c0 2.943 2.368 5.312 5.28 5.312a5.32 5.32 0 0 0 5.312-5.312v-13.95c0-.928.64-1.376 1.344-1.376.736 0 1.376.448 1.376 1.344V673.8c0 4.383-3.52 8.03-8.03 8.03zm19.23-.032c-2.336 0-5.6-.96-7.423-2.656-.352-.32-.448-.672-.448-1 0-.736.608-1.376 1.375-1.376.48 0 .64.16 1.216.607 1.568 1.185 3.423 1.696 5.28 1.696 3.808 0 5.472-1.376 5.472-3.744 0-6.655-12.767-2.88-12.767-11.583 0-3.903 3.296-5.855 7.52-5.855 2.208 0 5.375.864 6.943 2.72.256.288.352.576.352.864 0 .768-.704 1.44-1.376 1.44-.48 0-.736-.224-1.28-.704-1.28-1.088-2.912-1.567-4.64-1.567-3.456 0-4.768 1.376-4.768 3.104 0 5.983 12.767 2.432 12.767 11.583 0 4.768-4 6.464-8.224 6.464zm27.808-.544c-.48 0-.96-.256-1.216-.832l-1.696-4.16h-10.655l-1.728 4.16c-.256.576-.736.832-1.184.832-.704 0-1.44-.544-1.44-1.344 0-.192.032-.384.128-.544l8.224-20c.384-.832.896-1 1.312-1 .288 0 .992.16 1.312 1l8.255 20c.064.16.096.352.096.544 0 .8-.672 1.344-1.408 1.344zm-8.256-17.92l-4.2 10.176h8.383l-4.192-10.176z" fill="#ffce00"/><path d="M82.644 819.402l-5.28 19.967c-.16.77-.576 1.12-1.312 1.12-.672 0-1.152-.352-1.375-1.12l-4.32-15.327-4.288 15.327c-.224.77-.672 1.12-1.344 1.12-.704 0-1.152-.352-1.344-1.12l-5.28-19.967a1.88 1.88 0 0 1-.064-.447c0-.8.736-1.248 1.44-1.248.544 0 1.088.32 1.28.992l4.032 15.263 4.224-15.135c.224-.77.672-1.12 1.344-1.12.704 0 1.152.352 1.376 1.12l4.224 15.135L79.99 818.7c.192-.704.832-1.057 1.312-1.057.704 0 1.408.513 1.408 1.313 0 .16-.032.32-.064.447zm9.376 21.63c-5.15 0-8.03-4.224-8.03-9.056 0-4.8 2.88-9.023 8.03-9.023s8.032 4.225 8.032 9.023c0 4.832-2.88 9.056-8.032 9.056zm0-15.358c-3.2 0-5.28 2.495-5.28 6.303 0 3.84 2.08 6.336 5.28 6.336 3.232 0 5.28-2.496 5.28-6.336 0-3.808-2.048-6.303-5.28-6.303z"/><use xlink:href="#p" x="18.688" y="618.399"/><use xlink:href="#r" x="-21.37" y="618.399"/><path d="M132.787 840.457c-.704 0-1.376-.447-1.376-1.344 0 0-1.888 1.92-5.28 1.92-5.15 0-8.03-4.224-8.03-9.056 0-4.8 2.88-9.023 8.03-9.023 2.24 0 4.032.77 5.28 2.08v-5.95c0-.928.672-1.376 1.376-1.376s1.376.448 1.376 1.344v20.063c0 .896-.672 1.344-1.376 1.344zm-6.656-14.782c-3.2 0-5.28 2.495-5.28 6.303 0 3.84 2.08 6.336 5.28 6.336 3.232 0 5.28-2.496 5.28-6.336 0-3.808-2.048-6.303-5.28-6.303z"/><g class="a"><path d="M68.02 80c-.9 0-1.8-.48-2.28-1.56l-3.18-7.8H42.58l-3.24 7.8c-.48 1.08-1.38 1.56-2.22 1.56-1.32 0-2.7-1.02-2.7-2.52 0-.36.06-.72.24-1.02l15.42-37.498c.72-1.56 1.68-1.86 2.46-1.86.54 0 1.86.3 2.46 1.86L70.48 76.46c.12.3.18.66.18 1.02 0 1.5-1.26 2.52-2.64 2.52zm-15.48-33.6l-7.86 19.08H60.4l-7.86-19.08z"/><use xlink:href="#s"/><path d="M132.457 80c-1.26 0-2.52-.9-2.52-2.52v-18.9c0-3.48-2.88-6.36-6.3-6.36-3.54 0-6.36 2.88-6.36 6.3v18.9c0 1.68-1.2 2.58-2.58 2.58-1.32 0-2.52-.9-2.52-2.52v-18.9c0-3.48-2.88-6.36-6.36-6.36s-6.36 2.88-6.36 6.3v18.9c0 1.68-1.26 2.58-2.64 2.58-1.26 0-2.52-.9-2.52-2.52v-26.82c0-1.74 1.32-2.58 2.64-2.58.84 0 1.68.36 2.16 1.14a11.56 11.56 0 0 1 6.66-2.1c3.6 0 6.84 1.62 8.94 4.26 2.1-2.64 5.28-4.26 8.88-4.26 6.36 0 11.52 5.1 11.52 11.4v18.9c0 1.68-1.26 2.58-2.64 2.58z"/><use xlink:href="#t"/><use xlink:href="#u"/><path d="M193.897 81.02c-3.3 0-8.82-1.02-11.64-4.5-.36-.54-.54-1.08-.54-1.56 0-1.5 1.44-2.7 2.7-2.7.72 0 1.26.36 1.86 1.02 1.86 2.04 4.92 2.64 7.62 2.64 5.4 0 7.14-1.86 7.14-4.56 0-7.68-18.3-2.94-18.3-15.3 0-6.54 6.12-8.94 11.82-8.94 3.24 0 10.86 1.62 10.86 4.98 0 1.32-1.08 2.7-2.52 2.7-.54 0-1.38-.3-1.98-.78-1.62-1.38-3.96-1.8-6.36-1.8-4.98 0-6.72 1.86-6.72 3.84 0 7.14 18.36 2.52 18.36 15.3 0 7.08-5.94 9.66-12.3 9.66zM249.875 80h-24.96c-1.44 0-2.64-1.14-2.64-2.52V39.862c0-1.44 1.2-2.58 2.64-2.58h24.96c1.56 0 2.52 1.14 2.52 2.52 0 1.26-.9 2.58-2.52 2.58h-22.44V54.5h15.72a2.56 2.56 0 0 1 2.58 2.58c0 1.38-1.02 2.58-2.58 2.58h-15.72V74.9h22.44c1.62 0 2.52 1.26 2.52 2.58 0 1.38-.96 2.52-2.52 2.52zm29.338-28.318l-10.92 26.28c-.54 1.38-1.44 2.04-2.58 2.04-1.02 0-1.98-.66-2.58-2.04l-10.92-26.28c-.12-.42-.18-.72-.18-1.08 0-1.44 1.32-2.46 2.64-2.46.9 0 1.8.48 2.28 1.56l8.76 21 8.76-21c.42-1.14 1.5-1.62 2.34-1.62 1.38 0 2.64.96 2.64 2.46a2.99 2.99 0 0 1-.24 1.14z"/><use xlink:href="#u" x="131.695"/><path d="M329.252 52.222c-4.62 0-8.52 3.9-8.52 8.58v16.62c0 1.68-1.26 2.58-2.64 2.58-1.26 0-2.52-.9-2.52-2.52v-26.76c0-1.68 1.38-2.58 2.52-2.58 1.2 0 2.34.66 2.58 2.04a13.88 13.88 0 0 1 8.58-3.06c1.74 0 2.64 1.2 2.64 2.58 0 1.32-.9 2.52-2.64 2.52zm34.498-.48l-16.2 36.838c-1.2 2.76-3.84 4.02-6.6 4.02h-1.92c-1.74 0-2.52-1.26-2.52-2.64 0-1.26.78-2.52 2.52-2.52h1.86c.78 0 1.62-.12 1.98-.96l3.96-8.88-11.7-25.86c-.24-.42-.3-.78-.3-1.14 0-1.5 1.44-2.52 2.76-2.52.9 0 1.68.48 2.16 1.56l9.78 21.72 9.54-21.72c.48-1.08 1.38-1.5 2.22-1.5 1.38 0 2.76 1.02 2.76 2.46 0 .42-.06.72-.3 1.14zm45.78-.18l-9.3 26.34c-.48 1.32-1.32 2.1-2.64 2.1-1.26 0-1.98-.54-2.52-2.1l-7.02-19.8-7.08 19.8c-.48 1.44-1.32 2.1-2.58 2.1-1.2 0-2.04-.66-2.52-2.1l-9.24-26.34c-.12-.36-.12-.6-.12-.96 0-1.5 1.38-2.46 2.64-2.46.96 0 1.92.48 2.34 1.68l6.96 20.04 7.08-19.62c.48-1.38 1.08-2.1 2.52-2.1 1.32 0 2.04.66 2.52 2.1l7.02 19.62 7.02-20.04c.42-1.2 1.38-1.68 2.28-1.68 1.38 0 2.76 1.02 2.76 2.52 0 .3 0 .54-.12.9z"/><use xlink:href="#v"/><use xlink:href="#u" x="296.823"/><use xlink:href="#s" x="406.192"/><use xlink:href="#u" x="346.793"/><path d="M573.15 80c-.9 0-1.8-.48-2.28-1.56l-3.18-7.8H547.7l-3.24 7.8c-.48 1.08-1.38 1.56-2.22 1.56-1.32 0-2.7-1.02-2.7-2.52 0-.36.06-.72.24-1.02l15.42-37.498c.72-1.56 1.68-1.86 2.46-1.86.54 0 1.86.3 2.46 1.86l15.48 37.498c.12.3.18.66.18 1.02 0 1.5-1.26 2.52-2.64 2.52zm-15.48-33.6l-7.86 19.08h15.72l-7.86-19.08z"/><use xlink:href="#s" x="505.132"/><path d="M624.2 66.68H602c.84 5.64 4.44 9.24 9.72 9.24 2.7 0 5.4-.96 7.14-3.12.54-.6 1.14-.96 1.86-.96 1.32 0 2.7 1.2 2.7 2.64 0 .72-.18 1.26-1.44 2.52-2.7 2.64-6.42 4.02-10.26 4.02-9.66 0-15.06-7.98-15.06-16.98 0-8.94 5.4-16.92 15.06-16.92 9.78 0 15 7.98 15 16.92 0 1.32-.96 2.64-2.52 2.64zm-12.48-14.46c-5.64 0-8.94 4.14-9.72 9.3h19.438c-.84-5.76-4.44-9.3-9.72-9.3zm43.58 28.8c-4.38 0-10.5-1.8-13.92-4.98-.66-.6-.84-1.26-.84-1.86a2.6 2.6 0 0 1 2.58-2.58c.9 0 1.2.3 2.28 1.14 2.94 2.22 6.42 3.18 9.9 3.18 7.14 0 10.26-2.58 10.26-7.02 0-12.48-23.938-5.4-23.938-21.72 0-7.32 6.18-10.98 14.1-10.98 4.14 0 10.08 1.62 13.02 5.1.48.54.66 1.08.66 1.62 0 1.44-1.32 2.7-2.58 2.7-.9 0-1.38-.42-2.4-1.32-2.4-2.04-5.46-2.94-8.7-2.94-6.48 0-8.94 2.58-8.94 5.82 0 11.22 23.94 4.56 23.94 21.72 0 8.94-7.5 12.12-15.42 12.12z"/><use xlink:href="#v" x="260.46"/><use xlink:href="#s" x="633.892"/><use xlink:href="#t" x="588.71"/><use xlink:href="#w"/><path d="M796.948 52.52l-8.94 8.94 9.3 14.58c.24.48.42.96.42 1.44 0 1.44-1.32 2.58-2.7 2.58-.72 0-1.5-.36-2.04-1.2l-8.76-13.62-5.1 5.1v7.14c0 1.62-1.38 2.52-2.52 2.52-1.32 0-2.64-.9-2.64-2.52V39.802c0-1.68 1.26-2.52 2.52-2.52 1.38 0 2.64.84 2.64 2.52v23.28l14.16-14.16c.6-.6 1.26-.78 1.92-.78 1.32 0 2.58 1.2 2.58 2.58 0 .6-.3 1.26-.84 1.8z"/><use xlink:href="#t" x="661.73"/><use xlink:href="#w" x="73.018"/><path d="M860.67 93.68c-3.66 0-12.72-1.32-12.72-4.92 0-1.38 1.26-2.7 2.58-2.7 1.38 0 .18.18 3.36 1.38 1.44.54 3.6 1.14 6.78 1.14 6.66 0 9.9-3.18 9.9-9.48v-2.7c-2.34 2.22-5.7 3.6-9.9 3.6-9.48 0-15.06-6.72-15.06-15.96 0-9 5.4-16.92 15.06-16.92 4.2 0 7.44 1.26 9.9 3.84v-.24c0-1.68 1.38-2.58 2.58-2.58 1.26 0 2.58.9 2.58 2.58V79.1c0 9.54-5.7 14.58-15.06 14.58zm0-41.458c-6 0-9.9 4.68-9.9 11.82 0 6.84 3.6 10.86 9.9 10.86s9.9-4.02 9.9-10.86c0-7.14-3.84-11.82-9.9-11.82z"/></g><g opacity=".7" class="a"><path d="M43.803 128.646c-2.926 0-6.915-1.178-9.08-3.343-.266-.267-.342-.494-.342-.76a1.16 1.16 0 0 1 1.103-1.103c.455 0 .418.114 1.216.722 2.014 1.482 4.52 2.318 7.104 2.318 4.787 0 7.56-1.786 7.56-5.205 0-9.005-16.07-4-16.07-14.362 0-4.56 3.99-6.65 8.89-6.65 2.735 0 6.573 1.18 8.283 3.572.15.228.228.418.228.646 0 .608-.532 1.063-1.14 1.063-.532 0-.532-.15-1.178-.798-1.596-1.596-3.95-2.317-6.193-2.317-4.52 0-6.725 1.748-6.725 4.483 0 8.17 16.07 3.42 16.07 14.362 0 5.28-4.635 7.37-9.727 7.37z"/><use xlink:href="#x"/><use xlink:href="#y"/><path d="M103.233 128c-.53 0-1.102-.38-1.102-1.063v-1.9c-1.596 2.242-4.065 3.61-7.37 3.61-6.117 0-9.536-5.015-9.536-10.752 0-5.7 3.42-10.715 9.536-10.715 3.306 0 5.775 1.368 7.37 3.572v-8.74c0-.684.57-1.063 1.102-1.063.494 0 1.064.38 1.064 1.063v24.925c0 .684-.57 1.063-1.064 1.063zm-8.473-18.655c-4.483 0-7.37 3.61-7.37 8.55s2.888 8.587 7.37 8.587c4.52 0 7.37-3.647 7.37-8.587s-2.85-8.55-7.37-8.55z"/><use xlink:href="#z"/><path d="M132.873 118.996h-15.768c.342 4.332 3.153 7.485 7.295 7.485 2.052 0 4.483-.912 5.585-2.622.267-.418.57-.53.912-.53.57 0 1.178.455 1.178 1.025 0 .342 0 .418-.722 1.254-1.748 2.052-4.293 3.04-6.953 3.04-6.117 0-9.536-5.015-9.536-10.752 0-5.7 3.42-10.715 9.536-10.715s9.537 5.054 9.537 10.715c0 .57-.532 1.102-1.064 1.102zm-8.473-9.65c-4.56 0-6.953 3.495-7.295 7.485h14.628c-.342-4.332-3.153-7.485-7.333-7.485zm21.964.34c-3.57 0-6.497 2.888-6.497 6.497v10.753c0 .684-.57 1.063-1.063 1.063-.532 0-1.103-.38-1.103-1.063V108.9c0-.684.57-1.063 1.103-1.063.494 0 1.063.38 1.063 1.063v1.558c1.7-1.86 3.95-2.925 6.497-2.925.684 0 1.102.57 1.102 1.063 0 .532-.418 1.102-1.102 1.102zm9.462 19.035c-2.28 0-6.117-.798-7.447-3-.15-.23-.15-.418-.15-.57 0-.607.53-1.14 1.102-1.14.228 0 .607.2.836.532 1.367 1.67 3.8 2.014 5.66 2.014 3.686 0 5.547-1.216 5.547-3.686 0-5.737-12.462-2.698-12.462-10.297 0-3.837 3.837-5.32 7.295-5.32 1.976 0 5.016.685 6.535 2.204.228.228.342.494.342.722 0 .57-.57 1.14-1.178 1.14-.23 0-.494-.076-.722-.304-1.18-1.14-3.306-1.596-4.978-1.596-3.344 0-5.13 1.292-5.13 3.153 0 5.32 12.462 2.508 12.462 10.297 0 4.33-3.8 5.85-7.713 5.85z"/><use xlink:href="#AA"/><path d="M205.3 128.722c-2.28 0-6.117-.798-7.447-3-.15-.23-.15-.418-.15-.57 0-.607.53-1.14 1.102-1.14.228 0 .607.2.836.532 1.367 1.67 3.8 2.014 5.66 2.014 3.686 0 5.547-1.216 5.547-3.686 0-5.737-12.462-2.698-12.462-10.297 0-3.837 3.837-5.32 7.295-5.32 1.976 0 5.015.685 6.535 2.204.228.228.342.494.342.722 0 .57-.57 1.14-1.178 1.14-.23 0-.494-.076-.722-.304-1.178-1.14-3.306-1.596-4.978-1.596-3.344 0-5.13 1.292-5.13 3.153 0 5.32 12.462 2.508 12.462 10.297 0 4.33-3.8 5.85-7.713 5.85zm24.624-14.437c-3.306 0-6.003-3.002-6.003-6.687s2.697-6.648 6.003-6.648c3.268 0 5.965 2.963 5.965 6.648s-2.697 6.688-5.965 6.688zm0-11.208c-1.9 0-3.838 1.785-3.838 4.52s1.938 4.52 3.838 4.52 3.8-1.785 3.8-4.52-1.9-4.52-3.8-4.52zm14.36-1.406l-7.257 26.216c-.2.532-.493.798-.95.798-.57 0-1.178-.456-1.178-1.102 0-.114 0-.228.037-.304l7.258-26.217c.2-.57.53-.835.987-.835.532 0 1.14.493 1.14 1.14 0 .076 0 .15-.038.304zm4.712 26.33c-3.268 0-5.966-3.002-5.966-6.688 0-3.646 2.698-6.648 5.966-6.648 3.306 0 6.003 3.002 6.003 6.648 0 3.686-2.697 6.688-6.003 6.688zm0-11.17c-1.9 0-3.8 1.785-3.8 4.482 0 2.736 1.9 4.52 3.8 4.52 1.938 0 3.837-1.785 3.837-4.52 0-2.697-1.9-4.482-3.837-4.482z"/><use xlink:href="#x" x="210.745"/><path d="M296.232 103.077h-1.178c-.912 0-1.672.76-1.672 1.633v3.116h2.85c.723 0 1.064.57 1.064 1.063 0 .532-.38 1.102-1.064 1.102h-2.85v16.946c0 .684-.53 1.063-1.063 1.063s-1.063-.342-1.063-1.063V109.99h-2.622c-.684 0-1.063-.57-1.063-1.102 0-.494.38-1.063 1.063-1.063h2.622v-3.116a3.77 3.77 0 0 1 3.761-3.761h1.216c.685 0 1.103.53 1.103 1.102 0 .532-.38 1.026-1.103 1.026z"/><use xlink:href="#AB"/><use xlink:href="#x" x="275.038"/><use xlink:href="#AB" x="44.79"/><path d="M392.332 128c-.532 0-1.102-.38-1.102-1.063v-1.216c-1.596 1.86-3.913 2.925-6.497 2.925-4.71 0-8.663-3.95-8.663-8.662V108.89c0-.684.57-1.063 1.103-1.063.493 0 1.063.38 1.063 1.063v11.095a6.47 6.47 0 1 0 12.994 0V108.89c0-.684.57-1.063 1.102-1.063.494 0 1.064.38 1.064 1.063v18.048c0 .684-.57 1.063-1.064 1.063z"/><use xlink:href="#y" x="319.499"/><use xlink:href="#AA" x="230.276"/><path d="M436.184 128h-1.178c-3 0-4.483-1.48-4.483-4.445V109.99h-1.937c-.684 0-1.063-.57-1.063-1.102 0-.494.38-1.063 1.063-1.063h1.938v-5.813c0-.684.57-1.063 1.103-1.063s1.063.38 1.063 1.063v5.813h3.495c.685 0 1.064.57 1.064 1.063 0 .532-.38 1.102-1.064 1.102h-3.495v13.564c0 1.86.532 2.28 2.317 2.28h1.178c.685 0 1.064.57 1.064 1.103 0 .493-.38 1.063-1.064 1.063z"/><use xlink:href="#z" x="331.012"/><use xlink:href="#x" x="390.178"/><path d="M484.974 128c-.53 0-1.102-.38-1.102-1.063v-11.095a6.47 6.47 0 0 0-6.497-6.497c-3.57 0-6.497 2.888-6.497 6.497v11.095c0 .684-.57 1.063-1.063 1.063-.532 0-1.103-.38-1.103-1.063V108.89c0-.684.57-1.063 1.103-1.063.494 0 1.063.38 1.063 1.063v1.216c1.7-1.86 3.95-2.926 6.497-2.926 4.71 0 8.663 3.914 8.663 8.663v11.095c0 .684-.57 1.063-1.064 1.063z"/></g><defs ><path id="C" d="M104.714 1045.51c-.633 0-1.267-.367-1.4-1.1-1.334 1.034-2.97 1.668-4.804 1.668-4.136 0-7.604-3.436-7.604-7.605v-9.24a1.37 1.37 0 0 1 1.4-1.435c.768 0 1.468.5 1.468 1.4v9.272c0 2.602 2.168 4.77 4.736 4.77 2.603 0 4.77-2.17 4.77-4.77v-9.24c0-1.034.667-1.468 1.4-1.468.768 0 1.435.5 1.435 1.435v14.9c0 .934-.667 1.4-1.4 1.4z"/><path id="D" d="M831.72 1046.318c-3.22 0-5.02-2.64-5.02-5.662 0-3 1.8-5.64 5.02-5.64s5.02 2.64 5.02 5.64c0 3.02-1.8 5.662-5.02 5.662zm0-10.162c-2.36 0-3.88 1.9-3.88 4.5s1.52 4.52 3.88 4.52c2.38 0 3.88-1.92 3.88-4.52s-1.5-4.5-3.88-4.5z"/><path id="E" d="M847.5 1045.98c-.28 0-.58-.2-.58-.56v-.64c-.84.98-2.06 1.54-3.42 1.54-2.48 0-4.56-2.08-4.56-4.56v-5.842c0-.36.3-.56.58-.56.26 0 .56.2.56.56v5.842c0 1.9 1.52 3.42 3.42 3.42s3.42-1.52 3.42-3.42v-5.842c0-.36.3-.56.58-.56.26 0 .56.2.56.56v9.502c0 .36-.3.56-.56.56z"/><path id="F" d="M855.46 1036.336a3.42 3.42 0 0 0-3.421 3.42v5.662c0 .36-.3.56-.56.56-.28 0-.58-.2-.58-.56v-9.502c0-.36.3-.56.58-.56.26 0 .56.2.56.56v.82c.9-.98 2.08-1.54 3.42-1.54.36 0 .58.3.58.56a.58.58 0 0 1-.58.58z"/><path id="G" d="M1027.68 1045.98h-.02c-.66 0-1.6-.36-1.98-1.56-.84 1.18-2.14 1.9-3.88 1.9-3.26 0-5.02-2.682-5.02-5.662 0-3.02 1.8-5.64 5.02-5.64 1.74 0 3.04.72 3.88 1.88v-.98c0-.32.26-.56.58-.56.28 0 .56.2.56.56v8.063c0 1.28 1.44.48 1.44 1.44a.55.55 0 0 1-.58.561zm-5.88-9.822c-2.36 0-3.88 1.9-3.88 4.5s1.52 4.52 3.88 4.52c2.38 0 3.88-1.92 3.88-4.52s-1.5-4.5-3.88-4.5z"/><path id="H" d="M34.007 1002.908v-1.68h2.464v-16.24l-2.52.224v-1.23c1.148-.28 2.268-.784 3.192-1.568h1.344v18.816h2.352v1.68h-6.832z"/><path id="I" d="M1004.058 998.532v-1.68c1.792-5.992 7.392-9.353 7.392-13.944 0-2.128-1.063-3.192-2.436-3.192-1.596 0-2.772 1.232-2.94 4.257h-1.848c.224-4.593 2.296-5.937 4.732-5.937 2.66 0 4.508 1.792 4.508 5.152 0 5.04-4.536 6.607-7.56 13.664h7.672v1.68h-9.52z"/><path id="J" d="M64.982 257.334c-5.853 0-6.385-5.992-6.385-10.444 0-5.236 1.12-10.472 6.385-10.472 2.352 0 4.03 1.036 5.18 2.8.14.14.168.308.168.476 0 .392-.42.756-.84.756-.225 0-.448-.084-.645-.364-.896-1.288-2.07-2.072-3.863-2.072-3.528 0-4.788 3.36-4.788 8.848v.476c1.147-1.484 2.968-2.38 4.788-2.38 3.36 0 6.02 2.912 6.02 6.188s-2.66 6.188-6.02 6.188zm0-10.78c-2.185 0-4.48 1.904-4.48 4.76.504 2.352 1.624 4.424 4.48 4.424 2.407 0 4.396-2.1 4.396-4.592s-1.988-4.592-4.396-4.592z"/><path id="K" d="M75.06 256.858c-.896 0-1.596-.7-1.596-1.596s.7-1.596 1.596-1.596 1.596.7 1.596 1.596-.7 1.596-1.596 1.596z"/><path id="L" d="M88.92 256.858h-9.156c-.476 0-.812-.392-.812-.784 0-.168.084-.336.168-.448l8.344-11.788a3.95 3.95 0 0 0 .644-2.1c0-2.044-1.624-3.724-3.668-3.724-2.66 0-3.724 2.912-4.48 2.912-.42 0-.868-.336-.868-.784 0-.644 2.128-3.724 5.348-3.724 2.912 0 5.265 2.38 5.265 5.236a5.37 5.37 0 0 1-.98 3.08l-7.42 10.528h7.616c.504 0 .784.42.784.812 0 .364-.28.784-.784.784z"/><path id="M" d="M94.767 242.64c-1.42 0-2.58-1.3-2.58-2.874s1.16-2.857 2.58-2.857c1.403 0 2.563 1.274 2.563 2.857s-1.16 2.874-2.563 2.874zm0-4.816c-.816 0-1.65.768-1.65 1.943s.833 1.943 1.65 1.943 1.633-.767 1.633-1.943-.816-1.943-1.633-1.943zm6.17-.604l-3.118 11.266c-.082.23-.212.343-.408.343-.245 0-.506-.196-.506-.474 0-.05 0-.098.017-.13l3.118-11.266c.08-.245.23-.36.425-.36.23 0 .49.212.49.5 0 .033 0 .065-.017.13zm2.024 11.314c-1.403 0-2.562-1.3-2.562-2.874 0-1.567 1.16-2.857 2.563-2.857 1.42 0 2.58 1.3 2.58 2.857 0 1.583-1.16 2.874-2.58 2.874zm0-4.8c-.815 0-1.632.768-1.632 1.927 0 1.175.816 1.943 1.632 1.943.833 0 1.65-.768 1.65-1.943 0-1.16-.816-1.927-1.65-1.927z"/><path id="N" d="M120.9 257.334c-4.508 0-7.028-3.696-7.028-7.924 0-4.2 2.52-7.896 7.028-7.896s7.028 3.696 7.028 7.896c0 4.228-2.52 7.924-7.028 7.924zm0-14.224c-3.304 0-5.432 2.66-5.432 6.3s2.128 6.328 5.432 6.328c3.332 0 5.432-2.688 5.432-6.328s-2.1-6.3-5.432-6.3z"/><path id="O" d="M135.825 238.5h-.867c-.673 0-1.232.56-1.232 1.204V242h2.1c.532 0 .784.42.784.784 0 .392-.28.812-.784.812h-2.1v12.488c0 .504-.392.784-.784.784s-.784-.252-.784-.784v-12.488h-1.932c-.504 0-.784-.42-.784-.812 0-.364.28-.784.784-.784h1.932v-2.296a2.78 2.78 0 0 1 2.772-2.772h.896c.504 0 .813.392.813.812 0 .392-.28.756-.812.756z"/><path id="P" d="M152.093 257.334c-2.437 0-4.257-1.008-5.433-2.66v7.252c0 .504-.42.812-.784.812-.392 0-.812-.308-.812-.812v-19.152c0-.504.42-.784.812-.784.364 0 .784.28.784.784v1.372c1.176-1.624 2.996-2.632 5.433-2.632 4.508 0 7.027 3.696 7.027 7.896 0 4.228-2.52 7.924-7.027 7.924zm0-14.224c-3.332 0-5.433 2.66-5.433 6.3s2.1 6.328 5.433 6.328 5.432-2.688 5.432-6.328-2.1-6.3-5.432-6.3z"/><path id="Q" d="M206.636 256.858c-.392 0-.812-.28-.812-.784v-.896c-1.176 1.372-2.884 2.156-4.788 2.156-3.472 0-6.384-2.912-6.384-6.384v-8.176c0-.504.42-.784.812-.784.364 0 .784.28.784.784v8.176a4.77 4.77 0 1 0 9.576 0v-8.176c0-.504.42-.784.812-.784.364 0 .784.28.784.784v13.3c0 .504-.42.784-.784.784z"/><path id="R" d="M213.608 257.026c-1.512 0-2.77-1.4-2.77-2.968v-16.352c0-.504.42-.784.812-.784.364 0 .784.28.784.784v16.352c0 1.792 1.988.756 1.988 2.016 0 .476-.336.952-.812.952z"/><path id="S" d="M231.024 256.858h-.028c-.924 0-2.24-.504-2.772-2.184-1.176 1.652-2.995 2.66-5.432 2.66-4.563 0-7.028-3.752-7.028-7.924 0-4.228 2.52-7.896 7.028-7.896 2.437 0 4.256 1.008 5.432 2.632v-1.372c0-.448.364-.784.813-.784.392 0 .784.28.784.784v11.284c0 1.792 2.016.672 2.016 2.016 0 .364-.252.784-.812.784zM222.79 243.1c-3.304 0-5.432 2.66-5.432 6.3s2.128 6.328 5.432 6.328c3.332 0 5.432-2.688 5.432-6.328s-2.1-6.3-5.432-6.3z"/><path id="T" d="M238.947 256.858h-.868c-2.212 0-3.304-1.092-3.304-3.276v-9.996h-1.43c-.504 0-.783-.42-.783-.812 0-.364.28-.784.783-.784h1.43v-4.284c0-.504.42-.784.812-.784s.784.28.784.784V242h2.576c.504 0 .784.42.784.784 0 .392-.28.812-.784.812h-2.576v9.996c0 1.372.392 1.68 1.708 1.68h.868c.504 0 .784.42.784.812 0 .364-.28.784-.784.784z"/><path id="U" d="M242.53 239.302c-.896 0-1.596-.7-1.596-1.596s.7-1.596 1.596-1.596 1.597.7 1.597 1.596-.7 1.596-1.597 1.596zm0 17.556c-.392 0-.812-.252-.812-.784v-13.3c0-.504.392-.784.812-.784.364 0 .784.252.784.784v13.3c0 .504-.364.784-.784.784z"/><path id="V" d="M274.9 256.858c-.392 0-.812-.28-.812-.784v-8.176c0-2.66-2.128-4.788-4.787-4.788-2.633 0-4.788 2.128-4.788 4.788v8.176c0 .504-.42.784-.784.784-.393 0-.812-.28-.812-.784v-13.3c0-.504.42-.784.813-.784.364 0 .784.28.784.784v.896c1.26-1.372 2.912-2.156 4.788-2.156a6.44 6.44 0 0 1 6.384 6.384v8.176c0 .504-.42.784-.784.784z"/><path id="W" d="M723.76 139.48h-3.22c-.756 0-1.176-.588-1.176-1.176 0-.644.42-1.204 1.176-1.204h.42v-15.176h-.42c-.756 0-1.176-.588-1.176-1.176 0-.644.42-1.204 1.176-1.204h3.22c.813 0 1.232.56 1.232 1.204 0 .588-.42 1.176-1.232 1.176h-.42V137.1h.42c.813 0 1.232.56 1.232 1.204 0 .588-.42 1.176-1.232 1.176z"/><path id="X" d="M733.813 126.516c-2.156 0-3.976 1.82-3.976 4.004v7.756c0 .784-.588 1.204-1.232 1.204-.588 0-1.176-.42-1.176-1.176v-12.488c0-.784.644-1.204 1.176-1.204.56 0 1.092.308 1.204.952 1.092-.896 2.576-1.428 4.004-1.428.813 0 1.232.56 1.232 1.204 0 .616-.42 1.176-1.232 1.176z"/><path id="Y" d="M749.264 139.48c-1.54 0-2.24-1.092-2.492-1.596-1.12 1.232-2.744 2.072-4.928 2.072-4.564 0-7.028-3.752-7.028-7.924s2.52-7.896 7.028-7.896c1.96 0 3.527.7 4.62 1.848v-.112c0-.308.112-1.26 1.177-1.26.588 0 1.23.308 1.23 1.176v10.808c0 .364.252.504.393.504.783 0 1.204.56 1.204 1.204a1.15 1.15 0 0 1-1.204 1.176zm-7.42-12.964c-2.8 0-4.62 2.184-4.62 5.516 0 3.36 1.82 5.544 4.62 5.544 2.827 0 4.62-2.184 4.62-5.544 0-3.332-1.792-5.516-4.62-5.516z"/><path id="Z" d="M764.72 145.388c-.615 0-1.204-.42-1.204-1.204v-6.048c-1.147 1.204-2.66 1.82-4.62 1.82-4.51 0-7.028-3.696-7.028-7.924s2.52-7.924 7.028-7.924c2.968 0 4.62 1.708 4.62 1.708 0-.784.59-1.204 1.204-1.204s1.204.42 1.204 1.176v18.396c0 .784-.588 1.204-1.204 1.204zm-5.823-18.9c-2.772 0-4.62 2.212-4.62 5.516 0 3.36 1.82 5.572 4.62 5.572 2.827 0 4.62-2.184 4.62-5.544 0-3.332-1.792-5.544-4.62-5.544z"/><path id="a" d="M785.607 120.608l-7.084 18.368c-.168.364-.42.532-.7.532-.392 0-.84-.336-.84-.812 0-.112.028-.196.056-.308l6.637-17.276h-8.82c-.42 0-.812-.364-.812-.784s.392-.784.812-.784h9.996c.504 0 .84.28.84.7 0 .112-.028.252-.084.364z"/><path id="b" d="M804.395 120.608l-7.084 18.368c-.168.364-.42.532-.7.532-.393 0-.84-.336-.84-.812 0-.112.027-.196.056-.308l6.636-17.276h-8.82c-.42 0-.812-.364-.812-.784s.393-.784.813-.784h9.995c.505 0 .84.28.84.7 0 .112-.028.252-.084.364z"/><path id="c" d="M810.548 125.262c-1.42 0-2.58-1.3-2.58-2.874s1.16-2.857 2.58-2.857c1.404 0 2.563 1.273 2.563 2.857s-1.16 2.874-2.563 2.874zm0-4.816c-.816 0-1.65.768-1.65 1.943s.833 1.943 1.65 1.943 1.633-.767 1.633-1.943-.816-1.943-1.633-1.943zm6.17-.604l-3.118 11.266c-.08.23-.212.343-.408.343-.245 0-.506-.196-.506-.474 0-.05 0-.098.017-.13l3.118-11.266c.08-.245.23-.36.425-.36.23 0 .49.212.49.5 0 .033 0 .065-.017.13zm2.025 11.314c-1.404 0-2.563-1.3-2.563-2.874 0-1.567 1.16-2.857 2.563-2.857 1.42 0 2.58 1.3 2.58 2.857 0 1.584-1.16 2.874-2.58 2.874zm0-4.8c-.816 0-1.633.768-1.633 1.927 0 1.176.816 1.943 1.633 1.943.832 0 1.648-.767 1.648-1.943 0-1.16-.816-1.927-1.648-1.927z"/><path id="d" d="M890.92 376.293c-.365 0-.757-.196-1.01-.616l-9.407-14.14v13.552c0 .784-.588 1.204-1.232 1.204-.588 0-1.176-.42-1.176-1.176V357.56c0-.784.615-1.204 1.23-1.204.392 0 .728.168 1.01.588l9.407 14.14V357.56c0-.812.59-1.204 1.177-1.204.644 0 1.23.392 1.23 1.176v17.556c0 .756-.616 1.204-1.23 1.204z"/><path id="e" d="M898.284 376.32c-1.12 0-2.016-.896-2.016-2.016s.896-1.96 2.016-1.96 2.016.84 2.016 1.96-.896 2.016-2.016 2.016z"/><path id="f" d="M923.064 376.293c-.364 0-.785-.196-1.008-.672l-4.593-9.492-3.22 4.032v4.956c0 .756-.645 1.176-1.176 1.176-.616 0-1.232-.42-1.232-1.176v-17.584c0-.784.645-1.176 1.176-1.176.616 0 1.232.392 1.232 1.176v8.792l7.645-9.492c.252-.336.56-.476.867-.476.672 0 1.288.532 1.288 1.204 0 .224-.084.504-.308.756l-4.592 5.74 5.04 10.5c.112.196.14.392.14.56 0 .7-.645 1.176-1.26 1.176z"/><path id="g" d="M932.69 376.77c-4.508 0-7.027-3.696-7.027-7.924 0-4.2 2.52-7.896 7.027-7.896s7.028 3.696 7.028 7.896c0 4.228-2.52 7.924-7.028 7.924zm0-13.44c-2.8 0-4.62 2.184-4.62 5.516 0 3.36 1.82 5.544 4.62 5.544 2.828 0 4.62-2.184 4.62-5.544 0-3.332-1.792-5.516-4.62-5.516z"/><path id="h" d="M949.995 363.33c-2.156 0-3.977 1.82-3.977 4.004v7.756c0 .784-.588 1.204-1.23 1.204-.59 0-1.177-.42-1.177-1.176V362.63c0-.784.645-1.204 1.177-1.204.56 0 1.092.308 1.204.952 1.092-.896 2.576-1.428 4.004-1.428.813 0 1.232.56 1.232 1.204 0 .616-.42 1.176-1.232 1.176z"/><path id="i" d="M964.97 370.077H954.6c.392 2.632 2.07 4.312 4.536 4.312 1.26 0 2.52-.448 3.332-1.456.252-.28.53-.448.867-.448.617 0 1.26.56 1.26 1.232 0 .336-.084.588-.673 1.176-1.26 1.232-2.995 1.876-4.787 1.876-4.508 0-7.028-3.724-7.028-7.924 0-4.172 2.52-7.896 7.028-7.896 4.564 0 7 3.724 7 7.896 0 .616-.448 1.232-1.176 1.232zm-5.824-6.748c-2.633 0-4.172 1.932-4.536 4.34h9.07c-.39-2.688-2.07-4.34-4.535-4.34z"/><path id="j" d="M983.533 376.293c-1.54 0-2.24-1.092-2.492-1.596-1.12 1.232-2.744 2.072-4.928 2.072-4.563 0-7.028-3.752-7.028-7.924s2.52-7.896 7.028-7.896c1.96 0 3.528.7 4.62 1.848v-.112c0-.308.11-1.26 1.176-1.26.588 0 1.232.308 1.232 1.176v10.808c0 .364.252.504.392.504.784 0 1.204.56 1.204 1.204a1.15 1.15 0 0 1-1.204 1.176zm-7.42-12.964c-2.8 0-4.62 2.184-4.62 5.516 0 3.36 1.82 5.544 4.62 5.544 2.827 0 4.62-2.184 4.62-5.544 0-3.332-1.793-5.516-4.62-5.516z"/><path id="k" d="M1005.513 372.57h-1.82v2.94c0 .504-.42.784-.812.784-.364 0-.784-.28-.784-.784v-2.94h-7.53c-.56 0-.84-.308-.84-.7 0-.14.027-.336.14-.504l7.896-15.064c.168-.308.448-.448.73-.448.392 0 .812.336.812.784 0 .112-.028.252-.112.42l-7.28 13.916h6.188v-3.612c0-.56.42-.84.784-.84.392 0 .812.28.812.812v3.64h1.82c.504 0 .784.392.784.784s-.28.812-.784.812z"/><path id="l" d="M1011.17 376.293c-.896 0-1.597-.7-1.597-1.596s.7-1.596 1.597-1.596 1.596.7 1.596 1.596-.7 1.596-1.596 1.596z"/><path id="m" d="M1022.508 376.77c-3.276 0-5.99-2.66-5.99-5.964 0-2.296 1.203-4.256 3.08-5.264-1.428-.924-2.352-2.52-2.352-4.424 0-2.884 2.352-5.264 5.264-5.264a5.28 5.28 0 0 1 5.265 5.264c0 1.904-.953 3.5-2.38 4.424 1.877 1.008 3.08 2.968 3.08 5.236 0 3.276-2.632 5.992-5.964 5.992zm0-10.36c-2.38 0-4.396 1.932-4.396 4.368 0 2.408 1.96 4.396 4.367 4.396a4.4 4.4 0 0 0 4.396-4.368c0-2.436-1.932-4.396-4.368-4.396zm0-8.96c-2.044 0-3.668 1.652-3.668 3.668s1.624 3.696 3.668 3.696c2.017 0 3.668-1.652 3.668-3.696a3.68 3.68 0 0 0-3.668-3.668z"/><path id="n" d="M1033.926 362.075c-1.42 0-2.58-1.3-2.58-2.874s1.158-2.857 2.58-2.857c1.403 0 2.563 1.274 2.563 2.857s-1.16 2.874-2.563 2.874zm0-4.816c-.816 0-1.65.768-1.65 1.943s.833 1.943 1.65 1.943 1.633-.767 1.633-1.943-.816-1.943-1.633-1.943zm6.17-.604l-3.117 11.266c-.082.23-.213.343-.408.343-.246 0-.507-.196-.507-.474 0-.05 0-.098.017-.13l3.118-11.266c.08-.245.23-.36.425-.36.23 0 .5.212.5.5a.43.43 0 0 1-.018.131zm2.025 11.314c-1.404 0-2.563-1.3-2.563-2.874 0-1.567 1.16-2.857 2.563-2.857 1.42 0 2.58 1.3 2.58 2.857 0 1.584-1.16 2.874-2.58 2.874zm0-4.8c-.816 0-1.633.768-1.633 1.927 0 1.175.816 1.943 1.633 1.943.832 0 1.648-.768 1.648-1.943 0-1.16-.816-1.927-1.648-1.927z"/><path id="o" d="M74.037 222.635c-1.76 0-4.704-.544-6.208-2.4-.192-.288-.288-.576-.288-.832 0-.8.768-1.44 1.44-1.44.384 0 .672.192.992.544.992 1.088 2.624 1.408 4.063 1.408 2.88 0 3.808-.992 3.808-2.432 0-4.096-9.76-1.568-9.76-8.16 0-3.488 3.264-4.77 6.304-4.77 1.728 0 5.79.864 5.79 2.656 0 .704-.576 1.44-1.344 1.44-.288 0-.736-.16-1.056-.416-.864-.735-2.112-.96-3.392-.96-2.656 0-3.584.99-3.584 2.048 0 3.808 9.792 1.344 9.792 8.16 0 3.775-3.168 5.15-6.56 5.15z"/><path id="p" d="M91.508 207.276c-2.463 0-4.543 2.08-4.543 4.575v8.863c0 .896-.672 1.376-1.408 1.376-.672 0-1.344-.48-1.344-1.344v-14.27c0-.896.736-1.376 1.344-1.376.64 0 1.248.353 1.376 1.088 1.248-1.023 2.943-1.632 4.575-1.632.928 0 1.408.64 1.408 1.376 0 .704-.48 1.345-1.408 1.345z"/><path id="q" d="M110.126 222.09c-1.76 0-2.56-1.248-2.848-1.824-1.28 1.408-3.136 2.368-5.632 2.368-5.215 0-8.03-4.288-8.03-9.056s2.88-9.023 8.03-9.023c2.24 0 4.032.8 5.28 2.112v-.128c0-.353.128-1.44 1.344-1.44.672 0 1.408.353 1.408 1.345v12.35c0 .416.288.576.448.576.896 0 1.376.64 1.376 1.376 0 .672-.48 1.344-1.376 1.344zm-8.48-14.814c-3.2 0-5.28 2.495-5.28 6.303 0 3.84 2.08 6.336 5.28 6.336 3.232 0 5.28-2.496 5.28-6.336 0-3.808-2.048-6.303-5.28-6.303z"/><path id="r" d="M136.878 222.155c-1.728 0-3.2-1.473-3.2-3.265v-18.206c0-.928.672-1.376 1.376-1.376s1.376.448 1.376 1.344v18.238c0 .385.288.544.448.544.896 0 1.376.64 1.376 1.376 0 .704-.48 1.345-1.376 1.345z"/><path id="s" d="M88.178 52.222c-4.62 0-8.52 3.9-8.52 8.58v16.62c0 1.68-1.26 2.58-2.64 2.58-1.26 0-2.52-.9-2.52-2.52v-26.76c0-1.68 1.38-2.58 2.52-2.58 1.2 0 2.34.66 2.58 2.04 2.34-1.92 5.52-3.06 8.58-3.06 1.74 0 2.64 1.2 2.64 2.58 0 1.32-.9 2.52-2.64 2.52z"/><path id="t" d="M143.44 43.282a4.3 4.3 0 1 1 0-8.64 4.3 4.3 0 1 1 0 8.64zm0 36.72c-1.32 0-2.64-.9-2.64-2.52v-26.76c0-1.68 1.32-2.58 2.64-2.58 1.26 0 2.52.9 2.52 2.58v26.76c0 1.68-1.26 2.52-2.52 2.52z"/><path id="u" d="M177.277 66.68h-22.2c.84 5.64 4.44 9.24 9.72 9.24 2.7 0 5.4-.96 7.14-3.12.54-.6 1.14-.96 1.86-.96 1.32 0 2.7 1.2 2.7 2.64 0 .72-.18 1.26-1.44 2.52-2.7 2.64-6.42 4.02-10.26 4.02-9.66 0-15.06-7.98-15.06-16.98 0-8.94 5.4-16.92 15.06-16.92 9.78 0 15 7.98 15 16.92 0 1.32-.96 2.64-2.52 2.64zm-12.48-14.46c-5.64 0-8.94 4.14-9.72 9.3h19.44c-.84-5.76-4.44-9.3-9.72-9.3z"/><path id="v" d="M439.77 80c-1.32 0-2.52-.9-2.52-2.52V60.8c0-4.68-3.9-8.58-8.58-8.58-4.62 0-8.52 3.9-8.52 8.58v16.62c0 1.68-1.26 2.64-2.64 2.64-1.26 0-2.52-.9-2.52-2.58V39.862c0-1.74 1.26-2.58 2.52-2.58 1.38 0 2.64.84 2.64 2.52v10.38c2.22-2.1 5.22-3.06 8.52-3.06 7.44 0 13.68 6.18 13.68 13.68v16.62c0 1.68-1.2 2.58-2.58 2.58z"/><path id="w" d="M765.81 80c-1.32 0-2.52-.9-2.52-2.52V60.8c0-4.68-3.9-8.58-8.58-8.58-4.62 0-8.52 3.9-8.52 8.58v16.62c0 1.68-1.26 2.64-2.64 2.64-1.26 0-2.52-.9-2.52-2.58v-26.82c0-1.74 1.26-2.52 2.52-2.52 1.2 0 2.28.66 2.58 1.98 2.34-1.86 5.28-3 8.58-3 7.44 0 13.68 6.18 13.68 13.68v16.62c0 1.68-1.2 2.58-2.58 2.58z"/><path id="x" d="M65.235 128.646c-6.117 0-9.536-5.015-9.536-10.752 0-5.7 3.42-10.715 9.536-10.715s9.537 5.016 9.537 10.715c0 5.737-3.42 10.752-9.537 10.752zm0-19.3c-4.483 0-7.37 3.61-7.37 8.55s2.888 8.587 7.37 8.587c4.52 0 7.37-3.647 7.37-8.587s-2.85-8.55-7.37-8.55z"/><path id="y" d="M82.297 128.228c-2.052 0-3.762-1.9-3.762-4.027v-22.188c0-.684.57-1.063 1.103-1.063.494 0 1.063.38 1.063 1.063V124.2c0 2.432 2.697 1.026 2.697 2.736 0 .645-.455 1.29-1.102 1.29z"/><path id="z" d="M110.038 104.178a2.14 2.14 0 1 1 0-4.332 2.14 2.14 0 0 1 0 4.332zm0 23.822c-.532 0-1.103-.342-1.103-1.063V108.89c0-.684.532-1.063 1.103-1.063.494 0 1.063.342 1.063 1.063v18.048c0 .684-.494 1.063-1.063 1.063z"/><path id="AA" d="M195.154 128h-.038c-1.254 0-3.04-.684-3.762-2.964-1.596 2.242-4.065 3.61-7.37 3.61-6.193 0-9.536-5.09-9.536-10.752 0-5.737 3.42-10.715 9.536-10.715 3.306 0 5.775 1.368 7.37 3.572v-1.862c0-.607.494-1.063 1.102-1.063.532 0 1.064.38 1.064 1.063V124.2c0 2.432 2.735.912 2.735 2.736a1.04 1.04 0 0 1-1.102 1.063zm-11.17-18.655c-4.483 0-7.37 3.61-7.37 8.55s2.888 8.587 7.37 8.587c4.52 0 7.37-3.647 7.37-8.587s-2.85-8.55-7.37-8.55z"/><path id="AB" d="M318.31 128.646c-3.306 0-5.775-1.367-7.37-3.61v9.84c0 .684-.57 1.102-1.063 1.102-.532 0-1.103-.418-1.103-1.102V108.89c0-.684.57-1.063 1.103-1.063.494 0 1.063.38 1.063 1.063v1.862c1.596-2.204 4.065-3.572 7.37-3.572 6.117 0 9.536 5.016 9.536 10.715 0 5.737-3.42 10.752-9.536 10.752zm0-19.3c-4.52 0-7.37 3.61-7.37 8.55s2.85 8.587 7.37 8.587 7.37-3.647 7.37-8.587-2.85-8.55-7.37-8.55z"/></defs></svg>