<svg xmlns="http://www.w3.org/2000/svg" xmlns:xlink="http://www.w3.org/1999/xlink" viewBox="0 0 1080 1080"><style><![CDATA[.L{fill:#fff}.M{opacity:.5}.N{stroke-width:2}.O{stroke-dasharray:1.99422,5.98266}]]></style><linearGradient id="A" gradientUnits="userSpaceOnUse" x1="11.716" y1="11.716" x2="1068.284" y2="1068.284"><stop offset="0" stop-color="#232526"/><stop offset=".596" stop-color="#383a3c"/><stop offset="1" stop-color="#414345"/></linearGradient><path d="M1040 1080H40c-22.09 0-40-17.91-40-40V40C0 17.91 17.91 0 40 0h1000c22.09 0 40 17.91 40 40v1000c0 22.09-17.91 40-40 40z" fill="url(#A)"/><path d="M69.583 213.172c-7.595 0-8.207-7.74-8.207-13.426 0-6.73 1.476-13.462 8.207-13.462 3.023 0 5.183 1.332 6.66 3.6a1.41 1.41 0 0 1 .324.936c0 .828-.756 1.476-1.584 1.476-.468 0-.936-.216-1.296-.72-.936-1.404-2.16-2.196-4.104-2.196-3.42 0-5.003 3.06-5.1 9.935a7.45 7.45 0 0 1 5.11-2.05c4.32 0 7.74 3.743 7.74 7.955s-3.42 7.955-7.74 7.955zm0-12.85c-2.484 0-4.572 2.16-4.715 4.967.468 2.808 1.943 4.823 4.715 4.823 2.483 0 4.643-2.23 4.643-4.896s-2.16-4.895-4.643-4.895zm18.504 12.85c-4.392 0-7.955-3.563-7.955-7.92 0-2.77 1.332-5.1 3.492-6.55-1.62-1.296-2.556-3.204-2.556-5.4a7.03 7.03 0 0 1 7.019-7.019c3.852 0 7.02 3.168 7.02 7.02 0 2.196-.936 4.104-2.556 5.4 2.088 1.44 3.456 3.78 3.456 6.515 0 4.392-3.527 7.955-7.92 7.955zm0-12.85c-2.7 0-4.896 2.268-4.896 4.895 0 2.7 2.232 4.896 4.86 4.896a4.92 4.92 0 0 0 4.896-4.86c0-2.7-2.23-4.93-4.86-4.93zm0-10.943a3.86 3.86 0 0 0-3.923 3.923c0 2.196 1.656 3.996 3.923 3.996 2.16 0 3.923-1.8 3.923-3.996 0-2.16-1.764-3.923-3.923-3.923zm17.783 23.54c-2.412 0-5.147-1.296-6.48-3.42a1.59 1.59 0 0 1-.252-.864c0-.828.72-1.476 1.548-1.476.684 0 .936.252 1.476.972.9 1.116 2.304 1.728 3.708 1.728 2.483 0 5.003-2.268 5.003-5.507 0-3.275-2.52-5.543-5.003-5.543-1.908 0-3.204.972-3.816 2.016a1.52 1.52 0 0 1-1.404.828c-.936 0-1.547-.612-1.547-1.8v-11.4c0-.828.72-1.512 1.547-1.512h10.943c1.044 0 1.584.72 1.584 1.548 0 .756-.504 1.512-1.512 1.512h-9.502v6.73c.864-.612 2.23-.972 3.708-.972 4.427 0 8.063 3.744 8.063 8.603 0 4.788-3.636 8.567-8.063 8.567zm895.634 283.348c-2.772 0-5.22-1.44-6.552-3.67a1.57 1.57 0 0 1-.252-.828c0-.864.756-1.512 1.584-1.512.468 0 .972.18 1.296.72a4.44 4.44 0 0 0 3.888 2.23c2.7 0 4.932-2.23 4.932-4.86 0-2.7-2.196-4.93-4.896-4.93h-.036c-.937 0-1.512-.72-1.512-1.512s.6-1.547 1.548-1.547a3.9 3.9 0 0 0 3.959-3.96c0-2.16-1.764-3.923-3.96-3.923-3.492 0-3.528 3.528-5.4 3.528-.828 0-1.62-.648-1.62-1.512a1.59 1.59 0 0 1 .252-.864c.864-1.332 3.023-4.248 6.768-4.248a7.03 7.03 0 0 1 7.019 7.019c0 2.196-.936 4.104-2.556 5.4 2.088 1.44 3.492 3.78 3.492 6.515a7.96 7.96 0 0 1-7.955 7.955zm18.18 0c-2.987 0-5.147-1.296-6.623-3.563-.252-.324-.36-.612-.36-.936 0-.828.792-1.476 1.62-1.476a1.47 1.47 0 0 1 1.26.684c.937 1.44 2.196 2.23 4.104 2.23 3.456 0 5.004-3.096 5.147-9.935-1.187 1.152-3.06 2.052-5.147 2.052-4.283 0-7.703-3.744-7.703-7.955 0-4.248 3.42-8 7.703-8 7.596 0 8.207 7.775 8.207 13.426 0 6.73-1.476 13.462-8.207 13.462zm0-23.793c-2.447 0-4.643 2.196-4.643 4.896 0 2.664 2.195 4.86 4.643 4.86 2.52 0 4.607-2.124 4.716-4.967-.432-2.772-1.908-4.788-4.716-4.788zm24.767 18.86h-1.548v2.808c0 .972-.828 1.512-1.548 1.512-.756 0-1.548-.54-1.548-1.512v-2.808h-8.603c-1.008 0-1.62-.612-1.62-1.44 0-.216.036-.504.216-.792l9.935-18.897c.288-.576.828-.828 1.296-.828.828 0 1.62.648 1.62 1.476a1.39 1.39 0 0 1-.216.792l-8.7 16.63h6.083v-4.104c0-1.044.756-1.584 1.512-1.584.792 0 1.584.504 1.584 1.548v4.14h1.548c1.008 0 1.548.72 1.548 1.548 0 .792-.54 1.512-1.548 1.512z" class="L"/><linearGradient id="B" gradientUnits="userSpaceOnUse" x1="540" y1="953.154" x2="540" y2="201.671"><stop offset="0" stop-color="#0099f7"/><stop offset=".01" stop-color="#0596f2"/><stop offset=".122" stop-color="#3c79be"/><stop offset=".238" stop-color="#6c5f90"/><stop offset=".356" stop-color="#954969"/><stop offset=".476" stop-color="#b6374a"/><stop offset=".598" stop-color="#d02931"/><stop offset=".723" stop-color="#e21f20"/><stop offset=".854" stop-color="#ed1915"/><stop offset="1" stop-color="#f11712"/></linearGradient><path d="M34 953.154h1012V520.598c-15.375-1.92-30.01-3.842-45.386-3.842-15.333 0-30.666 19.56-46 26.13s-30.666 13.284-46 13.284-30.666-3.452-46-8.234c-15.375-4.795-30.75-20.53-46.125-20.53-15.333 0-30.666.768-46 .768s-30.666-10.905-46-19.103-30.666-20.195-46-30.08c-15.375-9.913-30.75-22.01-46.125-29.313-15.333-7.284-30.666-10.704-46-14.492s-30.666-8.234-46-8.234-30.666 8.364-46 11.308c-15.375 2.952-30.75 6.368-46.125 6.368-15.333 0-30.666-8.124-46-13.833s-30.666-15.17-46-20.42-30.666-9.63-46-11.088c-15.375-1.464-30.75-.732-46.125-2.196-15.333-1.46-30.666-6.935-46-18.115s-30.666-32.863-46-48.964-30.666-35.03-46-47.647C110.75 269.712 95.374 267.737 80 254.258c-15.333-13.442-30.666-33.014-46-52.587v751.483z" fill="url(#B)"/><circle cx="34" cy="201.671" r="14.999" opacity=".4" fill="none" stroke="#fff" stroke-width="3"/><path d="M34 208.67a7.01 7.01 0 0 1-7-6.999 7.01 7.01 0 0 1 7-6.999 7.01 7.01 0 0 1 6.999 6.999A7.01 7.01 0 0 1 34 208.67zm1012 318.927a7.01 7.01 0 0 1-7-6.999 7.01 7.01 0 0 1 7-6.999 7.01 7.01 0 0 1 6.999 6.999 7.01 7.01 0 0 1-6.999 6.999z" class="L"/><circle cx="1046" cy="520.598" r="14.999" opacity=".4" fill="none" stroke="#fff" stroke-width="3"/><g class="L M"><use xlink:href="#D"/><use xlink:href="#E"/><use xlink:href="#E" x="12.798"/><path d="M70.223 985.4c.192 1.664.896 3.776 2.944 3.776 1.983 0 3.456-2.048 3.456-6.048 0-4.32-1.473-5.663-3.168-5.663-1.312 0-2.528.99-2.912 2.24l-1.792-.32.77-11.71h8.127l-.192 1.92h-6.08l-.448 7.04c.8-.672 1.888-1.088 3.072-1.088 2.688 0 4.928 2.495 4.928 7.52 0 5.28-2.56 8.032-5.632 8.032-3.328 0-4.992-2.496-5.184-5.504l2.11-.192z"/></g><g class="L M"><path d="M1000.692 990.766v-1.92c2.048-6.848 8.447-10.687 8.447-15.935 0-2.432-1.216-3.647-2.784-3.647-1.823 0-3.168 1.407-3.36 4.863h-2.112c.256-5.248 2.624-6.783 5.408-6.783 3.04 0 5.15 2.048 5.15 5.887 0 5.76-5.184 7.552-8.64 15.615h8.768v1.92h-10.88zm18.206.32c-3.775 0-5.567-3.52-5.567-11.87s1.792-11.87 5.567-11.87 5.567 3.52 5.567 11.87-1.792 11.87-5.567 11.87zm0-21.822c-2.112 0-3.264 2.367-3.264 9.95s1.15 9.95 3.264 9.95 3.264-2.368 3.264-9.95-1.152-9.95-3.264-9.95z"/><use xlink:href="#D" x="992.639"/><path d="M1035.632 967.663H1046v1.216l-6.72 21.887h-2.432l6.72-21.183h-7.936v-1.92z"/></g><g class="L M"><path d="M47.217 305.146c-5.908 0-6.384-6.02-6.384-10.444 0-5.236 1.148-10.472 6.384-10.472 2.352 0 4.032 1.036 5.18 2.8.196.252.252.476.252.728 0 .644-.588 1.148-1.232 1.148-.364 0-.728-.168-1.008-.56-.728-1.092-1.68-1.708-3.192-1.708-2.66 0-3.892 2.38-3.976 7.728.924-.896 2.352-1.596 3.976-1.596 3.36 0 6.02 2.912 6.02 6.188s-2.66 6.188-6.02 6.188zm0-9.996c-1.932 0-3.556 1.68-3.668 3.864.364 2.184 1.512 3.752 3.668 3.752 1.932 0 3.612-1.736 3.612-3.808s-1.68-3.808-3.612-3.808z"/><use xlink:href="#F"/><use xlink:href="#F" x="14.448"/></g><g class="L M"><path d="M51.445 522.3H50.24v2.185c0 .756-.644 1.176-1.204 1.176-.588 0-1.204-.42-1.204-1.176V522.3H41.14c-.784 0-1.26-.476-1.26-1.12a1.14 1.14 0 0 1 .168-.616l7.728-14.7c.224-.448.644-.644 1.008-.644.644 0 1.26.504 1.26 1.148a1.08 1.08 0 0 1-.168.616L43.1 519.93h4.732v-3.192c0-.812.588-1.23 1.176-1.23.616 0 1.232.392 1.232 1.204v3.22h1.204a1.14 1.14 0 0 1 1.204 1.204c0 .616-.42 1.176-1.204 1.176z"/><use xlink:href="#G"/><use xlink:href="#G" x="14.448"/></g><g class="L M"><path d="M50.157 743.67H41.59c-.812 0-1.288-.477-1.288-1.064 0-.252.084-.504.252-.756l7.644-11.62c.336-.533.532-1.176.532-1.68 0-1.65-1.232-2.91-2.884-2.91-1.484 0-2.744 1.26-3.22 2.155-.224.42-.588.588-.952.588-.644 0-1.232-.504-1.232-1.147 0-.868 1.988-4.004 5.404-4.004 2.912 0 5.264 2.38 5.264 5.264a5.46 5.46 0 0 1-.952 3.023l-6.412 9.772h6.412c.812 0 1.232.56 1.232 1.204 0 .588-.42 1.176-1.232 1.176z"/><use xlink:href="#H"/><use xlink:href="#H" x="14.448"/></g><g opacity=".3" class="L"><path d="M42.328 1046.045c-3.568 0-5.47-1.97-5.503-2.002 0 .935-.7 1.4-1.468 1.4-.7 0-1.4-.467-1.4-1.4v-20.88a1.35 1.35 0 0 1 1.401-1.434c.767 0 1.468.467 1.468 1.4v6.238c1.334-1.368 3.168-2.17 5.503-2.17 5.37 0 8.373 4.403 8.373 9.406 0 5.037-3.002 9.44-8.373 9.44zm0-16c-3.335 0-5.503 2.602-5.503 6.57 0 4.003 2.168 6.604 5.503 6.604s5.504-2.602 5.504-6.604c0-3.97-2.168-6.57-5.504-6.57zm25.555 8.037h-12.34c.467 3.136 2.468 5.137 5.403 5.137 1.5 0 3.002-.533 3.97-1.734.3-.333.634-.533 1.034-.533.734 0 1.5.667 1.5 1.468 0 .4-.1.7-.8 1.4-1.5 1.468-3.57 2.235-5.704 2.235-5.37 0-8.372-4.437-8.372-9.44 0-4.97 3.002-9.406 8.372-9.406 5.437 0 8.34 4.437 8.34 9.406 0 .734-.534 1.468-1.4 1.468zm-6.937-8.038c-3.136 0-4.97 2.3-5.403 5.17H66.35c-.467-3.202-2.468-5.17-5.403-5.17zM88 1045.478c-1.834 0-2.668-1.3-2.97-1.9-1.334 1.468-3.27 2.47-5.87 2.47-5.437 0-8.372-4.47-8.372-9.44s3.002-9.406 8.372-9.406c2.335 0 4.203.834 5.504 2.202v-.134c0-.367.133-1.5 1.4-1.5.7 0 1.468.367 1.468 1.4v12.875c0 .434.3.6.467.6.935 0 1.435.667 1.435 1.434a1.37 1.37 0 0 1-1.435 1.401zm-8.84-15.443c-3.336 0-5.504 2.602-5.504 6.57 0 4.003 2.168 6.604 5.504 6.604 3.37 0 5.504-2.602 5.504-6.604 0-3.97-2.135-6.57-5.504-6.57z"/><use xlink:href="#I"/><path d="M115.158 1045.478h-.567c-3.17 0-4.37-1.668-4.37-4.403V1030.6h-1c-.8 0-1.435-.634-1.435-1.4 0-.8.634-1.435 1.4-1.435h1v-4.637c0-.934.7-1.4 1.435-1.4s1.4.467 1.4 1.4v4.637h2.135c.934 0 1.4.768 1.4 1.4 0 .8-.533 1.434-1.4 1.434h-2.135v10.774c0 .934.333 1.268 1.268 1.268h.833c.868 0 1.435.634 1.435 1.4 0 .8-.533 1.435-1.4 1.435zm4.604-20.415a2.402 2.402 0 1 1 0-4.803 2.402 2.402 0 1 1 0 4.803zm0 20.414c-.733 0-1.467-.5-1.467-1.4V1029.2c0-.935.733-1.435 1.467-1.435a1.37 1.37 0 0 1 1.401 1.435v14.876c0 .935-.7 1.4-1.4 1.4zm10.376-14.877h-1.5v13.442c0 .935-.7 1.4-1.468 1.4-.7 0-1.4-.467-1.4-1.4V1030.6h-1.37c-.9 0-1.4-.667-1.4-1.4 0-.768.5-1.435 1.4-1.435h1.367v-2.27c0-2.135 1.77-3.77 3.836-3.77.968 0 1.468.667 1.468 1.434 0 .7-.5 1.4-1.468 1.4-.566 0-.967.434-.967.9v2.302h1.5c.967 0 1.468.667 1.468 1.435 0 .733-.5 1.4-1.468 1.4z"/><use xlink:href="#I" x="42.068"/><path d="M154.725 1045.544c-1.802 0-3.336-1.534-3.336-3.402v-18.98c0-.967.7-1.434 1.435-1.434s1.435.467 1.435 1.4v19.013c0 .4.3.567.467.567.934 0 1.435.667 1.435 1.435 0 .733-.5 1.4-1.435 1.4zm15.37-.066v-1.264c1.886-.237 2.046-.437 2.046-3.157v-6.7c0-2.8-1.248-4.017-3.064-4.017-1.237 0-2.345.6-3.47 1.493v9.476c0 2.527.187 2.658 2.06 2.896v1.264h-8.968v-1.264c2.254-.33 2.5-.4 2.5-3v-8.2c0-2.446-.303-2.565-2.185-2.922v-1.184c2.173-.292 4.63-.807 6.653-1.533l-.052 2.95 2.6-1.745c1.16-.713 2-1.086 3.16-1.086 3.194 0 5.2 2.338 5.2 6.3v7.5c0 2.54.237 2.657 2.277 2.92v1.264h-8.74zm23.9-3.703c-2.458 3.427-5.488 4.178-7.014 4.178-5.142 0-8.124-3.936-8.124-8.594 0-2.745 1.183-5.396 2.832-7.062 1.74-1.8 3.945-2.814 6.082-2.814 3.73 0 6.396 3.126 6.37 6.347-.014.715-.08 1.277-.612 1.4-.767.184-6.17.5-10.318.647.062 4.587 2.717 6.74 5.556 6.74 1.572 0 3.104-.597 4.543-1.866l.686 1.014zm-7.07-12.7c-1.667 0-3.167 1.807-3.516 4.963l5.486-.118c.6-.026.848-.146.848-.792.04-2.022-1.037-4.053-2.818-4.053zm34.284.145c-1.943.343-2.248.624-3.105 2.765-1.33 3.462-3.102 8.53-4.934 13.94h-1.512l-4.65-11.46-4.55 11.46h-1.472l-4.685-14.192c-.687-1.985-.94-2.274-2.855-2.512v-1.25h9.397v1.25c-2.325.345-2.535.672-2.058 2.133l2.52 8.214c1.507-3.68 2.988-7.62 4.327-11.424h1.456c1.4 3.76 2.986 7.702 4.573 11.568.742-2.107 2.062-5.964 2.557-8.108.412-1.674-.008-2.078-2.753-2.383v-1.25h7.742v1.25zm9.4 3.746c-.92-2.606-2.155-3.984-4.2-3.984-1.206 0-2.225.86-2.225 2.266 0 1.497 1.046 2.264 3.16 3.216 3.278 1.496 5.3 2.787 5.3 5.736 0 3.85-3.6 5.764-6.945 5.764-2.06 0-4.088-.737-4.92-1.16l-.662-4.892 1.252-.224c.8 2.5 2.33 4.75 4.976 4.75 1.505 0 2.438-.952 2.438-2.28 0-1.423-.76-2.333-3.092-3.467-2.67-1.295-5.107-2.64-5.107-5.775 0-3.046 2.533-5.42 6.565-5.42 1.818 0 3.242.396 4.112.567l.62 4.577-1.25.328z"/></g><path d="M949.36 1046.357c-1.2 0-3.22-.42-3.92-1.58-.08-.12-.08-.22-.08-.3 0-.32.28-.602.58-.602.12 0 .32.102.44.28.72.88 2 1.06 2.98 1.06 1.94 0 2.92-.64 2.92-1.94 0-3.02-6.562-1.42-6.562-5.422 0-2.02 2.02-2.8 3.84-2.8 1.04 0 2.64.36 3.44 1.16a.56.56 0 0 1 .18.38.65.65 0 0 1-.62.6.53.53 0 0 1-.38-.16c-.62-.6-1.74-.84-2.62-.84-1.76 0-2.7.682-2.7 1.66 0 2.8 6.562 1.32 6.562 5.422 0 2.28-2 3.08-4.06 3.08zm10.72-.04c-3.22 0-5.02-2.64-5.02-5.662 0-3 1.8-5.64 5.02-5.64s5.02 2.64 5.02 5.64c0 3.02-1.8 5.662-5.02 5.662zm0-10.162c-2.36 0-3.88 1.9-3.88 4.5s1.52 4.52 3.88 4.52c2.38 0 3.88-1.92 3.88-4.52s-1.5-4.5-3.88-4.5zm15.782 9.824c-.28 0-.58-.2-.58-.56v-.64c-.84.98-2.06 1.54-3.42 1.54-2.48 0-4.56-2.08-4.56-4.56v-5.842c0-.36.3-.56.58-.56.26 0 .56.2.56.56v5.842c0 1.9 1.52 3.42 3.42 3.42s3.42-1.52 3.42-3.42v-5.842c0-.36.3-.56.58-.56.26 0 .56.2.56.56v9.502a.56.56 0 0 1-.561.561zm7.958-9.644a3.42 3.42 0 0 0-3.421 3.42v5.662c0 .36-.3.56-.56.56-.28 0-.58-.2-.58-.56v-9.502c0-.36.3-.56.58-.56.26 0 .56.2.56.56v.82c.9-.98 2.08-1.54 3.42-1.54.36 0 .58.3.58.56a.58.58 0 0 1-.58.58zm10.18 8.46c-.88.98-2.1 1.52-3.58 1.52-3.22 0-5.02-2.64-5.02-5.662 0-3 1.8-5.64 5.02-5.64 1.48 0 2.7.54 3.58 1.52.12.12.16.262.16.38a.63.63 0 0 1-.58.6c-.14 0-.28-.06-.42-.2-.66-.74-1.58-1.16-2.74-1.16-2.36 0-3.88 1.9-3.88 4.5s1.52 4.52 3.88 4.52c1.16 0 2.08-.44 2.74-1.16.14-.14.28-.2.42-.2.3 0 .58.26.58.58 0 .14-.04.26-.16.398zm11.58-3.56h-8.302c.18 2.28 1.66 3.94 3.84 3.94 1.08 0 2.36-.48 2.94-1.38.14-.22.3-.28.48-.28.3 0 .62.24.62.54 0 .18 0 .22-.38.658-.92 1.082-2.26 1.602-3.66 1.602-3.22 0-5.02-2.64-5.02-5.662 0-3 1.8-5.64 5.02-5.64s5.02 2.66 5.02 5.64c0 .3-.28.58-.56.58zm-4.46-5.08c-2.4 0-3.66 1.84-3.84 3.94h7.7c-.18-2.28-1.66-3.94-3.86-3.94zm8.44 3.26c-.64 0-1.16-.5-1.16-1.14s.52-1.14 1.16-1.14c.62 0 1.12.5 1.12 1.14s-.5 1.14-1.12 1.14zm0 6.563c-.64 0-1.16-.5-1.16-1.14s.52-1.14 1.16-1.14c.62 0 1.12.5 1.12 1.14s-.5 1.14-1.12 1.14zm18.2-13.124h-8.32v4.92h6.1a.55.55 0 0 1 .58.561c0 .28-.2.58-.56.58h-6.12v6.502c0 .36-.3.56-.56.56-.28 0-.58-.2-.58-.56v-13.123c0-.3.28-.56.58-.56h8.882a.55.55 0 0 1 .58.561.55.55 0 0 1-.58.561zm8.78 13.125h-5.802a.61.61 0 0 1-.58-.561v-13.123c0-.34.18-.56.52-.56h5.42c1.98 0 3.6 1.64 3.6 3.56 0 1.182-.52 2.2-1.42 2.86a4.06 4.06 0 0 1 2.38 3.721c0 2.28-1.84 4.102-4.12 4.102zm-.44-13.123h-4.8v4.92h4.8c1.62 0 2.46-1.44 2.46-2.44 0-1.38-1.12-2.48-2.46-2.48zm.44 6.06h-5.24v5.922h5.24c1.64 0 2.98-1.32 2.98-2.96s-1.34-2.96-2.98-2.96zm8.9 7.063h-2.28c-.36 0-.58-.3-.58-.56a.58.58 0 0 1 .58-.58h.56v-11.982h-.56c-.36 0-.58-.28-.58-.56s.22-.56.58-.56h2.28c.36 0 .56.28.56.56s-.2.56-.56.56h-.58v11.982h.58c.36 0 .56.3.56.58 0 .26-.2.56-.56.56z" class="L M"/><g opacity=".3" fill="none" stroke="#eee" class="N"><path d="M88.77 734.278h1"/><path d="M95.752 734.278h946.257" class="O"/><path d="M1045 734.278h1"/></g><g opacity=".3" fill="none" stroke="#eee" class="N"><path d="M88.77 514.707h1"/><path d="M95.752 514.707h946.257" class="O"/><path d="M1045 514.707h1"/></g><g opacity=".3" fill="none" stroke="#eee" class="N"><path d="M88.77 295.136h1"/><path d="M95.752 295.136h946.257" class="O"/><path d="M1045 295.136h1"/></g><g class="L"><path d="M64.477 40.642l-12.6 37.318c-.42 1.26-1.38 2.04-2.58 2.04-1.08 0-2.04-.78-2.52-2.04L34.12 40.642c-.12-.3-.12-.66-.12-.9 0-1.56 1.32-2.46 2.58-2.46.96 0 1.98.54 2.4 1.74l10.32 30.42 10.38-30.42c.36-1.2 1.38-1.74 2.34-1.74 1.32 0 2.7.9 2.7 2.46 0 .24-.06.6-.24.9z"/><use xlink:href="#J"/><use xlink:href="#K"/><use xlink:href="#L"/><use xlink:href="#M"/><use xlink:href="#N"/><use xlink:href="#O"/><path d="M242.733 74.48c-2.94 4.08-7.14 6.54-13.38 6.54-12.9 0-17.46-10.68-17.46-22.38 0-11.76 4.56-22.44 17.46-22.44 6.06 0 10.5 2.4 13.32 6.54.42.54.54 1.02.54 1.5 0 1.44-1.26 2.52-2.64 2.52-.78 0-1.5-.36-2.04-1.08-1.86-2.7-4.62-4.32-9.18-4.32-8.52 0-12.3 6.3-12.3 17.28s3.78 17.28 12.3 17.28c4.56 0 7.32-1.74 9.18-4.38.54-.78 1.26-1.14 2.04-1.14 1.38 0 2.7 1.14 2.7 2.58 0 .48-.18.96-.54 1.5zm17.58-22.258c-4.62 0-8.52 3.9-8.52 8.58v16.62c0 1.68-1.26 2.58-2.64 2.58-1.26 0-2.52-.9-2.52-2.52v-26.76c0-1.68 1.38-2.58 2.52-2.58 1.2 0 2.34.66 2.58 2.04a13.88 13.88 0 0 1 8.58-3.06c1.74 0 2.64 1.2 2.64 2.58 0 1.32-.9 2.52-2.64 2.52z"/><use xlink:href="#J" x="196.856"/><use xlink:href="#P"/><use xlink:href="#M" x="200.225"/><use xlink:href="#Q"/><use xlink:href="#R"/><use xlink:href="#S"/><path d="M504.208 80c-.9 0-1.8-.48-2.28-1.56l-3.18-7.8h-19.98l-3.24 7.8c-.48 1.08-1.38 1.56-2.22 1.56-1.32 0-2.7-1.02-2.7-2.52 0-.36.06-.72.24-1.02l15.42-37.498c.72-1.56 1.68-1.86 2.46-1.86.54 0 1.86.3 2.46 1.86l15.48 37.498c.12.3.18.66.18 1.02 0 1.5-1.26 2.52-2.64 2.52zm-15.48-33.6l-7.86 19.08h15.72l-7.86-19.08z"/><use xlink:href="#L" x="398.274"/><use xlink:href="#P" x="244.497"/><use xlink:href="#K" x="488.392"/><use xlink:href="#S" x="162.357"/><use xlink:href="#O" x="438.594"/><use xlink:href="#Q" x="285.897"/><use xlink:href="#R" x="285.297"/><use xlink:href="#L" x="610.728"/><path d="M756.623 51.682l-10.92 26.28c-.54 1.38-1.44 2.04-2.58 2.04-1.02 0-1.98-.66-2.58-2.04l-10.92-26.28c-.12-.42-.18-.72-.18-1.08 0-1.44 1.32-2.46 2.64-2.46.9 0 1.8.48 2.28 1.56l8.76 21 8.76-21c.42-1.14 1.5-1.62 2.34-1.62 1.38 0 2.64.96 2.64 2.46 0 .3-.06.72-.24 1.14z"/><use xlink:href="#T"/><path d="M817.462 79.94c-1.32 0-2.58-.84-2.58-2.52 0 0-3.54 3.6-9.9 3.6-9.66 0-15.06-7.92-15.06-16.98 0-9 5.4-16.92 15.06-16.92 4.2 0 7.56 1.44 9.9 3.9v-11.16c0-1.74 1.26-2.58 2.58-2.58s2.58.84 2.58 2.52V77.42c0 1.68-1.26 2.52-2.58 2.52zm-12.48-27.72c-6 0-9.9 4.68-9.9 11.82 0 7.2 3.9 11.88 9.9 11.88 6.06 0 9.9-4.68 9.9-11.88 0-7.14-3.84-11.82-9.9-11.82z"/><use xlink:href="#J" x="769.545"/><use xlink:href="#N" x="694.846"/><use xlink:href="#O" x="706.608"/><path d="M932.54 80c-1.32 0-2.52-.9-2.52-2.52V60.8c0-4.68-3.9-8.58-8.58-8.58-4.62 0-8.52 3.9-8.52 8.58v16.62c0 1.68-1.26 2.64-2.64 2.64-1.26 0-2.52-.9-2.52-2.58V39.862c0-1.74 1.26-2.58 2.52-2.58 1.38 0 2.64.84 2.64 2.52v10.38c2.22-2.1 5.22-3.06 8.52-3.06 7.44 0 13.68 6.18 13.68 13.68v16.62c0 1.68-1.2 2.58-2.58 2.58z"/><use xlink:href="#T" x="180.477"/><path d="M998.24 81.08c-8.22 0-15.06-6.6-15.06-15.06V39.8c0-1.68 1.26-2.52 2.58-2.52s2.58.84 2.58 2.52v26.22c0 5.52 4.44 9.96 9.9 9.96s9.96-4.44 9.96-9.96V39.86c0-1.74 1.2-2.58 2.52-2.58 1.38 0 2.58.84 2.58 2.52v26.22c0 8.22-6.6 15.06-15.06 15.06zm31.92-.06c-4.38 0-10.5-1.8-13.92-4.98-.66-.6-.84-1.26-.84-1.86a2.6 2.6 0 0 1 2.58-2.58c.9 0 1.2.3 2.28 1.14 2.94 2.22 6.42 3.18 9.9 3.18 7.14 0 10.26-2.58 10.26-7.02 0-12.48-23.938-5.4-23.938-21.72 0-7.32 6.18-10.98 14.1-10.98 4.14 0 10.08 1.62 13.02 5.1.48.54.66 1.08.66 1.62 0 1.44-1.32 2.7-2.58 2.7-.9 0-1.38-.42-2.4-1.32-2.4-2.04-5.46-2.94-8.7-2.94-6.48 0-8.94 2.58-8.94 5.82 0 11.22 23.94 4.56 23.94 21.72 0 8.94-7.5 12.12-15.42 12.12z"/></g><g opacity=".6" class="L"><path d="M57.822 128c-.53 0-1.063-.38-1.063-1.063v-20.63L47.715 123.1c-.228.494-.57.684-.874.684-.418 0-.76-.228-1.025-.684l-9.005-16.793v20.63c0 .684-.57 1.063-1.063 1.063-.532 0-1.103-.38-1.103-1.063v-24.925c0-.646.57-1.063 1.14-1.063.38 0 .684.15.9.53l10.07 18.808L56.87 101.48a1.03 1.03 0 0 1 .911-.531c.57 0 1.14.418 1.14 1.063v24.925c0 .684-.57 1.063-1.103 1.063zm21.66 0c-.53 0-1.102-.38-1.102-1.063v-1.216c-1.596 1.86-3.913 2.925-6.497 2.925-4.7 0-8.663-3.95-8.663-8.662V108.9c0-.684.57-1.063 1.103-1.063.493 0 1.063.38 1.063 1.063v11.095a6.497 6.497 0 1 0 12.994 0V108.9c0-.684.57-1.063 1.102-1.063.494 0 1.064.38 1.064 1.063v18.048c0 .684-.57 1.063-1.064 1.063z"/><use xlink:href="#U"/><path d="M114.1 128c-.53 0-1.102-.38-1.102-1.063v-1.9c-1.596 2.242-4.065 3.6-7.37 3.6-6.117 0-9.536-5.015-9.536-10.752 0-5.7 3.42-10.715 9.536-10.715 3.306 0 5.775 1.368 7.37 3.572v-8.74c0-.684.57-1.063 1.102-1.063.494 0 1.064.38 1.064 1.063v24.925c0 .684-.57 1.063-1.064 1.063zm-8.473-18.655c-4.483 0-7.37 3.6-7.37 8.55s2.888 8.587 7.37 8.587c4.52 0 7.37-3.647 7.37-8.587s-2.85-8.55-7.37-8.55zm31.31 9.65H121.17c.342 4.332 3.153 7.485 7.295 7.485 2.052 0 4.483-.912 5.585-2.622.267-.418.57-.53.912-.53.57 0 1.178.455 1.178 1.025 0 .342 0 .418-.722 1.254-1.748 2.052-4.293 3.04-6.953 3.04-6.117 0-9.536-5.015-9.536-10.752 0-5.7 3.42-10.715 9.536-10.715s9.537 5.054 9.537 10.715c0 .57-.532 1.102-1.064 1.102zm-8.473-9.65c-4.56 0-6.953 3.495-7.295 7.485h14.628c-.342-4.332-3.153-7.485-7.333-7.485z"/><use xlink:href="#U" x="56.582"/><use xlink:href="#V"/><use xlink:href="#W"/><use xlink:href="#U" x="103.092"/><use xlink:href="#X"/><use xlink:href="#Y"/><use xlink:href="#Z"/><use xlink:href="#a"/><path d="M313.513 119.414l-3.8 3.838 3.534 3.533c.266.266.342.532.342.798 0 .608-.494 1.102-1.064 1.102-.266 0-.53-.076-.798-.342l-3.533-3.57-1.292 1.292c-1.558 1.558-3.57 2.583-5.965 2.583-4.445 0-8.13-3.61-8.13-8.093a8.08 8.08 0 0 1 4.065-7.066l-.722-.722c-1.558-1.56-2.394-3.23-2.394-5.357 0-3.914 3.23-7.144 7.143-7.144 4.445 0 7.333 4.218 7.333 5.054 0 .607-.57 1.063-1.14 1.063-1.102 0-2.508-3.95-6.193-3.95a5 5 0 0 0-4.978 4.978c0 1.596.532 2.583 1.7 3.762l10.563 10.562 3.8-3.837c.266-.228.53-.342.798-.342.53 0 1.063.53 1.063 1.102 0 .266-.076.494-.342.76zm-15.046-4.33c-2.052.912-3.495 3-3.495 5.433 0 3.268 2.697 5.966 5.927 5.966 1.672 0 3.04-.57 4.18-1.672l1.596-1.634-8.207-8.093z"/><use xlink:href="#V" x="172.663"/><use xlink:href="#Z" x="97.848"/><path d="M380.962 109.307l-7.484 17.82c-.23.494-.57.874-1.064.874s-.874-.38-1.102-.874l-7.485-17.78c-.075-.2-.075-.342-.075-.494 0-.607.53-1.025 1.102-1.025.342 0 .76.15.95.646l6.6 15.616 6.573-15.616c.23-.494.608-.684.988-.684.57 0 1.102.418 1.102 1.025 0 .114 0 .305-.114.494zm20.178 9.69h-15.768c.342 4.332 3.153 7.485 7.295 7.485 2.052 0 4.483-.912 5.585-2.622.267-.418.57-.53.912-.53.57 0 1.178.455 1.178 1.025 0 .342 0 .418-.722 1.254-1.748 2.052-4.293 3.04-6.953 3.04-6.117 0-9.536-5.015-9.536-10.752 0-5.7 3.42-10.715 9.536-10.715s9.537 5.054 9.537 10.715c0 .57-.532 1.102-1.064 1.102zm-8.473-9.65c-4.56 0-6.953 3.495-7.295 7.485H400c-.342-4.332-3.153-7.485-7.333-7.485z"/><use xlink:href="#U" x="320.782"/><use xlink:href="#Z" x="171.215"/><use xlink:href="#X" x="248.203"/><use xlink:href="#a" x="203.402"/><use xlink:href="#V" x="334.76"/><use xlink:href="#X" x="306.418"/><path d="M545.15 128c-.532 0-1.102-.38-1.102-1.063v-1.216c-1.596 1.86-3.913 2.925-6.497 2.925-4.71 0-8.663-3.95-8.663-8.662V108.89c0-.684.57-1.063 1.103-1.063.493 0 1.063.38 1.063 1.063v11.095a6.47 6.47 0 1 0 12.994 0V108.89c0-.684.57-1.063 1.102-1.063.494 0 1.064.38 1.064 1.063v18.048c0 .684-.57 1.063-1.064 1.063z"/><use xlink:href="#b"/><path d="M565.367 128h-1.178c-3 0-4.483-1.48-4.483-4.445V109.99h-1.937c-.684 0-1.063-.57-1.063-1.102 0-.494.38-1.063 1.063-1.063h1.938v-5.813c0-.684.57-1.063 1.103-1.063s1.063.38 1.063 1.063v5.813h3.495c.685 0 1.064.57 1.064 1.063 0 .532-.38 1.102-1.064 1.102h-3.495v13.564c0 1.86.532 2.28 2.317 2.28h1.178c.685 0 1.064.57 1.064 1.103 0 .493-.38 1.063-1.064 1.063z"/><use xlink:href="#V" x="415.585"/><use xlink:href="#Y" x="372.158"/><use xlink:href="#Z" x="372.158"/><use xlink:href="#U" x="554.585"/><path d="M665 128c-.57 0-1.063-.418-1.063-1.063v-22.72l-4.142 4.027c-.19.228-.456.342-.722.342-.607 0-1.14-.57-1.14-1.178 0-.23.15-.494.342-.722l6.003-5.813c.304-.228.608-.304.722-.304.798 0 1.103.57 1.103 1.33v25.04c0 .646-.456 1.063-1.103 1.063z"/><use xlink:href="#c"/><use xlink:href="#c" x="19.607"/><use xlink:href="#W" x="539.119"/><use xlink:href="#c" x="48.105"/><use xlink:href="#c" x="67.715"/><use xlink:href="#c" x="87.322"/><use xlink:href="#Y" x="563.408"/><use xlink:href="#Z" x="563.407"/><path d="M839.683 128.646c-6.117 0-9.536-5.015-9.536-10.752 0-5.7 3.42-10.715 9.536-10.715s9.537 5.016 9.537 10.715c0 5.737-3.42 10.752-9.537 10.752zm0-19.3c-4.483 0-7.37 3.61-7.37 8.55s2.888 8.587 7.37 8.587c4.52 0 7.37-3.647 7.37-8.587s-2.85-8.55-7.37-8.55z"/><use xlink:href="#Y" x="630.172"/><use xlink:href="#b" x="324.968"/><path d="M900.518 118.996H884.75c.342 4.332 3.153 7.485 7.295 7.485 2.052 0 4.483-.912 5.585-2.622.267-.418.57-.53.912-.53.57 0 1.178.455 1.178 1.025 0 .342 0 .418-.722 1.254-1.748 2.052-4.293 3.04-6.953 3.04-6.117 0-9.536-5.015-9.536-10.752 0-5.7 3.42-10.715 9.536-10.715s9.537 5.054 9.537 10.715c0 .57-.532 1.102-1.064 1.102zm-8.473-9.65c-4.56 0-6.953 3.495-7.295 7.485h14.628c-.342-4.332-3.153-7.485-7.333-7.485z"/></g><defs ><path id="D" d="M34.066 990.766v-1.92h2.816v-18.56l-2.88.256v-1.408c1.312-.32 2.592-.896 3.647-1.79h1.536v21.502h2.688v1.92h-7.808z"/><path id="E" d="M45.33 986.478c.32 2.305 1.6 2.688 2.495 2.688 2.048 0 3.328-2.816 3.392-9.248-.928.992-2.176 1.76-3.552 1.76-2.592 0-4.96-1.856-4.96-7.104 0-4.48 1.92-7.23 4.96-7.23 4 0 5.92 2.304 5.92 10.623 0 9.28-2.176 13.12-5.823 13.12-2.976 0-4.096-1.792-4.544-4.48l2.112-.128zm5.95-10.88c0-4.672-1.216-6.335-3.264-6.335-1.792 0-3.008 1.344-3.008 5.343 0 4.128 1.408 5.152 2.88 5.152s2.624-.96 3.392-1.984V975.6z"/><path id="F" d="M61.356 305.146c-5.992 0-5.992-7.112-5.992-11.2 0-3.948.616-9.716 5.964-9.716s6.02 5.628 6.02 9.716c0 4.256-.112 11.2-5.992 11.2zm3.584-11.2c0-2.464-.056-7.308-3.584-7.308s-3.584 4.844-3.584 7.308v1.568c0 2.912.392 7.252 3.556 7.252 3.22 0 3.612-4.34 3.612-7.252v-1.568z"/><path id="G" d="M59.62 526.146c-5.992 0-5.992-7.11-5.992-11.2 0-3.947.616-9.715 5.964-9.715s6.02 5.628 6.02 9.715c0 4.257-.112 11.2-5.992 11.2zm3.584-11.2c0-2.463-.056-7.307-3.584-7.307s-3.584 4.844-3.584 7.307v1.568c0 2.912.392 7.252 3.556 7.252 3.22 0 3.612-4.34 3.612-7.252v-1.568z"/><path id="H" d="M59.424 744.146c-5.992 0-5.992-7.112-5.992-11.2 0-3.947.616-9.715 5.964-9.715s6.02 5.627 6.02 9.715c0 4.257-.112 11.2-5.992 11.2zm3.584-11.2c0-2.463-.056-7.307-3.584-7.307s-3.584 4.844-3.584 7.307v1.568c0 2.912.392 7.252 3.556 7.252 3.22 0 3.612-4.34 3.612-7.252v-1.568z"/><path id="I" d="M104.714 1045.51c-.633 0-1.267-.367-1.4-1.1-1.334 1.034-2.97 1.668-4.804 1.668-4.136 0-7.604-3.436-7.604-7.605v-9.24a1.37 1.37 0 0 1 1.4-1.435c.768 0 1.468.5 1.468 1.4v9.272c0 2.602 2.168 4.77 4.736 4.77 2.603 0 4.77-2.17 4.77-4.77v-9.24c0-1.034.667-1.468 1.4-1.468.768 0 1.435.5 1.435 1.435v14.9c0 .934-.667 1.4-1.4 1.4z"/><path id="J" d="M70.597 43.282a4.3 4.3 0 1 1 0-8.64 4.3 4.3 0 1 1 0 8.64zm0 36.72c-1.32 0-2.64-.9-2.64-2.52v-26.76c0-1.68 1.32-2.58 2.64-2.58 1.26 0 2.52.9 2.52 2.58v26.76c0 1.68-1.26 2.52-2.52 2.52z"/><path id="K" d="M91.416 81.02c-9.66 0-15.06-7.92-15.06-16.98 0-9 5.4-16.92 15.06-16.92s15.06 7.92 15.06 16.92c0 9.06-5.4 16.98-15.06 16.98zm0-28.8c-6 0-9.9 4.68-9.9 11.82 0 7.2 3.9 11.88 9.9 11.88 6.06 0 9.9-4.68 9.9-11.88 0-7.14-3.84-11.82-9.9-11.82z"/><path id="L" d="M116.316 80.12c-3.24 0-6-2.76-6-6.12V39.862c0-1.74 1.26-2.58 2.58-2.58s2.58.84 2.58 2.52V74c0 .72.54 1.02.84 1.02 1.68 0 2.58 1.2 2.58 2.58 0 1.32-.9 2.52-2.58 2.52z"/><path id="M" d="M147.575 66.68h-22.2c.84 5.64 4.44 9.24 9.72 9.24 2.7 0 5.4-.96 7.14-3.12.54-.6 1.14-.96 1.86-.96 1.32 0 2.7 1.2 2.7 2.64 0 .72-.18 1.26-1.44 2.52-2.7 2.64-6.42 4.02-10.26 4.02-9.66 0-15.06-7.98-15.06-16.98 0-8.94 5.4-16.92 15.06-16.92 9.78 0 15 7.98 15 16.92 0 1.32-.96 2.64-2.52 2.64zm-12.48-14.46c-5.64 0-8.94 4.14-9.72 9.3h19.44c-.84-5.76-4.44-9.3-9.72-9.3z"/><path id="N" d="M178.414 80c-1.32 0-2.52-.9-2.52-2.52V60.8c0-4.68-3.9-8.58-8.58-8.58-4.62 0-8.52 3.9-8.52 8.58v16.62c0 1.68-1.26 2.64-2.64 2.64-1.26 0-2.52-.9-2.52-2.58v-26.82c0-1.74 1.26-2.52 2.52-2.52 1.2 0 2.28.66 2.58 1.98 2.34-1.86 5.28-3 8.58-3 7.44 0 13.68 6.18 13.68 13.68v16.62c0 1.68-1.2 2.58-2.58 2.58z"/><path id="O" d="M196.174 80h-1.02c-5.7 0-7.86-3-7.86-7.92v-18.84h-1.8c-1.44 0-2.58-1.14-2.58-2.52 0-1.44 1.14-2.58 2.52-2.58h1.8v-8.34c0-1.68 1.26-2.52 2.58-2.52s2.52.84 2.52 2.52v8.34h3.84c1.68 0 2.52 1.38 2.52 2.52 0 1.44-.96 2.58-2.52 2.58h-3.84v19.38c0 1.68.6 2.28 2.28 2.28h1.5c1.56 0 2.58 1.14 2.58 2.52 0 1.44-.96 2.58-2.52 2.58z"/><path id="P" d="M313.95 80c-1.26 0-2.52-.9-2.52-2.52v-18.9c0-3.48-2.88-6.36-6.3-6.36-3.54 0-6.36 2.88-6.36 6.3v18.9c0 1.68-1.2 2.58-2.58 2.58-1.32 0-2.52-.9-2.52-2.52v-18.9c0-3.48-2.88-6.36-6.36-6.36s-6.36 2.88-6.36 6.3v18.9c0 1.68-1.26 2.58-2.64 2.58-1.26 0-2.52-.9-2.52-2.52v-26.82c0-1.74 1.32-2.58 2.64-2.58.84 0 1.68.36 2.16 1.14 1.86-1.32 4.2-2.1 6.66-2.1 3.6 0 6.84 1.62 8.94 4.26 2.1-2.64 5.28-4.26 8.88-4.26 6.36 0 11.52 5.1 11.52 11.4v18.9c0 1.68-1.26 2.58-2.64 2.58z"/><path id="Q" d="M393.208 80c-1.32 0-2.64-.9-2.64-2.52V59.66h-19.8v17.82c0 1.62-1.38 2.52-2.52 2.52-1.32 0-2.64-.9-2.64-2.52V39.802c0-1.68 1.32-2.52 2.64-2.52 1.14 0 2.52.84 2.52 2.52v14.76h19.8v-14.7c0-1.74 1.38-2.58 2.52-2.58 1.32 0 2.64.84 2.64 2.58V77.42c0 1.68-1.38 2.58-2.52 2.58z"/><path id="R" d="M430.888 80c-3.3 0-4.8-2.34-5.34-3.42-2.4 2.64-5.88 4.44-10.56 4.44-9.78 0-15.06-8.04-15.06-16.98s5.4-16.92 15.06-16.92c4.2 0 7.56 1.5 9.9 3.96v-.24c0-.66.24-2.7 2.52-2.7 1.26 0 2.64.66 2.64 2.52v23.16c0 .78.54 1.08.84 1.08 1.68 0 2.58 1.2 2.58 2.58 0 1.26-.9 2.52-2.58 2.52zm-15.9-27.78c-6 0-9.9 4.68-9.9 11.82 0 7.2 3.9 11.88 9.9 11.88 6.06 0 9.9-4.68 9.9-11.88 0-7.14-3.84-11.82-9.9-11.82z"/><path id="S" d="M446.73 81.02c-3.3 0-8.82-1.02-11.64-4.5-.36-.54-.54-1.08-.54-1.56 0-1.5 1.44-2.7 2.7-2.7.72 0 1.26.36 1.86 1.02 1.86 2.04 4.92 2.64 7.62 2.64 5.4 0 7.14-1.86 7.14-4.56 0-7.68-18.3-2.94-18.3-15.3 0-6.54 6.12-8.94 11.82-8.94 3.24 0 10.86 1.62 10.86 4.98 0 1.32-1.08 2.7-2.52 2.7-.54 0-1.38-.3-1.98-.78-1.62-1.38-3.96-1.8-6.36-1.8-4.98 0-6.72 1.86-6.72 3.84 0 7.14 18.36 2.52 18.36 15.3 0 7.08-5.94 9.66-12.3 9.66z"/><path id="T" d="M785.243 66.68h-22.2c.84 5.64 4.44 9.24 9.72 9.24 2.7 0 5.4-.96 7.14-3.12.54-.6 1.14-.96 1.86-.96 1.32 0 2.7 1.2 2.7 2.64 0 .72-.18 1.26-1.44 2.52-2.7 2.64-6.42 4.02-10.26 4.02-9.66 0-15.06-7.98-15.06-16.98 0-8.94 5.4-16.92 15.06-16.92 9.78 0 15 7.98 15 16.92 0 1.32-.96 2.64-2.52 2.64zm-12.48-14.46c-5.64 0-8.94 4.14-9.72 9.3h19.438c-.84-5.76-4.44-9.3-9.72-9.3z"/><path id="U" d="M93.848 109.687c-3.57 0-6.497 2.888-6.497 6.497v10.753c0 .684-.57 1.063-1.063 1.063-.532 0-1.103-.38-1.103-1.063V108.89c0-.684.57-1.063 1.103-1.063.494 0 1.063.38 1.063 1.063v1.558c1.7-1.86 3.95-2.925 6.497-2.925.684 0 1.102.57 1.102 1.063 0 .532-.418 1.102-1.102 1.102z"/><path id="V" d="M159.89 128.722c-2.28 0-6.117-.798-7.447-3-.15-.23-.15-.418-.15-.57 0-.607.53-1.14 1.102-1.14.228 0 .607.19.836.532 1.367 1.67 3.8 2.014 5.66 2.014 3.686 0 5.547-1.216 5.547-3.686 0-5.737-12.462-2.698-12.462-10.297 0-3.837 3.837-5.32 7.295-5.32 1.976 0 5.015.685 6.535 2.204.228.228.342.494.342.722 0 .57-.57 1.14-1.178 1.14-.23 0-.494-.076-.722-.304-1.178-1.14-3.306-1.596-4.978-1.596-3.344 0-5.13 1.292-5.13 3.153 0 5.32 12.462 2.508 12.462 10.297 0 4.33-3.8 5.85-7.713 5.85z"/><path id="W" d="M172.356 131.382c-.152.113-.38.15-.57.15-.607 0-1.025-.53-1.025-1.102 0-1.063 1.634-1.216 1.9-2.432-1.14-.076-2.052-1.025-2.052-2.166 0-1.29 1.063-2.203 2.204-2.203 1.86 0 2.28 1.9 2.28 3.077 0 1.862-.988 3.647-2.735 4.674z"/><path id="X" d="M219.01 128h-.038c-1.254 0-3.04-.684-3.762-2.964-1.596 2.242-4.065 3.61-7.37 3.61-6.193 0-9.536-5.09-9.536-10.752 0-5.737 3.42-10.715 9.536-10.715 3.306 0 5.775 1.368 7.37 3.572v-1.862c0-.607.494-1.063 1.102-1.063.532 0 1.064.38 1.064 1.063V124.2c0 2.432 2.735.912 2.735 2.736a1.04 1.04 0 0 1-1.102 1.063zm-11.17-18.655c-4.483 0-7.37 3.61-7.37 8.55s2.888 8.587 7.37 8.587c4.52 0 7.37-3.647 7.37-8.587s-2.85-8.55-7.37-8.55z"/><path id="Y" d="M232.348 128.646c-3.306 0-5.775-1.367-7.37-3.61v9.84c0 .684-.57 1.102-1.063 1.102-.532 0-1.103-.418-1.103-1.102V108.89c0-.684.57-1.063 1.103-1.063.494 0 1.063.38 1.063 1.063v1.862c1.596-2.204 4.065-3.572 7.37-3.572 6.117 0 9.536 5.016 9.536 10.715 0 5.737-3.42 10.752-9.536 10.752zm0-19.3c-4.52 0-7.37 3.61-7.37 8.55s2.85 8.587 7.37 8.587 7.37-3.647 7.37-8.587-2.85-8.55-7.37-8.55z"/><path id="Z" d="M262.785 118.996h-15.768c.342 4.332 3.153 7.485 7.295 7.485 2.052 0 4.483-.912 5.585-2.622.267-.418.57-.53.912-.53.57 0 1.178.455 1.178 1.025 0 .342 0 .418-.722 1.254-1.748 2.052-4.293 3.04-6.953 3.04-6.117 0-9.536-5.015-9.536-10.752 0-5.7 3.42-10.715 9.536-10.715s9.537 5.054 9.537 10.715c0 .57-.532 1.102-1.064 1.102zm-8.473-9.65c-4.56 0-6.953 3.495-7.295 7.485h14.628c-.342-4.332-3.153-7.485-7.333-7.485z"/><path id="a" d="M273.958 128.722c-2.28 0-6.117-.798-7.447-3-.15-.23-.15-.418-.15-.57 0-.607.53-1.14 1.102-1.14.228 0 .607.19.836.532 1.367 1.67 3.8 2.014 5.66 2.014 3.686 0 5.547-1.216 5.547-3.686 0-5.737-12.462-2.698-12.462-10.297 0-3.837 3.837-5.32 7.295-5.32 1.976 0 5.016.685 6.535 2.204.228.228.342.494.342.722 0 .57-.57 1.14-1.178 1.14-.23 0-.494-.076-.722-.304-1.18-1.14-3.306-1.596-4.978-1.596-3.344 0-5.13 1.292-5.13 3.153 0 5.32 12.462 2.508 12.462 10.297 0 4.33-3.8 5.85-7.713 5.85z"/><path id="b" d="M554.614 128.228c-2.052 0-3.762-1.9-3.762-4.027v-22.188c0-.684.57-1.063 1.103-1.063.494 0 1.063.38 1.063 1.063V124.2c0 2.432 2.697 1.026 2.697 2.736 0 .645-.455 1.29-1.102 1.29z"/><path id="c" d="M678.225 128.646c-8.055 0-8.13-9.65-8.13-15.197 0-5.434.836-13.185 8.093-13.185 7.105 0 8.17 7.295 8.17 13.185 0 5.51-.114 15.197-8.13 15.197zm5.965-15.197c0-5.434-.76-11.02-5.965-11.02-5.7 0-5.965 6.99-5.965 11.02v2.432c0 4.407.836 10.6 5.927 10.6 5.205 0 6.003-6.193 6.003-10.6v-2.432z"/></defs></svg>