<svg xmlns="http://www.w3.org/2000/svg" xmlns:xlink="http://www.w3.org/1999/xlink" viewBox="0 0 1080 1080"><linearGradient id="A" gradientUnits="userSpaceOnUse" x1="11.716" y1="11.716" x2="1068.284" y2="1068.284"><stop offset="0"/><stop offset=".396" stop-color="#212121"/><stop offset=".772" stop-color="#3a3a3a"/><stop offset="1" stop-color="#434343"/></linearGradient><path d="M1040 1080H40c-22.09 0-40-17.91-40-40V40C0 17.91 17.91 0 40 0h1000c22.09 0 40 17.91 40 40v1000c0 22.09-17.91 40-40 40z" fill="url(#A)"/><g fill="none" stroke="#fff" stroke-width="2" stroke-miterlimit="10"><path d="M34 947.637h1011.276" opacity=".3"/><path d="M39.433 860.04h1005.842M39.433 772.44h1005.842M39.433 684.844h1005.842M39.433 597.247h1005.842M39.433 509.65h1005.842M39.433 422.05h1005.842M39.433 334.454h1005.842M39.433 246.856h1005.842" opacity=".2" stroke-dasharray="2,6"/></g><path d="M40.635 238.52c-3.276 0-5.992-2.66-5.992-5.964 0-2.296 1.204-4.256 3.08-5.264-1.428-.924-2.352-2.52-2.352-4.424a5.28 5.28 0 0 1 5.264-5.264 5.28 5.28 0 0 1 5.264 5.264c0 1.904-.952 3.5-2.38 4.424 1.876 1.008 3.08 2.968 3.08 5.236 0 3.276-2.632 5.992-5.964 5.992zm0-10.36c-2.38 0-4.396 1.932-4.396 4.368 0 2.408 1.96 4.396 4.368 4.396a4.4 4.4 0 0 0 4.396-4.368c0-2.436-1.932-4.396-4.368-4.396zm0-8.96c-2.044 0-3.668 1.652-3.668 3.668s1.624 3.696 3.668 3.696c2.016 0 3.668-1.652 3.668-3.696a3.68 3.68 0 0 0-3.668-3.668zm14.112 19.32c-5.936 0-5.992-7.112-5.992-11.2 0-4.004.616-9.716 5.964-9.716 5.236 0 6.02 5.376 6.02 9.716 0 4.06-.084 11.2-5.992 11.2zm4.396-11.2c0-4.004-.56-8.12-4.396-8.12-4.2 0-4.396 5.152-4.396 8.12v1.792c0 3.248.616 7.812 4.368 7.812 3.836 0 4.424-4.564 4.424-7.812v-1.792zm5.677-3.495c-1.42 0-2.58-1.3-2.58-2.874s1.16-2.857 2.58-2.857c1.404 0 2.563 1.274 2.563 2.857s-1.16 2.874-2.563 2.874zm0-4.816c-.816 0-1.65.768-1.65 1.943s.833 1.943 1.65 1.943 1.633-.767 1.633-1.943-.816-1.943-1.633-1.943zm6.17-.604l-3.118 11.266c-.082.23-.212.343-.408.343-.245 0-.506-.196-.506-.474 0-.05 0-.098.017-.13l3.118-11.266c.082-.245.23-.36.425-.36.23 0 .5.212.5.5 0 .033 0 .065-.017.13zm2.025 11.314c-1.404 0-2.563-1.3-2.563-2.874 0-1.567 1.16-2.857 2.563-2.857 1.42 0 2.58 1.3 2.58 2.857 0 1.584-1.16 2.874-2.58 2.874zm0-4.8c-.816 0-1.633.768-1.633 1.927 0 1.175.816 1.943 1.633 1.943.833 0 1.65-.768 1.65-1.943 0-1.16-.816-1.927-1.65-1.927z" opacity=".3" fill="#fff"/><path d="M46.74 582.276h-1.82v2.94c0 .505-.42.784-.812.784-.364 0-.784-.28-.784-.784v-2.94H35.8c-.56 0-.84-.3-.84-.7 0-.14.028-.336.14-.504l7.896-15.063c.168-.3.448-.448.728-.448.392 0 .812.336.812.784 0 .1-.028.252-.112.42l-7.28 13.916h6.188v-3.612c0-.56.42-.84.784-.84.392 0 .812.28.812.812v3.64h1.82c.504 0 .784.392.784.783s-.28.813-.784.813zm8.455 4.2c-5.936 0-5.992-7.112-5.992-11.2 0-4.004.616-9.716 5.964-9.716 5.236 0 6.02 5.376 6.02 9.716 0 4.06-.084 11.2-5.992 11.2zm4.396-11.2c0-4.004-.56-8.12-4.396-8.12-4.2 0-4.396 5.152-4.396 8.12v1.792c0 3.248.616 7.812 4.368 7.812 3.836 0 4.424-4.563 4.424-7.812v-1.792zm5.68-3.495c-1.42 0-2.58-1.3-2.58-2.874s1.16-2.857 2.58-2.857c1.404 0 2.563 1.274 2.563 2.857s-1.16 2.874-2.563 2.874zm0-4.816c-.816 0-1.65.768-1.65 1.942s.833 1.943 1.65 1.943 1.633-.768 1.633-1.943-.816-1.942-1.633-1.942zm6.17-.604l-3.118 11.266c-.082.23-.212.343-.408.343-.245 0-.506-.195-.506-.474 0-.05 0-.098.017-.13l3.118-11.266c.082-.245.23-.36.425-.36.23 0 .5.212.5.5 0 .033 0 .065-.017.13zm2.025 11.314c-1.404 0-2.563-1.3-2.563-2.873 0-1.567 1.16-2.857 2.563-2.857 1.42 0 2.58 1.3 2.58 2.857 0 1.583-1.16 2.873-2.58 2.873zm0-4.8c-.816 0-1.633.768-1.633 1.927 0 1.175.816 1.942 1.633 1.942.833 0 1.65-.768 1.65-1.942 0-1.16-.816-1.927-1.65-1.927z" opacity=".3" fill="#fff"/><g opacity=".5" fill="#fff"><use xlink:href="#C"/><use xlink:href="#D"/><use xlink:href="#D" x="12.928"/><path d="M75.362 981.773c-3.776 0-5.568-3.52-5.568-11.87s1.792-11.87 5.568-11.87 5.567 3.52 5.567 11.87-1.79 11.87-5.567 11.87zm0-21.822c-2.112 0-3.264 2.367-3.264 9.95s1.152 9.95 3.264 9.95 3.264-2.368 3.264-9.95-1.152-9.95-3.264-9.95z"/></g><g opacity=".5" fill="#fff"><use xlink:href="#E"/><path d="M518.423 981.773c-3.776 0-5.568-3.52-5.568-11.87s1.792-11.87 5.568-11.87 5.567 3.52 5.567 11.87-1.792 11.87-5.567 11.87zm0-21.822c-2.112 0-3.264 2.367-3.264 9.95s1.152 9.95 3.264 9.95 3.264-2.368 3.264-9.95-1.152-9.95-3.264-9.95z"/><use xlink:href="#F"/><use xlink:href="#C" x="505.139"/></g><g opacity=".5" fill="#fff"><path d="M998.386 981.452v-1.92c2.048-6.848 8.448-10.687 8.448-15.935 0-2.432-1.216-3.647-2.784-3.647-1.824 0-3.168 1.407-3.36 4.863h-2.112c.256-5.248 2.624-6.783 5.407-6.783 3.04 0 5.152 2.048 5.152 5.887 0 5.76-5.184 7.552-8.64 15.615h8.767v1.92h-10.88z"/><use xlink:href="#F" x="485.54" y="-0.001"/><use xlink:href="#C" x="990.67" y="-0.001"/><use xlink:href="#E" x="534.682" y="-0.001"/></g><g fill="none" stroke-width="2"><path d="M1046.457 891.068l-46.023 3.504-46.023 2.628c-15.34.73-30.682 1.752-46.023 1.752s-30.682-.584-46.023-.876l-46.023-.876-46.023-1.752c-15.34-1.022-30.682-2.628-46.023-4.38a1241.55 1241.55 0 0 1-46.023-6.132c-15.34-2.336-30.682-5.548-46.023-7.884s-30.682-4.672-46.023-6.132-30.682-2.628-46.023-2.628-30.682.876-46.023.876-30.682-1.46-46.023-2.628-30.682-2.482-46.023-4.38-30.682-4.818-46.023-7.008L264.07 842.89l-46.023-7.008c-15.34-2.628-30.682-3.796-46.023-8.76S141.342 812.23 126 806.098 95.32 797.922 79.98 790.33s-30.682-18.687-46.023-29.783c15.34 11.096 30.682 22.19 46.023 29.783s30.682 9.636 46.023 15.768 30.682 16.06 46.023 21.023 30.682 6.132 46.023 8.76 30.682 4.818 46.023 7.008l92.046 12.264 46.023 7.008c15.34 1.898 30.682 3.212 46.023 4.38s30.682 2.628 46.023 2.628 30.682-.876 46.023-.876 30.682 1.168 46.023 2.628 30.682 3.796 46.023 6.132 30.682 5.548 46.023 7.884a1241.57 1241.57 0 0 0 46.023 6.132c15.34 1.752 30.682 3.358 46.023 4.38s30.682 1.314 46.023 1.752l92.046 1.752c15.34 0 30.682-1.022 46.023-1.752l46.023-2.628" stroke="#d09aff" stroke-linejoin="round"/><g stroke-miterlimit="10"><path d="M33.956 392.637c15.34-4.088 30.682-8.176 46.023-8.76S110.66 383 126 383s30.682.292 46.023.876 30.682 12.118 46.023 19.27 30.682 15.622 46.023 23.65 30.682 17.666 46.023 24.527 30.682 11.242 46.023 16.644l46.023 15.768 46.023 16.644c15.34 5.986 30.682 11.388 46.023 19.27s30.682 17.666 46.023 28.03 30.682 22.483 46.023 34.163 30.682 24.82 46.023 35.915 30.682 21.315 46.023 30.66 30.682 17.228 46.023 25.403 30.682 15.914 46.023 23.65l92.046 45.55c15.34 7.3 30.682 15.038 46.023 21.023S939.07 775 954.41 778.943s30.682 7.592 46.023 8.76 30.682 1.46 46.023 1.752c-15.34-.292-30.682-.584-46.023-1.752s-30.682-4.818-46.023-8.76-30.682-8.906-46.023-14.892-30.682-13.724-46.023-21.023-30.682-15.184-46.023-22.775l-46.023-22.775-46.023-23.65c-15.34-8.176-30.682-16.06-46.023-25.403s-30.682-19.563-46.023-30.66-30.682-24.235-46.023-35.915-30.682-23.797-46.023-34.163-30.682-20.147-46.023-28.03-30.682-13.286-46.023-19.27-30.682-11.242-46.023-16.644l-46.023-15.768c-15.34-5.402-30.682-9.782-46.023-16.644S279.41 434.83 264.07 426.8s-30.682-16.498-46.023-23.65-30.682-18.687-46.023-19.27S141.342 383 126 383s-30.682.292-46.023.876-30.682 4.672-46.023 8.76z" stroke="#c1693e"/><path d="M33.956 291.9c15.34-1.752 30.682-3.504 46.023-3.504s30.682 23.65 46.023 23.65 30.682-7.884 46.023-7.884 30.682 11.096 46.023 17.52 30.682 12.702 46.023 21.023 30.682 20.147 46.023 28.907 30.682 16.352 46.023 23.65 30.682 12.848 46.023 20.147 30.682 15.33 46.023 23.65 30.682 17.812 46.023 26.28 30.682 17.666 46.023 24.527 30.682 10.95 46.023 16.644l46.023 17.52 46.023 16.644c15.34 5.84 30.682 13.432 46.023 18.396s30.682 7.446 46.023 11.388l46.023 12.264c15.34 4.38 30.682 8.906 46.023 14.016s30.682 11.534 46.023 16.644S939.07 623.75 954.41 627.4s30.682 5.694 46.023 7.884 30.682 3.723 46.023 5.256l-46.023-5.256c-15.34-2.2-30.682-4.234-46.023-7.884s-30.682-8.906-46.023-14.016-30.682-11.534-46.023-16.644-30.682-9.636-46.023-14.016-30.682-8.322-46.023-12.264-30.682-6.424-46.023-11.388-30.682-12.556-46.023-18.396-30.682-10.95-46.023-16.644l-46.023-17.52c-15.34-5.694-30.682-9.782-46.023-16.644s-30.682-16.06-46.023-24.527l-46.023-26.28c-15.34-8.322-30.682-16.352-46.023-23.65s-30.682-12.848-46.023-20.147-30.682-14.892-46.023-23.65-30.682-20.585-46.023-28.907-30.682-14.6-46.023-21.023-30.682-17.52-46.023-17.52-30.682 7.884-46.023 7.884-30.682-23.65-46.023-23.65-30.682 1.752-46.023 3.504z" stroke="#aff8fc"/><path d="M33.956 616.01c15.34.51 30.682 1.022 46.023 2.628s30.682 7.008 46.023 7.008 30.682-5.1 46.023-7.008 30.682-4.38 46.023-4.38h46.023c15.34 0 30.682 4.234 46.023 7.884s30.682 9.5 46.023 14.016l46.023 13.14c15.34 4.672 30.682 10.22 46.023 14.892s30.682 8.322 46.023 13.14 30.682 10.22 46.023 15.768 30.682 11.68 46.023 17.52l46.023 17.52 46.023 16.643c15.34 5.84 30.682 12.264 46.023 18.396l46.023 18.396 46.023 17.52a1428.13 1428.13 0 0 0 46.023 15.768c15.34 4.964 30.682 9.636 46.023 14.016s30.682 8.76 46.023 12.264 30.682 6.424 46.023 8.76 30.682 3.796 46.023 5.256c-15.34-1.46-30.682-2.92-46.023-5.256a637.88 637.88 0 0 1-46.023-8.76c-15.34-3.504-30.682-7.884-46.023-12.264s-30.682-9.052-46.023-14.016-30.682-10.22-46.023-15.768-30.682-11.534-46.023-17.52l-92.046-36.79c-15.34-5.84-30.682-10.95-46.023-16.643l-92.046-35.04c-15.34-5.548-30.682-10.95-46.023-15.768s-30.682-8.468-46.023-13.14-30.682-10.22-46.023-14.892-30.682-8.614-46.023-13.14-30.682-10.366-46.023-14.016-30.682-7.884-46.023-7.884h-46.023c-15.34 0-30.682 2.482-46.023 4.38s-30.682 7.008-46.023 7.008-30.682-5.402-46.023-7.008-30.682-2.117-46.023-2.628z" stroke="#fffb67"/><path d="M33.956 461.84c15.34-10.512 30.682-21.023 46.023-24.527s30.682-5.256 46.023-5.256 30.682.876 46.023 2.628 30.682 16.206 46.023 28.907 30.682 32.265 46.023 47.303 30.682 31.243 46.023 42.923 30.682 22.483 46.023 27.155 30.682 7.008 46.023 7.008 30.682-.584 46.023-.876l46.023-.876c15.34 0 30.682 2.92 46.023 6.132s30.682 8.76 46.023 13.14 30.682 9.636 46.023 13.14 30.682 5.986 46.023 7.884 30.682 1.606 46.023 3.504 30.682 5.1 46.023 7.884 30.682 4.818 46.023 8.76 30.682 10.366 46.023 14.892 30.682 7.738 46.023 12.264 30.682 10.95 46.023 14.892 30.682 6.424 46.023 8.76 30.682 3.796 46.023 5.256c-15.34-1.46-30.682-2.92-46.023-5.256s-30.682-4.818-46.023-8.76-30.682-10.366-46.023-14.892-30.682-7.738-46.023-12.264-30.682-10.95-46.023-14.892-30.682-5.986-46.023-8.76-30.682-5.986-46.023-7.884-30.682-1.606-46.023-3.504-30.682-4.38-46.023-7.884-30.682-8.76-46.023-13.14-30.682-9.928-46.023-13.14-30.682-6.132-46.023-6.132-30.682.584-46.023.876l-46.023.876c-15.34 0-30.682-2.336-46.023-7.008s-30.682-15.476-46.023-27.155-30.682-27.885-46.023-42.923-30.682-34.6-46.023-47.303-30.682-27.155-46.023-28.907-30.682-2.628-46.023-2.628-30.682 1.752-46.023 5.256-30.682 14.016-46.023 24.527z" stroke="#a8c15e"/></g></g><path d="M995.864 615.56h-9.15c-.896 0-1.376-.64-1.376-1.344 0-.736.48-1.377 1.376-1.377h9.15c.864 0 1.344.64 1.344 1.377 0 .703-.48 1.344-1.344 1.344zm10.176 9.374c-2.144 0-4.575-1.152-5.76-3.04a1.42 1.42 0 0 1-.224-.768c0-.736.64-1.312 1.376-1.312.607 0 .832.225 1.312.863.8.992 2.048 1.537 3.296 1.537 2.208 0 4.448-2.018 4.448-4.896 0-2.912-2.24-4.928-4.448-4.928-1.695 0-2.848.863-3.392 1.8-.256.48-.704.736-1.248.736-.832 0-1.376-.543-1.376-1.6v-10.143c0-.736.64-1.344 1.376-1.344h9.728c.928 0 1.408.64 1.408 1.375 0 .672-.448 1.344-1.345 1.344h-8.447v5.984c.77-.545 1.984-.865 3.296-.865 3.936 0 7.168 3.328 7.168 7.648 0 4.256-3.232 7.615-7.168 7.615zm15.552.224c-2.464 0-4.64-1.28-5.824-3.264-.16-.256-.224-.512-.224-.736 0-.768.672-1.344 1.408-1.344.416 0 .863.16 1.15.64a3.95 3.95 0 0 0 3.456 1.984c2.4 0 4.384-1.984 4.384-4.318 0-2.4-1.952-4.385-4.35-4.385h-.032c-.832 0-1.344-.64-1.344-1.344s.544-1.375 1.376-1.375c1.95 0 3.52-1.504 3.52-3.52 0-1.92-1.568-3.486-3.52-3.486-3.104 0-3.136 3.135-4.8 3.135-.736 0-1.44-.576-1.44-1.344a1.41 1.41 0 0 1 .225-.768c.768-1.184 2.688-3.775 6.016-3.775a6.25 6.25 0 0 1 6.239 6.238c0 1.953-.832 3.648-2.27 4.8 1.855 1.28 3.104 3.36 3.104 5.8 0 3.904-3.168 7.072-7.07 7.072zm11.194-16.938c-1.624 0-2.95-1.475-2.95-3.285s1.325-3.266 2.95-3.266c1.604 0 2.93 1.457 2.93 3.266s-1.325 3.285-2.93 3.285zm0-4.965c-.598 0-1.344.598-1.344 1.68s.746 1.68 1.344 1.68 1.344-.596 1.344-1.68-.747-1.68-1.344-1.68zm7.78-.914l-3.434 12.354c-.093.412-.4.598-.728.598-.43 0-.84-.3-.84-.783 0-.057 0-.15.02-.225l3.452-12.37c.112-.393.43-.58.747-.58.392 0 .82.28.82.748 0 .092-.02.168-.038.26zm2.65 12.615c-1.605 0-2.93-1.475-2.93-3.283 0-1.793 1.324-3.266 2.93-3.266 1.623 0 2.948 1.473 2.948 3.266 0 1.8-1.325 3.283-2.948 3.283zm0-4.963c-.58 0-1.325.596-1.325 1.68 0 1.1.746 1.697 1.325 1.697.597 0 1.344-.598 1.344-1.697 0-1.084-.747-1.68-1.344-1.68z" fill="#aff8fc"/><g fill="#c1693e"><use xlink:href="#G"/><path d="M1004.663 776.937c-2.144 0-4.575-1.152-5.76-3.04a1.42 1.42 0 0 1-.224-.768c0-.736.64-1.312 1.376-1.312.607 0 .832.225 1.312.864.8.992 2.048 1.536 3.296 1.536 2.208 0 4.448-2.017 4.448-4.896 0-2.91-2.24-4.927-4.448-4.927-1.695 0-2.848.863-3.392 1.79-.256.48-.704.736-1.248.736-.832 0-1.376-.544-1.376-1.6v-10.144c0-.736.64-1.344 1.376-1.344h9.728c.928 0 1.408.64 1.408 1.376 0 .672-.448 1.344-1.345 1.344h-8.447v5.983c.77-.544 1.984-.864 3.296-.864 3.936 0 7.168 3.328 7.168 7.647 0 4.256-3.232 7.616-7.168 7.616z"/><use xlink:href="#H"/><use xlink:href="#I"/></g><g fill="#a8c15e"><use xlink:href="#G" x="4.288" y="-89.333"/><use xlink:href="#J"/><use xlink:href="#K"/><use xlink:href="#I" x="-0.064" y="-89.324"/></g><g fill="#fffb67"><use xlink:href="#G" x="4.288" y="62.93"/><use xlink:href="#J" y="152.265"/><use xlink:href="#K" x="0.01" y="152.265"/><use xlink:href="#I" x="-0.065" y="62.93"/></g><g fill="#d09aff"><use xlink:href="#G" x="2.133" y="151.64"/><use xlink:href="#J" x="-2.155" y="240.984"/><use xlink:href="#H" x="0.084" y="151.64"/><use xlink:href="#I" x="0.083" y="151.649"/></g><g opacity=".3" fill="#fff"><path d="M42.328 1046.045c-3.568 0-5.47-1.97-5.503-2.002 0 .935-.7 1.4-1.468 1.4-.7 0-1.4-.467-1.4-1.4v-20.88a1.35 1.35 0 0 1 1.401-1.434c.767 0 1.468.467 1.468 1.4v6.238c1.334-1.368 3.168-2.17 5.503-2.17 5.37 0 8.373 4.403 8.373 9.406 0 5.037-3.002 9.44-8.373 9.44zm0-16c-3.335 0-5.503 2.602-5.503 6.57 0 4.003 2.168 6.604 5.503 6.604s5.504-2.602 5.504-6.604c0-3.97-2.168-6.57-5.504-6.57zm25.555 8.037h-12.34c.467 3.136 2.468 5.137 5.403 5.137 1.5 0 3.002-.533 3.97-1.734.3-.333.634-.533 1.034-.533.734 0 1.5.667 1.5 1.468 0 .4-.1.7-.8 1.4-1.5 1.468-3.57 2.235-5.704 2.235-5.37 0-8.372-4.437-8.372-9.44 0-4.97 3.002-9.406 8.372-9.406 5.437 0 8.34 4.437 8.34 9.406 0 .734-.534 1.468-1.4 1.468zm-6.937-8.038c-3.136 0-4.97 2.3-5.403 5.17H66.35c-.467-3.202-2.468-5.17-5.403-5.17zM88 1045.478c-1.834 0-2.668-1.3-2.97-1.9-1.334 1.468-3.27 2.47-5.87 2.47-5.437 0-8.372-4.47-8.372-9.44s3.002-9.406 8.372-9.406c2.335 0 4.203.834 5.504 2.202v-.134c0-.367.133-1.5 1.4-1.5.7 0 1.468.367 1.468 1.4v12.875c0 .434.3.6.467.6.935 0 1.435.667 1.435 1.434a1.37 1.37 0 0 1-1.435 1.401zm-8.84-15.443c-3.336 0-5.504 2.602-5.504 6.57 0 4.003 2.168 6.604 5.504 6.604 3.37 0 5.504-2.602 5.504-6.604 0-3.97-2.135-6.57-5.504-6.57z"/><use xlink:href="#L"/><path d="M115.158 1045.478h-.567c-3.17 0-4.37-1.668-4.37-4.403V1030.6h-1c-.8 0-1.435-.634-1.435-1.4 0-.8.634-1.435 1.4-1.435h1v-4.637c0-.934.7-1.4 1.435-1.4s1.4.467 1.4 1.4v4.637h2.135c.934 0 1.4.768 1.4 1.4 0 .8-.533 1.434-1.4 1.434h-2.135v10.774c0 .934.333 1.268 1.268 1.268h.833c.868 0 1.435.634 1.435 1.4 0 .8-.533 1.435-1.4 1.435zm4.604-20.415a2.402 2.402 0 1 1 0-4.803 2.402 2.402 0 1 1 0 4.803zm0 20.414c-.733 0-1.467-.5-1.467-1.4V1029.2c0-.935.733-1.435 1.467-1.435a1.37 1.37 0 0 1 1.401 1.435v14.876c0 .935-.7 1.4-1.4 1.4zm10.376-14.877h-1.5v13.442c0 .935-.7 1.4-1.468 1.4-.7 0-1.4-.467-1.4-1.4V1030.6h-1.37c-.9 0-1.4-.667-1.4-1.4 0-.768.5-1.435 1.4-1.435h1.367v-2.27c0-2.135 1.77-3.77 3.836-3.77.968 0 1.468.667 1.468 1.434 0 .7-.5 1.4-1.468 1.4-.566 0-.967.434-.967.9v2.302h1.5c.967 0 1.468.667 1.468 1.435 0 .733-.5 1.4-1.468 1.4z"/><use xlink:href="#L" x="42.068"/><path d="M154.725 1045.544c-1.802 0-3.336-1.534-3.336-3.402v-18.98c0-.967.7-1.434 1.435-1.434s1.435.467 1.435 1.4v19.013c0 .4.3.567.467.567.934 0 1.435.667 1.435 1.435 0 .733-.5 1.4-1.435 1.4zm15.37-.066v-1.264c1.886-.237 2.046-.437 2.046-3.157v-6.7c0-2.8-1.248-4.017-3.064-4.017-1.237 0-2.345.6-3.47 1.493v9.476c0 2.527.187 2.658 2.06 2.896v1.264h-8.968v-1.264c2.254-.33 2.5-.4 2.5-3v-8.2c0-2.446-.303-2.565-2.185-2.922v-1.184c2.173-.292 4.63-.807 6.653-1.533l-.052 2.95 2.6-1.745c1.16-.713 2-1.086 3.16-1.086 3.194 0 5.2 2.338 5.2 6.3v7.5c0 2.54.237 2.657 2.277 2.92v1.264h-8.74zm23.9-3.703c-2.458 3.427-5.488 4.178-7.014 4.178-5.142 0-8.124-3.936-8.124-8.594 0-2.745 1.183-5.396 2.832-7.062 1.74-1.8 3.945-2.814 6.082-2.814 3.73 0 6.396 3.126 6.37 6.347-.014.715-.08 1.277-.612 1.4-.767.184-6.17.5-10.318.647.062 4.587 2.717 6.74 5.556 6.74 1.572 0 3.104-.597 4.543-1.866l.686 1.014zm-7.07-12.7c-1.667 0-3.167 1.807-3.516 4.963l5.486-.118c.6-.026.848-.146.848-.792.04-2.022-1.037-4.053-2.818-4.053zm34.284.145c-1.943.343-2.248.624-3.105 2.765-1.33 3.462-3.102 8.53-4.934 13.94h-1.512l-4.65-11.46-4.55 11.46h-1.472l-4.685-14.192c-.687-1.985-.94-2.274-2.855-2.512v-1.25h9.397v1.25c-2.325.345-2.535.672-2.058 2.133l2.52 8.214c1.507-3.68 2.988-7.62 4.327-11.424h1.456c1.4 3.76 2.986 7.702 4.573 11.568.742-2.107 2.062-5.964 2.557-8.108.412-1.674-.008-2.078-2.753-2.383v-1.25h7.742v1.25zm9.4 3.746c-.92-2.606-2.155-3.984-4.2-3.984-1.206 0-2.225.86-2.225 2.266 0 1.497 1.046 2.264 3.16 3.216 3.278 1.496 5.3 2.787 5.3 5.736 0 3.85-3.6 5.764-6.945 5.764-2.06 0-4.088-.737-4.92-1.16l-.662-4.892 1.252-.224c.8 2.5 2.33 4.75 4.976 4.75 1.505 0 2.438-.952 2.438-2.28 0-1.423-.76-2.333-3.092-3.467-2.67-1.295-5.107-2.64-5.107-5.775 0-3.046 2.533-5.42 6.565-5.42 1.818 0 3.242.396 4.112.567l.62 4.577-1.25.328z"/></g><g opacity=".4" fill="#fff"><use xlink:href="#M"/><use xlink:href="#N"/><path d="M873.4 1045.98c-.28 0-.58-.2-.58-.56v-.64c-.84.98-2.06 1.54-3.42 1.54-2.48 0-4.56-2.08-4.56-4.56v-5.842c0-.36.3-.56.58-.56.26 0 .56.2.56.56v5.842c0 1.9 1.52 3.42 3.42 3.42s3.42-1.52 3.42-3.42v-5.842c0-.36.3-.56.58-.56.26 0 .56.2.56.56v9.502a.56.56 0 0 1-.561.561zm7.96-9.644a3.42 3.42 0 0 0-3.421 3.42v5.662c0 .36-.3.56-.56.56-.28 0-.58-.2-.58-.56v-9.502c0-.36.3-.56.58-.56.26 0 .56.2.56.56v.82c.9-.98 2.08-1.54 3.42-1.54.36 0 .58.3.58.56a.58.58 0 0 1-.58.58zm10.18 8.46c-.88.98-2.1 1.52-3.58 1.52-3.22 0-5.02-2.64-5.02-5.662 0-3 1.8-5.64 5.02-5.64 1.48 0 2.7.54 3.58 1.52.12.12.16.262.16.38a.63.63 0 0 1-.58.6c-.14 0-.28-.06-.42-.2-.66-.74-1.58-1.16-2.74-1.16-2.36 0-3.88 1.9-3.88 4.5s1.52 4.52 3.88 4.52c1.16 0 2.08-.44 2.74-1.16.14-.14.28-.2.42-.2.3 0 .58.26.58.58 0 .14-.04.26-.16.398z"/><use xlink:href="#O"/><path d="M907.1 1039.416c-.64 0-1.16-.5-1.16-1.14s.52-1.14 1.16-1.14c.62 0 1.12.5 1.12 1.14s-.5 1.14-1.12 1.14zm0 6.563c-.64 0-1.16-.5-1.16-1.14s.52-1.14 1.16-1.14c.62 0 1.12.5 1.12 1.14s-.5 1.14-1.12 1.14zm13.64.36a5.01 5.01 0 0 1-5.02-5.02v-9.02c0-.36.3-.56.58-.56s.58.2.58.56v9.02c0 2.12 1.74 3.88 3.86 3.88s3.88-1.76 3.88-3.88v-9.02c0-.36.3-.56.58-.56.26 0 .56.2.56.56v9.02a5.01 5.01 0 0 1-5.021 5.021z"/><use xlink:href="#P"/><use xlink:href="#Q"/><use xlink:href="#R"/><use xlink:href="#O" x="56.2"/><path d="M971.28 1045.98c-.28 0-.58-.2-.58-.56v-1c-.84 1.18-2.14 1.9-3.88 1.9-3.22 0-5.02-2.64-5.02-5.662 0-3 1.8-5.64 5.02-5.64 1.74 0 3.04.72 3.88 1.88v-4.602c0-.36.3-.56.58-.56.26 0 .56.2.56.56v13.123c0 .36-.3.56-.56.56zm-4.46-9.822c-2.36 0-3.88 1.9-3.88 4.5s1.52 4.52 3.88 4.52c2.38 0 3.88-1.92 3.88-4.52s-1.5-4.5-3.88-4.5zm22.2 9.84c-.18 0-.34-.12-.48-.32l-7.82-11.543v11.283c0 .36-.3.56-.56.56-.28 0-.58-.2-.58-.56v-13.123c0-.34.3-.6.6-.6.18 0 .34.12.48.32l7.822 11.54v-11.262c0-.36.3-.56.56-.56.28 0 .58.2.58.56v13.123c0 .34-.3.58-.6.58zm13.88-.018h-.02c-.66 0-1.6-.36-1.98-1.56-.84 1.18-2.14 1.9-3.88 1.9-3.26 0-5.02-2.682-5.02-5.662 0-3.02 1.8-5.64 5.02-5.64 1.74 0 3.04.72 3.88 1.88v-.98c0-.32.26-.56.58-.56.28 0 .56.2.56.56v8.063c0 1.28 1.44.48 1.44 1.44a.55.55 0 0 1-.58.561zm-5.88-9.822c-2.36 0-3.88 1.9-3.88 4.5s1.52 4.52 3.88 4.52c2.38 0 3.88-1.92 3.88-4.52s-1.5-4.5-3.88-4.5z"/><use xlink:href="#R" x="61.04"/><use xlink:href="#Q" x="71.057"/><use xlink:href="#N" x="162.26"/><use xlink:href="#P" x="98.78"/><use xlink:href="#M" x="195.5"/></g><g fill="#c1693e"><path d="M68.438 80c-.9 0-1.8-.48-2.28-1.56l-3.18-7.8H43l-3.24 7.8c-.48 1.08-1.38 1.56-2.22 1.56-1.32 0-2.7-1.02-2.7-2.52 0-.36.06-.72.24-1.02L50.5 38.962c.72-1.56 1.68-1.86 2.46-1.86.54 0 1.86.3 2.46 1.86l15.48 37.498c.12.3.18.66.18 1.02 0 1.5-1.26 2.52-2.64 2.52zm-15.48-33.6L45.1 65.48h15.72l-7.86-19.08z"/><use xlink:href="#S"/><use xlink:href="#T"/><use xlink:href="#U"/><path d="M185.437 80.12c-3.24 0-6-2.76-6-6.12V39.862c0-1.74 1.26-2.58 2.58-2.58s2.58.84 2.58 2.52V74c0 .72.54 1.02.84 1.02 1.68 0 2.58 1.2 2.58 2.58 0 1.32-.9 2.52-2.58 2.52z"/><use xlink:href="#V"/><use xlink:href="#W"/></g><g fill="#fffb67"><path d="M286.175 74.48c-2.94 4.08-7.14 6.54-13.38 6.54-12.9 0-17.46-10.68-17.46-22.38 0-11.76 4.56-22.44 17.46-22.44 6.06 0 10.5 2.4 13.32 6.54.42.54.54 1.02.54 1.5 0 1.44-1.26 2.52-2.64 2.52-.78 0-1.5-.36-2.04-1.08-1.86-2.7-4.62-4.32-9.18-4.32-8.52 0-12.3 6.3-12.3 17.28s3.78 17.28 12.3 17.28c4.56 0 7.32-1.74 9.18-4.38.54-.78 1.26-1.14 2.04-1.14 1.38 0 2.7 1.14 2.7 2.58 0 .48-.18.96-.54 1.5z"/><use xlink:href="#V" x="99.537"/><use xlink:href="#X"/><use xlink:href="#Y"/><use xlink:href="#Z"/><use xlink:href="#U" x="283.375"/><use xlink:href="#U" x="318.054"/><use xlink:href="#S" x="422.932"/><use xlink:href="#W" x="303.176"/></g><g fill="#aff8fc"><path d="M587.13 80h-24.96c-1.44 0-2.64-1.14-2.64-2.52V39.862c0-1.44 1.2-2.58 2.64-2.58h24.96c1.56 0 2.52 1.14 2.52 2.52 0 1.26-.9 2.58-2.52 2.58H564.7V54.5h15.72a2.56 2.56 0 0 1 2.58 2.58c0 1.38-1.02 2.58-2.58 2.58H564.7V74.9h22.44c1.62 0 2.52 1.26 2.52 2.58 0 1.38-.96 2.52-2.52 2.52z"/><use xlink:href="#a"/><path d="M639.63 80c-1.32 0-2.52-.9-2.52-2.52V60.8c0-4.68-3.9-8.58-8.58-8.58-4.62 0-8.52 3.9-8.52 8.58v16.62c0 1.68-1.26 2.64-2.64 2.64-1.26 0-2.52-.9-2.52-2.58V39.862c0-1.74 1.26-2.58 2.52-2.58 1.38 0 2.64.84 2.64 2.52v10.38c2.22-2.1 5.22-3.06 8.52-3.06 7.44 0 13.68 6.18 13.68 13.68v16.62c0 1.68-1.2 2.58-2.58 2.58z"/><use xlink:href="#b"/><use xlink:href="#U" x="516.702"/><path d="M711.568 81.02c-4.2 0-7.5-1.44-9.9-3.96v13.02c0 1.68-1.26 2.58-2.64 2.58-1.26 0-2.52-.9-2.52-2.58V50.722c0-1.68 1.26-2.58 2.52-2.58 1.38 0 2.64.9 2.64 2.58 0 0 3.54-3.66 9.9-3.66 9.66 0 15.06 7.92 15.06 16.92 0 9.12-5.4 17.04-15.06 17.04zm0-28.86c-5.94 0-9.9 4.74-9.9 11.82 0 7.2 3.9 11.94 9.9 11.94s9.9-4.68 9.9-11.88c0-7.14-3.9-11.88-9.9-11.88z"/><use xlink:href="#b" x="83.58"/><use xlink:href="#V" x="553.132"/><use xlink:href="#W" x="553.132"/></g><g fill="#d09aff"><path d="M836.966 80c-.78 0-1.62-.42-2.16-1.32l-20.16-30.3v29.04c0 1.68-1.26 2.58-2.64 2.58-1.26 0-2.52-.9-2.52-2.52V39.862c0-1.68 1.32-2.58 2.64-2.58.84 0 1.56.36 2.16 1.26l20.16 30.3v-28.98c0-1.74 1.26-2.58 2.52-2.58 1.38 0 2.64.84 2.64 2.52V77.42c0 1.62-1.32 2.58-2.64 2.58z"/><use xlink:href="#b" x="199.137"/><use xlink:href="#T" x="751.907"/><use xlink:href="#c"/><use xlink:href="#Z" x="521.093"/><use xlink:href="#b" x="302.996"/><use xlink:href="#V" x="772.548"/></g><path d="M1043.004 80.06c-.6 0-1.2-.18-1.74-.84l-4.32-4.32-2.28 2.28c-2.34 2.4-5.58 3.84-9.18 3.84-7.02 0-12.84-5.7-12.84-12.78 0-4.86 2.58-8.94 6.42-11.16l-1.2-1.2c-2.4-2.4-3.72-4.86-3.72-8.4 0-6.18 5.1-11.28 11.28-11.28 8.04 0 11.7 7.68 11.7 8.46 0 1.44-1.38 2.58-2.7 2.58-2.4 0-3.84-5.88-9-5.88-3.36 0-6.12 2.64-6.12 6.12 0 1.92.6 3.12 2.16 4.68l15.48 15.48 4.14-4.14c.66-.54 1.2-.9 1.8-.9 1.38 0 2.58 1.26 2.58 2.7 0 .6-.18 1.32-.72 1.86l-4.2 4.08 4.32 4.38c.54.54.84 1.14.84 1.8 0 1.44-1.32 2.64-2.7 2.64zm-20.04-19.08c-3 1.02-5.16 3.84-5.16 7.2 0 4.14 3.48 7.74 7.62 7.74 2.16 0 4.08-.84 5.4-2.22l2.46-2.46-10.32-10.26z" fill="#fff"/><g fill="#a8c15e"><path d="M70.358 141.26c-1.26 0-2.52-.9-2.52-2.58v-27.6L56.2 132.8c-.78 1.5-1.92 1.62-2.4 1.62-.3 0-1.56-.12-2.4-1.62l-11.58-21.6v27.48c0 1.68-1.26 2.58-2.64 2.58-1.26 0-2.52-.9-2.52-2.58v-37.5c0-1.98 1.38-2.7 2.76-2.7.9 0 1.62.42 2.16 1.5l14.22 26.46 14.28-26.46c.6-1.2 1.32-1.5 2.34-1.5 1.32 0 2.58.84 2.58 2.7v37.5c0 1.68-1.26 2.58-2.64 2.58z"/><use xlink:href="#U" x="-64.798" y="61.2"/><path d="M136.778 141.2H115.3c-2.88 0-2.94-1.98-2.94-2.88 0-.36.18-.9.54-1.32l18.42-22.56h-16.44c-1.74 0-2.58-1.2-2.58-2.52 0-1.38.84-2.58 2.52-2.58h21.9c1.62 0 2.52 1.14 2.52 2.4 0 .6-.24 1.2-.66 1.74l-18.3 22.62h16.44c1.68 0 2.58 1.2 2.58 2.58 0 1.26-.9 2.52-2.52 2.52z"/><use xlink:href="#V" x="-48.358" y="61.2"/><use xlink:href="#X" x="-147.896" y="61.2"/><path d="M243.097 142.22c-6.42 0-9.84-3.54-9.9-3.6 0 1.68-1.26 2.52-2.64 2.52-1.26 0-2.52-.84-2.52-2.52v-37.558c0-1.74 1.26-2.58 2.52-2.58 1.38 0 2.64.84 2.64 2.52v11.22c2.4-2.46 5.7-3.9 9.9-3.9 9.66 0 15.06 7.92 15.06 16.92 0 9.06-5.4 16.98-15.06 16.98zm0-28.8c-6 0-9.9 4.68-9.9 11.82 0 7.2 3.9 11.88 9.9 11.88s9.9-4.68 9.9-11.88c0-7.14-3.9-11.82-9.9-11.82z"/><use xlink:href="#b" x="-384.893" y="61.2"/><path d="M303.095 153.86c-1.32 0-2.58-.9-2.58-2.58v-12.96c-2.46 2.58-5.7 3.9-9.9 3.9-9.66 0-15.06-7.92-15.06-16.98s5.4-16.98 15.06-16.98c6.36 0 9.9 3.66 9.9 3.66 0-1.68 1.26-2.58 2.58-2.58s2.58.9 2.58 2.52v39.418c0 1.68-1.26 2.58-2.58 2.58zm-12.48-40.5c-5.94 0-9.9 4.74-9.9 11.82 0 7.2 3.9 11.94 9.9 11.94 6.06 0 9.9-4.68 9.9-11.88 0-7.14-3.84-11.88-9.9-11.88z"/><use xlink:href="#d"/><use xlink:href="#Y" x="-28.798" y="61.2"/></g><g fill="#fff"><use xlink:href="#e"/><use xlink:href="#V" x="239.757" y="61.2"/><path d="M493.053 112.882l-10.92 26.28c-.54 1.38-1.44 2.04-2.58 2.04-1.02 0-1.98-.66-2.58-2.04l-10.92-26.28c-.12-.42-.18-.72-.18-1.08 0-1.44 1.32-2.46 2.64-2.46.9 0 1.8.48 2.28 1.56l8.76 21 8.76-21c.42-1.14 1.5-1.62 2.34-1.62 1.38 0 2.64.96 2.64 2.46a2.99 2.99 0 0 1-.24 1.14z"/><use xlink:href="#Y" x="121.919" y="61.2"/><use xlink:href="#e" x="150.717"/><use xlink:href="#V" x="390.474" y="61.2"/><use xlink:href="#f"/><path d="M656.248 112.882l-10.92 26.28c-.54 1.38-1.44 2.04-2.58 2.04-1.02 0-1.98-.66-2.58-2.04l-10.92-26.28c-.12-.42-.18-.72-.18-1.08 0-1.44 1.32-2.46 2.64-2.46.9 0 1.8.48 2.28 1.56l8.76 21 8.76-21c.42-1.14 1.5-1.62 2.34-1.62 1.38 0 2.64.96 2.64 2.46 0 .3-.06.72-.24 1.14z"/><use xlink:href="#c" x="-235.977" y="61.2"/><path d="M721.168 141.14c-1.32 0-2.58-.84-2.58-2.52 0 0-3.54 3.6-9.9 3.6-9.66 0-15.06-7.92-15.06-16.98 0-9 5.4-16.92 15.06-16.92 4.2 0 7.56 1.44 9.9 3.9v-11.16c0-1.74 1.26-2.58 2.58-2.58s2.58.84 2.58 2.52v37.618c0 1.68-1.26 2.52-2.58 2.52zm-12.48-27.72c-6 0-9.9 4.68-9.9 11.82 0 7.2 3.9 11.88 9.9 11.88 6.06 0 9.9-4.68 9.9-11.88 0-7.14-3.84-11.82-9.9-11.82zm71.58 27.84c-1.26 0-2.52-.9-2.52-2.58v-27.6l-11.64 21.72c-.78 1.5-1.92 1.62-2.4 1.62-.3 0-1.56-.12-2.4-1.62l-11.58-21.6v27.48c0 1.68-1.26 2.58-2.64 2.58-1.26 0-2.52-.9-2.52-2.58v-37.5c0-1.98 1.38-2.7 2.76-2.7.9 0 1.62.42 2.16 1.5l14.22 26.46 14.28-26.46c.6-1.2 1.32-1.5 2.34-1.5 1.32 0 2.58.84 2.58 2.7v37.5c0 1.68-1.26 2.58-2.64 2.58z"/><use xlink:href="#V" x="597.951" y="61.2"/><use xlink:href="#f" x="207.477"/><use xlink:href="#g"/><use xlink:href="#d" x="560.39"/><use xlink:href="#a" x="310.737" y="61.2"/><use xlink:href="#Z" x="514.492" y="61.2"/><use xlink:href="#b" x="293.995" y="61.2"/><use xlink:href="#a" x="359.035" y="61.2"/><use xlink:href="#b" x="323.693" y="61.2"/><use xlink:href="#U" x="840.405" y="61.2"/><use xlink:href="#g" x="178.557"/></g><g opacity=".5" fill="#fff"><path d="M40.306 176.34c-3.306 0-6.003-3.002-6.003-6.687s2.697-6.648 6.003-6.648c3.268 0 5.965 2.963 5.965 6.648s-2.697 6.688-5.965 6.688zm0-11.208c-1.9 0-3.838 1.785-3.838 4.52s1.938 4.52 3.838 4.52 3.8-1.785 3.8-4.52-1.9-4.52-3.8-4.52zm14.36-1.406l-7.257 26.216c-.19.532-.493.798-.95.798-.57 0-1.178-.456-1.178-1.102 0-.114 0-.228.037-.304l7.258-26.217c.19-.57.53-.835.987-.835.532 0 1.14.493 1.14 1.14 0 .076 0 .15-.038.304zm4.712 26.33c-3.268 0-5.966-3.002-5.966-6.687 0-3.646 2.698-6.648 5.966-6.648 3.306 0 6.003 3.002 6.003 6.648 0 3.686-2.697 6.688-6.003 6.688zm0-11.17c-1.9 0-3.8 1.785-3.8 4.482 0 2.736 1.9 4.52 3.8 4.52 1.938 0 3.837-1.785 3.837-4.52 0-2.697-1.9-4.482-3.837-4.482z"/><use xlink:href="#h"/><path d="M106.614 165.133h-1.178c-.912 0-1.672.76-1.672 1.633v3.116h2.85c.723 0 1.064.57 1.064 1.063 0 .532-.38 1.102-1.064 1.102h-2.85v16.946c0 .684-.53 1.063-1.063 1.063s-1.063-.342-1.063-1.063v-16.946h-2.622c-.684 0-1.063-.57-1.063-1.102 0-.494.38-1.063 1.063-1.063h2.622v-3.116a3.77 3.77 0 0 1 3.761-3.761h1.216c.685 0 1.103.53 1.103 1.102 0 .532-.38 1.026-1.103 1.026z"/><use xlink:href="#i"/><use xlink:href="#h" x="64.295"/><use xlink:href="#i" x="44.792"/><use xlink:href="#j"/><use xlink:href="#k"/><path d="M235.8 190.057h-.038c-1.254 0-3.04-.684-3.762-2.964-1.596 2.242-4.065 3.6-7.37 3.6-6.193 0-9.536-5.1-9.536-10.752 0-5.737 3.42-10.715 9.536-10.715 3.306 0 5.775 1.368 7.37 3.572v-1.862c0-.607.494-1.063 1.102-1.063.532 0 1.064.38 1.064 1.063v15.312c0 2.432 2.735.912 2.735 2.736a1.04 1.04 0 0 1-1.102 1.063zM224.64 171.4c-4.483 0-7.37 3.6-7.37 8.55s2.888 8.587 7.37 8.587c4.52 0 7.37-3.647 7.37-8.587s-2.85-8.55-7.37-8.55zm21.926 18.657h-1.178c-3 0-4.483-1.48-4.483-4.445v-13.564h-1.937c-.684 0-1.063-.57-1.063-1.102 0-.494.38-1.063 1.063-1.063h1.938v-5.813c0-.684.57-1.063 1.103-1.063s1.063.38 1.063 1.063v5.813h3.495c.685 0 1.064.57 1.064 1.063 0 .532-.38 1.102-1.064 1.102h-3.495v13.564c0 1.86.532 2.28 2.317 2.28h1.178c.685 0 1.064.57 1.064 1.103 0 .493-.38 1.063-1.064 1.063z"/><use xlink:href="#l"/><use xlink:href="#h" x="179.434"/><use xlink:href="#m"/><path d="M334 190.057c-.53 0-1.063-.38-1.063-1.063v-12.767c0-2.62-2.204-4.825-4.825-4.825s-4.863 2.204-4.863 4.787v12.805c0 .684-.532 1.063-1.063 1.063s-1.103-.38-1.103-1.063v-12.767c0-2.62-2.203-4.825-4.787-4.825-2.66 0-4.863 2.204-4.863 4.787v12.805c0 .684-.57 1.063-1.063 1.063-.532 0-1.103-.38-1.103-1.063v-18.048c0-.684.57-1.063 1.103-1.063.494 0 1.063.38 1.063 1.063v.23c1.254-1.216 2.964-1.938 4.825-1.938 2.432 0 4.598 1.216 5.928 3.23 1.253-1.937 3.42-3.23 5.9-3.23 3.95 0 7.03 3.116 7.03 6.953v12.805c0 .684-.57 1.063-1.103 1.063zm25.234 0h-.038c-1.254 0-3.04-.684-3.762-2.964-1.596 2.242-4.065 3.6-7.37 3.6-6.193 0-9.536-5.1-9.536-10.752 0-5.737 3.42-10.715 9.536-10.715 3.306 0 5.775 1.368 7.37 3.572v-1.862c0-.607.494-1.063 1.102-1.063.532 0 1.064.38 1.064 1.063v15.312c0 2.432 2.735.912 2.735 2.736a1.04 1.04 0 0 1-1.102 1.063zm-11.17-18.655c-4.483 0-7.37 3.6-7.37 8.55s2.888 8.587 7.37 8.587c4.52 0 7.37-3.647 7.37-8.587s-2.85-8.55-7.37-8.55z"/><use xlink:href="#k" x="154.62"/><use xlink:href="#m" x="91.504"/><use xlink:href="#h" x="314.523"/><use xlink:href="#j" x="227.391"/><path d="M444.468 171.743c-3.57 0-6.497 2.888-6.497 6.497v10.753c0 .684-.57 1.063-1.063 1.063-.532 0-1.103-.38-1.103-1.063v-18.048c0-.684.57-1.063 1.103-1.063.494 0 1.063.38 1.063 1.063v1.558c1.7-1.86 3.95-2.925 6.497-2.925.684 0 1.102.57 1.102 1.063 0 .532-.418 1.102-1.102 1.102z"/><use xlink:href="#l" x="197.257"/><path d="M460.733 190.778c-2.28 0-6.117-.798-7.447-3-.15-.23-.15-.418-.15-.57 0-.607.53-1.14 1.102-1.14.228 0 .607.2.836.532 1.367 1.67 3.8 2.014 5.66 2.014 3.686 0 5.547-1.216 5.547-3.686 0-5.737-12.462-2.698-12.462-10.297 0-3.837 3.837-5.32 7.295-5.32 1.976 0 5.016.685 6.535 2.204.228.228.342.494.342.722 0 .57-.57 1.14-1.178 1.14-.23 0-.494-.076-.722-.304-1.18-1.14-3.306-1.596-4.978-1.596-3.344 0-5.13 1.292-5.13 3.153 0 5.32 12.462 2.508 12.462 10.297 0 4.33-3.8 5.85-7.713 5.85zm27.207-.72c-.53 0-1.102-.38-1.102-1.063V177.9a6.47 6.47 0 0 0-6.497-6.497c-3.57 0-6.497 2.888-6.497 6.497v11.095c0 .684-.57 1.063-1.063 1.063-.532 0-1.103-.38-1.103-1.063V164.07c0-.684.57-1.063 1.103-1.063.494 0 1.063.38 1.063 1.063v8.093c1.596-1.86 3.913-2.926 6.497-2.926 4.7 0 8.663 3.914 8.663 8.663v11.095c0 .684-.57 1.063-1.064 1.063zm22.495-9.005h-15.768c.342 4.332 3.153 7.485 7.295 7.485 2.052 0 4.483-.912 5.585-2.622.267-.418.57-.53.912-.53.57 0 1.178.455 1.178 1.025 0 .342 0 .418-.722 1.254-1.748 2.052-4.293 3.04-6.953 3.04-6.117 0-9.536-5.015-9.536-10.752 0-5.7 3.42-10.715 9.536-10.715s9.537 5.054 9.537 10.715c0 .57-.532 1.102-1.064 1.102zm-8.473-9.65c-4.56 0-6.953 3.495-7.295 7.485h14.628c-.342-4.332-3.153-7.485-7.333-7.485zm30.438 18.655c-.532 0-1.102-.38-1.102-1.063v-1.9c-1.596 2.242-4.065 3.6-7.37 3.6-6.117 0-9.536-5.015-9.536-10.752 0-5.7 3.42-10.715 9.536-10.715 3.306 0 5.775 1.368 7.37 3.572v-8.74c0-.684.57-1.063 1.102-1.063.494 0 1.064.38 1.064 1.063v24.925c0 .684-.57 1.063-1.064 1.063zm-8.473-18.655c-4.483 0-7.37 3.6-7.37 8.55s2.888 8.587 7.37 8.587c4.52 0 7.37-3.647 7.37-8.587s-2.85-8.55-7.37-8.55z"/></g><defs ><path id="C" d="M34.147 981.453v-1.92h2.816v-18.56l-2.88.256v-1.408c1.312-.32 2.592-.896 3.648-1.79h1.536v21.502h2.688v1.92h-7.808z"/><path id="D" d="M46.05 977.165c.32 2.305 1.6 2.688 2.496 2.688 2.048 0 3.328-2.816 3.392-9.248-.928.992-2.176 1.76-3.552 1.76-2.592 0-4.96-1.856-4.96-7.104 0-4.48 1.92-7.23 4.96-7.23 4 0 5.92 2.304 5.92 10.623 0 9.28-2.176 13.12-5.823 13.12-2.976 0-4.096-1.792-4.544-4.48l2.112-.128zm5.952-10.88c0-4.672-1.216-6.335-3.264-6.335-1.792 0-3.008 1.344-3.008 5.343 0 4.128 1.408 5.152 2.88 5.152s2.624-.96 3.392-1.984v-2.176z"/><path id="E" d="M500.568 981.453v-1.92c2.048-6.848 8.447-10.687 8.447-15.935 0-2.432-1.216-3.647-2.784-3.647-1.824 0-3.168 1.407-3.36 4.863h-2.112c.256-5.248 2.624-6.783 5.407-6.783 3.04 0 5.152 2.048 5.152 5.887 0 5.76-5.184 7.552-8.64 15.615h8.767v1.92h-10.88z"/><path id="F" d="M530.7 981.773c-3.776 0-5.567-3.52-5.567-11.87s1.792-11.87 5.567-11.87 5.567 3.52 5.567 11.87-1.792 11.87-5.567 11.87zm0-21.822c-2.112 0-3.264 2.367-3.264 9.95s1.152 9.95 3.264 9.95 3.264-2.368 3.264-9.95-1.152-9.95-3.264-9.95z"/><path id="G" d="M994.487 767.56h-9.15c-.896 0-1.376-.64-1.376-1.344 0-.735.48-1.376 1.376-1.376h9.15c.864 0 1.344.64 1.344 1.376 0 .704-.48 1.344-1.344 1.344z"/><path id="H" d="M1021.334 777.16c-6.847 0-6.847-8.127-6.847-12.8 0-4.512.704-11.104 6.815-11.104s6.88 6.432 6.88 11.104c0 4.863-.128 12.8-6.848 12.8zm4.096-12.8c0-2.816-.063-8.352-4.096-8.352s-4.096 5.535-4.096 8.352v1.792c0 3.327.448 8.287 4.064 8.287 3.68 0 4.127-4.96 4.127-8.287v-1.792z"/><path id="I" d="M1032.85 760.224c-1.624 0-2.95-1.475-2.95-3.285s1.325-3.266 2.95-3.266c1.604 0 2.93 1.456 2.93 3.266s-1.325 3.285-2.93 3.285zm0-4.965c-.598 0-1.344.598-1.344 1.68s.746 1.68 1.344 1.68 1.344-.597 1.344-1.68-.747-1.68-1.344-1.68zm7.78-.914l-3.434 12.354c-.093.41-.4.598-.728.598-.43 0-.84-.3-.84-.784 0-.056 0-.15.02-.224l3.452-12.372a.76.76 0 0 1 .747-.579c.392 0 .82.28.82.747 0 .093-.02.168-.038.26zm2.65 12.615c-1.605 0-2.93-1.475-2.93-3.284 0-1.792 1.324-3.266 2.93-3.266 1.623 0 2.948 1.474 2.948 3.266 0 1.8-1.325 3.284-2.948 3.284zm0-4.964c-.58 0-1.325.597-1.325 1.68 0 1.1.746 1.698 1.325 1.698.597 0 1.344-.598 1.344-1.698 0-1.083-.747-1.68-1.344-1.68z"/><path id="J" d="M1014.615 667.443l-7.36 18.975c-.257.64-.64.896-1.185.896-.704 0-1.44-.544-1.44-1.344 0-.192.063-.353.128-.544l6.976-18.207h-8.544c-.703 0-1.344-.512-1.344-1.376 0-.736.608-1.344 1.344-1.344h10.527c.704 0 1.408.448 1.408 1.376 0 .384-.416 1.248-.512 1.567z"/><path id="K" d="M1027.19 687.282h-9.79c-.928 0-1.472-.544-1.472-1.216 0-.288.096-.576.287-.864l8.735-13.28c.385-.607.608-1.344.608-1.92 0-1.89-1.408-3.328-3.296-3.328-1.695 0-3.136 1.44-3.68 2.464-.256.48-.672.672-1.088.672-.736 0-1.408-.576-1.408-1.312 0-.992 2.272-4.576 6.176-4.576a6.03 6.03 0 0 1 6.016 6.016c0 1.28-.448 2.528-1.088 3.456l-7.327 11.167h7.327c.928 0 1.408.64 1.408 1.376 0 .672-.48 1.344-1.408 1.344z"/><path id="L" d="M104.714 1045.51c-.633 0-1.267-.367-1.4-1.1-1.334 1.034-2.97 1.668-4.804 1.668-4.136 0-7.604-3.436-7.604-7.605v-9.24a1.37 1.37 0 0 1 1.4-1.435c.768 0 1.468.5 1.468 1.4v9.272c0 2.602 2.168 4.77 4.736 4.77 2.603 0 4.77-2.17 4.77-4.77v-9.24c0-1.034.667-1.468 1.4-1.468.768 0 1.435.5 1.435 1.435v14.9c0 .934-.667 1.4-1.4 1.4z"/><path id="M" d="M846.9 1046.357c-1.2 0-3.22-.42-3.92-1.58-.08-.12-.08-.22-.08-.3 0-.32.28-.602.58-.602.12 0 .32.102.44.28.72.88 2 1.06 2.98 1.06 1.94 0 2.92-.64 2.92-1.94 0-3.02-6.562-1.42-6.562-5.422 0-2.02 2.02-2.8 3.84-2.8 1.04 0 2.64.36 3.44 1.16.12.12.18.26.18.38a.65.65 0 0 1-.62.6c-.12 0-.26-.04-.38-.16-.62-.6-1.74-.84-2.62-.84-1.76 0-2.7.682-2.7 1.66 0 2.8 6.562 1.32 6.562 5.422 0 2.28-2 3.08-4.06 3.08z"/><path id="N" d="M857.62 1046.318c-3.22 0-5.02-2.64-5.02-5.662 0-3 1.8-5.64 5.02-5.64s5.02 2.64 5.02 5.64c0 3.02-1.8 5.662-5.02 5.662zm0-10.162c-2.36 0-3.88 1.9-3.88 4.5s1.52 4.52 3.88 4.52c2.38 0 3.88-1.92 3.88-4.52s-1.5-4.5-3.88-4.5z"/><path id="O" d="M903.122 1041.236h-8.302c.18 2.28 1.66 3.94 3.84 3.94 1.08 0 2.36-.48 2.94-1.38.14-.22.3-.28.48-.28.3 0 .62.24.62.54 0 .18 0 .22-.38.658-.92 1.082-2.26 1.602-3.66 1.602-3.22 0-5.02-2.64-5.02-5.662 0-3 1.8-5.64 5.02-5.64s5.02 2.66 5.02 5.64c0 .3-.28.58-.56.58zm-4.46-5.08c-2.4 0-3.66 1.84-3.84 3.94h7.7c-.18-2.28-1.66-3.94-3.86-3.94z"/><path id="P" d="M937.06 1045.98c-.28 0-.58-.2-.58-.56v-5.842c0-1.9-1.52-3.42-3.42-3.42a3.42 3.42 0 0 0-3.421 3.42v5.842c0 .36-.3.56-.56.56-.28 0-.58-.2-.58-.56v-9.502c0-.36.3-.56.58-.56.26 0 .56.2.56.56v.64c.9-.98 2.08-1.54 3.42-1.54a4.6 4.6 0 0 1 4.561 4.561v5.842c0 .36-.3.56-.56.56z"/><path id="Q" d="M940.86 1033.436c-.64 0-1.14-.5-1.14-1.14s.5-1.14 1.14-1.14 1.14.5 1.14 1.14-.5 1.14-1.14 1.14zm0 12.543c-.28 0-.58-.18-.58-.56v-9.502c0-.36.28-.56.58-.56.26 0 .56.18.56.56v9.502c0 .36-.26.56-.56.56z"/><path id="R" d="M947.92 1045.98h-.62c-1.58 0-2.36-.78-2.36-2.342v-7.14h-1.02c-.36 0-.56-.3-.56-.58 0-.26.2-.56.56-.56h1.02v-3.06c0-.36.3-.56.58-.56s.56.2.56.56v3.06h1.84c.36 0 .56.3.56.56 0 .28-.2.58-.56.58h-1.84v7.14c0 .98.28 1.2 1.22 1.2h.62c.36 0 .56.3.56.58 0 .26-.2.56-.56.56z"/><path id="S" d="M99.698 80c-1.32 0-2.52-.9-2.52-2.52V60.8c0-4.68-3.9-8.58-8.58-8.58-4.62 0-8.52 3.9-8.52 8.58v16.62c0 1.68-1.26 2.64-2.64 2.64-1.26 0-2.52-.9-2.52-2.58v-26.82c0-1.74 1.26-2.52 2.52-2.52 1.2 0 2.28.66 2.58 1.98 2.34-1.86 5.28-3 8.58-3 7.44 0 13.68 6.18 13.68 13.68v16.62c0 1.68-1.2 2.58-2.58 2.58z"/><path id="T" d="M122.738 93.68c-3.66 0-12.72-1.32-12.72-4.92 0-1.38 1.26-2.7 2.58-2.7 1.38 0 .18.18 3.36 1.38 1.44.54 3.6 1.14 6.78 1.14 6.66 0 9.9-3.18 9.9-9.48v-2.7c-2.34 2.22-5.7 3.6-9.9 3.6-9.48 0-15.06-6.72-15.06-15.96 0-9 5.4-16.92 15.06-16.92 4.2 0 7.44 1.26 9.9 3.84v-.24c0-1.68 1.38-2.58 2.58-2.58 1.26 0 2.58.9 2.58 2.58V79.1c0 9.54-5.7 14.58-15.06 14.58zm0-41.458c-6 0-9.9 4.68-9.9 11.82 0 6.84 3.6 10.86 9.9 10.86s9.9-4.02 9.9-10.86c0-7.14-3.84-11.82-9.9-11.82z"/><path id="U" d="M158.798 81.02c-9.66 0-15.06-7.92-15.06-16.98 0-9 5.4-16.92 15.06-16.92s15.06 7.92 15.06 16.92c0 9.06-5.4 16.98-15.06 16.98zm0-28.8c-6 0-9.9 4.68-9.9 11.82 0 7.2 3.9 11.88 9.9 11.88 6.06 0 9.9-4.68 9.9-11.88 0-7.14-3.84-11.82-9.9-11.82z"/><path id="V" d="M221.856 80c-3.3 0-4.8-2.34-5.34-3.42-2.4 2.64-5.88 4.44-10.56 4.44-9.78 0-15.06-8.04-15.06-16.98s5.4-16.92 15.06-16.92c4.2 0 7.56 1.5 9.9 3.96v-.24c0-.66.24-2.7 2.52-2.7 1.26 0 2.64.66 2.64 2.52v23.16c0 .78.54 1.08.84 1.08 1.68 0 2.58 1.2 2.58 2.58 0 1.26-.9 2.52-2.58 2.52zm-15.9-27.78c-6 0-9.9 4.68-9.9 11.82 0 7.2 3.9 11.88 9.9 11.88 6.06 0 9.9-4.68 9.9-11.88 0-7.14-3.84-11.82-9.9-11.82z"/><path id="W" d="M231.816 85.28c-.36.24-.84.42-1.26.42-1.38 0-2.52-1.26-2.52-2.64 0-2.04 2.28-2.46 2.28-3.42v-.06s-2.4-.66-2.4-4.26c0-2.22 1.98-3.72 4.02-3.72 2.82 0 4.5 3.18 4.5 5.76 0 2.94-1.68 6.18-4.62 7.92z"/><path id="X" d="M366.513 80c-1.26 0-2.52-.9-2.52-2.52v-18.9c0-3.48-2.88-6.36-6.3-6.36-3.54 0-6.36 2.88-6.36 6.3v18.9c0 1.68-1.2 2.58-2.58 2.58-1.32 0-2.52-.9-2.52-2.52v-18.9c0-3.48-2.88-6.36-6.36-6.36s-6.36 2.88-6.36 6.3v18.9c0 1.68-1.26 2.58-2.64 2.58-1.26 0-2.52-.9-2.52-2.52v-26.82c0-1.74 1.32-2.58 2.64-2.58.84 0 1.68.36 2.16 1.14a11.56 11.56 0 0 1 6.66-2.1c3.6 0 6.84 1.62 8.94 4.26 2.1-2.64 5.28-4.26 8.88-4.26 6.36 0 11.52 5.1 11.52 11.4v18.9c0 1.68-1.26 2.58-2.64 2.58z"/><path id="Y" d="M402.093 66.68h-22.2c.84 5.64 4.44 9.24 9.72 9.24 2.7 0 5.4-.96 7.14-3.12.54-.6 1.14-.96 1.86-.96 1.32 0 2.7 1.2 2.7 2.64 0 .72-.18 1.26-1.44 2.52-2.7 2.64-6.42 4.02-10.26 4.02-9.66 0-15.06-7.98-15.06-16.98 0-8.94 5.4-16.92 15.06-16.92 9.78 0 15 7.98 15 16.92 0 1.32-.96 2.64-2.52 2.64zm-12.48-14.46c-5.64 0-8.94 4.14-9.72 9.3h19.44c-.84-5.76-4.44-9.3-9.72-9.3z"/><path id="Z" d="M423.573 52.222c-4.62 0-8.52 3.9-8.52 8.58v16.62c0 1.68-1.26 2.58-2.64 2.58-1.26 0-2.52-.9-2.52-2.52v-26.76c0-1.68 1.38-2.58 2.52-2.58 1.2 0 2.34.66 2.58 2.04 2.34-1.92 5.52-3.06 8.58-3.06 1.74 0 2.64 1.2 2.64 2.58 0 1.32-.9 2.52-2.64 2.52z"/><path id="a" d="M606.93 80h-1.02c-5.7 0-7.86-3-7.86-7.92v-18.84h-1.8c-1.44 0-2.58-1.14-2.58-2.52 0-1.44 1.14-2.58 2.52-2.58h1.8v-8.34c0-1.68 1.26-2.52 2.58-2.52s2.52.84 2.52 2.52v8.34h3.84c1.68 0 2.52 1.38 2.52 2.52 0 1.44-.96 2.58-2.52 2.58h-3.84v19.38c0 1.68.6 2.28 2.28 2.28h1.5c1.56 0 2.58 1.14 2.58 2.52 0 1.44-.96 2.58-2.52 2.58z"/><path id="b" d="M651.75 43.282a4.3 4.3 0 1 1 0-8.64 4.3 4.3 0 1 1 0 8.64zm0 36.72c-1.32 0-2.64-.9-2.64-2.52v-26.76c0-1.68 1.32-2.58 2.64-2.58 1.26 0 2.52.9 2.52 2.58v26.76c0 1.68-1.26 2.52-2.52 2.52z"/><path id="c" d="M923.185 66.68h-22.2c.84 5.64 4.44 9.24 9.72 9.24 2.7 0 5.4-.96 7.14-3.12.54-.6 1.14-.96 1.86-.96 1.32 0 2.7 1.2 2.7 2.64 0 .72-.18 1.26-1.44 2.52-2.7 2.64-6.42 4.02-10.26 4.02-9.66 0-15.06-7.98-15.06-16.98 0-8.94 5.4-16.92 15.06-16.92 9.78 0 15 7.98 15 16.92 0 1.32-.96 2.64-2.52 2.64zm-12.48-14.46c-5.64 0-8.94 4.14-9.72 9.3h19.438c-.84-5.76-4.44-9.3-9.72-9.3z"/><path id="d" d="M337.295 141.26c-1.14 0-2.28-.66-2.52-1.98-2.4 1.86-5.34 3-8.64 3-7.44 0-13.68-6.18-13.68-13.68v-16.62c0-1.68 1.26-2.58 2.52-2.58 1.38 0 2.64.9 2.64 2.52v16.68c0 4.68 3.9 8.58 8.52 8.58 4.68 0 8.58-3.9 8.58-8.58v-16.62c0-1.86 1.2-2.64 2.52-2.64 1.38 0 2.58.9 2.58 2.58v26.82c0 1.68-1.2 2.52-2.52 2.52z"/><path id="e" d="M422.193 141.2c-1.32 0-2.64-.9-2.64-2.52v-17.82h-19.8v17.82c0 1.62-1.38 2.52-2.52 2.52-1.32 0-2.64-.9-2.64-2.52v-37.678c0-1.68 1.32-2.52 2.64-2.52 1.14 0 2.52.84 2.52 2.52v14.76h19.8v-14.7c0-1.74 1.38-2.58 2.52-2.58 1.32 0 2.64.84 2.64 2.58v37.558c0 1.68-1.38 2.58-2.52 2.58z"/><path id="f" d="M624.93 141.32c-3.24 0-6-2.76-6-6.12v-34.138c0-1.74 1.26-2.58 2.58-2.58s2.58.84 2.58 2.52V135.2c0 .72.54 1.02.84 1.02 1.68 0 2.58 1.2 2.58 2.58 0 1.32-.9 2.52-2.58 2.52z"/><path id="g" d="M864.025 141.2c-1.32 0-2.52-.9-2.52-2.52V122c0-4.68-3.9-8.58-8.58-8.58-4.62 0-8.52 3.9-8.52 8.58v16.62c0 1.68-1.26 2.64-2.64 2.64-1.26 0-2.52-.9-2.52-2.58v-26.82c0-1.74 1.26-2.52 2.52-2.52 1.2 0 2.28.66 2.58 1.98 2.34-1.86 5.28-3 8.58-3 7.44 0 13.68 6.18 13.68 13.68v16.62c0 1.68-1.2 2.58-2.58 2.58z"/><path id="h" d="M86.36 190.702c-6.117 0-9.536-5.015-9.536-10.752 0-5.7 3.42-10.715 9.536-10.715s9.537 5.016 9.537 10.715c0 5.737-3.42 10.752-9.537 10.752zm0-19.3c-4.483 0-7.37 3.61-7.37 8.55s2.888 8.587 7.37 8.587c4.52 0 7.37-3.647 7.37-8.587s-2.85-8.55-7.37-8.55z"/><path id="i" d="M128.7 190.702c-3.306 0-5.775-1.367-7.37-3.61v9.84c0 .684-.57 1.102-1.063 1.102-.532 0-1.103-.418-1.103-1.102v-25.988c0-.684.57-1.063 1.103-1.063.494 0 1.063.38 1.063 1.063v1.862c1.596-2.204 4.065-3.572 7.37-3.572 6.117 0 9.536 5.016 9.536 10.715 0 5.737-3.42 10.752-9.536 10.752zm0-19.3c-4.52 0-7.37 3.61-7.37 8.55s2.85 8.587 7.37 8.587 7.37-3.647 7.37-8.587-2.85-8.55-7.37-8.55z"/><path id="j" d="M202.712 190.057c-.53 0-1.102-.38-1.102-1.063v-1.216c-1.596 1.86-3.913 2.925-6.497 2.925-4.71 0-8.663-3.95-8.663-8.662v-11.095c0-.684.57-1.063 1.103-1.063.493 0 1.063.38 1.063 1.063v11.095a6.47 6.47 0 1 0 12.994 0v-11.095c0-.684.57-1.063 1.102-1.063.494 0 1.064.38 1.064 1.063v18.048c0 .684-.57 1.063-1.064 1.063z"/><path id="k" d="M212.177 190.284c-2.052 0-3.762-1.9-3.762-4.027v-22.188c0-.684.57-1.063 1.103-1.063.494 0 1.063.38 1.063 1.063v22.188c0 2.432 2.697 1.026 2.697 2.736 0 .645-.455 1.29-1.102 1.29z"/><path id="l" d="M251.43 166.234a2.14 2.14 0 1 1 0-4.332 2.14 2.14 0 0 1 0 4.332zm0 23.822c-.532 0-1.103-.342-1.103-1.063v-18.048c0-.684.532-1.063 1.103-1.063.494 0 1.063.342 1.063 1.063v18.048c0 .684-.494 1.063-1.063 1.063z"/><path id="m" d="M295.356 190.057c-.53 0-1.102-.38-1.102-1.063v-11.095a6.47 6.47 0 0 0-6.497-6.497c-3.57 0-6.497 2.888-6.497 6.497v11.095c0 .684-.57 1.063-1.063 1.063-.532 0-1.103-.38-1.103-1.063v-18.048c0-.684.57-1.063 1.103-1.063.494 0 1.063.38 1.063 1.063v1.216c1.7-1.86 3.95-2.926 6.497-2.926 4.71 0 8.663 3.914 8.663 8.663v11.095c0 .684-.57 1.063-1.064 1.063z"/></defs></svg>