<svg xmlns="http://www.w3.org/2000/svg" xmlns:xlink="http://www.w3.org/1999/xlink" viewBox="0 0 1080 1080"><linearGradient id="A" gradientUnits="userSpaceOnUse" x1="11.716" y1="11.716" x2="1068.284" y2="1068.284"><stop offset="0" stop-color="#00c3ff"/><stop offset=".159" stop-color="#35c7d0"/><stop offset=".39" stop-color="#7ccc91"/><stop offset=".598" stop-color="#b4d05f"/><stop offset=".775" stop-color="#ddd33a"/><stop offset=".915" stop-color="#f6d424"/><stop offset="1" stop-color="#ffd51c"/></linearGradient><path d="M1040 1080H40c-22.09 0-40-17.91-40-40V40C0 17.91 17.91 0 40 0h1000c22.09 0 40 17.91 40 40v1000c0 22.09-17.91 40-40 40z" fill="url(#A)"/><g opacity=".5" fill="#fff"><path d="M42.328 1046.045c-3.568 0-5.47-1.97-5.503-2.002 0 .935-.7 1.4-1.468 1.4-.7 0-1.4-.467-1.4-1.4v-20.88a1.35 1.35 0 0 1 1.401-1.434c.767 0 1.468.467 1.468 1.4v6.238c1.334-1.368 3.168-2.17 5.503-2.17 5.37 0 8.373 4.403 8.373 9.406 0 5.037-3.002 9.44-8.373 9.44zm0-16c-3.335 0-5.503 2.602-5.503 6.57 0 4.003 2.168 6.604 5.503 6.604s5.504-2.602 5.504-6.604c0-3.97-2.168-6.57-5.504-6.57zm25.555 8.037h-12.34c.467 3.136 2.468 5.137 5.403 5.137 1.5 0 3.002-.533 3.97-1.734.3-.333.634-.533 1.034-.533.734 0 1.5.667 1.5 1.468 0 .4-.1.7-.8 1.4-1.5 1.468-3.57 2.235-5.704 2.235-5.37 0-8.372-4.437-8.372-9.44 0-4.97 3.002-9.406 8.372-9.406 5.437 0 8.34 4.437 8.34 9.406 0 .734-.534 1.468-1.4 1.468zm-6.937-8.038c-3.136 0-4.97 2.3-5.403 5.17H66.35c-.467-3.202-2.468-5.17-5.403-5.17zM88 1045.478c-1.834 0-2.668-1.3-2.97-1.9-1.334 1.468-3.27 2.47-5.87 2.47-5.437 0-8.372-4.47-8.372-9.44s3.002-9.406 8.372-9.406c2.335 0 4.203.834 5.504 2.202v-.134c0-.367.133-1.5 1.4-1.5.7 0 1.468.367 1.468 1.4v12.875c0 .434.3.6.467.6.935 0 1.435.667 1.435 1.434a1.37 1.37 0 0 1-1.435 1.401zm-8.84-15.443c-3.336 0-5.504 2.602-5.504 6.57 0 4.003 2.168 6.604 5.504 6.604 3.37 0 5.504-2.602 5.504-6.604 0-3.97-2.135-6.57-5.504-6.57z"/><use xlink:href="#C"/><path d="M115.158 1045.478h-.567c-3.17 0-4.37-1.668-4.37-4.403V1030.6h-1c-.8 0-1.435-.634-1.435-1.4 0-.8.634-1.435 1.4-1.435h1v-4.637c0-.934.7-1.4 1.435-1.4s1.4.467 1.4 1.4v4.637h2.135c.934 0 1.4.768 1.4 1.4 0 .8-.533 1.434-1.4 1.434h-2.135v10.774c0 .934.333 1.268 1.268 1.268h.833c.868 0 1.435.634 1.435 1.4 0 .8-.533 1.435-1.4 1.435zm4.604-20.415a2.402 2.402 0 1 1 0-4.803 2.402 2.402 0 1 1 0 4.803zm0 20.414c-.733 0-1.467-.5-1.467-1.4V1029.2c0-.935.733-1.435 1.467-1.435a1.37 1.37 0 0 1 1.401 1.435v14.876c0 .935-.7 1.4-1.4 1.4zm10.376-14.877h-1.5v13.442c0 .935-.7 1.4-1.468 1.4-.7 0-1.4-.467-1.4-1.4V1030.6h-1.37c-.9 0-1.4-.667-1.4-1.4 0-.768.5-1.435 1.4-1.435h1.367v-2.27c0-2.135 1.77-3.77 3.836-3.77.968 0 1.468.667 1.468 1.434 0 .7-.5 1.4-1.468 1.4-.566 0-.967.434-.967.9v2.302h1.5c.967 0 1.468.667 1.468 1.435 0 .733-.5 1.4-1.468 1.4z"/><use xlink:href="#C" x="42.068"/><path d="M154.725 1045.544c-1.802 0-3.336-1.534-3.336-3.402v-18.98c0-.967.7-1.434 1.435-1.434s1.435.467 1.435 1.4v19.013c0 .4.3.567.467.567.934 0 1.435.667 1.435 1.435 0 .733-.5 1.4-1.435 1.4zm15.37-.066v-1.264c1.886-.237 2.046-.437 2.046-3.157v-6.7c0-2.8-1.248-4.017-3.064-4.017-1.237 0-2.345.6-3.47 1.493v9.476c0 2.527.187 2.658 2.06 2.896v1.264h-8.968v-1.264c2.254-.33 2.5-.4 2.5-3v-8.2c0-2.446-.303-2.565-2.185-2.922v-1.184c2.173-.292 4.63-.807 6.653-1.533l-.052 2.95 2.6-1.745c1.16-.713 2-1.086 3.16-1.086 3.194 0 5.2 2.338 5.2 6.3v7.5c0 2.54.237 2.657 2.277 2.92v1.264h-8.74zm23.9-3.703c-2.458 3.427-5.488 4.178-7.014 4.178-5.142 0-8.124-3.936-8.124-8.594 0-2.745 1.183-5.396 2.832-7.062 1.74-1.8 3.945-2.814 6.082-2.814 3.73 0 6.396 3.126 6.37 6.347-.014.715-.08 1.277-.612 1.4-.767.184-6.17.5-10.318.647.062 4.587 2.717 6.74 5.556 6.74 1.572 0 3.104-.597 4.543-1.866l.686 1.014zm-7.07-12.7c-1.667 0-3.167 1.807-3.516 4.963l5.486-.118c.6-.026.848-.146.848-.792.04-2.022-1.037-4.053-2.818-4.053zm34.284.145c-1.943.343-2.248.624-3.105 2.765-1.33 3.462-3.102 8.53-4.934 13.94h-1.512l-4.65-11.46-4.55 11.46h-1.472l-4.685-14.192c-.687-1.985-.94-2.274-2.855-2.512v-1.25h9.397v1.25c-2.325.345-2.535.672-2.058 2.133l2.52 8.214c1.507-3.68 2.988-7.62 4.327-11.424h1.456c1.4 3.76 2.986 7.702 4.573 11.568.742-2.107 2.062-5.964 2.557-8.108.412-1.674-.008-2.078-2.753-2.383v-1.25h7.742v1.25zm9.4 3.746c-.92-2.606-2.155-3.984-4.2-3.984-1.206 0-2.225.86-2.225 2.266 0 1.497 1.046 2.264 3.16 3.216 3.278 1.496 5.3 2.787 5.3 5.736 0 3.85-3.6 5.764-6.945 5.764-2.06 0-4.088-.737-4.92-1.16l-.662-4.892 1.252-.224c.8 2.5 2.33 4.75 4.976 4.75 1.505 0 2.438-.952 2.438-2.28 0-1.423-.76-2.333-3.092-3.467-2.67-1.295-5.107-2.64-5.107-5.775 0-3.046 2.533-5.42 6.565-5.42 1.818 0 3.242.396 4.112.567l.62 4.577-1.25.328z"/></g><g fill="#fff"><path d="M858.993 1046.36c-1.2 0-3.22-.42-3.92-1.58-.08-.12-.08-.22-.08-.3 0-.32.28-.6.58-.6.12 0 .32.1.44.28.72.88 2 1.06 2.98 1.06 1.94 0 2.92-.64 2.92-1.94 0-3.02-6.562-1.42-6.562-5.422 0-2.02 2.02-2.8 3.84-2.8 1.04 0 2.64.36 3.44 1.16a.56.56 0 0 1 .18.38.65.65 0 0 1-.62.6.53.53 0 0 1-.38-.16c-.62-.6-1.74-.84-2.62-.84-1.76 0-2.7.68-2.7 1.66 0 2.8 6.562 1.32 6.562 5.422 0 2.28-2 3.08-4.06 3.08zm10.72-.04c-3.22 0-5.02-2.64-5.02-5.66 0-3 1.8-5.64 5.02-5.64s5.02 2.64 5.02 5.64c0 3.02-1.8 5.66-5.02 5.66zm0-10.162c-2.36 0-3.88 1.9-3.88 4.5s1.52 4.52 3.88 4.52c2.38 0 3.88-1.92 3.88-4.52s-1.5-4.5-3.88-4.5zm15.78 9.822c-.28 0-.58-.2-.58-.56v-.64c-.84.98-2.06 1.54-3.42 1.54-2.48 0-4.56-2.08-4.56-4.56v-5.842c0-.36.3-.56.58-.56.26 0 .56.2.56.56v5.842c0 1.9 1.52 3.42 3.42 3.42s3.42-1.52 3.42-3.42v-5.842c0-.36.3-.56.58-.56.26 0 .56.2.56.56v9.502c0 .36-.3.56-.56.56zm7.96-9.643a3.42 3.42 0 0 0-3.421 3.42v5.66c0 .36-.3.56-.56.56-.28 0-.58-.2-.58-.56v-9.502c0-.36.3-.56.58-.56.26 0 .56.2.56.56v.82c.9-.98 2.08-1.54 3.42-1.54.36 0 .58.3.58.56a.58.58 0 0 1-.58.581zm10.18 8.46c-.88.98-2.1 1.52-3.58 1.52-3.22 0-5.02-2.64-5.02-5.66 0-3 1.8-5.64 5.02-5.64 1.48 0 2.7.54 3.58 1.52a.53.53 0 0 1 .16.381.63.63 0 0 1-.58.6c-.14 0-.28-.06-.42-.2-.66-.74-1.58-1.16-2.74-1.16-2.36 0-3.88 1.9-3.88 4.5s1.52 4.52 3.88 4.52c1.16 0 2.08-.44 2.74-1.16.14-.14.28-.2.42-.2.3 0 .58.26.58.58a.57.57 0 0 1-.16.399zm11.58-3.56h-8.302c.18 2.28 1.66 3.94 3.84 3.94 1.08 0 2.36-.48 2.94-1.38.14-.22.3-.28.48-.28.3 0 .62.24.62.54 0 .18 0 .22-.38.66-.92 1.08-2.26 1.6-3.66 1.6-3.22 0-5.02-2.64-5.02-5.66 0-3 1.8-5.64 5.02-5.64s5.02 2.66 5.02 5.64c0 .3-.28.58-.56.58zm-4.46-5.08c-2.4 0-3.66 1.84-3.84 3.94h7.7c-.18-2.28-1.66-3.94-3.86-3.94zm8.438 3.26c-.64 0-1.16-.5-1.16-1.14s.52-1.14 1.16-1.14c.62 0 1.12.5 1.12 1.14s-.5 1.14-1.12 1.14zm0 6.562c-.64 0-1.16-.5-1.16-1.14s.52-1.14 1.16-1.14c.62 0 1.12.5 1.12 1.14s-.5 1.14-1.12 1.14zm11.14.001h-2.28c-.36 0-.58-.3-.58-.56a.58.58 0 0 1 .58-.58h.56v-11.982h-.56c-.36 0-.58-.28-.58-.56s.22-.56.58-.56h2.28c.36 0 .56.28.56.56s-.2.56-.56.56h-.58v11.982h.58c.36 0 .56.3.56.58 0 .26-.2.56-.56.56z"/><use xlink:href="#D"/><use xlink:href="#E"/><use xlink:href="#F"/><path d="M974.473 1046.32c-1.74 0-3.04-.72-3.88-1.9v5.182c0 .36-.3.58-.56.58a.58.58 0 0 1-.58-.58v-13.684c0-.36.3-.56.58-.56.26 0 .56.2.56.56v.98c.84-1.16 2.14-1.88 3.88-1.88 3.22 0 5.02 2.64 5.02 5.64 0 3.02-1.8 5.66-5.02 5.66zm0-10.162c-2.38 0-3.88 1.9-3.88 4.5s1.5 4.52 3.88 4.52 3.88-1.92 3.88-4.52-1.5-4.5-3.88-4.5z"/><use xlink:href="#F" x="24.379"/><use xlink:href="#D" x="60.539"/><use xlink:href="#E" x="60.539"/><use xlink:href="#F" x="60.539"/><use xlink:href="#D" x="96.699"/><path d="M1045.432 1045.98h-.62c-1.58 0-2.36-.78-2.36-2.34v-7.142h-1.02c-.36 0-.56-.3-.56-.58 0-.26.2-.56.56-.56h1.02v-3.06c0-.36.3-.56.58-.56s.56.2.56.56v3.06h1.842c.36 0 .56.3.56.56 0 .28-.2.58-.56.58h-1.842v7.142c0 .98.28 1.2 1.22 1.2h.62c.36 0 .56.3.56.58 0 .26-.2.56-.56.56z"/></g><defs><path id="B" d="M1040 1080H40c-22.09 0-40-17.91-40-40V40C0 17.91 17.91 0 40 0h1000c22.09 0 40 17.91 40 40v1000c0 22.09-17.91 40-40 40z"/><path id="C" d="M104.714 1045.51c-.633 0-1.267-.367-1.4-1.1-1.334 1.034-2.97 1.668-4.804 1.668-4.136 0-7.604-3.436-7.604-7.605v-9.24a1.37 1.37 0 0 1 1.4-1.435c.768 0 1.468.5 1.468 1.4v9.272c0 2.602 2.168 4.77 4.736 4.77 2.603 0 4.77-2.17 4.77-4.77v-9.24c0-1.034.667-1.468 1.4-1.468.768 0 1.435.5 1.435 1.435v14.9c0 .934-.667 1.4-1.4 1.4z"/><path id="D" d="M941.854 1045.98c-.28 0-.58-.2-.58-.56v-5.84c0-1.9-1.52-3.42-3.42-3.42a3.42 3.42 0 0 0-3.422 3.421v5.84c0 .36-.3.56-.56.56-.28 0-.58-.2-.58-.56v-9.502c0-.36.3-.56.58-.56.26 0 .56.2.56.56v.64c.9-.98 2.08-1.54 3.422-1.54a4.6 4.6 0 0 1 4.561 4.561v5.84c0 .36-.3.56-.56.56z"/><path id="E" d="M954.094 1045.98c-.28 0-.58-.2-.58-.56v-1c-.84 1.18-2.14 1.9-3.88 1.9-3.22 0-5.02-2.64-5.02-5.66 0-3 1.8-5.64 5.02-5.64 1.74 0 3.04.72 3.88 1.88v-4.6c0-.36.3-.56.58-.56.26 0 .56.2.56.56v13.122c0 .36-.3.56-.56.56zm-4.46-9.822c-2.36 0-3.88 1.9-3.88 4.5s1.52 4.52 3.88 4.52c2.38 0 3.88-1.92 3.88-4.52s-1.5-4.5-3.88-4.5z"/><path id="F" d="M966.514 1041.238h-8.3c.18 2.28 1.66 3.94 3.84 3.94 1.08 0 2.36-.48 2.94-1.38a.52.52 0 0 1 .479-.28c.3 0 .62.24.62.54 0 .18 0 .22-.38.66-.92 1.08-2.26 1.6-3.66 1.6-3.22 0-5.02-2.64-5.02-5.66 0-3 1.8-5.64 5.02-5.64s5.02 2.66 5.02 5.64a.61.61 0 0 1-.561.58zm-4.46-5.08c-2.4 0-3.66 1.84-3.84 3.94h7.7c-.18-2.28-1.66-3.94-3.86-3.94z"/><path id="G" d="M872.367 134.668c-1.943 0-3.563-1.8-3.563-3.815v-21.02c0-.647.54-1.008 1.044-1.008.468 0 1.008.36 1.008 1.008v21.02c0 2.304 2.556.972 2.556 2.592 0 .612-.432 1.224-1.044 1.224z"/><path id="H" d="M815.92 166.664c-3.132 0-5.472-1.296-6.983-3.42v9.323c0 .647-.54 1.043-1.008 1.043-.504 0-1.044-.396-1.044-1.043v-24.62c0-.648.54-1.008 1.044-1.008.468 0 1.008.36 1.008 1.008v1.764c1.512-2.088 3.852-3.384 6.983-3.384 5.795 0 9.035 4.75 9.035 10.15 0 5.436-3.24 10.188-9.035 10.188zm0-18.286c-4.283 0-6.983 3.42-6.983 8.1s2.7 8.136 6.983 8.136 6.983-3.456 6.983-8.136-2.7-8.1-6.983-8.1z"/><path id="I" d="M836.727 166.664c-5.795 0-9.035-4.752-9.035-10.187 0-5.4 3.24-10.15 9.035-10.15s9.035 4.75 9.035 10.15c0 5.436-3.24 10.188-9.035 10.188zm0-18.286c-4.247 0-6.983 3.42-6.983 8.1s2.736 8.136 6.983 8.136c4.283 0 6.983-3.456 6.983-8.136s-2.7-8.1-6.983-8.1z"/><path id="J" d="M671.94 165.775c-1.512 0-3.024-1.152-3.024-3.024v-38.595l-5.76 5.617c-.648.648-1.368.864-2.016.864-1.73 0-3.24-1.584-3.24-3.168 0-.792.288-1.512.937-2.16l10.73-10.37c.864-.792 1.8-1.152 2.665-1.152 2.016 0 2.88 2.016 2.88 3.672v45.22c0 1.944-1.512 3.096-3.168 3.096z"/><path id="K" d="M221.38 351.518c-3.132 0-5.472-1.296-6.983-3.42v9.323c0 .647-.54 1.043-1.008 1.043-.504 0-1.044-.396-1.044-1.043V332.8c0-.648.54-1.008 1.044-1.008.468 0 1.008.36 1.008 1.008v1.764c1.512-2.088 3.852-3.384 6.983-3.384 5.795 0 9.035 4.75 9.035 10.15 0 5.436-3.24 10.188-9.035 10.188zm0-18.286c-4.283 0-6.983 3.42-6.983 8.1s2.7 8.136 6.983 8.136 6.983-3.456 6.983-8.136-2.7-8.1-6.983-8.1z"/><path id="L" d="M250.216 342.374h-14.938c.324 4.104 2.987 7.092 6.91 7.092 1.944 0 4.248-.864 5.29-2.484.252-.396.54-.504.864-.504.54 0 1.116.433 1.116.973 0 .323 0 .396-.685 1.188-1.655 1.943-4.067 2.88-6.587 2.88-5.795 0-9.035-4.752-9.035-10.187 0-5.4 3.24-10.15 9.035-10.15s9.035 4.787 9.035 10.15c0 .54-.504 1.044-1.008 1.044zm-8.027-9.143c-4.32 0-6.587 3.312-6.91 7.09h13.858c-.324-4.104-2.987-7.09-6.947-7.09z"/><path id="M" d="M272.536 382.505h-1.115c-2.844 0-4.248-1.404-4.248-4.212v-12.85h-1.835c-.648 0-1.008-.54-1.008-1.044 0-.468.36-1.008 1.008-1.008h1.835v-5.508c0-.647.54-1.008 1.044-1.008s1.008.36 1.008 1.008v5.508h3.312c.648 0 1.01.54 1.01 1.008 0 .504-.36 1.044-1.01 1.044h-3.312v12.85c0 1.765.504 2.16 2.196 2.16h1.115c.648 0 1.01.54 1.01 1.044 0 .468-.36 1.008-1.01 1.008z"/><path id="N" d="M303.13 295.498c-2.296 0-4.756-1.64-4.756-4.592v-8.2c-6.888 9.676-17.548 15.58-31.816 15.58-26.404 0-41.165-21.648-41.165-46.413 0-24.6 14.76-46.25 41.165-46.25 14.268 0 24.928 5.904 31.816 15.416v-37.72c0-2.952 2.46-4.592 4.756-4.592 2.132 0 4.592 1.64 4.592 4.592v107.585c0 2.952-2.46 4.592-4.592 4.592zm-36.572-80.525c-19.352 0-31.816 15.58-31.816 36.9s12.464 37.064 31.816 37.064c19.516 0 31.816-15.744 31.816-37.064s-12.3-36.9-31.816-36.9z"/><path id="O" d="M325.923 192.67c-5.248 0-9.348-4.1-9.348-9.348s4.1-9.348 9.348-9.348 9.348 4.1 9.348 9.348-4.1 9.348-9.348 9.348zm0 102.83c-2.296 0-4.756-1.476-4.756-4.592v-77.9c0-2.952 2.296-4.592 4.756-4.592 2.132 0 4.592 1.476 4.592 4.592v77.9c0 2.952-2.132 4.592-4.592 4.592z"/><path id="P" d="M429.572 295.498h-.164c-5.412 0-13.12-2.952-16.236-12.792-6.888 9.676-17.548 15.58-31.816 15.58-26.732 0-41.165-21.976-41.165-46.413 0-24.764 14.76-46.25 41.165-46.25 14.268 0 24.928 5.904 31.816 15.416v-8.036c0-2.624 2.132-4.592 4.756-4.592 2.296 0 4.592 1.64 4.592 4.592v66.092c0 10.496 11.808 3.937 11.808 11.81 0 2.132-1.476 4.592-4.756 4.592zm-48.216-80.525c-19.352 0-31.816 15.58-31.816 36.9s12.464 37.064 31.816 37.064c19.516 0 31.816-15.744 31.816-37.064s-12.3-36.9-31.816-36.9z"/><path id="Q" d="M635.716 256.63h-68.06c1.476 18.696 13.612 32.308 31.488 32.308 8.856 0 19.352-3.936 24.108-11.316 1.148-1.804 2.46-2.296 3.936-2.296 2.46 0 5.084 1.968 5.084 4.428 0 1.476 0 1.804-3.116 5.412-7.544 8.856-18.532 13.12-30.012 13.12-26.404 0-41.164-21.648-41.164-46.413 0-24.6 14.76-46.25 41.164-46.25s41.165 21.813 41.165 46.25c0 2.46-2.296 4.756-4.592 4.756zm-36.572-41.657c-19.68 0-30.012 15.088-31.488 32.31h63.14c-1.476-18.696-13.612-32.31-31.652-32.31z"/><path id="R" d="M559.62 349.65c-15.416 0-28.044 12.464-28.044 28.044v46.413c0 2.952-2.46 4.592-4.592 4.592-2.296 0-4.756-1.64-4.756-4.592v-77.9c0-2.952 2.46-4.592 4.756-4.592 2.132 0 4.592 1.64 4.592 4.592v6.724c7.38-8.036 17.057-12.628 28.044-12.628 2.952 0 4.756 2.46 4.756 4.592 0 2.296-1.804 4.756-4.756 4.756z"/><path id="S" d="M868.557 431.486c-26.404 0-41.165-21.648-41.165-46.413 0-24.6 14.76-46.25 41.165-46.25s41.165 21.648 41.165 46.25c0 24.764-14.76 46.413-41.165 46.413zm0-83.313c-19.352 0-31.816 15.58-31.816 36.9s12.464 37.064 31.816 37.064c19.516 0 31.816-15.744 31.816-37.064s-12.3-36.9-31.816-36.9z"/><path id="T" d="M537.776 695.097c-2.296 0-4.756-1.64-4.756-4.592v-47.89c0-15.58-12.464-28.044-28.044-28.044-15.416 0-28.044 12.464-28.044 28.044v47.89c0 2.952-2.46 4.592-4.592 4.592-2.296 0-4.756-1.64-4.756-4.592v-77.9c0-2.952 2.46-4.592 4.756-4.592 2.132 0 4.592 1.64 4.592 4.592v5.248c7.38-8.036 17.056-12.628 28.044-12.628 20.336 0 37.393 16.893 37.393 37.393v47.89c0 2.952-2.46 4.592-4.592 4.592z"/><path id="U" d="M578.283 828.298h-.164c-5.412 0-13.12-2.952-16.236-12.792-6.888 9.676-17.548 15.58-31.816 15.58-26.732 0-41.164-21.977-41.164-46.412 0-24.765 14.76-46.25 41.164-46.25 14.27 0 24.93 5.904 31.816 15.416v-8.036c0-2.624 2.132-4.592 4.756-4.592 2.296 0 4.592 1.64 4.592 4.592v66.093c0 10.496 11.81 3.937 11.81 11.81 0 2.132-1.477 4.592-4.756 4.592zm-48.217-80.524c-19.353 0-31.816 15.58-31.816 36.9s12.464 37.063 31.816 37.063c19.517 0 31.816-15.744 31.816-37.063s-12.3-36.9-31.816-36.9z"/></defs><clipPath id="V"><use xlink:href="#B"/></clipPath><path d="M210.885-2.197c148.96 45.86 257.223 184.576 257.223 348.58 0 201.4-163.266 364.665-364.665 364.665-36.7 0-72.136-5.422-105.547-15.508" opacity=".4" clip-path="url(#V)" fill="none" stroke="#fff" stroke-width="2" stroke-miterlimit="10"/><g opacity=".4" fill="#fff"><path d="M811.744 121.458c-3.132 0-5.687-2.844-5.687-6.335s2.556-6.3 5.688-6.3c3.096 0 5.65 2.808 5.65 6.3s-2.556 6.335-5.65 6.335zm0-10.62c-1.8 0-3.636 1.692-3.636 4.284s1.836 4.283 3.636 4.283 3.6-1.692 3.6-4.283-1.8-4.284-3.6-4.284zm13.606-1.332l-6.875 24.837c-.18.504-.468.756-.9.756-.54 0-1.115-.432-1.115-1.043 0-.108 0-.217.036-.288l6.875-24.837c.18-.54.504-.792.936-.792.504 0 1.08.468 1.08 1.08 0 .07 0 .144-.036.287zm4.464 24.945c-3.096 0-5.65-2.844-5.65-6.335 0-3.456 2.556-6.3 5.65-6.3 3.13 0 5.687 2.844 5.687 6.3 0 3.5-2.556 6.335-5.687 6.335zm0-10.583c-1.8 0-3.6 1.692-3.6 4.248 0 2.592 1.8 4.283 3.6 4.283 1.835 0 3.635-1.7 3.635-4.283 0-2.556-1.8-4.248-3.635-4.248zm25.56 18.792c-3.06 0-7.38-1.152-7.38-2.447 0-.576.468-1.152 1.044-1.152.396 0 1.224.612 1.907.864.937.323 2.412.684 4.428.684 4.607 0 6.983-2.268 6.983-6.695v-2.52c-1.584 1.907-3.852 3.06-6.983 3.06-5.687 0-9.035-4.03-9.035-9.575 0-5.4 3.24-10.15 9.035-10.15 3.132 0 5.472 1.296 6.983 3.384v-1.728c0-.648.54-1.008 1.044-1.008.468 0 1.008.36 1.008 1.008v17.53c0 5.724-3.42 8.747-9.035 8.747zm0-25.88c-4.247 0-6.983 3.42-6.983 8.1 0 4.644 2.556 7.523 6.983 7.523s6.983-2.88 6.983-7.523c0-4.68-2.7-8.1-6.983-8.1z"/><use xlink:href="#G"/><path d="M884.174 135.065c-5.795 0-9.035-4.752-9.035-10.188 0-5.4 3.24-10.15 9.035-10.15s9.035 4.75 9.035 10.15c0 5.436-3.24 10.188-9.035 10.188zm0-18.286c-4.247 0-6.983 3.42-6.983 8.1s2.736 8.136 6.983 8.136c4.283 0 6.983-3.456 6.983-8.136s-2.7-8.1-6.983-8.1zm21.626 18.286c-3.132 0-5.472-1.296-6.983-3.42v1.8c0 .647-.54 1.008-1.008 1.008-.504 0-1.044-.36-1.044-1.008V109.83c0-.647.54-1.008 1.044-1.008.468 0 1.008.36 1.008 1.008v8.28c1.512-2.088 3.852-3.384 6.983-3.384 5.795 0 9.035 4.75 9.035 10.15 0 5.436-3.24 10.188-9.035 10.188zm0-18.286c-4.283 0-6.983 3.42-6.983 8.1s2.7 8.136 6.983 8.136 6.983-3.456 6.983-8.136-2.7-8.1-6.983-8.1zm31.4 17.673h-.037c-1.187 0-2.88-.647-3.562-2.808-1.512 2.124-3.852 3.42-6.984 3.42-5.867 0-9.035-4.824-9.035-10.188 0-5.435 3.24-10.15 9.035-10.15 3.133 0 5.473 1.296 6.984 3.384v-1.764c0-.576.467-1.008 1.043-1.008.504 0 1.008.36 1.008 1.008v14.506c0 2.304 2.592.864 2.592 2.592 0 .468-.324 1.008-1.043 1.008zm-10.584-17.674c-4.246 0-6.983 3.42-6.983 8.1s2.737 8.136 6.983 8.136c4.283 0 6.984-3.456 6.984-8.136s-2.7-8.1-6.984-8.1zm17.75 17.9c-1.943 0-3.562-1.8-3.562-3.815v-21.02c0-.647.54-1.008 1.043-1.008.47 0 1.008.36 1.008 1.008v21.02c0 2.304 2.557.972 2.557 2.592 0 .612-.432 1.224-1.045 1.224z"/><use xlink:href="#H"/><use xlink:href="#I"/><use xlink:href="#H" x="42.443"/><path d="M886.046 166.052c-.504 0-1.044-.36-1.044-1.008v-1.152c-1.512 1.765-3.707 2.772-6.155 2.772-4.463 0-8.207-3.744-8.207-8.207v-10.51c0-.648.54-1.008 1.044-1.008.47 0 1.008.36 1.008 1.008v10.51a6.13 6.13 0 1 0 12.311 0v-10.51c0-.648.54-1.008 1.044-1.008.468 0 1.008.36 1.008 1.008v17.098c0 .647-.54 1.008-1.008 1.008z"/><use xlink:href="#G" x="22.643" y="31.6"/><path d="M917.4 166.052h-.036c-1.187 0-2.88-.647-3.563-2.808-1.512 2.124-3.852 3.42-6.983 3.42-5.867 0-9.035-4.824-9.035-10.187 0-5.435 3.24-10.15 9.035-10.15 3.132 0 5.472 1.296 6.983 3.384v-1.764c0-.576.468-1.008 1.044-1.008.504 0 1.008.36 1.008 1.008v14.506c0 2.304 2.592.864 2.592 2.592 0 .468-.324 1.008-1.044 1.008zm-10.583-17.674c-4.247 0-6.983 3.42-6.983 8.1s2.736 8.136 6.983 8.136c4.283 0 6.983-3.456 6.983-8.136s-2.7-8.1-6.983-8.1zm20.783 17.674h-1.115c-2.844 0-4.248-1.404-4.248-4.212V149H920.4c-.648 0-1.007-.54-1.007-1.044 0-.468.36-1.008 1.007-1.008h1.836v-5.508c0-.647.54-1.008 1.043-1.008s1.008.36 1.008 1.008v5.508h3.313c.648 0 1.008.54 1.008 1.008 0 .504-.36 1.044-1.008 1.044h-3.312v12.85c0 1.765.504 2.16 2.197 2.16h1.115c.648 0 1.008.54 1.008 1.044 0 .468-.36 1.008-1.008 1.008zm4.597-22.57c-1.15 0-2.05-.9-2.05-2.052s.9-2.052 2.05-2.052a2.03 2.03 0 0 1 2.053 2.052c0 1.152-.9 2.052-2.053 2.052zm0 22.57c-.504 0-1.043-.324-1.043-1.008v-17.098c0-.648.504-1.008 1.043-1.008.47 0 1.008.323 1.008 1.008v17.098a.96.96 0 0 1-1.008 1.008zm13.608.61c-5.795 0-9.035-4.752-9.035-10.187 0-5.4 3.24-10.15 9.035-10.15s9.035 4.75 9.035 10.15c0 5.436-3.24 10.188-9.035 10.188zm0-18.286c-4.248 0-6.984 3.42-6.984 8.1s2.736 8.136 6.984 8.136c4.283 0 6.982-3.456 6.982-8.136s-2.7-8.1-6.982-8.1zm28.005 17.674c-.504 0-1.043-.36-1.043-1.008v-10.5a6.13 6.13 0 0 0-6.156-6.155c-3.383 0-6.154 2.735-6.154 6.155v10.5c0 .647-.54 1.008-1.008 1.008-.504 0-1.045-.36-1.045-1.008v-17.098c0-.648.54-1.008 1.045-1.008.467 0 1.008.36 1.008 1.008v1.15c1.62-1.764 3.744-2.77 6.154-2.77 4.465 0 8.207 3.708 8.207 8.207v10.5c0 .647-.54 1.008-1.008 1.008z"/></g><g opacity=".4" fill="#fff"><use xlink:href="#J"/><path d="M695.267 167c-8.785 0-15.914-7.128-15.914-15.84 0-5.544 2.665-10.225 6.985-13.105-3.24-2.592-5.113-6.41-5.113-10.8 0-7.705 6.265-14.04 14.04-14.04 7.705 0 14.04 6.336 14.04 14.04 0 4.393-1.872 8.21-5.112 10.8 4.176 2.88 6.913 7.56 6.913 13.033 0 8.785-7.057 15.914-15.84 15.914zm0-25.706c-5.4 0-9.793 4.536-9.793 9.792 0 5.4 4.464 9.793 9.72 9.793 5.4 0 9.793-4.464 9.793-9.72 0-5.4-4.464-9.865-9.72-9.865zm0-21.9c-4.537 0-7.85 3.528-7.85 7.85 0 4.393 3.312 7.993 7.85 7.993 4.32 0 7.85-3.6 7.85-7.993a7.87 7.87 0 0 0-7.849-7.849z"/></g><g opacity=".4" fill="#fff"><use xlink:href="#J" x="-623.895" y="216.447"/><path d="M62.084 382.294a5.16 5.16 0 0 1-5.184-5.184c0-2.88 2.304-5.04 5.184-5.04s5.185 2.16 5.185 5.04a5.16 5.16 0 0 1-5.185 5.184zm23.112 1.152c-5.544 0-10.44-2.88-13.105-7.345-.36-.576-.504-1.152-.504-1.656 0-1.728 1.512-3.024 3.168-3.024.936 0 1.944.36 2.592 1.44 1.584 2.736 4.465 4.464 7.777 4.464 5.4 0 9.865-4.464 9.865-9.72 0-5.4-4.392-9.865-9.792-9.865h-.072c-1.872 0-3.024-1.44-3.024-3.024s1.224-3.096 3.097-3.096c4.392 0 7.92-3.384 7.92-7.92 0-4.32-3.528-7.85-7.92-7.85-6.985 0-7.057 7.057-10.8 7.057-1.656 0-3.24-1.296-3.24-3.024 0-.576.144-1.152.504-1.728 1.73-2.664 6.05-8.497 13.538-8.497 7.776 0 14.04 6.336 14.04 14.04 0 4.393-1.872 8.2-5.112 10.8 4.176 2.88 6.984 7.56 6.984 13.033 0 8.785-7.128 15.914-15.913 15.914zm53.64 0c-7.705 0-11.8-4.25-11.88-4.32 0 2.016-1.512 3.024-3.168 3.024-1.512 0-3.024-1.008-3.024-3.024V334.05c0-2.088 1.512-3.096 3.024-3.096 1.656 0 3.168 1.008 3.168 3.024v13.465c2.88-2.953 6.84-4.68 11.88-4.68 11.593 0 18.074 9.505 18.074 20.306 0 10.873-6.48 20.378-18.074 20.378zm0-34.563c-7.2 0-11.88 5.617-11.88 14.185 0 8.64 4.68 14.257 11.88 14.257s11.88-5.616 11.88-14.257c0-8.568-4.68-14.185-11.88-14.185zm53.497 33.34c-1.584 0-3.024-1.08-3.024-3.024V359.18c0-5.617-4.68-10.297-10.297-10.297-5.545 0-10.225 4.68-10.225 10.297v19.946c0 2.016-1.512 3.168-3.168 3.168-1.512 0-3.024-1.08-3.024-3.096V347c0-2.088 1.512-3.024 3.024-3.024 1.44 0 2.736.792 3.097 2.376a16.4 16.4 0 0 1 10.297-3.601c8.93 0 16.417 7.416 16.417 16.417v19.946c0 2.016-1.44 3.096-3.096 3.096z"/></g><g opacity=".4" fill="#fff"><use xlink:href="#K"/><use xlink:href="#L"/><use xlink:href="#I" x="-573.73" y="184.854"/><use xlink:href="#K" x="63.252"/><use xlink:href="#G" x="-571.57" y="216.452"/><use xlink:href="#L" x="70.414"/><path d="M221.38 383.117c-3.132 0-5.472-1.296-6.983-3.42v9.323c0 .647-.54 1.043-1.008 1.043-.504 0-1.044-.396-1.044-1.043V364.4c0-.648.54-1.008 1.044-1.008.468 0 1.008.36 1.008 1.008v1.764c1.512-2.088 3.852-3.384 6.983-3.384 5.795 0 9.035 4.75 9.035 10.15 0 5.436-3.24 10.188-9.035 10.188zm0-18.286c-4.283 0-6.983 3.42-6.983 8.1s2.7 8.136 6.983 8.136 6.983-3.456 6.983-8.136-2.7-8.1-6.983-8.1zm20.8.325c-3.384 0-6.155 2.735-6.155 6.155v10.187c0 .647-.54 1.008-1.008 1.008-.504 0-1.044-.36-1.044-1.008V364.4c0-.648.54-1.008 1.044-1.008.468 0 1.008.36 1.008 1.008v1.476c1.62-1.764 3.744-2.77 6.155-2.77.648 0 1.044.54 1.044 1.008 0 .504-.396 1.044-1.044 1.044z"/><use xlink:href="#I" x="-583.379" y="216.453"/><use xlink:href="#M"/><use xlink:href="#L" x="42.12" y="31.6"/><path d="M311.56 380.38c-1.584 1.764-3.78 2.736-6.443 2.736-5.795 0-9.035-4.752-9.035-10.187 0-5.4 3.24-10.15 9.035-10.15 2.664 0 4.86.972 6.443 2.735.216.217.288.47.288.685 0 .54-.504 1.08-1.044 1.08-.252 0-.504-.107-.756-.36-1.187-1.332-2.844-2.088-4.932-2.088-4.247 0-6.983 3.42-6.983 8.1s2.736 8.136 6.983 8.136c2.088 0 3.744-.792 4.932-2.088.252-.252.504-.36.756-.36a1.07 1.07 0 0 1 1.044 1.044c0 .252-.072.468-.288.72z"/><use xlink:href="#M" x="49.5"/><use xlink:href="#L" x="91.619" y="31.6"/><path d="M362.642 382.505c-.504 0-1.044-.36-1.044-1.008v-1.8c-1.512 2.124-3.852 3.42-6.983 3.42-5.795 0-9.035-4.752-9.035-10.187 0-5.4 3.24-10.15 9.035-10.15 3.132 0 5.472 1.296 6.983 3.384v-8.28c0-.647.54-1.008 1.044-1.008.468 0 1.008.36 1.008 1.008v23.613c0 .647-.54 1.008-1.008 1.008zm-8.027-17.674c-4.247 0-6.983 3.42-6.983 8.1s2.736 8.136 6.983 8.136c4.283 0 6.983-3.456 6.983-8.136s-2.7-8.1-6.983-8.1z"/></g><g opacity=".4"><path d="M781.9 96.206l-21.945 10.323c-13.442-28.54-42.468-48.292-76.108-48.292V34.002c43.337 0 80.73 25.437 98.053 62.204z" fill="#fff"/><circle cx="683.853" cy="142.339" r="108.339" fill="none" stroke="#fff" stroke-width="2"/></g><linearGradient id="W" gradientUnits="userSpaceOnUse" x1="334.532" y1="550.421" x2="917.322" y2="1133.211"><stop offset="0" stop-color="#a02771"/><stop offset="1" stop-color="#0004ff"/></linearGradient><path d="M178.834 706.12v134.26h54.17v164.218h812.934V706.12z" fill="url(#W)"/><linearGradient id="X" gradientUnits="userSpaceOnUse" x1="234.63" y1="51.328" x2="961.705" y2="778.404"><stop offset="0" stop-color="#0677eb"/><stop offset=".253" stop-color="#187aac"/><stop offset=".506" stop-color="#287d75"/><stop offset=".724" stop-color="#347e4c"/><stop offset=".896" stop-color="#3b8033"/><stop offset="1" stop-color="#3e802a"/></linearGradient><path d="M127.977 295.498H109.28c-2.952 0-4.756-2.46-4.756-4.592 0-2.296 1.804-4.756 4.756-4.756h4.592v-98.237h-4.592c-2.952 0-4.756-2.296-4.756-4.592s1.804-4.592 4.756-4.592h18.696c2.952 0 4.592 2.296 4.592 4.592s-1.64 4.592-4.592 4.592h-4.756v98.237h4.756c2.952 0 4.592 2.46 4.592 4.756 0 2.132-1.64 4.592-4.592 4.592z" fill="url(#X)"/><path d="M212.6 295.498c-2.296 0-4.756-1.64-4.756-4.592v-47.89c0-15.58-12.464-28.044-28.044-28.044-15.416 0-28.044 12.464-28.044 28.044v47.89c0 2.952-2.46 4.592-4.592 4.592-2.296 0-4.756-1.64-4.756-4.592v-77.9c0-2.952 2.46-4.592 4.756-4.592 2.132 0 4.592 1.64 4.592 4.592v5.248c7.38-8.036 17.057-12.628 28.044-12.628 20.336 0 37.393 16.893 37.393 37.393v47.89c0 2.952-2.46 4.592-4.592 4.592z" fill="url(#X)"/><use xlink:href="#N" fill="url(#X)"/><use xlink:href="#O" fill="url(#X)"/><use xlink:href="#P" fill="url(#X)"/><linearGradient id="Y" gradientUnits="userSpaceOnUse" x1="-5.953" y1="51.328" x2="721.122" y2="778.404"><stop offset="0" stop-color="#0677eb"/><stop offset=".253" stop-color="#187aac"/><stop offset=".506" stop-color="#287d75"/><stop offset=".724" stop-color="#347e4c"/><stop offset=".896" stop-color="#3b8033"/><stop offset="1" stop-color="#3e802a"/></linearGradient><use xlink:href="#N" x="240.583" fill="url(#Y)"/><use xlink:href="#Q" fill="url(#X)"/><path d="M716.73 285.822c-7.216 8.036-17.22 12.464-29.356 12.464-26.404 0-41.165-21.648-41.165-46.413 0-24.6 14.76-46.25 41.165-46.25 12.136 0 22.14 4.428 29.356 12.464.984.984 1.312 2.132 1.312 3.116 0 2.46-2.296 4.92-4.756 4.92-1.148 0-2.296-.492-3.444-1.64-5.412-6.068-12.956-9.512-22.468-9.512-19.352 0-31.816 15.58-31.816 36.9s12.464 37.064 31.816 37.064c9.512 0 17.056-3.608 22.468-9.512 1.148-1.148 2.296-1.64 3.444-1.64 2.46 0 4.756 2.132 4.756 4.756 0 1.148-.328 2.132-1.312 3.28z" fill="url(#X)"/><path d="M744.116 296.482c-8.856 0-16.236-8.2-16.236-17.384V183.32c0-2.952 2.46-4.592 4.756-4.592 2.132 0 4.592 1.64 4.592 4.592v95.776c0 10.496 11.645 4.428 11.645 11.81 0 2.788-1.968 5.576-4.756 5.576z" fill="url(#X)"/><linearGradient id="Z" gradientUnits="userSpaceOnUse" x1="-175.361" y1="51.328" x2="551.714" y2="778.404"><stop offset="0" stop-color="#0677eb"/><stop offset=".253" stop-color="#187aac"/><stop offset=".506" stop-color="#287d75"/><stop offset=".724" stop-color="#347e4c"/><stop offset=".896" stop-color="#3b8033"/><stop offset="1" stop-color="#3e802a"/></linearGradient><use xlink:href="#P" x="409.991" fill="url(#Z)"/><path d="M886.794 216.45c-15.416 0-28.044 12.464-28.044 28.044v46.413c0 2.952-2.46 4.592-4.592 4.592-2.296 0-4.756-1.64-4.756-4.592v-77.9c0-2.952 2.46-4.592 4.756-4.592 2.132 0 4.592 1.64 4.592 4.592v6.724c7.38-8.036 17.056-12.628 28.044-12.628 2.952 0 4.756 2.46 4.756 4.592 0 2.296-1.804 4.756-4.756 4.756z" fill="url(#X)"/><path d="M963.842 256.63h-68.06c1.476 18.696 13.612 32.308 31.49 32.308 8.855 0 19.352-3.936 24.108-11.316 1.147-1.804 2.46-2.296 3.936-2.296 2.46 0 5.084 1.968 5.084 4.428 0 1.476 0 1.804-3.116 5.412-7.544 8.856-18.532 13.12-30.012 13.12-26.405 0-41.165-21.648-41.165-46.413 0-24.6 14.76-46.25 41.165-46.25s41.164 21.813 41.164 46.25c0 2.46-2.296 4.756-4.592 4.756zm-36.572-41.657c-19.68 0-30.013 15.088-31.49 32.31h63.14c-1.477-18.696-13.612-32.31-31.652-32.31z" fill="url(#X)"/><path d="M1005.494 298.614c-9.84 0-26.404-3.444-32.145-12.956-.655-.984-.655-1.804-.655-2.46 0-2.624 2.296-4.92 4.756-4.92.983 0 2.624.82 3.607 2.296 5.904 7.216 16.4 8.692 24.437 8.692 15.908 0 23.944-5.248 23.944-15.908 0-24.764-53.792-11.644-53.792-44.444 0-16.564 16.563-22.96 31.488-22.96 8.527 0 21.647 2.952 28.208 9.512.983.984 1.476 2.132 1.476 3.116 0 2.46-2.46 4.92-5.084 4.92-.983 0-2.132-.328-3.116-1.312-5.084-4.92-14.268-6.888-21.483-6.888-14.433 0-22.14 5.576-22.14 13.612 0 22.96 53.792 10.824 53.792 44.444 0 18.696-16.4 25.256-33.292 25.256z" fill="url(#X)"/><path d="M511.568 321.113h-5.084c-3.936 0-7.216 3.28-7.216 7.052v13.448h12.3c3.116 0 4.592 2.46 4.592 4.592 0 2.296-1.64 4.756-4.592 4.756h-12.3v73.145c0 2.952-2.296 4.592-4.592 4.592s-4.592-1.476-4.592-4.592V350.96h-11.316c-2.952 0-4.592-2.46-4.592-4.756 0-2.132 1.64-4.592 4.592-4.592h11.316v-13.448c0-9.02 7.38-16.236 16.236-16.236h5.248c2.952 0 4.756 2.296 4.756 4.756 0 2.296-1.64 4.428-4.756 4.428z" fill="url(#X)"/><use xlink:href="#R" fill="url(#X)"/><path d="M636.667 389.83h-68.06c1.476 18.696 13.612 32.308 31.488 32.308 8.856 0 19.352-3.936 24.108-11.316 1.148-1.804 2.46-2.296 3.936-2.296 2.46 0 5.084 1.968 5.084 4.428 0 1.476 0 1.804-3.116 5.412-7.544 8.856-18.532 13.12-30.012 13.12-26.404 0-41.165-21.648-41.165-46.413 0-24.6 14.76-46.25 41.165-46.25s41.165 21.813 41.165 46.25c0 2.46-2.296 4.756-4.592 4.756zm-36.572-41.657c-19.68 0-30.012 15.088-31.488 32.31h63.14c-1.476-18.696-13.612-32.31-31.652-32.31z" fill="url(#X)"/><linearGradient id="a" gradientUnits="userSpaceOnUse" x1="145.45" y1="-81.872" x2="872.525" y2="645.204"><stop offset="0" stop-color="#0677eb"/><stop offset=".253" stop-color="#187aac"/><stop offset=".506" stop-color="#287d75"/><stop offset=".724" stop-color="#347e4c"/><stop offset=".896" stop-color="#3b8033"/><stop offset="1" stop-color="#3e802a"/></linearGradient><use xlink:href="#Q" x="89.18" y="133.2" fill="url(#a)"/><path d="M813.126 428.698c-2.296 0-4.756-1.64-4.756-4.592v-8.2c-6.888 9.676-17.548 15.58-31.816 15.58-26.404 0-41.164-21.648-41.164-46.413 0-24.6 14.76-46.25 41.164-46.25 14.268 0 24.928 5.904 31.816 15.416v-37.72c0-2.952 2.46-4.592 4.756-4.592 2.132 0 4.592 1.64 4.592 4.592v107.585c0 2.952-2.46 4.592-4.592 4.592zm-36.572-80.525c-19.352 0-31.816 15.58-31.816 36.9s12.464 37.064 31.816 37.064c19.516 0 31.816-15.744 31.816-37.064s-12.3-36.9-31.816-36.9z" fill="url(#X)"/><use xlink:href="#S" fill="url(#X)"/><path d="M1026.16 428.698c-2.296 0-4.592-1.64-4.592-4.592v-55.104c0-11.316-9.513-20.83-20.828-20.83s-20.992 9.512-20.992 20.665v55.27c0 2.952-2.297 4.592-4.593 4.592s-4.756-1.64-4.756-4.592v-55.104c0-11.316-9.512-20.83-20.664-20.83-11.48 0-20.992 9.512-20.992 20.665v55.27c0 2.952-2.46 4.592-4.592 4.592-2.296 0-4.756-1.64-4.756-4.592v-77.9c0-2.952 2.46-4.592 4.756-4.592 2.132 0 4.592 1.64 4.592 4.592v.984c5.412-5.248 12.792-8.364 20.828-8.364 10.496 0 19.845 5.248 25.584 13.94 5.412-8.364 14.76-13.94 25.42-13.94 17.056 0 30.34 13.448 30.34 30.013v55.27c0 2.952-2.46 4.592-4.756 4.592z" fill="url(#X)"/><path d="M487.924 564.686c-26.404 0-41.165-21.648-41.165-46.413 0-24.6 14.76-46.248 41.165-46.248s41.165 21.648 41.165 46.248c0 24.764-14.76 46.413-41.165 46.413zm0-83.313c-19.352 0-31.816 15.58-31.816 36.9s12.464 37.064 31.816 37.064c19.516 0 31.816-15.744 31.816-37.064s-12.3-36.9-31.816-36.9z" fill="url(#X)"/><path d="M568.774 454.313H563.7c-3.936 0-7.216 3.28-7.216 7.052v13.448h12.3c3.116 0 4.592 2.46 4.592 4.592 0 2.296-1.64 4.756-4.592 4.756h-12.3v73.145c0 2.952-2.296 4.592-4.592 4.592s-4.592-1.476-4.592-4.592V484.16h-11.316c-2.952 0-4.592-2.46-4.592-4.756 0-2.132 1.64-4.592 4.592-4.592h11.316v-13.448c0-9.02 7.38-16.236 16.236-16.236h5.248c2.952 0 4.756 2.296 4.756 4.756 0 2.296-1.64 4.428-4.756 4.428z" fill="url(#X)"/><path d="M637.158 565.014c-9.84 0-26.404-3.444-32.145-12.957-.656-.984-.656-1.804-.656-2.46 0-2.624 2.296-4.92 4.756-4.92.984 0 2.624.82 3.608 2.296 5.904 7.216 16.4 8.692 24.437 8.692 15.908 0 23.944-5.248 23.944-15.908 0-24.764-53.792-11.644-53.792-44.444 0-16.564 16.564-22.96 31.488-22.96 8.528 0 21.648 2.952 28.208 9.512.984.984 1.476 2.132 1.476 3.116 0 2.46-2.46 4.92-5.084 4.92-.984 0-2.132-.328-3.116-1.312-5.084-4.92-14.268-6.888-21.484-6.888-14.433 0-22.14 5.576-22.14 13.612 0 22.96 53.792 10.824 53.792 44.444 0 18.696-16.4 25.256-33.292 25.256z" fill="url(#X)"/><path d="M751.795 523.03h-68.06c1.476 18.696 13.612 32.308 31.488 32.308 8.856 0 19.352-3.936 24.108-11.316 1.148-1.804 2.46-2.296 3.936-2.296 2.46 0 5.084 1.968 5.084 4.428 0 1.476 0 1.804-3.116 5.412-7.544 8.856-18.532 13.12-30.012 13.12-26.404 0-41.164-21.648-41.164-46.413 0-24.6 14.76-46.248 41.164-46.248s41.165 21.812 41.165 46.248c0 2.46-2.296 4.756-4.592 4.756zm-36.572-41.657c-19.68 0-30.012 15.088-31.488 32.31h63.14c-1.476-18.696-13.612-32.31-31.652-32.31z" fill="url(#X)"/><path d="M828.544 562.062c-1.312 0-2.46-.492-3.444-1.804l-29.028-36.736-29.028 36.736c-.984 1.312-2.132 1.804-3.444 1.804-2.624 0-4.92-1.968-4.92-4.592 0-1.148.164-2.132.984-3.28l30.34-38.212-26.568-33.456c-.82-1.148-1.148-2.296-1.148-3.28 0-2.624 2.46-4.592 5.084-4.592 1.312 0 2.46.492 3.444 1.804l25.256 31.98 25.42-31.98c.82-1.312 1.968-1.804 3.28-1.804 2.624 0 5.084 1.968 5.084 4.592 0 .984-.328 1.968-1.148 2.952l-26.732 33.784L832.48 554.2c.984 1.148 1.312 2.132 1.312 3.28 0 2.624-2.624 4.592-5.248 4.592z" fill="url(#X)"/><path d="M908.246 561.898c-2.296 0-4.756-1.64-4.756-4.592v-5.248c-6.888 8.036-16.892 12.628-28.044 12.628-20.336 0-37.392-17.056-37.392-37.393v-47.888c0-2.952 2.46-4.592 4.756-4.592 2.132 0 4.592 1.64 4.592 4.592v47.888c0 15.58 12.464 28.044 28.044 28.044s28.044-12.464 28.044-28.044v-47.888c0-2.952 2.46-4.592 4.756-4.592 2.132 0 4.592 1.64 4.592 4.592v77.9c0 2.952-2.46 4.592-4.592 4.592z" fill="url(#X)"/><path d="M1011.895 561.898h-.164c-5.412 0-13.12-2.952-16.236-12.792-6.888 9.676-17.548 15.58-31.816 15.58-26.73 0-41.164-21.976-41.164-46.413 0-24.764 14.76-46.248 41.164-46.248 14.27 0 24.93 5.904 31.816 15.416v-8.036c0-2.624 2.132-4.592 4.756-4.592 2.297 0 4.593 1.64 4.593 4.592v66.093c0 10.496 11.808 3.936 11.808 11.808 0 2.132-1.476 4.592-4.756 4.592zm-48.217-80.525c-19.352 0-31.816 15.58-31.816 36.9s12.465 37.064 31.816 37.064c19.517 0 31.816-15.744 31.816-37.064s-12.3-36.9-31.816-36.9z" fill="url(#X)"/><path d="M1037.968 562.882c-8.855 0-16.235-8.2-16.235-17.384V449.72c0-2.952 2.46-4.592 4.756-4.592 2.132 0 4.592 1.64 4.592 4.592v95.777c0 10.496 11.645 4.428 11.645 11.808 0 2.788-1.97 5.576-4.757 5.576z" fill="url(#X)"/><linearGradient id="b" gradientUnits="userSpaceOnUse" x1="841.745" y1="-215.072" x2="1568.82" y2="512.004"><stop offset="0" stop-color="#0677eb"/><stop offset=".253" stop-color="#187aac"/><stop offset=".506" stop-color="#287d75"/><stop offset=".724" stop-color="#347e4c"/><stop offset=".896" stop-color="#3b8033"/><stop offset="1" stop-color="#3e802a"/></linearGradient><use xlink:href="#S" x="-607.115" y="266.4" fill="url(#b)"/><linearGradient id="c" gradientUnits="userSpaceOnUse" x1="444.58" y1="-215.072" x2="1171.655" y2="512.004"><stop offset="0" stop-color="#0677eb"/><stop offset=".253" stop-color="#187aac"/><stop offset=".506" stop-color="#287d75"/><stop offset=".724" stop-color="#347e4c"/><stop offset=".896" stop-color="#3b8033"/><stop offset="1" stop-color="#3e802a"/></linearGradient><use xlink:href="#R" x="-209.95" y="266.4" fill="url(#c)"/><linearGradient id="d" gradientUnits="userSpaceOnUse" x1="199.239" y1="-348.27" x2="926.314" y2="378.806"><stop offset="0" stop-color="#0677eb"/><stop offset=".253" stop-color="#187aac"/><stop offset=".506" stop-color="#287d75"/><stop offset=".724" stop-color="#347e4c"/><stop offset=".896" stop-color="#3b8033"/><stop offset="1" stop-color="#3e802a"/></linearGradient><use xlink:href="#O" x="35.391" y="399.598" fill="url(#d)"/><linearGradient id="e" gradientUnits="userSpaceOnUse" x1="417.028" y1="-348.272" x2="1144.103" y2="378.804"><stop offset="0" stop-color="#0677eb"/><stop offset=".253" stop-color="#187aac"/><stop offset=".506" stop-color="#287d75"/><stop offset=".724" stop-color="#347e4c"/><stop offset=".896" stop-color="#3b8033"/><stop offset="1" stop-color="#3e802a"/></linearGradient><use xlink:href="#Q" x="-182.398" y="399.6" fill="url(#e)"/><use xlink:href="#T" fill="url(#X)"/><path d="M584.35 695.097h-5.084c-12.956 0-19.353-6.396-19.353-19.188v-58.55h-8.364c-2.952 0-4.592-2.46-4.592-4.756 0-2.132 1.64-4.592 4.592-4.592h8.364V582.92c0-2.952 2.46-4.592 4.756-4.592s4.592 1.64 4.592 4.592v25.092h15.088c2.952 0 4.592 2.46 4.592 4.592 0 2.296-1.64 4.756-4.592 4.756h-15.088v58.55c0 8.036 2.296 9.84 10.004 9.84h5.084c2.952 0 4.592 2.46 4.592 4.756 0 2.132-1.64 4.592-4.592 4.592z" fill="url(#X)"/><path d="M679.635 695.097h-.164c-5.412 0-13.12-2.952-16.236-12.792-6.888 9.676-17.548 15.58-31.816 15.58-26.732 0-41.164-21.976-41.164-46.413 0-24.764 14.76-46.25 41.164-46.25 14.268 0 24.928 5.904 31.816 15.416v-8.036c0-2.624 2.132-4.592 4.756-4.592 2.296 0 4.592 1.64 4.592 4.592v66.092c0 10.496 11.808 3.937 11.808 11.81 0 2.132-1.476 4.592-4.756 4.592zm-48.216-80.525c-19.352 0-31.816 15.58-31.816 36.9s12.464 37.064 31.816 37.064c19.516 0 31.816-15.744 31.816-37.064s-12.3-36.9-31.816-36.9z" fill="url(#X)"/><path d="M719.485 695.097H714.4c-12.957 0-19.353-6.396-19.353-19.188v-58.55h-8.364c-2.952 0-4.592-2.46-4.592-4.756 0-2.132 1.64-4.592 4.592-4.592h8.364V582.92c0-2.952 2.46-4.592 4.756-4.592s4.592 1.64 4.592 4.592v25.092h15.088c2.952 0 4.592 2.46 4.592 4.592 0 2.296-1.64 4.756-4.592 4.756h-15.088v58.55c0 8.036 2.296 9.84 10.004 9.84h5.084c2.952 0 4.592 2.46 4.592 4.756 0 2.132-1.64 4.592-4.592 4.592z" fill="url(#X)"/><linearGradient id="f" gradientUnits="userSpaceOnUse" x1="-173.363" y1="-348.27" x2="553.712" y2="378.806"><stop offset="0" stop-color="#0677eb"/><stop offset=".253" stop-color="#187aac"/><stop offset=".506" stop-color="#287d75"/><stop offset=".724" stop-color="#347e4c"/><stop offset=".896" stop-color="#3b8033"/><stop offset="1" stop-color="#3e802a"/></linearGradient><use xlink:href="#O" x="407.993" y="399.598" fill="url(#f)"/><path d="M789.348 697.886c-26.404 0-41.164-21.648-41.164-46.413 0-24.6 14.76-46.25 41.164-46.25s41.165 21.648 41.165 46.25c0 24.764-14.76 46.413-41.165 46.413zm0-83.313c-19.352 0-31.816 15.58-31.816 36.9s12.464 37.064 31.816 37.064c19.516 0 31.816-15.744 31.816-37.064s-12.3-36.9-31.816-36.9z" fill="url(#X)"/><linearGradient id="g" gradientUnits="userSpaceOnUse" x1="-137.972" y1="51.328" x2="589.103" y2="778.404"><stop offset="0" stop-color="#0677eb"/><stop offset=".253" stop-color="#187aac"/><stop offset=".506" stop-color="#287d75"/><stop offset=".724" stop-color="#347e4c"/><stop offset=".896" stop-color="#3b8033"/><stop offset="1" stop-color="#3e802a"/></linearGradient><use xlink:href="#T" x="372.602" fill="url(#g)"/><path d="M1042.89 695.097h-.164c-5.412 0-13.12-2.952-16.236-12.792-6.888 9.676-17.548 15.58-31.816 15.58-26.73 0-41.164-21.976-41.164-46.413 0-24.764 14.76-46.25 41.164-46.25 14.27 0 24.93 5.904 31.816 15.416v-8.036c0-2.624 2.132-4.592 4.756-4.592 2.297 0 4.593 1.64 4.593 4.592v66.092c0 10.496 11.808 3.937 11.808 11.81 0 2.132-1.476 4.592-4.756 4.592zm-48.217-80.525c-19.352 0-31.816 15.58-31.816 36.9s12.465 37.064 31.816 37.064c19.517 0 31.816-15.744 31.816-37.064s-12.3-36.9-31.816-36.9z" fill="url(#X)"/><g fill="#ff7d85"><path d="M216.5 720.713h-5.084c-3.936 0-7.216 3.28-7.216 7.052v13.448h12.3c3.116 0 4.592 2.46 4.592 4.592 0 2.297-1.64 4.757-4.592 4.757h-12.3v73.145c0 2.952-2.296 4.592-4.592 4.592s-4.592-1.476-4.592-4.592v-73.145H183.7c-2.952 0-4.592-2.46-4.592-4.757 0-2.132 1.64-4.592 4.592-4.592h11.316v-13.448c0-9.02 7.38-16.236 16.236-16.236h5.248c2.952 0 4.756 2.297 4.756 4.757 0 2.296-1.64 4.428-4.756 4.428zm79.376 107.585c-2.296 0-4.756-1.64-4.756-4.592v-5.248c-6.888 8.036-16.892 12.628-28.044 12.628-20.336 0-37.392-17.057-37.392-37.393v-47.9c0-2.95 2.46-4.592 4.756-4.592 2.132 0 4.592 1.64 4.592 4.592v47.9c0 15.58 12.464 28.044 28.044 28.044s28.044-12.464 28.044-28.044v-47.9c0-2.95 2.46-4.592 4.756-4.592 2.132 0 4.592 1.64 4.592 4.592v77.9c0 2.952-2.46 4.592-4.592 4.592zm88.234 0c-2.297 0-4.757-1.64-4.757-4.592v-47.9c0-15.58-12.464-28.044-28.044-28.044-15.416 0-28.044 12.464-28.044 28.044v47.9c0 2.952-2.46 4.592-4.592 4.592-2.296 0-4.756-1.64-4.756-4.592v-77.9c0-2.95 2.46-4.592 4.756-4.592 2.132 0 4.592 1.64 4.592 4.592v5.248c7.38-8.036 17.056-12.628 28.044-12.628 20.336 0 37.393 16.893 37.393 37.393v47.9c0 2.952-2.46 4.592-4.592 4.592zm90.525 0c-2.296 0-4.756-1.64-4.756-4.592v-8.2c-6.888 9.676-17.548 15.58-31.816 15.58-26.404 0-41.164-21.648-41.164-46.412 0-24.6 14.76-46.25 41.164-46.25 14.27 0 24.93 5.904 31.816 15.416v-37.72c0-2.952 2.46-4.593 4.756-4.593 2.132 0 4.592 1.64 4.592 4.593v107.585c0 2.952-2.46 4.592-4.592 4.592zm-36.572-80.524c-19.353 0-31.816 15.58-31.816 36.9s12.464 37.063 31.816 37.063c19.517 0 31.816-15.744 31.816-37.063s-12.3-36.9-31.816-36.9z"/><use xlink:href="#U"/><path d="M694.886 828.298c-2.297 0-4.593-1.64-4.593-4.592v-55.104c0-11.316-9.512-20.828-20.828-20.828s-20.992 9.512-20.992 20.664v55.27c0 2.952-2.296 4.592-4.592 4.592s-4.756-1.64-4.756-4.592v-55.104c0-11.316-9.513-20.828-20.664-20.828-11.48 0-20.992 9.512-20.992 20.664v55.27c0 2.952-2.46 4.592-4.593 4.592-2.296 0-4.756-1.64-4.756-4.592v-77.9c0-2.95 2.46-4.592 4.756-4.592 2.133 0 4.593 1.64 4.593 4.592v.984c5.412-5.248 12.792-8.364 20.828-8.364 10.496 0 19.844 5.248 25.584 13.94 5.412-8.364 14.76-13.94 25.42-13.94 17.057 0 30.34 13.448 30.34 30.013v55.27c0 2.952-2.46 4.592-4.756 4.592zm90.7-38.868h-68.06c1.476 18.696 13.612 32.308 31.488 32.308 8.856 0 19.353-3.936 24.108-11.315 1.147-1.804 2.46-2.296 3.936-2.296 2.46 0 5.084 1.968 5.084 4.428 0 1.476 0 1.804-3.115 5.412-7.545 8.856-18.532 13.12-30.013 13.12-26.404 0-41.164-21.648-41.164-46.412 0-24.6 14.76-46.25 41.164-46.25s41.164 21.813 41.164 46.25c0 2.46-2.296 4.756-4.592 4.756zm-36.572-41.656c-19.68 0-30.013 15.088-31.488 32.308h63.14c-1.476-18.695-13.612-32.308-31.652-32.308zm121.03 80.524c-2.297 0-4.757-1.64-4.757-4.592v-47.9c0-15.58-12.464-28.044-28.044-28.044-15.416 0-28.044 12.464-28.044 28.044v47.9c0 2.952-2.46 4.592-4.592 4.592-2.297 0-4.757-1.64-4.757-4.592v-77.9c0-2.95 2.46-4.592 4.757-4.592 2.132 0 4.592 1.64 4.592 4.592v5.248c7.38-8.036 17.056-12.628 28.044-12.628 20.336 0 37.393 16.893 37.393 37.393v47.9c0 2.952-2.46 4.592-4.592 4.592zm46.565 0h-5.084c-12.956 0-19.353-6.396-19.353-19.188v-58.548H883.8c-2.952 0-4.592-2.46-4.592-4.757 0-2.132 1.64-4.592 4.592-4.592h8.364V716.12c0-2.952 2.46-4.593 4.756-4.593s4.593 1.64 4.593 4.593v25.092H916.6c2.952 0 4.592 2.46 4.592 4.592 0 2.297-1.64 4.757-4.592 4.757h-15.088v58.54c0 8.036 2.296 9.84 10.004 9.84h5.084c2.952 0 4.592 2.46 4.592 4.756 0 2.132-1.64 4.592-4.592 4.592z"/><use xlink:href="#U" x="433.611"/><path d="M1037.967 829.282c-8.856 0-16.236-8.2-16.236-17.385V716.12c0-2.952 2.46-4.593 4.757-4.593 2.132 0 4.592 1.64 4.592 4.593v95.776c0 10.496 11.644 4.43 11.644 11.8 0 2.788-1.968 5.576-4.756 5.576zM324.574 961.498c-2.296 0-4.756-1.64-4.756-4.592v-47.9c0-15.58-12.464-28.044-28.044-28.044-15.416 0-28.044 12.464-28.044 28.044v47.9c0 2.952-2.46 4.592-4.592 4.592-2.296 0-4.756-1.64-4.756-4.592V849.322c0-2.952 2.46-4.592 4.756-4.592 2.132 0 4.592 1.64 4.592 4.592v34.932c6.888-8.035 16.892-12.628 28.044-12.628 20.336 0 37.393 16.893 37.393 37.393v47.9c0 2.952-2.46 4.592-4.592 4.592zm85.28 0c-2.296 0-4.756-1.64-4.756-4.592v-5.248c-6.888 8.036-16.893 12.628-28.044 12.628-20.336 0-37.393-17.057-37.393-37.393v-47.9c0-2.95 2.46-4.592 4.756-4.592 2.132 0 4.592 1.64 4.592 4.592v47.9c0 15.58 12.464 28.045 28.044 28.045s28.044-12.465 28.044-28.045v-47.9c0-2.95 2.46-4.592 4.756-4.592 2.132 0 4.592 1.64 4.592 4.592v77.9c0 2.952-2.46 4.592-4.592 4.592zm124.804 0c-2.296 0-4.593-1.64-4.593-4.592v-55.104c0-11.316-9.512-20.828-20.828-20.828s-20.992 9.512-20.992 20.664v55.27c0 2.952-2.296 4.592-4.592 4.592s-4.756-1.64-4.756-4.592v-55.104c0-11.316-9.512-20.828-20.664-20.828-11.48 0-20.992 9.512-20.992 20.664v55.27c0 2.952-2.46 4.592-4.592 4.592-2.297 0-4.757-1.64-4.757-4.592V879c0-2.95 2.46-4.592 4.757-4.592 2.132 0 4.592 1.64 4.592 4.592v1c5.412-5.248 12.792-8.364 20.828-8.364 10.496 0 19.844 5.248 25.584 13.94 5.412-8.364 14.76-13.94 25.42-13.94 17.057 0 30.34 13.448 30.34 30.013v55.27c0 2.952-2.46 4.592-4.756 4.592zm102.335 0h-.164c-5.412 0-13.12-2.952-16.236-12.792-6.888 9.676-17.548 15.58-31.816 15.58-26.732 0-41.164-21.977-41.164-46.412 0-24.765 14.76-46.25 41.164-46.25 14.27 0 24.93 5.904 31.816 15.416v-8.036c0-2.624 2.132-4.592 4.756-4.592 2.296 0 4.592 1.64 4.592 4.592v66.093c0 10.496 11.8 3.937 11.8 11.8 0 2.132-1.477 4.592-4.756 4.592zm-48.217-80.524c-19.353 0-31.816 15.58-31.816 36.9s12.464 37.064 31.816 37.064c19.517 0 31.816-15.744 31.816-37.064s-12.3-36.9-31.816-36.9zm128.25 80.524c-2.297 0-4.757-1.64-4.757-4.592v-47.9c0-15.58-12.464-28.044-28.044-28.044-15.416 0-28.044 12.464-28.044 28.044v47.9c0 2.952-2.46 4.592-4.593 4.592-2.296 0-4.756-1.64-4.756-4.592v-77.9c0-2.95 2.46-4.592 4.756-4.592 2.133 0 4.593 1.64 4.593 4.592v5.248c7.38-8.035 17.056-12.628 28.044-12.628 20.336 0 37.393 16.893 37.393 37.393v47.9c0 2.952-2.46 4.592-4.592 4.592zm84.292-79.048c-15.416 0-28.044 12.464-28.044 28.044v46.413c0 2.952-2.46 4.592-4.592 4.592-2.297 0-4.757-1.64-4.757-4.592v-77.9c0-2.95 2.46-4.592 4.757-4.592 2.132 0 4.592 1.64 4.592 4.592v6.725c7.38-8.036 17.056-12.628 28.044-12.628 2.952 0 4.756 2.46 4.756 4.592 0 2.296-1.804 4.756-4.756 4.756zm11.643-23.78c-5.248 0-9.35-4.1-9.35-9.348s4.1-9.35 9.35-9.35 9.348 4.1 9.348 9.35-4.1 9.348-9.348 9.348zm0 102.83c-2.297 0-4.757-1.476-4.757-4.592v-77.9c0-2.95 2.296-4.592 4.757-4.592 2.132 0 4.592 1.477 4.592 4.592v77.9c0 2.952-2.132 4.592-4.592 4.592zm55.43 37.4c-13.94 0-33.62-5.248-33.62-11.152 0-2.624 2.132-5.248 4.756-5.248 1.804 0 5.576 2.788 8.692 3.937 4.264 1.476 10.988 3.115 20.172 3.115 20.992 0 31.816-10.332 31.816-30.504v-11.48c-7.216 8.692-17.548 13.94-31.816 13.94-25.912 0-41.164-18.368-41.164-43.624 0-24.6 14.76-46.25 41.164-46.25 14.27 0 24.93 5.904 31.816 15.416v-7.872c0-2.95 2.46-4.592 4.756-4.592 2.132 0 4.592 1.64 4.592 4.592v79.87c0 26.076-15.58 39.853-41.164 39.853zm0-117.917c-19.353 0-31.816 15.58-31.816 36.9 0 21.156 11.645 34.276 31.816 34.276s31.816-13.12 31.816-34.276c0-21.32-12.3-36.9-31.816-36.9zm124.805 80.525c-2.297 0-4.757-1.64-4.757-4.592v-47.9c0-15.58-12.464-28.044-28.044-28.044-15.416 0-28.044 12.464-28.044 28.044v47.9c0 2.952-2.46 4.592-4.592 4.592-2.297 0-4.757-1.64-4.757-4.592V849.322c0-2.952 2.46-4.592 4.757-4.592 2.132 0 4.592 1.64 4.592 4.592v34.932c6.888-8.035 16.892-12.628 28.044-12.628 20.336 0 37.393 16.893 37.393 37.393v47.9c0 2.952-2.46 4.592-4.592 4.592zm46.575 0h-5.084c-12.956 0-19.353-6.396-19.353-19.188v-58.548h-8.364c-2.952 0-4.592-2.46-4.592-4.757 0-2.132 1.64-4.592 4.592-4.592h8.364V849.32c0-2.952 2.46-4.592 4.756-4.592s4.593 1.64 4.593 4.592v25.092h15.088c2.952 0 4.592 2.46 4.592 4.592 0 2.297-1.64 4.757-4.592 4.757h-15.088V942.3c0 8.036 2.296 9.84 10.004 9.84h5.084c2.952 0 4.592 2.46 4.592 4.756 0 2.132-1.64 4.592-4.592 4.592z"/></g></svg>