<svg xmlns="http://www.w3.org/2000/svg" xmlns:xlink="http://www.w3.org/1999/xlink" viewBox="0 0 1080 1080"><style><![CDATA[.a{opacity:.467}.b{fill:none}.c{stroke:#000}.d{stroke-width:2}.e{stroke-dasharray:1.99311,5.97933}.f{stroke-dasharray:2.02781,6.08342}]]></style><linearGradient id="A" gradientUnits="userSpaceOnUse" x1="11.716" y1="11.716" x2="1068.284" y2="1068.284"><stop offset="0" stop-color="#ff512f"/><stop offset=".421" stop-color="#f77624"/><stop offset=".781" stop-color="#f28f1c"/><stop offset="1" stop-color="#f09819"/></linearGradient><path d="M1040 1080H40c-22.09 0-40-17.91-40-40V40C0 17.91 17.91 0 40 0h1000c22.09 0 40 17.91 40 40v1000c0 22.09-17.91 40-40 40z" fill="url(#A)"/><g opacity=".5" fill="#b7492f"><path d="M42.328 1046.045c-3.568 0-5.47-1.97-5.503-2.002 0 .935-.7 1.4-1.468 1.4-.7 0-1.4-.467-1.4-1.4v-20.88a1.35 1.35 0 0 1 1.401-1.434c.767 0 1.468.467 1.468 1.4v6.238c1.334-1.368 3.168-2.17 5.503-2.17 5.37 0 8.373 4.403 8.373 9.406 0 5.037-3.002 9.44-8.373 9.44zm0-16c-3.335 0-5.503 2.602-5.503 6.57 0 4.003 2.168 6.604 5.503 6.604s5.504-2.602 5.504-6.604c0-3.97-2.168-6.57-5.504-6.57zm25.555 8.037h-12.34c.467 3.136 2.468 5.137 5.403 5.137 1.5 0 3.002-.533 3.97-1.734.3-.333.634-.533 1.034-.533.734 0 1.5.667 1.5 1.468 0 .4-.1.7-.8 1.4-1.5 1.468-3.57 2.235-5.704 2.235-5.37 0-8.372-4.437-8.372-9.44 0-4.97 3.002-9.406 8.372-9.406 5.437 0 8.34 4.437 8.34 9.406 0 .734-.534 1.468-1.4 1.468zm-6.937-8.038c-3.136 0-4.97 2.3-5.403 5.17H66.35c-.467-3.202-2.468-5.17-5.403-5.17zM88 1045.478c-1.834 0-2.668-1.3-2.97-1.9-1.334 1.468-3.27 2.47-5.87 2.47-5.437 0-8.372-4.47-8.372-9.44s3.002-9.406 8.372-9.406c2.335 0 4.203.834 5.504 2.202v-.134c0-.367.133-1.5 1.4-1.5.7 0 1.468.367 1.468 1.4v12.875c0 .434.3.6.467.6.935 0 1.435.667 1.435 1.434a1.37 1.37 0 0 1-1.435 1.401zm-8.84-15.443c-3.336 0-5.504 2.602-5.504 6.57 0 4.003 2.168 6.604 5.504 6.604 3.37 0 5.504-2.602 5.504-6.604 0-3.97-2.135-6.57-5.504-6.57z"/><use xlink:href="#D"/><path d="M115.158 1045.478h-.567c-3.17 0-4.37-1.668-4.37-4.403V1030.6h-1c-.8 0-1.435-.634-1.435-1.4 0-.8.634-1.435 1.4-1.435h1v-4.637c0-.934.7-1.4 1.435-1.4s1.4.467 1.4 1.4v4.637h2.135c.934 0 1.4.768 1.4 1.4 0 .8-.533 1.434-1.4 1.434h-2.135v10.774c0 .934.333 1.268 1.268 1.268h.833c.868 0 1.435.634 1.435 1.4 0 .8-.533 1.435-1.4 1.435zm4.604-20.415a2.402 2.402 0 1 1 0-4.803 2.402 2.402 0 1 1 0 4.803zm0 20.414c-.733 0-1.467-.5-1.467-1.4V1029.2c0-.935.733-1.435 1.467-1.435a1.37 1.37 0 0 1 1.401 1.435v14.876c0 .935-.7 1.4-1.4 1.4zm10.376-14.877h-1.5v13.442c0 .935-.7 1.4-1.468 1.4-.7 0-1.4-.467-1.4-1.4V1030.6h-1.37c-.9 0-1.4-.667-1.4-1.4 0-.768.5-1.435 1.4-1.435h1.367v-2.27c0-2.135 1.77-3.77 3.836-3.77.968 0 1.468.667 1.468 1.434 0 .7-.5 1.4-1.468 1.4-.566 0-.967.434-.967.9v2.302h1.5c.967 0 1.468.667 1.468 1.435 0 .733-.5 1.4-1.468 1.4z"/><use xlink:href="#D" x="42.068"/><path d="M154.725 1045.544c-1.802 0-3.336-1.534-3.336-3.402v-18.98c0-.967.7-1.434 1.435-1.434s1.435.467 1.435 1.4v19.013c0 .4.3.567.467.567.934 0 1.435.667 1.435 1.435 0 .733-.5 1.4-1.435 1.4zm15.37-.066v-1.264c1.886-.237 2.046-.437 2.046-3.157v-6.7c0-2.8-1.248-4.017-3.064-4.017-1.237 0-2.345.6-3.47 1.493v9.476c0 2.527.187 2.658 2.06 2.896v1.264h-8.968v-1.264c2.254-.33 2.5-.4 2.5-3v-8.2c0-2.446-.303-2.565-2.185-2.922v-1.184c2.173-.292 4.63-.807 6.653-1.533l-.052 2.95 2.6-1.745c1.16-.713 2-1.086 3.16-1.086 3.194 0 5.2 2.338 5.2 6.3v7.5c0 2.54.237 2.657 2.277 2.92v1.264h-8.74zm23.9-3.703c-2.458 3.427-5.488 4.178-7.014 4.178-5.142 0-8.124-3.936-8.124-8.594 0-2.745 1.183-5.396 2.832-7.062 1.74-1.8 3.945-2.814 6.082-2.814 3.73 0 6.396 3.126 6.37 6.347-.014.715-.08 1.277-.612 1.4-.767.184-6.17.5-10.318.647.062 4.587 2.717 6.74 5.556 6.74 1.572 0 3.104-.597 4.543-1.866l.686 1.014zm-7.07-12.7c-1.667 0-3.167 1.807-3.516 4.963l5.486-.118c.6-.026.848-.146.848-.792.04-2.022-1.037-4.053-2.818-4.053zm34.284.145c-1.943.343-2.248.624-3.105 2.765-1.33 3.462-3.102 8.53-4.934 13.94h-1.512l-4.65-11.46-4.55 11.46h-1.472l-4.685-14.192c-.687-1.985-.94-2.274-2.855-2.512v-1.25h9.397v1.25c-2.325.345-2.535.672-2.058 2.133l2.52 8.214c1.507-3.68 2.988-7.62 4.327-11.424h1.456c1.4 3.76 2.986 7.702 4.573 11.568.742-2.107 2.062-5.964 2.557-8.108.412-1.674-.008-2.078-2.753-2.383v-1.25h7.742v1.25zm9.4 3.746c-.92-2.606-2.155-3.984-4.2-3.984-1.206 0-2.225.86-2.225 2.266 0 1.497 1.046 2.264 3.16 3.216 3.278 1.496 5.3 2.787 5.3 5.736 0 3.85-3.6 5.764-6.945 5.764-2.06 0-4.088-.737-4.92-1.16l-.662-4.892 1.252-.224c.8 2.5 2.33 4.75 4.976 4.75 1.505 0 2.438-.952 2.438-2.28 0-1.423-.76-2.333-3.092-3.467-2.67-1.295-5.107-2.64-5.107-5.775 0-3.046 2.533-5.42 6.565-5.42 1.818 0 3.242.396 4.112.567l.62 4.577-1.25.328z"/></g><g fill="#b7492f"><use xlink:href="#E"/><use xlink:href="#F"/><path d="M850.98 1045.98c-.28 0-.58-.2-.58-.56v-.64c-.84.98-2.06 1.54-3.42 1.54-2.48 0-4.56-2.08-4.56-4.56v-5.842c0-.36.3-.56.58-.56.26 0 .56.2.56.56v5.842c0 1.9 1.52 3.42 3.42 3.42s3.42-1.52 3.42-3.42v-5.842c0-.36.3-.56.58-.56.26 0 .56.2.56.56v9.502c0 .36-.3.56-.56.56zm7.96-9.643a3.42 3.42 0 0 0-3.421 3.42v5.66c0 .36-.3.56-.56.56-.28 0-.58-.2-.58-.56v-9.502c0-.36.3-.56.58-.56.26 0 .56.2.56.56v.82c.9-.98 2.08-1.54 3.42-1.54.36 0 .58.3.58.56a.58.58 0 0 1-.58.581zm10.18 8.46c-.88.98-2.1 1.52-3.58 1.52-3.22 0-5.02-2.64-5.02-5.66 0-3 1.8-5.64 5.02-5.64 1.48 0 2.7.54 3.58 1.52a.53.53 0 0 1 .16.381.63.63 0 0 1-.58.6c-.14 0-.28-.06-.42-.2-.66-.74-1.58-1.16-2.74-1.16-2.36 0-3.88 1.9-3.88 4.5s1.52 4.52 3.88 4.52c1.16 0 2.08-.44 2.74-1.16.14-.14.28-.2.42-.2.3 0 .58.26.58.58a.57.57 0 0 1-.16.399zm11.582-3.56H872.4c.18 2.28 1.66 3.94 3.84 3.94 1.08 0 2.36-.48 2.94-1.38.14-.22.3-.28.48-.28.3 0 .62.24.62.54 0 .18 0 .22-.38.66-.92 1.08-2.26 1.6-3.66 1.6-3.22 0-5.02-2.64-5.02-5.66 0-3 1.8-5.64 5.02-5.64s5.02 2.66 5.02 5.64c0 .3-.28.58-.56.58zm-4.46-5.08c-2.4 0-3.66 1.84-3.84 3.94h7.7c-.18-2.28-1.66-3.94-3.86-3.94zm8.438 3.26c-.64 0-1.16-.5-1.16-1.14s.52-1.14 1.16-1.14c.62 0 1.12.5 1.12 1.14s-.5 1.14-1.12 1.14zm0 6.562c-.64 0-1.16-.5-1.16-1.14s.52-1.14 1.16-1.14c.62 0 1.12.5 1.12 1.14s-.5 1.14-1.12 1.14zm23.082-13.523l-3.52 13.103a.55.55 0 0 1-.56.42c-.24 0-.48-.14-.54-.42l-3-11.083-2.98 11.083c-.06.28-.3.42-.54.42-.26 0-.48-.14-.56-.42l-3.52-13.103c-.02-.06-.02-.12-.02-.18a.58.58 0 0 1 .58-.58c.26 0 .46.14.52.44l3 11.082 2.98-11.082c.08-.28.3-.4.54-.4.26 0 .48.12.56.4l2.98 11.082 3-11.082c.08-.3.28-.44.52-.44a.58.58 0 0 1 .58.58c0 .06 0 .12-.02.18zm12.398 13.524h-.02c-.66 0-1.6-.36-1.98-1.56-.84 1.18-2.14 1.9-3.88 1.9-3.26 0-5.02-2.68-5.02-5.66 0-3.02 1.8-5.64 5.02-5.64 1.74 0 3.04.72 3.88 1.88v-.98c0-.32.26-.56.58-.56.28 0 .56.2.56.56v8.063c0 1.28 1.44.48 1.44 1.44a.55.55 0 0 1-.58.561zm-5.88-9.822c-2.36 0-3.88 1.9-3.88 4.5s1.52 4.52 3.88 4.52c2.38 0 3.88-1.92 3.88-4.52s-1.5-4.5-3.88-4.5z"/><use xlink:href="#E" x="101.42"/><path d="M940.62 1045.98c-.28 0-.58-.2-.58-.56v-5.84c0-1.9-1.52-3.42-3.42-3.42a3.42 3.42 0 0 0-3.421 3.421v5.84c0 .36-.3.56-.56.56-.28 0-.58-.2-.58-.56V1032.3c0-.36.3-.56.58-.56.26 0 .56.2.56.56v4.26c.84-.98 2.06-1.54 3.42-1.54a4.6 4.6 0 0 1 4.561 4.561v5.84c0 .36-.3.56-.56.56zm3.8-12.544c-.64 0-1.14-.5-1.14-1.14s.5-1.14 1.14-1.14 1.14.5 1.14 1.14-.5 1.14-1.14 1.14zm0 12.543c-.28 0-.58-.18-.58-.56v-9.502c0-.36.28-.56.58-.56.26 0 .56.18.56.56v9.502c0 .36-.26.56-.56.56z"/><use xlink:href="#G"/><path d="M964.16 1050.54c-1.7 0-4.102-.64-4.102-1.36 0-.32.26-.64.58-.64.22 0 .68.34 1.06.48.52.18 1.34.38 2.46.38 2.56 0 3.88-1.26 3.88-3.72v-1.4c-.88 1.06-2.14 1.7-3.88 1.7-3.16 0-5.02-2.24-5.02-5.32 0-3 1.8-5.64 5.02-5.64 1.74 0 3.04.72 3.88 1.88v-.96c0-.36.3-.56.58-.56.26 0 .56.2.56.56v9.742c0 3.18-1.9 4.86-5.02 4.86zm0-14.383c-2.36 0-3.88 1.9-3.88 4.5 0 2.58 1.42 4.18 3.88 4.18s3.88-1.6 3.88-4.18c0-2.6-1.5-4.5-3.88-4.5z"/><use xlink:href="#H"/><use xlink:href="#F" x="147.42"/><use xlink:href="#G" x="42.2"/><path d="M1012.7 1039.817h-4.86v5.6c0 .36-.3.56-.56.56-.28 0-.58-.2-.58-.56v-13.122c0-.3.28-.56.58-.56h5.4c2.26 0 4.06 1.8 4.06 4.02 0 2.26-1.8 4.062-4.04 4.062zm0-6.962h-4.86v5.82h4.84c1.62 0 2.92-1.28 2.92-2.9s-1.3-2.92-2.9-2.92z"/><use xlink:href="#F" x="188.82"/><use xlink:href="#E" x="210.28"/><use xlink:href="#H" x="68.9"/></g><linearGradient id="B" gradientUnits="userSpaceOnUse" x1="121.974" y1="454.851" x2="1055.936" y2="454.851"><stop offset="0" stop-color="#0052d4"/><stop offset=".259" stop-color="#255ce7"/><stop offset=".5" stop-color="#4364f7"/><stop offset=".514" stop-color="#4567f7"/><stop offset=".728" stop-color="#5c8ffa"/><stop offset=".897" stop-color="#6aa8fb"/><stop offset="1" stop-color="#6fb1fc"/></linearGradient><path d="M669.046 453.22H121.974v142.805h547.072V453.22zm386.89-139.543H255.322V456.48h800.614V313.677z" fill="url(#B)"/><defs><path id="C" d="M1040 1080H40c-22.09 0-40-17.91-40-40V40C0 17.91 17.91 0 40 0h1000c22.09 0 40 17.91 40 40v1000c0 22.09-17.91 40-40 40z"/><path id="D" d="M104.714 1045.51c-.633 0-1.267-.367-1.4-1.1-1.334 1.034-2.97 1.668-4.804 1.668-4.136 0-7.604-3.436-7.604-7.605v-9.24a1.37 1.37 0 0 1 1.4-1.435c.768 0 1.468.5 1.468 1.4v9.272c0 2.602 2.168 4.77 4.736 4.77 2.603 0 4.77-2.17 4.77-4.77v-9.24c0-1.034.667-1.468 1.4-1.468.768 0 1.435.5 1.435 1.435v14.9c0 .934-.667 1.4-1.4 1.4z"/><path id="E" d="M824.48 1046.358c-1.2 0-3.22-.42-3.92-1.58-.08-.12-.08-.22-.08-.3 0-.32.28-.6.58-.6.12 0 .32.1.44.28.72.88 2 1.06 2.98 1.06 1.94 0 2.92-.64 2.92-1.94 0-3.02-6.562-1.42-6.562-5.422 0-2.02 2.02-2.8 3.84-2.8 1.04 0 2.64.36 3.44 1.16.12.12.18.26.18.38a.65.65 0 0 1-.62.6.53.53 0 0 1-.38-.16c-.62-.6-1.74-.84-2.62-.84-1.76 0-2.7.68-2.7 1.66 0 2.8 6.562 1.32 6.562 5.422 0 2.28-2 3.08-4.06 3.08z"/><path id="F" d="M835.2 1046.318c-3.22 0-5.02-2.64-5.02-5.66 0-3 1.8-5.64 5.02-5.64s5.02 2.64 5.02 5.64c0 3.02-1.8 5.66-5.02 5.66zm0-10.162c-2.36 0-3.88 1.9-3.88 4.5s1.52 4.52 3.88 4.52c2.38 0 3.88-1.92 3.88-4.52s-1.5-4.5-3.88-4.5z"/><path id="G" d="M956.38 1045.98c-.28 0-.58-.2-.58-.56v-5.84c0-1.9-1.52-3.42-3.42-3.42a3.42 3.42 0 0 0-3.421 3.421v5.84c0 .36-.3.56-.56.56-.28 0-.58-.2-.58-.56v-9.502c0-.36.3-.56.58-.56.26 0 .56.2.56.56v.64c.9-.98 2.08-1.54 3.42-1.54a4.6 4.6 0 0 1 4.561 4.561v5.84c0 .36-.3.56-.56.56z"/><path id="H" d="M975.68 1045.98h-.62c-1.58 0-2.36-.78-2.36-2.34v-7.142h-1.02c-.36 0-.56-.3-.56-.58 0-.26.2-.56.56-.56h1.02v-3.06c0-.36.3-.56.58-.56s.56.2.56.56v3.06h1.84c.36 0 .56.3.56.56 0 .28-.2.58-.56.58h-1.84v7.142c0 .98.28 1.2 1.22 1.2h.62c.36 0 .56.3.56.58 0 .26-.2.56-.56.56z"/><path id="I" d="M757.16 259.716h-58.1c1.26 15.96 11.62 27.58 26.88 27.58 7.56 0 16.52-3.36 20.58-9.66.98-1.54 2.1-1.96 3.36-1.96 2.1 0 4.34 1.68 4.34 3.78 0 1.26 0 1.54-2.66 4.62-6.44 7.56-15.82 11.2-25.62 11.2-22.54 0-35.14-18.48-35.14-39.62 0-21 12.6-39.48 35.14-39.48s35.14 18.62 35.14 39.48c0 2.1-1.96 4.06-3.92 4.06zm-31.22-35.56c-16.8 0-25.62 12.88-26.88 27.58h53.9c-1.26-15.96-11.62-27.58-27.02-27.58z"/><path id="J" d="M860.755 292.896c-1.96 0-4.06-1.4-4.06-3.92v-40.88a23.84 23.84 0 0 0-23.94-23.939c-13.16 0-23.94 10.64-23.94 23.94v40.88c0 2.52-2.1 3.92-3.92 3.92-1.96 0-4.06-1.4-4.06-3.92v-66.5c0-2.52 2.1-3.92 4.06-3.92 1.82 0 3.92 1.4 3.92 3.92v4.48c6.3-6.86 14.56-10.78 23.94-10.78 17.36 0 31.92 14.42 31.92 31.92v40.88c0 2.52-2.1 3.92-3.92 3.92z"/><path id="K" d="M1045.133 223.735l-22.82 65.8c-.98 2.66-2.24 3.36-4.06 3.36-2.38 0-3.08-.84-3.92-3.36l-18.34-54.6-18.34 54.6c-.98 2.66-2.24 3.36-4.06 3.36s-3.22-1.12-3.92-3.36l-22.68-65.8c-.14-.42-.28-1.12-.28-1.54 0-2.24 2.24-3.64 4.06-3.64 1.4 0 3.08.7 3.64 2.66l19.18 55.44 18.34-54.74c.84-2.66 1.68-3.36 4.06-3.36 1.68 0 3.08.56 3.92 3.36l18.62 54.74 18.9-55.44c.7-1.96 2.1-2.66 3.64-2.66 2.1 0 4.34 1.4 4.34 3.78 0 .56-.14.98-.28 1.4z"/><path id="L" d="M380.84 336.056h-4.34c-3.36 0-6.16 2.8-6.16 6.02v11.48h10.5c2.66 0 3.92 2.1 3.92 3.92 0 1.96-1.4 4.06-3.92 4.06h-10.5v62.44c0 2.52-1.96 3.92-3.92 3.92s-3.92-1.26-3.92-3.92v-62.44h-9.66c-2.52 0-3.92-2.1-3.92-4.06 0-1.82 1.4-3.92 3.92-3.92h9.66v-11.48c0-7.7 6.3-13.86 13.86-13.86h4.48c2.52 0 4.06 1.96 4.06 4.06 0 1.96-1.4 3.78-4.06 3.78z"/><path id="M" d="M428.86 360.416c-13.16 0-23.94 10.64-23.94 23.94v39.62c0 2.52-2.1 3.92-3.92 3.92-1.96 0-4.06-1.4-4.06-3.92v-66.5c0-2.52 2.1-3.92 4.06-3.92 1.82 0 3.92 1.4 3.92 3.92v5.74c6.3-6.86 14.56-10.78 23.94-10.78 2.52 0 4.06 2.1 4.06 3.92 0 1.96-1.54 4.06-4.06 4.06z"/><path id="N" d="M445.8 340.116c-4.48 0-7.98-3.5-7.98-7.98s3.5-7.98 7.98-7.98 7.98 3.5 7.98 7.98-3.5 7.98-7.98 7.98zm0 87.78c-1.96 0-4.06-1.26-4.06-3.92v-66.5c0-2.52 1.96-3.92 4.06-3.92 1.82 0 3.92 1.26 3.92 3.92v66.5c0 2.52-1.82 3.92-3.92 3.92z"/><path id="O" d="M522.38 419.636c-6.16 6.86-14.7 10.64-25.06 10.64-22.54 0-35.14-18.48-35.14-39.62 0-21 12.6-39.48 35.14-39.48 10.36 0 18.9 3.78 25.06 10.64a3.71 3.71 0 0 1 1.12 2.66c0 2.1-1.96 4.2-4.06 4.2-.98 0-1.96-.42-2.94-1.4-4.62-5.18-11.06-8.12-19.18-8.12-16.52 0-27.16 13.3-27.16 31.5s10.64 31.64 27.16 31.64c8.12 0 14.56-3.08 19.18-8.12.98-.98 1.96-1.4 2.94-1.4 2.1 0 4.06 1.82 4.06 4.06 0 .98-.28 1.82-1.12 2.8z"/><path id="P" d="M606.378 427.896h-.14c-4.62 0-11.2-2.52-13.86-10.92-5.88 8.26-14.98 13.3-27.16 13.3-22.82 0-35.14-18.76-35.14-39.62 0-21.14 12.6-39.48 35.14-39.48 12.18 0 21.28 5.04 27.16 13.16v-6.86c0-2.24 1.82-3.92 4.06-3.92 1.96 0 3.92 1.4 3.92 3.92v56.42c0 8.96 10.08 3.36 10.08 10.08 0 1.82-1.26 3.92-4.06 3.92zm-41.16-68.74c-16.52 0-27.16 13.3-27.16 31.5s10.64 31.64 27.16 31.64c16.66 0 27.16-13.44 27.16-31.64s-10.5-31.5-27.16-31.5z"/><path id="Q" d="M937.193 430.275c-22.54 0-35.14-18.48-35.14-39.62 0-21 12.6-39.48 35.14-39.48s35.14 18.48 35.14 39.48c0 21.14-12.6 39.62-35.14 39.62zm0-71.12c-16.52 0-27.16 13.3-27.16 31.5s10.64 31.64 27.16 31.64c16.66 0 27.16-13.44 27.16-31.64s-10.5-31.5-27.16-31.5z"/><path id="R" d="M1041.912 427.896c-1.96 0-4.06-1.4-4.06-3.92v-40.88a23.84 23.84 0 0 0-23.939-23.939c-13.16 0-23.94 10.64-23.94 23.94v40.88c0 2.52-2.1 3.92-3.92 3.92-1.96 0-4.06-1.4-4.06-3.92v-66.5c0-2.52 2.1-3.92 4.06-3.92 1.82 0 3.92 1.4 3.92 3.92v4.48c6.3-6.86 14.56-10.78 23.94-10.78 17.36 0 31.92 14.42 31.92 31.92v40.88c0 2.52-2.1 3.92-3.92 3.92z"/><path id="S" d="M167.487 565.275c-12.18 0-21.28-5.04-27.16-13.3v36.26c0 2.52-2.1 4.06-3.92 4.06-1.96 0-4.06-1.54-4.06-4.06v-95.76c0-2.52 2.1-3.92 4.06-3.92 1.82 0 3.92 1.4 3.92 3.92v6.86c5.88-8.12 14.98-13.16 27.16-13.16 22.54 0 35.14 18.48 35.14 39.48 0 21.14-12.6 39.62-35.14 39.62zm0-71.12c-16.66 0-27.16 13.3-27.16 31.5s10.5 31.64 27.16 31.64 27.16-13.44 27.16-31.64-10.5-31.5-27.16-31.5z"/><path id="T" d="M324.145 565.556c-8.4 0-22.54-2.94-27.44-11.06-.56-.84-.56-1.54-.56-2.1 0-2.24 1.96-4.2 4.06-4.2.84 0 2.24.7 3.08 1.96 5.04 6.16 14 7.42 20.86 7.42 13.58 0 20.44-4.48 20.44-13.58 0-21.14-45.92-9.94-45.92-37.94 0-14.14 14.14-19.6 26.88-19.6 7.28 0 18.48 2.52 24.08 8.12.84.84 1.26 1.82 1.26 2.66 0 2.1-2.1 4.2-4.34 4.2-.84 0-1.82-.28-2.66-1.12-4.34-4.2-12.18-5.88-18.34-5.88-12.32 0-18.9 4.76-18.9 11.62 0 19.6 45.92 9.24 45.92 37.94 0 15.96-14 21.56-28.42 21.56z"/><path id="U" d="M655.243 562.896h-4.34c-11.06 0-16.52-5.46-16.52-16.38v-49.98h-7.14c-2.52 0-3.92-2.1-3.92-4.06 0-1.82 1.4-3.92 3.92-3.92h7.14v-21.42c0-2.52 2.1-3.92 4.06-3.92s3.92 1.4 3.92 3.92v21.42h12.88c2.52 0 3.92 2.1 3.92 3.92 0 1.96-1.4 4.06-3.92 4.06h-12.88v49.98c0 6.86 1.96 8.4 8.54 8.4h4.34c2.52 0 3.92 2.1 3.92 4.06 0 1.82-1.4 3.92-3.92 3.92z"/><path id="V" d="M788.94 563.735c-7.56 0-13.86-7-13.86-14.84v-81.76c0-2.52 2.1-3.92 4.06-3.92 1.82 0 3.92 1.4 3.92 3.92v81.76c0 8.96 9.94 3.78 9.94 10.08 0 2.38-1.68 4.76-4.06 4.76z"/><path id="W" d="M240.57 629.016l-27.58 65.66c-.84 1.82-2.1 3.22-3.92 3.22s-3.22-1.4-4.06-3.22l-27.58-65.52c-.28-.7-.28-1.26-.28-1.82 0-2.24 1.96-3.78 4.06-3.78 1.26 0 2.8.56 3.5 2.38l24.36 57.54 24.22-57.54c.84-1.82 2.24-2.52 3.64-2.52 2.1 0 4.06 1.54 4.06 3.78 0 .42 0 1.12-.42 1.82z"/><path id="X" d="M390.92 969.296c-9.38 0-20.02-5.04-25.2-13.3-.56-.84-.7-1.54-.7-2.24 0-2.24 2.1-4.06 4.2-4.06s2.24 1.12 4.34 3.36c4.48 5.32 10.36 8.26 17.36 8.26 12.32 0 23.38-10.64 23.38-25.34 0-14.84-11.06-25.48-23.38-25.48-9.66 0-15.96 6.16-18.48 9.94-.84 1.4-2.1 1.96-3.78 1.96-2.38 0-4.06-1.54-4.06-4.2v-46.06c0-2.38 1.82-3.92 3.92-3.92h46.76c2.8 0 4.2 1.96 4.2 3.92s-1.4 3.92-4.2 3.92h-42.7v32.76c4.48-3.64 10.5-6.3 18.34-6.3 17.22 0 31.36 14.56 31.36 33.46 0 18.62-14.14 33.32-31.36 33.32z"/></defs><clipPath id="Y"><use xlink:href="#C"/></clipPath><g clip-path="url(#Y)"><path d="M162.396-90.538l-1.38.32h.708l.672-.32zm-1.38.32h-1.345l-.602.32 1.947-.32zm6.123-.32l-2.017.32h.672l-1.7.354.32-.354-1.097.248-.248-.248-.885.354h-.142l-2.017.32 1.7-.32-4.105.672.708-.354 1.7-.32-2.725.32-1.486.177 1.133-.177 1.91-.32h-1.91l-.672.32h-1.026l-.32.177-.354.035v-.212l-.637.354h-1.416l-.495.283 1.062-.177-1.24.248.142-.07-.283.035-.142.035h-1.062l-1.38.32h-.672l-1.7.354h1.026l2.053-.354 1.097-.212-.248.106v.035h-.035l-.495.07h-.32l-.106.07h-.035l-1.91.283-1.7.32 1.026-.32-1.168.212.495-.212h-.354l-2.053.32h.354l-.354.177 1.026-.177h.354l-1.557.283.177-.106-.99.177h.354l-1.593.283.53-.283-1.7.354-1.416.32h-.283l-.212.106-1.133.248-.07.035-1.274.283h-.708l-.248.106-2.796.602h.354l-1.026.32h-.354l-.32.354h-.708l-2.017.32-1.38.354-1.7.354-.672.32 1.7-.32-1.026.32 2.407-.672-.708.354-.99.32-5.45 2.053-2.725.32h1.38l-5.804 1.7-2.017 1.026h-.672l-2.407.672 1.593-.248h.035l.425-.07-.85.248-.142.035-2.76.743v.32l1.7-.672h1.026l-2.37.672h1.345l-2.37.354.354.32h-.354l-2.37 1.38.354-1.026-1.38.354-1.7.99h1.38l-4.424 1.7h.672l-1.593.32-1.805 1.062-.672-.354-2.37.672 2.7-.32-1.7.32-.672.708-3.22.672 2.548-.672-1.026.32 1.7-.32-.672-.708-.354.708-.32-.354-2.796 1.203-.602.142 1.345.354-2.725.354v.672l-2.017.32.248.248 3.15-.92v.354l-7.15 2.017-1.203.92-.495.106h.672l-1.982.99-1.062.39-2.053 1.345 3.398-1.345 2.053-1.026-2.725 2.017v-.672l-.32.354-2.407.672h1.38l-1.7.354v.32l-1.7.354.672.32-1.345.354h.672l-1.026.354.354.32-2.407 1.026 2.053-.672-3.044 1.345v.354l-1.7 1.026 1.345-.354-2.053.672 1.7-.32-1.7.672h.354l-1.026.32h1.026l-1.7.354h1.026l-1.7 1.345 4.424-.99-3.08 1.345 2.053-.672-2.725 1.026 1.7-.354-1.345 1.026 1.345-.672-2.37 1.7 2.017-1.026.354.672.354-1.345h2.017v-.708l2.053-.672h.32v-.672l1.7-.354-.32-.32h1.7l-.672-.354 2.017-.672 1.026-1.026.354.354.32-1.026 2.053-.354 1.345-.99v.672l1.026-1.026.354.354v-.354l1.7-.354v-.672l.672.354 1.7-1.026-.672-.354h1.7l2.37-2.017.32.32 2.053-.672.672-.32 2.37-.354 3.752-1.7.354.354-1.203.495-.495.495 3.044-.672.672-.672 1.026.354 7.468-3.08 2.37-.32 2.053-1.38-1.026 1.026h2.37l1.026-.672v.32l5.77-.672 10.193-2.725h.708l-3.398-.672-3.752.672-.672.354-.354-.354h-.672l4.07-.672h-3.398l4.07-1.345.708.32 2.7-.32-2.7-.672h2.017l-.32-.708 2.37 1.026-1.38 1.7 2.725-.672-1.345.672h1.345l.672-1.026 2.053-.672h-1.026l1.7-.672-2.017.354 2.017-.708-1.026-.672-2.017.672 1.026-.672h1.345V-79l-2.37.672V-79l3.716-.354h-2.7l1.7-.32v-.354l.32.354 2.37-.354.354-.672v.672l1.097-.248.602.602 3.044-.354 1.38-.32-1.026-.354-1.7.354.672-.354 2.37-1.026 1.38.672 1.7-.32h-1.026l-.672-.354 1.7-.672h.32l-.672-.354 1.38.354h.32l2.053-.672h-.672l-1.38-.354 2.725-.32h-1.7l.672-.708h4.778l1.345-.672h-1.026l-.672-.32h2.37l-.32-.354h-.354l-2.053.354 1.7-.708 4.105-.672 5.096-1.026h-3.08l1.026-.32h1.7l.106-.106 2.938-.248h-2.7l4.743-.32 3.398-.708h-2.053l-2.37.354H170.9l-5.77.672 6.44-1.026-5.096.354 3.044-.354h-4.743l2.053-.32h3.398l3.716-.354h-2.017l1.7-.32-6.123.32 2.725-.32-3.752.32.673-.318zm-26.51 10.51l-2.017.354 2.725.32-.708-.672zm-14.263 5.096l4.07-.32.708-.708-4.778 1.026zm-28.703 8.67l.177-.177-.32.248.142-.07zm-.142.07l-1.062.425v.354l1.062-.78zm-13.024-1.026l-.32.106h.39l-.07-.106zm-.32.106h-.602l-.248.248.85-.248zm-.85.248l-1.45.425 1.345-.32.106-.106zm160.927-22.332l4.424 1.026 1.7.32-.32-.32-2.407-.354-3.398-.672zm6.123 1.345h-1.026l2.053.354h.354l-1.026-.354h-.354zm-25.128-.99l-.672.672 2.017-.354-1.345-.32zm7.822 0l-1.026.32h-.354l1.7.354-.32-.672zm-32.277.32v.354h-1.7l.99.672 1.38-.354h1.7l-1.7.354 3.716.354 2.725-.708-2.37-.32h-1.345l-.354-.354-.354.672-2.017-.283v-.035h-.354l-.32-.354zm49.584.354l2.053.672 3.716.672h1.026l-1.026-.32h-.46l-1.45-.32-.106-.035h-.07l-1.628-.354-1.7-.32 1.026.32-1.38-.32zm-54.68.32l-3.398.354 2.017 1.345 2.37-.672v.354l1.38-.354-1.7-1.026-.672.708-1.7-.354 1.7-.354zm2.37 1.026l1.026.354-4.424.672.32.354 3.398-.354-2.37.354 1.38.32-2.407-.32 3.398 1.345 2.407-2.37h.99l1.38-.354-1.7-.32-1.7-.354-.672.354-1.026-.708v1.026zm3.716.354l1.026.32.672-.32h-1.7zm1.026.32l.354 1.026 1.7-.32.32.32 1.38-.32-1.7-.708h-2.053zm51.99-1.345l2.017.495.177.035 4.955 1.168-2.407-.672-1.7-.354-3.044-.672zm8.848 2.053l6.087 1.345h-.32l1.24.354h-.212l.637.106.708.212-1.345-.32h-.354l1.026.32 1.345 1.026 2.37.672-1.7-.32 5.804 1.7-2.725.32 5.415 1.7 4.07 1.026h-.672l-1.593-.248-.106-.106h-.672l-2.725-.672v.354l2.053.672h-1.84l-5.31-1.7 3.08 1.026 1.7 1.345 4.424 1.38 2.37.99 3.044 1.7 2.053-.32 3.044.672 3.398 1.345 1.38 1.026 2.37.672-2.725-.672-5.77-2.37-1.026.354 4.424 2.017 3.044 3.398-5.415-1.026 2.37-.672-4.07-3.044-3.398-1.026-4.105-2.053-3.716-1.345-3.398-1.026-4.07-2.017-2.053-.354h-2.053l4.105 2.053.32.99 4.07 1.7 2.053 1.026h1.345l3.752 1.026 2.053 1.7-7.503-2.053h1.38l-9.874-1.345v.672l4.105 1.38h-1.38l.354.32.672.672-3.398-1.345-1.026.672h-3.044l.672 1.026h-1.345l-1.38 1.026 5.77 4.424h3.752l-3.752.32-6.087-4.743 1.7-1.026h-1.38l-1.345-1.345 1.026-.354h-1.026l-.354 1.345-1.026-.672-4.39 1.38 1.7.672h-2.053l1.345 1.345-2.7.354-3.398-1.38 2.017-.672-1.026-.672-6.795-1.026 2.407.672 5.096 4.778-4.778-1.026-2.017 1.026-.708.672-.32.354 1.345.99 2.053 1.38-1.026-.354-3.752-.32-.672.32.354-.672-3.752-.672v1.026l4.07.99-.672 1.38-6.795-1.7-2.37-2.053.672-1.026-4.424-.99 1.026-.354-4.424-1.345 15.997 2.017.99-.672 1.38-1.345-4.07-1.7-.708-.354-10.193-2.37h-3.044l-.354 1.026v-1.026h-2.37l-.672-.672h2.053l-2.407-.354-.99.672-2.053-.672-1.026.354-1.7-.708-.672-.32 3.044.32 1.026-.672-4.07-.672-1.345.672.672-1.026-1.7-.32-.354 1.345h-1.026l-.32-1.026-1.7 1.7.672-1.345-2.37-.354-1.38 1.7h-.32l-3.398-.32.672.32.672.708-1.7-.708-2.017 1.38h-.354l.354-.354.32-1.026-.672.708-.354.672v-1.026l-1.345.354 1.026.99-2.725-.672-.672 1.7-2.37.354h-.354l.354 1.345-1.026-1.026-1.38.354 1.026.354H194l2.017.672-3.044.672 2.37.354-4.424.32 1.026.354-1.876 1.24-1.168.106.99.672-.99-.32-1.7 1.7 2.017-.354-3.716 1.026h2.017l-2.017.354.99.672-1.7.32-.32-.672-3.752 2.37h2.053l2.37-1.345-1.345 1.7-2.725.354v-.708l-3.08.354v1.7l-1.7-.672 1.38 1.026-1.628-.32-4.14.32.99.672-.672.672-1.345-.354.672.354-2.725-.354v.708l-.672.99h1.7l-2.053.354h1.7l-1.345.672 3.398-.32.672-.354 1.38.672.672-1.026.32.708-2.017.99-.672-.672-4.424.354 1.345.32h-1.7l.672.708 1.38-.354-2.053 1.026.672.672 1.026-.672-1.026 1.345 4.778-1.7-6.123 2.37 1.026 1.026 2.725-1.026-2.407 1.38h2.053l-1.026.672-1.7-.672-.32 1.345 3.398 1.7 3.398-.32 4.07-2.725h2.37l1.345-2.37.708 4.39 1.345-.32-.672 1.345 1.345-1.026-1.026 1.7 3.08 3.398-1.38.708.708 2.7h4.07l1.7-2.017h3.398l2.725-3.752-.708-3.044h1.38l-2.053-.354 3.752-.672.32-1.026.708 1.026 2.017-1.345-1.7-.354 2.725-.672-3.044-2.37-2.053-.354 1.345-5.77 1.026.672 4.424-2.053 1.345-.32 2.053-1.7-1.345-2.053 1.345.354-.354-1.38 1.7.708.354-1.026 4.07.32 2.725 1.7-9.167 5.45 2.37 3.044-.672 2.407 3.044.99 1.38-.32-.354 1.345 14.263-2.37.354 1.026 5.096 1.026-5.77.32-.354 1.026-6.123-.672-5.415 1.345.99 2.37h2.407v3.08l-2.053 1.026-3.398-2.407-2.37.354-1.7 3.044 1.345 4.778h-2.37l1.345-2.37-1.345 2.017-1.7.354v1.026h1.345l-.99.32-2.053 1.026 1.345-1.345-3.044.99-2.725-1.7-10.193 2.725-.32 1.38-4.778-2.725-6.795 1.345 1.026-1.345-3.044.32-2.053-1.7 1.026-2.37 4.424-2.37-2.407-.672 2.053-3.08-6.123 1.7-2.37 7.15 1.026-.354 1.026 1.38-1.7.32 3.398 2.407-3.398-1.026-.708 1.7-1.345-1.026-3.044.354.99.99-4.743-.32-2.053 1.026 1.026 1.345-2.017 1.026-1.026-2.053-3.08 3.08 1.7.99-4.07.354 2.37.672-9.166 1.7-.32 2.37-1.38.708-5.096 2.37-6.123-1.7.708 4.07-4.778.354-.672-1.38-6.123 1.38 1.7.99-1.7-.32.354 1.7 6.123 1.345.672 3.398 2.37.672-1.345 2.407.32.672-4.424 7.822h-19.36l-1.7-1.38-6.795 3.08 1.38 2.7-4.424 8.848-4.424 5.45 2.37-.708-2.017 2.407h1.345l-2.37 5.77 8.494-1.026 3.398 5.45 5.415-3.08h9.202L121.27 27l3.08-.32 1.345-3.08 2.37-1.026 1.026-.672-.672-.672-.672-1.026.672-2.37 1.345-1.345 4.424-4.105 9.52-3.398V5.268l1.7-1.7 3.044-1.026 7.468 2.053 10.9-5.45 5.096 1.7 2.7 6.123 18.015 9.52 2.053 5.096-2.37 3.398 1.7.32 2.37-3.716 2.37-1.026-2.725-2.725 1.38-3.044 4.07.672 2.017 2.017.708-1.345L194 10.683l.672-1.7-5.45-.672-4.424-5.77-4.39-2.37-.708-4.778 5.45-1.345L186.18-2.2l2.725-2.053L194 2.897l3.716.32 3.08 2.053-2.725-.672 6.795 2.017 3.398 2.725-1.026 5.77 3.044 2.725 3.08 3.044 1.7-.32-1.7 1.026 1.7 2.017 8.813.672-.99 1.026-6.477-1.345-1.026 1.7 2.725 4.424 1.7-1.026 1.7 2.725.354-1.7 2.725 1.7L222.173 27l3.398.354-2.37-1.7 2.053-.672 2.37 1.345v-2.053l-6.795-2.7 2.053-.708-.354-1.7 1.7 1.026-3.752-5.415 1.38-.708 4.424 2.725-1.026-1.7 2.725 1.026-2.725-2.37 5.415-1.026 6.795 1.345-2.017 2.407 4.743-3.752h5.77l-6.087-5.77h-1.38l4.07-4.07v-5.804l.708 1.026 2.017-.672-.672-3.398.672.672 2.37-1.7.354-1.7 4.07-1.345 2.053 1.345-3.398-.32 2.017.672-.672.672 6.477.354.672 1.345-3.752 1.345h2.37l1.7 3.08L261.954-.5l8.494-3.752h-4.105l-3.398-3.044 3.398 3.398-2.017-.354-2.37-2.053 1.7-2.37v1.7l2.37-2.017L276.89-11.4l-1.7 2.407-3.044-.354 4.07 2.37-1.38-.672-1.345 3.398-3.044.672 14.263 6.477 6.123 2.7 2.7 3.752-.672 1.7-3.716 2.053h-6.795l-7.822-1.38-6.477-3.398-6.087.354-7.503 3.716-8.14-.672.672 1.7 3.08.354-4.105.32.354 1.026h-8.848l-2.017 2.053-.354 1.7 3.752-.354-.672 3.752 2.017 1.026-2.017.32-1.026-1.345-.672 1.7 4.39 1.026-.99 1.345 3.044 1.7-1.345 1.345 4.39-.32-3.716 1.7 4.424-1.026 5.415 3.044h3.08l.32-3.044h2.37l7.503 3.752 4.743-1.026 2.053-2.37 3.044.99 3.044-.99-.32 5.096 2.017 4.743L275.2 54.18l-9.167 1.38-1.026-2.053-4.07-.354-8.176 3.398-9.485-2.7-8.176-.354-1.345-2.053-7.468-.99-1.026-2.053-6.123-1.345-7.15 3.398v6.087h-.32l-4.778 2.407-5.096-2.725-9.485-2.37-2.407-4.424-8.14-2.37-4.743.32-9.202-4.07-.672-2.053 5.45-4.39-2.725-4.105 2.725-4.07-2.725 1.7-2.725-2.725-7.822 2.407-6.087-1.38-4.778 2.053-5.77-1.38-12.246 2.053-5.096 2.725-3.716.672-5.096 2.725h-3.398l-.354-1.7-7.114 1.026-2.407-3.08-2.017.672-5.45 7.822-11.892 6.477-3.716 5.096-1.026 6.087-.354.354-2.725 3.398-6.795 4.743-6.087 1.38-4.424 6.123-4.07 2.37L51.3 85.43l-4.707 3.822L39.41 99.73l-1.7 4.743.99-1.7 2.053 4.743-2.37 4.424.672 8.176-4.07 10.51-4.778 4.778 3.752 4.39-.354 2.725 4.105-.672-3.398 1.345-1.38-.99-1.026 4.39h2.407l-2.407 1.026 3.398.354-1.7 1.345 2.053.354-.672 1.345 4.743-1.345-2.725 1.026 2.053.99-2.37 1.38 1.026 1.7 1.345-.672-.672 1.345 1.7-1.026.672 4.778 2.053.99 2.017 1.026-1.026 1.7 1.7.672.354 4.424 1.7-.32-2.37.672 3.716 3.716-.32 2.053 5.77 3.044 11.22 10.547 5.77 2.37 6.795-3.398 10.547-1.345 9.84 2.725 10.193-4.778 7.15-2.725 12.564-2.7-2.053 1.345 5.096.354 3.398 3.044 1.7-1.026-1.7 1.38 2.37.32-1.7.354.708 1.026 1.7-1.026-1.7 2.017 3.398 4.778 3.716-.354v-1.345l.672 1.345-.32-1.7 1.026 1.7.672-2.017 1.345 1.345 4.778-.354-.354-2.017 1.7 2.37 1.7-1.345 1.7 4.07 2.725-.672.672 1.345h-1.345l2.017 4.07-3.398 10.193 2.053.354-.354 3.398-1.7-.354 3.398 1.7-2.37.672-1.026-1.345-1.026 5.45h-2.37l5.096 9.166 11.22 10.865 2.37 6.795 2.725 1.345-2.37.708 6.123 12.2-2.053 3.398 2.37 4.778 2.37 5.415-.99 6.477-5.804 6.087-3.716 12.6.672 10.865 13.944 22.757 2.37 18.333 10.865 17.342 4.743 7.822.354 3.716-2.053 1.38 2.407 6.44 1.7-1.026 5.096 3.398 11.538-3.716 9.84 1.026 9.874-2.725 14.617-10.193 4.743-6.123 2.053-2.37 5.415-4.424 4.424-11.538-.672.99-1.38-1.7 14.97-8.813 1.345-9.52-3.044-8.14.32-4.424 1.026 1.026 7.468-5.096 3.08-5.096 15.29-7.15.672-1.345 4.743-6.795-.99-9.874.99-1.026-.672-7.468 1.7-3.398-3.044-2.37-1.38-1.026v-.32l-1.345-8.848 1.026-2.37h-1.38l2.053-4.424-3.752-5.096 2.407-7.15 4.07-8.494 1.026-2.017 4.07-2.37-1.026-1.7h2.725l10.865-14.298 11.538-9.166 8.494-10.865 11.22-26.155v-3.08l-.32-1.7 2.37-.672h-1.7l.32-7.114-2.37-1.026-5.415 3.398-9.202 1.026-4.07 2.37-3.044-1.026-5.45 2.725-7.114-6.477-3.08.354 4.07-2.37-.672-2.37-11.22-11.22-4.743-1.7-1.026-1.7-1.026-1.026-.32 2.053-7.15-15.29-6.123-4.105-2.7-11.538.99.672-2.7-5.096-6.123-4.424-1.7-4.743h1.345l-3.398-2.725-9.167-15.962-5.096-5.45-1.345-4.39 4.39 6.44 5.096 3.752 2.053-8.176-1.026 6.477 3.08.32 11.184 13.59 1.7 4.07 5.096 2.725 4.105 6.795 1.345 6.477 8.14 6.795 10.9 15.29.672 7.786 5.415 13.272 7.15-.354 2.37-3.398 13.272-3.398 2.37-3.044 11.538-5.096.672-4.424 9.874-2.725.672-4.07 3.752-.672.672-4.07 3.716-1.38-1.345-6.123 1.026-2.017 1.345 1.026 2.37-8.848-5.77-6.44-6.123-2.053-3.044-2.725-2.725-5.415-.32-3.398-6.123 10.51-5.77-.32-1.7 1.345-3.752-1.7-1.026-7.822-2.37-.32.672 6.087-4.742-6.087v-3.08l-6.477-4.743-5.415-8.176h-1.7l1.7-.99-1.38-2.053-.32-.354 3.716.354-.32-1.7 3.044 1.7 2.053-.672.672.672 7.468 9.84 4.424 1.38 6.44 4.424 4.424.99 5.77-3.398 4.424 6.795 10.547 2.053 6.44 1.7 14.617-3.044 2.053 3.716 2.017.354 2.053 4.07h.672l-.495-6.3-.177-1.84-4.07-6.477 4.07 6.123.177 2.194.495 5.273 1.026 1.026h1.026l.32 1.7 1.026-1.345-.354 1.7 3.398 3.398 3.398-.708v2.053l-3.398 1.345 8.176 7.822 3.044-2.37-1.345-5.77 1.7.32-.672 1.38.672 1.7h1.026l-.354 1.7 2.053 2.725.32 4.743 7.468 19.04 11.892 25.482 2.053 6.087 1.7 5.804 3.044 4.39 1.38-1.7v-3.398l2.017-1.345-.672-1.026v-2.725l.354-1.345 1.345-.354-1.7-7.114v-8.494l-3.044-9.167v-3.08l1.345-.32v-2.725l2.053-1.38-.672-2.7 1.7-6.477v-5.415l1.7-2.725-.354-3.752-1.345-3.044.99-2.053-.672-2.37 1.7 3.044-.32-2.37 1.345 2.37-.672-2.37.672 1.7v-1.7l.672 1.026-.672-2.725 1.345 3.08-.99-4.105 1.345 3.08v-.672l-1.345-3.08h.99l6.477 12.564-.354-1.7.672 2.053 1.38 1.026 1.345 3.044 3.398 9.167 2.053 8.176v-1.7l.318 2.37v-1.345l1.026 1.7-.32-2.053.672 2.053-.354-2.725.354-.672-.672-2.053.672 1.7v-1.7l-1.38-3.752 2.053 5.096.354-.32 2.37 8.813 2.017 6.795-.318-2.017 1.7 5.77 1.026 5.096.318 1.026.672 5.096.708 3.716v-1.7l.32 1.7 1.026 9.52.354-1.026 1.7 7.468v.035l.035.106.283 1.24v.672l1.38 11.892.99 7.822 1.38 8.494v-2.053l.318 1.7-.672-7.786-.672-9.202-.354-4.39-1.7-7.822-.672-1.7-1.345-8.494-.672-2.725h-.354l-.672-3.752-.354-2.017-1.345-9.167v-.708l-.106-.283v-.035l-.248-1.38-1.026-3.716.354-1.026 1.026 4.424.32-.354 1.026 2.725 1.45 5.804.602 3.044v-1.026l1.026 3.716-.708-3.044-.85-4.743.85 4.07-1.7-8.494-.743-3.114-2.654-10.157-.248-1.663-.248-.92-.496-1.486-1.3-4.247.496 1.3-.566-2.83-.32-.354-3.398-10.51-1.7-4.778-.708-2.017-.672-2.37v.32l-.39-.99-.956-2.725.318.99-.672-1.7-.212-.53.035.212-.496-1.026.354.354-.354-.708-.956-2.407-.07-.283.354.672-1.45-3.15-.248-.602.07.283.142.39.035.177.035.07.035.106.142.212.885 2.16-.672-1.345-.672-1.7.248.496-.602-1.522-.672-1.345-.672-2.053-1.026-1.7.672 1.026-1.345-3.08-.672-.99v-.354l-1.026-1.7-.672-2.053v.354l-1.026-2.053.672 1.026-1.7-3.398-1.026-1.7v-.32l-1.026-1.7-.672-1.38-.32-.32-1.38-2.725-.32-.354v-.672l-1.026-2.053-.354-.32-1.026-2.053.708 1.7-1.026-1.7-.637-1.274.637.956-1.38-2.725-.32-.32v-.035l-.142-.106-.212-.566-.32-.495v-.177h-.106l-.92-1.38.46.814-.46-.46v-.672l-.354-.354-.32-.672-.354-.354-.354-.672-.32-.32-.672-1.38-.354-.32-.354-.708-.142-.142-1.876-3.256-.354-.32v-.035l-.32-.637-.354-.354-.354-.672-.672-.672-.32-.708-.354-.32-.672-1.38-.354-.32-.672-1.38-.672-.32-.672-1.38-.354-.32-.672-1.38-.672-.32-.354-1.026-1.026-1.345-2.725-3.398-.32-.708-.354-.32-.672-1.38-.672-.32-.354-.672-.32-.354-.354-.672-1.026-1.026-.32-.672-1.026-1.026-.354-.637-2.017-2.407v-.354l-2.407-2.725-.99-1.026-3.08-3.716-.672-.672-.354-.708-.99-.99-.354-.708-.672-.32-.354-.672-.672-.708-.354-.672-.672-.32-.32-.708-.708-.32-.32-.672-.672-.708-.708-.32-.32-.672-1.7-1.7-.354-.708-.672-.32-.354-.672-.672-.354-.32-.672-.708-.672-.672-.354-.32-.672-.708-.354-.32-.672-1.7-1.7-.672-.354-.354-.672-1.7-1.7-.672-.32-.354-.708-.672-.32-2.725-2.725-.672-.354-.354-.672-.672-.32-1.7-1.7-.672-.354-.354-.672-.672-.354-1.7-1.7-.672-.32-.354-.708-.672-.32-1.7-1.7-1.345-.672h.32l-.32-.354h-.177l-.177-.354-.32-.142v-.177h-.354l-1.345-1.345v-.035l-.354-.32-1.345-.672-.354-.708-.672-.32-1.026-1.026-.672-.354.672.708-1.026-.708-.672-.672-.354-.32-1.133-.885.92.672-.78-.814-.708-.354.283.283-1.628-1.31-1.345-1.097-.425-.283-.602-.32-.07-.142-.283-.177-.39-.39-.92-.602 1.982 1.663-2.37-1.7-.672-.354h.354l-.885-.602-1.168-.743.354.354-3.752-2.796-4.318-3.044-.425-.248v.283l1.734 1.203-2.088-1.203-.354-.672.708.39v-.035l.425.283 1.274.743-.708-.708-2.017-.99-.354-.708-2.725-1.345-.672-.672-.672-.354-.354-.32-1.345-.708-.672-.672-2.725-1.345-1.026-1.026-2.725-1.345-.177-.106-.035-.035-1.805-.885-.32-.32 2.124 1.203-2.23-1.3-.602-.602-2.83-1.416-1.593-.956.92.602-.566-.283-1.38-.672-.32-.32-2.053-1.026-.32-.354-2.053-1.026-.354-.32-1.345-.672h-.672l-.354-.354-2.725-1.345-.32-.354-2.053-1.026h-.32l-1.38-.672-4.742-2.37h-.672l-.708-.354-.32-.32-4.07-2.053h-.708l-3.398-1.7h-.672l-2.725-1.345h-.672l-2.725-1.38h-.672l-2.725-1.345h-.672l-2.017-1.026h-.708l-1.345-.672h-.672v-.354h-.672l-1.38-.672h-.672l-1.345-.672h-.708l-1.345-.672h-.672l-.177-.07.496.07-.885-.283-.354-.142-.708-.248-.743-.354h-.354l-1.168-.39-.53-.283h-.672l-.672-.354h-.495l.814.354-.92-.354h-.106l-.354-.177-1.3-.495h-.354l-.85-.283 1.168.283-1.593-.46.248.106-1.345-.32-1.38-.354 1.7.354-.354-.142.425.07-.177-.07-.637-.177-.956-.39.177.177-6.618-1.876-3.08-.672-2.548-.602-.142-.07h-.177l-1.522-.354-.708-.32h-.99l-1.38-.354-2.017-.318zm20.775 5.026l.142.07h.142l-.283-.07zm.142.07h-.212l.78.212-.566-.212zm2.16.672l-1.7-.672h-.283l1.982.672zm1.345.495l.46.177h.106l-1.557-.672.99.495zm82.605 39.604l3.044 2.3 4.566 3.185 1.45.885-.92-.602-2.83-2.088-.566-.283-.106-.212-1.522-1.133-.743-.354-.602-.602-.07-.106-.106-.035-.602-.283-.32-.354-.672-.32zm10.122 7.078l.566.39-.177-.354-.672-.32c0 0 .283.283.283.283zm1.77 1.3l.637.39-.32-.283-.495-.283.177.177zM482.8 99.73l.07.283.602 1.416-.672-1.7zm.07.283l-.177-.39.212.566-.035-.177zm13.767 44.842l.566 2.053-.142-.637-1.026-4.07.602 2.654zm2.442 11.61l.39 2.017h.32l-.354-1.345v1.026l-.354-1.7zm.708 3.716v-.672l-.283-.814.283 1.486zm0 0l.92 5.627-.248-2.548-.672-3.08zm.92 5.627l.07.85v-.354l-.07-.495zM479.72 111.94h-.672l1.345 2.37-.672-2.37zM46.593 89.253l.283-.425-1.026 1.026.743-.602zM176.057-58.58l.602-.035-2.725-.354 2.124.39zm76.694-26.2l-.672 1.026h-3.044v.32l-1.38 1.026 2.725.672-.672.672.32.035-.672.672h3.08l-1.026.672h3.398l-2.053-.672 1.7.32-1.7-.672 1.7.354-1.7-.708 1.38.354-2.053-.672h1.7l-.32-.354-.708-1.026 2.725-.99-2.725-1.026zm-.32 5.096l-1.7.32 1.345.354-1.026.354h2.053l-.672 1.345 1.7.672 2.017-.32 3.08 1.345 5.096.354-7.15-2.053-2.017-1.345-.354-.708-2.37-.32zm-98.213-3.08l-2.017.708h1.7l.32-.708zm123.023.354l1.345.354 1.7.672h.354l.672.32 2.017.708-3.044-1.026h-.672l-.354-.354h-.32l-1.7-.672zM147.78-81.37l-1.345.32h1.7l-.354-.32zm-5.45 1.026l1.7.32-1.84-.283a365.8 365.8 0 0 1 .142-.035zm127.093.32l-1.026.354 1.345.32h.708l-1.026-.672zm-127.765.672L139.64-79h-1.026l-.672.672 1.345.354.92-.92 1.45.248v-.708zM108.352-79l-1.062.425.07-.07-.956.32h.248l-.566.177.92-.177 1.345-.672zm-2.37.672l-.956.354h-.07l-.248.142-1.45.53 1.026-.32-.672.32 1.026-.354.956-.32h-.283l.672-.354zm-.672.354l.602-.106.32-.212c0 0-.92.32-.92.32zm-1.7.672h-.672l-.743.354h-.283l-.78.32h-.248l-1.274.637h.07l.885-.283.99-.354h-.106l.248-.07-.142.07 1.026-.32 1.026-.354zm187.754-.885l.637.212h-.177l-.46-.212zm-10.334 1.168l5.38 1.416-3.08-.672-2.3-.743zm6.44.212l2.336.85 4.743 1.7 1.38.708.672-.354 2.37.672-3.044-.32-1.7-.708-1.38-.32-3.044-1.38 1.026.708-3.362-1.557zm-188.604.85l-.92.46 1.557-.46h-.637zm0 .354l-1.593.46-.212.106 1.805-.566zm-1.805.566l-1.593.46-.708.212v.035l-.32.07h.32l1.38-.32-.956.177 1.628-.53.248-.106zm-2.62.78l-1.7.708-2.37.672-2.407 1.026 1.38-.354-2.37.672h.672l.672-.32h.354l1.168-.495.85-.212 1.38-.672 1.345-.32 1.026-.708zm0 0l.32-.106v-.035l-.32.142zm.32-.142l.46-.177h-.46v.177zm.46-.177h.248l.672-.354.106-.035.78-.248h.07l-.637.283.814-.212.177-.106h-.177l.212-.07-.248.035-.035.035h-.39l-1.593.672zm-7.574 3.044l-3.752 1.38-5.096 2.017-.672.354-.354.32h.354l-2.23.956.53-.283 1.345-.672v-.32l-2.7 1.345v.354l-1.026.32-3.398 2.053 5.096-2.37-1.38 1.026 2.407-1.38-.354.354 1.345-.672h.354l1.345-.708h.708l1.24-.92 1.133-.425-2.37.672 1.7-.672.32-.354 2.017-.566 1.062-.425-2.053.672 1.7-.672-1.026.32-1.026.354 2.407-1.026-.708.354 1.7-.708h-.32l1.026-.32c0 0 .672-.354.672-.354zm-3.08 1.38l-.672.32 1.7-.672-1.026.354zm-9.485 3.716l-3.398 1.38-1.026.672-2.725 1.345-.672.354h-.39l-.354.177-1.3.495-1.345.672-1.026.672-.672.354-1.7.672-4.424 3.08 7.362-4.176.78-.248-4.743 2.725 3.044-1.7 5.45-2.725 1.416-.85-.743.495 1.097-.672 2.654-1.24 2.725-1.486zM72.36-64.95l-.354.212 1.38-.672-1.026.46zm-5.486 2.265l1.982-.99-2.265.99h.283zM266.696-74.93l1.345.672 2.725.708v-.354l-.672-.354h-.354l-3.044-.672zm-166.484.354l-1.026.32-1.7.708.672.32-1.7.354 2.407-.354 1.7-1.026.672-.32h-1.026zm197.063.32h.354l2.7 1.026-2.7-.672-.354-.354zm-97.86 1.026l-1.345 1.026 2.017-1.026h-.672zm21.058 0l-.32 1.38-2.37-.354 2.7-1.026zm35.003 0l-.32.672 2.017.708 1.026-.708-2.725-.672zm45.196 0l1.7.354h-1.026l-.672-.354zm-105.68 1.026l-1.7.672h1.026l.672-.672zm.708 0l-1.38 1.345 3.398-.99-1.7.32-.32-.672zm110.423 1.026h1.345l-.354.32-.99-.32zm-76.128.32l1.38 1.38-1.38.32v-1.7zm-13.59.354h3.752l-.672.672-3.08-.672zM81.207-68.312l-.354.177-1.026.354 1.38-.53zm211.998.53l.32.672-2.7-.354 2.37-.32zm-161.387.32l-2.053 1.026h-2.725l-.99 1.026.32-1.026-2.725 1.026-.32-.672-.354-.354-3.716 2.053 2.017-1.7-1.7-1.026-.672 1.345-.672-.672L117.2-65.4l-1.026-.354-.32.708h3.044l-2.37.672 1.026.32-4.424.354 3.398 1.345-4.424 1.38 3.398-.354 1.345.354 1.38.672 4.743-.672 5.096-1.026 4.07-1.7-.672-.354h1.38l-.354-2.37 1.7-.672-2.053.672-.32-1.026zm180.393 0l2.053.354 2.725 1.345v-.32l2.37.672 4.07 2.053-4.424-2.053-2.017-.672.32.32 7.822 4.105.602.425 1.77.92 6.123 2.725-6.123-2.37-1.77-1.274-8.07-4.176-3.398-1.345-2.053-.708zm-83.914.708l1.026.99-1.7-.32.672-.672zm-146.098.99v.354l-2.548.495 2.548-.85zm212.352 1.7l5.77 3.08 1.38 1.7 11.892 4.07 8.813.354 7.503 1.7.496.212.495.106 5.096 2.37 1.38.354 2.37 1.026 6.44 2.725 2.407.99 3.398 1.7-5.804-2.7-8.494-3.08-1.7-1.026-5.592-2.477-5.946-1.24-9.166-.354 2.725 1.38-16.316-6.123-2.37-2.053-4.778-2.725zm-73.72 1.026l3.398 1.026h-3.044l-.354-1.026zm17.66 1.7h.354l3.044 1.026h-1.7l.672 1.345-2.37-2.37zm15.643.354l2.725 1.345 9.166 2.725-9.166-2.37-2.725-1.7zm-32.63.32l6.123 3.08-2.725-1.026.354 1.3-1.7-.637.672-1.026-2.725-1.7zm15.962.354l1.38.672-1.7-.32.32-.354zm-17.66.672l.672 2.053.354-1.38 1.345.708-.99-1.026 1.7.672-3.08 2.053.32 1.486.32.177 1.734-.32-.32 1.026-1.416-.708-.283.035-.035-.212-.99-.495.672-.99.672-1.026-.672-1.38-1.345-.32 1.345-.354zm20.74.672l3.398 1.026 3.398 3.398-1.026.672-2.725-.32 2.053-.354-4.424-1.7-1.7-2.017 2.37 1.345-1.345-1.345 2.017 1.345 1.026-.354-3.044-1.7zm-182.127.708l-1.274.46-.212.142 1.486-.602zm-1.486.602l-.212.07-3.398 1.7v.32l1.7-.99 1.91-1.097zm-3.6 1.77l-2.76 1.628.743-.283 2.017-1.345zm-2.76 1.628l-.248.106.637-.39-1.345.672.46-.177-3.54 2.23 3.54-2.194-.142.142.637-.39zm-4.035 2.442h-.32l-.354.354.672-.354zM57.14-57.8l.248-.142-1.7.672 1.45-.53zm171.156-.46l1.7.32v1.7l-3.044 1.026 1.7.354-2.725.32-1.7-1.345 2.053.32 1.7-.672-2.7-1.026h3.362l-.354-.99zm-13.237.99h2.37l.354.708-2.407.32v1.026l2.407-1.026-1.7 1.38-.708-.354v.354l-.32-2.407zm18.015 1.026l6.44 3.08-3.044 1.7-5.45-3.398 2.053-1.38zm-184.18 3.752l-.99.53.672-.212.32-.32zm-.99.53l-.354.142-.566.39.92-.53zm-.92.53l-1.133.637-2.053 1.026-.99.672-1.38.672-4.07 2.37 2.725-1.7-3.08 1.7 3.752-2.37H40.4l-3.398 2.053-7.468 4.743-4.424 3.044-3.822 2.725 1.133-.672-1.38 1.026h-.212l-.46.32-8.494 6.123-1.7 1.38-.354.32h.354l-.354.354h.354l-4.743 3.716 3.752-3.15.637-.92-2.017 1.7-.672.672-.212.106-1.734 1.38-.106.212-.46.248-.39.283-.495.495-.248.142H3.45l-.425.212-.07.212H2.92l-.035.106h-.177v.354h-.354l-.32.354h.32l-1.026.32-.32.672-.672.354-1.38 1.345-.672.354-.354.672-1.345.672-.354.708-.672.32-2.37 2.37-.672.354-.354.672-.672.354-1.84 1.84-.212.177-.32.354-2.725 2.725-.956.885-.07.142-.32.32-.212.106-.495.46v.106l-.99.92-.354.46-.92.672-.07.07-.212.177-.53.495-.035.035v.035l-.283.53-.672.354-.672.672-.354.672-.32.708 2.725-3.08-1.026 1.38 2.37-1.7 1.345-1.7-.32.672 4.07-3.08-2.37 2.053h1.026l-1.7 1.345.99-1.345-4.07 3.044-2.37 2.725-1.026 1.38 4.778-4.424v.672l.99-1.026 3.08-1.7 1.026-.672.53-.814.85-.53h-.39l3.08-2.407 2.725-2.7-4.778 3.716-1.097 1.345.425-.672-1.7.708 1.7-2.407 1.026-.99 1.7-1.7h-.354l3.08-2.725-1.026.672 1.026-1.026v-.32h.672l2.017-1.38 2.725-2.37-.32-.354-3.08 2.053L-6.46-13.1l2.017-2.017 4.778-3.398 3.044-2.37 1.026-1.026h3.716l.708-.354.07-.177h.035l4.282-2.867 2.053-.672 3.752-2.053.99-1.345.708.32-.354-.672h.672l.672-.672 2.407-1.7 1.345-1.38-2.37 1.026 2.37-1.7.354-.672-2.336 1.097 1.982-1.097-1.7.672 4.07-1.7v-.672l1.026-.672-1.026.32 1.38-.99-2.407 1.345 2.053-1.345.354-.354-.814.53-1.24.495 3.752-2.37v-.708l1.345-.672h-.354l.708-.672.672-.354.32-.32 2.407-1.38.99-.99 1.026-.354 1.026-1.026 1.026-.672 1.345-.672-1.345.32 2.017-.99 1.7-1.026h-.672l1.026-.354 2.83-1.982zM-9.184-8.995l-1.38 2.37 2.407-1.7h-1.026l2.017-2.37-2.017 1.7zm1.7.99l-1.876 1.91.85-.53h.354l.32-.672.354-.708zm-1.876 1.91l-.814.495h.32l.495-.495zM-20.758.5l-.32.354-.672.354-.354.32-.354.672.354-.32h.354l.99-1.38zm2.017-2.3l.39-.39-.354.32-.035.07zm3.08-2.902v-.212l-.32.32-.495.637.814-.743zm19.9-18.05L4.512-23l-.106.07-.177.177zm36.17-25.66l1.38-.672-1.026.672 2.37-1.345h-.32L40.4-48.422zm212.033-4.07l.672.672h-2.053l1.38-.672zm43.143 1.026l3.752 3.044-.354.672 1.026.78.39.248h1.982l-1.026.354 1.7 1.345-2.654-1.7h-.07l-.32-.248-.672-.425-2.053-.354 1.345-.672-2.017-.354.672-.672-1.7-2.017zm-107.698 1.7h2.37l-.672 1.7-4.424.99.672-1.7h2.053v-.99zm65.227.32h2.37l-1.345.354 1.026.32 3.044 1.38-.672 1.345-4.778-2.017 3.08.672-2.725-2.053zm-41.125.672l1.38.708 1.7-.354-1.7-.354h-1.38zm15.643 0v1.7l-2.053-1.345 2.053-.354zm-89.01 1.026l-1.7 2.053h-1.7l-.354 2.017-2.725 1.38h3.08l-4.424 4.07 2.37-1.7 2.053-1.026.32 1.026-.99-.354-2.725 3.398.32.708.708-.708 5.096-.32-2.407 1.345.708 1.38 1.345-.354-1.7 2.053.672.672-4.743.32-2.053 1.38 2.053-.354v1.38l-5.45 2.017 5.096 1.7 4.07-1.345-3.044 2.017h-3.752l-6.44 3.752 6.795-.672 1.345-1.38 11.22-.32 4.778-1.38.32-.672-3.398-.32 2.053-.354 3.716-3.044-.672-1.38h-4.424l1.026-2.017-.672-.354h-1.345l2.37-.354v-.99l-2.725-1.38-.672-4.07-4.424-.672 3.752-.354-2.053-.32L142-41.98l3.398-3.044-7.15.354 5.45-3.08h-5.096zm-3.398.354l-3.08 1.345-.32.672 1.7-.672 1.7-1.345zm76.447 0l.672 1.345 3.398-1.345h-4.07zm26.155 0l1.345 1.026-2.37-.354 1.026-.672zm-33.976 1.7l-2.37 1.026.32 1.345 2.053-2.37zm95.134 0l2.725 1.7-2.37 1.345 1.7-1.7-2.053-1.345zm-27.18.32l.354 3.398-2.407-2.7 2.053-.708zm-139.303.354l.672 1.7.354-.672-1.026-1.026zm42.824 1.345l2.37.354-2.053.354.354.99-1.026-.672-1.345.672 1.7-1.7zm97.823 1.38l4.424 1.7 4.424-.672-4.424.99-4.424-2.017zm-140.648.32l-1.345 1.026 2.017-.32-.672-.708zM30.207-40.6l-1.345 1.026.672-.708c0 0 .672-.32.672-.32zm153.92 0l-.672 1.345-.672-1.026-3.08.708 3.08 3.716v-1.345l2.37-1.7-1.026-1.7zm111.095.672l1.026.672-.672.354-4.07 2.017.32.708-.32.99 1.7 1.026 2.017-.32-.672 1.7 2.725.32-2.37.672.672-.32-4.424-2.725.354-3.044-.672-1.026 1.7.672 3.044-.672-.354-1.026zm-116.192.672l-2.017.354-.354 1.345h2.37v-1.7zm187.224.354l1.026.672.248.85.354.39 2.088 1.522 3.08 1.982-2.725-1.7-.354-.283-1.7-1.062-.39-.46-.283-.212-.07-.177-1.274-1.522zm4.743 0l.672.32 1.7 1.38-2.37-1.7zm-244.63.32l-1.345 1.38-.354-.672-3.398 1.7h1.7l-1.7 1.345h-4.424l.708 1.345-2.725 1.026 3.398.672-4.424 2.407 4.07-.354-5.77 1.345h1.7l-2.725 1.026h2.725l-2.37 1.026 2.37-.354-1.345.708 5.77-1.38 5.77-1.026 2.725-5.77 3.716-1.345-.672-2.37-3.716.672 1.345-.672-1.026-.708zm-101.93 1.026l-2.76 2.3 1.062-.92 1.7-1.38zm349.885.32l.85.602-.106-.248-.743-.354zm-23.36.035h1.345l.354 1.345-1.7-.32v-1.026zM24.12-36.53l-2.725 2.053.32.32-1.345.354 1.026-.672-1.38.672-1.7 1.345 1.026-1.026.672-.32.46-.425.566-.248.495-.354h-.142l2.017-1.345-1.876 1.345h.177l2.407-1.7zm163.76.672l-1.38.672 1.38.354v-1.026zM16.298-30.76l-1.7 1.38v-.354l1.7-1.026zM323.43-28.4l2.053 1.38-1.38.32-.672-1.7zm63.776.814l.78.566-.32-.354-.46-.212zm-94.674.212l-1.7 1.7.672 2.053 2.725 2.017-2.053.354v-1.345l-.672-1.026-1.38-2.053 2.407-1.7zm-275.208.672l-5.45 3.398-2.725 2.407-2.37 1.7-.672.32-1.38 1.38.354-.708L1.68-15.8h1.026L-.7-13.773l-1.026 1.38 1.7-1.026.354 1.026 2.7-1.38-2.37 1.7 2.37-.672-4.07 2.37h1.026l4.424-3.398-1.38 1.7-2.7 2.37 2.37-1.7-2.37 2.407h.672l4.07-3.398.672-1.026-1.7 1.026L7.13-14.8l-3.398 2.407.99-1.026 1.026-.672.354-.708 2.017-.99-1.7.32 4.105-3.044H9.15l1.38-1.026-3.08 1.7 2.37-1.7-1.7.354 2.725-1.7h-.32l.672-.708-1.026.708 5.096-3.752.672-1.026h.672l.708-1.026zm370.342.708l2.017 1.345 2.37 2.053-4.39-3.398zM6.742-24.78l-.32.142-.32.354.637-.495zm-.637.495l-.672.32-.212.39c0 0 .885-.708.885-.708zm380.535.99l2.017 1.38.354 1.026-2.053-1.7-.318-.708zm-178.376 2.407l.32.99v.354l-.32-1.026v-.32zm-204.53.32l-1.7 2.725.99-.672.708-1.38v-.672zm243.603 0L259.9-15.8l1.7-.354 1.345 4.07-4.07.354-.672 2.017-3.398.708 3.044-.708.354-2.7h3.752L261.6-14.8l-14.263-5.77zm133.18.354l.283.85 1.026.566 1.416.602.672 1.7 1.345 1.026v.672l2.725 1.026v.672l-3.398-1.7-1.7-3.398-1.062-.602-.956-.39-.07-.177-.956-.53.672-.32zm-93.79 1.026h.354l.354.283 1.7.708v1.7l-.354 3.752-2.725.354-.672-1.7 2.053.672-.708-2.37h1.38l1.026-1.7-1.7-1.416c0 0-.708-.283-.708-.283zm105.327.32l1.38 1.026.32.354-1.7-1.38zm3.08 3.398l1.026.672.99 1.7c0 0-2.017-2.37-2.017-2.37zm-79.844 4.778l5.415.32 1.38 1.38 1.026 4.07 2.37.672-5.77-.354-.354 2.053 2.37 1.345-4.07-.32.354 1.026 2.37.672 3.398 4.07 5.415 1.7.354 2.37 3.752 4.07-1.7-3.716 2.017-.672 5.77 4.39-2.37 1.7-3.716-1.7.99 3.08 2.053 2.37-1.026-1.345 2.37.32 1.38 2.053-1.7-.672.672 2.017 1.026-1.026 2.017 2.053 4.424 8.848-7.114.99-11.22-4.39-3.398-5.45.672-1.7h.354l-1.026-3.398 2.37-1.026-3.398-1.026-9.52-7.786-2.725-5.096v1.7l-4.39-4.424v-4.07l4.39-.354v-3.044l4.778-1.7zm60.485.99l7.468 1.38 1.026-1.026-.354 1.7-6.795-1.7v2.725l3.044 3.716-4.07-3.044-.672-2.37.354-1.38zm-33.976.354l3.044.672.672-.672-.32 2.37 1.345 1.7 4.424 2.053-.672 1.345V.844l1.7 1.345-2.407.708-.672.32-1.7-1.7-3.044.354-3.08-4.424-1.345-3.398h2.37l-1.345-2.053 1.7 1.026v-1.026l-.672-1.345zm-352.893.142l-.46.212-.354.32-.177.32.99-.85zm400.46.885l2.7 2.37-2.37-1.026-.318-1.345zM-22.775 2.543l-.672.354-.354.672 1.026-1.026zM168.52 4.596l-3.752 2.7 1.345 3.398 2.407-2.37V4.596zM-25.96 5.728l-1.24 1.24-.177.248.53-.248.885-1.24zm-1.416 1.486l-.177.07-.177.39.354-.46zm-.354.46l-.495.637.354-.32.142-.32zM394.78 5.94l1.026.354v1.7l-3.398-1.026 2.37-1.026zm17.342 2.37l1.026 1.026h-1.026V8.312zm-440.49.177l-.885.85-.106.142-.212.212-.07.142-.495.637.07-.035.354-.46-.212.39.354-.354 1.203-1.522zm-1.557 1.876l-.142.07-.177.248c0 0 .32-.32.32-.32zm-.212.106l-.46.212-.354.708.354-.354.46-.566zm196.956 1.24l-4.424 1.026.32 8.14 4.778-1.345 1.345-5.096-2.017-2.725zm-198.443.354l-.32.32-1.026 1.38.32-.354 1.026-1.345zm-1.345 1.7l.142-.32-.814.99.672-.672zm-.672.672l-1.026 1.026-.142.283 1.168-1.31zm-1.168 1.3l-1.24 1.416 1.026-1.026.212-.39zm-1.24 1.416l-.32.32-1.133 1.486 1.133-1.133a8255.31 8255.31 0 0 0 .319-.672zm-.99 1.345l-1.522 2.017.814-.99c0 0 .708-1.026.708-1.026zm-1.522 2.017l.248-.495-.78 1.026.354-.177.177-.354zm-.53.53l-.354.177-.32.672.672-.85zm-.672.85l-.672.672-.32.672.99-1.345zm-.99 1.345l-.637.85 1.557-1.947-.92 1.097zm-.637.85l.354-.53-1.097 1.38.32-.32.425-.53zm-.743.85l.106-.177-.46.53.32-.283.035-.035v-.035zm.106-.177l.99-1.203.106-.142-.885.85-.212.495zm3.716-4.743l.814-1.062-.566.566c0 0-.248.495-.248.495zm5.486-6.583l.885-1.062-.708.708-.177.354zM312.2 12.382l2.053 1.026-3.044-.32.99-.708zM142 16.806l-3.752 1.7 2.37 1.026 2.407-1.7L142 16.806zm94.46 2.37l-2.053.708 2.053.99h1.345l-1.345-1.7zm28.172 1.026l1.38 2.725-1.7-1.026.32-1.7zm-40.418.354l-2.053.672 6.795 3.752-1.345-2.725-3.398-1.7zm80.517.32l-1.026 2.725-3.398-.672 4.424-2.053zm-92.055 2.053l-.708 1.345 2.053.354-1.345-1.7zm-20.386 1.026L179.03 24.98l.672 1.7 9.52 3.716c0 0 3.08-6.44 3.08-6.44zm119.908 0l3.398 3.716-1.345 1.026-3.398-4.424 1.345-.32zm-354.344.672l-.672.99.177-.177.495-.814zm-.495.814l-.248.46.354-.566-.106.106zm-.248.32l-.53.814.248-.248.07-.177.106-.07.07-.106-.07.036.106-.248zm-.708 1.026l-.602.566-.354.672-.142.142.142-.495-.53.885.212-.177.142-.177-.142.495c0 0 1.274-1.91 1.274-1.91zm-1.486 1.77l-.46.495-.354.672-.672.672-.142.32-1.522 2.017-.035.035v.035l-.106.177-.212.46.92-1.274-.354.39.956-1.24-.53.78.354-.32.39-.78 1.3-1.628.46-.814zm-2.584 3.6l-.602.956.637-.956h-.035zm488.303-3.787l2.053 2.7-.354-.32-.672-.672-.672-.354v-.672l-.354-.672zm-194.69 3.044l-2.37 1.345 1.38.708.99-2.053zm-294.638 2.124l-.602.602-.32.602.92-1.203zm-.956 1.274l-.602.814.283-.142.32-.672zm-.32.672l-.672.672.39-.53-.39.212-.708 1.38.708-.708.672-1.026zm-1.38 1.734l-.32.32-.354.672.354-.354.32-.637zm324.474-2.407l-9.166 2.725 3.398 2.37 4.07-1.7-.99-1.345 2.7-2.053zm-46.54.354v1.7l5.096.99h6.123l.354-1.345-2.053 1.026-9.52-2.37zm-278.64 3.114l-.283.283-.248.46.53-.743zm-.53.743l-.672.99.212-.106.46-.885zm-.672.99l-.46.248-.814 1.593 1.274-1.84zm-1.274 1.84l-.46.672.248-.248.212-.425zm-.53.78l-.354.32-.425.814.78-1.133zm-.78 1.133l-.92 1.416.32-.177.602-1.24zm-.92 1.416l-.354.177-.672 1.345 1.026-1.522zm373.385 1.168l4.778 2.053 4.39.672 1.38 2.053-1.7-2.053h-3.08l-5.77-2.725zm139.41 1.522l.425.743.142.142.248.46.708 1.168-.248-.283-.46-.885-.39-.602-.177-.212-.248-.53zm1.7 2.796l.354.566-.106-.106-.248-.46zm-7.928 5.557h1.026v1.7l-1.026-1.7zm12.246 1.522l.106.177h-.106v-.177zm.354.637l.106.212h-.106v-.212zM62.838 64.054l-2.37 1.7 1.7-.708.672-.99zm391.754 0l1.026.99v1.026l-1.026-2.017zM60.467 66.072L57.07 69.47l2.017-.672 1.38-2.725zM51.3 67.098l-3.398 1.026.32 1.7 3.08-2.725zm.99 1.7l-.672 1.345 1.7-.32-1.026-1.026zm318.386 5.77l-3.398 2.053 2.7-1.026.708-1.026zm91.028 3.398v2.725l3.398 8.14-3.716-8.14.32-2.725zm-1.7 5.77l4.778 5.45-3.08-3.044-1.7-2.407zM274.164 88.83l1.7 5.45-4.743 1.026-4.424 5.77 2.725-5.45 4.07-.99.672-5.804zM-88.7 108.896l-.32 1.345-.354 1.026h-.32l-.708 2.053v.32l-.672 2.37v-.672l-.32 1.026-.354 1.168v-.142l-1.026 3.398.672-2.053.354-.672v-.142l.672-1.557v1.345l1.026-2.017.354-2.37.32-1.38v.354l.672-2.053v-1.345zm-.32 7.822l-1.026.32-.672 2.053.672-.354 1.026-2.017zm577.243 0l.354.32v1.026l-.354-1.345zM45.496 125.53l3.398 2.725 2.407 5.096-5.804-7.468-7.786.32 7.786-.672zm-134.206.672l-.672 1.026-.32 1.7.99-1.345v-1.38zm401.274 3.398l.354 1.38 2.017.32-2.017-1.7h-.354zm-221.872 1.026l1.7 2.053-1.345.32-.354-2.37zm-85.26 1.7v1.7h.99l-.99-1.7zm488.55 1.7l1.026 4.424.39 1.133-1.416-5.557zm-313.573 5.45l.99 3.398 2.053-1.026v1.7l4.743.672-6.087 3.08-3.752-7.15 2.053-.672zm307.132 5.415v1.7l.672 1.38-.672-3.08zm-112.794 2.053l3.044 1.026 2.053-1.026h-5.096zm-474.642.354l-1.026 4.39-.354 1.7.177-.142.177-1.203.672-2.725.354-2.017zm-1.203 5.946l-.177 1.133v-.283l-1.026 5.096v.99l-.32 1.026-.177.956.177-.602-.106.637-.142.425.07-.46-.177.743-.142 1.097.142-.814v.283l-.142.53.142-.425v.354l-.177.32-.035.106v.035l-.035.248-.07.53v.46l-.07.248v-.283l.07-.425v-.566l-.142 1.416-.106.814.142-.885-.248 2.725v-.32l-.212 1.416-.035.142-.106.814-.99 7.468-1.38 12.564v3.08l-.32 5.096v1.026l-.354 3.716v19.713l.354.672v3.08l.283 3.645.035.07v2.053l.354.672.32 2.725v.32l-.32-2.7-.354-.708v2.053l.354 1.026v3.398l.32.672v2.725l.354.672v2.725l.354.672v2.37l.99 7.468 1.7 9.52 1.38 6.795 2.37 10.865.354 2.725 2.017 7.468 2.053 6.123 1.026 3.752 2.017 5.77 2.725 7.822 2.725 7.114 4.07 10.193 4.07 9.202 8.494 16.634 2.725 4.742.354.354 1.345 2.725 8.848 13.59 8.14 11.892 2.37 3.398.672 1.026 7.15 8.813 5.45 6.477 1.345 1.345.354.46v.212h.177l.814 1.026 2.725 2.725 3.398 3.716 1.026 1.38h.354v.32l5.77 5.804h.32l.85 1.133.637.566h.142l.177.283-.32-.283h-.106l.672.672.354.32-.39-.53.566.53h-.177l.32.354 2.053 2.053-.885-1.203.142.106.035.035.035.035.814 1.026h-.142l.425.354.248.32h.142l1.203 1.026 1.026.672v.32l1.026.708-.672-.354 1.7 1.345 1.7 1.38 1.345 1.345.78.672h.248l.177.39.035.035 1.133.956 1.026 1.026 1.7 1.345.672.672.672.32.035.035 1.345 1.026 1.7 1.7 2.053 1.7 1.7 1.345-2.053-1.7.672.354.354.32 1.203 1.026h-.177l2.513 1.734.425.354.602.425.177.212.32.177h.035l.07.07.956.78.212.142.035.035.78.425.92.672-.248-.283.106.07.53.425.142.142.283.248-.814-.602.425.425.495.32h.07l.142.142-.212-.142h-.177l.354.354 1.7 1.026-.354-.354.708.354.672.32.32.354.495.495 2.23.85-1.026-1.026-4.39-2.37-2.37-1.663.32.32-.672-.354-.46-.212-.07-.142.53.354-.53-.39-.106-.212.78.495-3.22-2.265-.672-.672-3.044-2.37-.354-.354-2.017-1.7-3.752-3.044-.354-.39v-.32L-.7 444.235l-6.795-6.795-1.026-.672-4.07-3.398-2.725-3.08-.672-.99-4.778-5.096-1.7-2.407-1.7-1.345v-.672l1.38 1.345-.672-1.026-2.053-2.017 1.026 1.345-1.7-1.345-4.778-5.45 2.407 1.7v-1.026l-5.45-6.44.672.354-2.37-2.407 1.7.708.354-.708.672-.99-.354-2.053-2.725-5.096-2.017-2.37-1.7-1.38-1.7-3.044-4.424-3.752-3.752-6.087 2.725 3.716 2.053 2.725 3.398 1.7 2.017-1.026-2.37-7.114-2.725-5.804-1.7-6.44-1.345-1.7 2.37 2.053 1.7 7.786-.32-4.39-1.7-5.45-1.026-3.044v-3.752l-2.725-6.44-2.37-4.105-.672-3.398-1.026-.99 1.026.32-.354-3.716 1.026-3.752 2.017-.354.708-4.39 2.37.672.32-2.053.708 1.38 2.37.32-.672-2.37 1.7-2.725-1.026-2.37.32-8.14v-1.38l-1.345-6.123.354-3.398-4.778-25.128.354-1.345 1.026 2.37.672-2.053 3.716-13.91 2.725-8.494-.32-6.477-2.053-8.813-1.345-2.053-4.778-.672-4.743-6.795-4.424-4.424h-6.44l-3.398-2.725-3.08 5.45v-4.07l.672-1.38-1.345.672 1.026-2.37-1.026-3.398-.672 2.37-.354-2.7-.672.99.354-1.345-.708 1.026-.672-2.053-.32 1.38-.354-2.407-.354 1.38-2.017-3.08-.354 1.38-1.345-1.026-1.026 4.424 1.026.32-.672 1.026-.708-1.7-1.7 5.45.354-3.752-2.37 1.38 3.398-2.407 1.026-6.44-4.424-1.026-.672 4.778-.354-2.407-.672 2.407v-2.725l-.672 2.725.672-5.096 2.725-6.795h-.354l.354-2.725-1.7-2.053-.354-11.538-.354-.672-.32 1.7-1.026-4.778-2.725-4.743-4.743.32-1.026-5.77-.672 2.725.672-5.096-.354-3.398-.672-2.725v-.672l-1.026.354.708-4.778-.354-2.37-.672.672v-3.044l1.345-2.053-2.37.354.354 1.026-1.38 2.37-.32-3.08-1.026.708.672-3.752-.32-1.168-.035.142v-1.026l-.32 1.38-.035.035-.142.142zm.495-.85l.035.177.32-1.203h-.177l-.177 1.026zm.177-1.026l.53-2.725-.708 2.725h.177zm122.633 311.38l-.495-.39v.212l.495.177zm-.495-.39v-.106l-.99-.672.99.78zm-5.84-4l.07.142.672.354-.743-.495zm-1.628-1.203l-.78-.637-.566-.39 2.017 1.7-.32-.354-.354-.32zm-117.785-290.32l.07-.743-.177.566v1.026l.106-.85zm405.91-18.864l-.672 3.716-1.7-2.7 2.37-1.026zm-171.226 5.096l3.044 2.37-1.026 4.743v.708l-.32-.708-1.026-2.017 2.017-2.725-2.7-2.37zM-95.15 155.8l-1.026.672v2.017l-.672 1.38 1.026-.354.672-3.716zm562.308 5.096l-.354.32-.32.354h.32l1.026 1.345-.672-.672v2.725l.07.142v.035l.602 5.592-.672-1.026 1.345 4.85v.602l.354.672 1.026 5.45 2.37-1.026 1.026-4.424-2.37-7.822-3.752-7.114zm-564.68.672l-.672 5.415.32.354-2.23 3.08-1.168 2.017-.32-1.026-.708 1.026-1.7 7.822.708-5.096.99-2.725.708-1.345.32 1.345.672-1.345.495-.672 1.557-2.725.354-1.7.672-4.424zm201.487 3.398l5.415 6.44.354.672 1.026-6.44-1.38 14.935v-1.7l-.32-.32-3.752-1.7 3.398 1.026.354-.708.672-2.7-.672-1.026-1.026-.354h-2.37l3.044-1.026-3.398-1.7-.672-3.044h-3.752l3.398-.354-.32-2.017zm38.046 2.37l2.017 4.424L142 184.316l1.7-12.918-1.7-4.07zm-59.812 2.725l-1.345 3.716.672 1.026 1.345-1.026-.672 2.725-2.017-2.37 2.017-4.07zm-181.773 2.017l-.672 4.778.354-4.07.32-.708zm593.24 3.08l.672 2.017v-1.345l-.672-.672zm2.725 8.14l.99 5.096 1.7 5.096 1.026 7.468 1.026 3.08.354 7.822.672 4.39v1.38l.318 12.564.354 11.538-.354 3.08.354-2.053v1.7l-.354 3.398v-.32l-.07.637-.248 1.062v.99l-.354 2.407v.99l-.248 2.584.248-1.203v-.354l.672-4.743v-.354l.354-3.044v-1.7l1.345-18.687v-.672l-.318 1.7.318-2.725-.318-.672.318-5.096-.318-1.7v-6.795l-.07.354-.283-1.062v-.672l-1.026-7.822v2.725l-.672-5.77-.32-1.7-1.38-4.743v-1.7l-1.345-4.424-2.37-2.053zm5.167 72.907l-.78 3.893.354-1.026.354-2.053.07-.814zm-592.957-69.5v2.053l-.708.672.708-2.725zm389.347 1.7l2.37 12.246-4.07-6.795 1.7-5.45zm-143.02 4.778l-2.725 2.017v.354l1.345.672 1.38-3.044zm343.16 5.096l.99 2.37-.672-2.37h-.32zm-293.895 2.017l-2.407 15.29 3.752-7.822 4.424-2.37 3.716-2.017 1.026-.708 11.148-.92.425-.07.07.035.602-.035 11.22 7.786-11.82-7.75-.495.035-12.175 2.62-3.716 1.026-4.778 3.398.354 4.424-11.892 11.538-.354 4.778-.32-4.424 8.494-9.52 2.725-15.29zm69.97.354l-1.026 3.716-3.716 3.398-.354-2.37 5.096-4.743zm10.547 3.716l-2.053.708.672 1.7-3.398-1.026 4.778-1.38zm215.077.708v.672l.32 2.017.354 2.407v-2.407l-.672-2.7zm3.398.672l.318 2.017v-.99l-.318-1.026zm.318 2.017v.708l.354.99-.354-1.7zm-219.466 2.725l.672 1.7 2.37-.32 1.345 3.398 2.407-1.38.672 1.026-4.07 1.345-.354 5.096-4.07 2.725 3.398 1.026-2.37 1.7-2.407-.672.354 2.37-1.345 1.026.32-2.725-3.044-1.345-2.053 3.044-1.026-4.424 2.053-10.51 3.398-1.7 1.7.99 2.053-2.37zm-366.272 1.026l-1.7.672.672 1.38 1.026-2.053zm348.257 2.37l-2.725 2.725.672-2.37 2.053-.354zm-370.696.672l1.38.354.106.354h.212l1.026 3.54.672 1.876 2.37 9.52h1.982l.177-.708.566-3.362.32.142.035-.142.32.354.708.32.99-3.044h1.7l.708.672v1.7l.672-.354 2.37-4.07-1.7 3.044-.672 1.38-1.38.32-.32 6.123v-6.795l.672.354-1.345-1.026h.672l-.672-1.345-1.7 3.398-.708-.672-.354-.212-.885 3.22-.106.708h-.07l-.283 1.026-1.345-1.026-.354.672-1.7 3.752-.212-.566-.106.212-.354-1.345-.672 4.07-.354-2.053v-.32l-.99-3.398v1.026l-.708-4.424-.672-1.38-.672.354 1.026-.672 1.345 5.77 1.026 3.044.672-2.017.46 1.133.92-1.805v-2.053h.99l-.672-.672-1.7-8.494-.672-2.23-1.24-3.54H-105l.32-.708zm265.015 3.08l1.7.672-1.7 1.026v-1.7zm341.143 1.026l-.354.99.354 3.08v-4.07zm-596.284 1.7l.99.672v1.7l-.99-2.37zm300.7 1.345l-1.38 2.053 1.7.672-2.017 3.044-.708-5.096 2.407-.672zm55.707 0l1.7 2.37-2.725 2.37 1.026-4.743zm-347.903 1.026l2.017.32-.672 2.053.354 1.345-1.026-3.398v2.725l-.672-3.044zm588.11 5.415v3.08l.354-2.053-.354-1.026zm-607.15 3.08v.672l-.672-.354.672-.32zm368.29 0l3.08 12.918-1.38 2.37 4.424 3.716 2.725 9.52-3.398-1.345-1.7-6.477-4.742-6.087.318-10.9-1.026 1.38 1.7-5.096zm50.292 12.564l-.672 2.37 1.7 1.7-.672-2.725-.354-1.345zm-37.374 9.84l3.08 2.725-3.08-.672v-2.053zm-11.538 4.778l2.017.32-3.398 2.053 1.38-2.37zm-3.08.672l-2.37 4.424-2.017.32.32-2.37 4.07-2.37zm24.8 4.742l2.37 2.407 1.7 7.786-1.7 5.096 2.053 10.193-3.044-1.345-2.407-9.84 2.053-3.08-1.345-8.813-.354-1.38h.354l.32-1.026zm-21.412 7.15h.354v2.053l-1.7.672 1.345-2.725zm66.254 2.725l-.672 1.7 1.026 1.026-.354-2.725zm26.863 3.044l-2.725 2.37-.354 4.778-2.7 2.37-1.38-1.026v3.398h-1.026l-2.017 4.07.32-2.017-2.37 2.725.672 1.345-1.345.672.354-2.017-2.407 1.7v2.37l-1.345-1.38-8.14 2.407-3.398 6.795.672 12.564-5.45 6.44-2.017 5.096.672 13.272 3.716 2.017 9.52-2.37 16.67-33.622.99-5.096 2.053-1.7v-6.795l1.345-.354.708 2.725 1.7-2.725-.708-12.564-2.7-3.752.673-1.7zm-22.085.354l-1.026.672 1.345 1.026-.32-1.7zm-76.8 23.43l-4.743 1.38-5.77 5.77 4.39-5.77 6.123-1.38zm-317.678 8.176l2.053 3.398-.354.99-1.026-.32v-2.37l-.672.672v-2.37zm443.745 9.167l-1.38 2.725 1.7-1.38-.32-1.345zm-440.665 2.725l.32.99 1.38 2.053-2.053-2.37-.672.672 2.725 3.752-1.38-1.7-.32.99v-1.345l-1.7-2.37 1.7-.672zm432.17 1.7l-1.7.672 1.7 1.7v-2.37zm-435.25 11.538h1.38l.32 1.345-1.7-1.345zm-5.77 19.36l3.752 1.026h-3.752l3.433 8.034.32.46 1.7 3.398 2.017 3.398.672 1.7 1.38 3.398 3.716 6.123-3.716-5.77-1.38-3.398-.99-2.407-1.7-3.044-1.38-2.37-.637-1.486-.39-.566-3.044-7.468v-1.026zm306.46.672l-1.026 2.053-1.84-.602h-.07l1.24.956-1.7-.708.46-.248-.106-.07.177.07 2.867-1.45zm-302.035 14.97l.672 1.7-1.026-1.38.354-.32zm15.962 7.114l1.7 3.08h-.672l1.345 3.398-1.345-2.37-1.026-4.105zm-3.398 1.026v1.7l.672 1.026-1.026-.354h-.32l.672-2.37zm33.587 55.742h.035l.106.212-.142-.212zm1.062 1.133l1.097.99-1.097-.885v-.106zm370.342 9.06l-3.398 3.716 1.7-1.026 1.026 1.026-.354-1.345 1.7.32 1.38-1.345-3.08.672 1.38-1.026-1.7.708 1.345-1.7zM12.9 451.703l2.37 1.7.354-.32-1.38-1.026 1.026 1.026-2.37-1.38zm2.37 1.7l.672 1.026 1.026 1.026-.672-1.026v-.354c0 0-1.026-.672-1.026-.672zm-3.398-1.345l2.053 1.345.672 1.026.672-.354-2.053-2.017h-1.345zm2.548 5.06l.743.46-.248-.106-.495-.354zM51.3 460.55l6.44 2.725L54 460.87l-2.7-.32zm-27.18 3.398l1.7 1.345.99.354-2.7-1.7zm42.47 22.085l.99.672.354-.354-1.345-.32zm-.708.32l1.7 1.7 1.593.99.106.035 2.548 1.593 1.876.78 2.053 1.38 2.37 1.026 3.398 1.345-1.133-.248-2.62-1.097 2.265 1.026-.212-.035.708.248 1.663.78h.354v-.318l3.398 1.7 4.07 1.77 1.026.248h-.354l1.026.425 1.7.248.672.708 2.725.99 2.725.708 3.044.99 2.37 1.026h.354l5.096 1.7h.283l-.46-.142-.142-.142.743.283h.602l1.345.672h.672l.708.354.99.354h.708l.672.32h.672l.672.354 1.026.318h.672l.672.354h.708l.99.354.708.32h.672l.672.354h.672l1.026.32h.672l.672.354h.708l.99.354.708.32h.672l.672.354h.672l1.026.32h.672l.672.354h.708l.99.354h1.38l.672.318h1.026l.672.354h.672l.672.318h1.026l.672.354h1.38l1.026.354h.672l.672.318h1.7l.672.354h1.38l.99.318h.708l.672.354h1.7l.672.354h1.7l.672.32h2.37l.708.354h1.345l1.026.32h2.37l.672.354h2.37l.708.354h3.044l.672.318h3.08l.99.354h4.424l1.026.318h6.123l.672.354h20.032l1.026-.354h6.795l.672-.318h4.105l.99-.354h3.398l.708-.318h2.37l.672-.354h3.044l.708-.354h2.37l.672-.32h1.7l.672-.354h1.38l.99-.32h2.053l.672-.354h1.7l.672-.354h.708l.99-.318h1.38l1.026-.354h1.345l.672-.318h1.026l.672-.354h1.38l.672-.354h.672l.672-.318h1.026l.672-.354h1.38l.99-.318h.708l.672-.354h.672l.672-.354h1.026l.672-.32h.672l.708-.354h.672l1.026-.32h.672l.672-.354h.672l.672-.354h1.026l1.38-.672h.672l.672-.32h1.026l.672-.354h.672l1.38-.672h.672l1.026-.354h.672l1.345-.672h.672l.708-.354h.99l1.38-.672h.672l1.345-.672h1.026l1.38-.672h.672l1.345-.672 1.026-.354h.672l1.38-.672h.672l1.345-.672 1.026-.354h.672l1.38-.672h.672v-.354h.672l1.345-.672h.708l1.345-.672h.354l2.017-1.026h.672l2.053-1.026h.672l1.38-.672.32-.354h.672l2.725-1.345 3.752-1.345h-.354l2.477-1.133-1.805.78 6.477-3.044-3.08 1.345 1.026-.672-2.725 1.345 2.725-2.017-5.415 2.37-2.725 1.026-.354-.354-3.398.672 3.08-1.7-6.123 1.38 2.017-1.7-2.7.99-3.08 2.053-3.716 1.026-2.053.672H300l-.142.142-1.24.212-4.743 1.7-3.752.672 1.026-.672-4.07.99 1.7-1.345-1.026-.672 2.725-1.7-11.892-.672h-1.345l-2.407-1.026 2.053-1.026-3.752-1.345-7.114 1.345-1.7 1.7-1.7-1.026-2.37 1.026h.99l-2.7 1.026-1.7-1.026-1.7 1.026-11.22 1.7-3.08 1.026-3.716 1.7h-.354l-.32-1.026-1.7.32-3.398-2.017-2.053.318-1.026 1.38h-2.37l-1.026-1.026-4.07 1.345-3.752.708-6.087.672-6.123-.672-1.026-.354-3.752-.354-4.07.354-1.026-1.026-4.07 1.38H180.73l-1.026.672-10.865-.672-2.725-2.053h-2.017l2.017 1.345-1.345.708-.672.318-8.176.672-2.37-.32-2.725 1.7.708 1.026h-3.08l-1.345.99h-2.37l1.7 1.38.32.32-1.026 2.407 1.7.99.708 1.38h-1.38l1.7 1.026-3.256-.283-.142-.07h-.672l-1.026-.354.672.354-1.7-.354.708.708-17.377-2.938h-.07l-.248-.142h-.495l-.248-.035h-.035l-.566-.283h-1.026l-2.37-.708-7.468-2.37h-.354l-2.37-1.026-12.564-4.07-1.38-.32-2.37-1.026-.672-.354h-.142l-.99-.425-.212-.248h-.32l-.637-.283-.07-.07h-.106l-2.265-.99h-.708l-12.564-5.804-6.017-3.008 1.947.637-.672-.672-2.053-.672.637.637-.637-.32-.672-.99-2.053-.708zm44.948 19.713h-.142l1.062.354-.92-.354zM94.1 500.65l-1.345-.708h-.354l1.7.708zm-4.07-1.628h-.106l.46.177-.354-.177zm.354.177l.99.425.177.035-1.168-.46zm-.46-.177l-1.947-.78 1.7.708.248.07zm-20.74-9.98l-2.265-.99.672.354 1.593.637zm-1.593-.283l2.053.99v-.318l-2.053-.672zm39.073 15.962l2.407.672.672.248-3.08-.92z" opacity=".1"/><linearGradient id="Z" gradientUnits="userSpaceOnUse" x1="76.647" y1="56.113" x2="362.491" y2="341.957"><stop offset="0" stop-color="#c94b4b"/><stop offset=".323" stop-color="#95344d"/><stop offset=".622" stop-color="#6d224e"/><stop offset=".857" stop-color="#54174f"/><stop offset="1" stop-color="#4b134f"/></linearGradient><path d="M167.127 27.667L159.3 30.06l-6.075-1.358-4.79 2.037-5.754-1.358-12.258 2.037-5.075 2.716-3.717.68-5.11 2.716 1.608 1.498v11.545l-7.03.04-4.407 1.863v3.148l-1.144.56-22.872 10.292-1.144 4.574h-19.44l-3.324 4.9-4.074 2.36L51.3 85.42l-4.717 3.824-7.183 10.47-1.68 4.753.965-1.68 2.073 4.717-2.36 4.43.643 8.184-4.074 10.507-4.753 4.79 3.752 4.36-.357 2.752 4.1-.68-3.395 1.358-1.394-1-1.036 4.396h2.43l-2.43 1 3.395.357-1.68 1.358 2.037.357-.68 1.322 4.753-1.322-2.716 1.036 2.037.965-2.36 1.394 1.036 1.68 1.322-.643-.643 1.322 1.68-1.036.68 4.79 2.037 1 2.037 1.036-1.036 1.68 1.715.68.322 4.43 1.715-.322-2.36.68 3.717 3.717-.322 2.037 5.754 3.038L65.56 187.7l5.8 2.394 6.8-3.395 10.543-1.358 9.828 2.716 10.185-4.753 7.148-2.752 12.58-2.68-2.073 1.358 5.1.357 3.395 3.038 1.715-1.036-1.715 1.394 2.394.322-1.715.322.715 1.036 1.68-1.036-1.68 2.037 3.395 4.79 3.717-.357v-1.358l.68 1.358-.322-1.715 1 1.715.68-2.037 1.358 1.358 4.79-.357-.357-2 1.68 2.36 1.715-1.358 1.68 4.074 2.752-.68.643 1.358h-1.322l2 4.074-3.395 10.185 2.073.357-.357 3.395-1.715-.357 3.395 1.715-2.36.68-1.036-1.358-1.036 5.432h-2.36l5.11 9.185 11.222 10.864 2.36 6.8 2.716 1.358-2.36.68 6.11 12.222-2.037 3.395 2.36 4.79 2.36 5.396-.965 6.504-5.825 6.075-3.717 12.615.68 10.864 13.938 22.73 2.394 18.333 10.864 17.368 4.717 7.79.357 3.717-2.037 1.394 2.394 6.433 1.715-1 5.075 3.395 11.543-3.717 9.864 1 9.864-2.716 14.617-10.185 4.753-6.11 2.037-2.394 5.396-4.43 4.43-11.508-.68.965-1.358-1.68 14.974-8.827 1.322-9.506-3.038-8.148.322-4.43 1.036 1.036 7.47-5.1 3.073-5.075 15.296-7.148.68-1.358 4.717-6.8-.965-9.864.965-1.036-.68-7.47 1.715-3.395-3.038-2.36-1.394-1.036v-.322l-1.322-8.863 1-2.36h-1.358l2.037-4.43-3.752-5.075 2.394-7.148 4.074-8.506 1.036-2.037 4.074-2.36-1.036-1.68h2.752l10.864-14.33 11.508-9.15 8.506-10.864 11.222-26.16v-3.073l-.322-1.715 2.36-.643h-1.68l.322-7.112-2.394-1.036-5.396 3.395-9.22 1.036-4.038 2.36-3.073-1.036-5.432 2.716-7.112-6.47-3.073.357 4.074-2.36-.68-2.394-11.222-11.222-4.753-1.68-1.036-1.715-1-1-.322 2.037-7.148-15.296-6.147-4.1-2.68-11.508 1 .643-2.68-5.075-6.147-4.43-1.68-4.753h1.322l-3.395-2.716-9.15-15.975-5.1-5.432-1.215-4.074c-.014-.02-.023-.05-.036-.07-.07-.115 4.28 6.383 4.244 6.24-.233-.933 5.178 4.653 5.178 3.458 0-.168 2-7.837 2-8.005 0-.51-3.817-8.014-3.896-8.542l-10.36 1.523-1-2.073-4.074-.357-8.184 3.395-9.47-2.68-8.184-.357-1.358-2.037-7.47-1-1.036-2.073-6.11-1.322-7.148 3.395v6.075h-.322l-4.79 2.43-5.075-2.752-9.506-2.36-2.394-4.43-8.148-2.36-4.717.322-9.22-4.074-.68-2.073 5.468-4.36-2.716-4.1 2.716-4.074-2.716 1.68-2.752-2.716zm-85.88 42.276l1.004-4.274 9.162-4.158 2.095.054L82.64 66.45l-.556 2.24c-.538 2.17-.564 2.24-.82 2.27l-.264.03.246-1.05zm12.558-9.512l6.668-2.938 5.47-2.397.28-.13v-1.714l.03-1.714a88.38 88.38 0 0 0 1.858-.735l1.827-.735 7.838-.108.026-5.585.178-5.46c.13.11.152.902.152 5.86V50.5l-7.177.068-4.275 1.86-.056 3.17-.38.193-6.06 2.75-5.682 2.556-2.175-.005 1.476-.67zm-31.25 10.346c.108-.2.213-.204 8.91-.204l8.802.204c0 .202-.068.204-8.91.204-8.88 0-8.9-.001-8.802-.204zm-15.97 18.466l.286-.43-1.036 1.036.75-.608zM312.58 129.59l.322 1.394 2.037.322-2.037-1.715h-.322zm-157.64 63.577l-2.752 2v.357l1.358.68 1.394-3.038zm129.085 17.297l.68 1.715 2.394-.322 1.322 3.395 2.43-1.394.643 1.036-4.074 1.358-.322 5.075-4.074 2.716 3.395 1.036-2.394 1.715-2.394-.68.357 2.36-1.358 1.036.322-2.716-3.038-1.358-2.037 3.038-1.036-4.43 2.037-10.507 3.395-1.68 1.715 1 2.037-2.394zm-21.085 20.728l3.073 12.937-1.358 2.36 4.396 3.717 2.752 9.542-3.395-1.358-1.715-6.47-4.753-6.11.322-10.9-1 1.394 1.68-5.11zm50.283 12.58l-.643 2.36 1.68 1.715-.68-2.716-.357-1.358zm-27.16 20.05l2.36 2.394 1.715 7.79-1.715 5.075 1.302 8.79-2.303.074-1.073-9.828.75-3.073-1.358-8.827-.357-1.394h.357l.322-1zm44.85 9.864l-.68 1.68 1 1.036-.322-2.716zm26.84 3.038l-2.716 2.36-.357 4.79-2.68 2.36-1.394-1v3.395h-1.036l-2 4.074.322-2.037-2.36 2.716.643 1.358-1.322.68.357-2.037-2.43 1.715v2.36l-1.322-1.358-8.148 2.394-3.395 6.8.68 12.58-5.468 6.433-2 5.11.68 13.26 3.717 2 9.506-2.36 16.654-33.63 1-5.075 2.073-1.715v-6.8l1.322-.357.715 2.716 1.68-2.716-.68-12.544-2.716-3.752.68-1.716zm-98.886 23.8l-4.717 1.358-5.8 5.8 4.396-5.8 6.11-1.358zm126.083 17.333l-1.394 2.716 1.715-1.394-.322-1.322zM84.355 61.073l-6.09-.054.467-.498c.377-.4.572-1.103 1.005-3.61l.538-3.113 3.653-4.968 12.012-6.56 2.647-3.852c2.486-3.618 2.7-3.87 3.548-4.16l1.04-.31c.076 0 .665.687 1.308 1.526.94 1.227 1.254 1.507 1.606 1.43.86-.188 6.485-.946 6.547-.883.035.036.146.386.247.777l.183.713 1.708.06c.94.033 1.827.16 1.973.28.205.17.265 1.47.265 5.793v5.574l-7.024.023L105.5 51l-.204 3.542-3.97 1.732-9.772 4.33-1.12.532-6.09-.054zM66.46 69.177l2.75-.67c.147-.056 1.782-1.162 3.633-2.457 2.49-1.74 3.576-2.636 4.172-3.436l.807-1.08 11.4.116-3.74 1.688-3.897 1.978s-.367 1.23-.62 2.376l-.463 2.087-16.525-.036 2.483-.567z" opacity=".3" fill="url(#Z)"/><radialGradient id="a" cx="1168.254" cy="388.983" r="51.139" gradientTransform="matrix(-3.04442 7.80326 7.06786 2.75797 994.19812 -10097.86523)" gradientUnits="userSpaceOnUse"><stop offset="0" stop-opacity="0"/><stop offset=".493" stop-opacity=".024"/><stop offset=".571" stop-opacity=".035"/><stop offset=".636" stop-opacity=".067"/><stop offset=".696" stop-opacity=".15"/><stop offset=".73" stop-opacity=".213"/><stop offset="1" stop-opacity=".546"/></radialGradient><path d="M497.186 278.133C460.647 443.413 297 547.767 131.648 511.214s-269.757-200.17-233.218-365.45S98.627-123.87 263.97-87.317s269.757 200.17 233.218 365.45z" opacity=".26" fill-rule="evenodd" fill="url(#a)" enable-background="new"/><g opacity=".2" class="b c d"><g class="a"><path d="M198.565 520.015l.994-.107"/><path d="M205.326 518.315c11.814-5.094 18.69-20.092 23.818-31.597 15.534-36.285 21.202-73.4 27.18-111.443 10.32-78.827 12.205-160.935 7.815-241.572-3.898-55.45-9.9-110.953-24.327-162.34-7.21-21.585-13.703-46.74-32.753-60.545-1.492-.684-2.965-1.388-4.54-1.852" stroke-dasharray="1.99972,5.99917"/><path d="M198.565 520.015l1-.003"/><path d="M205.55 519.848c37.6-1.83 71.562-18.53 100.04-43.323 46.226-41.426 75.02-101.36 89.018-161.048 16.35-68.087 15.692-143.013-2.04-210.654-15.547-59.876-45.987-119.833-94.454-159-27.906-22.31-60.15-36.262-95.557-37.31" stroke-dasharray="1.99528,5.98585"/><path d="M198.905 520.015l1-.002"/><path d="M205.924 519.925c53.818-1.373 105.6-18.4 150.972-48.496 47.422-32.34 84.98-77.995 108.224-131.848 21.68-50.852 29.732-106.418 23.604-162.048-6.303-53.128-26.297-106.052-58.78-149.836-30.54-41.937-71.845-75.27-120.616-96.493-33.914-14.377-69.588-22.15-106.753-22.73" stroke-dasharray="2.00638,6.01914"/><path d="M198.226 520.015c-.335 0-.67 0-1.004-.001"/><path d="M191.246 519.934c-57.093-1.357-112.673-19.845-160.184-52.583-50.136-35.12-88.734-84.9-110.763-143.04-17.995-47.87-23.832-100.168-17.328-151.535 6.443-47.016 24-93.623 51.054-133.707C-9.964-13.49 42.68-54.982 103.77-75.59c29.157-10.232 59.576-15.427 90.808-15.93" stroke-dasharray="1.99236,5.97708"/><path d="M198.565 520.015a165.82 165.82 0 0 1-1-.001"/><path d="M191.584 519.882c-39.16-1.6-75.113-17.253-106.16-41.318-34.517-27.93-61.192-65.857-79.774-107.904-25.33-59.14-34.85-123.136-30.31-188.37 4.79-58.44 21.252-115.48 52.324-166.484 23.66-36.997 55.27-70.02 95.134-89.358 22.148-10.915 46.313-17.288 71.777-17.95" stroke-dasharray="1.99432,5.98296"/><path d="M198.565 520.015l-.998-.066"/><path d="M191.68 518.953c-17.93-4.68-29.195-23.277-37.964-39.03-13.91-27.888-21.152-54.9-28.2-84.94-15.288-73.924-19.523-151.817-16.31-229.34 3.425-60.984 10.78-122.1 28.88-178.716 9.154-25.934 20.208-56.267 43.83-73.39 4.082-2.324 8.184-4.118 12.674-4.8" stroke-dasharray="1.99134,5.97401"/><path d="M153.377 479.243l1 .001"/><path d="M160.32 479.253l187.174-.332" stroke-dasharray="1.98063,5.9419"/><path d="M350.46 478.908l1-.004"/><path d="M45.672 478.903h1"/><path d="M52.894 478.903h41.364l.68.34h54.328" stroke-dasharray="2.07422,6.22267"/><path d="M152.377 479.243h1"/><path d="M120.42 367.12h1"/><path d="M127.4 367.12h331.853" class="e"/><path d="M462.24 367.12h1"/><path d="M-59.027 367.12h175.405" class="f"/><path d="M119.42 367.12h1"/><path d="M108.188 214.227h1"/><path d="M115.13 214.227h385.25" stroke-dasharray="1.98073,5.94218"/><path d="M503.353 214.227h1"/><path d="M-100.24 214.227h204.435" stroke-dasharray="1.99449,5.98347"/><path d="M107.188 214.227h1"/><path d="M120.42 61.334h1"/><path d="M127.4 61.334h331.853" class="e"/><path d="M462.24 61.334h1"/><path d="M-59.027 61.334h175.405" class="f"/><path d="M119.42 61.334h1"/></g></g></g><g fill="#fff"><path d="M604.84 201.056h-27.16v87.92c0 2.52-1.96 3.92-4.06 3.92-1.82 0-3.92-1.26-3.92-3.92v-87.92h-27.16c-2.52 0-4.06-1.82-4.06-3.92 0-1.96 1.4-3.92 4.06-3.92h62.3c2.52 0 3.92 1.96 3.92 3.92s-1.4 3.92-3.92 3.92zm73.64 91.84c-1.96 0-4.06-1.4-4.06-3.92v-40.88a23.84 23.84 0 0 0-23.94-23.939c-13.16 0-23.94 10.64-23.94 23.94v40.88c0 2.52-2.1 3.92-3.92 3.92-1.96 0-4.06-1.4-4.06-3.92v-91.84c0-2.52 2.1-3.92 4.06-3.92 1.82 0 3.92 1.4 3.92 3.92v29.82c5.88-6.86 14.42-10.78 23.94-10.78 17.36 0 31.92 14.42 31.92 31.92v40.88c0 2.52-2.1 3.92-3.92 3.92z"/><use xlink:href="#I"/><use xlink:href="#J"/><use xlink:href="#I" x="182.275"/><use xlink:href="#K"/><path d="M345.143 427.896a4.08 4.08 0 0 1-3.64-2.38l-8.96-21.56h-50.4l-8.96 21.56c-.56 1.54-2.24 2.38-3.5 2.38-2.1 0-4.06-1.54-4.06-3.78 0-.7 0-1.12.28-1.82l37.8-91.7c.7-1.68 2.38-2.66 4.06-2.66 1.4 0 2.66.84 3.36 2.66l37.8 91.7c.28.7.28 1.12.28 1.82 0 2.24-1.96 3.78-4.06 3.78zm-37.8-85.26l-21.98 53.34h44.1l-22.12-53.34z"/><use xlink:href="#L"/><use xlink:href="#M"/><use xlink:href="#N"/><use xlink:href="#O"/><use xlink:href="#P"/><use xlink:href="#J" x="-179.058" y="135"/><path d="M758.836 430.415c-19.18 0-35.14-15.4-35.14-35.14v-63.14c0-2.52 2.1-3.92 4.06-3.92s4.06 1.4 4.06 3.92v63.14c0 14.84 12.18 27.16 27.02 27.16s27.16-12.32 27.16-27.16v-63.14c0-2.52 2.1-3.92 4.06-3.92 1.82 0 3.92 1.4 3.92 3.92v63.14c0 19.18-15.4 35.14-35.14 35.14z"/><use xlink:href="#J" x="5.319" y="135"/><use xlink:href="#N" x="442.674"/><use xlink:href="#Q"/><use xlink:href="#R"/><use xlink:href="#S"/><use xlink:href="#P" x="-321.011" y="135"/><use xlink:href="#T"/><use xlink:href="#T" x="62.301"/><use xlink:href="#S" x="293.019"/><use xlink:href="#Q" x="-399.967" y="135"/><use xlink:href="#M" x="185.083" y="135"/><use xlink:href="#U"/><use xlink:href="#P" x="158.902" y="135"/><use xlink:href="#V"/><use xlink:href="#V" x="23.658"/><use xlink:href="#Q" x="-82.878" y="135"/><use xlink:href="#K" x="-56.699" y="270"/><use xlink:href="#T" x="694.388"/><use xlink:href="#W"/><use xlink:href="#N" x="-191.37" y="270"/><use xlink:href="#T" x="-29.535" y="135"/><use xlink:href="#P" x="-202.578" y="270"/><path d="M458.268 664.355h-43.82c-2.52 0-4.06-2.1-4.06-4.06 0-1.82 1.54-3.92 4.06-3.92h43.82c2.66 0 4.06 2.1 4.06 3.92 0 1.96-1.4 4.06-4.06 4.06z"/><use xlink:href="#L" x="116.767" y="270"/><use xlink:href="#M" x="113.966" y="270"/><use xlink:href="#I" x="-144.335" y="405"/><use xlink:href="#I" x="-64.817" y="405"/><use xlink:href="#U" x="103.597" y="135"/><use xlink:href="#M" x="371.558" y="270"/><use xlink:href="#P" x="276.78" y="270"/><use xlink:href="#W" x="706.706"/><use xlink:href="#I" x="257.455" y="405"/><use xlink:href="#V" x="253.114" y="135"/><path d="M570.12 835.275c-12.18 0-21.28-5.04-27.16-13.3v7c0 2.52-2.1 3.92-3.92 3.92-1.96 0-4.06-1.4-4.06-3.92v-91.84c0-2.52 2.1-3.92 4.06-3.92 1.82 0 3.92 1.4 3.92 3.92v32.2c5.88-8.12 14.98-13.16 27.16-13.16 22.54 0 35.14 18.48 35.14 39.48 0 21.14-12.6 39.62-35.14 39.62zm0-71.12c-16.66 0-27.16 13.3-27.16 31.5s10.5 31.64 27.16 31.64 27.16-13.44 27.16-31.64-10.5-31.5-27.16-31.5z"/><use xlink:href="#I" x="-79.1" y="540"/><use xlink:href="#U" x="59.215" y="270"/><use xlink:href="#K" x="-220.496" y="540"/><use xlink:href="#I" x="134.536" y="540"/><use xlink:href="#I" x="211.254" y="540"/><use xlink:href="#R" x="0.001" y="405"/><use xlink:href="#X"/><use xlink:href="#X" x="64.26"/><use xlink:href="#O" x="56.558" y="540"/><use xlink:href="#Q" x="-315.416" y="540"/><path d="M725.235 967.896c-1.96 0-4.06-1.4-4.06-3.92v-4.48c-5.88 6.86-14.42 10.78-23.94 10.78-17.36 0-31.92-14.56-31.92-31.92v-40.88c0-2.52 2.1-3.92 4.06-3.92 1.82 0 3.92 1.4 3.92 3.92v40.88a23.84 23.84 0 1 0 47.88 0v-40.88c0-2.52 2.1-3.92 4.06-3.92 1.82 0 3.92 1.4 3.92 3.92v66.5c0 2.52-2.1 3.92-3.92 3.92z"/><use xlink:href="#J" x="-61.6" y="675"/><use xlink:href="#U" x="182.272" y="405"/><use xlink:href="#M" x="455.834" y="540"/><use xlink:href="#N" x="455.833" y="540"/><use xlink:href="#I" x="224.412" y="675"/><use xlink:href="#T" x="694.385" y="405"/></g></svg>