<svg xmlns="http://www.w3.org/2000/svg" xmlns:xlink="http://www.w3.org/1999/xlink" viewBox="0 0 1080 1080"><linearGradient id="A" gradientUnits="userSpaceOnUse" x1="11.716" y1="11.716" x2="1068.284" y2="1068.284"><stop offset="0" stop-color="#d83c70"/><stop offset="1" stop-color="#605cfb"/></linearGradient><path d="M1040 1080H40c-22.09 0-40-17.91-40-40V40C0 17.91 17.91 0 40 0h1000c22.09 0 40 17.91 40 40v1000c0 22.09-17.91 40-40 40z" fill="url(#A)"/><g opacity=".3" fill="#fff"><path d="M42.328 1046.045c-3.568 0-5.47-1.97-5.503-2.002 0 .935-.7 1.4-1.468 1.4-.7 0-1.4-.467-1.4-1.4v-20.88a1.35 1.35 0 0 1 1.401-1.434c.767 0 1.468.467 1.468 1.4v6.238c1.334-1.368 3.168-2.17 5.503-2.17 5.37 0 8.373 4.403 8.373 9.406 0 5.037-3.002 9.44-8.373 9.44zm0-16c-3.335 0-5.503 2.602-5.503 6.57 0 4.003 2.168 6.604 5.503 6.604s5.504-2.602 5.504-6.604c0-3.97-2.168-6.57-5.504-6.57zm25.555 8.037h-12.34c.467 3.136 2.468 5.137 5.403 5.137 1.5 0 3.002-.533 3.97-1.734.3-.333.634-.533 1.034-.533.734 0 1.5.667 1.5 1.468 0 .4-.1.7-.8 1.4-1.5 1.468-3.57 2.235-5.704 2.235-5.37 0-8.372-4.437-8.372-9.44 0-4.97 3.002-9.406 8.372-9.406 5.437 0 8.34 4.437 8.34 9.406 0 .734-.534 1.468-1.4 1.468zm-6.937-8.038c-3.136 0-4.97 2.3-5.403 5.17H66.35c-.467-3.202-2.468-5.17-5.403-5.17zM88 1045.478c-1.834 0-2.668-1.3-2.97-1.9-1.334 1.468-3.27 2.47-5.87 2.47-5.437 0-8.372-4.47-8.372-9.44s3.002-9.406 8.372-9.406c2.335 0 4.203.834 5.504 2.202v-.134c0-.367.133-1.5 1.4-1.5.7 0 1.468.367 1.468 1.4v12.875c0 .434.3.6.467.6.935 0 1.435.667 1.435 1.434a1.37 1.37 0 0 1-1.435 1.401zm-8.84-15.443c-3.336 0-5.504 2.602-5.504 6.57 0 4.003 2.168 6.604 5.504 6.604 3.37 0 5.504-2.602 5.504-6.604 0-3.97-2.135-6.57-5.504-6.57z"/><use xlink:href="#D"/><path d="M115.158 1045.478h-.567c-3.17 0-4.37-1.668-4.37-4.403V1030.6h-1c-.8 0-1.435-.634-1.435-1.4 0-.8.634-1.435 1.4-1.435h1v-4.637c0-.934.7-1.4 1.435-1.4s1.4.467 1.4 1.4v4.637h2.135c.934 0 1.4.768 1.4 1.4 0 .8-.533 1.434-1.4 1.434h-2.135v10.774c0 .934.333 1.268 1.268 1.268h.833c.868 0 1.435.634 1.435 1.4 0 .8-.533 1.435-1.4 1.435zm4.604-20.415a2.402 2.402 0 1 1 0-4.803 2.402 2.402 0 1 1 0 4.803zm0 20.414c-.733 0-1.467-.5-1.467-1.4V1029.2c0-.935.733-1.435 1.467-1.435a1.37 1.37 0 0 1 1.401 1.435v14.876c0 .935-.7 1.4-1.4 1.4zm10.376-14.877h-1.5v13.442c0 .935-.7 1.4-1.468 1.4-.7 0-1.4-.467-1.4-1.4V1030.6h-1.37c-.9 0-1.4-.667-1.4-1.4 0-.768.5-1.435 1.4-1.435h1.367v-2.27c0-2.135 1.77-3.77 3.836-3.77.968 0 1.468.667 1.468 1.434 0 .7-.5 1.4-1.468 1.4-.566 0-.967.434-.967.9v2.302h1.5c.967 0 1.468.667 1.468 1.435 0 .733-.5 1.4-1.468 1.4z"/><use xlink:href="#D" x="42.068"/><path d="M154.725 1045.544c-1.802 0-3.336-1.534-3.336-3.402v-18.98c0-.967.7-1.434 1.435-1.434s1.435.467 1.435 1.4v19.013c0 .4.3.567.467.567.934 0 1.435.667 1.435 1.435 0 .733-.5 1.4-1.435 1.4zm15.37-.066v-1.264c1.886-.237 2.046-.437 2.046-3.157v-6.7c0-2.8-1.248-4.017-3.064-4.017-1.237 0-2.345.6-3.47 1.493v9.476c0 2.527.187 2.658 2.06 2.896v1.264h-8.968v-1.264c2.254-.33 2.5-.4 2.5-3v-8.2c0-2.446-.303-2.565-2.185-2.922v-1.184c2.173-.292 4.63-.807 6.653-1.533l-.052 2.95 2.6-1.745c1.16-.713 2-1.086 3.16-1.086 3.194 0 5.2 2.338 5.2 6.3v7.5c0 2.54.237 2.657 2.277 2.92v1.264h-8.74zm23.9-3.703c-2.458 3.427-5.488 4.178-7.014 4.178-5.142 0-8.124-3.936-8.124-8.594 0-2.745 1.183-5.396 2.832-7.062 1.74-1.8 3.945-2.814 6.082-2.814 3.73 0 6.396 3.126 6.37 6.347-.014.715-.08 1.277-.612 1.4-.767.184-6.17.5-10.318.647.062 4.587 2.717 6.74 5.556 6.74 1.572 0 3.104-.597 4.543-1.866l.686 1.014zm-7.07-12.7c-1.667 0-3.167 1.807-3.516 4.963l5.486-.118c.6-.026.848-.146.848-.792.04-2.022-1.037-4.053-2.818-4.053zm34.284.145c-1.943.343-2.248.624-3.105 2.765-1.33 3.462-3.102 8.53-4.934 13.94h-1.512l-4.65-11.46-4.55 11.46h-1.472l-4.685-14.192c-.687-1.985-.94-2.274-2.855-2.512v-1.25h9.397v1.25c-2.325.345-2.535.672-2.058 2.133l2.52 8.214c1.507-3.68 2.988-7.62 4.327-11.424h1.456c1.4 3.76 2.986 7.702 4.573 11.568.742-2.107 2.062-5.964 2.557-8.108.412-1.674-.008-2.078-2.753-2.383v-1.25h7.742v1.25zm9.4 3.746c-.92-2.606-2.155-3.984-4.2-3.984-1.206 0-2.225.86-2.225 2.266 0 1.497 1.046 2.264 3.16 3.216 3.278 1.496 5.3 2.787 5.3 5.736 0 3.85-3.6 5.764-6.945 5.764-2.06 0-4.088-.737-4.92-1.16l-.662-4.892 1.252-.224c.8 2.5 2.33 4.75 4.976 4.75 1.505 0 2.438-.952 2.438-2.28 0-1.423-.76-2.333-3.092-3.467-2.67-1.295-5.107-2.64-5.107-5.775 0-3.046 2.533-5.42 6.565-5.42 1.818 0 3.242.396 4.112.567l.62 4.577-1.25.328z"/></g><g opacity=".5" fill="#fff"><use xlink:href="#E"/><use xlink:href="#F"/><path d="M768.363 1045.98c-.28 0-.58-.2-.58-.56v-.64c-.84.98-2.06 1.54-3.42 1.54-2.48 0-4.56-2.08-4.56-4.56v-5.842c0-.36.3-.56.58-.56.26 0 .56.2.56.56v5.842c0 1.9 1.52 3.42 3.42 3.42s3.42-1.52 3.42-3.42v-5.842c0-.36.3-.56.58-.56.26 0 .56.2.56.56v9.502c0 .36-.3.56-.56.56z"/><use xlink:href="#G"/><use xlink:href="#H"/><use xlink:href="#I"/><path d="M802.06 1039.416c-.64 0-1.16-.5-1.16-1.14s.52-1.14 1.16-1.14c.62 0 1.12.5 1.12 1.14s-.5 1.14-1.12 1.14zm0 6.563c-.64 0-1.16-.5-1.16-1.14s.52-1.14 1.16-1.14c.62 0 1.12.5 1.12 1.14s-.5 1.14-1.12 1.14zm18.682-1.842c-.98 1.36-2.38 2.182-4.46 2.182-4.3 0-5.82-3.56-5.82-7.46 0-3.922 1.52-7.482 5.82-7.482 2.02 0 3.5.8 4.44 2.18.1.102.12.2.12.32 0 .32-.3.56-.62.56a.53.53 0 0 1-.44-.22c-.72-1.04-1.8-1.7-3.5-1.7-3.32 0-4.682 2.6-4.682 6.342 0 3.72 1.36 6.32 4.682 6.32 1.7 0 2.8-.64 3.54-1.7.1-.2.28-.26.44-.26.3 0 .6.26.6.58a.63.63 0 0 1-.12.34z"/><use xlink:href="#J"/><path d="M844.42 1045.98c-.28 0-.58-.2-.58-.56v-5.842c0-1.9-1.52-3.42-3.42-3.42a3.42 3.42 0 0 0-3.421 3.42v5.842c0 .36-.3.56-.56.56-.28 0-.58-.2-.58-.56v-9.502c0-.36.3-.56.58-.56.26 0 .56.2.56.56v.64c.9-.98 2.08-1.54 3.42-1.54a4.6 4.6 0 0 1 4.561 4.561v5.842c0 .36-.3.56-.56.56z"/><use xlink:href="#H" x="69.28"/><use xlink:href="#I" x="69.28"/><use xlink:href="#G" x="98.538"/><path d="M891.242 1045.998c-.16 0-.32-.08-.42-.24l-4.302-5.94h-3.58v5.602c0 .36-.3.56-.56.56-.28 0-.58-.2-.58-.56v-13.123c0-.3.28-.56.58-.56h5.4c2.26 0 4.06 1.8 4.06 4.02 0 2.2-1.72 3.94-3.9 4.06l3.78 5.242c.1.12.14.24.14.36 0 .3-.3.58-.62.58zm-3.44-13.143h-4.86v5.82h4.84a2.91 2.91 0 0 0 2.921-2.92c0-1.82-1.54-2.9-2.9-2.9z"/><use xlink:href="#I" x="105.498"/><use xlink:href="#E" x="167.998"/><use xlink:href="#I" x="126.958"/><use xlink:href="#J" x="104.96"/><use xlink:href="#G" x="169.058"/><use xlink:href="#H" x="169.06"/><path d="M966.68 1045.98c-.28 0-.58-.2-.58-.56v-5.842c0-1.9-1.52-3.42-3.42-3.42a3.42 3.42 0 0 0-3.421 3.42v5.842c0 .36-.3.56-.56.56-.28 0-.58-.2-.58-.56v-13.123c0-.36.3-.56.58-.56.26 0 .56.2.56.56v4.262c.84-.98 2.06-1.54 3.42-1.54a4.6 4.6 0 0 1 4.561 4.561v5.842c0 .36-.3.56-.56.56zm17.56.018c-.18 0-.34-.12-.48-.32l-7.82-11.543v11.283c0 .36-.3.56-.56.56-.28 0-.58-.2-.58-.56v-13.123c0-.34.3-.6.6-.6.18 0 .34.12.48.32l7.822 11.54v-11.262c0-.36.3-.56.56-.56.28 0 .58.2.58.56v13.123c0 .34-.3.58-.6.58zm12.46-4.762h-8.3c.18 2.28 1.66 3.94 3.84 3.94 1.08 0 2.36-.48 2.94-1.38.14-.22.3-.28.48-.28.3 0 .62.24.62.54 0 .18 0 .22-.38.658-.92 1.082-2.26 1.602-3.66 1.602-3.22 0-5.02-2.64-5.02-5.662 0-3 1.8-5.64 5.02-5.64s5.02 2.66 5.02 5.64c0 .3-.28.58-.56.58zm-4.46-5.08c-2.4 0-3.66 1.84-3.84 3.94h7.7c-.18-2.28-1.66-3.94-3.86-3.94zm11.06 9.824h-.62c-1.58 0-2.36-.78-2.36-2.342v-7.14h-1.02c-.36 0-.56-.3-.56-.58 0-.26.2-.56.56-.56h1.02v-3.06c0-.36.3-.56.58-.56s.56.2.56.56v3.06h1.84c.36 0 .56.3.56.56 0 .28-.2.58-.56.58h-1.84v7.14c0 .98.28 1.2 1.22 1.2h.62c.36 0 .56.3.56.58 0 .26-.2.56-.56.56zm15.54-9.884l-3.26 9.402c-.14.38-.32.48-.58.48-.34 0-.44-.12-.56-.48l-2.62-7.803-2.62 7.803c-.14.38-.32.48-.58.48s-.46-.16-.56-.48l-3.24-9.402a.85.85 0 0 1-.04-.22c0-.318.32-.52.58-.52.2 0 .44.1.52.38l2.74 7.922 2.62-7.822c.12-.38.24-.48.58-.48.24 0 .44.08.56.48l2.66 7.822 2.7-7.922c.1-.28.3-.38.52-.38.3 0 .62.2.62.54 0 .08-.02.14-.04.2z"/><use xlink:href="#F" x="272.778"/><use xlink:href="#G" x="260.998"/><path d="M1046.838 1036.336l-3.44 3.44 3.4 5.32c.06.08.12.2.12.32 0 .28-.3.54-.6.54-.18 0-.36-.08-.48-.262l-3.28-5.1-2.06 2.08v2.74c0 .36-.3.56-.56.56-.28 0-.58-.2-.58-.56v-13.123c0-.36.3-.56.58-.56.26 0 .56.2.56.56v8.762l5.52-5.52c.14-.14.28-.18.42-.18.32 0 .58.26.58.56a.56.56 0 0 1-.181.42z"/></g><path d="M867.014 900.813l6.892-11.937 69.626 40.2-6.892 11.937zM1007.7 963.9c20.13-18.98 32.863-45.677 32.863-75.45 0-36.7-19.265-69.794-49.24-88.388l33.565-58.125-5.276-3.057 8.303-14.376-21.702-12.533-8.303 14.364-5.568-3.203-82.537 142.982 7.223 4.17-10.235 17.722 18.1 10.45 10.238-17.702 7.203 4.165 34.703-60.128c21.307 13.557 34.936 37.32 34.936 63.656 0 41.612-33.856 75.45-75.47 75.45H875.68v28.574h171.197V963.9h-39.186z" fill="#b57eee"/><g fill="#fd96ff"><path d="M124.394 131.183c-2.044 6.716-5.694 17.666-8.322 22.483-4.088 1.022-16.497 3.942-26.863 3.942-36.79 0-52.85-25.257-52.85-48.325 0-30.66 23.506-50.953 56.646-50.953 11.826 0 21.9 3.212 25.842 3.942l3.065 22.337-4.525 1.022c-3.942-15.768-13.14-21.753-28.178-21.753-23.797 0-36.5 20.44-36.5 42.485 0 27.155 15.622 45.697 37.52 45.697 14.453 0 22.337-8.03 29.783-22.483l4.38 1.606z"/><use xlink:href="#K"/><path d="M218.123 155.418v-3.942c8.176-.876 9.198-1.898 9.198-12.118v-24.38c0-10.22-3.796-16.206-12.702-16.206-5.4 0-10.804 3.358-15.037 7.008v34.455c0 9.782.876 10.366 9.052 11.242v3.942H176.37v-3.942c9.636-1.022 10.366-1.752 10.366-11.388v-30.22c0-9.198-.876-9.636-8.614-11.096V95.27c7.3-1.314 14.6-3.212 21.462-5.986v11.534c2.92-2.2 5.985-4.38 9.636-6.716 4.233-2.774 7.737-4.38 11.972-4.38 11.68 0 18.833 8.176 18.833 22.337v28.177c0 9.782.876 10.22 9.198 11.242v3.942h-31.098zm83.51-13.286c-6.57 8.614-16.205 15.038-24.82 15.038-18.833 0-29.783-14.892-29.783-30.66 0-11.096 5.1-21.023 14.746-28.323 7.884-6.132 16.8-8.468 22.483-8.468 5.84 0 10.657 1.898 12.848 3.796 2.044 1.606 2.48 2.92 2.48 4.526 0 3.358-3.357 6.716-5.1 6.716-.876 0-1.606-.438-2.774-1.606-4.817-4.38-9.78-6.278-14.745-6.278-8.906 0-16.936 7.592-16.936 22.92 0 20.147 13.87 26.863 21.753 26.863 6.132 0 10.804-1.752 17.228-7.738l2.628 3.212zm49.93.584c-9.197 11.826-19.417 14.454-24.235 14.454-18.25 0-28.76-14.6-28.76-31.097 0-10.22 3.796-19.27 9.78-25.695 6.132-6.716 14.016-10.658 21.607-10.658 12.4 0 22.338 10.95 22.2 22.483 0 2.92-.584 4.234-3.504 4.818-2.336.292-20.585 1.752-37.52 2.336.292 19.125 11.24 27.3 21.46 27.3 5.84 0 11.388-2.336 16.644-7.154l2.336 3.212zM312 113.225c7.737 0 15.33-.146 23.36-.438 2.48 0 3.357-.73 3.357-2.92.146-7.592-4.525-14.746-12.117-14.746-6.424 0-12.702 6.278-14.6 18.104zm61.17-8.03c4.526-7.738 10.658-15.476 17.374-15.476 5.256 0 8.76 3.942 8.76 7.592 0 3.358-2.044 6.424-5.1 7.884-1.752.73-3.065.438-3.94-.438-2.2-2.044-3.942-2.92-6.424-2.92-3.504 0-7.884 3.796-10.95 11.534v26.863c0 9.5.73 10.366 11.972 11.242v3.942h-34.747v-3.942c8.906-.876 9.928-1.752 9.928-11.242V109.72c0-9.344-.73-9.782-8.76-11.096v-3.358c7.446-1.168 14.162-2.92 21.607-5.84v15.768h.292zm122.347-21.607c-1.606-7.154-3.066-10.95-4.964-13.432-2.482-3.212-4.964-4.38-15.622-4.38h-9.636v71.392c0 11.68 1.168 13.14 14.892 14.016v4.234h-42.923v-4.234c13.14-.876 14.308-2.336 14.308-14.016V65.776h-8.32c-12.118 0-15.038 1.314-16.936 4.526-1.752 2.482-3.212 6.716-4.818 13.286h-4.525l1.752-26.717h3.065c2.044 3.358 3.942 3.65 8.03 3.65h57.96c3.942 0 5.256-.876 7.446-3.65h3.212c0 6.57.73 17.666 1.46 26.28l-4.38.438zm13.58 21.607c4.525-7.738 10.658-15.476 17.373-15.476 5.256 0 8.76 3.942 8.76 7.592 0 3.358-2.043 6.424-5.1 7.884-1.752.73-3.066.438-3.94-.438-2.2-2.044-3.942-2.92-6.424-2.92-3.504 0-7.885 3.796-10.95 11.534v26.863c0 9.5.73 10.366 11.972 11.242v3.942h-34.75v-3.942c8.905-.876 9.928-1.752 9.928-11.242V109.72c0-9.344-.73-9.782-8.76-11.096v-3.358c7.445-1.168 14.16-2.92 21.607-5.84v15.768h.292zm73.582 37.52c-9.197 11.826-19.417 14.454-24.234 14.454-18.25 0-28.762-14.6-28.762-31.097 0-10.22 3.796-19.27 9.78-25.695 6.133-6.716 14.016-10.658 21.607-10.658 12.4 0 22.338 10.95 22.2 22.483 0 2.92-.584 4.234-3.504 4.818-2.336.292-20.585 1.752-37.52 2.336.292 19.125 11.24 27.3 21.462 27.3 5.84 0 11.387-2.336 16.643-7.154l2.336 3.212zm-39.564-29.5c7.738 0 15.33-.146 23.36-.438 2.482 0 3.357-.73 3.357-2.92.146-7.592-4.525-14.746-12.117-14.746-6.424 0-12.7 6.278-14.6 18.104zm85.26 43.944c-2.482 0-5.55-1.314-7.154-2.92-1.898-1.898-2.92-3.942-3.504-6.278-5.84 3.942-12.848 9.198-16.936 9.198-10.658 0-17.957-8.906-17.957-17.958 0-7.3 3.795-11.68 11.68-14.308 8.76-3.066 19.563-7.008 22.775-9.636v-2.92c0-10.22-4.672-16.06-11.68-16.06-2.63 0-4.818 1.022-6.278 2.774-1.752 2.044-3.065 5.256-4.233 9.782-.73 2.628-2.336 3.65-4.672 3.65-2.774 0-6.862-2.92-6.862-6.424 0-2.336 1.897-3.942 4.817-6.132 4.234-3.066 14.016-8.614 22.338-10.22 4.525 0 9.052 1.314 12.264 3.942 5.402 4.38 6.86 10.366 6.86 18.25v26.57c0 6.57 2.482 8.614 4.965 8.614 1.752 0 3.795-.73 5.256-1.46l1.46 3.942-13.14 7.592zm-11.096-36.8c-3.066 1.606-9.053 4.38-12.264 5.84-5.402 2.628-8.47 5.256-8.47 10.658 0 7.592 5.694 11.096 10.074 11.096 3.504 0 8.03-2.2 10.658-4.672v-22.92zm46.135 34.892c-2.48 1.314-4.672 1.898-5.985 1.898-9.636 0-15.038-5.694-15.038-17.52V97.458h-9.928l-.584-1.606 3.942-4.38h6.57V80.814l10.805-9.928 1.897.438V91.47H671.3c1.46 1.46 1.02 4.818-.877 5.986h-15.33v37.23c0 11.68 4.964 13.724 8.614 13.724 3.357 0 6.57-1.168 8.613-2.2l1.314 3.942-10.22 5.1z"/><path d="M750.284 155.418v-3.942c8.176-.876 9.636-1.606 9.636-11.68V115.27c0-10.658-3.942-16.352-12.264-16.352-4.964 0-10.073 2.628-15.476 7.008.292 1.752.438 3.504.438 6.132v28.615c0 9.052 1.314 9.928 9.053 10.804v3.942H709.99v-3.942c8.613-.876 9.78-1.606 9.78-10.95v-25.403c0-10.804-3.94-16.352-12.264-16.352-5.4 0-10.803 3.65-15.037 7.154v34.6c0 9.198 1.168 10.074 8.03 10.95v3.942h-31.535v-3.942c9.5-.876 10.658-1.606 10.658-11.242v-30.22c0-9.198-.437-9.928-8.613-11.242v-3.504c6.424-1.168 14.307-3.066 21.314-5.986v11.826c3.066-2.2 6.133-4.672 10.366-7.3 3.942-2.482 7.446-4.088 12.118-4.088 7.153 0 13.285 4.526 16.205 11.972 4.234-3.212 8.322-5.84 11.826-8.176 3.21-2.044 7.008-3.796 11.096-3.796 11.68 0 18.833 8.176 18.833 22.483v28.177c0 9.636.876 10.074 9.198 11.096v3.942h-31.682z"/><use xlink:href="#L"/><path d="M872.63 155.418v-3.942c8.176-.876 9.198-1.898 9.198-12.118v-24.38c0-10.22-3.796-16.206-12.702-16.206-5.4 0-10.803 3.358-15.037 7.008v34.455c0 9.782.876 10.366 9.052 11.242v3.942h-32.265v-3.942c9.635-1.022 10.365-1.752 10.365-11.388v-30.22c0-9.198-.876-9.636-8.613-11.096V95.27c7.3-1.314 14.6-3.212 21.46-5.986v11.534c2.92-2.2 5.986-4.38 9.636-6.716 4.233-2.774 7.737-4.38 11.972-4.38 11.68 0 18.834 8.176 18.834 22.337v28.177c0 9.782.875 10.22 9.197 11.242v3.942H872.63zm55.624-.146c-2.48 1.314-4.672 1.898-5.985 1.898-9.636 0-15.038-5.694-15.038-17.52V97.458h-9.928l-.584-1.606 3.942-4.38h6.57V80.814l10.805-9.928 1.897.438V91.47h16.206c1.46 1.46 1.02 4.818-.877 5.986h-15.33v37.23c0 11.68 4.964 13.724 8.614 13.724 3.357 0 6.57-1.168 8.613-2.2l1.314 3.942-10.22 5.1zm-812.62 79.198c-1.606-7.154-3.066-10.95-4.964-13.432-2.482-3.212-4.964-4.38-15.622-4.38h-9.636v71.392c0 11.68 1.168 13.14 14.892 14.016v4.234H57.38v-4.234c13.14-.876 14.308-2.336 14.308-14.016v-71.4h-8.32c-12.118 0-15.038 1.314-16.936 4.526-1.752 2.482-3.212 6.716-4.818 13.286H37.09l1.752-26.717h3.065c2.044 3.358 3.942 3.65 8.03 3.65h57.96c3.942 0 5.256-.876 7.446-3.65h3.212c0 6.57.73 17.666 1.46 26.28l-4.38.438zm13.58 21.608c4.526-7.738 10.658-15.476 17.374-15.476 5.256 0 8.76 3.942 8.76 7.592 0 3.358-2.044 6.424-5.1 7.884-1.752.73-3.065.438-3.94-.438-2.2-2.044-3.942-2.92-6.424-2.92-3.504 0-7.884 3.796-10.95 11.534v26.863c0 9.5.73 10.366 11.972 11.242v3.942h-34.747v-3.942c8.906-.876 9.928-1.752 9.928-11.242v-30.513c0-9.344-.73-9.782-8.76-11.096v-3.358c7.446-1.168 14.162-2.92 21.607-5.84v15.768h.292zm25.26 50.222v-3.942c9.052-.876 10.074-1.752 10.074-11.68v-29.93c0-9.198-.584-9.782-8.906-11.096v-3.65c7.592-1.168 15.038-3.066 21.754-5.548v50.223c0 9.928.876 10.804 10.22 11.68v3.942h-33.142zm7.738-85.7c0-4.672 3.65-8.176 8.03-8.176 4.234 0 7.738 3.504 7.738 8.176 0 4.234-3.504 7.884-7.884 7.884-4.234 0-7.884-3.65-7.884-7.884zm68.763 87.453c-2.48 0-5.548-1.314-7.153-2.92-1.898-1.898-2.92-3.942-3.504-6.278-5.84 3.942-12.848 9.198-16.936 9.198-10.658 0-17.958-8.906-17.958-17.958 0-7.3 3.796-11.68 11.68-14.308 8.76-3.066 19.563-7.008 22.775-9.636v-2.92c0-10.22-4.672-16.06-11.68-16.06-2.628 0-4.817 1.022-6.277 2.774-1.752 2.044-3.066 5.256-4.234 9.782-.73 2.628-2.336 3.65-4.672 3.65-2.773 0-6.86-2.92-6.86-6.424 0-2.336 1.897-3.942 4.817-6.132 4.234-3.066 14.016-8.614 22.338-10.22 4.525 0 9.052 1.314 12.264 3.942 5.4 4.38 6.86 10.366 6.86 18.25v26.57c0 6.57 2.482 8.614 4.964 8.614 1.752 0 3.796-.73 5.256-1.46l1.46 3.942-13.14 7.592zm-11.096-36.8c-3.065 1.606-9.052 4.38-12.264 5.84-5.4 2.628-8.468 5.256-8.468 10.658 0 7.592 5.694 11.096 10.074 11.096 3.504 0 8.03-2.2 10.657-4.672v-22.92zm23.36 35.037v-3.942c9.198-1.022 10.366-1.752 10.366-11.388v-68.764c0-9.636-.876-10.074-9.928-10.95v-3.504c7.737-.876 17.228-3.358 22.63-5.1v88.328c0 9.636 1.168 10.512 10.512 11.388v3.942h-33.58zm71.1-46.426c-2.92-8.614-7.884-14.454-15.037-14.454-5.256 0-9.052 4.088-9.052 9.636 0 6.132 5.256 9.5 11.972 12.4 11.24 4.672 18.688 9.782 18.688 20.147 0 13.578-12.556 20.44-24.382 20.44-7.592 0-14.453-2.774-17.08-4.964-1.022-2.044-2.336-12.118-2.482-17.666l4.088-.584c2.628 9.5 9.198 18.25 18.104 18.25 5.256 0 9.928-3.942 9.928-9.782 0-6.132-3.796-9.5-11.388-13.14-8.468-3.942-18.54-8.906-18.54-20.293 0-10.512 8.905-19.27 22.63-19.27 6.278 0 10.22 1.314 13.286 2.628 1.168 3.212 2.773 12.264 3.212 15.622l-3.942 1.022zm130.084-44.237c-11.826 1.022-12.994 1.752-12.994 14.016v58.398c0 12.264 1.168 12.994 12.994 14.016v4.234h-40.15v-4.234c12.264-1.022 13.432-1.752 13.432-14.016V259.3h-47.887v28.76c0 12.264 1.168 12.994 12.848 14.016v4.234H343.4v-4.234c11.533-1.022 12.7-1.752 12.7-14.016v-58.398c0-12.264-1.168-12.994-13.14-14.016v-4.234h38.98v4.234c-10.95 1.022-12.118 1.752-12.118 14.016v23.213h47.887v-23.213c0-12.118-1.168-12.994-12.4-14.016v-4.234h39.127v4.234z"/><use xlink:href="#K" x="317.547" y="150.883"/><path d="M558.153 246.296c-7.592 1.022-8.905 2.482-12.7 10.804-4.964 11.096-12.556 29.053-20.73 50.807h-4.233l-20.294-51.245c-3.358-8.03-4.526-9.198-12.264-10.366v-3.942h31.097v3.942c-7.737 1.022-8.03 2.2-5.84 8.176 3.65 10.22 9.5 25.403 13.286 35.04 4.672-11.096 9.49-24.38 12.556-33.87 2.19-6.716 1.314-8.322-6.86-9.344v-3.942h25.986v3.942z"/><use xlink:href="#L" x="-229.797" y="150.884"/><path d="M720.793 266.298c-8.468 1.314-9.197 2.044-9.197 10.804v12.264c0 5.1.146 9.782 1.02 13.724-8.906 2.2-21.17 5.402-32.703 5.402-32.557 0-54.02-19.855-54.02-48.9 0-33.725 27.155-50.37 56.063-50.37 12.264 0 23.36 3.212 28.177 4.234l2.336 23.067-4.38.876c-3.504-17.52-14.454-22.775-28.47-22.775-21.315 0-37.52 16.352-37.52 43.07 0 21.315 12.117 45.55 39.564 45.55 4.525 0 8.906-.876 11.826-2.482 2.773-1.46 4.38-3.504 4.38-9.198v-12.702c0-10.512-.875-11.388-15.33-12.556v-4.234h38.25v4.234zm19.713-10.22c4.525-7.738 10.658-15.476 17.373-15.476 5.256 0 8.76 3.942 8.76 7.592 0 3.358-2.043 6.424-5.1 7.884-1.752.73-3.066.438-3.94-.438-2.2-2.044-3.942-2.92-6.424-2.92-3.504 0-7.885 3.796-10.95 11.534v26.863c0 9.5.73 10.366 11.972 11.242v3.942H717.44v-3.942c8.905-.876 9.928-1.752 9.928-11.242v-30.513c0-9.344-.73-9.782-8.76-11.096v-3.358a99.03 99.03 0 0 0 21.607-5.84v15.768h.292zm70.954 51.975c-2.48 0-5.547-1.314-7.153-2.92-1.897-1.898-2.92-3.942-3.504-6.278-5.84 3.942-12.848 9.198-16.936 9.198-10.657 0-17.958-8.906-17.958-17.958 0-7.3 3.797-11.68 11.68-14.308 8.76-3.066 19.564-7.008 22.775-9.636v-2.92c0-10.22-4.672-16.06-11.68-16.06-2.627 0-4.817 1.022-6.277 2.774-1.752 2.044-3.066 5.256-4.234 9.782-.73 2.628-2.336 3.65-4.672 3.65-2.773 0-6.86-2.92-6.86-6.424 0-2.336 1.898-3.942 4.818-6.132 4.233-3.066 14.016-8.614 22.337-10.22 4.526 0 9.052 1.314 12.264 3.942 5.4 4.38 6.862 10.366 6.862 18.25v26.57c0 6.57 2.48 8.614 4.963 8.614 1.752 0 3.797-.73 5.256-1.46l1.46 3.942-13.14 7.592zm-11.096-36.8c-3.065 1.606-9.05 4.38-12.264 5.84-5.4 2.628-8.467 5.256-8.467 10.658 0 7.592 5.693 11.096 10.073 11.096 3.504 0 8.03-2.2 10.657-4.672v-22.92z"/><path d="M859.934 306.3v-3.942c8.176-.876 9.197-1.898 9.197-12.118v-24.38c0-10.22-3.796-16.206-12.7-16.206-5.402 0-10.805 3.358-15.038 7.008v34.455c0 9.782.876 10.366 9.052 11.242v3.942H818.18v-3.942c9.637-1.022 10.366-1.752 10.366-11.388v-30.22c0-9.198-.876-9.636-8.614-11.096v-3.504c7.3-1.314 14.6-3.212 21.462-5.986V251.7c2.92-2.2 5.985-4.38 9.636-6.716 4.234-2.774 7.738-4.38 11.972-4.38 11.68 0 18.833 8.176 18.833 22.337v28.177c0 9.782.877 10.22 9.198 11.242v3.942h-31.097zm55.623-.145c-2.482 1.314-4.672 1.898-5.986 1.898-9.636 0-15.037-5.694-15.037-17.52V248.34h-9.928l-.584-1.606 3.94-4.38h6.57v-10.658l10.803-9.928 1.898.438v20.147h16.205c1.46 1.46 1.022 4.818-.875 5.986h-15.33v37.23c0 11.68 4.964 13.724 8.613 13.724 3.358 0 6.57-1.168 8.614-2.2l1.313 3.942-10.22 5.1z"/><use xlink:href="#L" x="141.183" y="150.884"/><path d="M1044.9 302.505c-3.358.584-14.745 2.482-23.798 5.548v-9.344l-8.905 5.402c-5.4 3.212-8.905 3.942-10.657 3.942-11.826 0-27.447-10.658-27.447-31.243 0-20.147 17.52-36.207 37.96-36.207 1.897 0 5.693.292 9.05 1.46v-20.147c0-9.198-.875-9.636-10.95-10.512v-3.65c7.884-1.022 17.957-3.212 23.797-5.1v86.576c0 7.738.877 8.468 6.424 9.052l4.526.438v3.796zm-23.798-48.763c-3.357-5.1-9.05-7.592-14.16-7.592-6.278 0-18.396 5.402-18.396 26.717 0 17.52 10.658 25.695 19.563 25.695 4.817 0 9.5-2.044 12.993-4.526V253.74zM137.68 366.52c-8.613.73-11.972 2.774-12.7 8.614-.438 4.088-.876 10.22-.876 23.067v12.848c0 16.8-2.628 29.345-10.95 38.105-6.716 7.008-16.497 10.22-26.28 10.22-8.76 0-17.228-2.044-23.797-7.154-8.614-6.57-12.702-17.52-12.702-34.6v-36.06c0-13.286-1.313-13.87-12.7-15.038v-4.234H76.5v4.234c-11.242.876-12.4 1.752-12.4 15.038v32.85c0 23.36 9.052 36.645 26.718 36.645 20.293 0 27-16.8 27-41.025V398.2c0-12.848-.437-18.834-1.02-23.36-.876-5.548-3.942-7.592-14.162-8.322v-4.234h35.04v4.234zm45.112 18.25c-2.628-9.198-6.862-19.563-19.27-19.563-10.658 0-15.914 7.738-15.914 15.768 0 10.22 6.716 15.184 18.542 21.17 12.117 6.132 25.257 13.14 25.257 29.2 0 15.622-13.14 28.03-32.995 28.03-5.84 0-10.657-1.022-14.308-2.2-3.796-1.168-5.985-2.336-7.592-3.066-1.168-3.212-3.065-15.622-3.94-23.067l4.525-1.168c2.336 9.052 9.198 24.1 24.1 24.1 10.657 0 17.08-6.716 17.08-17.082s-7.737-15.622-18.687-21.46c-10.365-5.402-24.38-12.848-24.38-28.907 0-14.308 11.533-26.425 30.66-26.425 7.3 0 13.724 1.898 18.688 3.504.584 5.256 1.46 11.096 2.628 20.293l-4.38.876zm69.788-22.484c10.512 0 18.834 1.752 24.674 5.986 5.985 4.38 9.636 11.242 9.636 20.73 0 19.125-14.162 28.177-28.615 30.075a32.34 32.34 0 0 1-6.424.146l-10.658-2.774v22.483c0 12.264 1.168 13.14 14.162 14.016v4.234h-40.587v-4.234c11.533-.876 12.848-2.044 12.848-14.162v-57.96c0-12.848-1.314-13.432-11.972-14.308v-4.234h36.937zm-11.388 49.2c1.752.73 5.694 1.606 10.074 1.606 8.76 0 20.293-4.818 20.293-23.505 0-15.914-9.78-22.483-21.315-22.483-3.796 0-6.57.73-7.592 1.752-1.02.876-1.46 2.628-1.46 6.424v36.207z"/><use xlink:href="#K" x="160.013" y="301.766"/><path d="M364.706 457.038c-2.48 1.314-4.672 1.898-5.985 1.898-9.636 0-15.038-5.694-15.038-17.52v-42.193h-9.928l-.584-1.606 3.942-4.38h6.57V382.58l10.804-9.928 1.898.438v20.147H372.6c1.46 1.46 1.022 4.818-.876 5.986h-15.33v37.23c0 11.68 4.964 13.724 8.613 13.724 3.358 0 6.57-1.168 8.614-2.2l1.313 3.942-10.22 5.1zm11.97.146v-3.942c9.052-.876 10.073-1.752 10.073-11.68v-29.93c0-9.198-.584-9.782-8.905-11.096v-3.65c7.592-1.168 15.037-3.066 21.753-5.548v50.223c0 9.928.876 10.804 10.22 11.68v3.942h-33.14zm7.737-85.7c0-4.672 3.65-8.176 8.03-8.176 4.233 0 7.737 3.504 7.737 8.176 0 4.234-3.504 7.884-7.884 7.884-4.233 0-7.884-3.65-7.884-7.884zm75.626 72.998c-9.197 11.826-19.417 14.454-24.235 14.454-18.25 0-28.76-14.6-28.76-31.097 0-10.22 3.796-19.27 9.78-25.695 6.132-6.716 14.016-10.658 21.607-10.658 12.4 0 22.338 10.95 22.2 22.483 0 2.92-.584 4.234-3.504 4.818-2.336.292-20.585 1.752-37.52 2.336.292 19.125 11.24 27.3 21.46 27.3 5.84 0 11.388-2.336 16.644-7.154l2.336 3.212zm-39.564-29.5c7.737 0 15.33-.146 23.36-.438 2.48 0 3.357-.73 3.357-2.92.146-7.592-4.525-14.746-12.117-14.746-6.424 0-12.702 6.278-14.6 18.104zm79.422 42.192v-3.942c8.176-.876 9.198-1.898 9.198-12.118v-24.38c0-10.22-3.797-16.206-12.702-16.206-5.402 0-10.804 3.358-15.038 7.008V442c0 9.782.876 10.366 9.052 11.242v3.942h-32.265v-3.942c9.636-1.022 10.365-1.752 10.365-11.388v-30.22c0-9.198-.876-9.636-8.613-11.096v-3.504c7.3-1.314 14.6-3.212 21.46-5.986v11.534c2.92-2.2 5.986-4.38 9.636-6.716 4.234-2.774 7.738-4.38 11.972-4.38 11.68 0 18.834 8.176 18.834 22.337V442c0 9.782.876 10.22 9.197 11.242v3.942h-31.097zm55.624-.146c-2.48 1.314-4.672 1.898-5.985 1.898-9.636 0-15.038-5.694-15.038-17.52v-42.193h-9.928l-.584-1.606 3.942-4.38h6.57V382.58l10.805-9.928 1.897.438v20.147h16.206c1.46 1.46 1.02 4.818-.877 5.986H547.2v37.23c0 11.68 4.964 13.724 8.614 13.724 3.357 0 6.57-1.168 8.613-2.2l1.314 3.942-10.22 5.1zm47.303-46.28c-2.92-8.614-7.884-14.454-15.037-14.454-5.256 0-9.053 4.088-9.053 9.636 0 6.132 5.256 9.5 11.973 12.4 11.24 4.672 18.688 9.782 18.688 20.147 0 13.578-12.557 20.44-24.382 20.44-7.592 0-14.454-2.774-17.08-4.964-1.022-2.044-2.336-12.118-2.482-17.666l4.088-.584c2.628 9.5 9.197 18.25 18.104 18.25 5.256 0 9.928-3.942 9.928-9.782 0-6.132-3.796-9.5-11.388-13.14-8.468-3.942-18.542-8.906-18.542-20.293 0-10.512 8.906-19.27 22.63-19.27 6.278 0 10.22 1.314 13.286 2.628 1.168 3.212 2.773 12.264 3.2 15.622l-3.94 1.022zm126.43-2.2c0 31.535-22.2 50.807-49.055 50.807s-47.887-20.73-47.887-48.763c0-25.987 18.396-50.515 49.493-50.515 25.257 0 47.448 19.272 47.448 48.47zm-80.6-1.752c0 26.863 14.3 47.157 34.602 47.157 15.768 0 29.637-13.578 29.637-41.463 0-30.513-15.184-47-34.017-47-15.913 0-30.222 14.308-30.222 41.317z"/><path d="M797.585 397.18c-7.592 1.022-8.905 2.482-12.702 10.804-4.963 11.096-12.555 29.053-20.73 50.807h-4.234l-20.293-51.245c-3.358-8.03-4.526-9.198-12.264-10.366v-3.942h31.097v3.942c-7.737 1.022-8.03 2.2-5.84 8.176 3.65 10.22 9.49 25.403 13.286 35.04 4.672-11.096 9.49-24.38 12.555-33.87 2.2-6.716 1.314-8.322-6.86-9.344v-3.942h25.987v3.942z"/><use xlink:href="#L" x="9.636" y="301.766"/><path d="M864.016 406.96c4.525-7.738 10.658-15.476 17.373-15.476 5.256 0 8.76 3.942 8.76 7.592 0 3.358-2.043 6.424-5.11 7.884-1.752.73-3.066.438-3.94-.438-2.2-2.044-3.942-2.92-6.424-2.92-3.504 0-7.885 3.796-10.95 11.534V442c0 9.5.73 10.366 11.972 11.242v3.942H840.95v-3.942c8.905-.876 9.928-1.752 9.928-11.242v-30.513c0-9.344-.73-9.782-8.76-11.096v-3.358a99.03 99.03 0 0 0 21.607-5.84v15.768h.292z"/></g><linearGradient id="B" gradientUnits="userSpaceOnUse" x1="35" y1="557.57" x2="918.754" y2="557.57"><stop offset="0" stop-color="#44bb6e"/><stop offset="1" stop-color="#82ab26"/></linearGradient><path d="M35 485.282h883.754v144.576H35z" fill="url(#B)"/><g fill="#096500"><use xlink:href="#M"/><path d="M105.997 599.78c0-5.25 3.75-9 8.85-9s8.85 3.75 8.85 9c0 5.55-3.75 9.15-8.85 9.15s-8.85-3.6-8.85-9.15z"/><use xlink:href="#M" x="86.395"/><path d="M303.388 607.13v-4.35c12-1.2 12.6-2.1 12.45-17.55l-.45-60.598h-.6l-36 81.447h-3.15l-33-79.347h-.45l-2.1 41.998c-.6 12.3-.6 19.05-.45 24.75.3 7.05 3.75 8.25 13.8 9.15v4.5h-35.1v-4.5c8.55-.9 11.55-2.7 12.6-8.85.75-5.1 1.8-11.85 2.85-27.6l2.25-30.898c1.35-19.05.45-19.95-13.05-21.3v-4.35h25.8l33.148 73.346 33.75-73.346h26.4v4.35c-13.05 1.35-13.95 1.8-13.5 16.648l1.5 54.448c.3 15.6.9 16.5 13.65 17.7v4.35h-40.348z"/><path d="M342.842 607.13v-4.05c9.3-.9 10.35-1.8 10.35-12v-30.748c0-9.45-.6-10.05-9.15-11.4v-3.75c7.8-1.2 15.45-3.15 22.35-5.7v51.598c0 10.2.9 11.1 10.5 12v4.05h-34.048zm7.95-88.047c0-4.8 3.75-8.4 8.25-8.4 4.35 0 7.95 3.6 7.95 8.4 0 4.35-3.6 8.1-8.1 8.1-4.35 0-8.1-3.75-8.1-8.1z"/><use xlink:href="#N"/><use xlink:href="#N" x="30.6"/><path d="M436 607.13v-4.05c9.3-.9 10.35-1.8 10.35-12v-30.748c0-9.45-.6-10.05-9.15-11.4v-3.75c7.8-1.2 15.45-3.15 22.35-5.7v51.598c0 10.2.9 11.1 10.5 12v4.05H436zm7.95-88.047c0-4.8 3.75-8.4 8.25-8.4 4.35 0 7.95 3.6 7.95 8.4 0 4.35-3.6 8.1-8.1 8.1-4.35 0-8.1-3.75-8.1-8.1zm90.895 54c0 24.3-17.55 35.85-32.85 35.85-21.15 0-33.298-16.65-33.298-33.148 0-24.75 19.2-36.148 33.45-36.148 18.9 0 32.698 15.15 32.698 33.448zm-50.848-2.25c0 18.9 7.65 33 19.65 33 8.55 0 15.9-6.3 15.9-27.15 0-18.148-6.75-31.948-19.2-31.948-8.7 0-16.35 9-16.35 26.1zm92.85 36.298v-4.05c8.4-.9 9.45-1.95 9.45-12.45v-25.05c0-10.5-3.9-16.65-13.05-16.65-5.55 0-11.1 3.45-15.45 7.2v35.398c0 10.05.9 10.65 9.3 11.55v4.05h-33.15v-4.05c9.9-1.05 10.65-1.8 10.65-11.7v-31.05c0-9.45-.9-9.9-8.85-11.4v-3.6c7.5-1.35 15-3.3 22.05-6.15v11.85c3-2.25 6.15-4.5 9.9-6.9 4.35-2.85 7.95-4.5 12.3-4.5 12 0 19.35 8.4 19.35 22.95v28.948c0 10.05.9 10.5 9.45 11.55v4.05h-31.95zm129.744-93.145c-10.2 1.2-12.15 3-17.85 12-6.6 10.65-11.55 18.9-18.75 32.248-1.95 3.9-2.4 5.7-2.4 9.6v20.25c0 12.75 1.2 13.8 14.85 14.7v4.35h-43.498v-4.35c13.2-.9 14.55-1.95 14.55-14.7v-19.35c0-3.15-.6-4.65-3-8.85l-18.75-33.148c-6-10.2-7.8-11.85-16.65-12.75v-4.35h37.198v4.35c-10.65 1.5-10.2 3.15-7.5 8.25 6.15 11.7 13.2 23.85 19.65 35.1 5.25-9.75 13.35-24.3 17.4-33.45 3.3-7.2 2.85-8.55-8.7-9.898v-4.35h33.45v4.35zm34.952 80.095c-9.45 12.15-19.95 14.85-24.9 14.85-18.75 0-29.55-15-29.55-31.948 0-10.5 3.9-19.8 10.05-26.4 6.3-6.9 14.4-10.95 22.2-10.95 12.75 0 22.95 11.25 22.8 23.1 0 3-.6 4.35-3.6 4.95-2.4.3-21.15 1.8-38.548 2.4.3 19.65 11.55 28.05 22.05 28.05 6 0 11.7-2.4 17.1-7.35l2.4 3.3zm-40.648-30.3c7.95 0 15.75-.15 24-.45 2.55 0 3.45-.75 3.45-3 .15-7.8-4.65-15.15-12.45-15.15-6.6 0-13.05 6.45-15 18.6zm92.096 45.15c-2.55 0-5.7-1.35-7.35-3-1.95-1.95-3-4.05-3.6-6.45-6 4.05-13.2 9.45-17.4 9.45-10.95 0-18.45-9.15-18.45-18.45 0-7.5 3.9-12 12-14.7 9-3.15 20.1-7.2 23.4-9.9v-3c0-10.5-4.8-16.5-12-16.5-2.7 0-4.95 1.05-6.45 2.85-1.8 2.1-3.15 5.4-4.35 10.05-.75 2.7-2.4 3.75-4.8 3.75-2.85 0-7.05-3-7.05-6.6 0-2.4 1.95-4.05 4.95-6.3 4.35-3.15 14.4-8.85 22.95-10.5 4.65 0 9.3 1.35 12.6 4.05 5.55 4.5 7.05 10.65 7.05 18.75v27.3c0 6.75 2.55 8.85 5.1 8.85 1.8 0 3.9-.75 5.4-1.5l1.5 4.05-13.5 7.8zm-11.4-37.798c-3.15 1.65-9.3 4.5-12.6 6-5.55 2.7-8.7 5.4-8.7 10.95 0 7.8 5.85 11.4 10.35 11.4 3.6 0 8.25-2.25 10.95-4.8v-23.55zm52.95-15.6c4.65-7.95 10.95-15.9 17.85-15.9 5.4 0 9 4.05 9 7.8 0 3.45-2.1 6.6-5.25 8.1-1.8.75-3.15.45-4.05-.45-2.25-2.1-4.05-3-6.6-3-3.6 0-8.1 3.9-11.25 11.85v27.6c0 9.75.75 10.65 12.3 11.55v4.05h-35.7v-4.05c9.15-.9 10.2-1.8 10.2-11.55v-31.35c0-9.6-.75-10.05-9-11.4v-3.45c7.65-1.2 14.55-3 22.2-6v16.2h.3zm65.697 3.9c-3-8.85-8.1-14.85-15.45-14.85-5.4 0-9.3 4.2-9.3 9.9 0 6.3 5.4 9.75 12.3 12.75 11.55 4.8 19.2 10.05 19.2 20.7 0 13.95-12.9 21-25.05 21-7.8 0-14.85-2.85-17.55-5.1-1.05-2.1-2.4-12.45-2.55-18.15l4.2-.6c2.7 9.75 9.45 18.75 18.6 18.75 5.4 0 10.2-4.05 10.2-10.05 0-6.3-3.9-9.75-11.7-13.5-8.7-4.05-19.05-9.15-19.05-20.85 0-10.8 9.15-19.8 23.25-19.8 6.45 0 10.5 1.35 13.65 2.7 1.2 3.3 2.85 12.6 3.3 16.05l-4.05 1.05z"/></g><path d="M99.72 729.02c0 23.65-17.08 34.894-31.973 34.894-20.586 0-32.4-16.206-32.4-32.266 0-24.1 18.688-35.185 32.557-35.185 18.396 0 31.827 14.745 31.827 32.557zm-49.492-2.2c0 18.396 7.445 32.12 19.125 32.12 8.322 0 15.476-6.132 15.476-26.426 0-17.665-6.57-31.097-18.687-31.097-8.468 0-15.913 8.76-15.913 25.403zm60.298-28.614v-3.212c0-4.234.584-8.322 1.606-11.534s3.65-10.365 11.533-17.228c5.256-4.38 10.366-7.008 16.352-7.737 5.1.146 9.198 2.044 11.534 4.817 1.46 1.606 1.605 3.65.876 5.402-.438 1.168-1.46 2.48-3.066 3.796-1.46 1.168-2.773 1.02-4.088-.292-3.065-2.92-7.3-5.84-11.972-5.84-3.504 0-5.693 1.752-7.153 4.233-1.752 2.774-3.066 9.5-2.774 21.9v5.694H140.6c.73 1.313.146 4.964-1.605 5.985h-15.622v42.047c0 10.366 1.022 10.95 12.4 12.118v3.796h-35.33v-3.942c9.197-.876 10.073-1.752 10.073-11.24V704.2h-10.073l-.584-1.605 4.088-4.38h6.57zm142.93 40.732c-.73 5.1-3.796 18.688-4.964 23.214h-71.246v-4.234c13.14-1.02 14.453-2.2 14.453-14.16v-57.67c0-12.993-1.313-13.577-12.4-14.6v-4.233h65.698c0 3.504.73 13.432 1.313 21.17l-4.525.73c-1.314-5.986-2.92-9.5-4.818-12.4-2.2-3.212-6.132-4.233-16.205-4.233h-10.366c-4.672 0-5.1.438-5.1 4.817v32.85h13.14c12.993 0 14.016-1.168 15.768-10.95h4.38v28.178h-4.38c-1.898-10.366-3.066-11.242-15.768-11.242h-13.14v27c0 6.86.876 10.22 3.504 11.972 2.773 1.752 7.884 1.752 14.892 1.752 10.512 0 14.745-1.168 17.957-4.818 2.628-3.065 5.256-8.03 7.446-13.87l4.38.73zm34.308 23.214v-3.942c5.986-.876 7.154-2.044 4.672-5.985l-10.22-16.352c-3.212 4.672-6.277 10.073-9.052 14.892s-2.336 6.277 4.964 7.445v3.942h-27.3v-3.942c8.76-1.168 10.657-2.48 16.205-9.636 4.088-4.817 8.03-10.657 12.264-17.08l-12.7-20.147c-4.38-7.008-6.132-8.176-14.162-9.198v-3.94H282.5v3.94c-5.985.876-6.57 2.044-3.94 6.132l8.32 12.994c2.92-4.234 5.694-8.76 8.176-13.14s1.606-5.256-4.672-5.986v-3.94H317.1v3.94c-8.76.876-10.658 1.752-15.768 7.592-3.066 3.65-6.57 8.76-11.534 15.914l14.308 21.753c5.256 8.176 7.446 9.636 15.768 10.804v3.942h-32.12zm63.946-.146c-2.482 1.314-4.672 1.898-5.986 1.898-9.636 0-15.037-5.694-15.037-17.52V704.2h-9.928l-.584-1.605 3.94-4.38h6.57v-10.658l10.804-9.928 1.897.438v20.147h16.206c1.46 1.46 1.02 4.817-.876 5.985h-15.33v37.23c0 11.68 4.964 13.724 8.614 13.724 3.357 0 6.57-1.168 8.613-2.2l1.314 3.942-10.22 5.1zm35.186-50.076c4.525-7.738 10.657-15.476 17.373-15.476 5.256 0 8.76 3.94 8.76 7.592 0 3.357-2.044 6.424-5.1 7.884-1.752.73-3.066.438-3.942-.438-2.2-2.044-3.94-2.92-6.424-2.92-3.504 0-7.884 3.796-10.95 11.534v26.863c0 9.5.73 10.365 11.972 11.24v3.942H363.83v-3.942c8.905-.876 9.928-1.752 9.928-11.24v-30.514c0-9.344-.73-9.78-8.76-11.096v-3.357c7.445-1.168 14.16-2.92 21.607-5.84v15.768h.292zm70.954 51.974c-2.482 0-5.548-1.314-7.154-2.92-1.897-1.898-2.92-3.942-3.504-6.278-5.84 3.942-12.848 9.198-16.936 9.198-10.657 0-17.957-8.906-17.957-17.958 0-7.3 3.796-11.68 11.68-14.308 8.76-3.065 19.563-7.008 22.775-9.636v-2.92c0-10.22-4.672-16.06-11.68-16.06-2.628 0-4.818 1.022-6.278 2.774-1.752 2.044-3.065 5.256-4.233 9.78-.73 2.628-2.336 3.65-4.672 3.65-2.774 0-6.862-2.92-6.862-6.424 0-2.336 1.898-3.942 4.818-6.132 4.233-3.066 14.016-8.614 22.337-10.22 4.526 0 9.052 1.313 12.264 3.94 5.402 4.38 6.862 10.366 6.862 18.25v26.57c0 6.57 2.48 8.613 4.964 8.613 1.752 0 3.796-.73 5.256-1.46l1.46 3.942-13.14 7.592zm-11.096-36.8c-3.066 1.605-9.052 4.38-12.264 5.84-5.402 2.628-8.468 5.256-8.468 10.657 0 7.592 5.693 11.096 10.073 11.096 3.504 0 8.03-2.2 10.658-4.672v-22.92zM567.2 738.948c-.876 4.818-3.942 18.834-5.256 23.214H494.93v-4.234c12.264-.876 13.578-1.897 13.578-14.308v-57.96c0-12.4-1.02-13.14-12.848-14.162v-4.233h39.273v4.233c-11.4.876-12.848 1.606-12.848 14.162v57.522c0 7.737.73 10.512 3.504 11.972 2.773 1.605 7.592 1.752 13.432 1.752 7.737 0 12.7-.73 16.06-4.526 2.63-2.92 5.256-7.592 7.592-14.453l4.526 1.02zm.146 23.214v-3.942c9.05-.876 10.073-1.752 10.073-11.68V716.6c0-9.198-.584-9.782-8.905-11.096v-3.65c7.592-1.168 15.037-3.065 21.753-5.548v50.223c0 9.928.876 10.804 10.22 11.68v3.942h-33.14zm7.737-85.7c0-4.672 3.65-8.176 8.03-8.176 4.233 0 7.737 3.504 7.737 8.176 0 4.234-3.504 7.884-7.884 7.884-4.234 0-7.884-3.65-7.884-7.884zm37.667 21.754v-3.212c0-4.234.584-8.322 1.606-11.534s3.65-10.365 11.534-17.228c5.256-4.38 10.365-7.008 16.352-7.737 5.1.146 9.197 2.044 11.533 4.817 1.46 1.606 1.605 3.65.876 5.402-.438 1.168-1.46 2.48-3.065 3.796-1.46 1.168-2.774 1.02-4.088-.292-3.066-2.92-7.3-5.84-11.973-5.84-3.504 0-5.693 1.752-7.153 4.233-1.752 2.774-3.065 9.5-2.774 21.9v5.694h17.23c.73 1.313.146 4.964-1.606 5.985H625.6v42.047c0 10.366 1.022 10.95 12.4 12.118v3.796h-35.33v-3.942c9.198-.876 10.073-1.752 10.073-11.24V704.2H602.67l-.584-1.605 4.088-4.38h6.57zm79.278 51.244c-9.198 11.826-19.418 14.454-24.236 14.454-18.25 0-28.76-14.6-28.76-31.098 0-10.22 3.796-19.27 9.782-25.695 6.13-6.716 14.016-10.657 21.607-10.657 12.4 0 22.337 10.95 22.2 22.483 0 2.92-.584 4.233-3.504 4.817-2.336.292-20.586 1.752-37.52 2.336.292 19.126 11.242 27.302 21.46 27.302 5.84 0 11.4-2.336 16.645-7.154l2.336 3.212zm-39.565-29.5c7.737 0 15.33-.146 23.36-.437 2.48 0 3.358-.73 3.358-2.92.146-7.592-4.526-14.746-12.118-14.746-6.424 0-12.702 6.278-14.6 18.104z" fill="#fd96ff"/><defs ><path id="D" d="M104.714 1045.51c-.633 0-1.267-.367-1.4-1.1-1.334 1.034-2.97 1.668-4.804 1.668-4.136 0-7.604-3.436-7.604-7.605v-9.24a1.37 1.37 0 0 1 1.4-1.435c.768 0 1.468.5 1.468 1.4v9.272c0 2.602 2.168 4.77 4.736 4.77 2.603 0 4.77-2.17 4.77-4.77v-9.24c0-1.034.667-1.468 1.4-1.468.768 0 1.435.5 1.435 1.435v14.9c0 .934-.667 1.4-1.4 1.4z"/><path id="E" d="M741.862 1046.357c-1.2 0-3.22-.42-3.92-1.58-.08-.12-.08-.22-.08-.3 0-.32.28-.602.58-.602.12 0 .32.102.44.28.72.88 2 1.06 2.98 1.06 1.94 0 2.92-.64 2.92-1.94 0-3.02-6.562-1.42-6.562-5.422 0-2.02 2.02-2.8 3.84-2.8 1.04 0 2.64.36 3.44 1.16.12.12.18.26.18.38a.65.65 0 0 1-.62.6c-.12 0-.26-.04-.38-.16-.62-.6-1.74-.84-2.62-.84-1.76 0-2.7.682-2.7 1.66 0 2.8 6.562 1.32 6.562 5.422 0 2.28-2 3.08-4.06 3.08z"/><path id="F" d="M752.582 1046.318c-3.22 0-5.02-2.64-5.02-5.662 0-3 1.8-5.64 5.02-5.64s5.02 2.64 5.02 5.64c0 3.02-1.8 5.662-5.02 5.662zm0-10.162c-2.36 0-3.88 1.9-3.88 4.5s1.52 4.52 3.88 4.52c2.38 0 3.88-1.92 3.88-4.52s-1.5-4.5-3.88-4.5z"/><path id="G" d="M776.322 1036.336a3.42 3.42 0 0 0-3.421 3.42v5.662c0 .36-.3.56-.56.56-.28 0-.58-.2-.58-.56v-9.502c0-.36.3-.56.58-.56.26 0 .56.2.56.56v.82c.9-.98 2.08-1.54 3.42-1.54.36 0 .58.3.58.56a.58.58 0 0 1-.58.58z"/><path id="H" d="M786.5 1044.797c-.88.98-2.1 1.52-3.58 1.52-3.22 0-5.02-2.64-5.02-5.662 0-3 1.8-5.64 5.02-5.64 1.48 0 2.7.54 3.58 1.52.12.12.16.262.16.38 0 .3-.28.6-.58.6-.14 0-.28-.06-.42-.2-.66-.74-1.58-1.16-2.74-1.16-2.36 0-3.88 1.9-3.88 4.5s1.52 4.52 3.88 4.52c1.16 0 2.08-.44 2.74-1.16.14-.14.28-.2.42-.2.3 0 .58.26.58.58 0 .14-.04.26-.16.398z"/><path id="I" d="M798.082 1041.236h-8.302c.18 2.28 1.66 3.94 3.84 3.94 1.08 0 2.36-.48 2.94-1.38.14-.22.3-.28.48-.28.3 0 .62.24.62.54 0 .18 0 .22-.38.658-.92 1.082-2.26 1.602-3.66 1.602-3.22 0-5.02-2.64-5.02-5.662 0-3 1.8-5.64 5.02-5.64s5.02 2.66 5.02 5.64c0 .3-.28.58-.56.58zm-4.46-5.08c-2.4 0-3.66 1.84-3.84 3.94h7.7c-.18-2.28-1.66-3.94-3.86-3.94z"/><path id="J" d="M833.46 1045.98h-.02c-.66 0-1.6-.36-1.98-1.56-.84 1.18-2.14 1.9-3.88 1.9-3.26 0-5.02-2.682-5.02-5.662 0-3.02 1.8-5.64 5.02-5.64 1.74 0 3.04.72 3.88 1.88v-.98c0-.32.26-.56.58-.56.28 0 .56.2.56.56v8.063c0 1.28 1.44.48 1.44 1.44a.55.55 0 0 1-.58.561zm-5.88-9.822c-2.36 0-3.88 1.9-3.88 4.5s1.52 4.52 3.88 4.52c2.38 0 3.88-1.92 3.88-4.52s-1.5-4.5-3.88-4.5z"/><path id="K" d="M169.653 157.17c-2.482 0-5.548-1.314-7.154-2.92-1.897-1.898-2.92-3.942-3.504-6.278-5.84 3.942-12.848 9.198-16.936 9.198-10.657 0-17.957-8.906-17.957-17.958 0-7.3 3.796-11.68 11.68-14.308 8.76-3.066 19.563-7.008 22.775-9.636v-2.92c0-10.22-4.672-16.06-11.68-16.06-2.628 0-4.818 1.022-6.278 2.774-1.752 2.044-3.065 5.256-4.233 9.782-.73 2.628-2.336 3.65-4.672 3.65-2.774 0-6.862-2.92-6.862-6.424 0-2.336 1.898-3.942 4.818-6.132 4.233-3.066 14.016-8.614 22.337-10.22 4.526 0 9.052 1.314 12.264 3.942 5.402 4.38 6.862 10.366 6.862 18.25v26.57c0 6.57 2.48 8.614 4.964 8.614 1.752 0 3.796-.73 5.256-1.46l1.46 3.942-13.14 7.592zm-11.096-36.79c-3.066 1.606-9.052 4.38-12.264 5.84-5.402 2.628-8.468 5.256-8.468 10.658 0 7.592 5.693 11.096 10.073 11.096 3.504 0 8.03-2.2 10.658-4.672v-22.92z"/><path id="L" d="M832.774 142.716c-9.198 11.826-19.418 14.454-24.236 14.454-18.25 0-28.76-14.6-28.76-31.097 0-10.22 3.796-19.27 9.782-25.695 6.13-6.716 14.016-10.658 21.607-10.658 12.41 0 22.337 10.95 22.19 22.483 0 2.92-.584 4.234-3.504 4.818-2.336.292-20.586 1.752-37.52 2.336.292 19.125 11.242 27.3 21.46 27.3 5.84 0 11.39-2.336 16.645-7.154l2.336 3.212zm-39.565-29.49c7.737 0 15.33-.146 23.36-.438 2.48 0 3.358-.73 3.358-2.92.146-7.592-4.526-14.746-12.118-14.746-6.424 0-12.702 6.278-14.6 18.104z"/><path id="M" d="M49.45 530.034l6.6-9.6c4.35-4.65 11.25-8.55 19.65-8.55 13.8 0 22.5 8.4 22.5 19.95 0 4.2-1.65 7.65-4.5 10.5-2.4 2.4-5.85 4.95-10.35 7.95v.3c13.5 2.55 21.15 12 21.15 22.95-.15 24.45-29.4 35.398-39.898 35.398-7.05 0-13.2-3.15-15.3-5.1s-2.85-3.6-2.7-5.4c.15-2.1 2.25-4.35 3.75-5.4 1.2-1.05 2.7-1.05 3.9 0 3.75 3.3 10.05 8.1 18.75 8.1 10.2 0 17.4-7.8 17.25-22.5 0-13.8-10.35-19.35-18.75-19.35-3.45 0-7.05.75-9.3 1.5l-1.05-4.35c13.5-4.5 23.4-10.2 23.4-21 0-9.45-6.15-14.1-13.95-14.1-8.1 0-13.95 6-18 11.7l-3.15-3z"/><path id="N" d="M373.14 607.13v-4.05c9.45-1.05 10.65-1.8 10.65-11.7v-70.647c0-9.9-.9-10.35-10.2-11.25v-3.6c7.95-.9 17.7-3.45 23.25-5.25v90.746c0 9.9 1.2 10.8 10.8 11.7v4.05h-34.5z"/></defs></svg>