<svg xmlns="http://www.w3.org/2000/svg" xmlns:xlink="http://www.w3.org/1999/xlink" viewBox="0 0 1080 1080"><linearGradient id="A" gradientUnits="userSpaceOnUse" x1="11.75" y1="11.75" x2="1068.25" y2="1068.25"><stop offset="0" stop-color="#ffe259"/><stop offset=".337" stop-color="#ffc956"/><stop offset=".749" stop-color="#ffb052"/><stop offset="1" stop-color="#ffa751"/></linearGradient><path d="M1080,1040c0,22-18,40-40,40H40c-22,0-40-18-40-40V40C0,18,18,0,40,0h1000c22,0,40,18,40,40V1040z" fill="url(#A)"/><linearGradient id="B" gradientUnits="userSpaceOnUse" x1="213.706" y1="578.12" x2="565.567" y2="578.12"><stop offset="0" stop-color="#e43a15"/><stop offset=".228" stop-color="#e54123"/><stop offset=".708" stop-color="#e64d3c"/><stop offset="1" stop-color="#e65245"/></linearGradient><path d="M565.567 226.735l-.47-.006c-194.068 0-351.39 157.323-351.39 351.39s157.323 351.39 351.39 351.39l.47-.006v-702.77z" fill="url(#B)"/><linearGradient id="C" gradientUnits="userSpaceOnUse" x1="821.868" y1="578.12" x2="585.221" y2="578.12"><stop offset="0" stop-color="#1488cc"/><stop offset=".104" stop-color="#177cc8"/><stop offset=".498" stop-color="#2254bc"/><stop offset=".81" stop-color="#293bb5"/><stop offset="1" stop-color="#2b32b2"/></linearGradient><path d="M585.22 814.446l.316.004c130.522 0 236.33-105.81 236.33-236.33s-105.81-236.33-236.33-236.33l-.316.004v472.653z" fill="url(#C)"/><path d="M507.668 597.295c-10.55 0-11.4-10.75-11.4-18.65 0-9.35 2.05-18.7 11.4-18.7 4.2 0 7.2 1.85 9.25 5a1.96 1.96 0 0 1 .45 1.3c0 1.15-1.05 2.05-2.2 2.05-.65 0-1.3-.3-1.8-1-1.3-1.95-3-3.05-5.7-3.05-4.75 0-6.95 4.25-7.1 13.8 1.65-1.6 4.2-2.85 7.1-2.85 6 0 10.75 5.2 10.75 11.05s-4.75 11.05-10.75 11.05zm0-17.85c-3.45 0-6.35 3-6.55 6.9.65 3.9 2.7 6.7 6.55 6.7 3.45 0 6.45-3.1 6.45-6.8s-3-6.8-6.45-6.8zm23.25 17.5c-3.35 0-7.15-1.8-9-4.75a2.21 2.21 0 0 1-.35-1.2c0-1.15 1-2.05 2.15-2.05.95 0 1.3.35 2.05 1.35 1.25 1.55 3.2 2.4 5.15 2.4 3.45 0 6.95-3.15 6.95-7.65 0-4.55-3.5-7.7-6.95-7.7-2.65 0-4.45 1.352-5.3 2.8-.4.75-1.1 1.15-1.95 1.15-1.3 0-2.15-.85-2.15-2.5v-15.852c0-1.15 1-2.1 2.15-2.1h15.2c1.45 0 2.2 1 2.2 2.15 0 1.05-.7 2.1-2.1 2.1h-13.2v9.352c1.2-.852 3.1-1.352 5.15-1.352 6.15 0 11.2 5.2 11.2 11.95 0 6.65-5.05 11.9-11.2 11.9zm94.354-.15h-15.3c-1.45 0-2.3-.85-2.3-1.9 0-.45.15-.898.45-1.35l13.65-20.75c.6-.95.95-2.102.95-3.002 0-2.95-2.2-5.2-5.15-5.2-2.65 0-4.9 2.25-5.75 3.85-.4.75-1.05 1.05-1.7 1.05-1.15 0-2.2-.9-2.2-2.05 0-1.55 3.55-7.15 9.65-7.15 5.2 0 9.4 4.25 9.4 9.4a9.75 9.75 0 0 1-1.7 5.4l-11.45 17.45h11.45c1.45 0 2.2 1 2.2 2.15 0 1.05-.75 2.1-2.2 2.1zm15.5.85c-4.15 0-7.15-1.8-9.2-4.95-.35-.45-.5-.85-.5-1.3 0-1.15 1.1-2.05 2.25-2.05.6 0 1.3.25 1.75.95 1.3 2 3.05 3.1 5.7 3.1 4.8 0 6.95-4.3 7.15-13.8-1.65 1.602-4.25 2.852-7.15 2.852-5.95 0-10.7-5.2-10.7-11.05 0-5.9 4.75-11.102 10.7-11.102 10.55 0 11.4 10.8 11.4 18.65 0 9.352-2.05 18.7-11.4 18.7zm0-33.05c-3.4 0-6.45 3.05-6.45 6.8 0 3.7 3.05 6.75 6.45 6.75 3.5 0 6.4-2.95 6.55-6.9-.6-3.85-2.65-6.65-6.55-6.65z" fill="#fff"/><g fill="#d25a47"><use xlink:href="#E"/><use xlink:href="#F"/><use xlink:href="#F" x="15.287"/><path d="M84.988 594.125c-4.957 0-7.3-4.62-7.3-15.585s2.353-15.584 7.3-15.584 7.31 4.62 7.31 15.584-2.352 15.585-7.31 15.585zm0-28.648c-2.772 0-4.285 3.108-4.285 13.063s1.512 13.064 4.285 13.064 4.285-3.108 4.285-13.064-1.512-13.063-4.285-13.063z"/></g><g fill="#2e3fae"><path d="M985.187 593.705v-2.52c2.688-9 11.1-14.03 11.1-20.92 0-3.192-1.596-4.8-3.655-4.8-2.395 0-4.16 1.85-4.4 6.386h-2.772c.336-6.9 3.444-8.905 7.1-8.905 4 0 6.763 2.688 6.763 7.73 0 7.562-6.805 9.914-11.342 20.5h11.5v2.52H985.19zm23.437.42c-4.957 0-7.3-4.62-7.3-15.585s2.353-15.584 7.3-15.584 7.3 4.62 7.3 15.584-2.352 15.585-7.3 15.585zm0-28.65c-2.772 0-4.285 3.1-4.285 13.064s1.512 13.064 4.285 13.064 4.285-3.108 4.285-13.064-1.512-13.064-4.285-13.064z"/><use xlink:href="#E" x="984.786"/><path d="M1032.393 563.375h13.6v1.596l-8.822 28.733h-3.192l8.822-27.81h-10.418v-2.52z"/></g><g opacity=".5"><path d="M875.224 1046.358c-1.2 0-3.22-.42-3.92-1.58-.08-.12-.08-.22-.08-.3 0-.32.28-.6.58-.6.12 0 .32.1.44.28.72.88 2 1.06 2.98 1.06 1.94 0 2.92-.64 2.92-1.94 0-3.02-6.562-1.42-6.562-5.422 0-2.02 2.02-2.8 3.84-2.8 1.04 0 2.64.36 3.44 1.16.12.12.18.26.18.38a.65.65 0 0 1-.62.6.53.53 0 0 1-.38-.16c-.62-.6-1.74-.84-2.62-.84-1.76 0-2.7.68-2.7 1.66 0 2.8 6.562 1.32 6.562 5.422 0 2.28-2 3.08-4.06 3.08z"/><use xlink:href="#G"/><path d="M901.725 1045.978c-.28 0-.58-.2-.58-.56v-.64c-.84.98-2.06 1.54-3.42 1.54-2.48 0-4.56-2.08-4.56-4.56v-5.842c0-.36.3-.56.58-.56.26 0 .56.2.56.56v5.842c0 1.9 1.52 3.42 3.42 3.42s3.42-1.52 3.42-3.42v-5.842c0-.36.3-.56.58-.56.26 0 .56.2.56.56v9.502c0 .36-.3.56-.56.56z"/><use xlink:href="#H"/><path d="M919.864 1044.797c-.88.98-2.1 1.52-3.58 1.52-3.22 0-5.02-2.64-5.02-5.66 0-3 1.8-5.64 5.02-5.64 1.48 0 2.7.54 3.58 1.52a.53.53 0 0 1 .16.381.63.63 0 0 1-.58.6c-.14 0-.28-.06-.42-.2-.66-.74-1.58-1.16-2.74-1.16-2.36 0-3.88 1.9-3.88 4.5s1.52 4.52 3.88 4.52c1.16 0 2.08-.44 2.74-1.16.14-.14.28-.2.42-.2.3 0 .58.26.58.58a.57.57 0 0 1-.16.399zm11.58-3.56h-8.302c.18 2.28 1.66 3.94 3.84 3.94 1.08 0 2.36-.48 2.94-1.38.14-.22.3-.28.48-.28.3 0 .62.24.62.54 0 .18 0 .22-.38.66-.92 1.08-2.26 1.6-3.66 1.6-3.22 0-5.02-2.64-5.02-5.66 0-3 1.8-5.64 5.02-5.64s5.02 2.66 5.02 5.64c0 .3-.28.58-.56.58zm-4.46-5.08c-2.4 0-3.66 1.84-3.84 3.94h7.7c-.18-2.28-1.66-3.94-3.86-3.94zm8.438 3.26c-.64 0-1.16-.5-1.16-1.14s.52-1.14 1.16-1.14c.62 0 1.12.5 1.12 1.14s-.5 1.14-1.12 1.14zm0 6.562c-.64 0-1.16-.5-1.16-1.14s.52-1.14 1.16-1.14c.62 0 1.12.5 1.12 1.14s-.5 1.14-1.12 1.14zm23.082-13.523l-3.52 13.103a.55.55 0 0 1-.56.42c-.24 0-.48-.14-.54-.42l-3-11.083-2.98 11.083c-.06.28-.3.42-.54.42-.26 0-.48-.14-.56-.42l-3.52-13.103c-.02-.06-.02-.12-.02-.18a.58.58 0 0 1 .58-.58c.26 0 .46.14.52.44l3 11.082 2.98-11.082c.08-.28.3-.4.54-.4.26 0 .48.12.56.4l2.98 11.082 3-11.082c.08-.3.28-.44.52-.44a.58.58 0 0 1 .58.58c0 .06 0 .12-.02.18z"/><use xlink:href="#G" x="79.079"/><use xlink:href="#H" x="67.299"/><path d="M981.002 1046.098c-1.08 0-1.98-1-1.98-2.12v-11.683c0-.36.3-.56.58-.56.26 0 .56.2.56.56v11.683c0 1.28 1.42.54 1.42 1.44 0 .34-.24.68-.58.68zm11.422-.12c-.28 0-.58-.2-.58-.56v-1c-.84 1.18-2.14 1.9-3.88 1.9-3.22 0-5.02-2.64-5.02-5.66 0-3 1.8-5.64 5.02-5.64 1.74 0 3.04.72 3.88 1.88v-4.6c0-.36.3-.56.58-.56.26 0 .56.2.56.56v13.122c0 .36-.3.56-.56.56zm-4.46-9.822c-2.36 0-3.88 1.9-3.88 4.5s1.52 4.52 3.88 4.52c2.38 0 3.88-1.92 3.88-4.52s-1.5-4.5-3.88-4.5zm19.14 9.822h-5.802c-.3 0-.58-.28-.58-.56v-13.122c0-.34.18-.56.52-.56h5.42c1.98 0 3.6 1.64 3.6 3.56 0 1.18-.52 2.2-1.42 2.86a4.06 4.06 0 0 1 2.38 3.721c0 2.28-1.84 4.1-4.12 4.1zm-.44-13.123h-4.8v4.92h4.8c1.62 0 2.46-1.44 2.46-2.44 0-1.38-1.12-2.48-2.46-2.48zm.44 6.062h-5.24v5.92h5.24c1.64 0 2.98-1.32 2.98-2.96s-1.34-2.96-2.98-2.96zm16.94 7.06h-.02c-.66 0-1.6-.36-1.98-1.56-.84 1.18-2.14 1.9-3.88 1.9-3.26 0-5.02-2.68-5.02-5.66 0-3.02 1.8-5.64 5.02-5.64 1.74 0 3.04.72 3.88 1.88v-.98c0-.32.26-.56.58-.56.28 0 .56.2.56.56v8.063c0 1.28 1.44.48 1.44 1.44a.55.55 0 0 1-.58.561zm-5.88-9.822c-2.36 0-3.88 1.9-3.88 4.5s1.52 4.52 3.88 4.52c2.38 0 3.88-1.92 3.88-4.52s-1.5-4.5-3.88-4.5zm16.84 9.822c-.28 0-.58-.2-.58-.56v-5.84c0-1.9-1.52-3.42-3.42-3.42a3.42 3.42 0 0 0-3.421 3.421v5.84c0 .36-.3.56-.56.56-.28 0-.58-.2-.58-.56v-9.502c0-.36.3-.56.58-.56.26 0 .56.2.56.56v.64c.9-.98 2.08-1.54 3.42-1.54a4.6 4.6 0 0 1 4.561 4.561v5.84c0 .36-.3.56-.56.56zm10.7-9.642l-3.44 3.44 3.4 5.32c.06.08.12.2.12.32 0 .28-.3.54-.6.54-.18 0-.36-.08-.48-.26l-3.28-5.1-2.06 2.08v2.74c0 .36-.3.56-.56.56-.28 0-.58-.2-.58-.56v-13.122c0-.36.3-.56.58-.56.26 0 .56.2.56.56v8.762l5.52-5.52a.56.56 0 0 1 .42-.18c.32 0 .58.26.58.56a.56.56 0 0 1-.181.421z"/></g><g opacity=".5"><path d="M42.328 1046.045c-3.568 0-5.47-1.97-5.503-2.002 0 .935-.7 1.4-1.468 1.4-.7 0-1.4-.467-1.4-1.4v-20.88a1.35 1.35 0 0 1 1.401-1.434c.767 0 1.468.467 1.468 1.4v6.238c1.334-1.368 3.168-2.17 5.503-2.17 5.37 0 8.373 4.403 8.373 9.406 0 5.037-3.002 9.44-8.373 9.44zm0-16c-3.335 0-5.503 2.602-5.503 6.57 0 4.003 2.168 6.604 5.503 6.604s5.504-2.602 5.504-6.604c0-3.97-2.168-6.57-5.504-6.57zm25.555 8.037h-12.34c.467 3.136 2.468 5.137 5.403 5.137 1.5 0 3.002-.533 3.97-1.734.3-.333.634-.533 1.034-.533.734 0 1.5.667 1.5 1.468 0 .4-.1.7-.8 1.4-1.5 1.468-3.57 2.235-5.704 2.235-5.37 0-8.372-4.437-8.372-9.44 0-4.97 3.002-9.406 8.372-9.406 5.437 0 8.34 4.437 8.34 9.406 0 .734-.534 1.468-1.4 1.468zm-6.937-8.038c-3.136 0-4.97 2.3-5.403 5.17H66.35c-.467-3.202-2.468-5.17-5.403-5.17zM88 1045.478c-1.834 0-2.668-1.3-2.97-1.9-1.334 1.468-3.27 2.47-5.87 2.47-5.437 0-8.372-4.47-8.372-9.44s3.002-9.406 8.372-9.406c2.335 0 4.203.834 5.504 2.202v-.134c0-.367.133-1.5 1.4-1.5.7 0 1.468.367 1.468 1.4v12.875c0 .434.3.6.467.6.935 0 1.435.667 1.435 1.434a1.37 1.37 0 0 1-1.435 1.401zm-8.84-15.443c-3.336 0-5.504 2.602-5.504 6.57 0 4.003 2.168 6.604 5.504 6.604 3.37 0 5.504-2.602 5.504-6.604 0-3.97-2.135-6.57-5.504-6.57z"/><use xlink:href="#I"/><path d="M115.158 1045.478h-.567c-3.17 0-4.37-1.668-4.37-4.403V1030.6h-1c-.8 0-1.435-.634-1.435-1.4 0-.8.634-1.435 1.4-1.435h1v-4.637c0-.934.7-1.4 1.435-1.4s1.4.467 1.4 1.4v4.637h2.135c.934 0 1.4.768 1.4 1.4 0 .8-.533 1.434-1.4 1.434h-2.135v10.774c0 .934.333 1.268 1.268 1.268h.833c.868 0 1.435.634 1.435 1.4 0 .8-.533 1.435-1.4 1.435zm4.604-20.415a2.402 2.402 0 1 1 0-4.803 2.402 2.402 0 1 1 0 4.803zm0 20.414c-.733 0-1.467-.5-1.467-1.4V1029.2c0-.935.733-1.435 1.467-1.435a1.37 1.37 0 0 1 1.401 1.435v14.876c0 .935-.7 1.4-1.4 1.4zm10.376-14.877h-1.5v13.442c0 .935-.7 1.4-1.468 1.4-.7 0-1.4-.467-1.4-1.4V1030.6h-1.37c-.9 0-1.4-.667-1.4-1.4 0-.768.5-1.435 1.4-1.435h1.367v-2.27c0-2.135 1.77-3.77 3.836-3.77.968 0 1.468.667 1.468 1.434 0 .7-.5 1.4-1.468 1.4-.566 0-.967.434-.967.9v2.302h1.5c.967 0 1.468.667 1.468 1.435 0 .733-.5 1.4-1.468 1.4z"/><use xlink:href="#I" x="42.068"/><path d="M154.725 1045.544c-1.802 0-3.336-1.534-3.336-3.402v-18.98c0-.967.7-1.434 1.435-1.434s1.435.467 1.435 1.4v19.013c0 .4.3.567.467.567.934 0 1.435.667 1.435 1.435 0 .733-.5 1.4-1.435 1.4zm15.37-.066v-1.264c1.886-.237 2.046-.437 2.046-3.157v-6.7c0-2.8-1.248-4.017-3.064-4.017-1.237 0-2.345.6-3.47 1.493v9.476c0 2.527.187 2.658 2.06 2.896v1.264h-8.968v-1.264c2.254-.33 2.5-.4 2.5-3v-8.2c0-2.446-.303-2.565-2.185-2.922v-1.184c2.173-.292 4.63-.807 6.653-1.533l-.052 2.95 2.6-1.745c1.16-.713 2-1.086 3.16-1.086 3.194 0 5.2 2.338 5.2 6.3v7.5c0 2.54.237 2.657 2.277 2.92v1.264h-8.74zm23.9-3.703c-2.458 3.427-5.488 4.178-7.014 4.178-5.142 0-8.124-3.936-8.124-8.594 0-2.745 1.183-5.396 2.832-7.062 1.74-1.8 3.945-2.814 6.082-2.814 3.73 0 6.396 3.126 6.37 6.347-.014.715-.08 1.277-.612 1.4-.767.184-6.17.5-10.318.647.062 4.587 2.717 6.74 5.556 6.74 1.572 0 3.104-.597 4.543-1.866l.686 1.014zm-7.07-12.7c-1.667 0-3.167 1.807-3.516 4.963l5.486-.118c.6-.026.848-.146.848-.792.04-2.022-1.037-4.053-2.818-4.053zm34.284.145c-1.943.343-2.248.624-3.105 2.765-1.33 3.462-3.102 8.53-4.934 13.94h-1.512l-4.65-11.46-4.55 11.46h-1.472l-4.685-14.192c-.687-1.985-.94-2.274-2.855-2.512v-1.25h9.397v1.25c-2.325.345-2.535.672-2.058 2.133l2.52 8.214c1.507-3.68 2.988-7.62 4.327-11.424h1.456c1.4 3.76 2.986 7.702 4.573 11.568.742-2.107 2.062-5.964 2.557-8.108.412-1.674-.008-2.078-2.753-2.383v-1.25h7.742v1.25zm9.4 3.746c-.92-2.606-2.155-3.984-4.2-3.984-1.206 0-2.225.86-2.225 2.266 0 1.497 1.046 2.264 3.16 3.216 3.278 1.496 5.3 2.787 5.3 5.736 0 3.85-3.6 5.764-6.945 5.764-2.06 0-4.088-.737-4.92-1.16l-.662-4.892 1.252-.224c.8 2.5 2.33 4.75 4.976 4.75 1.505 0 2.438-.952 2.438-2.28 0-1.423-.76-2.333-3.092-3.467-2.67-1.295-5.107-2.64-5.107-5.775 0-3.046 2.533-5.42 6.565-5.42 1.818 0 3.242.396 4.112.567l.62 4.577-1.25.328z"/></g><path d="M75.404 80h-6.9c-1.62 0-2.52-1.26-2.52-2.52 0-1.38.9-2.58 2.52-2.58h.9V42.38h-.9c-1.62 0-2.52-1.26-2.52-2.52 0-1.38.9-2.58 2.52-2.58h6.9c1.74 0 2.64 1.2 2.64 2.58 0 1.26-.9 2.52-2.64 2.52h-.9V74.9h.9c1.74 0 2.64 1.2 2.64 2.58 0 1.26-.9 2.52-2.64 2.52z"/><use xlink:href="#J"/><path d="M124.783 53.242h-2.7v24.18c0 1.68-1.26 2.52-2.64 2.52-1.26 0-2.52-.84-2.52-2.52v-24.18h-2.46c-1.62 0-2.52-1.2-2.52-2.52 0-1.38.9-2.58 2.52-2.58h2.46v-4.08c0-3.84 3.18-6.78 6.9-6.78 1.74 0 2.64 1.2 2.64 2.58 0 1.26-.9 2.52-2.64 2.52-1.02 0-1.74.78-1.74 1.62v4.14h2.7c1.74 0 2.64 1.2 2.64 2.58 0 1.32-.9 2.52-2.64 2.52z"/><use xlink:href="#K"/><use xlink:href="#J" x="83.699"/><use xlink:href="#L"/><path d="M241.72 80H229.3c-1.38 0-2.64-1.26-2.64-2.52V39.862c0-1.38 1.26-2.58 2.64-2.58h12.42c12.36 0 16.44 10.2 16.44 21.3 0 11.16-4.08 21.42-16.44 21.42zm0-37.62h-9.9V74.9h9.9c7.74 0 11.28-5.7 11.28-16.32 0-10.44-3.54-16.2-11.28-16.2z"/><use xlink:href="#M"/><use xlink:href="#K" x="165.598"/><use xlink:href="#L" x="132.658"/><use xlink:href="#N"/><path d="M389.978 81.02c-3.3 0-8.82-1.02-11.64-4.5-.36-.54-.54-1.08-.54-1.56 0-1.5 1.44-2.7 2.7-2.7.72 0 1.26.36 1.86 1.02 1.86 2.04 4.92 2.64 7.62 2.64 5.4 0 7.14-1.86 7.14-4.56 0-7.68-18.3-2.94-18.3-15.3 0-6.54 6.12-8.94 11.82-8.94 3.24 0 10.86 1.62 10.86 4.98 0 1.32-1.08 2.7-2.52 2.7-.54 0-1.38-.3-1.98-.78-1.62-1.38-3.96-1.8-6.36-1.8-4.98 0-6.72 1.86-6.72 3.84 0 7.14 18.36 2.52 18.36 15.3 0 7.08-5.94 9.66-12.3 9.66z"/><use xlink:href="#O"/><use xlink:href="#K" x="324.174"/><use xlink:href="#P"/><use xlink:href="#M" x="254.755"/><path d="M598.773 80.06c-1.26 0-2.52-.9-2.52-2.58v-27.6l-11.64 21.72c-.78 1.5-1.92 1.62-2.4 1.62-.3 0-1.56-.12-2.4-1.62L568.235 50v27.48c0 1.68-1.26 2.58-2.64 2.58-1.26 0-2.52-.9-2.52-2.58V39.982c0-1.98 1.38-2.7 2.76-2.7.9 0 1.62.42 2.16 1.5l14.22 26.46 14.28-26.46c.6-1.2 1.32-1.5 2.34-1.5 1.32 0 2.58.84 2.58 2.7V77.48c0 1.68-1.26 2.58-2.64 2.58zm22.44.96c-9.66 0-15.06-7.92-15.06-16.98 0-9 5.4-16.92 15.06-16.92s15.06 7.92 15.06 16.92c0 9.06-5.4 16.98-15.06 16.98zm0-28.8c-6 0-9.9 4.68-9.9 11.82 0 7.2 3.9 11.88 9.9 11.88 6.06 0 9.9-4.68 9.9-11.88 0-7.14-3.84-11.82-9.9-11.82zm33.48 0c-4.62 0-8.52 3.9-8.52 8.58v16.62c0 1.68-1.26 2.58-2.64 2.58-1.26 0-2.52-.9-2.52-2.52V50.72c0-1.68 1.38-2.58 2.52-2.58 1.2 0 2.34.66 2.58 2.04a13.88 13.88 0 0 1 8.58-3.06c1.74 0 2.64 1.2 2.64 2.58 0 1.32-.9 2.52-2.64 2.52zm28.487 14.46h-22.2c.84 5.64 4.44 9.24 9.72 9.24 2.7 0 5.4-.96 7.14-3.12.54-.6 1.14-.96 1.86-.96 1.32 0 2.7 1.2 2.7 2.64 0 .72-.18 1.26-1.44 2.52-2.7 2.64-6.42 4.02-10.26 4.02-9.66 0-15.06-7.98-15.06-16.98 0-8.94 5.4-16.92 15.06-16.92 9.78 0 15 7.98 15 16.92 0 1.32-.96 2.64-2.52 2.64zM670.7 52.22c-5.64 0-8.94 4.14-9.72 9.3h19.44c-.84-5.76-4.44-9.3-9.72-9.3zm55.14-9.84h-9.96v35.1c0 1.62-1.2 2.52-2.52 2.52-1.26 0-2.58-.9-2.58-2.52v-35.1h-9.84c-1.74 0-2.64-1.32-2.64-2.58 0-1.2.9-2.52 2.58-2.52h24.96c1.68 0 2.58 1.32 2.58 2.52 0 1.26-.9 2.58-2.58 2.58z"/><use xlink:href="#N" x="383.802"/><use xlink:href="#K" x="633.338"/><use xlink:href="#J" x="717.035"/><use xlink:href="#O" x="425.981"/><use xlink:href="#K" x="750.155"/><path d="M921.558 80.12c-3.24 0-6-2.76-6-6.12v-34.14c0-1.74 1.26-2.58 2.58-2.58s2.58.84 2.58 2.52V74c0 .72.54 1.02.84 1.02 1.68 0 2.58 1.2 2.58 2.58 0 1.32-.9 2.52-2.58 2.52z"/><use xlink:href="#P" x="437.26"/><use xlink:href="#M" x="692.015"/><path d="M1014.195 79.94c-1.32 0-2.58-.84-2.58-2.52 0 0-3.54 3.6-9.9 3.6-9.66 0-15.06-7.92-15.06-16.98 0-9 5.4-16.92 15.06-16.92 4.2 0 7.56 1.44 9.9 3.9V39.86c0-1.74 1.26-2.58 2.58-2.58s2.58.84 2.58 2.52v37.62c0 1.68-1.26 2.52-2.58 2.52zm-12.48-27.72c-6 0-9.9 4.68-9.9 11.82 0 7.2 3.9 11.88 9.9 11.88 6.06 0 9.9-4.68 9.9-11.88 0-7.14-3.84-11.82-9.9-11.82zM281.26 128h-8.435c-.57 0-1.103-.532-1.103-1.063v-24.925c0-.57.532-1.063 1.103-1.063h8.435c7.827 0 10.4 6.535 10.4 13.487 0 7.067-2.583 13.564-10.4 13.564zm0-24.924h-7.37v22.758h7.37c6.497 0 8.245-5.623 8.245-11.36 0-6.763-2.356-11.397-8.245-11.397zm31.54 15.92h-15.77c.342 4.332 3.153 7.485 7.295 7.485 2.052 0 4.483-.912 5.585-2.622.267-.418.57-.53.912-.53.57 0 1.178.455 1.178 1.025 0 .342 0 .418-.722 1.254-1.748 2.052-4.293 3.04-6.953 3.04-6.117 0-9.536-5.015-9.536-10.752 0-5.7 3.42-10.715 9.536-10.715s9.537 5.054 9.537 10.715c0 .57-.532 1.102-1.064 1.102zm-8.473-9.65c-4.56 0-6.953 3.495-7.295 7.485h14.628c-.342-4.332-3.153-7.485-7.333-7.485zM337.46 128h-.038c-1.254 0-3.04-.684-3.762-2.964-1.596 2.242-4.065 3.6-7.37 3.6-6.193 0-9.536-5.1-9.536-10.752 0-5.737 3.42-10.715 9.536-10.715 3.306 0 5.775 1.368 7.37 3.572v-1.862c0-.607.494-1.063 1.102-1.063.532 0 1.064.38 1.064 1.063v15.31c0 2.432 2.735.912 2.735 2.736a1.04 1.04 0 0 1-1.102 1.063zm-11.17-18.655c-4.483 0-7.37 3.6-7.37 8.55s2.888 8.587 7.37 8.587c4.52 0 7.37-3.647 7.37-8.587s-2.85-8.55-7.37-8.55z"/><use xlink:href="#Q"/><use xlink:href="#R"/><path d="M379.946 128.722c-2.28 0-6.117-.798-7.447-3-.15-.23-.15-.418-.15-.57 0-.607.53-1.14 1.102-1.14.228 0 .607.2.836.532 1.367 1.67 3.8 2.014 5.66 2.014 3.686 0 5.547-1.216 5.547-3.686 0-5.737-12.462-2.698-12.462-10.297 0-3.837 3.837-5.32 7.295-5.32 1.976 0 5.016.685 6.535 2.204.228.228.342.494.342.722 0 .57-.57 1.14-1.178 1.14-.23 0-.494-.076-.722-.304-1.18-1.14-3.306-1.596-4.978-1.596-3.344 0-5.13 1.292-5.13 3.153 0 5.32 12.462 2.508 12.462 10.297 0 4.33-3.8 5.85-7.713 5.85zm29.032-.076c-3.306 0-5.775-1.367-7.37-3.6v9.84c0 .684-.57 1.102-1.063 1.102-.532 0-1.103-.418-1.103-1.102V108.9c0-.684.57-1.063 1.103-1.063.494 0 1.063.38 1.063 1.063v1.862c1.596-2.204 4.065-3.572 7.37-3.572 6.117 0 9.536 5.016 9.536 10.715 0 5.737-3.42 10.752-9.536 10.752zm0-19.3c-4.52 0-7.37 3.6-7.37 8.55s2.85 8.587 7.37 8.587 7.37-3.647 7.37-8.587-2.85-8.55-7.37-8.55z"/><use xlink:href="#S"/><use xlink:href="#T"/><path d="M469.472 128c-.57 0-1.063-.418-1.063-1.063v-22.72l-4.142 4.027c-.2.228-.456.342-.722.342-.607 0-1.14-.57-1.14-1.178 0-.23.15-.494.342-.722l6.003-5.813c.304-.228.608-.304.722-.304.798 0 1.103.57 1.103 1.33v25.04c0 .646-.456 1.063-1.103 1.063zm7.258 3.382c-.152.113-.38.15-.57.15-.607 0-1.025-.53-1.025-1.102 0-1.063 1.634-1.216 1.9-2.432-1.14-.076-2.052-1.025-2.052-2.166 0-1.3 1.063-2.203 2.204-2.203 1.86 0 2.28 1.9 2.28 3.077 0 1.862-.988 3.647-2.735 4.674z"/><use xlink:href="#U"/><use xlink:href="#U" x="19.607"/><use xlink:href="#U" x="39.215"/><path d="M561.012 128.646c-3.306 0-5.775-1.367-7.37-3.61v1.9c0 .684-.57 1.063-1.063 1.063-.532 0-1.103-.38-1.103-1.063v-24.925c0-.684.57-1.063 1.103-1.063.494 0 1.063.38 1.063 1.063v8.74c1.596-2.204 4.065-3.572 7.37-3.572 6.117 0 9.536 5.016 9.536 10.715 0 5.737-3.42 10.752-9.536 10.752zm0-19.3c-4.52 0-7.37 3.61-7.37 8.55s2.85 8.587 7.37 8.587 7.37-3.647 7.37-8.587-2.85-8.55-7.37-8.55z"/><use xlink:href="#V"/><use xlink:href="#T" x="136.872"/><use xlink:href="#Q" x="251.632"/><use xlink:href="#R" x="251.632"/><path d="M631.578 128.722c-2.28 0-6.117-.798-7.447-3-.15-.23-.15-.418-.15-.57 0-.607.53-1.14 1.102-1.14.228 0 .607.19.836.532 1.367 1.67 3.8 2.014 5.66 2.014 3.686 0 5.547-1.216 5.547-3.686 0-5.737-12.462-2.698-12.462-10.297 0-3.837 3.837-5.32 7.295-5.32 1.976 0 5.015.685 6.535 2.204.228.228.342.494.342.722 0 .57-.57 1.14-1.178 1.14-.23 0-.494-.076-.722-.304-1.178-1.14-3.306-1.596-4.978-1.596-3.344 0-5.13 1.292-5.13 3.153 0 5.32 12.462 2.508 12.462 10.297 0 4.33-3.8 5.85-7.713 5.85z"/><use xlink:href="#W"/><path d="M687.703 128.646c-6.117 0-9.536-5.015-9.536-10.752 0-5.7 3.42-10.715 9.536-10.715s9.537 5.016 9.537 10.715c0 5.737-3.42 10.752-9.537 10.752zm0-19.3c-4.483 0-7.37 3.61-7.37 8.55s2.888 8.587 7.37 8.587c4.52 0 7.37-3.647 7.37-8.587s-2.85-8.55-7.37-8.55z"/><use xlink:href="#T" x="256.761"/><use xlink:href="#X"/><use xlink:href="#W" x="84.549"/><use xlink:href="#V" x="189.275"/><use xlink:href="#X" x="57.606"/><use xlink:href="#S" x="370.951"/><defs ><path id="E" d="M34.252 593.705v-2.52h3.697V566.82l-3.78.336v-1.85c1.723-.42 3.403-1.176 4.79-2.352h2.016v28.23h3.53v2.52h-10.25z"/><path id="F" d="M50.716 588.076c.42 3.024 2.1 3.528 3.277 3.528 2.688 0 4.37-3.696 4.453-12.14-1.218 1.302-2.856 2.31-4.663 2.31-3.402 0-6.51-2.437-6.51-9.326 0-5.88 2.52-9.493 6.51-9.493 5.25 0 7.77 3.024 7.77 13.946 0 12.182-2.856 17.223-7.645 17.223-3.907 0-5.377-2.353-5.965-5.88l2.772-.168zm7.813-14.282c0-6.134-1.596-8.317-4.285-8.317-2.353 0-3.95 1.764-3.95 7.015 0 5.42 1.848 6.764 3.78 6.764s3.444-1.26 4.453-2.604v-2.856z"/><path id="G" d="M885.944 1046.318c-3.22 0-5.02-2.64-5.02-5.66 0-3 1.8-5.64 5.02-5.64s5.02 2.64 5.02 5.64c0 3.02-1.8 5.66-5.02 5.66zm0-10.162c-2.36 0-3.88 1.9-3.88 4.5s1.52 4.52 3.88 4.52c2.38 0 3.88-1.92 3.88-4.52s-1.5-4.5-3.88-4.5z"/><path id="H" d="M909.684 1036.336a3.42 3.42 0 0 0-3.421 3.42v5.66c0 .36-.3.56-.56.56-.28 0-.58-.2-.58-.56v-9.502c0-.36.3-.56.58-.56.26 0 .56.2.56.56v.82c.9-.98 2.08-1.54 3.42-1.54.36 0 .58.3.58.56a.58.58 0 0 1-.58.581z"/><path id="I" d="M104.714 1045.51c-.633 0-1.267-.367-1.4-1.1-1.334 1.034-2.97 1.668-4.804 1.668-4.136 0-7.604-3.436-7.604-7.605v-9.24a1.37 1.37 0 0 1 1.4-1.435c.768 0 1.468.5 1.468 1.4v9.272c0 2.602 2.168 4.77 4.736 4.77 2.603 0 4.77-2.17 4.77-4.77v-9.24c0-1.034.667-1.468 1.4-1.468.768 0 1.435.5 1.435 1.435v14.9c0 .934-.667 1.4-1.4 1.4z"/><path id="J" d="M106.843 80c-1.32 0-2.52-.9-2.52-2.52V60.8c0-4.68-3.9-8.58-8.58-8.58-4.62 0-8.52 3.9-8.52 8.58v16.62c0 1.68-1.26 2.64-2.64 2.64-1.26 0-2.52-.9-2.52-2.58V50.662c0-1.74 1.26-2.52 2.52-2.52 1.2 0 2.28.66 2.58 1.98 2.34-1.86 5.28-3 8.58-3 7.44 0 13.68 6.18 13.68 13.68v16.62c0 1.68-1.2 2.58-2.58 2.58z"/><path id="K" d="M160.002 80c-3.3 0-4.8-2.34-5.34-3.42-2.4 2.64-5.88 4.44-10.56 4.44-9.78 0-15.06-8.04-15.06-16.98s5.4-16.92 15.06-16.92c4.2 0 7.56 1.5 9.9 3.96v-.24c0-.66.24-2.7 2.52-2.7 1.26 0 2.64.66 2.64 2.52v23.16c0 .78.54 1.08.84 1.08 1.68 0 2.58 1.2 2.58 2.58 0 1.26-.9 2.52-2.58 2.52zm-15.9-27.78c-6 0-9.9 4.68-9.9 11.82 0 7.2 3.9 11.88 9.9 11.88 6.06 0 9.9-4.68 9.9-11.88 0-7.14-3.84-11.82-9.9-11.82z"/><path id="L" d="M208.842 80h-1.02c-5.7 0-7.86-3-7.86-7.92v-18.84h-1.8c-1.44 0-2.58-1.14-2.58-2.52 0-1.44 1.14-2.58 2.52-2.58h1.8v-8.34c0-1.68 1.26-2.52 2.58-2.52s2.52.84 2.52 2.52v8.34h3.84c1.68 0 2.52 1.38 2.52 2.52 0 1.44-.96 2.58-2.52 2.58h-3.84v19.38c0 1.68.6 2.28 2.28 2.28h1.5c1.56 0 2.58 1.14 2.58 2.52 0 1.44-.96 2.58-2.52 2.58z"/><path id="M" d="M289.42 66.68h-22.2c.84 5.64 4.44 9.24 9.72 9.24 2.7 0 5.4-.96 7.14-3.12.54-.6 1.14-.96 1.86-.96 1.32 0 2.7 1.2 2.7 2.64 0 .72-.18 1.26-1.44 2.52-2.7 2.64-6.42 4.02-10.26 4.02-9.66 0-15.06-7.98-15.06-16.98 0-8.94 5.4-16.92 15.06-16.92 9.78 0 15 7.98 15 16.92 0 1.32-.96 2.64-2.52 2.64zm-12.48-14.46c-5.64 0-8.94 4.14-9.72 9.3h19.44c-.84-5.76-4.44-9.3-9.72-9.3z"/><path id="N" d="M371.798 80c-1.32 0-2.52-.9-2.52-2.52V60.8c0-4.68-3.9-8.58-8.58-8.58-4.62 0-8.52 3.9-8.52 8.58v16.62c0 1.68-1.26 2.64-2.64 2.64-1.26 0-2.52-.9-2.52-2.58V39.862c0-1.74 1.26-2.58 2.52-2.58 1.38 0 2.64.84 2.64 2.52v10.38c2.22-2.1 5.22-3.06 8.52-3.06 7.44 0 13.68 6.18 13.68 13.68v16.62c0 1.68-1.2 2.58-2.58 2.58z"/><path id="O" d="M445.957 80c-1.32 0-2.64-.9-2.64-2.52V59.66h-19.8v17.82c0 1.62-1.38 2.52-2.52 2.52-1.32 0-2.64-.9-2.64-2.52V39.802c0-1.68 1.32-2.52 2.64-2.52 1.14 0 2.52.84 2.52 2.52v14.76h19.8v-14.7c0-1.74 1.38-2.58 2.52-2.58 1.32 0 2.64.84 2.64 2.58v37.56c0 1.68-1.38 2.58-2.52 2.58z"/><path id="P" d="M514.416 51.68l-10.92 26.28c-.54 1.38-1.44 2.04-2.58 2.04-1.02 0-1.98-.66-2.58-2.04l-10.92-26.28c-.12-.42-.18-.72-.18-1.08 0-1.44 1.32-2.46 2.64-2.46.9 0 1.8.48 2.28 1.56l8.76 21 8.76-21c.42-1.14 1.5-1.62 2.34-1.62 1.38 0 2.64.96 2.64 2.46a2.99 2.99 0 0 1-.24 1.14z"/><path id="Q" d="M348.216 128h-1.178c-3 0-4.483-1.48-4.483-4.445V109.99h-1.937c-.684 0-1.063-.57-1.063-1.102 0-.494.38-1.063 1.063-1.063h1.938v-5.813c0-.684.57-1.063 1.103-1.063s1.063.38 1.063 1.063v5.813h3.495c.685 0 1.064.57 1.064 1.063 0 .532-.38 1.102-1.064 1.102h-3.495v13.564c0 1.86.532 2.28 2.317 2.28h1.178c.685 0 1.064.57 1.064 1.103 0 .493-.38 1.063-1.064 1.063z"/><path id="R" d="M368.24 128c-.53 0-1.102-.38-1.102-1.063v-11.095a6.47 6.47 0 0 0-6.497-6.497c-3.57 0-6.497 2.888-6.497 6.497v11.095c0 .684-.57 1.063-1.063 1.063-.532 0-1.103-.38-1.103-1.063v-24.925c0-.684.57-1.063 1.103-1.063.494 0 1.063.38 1.063 1.063v8.093c1.596-1.86 3.913-2.926 6.497-2.926 4.71 0 8.663 3.914 8.663 8.663v11.095c0 .684-.57 1.063-1.064 1.063z"/><path id="S" d="M439.414 118.996h-15.768c.342 4.332 3.153 7.485 7.295 7.485 2.052 0 4.483-.912 5.585-2.622.267-.418.57-.53.912-.53.57 0 1.178.455 1.178 1.025 0 .342 0 .418-.722 1.254-1.748 2.052-4.293 3.04-6.953 3.04-6.117 0-9.536-5.015-9.536-10.752 0-5.7 3.42-10.715 9.536-10.715s9.537 5.054 9.537 10.715c0 .57-.532 1.102-1.064 1.102zm-8.473-9.65c-4.56 0-6.953 3.495-7.295 7.485h14.628c-.342-4.332-3.153-7.485-7.333-7.485z"/><path id="T" d="M452.905 109.687c-3.57 0-6.497 2.888-6.497 6.497v10.753c0 .684-.57 1.063-1.063 1.063-.532 0-1.103-.38-1.103-1.063V108.89c0-.684.57-1.063 1.103-1.063.494 0 1.063.38 1.063 1.063v1.558c1.7-1.86 3.95-2.925 6.497-2.925.684 0 1.102.57 1.102 1.063 0 .532-.418 1.102-1.102 1.102z"/><path id="U" d="M491.588 128.646c-8.055 0-8.13-9.65-8.13-15.197 0-5.434.836-13.185 8.093-13.185 7.105 0 8.17 7.295 8.17 13.185 0 5.51-.114 15.197-8.13 15.197zm5.965-15.197c0-5.434-.76-11.02-5.965-11.02-5.7 0-5.965 6.99-5.965 11.02v2.432c0 4.407.836 10.6 5.927 10.6 5.205 0 6.003-6.193 6.003-10.6v-2.432z"/><path id="V" d="M575.415 104.178a2.14 2.14 0 1 1 0-4.332 2.14 2.14 0 0 1 0 4.332zm0 23.822c-.532 0-1.103-.342-1.103-1.063V108.89c0-.684.532-1.063 1.103-1.063.494 0 1.063.342 1.063 1.063v18.048c0 .684-.494 1.063-1.063 1.063z"/><path id="W" d="M676.073 109.23l-6.193 17.857c-.266.722-.607.912-1.102.912-.646 0-.836-.228-1.064-.912l-4.977-14.817-4.978 14.817c-.266.722-.608.912-1.102.912s-.874-.304-1.064-.912l-6.154-17.857c-.038-.113-.076-.304-.076-.418 0-.607.607-.987 1.102-.987.38 0 .836.19.988.722l5.205 15.046 4.977-14.855c.23-.723.456-.912 1.103-.912.456 0 .836.15 1.063.912l5.054 14.855 5.13-15.046c.19-.532.57-.722.987-.722.57 0 1.18.38 1.18 1.025 0 .152-.038.267-.076.38z"/><path id="X" d="M729.92 128c-.532 0-1.102-.38-1.102-1.063v-1.9c-1.596 2.242-4.065 3.61-7.37 3.61-6.117 0-9.536-5.015-9.536-10.752 0-5.7 3.42-10.715 9.536-10.715 3.306 0 5.775 1.368 7.37 3.572v-8.74c0-.684.57-1.063 1.102-1.063.494 0 1.064.38 1.064 1.063v24.925c0 .684-.57 1.063-1.064 1.063zm-8.473-18.655c-4.483 0-7.37 3.61-7.37 8.55s2.888 8.587 7.37 8.587c4.52 0 7.37-3.647 7.37-8.587s-2.85-8.55-7.37-8.55z"/></defs></svg>