<svg xmlns="http://www.w3.org/2000/svg" xmlns:xlink="http://www.w3.org/1999/xlink" viewBox="0 0 1080 1080" xmlns:v="https://vecta.io/nano"><defs><linearGradient id="A" x1="540" y1="1080" x2="540" gradientUnits="userSpaceOnUse"><stop offset="0" stop-color="#f12711"/><stop offset=".006" stop-color="#f12911"/><stop offset=".16" stop-color="#f25214"/><stop offset=".319" stop-color="#f37315"/><stop offset=".479" stop-color="#f48e17"/><stop offset=".644" stop-color="#f5a018"/><stop offset=".814" stop-color="#f5ab19"/><stop offset="1" stop-color="#f5af19"/></linearGradient><path id="B" d="M104.714 1045.51a1.36 1.36 0 0 1-1.4-1.101 7.763 7.763 0 0 1-4.804 1.668 7.666 7.666 0 0 1-7.604-7.605v-9.24a1.434 1.434 0 0 1 2.868-.033v9.272a4.753 4.753 0 1 0 9.507 0v-9.24a1.33 1.33 0 0 1 1.4-1.468 1.364 1.364 0 0 1 1.435 1.435v14.9a1.328 1.328 0 0 1-1.401 1.4z"/><path id="C" d="M825.28 1046.357c-1.2 0-3.22-.42-3.92-1.58a.478.478 0 0 1-.08-.299.546.546 0 0 1 1.021-.32 3.815 3.815 0 0 0 2.98 1.061c1.94 0 2.92-.64 2.92-1.94 0-3.02-6.562-1.42-6.562-5.422 0-2.02 2.02-2.8 3.84-2.8a5.415 5.415 0 0 1 3.44 1.16.556.556 0 0 1 .18.379.647.647 0 0 1-.62.6.527.527 0 0 1-.38-.16 4.001 4.001 0 0 0-2.62-.84c-1.76 0-2.7.682-2.7 1.66 0 2.8 6.562 1.32 6.562 5.422 0 2.28-2 3.08-4.06 3.08z"/><path id="D" d="M836 1046.318c-3.22 0-5.02-2.64-5.02-5.662 0-3 1.8-5.64 5.02-5.64s5.02 2.64 5.02 5.64c0 3.02-1.8 5.662-5.02 5.662zm0-10.162c-2.36 0-3.88 1.9-3.88 4.5s1.52 4.52 3.88 4.52c2.38 0 3.88-1.92 3.88-4.52s-1.5-4.5-3.88-4.5z"/><path id="E" d="M957.18 1045.98a.563.563 0 0 1-.58-.561v-5.842a3.42 3.42 0 0 0-6.841 0v5.842a.57.57 0 0 1-1.141 0v-9.502a.57.57 0 0 1 1.141 0v.64a4.563 4.563 0 0 1 7.981 3.02v5.842a.558.558 0 0 1-.561.561z"/><path id="F" d="M976.48 1045.98h-.62a2.075 2.075 0 0 1-2.36-2.342v-7.14h-1.02a.57.57 0 0 1 0-1.141h1.02v-3.06a.563.563 0 0 1 .58-.561.547.547 0 0 1 .56.561v3.06h1.84a.57.57 0 0 1 0 1.141h-1.84v7.14c0 .98.28 1.2 1.22 1.2h.62a.57.57 0 0 1 0 1.141z"/><path id="G" d="M101.164 46.648a6.27 6.27 0 1 1 6.27-6.27 6.198 6.198 0 0 1-6.27 6.27zm0 68.97a3.024 3.024 0 0 1-3.19-3.08V60.29a3.03 3.03 0 0 1 3.19-3.08 2.996 2.996 0 0 1 3.08 3.08v52.25a2.943 2.943 0 0 1-3.08 3.08z"/><path id="H" d="M251.203 89.548h-45.65c1 12.54 9.13 21.67 21.12 21.67 5.94 0 12.98-2.64 16.17-7.6a2.886 2.886 0 0 1 2.64-1.54c1.65 0 3.4 1.32 3.4 2.97 0 1 0 1.2-2.1 3.63-5.06 5.94-12.43 8.8-20.13 8.8-17.7 0-27.6-14.52-27.6-31.13 0-16.5 9.9-31.02 27.6-31.02s27.6 14.63 27.6 31.02a3.33 3.33 0 0 1-3.08 3.19zm-24.53-27.94c-13.2 0-20.13 10.12-21.12 21.67h42.35c-1-12.54-9.13-21.67-21.23-21.67z"/><path id="I" d="M337.33 117.71c-6.6 0-17.7-2.3-21.56-8.7a2.656 2.656 0 0 1-.44-1.65 3.001 3.001 0 0 1 5.61-1.76c3.96 4.84 11 5.83 16.4 5.83 10.67 0 16.06-3.52 16.06-10.67 0-16.6-36.08-7.8-36.08-29.8 0-11.1 11.1-15.4 21.12-15.4 5.72 0 14.52 1.98 18.92 6.38a3.077 3.077 0 0 1 .99 2.09 3.566 3.566 0 0 1-3.41 3.3 2.914 2.914 0 0 1-2.09-.88c-3.4-3.3-9.57-4.62-14.4-4.62-9.68 0-14.85 3.74-14.85 9.13 0 15.4 36.08 7.26 36.08 29.8 0 12.54-11 16.94-22.33 16.94z"/><path id="J" d="M410.04 117.49c-17.7 0-27.6-14.52-27.6-31.13 0-16.5 9.9-31.02 27.6-31.02s27.6 14.52 27.6 31.02c0 16.6-9.9 31.13-27.6 31.13zm0-55.88c-12.98 0-21.34 10.45-21.34 24.75s8.36 24.86 21.34 24.86c13.1 0 21.34-10.56 21.34-24.86s-8.25-24.75-21.34-24.75z"/><path id="K" d="M735.305 117.49c-9.57 0-16.72-3.96-21.34-10.45v5.5a3.135 3.135 0 0 1-6.27 0v-72.16a3.135 3.135 0 0 1 6.27 0v25.3c4.62-6.38 11.77-10.34 21.34-10.34 17.7 0 27.6 14.52 27.6 31.02 0 16.6-9.9 31.13-27.6 31.13zm0-55.88c-13.1 0-21.34 10.45-21.34 24.75s8.25 24.86 21.34 24.86 21.34-10.56 21.34-24.86-8.25-24.75-21.34-24.75z"/><path id="L" d="M826.825 115.62h-.1c-3.63 0-8.8-1.98-10.9-8.58-4.62 6.5-11.77 10.45-21.34 10.45-17.93 0-27.6-14.74-27.6-31.13 0-16.6 9.9-31.02 27.6-31.02 9.57 0 16.72 3.96 21.34 10.34v-5.4a3.1 3.1 0 0 1 3.19-3.08 3.002 3.002 0 0 1 3.08 3.08v44.33c0 7.04 7.92 2.64 7.92 7.92a3.026 3.026 0 0 1-3.19 3.08zm-32.34-54c-12.98 0-21.34 10.45-21.34 24.75s8.36 24.86 21.34 24.86c13.1 0 21.34-10.56 21.34-24.86s-8.25-24.75-21.34-24.75z"/><path id="M" d="M82.136 215.128c-4.84 5.4-11.55 8.36-19.7 8.36-17.7 0-27.6-14.52-27.6-31.13 0-16.5 9.9-31.02 27.6-31.02 8.14 0 14.85 2.97 19.7 8.36a2.913 2.913 0 0 1 .88 2.09 3.447 3.447 0 0 1-3.19 3.3 3.242 3.242 0 0 1-2.31-1.1c-3.63-4.07-8.7-6.38-15.07-6.38-12.98 0-21.34 10.45-21.34 24.75s8.36 24.86 21.34 24.86a19.766 19.766 0 0 0 15.07-6.38 3.122 3.122 0 0 1 5.5 2.09 3.15 3.15 0 0 1-.88 2.2z"/><path id="N" d="M254.394 221.62a3.092 3.092 0 0 1-3.19-3.08v-5.5c-4.62 6.5-11.77 10.45-21.34 10.45-17.7 0-27.6-14.52-27.6-31.13 0-16.5 9.9-31.02 27.6-31.02 9.57 0 16.72 3.96 21.34 10.34v-25.3a3.135 3.135 0 0 1 6.27 0v72.16a3.067 3.067 0 0 1-3.08 3.08zm-24.53-54c-12.98 0-21.34 10.45-21.34 24.75s8.36 24.86 21.34 24.86c13.1 0 21.34-10.56 21.34-24.86s-8.25-24.75-21.34-24.75z"/><path id="O" d="M397.063 221.62h-3.4c-8.7 0-12.98-4.3-12.98-12.87v-39.27h-5.6a3.135 3.135 0 0 1 0-6.27h5.6v-16.83a3.092 3.092 0 0 1 3.19-3.08 3.003 3.003 0 0 1 3.08 3.08v16.83h10.12a3.135 3.135 0 0 1 0 6.27h-10.12v39.27c0 5.4 1.54 6.6 6.7 6.6h3.4a3.135 3.135 0 0 1 0 6.27z"/><path id="P" d="M720.015 222.28c-5.94 0-10.9-5.5-10.9-11.66v-64.24a3.135 3.135 0 0 1 6.27 0v64.24c0 7.04 7.8 2.97 7.8 7.92 0 1.87-1.32 3.74-3.2 3.74z"/><path id="Q" d="M146.486 301.548h-45.65c1 12.54 9.13 21.67 21.12 21.67 5.94 0 12.98-2.64 16.17-7.6a2.886 2.886 0 0 1 2.64-1.54c1.65 0 3.4 1.32 3.4 2.97 0 1 0 1.21-2.1 3.63-5.06 5.94-12.43 8.8-20.13 8.8-17.7 0-27.6-14.52-27.6-31.13 0-16.5 9.9-31.02 27.6-31.02s27.6 14.63 27.6 31.02a3.33 3.33 0 0 1-3.08 3.19zm-24.53-27.94c-13.2 0-20.13 10.12-21.12 21.67h42.35c-1-12.54-9.13-21.67-21.23-21.67z"/><path id="R" d="M262.643 321.128c-4.84 5.39-11.55 8.36-19.7 8.36-17.7 0-27.6-14.52-27.6-31.13 0-16.5 9.9-31.02 27.6-31.02 8.14 0 14.85 2.97 19.7 8.36a2.913 2.913 0 0 1 .88 2.09 3.447 3.447 0 0 1-3.19 3.3 3.242 3.242 0 0 1-2.31-1.1c-3.63-4.07-8.7-6.38-15.07-6.38-12.98 0-21.34 10.45-21.34 24.75s8.36 24.86 21.34 24.86a19.767 19.767 0 0 0 15.07-6.38 3.122 3.122 0 0 1 5.5 2.09 3.15 3.15 0 0 1-.88 2.2z"/><path id="S" d="M690.645 327.618a3.092 3.092 0 0 1-3.19-3.08v-3.52a24.435 24.435 0 0 1-18.81 8.47 25.356 25.356 0 0 1-25.08-25.08v-32.12a3.135 3.135 0 0 1 6.27 0v32.12a18.81 18.81 0 0 0 37.62 0v-32.12a3.135 3.135 0 0 1 6.27 0v52.25a3.066 3.066 0 0 1-3.08 3.08z"/><path id="T" d="M842.774 327.618a3.091 3.091 0 0 1-3.19-3.08v-32.12a18.81 18.81 0 1 0-37.62 0v32.12a3.135 3.135 0 0 1-6.27 0v-52.25a3.135 3.135 0 0 1 6.27 0v3.52a25.093 25.093 0 0 1 43.89 16.61v32.12a3.066 3.066 0 0 1-3.08 3.08z"/><path id="U" d="M82.247 433.618a3.091 3.091 0 0 1-3.19-3.08v-32.12a18.81 18.81 0 1 0-37.62 0v32.12a3.135 3.135 0 0 1-6.27 0v-72.16a3.135 3.135 0 0 1 6.27 0v23.43a24.434 24.434 0 0 1 18.81-8.47 25.283 25.283 0 0 1 25.08 25.08v32.12a3.066 3.066 0 0 1-3.08 3.08z"/><path id="V" d="M604.74 380.598a18.802 18.802 0 0 0-18.81 18.811v31.13a3.135 3.135 0 0 1-6.27 0v-52.25a3.135 3.135 0 0 1 6.27 0v4.5a25.117 25.117 0 0 1 18.81-8.47 3.135 3.135 0 1 1 0 6.27z"/><path id="W" d="M142.635 587.006h-45.65c1 12.54 9.13 21.67 21.12 21.67 5.94 0 12.98-2.64 16.17-7.59a2.886 2.886 0 0 1 2.64-1.54c1.65 0 3.4 1.32 3.4 2.97 0 1 0 1.2-2.1 3.63-5.06 5.94-12.43 8.8-20.13 8.8-17.7 0-27.6-14.52-27.6-31.13 0-16.5 9.9-31.02 27.6-31.02s27.6 14.63 27.6 31.02a3.33 3.33 0 0 1-3.08 3.189zm-24.53-27.94c-13.2 0-20.13 10.12-21.12 21.67h42.35c-1-12.54-9.13-21.67-21.23-21.67z"/><path id="X" d="M336.892 558.956l-21.67 51.59c-.66 1.43-1.65 2.53-3.08 2.53a3.747 3.747 0 0 1-3.19-2.529l-21.67-51.48a3.496 3.496 0 0 1-.22-1.431 3.077 3.077 0 0 1 3.19-2.97 2.826 2.826 0 0 1 2.75 1.87l19.14 45.2 19.03-45.2a3.138 3.138 0 0 1 6.05.99 2.633 2.633 0 0 1-.33 1.43z"/><path id="Y" d="M403.66 613.076a3.091 3.091 0 0 1-3.19-3.08v-32.12a18.81 18.81 0 0 0-37.62 0v32.12a3.135 3.135 0 0 1-6.27 0v-52.25a3.135 3.135 0 0 1 6.27 0v3.52a25.093 25.093 0 0 1 43.89 16.609v32.12a3.066 3.066 0 0 1-3.08 3.08z"/><path id="Z" d="M130.425 734.946c-23.32 0-23.54-27.94-23.54-44 0-15.73 2.42-38.17 23.43-38.17 20.57 0 23.65 21.12 23.65 38.17 0 15.95-.33 44-23.54 44zm17.27-44c0-15.73-2.2-31.9-17.27-31.9-16.5 0-17.27 20.24-17.27 31.9v7.04c0 12.76 2.42 30.7 17.16 30.7 15.07 0 17.38-17.93 17.38-30.7z"/><path id="a" d="M306.3 733.076h-3.4c-8.7 0-12.98-4.3-12.98-12.87v-39.27h-5.6a3.136 3.136 0 0 1 0-6.27h5.6v-16.83a3.092 3.092 0 0 1 3.19-3.08 3.003 3.003 0 0 1 3.08 3.08v16.83h10.12a3.136 3.136 0 0 1 0 6.27h-10.12v39.27c0 5.39 1.54 6.6 6.7 6.6h3.4a3.135 3.135 0 0 1 0 6.27z"/><path id="b" d="M565.905 735.166c-6.6 0-17.7-2.3-21.56-8.69a2.657 2.657 0 0 1-.44-1.65 3.001 3.001 0 0 1 5.61-1.76c3.96 4.84 11 5.83 16.4 5.83 10.67 0 16.06-3.52 16.06-10.67 0-16.6-36.08-7.81-36.08-29.81 0-11.1 11.1-15.4 21.12-15.4 5.72 0 14.52 1.98 18.92 6.38a3.076 3.076 0 0 1 .99 2.09 3.566 3.566 0 0 1-3.41 3.3 2.913 2.913 0 0 1-2.09-.88c-3.4-3.3-9.57-4.62-14.4-4.62-9.68 0-14.85 3.74-14.85 9.13 0 15.4 36.08 7.26 36.08 29.81 0 12.54-11 16.94-22.33 16.94z"/><path id="c" d="M111.073 855.94a10.939 10.939 0 0 0-10.943 10.943v18.1a1.824 1.824 0 0 1-3.647 0v-30.397a1.824 1.824 0 0 1 3.647 0v2.624a14.613 14.613 0 0 1 10.943-4.928 1.824 1.824 0 1 1 0 3.647z"/><path id="d" d="M137.312 886.785h-1.984c-5.056 0-7.55-2.495-7.55-7.487V856.45h-3.264a1.824 1.824 0 0 1 0-3.647h3.264v-9.79a1.799 1.799 0 0 1 1.856-1.792 1.747 1.747 0 0 1 1.792 1.792v9.79h5.888a1.824 1.824 0 0 1 0 3.647h-5.888v22.847c0 3.136.896 3.84 3.904 3.84h1.984a1.824 1.824 0 0 1 0 3.647z"/><path id="e" d="M242.783 846.66a3.647 3.647 0 1 1 3.647-3.647 3.606 3.606 0 0 1-3.647 3.647zm0 40.125a1.759 1.759 0 0 1-1.856-1.792v-30.397a1.763 1.763 0 0 1 1.856-1.792 1.743 1.743 0 0 1 1.792 1.792v30.397a1.712 1.712 0 0 1-1.792 1.792z"/><path id="f" d="M277.79 888c-3.84 0-10.303-1.344-12.543-5.056a1.544 1.544 0 0 1-.256-.96 1.745 1.745 0 0 1 3.264-1.023c2.304 2.815 6.4 3.392 9.535 3.392 6.208 0 9.343-2.048 9.343-6.207 0-9.664-21-4.544-21-17.343 0-6.464 6.463-8.96 12.287-8.96 3.328 0 8.447 1.152 11.007 3.712a1.791 1.791 0 0 1 .576 1.216 2.075 2.075 0 0 1-1.984 1.92 1.695 1.695 0 0 1-1.216-.512c-1.984-1.92-5.567-2.688-8.383-2.688-5.632 0-8.64 2.177-8.64 5.313 0 8.96 20.99 4.224 20.99 17.343 0 7.295-6.4 9.855-12.99 9.855z"/><path id="g" d="M422.426 871.618h-26.558c.576 7.296 5.312 12.607 12.287 12.607 3.456 0 7.55-1.536 9.407-4.416a1.679 1.679 0 0 1 1.536-.896 1.956 1.956 0 0 1 1.984 1.728c0 .576 0 .704-1.216 2.112a15.11 15.11 0 0 1-11.711 5.119c-10.303 0-16.063-8.447-16.063-18.1 0-9.6 5.76-18.047 16.063-18.047s16.063 8.512 16.063 18.047a1.937 1.937 0 0 1-1.792 1.855zm-14.27-16.255c-7.68 0-11.71 5.888-12.287 12.607h24.638c-.576-7.296-5.312-12.607-12.35-12.607z"/><path id="h" d="M619.793 871.618h-26.558c.576 7.296 5.312 12.607 12.287 12.607 3.456 0 7.55-1.536 9.407-4.416a1.679 1.679 0 0 1 1.536-.896 1.956 1.956 0 0 1 1.984 1.728c0 .576 0 .704-1.216 2.112a15.11 15.11 0 0 1-11.711 5.119c-10.303 0-16.063-8.447-16.063-18.1 0-9.6 5.76-18.047 16.063-18.047s16.063 8.512 16.063 18.047a1.937 1.937 0 0 1-1.792 1.855zm-14.27-16.255c-7.68 0-11.71 5.888-12.287 12.607h24.638c-.576-7.296-5.31-12.607-12.35-12.607z"/><path id="i" d="M86.424 953.107c-10.625 0-16.564-8.71-16.564-18.677 0-9.898 5.94-18.6 16.564-18.6s16.564 8.712 16.564 18.6c0 9.966-5.94 18.677-16.564 18.677zm0-33.525c-7.788 0-12.803 6.27-12.803 14.85s5.015 14.915 12.803 14.915c7.853 0 12.803-6.335 12.803-14.915s-4.95-14.85-12.803-14.85z"/><path id="j" d="M154.27 951.985a1.855 1.855 0 0 1-1.914-1.848v-19.27a11.285 11.285 0 1 0-22.57 0v19.27a1.881 1.881 0 0 1-3.762 0V918.8a1.881 1.881 0 0 1 3.762 0v2.112a15.054 15.054 0 0 1 26.332 9.965v19.27a1.84 1.84 0 0 1-1.848 1.848z"/></defs><rect width="1080" height="1080" rx="40" fill="url(#A)"/><g opacity=".5" fill="#fff"><path d="M42.328 1046.045a7.892 7.892 0 0 1-5.503-2.002 1.364 1.364 0 0 1-1.468 1.401 1.346 1.346 0 0 1-1.401-1.401v-20.88a1.435 1.435 0 0 1 2.869-.033v6.238a7.4 7.4 0 0 1 5.503-2.169c5.37 0 8.373 4.403 8.373 9.406 0 5.037-3.002 9.44-8.373 9.44zm0-16c-3.335 0-5.503 2.602-5.503 6.57 0 4.003 2.168 6.604 5.503 6.604s5.504-2.602 5.504-6.604c0-3.97-2.168-6.57-5.504-6.57zm25.555 8.037h-12.34c.467 3.136 2.468 5.137 5.403 5.137a5.003 5.003 0 0 0 3.969-1.734 1.383 1.383 0 0 1 1.034-.533 1.556 1.556 0 0 1 1.501 1.468c0 .4-.1.7-.8 1.4a8.129 8.129 0 0 1-5.704 2.235c-5.37 0-8.372-4.437-8.372-9.44 0-4.97 3.002-9.406 8.372-9.406 5.437 0 8.34 4.437 8.34 9.406a1.422 1.422 0 0 1-1.401 1.468zm-6.937-8.038c-3.136 0-4.97 2.3-5.403 5.17H66.35c-.467-3.202-2.468-5.17-5.403-5.17zM88 1045.478a3.247 3.247 0 0 1-2.969-1.901 7.642 7.642 0 0 1-5.87 2.469c-5.437 0-8.372-4.47-8.372-9.44s3.002-9.406 8.372-9.406a7.369 7.369 0 0 1 5.504 2.202v-.134a1.376 1.376 0 0 1 1.4-1.501 1.341 1.341 0 0 1 1.468 1.401v12.875a.54.54 0 0 0 .467.601 1.418 1.418 0 1 1 0 2.835zm-8.84-15.443c-3.336 0-5.504 2.602-5.504 6.57 0 4.003 2.168 6.604 5.504 6.604 3.37 0 5.504-2.602 5.504-6.604 0-3.97-2.135-6.57-5.504-6.57z"/><use xlink:href="#B"/><path d="M115.158 1045.478h-.567c-3.17 0-4.37-1.668-4.37-4.403V1030.6h-1a1.418 1.418 0 1 1-.033-2.835h1v-4.637a1.355 1.355 0 0 1 1.435-1.4 1.328 1.328 0 0 1 1.401 1.4v4.637h2.135a1.383 1.383 0 0 1 1.4 1.401 1.356 1.356 0 0 1-1.4 1.434h-2.135v10.774c0 .934.333 1.268 1.268 1.268h.833a1.376 1.376 0 0 1 1.435 1.4 1.357 1.357 0 0 1-1.4 1.435zm4.604-20.415a2.401 2.401 0 1 1 2.402-2.401 2.392 2.392 0 0 1-2.402 2.401zm0 20.414a1.4 1.4 0 0 1-1.467-1.401V1029.2a1.408 1.408 0 0 1 1.467-1.435 1.374 1.374 0 0 1 1.401 1.435v14.876a1.346 1.346 0 0 1-1.401 1.401zm10.376-14.877h-1.5v13.442a1.364 1.364 0 0 1-1.468 1.401 1.346 1.346 0 0 1-1.401-1.401V1030.6h-1.37a1.418 1.418 0 0 1 0-2.835h1.367v-2.27a3.801 3.801 0 0 1 3.836-3.769 1.418 1.418 0 1 1 0 2.835.934.934 0 0 0-.967.9v2.302h1.5a1.418 1.418 0 1 1 0 2.835z"/><use xlink:href="#B" x="42.068"/><path d="M154.725 1045.544a3.403 3.403 0 0 1-3.336-3.402v-18.98a1.435 1.435 0 0 1 2.869-.033v19.013a.527.527 0 0 0 .467.567 1.418 1.418 0 1 1 0 2.835zm15.37-.066v-1.264c1.886-.237 2.046-.437 2.046-3.157v-6.7c0-2.8-1.248-4.017-3.064-4.017a5.597 5.597 0 0 0-3.47 1.493v9.476c0 2.527.187 2.658 2.06 2.896v1.264h-8.968v-1.264c2.254-.33 2.5-.4 2.5-3v-8.2c0-2.446-.303-2.565-2.185-2.922v-1.184a34.101 34.101 0 0 0 6.653-1.533l-.052 2.95 2.6-1.745a5.659 5.659 0 0 1 3.159-1.086c3.194 0 5.2 2.338 5.2 6.3v7.5c0 2.54.237 2.657 2.277 2.92v1.264zm23.9-3.703c-2.458 3.427-5.488 4.178-7.014 4.178-5.142 0-8.124-3.936-8.124-8.594a10.333 10.333 0 0 1 2.832-7.062 8.602 8.602 0 0 1 6.082-2.814 6.386 6.386 0 0 1 6.37 6.347c-.014.715-.08 1.277-.612 1.4-.767.184-6.17.5-10.318.647.062 4.587 2.717 6.74 5.556 6.74a6.776 6.776 0 0 0 4.543-1.866zm-7.07-12.7c-1.667 0-3.167 1.807-3.516 4.963l5.486-.118c.6-.026.848-.146.848-.792.04-2.022-1.037-4.053-2.818-4.053zm34.284.145c-1.943.343-2.248.624-3.105 2.765-1.33 3.462-3.102 8.53-4.934 13.94h-1.512l-4.65-11.46-4.55 11.46h-1.472l-4.685-14.192c-.687-1.985-.94-2.274-2.855-2.512v-1.25h9.397v1.25c-2.325.345-2.535.672-2.058 2.133l2.52 8.214c1.507-3.68 2.988-7.62 4.327-11.424h1.456c1.4 3.76 2.986 7.702 4.573 11.568.742-2.107 2.062-5.964 2.557-8.108.412-1.674-.008-2.078-2.753-2.383v-1.25h7.742zm9.4 3.746c-.92-2.606-2.155-3.984-4.2-3.984a2.166 2.166 0 0 0-2.225 2.266c0 1.497 1.046 2.264 3.16 3.216 3.278 1.496 5.3 2.787 5.3 5.736 0 3.85-3.6 5.764-6.945 5.764a12.073 12.073 0 0 1-4.92-1.161l-.662-4.892 1.252-.224c.8 2.5 2.33 4.75 4.976 4.75a2.231 2.231 0 0 0 2.438-2.281c0-1.423-.76-2.333-3.092-3.467-2.67-1.295-5.107-2.64-5.107-5.775 0-3.046 2.533-5.42 6.565-5.42a18.751 18.751 0 0 1 4.112.567l.62 4.577z"/></g><g opacity=".7" fill="#fff"><use xlink:href="#C"/><use xlink:href="#D"/><path d="M851.78 1045.98a.563.563 0 0 1-.58-.561v-.64a4.443 4.443 0 0 1-3.421 1.541 4.61 4.61 0 0 1-4.561-4.561v-5.842a.57.57 0 0 1 1.14 0v5.842a3.421 3.421 0 0 0 6.842 0v-5.842a.57.57 0 0 1 1.141 0v9.502a.559.559 0 0 1-.561.561zm7.96-9.644a3.418 3.418 0 0 0-3.421 3.42v5.662a.57.57 0 0 1-1.141 0v-9.502a.57.57 0 0 1 1.141 0v.82a4.566 4.566 0 0 1 3.421-1.541.571.571 0 1 1 0 1.141zm10.18 8.46a4.646 4.646 0 0 1-3.58 1.521c-3.22 0-5.02-2.64-5.02-5.662 0-3 1.8-5.64 5.02-5.64a4.651 4.651 0 0 1 3.58 1.52.534.534 0 0 1 .16.381.626.626 0 0 1-.58.6.586.586 0 0 1-.42-.199 3.526 3.526 0 0 0-2.74-1.16c-2.36 0-3.88 1.9-3.88 4.5s1.52 4.52 3.88 4.52a3.592 3.592 0 0 0 2.74-1.16.586.586 0 0 1 .42-.199.594.594 0 0 1 .58.58.569.569 0 0 1-.16.398zm11.58-3.56h-8.3c.18 2.28 1.66 3.94 3.84 3.94a3.615 3.615 0 0 0 2.94-1.381.526.526 0 0 1 .48-.279.611.611 0 0 1 .62.541c0 .18 0 .22-.38.658a4.718 4.718 0 0 1-3.66 1.602c-3.22 0-5.02-2.64-5.02-5.662 0-3 1.8-5.64 5.02-5.64s5.02 2.66 5.02 5.64a.605.605 0 0 1-.56.58zm-4.46-5.08c-2.4 0-3.66 1.84-3.84 3.94h7.7c-.18-2.28-1.66-3.94-3.86-3.94zm8.438 3.26a1.14 1.14 0 1 1 0-2.279 1.14 1.14 0 0 1 0 2.279zm0 6.563a1.141 1.141 0 1 1 0-2.281 1.141 1.141 0 0 1 0 2.281zm23.082-13.524l-3.52 13.104a.554.554 0 0 1-.56.42.534.534 0 0 1-.541-.42l-3-11.084-2.98 11.084a.534.534 0 0 1-.54.42.555.555 0 0 1-.561-.42l-3.52-13.104a.539.539 0 0 1-.02-.18.581.581 0 0 1 .58-.58.499.499 0 0 1 .521.439l3 11.082 2.98-11.082a.53.53 0 0 1 .54-.4.538.538 0 0 1 .56.4l2.98 11.082 3-11.082a.526.526 0 0 1 .521-.439.581.581 0 0 1 .58.58.539.539 0 0 1-.021.18zm12.4 13.525h-.02a2.073 2.073 0 0 1-1.98-1.561 4.538 4.538 0 0 1-3.88 1.9c-3.26 0-5.02-2.682-5.02-5.662 0-3.02 1.8-5.64 5.02-5.64a4.572 4.572 0 0 1 3.88 1.881v-.98a.565.565 0 0 1 .581-.561.547.547 0 0 1 .56.561v8.063c0 1.28 1.44.48 1.44 1.44a.55.55 0 0 1-.58.561zm-5.88-9.822c-2.36 0-3.88 1.9-3.88 4.5s1.52 4.52 3.88 4.52c2.38 0 3.88-1.92 3.88-4.52s-1.5-4.5-3.88-4.5z"/><use xlink:href="#C" x="101.42"/><path d="M941.42 1045.98a.563.563 0 0 1-.58-.561v-5.842a3.421 3.421 0 0 0-6.841 0v5.842a.571.571 0 0 1-1.141 0v-13.123a.571.571 0 0 1 1.141 0v4.262a4.443 4.443 0 0 1 3.421-1.541 4.598 4.598 0 0 1 4.561 4.561v5.842a.558.558 0 0 1-.561.56zm3.797-12.544a1.141 1.141 0 1 1 1.141-1.141 1.127 1.127 0 0 1-1.141 1.141zm0 12.543a.55.55 0 0 1-.58-.561v-9.502a.552.552 0 0 1 .58-.561.545.545 0 0 1 .561.561v9.502a.536.536 0 0 1-.561.561z"/><use xlink:href="#E"/><path d="M964.96 1050.54c-1.7 0-4.102-.64-4.102-1.36a.636.636 0 0 1 .58-.641 7.129 7.129 0 0 1 1.061.48 7.513 7.513 0 0 0 2.461.379c2.56 0 3.88-1.26 3.88-3.72v-1.4a4.773 4.773 0 0 1-3.88 1.701c-3.16 0-5.02-2.24-5.02-5.322 0-3 1.8-5.64 5.02-5.64a4.572 4.572 0 0 1 3.88 1.881v-.96a.57.57 0 0 1 1.141 0v9.742c0 3.182-1.9 4.86-5.02 4.86zm0-14.383c-2.36 0-3.88 1.9-3.88 4.5 0 2.582 1.42 4.182 3.88 4.182s3.88-1.6 3.88-4.182c0-2.6-1.5-4.5-3.88-4.5z"/><use xlink:href="#F"/><use xlink:href="#D" x="147.418"/><use xlink:href="#E" x="42.198"/><path d="M1013.497 1039.816h-4.86v5.602a.57.57 0 0 1-1.141 0v-13.123a.59.59 0 0 1 .58-.561h5.4a4.041 4.041 0 1 1 .02 8.082zm0-6.96h-4.86v5.82h4.84a2.91 2.91 0 1 0 .02-5.82z"/><use xlink:href="#D" x="188.818"/><path d="M1035.557 1046.357c-1.2 0-3.22-.42-3.92-1.58a.478.478 0 0 1-.08-.299.546.546 0 0 1 1.02-.32 3.815 3.815 0 0 0 2.98 1.061c1.94 0 2.92-.64 2.92-1.94 0-3.02-6.562-1.42-6.562-5.422 0-2.02 2.02-2.8 3.84-2.8a5.415 5.415 0 0 1 3.44 1.16.556.556 0 0 1 .18.379.647.647 0 0 1-.62.6.527.527 0 0 1-.38-.16 4.001 4.001 0 0 0-2.62-.84c-1.76 0-2.7.682-2.7 1.66 0 2.8 6.562 1.32 6.562 5.422 0 2.28-2 3.08-4.06 3.08z"/><use xlink:href="#F" x="68.897"/></g><path d="M23.956 899.02h512.822v64.054H23.956zm0-255.333H598.16v106.15H23.956z" fill="#00a2d0"/><g fill="#1a1a1a"><path d="M92.036 105.5c-5.4 7.48-13.1 12-24.53 12-23.65 0-32-19.58-32-41.03 0-21.56 8.36-41.14 32-41.14 11.1 0 19.25 4.4 24.42 12a2.23 2.23 0 0 1 .66 1.76 3.297 3.297 0 0 1-3.41 3.08 2.915 2.915 0 0 1-2.42-1.21c-3.96-5.72-9.9-9.35-19.25-9.35-18.26 0-25.74 14.3-25.74 34.87 0 20.46 7.48 34.76 25.74 34.76 9.35 0 15.4-3.52 19.47-9.35a2.561 2.561 0 0 1 2.42-1.43 3.363 3.363 0 0 1 3.3 3.19 3.507 3.507 0 0 1-.66 1.87z"/><use xlink:href="#G"/><path d="M133.394 115.62h-3.4c-8.7 0-12.98-4.3-12.98-12.87V63.48h-5.6a3.135 3.135 0 0 1 0-6.27h5.6v-16.83a3.092 3.092 0 0 1 3.19-3.08 3.003 3.003 0 0 1 3.08 3.08v16.83h10.12a3.135 3.135 0 0 1 0 6.27h-10.12v39.27c0 5.4 1.54 6.6 6.7 6.6h3.4a3.135 3.135 0 0 1 0 6.27z"/><use xlink:href="#G" x="41.91"/><path d="M196.534 115.62h-43.23a2.979 2.979 0 0 1-3.08-2.97 3.965 3.965 0 0 1 .66-2.2l39.05-46.97h-36.63a3.135 3.135 0 0 1 0-6.27h43.23a3.081 3.081 0 0 1 3.19 2.97 3.013 3.013 0 0 1-.77 2.2l-38.94 46.97h36.52a3.136 3.136 0 1 1 0 6.27z"/><use xlink:href="#H"/><path d="M307.852 115.62a3.092 3.092 0 0 1-3.19-3.08v-32.12a18.81 18.81 0 0 0-37.62 0v32.12a3.135 3.135 0 0 1-6.27 0V60.29a3.135 3.135 0 0 1 6.27 0v3.52a25.093 25.093 0 0 1 43.89 16.61v32.12a3.067 3.067 0 0 1-3.08 3.08z"/><use xlink:href="#I"/><use xlink:href="#J"/><path d="M462.068 43.458h-3.4a4.862 4.862 0 0 0-4.84 4.73v9.02h8.25a2.996 2.996 0 0 1 3.08 3.08 3.092 3.092 0 0 1-3.08 3.19h-8.25v49.06a3.003 3.003 0 0 1-3.08 3.08 2.938 2.938 0 0 1-3.08-3.08V63.48h-7.6a3.135 3.135 0 0 1 0-6.27h7.6V48.2a10.915 10.915 0 0 1 10.89-10.89h3.52a3.122 3.122 0 0 1 3.19 3.19 2.949 2.949 0 0 1-3.19 2.97zm94.598 72.162a3.003 3.003 0 0 1-3.08-3.08V52.8l-26.18 48.62a2.901 2.901 0 0 1-2.53 1.98 3.4 3.4 0 0 1-2.97-1.98l-26.07-48.62v59.73a3.135 3.135 0 0 1-6.27 0V40.38a3.192 3.192 0 0 1 3.3-3.08 2.873 2.873 0 0 1 2.64 1.54l29.15 54.45 29.26-54.45a2.988 2.988 0 0 1 2.64-1.54 3.192 3.192 0 0 1 3.3 3.08v72.16a3.092 3.092 0 0 1-3.19 3.08zm58.3 0a3.092 3.092 0 0 1-3.19-3.08v-3.52a24.434 24.434 0 0 1-18.81 8.47 25.356 25.356 0 0 1-25.08-25.08V60.3a3.135 3.135 0 0 1 6.27 0V92.4a18.81 18.81 0 1 0 37.62 0V60.3a3.135 3.135 0 0 1 6.27 0v52.25a3.067 3.067 0 0 1-3.08 3.08zm81.5 0a3.003 3.003 0 0 1-3.08-3.08V75.58a14.026 14.026 0 0 0-28.05-.11v37.07a3.003 3.003 0 0 1-3.08 3.08 3.092 3.092 0 0 1-3.19-3.08V75.58a13.97 13.97 0 0 0-27.94-.11v37.07a3.135 3.135 0 0 1-6.27 0V60.3a3.135 3.135 0 0 1 6.27 0v.66a19.99 19.99 0 0 1 13.97-5.61 20.401 20.401 0 0 1 17.16 9.35 20.305 20.305 0 0 1 37.4 10.78v37.07a3.092 3.092 0 0 1-3.19 3.08z"/><use xlink:href="#K"/><use xlink:href="#L"/><use xlink:href="#G" x="737.65"/><use xlink:href="#M"/><use xlink:href="#J" x="-297.544" y="106"/><path d="M193.674 221.62a3.092 3.092 0 0 1-3.19-3.08v-32.12a18.81 18.81 0 1 0-37.62 0v32.12a3.135 3.135 0 0 1-6.27 0v-52.25a3.135 3.135 0 0 1 6.27 0v3.52a25.093 25.093 0 0 1 43.89 16.61v32.12a3.067 3.067 0 0 1-3.08 3.08z"/><use xlink:href="#N"/><path d="M312.583 221.62a3.092 3.092 0 0 1-3.19-3.08v-3.52a24.434 24.434 0 0 1-18.81 8.47 25.356 25.356 0 0 1-25.08-25.08v-32.12a3.135 3.135 0 0 1 6.27 0v32.12a18.81 18.81 0 1 0 37.62 0v-32.12a3.135 3.135 0 0 1 6.27 0v52.25a3.067 3.067 0 0 1-3.08 3.08z"/><use xlink:href="#M" x="287.317"/><use xlink:href="#O"/><use xlink:href="#H" x="199.759" y="106"/><use xlink:href="#N" x="255.746"/><path d="M562.72 221.62h-3.4c-8.7 0-12.98-4.3-12.98-12.87v-39.27h-5.6a3.135 3.135 0 0 1 0-6.27h5.6v-16.83a3.092 3.092 0 0 1 3.19-3.08 3.003 3.003 0 0 1 3.08 3.08v16.83h10.12a3.135 3.135 0 0 1 0 6.27H552.6v39.27c0 5.4 1.54 6.6 6.7 6.6h3.4a3.135 3.135 0 0 1 0 6.27zm55.77 0a3.092 3.092 0 0 1-3.19-3.08v-32.12a18.81 18.81 0 1 0-37.62 0v32.12a3.135 3.135 0 0 1-6.27 0v-72.16a3.135 3.135 0 0 1 6.27 0v23.43a24.433 24.433 0 0 1 18.81-8.47 25.283 25.283 0 0 1 25.08 25.08v32.12a3.067 3.067 0 0 1-3.08 3.08z"/><use xlink:href="#H" x="428.005" y="106"/><use xlink:href="#P"/><use xlink:href="#L" x="-44.991" y="106"/><path d="M813.513 168.598a18.802 18.802 0 0 0-18.81 18.811v31.13a3.135 3.135 0 0 1-6.27 0v-52.25a3.135 3.135 0 0 1 6.27 0v4.5a25.116 25.116 0 0 1 18.81-8.47 3.135 3.135 0 1 1 0 6.27zm27.5 78.102c-9.35 0-22.55-3.52-22.55-7.48a3.491 3.491 0 0 1 3.19-3.52c1.2 0 3.74 1.87 5.83 2.64a41.231 41.231 0 0 0 13.53 2.09c14.08 0 21.34-6.93 21.34-20.46v-7.7c-4.84 5.83-11.77 9.35-21.34 9.35-17.38 0-27.6-12.32-27.6-29.26 0-16.5 9.9-31.02 27.6-31.02 9.57 0 16.72 3.96 21.34 10.34v-5.28a3.135 3.135 0 0 1 6.27 0v53.57c0 17.5-10.45 26.73-27.6 26.73zm0-79.1c-12.98 0-21.34 10.45-21.34 24.75 0 14.2 7.8 23 21.34 23s21.34-8.8 21.34-23c0-14.3-8.25-24.75-21.34-24.75z"/><use xlink:href="#H" x="676.049" y="106"/><use xlink:href="#I" x="617.87" y="106"/><use xlink:href="#O" x="607.737"/><use xlink:href="#K" x="-672.529" y="211.998"/><use xlink:href="#Q"/><use xlink:href="#L" x="-613.351" y="211.998"/><use xlink:href="#R"/><path d="M317.203 327.618a3.091 3.091 0 0 1-3.19-3.08v-32.12a18.81 18.81 0 0 0-37.62 0v32.12a3.135 3.135 0 0 1-6.27 0v-72.16a3.135 3.135 0 0 1 6.27 0v23.43a24.433 24.433 0 0 1 18.81-8.47 25.283 25.283 0 0 1 25.08 25.08v32.12a3.066 3.066 0 0 1-3.08 3.08z"/><use xlink:href="#R" x="130.789"/><use xlink:href="#P" x="-308.215" y="105.998"/><use xlink:href="#Q" x="321.514"/><use xlink:href="#L" x="-291.827" y="211.998"/><path d="M588.677 327.618a3.091 3.091 0 0 1-3.19-3.08v-32.12a18.81 18.81 0 0 0-37.62 0v32.12a3.135 3.135 0 0 1-6.27 0v-52.25a3.135 3.135 0 0 1 6.27 0v3.52a25.093 25.093 0 0 1 43.89 16.61v32.12a3.066 3.066 0 0 1-3.08 3.08zm46.2-34.2h-34.43a3.136 3.136 0 1 1 0-6.271h34.43a3.136 3.136 0 1 1 0 6.271z"/><use xlink:href="#S"/><path d="M728.156 329.488c-9.57 0-16.72-3.96-21.34-10.45v28.5a3.136 3.136 0 1 1-6.27 0v-75.24a3.135 3.135 0 0 1 6.27 0v5.4c4.62-6.38 11.77-10.34 21.34-10.34 17.7 0 27.6 14.52 27.6 31.02 0 16.6-9.9 31.13-27.6 31.13zm0-55.88c-13.1 0-21.34 10.45-21.34 24.75s8.25 24.86 21.34 24.86 21.34-10.56 21.34-24.86-8.25-24.75-21.34-24.75zm57.638-14.96a6.27 6.27 0 1 1 6.27-6.27 6.198 6.198 0 0 1-6.27 6.27zm0 68.97a3.024 3.024 0 0 1-3.19-3.08v-52.25a3.03 3.03 0 0 1 3.19-3.08 2.996 2.996 0 0 1 3.08 3.08v52.25a2.942 2.942 0 0 1-3.08 3.08z"/><use xlink:href="#T"/><use xlink:href="#U"/><use xlink:href="#S" x="-551.199" y="106"/><path d="M220.956 433.618a3.002 3.002 0 0 1-3.08-3.08v-36.96a14.026 14.026 0 0 0-28.05-.11v37.07a3.002 3.002 0 0 1-3.08 3.08 3.091 3.091 0 0 1-3.19-3.08v-36.96a13.97 13.97 0 0 0-27.94-.11v37.07a3.135 3.135 0 0 1-6.27 0v-52.25a3.135 3.135 0 0 1 6.27 0v.66a19.989 19.989 0 0 1 13.97-5.61 20.401 20.401 0 0 1 17.16 9.35 20.305 20.305 0 0 1 37.4 10.78v37.07a3.091 3.091 0 0 1-3.19 3.08zm68.64 0h-.1c-3.63 0-8.8-1.98-10.9-8.58-4.62 6.5-11.77 10.45-21.34 10.45-17.93 0-27.6-14.74-27.6-31.13 0-16.6 9.9-31.02 27.6-31.02 9.57 0 16.72 3.96 21.34 10.34v-5.4a3.1 3.1 0 0 1 3.19-3.08 3.002 3.002 0 0 1 3.08 3.08v44.33c0 7.04 7.92 2.64 7.92 7.92a3.026 3.026 0 0 1-3.19 3.08zm-32.34-54c-12.98 0-21.34 10.45-21.34 24.75s8.36 24.86 21.34 24.86c13.1 0 21.34-10.56 21.34-24.86s-8.25-24.75-21.34-24.75z"/><use xlink:href="#T" x="-499.499" y="106"/><use xlink:href="#U" x="339.566"/><path d="M436.113 364.647a6.27 6.27 0 1 1 6.27-6.27 6.198 6.198 0 0 1-6.27 6.27zm0 68.97a3.024 3.024 0 0 1-3.19-3.08v-52.25a3.03 3.03 0 0 1 3.19-3.08 2.997 2.997 0 0 1 3.08 3.08v52.25a2.942 2.942 0 0 1-3.08 3.08zm30.47 2.09c-6.6 0-17.7-2.3-21.56-8.7a2.657 2.657 0 0 1-.44-1.65 3.001 3.001 0 0 1 5.61-1.76c3.96 4.84 11 5.83 16.4 5.83 10.67 0 16.06-3.52 16.06-10.67 0-16.6-36.08-7.8-36.08-29.8 0-11.1 11.1-15.4 21.12-15.4 5.72 0 14.52 1.98 18.92 6.38a3.08 3.08 0 0 1 .99 2.091 3.566 3.566 0 0 1-3.41 3.3 2.917 2.917 0 0 1-2.09-.88c-3.4-3.3-9.57-4.62-14.4-4.62-9.68 0-14.85 3.74-14.85 9.13 0 15.4 36.08 7.26 36.08 29.8 0 12.54-11 16.94-22.33 16.94zm47.4-2.1h-3.4c-8.7 0-12.98-4.3-12.98-12.87v-39.27h-5.6a3.135 3.135 0 0 1 0-6.27h5.6v-16.83a3.091 3.091 0 0 1 3.19-3.08 3.002 3.002 0 0 1 3.08 3.08v16.83h10.12a3.135 3.135 0 0 1 0 6.27h-10.12v39.27c0 5.4 1.54 6.6 6.7 6.6h3.4a3.136 3.136 0 0 1 0 6.271zm31.57 1.87c-17.7 0-27.6-14.52-27.6-31.13 0-16.5 9.9-31.02 27.6-31.02s27.6 14.52 27.6 31.02c0 16.6-9.9 31.13-27.6 31.13zm0-55.88c-12.98 0-21.34 10.45-21.34 24.75s8.36 24.86 21.34 24.86c13.1 0 21.34-10.56 21.34-24.86s-8.25-24.75-21.34-24.75z"/><use xlink:href="#V"/><path d="M663.37 379.607l-29.8 70.51c-2.2 5.17-6.7 6.6-11.77 6.6h-4.84a3.136 3.136 0 0 1 0-6.271h4.84c2.42 0 4.95-.1 5.94-2.64l6.27-14.96-22.77-53.24a3.49 3.49 0 0 1-.22-1.43 3.077 3.077 0 0 1 3.19-2.97 2.824 2.824 0 0 1 2.75 1.87l20.46 47.74 20.24-47.74a2.869 2.869 0 0 1 2.86-1.87 2.982 2.982 0 0 1 3.08 2.97 3.497 3.497 0 0 1-.22 1.43z"/></g><g fill="#fff"><path d="M85.766 613.187a2.714 2.714 0 0 1-2.31-1.32l-23.65-32.67h-19.7v30.8a3.135 3.135 0 0 1-6.27 0v-72.16a3.246 3.246 0 0 1 3.19-3.08h29.7a22.16 22.16 0 0 1 22.33 22.11 22.392 22.392 0 0 1-21.45 22.33l20.8 28.82a3.015 3.015 0 0 1 .77 1.979 3.469 3.469 0 0 1-3.41 3.19zm-18.92-72.27h-26.73v32h26.62a16.008 16.008 0 0 0 16.06-16.06c0-10-8.47-15.95-15.95-15.95z"/><use xlink:href="#W"/><path d="M223.814 613.076a3.002 3.002 0 0 1-3.08-3.08v-36.96a14.026 14.026 0 0 0-28.05-.11v37.07a3.002 3.002 0 0 1-3.08 3.08 3.091 3.091 0 0 1-3.19-3.08v-36.96a13.97 13.97 0 0 0-27.94-.11v37.07a3.135 3.135 0 0 1-6.27 0v-52.25a3.135 3.135 0 0 1 6.27 0v.66a19.989 19.989 0 0 1 13.97-5.61 20.402 20.402 0 0 1 17.16 9.351 20.305 20.305 0 0 1 37.4 10.779v37.07a3.091 3.091 0 0 1-3.19 3.08z"/><use xlink:href="#J" x="-149.926" y="497.456"/><use xlink:href="#X"/><path d="M344.48 544.106a6.27 6.27 0 1 1 6.27-6.271 6.198 6.198 0 0 1-6.27 6.271zm0 68.97a3.024 3.024 0 0 1-3.19-3.08v-52.25a3.03 3.03 0 0 1 3.19-3.08 2.997 2.997 0 0 1 3.08 3.08v52.25a2.942 2.942 0 0 1-3.08 3.08z"/><use xlink:href="#Y"/><path d="M439.85 638.156c-9.35 0-22.55-3.52-22.55-7.48a3.491 3.491 0 0 1 3.19-3.521c1.2 0 3.74 1.87 5.83 2.64a41.244 41.244 0 0 0 13.53 2.09c14.08 0 21.34-6.93 21.34-20.46v-7.7c-4.84 5.83-11.77 9.35-21.34 9.35-17.38 0-27.6-12.32-27.6-29.26 0-16.5 9.9-31.02 27.6-31.02 9.57 0 16.72 3.96 21.34 10.34v-5.28a3.135 3.135 0 0 1 6.27 0v53.57c0 17.49-10.45 26.73-27.6 26.73zm0-79.1c-12.98 0-21.34 10.45-21.34 24.75 0 14.19 7.8 23 21.34 23s21.34-8.8 21.34-23c0-14.3-8.25-24.75-21.34-24.75z"/><use xlink:href="#J" x="111.87" y="497.456"/><use xlink:href="#X" x="261.794"/><use xlink:href="#W" x="507.861"/><use xlink:href="#V" x="80.404" y="179.458"/><path d="M80.267 718.446h-7.15v11.55a3.135 3.135 0 0 1-6.27 0v-11.55h-29.6c-2.2 0-3.3-1.2-3.3-2.75a3.622 3.622 0 0 1 .55-1.98l31.02-59.18a3.209 3.209 0 0 1 2.86-1.76 3.243 3.243 0 0 1 3.19 3.08 3.701 3.701 0 0 1-.44 1.649l-28.6 54.67h24.3v-14.2a3.137 3.137 0 1 1 6.27-.11v14.3h7.15a3.002 3.002 0 0 1 3.08 3.079 3.092 3.092 0 0 1-3.08 3.19zm11.548 24.42a2.864 2.864 0 0 1-1.65.44 3.077 3.077 0 0 1-2.97-3.19c0-3.08 4.73-3.52 5.5-7.04a6.331 6.331 0 0 1 .44-12.649c5.4 0 6.6 5.5 6.6 8.9a15.699 15.699 0 0 1-7.92 13.53z"/><use xlink:href="#Z"/><use xlink:href="#Z" x="52.358"/><use xlink:href="#Z" x="104.717"/><use xlink:href="#a"/><use xlink:href="#J" x="-72.16" y="617.456"/><use xlink:href="#Y" x="15.398" y="120"/><use xlink:href="#Y" x="73.587" y="120"/><use xlink:href="#W" x="395.332" y="120"/><use xlink:href="#b"/><use xlink:href="#J" x="228.574" y="617.456"/><path d="M692.842 660.916h-3.4a4.862 4.862 0 0 0-4.84 4.73v9.02h8.25a2.997 2.997 0 0 1 3.08 3.08 3.092 3.092 0 0 1-3.08 3.19h-8.25v49.06a3.002 3.002 0 0 1-3.08 3.08 2.938 2.938 0 0 1-3.08-3.08v-49.06h-7.6a3.136 3.136 0 0 1 0-6.27h7.6v-9.02a10.915 10.915 0 0 1 10.89-10.891h3.52a3.122 3.122 0 0 1 3.19 3.19 2.949 2.949 0 0 1-3.19 2.97z"/><use xlink:href="#a" x="434.17"/><use xlink:href="#V" x="169.5" y="299.458"/><path d="M833.728 733.076h-.1c-3.63 0-8.8-1.98-10.9-8.58-4.62 6.5-11.77 10.45-21.34 10.45-17.93 0-27.6-14.74-27.6-31.13 0-16.6 9.9-31.02 27.6-31.02 9.57 0 16.72 3.96 21.34 10.34v-5.4a3.1 3.1 0 0 1 3.19-3.08 3.002 3.002 0 0 1 3.08 3.08v44.33c0 7.04 7.92 2.64 7.92 7.92a3.025 3.025 0 0 1-3.19 3.08zm-32.34-54c-12.98 0-21.34 10.45-21.34 24.75s8.36 24.86 21.34 24.86c13.1 0 21.34-10.56 21.34-24.86s-8.25-24.75-21.34-24.75z"/><use xlink:href="#b" x="294.992"/><path d="M935.257 733.076a3.091 3.091 0 0 1-3.19-3.08v-32.12a18.81 18.81 0 0 0-37.62 0v32.12a3.135 3.135 0 0 1-6.27 0v-72.16a3.135 3.135 0 0 1 6.27 0v23.43a24.432 24.432 0 0 1 18.81-8.471 25.283 25.283 0 0 1 25.08 25.08v32.12a3.066 3.066 0 0 1-3.08 3.08zM64.033 844.805H37.4v15.742h19.52a1.764 1.764 0 0 1 1.856 1.792 1.799 1.799 0 0 1-1.792 1.856H37.4v20.798a1.824 1.824 0 0 1-3.647 0v-41.98a1.889 1.889 0 0 1 1.856-1.792h28.414a1.793 1.793 0 1 1 0 3.584zm12.61 43.068c-10.303 0-16.063-8.447-16.063-18.1 0-9.6 5.76-18.047 16.063-18.047s16.063 8.447 16.063 18.047c0 9.663-5.76 18.1-16.063 18.1zm0-32.5c-7.55 0-12.415 6.08-12.415 14.4s4.864 14.463 12.415 14.463c7.615 0 12.415-6.144 12.415-14.463s-4.8-14.4-12.415-14.4z"/><use xlink:href="#c"/><use xlink:href="#d"/><path d="M169.76 886.785a1.798 1.798 0 0 1-1.855-1.792v-18.687a10.944 10.944 0 1 0-21.887 0v18.687a1.824 1.824 0 0 1-3.647 0v-41.98a1.824 1.824 0 0 1 3.647 0v13.63a14.216 14.216 0 0 1 10.943-4.928 14.709 14.709 0 0 1 14.591 14.591v18.687a1.784 1.784 0 0 1-1.792 1.792zm35.327-15.167H178.53c.576 7.296 5.312 12.607 12.287 12.607 3.456 0 7.55-1.536 9.407-4.416a1.679 1.679 0 0 1 1.536-.896 1.956 1.956 0 0 1 1.984 1.728c0 .576 0 .704-1.216 2.112a15.11 15.11 0 0 1-11.711 5.119c-10.303 0-16.063-8.447-16.063-18.1 0-9.6 5.76-18.047 16.063-18.047s16.063 8.512 16.063 18.047a1.937 1.937 0 0 1-1.792 1.855zm-14.27-16.255c-7.68 0-11.7 5.888-12.287 12.607h24.638c-.576-7.296-5.312-12.607-12.35-12.607zm43.39-10.558h-1.984a2.828 2.828 0 0 0-2.816 2.752v5.247h4.8a1.743 1.743 0 0 1 1.792 1.792 1.799 1.799 0 0 1-1.792 1.855h-4.8v28.542a1.746 1.746 0 0 1-1.792 1.792 1.709 1.709 0 0 1-1.792-1.792V856.45h-4.416a1.824 1.824 0 0 1 0-3.647h4.416v-5.247a6.35 6.35 0 0 1 6.335-6.336h2.048a1.816 1.816 0 0 1 1.856 1.855 1.716 1.716 0 0 1-1.856 1.729z"/><use xlink:href="#e"/><use xlink:href="#c" x="153.341"/><use xlink:href="#f"/><use xlink:href="#d" x="168.061"/><path d="M332.7 886.785h-1.984c-5.056 0-7.55-2.495-7.55-7.487V856.45H319.9a1.824 1.824 0 0 1 0-3.647h3.264v-9.8a1.799 1.799 0 0 1 1.856-1.792 1.747 1.747 0 0 1 1.791 1.792v9.8h5.888a1.824 1.824 0 0 1 0 3.647h-5.888v22.847c0 3.136.896 3.84 3.904 3.84h1.984a1.824 1.824 0 0 1 0 3.647zm5.632-40.125a3.647 3.647 0 1 1 3.648-3.647 3.606 3.606 0 0 1-3.648 3.647zm0 40.125a1.759 1.759 0 0 1-1.855-1.792v-30.397a1.763 1.763 0 0 1 1.855-1.792 1.743 1.743 0 0 1 1.792 1.792v30.397a1.712 1.712 0 0 1-1.792 1.792zm48.702 0a1.747 1.747 0 0 1-1.792-1.792V863.5a8.16 8.16 0 0 0-16.319-.064v21.566a1.747 1.747 0 0 1-1.792 1.792 1.799 1.799 0 0 1-1.856-1.792V863.5a8.128 8.128 0 0 0-16.255-.064v21.566a1.824 1.824 0 0 1-3.647 0v-30.397a1.824 1.824 0 0 1 3.647 0v.384a11.63 11.63 0 0 1 8.127-3.264 11.869 11.869 0 0 1 9.983 5.439 11.813 11.813 0 0 1 21.758 6.271v21.566a1.799 1.799 0 0 1-1.856 1.792z"/><use xlink:href="#g"/><use xlink:href="#e" x="198.907"/><path d="M476.12 886.785a1.798 1.798 0 0 1-1.855-1.792v-18.687a10.944 10.944 0 0 0-21.887 0v18.687a1.824 1.824 0 0 1-3.647 0v-30.397a1.824 1.824 0 0 1 3.647 0v2.048a14.598 14.598 0 0 1 25.534 9.663v18.687a1.784 1.784 0 0 1-1.792 1.792zm38.528 0h-20.926a1.844 1.844 0 0 1-1.856-1.792 1.81 1.81 0 0 1 .384-1.023l19.07-26.942a9.017 9.017 0 0 0 1.472-4.8 8.44 8.44 0 0 0-8.384-8.511c-6.08 0-8.5 6.655-10.24 6.655a1.96 1.96 0 0 1-1.983-1.792c0-1.472 4.863-8.512 12.223-8.512a12.046 12.046 0 0 1 12.031 11.968 12.26 12.26 0 0 1-2.24 7.039l-16.96 24.063h17.407a1.824 1.824 0 0 1 0 3.647zm18.242 1.088c-13.567 0-13.695-16.255-13.695-25.598 0-9.15 1.408-22.207 13.63-22.207 11.967 0 13.76 12.287 13.76 22.207 0 9.28-.192 25.598-13.695 25.598zm10.047-25.598c0-9.15-1.28-18.56-10.047-18.56-9.6 0-10.047 11.774-10.047 18.56v4.096c0 7.423 1.408 17.855 9.983 17.855 8.768 0 10.1-10.432 10.1-17.855zm47.23-6.912l-17.343 41.02c-1.28 3.008-3.904 3.84-6.848 3.84h-2.816a1.824 1.824 0 0 1 0-3.647h2.816c1.408 0 2.88-.064 3.456-1.536l3.648-8.703-13.247-30.975a2.031 2.031 0 0 1-.128-.832 1.79 1.79 0 0 1 1.856-1.728 1.643 1.643 0 0 1 1.6 1.088l11.903 27.774 11.775-27.774a1.669 1.669 0 0 1 1.664-1.088 1.735 1.735 0 0 1 1.792 1.728 2.031 2.031 0 0 1-.128.832z"/><use xlink:href="#h"/><path d="M658.768 886.785h-.064a6.625 6.625 0 0 1-6.335-4.991c-2.688 3.775-6.848 6.08-12.415 6.08-10.43 0-16.063-8.575-16.063-18.1 0-9.663 5.76-18.047 16.063-18.047a14.631 14.631 0 0 1 12.415 6.016v-3.136a1.804 1.804 0 0 1 1.856-1.792 1.747 1.747 0 0 1 1.792 1.792v25.8c0 4.096 4.607 1.536 4.607 4.607a1.76 1.76 0 0 1-1.856 1.792zm-18.814-31.422c-7.55 0-12.415 6.08-12.415 14.4s4.864 14.463 12.415 14.463c7.615 0 12.415-6.144 12.415-14.463s-4.8-14.4-12.415-14.4z"/><use xlink:href="#c" x="566.127"/><use xlink:href="#f" x="412.787"/><path d="M709.01 892.48a1.67 1.67 0 0 1-.96.256 1.79 1.79 0 0 1-1.728-1.856c0-1.792 2.75-2.048 3.2-4.096a3.683 3.683 0 0 1 .256-7.359c3.136 0 3.84 3.2 3.84 5.184a9.136 9.136 0 0 1-4.608 7.872z"/><use xlink:href="#d" x="605.103"/><path d="M774.286 886.785a1.799 1.799 0 0 1-1.856-1.792v-2.048a14.215 14.215 0 0 1-10.943 4.928 14.751 14.751 0 0 1-14.591-14.591v-18.687a1.824 1.824 0 0 1 3.648 0v18.687a10.943 10.943 0 1 0 21.886 0v-18.687a1.824 1.824 0 0 1 3.648 0v30.397a1.784 1.784 0 0 1-1.792 1.792z"/><use xlink:href="#c" x="683.567"/><path d="M812.878 886.785h-1.984c-5.056 0-7.55-2.495-7.55-7.487V856.45h-3.264a1.824 1.824 0 0 1 0-3.647h3.264v-9.8a1.799 1.799 0 0 1 1.856-1.792 1.746 1.746 0 0 1 1.792 1.792v9.8h5.888a1.824 1.824 0 0 1 0 3.647h-5.888v22.847c0 3.136.896 3.84 3.904 3.84h1.984a1.824 1.824 0 0 1 0 3.647zm11.392.385c-3.456 0-6.335-3.2-6.335-6.783v-37.373a1.824 1.824 0 0 1 3.647 0v37.373c0 4.096 4.544 1.728 4.544 4.607a2.064 2.064 0 0 1-1.856 2.176z"/><use xlink:href="#g" x="434.546"/><path d="M873.228 888c-3.84 0-10.303-1.344-12.543-5.056a1.544 1.544 0 0 1-.256-.96 1.745 1.745 0 0 1 3.264-1.023c2.304 2.815 6.4 3.392 9.535 3.392 6.208 0 9.343-2.048 9.343-6.207 0-9.664-21-4.544-21-17.343 0-6.464 6.463-8.96 12.287-8.96 3.328 0 8.447 1.152 11.007 3.712a1.789 1.789 0 0 1 .576 1.216 2.075 2.075 0 0 1-1.984 1.92 1.695 1.695 0 0 1-1.216-.512c-1.984-1.92-5.568-2.688-8.383-2.688-5.632 0-8.64 2.177-8.64 5.313 0 8.96 21 4.224 21 17.343 0 7.295-6.4 9.855-13 9.855zm69.822-32.828l-10.43 30.077c-.448 1.217-1.024 1.536-1.856 1.536-1.088 0-1.408-.384-1.792-1.536l-8.383-24.958-8.383 24.958c-.448 1.217-1.024 1.536-1.856 1.536a1.869 1.869 0 0 1-1.792-1.536l-10.367-30.077a2.724 2.724 0 0 1-.128-.704 1.818 1.818 0 0 1 1.856-1.664 1.661 1.661 0 0 1 1.664 1.216l8.768 25.343 8.383-25.022c.384-1.216.768-1.536 1.856-1.536.768 0 1.408.256 1.792 1.536l8.5 25.022 8.64-25.343a1.662 1.662 0 0 1 1.664-1.216 1.862 1.862 0 0 1 1.984 1.728 1.896 1.896 0 0 1-.128.641z"/><use xlink:href="#g" x="550.64"/><use xlink:href="#c" x="882.153"/><use xlink:href="#h" x="403.499"/><path d="M50.916 953.107c-5.74 0-10.03-2.376-12.803-6.27v3.3a1.881 1.881 0 0 1-3.762 0v-43.292a1.881 1.881 0 0 1 3.762 0v15.18c2.772-3.828 7.062-6.204 12.803-6.204 10.625 0 16.565 8.712 16.565 18.6 0 9.966-5.94 18.677-16.565 18.677zm0-33.525c-7.853 0-12.803 6.27-12.803 14.85s4.95 14.915 12.803 14.915S63.72 943.01 63.72 934.43s-4.95-14.85-12.803-14.85z"/><use xlink:href="#i"/><path d="M120.61 920.177a11.28 11.28 0 0 0-11.285 11.284v18.677a1.881 1.881 0 0 1-3.762 0V918.8a1.881 1.881 0 0 1 3.762 0v2.706a15.069 15.069 0 0 1 11.285-5.081 1.881 1.881 0 1 1 0 3.762z"/><use xlink:href="#j"/><use xlink:href="#i" x="101.77"/><use xlink:href="#j" x="82.63"/><path d="M267.854 951.985h-2.046c-5.213 0-7.787-2.573-7.787-7.72v-23.56h-3.366a1.881 1.881 0 0 1 0-3.762h3.366v-10.097a1.854 1.854 0 0 1 1.914-1.848 1.801 1.801 0 0 1 1.848 1.848v10.097h6.072a1.881 1.881 0 0 1 0 3.762h-6.072v23.56c0 3.233.924 3.96 4.026 3.96h2.046a1.881 1.881 0 0 1 0 3.762zm33.46 0a1.855 1.855 0 0 1-1.914-1.848v-19.27a11.285 11.285 0 1 0-22.57 0v19.27a1.881 1.881 0 0 1-3.762 0v-43.292a1.881 1.881 0 0 1 3.762 0v14.057a14.661 14.661 0 0 1 11.285-5.082 15.169 15.169 0 0 1 15.046 15.047v19.27a1.84 1.84 0 0 1-1.848 1.848zm36.433-15.64H310.36c.594 7.523 5.478 13 12.67 13 3.563 0 7.787-1.584 9.7-4.554a1.732 1.732 0 0 1 1.584-.924 2.017 2.017 0 0 1 2.045 1.782c0 .594 0 .726-1.254 2.178a15.58 15.58 0 0 1-12.077 5.279c-10.625 0-16.564-8.7-16.564-18.677 0-9.898 5.94-18.6 16.564-18.6s16.564 8.777 16.564 18.6a1.997 1.997 0 0 1-1.848 1.914zm-14.717-16.763c-7.92 0-12.077 6.072-12.67 13h25.408c-.594-7.523-5.478-13-12.737-13zm49.234 33.525c-5.74 0-10.03-2.376-12.803-6.27v3.3a1.881 1.881 0 0 1-3.762 0v-43.292a1.881 1.881 0 0 1 3.762 0v15.18c2.772-3.828 7.062-6.204 12.803-6.204 10.625 0 16.565 8.712 16.565 18.6 0 9.966-5.94 18.677-16.565 18.677zm0-33.525c-7.853 0-12.803 6.27-12.803 14.85s4.95 14.915 12.803 14.915 12.803-6.335 12.803-14.915-4.95-14.85-12.803-14.85zm50.224 16.763H395.1c.594 7.523 5.478 13 12.67 13 3.563 0 7.787-1.584 9.7-4.554a1.732 1.732 0 0 1 1.584-.924 2.017 2.017 0 0 1 2.045 1.782c0 .594 0 .726-1.254 2.178a15.58 15.58 0 0 1-12.077 5.279c-10.625 0-16.564-8.7-16.564-18.677 0-9.898 5.94-18.6 16.564-18.6s16.564 8.777 16.564 18.6a1.997 1.997 0 0 1-1.848 1.914zm-14.717-16.763c-7.92 0-12.077 6.072-12.67 13h25.408c-.594-7.523-5.478-13-12.737-13zm54.91 32.403h-.066a6.832 6.832 0 0 1-6.534-5.147c-2.77 3.894-7.062 6.27-12.803 6.27-10.757 0-16.564-8.843-16.564-18.677 0-9.965 5.94-18.6 16.564-18.6 5.74 0 10.03 2.376 12.803 6.204V918.8a1.86 1.86 0 0 1 1.914-1.848 1.801 1.801 0 0 1 1.848 1.848v26.596c0 4.224 4.75 1.584 4.75 4.752a1.814 1.814 0 0 1-1.914 1.848zm-19.402-32.403c-7.788 0-12.803 6.27-12.803 14.85s5.015 14.915 12.803 14.915c7.853 0 12.803-6.335 12.803-14.915s-4.95-14.85-12.803-14.85zm48.905 28.5a15.33 15.33 0 0 1-11.813 5.016c-10.625 0-16.564-8.7-16.564-18.677 0-9.898 5.94-18.6 16.564-18.6a15.33 15.33 0 0 1 11.813 5.016 1.749 1.749 0 0 1 .528 1.254 2.068 2.068 0 0 1-1.914 1.98 1.945 1.945 0 0 1-1.386-.66 11.636 11.636 0 0 0-9.041-3.828c-7.788 0-12.803 6.27-12.803 14.85s5.015 14.915 12.803 14.915a11.861 11.861 0 0 0 9.041-3.827 1.873 1.873 0 0 1 3.3 1.254 1.889 1.889 0 0 1-.528 1.319zm32.735 3.893a1.855 1.855 0 0 1-1.914-1.848v-19.27a11.285 11.285 0 0 0-22.57 0v19.27a1.881 1.881 0 0 1-3.762 0v-43.292a1.881 1.881 0 0 1 3.762 0v14.057a14.661 14.661 0 0 1 11.285-5.082 15.169 15.169 0 0 1 15.046 15.047v19.27a1.84 1.84 0 0 1-1.848 1.848z"/></g></svg>