<svg xmlns="http://www.w3.org/2000/svg" xmlns:xlink="http://www.w3.org/1999/xlink" viewBox="0 0 1080 1080"><style><![CDATA[.M{fill:#005285}.N{opacity:.5}]]></style><defs><linearGradient id="A" x1="11.716" y1="11.716" x2="1068.284" y2="1068.284" gradientUnits="userSpaceOnUse"><stop offset="0" stop-color="#1cd8d2"/><stop offset=".304" stop-color="#4be1cb"/><stop offset=".61" stop-color="#73e9c4"/><stop offset=".853" stop-color="#8ceec0"/><stop offset="1" stop-color="#95f0bf"/></linearGradient><path id="B" d="M53.21 974.925v-1.92c2.048-6.848 8.448-10.687 8.448-15.935 0-2.432-1.216-3.647-2.784-3.647-1.824 0-3.168 1.407-3.36 4.863h-2.112c.256-5.247 2.624-6.783 5.407-6.783 3.04 0 5.152 2.048 5.152 5.888 0 5.76-5.184 7.55-8.64 15.614h8.767v1.92z"/><path id="C" d="M79.853 974.925v-1.92h2.816v-18.56l-2.88.256v-1.407a8.871 8.871 0 0 0 3.648-1.792h1.536v21.502h2.688v1.92z"/><path id="D" d="M927.985 974.925v-1.92c2.048-6.848 8.447-10.687 8.447-15.935 0-2.432-1.216-3.647-2.783-3.647-1.824 0-3.168 1.407-3.36 4.863h-2.11c.256-5.247 2.623-6.783 5.407-6.783 3.04 0 5.15 2.048 5.15 5.888 0 5.76-5.184 7.55-8.64 15.614h8.767v1.92z"/><path id="E" d="M946.5 975.245c-3.776 0-5.567-3.52-5.567-11.87s1.79-11.87 5.567-11.87 5.567 3.52 5.567 11.87-1.792 11.87-5.567 11.87zm0-21.822c-2.112 0-3.264 2.367-3.264 9.95s1.15 9.95 3.264 9.95 3.264-2.368 3.264-9.95-1.152-9.95-3.264-9.95z"/><path id="F" d="M34.19 801.686v-1.92h2.816v-18.56l-2.88.256v-1.408a8.833 8.833 0 0 0 3.648-1.791h1.536v21.502H42v1.92z"/><path id="G" d="M49.727 802.006c-3.776 0-5.568-3.52-5.568-11.87s1.792-11.87 5.568-11.87 5.567 3.52 5.567 11.87-1.79 11.87-5.567 11.87zm0-21.822c-2.112 0-3.264 2.367-3.264 9.95s1.152 9.95 3.264 9.95 3.264-2.367 3.264-9.95-1.152-9.95-3.264-9.95z"/><path id="H" d="M41.336 231.074a6.355 6.355 0 0 1-5.432-2.658v7.252a.798.798 0 1 1-1.596 0v-19.152a.798.798 0 0 1 1.596 0v1.37a6.403 6.403 0 0 1 5.432-2.631c4.508 0 7.028 3.695 7.028 7.895 0 4.228-2.52 7.924-7.028 7.924zm0-14.223c-3.332 0-5.432 2.66-5.432 6.3s2.1 6.328 5.432 6.328 5.432-2.687 5.432-6.328-2.1-6.3-5.432-6.3z"/><path id="I" d="M58.458 231.074c-4.508 0-7.028-3.695-7.028-7.924 0-4.2 2.52-7.895 7.028-7.895s7.028 3.695 7.028 7.895c0 4.23-2.52 7.924-7.028 7.924zm0-14.223c-3.304 0-5.432 2.66-5.432 6.3s2.128 6.328 5.432 6.328c3.332 0 5.432-2.687 5.432-6.328s-2.1-6.3-5.432-6.3z"/><path id="J" d="M1010.5 237.028a1.596 1.596 0 1 1 1.596-1.596 1.578 1.578 0 0 1-1.596 1.596zm0 17.556a.77.77 0 0 1-.812-.784v-13.3a.772.772 0 0 1 .812-.784.763.763 0 0 1 .784.784v13.3a.749.749 0 0 1-.784.784z"/><path id="K" d="M1026.683 254.583a.787.787 0 0 1-.812-.784v-8.176a4.788 4.788 0 1 0-9.576 0v8.176a.798.798 0 0 1-1.596 0v-13.3a.798.798 0 0 1 1.596 0v.896a6.387 6.387 0 0 1 11.172 4.228v8.176a.78.78 0 0 1-.784.784z"/><path id="L" d="M113.686 734.834h-11.62c.252 3.19 2.324 5.516 5.376 5.516a5.061 5.061 0 0 0 4.116-1.932.734.734 0 0 1 .672-.393.856.856 0 0 1 .868.756c0 .252 0 .31-.532.924a6.609 6.609 0 0 1-5.124 2.24c-4.508 0-7.028-3.696-7.028-7.924 0-4.2 2.52-7.896 7.028-7.896s7.028 3.724 7.028 7.896a.848.848 0 0 1-.784.813zm-6.244-7.112c-3.36 0-5.124 2.576-5.376 5.516h10.78c-.252-3.19-2.324-5.516-5.404-5.516z"/><path id="M" d="M163.638 727.974a4.786 4.786 0 0 0-4.788 4.788v7.924a.798.798 0 0 1-1.596 0v-13.3a.798.798 0 0 1 1.596 0v1.147a6.392 6.392 0 0 1 4.788-2.155.798.798 0 1 1 0 1.596z"/><path id="N" d="M168.705 741.638a2.935 2.935 0 0 1-2.772-2.968v-16.353a.798.798 0 0 1 1.596 0v16.353c0 1.792 1.988.756 1.988 2.016a.903.903 0 0 1-.812.952z"/><path id="O" d="M186.12 741.47h-.028a2.899 2.899 0 0 1-2.772-2.185 6.351 6.351 0 0 1-5.432 2.66c-4.564 0-7.028-3.752-7.028-7.924 0-4.228 2.52-7.896 7.028-7.896a6.4 6.4 0 0 1 5.432 2.632v-1.372a.789.789 0 0 1 .812-.784.765.765 0 0 1 .784.784v11.284c0 1.792 2.016.672 2.016 2.016a.77.77 0 0 1-.812.784zm-8.232-13.748c-3.304 0-5.432 2.66-5.432 6.3s2.128 6.328 5.432 6.328c3.332 0 5.432-2.688 5.432-6.328s-2.1-6.3-5.432-6.3z"/><path id="P" d="M217.48 741.47a.787.787 0 0 1-.812-.784v-1.4a6.351 6.351 0 0 1-5.432 2.66c-4.508 0-7.028-3.696-7.028-7.924 0-4.2 2.52-7.896 7.028-7.896a6.4 6.4 0 0 1 5.432 2.632v-6.44a.798.798 0 0 1 1.596 0v18.368a.781.781 0 0 1-.784.784zm-6.244-13.748c-3.304 0-5.432 2.66-5.432 6.3s2.128 6.328 5.432 6.328c3.332 0 5.432-2.688 5.432-6.328s-2.1-6.3-5.432-6.3z"/><path id="Q" d="M259.516 615.028c-4.508 0-7.028-3.696-7.028-7.924 0-4.2 2.52-7.896 7.028-7.896s7.028 3.696 7.028 7.896c0 4.228-2.52 7.924-7.028 7.924zm0-14.225c-3.304 0-5.432 2.66-5.432 6.3s2.128 6.327 5.432 6.327c3.332 0 5.432-2.687 5.432-6.327s-2.1-6.3-5.432-6.3z"/><path id="R" d="M366.156 607.915h-11.62c.252 3.192 2.324 5.516 5.376 5.516a5.061 5.061 0 0 0 4.116-1.932.735.735 0 0 1 .672-.392.856.856 0 0 1 .868.756c0 .252 0 .308-.532.924a6.612 6.612 0 0 1-5.124 2.24c-4.508 0-7.028-3.696-7.028-7.924 0-4.2 2.52-7.896 7.028-7.896s7.028 3.724 7.028 7.896a.847.847 0 0 1-.784.812zm-6.244-7.112c-3.36 0-5.124 2.576-5.376 5.517h10.78c-.252-3.192-2.324-5.517-5.404-5.517z"/><path id="S" d="M384.328 614.55h-.028a2.899 2.899 0 0 1-2.772-2.184 6.353 6.353 0 0 1-5.432 2.66c-4.564 0-7.028-3.752-7.028-7.924 0-4.23 2.52-7.896 7.028-7.896a6.4 6.4 0 0 1 5.432 2.632v-1.372a.79.79 0 0 1 .812-.784.765.765 0 0 1 .784.784v11.284c0 1.792 2.016.672 2.016 2.016a.77.77 0 0 1-.812.784zm-8.232-13.748c-3.304 0-5.432 2.66-5.432 6.3s2.128 6.327 5.432 6.327c3.332 0 5.432-2.687 5.432-6.327s-2.1-6.3-5.432-6.3z"/><path id="T" d="M416.52 652.91h-.028a2.899 2.899 0 0 1-2.772-2.184 6.353 6.353 0 0 1-5.432 2.66c-4.564 0-7.028-3.752-7.028-7.924 0-4.23 2.52-7.896 7.028-7.896a6.4 6.4 0 0 1 5.432 2.632v-1.372a.79.79 0 0 1 .812-.784.765.765 0 0 1 .784.784V650.1c0 1.792 2.016.672 2.016 2.016a.77.77 0 0 1-.812.784zm-8.232-13.748c-3.304 0-5.432 2.66-5.432 6.3s2.128 6.327 5.432 6.327c3.332 0 5.432-2.687 5.432-6.327s-2.1-6.3-5.432-6.3z"/><path id="U" d="M465.296 652.91a.787.787 0 0 1-.812-.784v-1.4a6.353 6.353 0 0 1-5.432 2.66c-4.508 0-7.028-3.696-7.028-7.924 0-4.2 2.52-7.896 7.028-7.896a6.4 6.4 0 0 1 5.432 2.632v-6.44a.798.798 0 0 1 1.596 0v18.367a.78.78 0 0 1-.784.784zm-6.244-13.748c-3.304 0-5.432 2.66-5.432 6.3s2.128 6.327 5.432 6.327c3.332 0 5.432-2.687 5.432-6.327s-2.1-6.3-5.432-6.3z"/><path id="V" d="M811.263 887.995h-3.192a.798.798 0 1 1 0-1.597h.784v-16.77h-.784a.785.785 0 1 1 0-1.568h3.192a.784.784 0 0 1 0 1.568h-.812v16.77h.812a.798.798 0 0 1 0 1.597z"/><path id="W" d="M874.032 887.995a.787.787 0 0 1-.812-.784v-8.176a4.788 4.788 0 1 0-9.576 0v8.176a.798.798 0 0 1-1.596 0v-13.3a.798.798 0 0 1 1.596 0v.896a6.388 6.388 0 0 1 11.172 4.229v8.176a.781.781 0 0 1-.784.784z"/><path id="X" d="M858.472 600.525a2.934 2.934 0 0 1-2.772-2.968v-16.352a.798.798 0 0 1 1.596 0v16.352c0 1.792 1.988.756 1.988 2.016a.903.903 0 0 1-.812.952z"/><path id="Y" d="M867.964 574.307h-.028a2.899 2.899 0 0 1-2.772-2.184 6.351 6.351 0 0 1-5.432 2.66c-4.564 0-7.028-3.752-7.028-7.924 0-4.23 2.52-7.896 7.028-7.896a6.399 6.399 0 0 1 5.432 2.633v-1.373a.789.789 0 0 1 .812-.783.764.764 0 0 1 .784.783v11.285c0 1.79 2.016.672 2.016 2.016a.77.77 0 0 1-.812.783zm-8.232-13.748c-3.304 0-5.432 2.66-5.432 6.3s2.128 6.328 5.432 6.328c3.332 0 5.432-2.688 5.432-6.328s-2.1-6.3-5.432-6.3z"/><path id="Z" d="M104.714 1045.51a1.36 1.36 0 0 1-1.4-1.101 7.763 7.763 0 0 1-4.804 1.668 7.666 7.666 0 0 1-7.604-7.605v-9.24a1.434 1.434 0 0 1 2.868-.033v9.272a4.753 4.753 0 1 0 9.507 0v-9.24a1.33 1.33 0 0 1 1.4-1.468 1.364 1.364 0 0 1 1.435 1.435v14.9a1.328 1.328 0 0 1-1.401 1.4z"/><path id="a" d="M947.962 1041.237h-8.302c.18 2.28 1.66 3.94 3.84 3.94a3.615 3.615 0 0 0 2.94-1.381.525.525 0 0 1 .479-.28.611.611 0 0 1 .62.541c0 .18 0 .22-.38.66a4.72 4.72 0 0 1-3.66 1.601c-3.22 0-5.02-2.64-5.02-5.66 0-3 1.8-5.64 5.02-5.64s5.02 2.66 5.02 5.64a.606.606 0 0 1-.56.58zm-4.46-5.08c-2.4 0-3.66 1.84-3.84 3.94h7.7c-.18-2.28-1.66-3.94-3.86-3.94z"/><path id="b" d="M977.56 1033.435a1.14 1.14 0 1 1 1.141-1.14 1.127 1.127 0 0 1-1.141 1.14zm0 12.543a.55.55 0 0 1-.58-.561v-9.502a.551.551 0 0 1 .58-.56.545.545 0 0 1 .561.56v9.502a.536.536 0 0 1-.561.561z"/><path id="c" d="M138.078 80a5.839 5.839 0 0 1-5.34-3.42 13.748 13.748 0 0 1-10.56 4.439c-9.78 0-15.06-8.04-15.06-16.98s5.4-16.92 15.06-16.92a13.258 13.258 0 0 1 9.899 3.96v-.24a2.476 2.476 0 0 1 2.52-2.7 2.412 2.412 0 0 1 2.64 2.521v23.16a.972.972 0 0 0 .84 1.08 2.55 2.55 0 1 1 0 5.1zm-15.9-27.78c-6 0-9.9 4.68-9.9 11.82 0 7.2 3.9 11.88 9.9 11.88 6.06 0 9.9-4.68 9.9-11.88 0-7.14-3.84-11.82-9.9-11.82z"/><path id="d" d="M153.858 81.02c-3.3 0-8.82-1.02-11.64-4.5a2.655 2.655 0 0 1 2.16-4.26 2.465 2.465 0 0 1 1.86 1.021c1.86 2.04 4.92 2.64 7.62 2.64 5.4 0 7.14-1.86 7.14-4.56 0-7.68-18.3-2.94-18.3-15.3 0-6.54 6.12-8.94 11.82-8.94 3.24 0 10.86 1.62 10.86 4.98a2.694 2.694 0 0 1-2.52 2.7 3.609 3.609 0 0 1-1.98-.78c-1.62-1.38-3.96-1.8-6.36-1.8-4.98 0-6.72 1.86-6.72 3.84 0 7.14 18.36 2.52 18.36 15.3 0 7.08-5.94 9.66-12.3 9.66z"/><path id="e" d="M188.358 43.282a4.32 4.32 0 1 1 4.32-4.319 4.302 4.302 0 0 1-4.32 4.319zm0 36.72a2.521 2.521 0 0 1-2.64-2.521V50.72a2.534 2.534 0 0 1 2.64-2.58 2.472 2.472 0 0 1 2.52 2.58v26.76a2.421 2.421 0 0 1-2.52 2.521z"/><path id="f" d="M221.656 76.46a13.937 13.937 0 0 1-10.74 4.56c-9.66 0-15.06-7.92-15.06-16.98 0-9 5.4-16.92 15.06-16.92a13.937 13.937 0 0 1 10.74 4.56 2.616 2.616 0 0 1 .72 1.74 2.794 2.794 0 0 1-2.7 2.58 2.84 2.84 0 0 1-1.86-.84 8.813 8.813 0 0 0-6.9-2.94c-6 0-9.9 4.68-9.9 11.82 0 7.2 3.9 11.88 9.9 11.88a8.923 8.923 0 0 0 6.9-2.939 2.396 2.396 0 0 1 1.86-.9 2.59 2.59 0 0 1 1.98 4.38z"/><path id="g" d="M337.753 52.22a8.644 8.644 0 0 0-8.52 8.58v16.62a2.501 2.501 0 0 1-2.64 2.58 2.457 2.457 0 0 1-2.52-2.521V50.72a2.542 2.542 0 0 1 2.52-2.58 2.463 2.463 0 0 1 2.58 2.04 13.874 13.874 0 0 1 8.58-3.06 2.551 2.551 0 1 1 0 5.1z"/><path id="h" d="M435.972 66.68h-22.2c.84 5.64 4.44 9.24 9.72 9.24a9.004 9.004 0 0 0 7.14-3.12 2.485 2.485 0 0 1 1.86-.96 2.8 2.8 0 0 1 2.7 2.641c0 .72-.18 1.26-1.44 2.52a14.623 14.623 0 0 1-10.26 4.02c-9.66 0-15.06-7.98-15.06-16.98 0-8.94 5.4-16.92 15.06-16.92 9.78 0 15 7.98 15 16.92a2.558 2.558 0 0 1-2.52 2.641zm-12.48-14.46c-5.64 0-8.94 4.14-9.72 9.3h19.44c-.84-5.76-4.44-9.3-9.72-9.3z"/><path id="i" d="M472.15 80a5.839 5.839 0 0 1-5.34-3.42 13.748 13.748 0 0 1-10.56 4.439c-9.78 0-15.06-8.04-15.06-16.98s5.4-16.92 15.06-16.92a13.26 13.26 0 0 1 9.9 3.96v-.24a2.475 2.475 0 0 1 2.52-2.7 2.412 2.412 0 0 1 2.64 2.521v23.16a.972.972 0 0 0 .84 1.08 2.55 2.55 0 1 1 0 5.1zm-15.9-27.78c-6 0-9.9 4.68-9.9 11.82 0 7.2 3.9 11.88 9.9 11.88 6.06 0 9.9-4.68 9.9-11.88 0-7.14-3.84-11.82-9.9-11.82z"/><path id="j" d="M504.07 79.94a2.436 2.436 0 0 1-2.58-2.52 14.517 14.517 0 0 1-9.899 3.6c-9.66 0-15.06-7.92-15.06-16.98 0-9 5.4-16.92 15.06-16.92a13.224 13.224 0 0 1 9.899 3.899v-11.16a2.58 2.58 0 0 1 5.16-.06V77.42a2.436 2.436 0 0 1-2.58 2.52zm-12.48-27.72c-6 0-9.9 4.68-9.9 11.82 0 7.2 3.9 11.88 9.9 11.88 6.06 0 9.9-4.68 9.9-11.88 0-7.14-3.84-11.82-9.9-11.82z"/></defs><rect width="1080" height="1080" rx="40" fill="url(#A)"/><path d="M661.106 142.418H953.27v799.508H661.106z" fill="#ffff9f" opacity=".6"/><path d="M953.27 142.418H1080v799.508H953.27z" opacity=".3" class="M"/><g fill="#ffff9f"><path d="M368.944 142.418h292.163v799.508H368.944z" opacity=".45"/><path d="M76.78 142.418h292.163v799.508H76.78z" opacity=".3"/><path d="M0 142.418h76.78v799.508H0z" opacity=".2"/></g><g class="M N"><use xlink:href="#B"/><path d="M71.726 975.245c-3.776 0-5.567-3.52-5.567-11.87s1.792-11.87 5.567-11.87 5.567 3.52 5.567 11.87-1.792 11.87-5.567 11.87zm0-21.822c-2.112 0-3.264 2.367-3.264 9.95s1.152 9.95 3.264 9.95S75 970.957 75 963.374s-1.152-9.95-3.264-9.95z"/><use xlink:href="#C"/><path d="M90.074 951.823h10.367v1.217l-6.72 21.886H91.3L98 953.742h-7.936z"/></g><g class="M N"><use xlink:href="#B" x="289.34"/><path d="M361.064 975.245c-3.776 0-5.567-3.52-5.567-11.87s1.8-11.87 5.567-11.87 5.567 3.52 5.567 11.87-1.792 11.87-5.567 11.87zm0-21.822c-2.112 0-3.264 2.367-3.264 9.95s1.152 9.95 3.264 9.95 3.264-2.368 3.264-9.95-1.152-9.95-3.264-9.95zm8.128 21.502v-1.92h2.816v-18.56l-2.88.256v-1.407a8.871 8.871 0 0 0 3.648-1.792h1.536v21.502H377v1.92zm15.88.32c-3.584 0-5.696-2.815-5.696-6.144 0-2.848 1.504-4.896 3.712-6.464-2.048-1.632-3.2-3.23-3.2-5.95a5.184 5.184 0 1 1 10.367 0c0 2.72-1.152 4.32-3.2 5.95 2.208 1.568 3.7 3.616 3.7 6.464 0 3.328-2.112 6.144-5.695 6.144zm0-11.392c-1.856 1.376-3.392 2.848-3.392 5.344 0 1.888 1.024 4.128 3.392 4.128s3.392-2.24 3.392-4.128c0-2.496-1.536-3.968-3.392-5.344zm0-10.43a2.813 2.813 0 0 0-2.88 3.008 5.784 5.784 0 0 0 2.88 5.119 5.784 5.784 0 0 0 2.88-5.119 2.813 2.813 0 0 0-2.88-3.008z"/></g><g class="M N"><path d="M637.155 974.925v-1.92c2.048-6.848 8.447-10.687 8.447-15.935 0-2.432-1.216-3.647-2.784-3.647-1.824 0-3.168 1.407-3.36 4.863h-2.112c.256-5.247 2.624-6.783 5.407-6.783 3.04 0 5.152 2.048 5.152 5.888 0 5.76-5.184 7.55-8.64 15.614h8.767v1.92zm18.515.32c-3.776 0-5.568-3.52-5.568-11.87s1.792-11.87 5.568-11.87 5.567 3.52 5.567 11.87-1.792 11.87-5.567 11.87zm0-21.822c-2.112 0-3.264 2.367-3.264 9.95s1.152 9.95 3.264 9.95 3.264-2.368 3.264-9.95-1.152-9.95-3.264-9.95z"/><use xlink:href="#C" x="583.944"/><path d="M676.663 970.638c.32 2.304 1.6 2.688 2.496 2.688 2.048 0 3.328-2.815 3.392-9.247a5.021 5.021 0 0 1-3.552 1.76c-2.592 0-4.96-1.856-4.96-7.104 0-4.48 1.92-7.23 4.96-7.23 4 0 5.92 2.304 5.92 10.623 0 9.28-2.176 13.12-5.823 13.12-2.976 0-4.096-1.792-4.544-4.48zm5.952-10.88c0-4.67-1.216-6.335-3.264-6.335-1.792 0-3.008 1.344-3.008 5.344 0 4.127 1.408 5.15 2.88 5.15a4.384 4.384 0 0 0 3.392-1.984z"/></g><g class="M N"><use xlink:href="#D"/><use xlink:href="#E"/><use xlink:href="#D" x="26.009"/><use xlink:href="#E" x="26.01"/></g><g fill="#fff"><use xlink:href="#F"/><use xlink:href="#G"/><path d="M58.15 801.686v-16.64h2.112v1.824a5.394 5.394 0 0 1 3.872-2.145 3.178 3.178 0 0 1 2.976 2.113 5.472 5.472 0 0 1 3.872-2.113c2.176 0 3.36 1.473 3.36 3.84v13.12h-2.304v-12.8c0-1.73-.512-2.24-1.728-2.24a4.028 4.028 0 0 0-2.912 1.729v13.31h-2.304v-12.8c0-1.73-.608-2.24-1.824-2.24a3.66 3.66 0 0 0-2.815 1.729v13.31z"/><use xlink:href="#F" y="-266.286"/><use xlink:href="#G" y="-266.286"/><path d="M63.176 535.72c-3.776 0-5.567-3.52-5.567-11.87s1.8-11.87 5.567-11.87 5.567 3.52 5.567 11.87-1.8 11.87-5.567 11.87zm0-21.822c-2.112 0-3.264 2.367-3.264 9.95s1.152 9.95 3.264 9.95 3.264-2.367 3.264-9.95-1.152-9.95-3.264-9.95zm8.422 21.502v-16.64H73.7v1.824a5.394 5.394 0 0 1 3.872-2.145 3.178 3.178 0 0 1 2.976 2.113 5.472 5.472 0 0 1 3.872-2.113c2.176 0 3.36 1.473 3.36 3.84v13.12h-2.304v-12.8c0-1.73-.512-2.24-1.728-2.24a4.028 4.028 0 0 0-2.912 1.729v13.3h-2.304v-12.8c0-1.73-.608-2.24-1.824-2.24a3.66 3.66 0 0 0-2.815 1.729v13.3z"/><use xlink:href="#F" y="-532.572"/><path d="M46.767 269.114h-1.792a18.102 18.102 0 0 0 .384-4.479v-18.623h2.304v7.68a4.53 4.53 0 0 1 3.072-1.537c2.624 0 4.8 2.24 4.8 8.64s-2.176 8.64-4.8 8.64a4.124 4.124 0 0 1-3.456-1.92zm.896-3.2a3.614 3.614 0 0 0 2.432 1.6c1.92 0 3.136-1.6 3.136-6.72s-1.12-6.72-3.072-6.72a3.836 3.836 0 0 0-2.496 1.473zm10.294-13.44h2.176v1.824c1.088-1.12 2.688-2.145 3.776-2.145 2.304 0 3.648 1.28 3.648 4.352v12.607h-2.304v-12.287c0-1.92-.576-2.752-1.824-2.752-1.12 0-2.144.77-3.168 2.05v13h-2.304z"/><use xlink:href="#H"/><use xlink:href="#I"/><use xlink:href="#H" x="34.949"/><path d="M98.793 230.6a.788.788 0 0 1-.812-.785v-.895a6.22 6.22 0 0 1-4.788 2.154 6.453 6.453 0 0 1-6.384-6.383v-8.176a.798.798 0 0 1 1.596 0v8.176a4.788 4.788 0 0 0 9.576 0v-8.176a.798.798 0 0 1 1.596 0v13.3a.782.782 0 0 1-.784.785zm7.992.168a2.935 2.935 0 0 1-2.772-2.969v-16.352a.798.798 0 0 1 1.596 0V227.8c0 1.793 1.988.756 1.988 2.016a.904.904 0 0 1-.812.953zm18.093-.168h-.028a2.899 2.899 0 0 1-2.772-2.184 6.354 6.354 0 0 1-5.432 2.658c-4.564 0-7.028-3.752-7.028-7.924 0-4.227 2.52-7.895 7.028-7.895a6.402 6.402 0 0 1 5.432 2.631v-1.37a.789.789 0 0 1 .812-.785.765.765 0 0 1 .784.785V227.8c0 1.793 2.016.672 2.016 2.016a.77.77 0 0 1-.812.785zm-8.232-13.748c-3.304 0-5.432 2.66-5.432 6.3s2.128 6.328 5.432 6.328c3.332 0 5.432-2.687 5.432-6.328s-2.1-6.3-5.432-6.3zm16.777 13.748h-.868c-2.212 0-3.304-1.092-3.304-3.277v-9.994h-1.428a.799.799 0 0 1 0-1.598h1.428v-4.283a.786.786 0 0 1 .812-.783.764.764 0 0 1 .784.783v4.283h2.576a.799.799 0 0 1 0 1.598h-2.576v9.994c0 1.373.392 1.682 1.708 1.682h.868a.798.798 0 0 1 0 1.596zm4.564-17.557a1.596 1.596 0 1 1 1.596-1.596 1.577 1.577 0 0 1-1.596 1.596zm0 17.557a.77.77 0 0 1-.812-.785v-13.3a.772.772 0 0 1 .812-.785.763.763 0 0 1 .784.785v13.3a.75.75 0 0 1-.784.785z"/><use xlink:href="#I" x="91.026"/><path d="M172.267 230.6a.788.788 0 0 1-.812-.785v-8.176a4.788 4.788 0 0 0-9.576 0v8.176a.798.798 0 0 1-1.596 0v-13.3a.798.798 0 0 1 1.596 0v.896a6.387 6.387 0 0 1 11.172 4.227v8.176a.782.782 0 0 1-.784.785z"/></g><path d="M81.54 793.72h998.13M94.578 527.435h985.1m-47.873-266.285h47.874m-1005.942 0H970.1" opacity=".3" fill="none" stroke="#fff" stroke-linejoin="round" stroke-width="2"/><g class="M"><circle cx="72.158" cy="730.789" r="4.382"/><circle cx="223.719" cy="603.872" r="4.382"/><circle cx="373.326" cy="642.23" r="4.382"/><circle cx="373.326" cy="573.767" r="4.382"/><circle cx="665.631" cy="791.616" r="4.382"/><circle cx="794.378" cy="877.315" r="4.382"/><circle cx="809.865" cy="226.218" r="4.382"/><circle cx="809.865" cy="589.677" r="4.382"/><circle cx="809.865" cy="563.627" r="4.382"/><circle cx="486.297" cy="876.555" r="4.382"/><circle cx="223.719" cy="390.358" r="4.382"/><circle cx="527.339" cy="694.563" r="4.382"/><circle cx="602.601" cy="574.634" r="4.382"/></g><g fill="#fff"><path d="M991.124 252.007a7.173 7.173 0 0 1-6.244 3.053c-6.02 0-8.148-4.984-8.148-10.444 0-5.488 2.128-10.472 8.148-10.472a7.092 7.092 0 0 1 6.216 3.052.569.569 0 0 1 .168.448.839.839 0 0 1-.868.784.74.74 0 0 1-.616-.309 5.509 5.509 0 0 0-4.9-2.38c-4.648 0-6.552 3.64-6.552 8.876 0 5.208 1.904 8.848 6.552 8.848a5.58 5.58 0 0 0 4.956-2.38.653.653 0 0 1 .616-.363.855.855 0 0 1 .84.812.894.894 0 0 1-.168.476zm14.616 2.576a.787.787 0 0 1-.812-.784v-8.176a4.788 4.788 0 1 0-9.576 0v8.176a.798.798 0 0 1-1.596 0v-18.367a.798.798 0 0 1 1.596 0v5.964a6.219 6.219 0 0 1 4.788-2.156 6.435 6.435 0 0 1 6.384 6.384v8.176a.78.78 0 0 1-.784.784z"/><use xlink:href="#J"/><use xlink:href="#K"/><path d="M1045.247 254.583h-.028a2.899 2.899 0 0 1-2.772-2.184 6.353 6.353 0 0 1-5.432 2.66c-4.564 0-7.028-3.752-7.028-7.924 0-4.23 2.52-7.896 7.028-7.896a6.4 6.4 0 0 1 5.432 2.632v-1.37a.79.79 0 0 1 .812-.784.765.765 0 0 1 .784.784v11.284c0 1.792 2.016.672 2.016 2.016a.77.77 0 0 1-.812.784zm-8.232-13.748c-3.304 0-5.432 2.66-5.432 6.3s2.128 6.327 5.432 6.327c3.332 0 5.432-2.687 5.432-6.327s-2.1-6.3-5.432-6.3zm-50.96 39.748H976.9a.807.807 0 0 1-.812-.784.79.79 0 0 1 .168-.447l8.344-11.788a3.945 3.945 0 0 0 .644-2.101 3.692 3.692 0 0 0-3.668-3.724c-2.66 0-3.724 2.912-4.48 2.912a.858.858 0 0 1-.868-.784c0-.644 2.128-3.724 5.348-3.724a5.27 5.27 0 0 1 5.264 5.235 5.362 5.362 0 0 1-.98 3.08l-7.42 10.528h7.616a.798.798 0 0 1 0 1.596zm9.1.477c-5.936 0-5.992-7.112-5.992-11.2 0-4.004.616-9.716 5.964-9.716 5.236 0 6.02 5.376 6.02 9.716 0 4.06-.084 11.2-5.992 11.2zm4.396-11.2c0-4.004-.56-8.12-4.396-8.12-4.2 0-4.396 5.152-4.396 8.12v1.792c0 3.248.616 7.812 4.368 7.812 3.836 0 4.424-4.563 4.424-7.812zm13.383 10.723h-9.156a.807.807 0 0 1-.812-.784.79.79 0 0 1 .168-.447l8.344-11.788a3.945 3.945 0 0 0 .644-2.101 3.692 3.692 0 0 0-3.668-3.724c-2.66 0-3.724 2.912-4.48 2.912a.858.858 0 0 1-.868-.784c0-.644 2.128-3.724 5.348-3.724a5.27 5.27 0 0 1 5.264 5.235 5.365 5.365 0 0 1-.98 3.08l-7.42 10.528h7.616a.798.798 0 0 1 0 1.596zm12.433 0h-9.156a.807.807 0 0 1-.812-.784.79.79 0 0 1 .168-.447l8.344-11.788a3.945 3.945 0 0 0 .644-2.101 3.692 3.692 0 0 0-3.668-3.724c-2.66 0-3.724 2.912-4.48 2.912a.858.858 0 0 1-.868-.784c0-.644 2.128-3.724 5.348-3.724a5.27 5.27 0 0 1 5.264 5.235 5.362 5.362 0 0 1-.98 3.08l-7.42 10.528h7.616a.798.798 0 0 1 0 1.596z"/><circle cx="974.491" cy="222.839" r="4.382"/></g><path d="M978.873 222.84h60.486" fill="none" stroke="#fff" stroke-miterlimit="10"/><path d="M1037.9 227.825l8.635-4.985-8.635-4.987v9.972z" fill="#fff"/><g class="M"><path d="M96.803 741.497a.867.867 0 0 1-.672-.447l-10.948-16.156v15.792a.798.798 0 0 1-1.596 0v-18.368a.797.797 0 0 1 1.512-.392l10.948 16.155v-15.764a.798.798 0 0 1 1.596 0v18.368a.836.836 0 0 1-.84.812z"/><use xlink:href="#L"/><path d="M122.366 741.47h-.868c-2.212 0-3.304-1.092-3.304-3.276v-9.996h-1.428a.798.798 0 0 1 0-1.596h1.428v-4.284a.787.787 0 0 1 .812-.784.765.765 0 0 1 .784.784v4.284h2.576a.798.798 0 0 1 0 1.596H119.8v9.996c0 1.372.392 1.68 1.708 1.68h.868a.798.798 0 0 1 0 1.597zm14.756 0a.787.787 0 0 1-.812-.784V732.5a4.788 4.788 0 1 0-9.576 0v8.176a.798.798 0 0 1-1.596 0v-18.368a.798.798 0 0 1 1.596 0v5.964a6.218 6.218 0 0 1 4.788-2.155 6.435 6.435 0 0 1 6.384 6.384v8.176a.781.781 0 0 1-.784.784z"/><use xlink:href="#L" x="40.012"/><use xlink:href="#M"/><use xlink:href="#N"/><use xlink:href="#O"/><path d="M200.905 741.47a.787.787 0 0 1-.812-.784V732.5a4.788 4.788 0 1 0-9.576 0v8.176a.798.798 0 0 1-1.596 0v-13.3a.798.798 0 0 1 1.596 0v.896a6.388 6.388 0 0 1 11.172 4.228v8.176a.781.781 0 0 1-.784.784z"/><use xlink:href="#P"/><path d="M226.357 742.002c-1.68 0-4.508-.6-5.488-2.213a.676.676 0 0 1-.112-.42.763.763 0 0 1 1.428-.447c1.008 1.23 2.8 1.483 4.172 1.483 2.716 0 4.088-.896 4.088-2.716 0-4.228-9.184-1.988-9.184-7.588 0-2.828 2.828-3.92 5.376-3.92a7.586 7.586 0 0 1 4.816 1.624.784.784 0 0 1 .252.532.908.908 0 0 1-.868.84.743.743 0 0 1-.532-.225 5.598 5.598 0 0 0-3.668-1.176c-2.464 0-3.78.952-3.78 2.324 0 3.92 9.184 1.848 9.184 7.588 0 3.192-2.8 4.313-5.684 4.313zm17.366-126.974a10.342 10.342 0 0 1-6.692-2.464.732.732 0 0 1-.252-.561.851.851 0 0 1 .812-.812c.336 0 .308.084.896.53a8.867 8.867 0 0 0 5.236 1.708c3.528 0 5.572-1.315 5.572-3.836 0-6.636-11.844-2.94-11.844-10.584 0-3.36 2.94-4.9 6.552-4.9 2.016 0 4.844.868 6.104 2.632a.779.779 0 0 1-.672 1.26c-.392 0-.392-.112-.868-.588a6.481 6.481 0 0 0-4.564-1.708c-3.332 0-4.956 1.288-4.956 3.304 0 6.02 11.844 2.52 11.844 10.584 0 3.893-3.415 5.433-7.168 5.433z"/><use xlink:href="#Q"/><path d="M281.047 614.55a.787.787 0 0 1-.812-.784v-.896a6.219 6.219 0 0 1-4.788 2.156 6.455 6.455 0 0 1-6.384-6.385v-8.176a.798.798 0 0 1 1.596 0v8.176a4.788 4.788 0 1 0 9.576 0v-8.176a.798.798 0 0 1 1.596 0v13.3a.78.78 0 0 1-.784.784zm9.323 0h-.868c-2.212 0-3.304-1.092-3.304-3.275v-9.996h-1.428a.798.798 0 0 1 0-1.597h1.428V595.4a.787.787 0 0 1 .812-.784.765.765 0 0 1 .784.784v4.283h2.576a.798.798 0 0 1 0 1.597h-2.576v9.996c0 1.372.392 1.68 1.708 1.68h.868a.798.798 0 0 1 0 1.596zm14.757 0a.787.787 0 0 1-.812-.784V605.6a4.788 4.788 0 1 0-9.576 0v8.176a.798.798 0 0 1-1.596 0V595.4a.798.798 0 0 1 1.596 0v5.964a6.219 6.219 0 0 1 4.788-2.156 6.435 6.435 0 0 1 6.384 6.384v8.176a.78.78 0 0 1-.784.784zm22.203.03a.741.741 0 0 1-.672-.476l-5.04-10.444-4.648 5.712v4.396a.749.749 0 0 1-.784.784.77.77 0 0 1-.812-.784V595.4a.772.772 0 0 1 .812-.784.763.763 0 0 1 .784.784v11.45l9.632-11.955a.719.719 0 0 1 .56-.336.888.888 0 0 1 .896.812.79.79 0 0 1-.224.532l-5.124 6.355 5.376 11.145a.822.822 0 0 1 .056.363.873.873 0 0 1-.812.813z"/><use xlink:href="#Q" x="76.184"/><path d="M351.882 601.055a4.786 4.786 0 0 0-4.788 4.788v7.924a.798.798 0 0 1-1.596 0v-13.3a.798.798 0 0 1 1.596 0v1.148a6.393 6.393 0 0 1 4.788-2.156.798.798 0 1 1 0 1.596z"/><use xlink:href="#R"/><use xlink:href="#S"/><path d="M241.844 401.542a7.015 7.015 0 0 1-7.028-7.028v-12.628a.813.813 0 0 1 1.624 0v12.628a5.418 5.418 0 1 0 10.836 0v-12.628a.798.798 0 0 1 1.596 0v12.628a7.015 7.015 0 0 1-7.028 7.028zm16.1-.028a10.342 10.342 0 0 1-6.692-2.464.732.732 0 0 1-.252-.56.852.852 0 0 1 .812-.812c.336 0 .308.084.896.532a8.873 8.873 0 0 0 5.236 1.708c3.528 0 5.572-1.316 5.572-3.836 0-6.636-11.844-2.94-11.844-10.584 0-3.36 2.94-4.9 6.552-4.9 2.016 0 4.844.868 6.104 2.632a.825.825 0 0 1 .168.477.814.814 0 0 1-.84.784c-.392 0-.392-.112-.868-.588a6.476 6.476 0 0 0-4.564-1.708c-3.332 0-4.956 1.287-4.956 3.304 0 6.02 11.844 2.52 11.844 10.584 0 3.892-3.416 5.432-7.168 5.432zm23.827-.476a.816.816 0 0 1-.728-.477l-1.792-4.312h-10.08l-1.792 4.312a.789.789 0 0 1-1.512-.279.824.824 0 0 1 .056-.364l7.56-18.34a.881.881 0 0 1 .812-.532.722.722 0 0 1 .672.532l7.56 18.34a.83.83 0 0 1 .056.364.784.784 0 0 1-.812.756zm-7.56-17.052l-4.396 10.668h8.82zM397.6 566.08h-11.648v6.887h8.54a.772.772 0 0 1 .812.785.788.788 0 0 1-.784.812h-8.568v9.1a.798.798 0 0 1-1.596 0v-18.368a.826.826 0 0 1 .812-.783H397.6a.785.785 0 1 1 0 1.568zm7.756 4.87a4.786 4.786 0 0 0-4.788 4.788v7.924a.798.798 0 0 1-1.596 0v-13.3a.798.798 0 0 1 1.596 0v1.148a6.39 6.39 0 0 1 4.788-2.156.798.798 0 1 1 0 1.596zm16.264 13.498h-.028a2.899 2.899 0 0 1-2.772-2.184 6.353 6.353 0 0 1-5.432 2.66c-4.564 0-7.028-3.752-7.028-7.924 0-4.23 2.52-7.896 7.028-7.896a6.4 6.4 0 0 1 5.432 2.632v-1.372a.79.79 0 0 1 .812-.784.765.765 0 0 1 .784.784v11.284c0 1.792 2.016.672 2.016 2.016a.77.77 0 0 1-.812.784zm-8.232-13.748c-3.304 0-5.432 2.66-5.432 6.3s2.128 6.327 5.432 6.327c3.332 0 5.432-2.688 5.432-6.327s-2.1-6.3-5.432-6.3z"/><use xlink:href="#K" x="-590.281" y="329.865"/><path d="M451.746 582.795a6.5 6.5 0 0 1-5.012 2.129c-4.508 0-7.028-3.697-7.028-7.924 0-4.2 2.52-7.896 7.028-7.896a6.503 6.503 0 0 1 5.012 2.128.742.742 0 0 1 .224.532.877.877 0 0 1-.812.84.824.824 0 0 1-.588-.28 4.936 4.936 0 0 0-3.836-1.624c-3.304 0-5.432 2.66-5.432 6.3s2.128 6.327 5.432 6.327a5.033 5.033 0 0 0 3.836-1.624.795.795 0 0 1 1.4.532.8.8 0 0 1-.224.56zm15.652-4.983h-11.62c.252 3.192 2.324 5.516 5.376 5.516a5.061 5.061 0 0 0 4.116-1.932.735.735 0 0 1 .672-.392.856.856 0 0 1 .868.756c0 .252 0 .308-.532.924a6.612 6.612 0 0 1-5.124 2.24c-4.508 0-7.028-3.697-7.028-7.924 0-4.2 2.52-7.896 7.028-7.896s7.028 3.724 7.028 7.896a.847.847 0 0 1-.784.812zm-6.244-7.112c-3.36 0-5.124 2.576-5.376 5.516h10.78c-.252-3.2-2.324-5.516-5.404-5.516zm-61.88 79.633a7.173 7.173 0 0 1-6.244 3.053c-6.02 0-8.148-4.984-8.148-10.444 0-5.488 2.128-10.472 8.148-10.472a7.092 7.092 0 0 1 6.216 3.052.567.567 0 0 1 .168.448.839.839 0 0 1-.868.784.74.74 0 0 1-.616-.309 5.509 5.509 0 0 0-4.9-2.38c-4.648 0-6.552 3.64-6.552 8.876 0 5.208 1.904 8.848 6.552 8.848a5.58 5.58 0 0 0 4.956-2.38.653.653 0 0 1 .616-.363.855.855 0 0 1 .84.812.89.89 0 0 1-.168.476z"/><use xlink:href="#T"/><use xlink:href="#K" x="-595.379" y="398.327"/><use xlink:href="#T" x="33.35"/><use xlink:href="#U"/><use xlink:href="#T" x="67.592"/><path d="M826.805 236.898h-3.192a.798.798 0 1 1 0-1.596h.784v-16.77h-.784a.785.785 0 1 1 0-1.568h3.192a.784.784 0 0 1 0 1.568h-.812v16.77h.812a.798.798 0 0 1 0 1.596z"/><use xlink:href="#K" x="-184.311" y="-17.685"/><use xlink:href="#U" x="393.654" y="-416.012"/><use xlink:href="#J" x="-146.54" y="-17.686"/><use xlink:href="#S" x="498.449" y="-377.652"/><use xlink:href="#V"/><use xlink:href="#M" x="657.592" y="146.526"/><use xlink:href="#L" x="721.819" y="146.526"/><use xlink:href="#N" x="673.127" y="146.525"/><use xlink:href="#O" x="673.128" y="146.525"/><use xlink:href="#W"/><use xlink:href="#P" x="673.127" y="146.525"/><path d="M685.674 802.772a10.342 10.342 0 0 1-6.692-2.464.732.732 0 0 1-.252-.56.852.852 0 0 1 .812-.812c.336 0 .308.084.896.532a8.873 8.873 0 0 0 5.236 1.708c3.528 0 5.572-1.316 5.572-3.836 0-6.636-11.844-2.94-11.844-10.584 0-3.36 2.94-4.9 6.552-4.9 2.016 0 4.844.868 6.104 2.632a.824.824 0 0 1 .168.477.814.814 0 0 1-.84.784c-.392 0-.392-.112-.868-.588a6.476 6.476 0 0 0-4.564-1.708c-3.332 0-4.956 1.287-4.956 3.304 0 6.02 11.844 2.52 11.844 10.584 0 3.892-3.416 5.432-7.168 5.432zm27.832-14.308l-4.564 13.16c-.196.53-.448.672-.812.672-.476 0-.616-.168-.784-.672l-3.668-10.92-3.668 10.92c-.196.53-.448.672-.812.672a.819.819 0 0 1-.784-.672l-4.536-13.16a1.182 1.182 0 0 1-.056-.309.796.796 0 0 1 .812-.728.727.727 0 0 1 .728.532l3.836 11.088 3.668-10.948c.168-.532.336-.672.812-.672.336 0 .616.112.784.672l3.724 10.948 3.78-11.088a.726.726 0 0 1 .728-.532.758.758 0 0 1 .812 1.036z"/><use xlink:href="#L" x="614.632" y="60.826"/><use xlink:href="#P" x="527.02" y="60.826"/><path d="M761.33 795.66H749.7c.252 3.19 2.324 5.516 5.376 5.516a5.061 5.061 0 0 0 4.116-1.932.734.734 0 0 1 .672-.393.856.856 0 0 1 .868.756c0 .252 0 .31-.532.924a6.609 6.609 0 0 1-5.124 2.24c-4.508 0-7.028-3.696-7.028-7.924 0-4.2 2.52-7.896 7.028-7.896s7.028 3.724 7.028 7.896a.848.848 0 0 1-.784.813zm-6.244-7.112c-3.36 0-5.124 2.576-5.376 5.516h10.78c-.252-3.19-2.324-5.516-5.404-5.516z"/><use xlink:href="#W" x="-97.162" y="-85.699"/><use xlink:href="#V" x="15.542" y="-287.638"/><path d="M835.512 600.357h-.868c-2.212 0-3.304-1.092-3.304-3.276v-9.996h-1.428a.798.798 0 0 1 0-1.596h1.428v-4.283a.788.788 0 0 1 .812-.785.765.765 0 0 1 .784.785v4.283h2.576a.798.798 0 0 1 0 1.596h-2.576v9.996c0 1.373.392 1.68 1.708 1.68h.868a.798.798 0 0 1 0 1.597zm17.388 0h-.028a2.899 2.899 0 0 1-2.772-2.185 6.351 6.351 0 0 1-5.432 2.66c-4.564 0-7.028-3.752-7.028-7.924 0-4.228 2.52-7.896 7.028-7.896a6.4 6.4 0 0 1 5.432 2.632v-1.372a.789.789 0 0 1 .812-.784.765.765 0 0 1 .784.784v11.284c0 1.792 2.016.672 2.016 2.016a.77.77 0 0 1-.812.784zm-8.232-13.748c-3.304 0-5.432 2.66-5.432 6.3s2.128 6.328 5.432 6.328c3.332 0 5.432-2.687 5.432-6.328s-2.1-6.3-5.432-6.3z"/><use xlink:href="#X"/><path d="M873.34 586.6l-7.588 17.948a2.896 2.896 0 0 1-2.996 1.68h-1.232a.798.798 0 0 1 0-1.596h1.232c.616 0 1.26-.028 1.512-.672l1.596-3.8-5.796-13.552a.887.887 0 0 1-.056-.364.784.784 0 0 1 .812-.756.719.719 0 0 1 .7.477l5.208 12.152 5.152-12.152a.73.73 0 0 1 .728-.477.759.759 0 0 1 .784.756.887.887 0 0 1-.056.364zm-38.387-30.67h-5.432v17.584a.771.771 0 0 1-.812.783.762.762 0 0 1-.784-.783V555.94h-5.432a.785.785 0 1 1 0-1.568h12.46a.784.784 0 0 1 0 1.568zm14.447 18.367a.787.787 0 0 1-.812-.783v-8.176a4.788 4.788 0 1 0-9.576 0v8.176a.798.798 0 0 1-1.596 0v-18.368a.798.798 0 0 1 1.596 0v5.964a6.219 6.219 0 0 1 4.788-2.156 6.436 6.436 0 0 1 6.384 6.385v8.176a.78.78 0 0 1-.784.783z"/><use xlink:href="#Y"/><path d="M871.576 556.75a1.596 1.596 0 1 1 1.596-1.596 1.578 1.578 0 0 1-1.596 1.596zm0 17.556a.769.769 0 0 1-.812-.783v-13.3a.771.771 0 0 1 .812-.783.762.762 0 0 1 .784.783v13.3a.749.749 0 0 1-.784.783zm6.972.17a2.934 2.934 0 0 1-2.772-2.967v-16.353a.798.798 0 0 1 1.596 0v16.353c0 1.8 1.988.756 1.988 2.016a.902.902 0 0 1-.812.951z"/><use xlink:href="#Y" x="27.999"/><path d="M910.747 574.307a.787.787 0 0 1-.812-.783v-8.176a4.788 4.788 0 1 0-9.576 0v8.176a.798.798 0 0 1-1.596 0v-13.3a.798.798 0 0 1 1.596 0v.896a6.387 6.387 0 0 1 11.172 4.229v8.176a.78.78 0 0 1-.784.783zm16.576 0a.786.786 0 0 1-.812-.783v-1.4a6.351 6.351 0 0 1-5.432 2.66c-4.508 0-7.028-3.696-7.028-7.924 0-4.2 2.52-7.896 7.028-7.896a6.399 6.399 0 0 1 5.432 2.633v-6.44a.798.798 0 0 1 1.596 0v18.368a.78.78 0 0 1-.784.783zm-6.244-13.748c-3.304 0-5.432 2.66-5.432 6.3s2.128 6.328 5.432 6.328c3.332 0 5.432-2.688 5.432-6.328s-2.1-6.3-5.432-6.3zM551.226 686.876h-5.432v17.583a.771.771 0 0 1-.812.784.763.763 0 0 1-.784-.784v-17.583h-5.432a.785.785 0 1 1 0-1.568h12.46a.784.784 0 0 1 0 1.568z"/><use xlink:href="#S" x="181.736" y="90.693"/><use xlink:href="#J" x="-440.824" y="450.66"/><path d="M592.3 691.41l-4.564 13.16c-.196.532-.448.672-.812.672-.476 0-.616-.168-.784-.672l-3.668-10.92-3.668 10.92c-.196.532-.448.672-.812.672a.818.818 0 0 1-.784-.672l-4.536-13.16a1.175 1.175 0 0 1-.056-.308.796.796 0 0 1 .812-.729.728.728 0 0 1 .728.532l3.836 11.088 3.668-10.947c.168-.532.336-.673.812-.673.336 0 .616.112.784.673l3.724 10.947 3.78-11.088a.727.727 0 0 1 .728-.532.758.758 0 0 1 .812 1.036z"/><use xlink:href="#S" x="224.772" y="90.693"/><use xlink:href="#K" x="-402.8" y="450.66"/><path d="M622.165 585.82a7.014 7.014 0 0 1-7.028-7.027v-12.63a.813.813 0 0 1 1.624 0v12.63a5.418 5.418 0 1 0 10.836 0v-12.63a.798.798 0 0 1 1.596 0v12.63a7.014 7.014 0 0 1-7.028 7.027zm22.26-.478a.742.742 0 0 1-.672-.475l-5.04-10.445-4.648 5.713v4.396a.749.749 0 0 1-.784.784.77.77 0 0 1-.812-.784v-18.368a.771.771 0 0 1 .812-.783.762.762 0 0 1 .784.783v11.452l9.632-11.956a.722.722 0 0 1 .56-.336.889.889 0 0 1 .896.813.786.786 0 0 1-.224.531l-5.124 6.356 5.376 11.144a.828.828 0 0 1 .056.364.872.872 0 0 1-.812.811zm-132.29 301.92a.866.866 0 0 1-.672-.448l-10.948-16.155v15.8a.798.798 0 0 1-1.596 0v-18.367a.797.797 0 0 1 1.512-.393l10.948 16.156v-15.764a.798.798 0 0 1 1.596 0v18.367a.836.836 0 0 1-.84.813z"/><use xlink:href="#R" x="162.861" y="272.685"/><path d="M550.996 873.403l-4.564 13.16c-.196.532-.448.672-.812.672-.476 0-.616-.168-.784-.672l-3.668-10.92-3.668 10.92c-.196.532-.448.672-.812.672a.818.818 0 0 1-.784-.672l-4.536-13.16a1.195 1.195 0 0 1-.056-.308.796.796 0 0 1 .812-.729.728.728 0 0 1 .728.532l3.836 11.088 3.668-10.947c.168-.532.336-.673.812-.673.336 0 .616.112.784.673l3.724 10.947 3.78-11.088a.727.727 0 0 1 .728-.532.758.758 0 0 1 .812 1.036zm20.524 13.832h-12.46a.759.759 0 0 1-.784-.756.906.906 0 0 1 .196-.56l10.948-17.052h-9.716a.784.784 0 1 1 0-1.568h11.172a.784.784 0 0 1 .672 1.231l-11.004 17.108h10.976a.798.798 0 0 1 0 1.596z"/><use xlink:href="#R" x="220.932" y="272.685"/><use xlink:href="#S" x="220.932" y="272.685"/><use xlink:href="#X" x="-247.642" y="286.878"/><use xlink:href="#S" x="243.919" y="272.685"/><use xlink:href="#K" x="-383.653" y="632.652"/><use xlink:href="#U" x="194.31" y="234.325"/></g><g opacity=".3" class="M"><path d="M42.328 1046.045a7.892 7.892 0 0 1-5.503-2.002 1.364 1.364 0 0 1-1.468 1.401 1.346 1.346 0 0 1-1.401-1.401v-20.88a1.435 1.435 0 0 1 2.869-.033v6.238a7.4 7.4 0 0 1 5.503-2.169c5.37 0 8.373 4.403 8.373 9.406 0 5.037-3.002 9.44-8.373 9.44zm0-16c-3.335 0-5.503 2.602-5.503 6.57 0 4.003 2.168 6.604 5.503 6.604s5.504-2.602 5.504-6.604c0-3.97-2.168-6.57-5.504-6.57zm25.555 8.037h-12.34c.467 3.136 2.468 5.137 5.403 5.137a5.003 5.003 0 0 0 3.969-1.734 1.383 1.383 0 0 1 1.034-.533 1.556 1.556 0 0 1 1.501 1.468c0 .4-.1.7-.8 1.4a8.129 8.129 0 0 1-5.704 2.235c-5.37 0-8.372-4.437-8.372-9.44 0-4.97 3.002-9.406 8.372-9.406 5.437 0 8.34 4.437 8.34 9.406a1.422 1.422 0 0 1-1.401 1.468zm-6.937-8.038c-3.136 0-4.97 2.3-5.403 5.17H66.35c-.467-3.202-2.468-5.17-5.403-5.17zM88 1045.478a3.247 3.247 0 0 1-2.969-1.901 7.642 7.642 0 0 1-5.87 2.469c-5.437 0-8.372-4.47-8.372-9.44s3.002-9.406 8.372-9.406a7.369 7.369 0 0 1 5.504 2.202v-.134a1.376 1.376 0 0 1 1.4-1.501 1.341 1.341 0 0 1 1.468 1.401v12.875a.54.54 0 0 0 .467.601 1.418 1.418 0 1 1 0 2.835zm-8.84-15.443c-3.336 0-5.504 2.602-5.504 6.57 0 4.003 2.168 6.604 5.504 6.604 3.37 0 5.504-2.602 5.504-6.604 0-3.97-2.135-6.57-5.504-6.57z"/><use xlink:href="#Z"/><path d="M115.158 1045.478h-.567c-3.17 0-4.37-1.668-4.37-4.403V1030.6h-1a1.418 1.418 0 1 1-.033-2.835h1v-4.637a1.355 1.355 0 0 1 1.435-1.4 1.328 1.328 0 0 1 1.401 1.4v4.637h2.135a1.383 1.383 0 0 1 1.4 1.401 1.356 1.356 0 0 1-1.4 1.434h-2.135v10.774c0 .934.333 1.268 1.268 1.268h.833a1.376 1.376 0 0 1 1.435 1.4 1.357 1.357 0 0 1-1.4 1.435zm4.604-20.415a2.401 2.401 0 1 1 2.402-2.401 2.392 2.392 0 0 1-2.402 2.401zm0 20.414a1.4 1.4 0 0 1-1.467-1.401V1029.2a1.408 1.408 0 0 1 1.467-1.435 1.374 1.374 0 0 1 1.401 1.435v14.876a1.346 1.346 0 0 1-1.401 1.401zm10.376-14.877h-1.5v13.442a1.364 1.364 0 0 1-1.468 1.401 1.346 1.346 0 0 1-1.401-1.401V1030.6h-1.37a1.418 1.418 0 0 1 0-2.835h1.367v-2.27a3.801 3.801 0 0 1 3.836-3.769 1.418 1.418 0 1 1 0 2.835.934.934 0 0 0-.967.9v2.302h1.5a1.418 1.418 0 1 1 0 2.835z"/><use xlink:href="#Z" x="42.068"/><path d="M154.725 1045.544a3.403 3.403 0 0 1-3.336-3.402v-18.98a1.435 1.435 0 0 1 2.869-.033v19.013a.527.527 0 0 0 .467.567 1.418 1.418 0 1 1 0 2.835zm15.37-.066v-1.264c1.886-.237 2.046-.437 2.046-3.157v-6.7c0-2.8-1.248-4.017-3.064-4.017a5.597 5.597 0 0 0-3.47 1.493v9.476c0 2.527.187 2.658 2.06 2.896v1.264h-8.968v-1.264c2.254-.33 2.5-.4 2.5-3v-8.2c0-2.446-.303-2.565-2.185-2.922v-1.184a34.101 34.101 0 0 0 6.653-1.533l-.052 2.95 2.6-1.745a5.659 5.659 0 0 1 3.159-1.086c3.194 0 5.2 2.338 5.2 6.3v7.5c0 2.54.237 2.657 2.277 2.92v1.264zm23.9-3.703c-2.458 3.427-5.488 4.178-7.014 4.178-5.142 0-8.124-3.936-8.124-8.594a10.333 10.333 0 0 1 2.832-7.062 8.602 8.602 0 0 1 6.082-2.814 6.386 6.386 0 0 1 6.37 6.347c-.014.715-.08 1.277-.612 1.4-.767.184-6.17.5-10.318.647.062 4.587 2.717 6.74 5.556 6.74a6.776 6.776 0 0 0 4.543-1.866zm-7.07-12.7c-1.667 0-3.167 1.807-3.516 4.963l5.486-.118c.6-.026.848-.146.848-.792.04-2.022-1.037-4.053-2.818-4.053zm34.284.145c-1.943.343-2.248.624-3.105 2.765-1.33 3.462-3.102 8.53-4.934 13.94h-1.512l-4.65-11.46-4.55 11.46h-1.472l-4.685-14.192c-.687-1.985-.94-2.274-2.855-2.512v-1.25h9.397v1.25c-2.325.345-2.535.672-2.058 2.133l2.52 8.214c1.507-3.68 2.988-7.62 4.327-11.424h1.456c1.4 3.76 2.986 7.702 4.573 11.568.742-2.107 2.062-5.964 2.557-8.108.412-1.674-.008-2.078-2.753-2.383v-1.25h7.742zm9.4 3.746c-.92-2.606-2.155-3.984-4.2-3.984a2.166 2.166 0 0 0-2.225 2.266c0 1.497 1.046 2.264 3.16 3.216 3.278 1.496 5.3 2.787 5.3 5.736 0 3.85-3.6 5.764-6.945 5.764a12.073 12.073 0 0 1-4.92-1.161l-.662-4.892 1.252-.224c.8 2.5 2.33 4.75 4.976 4.75a2.231 2.231 0 0 0 2.438-2.281c0-1.423-.76-2.333-3.092-3.467-2.67-1.295-5.107-2.64-5.107-5.775 0-3.046 2.533-5.42 6.565-5.42a18.751 18.751 0 0 1 4.112.567l.62 4.577z"/></g><g class="M N"><path d="M891.74 1046.358c-1.2 0-3.22-.42-3.92-1.58a.482.482 0 0 1-.08-.3.546.546 0 0 1 1.021-.32 3.812 3.812 0 0 0 2.98 1.061c1.94 0 2.92-.64 2.92-1.94 0-3.02-6.562-1.42-6.562-5.422 0-2.02 2.02-2.8 3.84-2.8a5.415 5.415 0 0 1 3.44 1.16.558.558 0 0 1 .18.38.648.648 0 0 1-.62.6.531.531 0 0 1-.38-.16 4.001 4.001 0 0 0-2.62-.84c-1.76 0-2.7.68-2.7 1.66 0 2.8 6.562 1.32 6.562 5.422 0 2.28-2 3.08-4.06 3.08zm10.722-.04c-3.22 0-5.02-2.64-5.02-5.66 0-3 1.8-5.64 5.02-5.64s5.02 2.64 5.02 5.64c0 3.02-1.8 5.66-5.02 5.66zm0-10.162c-2.36 0-3.88 1.9-3.88 4.5s1.52 4.52 3.88 4.52c2.38 0 3.88-1.92 3.88-4.52s-1.5-4.5-3.88-4.5zm15.78 9.822a.562.562 0 0 1-.58-.561v-.64a4.442 4.442 0 0 1-3.421 1.54 4.61 4.61 0 0 1-4.561-4.561v-5.842a.57.57 0 0 1 1.14 0v5.842a3.421 3.421 0 1 0 6.842 0v-5.842a.57.57 0 0 1 1.141 0v9.502a.558.558 0 0 1-.561.561zm7.958-9.642a3.418 3.418 0 0 0-3.421 3.42v5.66a.57.57 0 0 1-1.141 0v-9.502a.57.57 0 0 1 1.141 0v.82a4.565 4.565 0 0 1 3.421-1.54.571.571 0 1 1 0 1.141zm10.182 8.46a4.645 4.645 0 0 1-3.58 1.521c-3.22 0-5.02-2.64-5.02-5.66 0-3 1.8-5.64 5.02-5.64a4.647 4.647 0 0 1 3.58 1.52.531.531 0 0 1 .16.381.627.627 0 0 1-.58.6.587.587 0 0 1-.42-.2 3.526 3.526 0 0 0-2.74-1.16c-2.36 0-3.88 1.9-3.88 4.5s1.52 4.52 3.88 4.52a3.596 3.596 0 0 0 2.74-1.16.587.587 0 0 1 .42-.2.594.594 0 0 1 .58.58.571.571 0 0 1-.16.399z"/><use xlink:href="#a"/><path d="M951.94 1039.416a1.14 1.14 0 1 1 0-2.28 1.14 1.14 0 0 1 0 2.28zm0 6.562a1.14 1.14 0 1 1 0-2.28 1.14 1.14 0 0 1 0 2.28zm23.082-13.523l-3.52 13.103a.553.553 0 0 1-.56.42.533.533 0 0 1-.541-.42l-3-11.083-2.98 11.083a.533.533 0 0 1-.54.42.554.554 0 0 1-.561-.42l-3.52-13.103a.545.545 0 0 1-.02-.181.581.581 0 0 1 .58-.58.499.499 0 0 1 .521.44l3 11.082 2.98-11.082a.529.529 0 0 1 .54-.4.537.537 0 0 1 .56.4l2.98 11.082 3-11.082a.526.526 0 0 1 .521-.44.581.581 0 0 1 .58.58.544.544 0 0 1-.021.181z"/><use xlink:href="#b"/><path d="M988.44 1036.336l-3.44 3.44 3.4 5.32a.564.564 0 0 1 .12.319.608.608 0 0 1-.6.541.565.565 0 0 1-.48-.261l-3.28-5.1-2.06 2.08v2.74a.57.57 0 0 1-1.141 0v-13.122a.57.57 0 0 1 1.141 0v8.762l5.52-5.52a.564.564 0 0 1 .421-.18.577.577 0 0 1 .58.56.561.561 0 0 1-.181.421z"/><use xlink:href="#b" x="13.58"/><path d="M999.56 1046.318a4.537 4.537 0 0 1-3.881-1.9v5.182a.57.57 0 1 1-1.141 0v-13.684a.57.57 0 0 1 1.141 0v.98a4.573 4.573 0 0 1 3.881-1.88c3.22 0 5.02 2.64 5.02 5.64 0 3.02-1.8 5.66-5.02 5.66zm0-10.162c-2.38 0-3.88 1.9-3.88 4.5s1.5 4.52 3.88 4.52 3.88-1.92 3.88-4.52-1.5-4.5-3.88-4.5z"/><use xlink:href="#a" x="68.018"/><path d="M1027.94 1045.978a.563.563 0 0 1-.581-.561v-1a4.536 4.536 0 0 1-3.88 1.9c-3.22 0-5.02-2.64-5.02-5.66 0-3 1.8-5.64 5.02-5.64a4.571 4.571 0 0 1 3.88 1.88v-4.6a.57.57 0 0 1 1.141 0v13.122a.558.558 0 0 1-.56.561zm-4.46-9.822c-2.36 0-3.88 1.9-3.88 4.5s1.52 4.52 3.88 4.52c2.38 0 3.88-1.92 3.88-4.52s-1.5-4.5-3.88-4.5z"/><use xlink:href="#b" x="54.36"/><path d="M1045.76 1045.978h-.02a2.072 2.072 0 0 1-1.98-1.561 4.536 4.536 0 0 1-3.88 1.9c-3.26 0-5.02-2.68-5.02-5.66 0-3.02 1.8-5.64 5.02-5.64a4.571 4.571 0 0 1 3.88 1.88v-.98a.564.564 0 0 1 .581-.56.546.546 0 0 1 .56.56v8.063c0 1.28 1.44.48 1.44 1.44a.55.55 0 0 1-.58.561zm-5.88-9.822c-2.36 0-3.88 1.9-3.88 4.5s1.52 4.52 3.88 4.52c2.38 0 3.88-1.92 3.88-4.52s-1.5-4.5-3.88-4.5z"/></g><g fill="#fff"><path d="M81.02 61.52H68.18v15.9a2.58 2.58 0 0 1-5.16.06V39.862a2.491 2.491 0 0 1 2.52-2.58h15.54c5.28 0 12.06 4.14 12.06 12.06a12.099 12.099 0 0 1-12.12 12.18zm0-19.14H68.18v14.04h12.78a7.02 7.02 0 0 0 .06-14.04zm21.84 37.74a6.122 6.122 0 0 1-6-6.12V39.86a2.58 2.58 0 0 1 5.16-.06V74a.947.947 0 0 0 .84 1.02 2.55 2.55 0 1 1 0 5.101z"/><use xlink:href="#c"/><use xlink:href="#d"/><path d="M180.078 80h-1.02c-5.7 0-7.86-3-7.86-7.92V53.24h-1.8a2.55 2.55 0 0 1-.06-5.101h1.8v-8.34a2.436 2.436 0 0 1 2.58-2.52 2.389 2.389 0 0 1 2.52 2.52v8.34h3.84a2.488 2.488 0 0 1 2.52 2.521 2.441 2.441 0 0 1-2.52 2.58h-3.84v19.38c0 1.68.6 2.28 2.28 2.28h1.5a2.475 2.475 0 0 1 2.58 2.52 2.441 2.441 0 0 1-2.52 2.58z"/><use xlink:href="#e"/><use xlink:href="#f"/><path d="M274.454 80.06a2.471 2.471 0 0 1-2.52-2.58v-27.6l-11.64 21.72a2.627 2.627 0 0 1-2.4 1.619 2.857 2.857 0 0 1-2.4-1.619L243.915 50v27.48a2.501 2.501 0 0 1-2.64 2.58 2.471 2.471 0 0 1-2.52-2.58V39.982a2.526 2.526 0 0 1 2.76-2.7 2.3 2.3 0 0 1 2.16 1.5l14.22 26.46 14.28-26.46a2.303 2.303 0 0 1 2.34-1.5 2.486 2.486 0 0 1 2.58 2.7V77.48a2.501 2.501 0 0 1-2.64 2.58z"/><use xlink:href="#e" x="97.617"/><use xlink:href="#f" x="97.618"/><use xlink:href="#g"/><path d="M355.153 81.02c-9.66 0-15.06-7.92-15.06-16.98 0-9 5.4-16.92 15.06-16.92s15.06 7.92 15.06 16.92c0 9.06-5.4 16.98-15.06 16.98zm0-28.8c-6 0-9.9 4.68-9.9 11.82 0 7.2 3.9 11.88 9.9 11.88 6.06 0 9.9-4.68 9.9-11.88 0-7.14-3.84-11.82-9.9-11.82zm34.86 28.8a14.202 14.202 0 0 1-9.899-3.6 2.453 2.453 0 0 1-2.64 2.52 2.42 2.42 0 0 1-2.52-2.52V39.86a2.58 2.58 0 0 1 5.16-.06v11.22a13.32 13.32 0 0 1 9.899-3.899c9.66 0 15.06 7.92 15.06 16.92 0 9.06-5.4 16.98-15.06 16.98zm0-28.8c-6 0-9.9 4.68-9.9 11.82 0 7.2 3.9 11.88 9.9 11.88s9.9-4.68 9.9-11.88c0-7.14-3.9-11.82-9.9-11.82z"/><use xlink:href="#h"/><use xlink:href="#i"/><use xlink:href="#j"/></g><g class="M"><path d="M543.85 80H527.7a2.73 2.73 0 0 1-2.64-2.521V39.862a2.511 2.511 0 0 1 2.52-2.58h14.88a11.256 11.256 0 0 1 11.22 11.1 10.799 10.799 0 0 1-3.42 7.98 12.412 12.412 0 0 1 6.3 10.92A12.804 12.804 0 0 1 543.849 80zm-1.38-37.62h-12.24V54.5h12.24a6.06 6.06 0 0 0 0-12.12zm1.38 17.22h-13.62v15.3h13.62a7.65 7.65 0 0 0 0-15.3z"/><use xlink:href="#c" x="451.792"/><path d="M620.41 80a2.424 2.424 0 0 1-2.52-2.521V60.8a8.55 8.55 0 1 0-17.099 0v16.62a2.551 2.551 0 0 1-2.64 2.64 2.471 2.471 0 0 1-2.52-2.58V50.66a2.387 2.387 0 0 1 2.52-2.521 2.509 2.509 0 0 1 2.58 1.98 13.703 13.703 0 0 1 22.259 10.68v16.62a2.454 2.454 0 0 1-2.58 2.58z"/><use xlink:href="#d" x="484.732"/></g><g fill="#fff"><path d="M697.147 80a2.458 2.458 0 0 1-2.28-1.561l-3.18-7.8h-19.98l-3.24 7.8a2.441 2.441 0 0 1-2.22 1.561 2.651 2.651 0 0 1-2.7-2.521 1.974 1.974 0 0 1 .24-1.02l15.42-37.498a2.621 2.621 0 0 1 2.46-1.86 2.724 2.724 0 0 1 2.46 1.86l15.48 37.498a2.81 2.81 0 0 1 .18 1.02 2.561 2.561 0 0 1-2.64 2.52zm-15.48-33.6l-7.86 19.08h15.72zm34.44 5.82a8.644 8.644 0 0 0-8.52 8.58v16.62a2.501 2.501 0 0 1-2.64 2.58 2.457 2.457 0 0 1-2.52-2.521V50.72a2.542 2.542 0 0 1 2.52-2.58 2.463 2.463 0 0 1 2.58 2.04 13.875 13.875 0 0 1 8.58-3.06 2.551 2.551 0 1 1 0 5.1z"/><use xlink:href="#h" x="308.623"/><path d="M775.674 81.02c-4.38 0-10.5-1.8-13.92-4.98a2.4 2.4 0 0 1-.84-1.86 2.599 2.599 0 0 1 2.58-2.579c.9 0 1.2.3 2.28 1.14a16.241 16.241 0 0 0 9.899 3.18c7.14 0 10.26-2.58 10.26-7.02 0-12.48-23.94-5.4-23.94-21.72 0-7.32 6.18-10.98 14.1-10.98 4.14 0 10.08 1.62 13.02 5.1a2.363 2.363 0 0 1 .66 1.619 2.794 2.794 0 0 1-2.58 2.7c-.9 0-1.38-.42-2.4-1.32a13.183 13.183 0 0 0-8.7-2.939c-6.48 0-8.94 2.58-8.94 5.82 0 11.22 23.94 4.56 23.94 21.72 0 8.94-7.5 12.12-15.42 12.12zm34.02 0a13.128 13.128 0 0 1-9.899-3.96v13.02a2.501 2.501 0 0 1-2.64 2.58 2.471 2.471 0 0 1-2.52-2.58V50.72a2.472 2.472 0 0 1 2.52-2.58 2.501 2.501 0 0 1 2.64 2.58 14.402 14.402 0 0 1 9.899-3.659c9.66 0 15.06 7.92 15.06 16.92 0 9.12-5.4 17.04-15.06 17.04zm0-28.858c-5.94 0-9.9 4.74-9.9 11.82 0 7.2 3.9 11.94 9.9 11.94s9.9-4.68 9.9-11.88c0-7.14-3.9-11.88-9.9-11.88z"/><use xlink:href="#g" x="505.421"/><use xlink:href="#h" x="435.688"/><use xlink:href="#i" x="435.69"/><use xlink:href="#j" x="435.69"/><use xlink:href="#e" x="762.864"/><path d="M984.88 80a2.424 2.424 0 0 1-2.52-2.521V60.8a8.55 8.55 0 1 0-17.099 0v16.62a2.55 2.55 0 0 1-2.64 2.64 2.471 2.471 0 0 1-2.52-2.58V50.66a2.387 2.387 0 0 1 2.52-2.521 2.509 2.509 0 0 1 2.58 1.98 13.703 13.703 0 0 1 22.259 10.68v16.62a2.454 2.454 0 0 1-2.58 2.58zm21.84 13.68c-3.66 0-12.72-1.32-12.72-4.92a2.794 2.794 0 0 1 2.58-2.7c1.38 0 .18.18 3.36 1.38a18.751 18.751 0 0 0 6.78 1.14c6.66 0 9.9-3.18 9.9-9.48v-2.7a14.038 14.038 0 0 1-9.899 3.6c-9.48 0-15.06-6.72-15.06-15.96 0-9 5.4-16.92 15.06-16.92 4.2 0 7.44 1.26 9.9 3.84v-.24a2.554 2.554 0 0 1 2.58-2.58 2.519 2.519 0 0 1 2.579 2.58V79.1c0 9.54-5.7 14.58-15.06 14.58zm0-41.46c-6 0-9.9 4.68-9.9 11.82 0 6.84 3.6 10.86 9.9 10.86s9.9-4.02 9.9-10.86c0-7.14-3.84-11.82-9.9-11.82z"/></g></svg>