<svg xmlns="http://www.w3.org/2000/svg" xmlns:xlink="http://www.w3.org/1999/xlink" viewBox="0 0 1080 1080"><linearGradient id="A" gradientUnits="userSpaceOnUse" x1="11.716" y1="11.716" x2="1068.284" y2="1068.284"><stop offset="0" stop-color="#4ca1af"/><stop offset=".3" stop-color="#7ab9c4"/><stop offset=".608" stop-color="#a2ced6"/><stop offset=".852" stop-color="#bbdbe1"/><stop offset="1" stop-color="#c4e0e5"/></linearGradient><path d="M1040 1080H40c-22.09 0-40-17.91-40-40V40C0 17.91 17.91 0 40 0h1000c22.09 0 40 17.91 40 40v1000c0 22.09-17.91 40-40 40z" fill="url(#A)"/><g opacity=".5"><path d="M42.328 1046.045c-3.568 0-5.47-1.97-5.503-2.002 0 .935-.7 1.4-1.468 1.4-.7 0-1.4-.467-1.4-1.4v-20.88a1.35 1.35 0 0 1 1.401-1.434c.767 0 1.468.467 1.468 1.4v6.238c1.334-1.368 3.168-2.17 5.503-2.17 5.37 0 8.373 4.403 8.373 9.406 0 5.037-3.002 9.44-8.373 9.44zm0-16c-3.335 0-5.503 2.602-5.503 6.57 0 4.003 2.168 6.604 5.503 6.604s5.504-2.602 5.504-6.604c0-3.97-2.168-6.57-5.504-6.57zm25.555 8.037h-12.34c.467 3.136 2.468 5.137 5.403 5.137 1.5 0 3.002-.533 3.97-1.734.3-.333.634-.533 1.034-.533.734 0 1.5.667 1.5 1.468 0 .4-.1.7-.8 1.4-1.5 1.468-3.57 2.235-5.704 2.235-5.37 0-8.372-4.437-8.372-9.44 0-4.97 3.002-9.406 8.372-9.406 5.437 0 8.34 4.437 8.34 9.406 0 .734-.534 1.468-1.4 1.468zm-6.937-8.038c-3.136 0-4.97 2.3-5.403 5.17H66.35c-.467-3.202-2.468-5.17-5.403-5.17zM88 1045.478c-1.834 0-2.668-1.3-2.97-1.9-1.334 1.468-3.27 2.47-5.87 2.47-5.437 0-8.372-4.47-8.372-9.44s3.002-9.406 8.372-9.406c2.335 0 4.203.834 5.504 2.202v-.134c0-.367.133-1.5 1.4-1.5.7 0 1.468.367 1.468 1.4v12.875c0 .434.3.6.467.6.935 0 1.435.667 1.435 1.434a1.37 1.37 0 0 1-1.435 1.401zm-8.84-15.443c-3.336 0-5.504 2.602-5.504 6.57 0 4.003 2.168 6.604 5.504 6.604 3.37 0 5.504-2.602 5.504-6.604 0-3.97-2.135-6.57-5.504-6.57z"/><use xlink:href="#G"/><path d="M115.158 1045.478h-.567c-3.17 0-4.37-1.668-4.37-4.403V1030.6h-1c-.8 0-1.435-.634-1.435-1.4 0-.8.634-1.435 1.4-1.435h1v-4.637c0-.934.7-1.4 1.435-1.4s1.4.467 1.4 1.4v4.637h2.135c.934 0 1.4.768 1.4 1.4 0 .8-.533 1.434-1.4 1.434h-2.135v10.774c0 .934.333 1.268 1.268 1.268h.833c.868 0 1.435.634 1.435 1.4 0 .8-.533 1.435-1.4 1.435zm4.604-20.415a2.402 2.402 0 1 1 0-4.803 2.402 2.402 0 1 1 0 4.803zm0 20.414c-.733 0-1.467-.5-1.467-1.4V1029.2c0-.935.733-1.435 1.467-1.435a1.37 1.37 0 0 1 1.401 1.435v14.876c0 .935-.7 1.4-1.4 1.4zm10.376-14.877h-1.5v13.442c0 .935-.7 1.4-1.468 1.4-.7 0-1.4-.467-1.4-1.4V1030.6h-1.37c-.9 0-1.4-.667-1.4-1.4 0-.768.5-1.435 1.4-1.435h1.367v-2.27c0-2.135 1.77-3.77 3.836-3.77.968 0 1.468.667 1.468 1.434 0 .7-.5 1.4-1.468 1.4-.566 0-.967.434-.967.9v2.302h1.5c.967 0 1.468.667 1.468 1.435 0 .733-.5 1.4-1.468 1.4z"/><use xlink:href="#G" x="42.068"/><path d="M154.725 1045.544c-1.802 0-3.336-1.534-3.336-3.402v-18.98c0-.967.7-1.434 1.435-1.434s1.435.467 1.435 1.4v19.013c0 .4.3.567.467.567.934 0 1.435.667 1.435 1.435 0 .733-.5 1.4-1.435 1.4zm15.37-.066v-1.264c1.886-.237 2.046-.437 2.046-3.157v-6.7c0-2.8-1.248-4.017-3.064-4.017-1.237 0-2.345.6-3.47 1.493v9.476c0 2.527.187 2.658 2.06 2.896v1.264h-8.968v-1.264c2.254-.33 2.5-.4 2.5-3v-8.2c0-2.446-.303-2.565-2.185-2.922v-1.184c2.173-.292 4.63-.807 6.653-1.533l-.052 2.95 2.6-1.745c1.16-.713 2-1.086 3.16-1.086 3.194 0 5.2 2.338 5.2 6.3v7.5c0 2.54.237 2.657 2.277 2.92v1.264h-8.74zm23.9-3.703c-2.458 3.427-5.488 4.178-7.014 4.178-5.142 0-8.124-3.936-8.124-8.594 0-2.745 1.183-5.396 2.832-7.062 1.74-1.8 3.945-2.814 6.082-2.814 3.73 0 6.396 3.126 6.37 6.347-.014.715-.08 1.277-.612 1.4-.767.184-6.17.5-10.318.647.062 4.587 2.717 6.74 5.556 6.74 1.572 0 3.104-.597 4.543-1.866l.686 1.014zm-7.07-12.7c-1.667 0-3.167 1.807-3.516 4.963l5.486-.118c.6-.026.848-.146.848-.792.04-2.022-1.037-4.053-2.818-4.053zm34.284.145c-1.943.343-2.248.624-3.105 2.765-1.33 3.462-3.102 8.53-4.934 13.94h-1.512l-4.65-11.46-4.55 11.46h-1.472l-4.685-14.192c-.687-1.985-.94-2.274-2.855-2.512v-1.25h9.397v1.25c-2.325.345-2.535.672-2.058 2.133l2.52 8.214c1.507-3.68 2.988-7.62 4.327-11.424h1.456c1.4 3.76 2.986 7.702 4.573 11.568.742-2.107 2.062-5.964 2.557-8.108.412-1.674-.008-2.078-2.753-2.383v-1.25h7.742v1.25zm9.4 3.746c-.92-2.606-2.155-3.984-4.2-3.984-1.206 0-2.225.86-2.225 2.266 0 1.497 1.046 2.264 3.16 3.216 3.278 1.496 5.3 2.787 5.3 5.736 0 3.85-3.6 5.764-6.945 5.764-2.06 0-4.088-.737-4.92-1.16l-.662-4.892 1.252-.224c.8 2.5 2.33 4.75 4.976 4.75 1.505 0 2.438-.952 2.438-2.28 0-1.423-.76-2.333-3.092-3.467-2.67-1.295-5.107-2.64-5.107-5.775 0-3.046 2.533-5.42 6.565-5.42 1.818 0 3.242.396 4.112.567l.62 4.577-1.25.328z"/></g><g opacity=".5"><use xlink:href="#H"/><use xlink:href="#I"/><path d="M815.182 1045.98c-.28 0-.58-.2-.58-.56v-.64c-.84.98-2.06 1.54-3.42 1.54-2.48 0-4.56-2.08-4.56-4.56v-5.842c0-.36.3-.56.58-.56.26 0 .56.2.56.56v5.842c0 1.9 1.52 3.42 3.42 3.42s3.42-1.52 3.42-3.42v-5.842c0-.36.3-.56.58-.56.26 0 .56.2.56.56v9.502c0 .36-.3.56-.56.56z"/><use xlink:href="#J"/><path d="M833.32 1044.797c-.88.98-2.1 1.52-3.58 1.52-3.22 0-5.02-2.64-5.02-5.662 0-3 1.8-5.64 5.02-5.64 1.48 0 2.7.54 3.58 1.52.12.12.16.262.16.38a.63.63 0 0 1-.58.6c-.14 0-.28-.06-.42-.2-.66-.74-1.58-1.16-2.74-1.16-2.36 0-3.88 1.9-3.88 4.5s1.52 4.52 3.88 4.52c1.16 0 2.08-.44 2.74-1.16.14-.14.28-.2.42-.2.3 0 .58.26.58.58 0 .14-.04.26-.16.398zm11.582-3.56H836.6c.18 2.28 1.66 3.94 3.84 3.94 1.08 0 2.36-.48 2.94-1.38.14-.22.3-.28.48-.28.3 0 .62.24.62.54 0 .18 0 .22-.38.658-.92 1.082-2.26 1.602-3.66 1.602-3.22 0-5.02-2.64-5.02-5.662 0-3 1.8-5.64 5.02-5.64s5.02 2.66 5.02 5.64c0 .3-.28.58-.56.58zm-4.46-5.08c-2.4 0-3.66 1.84-3.84 3.94h7.7c-.18-2.28-1.66-3.94-3.86-3.94z"/><use xlink:href="#H" x="62.5"/><path d="M858.38 1039.416c-.64 0-1.16-.5-1.16-1.14s.52-1.14 1.16-1.14c.62 0 1.12.5 1.12 1.14s-.5 1.14-1.12 1.14zm0 6.563c-.64 0-1.16-.5-1.16-1.14s.52-1.14 1.16-1.14c.62 0 1.12.5 1.12 1.14s-.5 1.14-1.12 1.14zm13.64.36a5.01 5.01 0 0 1-5.02-5.02v-9.02c0-.36.3-.56.58-.56s.58.2.58.56v9.02c0 2.12 1.74 3.88 3.86 3.88s3.88-1.76 3.88-3.88v-9.02c0-.36.3-.56.58-.56.26 0 .56.2.56.56v9.02a5.01 5.01 0 0 1-5.021 5.021zm17.202-.34c-.18 0-.34-.12-.48-.32l-7.82-11.543v11.283c0 .36-.3.56-.56.56-.28 0-.58-.2-.58-.56v-13.123c0-.34.3-.6.6-.6.18 0 .34.12.48.32l7.822 11.54v-11.262c0-.36.3-.56.56-.56.28 0 .58.2.58.56v13.123c0 .34-.3.58-.6.58zm5.838-.018h-2.28c-.36 0-.58-.3-.58-.56a.58.58 0 0 1 .58-.58h.56v-11.982h-.56c-.36 0-.58-.28-.58-.56s.22-.56.58-.56h2.28c.36 0 .56.28.56.56s-.2.56-.56.56h-.58v11.982h.58c.36 0 .56.3.56.58 0 .26-.2.56-.56.56zm12.902-1.843c-.98 1.36-2.38 2.182-4.46 2.182-4.3 0-5.82-3.56-5.82-7.46 0-3.922 1.52-7.482 5.82-7.482 2.02 0 3.5.8 4.44 2.18.1.102.12.2.12.32 0 .32-.3.56-.62.56a.53.53 0 0 1-.44-.22c-.72-1.04-1.8-1.7-3.5-1.7-3.32 0-4.682 2.6-4.682 6.342 0 3.72 1.36 6.32 4.682 6.32 1.7 0 2.8-.64 3.54-1.7.1-.2.28-.26.44-.26.3 0 .6.26.6.58a.63.63 0 0 1-.12.34zm11.738 1.843h-8.882a.61.61 0 0 1-.58-.561v-13.123c0-.3.28-.56.58-.56h8.882a.55.55 0 0 1 .58.561.55.55 0 0 1-.58.561h-8.32v4.92h6.1a.55.55 0 0 1 .58.561c0 .28-.2.58-.56.58h-6.12v5.922h8.32c.38 0 .58.3.58.58a.55.55 0 0 1-.58.561zm12.42-13.125h-8.32v4.92h6.1a.55.55 0 0 1 .58.561c0 .28-.2.58-.56.58h-6.12v6.502c0 .36-.3.56-.56.56-.28 0-.58-.2-.58-.56v-13.123c0-.3.28-.56.58-.56h8.882a.55.55 0 0 1 .58.561.55.55 0 0 1-.58.561zm1.998 14.903c-.08.06-.2.08-.3.08-.32 0-.54-.28-.54-.58 0-.56.86-.64 1-1.28-.6-.04-1.08-.54-1.08-1.14a1.16 1.16 0 0 1 1.16-1.16c.98 0 1.2 1 1.2 1.62 0 .98-.52 1.92-1.44 2.46zm23.524-15.303l-3.52 13.104c-.08.28-.3.42-.56.42-.24 0-.48-.14-.54-.42l-3-11.084-2.98 11.084c-.06.28-.3.42-.54.42-.26 0-.48-.14-.56-.42l-3.52-13.104c-.02-.06-.02-.12-.02-.18a.58.58 0 0 1 .58-.58c.26 0 .46.14.52.44l3 11.082 2.98-11.082a.53.53 0 0 1 .54-.4c.26 0 .48.12.56.4l2.98 11.082 3-11.082c.08-.3.28-.44.52-.44a.58.58 0 0 1 .58.58c0 .06 0 .12-.02.18z"/><use xlink:href="#I" x="164.76"/><use xlink:href="#J" x="152.98"/><path d="M980.14 1046.098c-1.08 0-1.98-1-1.98-2.12v-11.684c0-.36.3-.56.58-.56.26 0 .56.2.56.56v11.684c0 1.28 1.42.54 1.42 1.44 0 .34-.24.68-.58.68zm11.42-.118c-.28 0-.58-.2-.58-.56v-1c-.84 1.18-2.14 1.9-3.88 1.9-3.22 0-5.02-2.64-5.02-5.662 0-3 1.8-5.64 5.02-5.64 1.74 0 3.04.72 3.88 1.88v-4.602c0-.36.3-.56.58-.56.26 0 .56.2.56.56v13.123c0 .36-.3.56-.56.56zm-4.46-9.822c-2.36 0-3.88 1.9-3.88 4.5s1.52 4.52 3.88 4.52c2.38 0 3.88-1.92 3.88-4.52s-1.5-4.5-3.88-4.5zm19.14 9.822h-5.802a.61.61 0 0 1-.58-.561v-13.123c0-.34.18-.56.52-.56h5.42c1.98 0 3.6 1.64 3.6 3.56 0 1.182-.52 2.2-1.42 2.86a4.06 4.06 0 0 1 2.38 3.721c0 2.28-1.84 4.102-4.12 4.102zm-.44-13.123h-4.8v4.92h4.8c1.62 0 2.46-1.44 2.46-2.44 0-1.38-1.12-2.48-2.46-2.48zm.44 6.06H1001v5.922h5.24c1.64 0 2.98-1.32 2.98-2.96s-1.34-2.96-2.98-2.96zm16.94 7.063h-.02c-.66 0-1.6-.36-1.98-1.56-.84 1.18-2.14 1.9-3.88 1.9-3.26 0-5.02-2.682-5.02-5.662 0-3.02 1.8-5.64 5.02-5.64 1.74 0 3.04.72 3.88 1.88v-.98c0-.32.26-.56.58-.56.28 0 .56.2.56.56v8.063c0 1.28 1.44.48 1.44 1.44a.55.55 0 0 1-.58.561zm-5.88-9.822c-2.36 0-3.88 1.9-3.88 4.5s1.52 4.52 3.88 4.52c2.38 0 3.88-1.92 3.88-4.52s-1.5-4.5-3.88-4.5zm16.84 9.822c-.28 0-.58-.2-.58-.56v-5.842c0-1.9-1.52-3.42-3.42-3.42a3.42 3.42 0 0 0-3.421 3.42v5.842c0 .36-.3.56-.56.56-.28 0-.58-.2-.58-.56v-9.502c0-.36.3-.56.58-.56.26 0 .56.2.56.56v.64c.9-.98 2.08-1.54 3.42-1.54a4.6 4.6 0 0 1 4.561 4.561v5.842c0 .36-.3.56-.56.56zm10.7-9.644l-3.44 3.44 3.4 5.32c.06.08.12.2.12.32 0 .28-.3.54-.6.54-.18 0-.36-.08-.48-.262l-3.28-5.1-2.06 2.08v2.74c0 .36-.3.56-.56.56-.28 0-.58-.2-.58-.56v-13.123c0-.36.3-.56.58-.56.26 0 .56.2.56.56v8.762l5.52-5.52a.56.56 0 0 1 .42-.18c.32 0 .58.26.58.56a.56.56 0 0 1-.181.42z"/></g><path d="M34.23 900.766h314m35.004 0h314m35.003 0h314" fill="none" stroke="#000" stroke-miterlimit="10"/><linearGradient id="B" gradientUnits="userSpaceOnUse" x1="-64.77" y1="788.766" x2="432.586" y2="291.41"><stop offset="0" stop-color="#ff512f"/><stop offset=".421" stop-color="#f77624"/><stop offset=".781" stop-color="#f28f1c"/><stop offset="1" stop-color="#f09819"/></linearGradient><path d="M348.23 887.766h-314v-710h264c27.614 0 50 22.386 50 50v660z" fill="url(#B)"/><linearGradient id="C" gradientUnits="userSpaceOnUse" x1="318.984" y1="823.516" x2="746.839" y2="395.66"><stop offset="0" stop-color="#ff512f"/><stop offset=".421" stop-color="#f77624"/><stop offset=".781" stop-color="#f28f1c"/><stop offset="1" stop-color="#f09819"/></linearGradient><path d="M697.234 887.766h-314v-571h264c27.614 0 50 22.386 50 50v521z" fill="url(#C)"/><linearGradient id="D" gradientUnits="userSpaceOnUse" x1="713.487" y1="869.016" x2="1050.342" y2="532.16"><stop offset="0" stop-color="#ff512f"/><stop offset=".421" stop-color="#f77624"/><stop offset=".781" stop-color="#f28f1c"/><stop offset="1" stop-color="#f09819"/></linearGradient><path d="M1046.237 887.766h-314v-389h264c27.614 0 50 22.386 50 50v339z" fill="url(#D)"/><g fill="#fff"><path d="M52.2 204.854c.403-4.3 2.726-7.773 7.42-7.773 4.088 0 8.126 2.826 8.126 8.884 0 5.148-2.12 8.076-4.745 8.58v.1c4.088 1.363 5.35 5.2 5.35 9.086 0 7.47-4.34 10.802-8.884 10.802-4.846 0-8.127-3.887-8.177-9.187h3.332c.303 3.937 2.02 6.158 5.25 6.158 2.423 0 4.846-2.625 4.846-7.622 0-6.007-2.523-7.723-8.278-7.723v-3.03c5.452 0 7.672-1.312 7.672-6.965 0-4.342-1.716-6.058-4.24-6.058-3.13 0-4.24 2.625-4.34 5.148l-3.33-.403zm27.563 29.68c-5.653 0-8.985-4.442-8.985-9.7 0-4.492 2.373-7.723 5.855-10.196-3.23-2.574-5.048-5.098-5.048-9.4 0-4.795 3.635-8.177 8.177-8.177s8.177 3.382 8.177 8.177c0 4.3-1.817 6.814-5.048 9.4 3.483 2.474 5.855 5.704 5.855 10.196 0 5.25-3.332 9.7-8.985 9.7zm0-17.97c-2.927 2.17-5.35 4.492-5.35 8.43 0 2.978 1.615 6.512 5.35 6.512s5.35-3.534 5.35-6.512c0-3.937-2.423-6.26-5.35-8.43zm0-16.455c-3.13 0-4.542 2.423-4.542 4.745 0 3.685 1.817 6.4 4.542 8.076 2.726-1.666 4.543-4.392 4.543-8.076 0-2.322-1.414-4.745-4.543-4.745zM94.1 225.55c.303 2.624 1.413 5.956 4.644 5.956 3.13 0 5.452-3.23 5.452-9.54 0-6.814-2.322-8.935-4.997-8.935-2.07 0-3.988 1.564-4.593 3.533l-2.827-.505L93 197.586h12.82l-.303 3.028h-9.6l-.707 11.104c1.262-1.06 2.978-1.716 4.846-1.716 4.24 0 7.773 3.937 7.773 11.86 0 8.33-4.038 12.67-8.884 12.67-5.25 0-7.875-3.937-8.177-8.682l3.332-.303zm307.114 119.23c.403-4.3 2.726-7.773 7.42-7.773 4.1 0 8.127 2.826 8.127 8.884 0 5.148-2.12 8.076-4.745 8.58v.1c4.1 1.363 5.35 5.2 5.35 9.086 0 7.47-4.34 10.802-8.884 10.802-4.846 0-8.127-3.887-8.177-9.187h3.33c.303 3.937 2.02 6.158 5.25 6.158 2.423 0 4.846-2.625 4.846-7.622 0-6.007-2.523-7.723-8.277-7.723v-3.03c5.45 0 7.672-1.312 7.672-6.965 0-4.342-1.716-6.058-4.24-6.058-3.13 0-4.24 2.625-4.34 5.148l-3.33-.403zm21.706 29.174v-3.028h4.442V341.65l-4.543.403v-2.22c2.07-.505 4.088-1.413 5.754-2.826h2.423v33.92h4.24v3.028H422.92zm25.24.506c-5.956 0-8.783-5.553-8.783-18.727s2.827-18.727 8.783-18.727 8.782 5.552 8.782 18.727-2.826 18.727-8.782 18.727zm0-34.425c-3.332 0-5.148 3.735-5.148 15.698s1.816 15.698 5.148 15.698 5.148-3.735 5.148-15.698-1.817-15.698-5.148-15.698zm303.47 215.73v-3.028c3.23-10.802 13.326-16.86 13.326-25.138 0-3.836-1.918-5.754-4.393-5.754-2.877 0-4.996 2.22-5.3 7.673h-3.332c.404-8.278 4.14-10.7 8.53-10.7 4.795 0 8.126 3.23 8.126 9.287 0 9.086-8.177 11.912-13.628 24.633h13.83v3.028h-17.16z"/><use xlink:href="#K"/><use xlink:href="#K" x="19.385"/></g><path d="M732.64 951.16v-3.028c3.23-10.802 13.326-16.86 13.326-25.138 0-3.836-1.918-5.754-4.392-5.754-2.877 0-4.997 2.22-5.3 7.673h-3.332c.404-8.278 4.14-10.7 8.53-10.7 4.795 0 8.126 3.23 8.126 9.287 0 9.086-8.177 11.912-13.628 24.633h13.83v3.028h-17.16zm28.168.504c-5.956 0-8.782-5.553-8.782-18.727s2.826-18.727 8.782-18.727 8.783 5.552 8.783 18.727-2.827 18.727-8.783 18.727zm0-34.425c-3.33 0-5.148 3.735-5.148 15.698s1.817 15.698 5.148 15.698 5.148-3.735 5.148-15.698-1.816-15.698-5.148-15.698zm13.53 33.92v-3.028h4.44v-29.276l-4.543.403v-2.22c2.07-.505 4.1-1.413 5.755-2.826h2.423v33.92h4.24v3.028h-12.315zm29.682-29.68c-.505-3.635-2.523-4.24-3.937-4.24-3.23 0-5.25 4.442-5.35 14.588 1.464-1.565 3.433-2.776 5.603-2.776 4.1 0 7.824 2.928 7.824 11.205 0 7.067-3.03 11.408-7.824 11.408-6.3 0-9.338-3.635-9.338-16.758 0-14.64 3.433-20.695 9.187-20.695 4.694 0 6.46 2.826 7.168 7.066l-3.332.202zm-9.4 17.16c0 7.37 1.92 9.995 5.15 9.995 2.826 0 4.744-2.12 4.744-8.43 0-6.512-2.22-8.127-4.543-8.127s-4.14 1.515-5.35 3.13v3.432z" opacity=".5"/><g opacity=".5"><path d="M34.533 951.16v-3.028h4.442v-29.276l-4.543.403v-2.22c2.07-.505 4.088-1.413 5.754-2.826h2.423v33.92h4.24v3.028H34.533z"/><use xlink:href="#L"/><use xlink:href="#L" x="19.386"/><use xlink:href="#M"/></g><g opacity=".5"><path d="M383.637 951.16v-3.028c3.23-10.802 13.326-16.86 13.326-25.138 0-3.836-1.918-5.754-4.392-5.754-2.877 0-4.997 2.22-5.3 7.673h-3.332c.404-8.278 4.14-10.7 8.53-10.7 4.795 0 8.126 3.23 8.126 9.287 0 9.086-8.177 11.912-13.628 24.633h13.83v3.028h-17.162z"/><use xlink:href="#M" x="313.262"/><use xlink:href="#M" x="332.647"/><path d="M442.397 921.984c.404-4.29 2.726-7.773 7.42-7.773 4.088 0 8.126 2.826 8.126 8.884 0 5.148-2.12 8.076-4.745 8.58v.1c4.088 1.363 5.35 5.2 5.35 9.086 0 7.47-4.34 10.802-8.884 10.802-4.846 0-8.126-3.887-8.177-9.187h3.33c.303 3.937 2.02 6.158 5.25 6.158 2.423 0 4.846-2.625 4.846-7.622 0-6.007-2.524-7.723-8.278-7.723v-3.03c5.45 0 7.672-1.312 7.672-6.965 0-4.342-1.716-6.058-4.24-6.058-3.13 0-4.24 2.625-4.34 5.148l-3.332-.403z"/></g><linearGradient id="E" gradientUnits="userSpaceOnUse" x1="34" y1="118.334" x2="332.359" y2="118.334"><stop offset="0" stop-color="#ff512f"/><stop offset=".421" stop-color="#f77624"/><stop offset=".781" stop-color="#f28f1c"/><stop offset="1" stop-color="#f09819"/></linearGradient><path d="M34 96.426h298.36v43.816H34z" fill="url(#E)"/><g fill="#fff"><path d="M62.26 42.382H39.82V54.5h15.72a2.56 2.56 0 0 1 2.58 2.58c0 1.38-1.02 2.58-2.58 2.58H39.82v17.82a2.58 2.58 0 0 1-2.52 2.52c-1.44 0-2.64-1.14-2.64-2.52V39.862c0-1.44 1.2-2.58 2.64-2.58h24.96c1.56 0 2.52 1.14 2.52 2.52 0 1.26-.9 2.58-2.52 2.58z"/><use xlink:href="#N"/><path d="M136.413 51.562l-9.3 26.34c-.48 1.32-1.32 2.1-2.64 2.1-1.26 0-1.98-.54-2.52-2.1l-7.02-19.8-7.08 19.8c-.48 1.44-1.32 2.1-2.58 2.1-1.2 0-2.04-.66-2.52-2.1l-9.24-26.34c-.12-.36-.12-.6-.12-.96 0-1.5 1.38-2.46 2.64-2.46.96 0 1.92.48 2.34 1.68l6.96 20.04 7.08-19.62c.48-1.38 1.08-2.1 2.52-2.1 1.32 0 2.04.66 2.52 2.1l7.02 19.62 7.02-20.04c.42-1.2 1.38-1.68 2.28-1.68 1.38 0 2.76 1.02 2.76 2.52 0 .3 0 .54-.12.9z"/><use xlink:href="#N" x="75.719"/><use xlink:href="#O"/><path d="M225.932 61.52h-12.84v15.9c0 1.56-1.2 2.58-2.52 2.58-1.44 0-2.64-.96-2.64-2.52V39.862c0-1.08.72-2.58 2.52-2.58h15.54c5.28 0 12.06 4.14 12.06 12.06 0 6.78-5.4 12.18-12.12 12.18zm0-19.14h-12.84v14.04h12.78a6.99 6.99 0 0 0 7.02-7.02c0-3.9-3.12-7.02-6.96-7.02z"/><use xlink:href="#O" x="69.897"/><use xlink:href="#N" x="194.386"/><use xlink:href="#P"/><use xlink:href="#Q"/><path d="M388.278 80c-3.3 0-4.8-2.34-5.34-3.42-2.4 2.64-5.88 4.44-10.56 4.44-9.78 0-15.06-8.04-15.06-16.98s5.4-16.92 15.06-16.92c4.2 0 7.56 1.5 9.9 3.96v-.24c0-.66.24-2.7 2.52-2.7 1.26 0 2.64.66 2.64 2.52v23.16c0 .78.54 1.08.84 1.08 1.68 0 2.58 1.2 2.58 2.58 0 1.26-.9 2.52-2.58 2.52zm-15.9-27.78c-6 0-9.9 4.68-9.9 11.82 0 7.2 3.9 11.88 9.9 11.88 6.06 0 9.9-4.68 9.9-11.88 0-7.14-3.84-11.82-9.9-11.82z"/><use xlink:href="#Q" x="68.278"/><path d="M437.118 80h-1.02c-5.7 0-7.86-3-7.86-7.92V53.24h-1.8c-1.44 0-2.58-1.14-2.58-2.52 0-1.44 1.14-2.58 2.52-2.58h1.8V39.8c0-1.68 1.26-2.52 2.58-2.52s2.52.84 2.52 2.52v8.34h3.84c1.68 0 2.52 1.38 2.52 2.52 0 1.44-.96 2.58-2.52 2.58h-3.84v19.38c0 1.68.6 2.28 2.28 2.28h1.5c1.56 0 2.58 1.14 2.58 2.52 0 1.44-.96 2.58-2.52 2.58zm65.817-39.538l-9.9 37.438c-.3 1.44-1.08 2.1-2.46 2.1-1.26 0-2.16-.66-2.58-2.1l-8.1-28.74-8.04 28.74c-.42 1.44-1.26 2.1-2.52 2.1-1.32 0-2.16-.66-2.52-2.1l-9.9-37.438c-.06-.24-.12-.54-.12-.84 0-1.5 1.38-2.34 2.7-2.34 1.02 0 2.04.6 2.4 1.86l7.56 28.62 7.92-28.38c.42-1.44 1.26-2.1 2.52-2.1 1.32 0 2.16.66 2.58 2.1l7.92 28.38 7.56-28.62c.36-1.32 1.56-1.98 2.46-1.98 1.32 0 2.64.96 2.64 2.46 0 .3-.06.6-.12.84zm16.982 40.558c-9.66 0-15.06-7.92-15.06-16.98 0-9 5.4-16.92 15.06-16.92s15.06 7.92 15.06 16.92c0 9.06-5.4 16.98-15.06 16.98zm0-28.8c-6 0-9.9 4.68-9.9 11.82 0 7.2 3.9 11.88 9.9 11.88 6.06 0 9.9-4.68 9.9-11.88 0-7.14-3.84-11.82-9.9-11.82zM577.875 80c-1.26 0-2.52-.9-2.52-2.52v-18.9c0-3.48-2.88-6.36-6.3-6.36-3.54 0-6.36 2.88-6.36 6.3v18.9c0 1.68-1.2 2.58-2.58 2.58-1.32 0-2.52-.9-2.52-2.52v-18.9c0-3.48-2.88-6.36-6.36-6.36s-6.36 2.88-6.36 6.3v18.9c0 1.68-1.26 2.58-2.64 2.58-1.26 0-2.52-.9-2.52-2.52V50.66c0-1.74 1.32-2.58 2.64-2.58.84 0 1.68.36 2.16 1.14a11.56 11.56 0 0 1 6.66-2.1c3.6 0 6.84 1.62 8.94 4.26 2.1-2.64 5.28-4.26 8.88-4.26 6.36 0 11.52 5.1 11.52 11.4v18.9c0 1.68-1.26 2.58-2.64 2.58z"/><use xlink:href="#R"/><use xlink:href="#Q" x="293.095"/><path d="M697.874 80c-.9 0-1.8-.48-2.28-1.56l-3.18-7.8h-19.98l-3.24 7.8c-.48 1.08-1.38 1.56-2.22 1.56-1.32 0-2.7-1.02-2.7-2.52 0-.36.06-.72.24-1.02l15.42-37.498c.72-1.56 1.68-1.86 2.46-1.86.54 0 1.86.3 2.46 1.86l15.48 37.498c.12.3.18.66.18 1.02 0 1.5-1.26 2.52-2.64 2.52zm-15.48-33.6l-7.86 19.08h15.72l-7.86-19.08zm34.44 5.822c-4.62 0-8.52 3.9-8.52 8.58v16.62c0 1.68-1.26 2.58-2.64 2.58-1.26 0-2.52-.9-2.52-2.52v-26.76c0-1.68 1.38-2.58 2.52-2.58 1.2 0 2.34.66 2.58 2.04a13.88 13.88 0 0 1 8.58-3.06c1.74 0 2.64 1.2 2.64 2.58 0 1.32-.9 2.52-2.64 2.52z"/><use xlink:href="#R" x="133.067"/><path d="M784.083 80h-12.42c-1.38 0-2.64-1.26-2.64-2.52V39.862c0-1.38 1.26-2.58 2.64-2.58h12.42c12.36 0 16.438 10.2 16.438 21.3 0 11.16-4.08 21.42-16.438 21.42zm0-37.62h-9.9V74.9h9.9c7.74 0 11.28-5.7 11.28-16.32 0-10.44-3.54-16.2-11.28-16.2zm47.52 9.362l-16.2 36.838c-1.2 2.76-3.84 4.02-6.6 4.02h-1.92c-1.74 0-2.52-1.26-2.52-2.64 0-1.26.78-2.52 2.52-2.52h1.86c.78 0 1.62-.12 1.98-.96l3.96-8.88-11.7-25.86c-.24-.42-.3-.78-.3-1.14 0-1.5 1.44-2.52 2.76-2.52.9 0 1.68.48 2.16 1.56l9.78 21.72 9.54-21.72c.48-1.08 1.38-1.5 2.22-1.5 1.38 0 2.76 1.02 2.76 2.46 0 .42-.06.72-.3 1.14zm6.24-8.46a4.32 4.32 0 1 1 0-8.64 4.32 4.32 0 1 1 0 8.64zm0 36.72c-1.32 0-2.64-.9-2.64-2.52v-26.76c0-1.68 1.32-2.58 2.64-2.58 1.26 0 2.52.9 2.52 2.58v26.76c0 1.68-1.26 2.52-2.52 2.52z"/><use xlink:href="#Q" x="520.96"/><use xlink:href="#P" x="588.762"/><path d="M62.024 128.04c-.798 0-1.596-.57-1.596-1.634v-17.478l-7.37 13.754c-.494.95-1.216 1.026-1.52 1.026-.2 0-.988-.076-1.52-1.026l-7.333-13.678v17.4c0 1.063-.798 1.634-1.67 1.634-.8 0-1.597-.57-1.597-1.634V102.66c0-1.254.874-1.7 1.748-1.7.57 0 1.026.266 1.368.95l9.005 16.756L60.58 101.9c.38-.76.836-.95 1.482-.95.836 0 1.634.53 1.634 1.7v23.746c0 1.063-.798 1.634-1.672 1.634zm25.042-.04c-2.1 0-3.04-1.48-3.38-2.166-1.52 1.672-3.724 2.812-6.687 2.812-6.193 0-9.536-5.1-9.536-10.752S70.883 107.18 77 107.18c2.66 0 4.787.95 6.27 2.508v-.15c0-.418.15-1.7 1.596-1.7.798 0 1.672.418 1.672 1.596V124.1c0 .493.342.684.53.684 1.064 0 1.634.76 1.634 1.634A1.56 1.56 0 0 1 87.066 128zm-10.068-17.6c-3.8 0-6.27 2.964-6.27 7.485 0 4.56 2.47 7.522 6.27 7.522 3.838 0 6.27-2.963 6.27-7.522 0-4.52-2.432-7.485-6.27-7.485zm20.9 17.6h-.646c-3.6 0-4.977-1.9-4.977-5.016v-11.93h-1.14c-.9 0-1.634-.722-1.634-1.596 0-.912.723-1.634 1.596-1.634h1.14v-5.28c0-1.064.798-1.596 1.634-1.596s1.596.53 1.596 1.596v5.28H97.9c1.063 0 1.596.874 1.596 1.596 0 .912-.608 1.634-1.596 1.634h-2.432v12.272c0 1.063.38 1.443 1.443 1.443h.95c.987 0 1.634.722 1.634 1.596 0 .912-.608 1.634-1.596 1.634z"/><use xlink:href="#S"/><path d="M132.325 110.4c-2.926 0-5.396 2.47-5.396 5.434v10.524c0 1.063-.798 1.634-1.67 1.634-.798 0-1.597-.57-1.597-1.596V109.46c0-1.064.874-1.634 1.597-1.634.76 0 1.48.418 1.634 1.292 1.48-1.216 3.495-1.938 5.433-1.938 1.102 0 1.672.76 1.672 1.634 0 .836-.57 1.596-1.672 1.596zm18.81 17.6c-.836 0-1.596-.57-1.596-1.596v-10.562c0-2.964-2.47-5.434-5.434-5.434-2.926 0-5.396 2.47-5.396 5.434v10.524c0 1.063-.798 1.672-1.67 1.672-.798 0-1.597-.57-1.597-1.634V109.42c0-1.102.8-1.596 1.597-1.596.76 0 1.443.418 1.634 1.254a8.65 8.65 0 0 1 5.433-1.9c4.7 0 8.663 3.914 8.663 8.663v10.524c0 1.063-.76 1.634-1.634 1.634z"/><use xlink:href="#T"/><path d="M183.777 128.077c-2.052 0-3.8-1.748-3.8-3.876v-21.618c0-1.103.798-1.634 1.634-1.634s1.634.53 1.634 1.596V124.2c0 .456.342.646.532.646 1.063 0 1.634.76 1.634 1.634a1.54 1.54 0 0 1-1.634 1.596z"/><use xlink:href="#U"/><use xlink:href="#S" x="117.342"/><use xlink:href="#T" x="83.94"/><path d="M270.567 128h-.646c-3.6 0-4.978-1.9-4.978-5.016v-11.93h-1.14c-.9 0-1.634-.722-1.634-1.596 0-.912.723-1.634 1.596-1.634h1.14v-5.28c0-1.064.798-1.596 1.634-1.596s1.596.53 1.596 1.596v5.28h2.432c1.063 0 1.596.874 1.596 1.596 0 .912-.608 1.634-1.596 1.634h-2.432v12.272c0 1.063.38 1.443 1.443 1.443h.95c.987 0 1.634.722 1.634 1.596 0 .912-.608 1.634-1.596 1.634zm19.95 0c-.836 0-1.596-.57-1.596-1.596v-10.562c0-2.964-2.47-5.434-5.434-5.434-2.926 0-5.396 2.47-5.396 5.434v10.524c0 1.063-.798 1.672-1.67 1.672-.8 0-1.597-.57-1.597-1.634v-23.822c0-1.103.798-1.634 1.597-1.634.873 0 1.67.53 1.67 1.596v6.573c1.406-1.33 3.306-1.938 5.396-1.938 4.7 0 8.663 3.914 8.663 8.663v10.524c0 1.063-.76 1.634-1.634 1.634z"/><use xlink:href="#V"/><path d="M325.518 111.94c-.15 0-.27 0-.45-.12l-3.9-2.25v4.5c0 .57-.45.87-.84.87-.42 0-.87-.3-.87-.87v-4.5l-3.9 2.25c-.12.06-.3.12-.45.12-.45 0-.84-.42-.84-.87 0-.27.15-.54.45-.72l3.9-2.25-3.9-2.25c-.3-.18-.45-.45-.45-.72 0-.45.4-.9.84-.9.15 0 .33.03.45.15l3.9 2.25v-4.53c0-.54.45-.84.87-.84a.83.83 0 0 1 .84.84v4.53l3.9-2.25a.73.73 0 0 1 .45-.15c.5 0 .87.45.87.9 0 .27-.15.54-.45.72l-3.9 2.25 3.9 2.25c.3.18.45.45.45.72a.87.87 0 0 1-.869.87zm26.124 16.706c-3.306 0-5.775-1.367-7.37-3.6v9.84c0 .684-.57 1.102-1.063 1.102-.532 0-1.103-.418-1.103-1.102V108.9c0-.684.57-1.063 1.103-1.063.494 0 1.063.38 1.063 1.063v1.862c1.596-2.204 4.065-3.572 7.37-3.572 6.117 0 9.536 5.016 9.536 10.715 0 5.737-3.42 10.752-9.536 10.752zm0-19.3c-4.52 0-7.37 3.6-7.37 8.55s2.85 8.587 7.37 8.587 7.37-3.647 7.37-8.587-2.85-8.55-7.37-8.55zm28.916 9.65H364.8c.342 4.332 3.153 7.485 7.295 7.485 2.052 0 4.483-.912 5.585-2.622.267-.418.57-.53.912-.53.57 0 1.178.455 1.178 1.025 0 .342 0 .418-.722 1.254-1.748 2.052-4.293 3.04-6.953 3.04-6.117 0-9.536-5.015-9.536-10.752 0-5.7 3.42-10.715 9.536-10.715s9.537 5.054 9.537 10.715c0 .57-.532 1.102-1.064 1.102zm-8.473-9.65c-4.56 0-6.953 3.495-7.295 7.485h14.628c-.342-4.332-3.153-7.485-7.333-7.485z"/><use xlink:href="#W"/><path d="M413.656 128c-.57 0-1.063-.418-1.063-1.063v-22.72l-4.142 4.027c-.19.228-.456.342-.722.342-.608 0-1.14-.57-1.14-1.178 0-.23.15-.494.342-.722l6.003-5.813c.304-.228.608-.304.722-.304.798 0 1.103.57 1.103 1.33v25.04c0 .646-.456 1.063-1.103 1.063z"/><use xlink:href="#X"/><use xlink:href="#X" x="19.607"/><path d="M460.13 131.382c-.152.113-.38.15-.57.15-.607 0-1.025-.53-1.025-1.102 0-1.063 1.634-1.216 1.9-2.432-1.14-.076-2.052-1.025-2.052-2.166 0-1.29 1.063-2.203 2.204-2.203 1.86 0 2.28 1.9 2.28 3.077 0 1.862-.988 3.647-2.735 4.674z"/><use xlink:href="#X" x="48.107"/><use xlink:href="#X" x="67.715"/><use xlink:href="#X" x="87.322"/><use xlink:href="#Y"/><use xlink:href="#Z"/><path d="M570.82 109.307l-7.484 17.82c-.23.494-.57.874-1.064.874s-.874-.38-1.102-.874l-7.485-17.78c-.075-.2-.075-.342-.075-.494 0-.607.53-1.025 1.102-1.025.342 0 .76.15.95.646l6.6 15.616 6.573-15.616c.23-.494.608-.684.988-.684.57 0 1.102.418 1.102 1.025 0 .114 0 .305-.114.494zm18.657 9.69H573.7c.342 4.332 3.153 7.485 7.295 7.485 2.052 0 4.483-.912 5.585-2.622.267-.418.57-.53.912-.53.57 0 1.178.455 1.178 1.025 0 .342 0 .418-.722 1.254-1.748 2.052-4.293 3.04-6.953 3.04-6.117 0-9.536-5.015-9.536-10.752 0-5.7 3.42-10.715 9.536-10.715s9.537 5.054 9.537 10.715c0 .57-.532 1.102-1.064 1.102zm-8.473-9.65c-4.56 0-6.953 3.495-7.295 7.485h14.628c-.342-4.332-3.153-7.485-7.333-7.485zm34.426 19.3c-3.306 0-5.775-1.367-7.37-3.6v1.9c0 .684-.57 1.063-1.063 1.063-.532 0-1.103-.38-1.103-1.063V102.01c0-.684.57-1.063 1.103-1.063.494 0 1.063.38 1.063 1.063v8.74c1.596-2.204 4.065-3.572 7.37-3.572 6.117 0 9.536 5.016 9.536 10.715 0 5.737-3.42 10.752-9.536 10.752zm0-19.3c-4.52 0-7.37 3.6-7.37 8.55s2.85 8.587 7.37 8.587 7.37-3.647 7.37-8.587-2.85-8.55-7.37-8.55z"/><use xlink:href="#Z" x="80.976"/><use xlink:href="#W" x="250.146"/><path d="M657.307 128h-1.178c-3 0-4.483-1.48-4.483-4.445V110h-1.937c-.684 0-1.063-.57-1.063-1.102 0-.494.38-1.063 1.063-1.063h1.938v-5.813c0-.684.57-1.063 1.103-1.063s1.063.38 1.063 1.063v5.813h3.495c.685 0 1.064.57 1.064 1.063 0 .532-.38 1.102-1.064 1.102h-3.495v13.564c0 1.86.532 2.28 2.317 2.28h1.178c.685 0 1.064.57 1.064 1.103 0 .493-.38 1.063-1.064 1.063zm20.023 0c-.53 0-1.102-.38-1.102-1.063v-11.095a6.47 6.47 0 0 0-6.497-6.497c-3.57 0-6.497 2.888-6.497 6.497v11.095c0 .684-.57 1.063-1.063 1.063-.532 0-1.103-.38-1.103-1.063v-24.925c0-.684.57-1.063 1.103-1.063.494 0 1.063.38 1.063 1.063v8.093c1.596-1.86 3.913-2.926 6.497-2.926 4.7 0 8.663 3.914 8.663 8.663v11.095c0 .684-.57 1.063-1.064 1.063zm11.707.722c-2.28 0-6.117-.798-7.447-3-.15-.23-.15-.418-.15-.57 0-.607.53-1.14 1.102-1.14.228 0 .607.2.836.532 1.367 1.67 3.8 2.014 5.66 2.014 3.686 0 5.547-1.216 5.547-3.686 0-5.737-12.462-2.698-12.462-10.297 0-3.837 3.837-5.32 7.295-5.32 1.976 0 5.015.685 6.535 2.204.228.228.342.494.342.722 0 .57-.57 1.14-1.178 1.14-.23 0-.494-.076-.722-.304-1.178-1.14-3.306-1.596-4.978-1.596-3.344 0-5.13 1.292-5.13 3.153 0 5.32 12.462 2.508 12.462 10.297 0 4.33-3.8 5.85-7.713 5.85z"/><use xlink:href="#a"/><path d="M745.922 128.646c-6.117 0-9.536-5.015-9.536-10.752 0-5.7 3.42-10.715 9.536-10.715s9.537 5.016 9.537 10.715c0 5.737-3.42 10.752-9.537 10.752zm0-19.3c-4.483 0-7.37 3.61-7.37 8.55s2.888 8.587 7.37 8.587c4.52 0 7.37-3.647 7.37-8.587s-2.85-8.55-7.37-8.55z"/><use xlink:href="#W" x="373.835"/><use xlink:href="#Y" x="234.607"/><path d="M797.22 128c-.53 0-1.102-.38-1.102-1.063v-1.9c-1.596 2.242-4.065 3.61-7.37 3.61-6.117 0-9.536-5.015-9.536-10.752 0-5.7 3.42-10.715 9.536-10.715 3.306 0 5.775 1.368 7.37 3.572v-8.74c0-.684.57-1.063 1.102-1.063.494 0 1.064.38 1.064 1.063v24.925c0 .684-.57 1.063-1.064 1.063zm-8.473-18.655c-4.483 0-7.37 3.61-7.37 8.55s2.888 8.587 7.37 8.587c4.52 0 7.37-3.647 7.37-8.587s-2.85-8.55-7.37-8.55z"/><use xlink:href="#a" x="93.632"/><use xlink:href="#Z" x="285.412"/><path d="M856.347 128c-.532 0-1.102-.38-1.102-1.063v-1.9c-1.596 2.242-4.065 3.6-7.37 3.6-6.117 0-9.536-5.015-9.536-10.752 0-5.7 3.42-10.715 9.536-10.715 3.306 0 5.775 1.368 7.37 3.572v-8.74c0-.684.57-1.063 1.102-1.063.494 0 1.064.38 1.064 1.063v24.925c0 .684-.57 1.063-1.064 1.063zm-8.473-18.655c-4.483 0-7.37 3.6-7.37 8.55s2.888 8.587 7.37 8.587c4.52 0 7.37-3.647 7.37-8.587s-2.85-8.55-7.37-8.55zm30.55 9.65h-15.768c.342 4.332 3.153 7.485 7.295 7.485 2.052 0 4.483-.912 5.585-2.622.267-.418.57-.53.912-.53.57 0 1.178.455 1.178 1.025 0 .342 0 .418-.722 1.254-1.748 2.052-4.293 3.04-6.953 3.04-6.117 0-9.536-5.015-9.536-10.752 0-5.7 3.42-10.715 9.536-10.715s9.537 5.054 9.537 10.715c0 .57-.532 1.102-1.064 1.102zm-8.473-9.65c-4.56 0-6.953 3.495-7.295 7.485h14.628c-.342-4.332-3.153-7.485-7.333-7.485zm-32.77 98.032c.48-5.1 3.24-9.24 8.82-9.24 4.86 0 9.66 3.36 9.66 10.56 0 6.12-2.52 9.6-5.64 10.2v.12c4.86 1.62 6.36 6.18 6.36 10.8 0 8.88-5.16 12.84-10.56 12.84-5.76 0-9.66-4.62-9.72-10.92h3.96c.36 4.68 2.4 7.32 6.24 7.32 2.88 0 5.76-3.12 5.76-9.06 0-7.14-3-9.18-9.84-9.18v-3.6c6.48 0 9.12-1.56 9.12-8.28 0-5.16-2.04-7.2-5.04-7.2-3.72 0-5.04 3.12-5.16 6.12l-3.96-.48zm28.62 29.04v6l-3.6 8.64h-1.8l2.76-9h-2.4v-5.64h5.04zm6.897 5.64v-3.6h5.28v-34.8l-5.4.48v-2.64c2.46-.6 4.86-1.68 6.84-3.36h2.88v40.318h5.04v3.6h-14.64z"/><use xlink:href="#b"/><use xlink:href="#b" x="23.038"/><path d="M944.634 236.417v6l-3.6 8.64h-1.8l2.76-9h-2.4v-5.64h5.04z"/><use xlink:href="#b" x="55.797"/><use xlink:href="#b" x="80.034"/><use xlink:href="#b" x="104.274"/><path d="M843.6 280.296c-2.052 0-3.8-1.748-3.8-3.876v-21.618c0-1.103.798-1.634 1.634-1.634s1.634.53 1.634 1.596v21.656c0 .456.342.646.532.646 1.063 0 1.634.76 1.634 1.634a1.54 1.54 0 0 1-1.634 1.596zm6.85-23.33c-1.52 0-2.735-1.216-2.735-2.735s1.216-2.735 2.735-2.735 2.735 1.216 2.735 2.735-1.216 2.735-2.735 2.735zm0 23.253c-.836 0-1.672-.57-1.672-1.596V261.68c0-1.064.836-1.634 1.672-1.634a1.56 1.56 0 0 1 1.596 1.634v16.945c0 1.063-.798 1.596-1.596 1.596zm21.885-17.934l-6.915 16.642c-.342.874-.9 1.292-1.634 1.292-.646 0-1.254-.418-1.634-1.292l-6.915-16.642a2.36 2.36 0 0 1-.113-.684c0-.912.836-1.558 1.672-1.558.57 0 1.14.304 1.443.987l5.547 13.3 5.548-13.3c.266-.722.95-1.025 1.48-1.025.874 0 1.672.607 1.672 1.558 0 .2-.038.456-.152.722z"/><use xlink:href="#S" x="772.463" y="152.219"/><path d="M901.7 280.865c-2.1 0-5.585-.646-7.37-2.85-.228-.342-.342-.684-.342-.987 0-.95.912-1.7 1.7-1.7.455 0 .798.23 1.178.646 1.178 1.292 3.115 1.672 4.825 1.672 3.42 0 4.52-1.178 4.52-2.887 0-4.863-11.59-1.862-11.59-9.69 0-4.14 3.876-5.66 7.485-5.66 2.052 0 6.877 1.026 6.877 3.154 0 .836-.685 1.71-1.596 1.71-.342 0-.874-.19-1.254-.493-1.026-.874-2.508-1.14-4.027-1.14-3.153 0-4.256 1.178-4.256 2.432 0 4.52 11.627 1.596 11.627 9.69 0 4.482-3.762 6.116-7.79 6.116z"/><use xlink:href="#V" x="623.24" y="152.219"/><use xlink:href="#T" x="779.15" y="152.22"/><path d="M974.098 262.286l-6.915 16.642c-.342.874-.91 1.292-1.634 1.292-.646 0-1.254-.418-1.634-1.292L957 262.286a2.36 2.36 0 0 1-.113-.684c0-.912.836-1.558 1.672-1.558.57 0 1.14.304 1.443.987l5.547 13.3 5.548-13.3c.266-.722.95-1.025 1.48-1.025.874 0 1.672.607 1.672 1.558 0 .2-.038.456-.152.722z"/><use xlink:href="#S" x="873.465" y="152.219"/><use xlink:href="#U" x="799.709" y="152.22"/></g><g opacity=".6"><path d="M407.905 991.117c-.12 0-.216 0-.36-.097l-3.12-1.8v3.6c0 .456-.36.695-.672.695-.336 0-.696-.24-.696-.695v-3.6l-3.12 1.8c-.096.048-.24.097-.36.097a.71.71 0 0 1-.672-.696c0-.216.12-.433.36-.576l3.12-1.8-3.12-1.8c-.24-.144-.36-.36-.36-.576 0-.36.312-.72.672-.72.12 0 .264.024.36.12l3.12 1.8v-3.624c0-.432.36-.672.696-.672a.67.67 0 0 1 .672.672v3.624l3.12-1.8c.144-.096.24-.12.36-.12.408 0 .696.36.696.72 0 .217-.12.433-.36.576l-3.12 1.8 3.12 1.8c.24.144.36.36.36.576 0 .36-.288.696-.696.696z"/><use xlink:href="#c"/><path d="M438.96 995.077H429c.216 2.736 1.992 4.73 4.608 4.73 1.296 0 2.832-.576 3.528-1.656.168-.264.36-.336.576-.336.36 0 .744.288.744.647 0 .217 0 .265-.456.793-1.104 1.296-2.712 1.92-4.392 1.92-3.864 0-6.024-3.168-6.024-6.793 0-3.6 2.16-6.77 6.024-6.77s6.024 3.192 6.024 6.77a.73.73 0 0 1-.672.696zm-5.353-6.097c-2.88 0-4.393 2.208-4.608 4.73h9.24c-.216-2.736-1.992-4.73-4.632-4.73z"/><use xlink:href="#d"/><path d="M461.327 1000.766h-.744c-1.896 0-2.832-.937-2.832-2.8v-8.568h-1.224c-.432 0-.672-.36-.672-.696a.67.67 0 0 1 .672-.672h1.224v-3.672c0-.433.36-.673.696-.673s.672.24.672.673v3.672h2.208c.432 0 .672.36.672.672 0 .336-.24.696-.672.696h-2.208v8.568c0 1.177.336 1.44 1.464 1.44h.744c.432 0 .672.36.672.696 0 .312-.24.672-.672.672zm12.65 0c-.336 0-.696-.24-.696-.672v-7c0-2.28-1.824-4.104-4.104-4.104-2.256 0-4.104 1.824-4.104 4.104v7c0 .432-.36.672-.672.672-.336 0-.696-.24-.696-.672V984.35c0-.433.36-.673.696-.673.312 0 .672.24.672.673v5.112c1.008-1.177 2.472-1.85 4.104-1.85a5.52 5.52 0 0 1 5.472 5.473v7c0 .432-.36.672-.672.672z"/><use xlink:href="#e"/><path d="M503.447 999.35c-1.056 1.176-2.52 1.824-4.296 1.824-3.864 0-6.024-3.168-6.024-6.793 0-3.6 2.16-6.77 6.024-6.77 1.776 0 3.24.648 4.296 1.824.144.145.192.313.192.456 0 .36-.336.72-.696.72-.168 0-.336-.07-.504-.24-.792-.89-1.896-1.393-3.288-1.393-2.833 0-4.656 2.28-4.656 5.4s1.824 5.425 4.656 5.425c1.392 0 2.496-.528 3.288-1.393.168-.168.336-.24.504-.24.36 0 .696.312.696.695 0 .168-.048.313-.192.48z"/><use xlink:href="#d" x="64.031"/><path d="M531.022 1000.766c-.336 0-.696-.24-.696-.672v-.77c-1.008 1.177-2.472 1.85-4.104 1.85-2.976 0-5.472-2.496-5.472-5.473v-7.01c0-.432.36-.672.696-.672a.67.67 0 0 1 .672.672v7.01c0 2.28 1.824 4.104 4.104 4.104s4.104-1.824 4.104-4.104v-7.01c0-.432.36-.672.696-.672.312 0 .672.24.672.672v11.4c0 .432-.36.672-.672.672z"/><use xlink:href="#e" x="57.263"/><path d="M556.366 995.077h-9.96c.216 2.736 1.992 4.73 4.608 4.73 1.296 0 2.832-.576 3.528-1.656.168-.264.36-.336.576-.336.36 0 .744.288.744.647 0 .217 0 .265-.456.793-1.104 1.296-2.712 1.92-4.392 1.92-3.864 0-6.024-3.168-6.024-6.793 0-3.6 2.16-6.77 6.024-6.77s6.024 3.192 6.024 6.77a.73.73 0 0 1-.672.696zm-5.353-6.097c-2.88 0-4.393 2.208-4.608 4.73h9.24c-.216-2.736-1.992-4.73-4.632-4.73z"/><use xlink:href="#c" x="145.701"/><path d="M584.71 1001.174c-3.864 0-6.024-3.168-6.024-6.793 0-3.6 2.16-6.77 6.024-6.77s6.024 3.17 6.024 6.77c0 3.625-2.16 6.793-6.024 6.793zm0-12.193c-2.832 0-4.656 2.28-4.656 5.4s1.824 5.425 4.656 5.425c2.855 0 4.656-2.305 4.656-5.425s-1.8-5.4-4.656-5.4z"/><use xlink:href="#f"/><path d="M616.773 995.077h-9.96c.215 2.736 1.992 4.73 4.607 4.73 1.297 0 2.832-.576 3.53-1.656.168-.264.36-.336.576-.336.36 0 .743.288.743.647 0 .217 0 .265-.456.793-1.104 1.296-2.712 1.92-4.393 1.92-3.863 0-6.023-3.168-6.023-6.793 0-3.6 2.16-6.77 6.023-6.77s6.025 3.192 6.025 6.77a.73.73 0 0 1-.672.696zm-5.354-6.097c-2.88 0-4.393 2.208-4.607 4.73h9.24c-.216-2.736-1.992-4.73-4.633-4.73zm17.545 11.82c-.192 0-.36-.072-.505-.265l-4.248-5.376-4.248 5.376c-.145.192-.312.265-.504.265-.385 0-.72-.288-.72-.673 0-.168.024-.312.145-.48l4.44-5.593-3.888-4.896c-.12-.168-.168-.336-.168-.48 0-.385.36-.673.743-.673.192 0 .36.072.505.265l3.695 4.68 3.72-4.68a.53.53 0 0 1 .48-.265c.384 0 .744.288.744.673 0 .144-.05.288-.168.432l-3.913 4.944 4.465 5.593c.144.168.192.312.192.48 0 .385-.385.673-.77.673zm15.096-.034h-.024c-.792 0-1.92-.432-2.376-1.872-1.008 1.416-2.568 2.28-4.656 2.28-3.913 0-6.025-3.217-6.025-6.793 0-3.624 2.16-6.77 6.025-6.77 2.088 0 3.648.864 4.656 2.257v-1.177c0-.384.312-.672.695-.672.336 0 .672.24.672.672v9.673c0 1.536 1.73.576 1.73 1.73a.66.66 0 0 1-.695.672zm-7.057-11.785c-2.833 0-4.656 2.28-4.656 5.4s1.823 5.425 4.656 5.425c2.855 0 4.656-2.305 4.656-5.425s-1.8-5.4-4.656-5.4zm19.224 10.37c-1.056 1.176-2.52 1.824-4.296 1.824-3.865 0-6.025-3.168-6.025-6.793 0-3.6 2.16-6.77 6.025-6.77 1.775 0 3.24.648 4.296 1.824a.64.64 0 0 1 .192.456c0 .36-.336.72-.696.72-.17 0-.337-.07-.505-.24-.8-.9-1.896-1.393-3.287-1.393-2.833 0-4.656 2.28-4.656 5.4s1.823 5.425 4.656 5.425c1.392 0 2.496-.528 3.287-1.393.168-.168.336-.24.505-.24.36 0 .696.312.696.695a.69.69 0 0 1-.192.48zm13.416-4.273h-9.96c.216 2.736 1.992 4.73 4.608 4.73 1.296 0 2.832-.576 3.528-1.656.168-.264.36-.336.576-.336.36 0 .743.288.743.647 0 .217 0 .265-.455.793-1.104 1.296-2.713 1.92-4.393 1.92-3.864 0-6.024-3.168-6.024-6.793 0-3.6 2.16-6.77 6.024-6.77s6.024 3.192 6.024 6.77a.73.73 0 0 1-.672.696zm-5.353-6.097c-2.88 0-4.393 2.208-4.608 4.73h9.24c-.217-2.736-1.992-4.73-4.633-4.73z"/><use xlink:href="#f" x="79.582"/><use xlink:href="#g"/><use xlink:href="#h"/><path d="M713.874 1000.766h-.744c-1.896 0-2.832-.937-2.832-2.81v-8.568h-1.224c-.433 0-.673-.36-.673-.696a.67.67 0 0 1 .673-.672h1.224v-3.672c0-.433.36-.673.696-.673s.672.24.672.673v3.672h2.208c.433 0 .672.36.672.672 0 .336-.24.696-.672.696h-2.208v8.568c0 1.177.336 1.44 1.464 1.44h.744c.433 0 .672.36.672.696 0 .312-.24.672-.672.672z"/><use xlink:href="#i"/><path d="M740.945 1000.766c-.336 0-.695-.24-.695-.672v-1.2c-1.008 1.416-2.568 2.28-4.656 2.28-3.865 0-6.025-3.168-6.025-6.793 0-3.6 2.16-6.77 6.025-6.77 2.088 0 3.648.864 4.656 2.257v-5.52c0-.433.36-.673.695-.673.313 0 .672.24.672.673v15.745c0 .432-.36.672-.672.672zm-5.352-11.785c-2.833 0-4.656 2.28-4.656 5.4s1.823 5.425 4.656 5.425c2.855 0 4.656-2.305 4.656-5.425s-1.8-5.4-4.656-5.4z"/><use xlink:href="#g" x="69.816"/><path d="M774.713 988.98l-6.504 15.386c-.48 1.128-1.465 1.44-2.568 1.44h-1.057c-.432 0-.672-.36-.672-.695a.67.67 0 0 1 .672-.673h1.057c.527 0 1.08-.023 1.296-.575l1.368-3.265-4.97-11.617c-.048-.12-.048-.216-.048-.312 0-.385.336-.648.696-.648.216 0 .48.096.6.408l4.465 10.417 4.416-10.417c.12-.312.385-.408.624-.408.36 0 .673.264.673.648a.75.75 0 0 1-.049.312zm13.344 12.194c-2.088 0-3.648-.864-4.656-2.28v6.217a.69.69 0 0 1-.672.695c-.336 0-.696-.264-.696-.695v-16.418c0-.432.36-.672.696-.672.313 0 .672.24.672.672v1.177c1.008-1.393 2.568-2.257 4.656-2.257 3.865 0 6.025 3.17 6.025 6.77 0 3.625-2.16 6.793-6.025 6.793zm0-12.193c-2.855 0-4.656 2.28-4.656 5.4s1.8 5.425 4.656 5.425 4.656-2.305 4.656-5.425-1.8-5.4-4.656-5.4z"/><use xlink:href="#j"/><use xlink:href="#i" x="87.09"/><path d="M822.684 1006.238c-2.04 0-4.92-.77-4.92-1.633 0-.384.312-.768.696-.768.264 0 .816.408 1.27.576.625.216 1.608.456 2.953.456 3.072 0 4.656-1.513 4.656-4.465v-1.68c-1.057 1.272-2.568 2.04-4.656 2.04-3.793 0-6.025-2.688-6.025-6.385 0-3.6 2.16-6.77 6.025-6.77 2.088 0 3.648.864 4.656 2.257v-1.152c0-.433.36-.672.695-.672.313 0 .672.24.672.672v11.688c0 3.816-2.28 5.833-6.023 5.833zm0-17.258c-2.833 0-4.656 2.28-4.656 5.4 0 3.097 1.703 5.017 4.656 5.017s4.656-1.92 4.656-5.017c0-3.12-1.8-5.4-4.656-5.4zm19.223 11.786c-.336 0-.696-.24-.696-.672v-7c0-2.28-1.824-4.104-4.104-4.104-2.257 0-4.105 1.824-4.105 4.104v7c0 .432-.36.672-.672.672-.336 0-.695-.24-.695-.672v-11.4c0-.432.36-.672.695-.672.313 0 .672.24.672.672v.77c1.08-1.177 2.496-1.85 4.105-1.85a5.52 5.52 0 0 1 5.472 5.473v7c0 .432-.36.672-.672.672z"/><use xlink:href="#h" x="150.737"/><use xlink:href="#k"/><path d="M883.643 999.35c-1.056 1.176-2.52 1.824-4.296 1.824-3.864 0-6.024-3.168-6.024-6.793 0-3.6 2.16-6.77 6.024-6.77 1.776 0 3.24.648 4.296 1.824.145.145.192.313.192.456 0 .36-.336.72-.696.72-.168 0-.336-.07-.504-.24-.792-.9-1.896-1.393-3.288-1.393-2.833 0-4.656 2.28-4.656 5.4s1.823 5.425 4.656 5.425c1.392 0 2.496-.528 3.288-1.393.168-.168.336-.24.504-.24.36 0 .696.312.696.695 0 .168-.048.313-.192.48zm12.937-10.37l-6.505 15.386c-.48 1.128-1.464 1.44-2.568 1.44h-1.056c-.433 0-.673-.36-.673-.695a.67.67 0 0 1 .673-.673h1.056c.528 0 1.08-.023 1.297-.575l1.367-3.265-4.968-11.617c-.048-.12-.048-.216-.048-.312 0-.385.336-.648.695-.648.217 0 .48.096.6.408l4.464 10.417 4.416-10.417c.12-.312.385-.408.625-.408.36 0 .672.264.672.648 0 .096 0 .2-.048.312z"/><use xlink:href="#h" x="209.344"/><use xlink:href="#k" x="58.598"/><path d="M943.307 1000.766c-.336 0-.696-.24-.696-.672v-1.2c-1.008 1.416-2.568 2.28-4.656 2.28-3.864 0-6.024-3.168-6.024-6.793 0-3.6 2.16-6.77 6.024-6.77 2.088 0 3.648.864 4.656 2.257v-5.52c0-.433.36-.673.696-.673.313 0 .672.24.672.673v15.745c0 .432-.36.672-.672.672zm-5.353-11.785c-2.833 0-4.656 2.28-4.656 5.4s1.823 5.425 4.656 5.425c2.856 0 4.656-2.305 4.656-5.425s-1.8-5.4-4.656-5.4zm24.12 10.37c-1.057 1.176-2.52 1.824-4.297 1.824-3.863 0-6.023-3.168-6.023-6.793 0-3.6 2.16-6.77 6.023-6.77 1.776 0 3.24.648 4.297 1.824a.63.63 0 0 1 .19.456c0 .36-.336.72-.695.72-.168 0-.336-.07-.504-.24-.793-.9-1.896-1.393-3.3-1.393-2.832 0-4.656 2.28-4.656 5.4s1.824 5.425 4.656 5.425c1.393 0 2.496-.528 3.3-1.393.168-.168.336-.24.504-.24.36 0 .695.312.695.695 0 .168-.047.313-.2.48zm12.863 1.416c-.336 0-.695-.24-.695-.672v-7c0-2.28-1.824-4.104-4.104-4.104-2.257 0-4.104 1.824-4.104 4.104v7c0 .432-.36.672-.672.672-.336 0-.696-.24-.696-.672V984.35c0-.433.36-.673.696-.673.313 0 .672.24.672.673v5.112c1.008-1.177 2.473-1.85 4.104-1.85a5.52 5.52 0 0 1 5.472 5.473v7c0 .432-.36.672-.672.672zm4.08-15.05a1.368 1.368 0 1 1 0-2.736 1.368 1.368 0 1 1 0 2.736zm0 15.05c-.336 0-.696-.216-.696-.672v-11.4c0-.432.336-.672.696-.672.313 0 .672.216.672.672v11.4a.64.64 0 0 1-.672.672zm5.976.143c-1.297 0-2.377-1.2-2.377-2.544V984.35c0-.433.36-.673.696-.673a.67.67 0 0 1 .672.673v14.017c0 1.536 1.704.648 1.704 1.73 0 .408-.288.815-.695.815zm13.224-.144c-.336 0-.696-.24-.696-.672v-1.2c-1.008 1.416-2.568 2.28-4.656 2.28-3.864 0-6.024-3.168-6.024-6.793 0-3.6 2.16-6.77 6.024-6.77 2.088 0 3.648.864 4.656 2.257v-5.52c0-.433.36-.673.696-.673a.67.67 0 0 1 .672.673v15.745c0 .432-.36.672-.672.672zm-5.353-11.785c-2.832 0-4.656 2.28-4.656 5.4s1.824 5.425 4.656 5.425c2.855 0 4.656-2.305 4.656-5.425s-1.8-5.4-4.656-5.4zm14.975 12.193c-2.088 0-3.647-.864-4.656-2.28v1.2c0 .432-.36.672-.672.672-.336 0-.696-.24-.696-.672V984.35c0-.433.36-.673.696-.673a.67.67 0 0 1 .672.673v5.52c1-1.393 2.568-2.257 4.656-2.257 3.864 0 6.024 3.17 6.024 6.77 0 3.625-2.16 6.793-6.024 6.793zm0-12.193c-2.856 0-4.656 2.28-4.656 5.4s1.8 5.425 4.656 5.425 4.657-2.305 4.657-5.425-1.8-5.4-4.657-5.4zm9.096-3.264a1.368 1.368 0 1 1 0-2.736 1.368 1.368 0 1 1 0 2.736zm0 15.05c-.336 0-.696-.216-.696-.672v-11.4c0-.432.336-.672.696-.672.312 0 .672.216.672.672v11.4a.64.64 0 0 1-.672.672z"/><use xlink:href="#j" x="224.08"/><path d="M1032.37 1000.766h-.744c-1.896 0-2.832-.937-2.832-2.8v-8.568h-1.225c-.432 0-.672-.36-.672-.696 0-.312.24-.672.672-.672h1.225v-3.672c0-.433.36-.673.695-.673s.672.24.672.673v3.672h2.2c.432 0 .672.36.672.672 0 .336-.24.696-.672.696h-2.2v8.568c0 1.177.336 1.44 1.465 1.44h.744c.432 0 .672.36.672.696 0 .312-.24.672-.672.672zm12.647 0c-.336 0-.696-.24-.696-.672v-7c0-2.28-1.824-4.104-4.104-4.104-2.256 0-4.104 1.824-4.104 4.104v7c0 .432-.36.672-.672.672-.336 0-.696-.24-.696-.672V984.35c0-.433.36-.673.696-.673a.67.67 0 0 1 .672.673v5.112c1-1.177 2.472-1.85 4.104-1.85a5.52 5.52 0 0 1 5.473 5.473v7c0 .432-.36.672-.672.672z"/></g><g opacity=".7"><path d="M383.233 177.766h622.102c16.5 0 30 13.5 30 30v241.65" fill="none" stroke="#fff" stroke-width="2" stroke-miterlimit="10" stroke-dasharray="3,5"/><path d="M1025.364 446.496l9.97 17.27 9.973-17.27z" fill="#fff"/></g><defs ><path id="G" d="M104.714 1045.51c-.633 0-1.267-.367-1.4-1.1-1.334 1.034-2.97 1.668-4.804 1.668-4.136 0-7.604-3.436-7.604-7.605v-9.24a1.37 1.37 0 0 1 1.4-1.435c.768 0 1.468.5 1.468 1.4v9.272c0 2.602 2.168 4.77 4.736 4.77 2.603 0 4.77-2.17 4.77-4.77v-9.24c0-1.034.667-1.468 1.4-1.468.768 0 1.435.5 1.435 1.435v14.9c0 .934-.667 1.4-1.4 1.4z"/><path id="H" d="M788.68 1046.357c-1.2 0-3.22-.42-3.92-1.58-.08-.12-.08-.22-.08-.3 0-.32.28-.602.58-.602.12 0 .32.102.44.28.72.88 2 1.06 2.98 1.06 1.94 0 2.92-.64 2.92-1.94 0-3.02-6.562-1.42-6.562-5.422 0-2.02 2.02-2.8 3.84-2.8 1.04 0 2.64.36 3.44 1.16.12.12.18.26.18.38a.65.65 0 0 1-.62.6c-.12 0-.26-.04-.38-.16-.62-.6-1.74-.84-2.62-.84-1.76 0-2.7.682-2.7 1.66 0 2.8 6.562 1.32 6.562 5.422 0 2.28-2 3.08-4.06 3.08z"/><path id="I" d="M799.4 1046.318c-3.22 0-5.02-2.64-5.02-5.662 0-3 1.8-5.64 5.02-5.64s5.02 2.64 5.02 5.64c0 3.02-1.8 5.662-5.02 5.662zm0-10.162c-2.36 0-3.88 1.9-3.88 4.5s1.52 4.52 3.88 4.52c2.38 0 3.88-1.92 3.88-4.52s-1.5-4.5-3.88-4.5z"/><path id="J" d="M823.14 1036.336a3.42 3.42 0 0 0-3.421 3.42v5.662c0 .36-.3.56-.56.56-.28 0-.58-.2-.58-.56v-9.502c0-.36.3-.56.58-.56.26 0 .56.2.56.56v.82c.9-.98 2.08-1.54 3.42-1.54.36 0 .58.3.58.56a.58.58 0 0 1-.58.58z"/><path id="K" d="M773.943 555.766v-3.028h4.442V523.46l-4.543.403v-2.22c2.07-.505 4.09-1.413 5.755-2.826h2.422v33.92h4.24v3.028h-12.316z"/><path id="L" d="M55.33 944.396c.505 3.634 2.524 4.24 3.938 4.24 3.23 0 5.25-4.442 5.35-14.588-1.464 1.564-3.432 2.776-5.603 2.776-4.09 0-7.824-2.928-7.824-11.206 0-7.066 3.028-11.407 7.824-11.407 6.31 0 9.338 3.634 9.338 16.758 0 14.638-3.432 20.695-9.187 20.695-4.694 0-6.46-2.827-7.167-7.066l3.33-.202zm9.39-17.162c0-7.37-1.918-9.994-5.148-9.994-2.827 0-4.745 2.12-4.745 8.43 0 6.51 2.22 8.126 4.543 8.126s4.14-1.514 5.35-3.13v-3.433z"/><path id="M" d="M98.543 951.664c-5.956 0-8.783-5.553-8.783-18.727s2.827-18.727 8.783-18.727 8.783 5.552 8.783 18.727-2.827 18.727-8.783 18.727zm0-34.425c-3.33 0-5.148 3.735-5.148 15.698s1.817 15.698 5.148 15.698 5.148-3.735 5.148-15.698-1.817-15.698-5.148-15.698z"/><path id="N" d="M89.914 66.68h-22.2c.84 5.64 4.44 9.24 9.72 9.24 2.7 0 5.4-.96 7.14-3.12.54-.6 1.14-.96 1.86-.96 1.32 0 2.7 1.2 2.7 2.64 0 .72-.18 1.26-1.44 2.52-2.7 2.64-6.42 4.02-10.26 4.02-9.66 0-15.06-7.98-15.06-16.98 0-8.94 5.4-16.92 15.06-16.92 9.78 0 15 7.98 15 16.92 0 1.32-.96 2.64-2.52 2.64zm-12.48-14.46c-5.64 0-8.94 4.14-9.72 9.3h19.44c-.84-5.76-4.44-9.3-9.72-9.3z"/><path id="O" d="M185.913 52.222c-4.62 0-8.52 3.9-8.52 8.58v16.62c0 1.68-1.26 2.58-2.64 2.58-1.26 0-2.52-.9-2.52-2.52v-26.76c0-1.68 1.38-2.58 2.52-2.58 1.2 0 2.34.66 2.58 2.04a13.88 13.88 0 0 1 8.58-3.06c1.74 0 2.64 1.2 2.64 2.58 0 1.32-.9 2.52-2.64 2.52z"/><path id="P" d="M304.58 93.68c-3.66 0-12.72-1.32-12.72-4.92 0-1.38 1.26-2.7 2.58-2.7 1.38 0 .18.18 3.36 1.38 1.44.54 3.6 1.14 6.78 1.14 6.66 0 9.9-3.18 9.9-9.48v-2.7c-2.34 2.22-5.7 3.6-9.9 3.6-9.48 0-15.06-6.72-15.06-15.96 0-9 5.4-16.92 15.06-16.92 4.2 0 7.44 1.26 9.9 3.84v-.24c0-1.68 1.38-2.58 2.58-2.58 1.26 0 2.58.9 2.58 2.58V79.1c0 9.54-5.7 14.58-15.06 14.58zm0-41.458c-6 0-9.9 4.68-9.9 11.82 0 6.84 3.6 10.86 9.9 10.86s9.9-4.02 9.9-10.86c0-7.14-3.84-11.82-9.9-11.82z"/><path id="Q" d="M350.54 80c-1.32 0-2.52-.9-2.52-2.52V60.8c0-4.68-3.9-8.58-8.58-8.58-4.62 0-8.52 3.9-8.52 8.58v16.62c0 1.68-1.26 2.64-2.64 2.64-1.26 0-2.52-.9-2.52-2.58v-26.82c0-1.74 1.26-2.52 2.52-2.52 1.2 0 2.28.66 2.58 1.98 2.34-1.86 5.28-3 8.58-3 7.44 0 13.68 6.18 13.68 13.68v16.62c0 1.68-1.2 2.58-2.58 2.58z"/><path id="R" d="M612.256 66.68h-22.2c.84 5.64 4.44 9.24 9.72 9.24 2.7 0 5.4-.96 7.14-3.12.54-.6 1.14-.96 1.86-.96 1.32 0 2.7 1.2 2.7 2.64 0 .72-.18 1.26-1.44 2.52-2.7 2.64-6.42 4.02-10.26 4.02-9.66 0-15.06-7.98-15.06-16.98 0-8.94 5.4-16.92 15.06-16.92 9.78 0 15 7.98 15 16.92 0 1.32-.96 2.64-2.52 2.64zm-12.48-14.46c-5.64 0-8.94 4.14-9.72 9.3h19.438c-.84-5.76-4.44-9.3-9.72-9.3z"/><path id="S" d="M118.72 119.566h-14.06c.532 3.57 2.812 5.85 6.155 5.85 1.7 0 3.42-.607 4.52-1.976.342-.38.722-.607 1.178-.607.836 0 1.7.76 1.7 1.672 0 .456-.114.798-.912 1.596-1.7 1.672-4.065 2.545-6.497 2.545-6.117 0-9.536-5.053-9.536-10.752 0-5.66 3.42-10.715 9.536-10.715 6.193 0 9.5 5.054 9.5 10.715 0 .836-.608 1.672-1.596 1.672zm-7.903-9.157c-3.57 0-5.66 2.622-6.155 5.9h12.31c-.532-3.647-2.812-5.9-6.155-5.9z"/><path id="T" d="M175.795 128c-2.1 0-3.04-1.48-3.38-2.166-1.52 1.672-3.724 2.812-6.687 2.812-6.193 0-9.536-5.09-9.536-10.752s3.42-10.715 9.536-10.715c2.66 0 4.787.95 6.27 2.508v-.15c0-.418.15-1.7 1.596-1.7.798 0 1.672.418 1.672 1.596v14.666c0 .493.342.684.53.684 1.064 0 1.634.76 1.634 1.634a1.56 1.56 0 0 1-1.634 1.596zm-10.068-17.592c-3.8 0-6.27 2.964-6.27 7.485 0 4.56 2.47 7.522 6.27 7.522 3.838 0 6.27-2.963 6.27-7.522 0-4.52-2.432-7.485-6.27-7.485z"/><path id="U" d="M213.225 127.962c-.836 0-1.634-.532-1.634-1.596 0 0-2.242 2.28-6.27 2.28-6.117 0-9.536-5.015-9.536-10.752 0-5.7 3.42-10.715 9.536-10.715 2.66 0 4.787.912 6.27 2.47v-7.066c0-1.103.798-1.634 1.634-1.634s1.634.53 1.634 1.596v23.822c0 1.063-.798 1.596-1.634 1.596zm-7.903-17.554c-3.8 0-6.27 2.964-6.27 7.485 0 4.56 2.47 7.522 6.27 7.522 3.838 0 6.27-2.963 6.27-7.522 0-4.52-2.432-7.485-6.27-7.485z"/><path id="V" d="M302.79 128.646c-2.1 0-5.585-.646-7.37-2.85-.228-.342-.342-.684-.342-.987 0-.95.912-1.7 1.7-1.7.456 0 .798.23 1.178.646 1.178 1.292 3.115 1.672 4.825 1.672 3.42 0 4.52-1.178 4.52-2.887 0-4.863-11.59-1.862-11.59-9.69 0-4.14 3.876-5.66 7.485-5.66 2.052 0 6.877 1.026 6.877 3.154 0 .836-.684 1.71-1.596 1.71-.342 0-.874-.19-1.254-.493-1.026-.874-2.508-1.14-4.027-1.14-3.153 0-4.256 1.178-4.256 2.432 0 4.52 11.627 1.596 11.627 9.69 0 4.482-3.762 6.116-7.79 6.116z"/><path id="W" d="M394.05 109.687c-3.57 0-6.497 2.888-6.497 6.497v10.753c0 .684-.57 1.063-1.063 1.063-.532 0-1.103-.38-1.103-1.063V108.89c0-.684.57-1.063 1.103-1.063.494 0 1.063.38 1.063 1.063v1.558c1.7-1.86 3.95-2.925 6.497-2.925.684 0 1.102.57 1.102 1.063 0 .532-.418 1.102-1.102 1.102z"/><path id="X" d="M426.88 128.646c-8.055 0-8.13-9.65-8.13-15.197 0-5.434.836-13.185 8.093-13.185 7.105 0 8.17 7.295 8.17 13.185 0 5.51-.114 15.197-8.13 15.197zm5.965-15.197c0-5.434-.76-11.02-5.965-11.02-5.7 0-5.965 6.99-5.965 11.02v2.432c0 4.407.836 10.6 5.927 10.6 5.205 0 6.003-6.193 6.003-10.6v-2.432z"/><path id="Y" d="M541.676 128.228c-2.052 0-3.762-1.9-3.762-4.027v-22.188c0-.684.57-1.063 1.103-1.063.494 0 1.063.38 1.063 1.063V124.2c0 2.432 2.697 1.026 2.697 2.736 0 .645-.455 1.29-1.102 1.29z"/><path id="Z" d="M548.098 104.178a2.14 2.14 0 1 1 0-4.332 2.14 2.14 0 0 1 0 4.332zm0 23.822c-.532 0-1.103-.342-1.103-1.063V108.89c0-.684.532-1.063 1.103-1.063.494 0 1.063.342 1.063 1.063v18.048c0 .684-.494 1.063-1.063 1.063z"/><path id="a" d="M735.81 109.23l-6.193 17.857c-.266.722-.607.912-1.102.912-.646 0-.836-.228-1.064-.912l-4.977-14.817-4.978 14.817c-.266.722-.608.912-1.102.912s-.874-.304-1.064-.912l-6.154-17.857c-.038-.113-.076-.304-.076-.418 0-.607.607-.987 1.102-.987.38 0 .836.19.988.722l5.205 15.046 4.977-14.855c.23-.723.456-.912 1.103-.912.456 0 .836.15 1.063.912l5.054 14.855 5.13-15.046c.19-.532.57-.722.987-.722.57 0 1.18.38 1.18 1.025 0 .152-.038.267-.076.38z"/><path id="b" d="M902.696 242.657c-7.08 0-10.44-6.6-10.44-22.26s3.36-22.26 10.44-22.26 10.44 6.6 10.44 22.26-3.36 22.26-10.44 22.26zm0-40.918c-3.96 0-6.12 4.44-6.12 18.66s2.16 18.66 6.12 18.66 6.12-4.44 6.12-18.66-2.16-18.66-6.12-18.66z"/><path id="c" d="M424.537 1000.766c-.336 0-.696-.24-.696-.672v-1.2c-1.008 1.416-2.568 2.28-4.656 2.28-3.864 0-6.024-3.168-6.024-6.793 0-3.6 2.16-6.77 6.024-6.77 2.088 0 3.648.864 4.656 2.257v-5.52c0-.433.36-.673.696-.673.312 0 .672.24.672.673v15.745c0 .432-.36.672-.672.672zm-5.353-11.785c-2.833 0-4.656 2.28-4.656 5.4s1.824 5.425 4.656 5.425c2.856 0 4.656-2.305 4.656-5.425s-1.8-5.4-4.656-5.4z"/><path id="d" d="M454.536 1000.766h-.024c-.792 0-1.92-.432-2.376-1.872-1.008 1.416-2.568 2.28-4.656 2.28-3.913 0-6.024-3.217-6.024-6.793 0-3.624 2.16-6.77 6.024-6.77 2.088 0 3.648.864 4.656 2.257v-1.177c0-.384.312-.672.696-.672.336 0 .672.24.672.672v9.673c0 1.536 1.728.576 1.728 1.73a.66.66 0 0 1-.696.672zm-7.057-11.785c-2.833 0-4.656 2.28-4.656 5.4s1.824 5.425 4.656 5.425c2.856 0 4.656-2.305 4.656-5.425s-1.8-5.4-4.656-5.4z"/><path id="e" d="M481.367 1001.222c-1.44 0-3.864-.504-4.704-1.896-.096-.144-.096-.264-.096-.36 0-.385.336-.72.696-.72.144 0 .384.12.528.336.864 1.057 2.4 1.272 3.576 1.272 2.328 0 3.504-.768 3.504-2.328 0-3.624-7.873-1.704-7.873-6.505 0-2.424 2.424-3.36 4.608-3.36 1.248 0 3.168.433 4.128 1.393.144.144.216.312.216.456a.78.78 0 0 1-.744.72c-.144 0-.312-.048-.456-.19-.744-.72-2.088-1.01-3.144-1.01-2.112 0-3.24.816-3.24 1.992 0 3.36 7.873 1.584 7.873 6.505 0 2.736-2.4 3.696-4.873 3.696z"/><path id="f" d="M598.58 989.196c-2.256 0-4.104 1.824-4.104 4.104v6.793c0 .432-.36.672-.672.672-.336 0-.697-.24-.697-.672v-11.4c0-.432.36-.672.697-.672.312 0 .672.24.672.672v.984c1.08-1.176 2.496-1.85 4.104-1.85a.69.69 0 0 1 .696.673c0 .336-.264.695-.696.695z"/><path id="g" d="M686.154 1001.174c-2.088 0-3.648-.864-4.656-2.28v1.2c0 .432-.36.672-.672.672-.336 0-.696-.24-.696-.672V984.35c0-.433.36-.673.696-.673.313 0 .672.24.672.673v5.52c1.008-1.393 2.568-2.257 4.656-2.257 3.865 0 6.025 3.17 6.025 6.77 0 3.625-2.16 6.793-6.025 6.793zm0-12.193c-2.855 0-4.656 2.28-4.656 5.4s1.8 5.425 4.656 5.425 4.656-2.305 4.656-5.425-1.8-5.4-4.656-5.4z"/><path id="h" d="M707.083 1000.766h-.024c-.792 0-1.92-.432-2.376-1.872-1.008 1.416-2.568 2.28-4.656 2.28-3.913 0-6.024-3.217-6.024-6.793 0-3.624 2.16-6.77 6.024-6.77 2.088 0 3.648.864 4.656 2.257v-1.177c0-.384.312-.672.696-.672.336 0 .672.24.672.672v9.673c0 1.536 1.73.576 1.73 1.73a.66.66 0 0 1-.696.672zm-7.057-11.785c-2.833 0-4.656 2.28-4.656 5.4s1.823 5.425 4.656 5.425c2.856 0 4.656-2.305 4.656-5.425s-1.8-5.4-4.656-5.4z"/><path id="i" d="M727.074 995.077h-9.96c.216 2.736 1.992 4.73 4.608 4.73 1.296 0 2.832-.576 3.528-1.656.168-.264.36-.336.576-.336.36 0 .744.288.744.647 0 .217 0 .265-.457.793-1.104 1.296-2.71 1.92-4.392 1.92-3.864 0-6.024-3.168-6.024-6.793 0-3.6 2.16-6.77 6.024-6.77s6.024 3.192 6.024 6.77a.73.73 0 0 1-.672.696zm-5.353-6.097c-2.88 0-4.393 2.208-4.608 4.73h9.24c-.215-2.736-1.992-4.73-4.632-4.73z"/><path id="j" d="M801.93 989.196c-2.257 0-4.104 1.824-4.104 4.104v6.793c0 .432-.36.672-.672.672-.336 0-.696-.24-.696-.672v-11.4c0-.432.36-.672.696-.672.313 0 .672.24.672.672v.984c1.08-1.176 2.496-1.85 4.104-1.85a.69.69 0 0 1 .696.673c0 .336-.264.695-.696.695z"/><path id="k" d="M870.5 1000.766c-.336 0-.695-.24-.695-.672v-7.01c0-2.28-1.824-4.104-4.104-4.104-2.257 0-4.104 1.824-4.104 4.104v7.01c0 .432-.36.672-.672.672-.336 0-.696-.24-.696-.672v-11.4c0-.432.36-.672.696-.672.313 0 .672.24.672.672v.77c1.08-1.177 2.496-1.85 4.104-1.85a5.52 5.52 0 0 1 5.472 5.473v7.01c0 .432-.36.672-.672.672z"/></defs></svg>