<svg xmlns="http://www.w3.org/2000/svg" xmlns:xlink="http://www.w3.org/1999/xlink" viewBox="0 0 1080 1080"><linearGradient id="A" gradientUnits="userSpaceOnUse" x1="-83.115" y1="-83.115" x2="1659.598" y2="1659.598"><stop offset="0" stop-color="#ff0084"/><stop offset=".104" stop-color="#e70078"/><stop offset=".546" stop-color="#870046"/><stop offset=".854" stop-color="#4b0027"/><stop offset="1" stop-color="#33001b"/></linearGradient><path d="M1040 1080H40c-22.09 0-40-17.91-40-40V40C0 17.91 17.91 0 40 0h1000c22.09 0 40 17.91 40 40v1000c0 22.09-17.91 40-40 40z" fill="url(#A)"/><g opacity=".4" fill="#fff"><path d="M42.328 1046.045c-3.568 0-5.47-1.97-5.503-2.002 0 .935-.7 1.4-1.468 1.4-.7 0-1.4-.467-1.4-1.4v-20.88a1.35 1.35 0 0 1 1.401-1.434c.767 0 1.468.467 1.468 1.4v6.238c1.334-1.368 3.168-2.17 5.503-2.17 5.37 0 8.373 4.403 8.373 9.406 0 5.037-3.002 9.44-8.373 9.44zm0-16c-3.335 0-5.503 2.602-5.503 6.57 0 4.003 2.168 6.604 5.503 6.604s5.504-2.602 5.504-6.604c0-3.97-2.168-6.57-5.504-6.57zm25.555 8.037h-12.34c.467 3.136 2.468 5.137 5.403 5.137 1.5 0 3.002-.533 3.97-1.734.3-.333.634-.533 1.034-.533.734 0 1.5.667 1.5 1.468 0 .4-.1.7-.8 1.4-1.5 1.468-3.57 2.235-5.704 2.235-5.37 0-8.372-4.437-8.372-9.44 0-4.97 3.002-9.406 8.372-9.406 5.437 0 8.34 4.437 8.34 9.406 0 .734-.534 1.468-1.4 1.468zm-6.937-8.038c-3.136 0-4.97 2.3-5.403 5.17H66.35c-.467-3.202-2.468-5.17-5.403-5.17zM88 1045.478c-1.834 0-2.668-1.3-2.97-1.9-1.334 1.468-3.27 2.47-5.87 2.47-5.437 0-8.372-4.47-8.372-9.44s3.002-9.406 8.372-9.406c2.335 0 4.203.834 5.504 2.202v-.134c0-.367.133-1.5 1.4-1.5.7 0 1.468.367 1.468 1.4v12.875c0 .434.3.6.467.6.935 0 1.435.667 1.435 1.434a1.37 1.37 0 0 1-1.435 1.401zm-8.84-15.443c-3.336 0-5.504 2.602-5.504 6.57 0 4.003 2.168 6.604 5.504 6.604 3.37 0 5.504-2.602 5.504-6.604 0-3.97-2.135-6.57-5.504-6.57z"/><use xlink:href="#G"/><path d="M115.158 1045.478h-.567c-3.17 0-4.37-1.668-4.37-4.403V1030.6h-1c-.8 0-1.435-.634-1.435-1.4 0-.8.634-1.435 1.4-1.435h1v-4.637c0-.934.7-1.4 1.435-1.4s1.4.467 1.4 1.4v4.637h2.135c.934 0 1.4.768 1.4 1.4 0 .8-.533 1.434-1.4 1.434h-2.135v10.774c0 .934.333 1.268 1.268 1.268h.833c.868 0 1.435.634 1.435 1.4 0 .8-.533 1.435-1.4 1.435zm4.604-20.415a2.402 2.402 0 1 1 0-4.803 2.402 2.402 0 1 1 0 4.803zm0 20.414c-.733 0-1.467-.5-1.467-1.4V1029.2c0-.935.733-1.435 1.467-1.435a1.37 1.37 0 0 1 1.401 1.435v14.876c0 .935-.7 1.4-1.4 1.4zm10.376-14.877h-1.5v13.442c0 .935-.7 1.4-1.468 1.4-.7 0-1.4-.467-1.4-1.4V1030.6h-1.37c-.9 0-1.4-.667-1.4-1.4 0-.768.5-1.435 1.4-1.435h1.367v-2.27c0-2.135 1.77-3.77 3.836-3.77.968 0 1.468.667 1.468 1.434 0 .7-.5 1.4-1.468 1.4-.566 0-.967.434-.967.9v2.302h1.5c.967 0 1.468.667 1.468 1.435 0 .733-.5 1.4-1.468 1.4z"/><use xlink:href="#G" x="42.068"/><path d="M154.725 1045.544c-1.802 0-3.336-1.534-3.336-3.402v-18.98c0-.967.7-1.434 1.435-1.434s1.435.467 1.435 1.4v19.013c0 .4.3.567.467.567.934 0 1.435.667 1.435 1.435 0 .733-.5 1.4-1.435 1.4zm15.37-.066v-1.264c1.886-.237 2.046-.437 2.046-3.157v-6.7c0-2.8-1.248-4.017-3.064-4.017-1.237 0-2.345.6-3.47 1.493v9.476c0 2.527.187 2.658 2.06 2.896v1.264h-8.968v-1.264c2.254-.33 2.5-.4 2.5-3v-8.2c0-2.446-.303-2.565-2.185-2.922v-1.184c2.173-.292 4.63-.807 6.653-1.533l-.052 2.95 2.6-1.745c1.16-.713 2-1.086 3.16-1.086 3.194 0 5.2 2.338 5.2 6.3v7.5c0 2.54.237 2.657 2.277 2.92v1.264h-8.74zm23.9-3.703c-2.458 3.427-5.488 4.178-7.014 4.178-5.142 0-8.124-3.936-8.124-8.594 0-2.745 1.183-5.396 2.832-7.062 1.74-1.8 3.945-2.814 6.082-2.814 3.73 0 6.396 3.126 6.37 6.347-.014.715-.08 1.277-.612 1.4-.767.184-6.17.5-10.318.647.062 4.587 2.717 6.74 5.556 6.74 1.572 0 3.104-.597 4.543-1.866l.686 1.014zm-7.07-12.7c-1.667 0-3.167 1.807-3.516 4.963l5.486-.118c.6-.026.848-.146.848-.792.04-2.022-1.037-4.053-2.818-4.053zm34.284.145c-1.943.343-2.248.624-3.105 2.765-1.33 3.462-3.102 8.53-4.934 13.94h-1.512l-4.65-11.46-4.55 11.46h-1.472l-4.685-14.192c-.687-1.985-.94-2.274-2.855-2.512v-1.25h9.397v1.25c-2.325.345-2.535.672-2.058 2.133l2.52 8.214c1.507-3.68 2.988-7.62 4.327-11.424h1.456c1.4 3.76 2.986 7.702 4.573 11.568.742-2.107 2.062-5.964 2.557-8.108.412-1.674-.008-2.078-2.753-2.383v-1.25h7.742v1.25zm9.4 3.746c-.92-2.606-2.155-3.984-4.2-3.984-1.206 0-2.225.86-2.225 2.266 0 1.497 1.046 2.264 3.16 3.216 3.278 1.496 5.3 2.787 5.3 5.736 0 3.85-3.6 5.764-6.945 5.764-2.06 0-4.088-.737-4.92-1.16l-.662-4.892 1.252-.224c.8 2.5 2.33 4.75 4.976 4.75 1.505 0 2.438-.952 2.438-2.28 0-1.423-.76-2.333-3.092-3.467-2.67-1.295-5.107-2.64-5.107-5.775 0-3.046 2.533-5.42 6.565-5.42 1.818 0 3.242.396 4.112.567l.62 4.577-1.25.328z"/></g><g opacity=".6" fill="#fff"><path d="M875.56 1046.358c-1.2 0-3.22-.42-3.92-1.58-.08-.12-.08-.22-.08-.3 0-.32.28-.6.58-.6.12 0 .32.1.44.28.72.88 2 1.06 2.98 1.06 1.94 0 2.92-.64 2.92-1.94 0-3.02-6.562-1.42-6.562-5.422 0-2.02 2.02-2.8 3.84-2.8 1.04 0 2.64.36 3.44 1.16.12.12.18.26.18.38a.65.65 0 0 1-.62.6.53.53 0 0 1-.38-.16c-.62-.6-1.74-.84-2.62-.84-1.76 0-2.7.68-2.7 1.66 0 2.8 6.562 1.32 6.562 5.422 0 2.28-2 3.08-4.06 3.08z"/><use xlink:href="#H"/><path d="M902.062 1045.978c-.28 0-.58-.2-.58-.56v-.64c-.84.98-2.06 1.54-3.42 1.54-2.48 0-4.56-2.08-4.56-4.56v-5.842c0-.36.3-.56.58-.56.26 0 .56.2.56.56v5.842c0 1.9 1.52 3.42 3.42 3.42s3.42-1.52 3.42-3.42v-5.842c0-.36.3-.56.58-.56.26 0 .56.2.56.56v9.502c0 .36-.3.56-.56.56z"/><use xlink:href="#I"/><path d="M920.202 1044.798c-.88.98-2.1 1.52-3.58 1.52-3.22 0-5.02-2.64-5.02-5.66 0-3 1.8-5.64 5.02-5.64 1.48 0 2.7.54 3.58 1.52a.53.53 0 0 1 .16.381.63.63 0 0 1-.58.6c-.14 0-.28-.06-.42-.2-.66-.74-1.58-1.16-2.74-1.16-2.36 0-3.88 1.9-3.88 4.5s1.52 4.52 3.88 4.52c1.16 0 2.08-.44 2.74-1.16.14-.14.28-.2.42-.2.3 0 .58.26.58.58a.57.57 0 0 1-.16.399zm11.58-3.56h-8.302c.18 2.28 1.66 3.94 3.84 3.94 1.08 0 2.36-.48 2.94-1.38.14-.22.3-.28.48-.28.3 0 .62.24.62.54 0 .18 0 .22-.38.66-.92 1.08-2.26 1.6-3.66 1.6-3.22 0-5.02-2.64-5.02-5.66 0-3 1.8-5.64 5.02-5.64s5.02 2.66 5.02 5.64c0 .3-.28.58-.56.58zm-4.46-5.08c-2.4 0-3.66 1.84-3.84 3.94h7.7c-.18-2.28-1.66-3.94-3.86-3.94zm8.437 3.26c-.64 0-1.16-.5-1.16-1.14s.52-1.14 1.16-1.14c.62 0 1.12.5 1.12 1.14s-.5 1.14-1.12 1.14zm0 6.562c-.64 0-1.16-.5-1.16-1.14s.52-1.14 1.16-1.14c.62 0 1.12.5 1.12 1.14s-.5 1.14-1.12 1.14zm23.082-13.523l-3.52 13.103a.55.55 0 0 1-.56.42c-.24 0-.48-.14-.54-.42l-3-11.083-2.98 11.083c-.06.28-.3.42-.54.42-.26 0-.48-.14-.56-.42l-3.52-13.103c-.02-.06-.02-.12-.02-.18a.58.58 0 0 1 .58-.58c.26 0 .46.14.52.44l3 11.082 2.98-11.082c.08-.28.3-.4.54-.4.26 0 .48.12.56.4l2.98 11.082 3-11.082c.08-.3.28-.44.52-.44a.58.58 0 0 1 .58.58c0 .06 0 .12-.02.18z"/><use xlink:href="#H" x="79.078"/><use xlink:href="#I" x="67.3"/><path d="M981.34 1046.098c-1.08 0-1.98-1-1.98-2.12v-11.683c0-.36.3-.56.58-.56.26 0 .56.2.56.56v11.683c0 1.28 1.42.54 1.42 1.44 0 .34-.24.68-.58.68zm11.42-.12c-.28 0-.58-.2-.58-.56v-1c-.84 1.18-2.14 1.9-3.88 1.9-3.22 0-5.02-2.64-5.02-5.66 0-3 1.8-5.64 5.02-5.64 1.74 0 3.04.72 3.88 1.88v-4.6c0-.36.3-.56.58-.56.26 0 .56.2.56.56v13.122c0 .36-.3.56-.56.56zm-4.46-9.822c-2.36 0-3.88 1.9-3.88 4.5s1.52 4.52 3.88 4.52c2.38 0 3.88-1.92 3.88-4.52s-1.5-4.5-3.88-4.5zm19.14 9.822h-5.802c-.3 0-.58-.28-.58-.56v-13.122c0-.34.18-.56.52-.56h5.42c1.98 0 3.6 1.64 3.6 3.56 0 1.18-.52 2.2-1.42 2.86a4.06 4.06 0 0 1 2.38 3.721c0 2.28-1.84 4.1-4.12 4.1zm-.44-13.123h-4.8v4.92h4.8c1.62 0 2.46-1.44 2.46-2.44 0-1.38-1.12-2.48-2.46-2.48zm.44 6.062h-5.24v5.92h5.24c1.64 0 2.98-1.32 2.98-2.96s-1.34-2.96-2.98-2.96zm16.94 7.06h-.02c-.66 0-1.6-.36-1.98-1.56-.84 1.18-2.14 1.9-3.88 1.9-3.26 0-5.02-2.68-5.02-5.66 0-3.02 1.8-5.64 5.02-5.64 1.74 0 3.04.72 3.88 1.88v-.98c0-.32.26-.56.58-.56.28 0 .56.2.56.56v8.063c0 1.28 1.44.48 1.44 1.44a.55.55 0 0 1-.58.561zm-5.88-9.822c-2.36 0-3.88 1.9-3.88 4.5s1.52 4.52 3.88 4.52c2.38 0 3.88-1.92 3.88-4.52s-1.5-4.5-3.88-4.5zm16.84 9.822c-.28 0-.58-.2-.58-.56v-5.84c0-1.9-1.52-3.42-3.42-3.42a3.42 3.42 0 0 0-3.421 3.421v5.84c0 .36-.3.56-.56.56-.28 0-.58-.2-.58-.56v-9.502c0-.36.3-.56.58-.56.26 0 .56.2.56.56v.64c.9-.98 2.08-1.54 3.42-1.54a4.6 4.6 0 0 1 4.561 4.561v5.84c0 .36-.3.56-.56.56zm10.7-9.64l-3.44 3.44 3.4 5.32c.06.08.12.2.12.32 0 .28-.3.54-.6.54-.18 0-.36-.08-.48-.26l-3.28-5.1-2.06 2.08v2.74c0 .36-.3.56-.56.56-.28 0-.58-.2-.58-.56v-13.122c0-.36.3-.56.58-.56.26 0 .56.2.56.56v8.762l5.52-5.52a.56.56 0 0 1 .42-.18c.32 0 .58.26.58.56a.56.56 0 0 1-.181.421z"/></g><linearGradient id="B" gradientUnits="userSpaceOnUse" x1="30.936" y1="473.965" x2="456.895" y2="899.924"><stop offset="0" stop-opacity=".08"/><stop offset="1" stop-opacity=".3"/></linearGradient><path d="M33.956 894.694c0 11 9 20 20 20h379.92c11 0 20-9 20-20v-415.5c0-11-9-20-20-20H53.956c-11 0-20 9-20 20v415.5z" fill="url(#B)"/><linearGradient id="C" gradientUnits="userSpaceOnUse" x1="33.956" y1="814.608" x2="453.875" y2="814.608"><stop offset="0" stop-color="#141e30"/><stop offset=".063" stop-color="#152033"/><stop offset=".645" stop-color="#20344c"/><stop offset="1" stop-color="#243b55"/></linearGradient><path d="M433.875 914.694H53.956c-11.046 0-20-8.954-20-20v-180.17h419.92v180.17c0 11.046-8.954 20-20 20z" fill="url(#C)"/><linearGradient id="D" gradientUnits="userSpaceOnUse" x1="495.33" y1="247.356" x2="1040.061" y2="792.086"><stop offset="0" stop-opacity=".1"/><stop offset="1" stop-opacity=".4"/></linearGradient><path d="M489.455 777.96c0 11 9 20 20 20h516.48c11 0 20-9 20-20V261.48c0-11-9-20-20-20h-516.48c-11 0-20 9-20 20v516.48z" fill="url(#D)"/><linearGradient id="E" gradientUnits="userSpaceOnUse" x1="489.455" y1="756.242" x2="1045.936" y2="756.242"><stop offset="0" stop-color="#141e30"/><stop offset=".063" stop-color="#152033"/><stop offset=".645" stop-color="#20344c"/><stop offset="1" stop-color="#243b55"/></linearGradient><path d="M1025.936 797.96h-516.48c-11.046 0-20-8.954-20-20v-63.438h556.48v63.438c0 11.046-8.954 20-20 20z" fill="url(#E)"/><g fill="none"><g stroke="#e6ffbf" stroke-width="2" stroke-linecap="round" stroke-miterlimit="10"><path d="M496.486 714.523h544.934" stroke-dasharray="0,7.0314"/><path d="M1044.936 721.53v173.444c0 10.89-8.83 19.72-19.72 19.72h-516.04c-10.89 0-19.72-8.83-19.72-19.72V718.026" stroke-dasharray="0,7.00655"/></g><path d="M33.956 714.523h1011.98" stroke="#dbffa3" stroke-width="7" stroke-miterlimit="10"/></g><g opacity=".7" fill="#fff"><path d="M976.16 843.163h-11.015c-1.044 0-1.656-.612-1.656-1.368 0-.324.108-.647.324-.972l9.827-14.938c.433-.684.685-1.512.685-2.16 0-2.124-1.584-3.743-3.708-3.743-1.908 0-3.528 1.62-4.14 2.77-.288.54-.756.756-1.225.756-.827 0-1.583-.648-1.583-1.477 0-1.115 2.556-5.146 6.947-5.146 3.743 0 6.767 3.06 6.767 6.767a7.02 7.02 0 0 1-1.224 3.888l-8.243 12.563h8.243c1.044 0 1.584.72 1.584 1.548 0 .756-.54 1.512-1.584 1.512zm12.097.612c-2.77 0-5.22-1.44-6.55-3.672a1.56 1.56 0 0 1-.252-.828c0-.863.756-1.512 1.584-1.512.467 0 .97.18 1.295.72.792 1.367 2.232 2.23 3.888 2.23 2.7 0 4.932-2.23 4.932-4.86 0-2.7-2.196-4.93-4.896-4.93h-.036c-.937 0-1.512-.72-1.512-1.513s.612-1.547 1.548-1.547a3.9 3.9 0 0 0 3.959-3.96c0-2.16-1.764-3.923-3.96-3.923-3.492 0-3.527 3.527-5.4 3.527-.827 0-1.62-.648-1.62-1.512a1.59 1.59 0 0 1 .252-.864c.864-1.33 3.023-4.247 6.768-4.247a7.03 7.03 0 0 1 7.02 7.019c0 2.196-.937 4.104-2.557 5.4 2.088 1.44 3.492 3.78 3.492 6.516a7.96 7.96 0 0 1-7.955 7.955zm35.458-.612c-.757 0-1.513-.54-1.513-1.512v-11.34c0-2.088-1.727-3.815-3.78-3.815-2.123 0-3.814 1.728-3.814 3.78v11.338c0 1.008-.72 1.548-1.55 1.548-.8 0-1.512-.54-1.512-1.512V830.3c0-2.088-1.728-3.815-3.815-3.815s-3.815 1.728-3.815 3.78v11.338c0 1.008-.756 1.548-1.584 1.548-.756 0-1.512-.54-1.512-1.512v-16.1c0-1.044.792-1.548 1.584-1.548.504 0 1.008.216 1.296.684 1.116-.792 2.52-1.26 3.995-1.26 2.16 0 4.104.973 5.363 2.556 1.26-1.583 3.168-2.556 5.328-2.556 3.814 0 6.9 3.06 6.9 6.84v11.338c0 1.008-.756 1.548-1.583 1.548z"/><use xlink:href="#J"/><path d="M911.128 864.527h-11.62c.252 3.19 2.323 5.516 5.375 5.516 1.512 0 3.305-.672 4.116-1.932.196-.31.42-.393.672-.393.42 0 .868.336.868.756 0 .252 0 .31-.53.924-1.29 1.513-3.164 2.24-5.125 2.24-4.508 0-7.027-3.695-7.027-7.924 0-4.2 2.52-7.896 7.027-7.896s7.028 3.724 7.028 7.896c0 .42-.392.813-.784.813zm-6.244-7.112c-3.36 0-5.123 2.576-5.375 5.517h10.78c-.252-3.192-2.324-5.517-5.404-5.517z"/><use xlink:href="#K"/><use xlink:href="#K" x="12.18"/><use xlink:href="#L"/><path d="M973.12 864.527H961.5c.252 3.2 2.324 5.516 5.377 5.516 1.512 0 3.303-.672 4.115-1.932.196-.3.42-.393.672-.393.42 0 .868.336.868.756 0 .252 0 .3-.532.924-1.287 1.513-3.164 2.24-5.123 2.24-4.5 0-7.03-3.695-7.03-7.924 0-4.2 2.52-7.896 7.03-7.896s7.027 3.724 7.027 7.896c0 .42-.393.813-.784.813zm-6.243-7.112c-3.36 0-5.125 2.576-5.377 5.517h10.78c-.252-3.192-2.324-5.517-5.403-5.517zm15.623 14.223c-4.508 0-7.028-3.695-7.028-7.924 0-4.2 2.52-7.896 7.028-7.896s7.027 3.696 7.027 7.896c0 4.23-2.52 7.924-7.027 7.924zm0-14.224c-3.305 0-5.432 2.66-5.432 6.3s2.127 6.328 5.432 6.328c3.332 0 5.432-2.687 5.432-6.328s-2.1-6.3-5.432-6.3z"/><use xlink:href="#L" x="47.517"/><use xlink:href="#J" x="114.52"/><path d="M1025.646 864.527h-11.62c.252 3.19 2.324 5.516 5.376 5.516 1.512 0 3.304-.672 4.116-1.932.195-.31.42-.393.672-.393.42 0 .867.336.867.756 0 .252 0 .31-.53.924-1.288 1.513-3.164 2.24-5.124 2.24-4.51 0-7.028-3.695-7.028-7.924 0-4.2 2.52-7.896 7.028-7.896s7.028 3.724 7.028 7.896c0 .42-.393.813-.785.813zm-6.243-7.112c-3.36 0-5.124 2.576-5.376 5.517h10.78c-.252-3.192-2.324-5.517-5.403-5.517z"/></g><g opacity=".8" fill="#fff"><path d="M65.516 948.76c-.14 0-.252 0-.42-.112l-3.64-2.1v4.2c0 .532-.42.812-.784.812-.393 0-.812-.28-.812-.812v-4.2l-3.64 2.1a1.03 1.03 0 0 1-.42.112c-.42 0-.784-.392-.784-.812 0-.252.14-.504.42-.672l3.64-2.1-3.64-2.1c-.28-.168-.42-.42-.42-.672 0-.42.364-.84.784-.84.14 0 .308.028.42.14l3.64 2.1v-4.228c0-.504.42-.784.813-.784.363 0 .784.28.784.784v4.228l3.64-2.1a.68.68 0 0 1 .42-.141c.476 0 .812.42.812.84 0 .252-.14.504-.42.672l-3.64 2.1 3.64 2.1c.28.168.42.42.42.672 0 .42-.336.812-.812.812zm17.947 11.255c-.393 0-.812-.28-.812-.784v-.896c-1.176 1.372-2.884 2.156-4.787 2.156-3.473 0-6.385-2.912-6.385-6.385v-8.176c0-.504.42-.784.813-.784.364 0 .784.28.784.784v8.176a4.77 4.77 0 0 0 4.788 4.788c2.66 0 4.787-2.128 4.787-4.788v-8.176c0-.504.42-.784.813-.784.364 0 .784.28.784.784v13.3a.78.78 0 0 1-.784.784zm16.184 0c-.392 0-.812-.28-.812-.784v-8.176a4.77 4.77 0 0 0-4.788-4.788c-2.632 0-4.788 2.128-4.788 4.788v8.176a.78.78 0 0 1-.784.784c-.392 0-.812-.28-.812-.784v-13.3c0-.504.42-.784.812-.784.364 0 .784.28.784.784v.896c1.26-1.372 2.912-2.156 4.788-2.156a6.44 6.44 0 0 1 6.384 6.384v8.176a.78.78 0 0 1-.784.784z"/><use xlink:href="#M"/><use xlink:href="#N"/><use xlink:href="#O"/><path d="M158.306 960.464v4.592c0 .504-.42.813-.812.813a.79.79 0 0 1-.784-.812v-4.592c-2.044-.168-4.564-.98-6.02-2.436-.195-.196-.252-.364-.252-.56 0-.42.393-.812.813-.812.336 0 .308.084.896.53 1.484 1.093 3.332 1.708 5.236 1.708 3.528 0 5.572-1.315 5.572-3.836 0-6.636-11.845-2.94-11.845-10.584 0-3.08 2.437-4.592 5.6-4.844v-4.312c0-.56.392-.84.784-.84a.8.8 0 0 1 .812.84v4.312c1.932.14 4.34 1.008 5.46 2.576.112.168.168.308.168.476 0 .448-.392.784-.84.784-.392 0-.392-.112-.868-.588-1.176-1.176-2.912-1.708-4.563-1.708-3.332 0-4.956 1.288-4.956 3.304 0 6.02 11.844 2.52 11.844 10.584 0 3.584-2.884 5.18-6.244 5.404zm13.076-.45c-.42 0-.784-.308-.784-.784v-16.743l-3.052 2.968a.69.69 0 0 1-.532.252c-.448 0-.84-.42-.84-.868 0-.168.1-.364.252-.532l4.424-4.283c.224-.168.448-.225.532-.225.588 0 .812.42.812.98v18.45c0 .477-.336.784-.812.784zm5.824 0c-.896 0-1.596-.7-1.596-1.596s.7-1.596 1.596-1.596 1.596.7 1.596 1.596-.7 1.596-1.596 1.596zm10.807.477c-2.352 0-4.03-1-5.18-2.772-.14-.168-.168-.308-.168-.476 0-.42.42-.784.84-.784.225 0 .448.112.645.364.896 1.315 2.07 2.07 3.863 2.07 3.528 0 4.788-3.36 4.788-8.848v-.476c-1.176 1.512-2.968 2.407-4.788 2.407-3.36 0-6.02-2.9-6.02-6.187 0-3.304 2.66-6.216 6.02-6.216 5.853 0 6.385 6.02 6.385 10.443 0 5.236-1.12 10.473-6.385 10.473zm0-19.32c-2.407 0-4.396 2.128-4.396 4.62 0 2.464 1.988 4.592 4.396 4.592 2.185 0 4.48-1.932 4.48-4.76-.504-2.38-1.624-4.452-4.48-4.452zm16.017 19.32c-5.937 0-5.992-7.112-5.992-11.2 0-4.004.616-9.716 5.964-9.716 5.236 0 6.02 5.376 6.02 9.716 0 4.06-.084 11.2-5.992 11.2zm4.396-11.2c0-4.004-.56-8.12-4.396-8.12-4.2 0-4.396 5.152-4.396 8.12v1.792c0 3.248.616 7.812 4.368 7.812 3.836 0 4.424-4.563 4.424-7.812v-1.792zm17.864 11.2c-2.436 0-4.256-1-5.432-2.66v7.252c0 .504-.42.812-.784.812-.393 0-.812-.308-.812-.812V945.93c0-.504.42-.784.813-.784.364 0 .784.28.784.784v1.372c1.176-1.624 2.996-2.632 5.432-2.632 4.508 0 7.028 3.696 7.028 7.896 0 4.228-2.52 7.924-7.028 7.924zm0-14.225c-3.332 0-5.432 2.66-5.432 6.3s2.1 6.327 5.432 6.327 5.432-2.687 5.432-6.327-2.1-6.3-5.432-6.3z"/><use xlink:href="#N" x="115.666"/><use xlink:href="#O" x="115.666"/><use xlink:href="#M" x="163.657"/><path d="M298.696 960.015h-.028c-.924 0-2.24-.504-2.772-2.184-1.176 1.65-2.995 2.66-5.432 2.66-4.563 0-7.028-3.752-7.028-7.924 0-4.23 2.52-7.896 7.028-7.896 2.437 0 4.256 1.008 5.432 2.632v-1.372c0-.447.364-.784.813-.784.392 0 .784.28.784.784v11.284c0 1.792 2.016.672 2.016 2.016a.77.77 0 0 1-.812.784zm-8.232-13.748c-3.304 0-5.432 2.66-5.432 6.3s2.128 6.327 5.432 6.327c3.332 0 5.432-2.687 5.432-6.327s-2.1-6.3-5.432-6.3zm23.1 0l-7.588 17.948c-.56 1.316-1.708 1.68-2.996 1.68h-1.232c-.504 0-.783-.42-.783-.812a.78.78 0 0 1 .783-.784h1.232c.616 0 1.26-.028 1.512-.672l1.597-3.808-5.797-13.553c-.056-.14-.056-.252-.056-.363 0-.448.393-.757.813-.757.252 0 .56.112.7.477l5.208 12.152 5.152-12.152c.14-.364.448-.477.728-.477.42 0 .784.3.784.757 0 .1 0 .224-.056.363z"/></g><path d="M78.452 773.2h-2.407v4.368c0 1.512-1.288 2.352-2.408 2.352-1.176 0-2.408-.84-2.408-2.352V773.2H57.844c-1.568 0-2.52-.952-2.52-2.24 0-.336.057-.784.336-1.23l15.456-29.4c.448-.896 1.288-1.288 2.017-1.288 1.288 0 2.52 1 2.52 2.296 0 .393-.056.784-.336 1.232l-13.553 25.87h9.464v-6.384c0-1.624 1.176-2.465 2.352-2.465 1.232 0 2.465.784 2.465 2.408v6.44h2.407c1.568 0 2.408 1.12 2.408 2.408 0 1.23-.84 2.352-2.408 2.352zm28.055 0H104.1v4.368c0 1.512-1.288 2.352-2.408 2.352-1.176 0-2.408-.84-2.408-2.352V773.2H85.9c-1.568 0-2.52-.952-2.52-2.24 0-.336.057-.784.336-1.23l15.456-29.4c.448-.896 1.288-1.288 2.017-1.288 1.288 0 2.52 1 2.52 2.296 0 .393-.056.784-.336 1.232L89.82 768.45h9.464v-6.384c0-1.624 1.176-2.465 2.352-2.465 1.232 0 2.465.784 2.465 2.408v6.44h2.407c1.568 0 2.408 1.12 2.408 2.408 0 1.23-.84 2.352-2.408 2.352zm10.405-21.715c-2.84 0-5.16-2.58-5.16-5.747s2.318-5.715 5.16-5.715c2.8 0 5.127 2.547 5.127 5.715s-2.318 5.747-5.127 5.747zm0-8.687c-1.045 0-2.35 1.045-2.35 2.94s1.306 2.938 2.35 2.938 2.352-1.045 2.352-2.938-1.307-2.94-2.352-2.94zm13.617-1.6l-6 21.617a1.27 1.27 0 0 1-1.273 1.045c-.75 0-1.47-.522-1.47-1.372 0-.098 0-.26.033-.392l6.04-21.65a1.33 1.33 0 0 1 1.306-1.013c.686 0 1.437.5 1.437 1.307 0 .163-.032.294-.064.457zm4.637 22.074c-2.8 0-5.127-2.58-5.127-5.747 0-3.135 2.318-5.715 5.127-5.715 2.84 0 5.16 2.58 5.16 5.715 0 3.167-2.318 5.747-5.16 5.747zm0-8.687c-1.013 0-2.318 1.045-2.318 2.94 0 1.927 1.306 2.972 2.318 2.972 1.045 0 2.35-1.045 2.35-2.972 0-1.895-1.306-2.94-2.35-2.94z" opacity=".8" fill="#dbffa3"/><g fill="#fff"><path d="M56.626 790.374c-.896 0-1.596-.7-1.596-1.596s.7-1.597 1.596-1.597a1.58 1.58 0 0 1 1.596 1.597c0 .896-.7 1.596-1.596 1.596zm0 17.556c-.393 0-.812-.252-.812-.783v-13.3c0-.504.393-.783.813-.783.363 0 .783.252.783.783v13.3c0 .504-.363.783-.783.783zm16.174 0c-.393 0-.812-.28-.812-.783v-8.176a4.77 4.77 0 0 0-4.787-4.789 4.79 4.79 0 0 0-4.789 4.789v8.176c0 .504-.42.783-.783.783-.393 0-.812-.28-.812-.783v-13.3c0-.504.42-.783.813-.783.363 0 .783.28.783.783v.896c1.26-1.372 2.912-2.156 4.8-2.156a6.44 6.44 0 0 1 6.383 6.385v8.176c0 .504-.42.783-.783.783z"/><use xlink:href="#P"/><path d="M112.7 807.96a.69.69 0 0 1-.588-.31l-4.955-6.27-4.957 6.27c-.168.225-.363.3-.588.3-.447 0-.84-.336-.84-.785a.88.88 0 0 1 .168-.561l5.18-6.523-4.535-5.7a.97.97 0 0 1-.196-.561c0-.448.42-.784.868-.784.225 0 .42.084.588.308l4.313 5.46 4.34-5.46c.14-.224.336-.308.56-.308.448 0 .868.336.868.784 0 .168-.057.336-.195.504l-4.564 5.768 5.208 6.523c.168.197.224.365.224.56 0 .45-.447.785-.896.785zm8.678-.03h-.867c-2.213 0-3.305-1.092-3.305-3.275v-9.996h-1.428c-.504 0-.783-.42-.783-.812 0-.363.28-.783.783-.783h1.428v-4.284c0-.504.42-.784.813-.784s.784.28.784.784v4.284h2.575c.504 0 .785.42.785.783 0 .393-.28.813-.785.813h-2.575v9.996c0 1.37.392 1.68 1.708 1.68h.867c.504 0 .785.42.785.813 0 .363-.28.783-.785.783zm10.277-13.497a4.79 4.79 0 0 0-4.788 4.789v7.924a.78.78 0 0 1-.784.783c-.392 0-.812-.28-.812-.783v-13.3c0-.504.42-.783.812-.783a.78.78 0 0 1 .784.783v1.148c1.26-1.372 2.912-2.156 4.788-2.156.504 0 .812.42.812.784 0 .392-.308.812-.812.812zm14.84 6.862h-11.62c.252 3.2 2.324 5.516 5.377 5.516 1.512 0 3.303-.672 4.115-1.932.196-.3.42-.393.672-.393.42 0 .868.336.868.756 0 .252 0 .3-.532.924-1.287 1.512-3.164 2.24-5.123 2.24-4.5 0-7.03-3.695-7.03-7.924 0-4.2 2.52-7.896 7.03-7.896s7.027 3.725 7.027 7.896c0 .42-.393.813-.784.813zm-6.243-7.113c-3.36 0-5.125 2.576-5.377 5.517h10.78c-.252-3.192-2.324-5.517-5.403-5.517zm28.587 13.748c-.392 0-.784-.28-.784-.783v-9.408c0-1.932-1.624-3.557-3.556-3.557s-3.584 1.625-3.584 3.53v9.436c0 .504-.392.783-.784.783s-.812-.28-.812-.783v-9.408c0-1.932-1.623-3.557-3.527-3.557-1.96 0-3.584 1.625-3.584 3.53v9.436a.78.78 0 0 1-.784.783c-.392 0-.812-.28-.812-.783v-13.3c0-.504.42-.783.812-.783a.78.78 0 0 1 .784.783v.168a5.09 5.09 0 0 1 3.557-1.428c1.8 0 3.387.896 4.367 2.38.924-1.43 2.52-2.38 4.34-2.38 2.912 0 5.18 2.297 5.18 5.125v9.436c0 .504-.42.783-.812.783z"/><use xlink:href="#P" x="88.647"/><path d="M205.695 808.406c-2.436 0-4.256-1.008-5.432-2.66v7.252a.81.81 0 0 1-.784.813c-.392 0-.812-.3-.812-.812v-19.152c0-.504.42-.783.812-.783a.78.78 0 0 1 .784.783v1.373c1.176-1.625 2.996-2.633 5.432-2.633 4.508 0 7.028 3.696 7.028 7.896 0 4.23-2.52 7.924-7.028 7.924zm0-14.225c-3.332 0-5.432 2.66-5.432 6.3s2.1 6.328 5.432 6.328 5.432-2.688 5.432-6.328-2.1-6.3-5.432-6.3zM223 808.406c-4.5 0-7.03-3.695-7.03-7.924 0-4.2 2.52-7.896 7.03-7.896s7.027 3.696 7.027 7.896c0 4.23-2.52 7.924-7.027 7.924zm0-14.225c-3.305 0-5.433 2.66-5.433 6.3s2.128 6.328 5.433 6.328c3.332 0 5.432-2.688 5.432-6.328s-2.1-6.3-5.432-6.3zm22.343-.027l-5.517 13.133c-.168.363-.42.643-.784.643s-.645-.28-.812-.643l-5.516-13.105c-.056-.14-.056-.252-.056-.363 0-.448.392-.756.812-.756.252 0 .56.1.7.476l4.872 11.5 4.844-11.5c.168-.364.448-.504.73-.504.42 0 .813.308.813.756 0 .084 0 .224-.084.364zm15.987 7.14H249.7c.252 3.2 2.324 5.516 5.376 5.516 1.512 0 3.304-.672 4.116-1.932.195-.3.42-.393.672-.393.42 0 .867.336.867.756 0 .252 0 .3-.53.924-1.288 1.512-3.164 2.24-5.124 2.24-4.5 0-7.028-3.695-7.028-7.924 0-4.2 2.52-7.896 7.028-7.896s7.028 3.725 7.028 7.896c0 .42-.393.813-.785.813zm-6.243-7.113c-3.36 0-5.124 2.576-5.376 5.517h10.78c-.252-3.192-2.324-5.517-5.403-5.517zm17.313.25a4.79 4.79 0 0 0-4.787 4.79v7.924c0 .504-.42.783-.785.783-.392 0-.812-.28-.812-.783v-13.3c0-.504.42-.783.812-.783.365 0 .785.28.785.783v1.148c1.26-1.372 2.912-2.156 4.787-2.156a.81.81 0 0 1 .813.784c0 .392-.3.812-.812.812zm9.65 13.497h-.868c-2.212 0-3.304-1.092-3.304-3.275v-9.996h-1.43c-.504 0-.784-.42-.784-.812 0-.363.28-.783.784-.783h1.43v-4.284c0-.504.42-.784.812-.784s.784.28.784.784v4.284h2.576c.504 0 .783.42.783.783 0 .393-.28.813-.783.813h-2.576v9.996c0 1.37.392 1.68 1.708 1.68h.868c.504 0 .783.42.783.813 0 .363-.28.783-.783.783zM298 794.18l-7.588 17.95c-.56 1.314-1.707 1.68-2.995 1.68h-1.232c-.504 0-.784-.42-.784-.812 0-.363.28-.783.784-.783h1.232c.616 0 1.26-.03 1.512-.672l1.597-3.8-5.797-13.553c-.056-.14-.056-.252-.056-.363 0-.448.392-.756.812-.756.252 0 .56.1.7.476l5.208 12.15 5.152-12.15c.14-.364.447-.476.728-.476.42 0 .784.308.784.756 0 .1 0 .225-.057.363zm12.907 2.494c-.14 0-.252 0-.42-.1l-3.64-2.1v4.2a.79.79 0 0 1-.784.813c-.393 0-.812-.28-.812-.812v-4.2l-3.64 2.1c-.112.056-.28.1-.42.1-.42 0-.784-.392-.784-.812 0-.252.14-.504.42-.672l3.64-2.1-3.64-2.1c-.28-.168-.42-.42-.42-.672 0-.42.364-.84.784-.84.14 0 .308.027.42.14l3.64 2.1v-4.23c0-.504.42-.784.813-.784.364 0 .784.28.784.784v4.23l3.64-2.1a.68.68 0 0 1 .42-.14c.477 0 .813.42.813.84 0 .252-.14.504-.42.672l-3.64 2.1 3.64 2.1c.28.168.42.42.42.672 0 .42-.336.812-.812.812z"/></g><path d="M958.693 779.93c-1.176 0-2.352-.896-2.352-2.353V747.56l-4.48 4.368c-.504.504-1.063.672-1.568.672-1.344 0-2.52-1.232-2.52-2.464 0-.616.225-1.176.73-1.68l8.344-8.064c.672-.616 1.4-.896 2.072-.896 1.567 0 2.24 1.567 2.24 2.855v35.168c0 1.512-1.177 2.408-2.465 2.408zm21 .57c-3.752 0-8.008-2.016-10.08-5.32-.28-.448-.392-.896-.392-1.345 0-1.288 1.12-2.296 2.407-2.296 1.064 0 1.457.393 2.297 1.512 1.4 1.736 3.584 2.688 5.768 2.688 3.864 0 7.784-3.528 7.784-8.568 0-5.096-3.92-8.624-7.784-8.624-2.968 0-4.984 1.513-5.936 3.137-.448.84-1.232 1.288-2.184 1.288-1.457 0-2.408-.952-2.408-2.8V742.4c0-1.287 1.12-2.352 2.408-2.352h17.023c1.624 0 2.464 1.12 2.464 2.408 0 1.176-.784 2.352-2.353 2.352h-14.783V755.3c1.344-.95 3.472-1.512 5.768-1.512 6.9 0 12.544 5.824 12.544 13.384 0 7.448-5.655 13.328-12.544 13.328zm22.667-29.006c-2.842 0-5.16-2.58-5.16-5.747s2.318-5.714 5.16-5.714c2.808 0 5.126 2.547 5.126 5.714s-2.318 5.747-5.126 5.747zm0-8.686c-1.045 0-2.352 1.045-2.352 2.938s1.307 2.94 2.352 2.94 2.35-1.045 2.35-2.94-1.306-2.938-2.35-2.938zm13.616-1.6l-6 21.617a1.27 1.27 0 0 1-1.273 1.045c-.75 0-1.47-.522-1.47-1.37 0-.1 0-.262.032-.393l6.04-21.65a1.33 1.33 0 0 1 1.306-1.012c.686 0 1.438.5 1.438 1.306 0 .164-.033.294-.065.457zm4.637 22.074c-2.808 0-5.127-2.58-5.127-5.747 0-3.135 2.32-5.714 5.127-5.714 2.84 0 5.16 2.58 5.16 5.714 0 3.168-2.318 5.747-5.16 5.747zm0-8.686c-1.013 0-2.318 1.045-2.318 2.938 0 1.927 1.306 2.972 2.318 2.972 1.045 0 2.35-1.045 2.35-2.972 0-1.894-1.306-2.938-2.35-2.938z" opacity=".8" fill="#dbffa3"/><path d="M54.87 449.95v-2.88h4.225v-27.842l-4.32.384V417.5c1.97-.48 3.9-1.344 5.473-2.688h2.305v32.26h4.032v2.88H54.87zm18.335-6.433c.48 3.456 2.4 4.032 3.744 4.032 3.072 0 4.992-4.225 5.088-13.873-1.392 1.488-3.264 2.64-5.328 2.64-3.9 0-7.44-2.784-7.44-10.656 0-6.72 2.88-10.85 7.44-10.85 6 0 8.88 3.457 8.88 15.938 0 13.922-3.265 19.682-8.736 19.682-4.465 0-6.145-2.687-6.817-6.72l3.17-.2zm8.93-16.32c0-7-1.824-9.505-4.896-9.505-2.688 0-4.513 2.016-4.513 8.017 0 6.192 2.112 7.73 4.32 7.73s3.937-1.44 5.1-2.977v-3.264zm10.748 16.32c.48 3.456 2.4 4.032 3.744 4.032 3.072 0 4.993-4.225 5.1-13.873-1.393 1.488-3.265 2.64-5.328 2.64-3.9 0-7.44-2.784-7.44-10.656 0-6.72 2.88-10.85 7.44-10.85 6 0 8.88 3.457 8.88 15.938 0 13.922-3.264 19.682-8.736 19.682-4.464 0-6.145-2.687-6.816-6.72l3.168-.2zm8.93-16.32c0-7-1.824-9.505-4.896-9.505-2.687 0-4.512 2.016-4.512 8.017 0 6.192 2.1 7.73 4.32 7.73s3.936-1.44 5.088-2.977v-3.264zm6.297 22.753v-2.88h4.225v-27.842l-4.32.384V417.5c1.97-.48 3.9-1.344 5.473-2.688h2.305v32.26h4.032v2.88H108.1z" opacity=".7" fill="#fff"/><path d="M957.876 230.535v-2.88c3.072-10.272 12.674-16.033 12.674-23.905 0-3.648-1.824-5.473-4.177-5.473-2.736 0-4.753 2.1-5.04 7.297h-3.168c.383-7.873 3.936-10.178 8.112-10.178 4.56 0 7.73 3.072 7.73 8.833 0 8.64-7.776 11.33-12.96 23.426H974.2v2.88h-16.322zm27.314.48c-5.664 0-8.353-5.28-8.353-17.8s2.688-17.8 8.353-17.8 8.354 5.28 8.354 17.8-2.7 17.8-8.354 17.8zm0-32.738c-3.168 0-4.896 3.552-4.896 14.93s1.73 14.93 4.896 14.93 4.896-3.552 4.896-14.93-1.73-14.93-4.896-14.93zm10.923 32.258v-2.88h4.225v-27.843l-4.32.385v-2.112c1.968-.48 3.9-1.345 5.473-2.688h2.304v32.26h4.032v2.88h-11.713zm26.337-28.227c-.48-3.455-2.4-4.03-3.744-4.03-3.072 0-4.992 4.225-5.088 13.873 1.392-1.488 3.264-2.64 5.328-2.64 3.9 0 7.44 2.784 7.44 10.656 0 6.72-2.88 10.85-7.44 10.85-6 0-8.88-3.456-8.88-15.937 0-13.92 3.265-19.682 8.736-19.682 4.465 0 6.145 2.688 6.817 6.72l-3.17.2zm-8.928 16.322c0 7.008 1.824 9.504 4.896 9.504 2.688 0 4.512-2.016 4.512-8.016 0-6.193-2.112-7.73-4.32-7.73s-3.937 1.44-5.088 2.976v3.265z" opacity=".7" fill="#fff"/><g fill="#01060c"><path d="M62.212 80h-24.96c-1.44 0-2.64-1.14-2.64-2.52V39.862c0-1.44 1.2-2.58 2.64-2.58h24.96c1.56 0 2.52 1.14 2.52 2.52 0 1.26-.9 2.58-2.52 2.58H39.774v12.12h15.72c1.5 0 2.58 1.2 2.58 2.58s-1.02 2.58-2.58 2.58h-15.72V74.9h22.438c1.62 0 2.52 1.26 2.52 2.58 0 1.38-.96 2.52-2.52 2.52zm29.94.06c-.72 0-1.38-.24-1.92-.96l-9.78-11.94-9.78 11.94c-.6.6-1.26.9-1.92.9-1.38 0-2.7-1.14-2.7-2.52 0-.54.24-1.2.72-1.74l10.32-12.66-8.82-10.74c-.48-.54-.66-1.14-.66-1.68 0-1.44 1.32-2.58 2.7-2.58a2.32 2.32 0 0 1 1.92.96l8.22 10.08 8.28-10.08c.54-.66 1.14-.96 1.8-.96 1.38 0 2.76 1.14 2.76 2.58 0 .54-.24 1.08-.66 1.62l-8.88 10.8 10.44 12.66a2.65 2.65 0 0 1 .66 1.74c0 1.44-1.38 2.58-2.7 2.58z"/><use xlink:href="#Q"/><use xlink:href="#R"/><path d="M155.38 66.68h-22.2c.84 5.64 4.44 9.238 9.72 9.238 2.7 0 5.4-.96 7.14-3.12.54-.6 1.14-.96 1.86-.96 1.32 0 2.7 1.2 2.7 2.64 0 .72-.18 1.26-1.44 2.52-2.7 2.64-6.42 4.02-10.26 4.02-9.66 0-15.06-7.98-15.06-16.98 0-8.94 5.4-16.92 15.06-16.92 9.78 0 15 7.98 15 16.92 0 1.32-.96 2.64-2.52 2.64zM142.9 52.22c-5.64 0-8.94 4.14-9.72 9.3h19.44c-.84-5.76-4.44-9.3-9.72-9.3zM200.138 80c-1.26 0-2.52-.9-2.52-2.52V58.582c0-3.48-2.88-6.36-6.3-6.36-3.54 0-6.36 2.88-6.36 6.3V77.42c0 1.68-1.2 2.58-2.58 2.58-1.32 0-2.52-.9-2.52-2.52V58.582c0-3.48-2.88-6.36-6.36-6.36s-6.36 2.88-6.36 6.3V77.42c0 1.68-1.26 2.58-2.64 2.58-1.26 0-2.52-.9-2.52-2.52V50.662c0-1.74 1.32-2.58 2.64-2.58.84 0 1.68.36 2.16 1.14a11.56 11.56 0 0 1 6.66-2.1c3.6 0 6.84 1.62 8.94 4.26 2.1-2.64 5.28-4.26 8.88-4.26 6.36 0 11.52 5.1 11.52 11.4V77.42c0 1.68-1.26 2.58-2.64 2.58z"/><use xlink:href="#S"/><path d="M271.417 61.52h-12.84V77.42c0 1.56-1.2 2.58-2.52 2.58-1.44 0-2.64-.96-2.64-2.52V39.862c0-1.08.72-2.58 2.52-2.58h15.54c5.28 0 12.06 4.14 12.06 12.06 0 6.78-5.4 12.18-12.12 12.18zm0-19.14h-12.84v14.04h12.78a6.99 6.99 0 0 0 7.02-7.02c0-3.9-3.12-7.02-6.96-7.02z"/><use xlink:href="#T"/><path d="M345.577 51.68l-10.92 26.28c-.54 1.38-1.44 2.04-2.58 2.04-1.02 0-1.98-.66-2.58-2.04l-10.92-26.28c-.12-.42-.18-.72-.18-1.08 0-1.44 1.32-2.46 2.64-2.46.9 0 1.8.48 2.28 1.56l8.76 21 8.76-21c.42-1.14 1.5-1.62 2.34-1.62 1.38 0 2.64.96 2.64 2.46a2.99 2.99 0 0 1-.239 1.141z"/><use xlink:href="#S" x="140.815"/><use xlink:href="#R" x="268.724"/><use xlink:href="#Q" x="301.783"/><path d="M440.974 51.742l-16.2 36.838c-1.2 2.76-3.84 4.02-6.6 4.02h-1.92c-1.74 0-2.52-1.26-2.52-2.64 0-1.26.78-2.52 2.52-2.52h1.86c.78 0 1.62-.12 1.98-.96l3.96-8.88-11.7-25.858c-.24-.42-.3-.78-.3-1.14 0-1.5 1.44-2.52 2.76-2.52.9 0 1.68.48 2.16 1.56l9.78 21.72 9.54-21.72c.48-1.08 1.38-1.5 2.22-1.5 1.38 0 2.76 1.02 2.76 2.46 0 .42-.06.72-.3 1.14z"/></g><g fill="#e6ffbf"><path d="M459.515 43.28a4.32 4.32 0 1 1 0-8.639 4.32 4.32 0 1 1 0 8.639zm0 36.72c-1.32 0-2.64-.9-2.64-2.52V50.72c0-1.68 1.32-2.58 2.64-2.58 1.26 0 2.52.9 2.52 2.58v26.76c0 1.68-1.26 2.52-2.52 2.52zm33.658 0c-1.32 0-2.52-.9-2.52-2.52V60.8c0-4.68-3.9-8.58-8.58-8.58-4.62 0-8.52 3.9-8.52 8.58v16.62c0 1.68-1.26 2.64-2.64 2.64-1.26 0-2.52-.9-2.52-2.58V50.662c0-1.74 1.26-2.52 2.52-2.52 1.2 0 2.28.66 2.58 1.98 2.34-1.86 5.28-3 8.58-3 7.44 0 13.68 6.18 13.68 13.68v16.62c0 1.68-1.2 2.58-2.58 2.58zm39.24 0h-16.14c-1.38 0-2.64-1.26-2.64-2.52V39.862c0-1.44 1.08-2.58 2.52-2.58h14.88c6.12 0 11.22 5.04 11.22 11.1a10.8 10.8 0 0 1-3.419 7.979c3.84 2.16 6.3 6.24 6.3 10.92 0 6.96-5.76 12.72-12.72 12.72zm-1.38-37.618h-12.24v12.12h12.24c3.84 0 6.06-3.24 6.06-6.06 0-3.3-2.7-6.06-6.06-6.06zm1.38 17.22h-13.62v15.3h13.62c4.08 0 7.56-3.54 7.56-7.62 0-4.2-3.48-7.68-7.56-7.68zM578.432 80c-3.3 0-4.8-2.34-5.34-3.42-2.4 2.64-5.88 4.44-10.56 4.44-9.78 0-15.06-8.04-15.06-16.98s5.4-16.92 15.06-16.92c4.2 0 7.56 1.5 9.9 3.96v-.24c0-.66.24-2.7 2.52-2.7 1.26 0 2.64.66 2.64 2.52v23.16c0 .78.54 1.08.84 1.08 1.68 0 2.58 1.2 2.58 2.58 0 1.26-.9 2.52-2.58 2.52zm-15.898-27.78c-6 0-9.9 4.68-9.9 11.82 0 7.2 3.9 11.88 9.9 11.88 6.06 0 9.9-4.68 9.9-11.88 0-7.14-3.84-11.82-9.9-11.82zM608.973 80c-1.32 0-2.52-.9-2.52-2.52V60.8c0-4.68-3.9-8.58-8.58-8.58-4.62 0-8.52 3.9-8.52 8.58v16.62c0 1.68-1.26 2.64-2.64 2.64-1.26 0-2.52-.9-2.52-2.58V50.662c0-1.74 1.26-2.52 2.52-2.52 1.2 0 2.28.66 2.58 1.98a13.67 13.67 0 0 1 8.58-3c7.44 0 13.68 6.18 13.68 13.68v16.62c0 1.68-1.2 2.58-2.58 2.58zm21.84 13.68c-3.66 0-12.72-1.32-12.72-4.92 0-1.38 1.26-2.7 2.58-2.7 1.38 0 .18.18 3.36 1.38 1.44.54 3.6 1.14 6.78 1.14 6.66 0 9.9-3.18 9.9-9.48v-2.7c-2.34 2.22-5.7 3.6-9.9 3.6-9.48 0-15.06-6.72-15.06-15.96 0-9 5.4-16.92 15.06-16.92 4.2 0 7.44 1.26 9.9 3.84v-.24c0-1.68 1.38-2.58 2.58-2.58 1.26 0 2.58.9 2.58 2.58V79.1c0 9.54-5.7 14.58-15.06 14.58zm0-41.458c-6 0-9.9 4.68-9.9 11.82 0 6.84 3.6 10.86 9.9 10.86s9.9-4.02 9.9-10.86c0-7.14-3.84-11.82-9.9-11.82zm26.82 27.898c-3.24 0-6-2.76-6-6.12V39.862c0-1.74 1.26-2.58 2.58-2.58s2.58.84 2.58 2.52V74c0 .72.54 1.02.84 1.02 1.68 0 2.58 1.2 2.58 2.58 0 1.32-.9 2.52-2.58 2.52zm35.22-.12c-3.3 0-4.8-2.34-5.34-3.42-2.4 2.64-5.88 4.44-10.56 4.44-9.78 0-15.06-8.04-15.06-16.98s5.4-16.92 15.06-16.92c4.2 0 7.56 1.5 9.9 3.96v-.24c0-.66.24-2.7 2.52-2.7 1.26 0 2.64.66 2.64 2.52v23.16c0 .78.54 1.08.84 1.08 1.68 0 2.58 1.2 2.58 2.58 0 1.26-.9 2.52-2.58 2.52zm-15.9-27.778c-6 0-9.9 4.68-9.9 11.82 0 7.2 3.9 11.88 9.9 11.88 6.06 0 9.9-4.68 9.9-11.88 0-7.14-3.84-11.82-9.9-11.82zm47.82 27.718c-1.32 0-2.58-.84-2.58-2.52 0 0-3.54 3.6-9.9 3.6-9.66 0-15.06-7.92-15.06-16.98 0-9 5.4-16.92 15.06-16.92 4.2 0 7.56 1.44 9.9 3.9V39.86c0-1.74 1.26-2.58 2.58-2.58s2.58.84 2.58 2.52v37.62c0 1.68-1.26 2.52-2.58 2.52zm-12.48-27.72c-6 0-9.9 4.68-9.9 11.82 0 7.2 3.9 11.88 9.9 11.88 6.06 0 9.9-4.68 9.9-11.88 0-7.14-3.84-11.82-9.9-11.82zm47.34 14.46h-22.2c.84 5.64 4.44 9.238 9.72 9.238 2.7 0 5.4-.96 7.14-3.12.54-.6 1.14-.96 1.86-.96 1.32 0 2.7 1.2 2.7 2.64 0 .72-.18 1.26-1.44 2.52-2.7 2.64-6.42 4.02-10.26 4.02-9.66 0-15.06-7.98-15.06-16.98 0-8.94 5.4-16.92 15.06-16.92 9.78 0 15 7.98 15 16.92 0 1.32-.96 2.64-2.52 2.64zm-12.48-14.46c-5.64 0-8.94 4.14-9.72 9.3h19.438c-.84-5.76-4.44-9.3-9.72-9.3z"/><use xlink:href="#U"/><path d="M817.112 80c-1.32 0-2.52-.9-2.52-2.52V60.8c0-4.68-3.9-8.58-8.58-8.58-4.62 0-8.52 3.9-8.52 8.58v16.62c0 1.68-1.26 2.64-2.64 2.64-1.26 0-2.52-.9-2.52-2.58V39.862c0-1.74 1.26-2.58 2.52-2.58 1.38 0 2.64.84 2.64 2.52v10.38c2.22-2.1 5.22-3.06 8.52-3.06 7.44 0 13.68 6.18 13.68 13.68v16.62c0 1.68-1.2 2.58-2.58 2.58zm48.058 0c-1.32 0-2.64-.9-2.64-2.52V59.66h-19.8v17.82c0 1.62-1.38 2.52-2.52 2.52-1.32 0-2.64-.9-2.64-2.52V39.803c0-1.68 1.32-2.52 2.64-2.52 1.14 0 2.52.84 2.52 2.52v14.76h19.8v-14.7c0-1.74 1.38-2.58 2.52-2.58 1.32 0 2.64.84 2.64 2.58V77.42c0 1.68-1.38 2.58-2.52 2.58zm37.03 0c-3.3 0-4.8-2.34-5.34-3.42-2.4 2.64-5.88 4.44-10.56 4.44-9.78 0-15.06-8.04-15.06-16.98s5.4-16.92 15.06-16.92c4.2 0 7.56 1.5 9.9 3.96v-.24c0-.66.24-2.7 2.52-2.7 1.26 0 2.64.66 2.64 2.52v23.16c0 .78.54 1.08.84 1.08 1.68 0 2.58 1.2 2.58 2.58 0 1.26-.9 2.52-2.58 2.52zm-15.908-27.78c-6 0-9.9 4.68-9.9 11.82 0 7.2 3.9 11.88 9.9 11.88 6.06 0 9.9-4.68 9.9-11.88 0-7.14-3.84-11.82-9.9-11.82z"/><use xlink:href="#U" x="142.918"/><path d="M70.312 141.26c-1.26 0-2.52-.9-2.52-2.58v-27.6l-11.64 21.72c-.78 1.5-1.92 1.62-2.4 1.62-.3 0-1.56-.12-2.4-1.62l-11.58-21.6v27.48c0 1.68-1.26 2.58-2.64 2.58-1.26 0-2.52-.9-2.52-2.58v-37.5c0-1.98 1.38-2.7 2.76-2.7.9 0 1.62.42 2.16 1.5l14.22 26.46 14.28-26.46c.6-1.2 1.32-1.5 2.34-1.5 1.32 0 2.58.84 2.58 2.7v37.5c0 1.68-1.26 2.58-2.64 2.58z"/><use xlink:href="#T" x="-208.544" y="61.2"/><path d="M126.232 113.422c-4.62 0-8.52 3.9-8.52 8.58v16.62c0 1.68-1.26 2.58-2.64 2.58-1.26 0-2.52-.9-2.52-2.52v-26.76c0-1.68 1.38-2.58 2.52-2.58 1.2 0 2.34.66 2.58 2.04 2.34-1.92 5.52-3.06 8.58-3.06 1.74 0 2.64 1.2 2.64 2.58 0 1.32-.9 2.52-2.64 2.52z"/><use xlink:href="#V"/><path d="M197.378 103.582h-9.96v35.1c0 1.62-1.2 2.52-2.52 2.52-1.26 0-2.58-.9-2.58-2.52v-35.1h-9.84c-1.74 0-2.64-1.32-2.64-2.58 0-1.2.9-2.52 2.58-2.52h24.96c1.68 0 2.58 1.32 2.58 2.52 0 1.26-.9 2.58-2.58 2.58zm30.96 37.618c-1.32 0-2.52-.9-2.52-2.52V122c0-4.68-3.9-8.58-8.58-8.58-4.62 0-8.52 3.9-8.52 8.58v16.62c0 1.68-1.26 2.64-2.64 2.64-1.26 0-2.52-.9-2.52-2.58v-37.618c0-1.74 1.26-2.58 2.52-2.58 1.38 0 2.64.84 2.64 2.52v10.38c2.22-2.1 5.22-3.06 8.52-3.06 7.44 0 13.68 6.18 13.68 13.68v16.62c0 1.68-1.2 2.58-2.58 2.58z"/><use xlink:href="#W"/><path d="M295.417 141.2c-1.32 0-2.52-.9-2.52-2.52V122c0-4.68-3.9-8.58-8.58-8.58-4.62 0-8.52 3.9-8.52 8.58v16.62c0 1.68-1.26 2.64-2.64 2.64-1.26 0-2.52-.9-2.52-2.58v-26.82c0-1.74 1.26-2.52 2.52-2.52 1.2 0 2.28.66 2.58 1.98 2.34-1.86 5.28-3 8.58-3 7.44 0 13.68 6.18 13.68 13.68v16.62c0 1.68-1.2 2.58-2.58 2.58zm48.06 0c-1.32 0-2.64-.9-2.64-2.52v-17.82h-19.8v17.82c0 1.62-1.38 2.52-2.52 2.52-1.32 0-2.64-.9-2.64-2.52V101c0-1.68 1.32-2.52 2.64-2.52 1.14 0 2.52.84 2.52 2.52v14.76h19.8v-14.7c0-1.74 1.38-2.58 2.52-2.58 1.32 0 2.64.84 2.64 2.58v37.56c0 1.68-1.38 2.58-2.52 2.58z"/><use xlink:href="#W" x="116.819"/><path d="M393.096 141.32c-3.24 0-6-2.76-6-6.12v-34.14c0-1.74 1.26-2.58 2.58-2.58s2.58.84 2.58 2.52v34.2c0 .72.54 1.02.84 1.02 1.68 0 2.58 1.2 2.58 2.58 0 1.32-.9 2.52-2.58 2.52zm30.12-28.438l-10.92 26.278c-.54 1.38-1.44 2.04-2.58 2.04-1.02 0-1.98-.66-2.58-2.04l-10.92-26.278c-.12-.42-.18-.72-.18-1.08 0-1.44 1.32-2.46 2.64-2.46.9 0 1.8.48 2.28 1.56l8.76 20.998 8.76-20.998c.42-1.14 1.5-1.62 2.34-1.62 1.38 0 2.64.96 2.64 2.46 0 .3-.06.72-.24 1.14z"/><use xlink:href="#V" x="298.254"/><path d="M485.734 141.14c-1.32 0-2.58-.84-2.58-2.52 0 0-3.54 3.6-9.9 3.6-9.66 0-15.06-7.92-15.06-16.98 0-9 5.4-16.92 15.06-16.92 4.2 0 7.56 1.44 9.9 3.9v-11.16c0-1.74 1.26-2.58 2.58-2.58s2.58.84 2.58 2.52v37.62c0 1.68-1.26 2.52-2.58 2.52zm-12.48-27.72c-6 0-9.9 4.68-9.9 11.82 0 7.2 3.9 11.88 9.9 11.88 6.06 0 9.9-4.68 9.9-11.88 0-7.14-3.84-11.82-9.9-11.82z"/></g><defs ><path id="G" d="M104.714 1045.51c-.633 0-1.267-.367-1.4-1.1-1.334 1.034-2.97 1.668-4.804 1.668-4.136 0-7.604-3.436-7.604-7.605v-9.24a1.37 1.37 0 0 1 1.4-1.435c.768 0 1.468.5 1.468 1.4v9.272c0 2.602 2.168 4.77 4.736 4.77 2.603 0 4.77-2.17 4.77-4.77v-9.24c0-1.034.667-1.468 1.4-1.468.768 0 1.435.5 1.435 1.435v14.9c0 .934-.667 1.4-1.4 1.4z"/><path id="H" d="M886.282 1046.318c-3.22 0-5.02-2.64-5.02-5.66 0-3 1.8-5.64 5.02-5.64s5.02 2.64 5.02 5.64c0 3.02-1.8 5.66-5.02 5.66zm0-10.162c-2.36 0-3.88 1.9-3.88 4.5s1.52 4.52 3.88 4.52c2.38 0 3.88-1.92 3.88-4.52s-1.5-4.5-3.88-4.5z"/><path id="I" d="M910.02 1036.337a3.42 3.42 0 0 0-3.421 3.42v5.66c0 .36-.3.56-.56.56-.28 0-.58-.2-.58-.56v-9.502c0-.36.3-.56.58-.56.26 0 .56.2.56.56v.82c.9-.98 2.08-1.54 3.42-1.54.36 0 .58.3.58.56a.58.58 0 0 1-.58.581z"/><path id="J" d="M896.26 871.33c-1.512 0-2.77-1.4-2.77-2.968v-16.352c0-.504.42-.785.812-.785.364 0 .784.28.784.785v16.352c0 1.792 1.988.756 1.988 2.016 0 .477-.336.952-.812.952z"/><path id="K" d="M918.8 871.695c-1.68 0-4.508-.588-5.488-2.213-.11-.168-.11-.307-.11-.42a.86.86 0 0 1 .813-.84c.168 0 .447.14.615.393 1.008 1.232 2.8 1.484 4.172 1.484 2.717 0 4.088-.896 4.088-2.717 0-4.228-9.184-1.988-9.184-7.588 0-2.828 2.828-3.92 5.376-3.92 1.456 0 3.696.504 4.815 1.624.168.168.252.364.252.532 0 .42-.42.84-.867.84-.168 0-.364-.057-.532-.225-.868-.84-2.437-1.176-3.668-1.176-2.464 0-3.78.953-3.78 2.324 0 3.92 9.184 1.848 9.184 7.588 0 3.192-2.8 4.312-5.684 4.312z"/><path id="L" d="M951.25 871.638c-2.436 0-4.256-1.008-5.432-2.66v7.252c0 .504-.42.813-.784.813-.392 0-.812-.31-.812-.812v-19.15c0-.504.42-.784.812-.784.364 0 .784.28.784.784v1.372c1.176-1.624 2.996-2.632 5.432-2.632 4.508 0 7.028 3.696 7.028 7.896 0 4.23-2.52 7.924-7.028 7.924zm0-14.224c-3.332 0-5.432 2.66-5.432 6.3s2.1 6.328 5.432 6.328 5.432-2.687 5.432-6.328-2.1-6.3-5.432-6.3z"/><path id="M" d="M116.223 960.015c-.393 0-.812-.28-.812-.784v-1.4c-1.176 1.65-2.995 2.66-5.432 2.66-4.508 0-7.028-3.696-7.028-7.924 0-4.2 2.52-7.896 7.028-7.896 2.437 0 4.256 1.008 5.432 2.632v-6.44c0-.504.42-.784.813-.784.364 0 .784.28.784.784v18.367c0 .505-.42.784-.784.784zm-6.244-13.748c-3.304 0-5.432 2.66-5.432 6.3s2.128 6.327 5.432 6.327c3.332 0 5.432-2.687 5.432-6.327s-2.1-6.3-5.432-6.3z"/><path id="N" d="M133.05 953.38h-11.62c.252 3.192 2.324 5.516 5.376 5.516 1.512 0 3.304-.672 4.116-1.932.196-.308.42-.392.672-.392.42 0 .868.336.868.756 0 .252 0 .308-.532.924-1.288 1.512-3.164 2.24-5.124 2.24-4.508 0-7.028-3.696-7.028-7.924 0-4.2 2.52-7.896 7.028-7.896s7.028 3.724 7.028 7.896c0 .42-.393.812-.784.812zm-6.244-7.112c-3.36 0-5.124 2.576-5.376 5.517h10.78c-.252-3.192-2.324-5.517-5.404-5.517z"/><path id="O" d="M142.99 946.52c-2.632 0-4.788 2.128-4.788 4.788v7.924c0 .505-.42.784-.784.784-.392 0-.812-.28-.812-.784v-13.3c0-.504.42-.784.812-.784.364 0 .784.28.784.784v1.148c1.26-1.372 2.912-2.156 4.788-2.156.504 0 .813.42.813.784 0 .392-.31.812-.812.812z"/><path id="P" d="M97.925 801.295h-11.62c.252 3.19 2.323 5.516 5.375 5.516 1.512 0 3.305-.672 4.116-1.932.196-.31.42-.393.672-.393.42 0 .868.336.868.756 0 .252 0 .31-.53.924-1.29 1.512-3.164 2.24-5.125 2.24-4.508 0-7.027-3.695-7.027-7.924 0-4.2 2.52-7.896 7.027-7.896s7.028 3.725 7.028 7.896c0 .42-.392.813-.784.813zm-6.244-7.113c-3.36 0-5.123 2.576-5.375 5.517h10.78c-.252-3.192-2.324-5.517-5.404-5.517z"/><path id="Q" d="M107.692 80h-1.02c-5.7 0-7.86-3-7.86-7.92V53.242h-1.8c-1.44 0-2.58-1.14-2.58-2.52 0-1.44 1.14-2.58 2.52-2.58h1.8v-8.34c0-1.68 1.26-2.52 2.58-2.52s2.52.84 2.52 2.52v8.34h3.84c1.68 0 2.52 1.38 2.52 2.52 0 1.44-.96 2.58-2.52 2.58h-3.84v19.38c0 1.68.6 2.28 2.28 2.28h1.5c1.56 0 2.58 1.14 2.58 2.52 0 1.44-.96 2.58-2.52 2.58z"/><path id="R" d="M126.892 52.22c-4.62 0-8.52 3.9-8.52 8.58v16.62c0 1.68-1.26 2.58-2.64 2.58-1.26 0-2.52-.9-2.52-2.52V50.72c0-1.68 1.38-2.58 2.52-2.58 1.2 0 2.34.66 2.58 2.04 2.34-1.92 5.52-3.06 8.58-3.06 1.74 0 2.64 1.2 2.64 2.58 0 1.32-.9 2.52-2.64 2.52z"/><path id="S" d="M234.52 66.68h-22.2c.84 5.64 4.44 9.238 9.72 9.238 2.7 0 5.4-.96 7.14-3.12.54-.6 1.14-.96 1.86-.96 1.32 0 2.7 1.2 2.7 2.64 0 .72-.18 1.26-1.44 2.52-2.7 2.64-6.42 4.02-10.26 4.02-9.66 0-15.06-7.98-15.06-16.98 0-8.94 5.4-16.92 15.06-16.92 9.78 0 15 7.98 15 16.92 0 1.32-.96 2.64-2.52 2.64zm-12.48-14.46c-5.64 0-8.94 4.14-9.72 9.3h19.44c-.84-5.76-4.44-9.3-9.72-9.3z"/><path id="T" d="M301.297 81.02c-9.66 0-15.06-7.92-15.06-16.98 0-9 5.4-16.92 15.06-16.92s15.06 7.92 15.06 16.92c0 9.06-5.4 16.98-15.06 16.98zm0-28.8c-6 0-9.9 4.68-9.9 11.82 0 7.2 3.9 11.88 9.9 11.88 6.06 0 9.9-4.68 9.9-11.88 0-7.14-3.84-11.82-9.9-11.82z"/><path id="U" d="M776.252 81.02c-3.3 0-8.82-1.02-11.64-4.5-.36-.54-.54-1.08-.54-1.56 0-1.5 1.44-2.7 2.7-2.7.72 0 1.26.36 1.86 1.02 1.86 2.04 4.92 2.64 7.62 2.64 5.4 0 7.14-1.86 7.14-4.56 0-7.68-18.3-2.94-18.3-15.3 0-6.54 6.12-8.94 11.82-8.94 3.24 0 10.86 1.62 10.86 4.98 0 1.32-1.08 2.7-2.52 2.7-.54 0-1.38-.3-1.98-.78-1.62-1.38-3.96-1.8-6.36-1.8-4.98 0-6.72 1.86-6.72 3.84 0 7.14 18.36 2.52 18.36 15.3 0 7.08-5.94 9.66-12.3 9.66z"/><path id="V" d="M154.72 127.88h-22.2c.84 5.64 4.44 9.24 9.72 9.24 2.7 0 5.4-.96 7.14-3.12.54-.6 1.14-.96 1.86-.96 1.32 0 2.7 1.2 2.7 2.64 0 .72-.18 1.26-1.44 2.52-2.7 2.64-6.42 4.02-10.26 4.02-9.66 0-15.06-7.98-15.06-16.98 0-8.94 5.4-16.92 15.06-16.92 9.78 0 15 7.98 15 16.92 0 1.32-.96 2.64-2.52 2.64zm-12.48-14.46c-5.64 0-8.94 4.14-9.72 9.3h19.44c-.84-5.76-4.44-9.3-9.72-9.3z"/><path id="W" d="M264.877 141.2c-3.3 0-4.8-2.34-5.34-3.42-2.4 2.64-5.88 4.44-10.56 4.44-9.78 0-15.06-8.04-15.06-16.98s5.4-16.92 15.06-16.92c4.2 0 7.56 1.5 9.9 3.96v-.24c0-.66.24-2.7 2.52-2.7 1.26 0 2.64.66 2.64 2.52v23.16c0 .78.54 1.08.84 1.08 1.68 0 2.58 1.2 2.58 2.58 0 1.26-.9 2.52-2.58 2.52zm-15.9-27.78c-6 0-9.9 4.68-9.9 11.82 0 7.2 3.9 11.88 9.9 11.88 6.06 0 9.9-4.68 9.9-11.88 0-7.14-3.84-11.82-9.9-11.82z"/></defs></svg>