<svg xmlns="http://www.w3.org/2000/svg" xmlns:xlink="http://www.w3.org/1999/xlink" viewBox="0 0 1080 1080"><style><![CDATA[.U{stroke-miterlimit:10}.V{stroke-width:3}.W{stroke-linecap:round}.X{fill:#dbceb5}]]></style><linearGradient id="A" gradientUnits="userSpaceOnUse" x1="540" y1="1080" x2="540" y2="0"><stop offset="0" stop-color="#5614b0"/><stop offset=".254" stop-color="#815395"/><stop offset=".508" stop-color="#a88b7c"/><stop offset=".725" stop-color="#c4b46b"/><stop offset=".896" stop-color="#d5cd60"/><stop offset="1" stop-color="#dbd65c"/></linearGradient><path d="M1040 1080H40c-22.09 0-40-17.91-40-40V40C0 17.91 17.91 0 40 0h1000c22.09 0 40 17.91 40 40v1000c0 22.09-17.91 40-40 40z" fill="url(#A)"/><g fill="none" class="U"><g stroke="#d2c5ad" class="V W"><path d="M1045.936 428.513h0"/><path d="M1035.916 428.513H38.966" stroke-dasharray="0,10.0196"/><path d="M33.956 428.513h0"/></g><g stroke="#baa4b8" class="V W"><path d="M959.913 709.814h0"/><path d="M949.956 709.814H38.934" stroke-dasharray="0,9.9565"/><path d="M33.956 709.814h0"/><path d="M1045.935 709.814h-6.45" stroke-dasharray="0,10"/></g><path d="M34 971.528h1011.936" stroke="#a383c7" stroke-width="2"/></g><linearGradient id="B" gradientUnits="userSpaceOnUse" x1="539.288" y1="670.262" x2="1001.712" y2="670.262"><stop offset="0" stop-color="#eedd51"/><stop offset="1" stop-color="#e4c35c"/></linearGradient><path d="M540 601.775l461 136.973" fill="none" stroke="url(#B)" stroke-width="5" class="U"/><linearGradient id="C" gradientUnits="userSpaceOnUse" x1="77.538" y1="443.015" x2="541.418" y2="443.015"><stop offset="0" stop-color="#f9f746"/><stop offset="1" stop-color="#f1e34e"/></linearGradient><path d="M78.956 284.254L540 601.775" fill="none" stroke="url(#C)" stroke-width="5" class="U"/><circle cx="78.956" cy="284.254" r="45" fill="#fbfd44"/><circle cx="540" cy="601.775" r="45" fill="#f1e34e"/><linearGradient id="D" gradientUnits="userSpaceOnUse" x1="958.344" y1="726.838" x2="1044.276" y2="750.832"><stop offset="0" stop-color="#e4c35c"/><stop offset="1" stop-color="#e0bb5f"/></linearGradient><circle cx="1001" cy="738.748" r="45" fill="url(#D)"/><g fill="#ccb0eb"><path d="M33.832 1003.672v-1.68c.3-.99.7-1.918 1.176-2.786l1.54-2.464 1.652-2.24 1.512-2.128c.448-.7.812-1.404 1.093-2.114a5.99 5.99 0 0 0 .42-2.212c0-1.064-.234-1.862-.7-2.394s-1.046-.8-1.736-.8c-.803 0-1.47.332-2.002.994s-.845 1.75-.938 3.263H34c.057-1.14.22-2.09.5-2.856s.62-1.376 1.05-1.834.915-.78 1.456-.966a5.28 5.28 0 0 1 1.736-.28c1.325 0 2.408.438 3.248 1.316s1.26 2.155 1.26 3.836c0 .84-.117 1.596-.35 2.268a9.59 9.59 0 0 1-.938 1.946c-.392.626-.845 1.246-1.357 1.862l-1.6 2.03-1.694 2.45c-.57.896-1.105 1.932-1.61 3.108h7.672v1.68h-9.522z"/><use xlink:href="#F"/><path d="M59.2 1003.672v-1.68h2.464v-16.24l-2.52.224v-1.23c.578-.15 1.14-.35 1.68-.603a6.85 6.85 0 0 0 1.512-.966h1.345v18.816h2.352v1.68H59.2zm12.32-4.704c.037.374.112.752.224 1.134s.267.738.462 1.064a2.46 2.46 0 0 0 .757.798c.308.206.686.308 1.134.308.877 0 1.6-.442 2.17-1.33s.854-2.207.854-3.962c0-.95-.074-1.745-.224-2.38s-.35-1.143-.602-1.525-.547-.653-.883-.812a2.47 2.47 0 0 0-1.063-.238c-.58 0-1.106.192-1.582.574a2.83 2.83 0 0 0-.966 1.386l-1.568-.28.672-10.248h7.112l-.168 1.68h-5.32l-.392 6.16c.354-.3.76-.532 1.218-.7a4.23 4.23 0 0 1 1.47-.252 3.55 3.55 0 0 1 1.652.406c.522.27.98.682 1.372 1.23s.704 1.237.938 2.06.35 1.782.35 2.884c0 1.157-.13 2.175-.393 3.052s-.615 1.6-1.063 2.198-.97 1.03-1.568 1.33a4.19 4.19 0 0 1-1.904.448c-.728 0-1.367-.126-1.918-.378s-1.013-.598-1.386-1.036-.663-.952-.868-1.54-.326-1.2-.363-1.862l1.845-.17z"/></g><g class="X"><path d="M49.307 738.75h-.028c-.924 0-2.24-.504-2.77-2.184-1.177 1.65-2.996 2.66-5.433 2.66-4.563 0-7.027-3.752-7.027-7.924 0-4.228 2.52-7.896 7.027-7.896 2.437 0 4.256 1.008 5.433 2.632v-1.372c0-.448.363-.784.812-.784.393 0 .784.28.784.784v11.284c0 1.792 2.016.672 2.016 2.016a.77.77 0 0 1-.813.785zM41.074 725c-3.304 0-5.432 2.66-5.432 6.3s2.128 6.328 5.432 6.328c3.332 0 5.433-2.688 5.433-6.328s-2.1-6.3-5.433-6.3zm22.456-.028l-5.516 13.133c-.168.363-.42.644-.784.644s-.644-.28-.812-.644L50.902 725c-.056-.14-.056-.252-.056-.364 0-.447.392-.756.812-.756.252 0 .56.112.7.477l4.872 11.508 4.844-11.508c.168-.364.448-.504.73-.504.42 0 .812.308.812.756-.001.084-.001.224-.085.363zm14.867 7.14h-11.62c.252 3.2 2.324 5.516 5.376 5.516 1.513 0 3.305-.672 4.116-1.932.196-.3.42-.393.672-.393.42 0 .868.336.868.757 0 .252 0 .308-.532.924-1.288 1.512-3.164 2.24-5.124 2.24-4.508 0-7.027-3.695-7.027-7.924 0-4.2 2.52-7.896 7.027-7.896s7.028 3.724 7.028 7.896a.85.85 0 0 1-.784.813zM72.153 725c-3.36 0-5.124 2.576-5.376 5.516h10.78c-.25-3.2-2.324-5.516-5.404-5.516zm16.184.252c-2.632 0-4.788 2.128-4.788 4.788v7.924c0 .504-.42.784-.783.784-.393 0-.812-.28-.812-.784v-13.3c0-.504.42-.784.812-.784.363 0 .783.28.783.784v1.148c1.26-1.372 2.912-2.156 4.788-2.156.504 0 .812.42.812.784 0 .393-.308.812-.812.812zM104.6 738.75h-.028c-.924 0-2.24-.504-2.77-2.184-1.177 1.65-2.996 2.66-5.433 2.66-4.563 0-7.027-3.752-7.027-7.924 0-4.228 2.52-7.896 7.027-7.896 2.437 0 4.256 1.008 5.433 2.632v-1.372c0-.448.363-.784.812-.784.393 0 .784.28.784.784v11.284c0 1.792 2.016.672 2.016 2.016a.77.77 0 0 1-.813.785zM96.367 725c-3.304 0-5.432 2.66-5.432 6.3s2.128 6.328 5.432 6.328c3.332 0 5.433-2.688 5.433-6.328s-2.1-6.3-5.433-6.3zm17.415 20.132c-2.38 0-5.74-.896-5.74-1.903 0-.448.363-.896.812-.896.308 0 .952.476 1.484.672.728.252 1.876.532 3.443.532 3.584 0 5.433-1.764 5.433-5.208v-1.96c-1.232 1.483-2.996 2.38-5.433 2.38-4.424 0-7.027-3.136-7.027-7.448 0-4.2 2.52-7.896 7.027-7.896 2.437 0 4.256 1.008 5.433 2.632v-1.344c0-.504.42-.784.812-.784.364 0 .784.28.784.784v13.636c0 4.452-2.66 6.803-7.03 6.803zm0-20.132c-3.304 0-5.432 2.66-5.432 6.3 0 3.612 1.988 5.853 5.432 5.853s5.433-2.24 5.433-5.853c0-3.64-2.1-6.3-5.433-6.3zm23.073 7.113h-11.62c.252 3.2 2.324 5.516 5.376 5.516 1.513 0 3.305-.672 4.116-1.932.196-.3.42-.393.672-.393.42 0 .868.336.868.757 0 .252 0 .308-.532.924-1.288 1.512-3.164 2.24-5.124 2.24-4.508 0-7.027-3.695-7.027-7.924 0-4.2 2.52-7.896 7.027-7.896s7.028 3.724 7.028 7.896c0 .42-.392.813-.784.813zM130.6 725c-3.36 0-5.124 2.576-5.376 5.516h10.78c-.25-3.2-2.324-5.516-5.404-5.516zm-77.486 23.917l-4.563 13.16c-.196.532-.448.672-.812.672-.476 0-.616-.168-.784-.672l-3.668-10.92-3.668 10.92c-.195.532-.447.672-.812.672s-.645-.224-.784-.672l-4.536-13.16c-.027-.084-.056-.224-.056-.308 0-.448.448-.73.812-.73.28 0 .616.14.73.532L38.81 759.5l3.668-10.948c.168-.53.336-.672.812-.672.336 0 .616.112.784.672l3.725 10.948 3.78-11.088c.14-.392.42-.532.73-.532.42 0 .868.28.868.756a.85.85 0 0 1-.059.281zm14.17 13.833c-.393 0-.812-.28-.812-.784V753.8a4.77 4.77 0 0 0-4.788-4.788c-2.632 0-4.788 2.128-4.788 4.788v8.176c0 .504-.42.784-.783.784-.393 0-.812-.28-.812-.784v-18.368c0-.504.42-.783.812-.783.363 0 .783.28.783.783v5.965c1.177-1.372 2.885-2.156 4.788-2.156a6.44 6.44 0 0 1 6.385 6.384v8.176c-.001.502-.42.783-.785.783zm10.33.474c-4.508 0-7.027-3.695-7.027-7.924 0-4.2 2.52-7.896 7.027-7.896s7.028 3.695 7.028 7.896c.001 4.23-2.52 7.924-7.028 7.924zm0-14.224c-3.304 0-5.432 2.66-5.432 6.3s2.128 6.328 5.432 6.328c3.332 0 5.433-2.688 5.433-6.328s-2.1-6.3-5.433-6.3z"/><use xlink:href="#G"/><path d="M105.614 756.113h-11.62c.252 3.19 2.324 5.516 5.376 5.516 1.513 0 3.305-.672 4.116-1.932.196-.31.42-.393.672-.393.42 0 .868.336.868.757 0 .252 0 .308-.532.924-1.288 1.512-3.164 2.24-5.124 2.24-4.508 0-7.027-3.695-7.027-7.924 0-4.2 2.52-7.896 7.027-7.896s7.028 3.724 7.028 7.896c0 .42-.39.813-.784.813zM99.37 749c-3.36 0-5.124 2.576-5.376 5.516h10.78c-.252-3.19-2.324-5.516-5.404-5.516z"/><use xlink:href="#H"/><path d="M136.525 762.75h-.028c-.924 0-2.24-.504-2.77-2.184-1.177 1.65-2.996 2.66-5.433 2.66-4.563 0-7.027-3.752-7.027-7.924 0-4.228 2.52-7.896 7.027-7.896 2.437 0 4.256 1.008 5.433 2.632v-1.372c0-.448.363-.784.812-.784.393 0 .784.28.784.784v11.284c0 1.792 2.016.672 2.016 2.016a.77.77 0 0 1-.813.785zM128.293 749c-3.304 0-5.432 2.66-5.432 6.3s2.128 6.328 5.432 6.328c3.332 0 5.433-2.688 5.433-6.328s-2.1-6.3-5.433-6.3z"/><use xlink:href="#G" x="51.911"/><path d="M157.524 756.113h-11.62c.252 3.2 2.324 5.516 5.376 5.516 1.513 0 3.305-.672 4.116-1.932.196-.3.42-.393.672-.393.42 0 .868.336.868.757 0 .252 0 .308-.532.924-1.288 1.512-3.164 2.24-5.124 2.24-4.508 0-7.027-3.695-7.027-7.924 0-4.2 2.52-7.896 7.027-7.896s7.028 3.724 7.028 7.896a.85.85 0 0 1-.784.813zM151.28 749c-3.36 0-5.124 2.576-5.376 5.516h10.78c-.25-3.2-2.324-5.516-5.404-5.516zM47.318 780.113h-11.62c.252 3.2 2.324 5.516 5.376 5.516 1.513 0 3.305-.672 4.116-1.932.196-.3.42-.393.672-.393.42 0 .868.336.868.757 0 .252 0 .308-.532.924-1.288 1.512-3.164 2.24-5.124 2.24-4.508 0-7.027-3.695-7.027-7.924 0-4.2 2.52-7.896 7.027-7.896s7.028 3.724 7.028 7.896a.85.85 0 0 1-.784.813zM41.074 773c-3.36 0-5.124 2.576-5.376 5.516h10.78c-.25-3.2-2.324-5.516-5.404-5.516zm21.784 13.75c-.393 0-.812-.28-.812-.784V777.8a4.77 4.77 0 0 0-4.788-4.788c-2.632 0-4.788 2.128-4.788 4.788v8.176c0 .504-.42.784-.783.784-.393 0-.812-.28-.812-.784v-13.3c0-.504.42-.784.812-.784.363 0 .783.28.783.784v.896c1.26-1.372 2.912-2.156 4.788-2.156a6.44 6.44 0 0 1 6.385 6.384v8.176c0 .503-.42.784-.785.784zm16.576-6.637h-11.62c.252 3.2 2.324 5.516 5.376 5.516 1.513 0 3.305-.672 4.116-1.932.196-.3.42-.393.672-.393.42 0 .868.336.868.757 0 .252 0 .308-.532.924-1.288 1.512-3.164 2.24-5.124 2.24-4.508 0-7.027-3.695-7.027-7.924 0-4.2 2.52-7.896 7.027-7.896s7.028 3.724 7.028 7.896c0 .42-.392.813-.784.813zM73.2 773c-3.36 0-5.124 2.576-5.376 5.516h10.78c-.25-3.2-2.323-5.516-5.404-5.516zm16.183.252c-2.632 0-4.788 2.128-4.788 4.788v7.924c0 .504-.42.784-.783.784-.393 0-.812-.28-.812-.784v-13.3c0-.504.42-.784.812-.784.363 0 .783.28.783.784v1.148c1.26-1.372 2.912-2.156 4.788-2.156.504 0 .812.42.812.784a.81.81 0 0 1-.812.812zm8.68 19.88c-2.38 0-5.74-.896-5.74-1.903 0-.448.363-.896.812-.896.308 0 .952.476 1.484.672.728.252 1.876.532 3.443.532 3.584 0 5.433-1.764 5.433-5.208v-1.96c-1.232 1.483-2.996 2.38-5.433 2.38-4.424 0-7.027-3.136-7.027-7.448 0-4.2 2.52-7.896 7.027-7.896 2.437 0 4.256 1.008 5.433 2.632v-1.344c0-.504.42-.784.812-.784.364 0 .784.28.784.784v13.636c-.001 4.452-2.66 6.803-7.03 6.803zm0-20.132c-3.304 0-5.432 2.66-5.432 6.3 0 3.612 1.988 5.853 5.432 5.853s5.433-2.24 5.433-5.853c-.001-3.64-2.1-6.3-5.433-6.3zm22.51 0l-7.588 17.948c-.56 1.315-1.708 1.68-2.996 1.68h-1.232c-.504 0-.784-.42-.784-.812 0-.364.28-.784.784-.784h1.232c.616 0 1.26-.028 1.512-.672l1.596-3.8-5.796-13.55c-.056-.14-.056-.252-.056-.364 0-.447.392-.756.812-.756.252 0 .56.112.7.477l5.208 12.15 5.152-12.15c.14-.364.448-.477.728-.477.42 0 .784.3.784.756 0 .113 0 .225-.056.364zm-74.478 36.096c-1.232 1.372-2.94 2.128-5.013 2.128-4.508 0-7.027-3.695-7.027-7.924 0-4.2 2.52-7.896 7.027-7.896 2.072 0 3.78.756 5.013 2.128a.74.74 0 0 1 .224.532c0 .42-.392.84-.812.84-.195 0-.392-.084-.588-.28-.924-1.036-2.212-1.624-3.836-1.624-3.304 0-5.432 2.66-5.432 6.3s2.128 6.328 5.432 6.328c1.624 0 2.912-.616 3.836-1.624.196-.196.393-.28.588-.28.42 0 .812.364.812.812 0 .197-.056.365-.224.56zm9.407 2.128c-4.508 0-7.027-3.695-7.027-7.924 0-4.2 2.52-7.896 7.027-7.896s7.028 3.695 7.028 7.896c0 4.23-2.52 7.924-7.028 7.924zm0-14.224c-3.304 0-5.432 2.66-5.432 6.3s2.128 6.328 5.432 6.328c3.332 0 5.433-2.688 5.433-6.328s-2.1-6.3-5.433-6.3z"/><use xlink:href="#H" x="-43.875" y="48"/><path d="M83.157 810.75h-.868c-2.212 0-3.304-1.092-3.304-3.276v-9.995h-1.428c-.504 0-.784-.42-.784-.812 0-.364.28-.784.784-.784h1.428v-4.284c0-.504.42-.783.812-.783s.784.28.784.783v4.284h2.576c.504 0 .784.42.784.784 0 .392-.28.812-.784.812H80.58v9.995c0 1.372.393 1.68 1.708 1.68h.868c.504 0 .784.42.784.812 0 .363-.28.783-.784.783z"/></g><path d="M47.006 691.768c-.025.272.086.396.334.37h2.264c.27-.05.383.062.334.334v1.818c.05.272-.062.396-.334.37H47.34c-.248-.05-.36.062-.334.334v5.344c.05.322-.062.457-.334.408H44.78c-.248.05-.36-.086-.334-.408v-5.344c.05-.27-.062-.383-.334-.334h-8.6c-.248.025-.36-.1-.334-.37v-2.338l.148-.63 7.904-16.96c.074-.197.247-.297.52-.297h2.932c.27-.024.383.1.334.37v17.33zm-9.315 0c-.148.272-.074.396.223.37h6.197c.27.025.383-.1.334-.37v-13.88c-.05-.297-.148-.32-.297-.074l-6.457 13.953zm17.852 2.895c.197 2.672 1.682 4.07 4.453 4.193 1.286 0 2.338-.42 3.154-1.262.8-.84 1.2-2.016 1.225-3.525v-3.377c0-1.336-.36-2.424-1.076-3.266-.742-.865-1.78-1.3-3.117-1.336-1.608.05-2.833.47-3.674 1.262-.124.174-.285.235-.482.186h-1.818c-.272.05-.384-.062-.334-.334v-12.73c-.05-.27.062-.383.334-.334h11.578c.27-.05.383.062.334.334v1.893c.05.272-.062.396-.334.37H56.73c-.248-.05-.36.062-.334.334v7.348c0 .223.1.272.334.148 1-.544 2.214-.828 3.674-.854 2.004.025 3.6.656 4.824 1.893 1.236 1.237 1.867 2.932 1.893 5.084v3.377c-.05 2.227-.755 3.996-2.115 5.307s-3.068 2-5.12 2.04c-2.078-.05-3.736-.705-4.973-1.967-1.262-1.262-1.942-2.895-2.04-4.898-.05-.247.062-.358.334-.334h1.93c.27-.025.408.123.408.445v-.037.037z" fill="#cfbfc0"/><g class="X"><path d="M47.088 454.44c-.393 0-.812-.28-.812-.784v-8.176a4.77 4.77 0 0 0-4.788-4.788c-2.632 0-4.788 2.128-4.788 4.788v8.176c0 .504-.42.784-.783.784-.393 0-.812-.28-.812-.784v-13.3c0-.504.42-.784.812-.784.363 0 .783.28.783.784v.896c1.26-1.372 2.912-2.156 4.788-2.156a6.44 6.44 0 0 1 6.385 6.384v8.176c-.001.504-.422.784-.785.784zm15.682 0c-.393 0-.812-.28-.812-.784v-.896c-1.176 1.372-2.884 2.155-4.788 2.155-3.472 0-6.384-2.9-6.384-6.384v-8.176c0-.504.42-.784.812-.784.363 0 .783.28.783.784v8.176a4.788 4.788 0 1 0 9.576 0v-8.176c0-.504.42-.784.812-.784.363 0 .783.28.783.784v13.3a.78.78 0 0 1-.782.785zm15.594-1.653c-1.232 1.372-2.94 2.128-5.013 2.128-4.508 0-7.027-3.695-7.027-7.924 0-4.2 2.52-7.896 7.027-7.896 2.072 0 3.78.756 5.013 2.128a.74.74 0 0 1 .224.532c0 .42-.392.84-.812.84-.195 0-.392-.084-.588-.28-.924-1.036-2.212-1.624-3.836-1.624-3.304 0-5.432 2.66-5.432 6.3s2.128 6.328 5.432 6.328c1.624 0 2.912-.616 3.836-1.624.196-.196.393-.28.588-.28.42 0 .812.364.812.812 0 .196-.056.364-.224.56zm5.796 1.82c-1.513 0-2.772-1.4-2.772-2.968v-16.353c0-.504.42-.783.812-.783.363 0 .783.28.783.783v16.353c0 1.792 1.988.756 1.988 2.016.001.476-.335.952-.8.952z"/><use xlink:href="#I"/><path d="M117.76 454.44h-.028c-.924 0-2.24-.504-2.77-2.184-1.177 1.65-2.996 2.66-5.433 2.66-4.563 0-7.027-3.752-7.027-7.924 0-4.228 2.52-7.896 7.027-7.896 2.437 0 4.256 1.008 5.433 2.632v-1.372c0-.448.363-.784.812-.784.393 0 .784.28.784.784v11.284c0 1.792 2.016.672 2.016 2.016a.77.77 0 0 1-.813.785zm-8.233-13.748c-3.304 0-5.432 2.66-5.432 6.3s2.128 6.328 5.432 6.328c3.332 0 5.433-2.688 5.433-6.328s-2.1-6.3-5.433-6.3zm17.415.25c-2.632 0-4.788 2.128-4.788 4.788v7.924c0 .504-.42.784-.783.784-.393 0-.812-.28-.812-.784v-13.3c0-.504.42-.784.812-.784.363 0 .783.28.783.784v1.148c1.26-1.372 2.912-2.156 4.788-2.156.504 0 .812.42.812.784.001.392-.308.812-.812.812z"/><use xlink:href="#I" x="-50.456" y="22"/><path d="M64.672 476.44c-.393 0-.813-.28-.813-.784v-8.176a4.77 4.77 0 0 0-4.788-4.788c-2.632 0-4.788 2.128-4.788 4.788v8.176c0 .504-.42.784-.783.784-.393 0-.812-.28-.812-.784v-13.3c0-.504.42-.784.812-.784.363 0 .783.28.783.784v.896c1.26-1.372 2.912-2.156 4.788-2.156a6.44 6.44 0 0 1 6.385 6.384v8.176c0 .504-.42.784-.784.784zm16.575-6.637h-11.62c.252 3.2 2.324 5.516 5.376 5.516 1.513 0 3.305-.672 4.116-1.932.196-.3.42-.393.672-.393.42 0 .868.336.868.757 0 .252 0 .308-.532.924-1.288 1.512-3.164 2.24-5.124 2.24-4.508 0-7.027-3.695-7.027-7.924 0-4.2 2.52-7.896 7.027-7.896s7.028 3.724 7.028 7.896a.85.85 0 0 1-.784.813zm-6.244-7.112c-3.36 0-5.124 2.576-5.376 5.516h10.78c-.252-3.192-2.324-5.516-5.404-5.516zm16.184.252c-2.632 0-4.788 2.128-4.788 4.788v7.924c0 .504-.42.784-.783.784-.393 0-.812-.28-.812-.784v-13.3c0-.504.42-.784.812-.784.363 0 .783.28.783.784v1.148c1.26-1.372 2.912-2.156 4.788-2.156.504 0 .812.42.812.784 0 .392-.3.812-.812.812zm8.68 19.88c-2.38 0-5.74-.896-5.74-1.903 0-.448.363-.896.812-.896.308 0 .952.476 1.484.672.728.252 1.876.532 3.443.532 3.584 0 5.433-1.764 5.433-5.208v-1.96c-1.232 1.483-2.996 2.38-5.433 2.38-4.424 0-7.027-3.136-7.027-7.448 0-4.2 2.52-7.896 7.027-7.896 2.437 0 4.256 1.008 5.433 2.632v-1.344c0-.504.42-.784.812-.784.364 0 .784.28.784.784v13.636c0 4.45-2.66 6.803-7.03 6.803zm0-20.132c-3.304 0-5.432 2.66-5.432 6.3 0 3.612 1.988 5.853 5.432 5.853s5.433-2.24 5.433-5.853c0-3.64-2.1-6.3-5.433-6.3zm22.513-.001l-7.588 17.948c-.56 1.315-1.708 1.68-2.996 1.68h-1.232c-.504 0-.784-.42-.784-.812 0-.364.28-.784.784-.784h1.232c.616 0 1.26-.028 1.512-.672l1.596-3.8-5.796-13.552c-.056-.14-.056-.252-.056-.364 0-.447.392-.756.812-.756.252 0 .56.112.7.477l5.208 12.15 5.152-12.15c.14-.364.448-.477.728-.477.42 0 .784.3.784.756 0 .113 0 .225-.056.365z"/></g><g fill="#ccb0eb"><use xlink:href="#J"/><use xlink:href="#F" x="965.963"/><use xlink:href="#K"/><path d="M1037.816 999.92c.074.504.19.9.35 1.218s.34.546.547.714.42.28.644.336.438.084.644.084c.896 0 1.605-.644 2.13-1.932s.802-3.34.84-6.16c-.41.43-.882.794-1.414 1.092s-1.097.448-1.694.448c-.56 0-1.102-.107-1.624-.322s-.984-.568-1.386-1.063-.724-1.134-.966-1.918-.364-1.755-.364-2.912c0-1.98.387-3.528 1.162-4.648s1.834-1.68 3.178-1.68c.877 0 1.638.145 2.282.435s1.18.783 1.6 1.483.75 1.652.966 2.856.32 2.71.32 4.52c0 2.035-.116 3.775-.35 5.223s-.57 2.632-1.008 3.556-.97 1.605-1.596 2.044-1.34.658-2.143.658c-.653 0-1.21-.094-1.666-.28a3.04 3.04 0 0 1-1.147-.798c-.31-.346-.556-.756-.742-1.232s-.327-1.012-.42-1.61l1.847-.114zm5.208-9.52c0-1.026-.065-1.9-.196-2.6s-.317-1.27-.56-1.708-.542-.756-.896-.952-.756-.294-1.204-.294c-.392 0-.75.08-1.077.238s-.603.42-.826.784-.4.845-.532 1.442-.196 1.334-.196 2.212c0 .896.07 1.638.2 2.226s.327 1.05.56 1.386.504.57.812.7a2.38 2.38 0 0 0 .938.196c.653 0 1.227-.178 1.722-.532s.9-.756 1.246-1.204V990.4z"/><use xlink:href="#J" x="-482.226"/><path d="M539.184 993.564c0 1.83-.098 3.398-.294 4.704s-.495 2.38-.896 3.22-.9 1.46-1.526 1.86-1.335.603-2.156.603-1.54-.2-2.156-.603-1.124-1.02-1.525-1.86-.7-1.914-.896-3.22-.294-2.874-.294-4.704.1-3.396.294-4.703.495-2.38.896-3.22.9-1.46 1.525-1.86 1.335-.603 2.156-.603 1.54.2 2.156.603 1.124 1.02 1.526 1.86.7 1.914.896 3.22.294 2.874.294 4.703zm-2.016 0l-.183-4.157c-.12-1.1-.304-2.002-.546-2.675s-.54-1.152-.896-1.44-.766-.435-1.232-.435a1.89 1.89 0 0 0-1.231.435c-.355.29-.654.77-.896 1.44s-.425 1.564-.546 2.675-.182 2.496-.182 4.157l.182 4.158c.12 1.11.303 2.002.546 2.674s.54 1.153.896 1.442.765.434 1.23.434a1.89 1.89 0 0 0 1.232-.434c.354-.29.653-.77.896-1.442s.425-1.562.546-2.674.183-2.496.183-4.158z"/><use xlink:href="#K" x="-482.224"/><path d="M553.52 983.457h9.072v1.063l-5.88 19.152h-2.128l5.88-18.536h-6.944v-1.68z"/></g><path d="M997.518 743.887c-.025.272.086.396.334.37h2.264c.27-.05.383.062.334.334v1.818c.05.272-.062.396-.334.37h-2.264c-.248-.05-.36.062-.334.334v5.344c.05.322-.062.457-.334.408h-1.893c-.248.05-.36-.086-.334-.408v-5.344c.05-.27-.062-.383-.334-.334h-8.6c-.248.025-.36-.1-.334-.37v-2.338l.148-.63 7.904-16.96c.074-.197.247-.297.52-.297h2.932c.27-.024.383.1.334.37v17.33zm-9.315 0c-.148.272-.074.396.223.37h6.197c.27.025.383-.1.334-.37v-13.88c-.05-.297-.148-.32-.297-.074l-6.457 13.953zm28.317-16.105c1.36 1.4 2.065 3.254 2.115 5.53v12.543c-.05 2.276-.755 4.132-2.115 5.566-1.36 1.4-3.154 2.14-5.38 2.2-2.202-.05-3.996-.78-5.38-2.2-1.36-1.435-2.054-3.3-2.078-5.566V733.3c.024-2.275.717-4.12 2.078-5.53 1.385-1.435 3.18-2.164 5.38-2.2 2.227.025 4.02.754 5.38 2.2zm-10.056 5.53v12.543c.024 1.534.445 2.77 1.262 3.7.84.94 1.98 1.423 3.414 1.447 1.435-.024 2.572-.507 3.414-1.447s1.273-2.177 1.3-3.7V733.3c-.025-1.533-.458-2.758-1.3-3.674-.842-.94-1.98-1.422-3.414-1.447-1.436.025-2.573.508-3.414 1.447-.817.916-1.238 2.14-1.262 3.674v-.037.037zM62.738 272.027l.445-.334h2.635c.27 0 .396.124.37.37v23.453c-.05.272.062.396.334.37h4.824c.27-.05.383.062.334.334v1.818c.024.272-.087.383-.334.334H58.2c-.272.05-.396-.062-.37-.334v-1.818c-.025-.27.1-.383.37-.334h5c.247.025.358-.1.334-.37v-19.78c-.025-.297-.148-.32-.37-.074-1.163 1.1-2.857 2.078-5.084 2.97-.198.1-.3.037-.334-.186v-1.893c0-.148.086-.26.26-.334 2.102-.9 3.673-2.288 4.712-4.193V272v.037zm16.687 0l.445-.334h2.635c.27 0 .396.124.37.37v23.453c-.05.272.062.396.334.37h4.824c.27-.05.383.062.334.334v1.818c.024.272-.087.383-.334.334H74.897c-.272.05-.396-.062-.37-.334v-1.818c-.025-.27.1-.383.37-.334h5c.247.025.358-.1.334-.37v-19.78c-.025-.297-.148-.32-.37-.074-1.163 1.1-2.857 2.078-5.084 2.97-.198.1-.3.037-.334-.186v-1.893c0-.148.086-.26.26-.334 2.102-.9 3.674-2.288 4.713-4.193V272v.037zm23.188 3.266c-2.252 3.785-3.9 7.5-4.973 11.17s-1.683 7.546-1.855 11.652c.05.32-.074.457-.37.408H93.3c-.272-.025-.384-.16-.334-.408.173-3.884.865-7.817 2.078-11.8a49.1 49.1 0 0 1 5.084-11.43c.223-.346.2-.52-.037-.52H88.66c-.272.05-.384-.074-.334-.37v-1.967c-.05-.27.062-.383.334-.334h13.768c.27-.05.383.062.334.334v2.746l-.15.52v-.037.037zm425.183 326.65c.024.272.136.322.334.148.8-1.063 2.288-1.694 4.5-1.893 2.2.05 3.945.83 5.232 2.338s1.94 3.427 1.967 5.752c-.025 2.276-.705 4.22-2.04 5.826-1.312 1.608-3.105 2.45-5.38 2.523-2.276-.074-4.07-.902-5.38-2.486s-1.98-3.574-2.004-5.975v-11.652c.024-2.227.692-4.082 2.004-5.566 1.3-1.5 3.13-2.288 5.455-2.338 1.88.025 3.476.57 4.787 1.633 1.3 1.1 2.103 2.55 2.375 4.38.05.223-.074.334-.37.334h-2.2c-.248 0-.37-.148-.37-.445a4.87 4.87 0 0 0-1.299-2.301c-.644-.618-1.633-.94-2.97-.965-1.46.025-2.598.52-3.414 1.484-.816 1-1.225 2.252-1.225 3.785v5.42zm0 6.42c0 1.633.396 2.97 1.188 4.008.8 1.064 1.93 1.62 3.414 1.67 1.484-.05 2.622-.605 3.414-1.67.767-1.063 1.162-2.424 1.188-4.082-.025-1.633-.408-2.956-1.15-3.97-.768-1.014-1.893-1.533-3.377-1.56-3.094.2-4.653 2.067-4.677 5.604v-.037.037zm17.93 4.5c-.025.248.086.36.334.334h10.836c.27-.05.383.062.334.334v2.004c.05.272-.062.396-.334.37h-13.62c-.272.024-.384-.1-.334-.37v-2.04c.123-3.34 1.088-5.875 2.895-7.607l5.38-4.676c1.806-1.36 2.783-3.142 2.932-5.344-.025-1.336-.396-2.424-1.113-3.266-.718-.865-1.72-1.3-3.006-1.336-1.4.025-2.5.495-3.266 1.4s-1.176 2.03-1.225 3.34c.024.347-.1.495-.408.445h-2.004c-.272.05-.384-.062-.334-.334.1-2.028.804-3.772 2.115-5.232 1.286-1.46 3.006-2.214 5.158-2.264 2.004.025 3.648.705 4.936 2.04 1.286 1.312 1.954 3.006 2.004 5.084-.148 2.697-1.113 4.787-2.895 6.27l-5.38 4.5c-1.807 1.486-2.8 3.6-3.006 6.347v-.037.037z" fill="#572699"/><g fill="#a383c7"><path d="M42.328 1046.045c-3.568 0-5.47-1.97-5.503-2.002 0 .935-.7 1.4-1.468 1.4-.7 0-1.4-.467-1.4-1.4v-20.88a1.35 1.35 0 0 1 1.401-1.434c.767 0 1.468.467 1.468 1.4v6.238c1.334-1.368 3.168-2.17 5.503-2.17 5.37 0 8.373 4.403 8.373 9.406 0 5.04-3.002 9.442-8.373 9.442zm0-16c-3.335 0-5.503 2.602-5.503 6.57 0 4.003 2.168 6.604 5.503 6.604s5.504-2.602 5.504-6.604c0-3.968-2.168-6.57-5.504-6.57zm25.555 8.037h-12.34c.467 3.136 2.468 5.137 5.403 5.137 1.5 0 3.002-.533 3.97-1.734.3-.333.634-.533 1.034-.533.734 0 1.5.667 1.5 1.468 0 .4-.1.7-.8 1.4-1.5 1.468-3.57 2.235-5.704 2.235-5.37 0-8.372-4.437-8.372-9.44 0-4.97 3.002-9.406 8.372-9.406 5.437 0 8.34 4.437 8.34 9.406 0 .734-.534 1.467-1.4 1.467zm-6.938-8.038c-3.136 0-4.97 2.3-5.403 5.17H66.35c-.467-3.202-2.468-5.17-5.404-5.17zM88 1045.478c-1.834 0-2.668-1.3-2.97-1.9-1.334 1.468-3.27 2.47-5.87 2.47-5.438 0-8.372-4.47-8.372-9.44s3.002-9.406 8.372-9.406c2.335 0 4.203.834 5.504 2.202v-.134c0-.367.133-1.5 1.4-1.5.7 0 1.468.367 1.468 1.4v12.875c0 .434.3.6.467.6.935 0 1.435.667 1.435 1.434a1.37 1.37 0 0 1-1.435 1.4zm-8.84-15.444c-3.336 0-5.504 2.602-5.504 6.57 0 4.003 2.168 6.604 5.504 6.604 3.37 0 5.504-2.602 5.504-6.604 0-3.968-2.135-6.57-5.504-6.57zm25.554 15.476c-.633 0-1.267-.367-1.4-1.1-1.334 1.034-2.97 1.668-4.804 1.668-4.136 0-7.604-3.436-7.604-7.605v-9.24a1.37 1.37 0 0 1 1.4-1.435c.768 0 1.468.5 1.468 1.4v9.272c0 2.602 2.168 4.77 4.736 4.77 2.603 0 4.77-2.17 4.77-4.77v-9.24c0-1.034.667-1.468 1.4-1.468.768 0 1.435.5 1.435 1.435v14.9c-.001.934-.668 1.4-1.402 1.4zm10.444-.032h-.567c-3.17 0-4.37-1.668-4.37-4.403V1030.6h-1c-.8 0-1.435-.634-1.435-1.4 0-.8.634-1.435 1.4-1.435h1v-4.637c0-.934.7-1.4 1.435-1.4s1.4.467 1.4 1.4v4.637h2.135c.934 0 1.4.768 1.4 1.4 0 .8-.533 1.434-1.4 1.434h-2.135v10.774c0 .934.333 1.268 1.268 1.268h.833c.868 0 1.435.634 1.435 1.4-.001.8-.534 1.435-1.4 1.435zm4.604-20.415a2.401 2.401 0 1 1 0-4.802 2.401 2.401 0 1 1 0 4.802zm0 20.415c-.733 0-1.467-.5-1.467-1.4V1029.2c0-.935.733-1.435 1.467-1.435a1.37 1.37 0 0 1 1.401 1.435v14.876c0 .935-.7 1.402-1.4 1.402zm10.376-14.878h-1.5v13.442c0 .935-.7 1.4-1.468 1.4-.7 0-1.4-.467-1.4-1.4V1030.6h-1.37c-.9 0-1.4-.667-1.4-1.4 0-.768.5-1.435 1.4-1.435h1.367v-2.27c0-2.135 1.77-3.77 3.836-3.77.968 0 1.468.667 1.468 1.434 0 .7-.5 1.4-1.468 1.4-.566 0-.967.434-.967.9v2.302h1.5c.967 0 1.468.667 1.468 1.435 0 .734-.5 1.4-1.467 1.4zm16.644 14.9c-.633 0-1.267-.367-1.4-1.1-1.334 1.034-2.97 1.668-4.804 1.668-4.136 0-7.604-3.436-7.604-7.605v-9.24a1.37 1.37 0 0 1 1.4-1.435c.768 0 1.468.5 1.468 1.4v9.272c0 2.602 2.168 4.77 4.736 4.77 2.603 0 4.77-2.17 4.77-4.77v-9.24c0-1.034.667-1.468 1.4-1.468.768 0 1.435.5 1.435 1.435v14.9c0 .934-.667 1.4-1.402 1.4zm7.943.034c-1.802 0-3.336-1.534-3.336-3.402v-18.98c0-.967.7-1.434 1.435-1.434s1.435.467 1.435 1.4v19.013c0 .4.3.567.467.567.934 0 1.435.667 1.435 1.435-.002.733-.503 1.4-1.436 1.4zm15.37-.066v-1.264c1.886-.237 2.046-.438 2.046-3.157v-6.7c0-2.8-1.248-4.017-3.064-4.017-1.237 0-2.345.6-3.47 1.493v9.476c0 2.527.187 2.658 2.06 2.896v1.264h-8.968v-1.264c2.254-.33 2.5-.4 2.5-3v-8.2c0-2.446-.303-2.565-2.185-2.922v-1.184c2.173-.292 4.63-.807 6.653-1.533l-.052 2.95 2.6-1.745c1.16-.713 2-1.086 3.16-1.086 3.194 0 5.2 2.338 5.2 6.3v7.5c0 2.54.237 2.657 2.277 2.92v1.264h-8.74zm23.9-3.703c-2.458 3.427-5.488 4.178-7.014 4.178-5.142 0-8.124-3.936-8.124-8.594 0-2.745 1.183-5.396 2.832-7.062 1.74-1.8 3.945-2.814 6.082-2.814 3.73 0 6.396 3.126 6.37 6.347-.014.715-.08 1.277-.612 1.4-.767.184-6.17.5-10.318.647.062 4.587 2.717 6.74 5.556 6.74 1.572 0 3.104-.597 4.543-1.866l.685 1.014zm-7.07-12.7c-1.667 0-3.167 1.807-3.516 4.963l5.486-.118c.6-.026.848-.146.848-.792.04-2.022-1.037-4.053-2.818-4.053zm34.284.145c-1.943.343-2.248.624-3.105 2.765-1.33 3.462-3.102 8.53-4.934 13.94h-1.512l-4.65-11.46-4.55 11.46h-1.472l-4.685-14.192c-.687-1.985-.94-2.274-2.855-2.512v-1.25h9.397v1.25c-2.325.345-2.535.672-2.058 2.133l2.52 8.214c1.507-3.68 2.988-7.62 4.327-11.424h1.456c1.4 3.76 2.986 7.702 4.573 11.568.742-2.107 2.062-5.964 2.557-8.108.412-1.674-.008-2.078-2.753-2.383v-1.25h7.742v1.25zm9.4 3.746c-.92-2.606-2.155-3.984-4.2-3.984-1.206 0-2.225.86-2.225 2.266 0 1.497 1.046 2.264 3.16 3.216 3.278 1.496 5.3 2.787 5.3 5.736 0 3.85-3.6 5.764-6.945 5.764-2.06 0-4.088-.737-4.92-1.16l-.662-4.892 1.252-.224c.8 2.5 2.33 4.75 4.976 4.75 1.505 0 2.438-.952 2.438-2.28 0-1.423-.76-2.333-3.092-3.467-2.67-1.295-5.107-2.64-5.107-5.775 0-3.046 2.533-5.42 6.565-5.42 1.818 0 3.242.396 4.112.567l.62 4.577-1.25.328zm624.264 13.402c-1.2 0-3.22-.42-3.92-1.58-.08-.12-.08-.22-.08-.3 0-.32.28-.6.58-.6.12 0 .32.1.44.28.72.88 2 1.06 2.98 1.06 1.94 0 2.92-.64 2.92-1.94 0-3.02-6.562-1.422-6.562-5.422 0-2.02 2.02-2.8 3.84-2.8 1.04 0 2.64.36 3.44 1.16a.56.56 0 0 1 .18.38.65.65 0 0 1-.62.6.53.53 0 0 1-.38-.16c-.62-.6-1.74-.84-2.62-.84-1.76 0-2.7.68-2.7 1.66 0 2.8 6.562 1.32 6.562 5.422 0 2.28-2 3.08-4.06 3.08zm10.72-.04c-3.22 0-5.02-2.64-5.02-5.66 0-3.002 1.8-5.64 5.02-5.64s5.02 2.64 5.02 5.64c0 3.02-1.8 5.66-5.02 5.66zm0-10.162c-2.36 0-3.88 1.9-3.88 4.502s1.52 4.52 3.88 4.52c2.38 0 3.88-1.922 3.88-4.52s-1.5-4.502-3.88-4.502zm15.78 9.822c-.28 0-.58-.2-.58-.56v-.64c-.84.98-2.06 1.54-3.42 1.54-2.48 0-4.56-2.08-4.56-4.56v-5.842c0-.36.3-.56.58-.56.26 0 .56.2.56.56v5.842a3.41 3.41 0 0 0 3.421 3.422c1.9 0 3.42-1.52 3.42-3.422v-5.842c0-.36.3-.56.58-.56.26 0 .56.2.56.56v9.502a.56.56 0 0 1-.561.562z"/><use xlink:href="#L"/><path d="M899.53 1044.797c-.88.98-2.1 1.52-3.58 1.52-3.22 0-5.02-2.64-5.02-5.66 0-3.002 1.8-5.64 5.02-5.64 1.48 0 2.7.54 3.58 1.52a.53.53 0 0 1 .16.381.63.63 0 0 1-.58.6c-.14 0-.28-.06-.42-.2-.66-.74-1.58-1.16-2.74-1.16-2.36 0-3.88 1.9-3.88 4.502s1.52 4.52 3.88 4.52c1.16 0 2.08-.44 2.74-1.16.14-.14.28-.2.42-.2.3 0 .58.26.58.58a.57.57 0 0 1-.16.399zm11.582-3.56H902.8c.18 2.28 1.66 3.94 3.84 3.94 1.08 0 2.36-.48 2.94-1.38.14-.22.3-.28.48-.28.3 0 .62.24.62.54 0 .18 0 .22-.38.66-.92 1.08-2.26 1.6-3.66 1.6-3.22 0-5.02-2.64-5.02-5.66 0-3.002 1.8-5.64 5.02-5.64s5.02 2.66 5.02 5.64c.001.3-.28.58-.56.58zm-4.46-5.082c-2.4 0-3.66 1.842-3.84 3.94h7.7c-.18-2.28-1.66-3.94-3.86-3.94zm8.448 3.262c-.64 0-1.16-.5-1.16-1.14s.52-1.14 1.16-1.14c.62 0 1.12.5 1.12 1.14s-.5 1.14-1.12 1.14zm0 6.56c-.64 0-1.16-.5-1.16-1.14s.52-1.14 1.16-1.14c.62 0 1.12.5 1.12 1.14s-.5 1.14-1.12 1.14zm16.95-13.123h-3.88v12.562c0 .36-.28.56-.58.56-.26 0-.56-.18-.56-.56v-12.562h-3.88a.55.55 0 0 1-.58-.559.55.55 0 0 1 .58-.561h8.9c.36 0 .56.28.56.56s-.2.56-.56.56zm10.72 13.123c-.28 0-.58-.2-.58-.56v-5.84c0-1.9-1.52-3.422-3.42-3.422a3.42 3.42 0 0 0-3.421 3.422v5.84c0 .36-.3.56-.56.56-.28 0-.58-.2-.58-.56v-13.12c0-.36.3-.56.58-.56.26 0 .56.2.56.56v4.26c.84-.98 2.06-1.54 3.42-1.54a4.6 4.6 0 0 1 4.561 4.561v5.84c-.001.36-.3.56-.56.56zm12.242-4.74H946.7c.18 2.28 1.66 3.94 3.84 3.94 1.08 0 2.36-.48 2.94-1.38.14-.22.3-.28.48-.28.3 0 .62.24.62.54 0 .18 0 .22-.38.66-.92 1.08-2.26 1.6-3.66 1.6-3.22 0-5.02-2.64-5.02-5.66 0-3.002 1.8-5.64 5.02-5.64s5.02 2.66 5.02 5.64c0 .3-.28.58-.56.58zm-4.46-5.082c-2.4 0-3.66 1.842-3.84 3.94h7.7c-.18-2.28-1.66-3.94-3.86-3.94zm17.778 10.162c-4.4 0-5.82-3.7-5.82-7.46 0-3.74 1.42-7.482 5.82-7.482 1.8 0 3.38.64 4.44 2.182a.4.4 0 0 1 .12.32c0 .32-.3.56-.62.56-.28 0-.44-.24-.66-.52-.7-.9-1.76-1.4-3.28-1.4-3.02 0-4.682 2.32-4.682 6.342 0 3.04.96 6.322 4.682 6.322 3.16 0 4.54-2.422 4.68-5.742h-2.44a.57.57 0 0 1-.6-.58c0-.28.2-.58.56-.58h3.04c.34 0 .58.24.58.58-.001 3.898-1.542 7.46-5.822 7.46zm16.47-.34c-.28 0-.58-.2-.58-.56v-.64c-.84.98-2.06 1.54-3.42 1.54-2.48 0-4.56-2.08-4.56-4.56v-5.842c0-.36.3-.56.58-.56.26 0 .56.2.56.56v5.842a3.41 3.41 0 0 0 3.421 3.422c1.9 0 3.42-1.52 3.42-3.422v-5.842c0-.36.3-.56.58-.56.26 0 .56.2.56.56v9.502c0 .363-.3.562-.56.562z"/><use xlink:href="#M"/><use xlink:href="#L" x="116.248"/><path d="M1016.65 1045.977c-.28 0-.58-.2-.58-.56v-1c-.84 1.182-2.14 1.9-3.88 1.9-3.22 0-5.02-2.64-5.02-5.66 0-3.002 1.8-5.64 5.02-5.64 1.74 0 3.04.72 3.88 1.88v-4.6c0-.36.3-.56.58-.56.26 0 .56.2.56.56v13.12c0 .363-.3.562-.56.562zm-4.46-9.822c-2.36 0-3.88 1.9-3.88 4.502s1.52 4.52 3.88 4.52c2.38 0 3.88-1.922 3.88-4.52s-1.5-4.502-3.88-4.502zm8.438-2.72c-.64 0-1.14-.5-1.14-1.14s.5-1.14 1.14-1.14 1.14.5 1.14 1.14-.5 1.14-1.14 1.14zm0 12.543c-.28 0-.58-.18-.58-.56v-9.502c0-.36.28-.56.58-.56.26 0 .56.18.56.56v9.502c-.001.362-.26.56-.56.56z"/><use xlink:href="#M" x="35.84"/><path d="M1045.43 1045.977c-.28 0-.58-.2-.58-.56v-5.84c0-1.9-1.52-3.422-3.42-3.422a3.42 3.42 0 0 0-3.421 3.422v5.84c0 .36-.3.56-.56.56-.28 0-.58-.2-.58-.56v-9.502c0-.36.3-.56.58-.56.26 0 .56.2.56.56v.64c.9-.98 2.08-1.54 3.42-1.54a4.6 4.6 0 0 1 4.561 4.561v5.84c-.001.36-.3.56-.56.56z"/></g><g fill="#fff"><path d="M61.418 42.38h-9.96v35.1c0 1.62-1.2 2.52-2.52 2.52-1.26 0-2.58-.9-2.58-2.52v-35.1H36.52c-1.74 0-2.64-1.32-2.64-2.58 0-1.2.9-2.52 2.58-2.52h24.96c1.68 0 2.58 1.32 2.58 2.52 0 1.26-.9 2.58-2.58 2.58z"/><use xlink:href="#N"/><path d="M125.28 66.68h-22.2c.84 5.64 4.44 9.24 9.72 9.24 2.7 0 5.4-.96 7.14-3.12.54-.6 1.14-.96 1.86-.96 1.32 0 2.7 1.2 2.7 2.64 0 .72-.18 1.26-1.44 2.52-2.7 2.64-6.42 4.02-10.26 4.02-9.66 0-15.06-7.98-15.06-16.98 0-8.94 5.4-16.92 15.06-16.92 9.78 0 15 7.98 15 16.92 0 1.318-.96 2.638-2.52 2.638zM112.8 52.22c-5.64 0-8.94 4.14-9.72 9.3h19.44c-.84-5.76-4.44-9.3-9.72-9.3zm62.4 22.26c-2.94 4.08-7.14 6.54-13.38 6.54-12.9 0-17.46-10.68-17.46-22.38 0-11.76 4.56-22.438 17.46-22.438 6.06 0 10.5 2.4 13.32 6.54.42.54.54 1.02.54 1.5 0 1.44-1.26 2.52-2.64 2.52-.78 0-1.5-.36-2.04-1.08-1.86-2.7-4.62-4.32-9.18-4.32-8.52 0-12.3 6.3-12.3 17.28s3.78 17.28 12.3 17.28c4.56 0 7.32-1.74 9.18-4.38.54-.78 1.26-1.14 2.04-1.14 1.38 0 2.7 1.14 2.7 2.58.001.48-.178.96-.54 1.5z"/><use xlink:href="#O"/><path d="M221.76 81.02c-3.3 0-8.82-1.02-11.64-4.5-.36-.54-.54-1.08-.54-1.56 0-1.5 1.44-2.7 2.7-2.7.72 0 1.26.36 1.86 1.02 1.86 2.04 4.92 2.64 7.62 2.64 5.4 0 7.14-1.86 7.14-4.56 0-7.68-18.3-2.94-18.3-15.3 0-6.54 6.12-8.94 11.82-8.94 3.24 0 10.86 1.62 10.86 4.98 0 1.32-1.08 2.7-2.52 2.7-.54 0-1.38-.3-1.98-.78-1.62-1.38-3.96-1.8-6.36-1.8-4.98 0-6.72 1.86-6.72 3.84 0 7.14 18.36 2.52 18.36 15.3.002 7.08-5.938 9.66-12.297 9.66zm26.7-1.02h-1.02c-5.7 0-7.86-3-7.86-7.92V53.24h-1.8c-1.44 0-2.58-1.14-2.58-2.52 0-1.44 1.14-2.58 2.52-2.58h1.8V39.8c0-1.68 1.26-2.52 2.58-2.52s2.52.84 2.52 2.52v8.34h3.84c1.68 0 2.52 1.38 2.52 2.52 0 1.44-.96 2.58-2.52 2.58h-3.84v19.38c0 1.68.6 2.28 2.28 2.28h1.5c1.56 0 2.58 1.14 2.58 2.52 0 1.44-.96 2.58-2.52 2.58z"/><use xlink:href="#O" x="88.462"/><use xlink:href="#P"/><path d="M343.352 81.08c-8.22 0-15.06-6.6-15.06-15.06V39.8c0-1.68 1.26-2.52 2.58-2.52s2.58.84 2.58 2.52v26.22c0 5.52 4.44 9.96 9.9 9.96s9.96-4.44 9.96-9.96V39.862c0-1.74 1.2-2.58 2.52-2.58 1.38 0 2.58.84 2.58 2.52V66.02c0 8.22-6.6 15.06-15.058 15.06zM388.355 80c-.78 0-1.68-.42-2.16-1.44l-9.84-20.34-6.9 8.64v10.62c0 1.62-1.38 2.52-2.52 2.52-1.32 0-2.64-.9-2.64-2.52V39.8c0-1.68 1.38-2.52 2.52-2.52 1.32 0 2.64.84 2.64 2.52v18.84l16.38-20.34c.54-.72 1.2-1.02 1.86-1.02 1.44 0 2.76 1.14 2.76 2.58 0 .48-.18 1.08-.66 1.62l-9.84 12.3 10.8 22.5c.24.42.3.84.3 1.2 0 1.5-1.38 2.52-2.7 2.52zm36.06 1.02c-12.898 0-17.46-10.68-17.46-22.38 0-11.76 4.56-22.438 17.46-22.438 12.84 0 17.46 10.68 17.46 22.438 0 11.7-4.62 22.38-17.46 22.38zm0-39.66c-8.52 0-12.3 6.3-12.3 17.28s3.78 17.28 12.3 17.28c8.46 0 12.3-6.3 12.3-17.28s-3.84-17.28-12.3-17.28z"/><use xlink:href="#P" x="147.331"/><path d="M473.523 53.24h-2.7v24.18c0 1.68-1.26 2.52-2.64 2.52-1.26 0-2.52-.84-2.52-2.52V53.24h-2.46c-1.62 0-2.52-1.2-2.52-2.52 0-1.38.9-2.58 2.52-2.58h2.46v-4.08c0-3.84 3.18-6.78 6.9-6.78 1.74 0 2.64 1.2 2.64 2.58 0 1.26-.9 2.52-2.64 2.52-1.02 0-1.74.78-1.74 1.62v4.14h2.7c1.74 0 2.64 1.2 2.64 2.58.001 1.32-.9 2.52-2.64 2.52zm15.433 27.78c-3.3 0-8.82-1.02-11.64-4.5-.36-.54-.54-1.08-.54-1.56 0-1.5 1.44-2.7 2.7-2.7.72 0 1.26.36 1.86 1.02 1.86 2.04 4.92 2.64 7.62 2.64 5.4 0 7.14-1.86 7.14-4.56 0-7.68-18.3-2.94-18.3-15.3 0-6.54 6.12-8.94 11.818-8.94 3.24 0 10.86 1.62 10.86 4.98 0 1.32-1.08 2.7-2.52 2.7-.54 0-1.38-.3-1.98-.78-1.62-1.38-3.96-1.8-6.36-1.8-4.98 0-6.72 1.86-6.72 3.84 0 7.14 18.36 2.52 18.36 15.3.002 7.08-5.94 9.66-12.298 9.66z"/><use xlink:href="#N" x="438.392"/><use xlink:href="#O" x="358.499"/><path d="M584.284 52.22c-4.62 0-8.52 3.9-8.52 8.58v16.62c0 1.68-1.26 2.58-2.64 2.58-1.26 0-2.52-.9-2.52-2.52V50.72c0-1.68 1.38-2.58 2.52-2.58 1.2 0 2.34.66 2.58 2.04a13.88 13.88 0 0 1 8.58-3.061c1.74 0 2.64 1.2 2.64 2.58.001 1.32-.9 2.52-2.64 2.52zm28.968 14.46h-22.2c.84 5.64 4.44 9.24 9.72 9.24 2.7 0 5.4-.96 7.14-3.12.54-.6 1.14-.96 1.86-.96 1.32 0 2.7 1.2 2.7 2.64 0 .72-.18 1.26-1.44 2.52-2.7 2.64-6.42 4.02-10.26 4.02-9.66 0-15.06-7.98-15.06-16.98 0-8.94 5.4-16.92 15.06-16.92 9.78 0 15 7.98 15 16.92-.001 1.318-.96 2.638-2.52 2.638zm-12.48-14.46c-5.64 0-8.94 4.14-9.72 9.3H610.5c-.84-5.76-4.438-9.3-9.718-9.3zm75.778-11.76l-9.9 37.44c-.3 1.44-1.08 2.1-2.46 2.1-1.26 0-2.16-.66-2.58-2.1l-8.1-28.74-8.04 28.74c-.42 1.44-1.26 2.1-2.52 2.1-1.32 0-2.16-.66-2.52-2.1l-9.9-37.438c-.06-.24-.12-.54-.12-.84 0-1.5 1.38-2.34 2.7-2.34 1.02 0 2.04.6 2.4 1.86l7.56 28.62 7.92-28.38c.42-1.44 1.26-2.1 2.52-2.1 1.32 0 2.16.66 2.58 2.1l7.92 28.38 7.56-28.62c.36-1.32 1.56-1.98 2.46-1.98 1.32 0 2.64.96 2.64 2.46 0 .3-.06.6-.12.84zm6.674 2.82a4.32 4.32 0 1 1 0-8.639 4.32 4.32 0 1 1 0 8.639zm0 36.72c-1.32 0-2.64-.9-2.64-2.52V50.72c0-1.68 1.32-2.58 2.64-2.58 1.26 0 2.52.9 2.52 2.58v26.76c-.001 1.68-1.26 2.52-2.52 2.52z"/><use xlink:href="#Q"/><path d="M750.368 79.94c-1.32 0-2.58-.84-2.58-2.52 0 0-3.54 3.6-9.9 3.6-9.66 0-15.06-7.92-15.06-16.98 0-9 5.4-16.92 15.06-16.92 4.2 0 7.56 1.44 9.9 3.9V39.86c0-1.74 1.26-2.58 2.58-2.58s2.58.84 2.58 2.52v37.62c0 1.68-1.26 2.52-2.58 2.52zm-12.48-27.72c-6 0-9.9 4.68-9.9 11.82 0 7.2 3.9 11.88 9.9 11.88 6.06 0 9.9-4.68 9.9-11.88 0-7.14-3.84-11.82-9.9-11.82zM800.168 80c-1.32 0-2.64-.9-2.64-2.52V59.66h-19.8v17.82c0 1.62-1.38 2.52-2.52 2.52-1.32 0-2.64-.9-2.64-2.52V39.8c0-1.68 1.32-2.52 2.64-2.52 1.14 0 2.52.84 2.52 2.52v14.76h19.8v-14.7c0-1.74 1.38-2.58 2.52-2.58 1.32 0 2.64.84 2.64 2.58v37.56c0 1.68-1.38 2.58-2.52 2.58zm37.992 0c-3.3 0-4.8-2.34-5.34-3.42-2.4 2.64-5.88 4.44-10.56 4.44-9.78 0-15.06-8.04-15.06-16.98s5.4-16.92 15.06-16.92c4.2 0 7.56 1.5 9.9 3.96v-.24c0-.66.24-2.7 2.52-2.7 1.26 0 2.64.66 2.64 2.52v23.16c0 .78.54 1.08.84 1.08 1.68 0 2.58 1.2 2.58 2.58 0 1.26-.9 2.52-2.58 2.52zm-15.9-27.78c-6 0-9.9 4.68-9.9 11.82 0 7.2 3.9 11.88 9.9 11.88 6.06 0 9.9-4.68 9.9-11.88 0-7.14-3.84-11.82-9.9-11.82z"/><use xlink:href="#R"/><path d="M911.76 42.38h-22.44V54.5h15.72c1.5 0 2.58 1.2 2.58 2.58s-1.02 2.58-2.58 2.58h-15.72v17.82A2.58 2.58 0 0 1 886.8 80c-1.44 0-2.64-1.14-2.64-2.52V39.862c0-1.44 1.2-2.58 2.64-2.58h24.96c1.56 0 2.52 1.14 2.52 2.52-.001 1.26-.9 2.58-2.52 2.58zM944.08 80c-3.3 0-4.8-2.34-5.34-3.42-2.4 2.64-5.88 4.44-10.56 4.44-9.78 0-15.06-8.04-15.06-16.98s5.4-16.92 15.06-16.92c4.2 0 7.56 1.5 9.9 3.96v-.24c0-.66.24-2.7 2.52-2.7 1.26 0 2.64.66 2.64 2.52v23.16c0 .78.54 1.08.84 1.08 1.68 0 2.58 1.2 2.58 2.58 0 1.26-.9 2.52-2.58 2.52zm-15.898-27.78c-6 0-9.9 4.68-9.9 11.82 0 7.2 3.9 11.88 9.9 11.88 6.06 0 9.9-4.68 9.9-11.88 0-7.14-3.84-11.82-9.9-11.82z"/><use xlink:href="#S"/><use xlink:href="#S" x="11.159"/><path d="M997.81 66.68h-22.2c.84 5.64 4.44 9.24 9.72 9.24 2.7 0 5.4-.96 7.14-3.12.54-.6 1.14-.96 1.86-.96 1.32 0 2.7 1.2 2.7 2.64 0 .72-.18 1.26-1.44 2.52-2.7 2.64-6.42 4.02-10.26 4.02-9.66 0-15.06-7.98-15.06-16.98 0-8.94 5.4-16.92 15.06-16.92 9.78 0 15 7.98 15 16.92-.001 1.318-.96 2.638-2.52 2.638zm-12.48-14.46c-5.64 0-8.94 4.14-9.72 9.3h19.438c-.84-5.76-4.44-9.3-9.718-9.3z"/><use xlink:href="#Q" x="312.423"/><path d="M49.118 142.22c-6.42 0-9.84-3.54-9.9-3.6 0 1.68-1.26 2.52-2.64 2.52-1.26 0-2.52-.84-2.52-2.52v-37.56c0-1.74 1.26-2.58 2.52-2.58 1.38 0 2.64.84 2.64 2.52v11.22c2.4-2.46 5.7-3.9 9.9-3.9 9.66 0 15.06 7.92 15.06 16.92 0 9.06-5.4 16.98-15.06 16.98zm0-28.8c-6 0-9.9 4.68-9.9 11.82 0 7.2 3.9 11.88 9.9 11.88s9.9-4.68 9.9-11.88c.001-7.14-3.9-11.82-9.9-11.82zm44.316-.48l-16.2 36.84c-1.2 2.76-3.84 4.02-6.6 4.02h-1.92c-1.74 0-2.52-1.26-2.52-2.64 0-1.26.78-2.52 2.52-2.52h1.86c.78 0 1.62-.12 1.98-.96l3.96-8.88-11.7-25.86c-.24-.42-.3-.78-.3-1.14 0-1.5 1.44-2.52 2.76-2.52.9 0 1.68.48 2.16 1.56l9.78 21.72 9.54-21.72c.48-1.08 1.38-1.5 2.22-1.5 1.38 0 2.76 1.02 2.76 2.46.001.42-.058.72-.298 1.14zm40.738-9.358h-9.96v35.1c0 1.62-1.2 2.52-2.52 2.52-1.26 0-2.58-.9-2.58-2.52v-35.1h-9.84c-1.74 0-2.64-1.32-2.64-2.58 0-1.2.9-2.52 2.58-2.52h24.96c1.68 0 2.58 1.32 2.58 2.52.001 1.26-.898 2.58-2.58 2.58zm39.882 9.178l-9.3 26.34c-.48 1.32-1.32 2.1-2.64 2.1-1.26 0-1.98-.54-2.52-2.1l-7.02-19.8-7.08 19.8c-.48 1.44-1.32 2.1-2.58 2.1-1.2 0-2.04-.66-2.52-2.1l-9.24-26.34c-.12-.36-.12-.6-.12-.96 0-1.5 1.38-2.46 2.64-2.46.96 0 1.92.48 2.34 1.68l6.96 20.04 7.08-19.62c.48-1.38 1.08-2.1 2.52-2.1 1.32 0 2.04.66 2.52 2.1l7.02 19.62 7.02-20.04c.42-1.2 1.38-1.68 2.28-1.68 1.38 0 2.76 1.02 2.76 2.52-.001.3-.001.54-.12.9z"/><use xlink:href="#T"/><path d="M246.808 103.582h-9.96v35.1c0 1.62-1.2 2.52-2.52 2.52-1.26 0-2.58-.9-2.58-2.52v-35.1h-9.84c-1.74 0-2.64-1.32-2.64-2.58 0-1.2.9-2.52 2.58-2.52h24.96c1.68 0 2.58 1.32 2.58 2.52.001 1.26-.9 2.58-2.58 2.58zm29.885 37.618c-1.32 0-2.52-.9-2.52-2.52V122c0-4.68-3.9-8.58-8.58-8.58-4.62 0-8.52 3.9-8.52 8.58v16.62c0 1.68-1.26 2.64-2.64 2.64-1.26 0-2.52-.9-2.52-2.58v-37.618c0-1.74 1.26-2.58 2.52-2.58 1.38 0 2.64.84 2.64 2.52v10.38c2.22-2.1 5.22-3.06 8.52-3.06 7.44 0 13.68 6.18 13.68 13.68v16.62c0 1.68-1.2 2.58-2.58 2.58z"/><use xlink:href="#U"/><path d="M309.314 113.42c-4.62 0-8.52 3.9-8.52 8.58v16.62c0 1.68-1.26 2.58-2.64 2.58-1.26 0-2.52-.9-2.52-2.52v-26.76c0-1.68 1.38-2.58 2.52-2.58 1.2 0 2.34.66 2.58 2.04a13.88 13.88 0 0 1 8.579-3.061c1.74 0 2.64 1.2 2.64 2.58.001 1.322-.9 2.522-2.64 2.522zm29 27.72c-1.32 0-2.58-.84-2.58-2.52 0 0-3.54 3.6-9.9 3.6-9.66 0-15.06-7.92-15.06-16.98 0-9 5.4-16.92 15.06-16.92 4.2 0 7.56 1.44 9.9 3.9v-11.16c0-1.74 1.26-2.58 2.58-2.58s2.58.84 2.58 2.52v37.618c0 1.68-1.26 2.52-2.58 2.52zm-12.48-27.72c-6 0-9.898 4.68-9.898 11.82 0 7.2 3.9 11.88 9.898 11.88 6.06 0 9.9-4.68 9.9-11.88 0-7.14-3.84-11.82-9.9-11.82zm31.02 28.8c-3.3 0-8.82-1.02-11.64-4.5-.36-.54-.54-1.08-.54-1.56 0-1.5 1.44-2.7 2.7-2.7.72 0 1.26.36 1.86 1.02 1.86 2.04 4.92 2.64 7.62 2.64 5.4 0 7.14-1.86 7.14-4.56 0-7.68-18.3-2.94-18.3-15.3 0-6.54 6.12-8.94 11.818-8.94 3.24 0 10.86 1.62 10.86 4.98 0 1.32-1.08 2.7-2.52 2.7-.54 0-1.38-.3-1.98-.78-1.62-1.38-3.96-1.8-6.36-1.8-4.98 0-6.72 1.86-6.72 3.84 0 7.14 18.36 2.52 18.36 15.3.001 7.08-5.94 9.66-12.298 9.66z"/><use xlink:href="#U" x="101.942"/><path d="M422.358 141.2c-1.32 0-2.52-.9-2.52-2.52V122c0-4.68-3.9-8.58-8.58-8.58-4.62 0-8.52 3.9-8.52 8.58v16.62c0 1.68-1.26 2.64-2.64 2.64-1.26 0-2.52-.9-2.52-2.58v-26.82c0-1.74 1.26-2.52 2.52-2.52 1.2 0 2.28.66 2.58 1.98a13.67 13.67 0 0 1 8.579-3c7.44 0 13.68 6.18 13.68 13.68v16.62c.002 1.68-1.2 2.58-2.58 2.58zm49.26-37.618H449.18v12.12h15.72c1.5 0 2.58 1.2 2.58 2.58s-1.02 2.58-2.58 2.58h-15.72v17.82a2.58 2.58 0 0 1-2.521 2.52c-1.44 0-2.64-1.14-2.64-2.52v-37.618c0-1.44 1.2-2.58 2.64-2.58h24.96c1.56 0 2.52 1.14 2.52 2.52 0 1.26-.9 2.58-2.52 2.58z"/><use xlink:href="#T" x="298.29"/><path d="M531.707 141.26c-1.14 0-2.28-.66-2.52-1.98-2.4 1.86-5.34 3-8.64 3-7.44 0-13.68-6.18-13.68-13.68v-16.62c0-1.68 1.26-2.58 2.52-2.58 1.38 0 2.64.9 2.64 2.52v16.68c0 4.68 3.9 8.58 8.52 8.58 4.68 0 8.58-3.9 8.58-8.58v-16.62c0-1.86 1.2-2.64 2.52-2.64 1.38 0 2.58.9 2.58 2.58v26.818c0 1.68-1.2 2.52-2.52 2.52zm21.985-27.84c-4.62 0-8.52 3.9-8.52 8.58v16.62c0 1.68-1.26 2.58-2.64 2.58-1.26 0-2.52-.9-2.52-2.52v-26.76c0-1.68 1.38-2.58 2.52-2.58 1.2 0 2.34.66 2.58 2.04a13.88 13.88 0 0 1 8.58-3.061c1.74 0 2.64 1.2 2.64 2.58.001 1.322-.9 2.522-2.64 2.522zm44.038-11.16l-11.88 22.14v14.22c0 1.68-1.26 2.58-2.64 2.58-1.26 0-2.52-.84-2.52-2.52V124.4l-11.88-22.2a2.25 2.25 0 0 1-.36-1.26c0-1.44 1.38-2.58 2.7-2.58.78 0 1.62.42 2.16 1.44l9.9 18.48 10.02-18.48c.54-.96 1.38-1.32 2.16-1.32 1.38 0 2.7 1.08 2.7 2.52a2.11 2.11 0 0 1-.36 1.26zm25.518 25.62h-22.2c.84 5.64 4.44 9.24 9.72 9.24 2.7 0 5.4-.96 7.14-3.12.54-.6 1.14-.96 1.86-.96 1.32 0 2.7 1.2 2.7 2.64 0 .72-.18 1.26-1.44 2.52-2.7 2.64-6.42 4.02-10.26 4.02-9.66 0-15.06-7.98-15.06-16.98 0-8.94 5.4-16.92 15.06-16.92 9.78 0 15 7.98 15 16.92 0 1.318-.96 2.638-2.52 2.638zm-12.48-14.46c-5.64 0-8.94 4.14-9.72 9.3h19.438c-.84-5.76-4.44-9.3-9.718-9.3zm48.492 27.78c-3.3 0-4.8-2.34-5.34-3.42-2.4 2.64-5.88 4.44-10.56 4.44-9.78 0-15.06-8.04-15.06-16.98s5.4-16.92 15.06-16.92c4.2 0 7.56 1.5 9.9 3.96v-.24c0-.66.24-2.7 2.52-2.7 1.26 0 2.64.66 2.64 2.52v23.16c0 .78.54 1.08.84 1.08 1.68 0 2.58 1.2 2.58 2.58 0 1.26-.9 2.52-2.58 2.52zm-15.9-27.78c-6 0-9.9 4.68-9.9 11.82 0 7.2 3.9 11.88 9.9 11.88 6.06 0 9.9-4.68 9.9-11.88.001-7.14-3.84-11.82-9.9-11.82zm35.202 0c-4.62 0-8.52 3.9-8.52 8.58v16.62c0 1.68-1.26 2.58-2.64 2.58-1.26 0-2.52-.9-2.52-2.52v-26.76c0-1.68 1.38-2.58 2.52-2.58 1.2 0 2.34.66 2.58 2.04a13.88 13.88 0 0 1 8.58-3.061c1.74 0 2.64 1.2 2.64 2.58 0 1.322-.9 2.522-2.64 2.522z"/><use xlink:href="#R" x="-161.702" y="61.2"/><path d="M55.887 188a1.11 1.11 0 0 1-.987-.646l-2.432-5.852H38.8l-2.432 5.852c-.15.418-.607.646-.95.646-.57 0-1.103-.418-1.103-1.025 0-.2 0-.305.076-.494l10.26-24.887c.2-.457.646-.723 1.102-.723.38 0 .722.23.912.723l10.26 24.887c.075.2.075.303.075.494 0 .607-.53 1.025-1.1 1.025zM45.63 164.86l-5.966 14.475h11.97L45.63 164.86zm27.578 4.447l-7.484 17.818c-.23.494-.57.875-1.064.875s-.874-.38-1.102-.875l-7.484-17.78c-.076-.2-.076-.342-.076-.494 0-.607.53-1.025 1.102-1.025.342 0 .76.152.95.646l6.6 15.615 6.573-15.615c.23-.494.608-.684.988-.684.57 0 1.102.418 1.102 1.025-.001.114-.001.306-.115.495zm19.01 9.688H76.45c.342 4.332 3.153 7.486 7.295 7.486 2.052 0 4.483-.912 5.585-2.623.267-.418.57-.53.912-.53.57 0 1.178.455 1.178 1.025 0 .342 0 .418-.722 1.254-1.748 2.053-4.293 3.04-6.953 3.04-6.117 0-9.536-5.014-9.536-10.752 0-5.7 3.42-10.715 9.536-10.715s9.537 5.055 9.537 10.715c0 .57-.532 1.102-1.064 1.102zm-8.473-9.65c-4.56 0-6.953 3.496-7.295 7.486h14.628c-.342-4.33-3.153-7.486-7.333-7.486z"/><use xlink:href="#V"/><path d="M127.015 188h-.038c-1.254 0-3.04-.684-3.762-2.965-1.596 2.242-4.065 3.61-7.37 3.61-6.193 0-9.536-5.1-9.536-10.752 0-5.736 3.42-10.715 9.536-10.715 3.306 0 5.775 1.37 7.37 3.572v-1.86c0-.607.494-1.064 1.102-1.064.532 0 1.064.38 1.064 1.064v15.31c0 2.432 2.735.912 2.735 2.736 0 .494-.342 1.065-1.1 1.065zm-11.17-18.657c-4.483 0-7.37 3.61-7.37 8.55s2.888 8.588 7.37 8.588c4.52 0 7.37-3.648 7.37-8.588s-2.85-8.55-7.37-8.55z"/><use xlink:href="#W"/><path d="M169.778 178.995H154c.342 4.332 3.153 7.486 7.295 7.486 2.052 0 4.483-.912 5.585-2.623.267-.418.57-.53.912-.53.57 0 1.178.455 1.178 1.025 0 .342 0 .418-.722 1.254-1.748 2.053-4.293 3.04-6.953 3.04-6.117 0-9.536-5.014-9.536-10.752 0-5.7 3.42-10.715 9.536-10.715s9.537 5.055 9.537 10.715c.001.57-.53 1.102-1.064 1.102zm-8.472-9.65c-4.56 0-6.953 3.496-7.295 7.486h14.628c-.342-4.33-3.154-7.486-7.333-7.486zm38.986 9.65h-15.768c.342 4.332 3.153 7.486 7.295 7.486 2.052 0 4.483-.912 5.585-2.623.267-.418.57-.53.912-.53.57 0 1.178.455 1.178 1.025 0 .342 0 .418-.722 1.254-1.748 2.053-4.293 3.04-6.953 3.04-6.117 0-9.536-5.014-9.536-10.752 0-5.7 3.42-10.715 9.536-10.715s9.537 5.055 9.537 10.715c0 .57-.532 1.102-1.064 1.102zm-8.473-9.65c-4.56 0-6.953 3.496-7.295 7.486h14.628c-.34-4.33-3.153-7.486-7.333-7.486zM220.864 188c-.53 0-1.102-.38-1.102-1.064v-11.094a6.47 6.47 0 0 0-6.497-6.498 6.5 6.5 0 0 0-6.497 6.498v11.094c0 .684-.57 1.064-1.063 1.064-.532 0-1.103-.38-1.103-1.064V168.9c0-.684.57-1.064 1.103-1.064.494 0 1.063.38 1.063 1.064v1.215c1.7-1.86 3.95-2.926 6.497-2.926 4.7 0 8.663 3.914 8.663 8.664v11.094c.001.683-.57 1.064-1.064 1.064zm22.21-9.005h-15.768c.342 4.332 3.153 7.486 7.295 7.486 2.052 0 4.483-.912 5.585-2.623.267-.418.57-.53.912-.53.57 0 1.178.455 1.178 1.025 0 .342 0 .418-.722 1.254-1.748 2.053-4.293 3.04-6.953 3.04-6.117 0-9.536-5.014-9.536-10.752 0-5.7 3.42-10.715 9.536-10.715s9.537 5.055 9.537 10.715c.001.57-.532 1.102-1.064 1.102zm-8.472-9.65c-4.56 0-6.953 3.496-7.295 7.486h14.628c-.342-4.33-3.154-7.486-7.333-7.486zm21.447.34a6.5 6.5 0 0 0-6.497 6.498v10.752c0 .684-.57 1.064-1.063 1.064-.532 0-1.103-.38-1.103-1.064V168.9c0-.684.57-1.064 1.103-1.064.494 0 1.063.38 1.063 1.064v1.557c1.7-1.86 3.95-2.924 6.497-2.924.684 0 1.102.568 1.102 1.062-.001.534-.42 1.102-1.102 1.102z"/><use xlink:href="#W" x="127.92"/><path d="M296.837 169.344L286.54 193.7c-.76 1.785-2.317 2.28-4.065 2.28h-1.67c-.685 0-1.064-.57-1.064-1.102 0-.494.38-1.064 1.064-1.064h1.67c.836 0 1.7-.037 2.052-.912l2.166-5.166-7.864-18.4c-.076-.2-.076-.342-.076-.494 0-.607.53-1.025 1.102-1.025.342 0 .76.152.95.646l7.066 16.5 7-16.5c.2-.494.607-.646.988-.646.57 0 1.063.418 1.063 1.025 0 .152 0 .305-.076.494zm21.13 19.3c-3.306 0-5.775-1.367-7.37-3.6v9.842c0 .684-.57 1.102-1.063 1.102-.532 0-1.103-.418-1.103-1.102V168.9c0-.684.57-1.064 1.103-1.064.494 0 1.063.38 1.063 1.064v1.86c1.596-2.203 4.065-3.572 7.37-3.572 6.117 0 9.536 5.016 9.536 10.715 0 5.737-3.42 10.75-9.536 10.75zm0-19.3c-4.52 0-7.37 3.6-7.37 8.55s2.85 8.588 7.37 8.588 7.37-3.648 7.37-8.588-2.85-8.55-7.37-8.55z"/><use xlink:href="#V" x="234.426"/><path d="M343.86 164.178a2.166 2.166 0 1 1 0-4.332 2.166 2.166 0 0 1 0 4.332zm0 23.823c-.532 0-1.103-.342-1.103-1.064V168.9c0-.684.532-1.064 1.103-1.064.494 0 1.063.342 1.063 1.064v18.047c.001.683-.493 1.064-1.063 1.064zm20.734-2.243c-1.672 1.86-4 2.887-6.8 2.887-6.117 0-9.536-5.014-9.536-10.752 0-5.7 3.42-10.715 9.536-10.715 2.812 0 5.13 1.027 6.8 2.9a1 1 0 0 1 .305.72c0 .57-.532 1.14-1.103 1.14-.266 0-.53-.113-.798-.38-1.254-1.406-3-2.205-5.205-2.205-4.483 0-7.37 3.6-7.37 8.55s2.888 8.588 7.37 8.588c2.204 0 3.95-.836 5.205-2.205.267-.266.532-.38.798-.38a1.13 1.13 0 0 1 1.103 1.102c-.001.264-.077.493-.305.758zm20.014-6.763H368.84c.342 4.332 3.153 7.486 7.295 7.486 2.052 0 4.483-.912 5.585-2.623.267-.418.57-.53.912-.53.57 0 1.178.455 1.178 1.025 0 .342 0 .418-.722 1.254-1.748 2.053-4.293 3.04-6.953 3.04-6.117 0-9.536-5.014-9.536-10.752 0-5.7 3.42-10.715 9.536-10.715s9.537 5.055 9.537 10.715c.001.57-.53 1.102-1.064 1.102zm-8.472-9.65c-4.56 0-6.953 3.496-7.295 7.486h14.628c-.342-4.33-3.154-7.486-7.333-7.486zm31.386 19.3c-3.306 0-5.775-1.367-7.37-3.6v9.842c0 .684-.57 1.102-1.063 1.102-.532 0-1.103-.418-1.103-1.102V168.9c0-.684.57-1.064 1.103-1.064.494 0 1.063.38 1.063 1.064v1.86c1.596-2.203 4.065-3.572 7.37-3.572 6.117 0 9.536 5.016 9.536 10.715.001 5.737-3.418 10.75-9.536 10.75zm0-19.3c-4.52 0-7.37 3.6-7.37 8.55s2.85 8.588 7.37 8.588 7.37-3.648 7.37-8.588-2.85-8.55-7.37-8.55zm30.042 9.65h-15.768c.342 4.332 3.153 7.486 7.295 7.486 2.052 0 4.483-.912 5.585-2.623.267-.418.57-.53.912-.53.57 0 1.178.455 1.178 1.025 0 .342 0 .418-.722 1.254-1.748 2.053-4.293 3.04-6.953 3.04-6.117 0-9.536-5.014-9.536-10.752 0-5.7 3.42-10.715 9.536-10.715s9.537 5.055 9.537 10.715c0 .57-.532 1.102-1.064 1.102zm-8.473-9.65c-4.56 0-6.953 3.496-7.295 7.486h14.628c-.342-4.33-3.153-7.486-7.333-7.486z"/><use xlink:href="#V" x="345.346"/><path d="M486.94 188c-.53 0-1.063-.38-1.063-1.064V174.17c0-2.62-2.203-4.826-4.825-4.826s-4.863 2.205-4.863 4.787v12.805c0 .684-.532 1.064-1.063 1.064s-1.103-.38-1.103-1.064V174.17c0-2.62-2.203-4.826-4.787-4.826-2.66 0-4.863 2.205-4.863 4.787v12.805c0 .684-.57 1.064-1.063 1.064-.532 0-1.103-.38-1.103-1.064V168.9c0-.684.57-1.064 1.103-1.064.494 0 1.063.38 1.063 1.064v.23c1.254-1.217 2.964-1.94 4.825-1.94 2.432 0 4.598 1.217 5.928 3.23 1.254-1.938 3.42-3.23 5.9-3.23 3.95 0 7.03 3.117 7.03 6.953v12.805c-.002.683-.572 1.064-1.104 1.064zm22.36-9.005h-15.77c.342 4.332 3.153 7.486 7.295 7.486 2.052 0 4.483-.912 5.585-2.623.267-.418.57-.53.912-.53.57 0 1.178.455 1.178 1.025 0 .342 0 .418-.722 1.254-1.748 2.053-4.293 3.04-6.953 3.04-6.117 0-9.536-5.014-9.536-10.752 0-5.7 3.42-10.715 9.536-10.715s9.537 5.055 9.537 10.715c0 .57-.532 1.102-1.064 1.102zm-8.473-9.65c-4.56 0-6.953 3.496-7.295 7.486h14.628c-.342-4.33-3.153-7.486-7.333-7.486zm21.568 27.318c-3.23 0-7.8-1.215-7.8-2.584 0-.607.494-1.215 1.103-1.215.418 0 1.3.645 2.014.912.987.342 2.545.72 4.673.72 4.863 0 7.37-2.393 7.37-7.066v-2.66c-1.672 2.014-4.065 3.23-7.37 3.23-6.003 0-9.536-4.256-9.536-10.107 0-5.7 3.42-10.715 9.536-10.715 3.306 0 5.775 1.37 7.37 3.572v-1.824c0-.684.57-1.062 1.102-1.062.494 0 1.064.38 1.064 1.062v18.504c-.001 6.04-3.612 9.232-9.538 9.232zm0-27.32c-4.483 0-7.37 3.6-7.37 8.55 0 4.902 2.698 7.94 7.37 7.94s7.37-3.04 7.37-7.94c0-4.94-2.85-8.55-7.37-8.55zM556.092 188h-.038c-1.254 0-3.04-.684-3.762-2.965-1.596 2.242-4.065 3.6-7.37 3.6-6.193 0-9.536-5.1-9.536-10.752 0-5.736 3.42-10.715 9.536-10.715 3.306 0 5.775 1.37 7.37 3.572v-1.86c0-.607.494-1.064 1.102-1.064.532 0 1.064.38 1.064 1.064v15.3c0 2.432 2.735.912 2.735 2.736a1.04 1.04 0 0 1-1.1 1.065zm-11.17-18.657c-4.483 0-7.37 3.6-7.37 8.55s2.888 8.588 7.37 8.588c4.52 0 7.37-3.648 7.37-8.588s-2.85-8.55-7.37-8.55zm39.14-.113l-6.193 17.857c-.266.72-.607.912-1.102.912-.646 0-.836-.23-1.064-.912l-4.977-14.818-4.978 14.818c-.266.72-.608.912-1.102.912s-.874-.305-1.064-.912l-6.154-17.857c-.038-.113-.076-.305-.076-.418 0-.607.607-.988 1.102-.988.38 0 .836.2.988.723l5.205 15.045 4.977-14.855c.23-.723.456-.912 1.103-.912.456 0 .836.152 1.063.912l5.054 14.855 5.13-15.045c.2-.533.57-.723.987-.723.57 0 1.18.38 1.18 1.025a1.15 1.15 0 0 1-.077.381zM605.874 188h-.038c-1.254 0-3.04-.684-3.762-2.965-1.596 2.242-4.065 3.6-7.37 3.6-6.193 0-9.536-5.1-9.536-10.752 0-5.736 3.42-10.715 9.536-10.715 3.306 0 5.775 1.37 7.37 3.572v-1.86c0-.607.494-1.064 1.102-1.064.532 0 1.064.38 1.064 1.064v15.3c0 2.432 2.735.912 2.735 2.736a1.04 1.04 0 0 1-1.101 1.065zm-11.17-18.657c-4.483 0-7.37 3.6-7.37 8.55s2.888 8.588 7.37 8.588c4.52 0 7.37-3.648 7.37-8.588s-2.85-8.55-7.37-8.55zM615.797 188h-1.178c-3 0-4.483-1.482-4.483-4.445V169.99h-1.938c-.684 0-1.063-.57-1.063-1.102 0-.494.38-1.064 1.063-1.064h1.938v-5.812c0-.684.57-1.064 1.103-1.064s1.063.38 1.063 1.064v5.812h3.495c.685 0 1.064.57 1.064 1.064 0 .53-.38 1.102-1.064 1.102h-3.495v13.564c0 1.86.532 2.28 2.317 2.28h1.178c.685 0 1.064.57 1.064 1.102 0 .493-.38 1.064-1.064 1.064zm11.273 0h-1.178c-3 0-4.483-1.482-4.483-4.445V169.99h-1.938c-.684 0-1.063-.57-1.063-1.102 0-.494.38-1.064 1.063-1.064h1.938v-5.812c0-.684.57-1.064 1.103-1.064s1.063.38 1.063 1.064v5.812h3.495c.685 0 1.064.57 1.064 1.064 0 .53-.38 1.102-1.064 1.102h-3.495v13.564c0 1.86.532 2.28 2.317 2.28h1.178c.685 0 1.064.57 1.064 1.102.001.493-.38 1.064-1.064 1.064zm13.72-11.816h-11.893c-.684 0-1.102-.57-1.102-1.102 0-.494.418-1.064 1.102-1.064H640.8a1.07 1.07 0 0 1 1.102 1.064c0 .532-.38 1.102-1.102 1.102zM661.155 188c-.53 0-1.102-.38-1.102-1.064v-11.094a6.47 6.47 0 0 0-6.497-6.498 6.5 6.5 0 0 0-6.497 6.498v11.094c0 .684-.57 1.064-1.063 1.064-.532 0-1.103-.38-1.103-1.064v-24.924c0-.684.57-1.064 1.103-1.064.494 0 1.063.38 1.063 1.064v8.092c1.596-1.86 3.913-2.926 6.497-2.926 4.7 0 8.663 3.914 8.663 8.664v11.094c.001.683-.57 1.064-1.064 1.064zm13.74.645c-6.117 0-9.536-5.014-9.536-10.752 0-5.7 3.42-10.715 9.536-10.715s9.537 5.016 9.537 10.715c0 5.738-3.42 10.752-9.537 10.752zm0-19.3c-4.483 0-7.37 3.6-7.37 8.55s2.888 8.588 7.37 8.588c4.52 0 7.37-3.648 7.37-8.588s-2.85-8.55-7.37-8.55zM703.775 188c-.53 0-1.102-.38-1.102-1.064v-1.215c-1.596 1.86-3.913 2.924-6.497 2.924-4.7 0-8.663-3.95-8.663-8.662V168.9c0-.684.57-1.064 1.103-1.064.493 0 1.063.38 1.063 1.064v11.094a6.497 6.497 0 1 0 12.994 0V168.9c0-.684.57-1.064 1.102-1.064.494 0 1.064.38 1.064 1.064v18.047c.001.683-.57 1.064-1.064 1.064z"/><use xlink:href="#V" x="612.671"/><path d="M736.294 193.053c-.2 0-.38-.076-.608-.2-5.015-3.686-6.8-10.45-6.8-16.377 0-4.938 1.824-13.184 6.84-16.033.2-.076.38-.2.57-.2.607 0 1.025.607 1.025 1.178 0 .836-.15.455-1.33 1.52-3.686 3.307-4.94 8.738-4.94 13.525 0 4.408 1.52 11.816 5.774 14.553.38.266.57.57.57.912a1.13 1.13 0 0 1-1.101 1.1zm16.51-5.053H739.2c-.684 0-1.063-.57-1.063-1.064 0-.53.38-1.102 1.063-1.102h.532c1.785 0 2.66-1.178 2.66-2.773v-9.574h-2.47a1.07 1.07 0 0 1-1.102-1.064c0-.53.38-1.102 1.102-1.102h2.47v-5.928c0-2.8 2.355-5.13 5.13-5.13a5.19 5.19 0 0 1 5.206 5.205c0 .8-.456 1.102-1.026 1.102s-1.14-.418-1.14-1.102c0-.912-.722-3.04-3.04-3.04-1.9 0-3 1.672-3 3.04v5.812h6.65c.684 0 1.102.57 1.102 1.064 0 .53-.418 1.102-1.102 1.102h-6.6v9.574c0 1.027-.267 1.977-.76 2.812h9.004c2.128 0 1.18-2.736 2.736-2.736.53 0 1.102.38 1.102 1.14.001 2.1-1.747 3.762-3.837 3.762zm15.997.645c-8.36 0-11.057-7.027-11.057-14.172 0-7.104 2.697-14.2 11.057-14.2 3.42 0 6.42 1.215 8.435 4.14.2.2.228.38.228.6 0 .607-.57 1.062-1.178 1.062-.53 0-.836-.455-1.254-.986-1.33-1.7-3.343-2.66-6.23-2.66-5.737 0-8.9 4.406-8.9 12.043 0 5.775 1.823 12.008 8.9 12.008 6.003 0 8.624-4.598 8.9-10.904h-4.636c-.76 0-1.14-.57-1.14-1.104s.38-1.102 1.063-1.102h5.775c.646 0 1.102.457 1.102 1.102-.001 7.4-2.926 14.172-11.056 14.172zm26.388-.645H784.17c-.57 0-1.103-.533-1.103-1.064v-24.924c0-.646.343-1.064.988-1.064h10.297c3.76 0 6.84 3.115 6.84 6.764 0 2.242-.988 4.18-2.698 5.434a7.71 7.71 0 0 1 4.521 7.066c.001 4.33-3.494 7.788-7.826 7.788zm-.835-24.924h-9.12v9.346h9.12c3.077 0 4.673-2.736 4.673-4.635-.001-2.623-2.13-4.7-4.673-4.7zm.835 11.5h-9.955v11.246h9.955c3.115 0 5.66-2.508 5.66-5.623s-2.545-5.623-5.66-5.623zm22.612 1.71h-9.232v10.64c0 .684-.57 1.064-1.063 1.064-.532 0-1.103-.38-1.103-1.064v-24.924c0-.57.532-1.064 1.103-1.064h10.258c4.294 0 7.713 3.42 7.713 7.637-.001 4.292-3.42 7.712-7.676 7.712zm0-13.22h-9.232v11.055h9.194c3.078 0 5.548-2.432 5.548-5.508s-2.47-5.547-5.5-5.547zm11.034 29.787c-.2.113-.418.2-.608.2-.57 0-1.063-.53-1.063-1.102 0-.342.152-.723.494-.912 4.293-2.812 5.737-10.107 5.737-14.553 0-5.014-1.33-11.13-5.7-14.133-.343-.266-.57-.57-.57-.912 0-.57.494-1.178 1.102-1.178.152 0 .38.113.532.2 5.016 2.812 6.8 11.096 6.8 16.033-.001 5.93-1.748 12.654-6.726 16.38z"/></g><path d="M45.283 405.944c0-.247-.1-.284-.334-.1-.792 1.04-2.313 1.646-4.564 1.818-2.202-.05-3.934-.816-5.195-2.3s-1.905-3.4-1.93-5.752c.024-2.275.68-4.205 1.967-5.8 1.3-1.583 3.104-2.412 5.38-2.486 2.3.05 4.106.866 5.418 2.45 1.286 1.56 1.94 3.538 1.967 5.938v11.615c-.025 2.202-.68 4.045-1.967 5.53-1.287 1.46-3.117 2.227-5.492 2.3-1.88-.025-3.477-.57-4.787-1.633-1.287-1.04-2.054-2.474-2.3-4.305-.05-.223.062-.334.334-.334h2.115c.247 0 .383.148.408.445.197.9.618 1.658 1.262 2.3.668.62 1.67.94 3.006.965 1.5-.024 2.672-.52 3.488-1.484.816-1 1.225-2.25 1.225-3.785v-5.38zm0-6.42c0-1.633-.396-2.98-1.188-4.045-.816-1.063-1.98-1.607-3.488-1.633-1.484.025-2.623.57-3.414 1.633-.792 1.1-1.2 2.462-1.225 4.12.024 1.683.42 3.03 1.188 4.045s1.893 1.534 3.377 1.56c3.142-.198 4.725-2.1 4.75-5.678v-.037.037zm13.164 17.106c1.4-.05 2.535-.557 3.377-1.52s1.262-2.177 1.262-3.637c-.025-1.806-.52-3.216-1.484-4.23-1-1-2.276-1.484-3.86-1.484h-.445c-.248.025-.36-.1-.334-.37v-1.78c-.025-.27.086-.383.334-.334h.223c1.5-.024 2.72-.507 3.637-1.447.915-.915 1.385-2.177 1.4-3.785-.148-2.622-1.436-4.008-3.86-4.156-1.015 0-1.893.334-2.635 1.002s-1.2 1.646-1.373 2.932c0 .347-.124.495-.37.445h-2.004c-.297.05-.408-.074-.334-.37.173-1.904.878-3.476 2.115-4.713 1.262-1.262 2.808-1.904 4.64-1.93 1.904.025 3.476.668 4.713 1.93s1.88 2.883 1.93 4.86c-.05 1.683-.47 3.02-1.262 4.008-.768 1-1.633 1.707-2.598 2.152-.198.124-.186.26.037.408 1 .42 1.94 1.15 2.857 2.2.94 1.064 1.435 2.623 1.484 4.676-.05 2.128-.768 3.946-2.152 5.455-1.4 1.484-3.2 2.264-5.344 2.338-1.955-.025-3.612-.668-4.973-1.93-1.386-1.286-2.14-3.08-2.264-5.38-.05-.148.062-.247.334-.297h2.004c.27-.05.408.1.408.445.223 2.895 1.73 4.404 4.527 4.527v-.037.037z" class="X"/><defs ><path id="F" d="M55.447 993.564c0 1.83-.098 3.398-.294 4.704s-.495 2.38-.896 3.22-.9 1.46-1.526 1.86-1.335.603-2.156.603-1.54-.2-2.156-.603-1.124-1.02-1.525-1.86-.7-1.914-.896-3.22-.294-2.874-.294-4.704.1-3.396.294-4.703.495-2.38.896-3.22.9-1.46 1.525-1.86 1.335-.603 2.156-.603 1.54.2 2.156.603 1.124 1.02 1.526 1.86.7 1.914.896 3.22.294 2.874.294 4.703zm-2.015 0l-.183-4.157c-.12-1.1-.304-2.002-.546-2.675s-.54-1.152-.896-1.44-.766-.435-1.232-.435a1.89 1.89 0 0 0-1.231.435c-.355.29-.654.77-.896 1.44s-.425 1.564-.546 2.675-.182 2.496-.182 4.157l.182 4.158c.12 1.11.303 2.002.546 2.674s.54 1.153.896 1.442.765.434 1.23.434a1.89 1.89 0 0 0 1.232-.434c.354-.29.653-.77.896-1.442s.425-1.562.546-2.674.183-2.496.183-4.158z"/><path id="G" d="M90.187 762.917c-1.513 0-2.772-1.4-2.772-2.968v-16.353c0-.504.42-.783.812-.783.363 0 .783.28.783.783v16.353c0 1.792 1.988.756 1.988 2.016 0 .476-.336.952-.81.952z"/><path id="H" d="M113.845 763.28c-1.68 0-4.508-.588-5.487-2.212-.112-.168-.112-.31-.112-.42a.86.86 0 0 1 .812-.841c.168 0 .448.14.616.393 1.008 1.23 2.8 1.483 4.172 1.483 2.717 0 4.088-.896 4.088-2.716 0-4.228-9.184-1.987-9.184-7.588 0-2.828 2.828-3.92 5.376-3.92 1.456 0 3.696.504 4.816 1.624.168.168.252.364.252.532 0 .42-.42.84-.868.84a.74.74 0 0 1-.532-.224c-.868-.84-2.436-1.177-3.668-1.177-2.464 0-3.78.952-3.78 2.324 0 3.92 9.185 1.85 9.185 7.588-.002 3.194-2.8 4.314-5.686 4.314z"/><path id="I" d="M99.588 447.803h-11.62c.252 3.19 2.324 5.516 5.376 5.516 1.513 0 3.305-.672 4.116-1.932.196-.31.42-.393.672-.393.42 0 .868.336.868.757 0 .252 0 .308-.532.924-1.288 1.512-3.164 2.24-5.124 2.24-4.508 0-7.027-3.695-7.027-7.924 0-4.2 2.52-7.896 7.027-7.896s7.028 3.724 7.028 7.896c0 .42-.392.813-.784.813zm-6.244-7.112c-3.36 0-5.124 2.576-5.376 5.516h10.78c-.252-3.192-2.324-5.516-5.404-5.516z"/><path id="J" d="M999.794 1003.672v-1.68c.3-.99.7-1.918 1.176-2.786l1.54-2.464 1.652-2.24 1.512-2.128c.448-.7.812-1.404 1.093-2.114a5.99 5.99 0 0 0 .42-2.212c0-1.064-.234-1.862-.7-2.394s-1.046-.8-1.736-.8c-.803 0-1.47.332-2.002.994s-.845 1.75-.938 3.263h-1.85c.057-1.14.22-2.09.5-2.856s.62-1.376 1.05-1.834.915-.78 1.456-.966a5.28 5.28 0 0 1 1.736-.28c1.325 0 2.408.438 3.248 1.316s1.26 2.155 1.26 3.836c0 .84-.117 1.596-.35 2.268a9.59 9.59 0 0 1-.938 1.946c-.392.626-.845 1.246-1.357 1.862l-1.6 2.03-1.694 2.45c-.57.896-1.105 1.932-1.61 3.108h7.672v1.68h-9.522z"/><path id="K" d="M1025.16 1003.672v-1.68h2.464v-16.24l-2.52.224v-1.23c.578-.15 1.14-.35 1.68-.603s1.045-.573 1.512-.966h1.345v18.816h2.352v1.68h-6.833z"/><path id="L" d="M889.352 1036.336a3.42 3.42 0 0 0-3.421 3.42v5.66c0 .36-.3.56-.56.56-.28 0-.58-.2-.58-.56v-9.502c0-.36.3-.56.58-.56.26 0 .56.2.56.56v.82c.9-.98 2.08-1.54 3.42-1.54.36 0 .58.3.58.56a.58.58 0 0 1-.58.582z"/><path id="M" d="M998.63 1045.977h-.02c-.66 0-1.6-.36-1.98-1.56-.84 1.182-2.14 1.9-3.88 1.9-3.26 0-5.02-2.68-5.02-5.66 0-3.02 1.8-5.64 5.02-5.64 1.74 0 3.04.72 3.88 1.88v-.98c0-.318.26-.56.58-.56.28 0 .56.2.56.56v8.062c0 1.28 1.44.48 1.44 1.44a.55.55 0 0 1-.58.562zm-5.88-9.822c-2.36 0-3.88 1.9-3.88 4.502s1.52 4.52 3.88 4.52c2.38 0 3.88-1.922 3.88-4.52s-1.5-4.502-3.88-4.502z"/><path id="N" d="M91.304 80c-1.32 0-2.52-.9-2.52-2.52V60.8c0-4.68-3.9-8.58-8.58-8.58-4.62 0-8.52 3.9-8.52 8.58v16.62c0 1.68-1.26 2.64-2.64 2.64-1.26 0-2.52-.9-2.52-2.58V39.862c0-1.74 1.26-2.58 2.52-2.58 1.38 0 2.64.84 2.64 2.52v10.38c2.22-2.1 5.22-3.06 8.52-3.06 7.44 0 13.68 6.18 13.68 13.68v16.62c0 1.68-1.2 2.58-2.58 2.58z"/><path id="O" d="M192.695 81.02c-9.66 0-15.06-7.92-15.06-16.98 0-9 5.4-16.92 15.06-16.92s15.06 7.92 15.06 16.92c0 9.06-5.4 16.98-15.06 16.98zm0-28.8c-6 0-9.9 4.68-9.9 11.82 0 7.2 3.9 11.88 9.9 11.88 6.06 0 9.9-4.68 9.9-11.88.001-7.14-3.84-11.82-9.9-11.82z"/><path id="P" d="M309.513 53.24h-2.7v24.18c0 1.68-1.26 2.52-2.64 2.52-1.26 0-2.52-.84-2.52-2.52V53.24h-2.46c-1.62 0-2.52-1.2-2.52-2.52 0-1.38.9-2.58 2.52-2.58h2.46v-4.08c0-3.84 3.18-6.78 6.9-6.78 1.74 0 2.64 1.2 2.64 2.58 0 1.26-.9 2.52-2.64 2.52-1.02 0-1.74.78-1.74 1.62v4.14h2.7c1.74 0 2.64 1.2 2.64 2.58 0 1.32-.9 2.52-2.64 2.52z"/><path id="Q" d="M716.4 80c-1.32 0-2.52-.9-2.52-2.52V60.8c0-4.68-3.9-8.58-8.58-8.58-4.62 0-8.52 3.9-8.52 8.58v16.62c0 1.68-1.26 2.64-2.64 2.64-1.26 0-2.52-.9-2.52-2.58V50.66c0-1.74 1.26-2.52 2.52-2.52 1.2 0 2.28.66 2.58 1.98 2.34-1.86 5.28-3 8.58-3 7.44 0 13.68 6.18 13.68 13.68v16.62c.001 1.68-1.198 2.58-2.58 2.58z"/><path id="R" d="M854.58 81.02c-3.3 0-8.82-1.02-11.64-4.5-.36-.54-.54-1.08-.54-1.56 0-1.5 1.44-2.7 2.7-2.7.72 0 1.26.36 1.86 1.02 1.86 2.04 4.92 2.64 7.62 2.64 5.4 0 7.14-1.86 7.14-4.56 0-7.68-18.3-2.94-18.3-15.3 0-6.54 6.12-8.94 11.82-8.94 3.24 0 10.86 1.62 10.86 4.98 0 1.32-1.08 2.7-2.52 2.7-.54 0-1.38-.3-1.98-.78-1.62-1.38-3.96-1.8-6.36-1.8-4.98 0-6.72 1.86-6.72 3.84 0 7.14 18.36 2.52 18.36 15.3.002 7.08-5.94 9.66-12.298 9.66z"/><path id="S" d="M955.393 80.12c-3.24 0-6-2.76-6-6.12V39.862c0-1.74 1.26-2.58 2.58-2.58s2.58.84 2.58 2.52V74c0 .72.54 1.02.84 1.02 1.68 0 2.58 1.2 2.58 2.58 0 1.318-.9 2.52-2.58 2.52z"/><path id="T" d="M189.75 142.22c-9.66 0-15.06-7.92-15.06-16.98 0-9 5.4-16.92 15.06-16.92s15.06 7.92 15.06 16.92c0 9.06-5.4 16.98-15.06 16.98zm0-28.8c-6 0-9.9 4.68-9.9 11.82 0 7.2 3.9 11.88 9.9 11.88 6.06 0 9.9-4.68 9.9-11.88 0-7.14-3.84-11.82-9.9-11.82z"/><path id="U" d="M287.248 104.48a4.3 4.3 0 1 1 0-8.639 4.3 4.3 0 1 1 0 8.639zm0 36.72c-1.32 0-2.64-.9-2.64-2.52v-26.76c0-1.68 1.32-2.58 2.64-2.58 1.26 0 2.52.9 2.52 2.58v26.76c0 1.68-1.26 2.52-2.52 2.52z"/><path id="V" d="M105.192 169.686c-3.57 0-6.497 2.89-6.497 6.498v10.752c0 .684-.57 1.064-1.063 1.064-.532 0-1.103-.38-1.103-1.064V168.89c0-.684.57-1.064 1.103-1.064.494 0 1.063.38 1.063 1.064v1.557c1.7-1.86 3.95-2.924 6.497-2.924.684 0 1.102.568 1.102 1.062 0 .534-.418 1.102-1.102 1.102z"/><path id="W" d="M138.78 196.663c-3.23 0-7.79-1.215-7.79-2.584 0-.607.494-1.215 1.103-1.215.418 0 1.29.645 2.014.912.987.342 2.545.72 4.673.72 4.863 0 7.37-2.393 7.37-7.066v-2.66c-1.672 2.014-4.065 3.23-7.37 3.23-6.003 0-9.536-4.256-9.536-10.107 0-5.7 3.42-10.715 9.536-10.715 3.306 0 5.775 1.37 7.37 3.572v-1.824c0-.684.57-1.062 1.102-1.062.494 0 1.064.38 1.064 1.062v18.504c-.001 6.04-3.61 9.232-9.538 9.232zm0-27.32c-4.483 0-7.37 3.61-7.37 8.55 0 4.902 2.698 7.94 7.37 7.94s7.37-3.04 7.37-7.94c0-4.94-2.85-8.55-7.37-8.55z"/></defs></svg>