<svg xmlns="http://www.w3.org/2000/svg" xmlns:xlink="http://www.w3.org/1999/xlink" viewBox="0 0 1080 1080"><style><![CDATA[.O{fill:#fff}.P{stroke-miterlimit:10}.Q{stroke-width:2}.R{stroke-dasharray:2.00791 6.02373}]]></style><defs><linearGradient id="A" x1="11.716" y1="11.716" x2="1068.284" y2="1068.284" gradientUnits="userSpaceOnUse"><stop offset="0" stop-color="#16bffd"/><stop offset=".217" stop-color="#4997d3"/><stop offset=".482" stop-color="#806ba4"/><stop offset=".711" stop-color="#a94b82"/><stop offset=".891" stop-color="#c2376e"/><stop offset="1" stop-color="#cb3066"/></linearGradient><clipPath id="B"><path d="M0 0h1080v1080H0z" fill="none"/></clipPath><path id="C" d="M104.714 1045.51a1.36 1.36 0 0 1-1.4-1.101 7.763 7.763 0 0 1-4.804 1.668 7.666 7.666 0 0 1-7.604-7.605v-9.24a1.434 1.434 0 0 1 2.868-.033v9.272a4.753 4.753 0 1 0 9.507 0v-9.24a1.33 1.33 0 0 1 1.4-1.468 1.364 1.364 0 0 1 1.435 1.435v14.9a1.328 1.328 0 0 1-1.401 1.4z"/><path id="D" d="M355.792 1046.357c-1.2 0-3.22-.42-3.92-1.58a.478.478 0 0 1-.08-.299.546.546 0 0 1 1.021-.32 3.815 3.815 0 0 0 2.98 1.061c1.94 0 2.92-.64 2.92-1.94 0-3.02-6.562-1.42-6.562-5.422 0-2.02 2.02-2.8 3.84-2.8a5.415 5.415 0 0 1 3.44 1.16.556.556 0 0 1 .18.379.647.647 0 0 1-.62.6.527.527 0 0 1-.38-.16 4.001 4.001 0 0 0-2.62-.84c-1.76 0-2.7.682-2.7 1.66 0 2.8 6.562 1.32 6.562 5.422 0 2.28-2 3.08-4.06 3.08z"/><path id="E" d="M366.513 1046.318c-3.22 0-5.02-2.64-5.02-5.662 0-3 1.8-5.64 5.02-5.64s5.02 2.64 5.02 5.64c0 3.02-1.8 5.662-5.02 5.662zm0-10.162c-2.36 0-3.88 1.9-3.88 4.5s1.52 4.52 3.88 4.52c2.38 0 3.88-1.92 3.88-4.52s-1.5-4.5-3.88-4.5z"/><path id="F" d="M382.293 1045.98a.563.563 0 0 1-.58-.561v-.64a4.443 4.443 0 0 1-3.421 1.541 4.61 4.61 0 0 1-4.561-4.561v-5.842a.57.57 0 0 1 1.14 0v5.842a3.421 3.421 0 0 0 6.842 0v-5.842a.57.57 0 0 1 1.141 0v9.502a.559.559 0 0 1-.561.561z"/><path id="G" d="M390.252 1036.336a3.418 3.418 0 0 0-3.421 3.42v5.662a.57.57 0 0 1-1.141 0v-9.502a.57.57 0 0 1 1.141 0v.82a4.566 4.566 0 0 1 3.421-1.541.57.57 0 1 1 0 1.141z"/><path id="H" d="M400.433 1044.797a4.646 4.646 0 0 1-3.58 1.521c-3.22 0-5.02-2.64-5.02-5.662 0-3 1.8-5.64 5.02-5.64a4.651 4.651 0 0 1 3.58 1.52.534.534 0 0 1 .16.381.626.626 0 0 1-.58.6.586.586 0 0 1-.42-.199 3.526 3.526 0 0 0-2.74-1.16c-2.36 0-3.88 1.9-3.88 4.5s1.52 4.52 3.88 4.52a3.592 3.592 0 0 0 2.74-1.16.586.586 0 0 1 .42-.199.594.594 0 0 1 .58.58.569.569 0 0 1-.16.398z"/><path id="I" d="M412.013 1041.236h-8.302c.18 2.28 1.66 3.94 3.84 3.94a3.615 3.615 0 0 0 2.94-1.381.526.526 0 0 1 .479-.279.611.611 0 0 1 .62.541c0 .18 0 .22-.38.658a4.718 4.718 0 0 1-3.66 1.602c-3.22 0-5.02-2.64-5.02-5.662 0-3 1.8-5.64 5.02-5.64s5.02 2.66 5.02 5.64a.605.605 0 0 1-.56.58zm-4.46-5.08c-2.4 0-3.66 1.84-3.84 3.94h7.7c-.18-2.28-1.66-3.94-3.86-3.94z"/><path id="J" d="M440.232 1039.816h-4.86v5.602a.57.57 0 0 1-1.141 0v-13.123a.59.59 0 0 1 .58-.561h5.4a4.041 4.041 0 1 1 .02 8.082zm0-6.96h-4.86v5.82h4.84a2.91 2.91 0 1 0 .02-5.82z"/><path id="K" d="M469.21 1045.98h-.62a2.075 2.075 0 0 1-2.36-2.342v-7.14h-1.02a.57.57 0 0 1 0-1.141h1.02v-3.06a.563.563 0 0 1 .58-.561.547.547 0 0 1 .56.561v3.06h1.84a.57.57 0 0 1 0 1.141h-1.84v7.14c0 .98.28 1.2 1.22 1.2h.62a.57.57 0 0 1 0 1.141z"/><path id="L" d="M539.4 1046.098a2.096 2.096 0 0 1-1.98-2.119v-11.684a.57.57 0 0 1 1.141 0v11.684c0 1.28 1.42.54 1.42 1.44a.645.645 0 0 1-.58.68z"/><path id="M" d="M552.25 1045.98h-.02a2.073 2.073 0 0 1-1.98-1.561 4.538 4.538 0 0 1-3.88 1.9c-3.26 0-5.02-2.682-5.02-5.662 0-3.02 1.8-5.64 5.02-5.64a4.572 4.572 0 0 1 3.88 1.881v-.98a.565.565 0 0 1 .581-.561.547.547 0 0 1 .56.561v8.063c0 1.28 1.44.48 1.44 1.44a.55.55 0 0 1-.58.561zm-5.88-9.822c-2.36 0-3.88 1.9-3.88 4.5s1.52 4.52 3.88 4.52c2.38 0 3.88-1.92 3.88-4.52s-1.5-4.5-3.88-4.5z"/><path id="N" d="M563.2 1045.98a.563.563 0 0 1-.58-.561v-5.842a3.42 3.42 0 0 0-6.841 0v5.842a.57.57 0 0 1-1.141 0v-9.502a.57.57 0 0 1 1.141 0v.64a4.563 4.563 0 0 1 7.981 3.02v5.842a.558.558 0 0 1-.561.561z"/><path id="O" d="M610.35 1041.236h-8.302c.18 2.28 1.66 3.94 3.84 3.94a3.615 3.615 0 0 0 2.94-1.381.526.526 0 0 1 .48-.279.611.611 0 0 1 .62.541c0 .18 0 .22-.38.658a4.718 4.718 0 0 1-3.66 1.602c-3.22 0-5.02-2.64-5.02-5.662 0-3 1.8-5.64 5.02-5.64s5.02 2.66 5.02 5.64a.605.605 0 0 1-.56.58zm-4.46-5.08c-2.4 0-3.66 1.84-3.84 3.94h7.7c-.18-2.28-1.66-3.94-3.86-3.94z"/><path id="P" d="M702.287 1033.436a1.141 1.141 0 1 1 1.141-1.141 1.127 1.127 0 0 1-1.141 1.141zm0 12.543a.55.55 0 0 1-.58-.561v-9.502a.552.552 0 0 1 .58-.561.545.545 0 0 1 .561.561v9.502a.536.536 0 0 1-.561.561z"/><path id="Q" d="M812.265 1032.855h-.62a.885.885 0 0 0-.881.859v1.64h1.5a.545.545 0 0 1 .56.561.563.563 0 0 1-.56.58h-1.5v8.922a.546.546 0 0 1-.56.561.534.534 0 0 1-.561-.561v-8.922h-1.38a.57.57 0 0 1 0-1.141h1.38v-1.64a1.986 1.986 0 0 1 1.98-1.98h.64a.569.569 0 0 1 .58.58.536.536 0 0 1-.58.541z"/><path id="R" d="M104.67 811.076l49.13 49.13-49.13 49.13-49.13-49.13z"/><path id="S" d="M590.977 389.75a13.295 13.295 0 0 1 3.563 9.313v21.125a13.523 13.523 0 0 1-3.562 9.375 12.429 12.429 0 0 1-9.062 3.688 12.568 12.568 0 0 1-9.062-3.687 13.284 13.284 0 0 1-3.5-9.375v-21.125a13.061 13.061 0 0 1 3.5-9.312 12.242 12.242 0 0 1 9.063-3.687 12.112 12.112 0 0 1 9.063 3.688zm-16.937 9.313v21.125a9.431 9.431 0 0 0 2.125 6.25 8.001 8.001 0 0 0 11.5 0 9.259 9.259 0 0 0 2.188-6.25v-21.125a9.02 9.02 0 0 0-2.187-6.187 8.001 8.001 0 0 0-11.5 0 9.185 9.185 0 0 0-2.125 6.188h0z"/><path id="T" d="M477.913 466a1.293 1.293 0 0 1-1.344-1.344v-8.896a4.56 4.56 0 1 0-9.119 0v8.863a1.36 1.36 0 0 1-1.408 1.408 1.319 1.319 0 0 1-1.344-1.376v-14.303a1.273 1.273 0 0 1 1.344-1.344 1.338 1.338 0 0 1 1.376 1.056 7.308 7.308 0 0 1 11.871 5.696v8.863a1.309 1.309 0 0 1-1.376 1.376z"/><path id="U" d="M498.68 466a3.114 3.114 0 0 1-2.848-1.824 7.332 7.332 0 0 1-5.632 2.368c-5.215 0-8.03-4.288-8.03-9.055s2.88-9.023 8.03-9.023a7.07 7.07 0 0 1 5.28 2.112v-.128a1.32 1.32 0 0 1 1.344-1.44 1.286 1.286 0 0 1 1.408 1.344v12.35a.518.518 0 0 0 .448.576 1.36 1.36 0 1 1 0 2.72zm-8.48-14.815c-3.2 0-5.28 2.496-5.28 6.304 0 3.84 2.08 6.335 5.28 6.335 3.232 0 5.28-2.496 5.28-6.335 0-3.808-2.048-6.304-5.28-6.304z"/><path id="V" d="M512.857 446.417a2.304 2.304 0 1 1 2.304-2.304 2.294 2.294 0 0 1-2.304 2.304zm0 19.583a1.344 1.344 0 0 1-1.408-1.344v-14.27a1.351 1.351 0 0 1 1.408-1.376 1.318 1.318 0 0 1 1.344 1.376v14.27a1.291 1.291 0 0 1-1.344 1.344z"/><path id="W" d="M525.528 466.544c-5.15 0-8.03-4.224-8.03-9.055 0-4.8 2.88-9.023 8.03-9.023s8.032 4.224 8.032 9.023c0 4.83-2.88 9.055-8.032 9.055zm0-15.36c-3.2 0-5.28 2.496-5.28 6.304 0 3.84 2.08 6.335 5.28 6.335 3.232 0 5.28-2.496 5.28-6.335 0-3.808-2.048-6.304-5.28-6.304z"/><path id="X" d="M577.432 466.064a3.265 3.265 0 0 1-3.2-3.264v-18.207a1.376 1.376 0 0 1 2.752-.032v18.24a.505.505 0 0 0 .448.544 1.36 1.36 0 1 1 0 2.72z"/><path id="Y" d="M634.294 451.185a4.61 4.61 0 0 0-4.543 4.576v8.863a1.334 1.334 0 0 1-1.408 1.376 1.31 1.31 0 0 1-1.344-1.344v-14.27a1.356 1.356 0 0 1 1.344-1.376 1.314 1.314 0 0 1 1.376 1.088 7.397 7.397 0 0 1 4.575-1.632 1.361 1.361 0 1 1 0 2.72z"/><path id="Z" d="M668.247 468.816a1.296 1.296 0 0 1-.672.224 1.409 1.409 0 0 1-1.344-1.408c0-1.088 1.216-1.312 1.216-1.824v-.032s-1.28-.352-1.28-2.27a2.07 2.07 0 0 1 2.144-1.984c1.504 0 2.4 1.696 2.4 3.072a5.062 5.062 0 0 1-2.464 4.224z"/><path id="a" d="M763.028 451.185a4.61 4.61 0 0 0-4.543 4.576v8.863a1.334 1.334 0 0 1-1.408 1.376 1.31 1.31 0 0 1-1.344-1.344v-14.27a1.356 1.356 0 0 1 1.344-1.376 1.313 1.313 0 0 1 1.375 1.088 7.4 7.4 0 0 1 4.576-1.632 1.361 1.361 0 1 1 0 2.72z"/><path id="b" d="M821.875 466.544c-1.76 0-4.704-.544-6.208-2.4a1.416 1.416 0 0 1 1.152-2.272 1.315 1.315 0 0 1 .992.544 5.467 5.467 0 0 0 4.063 1.408c2.88 0 3.808-.992 3.808-2.432 0-4.096-9.76-1.568-9.76-8.16 0-3.488 3.264-4.768 6.304-4.768 1.728 0 5.792.864 5.792 2.656a1.436 1.436 0 0 1-1.344 1.44 1.929 1.929 0 0 1-1.056-.416 5.188 5.188 0 0 0-3.392-.96c-2.656 0-3.584.992-3.584 2.048 0 3.808 9.792 1.344 9.792 8.16 0 3.776-3.168 5.152-6.56 5.152z"/><path id="c" d="M560.235 500a1.293 1.293 0 0 1-1.344-1.344v-8.896a4.56 4.56 0 1 0-9.119 0v8.863a1.36 1.36 0 0 1-1.408 1.408 1.318 1.318 0 0 1-1.344-1.376v-14.303a1.273 1.273 0 0 1 1.344-1.344 1.337 1.337 0 0 1 1.375 1.056 7.308 7.308 0 0 1 11.872 5.696v8.863a1.309 1.309 0 0 1-1.376 1.376z"/><path id="d" d="M615.053 519.185a4.61 4.61 0 0 0-4.543 4.576v8.863a1.334 1.334 0 0 1-1.408 1.376 1.311 1.311 0 0 1-1.344-1.344v-14.27a1.356 1.356 0 0 1 1.344-1.376 1.314 1.314 0 0 1 1.376 1.088 7.4 7.4 0 0 1 4.575-1.632 1.361 1.361 0 1 1 0 2.72z"/><path id="e" d="M630.886 526.896h-11.84c.448 3.008 2.368 4.928 5.184 4.928a4.805 4.805 0 0 0 3.808-1.664 1.322 1.322 0 0 1 .992-.512 1.493 1.493 0 0 1 1.44 1.407c0 .384-.096.672-.768 1.344a7.797 7.797 0 0 1-5.472 2.145c-5.15 0-8.03-4.256-8.03-9.056 0-4.768 2.88-9.023 8.03-9.023 5.216 0 8 4.256 8 9.023a1.364 1.364 0 0 1-1.344 1.408zm-6.656-7.712c-3.007 0-4.768 2.208-5.184 4.96h10.368c-.448-3.072-2.368-4.96-5.184-4.96z"/><path id="f" d="M618.942 572.758a1.146 1.146 0 0 1-1.176-1.176v-8.82a2.954 2.954 0 0 0-5.908-.027v8.82a1.144 1.144 0 0 1-1.203 1.203 1.131 1.131 0 0 1-1.177-1.176v-8.82a2.968 2.968 0 0 0-5.936-.027v8.82a1.167 1.167 0 0 1-1.232 1.203 1.146 1.146 0 0 1-1.176-1.176v-12.516a1.229 1.229 0 0 1 2.24-.672 5.4 5.4 0 0 1 3.107-.98 5.301 5.301 0 0 1 4.173 1.988 5.243 5.243 0 0 1 4.144-1.988 5.348 5.348 0 0 1 5.376 5.32v8.82a1.167 1.167 0 0 1-1.232 1.203z"/><path id="g" d="M625.186 555.623a2.017 2.017 0 1 1 2.016-2.018 2.008 2.008 0 0 1-2.016 2.018zm0 17.135a1.176 1.176 0 0 1-1.232-1.176v-12.488a1.182 1.182 0 0 1 1.232-1.203 1.153 1.153 0 0 1 1.176 1.203v12.488a1.129 1.129 0 0 1-1.176 1.176z"/><path id="h" d="M633.08 572.814a2.858 2.858 0 0 1-2.8-2.855v-15.932a1.204 1.204 0 0 1 2.408-.029v15.96a.441.441 0 0 0 .392.475 1.191 1.191 0 1 1 0 2.381z"/><path id="i" d="M137.5 937.904h-.028a2.898 2.898 0 0 1-2.771-2.184 6.355 6.355 0 0 1-5.433 2.659c-4.563 0-7.027-3.75-7.027-7.923 0-4.23 2.52-7.896 7.027-7.896a6.403 6.403 0 0 1 5.433 2.632v-1.372a.789.789 0 0 1 .812-.784.764.764 0 0 1 .784.784v11.284c0 1.792 2.016.672 2.016 2.016a.77.77 0 0 1-.812.784zm-8.232-13.748c-3.304 0-5.432 2.66-5.432 6.3s2.128 6.327 5.432 6.327c3.332 0 5.433-2.687 5.433-6.327s-2.1-6.3-5.433-6.3z"/><path id="j" d="M146.684 924.408a4.786 4.786 0 0 0-4.788 4.788v7.924a.798.798 0 0 1-1.596 0v-13.3a.798.798 0 0 1 1.596 0v1.148a6.395 6.395 0 0 1 4.788-2.156.798.798 0 1 1 0 1.596z"/><path id="k" d="M170.484 938.437c-1.68 0-4.508-.588-5.487-2.212a.674.674 0 0 1-.112-.42.764.764 0 0 1 1.428-.448c1.008 1.232 2.8 1.484 4.172 1.484 2.717 0 4.088-.896 4.088-2.716 0-4.23-9.184-1.988-9.184-7.59 0-2.827 2.828-3.92 5.376-3.92a7.587 7.587 0 0 1 4.816 1.624.784.784 0 0 1 .252.532.908.908 0 0 1-.868.84.742.742 0 0 1-.532-.224 5.598 5.598 0 0 0-3.668-1.176c-2.464 0-3.78.952-3.78 2.323 0 3.92 9.185 1.85 9.185 7.59 0 3.19-2.8 4.312-5.685 4.312z"/><path id="l" d="M45 969.98a6.353 6.353 0 0 1-5.432-2.659v1.4a.798.798 0 0 1-1.597 0v-18.368a.798.798 0 0 1 1.597 0v6.44a6.401 6.401 0 0 1 5.432-2.632c4.508 0 7.028 3.695 7.028 7.895 0 4.23-2.52 7.924-7.028 7.924zm0-14.224c-3.332 0-5.432 2.66-5.432 6.3s2.1 6.328 5.432 6.328 5.432-2.687 5.432-6.328-2.1-6.3-5.432-6.3z"/><path id="m" d="M55.6 951.948a1.596 1.596 0 1 1 1.597-1.597 1.578 1.578 0 0 1-1.597 1.597zm0 17.556a.77.77 0 0 1-.812-.784v-13.3a.771.771 0 0 1 .812-.784.763.763 0 0 1 .784.784v13.3a.749.749 0 0 1-.784.784z"/><path id="n" d="M124.117 962.868h-11.62c.252 3.19 2.324 5.516 5.376 5.516a5.06 5.06 0 0 0 4.116-1.932.734.734 0 0 1 .672-.393.856.856 0 0 1 .868.757c0 .252 0 .308-.532.924a6.611 6.611 0 0 1-5.124 2.239c-4.508 0-7.027-3.695-7.027-7.924 0-4.2 2.52-7.895 7.027-7.895s7.028 3.724 7.028 7.895a.848.848 0 0 1-.784.813zm-6.244-7.112c-3.36 0-5.124 2.576-5.376 5.516h10.78c-.252-3.19-2.324-5.516-5.404-5.516z"/><path id="o" d="M141.028 970.036c-1.68 0-4.508-.588-5.487-2.212a.675.675 0 0 1-.112-.42.764.764 0 0 1 1.428-.448c1.008 1.23 2.8 1.483 4.172 1.483 2.717 0 4.088-.895 4.088-2.716 0-4.228-9.184-1.987-9.184-7.588 0-2.828 2.828-3.92 5.376-3.92a7.587 7.587 0 0 1 4.816 1.624.784.784 0 0 1 .252.532.908.908 0 0 1-.868.84.742.742 0 0 1-.532-.224 5.599 5.599 0 0 0-3.668-1.177c-2.464 0-3.78.952-3.78 2.324 0 3.92 9.185 1.85 9.185 7.588 0 3.192-2.8 4.313-5.685 4.313z"/><path id="p" d="M149.905 951.948a1.596 1.596 0 1 1 1.596-1.597 1.578 1.578 0 0 1-1.596 1.597zm0 17.556a.77.77 0 0 1-.812-.784v-13.3a.772.772 0 0 1 .813-.784.762.762 0 0 1 .783.784v13.3a.749.749 0 0 1-.783.784z"/><path id="q" d="M159.228 969.504h-.868c-2.212 0-3.304-1.092-3.304-3.276v-9.995h-1.428a.798.798 0 0 1 0-1.597h1.428v-4.284a.786.786 0 0 1 .812-.783.763.763 0 0 1 .784.783v4.284h2.576a.798.798 0 0 1 0 1.597h-2.576v9.995c0 1.372.393 1.68 1.708 1.68h.868a.798.798 0 0 1 0 1.596z"/><path id="r" d="M422.76 931.27h-11.62c.252 3.192 2.324 5.516 5.376 5.516a5.06 5.06 0 0 0 4.116-1.932.735.735 0 0 1 .672-.392.856.856 0 0 1 .868.756c0 .252 0 .308-.532.924a6.611 6.611 0 0 1-5.124 2.239c-4.508 0-7.027-3.695-7.027-7.923 0-4.2 2.52-7.896 7.027-7.896s7.028 3.724 7.028 7.896a.847.847 0 0 1-.784.812zm-6.244-7.112c-3.36 0-5.124 2.576-5.376 5.517h10.78c-.252-3.192-2.324-5.517-5.404-5.517z"/><path id="s" d="M294.036 969.504h-.028a2.899 2.899 0 0 1-2.771-2.184 6.353 6.353 0 0 1-5.432 2.659c-4.564 0-7.028-3.752-7.028-7.924 0-4.228 2.52-7.895 7.028-7.895a6.401 6.401 0 0 1 5.432 2.632v-1.372a.789.789 0 0 1 .812-.784.764.764 0 0 1 .784.784v11.284c0 1.792 2.017.672 2.017 2.016a.77.77 0 0 1-.812.784zm-8.23-13.748c-3.305 0-5.433 2.66-5.433 6.3s2.128 6.328 5.433 6.328c3.332 0 5.432-2.687 5.432-6.328s-2.1-6.3-5.432-6.3z"/><path id="t" d="M303.22 956.008a4.786 4.786 0 0 0-4.788 4.788v7.924a.798.798 0 0 1-1.596 0v-13.3a.798.798 0 0 1 1.596 0v1.148a6.393 6.393 0 0 1 4.788-2.156.798.798 0 1 1 0 1.596z"/><path id="u" d="M328.727 969.98c-4.508 0-7.028-3.695-7.028-7.924 0-4.2 2.52-7.895 7.028-7.895s7.028 3.695 7.028 7.895c0 4.23-2.52 7.924-7.028 7.924zm0-14.224c-3.304 0-5.432 2.66-5.432 6.3s2.128 6.328 5.432 6.328c3.332 0 5.432-2.687 5.432-6.328s-2.1-6.3-5.432-6.3z"/><path id="v" d="M350.5 969.504a.787.787 0 0 1-.812-.784v-8.176a4.788 4.788 0 1 0-9.576 0v8.176a.798.798 0 0 1-1.596 0v-13.3a.798.798 0 0 1 1.596 0v.896a6.387 6.387 0 0 1 11.172 4.228v8.176a.781.781 0 0 1-.784.784z"/><path id="w" d="M414.125 969.98c-4.508 0-7.027-3.695-7.027-7.924 0-4.2 2.52-7.895 7.027-7.895s7.028 3.695 7.028 7.895c0 4.23-2.52 7.924-7.028 7.924zm0-14.224c-3.304 0-5.432 2.66-5.432 6.3s2.128 6.328 5.432 6.328c3.332 0 5.433-2.687 5.433-6.328s-2.1-6.3-5.433-6.3z"/><path id="x" d="M490.51 969.504a.787.787 0 0 1-.812-.784v-8.176a4.788 4.788 0 1 0-9.576 0v8.176a.798.798 0 0 1-1.596 0v-13.3a.798.798 0 0 1 1.596 0v.896a6.388 6.388 0 0 1 11.173 4.228v8.176a.781.781 0 0 1-.784.784z"/><path id="y" d="M578.363 931.27h-11.62c.252 3.192 2.324 5.516 5.376 5.516a5.061 5.061 0 0 0 4.116-1.932.735.735 0 0 1 .672-.392.856.856 0 0 1 .868.756c0 .252 0 .308-.532.924a6.611 6.611 0 0 1-5.124 2.239c-4.508 0-7.028-3.695-7.028-7.923 0-4.2 2.52-7.896 7.028-7.896s7.028 3.724 7.028 7.896a.847.847 0 0 1-.784.812zm-6.244-7.112c-3.36 0-5.124 2.576-5.376 5.517h10.78c-.252-3.192-2.324-5.517-5.404-5.517z"/><path id="z" d="M602.527 938.437c-1.68 0-4.508-.588-5.488-2.212a.676.676 0 0 1-.112-.42.764.764 0 0 1 1.428-.448c1.008 1.232 2.8 1.484 4.172 1.484 2.716 0 4.088-.896 4.088-2.716 0-4.23-9.184-1.988-9.184-7.59 0-2.827 2.828-3.92 5.376-3.92a7.586 7.586 0 0 1 4.816 1.624.784.784 0 0 1 .252.532.908.908 0 0 1-.868.84.742.742 0 0 1-.532-.224 5.598 5.598 0 0 0-3.668-1.176c-2.464 0-3.78.952-3.78 2.323 0 3.92 9.184 1.85 9.184 7.59 0 3.19-2.8 4.312-5.684 4.312z"/><path id="AA" d="M681.173 936.253a6.504 6.504 0 0 1-5.013 2.127c-4.508 0-7.027-3.695-7.027-7.923 0-4.2 2.52-7.896 7.027-7.896a6.505 6.505 0 0 1 5.013 2.128.742.742 0 0 1 .224.532.877.877 0 0 1-.812.84.826.826 0 0 1-.588-.28 4.935 4.935 0 0 0-3.836-1.624c-3.304 0-5.432 2.66-5.432 6.3s2.128 6.327 5.432 6.327a5.029 5.029 0 0 0 3.836-1.624.795.795 0 0 1 1.4.532.803.803 0 0 1-.224.561z"/><path id="AB" d="M686.97 938.072a2.934 2.934 0 0 1-2.772-2.968v-16.352a.798.798 0 0 1 1.596 0v16.352c0 1.792 1.988.756 1.988 2.016a.903.903 0 0 1-.812.952z"/><path id="AC" d="M600.97 969.504h-.028a2.899 2.899 0 0 1-2.772-2.184 6.353 6.353 0 0 1-5.432 2.659c-4.564 0-7.028-3.752-7.028-7.924 0-4.228 2.52-7.895 7.028-7.895a6.4 6.4 0 0 1 5.432 2.632v-1.372a.789.789 0 0 1 .812-.784.765.765 0 0 1 .784.784v11.284c0 1.792 2.016.672 2.016 2.016a.77.77 0 0 1-.812.784zm-8.232-13.748c-3.304 0-5.432 2.66-5.432 6.3s2.128 6.328 5.432 6.328c3.332 0 5.432-2.687 5.432-6.328s-2.1-6.3-5.432-6.3z"/><path id="AD" d="M683.12 969.504h-.028a2.898 2.898 0 0 1-2.771-2.184 6.355 6.355 0 0 1-5.433 2.659c-4.563 0-7.027-3.752-7.027-7.924 0-4.228 2.52-7.895 7.027-7.895a6.403 6.403 0 0 1 5.433 2.632v-1.372a.789.789 0 0 1 .812-.784.764.764 0 0 1 .784.784v11.284c0 1.792 2.016.672 2.016 2.016a.77.77 0 0 1-.812.784zm-8.232-13.748c-3.304 0-5.432 2.66-5.432 6.3s2.128 6.328 5.432 6.328c3.332 0 5.433-2.687 5.433-6.328s-2.1-6.3-5.433-6.3z"/><path id="AE" d="M872.66 937.904a.787.787 0 0 1-.812-.784v-1.4a6.353 6.353 0 0 1-5.432 2.659c-4.508 0-7.028-3.695-7.028-7.923 0-4.2 2.52-7.896 7.028-7.896a6.4 6.4 0 0 1 5.432 2.632v-6.44a.798.798 0 0 1 1.596 0v18.367a.78.78 0 0 1-.784.784zm-6.244-13.748c-3.304 0-5.432 2.66-5.432 6.3s2.128 6.327 5.432 6.327c3.332 0 5.432-2.687 5.432-6.327s-2.1-6.3-5.432-6.3z"/><path id="AF" d="M950.495 920.35a1.596 1.596 0 1 1 1.596-1.596 1.578 1.578 0 0 1-1.596 1.596zm0 17.556a.77.77 0 0 1-.812-.784v-13.3a.772.772 0 0 1 .813-.784.763.763 0 0 1 .783.784v13.3a.748.748 0 0 1-.783.784z"/><path id="AG" d="M827.357 969.504h-.868c-2.212 0-3.304-1.092-3.304-3.276v-9.995h-1.428a.798.798 0 0 1 0-1.597h1.428v-4.284a.786.786 0 0 1 .812-.783.764.764 0 0 1 .784.783v4.284h2.576a.798.798 0 0 1 0 1.597h-2.576v9.995c0 1.372.392 1.68 1.708 1.68h.868a.798.798 0 0 1 0 1.596z"/><path id="AH" d="M133.194 80a5.839 5.839 0 0 1-5.34-3.42 13.747 13.747 0 0 1-10.56 4.44c-9.78 0-15.06-8.04-15.06-16.98s5.4-16.92 15.06-16.92a13.26 13.26 0 0 1 9.9 3.96v-.24a2.475 2.475 0 0 1 2.52-2.7 2.412 2.412 0 0 1 2.64 2.52v23.16a.971.971 0 0 0 .84 1.08 2.55 2.55 0 1 1 0 5.1zm-15.9-27.78c-6 0-9.9 4.68-9.9 11.82 0 7.2 3.9 11.88 9.9 11.88 6.06 0 9.9-4.68 9.9-11.88 0-7.14-3.84-11.82-9.9-11.82z"/><path id="AI" d="M318.396 81.02c-9.66 0-15.06-7.92-15.06-16.98 0-9 5.4-16.92 15.06-16.92s15.06 7.92 15.06 16.92c0 9.06-5.4 16.98-15.06 16.98zm0-28.8c-6 0-9.9 4.68-9.9 11.82 0 7.2 3.9 11.88 9.9 11.88 6.06 0 9.9-4.68 9.9-11.88 0-7.14-3.84-11.82-9.9-11.82z"/><path id="AJ" d="M779.247 80h-1.02c-5.7 0-7.86-3-7.86-7.92V53.24h-1.8a2.55 2.55 0 0 1-.061-5.1h1.8v-8.34a2.436 2.436 0 0 1 2.579-2.52 2.39 2.39 0 0 1 2.521 2.52v8.34h3.84a2.487 2.487 0 0 1 2.52 2.52 2.441 2.441 0 0 1-2.52 2.58h-3.84v19.38c0 1.68.6 2.28 2.28 2.28h1.5a2.475 2.475 0 0 1 2.58 2.52 2.441 2.441 0 0 1-2.52 2.58z"/><path id="AK" d="M66.253 128.646c-6.117 0-9.536-5.015-9.536-10.752 0-5.7 3.42-10.715 9.536-10.715s9.537 5.016 9.537 10.715c0 5.737-3.42 10.752-9.537 10.752zm0-19.3c-4.483 0-7.37 3.61-7.37 8.55s2.888 8.587 7.37 8.587c4.52 0 7.37-3.647 7.37-8.587s-2.85-8.55-7.37-8.55z"/><path id="AL" d="M95.816 128a1.068 1.068 0 0 1-1.102-1.063v-11.095a6.497 6.497 0 1 0-12.994 0v11.095a1.083 1.083 0 0 1-2.166 0V108.9a1.083 1.083 0 0 1 2.166 0v1.216a8.667 8.667 0 0 1 15.16 5.737v11.095a1.059 1.059 0 0 1-1.064 1.064z"/><path id="AM" d="M135.602 118.996h-15.768c.342 4.332 3.153 7.485 7.295 7.485a6.866 6.866 0 0 0 5.585-2.622.997.997 0 0 1 .912-.531 1.161 1.161 0 0 1 1.178 1.025c0 .342 0 .418-.722 1.254a8.969 8.969 0 0 1-6.953 3.039c-6.117 0-9.536-5.015-9.536-10.752 0-5.7 3.42-10.715 9.536-10.715s9.537 5.054 9.537 10.715a1.15 1.15 0 0 1-1.064 1.102zm-8.473-9.65c-4.56 0-6.953 3.495-7.295 7.485h14.628c-.342-4.332-3.153-7.485-7.333-7.485z"/><path id="AN" d="M149.092 109.688a6.494 6.494 0 0 0-6.497 6.497v10.753a1.083 1.083 0 0 1-2.166 0V108.9a1.083 1.083 0 0 1 2.166 0v1.558a8.676 8.676 0 0 1 6.497-2.925 1.083 1.083 0 1 1 0 2.165z"/><path id="AO" d="M171.855 104.18a2.166 2.166 0 1 1 2.165-2.166 2.141 2.141 0 0 1-2.165 2.166zm0 23.822a1.045 1.045 0 0 1-1.103-1.063V108.9a1.047 1.047 0 0 1 1.103-1.063 1.034 1.034 0 0 1 1.063 1.063v18.048a1.016 1.016 0 0 1-1.063 1.064z"/><path id="AP" d="M193.817 128a1.068 1.068 0 0 1-1.102-1.063v-11.095a6.497 6.497 0 0 0-12.994 0v11.095a1.083 1.083 0 0 1-2.166 0V108.9a1.083 1.083 0 0 1 2.166 0v1.216a8.667 8.667 0 0 1 15.16 5.737v11.095a1.059 1.059 0 0 1-1.064 1.064z"/><path id="AQ" d="M272.02 128h-.038a3.933 3.933 0 0 1-3.762-2.964 8.619 8.619 0 0 1-7.371 3.609c-6.193 0-9.536-5.09-9.536-10.752 0-5.737 3.42-10.715 9.536-10.715a8.686 8.686 0 0 1 7.371 3.572V108.9a1.071 1.071 0 0 1 1.102-1.063 1.037 1.037 0 0 1 1.064 1.063V124.2c0 2.432 2.735.912 2.735 2.736a1.045 1.045 0 0 1-1.102 1.063zm-11.17-18.655c-4.483 0-7.37 3.61-7.37 8.55s2.888 8.587 7.37 8.587c4.52 0 7.37-3.647 7.37-8.587s-2.85-8.55-7.37-8.55z"/><path id="AR" d="M282.775 128h-1.178c-3 0-4.483-1.48-4.483-4.445V109.99h-1.937a1.083 1.083 0 0 1 0-2.165h1.938v-5.814a1.068 1.068 0 0 1 1.103-1.063 1.037 1.037 0 0 1 1.063 1.063v5.813h3.495a1.083 1.083 0 0 1 0 2.165h-3.495v13.564c0 1.86.532 2.28 2.317 2.28h1.178a1.083 1.083 0 0 1 0 2.166z"/><path id="AS" d="M356.524 103.077h-1.178a1.679 1.679 0 0 0-1.672 1.633v3.116h2.85a1.035 1.035 0 0 1 1.064 1.063 1.068 1.068 0 0 1-1.064 1.102h-2.85v16.946a1.037 1.037 0 0 1-1.063 1.063 1.014 1.014 0 0 1-1.063-1.063V109.99h-2.622a1.083 1.083 0 0 1 0-2.165h2.622V104.7a3.769 3.769 0 0 1 3.761-3.761h1.216a1.078 1.078 0 0 1 1.103 1.102 1.019 1.019 0 0 1-1.103 1.026z"/></defs><rect width="1080" height="1080" rx="40" fill="url(#A)"/><g opacity=".4" class="O"><path d="M42.328 1046.045a7.892 7.892 0 0 1-5.503-2.002 1.364 1.364 0 0 1-1.468 1.401 1.346 1.346 0 0 1-1.401-1.401v-20.88a1.435 1.435 0 0 1 2.869-.033v6.238a7.4 7.4 0 0 1 5.503-2.169c5.37 0 8.373 4.403 8.373 9.406 0 5.037-3.002 9.44-8.373 9.44zm0-16c-3.335 0-5.503 2.602-5.503 6.57 0 4.003 2.168 6.604 5.503 6.604s5.504-2.602 5.504-6.604c0-3.97-2.168-6.57-5.504-6.57zm25.555 8.037h-12.34c.467 3.136 2.468 5.137 5.403 5.137a5.003 5.003 0 0 0 3.969-1.734 1.383 1.383 0 0 1 1.034-.533 1.556 1.556 0 0 1 1.501 1.468c0 .4-.1.7-.8 1.4a8.129 8.129 0 0 1-5.704 2.235c-5.37 0-8.372-4.437-8.372-9.44 0-4.97 3.002-9.406 8.372-9.406 5.437 0 8.34 4.437 8.34 9.406a1.422 1.422 0 0 1-1.401 1.468zm-6.937-8.038c-3.136 0-4.97 2.3-5.403 5.17H66.35c-.467-3.202-2.468-5.17-5.403-5.17zM88 1045.478a3.247 3.247 0 0 1-2.969-1.901 7.642 7.642 0 0 1-5.87 2.469c-5.437 0-8.372-4.47-8.372-9.44s3.002-9.406 8.372-9.406a7.369 7.369 0 0 1 5.504 2.202v-.134a1.376 1.376 0 0 1 1.4-1.501 1.341 1.341 0 0 1 1.468 1.401v12.875a.54.54 0 0 0 .467.601 1.418 1.418 0 1 1 0 2.835zm-8.84-15.443c-3.336 0-5.504 2.602-5.504 6.57 0 4.003 2.168 6.604 5.504 6.604 3.37 0 5.504-2.602 5.504-6.604 0-3.97-2.135-6.57-5.504-6.57z"/><use xlink:href="#C"/><path d="M115.158 1045.478h-.567c-3.17 0-4.37-1.668-4.37-4.403V1030.6h-1a1.418 1.418 0 1 1-.033-2.835h1v-4.637a1.355 1.355 0 0 1 1.435-1.4 1.328 1.328 0 0 1 1.401 1.4v4.637h2.135a1.383 1.383 0 0 1 1.4 1.401 1.356 1.356 0 0 1-1.4 1.434h-2.135v10.774c0 .934.333 1.268 1.268 1.268h.833a1.376 1.376 0 0 1 1.435 1.4 1.357 1.357 0 0 1-1.4 1.435zm4.604-20.415a2.401 2.401 0 1 1 2.402-2.401 2.392 2.392 0 0 1-2.402 2.401zm0 20.414a1.4 1.4 0 0 1-1.467-1.401V1029.2a1.408 1.408 0 0 1 1.467-1.435 1.374 1.374 0 0 1 1.401 1.435v14.876a1.346 1.346 0 0 1-1.401 1.401zm10.376-14.877h-1.5v13.442a1.364 1.364 0 0 1-1.468 1.401 1.346 1.346 0 0 1-1.401-1.401V1030.6h-1.37a1.418 1.418 0 0 1 0-2.835h1.367v-2.27a3.801 3.801 0 0 1 3.836-3.769 1.418 1.418 0 1 1 0 2.835.934.934 0 0 0-.967.9v2.302h1.5a1.418 1.418 0 1 1 0 2.835z"/><use xlink:href="#C" x="42.068"/><path d="M154.725 1045.544a3.403 3.403 0 0 1-3.336-3.402v-18.98a1.435 1.435 0 0 1 2.869-.033v19.013a.527.527 0 0 0 .467.567 1.418 1.418 0 1 1 0 2.835zm15.37-.066v-1.264c1.886-.237 2.046-.437 2.046-3.157v-6.7c0-2.8-1.248-4.017-3.064-4.017a5.597 5.597 0 0 0-3.47 1.493v9.476c0 2.527.187 2.658 2.06 2.896v1.264h-8.968v-1.264c2.254-.33 2.5-.4 2.5-3v-8.2c0-2.446-.303-2.565-2.185-2.922v-1.184a34.101 34.101 0 0 0 6.653-1.533l-.052 2.95 2.6-1.745a5.659 5.659 0 0 1 3.159-1.086c3.194 0 5.2 2.338 5.2 6.3v7.5c0 2.54.237 2.657 2.277 2.92v1.264zm23.9-3.703c-2.458 3.427-5.488 4.178-7.014 4.178-5.142 0-8.124-3.936-8.124-8.594a10.333 10.333 0 0 1 2.832-7.062 8.602 8.602 0 0 1 6.082-2.814 6.386 6.386 0 0 1 6.37 6.347c-.014.715-.08 1.277-.612 1.4-.767.184-6.17.5-10.318.647.062 4.587 2.717 6.74 5.556 6.74a6.776 6.776 0 0 0 4.543-1.866zm-7.07-12.7c-1.667 0-3.167 1.807-3.516 4.963l5.486-.118c.6-.026.848-.146.848-.792.04-2.022-1.037-4.053-2.818-4.053zm34.284.145c-1.943.343-2.248.624-3.105 2.765-1.33 3.462-3.102 8.53-4.934 13.94h-1.512l-4.65-11.46-4.55 11.46h-1.472l-4.685-14.192c-.687-1.985-.94-2.274-2.855-2.512v-1.25h9.397v1.25c-2.325.345-2.535.672-2.058 2.133l2.52 8.214c1.507-3.68 2.988-7.62 4.327-11.424h1.456c1.4 3.76 2.986 7.702 4.573 11.568.742-2.107 2.062-5.964 2.557-8.108.412-1.674-.008-2.078-2.753-2.383v-1.25h7.742zm9.4 3.746c-.92-2.606-2.155-3.984-4.2-3.984a2.166 2.166 0 0 0-2.225 2.266c0 1.497 1.046 2.264 3.16 3.216 3.278 1.496 5.3 2.787 5.3 5.736 0 3.85-3.6 5.764-6.945 5.764a12.073 12.073 0 0 1-4.92-1.161l-.662-4.892 1.252-.224c.8 2.5 2.33 4.75 4.976 4.75a2.231 2.231 0 0 0 2.438-2.281c0-1.423-.76-2.333-3.092-3.467-2.67-1.295-5.107-2.64-5.107-5.775 0-3.046 2.533-5.42 6.565-5.42a18.751 18.751 0 0 1 4.112.567l.62 4.577z"/></g><g opacity=".7" class="O"><use xlink:href="#D"/><use xlink:href="#E"/><use xlink:href="#F"/><use xlink:href="#G"/><use xlink:href="#H"/><use xlink:href="#I"/><use xlink:href="#D" x="62.498"/><path d="M425.49 1039.416a1.14 1.14 0 1 1 0-2.279 1.14 1.14 0 0 1 0 2.279zm0 6.563a1.141 1.141 0 1 1 0-2.281 1.141 1.141 0 0 1 0 2.281z"/><use xlink:href="#J"/><use xlink:href="#G" x="61.3"/><use xlink:href="#E" x="91.639"/><use xlink:href="#K"/><use xlink:href="#I" x="68.6"/><use xlink:href="#H" x="91.257"/><use xlink:href="#K" x="28.7"/><path d="M509.312 1041.236H501c.18 2.28 1.66 3.94 3.84 3.94a3.615 3.615 0 0 0 2.94-1.381.526.526 0 0 1 .479-.279.611.611 0 0 1 .62.541c0 .18 0 .22-.38.658a4.718 4.718 0 0 1-3.66 1.602c-3.22 0-5.02-2.64-5.02-5.662 0-3 1.8-5.64 5.02-5.64s5.02 2.66 5.02 5.64a.605.605 0 0 1-.56.58zm-4.46-5.08c-2.4 0-3.66 1.84-3.84 3.94h7.7c-.18-2.28-1.66-3.94-3.86-3.94zm16.42 9.824a.564.564 0 0 1-.581-.561v-1a4.538 4.538 0 0 1-3.88 1.9c-3.22 0-5.02-2.64-5.02-5.662 0-3 1.8-5.64 5.02-5.64a4.572 4.572 0 0 1 3.88 1.881v-4.602a.57.57 0 0 1 1.141 0v13.123a.558.558 0 0 1-.56.561zm-4.46-9.822c-2.36 0-3.88 1.9-3.88 4.5s1.52 4.52 3.88 4.52c2.38 0 3.88-1.92 3.88-4.52s-1.5-4.5-3.88-4.5z"/><use xlink:href="#J" x="90.438"/><use xlink:href="#L"/><use xlink:href="#M"/><use xlink:href="#N"/><use xlink:href="#I" x="163.437"/><use xlink:href="#K" x="112.84"/><path d="M585.57 1045.98a1.141 1.141 0 1 1 1.14-1.141 1.127 1.127 0 0 1-1.14 1.141z"/><use xlink:href="#N" x="34.9"/><use xlink:href="#O"/><use xlink:href="#K" x="147.74"/><path d="M620.127 1047.758a.513.513 0 0 1-.3.08.559.559 0 0 1-.54-.58c0-.56.86-.64 1-1.28a1.152 1.152 0 0 1 .08-2.301c.98 0 1.2 1 1.2 1.62a2.852 2.852 0 0 1-1.44 2.459zm11.58-1.778h-2.28a.571.571 0 1 1 0-1.141h.56v-11.982h-.56a.561.561 0 1 1 0-1.121h2.28a.561.561 0 1 1 0 1.121h-.58v11.982h.58a.571.571 0 0 1 0 1.141z"/><use xlink:href="#N" x="80.03"/><use xlink:href="#K" x="180.898"/><use xlink:href="#O" x="51.16"/><use xlink:href="#G" x="278.756"/><use xlink:href="#N" x="116.408"/><use xlink:href="#M" x="141.02"/><use xlink:href="#K" x="230.118"/><use xlink:href="#P"/><use xlink:href="#E" x="343.734"/><use xlink:href="#N" x="163.007"/><use xlink:href="#M" x="187.62"/><use xlink:href="#L" x="204.847"/><path d="M756.447 1046.338a5.012 5.012 0 0 1-5.021-5.021v-9.02a.58.58 0 0 1 1.16 0v9.02a3.871 3.871 0 1 0 7.742 0v-9.02a.57.57 0 0 1 1.14 0v9.02a5.01 5.01 0 0 1-5.021 5.021z"/><use xlink:href="#N" x="209.566"/><use xlink:href="#P" x="74.278"/><use xlink:href="#E" x="418.014"/><use xlink:href="#N" x="237.286"/><use xlink:href="#Q"/><use xlink:href="#E" x="452.813"/><use xlink:href="#G" x="441.034"/><path d="M848.165 1044.137a5.123 5.123 0 0 1-4.461 2.182c-4.3 0-5.82-3.56-5.82-7.46 0-3.922 1.52-7.482 5.82-7.482a5.067 5.067 0 0 1 4.44 2.18.407.407 0 0 1 .12.32.6.6 0 0 1-.62.561.528.528 0 0 1-.439-.221 3.939 3.939 0 0 0-3.501-1.699c-3.32 0-4.682 2.6-4.682 6.342 0 3.72 1.36 6.32 4.682 6.32a3.988 3.988 0 0 0 3.541-1.701.465.465 0 0 1 .439-.26.612.612 0 0 1 .601.58.63.63 0 0 1-.12.34z"/><use xlink:href="#E" x="488.491"/><use xlink:href="#N" x="307.764"/><use xlink:href="#D" x="521.732"/><use xlink:href="#I" x="480.693"/><use xlink:href="#G" x="509.953"/><path d="M910.405 1036.137l-3.94 9.38c-.12.26-.3.46-.56.46a.682.682 0 0 1-.58-.461l-3.94-9.36a.633.633 0 0 1-.04-.26.56.56 0 0 1 .58-.541.513.513 0 0 1 .5.34l3.48 8.223 3.46-8.223a.57.57 0 0 1 1.1.18.489.489 0 0 1-.06.262z"/><use xlink:href="#M" x="370.594"/><use xlink:href="#K" x="459.693"/><use xlink:href="#P" x="229.575"/><use xlink:href="#E" x="573.311"/><use xlink:href="#N" x="392.584"/><use xlink:href="#E" x="601.95"/><use xlink:href="#Q" x="167.257"/><path d="M996.363 1045.998a.615.615 0 0 1-.48-.32l-7.82-11.543v11.283a.57.57 0 0 1-1.141 0v-13.123a.569.569 0 0 1 1.08-.279l7.822 11.54v-11.262a.57.57 0 0 1 1.14 0v13.123a.597.597 0 0 1-.6.58z"/><use xlink:href="#M" x="457.993"/><use xlink:href="#K" x="547.09"/><use xlink:href="#F" x="644.769"/><use xlink:href="#G" x="644.77"/><use xlink:href="#I" x="633.607"/></g><g fill="none" stroke="#fff" class="P Q"><use xlink:href="#R"/><use xlink:href="#R" x="272.79"/><use xlink:href="#R" x="545.58"/><use xlink:href="#R" x="832.37"/></g><g opacity=".6" fill="none" stroke="#fff" class="P Q"><path d="M33.956 789.683h1"/><path d="M40.98 789.683h1000.944" class="R"/><path d="M1044.935 789.683h1"/></g><g opacity=".6" fill="none" stroke="#fff" class="P Q"><path d="M33.956 990.454h1"/><path d="M40.98 990.454h1000.944" class="R"/><path d="M1044.935 990.454h1"/></g><g class="O"><path d="M119.528 853.22v-1.2h-1.2a14.649 14.649 0 0 0-12.436 6.921v-5.765a14.657 14.657 0 0 0-.354-20.325l-.856-.856-.856.856a14.657 14.657 0 0 0-.354 20.325v5.765a14.65 14.65 0 0 0-12.436-6.921h-1.2v1.2a14.665 14.665 0 0 0 13.647 14.611v6.73a14.65 14.65 0 0 0-12.436-6.921h-1.2v1.2a14.666 14.666 0 0 0 13.647 14.612v3.754a1.211 1.211 0 1 0 2.421 0v-3.754a14.666 14.666 0 0 0 13.647-14.612v-1.2h-1.2a14.649 14.649 0 0 0-12.436 6.921v-6.73a14.665 14.665 0 0 0 13.647-14.611zm266.357 10.985h-21.577a7.844 7.844 0 1 1 1.655-15.51 9.745 9.745 0 0 1 17.198 2.955 6.574 6.574 0 1 1 2.723 12.555zm8.485-11.02a9.542 9.542 0 0 0-9.492-5.081 12.739 12.739 0 0 0-20.139-2.587 9.945 9.945 0 0 0-2.267.169 7.867 7.867 0 0 1 9.491-7.492 9.745 9.745 0 0 1 17.198 2.955 6.559 6.559 0 1 1 5.208 12.036zm-18.233 16.132a1.307 1.307 0 0 1 1.382-1.267 1.278 1.278 0 0 1 1.267 1.267v15.775l4.145-4.145a1.399 1.399 0 0 1 1.842 0 1.559 1.559 0 0 1 0 1.958l-7.254 7.254-7.37-7.254a1.559 1.559 0 0 1 0-1.958 1.399 1.399 0 0 1 1.842 0l4.145 4.145zm290.04-23.018l-3.073.952a19.855 19.855 0 0 1-12.596-.39 24.102 24.102 0 0 0-13.635-.996l-3.68.822a2.106 2.106 0 1 0 .909 4.112l3.68-.822a19.775 19.775 0 0 1 11.168.779 22.2 22.2 0 0 0 8.441 1.558 23.786 23.786 0 0 0 7.056-1.039l3.073-.952a2.092 2.092 0 0 0 1.385-2.64 2.242 2.242 0 0 0-2.727-1.385zm0 11.385l-3.073.952a19.855 19.855 0 0 1-12.596-.39 24.132 24.132 0 0 0-13.635-.996l-3.68.822a2.101 2.101 0 1 0 .866 4.112l3.68-.822a19.775 19.775 0 0 1 11.168.779 22.2 22.2 0 0 0 8.441 1.558 23.786 23.786 0 0 0 7.056-1.039l3.073-.952a2.092 2.092 0 0 0 1.385-2.64 2.175 2.175 0 0 0-2.684-1.385zm0 11.385l-3.073.952a19.855 19.855 0 0 1-12.596-.39 24.132 24.132 0 0 0-13.635-.996l-3.68.822a2.071 2.071 0 0 0-1.645 2.511 2.116 2.116 0 0 0 2.511 1.602l3.68-.822a19.775 19.775 0 0 1 11.168.779 22.2 22.2 0 0 0 8.441 1.558 23.293 23.293 0 0 0 7.012-1.039l3.073-.952a2.109 2.109 0 1 0-1.255-4.026zm259.346 16.535a2.311 2.311 0 0 1-2.213-2.973l1.156-3.743c1.938-6.184 3.942-12.578 3.942-18.684s-2.004-12.5-3.942-18.684l-1.156-3.742a2.309 2.309 0 0 1 4.423-1.327l1.14 3.7c2.042 6.514 4.153 13.25 4.153 20.064s-2.1 13.55-4.153 20.064l-1.14 3.7a2.311 2.311 0 0 1-2.211 1.646zm23.03 0a2.309 2.309 0 0 1-2.21-1.646l-1.14-3.692c-2.042-6.514-4.152-13.25-4.152-20.062s2.1-13.55 4.152-20.063l1.14-3.7a2.309 2.309 0 1 1 4.423 1.327l-1.157 3.744c-1.938 6.183-3.94 12.577-3.94 18.682s2.004 12.5 3.94 18.682l1.157 3.745a2.313 2.313 0 0 1-2.213 2.973zm-11.514-.001a2.309 2.309 0 0 1-2.309-2.309v-46.18a2.309 2.309 0 0 1 4.618 0v46.18a2.309 2.309 0 0 1-2.309 2.309z"/><path d="M648.727 192.12L936.05 479.443 648.727 766.766 361.404 479.443z" fill-opacity=".3"/></g><g clip-path="url(#B)" class="O"><g opacity=".2"><path d="M627.284-297.272L1384.557 460l-757.272 757.272L-129.988 460l757.272-757.272m0-4.243L-134.23 460l761.515 761.515L1388.8 460 627.284-301.515z"/></g></g><g fill="#fcee21"><path d="M545.38 426.875q-.063.625.563.563h18.25q.687-.125.563.563v3.375c.083.46-.104.666-.562.625h-22.937c-.46.04-.646-.166-.562-.625v-3.437q.312-8.437 4.875-12.812a116.497 116.497 0 0 1 9.063-7.875 11.812 11.812 0 0 0 4.938-9 8.436 8.436 0 0 0-1.875-5.5 6.386 6.386 0 0 0-5.062-2.25 6.948 6.948 0 0 0-5.5 2.375 9.02 9.02 0 0 0-2.062 5.625q.062.876-.687.75h-3.375q-.688.126-.562-.562a13.79 13.79 0 0 1 3.563-8.812 11.378 11.378 0 0 1 8.688-3.812 11.244 11.244 0 0 1 8.313 3.438 12.152 12.152 0 0 1 3.375 8.563q-.375 6.813-4.875 10.563l-9.062 7.563q-4.563 3.75-5.062 10.688h0z"/><use xlink:href="#S"/><use xlink:href="#S" x="29.41"/><path d="M636.547 430.813q-.25 5.438-2.812 7.938-2.625 2.438-4.937 2.438-.5 0-.437-.625v-1.687q-.063-.562.5-.562a5.21 5.21 0 0 0 2.938-1.812 6.092 6.092 0 0 0 1.375-3.875c-.084-.2-.187-.292-.312-.25l-1.187.188q-2.75-.063-3.062-3.375.312-3.687 3.688-3.812a3.945 3.945 0 0 1 3.563 2.063 6.596 6.596 0 0 1 .688 3.375h0zm26.035-41.063a13.295 13.295 0 0 1 3.563 9.313v21.125a13.523 13.523 0 0 1-3.562 9.375 12.429 12.429 0 0 1-9.062 3.688 12.568 12.568 0 0 1-9.062-3.687 13.284 13.284 0 0 1-3.5-9.375v-21.125a13.061 13.061 0 0 1 3.5-9.312 12.242 12.242 0 0 1 9.063-3.687 12.112 12.112 0 0 1 9.063 3.688zm-16.937 9.313v21.125a9.431 9.431 0 0 0 2.125 6.25 8.001 8.001 0 0 0 11.5 0 9.26 9.26 0 0 0 2.188-6.25v-21.125a9.02 9.02 0 0 0-2.187-6.187 8.001 8.001 0 0 0-11.5 0 9.185 9.185 0 0 0-2.125 6.188h0z"/><use xlink:href="#S" x="101.015"/><use xlink:href="#S" x="130.425"/><path d="M744.057 411.813H733.12q-.625.063-.562-.625V408q-.063-.624.563-.562h10.938q.687.126.625-.562v-11q-.126-.687.563-.625h3.313q.687-.062.563.625v11q-.063.688.625.563h10.938q.624-.062.563.563v3.188q.062.625-.562.625h-10.937q-.688-.125-.625.563v11q.125.688-.562.563h-3.312q-.625.063-.562-.562v-11q.062-.687-.625-.562h0z"/></g><g class="O"><use xlink:href="#T"/><use xlink:href="#U"/><path d="M507.8 466h-.544c-3.04 0-4.192-1.6-4.192-4.224V451.73h-.96a1.36 1.36 0 1 1-.032-2.72h.96v-4.448a1.299 1.299 0 0 1 1.376-1.344 1.274 1.274 0 0 1 1.344 1.344v4.448h2.048a1.326 1.326 0 0 1 1.344 1.344 1.301 1.301 0 0 1-1.344 1.376h-2.048v10.335c0 .896.32 1.216 1.216 1.216h.8a1.32 1.32 0 0 1 1.375 1.344 1.301 1.301 0 0 1-1.344 1.376z"/><use xlink:href="#V"/><use xlink:href="#W"/><use xlink:href="#T" x="72.03"/><use xlink:href="#U" x="72.03"/><use xlink:href="#X"/><path d="M596.31 466.544a7.004 7.004 0 0 1-5.28-2.112v6.943a1.334 1.334 0 0 1-1.408 1.376 1.318 1.318 0 0 1-1.344-1.376v-21a1.318 1.318 0 0 1 1.344-1.376 1.334 1.334 0 0 1 1.408 1.376 7.679 7.679 0 0 1 5.28-1.952c5.15 0 8.03 4.224 8.03 9.023 0 4.864-2.88 9.087-8.03 9.087zm0-15.39c-3.168 0-5.28 2.528-5.28 6.304 0 3.84 2.08 6.368 5.28 6.368s5.28-2.496 5.28-6.335c0-3.808-2.08-6.336-5.28-6.336z"/><use xlink:href="#U" x="124.606"/><use xlink:href="#Y"/><path d="M649.174 451.345l-4.768 4.768 4.96 7.775a1.757 1.757 0 0 1 .224.768 1.443 1.443 0 0 1-1.44 1.376 1.295 1.295 0 0 1-1.088-.64l-4.672-7.264-2.72 2.72v3.808a1.376 1.376 0 0 1-2.752 0V444.56a1.291 1.291 0 0 1 1.344-1.344 1.308 1.308 0 0 1 1.408 1.344v12.415l7.55-7.55a1.373 1.373 0 0 1 1.024-.416 1.431 1.431 0 0 1 1.376 1.376 1.408 1.408 0 0 1-.448.96zm8.256 15.2c-1.76 0-4.704-.544-6.208-2.4a1.416 1.416 0 0 1 1.152-2.272 1.315 1.315 0 0 1 .992.544 5.467 5.467 0 0 0 4.063 1.408c2.88 0 3.808-.992 3.808-2.432 0-4.096-9.76-1.568-9.76-8.16 0-3.488 3.264-4.768 6.304-4.768 1.728 0 5.792.864 5.792 2.656a1.436 1.436 0 0 1-1.344 1.44 1.929 1.929 0 0 1-1.056-.416 5.188 5.188 0 0 0-3.392-.96c-2.656 0-3.584.992-3.584 2.048 0 3.808 9.8 1.344 9.8 8.16 0 3.776-3.168 5.152-6.56 5.152z"/><use xlink:href="#Z"/><path d="M702.612 450.833l-4.96 14.047a1.454 1.454 0 0 1-1.408 1.12c-.672 0-1.056-.288-1.344-1.12l-3.744-10.56-3.775 10.56a1.385 1.385 0 0 1-2.72 0l-4.928-14.047a1.409 1.409 0 0 1-.064-.512 1.378 1.378 0 0 1 1.408-1.312 1.268 1.268 0 0 1 1.248.896l3.71 10.687 3.776-10.463c.256-.736.576-1.12 1.344-1.12.704 0 1.088.352 1.344 1.12l3.744 10.463 3.744-10.687a1.258 1.258 0 0 1 1.216-.896 1.422 1.422 0 0 1 1.472 1.344 1.326 1.326 0 0 1-.064.48z"/><use xlink:href="#V" x="193.5"/><use xlink:href="#X" x="137.308"/><path d="M732.34 465.968a1.299 1.299 0 0 1-1.376-1.344 7.742 7.742 0 0 1-5.28 1.92c-5.15 0-8.03-4.224-8.03-9.055 0-4.8 2.88-9.023 8.03-9.023a7.053 7.053 0 0 1 5.28 2.08v-5.95a1.376 1.376 0 0 1 2.752-.032v20.062a1.299 1.299 0 0 1-1.376 1.344zm-6.656-14.783c-3.2 0-5.28 2.496-5.28 6.304 0 3.84 2.08 6.335 5.28 6.335 3.232 0 5.28-2.496 5.28-6.335 0-3.808-2.048-6.304-5.28-6.304zm25.888 7.71h-11.84c.448 3.008 2.368 4.928 5.184 4.928a4.804 4.804 0 0 0 3.808-1.664 1.324 1.324 0 0 1 .992-.512 1.493 1.493 0 0 1 1.44 1.408c0 .384-.096.672-.768 1.344a7.797 7.797 0 0 1-5.472 2.144c-5.15 0-8.03-4.256-8.03-9.055 0-4.768 2.88-9.023 8.03-9.023 5.216 0 8 4.256 8 9.023a1.364 1.364 0 0 1-1.344 1.408zm-6.656-7.7c-3.007 0-4.768 2.208-5.184 4.96H750.1c-.448-3.072-2.368-4.96-5.184-4.96z"/><use xlink:href="#a"/><use xlink:href="#T" x="300.954"/><path d="M797.8 458.896h-11.84c.448 3.008 2.368 4.928 5.184 4.928a4.804 4.804 0 0 0 3.808-1.664 1.324 1.324 0 0 1 .992-.512 1.493 1.493 0 0 1 1.44 1.408c0 .384-.096.672-.768 1.344a7.797 7.797 0 0 1-5.472 2.144c-5.15 0-8.03-4.256-8.03-9.055 0-4.768 2.88-9.023 8.03-9.023 5.216 0 8 4.256 8 9.023a1.364 1.364 0 0 1-1.344 1.408zm-6.656-7.7c-3.007 0-4.768 2.208-5.184 4.96h10.368c-.448-3.072-2.368-4.96-5.184-4.96zm16.16 15.358c-1.76 0-4.704-.544-6.208-2.4a1.416 1.416 0 0 1 1.152-2.272 1.316 1.316 0 0 1 .992.544 5.467 5.467 0 0 0 4.063 1.408c2.88 0 3.808-.992 3.808-2.432 0-4.096-9.76-1.568-9.76-8.16 0-3.488 3.264-4.768 6.304-4.768 1.728 0 5.792.864 5.792 2.656a1.437 1.437 0 0 1-1.344 1.44 1.929 1.929 0 0 1-1.056-.416 5.188 5.188 0 0 0-3.392-.96c-2.656 0-3.584.992-3.584 2.048 0 3.808 9.792 1.344 9.792 8.16 0 3.776-3.168 5.152-6.56 5.152z"/><use xlink:href="#b"/><use xlink:href="#Z" x="164.445"/><path d="M525.324 498.112a7.433 7.433 0 0 1-5.728 2.432c-5.15 0-8.03-4.224-8.03-9.055 0-4.8 2.88-9.023 8.03-9.023a7.433 7.433 0 0 1 5.728 2.432 1.395 1.395 0 0 1 .384.928 1.49 1.49 0 0 1-1.44 1.375 1.513 1.513 0 0 1-.992-.448 4.702 4.702 0 0 0-3.68-1.568c-3.2 0-5.28 2.496-5.28 6.304 0 3.84 2.08 6.335 5.28 6.335a4.759 4.759 0 0 0 3.68-1.568 1.277 1.277 0 0 1 .992-.48 1.381 1.381 0 0 1 1.056 2.336z"/><use xlink:href="#W" x="10.292" y="34"/><use xlink:href="#c"/><path d="M570.57 500.544c-1.76 0-4.704-.544-6.208-2.4a1.416 1.416 0 0 1 1.152-2.272 1.316 1.316 0 0 1 .992.544 5.467 5.467 0 0 0 4.063 1.408c2.88 0 3.808-.992 3.808-2.432 0-4.096-9.76-1.568-9.76-8.16 0-3.488 3.264-4.768 6.304-4.768 1.728 0 5.792.864 5.792 2.656a1.437 1.437 0 0 1-1.344 1.44 1.929 1.929 0 0 1-1.056-.416 5.188 5.188 0 0 0-3.392-.96c-2.656 0-3.584.992-3.584 2.048 0 3.808 9.8 1.344 9.8 8.16 0 3.776-3.168 5.152-6.56 5.152zm23.168-7.648H581.9c.448 3.008 2.368 4.928 5.184 4.928a4.804 4.804 0 0 0 3.808-1.664 1.324 1.324 0 0 1 .992-.512 1.493 1.493 0 0 1 1.44 1.408c0 .384-.096.672-.768 1.344a7.797 7.797 0 0 1-5.472 2.144c-5.15 0-8.03-4.256-8.03-9.055 0-4.768 2.88-9.023 8.03-9.023 5.216 0 8 4.256 8 9.023a1.364 1.364 0 0 1-1.344 1.408zm-6.656-7.7c-3.007 0-4.768 2.208-5.184 4.96h10.368c-.448-3.072-2.368-4.96-5.184-4.96z"/><use xlink:href="#Y" x="-29.1" y="34"/><path d="M620.874 484.897l-5.824 14.015a1.459 1.459 0 0 1-1.376 1.088 1.549 1.549 0 0 1-1.376-1.088l-5.824-14.015a1.968 1.968 0 0 1-.096-.576 1.38 1.38 0 0 1 1.408-1.312 1.31 1.31 0 0 1 1.216.832l4.672 11.2 4.67-11.2a1.378 1.378 0 0 1 2.656.448 1.587 1.587 0 0 1-.128.608z"/><use xlink:href="#U" x="140.53" y="34"/><path d="M648.33 500h-.544c-3.04 0-4.19-1.6-4.19-4.224V485.73h-.96a1.36 1.36 0 1 1-.032-2.72h.96v-4.448a1.299 1.299 0 0 1 1.376-1.344 1.274 1.274 0 0 1 1.344 1.344v4.448h2.048a1.326 1.326 0 0 1 1.344 1.344 1.301 1.301 0 0 1-1.344 1.376h-2.048v10.335c0 .896.32 1.216 1.216 1.216h.8a1.32 1.32 0 0 1 1.375 1.344A1.301 1.301 0 0 1 648.33 500z"/><use xlink:href="#V" x="140.529" y="34"/><use xlink:href="#W" x="140.529" y="34"/><use xlink:href="#c" x="130.237"/><use xlink:href="#U" x="219.76" y="34"/><use xlink:href="#a" x="-33.58" y="34"/><path d="M745.28 492.896h-11.84c.448 3.008 2.368 4.928 5.184 4.928a4.804 4.804 0 0 0 3.808-1.664 1.324 1.324 0 0 1 .992-.512 1.493 1.493 0 0 1 1.44 1.408c0 .384-.096.672-.768 1.344a7.797 7.797 0 0 1-5.472 2.144c-5.15 0-8.03-4.256-8.03-9.055 0-4.768 2.88-9.023 8.03-9.023 5.216 0 8 4.256 8 9.023a1.364 1.364 0 0 1-1.344 1.408zm-6.656-7.71c-3.007 0-4.768 2.208-5.184 4.96H743.8c-.448-3.072-2.368-4.96-5.184-4.96z"/><use xlink:href="#U" x="266.536" y="34"/><use xlink:href="#b" x="-47.602" y="34"/><use xlink:href="#Z" x="116.843" y="34"/><path d="M556.078 534a1.293 1.293 0 0 1-1.344-1.344v-8.896a4.56 4.56 0 1 0-9.119 0v8.863a1.361 1.361 0 0 1-1.408 1.408 1.319 1.319 0 0 1-1.344-1.376V518.35a1.273 1.273 0 0 1 1.344-1.344 1.338 1.338 0 0 1 1.375 1.056 7.308 7.308 0 0 1 11.872 5.696v8.863a1.309 1.309 0 0 1-1.376 1.376zm20.767 0a3.114 3.114 0 0 1-2.848-1.824 7.331 7.331 0 0 1-5.632 2.368c-5.215 0-8.03-4.288-8.03-9.056s2.88-9.023 8.03-9.023a7.069 7.069 0 0 1 5.28 2.112v-.128a1.32 1.32 0 0 1 1.344-1.44 1.287 1.287 0 0 1 1.408 1.344v12.352a.518.518 0 0 0 .448.576 1.36 1.36 0 1 1 0 2.72zm-8.48-14.815c-3.2 0-5.28 2.496-5.28 6.304 0 3.84 2.08 6.336 5.28 6.336 3.232 0 5.28-2.496 5.28-6.336 0-3.808-2.048-6.304-5.28-6.304zm17.6 14.815h-.544c-3.04 0-4.2-1.6-4.2-4.224V519.73h-.96a1.36 1.36 0 0 1-.032-2.72h.96v-4.447a1.299 1.299 0 0 1 1.376-1.344 1.274 1.274 0 0 1 1.344 1.344V517h2.048a1.327 1.327 0 0 1 1.344 1.344 1.301 1.301 0 0 1-1.344 1.376h-2.048v10.336c0 .896.32 1.216 1.216 1.216h.8a1.32 1.32 0 0 1 1.375 1.344 1.302 1.302 0 0 1-1.344 1.376zm16.544.032a1.305 1.305 0 0 1-1.344-1.057 7.446 7.446 0 0 1-4.607 1.601 7.355 7.355 0 0 1-7.295-7.296v-8.863a1.376 1.376 0 0 1 2.751-.032v8.895a4.56 4.56 0 1 0 9.12 0v-8.863a1.276 1.276 0 0 1 1.344-1.408 1.309 1.309 0 0 1 1.376 1.376v14.303a1.275 1.275 0 0 1-1.344 1.345z"/><use xlink:href="#d"/><use xlink:href="#e"/><use xlink:href="#d" x="34.489"/><use xlink:href="#e" x="34.489"/><path d="M674.88 534.544c-1.76 0-4.704-.544-6.208-2.4a1.416 1.416 0 0 1 1.152-2.271 1.317 1.317 0 0 1 .992.544 5.468 5.468 0 0 0 4.063 1.408c2.88 0 3.808-.992 3.808-2.433 0-4.096-9.76-1.567-9.76-8.16 0-3.487 3.264-4.768 6.304-4.768 1.728 0 5.792.864 5.792 2.656a1.436 1.436 0 0 1-1.344 1.439 1.929 1.929 0 0 1-1.056-.416 5.191 5.191 0 0 0-3.392-.96c-2.656 0-3.584.992-3.584 2.048 0 3.808 9.792 1.344 9.792 8.16 0 3.776-3.168 5.152-6.56 5.152z"/><use xlink:href="#e" x="67.161"/><use xlink:href="#d" x="94.45"/><path d="M725.183 518.896l-5.824 14.016a1.459 1.459 0 0 1-1.375 1.088 1.55 1.55 0 0 1-1.376-1.088l-5.824-14.016a1.967 1.967 0 0 1-.096-.575 1.381 1.381 0 0 1 1.408-1.312 1.31 1.31 0 0 1 1.216.832l4.672 11.2 4.67-11.2a1.378 1.378 0 0 1 2.656.448 1.585 1.585 0 0 1-.128.607z"/><use xlink:href="#e" x="110.808"/><path d="M751.2 534.544c-1.76 0-4.704-.544-6.208-2.4a1.416 1.416 0 0 1 1.152-2.271 1.316 1.316 0 0 1 .992.544 5.468 5.468 0 0 0 4.063 1.408c2.88 0 3.808-.992 3.808-2.433 0-4.096-9.76-1.567-9.76-8.16 0-3.487 3.264-4.768 6.304-4.768 1.728 0 5.792.864 5.792 2.656a1.436 1.436 0 0 1-1.344 1.439 1.929 1.929 0 0 1-1.056-.416 5.191 5.191 0 0 0-3.392-.96c-2.656 0-3.584.992-3.584 2.048 0 3.808 9.792 1.344 9.792 8.16 0 3.776-3.168 5.152-6.56 5.152z"/></g><g opacity=".5"><path d="M574.955 572.758h-8.567c-.812 0-1.288-.475-1.288-1.064a1.355 1.355 0 0 1 .252-.756l7.644-11.62a3.366 3.366 0 0 0 .532-1.68 2.834 2.834 0 0 0-2.884-2.912 4.062 4.062 0 0 0-3.22 2.156 1.046 1.046 0 0 1-.952.588 1.209 1.209 0 0 1-1.232-1.148c0-.867 1.988-4.004 5.404-4.004a5.276 5.276 0 0 1 5.264 5.264 5.447 5.447 0 0 1-.952 3.023l-6.4 9.773h6.4a1.19 1.19 0 1 1 0 2.379zm9.828.476c-6 0-6-7.1-6-11.2 0-3.95.616-9.717 5.964-9.717s6.02 5.63 6.02 9.717c0 4.256-.1 11.2-5.992 11.2zm3.584-11.2c0-2.465-.056-7.3-3.584-7.3s-3.584 4.844-3.584 7.3v1.566c0 2.912.393 7.252 3.557 7.252 3.22 0 3.6-4.34 3.6-7.252z"/><use xlink:href="#f"/><use xlink:href="#g"/><use xlink:href="#h"/><use xlink:href="#h" x="6.385"/><use xlink:href="#g" x="19.319"/><path d="M656.153 573.234c-4.508 0-7.027-3.695-7.027-7.924 0-4.2 2.52-7.896 7.027-7.896s7.028 3.695 7.028 7.896c0 4.23-2.52 7.924-7.028 7.924zm0-13.44c-2.8 0-4.62 2.184-4.62 5.516 0 3.36 1.82 5.543 4.62 5.543 2.828 0 4.62-2.184 4.62-5.543 0-3.332-1.792-5.516-4.62-5.516zm21.924 12.964a1.131 1.131 0 0 1-1.177-1.176V563.8a3.99 3.99 0 1 0-7.98 0v7.756a1.191 1.191 0 0 1-1.232 1.232 1.154 1.154 0 0 1-1.176-1.205v-12.516a1.113 1.113 0 0 1 1.176-1.176 1.171 1.171 0 0 1 1.204.924 6.395 6.395 0 0 1 10.389 4.984v7.756a1.145 1.145 0 0 1-1.204 1.203zm22.5-12.824l-4.172 4.172 4.34 6.805a1.534 1.534 0 0 1 .196.672 1.263 1.263 0 0 1-1.26 1.205 1.133 1.133 0 0 1-.952-.561l-4.088-6.355-2.38 2.38v3.332a1.204 1.204 0 0 1-2.408 0V554a1.13 1.13 0 0 1 1.176-1.176 1.145 1.145 0 0 1 1.232 1.176v10.865l6.607-6.6a1.205 1.205 0 0 1 .896-.363 1.252 1.252 0 0 1 1.204 1.203 1.227 1.227 0 0 1-.393.84z"/><use xlink:href="#f" x="102.561"/><path d="M732.7 563.434h-4.996c-.474 0-.75-.277-.75-.62a.783.783 0 0 1 .147-.441l4.457-6.775a1.962 1.962 0 0 0 .311-.98 1.653 1.653 0 0 0-1.682-1.697 2.37 2.37 0 0 0-1.878 1.256.609.609 0 0 1-.556.344.704.704 0 0 1-.718-.67 3.355 3.355 0 0 1 3.151-2.334 3.076 3.076 0 0 1 3.069 3.068 3.175 3.175 0 0 1-.556 1.764l-3.738 5.7h3.738a.694.694 0 1 1 0 1.387z"/></g><g class="O"><path d="M40.398 938.437c-1.68 0-4.5-.588-5.488-2.212a.674.674 0 0 1-.112-.42.764.764 0 0 1 1.428-.448c1 1.232 2.8 1.484 4.173 1.484 2.716 0 4.088-.896 4.088-2.716 0-4.23-9.185-1.988-9.185-7.6 0-2.827 2.828-3.92 5.376-3.92a7.587 7.587 0 0 1 4.816 1.624.784.784 0 0 1 .252.532.908.908 0 0 1-.868.84.742.742 0 0 1-.532-.224 5.596 5.596 0 0 0-3.668-1.176c-2.464 0-3.78.952-3.78 2.323 0 3.92 9.184 1.85 9.184 7.6 0 3.2-2.8 4.312-5.684 4.312zm22.68-.533h-.028a2.9 2.9 0 0 1-2.772-2.184 6.352 6.352 0 0 1-5.432 2.659c-4.563 0-7.028-3.75-7.028-7.923 0-4.23 2.52-7.896 7.028-7.896a6.4 6.4 0 0 1 5.432 2.632v-1.372a.79.79 0 0 1 .813-.784.765.765 0 0 1 .784.784v11.284c0 1.792 2.016.672 2.016 2.016a.77.77 0 0 1-.812.784zm-8.232-13.748c-3.304 0-5.432 2.66-5.432 6.3s2.128 6.327 5.432 6.327c3.332 0 5.432-2.687 5.432-6.327s-2.1-6.3-5.432-6.3zM71 919.536h-.868a1.238 1.238 0 0 0-1.232 1.204v2.296H71a.763.763 0 0 1 .784.784.787.787 0 0 1-.784.813h-2.1v12.487a.763.763 0 0 1-.783.784.748.748 0 0 1-.784-.784v-12.487H65.4a.799.799 0 0 1 0-1.597h1.933v-2.296a2.778 2.778 0 0 1 2.771-2.771H71a.794.794 0 0 1 .812.812.75.75 0 0 1-.812.756zm15.57 11.734H74.95c.252 3.192 2.323 5.516 5.376 5.516a5.059 5.059 0 0 0 4.115-1.932.735.735 0 0 1 .672-.392.856.856 0 0 1 .868.756c0 .252 0 .308-.53.924a6.611 6.611 0 0 1-5.124 2.239c-4.5 0-7.028-3.695-7.028-7.923 0-4.2 2.52-7.896 7.028-7.896s7.027 3.724 7.027 7.896a.847.847 0 0 1-.784.812zm-6.243-7.112c-3.36 0-5.124 2.576-5.376 5.517h10.78c-.252-3.192-2.324-5.517-5.403-5.517zm16.183 20.13c-2.38 0-5.74-.896-5.74-1.903a.889.889 0 0 1 .812-.896 10.059 10.059 0 0 1 1.484.672 10.491 10.491 0 0 0 3.444.532c3.584 0 5.432-1.764 5.432-5.208v-1.96a6.684 6.684 0 0 1-5.432 2.38c-4.425 0-7.028-3.136-7.028-7.447 0-4.2 2.52-7.896 7.028-7.896a6.401 6.401 0 0 1 5.432 2.632v-1.344a.798.798 0 0 1 1.596 0v13.636c0 4.452-2.66 6.804-7.027 6.804zm0-20.132c-3.305 0-5.433 2.66-5.433 6.3 0 3.6 1.988 5.852 5.433 5.852s5.432-2.24 5.432-5.852c0-3.64-2.1-6.3-5.432-6.3zm22.175 13.748a.787.787 0 0 1-.812-.784v-.896a6.218 6.218 0 0 1-4.788 2.155 6.454 6.454 0 0 1-6.384-6.384v-8.176a.798.798 0 0 1 1.596 0v8.176a4.788 4.788 0 1 0 9.576 0v-8.176a.798.798 0 0 1 1.596 0v13.3a.78.78 0 0 1-.783.784z"/><use xlink:href="#i"/><use xlink:href="#j"/><path d="M161.608 937.904a.786.786 0 0 1-.812-.784v-1.4a6.355 6.355 0 0 1-5.433 2.659c-4.508 0-7.027-3.695-7.027-7.923 0-4.2 2.52-7.896 7.027-7.896a6.403 6.403 0 0 1 5.433 2.632v-6.44a.798.798 0 0 1 1.596 0v18.367a.78.78 0 0 1-.784.784zm-6.244-13.748c-3.304 0-5.432 2.66-5.432 6.3s2.128 6.327 5.432 6.327c3.332 0 5.433-2.687 5.433-6.327s-2.1-6.3-5.433-6.3z"/><use xlink:href="#k"/><use xlink:href="#l"/><use xlink:href="#m"/><path d="M66.186 969.98c-4.5 0-7.028-3.695-7.028-7.924 0-4.2 2.52-7.895 7.028-7.895s7.027 3.695 7.027 7.895c0 4.23-2.52 7.924-7.027 7.924zm0-14.224c-3.305 0-5.433 2.66-5.433 6.3s2.128 6.328 5.433 6.328c3.332 0 5.432-2.687 5.432-6.328s-2.1-6.3-5.432-6.3zm22.427 13.748a.787.787 0 0 1-.812-.784v-1.4a6.353 6.353 0 0 1-5.432 2.659c-4.5 0-7.028-3.695-7.028-7.924 0-4.2 2.52-7.895 7.028-7.895a6.401 6.401 0 0 1 5.432 2.632v-6.44a.798.798 0 0 1 1.596 0v18.368a.781.781 0 0 1-.784.784zm-6.243-13.748c-3.305 0-5.433 2.66-5.433 6.3s2.128 6.328 5.433 6.328c3.332 0 5.432-2.687 5.432-6.328s-2.1-6.3-5.432-6.3z"/><use xlink:href="#m" x="38.024"/><path d="M109.25 955.728l-5.517 13.133a.92.92 0 0 1-.784.644.955.955 0 0 1-.812-.644l-5.516-13.104a.88.88 0 0 1-.057-.364.784.784 0 0 1 .813-.756.718.718 0 0 1 .699.477l4.872 11.508 4.845-11.508a.799.799 0 0 1 1.54.252.668.668 0 0 1-.084.363z"/><use xlink:href="#n"/><use xlink:href="#j" x="-12.628" y="31.6"/><use xlink:href="#o"/><use xlink:href="#p"/><use xlink:href="#q"/><path d="M174.07 955.756l-7.588 17.948a2.898 2.898 0 0 1-2.996 1.68h-1.232a.798.798 0 0 1 0-1.596h1.232c.616 0 1.26-.028 1.512-.672l1.596-3.8-5.796-13.552a.894.894 0 0 1-.056-.364.783.783 0 0 1 .812-.756.719.719 0 0 1 .7.477l5.208 12.15 5.152-12.15a.73.73 0 0 1 .728-.477.76.76 0 0 1 .784.756.894.894 0 0 1-.056.364zM321.2 920.35a1.596 1.596 0 1 1 1.597-1.596 1.578 1.578 0 0 1-1.597 1.596zm0 17.556a.77.77 0 0 1-.812-.784v-13.3a.771.771 0 0 1 .812-.784.763.763 0 0 1 .784.784v13.3a.749.749 0 0 1-.784.784zm16.185-.002a.786.786 0 0 1-.812-.784v-8.176a4.788 4.788 0 1 0-9.576 0v8.176a.798.798 0 0 1-1.596 0v-13.3a.798.798 0 0 1 1.596 0v.896a6.387 6.387 0 0 1 11.172 4.228v8.176a.78.78 0 0 1-.784.784zm15.345-1.65a6.503 6.503 0 0 1-5.012 2.127c-4.5 0-7.028-3.695-7.028-7.923 0-4.2 2.52-7.896 7.028-7.896a6.504 6.504 0 0 1 5.012 2.128.742.742 0 0 1 .224.532.877.877 0 0 1-.812.84.823.823 0 0 1-.588-.28 4.937 4.937 0 0 0-3.836-1.624c-3.305 0-5.433 2.66-5.433 6.3s2.128 6.327 5.433 6.327a5.03 5.03 0 0 0 3.836-1.624.795.795 0 0 1 1.399.532.803.803 0 0 1-.224.561zm9.408-11.845a4.785 4.785 0 0 0-4.788 4.788v7.924a.799.799 0 0 1-1.597 0v-13.3a.799.799 0 0 1 1.597 0v1.148a6.393 6.393 0 0 1 4.788-2.156.798.798 0 1 1 0 1.596zm14.272 6.862H364.8c.252 3.192 2.323 5.516 5.376 5.516a5.059 5.059 0 0 0 4.115-1.932.735.735 0 0 1 .672-.392.856.856 0 0 1 .868.756c0 .252 0 .308-.53.924a6.611 6.611 0 0 1-5.124 2.239c-4.5 0-7.028-3.695-7.028-7.923 0-4.2 2.52-7.896 7.028-7.896s7.027 3.724 7.027 7.896a.847.847 0 0 1-.784.812zm-6.243-7.112c-3.36 0-5.124 2.576-5.376 5.517h10.78c-.252-3.192-2.324-5.517-5.403-5.517z"/><use xlink:href="#i" x="257.093"/><use xlink:href="#k" x="231.586"/><use xlink:href="#r"/><use xlink:href="#k" x="260.509"/><path d="M276.396 967.852a6.504 6.504 0 0 1-5.012 2.128c-4.51 0-7.028-3.695-7.028-7.924 0-4.2 2.52-7.895 7.028-7.895a6.504 6.504 0 0 1 5.012 2.128.742.742 0 0 1 .224.532.877.877 0 0 1-.812.84.823.823 0 0 1-.588-.28 4.937 4.937 0 0 0-3.836-1.624c-3.305 0-5.433 2.66-5.433 6.3s2.128 6.328 5.433 6.328a5.033 5.033 0 0 0 3.836-1.624.823.823 0 0 1 .588-.28.831.831 0 0 1 .812.813.799.799 0 0 1-.224.56z"/><use xlink:href="#s"/><use xlink:href="#t"/><use xlink:href="#l" x="267.543"/><use xlink:href="#u"/><use xlink:href="#v"/><use xlink:href="#s" x="81.338"/><path d="M385.202 969.98a6.353 6.353 0 0 1-5.432-2.659v1.4a.798.798 0 0 1-1.596 0v-18.368a.798.798 0 0 1 1.596 0v6.44a6.401 6.401 0 0 1 5.432-2.632c4.508 0 7.028 3.695 7.028 7.895 0 4.23-2.52 7.924-7.028 7.924zm0-14.224c-3.332 0-5.432 2.66-5.432 6.3s2.1 6.328 5.432 6.328 5.433-2.687 5.433-6.328-2.1-6.3-5.433-6.3z"/><use xlink:href="#o" x="258.649"/><use xlink:href="#w"/><use xlink:href="#j" x="283.626" y="31.6"/><path d="M439.633 969.98a6.355 6.355 0 0 1-5.433-2.659v7.252a.798.798 0 1 1-1.596 0V955.42a.798.798 0 0 1 1.596 0v1.372a6.403 6.403 0 0 1 5.433-2.632c4.508 0 7.027 3.695 7.027 7.895 0 4.23-2.52 7.924-7.027 7.924zm0-14.224c-3.332 0-5.433 2.66-5.433 6.3s2.1 6.328 5.433 6.328 5.432-2.687 5.432-6.328-2.1-6.3-5.432-6.3z"/><use xlink:href="#q" x="295.329"/><use xlink:href="#p" x="308.235"/><use xlink:href="#w" x="54.6"/><use xlink:href="#x"/><use xlink:href="#y"/><path d="M593.903 937.904a.787.787 0 0 1-.812-.784v-8.176a4.788 4.788 0 1 0-9.576 0v8.176a.798.798 0 0 1-1.596 0v-13.3a.798.798 0 0 1 1.596 0v.896a6.387 6.387 0 0 1 11.172 4.228v8.176a.78.78 0 0 1-.784.784z"/><use xlink:href="#z"/><path d="M622.323 937.904a.787.787 0 0 1-.812-.784v-.896a6.218 6.218 0 0 1-4.788 2.155 6.454 6.454 0 0 1-6.384-6.384v-8.176a.798.798 0 0 1 1.596 0v8.176a4.788 4.788 0 1 0 9.576 0v-8.176a.798.798 0 0 1 1.596 0v13.3a.78.78 0 0 1-.784.784z"/><use xlink:href="#t" x="329.687" y="-31.6"/><use xlink:href="#y" x="68.817"/><path d="M655.413 938.437c-1.68 0-4.508-.588-5.488-2.212a.676.676 0 0 1-.112-.42.764.764 0 0 1 1.428-.448c1.008 1.232 2.8 1.484 4.172 1.484 2.716 0 4.088-.896 4.088-2.716 0-4.23-9.184-1.988-9.184-7.59 0-2.827 2.828-3.92 5.376-3.92a7.585 7.585 0 0 1 4.815 1.624.784.784 0 0 1 .252.532.908.908 0 0 1-.868.84.74.74 0 0 1-.531-.224 5.6 5.6 0 0 0-3.668-1.176c-2.465 0-3.78.952-3.78 2.323 0 3.92 9.184 1.85 9.184 7.59 0 3.19-2.8 4.312-5.684 4.312z"/><use xlink:href="#AA"/><use xlink:href="#AB"/><use xlink:href="#r" x="279.635"/><use xlink:href="#i" x="583.067"/><path d="M735.352 937.904a.787.787 0 0 1-.812-.784v-8.176a4.788 4.788 0 0 0-9.576 0v8.176a.798.798 0 0 1-1.596 0v-13.3a.798.798 0 0 1 1.596 0v.896a6.388 6.388 0 0 1 11.173 4.228v8.176a.781.781 0 0 1-.784.784z"/><use xlink:href="#AC"/><path d="M604.582 951.948a1.596 1.596 0 1 1 1.596-1.597 1.578 1.578 0 0 1-1.596 1.597zm0 17.556a.77.77 0 0 1-.812-.784v-13.3a.772.772 0 0 1 .812-.784.763.763 0 0 1 .784.784v13.3a.749.749 0 0 1-.784.784z"/><use xlink:href="#t" x="311.946"/><path d="M638.546 963.176l-2.8 2.828 2.604 2.604a.786.786 0 0 1 .252.589.807.807 0 0 1-.784.812.783.783 0 0 1-.588-.252l-2.604-2.632-.952.952a6.136 6.136 0 0 1-4.396 1.903 5.986 5.986 0 0 1-2.996-11.172l-.532-.53a5.275 5.275 0 0 1 3.5-9.212c3.276 0 5.404 3.107 5.404 3.724a.832.832 0 0 1-.84.784c-.812 0-1.848-2.912-4.564-2.912a3.68 3.68 0 0 0-3.668 3.668 3.536 3.536 0 0 0 1.26 2.771l7.784 7.784 2.8-2.828a.907.907 0 0 1 .588-.252.848.848 0 0 1 .784.813.732.732 0 0 1-.252.56zm-11.088-3.2a4.397 4.397 0 0 0 1.792 8.399 4.246 4.246 0 0 0 3.08-1.231l1.176-1.204zm38.862-4.314l-4.564 13.16c-.195.532-.448.672-.812.672-.477 0-.616-.168-.784-.672l-3.668-10.92-3.668 10.92c-.196.532-.448.672-.812.672a.817.817 0 0 1-.783-.672l-4.536-13.16a1.175 1.175 0 0 1-.056-.308.796.796 0 0 1 .812-.729.728.728 0 0 1 .728.532l3.835 11.088 3.668-10.948c.168-.53.336-.672.813-.672.336 0 .616.112.784.672l3.723 10.95 3.78-11.088a.727.727 0 0 1 .728-.532.815.815 0 0 1 .868.756.845.845 0 0 1-.056.28z"/><use xlink:href="#AD"/><use xlink:href="#q" x="531.817"/><use xlink:href="#n" x="582.327"/><use xlink:href="#j" x="569.7" y="31.6"/><path d="M857.233 937.904h-.028a2.899 2.899 0 0 1-2.772-2.184 6.353 6.353 0 0 1-5.432 2.659c-4.564 0-7.028-3.75-7.028-7.923 0-4.23 2.52-7.896 7.028-7.896a6.4 6.4 0 0 1 5.432 2.632v-1.372a.79.79 0 0 1 .812-.784.765.765 0 0 1 .784.784v11.284c0 1.792 2.016.672 2.016 2.016a.77.77 0 0 1-.812.784zM849 924.156c-3.304 0-5.432 2.66-5.432 6.3s2.128 6.327 5.432 6.327c3.332 0 5.432-2.687 5.432-6.327s-2.1-6.3-5.432-6.3z"/><use xlink:href="#AE"/><use xlink:href="#AE" x="16.83"/><use xlink:href="#z" x="295.838"/><use xlink:href="#t" x="615.893" y="-31.6"/><path d="M933.387 931.27h-11.62c.252 3.192 2.324 5.516 5.376 5.516a5.061 5.061 0 0 0 4.116-1.932.735.735 0 0 1 .672-.392.856.856 0 0 1 .868.756c0 .252 0 .308-.532.924a6.611 6.611 0 0 1-5.124 2.239c-4.508 0-7.028-3.695-7.028-7.923 0-4.2 2.52-7.896 7.028-7.896s7.027 3.724 7.027 7.896a.847.847 0 0 1-.784.812zm-6.244-7.112c-3.36 0-5.124 2.576-5.376 5.517h10.78c-.252-3.192-2.324-5.517-5.404-5.517z"/><use xlink:href="#k" x="771.136"/><use xlink:href="#AF"/><use xlink:href="#AB" x="270.496"/><use xlink:href="#AF" x="10.585"/><use xlink:href="#r" x="555.146"/><use xlink:href="#x" x="502.936" y="-31.6"/><use xlink:href="#AA" x="327.617"/><use xlink:href="#r" x="601.68"/><use xlink:href="#AG"/><use xlink:href="#u" x="507.787"/><use xlink:href="#v" x="514.096"/><use xlink:href="#AC" x="281.63"/><use xlink:href="#AG" x="62.607"/><path d="M903.908 969.504a.787.787 0 0 1-.812-.784v-.896a6.218 6.218 0 0 1-4.788 2.155 6.454 6.454 0 0 1-6.384-6.384v-8.176a.798.798 0 0 1 1.596 0v8.176a4.788 4.788 0 1 0 9.576 0v-8.176a.798.798 0 0 1 1.596 0v13.3a.781.781 0 0 1-.784.784z"/><use xlink:href="#t" x="610.712"/><use xlink:href="#AC" x="328.665"/><path d="M934.646 969.672a2.935 2.935 0 0 1-2.772-2.968V950.35a.798.798 0 0 1 1.596 0v16.353c0 1.792 1.988.756 1.988 2.016a.903.903 0 0 1-.812.952zm20.607-.168a.787.787 0 0 1-.812-.784v-1.4a6.355 6.355 0 0 1-5.433 2.659c-4.508 0-7.027-3.695-7.027-7.924 0-4.2 2.52-7.895 7.027-7.895a6.403 6.403 0 0 1 5.433 2.632v-6.44a.798.798 0 0 1 1.596 0v18.368a.781.781 0 0 1-.784.784zm-6.244-13.748c-3.304 0-5.432 2.66-5.432 6.3s2.128 6.328 5.432 6.328c3.332 0 5.433-2.687 5.433-6.328s-2.1-6.3-5.433-6.3z"/><use xlink:href="#p" x="809.801"/><use xlink:href="#o" x="826.992"/><use xlink:href="#AD" x="307.022"/><use xlink:href="#o" x="856.029"/><use xlink:href="#q" x="850.457"/><use xlink:href="#n" x="900.408"/><use xlink:href="#j" x="887.221" y="31.6"/><use xlink:href="#o" x="899.288"/></g><g fill="#fcee21"><path d="M62.095 80a2.546 2.546 0 0 1-2.16-1.32l-20.16-30.3v29.04a2.501 2.501 0 0 1-2.64 2.58 2.456 2.456 0 0 1-2.52-2.52V39.862a2.533 2.533 0 0 1 2.64-2.58 2.478 2.478 0 0 1 2.16 1.26l20.16 30.3v-28.98a2.58 2.58 0 0 1 5.16-.06V77.42a2.57 2.57 0 0 1-2.64 2.58zm34.92-13.32h-22.2c.84 5.64 4.44 9.24 9.72 9.24a9.005 9.005 0 0 0 7.14-3.12 2.484 2.484 0 0 1 1.86-.96 2.8 2.8 0 0 1 2.7 2.64c0 .72-.18 1.26-1.44 2.52a14.622 14.622 0 0 1-10.26 4.02c-9.66 0-15.06-7.98-15.06-16.98 0-8.94 5.4-16.92 15.06-16.92 9.78 0 15 7.98 15 16.92a2.558 2.558 0 0 1-2.52 2.64zm-12.48-14.46c-5.64 0-8.94 4.14-9.72 9.3h19.44c-.84-5.76-4.44-9.3-9.72-9.3z"/><use xlink:href="#AH"/><path d="M152.634 52.22a8.644 8.644 0 0 0-8.52 8.58v16.62a2.501 2.501 0 0 1-2.64 2.58 2.456 2.456 0 0 1-2.52-2.52V50.72a2.541 2.541 0 0 1 2.52-2.58 2.463 2.463 0 0 1 2.58 2.04 13.875 13.875 0 0 1 8.58-3.06 2.552 2.552 0 1 1 0 5.1zm11.76 27.9a6.122 6.122 0 0 1-6-6.12V39.862a2.58 2.58 0 0 1 5.16-.06V74a.947.947 0 0 0 .84 1.02 2.55 2.55 0 1 1 0 5.1zm31.62-28.38l-16.2 36.838a6.876 6.876 0 0 1-6.6 4.02h-1.92a2.42 2.42 0 0 1-2.52-2.64 2.387 2.387 0 0 1 2.52-2.52h1.86a1.894 1.894 0 0 0 1.98-.96l3.96-8.88-11.7-25.86a2.168 2.168 0 0 1-.3-1.14 2.705 2.705 0 0 1 2.76-2.52 2.31 2.31 0 0 1 2.16 1.56l9.78 21.72 9.54-21.72a2.375 2.375 0 0 1 2.22-1.5 2.659 2.659 0 0 1 2.76 2.46 2.039 2.039 0 0 1-.3 1.14zm23.1 28.26a2.494 2.494 0 0 1-2.52-2.52V45.32l-4.8 4.68a2.321 2.321 0 0 1-1.68.72 2.801 2.801 0 0 1-2.7-2.64 2.46 2.46 0 0 1 .78-1.8l8.94-8.64a3.313 3.313 0 0 1 2.22-.96c1.68 0 2.4 1.68 2.4 3.06v37.68a2.536 2.536 0 0 1-2.64 2.58zm22.5.6a13.263 13.263 0 0 1-10.8-5.7 2.655 2.655 0 0 1-.42-1.44 2.536 2.536 0 0 1 2.58-2.46c1.14 0 1.56.42 2.46 1.62a7.974 7.974 0 0 0 6.18 2.88c4.14 0 8.34-3.78 8.34-9.18 0-5.46-4.2-9.24-8.34-9.24a7.17 7.17 0 0 0-6.36 3.36 2.54 2.54 0 0 1-2.34 1.38c-1.56 0-2.58-1.02-2.58-3V39.8a2.587 2.587 0 0 1 2.58-2.52h18.24a2.47 2.47 0 0 1 2.64 2.58 2.421 2.421 0 0 1-2.52 2.52h-15.84V53.6a11.083 11.083 0 0 1 6.18-1.62c7.38 0 13.44 6.24 13.44 14.34 0 7.98-6.06 14.28-13.44 14.28zm20.684-31.205c-3.042 0-5.525-2.763-5.525-6.155s2.483-6.12 5.525-6.12c3.008 0 5.5 2.728 5.5 6.12s-2.483 6.155-5.5 6.155zm0-9.303a2.882 2.882 0 0 0-2.518 3.147 2.581 2.581 0 1 0 5.036 0 2.882 2.882 0 0 0-2.518-3.147zm14.584-1.714l-6.435 23.152a1.362 1.362 0 0 1-1.364 1.119 1.501 1.501 0 0 1-1.574-1.469 1.841 1.841 0 0 1 .035-.42l6.47-23.187a1.428 1.428 0 0 1 1.399-1.084 1.477 1.477 0 0 1 1.539 1.399 2.346 2.346 0 0 1-.07.489zm4.966 23.642c-3.008 0-5.5-2.763-5.5-6.155 0-3.357 2.483-6.12 5.5-6.12 3.042 0 5.525 2.763 5.525 6.12 0 3.393-2.483 6.155-5.525 6.155zm0-9.303a2.883 2.883 0 0 0-2.483 3.147c0 2.063 1.4 3.183 2.483 3.183 1.12 0 2.518-1.12 2.518-3.183a2.882 2.882 0 0 0-2.518-3.147z"/><use xlink:href="#AI"/><path d="M347.976 53.24h-2.7v24.18a2.453 2.453 0 0 1-2.64 2.52 2.421 2.421 0 0 1-2.52-2.52V53.24h-2.46a2.55 2.55 0 0 1 0-5.1h2.46v-4.08a6.836 6.836 0 0 1 6.899-6.78 2.551 2.551 0 1 1 0 5.1 1.681 1.681 0 0 0-1.74 1.62v4.14h2.7a2.552 2.552 0 1 1 0 5.1zM386.794 80h-18.24a2.601 2.601 0 0 1-2.64-2.52V39.862a2.58 2.58 0 0 1 5.16-.06v35.1h15.72a2.55 2.55 0 0 1 0 5.1z"/><use xlink:href="#AH" x="288.76"/><path d="M454.893 80a2.424 2.424 0 0 1-2.52-2.52V60.8a8.55 8.55 0 1 0-17.099 0v16.62a2.551 2.551 0 0 1-2.64 2.64 2.472 2.472 0 0 1-2.52-2.58V50.66a2.387 2.387 0 0 1 2.52-2.52 2.509 2.509 0 0 1 2.58 1.98 13.703 13.703 0 0 1 22.259 10.68v16.62a2.454 2.454 0 0 1-2.58 2.58zm33.12-.06a2.436 2.436 0 0 1-2.58-2.52 14.518 14.518 0 0 1-9.9 3.6c-9.66 0-15.06-7.92-15.06-16.98 0-9 5.4-16.92 15.06-16.92a13.225 13.225 0 0 1 9.9 3.9V39.86a2.58 2.58 0 0 1 5.16-.06v37.62a2.436 2.436 0 0 1-2.58 2.52zm-12.48-27.72c-6 0-9.9 4.68-9.9 11.82 0 7.2 3.9 11.88 9.9 11.88 6.06 0 9.9-4.68 9.9-11.88 0-7.14-3.84-11.82-9.9-11.82zm36.24-8.94a4.32 4.32 0 1 1 4.319-4.319 4.302 4.302 0 0 1-4.319 4.319zm0 36.72a2.52 2.52 0 0 1-2.64-2.52V50.72a2.533 2.533 0 0 1 2.64-2.58 2.472 2.472 0 0 1 2.52 2.58v26.76a2.421 2.421 0 0 1-2.52 2.52zm18.9 1.02c-3.3 0-8.82-1.02-11.64-4.5a2.655 2.655 0 0 1 2.16-4.26 2.463 2.463 0 0 1 1.859 1.02c1.86 2.04 4.92 2.64 7.62 2.64 5.4 0 7.14-1.86 7.14-4.56 0-7.68-18.3-2.94-18.3-15.3 0-6.54 6.12-8.94 11.82-8.94 3.24 0 10.86 1.62 10.86 4.98a2.694 2.694 0 0 1-2.521 2.7 3.612 3.612 0 0 1-1.979-.78c-1.62-1.38-3.96-1.8-6.36-1.8-4.98 0-6.72 1.86-6.72 3.84 0 7.14 18.36 2.52 18.36 15.3 0 7.08-5.94 9.66-12.3 9.66zM586.53 80a2.548 2.548 0 0 1-2.16-1.32l-20.16-30.3v29.04a2.501 2.501 0 0 1-2.64 2.58 2.456 2.456 0 0 1-2.52-2.52V39.862a2.533 2.533 0 0 1 2.64-2.58 2.479 2.479 0 0 1 2.16 1.26l20.16 30.3v-28.98a2.58 2.58 0 0 1 5.159-.06V77.42a2.57 2.57 0 0 1-2.64 2.58z"/><use xlink:href="#AI" x="290.574"/><path d="M668.67 51.56l-9.3 26.34a2.727 2.727 0 0 1-2.64 2.1c-1.26 0-1.98-.54-2.52-2.1l-7.02-19.8-7.08 19.8a2.599 2.599 0 0 1-5.101 0l-9.24-26.34a2.64 2.64 0 0 1-.12-.96 2.585 2.585 0 0 1 2.64-2.46 2.378 2.378 0 0 1 2.34 1.68l6.96 20.04 7.08-19.62c.48-1.38 1.08-2.1 2.52-2.1 1.32 0 2.04.66 2.52 2.1l7.02 19.62 7.02-20.04a2.359 2.359 0 0 1 2.279-1.68 2.667 2.667 0 0 1 2.761 2.52 2.484 2.484 0 0 1-.12.9zm33.358 9.96h-12.84v15.9a2.58 2.58 0 0 1-5.159.06V39.862a2.491 2.491 0 0 1 2.52-2.58h15.54c5.28 0 12.06 4.14 12.06 12.06a12.099 12.099 0 0 1-12.119 12.179zm0-19.14h-12.84v14.04h12.78a7.02 7.02 0 0 0 .06-14.04zm29.88 9.84a8.644 8.644 0 0 0-8.521 8.58v16.62a2.501 2.501 0 0 1-2.64 2.58 2.456 2.456 0 0 1-2.52-2.52V50.72a2.541 2.541 0 0 1 2.52-2.58 2.463 2.463 0 0 1 2.58 2.04 13.874 13.874 0 0 1 8.58-3.06 2.552 2.552 0 1 1 0 5.1z"/><use xlink:href="#AI" x="430.912"/><use xlink:href="#AJ"/><path d="M810.926 66.68h-22.2c.84 5.64 4.44 9.24 9.72 9.24a9.007 9.007 0 0 0 7.14-3.12 2.483 2.483 0 0 1 1.859-.96 2.8 2.8 0 0 1 2.7 2.64c0 .72-.18 1.26-1.44 2.52a14.618 14.618 0 0 1-10.259 4.02c-9.66 0-15.06-7.98-15.06-16.98 0-8.94 5.4-16.92 15.06-16.92 9.78 0 15 7.98 15 16.92a2.558 2.558 0 0 1-2.519 2.64zm-12.48-14.46c-5.64 0-8.94 4.14-9.72 9.3h19.438c-.84-5.76-4.44-9.3-9.72-9.3zm43.5 24.24a13.935 13.935 0 0 1-10.739 4.56c-9.66 0-15.06-7.92-15.06-16.98 0-9 5.4-16.92 15.06-16.92a13.935 13.935 0 0 1 10.739 4.56 2.618 2.618 0 0 1 .72 1.74 2.794 2.794 0 0 1-2.7 2.58 2.84 2.84 0 0 1-1.859-.84 8.814 8.814 0 0 0-6.899-2.94c-6 0-9.9 4.68-9.9 11.82 0 7.2 3.9 11.88 9.9 11.88a8.923 8.923 0 0 0 6.899-2.939 2.395 2.395 0 0 1 1.859-.9 2.59 2.59 0 0 1 1.98 4.38z"/><use xlink:href="#AJ" x="78.838"/><path d="M890.964 66.68h-22.2c.84 5.64 4.44 9.24 9.72 9.24a9.007 9.007 0 0 0 7.14-3.12 2.483 2.483 0 0 1 1.859-.96 2.8 2.8 0 0 1 2.7 2.64c0 .72-.18 1.26-1.44 2.52a14.618 14.618 0 0 1-10.259 4.02c-9.66 0-15.06-7.98-15.06-16.98 0-8.94 5.4-16.92 15.06-16.92 9.78 0 15 7.98 15 16.92a2.558 2.558 0 0 1-2.52 2.64zm-12.48-14.46c-5.64 0-8.94 4.14-9.72 9.3h19.438c-.84-5.76-4.44-9.3-9.72-9.3zm45.24 27.72a2.436 2.436 0 0 1-2.58-2.52 14.518 14.518 0 0 1-9.899 3.6c-9.66 0-15.06-7.92-15.06-16.98 0-9 5.4-16.92 15.06-16.92a13.224 13.224 0 0 1 9.899 3.9V39.86a2.58 2.58 0 0 1 5.159-.06v37.62a2.436 2.436 0 0 1-2.579 2.52zm-12.48-27.72c-6 0-9.9 4.68-9.9 11.82 0 7.2 3.9 11.88 9.9 11.88 6.06 0 9.9-4.68 9.9-11.88 0-7.14-3.84-11.82-9.9-11.82z"/></g><g opacity=".8" class="O"><path d="M54.017 124.506a9.734 9.734 0 0 1-8.473 4.141c-8.17 0-11.057-6.763-11.057-14.172 0-7.446 2.888-14.2 11.057-14.2a9.624 9.624 0 0 1 8.435 4.142.769.769 0 0 1 .228.608 1.138 1.138 0 0 1-1.178 1.063 1.008 1.008 0 0 1-.836-.418 7.473 7.473 0 0 0-6.648-3.229c-6.308 0-8.89 4.94-8.89 12.044 0 7.067 2.583 12.007 8.89 12.007a7.572 7.572 0 0 0 6.725-3.229.886.886 0 0 1 .836-.494 1.161 1.161 0 0 1 1.14 1.102 1.209 1.209 0 0 1-.228.646z"/><use xlink:href="#AK"/><use xlink:href="#AL"/><path d="M107.522 128.723c-2.28 0-6.117-.798-7.447-3a.922.922 0 0 1-.151-.57 1.036 1.036 0 0 1 1.938-.607c1.367 1.67 3.8 2.014 5.66 2.014 3.686 0 5.547-1.216 5.547-3.686 0-5.737-12.462-2.698-12.462-10.297 0-3.837 3.837-5.32 7.295-5.32 1.976 0 5.016.685 6.535 2.204a1.064 1.064 0 0 1 .342.722 1.232 1.232 0 0 1-1.178 1.14 1.006 1.006 0 0 1-.722-.304 7.599 7.599 0 0 0-4.978-1.596c-3.344 0-5.13 1.292-5.13 3.153 0 5.32 12.462 2.508 12.462 10.297 0 4.33-3.8 5.85-7.713 5.85z"/><use xlink:href="#AM"/><use xlink:href="#AN"/><path d="M167.71 109.308l-7.484 17.82a1.249 1.249 0 0 1-1.064.874 1.294 1.294 0 0 1-1.102-.874l-7.485-17.78a1.22 1.22 0 0 1-.075-.494 1.062 1.062 0 0 1 1.102-1.025.976.976 0 0 1 .95.646l6.6 15.616 6.573-15.616a1.084 1.084 0 0 1 2.09.342.907.907 0 0 1-.114.494z"/><use xlink:href="#AO"/><use xlink:href="#AP"/><path d="M207.84 136.664c-3.23 0-7.79-1.216-7.79-2.584a1.206 1.206 0 0 1 1.103-1.216 13.689 13.689 0 0 1 2.014.912 14.237 14.237 0 0 0 4.673.722c4.863 0 7.37-2.394 7.37-7.067v-2.66a9.072 9.072 0 0 1-7.371 3.229c-6.003 0-9.536-4.256-9.536-10.106 0-5.7 3.42-10.715 9.536-10.715a8.686 8.686 0 0 1 7.371 3.572v-1.824a1.083 1.083 0 0 1 2.166 0v18.503c0 6.04-3.6 9.233-9.537 9.233zm0-27.318c-4.483 0-7.37 3.61-7.37 8.55 0 4.9 2.698 7.94 7.37 7.94s7.37-3.04 7.37-7.94c0-4.94-2.85-8.55-7.37-8.55z"/><use xlink:href="#AP" x="53.009"/><use xlink:href="#AQ"/><use xlink:href="#AR"/><path d="M302.457 128a1.067 1.067 0 0 1-1.102-1.063v-1.216a8.44 8.44 0 0 1-6.497 2.925 8.758 8.758 0 0 1-8.663-8.662V108.9a1.083 1.083 0 0 1 2.166 0v11.095a6.497 6.497 0 0 0 12.994 0V108.9a1.083 1.083 0 0 1 2.166 0v18.048a1.059 1.059 0 0 1-1.064 1.064z"/><use xlink:href="#AN" x="167.731"/><use xlink:href="#AM" x="200.592"/><use xlink:href="#AS"/><use xlink:href="#AK" x="302.925"/><use xlink:href="#AN" x="242.048"/><use xlink:href="#AS" x="53.236"/><path d="M429.67 128a1.068 1.068 0 0 1-1.102-1.063v-1.216a8.44 8.44 0 0 1-6.497 2.925 8.758 8.758 0 0 1-8.663-8.662V108.9a1.083 1.083 0 0 1 2.166 0v11.095a6.497 6.497 0 1 0 12.994 0V108.9a1.083 1.083 0 0 1 2.166 0v18.048a1.059 1.059 0 0 1-1.064 1.064z"/><use xlink:href="#AR" x="159.552"/><path d="M462.01 128a1.068 1.068 0 0 1-1.102-1.063v-1.216a8.44 8.44 0 0 1-6.497 2.925 8.758 8.758 0 0 1-8.663-8.662V108.9a1.083 1.083 0 0 1 2.166 0v11.095a6.497 6.497 0 0 0 12.994 0V108.9a1.083 1.083 0 0 1 2.166 0v18.048a1.059 1.059 0 0 1-1.064 1.064z"/><use xlink:href="#AN" x="327.281"/><path d="M495.745 118.996h-15.768c.342 4.332 3.153 7.485 7.295 7.485a6.866 6.866 0 0 0 5.585-2.622.997.997 0 0 1 .912-.531 1.161 1.161 0 0 1 1.178 1.025c0 .342 0 .418-.722 1.254a8.969 8.969 0 0 1-6.953 3.039c-6.117 0-9.536-5.015-9.536-10.752 0-5.7 3.42-10.715 9.536-10.715s9.537 5.054 9.537 10.715a1.15 1.15 0 0 1-1.065 1.102zm-8.473-9.65c-4.56 0-6.953 3.495-7.295 7.485h14.628c-.342-4.332-3.153-7.485-7.333-7.485zm30.514 27.318c-3.23 0-7.8-1.216-7.8-2.584a1.206 1.206 0 0 1 1.103-1.216 13.69 13.69 0 0 1 2.014.912 14.237 14.237 0 0 0 4.673.722c4.863 0 7.37-2.394 7.37-7.067v-2.66a9.072 9.072 0 0 1-7.371 3.229c-6.003 0-9.536-4.256-9.536-10.106 0-5.7 3.42-10.715 9.536-10.715a8.686 8.686 0 0 1 7.371 3.572v-1.824a1.083 1.083 0 0 1 2.166 0v18.503c0 6.04-3.6 9.233-9.537 9.233zm0-27.318c-4.483 0-7.37 3.6-7.37 8.55 0 4.9 2.698 7.94 7.37 7.94s7.37-3.04 7.37-7.94c0-4.94-2.85-8.55-7.37-8.55zm31.3 9.65H533.33c.342 4.332 3.153 7.485 7.295 7.485a6.866 6.866 0 0 0 5.585-2.622.997.997 0 0 1 .912-.531 1.161 1.161 0 0 1 1.178 1.025c0 .342 0 .418-.722 1.254a8.969 8.969 0 0 1-6.953 3.039c-6.117 0-9.536-5.015-9.536-10.752 0-5.7 3.42-10.715 9.536-10.715s9.537 5.054 9.537 10.715a1.15 1.15 0 0 1-1.064 1.102zm-8.473-9.65c-4.56 0-6.953 3.495-7.295 7.485h14.628c-.342-4.332-3.153-7.485-7.333-7.485z"/><use xlink:href="#AL" x="474.369"/><use xlink:href="#AM" x="457.078"/><use xlink:href="#AN" x="457.08"/><use xlink:href="#AQ" x="356.222"/><path d="M638.997 128h-1.178c-3 0-4.483-1.48-4.483-4.445V109.99h-1.937a1.083 1.083 0 0 1 0-2.165h1.938v-5.814a1.068 1.068 0 0 1 1.103-1.063 1.037 1.037 0 0 1 1.063 1.063v5.813h3.495a1.083 1.083 0 0 1 0 2.165H635.5v13.564c0 1.86.532 2.28 2.317 2.28h1.178a1.083 1.083 0 0 1 0 2.166z"/><use xlink:href="#AO" x="472.007"/><use xlink:href="#AK" x="591.971"/><use xlink:href="#AL" x="591.97"/><path d="M699.492 128.723c-2.28 0-6.117-.798-7.447-3a.922.922 0 0 1-.151-.57 1.036 1.036 0 0 1 1.938-.607c1.367 1.67 3.8 2.014 5.66 2.014 3.686 0 5.547-1.216 5.547-3.686 0-5.737-12.462-2.698-12.462-10.297 0-3.837 3.837-5.32 7.295-5.32 1.976 0 5.015.685 6.535 2.204a1.064 1.064 0 0 1 .342.722 1.232 1.232 0 0 1-1.178 1.14 1.006 1.006 0 0 1-.722-.304 7.598 7.598 0 0 0-4.978-1.596c-3.344 0-5.13 1.292-5.13 3.153 0 5.32 12.462 2.508 12.462 10.297 0 4.33-3.8 5.85-7.713 5.85z"/></g></svg>