<svg xmlns="http://www.w3.org/2000/svg" xmlns:xlink="http://www.w3.org/1999/xlink" viewBox="0 0 1080 1080"><style><![CDATA[.H{fill:#fff}.I{opacity:.7}]]></style><linearGradient id="A" gradientUnits="userSpaceOnUse" x1="11.716" y1="11.716" x2="1068.284" y2="1068.284"><stop offset="0" stop-color="#3e5151"/><stop offset=".142" stop-color="#5c6860"/><stop offset=".433" stop-color="#93927d"/><stop offset=".683" stop-color="#bcb192"/><stop offset=".88" stop-color="#d5c49f"/><stop offset="1" stop-color="#decba4"/></linearGradient><path d="M1040 1080H40c-22.09 0-40-17.91-40-40V40C0 17.91 17.91 0 40 0h1000c22.09 0 40 17.91 40 40v1000c0 22.09-17.91 40-40 40z" fill="url(#A)"/><g opacity=".5" class="H"><path d="M42.328 1046.045c-3.568 0-5.47-1.97-5.503-2.002 0 .935-.7 1.4-1.468 1.4-.7 0-1.4-.467-1.4-1.4v-20.88a1.35 1.35 0 0 1 1.401-1.434c.767 0 1.468.467 1.468 1.4v6.238c1.334-1.368 3.168-2.17 5.503-2.17 5.37 0 8.373 4.403 8.373 9.406 0 5.037-3.002 9.44-8.373 9.44zm0-16c-3.335 0-5.503 2.602-5.503 6.57 0 4.003 2.168 6.604 5.503 6.604s5.504-2.602 5.504-6.604c0-3.97-2.168-6.57-5.504-6.57zm25.555 8.037h-12.34c.467 3.136 2.468 5.137 5.403 5.137 1.5 0 3.002-.533 3.97-1.734.3-.333.634-.533 1.034-.533.734 0 1.5.667 1.5 1.468 0 .4-.1.7-.8 1.4-1.5 1.468-3.57 2.235-5.704 2.235-5.37 0-8.372-4.437-8.372-9.44 0-4.97 3.002-9.406 8.372-9.406 5.437 0 8.34 4.437 8.34 9.406 0 .734-.534 1.468-1.4 1.468zm-6.937-8.038c-3.136 0-4.97 2.3-5.403 5.17H66.35c-.467-3.202-2.468-5.17-5.403-5.17zM88 1045.478c-1.834 0-2.668-1.3-2.97-1.9-1.334 1.468-3.27 2.47-5.87 2.47-5.437 0-8.372-4.47-8.372-9.44s3.002-9.406 8.372-9.406c2.335 0 4.203.834 5.504 2.202v-.134c0-.367.133-1.5 1.4-1.5.7 0 1.468.367 1.468 1.4v12.875c0 .434.3.6.467.6.935 0 1.435.667 1.435 1.434a1.37 1.37 0 0 1-1.435 1.401zm-8.84-15.443c-3.336 0-5.504 2.602-5.504 6.57 0 4.003 2.168 6.604 5.504 6.604 3.37 0 5.504-2.602 5.504-6.604 0-3.97-2.135-6.57-5.504-6.57z"/><use xlink:href="#D"/><path d="M115.158 1045.478h-.567c-3.17 0-4.37-1.668-4.37-4.403V1030.6h-1c-.8 0-1.435-.634-1.435-1.4 0-.8.634-1.435 1.4-1.435h1v-4.637c0-.934.7-1.4 1.435-1.4s1.4.467 1.4 1.4v4.637h2.135c.934 0 1.4.768 1.4 1.4 0 .8-.533 1.434-1.4 1.434h-2.135v10.774c0 .934.333 1.268 1.268 1.268h.833c.868 0 1.435.634 1.435 1.4 0 .8-.533 1.435-1.4 1.435zm4.604-20.415a2.402 2.402 0 1 1 0-4.803 2.402 2.402 0 1 1 0 4.803zm0 20.414c-.733 0-1.467-.5-1.467-1.4V1029.2c0-.935.733-1.435 1.467-1.435a1.37 1.37 0 0 1 1.401 1.435v14.876c0 .935-.7 1.4-1.4 1.4zm10.376-14.877h-1.5v13.442c0 .935-.7 1.4-1.468 1.4-.7 0-1.4-.467-1.4-1.4V1030.6h-1.37c-.9 0-1.4-.667-1.4-1.4 0-.768.5-1.435 1.4-1.435h1.367v-2.27c0-2.135 1.77-3.77 3.836-3.77.968 0 1.468.667 1.468 1.434 0 .7-.5 1.4-1.468 1.4-.566 0-.967.434-.967.9v2.302h1.5c.967 0 1.468.667 1.468 1.435 0 .733-.5 1.4-1.468 1.4z"/><use xlink:href="#D" x="42.068"/><path d="M154.725 1045.544c-1.802 0-3.336-1.534-3.336-3.402v-18.98c0-.967.7-1.434 1.435-1.434s1.435.467 1.435 1.4v19.013c0 .4.3.567.467.567.934 0 1.435.667 1.435 1.435 0 .733-.5 1.4-1.435 1.4zm15.37-.066v-1.264c1.886-.237 2.046-.437 2.046-3.157v-6.7c0-2.8-1.248-4.017-3.064-4.017-1.237 0-2.345.6-3.47 1.493v9.476c0 2.527.187 2.658 2.06 2.896v1.264h-8.968v-1.264c2.254-.33 2.5-.4 2.5-3v-8.2c0-2.446-.303-2.565-2.185-2.922v-1.184c2.173-.292 4.63-.807 6.653-1.533l-.052 2.95 2.6-1.745c1.16-.713 2-1.086 3.16-1.086 3.194 0 5.2 2.338 5.2 6.3v7.5c0 2.54.237 2.657 2.277 2.92v1.264h-8.74zm23.9-3.703c-2.458 3.427-5.488 4.178-7.014 4.178-5.142 0-8.124-3.936-8.124-8.594 0-2.745 1.183-5.396 2.832-7.062 1.74-1.8 3.945-2.814 6.082-2.814 3.73 0 6.396 3.126 6.37 6.347-.014.715-.08 1.277-.612 1.4-.767.184-6.17.5-10.318.647.062 4.587 2.717 6.74 5.556 6.74 1.572 0 3.104-.597 4.543-1.866l.686 1.014zm-7.07-12.7c-1.667 0-3.167 1.807-3.516 4.963l5.486-.118c.6-.026.848-.146.848-.792.04-2.022-1.037-4.053-2.818-4.053zm34.284.145c-1.943.343-2.248.624-3.105 2.765-1.33 3.462-3.102 8.53-4.934 13.94h-1.512l-4.65-11.46-4.55 11.46h-1.472l-4.685-14.192c-.687-1.985-.94-2.274-2.855-2.512v-1.25h9.397v1.25c-2.325.345-2.535.672-2.058 2.133l2.52 8.214c1.507-3.68 2.988-7.62 4.327-11.424h1.456c1.4 3.76 2.986 7.702 4.573 11.568.742-2.107 2.062-5.964 2.557-8.108.412-1.674-.008-2.078-2.753-2.383v-1.25h7.742v1.25zm9.4 3.746c-.92-2.606-2.155-3.984-4.2-3.984-1.206 0-2.225.86-2.225 2.266 0 1.497 1.046 2.264 3.16 3.216 3.278 1.496 5.3 2.787 5.3 5.736 0 3.85-3.6 5.764-6.945 5.764-2.06 0-4.088-.737-4.92-1.16l-.662-4.892 1.252-.224c.8 2.5 2.33 4.75 4.976 4.75 1.505 0 2.438-.952 2.438-2.28 0-1.423-.76-2.333-3.092-3.467-2.67-1.295-5.107-2.64-5.107-5.775 0-3.046 2.533-5.42 6.565-5.42 1.818 0 3.242.396 4.112.567l.62 4.577-1.25.328z"/></g><g class="H"><use xlink:href="#E"/><use xlink:href="#F"/><use xlink:href="#G"/><use xlink:href="#H"/><path d="M632.49 1044.797c-.94.98-2.24 1.52-3.82 1.52-3.437 0-5.358-2.64-5.358-5.662 0-3 1.922-5.64 5.358-5.64 1.58 0 2.882.54 3.82 1.52a.52.52 0 0 1 .171.381.65.65 0 0 1-.619.6c-.15 0-.3-.06-.448-.2-.704-.74-1.687-1.16-2.925-1.16-2.52 0-4.142 1.9-4.142 4.5s1.623 4.52 4.142 4.52c1.238 0 2.22-.44 2.925-1.16.15-.14.3-.2.448-.2.32 0 .62.26.62.58a.55.55 0 0 1-.171.398z"/><use xlink:href="#I"/><use xlink:href="#E" x="61.58"/><path d="M656.673 1039.416c-.684 0-1.238-.5-1.238-1.14s.555-1.14 1.238-1.14c.662 0 1.195.5 1.195 1.14s-.533 1.14-1.195 1.14zm0 6.563c-.684 0-1.238-.5-1.238-1.14s.555-1.14 1.238-1.14c.662 0 1.195.5 1.195 1.14s-.533 1.14-1.195 1.14z"/><use xlink:href="#J"/><use xlink:href="#G" x="70.801"/><use xlink:href="#K"/><use xlink:href="#F" x="106.148"/><use xlink:href="#L"/><use xlink:href="#M"/><use xlink:href="#N"/><path d="M744.358 1047.758c-.086.06-.214.08-.32.08-.342 0-.577-.28-.577-.58 0-.56.918-.64 1.067-1.28-.64-.04-1.152-.54-1.152-1.14 0-.68.598-1.16 1.238-1.16 1.046 0 1.28 1 1.28 1.62 0 .98-.555 1.92-1.536 2.46z"/><use xlink:href="#J" x="88.154"/><use xlink:href="#G" x="158.955"/><use xlink:href="#H" x="158.955"/><path d="M787.624 1046.318c-3.437 0-5.358-2.64-5.358-5.662 0-3 1.922-5.64 5.358-5.64s5.358 2.64 5.358 5.64c0 3.02-1.92 5.662-5.358 5.662zm0-10.162c-2.52 0-4.142 1.9-4.142 4.5s1.623 4.52 4.142 4.52c2.54 0 4.142-1.92 4.142-4.52s-1.602-4.5-4.142-4.5zm12.4 10.162c-1.857 0-3.245-.72-4.142-1.9v5.182c0 .36-.32.58-.598.58-.3 0-.62-.22-.62-.58v-13.684c0-.36.32-.56.62-.56.277 0 .598.2.598.56v.98c.896-1.16 2.284-1.88 4.142-1.88 3.437 0 5.358 2.64 5.358 5.64 0 3.02-1.922 5.662-5.358 5.662zm0-10.162c-2.54 0-4.142 1.9-4.142 4.5s1.602 4.52 4.142 4.52 4.142-1.92 4.142-4.52-1.602-4.5-4.142-4.5z"/><use xlink:href="#I" x="172.701"/><use xlink:href="#N" x="87.044"/><use xlink:href="#K" x="143.415"/><use xlink:href="#J" x="183.63"/><use xlink:href="#K" x="171.91"/><path d="M880.752 1036.137l-4.205 9.38c-.13.26-.32.46-.6.46s-.5-.2-.618-.46l-4.206-9.36c-.042-.1-.042-.18-.042-.26 0-.32.3-.54.618-.54.192 0 .428.08.534.34l3.714 8.223 3.693-8.223c.128-.26.342-.36.555-.36.32 0 .62.22.62.54 0 .06 0 .16-.063.262z"/><use xlink:href="#M" x="153.49"/><use xlink:href="#H" x="267.815"/><use xlink:href="#F" x="297.632"/><use xlink:href="#K" x="215.112"/><use xlink:href="#L" x="203.202"/><use xlink:href="#I" x="297.377"/><use xlink:href="#K" x="255.24"/><path d="M959.28 1045.98h-.66c-1.687 0-2.52-.78-2.52-2.342v-7.14h-1.088a.58.58 0 0 1-.598-.58c0-.26.213-.56.598-.56h1.088v-3.06c0-.36.32-.56.62-.56s.598.2.598.56v3.06h1.964c.385 0 .6.3.6.56a.58.58 0 0 1-.599.58h-1.964v7.14c0 .98.3 1.2 1.303 1.2h.66a.58.58 0 0 1 .599.58c0 .26-.214.56-.6.56z"/><use xlink:href="#N" x="229.03"/><path d="M975.928 1046.098c-1.152 0-2.113-1-2.113-2.12v-11.684c0-.36.32-.56.62-.56.277 0 .598.2.598.56v11.684c0 1.28 1.516.54 1.516 1.44 0 .34-.256.68-.62.68zm12.892-.118h-6.2c-.32 0-.62-.28-.62-.56v-13.123c0-.34.192-.56.556-.56h5.784c2.114 0 3.843 1.64 3.843 3.56a3.4 3.4 0 0 1-1.516 2.861c1.537.66 2.54 2.08 2.54 3.72 0 2.28-1.964 4.102-4.397 4.102zm-.47-13.123h-5.123v4.92h5.123c1.73 0 2.626-1.44 2.626-2.44 0-1.38-1.195-2.48-2.626-2.48zm.47 6.06h-5.593v5.922h5.593c1.75 0 3.18-1.32 3.18-2.96s-1.43-2.96-3.18-2.96z"/><use xlink:href="#G" x="389.01"/><use xlink:href="#H" x="389.01"/><use xlink:href="#I" x="377.949"/><use xlink:href="#N" x="292.292"/><use xlink:href="#G" x="431.183"/></g><linearGradient id="B" gradientUnits="userSpaceOnUse" x1="193.583" y1="257.601" x2="885.3" y2="949.318"><stop offset="0" stop-color="#cee0cc"/><stop offset=".005" stop-color="#cfe1cd"/><stop offset=".202" stop-color="#fdffe6"/><stop offset=".389" stop-color="#fefff2"/><stop offset=".658" stop-color="#fffffc"/><stop offset="1" stop-color="#fff"/></linearGradient><path d="M433.748 541.196c0 14.625-11.73 26.55-26.395 26.55H359.3v-52.65h48.278c13.084 0 26.17 10.8 26.17 26.1zm239.124 60.526h59.107l-29.553-71.552-29.554 71.552zM1046 449.92V702H34V449.92h1012zM183.345 579.447c0-5.85-4.06-9.9-9.925-9.9h-30.907c-6.09 0-9.475 4.725-9.475 9.675s3.384 9.676 9.926 9.676h20.303c-1.578 32.4-18.047 51.977-45.57 51.977-37.9 0-46.247-33.977-46.247-64.802 0-35.326 11.506-64.802 46.247-64.802 16.244 0 25.944 5.85 33.163 14.625 3.61 4.05 4.06 5.85 8.122 5.85 5.188 0 10.828-4.275 10.828-9.675 0-1.8-.677-3.825-2.03-5.625-12.408-17.325-29.553-24.525-50.083-24.525-48.503 0-65.65 40.726-65.65 84.152 0 42.3 16.018 83.927 65.65 83.927 47.827 0 64.747-38.476 65.65-80.552zm40.376-18.9v-45.45h84.374c6.09 0 9.475-4.95 9.475-9.675 0-5.175-3.6-9.45-9.475-9.45h-93.85c-5.415 0-9.926 4.275-9.926 9.675v141.08c0 5.176 4.512 9.45 9.926 9.45h93.85c5.865 0 9.475-4.274 9.475-9.45 0-4.95-3.384-9.675-9.475-9.675H223.72v-57.15h59.106c5.866 0 9.7-4.5 9.7-9.676s-4.06-9.675-9.7-9.675H223.72zm187.92 26.1c23.688-2.025 41.5-21.826 41.5-45.45 0-29.7-25.493-45.226-45.346-45.226h-58.43c-6.768 0-9.475 5.625-9.475 9.675v141.08c0 6.075 4.738 9.45 9.475 9.45 5.188 0 9.926-3.375 9.926-9.675v-59.627h29.102l46.925 65.477c2.03 2.7 4.963 4.05 7.444 4.05 5.19 0 10.378-4.275 10.378-9.676 0-2.024-.45-3.825-2.03-5.85l-39.48-54.227zm207.997-80.552c0-6.975-4.738-10.125-9.7-10.125-3.835 0-6.543 1.125-8.798 5.625l-53.692 99.227-53.468-99.227c-2.03-4.05-4.737-5.625-8.12-5.625-5.19 0-10.378 2.7-10.378 10.125v140.628c0 6.3 4.737 9.676 9.475 9.676 5.188 0 9.926-3.375 9.926-9.676V543.67l43.54 81c3.16 5.626 7.897 6.075 9.025 6.075 1.805 0 6.09-.45 9.024-6.075l43.766-81.452v103.502c0 6.3 4.737 9.676 9.475 9.676 5.188 0 9.926-3.375 9.926-9.676V506.095zm150.92 140.628c0-1.35-.225-2.7-.677-3.825L711.675 502.27c-2.256-5.85-7.22-6.975-9.25-6.975-2.933 0-6.543 1.125-9.25 6.975L635.197 642.9c-.677 1.125-.902 2.476-.902 3.825 0 5.625 5.188 9.45 10.152 9.45 3.16 0 6.543-1.8 8.347-5.85l12.182-29.25H740.1l11.957 29.25c1.805 4.05 5.188 5.85 8.572 5.85 5.19 0 9.926-3.825 9.926-9.45zM898.24 505.42c0-6.3-4.738-9.45-9.926-9.45-4.737 0-9.475 3.15-9.475 9.675v108.678l-75.802-113.628c-2.256-3.375-4.962-4.725-8.12-4.725-4.963 0-9.926 3.375-9.926 9.675v141.08c0 6.075 4.737 9.45 9.475 9.45 5.188 0 9.926-3.375 9.926-9.675V537.596l75.8 113.627c2.03 3.375 5.19 4.95 8.122 4.95 4.963 0 9.926-3.6 9.926-9.675V505.42zm129.714 0c0-5.4-4.963-9.45-10.152-9.45-2.933 0-6.09 1.35-8.122 4.95l-37.675 69.302-37.224-69.302c-2.03-3.825-5.188-5.4-8.12-5.4-4.963 0-10.153 4.275-10.153 9.675a8.46 8.46 0 0 0 1.354 4.725l44.668 83.25v53.552c0 6.3 4.738 9.45 9.475 9.45 5.19 0 9.926-3.375 9.926-9.675v-53.327l44.67-83.026c1.128-1.8 1.353-3.15 1.353-4.725zm-554.97-143.01c-12.354 0-17.836 9.136-17.836 25.058s5.48 25.058 17.836 25.058c12.268 0 17.836-9.135 17.836-25.058s-5.568-25.058-17.836-25.058zm60.553 1.48h-18.62v20.36h18.532c5.655 0 10.18-4.61 10.18-10.267 0-5.917-5.047-10.093-10.093-10.093zm-109.62 0h-18.62v20.36h18.532c5.655 0 10.18-4.524 10.18-10.18s-4.524-10.18-10.093-10.18zm-69.34 33.498h22.796l-11.397-27.668-11.398 27.668zm260.82-58.46v96.993H148.395v-96.993h467.002zM204.16 402.345c0-24.883-34.716-15.226-34.716-31.496 0-4.698 3.567-8.44 12.964-8.44 4.698 0 9.136 1.305 12.616 4.263 1.48 1.305 2.175 1.915 3.48 1.915 1.827 0 3.74-1.827 3.74-3.916 0-.783-.262-1.566-.957-2.35-4.264-5.046-12.877-7.396-18.88-7.396-11.484 0-20.446 5.308-20.446 15.922 0 23.666 34.716 13.4 34.716 31.496 0 6.438-4.524 10.18-14.878 10.18-5.047 0-10.093-1.392-14.356-4.61-1.566-1.218-2-1.653-3.306-1.653-2.09 0-3.74 1.74-3.74 3.74 0 .87.26 1.827 1.218 2.697 4.96 4.61 13.834 7.22 20.186 7.22 11.484 0 22.36-4.61 22.36-17.575zm16.267 8.7v-47.157h1.305c2.523 0 3.828-1.827 3.828-3.654 0-2-1.305-3.742-3.828-3.742h-10.006c-2.35 0-3.654 1.74-3.654 3.742 0 1.827 1.306 3.654 3.654 3.654h1.306v47.157h-1.306c-2.35 0-3.654 1.74-3.654 3.74 0 1.827 1.306 3.654 3.654 3.654h10.006c2.523 0 3.828-1.827 3.828-3.654 0-2-1.305-3.74-3.828-3.74h-1.305zm56.378-50.898c0-2.436-1.827-3.654-3.83-3.654-1.827 0-3.653 1.218-3.653 3.742v42.023l-29.234-43.938c-.87-1.305-1.914-1.827-3.132-1.827-1.914 0-3.828 1.305-3.828 3.742v54.552c0 2.35 1.827 3.654 3.653 3.654 2.002 0 3.83-1.305 3.83-3.74v-42.11l29.233 43.938c.783 1.305 2 1.914 3.132 1.914 1.915 0 3.83-1.392 3.83-3.74v-54.553zm59.768 28.625c0-2.262-1.565-3.828-3.828-3.828h-11.92c-2.35 0-3.654 1.827-3.654 3.74s1.305 3.74 3.828 3.74h7.83c-.608 12.53-6.96 20.098-17.575 20.098-14.617 0-17.836-13.138-17.836-25.058 0-13.66 4.438-25.058 17.836-25.058 6.265 0 10.006 2.262 12.8 5.655 1.392 1.566 1.566 2.262 3.132 2.262 2.002 0 4.177-1.653 4.177-3.74 0-.696-.26-1.48-.783-2.175-4.785-6.7-11.397-9.484-19.315-9.484-18.706 0-25.318 15.748-25.318 32.54 0 16.357 6.178 32.453 25.318 32.453 18.445 0 24.97-14.878 25.318-31.148zm55.68 26.015c0-.522-.087-1.044-.26-1.48l-22.448-54.378c-.87-2.262-2.784-2.697-3.566-2.697-1.132 0-2.523.435-3.567 2.697l-22.36 54.378c-.262.435-.35.957-.35 1.48 0 2.175 2 3.654 3.915 3.654 1.22 0 2.523-.696 3.22-2.262l4.698-11.31h28.973l4.61 11.31c.696 1.566 2 2.262 3.307 2.262 2 0 3.828-1.48 3.828-3.654zm49.24-40.806c0-11.485-9.832-17.488-17.488-17.488h-22.535c-2.61 0-3.653 2.175-3.653 3.742v54.552c0 2.262 1.74 3.654 3.828 3.654 1.914 0 3.654-1.48 3.654-3.74v-23.057h18.62c9.744 0 17.575-7.83 17.575-17.662zm56.8 13.486c0-17.053-6.7-32.54-25.318-32.54-18.706 0-25.318 15.487-25.318 32.54 0 16.966 6.612 32.453 25.318 32.453 18.62 0 25.318-15.487 25.318-32.453zm36.8 4.09c9.136-.783 16-8.44 16-17.575 0-11.485-9.832-17.488-17.488-17.488h-22.535c-2.61 0-3.653 2.175-3.653 3.742v54.552c0 2.35 1.826 3.654 3.653 3.654 2.002 0 3.83-1.305 3.83-3.74v-23.057h11.224l18.097 25.32c.783 1.044 1.914 1.566 2.87 1.566 2 0 4.003-1.653 4.003-3.74 0-.783-.175-1.48-.783-2.262L535.1 391.556zm32.102-10.093v-17.575h32.54c2.35 0 3.654-1.914 3.654-3.74 0-2-1.393-3.654-3.654-3.654h-36.194c-2.09 0-3.828 1.653-3.828 3.742v54.552c0 2 1.74 3.654 3.828 3.654h36.194c2.262 0 3.654-1.653 3.654-3.654 0-1.914-1.306-3.74-3.654-3.74h-32.54v-22.1h22.795c2.263 0 3.74-1.74 3.74-3.74s-1.566-3.74-3.74-3.74h-22.795zM832.7 396.08h22.796l-11.397-27.668L832.7 396.08zm-140.404 0h22.796l-11.397-27.668-11.398 27.668zm239.32-57.154v94.21H629.397v-94.21h302.208zM666.89 362.583h14.443c2.436 0 3.74-1.914 3.74-3.74 0-1.74-1.306-3.654-3.74-3.654h-36.194c-2.437 0-3.74 1.915-3.74 3.654 0 1.827 1.305 3.74 3.828 3.74h14.27v50.898c0 2.35 1.914 3.654 3.74 3.654 1.914 0 3.654-1.305 3.654-3.654v-50.898zm63.07 50.898c0-.522-.087-1.044-.26-1.48l-22.448-54.378c-.87-2.262-2.784-2.697-3.566-2.697-1.132 0-2.523.435-3.567 2.697l-22.36 54.378c-.262.435-.35.957-.35 1.48 0 2.175 2 3.654 3.915 3.654 1.22 0 2.523-.696 3.22-2.262l4.698-11.31h28.973l4.61 11.31c.696 1.566 2 2.262 3.307 2.262 2 0 3.828-1.48 3.828-3.654zm14.96-3.74v-47.157h1.305c2.523 0 3.828-1.827 3.828-3.654 0-2-1.305-3.742-3.828-3.742H736.22c-2.35 0-3.654 1.74-3.654 3.742 0 1.827 1.306 3.654 3.654 3.654h1.306v47.157h-1.306c-2.35 0-3.654 1.74-3.654 3.74 0 1.827 1.306 3.654 3.654 3.654h10.006c2.523 0 3.828-1.827 3.828-3.654 0-2-1.305-3.74-3.828-3.74h-1.305zm60.99 4.35l14.355-54.292c.087-.348.174-.783.174-1.218 0-2.175-1.914-3.567-3.828-3.567-1.305 0-3.045.957-3.567 2.87l-10.963 41.502-11.484-41.154c-.61-2.088-1.827-3.045-3.74-3.045-1.827 0-3.045.958-3.654 3.045l-11.484 41.154-10.963-41.502c-.522-1.827-2-2.697-3.48-2.697-1.914 0-3.915 1.218-3.915 3.394 0 .435.087.87.174 1.218l14.356 54.29c.52 2.088 1.74 3.045 3.654 3.045 1.827 0 3.045-.957 3.653-3.045l11.66-41.675L798.6 414.1c.608 2.088 1.914 3.045 3.74 3.045 2 0 3.132-.957 3.567-3.045zm64.454-.61c0-.522-.087-1.044-.26-1.48l-22.448-54.378c-.87-2.262-2.784-2.697-3.566-2.697-1.132 0-2.523.435-3.567 2.697l-22.36 54.378c-.262.435-.35.957-.35 1.48 0 2.175 2 3.654 3.915 3.654 1.22 0 2.523-.696 3.22-2.262l4.698-11.31h28.973l4.61 11.31c.696 1.566 2 2.262 3.307 2.262 2 0 3.828-1.48 3.828-3.654zm49.24-54.64c0-2.436-1.827-3.654-3.83-3.654-1.826 0-3.653 1.218-3.653 3.742v42.023l-29.234-43.938c-.87-1.305-1.914-1.827-3.132-1.827-1.914 0-3.828 1.305-3.828 3.742v54.552c0 2.35 1.826 3.654 3.653 3.654 2.002 0 3.83-1.305 3.83-3.74v-42.11l29.233 43.938c.783 1.305 2 1.914 3.132 1.914 1.915 0 3.83-1.392 3.83-3.74v-54.553zm-678 415.616h22.796L252.993 746.8l-11.398 27.668zM429.248 716v96.993H150.263V716h278.985zm-214.434 76.47l14.355-54.29c.087-.348.174-.783.174-1.218 0-2.176-1.914-3.567-3.828-3.567-1.305 0-3.045.957-3.567 2.87l-10.963 41.502L199.5 736.6c-.61-2.088-1.827-3.045-3.74-3.045-1.827 0-3.045.957-3.654 3.045l-11.484 41.154-10.963-41.502c-.522-1.827-2-2.697-3.48-2.697-1.914 0-3.915 1.218-3.915 3.394 0 .435.087.87.174 1.218l14.356 54.29c.52 2.09 1.74 3.046 3.654 3.046 1.827 0 3.045-.957 3.653-3.046l11.66-41.675 11.746 41.675c.608 2.09 1.914 3.046 3.74 3.046 2 0 3.132-.957 3.567-3.046zm64.454-.608c0-.522-.087-1.044-.26-1.48l-22.448-54.378c-.87-2.263-2.784-2.697-3.566-2.697-1.132 0-2.523.435-3.567 2.697l-22.36 54.378c-.262.436-.35.957-.35 1.48 0 2.175 2 3.654 3.915 3.654 1.22 0 2.523-.696 3.22-2.263l4.698-11.31h28.973l4.61 11.31c.696 1.566 2 2.263 3.307 2.263 2 0 3.828-1.48 3.828-3.654zm39.496-.087a3.68 3.68 0 0 0-3.654-3.654h-22.795V737.22c0-2.437-1.914-3.654-3.83-3.654-1.652 0-3.653 1.218-3.653 3.74v54.553c0 2 1.74 3.654 3.828 3.654h26.45c2 0 3.654-1.653 3.654-3.74zm13.657-33.236V740.96h32.54c2.35 0 3.654-1.914 3.654-3.74 0-2-1.393-3.654-3.654-3.654h-36.194c-2.09 0-3.828 1.653-3.828 3.74v54.553c0 2 1.74 3.654 3.828 3.654h36.194c2.262 0 3.654-1.653 3.654-3.654 0-1.914-1.306-3.74-3.654-3.74h-32.54v-22.1h22.795c2.263 0 3.74-1.74 3.74-3.74s-1.566-3.74-3.74-3.74h-22.795zm84.826 20.88c0-24.883-34.716-15.226-34.716-31.496 0-4.698 3.567-8.44 12.964-8.44 4.698 0 9.136 1.306 12.616 4.264 1.48 1.305 2.175 1.914 3.48 1.914 1.827 0 3.74-1.827 3.74-3.915 0-.783-.262-1.566-.957-2.35-4.264-5.046-12.877-7.396-18.88-7.396-11.484 0-20.446 5.308-20.446 15.922 0 23.666 34.716 13.4 34.716 31.496 0 6.438-4.524 10.18-14.878 10.18-5.047 0-10.093-1.392-14.356-4.61-1.566-1.218-2-1.652-3.306-1.652-2.09 0-3.742 1.74-3.742 3.74 0 .87.262 1.827 1.22 2.697 4.96 4.61 13.834 7.22 20.186 7.22 11.484 0 22.36-4.61 22.36-17.575zM809.394 743.9H793.13v17.784h16.188c4.94 0 8.893-4.028 8.893-8.968 0-5.17-4.408-8.816-8.816-8.816zm-289.1-1.293c-10.792 0-15.58 7.98-15.58 21.9s4.788 21.89 15.58 21.89c10.717 0 15.58-7.98 15.58-21.89s-4.864-21.9-15.58-21.9zm236.193 0c-10.792 0-15.58 7.98-15.58 21.9s4.788 21.89 15.58 21.89c10.717 0 15.58-7.98 15.58-21.89s-4.864-21.9-15.58-21.9zm127.977 30.554h19.913l-9.957-24.17-9.956 24.17zm44.91-53.1v88.852H443.248V720.07h486.136zm-435.906 57.423c0-21.737-30.325-13.3-30.325-27.514 0-4.104 3.116-7.373 11.324-7.373 4.104 0 7.98 1.14 11.02 3.725 1.292 1.14 1.9 1.672 3.04 1.672 1.597 0 3.27-1.596 3.27-3.42 0-.684-.228-1.368-.836-2.052-3.725-4.408-11.25-6.46-16.493-6.46-10.032 0-17.86 4.637-17.86 13.91 0 20.673 30.325 11.704 30.325 27.514 0 5.624-3.952 8.892-12.997 8.892-4.408 0-8.816-1.216-12.54-4.027-1.368-1.064-1.748-1.444-2.89-1.444-1.824 0-3.268 1.52-3.268 3.268 0 .76.228 1.597 1.063 2.356 4.333 4.028 12.085 6.31 17.633 6.31 10.033 0 19.533-4.028 19.533-15.353zm48.944-12.997c0-14.896-5.853-28.426-22.117-28.426-16.34 0-22.117 13.53-22.117 28.426 0 14.82 5.776 28.35 22.117 28.35 16.265 0 22.117-13.53 22.117-28.35zm45.676-23.865c0-2.128-1.52-3.192-3.268-3.192-1.673 0-3.192 1.064-3.192 3.27v33.138c0 6.992-5.7 12.616-12.617 12.616s-12.54-5.624-12.54-12.616V740.63c0-2.128-1.597-3.192-3.27-3.192s-3.27 1.064-3.27 3.192v33.214c0 10.717 8.665 19.077 19.077 19.077 10.717 0 19.077-8.665 19.077-19.077V740.63zm42.255 0c0-1.52-1.14-3.192-3.27-3.192h-31.617c-2.128 0-3.27 1.672-3.27 3.192 0 1.596 1.14 3.27 3.345 3.27h12.464v44.462c0 2.052 1.673 3.192 3.27 3.192 1.672 0 3.192-1.14 3.192-3.192V743.9h12.616c2.128 0 3.27-1.673 3.27-3.27zm42.71.076c0-2.204-1.672-3.27-3.344-3.27-1.444 0-3.192 1.064-3.192 3.27v18.62h-25.08V740.63c0-2.128-1.748-3.192-3.192-3.192-1.672 0-3.345 1.064-3.345 3.192v47.73c0 2.052 1.673 3.192 3.345 3.192 1.444 0 3.192-1.14 3.192-3.192v-22.573h25.08v22.573c0 2.052 1.672 3.192 3.344 3.192 1.444 0 3.192-1.14 3.192-3.27v-47.578zm60.267 47.654c0-.456-.076-.988-.38-1.52l-13.68-28.5 12.464-15.58c.608-.684.836-1.444.836-2.052 0-1.824-1.672-3.27-3.496-3.27-.836 0-1.672.38-2.355 1.292l-20.75 25.766V740.63c0-2.128-1.673-3.192-3.345-3.192-1.444 0-3.192 1.064-3.192 3.192v47.73c0 2.052 1.673 3.192 3.345 3.192 1.444 0 3.192-1.14 3.192-3.192v-13.453l8.74-10.944 12.465 25.766c.607 1.292 1.748 1.824 2.735 1.824 1.673 0 3.42-1.292 3.42-3.192zm45.285-23.865c0-14.896-5.853-28.426-22.117-28.426-16.34 0-22.117 13.53-22.117 28.426 0 14.82 5.776 28.35 22.117 28.35 16.265 0 22.117-13.53 22.117-28.35zm32.147 3.572c7.98-.685 13.984-7.372 13.984-15.353 0-10.033-8.59-15.277-15.276-15.277h-19.686c-2.28 0-3.192 1.9-3.192 3.27v47.654c0 2.052 1.597 3.192 3.192 3.192 1.748 0 3.345-1.14 3.345-3.27v-20.14h9.804l15.8 22.117c.684.912 1.672 1.368 2.508 1.368 1.748 0 3.496-1.444 3.496-3.27 0-.684-.152-1.292-.684-1.977l-13.3-18.316zm28.042-8.816V743.9h28.425c2.053 0 3.192-1.673 3.192-3.27 0-1.748-1.216-3.192-3.192-3.192h-31.617c-1.824 0-3.345 1.444-3.345 3.27v47.654c0 1.748 1.52 3.192 3.345 3.192h31.617c1.977 0 3.192-1.444 3.192-3.192 0-1.672-1.14-3.27-3.192-3.27h-28.425v-19.305h19.913c1.976 0 3.268-1.52 3.268-3.27s-1.368-3.268-3.268-3.268h-19.913zm78.58 29.11c0-.456-.075-.912-.228-1.292l-19.61-47.503c-.76-1.976-2.432-2.355-3.116-2.355-.988 0-2.204.38-3.116 2.355L871.78 787.07c-.228.38-.304.836-.304 1.292 0 1.9 1.748 3.192 3.42 3.192 1.064 0 2.204-.608 2.813-1.977l4.104-9.88h25.3l4.027 9.88c.608 1.368 1.748 1.977 2.89 1.977 1.748 0 3.344-1.292 3.344-3.192zm-649.77-509.833c-7.384 0-10.66 5.46-10.66 14.977s3.276 14.977 10.66 14.977c7.333 0 10.66-5.46 10.66-14.977s-3.328-14.977-10.66-14.977zm131.142 20.905h13.625l-6.812-16.537-6.812 16.537zm32.518-37.377V324.9H189.128v-62.845h242.144zm-205.986 40.34c0-14.873-20.75-9.1-20.75-18.825 0-2.808 2.132-5.044 7.748-5.044 2.81 0 5.46.78 7.54 2.548.885.78 1.3 1.145 2.08 1.145 1.093 0 2.236-1.092 2.236-2.34 0-.468-.156-.936-.572-1.404-2.548-3.017-7.695-4.42-11.284-4.42-6.864 0-12.22 3.172-12.22 9.516 0 14.145 20.748 8.01 20.748 18.825 0 3.848-2.704 6.084-8.893 6.084-3.016 0-6.03-.832-8.58-2.756-.936-.73-1.195-.988-1.976-.988-1.248 0-2.236 1.04-2.236 2.236a2.08 2.08 0 0 0 .728 1.612c2.965 2.756 8.27 4.316 12.064 4.316 6.865 0 13.365-2.756 13.365-10.504zm24.388 7.384a2.2 2.2 0 0 0-2.184-2.184h-13.625v-30.42c0-1.456-1.144-2.184-2.288-2.184-.988 0-2.184.728-2.184 2.236v32.605c0 1.196 1.04 2.184 2.288 2.184h15.81c1.196 0 2.184-.988 2.184-2.236zm33.072-16.276c0-10.192-4.004-19.45-15.133-19.45-11.18 0-15.132 9.256-15.132 19.45 0 10.14 3.95 19.396 15.132 19.396 11.13 0 15.133-9.256 15.133-19.396zm29.483-16.38c0-1.352-1.195-2.132-2.34-2.132-.832 0-1.716.468-2.028 1.508l-8.996 26.365-8.944-26.365a2.17 2.17 0 0 0-2.08-1.508c-1.092 0-2.236.78-2.236 2.132 0 .208 0 .52.104.78l10.972 32.345c.416 1.092 1.248 1.768 2.185 1.768 1.04 0 1.872-.676 2.236-1.768l10.92-32.345c.156-.26.208-.572.208-.78zm8.162 12.793V279.41h19.45c1.404 0 2.184-1.144 2.184-2.236 0-1.196-.832-2.184-2.184-2.184h-21.633c-1.248 0-2.288.988-2.288 2.236v32.605c0 1.196 1.04 2.184 2.288 2.184h21.633c1.352 0 2.184-.988 2.184-2.184 0-1.144-.78-2.236-2.184-2.236h-19.45v-13.21h13.625c1.352 0 2.236-1.04 2.236-2.236s-.937-2.236-2.236-2.236H320.39zm52.885-12.74c0-1.456-1.092-2.184-2.288-2.184-1.092 0-2.184.728-2.184 2.236v25.117l-17.473-26.26c-.52-.78-1.145-1.092-1.872-1.092-1.145 0-2.288.78-2.288 2.236v32.605c0 1.404 1.092 2.184 2.184 2.184 1.196 0 2.288-.78 2.288-2.236v-25.17l17.473 26.26c.47.78 1.196 1.144 1.872 1.144 1.145 0 2.288-.832 2.288-2.236v-32.605zm11.96 30.42V279.41h.78c1.51 0 2.29-1.092 2.29-2.184 0-1.196-.78-2.236-2.29-2.236h-5.98c-1.404 0-2.185 1.04-2.185 2.236 0 1.092.78 2.184 2.185 2.184h.78v28.186h-.78c-1.404 0-2.185 1.04-2.185 2.236 0 1.092.78 2.184 2.185 2.184h5.98c1.51 0 2.29-1.092 2.29-2.184 0-1.196-.78-2.236-2.29-2.236h-.78zm36.037 2.236c0-.312-.053-.624-.156-.884l-13.417-32.5c-.52-1.352-1.664-1.612-2.132-1.612-.676 0-1.508.26-2.132 1.612l-13.364 32.5c-.156.26-.21.572-.21.884 0 1.3 1.196 2.184 2.34 2.184.728 0 1.508-.416 1.924-1.352l2.808-6.76h17.317l2.756 6.76c.416.936 1.196 1.352 1.976 1.352 1.196 0 2.29-.884 2.29-2.184zm168.98-30.448h-11.13v12.17H590.2c3.38 0 6.085-2.756 6.085-6.137 0-3.536-3.017-6.032-6.032-6.032zm-126.09 20.02h13.625l-6.812-16.537-6.812 16.537zm193.394-37.377v62.897H445.272V262.03h212.285zM486.68 309.807c0-.312-.052-.624-.155-.884l-13.417-32.5c-.52-1.352-1.664-1.612-2.132-1.612-.676 0-1.508.26-2.132 1.612l-13.365 32.5c-.155.26-.207.572-.207.884 0 1.3 1.195 2.184 2.34 2.184.728 0 1.508-.416 1.924-1.352l2.81-6.76h17.316l2.756 6.76c.416.936 1.196 1.352 1.977 1.352 1.195 0 2.287-.884 2.287-2.184zm27.914-32.657c0-1.456-1.04-2.184-2.236-2.184-1.145 0-2.184.728-2.184 2.236v22.673c0 4.784-3.9 8.632-8.633 8.632s-8.58-3.848-8.58-8.632V277.15c0-1.456-1.092-2.184-2.236-2.184s-2.236.728-2.236 2.184v22.725c0 7.332 5.93 13.052 13.053 13.052 7.332 0 13.053-5.928 13.053-13.052V277.15zm30.003 25.22c0-14.873-20.75-9.1-20.75-18.825 0-2.808 2.132-5.044 7.748-5.044 2.81 0 5.46.78 7.54 2.548.884.78 1.3 1.145 2.08 1.145 1.092 0 2.235-1.092 2.235-2.34 0-.468-.155-.936-.57-1.404-2.55-3.017-7.697-4.42-11.285-4.42-6.864 0-12.22 3.172-12.22 9.516 0 14.145 20.75 8.01 20.75 18.825 0 3.848-2.704 6.084-8.892 6.084-3.017 0-6.033-.832-8.58-2.756-.936-.73-1.196-.988-1.976-.988-1.248 0-2.236 1.04-2.236 2.236 0 .52.156 1.092.73 1.612 2.964 2.756 8.268 4.316 12.064 4.316 6.863 0 13.364-2.756 13.364-10.504zm26.937-25.22a2.17 2.17 0 0 0-2.236-2.184h-21.633a2.17 2.17 0 0 0-2.236 2.184c0 1.092.78 2.236 2.288 2.236h8.528v30.42c0 1.404 1.145 2.184 2.236 2.184 1.144 0 2.184-.78 2.184-2.184v-30.42h8.633c1.456 0 2.236-1.144 2.236-2.236zm19.654 18.773c5.46-.468 9.568-5.044 9.568-10.505 0-6.864-5.876-10.452-10.452-10.452h-13.47c-1.56 0-2.184 1.3-2.184 2.236v32.605c0 1.404 1.092 2.184 2.184 2.184 1.196 0 2.288-.78 2.288-2.236v-13.78h6.71l10.816 15.133c.468.624 1.144.936 1.716.936 1.196 0 2.392-.988 2.392-2.236 0-.468-.104-.884-.468-1.352l-9.1-12.532zm20.332 11.648v-28.186h.78c1.51 0 2.29-1.092 2.29-2.184 0-1.196-.78-2.236-2.29-2.236h-5.98c-1.404 0-2.185 1.04-2.185 2.236 0 1.092.78 2.184 2.185 2.184h.78v28.186h-.78c-1.404 0-2.185 1.04-2.185 2.236 0 1.092.78 2.184 2.185 2.184h5.98c1.51 0 2.29-1.092 2.29-2.184 0-1.196-.78-2.236-2.29-2.236h-.78zm36.037 2.236c0-.312-.053-.624-.156-.884l-13.417-32.5c-.52-1.352-1.664-1.612-2.132-1.612-.676 0-1.508.26-2.132 1.612l-13.364 32.5c-.156.26-.21.572-.21.884 0 1.3 1.196 2.184 2.34 2.184.728 0 1.508-.416 1.924-1.352l2.808-6.76h17.317l2.756 6.76c.416.936 1.196 1.352 1.976 1.352 1.196 0 2.29-.884 2.29-2.184zm-22.518-10.4h13.625l-6.812-16.537-6.812 16.537zm265.832-37.377v62.897H671.557V262.03h219.314zm-182.014 38.937c0-4.056-2.132-7.592-5.46-9.464 1.82-1.716 2.964-4.108 2.964-6.916 0-5.252-4.42-9.62-9.725-9.62H683.74c-1.248 0-2.184.988-2.184 2.236v32.605c0 1.092 1.092 2.184 2.288 2.184h13.988c6.032 0 11.024-4.992 11.024-11.024zm8.734-11.076v-10.505h19.45c1.404 0 2.184-1.144 2.184-2.236 0-1.196-.832-2.184-2.184-2.184H715.41c-1.248 0-2.288.988-2.288 2.236v32.605c0 1.196 1.04 2.184 2.288 2.184h21.633c1.352 0 2.184-.988 2.184-2.184 0-1.144-.78-2.236-2.184-2.236h-19.45v-13.21h13.625c1.352 0 2.236-1.04 2.236-2.236s-.937-2.236-2.236-2.236h-13.625zm47.06 19.864a2.2 2.2 0 0 0-2.184-2.184h-13.625v-30.42c0-1.456-1.144-2.184-2.288-2.184-.987 0-2.184.728-2.184 2.236v32.605c0 1.196 1.04 2.184 2.288 2.184h15.81c1.195 0 2.184-.988 2.184-2.236zm33.072-15.496c0-1.353-.936-2.288-2.288-2.288h-7.124c-1.404 0-2.185 1.092-2.185 2.236s.78 2.236 2.288 2.236h4.68c-.364 7.488-4.16 12.013-10.505 12.013-8.736 0-10.66-7.853-10.66-14.977 0-8.164 2.652-14.977 10.66-14.977 3.744 0 5.98 1.352 7.645 3.38.832.937.936 1.353 1.872 1.353 1.196 0 2.496-.988 2.496-2.236 0-.416-.156-.884-.468-1.3-2.86-4.004-6.812-5.668-11.545-5.668-11.18 0-15.133 9.413-15.133 19.45 0 9.776 3.692 19.396 15.133 19.396 11.024 0 14.925-8.892 15.133-18.616zm10.45 13.313v-28.186h.78c1.51 0 2.29-1.092 2.29-2.184 0-1.196-.78-2.236-2.29-2.236h-5.98c-1.404 0-2.185 1.04-2.185 2.236 0 1.092.78 2.184 2.185 2.184h.78v28.186h-.78c-1.404 0-2.185 1.04-2.185 2.236 0 1.092.78 2.184 2.185 2.184h5.98c1.51 0 2.29-1.092 2.29-2.184 0-1.196-.78-2.236-2.29-2.236h-.78zm33.384-30.42c0-1.456-1.04-2.184-2.236-2.184-1.144 0-2.185.728-2.185 2.236v22.673c0 4.784-3.9 8.632-8.632 8.632s-8.58-3.848-8.58-8.632V277.15c0-1.456-1.093-2.184-2.236-2.184s-2.236.728-2.236 2.184v22.725c0 7.332 5.93 13.052 13.053 13.052 7.332 0 13.053-5.928 13.053-13.052V277.15zm39.312.156c0-1.612-1.092-2.34-2.235-2.34-.884 0-1.51.26-2.028 1.3l-12.377 22.933-12.324-22.933c-.468-.936-1.092-1.3-1.872-1.3-1.196 0-2.392.624-2.392 2.34v32.5c0 1.456 1.092 2.236 2.184 2.236 1.196 0 2.288-.78 2.288-2.236V286l10.036 18.72c.73 1.3 1.82 1.404 2.08 1.404.416 0 1.404-.104 2.08-1.404l10.09-18.825v23.92c0 1.456 1.092 2.236 2.185 2.236 1.195 0 2.287-.78 2.287-2.236v-32.5zM697.834 294.3H686.03v13.26h11.805c3.536 0 6.552-3.068 6.552-6.604 0-3.64-3.016-6.656-6.552-6.656zm4.056-9.672c0-2.86-2.34-5.252-5.252-5.252H686.03V289.9h10.608c3.328 0 5.252-2.81 5.252-5.252zM482.427 826.992v62.846H132.96v-62.846h349.47zm-313.364 15.12c0-1.456-1.092-2.184-2.288-2.184-1.092 0-2.184.728-2.184 2.236v25.116l-17.473-26.26c-.52-.78-1.145-1.092-1.872-1.092-1.145 0-2.288.78-2.288 2.236v32.604c0 1.404 1.092 2.185 2.184 2.185 1.196 0 2.288-.78 2.288-2.236v-25.17l17.473 26.26c.468.78 1.196 1.145 1.872 1.145 1.145 0 2.288-.832 2.288-2.236v-32.605zm10.814 12.74V844.35h19.45c1.403 0 2.184-1.144 2.184-2.236 0-1.195-.832-2.184-2.184-2.184h-21.633c-1.248 0-2.288.988-2.288 2.236v32.604c0 1.196 1.04 2.185 2.288 2.185h21.633c1.352 0 2.184-.988 2.184-2.185 0-1.144-.78-2.235-2.184-2.235h-19.45v-13.21h13.625c1.352 0 2.235-1.04 2.235-2.236s-.936-2.235-2.235-2.235h-13.625zm49.608-12.74c0-1.04-.78-2.184-2.235-2.184h-21.633c-1.456 0-2.236 1.144-2.236 2.184 0 1.093.78 2.236 2.288 2.236h8.528v30.42c0 1.404 1.144 2.185 2.236 2.185 1.144 0 2.184-.78 2.184-2.185v-30.42h8.633c1.456 0 2.235-1.144 2.235-2.236zm29.224.053c0-1.51-1.144-2.236-2.288-2.236-.988 0-2.184.728-2.184 2.236v12.74h-17.16v-12.793c0-1.456-1.196-2.184-2.184-2.184-1.145 0-2.288.728-2.288 2.184v32.657c0 1.404 1.144 2.185 2.288 2.185.987 0 2.184-.78 2.184-2.185v-15.444h17.16v15.444c0 1.404 1.144 2.185 2.288 2.185.987 0 2.184-.78 2.184-2.236v-32.553zm10.815 12.688V844.35h19.45c1.404 0 2.184-1.144 2.184-2.236 0-1.195-.832-2.184-2.184-2.184H267.34c-1.248 0-2.288.988-2.288 2.236v32.604c0 1.196 1.04 2.185 2.288 2.185h21.633c1.352 0 2.184-.988 2.184-2.185 0-1.144-.78-2.235-2.184-2.235h-19.45v-13.21h13.625c1.352 0 2.236-1.04 2.236-2.236s-.937-2.235-2.236-2.235h-13.625zm43.315 6.032c5.46-.47 9.568-5.045 9.568-10.505 0-6.864-5.876-10.452-10.452-10.452h-13.47c-1.56 0-2.184 1.3-2.184 2.236v32.604c0 1.404 1.092 2.185 2.184 2.185 1.196 0 2.288-.78 2.288-2.236v-13.78h6.708L318.3 876.07c.47.624 1.145.936 1.717.936 1.195 0 2.392-.988 2.392-2.236 0-.468-.104-.884-.468-1.352l-9.1-12.532zm34.996 13.832a2.2 2.2 0 0 0-2.184-2.184h-13.625v-30.422c0-1.456-1.144-2.184-2.288-2.184-.988 0-2.184.728-2.184 2.236v32.604c0 1.196 1.04 2.185 2.288 2.185h15.81c1.196 0 2.184-.988 2.184-2.236zm32.136.052a2.44 2.44 0 0 0-.155-.884l-13.417-32.5c-.52-1.353-1.664-1.612-2.132-1.612-.676 0-1.508.26-2.132 1.612l-13.365 32.5c-.155.26-.207.572-.207.884 0 1.3 1.195 2.185 2.34 2.185.728 0 1.508-.416 1.924-1.353l2.81-6.76h17.316l2.756 6.76c.416.937 1.196 1.353 1.977 1.353 1.195 0 2.287-.884 2.287-2.185zm29.432-32.657c0-1.456-1.092-2.184-2.288-2.184-1.092 0-2.184.728-2.184 2.236v25.116l-17.473-26.26c-.52-.78-1.145-1.092-1.872-1.092-1.145 0-2.288.78-2.288 2.236v32.604c0 1.404 1.092 2.185 2.184 2.185 1.196 0 2.288-.78 2.288-2.236v-25.17l17.473 26.26c.47.78 1.196 1.145 1.872 1.145 1.145 0 2.288-.832 2.288-2.236v-32.605zm33.645 16.277c0-9.62-3.536-18.46-14.248-18.46h-10.765c-1.196 0-2.288 1.04-2.288 2.236v32.604c0 1.093 1.092 2.185 2.288 2.185H428.8c10.712 0 14.248-8.893 14.248-18.564zm29.38 8.944c0-14.873-20.75-9.1-20.75-18.825 0-2.808 2.132-5.044 7.748-5.044 2.81 0 5.46.78 7.54 2.548.885.78 1.3 1.145 2.08 1.145 1.093 0 2.236-1.093 2.236-2.34 0-.468-.156-.936-.572-1.403-2.548-3.017-7.695-4.42-11.284-4.42-6.864 0-12.22 3.173-12.22 9.517 0 14.145 20.748 8.01 20.748 18.825 0 3.848-2.704 6.084-8.893 6.084-3.016 0-6.03-.832-8.58-2.756-.936-.73-1.195-.988-1.976-.988-1.248 0-2.236 1.04-2.236 2.236 0 .52.156 1.092.728 1.61 2.965 2.757 8.27 4.316 12.064 4.316 6.865 0 13.365-2.756 13.365-10.504zm-114.972-2.965h13.625l-6.812-16.536-6.812 16.536zm71.345-20.02h-8.58v28.186h8.58c6.708 0 9.775-4.94 9.775-14.145 0-9.05-3.067-14.04-9.775-14.04zm-116.896 0h-11.13v12.17h11.077c3.38 0 6.084-2.757 6.084-6.137 0-3.536-3.017-6.032-6.032-6.032zm407.737 19.563h12.577l-6.288-15.265-6.29 15.265zm-42.047-18.48h-10.272v11.233h10.225c3.12 0 5.616-2.544 5.616-5.665 0-3.264-2.784-5.568-5.568-5.568zm107.902 0h-7.92v26.02h7.92c6.193 0 9.025-4.56 9.025-13.058 0-8.353-2.832-12.96-9.025-12.96zm23.153-16.944v59.86H496.427v-59.86H808.65zm-278.077 38.162c0-13.73-19.153-8.4-19.153-17.377 0-2.593 1.968-4.656 7.152-4.656 2.592 0 5.04.72 6.96 2.352.815.72 1.2 1.057 1.92 1.057 1.008 0 2.064-1.01 2.064-2.16 0-.433-.145-.864-.528-1.297-2.353-2.784-7.104-4.08-10.417-4.08-6.337 0-11.28 2.93-11.28 8.785 0 13.057 19.154 7.393 19.154 17.377 0 3.553-2.496 5.617-8.21 5.617-2.784 0-5.568-.77-7.92-2.545-.864-.672-1.104-.912-1.824-.912a2.08 2.08 0 0 0-2.064 2.064c0 .48.145 1.008.673 1.488 2.736 2.544 7.633 3.984 11.137 3.984 6.337 0 12.337-2.544 12.337-9.697zm38.45-23.426c0-1.2-1.056-1.968-2.112-1.968-.72 0-1.68.527-1.968 1.584l-6.05 22.897-6.337-22.706c-.336-1.15-1.008-1.68-2.063-1.68-1.01 0-1.68.528-2.017 1.68l-6.336 22.706-6.05-22.897c-.288-1.008-1.104-1.488-1.92-1.488-1.057 0-2.16.672-2.16 1.872 0 .24.048.48.096.672l7.92 29.955c.288 1.152.96 1.68 2.016 1.68 1.008 0 1.68-.527 2.017-1.68l6.433-22.994 6.48 22.994c.336 1.152 1.056 1.68 2.064 1.68 1.104 0 1.728-.527 1.968-1.68l7.92-29.955c.048-.19.096-.432.096-.672zm8.686 28.227v-26.02h.72c1.393 0 2.112-1.008 2.112-2.016 0-1.104-.72-2.064-2.112-2.064h-5.52c-1.296 0-2.016.96-2.016 2.064 0 1.008.72 2.016 2.016 2.016h.72v26.02h-.72c-1.296 0-2.016.96-2.016 2.064 0 1.008.72 2.016 2.016 2.016h5.52c1.393 0 2.112-1.008 2.112-2.016 0-1.104-.72-2.064-2.112-2.064h-.72zm28.08-28.082c0-.96-.72-2.017-2.064-2.017h-19.97c-1.344 0-2.064 1.056-2.064 2.017 0 1.008.72 2.063 2.112 2.063h7.873v28.083c0 1.296 1.056 2.016 2.064 2.016 1.056 0 2.016-.72 2.016-2.016V845.43h7.97c1.344 0 2.064-1.056 2.064-2.063zm24.863 30.146c0-1.104-.672-2.064-2.064-2.064H612.41l16.754-27.026c.192-.288.288-.672.288-1.008 0-1.104-.864-2.064-2.064-2.064h-17.665c-1.393 0-2.017.96-2.017 2.064 0 1.008.624 2.016 2.017 2.016h14.017l-16.705 26.93c-.24.336-.336.672-.336 1.104 0 1.008.768 2.063 2.064 2.063h19.873c1.345 0 2.017-1.008 2.017-2.016zm7.822-18.386v-9.697h17.953c1.296 0 2.017-1.056 2.017-2.063 0-1.104-.77-2.017-2.017-2.017h-19.97c-1.152 0-2.112.912-2.112 2.064v30.1c0 1.104.96 2.016 2.112 2.016h19.97c1.248 0 2.017-.912 2.017-2.016 0-1.057-.72-2.064-2.017-2.064h-17.953v-12.193h12.577c1.248 0 2.063-.96 2.063-2.063s-.864-2.064-2.063-2.064h-12.577zm39.984 5.568c5.04-.432 8.833-4.656 8.833-9.697 0-6.336-5.425-9.648-9.65-9.648H665.2c-1.44 0-2.017 1.2-2.017 2.064v30.1c0 1.296 1.01 2.016 2.017 2.016 1.104 0 2.112-.72 2.112-2.063v-12.722h6.192l9.984 13.97c.433.575 1.057.863 1.584.863 1.104 0 2.21-.912 2.21-2.063a1.88 1.88 0 0 0-.433-1.248l-8.4-11.57zm32.304 12.77a2.03 2.03 0 0 0-2.016-2.017H696.17v-28.082c0-1.345-1.057-2.017-2.112-2.017-.912 0-2.017.672-2.017 2.064v30.1c0 1.104.96 2.016 2.112 2.016h14.594c1.104 0 2.016-.912 2.016-2.063zm29.665.048a2.23 2.23 0 0 0-.145-.816L727.9 842.693c-.48-1.248-1.536-1.487-1.968-1.487-.625 0-1.393.24-1.97 1.487l-12.337 30.003c-.145.24-.192.528-.192.816 0 1.2 1.104 2.016 2.16 2.016.673 0 1.393-.384 1.776-1.248l2.593-6.24h15.985l2.544 6.24c.384.864 1.104 1.248 1.824 1.248 1.104 0 2.112-.815 2.112-2.016zm27.167-30.146c0-1.345-1.01-2.017-2.112-2.017-1.01 0-2.017.672-2.017 2.064V866.6l-16.13-24.242c-.48-.72-1.057-1.008-1.73-1.008-1.056 0-2.112.72-2.112 2.064v30.1c0 1.296 1.01 2.016 2.017 2.016 1.104 0 2.112-.72 2.112-2.063V850.23l16.13 24.242c.433.72 1.104 1.056 1.73 1.056 1.056 0 2.112-.768 2.112-2.063v-30.1zm31.056 15.024c0-8.88-3.264-17.04-13.153-17.04h-9.937c-1.104 0-2.112.96-2.112 2.064v30.1c0 1.008 1.008 2.016 2.112 2.016h9.937c9.9 0 13.153-8.208 13.153-17.138zm72.877 5.568h12.577l-6.29-15.265-6.288 15.265zm75.514-34.705v58.322H822.65v-58.322h124.39zm-107.574 42.242v-26.02h.72c1.393 0 2.112-1.008 2.112-2.016 0-1.104-.72-2.064-2.112-2.064h-5.52c-1.296 0-2.016.96-2.016 2.064 0 1.008.72 2.016 2.016 2.016h.72v26.02h-.72c-1.296 0-2.016.96-2.016 2.064 0 1.008.72 2.016 2.016 2.016h5.52c1.393 0 2.112-1.008 2.112-2.016 0-1.104-.72-2.064-2.112-2.064h-.72zm18.048-26.02h7.97c1.344 0 2.064-1.056 2.064-2.063 0-.96-.72-2.017-2.064-2.017h-19.97c-1.344 0-2.064 1.056-2.064 2.017 0 1.008.72 2.063 2.112 2.063h7.873v28.083c0 1.296 1.056 2.016 2.064 2.016 1.056 0 2.016-.72 2.016-2.016v-28.083zm34.8 28.083a2.23 2.23 0 0 0-.145-.816l-12.385-30.003c-.48-1.248-1.536-1.487-1.97-1.487-.624 0-1.392.24-1.968 1.487l-12.337 30.003c-.145.24-.192.528-.192.816 0 1.2 1.104 2.016 2.16 2.016.673 0 1.393-.384 1.776-1.248l2.593-6.24h15.985l2.544 6.24c.384.864 1.104 1.248 1.824 1.248 1.104 0 2.112-.815 2.112-2.016zm21.8-.048a2.03 2.03 0 0 0-2.016-2.017H899.51v-28.082c0-1.345-1.057-2.017-2.112-2.017-.912 0-2.017.672-2.017 2.064v30.1c0 1.104.96 2.016 2.112 2.016h14.594c1.104 0 2.016-.912 2.016-2.063zm22.938-30.1c0-1.152-1.056-2.017-2.16-2.017-.624 0-1.296.288-1.73 1.056l-8.017 14.786-7.92-14.786c-.432-.815-1.104-1.15-1.728-1.15-1.057 0-2.16.912-2.16 2.063a1.81 1.81 0 0 0 .288 1.009l9.505 17.76v11.426c0 1.344 1.008 2.016 2.016 2.016 1.104 0 2.112-.72 2.112-2.063v-11.378l9.505-17.713a1.71 1.71 0 0 0 .288-1.008zm-367.887 76.414c-4.025 0-6.195 2.836-6.195 9.102 0 6.23 2.17 9.065 6.195 9.065s6.195-2.835 6.195-9.065c0-6.266-2.17-9.102-6.195-9.102zm45.814.596h-6.51v6.195h6.476c1.715 0 3.115-1.365 3.115-3.08 0-1.75-1.365-3.115-3.08-3.115zm-66.533 9.59h-6.72v7.386h6.686c2.065 0 3.71-1.6 3.71-3.676s-1.6-3.7-3.676-3.7zm1.995-6.79a2.81 2.81 0 0 0-2.8-2.8h-5.916v5.6h5.916c1.54 0 2.8-1.226 2.8-2.8zm104.395-19.386v50.183h-229.65v-50.183h229.65zm-206 35.558c0-.9-.665-1.995-1.995-1.995h-7.666V918.43c0-1.296-1.085-1.96-1.995-1.96s-1.995.665-1.995 1.96v20.967a2.02 2.02 0 0 0 1.995 1.995h9.66c1.33 0 1.995-1.085 1.995-1.995zm19.845-20.967c0-1.296-.98-1.96-1.995-1.96-.98 0-1.995.665-1.995 1.96v14.806a4.78 4.78 0 0 1-4.796 4.796c-2.625 0-4.795-2.135-4.795-4.796V918.43c0-1.296-.98-1.96-1.96-1.96-1.016 0-2.03.665-2.03 1.96v14.806c0 4.936 4 8.786 8.785 8.786 4.936 0 8.786-4 8.786-8.786V918.43zm19.88 21.037c0-.35-.104-.7-.35-1.12l-6.266-10.047 5.53-8.785c.245-.35.35-.735.35-1.12 0-1.12-1.05-1.926-2.1-1.926-.63 0-1.2.2-1.6.9l-4.516 7.14-4.48-7.105c-.42-.7-1.015-.945-1.61-.945-1.05 0-2.1.806-2.1 1.926 0 .314.14.734.35 1.085l5.496 8.786-6.3 10.046c-.245.35-.315.77-.315 1.085 0 1.12 1.016 2.03 2.065 2.03.63 0 1.155-.28 1.6-.945l5.285-8.436 5.216 8.4c.455.665 1.085.945 1.68.945 1.05 0 2.064-.84 2.064-1.925zm6.09-13.44v-5.6h11.586c1.295 0 1.995-1.05 1.995-1.995 0-1.086-.84-1.96-1.995-1.96h-13.58c-1.085 0-1.995.9-1.995 1.96v20.967a2.02 2.02 0 0 0 1.995 1.995h13.58a1.97 1.97 0 1 0 0-3.99H494.64v-7.386h7.7c1.12 0 1.96-.875 1.96-1.995s-.84-1.995-1.96-1.995h-7.7zm38.816-7.386c0-1.506-.77-2.31-2.136-2.31-.63 0-1.19.314-1.75 1.33l-7.315 13.58-7.28-13.51c-.56-1.016-1.12-1.33-1.75-1.33-1.33 0-2.135.805-2.135 2.3v20.723c0 1.33 1.015 1.995 1.995 1.995 1.015 0 1.995-.665 1.995-1.995V926.34l5.25 9.73c.455.945 1.015 1.4 1.925 1.4.77 0 1.4-.385 1.96-1.4l5.25-9.767v13.127c0 1.33.98 1.995 1.995 1.995.98 0 1.995-.665 1.995-1.995V918.64zm22.646 15.05c0-2.555-1.26-4.795-3.22-6.195.98-1.226 1.54-2.66 1.54-4.27 0-3.7-3.08-6.756-6.8-6.756h-7.91c-1.085 0-1.995.9-1.995 1.96v20.967a2.02 2.02 0 0 0 1.995 1.995h8.716c4.27 0 7.666-3.43 7.666-7.7zm23.238-4.76c0-6.86-2.694-13.092-10.186-13.092-7.525 0-10.187 6.23-10.187 13.092 0 6.825 2.66 13.056 10.187 13.056 7.49 0 10.186-6.23 10.186-13.056zm21.035-10.5c0-1.296-.98-1.96-1.995-1.96-.98 0-1.995.665-1.995 1.96v14.806a4.78 4.78 0 0 1-4.795 4.796c-2.626 0-4.796-2.135-4.796-4.796V918.43c0-1.296-.98-1.96-1.96-1.96-1.016 0-2.03.665-2.03 1.96v14.806c0 4.936 4 8.786 8.786 8.786 4.935 0 8.785-4 8.785-8.786V918.43zm15.68 12.1c3.5-.63 5.985-3.465 5.985-7.035 0-3.886-3.15-7.036-7.105-7.036h-8.47c-1.085 0-1.995.9-1.995 1.96v20.967c0 1.33 1.015 1.995 1.995 1.995 1.015 0 1.995-.665 1.995-1.995v-8.786h2.73l7.176 9.94a1.96 1.96 0 0 0 1.61.84c1.05 0 2.03-.875 2.03-1.995 0-.385-.14-.805-.42-1.2l-5.53-7.666zm28.77-.805c0-1.12-.77-1.82-1.926-1.82h-4.34c-1.295 0-1.995 1.016-1.995 2.03 0 .945.734 1.995 2.064 1.995h2.065c-.63 4.025-2.625 6.056-5.985 6.056-5.18 0-6.195-4.76-6.195-9.065 0-4.13.9-9.102 6.195-9.102 2.346 0 3.676.875 4.55 2.136.385.56.9.84 1.54.84 1.085 0 2.1-.9 2.1-1.995 0-.385-.14-.77-.42-1.155-1.854-2.695-4.585-3.815-7.77-3.815-7.456 0-10.187 6.23-10.187 13.092 0 6.545 2.45 13.056 10.257 13.056 7.105 0 10.046-5.635 10.046-11.97v-.28zm-109.81-728.047v44.25H382.323v-44.25h152.693zM407.862 223.86c0-5.828-2.143-11.184-8.632-11.184h-6.112c-.976 0-1.796.82-1.796 1.765v18.87c0 .976.82 1.796 1.796 1.796h6.112c6.49 0 8.632-5.387 8.632-11.246zm6.897-2.583v-5.04h10.427c1.165 0 1.796-.946 1.796-1.796 0-.977-.756-1.765-1.796-1.765h-12.223c-.976 0-1.796.82-1.796 1.765v18.87c0 .976.82 1.796 1.796 1.796h12.223c1.008 0 1.796-.788 1.796-1.796s-.788-1.796-1.796-1.796H414.76v-6.647h6.93c1.008 0 1.764-.788 1.764-1.796s-.756-1.796-1.764-1.796h-6.93zm30.618-6.836c0-1.166-.913-1.765-1.796-1.765-.913 0-1.796.6-1.796 1.765v12.8l-8.884-13.704a1.61 1.61 0 0 0-1.512-.851c-.882 0-1.827.662-1.827 1.765v18.87c0 1.197.913 1.796 1.796 1.796.913 0 1.796-.6 1.796-1.796v-12.79l8.884 13.704c.378.6.913.882 1.512.882.882 0 1.827-.693 1.827-1.796v-18.87zm23.972.19c0-1.355-.693-2.08-1.922-2.08-.567 0-1.07.283-1.575 1.197l-6.584 12.223-6.553-12.16c-.504-.914-1.008-1.197-1.575-1.197-1.197 0-1.92.724-1.92 2.08v18.65c0 1.197.913 1.796 1.796 1.796.913 0 1.796-.6 1.796-1.796V221.56l4.726 8.758c.41.85.913 1.26 1.732 1.26.693 0 1.26-.346 1.764-1.26l4.726-8.8v11.814c0 1.197.882 1.796 1.796 1.796.882 0 1.796-.6 1.796-1.796V214.63zm21.23 18.744c0-.252-.063-.504-.2-.757l-7.686-18.713c-.38-.945-1.008-1.418-1.796-1.418s-1.387.473-1.796 1.418l-7.686 18.682c-.095.25-.127.504-.127.724 0 1.04.976 1.796 1.86 1.796.662 0 1.26-.346 1.575-1.134l1.386-3.308h9.61l1.354 3.34c.346.788.945 1.135 1.607 1.135.913 0 1.89-.756 1.89-1.764zm12.284-8.034c3.15-.567 5.387-3.118 5.387-6.332 0-3.497-2.835-6.333-6.395-6.333h-7.624c-.976 0-1.796.82-1.796 1.765v18.87c0 1.197.913 1.796 1.796 1.796.913 0 1.796-.6 1.796-1.796v-7.908h2.457l6.458 8.947c.378.535.945.756 1.45.756.945 0 1.827-.788 1.827-1.796 0-.346-.127-.724-.38-1.07l-4.977-6.9zm23.152 8.002c0-.284-.094-.567-.22-.85l-5.356-11.058 4.63-5.796c.316-.38.44-.788.44-1.135 0-1.008-.945-1.827-1.9-1.827-.504 0-.913.19-1.323.693l-7.687 9.577v-8.505c0-1.166-.976-1.765-1.796-1.765s-1.796.6-1.796 1.765v18.87c0 1.197.976 1.796 1.796 1.796s1.796-.6 1.796-1.796v-4.663l3.308-4.126 4.63 9.545c.378.725.976 1.04 1.575 1.04.945 0 1.9-.756 1.9-1.764zm-48.415-6.27h6.616l-3.307-8.065-3.308 8.065zm24.287-10.837h-5.86v5.576h5.828c1.543 0 2.804-1.23 2.804-2.772 0-1.576-1.23-2.804-2.772-2.804zm-102.657 0h-4.316v15.28h4.316c3.307 0 5.04-2.268 5.04-7.624s-1.733-7.655-5.04-7.655zm237.17-1.77h-4.796v16.977h4.796c3.675 0 5.6-2.52 5.6-8.47s-1.926-8.506-5.6-8.506zm61.275-16.586v50.147h-148.66v-50.147h148.66zm-121.02 30.797c0-9.836-13.126-6.615-13.126-12.11 0-1.26.77-2.695 4.235-2.695 1.75 0 3.36.386 4.76 1.506.455.35.875.56 1.365.56 1.05 0 2.03-.945 2.03-1.995 0-2.73-5.6-4.06-8.156-4.06-4.7 0-8.226 2.415-8.226 6.686 0 9.45 13.126 5.846 13.126 12.11 0 2.136-1.225 3.36-5.005 3.36-2.38 0-4.236-.9-5.18-1.645-.63-.455-.84-.596-1.4-.596-1.085 0-2.065.98-2.065 2.03 0 .5.2 1.016.7 1.436 2.03 1.82 5.39 2.765 7.946 2.765 4.515 0 8.995-1.75 8.995-7.35zm28.105-16.312c0-1.155-1.015-1.855-2.064-1.855-.806 0-1.6.42-1.855 1.47l-3.64 14.142-4.096-13.722c-.35-1.155-.98-1.716-1.995-1.716-.98 0-1.6.56-1.995 1.716l-4.06 13.722-3.64-14.142c-.245-1.05-1.05-1.54-1.855-1.54-1.05 0-2.065.734-2.065 1.96 0 .175.035.35.07.56l5.39 20.862c.314 1.226.944 1.82 1.96 1.82.98 0 1.68-.5 2.03-1.715l4.165-14.212 4.2 14.212c.314 1.12 1.015 1.715 1.96 1.715 1.05 0 1.75-.56 2.065-1.82l5.355-20.862c.034-.2.07-.385.07-.595zm6.403 7.7v-5.6h11.586c1.295 0 1.995-1.05 1.995-1.995 0-1.086-.84-1.96-1.995-1.96h-13.58c-1.085 0-1.995.9-1.995 1.96v20.967a2.02 2.02 0 0 0 1.995 1.995h13.58a1.97 1.97 0 1 0 0-3.99h-11.586v-7.386h7.7c1.12 0 1.96-.875 1.96-1.995s-.84-1.995-1.96-1.995h-7.7zm34.826 2.87c0-6.476-2.38-12.427-9.59-12.427h-6.79c-1.085 0-1.995.9-1.995 1.96v20.967a2.02 2.02 0 0 0 1.995 1.995h6.79c7.2 0 9.59-5.985 9.59-12.496zm7.663-2.87v-5.6h11.586c1.295 0 1.995-1.05 1.995-1.995 0-1.086-.84-1.96-1.995-1.96h-13.58c-1.085 0-1.995.9-1.995 1.96v20.967a2.02 2.02 0 0 0 1.995 1.995h13.58a1.97 1.97 0 1 0 0-3.99h-11.586v-7.386h7.7c1.12 0 1.96-.875 1.96-1.995s-.84-1.995-1.96-1.995h-7.7zm34.02-7.596c0-1.296-1.015-1.96-1.995-1.96-1.015 0-1.995.665-1.995 1.96v14.21l-9.87-15.227a1.79 1.79 0 0 0-1.68-.945c-.98 0-2.03.735-2.03 1.96v20.967c0 1.33 1.015 1.995 1.995 1.995 1.015 0 1.995-.665 1.995-1.995v-14.212l9.87 15.227c.42.665 1.015.98 1.68.98.98 0 2.03-.77 2.03-1.995v-20.967z" fill="url(#B)"/><path d="M98.753 813.536c-6.687 0-7.296-6.848-7.296-11.936 0-5.983 1.28-11.967 7.296-11.967 2.688 0 4.607 1.184 5.92 3.2.16.16.192.353.192.544 0 .448-.48.864-.96.864-.256 0-.512-.096-.736-.416-1.023-1.472-2.367-2.368-4.415-2.368-4.032 0-5.472 3.84-5.472 10.1v.544c1.312-1.695 3.392-2.72 5.472-2.72 3.84 0 6.88 3.328 6.88 7.072s-3.04 7.07-6.88 7.07zm0-12.32c-2.496 0-5.12 2.176-5.12 5.44.576 2.688 1.856 5.056 5.12 5.056 2.75 0 5.023-2.4 5.023-5.247s-2.272-5.248-5.023-5.248zm23.262 7.52h-2.08v3.36c0 .576-.48.896-.93.896-.416 0-.896-.32-.896-.896v-3.36h-8.607c-.64 0-.96-.353-.96-.8 0-.16.032-.384.16-.576l9.023-17.215a.93.93 0 0 1 .832-.512c.447 0 .928.384.928.896 0 .128-.032.288-.128.48l-8.32 15.902h7.07v-4.127c0-.64.48-.96.896-.96.448 0 .93.32.93.928v4.16h2.08c.576 0 .896.448.896.896s-.32.928-.896.928zm4.667-12.136c-1.624 0-2.95-1.475-2.95-3.284s1.325-3.267 2.95-3.267c1.604 0 2.93 1.456 2.93 3.267s-1.325 3.284-2.93 3.284zm0-5.506c-.934 0-1.885.878-1.885 2.222s.95 2.22 1.885 2.22 1.866-.878 1.866-2.22-.934-2.222-1.866-2.222zm7.054-.7l-3.564 12.877c-.093.26-.242.392-.467.392-.28 0-.578-.224-.578-.54 0-.056 0-.112.02-.15l3.564-12.876c.094-.28.262-.4.485-.4a.59.59 0 0 1 .56.561c0 .037 0 .074-.02.148zm2.314 12.933c-1.605 0-2.93-1.474-2.93-3.284 0-1.792 1.325-3.266 2.93-3.266 1.623 0 2.948 1.474 2.948 3.266 0 1.8-1.325 3.284-2.948 3.284zm0-5.486c-.934 0-1.866.877-1.866 2.202 0 1.344.933 2.22 1.866 2.22.95 0 1.885-.877 1.885-2.22 0-1.325-.934-2.202-1.885-2.202z" class="H I"/><path d="M81.272 890.158c-2.144 0-4.575-1.152-5.76-3.04-.128-.192-.16-.353-.16-.513 0-.512.48-.928.96-.928s.512.256 1 .77c1.024 1.216 2.368 1.888 3.968 1.888 2.816 0 5.344-2.432 5.344-5.8 0-3.393-2.527-5.824-5.344-5.824-2.208 0-3.647 1.408-4.224 2.27-.2.32-.48.448-.864.448-.544 0-.928-.353-.928-.96v-10.53c0-.543.416-.896.896-.896h10.7c.64 0 .96.448.96.896s-.32.896-.96.896h-9.76v7.487c1.023-.832 2.4-1.44 4.2-1.44 3.936 0 7.168 3.328 7.168 7.648 0 4.256-3.232 7.615-7.168 7.615zm23.295-21.888l-8.095 21c-.192.416-.48.608-.8.608-.447 0-.96-.384-.96-.93 0-.127.032-.224.064-.352l7.583-19.742H92.28c-.48 0-.928-.416-.928-.896s.448-.896.928-.896h11.424c.575 0 .96.32.96.8a.98.98 0 0 1-.097.416zm5.115 5.175c-1.624 0-2.95-1.475-2.95-3.284s1.325-3.267 2.95-3.267c1.604 0 2.93 1.456 2.93 3.267s-1.325 3.284-2.93 3.284zm0-5.506c-.934 0-1.885.878-1.885 2.222s.95 2.22 1.885 2.22 1.866-.878 1.866-2.22-.934-2.222-1.866-2.222zm7.054-.7l-3.564 12.876c-.093.26-.242.392-.467.392-.28 0-.578-.224-.578-.54 0-.056 0-.1.02-.148l3.564-12.877c.094-.28.262-.4.485-.4a.59.59 0 0 1 .56.56c0 .037 0 .075-.02.15zm2.314 12.932c-1.605 0-2.93-1.474-2.93-3.283 0-1.793 1.325-3.267 2.93-3.267 1.623 0 2.948 1.474 2.948 3.267 0 1.8-1.325 3.283-2.948 3.283zm0-5.486c-.934 0-1.866.877-1.866 2.203 0 1.343.933 2.22 1.866 2.22.95 0 1.885-.878 1.885-2.22 0-1.326-.934-2.203-1.885-2.203z" class="H I"/><g class="H I"><use xlink:href="#O"/><use xlink:href="#P"/><use xlink:href="#Q"/></g><g class="H I"><path d="M530.827 983.616h-2.08v3.36c0 .576-.48.896-.93.896-.416 0-.896-.32-.896-.896v-3.36h-8.607c-.64 0-.96-.352-.96-.8a1.05 1.05 0 0 1 .16-.575l9.023-17.215a.93.93 0 0 1 .832-.513c.447 0 .928.385.928.896 0 .128-.032.288-.128.48l-8.32 15.903h7.07v-4.128c0-.64.48-.96.896-.96.448 0 .93.32.93.928v4.16h2.08c.576 0 .896.448.896.896s-.32.928-.896.928zm9.313 4.8c-3.744 0-6.848-3.04-6.848-6.815 0-2.624 1.376-4.863 3.52-6.016-1.632-1.056-2.687-2.88-2.687-5.056a6.03 6.03 0 0 1 6.016-6.016 6.03 6.03 0 0 1 6.016 6.016c0 2.176-1.088 4-2.72 5.056 2.144 1.152 3.52 3.392 3.52 5.983 0 3.744-3.008 6.848-6.815 6.848zm0-11.84c-2.72 0-5.023 2.208-5.023 5 0 2.752 2.24 5.024 5 5.024 2.784 0 5.024-2.272 5.024-4.992 0-2.783-2.208-5.023-4.992-5.023zm0-10.24c-2.336 0-4.2 1.888-4.2 4.2s1.855 4.224 4.2 4.224c2.304 0 4.2-1.888 4.2-4.224a4.21 4.21 0 0 0-4.191-4.191z"/><use xlink:href="#R"/></g><g class="H I"><use xlink:href="#S"/><use xlink:href="#O" x="-175.132" y="60.557"/><use xlink:href="#Q" x="-193.947" y="60.56"/></g><g class="H I"><use xlink:href="#P" x="-244.922" y="136.644"/><path d="M117.756 361.718c-.48 0-.896-.352-.896-.896v-19.135l-3.487 3.392a.79.79 0 0 1-.608.288c-.512 0-.96-.48-.96-.992 0-.192.128-.416.288-.608l5.056-4.896c.256-.192.512-.256.607-.256.673 0 .93.48.93 1.12v21.086c0 .544-.385.896-.93.896z"/><use xlink:href="#Q" x="-234.683" y="136.645"/></g><g class="H I"><path d="M947.96 363.038c-2.144 0-4.575-1.152-5.76-3.04-.128-.192-.16-.352-.16-.512 0-.512.48-.928.96-.928s.512.256 1 .768c1.024 1.216 2.368 1.888 3.968 1.888 2.816 0 5.344-2.432 5.344-5.792 0-3.392-2.527-5.824-5.344-5.824-2.208 0-3.647 1.408-4.224 2.272-.2.32-.48.448-.864.448-.544 0-.928-.352-.928-.96V340.83c0-.544.416-.896.896-.896h10.687c.64 0 .96.448.96.896s-.32.896-.96.896h-9.76v7.488c1.023-.832 2.4-1.44 4.2-1.44 3.936 0 7.168 3.328 7.168 7.647 0 4.256-3.232 7.615-7.168 7.615zm17.216.224c-3.743 0-6.848-3.04-6.848-6.815 0-2.624 1.376-4.864 3.52-6.016-1.632-1.056-2.687-2.88-2.687-5.056a6.03 6.03 0 0 1 6.016-6.016 6.03 6.03 0 0 1 6.016 6.016c0 2.176-1.088 4-2.72 5.056 2.144 1.152 3.52 3.392 3.52 5.983 0 3.744-3.008 6.848-6.815 6.848zm0-11.84c-2.72 0-5.023 2.208-5.023 4.992 0 2.752 2.24 5.024 5 5.024 2.784 0 5.024-2.272 5.024-4.992 0-2.784-2.208-5.024-4.992-5.024zm0-10.24c-2.336 0-4.2 1.888-4.2 4.192s1.855 4.224 4.2 4.224c2.304 0 4.2-1.888 4.2-4.224a4.21 4.21 0 0 0-4.191-4.192z"/><use xlink:href="#Q" x="616.448" y="137.645"/></g><g class="H I"><path d="M947.96 809.24c-2.144 0-4.575-1.152-5.76-3.04a.86.86 0 0 1-.159-.512c0-.512.48-.928.96-.928s.512.256 1 .768c1.024 1.216 2.368 1.888 3.968 1.888 2.816 0 5.344-2.432 5.344-5.8 0-3.392-2.527-5.824-5.344-5.824-2.208 0-3.647 1.408-4.224 2.272-.2.32-.48.447-.864.447-.544 0-.928-.352-.928-.96v-10.526c0-.544.416-.896.896-.896h10.687c.64 0 .96.448.96.896s-.32.896-.96.896h-9.76v7.487c1.023-.832 2.4-1.44 4.2-1.44 3.936 0 7.168 3.327 7.168 7.647 0 4.256-3.232 7.615-7.168 7.615zm17.887.225c-2.687 0-4.607-1.15-5.92-3.168-.16-.2-.192-.352-.192-.544 0-.48.48-.896.96-.896.256 0 .512.128.736.416 1.023 1.504 2.367 2.368 4.415 2.368 4.032 0 5.472-3.84 5.472-10.1v-.544c-1.344 1.728-3.392 2.752-5.472 2.752-3.84 0-6.88-3.328-6.88-7.072 0-3.775 3.04-7.104 6.88-7.104 6.688 0 7.296 6.88 7.296 11.936 0 5.983-1.28 11.967-7.296 11.967zm0-22.078c-2.752 0-5.023 2.432-5.023 5.28 0 2.816 2.27 5.248 5.023 5.248 2.496 0 5.12-2.208 5.12-5.44-.576-2.72-1.856-5.088-5.12-5.088z"/><use xlink:href="#R" x="427.883" y="-178.952"/></g><g class="H I"><path d="M964.96 887.896c-2.144 0-4.575-1.152-5.76-3.04a.86.86 0 0 1-.159-.512c0-.512.48-.928.96-.928s.512.256 1 .768c1.024 1.216 2.368 1.888 3.968 1.888 2.816 0 5.344-2.432 5.344-5.8 0-3.392-2.527-5.824-5.344-5.824-2.208 0-3.647 1.408-4.224 2.272-.2.32-.48.447-.864.447-.544 0-.928-.352-.928-.96V865.7c0-.544.416-.896.896-.896h10.687c.64 0 .96.448.96.896s-.32.896-.96.896h-9.76v7.487c1.023-.832 2.4-1.44 4.2-1.44 3.936 0 7.168 3.327 7.168 7.647 0 4.256-3.232 7.615-7.168 7.615zm16.32.224c-2.496 0-4.608-1.312-5.824-3.23a1.2 1.2 0 0 1-.128-.512c0-.513.48-.96.928-.96.288 0 .544.16.736.48.896 1.44 2.496 2.4 4.288 2.4 2.75 0 5.023-2.272 5.023-4.992 0-2.783-2.24-5.023-4.992-5.023h-.03a.93.93 0 0 1-.93-.928c0-.544.448-.896.93-.896h.03c2.272 0 4.192-1.888 4.192-4.224a4.23 4.23 0 0 0-4.192-4.191c-3.487 0-3.936 3.328-5.215 3.328-.48 0-.96-.385-.96-.896 0-.704 2.432-4.256 6.175-4.256 3.296 0 6.016 2.72 6.016 6.016a5.9 5.9 0 0 1-2.752 5.056c2.177 1.152 3.552 3.392 3.552 5.983 0 3.744-3.04 6.848-6.847 6.848z"/><use xlink:href="#R" x="441.33" y="-100.296"/></g><g class="H I"><use xlink:href="#S" x="769.197"/><path d="M931.08 281.375H929v3.36c0 .576-.48.896-.93.896-.416 0-.896-.32-.896-.896v-3.36h-8.607c-.64 0-.96-.352-.96-.8 0-.16.032-.384.16-.576l9.023-17.215c.19-.352.512-.512.832-.512.447 0 .928.384.928.896 0 .128-.032.288-.128.48l-8.32 15.903h7.07v-4.127c0-.64.48-.96.896-.96.448 0 .93.32.93.928v4.16h2.08c.576 0 .896.448.896.896s-.32.928-.896.928z"/><use xlink:href="#Q" x="575.248" y="60.56"/></g><g class="H I"><use xlink:href="#O" x="384.221" y="-4.118"/><path d="M730.55 221.5c-3.744 0-6.848-3.04-6.848-6.815 0-2.624 1.376-4.864 3.52-6.016-1.632-1.056-2.687-2.88-2.687-5.056a6.03 6.03 0 0 1 6.016-6.016 6.03 6.03 0 0 1 6.016 6.016c0 2.176-1.088 4-2.72 5.056 2.144 1.152 3.52 3.392 3.52 5.983 0 3.744-3.008 6.848-6.815 6.848zm0-11.84c-2.72 0-5.023 2.208-5.023 4.992 0 2.752 2.24 5.024 4.99 5.024 2.784 0 5.024-2.272 5.024-4.992 0-2.784-2.208-5.024-4.992-5.024zm0-10.24c-2.336 0-4.19 1.888-4.19 4.192s1.855 4.224 4.19 4.224c2.304 0 4.19-1.888 4.19-4.224a4.21 4.21 0 0 0-4.191-4.192z"/><use xlink:href="#Q" x="381.183" y="-4.117"/></g><g opacity=".4" fill="#13787a"><use xlink:href="#T"/><use xlink:href="#T" x="18.643"/><path d="M1023.147 674.508c-1.727 0-3.135-1.566-3.135-3.49s1.408-3.47 3.135-3.47c1.706 0 3.114 1.547 3.114 3.47s-1.408 3.49-3.114 3.49zm0-5.852c-.992 0-2.004.933-2.004 2.36s1.012 2.36 2.004 2.36 1.983-.933 1.983-2.36-.992-2.36-1.983-2.36zm7.498-.733l-3.79 13.687c-.1.278-.258.417-.496.417-.297 0-.614-.238-.614-.575 0-.06 0-.12.02-.16l3.79-13.687c.1-.298.277-.437.516-.437.277 0 .595.258.595.595 0 .04 0 .08-.02.16zm2.46 13.746c-1.706 0-3.115-1.566-3.115-3.49 0-1.904 1.41-3.47 3.115-3.47 1.726 0 3.134 1.566 3.134 3.47 0 1.925-1.408 3.49-3.134 3.49zm0-5.832c-.992 0-1.984.933-1.984 2.34 0 1.43.992 2.36 1.984 2.36 1.01 0 2.003-.932 2.003-2.36 0-1.408-.992-2.34-2.003-2.34z"/></g><g class="H"><path d="M179.892 42.382h-9.96v35.1c0 1.62-1.2 2.52-2.52 2.52-1.26 0-2.58-.9-2.58-2.52v-35.1h-9.84c-1.74 0-2.64-1.32-2.64-2.58 0-1.2.9-2.52 2.58-2.52h24.96c1.68 0 2.58 1.32 2.58 2.52 0 1.26-.9 2.58-2.58 2.58z"/><use xlink:href="#U"/><use xlink:href="#V"/><use xlink:href="#W"/><use xlink:href="#V" x="58.858"/><use xlink:href="#X"/><path d="M369.67 81.02c-9.66 0-15.06-7.92-15.06-16.98 0-9 5.4-16.92 15.06-16.92s15.06 7.92 15.06 16.92c0 9.06-5.4 16.98-15.06 16.98zm0-28.8c-6 0-9.9 4.68-9.9 11.82 0 7.2 3.9 11.88 9.9 11.88 6.06 0 9.9-4.68 9.9-11.88 0-7.14-3.84-11.82-9.9-11.82z"/><use xlink:href="#Y"/><use xlink:href="#Z"/><use xlink:href="#a"/><use xlink:href="#b"/><use xlink:href="#c"/><use xlink:href="#V" x="282.234"/><use xlink:href="#W" x="282.234"/><path d="M601.385 80c-.9 0-1.8-.48-2.28-1.56l-3.18-7.8h-19.98l-3.24 7.8c-.48 1.08-1.38 1.56-2.22 1.56-1.32 0-2.7-1.02-2.7-2.52 0-.36.06-.72.24-1.02l15.42-37.498c.72-1.56 1.68-1.86 2.46-1.86.54 0 1.86.3 2.46 1.86l15.48 37.498c.12.3.18.66.18 1.02 0 1.5-1.26 2.52-2.64 2.52zm-15.48-33.6l-7.86 19.08h15.72l-7.86-19.08z"/><use xlink:href="#b" x="135.657"/><use xlink:href="#V" x="404.86"/><use xlink:href="#X" x="346"/><use xlink:href="#b" x="230.983"/><use xlink:href="#Y" x="329.922"/><use xlink:href="#W" x="501.758"/><use xlink:href="#U" x="593.558"/><use xlink:href="#c" x="322.962"/><use xlink:href="#Z" x="400.601"/><path d="M869.628 93.68c-3.66 0-12.72-1.32-12.72-4.92 0-1.38 1.26-2.7 2.58-2.7 1.38 0 .18.18 3.36 1.38 1.44.54 3.6 1.14 6.78 1.14 6.66 0 9.9-3.18 9.9-9.48v-2.7c-2.34 2.22-5.7 3.6-9.9 3.6-9.48 0-15.06-6.72-15.06-15.96 0-9 5.4-16.92 15.06-16.92 4.2 0 7.44 1.26 9.9 3.84v-.24c0-1.68 1.38-2.58 2.58-2.58 1.26 0 2.58.9 2.58 2.58V79.1c0 9.54-5.7 14.58-15.06 14.58zm0-41.458c-6 0-9.9 4.68-9.9 11.82 0 6.84 3.6 10.86 9.9 10.86s9.9-4.02 9.9-10.86c0-7.14-3.84-11.82-9.9-11.82z"/><use xlink:href="#c" x="414.7"/><use xlink:href="#a" x="459.4"/><path d="M418.925 141.2c-3.3 0-4.8-2.34-5.34-3.42-2.4 2.64-5.88 4.44-10.56 4.44-9.78 0-15.06-8.04-15.06-16.98s5.4-16.92 15.06-16.92c4.2 0 7.56 1.5 9.9 3.96v-.24c0-.66.24-2.7 2.52-2.7 1.26 0 2.64.66 2.64 2.52v23.16c0 .78.54 1.08.84 1.08 1.68 0 2.58 1.2 2.58 2.58 0 1.26-.9 2.52-2.58 2.52zm-15.9-27.78c-6 0-9.9 4.68-9.9 11.82 0 7.2 3.9 11.88 9.9 11.88 6.06 0 9.9-4.68 9.9-11.88 0-7.14-3.84-11.82-9.9-11.82z"/><use xlink:href="#a" x="-30.663" y="61.2"/><path d="M480.003 141.26c-.66 0-1.44-.36-1.98-1.08l-12.48-17.46h-7.74v15.9c0 1.68-1.26 2.58-2.64 2.58-1.26 0-2.52-.9-2.52-2.52v-37.618c0-1.08.72-2.58 2.52-2.58h15.54c5.28 0 12.06 4.14 12.06 12.06 0 6.3-4.74 11.58-11.04 12.12l10.5 14.46c.42.54.54 1.02.54 1.56 0 1.44-1.38 2.58-2.76 2.58zm-9.36-37.68h-12.84v14.04h12.78c3.9 0 7.02-3.18 7.02-7.08 0-4.08-3.48-6.96-6.96-6.96z"/><use xlink:href="#V" x="269.69" y="61.2"/><use xlink:href="#d"/><path d="M575.462 112.942l-16.2 36.838c-1.2 2.76-3.84 4.02-6.6 4.02h-1.92c-1.74 0-2.52-1.26-2.52-2.64 0-1.26.78-2.52 2.52-2.52h1.86c.78 0 1.62-.12 1.98-.96l3.96-8.88-11.7-25.86a2.16 2.16 0 0 1-.3-1.14c0-1.5 1.44-2.52 2.76-2.52.9 0 1.68.48 2.16 1.56l9.78 21.72 9.54-21.72c.48-1.08 1.38-1.5 2.22-1.5 1.38 0 2.76 1.02 2.76 2.46a2.04 2.04 0 0 1-.3 1.14z"/><use xlink:href="#d" x="56.995"/><path d="M612.116 141.32c-3.24 0-6-2.76-6-6.12v-34.138c0-1.74 1.26-2.58 2.58-2.58s2.58.84 2.58 2.52V135.2c0 .72.54 1.02.84 1.02 1.68 0 2.58 1.2 2.58 2.58 0 1.32-.9 2.52-2.58 2.52z"/><use xlink:href="#c" x="129.347" y="61.2"/><path d="M654.174 141.2c-1.32 0-2.52-.9-2.52-2.52V122c0-4.68-3.9-8.58-8.58-8.58-4.62 0-8.52 3.9-8.52 8.58v16.62c0 1.68-1.26 2.64-2.64 2.64-1.26 0-2.52-.9-2.52-2.58v-26.82c0-1.74 1.26-2.52 2.52-2.52 1.2 0 2.28.66 2.58 1.98 2.34-1.86 5.28-3 8.58-3 7.44 0 13.68 6.18 13.68 13.68v16.62c0 1.68-1.2 2.58-2.58 2.58zm21.84 13.68c-3.66 0-12.72-1.32-12.72-4.92 0-1.38 1.26-2.7 2.58-2.7 1.38 0 .18.18 3.36 1.38 1.44.54 3.6 1.14 6.78 1.14 6.66 0 9.9-3.18 9.9-9.48v-2.7c-2.34 2.22-5.7 3.6-9.9 3.6-9.48 0-15.06-6.72-15.06-15.96 0-9 5.4-16.92 15.06-16.92 4.2 0 7.44 1.26 9.9 3.84v-.24c0-1.68 1.38-2.58 2.58-2.58 1.26 0 2.58.9 2.58 2.58v28.38c0 9.54-5.7 14.58-15.06 14.58zm0-41.458c-6 0-9.9 4.68-9.9 11.82 0 6.84 3.6 10.86 9.9 10.86s9.9-4.02 9.9-10.86c0-7.14-3.84-11.82-9.9-11.82z"/></g><defs ><path id="D" d="M104.714 1045.51c-.633 0-1.267-.367-1.4-1.1-1.334 1.034-2.97 1.668-4.804 1.668-4.136 0-7.604-3.436-7.604-7.605v-9.24a1.37 1.37 0 0 1 1.4-1.435c.768 0 1.468.5 1.468 1.4v9.272c0 2.602 2.168 4.77 4.736 4.77 2.603 0 4.77-2.17 4.77-4.77v-9.24c0-1.034.667-1.468 1.4-1.468.768 0 1.435.5 1.435 1.435v14.9c0 .934-.667 1.4-1.4 1.4z"/><path id="E" d="M588.263 1046.357c-1.28 0-3.437-.42-4.185-1.58-.085-.12-.085-.22-.085-.3 0-.32.3-.602.62-.602.128 0 .342.102.47.28.77.88 2.135 1.06 3.18 1.06 2.07 0 3.116-.64 3.116-1.94 0-3.02-7.002-1.42-7.002-5.422 0-2.02 2.156-2.8 4.1-2.8 1.1 0 2.818.36 3.672 1.16.128.12.192.26.192.38 0 .3-.32.6-.662.6a.58.58 0 0 1-.405-.16c-.662-.6-1.857-.84-2.797-.84-1.878 0-2.882.682-2.882 1.66 0 2.8 7.002 1.32 7.002 5.422 0 2.28-2.135 3.08-4.333 3.08z"/><path id="F" d="M598.85 1046.318c-3.437 0-5.358-2.64-5.358-5.662 0-3 1.922-5.64 5.358-5.64s5.358 2.64 5.358 5.64c0 3.02-1.922 5.662-5.358 5.662zm0-10.162c-2.52 0-4.142 1.9-4.142 4.5s1.623 4.52 4.142 4.52c2.54 0 4.142-1.92 4.142-4.52s-1.602-4.5-4.142-4.5z"/><path id="G" d="M614.837 1045.98c-.3 0-.62-.2-.62-.56v-.64c-.896.98-2.198 1.54-3.65 1.54-2.646 0-4.867-2.08-4.867-4.56v-5.842c0-.36.32-.56.62-.56.278 0 .598.2.598.56v5.842c0 1.9 1.623 3.42 3.65 3.42s3.65-1.52 3.65-3.42v-5.842c0-.36.32-.56.62-.56.277 0 .598.2.598.56v9.502c0 .36-.32.56-.598.56z"/><path id="H" d="M622.478 1036.336c-2.007 0-3.65 1.52-3.65 3.42v5.662c0 .36-.32.56-.598.56-.3 0-.62-.2-.62-.56v-9.502c0-.36.32-.56.62-.56.277 0 .598.2.598.56v.82c.96-.98 2.22-1.54 3.65-1.54.385 0 .62.3.62.56 0 .28-.234.58-.62.58z"/><path id="I" d="M643.995 1041.236h-8.86c.192 2.28 1.77 3.94 4.1 3.94 1.153 0 2.52-.48 3.138-1.38a.57.57 0 0 1 .513-.279c.32 0 .662.24.662.54 0 .18 0 .22-.406.658-.98 1.082-2.412 1.602-3.906 1.602-3.437 0-5.358-2.64-5.358-5.662 0-3 1.922-5.64 5.358-5.64s5.358 2.66 5.358 5.64c0 .3-.3.58-.598.58zm-4.76-5.08c-2.562 0-3.906 1.84-4.1 3.94h8.22c-.192-2.28-1.77-3.94-4.12-3.94z"/><path id="J" d="M674.39 1045.98h-9.48c-.32 0-.62-.28-.62-.56v-13.123c0-.3.3-.56.62-.56h9.48c.405 0 .62.28.62.56s-.214.56-.62.56h-8.88v4.92h6.51c.406 0 .62.28.62.56a.58.58 0 0 1-.598.58h-6.532v5.922h8.88c.405 0 .62.3.62.58 0 .26-.192.56-.62.56z"/><path id="K" d="M697.55 1045.98c-.3 0-.62-.2-.62-.56v-5.842c0-1.9-1.622-3.42-3.65-3.42-2.007 0-3.65 1.52-3.65 3.42v5.842c0 .36-.32.56-.598.56-.3 0-.62-.2-.62-.56v-9.502c0-.36.32-.56.62-.56.277 0 .598.2.598.56v.64c.96-.98 2.22-1.54 3.65-1.54 2.647 0 4.867 2.06 4.867 4.56v5.842c0 .36-.32.56-.598.56z"/><path id="L" d="M725.938 1045.98c-.3 0-.598-.2-.598-.56v-6.72c0-1.38-1.238-2.54-2.712-2.54s-2.732 1.16-2.732 2.52v6.742c0 .36-.3.56-.598.56s-.62-.2-.62-.56v-6.72c0-1.38-1.237-2.54-2.69-2.54-1.494 0-2.732 1.16-2.732 2.52v6.742c0 .36-.32.56-.598.56-.3 0-.62-.2-.62-.56v-9.502c0-.36.32-.56.62-.56.277 0 .598.2.598.56v.12c.705-.64 1.665-1.02 2.71-1.02a4.03 4.03 0 0 1 3.33 1.701c.705-1.02 1.922-1.7 3.3-1.7 2.22 0 3.95 1.64 3.95 3.66v6.742c0 .36-.32.56-.62.56z"/><path id="M" d="M729.16 1033.436c-.683 0-1.217-.5-1.217-1.14s.534-1.14 1.217-1.14 1.217.5 1.217 1.14-.533 1.14-1.217 1.14zm0 12.543c-.3 0-.62-.18-.62-.56v-9.502c0-.36.3-.56.62-.56.277 0 .598.18.598.56v9.502c0 .36-.277.56-.598.56z"/><path id="N" d="M743.078 1045.98h-.02c-.704 0-1.708-.36-2.113-1.56-.896 1.18-2.284 1.9-4.142 1.9-3.48 0-5.358-2.682-5.358-5.662 0-3.02 1.922-5.64 5.358-5.64 1.857 0 3.245.72 4.142 1.88v-.98c0-.32.277-.56.62-.56.3 0 .598.2.598.56v8.063c0 1.28 1.537.48 1.537 1.44 0 .26-.192.56-.62.56zm-6.276-9.822c-2.52 0-4.142 1.9-4.142 4.5s1.623 4.52 4.142 4.52c2.54 0 4.142-1.92 4.142-4.52s-1.602-4.5-4.142-4.5z"/><path id="O" d="M337.015 220.818h-2.08v3.36c0 .576-.48.896-.93.896-.416 0-.896-.32-.896-.896v-3.36h-8.607c-.64 0-.96-.352-.96-.8 0-.16.032-.384.16-.576l9.023-17.215c.19-.352.512-.512.832-.512.447 0 .928.384.928.896 0 .128-.032.288-.128.48l-8.32 15.903h7.07v-4.127c0-.64.48-.96.896-.96.448 0 .93.32.93.928v4.16h2.08c.576 0 .896.448.896.896s-.32.928-.896.928z"/><path id="P" d="M346.935 225.618c-6.687 0-7.296-6.848-7.296-11.935 0-5.983 1.28-11.967 7.296-11.967 2.688 0 4.607 1.184 5.92 3.2.16.16.192.352.192.544 0 .448-.48.864-.96.864-.256 0-.512-.096-.736-.416-1.023-1.472-2.367-2.368-4.415-2.368-4.032 0-5.472 3.84-5.472 10.11v.544c1.312-1.696 3.392-2.72 5.472-2.72 3.84 0 6.88 3.328 6.88 7.072s-3.04 7.07-6.88 7.07zm0-12.32c-2.496 0-5.12 2.176-5.12 5.44.576 2.688 1.856 5.056 5.12 5.056 2.75 0 5.023-2.4 5.023-5.248s-2.272-5.248-5.023-5.248z"/><path id="Q" d="M360.497 208.68c-1.624 0-2.95-1.474-2.95-3.284s1.325-3.266 2.95-3.266c1.604 0 2.93 1.456 2.93 3.266s-1.325 3.284-2.93 3.284zm0-5.505c-.934 0-1.885.877-1.885 2.22s.95 2.22 1.885 2.22 1.866-.877 1.866-2.22-.934-2.22-1.866-2.22zm7.054-.7l-3.564 12.876c-.093.26-.242.392-.467.392-.28 0-.578-.224-.578-.54 0-.056 0-.112.02-.15l3.564-12.876c.094-.28.262-.41.485-.41a.59.59 0 0 1 .56.56c0 .037 0 .075-.02.15zm2.314 12.933c-1.605 0-2.93-1.474-2.93-3.284 0-1.792 1.325-3.266 2.93-3.266 1.623 0 2.948 1.474 2.948 3.266 0 1.8-1.325 3.284-2.948 3.284zm0-5.486c-.934 0-1.866.877-1.866 2.202 0 1.343.933 2.22 1.866 2.22.95 0 1.885-.877 1.885-2.22 0-1.325-.934-2.202-1.885-2.202z"/><path id="R" d="M551.27 971.48c-1.624 0-2.95-1.474-2.95-3.284s1.325-3.266 2.95-3.266c1.604 0 2.93 1.455 2.93 3.266s-1.325 3.284-2.93 3.284zm0-5.505c-.934 0-1.885.877-1.885 2.22s.95 2.22 1.885 2.22 1.866-.877 1.866-2.22-.934-2.22-1.866-2.22zm7.054-.7l-3.564 12.876c-.093.262-.242.393-.467.393-.28 0-.578-.225-.578-.54 0-.057 0-.112.02-.15l3.564-12.877c.094-.28.262-.4.485-.4a.59.59 0 0 1 .56.56c0 .037 0 .075-.02.15zm2.314 12.933c-1.605 0-2.93-1.475-2.93-3.284 0-1.792 1.325-3.267 2.93-3.267 1.623 0 2.948 1.475 2.948 3.267 0 1.8-1.325 3.284-2.948 3.284zm0-5.486c-.934 0-1.866.877-1.866 2.202 0 1.343.933 2.22 1.866 2.22.95 0 1.885-.878 1.885-2.22 0-1.325-.934-2.202-1.885-2.202z"/><path id="S" d="M140.25 285.95c-2.144 0-4.575-1.152-5.76-3.04-.128-.192-.16-.352-.16-.512 0-.512.48-.928.96-.928s.512.256.99.768c1.024 1.216 2.368 1.888 3.968 1.888 2.816 0 5.344-2.432 5.344-5.79 0-3.392-2.527-5.824-5.344-5.824-2.208 0-3.647 1.408-4.224 2.272-.19.32-.48.448-.864.448-.544 0-.928-.352-.928-.96v-10.527c0-.544.416-.896.896-.896h10.687c.64 0 .96.448.96.896s-.32.896-.96.896h-9.76v7.488c1.023-.832 2.4-1.44 4.19-1.44 3.936 0 7.168 3.328 7.168 7.647 0 4.256-3.232 7.615-7.168 7.615z"/><path id="T" d="M992.81 692.577c-7.112 0-7.76-7.28-7.76-12.692 0-6.362 1.36-12.726 7.76-12.726 2.858 0 4.9 1.26 6.295 3.402.17.17.204.374.204.58 0 .476-.51.918-1.02.918-.272 0-.545-.102-.783-.442-1.09-1.564-2.518-2.518-4.695-2.518-4.288 0-5.82 4.083-5.82 10.753v.578c1.396-1.804 3.607-2.893 5.82-2.893 4.083 0 7.315 3.54 7.315 7.52s-3.232 7.52-7.315 7.52zm0-13.1c-2.654 0-5.444 2.314-5.444 5.785.612 2.858 1.974 5.376 5.444 5.376 2.926 0 5.342-2.552 5.342-5.58s-2.416-5.58-5.342-5.58z"/><path id="U" d="M209.652 80c-1.32 0-2.52-.9-2.52-2.52V60.8c0-4.68-3.9-8.58-8.58-8.58-4.62 0-8.52 3.9-8.52 8.58v16.62c0 1.68-1.26 2.64-2.64 2.64-1.26 0-2.52-.9-2.52-2.58V39.862c0-1.74 1.26-2.58 2.52-2.58 1.38 0 2.64.84 2.64 2.52v10.38c2.22-2.1 5.22-3.06 8.52-3.06 7.44 0 13.68 6.18 13.68 13.68v16.62c0 1.68-1.2 2.58-2.58 2.58z"/><path id="V" d="M243.972 66.68h-22.2c.84 5.64 4.44 9.24 9.72 9.24 2.7 0 5.4-.96 7.14-3.12.54-.6 1.14-.96 1.86-.96 1.32 0 2.7 1.2 2.7 2.64 0 .72-.18 1.26-1.44 2.52-2.7 2.64-6.42 4.02-10.26 4.02-9.66 0-15.06-7.98-15.06-16.98 0-8.94 5.4-16.92 15.06-16.92 9.78 0 15 7.98 15 16.92 0 1.32-.96 2.64-2.52 2.64zm-12.48-14.46c-5.64 0-8.94 4.14-9.72 9.3h19.44c-.84-5.76-4.44-9.3-9.72-9.3z"/><path id="W" d="M260.592 81.02c-3.3 0-8.82-1.02-11.64-4.5-.36-.54-.54-1.08-.54-1.56 0-1.5 1.44-2.7 2.7-2.7.72 0 1.26.36 1.86 1.02 1.86 2.04 4.92 2.64 7.62 2.64 5.4 0 7.14-1.86 7.14-4.56 0-7.68-18.3-2.94-18.3-15.3 0-6.54 6.12-8.94 11.82-8.94 3.24 0 10.86 1.62 10.86 4.98 0 1.32-1.08 2.7-2.52 2.7-.54 0-1.38-.3-1.98-.78-1.62-1.38-3.96-1.8-6.36-1.8-4.98 0-6.72 1.86-6.72 3.84 0 7.14 18.36 2.52 18.36 15.3 0 7.08-5.94 9.66-12.3 9.66z"/><path id="X" d="M351.55 74.48c-2.94 4.08-7.14 6.54-13.38 6.54-12.9 0-17.46-10.68-17.46-22.38 0-11.76 4.56-22.44 17.46-22.44 6.06 0 10.5 2.4 13.32 6.54.42.54.54 1.02.54 1.5 0 1.44-1.26 2.52-2.64 2.52-.78 0-1.5-.36-2.04-1.08-1.86-2.7-4.62-4.32-9.18-4.32-8.52 0-12.3 6.3-12.3 17.28s3.78 17.28 12.3 17.28c4.56 0 7.32-1.74 9.18-4.38.54-.78 1.26-1.14 2.04-1.14 1.38 0 2.7 1.14 2.7 2.58 0 .48-.18.96-.54 1.5z"/><path id="Y" d="M413.768 80.06c-1.14 0-2.28-.66-2.52-1.98-2.4 1.86-5.34 3-8.64 3-7.44 0-13.68-6.18-13.68-13.68v-16.62c0-1.68 1.26-2.58 2.52-2.58 1.38 0 2.64.9 2.64 2.52V67.4c0 4.68 3.9 8.58 8.52 8.58 4.68 0 8.58-3.9 8.58-8.58v-16.62c0-1.86 1.2-2.64 2.52-2.64 1.38 0 2.58.9 2.58 2.58v26.82c0 1.68-1.2 2.52-2.52 2.52z"/><path id="Z" d="M447.187 80c-1.32 0-2.52-.9-2.52-2.52V60.8c0-4.68-3.9-8.58-8.58-8.58-4.62 0-8.52 3.9-8.52 8.58v16.62c0 1.68-1.26 2.64-2.64 2.64-1.26 0-2.52-.9-2.52-2.58v-26.82c0-1.74 1.26-2.52 2.52-2.52 1.2 0 2.28.66 2.58 1.98 2.34-1.86 5.28-3 8.58-3 7.44 0 13.68 6.18 13.68 13.68v16.62c0 1.68-1.2 2.58-2.58 2.58z"/><path id="a" d="M465.488 80h-1.02c-5.7 0-7.86-3-7.86-7.92v-18.84h-1.8c-1.44 0-2.58-1.14-2.58-2.52 0-1.44 1.14-2.58 2.52-2.58h1.8v-8.34c0-1.68 1.26-2.52 2.58-2.52s2.52.84 2.52 2.52v8.34h3.84c1.68 0 2.52 1.38 2.52 2.52 0 1.44-.96 2.58-2.52 2.58h-3.84v19.38c0 1.68.6 2.28 2.28 2.28h1.5c1.56 0 2.58 1.14 2.58 2.52 0 1.44-.96 2.58-2.52 2.58z"/><path id="b" d="M484.687 52.222c-4.62 0-8.52 3.9-8.52 8.58v16.62c0 1.68-1.26 2.58-2.64 2.58-1.26 0-2.52-.9-2.52-2.52v-26.76c0-1.68 1.38-2.58 2.52-2.58 1.2 0 2.34.66 2.58 2.04 2.34-1.92 5.52-3.06 8.58-3.06 1.74 0 2.64 1.2 2.64 2.58 0 1.32-.9 2.52-2.64 2.52z"/><path id="c" d="M491.168 43.282a4.3 4.3 0 1 1 0-8.64 4.3 4.3 0 1 1 0 8.64zm0 36.72c-1.32 0-2.64-.9-2.64-2.52v-26.76c0-1.68 1.32-2.58 2.64-2.58 1.26 0 2.52.9 2.52 2.58v26.76c0 1.68-1.26 2.52-2.52 2.52z"/><path id="d" d="M544.682 137.66c-2.64 2.94-6.3 4.56-10.74 4.56-9.66 0-15.06-7.92-15.06-16.98 0-9 5.4-16.92 15.06-16.92 4.44 0 8.1 1.62 10.74 4.56.48.54.72 1.14.72 1.74 0 1.32-1.32 2.58-2.7 2.58-.54 0-1.2-.24-1.86-.84-1.68-1.86-3.9-2.94-6.9-2.94-6 0-9.9 4.68-9.9 11.82 0 7.2 3.9 11.88 9.9 11.88 3 0 5.28-1.14 6.9-2.94.54-.66 1.26-.9 1.86-.9 1.38 0 2.7 1.2 2.7 2.64 0 .54-.24 1.2-.72 1.74z"/></defs></svg>