<svg xmlns="http://www.w3.org/2000/svg" xmlns:xlink="http://www.w3.org/1999/xlink" viewBox="0 0 1080 1080"><style><![CDATA[.c{fill:#fff}.d{opacity:.2}.e{clip-path:url(#r)}.f{fill:none}.g{stroke:#fff}.h{stroke-miterlimit:10}.i{opacity:.7}.j{stroke-width:2}.k{stroke-dasharray:2.00745,6.02235}]]></style><linearGradient id="A" gradientUnits="userSpaceOnUse" x1="540" y1="1080" x2="540" y2="0"><stop offset="0" stop-color="#232526"/><stop offset=".596" stop-color="#383a3c"/><stop offset="1" stop-color="#414345"/></linearGradient><path d="M1040 1080H40c-22.09 0-40-17.91-40-40V40C0 17.91 17.91 0 40 0h1000c22.09 0 40 17.91 40 40v1000c0 22.09-17.91 40-40 40z" fill="url(#A)"/><defs><path id="B" d="M1046 918.63c0 18.116-14.295 32.937-31.766 32.937H65.766C48.295 951.568 34 936.747 34 918.63V213.937C34 195.822 48.295 181 65.766 181h948.468c17.47 0 31.766 14.822 31.766 32.937V918.63z"/><path id="C" d="M718.083 326.242c-1.232 1.372-2.94 2.128-5.013 2.128-4.508 0-7.027-3.695-7.027-7.924 0-4.2 2.52-7.896 7.027-7.896 2.072 0 3.78.756 5.013 2.128a.74.74 0 0 1 .224.532c0 .42-.392.84-.812.84-.195 0-.392-.084-.588-.28-.924-1.036-2.212-1.624-3.836-1.624-3.304 0-5.432 2.66-5.432 6.3s2.128 6.328 5.432 6.328c1.624 0 2.912-.616 3.836-1.624.196-.196.393-.28.588-.28.42 0 .813.364.813.813 0 .196-.056.364-.224.56z"/><path id="D" d="M727.49 328.37c-4.508 0-7.027-3.695-7.027-7.924 0-4.2 2.52-7.896 7.027-7.896s7.028 3.696 7.028 7.896c0 4.23-2.52 7.924-7.028 7.924zm0-14.224c-3.304 0-5.432 2.66-5.432 6.3s2.128 6.328 5.432 6.328c3.332 0 5.433-2.687 5.433-6.328s-2.1-6.3-5.433-6.3z"/><path id="E" d="M757.48 328.062c-1.513 0-2.772-1.4-2.772-2.968v-16.353c0-.504.42-.783.813-.783.363 0 .783.28.783.783v16.353c0 1.792 1.988.756 1.988 2.016 0 .477-.336.952-.812.952z"/><path id="F" d="M683.185 325.466c-.903 0-1.674.584-1.96 1.39-.083.215-.125.452-.125.695s.042.48.125.695c.285.806 1.056 1.39 1.96 1.39s1.674-.584 1.96-1.39c.083-.215.125-.452.125-.695s-.042-.48-.125-.695c-.285-.806-1.056-1.39-1.96-1.39z"/><path id="G" d="M717.86 269.136c-.393 0-.812-.28-.812-.784v-.896c-1.176 1.372-2.884 2.155-4.788 2.155-3.472 0-6.384-2.91-6.384-6.384v-8.176c0-.504.42-.784.813-.784.363 0 .783.28.783.784v8.176a4.77 4.77 0 1 0 9.576 0v-8.176c0-.504.42-.784.813-.784.363 0 .783.28.783.784v13.3c0 .504-.42.784-.783.784z"/><path id="H" d="M734.042 269.136c-.393 0-.812-.28-.812-.784v-8.176a4.77 4.77 0 0 0-4.788-4.788c-2.632 0-4.788 2.128-4.788 4.788v8.176c0 .504-.42.784-.783.784-.393 0-.812-.28-.812-.784v-13.3c0-.504.42-.784.813-.784.363 0 .783.28.783.784v.896c1.26-1.372 2.912-2.156 4.788-2.156a6.44 6.44 0 0 1 6.385 6.384v8.176c0 .504-.42.784-.784.784z"/><path id="I" d="M788.78 386.652h-.028c-.924 0-2.24-.504-2.77-2.184-1.177 1.65-2.996 2.66-5.433 2.66-4.563 0-7.027-3.752-7.027-7.924 0-4.228 2.52-7.896 7.027-7.896 2.437 0 4.256 1.008 5.433 2.632v-1.372c0-.448.363-.784.812-.784.393 0 .784.28.784.784v11.284c0 1.792 2.016.672 2.016 2.016 0 .364-.252.784-.812.784zm-8.232-13.748c-3.304 0-5.432 2.66-5.432 6.3s2.128 6.328 5.432 6.328c3.332 0 5.433-2.687 5.433-6.328s-2.1-6.3-5.433-6.3z"/><path id="J" d="M797.965 373.156c-2.632 0-4.788 2.128-4.788 4.788v7.924c0 .504-.42.784-.783.784-.393 0-.812-.28-.812-.784v-13.3c0-.504.42-.784.813-.784.363 0 .783.28.783.784v1.148c1.26-1.372 2.912-2.156 4.788-2.156.504 0 .813.42.813.784 0 .392-.31.812-.812.812z"/><path id="K" d="M736.674 445.4h-.028c-.924 0-2.24-.504-2.77-2.184-1.177 1.65-2.996 2.66-5.433 2.66-4.563 0-7.027-3.752-7.027-7.924 0-4.228 2.52-7.896 7.027-7.896 2.437 0 4.256 1.008 5.433 2.632v-1.372c0-.448.363-.784.812-.784.393 0 .784.28.784.784V442.6c0 1.792 2.016.672 2.016 2.016 0 .364-.252.784-.812.784zm-8.232-13.748c-3.304 0-5.432 2.66-5.432 6.3s2.128 6.328 5.432 6.328c3.332 0 5.433-2.687 5.433-6.328s-2.1-6.3-5.433-6.3z"/><path id="L" d="M744.598 445.4h-.868c-2.212 0-3.304-1.092-3.304-3.276v-9.995h-1.428c-.504 0-.784-.42-.784-.812 0-.364.28-.784.784-.784h1.428v-4.284c0-.504.42-.783.812-.783s.784.28.784.783v4.284h2.576c.504 0 .784.42.784.784 0 .392-.28.813-.784.813h-2.576v9.995c0 1.372.393 1.68 1.708 1.68h.868c.504 0 .784.42.784.812 0 .364-.28.784-.784.784z"/><path id="M" d="M839.54 445.942c-1.68 0-4.508-.588-5.487-2.212-.112-.168-.112-.31-.112-.42 0-.448.392-.84.812-.84.168 0 .448.14.616.393 1.008 1.23 2.8 1.483 4.172 1.483 2.717 0 4.088-.896 4.088-2.716 0-4.228-9.184-1.987-9.184-7.588 0-2.828 2.828-3.92 5.376-3.92 1.456 0 3.696.504 4.816 1.624.168.168.252.364.252.532 0 .42-.42.84-.868.84a.74.74 0 0 1-.532-.224c-.868-.84-2.436-1.177-3.668-1.177-2.464 0-3.78.952-3.78 2.324 0 3.92 9.185 1.85 9.185 7.588 0 3.192-2.8 4.312-5.685 4.312z"/><path id="N" d="M762.378 747.577c-.393 0-.784-.28-.784-.784v-9.408a3.6 3.6 0 0 0-3.557-3.556c-1.932 0-3.584 1.624-3.584 3.528v9.436c0 .504-.392.784-.783.784s-.812-.28-.812-.784v-9.408c0-1.932-1.624-3.556-3.528-3.556-1.96 0-3.584 1.624-3.584 3.528v9.436c0 .504-.42.784-.783.784-.393 0-.812-.28-.812-.784v-13.3c0-.504.42-.784.813-.784.363 0 .783.28.783.784v.168c.925-.896 2.185-1.428 3.557-1.428 1.792 0 3.388.896 4.368 2.38.924-1.428 2.52-2.38 4.34-2.38 2.912 0 5.18 2.296 5.18 5.124v9.436c0 .504-.42.784-.812.784z"/><path id="O" d="M736.143 788.097h-11.62c.252 3.19 2.324 5.516 5.376 5.516 1.513 0 3.305-.672 4.116-1.932.196-.31.42-.393.672-.393.42 0 .868.336.868.756 0 .253 0 .31-.532.925-1.288 1.512-3.164 2.24-5.124 2.24-4.508 0-7.027-3.695-7.027-7.924 0-4.2 2.52-7.896 7.027-7.896s7.028 3.724 7.028 7.896c0 .42-.392.813-.784.813zm-6.244-7.112c-3.36 0-5.124 2.576-5.376 5.516h10.78c-.252-3.19-2.324-5.516-5.404-5.516z"/><path id="P" d="M998.4 809.205h-1.42v2.575c0 .89-.76 1.386-1.42 1.386-.693 0-1.42-.495-1.42-1.386v-2.575h-7.888c-.924 0-1.485-.56-1.485-1.32 0-.197.033-.462.198-.726l9.11-17.327c.264-.528.76-.76 1.188-.76.76 0 1.485.595 1.485 1.354a1.27 1.27 0 0 1-.197.726l-7.987 15.25h5.577v-3.763c0-.957.693-1.452 1.387-1.452.726 0 1.452.462 1.452 1.42v3.796h1.42c.925 0 1.42.66 1.42 1.42 0 .726-.494 1.386-1.42 1.386z"/><path id="Q" d="M49.55 990.772c-3.4 0-5.03-3.52-5.03-11.87s1.62-11.87 5.03-11.87 5.028 3.52 5.028 11.87-1.618 11.87-5.028 11.87zm0-21.822c-1.907 0-2.948 2.367-2.948 9.95s1.04 9.95 2.948 9.95 2.947-2.368 2.947-9.95-1.04-9.95-2.947-9.95z"/><path id="R" d="M67.066 967.35h9.363v1.216l-6.07 21.887h-2.196l6.07-21.183h-7.167v-1.92z"/><path id="S" d="M1002.93 990.452v-1.92c1.85-6.848 7.63-10.687 7.63-15.935 0-2.432-1.098-3.647-2.514-3.647-1.647 0-2.86 1.407-3.035 4.863h-1.907c.23-5.248 2.37-6.783 4.884-6.783 2.746 0 4.653 2.048 4.653 5.887 0 5.76-4.682 7.552-7.803 15.615h7.918v1.92h-9.826z"/><path id="T" d="M1019.057 990.772c-3.4 0-5.028-3.52-5.028-11.87s1.618-11.87 5.028-11.87 5.028 3.52 5.028 11.87-1.618 11.87-5.028 11.87zm0-21.822c-1.907 0-2.948 2.367-2.948 9.95s1.04 9.95 2.948 9.95 2.947-2.368 2.947-9.95-1.04-9.95-2.947-9.95z"/><path id="U" d="M1026.802 990.452v-1.92h2.543v-18.56l-2.6.256v-1.408c1.185-.32 2.34-.896 3.294-1.79h1.388v21.502h2.428v1.92h-7.052z"/><path id="V" d="M104.714 1045.51c-.633 0-1.267-.367-1.4-1.1-1.334 1.034-2.97 1.668-4.804 1.668-4.136 0-7.604-3.436-7.604-7.605v-9.24a1.37 1.37 0 0 1 1.4-1.435c.768 0 1.468.5 1.468 1.4v9.272c0 2.602 2.168 4.77 4.736 4.77 2.603 0 4.77-2.17 4.77-4.77v-9.24c0-1.034.667-1.468 1.4-1.468.768 0 1.435.5 1.435 1.435v14.9c0 .934-.667 1.4-1.4 1.4z"/><path id="W" d="M709.882 1046.357c-1.2 0-3.22-.42-3.92-1.58-.08-.12-.08-.22-.08-.3 0-.32.28-.602.58-.602.12 0 .32.102.44.28.72.88 2 1.06 2.98 1.06 1.94 0 2.92-.64 2.92-1.94 0-3.02-6.562-1.42-6.562-5.422 0-2.02 2.02-2.8 3.84-2.8 1.04 0 2.64.36 3.44 1.16.12.12.18.26.18.38a.65.65 0 0 1-.62.6c-.12 0-.26-.04-.38-.16-.62-.6-1.74-.84-2.62-.84-1.76 0-2.7.682-2.7 1.66 0 2.8 6.562 1.32 6.562 5.422 0 2.28-2 3.08-4.06 3.08z"/><path id="X" d="M720.603 1046.318c-3.22 0-5.02-2.64-5.02-5.662 0-3 1.8-5.64 5.02-5.64s5.02 2.64 5.02 5.64c0 3.02-1.8 5.662-5.02 5.662zm0-10.162c-2.36 0-3.88 1.9-3.88 4.5s1.52 4.52 3.88 4.52c2.38 0 3.88-1.92 3.88-4.52s-1.5-4.5-3.88-4.5z"/><path id="Y" d="M744.342 1036.336a3.42 3.42 0 0 0-3.421 3.42v5.662c0 .36-.3.56-.56.56-.28 0-.58-.2-.58-.56v-9.502c0-.36.3-.56.58-.56.26 0 .56.2.56.56v.82c.9-.98 2.08-1.54 3.42-1.54.36 0 .58.3.58.56a.58.58 0 0 1-.58.58z"/><path id="Z" d="M788.763 1044.137c-.98 1.36-2.38 2.182-4.46 2.182-4.3 0-5.82-3.56-5.82-7.46 0-3.922 1.52-7.482 5.82-7.482 2.02 0 3.5.8 4.44 2.18.1.102.12.2.12.32 0 .32-.3.56-.62.56-.16 0-.32-.06-.44-.22-.72-1.04-1.8-1.7-3.5-1.7-3.32 0-4.682 2.6-4.682 6.342 0 3.72 1.36 6.32 4.682 6.32 1.7 0 2.8-.64 3.54-1.7.1-.2.28-.26.44-.26.3 0 .6.26.6.58a.63.63 0 0 1-.12.34z"/><path id="a" d="M801.483 1045.98h-.02c-.66 0-1.6-.36-1.98-1.56-.84 1.18-2.14 1.9-3.88 1.9-3.26 0-5.02-2.682-5.02-5.662 0-3.02 1.8-5.64 5.02-5.64 1.74 0 3.04.72 3.88 1.88v-.98c0-.32.26-.56.58-.56.28 0 .56.2.56.56v8.063c0 1.28 1.44.48 1.44 1.44a.55.55 0 0 1-.58.561zm-5.88-9.822c-2.36 0-3.88 1.9-3.88 4.5s1.52 4.52 3.88 4.52c2.38 0 3.88-1.92 3.88-4.52s-1.5-4.5-3.88-4.5z"/><path id="b" d="M808.84 1033.436c-.64 0-1.14-.5-1.14-1.14s.5-1.14 1.14-1.14 1.14.5 1.14 1.14-.5 1.14-1.14 1.14zm0 12.543c-.28 0-.58-.18-.58-.56v-9.502c0-.36.28-.56.58-.56.26 0 .56.18.56.56v9.502c0 .36-.26.56-.56.56z"/><path id="c" d="M845.52 1045.98c-.28 0-.58-.2-.58-.56v-5.842c0-1.9-1.52-3.42-3.42-3.42a3.42 3.42 0 0 0-3.421 3.42v5.842c0 .36-.3.56-.56.56-.28 0-.58-.2-.58-.56v-9.502c0-.36.3-.56.58-.56.26 0 .56.2.56.56v.64c.9-.98 2.08-1.54 3.42-1.54a4.6 4.6 0 0 1 4.561 4.561v5.842c0 .36-.3.56-.56.56z"/><path id="d" d="M978.36 1045.98c-.28 0-.56-.2-.56-.56v-6.72c0-1.38-1.16-2.54-2.54-2.54s-2.56 1.16-2.56 2.52v6.742c0 .36-.28.56-.56.56s-.58-.2-.58-.56v-6.72a2.57 2.57 0 0 0-2.521-2.541c-1.4 0-2.56 1.16-2.56 2.52v6.742c0 .36-.3.56-.56.56-.28 0-.58-.2-.58-.56v-9.502c0-.36.3-.56.58-.56.26 0 .56.2.56.56v.12a3.64 3.64 0 0 1 2.54-1.02 3.71 3.71 0 0 1 3.121 1.701c.66-1.02 1.8-1.7 3.1-1.7 2.08 0 3.7 1.64 3.7 3.66v6.742c0 .36-.3.56-.58.56z"/><path id="e" d="M81.76 80.12c-3.24 0-6-2.76-6-6.12V39.862c0-1.74 1.26-2.58 2.58-2.58s2.58.84 2.58 2.52V74c0 .72.54 1.02.84 1.02 1.68 0 2.58 1.2 2.58 2.58 0 1.32-.9 2.52-2.58 2.52z"/><path id="f" d="M127.957 80c-1.26 0-2.52-.9-2.52-2.52v-18.9c0-3.48-2.88-6.36-6.3-6.36-3.54 0-6.36 2.88-6.36 6.3v18.9c0 1.68-1.2 2.58-2.58 2.58-1.32 0-2.52-.9-2.52-2.52v-18.9c0-3.48-2.88-6.36-6.36-6.36s-6.36 2.88-6.36 6.3v18.9c0 1.68-1.26 2.58-2.64 2.58-1.26 0-2.52-.9-2.52-2.52v-26.82c0-1.74 1.32-2.58 2.64-2.58.84 0 1.68.36 2.16 1.14a11.56 11.56 0 0 1 6.66-2.1c3.6 0 6.84 1.62 8.94 4.26 2.1-2.64 5.28-4.26 8.88-4.26 6.36 0 11.52 5.1 11.52 11.4v18.9c0 1.68-1.26 2.58-2.64 2.58z"/><path id="g" d="M151.058 81.02c-9.66 0-15.06-7.92-15.06-16.98 0-9 5.4-16.92 15.06-16.92s15.06 7.92 15.06 16.92c0 9.06-5.4 16.98-15.06 16.98zm0-28.8c-6 0-9.9 4.68-9.9 11.82 0 7.2 3.9 11.88 9.9 11.88 6.06 0 9.9-4.68 9.9-11.88 0-7.14-3.84-11.82-9.9-11.82z"/><path id="h" d="M180.877 81.02c-3.3 0-8.82-1.02-11.64-4.5-.36-.54-.54-1.08-.54-1.56 0-1.5 1.44-2.7 2.7-2.7.72 0 1.26.36 1.86 1.02 1.86 2.04 4.92 2.64 7.62 2.64 5.4 0 7.14-1.86 7.14-4.56 0-7.68-18.3-2.94-18.3-15.3 0-6.54 6.12-8.94 11.82-8.94 3.24 0 10.86 1.62 10.86 4.98 0 1.32-1.08 2.7-2.52 2.7-.54 0-1.38-.3-1.98-.78-1.62-1.38-3.96-1.8-6.36-1.8-4.98 0-6.72 1.86-6.72 3.84 0 7.14 18.36 2.52 18.36 15.3 0 7.08-5.94 9.66-12.3 9.66z"/><path id="i" d="M208.297 80h-1.02c-5.7 0-7.86-3-7.86-7.92v-18.84h-1.8c-1.44 0-2.58-1.14-2.58-2.52 0-1.44 1.14-2.58 2.52-2.58h1.8v-8.34c0-1.68 1.26-2.52 2.58-2.52s2.52.84 2.52 2.52v8.34h3.84c1.68 0 2.52 1.38 2.52 2.52 0 1.44-.96 2.58-2.52 2.58h-3.84v19.38c0 1.68.6 2.28 2.28 2.28h1.5c1.56 0 2.58 1.14 2.58 2.52 0 1.44-.96 2.58-2.52 2.58z"/><path id="j" d="M291.934 80c-3.3 0-4.8-2.34-5.34-3.42-2.4 2.64-5.88 4.44-10.56 4.44-9.78 0-15.06-8.04-15.06-16.98s5.4-16.92 15.06-16.92c4.2 0 7.56 1.5 9.9 3.96v-.24c0-.66.24-2.7 2.52-2.7 1.26 0 2.64.66 2.64 2.52v23.16c0 .78.54 1.08.84 1.08 1.68 0 2.58 1.2 2.58 2.58 0 1.26-.9 2.52-2.58 2.52zm-15.9-27.78c-6 0-9.9 4.68-9.9 11.82 0 7.2 3.9 11.88 9.9 11.88 6.06 0 9.9-4.68 9.9-11.88 0-7.14-3.84-11.82-9.9-11.82z"/><path id="k" d="M322.834 53.242h-2.7v24.18c0 1.68-1.26 2.52-2.64 2.52-1.26 0-2.52-.84-2.52-2.52v-24.18h-2.46c-1.62 0-2.52-1.2-2.52-2.52 0-1.38.9-2.58 2.52-2.58h2.46v-4.08c0-3.84 3.18-6.78 6.9-6.78 1.74 0 2.64 1.2 2.64 2.58 0 1.26-.9 2.52-2.64 2.52-1.02 0-1.74.78-1.74 1.62v4.14h2.7c1.74 0 2.64 1.2 2.64 2.58 0 1.32-.9 2.52-2.64 2.52z"/><path id="l" d="M431.8 74.48c-2.94 4.08-7.14 6.54-13.38 6.54-12.9 0-17.46-10.68-17.46-22.38 0-11.76 4.56-22.44 17.46-22.44 6.06 0 10.5 2.4 13.32 6.54.42.54.54 1.02.54 1.5 0 1.44-1.26 2.52-2.64 2.52-.78 0-1.5-.36-2.04-1.08-1.86-2.7-4.62-4.32-9.18-4.32-8.52 0-12.3 6.3-12.3 17.28s3.78 17.28 12.3 17.28c4.56 0 7.32-1.74 9.18-4.38.54-.78 1.26-1.14 2.04-1.14 1.38 0 2.7 1.14 2.7 2.58 0 .48-.18.96-.54 1.5z"/><path id="m" d="M492.81 43.282a4.3 4.3 0 1 1 0-8.64 4.3 4.3 0 1 1 0 8.64zm0 36.72c-1.32 0-2.64-.9-2.64-2.52v-26.76c0-1.68 1.32-2.58 2.64-2.58 1.26 0 2.52.9 2.52 2.58v26.76c0 1.68-1.26 2.52-2.52 2.52z"/><path id="n" d="M564.267 52.222c-4.62 0-8.52 3.9-8.52 8.58v16.62c0 1.68-1.26 2.58-2.64 2.58-1.26 0-2.52-.9-2.52-2.52v-26.76c0-1.68 1.38-2.58 2.52-2.58 1.2 0 2.34.66 2.58 2.04 2.34-1.92 5.52-3.06 8.58-3.06 1.74 0 2.64 1.2 2.64 2.58 0 1.32-.9 2.52-2.64 2.52z"/><path id="o" d="M778.042 66.68h-22.2c.84 5.64 4.44 9.24 9.72 9.24 2.7 0 5.4-.96 7.14-3.12.54-.6 1.14-.96 1.86-.96 1.32 0 2.7 1.2 2.7 2.64 0 .72-.18 1.26-1.44 2.52-2.7 2.64-6.42 4.02-10.26 4.02-9.66 0-15.06-7.98-15.06-16.98 0-8.94 5.4-16.92 15.06-16.92 9.78 0 15 7.98 15 16.92 0 1.32-.96 2.64-2.52 2.64zm-12.48-14.46c-5.64 0-8.94 4.14-9.72 9.3h19.438c-.84-5.76-4.44-9.3-9.72-9.3z"/><path id="p" d="M809.06 76.46c-2.64 2.94-6.3 4.56-10.74 4.56-9.66 0-15.06-7.92-15.06-16.98 0-9 5.4-16.92 15.06-16.92 4.44 0 8.1 1.62 10.74 4.56.48.54.72 1.14.72 1.74 0 1.32-1.32 2.58-2.7 2.58-.54 0-1.2-.24-1.86-.84-1.68-1.86-3.9-2.94-6.9-2.94-6 0-9.9 4.68-9.9 11.82 0 7.2 3.9 11.88 9.9 11.88 3 0 5.28-1.14 6.9-2.94.54-.66 1.26-.9 1.86-.9 1.38 0 2.7 1.2 2.7 2.64 0 .54-.24 1.2-.72 1.74z"/><path id="q" d="M151.477 112.762l-9.3 26.34c-.48 1.32-1.32 2.1-2.64 2.1-1.26 0-1.98-.54-2.52-2.1l-7.02-19.8-7.08 19.8c-.48 1.44-1.32 2.1-2.58 2.1-1.2 0-2.04-.66-2.52-2.1l-9.24-26.34c-.12-.36-.12-.6-.12-.96 0-1.5 1.38-2.46 2.64-2.46.96 0 1.92.48 2.34 1.68l6.96 20.04 7.08-19.62c.48-1.38 1.08-2.1 2.52-2.1 1.32 0 2.04.66 2.52 2.1l7.02 19.62 7.02-20.04c.42-1.2 1.38-1.68 2.28-1.68 1.38 0 2.76 1.02 2.76 2.52 0 .3 0 .54-.12.9z"/></defs><clipPath id="r"><use xlink:href="#B"/></clipPath><path d="M34 181h101.117L236.51 301.98l101.117-28.418 101.117 16.86 101.117 16.952 101.394-30.13 101.117 19.045 101.117-11.47 101.117 7.232L1046 252.385V181H135.117z" opacity=".45" class="c e"/><linearGradient id="s" gradientUnits="userSpaceOnUse" x1="85.54" y1="902.232" x2="956.044" y2="902.232"><stop offset="0" stop-color="#18a8cb"/><stop offset=".304" stop-color="#47b8b4"/><stop offset=".61" stop-color="#6fc6a1"/><stop offset=".853" stop-color="#88cf94"/><stop offset="1" stop-color="#91d290"/></linearGradient><path d="M785.433 901.344l-3.585 1.776z" fill="url(#s)" class="e"/><linearGradient id="t" gradientUnits="userSpaceOnUse" x1="85.54" y1="755.844" x2="956.044" y2="755.844"><stop offset="0" stop-color="#18a8cb"/><stop offset=".304" stop-color="#47b8b4"/><stop offset=".61" stop-color="#6fc6a1"/><stop offset=".853" stop-color="#88cf94"/><stop offset="1" stop-color="#91d290"/></linearGradient><path d="M520.673 768.944l-86.98-26.2-86.98 20.617 86.98-20.617z" fill="url(#t)" class="e"/><linearGradient id="u" gradientUnits="userSpaceOnUse" x1="42.617" y1="683.88" x2="1054.617" y2="683.88"><stop offset="0" stop-color="#18a8cb"/><stop offset=".304" stop-color="#47b8b4"/><stop offset=".61" stop-color="#6fc6a1"/><stop offset=".853" stop-color="#88cf94"/><stop offset="1" stop-color="#91d290"/></linearGradient><path d="M953.223 676.294l101.394-62.124-101.394 62.124-101.117 63.79L750.99 753.59l101.117-13.505z" fill="url(#u)" class="e"/><linearGradient id="v" gradientUnits="userSpaceOnUse" x1="85.54" y1="901.017" x2="956.044" y2="901.017"><stop offset="0" stop-color="#18a8cb"/><stop offset=".304" stop-color="#47b8b4"/><stop offset=".61" stop-color="#6fc6a1"/><stop offset=".853" stop-color="#88cf94"/><stop offset="1" stop-color="#91d290"/></linearGradient><path d="M781.848 903.12l3.585-1.776-3.585 1.776z" fill="url(#v)" class="e"/><linearGradient id="w" gradientUnits="userSpaceOnUse" x1="34" y1="767.569" x2="1046" y2="767.569"><stop offset="0" stop-color="#6ae5d0"/><stop offset=".116" stop-color="#67dfcb"/><stop offset=".665" stop-color="#5ac6b6"/><stop offset="1" stop-color="#55bdae"/></linearGradient><path d="M843.49 793.917l-101.117 13.078-101.117-5.07-101.394 18.648-101.117-26.97-101.117 23.753-101.117 24.793-101.394-6.704L34 821.252v17.34l101.117 15.27 101.394 12.175 101.117-12.427 101.117-21.478 101.117 36.987 101.394-1.3 101.117 1.456 101.117-12.286 101.117-59.523L1046 738.418v-72.542l-101.394 61.66z" fill="url(#w)" class="e"/><linearGradient id="x" gradientUnits="userSpaceOnUse" x1="34" y1="710.436" x2="1046" y2="710.436"><stop offset="0" stop-color="#a9f2a7"/><stop offset=".605" stop-color="#98db97"/><stop offset="1" stop-color="#91d290"/></linearGradient><path d="M944.606 676.294l-101.117 63.79-101.117 13.505-101.117-6.53-101.394 21.884-101.117-26.2-101.117 20.617-101.117 25.617-101.394-3.93L34 771.083v15.875l101.117 14.118L236.51 806.7l101.117-24.828 101.117-22.947 101.117 27.74 101.394-19.033 101.117 5.53L843.49 760.08l101.117-66.345L1046 632.305V614.17z" fill="url(#x)" class="e"/><linearGradient id="y" gradientUnits="userSpaceOnUse" x1="34" y1="737.227" x2="1046" y2="737.227"><stop offset="0" stop-color="#8cf2bf"/><stop offset=".147" stop-color="#87eab9"/><stop offset=".677" stop-color="#78d1a6"/><stop offset="1" stop-color="#73c89f"/></linearGradient><path d="M843.49 760.08l-101.117 13.084-101.117-5.53-101.394 19.033-101.117-27.74-101.117 22.947L236.51 806.7l-101.394-5.625L34 786.96v34.294l101.117 14.19 101.394 6.704 101.117-24.793 101.117-23.753 101.117 26.97 101.394-18.648 101.117 5.07 101.117-13.078 101.117-66.38L1046 665.875v-33.57l-101.394 61.43z" fill="url(#y)" class="e"/><linearGradient id="z" gradientUnits="userSpaceOnUse" x1="34" y1="820.769" x2="1046" y2="820.769"><stop offset="0" stop-color="#4ae5e1"/><stop offset=".251" stop-color="#44d5d5"/><stop offset=".716" stop-color="#3abcc3"/><stop offset="1" stop-color="#36b3bc"/></linearGradient><path d="M843.49 856.978l-101.117 12.286-101.117-1.456-101.394 1.3-101.117-36.987-101.117 21.478-101.117 12.427-101.394-12.175L34 838.592v1.696L135.117 855.7l86.55 10.787-86.55-10.787 101.394 12.637 101.117-12.425 41.37-8.473-41.37 8.473 101.117-20.7 101.117 40.84 101.394 5.78 101.117 20.107 101.116 1.18 101.117-43.078L1046 817.133v-78.716l-101.394 59.037z" fill="url(#z)" class="e"/><linearGradient id="AA" gradientUnits="userSpaceOnUse" x1="92.952" y1="902.824" x2="963.456" y2="902.824"><stop offset="0" stop-color="#18a8cb"/><stop offset=".304" stop-color="#47b8b4"/><stop offset=".61" stop-color="#6fc6a1"/><stop offset=".853" stop-color="#88cf94"/><stop offset="1" stop-color="#91d290"/></linearGradient><path d="M745.77 902.53l43.49.6z" fill="url(#AA)" class="e"/><linearGradient id="AB" gradientUnits="userSpaceOnUse" x1="34" y1="884.351" x2="1046" y2="884.351"><stop offset="0" stop-color="#63c4dc"/><stop offset=".009" stop-color="#62c4dc"/><stop offset=".445" stop-color="#3ab5d3"/><stop offset=".79" stop-color="#21abcd"/><stop offset="1" stop-color="#18a8cb"/></linearGradient><path d="M847.657 901.344l5.702-2.43-9.87 4.205-101.116-1.18-101.117-20.107-101.393-5.78-101.117-40.84-101.117 20.7-101.117 12.425L135.117 855.7 34 840.287v111.28h1012V817.133l-101.394 42.908z" fill="url(#AB)" class="e"/><g class="c"><path d="M843.49 401.712l-101.117 9.018-101.117-5.11-101.394 28.896-101.117 36.217-101.117-30.564-101.117 25.17-101.394-32.75L34 423.06v348.023l101.117 13.965 101.394 3.93 101.117-25.617 101.117-20.617 101.117 26.2 101.394-21.884 101.117 6.53 101.117-13.505 101.117-63.79L1046 614.17V354.33l-101.394 40.44z" opacity=".15" class="e"/><path d="M843.49 330.96l-101.117 14.34-101.117-7.8-101.394 27.663-101.117-11.56-101.117-20.653-101.117 31.44-101.394-43.075L34 308.62v114.44l101.117 9.53 101.394 32.75 101.117-25.17 101.117 30.564 101.117-36.217 101.394-28.896 101.117 5.11 101.117-9.018 101.117-6.944L1046 354.33v-70.073l-101.394 39.667z" opacity=".25" class="e"/><path d="M944.606 292.05L843.49 284.82l-101.117 11.47-101.117-19.045-101.394 30.13-101.117-16.952-101.117-16.86L236.51 301.98 135.117 181H34v127.62l101.117 12.702 101.394 43.075 101.117-31.44 101.117 20.653 101.117 11.56 101.394-27.663 101.117 7.8 101.117-14.34 101.117-7.037L1046 284.257v-31.872z" opacity=".35" class="e"/></g><path d="M758.938 338.1h-79.83c-5.523 0-10-4.477-10-10v-17.793c0-5.523 4.477-10 10-10h79.83c5.523 0 10 4.477 10 10V328.1c0 5.523-4.477 10-10 10z" class="d"/><g class="c i"><use xlink:href="#C"/><use xlink:href="#D"/><path d="M751.907 327.894h-.028c-.924 0-2.24-.504-2.77-2.184-1.177 1.65-2.996 2.66-5.433 2.66-4.563 0-7.027-3.752-7.027-7.924 0-4.228 2.52-7.896 7.027-7.896 2.437 0 4.256 1.008 5.433 2.632V313.8c0-.448.363-.784.812-.784.393 0 .784.28.784.784v11.284c0 1.792 2.016.672 2.016 2.016 0 .364-.252.784-.812.784zm-8.232-13.748c-3.304 0-5.432 2.66-5.432 6.3s2.128 6.328 5.432 6.328c3.332 0 5.433-2.687 5.433-6.328s-2.1-6.3-5.433-6.3z"/><use xlink:href="#E"/></g><g class="c i"><use xlink:href="#F"/><use xlink:href="#F" x="9.725"/><path d="M697.774 317.13H678.32a.7.7 0 0 0-.695.695v2.78a.7.7 0 0 0 .695.695v4.863a2.09 2.09 0 0 0 1.445 1.98 3.32 3.32 0 0 1-.056-.59 3.19 3.19 0 0 1 .146-.966 2.95 2.95 0 0 1 .076-.229c.472-1.348 1.785-2.28 3.25-2.28s2.78.93 3.272 2.313c.056.146.097.3.125.465a3.28 3.28 0 0 1 .076.695 3.28 3.28 0 0 1-.076.695h2.932a3.28 3.28 0 0 1-.076-.695c0-.236.028-.472.076-.695a2.96 2.96 0 0 1 .146-.5c.472-1.348 1.785-2.28 3.25-2.28s2.78.93 3.272 2.313l.063.188a3.39 3.39 0 0 1 .139.973c0 .2-.02.396-.056.6a2.09 2.09 0 0 0 1.445-1.98v-4.863a.7.7 0 0 0 .695-.695v-2.78a.7.7 0 0 0-.695-.695zm-3.634-1.4h2.286l-.076-.222c-.056-.174-.188-.32-.347-.396l-1.007-.507v-2.348a.71.71 0 0 0-.264-.542l-3.474-2.78a.67.67 0 0 0-.556-.14c-.195.035-.368.153-.472.327l-1.78 2.96-2.925-1.167a.71.71 0 0 0-.813.23l-1.938 2.584-2.536.632c-.25.063-.445.257-.507.507l-.215.86h14.624z"/></g><path d="M816.77 279.352H679.107c-5.523 0-10-4.477-10-10V251.56c0-5.523 4.477-10 10-10H816.77c5.523 0 10 4.477 10 10v17.793c0 5.523-4.477 10-10 10z" class="d"/><path d="M688.048 251.077a9.38 9.38 0 0 0-9.379 9.379 9.38 9.38 0 0 0 9.379 9.379 9.38 9.38 0 0 0 9.379-9.379 9.38 9.38 0 0 0-9.379-9.379zm.945 15.87c-.274.264-.637.396-1.088.396s-.813-.132-1.088-.396-.412-.6-.412-1.006a1.35 1.35 0 0 1 .421-1.02c.28-.267.64-.4 1.078-.4s.798.134 1.078.4.422.607.422 1.02c.001.406-.137.74-.412 1.006zm2.875-8.26c-.235.468-.645.984-1.23 1.552l-.75.715c-.47.45-.737.978-.805 1.584l-.038.565h-2.37c0-.866.105-1.554.315-2.067s.594-1.018 1.152-1.514.93-.903 1.116-1.215.277-.64.277-.988c0-1.045-.48-1.567-1.444-1.567-.457 0-.822.14-1.097.422s-.418.67-.43 1.164h-2.685c.013-1.18.393-2.102 1.143-2.77s1.773-1.002 3.07-1.002c1.31 0 2.324.316 3.046.95s1.083 1.527 1.083 2.682a3.26 3.26 0 0 1-.352 1.487z" class="c i"/><g class="c i"><use xlink:href="#G"/><use xlink:href="#H"/><path d="M748.462 255.64l-4.815 4.816 4.76 7.447c.084.112.168.28.168.448 0 .393-.42.756-.84.756a.79.79 0 0 1-.672-.363l-4.592-7.14-2.885 2.912v3.836c0 .504-.42.784-.783.784-.393 0-.812-.28-.812-.784v-18.368c0-.504.42-.783.813-.783.363 0 .783.28.783.783v12.265l7.73-7.73c.196-.195.392-.252.588-.252.448 0 .812.364.812.784 0 .196-.056.392-.252.588z"/><use xlink:href="#H" x="28.812"/><path d="M773.186 269.612c-4.508 0-7.027-3.695-7.027-7.924 0-4.2 2.52-7.896 7.027-7.896s7.028 3.695 7.028 7.896c0 4.23-2.52 7.924-7.028 7.924zm0-14.224c-3.304 0-5.432 2.66-5.432 6.3s2.128 6.328 5.432 6.328c3.332 0 5.433-2.687 5.433-6.328s-2.1-6.3-5.433-6.3zm28.214-.084l-4.563 13.16c-.196.532-.448.672-.812.672-.476 0-.616-.168-.784-.672l-3.668-10.92-3.668 10.92c-.195.532-.447.672-.812.672s-.645-.224-.784-.672l-4.536-13.16c-.027-.084-.056-.224-.056-.308 0-.448.448-.73.812-.73.28 0 .616.14.73.532l3.836 11.088 3.668-10.948c.168-.53.336-.672.812-.672.336 0 .616.112.784.672l3.725 10.948 3.78-11.088c.14-.392.42-.532.73-.532.42 0 .868.28.868.756 0 .112-.028.196-.057.28z"/><use xlink:href="#H" x="81.536"/></g><path d="M798.77 396.868H679.107c-5.523 0-10-4.477-10-10v-17.793c0-5.523 4.477-10 10-10H798.77c5.523 0 10 4.477 10 10v17.793c0 5.523-4.477 10-10 10z" class="d"/><g class="c i"><use xlink:href="#H" x="-15.942" y="117.516"/><use xlink:href="#G" x="15.94" y="117.516"/><use xlink:href="#C" x="31.304" y="58.758"/><path d="M755.183 386.82c-1.513 0-2.772-1.4-2.772-2.968V367.5c0-.504.42-.783.813-.783.363 0 .783.28.783.783v16.353c0 1.792 1.988.756 1.988 2.016 0 .477-.336.952-.812.952zm15.427-6.804H759c.252 3.2 2.324 5.516 5.376 5.516 1.513 0 3.305-.672 4.116-1.932.196-.3.42-.393.672-.393.42 0 .868.336.868.757 0 .252 0 .308-.532.924-1.288 1.512-3.164 2.24-5.124 2.24-4.508 0-7.027-3.695-7.027-7.924 0-4.2 2.52-7.896 7.027-7.896s7.028 3.724 7.028 7.896c0 .42-.392.813-.784.813zm-6.244-7.112c-3.36 0-5.124 2.576-5.376 5.516h10.78c-.252-3.2-2.324-5.516-5.404-5.516z"/><use xlink:href="#I"/><use xlink:href="#J"/></g><path d="M685.374 375.174a.9.9 0 0 0 .815.521c.13 0 .258-.028.377-.083.957-.443 2.047-.443 3.005 0 .216.1.463.1.687.028a.9.9 0 0 0 .505-.466l2.258-4.893a.9.9 0 0 0-.438-1.191 10.67 10.67 0 0 0-4.513-.992c-1.572 0-3.1.334-4.514.992a.9.9 0 0 0-.438 1.191l2.26 4.893zm.584 6.638c-.43-.304-.78-.685-1.04-1.134a3.55 3.55 0 0 1-.463-1.468.9.9 0 0 0-.975-.813l-5.367.5a.9.9 0 0 0-.812.975 10.69 10.69 0 0 0 1.398 4.405 10.68 10.68 0 0 0 3.115 3.413c.158.1.338.164.517.164.282 0 .56-.132.734-.38l3.108-4.402a.9.9 0 0 0-.216-1.251zm4-1.84c.6-1.042.242-2.378-.8-2.98a2.18 2.18 0 0 0-1.089-.293 2.19 2.19 0 0 0-1.89 1.091c-.3.505-.37 1.092-.218 1.655a2.17 2.17 0 0 0 1.016 1.324 2.18 2.18 0 0 0 1.09.293 2.19 2.19 0 0 0 1.89-1.091zm8.025-1.084l-5.366-.5a.91.91 0 0 0-.657.204.9.9 0 0 0-.32.609c-.047.525-.203 1.02-.463 1.468s-.6.83-1.04 1.134c-.195.137-.327.346-.367.58s.014.476.15.67l3.108 4.402a.89.89 0 0 0 1.249.216 10.69 10.69 0 0 0 4.514-7.818.9.9 0 0 0-.81-.975z" class="c i"/><path d="M845.52 455.626H679.107c-5.523 0-10-4.477-10-10v-17.793c0-5.523 4.477-10 10-10H845.52c5.523 0 10 4.477 10 10v17.793c0 5.523-4.477 10-10 10z" class="d"/><path d="M687.58 441.128c.68-1.178 1.145-2.393 1.412-3.64.2-.928.3-1.875.28-2.837 1.64 1.746 2.812 3.54 3.172 5.412.395 2.06-.2 4.25-2.25 6.63h-4.688c-2.078-2.44-1.45-3.924-.645-5.817.302-.7.626-1.474.86-2.358a4.14 4.14 0 0 1 .581.838c.265.5.45 1.063.574 1.67.07.352.53.402.702.104m7.88-2.983c-.846-3.338-3.44-7.43-8.677-12.042a.38.38 0 0 0-.627.316c.034 1.362-1.108 3.4-2.378 5.67-.797 1.424-1.643 2.935-2.296 4.454-1.63 3.794-2.074 7.598 2.26 10.15h-1.923a.38.38 0 0 0-.379.379.38.38 0 0 0 .379.379h12.48a.38.38 0 0 0 .379-.379.38.38 0 0 0-.379-.379h-1.966c3.176-1.792 3.97-5.215 3.125-8.548z" class="c i"/><g class="c i"><use xlink:href="#H" x="-15.932" y="176.264"/><use xlink:href="#K"/><use xlink:href="#L"/><use xlink:href="#G" x="41.242" y="176.264"/><use xlink:href="#J" x="-28.279" y="58.758"/><use xlink:href="#K" x="49.276"/><path d="M791.52 445.578c-1.513 0-2.772-1.4-2.772-2.968v-16.353c0-.504.42-.783.813-.783.363 0 .783.28.783.783V442.6c0 1.792 1.988.756 1.988 2.016 0 .477-.336.952-.812.952zm15.483 6.215c-2.38 0-5.74-.896-5.74-1.904 0-.447.363-.896.812-.896.308 0 .952.476 1.484.672.728.252 1.876.532 3.443.532 3.584 0 5.433-1.764 5.433-5.208v-1.96c-1.232 1.484-2.996 2.38-5.433 2.38-4.424 0-7.027-3.136-7.027-7.448 0-4.2 2.52-7.896 7.027-7.896 2.437 0 4.256 1.008 5.433 2.632v-1.344c0-.504.42-.784.812-.784.364 0 .784.28.784.784V445c0 4.452-2.66 6.804-7.028 6.804zm0-20.132c-3.304 0-5.432 2.66-5.432 6.3 0 3.612 1.988 5.853 5.432 5.853s5.433-2.24 5.433-5.853c0-3.64-2.1-6.3-5.433-6.3z"/><use xlink:href="#K" x="95.39"/><use xlink:href="#M"/></g><path d="M807.27 757.793H679.107c-5.523 0-10-4.477-10-10V730c0-5.523 4.477-10 10-10H807.27c5.523 0 10 4.477 10 10v17.793c0 5.523-4.477 10-10 10z" class="d"/><g class="c"><path d="M697.377 745.77l-6.294-13.7v-2.073a.83.83 0 0 0 .684-.82c0-.46-.374-.833-.833-.833h-5.772c-.46 0-.833.373-.833.833 0 .4.295.75.684.82v2.073l-6.294 13.7a2.35 2.35 0 0 0-.394 1.306 2.37 2.37 0 0 0 2.365 2.365h14.716a2.37 2.37 0 0 0 2.365-2.365 2.35 2.35 0 0 0-.394-1.306zm-9.44-5.83c.06-.06.16-.06.22 0a4.83 4.83 0 0 1 1.292 2.355c.013.058-.008.12-.055.156a5.38 5.38 0 0 0-1.214 1.358c-.028.045-.078.073-.132.073s-.103-.027-.132-.072a5.42 5.42 0 0 0-1.216-1.358c-.047-.037-.068-.098-.055-.156a4.79 4.79 0 0 1 1.293-2.355zm.1 6.866a4.83 4.83 0 0 1-4.823-4.823c0-.086.07-.156.156-.156a4.83 4.83 0 0 1 4.822 4.823c0 .086-.07.156-.155.156zm.872-.083c-.01.002-.018.002-.028.002-.036 0-.07-.012-.1-.035a.16.16 0 0 1-.057-.118 5.3 5.3 0 0 0-.372-1.879c-.016-.04-.014-.086.005-.125a4.85 4.85 0 0 1 4.345-2.741c.086 0 .156.07.155.156 0 2.328-1.66 4.32-3.95 4.74zm24.236 1.33c-2.437 0-4.256-1.008-5.433-2.66v1.4c0 .504-.42.784-.783.784-.393 0-.812-.28-.812-.784v-18.368c0-.504.42-.783.813-.783.363 0 .783.28.783.783v6.44c1.177-1.624 2.996-2.632 5.433-2.632 4.508 0 7.027 3.696 7.027 7.896 0 4.23-2.52 7.924-7.027 7.924zm0-14.224c-3.332 0-5.433 2.66-5.433 6.3s2.1 6.328 5.433 6.328 5.432-2.687 5.432-6.328-2.1-6.3-5.432-6.3zm10.612-3.81a1.58 1.58 0 0 1-1.597-1.597c0-.897.7-1.596 1.597-1.596s1.596.7 1.596 1.596-.7 1.597-1.596 1.597zm0 17.556c-.393 0-.812-.252-.812-.784v-13.3c0-.504.393-.784.813-.784.363 0 .783.252.783.784v13.3c0 .504-.363.784-.783.784z"/><use xlink:href="#D" x="6.86" y="419.683"/><use xlink:href="#N"/><use xlink:href="#I" x="-7.81" y="360.925"/><use xlink:href="#M" x="-51.094" y="302.168"/><use xlink:href="#M" x="-38.355" y="302.168"/></g><path d="M848.52 804.95H679.107c-5.523 0-10-4.477-10-10v-17.793c0-5.523 4.477-10 10-10H848.52c5.523 0 10 4.477 10 10v17.793c0 5.523-4.477 10-10 10z" class="d"/><g class="c"><path d="M691.846 783.92l-.464-6.85h-1.037l-.343 5.056h-.694v-1.815h-5.705v3.695c-2.154.31-4.237.84-6.223 1.574v11.142h4.74c0-1.482 1.482-2.37 1.482-4.15s-1.185-2.667-1.185-4.15h-.89l1.778-2.37 1.778 2.37h-.89c0 1.482 1.185 2.37 1.185 4.15s-1.482 2.667-1.482 4.15h2.963c0-1.482 1.482-2.37 1.482-4.15s-1.185-2.667-1.185-4.15h-.89l1.778-2.37 1.778 2.37h-.89c0 1.482 1.185 2.37 1.185 4.15s-1.482 2.667-1.482 4.15h2.964c0-1.482 1.482-2.37 1.482-4.15s-1.185-2.667-1.185-4.15h-.89l1.778-2.37 1.778 2.37h-.89c0 1.482 1.185 2.37 1.185 4.15s-1.482 2.667-1.482 4.15h5.334V785.58a30.61 30.61 0 0 0-6.87-1.659z"/><path d="M686.066 776.42h2.593c.45 0 1.815 0 1.815.26h.778c0-1.037-1.438-1.037-2.593-1.037h-2.593a7.42 7.42 0 0 1-1.685-.259c.045.017.4 1.037 1.685 1.037zm27.004 24.696c-2.38 0-5.74-.896-5.74-1.904 0-.447.363-.896.812-.896.308 0 .952.476 1.484.672.728.252 1.876.532 3.443.532 3.584 0 5.433-1.764 5.433-5.208v-1.96c-1.232 1.484-2.996 2.38-5.433 2.38-4.424 0-7.027-3.136-7.027-7.448 0-4.2 2.52-7.896 7.027-7.896 2.437 0 4.256 1.008 5.433 2.632v-1.344c0-.504.42-.784.812-.784.364 0 .784.28.784.784v13.636c0 4.452-2.66 6.804-7.028 6.804zm0-20.132c-3.304 0-5.432 2.66-5.432 6.3 0 3.612 1.988 5.853 5.432 5.853s5.433-2.24 5.433-5.853c0-3.64-2.1-6.3-5.433-6.3z"/><use xlink:href="#O"/><use xlink:href="#D" x="18.592" y="466.838"/><use xlink:href="#L" x="16.408" y="349.332"/><path d="M775.762 794.732c-.393 0-.812-.28-.812-.784v-8.176a4.77 4.77 0 0 0-4.788-4.788c-2.632 0-4.788 2.128-4.788 4.788v8.176c0 .504-.42.784-.783.784-.393 0-.812-.28-.812-.784V775.58c0-.504.42-.783.813-.783.363 0 .783.28.783.783v5.965c1.177-1.372 2.885-2.156 4.788-2.156a6.44 6.44 0 0 1 6.385 6.384v8.176c0 .504-.42.784-.784.784z"/><use xlink:href="#O" x="56.194"/><use xlink:href="#J" x="4.312" y="408.08"/><use xlink:href="#N" x="60.424" y="47.155"/><use xlink:href="#I" x="52.613" y="408.08"/><path d="M846.965 794.9c-1.513 0-2.772-1.4-2.772-2.968V775.58c0-.504.42-.783.813-.783.363 0 .783.28.783.783v16.353c0 1.792 1.988.756 1.988 2.016 0 .477-.336.952-.812.952z"/></g><path d="M774.27 946.416h-95.162c-5.523 0-10-4.477-10-10v-17.793c0-5.523 4.477-10 10-10h95.162c5.523 0 10 4.477 10 10v17.793c0 5.523-4.477 10-10 10z" class="d"/><g class="c"><path d="M717.692 936.2c-.393 0-.812-.28-.812-.784v-8.176a4.77 4.77 0 0 0-4.788-4.788c-2.632 0-4.788 2.128-4.788 4.788v8.176c0 .504-.42.784-.783.784-.393 0-.812-.28-.812-.784v-18.368c0-.504.42-.783.813-.783.363 0 .783.28.783.783v5.965c1.177-1.372 2.885-2.156 4.788-2.156a6.44 6.44 0 0 1 6.385 6.384v8.176c0 .504-.42.784-.784.784zm16.015-13.75l-7.587 17.95c-.56 1.315-1.708 1.68-2.996 1.68h-1.232c-.504 0-.784-.42-.784-.812 0-.364.28-.784.784-.784h1.232c.616 0 1.26-.028 1.512-.672l1.596-3.8-5.796-13.552c-.056-.14-.056-.252-.056-.364 0-.447.392-.756.812-.756.252 0 .56.112.7.477l5.208 12.15 5.152-12.15c.14-.364.448-.477.728-.477.42 0 .784.3.784.756 0 .112 0 .225-.056.364zM747.8 936.2c-.392 0-.812-.28-.812-.784v-1.4c-1.177 1.65-2.996 2.66-5.433 2.66-4.508 0-7.027-3.695-7.027-7.924 0-4.2 2.52-7.896 7.027-7.896 2.437 0 4.256 1.008 5.433 2.632v-6.44c0-.504.42-.783.812-.783a.78.78 0 0 1 .784.783v18.368c0 .504-.42.784-.784.784zm-6.244-13.748c-3.304 0-5.432 2.66-5.432 6.3s2.128 6.328 5.432 6.328c3.332 0 5.433-2.687 5.433-6.328s-2.1-6.3-5.433-6.3z"/><use xlink:href="#J" x="-39.592" y="549.547"/><use xlink:href="#D" x="39.563" y="608.305"/><path d="M695.345 931.116c-.216-.89-.486-1.756-.8-2.62-.756-2.053-1.702-4.025-2.62-5.997l-2.54-4.943-1.135-2.08c-.135-.243-.19-.243-.35 0-.027.054-.054.08-.08.135l-4.214 8.158c-.946 2-1.837 3.998-2.512 6.105-.27.837-.486 1.702-.486 2.836.08 1.702.73 3.43 2.107 4.78 1.837 1.864 4.106 2.593 6.7 2.107 2.674-.513 4.538-2.08 5.565-4.62.54-1.216.675-2.512.378-3.863zm-3.54-3.188l-1.46 1.837-1.675 2.134-1.702 2.134-1.135 1.432-1.35 1.73c-.108.135-.243.27-.324.432h-.054c0-.135.054-.27.108-.405l.594-2.026 1.162-3.9c.027-.054.027-.108-.08-.08l-2.053.19-.837.054c-.027 0-.08.027-.08 0s.027-.054.027-.08l1.026-1.243 1.054-1.27 1.918-2.296 2.27-2.728 1.513-1.837h.027c.027.054 0 .08-.027.135l-1.405 4.133-.567 1.702c-.027.08 0 .108.08.108l2.43-.216c.162 0 .324-.027.46-.027.027 0 .054-.027.08 0 .054.054.027.054 0 .08z"/></g><path d="M766.02 899.26h-86.912c-5.523 0-10-4.477-10-10v-17.793c0-5.523 4.477-10 10-10h86.912c5.523 0 10 4.477 10 10v17.793c0 5.523-4.477 10-10 10z" class="d"/><g class="c"><use xlink:href="#M" x="-128.177" y="443.634"/><use xlink:href="#D" x="-1.68" y="561.15"/><use xlink:href="#E" x="-19.097" y="561.15"/><use xlink:href="#I" x="-32.982" y="502.392"/><use xlink:href="#J" x="-32.983" y="502.392"/><path d="M688.048 872.317c-4.446 0-8.045 3.603-8.045 8.046s3.6 8.044 8.045 8.044a8.05 8.05 0 0 0 8.044-8.044 8.05 8.05 0 0 0-8.044-8.046zm0-4.056l-1.8 3.117h3.6l-1.798-3.117zm-6.052 1.622v3.6l3.117-1.8-3.117-1.8zm-.83 4.43h-3.6l1.8 3.117 1.8-3.117zm-2.102 4.252l-3.117 1.8 3.117 1.798v-3.598zm-1.497 7.85h3.6l-1.8-3.116-1.8 3.117zm4.43 4.43l3.117-1.8-3.117-1.8v3.6zm6.052 1.62l1.798-3.117h-3.6l1.8 3.117zm6.05-1.62v-3.6l-3.118 1.8 3.118 1.8zm.83-4.43h3.6l-1.8-3.117-1.8 3.116zm2.104-4.25l3.118-1.8-3.118-1.8v3.6zm1.497-7.85l-3.6.001 1.8 3.117 1.8-3.118zm-4.43-4.43l-3.118 1.8 3.118 1.8v-3.6z"/></g><path d="M762.27 852.104h-83.162c-5.523 0-10-4.477-10-10V824.31c0-5.523 4.477-10 10-10h83.162c5.523 0 10 4.477 10 10v17.793c0 5.523-4.477 10-10 10z" class="d"/><g class="c"><path d="M725.67 828.057l-4.563 13.16c-.196.53-.448.672-.812.672-.476 0-.616-.168-.784-.672l-3.668-10.92-3.668 10.92c-.195.53-.447.672-.812.672s-.645-.225-.784-.672l-4.536-13.16c-.027-.084-.056-.225-.056-.3 0-.447.448-.73.812-.73.28 0 .616.14.73.533l3.836 11.088 3.668-10.95c.168-.53.336-.672.812-.672.336 0 .616.113.784.672l3.725 10.95 3.78-11.088c.14-.393.42-.533.73-.533.42 0 .868.28.868.756a.82.82 0 0 1-.057.281zm2.996-3.725c-.896 0-1.597-.7-1.597-1.596s.7-1.596 1.597-1.596 1.596.7 1.596 1.596-.7 1.596-1.596 1.596zm0 17.557c-.393 0-.812-.252-.812-.785v-13.3c0-.504.393-.785.813-.785.363 0 .783.252.783.785v13.3c0 .504-.363.785-.783.785zm16.184.001c-.393 0-.812-.28-.812-.785v-8.176c0-2.66-2.128-4.787-4.788-4.787-2.632 0-4.788 2.127-4.788 4.787v8.176c0 .504-.42.785-.783.785-.393 0-.812-.28-.812-.785v-13.3c0-.504.42-.785.813-.785.363 0 .783.28.783.785v.896c1.26-1.373 2.912-2.156 4.788-2.156 3.473 0 6.385 2.883 6.385 6.383v8.176c0 .504-.42.785-.784.785zm16.576 0c-.392 0-.812-.28-.812-.785v-1.398c-1.177 1.65-2.996 2.658-5.433 2.658-4.508 0-7.027-3.695-7.027-7.924 0-4.2 2.52-7.895 7.027-7.895 2.437 0 4.256 1.008 5.433 2.63v-6.44c0-.504.42-.783.812-.783a.78.78 0 0 1 .784.783v18.367c0 .504-.42.785-.784.785zm-6.244-13.748c-3.304 0-5.432 2.66-5.432 6.3s2.128 6.328 5.432 6.328c3.332 0 5.433-2.687 5.433-6.328s-2.1-6.3-5.433-6.3zM693.877 831c-2.035-.617-3.886-.802-5.12-.617-.062 0-.185-.062-.247-.123-.123-.247-.308-.432-.493-.555-.062-.062-.123-.123-.062-.247.247-1.172.308-2.9 0-4.8-.493-3.392-1.8-6.045-2.9-5.92-1.1.185-1.604 3.084-1.1 6.477.308 2.035.864 3.763 1.48 4.8.062.062.062.123 0 .185-.062.123-.062.185-.123.308-.062.185-.062.37-.062.493s-.062.185-.185.247c-1.172.308-2.837 1.172-4.44 2.467-2.714 2.097-4.38 4.564-3.7 5.428s3.454-.123 6.168-2.282c.864-.678 1.665-1.42 2.282-2.097.123-.185.37-.062.37.185l-.493 12.768h3.578l-.493-14.495c0-.185.185-.308.37-.185.987.68 2.406 1.295 4 1.8 3.33.987 6.23.864 6.6-.185.308-1.05-2.097-2.714-5.428-3.64z"/><use xlink:href="#P"/><use xlink:href="#P" x="15.212"/><path d="M1018.42 795.23c-1.674 0-3.04-1.52-3.04-3.387s1.366-3.367 3.04-3.367c1.654 0 3.02 1.5 3.02 3.367s-1.366 3.387-3.02 3.387zm0-5.118c-.616 0-1.386.616-1.386 1.73s.77 1.732 1.386 1.732 1.386-.616 1.386-1.732-.77-1.73-1.386-1.73zm8.023-.942l-3.54 12.737a.75.75 0 0 1-.751.616c-.442 0-.865-.31-.865-.81 0-.058 0-.154.02-.23l3.56-12.757c.116-.404.443-.597.77-.597.403 0 .847.288.847.77 0 .096-.02.173-.04.27zm2.732 13.007c-1.655 0-3.02-1.52-3.02-3.387 0-1.847 1.365-3.367 3.02-3.367 1.674 0 3.04 1.52 3.04 3.367 0 1.866-1.366 3.387-3.04 3.387zm0-5.118c-.597 0-1.366.615-1.366 1.73 0 1.136.77 1.75 1.366 1.75.615 0 1.386-.615 1.386-1.75 0-1.116-.77-1.73-1.386-1.73z"/></g><path d="M1043 616.17v300.4c0 19.25-15.75 35-35 35h-24.23" stroke-width="6" stroke-linecap="round" class="f g h"/><g class="d f g h j"><path d="M943.748 951.023v-1"/><path d="M943.748 944V184.18" class="k"/><path d="M943.748 181.17v-1"/></g><g class="d f g h j"><path d="M842.52 951.023v-1"/><path d="M842.52 944V184.18" class="k"/><path d="M842.52 181.17v-1"/></g><g class="d f g h j"><path d="M741.292 951.023v-1"/><path d="M741.292 944V184.18" class="k"/><path d="M741.292 181.17v-1"/></g><g class="d f g h j"><path d="M640.064 951.023v-1"/><path d="M640.064 944V184.18" class="k"/><path d="M640.064 181.17v-1"/></g><g class="d f g h j"><path d="M538.836 951.023v-1"/><path d="M538.836 944V184.18" class="k"/><path d="M538.836 181.17v-1"/></g><g class="d f g h j"><path d="M437.608 951.023v-1"/><path d="M437.608 944V184.18" class="k"/><path d="M437.608 181.17v-1"/></g><g class="d f g h j"><path d="M336.38 951.023v-1"/><path d="M336.38 944V184.18" class="k"/><path d="M336.38 181.17v-1"/></g><g class="d f g h j"><path d="M235.152 951.023v-1"/><path d="M235.152 944V184.18" class="k"/><path d="M235.152 181.17v-1"/></g><path d="M100.77 565.596h945.167" stroke-dasharray="2,6" class="d f g h j"/><g class="d f g h j"><path d="M133.924 951.023v-1"/><path d="M133.924 944V184.18" class="k"/><path d="M133.924 181.17v-1"/></g><path d="M54.04 216.5c-.42 0-.784-.308-.784-.784v-16.744l-3.052 2.97a.69.69 0 0 1-.532.252c-.448 0-.84-.42-.84-.868 0-.168.112-.364.252-.532l4.424-4.284c.224-.168.448-.224.532-.224.588 0 .812.42.812.98v18.452c0 .477-.336.784-.812.784zm9.744.476c-5.937 0-5.992-7.1-5.992-11.2 0-4.004.615-9.716 5.964-9.716 5.235 0 6.02 5.376 6.02 9.716 0 4.06-.084 11.2-6 11.2zm4.396-11.2c0-4.004-.56-8.12-4.395-8.12-4.2 0-4.396 5.15-4.396 8.12v1.792c0 3.248.616 7.812 4.368 7.812 3.836 0 4.424-4.563 4.424-7.812v-1.792zm10.05 11.2c-5.937 0-5.992-7.1-5.992-11.2 0-4.004.615-9.716 5.964-9.716 5.235 0 6.02 5.376 6.02 9.716 0 4.06-.084 11.2-6 11.2zm4.395-11.2c0-4.004-.56-8.12-4.396-8.12-4.2 0-4.396 5.15-4.396 8.12v1.792c0 3.248.616 7.812 4.368 7.812 3.836 0 4.424-4.563 4.424-7.812v-1.792zm5.68-4.494c-1.42 0-2.58-1.3-2.58-2.874s1.16-2.857 2.58-2.857c1.404 0 2.563 1.273 2.563 2.857s-1.16 2.874-2.563 2.874zm0-4.817c-.815 0-1.648.768-1.648 1.943s.833 1.943 1.648 1.943 1.633-.768 1.633-1.943-.816-1.943-1.633-1.943zm6.172-.604l-3.118 11.266c-.082.23-.213.343-.408.343-.245 0-.506-.196-.506-.474 0-.05 0-.098.016-.13l3.12-11.266c.08-.244.23-.358.424-.358.23 0 .5.212.5.5a.45.45 0 0 1-.017.131zm2.024 11.314c-1.404 0-2.563-1.3-2.563-2.873 0-1.568 1.16-2.857 2.563-2.857 1.42 0 2.58 1.3 2.58 2.857 0 1.583-1.16 2.873-2.58 2.873zm0-4.8c-.816 0-1.633.767-1.633 1.927 0 1.175.816 1.942 1.633 1.942.833 0 1.65-.768 1.65-1.942 0-1.16-.816-1.927-1.65-1.927z" class="c i"/><path d="M54.264 575.28c-1.876 0-4.004-1.008-5.04-2.66-.112-.168-.14-.308-.14-.448 0-.448.42-.812.84-.812s.448.224.868.672c.896 1.063 2.07 1.65 3.472 1.65 2.464 0 4.676-2.128 4.676-5.067 0-2.968-2.212-5.096-4.676-5.096-1.932 0-3.192 1.23-3.696 1.987-.168.28-.42.393-.756.393-.476 0-.812-.3-.812-.84v-9.212c0-.476.363-.783.784-.783h9.352c.56 0 .84.392.84.783s-.28.784-.84.784h-8.54v6.552c.896-.728 2.1-1.26 3.668-1.26 3.444 0 6.272 2.912 6.272 6.692 0 3.724-2.828 6.664-6.272 6.664zm14.25.196c-5.936 0-6-7.1-6-11.2 0-4.004.616-9.716 5.964-9.716 5.235 0 6.02 5.376 6.02 9.716 0 4.06-.084 11.2-5.992 11.2zm4.396-11.2c0-4.004-.56-8.12-4.396-8.12-4.2 0-4.396 5.15-4.396 8.12v1.792c0 3.248.616 7.812 4.368 7.812 3.836 0 4.424-4.563 4.424-7.812v-1.792zm5.68-4.494c-1.42 0-2.58-1.3-2.58-2.874s1.16-2.857 2.58-2.857c1.404 0 2.563 1.273 2.563 2.857s-1.16 2.874-2.563 2.874zm0-4.817c-.816 0-1.648.768-1.648 1.943s.832 1.943 1.648 1.943 1.633-.768 1.633-1.943-.816-1.943-1.633-1.943zm6.172-.604l-3.118 11.266c-.082.23-.212.343-.408.343-.245 0-.506-.196-.506-.474 0-.05 0-.098.016-.13l3.12-11.266c.08-.244.23-.358.424-.358.23 0 .5.212.5.5a.45.45 0 0 1-.017.131zm2.024 11.314c-1.404 0-2.563-1.3-2.563-2.873s1.16-2.857 2.563-2.857c1.42 0 2.58 1.3 2.58 2.857 0 1.583-1.16 2.873-2.58 2.873zm0-4.8c-.816 0-1.633.767-1.633 1.927 0 1.175.816 1.942 1.633 1.942.833 0 1.65-.768 1.65-1.942 0-1.16-.816-1.927-1.65-1.927z" class="c i"/><g opacity=".4" class="c"><path d="M33.424 990.452v-1.92c1.85-6.848 7.63-10.687 7.63-15.935 0-2.432-1.098-3.647-2.514-3.647-1.647 0-2.86 1.407-3.035 4.863h-1.907c.23-5.248 2.37-6.783 4.884-6.783 2.746 0 4.653 2.048 4.653 5.887 0 5.76-4.682 7.552-7.803 15.615h7.918v1.92h-9.825z"/><use xlink:href="#Q"/><use xlink:href="#Q" x="11.1"/><use xlink:href="#R"/></g><g opacity=".4" class="c"><use xlink:href="#S"/><use xlink:href="#T"/><use xlink:href="#U"/><use xlink:href="#R" x="969.506"/></g><g opacity=".4" class="c"><use xlink:href="#S" x="-484.607"/><use xlink:href="#T" x="-484.607"/><use xlink:href="#U" x="-484.606"/><use xlink:href="#S" x="-451.312"/></g><g opacity=".3" class="c"><path d="M42.328 1046.045c-3.568 0-5.47-1.97-5.503-2.002 0 .935-.7 1.4-1.468 1.4-.7 0-1.4-.467-1.4-1.4v-20.88a1.35 1.35 0 0 1 1.401-1.434c.767 0 1.468.467 1.468 1.4v6.238c1.334-1.368 3.168-2.17 5.503-2.17 5.37 0 8.373 4.403 8.373 9.406 0 5.037-3.002 9.44-8.373 9.44zm0-16c-3.335 0-5.503 2.602-5.503 6.57 0 4.003 2.168 6.604 5.503 6.604s5.504-2.602 5.504-6.604c0-3.97-2.168-6.57-5.504-6.57zm25.555 8.037h-12.34c.467 3.136 2.468 5.137 5.403 5.137 1.5 0 3.002-.533 3.97-1.734.3-.333.634-.533 1.034-.533.734 0 1.5.667 1.5 1.468 0 .4-.1.7-.8 1.4-1.5 1.468-3.57 2.235-5.704 2.235-5.37 0-8.372-4.437-8.372-9.44 0-4.97 3.002-9.406 8.372-9.406 5.437 0 8.34 4.437 8.34 9.406 0 .734-.534 1.468-1.4 1.468zm-6.937-8.038c-3.136 0-4.97 2.3-5.403 5.17H66.35c-.467-3.202-2.468-5.17-5.403-5.17zM88 1045.478c-1.834 0-2.668-1.3-2.97-1.9-1.334 1.468-3.27 2.47-5.87 2.47-5.437 0-8.372-4.47-8.372-9.44s3.002-9.406 8.372-9.406c2.335 0 4.203.834 5.504 2.202v-.134c0-.367.133-1.5 1.4-1.5.7 0 1.468.367 1.468 1.4v12.875c0 .434.3.6.467.6.935 0 1.435.667 1.435 1.434a1.37 1.37 0 0 1-1.435 1.401zm-8.84-15.443c-3.336 0-5.504 2.602-5.504 6.57 0 4.003 2.168 6.604 5.504 6.604 3.37 0 5.504-2.602 5.504-6.604 0-3.97-2.135-6.57-5.504-6.57z"/><use xlink:href="#V"/><path d="M115.158 1045.478h-.567c-3.17 0-4.37-1.668-4.37-4.403V1030.6h-1c-.8 0-1.435-.634-1.435-1.4 0-.8.634-1.435 1.4-1.435h1v-4.637c0-.934.7-1.4 1.435-1.4s1.4.467 1.4 1.4v4.637h2.135c.934 0 1.4.768 1.4 1.4 0 .8-.533 1.434-1.4 1.434h-2.135v10.774c0 .934.333 1.268 1.268 1.268h.833c.868 0 1.435.634 1.435 1.4 0 .8-.533 1.435-1.4 1.435zm4.604-20.415a2.402 2.402 0 1 1 0-4.803 2.402 2.402 0 1 1 0 4.803zm0 20.414c-.733 0-1.467-.5-1.467-1.4V1029.2c0-.935.733-1.435 1.467-1.435a1.37 1.37 0 0 1 1.401 1.435v14.876c0 .935-.7 1.4-1.4 1.4zm10.376-14.877h-1.5v13.442c0 .935-.7 1.4-1.468 1.4-.7 0-1.4-.467-1.4-1.4V1030.6h-1.37c-.9 0-1.4-.667-1.4-1.4 0-.768.5-1.435 1.4-1.435h1.367v-2.27c0-2.135 1.77-3.77 3.836-3.77.968 0 1.468.667 1.468 1.434 0 .7-.5 1.4-1.468 1.4-.566 0-.967.434-.967.9v2.302h1.5c.967 0 1.468.667 1.468 1.435 0 .733-.5 1.4-1.468 1.4z"/><use xlink:href="#V" x="42.068"/><path d="M154.725 1045.544c-1.802 0-3.336-1.534-3.336-3.402v-18.98c0-.967.7-1.434 1.435-1.434s1.435.467 1.435 1.4v19.013c0 .4.3.567.467.567.934 0 1.435.667 1.435 1.435 0 .733-.5 1.4-1.435 1.4zm15.37-.066v-1.264c1.886-.237 2.046-.437 2.046-3.157v-6.7c0-2.8-1.248-4.017-3.064-4.017-1.237 0-2.345.6-3.47 1.493v9.476c0 2.527.187 2.658 2.06 2.896v1.264h-8.968v-1.264c2.254-.33 2.5-.4 2.5-3v-8.2c0-2.446-.303-2.565-2.185-2.922v-1.184c2.173-.292 4.63-.807 6.653-1.533l-.052 2.95 2.6-1.745c1.16-.713 2-1.086 3.16-1.086 3.194 0 5.2 2.338 5.2 6.3v7.5c0 2.54.237 2.657 2.277 2.92v1.264h-8.74zm23.9-3.703c-2.458 3.427-5.488 4.178-7.014 4.178-5.142 0-8.124-3.936-8.124-8.594 0-2.745 1.183-5.396 2.832-7.062 1.74-1.8 3.945-2.814 6.082-2.814 3.73 0 6.396 3.126 6.37 6.347-.014.715-.08 1.277-.612 1.4-.767.184-6.17.5-10.318.647.062 4.587 2.717 6.74 5.556 6.74 1.572 0 3.104-.597 4.543-1.866l.686 1.014zm-7.07-12.7c-1.667 0-3.167 1.807-3.516 4.963l5.486-.118c.6-.026.848-.146.848-.792.04-2.022-1.037-4.053-2.818-4.053zm34.284.145c-1.943.343-2.248.624-3.105 2.765-1.33 3.462-3.102 8.53-4.934 13.94h-1.512l-4.65-11.46-4.55 11.46h-1.472l-4.685-14.192c-.687-1.985-.94-2.274-2.855-2.512v-1.25h9.397v1.25c-2.325.345-2.535.672-2.058 2.133l2.52 8.214c1.507-3.68 2.988-7.62 4.327-11.424h1.456c1.4 3.76 2.986 7.702 4.573 11.568.742-2.107 2.062-5.964 2.557-8.108.412-1.674-.008-2.078-2.753-2.383v-1.25h7.742v1.25zm9.4 3.746c-.92-2.606-2.155-3.984-4.2-3.984-1.206 0-2.225.86-2.225 2.266 0 1.497 1.046 2.264 3.16 3.216 3.278 1.496 5.3 2.787 5.3 5.736 0 3.85-3.6 5.764-6.945 5.764-2.06 0-4.088-.737-4.92-1.16l-.662-4.892 1.252-.224c.8 2.5 2.33 4.75 4.976 4.75 1.505 0 2.438-.952 2.438-2.28 0-1.423-.76-2.333-3.092-3.467-2.67-1.295-5.107-2.64-5.107-5.775 0-3.046 2.533-5.42 6.565-5.42 1.818 0 3.242.396 4.112.567l.62 4.577-1.25.328z"/></g><g opacity=".5" class="c"><use xlink:href="#W"/><use xlink:href="#X"/><path d="M736.383 1045.98c-.28 0-.58-.2-.58-.56v-.64c-.84.98-2.06 1.54-3.42 1.54-2.48 0-4.56-2.08-4.56-4.56v-5.842c0-.36.3-.56.58-.56.26 0 .56.2.56.56v5.842c0 1.9 1.52 3.42 3.42 3.42s3.42-1.52 3.42-3.42v-5.842c0-.36.3-.56.58-.56.26 0 .56.2.56.56v9.502c0 .36-.3.56-.56.56z"/><use xlink:href="#Y"/><path d="M754.523 1044.797c-.88.98-2.1 1.52-3.58 1.52-3.22 0-5.02-2.64-5.02-5.662 0-3 1.8-5.64 5.02-5.64 1.48 0 2.7.54 3.58 1.52.12.12.16.262.16.38a.63.63 0 0 1-.58.6c-.14 0-.28-.06-.42-.2-.66-.74-1.58-1.16-2.74-1.16-2.36 0-3.88 1.9-3.88 4.5s1.52 4.52 3.88 4.52c1.16 0 2.08-.44 2.74-1.16.14-.14.28-.2.42-.2.3 0 .58.26.58.58 0 .14-.04.26-.16.398zm11.58-3.56H757.8c.18 2.28 1.66 3.94 3.84 3.94 1.08 0 2.36-.48 2.94-1.38.14-.22.3-.28.48-.28.3 0 .62.24.62.54 0 .18 0 .22-.38.658-.92 1.082-2.26 1.602-3.66 1.602-3.22 0-5.02-2.64-5.02-5.662 0-3 1.8-5.64 5.02-5.64s5.02 2.66 5.02 5.64c0 .3-.28.58-.56.58zm-4.46-5.08c-2.4 0-3.66 1.84-3.84 3.94h7.7c-.18-2.28-1.66-3.94-3.86-3.94zm8.437 3.26c-.64 0-1.16-.5-1.16-1.14s.52-1.14 1.16-1.14c.62 0 1.12.5 1.12 1.14s-.5 1.14-1.12 1.14zm0 6.563c-.64 0-1.16-.5-1.16-1.14s.52-1.14 1.16-1.14c.62 0 1.12.5 1.12 1.14s-.5 1.14-1.12 1.14z"/><use xlink:href="#Z"/><use xlink:href="#a"/><path d="M805.86 1046.098c-1.08 0-1.98-1-1.98-2.12v-11.684c0-.36.3-.56.58-.56.26 0 .56.2.56.56v11.684c0 1.28 1.42.54 1.42 1.44 0 .34-.24.68-.58.68z"/><use xlink:href="#b"/><path d="M815.9 1032.855h-.62c-.48 0-.88.4-.88.86v1.64h1.5c.38 0 .56.3.56.56 0 .28-.2.58-.56.58h-1.5v8.922c0 .36-.28.56-.56.56s-.56-.18-.56-.56v-8.922h-1.38c-.36 0-.56-.3-.56-.58 0-.26.2-.56.56-.56h1.38v-1.64c0-1.1.9-1.98 1.98-1.98h.64c.36 0 .58.28.58.58 0 .28-.2.54-.58.54z"/><use xlink:href="#X" x="102.357"/><use xlink:href="#Y" x="90.578"/><use xlink:href="#c"/><use xlink:href="#b" x="40.48"/><use xlink:href="#a" x="61.679"/><path d="M879.92 1045.98h-8.882a.61.61 0 0 1-.58-.561v-13.123c0-.3.28-.56.58-.56h8.882a.55.55 0 0 1 .58.561.55.55 0 0 1-.58.561h-8.32v4.92h6.1a.55.55 0 0 1 .58.561c0 .28-.2.58-.56.58h-6.12v5.922h8.32c.38 0 .58.3.58.58a.55.55 0 0 1-.58.561z"/><use xlink:href="#c" x="45.92"/><path d="M903.68 1041.236h-8.302c.18 2.28 1.66 3.94 3.84 3.94 1.08 0 2.36-.48 2.94-1.38.14-.22.3-.28.48-.28.3 0 .62.24.62.54 0 .18 0 .22-.38.658-.92 1.082-2.26 1.602-3.66 1.602-3.22 0-5.02-2.64-5.02-5.662 0-3 1.8-5.64 5.02-5.64s5.02 2.66 5.02 5.64c0 .3-.28.58-.56.58zm-4.46-5.08c-2.4 0-3.66 1.84-3.84 3.94h7.7c-.18-2.28-1.66-3.94-3.86-3.94z"/><use xlink:href="#Y" x="166.838"/><path d="M917.78 1050.54c-1.7 0-4.102-.64-4.102-1.36 0-.32.26-.64.58-.64.22 0 .68.34 1.06.48.52.18 1.34.38 2.46.38 2.56 0 3.88-1.26 3.88-3.72v-1.4c-.88 1.06-2.14 1.7-3.88 1.7-3.16 0-5.02-2.24-5.02-5.322 0-3 1.8-5.64 5.02-5.64 1.74 0 3.04.72 3.88 1.88v-.96c0-.36.3-.56.58-.56.26 0 .56.2.56.56v9.742c0 3.182-1.9 4.86-5.02 4.86zm0-14.383c-2.36 0-3.88 1.9-3.88 4.5 0 2.582 1.42 4.182 3.88 4.182s3.88-1.6 3.88-4.182c0-2.6-1.5-4.5-3.88-4.5zm16.48-.001l-5.42 12.822c-.4.94-1.22 1.2-2.14 1.2h-.88c-.36 0-.56-.3-.56-.58 0-.262.2-.56.56-.56h.88c.44 0 .9-.02 1.08-.48l1.14-2.72-4.142-9.682c-.04-.1-.04-.18-.04-.26 0-.32.28-.54.58-.54.18 0 .4.08.5.34l3.722 8.682 3.68-8.682a.52.52 0 0 1 .52-.34c.3 0 .56.22.56.54 0 .08 0 .16-.04.26z"/><use xlink:href="#Z" x="162.337"/><use xlink:href="#X" x="237.337"/><use xlink:href="#d"/><use xlink:href="#d" x="16.26"/><use xlink:href="#b" x="189.597"/><use xlink:href="#W" x="295.296"/><use xlink:href="#W" x="304.796"/><use xlink:href="#b" x="212.577"/><use xlink:href="#X" x="308.775"/><use xlink:href="#c" x="199.818"/></g><g class="c"><path d="M69.64 80c-.9 0-1.8-.48-2.28-1.56l-3.18-7.8H44.2l-3.24 7.8c-.48 1.08-1.38 1.56-2.22 1.56-1.32 0-2.7-1.02-2.7-2.52 0-.36.06-.72.24-1.02L51.7 38.962c.72-1.56 1.68-1.86 2.46-1.86.54 0 1.86.3 2.46 1.86L72.1 76.46c.12.3.18.66.18 1.02 0 1.5-1.26 2.52-2.64 2.52zm-15.48-33.6L46.3 65.48h15.72l-7.86-19.08z"/><use xlink:href="#e"/><use xlink:href="#f"/><use xlink:href="#g"/><use xlink:href="#h"/><use xlink:href="#i"/><path d="M253.715 80c-1.32 0-2.64-.9-2.64-2.52V59.66h-19.8v17.82c0 1.62-1.38 2.52-2.52 2.52-1.32 0-2.64-.9-2.64-2.52V39.802c0-1.68 1.32-2.52 2.64-2.52 1.14 0 2.52.84 2.52 2.52v14.76h19.8v-14.7c0-1.74 1.38-2.58 2.52-2.58 1.32 0 2.64.84 2.64 2.58V77.42c0 1.68-1.38 2.58-2.52 2.58z"/><use xlink:href="#j"/><use xlink:href="#e" x="223.975"/><use xlink:href="#k"/><use xlink:href="#g" x="203.395"/><use xlink:href="#k" x="61.198"/><use xlink:href="#l"/><use xlink:href="#j" x="175.076"/><use xlink:href="#e" x="399.04"/><use xlink:href="#m"/><use xlink:href="#k" x="188.634"/><use xlink:href="#g" x="379.729"/><use xlink:href="#n"/><path d="M597.564 80c-1.32 0-2.52-.9-2.52-2.52V60.8c0-4.68-3.9-8.58-8.58-8.58-4.62 0-8.52 3.9-8.52 8.58v16.62c0 1.68-1.26 2.64-2.64 2.64-1.26 0-2.52-.9-2.52-2.58v-26.82c0-1.74 1.26-2.52 2.52-2.52 1.2 0 2.28.66 2.58 1.98 2.34-1.86 5.28-3 8.58-3 7.44 0 13.68 6.18 13.68 13.68v16.62c0 1.68-1.2 2.58-2.58 2.58z"/><use xlink:href="#m" x="116.876"/><use xlink:href="#j" x="356.21"/><path d="M656.306 52.042c-.48.24-.9.3-1.32.3-1.44 0-2.58-1.32-2.58-2.7 0-.84.36-1.56 1.26-2.16 1.56-.84 2.64-2.7 2.64-4.14v-4.56c0-1.74 1.2-2.64 2.52-2.64 1.38 0 2.58.9 2.58 2.64v4.56c0 1.92-.9 6.06-5.1 8.7z"/><use xlink:href="#h" x="495.287"/><path d="M732.143 80h-24.96c-1.44 0-2.64-1.14-2.64-2.52V39.862c0-1.44 1.2-2.58 2.64-2.58h24.96c1.56 0 2.52 1.14 2.52 2.52 0 1.26-.9 2.58-2.52 2.58h-22.44V54.5h15.72a2.56 2.56 0 0 1 2.58 2.58c0 1.38-1.02 2.58-2.58 2.58h-15.72V74.9h22.44c1.62 0 2.52 1.26 2.52 2.58 0 1.38-.96 2.52-2.52 2.52z"/><use xlink:href="#e" x="664.483"/><use xlink:href="#o"/><use xlink:href="#p"/><path d="M824 80h-1.02c-5.7 0-7.86-3-7.86-7.92v-18.84h-1.8c-1.44 0-2.58-1.14-2.58-2.52 0-1.44 1.14-2.58 2.52-2.58h1.8v-8.34c0-1.68 1.26-2.52 2.58-2.52s2.52.84 2.52 2.52v8.34H824c1.68 0 2.52 1.38 2.52 2.52 0 1.44-.96 2.58-2.52 2.58h-3.84v19.38c0 1.68.6 2.28 2.28 2.28h1.5c1.56 0 2.58 1.14 2.58 2.52 0 1.44-.96 2.58-2.52 2.58z"/><use xlink:href="#n" x="278.933"/><use xlink:href="#m" x="356.87"/><use xlink:href="#p" x="73.918"/><use xlink:href="#m" x="397.73"/><use xlink:href="#i" x="701.261"/><path d="M941.056 51.742l-16.2 36.838c-1.2 2.76-3.84 4.02-6.6 4.02h-1.92c-1.74 0-2.52-1.26-2.52-2.64 0-1.26.78-2.52 2.52-2.52h1.86c.78 0 1.62-.12 1.98-.96l3.96-8.88-11.7-25.86c-.24-.42-.3-.78-.3-1.14 0-1.5 1.44-2.52 2.76-2.52.9 0 1.68.48 2.16 1.56l9.78 21.72 9.54-21.72c.48-1.08 1.38-1.5 2.22-1.5 1.38 0 2.76 1.02 2.76 2.46 0 .42-.06.72-.3 1.14zM66.938 141.2c-.78 0-1.62-.42-2.16-1.32l-20.16-30.3v29.04c0 1.68-1.26 2.58-2.64 2.58-1.26 0-2.52-.9-2.52-2.52v-37.618c0-1.68 1.32-2.58 2.64-2.58.84 0 1.56.36 2.16 1.26l20.16 30.3v-28.98c0-1.74 1.26-2.58 2.52-2.58 1.38 0 2.64.84 2.64 2.52v37.618c0 1.62-1.32 2.58-2.64 2.58z"/><use xlink:href="#g" x="-60.478" y="61.2"/><use xlink:href="#q"/><use xlink:href="#l" x="-235.144" y="61.2"/><use xlink:href="#g" x="63.717" y="61.2"/><use xlink:href="#f" x="143.577" y="61.2"/><path d="M307.114 127.88h-22.2c.84 5.64 4.44 9.24 9.72 9.24 2.7 0 5.4-.96 7.14-3.12.54-.6 1.14-.96 1.86-.96 1.32 0 2.7 1.2 2.7 2.64 0 .72-.18 1.26-1.44 2.52-2.7 2.64-6.42 4.02-10.26 4.02-9.66 0-15.06-7.98-15.06-16.98 0-8.94 5.4-16.92 15.06-16.92 9.78 0 15 7.98 15 16.92 0 1.32-.96 2.64-2.52 2.64zm-12.48-14.46c-5.64 0-8.94 4.14-9.72 9.3h19.44c-.84-5.76-4.44-9.3-9.72-9.3z"/><use xlink:href="#h" x="142.857" y="61.2"/><use xlink:href="#k" x="39.059" y="61.2"/><use xlink:href="#n" x="-181.854" y="61.2"/><use xlink:href="#g" x="248.754" y="61.2"/><use xlink:href="#f" x="331.013" y="61.2"/></g><g fill="#6ae5d0"><path d="M506.85 141.26c-.66 0-1.44-.36-1.98-1.08l-12.48-17.46h-7.74v15.9c0 1.68-1.26 2.58-2.64 2.58-1.26 0-2.52-.9-2.52-2.52v-37.618c0-1.08.72-2.58 2.52-2.58h15.54c5.28 0 12.06 4.14 12.06 12.06 0 6.3-4.74 11.58-11.04 12.12l10.5 14.46a2.35 2.35 0 0 1 .539 1.56c0 1.44-1.38 2.58-2.76 2.58zm-9.36-37.68h-12.84v14.04h12.78c3.9 0 7.02-3.18 7.02-7.08 0-4.08-3.48-6.96-6.96-6.96z"/><use xlink:href="#o" x="-237.532" y="61.2"/><path d="M571.89 141.2c-1.32 0-2.52-.9-2.52-2.52V122c0-4.68-3.9-8.58-8.58-8.58-4.62 0-8.52 3.9-8.52 8.58v16.62c0 1.68-1.26 2.64-2.64 2.64-1.26 0-2.52-.9-2.52-2.58v-26.82c0-1.74 1.26-2.52 2.52-2.52 1.2 0 2.28.66 2.58 1.98 2.34-1.86 5.28-3 8.58-3 7.44 0 13.68 6.18 13.68 13.68v16.62c0 1.68-1.2 2.58-2.58 2.58z"/><use xlink:href="#o" x="-171.842" y="61.2"/><use xlink:href="#q" x="501.231"/><path d="M685.348 141.2c-3.3 0-4.8-2.34-5.34-3.42-2.4 2.64-5.88 4.44-10.56 4.44-9.78 0-15.06-8.04-15.06-16.98s5.4-16.92 15.06-16.92c4.2 0 7.56 1.5 9.9 3.96v-.24c0-.66.24-2.7 2.52-2.7 1.26 0 2.64.66 2.64 2.52v23.16c0 .78.54 1.08.84 1.08 1.68 0 2.58 1.2 2.58 2.58 0 1.26-.9 2.52-2.58 2.52zm-15.898-27.78c-6 0-9.9 4.68-9.9 11.82 0 7.2 3.9 11.88 9.9 11.88 6.06 0 9.9-4.68 9.9-11.88 0-7.14-3.84-11.82-9.9-11.82zm37.918 28.8c-6.42 0-9.84-3.54-9.9-3.6 0 1.68-1.26 2.52-2.64 2.52-1.26 0-2.52-.84-2.52-2.52v-37.558c0-1.74 1.26-2.58 2.52-2.58 1.38 0 2.64.84 2.64 2.52v11.22c2.4-2.46 5.7-3.9 9.9-3.9 9.66 0 15.06 7.92 15.06 16.92 0 9.06-5.4 16.98-15.06 16.98zm0-28.8c-6 0-9.9 4.68-9.9 11.82 0 7.2 3.9 11.88 9.9 11.88s9.9-4.68 9.9-11.88c0-7.14-3.9-11.82-9.9-11.82zm26.64 27.9c-3.24 0-6-2.76-6-6.12v-34.138c0-1.74 1.26-2.58 2.58-2.58s2.58.84 2.58 2.52V135.2c0 .72.54 1.02.84 1.02 1.68 0 2.58 1.2 2.58 2.58 0 1.32-.9 2.52-2.58 2.52z"/><use xlink:href="#o" x="-11.035" y="61.2"/><use xlink:href="#h" x="602.75" y="61.2"/></g></svg>