<svg xmlns="http://www.w3.org/2000/svg" xmlns:xlink="http://www.w3.org/1999/xlink" viewBox="0 0 1080 1080"><defs><linearGradient id="A" x1="11.716" y1="11.716" x2="1068.284" y2="1068.284" gradientUnits="userSpaceOnUse"><stop offset="0" stop-color="#ff5f6d"/><stop offset=".199" stop-color="#ff796e"/><stop offset=".551" stop-color="#ffa170"/><stop offset=".83" stop-color="#ffba71"/><stop offset="1" stop-color="#ffc371"/></linearGradient><linearGradient id="B" x1="326.642" y1="479.669" x2="926.263" y2="1079.29" gradientUnits="userSpaceOnUse"><stop offset="0" stop-color="#c4144b"/><stop offset=".456" stop-color="#9d114c"/><stop offset="1" stop-color="#6a0d4e"/></linearGradient><path id="C" d="M104.714 1045.51a1.36 1.36 0 0 1-1.4-1.101 7.763 7.763 0 0 1-4.804 1.668 7.666 7.666 0 0 1-7.604-7.605v-9.24a1.434 1.434 0 0 1 2.868-.033v9.272a4.753 4.753 0 1 0 9.507 0v-9.24a1.33 1.33 0 0 1 1.4-1.468 1.364 1.364 0 0 1 1.435 1.435v14.9a1.328 1.328 0 0 1-1.401 1.4z"/><path id="D" d="M831.32 1046.317c-3.22 0-5.02-2.64-5.02-5.66 0-3 1.8-5.64 5.02-5.64s5.02 2.64 5.02 5.64c0 3.02-1.8 5.66-5.02 5.66zm0-10.162c-2.36 0-3.88 1.9-3.88 4.5s1.52 4.52 3.88 4.52c2.38 0 3.88-1.92 3.88-4.52s-1.5-4.5-3.88-4.5z"/><path id="E" d="M847.1 1045.977a.562.562 0 0 1-.58-.561v-.64a4.442 4.442 0 0 1-3.421 1.54 4.61 4.61 0 0 1-4.561-4.561v-5.842a.57.57 0 0 1 1.14 0v5.842a3.421 3.421 0 1 0 6.842 0v-5.842a.57.57 0 0 1 1.141 0v9.502a.558.558 0 0 1-.561.561z"/><path id="F" d="M855.06 1036.336a3.418 3.418 0 0 0-3.421 3.42v5.66a.57.57 0 0 1-1.141 0v-9.502a.57.57 0 0 1 1.141 0v.82a4.565 4.565 0 0 1 3.421-1.54.57.57 0 1 1 0 1.141z"/><path id="G" d="M1027.28 1045.977h-.02a2.072 2.072 0 0 1-1.98-1.561 4.536 4.536 0 0 1-3.88 1.9c-3.26 0-5.02-2.68-5.02-5.66 0-3.02 1.8-5.64 5.02-5.64a4.571 4.571 0 0 1 3.88 1.88v-.98a.564.564 0 0 1 .581-.56.546.546 0 0 1 .56.56v8.063c0 1.28 1.44.48 1.44 1.44a.55.55 0 0 1-.58.561zm-5.88-9.822c-2.36 0-3.88 1.9-3.88 4.5s1.52 4.52 3.88 4.52c2.38 0 3.88-1.92 3.88-4.52s-1.5-4.5-3.88-4.5z"/><path id="H" d="M34.147 997.605v-1.92h2.816v-18.56l-2.88.256v-1.408a8.855 8.855 0 0 0 3.647-1.791h1.536v21.502h2.688v1.92z"/><path id="I" d="M46.375 993.317c.32 2.305 1.6 2.688 2.495 2.688 2.048 0 3.328-2.816 3.392-9.248a5.018 5.018 0 0 1-3.552 1.761c-2.592 0-4.96-1.856-4.96-7.104 0-4.48 1.92-7.23 4.96-7.23 4 0 5.92 2.304 5.92 10.623 0 9.28-2.176 13.12-5.823 13.12-2.976 0-4.096-1.792-4.544-4.48zm5.95-10.88c0-4.672-1.216-6.335-3.264-6.335-1.792 0-3.008 1.344-3.008 5.343 0 4.128 1.408 5.152 2.88 5.152a4.383 4.383 0 0 0 3.392-1.984z"/><path id="J" d="M125.497 66.68h-22.2c.84 5.64 4.44 9.24 9.72 9.24a9.006 9.006 0 0 0 7.14-3.119 2.482 2.482 0 0 1 1.86-.96 2.8 2.8 0 0 1 2.7 2.64c0 .72-.18 1.26-1.44 2.52a14.62 14.62 0 0 1-10.26 4.021c-9.66 0-15.06-7.98-15.06-16.98 0-8.94 5.4-16.92 15.06-16.92 9.78 0 15 7.98 15 16.92a2.558 2.558 0 0 1-2.52 2.64zm-12.48-14.46c-5.64 0-8.94 4.14-9.72 9.3h19.44c-.84-5.76-4.44-9.3-9.72-9.3z"/><path id="K" d="M238.406 81.02c-9.66 0-15.06-7.92-15.06-16.98 0-9 5.4-16.92 15.06-16.92s15.06 7.92 15.06 16.92c0 9.06-5.4 16.98-15.06 16.98zm0-28.8c-6 0-9.9 4.68-9.9 11.82 0 7.2 3.9 11.88 9.9 11.88 6.06 0 9.9-4.68 9.9-11.88 0-7.14-3.84-11.82-9.9-11.82z"/><path id="L" d="M303.685 43.28a4.32 4.32 0 1 1 4.32-4.319 4.302 4.302 0 0 1-4.32 4.319zm0 36.72a2.52 2.52 0 0 1-2.64-2.52V50.72a2.533 2.533 0 0 1 2.64-2.58 2.472 2.472 0 0 1 2.52 2.58v26.76a2.421 2.421 0 0 1-2.52 2.52z"/><path id="M" d="M317.004 80.12a6.122 6.122 0 0 1-6-6.12V39.86a2.58 2.58 0 0 1 5.16-.061V74a.947.947 0 0 0 .84 1.021 2.55 2.55 0 1 1 0 5.1z"/><path id="N" d="M533.587 66.68h-22.2c.84 5.64 4.44 9.24 9.72 9.24a9.008 9.008 0 0 0 7.14-3.119 2.481 2.481 0 0 1 1.859-.96 2.8 2.8 0 0 1 2.7 2.64c0 .72-.18 1.26-1.44 2.52a14.616 14.616 0 0 1-10.259 4.021c-9.66 0-15.06-7.98-15.06-16.98 0-8.94 5.4-16.92 15.06-16.92 9.78 0 15 7.98 15 16.92a2.558 2.558 0 0 1-2.52 2.64zm-12.48-14.46c-5.64 0-8.94 4.14-9.72 9.3h19.438c-.84-5.76-4.44-9.3-9.72-9.3z"/><path id="O" d="M96.938 137.66a13.935 13.935 0 0 1-10.74 4.561c-9.66 0-15.06-7.92-15.06-16.98 0-9 5.4-16.92 15.06-16.92a13.935 13.935 0 0 1 10.74 4.561 2.614 2.614 0 0 1 .72 1.739 2.794 2.794 0 0 1-2.7 2.58 2.84 2.84 0 0 1-1.86-.84 8.816 8.816 0 0 0-6.9-2.939c-6 0-9.9 4.68-9.9 11.82 0 7.2 3.9 11.88 9.9 11.88a8.923 8.923 0 0 0 6.9-2.939 2.396 2.396 0 0 1 1.86-.9 2.59 2.59 0 0 1 1.98 4.38z"/><path id="P" d="M173.736 142.22c-3.3 0-8.82-1.02-11.64-4.5a2.655 2.655 0 0 1 2.16-4.26 2.464 2.464 0 0 1 1.86 1.02c1.86 2.04 4.92 2.64 7.62 2.64 5.4 0 7.14-1.86 7.14-4.56 0-7.68-18.3-2.94-18.3-15.3 0-6.54 6.12-8.94 11.82-8.94 3.24 0 10.86 1.62 10.86 4.98a2.694 2.694 0 0 1-2.52 2.699 3.615 3.615 0 0 1-1.98-.779c-1.62-1.38-3.96-1.8-6.36-1.8-4.98 0-6.72 1.86-6.72 3.84 0 7.14 18.36 2.52 18.36 15.3 0 7.08-5.94 9.66-12.3 9.66z"/><path id="Q" d="M604.528 141.2a5.836 5.836 0 0 1-5.34-3.42 13.746 13.746 0 0 1-10.56 4.44c-9.78 0-15.06-8.04-15.06-16.98s5.4-16.92 15.06-16.92a13.259 13.259 0 0 1 9.899 3.96v-.24a2.476 2.476 0 0 1 2.52-2.7 2.412 2.412 0 0 1 2.64 2.52v23.16a.971.971 0 0 0 .841 1.08 2.55 2.55 0 1 1 0 5.1zm-15.9-27.778c-6 0-9.9 4.68-9.9 11.82 0 7.2 3.9 11.88 9.9 11.88 6.06 0 9.9-4.68 9.9-11.88 0-7.14-3.84-11.82-9.9-11.82z"/><path id="R" d="M645.988 104.48a4.32 4.32 0 1 1 4.319-4.319 4.302 4.302 0 0 1-4.319 4.319zm0 36.72a2.519 2.519 0 0 1-2.64-2.52v-26.76a2.533 2.533 0 0 1 2.64-2.58 2.471 2.471 0 0 1 2.52 2.58v26.76a2.42 2.42 0 0 1-2.52 2.52z"/></defs><rect width="1080" height="1080" rx="40" fill="url(#A)"/><g opacity=".4" fill="#b5124b"><path d="M42.328 1046.045a7.892 7.892 0 0 1-5.503-2.002 1.364 1.364 0 0 1-1.468 1.401 1.346 1.346 0 0 1-1.401-1.401v-20.88a1.435 1.435 0 0 1 2.869-.033v6.238a7.4 7.4 0 0 1 5.503-2.169c5.37 0 8.373 4.403 8.373 9.406 0 5.037-3.002 9.44-8.373 9.44zm0-16c-3.335 0-5.503 2.602-5.503 6.57 0 4.003 2.168 6.604 5.503 6.604s5.504-2.602 5.504-6.604c0-3.97-2.168-6.57-5.504-6.57zm25.555 8.037h-12.34c.467 3.136 2.468 5.137 5.403 5.137a5.003 5.003 0 0 0 3.969-1.734 1.383 1.383 0 0 1 1.034-.533 1.556 1.556 0 0 1 1.501 1.468c0 .4-.1.7-.8 1.4a8.129 8.129 0 0 1-5.704 2.235c-5.37 0-8.372-4.437-8.372-9.44 0-4.97 3.002-9.406 8.372-9.406 5.437 0 8.34 4.437 8.34 9.406a1.422 1.422 0 0 1-1.401 1.468zm-6.937-8.038c-3.136 0-4.97 2.3-5.403 5.17H66.35c-.467-3.202-2.468-5.17-5.403-5.17zM88 1045.478a3.247 3.247 0 0 1-2.969-1.901 7.642 7.642 0 0 1-5.87 2.469c-5.437 0-8.372-4.47-8.372-9.44s3.002-9.406 8.372-9.406a7.369 7.369 0 0 1 5.504 2.202v-.134a1.376 1.376 0 0 1 1.4-1.501 1.341 1.341 0 0 1 1.468 1.401v12.875a.54.54 0 0 0 .467.601 1.418 1.418 0 1 1 0 2.835zm-8.84-15.443c-3.336 0-5.504 2.602-5.504 6.57 0 4.003 2.168 6.604 5.504 6.604 3.37 0 5.504-2.602 5.504-6.604 0-3.97-2.135-6.57-5.504-6.57z"/><use xlink:href="#C"/><path d="M115.158 1045.478h-.567c-3.17 0-4.37-1.668-4.37-4.403V1030.6h-1a1.418 1.418 0 1 1-.033-2.835h1v-4.637a1.355 1.355 0 0 1 1.435-1.4 1.328 1.328 0 0 1 1.401 1.4v4.637h2.135a1.383 1.383 0 0 1 1.4 1.401 1.356 1.356 0 0 1-1.4 1.434h-2.135v10.774c0 .934.333 1.268 1.268 1.268h.833a1.376 1.376 0 0 1 1.435 1.4 1.357 1.357 0 0 1-1.4 1.435zm4.604-20.415a2.401 2.401 0 1 1 2.402-2.401 2.392 2.392 0 0 1-2.402 2.401zm0 20.414a1.4 1.4 0 0 1-1.467-1.401V1029.2a1.408 1.408 0 0 1 1.467-1.435 1.374 1.374 0 0 1 1.401 1.435v14.876a1.346 1.346 0 0 1-1.401 1.401zm10.376-14.877h-1.5v13.442a1.364 1.364 0 0 1-1.468 1.401 1.346 1.346 0 0 1-1.401-1.401V1030.6h-1.37a1.418 1.418 0 0 1 0-2.835h1.367v-2.27a3.801 3.801 0 0 1 3.836-3.769 1.418 1.418 0 1 1 0 2.835.934.934 0 0 0-.967.9v2.302h1.5a1.418 1.418 0 1 1 0 2.835z"/><use xlink:href="#C" x="42.068"/><path d="M154.725 1045.544a3.403 3.403 0 0 1-3.336-3.402v-18.98a1.435 1.435 0 0 1 2.869-.033v19.013a.527.527 0 0 0 .467.567 1.418 1.418 0 1 1 0 2.835zm15.37-.066v-1.264c1.886-.237 2.046-.437 2.046-3.157v-6.7c0-2.8-1.248-4.017-3.064-4.017a5.597 5.597 0 0 0-3.47 1.493v9.476c0 2.527.187 2.658 2.06 2.896v1.264h-8.968v-1.264c2.254-.33 2.5-.4 2.5-3v-8.2c0-2.446-.303-2.565-2.185-2.922v-1.184a34.101 34.101 0 0 0 6.653-1.533l-.052 2.95 2.6-1.745a5.659 5.659 0 0 1 3.159-1.086c3.194 0 5.2 2.338 5.2 6.3v7.5c0 2.54.237 2.657 2.277 2.92v1.264zm23.9-3.703c-2.458 3.427-5.488 4.178-7.014 4.178-5.142 0-8.124-3.936-8.124-8.594a10.333 10.333 0 0 1 2.832-7.062 8.602 8.602 0 0 1 6.082-2.814 6.386 6.386 0 0 1 6.37 6.347c-.014.715-.08 1.277-.612 1.4-.767.184-6.17.5-10.318.647.062 4.587 2.717 6.74 5.556 6.74a6.776 6.776 0 0 0 4.543-1.866zm-7.07-12.7c-1.667 0-3.167 1.807-3.516 4.963l5.486-.118c.6-.026.848-.146.848-.792.04-2.022-1.037-4.053-2.818-4.053zm34.284.145c-1.943.343-2.248.624-3.105 2.765-1.33 3.462-3.102 8.53-4.934 13.94h-1.512l-4.65-11.46-4.55 11.46h-1.472l-4.685-14.192c-.687-1.985-.94-2.274-2.855-2.512v-1.25h9.397v1.25c-2.325.345-2.535.672-2.058 2.133l2.52 8.214c1.507-3.68 2.988-7.62 4.327-11.424h1.456c1.4 3.76 2.986 7.702 4.573 11.568.742-2.107 2.062-5.964 2.557-8.108.412-1.674-.008-2.078-2.753-2.383v-1.25h7.742zm9.4 3.746c-.92-2.606-2.155-3.984-4.2-3.984a2.166 2.166 0 0 0-2.225 2.266c0 1.497 1.046 2.264 3.16 3.216 3.278 1.496 5.3 2.787 5.3 5.736 0 3.85-3.6 5.764-6.945 5.764a12.073 12.073 0 0 1-4.92-1.161l-.662-4.892 1.252-.224c.8 2.5 2.33 4.75 4.976 4.75a2.231 2.231 0 0 0 2.438-2.281c0-1.423-.76-2.333-3.092-3.467-2.67-1.295-5.107-2.64-5.107-5.775 0-3.046 2.533-5.42 6.565-5.42a18.751 18.751 0 0 1 4.112.567l.62 4.577z"/></g><g opacity=".5" fill="#b5124b"><path d="M820.6 1046.357c-1.2 0-3.22-.42-3.92-1.58a.482.482 0 0 1-.08-.3.546.546 0 0 1 1.021-.32 3.812 3.812 0 0 0 2.98 1.061c1.94 0 2.92-.64 2.92-1.94 0-3.02-6.562-1.42-6.562-5.422 0-2.02 2.02-2.8 3.84-2.8a5.415 5.415 0 0 1 3.44 1.16.558.558 0 0 1 .18.38.648.648 0 0 1-.62.6.531.531 0 0 1-.38-.16 4.001 4.001 0 0 0-2.62-.84c-1.76 0-2.7.68-2.7 1.66 0 2.8 6.562 1.32 6.562 5.422 0 2.28-2 3.08-4.06 3.08z"/><use xlink:href="#D"/><use xlink:href="#E"/><use xlink:href="#F"/><path d="M865.24 1044.796a4.645 4.645 0 0 1-3.58 1.521c-3.22 0-5.02-2.64-5.02-5.66 0-3 1.8-5.64 5.02-5.64a4.647 4.647 0 0 1 3.58 1.52.531.531 0 0 1 .16.381.627.627 0 0 1-.58.6.587.587 0 0 1-.42-.2 3.526 3.526 0 0 0-2.74-1.16c-2.36 0-3.88 1.9-3.88 4.5s1.52 4.52 3.88 4.52a3.596 3.596 0 0 0 2.74-1.16.587.587 0 0 1 .42-.2.594.594 0 0 1 .58.58.571.571 0 0 1-.16.399zm11.58-3.56h-8.302c.18 2.28 1.66 3.94 3.84 3.94a3.615 3.615 0 0 0 2.94-1.381.525.525 0 0 1 .479-.28.611.611 0 0 1 .62.541c0 .18 0 .22-.38.66a4.72 4.72 0 0 1-3.66 1.601c-3.22 0-5.02-2.64-5.02-5.66 0-3 1.8-5.64 5.02-5.64s5.02 2.66 5.02 5.64a.606.606 0 0 1-.56.58zm-4.46-5.08c-2.4 0-3.66 1.84-3.84 3.94h7.7c-.18-2.28-1.66-3.94-3.86-3.94zm8.438 3.26a1.14 1.14 0 1 1 0-2.28 1.14 1.14 0 0 1 0 2.28zm0 6.562a1.14 1.14 0 1 1 0-2.28 1.14 1.14 0 0 1 0 2.28zm14.222.34c-4.3 0-5.82-3.56-5.82-7.46 0-3.92 1.52-7.482 5.82-7.482 4.28 0 5.82 3.562 5.82 7.482 0 3.9-1.54 7.46-5.82 7.46zm0-13.803c-3.32 0-4.682 2.6-4.682 6.342 0 3.72 1.36 6.32 4.682 6.32 3.3 0 4.68-2.6 4.68-6.32 0-3.74-1.38-6.342-4.68-6.342z"/><use xlink:href="#E" x="64.62"/><use xlink:href="#F" x="64.62"/><path d="M940.96 1032.455l-3.52 13.103a.553.553 0 0 1-.56.42.533.533 0 0 1-.541-.42l-3-11.083-2.98 11.083a.533.533 0 0 1-.54.42.554.554 0 0 1-.561-.42l-3.52-13.103a.544.544 0 0 1-.021-.181.581.581 0 0 1 .58-.58.499.499 0 0 1 .521.44l3 11.082 2.98-11.082a.529.529 0 0 1 .54-.4.537.537 0 0 1 .56.4l2.98 11.082 3-11.082a.526.526 0 0 1 .521-.44.581.581 0 0 1 .58.58.544.544 0 0 1-.021.181z"/><use xlink:href="#D" x="116.16"/><use xlink:href="#F" x="104.38"/><path d="M963.458 1046.097a2.096 2.096 0 0 1-1.98-2.12v-11.683a.571.571 0 0 1 1.141 0v11.683c0 1.28 1.42.54 1.42 1.44a.645.645 0 0 1-.58.681zm11.422-.12a.563.563 0 0 1-.581-.561v-1a4.536 4.536 0 0 1-3.88 1.9c-3.22 0-5.02-2.64-5.02-5.66 0-3 1.8-5.64 5.02-5.64a4.571 4.571 0 0 1 3.88 1.88v-4.6a.571.571 0 0 1 1.141 0v13.122a.558.558 0 0 1-.56.561zm-4.46-9.822c-2.36 0-3.88 1.9-3.88 4.5s1.52 4.52 3.88 4.52c2.38 0 3.88-1.92 3.88-4.52s-1.5-4.5-3.88-4.5zm13.336-2.72a1.14 1.14 0 1 1 1.141-1.14 1.127 1.127 0 0 1-1.141 1.14zm0 12.543a.55.55 0 0 1-.58-.561v-9.502a.551.551 0 0 1 .58-.56.545.545 0 0 1 .561.56v9.502a.536.536 0 0 1-.561.56zm11.962 0a.563.563 0 0 1-.58-.561v-5.84a3.421 3.421 0 1 0-6.841 0v5.84a.571.571 0 0 1-1.141 0v-9.502a.571.571 0 0 1 1.141 0v.64a4.563 4.563 0 0 1 7.981 3.021v5.84a.558.558 0 0 1-.561.561zm13.14 0h-4.44a.606.606 0 0 1-.58-.561v-13.122a.59.59 0 0 1 .58-.561h4.44c4.12 0 5.48 3.44 5.48 7.102 0 3.72-1.36 7.142-5.48 7.142zm0-13.123h-3.88v11.982h3.88c3.42 0 4.34-2.96 4.34-5.98 0-3.562-1.24-6.002-4.34-6.002z"/><use xlink:href="#G"/><path d="M1033.337 1045.977h-.62a2.075 2.075 0 0 1-2.36-2.341v-7.142h-1.02a.57.57 0 0 1 0-1.14h1.02v-3.06a.562.562 0 0 1 .58-.561.546.546 0 0 1 .56.561v3.06h1.84a.57.57 0 0 1 0 1.14h-1.84v7.142c0 .98.28 1.2 1.22 1.2h.62a.57.57 0 0 1 0 1.141z"/><use xlink:href="#G" x="18.88"/></g><path d="M286.983 519.328L792.95 173.385 539.967 959.62l-252.984-440.29z" fill="#fff" opacity=".1"/><path d="M34 959.62l252.984-440.29 252.984 440.29zm1011.936 0L792.95 173.385 539.967 959.62z" fill="url(#B)"/><g opacity=".5" fill="#b5124b"><use xlink:href="#H"/><use xlink:href="#I"/><use xlink:href="#I" x="12.489"/><path d="M74.37 997.925c-3.775 0-5.567-3.52-5.567-11.87s1.792-11.87 5.567-11.87 5.567 3.52 5.567 11.87-1.792 11.87-5.567 11.87zm0-21.822c-2.112 0-3.264 2.367-3.264 9.95s1.15 9.95 3.264 9.95 3.264-2.368 3.264-9.95-1.152-9.95-3.264-9.95z"/></g><g opacity=".5" fill="#b5124b"><path d="M1000.263 997.605v-1.92c2.048-6.848 8.447-10.687 8.447-15.935 0-2.432-1.216-3.647-2.784-3.647-1.823 0-3.168 1.407-3.36 4.863h-2.112c.256-5.248 2.624-6.783 5.408-6.783 3.04 0 5.15 2.048 5.15 5.887 0 5.76-5.184 7.552-8.64 15.615h8.768v1.92zm17.874.32c-3.775 0-5.567-3.52-5.567-11.87s1.792-11.87 5.567-11.87 5.567 3.52 5.567 11.87-1.792 11.87-5.567 11.87zm0-21.822c-2.112 0-3.264 2.367-3.264 9.95s1.15 9.95 3.264 9.95 3.264-2.368 3.264-9.95-1.15-9.95-3.264-9.95z"/><use xlink:href="#H" x="991.477"/><path d="M1037.55 992.23c.192 1.664.896 3.776 2.944 3.776 1.983 0 3.456-2.048 3.456-6.048 0-4.32-1.473-5.663-3.168-5.663a3.183 3.183 0 0 0-2.912 2.239l-1.792-.32.77-11.71h8.127l-.192 1.92h-6.08l-.448 7.04a4.786 4.786 0 0 1 3.072-1.088c2.688 0 4.928 2.495 4.928 7.52 0 5.28-2.56 8.032-5.632 8.032-3.328 0-4.992-2.496-5.184-5.504z"/></g><path d="M187.46 494.523q-.06.586.527.527h17.1q.645-.117.527.527v3.164c.078.43-.098.624-.527.586h-21.504c-.43.038-.606-.155-.527-.586v-3.223q.293-7.9 4.57-12.012a109.307 109.307 0 0 1 8.496-7.383 11.074 11.074 0 0 0 4.629-8.437 7.905 7.905 0 0 0-1.758-5.156 5.986 5.986 0 0 0-4.746-2.109 6.514 6.514 0 0 0-5.156 2.227 8.458 8.458 0 0 0-1.934 5.273c.038.548-.176.782-.645.703h-3.164q-.646.12-.527-.527a12.926 12.926 0 0 1 3.34-8.262 10.667 10.667 0 0 1 8.145-3.574 10.539 10.539 0 0 1 7.793 3.223 11.396 11.396 0 0 1 3.164 8.027q-.352 6.387-4.57 9.902l-8.496 7.1q-4.277 3.516-4.746 10.02h0zm27.516 2.11a3.415 3.415 0 0 1-3.516 3.633q-3.283-.234-3.516-3.633a3.432 3.432 0 0 1 3.516-3.574 3.389 3.389 0 0 1 3.516 3.574h0zm21.597-36.914a11.535 11.535 0 0 1 3.164 8.027q-.352 7.266-5.04 9.6c-.196.156-.176.352.06.586a10.976 10.976 0 0 1 5.742 10.313 12.251 12.251 0 0 1-3.34 8.672 11.615 11.615 0 0 1-8.262 3.398 11.405 11.405 0 0 1-8.203-3.398 12.242 12.242 0 0 1-3.34-8.672 10.975 10.975 0 0 1 5.742-10.312q.352-.352.06-.586-4.7-2.342-5.04-9.6a11.526 11.526 0 0 1 3.164-8.027 10.423 10.423 0 0 1 15.293 0zm-7.676 36.68a6.97 6.97 0 0 0 5.332-2.285 8.239 8.239 0 0 0 1.992-5.801 9.547 9.547 0 0 0-1.934-6.27 7.07 7.07 0 0 0-10.723 0 9.547 9.547 0 0 0-1.934 6.27 8.235 8.235 0 0 0 1.992 5.801 6.9 6.9 0 0 0 5.273 2.285h0zm6.563-28.594a8.105 8.105 0 0 0-1.758-5.273 6.297 6.297 0 0 0-9.609 0 8.281 8.281 0 0 0-1.699 5.273q.176 7.383 6.504 7.793 6.385-.4 6.563-7.793zm20.817 32.17a8.619 8.619 0 0 1-7.371-3.609v1.9a1.083 1.083 0 0 1-2.166 0V473.34a1.083 1.083 0 0 1 2.166 0v8.74a8.686 8.686 0 0 1 7.371-3.572c6.117 0 9.536 5.016 9.536 10.715 0 5.737-3.42 10.752-9.536 10.752zm0-19.3c-4.52 0-7.37 3.6-7.37 8.55s2.85 8.587 7.37 8.587 7.37-3.647 7.37-8.587-2.85-8.55-7.37-8.55zm29.563 18.655a1.068 1.068 0 0 1-1.102-1.063V487.17a6.497 6.497 0 1 0-12.994 0v11.095a1.083 1.083 0 0 1-2.166 0v-18.048a1.083 1.083 0 0 1 2.166 0v1.216a8.667 8.667 0 0 1 15.16 5.737v11.095a1.059 1.059 0 0 1-1.064 1.063z" opacity=".6" fill="#b5124b"/><path d="M825.395 205.82q.47 6.328 7.03 6.62a6.637 6.637 0 0 0 4.98-1.992 8.004 8.004 0 0 0 1.934-5.566v-5.332a7.668 7.668 0 0 0-1.699-5.156 6.297 6.297 0 0 0-4.922-2.109 8.565 8.565 0 0 0-5.801 1.992.668.668 0 0 1-.762.293h-2.87q-.646.12-.527-.527v-20.098q-.12-.645.527-.527h18.28q.645-.117.527.527v2.988c.078.43-.098.625-.527.586H827.27q-.586-.117-.527.527v11.602c0 .352.176.43.527.234a12.358 12.358 0 0 1 5.801-1.348 10.373 10.373 0 0 1 7.617 2.988 11.039 11.039 0 0 1 2.988 8.027v5.332a11.477 11.477 0 0 1-3.34 8.379 11.614 11.614 0 0 1-8.086 3.223 10.884 10.884 0 0 1-7.852-3.105 11.294 11.294 0 0 1-3.223-7.734q-.12-.584.527-.527h3.047q.645-.057.645.703h0zm33.328 10.255a8.619 8.619 0 0 1-7.371-3.609v1.9a1.083 1.083 0 0 1-2.166 0V189.44a1.083 1.083 0 0 1 2.166 0v8.74a8.686 8.686 0 0 1 7.371-3.572c6.117 0 9.536 5.016 9.536 10.715 0 5.737-3.42 10.752-9.536 10.752zm0-19.3c-4.52 0-7.37 3.6-7.37 8.55s2.85 8.587 7.37 8.587 7.37-3.647 7.37-8.587-2.85-8.55-7.37-8.55zm29.562 18.655a1.068 1.068 0 0 1-1.102-1.063V203.27a6.497 6.497 0 0 0-12.994 0v11.095a1.083 1.083 0 0 1-2.166 0v-18.048a1.083 1.083 0 0 1 2.166 0v1.216a8.667 8.667 0 0 1 15.16 5.737v11.095a1.059 1.059 0 0 1-1.064 1.063z" opacity=".6" fill="#b5124b"/><g fill="#fff"><path d="M51.098 81.02c-12.9 0-17.46-10.68-17.46-22.38 0-11.76 4.56-22.438 17.46-22.438 12.84 0 17.46 10.68 17.46 22.438 0 11.7-4.62 22.38-17.46 22.38zm0-39.66c-8.52 0-12.3 6.3-12.3 17.28s3.78 17.28 12.3 17.28c8.46 0 12.3-6.3 12.3-17.28s-3.84-17.28-12.3-17.28zm45.84 10.32l-10.92 26.28a2.736 2.736 0 0 1-2.58 2.04 2.905 2.905 0 0 1-2.58-2.04L69.94 51.68a3.693 3.693 0 0 1-.18-1.08 2.588 2.588 0 0 1 2.64-2.46 2.456 2.456 0 0 1 2.28 1.56l8.76 21 8.76-21a2.584 2.584 0 0 1 4.979.84 2.992 2.992 0 0 1-.24 1.141z"/><use xlink:href="#J"/><path d="M144.577 52.22a8.643 8.643 0 0 0-8.52 8.579v16.62a2.501 2.501 0 0 1-2.64 2.58 2.456 2.456 0 0 1-2.52-2.52V50.72a2.541 2.541 0 0 1 2.52-2.58 2.463 2.463 0 0 1 2.58 2.04 13.876 13.876 0 0 1 8.58-3.061 2.552 2.552 0 1 1 0 5.101zm37.38-9.84h-9.96v35.1a2.423 2.423 0 0 1-2.52 2.52 2.504 2.504 0 0 1-2.58-2.52v-35.1h-9.84a2.534 2.534 0 0 1-2.64-2.58 2.505 2.505 0 0 1 2.58-2.52h24.96a2.55 2.55 0 1 1 0 5.1zm40.9 9.18l-9.3 26.34a2.726 2.726 0 0 1-2.64 2.1c-1.26 0-1.98-.54-2.52-2.1l-7.02-19.8-7.08 19.8a2.598 2.598 0 0 1-5.1 0l-9.24-26.34a2.642 2.642 0 0 1-.12-.96 2.585 2.585 0 0 1 2.64-2.46 2.378 2.378 0 0 1 2.34 1.68l6.96 20.04 7.08-19.62c.48-1.38 1.08-2.1 2.52-2.1 1.32 0 2.04.66 2.52 2.1l7.02 19.62 7.02-20.04a2.359 2.359 0 0 1 2.28-1.68 2.666 2.666 0 0 1 2.76 2.52 2.497 2.497 0 0 1-.12.9z"/><use xlink:href="#K"/><path d="M285.685 80h-16.14a2.729 2.729 0 0 1-2.64-2.52V39.86a2.51 2.51 0 0 1 2.52-2.58h14.88a11.255 11.255 0 0 1 11.22 11.1 10.802 10.802 0 0 1-3.42 7.979 12.41 12.41 0 0 1 6.3 10.919 12.804 12.804 0 0 1-12.719 12.72zm-1.38-37.618h-12.24V54.5h12.24a6.06 6.06 0 1 0 0-12.119zm1.38 17.22h-13.62v15.3h13.62a7.65 7.65 0 0 0 0-15.3z"/><use xlink:href="#L"/><use xlink:href="#M"/><use xlink:href="#M" x="10.079"/><use xlink:href="#L" x="30.598"/><use xlink:href="#K" x="117.236"/><path d="M399.02 80a2.423 2.423 0 0 1-2.52-2.52V60.8a8.55 8.55 0 1 0-17.099 0v16.62a2.551 2.551 0 0 1-2.64 2.641 2.472 2.472 0 0 1-2.52-2.58V50.66a2.386 2.386 0 0 1 2.52-2.52 2.509 2.509 0 0 1 2.58 1.979 13.703 13.703 0 0 1 22.259 10.68v16.62a2.454 2.454 0 0 1-2.58 2.58zm53.76.06a2.472 2.472 0 0 1-2.52-2.58v-27.6L438.62 71.6a2.626 2.626 0 0 1-2.4 1.62 2.857 2.857 0 0 1-2.4-1.62L422.24 50v27.48a2.501 2.501 0 0 1-2.64 2.58 2.472 2.472 0 0 1-2.52-2.58v-37.5a2.525 2.525 0 0 1 2.76-2.699 2.3 2.3 0 0 1 2.16 1.5l14.22 26.46 14.28-26.46a2.303 2.303 0 0 1 2.34-1.5 2.485 2.485 0 0 1 2.58 2.699v37.5a2.501 2.501 0 0 1-2.64 2.58z"/><use xlink:href="#K" x="235.614"/><path d="M506.3 52.22a8.643 8.643 0 0 0-8.52 8.579v16.62a2.501 2.501 0 0 1-2.64 2.58 2.456 2.456 0 0 1-2.52-2.52V50.72a2.541 2.541 0 0 1 2.52-2.58 2.464 2.464 0 0 1 2.581 2.04 13.874 13.874 0 0 1 8.579-3.061 2.552 2.552 0 1 1 0 5.101z"/><use xlink:href="#N"/><path d="M568.086 61.52h-12.84v15.9a2.58 2.58 0 0 1-5.159.061V39.86a2.491 2.491 0 0 1 2.52-2.58h15.54c5.28 0 12.06 4.14 12.06 12.06a12.098 12.098 0 0 1-12.119 12.179zm0-19.14h-12.84v14.04h12.78a7.02 7.02 0 0 0 .06-14.039z"/><use xlink:href="#N" x="75.658"/><use xlink:href="#K" x="389.919"/><path d="M661.984 81.02a13.134 13.134 0 0 1-9.9-3.96v13.02a2.501 2.501 0 0 1-2.64 2.58 2.472 2.472 0 0 1-2.52-2.58V50.72a2.471 2.471 0 0 1 2.52-2.58 2.5 2.5 0 0 1 2.64 2.58 14.401 14.401 0 0 1 9.9-3.66c9.66 0 15.06 7.92 15.06 16.92 0 9.12-5.4 17.04-15.06 17.04zm0-28.86c-5.94 0-9.9 4.74-9.9 11.82 0 7.2 3.9 11.94 9.9 11.94s9.9-4.68 9.9-11.88c0-7.14-3.9-11.88-9.9-11.88z"/><use xlink:href="#M" x="369.22"/><path d="M716.823 66.68h-22.2c.84 5.64 4.44 9.24 9.72 9.24a9.008 9.008 0 0 0 7.14-3.119 2.481 2.481 0 0 1 1.859-.96 2.8 2.8 0 0 1 2.7 2.64c0 .72-.18 1.26-1.44 2.52a14.616 14.616 0 0 1-10.259 4.021c-9.66 0-15.06-7.98-15.06-16.98 0-8.94 5.4-16.92 15.06-16.92 9.78 0 15 7.98 15 16.92a2.558 2.558 0 0 1-2.519 2.64zm-12.48-14.46c-5.64 0-8.94 4.14-9.72 9.3h19.438c-.84-5.76-4.44-9.3-9.72-9.3zM760.92 80a2.519 2.519 0 0 1-2.64-2.52V59.66h-19.8v17.82a2.58 2.58 0 0 1-5.159 0V39.8a2.58 2.58 0 0 1 5.159 0v14.76h19.8v-14.7a2.58 2.58 0 1 1 5.159 0v37.56a2.541 2.541 0 0 1-2.52 2.58zm37.02 0a5.837 5.837 0 0 1-5.339-3.42 13.746 13.746 0 0 1-10.56 4.44c-9.78 0-15.06-8.04-15.06-16.98s5.4-16.92 15.06-16.92a13.259 13.259 0 0 1 9.899 3.96v-.24a2.475 2.475 0 0 1 2.52-2.7 2.412 2.412 0 0 1 2.64 2.52v23.16a.971.971 0 0 0 .84 1.08 2.55 2.55 0 1 1 0 5.1zm-15.898-27.78c-6 0-9.9 4.68-9.9 11.82 0 7.2 3.9 11.88 9.9 11.88 6.06 0 9.9-4.68 9.9-11.88 0-7.14-3.84-11.82-9.9-11.82zm44.938-.54l-10.92 26.278a2.737 2.737 0 0 1-2.58 2.04 2.904 2.904 0 0 1-2.58-2.04L799.98 51.68a3.724 3.724 0 0 1-.18-1.08 2.588 2.588 0 0 1 2.64-2.46 2.456 2.456 0 0 1 2.28 1.56l8.76 21 8.76-21a2.584 2.584 0 0 1 4.98.84 2.975 2.975 0 0 1-.24 1.141z"/><use xlink:href="#N" x="321.953"/><path d="M888.48 81.02c-13.2 0-17.46-11.1-17.46-22.38 0-11.58 4.56-22.438 17.46-22.438 5.46 0 10.02 1.92 13.32 6.54a2.558 2.558 0 0 1 .54 1.499 2.873 2.873 0 0 1-2.88 2.58c-1.08 0-1.2-.48-2.16-1.56-1.92-2.34-4.5-3.9-8.82-3.9-9.24 0-12.3 7.86-12.3 17.28 0 8.22 2.22 17.28 12.3 17.28 7.32 0 11.7-5.22 12.12-13.86h-5.4a2.502 2.502 0 0 1-2.641-2.579 2.471 2.471 0 0 1 2.521-2.58h8.22a2.52 2.52 0 0 1 2.64 2.64c-.24 11.22-4.74 21.48-17.46 21.48zM938.698 80a5.836 5.836 0 0 1-5.34-3.42 13.746 13.746 0 0 1-10.56 4.44c-9.78 0-15.06-8.04-15.06-16.98s5.4-16.92 15.06-16.92a13.259 13.259 0 0 1 9.899 3.96v-.24a2.476 2.476 0 0 1 2.52-2.7 2.412 2.412 0 0 1 2.64 2.52v23.16a.971.971 0 0 0 .841 1.08 2.55 2.55 0 1 1 0 5.1zM922.8 52.22c-6 0-9.9 4.68-9.9 11.82 0 7.2 3.9 11.88 9.9 11.88 6.06 0 9.9-4.68 9.9-11.88 0-7.14-3.84-11.82-9.9-11.82zm23.22-8.94a4.32 4.32 0 1 1 4.319-4.319 4.302 4.302 0 0 1-4.319 4.319zm0 36.72a2.519 2.519 0 0 1-2.64-2.52V50.72a2.533 2.533 0 0 1 2.64-2.58 2.471 2.471 0 0 1 2.52 2.58v26.76a2.42 2.42 0 0 1-2.52 2.52zm32.456 0a2.423 2.423 0 0 1-2.52-2.52V60.8a8.55 8.55 0 1 0-17.1 0v16.62a2.55 2.55 0 0 1-2.64 2.641 2.472 2.472 0 0 1-2.52-2.58V50.66a2.386 2.386 0 0 1 2.52-2.52 2.509 2.509 0 0 1 2.58 1.979 13.702 13.702 0 0 1 22.259 10.68v16.62a2.453 2.453 0 0 1-2.58 2.58zm33.12-13.32h-22.2c.84 5.64 4.44 9.24 9.72 9.24a9.008 9.008 0 0 0 7.14-3.119 2.481 2.481 0 0 1 1.859-.96 2.8 2.8 0 0 1 2.7 2.64c0 .72-.18 1.26-1.44 2.52a14.616 14.616 0 0 1-10.259 4.021c-9.66 0-15.06-7.98-15.06-16.98 0-8.94 5.4-16.92 15.06-16.92 9.78 0 15 7.98 15 16.92a2.558 2.558 0 0 1-2.52 2.64zm-12.48-14.46c-5.64 0-8.94 4.14-9.72 9.3h19.44c-.84-5.76-4.44-9.3-9.72-9.3zm44.04 27.72a2.436 2.436 0 0 1-2.58-2.521 14.517 14.517 0 0 1-9.899 3.601c-9.66 0-15.06-7.92-15.06-16.98 0-9 5.4-16.92 15.06-16.92a13.222 13.222 0 0 1 9.899 3.9V39.86a2.58 2.58 0 0 1 5.159-.061v37.62a2.436 2.436 0 0 1-2.579 2.521zm-12.48-27.72c-6 0-9.9 4.68-9.9 11.82 0 7.2 3.9 11.88 9.9 11.88 6.06 0 9.9-4.68 9.9-11.88 0-7.14-3.84-11.82-9.9-11.82zM67.238 141.2a2.455 2.455 0 0 1-2.28-1.56l-3.18-7.8H41.8l-3.24 7.8a2.438 2.438 0 0 1-2.22 1.56 2.65 2.65 0 0 1-2.7-2.52 1.978 1.978 0 0 1 .24-1.021L49.3 100.16a2.622 2.622 0 0 1 2.46-1.86 2.726 2.726 0 0 1 2.46 1.86L69.7 137.66a2.815 2.815 0 0 1 .18 1.021 2.56 2.56 0 0 1-2.64 2.52zm-15.48-33.6l-7.86 19.08h15.72z"/><use xlink:href="#O"/><use xlink:href="#O" x="29.219"/><use xlink:href="#J" x="31.619" y="61.2"/><use xlink:href="#P"/><use xlink:href="#P" x="26.1"/><path d="M238.355 141.2h-1.02c-5.7 0-7.86-3-7.86-7.92v-18.84h-1.8a2.55 2.55 0 1 1-.06-5.1h1.8V101a2.436 2.436 0 0 1 2.58-2.52 2.389 2.389 0 0 1 2.52 2.52v8.34h3.84a2.487 2.487 0 0 1 2.52 2.52 2.441 2.441 0 0 1-2.52 2.58h-3.84v19.38c0 1.68.6 2.28 2.28 2.28h1.5a2.475 2.475 0 0 1 2.58 2.52 2.441 2.441 0 0 1-2.52 2.58z"/><use xlink:href="#K" x="19.148" y="61.2"/><path d="M297.033 141.2h-6.9a2.55 2.55 0 0 1 0-5.1h.9v-32.52h-.9a2.55 2.55 0 0 1 0-5.1h6.9a2.551 2.551 0 1 1 0 5.1h-.9v32.52h.9a2.551 2.551 0 1 1 0 5.1zm44.817 0a2.456 2.456 0 0 1-2.52-2.52v-18.9a6.33 6.33 0 1 0-12.659-.06v18.898a2.454 2.454 0 0 1-2.58 2.58 2.423 2.423 0 0 1-2.52-2.52v-18.9a6.36 6.36 0 0 0-12.719-.06v18.898a2.501 2.501 0 0 1-2.64 2.58 2.456 2.456 0 0 1-2.52-2.52v-26.82a2.632 2.632 0 0 1 4.8-1.439 11.557 11.557 0 0 1 6.66-2.101 11.357 11.357 0 0 1 8.939 4.261 11.239 11.239 0 0 1 8.88-4.261 11.46 11.46 0 0 1 11.52 11.4v18.898a2.501 2.501 0 0 1-2.64 2.58zm23.282 1.02a13.132 13.132 0 0 1-9.899-3.96v13.02a2.501 2.501 0 0 1-2.64 2.58 2.472 2.472 0 0 1-2.52-2.58v-39.36a2.471 2.471 0 0 1 2.52-2.58 2.501 2.501 0 0 1 2.64 2.58 14.4 14.4 0 0 1 9.899-3.66c9.66 0 15.06 7.92 15.06 16.92 0 9.12-5.4 17.04-15.06 17.04zm0-28.86c-5.94 0-9.9 4.74-9.9 11.82 0 7.2 3.9 11.94 9.9 11.94s9.9-4.68 9.9-11.88c0-7.14-3.9-11.88-9.9-11.88zm33.48.06a8.643 8.643 0 0 0-8.52 8.579v16.62a2.501 2.501 0 0 1-2.64 2.58 2.456 2.456 0 0 1-2.52-2.52v-26.76a2.541 2.541 0 0 1 2.52-2.58 2.463 2.463 0 0 1 2.58 2.04 13.874 13.874 0 0 1 8.58-3.061 2.552 2.552 0 1 1 0 5.101z"/><use xlink:href="#K" x="177.604" y="61.2"/><path d="M460.29 112.88l-10.92 26.278a2.736 2.736 0 0 1-2.58 2.04 2.905 2.905 0 0 1-2.58-2.04l-10.92-26.278a3.693 3.693 0 0 1-.18-1.08 2.588 2.588 0 0 1 2.64-2.46 2.456 2.456 0 0 1 2.28 1.56l8.76 21 8.76-21a2.584 2.584 0 0 1 4.979.84 2.992 2.992 0 0 1-.24 1.141z"/><use xlink:href="#J" x="364.553" y="61.2"/><path d="M522.8 141.14a2.436 2.436 0 0 1-2.58-2.52 14.517 14.517 0 0 1-9.899 3.601c-9.66 0-15.06-7.92-15.06-16.98 0-9 5.4-16.92 15.06-16.92a13.222 13.222 0 0 1 9.899 3.9v-11.16a2.58 2.58 0 0 1 5.159-.061v37.618a2.436 2.436 0 0 1-2.579 2.52zm-12.48-27.72c-6 0-9.9 4.68-9.9 11.82 0 7.2 3.9 11.88 9.9 11.88 6.06 0 9.9-4.68 9.9-11.88 0-7.14-3.84-11.82-9.9-11.82zm45.67 28.8c-4.38 0-10.5-1.8-13.92-4.98a2.398 2.398 0 0 1-.84-1.859 2.599 2.599 0 0 1 2.58-2.58c.9 0 1.2.3 2.28 1.14a16.244 16.244 0 0 0 9.9 3.18c7.14 0 10.26-2.58 10.26-7.02 0-12.48-23.938-5.4-23.938-21.72 0-7.32 6.18-10.98 14.1-10.98 4.14 0 10.08 1.62 13.02 5.1a2.366 2.366 0 0 1 .659 1.62 2.794 2.794 0 0 1-2.579 2.7c-.9 0-1.38-.42-2.4-1.32a13.178 13.178 0 0 0-8.699-2.94c-6.48 0-8.94 2.58-8.94 5.82 0 11.22 23.938 4.56 23.938 21.72 0 8.94-7.5 12.12-15.42 12.12z"/><use xlink:href="#Q"/><path d="M635.067 141.2a2.423 2.423 0 0 1-2.52-2.52V122a8.55 8.55 0 1 0-17.1 0v16.62a2.55 2.55 0 0 1-2.64 2.641 2.472 2.472 0 0 1-2.52-2.58v-26.82a2.386 2.386 0 0 1 2.52-2.52 2.509 2.509 0 0 1 2.58 1.979A13.702 13.702 0 0 1 637.647 122v16.62a2.453 2.453 0 0 1-2.58 2.58z"/><use xlink:href="#R"/><path d="M665.007 141.2h-1.02c-5.7 0-7.86-3-7.86-7.92v-18.84h-1.8a2.55 2.55 0 1 1-.061-5.1h1.8V101a2.436 2.436 0 0 1 2.579-2.52 2.39 2.39 0 0 1 2.521 2.52v8.34h3.84a2.487 2.487 0 0 1 2.52 2.52 2.44 2.44 0 0 1-2.52 2.58h-3.84v19.38c0 1.68.6 2.28 2.28 2.28h1.5a2.475 2.475 0 0 1 2.58 2.52 2.44 2.44 0 0 1-2.52 2.58z"/><use xlink:href="#Q" x="95.578"/><path d="M716.006 141.2h-1.02c-5.7 0-7.86-3-7.86-7.92v-18.84h-1.8a2.55 2.55 0 1 1-.061-5.1h1.8V101a2.436 2.436 0 0 1 2.579-2.52 2.39 2.39 0 0 1 2.521 2.52v8.34h3.84a2.487 2.487 0 0 1 2.52 2.52 2.44 2.44 0 0 1-2.52 2.58h-3.84v19.38c0 1.68.6 2.28 2.28 2.28h1.5a2.475 2.475 0 0 1 2.58 2.52 2.44 2.44 0 0 1-2.519 2.58z"/><use xlink:href="#R" x="78.297"/><use xlink:href="#K" x="508.439" y="61.2"/><path d="M791.423 141.2a2.423 2.423 0 0 1-2.52-2.52V122a8.55 8.55 0 1 0-17.1 0v16.62a2.55 2.55 0 0 1-2.64 2.641 2.472 2.472 0 0 1-2.52-2.58v-26.82a2.386 2.386 0 0 1 2.52-2.52 2.509 2.509 0 0 1 2.58 1.979A13.702 13.702 0 0 1 794.003 122v16.62a2.453 2.453 0 0 1-2.58 2.58z"/></g></svg>