<svg xmlns="http://www.w3.org/2000/svg" xmlns:xlink="http://www.w3.org/1999/xlink" viewBox="0 0 1080 1080"><linearGradient id="A" gradientUnits="userSpaceOnUse" x1="11.75" y1="11.75" x2="1068.25" y2="1068.25"><stop offset="0" stop-color="#efefbb"/><stop offset=".602" stop-color="#dcdbd3"/><stop offset="1" stop-color="#d4d3dd"/></linearGradient><path d="M1080,1040c0,22-18,40-40,40H40c-22,0-40-18-40-40V40C0,18,18,0,40,0h1000c22,0,40,18,40,40V1040z" fill="url(#A)"/><g opacity=".5"><path d="M42.534 1046.045c-3.568 0-5.47-1.97-5.503-2.002 0 .935-.7 1.4-1.468 1.4-.7 0-1.4-.467-1.4-1.4v-20.88a1.35 1.35 0 0 1 1.401-1.434c.767 0 1.468.467 1.468 1.4v6.238c1.334-1.368 3.168-2.17 5.503-2.17 5.37 0 8.373 4.403 8.373 9.406 0 5.037-3.002 9.44-8.373 9.44zm0-16c-3.335 0-5.503 2.602-5.503 6.57 0 4.003 2.168 6.604 5.503 6.604s5.504-2.602 5.504-6.604c0-3.97-2.168-6.57-5.504-6.57zm25.554 8.037h-12.34c.467 3.136 2.468 5.137 5.403 5.137 1.5 0 3.002-.533 3.97-1.734.3-.333.634-.533 1.034-.533.734 0 1.5.667 1.5 1.468 0 .4-.1.7-.8 1.4-1.5 1.468-3.57 2.235-5.704 2.235-5.37 0-8.372-4.437-8.372-9.44 0-4.97 3.002-9.406 8.372-9.406 5.437 0 8.34 4.437 8.34 9.406 0 .734-.534 1.468-1.4 1.468zm-6.937-8.038c-3.136 0-4.97 2.3-5.403 5.17h10.807c-.467-3.202-2.468-5.17-5.403-5.17zm27.054 15.444c-1.834 0-2.668-1.3-2.97-1.9-1.334 1.468-3.27 2.47-5.87 2.47-5.437 0-8.372-4.47-8.372-9.44s3.002-9.406 8.372-9.406c2.335 0 4.203.834 5.504 2.202v-.134c0-.367.133-1.5 1.4-1.5.7 0 1.468.367 1.468 1.4v12.875c0 .434.3.6.467.6.935 0 1.435.667 1.435 1.434a1.37 1.37 0 0 1-1.435 1.401zm-8.84-15.443c-3.336 0-5.504 2.602-5.504 6.57 0 4.003 2.168 6.604 5.504 6.604 3.37 0 5.504-2.602 5.504-6.604 0-3.97-2.135-6.57-5.504-6.57z"/><use xlink:href="#E"/><path d="M115.364 1045.478h-.567c-3.17 0-4.37-1.668-4.37-4.403V1030.6h-1c-.8 0-1.435-.634-1.435-1.4 0-.8.634-1.435 1.4-1.435h1v-4.637c0-.934.7-1.4 1.435-1.4s1.4.467 1.4 1.4v4.637h2.135c.934 0 1.4.768 1.4 1.4 0 .8-.533 1.434-1.4 1.434h-2.135v10.774c0 .934.333 1.268 1.268 1.268h.833c.868 0 1.435.634 1.435 1.4 0 .8-.533 1.435-1.4 1.435zm4.603-20.415a2.402 2.402 0 1 1 0-4.803 2.402 2.402 0 1 1 0 4.803zm0 20.414c-.733 0-1.467-.5-1.467-1.4V1029.2c0-.935.733-1.435 1.467-1.435a1.37 1.37 0 0 1 1.401 1.435v14.876c0 .935-.7 1.4-1.4 1.4zm10.376-14.877h-1.5v13.442c0 .935-.7 1.4-1.468 1.4-.7 0-1.4-.467-1.4-1.4V1030.6h-1.367c-.9 0-1.4-.667-1.4-1.4 0-.768.5-1.435 1.4-1.435h1.367v-2.27c0-2.135 1.77-3.77 3.836-3.77.968 0 1.468.667 1.468 1.434 0 .7-.5 1.4-1.468 1.4-.566 0-.967.434-.967.9v2.302h1.5c.967 0 1.468.667 1.468 1.435 0 .733-.5 1.4-1.468 1.4z"/><use xlink:href="#E" x="42.068"/><path d="M154.93 1045.544c-1.802 0-3.336-1.534-3.336-3.402v-18.98c0-.967.7-1.434 1.435-1.434s1.435.467 1.435 1.4v19.013c0 .4.3.567.467.567.934 0 1.435.667 1.435 1.435 0 .733-.5 1.4-1.435 1.4zm15.37-.066v-1.264c1.886-.237 2.046-.437 2.046-3.157v-6.7c0-2.8-1.248-4.017-3.064-4.017-1.237 0-2.345.6-3.47 1.493v9.476c0 2.527.187 2.658 2.06 2.896v1.264h-8.968v-1.264c2.254-.33 2.5-.4 2.5-3v-8.2c0-2.446-.303-2.565-2.185-2.922v-1.184c2.173-.292 4.63-.807 6.653-1.533l-.052 2.95 2.6-1.745c1.16-.713 2-1.086 3.16-1.086 3.194 0 5.2 2.338 5.2 6.3v7.5c0 2.54.237 2.657 2.277 2.92v1.264h-8.74zm23.9-3.703c-2.458 3.427-5.488 4.178-7.014 4.178-5.142 0-8.124-3.936-8.124-8.594 0-2.745 1.183-5.396 2.832-7.062 1.74-1.8 3.945-2.814 6.082-2.814 3.73 0 6.396 3.126 6.37 6.347-.014.715-.08 1.277-.612 1.4-.767.184-6.17.5-10.318.647.062 4.587 2.717 6.74 5.556 6.74 1.572 0 3.104-.597 4.543-1.866l.686 1.014zm-7.07-12.7c-1.667 0-3.167 1.807-3.516 4.963l5.486-.118c.6-.026.848-.146.848-.792.04-2.022-1.037-4.053-2.818-4.053zm34.283.145c-1.943.343-2.248.624-3.105 2.765-1.33 3.462-3.102 8.53-4.934 13.94h-1.512l-4.65-11.46-4.55 11.46H201.2l-4.685-14.192c-.687-1.985-.94-2.274-2.855-2.512v-1.25h9.397v1.25c-2.325.345-2.535.672-2.058 2.133l2.52 8.214c1.507-3.68 2.988-7.62 4.327-11.424h1.456c1.4 3.76 2.986 7.702 4.573 11.568.742-2.107 2.062-5.964 2.557-8.108.412-1.674-.008-2.078-2.753-2.383v-1.25h7.742v1.25zm9.41 3.746c-.92-2.606-2.155-3.984-4.2-3.984-1.206 0-2.225.86-2.225 2.266 0 1.497 1.046 2.264 3.16 3.216 3.278 1.496 5.3 2.787 5.3 5.736 0 3.85-3.6 5.764-6.945 5.764-2.06 0-4.088-.737-4.92-1.16l-.662-4.892 1.252-.224c.8 2.5 2.33 4.75 4.976 4.75 1.505 0 2.438-.952 2.438-2.28 0-1.423-.76-2.333-3.092-3.467-2.67-1.295-5.107-2.64-5.107-5.775 0-3.046 2.533-5.42 6.565-5.42 1.818 0 3.242.396 4.112.567l.62 4.577-1.25.328z"/></g><g opacity=".5"><use xlink:href="#F"/><use xlink:href="#G"/><path d="M767.367 1045.978c-.28 0-.58-.2-.58-.56v-.64c-.84.98-2.06 1.54-3.42 1.54-2.48 0-4.56-2.08-4.56-4.56v-5.842c0-.36.3-.56.58-.56.26 0 .56.2.56.56v5.842c0 1.9 1.52 3.42 3.42 3.42s3.42-1.52 3.42-3.42v-5.842c0-.36.3-.56.58-.56.26 0 .56.2.56.56v9.502c0 .36-.3.56-.56.56z"/><use xlink:href="#H"/><path d="M785.506 1044.797c-.88.98-2.1 1.52-3.58 1.52-3.22 0-5.02-2.64-5.02-5.66 0-3 1.8-5.64 5.02-5.64 1.48 0 2.7.54 3.58 1.52a.53.53 0 0 1 .16.381.63.63 0 0 1-.58.6c-.14 0-.28-.06-.42-.2-.66-.74-1.58-1.16-2.74-1.16-2.36 0-3.88 1.9-3.88 4.5s1.52 4.52 3.88 4.52c1.16 0 2.08-.44 2.74-1.16.14-.14.28-.2.42-.2.3 0 .58.26.58.58a.57.57 0 0 1-.16.399z"/><use xlink:href="#I"/><path d="M801.064 1039.416c-.64 0-1.16-.5-1.16-1.14s.52-1.14 1.16-1.14c.62 0 1.12.5 1.12 1.14s-.5 1.14-1.12 1.14zm0 6.562c-.64 0-1.16-.5-1.16-1.14s.52-1.14 1.16-1.14c.62 0 1.12.5 1.12 1.14s-.5 1.14-1.12 1.14zm23.082-13.523l-3.52 13.103a.55.55 0 0 1-.56.42c-.24 0-.48-.14-.54-.42l-3-11.083-2.98 11.083c-.06.28-.3.42-.54.42-.26 0-.48-.14-.56-.42l-3.52-13.103c-.02-.06-.02-.12-.02-.18a.58.58 0 0 1 .58-.58c.26 0 .46.14.52.44l3 11.082 2.98-11.082c.08-.28.3-.4.54-.4.26 0 .48.12.56.4l2.98 11.082 3-11.082c.08-.3.28-.44.52-.44a.58.58 0 0 1 .58.58c0 .06 0 .12-.02.18z"/><use xlink:href="#G" x="79.078"/><use xlink:href="#H" x="67.299"/><use xlink:href="#J"/><path d="M858.065 1045.978c-.28 0-.58-.2-.58-.56v-1c-.84 1.18-2.14 1.9-3.88 1.9-3.22 0-5.02-2.64-5.02-5.66 0-3 1.8-5.64 5.02-5.64 1.74 0 3.04.72 3.88 1.88v-4.6c0-.36.3-.56.58-.56.26 0 .56.2.56.56v13.122c0 .36-.3.56-.56.56zm-4.46-9.822c-2.36 0-3.88 1.9-3.88 4.5s1.52 4.52 3.88 4.52c2.38 0 3.88-1.92 3.88-4.52s-1.5-4.5-3.88-4.5zm22.22 9.822c-.26 0-.56-.18-.56-.56v-6.5h-7.762v6.5c0 .36-.26.56-.56.56-.28 0-.58-.18-.58-.56v-13.122c0-.38.3-.56.58-.56.3 0 .56.2.56.56v5.48h7.762v-5.48c0-.36.26-.56.56-.56.28 0 .58.18.58.56v13.122c0 .36-.28.56-.58.56z"/><use xlink:href="#I" x="91.177"/><use xlink:href="#K"/><use xlink:href="#J" x="59.379"/><use xlink:href="#L"/><path d="M923.022 1045.978c-.28 0-.58-.2-.58-.56v-5.84c0-1.9-1.52-3.42-3.42-3.42a3.42 3.42 0 0 0-3.421 3.421v5.84c0 .36-.3.56-.56.56-.28 0-.58-.2-.58-.56v-13.122c0-.36.3-.56.58-.56.26 0 .56.2.56.56v4.26c.84-.98 2.06-1.54 3.42-1.54a4.6 4.6 0 0 1 4.561 4.561v5.84c0 .36-.3.56-.56.56zm13.6.34c-4.3 0-5.82-3.56-5.82-7.46 0-3.92 1.52-7.482 5.82-7.482 4.28 0 5.82 3.562 5.82 7.482 0 3.9-1.54 7.46-5.82 7.46zm0-13.803c-3.32 0-4.682 2.6-4.682 6.342 0 3.72 1.36 6.32 4.682 6.32 3.3 0 4.68-2.6 4.68-6.32 0-3.74-1.38-6.342-4.68-6.342z"/><use xlink:href="#H" x="174.177"/><path d="M956.102 1050.538c-1.7 0-4.102-.64-4.102-1.36 0-.32.26-.64.58-.64.22 0 .68.34 1.06.48.52.18 1.34.38 2.46.38 2.56 0 3.88-1.26 3.88-3.72v-1.4c-.88 1.06-2.14 1.7-3.88 1.7-3.16 0-5.02-2.24-5.02-5.32 0-3 1.8-5.64 5.02-5.64 1.74 0 3.04.72 3.88 1.88v-.96c0-.36.3-.56.58-.56.26 0 .56.2.56.56v9.742c0 3.18-1.9 4.86-5.02 4.86zm0-14.383c-2.36 0-3.88 1.9-3.88 4.5 0 2.58 1.42 4.18 3.88 4.18s3.88-1.6 3.88-4.18c0-2.6-1.5-4.5-3.88-4.5z"/><use xlink:href="#K" x="72.759"/><use xlink:href="#M"/><use xlink:href="#N"/><use xlink:href="#F" x="255.036"/><use xlink:href="#K" x="110.859"/><use xlink:href="#L" x="106.478"/><use xlink:href="#N" x="32.36"/><use xlink:href="#G" x="277.895"/><use xlink:href="#M" x="60.08"/></g><linearGradient id="B" gradientUnits="userSpaceOnUse" x1="34" y1="582.351" x2="1046" y2="582.351"><stop offset="0" stop-color="#009faf"/><stop offset=".239" stop-color="#0090a7"/><stop offset=".712" stop-color="#00779a"/><stop offset="1" stop-color="#006e95"/></linearGradient><path d="M46 262.35h988a12.04 12.04 0 0 1 12 12v616a12.04 12.04 0 0 1-12 12H46a12.04 12.04 0 0 1-12-12v-616a12.04 12.04 0 0 1 12-12z" fill="url(#B)"/><path d="M979 875.8V848.69c0-2.925 2.37-5.296 5.296-5.296h44.408c2.925 0 5.296 2.37 5.296 5.296V875.8c0 2.925-2.37 5.296-5.296 5.296h-44.408c-2.925 0-5.296-2.37-5.296-5.296z" fill="none" stroke="#fff" stroke-width=".926" stroke-miterlimit="10"/><linearGradient id="C" gradientUnits="userSpaceOnUse" x1="983" y1="862.244" x2="1030" y2="862.244"><stop offset="0" stop-color="#ff7e5f"/><stop offset=".292" stop-color="#ff9269"/><stop offset=".732" stop-color="#feab76"/><stop offset="1" stop-color="#feb47b"/></linearGradient><path d="M1028.704 877.616h-44.408c-.716 0-1.296-.58-1.296-1.296v-28.15c0-.716.58-1.296 1.296-1.296h44.408c.716 0 1.296.58 1.296 1.296v28.15c0 .716-.58 1.296-1.296 1.296z" fill="url(#C)"/><path d="M52.113 318.94c.37 4.988 3.14 7.598 8.313 7.828 2.4 0 4.364-.785 5.888-2.355 1.478-1.57 2.24-3.764 2.287-6.582v-6.304c0-2.494-.67-4.526-2-6.096-1.386-1.616-3.325-2.448-5.82-2.494-3.003.093-5.3.878-6.858 2.355-.232.324-.532.44-.9.346H49.62c-.5.093-.716-.115-.624-.624v-23.762c-.093-.508.115-.715.624-.624h21.615c.508-.092.715.116.624.624v3.533c.092.5-.116.74-.624.693H54.33c-.462-.092-.67.116-.624.624v13.717c0 .416.208.5.624.277 1.847-1.016 4.133-1.547 6.858-1.593 3.74.046 6.743 1.224 9.006 3.533 2.3 2.3 3.486 5.473 3.533 9.5v6.304c-.093 4.157-1.4 7.46-3.95 9.907s-5.728 3.717-9.56 3.8c-3.88-.093-6.974-1.316-9.283-3.672-2.355-2.355-3.626-5.404-3.8-9.145-.093-.46.115-.67.624-.624h3.603c.508-.045.762.23.762.832v-.07.07zm33.154 5.68c-.046.462.16.67.624.624h20.23c.508-.092.715.116.624.624v3.74c.092.5-.116.738-.624.693H80.695c-.5.045-.717-.184-.624-.693v-3.8c.23-6.235 2.032-10.97 5.404-14.202s6.72-6.142 10.045-8.73c3.37-2.54 5.196-5.865 5.473-9.976-.046-2.494-.74-4.526-2.08-6.096-1.34-1.616-3.2-2.448-5.6-2.494-2.632.046-4.666.924-6.096 2.632s-2.194 3.788-2.286 6.235c.045.647-.208.924-.762.83h-3.74c-.5.093-.716-.115-.624-.624.184-3.786 1.5-7.042 3.95-9.768 2.4-2.725 5.6-4.133 9.63-4.226 3.74.047 6.812 1.316 9.214 3.8 2.4 2.448 3.648 5.6 3.74 9.5-.277 5.034-2.08 8.937-5.404 11.708L90.88 312.78c-3.372 2.77-5.242 6.72-5.6 11.847v-.07.07zm35.855 4.365c-.185 4.018-1.224 6.95-3.117 8.798-1.94 1.8-3.765 2.702-5.473 2.702-.37 0-.53-.232-.485-.693v-1.87c-.046-.416.14-.624.554-.624 1.2-.23 2.286-.9 3.256-2 .97-1.155 1.478-2.587 1.524-4.295-.093-.232-.208-.324-.347-.277l-1.316.208c-2.033-.046-3.164-1.292-3.395-3.74.23-2.725 1.594-4.133 4.087-4.226 1.94.138 3.256.9 3.95 2.286.46.647.715 1.894.762 3.74v-.07.07zm10.36-24.732c.045.5.253.6.624.277 1.478-1.985 4.27-3.163 8.382-3.533 4.1.093 7.366 1.548 9.77 4.365s3.625 6.397 3.67 10.738c-.046 4.25-1.316 7.875-3.8 10.877-2.45 3.002-5.797 4.572-10.045 4.7-4.25-.14-7.598-1.686-10.045-4.642s-3.695-6.674-3.74-11.154v-21.753c.045-4.157 1.292-7.62 3.74-10.392 2.448-2.816 5.842-4.27 10.184-4.365 3.5.047 6.488 1.063 8.937 3.048 2.447 2.033 3.925 4.757 4.434 8.175.092.416-.14.624-.693.624h-4.087c-.462 0-.693-.277-.693-.832a9.08 9.08 0 0 0-2.425-4.295c-1.2-1.154-3.048-1.755-5.542-1.8-2.726.046-4.85.97-6.374 2.77-1.524 1.848-2.286 4.203-2.286 7.066v10.115zm0 11.985c0 3.048.738 5.542 2.217 7.482 1.478 1.986 3.603 3.026 6.374 3.118 2.77-.092 4.895-1.13 6.374-3.118 1.43-1.985 2.17-4.526 2.217-7.62-.046-3.048-.762-5.518-2.147-7.413-1.432-1.893-3.533-2.863-6.304-2.9-5.774.37-8.684 3.857-8.73 10.46v-.07.07zm40.427 10.53c2.633-.092 4.734-1.04 6.305-2.84s2.355-4.063 2.355-6.8c-.047-3.37-.97-6.003-2.77-7.898-1.848-1.847-4.25-2.77-7.205-2.77h-.832c-.462.046-.67-.184-.624-.693v-3.325c-.046-.508.162-.716.624-.624h.416c2.817-.045 5.08-.946 6.8-2.702 1.708-1.7 2.586-4.064 2.632-7.066-.277-4.895-2.68-7.482-7.205-7.76-1.895 0-3.533.624-4.92 1.87s-2.24 3.072-2.563 5.473c0 .647-.23.925-.692.832h-3.74c-.554.093-.762-.14-.624-.693.323-3.556 1.64-6.488 3.95-8.798 2.355-2.355 5.242-3.556 8.66-3.603 3.556.047 6.5 1.247 8.798 3.603s3.5 5.38 3.603 9.076c-.093 3.14-.878 5.635-2.355 7.482-1.432 1.848-3.048 3.187-4.85 4.018-.37.23-.347.485.07.762 1.847.786 3.625 2.147 5.334 4.087 1.755 1.986 2.678 4.896 2.77 8.73-.093 3.973-1.432 7.367-4.02 10.184-2.632 2.77-5.958 4.226-9.976 4.365-3.65-.047-6.744-1.247-9.284-3.603-2.587-2.4-3.995-5.75-4.226-10.045-.093-.277.115-.46.624-.554h3.74c.508-.092.762.185.762.832.416 5.403 3.232 8.22 8.452 8.452v-.07.07zm43.27-43.298c2.54 2.633 3.856 6.074 3.95 10.323v23.416c-.093 4.25-1.4 7.714-3.95 10.392-2.54 2.632-5.9 3.994-10.045 4.087-4.1-.093-7.46-1.455-10.045-4.087-2.54-2.678-3.834-6.142-3.88-10.392v-23.416c.045-4.25 1.34-7.7 3.88-10.323 2.586-2.678 5.934-4.04 10.045-4.087 4.157.047 7.505 1.4 10.045 4.087zm-18.774 10.323v23.416c.045 2.864.832 5.173 2.355 6.928 1.57 1.755 3.695 2.656 6.374 2.702 2.678-.045 4.803-.946 6.374-2.702s2.378-4.064 2.425-6.928v-23.416c-.046-2.863-.855-5.15-2.425-6.86-1.57-1.754-3.695-2.655-6.374-2.702-2.68.046-4.804.947-6.374 2.702-1.524 1.7-2.3 3.996-2.355 6.86v-.07.07zM938.23 853.04l.328-.246h1.94c.2 0 .3.1.273.273v17.28c-.037.2.045.292.246.273h3.555c.2-.036.28.046.246.246v1.34c.018.2-.064.282-.246.246h-9.68c-.2.036-.293-.046-.273-.246v-1.34c-.02-.2.072-.282.273-.246h3.7c.182.02.264-.073.246-.273v-14.574c-.02-.22-.1-.237-.273-.055-.857.802-2.105 1.53-3.746 2.188-.146.073-.23.027-.246-.137v-1.395c0-.1.063-.2.2-.246 1.55-.656 2.707-1.687 3.473-3.1V853v.027zm13.823 18.02c1.04-.036 1.868-.4 2.488-1.12s.93-1.604.93-2.68c-.02-1.33-.383-2.37-1.094-3.117-.73-.73-1.677-1.094-2.844-1.094h-.328c-.183.02-.265-.073-.246-.273v-1.312c-.02-.2.063-.282.246-.246h.164c1.112-.02 2.005-.374 2.68-1.066.675-.675 1.02-1.604 1.04-2.8-.1-1.933-1.058-2.953-2.844-3.062a2.8 2.8 0 0 0-1.94.738c-.545.492-.884 1.212-1.012 2.16 0 .255-.1.364-.273.328h-1.477c-.22.036-.3-.055-.246-.273.128-1.403.647-2.562 1.56-3.473.93-.93 2.07-1.403 3.418-1.422 1.403.02 2.562.492 3.473 1.422s1.386 2.124 1.422 3.582c-.036 1.24-.347 2.224-.93 2.953-.565.73-1.203 1.258-1.914 1.586-.146.1-.137.2.027.3.73.3 1.43.848 2.105 1.613.692.784 1.058 1.933 1.094 3.445-.036 1.567-.565 2.907-1.586 4.02-1.04 1.094-2.352 1.668-3.937 1.723-1.44-.02-2.66-.492-3.664-1.422-1.02-.948-1.577-2.27-1.668-3.965-.036-.1.046-.183.246-.22h1.477c.2-.036.3.073.3.328.164 2.133 1.276 3.245 3.336 3.336v-.027.027zm10.347-8.886c.02.2.1.237.246.1.584-.784 1.687-1.25 3.3-1.395 1.623.036 2.908.6 3.855 1.723s1.432 2.524 1.45 4.238c-.018 1.677-.52 3.108-1.504 4.293-.966 1.185-2.287 1.805-3.965 1.86-1.677-.055-2.998-.665-3.965-1.832s-1.458-2.634-1.477-4.402v-8.586c.02-1.64.5-3.008 1.477-4.102.967-1.112 2.307-1.687 4.02-1.723 1.386.02 2.562.42 3.527 1.203.967.802 1.55 1.878 1.75 3.227.037.164-.055.246-.273.246h-1.613c-.182 0-.273-.1-.273-.328-.164-.656-.482-1.222-.957-1.695-.474-.456-1.203-.692-2.187-.7-1.075.02-1.914.383-2.516 1.094-.602.73-.902 1.66-.902 2.8v3.992zm0 4.73c0 1.203.292 2.188.875 2.953.584.784 1.422 1.194 2.516 1.23 1.094-.036 1.933-.446 2.516-1.23.565-.784.857-1.786.875-3.008-.018-1.203-.3-2.18-.848-2.926-.564-.747-1.395-1.13-2.488-1.148-2.278.146-3.427 1.522-3.445 4.13v-.027.027z" fill="#fff"/><path d="M51.743 221.93l.375-.28h2.22c.23 0 .333.104.313.313v19.75c-.042.23.052.333.28.313h4.063c.23-.042.323.052.28.28v1.53c.02.23-.073.323-.28.28H47.93c-.23.04-.334-.052-.312-.28v-1.53c-.02-.23.083-.323.313-.28h4.22c.208.02.302-.083.28-.312v-16.656c-.02-.25-.125-.27-.312-.062-.98.917-2.406 1.75-4.28 2.5-.167.083-.26.03-.28-.156v-1.594c0-.125.073-.22.22-.28 1.77-.75 3.094-1.927 3.97-3.53v-.03.03zm19.924 11.594c0-.208-.094-.24-.28-.094-.667.875-1.948 1.386-3.844 1.53-1.854-.042-3.312-.687-4.375-1.937s-1.604-2.864-1.625-4.844c.02-1.917.573-3.542 1.656-4.875 1.104-1.333 2.614-2.03 4.53-2.094 1.938.042 3.458.73 4.563 2.063 1.083 1.313 1.635 2.98 1.656 5v9.78c-.02 1.854-.573 3.406-1.656 4.656-1.084 1.23-2.625 1.875-4.625 1.938-1.584-.02-2.927-.48-4.03-1.375-1.084-.875-1.73-2.083-1.937-3.625-.042-.187.052-.28.28-.28h1.78c.208 0 .323.125.344.375a3.87 3.87 0 0 0 1.063 1.938c.563.52 1.406.792 2.53.813 1.27-.02 2.25-.437 2.938-1.25.688-.833 1.03-1.896 1.03-3.187v-4.53zm0-5.406c0-1.375-.334-2.5-1-3.406-.687-.896-1.667-1.354-2.937-1.375-1.25.02-2.2.48-2.875 1.375-.667.917-1 2.073-1.03 3.47.02 1.417.354 2.552 1 3.406s1.594 1.292 2.844 1.313c2.646-.167 3.98-1.76 4-4.78v-.03.03zm14.955-5.125c1.083 1.125 1.646 2.552 1.688 4.28-.125 2.583-1.02 4.292-2.687 5.125-.104.083-.094.188.03.313 2.063 1.188 3.083 3.02 3.063 5.5-.042 1.917-.636 3.458-1.78 4.625-1.167 1.167-2.636 1.77-4.406 1.813-1.77-.042-3.23-.646-4.375-1.812s-1.74-2.708-1.78-4.625c-.02-2.48 1-4.312 3.063-5.5.125-.125.135-.23.03-.312-1.667-.833-2.562-2.542-2.687-5.125.042-1.73.604-3.156 1.688-4.28 1.063-1.146 2.417-1.74 4.063-1.78 1.667.042 3.03.636 4.094 1.78zm-4.094 19.563c1.188-.02 2.135-.427 2.844-1.22.708-.77 1.063-1.802 1.063-3.094 0-1.396-.344-2.5-1.03-3.344-.687-.854-1.646-1.292-2.875-1.312-1.208.02-2.156.458-2.844 1.313-.687.833-1.03 1.948-1.03 3.344 0 1.292.354 2.323 1.063 3.094.708.792 1.646 1.198 2.813 1.22v-.03.03zm3.5-15.25c0-1.104-.312-2.042-.937-2.812-.604-.77-1.458-1.167-2.562-1.187-1.104.02-1.958.417-2.562 1.188s-.906 1.708-.906 2.813c.063 2.625 1.22 4 3.47 4.156 2.27-.146 3.438-1.53 3.5-4.156zm15.736-4.313c1.146 1.188 1.74 2.74 1.78 4.656v10.563c-.042 1.917-.636 3.48-1.78 4.688-1.146 1.188-2.656 1.802-4.53 1.844-1.854-.042-3.365-.656-4.53-1.844-1.146-1.208-1.73-2.77-1.75-4.687V227.65c.02-1.917.604-3.47 1.75-4.656 1.166-1.208 2.677-1.823 4.53-1.844 1.875.02 3.385.636 4.53 1.844zm-8.47 4.656v10.563c.02 1.292.375 2.333 1.063 3.125.708.792 1.666 1.198 2.875 1.22 1.208-.02 2.166-.427 2.875-1.22s1.073-1.833 1.094-3.125V227.65c-.02-1.292-.386-2.323-1.094-3.094-.7-.792-1.667-1.198-2.875-1.22-1.2.02-2.167.427-2.875 1.22-.687.77-1.042 1.802-1.062 3.094v-.03.03z" fill="#326f92"/><path d="M980.644 940.533c-.02.208.073.302.28.28h9.125c.23-.042.323.052.28.28v1.688c.042.23-.052.333-.28.313h-11.47c-.23.02-.323-.083-.28-.312v-1.72c.104-2.812.917-4.948 2.438-6.406l4.53-3.937c1.52-1.146 2.344-2.646 2.47-4.5-.02-1.125-.333-2.042-.937-2.75-.604-.73-1.448-1.104-2.53-1.125-1.187.02-2.104.417-2.75 1.188s-1 1.708-1.03 2.813c.02.292-.094.417-.344.375h-1.687c-.23.042-.323-.052-.28-.28.083-1.708.677-3.177 1.78-4.406 1.083-1.23 2.53-1.864 4.344-1.906 1.688.02 3.073.594 4.156 1.72 1.083 1.104 1.646 2.53 1.688 4.28-.125 2.27-.937 4.03-2.437 5.28l-4.53 3.78c-1.52 1.25-2.364 3.03-2.53 5.344v-.03.03zm22.8-18.563c1.146 1.188 1.74 2.74 1.78 4.656v10.563c-.042 1.917-.636 3.48-1.78 4.688-1.146 1.188-2.656 1.802-4.53 1.844-1.854-.042-3.364-.656-4.53-1.844-1.146-1.208-1.73-2.77-1.75-4.687v-10.562c.02-1.917.604-3.47 1.75-4.656 1.167-1.208 2.677-1.823 4.53-1.844 1.875.02 3.386.636 4.53 1.844zm-8.47 4.656v10.563c.02 1.292.375 2.333 1.063 3.125.708.792 1.667 1.198 2.875 1.22 1.208-.02 2.167-.427 2.875-1.22s1.073-1.833 1.094-3.125v-10.562c-.02-1.292-.386-2.323-1.094-3.094-.708-.792-1.667-1.198-2.875-1.22-1.208.02-2.167.427-2.875 1.22-.687.77-1.042 1.802-1.062 3.094v-.03.03zm17.27-5.718l.375-.28h2.22c.23 0 .333.104.313.313v19.75c-.042.23.052.333.28.313h4.063c.23-.042.323.052.28.28v1.53c.02.23-.073.322-.28.28h-11.062c-.23.04-.333-.052-.312-.28v-1.53c-.02-.23.083-.323.313-.28h4.22c.208.02.302-.083.28-.312v-16.656c-.02-.25-.125-.27-.312-.062-.98.917-2.406 1.75-4.28 2.5-.167.083-.26.03-.28-.156v-1.594c0-.125.073-.22.22-.28 1.77-.75 3.094-1.927 3.97-3.53v-.03.03zm20.174 1.062c1.083 1.125 1.646 2.552 1.688 4.28-.125 2.583-1.02 4.292-2.687 5.125-.104.083-.094.188.03.313 2.063 1.188 3.083 3.02 3.063 5.5-.042 1.917-.636 3.458-1.78 4.625-1.167 1.167-2.636 1.77-4.406 1.813-1.77-.042-3.23-.646-4.375-1.812s-1.74-2.708-1.78-4.625c-.02-2.48 1-4.312 3.063-5.5.125-.125.136-.23.03-.312-1.667-.833-2.563-2.542-2.688-5.125.042-1.73.604-3.156 1.688-4.28 1.063-1.146 2.417-1.74 4.063-1.78 1.667.042 3.03.636 4.094 1.78zm-4.094 19.563c1.188-.02 2.136-.427 2.844-1.22.708-.77 1.063-1.802 1.063-3.094 0-1.396-.344-2.5-1.03-3.344-.687-.854-1.646-1.292-2.875-1.312-1.208.02-2.156.458-2.844 1.313-.687.833-1.03 1.948-1.03 3.344 0 1.292.354 2.323 1.063 3.094.708.792 1.646 1.198 2.813 1.22v-.03.03zm3.5-15.25c0-1.104-.312-2.042-.937-2.812-.604-.77-1.458-1.167-2.562-1.187-1.104.02-1.958.417-2.562 1.188s-.906 1.708-.906 2.813c.063 2.625 1.22 4 3.47 4.156 2.27-.145 3.438-1.53 3.5-4.156z" fill="#eb8968"/><path d="M80.258 40.462l-9.9 37.438c-.3 1.44-1.08 2.1-2.46 2.1-1.26 0-2.16-.66-2.58-2.1l-8.1-28.74-8.04 28.74c-.42 1.44-1.26 2.1-2.52 2.1-1.32 0-2.16-.66-2.52-2.1l-9.9-37.438c-.06-.24-.12-.54-.12-.84 0-1.5 1.38-2.34 2.7-2.34 1.02 0 2.04.6 2.4 1.86l7.56 28.62 7.92-28.38c.42-1.44 1.26-2.1 2.52-2.1 1.32 0 2.16.66 2.58 2.1l7.92 28.38 7.56-28.62c.36-1.32 1.56-1.98 2.46-1.98 1.32 0 2.64.96 2.64 2.46 0 .3-.06.6-.12.84z"/><use xlink:href="#O"/><path d="M116.32 52.042c-.48.24-.9.3-1.32.3-1.44 0-2.58-1.32-2.58-2.7 0-.84.36-1.56 1.26-2.16 1.56-.84 2.64-2.7 2.64-4.14v-4.56c0-1.74 1.2-2.64 2.52-2.64 1.38 0 2.58.9 2.58 2.64v4.56c0 1.92-.9 6.06-5.1 8.7zm35.518-.36l-10.92 26.28c-.54 1.38-1.44 2.04-2.58 2.04-1.02 0-1.98-.66-2.58-2.04l-10.92-26.28c-.12-.42-.18-.72-.18-1.08 0-1.44 1.32-2.46 2.64-2.46.9 0 1.8.48 2.28 1.56l8.76 21 8.76-21c.42-1.14 1.5-1.62 2.34-1.62 1.38 0 2.64.96 2.64 2.46 0 .3-.06.72-.24 1.14z"/><use xlink:href="#O" x="71.879"/><path d="M229.475 80c-.9 0-1.8-.48-2.28-1.56l-3.18-7.8h-19.98l-3.24 7.8c-.48 1.08-1.38 1.56-2.22 1.56-1.32 0-2.7-1.02-2.7-2.52 0-.36.06-.72.24-1.02l15.42-37.498c.72-1.56 1.68-1.86 2.46-1.86.54 0 1.86.3 2.46 1.86l15.48 37.498c.12.3.18.66.18 1.02 0 1.5-1.26 2.52-2.64 2.52zm-15.48-33.6l-7.86 19.08h15.72l-7.86-19.08z"/><use xlink:href="#P"/><path d="M286.593 80c-1.26 0-2.52-.9-2.52-2.52v-18.9c0-3.48-2.88-6.36-6.3-6.36-3.54 0-6.36 2.88-6.36 6.3v18.9c0 1.68-1.2 2.58-2.58 2.58-1.32 0-2.52-.9-2.52-2.52v-18.9c0-3.48-2.88-6.36-6.36-6.36s-6.36 2.88-6.36 6.3v18.9c0 1.68-1.26 2.58-2.64 2.58-1.26 0-2.52-.9-2.52-2.52v-26.82c0-1.74 1.32-2.58 2.64-2.58.84 0 1.68.36 2.16 1.14a11.56 11.56 0 0 1 6.66-2.1c3.6 0 6.84 1.62 8.94 4.26 2.1-2.64 5.28-4.26 8.88-4.26 6.36 0 11.52 5.1 11.52 11.4v18.9c0 1.68-1.26 2.58-2.64 2.58z"/><use xlink:href="#Q"/><path d="M338.314 81.02c-3.3 0-8.82-1.02-11.64-4.5-.36-.54-.54-1.08-.54-1.56 0-1.5 1.44-2.7 2.7-2.7.72 0 1.26.36 1.86 1.02 1.86 2.04 4.92 2.64 7.62 2.64 5.4 0 7.14-1.86 7.14-4.56 0-7.68-18.3-2.94-18.3-15.3 0-6.54 6.12-8.94 11.82-8.94 3.24 0 10.86 1.62 10.86 4.98 0 1.32-1.08 2.7-2.52 2.7-.54 0-1.38-.3-1.98-.78-1.62-1.38-3.96-1.8-6.36-1.8-4.98 0-6.72 1.86-6.72 3.84 0 7.14 18.36 2.52 18.36 15.3 0 7.08-5.94 9.66-12.3 9.66z"/><use xlink:href="#R"/><path d="M409.95 80H385c-1.44 0-2.64-1.14-2.64-2.52V39.862c0-1.44 1.2-2.58 2.64-2.58h24.96c1.56 0 2.52 1.14 2.52 2.52 0 1.26-.9 2.58-2.52 2.58H387.5V54.5h15.72a2.56 2.56 0 0 1 2.58 2.58c0 1.38-1.02 2.58-2.58 2.58H387.5V74.9h22.44c1.62 0 2.52 1.26 2.52 2.58 0 1.38-.96 2.52-2.52 2.52zm20.942-27.778c-4.62 0-8.52 3.9-8.52 8.58v16.62c0 1.68-1.26 2.58-2.64 2.58-1.26 0-2.52-.9-2.52-2.52v-26.76c0-1.68 1.38-2.58 2.52-2.58 1.2 0 2.34.66 2.58 2.04a13.88 13.88 0 0 1 8.58-3.06c1.74 0 2.64 1.2 2.64 2.58 0 1.32-.9 2.52-2.64 2.52z"/><use xlink:href="#S"/><use xlink:href="#T"/><use xlink:href="#U"/><path d="M539.48 76.46c-2.64 2.94-6.3 4.56-10.74 4.56-9.66 0-15.06-7.92-15.06-16.98 0-9 5.4-16.92 15.06-16.92 4.44 0 8.1 1.62 10.74 4.56.48.54.72 1.14.72 1.74 0 1.32-1.32 2.58-2.7 2.58-.54 0-1.2-.24-1.86-.84-1.68-1.86-3.9-2.94-6.9-2.94-6 0-9.9 4.68-9.9 11.82 0 7.2 3.9 11.88 9.9 11.88 3 0 5.28-1.14 6.9-2.94.54-.66 1.26-.9 1.86-.9 1.38 0 2.7 1.2 2.7 2.64 0 .54-.24 1.2-.72 1.74z"/><use xlink:href="#S" x="111.06"/><use xlink:href="#R" x="225.226"/><path d="M621.438 66.68h-22.2c.84 5.64 4.44 9.24 9.72 9.24 2.7 0 5.4-.96 7.14-3.12.54-.6 1.14-.96 1.86-.96 1.32 0 2.7 1.2 2.7 2.64 0 .72-.18 1.26-1.44 2.52-2.7 2.64-6.42 4.02-10.26 4.02-9.66 0-15.06-7.98-15.06-16.98 0-8.94 5.4-16.92 15.06-16.92 9.78 0 15 7.98 15 16.92 0 1.32-.96 2.64-2.52 2.64zm-12.48-14.46c-5.64 0-8.94 4.14-9.72 9.3h19.438c-.84-5.76-4.44-9.3-9.72-9.3z"/><use xlink:href="#T" x="159.477"/><path d="M693.197 61.52h-12.84v15.9c0 1.56-1.2 2.58-2.52 2.58-1.44 0-2.64-.96-2.64-2.52V39.862c0-1.08.72-2.58 2.52-2.58h15.54c5.28 0 12.06 4.14 12.06 12.06 0 6.78-5.4 12.18-12.12 12.18zm0-19.14h-12.84v14.04h12.78a6.99 6.99 0 0 0 7.02-7.02c0-3.9-3.12-7.02-6.96-7.02z"/><use xlink:href="#Q" x="412.183"/><use xlink:href="#P" x="503.322"/><use xlink:href="#U" x="248.336"/><use xlink:href="#Q" x="467.382"/><path d="M54.06 125.097c-1.862 2.583-4.52 4.14-8.473 4.14-8.17 0-11.057-6.763-11.057-14.172 0-7.446 2.888-14.2 11.057-14.2 3.837 0 6.648 1.52 8.435 4.142.2.2.228.38.228.608 0 .607-.57 1.063-1.178 1.063-.304 0-.607-.114-.836-.418-1.367-1.976-3.42-3.23-6.648-3.23-6.308 0-8.9 4.94-8.9 12.044 0 7.067 2.583 12.007 8.9 12.007 3.23 0 5.32-1.216 6.725-3.23.2-.38.532-.494.836-.494.57 0 1.14.494 1.14 1.102 0 .2-.075.418-.228.646zm23.408 3.495h-.038c-1.254 0-3.04-.684-3.762-2.964-1.596 2.242-4.065 3.6-7.37 3.6-6.193 0-9.536-5.1-9.536-10.752 0-5.737 3.42-10.715 9.536-10.715 3.306 0 5.775 1.368 7.37 3.572v-1.862c0-.607.494-1.063 1.102-1.063.532 0 1.064.38 1.064 1.063v15.312c0 2.432 2.735.912 2.735 2.736a1.04 1.04 0 0 1-1.102 1.063zm-11.17-18.655c-4.483 0-7.37 3.6-7.37 8.55s2.888 8.587 7.37 8.587c4.52 0 7.37-3.647 7.37-8.587s-2.85-8.55-7.37-8.55zm21.318 19.377c-2.28 0-6.117-.798-7.447-3-.15-.23-.15-.418-.15-.57 0-.607.53-1.14 1.102-1.14.228 0 .607.2.836.532 1.367 1.67 3.8 2.014 5.66 2.014 3.686 0 5.547-1.216 5.547-3.686 0-5.737-12.462-2.698-12.462-10.297 0-3.837 3.837-5.32 7.295-5.32 1.976 0 5.016.685 6.535 2.204.228.228.342.494.342.722 0 .57-.57 1.14-1.178 1.14-.23 0-.494-.076-.722-.304-1.18-1.14-3.306-1.596-4.978-1.596-3.344 0-5.13 1.292-5.13 3.153 0 5.32 12.462 2.508 12.462 10.297 0 4.33-3.8 5.85-7.713 5.85zm28.08-9.727H99.928c.342 4.332 3.153 7.485 7.295 7.485 2.052 0 4.483-.912 5.585-2.622.267-.418.57-.53.912-.53.57 0 1.178.455 1.178 1.025 0 .342 0 .418-.722 1.254-1.748 2.052-4.293 3.04-6.953 3.04-6.117 0-9.536-5.015-9.536-10.752 0-5.7 3.42-10.715 9.536-10.715s9.537 5.054 9.537 10.715c0 .57-.532 1.102-1.064 1.102zm-8.473-9.65c-4.56 0-6.953 3.495-7.295 7.485h14.628c-.342-4.332-3.153-7.485-7.333-7.485zm19.647 19.377c-2.28 0-6.117-.798-7.447-3-.15-.23-.15-.418-.15-.57 0-.607.53-1.14 1.102-1.14.228 0 .607.2.836.532 1.367 1.67 3.8 2.014 5.66 2.014 3.686 0 5.547-1.216 5.547-3.686 0-5.737-12.462-2.698-12.462-10.297 0-3.837 3.837-5.32 7.295-5.32 1.976 0 5.015.685 6.535 2.204.228.228.342.494.342.722 0 .57-.57 1.14-1.178 1.14-.23 0-.494-.076-.722-.304-1.178-1.14-3.306-1.596-4.978-1.596-3.344 0-5.13 1.292-5.13 3.153 0 5.32 12.462 2.508 12.462 10.297 0 4.33-3.8 5.85-7.713 5.85zm44.494-19.49l-6.193 17.857c-.266.722-.607.912-1.102.912-.646 0-.836-.228-1.064-.912l-4.977-14.817-4.978 14.817c-.266.722-.608.912-1.102.912s-.874-.304-1.064-.912l-6.154-17.857a1.61 1.61 0 0 1-.076-.418c0-.607.607-.987 1.102-.987.38 0 .836.2.988.722l5.205 15.046 4.977-14.855c.23-.723.456-.912 1.103-.912.456 0 .836.15 1.063.912l5.054 14.855 5.13-15.046c.2-.532.57-.722.987-.722.57 0 1.18.38 1.18 1.025a1.12 1.12 0 0 1-.076.38zm11.63 19.415c-6.117 0-9.536-5.015-9.536-10.752 0-5.7 3.42-10.715 9.536-10.715s9.537 5.016 9.537 10.715c0 5.737-3.42 10.752-9.537 10.752zm0-19.3c-4.483 0-7.37 3.6-7.37 8.55s2.888 8.587 7.37 8.587c4.52 0 7.37-3.647 7.37-8.587s-2.85-8.55-7.37-8.55zm21.963.342c-3.57 0-6.497 2.888-6.497 6.497v10.753c0 .684-.57 1.063-1.063 1.063-.532 0-1.103-.38-1.103-1.063v-18.05c0-.684.57-1.063 1.103-1.063.494 0 1.063.38 1.063 1.063v1.558c1.7-1.86 3.95-2.925 6.497-2.925.684 0 1.102.57 1.102 1.063 0 .532-.418 1.102-1.102 1.102zm6.88 18.54c-2.052 0-3.762-1.9-3.762-4.027v-22.188c0-.684.57-1.063 1.103-1.063.494 0 1.063.38 1.063 1.063v22.188c0 2.432 2.697 1.026 2.697 2.736 0 .646-.455 1.3-1.102 1.3zm20.934-.228c-.53 0-1.102-.38-1.102-1.063v-1.9c-1.596 2.242-4.065 3.6-7.37 3.6-6.117 0-9.536-5.015-9.536-10.752 0-5.7 3.42-10.715 9.536-10.715 3.306 0 5.775 1.368 7.37 3.572v-8.74c0-.684.57-1.063 1.102-1.063.494 0 1.064.38 1.064 1.063v24.925c0 .684-.57 1.063-1.064 1.063zm-8.473-18.655c-4.483 0-7.37 3.6-7.37 8.55s2.888 8.587 7.37 8.587c4.52 0 7.37-3.647 7.37-8.587s-2.85-8.55-7.37-8.55zm39.177-.114l-6.193 17.857c-.266.722-.607.912-1.102.912-.646 0-.836-.228-1.064-.912l-4.977-14.817-4.978 14.817c-.266.722-.608.912-1.102.912s-.874-.304-1.064-.912l-6.155-17.857a1.65 1.65 0 0 1-.075-.418c0-.607.607-.987 1.102-.987.38 0 .836.2.988.722l5.205 15.046 4.977-14.855c.23-.723.456-.912 1.103-.912.456 0 .836.15 1.063.912l5.054 14.855 5.13-15.046c.2-.532.57-.722.988-.722.57 0 1.178.38 1.178 1.025a1.12 1.12 0 0 1-.076.38zm4.07-5.053a2.166 2.166 0 1 1 0-4.332 2.166 2.166 0 0 1 0 4.332zm0 23.822c-.532 0-1.103-.342-1.103-1.063v-18.05c0-.684.532-1.063 1.103-1.063.494 0 1.063.342 1.063 1.063v18.048c0 .684-.494 1.063-1.063 1.063zm22.836 0c-.532 0-1.102-.38-1.102-1.063v-1.9c-1.596 2.242-4.065 3.6-7.37 3.6-6.117 0-9.536-5.015-9.536-10.752 0-5.7 3.42-10.715 9.536-10.715 3.306 0 5.775 1.368 7.37 3.572v-8.74c0-.684.57-1.063 1.102-1.063.494 0 1.064.38 1.064 1.063v24.925c0 .684-.57 1.063-1.064 1.063zm-8.473-18.655c-4.483 0-7.37 3.6-7.37 8.55s2.888 8.587 7.37 8.587c4.52 0 7.37-3.647 7.37-8.587s-2.85-8.55-7.37-8.55zm31.31 9.65H297.45c.342 4.332 3.153 7.485 7.295 7.485 2.052 0 4.483-.912 5.585-2.622.267-.418.57-.53.912-.53.57 0 1.178.455 1.178 1.025 0 .342 0 .418-.722 1.254-1.748 2.052-4.293 3.04-6.953 3.04-6.117 0-9.536-5.015-9.536-10.752 0-5.7 3.42-10.715 9.536-10.715s9.537 5.054 9.537 10.715c0 .57-.532 1.102-1.064 1.102zm-8.473-9.65c-4.56 0-6.953 3.495-7.295 7.485h14.628c-.342-4.332-3.153-7.485-7.333-7.485z"/><defs ><path id="E" d="M104.92 1045.51c-.633 0-1.267-.367-1.4-1.1-1.334 1.034-2.97 1.668-4.804 1.668-4.136 0-7.604-3.436-7.604-7.605v-9.24a1.37 1.37 0 0 1 1.4-1.435c.768 0 1.468.5 1.468 1.4v9.272c0 2.602 2.168 4.77 4.736 4.77 2.603 0 4.77-2.17 4.77-4.77v-9.24c0-1.034.667-1.468 1.4-1.468.768 0 1.435.5 1.435 1.435v14.9c0 .934-.667 1.4-1.4 1.4z"/><path id="F" d="M740.866 1046.357c-1.2 0-3.22-.42-3.92-1.58-.08-.12-.08-.22-.08-.3 0-.32.28-.6.58-.6.12 0 .32.1.44.28.72.88 2 1.06 2.98 1.06 1.94 0 2.92-.64 2.92-1.94 0-3.02-6.562-1.42-6.562-5.422 0-2.02 2.02-2.8 3.84-2.8 1.04 0 2.64.36 3.44 1.16.12.12.18.26.18.38a.65.65 0 0 1-.62.6.53.53 0 0 1-.38-.16c-.62-.6-1.74-.84-2.62-.84-1.76 0-2.7.68-2.7 1.66 0 2.8 6.562 1.32 6.562 5.422 0 2.28-2 3.08-4.06 3.08z"/><path id="G" d="M751.587 1046.317c-3.22 0-5.02-2.64-5.02-5.66 0-3 1.8-5.64 5.02-5.64s5.02 2.64 5.02 5.64c0 3.02-1.8 5.66-5.02 5.66zm0-10.162c-2.36 0-3.88 1.9-3.88 4.5s1.52 4.52 3.88 4.52c2.38 0 3.88-1.92 3.88-4.52s-1.5-4.5-3.88-4.5z"/><path id="H" d="M775.326 1036.336a3.42 3.42 0 0 0-3.421 3.42v5.66c0 .36-.3.56-.56.56-.28 0-.58-.2-.58-.56v-9.502c0-.36.3-.56.58-.56.26 0 .56.2.56.56v.82c.9-.98 2.08-1.54 3.42-1.54.36 0 .58.3.58.56a.58.58 0 0 1-.58.581z"/><path id="I" d="M797.087 1041.236h-8.302c.18 2.28 1.66 3.94 3.84 3.94 1.08 0 2.36-.48 2.94-1.38.14-.22.3-.28.48-.28.3 0 .62.24.62.54 0 .18 0 .22-.38.66-.92 1.08-2.26 1.6-3.66 1.6-3.22 0-5.02-2.64-5.02-5.66 0-3 1.8-5.64 5.02-5.64s5.02 2.66 5.02 5.64c0 .3-.28.58-.56.58zm-4.46-5.08c-2.4 0-3.66 1.84-3.84 3.94h7.7c-.18-2.28-1.66-3.94-3.86-3.94z"/><path id="J" d="M846.643 1046.098c-1.08 0-1.98-1-1.98-2.12v-11.683c0-.36.3-.56.58-.56.26 0 .56.2.56.56v11.683c0 1.28 1.42.54 1.42 1.44 0 .34-.24.68-.58.68z"/><path id="K" d="M901.644 1045.978h-.02c-.66 0-1.6-.36-1.98-1.56-.84 1.18-2.14 1.9-3.88 1.9-3.26 0-5.02-2.68-5.02-5.66 0-3.02 1.8-5.64 5.02-5.64 1.74 0 3.04.72 3.88 1.88v-.98c0-.32.26-.56.58-.56.28 0 .56.2.56.56v8.063c0 1.28 1.44.48 1.44 1.44a.55.55 0 0 1-.58.561zm-5.88-9.822c-2.36 0-3.88 1.9-3.88 4.5s1.52 4.52 3.88 4.52c2.38 0 3.88-1.92 3.88-4.52s-1.5-4.5-3.88-4.5z"/><path id="L" d="M912.082 1045.978h-.62c-1.58 0-2.36-.78-2.36-2.34v-7.142h-1.02c-.36 0-.56-.3-.56-.58 0-.26.2-.56.56-.56h1.02v-3.06c0-.36.3-.56.58-.56s.56.2.56.56v3.06h1.84c.36 0 .56.3.56.56 0 .28-.2.58-.56.58h-1.84v7.142c0 .98.28 1.2 1.22 1.2h.62c.36 0 .56.3.56.58 0 .26-.2.56-.56.56z"/><path id="M" d="M985.362 1045.978c-.28 0-.58-.2-.58-.56v-5.84c0-1.9-1.52-3.42-3.42-3.42a3.42 3.42 0 0 0-3.421 3.421v5.84c0 .36-.3.56-.56.56-.28 0-.58-.2-.58-.56v-9.502c0-.36.3-.56.58-.56.26 0 .56.2.56.56v.64c.9-.98 2.08-1.54 3.42-1.54a4.6 4.6 0 0 1 4.561 4.561v5.84c0 .36-.3.56-.56.56z"/><path id="N" d="M989.16 1033.435c-.64 0-1.14-.5-1.14-1.14s.5-1.14 1.14-1.14 1.14.5 1.14 1.14-.5 1.14-1.14 1.14zm0 12.543c-.28 0-.58-.18-.58-.56v-9.502c0-.36.28-.56.58-.56.26 0 .56.18.56.56v9.502c0 .36-.26.56-.56.56z"/><path id="O" d="M108.518 66.68h-22.2c.84 5.64 4.44 9.24 9.72 9.24 2.7 0 5.4-.96 7.14-3.12.54-.6 1.14-.96 1.86-.96 1.32 0 2.7 1.2 2.7 2.64 0 .72-.18 1.26-1.44 2.52-2.7 2.64-6.42 4.02-10.26 4.02-9.66 0-15.06-7.98-15.06-16.98 0-8.94 5.4-16.92 15.06-16.92 9.78 0 15 7.98 15 16.92 0 1.32-.96 2.64-2.52 2.64zm-12.48-14.46c-5.64 0-8.94 4.14-9.72 9.3h19.44c-.84-5.76-4.44-9.3-9.72-9.3z"/><path id="P" d="M241.595 80.12c-3.24 0-6-2.76-6-6.12V39.862c0-1.74 1.26-2.58 2.58-2.58s2.58.84 2.58 2.52V74c0 .72.54 1.02.84 1.02 1.68 0 2.58 1.2 2.58 2.58 0 1.32-.9 2.52-2.58 2.52z"/><path id="Q" d="M308.494 81.02c-9.66 0-15.06-7.92-15.06-16.98 0-9 5.4-16.92 15.06-16.92s15.06 7.92 15.06 16.92c0 9.06-5.4 16.98-15.06 16.98zm0-28.8c-6 0-9.9 4.68-9.9 11.82 0 7.2 3.9 11.88 9.9 11.88 6.06 0 9.9-4.68 9.9-11.88 0-7.14-3.84-11.82-9.9-11.82z"/><path id="R" d="M364.534 80h-1.02c-5.7 0-7.86-3-7.86-7.92v-18.84h-1.8c-1.44 0-2.58-1.14-2.58-2.52 0-1.44 1.14-2.58 2.52-2.58h1.8v-8.34c0-1.68 1.26-2.52 2.58-2.52s2.52.84 2.52 2.52v8.34h3.84c1.68 0 2.52 1.38 2.52 2.52 0 1.44-.96 2.58-2.52 2.58h-3.84v19.38c0 1.68.6 2.28 2.28 2.28h1.5c1.56 0 2.58 1.14 2.58 2.52 0 1.44-.96 2.58-2.52 2.58z"/><path id="S" d="M462.8 80c-3.3 0-4.8-2.34-5.34-3.42-2.4 2.64-5.88 4.44-10.56 4.44-9.78 0-15.06-8.04-15.06-16.98s5.4-16.92 15.06-16.92c4.2 0 7.56 1.5 9.9 3.96v-.24c0-.66.24-2.7 2.52-2.7 1.26 0 2.64.66 2.64 2.52v23.16c0 .78.54 1.08.84 1.08 1.68 0 2.58 1.2 2.58 2.58 0 1.26-.9 2.52-2.58 2.52zm-15.9-27.78c-6 0-9.9 4.68-9.9 11.82 0 7.2 3.9 11.88 9.9 11.88 6.06 0 9.9-4.68 9.9-11.88 0-7.14-3.84-11.82-9.9-11.82z"/><path id="T" d="M494.72 79.94c-1.32 0-2.58-.84-2.58-2.52 0 0-3.54 3.6-9.9 3.6-9.66 0-15.06-7.92-15.06-16.98 0-9 5.4-16.92 15.06-16.92 4.2 0 7.56 1.44 9.9 3.9v-11.16c0-1.74 1.26-2.58 2.58-2.58s2.58.84 2.58 2.52V77.42c0 1.68-1.26 2.52-2.58 2.52zm-12.48-27.72c-6 0-9.9 4.68-9.9 11.82 0 7.2 3.9 11.88 9.9 11.88 6.06 0 9.9-4.68 9.9-11.88 0-7.14-3.84-11.82-9.9-11.82z"/><path id="U" d="M506.18 43.282a4.3 4.3 0 1 1 0-8.64 4.3 4.3 0 1 1 0 8.64zm0 36.72c-1.32 0-2.64-.9-2.64-2.52v-26.76c0-1.68 1.32-2.58 2.64-2.58 1.26 0 2.52.9 2.52 2.58v26.76c0 1.68-1.26 2.52-2.52 2.52z"/></defs></svg>