<svg xmlns="http://www.w3.org/2000/svg" xmlns:xlink="http://www.w3.org/1999/xlink" viewBox="0 0 1080 1080"><linearGradient id="A" gradientUnits="userSpaceOnUse" x1="11.716" y1="11.716" x2="1068.284" y2="1068.284"><stop offset="0" stop-color="#2c3e50"/><stop offset=".129" stop-color="#354658"/><stop offset=".341" stop-color="#4e5d6c"/><stop offset=".61" stop-color="#77828d"/><stop offset=".923" stop-color="#aeb5bb"/><stop offset="1" stop-color="#bdc3c7"/></linearGradient><path d="M1040 1080H40c-22.09 0-40-17.91-40-40V40C0 17.91 17.91 0 40 0h1000c22.09 0 40 17.91 40 40v1000c0 22.09-17.91 40-40 40z" fill="url(#A)"/><g opacity=".7" fill="#fff"><use xlink:href="#C"/><use xlink:href="#D"/><path d="M822.465 1045.98c-.28 0-.58-.2-.58-.56v-.64c-.84.98-2.06 1.54-3.42 1.54-2.48 0-4.56-2.08-4.56-4.56v-5.842c0-.36.3-.56.58-.56.26 0 .56.2.56.56v5.842c0 1.9 1.52 3.42 3.42 3.42s3.42-1.52 3.42-3.42v-5.842c0-.36.3-.56.58-.56.26 0 .56.2.56.56v9.502c0 .36-.3.56-.56.56z"/><use xlink:href="#E"/><path d="M840.605 1044.797c-.88.98-2.1 1.52-3.58 1.52-3.22 0-5.02-2.64-5.02-5.662 0-3 1.8-5.64 5.02-5.64 1.48 0 2.7.54 3.58 1.52.12.12.16.262.16.38 0 .3-.28.6-.58.6-.14 0-.28-.06-.42-.2-.66-.74-1.58-1.16-2.74-1.16-2.36 0-3.88 1.9-3.88 4.5s1.52 4.52 3.88 4.52c1.16 0 2.08-.44 2.74-1.16.14-.14.28-.2.42-.2.3 0 .58.26.58.58 0 .14-.04.26-.16.398z"/><use xlink:href="#F"/><path d="M856.164 1039.416c-.64 0-1.16-.5-1.16-1.14s.52-1.14 1.16-1.14c.62 0 1.12.5 1.12 1.14s-.5 1.14-1.12 1.14zm0 6.563c-.64 0-1.16-.5-1.16-1.14s.52-1.14 1.16-1.14c.62 0 1.12.5 1.12 1.14s-.5 1.14-1.12 1.14zm14.22.34c-4.3 0-5.82-3.56-5.82-7.46 0-3.922 1.52-7.482 5.82-7.482 4.28 0 5.82 3.56 5.82 7.482 0 3.9-1.54 7.46-5.82 7.46zm0-13.803c-3.32 0-4.682 2.6-4.682 6.342 0 3.72 1.36 6.32 4.682 6.32 3.3 0 4.68-2.6 4.68-6.32 0-3.742-1.38-6.342-4.68-6.342zm17.78 13.465h-8.882a.61.61 0 0 1-.58-.561v-13.123c0-.3.28-.56.58-.56h8.882a.55.55 0 0 1 .58.561.55.55 0 0 1-.58.561h-8.32v4.92h6.1a.55.55 0 0 1 .58.561c0 .28-.2.58-.56.58h-6.12v5.922h8.32c.38 0 .58.3.58.58a.55.55 0 0 1-.58.561zm12.216-1.843c-.98 1.36-2.38 2.182-4.46 2.182-4.3 0-5.82-3.56-5.82-7.46 0-3.922 1.52-7.482 5.82-7.482 2.02 0 3.5.8 4.44 2.18.1.102.12.2.12.32 0 .32-.3.56-.62.56a.53.53 0 0 1-.44-.22c-.72-1.04-1.8-1.7-3.5-1.7-3.32 0-4.682 2.6-4.682 6.342 0 3.72 1.36 6.32 4.682 6.32 1.7 0 2.8-.64 3.54-1.7.1-.2.28-.26.44-.26.3 0 .6.26.6.58a.63.63 0 0 1-.12.34zm7.3 1.843h-4.44a.61.61 0 0 1-.58-.561v-13.123c0-.3.28-.56.58-.56h4.44c4.12 0 5.48 3.44 5.48 7.102 0 3.72-1.36 7.143-5.48 7.143zm0-13.123h-3.88v11.982h3.88c3.42 0 4.34-2.96 4.34-5.98 0-3.562-1.24-6.002-4.34-6.002zm7.178 14.9c-.08.06-.2.08-.3.08-.32 0-.54-.28-.54-.58 0-.56.86-.64 1-1.28-.6-.04-1.08-.54-1.08-1.14a1.16 1.16 0 0 1 1.16-1.16c.98 0 1.2 1 1.2 1.62 0 .98-.52 1.92-1.44 2.46zm18.202-1.778c-.28 0-.58-.2-.58-.56v-1c-.84 1.18-2.14 1.9-3.88 1.9-3.22 0-5.02-2.64-5.02-5.662 0-3 1.8-5.64 5.02-5.64 1.74 0 3.04.72 3.88 1.88v-4.602c0-.36.3-.56.58-.56.26 0 .56.2.56.56v13.123c0 .36-.3.56-.56.56zm-4.46-9.822c-2.36 0-3.88 1.9-3.88 4.5s1.52 4.52 3.88 4.52c2.38 0 3.88-1.92 3.88-4.52s-1.5-4.5-3.88-4.5zm18.3 9.822h-.02c-.66 0-1.6-.36-1.98-1.56-.84 1.18-2.14 1.9-3.88 1.9-3.26 0-5.02-2.682-5.02-5.662 0-3.02 1.8-5.64 5.02-5.64 1.74 0 3.04.72 3.88 1.88v-.98c0-.32.26-.56.58-.56.28 0 .56.2.56.56v8.063c0 1.28 1.44.48 1.44 1.44a.55.55 0 0 1-.58.561zm-5.88-9.822c-2.36 0-3.88 1.9-3.88 4.5s1.52 4.52 3.88 4.52c2.38 0 3.88-1.92 3.88-4.52s-1.5-4.5-3.88-4.5zm8.857-2.722c-.64 0-1.14-.5-1.14-1.14s.5-1.14 1.14-1.14 1.14.5 1.14 1.14-.5 1.14-1.14 1.14zm0 12.543c-.28 0-.58-.18-.58-.56v-9.502c0-.36.28-.56.58-.56.26 0 .56.18.56.56v9.502c0 .36-.26.56-.56.56zm5.38.12c-1.08 0-1.98-1-1.98-2.12v-11.684c0-.36.3-.56.58-.56.26 0 .56.2.56.56v11.684c0 1.28 1.42.54 1.42 1.44 0 .34-.24.68-.58.68zm11.022-9.942l-5.42 12.822c-.4.94-1.22 1.2-2.14 1.2h-.88c-.36 0-.56-.3-.56-.58 0-.262.2-.56.56-.56h.88c.44 0 .9-.02 1.08-.48l1.14-2.72-4.142-9.682c-.04-.1-.04-.18-.04-.26 0-.32.28-.54.58-.54.18 0 .4.08.5.34l3.722 8.682 3.68-8.682a.52.52 0 0 1 .52-.34c.3 0 .56.22.56.54 0 .08 0 .16-.04.26z"/><use xlink:href="#C" x="180.556"/><path d="M995.7 1045.98c-.28 0-.56-.2-.56-.56v-6.72c0-1.38-1.16-2.54-2.54-2.54s-2.56 1.16-2.56 2.52v6.742c0 .36-.28.56-.56.56s-.58-.2-.58-.56v-6.72a2.57 2.57 0 0 0-2.521-2.541c-1.4 0-2.56 1.16-2.56 2.52v6.742c0 .36-.3.56-.56.56-.28 0-.58-.2-.58-.56v-9.502c0-.36.3-.56.58-.56.26 0 .56.2.56.56v.12a3.64 3.64 0 0 1 2.54-1.02 3.71 3.71 0 0 1 3.121 1.701c.66-1.02 1.8-1.7 3.1-1.7 2.08 0 3.7 1.64 3.7 3.66v6.742c0 .36-.3.56-.58.56z"/><use xlink:href="#D" x="196.813"/><path d="M1018.378 1036.336l-3.44 3.44 3.4 5.32c.06.08.12.2.12.32 0 .28-.3.54-.6.54-.18 0-.36-.08-.48-.262l-3.28-5.1-2.06 2.08v2.74c0 .36-.3.56-.56.56-.28 0-.58-.2-.58-.56v-13.123c0-.36.3-.56.58-.56.26 0 .56.2.56.56v8.762l5.52-5.52c.14-.14.28-.18.42-.18.32 0 .58.26.58.56a.56.56 0 0 1-.181.42z"/><use xlink:href="#F" x="177.334"/><use xlink:href="#E" x="206.594"/><use xlink:href="#C" x="246.433"/></g><g opacity=".4" fill="#fff"><path d="M42.328 1046.045c-3.568 0-5.47-1.97-5.503-2.002 0 .935-.7 1.4-1.468 1.4-.7 0-1.4-.467-1.4-1.4v-20.88a1.35 1.35 0 0 1 1.401-1.434c.767 0 1.468.467 1.468 1.4v6.238c1.334-1.368 3.168-2.17 5.503-2.17 5.37 0 8.373 4.403 8.373 9.406 0 5.037-3.002 9.44-8.373 9.44zm0-16c-3.335 0-5.503 2.602-5.503 6.57 0 4.003 2.168 6.604 5.503 6.604s5.504-2.602 5.504-6.604c0-3.97-2.168-6.57-5.504-6.57zm25.555 8.037h-12.34c.467 3.136 2.468 5.137 5.403 5.137 1.5 0 3.002-.533 3.97-1.734.3-.333.634-.533 1.034-.533.734 0 1.5.667 1.5 1.468 0 .4-.1.7-.8 1.4-1.5 1.468-3.57 2.235-5.704 2.235-5.37 0-8.372-4.437-8.372-9.44 0-4.97 3.002-9.406 8.372-9.406 5.437 0 8.34 4.437 8.34 9.406 0 .734-.534 1.468-1.4 1.468zm-6.937-8.038c-3.136 0-4.97 2.3-5.403 5.17H66.35c-.467-3.202-2.468-5.17-5.403-5.17zM88 1045.478c-1.834 0-2.668-1.3-2.97-1.9-1.334 1.468-3.27 2.47-5.87 2.47-5.437 0-8.372-4.47-8.372-9.44s3.002-9.406 8.372-9.406c2.335 0 4.203.834 5.504 2.202v-.134c0-.367.133-1.5 1.4-1.5.7 0 1.468.367 1.468 1.4v12.875c0 .434.3.6.467.6.935 0 1.435.667 1.435 1.434a1.37 1.37 0 0 1-1.435 1.401zm-8.84-15.443c-3.336 0-5.504 2.602-5.504 6.57 0 4.003 2.168 6.604 5.504 6.604 3.37 0 5.504-2.602 5.504-6.604 0-3.97-2.135-6.57-5.504-6.57z"/><use xlink:href="#G"/><path d="M115.158 1045.478h-.567c-3.17 0-4.37-1.668-4.37-4.403V1030.6h-1c-.8 0-1.435-.634-1.435-1.4 0-.8.634-1.435 1.4-1.435h1v-4.637c0-.934.7-1.4 1.435-1.4s1.4.467 1.4 1.4v4.637h2.135c.934 0 1.4.768 1.4 1.4 0 .8-.533 1.434-1.4 1.434h-2.135v10.774c0 .934.333 1.268 1.268 1.268h.833c.868 0 1.435.634 1.435 1.4 0 .8-.533 1.435-1.4 1.435zm4.604-20.415a2.402 2.402 0 1 1 0-4.803 2.402 2.402 0 1 1 0 4.803zm0 20.414c-.733 0-1.467-.5-1.467-1.4V1029.2c0-.935.733-1.435 1.467-1.435a1.37 1.37 0 0 1 1.401 1.435v14.876c0 .935-.7 1.4-1.4 1.4zm10.376-14.877h-1.5v13.442c0 .935-.7 1.4-1.468 1.4-.7 0-1.4-.467-1.4-1.4V1030.6h-1.37c-.9 0-1.4-.667-1.4-1.4 0-.768.5-1.435 1.4-1.435h1.367v-2.27c0-2.135 1.77-3.77 3.836-3.77.968 0 1.468.667 1.468 1.434 0 .7-.5 1.4-1.468 1.4-.566 0-.967.434-.967.9v2.302h1.5c.967 0 1.468.667 1.468 1.435 0 .733-.5 1.4-1.468 1.4z"/><use xlink:href="#G" x="42.068"/><path d="M154.725 1045.544c-1.802 0-3.336-1.534-3.336-3.402v-18.98c0-.967.7-1.434 1.435-1.434s1.435.467 1.435 1.4v19.013c0 .4.3.567.467.567.934 0 1.435.667 1.435 1.435 0 .733-.5 1.4-1.435 1.4zm15.37-.066v-1.264c1.886-.237 2.046-.437 2.046-3.157v-6.7c0-2.8-1.248-4.017-3.064-4.017-1.237 0-2.345.6-3.47 1.493v9.476c0 2.527.187 2.658 2.06 2.896v1.264h-8.968v-1.264c2.254-.33 2.5-.4 2.5-3v-8.2c0-2.446-.303-2.565-2.185-2.922v-1.184c2.173-.292 4.63-.807 6.653-1.533l-.052 2.95 2.6-1.745c1.16-.713 2-1.086 3.16-1.086 3.194 0 5.2 2.338 5.2 6.3v7.5c0 2.54.237 2.657 2.277 2.92v1.264h-8.74zm23.9-3.703c-2.458 3.427-5.488 4.178-7.014 4.178-5.142 0-8.124-3.936-8.124-8.594 0-2.745 1.183-5.396 2.832-7.062 1.74-1.8 3.945-2.814 6.082-2.814 3.73 0 6.396 3.126 6.37 6.347-.014.715-.08 1.277-.612 1.4-.767.184-6.17.5-10.318.647.062 4.587 2.717 6.74 5.556 6.74 1.572 0 3.104-.597 4.543-1.866l.686 1.014zm-7.07-12.7c-1.667 0-3.167 1.807-3.516 4.963l5.486-.118c.6-.026.848-.146.848-.792.04-2.022-1.037-4.053-2.818-4.053zm34.284.145c-1.943.343-2.248.624-3.105 2.765-1.33 3.462-3.102 8.53-4.934 13.94h-1.512l-4.65-11.46-4.55 11.46h-1.472l-4.685-14.192c-.687-1.985-.94-2.274-2.855-2.512v-1.25h9.397v1.25c-2.325.345-2.535.672-2.058 2.133l2.52 8.214c1.507-3.68 2.988-7.62 4.327-11.424h1.456c1.4 3.76 2.986 7.702 4.573 11.568.742-2.107 2.062-5.964 2.557-8.108.412-1.674-.008-2.078-2.753-2.383v-1.25h7.742v1.25zm9.4 3.746c-.92-2.606-2.155-3.984-4.2-3.984-1.206 0-2.225.86-2.225 2.266 0 1.497 1.046 2.264 3.16 3.216 3.278 1.496 5.3 2.787 5.3 5.736 0 3.85-3.6 5.764-6.945 5.764-2.06 0-4.088-.737-4.92-1.16l-.662-4.892 1.252-.224c.8 2.5 2.33 4.75 4.976 4.75 1.505 0 2.438-.952 2.438-2.28 0-1.423-.76-2.333-3.092-3.467-2.67-1.295-5.107-2.64-5.107-5.775 0-3.046 2.533-5.42 6.565-5.42 1.818 0 3.242.396 4.112.567l.62 4.577-1.25.328z"/></g><g fill="#e0880b"><use xlink:href="#H"/><circle cx="552.297" cy="142.179" r="11.12"/><use xlink:href="#H" x="161.406"/><circle cx="713.703" cy="142.179" r="11.12"/><use xlink:href="#H" x="-484.221"/><circle cx="68.076" cy="142.179" r="11.12"/><use xlink:href="#H" x="-403.517"/><circle cx="148.779" cy="142.179" r="11.12"/><use xlink:href="#H" x="-322.814"/><circle cx="229.483" cy="142.179" r="11.12"/><use xlink:href="#H" x="-242.111"/><circle cx="310.186" cy="142.179" r="11.12"/><use xlink:href="#H" x="-161.397"/><circle cx="390.89" cy="142.179" r="11.12"/><use xlink:href="#H" x="-80.704"/><circle cx="471.593" cy="142.179" r="11.12"/><use xlink:href="#H" x="80.703"/><circle cx="633" cy="142.179" r="11.12"/><use xlink:href="#I"/><circle cx="794.407" cy="142.179" r="11.12"/><use xlink:href="#J"/><circle cx="552.297" cy="267.367" r="11.12"/></g><g fill="#ccc"><use xlink:href="#J" x="161.406"/><circle cx="713.703" cy="267.367" r="11.12"/></g><g fill="#e0880b"><use xlink:href="#J" x="-322.814"/><circle cx="229.483" cy="267.367" r="11.12"/><use xlink:href="#J" x="-242.111"/><circle cx="310.186" cy="267.367" r="11.12"/><use xlink:href="#J" x="-161.397"/><circle cx="390.89" cy="267.367" r="11.12"/><use xlink:href="#J" x="-80.704"/><circle cx="471.593" cy="267.367" r="11.12"/><use xlink:href="#J" x="80.703"/><circle cx="633" cy="267.367" r="11.12"/></g><g fill="#ccc"><path d="M794.407 281.384c-12.28 0-22.24 9.962-22.24 22.24v12.626c0 2.2 1.853 4.054 4.054 4.054s4.054-1.853 4.054-4.054v-12.626c0-3.012 1.043-5.908 2.664-8.224v65.795c0 2.78 2.2 5.097 5.097 5.097s5.097-2.2 5.097-5.097V323.2h2.896v37.994c0 2.78 2.2 5.097 5.097 5.097s5.097-2.2 5.097-5.097V295.4c1.622 2.317 2.664 5.097 2.664 8.224v12.626c0 2.2 1.853 4.054 4.054 4.054s4.054-1.853 4.054-4.054v-12.626c-.348-12.28-10.31-22.24-22.588-22.24z"/><circle cx="794.407" cy="267.367" r="11.12"/></g><g fill="#e0880b"><use xlink:href="#J" x="-484.221"/><circle cx="68.076" cy="267.367" r="11.12"/><use xlink:href="#J" x="-403.517"/><circle cx="148.779" cy="267.367" r="11.12"/></g><g fill="#ccc"><use xlink:href="#K"/><circle cx="552.297" cy="392.555" r="11.12"/><use xlink:href="#K" x="161.406"/><circle cx="713.703" cy="392.555" r="11.12"/></g><g fill="#fff"><use xlink:href="#K" x="-322.814"/><circle cx="229.483" cy="392.555" r="11.12"/></g><g fill="#ccc"><use xlink:href="#K" x="-242.111"/><circle cx="310.186" cy="392.555" r="11.12"/><use xlink:href="#K" x="-161.397"/><circle cx="390.89" cy="392.555" r="11.12"/><use xlink:href="#K" x="-80.704"/><circle cx="471.593" cy="392.555" r="11.12"/><use xlink:href="#K" x="80.703"/><circle cx="633" cy="392.555" r="11.12"/><path d="M794.407 406.572c-12.28 0-22.24 9.962-22.24 22.24v12.626c0 2.2 1.853 4.054 4.054 4.054s4.054-1.853 4.054-4.054v-12.626c0-3.012 1.043-5.908 2.664-8.224v65.795c0 2.78 2.2 5.097 5.097 5.097s5.097-2.2 5.097-5.097V448.39h2.896v37.994c0 2.78 2.2 5.097 5.097 5.097s5.097-2.2 5.097-5.097v-65.795c1.622 2.317 2.664 5.097 2.664 8.224v12.626c0 2.2 1.853 4.054 4.054 4.054s4.054-1.853 4.054-4.054v-12.626c-.348-12.28-10.31-22.24-22.588-22.24z"/><circle cx="794.407" cy="392.555" r="11.12"/></g><g fill="#fff"><use xlink:href="#K" x="-484.221"/><circle cx="68.076" cy="392.555" r="11.12"/><use xlink:href="#K" x="-403.517"/><circle cx="148.779" cy="392.555" r="11.12"/><use xlink:href="#L"/><circle cx="552.297" cy="517.743" r="11.12"/><use xlink:href="#L" x="161.406"/><circle cx="713.703" cy="517.743" r="11.12"/><use xlink:href="#L" x="-484.221"/><circle cx="68.076" cy="517.743" r="11.12"/><use xlink:href="#L" x="-403.517"/><circle cx="148.779" cy="517.743" r="11.12"/><use xlink:href="#L" x="-322.814"/><circle cx="229.483" cy="517.743" r="11.12"/><use xlink:href="#L" x="-242.111"/><circle cx="310.186" cy="517.743" r="11.12"/><use xlink:href="#L" x="-161.397"/><circle cx="390.89" cy="517.743" r="11.12"/><use xlink:href="#L" x="-80.704"/><circle cx="471.593" cy="517.743" r="11.12"/><use xlink:href="#L" x="80.703"/><circle cx="633" cy="517.743" r="11.12"/><path d="M794.407 531.76c-12.28 0-22.24 9.962-22.24 22.24v12.626c0 2.2 1.853 4.054 4.054 4.054s4.054-1.853 4.054-4.054V554c0-3.012 1.043-5.908 2.664-8.224v65.795c0 2.78 2.2 5.097 5.097 5.097s5.097-2.2 5.097-5.097v-37.994h2.896v37.994c0 2.78 2.2 5.097 5.097 5.097s5.097-2.2 5.097-5.097v-65.795c1.622 2.317 2.664 5.097 2.664 8.224v12.626c0 2.2 1.853 4.054 4.054 4.054s4.054-1.853 4.054-4.054V554c-.348-12.28-10.31-22.24-22.588-22.24z"/><circle cx="794.407" cy="517.743" r="11.12"/><use xlink:href="#H" y="500.752"/><circle cx="552.297" cy="642.931" r="11.12"/><use xlink:href="#H" x="161.406" y="500.752"/><circle cx="713.703" cy="642.931" r="11.12"/><use xlink:href="#H" x="-322.814" y="500.752"/><circle cx="229.483" cy="642.931" r="11.12"/><use xlink:href="#H" x="-242.111" y="500.752"/><circle cx="310.186" cy="642.931" r="11.12"/><use xlink:href="#H" x="-161.397" y="500.752"/><circle cx="390.89" cy="642.931" r="11.12"/><use xlink:href="#H" x="-80.704" y="500.752"/><circle cx="471.593" cy="642.931" r="11.12"/><use xlink:href="#H" x="80.703" y="500.752"/><circle cx="633" cy="642.931" r="11.12"/><use xlink:href="#I" y="500.752"/><circle cx="794.407" cy="642.931" r="11.12"/><use xlink:href="#H" x="-484.221" y="500.752"/><circle cx="68.076" cy="642.931" r="11.12"/><use xlink:href="#H" x="-403.517" y="500.752"/><circle cx="148.779" cy="642.931" r="11.12"/><use xlink:href="#H" y="625.94"/><circle cx="552.297" cy="768.119" r="11.12"/><use xlink:href="#H" x="161.406" y="625.94"/><circle cx="713.703" cy="768.119" r="11.12"/><use xlink:href="#H" x="-322.814" y="625.94"/><circle cx="229.483" cy="768.119" r="11.12"/><use xlink:href="#H" x="-242.111" y="625.94"/><circle cx="310.186" cy="768.119" r="11.12"/><use xlink:href="#H" x="-161.397" y="625.94"/><circle cx="390.89" cy="768.119" r="11.12"/><use xlink:href="#H" x="-80.704" y="625.94"/><circle cx="471.593" cy="768.119" r="11.12"/><use xlink:href="#H" x="80.703" y="625.94"/><circle cx="633" cy="768.119" r="11.12"/><use xlink:href="#I" y="625.94"/><circle cx="794.407" cy="768.119" r="11.12"/><use xlink:href="#H" x="-484.221" y="625.94"/><circle cx="68.076" cy="768.119" r="11.12"/><use xlink:href="#H" x="-403.517" y="625.94"/><circle cx="148.779" cy="768.119" r="11.12"/><use xlink:href="#M"/><circle cx="552.297" cy="893.307" r="11.12"/><use xlink:href="#M" x="161.406"/><circle cx="713.703" cy="893.307" r="11.12"/><use xlink:href="#M" x="-322.814"/><circle cx="229.483" cy="893.307" r="11.12"/><use xlink:href="#M" x="-242.111"/><circle cx="310.186" cy="893.307" r="11.12"/><use xlink:href="#M" x="-161.397"/><circle cx="390.89" cy="893.307" r="11.12"/><use xlink:href="#M" x="-80.704"/><circle cx="471.593" cy="893.307" r="11.12"/><use xlink:href="#M" x="80.703"/><circle cx="633" cy="893.307" r="11.12"/><path d="M794.407 907.324c-12.28 0-22.24 9.962-22.24 22.24V942.2c0 2.2 1.853 4.054 4.054 4.054s4.054-1.853 4.054-4.054v-12.626c0-3.012 1.043-5.908 2.664-8.224v65.795c0 2.78 2.2 5.097 5.097 5.097s5.097-2.2 5.097-5.097V949.14h2.896v37.994c0 2.78 2.2 5.097 5.097 5.097s5.097-2.2 5.097-5.097V921.34c1.622 2.317 2.664 5.097 2.664 8.224v12.626c0 2.2 1.853 4.054 4.054 4.054s4.054-1.853 4.054-4.054v-12.626c-.348-12.28-10.31-22.24-22.588-22.24z"/><circle cx="794.407" cy="893.307" r="11.12"/><use xlink:href="#M" x="-484.221"/><circle cx="68.076" cy="893.307" r="11.12"/><use xlink:href="#M" x="-403.517"/><circle cx="148.779" cy="893.307" r="11.12"/></g><g opacity=".7" fill="#fff"><path d="M888.7 374.805h-.868c-.672 0-1.232.56-1.232 1.204v2.296h2.1c.532 0 .784.42.784.784 0 .392-.28.812-.784.812h-2.1v12.488c0 .504-.392.784-.784.784s-.784-.252-.784-.784V379.9H883.1c-.504 0-.784-.42-.784-.812 0-.364.28-.784.784-.784h1.932v-2.296a2.78 2.78 0 0 1 2.772-2.772h.896c.504 0 .812.393.812.813 0 .392-.28.756-.812.756z"/><use xlink:href="#N"/><path d="M902.885 374.805h-.868c-.672 0-1.232.56-1.232 1.204v2.296h2.1c.532 0 .784.42.784.784 0 .392-.28.812-.784.812h-2.1v12.488c0 .504-.392.784-.784.784s-.784-.252-.784-.784V379.9h-1.932c-.504 0-.784-.42-.784-.812 0-.364.28-.784.784-.784h1.932v-2.296a2.78 2.78 0 0 1 2.772-2.772h.896c.504 0 .812.393.812.813 0 .392-.28.756-.812.756zm8.625 18.368h-.868c-2.212 0-3.304-1.092-3.304-3.276V379.9H905.9c-.504 0-.784-.42-.784-.812 0-.364.28-.784.784-.784h1.428v-4.284c0-.504.42-.784.812-.784s.784.28.784.784v4.284h2.576c.504 0 .784.42.784.784 0 .392-.28.812-.784.812h-2.576v9.996c0 1.372.392 1.68 1.708 1.68h.868c.504 0 .784.42.784.813 0 .364-.28.784-.784.784z"/><use xlink:href="#O"/><use xlink:href="#O" x="16.742"/><path d="M960.312 393.173c-.392 0-.812-.28-.812-.784v-8.176a4.77 4.77 0 0 0-4.788-4.788c-2.632 0-4.788 2.128-4.788 4.788v8.176c0 .504-.42.784-.784.784-.392 0-.812-.28-.812-.784v-13.3c0-.504.42-.784.812-.784.364 0 .784.28.784.784v.896c1.26-1.372 2.912-2.155 4.788-2.155a6.44 6.44 0 0 1 6.384 6.384v8.176c0 .504-.42.784-.784.784zm23.436-13.748l-7.588 17.948c-.56 1.315-1.708 1.68-2.996 1.68h-1.232c-.504 0-.784-.42-.784-.812 0-.363.28-.783.784-.783h1.232c.616 0 1.26-.028 1.512-.673l1.596-3.808-5.796-13.552c-.056-.14-.056-.252-.056-.364 0-.448.392-.756.812-.756.252 0 .56.112.7.476l5.208 12.152 5.152-12.152c.14-.363.448-.476.728-.476.42 0 .784.308.784.756 0 .112 0 .224-.056.364z"/><use xlink:href="#O" x="70.92"/><use xlink:href="#P"/><path d="M1026.865 379.677c-2.632 0-4.788 2.128-4.788 4.788v7.924c0 .504-.42.784-.784.784-.392 0-.812-.28-.812-.784v-13.3c0-.504.42-.784.812-.784.364 0 .784.28.784.784v1.147c1.26-1.372 2.912-2.155 4.788-2.155.504 0 .812.42.812.783 0 .393-.308.812-.812.812z"/><use xlink:href="#Q"/><use xlink:href="#P" x="-117.818" y="28"/><path d="M909.046 427.557c-2.38 0-5.74-.896-5.74-1.904 0-.448.364-.896.812-.896.308 0 .952.476 1.484.672.728.252 1.876.532 3.444.532 3.584 0 5.432-1.765 5.432-5.208v-1.96c-1.232 1.483-2.996 2.38-5.432 2.38-4.424 0-7.028-3.137-7.028-7.448 0-4.2 2.52-7.896 7.028-7.896 2.436 0 4.256 1.008 5.432 2.632v-1.345c0-.504.42-.783.812-.783a.78.78 0 0 1 .784.783v13.637c0 4.45-2.66 6.804-7.028 6.804zm0-20.132c-3.304 0-5.432 2.66-5.432 6.3 0 3.612 1.988 5.852 5.432 5.852s5.432-2.24 5.432-5.852c0-3.64-2.1-6.3-5.432-6.3zm17.388 14.223c-4.508 0-7.028-3.696-7.028-7.924 0-4.2 2.52-7.896 7.028-7.896s7.028 3.695 7.028 7.896c0 4.228-2.52 7.924-7.028 7.924zm0-14.224c-3.304 0-5.432 2.66-5.432 6.3s2.128 6.328 5.432 6.328c3.332 0 5.432-2.688 5.432-6.328s-2.1-6.3-5.432-6.3z"/><use xlink:href="#N" x="51.465" y="28"/><path d="M954.35 421.173h-.868c-2.212 0-3.304-1.092-3.304-3.276V407.9h-1.428c-.504 0-.784-.42-.784-.812 0-.364.28-.784.784-.784h1.428v-4.284c0-.504.42-.784.812-.784s.784.28.784.784v4.284h2.576c.504 0 .784.42.784.784 0 .392-.28.812-.784.812h-2.576v9.996c0 1.372.392 1.68 1.708 1.68h.868c.504 0 .784.42.784.813 0 .364-.28.784-.784.784zm28.614-13.833L978.4 420.5c-.196.53-.448.672-.812.672-.476 0-.616-.168-.784-.672l-3.668-10.92-3.668 10.92c-.196.53-.448.672-.812.672s-.644-.225-.784-.672l-4.536-13.16a1.2 1.2 0 0 1-.056-.309c0-.447.448-.728.812-.728.28 0 .616.14.728.532l3.836 11.088 3.668-10.948c.168-.532.336-.672.812-.672.336 0 .616.112.784.672l3.724 10.948 3.78-11.088c.14-.393.42-.532.728-.532.42 0 .868.28.868.756a.82.82 0 0 1-.056.28z"/><use xlink:href="#P" x="-16.796" y="28"/><use xlink:href="#Q" x="-26.037" y="28"/></g><path d="M902.597 480.322H884.24c-1.74 0-2.76-1.02-2.76-2.28 0-.54.18-1.08.54-1.62l16.38-24.9c.72-1.14 1.14-2.52 1.14-3.6 0-3.54-2.64-6.24-6.18-6.24-3.18 0-5.88 2.7-6.9 4.62-.48.9-1.26 1.26-2.04 1.26-1.38 0-2.64-1.08-2.64-2.46 0-1.86 4.26-8.58 11.58-8.58a11.31 11.31 0 0 1 11.28 11.28c0 2.4-.84 4.74-2.04 6.48l-13.74 20.94h13.74c1.74 0 2.64 1.2 2.64 2.58 0 1.26-.9 2.52-2.64 2.52zm30.48-37.198l-13.8 35.578c-.48 1.2-1.2 1.68-2.22 1.68-1.32 0-2.7-1.02-2.7-2.52 0-.36.12-.66.24-1.02l13.08-34.14h-16.02c-1.32 0-2.52-.96-2.52-2.58 0-1.38 1.14-2.52 2.52-2.52h19.74c1.32 0 2.64.84 2.64 2.58 0 .72-.78 2.34-.96 2.94zm12.224 7.592c-3.043 0-5.526-2.764-5.526-6.155s2.483-6.12 5.526-6.12c3.008 0 5.5 2.728 5.5 6.12s-2.482 6.155-5.5 6.155zm0-9.303c-1.12 0-2.52 1.12-2.52 3.147s1.4 3.147 2.52 3.147 2.518-1.12 2.518-3.147-1.398-3.147-2.518-3.147zm14.583-1.714l-6.435 23.152a1.36 1.36 0 0 1-1.364 1.119c-.804 0-1.573-.56-1.573-1.47 0-.104 0-.28.035-.42l6.47-23.187a1.42 1.42 0 0 1 1.398-1.084c.734 0 1.54.524 1.54 1.398 0 .175-.035.315-.07.5zm4.967 23.642c-3.008 0-5.5-2.763-5.5-6.155 0-3.357 2.483-6.12 5.5-6.12 3.042 0 5.525 2.763 5.525 6.12 0 3.393-2.483 6.155-5.525 6.155zm0-9.303c-1.084 0-2.483 1.12-2.483 3.147 0 2.063 1.4 3.183 2.483 3.183 1.12 0 2.518-1.12 2.518-3.183 0-2.028-1.398-3.147-2.518-3.147z" fill="#ccc"/><g fill="#e0880b"><path d="M894.402 163.348c-1.232 1.372-2.94 2.128-5.012 2.128-4.508 0-7.028-3.696-7.028-7.924 0-4.2 2.52-7.896 7.028-7.896 2.072 0 3.78.756 5.012 2.128a.74.74 0 0 1 .224.532c0 .42-.392.84-.812.84-.196 0-.392-.084-.588-.28-.924-1.036-2.212-1.624-3.836-1.624-3.304 0-5.432 2.66-5.432 6.3s2.128 6.328 5.432 6.328c1.624 0 2.912-.616 3.836-1.624.196-.196.392-.28.588-.28.42 0 .812.364.812.812 0 .196-.056.364-.224.56zM909.718 165c-.392 0-.812-.28-.812-.784v-.896c-1.176 1.372-2.884 2.156-4.788 2.156-3.472 0-6.384-2.912-6.384-6.384v-8.176c0-.504.42-.784.812-.784.364 0 .784.28.784.784v8.176a4.788 4.788 0 1 0 9.576 0v-8.176c0-.504.42-.784.812-.784.364 0 .784.28.784.784v13.3c0 .504-.42.784-.784.784z"/><use xlink:href="#R"/><use xlink:href="#R" x="9.24"/><use xlink:href="#S"/><path d="M961.036 165c-.392 0-.812-.28-.812-.784v-8.176a4.77 4.77 0 0 0-4.788-4.788c-2.632 0-4.788 2.128-4.788 4.788v8.176c0 .504-.42.784-.784.784-.392 0-.812-.28-.812-.784v-13.3c0-.504.42-.784.812-.784.364 0 .784.28.784.784v.896c1.26-1.372 2.912-2.156 4.788-2.156a6.44 6.44 0 0 1 6.384 6.384v8.176c0 .504-.42.784-.784.784z"/><use xlink:href="#T"/><path d="M976.77 165.168c-1.512 0-2.772-1.4-2.772-2.968v-16.352c0-.504.42-.784.812-.784.364 0 .784.28.784.784V162.2c0 1.792 1.988.756 1.988 2.016 0 .476-.336.952-.812.952zm15.43-13.916l-7.6 17.948c-.56 1.316-1.708 1.68-2.996 1.68h-1.232c-.504 0-.784-.42-.784-.812 0-.364.28-.784.784-.784h1.232c.616 0 1.26-.028 1.512-.672l1.596-3.808-5.796-13.552c-.056-.14-.056-.252-.056-.364 0-.448.392-.756.812-.756.252 0 .56.112.7.476l5.208 12.152 5.152-12.152c.14-.364.448-.476.728-.476.42 0 .784.308.784.756 0 .112 0 .224-.056.364zm10.47-3.808c-.896 0-1.596-.7-1.596-1.596s.7-1.596 1.596-1.596 1.596.7 1.596 1.596-.7 1.596-1.596 1.596zm0 17.556c-.392 0-.812-.252-.812-.784v-13.3c0-.504.392-.784.812-.784.364 0 .784.252.784.784v13.3c0 .504-.364.784-.784.784z"/><use xlink:href="#T" x="41.887"/><path d="M1015.83 150.86c-.168.084-.28.14-.42.14-.476 0-.784-.504-.784-.952 0-.616 1.596-.756 1.596-2.548v-2.128c0-.532.392-.84.784-.84s.812.308.812.84v2.128c0 .644-.308 2.436-1.988 3.36zm10.64 14.672c-1.68 0-4.508-.588-5.488-2.212-.112-.168-.112-.308-.112-.42 0-.448.392-.84.812-.84.168 0 .448.14.616.392 1.008 1.232 2.8 1.484 4.172 1.484 2.716 0 4.088-.896 4.088-2.716 0-4.228-9.184-1.988-9.184-7.588 0-2.828 2.828-3.92 5.376-3.92 1.456 0 3.696.504 4.816 1.624.168.168.252.364.252.532 0 .42-.42.84-.868.84a.74.74 0 0 1-.532-.224c-.868-.84-2.436-1.176-3.668-1.176-2.464 0-3.78.952-3.78 2.324 0 3.92 9.184 1.848 9.184 7.588 0 3.192-2.8 4.312-5.684 4.312zm-134.792 91.19c-6.02 0-8.148-4.984-8.148-10.444 0-5.488 2.128-10.472 8.148-10.472 5.992 0 8.148 4.984 8.148 10.472 0 5.46-2.156 10.444-8.148 10.444zm0-19.32c-4.648 0-6.552 3.64-6.552 8.876 0 5.208 1.904 8.848 6.552 8.848 4.62 0 6.552-3.64 6.552-8.848 0-5.236-1.932-8.876-6.552-8.876zm24.892 18.844h-12.432c-.42 0-.812-.392-.812-.784v-18.368c0-.42.392-.784.812-.784h12.432a.77.77 0 0 1 .812.784.77.77 0 0 1-.812.784h-11.648v6.888h8.54a.77.77 0 0 1 .812.784c0 .392-.28.812-.784.812h-8.568v8.288h11.648c.532 0 .812.42.812.812a.77.77 0 0 1-.812.784zm17.102-2.577c-1.372 1.904-3.332 3.052-6.244 3.052-6.02 0-8.148-4.984-8.148-10.444 0-5.488 2.128-10.472 8.148-10.472 2.828 0 4.9 1.12 6.216 3.052.14.14.168.28.168.448 0 .448-.42.784-.868.784a.74.74 0 0 1-.616-.308c-1.008-1.456-2.52-2.38-4.9-2.38-4.648 0-6.552 3.64-6.552 8.876 0 5.208 1.904 8.848 6.552 8.848 2.38 0 3.92-.896 4.956-2.38.14-.28.392-.364.616-.364.42 0 .84.364.84.812 0 .14-.056.308-.168.476zm10.22 2.577h-6.216c-.42 0-.812-.392-.812-.784v-18.368c0-.42.392-.784.812-.784h6.216c5.768 0 7.672 4.816 7.672 9.94 0 5.208-1.904 9.996-7.672 9.996zm0-18.368h-5.432v16.77h5.432c4.788 0 6.076-4.144 6.076-8.372 0-4.984-1.736-8.4-6.076-8.4zm-43.59 46.368h-.028c-.924 0-2.24-.504-2.772-2.184-1.176 1.652-2.996 2.66-5.432 2.66-4.564 0-7.028-3.752-7.028-7.924 0-4.228 2.52-7.896 7.028-7.896 2.436 0 4.256 1.008 5.432 2.632v-1.372c0-.448.364-.784.812-.784.392 0 .784.28.784.784v11.284c0 1.792 2.016.672 2.016 2.016a.77.77 0 0 1-.812.784zM892.07 270.5c-3.304 0-5.432 2.66-5.432 6.3s2.128 6.328 5.432 6.328c3.332 0 5.432-2.688 5.432-6.328s-2.1-6.3-5.432-6.3zm23.016-.03l-5.516 13.132c-.168.364-.42.644-.784.644s-.644-.28-.812-.644l-5.516-13.104c-.056-.14-.056-.252-.056-.364 0-.448.392-.756.812-.756.252 0 .56.112.7.476l4.872 11.508 4.844-11.508c.168-.364.448-.504.728-.504.42 0 .812.308.812.756 0 .084 0 .224-.084.364z"/><use xlink:href="#S" x="-14.423" y="119.246"/><use xlink:href="#R" x="20.152" y="119.246"/><path d="M957.836 284.247h-.028c-.924 0-2.24-.504-2.772-2.184-1.176 1.652-2.996 2.66-5.432 2.66-4.564 0-7.028-3.752-7.028-7.924 0-4.228 2.52-7.896 7.028-7.896 2.436 0 4.256 1.008 5.432 2.632v-1.372c0-.448.364-.784.812-.784.392 0 .784.28.784.784v11.284c0 1.792 2.016.672 2.016 2.016a.77.77 0 0 1-.812.784zm-8.232-13.748c-3.304 0-5.432 2.66-5.432 6.3s2.128 6.328 5.432 6.328c3.332 0 5.432-2.688 5.432-6.328s-2.1-6.3-5.432-6.3zm17.976 20.13c-2.38 0-5.74-.896-5.74-1.904 0-.448.364-.896.812-.896.308 0 .952.476 1.484.672.728.252 1.876.532 3.444.532 3.584 0 5.432-1.764 5.432-5.208v-1.96c-1.232 1.484-2.996 2.38-5.432 2.38-4.424 0-7.028-3.136-7.028-7.448 0-4.2 2.52-7.896 7.028-7.896 2.436 0 4.256 1.008 5.432 2.632V270.2c0-.504.42-.784.812-.784.364 0 .784.28.784.784v13.636c0 4.452-2.66 6.804-7.028 6.804zm0-20.132c-3.304 0-5.432 2.66-5.432 6.3 0 3.612 1.988 5.852 5.432 5.852s5.432-2.24 5.432-5.852c0-3.64-2.1-6.3-5.432-6.3z"/><use xlink:href="#S" x="46.274" y="119.246"/><path d="M893.717 224.65c-1.26 0-2.52-.96-2.52-2.52v-32.16l-4.8 4.68a2.32 2.32 0 0 1-1.68.72c-1.44 0-2.7-1.32-2.7-2.64 0-.66.24-1.26.78-1.8l8.94-8.64c.72-.66 1.5-.96 2.22-.96 1.68 0 2.4 1.68 2.4 3.06v37.68c0 1.62-1.26 2.58-2.64 2.58zm21.84 1.02c-7.32 0-13.26-5.94-13.26-13.2 0-4.62 2.22-8.52 5.82-10.92-2.7-2.16-4.26-5.34-4.26-9a11.72 11.72 0 0 1 11.7-11.7c6.42 0 11.7 5.28 11.7 11.7 0 3.66-1.56 6.84-4.26 9 3.48 2.4 5.76 6.3 5.76 10.86 0 7.32-5.88 13.26-13.2 13.26zm0-21.42c-4.5 0-8.16 3.78-8.16 8.16 0 4.5 3.72 8.16 8.1 8.16 4.5 0 8.16-3.72 8.16-8.1 0-4.5-3.72-8.22-8.1-8.22zm0-18.24c-3.78 0-6.54 2.94-6.54 6.54 0 3.66 2.76 6.66 6.54 6.66 3.6 0 6.54-3 6.54-6.66a6.56 6.56 0 0 0-6.54-6.54zm20.866 8.034c-3.043 0-5.526-2.764-5.526-6.155s2.483-6.12 5.526-6.12c3.007 0 5.5 2.728 5.5 6.12s-2.483 6.155-5.5 6.155zm0-9.303c-1.12 0-2.52 1.12-2.52 3.147s1.4 3.147 2.52 3.147 2.518-1.12 2.518-3.147-1.398-3.147-2.518-3.147zm14.583-1.714l-6.435 23.152a1.36 1.36 0 0 1-1.364 1.119c-.804 0-1.573-.56-1.573-1.47 0-.104 0-.28.034-.42l6.47-23.187a1.42 1.42 0 0 1 1.398-1.084c.734 0 1.54.524 1.54 1.398 0 .175-.035.315-.07.5zm4.967 23.642c-3.008 0-5.5-2.763-5.5-6.155 0-3.357 2.483-6.12 5.5-6.12 3.043 0 5.525 2.763 5.525 6.12 0 3.393-2.482 6.155-5.525 6.155zm0-9.303c-1.084 0-2.483 1.12-2.483 3.147 0 2.063 1.4 3.183 2.483 3.183 1.12 0 2.518-1.12 2.518-3.183 0-2.028-1.398-3.147-2.518-3.147z"/></g><g fill="none" stroke-width="2" stroke-miterlimit="10"><path d="M838.037 460h35.44" stroke="#ccc" stroke-dasharray="2,6"/><path d="M838.037 203h35.44" stroke="#e0880b"/><path d="M829.376 478.98c0 11-9 20-20 20h-515c-11 0-20-9-20-20v-85.688c0-11-9-20-20-20H54.956c-11 0-20-9-20-20v-210.05c0-11 9-20 20-20h754.42c11 0 20 9 20 20V478.98z" stroke="#ccc" stroke-dasharray="2.00056,6.00168"/></g><g fill="#fff"><path d="M49.24 81.02c-4.38 0-10.5-1.8-13.92-4.98-.66-.6-.84-1.26-.84-1.86a2.6 2.6 0 0 1 2.58-2.58c.9 0 1.2.3 2.28 1.14 2.94 2.22 6.42 3.18 9.9 3.18 7.14 0 10.26-2.58 10.26-7.02 0-12.48-23.94-5.4-23.94-21.72 0-7.32 6.18-10.98 14.1-10.98 4.14 0 10.08 1.62 13.02 5.1.48.54.66 1.08.66 1.62 0 1.44-1.32 2.7-2.58 2.7-.9 0-1.38-.42-2.4-1.32-2.4-2.04-5.46-2.94-8.7-2.94-6.48 0-8.94 2.58-8.94 5.82 0 11.22 23.94 4.56 23.94 21.72 0 8.94-7.5 12.12-15.42 12.12zM107.258 80c-1.26 0-2.52-.9-2.52-2.52v-18.9c0-3.48-2.88-6.36-6.3-6.36-3.54 0-6.36 2.88-6.36 6.3v18.9c0 1.68-1.2 2.58-2.58 2.58-1.32 0-2.52-.9-2.52-2.52v-18.9c0-3.48-2.88-6.36-6.36-6.36s-6.36 2.88-6.36 6.3v18.9C74.26 79.1 73 80 71.62 80c-1.26 0-2.52-.9-2.52-2.52V50.66c0-1.74 1.32-2.58 2.64-2.58.84 0 1.68.36 2.16 1.14a11.56 11.56 0 0 1 6.66-2.1c3.6 0 6.84 1.62 8.94 4.26 2.1-2.64 5.28-4.26 8.88-4.26 6.36 0 11.52 5.1 11.52 11.4v18.9c0 1.68-1.26 2.58-2.64 2.58zm22.802 1.02c-9.66 0-15.06-7.92-15.06-16.98 0-9 5.4-16.92 15.06-16.92s15.06 7.92 15.06 16.92c0 9.06-5.4 16.98-15.06 16.98zm0-28.8c-6 0-9.9 4.68-9.9 11.82 0 7.2 3.9 11.88 9.9 11.88 6.06 0 9.9-4.68 9.9-11.88 0-7.14-3.84-11.82-9.9-11.82zm42.478.3l-8.94 8.94 9.3 14.58c.24.48.42.96.42 1.44 0 1.44-1.32 2.58-2.7 2.58-.72 0-1.5-.36-2.04-1.2l-8.76-13.62-5.1 5.1v7.14c0 1.62-1.38 2.52-2.52 2.52-1.32 0-2.64-.9-2.64-2.52V39.802c0-1.68 1.26-2.52 2.52-2.52 1.38 0 2.64.84 2.64 2.52v23.28l14.16-14.16c.6-.6 1.26-.78 1.92-.78 1.32 0 2.58 1.2 2.58 2.58 0 .6-.3 1.26-.84 1.8z"/><use xlink:href="#U"/><use xlink:href="#V"/><use xlink:href="#W"/><use xlink:href="#U" x="90.537"/><use xlink:href="#X"/><path d="M343.773 42.382h-22.44V54.5h15.72a2.56 2.56 0 0 1 2.58 2.58c0 1.38-1.02 2.58-2.58 2.58h-15.72v17.82a2.58 2.58 0 0 1-2.52 2.52c-1.44 0-2.64-1.14-2.64-2.52V39.862c0-1.44 1.2-2.58 2.64-2.58h24.96c1.56 0 2.52 1.14 2.52 2.52 0 1.26-.9 2.58-2.52 2.58z"/><use xlink:href="#Y"/><use xlink:href="#Z"/><use xlink:href="#Z" x="12.18"/><use xlink:href="#U" x="227.87"/><use xlink:href="#V" x="227.871"/><use xlink:href="#W" x="227.871"/><path d="M522.508 42.382h-22.44V54.5h15.72c1.5 0 2.58 1.2 2.58 2.58s-1.02 2.58-2.58 2.58h-15.72v17.82a2.58 2.58 0 0 1-2.52 2.52c-1.44 0-2.64-1.14-2.64-2.52V39.862c0-1.44 1.2-2.58 2.64-2.58h24.96c1.56 0 2.52 1.14 2.52 2.52 0 1.26-.9 2.58-2.52 2.58z"/><use xlink:href="#a"/><use xlink:href="#X" x="282.771"/><path d="M600.687 80h-1.02c-5.7 0-7.86-3-7.86-7.92v-18.84h-1.8c-1.44 0-2.58-1.14-2.58-2.52 0-1.44 1.14-2.58 2.52-2.58h1.8v-8.34c0-1.68 1.26-2.52 2.58-2.52s2.52.84 2.52 2.52v8.34h3.84c1.68 0 2.52 1.38 2.52 2.52 0 1.44-.96 2.58-2.52 2.58h-3.84v19.38c0 1.68.6 2.28 2.28 2.28h1.5c1.56 0 2.58 1.14 2.58 2.52 0 1.44-.96 2.58-2.52 2.58z"/><use xlink:href="#U" x="440.207"/><use xlink:href="#V" x="439.008"/><path d="M680.065 80.84c-5.94 0-10.8-4.8-10.8-10.74 0-1.74 1.26-2.64 2.52-2.64 1.38 0 2.64.9 2.64 2.64a5.61 5.61 0 0 0 5.58 5.58c3.24 0 5.7-2.52 5.7-5.58v-30.24c0-1.74 1.2-2.58 2.52-2.58 1.38 0 2.58.84 2.58 2.52v30.3c0 5.94-4.92 10.74-10.74 10.74z"/><use xlink:href="#Y" x="352.854"/><path d="M747.925 81.02c-4.2 0-7.5-1.44-9.9-3.96v13.02c0 1.68-1.26 2.58-2.64 2.58-1.26 0-2.52-.9-2.52-2.58V50.722c0-1.68 1.26-2.58 2.52-2.58 1.38 0 2.64.9 2.64 2.58 0 0 3.54-3.66 9.9-3.66 9.66 0 15.06 7.92 15.06 16.92 0 9.12-5.4 17.04-15.06 17.04zm0-28.86c-5.94 0-9.9 4.74-9.9 11.82 0 7.2 3.9 11.94 9.9 11.94s9.9-4.68 9.9-11.88c0-7.14-3.9-11.88-9.9-11.88z"/><use xlink:href="#a" x="242.518"/><use xlink:href="#V" x="614.627"/></g><defs ><path id="C" d="M795.964 1046.357c-1.2 0-3.22-.42-3.92-1.58-.08-.12-.08-.22-.08-.3 0-.32.28-.602.58-.602.12 0 .32.102.44.28.72.88 2 1.06 2.98 1.06 1.94 0 2.92-.64 2.92-1.94 0-3.02-6.562-1.42-6.562-5.422 0-2.02 2.02-2.8 3.84-2.8 1.04 0 2.64.36 3.44 1.16.12.12.18.26.18.38a.65.65 0 0 1-.62.6c-.12 0-.26-.04-.38-.16-.62-.6-1.74-.84-2.62-.84-1.76 0-2.7.682-2.7 1.66 0 2.8 6.562 1.32 6.562 5.422 0 2.28-2 3.08-4.06 3.08z"/><path id="D" d="M806.685 1046.318c-3.22 0-5.02-2.64-5.02-5.662 0-3 1.8-5.64 5.02-5.64s5.02 2.64 5.02 5.64c0 3.02-1.8 5.662-5.02 5.662zm0-10.162c-2.36 0-3.88 1.9-3.88 4.5s1.52 4.52 3.88 4.52c2.38 0 3.88-1.92 3.88-4.52s-1.5-4.5-3.88-4.5z"/><path id="E" d="M830.424 1036.336a3.42 3.42 0 0 0-3.421 3.42v5.662c0 .36-.3.56-.56.56-.28 0-.58-.2-.58-.56v-9.502c0-.36.3-.56.58-.56.26 0 .56.2.56.56v.82c.9-.98 2.08-1.54 3.42-1.54.36 0 .58.3.58.56a.58.58 0 0 1-.58.58z"/><path id="F" d="M852.186 1041.236h-8.302c.18 2.28 1.66 3.94 3.84 3.94 1.08 0 2.36-.48 2.94-1.38.14-.22.3-.28.48-.28.3 0 .62.24.62.54 0 .18 0 .22-.38.658-.92 1.082-2.26 1.602-3.66 1.602-3.22 0-5.02-2.64-5.02-5.662 0-3 1.8-5.64 5.02-5.64s5.02 2.66 5.02 5.64c0 .3-.28.58-.56.58zm-4.46-5.08c-2.4 0-3.66 1.84-3.84 3.94h7.7c-.18-2.28-1.66-3.94-3.86-3.94z"/><path id="G" d="M104.714 1045.51c-.633 0-1.267-.367-1.4-1.1-1.334 1.034-2.97 1.668-4.804 1.668-4.136 0-7.604-3.436-7.604-7.605v-9.24a1.37 1.37 0 0 1 1.4-1.435c.768 0 1.468.5 1.468 1.4v9.272c0 2.602 2.168 4.77 4.736 4.77 2.603 0 4.77-2.17 4.77-4.77v-9.24c0-1.034.667-1.468 1.4-1.468.768 0 1.435.5 1.435 1.435v14.9c0 .934-.667 1.4-1.4 1.4z"/><path id="H" d="M552.297 156.196c-12.28 0-22.24 9.962-22.24 22.24v12.626c0 2.2 1.853 4.054 4.054 4.054s4.054-1.853 4.054-4.054v-12.626c0-3.012 1.043-5.908 2.664-8.224v65.795c0 2.78 2.2 5.097 5.097 5.097s5.097-2.2 5.097-5.097v-37.994h2.896v37.994c0 2.78 2.2 5.097 5.097 5.097s5.097-2.2 5.097-5.097v-65.795c1.622 2.317 2.664 5.097 2.664 8.224v12.626c0 2.2 1.853 4.054 4.054 4.054s4.054-1.853 4.054-4.054v-12.626c-.348-12.28-10.3-22.24-22.588-22.24z"/><path id="I" d="M794.407 156.196c-12.28 0-22.24 9.962-22.24 22.24v12.626c0 2.2 1.853 4.054 4.054 4.054s4.054-1.853 4.054-4.054v-12.626c0-3.012 1.043-5.908 2.664-8.224v65.795c0 2.78 2.2 5.097 5.097 5.097s5.097-2.2 5.097-5.097v-37.994h2.896v37.994c0 2.78 2.2 5.097 5.097 5.097s5.097-2.2 5.097-5.097v-65.795c1.622 2.317 2.664 5.097 2.664 8.224v12.626c0 2.2 1.853 4.054 4.054 4.054s4.054-1.853 4.054-4.054v-12.626c-.348-12.28-10.31-22.24-22.588-22.24z"/><path id="J" d="M552.297 281.384c-12.28 0-22.24 9.962-22.24 22.24v12.626c0 2.2 1.853 4.054 4.054 4.054s4.054-1.853 4.054-4.054v-12.626c0-3.012 1.043-5.908 2.664-8.224v65.795c0 2.78 2.2 5.097 5.097 5.097s5.097-2.2 5.097-5.097V323.2h2.896v37.994c0 2.78 2.2 5.097 5.097 5.097s5.097-2.2 5.097-5.097V295.4c1.622 2.317 2.664 5.097 2.664 8.224v12.626c0 2.2 1.853 4.054 4.054 4.054s4.054-1.853 4.054-4.054v-12.626c-.348-12.28-10.3-22.24-22.588-22.24z"/><path id="K" d="M552.297 406.572c-12.28 0-22.24 9.962-22.24 22.24v12.626c0 2.2 1.853 4.054 4.054 4.054s4.054-1.853 4.054-4.054v-12.626c0-3.012 1.043-5.908 2.664-8.224v65.795c0 2.78 2.2 5.097 5.097 5.097s5.097-2.2 5.097-5.097V448.39h2.896v37.994c0 2.78 2.2 5.097 5.097 5.097s5.097-2.2 5.097-5.097v-65.795c1.622 2.317 2.664 5.097 2.664 8.224v12.626c0 2.2 1.853 4.054 4.054 4.054s4.054-1.853 4.054-4.054v-12.626c-.348-12.28-10.3-22.24-22.588-22.24z"/><path id="L" d="M552.297 531.76c-12.28 0-22.24 9.962-22.24 22.24v12.626c0 2.2 1.853 4.054 4.054 4.054s4.054-1.853 4.054-4.054V554c0-3.012 1.043-5.908 2.664-8.224v65.795c0 2.78 2.2 5.097 5.097 5.097s5.097-2.2 5.097-5.097v-37.994h2.896v37.994c0 2.78 2.2 5.097 5.097 5.097s5.097-2.2 5.097-5.097v-65.795c1.622 2.317 2.664 5.097 2.664 8.224v12.626c0 2.2 1.853 4.054 4.054 4.054s4.054-1.853 4.054-4.054V554c-.348-12.28-10.3-22.24-22.588-22.24z"/><path id="M" d="M552.297 907.324c-12.28 0-22.24 9.962-22.24 22.24V942.2c0 2.2 1.853 4.054 4.054 4.054s4.054-1.853 4.054-4.054v-12.626c0-3.012 1.043-5.908 2.664-8.224v65.795c0 2.78 2.2 5.097 5.097 5.097s5.097-2.2 5.097-5.097V949.14h2.896v37.994c0 2.78 2.2 5.097 5.097 5.097s5.097-2.2 5.097-5.097V921.34c1.622 2.317 2.664 5.097 2.664 8.224v12.626c0 2.2 1.853 4.054 4.054 4.054s4.054-1.853 4.054-4.054v-12.626c-.348-12.28-10.3-22.24-22.588-22.24z"/><path id="N" d="M893 375.616c-.896 0-1.596-.7-1.596-1.596s.7-1.596 1.596-1.596 1.596.7 1.596 1.596-.7 1.596-1.596 1.596zm0 17.557c-.392 0-.812-.252-.812-.784v-13.3c0-.504.392-.784.812-.784.364 0 .784.252.784.784v13.3c0 .504-.364.784-.784.784z"/><path id="O" d="M927.47 386.537h-11.62c.252 3.19 2.324 5.516 5.376 5.516 1.512 0 3.304-.672 4.116-1.932.196-.31.42-.393.672-.393.42 0 .868.336.868.756 0 .252 0 .31-.532.924-1.288 1.513-3.164 2.24-5.124 2.24-4.508 0-7.028-3.696-7.028-7.924 0-4.2 2.52-7.896 7.028-7.896s7.028 3.724 7.028 7.896c0 .42-.392.813-.784.813zm-6.244-7.112c-3.36 0-5.124 2.576-5.376 5.516h10.78c-.252-3.19-2.324-5.516-5.404-5.516z"/><path id="P" d="M1017.12 393.173h-.028c-.924 0-2.24-.504-2.772-2.185-1.176 1.652-2.996 2.66-5.432 2.66-4.564 0-7.028-3.752-7.028-7.924 0-4.228 2.52-7.896 7.028-7.896 2.436 0 4.256 1.008 5.432 2.632v-1.372c0-.448.364-.784.812-.784.392 0 .784.28.784.784v11.284c0 1.792 2.016.672 2.016 2.016a.77.77 0 0 1-.812.784zm-8.232-13.748c-3.304 0-5.432 2.66-5.432 6.3s2.128 6.328 5.432 6.328c3.332 0 5.432-2.688 5.432-6.328s-2.1-6.3-5.432-6.3z"/><path id="Q" d="M1034.397 393.705c-1.68 0-4.508-.59-5.488-2.213-.112-.168-.112-.308-.112-.42a.86.86 0 0 1 .812-.84c.168 0 .448.14.616.393 1.008 1.23 2.8 1.483 4.172 1.483 2.716 0 4.088-.896 4.088-2.716 0-4.228-9.184-1.988-9.184-7.588 0-2.828 2.828-3.92 5.376-3.92 1.456 0 3.696.504 4.816 1.624.168.168.252.364.252.532 0 .42-.42.84-.868.84-.168 0-.364-.057-.532-.225-.868-.84-2.436-1.176-3.668-1.176-2.464 0-3.78.952-3.78 2.324 0 3.92 9.184 1.848 9.184 7.588 0 3.192-2.8 4.312-5.684 4.312z"/><path id="R" d="M920.862 151.504c-2.632 0-4.788 2.128-4.788 4.788v7.924c0 .504-.42.784-.784.784-.392 0-.812-.28-.812-.784v-13.3c0-.504.42-.784.812-.784.364 0 .784.28.784.784v1.148c1.26-1.372 2.912-2.156 4.788-2.156.504 0 .812.42.812.784 0 .392-.308.812-.812.812z"/><path id="S" d="M944.936 158.364h-11.62c.252 3.192 2.324 5.516 5.376 5.516 1.512 0 3.304-.672 4.116-1.932.196-.308.42-.392.672-.392.42 0 .868.336.868.756 0 .252 0 .308-.532.924-1.288 1.512-3.164 2.24-5.124 2.24-4.508 0-7.028-3.696-7.028-7.924 0-4.2 2.52-7.896 7.028-7.896s7.028 3.724 7.028 7.896c0 .42-.392.812-.784.812zm-6.244-7.112c-3.36 0-5.124 2.576-5.376 5.516h10.78c-.252-3.192-2.324-5.516-5.404-5.516z"/><path id="T" d="M970.667 165h-.868c-2.212 0-3.304-1.092-3.304-3.276v-9.996h-1.428c-.504 0-.784-.42-.784-.812 0-.364.28-.784.784-.784h1.428v-4.284c0-.504.42-.784.812-.784s.784.28.784.784v4.284h2.576c.504 0 .784.42.784.784 0 .392-.28.812-.784.812h-2.576v9.996c0 1.372.392 1.68 1.708 1.68h.868c.504 0 .784.42.784.812 0 .364-.28.784-.784.784z"/><path id="U" d="M180.46 43.282a4.3 4.3 0 1 1 0-8.64 4.3 4.3 0 1 1 0 8.64zm0 36.72c-1.32 0-2.64-.9-2.64-2.52v-26.76c0-1.68 1.32-2.58 2.64-2.58 1.26 0 2.52.9 2.52 2.58v26.76c0 1.68-1.26 2.52-2.52 2.52z"/><path id="V" d="M212.617 80c-1.32 0-2.52-.9-2.52-2.52V60.8c0-4.68-3.9-8.58-8.58-8.58-4.62 0-8.52 3.9-8.52 8.58v16.62c0 1.68-1.26 2.64-2.64 2.64-1.26 0-2.52-.9-2.52-2.58v-26.82c0-1.74 1.26-2.52 2.52-2.52 1.2 0 2.28.66 2.58 1.98 2.34-1.86 5.28-3 8.58-3 7.44 0 13.68 6.18 13.68 13.68v16.62c0 1.68-1.2 2.58-2.58 2.58z"/><path id="W" d="M235.357 93.68c-3.66 0-12.72-1.32-12.72-4.92 0-1.38 1.26-2.7 2.58-2.7 1.38 0 .18.18 3.36 1.38 1.44.54 3.6 1.14 6.78 1.14 6.66 0 9.9-3.18 9.9-9.48v-2.7c-2.34 2.22-5.7 3.6-9.9 3.6-9.48 0-15.06-6.72-15.06-15.96 0-9 5.4-16.92 15.06-16.92 4.2 0 7.44 1.26 9.9 3.84v-.24c0-1.68 1.38-2.58 2.58-2.58 1.26 0 2.58.9 2.58 2.58V79.1c0 9.54-5.7 14.58-15.06 14.58zm0-41.458c-6 0-9.9 4.68-9.9 11.82 0 6.84 3.6 10.86 9.9 10.86s9.9-4.02 9.9-10.86c0-7.14-3.84-11.82-9.9-11.82z"/><path id="X" d="M289.596 81.02c-3.3 0-8.82-1.02-11.64-4.5-.36-.54-.54-1.08-.54-1.56 0-1.5 1.44-2.7 2.7-2.7.72 0 1.26.36 1.86 1.02 1.86 2.04 4.92 2.64 7.62 2.64 5.4 0 7.14-1.86 7.14-4.56 0-7.68-18.3-2.94-18.3-15.3 0-6.54 6.12-8.94 11.82-8.94 3.24 0 10.86 1.62 10.86 4.98 0 1.32-1.08 2.7-2.52 2.7-.54 0-1.38-.3-1.98-.78-1.62-1.38-3.96-1.8-6.36-1.8-4.98 0-6.72 1.86-6.72 3.84 0 7.14 18.36 2.52 18.36 15.3 0 7.08-5.94 9.66-12.3 9.66z"/><path id="Y" d="M374.55 80c-3.3 0-4.8-2.34-5.34-3.42-2.4 2.64-5.88 4.44-10.56 4.44-9.78 0-15.06-8.04-15.06-16.98s5.4-16.92 15.06-16.92c4.2 0 7.56 1.5 9.9 3.96v-.24c0-.66.24-2.7 2.52-2.7 1.26 0 2.64.66 2.64 2.52v23.16c0 .78.54 1.08.84 1.08 1.68 0 2.58 1.2 2.58 2.58 0 1.26-.9 2.52-2.58 2.52zm-15.9-27.78c-6 0-9.9 4.68-9.9 11.82 0 7.2 3.9 11.88 9.9 11.88 6.06 0 9.9-4.68 9.9-11.88 0-7.14-3.84-11.82-9.9-11.82z"/><path id="Z" d="M386.85 80.12c-3.24 0-6-2.76-6-6.12V39.862c0-1.74 1.26-2.58 2.58-2.58s2.58.84 2.58 2.52V74c0 .72.54 1.02.84 1.02 1.68 0 2.58 1.2 2.58 2.58 0 1.32-.9 2.52-2.58 2.52z"/><path id="a" d="M554.486 80c-3.3 0-4.8-2.34-5.34-3.42-2.4 2.64-5.88 4.44-10.56 4.44-9.78 0-15.06-8.04-15.06-16.98s5.4-16.92 15.06-16.92c4.2 0 7.56 1.5 9.9 3.96v-.24c0-.66.24-2.7 2.52-2.7 1.26 0 2.64.66 2.64 2.52v23.16c0 .78.54 1.08.84 1.08 1.68 0 2.58 1.2 2.58 2.58 0 1.26-.9 2.52-2.58 2.52zm-15.898-27.78c-6 0-9.9 4.68-9.9 11.82 0 7.2 3.9 11.88 9.9 11.88 6.06 0 9.9-4.68 9.9-11.88 0-7.14-3.84-11.82-9.9-11.82z"/></defs></svg>