<svg xmlns="http://www.w3.org/2000/svg" xmlns:xlink="http://www.w3.org/1999/xlink" viewBox="0 0 1080 1080"><style><![CDATA[.X{opacity:.6}.Y{opacity:.3}.Z{fill:none}.a{stroke:#fff}.b{stroke-width:2}.c{stroke-miterlimit:10}.d{clip-path:url(#AA)}.e{fill:#fff}.f{stroke-dasharray:2.0068,6.0204}.g{opacity:.7}]]></style><linearGradient id="A" gradientUnits="userSpaceOnUse" x1="11.716" y1="11.716" x2="1068.284" y2="1068.284"><stop offset="0" stop-color="#360033"/><stop offset=".027" stop-color="#340536"/><stop offset=".357" stop-color="#233c5e"/><stop offset=".64" stop-color="#16657b"/><stop offset=".864" stop-color="#0e7e8c"/><stop offset="1" stop-color="#0b8793"/></linearGradient><path d="M1040 1080H40c-22.09 0-40-17.91-40-40V40C0 17.91 17.91 0 40 0h1000c22.09 0 40 17.91 40 40v1000c0 22.09-17.91 40-40 40z" fill="url(#A)"/><path d="M35.73 982.994v-1.92h2.815v-18.56l-2.88.258v-1.408a11.16 11.16 0 0 0 1.92-.69c.62-.3 1.193-.654 1.728-1.104h1.536v21.504h2.688v1.92H35.73zm12.513-4.287c.085.576.218 1.04.4 1.4s.4.625.625.816a1.87 1.87 0 0 0 .735.385 3.03 3.03 0 0 0 .736.096c1.024 0 1.835-.736 2.432-2.207s.917-3.82.96-7.04a6.69 6.69 0 0 1-1.615 1.248c-.607.342-1.254.512-1.937.512a4.86 4.86 0 0 1-1.856-.367c-.596-.244-1.125-.65-1.584-1.217s-.826-1.295-1.104-2.2-.416-2.006-.416-3.328c0-2.262.442-4.03 1.328-5.312s2.096-1.92 3.632-1.92c1.003 0 1.872.166 2.608.496s1.35.896 1.84 1.695.858 1.9 1.104 3.266.368 3.098.368 5.168c0 2.324-.134 4.314-.4 5.967s-.65 3.008-1.152 4.064-1.1 1.836-1.824 2.336-1.53.752-2.447.752c-.748 0-1.383-.107-1.904-.32s-.96-.516-1.312-.912a4.62 4.62 0 0 1-.848-1.408 8.71 8.71 0 0 1-.48-1.84l2.112-.127zm5.952-10.88c0-1.172-.075-2.16-.225-2.96s-.363-1.45-.64-1.953-.62-.863-1.024-1.088-.863-.336-1.375-.336a2.8 2.8 0 0 0-1.232.271c-.373.182-.687.48-.944.896s-.46.967-.608 1.648-.224 1.525-.224 2.527c0 1.025.08 1.873.24 2.545s.373 1.2.64 1.584.576.65.928.8.7.225 1.072.225c.747 0 1.402-.203 1.97-.607a6.55 6.55 0 0 0 1.424-1.377v-2.176zm12.635-3.65c-.085-.574-.22-1.04-.4-1.4s-.4-.625-.625-.816a1.88 1.88 0 0 0-.752-.385c-.267-.062-.506-.096-.72-.096-1.024 0-1.84.736-2.448 2.2s-.922 3.818-.943 7.04a6.69 6.69 0 0 1 1.615-1.248c.607-.342 1.254-.512 1.937-.512a4.86 4.86 0 0 1 1.856.367c.596.244 1.125.652 1.584 1.217s.826 1.3 1.104 2.2.416 2 .416 3.3c0 2.262-.443 4.033-1.328 5.313s-2.096 1.92-3.632 1.92c-1.003 0-1.872-.166-2.608-.496s-1.35-.896-1.84-1.695-.86-1.883-1.104-3.248-.368-3.094-.368-5.184c0-2.326.133-4.314.4-5.97s.65-3.008 1.152-4.064 1.1-1.834 1.824-2.336 1.53-.752 2.447-.752c.747 0 1.382.107 1.904.32a3.49 3.49 0 0 1 1.313.912c.352.395.635.87.848 1.424s.373 1.162.48 1.824l-2.112.127zm-5.952 10.88c0 1.174.074 2.16.225 2.96s.362 1.45.64 1.95.618.863 1.024 1.088.863.336 1.375.336c.45 0 .86-.1 1.232-.27s.688-.48.944-.896.458-.965.608-1.648.224-1.525.224-2.527c0-1.023-.08-1.873-.24-2.545s-.374-1.2-.64-1.584-.576-.65-.928-.8a2.71 2.71 0 0 0-1.072-.225c-.748 0-1.403.203-1.97.607a6.55 6.55 0 0 0-1.424 1.377v2.176zm21.54-3.614c0 2.1-.1 3.883-.336 5.375s-.565 2.72-1.023 3.68-1.04 1.67-1.744 2.13-1.525.688-2.465.688-1.76-.23-2.463-.687-1.286-1.168-1.744-2.13-.8-2.186-1.024-3.68-.336-3.285-.336-5.375.112-3.883.336-5.377.565-2.72 1.024-3.68 1.04-1.67 1.744-2.13 1.524-.687 2.463-.687 1.76.23 2.465.688 1.285 1.168 1.744 2.13.8 2.188 1.023 3.68.336 3.285.336 5.377zm-2.304 0l-.208-4.752c-.14-1.27-.348-2.3-.624-3.057s-.62-1.316-1.024-1.648-.875-.496-1.408-.496-1.002.166-1.408.496-.746.88-1.023 1.648-.485 1.787-.624 3.057-.208 2.854-.208 4.752l.208 4.752c.14 1.27.347 2.287.624 3.055s.62 1.318 1.023 1.648a2.16 2.16 0 0 0 1.408.496c.533 0 1.003-.164 1.408-.496s.746-.88 1.024-1.648.485-1.785.624-3.055.208-2.854.208-4.752z" opacity=".5" class="e"/><path d="M998.604 982.994v-1.92a15.97 15.97 0 0 1 1.344-3.184l1.76-2.816 1.888-2.56 1.73-2.432c.512-.8.928-1.604 1.248-2.416s.48-1.652.48-2.527c0-1.217-.267-2.13-.8-2.736s-1.195-.912-1.983-.912c-.918 0-1.68.38-2.288 1.137s-.966 2-1.072 3.73H998.8c.064-1.303.25-2.4.56-3.266s.7-1.572 1.2-2.096 1.046-.9 1.664-1.104a6.06 6.06 0 0 1 1.984-.32c1.515 0 2.752.502 3.712 1.504s1.44 2.465 1.44 4.385c0 .96-.134 1.824-.4 2.592s-.624 1.5-1.072 2.225-.965 1.424-1.552 2.127l-1.84 2.32-1.937 2.8c-.65 1.023-1.264 2.207-1.84 3.55h8.77v1.92h-10.88zm23.772-11.55c0 2.1-.1 3.883-.336 5.375s-.565 2.72-1.023 3.68-1.04 1.67-1.744 2.13-1.525.688-2.464.688-1.76-.23-2.464-.687-1.286-1.168-1.744-2.13-.8-2.186-1.024-3.68-.336-3.285-.336-5.375.112-3.883.336-5.377.565-2.72 1.024-3.68 1.04-1.67 1.744-2.13 1.524-.687 2.464-.687 1.76.23 2.464.688 1.285 1.168 1.744 2.13.8 2.188 1.023 3.68.336 3.285.336 5.377zm-2.304 0l-.208-4.752c-.14-1.27-.347-2.3-.624-3.057s-.62-1.316-1.023-1.648a2.15 2.15 0 0 0-1.408-.496c-.533 0-1.003.166-1.408.496s-.747.88-1.024 1.648-.485 1.787-.624 3.057-.208 2.854-.208 4.752l.208 4.752c.14 1.27.347 2.287.624 3.055s.62 1.318 1.024 1.648a2.16 2.16 0 0 0 1.408.496c.534 0 1.002-.164 1.408-.496s.746-.88 1.023-1.648.485-1.785.624-3.055.208-2.854.208-4.752zm4.524 11.55v-1.92h2.816v-18.56l-2.88.258v-1.408a11.16 11.16 0 0 0 1.92-.69 7.77 7.77 0 0 0 1.728-1.104h1.536v21.504h2.688v1.92h-7.8zm9.9-23.104h10.368v1.217l-6.72 21.887h-2.432l6.72-21.184h-7.936v-1.92z" opacity=".5" class="e"/><path d="M64.705 162.942c1.76 1.828 2.674 4.147 2.742 6.957-.203 4.198-1.66 6.975-4.367 8.328-.17.136-.152.305.05.508 3.352 1.93 5 4.9 4.977 8.938-.068 3.115-1.033 5.62-2.895 7.516-1.896 1.896-4.283 2.877-7.16 2.945-2.878-.068-5.248-1.05-7.1-2.945s-2.827-4.4-2.895-7.516c-.034-4.028 1.625-7.008 4.977-8.937.203-.203.22-.372.05-.508-2.7-1.354-4.164-4.13-4.367-8.328.067-2.8.98-5.13 2.742-6.957 1.727-1.86 3.927-2.826 6.602-2.895 2.708.068 4.926 1.033 6.652 2.895zm-6.652 31.8c1.93-.033 3.47-.693 4.62-1.98 1.15-1.252 1.727-2.928 1.727-5.027 0-2.268-.56-4.08-1.676-5.434-1.117-1.388-2.675-2.1-4.672-2.133-1.964.034-3.504.745-4.62 2.133-1.117 1.354-1.676 3.166-1.676 5.434 0 2.1.575 3.775 1.727 5.027 1.15 1.287 2.674 1.947 4.57 1.98v-.05.05zm5.688-24.78c0-1.794-.508-3.317-1.523-4.57-.982-1.252-2.37-1.896-4.164-1.93-1.795.034-3.183.678-4.164 1.93s-1.473 2.776-1.473 4.57c.102 4.266 1.98 6.518 5.637 6.754 3.7-.236 5.586-2.488 5.688-6.754zm11.045 19c.27 3.656 2.302 5.57 6.094 5.738 1.76 0 3.2-.575 4.316-1.727 1.083-1.15 1.642-2.76 1.676-4.824v-4.62c0-1.828-.5-3.317-1.473-4.47-1.016-1.185-2.437-1.794-4.266-1.828-2.2.068-3.877.644-5.027 1.727-.17.237-.4.322-.66.254h-2.488c-.373.068-.525-.084-.457-.457v-17.418c-.068-.372.084-.524.457-.457H88.8c.372-.067.524.085.457.457v2.6c.067.373-.085.542-.457.508H76.4c-.34-.067-.5.085-.457.457v10.055c0 .305.152.373.457.203 1.354-.744 3.03-1.134 5.027-1.168 2.742.034 4.942.897 6.602 2.6 1.692 1.693 2.556 4.012 2.6 6.957v4.62c-.068 3.047-1.033 5.468-2.895 7.262s-4.198 2.725-7.008 2.793c-2.844-.068-5.112-.965-6.805-2.7-1.727-1.727-2.658-3.96-2.793-6.703-.068-.338.084-.5.457-.457h2.64c.372-.033.56.17.56.6v-.05.05z" fill="#f64f59"/><path d="M1010.7 763.35l.6-.457h3.605c.37 0 .54.17.508.508v32.094c-.068.373.084.542.457.508h6.602c.37-.067.523.085.457.457v2.488c.033.373-.12.524-.457.457h-17.977c-.373.067-.543-.084-.508-.457v-2.488c-.035-.372.135-.524.508-.457h6.855c.338.034.5-.135.457-.508V768.43c-.035-.406-.203-.44-.508-.102-1.592 1.5-3.9 2.844-6.957 4.063-.27.136-.424.05-.457-.254v-2.6c0-.203.117-.355.355-.457 2.877-1.22 5.027-3.13 6.45-5.738v-.05.05zm24.456 33.464c1.93-.067 3.47-.762 4.62-2.082s1.727-2.98 1.727-4.977c-.033-2.47-.7-4.4-2.03-5.8-1.354-1.354-3.115-2.03-5.28-2.03h-.6c-.338.034-.5-.135-.457-.508V779c-.033-.372.12-.524.457-.457h.305c2.064-.033 3.725-.693 4.977-1.98 1.252-1.252 1.896-2.98 1.93-5.18-.203-3.588-1.963-5.484-5.28-5.687a5.19 5.19 0 0 0-3.605 1.37c-1.005.913-1.643 2.252-1.88 4.012 0 .475-.17.678-.508.6h-2.742c-.406.068-.56-.102-.457-.508.236-2.606 1.2-4.756 2.895-6.45 1.727-1.727 3.842-2.606 6.348-2.64 2.607.034 4.756.914 6.45 2.64s2.572 3.944 2.64 6.652c-.068 2.303-.643 4.13-1.727 5.484-1.05 1.354-2.234 2.336-3.555 2.945-.27.17-.254.355.05.56 1.354.576 2.658 1.574 3.9 2.996 1.287 1.456 1.963 3.6 2.03 6.398-.068 2.912-1.05 5.4-2.945 7.465-1.93 2.03-4.367 3.098-7.312 3.2-2.674-.034-4.943-.914-6.805-2.64-1.896-1.76-2.928-4.215-3.098-7.363-.068-.203.084-.338.457-.406h2.742c.373-.067.56.136.56.6.305 3.96 2.37 6.026 6.195 6.195v-.05.05z" fill="#12c2e9"/><defs><path id="B" d="M34 238.83l17.79-16.444c5.913-5.474 11.827-16.444 17.74-16.444s11.827 28.777 17.74 41.1 11.827 21.94 17.74 32.888c5.93 10.978 11.86 20.534 17.79 32.888 5.914 12.32 11.827 28.777 17.74 41.1s11.827 20.555 17.74 32.888 11.827 27.425 17.74 41.1l17.79 41.1c5.913 13.685 11.827 28.777 17.74 41.1s11.827 20.555 17.74 32.888 11.827 30.155 17.74 41.1c5.93 10.985 11.86 17.81 17.79 24.666 5.913 6.84 11.827 9.592 17.74 16.444s11.827 17.814 17.74 24.666 11.827 9.605 17.74 16.444c5.93 6.857 11.86 24.666 17.79 24.666h17.74c5.913 0 11.827 8.222 17.74 8.222h17.74c5.93 0 11.86 8.222 17.79 8.222h17.74c5.914 0 11.827-8.222 17.74-8.222h17.74c5.93 0 11.86-5.478 17.79-8.222l17.74-8.222c5.913-2.74 11.827-8.222 17.74-8.222s11.827 8.222 17.74 8.222h71.01c5.93 0 11.86 8.222 17.79 8.222h88.75c5.914 0 11.827 5.48 17.74 8.222l17.74 8.222c5.93 2.744 11.86 8.222 17.79 8.222h17.74c5.914 0 11.827 8.222 17.74 8.222h53.27c5.913 0 11.827 5.48 17.74 8.222l17.74 8.222c5.93 2.744 11.86 4.102 17.79 8.222 5.914 4.11 11.827 12.333 17.74 16.444s11.827 4.11 17.74 8.222 11.827 12.335 17.74 16.444c5.93 4.12 11.86 5.478 17.79 8.222l71 32.888H1080V0H32.34L34 238.83z"/><path id="C" d="M124.17 203.844v-1.44h2.112v-13.92l-2.16.192v-1.056c.496-.128.976-.3 1.44-.517a5.83 5.83 0 0 0 1.297-.828h1.15v16.128h2.017v1.44h-5.856z"/><path id="D" d="M139.697 231.444c-.55 0-1.05-.375-1.05-1.05v-6.948a3.61 3.61 0 0 0-3.574-3.574c-1.925 0-3.55 1.625-3.55 3.574v6.923a1.06 1.06 0 0 1-1.1 1.101c-.524 0-1.05-.375-1.05-1.075v-11.172c0-.726.524-1.05 1.05-1.05.5 0 .95.274 1.075.824.975-.774 2.2-1.25 3.574-1.25 3.1 0 5.698 2.574 5.698 5.698v6.923c0 .7-.5 1.075-1.074 1.075z"/><path id="E" d="M146.79 231.444h-.425c-2.374 0-3.274-1.25-3.274-3.3v-7.85h-.75c-.6 0-1.074-.475-1.074-1.05 0-.6.475-1.074 1.05-1.074h.75v-3.475c0-.7.525-1.05 1.075-1.05s1.05.35 1.05 1.05v3.475h1.6c.7 0 1.05.574 1.05 1.05 0 .6-.4 1.074-1.05 1.074h-1.6v8.073c0 .7.25.95.95.95h.625c.65 0 1.075.475 1.075 1.05 0 .6-.4 1.075-1.05 1.075z"/><path id="F" d="M154.457 219.87c-1.924 0-3.55 1.625-3.55 3.574v6.923c0 .7-.525 1.075-1.1 1.075-.525 0-1.05-.375-1.05-1.05v-11.147c0-.7.575-1.074 1.05-1.074.5 0 .975.274 1.074.85a5.78 5.78 0 0 1 3.574-1.274c.725 0 1.1.5 1.1 1.074 0 .55-.375 1.05-1.1 1.05z"/><path id="G" d="M206.878 229.97c-1.1 1.225-2.624 1.9-4.474 1.9-4.023 0-6.273-3.3-6.273-7.073 0-3.75 2.25-7.048 6.273-7.048 1.85 0 3.374.675 4.474 1.9.2.225.3.475.3.725 0 .55-.55 1.074-1.125 1.074-.225 0-.5-.1-.774-.35-.7-.774-1.624-1.225-2.874-1.225-2.5 0-4.124 1.95-4.124 4.924 0 3 1.624 4.95 4.124 4.95 1.25 0 2.2-.476 2.874-1.225.226-.275.524-.375.774-.375.575 0 1.125.5 1.125 1.1 0 .225-.1.5-.3.725z"/><path id="H" d="M213.18 231.444h-.424c-2.375 0-3.275-1.25-3.275-3.3v-7.85h-.75c-.6 0-1.074-.475-1.074-1.05 0-.6.475-1.074 1.05-1.074h.75v-3.475c0-.7.524-1.05 1.075-1.05s1.05.35 1.05 1.05v3.475h1.6c.7 0 1.05.574 1.05 1.05 0 .6-.4 1.074-1.05 1.074h-1.6v8.073c0 .7.25.95.95.95h.625a1.03 1.03 0 0 1 1.075 1.049c0 .6-.4 1.075-1.05 1.075z"/><path id="I" d="M216.275 216.148c-1 0-1.8-.8-1.8-1.8s.8-1.8 1.8-1.8a1.79 1.79 0 1 1 0 3.6zm0 15.296c-.55 0-1.1-.375-1.1-1.05v-11.147c0-.7.55-1.074 1.1-1.074.524 0 1.05.375 1.05 1.074v11.147c0 .7-.524 1.05-1.05 1.05z"/><path id="J" d="M225.164 231.868c-4.024 0-6.273-3.3-6.273-7.073 0-3.75 2.25-7.048 6.273-7.048s6.273 3.3 6.273 7.048c0 3.774-2.25 7.073-6.273 7.073zm0-11.997c-2.5 0-4.125 1.95-4.125 4.924 0 3 1.625 4.95 4.125 4.95 2.523 0 4.123-1.95 4.123-4.95 0-2.975-1.6-4.924-4.123-4.924z"/><path id="K" d="M243.407 231.444c-.55 0-1.05-.375-1.05-1.05v-6.948a3.61 3.61 0 0 0-3.574-3.574c-1.925 0-3.55 1.625-3.55 3.574v6.923a1.06 1.06 0 0 1-1.1 1.101c-.525 0-1.05-.375-1.05-1.075v-11.172c0-.726.525-1.05 1.05-1.05.5 0 .95.274 1.074.824.975-.774 2.2-1.25 3.574-1.25 3.1 0 5.7 2.574 5.7 5.698v6.923c0 .7-.5 1.075-1.075 1.075z"/><path id="L" d="M129.597 259.47c-4.023 0-6.273-3.3-6.273-7.073 0-3.75 2.25-7.048 6.273-7.048s6.273 3.3 6.273 7.048c0 3.774-2.25 7.073-6.273 7.073zm0-11.997c-2.5 0-4.123 1.95-4.123 4.924 0 3 1.624 4.95 4.123 4.95 2.525 0 4.125-1.95 4.125-4.95 0-2.975-1.6-4.924-4.125-4.924z"/><path id="M" d="M156.553 259.044c-1.375 0-2-.975-2.225-1.425-1 1.1-2.45 1.85-4.4 1.85-4.074 0-6.273-3.35-6.273-7.073s2.25-7.048 6.273-7.048c1.75 0 3.15.624 4.125 1.65v-.1c0-.274.1-1.124 1.05-1.124.525 0 1.1.274 1.1 1.05v9.647c0 .325.226.45.35.45.7 0 1.075.5 1.075 1.074 0 .525-.375 1.05-1.075 1.05zm-6.624-11.572c-2.5 0-4.123 1.95-4.123 4.924 0 3 1.624 4.95 4.123 4.95 2.525 0 4.125-1.95 4.125-4.95 0-2.975-1.6-4.924-4.125-4.924z"/><path id="N" d="M231.627 259.044c-1.375 0-2-.975-2.225-1.425-1 1.1-2.45 1.85-4.398 1.85-4.074 0-6.273-3.35-6.273-7.073s2.25-7.048 6.273-7.048c1.75 0 3.148.624 4.123 1.65v-.1c0-.274.1-1.124 1.05-1.124.524 0 1.1.274 1.1 1.05v9.647c0 .325.225.45.35.45.7 0 1.074.5 1.074 1.074 0 .525-.375 1.05-1.074 1.05zm-6.623-11.572c-2.5 0-4.125 1.95-4.125 4.924 0 3 1.625 4.95 4.125 4.95 2.523 0 4.123-1.95 4.123-4.95 0-2.975-1.6-4.924-4.123-4.924z"/><path id="O" d="M431.064 735.534v-1.44h2.11v-13.92l-2.16.192v-1.056c.495-.128.976-.3 1.44-.517s.896-.492 1.296-.828h1.152v16.128h2.016v1.44h-5.855z"/><path id="P" d="M474.697 757.585h-9.248c.35 2.35 1.85 3.85 4.05 3.85 1.125 0 2.25-.4 2.975-1.3.225-.25.475-.4.774-.4.55 0 1.125.5 1.125 1.1 0 .3-.075.525-.6 1.05-1.125 1.1-2.675 1.675-4.274 1.675-4.023 0-6.273-3.324-6.273-7.073 0-3.724 2.25-7.048 6.273-7.048 4.074 0 6.25 3.324 6.25 7.048 0 .55-.4 1.1-1.05 1.1zm-5.2-6.023c-2.35 0-3.724 1.725-4.05 3.874h8.098c-.35-2.4-1.85-3.874-4.05-3.874z"/><path id="Q" d="M482.825 751.562c-1.925 0-3.55 1.625-3.55 3.574v6.923c0 .7-.525 1.075-1.1 1.075-.525 0-1.05-.375-1.05-1.05v-11.147c0-.7.574-1.074 1.05-1.074.5 0 .975.274 1.074.85a5.78 5.78 0 0 1 3.574-1.274c.725 0 1.1.5 1.1 1.074 0 .55-.375 1.05-1.1 1.05z"/><path id="R" d="M521.696 763.134c-.55 0-1.05-.375-1.05-1.05v-6.948a3.61 3.61 0 0 0-3.574-3.574c-1.925 0-3.55 1.625-3.55 3.574v6.923a1.06 1.06 0 0 1-1.1 1.101c-.525 0-1.05-.375-1.05-1.075v-11.172c0-.726.524-1.05 1.05-1.05.5 0 .95.274 1.074.824.975-.774 2.2-1.25 3.574-1.25 3.1 0 5.7 2.574 5.7 5.698v6.923c0 .7-.5 1.075-1.075 1.075z"/><path id="S" d="M440.966 789.26c-1.1 1.225-2.624 1.9-4.474 1.9-4.023 0-6.273-3.3-6.273-7.073 0-3.75 2.25-7.048 6.273-7.048 1.85 0 3.374.675 4.474 1.9.2.225.3.475.3.725 0 .55-.55 1.075-1.125 1.075-.225 0-.5-.1-.775-.35-.7-.774-1.624-1.225-2.874-1.225-2.5 0-4.124 1.95-4.124 4.924 0 3 1.625 4.95 4.124 4.95 1.25 0 2.2-.476 2.874-1.225a1 1 0 0 1 .775-.375c.575 0 1.125.5 1.125 1.1 0 .225-.1.5-.3.725z"/><path id="T" d="M448.012 791.16c-4.023 0-6.273-3.3-6.273-7.073 0-3.75 2.25-7.048 6.273-7.048s6.273 3.3 6.273 7.048c0 3.774-2.25 7.073-6.273 7.073zm0-11.997c-2.5 0-4.124 1.95-4.124 4.924 0 3 1.625 4.95 4.124 4.95 2.524 0 4.124-1.95 4.124-4.95 0-2.975-1.6-4.924-4.124-4.924z"/><path id="U" d="M473.35 790.735h-.425c-2.375 0-3.274-1.25-3.274-3.3v-7.85h-.75c-.6 0-1.075-.475-1.075-1.05 0-.6.476-1.074 1.05-1.074h.75v-3.475c0-.7.525-1.05 1.075-1.05s1.05.35 1.05 1.05v3.475h1.6c.7 0 1.05.574 1.05 1.05 0 .6-.4 1.074-1.05 1.074h-1.6v8.073c0 .7.25.95.95.95h.625a1.03 1.03 0 0 1 1.075 1.049c0 .6-.4 1.075-1.05 1.075z"/><path id="V" d="M481.017 779.162c-1.925 0-3.55 1.625-3.55 3.574v6.923c0 .7-.524 1.075-1.1 1.075-.524 0-1.05-.375-1.05-1.05v-11.147c0-.7.575-1.074 1.05-1.074.5 0 .975.274 1.075.85a5.78 5.78 0 0 1 3.574-1.274c.725 0 1.1.5 1.1 1.074 0 .55-.375 1.05-1.1 1.05z"/><path id="W" d="M494.353 790.735c-1.375 0-2-.975-2.225-1.425-1 1.1-2.45 1.85-4.4 1.85-4.074 0-6.273-3.35-6.273-7.073s2.25-7.048 6.273-7.048c1.75 0 3.15.624 4.124 1.65v-.1c0-.274.1-1.124 1.05-1.124.525 0 1.1.274 1.1 1.05v9.647c0 .325.226.45.35.45.7 0 1.074.5 1.074 1.074 0 .525-.375 1.05-1.074 1.05zm-6.624-11.572c-2.5 0-4.124 1.95-4.124 4.924 0 3 1.625 4.95 4.124 4.95 2.524 0 4.124-1.95 4.124-4.95 0-2.975-1.6-4.924-4.124-4.924z"/><path id="X" d="M539.406 790.735h-.425c-2.374 0-3.274-1.25-3.274-3.3v-7.85h-.75c-.6 0-1.074-.475-1.074-1.05 0-.6.475-1.074 1.05-1.074h.75v-3.475c0-.7.524-1.05 1.074-1.05s1.05.35 1.05 1.05v3.475h1.6c.7 0 1.05.574 1.05 1.05 0 .6-.4 1.074-1.05 1.074h-1.6v8.073c0 .7.25.95.95.95h.625c.65 0 1.074.475 1.074 1.05 0 .6-.4 1.075-1.05 1.075z"/><path id="Y" d="M542.5 775.44a1.79 1.79 0 1 1 0-3.6 1.79 1.79 0 1 1 0 3.6zm0 15.296c-.55 0-1.1-.375-1.1-1.05v-11.147c0-.7.55-1.074 1.1-1.074.524 0 1.05.375 1.05 1.074v11.147c0 .7-.525 1.05-1.05 1.05z"/><path id="Z" d="M551.388 791.16c-4.024 0-6.273-3.3-6.273-7.073 0-3.75 2.25-7.048 6.273-7.048s6.273 3.3 6.273 7.048c0 3.774-2.25 7.073-6.273 7.073zm0-11.997c-2.5 0-4.124 1.95-4.124 4.924 0 3 1.624 4.95 4.124 4.95 2.524 0 4.124-1.95 4.124-4.95 0-2.975-1.6-4.924-4.124-4.924z"/><path id="a" d="M468.263 818.334c-1.375 0-2-.975-2.225-1.425-1 1.1-2.45 1.85-4.398 1.85-4.074 0-6.273-3.35-6.273-7.073s2.25-7.048 6.273-7.048c1.75 0 3.148.624 4.124 1.65v-.1c0-.274.1-1.124 1.05-1.124.524 0 1.1.274 1.1 1.05v9.647c0 .325.225.45.35.45.7 0 1.075.5 1.075 1.074 0 .525-.375 1.05-1.075 1.05zm-6.623-11.572c-2.5 0-4.124 1.95-4.124 4.924 0 3 1.624 4.95 4.124 4.95 2.524 0 4.124-1.95 4.124-4.95 0-2.975-1.6-4.924-4.124-4.924z"/><path id="b" d="M471.546 803.038a1.79 1.79 0 1 1 0-3.6 1.79 1.79 0 1 1 0 3.6zm0 15.296c-.55 0-1.1-.375-1.1-1.05v-11.147c0-.7.55-1.074 1.1-1.074.525 0 1.05.375 1.05 1.074v11.147c0 .7-.524 1.05-1.05 1.05z"/><path id="c" d="M477.257 818.384c-1.35 0-2.5-1.15-2.5-2.55v-14.222c0-.725.524-1.075 1.074-1.075s1.075.35 1.075 1.05v14.247c0 .3.225.425.35.425.7 0 1.075.5 1.075 1.074 0 .55-.375 1.05-1.075 1.05z"/><path id="d" d="M765.215 744.44c0 1.568-.084 2.912-.252 4.032s-.425 2.04-.77 2.76-.78 1.252-1.308 1.596-1.145.517-1.848.517-1.32-.172-1.85-.517-.964-.876-1.308-1.596-.6-1.64-.77-2.76-.252-2.464-.252-4.032.084-2.912.252-4.032.424-2.04.77-2.76.78-1.252 1.308-1.596 1.144-.517 1.85-.517 1.32.173 1.848.517.964.876 1.308 1.596.6 1.64.77 2.76.252 2.465.252 4.032zm-1.73 0l-.155-3.563c-.104-.952-.26-1.717-.47-2.292s-.464-.988-.768-1.236a1.62 1.62 0 0 0-1.056-.372 1.62 1.62 0 0 0-1.057.372c-.304.248-.56.66-.768 1.236s-.364 1.34-.468 2.292-.156 2.14-.156 3.563l.156 3.564c.104.952.26 1.716.468 2.292s.464.987.768 1.235a1.62 1.62 0 0 0 1.057.372 1.62 1.62 0 0 0 1.056-.372c.304-.248.56-.66.768-1.235s.364-1.34.47-2.292.155-2.14.155-3.564z"/><path id="e" d="M792.343 775.156h-9.248c.35 2.35 1.85 3.85 4.05 3.85 1.124 0 2.25-.4 2.974-1.3.226-.25.476-.4.775-.4.55 0 1.124.5 1.124 1.1 0 .3-.074.525-.6 1.05-1.125 1.1-2.674 1.675-4.273 1.675-4.024 0-6.273-3.324-6.273-7.073 0-3.724 2.25-7.048 6.273-7.048 4.073 0 6.248 3.324 6.248 7.048 0 .55-.4 1.1-1.05 1.1zm-5.198-6.023c-2.35 0-3.725 1.725-4.05 3.874h8.1c-.35-2.4-1.85-3.874-4.05-3.874z"/><path id="f" d="M839.342 780.704c-.55 0-1.05-.375-1.05-1.05v-6.948a3.61 3.61 0 0 0-3.574-3.574c-1.925 0-3.55 1.625-3.55 3.574v6.923a1.06 1.06 0 0 1-1.1 1.101c-.524 0-1.05-.375-1.05-1.075v-11.172c0-.726.525-1.05 1.05-1.05.5 0 .95.274 1.075.824.975-.774 2.2-1.25 3.574-1.25 3.1 0 5.698 2.574 5.698 5.698v6.923c0 .7-.5 1.075-1.075 1.075z"/><path id="g" d="M852.605 779.23c-1.1 1.225-2.624 1.9-4.474 1.9-4.023 0-6.273-3.3-6.273-7.073 0-3.75 2.25-7.048 6.273-7.048 1.85 0 3.374.675 4.474 1.9.2.225.3.475.3.725 0 .55-.55 1.074-1.125 1.074-.226 0-.5-.1-.775-.35-.7-.774-1.624-1.225-2.874-1.225-2.5 0-4.124 1.95-4.124 4.924 0 3 1.625 4.95 4.124 4.95 1.25 0 2.2-.476 2.874-1.225a1 1 0 0 1 .775-.375c.574 0 1.125.5 1.125 1.1 0 .225-.1.5-.3.725z"/><path id="h" d="M758.614 806.83c-1.1 1.225-2.624 1.9-4.474 1.9-4.024 0-6.273-3.3-6.273-7.073 0-3.75 2.25-7.048 6.273-7.048 1.85 0 3.374.675 4.474 1.9.2.225.3.475.3.725 0 .55-.55 1.075-1.125 1.075-.225 0-.5-.1-.774-.35-.7-.774-1.625-1.225-2.874-1.225-2.5 0-4.124 1.95-4.124 4.924 0 3 1.624 4.95 4.124 4.95 1.25 0 2.2-.476 2.874-1.225.225-.275.524-.375.774-.375.575 0 1.125.5 1.125 1.1 0 .225-.1.5-.3.725z"/><path id="i" d="M772.866 824.108l-4.55 10.947c-.225.574-.6.85-1.075.85-.425 0-.824-.275-1.074-.85l-4.55-10.947c-.05-.175-.075-.3-.075-.45 0-.6.55-1.024 1.1-1.024.375 0 .75.2.95.65l3.648 8.748 3.65-8.748c.175-.475.625-.675.975-.675.575 0 1.1.4 1.1 1.024a1.24 1.24 0 0 1-.1.476z"/><path id="j" d="M785.9 835.905c-1.374 0-2-.975-2.224-1.425-1 1.1-2.45 1.85-4.4 1.85-4.074 0-6.273-3.35-6.273-7.073s2.25-7.048 6.273-7.048c1.75 0 3.15.624 4.124 1.65v-.1c0-.274.1-1.124 1.05-1.124.525 0 1.1.274 1.1 1.05v9.647c0 .325.226.45.35.45.7 0 1.075.5 1.075 1.074 0 .525-.375 1.05-1.075 1.05zm-6.623-11.572c-2.5 0-4.124 1.95-4.124 4.924 0 3 1.625 4.95 4.124 4.95 2.524 0 4.124-1.95 4.124-4.95 0-2.975-1.6-4.924-4.124-4.924z"/><path id="k" d="M794.905 835.954c-1.35 0-2.5-1.15-2.5-2.55v-14.222c0-.725.525-1.075 1.075-1.075s1.074.35 1.074 1.05v14.247c0 .3.226.425.35.425.7 0 1.074.5 1.074 1.074 0 .55-.375 1.05-1.074 1.05z"/><path id="l" d="M182.982 663.764c-1.375 0-2-.975-2.225-1.425-1 1.1-2.45 1.85-4.398 1.85-4.074 0-6.273-3.35-6.273-7.073s2.25-7.048 6.273-7.048c1.75 0 3.148.624 4.124 1.65v-.1c0-.274.1-1.124 1.05-1.124.525 0 1.1.274 1.1 1.05v9.647c0 .325.225.45.35.45.7 0 1.075.5 1.075 1.074 0 .525-.375 1.05-1.075 1.05zm-6.623-11.572c-2.5 0-4.124 1.95-4.124 4.924 0 3 1.624 4.95 4.124 4.95 2.524 0 4.124-1.95 4.124-4.95 0-2.975-1.6-4.924-4.124-4.924z"/><path id="m" d="M104.714 1045.51c-.633 0-1.267-.367-1.4-1.1-1.334 1.034-2.97 1.668-4.804 1.668-4.136 0-7.604-3.436-7.604-7.605v-9.24a1.37 1.37 0 0 1 1.4-1.435c.768 0 1.468.5 1.468 1.4v9.272c0 2.602 2.168 4.77 4.736 4.77 2.603 0 4.77-2.17 4.77-4.77v-9.24c0-1.034.667-1.468 1.4-1.468.768 0 1.435.5 1.435 1.435v14.9c0 .934-.667 1.4-1.4 1.4z"/><path id="n" d="M887.16 1046.317c-3.22 0-5.02-2.64-5.02-5.66 0-3 1.8-5.64 5.02-5.64s5.02 2.64 5.02 5.64c0 3.02-1.8 5.66-5.02 5.66zm0-10.162c-2.36 0-3.88 1.9-3.88 4.5s1.52 4.52 3.88 4.52c2.38 0 3.88-1.92 3.88-4.52s-1.5-4.5-3.88-4.5z"/><path id="o" d="M910.864 1036.335a3.42 3.42 0 0 0-3.421 3.42v5.66c0 .36-.3.56-.56.56-.28 0-.58-.2-.58-.56v-9.502c0-.36.3-.56.58-.56.26 0 .56.2.56.56v.82c.9-.98 2.08-1.54 3.42-1.54.36 0 .58.3.58.56a.58.58 0 0 1-.58.581z"/><path id="p" d="M160.962 66.682h-22.2c.84 5.64 4.44 9.24 9.72 9.24 2.7 0 5.4-.96 7.14-3.12.54-.6 1.14-.96 1.86-.96 1.32 0 2.7 1.2 2.7 2.64 0 .72-.18 1.26-1.44 2.52-2.7 2.64-6.42 4.02-10.26 4.02-9.66 0-15.06-7.98-15.06-16.98 0-8.94 5.4-16.92 15.06-16.92 9.78 0 15 7.98 15 16.92 0 1.32-.96 2.64-2.52 2.64zm-12.48-14.46c-5.64 0-8.94 4.14-9.72 9.3h19.44c-.84-5.76-4.44-9.3-9.72-9.3z"/><path id="q" d="M223.367 80c-1.32 0-2.52-.9-2.52-2.52v-16.68c0-4.68-3.9-8.58-8.58-8.58-4.62 0-8.52 3.9-8.52 8.58v16.62c0 1.68-1.26 2.64-2.64 2.64-1.26 0-2.52-.9-2.52-2.58V50.662c0-1.74 1.26-2.52 2.52-2.52 1.2 0 2.28.66 2.58 1.98 2.34-1.86 5.28-3 8.58-3 7.44 0 13.68 6.18 13.68 13.68v16.62c0 1.68-1.2 2.58-2.58 2.58z"/><path id="r" d="M481.526 76.46c-2.64 2.94-6.3 4.56-10.74 4.56-9.66 0-15.06-7.92-15.06-16.98 0-9 5.4-16.92 15.06-16.92 4.44 0 8.1 1.62 10.74 4.56.48.54.72 1.14.72 1.74 0 1.32-1.32 2.58-2.7 2.58-.54 0-1.2-.24-1.86-.84-1.68-1.86-3.9-2.94-6.9-2.94-6 0-9.9 4.68-9.9 11.818 0 7.2 3.9 11.88 9.9 11.88 3 0 5.28-1.14 6.9-2.94.54-.66 1.26-.9 1.86-.9 1.38 0 2.7 1.2 2.7 2.64 0 .54-.24 1.2-.72 1.74z"/><path id="s" d="M487.73 43.282a4.3 4.3 0 1 1 0-8.64 4.3 4.3 0 1 1 0 8.64zm0 36.72c-1.32 0-2.64-.9-2.64-2.52V50.723c0-1.68 1.32-2.58 2.64-2.58 1.26 0 2.52.9 2.52 2.58V77.48c0 1.68-1.26 2.52-2.52 2.52z"/><path id="t" d="M792.47 81.022c-9.66 0-15.06-7.92-15.06-16.98 0-9 5.4-16.92 15.06-16.92s15.06 7.92 15.06 16.92c0 9.06-5.4 16.98-15.06 16.98zm0-28.8c-6 0-9.9 4.68-9.9 11.818 0 7.2 3.9 11.88 9.9 11.88 6.06 0 9.9-4.68 9.9-11.88 0-7.14-3.84-11.818-9.9-11.818z"/><path id="u" d="M73.66 109.687c-3.57 0-6.497 2.888-6.497 6.497v10.753c0 .684-.57 1.063-1.063 1.063-.532 0-1.103-.38-1.103-1.063V108.89c0-.684.57-1.063 1.103-1.063.494 0 1.063.38 1.063 1.063v1.558c1.7-1.86 3.95-2.925 6.497-2.925.684 0 1.102.57 1.102 1.063 0 .532-.418 1.102-1.102 1.102z"/><path id="v" d="M174.62 118.995h-15.768c.342 4.332 3.153 7.485 7.295 7.485 2.052 0 4.483-.912 5.585-2.622.267-.418.57-.53.912-.53.57 0 1.178.455 1.178 1.025 0 .342 0 .418-.722 1.254-1.748 2.052-4.293 3.04-6.953 3.04-6.117 0-9.536-5.015-9.536-10.752 0-5.7 3.42-10.715 9.536-10.715s9.537 5.054 9.537 10.715c0 .57-.532 1.102-1.064 1.102zm-8.473-9.65c-4.56 0-6.953 3.495-7.295 7.485h14.628c-.342-4.332-3.153-7.485-7.333-7.485z"/><path id="w" d="M204.16 128c-.57 0-1.063-.418-1.063-1.063v-22.72l-4.142 4.027c-.19.228-.456.342-.722.342-.607 0-1.14-.57-1.14-1.178 0-.23.15-.494.342-.722l6.003-5.813c.304-.228.608-.304.722-.304.798 0 1.103.57 1.103 1.33v25.04c0 .645-.456 1.063-1.103 1.063z"/><path id="x" d="M224.912 128.646c-8.055 0-8.13-9.65-8.13-15.197 0-5.434.836-13.185 8.093-13.185 7.105 0 8.17 7.295 8.17 13.185 0 5.51-.114 15.197-8.13 15.197zm5.965-15.197c0-5.434-.76-11.02-5.965-11.02-5.7 0-5.965 6.99-5.965 11.02v2.432c0 4.407.836 10.6 5.927 10.6 5.205 0 6.003-6.193 6.003-10.6v-2.432z"/></defs><clipPath id="y"><use xlink:href="#B"/></clipPath><g class="e"><circle cx="732.167" cy="369.573" r="380.473" opacity=".05" clip-path="url(#y)"/><circle cx="732.167" cy="369.573" r="266.331" opacity=".05"/><circle cx="732.167" cy="369.573" r="152.189" opacity=".1"/><path d="M689.718 371.23c.676-.122.982.154.922.83v4.886c0 .677-.3.983-.922.922h-30.145c-.676.062-.983-.245-.922-.922v-4.886c-.062-.676.246-.952.922-.83h30.145v-.092.092zm38.342-26.18c3.194 3.32 4.854 7.53 4.978 12.63-.37 7.62-3.012 12.66-7.928 15.117-.308.246-.276.554.093.922 6.084 3.503 9.095 8.9 9.034 16.224-.125 5.655-1.876 10.202-5.255 13.644-3.442 3.442-7.774 5.223-12.997 5.347-5.225-.124-9.527-1.904-12.906-5.347s-5.132-7.988-5.254-13.644c-.062-7.312 2.95-12.72 9.033-16.224.37-.368.4-.676.092-.922-4.916-2.457-7.56-7.497-7.927-15.117.122-5.1 1.782-9.3 4.978-12.63 3.135-3.38 7.13-5.13 11.984-5.254 4.915.124 8.94 1.875 12.075 5.254zm-12.075 57.706c3.502-.06 6.298-1.26 8.388-3.595 2.1-2.272 3.134-5.315 3.134-9.126 0-4.116-1.014-7.405-3.04-9.863-2.028-2.52-4.855-3.8-8.48-3.872-3.565.063-6.36 1.353-8.4 3.872-2.028 2.458-3.043 5.747-3.043 9.863 0 3.8 1.045 6.854 3.135 9.126 2.088 2.336 4.854 3.534 8.297 3.595v-.092.092zm10.324-44.984c0-3.257-.922-6.022-2.766-8.297-1.783-2.272-4.303-3.44-7.56-3.503-3.26.063-5.777 1.23-7.56 3.503s-2.673 5.04-2.673 8.297c.184 7.743 3.595 11.83 10.232 12.26 6.697-.43 10.14-4.517 10.324-12.26zm40.853 27.286c-.062.677.215.983.83.922h5.623c.676-.123.952.153.83.83v4.517c.122.678-.154.984-.83.922h-5.623c-.615-.122-.892.154-.83.83v13.274c.123.8-.154 1.136-.83 1.014h-4.702c-.614.122-.9-.215-.83-1.014V393.08c.122-.676-.153-.952-.83-.83h-21.387c-.615.063-.892-.244-.83-.922v-5.807l.37-1.567 19.635-42.127c.185-.5.613-.737 1.3-.737h7.282c.675-.06.952.246.83.92v43.05zm-23.137 0c-.37.677-.186.983.553.922h15.395c.676.062.95-.245.83-.922V350.58c-.124-.737-.368-.798-.737-.185l-16.04 34.66zm43.335-44.692c1.182 1.254 1.8 2.866 1.826 4.837v3.332c-.035 1.97-.645 3.583-1.826 4.836s-2.76 1.9-4.73 1.936c-1.934-.036-3.492-.68-4.676-1.936-1.218-1.253-1.846-2.865-1.88-4.836v-3.332c.035-1.97.663-3.583 1.88-4.837 1.184-1.254 2.742-1.898 4.676-1.935 1.97.036 3.547.68 4.73 1.935zm-7.256 37.62h-2.365c-.43.035-.537-.143-.322-.537l22.143-37.674c.143-.43.376-.608.698-.537h2.364c.395-.035.502.126.322.483l-22.195 37.674c-.143.43-.358.626-.645.6zm-1.02-29.612c.143 2.5 1.326 3.78 3.547 3.816 2.258-.035 3.44-1.308 3.547-3.816v-3c-.107-2.508-1.3-3.78-3.547-3.816-2.22.036-3.404 1.3-3.547 3.816v3zm13.92 28.483c-1.22-1.253-1.846-2.848-1.88-4.782v-3.278c.035-1.936.662-3.53 1.88-4.783 1.182-1.218 2.74-1.845 4.676-1.88 1.97.036 3.547.663 4.73 1.88 1.183 1.254 1.8 2.848 1.828 4.783v3.278c-.037 1.935-.646 3.53-1.828 4.782s-2.76 1.9-4.73 1.936c-1.936-.036-3.494-.682-4.676-1.936zm8.223-4.944v-2.955c-.107-2.437-1.3-3.673-3.547-3.7-2.223.036-3.404 1.272-3.547 3.7v2.955c.143 2.473 1.324 3.728 3.547 3.763 2.257-.035 3.44-1.3 3.547-3.763v-.054.054z"/></g><defs><path id="z" d="M1045.936 830.812l-17.79-8.222-53.22-24.666c-5.93-2.744-11.86-4.102-17.79-8.222-5.913-4.11-11.827-12.333-17.74-16.444s-11.827-4.11-17.74-8.222-11.827-12.335-17.74-16.444c-5.93-4.12-11.86-5.478-17.79-8.222l-17.74-8.222c-5.914-2.74-11.827-8.222-17.74-8.222h-53.27c-5.913 0-11.827-8.222-17.74-8.222h-17.74c-5.93 0-11.86-5.478-17.79-8.222l-17.74-8.222c-5.914-2.74-11.827-8.222-17.74-8.222h-88.75c-5.93 0-11.86-8.222-17.79-8.222h-71c-5.914 0-11.827-8.222-17.74-8.222s-11.827 5.48-17.74 8.222l-17.74 8.222c-5.93 2.744-11.86 8.222-17.79 8.222h-17.74c-5.914 0-11.827 8.222-17.74 8.222h-17.74c-5.93 0-11.86-8.222-17.79-8.222h-17.74c-5.913 0-11.827-8.222-17.74-8.222h-17.74c-5.93 0-11.86-17.81-17.79-24.666-5.914-6.84-11.827-9.592-17.74-16.444s-11.827-17.814-17.74-24.666-11.827-9.605-17.74-16.444c-5.93-6.857-11.86-13.68-17.79-24.666-5.913-10.955-11.827-28.777-17.74-41.1s-11.827-20.555-17.74-32.888-11.827-27.425-17.74-41.1l-17.79-41.1c-5.913-13.685-11.827-28.777-17.74-41.1s-11.827-20.555-17.74-32.888-11.827-28.8-17.74-41.1c-5.93-12.354-11.86-21.9-17.79-32.888-5.913-10.948-11.827-20.555-17.74-32.888s-11.827-41.1-17.74-41.1-11.827 10.97-17.74 16.444L34 238.83v699.537h1011.936V830.812z"/></defs><clipPath id="AA"><use xlink:href="#z"/></clipPath><g class="Y Z a b c d"><path d="M34 938.368h1"/><path d="M41.02 938.368H1041.4" class="f"/><path d="M1044.42 938.368h1"/></g><g class="Y Z a b c d"><path d="M34 857.636l1-.003"/><path d="M41.022 857.615l1000.387-2.942" stroke-dasharray="2.0068,6.02041"/><path d="M1044.418 854.664l1-.003"/></g><g class="Y Z a b c d"><path d="M34 773.93h1"/><path d="M41.02 773.93H1041.4" class="f"/><path d="M1044.42 773.93h1"/></g><g class="Y Z a b c d"><path d="M34 691.71h1"/><path d="M41.02 691.71H1041.4" class="f"/><path d="M1044.42 691.71h1"/></g><g class="Y Z a b c d"><path d="M34 609.5h1"/><path d="M41.02 609.5H1041.4" class="f"/><path d="M1044.42 609.5h1"/></g><g class="Y Z a b c d"><path d="M34 527.27h1"/><path d="M41.02 527.27H1041.4" class="f"/><path d="M1044.42 527.27h1"/></g><g class="Y Z a b c d"><path d="M34 445.05h1"/><path d="M41.02 445.05H1041.4" class="f"/><path d="M1044.42 445.05h1"/></g><g class="Y Z a b c d"><path d="M34 362.83h1"/><path d="M41.02 362.83H1041.4" class="f"/><path d="M1044.42 362.83h1"/></g><g class="Y Z a b c d"><path d="M34 280.61h1"/><path d="M40.977 280.61H970.42" stroke-dasharray="1.99238,5.97713"/><path d="M973.41 280.61h1"/></g><g class="Y Z a b c d"><path d="M34.516 938.368h1"/><path d="M41.536 938.368h1000.39" class="f"/><path d="M1044.936 938.368h1"/></g><linearGradient id="AB" gradientUnits="userSpaceOnUse" x1="31.963" y1="518.24" x2="1047.194" y2="518.24"><stop offset="0" stop-color="#f64f59"/><stop offset=".063" stop-color="#f35162"/><stop offset=".168" stop-color="#eb577b"/><stop offset=".301" stop-color="#dd60a4"/><stop offset=".455" stop-color="#ca6ddb"/><stop offset=".5" stop-color="#c471ed"/><stop offset=".599" stop-color="#a67fec"/><stop offset=".813" stop-color="#59a1eb"/><stop offset="1" stop-color="#12c2e9"/></linearGradient><path d="M1044.678 833.535l-17.79-8.223-53.222-24.666-5.762-2.364c-4.05-1.557-8.234-3.167-12.48-6.116-3.204-2.227-6.316-5.472-9.326-8.61-2.805-2.925-5.704-5.95-8.414-7.833-2.62-1.82-5.303-2.753-8.144-3.74-3.1-1.077-6.303-2.19-9.598-4.482-3.202-2.225-6.312-5.47-9.32-8.605-2.806-2.927-5.708-5.953-8.42-7.837-3.65-2.537-7.32-3.95-11.206-5.443-1.995-.768-4.06-1.562-6.132-2.52l-17.74-8.223c-2.135-.99-4.217-2.275-6.23-3.52-3.682-2.275-7.158-4.424-10.248-4.424h-53.27c-3.896 0-7.296-2.363-10.583-4.648-2.527-1.757-5.14-3.574-7.157-3.574h-17.74c-4.806 0-9.195-2.705-13.44-5.32-1.952-1.203-3.796-2.34-5.607-3.178l-17.743-8.223c-2.134-.988-4.216-2.275-6.23-3.52-3.682-2.274-7.16-4.424-10.25-4.424h-88.75c-3.903 0-7.3-2.362-10.604-4.646-2.536-1.76-5.16-3.577-7.186-3.577h-71c-3.897 0-7.296-2.362-10.583-4.647-2.527-1.757-5.142-3.574-7.158-3.574-3.1 0-6.567 2.15-10.25 4.424-2.013 1.244-4.095 2.53-6.23 3.52l-17.74 8.224c-1.812.84-3.656 1.975-5.608 3.178-4.246 2.616-8.636 5.32-13.44 5.32h-17.74c-2.017 0-4.63 1.817-7.158 3.574-3.287 2.285-6.686 4.647-10.583 4.647h-17.74c-3.903 0-7.3-2.36-10.604-4.646-2.536-1.758-5.16-3.576-7.186-3.576h-17.74c-3.897 0-7.296-2.363-10.583-4.647-2.527-1.758-5.142-3.574-7.157-3.574h-17.74c-5.465 0-9.262-7.06-13.657-15.236-2.144-3.985-4.36-8.106-6.4-10.468-2.778-3.214-5.547-5.46-8.478-7.84-3.014-2.445-6.13-4.975-9.265-8.607-3.08-3.57-6.14-8.177-9.098-12.634-2.856-4.302-5.8-8.75-8.643-12.032-2.787-3.23-5.563-5.482-8.504-7.87-3.003-2.437-6.11-4.958-9.234-8.572l-.145-.167c-5.89-6.8-11.978-13.852-18.015-25.036-3.368-6.24-6.742-14.666-10.005-22.816-2.565-6.407-5.218-13.032-7.802-18.422-2.908-6.064-5.886-11.24-8.766-16.245-2.935-5.1-5.97-10.375-8.975-16.643-3.95-8.24-7.948-17.812-11.814-27.07l-5.975-14.146-17.79-41.11-6.014-14.237c-3.834-9.18-7.798-18.672-11.678-26.765-2.908-6.064-5.886-11.24-8.766-16.244-2.936-5.1-5.97-10.375-8.976-16.644-2.988-6.232-6.006-13.576-8.924-20.678-2.896-7.05-5.89-14.338-8.815-20.432-3.9-8.102-7.862-15.136-11.704-21.938l-6.02-10.82-5.824-10.49c-3.92-6.967-7.976-14.17-11.98-22.525-2.238-4.667-4.457-11.537-6.602-18.18-2.366-7.327-6.295-19.492-8.683-21.212-2.51.296-6.23 4.893-9.237 8.61-2.008 2.48-4.084 5.047-6.217 7.02l-17.79 16.446-4.072-4.408 17.787-16.44c1.816-1.68 3.754-4.076 5.628-6.393 4.516-5.58 8.78-10.85 14.15-10.85 5.682 0 8.757 8.703 14.143 25.383 2.084 6.453 4.24 13.127 6.303 17.43 3.92 8.178 7.927 15.294 11.8 22.176l11.84 21.306c3.89 6.888 7.914 14.01 11.89 22.293 3 6.25 6.028 13.62 8.957 20.747 2.886 7.023 5.87 14.286 8.784 20.364 2.908 6.064 5.886 11.24 8.766 16.244 2.936 5.1 5.97 10.375 8.976 16.644 3.947 8.232 7.94 17.796 11.804 27.046l5.985 14.17 17.79 41.1 6.004 14.215c3.837 9.188 7.804 18.688 11.688 26.788 2.908 6.064 5.886 11.24 8.765 16.243 2.936 5.102 5.97 10.376 8.976 16.645 2.67 5.568 5.36 12.288 7.962 18.786 3.2 7.993 6.51 16.26 9.714 22.196 5.726 10.606 11.335 17.094 17.273 23.96l.146.168c2.778 3.213 5.546 5.46 8.477 7.838 3.014 2.445 6.13 4.975 9.265 8.607 3.08 3.57 6.14 8.177 9.1 12.634 2.856 4.302 5.8 8.75 8.643 12.032 2.787 3.23 5.563 5.482 8.503 7.87 3.004 2.438 6.1 4.96 9.235 8.573 2.474 2.86 4.85 7.278 7.146 11.55 2.095 3.896 6.454 12.002 8.374 12.077h17.74c3.896 0 7.295 2.362 10.582 4.647 2.527 1.757 5.142 3.574 7.158 3.574h17.74c3.903 0 7.3 2.36 10.604 4.646 2.536 1.758 5.16 3.576 7.186 3.576h17.74c2.017 0 4.63-1.817 7.158-3.574 3.287-2.285 6.686-4.647 10.583-4.647h17.74c3.105 0 6.597-2.15 10.293-4.43 2.016-1.242 4.1-2.526 6.236-3.515l17.738-8.222c1.81-.838 3.65-1.976 5.6-3.18 4.232-2.616 8.61-5.32 13.403-5.32 3.897 0 7.296 2.362 10.583 4.647 2.527 1.757 5.142 3.574 7.158 3.574h71c3.903 0 7.3 2.362 10.604 4.646 2.536 1.758 5.16 3.576 7.186 3.576h88.75c4.795 0 9.172 2.704 13.404 5.32 1.948 1.204 3.79 2.342 5.598 3.18l17.74 8.22c2.136.988 4.22 2.272 6.236 3.515 3.696 2.278 7.188 4.43 10.293 4.43h17.74c3.896 0 7.296 2.363 10.583 4.648 2.527 1.757 5.14 3.574 7.157 3.574h53.27c4.794 0 9.17 2.704 13.402 5.32 1.95 1.204 3.8 2.342 5.6 3.18l17.738 8.22c1.893.876 3.773 1.6 5.765 2.365 4.048 1.558 8.232 3.167 12.477 6.116 3.204 2.226 6.316 5.473 9.327 8.61 2.805 2.925 5.704 5.95 8.413 7.833 2.62 1.82 5.303 2.753 8.144 3.74 3.1 1.077 6.303 2.19 9.598 4.482 3.202 2.226 6.313 5.47 9.32 8.606 2.806 2.926 5.707 5.952 8.42 7.836 3.65 2.537 7.322 3.95 11.21 5.444 1.994.767 4.057 1.56 6.128 2.52l71.01 32.887-2.516 5.447z" fill="url(#AB)"/><g class="e"><g stroke-width="3"><circle cx="34" cy="238.831" r="7.5" stroke="#d93281"/><circle cx="1045.439" cy="830.812" r="7.5" stroke="#12c2e9"/></g><circle cx="51.789" cy="222.387" r="10.588" class="g"/><circle cx="282.605" cy="626.694" r="9.375" class="g"/><circle cx="442.423" cy="699.346" r="9.375" class="g"/><circle cx="762.059" cy="716.286" r="9.375" class="g"/><use xlink:href="#C" class="X"/><path d="M133.627 200.628c.064.432.164.78.3 1.044s.3.468.467.612a1.42 1.42 0 0 0 .553.287c.2.05.375.072.552.072.77 0 1.376-.552 1.824-1.656s.688-2.863.72-5.28c-.352.368-.756.68-1.212.936a2.92 2.92 0 0 1-1.452.384 3.65 3.65 0 0 1-1.392-.275c-.45-.183-.845-.488-1.188-.912s-.62-.972-.828-1.645-.312-1.503-.312-2.495c0-1.696.332-3.024.996-3.984s1.57-1.44 2.724-1.44c.752 0 1.404.124 1.956.372s1.012.672 1.38 1.272.645 1.416.828 2.448.276 2.324.276 3.876c0 1.744-.1 3.236-.3 4.476s-.488 2.256-.864 3.048-.832 1.376-1.368 1.752a3.12 3.12 0 0 1-1.836.564c-.56 0-1.036-.08-1.428-.24a2.62 2.62 0 0 1-.984-.684c-.264-.296-.477-.648-.636-1.057a6.61 6.61 0 0 1-.36-1.38l1.584-.096zm4.465-8.16c0-.88-.057-1.62-.168-2.22s-.273-1.088-.48-1.464-.465-.648-.768-.816-.648-.252-1.033-.252a2.09 2.09 0 0 0-.924.204c-.28.136-.516.36-.707.672s-.345.724-.457 1.236-.168 1.144-.168 1.896c0 .77.06 1.404.18 1.908s.28.9.48 1.188.432.488.696.6a2.04 2.04 0 0 0 .804.168 2.47 2.47 0 0 0 1.477-.456 4.89 4.89 0 0 0 1.068-1.032v-1.632zm9.538-2.736c-.064-.432-.164-.78-.3-1.044s-.292-.468-.468-.6a1.4 1.4 0 0 0-.564-.288c-.2-.048-.38-.072-.54-.072-.77 0-1.38.552-1.836 1.656s-.692 2.864-.708 5.28a5.17 5.17 0 0 1 1.212-.936 2.92 2.92 0 0 1 1.452-.384 3.66 3.66 0 0 1 1.393.275c.45.183.844.488 1.188.912s.62.977.828 1.656.313 1.508.313 2.484c0 1.695-.333 3.023-.996 3.983s-1.572 1.44-2.725 1.44c-.752 0-1.404-.124-1.956-.372s-1.013-.672-1.38-1.272-.645-1.4-.828-2.436-.275-2.32-.275-3.888c0-1.744.1-3.236.3-4.477s.488-2.256.865-3.048.83-1.376 1.367-1.752a3.12 3.12 0 0 1 1.836-.564c.56 0 1.036.08 1.428.24a2.64 2.64 0 0 1 .984.685c.264.295.477.65.637 1.067a6.9 6.9 0 0 1 .359 1.368l-1.584.096zm-4.464 8.16c0 .88.056 1.62.168 2.22s.272 1.1.48 1.465.465.647.77.815.647.252 1.032.252c.336 0 .644-.067.924-.204s.516-.36.708-.672.344-.724.456-1.235.168-1.145.168-1.896c0-.768-.06-1.404-.18-1.908s-.28-.9-.48-1.187-.432-.488-.695-.6a2.06 2.06 0 0 0-.805-.168 2.47 2.47 0 0 0-1.477.456c-.424.304-.78.648-1.067 1.032v1.632z" class="X"/><use xlink:href="#C" x="27.35" class="X"/><path d="M126.973 231.444H124.1c-.675 0-1.05-.524-1.05-1.05 0-.575.375-1.074 1.05-1.074h.375v-13.547h-.375c-.675 0-1.05-.525-1.05-1.05 0-.575.375-1.075 1.05-1.075h2.874c.726 0 1.1.5 1.1 1.075 0 .524-.374 1.05-1.1 1.05h-.375v13.547h.375c.726 0 1.1.5 1.1 1.074 0 .525-.374 1.05-1.1 1.05z"/><use xlink:href="#D"/><use xlink:href="#E"/><use xlink:href="#F"/><path d="M161.182 231.868c-4.024 0-6.273-3.3-6.273-7.073 0-3.75 2.25-7.048 6.273-7.048s6.273 3.3 6.273 7.048c0 3.774-2.25 7.073-6.273 7.073zm0-11.997c-2.5 0-4.124 1.95-4.124 4.924 0 3 1.625 4.95 4.124 4.95 2.524 0 4.124-1.95 4.124-4.95 0-2.975-1.6-4.924-4.124-4.924zm18.763 11.547c-.55 0-1.074-.35-1.074-1.05 0 0-1.475 1.5-4.124 1.5-4.024 0-6.273-3.3-6.273-7.073 0-3.75 2.25-7.048 6.273-7.048 1.75 0 3.15.6 4.124 1.624v-4.648c0-.725.525-1.075 1.074-1.075s1.075.35 1.075 1.05v15.67c0 .7-.524 1.05-1.075 1.05zm-5.198-11.547c-2.5 0-4.124 1.95-4.124 4.924 0 3 1.625 4.95 4.124 4.95 2.524 0 4.124-1.95 4.124-4.95 0-2.975-1.6-4.924-4.124-4.924zm18.698 11.6c-.475 0-.95-.275-1.05-.825-1 .774-2.225 1.25-3.6 1.25a5.75 5.75 0 0 1-5.699-5.699v-6.923c0-.7.525-1.075 1.05-1.075.574 0 1.1.375 1.1 1.05v6.948c0 1.95 1.625 3.574 3.55 3.574a3.61 3.61 0 0 0 3.574-3.574v-6.923c0-.775.5-1.1 1.05-1.1.575 0 1.075.375 1.075 1.074v11.173c0 .7-.5 1.05-1.05 1.05z"/><use xlink:href="#G"/><use xlink:href="#H"/><use xlink:href="#I"/><use xlink:href="#J"/><use xlink:href="#K"/><path d="M257.132 231.868c-4.023 0-6.273-3.3-6.273-7.073 0-3.75 2.25-7.048 6.273-7.048s6.273 3.3 6.273 7.048c0 3.774-2.25 7.073-6.273 7.073zm0-11.997c-2.5 0-4.124 1.95-4.124 4.924 0 3 1.624 4.95 4.124 4.95 2.524 0 4.124-1.95 4.124-4.95 0-2.975-1.6-4.924-4.124-4.924zm11.665.425h-1.125v10.072c0 .7-.524 1.05-1.1 1.05-.524 0-1.05-.35-1.05-1.05v-10.072h-1.025c-.674 0-1.05-.5-1.05-1.05 0-.574.375-1.074 1.05-1.074h1.025v-1.7c0-1.6 1.324-2.824 2.875-2.824.725 0 1.1.5 1.1 1.075 0 .524-.375 1.05-1.1 1.05-.426 0-.726.324-.726.675v1.725h1.125c.725 0 1.1.5 1.1 1.074 0 .55-.375 1.05-1.1 1.05z"/><use xlink:href="#L"/><path d="M143.217 247.472c-1.925 0-3.55 1.625-3.55 3.574v6.923c0 .7-.524 1.075-1.1 1.075-.524 0-1.05-.375-1.05-1.05v-11.147c0-.7.574-1.074 1.05-1.074.5 0 .975.274 1.075.85a5.78 5.78 0 0 1 3.574-1.274c.725 0 1.1.5 1.1 1.074 0 .55-.375 1.05-1.1 1.05z"/><use xlink:href="#M"/><path d="M161.093 259.094c-1.35 0-2.5-1.15-2.5-2.55v-14.222c0-.725.525-1.075 1.074-1.075s1.075.35 1.075 1.05v14.247c0 .3.226.425.35.425.7 0 1.074.5 1.074 1.074 0 .55-.375 1.05-1.074 1.05zm17.147-1.524c-1.1 1.225-2.623 1.9-4.473 1.9-4.024 0-6.273-3.3-6.273-7.073 0-3.75 2.25-7.048 6.273-7.048 1.85 0 3.373.675 4.473 1.9.2.225.3.475.3.725 0 .55-.55 1.075-1.125 1.075-.225 0-.5-.1-.775-.35-.7-.774-1.624-1.225-2.873-1.225-2.5 0-4.125 1.95-4.125 4.924 0 3 1.625 4.95 4.125 4.95 1.25 0 2.2-.476 2.873-1.225a1 1 0 0 1 .775-.375c.575 0 1.125.5 1.125 1.1a1.14 1.14 0 0 1-.3.725z"/><use xlink:href="#J" x="-39.877" y="27.602"/><use xlink:href="#K" x="-39.877" y="27.6"/><path d="M210.624 259.044h-.425c-2.375 0-3.274-1.25-3.274-3.3v-7.85h-.75c-.6 0-1.075-.475-1.075-1.05 0-.6.476-1.074 1.05-1.074h.75v-3.475c0-.7.524-1.05 1.074-1.05s1.05.35 1.05 1.05v3.475h1.6c.7 0 1.05.574 1.05 1.05 0 .6-.4 1.074-1.05 1.074h-1.6v8.073c0 .7.25.95.95.95h.625a1.03 1.03 0 0 1 1.074 1.05c0 .6-.4 1.075-1.05 1.075zm7.666-11.572c-1.925 0-3.55 1.625-3.55 3.574v6.923c0 .7-.525 1.075-1.1 1.075-.525 0-1.05-.375-1.05-1.05v-11.147c0-.7.575-1.074 1.05-1.074.5 0 .975.274 1.074.85a5.78 5.78 0 0 1 3.574-1.274c.725 0 1.1.5 1.1 1.074 0 .55-.375 1.05-1.1 1.05z"/><use xlink:href="#N"/><path d="M243.822 257.57c-1.1 1.225-2.625 1.9-4.475 1.9-4.023 0-6.273-3.3-6.273-7.073 0-3.75 2.25-7.048 6.273-7.048 1.85 0 3.375.675 4.475 1.9.2.225.3.475.3.725 0 .55-.55 1.075-1.125 1.075-.225 0-.5-.1-.774-.35-.7-.774-1.625-1.225-2.875-1.225-2.5 0-4.123 1.95-4.123 4.924 0 3 1.624 4.95 4.123 4.95 1.25 0 2.2-.476 2.875-1.225.225-.275.524-.375.774-.375.575 0 1.125.5 1.125 1.1a1.14 1.14 0 0 1-.3.725zm12.244-4.075h-9.248c.35 2.35 1.85 3.85 4.05 3.85 1.125 0 2.25-.4 2.975-1.3.225-.25.475-.4.775-.4.55 0 1.124.5 1.124 1.1 0 .3-.075.525-.6 1.05-1.125 1.1-2.675 1.675-4.274 1.675-4.023 0-6.273-3.324-6.273-7.073 0-3.724 2.25-7.048 6.273-7.048 4.074 0 6.25 3.324 6.25 7.048 0 .55-.4 1.1-1.05 1.1zm-5.2-6.023c-2.35 0-3.724 1.725-4.05 3.874h8.098c-.35-2.4-1.85-3.874-4.05-3.874zm13.904 11.998c-1.75 0-3.124-.6-4.124-1.65v5.424c0 .7-.524 1.074-1.1 1.074-.524 0-1.05-.375-1.05-1.074v-16.396c0-.7.525-1.074 1.05-1.074.575 0 1.1.375 1.1 1.074 0 0 1.475-1.524 4.124-1.524 4.023 0 6.273 3.3 6.273 7.048 0 3.8-2.25 7.1-6.273 7.1zm0-12.02c-2.475 0-4.124 1.974-4.124 4.923 0 3 1.624 4.975 4.124 4.975s4.124-1.95 4.124-4.95c0-2.975-1.624-4.948-4.124-4.948z"/><use xlink:href="#H" x="63.5" y="27.6"/><use xlink:href="#I" x="63.498" y="27.6"/><use xlink:href="#J" x="63.498" y="27.602"/><use xlink:href="#K" x="63.498" y="27.6"/><use xlink:href="#O" class="X"/><path d="M440.522 732.32c.063.432.164.78.3 1.044s.292.468.468.612.36.24.553.287.375.072.552.072c.768 0 1.376-.552 1.824-1.656s.688-2.863.72-5.28c-.353.368-.756.68-1.212.936a2.92 2.92 0 0 1-1.452.384 3.63 3.63 0 0 1-1.392-.275c-.448-.184-.845-.488-1.188-.912s-.62-.972-.828-1.645-.312-1.503-.312-2.495c0-1.696.332-3.024.996-3.984s1.57-1.44 2.724-1.44c.752 0 1.404.124 1.956.372s1.012.672 1.38 1.272.644 1.416.828 2.448.276 2.324.276 3.876c0 1.744-.1 3.236-.3 4.476s-.488 2.256-.863 3.048-.832 1.376-1.368 1.752a3.12 3.12 0 0 1-1.836.564c-.56 0-1.036-.08-1.43-.24s-.72-.388-.983-.684-.477-.648-.636-1.057a6.61 6.61 0 0 1-.36-1.38l1.584-.096zm4.464-8.16c0-.88-.057-1.62-.168-2.22s-.272-1.088-.48-1.464-.465-.648-.77-.816-.647-.252-1.032-.252a2.09 2.09 0 0 0-.924.204c-.28.136-.516.36-.708.672s-.344.724-.456 1.236-.168 1.144-.168 1.896c0 .77.06 1.404.18 1.908s.28.9.48 1.188.432.488.696.6a2.03 2.03 0 0 0 .804.168c.56 0 1.052-.152 1.476-.456a4.87 4.87 0 0 0 1.068-1.032v-1.632zm11.574 7.006c0 .624-.097 1.216-.288 1.776s-.473 1.048-.84 1.464-.816.748-1.345.996-1.128.372-1.8.372-1.27-.124-1.8-.372-.977-.58-1.344-.996a4.29 4.29 0 0 1-.84-1.464c-.192-.56-.288-1.152-.288-1.776 0-1.07.255-2 .768-2.784s1.184-1.472 2.016-2.063c-.768-.608-1.36-1.248-1.775-1.92s-.624-1.52-.624-2.544a3.99 3.99 0 0 1 .3-1.572 3.72 3.72 0 0 1 .828-1.224 3.78 3.78 0 0 1 1.236-.805c.472-.2.98-.288 1.523-.288a4.02 4.02 0 0 1 1.524.288c.472.192.884.46 1.235.805s.628.752.828 1.224a3.99 3.99 0 0 1 .3 1.572c0 1.023-.208 1.872-.624 2.544s-1.008 1.312-1.775 1.92c.832.592 1.504 1.28 2.016 2.063s.77 1.713.77 2.784zm-1.73.072a3.8 3.8 0 0 0-.204-1.272 4.16 4.16 0 0 0-.552-1.056 5.6 5.6 0 0 0-.804-.888 12.88 12.88 0 0 0-.984-.792l-.983.792c-.305.27-.572.567-.805.888a4.16 4.16 0 0 0-.552 1.056 3.8 3.8 0 0 0-.204 1.272c0 .352.048.712.145 1.08a3.05 3.05 0 0 0 .455.996c.208.296.473.54.792.73s.704.288 1.152.288.832-.096 1.152-.288a2.59 2.59 0 0 0 .792-.73 3.07 3.07 0 0 0 .456-.996 4.28 4.28 0 0 0 .144-1.08zm-.384-9.576a2.65 2.65 0 0 0-.132-.816 2.23 2.23 0 0 0-.396-.73 1.91 1.91 0 0 0-.672-.516c-.272-.128-.592-.192-.96-.192s-.688.064-.96.192a1.89 1.89 0 0 0-.672.516 2.21 2.21 0 0 0-.396.73c-.086.27-.132.545-.132.816 0 .88.196 1.64.588 2.28s.916 1.16 1.572 1.56c.656-.4 1.18-.92 1.572-1.56s.588-1.4.588-2.28zm3.854 0a5.56 5.56 0 0 1 .324-1.44 3.88 3.88 0 0 1 .684-1.177 3.06 3.06 0 0 1 1.056-.792c.416-.192.904-.288 1.464-.288a4.13 4.13 0 0 1 1.416.252 3.44 3.44 0 0 1 1.236.78c.36.35.652.792.876 1.32s.336 1.15.336 1.872c0 1.232-.22 2.188-.66 2.868s-.972 1.084-1.596 1.212v.048c.48.16.884.388 1.212.684a3.62 3.62 0 0 1 .792 1.021c.2.384.34.8.42 1.248s.12.903.12 1.367c0 .896-.12 1.665-.36 2.305s-.556 1.172-.947 1.596a3.66 3.66 0 0 1-1.345.937 4.22 4.22 0 0 1-1.57.3c-.576 0-1.1-.108-1.572-.324a3.6 3.6 0 0 1-1.224-.912c-.345-.392-.612-.855-.805-1.392a5.14 5.14 0 0 1-.288-1.74h1.584c.08.944.324 1.668.732 2.172s.996.756 1.764.756a1.7 1.7 0 0 0 .841-.228c.27-.152.516-.38.73-.685s.392-.684.528-1.14.204-.98.204-1.572c0-.72-.076-1.315-.23-1.788s-.388-.848-.708-1.128-.73-.476-1.224-.588-1.1-.168-1.776-.168v-1.44c.64 0 1.192-.05 1.656-.145s.844-.264 1.14-.504.512-.576.648-1.008.204-.984.204-1.656c0-1.04-.185-1.78-.553-2.22a1.81 1.81 0 0 0-1.464-.66c-.368 0-.68.072-.936.216a1.96 1.96 0 0 0-.636.564 2.24 2.24 0 0 0-.36.779 4.67 4.67 0 0 0-.132.89l-1.584-.192z" class="X"/><path d="M442.292 763.134h-10.397c-.6 0-1.1-.475-1.1-1.05v-15.67c0-.6.5-1.075 1.1-1.075h10.397c.65 0 1.05.476 1.05 1.05 0 .525-.375 1.075-1.05 1.075h-9.348v5.05h6.548c.625 0 1.075.5 1.075 1.074a1.05 1.05 0 0 1-1.075 1.075h-6.548V761h9.348c.675 0 1.05.524 1.05 1.074 0 .575-.4 1.05-1.05 1.05zm18.32 0c-.525 0-1.05-.375-1.05-1.05v-7.873c0-1.45-1.2-2.65-2.624-2.65-1.475 0-2.65 1.2-2.65 2.624v7.873c0 .7-.5 1.075-1.075 1.075-.55 0-1.05-.375-1.05-1.05V754.2a2.67 2.67 0 0 0-2.649-2.649c-1.45 0-2.65 1.2-2.65 2.624v7.873c0 .7-.524 1.075-1.1 1.075-.524 0-1.05-.375-1.05-1.05V750.91c0-.726.55-1.075 1.1-1.075.35 0 .7.15.9.475.774-.55 1.75-.874 2.774-.874 1.5 0 2.85.675 3.724 1.774a4.68 4.68 0 0 1 3.699-1.774c2.65 0 4.8 2.124 4.8 4.748v7.873c0 .7-.524 1.075-1.1 1.075z"/><use xlink:href="#P"/><use xlink:href="#Q"/><path d="M489.55 768.832c-1.525 0-5.3-.55-5.3-2.05 0-.575.524-1.125 1.074-1.125.575 0 .075.075 1.4.575.6.225 1.5.475 2.824.475 2.774 0 4.124-1.325 4.124-3.95v-1.125c-.976.925-2.375 1.5-4.124 1.5-3.95 0-6.273-2.8-6.273-6.648 0-3.75 2.25-7.048 6.273-7.048 1.75 0 3.1.524 4.124 1.6v-.1c0-.7.574-1.074 1.074-1.074.525 0 1.075.375 1.075 1.074v11.822c0 3.975-2.375 6.073-6.273 6.073zm0-17.27c-2.5 0-4.124 1.95-4.124 4.924 0 2.85 1.5 4.524 4.124 4.524s4.124-1.675 4.124-4.524c0-2.975-1.6-4.924-4.124-4.924z"/><use xlink:href="#P" x="34.247"/><use xlink:href="#R"/><path d="M534.96 761.66c-1.1 1.225-2.624 1.9-4.474 1.9-4.024 0-6.273-3.3-6.273-7.073 0-3.75 2.25-7.048 6.273-7.048 1.85 0 3.374.675 4.474 1.9.2.225.3.475.3.725 0 .55-.55 1.074-1.125 1.074-.225 0-.5-.1-.774-.35-.7-.774-1.625-1.225-2.874-1.225-2.5 0-4.124 1.95-4.124 4.924 0 3 1.624 4.95 4.124 4.95 1.25 0 2.2-.476 2.874-1.225.225-.275.524-.375.774-.375.575 0 1.125.5 1.125 1.1a1.14 1.14 0 0 1-.3.725zm12.848-10.298l-6.748 15.347c-.5 1.15-1.6 1.675-2.75 1.675h-.8c-.725 0-1.05-.525-1.05-1.1 0-.525.325-1.05 1.05-1.05h.775c.324 0 .675-.05.824-.4l1.65-3.7-4.873-10.772a.9.9 0 0 1-.125-.475c0-.625.6-1.05 1.15-1.05.375 0 .7.2.9.65l4.074 9.047 3.975-9.047c.2-.45.574-.625.925-.625.574 0 1.15.425 1.15 1.024a.85.85 0 0 1-.125.475z"/><use xlink:href="#S"/><use xlink:href="#T"/><path d="M466.256 790.735c-.55 0-1.05-.375-1.05-1.05v-6.948a3.61 3.61 0 0 0-3.574-3.574c-1.925 0-3.55 1.625-3.55 3.574v6.923a1.06 1.06 0 0 1-1.1 1.101c-.524 0-1.05-.375-1.05-1.075v-11.172c0-.726.525-1.05 1.05-1.05.5 0 .95.274 1.075.824.975-.774 2.2-1.25 3.574-1.25 3.1 0 5.698 2.574 5.698 5.698v6.923c0 .7-.5 1.075-1.074 1.075z"/><use xlink:href="#U"/><use xlink:href="#V"/><use xlink:href="#W"/><use xlink:href="#S" x="65.581"/><use xlink:href="#P" x="44.096" y="27.601"/><path d="M527.496 791.16c-1.75 0-3.124-.6-4.124-1.65v5.424c0 .7-.524 1.074-1.1 1.074-.524 0-1.05-.375-1.05-1.074v-16.396c0-.7.525-1.074 1.05-1.074.575 0 1.1.375 1.1 1.074 0 0 1.475-1.524 4.124-1.524 4.024 0 6.273 3.3 6.273 7.048 0 3.8-2.25 7.1-6.273 7.1zm0-12.02c-2.474 0-4.124 1.974-4.124 4.923 0 3 1.625 4.975 4.124 4.975s4.124-1.95 4.124-4.95c0-2.975-1.624-4.948-4.124-4.948z"/><use xlink:href="#X"/><use xlink:href="#Y"/><use xlink:href="#Z"/><use xlink:href="#R" x="47.934" y="27.601"/><use xlink:href="#W" x="-51.236" y="27.599"/><path d="M455.22 806.537l-4.55 10.947c-.225.574-.6.85-1.074.85-.425 0-.825-.275-1.075-.85l-4.55-10.947a1.54 1.54 0 0 1-.074-.45c0-.6.55-1.024 1.1-1.024.375 0 .75.2.95.65l3.65 8.748 3.65-8.748c.175-.475.624-.675.975-.675.574 0 1.1.4 1.1 1.024a1.26 1.26 0 0 1-.1.476z"/><use xlink:href="#a"/><use xlink:href="#b"/><use xlink:href="#c"/><use xlink:href="#a" x="23.275"/><path d="M499.98 818.76c-2.674 0-4.1-1.475-4.124-1.5 0 .7-.524 1.05-1.1 1.05-.524 0-1.05-.35-1.05-1.05v-15.646c0-.725.525-1.075 1.05-1.075.575 0 1.1.35 1.1 1.05v4.674c1-1.024 2.375-1.624 4.124-1.624 4.024 0 6.273 3.3 6.273 7.048 0 3.774-2.25 7.073-6.273 7.073zm0-11.997c-2.5 0-4.124 1.95-4.124 4.924 0 3 1.625 4.95 4.124 4.95s4.124-1.95 4.124-4.95c0-2.975-1.624-4.924-4.124-4.924z"/><use xlink:href="#c" x="33.043"/><use xlink:href="#P" x="48.448" y="55.2"/><path d="M747.32 753.105v-1.44c.256-.848.592-1.644 1.008-2.388l1.32-2.112 1.416-1.92 1.296-1.823c.384-.6.696-1.204.936-1.812a5.11 5.11 0 0 0 .36-1.896c0-.912-.2-1.597-.6-2.053a1.9 1.9 0 0 0-1.488-.684c-.688 0-1.26.284-1.716.852s-.725 1.5-.805 2.796h-1.584c.05-.976.188-1.79.42-2.447s.532-1.18.9-1.572.784-.668 1.248-.828.96-.24 1.488-.24c1.136 0 2.063.377 2.784 1.128s1.08 1.85 1.08 3.288c0 .72-.1 1.368-.3 1.944s-.468 1.132-.804 1.668-.725 1.068-1.164 1.596l-1.38 1.74-1.452 2.1c-.488.768-.948 1.655-1.38 2.663h6.576v1.44h-8.16z" class="X"/><use xlink:href="#d" class="X"/><use xlink:href="#d" x="9.878" class="X"/><use xlink:href="#O" x="345.772" y="17.571" class="X"/><path d="M759.938 780.704H749.54c-.6 0-1.1-.475-1.1-1.05v-15.67c0-.6.5-1.075 1.1-1.075h10.397c.65 0 1.05.476 1.05 1.05 0 .525-.375 1.075-1.05 1.075H750.6v5.05h6.55c.625 0 1.074.5 1.074 1.074a1.05 1.05 0 0 1-1.074 1.075h-6.55v6.35h9.348c.675 0 1.05.524 1.05 1.074 0 .575-.4 1.05-1.05 1.05zm18.322 0c-.524 0-1.05-.375-1.05-1.05v-7.873c0-1.45-1.2-2.65-2.624-2.65-1.475 0-2.65 1.2-2.65 2.624v7.873c0 .7-.5 1.075-1.074 1.075-.55 0-1.05-.375-1.05-1.05v-7.873a2.67 2.67 0 0 0-2.649-2.649c-1.45 0-2.65 1.2-2.65 2.624v7.873c0 .7-.525 1.075-1.1 1.075-.525 0-1.05-.375-1.05-1.05V768.48c0-.726.55-1.075 1.1-1.075.35 0 .7.15.9.475.775-.55 1.75-.874 2.774-.874 1.5 0 2.85.675 3.725 1.774a4.68 4.68 0 0 1 3.699-1.774c2.648 0 4.8 2.124 4.8 4.748v7.873c0 .7-.525 1.075-1.1 1.075z"/><use xlink:href="#e"/><use xlink:href="#V" x="319.455" y="-10.03"/><path d="M807.197 786.403c-1.524 0-5.3-.55-5.3-2.05 0-.575.525-1.125 1.075-1.125.574 0 .075.075 1.4.575.6.225 1.5.475 2.824.475 2.774 0 4.124-1.325 4.124-3.95v-1.125c-.975.925-2.374 1.5-4.124 1.5-3.95 0-6.273-2.8-6.273-6.648 0-3.75 2.25-7.048 6.273-7.048 1.75 0 3.1.524 4.124 1.6v-.1c0-.7.575-1.074 1.075-1.074.524 0 1.074.375 1.074 1.074v11.822c0 3.975-2.374 6.073-6.273 6.073zm0-17.27c-2.5 0-4.124 1.95-4.124 4.924 0 2.85 1.5 4.524 4.124 4.524s4.124-1.675 4.124-4.524c0-2.975-1.6-4.924-4.124-4.924z"/><use xlink:href="#e" x="34.257"/><use xlink:href="#f"/><use xlink:href="#g"/><path d="M865.455 768.932l-6.748 15.347c-.5 1.15-1.6 1.675-2.75 1.675h-.8c-.725 0-1.05-.525-1.05-1.1 0-.525.325-1.05 1.05-1.05h.774c.325 0 .675-.05.825-.4l1.65-3.7-4.874-10.772c-.1-.175-.125-.324-.125-.475 0-.625.6-1.05 1.15-1.05.375 0 .7.2.9.65l4.074 9.047 3.974-9.047c.2-.45.575-.625.925-.625.575 0 1.15.425 1.15 1.024a.84.84 0 0 1-.125.475z"/><use xlink:href="#h"/><use xlink:href="#Z" x="214.272" y="17.57"/><use xlink:href="#R" x="262.207" y="45.171"/><use xlink:href="#X" x="251.591" y="17.57"/><use xlink:href="#Q" x="315.839" y="45.171"/><use xlink:href="#a" x="343.737" y="-10.029"/><use xlink:href="#h" x="65.581"/><use xlink:href="#e" x="44.097" y="27.6"/><path d="M845.143 808.73c-1.75 0-3.124-.6-4.124-1.65v5.424c0 .7-.525 1.074-1.1 1.074-.525 0-1.05-.375-1.05-1.074v-16.396c0-.7.524-1.074 1.05-1.074.574 0 1.1.375 1.1 1.074 0 0 1.475-1.524 4.124-1.524 4.023 0 6.273 3.3 6.273 7.048 0 3.8-2.25 7.1-6.273 7.1zm0-12.02c-2.475 0-4.124 1.974-4.124 4.923 0 3 1.624 4.975 4.124 4.975s4.124-1.95 4.124-4.95c0-2.975-1.625-4.948-4.124-4.948z"/><use xlink:href="#U" x="383.703" y="17.57"/><use xlink:href="#b" x="388.6" y="-10.028"/><use xlink:href="#T" x="421.023" y="17.57"/><use xlink:href="#f" x="47.936" y="27.601"/><use xlink:href="#a" x="292.5" y="17.571"/><use xlink:href="#i"/><use xlink:href="#j"/><use xlink:href="#Y" x="246.693" y="45.17"/><use xlink:href="#k"/><use xlink:href="#j" x="23.284"/><path d="M817.63 836.33c-2.675 0-4.1-1.475-4.124-1.5 0 .7-.525 1.05-1.1 1.05-.525 0-1.05-.35-1.05-1.05v-15.646c0-.725.524-1.075 1.05-1.075.574 0 1.1.35 1.1 1.05v4.674c1-1.024 2.374-1.624 4.124-1.624 4.023 0 6.273 3.3 6.273 7.048 0 3.774-2.25 7.073-6.273 7.073zm0-11.997c-2.5 0-4.124 1.95-4.124 4.924 0 3 1.624 4.95 4.124 4.95s4.124-1.95 4.124-4.95c0-2.975-1.625-4.924-4.124-4.924z"/><use xlink:href="#k" x="33.032"/><use xlink:href="#e" x="48.449" y="55.2"/><use xlink:href="#Z" x="202.752" y="72.77"/><use xlink:href="#i" x="-1.046" y="27.6"/><use xlink:href="#P" x="308.743" y="100.371"/><use xlink:href="#Q" x="308.745" y="100.371"/><use xlink:href="#U" x="328.62" y="72.77"/><path d="M814.26 863.505c-.55 0-1.05-.375-1.05-1.05v-6.948a3.61 3.61 0 0 0-3.574-3.574c-1.925 0-3.55 1.625-3.55 3.574v6.923a1.06 1.06 0 0 1-1.1 1.101 1.03 1.03 0 0 1-1.05-1.075v-15.67c0-.725.525-1.075 1.05-1.075.575 0 1.1.35 1.1 1.05v4.324c.925-.875 2.175-1.274 3.55-1.274 3.1 0 5.698 2.574 5.698 5.698v6.923c0 .7-.5 1.075-1.075 1.075zm13.987-5.55H819c.35 2.35 1.85 3.85 4.05 3.85 1.124 0 2.25-.4 2.974-1.3.226-.25.476-.4.775-.4.55 0 1.124.5 1.124 1.1 0 .3-.074.525-.6 1.05-1.125 1.1-2.674 1.675-4.273 1.675-4.024 0-6.273-3.324-6.273-7.073 0-3.724 2.25-7.048 6.273-7.048 4.073 0 6.248 3.324 6.248 7.048 0 .55-.4 1.1-1.05 1.1zm-5.198-6.023c-2.35 0-3.725 1.725-4.05 3.874h8.1c-.35-2.4-1.85-3.874-4.05-3.874z"/><use xlink:href="#g" x="-6.808" y="82.8"/><use xlink:href="#T" x="404.83" y="72.77"/><path d="M870.87 863.53c-.476 0-.95-.275-1.05-.825-1 .774-2.225 1.25-3.6 1.25-3.1 0-5.698-2.574-5.698-5.7v-6.923c0-.7.524-1.075 1.05-1.075.575 0 1.1.375 1.1 1.05v6.948c0 1.95 1.625 3.574 3.55 3.574a3.61 3.61 0 0 0 3.574-3.574v-6.923c0-.775.5-1.1 1.05-1.1.575 0 1.075.375 1.075 1.074v11.173c0 .7-.5 1.05-1.05 1.05z"/><use xlink:href="#f" x="45.141" y="82.801"/><use xlink:href="#U" x="418.228" y="72.77"/><use xlink:href="#P" x="429.406" y="100.371"/><use xlink:href="#V" x="431.215" y="72.771"/><path d="M227.17 636.164v-1.44h2.1v-13.92l-2.16.192v-1.056a8.24 8.24 0 0 0 1.44-.517 5.85 5.85 0 0 0 1.296-.828h1.152v16.128h2.016v1.44h-5.855zm9.457-3.216c.064.432.164.78.3 1.044s.3.468.468.612a1.41 1.41 0 0 0 .552.287 2.24 2.24 0 0 0 .553.072c.768 0 1.375-.552 1.824-1.656s.688-2.863.72-5.28a5.16 5.16 0 0 1-1.211.936c-.457.256-.94.384-1.453.384a3.63 3.63 0 0 1-1.391-.275c-.45-.184-.845-.488-1.188-.912s-.62-.972-.828-1.645-.312-1.503-.312-2.495c0-1.696.332-3.024.996-3.984s1.57-1.44 2.723-1.44c.752 0 1.404.124 1.957.372s1.012.672 1.38 1.272.644 1.416.827 2.448.277 2.324.277 3.876c0 1.744-.1 3.236-.3 4.476s-.488 2.256-.863 3.048-.832 1.376-1.37 1.752-1.148.564-1.836.564c-.56 0-1.035-.08-1.428-.24a2.63 2.63 0 0 1-.984-.684 3.46 3.46 0 0 1-.635-1.057c-.16-.408-.28-.867-.36-1.38l1.584-.096zm4.465-8.16c0-.88-.057-1.62-.168-2.22s-.272-1.088-.48-1.464-.464-.648-.768-.816a2.1 2.1 0 0 0-1.032-.252 2.09 2.09 0 0 0-.924.204c-.28.136-.517.36-.708.672s-.344.724-.456 1.236-.168 1.144-.168 1.896c0 .77.06 1.404.18 1.908s.28.9.48 1.188.432.488.696.6a2.03 2.03 0 0 0 .804.168c.56 0 1.052-.152 1.476-.456a4.87 4.87 0 0 0 1.068-1.032v-1.632zm2.876-5.952h7.775v.912l-5.04 16.416h-1.824l5.04-15.888h-5.952v-1.44zm14.614 0v11.952h1.8v1.44h-1.8v3.936h-1.73v-3.936H251.3v-.816l4.752-12.576h2.52zm-5.64 11.952h3.912V620.42h-.048l-3.864 10.368z" class="X"/><path d="M80.097 648.093H70.75v5.05h6.55c.625 0 1.074.5 1.074 1.074a1.05 1.05 0 0 1-1.074 1.075h-6.55v7.423c0 .575-.5 1.05-1.05 1.05-.6 0-1.1-.475-1.1-1.05v-15.67c0-.6.5-1.075 1.1-1.075h10.397c.65 0 1.05.476 1.05 1.05 0 .525-.375 1.075-1.05 1.075z"/><use xlink:href="#F" x="-67.729" y="432.322"/><path d="M98.64 658.215h-9.248c.35 2.35 1.85 3.85 4.05 3.85 1.125 0 2.25-.4 2.975-1.3.225-.25.475-.4.774-.4.55 0 1.124.5 1.124 1.1 0 .3-.074.525-.6 1.05-1.125 1.1-2.674 1.675-4.273 1.675-4.023 0-6.273-3.324-6.273-7.073 0-3.724 2.25-7.048 6.273-7.048 4.074 0 6.248 3.324 6.248 7.048 0 .55-.4 1.1-1.05 1.1zm-5.2-6.023c-2.35 0-3.725 1.725-4.05 3.874h8.1c-.35-2.4-1.85-3.874-4.05-3.874zm18.606 6.023h-9.248c.35 2.35 1.85 3.85 4.05 3.85 1.124 0 2.25-.4 2.974-1.3.226-.25.476-.4.775-.4.55 0 1.125.5 1.125 1.1 0 .3-.075.525-.6 1.05-1.125 1.1-2.675 1.675-4.274 1.675-4.024 0-6.273-3.324-6.273-7.073 0-3.724 2.25-7.048 6.273-7.048 4.073 0 6.25 3.324 6.25 7.048 0 .55-.4 1.1-1.05 1.1zm-5.198-6.023c-2.35 0-3.724 1.725-4.05 3.874h8.1c-.35-2.4-1.85-3.874-4.05-3.874z"/><use xlink:href="#G" x="-77.282" y="432.32"/><use xlink:href="#L" x="7.045" y="404.72"/><use xlink:href="#D" x="15.189" y="432.32"/><use xlink:href="#E" x="15.19" y="432.32"/><use xlink:href="#F" x="15.189" y="432.322"/><use xlink:href="#l"/><path d="M195.177 662.3c-1.1 1.225-2.623 1.9-4.473 1.9-4.024 0-6.273-3.3-6.273-7.073 0-3.75 2.25-7.048 6.273-7.048 1.85 0 3.373.675 4.473 1.9.2.225.3.475.3.725 0 .55-.55 1.074-1.125 1.074-.225 0-.5-.1-.775-.35-.7-.774-1.624-1.225-2.873-1.225-2.5 0-4.125 1.95-4.125 4.924 0 3 1.625 4.95 4.125 4.95 1.25 0 2.2-.476 2.873-1.225a1 1 0 0 1 .775-.375c.575 0 1.125.5 1.125 1.1a1.14 1.14 0 0 1-.3.725zm12.245-4.075h-9.248c.35 2.35 1.85 3.85 4.05 3.85 1.124 0 2.25-.4 2.974-1.3.226-.25.476-.4.774-.4.55 0 1.125.5 1.125 1.1 0 .3-.074.525-.6 1.05-1.125 1.1-2.674 1.675-4.273 1.675-4.024 0-6.273-3.324-6.273-7.073 0-3.724 2.25-7.048 6.273-7.048 4.073 0 6.248 3.324 6.248 7.048 0 .55-.4 1.1-1.05 1.1zm-5.198-6.023c-2.35 0-3.725 1.725-4.05 3.874h8.1c-.35-2.4-1.85-3.874-4.05-3.874zm13.902 11.998c-1.75 0-3.124-.6-4.124-1.65v5.424c0 .7-.525 1.074-1.1 1.074-.525 0-1.05-.375-1.05-1.074v-16.396c0-.7.524-1.074 1.05-1.074.574 0 1.1.375 1.1 1.074 0 0 1.475-1.524 4.124-1.524 4.024 0 6.273 3.3 6.273 7.048 0 3.8-2.25 7.1-6.273 7.1zm0-12.022c-2.474 0-4.124 1.975-4.124 4.924 0 3 1.625 4.975 4.124 4.975s4.124-1.95 4.124-4.95c0-2.975-1.625-4.95-4.124-4.95zm11.91 11.596h-.426c-2.374 0-3.273-1.25-3.273-3.3v-7.85h-.75c-.6 0-1.075-.475-1.075-1.05 0-.6.476-1.074 1.05-1.074h.75v-3.475c0-.7.525-1.05 1.074-1.05s1.05.35 1.05 1.05v3.475h1.6c.7 0 1.05.574 1.05 1.05 0 .6-.4 1.074-1.05 1.074h-1.6v8.073c0 .7.25.95.95.95h.625c.65 0 1.074.475 1.074 1.05 0 .6-.4 1.075-1.05 1.075zm3.093-15.296a1.8 1.8 0 1 1 0-3.6 1.8 1.8 0 1 1 0 3.6zm0 15.296c-.55 0-1.1-.375-1.1-1.05v-11.147c0-.7.55-1.074 1.1-1.074.525 0 1.05.375 1.05 1.074v11.147c0 .7-.525 1.05-1.05 1.05z"/><use xlink:href="#L" x="110.42" y="404.72"/><use xlink:href="#D" x="118.563" y="432.32"/><use xlink:href="#l" x="-4.1" y="27.601"/><path d="M190.986 679.568l-4.55 10.947c-.225.574-.6.85-1.075.85-.424 0-.824-.275-1.074-.85l-4.55-10.947a1.54 1.54 0 0 1-.074-.45c0-.6.55-1.024 1.1-1.024.375 0 .75.2.95.65l3.648 8.748 3.65-8.748c.174-.475.624-.675.975-.675.574 0 1.1.4 1.1 1.024a1.26 1.26 0 0 1-.1.476z"/><use xlink:href="#M" x="47.477" y="432.321"/><use xlink:href="#b" x="-264.234" y="-126.968"/><path d="M213.024 691.414c-1.35 0-2.5-1.15-2.5-2.55v-14.222c0-.725.524-1.075 1.074-1.075s1.074.35 1.074 1.05v14.247c0 .3.226.425.35.425.7 0 1.075.5 1.075 1.074 0 .55-.375 1.05-1.075 1.05z"/><use xlink:href="#N" x="-4.323" y="432.321"/><path d="M235.748 691.8c-2.674 0-4.1-1.475-4.124-1.5 0 .7-.524 1.05-1.1 1.05-.524 0-1.05-.35-1.05-1.05v-15.646c0-.725.525-1.075 1.05-1.075.575 0 1.1.35 1.1 1.05v4.674c1-1.024 2.374-1.624 4.124-1.624 4.023 0 6.273 3.3 6.273 7.048 0 3.774-2.25 7.073-6.273 7.073zm0-11.997c-2.5 0-4.124 1.95-4.124 4.924 0 3 1.624 4.95 4.124 4.95s4.124-1.95 4.124-4.95c0-2.975-1.624-4.924-4.124-4.924zm10.308 11.62c-1.35 0-2.5-1.15-2.5-2.55v-14.222c0-.725.525-1.075 1.075-1.075s1.075.35 1.075 1.05v14.247c0 .3.225.425.35.425.7 0 1.074.5 1.074 1.074 0 .55-.375 1.05-1.074 1.05zm12.856-5.598h-9.248c.35 2.35 1.85 3.85 4.05 3.85 1.125 0 2.25-.4 2.975-1.3.225-.25.475-.4.774-.4.55 0 1.124.5 1.124 1.1 0 .3-.074.525-.6 1.05-1.125 1.1-2.674 1.675-4.273 1.675-4.023 0-6.273-3.324-6.273-7.073 0-3.724 2.25-7.048 6.273-7.048 4.074 0 6.248 3.324 6.248 7.048 0 .55-.4 1.1-1.05 1.1zm-5.2-6.023c-2.35 0-3.725 1.725-4.05 3.874h8.098c-.35-2.4-1.85-3.874-4.05-3.874z"/></g><path d="M60.26 222.387h58.5" class="Z a b c g"/><g class="Y e"><path d="M42.328 1046.045c-3.568 0-5.47-1.97-5.503-2.002 0 .935-.7 1.4-1.468 1.4-.7 0-1.4-.467-1.4-1.4v-20.88a1.35 1.35 0 0 1 1.401-1.434c.767 0 1.468.467 1.468 1.4v6.238c1.334-1.368 3.168-2.17 5.503-2.17 5.37 0 8.373 4.403 8.373 9.406 0 5.037-3.002 9.44-8.373 9.44zm0-16c-3.335 0-5.503 2.602-5.503 6.57 0 4.003 2.168 6.604 5.503 6.604s5.504-2.602 5.504-6.604c0-3.97-2.168-6.57-5.504-6.57zm25.555 8.037h-12.34c.467 3.136 2.468 5.137 5.403 5.137 1.5 0 3.002-.533 3.97-1.734.3-.333.634-.533 1.034-.533.734 0 1.5.667 1.5 1.468 0 .4-.1.7-.8 1.4-1.5 1.468-3.57 2.235-5.704 2.235-5.37 0-8.372-4.437-8.372-9.44 0-4.97 3.002-9.406 8.372-9.406 5.437 0 8.34 4.437 8.34 9.406 0 .734-.534 1.468-1.4 1.468zm-6.937-8.038c-3.136 0-4.97 2.3-5.403 5.17H66.35c-.467-3.202-2.468-5.17-5.403-5.17zM88 1045.478c-1.834 0-2.668-1.3-2.97-1.9-1.334 1.468-3.27 2.47-5.87 2.47-5.437 0-8.372-4.47-8.372-9.44s3.002-9.406 8.372-9.406c2.335 0 4.203.834 5.504 2.202v-.134c0-.367.133-1.5 1.4-1.5.7 0 1.468.367 1.468 1.4v12.875c0 .434.3.6.467.6.935 0 1.435.667 1.435 1.434a1.37 1.37 0 0 1-1.435 1.401zm-8.84-15.443c-3.336 0-5.504 2.602-5.504 6.57 0 4.003 2.168 6.604 5.504 6.604 3.37 0 5.504-2.602 5.504-6.604 0-3.97-2.135-6.57-5.504-6.57z"/><use xlink:href="#m"/><path d="M115.158 1045.478h-.567c-3.17 0-4.37-1.668-4.37-4.403V1030.6h-1c-.8 0-1.435-.634-1.435-1.4 0-.8.634-1.435 1.4-1.435h1v-4.637c0-.934.7-1.4 1.435-1.4s1.4.467 1.4 1.4v4.637h2.135c.934 0 1.4.768 1.4 1.4 0 .8-.533 1.434-1.4 1.434h-2.135v10.774c0 .934.333 1.268 1.268 1.268h.833c.868 0 1.435.634 1.435 1.4 0 .8-.533 1.435-1.4 1.435zm4.604-20.415a2.402 2.402 0 1 1 0-4.803 2.402 2.402 0 1 1 0 4.803zm0 20.414c-.733 0-1.467-.5-1.467-1.4V1029.2c0-.935.733-1.435 1.467-1.435a1.37 1.37 0 0 1 1.401 1.435v14.876c0 .935-.7 1.4-1.4 1.4zm10.376-14.877h-1.5v13.442c0 .935-.7 1.4-1.468 1.4-.7 0-1.4-.467-1.4-1.4V1030.6h-1.37c-.9 0-1.4-.667-1.4-1.4 0-.768.5-1.435 1.4-1.435h1.367v-2.27c0-2.135 1.77-3.77 3.836-3.77.968 0 1.468.667 1.468 1.434 0 .7-.5 1.4-1.468 1.4-.566 0-.967.434-.967.9v2.302h1.5c.967 0 1.468.667 1.468 1.435 0 .733-.5 1.4-1.468 1.4z"/><use xlink:href="#m" x="42.068"/><path d="M154.725 1045.544c-1.802 0-3.336-1.534-3.336-3.402v-18.98c0-.967.7-1.434 1.435-1.434s1.435.467 1.435 1.4v19.013c0 .4.3.567.467.567.934 0 1.435.667 1.435 1.435 0 .733-.5 1.4-1.435 1.4zm15.37-.066v-1.264c1.886-.237 2.046-.437 2.046-3.157v-6.7c0-2.8-1.248-4.017-3.064-4.017-1.237 0-2.345.6-3.47 1.493v9.476c0 2.527.187 2.658 2.06 2.896v1.264h-8.968v-1.264c2.254-.33 2.5-.4 2.5-3v-8.2c0-2.446-.303-2.565-2.185-2.922v-1.184c2.173-.292 4.63-.807 6.653-1.533l-.052 2.95 2.6-1.745c1.16-.713 2-1.086 3.16-1.086 3.194 0 5.2 2.338 5.2 6.3v7.5c0 2.54.237 2.657 2.277 2.92v1.264h-8.74zm23.9-3.703c-2.458 3.427-5.488 4.178-7.014 4.178-5.142 0-8.124-3.936-8.124-8.594 0-2.745 1.183-5.396 2.832-7.062 1.74-1.8 3.945-2.814 6.082-2.814 3.73 0 6.396 3.126 6.37 6.347-.014.715-.08 1.277-.612 1.4-.767.184-6.17.5-10.318.647.062 4.587 2.717 6.74 5.556 6.74 1.572 0 3.104-.597 4.543-1.866l.686 1.014zm-7.07-12.7c-1.667 0-3.167 1.807-3.516 4.963l5.486-.118c.6-.026.848-.146.848-.792.04-2.022-1.037-4.053-2.818-4.053zm34.284.145c-1.943.343-2.248.624-3.105 2.765-1.33 3.462-3.102 8.53-4.934 13.94h-1.512l-4.65-11.46-4.55 11.46h-1.472l-4.685-14.192c-.687-1.985-.94-2.274-2.855-2.512v-1.25h9.397v1.25c-2.325.345-2.535.672-2.058 2.133l2.52 8.214c1.507-3.68 2.988-7.62 4.327-11.424h1.456c1.4 3.76 2.986 7.702 4.573 11.568.742-2.107 2.062-5.964 2.557-8.108.412-1.674-.008-2.078-2.753-2.383v-1.25h7.742v1.25zm9.4 3.746c-.92-2.606-2.155-3.984-4.2-3.984-1.206 0-2.225.86-2.225 2.266 0 1.497 1.046 2.264 3.16 3.216 3.278 1.496 5.3 2.787 5.3 5.736 0 3.85-3.6 5.764-6.945 5.764-2.06 0-4.088-.737-4.92-1.16l-.662-4.892 1.252-.224c.8 2.5 2.33 4.75 4.976 4.75 1.505 0 2.438-.952 2.438-2.28 0-1.423-.76-2.333-3.092-3.467-2.67-1.295-5.107-2.64-5.107-5.775 0-3.046 2.533-5.42 6.565-5.42 1.818 0 3.242.396 4.112.567l.62 4.577-1.25.328z"/></g><g class="X e"><path d="M876.494 1046.357c-1.2 0-3.22-.42-3.92-1.58-.08-.12-.08-.22-.08-.3 0-.32.28-.6.58-.6.12 0 .32.1.44.28.72.88 2 1.06 2.98 1.06 1.94 0 2.92-.64 2.92-1.94 0-3.02-6.562-1.42-6.562-5.422 0-2.02 2.02-2.8 3.84-2.8 1.04 0 2.64.36 3.44 1.16.12.12.18.26.18.38a.65.65 0 0 1-.62.6.53.53 0 0 1-.38-.16c-.62-.6-1.74-.84-2.62-.84-1.76 0-2.7.68-2.7 1.66 0 2.8 6.562 1.32 6.562 5.422 0 2.28-2 3.08-4.06 3.08z"/><use xlink:href="#n"/><path d="M902.904 1045.977c-.28 0-.58-.2-.58-.56v-.64c-.84.98-2.06 1.54-3.42 1.54-2.48 0-4.56-2.08-4.56-4.56v-5.842c0-.36.3-.56.58-.56.26 0 .56.2.56.56v5.842c0 1.9 1.52 3.42 3.42 3.42s3.42-1.52 3.42-3.42v-5.842c0-.36.3-.56.58-.56.26 0 .56.2.56.56v9.502c0 .36-.3.56-.56.56z"/><use xlink:href="#o"/><path d="M920.607 1044.796c-.88.98-2.1 1.52-3.58 1.52-3.22 0-5.02-2.64-5.02-5.66 0-3 1.8-5.64 5.02-5.64 1.48 0 2.7.54 3.58 1.52a.53.53 0 0 1 .16.381.63.63 0 0 1-.58.6c-.14 0-.28-.06-.42-.2-.66-.74-1.58-1.16-2.74-1.16-2.36 0-3.88 1.9-3.88 4.5s1.52 4.52 3.88 4.52c1.16 0 2.08-.44 2.74-1.16.14-.14.28-.2.42-.2.3 0 .58.26.58.58a.57.57 0 0 1-.16.399zm11.09-3.56h-8.302c.18 2.28 1.66 3.94 3.84 3.94 1.08 0 2.36-.48 2.94-1.38.14-.22.3-.28.48-.28.3 0 .62.24.62.54 0 .18 0 .22-.38.66-.92 1.08-2.26 1.6-3.66 1.6-3.22 0-5.02-2.64-5.02-5.66 0-3 1.8-5.64 5.02-5.64s5.02 2.66 5.02 5.64c0 .3-.28.58-.56.58zm-4.46-5.08c-2.4 0-3.66 1.84-3.84 3.94h7.7c-.18-2.28-1.66-3.94-3.86-3.94zm8.127 3.26c-.64 0-1.16-.5-1.16-1.14s.52-1.14 1.16-1.14c.62 0 1.12.5 1.12 1.14s-.5 1.14-1.12 1.14zm0 6.562c-.64 0-1.16-.5-1.16-1.14s.52-1.14 1.16-1.14c.62 0 1.12.5 1.12 1.14s-.5 1.14-1.12 1.14zm23.083-13.523l-3.52 13.103a.55.55 0 0 1-.56.42c-.24 0-.48-.14-.54-.42l-3-11.083-2.98 11.083c-.06.28-.3.42-.54.42-.26 0-.48-.14-.56-.42l-3.52-13.103c-.02-.06-.02-.12-.02-.18a.58.58 0 0 1 .58-.58c.26 0 .46.14.52.44l3 11.082 2.98-11.082c.08-.28.3-.4.54-.4.26 0 .48.12.56.4l2.98 11.082 3-11.082c.08-.3.28-.44.52-.44a.58.58 0 0 1 .58.58c0 .06 0 .12-.02.18z"/><use xlink:href="#n" x="77.103"/><use xlink:href="#o" x="65.338"/><path d="M980.368 1046.097c-1.08 0-1.98-1-1.98-2.12v-11.683c0-.36.3-.56.58-.56.26 0 .56.2.56.56v11.683c0 1.28 1.42.54 1.42 1.44 0 .34-.24.68-.58.68zm11.174-.12c-.28 0-.58-.2-.58-.56v-1c-.84 1.18-2.14 1.9-3.88 1.9-3.22 0-5.02-2.64-5.02-5.66 0-3 1.8-5.64 5.02-5.64 1.74 0 3.04.72 3.88 1.88v-4.6c0-.36.3-.56.58-.56.26 0 .56.2.56.56v13.122c0 .36-.3.56-.56.56zm-4.46-9.822c-2.36 0-3.88 1.9-3.88 4.5s1.52 4.52 3.88 4.52c2.38 0 3.88-1.92 3.88-4.52s-1.5-4.5-3.88-4.5zm19.138 9.822h-5.802c-.3 0-.58-.28-.58-.56v-13.122c0-.34.18-.56.52-.56h5.42c1.98 0 3.6 1.64 3.6 3.56 0 1.18-.52 2.2-1.42 2.86a4.06 4.06 0 0 1 2.38 3.721c0 2.28-1.84 4.1-4.12 4.1zm-.44-13.123h-4.8v4.92h4.8c1.62 0 2.46-1.44 2.46-2.44 0-1.38-1.12-2.48-2.46-2.48zm.44 6.062h-5.24v5.92h5.24c1.64 0 2.98-1.32 2.98-2.96s-1.34-2.96-2.98-2.96zm16.925 7.06h-.02c-.66 0-1.6-.36-1.98-1.56-.84 1.18-2.14 1.9-3.88 1.9-3.26 0-5.02-2.68-5.02-5.66 0-3.02 1.8-5.64 5.02-5.64 1.74 0 3.04.72 3.88 1.88v-.98c0-.32.26-.56.58-.56.28 0 .56.2.56.56v8.063c0 1.28 1.44.48 1.44 1.44a.55.55 0 0 1-.58.561zm-5.88-9.822c-2.36 0-3.88 1.9-3.88 4.5s1.52 4.52 3.88 4.52c2.38 0 3.88-1.92 3.88-4.52s-1.5-4.5-3.88-4.5zm16.823 9.822c-.28 0-.58-.2-.58-.56v-5.84c0-1.9-1.52-3.42-3.42-3.42a3.42 3.42 0 0 0-3.421 3.421v5.84c0 .36-.3.56-.56.56-.28 0-.58-.2-.58-.56v-9.502c0-.36.3-.56.58-.56.26 0 .56.2.56.56v.64c.9-.98 2.08-1.54 3.42-1.54a4.6 4.6 0 0 1 4.561 4.561v5.84c0 .36-.3.56-.56.56zm10.75-9.642l-3.44 3.44 3.4 5.32c.06.08.12.2.12.32 0 .28-.3.54-.6.54-.18 0-.36-.08-.48-.26l-3.28-5.1-2.06 2.08v2.74c0 .36-.3.56-.56.56-.28 0-.58-.2-.58-.56v-13.122c0-.36.3-.56.58-.56.26 0 .56.2.56.56v8.762l5.52-5.52a.56.56 0 0 1 .42-.18c.32 0 .58.26.58.56a.56.56 0 0 1-.181.421z"/></g><g class="e"><path d="M49.36 81.08c-8.22 0-15.06-6.6-15.06-15.06V39.8c0-1.68 1.26-2.52 2.58-2.52s2.58.84 2.58 2.52v26.22c0 5.52 4.44 9.96 9.9 9.96s9.96-4.44 9.96-9.96V39.864c0-1.74 1.2-2.58 2.52-2.58 1.38 0 2.58.84 2.58 2.52v26.22c0 8.22-6.6 15.06-15.06 15.06zM93.764 80c-.78 0-1.68-.42-2.16-1.44l-9.84-20.34-6.9 8.64v10.62c0 1.62-1.38 2.52-2.52 2.52-1.32 0-2.64-.9-2.64-2.52V39.803c0-1.68 1.38-2.52 2.52-2.52 1.32 0 2.64.84 2.64 2.52v18.84l16.38-20.34c.54-.72 1.2-1.02 1.86-1.02 1.44 0 2.76 1.14 2.76 2.58 0 .48-.18 1.08-.66 1.62l-9.84 12.3 10.8 22.5c.24.42.3.84.3 1.2 0 1.5-1.38 2.52-2.7 2.52zm42.178-37.617h-9.96V77.48c0 1.62-1.2 2.52-2.52 2.52-1.26 0-2.58-.9-2.58-2.52V42.383h-9.84c-1.74 0-2.64-1.32-2.64-2.58 0-1.2.9-2.52 2.58-2.52h24.96c1.68 0 2.58 1.32 2.58 2.52 0 1.26-.9 2.58-2.58 2.58z"/><use xlink:href="#p"/><use xlink:href="#p" x="31.992"/><use xlink:href="#q"/><path d="M261.826 61.522h-12.84v15.9c0 1.56-1.2 2.58-2.52 2.58-1.44 0-2.64-.96-2.64-2.52V39.864c0-1.08.72-2.58 2.52-2.58h15.54c5.28 0 12.06 4.14 12.06 12.06 0 6.78-5.4 12.18-12.12 12.18zm0-19.14h-12.84v14.04h12.78a6.99 6.99 0 0 0 7.02-7.02c0-3.9-3.12-7.02-6.96-7.02zm28.53 9.84c-4.62 0-8.52 3.9-8.52 8.58v16.62c0 1.68-1.26 2.58-2.64 2.58-1.26 0-2.52-.9-2.52-2.52v-26.76c0-1.68 1.38-2.58 2.52-2.58 1.2 0 2.34.66 2.58 2.04a13.88 13.88 0 0 1 8.58-3.06c1.74 0 2.64 1.2 2.64 2.58 0 1.32-.9 2.52-2.64 2.52z"/><use xlink:href="#p" x="157.761"/><path d="M338.235 93.68c-3.66 0-12.72-1.32-12.72-4.92 0-1.38 1.26-2.7 2.58-2.7 1.38 0 .18.18 3.36 1.38 1.44.54 3.6 1.14 6.78 1.14 6.66 0 9.9-3.18 9.9-9.48v-2.7c-2.34 2.22-5.7 3.6-9.9 3.6-9.48 0-15.06-6.72-15.06-15.96 0-9 5.4-16.92 15.06-16.92 4.2 0 7.44 1.26 9.9 3.84v-.24c0-1.68 1.38-2.58 2.58-2.58 1.26 0 2.58.9 2.58 2.58v28.38c0 9.54-5.7 14.58-15.06 14.58zm0-41.458c-6 0-9.9 4.68-9.9 11.818 0 6.84 3.6 10.86 9.9 10.86s9.9-4.02 9.9-10.86c0-7.14-3.84-11.818-9.9-11.818z"/><use xlink:href="#q" x="159.923"/><path d="M420.086 80c-3.3 0-4.8-2.34-5.34-3.42-2.4 2.64-5.88 4.44-10.56 4.44-9.78 0-15.06-8.04-15.06-16.98s5.4-16.92 15.06-16.92c4.2 0 7.56 1.5 9.9 3.96v-.24c0-.66.24-2.7 2.52-2.7 1.26 0 2.64.66 2.64 2.52v23.16c0 .78.54 1.08.84 1.08 1.68 0 2.58 1.2 2.58 2.58 0 1.26-.9 2.52-2.58 2.52zm-15.9-27.778c-6 0-9.9 4.68-9.9 11.818 0 7.2 3.9 11.88 9.9 11.88 6.06 0 9.9-4.68 9.9-11.88 0-7.14-3.84-11.818-9.9-11.818z"/><use xlink:href="#q" x="226.52"/><use xlink:href="#r"/><use xlink:href="#s"/><use xlink:href="#p" x="360.373"/><path d="M536.635 81.022c-3.3 0-8.82-1.02-11.64-4.5-.36-.54-.54-1.08-.54-1.56 0-1.5 1.44-2.7 2.7-2.7.72 0 1.26.36 1.86 1.02 1.86 2.04 4.92 2.64 7.62 2.64 5.4 0 7.14-1.86 7.14-4.56 0-7.68-18.3-2.94-18.3-15.3 0-6.54 6.12-8.94 11.82-8.94 3.24 0 10.86 1.62 10.86 4.98 0 1.32-1.08 2.7-2.52 2.7-.54 0-1.38-.3-1.98-.78-1.62-1.38-3.96-1.8-6.36-1.8-4.98 0-6.72 1.86-6.72 3.84 0 7.14 18.36 2.52 18.36 15.3 0 7.08-5.94 9.66-12.3 9.66z"/></g><g fill="#12c2e9"><path d="M592.614 80c-1.32 0-2.64-.9-2.64-2.52V59.662h-19.8V77.48c0 1.62-1.38 2.52-2.52 2.52-1.32 0-2.64-.9-2.64-2.52V39.803c0-1.68 1.32-2.52 2.64-2.52 1.14 0 2.52.84 2.52 2.52v14.76h19.8v-14.7c0-1.74 1.38-2.58 2.52-2.58 1.32 0 2.64.84 2.64 2.58V77.42c0 1.68-1.38 2.58-2.52 2.58z"/><use xlink:href="#s" x="115.456"/><path d="M621.047 80h-1.02c-5.7 0-7.86-3-7.86-7.92V53.24h-1.8c-1.44 0-2.58-1.14-2.58-2.52 0-1.44 1.14-2.58 2.52-2.58h1.8V39.8c0-1.68 1.26-2.52 2.58-2.52s2.52.84 2.52 2.52v8.34h3.84c1.68 0 2.52 1.38 2.52 2.52 0 1.44-.96 2.58-2.52 2.58h-3.84v19.38c0 1.68.6 2.28 2.28 2.28h1.5c1.56 0 2.58 1.14 2.58 2.52 0 1.44-.96 2.58-2.52 2.58zm47.398 0c-3.3 0-4.8-2.34-5.34-3.42-2.4 2.64-5.88 4.44-10.56 4.44-9.78 0-15.06-8.04-15.06-16.98s5.4-16.92 15.06-16.92c4.2 0 7.56 1.5 9.9 3.96v-.24c0-.66.24-2.7 2.52-2.7 1.26 0 2.64.66 2.64 2.52v23.16c0 .78.54 1.08.84 1.08 1.68 0 2.58 1.2 2.58 2.58 0 1.26-.9 2.52-2.58 2.52zm-15.898-27.778c-6 0-9.9 4.68-9.9 11.818 0 7.2 3.9 11.88 9.9 11.88 6.06 0 9.9-4.68 9.9-11.88 0-7.14-3.84-11.818-9.9-11.818zm61.317 27.838c-.66 0-1.44-.36-1.98-1.08l-12.48-17.46h-7.74v15.9c0 1.68-1.26 2.58-2.64 2.58-1.26 0-2.52-.9-2.52-2.52V39.864c0-1.08.72-2.58 2.52-2.58h15.54c5.28 0 12.06 4.14 12.06 12.06 0 6.3-4.74 11.58-11.04 12.12l10.5 14.46a2.35 2.35 0 0 1 .54 1.56c0 1.44-1.38 2.58-2.76 2.58zm-9.36-37.678h-12.84v14.04h12.78c3.9 0 7.02-3.18 7.02-7.08 0-4.08-3.48-6.96-6.96-6.96zm41.046 24.3h-22.2c.84 5.64 4.44 9.24 9.72 9.24 2.7 0 5.4-.96 7.14-3.12.54-.6 1.14-.96 1.86-.96 1.32 0 2.7 1.2 2.7 2.64 0 .72-.18 1.26-1.44 2.52-2.7 2.64-6.42 4.02-10.26 4.02-9.66 0-15.06-7.98-15.06-16.98 0-8.94 5.4-16.92 15.06-16.92 9.78 0 15 7.98 15 16.92 0 1.32-.96 2.64-2.52 2.64zm-12.48-14.46c-5.64 0-8.94 4.14-9.72 9.3h19.438c-.84-5.76-4.44-9.3-9.72-9.3z"/><use xlink:href="#r" x="294.276"/><use xlink:href="#t"/><path d="M824.96 52.223c-4.62 0-8.52 3.9-8.52 8.58v16.62c0 1.68-1.26 2.58-2.64 2.58-1.26 0-2.52-.9-2.52-2.52v-26.76c0-1.68 1.38-2.58 2.52-2.58 1.2 0 2.34.66 2.58 2.04a13.88 13.88 0 0 1 8.58-3.06c1.74 0 2.64 1.2 2.64 2.58 0 1.32-.9 2.52-2.64 2.52zm28.398 27.72c-1.32 0-2.58-.84-2.58-2.52 0 0-3.54 3.6-9.9 3.6-9.66 0-15.06-7.92-15.06-16.98 0-9 5.4-16.92 15.06-16.92 4.2 0 7.56 1.44 9.9 3.9V39.864c0-1.74 1.26-2.58 2.58-2.58s2.58.84 2.58 2.52V77.42c0 1.68-1.26 2.52-2.58 2.52zm-12.48-27.72c-6 0-9.9 4.68-9.9 11.818 0 7.2 3.9 11.88 9.9 11.88 6.06 0 9.9-4.68 9.9-11.88 0-7.14-3.84-11.818-9.9-11.818zM895.237 80h-18.24c-1.44 0-2.64-1.14-2.64-2.52V39.864c0-1.74 1.38-2.58 2.52-2.58 1.32 0 2.64.84 2.64 2.52v35.1h15.72c1.38 0 2.52 1.14 2.52 2.52 0 1.44-1.14 2.58-2.52 2.58z"/><use xlink:href="#t" x="119.994"/><path d="M970.452 51.563l-9.3 26.338c-.48 1.32-1.32 2.1-2.64 2.1-1.26 0-1.98-.54-2.52-2.1l-7.02-19.8-7.08 19.8c-.48 1.44-1.32 2.1-2.58 2.1-1.2 0-2.04-.66-2.52-2.1l-9.24-26.338c-.12-.36-.12-.6-.12-.96 0-1.5 1.38-2.46 2.64-2.46.96 0 1.92.48 2.34 1.68l6.96 20.04 7.08-19.62c.48-1.38 1.08-2.1 2.52-2.1 1.32 0 2.04.66 2.52 2.1l7.02 19.62 7.02-20.04c.42-1.2 1.38-1.68 2.28-1.68 1.38 0 2.76 1.02 2.76 2.52 0 .3 0 .54-.12.9z"/></g><g class="X e"><path d="M47.3 128H36.28c-.57 0-1.103-.532-1.103-1.063v-24.925c0-.646.343-1.063.988-1.063h10.297c3.76 0 6.84 3.115 6.84 6.763 0 2.242-.988 4.18-2.698 5.434a7.71 7.71 0 0 1 4.521 7.066c0 4.332-3.495 7.8-7.826 7.8zm-.836-24.924h-9.12v9.346h9.12c3.077 0 4.673-2.735 4.673-4.635 0-2.622-2.128-4.7-4.673-4.7zm.836 11.512h-9.955v11.246H47.3c3.115 0 5.66-2.507 5.66-5.623s-2.546-5.623-5.66-5.623zm12.312-10.4a2.166 2.166 0 1 1 0-4.332 2.166 2.166 0 0 1 0 4.332zm0 23.822c-.532 0-1.103-.342-1.103-1.063V108.9c0-.684.532-1.063 1.103-1.063.494 0 1.063.342 1.063 1.063v18.048c0 .684-.494 1.063-1.063 1.063z"/><use xlink:href="#u"/><path d="M84.645 128h-1.178c-3 0-4.483-1.48-4.483-4.445V110h-1.937c-.684 0-1.063-.57-1.063-1.102 0-.494.38-1.063 1.063-1.063h1.938v-5.813c0-.684.57-1.063 1.103-1.063s1.063.38 1.063 1.063v5.813h3.495c.685 0 1.064.57 1.064 1.063 0 .532-.38 1.102-1.064 1.102H81.15v13.564c0 1.86.532 2.28 2.317 2.28h1.178c.685 0 1.064.57 1.064 1.103 0 .493-.38 1.063-1.064 1.063zm19.7 0c-.53 0-1.102-.38-1.102-1.063v-11.095a6.47 6.47 0 0 0-6.497-6.497c-3.57 0-6.497 2.888-6.497 6.497v11.095c0 .684-.57 1.063-1.063 1.063-.532 0-1.103-.38-1.103-1.063v-24.925c0-.684.57-1.063 1.103-1.063.494 0 1.063.38 1.063 1.063v8.093c1.596-1.86 3.913-2.926 6.497-2.926 4.7 0 8.663 3.914 8.663 8.663v11.095c0 .684-.57 1.063-1.064 1.063zm11.212.722c-2.28 0-6.117-.798-7.447-3-.15-.23-.15-.418-.15-.57 0-.607.53-1.14 1.102-1.14.228 0 .607.2.836.532 1.367 1.67 3.8 2.014 5.66 2.014 3.686 0 5.547-1.216 5.547-3.686 0-5.737-12.462-2.698-12.462-10.297 0-3.837 3.837-5.32 7.295-5.32 1.976 0 5.016.685 6.535 2.204.228.228.342.494.342.722 0 .57-.57 1.14-1.178 1.14-.23 0-.494-.076-.722-.304-1.18-1.14-3.306-1.596-4.978-1.596-3.344 0-5.13 1.292-5.13 3.153 0 5.32 12.462 2.508 12.462 10.297 0 4.33-3.8 5.85-7.713 5.85zm29.03-.076c-3.306 0-5.775-1.367-7.37-3.6v9.84c0 .684-.57 1.102-1.063 1.102-.532 0-1.103-.418-1.103-1.102V108.9c0-.684.57-1.063 1.103-1.063.494 0 1.063.38 1.063 1.063v1.862c1.596-2.204 4.065-3.572 7.37-3.572 6.117 0 9.536 5.016 9.536 10.715 0 5.737-3.42 10.752-9.536 10.752zm0-19.3c-4.52 0-7.37 3.6-7.37 8.55s2.85 8.587 7.37 8.587 7.37-3.647 7.37-8.587-2.85-8.55-7.37-8.55z"/><use xlink:href="#v"/><use xlink:href="#u" x="113.933"/><use xlink:href="#w"/><path d="M211.157 131.382c-.152.113-.38.15-.57.15-.607 0-1.025-.53-1.025-1.102 0-1.063 1.634-1.216 1.9-2.432-1.14-.076-2.052-1.025-2.052-2.166 0-1.29 1.063-2.203 2.204-2.203 1.86 0 2.28 1.9 2.28 3.077 0 1.862-.988 3.647-2.735 4.674z"/><use xlink:href="#x"/><use xlink:href="#x" x="19.585"/><use xlink:href="#x" x="39.17"/><path d="M309.754 109.23l-6.193 17.857c-.266.722-.607.912-1.102.912-.646 0-.836-.228-1.064-.912l-4.977-14.817-4.978 14.817c-.266.722-.608.912-1.102.912s-.874-.304-1.064-.912l-6.154-17.857a1.61 1.61 0 0 1-.076-.418c0-.607.607-.987 1.102-.987.38 0 .836.2.988.722l5.205 15.046 4.977-14.855c.23-.723.456-.912 1.103-.912.456 0 .836.15 1.063.912l5.054 14.855 5.13-15.046c.2-.532.57-.722.987-.722.57 0 1.18.38 1.18 1.025a1.12 1.12 0 0 1-.076.38zm10.642 19.416c-6.117 0-9.536-5.015-9.536-10.752 0-5.7 3.42-10.715 9.536-10.715s9.537 5.016 9.537 10.715c0 5.737-3.42 10.752-9.537 10.752zm0-19.3c-4.483 0-7.37 3.6-7.37 8.55s2.888 8.587 7.37 8.587c4.52 0 7.37-3.647 7.37-8.587s-2.85-8.55-7.37-8.55zM358.12 128c-.53 0-1.063-.38-1.063-1.063V114.17c0-2.62-2.204-4.825-4.825-4.825s-4.863 2.204-4.863 4.787v12.805c0 .684-.532 1.063-1.063 1.063s-1.103-.38-1.103-1.063V114.17c0-2.62-2.203-4.825-4.787-4.825-2.66 0-4.863 2.204-4.863 4.787v12.805c0 .684-.57 1.063-1.063 1.063-.532 0-1.103-.38-1.103-1.063V108.9c0-.684.57-1.063 1.103-1.063.494 0 1.063.38 1.063 1.063v.23c1.254-1.216 2.964-1.938 4.825-1.938 2.432 0 4.598 1.216 5.928 3.23 1.253-1.937 3.42-3.23 5.9-3.23 3.95 0 7.03 3.116 7.03 6.953v12.805c0 .684-.57 1.063-1.103 1.063z"/><use xlink:href="#v" x="205.86"/><path d="M401.052 128c-.53 0-1.102-.38-1.102-1.063v-11.095a6.47 6.47 0 0 0-6.497-6.497c-3.57 0-6.497 2.888-6.497 6.497v11.095c0 .684-.57 1.063-1.063 1.063-.532 0-1.103-.38-1.103-1.063V108.9c0-.684.57-1.063 1.103-1.063.494 0 1.063.38 1.063 1.063v1.216c1.7-1.86 3.95-2.926 6.497-2.926 4.7 0 8.663 3.914 8.663 8.663v11.095c0 .684-.57 1.063-1.064 1.063zm33.744 0h-.038c-1.254 0-3.04-.684-3.762-2.964-1.596 2.242-4.065 3.6-7.37 3.6-6.193 0-9.536-5.1-9.536-10.752 0-5.737 3.42-10.715 9.536-10.715 3.306 0 5.775 1.368 7.37 3.572v-1.862c0-.607.494-1.063 1.102-1.063.532 0 1.064.38 1.064 1.063v15.31c0 2.432 2.735.912 2.735 2.736a1.04 1.04 0 0 1-1.102 1.063zm-11.17-18.655c-4.483 0-7.37 3.6-7.37 8.55s2.888 8.587 7.37 8.587c4.52 0 7.37-3.647 7.37-8.587s-2.85-8.55-7.37-8.55zm22.936 27.318c-3.23 0-7.8-1.216-7.8-2.584 0-.608.494-1.216 1.103-1.216.418 0 1.3.646 2.014.912.987.342 2.545.722 4.673.722 4.863 0 7.37-2.394 7.37-7.067v-2.66c-1.672 2.014-4.065 3.23-7.37 3.23-6.003 0-9.536-4.256-9.536-10.106 0-5.7 3.42-10.715 9.536-10.715 3.306 0 5.775 1.368 7.37 3.572v-1.824c0-.684.57-1.063 1.102-1.063.494 0 1.064.38 1.064 1.063v18.503c0 6.04-3.6 9.233-9.537 9.233zm0-27.318c-4.483 0-7.37 3.6-7.37 8.55 0 4.9 2.698 7.94 7.37 7.94s7.37-3.04 7.37-7.94c0-4.94-2.85-8.55-7.37-8.55z"/><use xlink:href="#v" x="302.94"/><path d="M499.13 128c-.53 0-1.102-.38-1.102-1.063v-1.9c-1.596 2.242-4.065 3.61-7.37 3.61-6.117 0-9.536-5.015-9.536-10.752 0-5.7 3.42-10.715 9.536-10.715 3.306 0 5.775 1.368 7.37 3.572v-8.74c0-.684.57-1.063 1.102-1.063.494 0 1.064.38 1.064 1.063v24.925c0 .684-.57 1.063-1.064 1.063zm-8.473-18.655c-4.483 0-7.37 3.61-7.37 8.55s2.888 8.587 7.37 8.587c4.52 0 7.37-3.647 7.37-8.587s-2.85-8.55-7.37-8.55z"/><use xlink:href="#w" x="314.122"/><path d="M530.708 128.38c-2.546 0-5.434-1.368-6.84-3.6-.152-.228-.2-.418-.2-.608 0-.607.57-1.102 1.14-1.102s.608.304 1.178.912c1.217 1.443 2.813 2.24 4.712 2.24 3.344 0 6.345-2.887 6.345-6.877 0-4.027-3-6.915-6.345-6.915-2.622 0-4.33 1.672-5.016 2.698-.228.38-.57.53-1.025.53-.646 0-1.103-.417-1.103-1.14v-12.5c0-.646.494-1.063 1.064-1.063h12.7c.76 0 1.14.53 1.14 1.063s-.38 1.064-1.14 1.064h-11.6v8.9c1.216-.988 2.85-1.7 4.978-1.7 4.673 0 8.5 3.95 8.5 9.08 0 5.054-3.838 9.043-8.5 9.043zm23.69-12.196h-11.893c-.684 0-1.102-.57-1.102-1.102 0-.494.418-1.064 1.102-1.064h11.893a1.07 1.07 0 0 1 1.102 1.064c0 .532-.38 1.102-1.102 1.102zM561.75 128c-.57 0-1.063-.418-1.063-1.063v-22.72l-4.142 4.027c-.2.228-.456.342-.722.342-.608 0-1.14-.57-1.14-1.178 0-.23.15-.494.342-.722l6.003-5.813c.304-.228.608-.304.722-.304.798 0 1.103.57 1.103 1.33v25.04c0 .645-.456 1.063-1.103 1.063zm12.87.646c-3.2 0-5.47-1.367-7.03-3.76-.2-.23-.228-.418-.228-.646 0-.57.57-1.063 1.14-1.063.304 0 .608.152.874.494 1.216 1.785 2.812 2.812 5.243 2.812 4.787 0 6.497-4.56 6.497-12.007v-.646c-1.596 2.052-4.027 3.268-6.497 3.268-4.56 0-8.17-3.95-8.17-8.396 0-4.483 3.6-8.436 8.17-8.436 7.94 0 8.663 8.17 8.663 14.172 0 7.105-1.52 14.2-8.663 14.2zm0-26.216c-3.268 0-5.965 2.888-5.965 6.27 0 3.343 2.697 6.23 5.965 6.23 2.964 0 6.08-2.62 6.08-6.46-.684-3.23-2.204-6.04-6.08-6.04z"/></g></svg>