<svg xmlns="http://www.w3.org/2000/svg" xmlns:xlink="http://www.w3.org/1999/xlink" viewBox="0 0 1080 1080"><style><![CDATA[.S{fill:#fff}.T{opacity:.06}.U{fill:#feac5e}.V{fill:#5ceef2}.W{stroke-miterlimit:10}.X{stroke-width:2}.Y{stroke-dasharray:2 6}]]></style><defs><linearGradient id="A" y1="540" x2="1080" y2="540" gradientUnits="userSpaceOnUse"><stop offset="0" stop-color="#2a0845"/><stop offset=".175" stop-color="#300d4e"/><stop offset=".463" stop-color="#3f1c67"/><stop offset=".826" stop-color="#57348f"/><stop offset="1" stop-color="#6441a5"/></linearGradient><clipPath id="B"><rect x="329.524" y="519.381" width="420.953" height="198.952" rx="20" class="S T"/></clipPath><linearGradient id="C" x1="540" y1="718.332" x2="540" y2="519.381" gradientUnits="userSpaceOnUse"><stop offset="0" stop-color="#feac5e"/><stop offset=".03" stop-color="#faa965"/><stop offset=".352" stop-color="#d686b2"/><stop offset=".5" stop-color="#c779d0"/><stop offset=".657" stop-color="#9595cd"/><stop offset=".809" stop-color="#6dadca"/><stop offset=".928" stop-color="#54bbc9"/><stop offset="1" stop-color="#4bc0c8"/></linearGradient><clipPath id="D"><rect x="329.524" y="237.898" width="420.953" height="198.952" rx="20" opacity=".08" class="S"/></clipPath><linearGradient id="E" x1="540" y1="436.849" x2="540" y2="257.127" gradientUnits="userSpaceOnUse"><stop offset="0" stop-color="#feac5e"/><stop offset=".021" stop-color="#faa965"/><stop offset=".252" stop-color="#d686b2"/><stop offset=".358" stop-color="#c779d0"/><stop offset=".56" stop-color="#9595cd"/><stop offset=".754" stop-color="#6dadca"/><stop offset=".907" stop-color="#54bbc9"/><stop offset="1" stop-color="#4bc0c8"/></linearGradient><clipPath id="F"><rect x="329.524" y="800.864" width="420.953" height="198.952" rx="20" class="S T"/></clipPath><linearGradient id="G" x1="540" y1="999.621" x2="540" y2="808.573" gradientUnits="userSpaceOnUse"><stop offset="0" stop-color="#feac5e"/><stop offset=".016" stop-color="#faa965"/><stop offset=".192" stop-color="#d686b2"/><stop offset=".273" stop-color="#c779d0"/><stop offset=".502" stop-color="#9595cd"/><stop offset=".722" stop-color="#6dadca"/><stop offset=".895" stop-color="#54bbc9"/><stop offset="1" stop-color="#4bc0c8"/></linearGradient><path id="H" d="M104.714 1045.51a1.36 1.36 0 0 1-1.4-1.101 7.763 7.763 0 0 1-4.804 1.668 7.666 7.666 0 0 1-7.604-7.605v-9.24a1.434 1.434 0 0 1 2.868-.033v9.272a4.753 4.753 0 1 0 9.507 0v-9.24a1.33 1.33 0 0 1 1.4-1.468 1.364 1.364 0 0 1 1.435 1.435v14.9a1.328 1.328 0 0 1-1.401 1.4z"/><path id="I" d="M697.063 1046.357c-1.2 0-3.22-.42-3.92-1.58a.478.478 0 0 1-.08-.299.546.546 0 0 1 1.021-.32 3.815 3.815 0 0 0 2.98 1.061c1.94 0 2.92-.64 2.92-1.94 0-3.02-6.562-1.42-6.562-5.422 0-2.02 2.02-2.8 3.84-2.8a5.415 5.415 0 0 1 3.44 1.16.556.556 0 0 1 .18.379.647.647 0 0 1-.62.6.527.527 0 0 1-.38-.16 4.001 4.001 0 0 0-2.62-.84c-1.76 0-2.7.682-2.7 1.66 0 2.8 6.562 1.32 6.562 5.422 0 2.28-2 3.08-4.06 3.08z"/><path id="J" d="M707.783 1046.318c-3.22 0-5.02-2.64-5.02-5.662 0-3 1.8-5.64 5.02-5.64s5.02 2.64 5.02 5.64c0 3.02-1.8 5.662-5.02 5.662zm0-10.162c-2.36 0-3.88 1.9-3.88 4.5s1.52 4.52 3.88 4.52c2.38 0 3.88-1.92 3.88-4.52s-1.5-4.5-3.88-4.5z"/><path id="K" d="M723.564 1045.98a.563.563 0 0 1-.58-.561v-.64a4.443 4.443 0 0 1-3.421 1.541 4.61 4.61 0 0 1-4.561-4.561v-5.842a.57.57 0 0 1 1.14 0v5.842a3.421 3.421 0 0 0 6.842 0v-5.842a.57.57 0 0 1 1.141 0v9.502a.559.559 0 0 1-.561.561z"/><path id="L" d="M731.522 1036.336a3.418 3.418 0 0 0-3.421 3.42v5.662a.57.57 0 0 1-1.141 0v-9.502a.57.57 0 0 1 1.141 0v.82a4.566 4.566 0 0 1 3.421-1.541.57.57 0 1 1 0 1.141z"/><path id="M" d="M812.34 1046.098a2.096 2.096 0 0 1-1.98-2.119v-11.684a.57.57 0 0 1 1.141 0v11.684c0 1.28 1.42.54 1.42 1.44a.645.645 0 0 1-.58.68z"/><path id="N" d="M823.763 1045.98a.564.564 0 0 1-.581-.561v-1a4.538 4.538 0 0 1-3.88 1.9c-3.22 0-5.02-2.64-5.02-5.662 0-3 1.8-5.64 5.02-5.64a4.572 4.572 0 0 1 3.88 1.881v-4.602a.57.57 0 0 1 1.141 0v13.123a.558.558 0 0 1-.56.561zm-4.46-9.822c-2.36 0-3.88 1.9-3.88 4.5s1.52 4.52 3.88 4.52c2.38 0 3.88-1.92 3.88-4.52s-1.5-4.5-3.88-4.5z"/><path id="O" d="M855.382 1045.98h-.02a2.073 2.073 0 0 1-1.98-1.561 4.538 4.538 0 0 1-3.88 1.9c-3.26 0-5.02-2.682-5.02-5.662 0-3.02 1.8-5.64 5.02-5.64a4.572 4.572 0 0 1 3.88 1.881v-.98a.565.565 0 0 1 .581-.561.547.547 0 0 1 .56.561v8.063c0 1.28 1.44.48 1.44 1.44a.55.55 0 0 1-.58.561zm-5.88-9.822c-2.36 0-3.88 1.9-3.88 4.5s1.52 4.52 3.88 4.52c2.38 0 3.88-1.92 3.88-4.52s-1.5-4.5-3.88-4.5z"/><path id="P" d="M866.34 1045.98a.563.563 0 0 1-.58-.561v-5.842a3.42 3.42 0 0 0-6.841 0v5.842a.57.57 0 0 1-1.141 0v-9.502a.57.57 0 0 1 1.141 0v.64a4.563 4.563 0 0 1 7.981 3.02v5.842a.558.558 0 0 1-.561.561z"/><path id="Q" d="M169.077 193.756l.492-.37h2.912q.45 0 .4.4v25.922q-.083.452.37.4h5.332q.45-.082.37.37v2q.04.452-.37.37h-14.52q-.452.082-.4-.37v-2q-.04-.45.4-.37h5.537q.41.04.37-.4v-21.86q-.04-.492-.4-.082a18.003 18.003 0 0 1-5.619 3.281q-.33.164-.37-.205v-2.092a.398.398 0 0 1 .287-.369 10.31 10.31 0 0 0 5.209-4.635h0z"/><path id="R" d="M464.945 209.906h-13.318c.504 3.384 2.664 5.543 5.83 5.543a5.402 5.402 0 0 0 4.284-1.872 1.49 1.49 0 0 1 1.116-.576 1.68 1.68 0 0 1 1.62 1.584c0 .432-.108.756-.864 1.512a8.771 8.771 0 0 1-6.155 2.412c-5.795 0-9.035-4.787-9.035-10.187 0-5.363 3.24-10.15 9.035-10.15 5.867 0 9 4.788 9 10.15a1.535 1.535 0 0 1-1.512 1.583zm-7.487-8.675c-3.383 0-5.363 2.484-5.83 5.58h11.663c-.504-3.456-2.664-5.58-5.832-5.58z"/><path id="S" d="M524.705 218.51a7.878 7.878 0 0 1-5.939-2.375v7.81a1.5 1.5 0 0 1-1.583 1.548 1.483 1.483 0 0 1-1.512-1.548v-23.613a1.483 1.483 0 0 1 1.512-1.548 1.5 1.5 0 0 1 1.583 1.548 8.641 8.641 0 0 1 5.939-2.196c5.795 0 9.035 4.75 9.035 10.15 0 5.47-3.24 10.223-9.035 10.223zm0-17.313c-3.563 0-5.94 2.843-5.94 7.09 0 4.32 2.34 7.163 5.94 7.163s5.94-2.808 5.94-7.127c0-4.284-2.34-7.127-5.94-7.127z"/><path id="T" d="M582.016 217.897h-.612c-3.42 0-4.715-1.8-4.715-4.75v-11.303h-1.08a1.53 1.53 0 0 1-.036-3.06h1.08v-5.003a1.462 1.462 0 0 1 1.548-1.512 1.433 1.433 0 0 1 1.512 1.512v5.003h2.304a1.492 1.492 0 0 1 1.512 1.512 1.464 1.464 0 0 1-1.512 1.547h-2.304v11.627c0 1.008.36 1.368 1.367 1.368h.9a1.485 1.485 0 0 1 1.548 1.512 1.464 1.464 0 0 1-1.512 1.548z"/><path id="U" d="M575.856 482.715a5.186 5.186 0 0 0-5.111 5.147v9.97a1.501 1.501 0 0 1-1.584 1.548 1.474 1.474 0 0 1-1.512-1.512v-16.054a1.525 1.525 0 0 1 1.512-1.548 1.477 1.477 0 0 1 1.548 1.224 8.325 8.325 0 0 1 5.147-1.836 1.531 1.531 0 1 1 0 3.06z"/><path id="V" d="M338.523 80.12a6.122 6.122 0 0 1-6-6.12V39.862a2.58 2.58 0 0 1 5.16-.06V74a.947.947 0 0 0 .84 1.02 2.55 2.55 0 1 1 0 5.1z"/><path id="W" d="M373.742 80a5.839 5.839 0 0 1-5.34-3.42 13.746 13.746 0 0 1-10.56 4.44c-9.78 0-15.06-8.04-15.06-16.98s5.4-16.92 15.06-16.92a13.257 13.257 0 0 1 9.899 3.96v-.24a2.476 2.476 0 0 1 2.521-2.7 2.412 2.412 0 0 1 2.64 2.52v23.16a.971.971 0 0 0 .84 1.08 2.55 2.55 0 1 1 0 5.1zm-15.9-27.78c-6 0-9.9 4.68-9.9 11.82 0 7.2 3.9 11.88 9.9 11.88 6.06 0 9.9-4.68 9.9-11.88 0-7.14-3.84-11.82-9.9-11.82z"/><path id="X" d="M440.522 66.68h-22.2c.84 5.64 4.44 9.24 9.72 9.24a9.004 9.004 0 0 0 7.14-3.12 2.484 2.484 0 0 1 1.86-.96 2.8 2.8 0 0 1 2.7 2.64c0 .72-.18 1.26-1.44 2.52a14.622 14.622 0 0 1-10.26 4.02c-9.66 0-15.06-7.98-15.06-16.98 0-8.94 5.4-16.92 15.06-16.92 9.78 0 15 7.98 15 16.92a2.558 2.558 0 0 1-2.521 2.64zm-12.48-14.46c-5.64 0-8.94 4.14-9.72 9.3h19.44c-.84-5.76-4.44-9.3-9.72-9.3z"/><path id="Y" d="M457.142 81.02c-3.3 0-8.82-1.02-11.64-4.5a2.655 2.655 0 0 1 2.16-4.26 2.466 2.466 0 0 1 1.86 1.02c1.86 2.04 4.92 2.64 7.62 2.64 5.4 0 7.14-1.86 7.14-4.56 0-7.68-18.3-2.94-18.3-15.3 0-6.54 6.12-8.94 11.82-8.94 3.24 0 10.86 1.62 10.86 4.98a2.694 2.694 0 0 1-2.52 2.7 3.615 3.615 0 0 1-1.98-.78c-1.62-1.38-3.96-1.8-6.36-1.8-4.98 0-6.72 1.86-6.72 3.84 0 7.14 18.36 2.52 18.36 15.3 0 7.08-5.94 9.66-12.3 9.66z"/><path id="Z" d="M470.43 141.2a2.424 2.424 0 0 1-2.521-2.52V122a8.549 8.549 0 1 0-17.099 0v16.62a2.551 2.551 0 0 1-2.641 2.64 2.472 2.472 0 0 1-2.52-2.58v-26.82a2.387 2.387 0 0 1 2.52-2.52 2.509 2.509 0 0 1 2.58 1.98 13.703 13.703 0 0 1 22.26 10.68v16.62a2.454 2.454 0 0 1-2.58 2.58z"/><path id="a" d="M539.61 127.88h-22.2c.84 5.64 4.44 9.24 9.72 9.24a9.007 9.007 0 0 0 7.14-3.12 2.483 2.483 0 0 1 1.859-.96 2.8 2.8 0 0 1 2.7 2.64c0 .72-.18 1.26-1.44 2.52a14.622 14.622 0 0 1-10.26 4.02c-9.66 0-15.06-7.98-15.06-16.98 0-8.94 5.4-16.92 15.06-16.92 9.78 0 15 7.98 15 16.92a2.558 2.558 0 0 1-2.52 2.64zm-12.48-14.46c-5.64 0-8.94 4.14-9.72 9.3h19.44c-.84-5.76-4.44-9.3-9.72-9.3z"/></defs><rect width="1080" height="1080" rx="40" fill="url(#A)"/><g opacity=".3" class="S"><path d="M42.328 1046.045a7.892 7.892 0 0 1-5.503-2.002 1.364 1.364 0 0 1-1.468 1.401 1.346 1.346 0 0 1-1.401-1.401v-20.88a1.435 1.435 0 0 1 2.869-.033v6.238a7.4 7.4 0 0 1 5.503-2.169c5.37 0 8.373 4.403 8.373 9.406 0 5.037-3.002 9.44-8.373 9.44zm0-16c-3.335 0-5.503 2.602-5.503 6.57 0 4.003 2.168 6.604 5.503 6.604s5.504-2.602 5.504-6.604c0-3.97-2.168-6.57-5.504-6.57zm25.555 8.037h-12.34c.467 3.136 2.468 5.137 5.403 5.137a5.003 5.003 0 0 0 3.969-1.734 1.383 1.383 0 0 1 1.034-.533 1.556 1.556 0 0 1 1.501 1.468c0 .4-.1.7-.8 1.4a8.129 8.129 0 0 1-5.704 2.235c-5.37 0-8.372-4.437-8.372-9.44 0-4.97 3.002-9.406 8.372-9.406 5.437 0 8.34 4.437 8.34 9.406a1.422 1.422 0 0 1-1.401 1.468zm-6.937-8.038c-3.136 0-4.97 2.3-5.403 5.17H66.35c-.467-3.202-2.468-5.17-5.403-5.17zM88 1045.478a3.247 3.247 0 0 1-2.969-1.901 7.642 7.642 0 0 1-5.87 2.469c-5.437 0-8.372-4.47-8.372-9.44s3.002-9.406 8.372-9.406a7.369 7.369 0 0 1 5.504 2.202v-.134a1.376 1.376 0 0 1 1.4-1.501 1.341 1.341 0 0 1 1.468 1.401v12.875a.54.54 0 0 0 .467.601 1.418 1.418 0 1 1 0 2.835zm-8.84-15.443c-3.336 0-5.504 2.602-5.504 6.57 0 4.003 2.168 6.604 5.504 6.604 3.37 0 5.504-2.602 5.504-6.604 0-3.97-2.135-6.57-5.504-6.57z"/><use xlink:href="#H"/><path d="M115.158 1045.478h-.567c-3.17 0-4.37-1.668-4.37-4.403V1030.6h-1a1.418 1.418 0 1 1-.033-2.835h1v-4.637a1.355 1.355 0 0 1 1.435-1.4 1.328 1.328 0 0 1 1.401 1.4v4.637h2.135a1.383 1.383 0 0 1 1.4 1.401 1.356 1.356 0 0 1-1.4 1.434h-2.135v10.774c0 .934.333 1.268 1.268 1.268h.833a1.376 1.376 0 0 1 1.435 1.4 1.357 1.357 0 0 1-1.4 1.435zm4.604-20.415a2.401 2.401 0 1 1 2.402-2.401 2.392 2.392 0 0 1-2.402 2.401zm0 20.414a1.4 1.4 0 0 1-1.467-1.401V1029.2a1.408 1.408 0 0 1 1.467-1.435 1.374 1.374 0 0 1 1.401 1.435v14.876a1.346 1.346 0 0 1-1.401 1.401zm10.376-14.877h-1.5v13.442a1.364 1.364 0 0 1-1.468 1.401 1.346 1.346 0 0 1-1.401-1.401V1030.6h-1.37a1.418 1.418 0 0 1 0-2.835h1.367v-2.27a3.801 3.801 0 0 1 3.836-3.769 1.418 1.418 0 1 1 0 2.835.934.934 0 0 0-.967.9v2.302h1.5a1.418 1.418 0 1 1 0 2.835z"/><use xlink:href="#H" x="42.068"/><path d="M154.725 1045.544a3.403 3.403 0 0 1-3.336-3.402v-18.98a1.435 1.435 0 0 1 2.869-.033v19.013a.527.527 0 0 0 .467.567 1.418 1.418 0 1 1 0 2.835zm15.37-.066v-1.264c1.886-.237 2.046-.437 2.046-3.157v-6.7c0-2.8-1.248-4.017-3.064-4.017a5.597 5.597 0 0 0-3.47 1.493v9.476c0 2.527.187 2.658 2.06 2.896v1.264h-8.968v-1.264c2.254-.33 2.5-.4 2.5-3v-8.2c0-2.446-.303-2.565-2.185-2.922v-1.184a34.101 34.101 0 0 0 6.653-1.533l-.052 2.95 2.6-1.745a5.659 5.659 0 0 1 3.159-1.086c3.194 0 5.2 2.338 5.2 6.3v7.5c0 2.54.237 2.657 2.277 2.92v1.264zm23.9-3.703c-2.458 3.427-5.488 4.178-7.014 4.178-5.142 0-8.124-3.936-8.124-8.594a10.333 10.333 0 0 1 2.832-7.062 8.602 8.602 0 0 1 6.082-2.814 6.386 6.386 0 0 1 6.37 6.347c-.014.715-.08 1.277-.612 1.4-.767.184-6.17.5-10.318.647.062 4.587 2.717 6.74 5.556 6.74a6.776 6.776 0 0 0 4.543-1.866zm-7.07-12.7c-1.667 0-3.167 1.807-3.516 4.963l5.486-.118c.6-.026.848-.146.848-.792.04-2.022-1.037-4.053-2.818-4.053zm34.284.145c-1.943.343-2.248.624-3.105 2.765-1.33 3.462-3.102 8.53-4.934 13.94h-1.512l-4.65-11.46-4.55 11.46h-1.472l-4.685-14.192c-.687-1.985-.94-2.274-2.855-2.512v-1.25h9.397v1.25c-2.325.345-2.535.672-2.058 2.133l2.52 8.214c1.507-3.68 2.988-7.62 4.327-11.424h1.456c1.4 3.76 2.986 7.702 4.573 11.568.742-2.107 2.062-5.964 2.557-8.108.412-1.674-.008-2.078-2.753-2.383v-1.25h7.742zm9.4 3.746c-.92-2.606-2.155-3.984-4.2-3.984a2.166 2.166 0 0 0-2.225 2.266c0 1.497 1.046 2.264 3.16 3.216 3.278 1.496 5.3 2.787 5.3 5.736 0 3.85-3.6 5.764-6.945 5.764a12.073 12.073 0 0 1-4.92-1.161l-.662-4.892 1.252-.224c.8 2.5 2.33 4.75 4.976 4.75a2.231 2.231 0 0 0 2.438-2.281c0-1.423-.76-2.333-3.092-3.467-2.67-1.295-5.107-2.64-5.107-5.775 0-3.046 2.533-5.42 6.565-5.42a18.751 18.751 0 0 1 4.112.567l.62 4.577z"/></g><g opacity=".7" class="S"><use xlink:href="#I"/><use xlink:href="#J"/><use xlink:href="#K"/><use xlink:href="#L"/><path d="M741.703 1044.797a4.646 4.646 0 0 1-3.58 1.521c-3.22 0-5.02-2.64-5.02-5.662 0-3 1.8-5.64 5.02-5.64a4.651 4.651 0 0 1 3.58 1.52.534.534 0 0 1 .16.381.626.626 0 0 1-.58.6.586.586 0 0 1-.42-.199 3.526 3.526 0 0 0-2.74-1.16c-2.36 0-3.88 1.9-3.88 4.5s1.52 4.52 3.88 4.52a3.592 3.592 0 0 0 2.74-1.16.586.586 0 0 1 .42-.199.594.594 0 0 1 .58.58.569.569 0 0 1-.16.398zm11.58-3.56h-8.302c.18 2.28 1.66 3.94 3.84 3.94a3.615 3.615 0 0 0 2.94-1.381.526.526 0 0 1 .479-.279.611.611 0 0 1 .62.541c0 .18 0 .22-.38.658a4.718 4.718 0 0 1-3.66 1.602c-3.22 0-5.02-2.64-5.02-5.662 0-3 1.8-5.64 5.02-5.64s5.02 2.66 5.02 5.64a.605.605 0 0 1-.56.58zm-4.46-5.08c-2.4 0-3.66 1.84-3.84 3.94h7.7c-.18-2.28-1.66-3.94-3.86-3.94z"/><use xlink:href="#I" x="62.499"/><path d="M766.76 1039.416a1.14 1.14 0 1 1 0-2.279 1.14 1.14 0 0 1 0 2.279zm0 6.563a1.141 1.141 0 1 1 0-2.281 1.141 1.141 0 0 1 0 2.281zm23.084-13.524l-3.52 13.104a.554.554 0 0 1-.56.42.534.534 0 0 1-.541-.42l-3-11.084-2.98 11.084a.534.534 0 0 1-.54.42.555.555 0 0 1-.561-.42l-3.52-13.104a.539.539 0 0 1-.021-.18.581.581 0 0 1 .58-.58.499.499 0 0 1 .521.439l3 11.082 2.98-11.082a.53.53 0 0 1 .54-.4.538.538 0 0 1 .56.4l2.98 11.082 3-11.082a.526.526 0 0 1 .52-.439.581.581 0 0 1 .58.58.539.539 0 0 1-.021.18z"/><use xlink:href="#J" x="88.579"/><use xlink:href="#L" x="76.798"/><use xlink:href="#M"/><use xlink:href="#N"/><path d="M838.44 1045.98h-5.802a.607.607 0 0 1-.58-.561v-13.123a.496.496 0 0 1 .521-.561H838a3.616 3.616 0 0 1 3.601 3.561 3.469 3.469 0 0 1-1.42 2.861 4.1 4.1 0 0 1-1.74 7.822zm-.44-13.123h-4.8v4.92h4.8a2.46 2.46 0 1 0 0-4.92zm.44 6.06h-5.24v5.922h5.24a2.961 2.961 0 1 0 0-5.922z"/><use xlink:href="#O"/><use xlink:href="#P"/><path d="M877.04 1036.336l-3.44 3.44 3.4 5.32a.567.567 0 0 1 .12.32.609.609 0 0 1-.6.541.564.564 0 0 1-.48-.262l-3.28-5.1-2.06 2.08v2.74a.571.571 0 0 1-1.141 0v-13.123a.571.571 0 0 1 1.141 0v8.762l5.52-5.52a.567.567 0 0 1 .421-.18.577.577 0 0 1 .58.561.559.559 0 0 1-.181.42zm2.92 11.422a.513.513 0 0 1-.3.08.559.559 0 0 1-.54-.58c0-.56.86-.64 1-1.28a1.152 1.152 0 0 1 .08-2.301c.98 0 1.2 1 1.2 1.62a2.852 2.852 0 0 1-1.44 2.459zm14.66-1.44c-4.3 0-5.82-3.56-5.82-7.46 0-3.922 1.52-7.482 5.82-7.482 4.28 0 5.82 3.56 5.82 7.482 0 3.9-1.54 7.46-5.82 7.46zm0-13.803c-3.32 0-4.682 2.6-4.682 6.342 0 3.72 1.36 6.32 4.682 6.32 3.3 0 4.68-2.6 4.68-6.32 0-3.742-1.38-6.342-4.68-6.342z"/><use xlink:href="#K" x="187.756"/><use xlink:href="#L" x="187.758"/><path d="M940.56 1032.455l-3.52 13.104a.554.554 0 0 1-.56.42.534.534 0 0 1-.541-.42l-3-11.084-2.98 11.084a.534.534 0 0 1-.54.42.555.555 0 0 1-.561-.42l-3.52-13.104a.539.539 0 0 1-.021-.18.581.581 0 0 1 .58-.58.499.499 0 0 1 .521.439l3 11.082 2.98-11.082a.53.53 0 0 1 .54-.4.538.538 0 0 1 .56.4l2.98 11.082 3-11.082a.526.526 0 0 1 .521-.439.581.581 0 0 1 .58.58.539.539 0 0 1-.021.18z"/><use xlink:href="#J" x="239.297"/><use xlink:href="#L" x="227.518"/><use xlink:href="#M" x="150.718"/><use xlink:href="#N" x="150.717"/><path d="M983.357 1033.436a1.141 1.141 0 1 1 1.141-1.141 1.127 1.127 0 0 1-1.141 1.141zm0 12.543a.55.55 0 0 1-.58-.561v-9.502a.552.552 0 0 1 .58-.561.545.545 0 0 1 .561.561v9.502a.536.536 0 0 1-.561.561z"/><use xlink:href="#P" x="128.978"/><path d="M1008.458 1045.98h-4.44a.607.607 0 0 1-.58-.561v-13.123a.59.59 0 0 1 .58-.561h4.44c4.12 0 5.48 3.44 5.48 7.102 0 3.72-1.36 7.143-5.48 7.143zm0-13.123h-3.88v11.982h3.88c3.42 0 4.34-2.96 4.34-5.98 0-3.563-1.24-6.002-4.34-6.002z"/><use xlink:href="#O" x="171.498"/><path d="M1032.938 1045.98h-.62a2.075 2.075 0 0 1-2.36-2.342v-7.14h-1.02a.57.57 0 0 1 0-1.141h1.02v-3.06a.563.563 0 0 1 .58-.561.547.547 0 0 1 .56.561v3.06h1.84a.57.57 0 0 1 0 1.141h-1.84v7.14c0 .98.28 1.2 1.22 1.2h.62a.57.57 0 0 1 0 1.141z"/><use xlink:href="#O" x="190.378"/></g><rect x="329.524" y="519.381" width="420.953" height="198.952" rx="20" class="S T"/><g clip-path="url(#B)"><path d="M330.1 519.38h3.045v198.952H330.1zm9.472.4h3.045v198.55h-3.045zm9.472.688h3.045v197.863h-3.045zm9.472 1.003h3.045v196.86h-3.045zm9.472 1.376h3.045v195.484h-3.045zm9.472 1.806h3.045v193.678h-3.045zm9.472 2.207h3.045v191.472h-3.045zm9.472 2.608h3.045v188.864h-3.045zm9.472 3.067h3.045v185.797h-3.045zm9.472 3.554h3.045v182.243h-3.045zm9.472 4.07h3.045v178.174h-3.045zm9.472 4.557h3.045v173.617h-3.045zm9.472 4.987h3.045v168.63h-3.045zm9.472 5.33h3.045v163.3h-3.045zm9.472 5.646h3.045v157.654H462.7zm9.472 5.818h3.045v151.836h-3.045zm9.472 5.904h3.045v145.932h-3.045zm9.472 5.875h3.045v140.057h-3.045zm9.472 5.76h3.045v134.297h-3.045zm9.472 5.503h3.045v128.794h-3.045zm9.472 5.16h3.045v123.636h-3.045zm9.472 4.815h3.045v118.82h-3.045zm9.472 4.47h3.045v114.35h-3.045zm9.472 4.127h3.045v110.223h-3.045zm9.472 3.812h3.045v106.41h-3.045zm9.472 3.468h3.045v102.944h-3.045zm9.472 3.238h3.045v99.705h-3.045zm9.472 3.067h3.045v96.64h-3.045zm9.472 2.923h3.045v93.715H595.3zm9.472 2.866h3.045v90.85h-3.045zm9.472 2.837h3.045v88.012h-3.045zm9.472 2.81h3.045v85.204h-3.045zm9.472 2.78h3.045v82.424H633.2zm9.472 2.694h3.045v79.73h-3.045zm9.472 2.637h3.045v77.093h-3.045zm9.472 2.493h3.045v74.6h-3.045zm9.472 2.32h3.045v72.278h-3.045zm9.472 2.092h3.045v70.186h-3.045zm9.472 1.863h3.045v68.323h-3.045zm9.472 1.605h3.045v66.718h-3.045zm9.472 1.404h3.045v65.314h-3.045zm9.472 1.232h3.045v64.082h-3.045zm9.472 1.06h3.045v63.02h-3.045zm9.472.974h3.045v62.047h-3.045zm9.472.917h3.045v61.13h-3.045z" fill="url(#C)"/></g><rect x="329.524" y="237.898" width="420.953" height="198.952" rx="20" opacity=".08" class="S"/><g clip-path="url(#D)"><path d="M332.42 319.606h2.648V436.85h-2.648zm9.375.25h2.648V436.85h-2.648zm9.375-.747h2.648v117.74h-2.648zm9.375-1.494h2.648V436.85h-2.648zm9.375-2.49h2.648V436.85h-2.648zm9.375-2.738h2.648V436.85h-2.648zm9.375-2.738h2.648v127.2h-2.648zm9.375-2.49h2.648v129.69h-2.648zm9.375-1.99h2.648v131.68h-2.648zm9.375-1.494h2.648V436.85h-2.648zm9.375-.996h2.648v134.17h-2.648zm9.375-.996h2.648V436.85h-2.648zm9.375-.996h2.648v136.16h-2.648zm9.375-.996h2.648V436.85h-2.648zm9.375-1.245h2.648V436.85h-2.648zm9.375-1.245h2.648V436.85h-2.648zm9.375-1.494h2.648v141.14h-2.648zm9.375-1.245h2.648V436.85H491.8zm9.375-1.494h2.648V436.85h-2.648zm9.375-1.494h2.648v145.37h-2.648zm9.375-1.494h2.648V436.85h-2.648zm9.375-1.742h2.648V436.85H529.3zm9.375-1.742h2.648v150.35h-2.648zm9.375-1.742h2.648V436.85h-2.648zm9.375-1.99h2.648V436.85h-2.648zm9.375-1.742h2.648V436.85h-2.648zm9.375-1.742h2.648v157.57h-2.648zm9.375-1.742h2.648v159.31h-2.648zm9.375-1.742h2.648V436.85h-2.648zm9.375-1.494h2.648V436.85h-2.648zm9.375-1.494h2.648v164.04h-2.648zm9.375-1.245h2.648V436.85h-2.648zm9.375-1.494h2.648v166.78h-2.648zm9.375-1.245h2.648V436.85h-2.648zm9.375-.996h2.648v169.02h-2.648zm9.375-1.245h2.648V436.85h-2.648zm9.375-1.245h2.648V436.85h-2.648zm9.375-.996h2.648V436.85h-2.648zm9.375-1.245h2.648v173.75h-2.648zm9.375-.996h2.648V436.85h-2.648zm9.375-1.245h2.648v175.99h-2.648zm9.375-.996h2.648V436.85h-2.648zm9.375-.996h2.648v177.98h-2.648zm9.375-.996h2.648V436.85h-2.648zm9.375-.747h2.648V436.85h-2.648z" fill="url(#E)"/></g><rect x="329.524" y="800.864" width="420.953" height="198.952" rx="20" class="S T"/><g clip-path="url(#F)"><path d="M330.82 979.184h4.946v20.437h-4.946zm9.396 5.994h4.946v14.443h-4.946zm9.396-3.853h4.946v18.296h-4.946zm9.396-9.558h4.946v27.854h-4.946zm9.396-14.622h4.946v42.476h-4.946zm9.396 20.87h4.946v21.607H377.8zm9.396 1.503h4.946v20.104h-4.946zm9.396-6.834h4.946v26.938H396.6zm9.396-3.785h4.946v30.723h-4.946zm9.396-4.13h4.946v34.852h-4.946zm9.396-3.045h4.946v37.897h-4.946zm9.396 4.12h4.946v33.776h-4.946zm9.396 2.495h4.946v31.282h-4.946zm9.396-1.466h4.946v32.747h-4.946zm9.396-4.814h4.946v37.56h-4.946zm9.396 1.805h4.946v35.756h-4.946zm9.396-3.11h4.946v38.865h-4.946zm9.396-2.56h4.946v41.425h-4.946zm9.396-2.315h4.946v43.74h-4.946zm9.396-3.128h4.946v46.868h-4.946zm9.396 2.006h4.946v44.862h-4.946zm9.396-.074h4.946v44.936h-4.946zm9.396-1.058h4.946v45.993h-4.946zm9.396.157h4.946v45.837h-4.946zm9.396-4.574h4.946v50.41h-4.946zm9.396-9.992h4.946v60.403h-4.946zm9.396-1.038h4.946v61.44H575.1zm9.396-.908h4.946v62.348h-4.946zm9.396-.324h4.946v62.672h-4.946zm9.396-1.305h4.946v63.976h-4.946zm9.396.464h4.946v63.512h-4.946zm9.396.3h4.946v63.213h-4.946zm9.396-5.085h4.946v68.298h-4.946zm9.396-4.435h4.946v72.733h-4.946zm9.396-3.7h4.946v76.432h-4.946zm9.396-1.558h4.946v77.99h-4.946zm9.396-7.408h4.946v85.398h-4.946zm9.396-11.773h4.946v97.17h-4.946zm9.396-10.295h4.946V999.62h-4.946zm9.396-12.072h4.946V999.62h-4.946zm9.396-12.335h4.946V999.62h-4.946zm9.396-3.267h4.946v135.14h-4.946zm9.396-15.11h4.946v150.25h-4.946zm9.396-20.967h4.946V999.62h-4.946zm9.396-19.832h4.946V999.62h-4.946z" fill="url(#G)"/></g><path d="M190.322 349.366q-.102 1.113.9 1h6.163q1.1-.2.9.9v4.95q.2 1.113-.9 1h-6.163q-1-.2-.9.9v14.548q.2 1.314-.9 1.1h-5.152q-1 .2-.9-1.1v-14.548q.2-1.1-.9-.9h-23.438q-1 .102-.9-1v-6.365l.404-1.717 21.52-46.17a1.333 1.333 0 0 1 1.415-.808h7.98q1.1-.1.9 1zm-25.358 0q-.606 1.113.606 1h16.872q1.1.102.9-1V311.58q-.204-1.212-.808-.202zm77.396-38.39a131.458 131.458 0 0 0-13.538 30.41 133.419 133.419 0 0 0-5.051 31.723q.2 1.312-1 1.1H217q-1.113-.102-.9-1.1a129.928 129.928 0 0 1 5.658-32.127 133.532 133.532 0 0 1 13.841-31.117q.9-1.414-.1-1.415h-31.117q-1.113.204-.9-1v-5.354q-.204-1.1.9-.9h37.48q1.1-.2.9.9v7.476l-.404 1.414z" class="U"/><path d="M879.647 310.975a131.458 131.458 0 0 0-13.538 30.41 133.395 133.395 0 0 0-5.051 31.723q.2 1.312-1 1.1h-5.76q-1.112-.102-.9-1.1a129.93 129.93 0 0 1 5.658-32.127 133.513 133.513 0 0 1 13.841-31.117q.9-1.414-.102-1.415H841.66q-1.113.204-.9-1v-5.354q-.204-1.1.9-.9h37.48q1.1-.2.9.9v7.476l-.404 1.414zm15.465 54.555q-.103 1 .9.9h29.5q1.1-.2.9.9v5.456c.134.742-.17 1.077-.9 1h-37.077c-.742.066-1.045-.27-.9-1v-5.557q.504-13.638 7.88-20.7a188.422 188.422 0 0 1 14.649-12.729 19.092 19.092 0 0 0 7.98-14.548 13.637 13.637 0 0 0-3.03-8.891 10.324 10.324 0 0 0-8.184-3.637q-5.758.102-8.9 3.84a14.587 14.587 0 0 0-3.334 9.092q.1 1.417-1.1 1.212h-5.455q-1.113.204-.9-.9a22.29 22.29 0 0 1 5.759-14.245q5.25-5.96 14.043-6.163a18.175 18.175 0 0 1 13.437 5.557q5.25 5.356 5.455 13.84-.606 11.013-7.88 17.074l-14.65 12.225q-7.375 6.062-8.183 17.276h0z" class="V"/><path d="M219.624 592.46a131.434 131.434 0 0 0-13.538 30.41 133.407 133.407 0 0 0-5.051 31.723q.2 1.31-1 1.11h-5.76q-1.113-.103-.91-1.11a129.929 129.929 0 0 1 5.658-32.127 133.545 133.545 0 0 1 13.841-31.117q.9-1.414-.1-1.414h-31.117q-1.113.204-.91-1.01v-5.354q-.204-1.1.91-.91h37.48q1.1-.2.91.91v7.477l-.404 1.414z" class="U"/><path d="M872.377 647.015q-.103 1.01.91.91h29.5q1.1-.2.91.91v5.455c.134.742-.17 1.077-.91 1.01H865.71c-.742.066-1.045-.27-.91-1.01v-5.556q.504-13.64 7.88-20.71a188.216 188.216 0 0 1 14.649-12.729 19.094 19.094 0 0 0 7.98-14.549 13.634 13.634 0 0 0-3.03-8.89 10.324 10.324 0 0 0-8.184-3.638q-5.758.103-8.89 3.84a14.588 14.588 0 0 0-3.334 9.093q.1 1.417-1.11 1.213h-5.455q-1.113.204-.91-.91a22.288 22.288 0 0 1 5.759-14.245q5.25-5.96 14.043-6.163a18.178 18.178 0 0 1 13.437 5.557q5.25 5.355 5.455 13.84-.606 11.013-7.88 17.074l-14.65 12.224q-7.375 6.063-8.183 17.276h0z" class="V"/><path d="M191.216 868.486a19.884 19.884 0 0 1 5.456 13.841q-.606 12.527-8.688 16.568-.507.406.1 1 10 5.758 9.9 17.78-.204 9.297-5.758 14.952a20.022 20.022 0 0 1-14.245 5.86 19.663 19.663 0 0 1-14.144-5.86q-5.557-5.656-5.758-14.952-.103-12.02 9.9-17.78.606-.606.1-1-8.084-4.04-8.688-16.568a19.868 19.868 0 0 1 5.456-13.841 17.972 17.972 0 0 1 26.369 0zM177.98 931.73a12.022 12.022 0 0 0 9.193-3.939q3.434-3.737 3.435-10.002 0-6.768-3.334-10.8a12.19 12.19 0 0 0-18.488 0q-3.334 4.043-3.334 10.8 0 6.265 3.435 10.002a11.903 11.903 0 0 0 9.093 3.939h0zm11.315-49.302a13.974 13.974 0 0 0-3.031-9.092 10.856 10.856 0 0 0-16.568 0 14.28 14.28 0 0 0-2.93 9.092q.303 12.73 11.214 13.438 11-.706 11.315-13.437zm46.583 20.104q0-1.008-.9-.303-3.234 4.244-12.426 4.95-8.993-.2-14.144-6.264-5.153-6.062-5.253-15.66a24.629 24.629 0 0 1 5.355-15.761q5.354-6.464 14.65-6.77 9.395.204 14.75 6.668 5.25 6.365 5.354 16.164v31.622a22.588 22.588 0 0 1-5.354 15.054q-5.254 5.962-14.953 6.264a20.482 20.482 0 0 1-13.032-4.445 17.402 17.402 0 0 1-6.264-11.72q-.204-.908.9-.9h5.758q1 0 1.1 1.213a12.517 12.517 0 0 0 3.435 6.264q2.728 2.525 8.183 2.626 6.16-.098 9.497-4.04a15.653 15.653 0 0 0 3.333-10.305zm0-17.478a17.949 17.949 0 0 0-3.233-11.012 11.522 11.522 0 0 0-9.497-4.445 11.134 11.134 0 0 0-9.295 4.445 19.065 19.065 0 0 0-3.334 11.214q.1 6.872 3.233 11.012 3.13 4.144 9.193 4.243 12.83-.807 12.932-15.457h0z" class="U"/><path d="M801.855 865.05l1.212-.9h7.173q1.112 0 1 1V929q-.204 1.113.9 1h13.134q1.1-.202.9.9v4.95c.066.742-.236 1.043-.9.9H789.53c-.742.134-1.078-.167-1-.9v-4.95q-.1-1.1 1-.9h13.64q1.008.1.9-1v-53.848q-.103-1.213-1-.202-4.75 4.446-13.84 8.082-.8.404-.9-.505v-5.152a.978.978 0 0 1 .707-.909 25.395 25.395 0 0 0 12.831-11.417h0zM845 934.86q-.404 8.8-4.546 12.83-4.244 3.94-7.98 3.94c-.54 0-.774-.338-.707-1v-2.728q-.1-.9.8-.9a8.423 8.423 0 0 0 4.748-2.93 9.853 9.853 0 0 0 2.223-6.264c-.136-.338-.303-.473-.505-.404l-1.92.303q-4.447-.1-4.95-5.455.504-5.96 5.96-6.163 4.242.303 5.758 3.334 1 1.417 1.1 5.455h0zm13.85-6.363q-.103 1 .9.9h29.5q1.1-.2.9.9v5.455c.134.742-.17 1.077-.9 1h-37.077c-.742.066-1.045-.27-.9-1v-5.556q.504-13.64 7.88-20.7a188.216 188.216 0 0 1 14.649-12.73 19.094 19.094 0 0 0 7.98-14.549 13.634 13.634 0 0 0-3.03-8.89 10.324 10.324 0 0 0-8.184-3.638q-5.758.103-8.9 3.84a14.588 14.588 0 0 0-3.334 9.093q.1 1.417-1.1 1.213h-5.455q-1.113.204-.9-.9a22.288 22.288 0 0 1 5.759-14.245q5.25-5.96 14.043-6.163a18.178 18.178 0 0 1 13.437 5.557q5.25 5.355 5.455 13.84-.606 11.013-7.88 17.074l-14.65 12.224q-7.375 6.063-8.183 17.276h0zm68.9-16.165q-.1 1.113.9 1h6.163q1.1-.2.9.9v4.95q.2 1.113-.9 1h-6.163q-1-.202-.9.9v14.548q.202 1.314-.9 1.1h-5.152q-1 .2-.9-1.1v-14.548q.2-1.1-.9-.9h-23.44q-1 .1-.9-1v-6.364l.404-1.718 21.52-46.17a1.333 1.333 0 0 1 1.414-.809h7.98q1.1-.1.9 1zm-25.358 0q-.605 1.113.606 1h16.872q1.1.1.9-1v-37.784q-.204-1.213-.8-.202zm72.142-43.846A19.884 19.884 0 0 1 980 882.327q-.606 12.527-8.688 16.568-.507.406.1 1 10.002 5.758 9.9 17.78-.204 9.297-5.758 14.952a20.024 20.024 0 0 1-14.245 5.86 19.665 19.665 0 0 1-14.145-5.86q-5.556-5.656-5.758-14.952-.103-12.02 9.9-17.78.606-.606.1-1-8.083-4.04-8.688-16.568a19.871 19.871 0 0 1 5.456-13.841 17.971 17.971 0 0 1 26.368 0zM961.3 931.73a12.023 12.023 0 0 0 9.193-3.939q3.434-3.737 3.435-10.002 0-6.768-3.334-10.8a12.19 12.19 0 0 0-18.487 0q-3.334 4.043-3.334 10.8 0 6.265 3.435 10.002a11.902 11.902 0 0 0 9.093 3.939h0zm11.314-49.302a13.973 13.973 0 0 0-3.03-9.092 10.856 10.856 0 0 0-16.568 0 14.277 14.277 0 0 0-2.931 9.092q.303 12.73 11.215 13.438 11-.706 11.314-13.437z" class="V"/><g opacity=".6" class="S"><use xlink:href="#Q"/><path d="M194.387 208.973q0-.4-.37-.123-1.313 1.723-5.045 2a7.368 7.368 0 0 1-5.742-2.543 9.637 9.637 0 0 1-2.133-6.357 9.998 9.998 0 0 1 2.174-6.398 7.892 7.892 0 0 1 11.936-.041 10.142 10.142 0 0 1 2.174 6.563v12.838a9.167 9.167 0 0 1-2.174 6.111 8.017 8.017 0 0 1-6.07 2.543 8.313 8.313 0 0 1-5.291-1.805 7.064 7.064 0 0 1-2.543-4.758q-.083-.37.37-.37H184q.4 0 .45.492a5.082 5.082 0 0 0 1.395 2.543 5.505 5.505 0 0 0 7.178-.574 6.354 6.354 0 0 0 1.354-4.184zm0-7.096a7.286 7.286 0 0 0-1.312-4.471 4.679 4.679 0 0 0-3.855-1.805 4.521 4.521 0 0 0-3.773 1.805 7.74 7.74 0 0 0-1.354 4.553 7.414 7.414 0 0 0 1.313 4.471 4.487 4.487 0 0 0 3.732 1.723q5.208-.328 5.25-6.275h0zm20.92-4.51a53.37 53.37 0 0 0-5.496 12.346 54.172 54.172 0 0 0-2.051 12.879q.082.532-.4.45h-2.338q-.452-.04-.37-.45a52.752 52.752 0 0 1 2.297-13.043 54.204 54.204 0 0 1 5.619-12.633q.37-.574-.04-.574h-12.633q-.452.083-.37-.4v-2.174q-.083-.45.37-.37h15.217q.45-.082.37.37v3.035l-.164.574z"/><use xlink:href="#Q" x="55.381"/></g><g opacity=".8" class="S"><path d="M427.472 217.97a3.673 3.673 0 0 1-3.6-3.671v-20.48a1.548 1.548 0 0 1 3.096-.036V214.3a.568.568 0 0 0 .504.612 1.53 1.53 0 1 1 0 3.06zm5.758-22.102a2.592 2.592 0 1 1 2.592-2.592 2.581 2.581 0 0 1-2.592 2.592zm0 22.03a1.512 1.512 0 0 1-1.583-1.512v-16.054a1.52 1.52 0 0 1 1.583-1.548 1.483 1.483 0 0 1 1.512 1.548v16.054a1.452 1.452 0 0 1-1.512 1.512zm11.917-16.055h-1.62v14.506a1.471 1.471 0 0 1-1.584 1.512 1.453 1.453 0 0 1-1.512-1.512v-14.506h-1.476a1.53 1.53 0 0 1 0-3.06h1.476v-2.448a4.102 4.102 0 0 1 4.14-4.067 1.531 1.531 0 1 1 0 3.06 1.009 1.009 0 0 0-1.044.972v2.483h1.62a1.531 1.531 0 1 1 0 3.06z"/><use xlink:href="#R"/><use xlink:href="#R" x="28.475"/><path d="M511.708 217.934a1.35 1.35 0 0 1-1.152-.576l-5.867-7.163-5.867 7.163a1.638 1.638 0 0 1-1.152.54 1.618 1.618 0 0 1-1.62-1.512 1.639 1.639 0 0 1 .432-1.044l6.19-7.595-5.292-6.443a1.502 1.502 0 0 1-.396-1.008 1.622 1.622 0 0 1 1.62-1.548 1.393 1.393 0 0 1 1.152.576l4.932 6.047 4.967-6.047a1.368 1.368 0 0 1 1.08-.576 1.656 1.656 0 0 1 1.656 1.548 1.611 1.611 0 0 1-.396.972l-5.328 6.48 6.264 7.595a1.587 1.587 0 0 1 .396 1.044 1.648 1.648 0 0 1-1.62 1.548z"/><use xlink:href="#S"/><path d="M553 209.906h-13.32c.504 3.384 2.664 5.543 5.83 5.543a5.402 5.402 0 0 0 4.284-1.872 1.49 1.49 0 0 1 1.116-.576 1.68 1.68 0 0 1 1.62 1.584c0 .432-.108.756-.864 1.512a8.771 8.771 0 0 1-6.155 2.412c-5.795 0-9.035-4.787-9.035-10.187 0-5.363 3.24-10.15 9.035-10.15 5.867 0 9 4.788 9 10.15a1.535 1.535 0 0 1-1.512 1.583zm-7.487-8.675c-3.383 0-5.363 2.484-5.83 5.58h11.663c-.504-3.456-2.664-5.58-5.832-5.58zm26.817 14.543a8.362 8.362 0 0 1-6.443 2.735c-5.795 0-9.035-4.75-9.035-10.187 0-5.4 3.24-10.15 9.035-10.15a8.362 8.362 0 0 1 6.443 2.736 1.567 1.567 0 0 1 .432 1.044 1.677 1.677 0 0 1-1.62 1.548 1.702 1.702 0 0 1-1.115-.504 5.288 5.288 0 0 0-4.14-1.764c-3.6 0-5.94 2.808-5.94 7.1 0 4.32 2.34 7.127 5.94 7.127a5.354 5.354 0 0 0 4.14-1.764 1.436 1.436 0 0 1 1.115-.54 1.554 1.554 0 0 1 1.188 2.628z"/><use xlink:href="#T"/><path d="M603.794 217.897a3.503 3.503 0 0 1-3.204-2.052 8.246 8.246 0 0 1-6.335 2.664c-5.867 0-9.035-4.823-9.035-10.187s3.24-10.15 9.035-10.15a7.955 7.955 0 0 1 5.939 2.376v-.144a1.485 1.485 0 0 1 1.512-1.62 1.447 1.447 0 0 1 1.584 1.512V214.2a.582.582 0 0 0 .504.648 1.53 1.53 0 1 1 0 3.06zm-9.54-16.666c-3.6 0-5.94 2.808-5.94 7.1 0 4.32 2.34 7.127 5.94 7.127 3.636 0 5.94-2.808 5.94-7.127 0-4.284-2.304-7.1-5.94-7.1zm28.584 16.666a1.454 1.454 0 0 1-1.512-1.512V206.38a5.13 5.13 0 1 0-10.259 0v9.97a1.53 1.53 0 0 1-1.584 1.584 1.483 1.483 0 0 1-1.512-1.548v-16.1a1.432 1.432 0 0 1 1.512-1.512 1.505 1.505 0 0 1 1.548 1.188 8.221 8.221 0 0 1 13.355 6.407v9.97a1.472 1.472 0 0 1-1.548 1.548zm20.268-2.123a8.361 8.361 0 0 1-6.443 2.735c-5.795 0-9.034-4.75-9.034-10.187 0-5.4 3.24-10.15 9.034-10.15a8.361 8.361 0 0 1 6.443 2.736 1.568 1.568 0 0 1 .433 1.044 1.677 1.677 0 0 1-1.62 1.548 1.704 1.704 0 0 1-1.116-.504 5.288 5.288 0 0 0-4.14-1.764c-3.6 0-5.938 2.808-5.938 7.1 0 4.32 2.34 7.127 5.938 7.127a5.354 5.354 0 0 0 4.14-1.764 1.438 1.438 0 0 1 1.116-.54 1.553 1.553 0 0 1 1.188 2.628zm19.187-14.83l-9.72 22.102a4.125 4.125 0 0 1-3.959 2.412h-1.152a1.452 1.452 0 0 1-1.512-1.584 1.432 1.432 0 0 1 1.512-1.512h1.116a1.136 1.136 0 0 0 1.188-.576l2.376-5.328-7.02-15.514a1.302 1.302 0 0 1-.18-.684 1.622 1.622 0 0 1 1.655-1.512 1.385 1.385 0 0 1 1.296.936l5.867 13.03 5.724-13.03a1.425 1.425 0 0 1 1.332-.9 1.595 1.595 0 0 1 1.655 1.476 1.216 1.216 0 0 1-.18.684z"/></g><path d="M849.563 219.514q-.04.4.37.37H861.9q.45-.082.37.37v2.215c.055.3-.068.437-.37.4h-15.053c-.302.027-.425-.1-.37-.4v-2.256q.205-5.537 3.2-8.408a76.377 76.377 0 0 1 5.947-5.168 7.753 7.753 0 0 0 3.24-5.906 5.534 5.534 0 0 0-1.23-3.609 4.191 4.191 0 0 0-3.322-1.477 4.558 4.558 0 0 0-3.609 1.559 5.921 5.921 0 0 0-1.354 3.691c.026.383-.123.547-.45.492h-2.215q-.453.083-.37-.37a9.044 9.044 0 0 1 2.338-5.783 7.466 7.466 0 0 1 5.701-2.502 7.378 7.378 0 0 1 5.455 2.256 7.98 7.98 0 0 1 2.215 5.619 9.227 9.227 0 0 1-3.199 6.932l-5.947 4.963a9.506 9.506 0 0 0-3.322 7.014h0zm29.083-24.364a8.721 8.721 0 0 1 2.338 6.111v13.863a8.871 8.871 0 0 1-2.338 6.152 8.157 8.157 0 0 1-5.947 2.42 8.249 8.249 0 0 1-5.947-2.42 8.72 8.72 0 0 1-2.297-6.152V201.26a8.574 8.574 0 0 1 2.297-6.111 8.034 8.034 0 0 1 5.947-2.42 7.948 7.948 0 0 1 5.947 2.42zm-11.115 6.1v13.863a6.192 6.192 0 0 0 1.395 4.102 5.251 5.251 0 0 0 7.547 0 6.074 6.074 0 0 0 1.436-4.102V201.26a5.915 5.915 0 0 0-1.436-4.061 5.251 5.251 0 0 0-7.547 0 6.029 6.029 0 0 0-1.395 4.061h0zm21.823-7.504l.492-.37h2.912q.45 0 .4.4v25.922q-.082.452.37.4h5.332q.45-.082.37.37v2q.04.452-.37.37h-14.52q-.45.082-.4-.37v-2q-.04-.45.4-.37h5.537q.4.04.37-.4v-21.86q-.04-.492-.4-.082a17.997 17.997 0 0 1-5.619 3.281q-.328.164-.37-.205v-2.092a.398.398 0 0 1 .287-.369 10.308 10.308 0 0 0 5.209-4.635h0zm15.26 22.394q.328 4.43 4.922 4.635a4.646 4.646 0 0 0 3.486-1.395 5.603 5.603 0 0 0 1.354-3.896v-3.732a5.368 5.368 0 0 0-1.189-3.609 4.408 4.408 0 0 0-3.445-1.477 5.993 5.993 0 0 0-4.061 1.395.468.468 0 0 1-.533.205h-2q-.453.083-.37-.37v-14.068q-.084-.45.37-.37h12.797q.45-.082.37.37v2.092q.082.452-.37.4h-10.008q-.4-.082-.37.37v8.12q0 .37.37.164a8.647 8.647 0 0 1 4.061-.943 7.261 7.261 0 0 1 5.332 2.092 7.727 7.727 0 0 1 2.092 5.619v3.732a8.037 8.037 0 0 1-2.338 5.865 8.13 8.13 0 0 1-5.66 2.256 7.618 7.618 0 0 1-5.496-2.174 7.905 7.905 0 0 1-2.256-5.414q-.083-.4.37-.37h2.133q.45-.04.45.492h0z" opacity=".6" class="S"/><path d="M35.865 207.652H142.58m111.528 0h159.15m259.902 0h152.2" opacity=".4" fill="none" stroke="#fff" class="W X Y"/><g opacity=".8" class="S"><path d="M405.442 497.257a8.361 8.361 0 0 1-6.443 2.735c-5.795 0-9.035-4.75-9.035-10.187 0-5.4 3.24-10.15 9.035-10.15a8.362 8.362 0 0 1 6.443 2.736 1.568 1.568 0 0 1 .432 1.044 1.677 1.677 0 0 1-1.62 1.548 1.703 1.703 0 0 1-1.116-.504 5.288 5.288 0 0 0-4.14-1.764c-3.6 0-5.94 2.808-5.94 7.1 0 4.32 2.34 7.127 5.94 7.127a5.354 5.354 0 0 0 4.14-1.764 1.437 1.437 0 0 1 1.116-.54 1.554 1.554 0 0 1 1.188 2.628zm18.468 2.123a1.454 1.454 0 0 1-1.512-1.512V487.86a5.13 5.13 0 1 0-10.259 0v9.97a1.53 1.53 0 0 1-1.584 1.584 1.483 1.483 0 0 1-1.512-1.548V475.3a1.548 1.548 0 0 1 3.096-.036v6.228a7.26 7.26 0 0 1 5.111-1.836 8.273 8.273 0 0 1 8.207 8.207v9.97a1.472 1.472 0 0 1-1.548 1.548zm7.273-22.028a2.592 2.592 0 1 1 2.592-2.592 2.581 2.581 0 0 1-2.592 2.592zm0 22.03a1.512 1.512 0 0 1-1.584-1.512v-16.054a1.52 1.52 0 0 1 1.584-1.548 1.483 1.483 0 0 1 1.512 1.548v16.054a1.452 1.452 0 0 1-1.512 1.512zm9.43.07a3.673 3.673 0 0 1-3.6-3.671V475.3a1.548 1.548 0 0 1 3.096-.036v20.518a.568.568 0 0 0 .504.612 1.53 1.53 0 1 1 0 3.06zm19.8-.108a1.462 1.462 0 0 1-1.548-1.512 8.711 8.711 0 0 1-5.939 2.16c-5.795 0-9.035-4.75-9.035-10.187 0-5.4 3.24-10.15 9.035-10.15a7.931 7.931 0 0 1 5.939 2.34V475.3a1.548 1.548 0 0 1 3.096-.036v22.57a1.462 1.462 0 0 1-1.548 1.512zm-7.487-16.63c-3.6 0-5.94 2.808-5.94 7.1 0 4.32 2.34 7.127 5.94 7.127 3.636 0 5.94-2.808 5.94-7.127 0-4.284-2.304-7.1-5.94-7.1zm21.634 0a5.186 5.186 0 0 0-5.111 5.147v9.97a1.5 1.5 0 0 1-1.584 1.548 1.474 1.474 0 0 1-1.512-1.512v-16.054a1.525 1.525 0 0 1 1.512-1.548 1.478 1.478 0 0 1 1.548 1.224 8.324 8.324 0 0 1 5.147-1.836 1.531 1.531 0 1 1 0 3.06z"/><use xlink:href="#R" x="27.428" y="281.494"/><path d="M511.92 499.38a1.454 1.454 0 0 1-1.512-1.512v-10.007a5.129 5.129 0 1 0-10.259 0v9.97a1.53 1.53 0 0 1-1.583 1.584 1.483 1.483 0 0 1-1.512-1.548v-16.1a1.432 1.432 0 0 1 1.512-1.512 1.504 1.504 0 0 1 1.547 1.188 8.221 8.221 0 0 1 13.354 6.407v9.97a1.472 1.472 0 0 1-1.548 1.548z"/><use xlink:href="#S" x="9.968" y="281.483"/><path d="M562.968 491.4H549.65c.504 3.384 2.664 5.543 5.83 5.543a5.402 5.402 0 0 0 4.284-1.872 1.49 1.49 0 0 1 1.116-.576 1.68 1.68 0 0 1 1.62 1.584c0 .432-.108.756-.864 1.512a8.769 8.769 0 0 1-6.155 2.412c-5.795 0-9.035-4.787-9.035-10.187 0-5.363 3.24-10.15 9.035-10.15 5.867 0 9 4.788 9 10.15a1.535 1.535 0 0 1-1.512 1.583zm-7.487-8.675c-3.383 0-5.363 2.484-5.83 5.58h11.663c-.504-3.456-2.664-5.58-5.832-5.58z"/><use xlink:href="#U"/><path d="M609.803 499.38a1.474 1.474 0 0 1-1.513-1.512v-11.34a3.798 3.798 0 1 0-7.595-.036v11.338a1.472 1.472 0 0 1-1.548 1.548 1.454 1.454 0 0 1-1.512-1.512v-11.34a3.816 3.816 0 0 0-7.631-.036v11.338a1.501 1.501 0 0 1-1.584 1.548 1.474 1.474 0 0 1-1.512-1.512v-16.1a1.579 1.579 0 0 1 2.88-.864 6.932 6.932 0 0 1 3.995-1.26 6.815 6.815 0 0 1 5.363 2.556 6.744 6.744 0 0 1 5.327-2.556 6.875 6.875 0 0 1 6.911 6.839v11.338a1.5 1.5 0 0 1-1.583 1.548zm13.86.613c-5.795 0-9.035-4.75-9.035-10.187 0-5.4 3.24-10.15 9.035-10.15s9.035 4.75 9.035 10.15c0 5.435-3.24 10.187-9.035 10.187zm0-17.278c-3.6 0-5.94 2.808-5.94 7.1 0 4.32 2.34 7.127 5.94 7.127 3.636 0 5.94-2.808 5.94-7.127 0-4.284-2.304-7.1-5.94-7.1z"/><use xlink:href="#T" x="60.332" y="281.483"/><path d="M661.246 499.38a1.454 1.454 0 0 1-1.512-1.512V487.86a5.13 5.13 0 1 0-10.259 0v9.97a1.53 1.53 0 0 1-1.584 1.584 1.483 1.483 0 0 1-1.512-1.548V475.3a1.548 1.548 0 0 1 3.096-.036v6.228a7.26 7.26 0 0 1 5.111-1.836 8.274 8.274 0 0 1 8.207 8.207v9.97a1.472 1.472 0 0 1-1.548 1.548zm21.312-7.98H669.24c.504 3.384 2.664 5.543 5.83 5.543a5.403 5.403 0 0 0 4.284-1.872 1.489 1.489 0 0 1 1.115-.576 1.68 1.68 0 0 1 1.62 1.584c0 .432-.108.756-.864 1.512a8.77 8.77 0 0 1-6.155 2.412c-5.795 0-9.034-4.787-9.034-10.187 0-5.363 3.24-10.15 9.034-10.15 5.867 0 9 4.788 9 10.15a1.535 1.535 0 0 1-1.512 1.583zm-7.487-8.675c-3.383 0-5.363 2.484-5.83 5.58h11.663c-.504-3.456-2.664-5.58-5.832-5.58z"/><use xlink:href="#U" x="119.59"/></g><path d="M36 488.135h342.75m328.57 0H1046" opacity=".4" fill="none" stroke="#fff" class="W X Y"/><path d="M418.272 779.384v5.4a1.509 1.509 0 0 1-1.584 1.583 1.493 1.493 0 0 1-1.512-1.583v-5.4a13.18 13.18 0 0 1-7.019-2.916 1.574 1.574 0 0 1-.504-1.116 1.591 1.591 0 0 1 1.584-1.548c.54 0 .684.18 1.332.685a9.845 9.845 0 0 0 5.975 1.907c4.248 0 6.155-1.548 6.155-4.2 0-7.487-14.362-3.24-14.362-13.03 0-3.924 2.843-6.048 6.84-6.48v-5.1a1.483 1.483 0 0 1 1.512-1.548 1.501 1.501 0 0 1 1.584 1.548v5.1a10.34 10.34 0 0 1 6.299 2.951 1.422 1.422 0 0 1 .396.973 1.649 1.649 0 0 1-1.548 1.619c-.54 0-.828-.252-1.44-.792a7.908 7.908 0 0 0-5.219-1.764c-3.888 0-5.363 1.548-5.363 3.492 0 6.73 14.362 2.735 14.362 13.03 0 4.68-3.456 6.73-7.487 7.2zm24.48.07c-7.92 0-10.475-6.66-10.475-13.426 0-6.947 2.736-13.463 10.475-13.463a9.21 9.21 0 0 1 7.991 3.924 1.536 1.536 0 0 1 .324.9 1.724 1.724 0 0 1-1.728 1.548c-.648 0-.72-.288-1.296-.937a6.28 6.28 0 0 0-5.291-2.34c-5.543 0-7.38 4.716-7.38 10.367 0 4.932 1.332 10.366 7.38 10.366 4.392 0 7.02-3.13 7.27-8.314h-3.24a1.501 1.501 0 0 1-1.584-1.548 1.483 1.483 0 0 1 1.512-1.548h4.932a1.512 1.512 0 0 1 1.584 1.584c-.144 6.73-2.844 12.886-10.475 12.886zm22.86-.61h-7.45a1.638 1.638 0 0 1-1.584-1.512v-22.57a1.616 1.616 0 0 1 1.584-1.548h7.45c7.415 0 9.863 6.12 9.863 12.778 0 6.695-2.448 12.85-9.863 12.85zm0-22.57h-5.94v19.5h5.94c4.644 0 6.767-3.42 6.767-9.8 0-6.264-2.124-9.72-6.767-9.72zm24.443 11.483h-7.703v9.54a1.548 1.548 0 0 1-3.096.036v-22.57a1.494 1.494 0 0 1 1.512-1.548h9.323a7.271 7.271 0 0 1-.036 14.542zm0-11.482h-7.703v8.423h7.667a4.212 4.212 0 0 0 .036-8.423zm27.575 23.18a7.878 7.878 0 0 1-5.939-2.375v7.8a1.5 1.5 0 0 1-1.583 1.548 1.483 1.483 0 0 1-1.512-1.548v-23.613a1.483 1.483 0 0 1 1.512-1.548 1.5 1.5 0 0 1 1.583 1.548 8.642 8.642 0 0 1 5.939-2.195c5.795 0 9.035 4.75 9.035 10.15 0 5.472-3.24 10.223-9.035 10.223zm0-17.313c-3.563 0-5.94 2.844-5.94 7.1 0 4.32 2.34 7.163 5.94 7.163s5.94-2.808 5.94-7.127c0-4.283-2.34-7.127-5.94-7.127zm28.295 8.71h-13.318c.504 3.384 2.664 5.543 5.83 5.543a5.402 5.402 0 0 0 4.284-1.871 1.488 1.488 0 0 1 1.116-.576 1.68 1.68 0 0 1 1.62 1.584c0 .432-.108.756-.864 1.512a8.771 8.771 0 0 1-6.155 2.411c-5.795 0-9.035-4.787-9.035-10.187 0-5.363 3.24-10.15 9.035-10.15 5.867 0 9 4.787 9 10.15a1.535 1.535 0 0 1-1.512 1.584zm-7.487-8.675c-3.383 0-5.363 2.483-5.83 5.58h11.663c-.504-3.455-2.664-5.58-5.832-5.58zm20.376 0a5.186 5.186 0 0 0-5.111 5.147v9.97a1.5 1.5 0 0 1-1.583 1.548 1.474 1.474 0 0 1-1.512-1.512v-16.055a1.525 1.525 0 0 1 1.512-1.548 1.478 1.478 0 0 1 1.548 1.225 8.321 8.321 0 0 1 5.147-1.836 1.531 1.531 0 1 1 0 3.06zm20.086 17.277a7.878 7.878 0 0 1-5.939-2.375v7.8a1.501 1.501 0 0 1-1.584 1.548 1.483 1.483 0 0 1-1.512-1.548v-23.613a1.483 1.483 0 0 1 1.512-1.548 1.501 1.501 0 0 1 1.584 1.548 8.642 8.642 0 0 1 5.939-2.195c5.795 0 9.034 4.75 9.034 10.15 0 5.472-3.24 10.223-9.034 10.223zm0-17.313c-3.563 0-5.94 2.844-5.94 7.1 0 4.32 2.34 7.163 5.94 7.163s5.938-2.808 5.938-7.127c0-4.283-2.34-7.127-5.938-7.127zm28.296 8.71h-13.318c.504 3.384 2.663 5.543 5.83 5.543a5.401 5.401 0 0 0 4.283-1.871 1.489 1.489 0 0 1 1.116-.576 1.679 1.679 0 0 1 1.619 1.584c0 .432-.107.756-.863 1.512a8.772 8.772 0 0 1-6.155 2.411c-5.795 0-9.035-4.787-9.035-10.187 0-5.363 3.24-10.15 9.035-10.15 5.867 0 9 4.787 9 10.15a1.535 1.535 0 0 1-1.512 1.584zm-7.487-8.675c-3.384 0-5.363 2.483-5.83 5.58h11.662c-.504-3.455-2.663-5.58-5.83-5.58zm20.376 0a5.186 5.186 0 0 0-5.111 5.147v9.97a1.501 1.501 0 0 1-1.584 1.548 1.474 1.474 0 0 1-1.512-1.512v-16.055a1.525 1.525 0 0 1 1.512-1.548 1.478 1.478 0 0 1 1.548 1.225 8.322 8.322 0 0 1 5.147-1.836 1.531 1.531 0 1 1 0 3.06zm8.965 17.277c-1.98 0-5.3-.6-6.983-2.7a1.593 1.593 0 0 1 1.296-2.556 1.479 1.479 0 0 1 1.116.611 6.147 6.147 0 0 0 4.571 1.584c3.24 0 4.283-1.115 4.283-2.735 0-4.607-10.98-1.764-10.98-9.18 0-3.924 3.672-5.363 7.1-5.363 1.944 0 6.516.972 6.516 2.987a1.616 1.616 0 0 1-1.512 1.62 2.162 2.162 0 0 1-1.187-.468 5.838 5.838 0 0 0-3.816-1.08c-2.987 0-4.03 1.115-4.03 2.304 0 4.283 11.015 1.512 11.015 9.18 0 4.247-3.563 5.795-7.38 5.795zm18.574 0c-5.795 0-9.034-4.75-9.034-10.187 0-5.4 3.24-10.15 9.034-10.15s9.035 4.75 9.035 10.15c0 5.436-3.24 10.187-9.035 10.187zm0-17.277c-3.6 0-5.938 2.808-5.938 7.1 0 4.32 2.34 7.127 5.938 7.127 3.636 0 5.94-2.808 5.94-7.127 0-4.283-2.304-7.1-5.94-7.1zm27.466 16.666a1.454 1.454 0 0 1-1.512-1.512v-10.007a5.13 5.13 0 1 0-10.259 0v9.97a1.53 1.53 0 0 1-1.583 1.584 1.484 1.484 0 0 1-1.513-1.548v-16.1a1.433 1.433 0 0 1 1.513-1.513 1.506 1.506 0 0 1 1.548 1.188 8.22 8.22 0 0 1 13.354 6.407v9.97a1.472 1.472 0 0 1-1.548 1.548z" opacity=".8" class="S"/><path d="M36 766.598h361.995m289.42 0H1046M939.286 207.652H1046" opacity=".4" fill="none" stroke="#fff" class="W X Y"/><g class="S"><path d="M213.305 80h-16.14a2.73 2.73 0 0 1-2.64-2.52V39.862a2.511 2.511 0 0 1 2.52-2.58h14.88a11.255 11.255 0 0 1 11.22 11.1 10.802 10.802 0 0 1-3.42 7.979 12.411 12.411 0 0 1 6.3 10.919A12.804 12.804 0 0 1 213.305 80zm-1.38-37.62h-12.24V54.5h12.24a6.06 6.06 0 0 0 0-12.12zm1.38 17.22h-13.62v15.3h13.62a7.65 7.65 0 0 0 0-15.3zm46.02 20.4a5.839 5.839 0 0 1-5.34-3.42 13.748 13.748 0 0 1-10.56 4.44c-9.78 0-15.06-8.04-15.06-16.98s5.4-16.92 15.06-16.92a13.259 13.259 0 0 1 9.899 3.96v-.24a2.476 2.476 0 0 1 2.52-2.7 2.412 2.412 0 0 1 2.641 2.52v23.16a.971.971 0 0 0 .84 1.08 2.55 2.55 0 1 1 0 5.1zm-15.9-27.78c-6 0-9.9 4.68-9.9 11.82 0 7.2 3.9 11.88 9.9 11.88 6.06 0 9.9-4.68 9.9-11.88 0-7.14-3.84-11.82-9.9-11.82zM289.863 80a2.423 2.423 0 0 1-2.52-2.52V60.8a8.55 8.55 0 1 0-17.1 0v16.62a2.55 2.55 0 0 1-2.64 2.64 2.472 2.472 0 0 1-2.52-2.58V50.66a2.387 2.387 0 0 1 2.52-2.52 2.509 2.509 0 0 1 2.58 1.98 13.702 13.702 0 0 1 22.259 10.68v16.62a2.454 2.454 0 0 1-2.58 2.58zm21.84 13.68c-3.66 0-12.72-1.32-12.72-4.92a2.794 2.794 0 0 1 2.58-2.7c1.38 0 .18.18 3.36 1.38a18.754 18.754 0 0 0 6.78 1.14c6.66 0 9.9-3.18 9.9-9.48v-2.7a14.038 14.038 0 0 1-9.899 3.6c-9.48 0-15.06-6.72-15.06-15.96 0-9 5.4-16.92 15.06-16.92 4.2 0 7.44 1.26 9.9 3.84v-.24a2.553 2.553 0 0 1 2.58-2.58 2.519 2.519 0 0 1 2.58 2.58V79.1c0 9.54-5.7 14.58-15.06 14.58zm0-41.458c-6 0-9.9 4.68-9.9 11.82 0 6.84 3.6 10.86 9.9 10.86s9.9-4.02 9.9-10.86c0-7.14-3.84-11.82-9.9-11.82z"/><use xlink:href="#V"/><use xlink:href="#W"/><path d="M405.662 79.94a2.436 2.436 0 0 1-2.58-2.52 14.518 14.518 0 0 1-9.899 3.6c-9.66 0-15.06-7.92-15.06-16.98 0-9 5.4-16.92 15.06-16.92a13.224 13.224 0 0 1 9.899 3.9v-11.16a2.58 2.58 0 0 1 5.16-.06V77.42a2.437 2.437 0 0 1-2.58 2.52zm-12.48-27.72c-6 0-9.9 4.68-9.9 11.82 0 7.2 3.9 11.88 9.9 11.88 6.06 0 9.9-4.68 9.9-11.88 0-7.14-3.84-11.82-9.9-11.82z"/><use xlink:href="#X"/><use xlink:href="#Y"/><path d="M498 80a2.423 2.423 0 0 1-2.52-2.52V60.8a8.55 8.55 0 1 0-17.1 0v16.62a2.55 2.55 0 0 1-2.64 2.64 2.472 2.472 0 0 1-2.52-2.58V39.862a2.58 2.58 0 0 1 5.159-.06v10.38a12.097 12.097 0 0 1 8.52-3.06 13.79 13.79 0 0 1 13.68 13.68v16.62a2.454 2.454 0 0 1-2.58 2.58z"/></g><g fill="#5ff2f2"><path d="M546.06 80a2.52 2.52 0 0 1-2.64-2.52V59.66h-19.8v17.82a2.58 2.58 0 0 1-5.159 0V39.802a2.58 2.58 0 0 1 5.159 0v14.76h19.8v-14.7a2.58 2.58 0 1 1 5.159 0V77.42a2.541 2.541 0 0 1-2.52 2.58z"/><use xlink:href="#W" x="210.538"/><use xlink:href="#Y" x="142.918"/><path d="M656.038 42.382H633.6V54.5h15.72a2.561 2.561 0 0 1 2.58 2.58 2.523 2.523 0 0 1-2.58 2.58H633.6v17.82a2.581 2.581 0 0 1-5.16 0V39.862a2.612 2.612 0 0 1 2.64-2.58h24.96a2.425 2.425 0 0 1 2.521 2.52 2.505 2.505 0 0 1-2.521 2.58z"/><use xlink:href="#V" x="330.117"/><path d="M687.958 81.02c-9.66 0-15.06-7.92-15.06-16.98 0-9 5.4-16.92 15.06-16.92s15.06 7.92 15.06 16.92c0 9.06-5.4 16.98-15.06 16.98zm0-28.8c-6 0-9.9 4.68-9.9 11.82 0 7.2 3.9 11.88 9.9 11.88 6.06 0 9.9-4.68 9.9-11.88 0-7.14-3.84-11.82-9.9-11.82zm44.1 27.84a2.446 2.446 0 0 1-2.521-1.98 13.965 13.965 0 0 1-8.64 3 13.79 13.79 0 0 1-13.679-13.68V50.78a2.58 2.58 0 0 1 5.159-.06V67.4a8.55 8.55 0 1 0 17.1 0V50.78a2.393 2.393 0 0 1 2.52-2.64 2.454 2.454 0 0 1 2.58 2.58v26.82a2.39 2.39 0 0 1-2.52 2.52zm22.32-27.838a8.644 8.644 0 0 0-8.52 8.58v16.62a2.502 2.502 0 0 1-2.641 2.58 2.456 2.456 0 0 1-2.52-2.52v-26.76a2.541 2.541 0 0 1 2.52-2.58 2.463 2.463 0 0 1 2.58 2.04 13.874 13.874 0 0 1 8.58-3.06 2.552 2.552 0 1 1 0 5.1zm6.48-8.94a4.32 4.32 0 1 1 4.32-4.319 4.302 4.302 0 0 1-4.32 4.319zm0 36.72a2.52 2.52 0 0 1-2.64-2.52v-26.76a2.533 2.533 0 0 1 2.64-2.58 2.472 2.472 0 0 1 2.521 2.58v26.76a2.421 2.421 0 0 1-2.521 2.52z"/><use xlink:href="#Y" x="322.614"/><path d="M820.615 80a2.424 2.424 0 0 1-2.521-2.52V60.8a8.549 8.549 0 1 0-17.099 0v16.62a2.551 2.551 0 0 1-2.641 2.64 2.472 2.472 0 0 1-2.52-2.58V39.862a2.58 2.58 0 0 1 5.16-.06v10.38a12.097 12.097 0 0 1 8.52-3.06 13.791 13.791 0 0 1 13.68 13.68v16.62a2.454 2.454 0 0 1-2.58 2.58z"/><use xlink:href="#X" x="414.413"/><path d="M887.694 79.94a2.437 2.437 0 0 1-2.58-2.52 14.515 14.515 0 0 1-9.899 3.6c-9.66 0-15.06-7.92-15.06-16.98 0-9 5.4-16.92 15.06-16.92a13.222 13.222 0 0 1 9.899 3.9v-11.16a2.58 2.58 0 0 1 5.16-.06V77.42a2.436 2.436 0 0 1-2.58 2.52zm-12.48-27.72c-6 0-9.9 4.68-9.9 11.82 0 7.2 3.9 11.88 9.9 11.88 6.06 0 9.9-4.68 9.9-11.88 0-7.14-3.84-11.82-9.9-11.82z"/></g><g class="S"><path d="M293.793 142.22c-4.38 0-10.5-1.8-13.92-4.98a2.399 2.399 0 0 1-.84-1.86 2.599 2.599 0 0 1 2.58-2.58c.9 0 1.2.3 2.28 1.14a16.243 16.243 0 0 0 9.899 3.18c7.14 0 10.26-2.58 10.26-7.02 0-12.48-23.938-5.4-23.938-21.72 0-7.32 6.18-10.98 14.1-10.98 4.14 0 10.08 1.62 13.02 5.1a2.362 2.362 0 0 1 .66 1.62 2.794 2.794 0 0 1-2.58 2.7c-.9 0-1.38-.42-2.4-1.32a13.183 13.183 0 0 0-8.7-2.94c-6.48 0-8.94 2.58-8.94 5.82 0 11.22 23.94 4.56 23.94 21.72 0 8.94-7.5 12.12-15.42 12.12zm21.72-37.738a4.32 4.32 0 1 1 4.32-4.319 4.302 4.302 0 0 1-4.32 4.319zm0 36.72a2.52 2.52 0 0 1-2.64-2.52v-26.76a2.533 2.533 0 0 1 2.64-2.58 2.472 2.472 0 0 1 2.52 2.58v26.76a2.421 2.421 0 0 1-2.52 2.52zm33.658-.002a2.423 2.423 0 0 1-2.52-2.52V122a8.55 8.55 0 1 0-17.1 0v16.62a2.55 2.55 0 0 1-2.64 2.64 2.472 2.472 0 0 1-2.52-2.58v-26.82a2.387 2.387 0 0 1 2.52-2.52 2.509 2.509 0 0 1 2.58 1.98A13.702 13.702 0 0 1 351.751 122v16.62a2.454 2.454 0 0 1-2.58 2.58zm32.58-3.54a13.935 13.935 0 0 1-10.739 4.56c-9.66 0-15.06-7.92-15.06-16.98 0-9 5.4-16.92 15.06-16.92a13.935 13.935 0 0 1 10.739 4.56 2.613 2.613 0 0 1 .72 1.74 2.793 2.793 0 0 1-2.699 2.58 2.842 2.842 0 0 1-1.86-.84 8.813 8.813 0 0 0-6.899-2.94c-6 0-9.9 4.68-9.9 11.82 0 7.2 3.9 11.88 9.9 11.88a8.922 8.922 0 0 0 6.899-2.939 2.396 2.396 0 0 1 1.86-.9 2.59 2.59 0 0 1 1.98 4.38zm30.958-9.78h-22.2c.84 5.64 4.44 9.24 9.72 9.24a9.007 9.007 0 0 0 7.14-3.12 2.483 2.483 0 0 1 1.859-.96 2.8 2.8 0 0 1 2.7 2.64c0 .72-.18 1.26-1.44 2.52a14.622 14.622 0 0 1-10.26 4.02c-9.66 0-15.06-7.98-15.06-16.98 0-8.94 5.4-16.92 15.06-16.92 9.78 0 15 7.98 15 16.92a2.558 2.558 0 0 1-2.519 2.64zm-12.48-14.46c-5.64 0-8.94 4.14-9.72 9.3h19.44c-.84-5.76-4.44-9.3-9.72-9.3zM439 141.2h-6.9a2.55 2.55 0 0 1 0-5.1h.9v-32.52h-.9a2.55 2.55 0 0 1 0-5.1h6.9a2.551 2.551 0 1 1 0 5.1h-.9v32.52h.9a2.551 2.551 0 1 1 0 5.1z"/><use xlink:href="#Z"/><path d="M504.75 141.14a2.437 2.437 0 0 1-2.58-2.52 14.515 14.515 0 0 1-9.899 3.6c-9.66 0-15.06-7.92-15.06-16.98 0-9 5.4-16.92 15.06-16.92a13.222 13.222 0 0 1 9.899 3.9v-11.16a2.58 2.58 0 0 1 5.16-.06v37.618a2.436 2.436 0 0 1-2.58 2.52zm-12.48-27.72c-6 0-9.9 4.68-9.9 11.82 0 7.2 3.9 11.88 9.9 11.88 6.06 0 9.9-4.68 9.9-11.88 0-7.14-3.84-11.82-9.9-11.82z"/><use xlink:href="#a"/><path d="M561.27 142.22a13.131 13.131 0 0 1-9.899-3.96v13.02a2.501 2.501 0 0 1-2.64 2.58 2.472 2.472 0 0 1-2.52-2.58v-39.358a2.472 2.472 0 0 1 2.52-2.58 2.501 2.501 0 0 1 2.64 2.58 14.401 14.401 0 0 1 9.899-3.66c9.66 0 15.06 7.92 15.06 16.92 0 9.12-5.4 17.04-15.06 17.04zm0-28.86c-5.94 0-9.9 4.74-9.9 11.82 0 7.2 3.9 11.94 9.9 11.94s9.9-4.68 9.9-11.88c0-7.14-3.9-11.88-9.9-11.88z"/><use xlink:href="#a" x="67.62"/><use xlink:href="#Z" x="168.178"/><path d="M672.928 141.14a2.436 2.436 0 0 1-2.58-2.52 14.518 14.518 0 0 1-9.899 3.6c-9.66 0-15.06-7.92-15.06-16.98 0-9 5.4-16.92 15.06-16.92a13.224 13.224 0 0 1 9.899 3.9v-11.16a2.58 2.58 0 0 1 5.16-.06v37.618a2.437 2.437 0 0 1-2.58 2.52zm-12.48-27.72c-6 0-9.9 4.68-9.9 11.82 0 7.2 3.9 11.88 9.9 11.88 6.06 0 9.9-4.68 9.9-11.88 0-7.14-3.84-11.82-9.9-11.82z"/><use xlink:href="#X" x="267.265" y="61.2"/><use xlink:href="#Z" x="268.737"/><path d="M771.747 137.66a13.937 13.937 0 0 1-10.74 4.56c-9.66 0-15.06-7.92-15.06-16.98 0-9 5.4-16.92 15.06-16.92a13.937 13.937 0 0 1 10.74 4.56 2.618 2.618 0 0 1 .72 1.74 2.794 2.794 0 0 1-2.7 2.58 2.838 2.838 0 0 1-1.859-.84 8.816 8.816 0 0 0-6.9-2.94c-6 0-9.9 4.68-9.9 11.82 0 7.2 3.9 11.88 9.9 11.88a8.924 8.924 0 0 0 6.9-2.939 2.396 2.396 0 0 1 1.859-.9 2.59 2.59 0 0 1 1.98 4.38z"/><use xlink:href="#a" x="263.096"/></g></svg>