<svg xmlns="http://www.w3.org/2000/svg" xmlns:xlink="http://www.w3.org/1999/xlink" viewBox="0 0 1080 1080"><linearGradient id="A" gradientUnits="userSpaceOnUse" x1="11.716" y1="11.716" x2="1068.284" y2="1068.284"><stop offset="0" stop-color="#fc466b"/><stop offset=".242" stop-color="#c14d98"/><stop offset=".498" stop-color="#8a55c2"/><stop offset=".72" stop-color="#615ae1"/><stop offset=".894" stop-color="#485df4"/><stop offset="1" stop-color="#3f5efb"/></linearGradient><path d="M1040 1080H40c-22.09 0-40-17.91-40-40V40C0 17.91 17.91 0 40 0h1000c22.09 0 40 17.91 40 40v1000c0 22.09-17.91 40-40 40z" fill="url(#A)"/><path d="M22 418.925h795v128.617H22z" fill="#07abab"/><g opacity=".05"><path d="M633.79 51.732h17.48c6.143 0 10.783 1.768 13.918 5.3s4.702 9.035 4.702 16.5v28.6c0 7.467-1.567 12.967-4.702 16.5s-7.775 5.3-13.918 5.3h-17.48v-72.2zm11.78 62h4.085c3.166 0 5.367-.732 6.603-2.2s1.852-4.1 1.852-7.9v-31.6c0-3.8-.617-6.433-1.852-7.9s-3.437-2.2-6.603-2.2h-4.085v51.8z"/><use xlink:href="#C"/><use xlink:href="#D"/><use xlink:href="#D" x="39.623"/><use xlink:href="#E"/><use xlink:href="#F"/><use xlink:href="#C" x="181.674"/><use xlink:href="#G"/><use xlink:href="#H"/><use xlink:href="#C" x="272.844"/><use xlink:href="#E" x="193.836"/><path d="M1009.9 123.932v-72.2h10.925l14.345 41.3h.2v-41.3H1046v72.2h-10.26l-15-45.1h-.2v45.1h-10.64zm-530.88 91h-11.4l12.635-72.2h14.63l12.635 72.2h-11.4l-2.1-16H481.1l-2.1 16zm3.8-26.8h9.5l-4.655-31h-.2l-4.655 31z"/><use xlink:href="#H" x="-406.829" y="91"/><use xlink:href="#H" x="-370.503" y="91"/><use xlink:href="#I"/><path d="M615.875 214.932v-72.2H626.8l14.346 41.3h.19v-41.3h10.64v72.2h-10.26l-15-45.1h-.19v45.1h-10.64z"/><use xlink:href="#H" x="-254.528" y="91"/><use xlink:href="#C" x="18.315" y="91"/><use xlink:href="#E" x="-60.693" y="91"/><path d="M755.372 214.932v-72.2h10.925l14.345 41.3h.2v-41.3h10.64v72.2h-10.26l-15-45.1h-.2v45.1h-10.64zm61.558-72.2h17.48c6.143 0 10.783 1.768 13.918 5.3s4.702 9.035 4.702 16.5v28.6c0 7.467-1.567 12.967-4.702 16.5s-7.775 5.3-13.918 5.3h-17.48v-72.2zm11.78 62h4.085c3.166 0 5.367-.732 6.603-2.2s1.852-4.1 1.852-7.9v-31.6c0-3.8-.617-6.433-1.852-7.9s-3.437-2.2-6.603-2.2H828.7v51.8z"/><use xlink:href="#I" x="280.777"/><path d="M896.652 214.932v-72.2h32.87v10.8h-21.1v18.6h15.77v10.8h-15.77v32h-11.78z"/><use xlink:href="#C" x="258.604" y="91"/><use xlink:href="#F" x="137.691" y="91"/><use xlink:href="#C" x="319.367" y="91"/><use xlink:href="#H" x="101.83" y="91"/><path d="M567.38 305.933v-72.2h11.78v29.4h12.54v-29.4h11.78v72.2H591.7v-32h-12.54v32h-11.78zm65.798 0h-11.78v-30l-14.25-42.2h11.97l8.264 27.5h.2l7.885-27.5h11.97l-14.25 42.2v30zm17.867 0v-72.2h16.9c7.282 0 12.65 1.635 16.103 4.9s5.177 8.734 5.177 16.4c0 3.867-.427 7.15-1.282 9.85s-2.153 4.9-3.895 6.6-3.96 2.935-6.65 3.7-5.843 1.15-9.452 1.15h-5.13v29.6h-11.78zm11.78-39.8h4.56c1.9 0 3.5-.166 4.798-.5s2.342-.933 3.135-1.8 1.345-2.016 1.662-3.45.476-3.216.476-5.35-.16-3.915-.476-5.35-.87-2.565-1.662-3.4-1.838-1.433-3.135-1.8-2.897-.55-4.798-.55h-4.56v22.2z"/><use xlink:href="#I" x="115.919" y="91.001"/><path d="M743.574 305.933h-11.78v-72.2h16.53c6.586 0 11.557 1.635 14.914 4.9s5.035 8.734 5.035 16.4c0 2.935-.237 5.435-.712 7.5s-1.11 3.817-1.9 5.25-1.68 2.585-2.66 3.45-1.98 1.534-2.992 2l9.975 32.7h-11.97l-8.36-29.9c-.76.135-1.694.218-2.802.25a103.38 103.38 0 0 1-3.277.051v29.6zm0-39.8h4.18c1.582 0 2.93-.166 4.037-.5s2-.933 2.708-1.8 1.202-2.016 1.52-3.45.476-3.216.476-5.35c0-4.266-.665-7.183-1.995-8.75s-3.58-2.35-6.745-2.35h-4.18v22.2z"/><use xlink:href="#G" x="-101.655" y="182.001"/><use xlink:href="#F" x="-0.777" y="182"/><use xlink:href="#H" x="-56.037" y="182"/><use xlink:href="#C" x="216.807" y="182.001"/><path d="M938.283 233.732h11.6l-14.345 72.2h-11.78l-14.345-72.2h11.6l8.55 50.1h.19l8.55-50.1z"/><use xlink:href="#C" x="277.71" y="182.001"/><path d="M981.83 244.532h-11.4v-10.8H1005v10.8h-11.4v61.4h-11.78v-61.4zm50.872 61.4h-11.78v-30l-14.25-42.2h11.97l8.265 27.5h.2l7.885-27.5h11.97l-14.25 42.2v30zm-842.7 18.8h18.032c6.532 0 11.302 1.635 14.308 4.9s4.508 8 4.508 14.2a22.11 22.11 0 0 1-.5 4.65c-.336 1.566-.832 3.018-1.52 4.35a14.08 14.08 0 0 1-2.646 3.6c-1.078 1.067-2.337 1.9-3.773 2.5 3.137 1.4 5.553 3.435 7.252 6.1s2.55 6.335 2.55 11c0 3-.344 5.768-1.03 8.3s-1.78 4.734-3.283 6.6-3.464 3.334-5.88 4.4-5.358 1.6-8.82 1.6h-19.208v-72.2zm12.152 29.6h4.4c2.285 0 4.213-.783 5.78-2.35s2.353-3.85 2.353-6.85c0-6.8-2.646-10.2-7.938-10.2h-4.605v19.4zm0 32.4h5.096c3.266 0 5.553-.933 6.86-2.8s1.96-4.633 1.96-8.3c0-3.733-.752-6.516-2.254-8.35s-4.084-2.75-7.742-2.75h-3.92v22.2z"/><use xlink:href="#J"/><path d="M290.678 396.933h-12.152v-72.2h17.053c6.793 0 11.922 1.635 15.385 4.9s5.195 8.734 5.195 16.4c0 2.935-.246 5.435-.736 7.5s-1.143 3.817-1.96 5.25-1.732 2.585-2.744 3.45-2.043 1.534-3.088 2l10.3 32.7h-12.348l-8.625-29.9c-.783.135-1.748.218-2.9.25l-3.38.05v29.6zm0-39.8H295c1.63 0 3.02-.166 4.164-.5s2.074-.933 2.793-1.8 1.24-2.016 1.568-3.45.5-3.216.5-5.35c0-4.266-.687-7.183-2.06-8.75s-3.7-2.35-6.957-2.35h-4.312v22.2zm32.898-32.4h18.032c6.337 0 11.123 1.768 14.356 5.3s4.852 9.035 4.852 16.5v28.6c0 7.467-1.617 12.967-4.852 16.5s-8.02 5.3-14.356 5.3h-18.032v-72.2zm12.152 62h4.214c3.267 0 5.537-.732 6.812-2.2s1.9-4.1 1.9-7.9v-31.6c0-3.8-.637-6.433-1.9-7.9s-3.545-2.2-6.812-2.2h-4.214v51.8zm31.84 10.2v-72.2h32.536v10.8H379.72v18.6h15.68v10.8h-15.68v21.2h21.756v10.8h-33.908zm51.772 0h-12.152v-72.2h17.053c6.794 0 11.922 1.635 15.386 4.9s5.194 8.734 5.194 16.4c0 2.935-.245 5.435-.735 7.5s-1.144 3.817-1.96 5.25-1.732 2.585-2.744 3.45-2.043 1.534-3.087 2l10.3 32.7h-12.348l-8.624-29.9c-.784.135-1.75.218-2.892.25a109.96 109.96 0 0 1-3.381.051v29.6zm0-39.8h4.313c1.632 0 3.02-.166 4.164-.5s2.074-.933 2.793-1.8 1.24-2.016 1.568-3.45.5-3.216.5-5.35c0-4.266-.686-7.183-2.06-8.75s-3.7-2.35-6.957-2.35h-4.312v22.2zm32.634 39.8v-72.2h12.15v61.4h19.1v10.8h-31.262z"/><use xlink:href="#K"/><path d="M508.588 396.933v-72.2h11.27l14.8 41.3h.195v-41.3h10.977v72.2h-10.584l-15.484-45.1h-.195v45.1h-10.977z"/><use xlink:href="#L"/><path d="M612.23 396.933v-72.2h17.444c7.512 0 13.05 1.635 16.6 4.9s5.342 8.734 5.342 16.4c0 3.867-.44 7.15-1.323 9.85s-2.222 4.9-4.02 6.6-4.083 2.935-6.86 3.7-6.027 1.15-9.75 1.15h-5.292v29.6h-12.14zm12.152-39.8h4.704c1.96 0 3.608-.166 4.948-.5s2.417-.933 3.234-1.8 1.388-2.016 1.715-3.45.5-3.216.5-5.35-.164-3.915-.5-5.35-.898-2.565-1.715-3.4-1.896-1.433-3.234-1.8-2.988-.55-4.948-.55h-4.704v22.2zm32.898 39.8v-72.2h32.536v10.8h-20.384v18.6h15.68v10.8h-15.68v21.2h21.756v10.8H657.28zm51.773 0H696.9v-72.2h17.052c6.795 0 11.923 1.635 15.387 4.9s5.193 8.734 5.193 16.4c0 2.935-.245 5.435-.734 7.5s-1.145 3.817-1.96 5.25-1.732 2.585-2.744 3.45-2.043 1.534-3.087 2l10.3 32.7h-12.35l-8.624-29.9c-.784.135-1.748.218-2.9.25a109.96 109.96 0 0 1-3.381.051v29.6zm0-39.8h4.312c1.633 0 3.02-.166 4.165-.5s2.073-.933 2.793-1.8 1.24-2.016 1.568-3.45.5-3.216.5-5.35c0-4.266-.687-7.183-2.06-8.75s-3.7-2.35-6.958-2.35h-4.312v22.2z"/><use xlink:href="#M"/><use xlink:href="#N"/><path d="M825.955 396.933v-72.2h11.27l14.798 41.3h.195v-41.3h10.977v72.2H852.6l-15.484-45.1h-.195v45.1h-10.977zm53.605 0H867.8l13.034-72.2h15.092l13.034 72.2H897.2l-2.156-16h-13.328l-2.156 16zm3.92-26.8h9.8l-4.803-31h-.195l-4.802 31zm29.723 26.8v-72.2h12.152v61.4h19.1v10.8h-31.262z"/><use xlink:href="#K" x="461.23"/><use xlink:href="#O"/><path d="M1032.28 396.933h-12.152v-30l-14.7-42.2h12.348l8.525 27.5h.196l8.134-27.5h12.35l-14.7 42.2v30zm-750.683 36.3c0-2.532.376-4.933 1.127-7.2s1.895-4.232 3.43-5.9 3.46-2.983 5.78-3.95 5.08-1.45 8.28-1.45 5.96.484 8.28 1.45 4.246 2.284 5.78 3.95 2.68 3.634 3.43 5.9 1.127 4.668 1.127 7.2v37.2c0 2.534-.377 4.935-1.127 7.2s-1.896 4.234-3.43 5.9-3.463 2.984-5.78 3.95-5.08 1.45-8.28 1.45-5.963-.484-8.28-1.45-4.248-2.282-5.78-3.95-2.68-3.633-3.43-5.9-1.127-4.666-1.127-7.2v-37.2zm12.152 36.9c0 2.734.456 4.75 1.372 6.05s2.6 1.95 5.096 1.95 4.18-.65 5.096-1.95 1.372-3.315 1.372-6.05v-36.6c0-2.732-.458-4.75-1.372-6.05s-2.613-1.95-5.096-1.95-4.182.65-5.096 1.95-1.372 3.317-1.372 6.05v36.6zm30.93-54.4h18.03c6.533 0 11.303 1.635 14.3 4.9s4.508 8 4.508 14.2a22.11 22.11 0 0 1-.5 4.65c-.336 1.566-.833 3.018-1.52 4.35a14.08 14.08 0 0 1-2.646 3.6c-1.077 1.067-2.337 1.9-3.772 2.5 3.136 1.4 5.553 3.435 7.252 6.1s2.548 6.335 2.548 11c0 3-.343 5.768-1.03 8.3s-1.78 4.734-3.282 6.6-3.465 3.334-5.88 4.4-5.357 1.6-8.82 1.6H324.67v-72.2zm12.152 29.6h4.4c2.286 0 4.214-.783 5.782-2.35s2.352-3.85 2.352-6.85c0-6.8-2.646-10.2-7.937-10.2h-4.605v19.4zm0 32.4h5.096c3.266 0 5.552-.933 6.86-2.8s1.96-4.633 1.96-8.3c0-3.733-.75-6.516-2.254-8.35s-4.083-2.75-7.74-2.75h-3.92v22.2zm55.193-44.2c-.132-1.532-.4-2.815-.834-3.85s-.947-1.85-1.567-2.45-1.3-1.032-2-1.3-1.406-.4-2.06-.4c-1.96 0-3.463.617-4.508 1.85s-1.568 2.984-1.568 5.25c0 2.067.604 3.967 1.813 5.7s2.728 3.467 4.558 5.2l5.978 5.25a47.83 47.83 0 0 1 5.978 5.851c1.828 2.134 3.348 4.484 4.558 7.05s1.813 5.484 1.813 8.75c0 3-.476 5.65-1.422 7.95s-2.254 4.234-3.92 5.8-3.7 2.75-6.076 3.55-4.982 1.2-7.8 1.2-5.325-.534-7.546-1.6-4.1-2.516-5.635-4.35-2.73-3.95-3.577-6.35-1.34-4.966-1.47-7.7l11.563-1.7c.26 3.667 1.045 6.4 2.353 8.2s2.94 2.7 4.9 2.7c2.1 0 3.8-.565 5.096-1.7s1.96-2.766 1.96-4.9c0-2.4-.605-4.532-1.812-6.4s-2.73-3.666-4.558-5.4l-5.978-5.2a48.76 48.76 0 0 1-5.98-5.7c-1.83-2.067-3.35-4.4-4.557-7s-1.813-5.633-1.813-9.1c0-5.8 1.632-10.25 4.9-13.35s7.904-4.65 13.916-4.65c2.482 0 4.705.435 6.664 1.3s3.643 2.085 5.047 3.65 2.55 3.417 3.43 5.55 1.453 4.468 1.715 7l-11.563 1.3zm16.707 54.4v-72.2h32.536v10.8h-20.384v18.6h15.68v10.8h-15.68v21.2h21.756v10.8H408.73z"/><use xlink:href="#P"/><use xlink:href="#P" x="40.58"/><path d="M528.63 487.933v-72.2h12.152v72.2H528.63zm46.1-72.2h11.956l-14.798 72.2h-12.152l-14.798-72.2h11.956l8.82 50.1h.195l8.82-50.1zm15.403 72.2v-72.2h32.535v10.8h-20.383v18.6h15.68v10.8h-15.68v21.2h21.756v10.8h-33.908zm81.925-48.1v-5.6c0-3.065-.588-5.282-1.764-6.65s-2.548-2.05-4.116-2.05c-2.483 0-4.182.65-5.096 1.95s-1.372 3.317-1.372 6.05v36.6c0 2.734.456 4.75 1.372 6.05s2.612 1.95 5.096 1.95c2.22 0 3.756-.633 4.606-1.9s1.273-3.065 1.273-5.4v-8.7H684.2v8.3c0 2.534-.377 4.935-1.127 7.2s-1.862 4.234-3.332 5.9-3.35 2.984-5.635 3.95-4.935 1.45-7.938 1.45c-3.202 0-5.963-.484-8.28-1.45s-4.247-2.282-5.782-3.95-2.68-3.633-3.43-5.9-1.127-4.666-1.127-7.2v-37.2c0-2.532.375-4.933 1.127-7.2s1.895-4.232 3.43-5.9 3.463-2.983 5.782-3.95 5.08-1.45 8.28-1.45c3.004 0 5.65.534 7.938 1.6s4.164 2.5 5.635 4.3 2.58 3.9 3.332 6.3 1.127 4.935 1.127 7.6v5.3h-12.152z"/><use xlink:href="#N" x="-91.784" y="91"/><path d="M782.278 415.732v72.2h-10.584v-56.4h-.196l-10.976 56.4h-5.88l-10.977-56.4h-.195v56.4h-10.584v-72.2h15.974l8.624 42.2h.196l8.624-42.2h15.974zm5.782 72.2v-72.2h17.444c7.512 0 13.05 1.635 16.6 4.9s5.342 8.734 5.342 16.4c0 3.867-.44 7.15-1.323 9.85s-2.222 4.9-4.02 6.6-4.083 2.935-6.86 3.7-6.027 1.15-9.75 1.15H800.2v29.6h-12.14zm12.152-39.8h4.704c1.96 0 3.608-.166 4.948-.5s2.417-.933 3.234-1.8 1.388-2.016 1.715-3.45.5-3.216.5-5.35-.164-3.915-.5-5.35-.898-2.565-1.715-3.4-1.896-1.433-3.234-1.8-2.988-.55-4.948-.55h-4.704v22.2zm31.918-32.4h12.152v54.5c0 5.268 2.156 7.9 6.468 7.9s6.468-2.633 6.468-7.9v-54.5h12.152v54c0 6.268-1.65 11.034-4.95 14.3s-7.856 4.9-13.67 4.9-10.373-1.633-13.67-4.9-4.95-8.032-4.95-14.3v-54zm42.964 72.2v-72.2h12.152v61.4h19.1v10.8h-31.262z"/><use xlink:href="#M" x="169.137" y="91"/><use xlink:href="#K" x="462.074" y="91"/><path d="M996.886 415.732h11.956l-14.798 72.2H981.89l-14.798-72.2h11.956l8.82 50.1h.195l8.82-50.1z"/><use xlink:href="#L" x="459.445" y="91"/><path d="M237.213 578.933v-72.2h17.443c7.513 0 13.05 1.635 16.61 4.9s5.34 8.734 5.34 16.4c0 3.867-.44 7.15-1.323 9.85s-2.222 4.9-4.018 6.6-4.084 2.935-6.86 3.7-6.027 1.15-9.752 1.15h-5.29v29.6h-12.152zm12.152-39.8h4.703c1.96 0 3.61-.166 4.95-.5s2.416-.933 3.234-1.8 1.387-2.016 1.715-3.45.5-3.216.5-5.35-.164-3.915-.5-5.35-.898-2.565-1.715-3.4-1.896-1.433-3.234-1.8-2.99-.55-4.95-.55h-4.703v22.2z"/><use xlink:href="#J" x="47.798" y="182"/><use xlink:href="#Q"/><use xlink:href="#O" x="-602.54" y="182"/><path d="M397.87 556.633v-9.2h24v9.2h-24z"/><use xlink:href="#O" x="-548.132" y="182"/><path d="M471.654 578.933h-12.152v-72.2h17.053c6.793 0 11.922 1.635 15.385 4.9s5.195 8.734 5.195 16.4c0 2.935-.246 5.435-.736 7.5s-1.143 3.817-1.96 5.25-1.732 2.585-2.744 3.45-2.043 1.534-3.088 2l10.3 32.7H486.55l-8.625-29.9c-.783.135-1.748.218-2.9.25l-3.38.05v29.6zm0-39.8h4.313c1.63 0 3.02-.166 4.164-.5s2.074-.933 2.793-1.8 1.24-2.016 1.568-3.45.5-3.216.5-5.35c0-4.266-.687-7.183-2.06-8.75s-3.7-2.35-6.957-2.35h-4.312v22.2zm42.59 39.8h-11.76l13.035-72.2h15.092l13.033 72.2h-11.76l-2.156-16H516.4l-2.155 16zm3.92-26.8h9.8l-4.802-31h-.196l-4.802 31zm28.692-45.4H559v54.5c0 5.268 2.156 7.9 6.47 7.9s6.467-2.633 6.467-7.9v-54.5h12.152v54c0 6.268-1.65 11.034-4.95 14.3s-7.856 4.9-13.67 4.9-10.373-1.633-13.672-4.9-4.95-8.032-4.95-14.3v-54zm93.297 0v72.2H629.57v-56.4h-.197l-10.975 56.4h-5.88l-10.976-56.4h-.196v56.4h-10.584v-72.2h15.975l8.623 42.2h.197l8.623-42.2h15.975zm16.11 72.2h-11.76l13.034-72.2h15.092l13.034 72.2h-11.76l-2.156-16H658.42l-2.156 16zm3.92-26.8h9.8l-4.803-31h-.195l-4.802 31z"/><use xlink:href="#O" x="-285.231" y="182"/><path d="M723.147 578.933v-72.2H735.3v72.2h-12.152zm44.267-48.1v-5.6c0-3.065-.588-5.282-1.764-6.65s-2.548-2.05-4.116-2.05c-2.483 0-4.182.65-5.096 1.95s-1.372 3.317-1.372 6.05v36.6c0 2.734.456 4.75 1.372 6.05s2.612 1.95 5.096 1.95c2.22 0 3.756-.633 4.606-1.9s1.273-3.065 1.273-5.4v-8.7h12.152v8.3c0 2.534-.377 4.935-1.127 7.2s-1.862 4.234-3.332 5.9-3.35 2.984-5.635 3.95-4.935 1.45-7.938 1.45c-3.202 0-5.963-.484-8.28-1.45s-4.247-2.282-5.782-3.95-2.68-3.633-3.43-5.9-1.127-4.666-1.127-7.2v-37.2c0-2.532.375-4.933 1.127-7.2s1.895-4.232 3.43-5.9 3.463-2.983 5.782-3.95 5.08-1.45 8.28-1.45c3.004 0 5.65.534 7.938 1.6s4.164 2.5 5.635 4.3 2.58 3.9 3.332 6.3 1.127 4.935 1.127 7.6v5.3h-12.152z"/><use xlink:href="#M" x="65.729" y="182"/><use xlink:href="#O" x="-122.653" y="182"/><path d="M897.133 578.933H884.98v-72.2h17.052c6.795 0 11.923 1.635 15.387 4.9s5.193 8.734 5.193 16.4c0 2.935-.245 5.435-.734 7.5s-1.145 3.817-1.96 5.25-1.732 2.585-2.744 3.45-2.043 1.534-3.087 2l10.3 32.7h-12.35l-8.624-29.9c-.784.135-1.748.218-2.9.25a109.96 109.96 0 0 1-3.381.051v29.6zm0-39.8h4.312c1.633 0 3.02-.166 4.165-.5s2.073-.933 2.793-1.8 1.24-2.016 1.568-3.45.5-3.216.5-5.35c0-4.266-.687-7.183-2.06-8.75s-3.7-2.35-6.958-2.35h-4.312v22.2zm32.897 39.8v-72.2h32.536v10.8h-20.384v18.6h15.68v10.8h-15.68v21.2h21.756v10.8H930.03z"/><use xlink:href="#M" x="228.671" y="182"/><use xlink:href="#M" x="270.23" y="182"/><path d="M737.325 669.933h-11.76l13.034-72.2h15.092l13.034 72.2h-11.76l-2.156-16H739.48l-2.156 16zm3.92-26.8h9.8l-4.803-31h-.195l-4.802 31z"/><use xlink:href="#R"/><use xlink:href="#N" x="33.456" y="273"/><use xlink:href="#S"/><path d="M904.463 669.933v-72.2H937v10.8h-20.384v18.6h15.68v10.8h-15.68v21.2h21.756v10.8h-33.908zm51.507-37.8l-12.937-34.4H955l7.448 22.9h.196l6.762-22.9h11.956l-12.25 34.4 13.72 37.8h-11.956l-8.23-26.3h-.196l-8.428 26.3h-11.956l13.916-37.8z"/><use xlink:href="#K" x="499.44" y="273"/><use xlink:href="#T"/><path d="M786.885 760.933h-11.76l13.034-72.2h15.092l13.034 72.2h-11.76l-2.156-16H789.04l-2.156 16zm3.92-26.8h9.8l-4.803-31h-.195l-4.802 31z"/><use xlink:href="#R" x="49.56" y="91"/><path d="M876.593 723.133l-12.937-34.4h11.956l7.448 22.9h.196l6.762-22.9h11.956l-12.25 34.4 13.72 37.8h-11.956l-8.23-26.3h-.196l-8.428 26.3h-11.956l13.916-37.8z"/><use xlink:href="#K" x="420.062" y="364"/><path d="M928.65 760.933v-72.2h32.536v10.8h-20.384v18.6h15.68v10.8h-15.68v21.2h21.756v10.8H928.65z"/><use xlink:href="#O" x="-1.959" y="364"/><path d="M1030.322 760.933h-12.152v-30l-14.7-42.2h12.348l8.525 27.5h.196l8.134-27.5h12.35l-14.7 42.2v30z"/><use xlink:href="#Q" x="209.376" y="273"/><path d="M601.613 803.833v-5.6c0-3.065-.588-5.282-1.764-6.65s-2.548-2.05-4.115-2.05c-2.484 0-4.182.65-5.097 1.95s-1.372 3.317-1.372 6.05v36.6c0 2.734.457 4.75 1.372 6.05s2.612 1.95 5.097 1.95c2.22 0 3.756-.633 4.605-1.9s1.273-3.065 1.273-5.4v-8.7h12.152v8.3c0 2.534-.377 4.935-1.127 7.2s-1.86 4.234-3.332 5.9-3.35 2.984-5.635 3.95-4.934 1.45-7.937 1.45c-3.202 0-5.963-.484-8.28-1.45s-4.248-2.282-5.782-3.95-2.68-3.633-3.43-5.9-1.127-4.666-1.127-7.2v-37.2c0-2.532.376-4.933 1.127-7.2s1.895-4.232 3.43-5.9 3.462-2.983 5.782-3.95 5.08-1.45 8.28-1.45c3.004 0 5.65.534 7.938 1.6s4.165 2.5 5.635 4.3 2.58 3.9 3.332 6.3 1.127 4.935 1.127 7.6v5.3h-12.152zm19.042 48.1v-72.2h12.152v29.4h12.936v-29.4h12.152v72.2h-12.152v-32h-12.936v32h-12.152z"/><use xlink:href="#K" x="176.935" y="455"/><path d="M687.217 790.532v-10.8h32.145v11.8l-22.344 49.6h22.344v10.8h-34.89v-11.8l22.64-49.6h-19.895z"/><use xlink:href="#N" x="-56.772" y="455"/><use xlink:href="#U"/><path d="M814.233 851.933v-72.2h12.152v29.4h12.936v-29.4h12.152v72.2H839.32v-32h-12.936v32h-12.152zm56.41 0H858.5v-72.2h17.052c6.795 0 11.923 1.635 15.387 4.9s5.193 8.734 5.193 16.4c0 2.935-.245 5.435-.734 7.5s-1.145 3.817-1.96 5.25-1.732 2.585-2.744 3.45-2.043 1.534-3.087 2l10.3 32.7h-12.35l-8.624-29.9c-.784.135-1.748.218-2.9.25a109.96 109.96 0 0 1-3.381.051v29.6zm0-39.8h4.312c1.633 0 3.02-.166 4.165-.5s2.073-.933 2.793-1.8 1.24-2.016 1.568-3.45.5-3.216.5-5.35c0-4.266-.687-7.183-2.06-8.75s-3.7-2.35-6.958-2.35h-4.312v22.2zm32.898 39.8v-72.2h32.536v10.8h-20.384v18.6h15.68v10.8h-15.68v21.2h21.756v10.8H903.54zm39.62 0v-72.2h11.27l14.798 41.3h.195v-41.3H980.4v72.2h-10.584l-15.484-45.1h-.195v45.1H943.16z"/><use xlink:href="#K" x="499.44" y="455"/><use xlink:href="#T" x="0.001" y="182"/><path d="M648.38 870.732h18.032c6.336 0 11.123 1.768 14.356 5.3s4.852 9.035 4.852 16.5v28.6c0 7.467-1.617 12.967-4.852 16.5s-8.02 5.3-14.356 5.3H648.38v-72.2zm12.152 62h4.214c3.266 0 5.537-.732 6.81-2.2s1.91-4.1 1.91-7.9v-31.6c0-3.8-.637-6.433-1.91-7.9s-3.545-2.2-6.81-2.2h-4.214v51.8z"/><use xlink:href="#L" x="139.528" y="546"/><use xlink:href="#U" x="-37.189" y="91"/><use xlink:href="#S" x="-82.368" y="273"/><use xlink:href="#L" x="269.249" y="546"/><use xlink:href="#M" x="120.733" y="546"/><use xlink:href="#M" x="162.293" y="546"/><use xlink:href="#K" x="456.21" y="546"/><use xlink:href="#N" x="182.806" y="546"/><path d="M1008.76 942.933v-72.2h11.27l14.798 41.3h.195v-41.3H1046v72.2h-10.584l-15.484-45.1h-.195v45.1h-10.977z"/></g><g fill="#fff"><path d="M156.995 140.798v-3.9c8.85-.75 9.9-1.8 9.9-11.7v-24.6c0-12.3-4.65-18.45-14.85-18.45-5.55 0-11.4 2.85-15.45 7.8v35.25c0 9.6.75 10.8 9.9 11.7v3.9h-32.248v-3.9c9.6-.9 10.5-1.95 10.5-11.85V49.6c-8.25-.9-16.05-1.05-29.248-1.05H84.85v73.496c0 12.75 1.2 13.8 15 14.7v4.05h-42.3v-4.05c13.35-.9 14.55-2.1 14.55-14.7V48.552h-9.45c-13.35 0-16.05 1.35-18.15 4.95-1.8 2.85-3.15 6.3-4.95 13.2H35.2c.75-8.85 1.5-19.05 1.8-27.148h2.85c2.1 3.3 4.05 3.75 8.25 3.75h62.397c12.45 0 14.25-.9 14.25-4.05v-2.1c3-.45 7.65-1.95 11.85-3.45V84.4c5.55-5.7 13.2-10.65 21-10.8 12.6-.3 21.15 7.65 21.15 25.498v26.1c0 10.05 1.05 10.95 10.05 11.7v3.9h-31.8zm84.303-12.6c-9.45 11.7-19.8 14.398-24.448 14.398-18.45 0-29.25-15-29.25-31.948 0-10.2 3.75-19.5 9.9-26.1 6.15-6.75 14.25-10.95 21.9-10.95h.15c12.45 0 22.5 11.1 22.5 22.648 0 3-.6 4.2-3.45 4.8-2.4.45-21.3 1.95-39.3 2.55.15 20.4 12 28.8 22.5 28.8 6.15 0 11.7-2.4 17.25-7.5l2.25 3.3zm-25.5-49.05c-6.75 0-13.5 6.3-15.75 18.3 8.4 0 16.8-.15 25.5-.45 2.7 0 3.6-.75 3.6-2.85.15-7.8-4.95-15-13.2-15h-.15zM398.5 47.5c-10.35 1.35-11.7 2.55-16.2 15-3.3 9.6-12.45 37.948-24.75 79.946h-4.65L326.644 67.6h-.3l-24.45 74.847h-4.65l-24.6-80.247c-3.75-12.3-6-13.648-15.15-14.7v-4.2h36.45v4.2c-10.95 1.35-11.25 2.55-9 10.2l18.3 61.798h.3l24.3-74.847h4.35l26.25 74.997h.3c6.3-20.1 14.7-49.498 16.95-60.147 2.1-9 1.5-10.65-10.2-12v-4.2h32.998v4.2z"/><use xlink:href="#V"/><path d="M470.498 89.5c4.5-7.5 10.95-15.898 18.15-15.898 5.1 0 8.7 4.05 8.7 7.5 0 3-1.95 6-4.8 7.35-1.8.75-3 .6-3.9-.3-2.25-2.1-4.05-3-6.45-3-3.9 0-8.7 4.35-12 12.75v27.3c0 9.9.75 10.8 12.3 11.7v3.9H448v-3.9c9.3-.9 10.35-1.8 10.35-11.55V94.3c0-9.9-.6-10.5-9.3-11.55V79.3c7.35-1.2 13.95-3 21.148-6v16.2h.3zm20.702 51.298v-3.9c9.45-.9 10.8-1.8 10.8-11.7V54.25c0-10.2-.9-10.5-10.35-11.4v-3.6c7.8-.9 17.1-3.45 22.2-5.25v91.196c0 9.9 1.2 10.8 10.8 11.7v3.9H491.2zm103.945-3.9c-3.3.6-14.55 2.55-23.25 5.7v-9.75l-9.15 5.4c-6 3.45-10.05 4.35-11.7 4.35-12 0-27.75-11.1-27.75-31.948 0-20.7 18.15-37.048 38.55-37.048 2.1 0 6.6.45 10.05 1.8V53.95c0-9.898-.75-10.35-11.55-11.1V39.1c7.8-.9 17.85-3.3 23.4-5.1v89.546c0 7.65 1.05 8.55 6.6 9.15l4.8.45v3.75zm-23.25-49.947c-3.6-5.25-9.9-7.65-15.45-7.65-7.05 0-19.65 5.7-19.65 27.3 0 17.85 10.95 26.55 20.7 26.55 5.25 0 10.8-2.4 14.4-5.1v-41.1zM722.192 47.5c-12.3 1.05-13.5 1.8-13.5 14.25v60.598c0 12.6 1.2 13.35 13.35 14.25v4.2h-40.198v-4.2c12.9-.9 14.1-1.65 14.1-14.25V92.5h-51.148v29.85c0 12.45 1.2 13.35 13.5 14.25v4.2h-39.448v-4.2c12-.9 13.2-1.65 13.2-14.25v-60.6c0-12.6-1.2-13.35-13.5-14.25v-4.2h38.85v4.2c-11.4.9-12.6 1.8-12.6 14.25v24.3h51.148v-24.3c0-12.45-1.2-13.2-12.9-14.25v-4.2h39.148v4.2zm49.05 80.698c-9.45 11.7-19.8 14.398-24.45 14.398-18.45 0-29.25-15-29.25-31.948 0-10.2 3.75-19.5 9.9-26.1 6.15-6.75 14.25-10.95 21.9-10.95h.15c12.45 0 22.5 11.1 22.5 22.648 0 3-.6 4.2-3.45 4.8-2.4.45-21.3 1.95-39.3 2.55.15 20.4 12 28.8 22.5 28.8 6.15 0 11.7-2.4 17.25-7.5l2.25 3.3zm-25.5-49.05c-6.75 0-13.5 6.3-15.75 18.3a733.75 733.75 0 0 0 25.499-.45c2.7 0 3.6-.75 3.6-2.85.15-7.8-4.95-15-13.2-15h-.15zm77.1 63.45c-2.25 0-5.4-1.35-7.05-2.85-1.95-1.95-2.85-4.05-3.6-6.75-6 4.05-13.2 9.6-17.7 9.6-10.65 0-18-8.85-18-18.3 0-7.2 3.9-11.85 12.15-14.7 9-3 19.95-7.05 23.25-9.75V97.3c0-10.95-4.95-16.95-12.6-16.95-2.85 0-5.1 1.05-6.6 2.85-1.95 1.95-3.15 5.25-4.5 9.75-.75 2.4-2.25 3.45-4.35 3.45-2.7 0-6.45-2.85-6.45-6.3 0-2.25 1.8-3.9 4.65-6 4.2-3 13.8-8.55 22.35-10.5 4.5 0 9 1.35 12.3 4.05 5.25 4.5 6.75 10.5 6.75 18.45v27.75c0 6.75 2.7 9 5.25 9 1.8 0 3.9-.9 5.4-1.8l1.5 3.9-12.75 7.648zm-10.95-37.648c-3.15 1.65-10.35 4.8-13.5 6.3-5.85 2.7-9.15 5.4-9.15 10.95 0 7.8 6 11.4 10.65 11.4 3.9 0 9.15-2.55 12-5.4v-23.25zm24.6 35.85v-3.9c9.45-.9 10.8-1.8 10.8-11.7V54.25c0-10.2-.9-10.5-10.35-11.4v-3.6c7.8-.9 17.1-3.45 22.2-5.25v91.196c0 9.9 1.2 10.8 10.8 11.7v3.9h-33.448zm59.407-.15c-2.55 1.35-4.8 1.95-6.3 1.95-9.45 0-14.7-5.85-14.7-17.7V81.4h-10.35l-.6-1.65 4.2-4.35h6.75V64.6l9.75-10.05 2.1.3V75.4h16.95c1.5 1.65 1.05 4.8-.9 6h-16.05v38.398c0 12 4.95 14.25 8.85 14.25 3.75 0 7.2-1.35 9.15-2.4l1.35 3.75-10.2 5.25zm57.44.15v-3.9c8.7-.9 9.9-1.8 9.9-11.55v-24.75c0-12.3-4.65-18.45-14.7-18.45-5.7 0-11.4 2.85-15.6 7.65v35.55c0 9.6.75 10.648 9.75 11.55v3.9h-31.95l.15-3.9c9-.75 10.2-1.65 10.2-11.55V53.8c0-9.45-.3-10.05-10.2-10.95v-3.6c7.2-1.05 16.2-3.45 22.05-5.25v50.55c5.4-5.4 13.35-10.95 21.448-10.95 12.15 0 20.7 7.65 20.7 25.498v26.25c0 9.898 1.2 10.8 9.9 11.55v3.9h-31.65zM85.147 171.934c25.35 0 48.3 19.8 48.3 49.798 0 32.398-22.65 52.198-50.1 52.198-27.148 0-48.748-21-48.748-49.95 0-26.998 18.9-52.047 50.398-52.047h.15zm-3.3 5.4c-16.648 0-31.948 14.25-31.948 42.448s15.45 48.748 36.6 48.748c16.8 0 31.648-13.95 31.648-42.748 0-31.648-16.5-48.448-36.148-48.448h-.15zm76.503 43.048c4.5-7.5 10.95-15.898 18.15-15.898 5.1 0 8.7 4.05 8.7 7.5 0 3-1.95 6-4.8 7.35-1.8.75-3 .6-3.9-.3-2.25-2.1-4.05-3-6.45-3-3.9 0-8.7 4.35-12 12.75v27.3c0 9.9.75 10.8 12.3 11.7v3.9h-34.5v-3.9c9.3-.9 10.35-1.8 10.35-11.55v-31.05c0-9.9-.6-10.5-9.3-11.55v-3.45c7.35-1.2 13.95-3 21.15-6v16.2h.3zm88.197-12.9c-1.35 2.4-4.35 6.3-6.75 7.5l-8.55-.45c2.7 3.3 4.5 8.1 4.5 13.35 0 16.05-13.5 23.85-26.25 23.85-2.4 0-5.25-.3-7.65-.75-1.95 1.35-4.5 4.2-4.5 6.3 0 2.85 2.7 5.7 9.45 5.7l15.9-.15c9.3 0 21.45 3 21.45 17.7 0 15.148-17.4 29.698-37.35 29.698-16.8 0-25.948-9.75-26.1-18.3 0-3.3 1.35-6.148 3.6-8.398 3-3 8.85-7.65 12.45-10.5-5.4-1.65-9.15-5.1-11.1-8.25-1.35-2.1-1.8-4.8-1.65-6.3 6-2.25 10.8-6.15 13.2-9.15-6.75-2.85-13.2-9.75-13.2-19.95 0-16.95 15.3-24.898 26.85-24.898h.15c4.95 0 9.9 1.5 14.4 3.9 7.2-.3 14.85-1.2 20.4-2.1l.75 1.2zm-34.05 65.847c-6.9 0-10.35.9-13.05 3.15-3.9 3.3-6.9 7.5-6.9 11.7 0 8.25 8.7 14.4 19.8 14.4 14.25 0 21.6-7.35 21.6-16.65 0-5.1-2.55-9-6.75-10.65-3.75-1.5-8.1-1.95-14.55-1.95h-.15zm-3.3-64.197c-6.3 0-12.3 6.3-12.3 17.85 0 11.7 5.85 19.95 14.1 19.95 6.6-.15 12.45-5.85 12.45-17.7 0-11.7-5.55-20.1-14.1-20.1h-.15z"/><use xlink:href="#W"/><use xlink:href="#X"/><path d="M379.596 271.68v-3.9c9.45-.9 10.5-1.8 10.5-12v-30.898c0-9.15-.45-9.9-9.45-11.25v-3.6c7.65-1.2 14.85-3.15 21.3-5.85v51.598c0 10.2 1.05 11.1 10.65 12v3.9h-33zm15.6-97.646c4.2 0 7.5 3.45 7.5 7.8 0 4.05-3.3 7.65-7.65 7.65-3.9 0-7.5-3.6-7.5-7.5 0-4.5 3.6-7.95 7.5-7.95h.15zm75.746 78.896l-6.9 18.75h-49.35l-1.05-2.25c12.9-18.9 25.05-38.1 37.35-58.048h-13.35c-10.8 0-12.75 2.25-16.95 10.65l-2.1 4.05-3.75-1.35c1.65-5.7 3.9-15.148 5.1-21.898h3.15c.9 2.25 2.7 3.15 8.25 3.45h34.5l.9 2.1-36.6 58.348h14.85c11.4 0 14.4-3 20.1-12.15l1.95-3.6 3.9 1.95z"/><use xlink:href="#W" x="231.747"/><use xlink:href="#Y"/><path d="M571.293 271.68v-3.9c9.45-.9 10.5-1.8 10.5-12v-30.898c0-9.15-.45-9.9-9.45-11.25v-3.6c7.65-1.2 14.85-3.15 21.3-5.85v51.598c0 10.2 1.05 11.1 10.65 12v3.9h-32.998zm15.6-97.646c4.2 0 7.5 3.45 7.5 7.8 0 4.05-3.3 7.65-7.65 7.65-3.9 0-7.5-3.6-7.5-7.5 0-4.5 3.6-7.95 7.5-7.95h.15z"/><use xlink:href="#V" x="217.493" y="130.883"/><use xlink:href="#X" x="358.643"/><path d="M76.3 402.563v-3.9c8.7-.9 9.9-1.8 9.9-11.55v-24.75c0-12.3-4.65-18.45-14.7-18.45-5.7 0-11.4 2.85-15.6 7.65v35.55c0 9.6.75 10.65 9.75 11.55v3.9H33.7l.15-3.9c9-.75 10.2-1.65 10.2-11.55v-71.547c0-9.45-.3-10.05-10.2-10.95v-3.6c7.2-1.05 16.2-3.45 22.05-5.25v50.548c5.4-5.4 13.35-10.95 21.45-10.95 12.15 0 20.7 7.65 20.7 25.5v26.25c0 9.9 1.2 10.8 9.9 11.55v3.9H76.3z"/><use xlink:href="#Z"/><use xlink:href="#a"/><use xlink:href="#Y" x="-293.545" y="130.883"/><use xlink:href="#Z" x="168.447"/><path d="M390.394 402.714c-7.05-7.5-16.5-19.5-24.9-29.55-2.1-2.4-3.3-3.3-4.65-3.15-.6-.15-1.5 0-2.4.3v16.648c0 9.9 1.2 10.8 10.8 11.7v3.9h-33.448v-3.9c10.05-.9 10.95-2.1 10.95-11.7v-70.797c0-9.9-.75-10.8-9.9-11.55v-3.6c7.2-.75 15.75-3.3 21.6-5.25v70.647c4.5-.9 7.2-2.7 9.45-5.1 3.3-3.3 7.8-9.15 10.65-13.2 3.15-4.65 2.7-5.85-4.5-6.6v-3.9l30.6-1.35v3.75c-10.35 1.65-13.5 3.15-19.35 8.7-3.75 3.9-6.3 6.75-12.9 14.25 3.75 5.25 18.45 22.5 23.4 27.45 5.55 5.55 8.7 7.95 14.4 8.25v3.9l-19.8.15z"/><use xlink:href="#b"/><use xlink:href="#c"/><path d="M65.5 533.296c-2.55 1.35-4.8 1.95-6.3 1.95-9.45 0-14.7-5.85-14.7-17.7V474.05H34.15l-.6-1.65 4.2-4.35h6.75v-10.8l9.75-10.05 2.1.3v20.55H73.3c1.5 1.65 1.05 4.8-.9 6H56.35v38.398c0 12 4.95 14.25 8.85 14.25 3.75 0 7.2-1.35 9.15-2.4l1.35 3.75-10.2 5.25zm33.448-51.148c4.5-7.5 10.95-15.9 18.15-15.9 5.1 0 8.7 4.05 8.7 7.5 0 3-1.95 6-4.8 7.35-1.8.75-3 .6-3.9-.3-2.25-2.1-4.05-3-6.45-3-3.9 0-8.7 4.35-12 12.75v27.3c0 9.9.75 10.8 12.3 11.7v3.9H76.45v-3.9c9.3-.9 10.35-1.8 10.35-11.55v-31.05c0-9.9-.6-10.5-9.3-11.55v-3.45c7.35-1.2 13.95-3 21.15-6v16.2h.3z"/><use xlink:href="#Z" x="16.497" y="130.883"/><use xlink:href="#c" x="-275.698" y="130.883"/><use xlink:href="#a" x="96.144" y="130.882"/><use xlink:href="#d"/><path d="M431.338 529.546c-3.3.6-14.55 2.55-23.25 5.7v-9.75l-9.15 5.4c-6 3.45-10.05 4.35-11.7 4.35-12 0-27.75-11.1-27.75-31.948 0-20.7 18.15-37.05 38.548-37.05 2.1 0 6.6.45 10.05 1.8V446.6c0-9.9-.75-10.35-11.55-11.1v-3.75c7.8-.9 17.85-3.3 23.4-5.1v89.546c0 7.65 1.05 8.55 6.6 9.15l4.8.45v3.75zM408.09 479.6c-3.6-5.25-9.9-7.65-15.45-7.65-7.05 0-19.65 5.7-19.65 27.3 0 17.85 10.95 26.55 20.7 26.55 5.25 0 10.8-2.4 14.4-5.1V479.6z"/><use xlink:href="#e"/><use xlink:href="#c" x="22.948" y="130.883"/><path d="M582.99 533.296c-2.55 1.35-4.8 1.95-6.3 1.95-9.45 0-14.7-5.85-14.7-17.7V474.05h-10.35l-.6-1.65 4.2-4.35H562v-10.8l9.75-10.05 2.1.3v20.55h16.95c1.5 1.65 1.05 4.8-.9 6h-16.05v38.398c0 12 4.95 14.25 8.85 14.25 3.75 0 7.2-1.35 9.15-2.4l1.35 3.75-10.2 5.25z"/><use xlink:href="#d" x="266.408"/><path d="M655.888 533.296c-2.55 1.35-4.8 1.95-6.3 1.95-9.45 0-14.7-5.85-14.7-17.7V474.05h-10.35l-.6-1.65 4.2-4.35h6.75v-10.8l9.75-10.05 2.1.3v20.55h16.95c1.5 1.65 1.05 4.8-.9 6h-16.05v38.398c0 12 4.95 14.25 8.85 14.25 3.75 0 7.2-1.35 9.15-2.4l1.35 3.75-10.2 5.25z"/><use xlink:href="#d" x="339.296"/><use xlink:href="#f"/><use xlink:href="#a" x="595.184" y="130.882"/><use xlink:href="#g"/><path d="M108.7 597.132c0-4.2.75-8.4 1.8-11.55 1.35-3.75 4.2-10.65 11.85-16.65 6-4.8 11.85-7.35 18.898-8.1 8.7.3 14.4 3.9 17.4 7.2 6.6-6.6 13.35-9.75 19.8-10.5 4.95.3 9.45 2.25 12.15 5.25 1.35 1.5 1.35 3.45.75 4.8-.45 1.35-1.95 2.85-3.15 3.75-1.5 1.2-3 1.35-4.35-.15-2.85-2.85-7.35-6-12.3-6-3.9 0-6.3 1.95-7.8 4.8-1.95 3-3.45 10.05-3.3 23.85v5.1h17.85c.75 1.35.3 4.95-1.2 6h-16.65v43.798c0 10.05 1.05 10.8 12.3 11.85v3.75H139.3v-3.75c8.25-1.05 9.3-1.95 9.3-11.85v-43.798h-28.05v43.798c0 9.9 1.05 10.8 10.2 11.85v3.75h-32.1v-3.9c8.85-.9 10.05-1.8 10.05-11.7v-43.798H98.05l-.45-1.65 4.05-4.35h7.05v-1.8zm39.897-1.05c0-4.95.6-9 1.35-11.55.6-2.55 1.5-5.1 3-7.8-3-4.65-8.7-9.6-16.65-9.6-5.7 0-9 3.15-11.1 6.45-2.55 3.9-4.65 10.35-4.65 21.75v3.6h28.05v-2.85z"/><use xlink:href="#Y" x="-324.445" y="392.65"/><path d="M287.495 664.33v-3.9c8.7-.9 9.9-1.8 9.9-11.55v-24.75c0-12.3-4.65-18.45-14.7-18.45-5.7 0-11.4 2.85-15.6 7.65v35.55c0 9.6.75 10.65 9.75 11.55v3.9h-31.95l.15-3.9c9-.75 10.2-1.65 10.2-11.55v-71.547c0-9.45-.3-10.05-10.2-10.95v-3.6c7.2-1.05 16.2-3.45 22.05-5.25v50.548c5.4-5.4 13.35-10.95 21.45-10.95 12.15 0 20.7 7.65 20.7 25.5v26.25c0 9.9 1.2 10.8 9.9 11.55v3.9h-31.648z"/><use xlink:href="#e" x="-113.996" y="130.883"/><path d="M369.096 664.33v-3.9c9.45-.9 10.5-1.8 10.5-12V617.53c0-9.15-.45-9.9-9.45-11.25v-3.6c7.65-1.2 14.85-3.15 21.3-5.85v51.598c0 10.2 1.05 11.1 10.65 12v3.9h-33zm15.6-97.646c4.2 0 7.5 3.45 7.5 7.8 0 4.05-3.3 7.648-7.65 7.648-3.9 0-7.5-3.6-7.5-7.5 0-4.5 3.6-7.95 7.5-7.95h.15z"/><use xlink:href="#h"/><path d="M475.44 664.33v-3.9c9.45-.9 10.8-1.8 10.8-11.7v-70.947c0-10.2-.9-10.5-10.35-11.398v-3.6c7.8-.9 17.1-3.45 22.2-5.25v91.196c0 9.9 1.2 10.8 10.8 11.7v3.9H475.44z"/><path d="M506.79 664.33v-3.9c9.45-.9 10.5-1.8 10.5-12V617.53c0-9.15-.45-9.9-9.45-11.25v-3.6c7.65-1.2 14.85-3.15 21.3-5.85v51.598c0 10.2 1.05 11.1 10.65 12v3.9H506.79zm15.6-97.646c4.2 0 7.5 3.45 7.5 7.8 0 4.05-3.3 7.648-7.65 7.648-3.9 0-7.5-3.6-7.5-7.5 0-4.5 3.6-7.95 7.5-7.95h.15z"/><use xlink:href="#a" x="377.388" y="261.764"/><use xlink:href="#Y" x="61.044" y="392.65"/><use xlink:href="#g" y="130.883"/><path d="M109 729.814v-3.15c0-4.8.6-9.3 1.65-12.6 1.05-3.15 3.45-10.65 11.55-17.7 5.4-4.5 10.65-7.2 16.5-7.95 5.1.15 9.45 2.25 11.85 4.95 1.35 1.65 1.5 3.6.75 5.4-.45 1.2-1.35 2.4-2.85 3.6-1.35 1.05-2.7 1.05-4.05-.45-2.85-2.85-7.2-5.55-12.15-5.55-3.9 0-6.3 1.8-7.95 4.35-1.95 3-3.6 10.2-3.45 23.1v6h17.7c.9 1.35.15 4.95-1.5 6h-16.2v43.048c0 10.95 1.05 11.4 12.9 12.6v3.75h-35.4v-3.9c9.6-.9 10.65-1.8 10.65-11.55v-43.948H98.5l-.6-1.65 4.05-4.35H109zm137.244 65.398v-3.9c8.7-.9 10.35-1.65 10.35-12.148v-24.9c0-10.65-3.75-17.4-13.2-17.4-5.4 0-10.95 3.15-16.65 7.8.3 1.8.45 3.45.45 6.3v29.1c0 9.45 1.35 10.35 9.6 11.25v3.9h-32.1v-3.9c9.3-.9 10.65-1.65 10.65-11.55v-25.648c0-11.1-3.9-17.25-13.2-17.25-5.85 0-11.85 4.05-16.35 7.8v35.1c0 9.75 1.35 10.65 8.7 11.55v3.9h-31.65v-3.9c9.9-.9 11.25-1.8 11.25-11.55v-30.898c0-9.6-.45-10.35-9.15-11.7v-3.45c6.6-1.2 14.1-3.15 20.85-6.15v12.15c3.15-2.1 6.3-4.8 10.95-7.5 3.9-2.4 7.5-4.2 12.15-4.2 7.2 0 13.65 4.65 16.8 12.3 4.35-3.3 8.7-6.148 12.3-8.398 3.3-2.1 7.05-3.9 11.4-3.9 11.55 0 19.05 8.25 19.05 22.95v28.8c0 10.05 1.05 10.65 9.75 11.55v3.9h-31.95z"/><use xlink:href="#e" x="-151.646" y="261.765"/><use xlink:href="#c" x="-128.699" y="392.649"/><use xlink:href="#Y" x="-126.148" y="523.53"/><path d="M489.692 797.012c-2.25 0-5.4-1.35-7.05-2.85-1.95-1.95-2.85-4.05-3.6-6.75-6 4.05-13.2 9.6-17.7 9.6-10.65 0-18-8.85-18-18.3 0-7.2 3.9-11.85 12.15-14.7 9-3 19.948-7.05 23.25-9.75v-2.55c0-10.95-4.95-16.95-12.6-16.95-2.85 0-5.1 1.05-6.6 2.85-1.95 1.95-3.15 5.25-4.5 9.75-.75 2.4-2.25 3.45-4.35 3.45-2.7 0-6.45-2.85-6.45-6.3 0-2.25 1.8-3.9 4.65-6 4.2-3 13.8-8.55 22.35-10.5 4.5 0 9 1.35 12.3 4.05 5.25 4.5 6.75 10.5 6.75 18.45v27.75c0 6.75 2.7 9 5.25 9 1.8 0 3.9-.9 5.4-1.8l1.5 3.9-12.75 7.65zm-10.95-37.648c-3.15 1.65-10.35 4.8-13.5 6.3-5.85 2.7-9.15 5.4-9.15 10.95 0 7.8 6 11.4 10.65 11.4 3.9 0 9.15-2.55 12-5.4v-23.25zm24.602 35.848v-3.9c9.45-.9 10.8-1.8 10.8-11.7v-70.947c0-10.2-.9-10.5-10.35-11.398v-3.6c7.8-.9 17.1-3.45 22.2-5.25v91.196c0 9.9 1.2 10.8 10.8 11.7v3.9h-33.45zm97.046 0v-3.9c8.7-.9 9.9-1.8 9.9-11.55v-24.75c0-12.3-4.65-18.45-14.7-18.45-5.7 0-11.4 2.85-15.6 7.65v35.55c0 9.6.75 10.65 9.75 11.55v3.9H557.8l.15-3.9c9-.75 10.2-1.65 10.2-11.55v-71.547c0-9.45-.3-10.05-10.2-10.95v-3.6c7.2-1.05 16.2-3.45 22.05-5.25v50.548c5.4-5.4 13.35-10.95 21.45-10.95 12.15 0 20.7 7.65 20.7 25.5v26.25c0 9.9 1.2 10.8 9.9 11.55v3.9H600.4z"/><use xlink:href="#f" x="-73.195" y="261.765"/><use xlink:href="#Z" x="579.589" y="392.649"/><path d="M747.088 795.212v-3.9c9.45-.9 10.8-1.8 10.8-11.7v-70.947c0-10.2-.9-10.5-10.35-11.398v-3.6c7.8-.9 17.1-3.45 22.2-5.25v91.196c0 9.9 1.2 10.8 10.8 11.7v3.9h-33.448z"/><use xlink:href="#Y" x="245.993" y="523.53"/><path d="M857.933 795.212v-3.9c8.7-.9 9.9-1.8 9.9-11.55v-24.75c0-12.3-4.65-18.45-14.7-18.45-5.7 0-11.4 2.85-15.6 7.65v35.55c0 9.6.75 10.65 9.75 11.55v3.9h-31.948l.15-3.9c9-.75 10.2-1.65 10.2-11.55v-71.547c0-9.45-.3-10.05-10.2-10.95v-3.6c7.2-1.05 16.2-3.45 22.05-5.25v50.548c5.4-5.4 13.35-10.95 21.448-10.95 12.15 0 20.7 7.65 20.7 25.5v26.25c0 9.9 1.2 10.8 9.9 11.55v3.9h-31.65z"/><use xlink:href="#i"/><use xlink:href="#d" x="-221.392" y="392.649"/><use xlink:href="#a" x="-20.403" y="523.531"/><use xlink:href="#g" x="157.044" y="261.765"/><use xlink:href="#h" x="-153.75" y="261.767"/><use xlink:href="#i" x="261.443"/><use xlink:href="#b" x="-41.392" y="523.531"/><path d="M441.4 874.797c4.5-7.5 10.95-15.9 18.15-15.9 5.1 0 8.7 4.05 8.7 7.5 0 3-1.95 6-4.8 7.35-1.8.75-3 .6-3.9-.3-2.25-2.1-4.05-3-6.45-3-3.9 0-8.7 4.35-12 12.75v27.3c0 9.9.75 10.8 12.3 11.7v3.9h-34.5v-3.9c9.3-.9 10.35-1.8 10.35-11.55v-31.05c0-9.9-.6-10.5-9.3-11.55v-3.45c7.35-1.2 13.95-3 21.148-6v16.2h.3z"/><use xlink:href="#a" x="304.338" y="523.531"/></g><g opacity=".5" fill="#fff"><path d="M42.328 1046.045c-3.568 0-5.47-1.97-5.503-2.002 0 .935-.7 1.4-1.468 1.4-.7 0-1.4-.467-1.4-1.4v-20.88a1.35 1.35 0 0 1 1.401-1.434c.767 0 1.468.467 1.468 1.4v6.238c1.334-1.368 3.168-2.17 5.503-2.17 5.37 0 8.373 4.403 8.373 9.406 0 5.037-3.002 9.44-8.373 9.44zm0-16c-3.335 0-5.503 2.602-5.503 6.57 0 4.003 2.168 6.604 5.503 6.604s5.504-2.602 5.504-6.604c0-3.97-2.168-6.57-5.504-6.57zm25.555 8.037h-12.34c.467 3.136 2.468 5.137 5.403 5.137 1.5 0 3.002-.533 3.97-1.734.3-.333.634-.533 1.034-.533.734 0 1.5.667 1.5 1.468 0 .4-.1.7-.8 1.4-1.5 1.468-3.57 2.235-5.704 2.235-5.37 0-8.372-4.437-8.372-9.44 0-4.97 3.002-9.406 8.372-9.406 5.437 0 8.34 4.437 8.34 9.406 0 .734-.534 1.468-1.4 1.468zm-6.937-8.038c-3.136 0-4.97 2.3-5.403 5.17H66.35c-.467-3.202-2.468-5.17-5.403-5.17zM88 1045.478c-1.834 0-2.668-1.3-2.97-1.9-1.334 1.468-3.27 2.47-5.87 2.47-5.437 0-8.372-4.47-8.372-9.44s3.002-9.406 8.372-9.406c2.335 0 4.203.834 5.504 2.202v-.134c0-.367.133-1.5 1.4-1.5.7 0 1.468.367 1.468 1.4v12.875c0 .434.3.6.467.6.935 0 1.435.667 1.435 1.434a1.37 1.37 0 0 1-1.435 1.401zm-8.84-15.443c-3.336 0-5.504 2.602-5.504 6.57 0 4.003 2.168 6.604 5.504 6.604 3.37 0 5.504-2.602 5.504-6.604 0-3.97-2.135-6.57-5.504-6.57z"/><use xlink:href="#j"/><path d="M115.158 1045.478h-.567c-3.17 0-4.37-1.668-4.37-4.403V1030.6h-1c-.8 0-1.435-.634-1.435-1.4 0-.8.634-1.435 1.4-1.435h1v-4.637c0-.934.7-1.4 1.435-1.4s1.4.467 1.4 1.4v4.637h2.135c.934 0 1.4.768 1.4 1.4 0 .8-.533 1.434-1.4 1.434h-2.135v10.774c0 .934.333 1.268 1.268 1.268h.833c.868 0 1.435.634 1.435 1.4 0 .8-.533 1.435-1.4 1.435zm4.604-20.415a2.402 2.402 0 1 1 0-4.803 2.402 2.402 0 1 1 0 4.803zm0 20.414c-.733 0-1.467-.5-1.467-1.4V1029.2c0-.935.733-1.435 1.467-1.435a1.37 1.37 0 0 1 1.401 1.435v14.876c0 .935-.7 1.4-1.4 1.4zm10.376-14.877h-1.5v13.442c0 .935-.7 1.4-1.468 1.4-.7 0-1.4-.467-1.4-1.4V1030.6h-1.37c-.9 0-1.4-.667-1.4-1.4 0-.768.5-1.435 1.4-1.435h1.367v-2.27c0-2.135 1.77-3.77 3.836-3.77.968 0 1.468.667 1.468 1.434 0 .7-.5 1.4-1.468 1.4-.566 0-.967.434-.967.9v2.302h1.5c.967 0 1.468.667 1.468 1.435 0 .733-.5 1.4-1.468 1.4z"/><use xlink:href="#j" x="42.068"/><path d="M154.725 1045.544c-1.802 0-3.336-1.534-3.336-3.402v-18.98c0-.967.7-1.434 1.435-1.434s1.435.467 1.435 1.4v19.013c0 .4.3.567.467.567.934 0 1.435.667 1.435 1.435 0 .733-.5 1.4-1.435 1.4zm15.37-.066v-1.264c1.886-.237 2.046-.437 2.046-3.157v-6.7c0-2.8-1.248-4.017-3.064-4.017-1.237 0-2.345.6-3.47 1.493v9.476c0 2.527.187 2.658 2.06 2.896v1.264h-8.968v-1.264c2.254-.33 2.5-.4 2.5-3v-8.2c0-2.446-.303-2.565-2.185-2.922v-1.184c2.173-.292 4.63-.807 6.653-1.533l-.052 2.95 2.6-1.745c1.16-.713 2-1.086 3.16-1.086 3.194 0 5.2 2.338 5.2 6.3v7.5c0 2.54.237 2.657 2.277 2.92v1.264h-8.74zm23.9-3.703c-2.458 3.427-5.488 4.178-7.014 4.178-5.142 0-8.124-3.936-8.124-8.594 0-2.745 1.183-5.396 2.832-7.062 1.74-1.8 3.945-2.814 6.082-2.814 3.73 0 6.396 3.126 6.37 6.347-.014.715-.08 1.277-.612 1.4-.767.184-6.17.5-10.318.647.062 4.587 2.717 6.74 5.556 6.74 1.572 0 3.104-.597 4.543-1.866l.686 1.014zm-7.07-12.7c-1.667 0-3.167 1.807-3.516 4.963l5.486-.118c.6-.026.848-.146.848-.792.04-2.022-1.037-4.053-2.818-4.053zm34.284.145c-1.943.343-2.248.624-3.105 2.765-1.33 3.462-3.102 8.53-4.934 13.94h-1.512l-4.65-11.46-4.55 11.46h-1.472l-4.685-14.192c-.687-1.985-.94-2.274-2.855-2.512v-1.25h9.397v1.25c-2.325.345-2.535.672-2.058 2.133l2.52 8.214c1.507-3.68 2.988-7.62 4.327-11.424h1.456c1.4 3.76 2.986 7.702 4.573 11.568.742-2.107 2.062-5.964 2.557-8.108.412-1.674-.008-2.078-2.753-2.383v-1.25h7.742v1.25zm9.4 3.746c-.92-2.606-2.155-3.984-4.2-3.984-1.206 0-2.225.86-2.225 2.266 0 1.497 1.046 2.264 3.16 3.216 3.278 1.496 5.3 2.787 5.3 5.736 0 3.85-3.6 5.764-6.945 5.764-2.06 0-4.088-.737-4.92-1.16l-.662-4.892 1.252-.224c.8 2.5 2.33 4.75 4.976 4.75 1.505 0 2.438-.952 2.438-2.28 0-1.423-.76-2.333-3.092-3.467-2.67-1.295-5.107-2.64-5.107-5.775 0-3.046 2.533-5.42 6.565-5.42 1.818 0 3.242.396 4.112.567l.62 4.577-1.25.328z"/></g><g opacity=".5" fill="#fff"><path d="M858.023 1046.357c-1.2 0-3.22-.42-3.92-1.58-.08-.12-.08-.22-.08-.3 0-.32.28-.6.58-.6.12 0 .32.1.44.28.72.88 2 1.06 2.98 1.06 1.94 0 2.92-.64 2.92-1.94 0-3.02-6.562-1.42-6.562-5.422 0-2.02 2.02-2.8 3.84-2.8 1.04 0 2.64.36 3.44 1.16.12.12.18.26.18.38a.65.65 0 0 1-.62.6.53.53 0 0 1-.38-.16c-.62-.6-1.74-.84-2.62-.84-1.76 0-2.7.68-2.7 1.66 0 2.8 6.562 1.32 6.562 5.422 0 2.28-2 3.08-4.06 3.08z"/><use xlink:href="#k"/><path d="M884.433 1045.977c-.28 0-.58-.2-.58-.56v-.64c-.84.98-2.06 1.54-3.42 1.54-2.48 0-4.56-2.08-4.56-4.56v-5.842c0-.36.3-.56.58-.56.26 0 .56.2.56.56v5.842c0 1.9 1.52 3.42 3.42 3.42s3.42-1.52 3.42-3.42v-5.842c0-.36.3-.56.58-.56.26 0 .56.2.56.56v9.502c0 .36-.3.56-.56.56zm7.96-9.64a3.42 3.42 0 0 0-3.421 3.42v5.66c0 .36-.3.56-.56.56-.28 0-.58-.2-.58-.56v-9.502c0-.36.3-.56.58-.56.26 0 .56.2.56.56v.82c.9-.98 2.08-1.54 3.42-1.54.36 0 .58.3.58.56a.58.58 0 0 1-.58.581zm9.744 8.46c-.88.98-2.1 1.52-3.58 1.52-3.22 0-5.02-2.64-5.02-5.66 0-3 1.8-5.64 5.02-5.64 1.48 0 2.7.54 3.58 1.52a.53.53 0 0 1 .16.381.63.63 0 0 1-.58.6c-.14 0-.28-.06-.42-.2-.66-.74-1.58-1.16-2.74-1.16-2.36 0-3.88 1.9-3.88 4.5s1.52 4.52 3.88 4.52c1.16 0 2.08-.44 2.74-1.16.14-.14.28-.2.42-.2.3 0 .58.26.58.58a.57.57 0 0 1-.16.399z"/><use xlink:href="#l"/><path d="M916.894 1039.416c-.64 0-1.16-.5-1.16-1.14s.52-1.14 1.16-1.14c.62 0 1.12.5 1.12 1.14s-.5 1.14-1.12 1.14zm0 6.562c-.64 0-1.16-.5-1.16-1.14s.52-1.14 1.16-1.14c.62 0 1.12.5 1.12 1.14s-.5 1.14-1.12 1.14zm14.222.34c-4.4 0-5.82-3.7-5.82-7.46 0-3.74 1.42-7.482 5.82-7.482 1.8 0 3.38.64 4.44 2.18.1.1.12.2.12.32 0 .32-.3.56-.62.56-.28 0-.44-.24-.66-.52-.7-.9-1.76-1.4-3.28-1.4-3.02 0-4.682 2.32-4.682 6.342 0 3.04.96 6.32 4.682 6.32 3.16 0 4.54-2.42 4.68-5.74h-2.44a.57.57 0 0 1-.6-.58c0-.28.2-.58.56-.58h3.04c.34 0 .58.24.58.58 0 3.9-1.54 7.46-5.82 7.46z"/><use xlink:href="#m"/><use xlink:href="#k" x="79.18"/><path d="M960.276 1046.317c-1.74 0-3.04-.72-3.88-1.9v1c0 .36-.3.56-.56.56-.28 0-.58-.2-.58-.56v-13.122c0-.36.3-.56.58-.56.26 0 .56.2.56.56v4.6c.84-1.16 2.14-1.88 3.88-1.88 3.22 0 5.02 2.64 5.02 5.64 0 3.02-1.8 5.66-5.02 5.66zm0-10.162c-2.38 0-3.88 1.9-3.88 4.5s1.5 4.52 3.88 4.52 3.88-1.92 3.88-4.52-1.5-4.5-3.88-4.5zm17.778 9.822h-.02c-.66 0-1.6-.36-1.98-1.56-.84 1.18-2.14 1.9-3.88 1.9-3.26 0-5.02-2.68-5.02-5.66 0-3.02 1.8-5.64 5.02-5.64 1.74 0 3.04.72 3.88 1.88v-.98c0-.32.26-.56.58-.56.28 0 .56.2.56.56v8.063c0 1.28 1.44.48 1.44 1.44a.55.55 0 0 1-.58.561zm-5.88-9.822c-2.36 0-3.88 1.9-3.88 4.5s1.52 4.52 3.88 4.52c2.38 0 3.88-1.92 3.88-4.52s-1.5-4.5-3.88-4.5z"/><use xlink:href="#m" x="41.154"/><path d="M999.56 1044.137c-.98 1.36-2.38 2.18-4.46 2.18-4.3 0-5.82-3.56-5.82-7.46 0-3.92 1.52-7.482 5.82-7.482 2.02 0 3.5.8 4.44 2.18.1.1.12.2.12.32 0 .32-.3.56-.62.56-.16 0-.32-.06-.44-.22-.72-1.04-1.8-1.7-3.5-1.7-3.32 0-4.682 2.6-4.682 6.342 0 3.72 1.36 6.32 4.682 6.32 1.7 0 2.8-.64 3.54-1.7.1-.2.28-.26.44-.26.3 0 .6.26.6.58 0 .1-.04.22-.12.34z"/><use xlink:href="#n"/><path d="M1009.277 1045.977h-.62c-1.58 0-2.36-.78-2.36-2.34v-7.142h-1.02c-.36 0-.56-.3-.56-.58 0-.26.2-.56.56-.56h1.02v-3.06c0-.36.3-.56.58-.56s.56.2.56.56v3.06h1.84c.36 0 .56.3.56.56 0 .28-.2.58-.56.58h-1.84v7.142c0 .98.28 1.2 1.22 1.2h.62c.36 0 .56.3.56.58 0 .26-.2.56-.56.56z"/><use xlink:href="#n" x="9.882"/><path d="M1023.02 1045.977h-7.86a.54.54 0 0 1-.561-.54c0-.14.04-.28.12-.4l7.102-8.542h-6.66c-.36 0-.56-.3-.56-.58 0-.26.2-.56.56-.56h7.86c.32 0 .58.24.58.54 0 .14-.02.26-.14.4l-7.082 8.54h6.642c.38 0 .58.3.58.58a.56.56 0 0 1-.58.561z"/><use xlink:href="#l" x="120.743"/><path d="M1045.34 1045.977c-.28 0-.58-.2-.58-.56v-5.84c0-1.9-1.52-3.42-3.42-3.42a3.42 3.42 0 0 0-3.421 3.421v5.84c0 .36-.3.56-.56.56-.28 0-.58-.2-.58-.56v-9.502c0-.36.3-.56.58-.56.26 0 .56.2.56.56v.64c.9-.98 2.08-1.54 3.42-1.54a4.6 4.6 0 0 1 4.561 4.561v5.84c0 .36-.3.56-.56.56z"/></g><defs ><path id="C" d="M676.513 123.932v-72.2h11.78v72.2h-11.78z"/><path id="D" d="M717.913 69.532c-.128-1.532-.396-2.815-.808-3.85s-.92-1.85-1.52-2.45-1.252-1.032-1.948-1.3-1.362-.4-1.994-.4c-1.9 0-3.358.617-4.37 1.85s-1.52 2.984-1.52 5.25c0 2.067.585 3.967 1.758 5.7s2.644 3.467 4.417 5.2l5.796 5.25a47.07 47.07 0 0 1 5.795 5.851c1.77 2.134 3.244 4.484 4.417 7.05s1.758 5.484 1.758 8.75c0 3-.46 5.65-1.378 7.95s-2.185 4.234-3.8 5.8-3.58 2.75-5.9 3.55-4.83 1.2-7.553 1.2-5.163-.534-7.315-1.6-3.975-2.516-5.462-4.35-2.646-3.95-3.468-6.35-1.3-4.966-1.425-7.7l11.2-1.7c.252 3.667 1.013 6.4 2.28 8.2s2.85 2.7 4.75 2.7c2.025 0 3.672-.565 4.94-1.7s1.9-2.766 1.9-4.9c0-2.4-.587-4.532-1.758-6.4s-2.646-3.666-4.417-5.4l-5.796-5.2a47.89 47.89 0 0 1-5.795-5.699c-1.773-2.066-3.246-4.4-4.417-7s-1.758-5.633-1.758-9.1c0-5.8 1.583-10.25 4.75-13.35s7.662-4.65 13.5-4.65c2.406 0 4.56.435 6.46 1.3s3.53 2.085 4.893 3.65 2.47 3.417 3.325 5.55 1.408 4.468 1.662 7l-11.2 1.3z"/><path id="E" d="M774.017 69.232c0-2.532.363-4.933 1.093-7.2s1.836-4.232 3.324-5.9 3.356-2.983 5.605-3.95 4.924-1.45 8.027-1.45 5.778.484 8.027 1.45 4.116 2.284 5.605 3.95 2.596 3.634 3.324 5.9 1.093 4.668 1.093 7.2v37.2c0 2.534-.365 4.935-1.093 7.2s-1.837 4.234-3.324 5.9-3.358 2.984-5.605 3.95-4.925 1.45-8.027 1.45-5.78-.484-8.027-1.45-4.118-2.282-5.605-3.95-2.598-3.633-3.324-5.9-1.093-4.666-1.093-7.2v-37.2zm11.78 36.9c0 2.734.44 4.75 1.33 6.05s2.533 1.95 4.94 1.95 4.053-.65 4.94-1.95 1.33-3.315 1.33-6.05v-36.6c0-2.732-.443-4.75-1.33-6.05s-2.534-1.95-4.94-1.95-4.054.65-4.94 1.95-1.33 3.317-1.33 6.05v36.6z"/><path id="F" d="M839.672 75.833v-5.6c0-3.065-.57-5.282-1.7-6.65s-2.47-2.05-4-2.05c-2.407 0-4.054.65-4.94 1.95s-1.33 3.317-1.33 6.05v36.6c0 2.734.44 4.75 1.33 6.05s2.533 1.95 4.94 1.95c2.152 0 3.642-.633 4.465-1.9s1.235-3.065 1.235-5.4v-8.7h11.78v8.3c0 2.534-.365 4.935-1.093 7.2s-1.806 4.234-3.23 5.9-3.246 2.984-5.462 3.95-4.783 1.45-7.695 1.45c-3.104 0-5.78-.484-8.027-1.45s-4.118-2.282-5.605-3.95-2.598-3.633-3.324-5.9-1.093-4.666-1.093-7.2v-37.2c0-2.532.363-4.933 1.093-7.2s1.836-4.232 3.324-5.9 3.356-2.983 5.605-3.95 4.924-1.45 8.027-1.45c2.912 0 5.478.534 7.695 1.6s4.037 2.5 5.462 4.3 2.5 3.9 3.23 6.3 1.093 4.935 1.093 7.6v5.3h-11.78z"/><path id="G" d="M885.85 123.932h-11.4l12.636-72.2h14.63l12.635 72.2h-11.4l-2.1-16h-12.92l-2.1 16zm3.8-26.8h9.5l-4.655-31h-.19l-4.655 31z"/><path id="H" d="M921.655 62.532h-11.4v-10.8h34.58v10.8h-11.4v61.4h-11.78v-61.4z"/><path id="I" d="M578.133 214.932v-72.2h31.54v10.8h-19.76v18.6h15.2v10.8h-15.2v21.2h21.1v10.8h-32.87z"/><path id="J" d="M234.465 342.232c0-2.532.375-4.933 1.127-7.2s1.895-4.232 3.43-5.9 3.462-2.983 5.782-3.95 5.08-1.45 8.28-1.45 5.96.484 8.28 1.45 4.246 2.284 5.782 3.95 2.68 3.634 3.43 5.9 1.127 4.668 1.127 7.2v37.2c0 2.534-.377 4.935-1.127 7.2s-1.896 4.234-3.43 5.9-3.464 2.984-5.782 3.95-5.08 1.45-8.28 1.45-5.963-.484-8.28-1.45-4.248-2.282-5.782-3.95-2.68-3.633-3.43-5.9-1.127-4.666-1.127-7.2v-37.2zm12.152 36.9c0 2.734.455 4.75 1.37 6.05s2.612 1.95 5.096 1.95 4.18-.65 5.097-1.95 1.372-3.315 1.372-6.05v-36.6c0-2.732-.458-4.75-1.372-6.05s-2.614-1.95-5.097-1.95-4.182.65-5.096 1.95-1.37 3.317-1.37 6.05v36.6z"/><path id="K" d="M488.722 396.933v-72.2h12.152v72.2h-12.152z"/><path id="L" d="M552.845 396.933v-72.2h32.536v10.8h-20.384v18.6h15.68v10.8h-15.68v21.2h21.756v10.8h-33.908z"/><path id="M" d="M764.207 342.532c-.132-1.532-.41-2.815-.833-3.85s-.948-1.85-1.568-2.45-1.29-1.032-2.01-1.3-1.406-.4-2.06-.4c-1.96 0-3.463.617-4.508 1.85s-1.567 2.984-1.567 5.25c0 2.067.603 3.967 1.813 5.7s2.728 3.467 4.557 5.2l5.98 5.25a47.7 47.7 0 0 1 5.978 5.851c1.83 2.134 3.348 4.484 4.558 7.05s1.813 5.484 1.813 8.75c0 3-.475 5.65-1.42 7.95s-2.254 4.234-3.92 5.8-3.69 2.75-6.076 3.55-4.982 1.2-7.79 1.2-5.325-.534-7.546-1.6-4.1-2.516-5.635-4.35-2.73-3.95-3.577-6.35-1.34-4.966-1.47-7.7l11.563-1.7c.26 3.667 1.045 6.4 2.353 8.2s2.94 2.7 4.9 2.7c2.09 0 3.79-.565 5.097-1.7s1.96-2.766 1.96-4.9c0-2.4-.605-4.532-1.813-6.4s-2.73-3.666-4.557-5.4l-5.98-5.2c-2.155-1.732-4.15-3.633-5.978-5.7s-3.35-4.4-4.557-7-1.813-5.633-1.813-9.1c0-5.8 1.633-10.25 4.9-13.35s7.904-4.65 13.916-4.65c2.48 0 4.704.435 6.664 1.3s3.64 2.085 5.047 3.65 2.548 3.417 3.43 5.55 1.453 4.468 1.715 7l-11.563 1.3z"/><path id="N" d="M781.894 342.232c0-2.532.375-4.933 1.127-7.2s1.895-4.232 3.43-5.9 3.463-2.983 5.782-3.95 5.08-1.45 8.28-1.45 5.96.484 8.28 1.45 4.246 2.284 5.782 3.95 2.678 3.634 3.43 5.9 1.127 4.668 1.127 7.2v37.2c0 2.534-.377 4.935-1.127 7.2s-1.896 4.234-3.43 5.9-3.464 2.984-5.782 3.95-5.08 1.45-8.28 1.45-5.963-.484-8.28-1.45-4.247-2.282-5.782-3.95-2.68-3.633-3.43-5.9-1.127-4.666-1.127-7.2v-37.2zm12.152 36.9c0 2.734.456 4.75 1.372 6.05s2.612 1.95 5.096 1.95 4.18-.65 5.096-1.95 1.372-3.315 1.372-6.05v-36.6c0-2.732-.458-4.75-1.372-6.05s-2.613-1.95-5.096-1.95-4.182.65-5.096 1.95-1.372 3.317-1.372 6.05v36.6z"/><path id="O" d="M979.116 335.532h-11.76v-10.8h35.672v10.8h-11.76v61.4h-12.152v-61.4z"/><path id="P" d="M470.597 433.532c-.132-1.532-.41-2.815-.833-3.85s-.947-1.85-1.568-2.45-1.29-1.032-2.008-1.3-1.406-.4-2.06-.4c-1.96 0-3.464.617-4.508 1.85s-1.568 2.984-1.568 5.25c0 2.067.604 3.967 1.813 5.7s2.728 3.467 4.558 5.2l5.978 5.25c2.156 1.768 4.148 3.718 5.98 5.85a31.28 31.28 0 0 1 4.557 7.05c1.21 2.567 1.813 5.484 1.813 8.75 0 3-.476 5.65-1.42 7.95s-2.254 4.234-3.92 5.8-3.692 2.75-6.076 3.55-4.982 1.2-7.79 1.2-5.326-.534-7.547-1.6-4.1-2.516-5.635-4.35-2.73-3.95-3.576-6.35-1.34-4.966-1.47-7.7l11.564-1.7c.26 3.667 1.045 6.4 2.352 8.2s2.94 2.7 4.9 2.7c2.1 0 3.788-.565 5.096-1.7s1.96-2.766 1.96-4.9c0-2.4-.605-4.532-1.813-6.4s-2.73-3.666-4.558-5.4l-5.978-5.2c-2.156-1.732-4.15-3.633-5.978-5.7s-3.35-4.4-4.558-7-1.813-5.633-1.813-9.1c0-5.8 1.633-10.25 4.9-13.35s7.904-4.65 13.916-4.65c2.482 0 4.704.435 6.664 1.3s3.642 2.085 5.047 3.65 2.55 3.417 3.43 5.55 1.453 4.468 1.715 7l-11.563 1.3z"/><path id="Q" d="M350.05 524.532c-.13-1.532-.408-2.815-.832-3.85s-.948-1.85-1.568-2.45-1.29-1.032-2.01-1.3-1.405-.4-2.058-.4c-1.96 0-3.465.617-4.51 1.85s-1.567 2.984-1.567 5.25c0 2.067.604 3.967 1.813 5.7s2.727 3.467 4.557 5.2l5.98 5.25c2.156 1.768 4.148 3.718 5.98 5.85s3.347 4.484 4.557 7.05 1.813 5.484 1.813 8.75c0 3-.475 5.65-1.42 7.95s-2.254 4.234-3.92 5.8-3.692 2.75-6.075 3.55-4.983 1.2-7.79 1.2-5.326-.534-7.547-1.6-4.1-2.516-5.635-4.35-2.73-3.95-3.577-6.35-1.34-4.966-1.47-7.7l11.564-1.7c.26 3.667 1.044 6.4 2.352 8.2s2.94 2.7 4.9 2.7c2.1 0 3.787-.565 5.096-1.7s1.96-2.766 1.96-4.9c0-2.4-.604-4.532-1.813-6.4s-2.73-3.666-4.557-5.4l-5.98-5.2c-2.156-1.732-4.15-3.633-5.978-5.7s-3.35-4.4-4.558-7-1.812-5.633-1.812-9.1c0-5.8 1.633-10.25 4.9-13.35s7.904-4.65 13.916-4.65c2.482 0 4.703.435 6.664 1.3a14.7 14.7 0 0 1 5.047 3.65c1.404 1.567 2.548 3.417 3.43 5.55s1.453 4.468 1.715 7l-11.564 1.3z"/><path id="R" d="M771.232 669.933v-72.2h11.27l14.798 41.3h.195v-41.3h10.977v72.2h-10.584l-15.484-45.1h-.195v45.1h-10.977z"/><path id="S" d="M871.564 669.933h-12.152v-72.2h17.052c6.795 0 11.923 1.635 15.387 4.9s5.193 8.734 5.193 16.4c0 2.935-.245 5.435-.734 7.5s-1.145 3.817-1.96 5.25-1.732 2.585-2.744 3.45-2.043 1.534-3.087 2l10.3 32.7h-12.35l-8.624-29.9c-.784.135-1.748.218-2.89.25a109.96 109.96 0 0 1-3.381.051v29.6zm0-39.8h4.312c1.633 0 3.02-.166 4.165-.5s2.073-.933 2.793-1.8 1.24-2.016 1.568-3.45.5-3.216.5-5.35c0-4.266-.687-7.183-2.06-8.75s-3.69-2.35-6.958-2.35h-4.312v22.2z"/><path id="T" d="M1017.385 669.933h-11.76l13.034-72.2h15.092l13.034 72.2h-11.76l-2.156-16h-13.328l-2.156 16zm3.92-26.8h9.8l-4.803-31h-.195l-4.802 31z"/><path id="U" d="M769.182 851.933v-72.2h17.444c7.512 0 13.05 1.635 16.6 4.9s5.342 8.734 5.342 16.4c0 3.867-.44 7.15-1.323 9.85s-2.222 4.9-4.02 6.6-4.083 2.935-6.86 3.7-6.027 1.15-9.75 1.15h-5.292v29.6h-12.152zm12.152-39.8h4.704c1.96 0 3.608-.166 4.948-.5s2.417-.933 3.234-1.8 1.388-2.016 1.715-3.45.5-3.216.5-5.35-.164-3.915-.5-5.35-.898-2.565-1.715-3.4-1.896-1.433-3.234-1.8-2.988-.55-4.948-.55h-4.704v22.2z"/><path id="V" d="M415.747 73.6c18.6 0 32.398 15 32.398 33.448 0 24.15-17.7 35.548-32.55 35.548-20.55 0-32.85-16.498-32.85-32.998 0-24.75 19.2-35.998 32.85-35.998h.15zm-1.95 4.95c-9 0-17.1 9.3-17.1 26.25 0 18.9 8.1 32.85 20.55 32.85 9.3 0 16.95-6.75 16.95-27.45 0-17.398-7.05-31.648-20.25-31.648h-.15z"/><path id="W" d="M289.445 273.48c-2.25 0-5.4-1.35-7.05-2.85-1.95-1.95-2.85-4.05-3.6-6.75-6 4.05-13.2 9.6-17.7 9.6-10.65 0-18-8.85-18-18.3 0-7.2 3.9-11.85 12.15-14.7 9-3 19.948-7.05 23.25-9.75v-2.55c0-10.95-4.95-16.95-12.6-16.95-2.85 0-5.1 1.05-6.6 2.85-1.95 1.95-3.15 5.25-4.5 9.75-.75 2.4-2.25 3.45-4.35 3.45-2.7 0-6.45-2.85-6.45-6.3 0-2.25 1.8-3.9 4.65-6 4.2-3 13.8-8.55 22.35-10.5 4.5 0 9 1.35 12.3 4.05 5.25 4.5 6.75 10.5 6.75 18.45v27.75c0 6.75 2.7 9 5.25 9 1.8 0 3.9-.9 5.4-1.8l1.5 3.9-12.75 7.648zm-10.95-37.648c-3.15 1.65-10.35 4.8-13.5 6.3-5.85 2.7-9.15 5.4-9.15 10.95 0 7.8 6 11.4 10.65 11.4 3.9 0 9.15-2.55 12-5.4v-23.25z"/><path id="X" d="M345.995 271.68v-3.9c8.85-.9 9.9-2.1 9.9-12.45v-24.9c0-10.35-3.6-17.1-13.65-17.1-6 0-11.85 3.75-16.35 7.65v35.1c0 10.2.9 10.8 9.75 11.7v3.9h-32.55v-3.9c10.2-1.05 10.95-1.8 10.95-11.7v-30.898c0-9.6-.9-10.05-9-11.55v-3.45c7.2-1.35 14.25-3.15 20.85-6.15v12c3-2.25 6.3-4.5 10.05-7.05 4.2-2.7 8.1-4.5 12.45-4.5 12 0 19.35 8.25 19.35 22.648v28.95c0 10.2.9 10.8 9.6 11.7v3.9h-31.35z"/><path id="Y" d="M557.492 271.53c-2.55 1.35-4.8 1.95-6.3 1.95-9.45 0-14.7-5.85-14.7-17.7v-43.498h-10.35l-.6-1.65 4.2-4.35h6.75v-10.8l9.75-10.05 2.1.3v20.55h16.95c1.5 1.65 1.05 4.8-.9 6h-16.05v38.398c0 12 4.95 14.25 8.85 14.25 3.75 0 7.2-1.35 9.15-2.4l1.35 3.75-10.2 5.25z"/><path id="Z" d="M153.848 404.363c-2.25 0-5.4-1.35-7.05-2.85-1.95-1.95-2.85-4.05-3.6-6.75-6 4.05-13.2 9.6-17.7 9.6-10.65 0-18-8.85-18-18.3 0-7.2 3.9-11.85 12.15-14.7 9-3 19.95-7.05 23.25-9.75v-2.55c0-10.95-4.95-16.95-12.6-16.95-2.85 0-5.1 1.05-6.6 2.85-1.95 1.95-3.15 5.25-4.5 9.75-.75 2.4-2.25 3.45-4.35 3.45-2.7 0-6.45-2.85-6.45-6.3 0-2.25 1.8-3.9 4.65-6 4.2-3 13.8-8.55 22.35-10.5 4.5 0 9 1.35 12.3 4.05 5.25 4.5 6.75 10.5 6.75 18.45v27.75c0 6.75 2.7 9 5.25 9 1.8 0 3.9-.9 5.4-1.8l1.5 3.9-12.75 7.65zm-10.95-37.648c-3.15 1.65-10.35 4.8-13.5 6.3-5.85 2.7-9.15 5.4-9.15 10.95 0 7.8 6 11.4 10.65 11.4 3.9 0 9.15-2.55 12-5.4v-23.25z"/><path id="a" d="M202.45 355.016c-3-9-8.1-14.85-15.45-14.85-5.85 0-9.75 4.35-9.75 10.35 0 6.6 6 10.05 12.6 12.9 11.4 4.65 19.05 9.9 19.05 20.25 0 13.65-12.75 20.7-24.75 20.7-7.65 0-14.55-2.85-17.1-5.1-1.05-2.1-2.55-12.3-2.55-17.7l4.05-.6c2.55 9.75 9.3 18.45 18.3 18.45 5.55 0 10.65-4.05 10.65-10.5 0-6.6-4.35-10.05-11.85-13.5-9-4.2-18.75-9.15-18.75-20.55 0-10.5 9-19.5 22.8-19.5 6.15 0 10.2 1.35 13.2 2.7 1.35 3.3 3 12.15 3.3 15.9l-3.75 1.05z"/><path id="b" d="M459.992 389.964c-9.45 11.7-19.8 14.4-24.448 14.4-18.45 0-29.25-15-29.25-31.948 0-10.2 3.75-19.5 9.9-26.1 6.15-6.75 14.25-10.95 21.9-10.95h.15c12.45 0 22.5 11.1 22.5 22.648 0 3-.6 4.2-3.45 4.8-2.4.45-21.3 1.95-39.3 2.55.15 20.4 12 28.8 22.5 28.8 6.15 0 11.7-2.4 17.25-7.5l2.25 3.3zm-25.5-49.048c-6.75 0-13.5 6.3-15.75 18.3 8.4 0 16.8-.15 25.5-.45 2.7 0 3.6-.75 3.6-2.85.15-7.8-4.95-15-13.2-15h-.15z"/><path id="c" d="M502.592 402.563v-3.9c8.85-.9 9.9-2.1 9.9-12.45v-24.898c0-10.35-3.6-17.1-13.65-17.1-6 0-11.85 3.75-16.35 7.65v35.098c0 10.2.9 10.8 9.75 11.7v3.9h-32.55v-3.9c10.2-1.05 10.95-1.8 10.95-11.7v-30.898c0-9.6-.9-10.05-9-11.55v-3.45c7.2-1.35 14.25-3.15 20.85-6.15v12c3-2.25 6.3-4.5 10.05-7.05 4.2-2.7 8.1-4.5 12.45-4.5 12 0 19.35 8.25 19.35 22.648v28.95c0 10.2.9 10.8 9.6 11.7v3.9h-31.35z"/><path id="d" d="M330.392 533.446v-3.9c9.45-.9 10.5-1.8 10.5-12v-30.898c0-9.15-.45-9.9-9.45-11.25v-3.6c7.65-1.2 14.85-3.15 21.3-5.85v51.598c0 10.2 1.05 11.1 10.65 12v3.9h-33zm15.6-97.646c4.2 0 7.5 3.45 7.5 7.8 0 4.05-3.3 7.648-7.65 7.648-3.9 0-7.5-3.6-7.5-7.5 0-4.5 3.6-7.95 7.5-7.95h.15z"/><path id="e" d="M482.94 520.847c-9.45 11.7-19.8 14.4-24.45 14.4-18.45 0-29.25-15-29.25-31.948 0-10.2 3.75-19.5 9.9-26.1 6.15-6.75 14.25-10.95 21.9-10.95h.15c12.45 0 22.5 11.1 22.5 22.648 0 3-.6 4.2-3.45 4.8-2.4.45-21.3 1.95-39.298 2.55.15 20.4 12 28.8 22.5 28.8 6.15 0 11.7-2.4 17.25-7.5l2.25 3.3zm-25.5-49.048c-6.75 0-13.5 6.3-15.75 18.3 8.4 0 16.8-.15 25.498-.45 2.7 0 3.6-.75 3.6-2.85.15-7.8-4.95-15-13.2-15h-.15z"/><path id="f" d="M755.035 520.847c-9.45 11.7-19.8 14.4-24.45 14.4-18.45 0-29.25-15-29.25-31.948 0-10.2 3.75-19.5 9.9-26.1 6.15-6.75 14.25-10.95 21.9-10.95h.15c12.45 0 22.5 11.1 22.5 22.648 0 3-.6 4.2-3.45 4.8-2.4.45-21.3 1.95-39.3 2.55.15 20.4 12 28.8 22.5 28.8 6.15 0 11.7-2.4 17.25-7.5l2.25 3.3zm-25.5-49.048c-6.75 0-13.5 6.3-15.75 18.3 8.4 0 16.8-.15 25.5-.45 2.7 0 3.6-.75 3.6-2.85.15-7.8-4.95-15-13.2-15h-.15z"/><path id="g" d="M66.55 597.132c18.6 0 32.398 15 32.398 33.45 0 24.148-17.7 35.548-32.55 35.548-20.55 0-32.85-16.5-32.85-33 0-24.748 19.2-35.998 32.85-35.998h.15zm-1.95 4.95c-9 0-17.1 9.3-17.1 26.25 0 18.898 8.1 32.848 20.55 32.848 9.3 0 16.95-6.75 16.95-27.448 0-17.4-7.05-31.65-20.25-31.65h-.15z"/><path id="h" d="M428.943 613.03c4.5-7.5 10.95-15.9 18.15-15.9 5.1 0 8.7 4.05 8.7 7.5 0 3-1.95 6-4.8 7.35-1.8.75-3 .6-3.9-.3-2.25-2.1-4.05-3-6.45-3-3.9 0-8.7 4.35-12 12.75v27.3c0 9.9.75 10.8 12.3 11.7v3.9h-34.498v-3.9c9.3-.9 10.35-1.8 10.35-11.55v-31.05c0-9.9-.6-10.5-9.3-11.55v-3.45c7.35-1.2 13.95-3 21.15-6v16.2h.3z"/><path id="i" d="M105.547 922.194c-3.3.6-14.55 2.55-23.25 5.7v-9.75l-9.15 5.4c-6 3.45-10.05 4.35-11.7 4.35-12 0-27.75-11.1-27.75-31.948 0-20.7 18.15-37.05 38.548-37.05 2.1 0 6.6.45 10.05 1.8v-21.45c0-9.9-.75-10.35-11.55-11.1v-3.75c7.8-.9 17.85-3.3 23.4-5.1v89.546c0 7.65 1.05 8.55 6.6 9.15l4.8.45v3.75zm-23.25-49.947c-3.6-5.25-9.9-7.65-15.45-7.65-7.05 0-19.65 5.7-19.65 27.3 0 17.85 10.95 26.55 20.7 26.55 5.25 0 10.8-2.4 14.4-5.1v-41.098z"/><path id="j" d="M104.714 1045.51c-.633 0-1.267-.367-1.4-1.1-1.334 1.034-2.97 1.668-4.804 1.668-4.136 0-7.604-3.436-7.604-7.605v-9.24a1.37 1.37 0 0 1 1.4-1.435c.768 0 1.468.5 1.468 1.4v9.272c0 2.602 2.168 4.77 4.736 4.77 2.603 0 4.77-2.17 4.77-4.77v-9.24c0-1.034.667-1.468 1.4-1.468.768 0 1.435.5 1.435 1.435v14.9c0 .934-.667 1.4-1.4 1.4z"/><path id="k" d="M868.7 1046.317c-3.22 0-5.02-2.64-5.02-5.66 0-3 1.8-5.64 5.02-5.64s5.02 2.64 5.02 5.64c0 3.02-1.8 5.66-5.02 5.66zm0-10.162c-2.36 0-3.88 1.9-3.88 4.5s1.52 4.52 3.88 4.52c2.38 0 3.88-1.92 3.88-4.52s-1.5-4.5-3.88-4.5z"/><path id="l" d="M913.227 1041.236h-8.302c.18 2.28 1.66 3.94 3.84 3.94 1.08 0 2.36-.48 2.94-1.38.14-.22.3-.28.48-.28.3 0 .62.24.62.54 0 .18 0 .22-.38.66-.92 1.08-2.26 1.6-3.66 1.6-3.22 0-5.02-2.64-5.02-5.66 0-3 1.8-5.64 5.02-5.64s5.02 2.66 5.02 5.64c0 .3-.28.58-.56.58zm-4.46-5.08c-2.4 0-3.66 1.84-3.84 3.94h7.7c-.18-2.28-1.66-3.94-3.86-3.94z"/><path id="m" d="M941.166 1046.098c-1.08 0-1.98-1-1.98-2.12v-11.683c0-.36.3-.56.58-.56.26 0 .56.2.56.56v11.683c0 1.28 1.42.54 1.42 1.44 0 .34-.24.68-.58.68z"/><path id="n" d="M1002.32 1033.434c-.64 0-1.14-.5-1.14-1.14s.5-1.14 1.14-1.14 1.14.5 1.14 1.14-.5 1.14-1.14 1.14zm0 12.543c-.28 0-.58-.18-.58-.56v-9.502c0-.36.28-.56.58-.56.26 0 .56.18.56.56v9.502c0 .36-.26.56-.56.56z"/></defs></svg>