<svg xmlns="http://www.w3.org/2000/svg" xmlns:xlink="http://www.w3.org/1999/xlink" viewBox="0 0 1080 1080"><style><![CDATA[.T{fill:#2e3192}.U{stroke-miterlimit:10}.V{stroke-dasharray:2,6}]]></style><linearGradient id="A" gradientUnits="userSpaceOnUse" x1="0" y1="540" x2="1080" y2="540"><stop offset="0" stop-color="#43c6ac"/><stop offset="1" stop-color="#f8ffae"/></linearGradient><path d="M1080,1040c0,22-18,40-40,40H40c-22,0-40-18-40-40V40C0,18,18,0,40,0h1000c22,0,40,18,40,40V1040z" fill="url(#A)"/><linearGradient id="B" gradientUnits="userSpaceOnUse" x1="38.373" y1="853.292" x2="893.5" y2="853.292"><stop offset="0" stop-color="#ec9bb5"/><stop offset=".049" stop-color="#edacaf"/><stop offset=".133" stop-color="#eec2a8"/><stop offset=".232" stop-color="#eed3a3"/><stop offset=".354" stop-color="#efde9f"/><stop offset=".525" stop-color="#efe59d"/><stop offset="1" stop-color="#efe79c"/></linearGradient><path d="M38.53 953.795h276.917c95.403 0 226.272-45.087 290.82-87.97l40.802-27.108c64.55-42.884 165.286-77.97 223.862-77.97s-15.378 0-15.378 0l-.765-1.218v-5.988l-.295-.752s25.555.398-30.106.884-108.754 32.545-180.05 71.24L577.74 861.06c-71.297 38.696-207.69 70.357-303.092 70.357H38.53l-.157.125v7.693" fill="url(#B)"/><linearGradient id="C" gradientUnits="userSpaceOnUse" x1="38" y1="469.116" x2="866.291" y2="469.116"><stop offset="0" stop-color="#ec9bb5"/><stop offset=".025" stop-color="#dc95b2"/><stop offset=".084" stop-color="#bd88ab"/><stop offset=".151" stop-color="#a17da5"/><stop offset=".226" stop-color="#8b75a1"/><stop offset=".314" stop-color="#7a6e9d"/><stop offset=".423" stop-color="#6f699b"/><stop offset=".576" stop-color="#686799"/><stop offset="1" stop-color="#669"/></linearGradient><path d="M38.53 605.995H178.94c77.226 0 215.998 11.892 308.382 26.427L595.4 649.427c92.384 14.535 165.113 26.427 223.69 26.427h45.405l.295.373v-212.81l.235.1s13.17 0-45.405 0-108.53-53.55-173.08-96.435l-40.802-27.108c-64.55-42.884-195.418-77.97-290.82-77.97H38l.373.245v343.192" fill="url(#C)"/><linearGradient id="D" gradientUnits="userSpaceOnUse" x1="38.373" y1="692.379" x2="865.762" y2="692.379"><stop offset="0" stop-color="#ec9bb5"/><stop offset=".006" stop-color="#e89ab4"/><stop offset=".057" stop-color="#c391ae"/><stop offset=".115" stop-color="#a488a8"/><stop offset=".18" stop-color="#8881a3"/><stop offset=".252" stop-color="#727c9f"/><stop offset=".337" stop-color="#61779c"/><stop offset=".443" stop-color="#56749a"/><stop offset=".59" stop-color="#4f7298"/><stop offset="1" stop-color="#4d7298"/></linearGradient><path d="M38.373 605.442v173.636l.157.24H178.94c77.226 0 214.475-15.045 304.997-33.434l114.846-23.33c90.522-18.39 161.73-33.434 220.304-33.434h45.405l.295.095v-12.987l-.295-.373s13.17 0-45.405 0-131.305-11.892-223.69-26.427l-108.077-17.004c-92.384-14.535-231.156-26.427-308.382-26.427H38.53" fill="url(#D)"/><linearGradient id="E" gradientUnits="userSpaceOnUse" x1="38.373" y1="753.23" x2="865.762" y2="753.23"><stop offset="0" stop-color="#ec9bb5"/><stop offset=".06" stop-color="#cd9eb5"/><stop offset=".127" stop-color="#b2a0b5"/><stop offset=".205" stop-color="#9ca2b6"/><stop offset=".295" stop-color="#8ba4b6"/><stop offset=".407" stop-color="#80a5b6"/><stop offset=".564" stop-color="#79a6b6"/><stop offset="1" stop-color="#77a6b6"/></linearGradient><path d="M38.53 817.34H178.94c77.226 0 213.336-16.992 302.466-37.76l119.908-27.94c89.13-20.77 159.198-38.16 217.773-38.645l45.405-.884.295 1.398v-24.294l-.295-.095s13.17 0-45.405 0-129.782 15.045-220.304 33.434l-114.846 23.33c-90.522 18.39-227.77 33.434-304.997 33.434H38.53l-.157-.24v36.764" fill="url(#E)"/><linearGradient id="F" gradientUnits="userSpaceOnUse" x1="38.373" y1="795.739" x2="865.762" y2="795.739"><stop offset="0" stop-color="#ec9bb5"/><stop offset=".057" stop-color="#d8a5b8"/><stop offset=".14" stop-color="#c2b0bc"/><stop offset=".238" stop-color="#b1b9bf"/><stop offset=".359" stop-color="#a6bfc1"/><stop offset=".528" stop-color="#9fc2c2"/><stop offset="1" stop-color="#9dc3c2"/></linearGradient><path d="M38.373 815.842v63.525l.157-.125h152.333c83.783 0 218.76-25.024 299.947-55.61l124.948-47.07c81.187-30.585 144.756-56.007 203.33-56.493l45.405-.884.295 1.318v-6.995l-.295-1.398s13.17.398-45.405.884-128.643 17.877-217.773 38.645l-119.908 27.94c-89.13 20.77-225.24 37.76-302.466 37.76H38.53" fill="url(#F)"/><linearGradient id="G" gradientUnits="userSpaceOnUse" x1="38.373" y1="815.638" x2="865.762" y2="815.638"><stop offset="0" stop-color="#ec9bb5"/><stop offset=".007" stop-color="#ea9db4"/><stop offset=".094" stop-color="#d6b3ab"/><stop offset=".197" stop-color="#c6c4a4"/><stop offset=".324" stop-color="#bbcfa0"/><stop offset=".503" stop-color="#b5d69d"/><stop offset=".999" stop-color="#b3d89c"/></linearGradient><path d="M864.494 719.185s13.17.398-45.405.884-122.144 25.908-203.33 56.493L490.8 823.633c-81.187 30.585-216.163 55.61-299.947 55.61H38.53l-.157.125V912.1l.157-.13h172.998c95.15 0 235-28.946 310.784-64.323l103.274-48.212c75.782-35.378 134.93-64.72 193.504-65.208l45.405-.884.295 1.088v-13.92" fill="url(#G)"/><linearGradient id="H" gradientUnits="userSpaceOnUse" x1="38.373" y1="832.437" x2="866.494" y2="832.437"><stop offset="0" stop-color="#ec9bb5"/><stop offset=".068" stop-color="#e4b4b4"/><stop offset=".15" stop-color="#dccab3"/><stop offset=".247" stop-color="#d7dbb2"/><stop offset=".366" stop-color="#d3e6b1"/><stop offset=".534" stop-color="#d1edb1"/><stop offset="1" stop-color="#d0efb1"/></linearGradient><path d="M864.494 733.333s13.17.398-45.405.884-117.722 29.83-193.504 65.208L522.31 847.637c-75.782 35.378-215.635 64.323-310.784 64.323H38.53l-.157.13v19.45l.157-.125h236.118c95.403 0 231.794-31.66 303.092-70.357l66.597-36.145c71.297-38.696 124.4-70.755 180.05-71.24l40.106-.884.295.752v-19.118" fill="url(#H)"/><g class="T"><path d="M38.042 997.71v-1.92h2.913v-18.56l-2.98.256v-1.408c1.357-.32 2.68-.896 3.773-1.79h1.59v21.502h2.78v1.92h-8.075z"/><use xlink:href="#J"/><use xlink:href="#J" x="12.708"/><path d="M80.003 998.03c-3.905 0-5.758-3.52-5.758-11.87s1.853-11.87 5.758-11.87 5.76 3.52 5.76 11.87-1.853 11.87-5.76 11.87zm0-21.822c-2.184 0-3.375 2.367-3.375 9.95s1.2 9.95 3.375 9.95 3.376-2.368 3.376-9.95-1.2-9.95-3.376-9.95zM777.94 997.7v-1.92c2.118-6.848 8.737-10.687 8.737-15.935 0-2.432-1.258-3.647-2.88-3.647-1.887 0-3.277 1.407-3.475 4.863h-2.185c.265-5.248 2.714-6.783 5.593-6.783 3.144 0 5.33 2.048 5.33 5.887 0 5.76-5.362 7.552-8.936 15.615h9.068v1.92H777.94zm18.467.33c-3.905 0-5.76-3.52-5.76-11.87s1.854-11.87 5.76-11.87 5.76 3.52 5.76 11.87-1.853 11.87-5.76 11.87zm0-21.822c-2.184 0-3.375 2.367-3.375 9.95s1.2 9.95 3.375 9.95 3.376-2.368 3.376-9.95-1.2-9.95-3.376-9.95zm8.87 21.492v-1.92h2.913v-18.56l-2.98.256v-1.408c1.357-.32 2.68-.896 3.773-1.8h1.6V995.8h2.78v1.92h-8.075zm19.46-18.804c-.33-2.304-1.655-2.687-2.582-2.687-2.118 0-3.442 2.815-3.508 9.247.96-.992 2.25-1.76 3.674-1.76 2.68 0 5.13 1.855 5.13 7.104 0 4.48-1.986 7.23-5.13 7.23-4.137 0-6.123-2.304-6.123-10.624 0-9.28 2.25-13.118 6.023-13.118 3.078 0 4.236 1.8 4.7 4.48l-2.185.128zm-6.156 10.88c0 4.672 1.258 6.336 3.376 6.336 1.853 0 3.1-1.344 3.1-5.344 0-4.128-1.456-5.15-2.98-5.15s-2.714.96-3.508 1.983v2.176zM37.62 223.743c.298-3.06 2-5.543 5.473-5.543 3.016 0 5.994 2.016 5.994 6.335 0 3.672-1.564 5.76-3.5 6.12v.072c3.016.972 3.946 3.708 3.946 6.48 0 5.327-3.202 7.703-6.553 7.703-3.574 0-5.994-2.772-6.03-6.552h2.457c.224 2.808 1.5 4.392 3.872 4.392 1.787 0 3.574-1.872 3.574-5.436 0-4.283-1.86-5.507-6.106-5.507v-2.16c4.02 0 5.66-.936 5.66-4.967 0-3.096-1.266-4.32-3.127-4.32-2.3 0-3.127 1.872-3.202 3.672l-2.457-.288zm17.758 17.422v3.384H52.25v-3.384h3.127z"/><use xlink:href="#K"/><path d="M79.018 244.55v-18.72h2.458v2.052c1.042-1.187 2.643-2.4 4.505-2.4 1.526 0 2.98.972 3.462 2.375 1.08-1.15 2.606-2.375 4.505-2.375 2.532 0 3.9 1.655 3.9 4.32v14.758h-2.68v-14.4c0-1.943-.596-2.52-2-2.52-1.638 0-2.57 1.116-3.388 1.943v14.975H87.1V230.15c0-1.943-.708-2.52-2.122-2.52-1.638 0-2.57 1.116-3.276 1.943v14.975h-2.68zm22.412-26h2.68v3.023h-2.68v-3.023zm0 7.27h2.68v18.718h-2.68V225.83zm6.032-7.27h2.68v25.988h-2.68V218.56zm6.03 0h2.68v25.988h-2.68V218.56zm6.03 0h2.68v3.023h-2.68v-3.023zm0 7.27h2.68v18.718h-2.68V225.83zm10.46-.358c4.06 0 5.92 2.95 5.92 9.72s-1.86 9.72-5.92 9.72-5.92-2.952-5.92-9.72 1.86-9.72 5.92-9.72zm0 17.277c2.27 0 3.24-1.368 3.24-7.56s-.968-7.56-3.24-7.56-3.24 1.368-3.24 7.56.968 7.56 3.24 7.56zm7.706-16.92h2.532v2.052c1.266-1.26 3.127-2.4 4.393-2.4 2.68 0 4.245 1.44 4.245 4.895v14.183h-2.68v-13.822c0-2.16-.67-3.096-2.122-3.096-1.303 0-2.495.864-3.686 2.304v14.614h-2.68v-18.72zm29.078 16.92h-.075c-.93 1.332-2.27 2.16-3.983 2.16-3.053 0-5.585-2.52-5.585-9.72s2.532-9.72 5.585-9.72c1.452 0 2.68.863 3.574 1.728v-8.64h2.68v20.95c0 2.447.148 3.96.446 5.04h-2.53l-.112-1.8zm-.484-13.462c-.782-.756-1.713-1.656-2.904-1.656-2.27 0-3.574 1.8-3.574 7.56s1.415 7.56 3.648 7.56c.82 0 2-.72 2.83-1.8V229.3zm7.334 6.334v1.044c0 4.57 1.08 6.083 3.6 6.083 2.048 0 2.904-1.836 3.24-3.527l2.532.288c-.4 2.808-2.606 5.4-6.143 5.4-4.06 0-5.92-2.952-5.92-9.72s1.86-9.72 5.92-9.72c4.095 0 5.92 3.527 5.92 8.927v1.224h-9.16zm6.478-2.16c-.074-4.03-.82-5.83-3.24-5.83-1.937 0-3.202 1.368-3.24 5.83h6.478zm4.094-2.52c.52-2.95 2.3-5.47 5.734-5.47 3.574 0 5.547 2.016 5.547 5.327v10.438c0 1.655.187 2.88.484 3.312h-2.792l-.335-1.584c-1.042 1.008-2.904 1.944-4.132 1.944-3.016 0-5.026-1.872-5.026-4.824 0-4.607 5.25-6.946 9.122-7.774v-1.332c0-2.052-1.08-3.348-2.792-3.348-2.048 0-3.053 1.98-3.35 3.672l-2.458-.36zm8.6 3.527c-2.457.72-6.44 2.448-6.44 5.4 0 1.764.82 2.88 2.755 2.88 1.452 0 2.718-.972 3.686-1.943v-6.336zm3.688-8.64h2.606v-6.263h2.68v6.263h3.574V228h-3.574v13.103c0 1.08.596 1.87 1.936 1.87.52 0 1.2-.216 1.64-.36v1.943a8.16 8.16 0 0 1-2.532.36c-2.53 0-3.723-1.152-3.723-4.032V228h-2.606v-2.16zm10.5-7.27h2.68v9.322c1.117-1.26 2.98-2.4 4.245-2.4 2.68 0 4.244 1.44 4.244 4.895v14.183h-2.68v-13.822c0-2.16-.67-3.096-2.122-3.096-1.303 0-2.495.864-3.686 2.304v14.614h-2.68v-26zm21.817 12.023c-.484-1.62-1.2-2.952-3.35-2.952-1.266 0-2.16.972-2.16 2.23 0 3.815 8.2 4.032 8.2 9.863 0 2.95-2.233 5.184-5.287 5.184-3.5 0-5.25-1.836-6.18-4.968l2.457-.504c.56 1.656 1.563 3.312 3.537 3.312 1.452 0 2.792-1.296 2.792-2.844 0-4.32-8.2-4.392-8.2-9.898 0-2.448 2.085-4.535 5.026-4.535 2.98 0 4.766 1.655 5.4 4.463l-2.234.648zM770.35 244.55v-2.16h3.276v-20.877l-3.35.288v-1.584c1.526-.36 3.016-1.008 4.245-2.016h1.787v24.188h3.127v2.16h-9.084zm16.046-3.385v3.384h-3.127v-3.384h3.127z"/><use xlink:href="#K" x="731.016"/><path d="M804.005 244.55V225.83h2.457v2.052c1.043-1.187 2.644-2.41 4.505-2.41 1.526 0 2.98.972 3.462 2.375 1.08-1.15 2.606-2.375 4.505-2.375 2.532 0 3.91 1.655 3.91 4.32v14.758h-2.68V230.15c0-1.943-.596-2.52-2-2.52-1.638 0-2.57 1.116-3.388 1.943v14.975h-2.68V230.15c0-1.943-.707-2.52-2.122-2.52-1.638 0-2.57 1.116-3.276 1.943v14.975h-2.68z"/></g><path d="M854.962 753.23h10.49v6.814h-10.49z" fill="#edeb98"/><g fill="none" stroke="#2e3192" class="U"><path d="M845.277 234.005h16.25c8.937 0 16.25 9 16.25 20v710.79c0 11-7.312 20-16.25 20h-16.25" stroke-width="2" class="V"/><path d="M248.34 232.94h497.63"/></g><path d="M745.155 226.864v12.15l6.072-6.074z" class="T"/><path d="M98.34 987.39h647.63" fill="none" stroke="#2e3192" class="U"/><path d="M745.155 981.316v12.15l6.072-6.074z" class="T"/><g fill="#fff"><path d="M60.053 274.333H55.6v15.21c0 .702-.538 1.092-1.13 1.092-.564 0-1.156-.4-1.156-1.092v-15.21h-4.4c-.78 0-1.183-.572-1.183-1.118 0-.52.403-1.092 1.156-1.092h11.185c.753 0 1.156.572 1.156 1.092 0 .546-.403 1.118-1.156 1.118z"/><use xlink:href="#L"/><path d="M89.873 290.636H82.64c-.618 0-1.183-.546-1.183-1.092V273.24c0-.624.484-1.118 1.13-1.118h6.668c2.742 0 5.027 2.184 5.027 4.8a4.61 4.61 0 0 1-1.532 3.459 5.35 5.35 0 0 1 2.823 4.732c0 3.016-2.58 5.512-5.7 5.512zm-.618-16.303H83.77v5.252h5.485c1.72 0 2.715-1.404 2.715-2.626 0-1.43-1.2-2.626-2.715-2.626zm.618 7.462H83.77v6.63h6.103c1.828 0 3.388-1.534 3.388-3.302 0-1.82-1.56-3.328-3.388-3.328zm21.35 8.84h-11.185c-.645 0-1.183-.494-1.183-1.092V273.24c0-.624.538-1.118 1.183-1.118h11.185c.7 0 1.13.494 1.13 1.092 0 .546-.403 1.118-1.13 1.118h-10.055v5.252h7.044c.672 0 1.156.52 1.156 1.118a1.11 1.11 0 0 1-1.156 1.118h-7.044v6.604h10.055c.726 0 1.13.546 1.13 1.118 0 .598-.43 1.092-1.13 1.092zm17.127.026c-.295 0-.645-.156-.887-.468l-5.592-7.566h-3.468v6.9c0 .728-.564 1.118-1.183 1.118-.564 0-1.13-.4-1.13-1.092V273.24c0-.468.322-1.118 1.13-1.118h6.963c2.366 0 5.404 1.794 5.404 5.226 0 2.73-2.124 5.018-4.947 5.252l4.705 6.266a1 1 0 0 1 .242.676c0 .624-.618 1.118-1.237 1.118zm-4.194-16.33h-5.753v6.084h5.727c1.748 0 3.146-1.378 3.146-3.068 0-1.768-1.56-3.016-3.12-3.016zm22.544 13.912c-1.317 1.768-3.2 2.834-5.996 2.834-5.78 0-7.824-4.628-7.824-9.698 0-5.096 2.043-9.724 7.824-9.724 2.715 0 4.705 1.04 5.97 2.834a.98.98 0 0 1 .242.65c0 .624-.564 1.092-1.183 1.092-.35 0-.672-.156-.914-.468-.834-1.17-2.07-1.872-4.113-1.872-3.818 0-5.512 2.73-5.512 7.488s1.694 7.488 5.512 7.488c2.043 0 3.28-.754 4.113-1.898.242-.338.565-.494.914-.494.62 0 1.2.494 1.2 1.118 0 .208-.08.416-.242.65z"/><use xlink:href="#L" x="86.395"/><path d="M177.2 290.636h-8.173c-.645 0-1.183-.494-1.183-1.092V273.24c0-.754.618-1.118 1.13-1.118.592 0 1.183.364 1.183 1.092v15.2h7.044c.62 0 1.13.494 1.13 1.092 0 .624-.5 1.118-1.13 1.118zm11.48.442c-5.78 0-7.824-4.628-7.824-9.698 0-5.096 2.043-9.724 7.824-9.724 5.753 0 7.824 4.628 7.824 9.724 0 5.07-2.07 9.698-7.824 9.698zm0-17.187c-3.818 0-5.512 2.73-5.512 7.488s1.694 7.488 5.512 7.488c3.8 0 5.512-2.73 5.512-7.488s-1.72-7.488-5.512-7.488zm17.184 17.187c-1.962 0-4.705-.78-6.237-2.158-.296-.26-.376-.546-.376-.806 0-.598.5-1.118 1.156-1.118.403 0 .538.13 1.02.494 1.317.962 2.877 1.378 4.436 1.378 3.2 0 4.598-1.118 4.598-3.042 0-5.408-10.728-2.34-10.728-9.413 0-3.172 2.77-4.758 6.318-4.758 1.855 0 4.517.702 5.834 2.2.215.234.296.468.296.702 0 .624-.6 1.17-1.156 1.17-.403 0-.618-.182-1.075-.572-1.076-.884-2.447-1.274-3.898-1.274-2.904 0-4.006 1.118-4.006 2.522 0 4.862 10.728 1.976 10.728 9.413 0 3.874-3.36 5.252-6.9 5.252zm13.418-.442H216.2a1.08 1.08 0 0 1-1.129-1.092 1.07 1.07 0 0 1 1.129-1.118h.403v-14.093h-.403a1.08 1.08 0 0 1-1.129-1.092 1.07 1.07 0 0 1 1.129-1.118h3.092c.78 0 1.183.52 1.183 1.118 0 .546-.403 1.092-1.183 1.092h-.403v14.093h.403c.78 0 1.183.52 1.183 1.118 0 .546-.403 1.092-1.183 1.092zm10.058.442c-1.962 0-4.705-.78-6.237-2.158-.296-.26-.376-.546-.376-.806 0-.598.5-1.118 1.156-1.118.403 0 .538.13 1.02.494 1.317.962 2.877 1.378 4.436 1.378 3.2 0 4.598-1.118 4.598-3.042 0-5.408-10.728-2.34-10.728-9.413 0-3.172 2.77-4.758 6.318-4.758 1.855 0 4.517.702 5.834 2.2.215.234.296.468.296.702 0 .624-.6 1.17-1.156 1.17-.403 0-.618-.182-1.075-.572-1.076-.884-2.447-1.274-3.898-1.274-2.904 0-4.006 1.118-4.006 2.522 0 4.862 10.727 1.976 10.727 9.413 0 3.874-3.36 5.252-6.9 5.252zm-165.506 343.7c-.564 0-1.13-.4-1.13-1.118V621.7l-5.214 9.4c-.35.65-.86.702-1.075.702-.135 0-.7-.052-1.076-.702l-5.2-9.36v11.908c0 .728-.564 1.118-1.183 1.118-.564 0-1.13-.4-1.13-1.118v-16.25c0-.858.618-1.17 1.237-1.17.403 0 .726.182.968.65l6.372 11.466 6.4-11.466c.27-.52.6-.65 1.048-.65.6 0 1.156.364 1.156 1.17v16.25c0 .728-.565 1.118-1.183 1.118zm17.908-.027H70.568c-.645 0-1.183-.494-1.183-1.092v-16.303c0-.624.538-1.118 1.183-1.118h11.185c.7 0 1.13.494 1.13 1.092 0 .546-.403 1.118-1.13 1.118H71.697v5.252h7.044c.672 0 1.156.52 1.156 1.118a1.11 1.11 0 0 1-1.156 1.118h-7.044v6.604h10.055c.726 0 1.13.546 1.13 1.118 0 .598-.43 1.092-1.13 1.092zm17.648 0a1.1 1.1 0 0 1-1.021-.676l-1.425-3.38H88l-1.452 3.38c-.215.468-.618.676-.995.676-.6 0-1.2-.442-1.2-1.092 0-.156.027-.312.107-.442l6.9-16.25c.323-.676.753-.806 1.103-.806a1.22 1.22 0 0 1 1.103.806l6.937 16.25a1.18 1.18 0 0 1 .081.442c0 .65-.564 1.092-1.183 1.092zm-6.937-14.56l-3.522 8.27h7.044l-3.522-8.27z"/><use xlink:href="#M"/><path d="M128.296 634.75h-8.173c-.645 0-1.183-.494-1.183-1.092v-16.303c0-.754.618-1.118 1.13-1.118.592 0 1.183.364 1.183 1.092v15.2h7.044c.62 0 1.13.494 1.13 1.092 0 .624-.5 1.118-1.13 1.118zm16.484 0h-11.185c-.645 0-1.183-.494-1.183-1.092v-16.303c0-.624.538-1.118 1.183-1.118h11.185c.7 0 1.13.494 1.13 1.092 0 .546-.403 1.118-1.13 1.118h-10.055v5.252h7.044c.672 0 1.156.52 1.156 1.118a1.11 1.11 0 0 1-1.156 1.118h-7.044v6.604h10.055c.726 0 1.13.546 1.13 1.118 0 .598-.43 1.092-1.13 1.092zm10.325.443c-1.962 0-4.705-.78-6.237-2.158-.296-.26-.376-.546-.376-.807 0-.598.5-1.118 1.156-1.118.403 0 .538.13 1.02.494 1.317.963 2.877 1.38 4.436 1.38 3.2 0 4.598-1.118 4.598-3.043 0-5.408-10.728-2.34-10.728-9.412 0-3.172 2.77-4.758 6.318-4.758 1.855 0 4.517.702 5.834 2.2.215.233.296.468.296.702 0 .624-.6 1.17-1.156 1.17-.403 0-.618-.182-1.075-.572-1.076-.884-2.447-1.273-3.898-1.273-2.904 0-4.006 1.117-4.006 2.52 0 4.862 10.727 1.977 10.727 9.412 0 3.875-3.36 5.253-6.9 5.253zM63.844 808.15c-.564 0-1.13-.4-1.13-1.118v-11.96l-5.216 9.412c-.35.65-.86.702-1.075.702-.135 0-.7-.052-1.076-.702l-5.2-9.36v11.908c0 .728-.564 1.118-1.183 1.118-.564 0-1.13-.4-1.13-1.118v-16.25c0-.858.618-1.17 1.237-1.17.403 0 .726.182.968.65l6.372 11.466 6.4-11.466c.27-.52.6-.65 1.048-.65.6 0 1.156.364 1.156 1.17v16.25c0 .728-.565 1.118-1.183 1.118zm17.908-.026H70.568c-.645 0-1.183-.494-1.183-1.092V790.73c0-.624.538-1.118 1.183-1.118h11.185c.7 0 1.13.494 1.13 1.092 0 .546-.403 1.118-1.13 1.118H71.697v5.252h7.044c.672 0 1.156.52 1.156 1.118a1.11 1.11 0 0 1-1.156 1.118h-7.044v6.604h10.055c.726 0 1.13.546 1.13 1.118 0 .598-.43 1.092-1.13 1.092z"/><use xlink:href="#N"/><path d="M107.782 808.124H104.7a1.08 1.08 0 0 1-1.129-1.092 1.07 1.07 0 0 1 1.129-1.118h.403V791.82h-.403a1.08 1.08 0 0 1-1.129-1.092 1.07 1.07 0 0 1 1.129-1.118h3.092c.78 0 1.183.52 1.183 1.118 0 .546-.403 1.092-1.183 1.092h-.403v14.093h.403c.78 0 1.183.52 1.183 1.118 0 .546-.403 1.092-1.183 1.092z"/><use xlink:href="#N" x="25.759"/><path d="M137.602 808.566c-5.915 0-7.824-4.81-7.824-9.698 0-5.02 2.043-9.725 7.824-9.725 2.447 0 4.5.832 5.97 2.834.16.208.242.44.242.65 0 .623-.672 1.117-1.29 1.117-.484 0-.538-.208-.968-.676-.86-1.014-2.017-1.69-3.952-1.69-4.14 0-5.512 3.405-5.512 7.488 0 3.562.995 7.488 5.512 7.488 3.28 0 5.243-2.263 5.43-6.007h-2.42c-.78 0-1.183-.546-1.183-1.118s.403-1.118 1.13-1.118h3.683c.7 0 1.183.47 1.183 1.145-.107 4.862-2.124 9.31-7.824 9.31z"/><use xlink:href="#O"/><path d="M167.556 791.82h-4.463v15.21c0 .702-.538 1.092-1.13 1.092-.564 0-1.156-.4-1.156-1.092v-15.21h-4.41c-.78 0-1.183-.572-1.183-1.118 0-.52.403-1.092 1.156-1.092h11.185c.753 0 1.156.572 1.156 1.092 0 .546-.403 1.118-1.156 1.118z"/><use xlink:href="#O" x="22.4"/><use xlink:href="#M" x="75.935" y="173.373"/><path d="M203.722 797.88c-.188 0-.403-.078-.6-.156l-2.58-1.456v2.886c0 .73-.538 1.118-1.156 1.118-.6 0-1.13-.4-1.13-1.092v-2.912l-2.608 1.456a1.36 1.36 0 0 1-.618.156c-.645 0-1.156-.572-1.156-1.17 0-.364.162-.677.592-.9l2.608-1.456-2.554-1.456c-.43-.234-.62-.572-.62-.9 0-.598.5-1.17 1.156-1.17.188 0 .403.025.6.156l2.554 1.455v-2.886c0-.728.565-1.118 1.156-1.118s1.156.4 1.156 1.092v2.912l2.608-1.455c.215-.13.43-.156.618-.156.646 0 1.13.572 1.13 1.17 0 .338-.16.676-.6.9l-2.608 1.456 2.58 1.456c.43.233.62.546.62.9 0 .57-.538 1.17-1.156 1.17zm-143.15 32.254H56.1v15.2c0 .702-.538 1.092-1.13 1.092-.564 0-1.156-.4-1.156-1.092v-15.2h-4.4c-.78 0-1.183-.572-1.183-1.118 0-.52.403-1.092 1.156-1.092h11.185c.753 0 1.156.572 1.156 1.092 0 .546-.403 1.118-1.156 1.118zm16.214 16.303H65.603c-.645 0-1.183-.494-1.183-1.092v-16.303c0-.624.538-1.118 1.183-1.118h11.185c.7 0 1.13.494 1.13 1.092 0 .546-.403 1.118-1.13 1.118H66.732v5.252h7.044c.672 0 1.156.52 1.156 1.118a1.11 1.11 0 0 1-1.156 1.118h-7.044v6.604h10.055c.726 0 1.13.546 1.13 1.118 0 .598-.43 1.092-1.13 1.092zm15.515-16.303H87.84v15.2c0 .702-.538 1.092-1.13 1.092-.564 0-1.156-.4-1.156-1.092v-15.2h-4.4c-.78 0-1.183-.572-1.183-1.118 0-.52.403-1.092 1.156-1.092h11.185c.753 0 1.156.572 1.156 1.092 0 .546-.403 1.118-1.156 1.118zm14.922 16.303a1.1 1.1 0 0 1-1.021-.676l-1.425-3.38h-8.953l-1.452 3.38c-.215.468-.618.676-.995.676-.6 0-1.2-.442-1.2-1.092 0-.156.027-.312.107-.442l6.9-16.25c.323-.677.753-.807 1.103-.807a1.22 1.22 0 0 1 1.103.807l6.937 16.25a1.18 1.18 0 0 1 .081.442c0 .65-.564 1.092-1.183 1.092zm-6.937-14.56l-3.522 8.27h7.044l-3.522-8.27z"/><use xlink:href="#P"/><use xlink:href="#Q"/><path d="M152.075 846.88c-1.962 0-4.705-.78-6.237-2.158-.296-.26-.376-.546-.376-.807 0-.598.5-1.117 1.156-1.117.403 0 .538.13 1.02.493 1.317.962 2.877 1.378 4.436 1.378 3.2 0 4.598-1.117 4.598-3.042 0-5.408-10.728-2.34-10.728-9.412 0-3.172 2.77-4.758 6.318-4.758 1.855 0 4.517.702 5.834 2.2.215.234.296.468.296.702 0 .624-.6 1.17-1.156 1.17-.403 0-.618-.183-1.075-.572-1.076-.884-2.447-1.274-3.898-1.274-2.904 0-4.006 1.118-4.006 2.522 0 4.862 10.727 1.977 10.727 9.412 0 3.874-3.36 5.253-6.9 5.253zm-83.83 40.082l-4.437 16.225c-.134.624-.484.9-1.102.9-.564 0-.968-.286-1.156-.9l-3.63-12.454-3.603 12.454c-.188.624-.564.9-1.13.9-.592 0-.968-.286-1.13-.9l-4.436-16.225a1.48 1.48 0 0 1-.054-.364c0-.65.618-1.014 1.2-1.014a1.09 1.09 0 0 1 1.076.806l3.388 12.403 3.55-12.3c.188-.624.564-.9 1.13-.9.6 0 .968.286 1.156.9l3.55 12.3 3.387-12.403a1.19 1.19 0 0 1 1.103-.857c.6 0 1.183.416 1.183 1.065a1.48 1.48 0 0 1-.054.364zm15.462 17.135c-.6 0-1.183-.4-1.183-1.092v-7.723H73.65v7.723c0 .702-.618 1.092-1.13 1.092-.6 0-1.183-.4-1.183-1.092v-16.33c0-.728.6-1.092 1.183-1.092.5 0 1.13.364 1.13 1.092v6.396h8.873v-6.37c0-.754.618-1.118 1.13-1.118.592 0 1.183.364 1.183 1.118v16.276c0 .73-.618 1.118-1.13 1.118z"/><use xlink:href="#R"/><use xlink:href="#R" x="19.092"/><path d="M135.442 896.088h-5.753v6.9c0 .676-.538 1.118-1.13 1.118-.645 0-1.183-.416-1.183-1.092V886.7c0-.468.322-1.118 1.13-1.118h6.963c2.366 0 5.404 1.794 5.404 5.227 0 2.938-2.42 5.277-5.43 5.277zm0-8.294h-5.753v6.084h5.727c1.748 0 3.146-1.352 3.146-3.042s-1.398-3.042-3.12-3.042zm12.182 16.303h-3.092a1.08 1.08 0 0 1-1.129-1.092 1.07 1.07 0 0 1 1.129-1.118h.403v-14.093h-.403a1.08 1.08 0 0 1-1.129-1.092 1.07 1.07 0 0 1 1.129-1.118h3.092c.78 0 1.183.52 1.183 1.118 0 .546-.403 1.092-1.183 1.092h-.403v14.093h.403c.78 0 1.183.52 1.183 1.118 0 .546-.403 1.092-1.183 1.092z"/><use xlink:href="#P" x="41.018" y="57.66"/><use xlink:href="#S"/><path d="M209.333 901.705c-1.317 1.768-3.2 2.834-5.996 2.834-5.78 0-7.824-4.63-7.824-9.7 0-5.096 2.043-9.724 7.824-9.724 2.715 0 4.705 1.04 5.97 2.834a.98.98 0 0 1 .242.649c0 .625-.564 1.093-1.183 1.093-.35 0-.672-.156-.914-.468-.833-1.17-2.07-1.873-4.113-1.873-3.818 0-5.512 2.73-5.512 7.488s1.694 7.488 5.512 7.488c2.043 0 3.28-.754 4.113-1.897.242-.338.565-.494.914-.494.62 0 1.2.494 1.2 1.118 0 .208-.08.416-.242.65z"/><use xlink:href="#R" x="123.744"/><use xlink:href="#Q" x="102.97" y="57.66"/><use xlink:href="#S" x="79.511"/><path d="M280.723 904.097c-.6 0-1.183-.4-1.183-1.092v-7.723h-8.873v7.723c0 .702-.618 1.092-1.13 1.092-.6 0-1.183-.4-1.183-1.092v-16.33c0-.728.6-1.092 1.183-1.092.5 0 1.13.364 1.13 1.092v6.396h8.873v-6.37c0-.754.618-1.118 1.13-1.118.592 0 1.183.364 1.183 1.118v16.276c0 .73-.618 1.118-1.13 1.118zm-220.51 26.268c-.6 0-1.183-.4-1.183-1.092v-7.723h-8.87v7.723c0 .702-.618 1.092-1.13 1.092-.6 0-1.183-.4-1.183-1.092v-16.33c0-.728.592-1.092 1.183-1.092.512 0 1.13.364 1.13 1.092v6.396h8.872v-6.37c0-.754.618-1.118 1.13-1.118.592 0 1.184.364 1.184 1.118v16.276c0 .73-.618 1.118-1.13 1.118zm17.854 0H66.884c-.645 0-1.183-.494-1.183-1.092V912.97c0-.624.538-1.118 1.183-1.118H78.07c.7 0 1.13.494 1.13 1.092 0 .546-.403 1.118-1.13 1.118H68.014v5.252h7.044c.672 0 1.156.52 1.156 1.118a1.11 1.11 0 0 1-1.156 1.118h-7.044v6.604H78.07c.727 0 1.13.546 1.13 1.118 0 .598-.43 1.092-1.13 1.092zm12.935-8.008H85.25v6.9c0 .676-.537 1.118-1.13 1.118-.646 0-1.183-.416-1.183-1.092V912.97c0-.468.322-1.118 1.13-1.118h6.964c2.365 0 5.403 1.794 5.403 5.227 0 2.938-2.42 5.278-5.43 5.278zm0-8.295H85.25v6.084h5.727c1.748 0 3.146-1.352 3.146-3.042s-1.398-3.042-3.12-3.042zm19.95 16.303a1.1 1.1 0 0 1-1.021-.676l-1.425-3.38h-8.953l-1.452 3.38c-.215.468-.618.676-.994.676-.592 0-1.2-.442-1.2-1.092 0-.156.026-.312.107-.442l6.9-16.25c.323-.676.753-.806 1.103-.806a1.22 1.22 0 0 1 1.103.806l6.937 16.25a1.18 1.18 0 0 1 .081.442c0 .65-.564 1.092-1.184 1.092zm-6.937-14.56l-3.52 8.27h7.044l-3.522-8.27z"/><use xlink:href="#T"/><use xlink:href="#U"/><path d="M145.53 914.063h-4.463v15.21c0 .702-.538 1.092-1.13 1.092-.564 0-1.155-.4-1.155-1.092v-15.21h-4.41c-.78 0-1.184-.572-1.184-1.118 0-.52.403-1.092 1.156-1.092h11.185c.753 0 1.156.572 1.156 1.092 0 .546-.403 1.118-1.156 1.118z"/><use xlink:href="#U" x="22.399"/><path d="M162.74 930.808c-1.962 0-4.705-.78-6.237-2.158-.296-.26-.376-.546-.376-.807 0-.598.5-1.118 1.156-1.118.403 0 .537.13 1.02.494 1.317.963 2.877 1.38 4.436 1.38 3.2 0 4.598-1.118 4.598-3.043 0-5.408-10.728-2.34-10.728-9.412 0-3.172 2.77-4.758 6.318-4.758 1.855 0 4.517.702 5.834 2.2.216.233.296.468.296.702 0 .624-.6 1.17-1.156 1.17-.403 0-.618-.182-1.075-.572-1.075-.884-2.446-1.273-3.898-1.273-2.903 0-4.006 1.117-4.006 2.52 0 4.862 10.728 1.977 10.728 9.412 0 3.875-3.36 5.253-6.9 5.253zm25.652-.443h-7.232c-.618 0-1.183-.546-1.183-1.092V912.97c0-.624.483-1.118 1.13-1.118h6.668c2.742 0 5.027 2.185 5.027 4.8 0 1.403-.592 2.6-1.532 3.458a5.35 5.35 0 0 1 2.823 4.732c0 3.016-2.58 5.512-5.7 5.512zm-.618-16.303h-5.485v5.252h5.485a2.67 2.67 0 0 0 2.715-2.626c0-1.43-1.2-2.626-2.715-2.626zm.618 7.463h-6.104v6.63h6.104c1.828 0 3.388-1.534 3.388-3.302 0-1.82-1.56-3.328-3.388-3.328zM54.595 953.483H49.03c-.618 0-1.183-.546-1.183-1.092v-16.3c0-.6.564-1.118 1.183-1.118h5.565c5.54 0 7.367 4.42 7.367 9.23 0 4.836-1.828 9.282-7.367 9.282zm0-16.303H50.16v14.093h4.436c3.47 0 5.055-2.47 5.055-7.072 0-4.524-1.586-7.02-5.055-7.02z"/><use xlink:href="#V"/><path d="M81.833 945.475H76.08v6.89c0 .676-.538 1.118-1.13 1.118-.645 0-1.183-.416-1.183-1.092V936.09c0-.468.322-1.118 1.13-1.118h6.964c2.366 0 5.404 1.794 5.404 5.227 0 2.938-2.42 5.277-5.432 5.277zm0-8.294H76.08v6.084h5.727c1.747 0 3.146-1.352 3.146-3.042s-1.398-3.042-3.12-3.042z"/><use xlink:href="#T" x="-21.776" y="23.117"/><path d="M117.568 953.483c-.592 0-1.183-.4-1.183-1.092v-7.723h-8.873v7.723c0 .702-.618 1.092-1.13 1.092-.592 0-1.183-.4-1.183-1.092v-16.33c0-.728.59-1.092 1.183-1.092.51 0 1.13.364 1.13 1.092v6.396h8.873v-6.37c0-.754.618-1.118 1.13-1.118.592 0 1.183.364 1.183 1.118v16.276c0 .73-.618 1.118-1.13 1.118z"/><use xlink:href="#W"/><path d="M152.552 953.5c-.296 0-.646-.156-.888-.47l-5.592-7.566h-3.47v6.89c0 .73-.564 1.118-1.183 1.118-.564 0-1.13-.4-1.13-1.092V936.09c0-.468.322-1.118 1.13-1.118h6.963c2.366 0 5.404 1.794 5.404 5.227 0 2.73-2.124 5.018-4.946 5.252l4.704 6.266a1 1 0 0 1 .242.677c0 .624-.618 1.118-1.236 1.118zm-4.194-16.33h-5.754v6.084h5.727c1.748 0 3.146-1.378 3.146-3.067 0-1.77-1.56-3.017-3.12-3.017z"/><use xlink:href="#V" x="91.664"/><use xlink:href="#X"/><use xlink:href="#Y"/><path d="M209.798 953.483c-.59 0-1.183-.4-1.183-1.092v-7.723h-8.872v7.723c0 .702-.618 1.092-1.13 1.092-.59 0-1.183-.4-1.183-1.092v-16.33c0-.728.592-1.092 1.183-1.092.512 0 1.13.364 1.13 1.092v6.396h8.872v-6.37c0-.754.618-1.118 1.13-1.118.592 0 1.184.364 1.184 1.118v16.276c0 .73-.618 1.118-1.13 1.118z"/><use xlink:href="#V" x="156.547"/><path d="M242.63 953.483c-.35 0-.726-.182-.968-.572l-9.033-13.13v12.584c0 .73-.564 1.118-1.184 1.118-.564 0-1.13-.4-1.13-1.092V936.09c0-.73.592-1.118 1.183-1.118.377 0 .7.156.97.546l9.033 13.13v-12.56c0-.754.564-1.118 1.13-1.118.62 0 1.184.364 1.184 1.092v16.303c0 .702-.592 1.118-1.184 1.118z"/><use xlink:href="#Z"/><use xlink:href="#a"/><path d="M285.33 953.95c-3.684 0-6.75-2.86-6.75-6.526v-11.362c0-.728.565-1.092 1.156-1.092s1.156.364 1.156 1.092v11.362c0 2.393 1.99 4.316 4.437 4.316s4.463-1.924 4.463-4.316V936.09c0-.754.538-1.118 1.13-1.118.618 0 1.156.364 1.156 1.092v11.362c0 3.563-2.957 6.526-6.748 6.526z"/><use xlink:href="#W" x="173.247"/><path d="M325.852 953.483c-.35 0-.726-.182-.968-.572l-9.034-13.13v12.584c0 .73-.564 1.118-1.183 1.118-.564 0-1.13-.4-1.13-1.092v-16.3c0-.73.6-1.118 1.183-1.118.376 0 .7.156.968.546l9.034 13.13v-12.56c0-.754.564-1.118 1.13-1.118.618 0 1.183.364 1.183 1.092v16.303c0 .702-.6 1.118-1.183 1.118zm16.724 0h-11.13c-.726 0-1.156-.572-1.156-1.118a.94.94 0 0 1 .188-.598l9.356-14.587h-7.85c-.78 0-1.13-.546-1.13-1.092 0-.6.35-1.118 1.13-1.118h9.894c.673 0 1.156.52 1.156 1.118a1 1 0 0 1-.161.546l-9.383 14.64h9.06c.78 0 1.155.52 1.155 1.118 0 .546-.376 1.092-1.13 1.092z"/><use xlink:href="#X" x="181.42"/><path d="M376.725 953.483H365.54c-.645 0-1.183-.494-1.183-1.092V936.09c0-.624.538-1.118 1.183-1.118h11.185c.7 0 1.13.494 1.13 1.092 0 .546-.403 1.118-1.13 1.118H366.67v5.252h7.044c.672 0 1.156.52 1.156 1.118a1.11 1.11 0 0 1-1.156 1.118h-7.044v6.604h10.055c.727 0 1.13.546 1.13 1.118 0 .598-.43 1.092-1.13 1.092z"/><use xlink:href="#Y" x="198.656"/><path d="M408.104 936.608l-5.323 9.595v6.162c0 .73-.564 1.118-1.184 1.118-.564 0-1.13-.364-1.13-1.092v-6.188l-5.323-9.62c-.135-.208-.16-.39-.16-.546 0-.624.618-1.118 1.2-1.118.35 0 .726.182.968.624l4.436 8.008 4.5-8.008c.242-.416.618-.572.968-.572.62 0 1.2.468 1.2 1.092a.9.9 0 0 1-.161.546z"/><use xlink:href="#W" x="288.467"/><use xlink:href="#a" x="163.485"/><use xlink:href="#a" x="176.957"/><path d="M463.067 953.926c-5.78 0-7.824-4.63-7.824-9.7 0-5.096 2.043-9.724 7.824-9.724 5.753 0 7.823 4.628 7.823 9.724 0 5.07-2.07 9.7-7.823 9.7zm0-17.187c-3.818 0-5.512 2.73-5.512 7.488s1.693 7.488 5.512 7.488c3.8 0 5.512-2.73 5.512-7.488s-1.72-7.488-5.512-7.488zm31.083-.39l-4.437 16.225c-.134.624-.483.9-1.102.9-.565 0-.968-.286-1.156-.9l-3.63-12.454-3.603 12.454c-.188.624-.564.9-1.13.9-.592 0-.97-.286-1.13-.9l-4.436-16.225a1.46 1.46 0 0 1-.054-.364c0-.65.618-1.014 1.2-1.014.457 0 .915.26 1.076.806l3.388 12.403 3.55-12.3c.188-.624.564-.9 1.13-.9.592 0 .968.286 1.156.9l3.55 12.3 3.388-12.403a1.19 1.19 0 0 1 1.103-.857c.6 0 1.183.416 1.183 1.065a1.46 1.46 0 0 1-.054.364z"/><use xlink:href="#Z" x="256.199"/><use xlink:href="#b"/><path d="M551.02 936.427l-5.646 16.173c-.188.546-.618.884-1.156.884-.484 0-.914-.338-1.13-.884l-5.673-16.173c-.054-.13-.054-.286-.054-.4 0-.677.59-1.066 1.155-1.066.43 0 .888.234 1.076.754l4.624 13.183 4.65-13.183c.16-.52.618-.754 1.05-.754.59 0 1.2.4 1.2 1.066 0 .104-.027.26-.108.4z"/><use xlink:href="#b" x="32.642"/><path d="M583.6 953.5c-.296 0-.645-.156-.887-.47l-5.593-7.566h-3.468v6.89c0 .73-.564 1.118-1.184 1.118-.564 0-1.13-.4-1.13-1.092V936.09c0-.468.322-1.118 1.13-1.118h6.964c2.366 0 5.404 1.794 5.404 5.227 0 2.73-2.124 5.018-4.947 5.252l4.705 6.266a1 1 0 0 1 .242.677c0 .624-.618 1.118-1.237 1.118zm-4.194-16.33h-5.753v6.084h5.727c1.747 0 3.146-1.378 3.146-3.067 0-1.77-1.56-3.017-3.12-3.017z"/></g><g opacity=".5" class="T"><path d="M919.923 584.877H907.4c-1.187 0-1.884-.673-1.884-1.505 0-.356.122-.713.368-1.07l11.18-16.432c.5-.753.778-1.663.778-2.376 0-2.337-1.802-4.118-4.22-4.118-2.17 0-4.014 1.78-4.7 3.05-.327.594-.86.83-1.392.83-.942 0-1.803-.712-1.803-1.623 0-1.228 2.908-5.662 7.904-5.662 4.26 0 7.7 3.365 7.7 7.444 0 1.583-.574 3.128-1.393 4.276l-9.38 13.82h9.38c1.188 0 1.802.8 1.802 1.702 0 .832-.614 1.663-1.802 1.663zm40.747 0c-.86 0-1.72-.594-1.72-1.663V570.74c0-2.297-1.966-4.197-4.3-4.197-2.416 0-4.34 1.9-4.34 4.157v12.473c0 1.1-.82 1.703-1.76 1.703-.9 0-1.72-.594-1.72-1.663V570.74c0-2.297-1.966-4.197-4.34-4.197s-4.34 1.9-4.34 4.157v12.473c0 1.1-.86 1.703-1.803 1.703-.86 0-1.72-.594-1.72-1.663v-17.7c0-1.148.9-1.703 1.802-1.703.573 0 1.147.237 1.475.752 1.27-.87 2.867-1.386 4.546-1.386 2.457 0 4.67 1.07 6.103 2.812 1.434-1.742 3.604-2.812 6.062-2.812 4.34 0 7.863 3.366 7.863 7.523v12.473c0 1.1-.86 1.703-1.803 1.703z"/><use xlink:href="#c"/><use xlink:href="#d"/><path d="M988.227 584.956c-2.212 0-4.096-1.82-4.096-4.04v-22.53c0-1.148.86-1.702 1.76-1.702s1.762.554 1.762 1.663v22.57c0 .476.368.674.573.674 1.146 0 1.76.792 1.76 1.702 0 .87-.614 1.663-1.76 1.663z"/><use xlink:href="#c" x="25.798"/><path d="M1010.995 585.55c-6.594 0-10.28-5.227-10.28-11.205 0-5.94 3.687-11.167 10.28-11.167s10.28 5.227 10.28 11.167c0 5.98-3.686 11.205-10.28 11.205zm0-19.006c-4.096 0-6.758 3.088-6.758 7.8 0 4.75 2.662 7.84 6.758 7.84 4.136 0 6.757-3.1 6.757-7.84 0-4.713-2.62-7.8-6.757-7.8zm31.245 18.333c-.9 0-1.72-.594-1.72-1.663v-11.008c0-3.1-2.662-5.662-5.856-5.662-3.153 0-5.815 2.573-5.815 5.662v10.968c0 1.1-.86 1.743-1.802 1.743-.86 0-1.72-.595-1.72-1.703v-17.7c0-1.148.86-1.663 1.72-1.663.82 0 1.557.436 1.76 1.307a9.53 9.53 0 0 1 5.856-1.98c5.08 0 9.338 4.08 9.338 9.028v10.968c0 1.1-.82 1.703-1.76 1.703z"/><use xlink:href="#d" x="-68.634" y="38"/><path d="M917.628 598.644c-1.638 0-2.948-1.267-2.948-2.85s1.31-2.85 2.948-2.85 2.95 1.267 2.95 2.85-1.31 2.85-2.95 2.85zm0 24.233c-.9 0-1.802-.594-1.802-1.663v-17.66c0-1.108.9-1.702 1.802-1.702.86 0 1.72.594 1.72 1.702v17.66c0 1.108-.86 1.663-1.72 1.663z"/><use xlink:href="#e"/><use xlink:href="#f"/><path d="M974.5 623.55c-2.252 0-6.02-.673-7.945-2.97-.245-.356-.368-.713-.368-1.03 0-1 .982-1.782 1.843-1.782.5 0 .86.238 1.27.674 1.27 1.346 3.358 1.742 5.2 1.742 3.686 0 4.874-1.228 4.874-3 0-5.068-12.5-1.94-12.5-10.097 0-4.316 4.177-5.9 8.067-5.9 2.212 0 7.413 1.07 7.413 3.287 0 .87-.737 1.78-1.72 1.78-.37 0-.942-.197-1.352-.515-1.106-.9-2.703-1.187-4.342-1.187-3.398 0-4.587 1.228-4.587 2.534 0 4.712 12.532 1.663 12.532 10.097 0 4.673-4.055 6.375-8.396 6.375zm-60.444 32c-2.253 0-6.02-.673-7.945-2.97-.246-.356-.37-.713-.37-1.03 0-1 .983-1.782 1.843-1.782.492 0 .86.238 1.27.674 1.27 1.346 3.357 1.742 5.2 1.742 3.686 0 4.873-1.228 4.873-3 0-5.068-12.5-1.94-12.5-10.097 0-4.316 4.178-5.9 8.068-5.9 2.212 0 7.413 1.07 7.413 3.287 0 .87-.737 1.78-1.72 1.78-.368 0-.94-.197-1.352-.515-1.105-.9-2.703-1.187-4.34-1.187-3.4 0-4.587 1.228-4.587 2.534 0 4.712 12.532 1.663 12.532 10.097 0 4.673-4.055 6.375-8.396 6.375zm31.984-.673c-2.252 0-3.276-1.544-3.645-2.257-1.64 1.742-4.014 2.93-7.208 2.93-6.676 0-10.28-5.306-10.28-11.205s3.687-11.167 10.28-11.167c2.866 0 5.16 1 6.757 2.613v-.158c0-.436.164-1.78 1.72-1.78.86 0 1.802.436 1.802 1.663V650.8c0 .515.37.713.573.713 1.146 0 1.762.8 1.762 1.702 0 .832-.615 1.663-1.762 1.663zm-10.853-18.333c-4.096 0-6.758 3.088-6.758 7.8 0 4.75 2.662 7.84 6.758 7.84 4.136 0 6.757-3.1 6.757-7.84 0-4.713-2.62-7.8-6.757-7.8z"/><use xlink:href="#e" x="26.291" y="32"/><use xlink:href="#f" x="26.292" y="32"/><path d="M1011.816 654.837c-.9 0-1.76-.554-1.76-1.663 0 0-2.416 2.376-6.758 2.376-6.594 0-10.28-5.227-10.28-11.205 0-5.94 3.686-11.167 10.28-11.167 2.867 0 5.16.95 6.758 2.574v-7.365c0-1.148.86-1.702 1.76-1.702s1.762.554 1.762 1.663v24.826c0 1.11-.86 1.663-1.762 1.663zm-8.52-18.293c-4.095 0-6.757 3.088-6.757 7.8 0 4.75 2.662 7.84 6.757 7.84 4.137 0 6.758-3.09 6.758-7.84 0-4.713-2.62-7.8-6.758-7.8z"/></g><path d="M875.937 607.9h18.223" fill="none" stroke="#000" stroke-width="2" class="U V"/><g opacity=".45" class="T"><path d="M42.328 1046.045c-3.568 0-5.47-1.97-5.503-2.002 0 .935-.7 1.4-1.468 1.4-.7 0-1.4-.467-1.4-1.4v-20.88a1.35 1.35 0 0 1 1.401-1.434c.767 0 1.468.467 1.468 1.4v6.238c1.334-1.368 3.168-2.17 5.503-2.17 5.37 0 8.373 4.403 8.373 9.406 0 5.037-3.002 9.44-8.373 9.44zm0-16c-3.335 0-5.503 2.602-5.503 6.57 0 4.003 2.168 6.604 5.503 6.604s5.504-2.602 5.504-6.604c0-3.97-2.168-6.57-5.504-6.57zm25.555 8.037h-12.34c.467 3.136 2.468 5.137 5.403 5.137 1.5 0 3.002-.533 3.97-1.734.3-.333.634-.533 1.034-.533.734 0 1.5.667 1.5 1.468 0 .4-.1.7-.8 1.4-1.5 1.468-3.57 2.235-5.704 2.235-5.37 0-8.372-4.437-8.372-9.44 0-4.97 3.002-9.406 8.372-9.406 5.437 0 8.34 4.437 8.34 9.406 0 .734-.534 1.468-1.4 1.468zm-6.937-8.038c-3.136 0-4.97 2.3-5.403 5.17H66.35c-.467-3.202-2.468-5.17-5.403-5.17zM88 1045.478c-1.834 0-2.668-1.3-2.97-1.9-1.334 1.468-3.27 2.47-5.87 2.47-5.437 0-8.372-4.47-8.372-9.44s3.002-9.406 8.372-9.406c2.335 0 4.203.834 5.504 2.202v-.134c0-.367.133-1.5 1.4-1.5.7 0 1.468.367 1.468 1.4v12.875c0 .434.3.6.467.6.935 0 1.435.667 1.435 1.434a1.37 1.37 0 0 1-1.435 1.401zm-8.84-15.443c-3.336 0-5.504 2.602-5.504 6.57 0 4.003 2.168 6.604 5.504 6.604 3.37 0 5.504-2.602 5.504-6.604 0-3.97-2.135-6.57-5.504-6.57z"/><use xlink:href="#g"/><path d="M115.158 1045.478h-.567c-3.17 0-4.37-1.668-4.37-4.403V1030.6h-1c-.8 0-1.435-.634-1.435-1.4 0-.8.634-1.435 1.4-1.435h1v-4.637c0-.934.7-1.4 1.435-1.4s1.4.467 1.4 1.4v4.637h2.135c.934 0 1.4.768 1.4 1.4 0 .8-.533 1.434-1.4 1.434h-2.135v10.774c0 .934.333 1.268 1.268 1.268h.833c.868 0 1.435.634 1.435 1.4 0 .8-.533 1.435-1.4 1.435zm4.604-20.415a2.402 2.402 0 1 1 0-4.803 2.402 2.402 0 1 1 0 4.803zm0 20.414c-.733 0-1.467-.5-1.467-1.4V1029.2c0-.935.733-1.435 1.467-1.435a1.37 1.37 0 0 1 1.401 1.435v14.876c0 .935-.7 1.4-1.4 1.4zm10.376-14.877h-1.5v13.442c0 .935-.7 1.4-1.468 1.4-.7 0-1.4-.467-1.4-1.4V1030.6h-1.37c-.9 0-1.4-.667-1.4-1.4 0-.768.5-1.435 1.4-1.435h1.367v-2.27c0-2.135 1.77-3.77 3.836-3.77.968 0 1.468.667 1.468 1.434 0 .7-.5 1.4-1.468 1.4-.566 0-.967.434-.967.9v2.302h1.5c.967 0 1.468.667 1.468 1.435 0 .733-.5 1.4-1.468 1.4z"/><use xlink:href="#g" x="42.068"/><path d="M154.725 1045.544c-1.802 0-3.336-1.534-3.336-3.402v-18.98c0-.967.7-1.434 1.435-1.434s1.435.467 1.435 1.4v19.013c0 .4.3.567.467.567.934 0 1.435.667 1.435 1.435 0 .733-.5 1.4-1.435 1.4zm15.37-.066v-1.264c1.886-.237 2.046-.437 2.046-3.157v-6.7c0-2.8-1.248-4.017-3.064-4.017-1.237 0-2.345.6-3.47 1.493v9.476c0 2.527.187 2.658 2.06 2.896v1.264h-8.968v-1.264c2.254-.33 2.5-.4 2.5-3v-8.2c0-2.446-.303-2.565-2.185-2.922v-1.184c2.173-.292 4.63-.807 6.653-1.533l-.052 2.95 2.6-1.745c1.16-.713 2-1.086 3.16-1.086 3.194 0 5.2 2.338 5.2 6.3v7.5c0 2.54.237 2.657 2.277 2.92v1.264h-8.74zm23.9-3.703c-2.458 3.427-5.488 4.178-7.014 4.178-5.142 0-8.124-3.936-8.124-8.594 0-2.745 1.183-5.396 2.832-7.062 1.74-1.8 3.945-2.814 6.082-2.814 3.73 0 6.396 3.126 6.37 6.347-.014.715-.08 1.277-.612 1.4-.767.184-6.17.5-10.318.647.062 4.587 2.717 6.74 5.556 6.74 1.572 0 3.104-.597 4.543-1.866l.686 1.014zm-7.07-12.7c-1.667 0-3.167 1.807-3.516 4.963l5.486-.118c.6-.026.848-.146.848-.792.04-2.022-1.037-4.053-2.818-4.053zm34.284.145c-1.943.343-2.248.624-3.105 2.765-1.33 3.462-3.102 8.53-4.934 13.94h-1.512l-4.65-11.46-4.55 11.46h-1.472l-4.685-14.192c-.687-1.985-.94-2.274-2.855-2.512v-1.25h9.397v1.25c-2.325.345-2.535.672-2.058 2.133l2.52 8.214c1.507-3.68 2.988-7.62 4.327-11.424h1.456c1.4 3.76 2.986 7.702 4.573 11.568.742-2.107 2.062-5.964 2.557-8.108.412-1.674-.008-2.078-2.753-2.383v-1.25h7.742v1.25zm9.4 3.746c-.92-2.606-2.155-3.984-4.2-3.984-1.206 0-2.225.86-2.225 2.266 0 1.497 1.046 2.264 3.16 3.216 3.278 1.496 5.3 2.787 5.3 5.736 0 3.85-3.6 5.764-6.945 5.764-2.06 0-4.088-.737-4.92-1.16l-.662-4.892 1.252-.224c.8 2.5 2.33 4.75 4.976 4.75 1.505 0 2.438-.952 2.438-2.28 0-1.423-.76-2.333-3.092-3.467-2.67-1.295-5.107-2.64-5.107-5.775 0-3.046 2.533-5.42 6.565-5.42 1.818 0 3.242.396 4.112.567l.62 4.577-1.25.328z"/></g><g opacity=".65" class="T"><use xlink:href="#h"/><use xlink:href="#i"/><use xlink:href="#j"/><use xlink:href="#k"/><use xlink:href="#l"/><path d="M597.692 1041.236H589.4c.18 2.28 1.66 3.94 3.84 3.94 1.08 0 2.36-.48 2.94-1.38.14-.22.3-.28.48-.28.3 0 .62.24.62.54 0 .18 0 .22-.38.658-.92 1.082-2.26 1.602-3.66 1.602-3.22 0-5.02-2.64-5.02-5.662 0-3 1.8-5.64 5.02-5.64s5.02 2.66 5.02 5.64c0 .3-.28.58-.56.58zm-4.46-5.08c-2.4 0-3.66 1.84-3.84 3.94h7.7c-.18-2.28-1.66-3.94-3.86-3.94zm8.438 3.26c-.64 0-1.16-.5-1.16-1.14s.52-1.14 1.16-1.14c.62 0 1.12.5 1.12 1.14s-.5 1.14-1.12 1.14zm0 6.563c-.64 0-1.16-.5-1.16-1.14s.52-1.14 1.16-1.14c.62 0 1.12.5 1.12 1.14s-.5 1.14-1.12 1.14zm14.23.34c-4.4 0-5.82-3.7-5.82-7.46 0-3.742 1.42-7.482 5.82-7.482 1.8 0 3.38.64 4.44 2.18.1.102.12.2.12.32 0 .32-.3.56-.62.56-.28 0-.44-.24-.66-.52-.7-.9-1.76-1.4-3.28-1.4-3.02 0-4.682 2.32-4.682 6.342 0 3.04.96 6.32 4.682 6.32 3.16 0 4.54-2.42 4.68-5.74h-2.44a.57.57 0 0 1-.6-.58c0-.28.2-.58.56-.58h3.04c.34 0 .58.238.58.58 0 3.9-1.54 7.46-5.82 7.46z"/><use xlink:href="#m"/><use xlink:href="#i" x="80.708"/><use xlink:href="#n"/><use xlink:href="#o"/><use xlink:href="#m" x="41.597"/><path d="M681.23 1045.98h-5.802a.61.61 0 0 1-.58-.561v-13.123c0-.34.18-.56.52-.56h5.42c1.98 0 3.6 1.64 3.6 3.56 0 1.182-.52 2.2-1.42 2.86a4.06 4.06 0 0 1 2.38 3.721c0 2.28-1.84 4.102-4.12 4.102zm-.44-13.123h-4.8v4.92h4.8c1.62 0 2.46-1.44 2.46-2.44 0-1.38-1.12-2.48-2.46-2.48zm.44 6.06h-5.24v5.922h5.24c1.64 0 2.98-1.32 2.98-2.96s-1.34-2.96-2.98-2.96z"/><use xlink:href="#j" x="128.138"/><use xlink:href="#k" x="128.14"/><path d="M715.13 1045.98c-.28 0-.58-.2-.58-.56v-1c-.84 1.18-2.14 1.9-3.88 1.9-3.22 0-5.02-2.64-5.02-5.662 0-3 1.8-5.64 5.02-5.64 1.74 0 3.04.72 3.88 1.88v-4.602c0-.36.3-.56.58-.56.26 0 .56.2.56.56v13.123c0 .36-.3.56-.56.56zm-4.46-9.822c-2.36 0-3.88 1.9-3.88 4.5s1.52 4.52 3.88 4.52c2.38 0 3.88-1.92 3.88-4.52s-1.5-4.5-3.88-4.5z"/><use xlink:href="#p"/><use xlink:href="#q"/><use xlink:href="#i" x="199.538"/><path d="M762.788 1032.855h-.62c-.48 0-.88.4-.88.86v1.64h1.5c.38 0 .56.3.56.56 0 .28-.2.58-.56.58h-1.5v8.922c0 .36-.28.56-.56.56s-.56-.18-.56-.56v-8.922h-1.38c-.36 0-.56-.3-.56-.58 0-.26.2-.56.56-.56h1.38v-1.64c0-1.1.9-1.98 1.98-1.98h.64c.36 0 .58.28.58.58 0 .28-.2.54-.58.54zm12.422 13.125h-4.44a.61.61 0 0 1-.58-.561v-13.123c0-.3.28-.56.58-.56h4.44c4.12 0 5.48 3.44 5.48 7.102 0 3.72-1.36 7.143-5.48 7.143zm0-13.123h-3.88v11.982h3.88c3.42 0 4.34-2.96 4.34-5.98 0-3.562-1.24-6.002-4.34-6.002z"/><use xlink:href="#r"/><use xlink:href="#h" x="249.038"/><use xlink:href="#p" x="78.14"/><use xlink:href="#o" x="155.9"/><use xlink:href="#h" x="283.337"/><use xlink:href="#p" x="112.44"/><path d="M857.768 1044.137c-.98 1.36-2.38 2.182-4.46 2.182-4.3 0-5.82-3.56-5.82-7.46 0-3.922 1.52-7.482 5.82-7.482 2.02 0 3.5.8 4.44 2.18.1.102.12.2.12.32 0 .32-.3.56-.62.56-.16 0-.32-.06-.44-.22-.72-1.04-1.8-1.7-3.5-1.7-3.32 0-4.682 2.6-4.682 6.342 0 3.72 1.36 6.32 4.682 6.32 1.7 0 2.8-.64 3.54-1.7.1-.2.28-.26.44-.26.3 0 .6.26.6.58a.63.63 0 0 1-.12.34z"/><use xlink:href="#i" x="312.415"/><use xlink:href="#m" x="248.036"/><use xlink:href="#m" x="252.416"/><use xlink:href="#o" x="228.038"/><use xlink:href="#n" x="253.295"/><use xlink:href="#i" x="358.393"/><use xlink:href="#k" x="346.615"/><use xlink:href="#o" x="271.393"/><path d="M940.622 1045.98H940c-1.58 0-2.36-.78-2.36-2.342v-7.14h-1.02c-.36 0-.56-.3-.56-.58 0-.26.2-.56.56-.56h1.02v-3.06c0-.36.3-.56.58-.56s.56.2.56.56v3.06h1.84c.36 0 .56.3.56.56 0 .28-.2.58-.56.58h-1.84v7.14c0 .98.28 1.2 1.22 1.2h.62c.36 0 .56.3.56.58 0 .26-.2.56-.56.56z"/><use xlink:href="#r" x="159.813"/><path d="M955.142 1036.137l-3.94 9.38c-.12.26-.3.46-.56.46s-.46-.2-.58-.46l-3.94-9.36c-.04-.1-.04-.18-.04-.26 0-.32.28-.54.58-.54.18 0 .4.08.5.34l3.48 8.223 3.46-8.223c.12-.26.32-.36.52-.36.3 0 .58.22.58.54 0 .06 0 .16-.06.262z"/><use xlink:href="#p" x="238.613"/><path d="M983.443 1045.998c-.18 0-.34-.12-.48-.32l-7.82-11.543v11.283c0 .36-.3.56-.56.56-.28 0-.58-.2-.58-.56v-13.123c0-.34.3-.6.6-.6.18 0 .34.12.48.32l7.822 11.54v-11.262c0-.36.3-.56.56-.56.28 0 .58.2.58.56v13.123c0 .34-.3.58-.6.58zm12.46-4.762H987.6c.18 2.28 1.66 3.94 3.84 3.94 1.08 0 2.36-.48 2.94-1.38.14-.22.3-.28.48-.28.3 0 .62.24.62.54 0 .18 0 .22-.38.658-.92 1.082-2.26 1.602-3.66 1.602-3.22 0-5.02-2.64-5.02-5.662 0-3 1.8-5.64 5.02-5.64s5.02 2.66 5.02 5.64c0 .3-.28.58-.56.58zm-4.46-5.08c-2.4 0-3.66 1.84-3.84 3.94h7.7c-.18-2.28-1.66-3.94-3.86-3.94zm11.058 9.824h-.62c-1.58 0-2.36-.78-2.36-2.342v-7.14h-1.02c-.36 0-.56-.3-.56-.58 0-.26.2-.56.56-.56h1.02v-3.06c0-.36.3-.56.58-.56s.56.2.56.56v3.06h1.84c.36 0 .56.3.56.56 0 .28-.2.58-.56.58h-1.84v7.14c0 .98.28 1.2 1.22 1.2h.62c.36 0 .56.3.56.58 0 .26-.2.56-.56.56zm15.542-9.884l-3.26 9.402c-.14.38-.32.48-.58.48-.34 0-.44-.12-.56-.48l-2.62-7.803-2.62 7.803c-.14.38-.32.48-.58.48s-.46-.16-.56-.48l-3.24-9.402a.85.85 0 0 1-.04-.22c0-.318.32-.52.58-.52.2 0 .44.1.52.38l2.74 7.922 2.62-7.822c.12-.38.24-.48.58-.48.24 0 .44.08.56.48l2.66 7.822 2.7-7.922c.1-.28.3-.38.52-.38.3 0 .62.2.62.54a.59.59 0 0 1-.04.2z"/><use xlink:href="#i" x="472.368"/><use xlink:href="#k" x="460.59"/><path d="M1046.04 1036.336l-3.44 3.44 3.4 5.32c.06.08.12.2.12.32 0 .28-.3.54-.6.54-.18 0-.36-.08-.48-.262l-3.28-5.1-2.06 2.08v2.74c0 .36-.3.56-.56.56-.28 0-.58-.2-.58-.56v-13.123c0-.36.3-.56.58-.56.26 0 .56.2.56.56v8.762l5.52-5.52c.14-.14.28-.18.42-.18.32 0 .58.26.58.56a.56.56 0 0 1-.181.42z"/></g><g opacity=".65" class="T"><path d="M313.6 1037.936c-.1 0-.18 0-.3-.08l-2.6-1.5v3.002a.56.56 0 0 1-.56.58c-.28 0-.58-.2-.58-.58v-3.002l-2.6 1.5c-.08.04-.2.08-.3.08-.3 0-.56-.28-.56-.58 0-.18.1-.36.3-.48l2.6-1.502-2.6-1.5c-.2-.12-.3-.3-.3-.48 0-.3.26-.6.56-.6.1 0 .22.02.3.1l2.6 1.502v-3.02c0-.36.3-.56.58-.56.26 0 .56.2.56.56v3.02l2.6-1.502c.12-.08.2-.1.3-.1.34 0 .58.3.58.6 0 .182-.1.36-.3.48l-2.6 1.5 2.6 1.502c.2.12.3.3.3.48a.58.58 0 0 1-.58.58zm19.84 8.044c-.28 0-.56-.2-.56-.56v-10.863l-4.76 8.844c-.12.26-.3.36-.46.36-.22 0-.4-.12-.54-.36l-4.74-8.844v10.863c0 .36-.3.56-.56.56-.28 0-.58-.2-.58-.56v-13.123c0-.34.3-.56.6-.56a.52.52 0 0 1 .479.281l5.302 9.902 5.32-9.902c.12-.2.3-.28.48-.28.3 0 .6.22.6.56v13.123c0 .36-.3.56-.58.56z"/><use xlink:href="#p" x="-381.67"/><use xlink:href="#q" x="-381.668"/><use xlink:href="#q" x="-369.888"/><use xlink:href="#r" x="-410.809"/><use xlink:href="#q" x="-354.128"/><path d="M392.7 1050.54c-1.7 0-4.102-.64-4.102-1.36 0-.32.26-.64.58-.64.22 0 .68.34 1.06.48.52.18 1.34.38 2.46.38 2.56 0 3.88-1.26 3.88-3.72v-1.4c-.88 1.06-2.14 1.7-3.88 1.7-3.16 0-5.02-2.24-5.02-5.322 0-3 1.8-5.64 5.02-5.64 1.74 0 3.04.72 3.88 1.88v-.96c0-.36.3-.56.58-.56.26 0 .56.2.56.56v9.742c0 3.182-1.9 4.86-5.02 4.86zm0-14.383c-2.36 0-3.88 1.9-3.88 4.5 0 2.582 1.42 4.182 3.88 4.182s3.88-1.6 3.88-4.182c0-2.6-1.5-4.5-3.88-4.5z"/><use xlink:href="#r" x="-382.629"/><use xlink:href="#l" x="-173.43"/><use xlink:href="#i" x="-132.392"/><use xlink:href="#l" x="-150.77"/><use xlink:href="#l" x="-140.07"/><use xlink:href="#o" x="-204.13"/><use xlink:href="#m" x="-162.532"/></g><g fill="#14387a"><path d="M73.358 81.06c-1.26 0-2.52-.9-2.52-2.58v-27.6L59.2 72.6c-.78 1.5-1.92 1.62-2.4 1.62-.3 0-1.56-.12-2.4-1.62L42.82 51v27.48c0 1.68-1.26 2.58-2.64 2.58-1.26 0-2.52-.9-2.52-2.58v-37.5c0-1.98 1.38-2.7 2.76-2.7.9 0 1.62.42 2.16 1.5L56.8 66.24l14.28-26.46c.6-1.2 1.32-1.5 2.34-1.5 1.32 0 2.58.84 2.58 2.7v37.5c0 1.68-1.26 2.58-2.64 2.58z"/><use xlink:href="#s"/><use xlink:href="#t"/><use xlink:href="#t" x="11.28"/><use xlink:href="#s" x="34.198"/><use xlink:href="#u"/><use xlink:href="#v"/><use xlink:href="#w"/><use xlink:href="#u" x="104.818"/><path d="M276.035 54.242h-2.7v24.18c0 1.68-1.26 2.52-2.64 2.52-1.26 0-2.52-.84-2.52-2.52v-24.18h-2.46c-1.62 0-2.52-1.2-2.52-2.52 0-1.38.9-2.58 2.52-2.58h2.46v-4.08c0-3.84 3.18-6.78 6.9-6.78 1.74 0 2.64 1.2 2.64 2.58 0 1.26-.9 2.52-2.64 2.52-1.02 0-1.74.78-1.74 1.62v4.14h2.7c1.74 0 2.64 1.2 2.64 2.58 0 1.32-.9 2.52-2.64 2.52zM314.853 81h-18.24c-1.44 0-2.64-1.14-2.64-2.52V40.862c0-1.74 1.38-2.58 2.52-2.58 1.32 0 2.64.84 2.64 2.52v35.1h15.72c1.38 0 2.52 1.14 2.52 2.52 0 1.44-1.14 2.58-2.52 2.58z"/><use xlink:href="#s" x="238.313"/><path d="M356.55 52.682l-10.92 26.28c-.54 1.38-1.44 2.04-2.58 2.04-1.02 0-1.98-.66-2.58-2.04l-10.92-26.28c-.12-.42-.18-.72-.18-1.08 0-1.44 1.32-2.46 2.64-2.46.9 0 1.8.48 2.28 1.56l8.76 21 8.76-21c.42-1.14 1.5-1.62 2.34-1.62 1.38 0 2.64.96 2.64 2.46a2.99 2.99 0 0 1-.24 1.14z"/><use xlink:href="#x"/><use xlink:href="#w" x="198.534"/><path d="M458.9 81c-1.32 0-2.64-.9-2.64-2.52V60.66h-19.8v17.82c0 1.62-1.38 2.52-2.52 2.52-1.32 0-2.64-.9-2.64-2.52V40.802c0-1.68 1.32-2.52 2.64-2.52 1.14 0 2.52.84 2.52 2.52v14.76h19.8v-14.7c0-1.74 1.38-2.58 2.52-2.58 1.32 0 2.64.84 2.64 2.58V78.42c0 1.68-1.38 2.58-2.52 2.58z"/><use xlink:href="#y"/><use xlink:href="#z"/><use xlink:href="#AA"/><path d="M594.807 81h-16.14c-1.38 0-2.64-1.26-2.64-2.52V40.862c0-1.44 1.08-2.58 2.52-2.58h14.88c6.12 0 11.22 5.04 11.22 11.1a10.8 10.8 0 0 1-3.42 7.979c3.84 2.16 6.3 6.24 6.3 10.92 0 6.96-5.76 12.72-12.72 12.72zm-1.38-37.62h-12.24V55.5h12.24c3.84 0 6.06-3.24 6.06-6.06 0-3.3-2.7-6.06-6.06-6.06zm1.38 17.22h-13.62v15.3h13.62c4.08 0 7.56-3.54 7.56-7.62 0-4.2-3.48-7.68-7.56-7.68z"/><use xlink:href="#AA" x="80.278"/><use xlink:href="#AA" x="113.038"/><use xlink:href="#v" x="515.329"/><path d="M734.186 82.02c-4.38 0-10.5-1.8-13.92-4.98-.66-.6-.84-1.26-.84-1.86a2.6 2.6 0 0 1 2.58-2.58c.9 0 1.2.3 2.28 1.14 2.94 2.22 6.42 3.18 9.9 3.18 7.14 0 10.26-2.58 10.26-7.02 0-12.48-23.938-5.4-23.938-21.72 0-7.32 6.18-10.98 14.1-10.98 4.14 0 10.08 1.62 13.02 5.1.48.54.66 1.08.66 1.62 0 1.44-1.32 2.7-2.58 2.7-.9 0-1.38-.42-2.4-1.32-2.4-2.04-5.46-2.94-8.7-2.94-6.48 0-8.94 2.58-8.94 5.82 0 11.22 23.938 4.56 23.938 21.72 0 8.94-7.5 12.12-15.42 12.12z"/><use xlink:href="#AB"/><use xlink:href="#z" x="285.597"/><use xlink:href="#AA" x="285.597"/><path d="M875.484 80.94c-1.32 0-2.58-.84-2.58-2.52 0 0-3.54 3.6-9.9 3.6-9.66 0-15.06-7.92-15.06-16.98 0-9 5.4-16.92 15.06-16.92 4.2 0 7.56 1.44 9.9 3.9V40.86c0-1.74 1.26-2.58 2.58-2.58s2.58.84 2.58 2.52v37.62c0 1.68-1.26 2.52-2.58 2.52zm-12.48-27.72c-6 0-9.9 4.68-9.9 11.82 0 7.2 3.9 11.88 9.9 11.88 6.06 0 9.9-4.68 9.9-11.88 0-7.14-3.84-11.82-9.9-11.82zm-810.284 86c-6.42 0-9.84-3.54-9.9-3.6 0 1.68-1.26 2.52-2.64 2.52-1.26 0-2.52-.84-2.52-2.52V98.063c0-1.74 1.26-2.58 2.52-2.58 1.38 0 2.64.84 2.64 2.52v11.22c2.4-2.46 5.7-3.9 9.9-3.9 9.66 0 15.06 7.92 15.06 16.92 0 9.06-5.4 16.98-15.06 16.98zm0-28.8c-6 0-9.9 4.68-9.9 11.82 0 7.2 3.9 11.88 9.9 11.88s9.9-4.68 9.9-11.88c0-7.14-3.9-11.82-9.9-11.82zm45.78-.478L82.3 146.78c-1.2 2.76-3.84 4.02-6.6 4.02h-1.92c-1.74 0-2.52-1.26-2.52-2.64 0-1.26.78-2.52 2.52-2.52h1.86c.78 0 1.62-.12 1.98-.96l3.96-8.88-11.7-25.86c-.24-.42-.3-.78-.3-1.14 0-1.5 1.44-2.52 2.76-2.52.9 0 1.68.48 2.16 1.56l9.78 21.72 9.54-21.72c.48-1.08 1.38-1.5 2.22-1.5 1.38 0 2.76 1.02 2.76 2.46 0 .42-.06.72-.3 1.14zm43.257-11.1l-12.6 37.318c-.42 1.26-1.38 2.04-2.58 2.04-1.08 0-2.04-.78-2.52-2.04L111.4 98.842c-.12-.3-.12-.66-.12-.9 0-1.56 1.32-2.46 2.58-2.46.96 0 1.98.54 2.4 1.74l10.32 30.42 10.38-30.42c.36-1.2 1.38-1.74 2.34-1.74 1.32 0 2.7.9 2.7 2.46a1.84 1.84 0 0 1-.24.9z"/><use xlink:href="#y" x="-325.26" y="57.2"/><use xlink:href="#AC"/><use xlink:href="#AC" x="29.219"/><use xlink:href="#s" x="153.947" y="57.2"/><use xlink:href="#AD"/><use xlink:href="#x" x="-79.505" y="57.2"/><use xlink:href="#w" x="119.029" y="57.2"/><use xlink:href="#s" x="269.684" y="57.2"/><use xlink:href="#AD" x="115.738"/><use xlink:href="#AE"/><path d="M449.12 138.2c-1.32 0-2.52-.9-2.52-2.52V119c0-4.68-3.9-8.58-8.58-8.58-4.62 0-8.52 3.9-8.52 8.58v16.62c0 1.68-1.26 2.64-2.64 2.64-1.26 0-2.52-.9-2.52-2.58V98.063c0-1.74 1.26-2.58 2.52-2.58 1.38 0 2.64.84 2.64 2.52v10.38c2.22-2.1 5.22-3.06 8.52-3.06 7.44 0 13.68 6.18 13.68 13.68v16.62c0 1.68-1.2 2.58-2.58 2.58z"/><use xlink:href="#x" x="97.13" y="57.2"/><path d="M523.22 138.2h-18.24c-1.44 0-2.64-1.14-2.64-2.52V98.063c0-1.74 1.38-2.58 2.52-2.58 1.32 0 2.64.84 2.64 2.52v35.1h15.72c1.38 0 2.52 1.14 2.52 2.52 0 1.44-1.14 2.58-2.52 2.58z"/><use xlink:href="#AB" x="-224.345" y="57.2"/><use xlink:href="#w" x="369.764" y="57.2"/><use xlink:href="#AE" x="181.558"/><path d="M636.798 138.2H618.44c-1.74 0-2.76-1.02-2.76-2.28 0-.54.18-1.08.54-1.62l16.38-24.9c.72-1.14 1.14-2.52 1.14-3.6 0-3.54-2.64-6.24-6.18-6.24-3.18 0-5.88 2.7-6.9 4.62-.48.9-1.26 1.26-2.04 1.26-1.38 0-2.64-1.08-2.64-2.46 0-1.86 4.26-8.58 11.58-8.58a11.31 11.31 0 0 1 11.28 11.28c0 2.4-.84 4.74-2.04 6.48l-13.74 20.94h13.74c1.74 0 2.64 1.2 2.64 2.58 0 1.26-.9 2.52-2.64 2.52zm19.862.6c-4.02 0-8.58-2.16-10.8-5.7-.3-.48-.42-.96-.42-1.44 0-1.38 1.2-2.46 2.58-2.46 1.14 0 1.56.42 2.46 1.62 1.5 1.86 3.84 2.88 6.18 2.88 4.14 0 8.34-3.78 8.34-9.18 0-5.46-4.2-9.24-8.34-9.24-3.18 0-5.34 1.62-6.36 3.36-.48.9-1.32 1.38-2.34 1.38-1.56 0-2.58-1.02-2.58-3V98c0-1.38 1.2-2.52 2.58-2.52h18.24c1.74 0 2.64 1.2 2.64 2.58 0 1.26-.84 2.52-2.52 2.52h-15.84v11.22c1.44-1.02 3.72-1.62 6.18-1.62 7.38 0 13.44 6.24 13.44 14.34 0 7.98-6.06 14.28-13.44 14.28zm36.598-17.58h-6.06v5.94c0 1.74-1.26 2.64-2.58 2.64s-2.52-.84-2.52-2.52v-6.06h-6c-1.68 0-2.58-1.38-2.58-2.52 0-1.32.9-2.58 2.58-2.58h6v-5.94c0-1.74 1.2-2.64 2.52-2.64s2.58.84 2.58 2.52v6.06h6.06c1.62 0 2.52 1.2 2.52 2.52s-.84 2.58-2.52 2.58zm46.378-21.958l-11.88 22.14v14.22c0 1.68-1.26 2.58-2.64 2.58-1.26 0-2.52-.84-2.52-2.52V121.4l-11.88-22.2a2.26 2.26 0 0 1-.359-1.26c0-1.44 1.38-2.58 2.7-2.58.78 0 1.62.42 2.16 1.44l9.9 18.48 10.02-18.48c.54-.96 1.38-1.32 2.16-1.32 1.38 0 2.7 1.08 2.7 2.52a2.14 2.14 0 0 1-.36 1.26z"/><use xlink:href="#AA" x="209.92" y="57.2"/><use xlink:href="#AB" x="20.502" y="57.2"/><path d="M822.667 110.422c-4.62 0-8.52 3.9-8.52 8.58v16.62c0 1.68-1.26 2.58-2.64 2.58-1.26 0-2.52-.9-2.52-2.52v-26.76c0-1.68 1.38-2.58 2.52-2.58 1.2 0 2.34.66 2.58 2.04 2.34-1.92 5.52-3.06 8.58-3.06 1.74 0 2.64 1.2 2.64 2.58 0 1.32-.9 2.52-2.64 2.52z"/><use xlink:href="#w" x="632.01" y="57.2"/></g><g fill="#333"><path d="M45.588 182.846c-8.36 0-11.057-7.028-11.057-14.172 0-7.104 2.697-14.2 11.057-14.2 3.42 0 6.42 1.216 8.435 4.142.2.2.228.38.228.608 0 .607-.57 1.063-1.178 1.063-.53 0-.836-.456-1.254-.987-1.33-1.7-3.343-2.66-6.23-2.66-5.737 0-8.89 4.407-8.89 12.044 0 5.775 1.823 12.007 8.89 12.007 6.003 0 8.625-4.598 8.89-10.904h-4.636c-.76 0-1.14-.57-1.14-1.103s.38-1.102 1.063-1.102h5.775c.646 0 1.103.456 1.103 1.102 0 7.41-2.926 14.172-11.057 14.172z"/><use xlink:href="#AF"/><use xlink:href="#AG"/><use xlink:href="#AH"/><use xlink:href="#AI"/><use xlink:href="#AF" x="76"/><path d="M169.426 182.2c-.53 0-1.102-.38-1.102-1.063v-1.9c-1.596 2.242-4.065 3.61-7.37 3.61-6.117 0-9.536-5.015-9.536-10.752 0-5.7 3.42-10.715 9.536-10.715 3.306 0 5.775 1.368 7.37 3.572v-8.74c0-.684.57-1.063 1.102-1.063.494 0 1.064.38 1.064 1.063v24.925c0 .684-.57 1.063-1.064 1.063zm-8.473-18.655c-4.483 0-7.37 3.61-7.37 8.55s2.888 8.587 7.37 8.587c4.52 0 7.37-3.647 7.37-8.587s-2.85-8.55-7.37-8.55z"/><use xlink:href="#AJ"/><use xlink:href="#AI" x="84.549"/><use xlink:href="#AK"/><path d="M247.705 182.2c-.53 0-1.102-.38-1.102-1.063v-11.095a6.47 6.47 0 0 0-6.497-6.497c-3.57 0-6.497 2.888-6.497 6.497v11.095c0 .684-.57 1.063-1.063 1.063-.532 0-1.103-.38-1.103-1.063v-24.925c0-.684.57-1.063 1.103-1.063.494 0 1.063.38 1.063 1.063v8.093c1.596-1.86 3.913-2.926 6.497-2.926 4.71 0 8.663 3.914 8.663 8.663v11.095c0 .684-.57 1.063-1.064 1.063z"/><use xlink:href="#AL"/><path d="M285.858 157.277h-1.178c-.912 0-1.672.76-1.672 1.633v3.116h2.85c.723 0 1.064.57 1.064 1.063 0 .532-.38 1.102-1.064 1.102h-2.85v16.946c0 .684-.53 1.063-1.063 1.063s-1.063-.342-1.063-1.063V164.19h-2.622c-.684 0-1.063-.57-1.063-1.102 0-.494.38-1.063 1.063-1.063h2.622V158.9a3.77 3.77 0 0 1 3.761-3.761h1.216c.685 0 1.103.53 1.103 1.102 0 .532-.38 1.026-1.103 1.026z"/><use xlink:href="#AM"/><use xlink:href="#AG" x="233.885"/><path d="M348.326 182.2c-.53 0-1.063-.38-1.063-1.063V168.37c0-2.62-2.204-4.825-4.825-4.825s-4.863 2.204-4.863 4.787v12.805c0 .684-.532 1.063-1.063 1.063s-1.103-.38-1.103-1.063V168.37c0-2.62-2.203-4.825-4.787-4.825-2.66 0-4.863 2.204-4.863 4.787v12.805c0 .684-.57 1.063-1.063 1.063-.532 0-1.103-.38-1.103-1.063V163.1c0-.684.57-1.063 1.103-1.063.494 0 1.063.38 1.063 1.063v.23c1.254-1.216 2.964-1.938 4.825-1.938 2.432 0 4.598 1.216 5.928 3.23 1.253-1.937 3.42-3.23 5.9-3.23 3.95 0 7.03 3.116 7.03 6.953v12.805c0 .684-.57 1.063-1.103 1.063zm23.486.646c-3.306 0-5.775-1.367-7.37-3.6v9.84c0 .684-.57 1.102-1.063 1.102-.532 0-1.103-.418-1.103-1.102V163.1c0-.684.57-1.063 1.103-1.063.494 0 1.063.38 1.063 1.063v1.862c1.596-2.204 4.065-3.572 7.37-3.572 6.117 0 9.536 5.016 9.536 10.715 0 5.737-3.42 10.752-9.536 10.752zm0-19.3c-4.52 0-7.37 3.6-7.37 8.55s2.85 8.587 7.37 8.587 7.37-3.647 7.37-8.587-2.85-8.55-7.37-8.55z"/><use xlink:href="#AM" x="95.264"/><path d="M413.146 173.196H397.38c.342 4.332 3.153 7.485 7.295 7.485 2.052 0 4.483-.912 5.585-2.622.267-.418.57-.53.912-.53.57 0 1.178.455 1.178 1.025 0 .342 0 .418-.722 1.254-1.748 2.052-4.293 3.04-6.953 3.04-6.117 0-9.536-5.015-9.536-10.752 0-5.7 3.42-10.715 9.536-10.715s9.537 5.054 9.537 10.715c0 .57-.532 1.102-1.064 1.102zm-8.473-9.65c-4.56 0-6.953 3.495-7.295 7.485h14.628c-.342-4.332-3.153-7.485-7.333-7.485zm28.804-.04l-7.484 17.82c-.23.494-.57.874-1.064.874s-.874-.38-1.102-.874l-7.484-17.78c-.076-.2-.076-.342-.076-.494 0-.607.53-1.025 1.102-1.025.342 0 .76.15.95.646l6.6 15.616 6.573-15.616c.23-.494.608-.684.988-.684.57 0 1.102.418 1.102 1.025 0 .114 0 .305-.114.494z"/><use xlink:href="#AJ" x="261.388"/><path d="M474.743 182.2c-.53 0-1.102-.38-1.102-1.063v-11.095a6.47 6.47 0 0 0-6.497-6.497c-3.57 0-6.497 2.888-6.497 6.497v11.095c0 .684-.57 1.063-1.063 1.063-.532 0-1.103-.38-1.103-1.063V163.09c0-.684.57-1.063 1.103-1.063.494 0 1.063.38 1.063 1.063v1.216c1.7-1.86 3.95-2.926 6.497-2.926 4.71 0 8.663 3.914 8.663 8.663v11.095c0 .684-.57 1.063-1.064 1.063z"/><use xlink:href="#AK" x="259.377"/><use xlink:href="#AI" x="378.276"/><use xlink:href="#AH" x="424.751"/><use xlink:href="#AF" x="477.115"/><use xlink:href="#AJ" x="369.736"/><path d="M592.503 182.2c-.532 0-1.102-.38-1.102-1.063v-1.9c-1.596 2.242-4.065 3.6-7.37 3.6-6.117 0-9.536-5.015-9.536-10.752 0-5.7 3.42-10.715 9.536-10.715 3.306 0 5.775 1.368 7.37 3.572v-8.74c0-.684.57-1.063 1.102-1.063.494 0 1.064.38 1.064 1.063v24.925c0 .684-.57 1.063-1.064 1.063zm-8.473-18.655c-4.483 0-7.37 3.6-7.37 8.55s2.888 8.587 7.37 8.587c4.52 0 7.37-3.647 7.37-8.587s-2.85-8.55-7.37-8.55zm15.28-5.167a2.166 2.166 0 1 1 0-4.332 2.166 2.166 0 0 1 0 4.332zm0 23.822c-.532 0-1.103-.342-1.103-1.063V163.1c0-.684.532-1.063 1.103-1.063.494 0 1.063.342 1.063 1.063v18.048c0 .684-.494 1.063-1.063 1.063z"/><use xlink:href="#AN"/><use xlink:href="#AJ" x="447.171"/><use xlink:href="#AI" x="531.718"/><use xlink:href="#AN" x="62.888"/><use xlink:href="#AJ" x="510.058"/><use xlink:href="#AL" x="454.087"/></g><defs ><path id="J" d="M51.676 993.423c.33 2.305 1.655 2.688 2.582 2.688 2.118 0 3.442-2.816 3.508-9.248-.96.992-2.25 1.76-3.673 1.76-2.68 0-5.13-1.856-5.13-7.104 0-4.48 1.985-7.23 5.13-7.23 4.137 0 6.123 2.304 6.123 10.623 0 9.28-2.25 13.12-6.023 13.12-3.078 0-4.236-1.792-4.7-4.48l2.185-.128zm6.156-10.88c0-4.672-1.258-6.335-3.376-6.335-1.853 0-3.11 1.344-3.11 5.343 0 4.128 1.456 5.152 2.98 5.152s2.714-.96 3.508-1.984v-2.176z"/><path id="K" d="M67.254 223.384c-.372-2.592-1.86-3.024-2.904-3.024-2.383 0-3.872 3.168-3.947 10.403 1.08-1.116 2.532-1.98 4.133-1.98 3.016 0 5.77 2.087 5.77 8 0 5.04-2.234 8.136-5.77 8.136-4.654 0-6.888-2.592-6.888-11.95 0-10.438 2.532-14.758 6.776-14.758 3.462 0 4.766 2.016 5.287 5.04l-2.458.145zm-6.925 12.238c0 5.255 1.415 7.127 3.798 7.127 2.085 0 3.5-1.512 3.5-6.01 0-4.644-1.638-5.796-3.35-5.796s-3.053 1.08-3.946 2.23v2.448z"/><path id="L" d="M70.487 291.104c-3.684 0-6.75-2.86-6.75-6.526v-11.363c0-.728.565-1.092 1.156-1.092s1.156.364 1.156 1.092v11.363c0 2.392 1.99 4.316 4.436 4.316s4.463-1.924 4.463-4.316V273.24c0-.754.538-1.118 1.13-1.118.618 0 1.156.364 1.156 1.092v11.363c0 3.562-2.958 6.526-6.75 6.526z"/><path id="M" d="M108.83 635.193c-1.962 0-4.705-.78-6.237-2.158-.296-.26-.376-.546-.376-.807 0-.598.51-1.118 1.156-1.118.403 0 .538.13 1.02.494 1.317.963 2.877 1.38 4.436 1.38 3.2 0 4.598-1.118 4.598-3.043 0-5.408-10.728-2.34-10.728-9.412 0-3.172 2.77-4.758 6.318-4.758 1.855 0 4.517.702 5.834 2.2.215.233.296.468.296.702 0 .624-.59 1.17-1.156 1.17-.403 0-.618-.182-1.075-.572-1.076-.884-2.447-1.273-3.898-1.273-2.904 0-4.006 1.117-4.006 2.52 0 4.862 10.728 1.977 10.728 9.412 0 3.875-3.36 5.253-6.9 5.253z"/><path id="N" d="M98.935 808.124c-.35 0-.726-.182-.968-.572l-9.034-13.13v12.584c0 .73-.564 1.118-1.183 1.118-.564 0-1.13-.4-1.13-1.092V790.73c0-.73.59-1.118 1.183-1.118.376 0 .7.156.968.546l9.034 13.13v-12.56c0-.754.564-1.118 1.13-1.118.62 0 1.183.364 1.183 1.092v16.303c0 .702-.59 1.118-1.183 1.118z"/><path id="O" d="M152.31 808.124h-3.092a1.08 1.08 0 0 1-1.129-1.092 1.07 1.07 0 0 1 1.129-1.118h.403V791.82h-.403a1.08 1.08 0 0 1-1.129-1.092 1.07 1.07 0 0 1 1.129-1.118h3.092c.78 0 1.183.52 1.183 1.118 0 .546-.403 1.092-1.183 1.092h-.403v14.093h.403c.78 0 1.183.52 1.183 1.118 0 .546-.403 1.092-1.183 1.092z"/><path id="P" d="M123.518 846.437c-.35 0-.726-.182-.968-.572l-9.034-13.13v12.584c0 .73-.564 1.118-1.183 1.118-.564 0-1.13-.4-1.13-1.092v-16.303c0-.73.59-1.118 1.183-1.118.376 0 .7.156.968.546l9.034 13.13v-12.56c0-.754.564-1.118 1.13-1.118.62 0 1.183.364 1.183 1.092v16.303c0 .702-.59 1.118-1.183 1.118z"/><path id="Q" d="M135.646 846.904c-3.684 0-6.75-2.86-6.75-6.526v-11.362c0-.728.565-1.092 1.156-1.092s1.156.364 1.156 1.092v11.362c0 2.393 1.99 4.316 4.436 4.316s4.463-1.924 4.463-4.316v-11.336c0-.754.538-1.118 1.13-1.118.618 0 1.156.364 1.156 1.092v11.362c0 3.563-2.958 6.526-6.75 6.526z"/><path id="R" d="M96.56 904.54c-5.78 0-7.824-4.63-7.824-9.7 0-5.096 2.043-9.724 7.824-9.724 5.753 0 7.824 4.628 7.824 9.724 0 5.07-2.07 9.7-7.824 9.7zm0-17.187c-3.818 0-5.512 2.73-5.512 7.488s1.694 7.488 5.512 7.488c3.79 0 5.512-2.73 5.512-7.488s-1.72-7.488-5.512-7.488z"/><path id="S" d="M177.443 904.54c-5.915 0-7.824-4.81-7.824-9.7 0-5.018 2.043-9.724 7.824-9.724 2.446 0 4.5.832 5.97 2.834.16.208.242.442.242.65 0 .625-.672 1.118-1.29 1.118-.484 0-.538-.208-.968-.676-.86-1.014-2.017-1.7-3.952-1.7-4.14 0-5.512 3.406-5.512 7.488 0 3.563.995 7.488 5.512 7.488 3.28 0 5.243-2.262 5.43-6.006h-2.42c-.78 0-1.183-.546-1.183-1.118s.403-1.118 1.13-1.118h3.683c.7 0 1.183.47 1.183 1.145-.107 4.862-2.124 9.31-7.824 9.31z"/><path id="T" d="M123.13 914.063h-4.463v15.21c0 .702-.537 1.092-1.13 1.092-.564 0-1.156-.4-1.156-1.092v-15.21h-4.41c-.78 0-1.183-.572-1.183-1.118 0-.52.403-1.092 1.155-1.092h11.185c.753 0 1.156.572 1.156 1.092 0 .546-.403 1.118-1.156 1.118z"/><path id="U" d="M130.284 930.365h-3.092a1.08 1.08 0 0 1-1.129-1.092 1.07 1.07 0 0 1 1.129-1.118h.403v-14.093h-.403a1.08 1.08 0 0 1-1.129-1.092 1.07 1.07 0 0 1 1.129-1.118h3.092c.78 0 1.184.52 1.184 1.118 0 .546-.403 1.092-1.184 1.092h-.403v14.093h.403c.78 0 1.184.52 1.184 1.118 0 .546-.403 1.092-1.184 1.092z"/><path id="V" d="M69.17 953.483h-3.092a1.08 1.08 0 0 1-1.129-1.092 1.07 1.07 0 0 1 1.129-1.118h.403V937.18h-.403a1.08 1.08 0 0 1-1.129-1.092 1.07 1.07 0 0 1 1.129-1.118h3.092c.78 0 1.184.52 1.184 1.118 0 .546-.403 1.092-1.184 1.092h-.403v14.093h.403c.78 0 1.184.52 1.184 1.118 0 .546-.403 1.092-1.184 1.092z"/><path id="W" d="M135.423 953.483h-11.185c-.646 0-1.183-.494-1.183-1.092V936.09c0-.624.537-1.118 1.183-1.118h11.185c.7 0 1.13.494 1.13 1.092 0 .546-.403 1.118-1.13 1.118h-10.056v5.252h7.044c.673 0 1.156.52 1.156 1.118a1.11 1.11 0 0 1-1.156 1.118h-7.044v6.604h10.056c.726 0 1.13.546 1.13 1.118 0 .598-.43 1.092-1.13 1.092z"/><path id="X" d="M178.957 953.483a1.1 1.1 0 0 1-1.021-.676l-1.426-3.38h-8.952l-1.452 3.38c-.215.468-.618.676-.995.676-.59 0-1.2-.442-1.2-1.092 0-.156.027-.312.107-.442l6.9-16.25c.322-.677.753-.807 1.103-.807a1.22 1.22 0 0 1 1.103.807l6.937 16.25a1.18 1.18 0 0 1 .08.442c0 .65-.564 1.092-1.183 1.092zm-6.937-14.56l-3.522 8.27h7.044l-3.52-8.27z"/><path id="Y" d="M184.282 955.77c-.162.104-.377.182-.565.182-.618 0-1.13-.546-1.13-1.144 0-.884 1.02-1.066 1.02-1.482v-.025s-1.075-.286-1.075-1.847c0-.962.888-1.61 1.802-1.61 1.264 0 2.017 1.378 2.017 2.496 0 1.273-.753 2.678-2.07 3.432z"/><path id="Z" d="M260.537 937.18h-10.055v5.252h7.044c.672 0 1.156.52 1.156 1.118a1.11 1.11 0 0 1-1.156 1.118h-7.044v7.723c0 .598-.538 1.092-1.13 1.092-.645 0-1.183-.494-1.183-1.092V936.09c0-.624.538-1.118 1.183-1.118h11.185c.7 0 1.13.494 1.13 1.092 0 .546-.403 1.118-1.13 1.118z"/><path id="a" d="M274.628 953.483h-8.174c-.645 0-1.183-.494-1.183-1.092V936.09c0-.754.618-1.118 1.13-1.118.592 0 1.184.364 1.184 1.092v15.21h7.044c.618 0 1.13.494 1.13 1.092 0 .624-.51 1.118-1.13 1.118z"/><path id="b" d="M533.838 953.483h-11.185c-.645 0-1.183-.494-1.183-1.092V936.09c0-.624.538-1.118 1.183-1.118h11.185c.7 0 1.13.494 1.13 1.092 0 .546-.403 1.118-1.13 1.118h-10.055v5.252h7.044c.672 0 1.156.52 1.156 1.118a1.11 1.11 0 0 1-1.156 1.118h-7.044v6.604h10.055c.727 0 1.13.546 1.13 1.118 0 .598-.43 1.092-1.13 1.092z"/><path id="c" d="M968.98 560.644c-1.64 0-2.95-1.267-2.95-2.85s1.31-2.85 2.95-2.85 2.948 1.267 2.948 2.85-1.31 2.85-2.948 2.85zm0 24.233c-.9 0-1.803-.594-1.803-1.663v-17.66c0-1.108.9-1.702 1.803-1.702.86 0 1.72.594 1.72 1.702v17.66c0 1.108-.86 1.663-1.72 1.663z"/><path id="d" d="M979.71 584.956c-2.21 0-4.096-1.82-4.096-4.04v-22.53c0-1.148.86-1.702 1.762-1.702s1.76.554 1.76 1.663v22.57c0 .476.368.674.573.674 1.146 0 1.76.792 1.76 1.702 0 .87-.614 1.663-1.76 1.663z"/><path id="e" d="M941.217 604.188l-7.454 17.343c-.368.91-.982 1.347-1.76 1.347-.696 0-1.352-.436-1.76-1.347l-7.454-17.343c-.082-.277-.123-.476-.123-.713 0-.95.9-1.623 1.803-1.623.614 0 1.23.316 1.556 1.03l5.98 13.858 5.98-13.858c.287-.753 1.023-1.07 1.598-1.07.94 0 1.802.634 1.802 1.623 0 .198-.04.476-.164.753z"/><path id="f" d="M962.348 614.087h-15.153c.573 3.722 3.03 6.098 6.635 6.098 1.843 0 3.686-.634 4.873-2.06.37-.396.778-.633 1.27-.633.9 0 1.844.792 1.844 1.742 0 .475-.123.83-.983 1.663-1.843 1.742-4.382 2.652-7.003 2.652-6.594 0-10.28-5.266-10.28-11.205 0-5.9 3.687-11.167 10.28-11.167 6.676 0 10.238 5.267 10.238 11.167 0 .87-.655 1.742-1.72 1.742zm-8.52-9.543c-3.85 0-6.103 2.732-6.635 6.138h13.27c-.573-3.802-3.03-6.138-6.635-6.138z"/><path id="g" d="M104.714 1045.51c-.633 0-1.267-.367-1.4-1.1-1.334 1.034-2.97 1.668-4.804 1.668-4.136 0-7.604-3.436-7.604-7.605v-9.24a1.37 1.37 0 0 1 1.4-1.435c.768 0 1.468.5 1.468 1.4v9.272c0 2.602 2.168 4.77 4.736 4.77 2.603 0 4.77-2.17 4.77-4.77v-9.24c0-1.034.667-1.468 1.4-1.468.768 0 1.435.5 1.435 1.435v14.9c0 .934-.667 1.4-1.4 1.4z"/><path id="h" d="M541.47 1046.357c-1.2 0-3.22-.42-3.92-1.58-.08-.12-.08-.22-.08-.3 0-.32.28-.602.58-.602.12 0 .32.102.44.28.72.88 2 1.06 2.98 1.06 1.94 0 2.92-.64 2.92-1.94 0-3.02-6.562-1.42-6.562-5.422 0-2.02 2.02-2.8 3.84-2.8 1.04 0 2.64.36 3.44 1.16.12.12.18.26.18.38a.65.65 0 0 1-.62.6c-.12 0-.26-.04-.38-.16-.62-.6-1.74-.84-2.62-.84-1.76 0-2.7.682-2.7 1.66 0 2.8 6.562 1.32 6.562 5.422 0 2.28-2 3.08-4.06 3.08z"/><path id="i" d="M552.192 1046.318c-3.22 0-5.02-2.64-5.02-5.662 0-3 1.8-5.64 5.02-5.64s5.02 2.64 5.02 5.64c0 3.02-1.8 5.662-5.02 5.662zm0-10.162c-2.36 0-3.88 1.9-3.88 4.5s1.52 4.52 3.88 4.52c2.38 0 3.88-1.92 3.88-4.52s-1.5-4.5-3.88-4.5z"/><path id="j" d="M567.972 1045.98c-.28 0-.58-.2-.58-.56v-.64c-.84.98-2.06 1.54-3.42 1.54-2.48 0-4.56-2.08-4.56-4.56v-5.842c0-.36.3-.56.58-.56.26 0 .56.2.56.56v5.842c0 1.9 1.52 3.42 3.42 3.42s3.42-1.52 3.42-3.42v-5.842c0-.36.3-.56.58-.56.26 0 .56.2.56.56v9.502a.56.56 0 0 1-.561.561z"/><path id="k" d="M575.93 1036.336a3.42 3.42 0 0 0-3.421 3.42v5.662c0 .36-.3.56-.56.56-.28 0-.58-.2-.58-.56v-9.502c0-.36.3-.56.58-.56.26 0 .56.2.56.56v.82c.9-.98 2.08-1.54 3.42-1.54.36 0 .58.3.58.56a.58.58 0 0 1-.58.58z"/><path id="l" d="M586.11 1044.797c-.88.98-2.1 1.52-3.58 1.52-3.22 0-5.02-2.64-5.02-5.662 0-3 1.8-5.64 5.02-5.64 1.48 0 2.7.54 3.58 1.52.12.12.16.262.16.38 0 .3-.28.6-.58.6-.14 0-.28-.06-.42-.2-.66-.74-1.58-1.16-2.74-1.16-2.36 0-3.88 1.9-3.88 4.5s1.52 4.52 3.88 4.52c1.16 0 2.08-.44 2.74-1.16.14-.14.28-.2.42-.2.3 0 .58.26.58.58 0 .14-.04.26-.16.398z"/><path id="m" d="M625.95 1046.098c-1.08 0-1.98-1-1.98-2.12v-11.684c0-.36.3-.56.58-.56.26 0 .56.2.56.56v11.684c0 1.28 1.42.54 1.42 1.44 0 .34-.24.68-.58.68z"/><path id="n" d="M645.33 1046.318c-1.74 0-3.04-.72-3.88-1.9v1c0 .36-.3.56-.56.56-.28 0-.58-.2-.58-.56v-13.123c0-.36.3-.56.58-.56.26 0 .56.2.56.56v4.602c.84-1.16 2.14-1.88 3.88-1.88 3.22 0 5.02 2.64 5.02 5.64 0 3.02-1.8 5.662-5.02 5.662zm0-10.162c-2.38 0-3.88 1.9-3.88 4.5s1.5 4.52 3.88 4.52 3.88-1.92 3.88-4.52-1.5-4.5-3.88-4.5z"/><path id="o" d="M663.17 1045.98h-.02c-.66 0-1.6-.36-1.98-1.56-.84 1.18-2.14 1.9-3.88 1.9-3.26 0-5.02-2.682-5.02-5.662 0-3.02 1.8-5.64 5.02-5.64 1.74 0 3.04.72 3.88 1.88v-.98c0-.32.26-.56.58-.56.28 0 .56.2.56.56v8.063c0 1.28 1.44.48 1.44 1.44a.55.55 0 0 1-.58.561zm-5.88-9.822c-2.36 0-3.88 1.9-3.88 4.5s1.52 4.52 3.88 4.52c2.38 0 3.88-1.92 3.88-4.52s-1.5-4.5-3.88-4.5z"/><path id="p" d="M727.55 1041.236h-8.302c.18 2.28 1.66 3.94 3.84 3.94 1.08 0 2.36-.48 2.94-1.38.14-.22.3-.28.48-.28.3 0 .62.24.62.54 0 .18 0 .22-.38.658-.92 1.082-2.26 1.602-3.66 1.602-3.22 0-5.02-2.64-5.02-5.662 0-3 1.8-5.64 5.02-5.64s5.02 2.66 5.02 5.64c0 .3-.28.58-.56.58zm-4.46-5.08c-2.4 0-3.66 1.84-3.84 3.94h7.7c-.18-2.28-1.66-3.94-3.86-3.94z"/><path id="q" d="M739.048 1045.98c-.28 0-.58-.2-.58-.56v-5.842c0-1.9-1.52-3.42-3.42-3.42a3.42 3.42 0 0 0-3.421 3.42v5.842c0 .36-.3.56-.56.56-.28 0-.58-.2-.58-.56v-9.502c0-.36.3-.56.58-.56.26 0 .56.2.56.56v.64c.9-.98 2.08-1.54 3.42-1.54a4.6 4.6 0 0 1 4.561 4.561v5.842c0 .36-.3.56-.56.56z"/><path id="r" d="M783.767 1033.436c-.64 0-1.14-.5-1.14-1.14s.5-1.14 1.14-1.14 1.14.5 1.14 1.14-.5 1.14-1.14 1.14zm0 12.543c-.28 0-.58-.18-.58-.56v-9.502c0-.36.28-.56.58-.56.26 0 .56.18.56.56v9.502c0 .36-.26.56-.56.56z"/><path id="s" d="M84.88 44.282a4.3 4.3 0 1 1 0-8.64 4.3 4.3 0 1 1 0 8.64zm0 36.72c-1.32 0-2.64-.9-2.64-2.52v-26.76c0-1.68 1.32-2.58 2.64-2.58 1.26 0 2.52.9 2.52 2.58v26.76c0 1.68-1.26 2.52-2.52 2.52z"/><path id="t" d="M99.4 81.12c-3.24 0-6-2.76-6-6.12V40.862c0-1.74 1.26-2.58 2.58-2.58s2.58.84 2.58 2.52V75c0 .72.54 1.02.84 1.02 1.68 0 2.58 1.2 2.58 2.58 0 1.32-.9 2.52-2.58 2.52z"/><path id="u" d="M141.637 82.02c-9.66 0-15.06-7.92-15.06-16.98 0-9 5.4-16.92 15.06-16.92s15.06 7.92 15.06 16.92c0 9.06-5.4 16.98-15.06 16.98zm0-28.8c-6 0-9.9 4.68-9.9 11.82 0 7.2 3.9 11.88 9.9 11.88 6.06 0 9.9-4.68 9.9-11.88 0-7.14-3.84-11.82-9.9-11.82z"/><path id="v" d="M186.216 81c-1.32 0-2.52-.9-2.52-2.52V61.8c0-4.68-3.9-8.58-8.58-8.58-4.62 0-8.52 3.9-8.52 8.58v16.62c0 1.68-1.26 2.64-2.64 2.64-1.26 0-2.52-.9-2.52-2.58v-26.82c0-1.74 1.26-2.52 2.52-2.52 1.2 0 2.28.66 2.58 1.98 2.34-1.86 5.28-3 8.58-3 7.44 0 13.68 6.18 13.68 13.68v16.62c0 1.68-1.2 2.58-2.58 2.58z"/><path id="w" d="M204.396 82.02c-3.3 0-8.82-1.02-11.64-4.5-.36-.54-.54-1.08-.54-1.56 0-1.5 1.44-2.7 2.7-2.7.72 0 1.26.36 1.86 1.02 1.86 2.04 4.92 2.64 7.62 2.64 5.4 0 7.14-1.86 7.14-4.56 0-7.68-18.3-2.94-18.3-15.3 0-6.54 6.12-8.94 11.82-8.94 3.24 0 10.86 1.62 10.86 4.98 0 1.32-1.08 2.7-2.52 2.7-.54 0-1.38-.3-1.98-.78-1.62-1.38-3.96-1.8-6.36-1.8-4.98 0-6.72 1.86-6.72 3.84 0 7.14 18.36 2.52 18.36 15.3 0 7.08-5.94 9.66-12.3 9.66z"/><path id="x" d="M386.31 67.68h-22.2c.84 5.64 4.44 9.24 9.72 9.24 2.7 0 5.4-.96 7.14-3.12.54-.6 1.14-.96 1.86-.96 1.32 0 2.7 1.2 2.7 2.64 0 .72-.18 1.26-1.44 2.52-2.7 2.64-6.42 4.02-10.26 4.02-9.66 0-15.06-7.98-15.06-16.98 0-8.94 5.4-16.92 15.06-16.92 9.78 0 15 7.98 15 16.92 0 1.32-.96 2.64-2.52 2.64zm-12.48-14.46c-5.64 0-8.94 4.14-9.72 9.3h19.44c-.84-5.76-4.44-9.3-9.72-9.3z"/><path id="y" d="M497.128 81c-3.3 0-4.8-2.34-5.34-3.42-2.4 2.64-5.88 4.44-10.56 4.44-9.78 0-15.06-8.04-15.06-16.98s5.4-16.92 15.06-16.92c4.2 0 7.56 1.5 9.9 3.96v-.24c0-.66.24-2.7 2.52-2.7 1.26 0 2.64.66 2.64 2.52v23.16c0 .78.54 1.08.84 1.08 1.68 0 2.58 1.2 2.58 2.58 0 1.26-.9 2.52-2.58 2.52zm-15.9-27.78c-6 0-9.9 4.68-9.9 11.82 0 7.2 3.9 11.88 9.9 11.88 6.06 0 9.9-4.68 9.9-11.88 0-7.14-3.84-11.82-9.9-11.82z"/><path id="z" d="M527.368 52.682l-10.92 26.28c-.54 1.38-1.44 2.04-2.58 2.04-1.02 0-1.98-.66-2.58-2.04l-10.92-26.28c-.12-.42-.18-.72-.18-1.08 0-1.44 1.32-2.46 2.64-2.46.9 0 1.8.48 2.28 1.56l8.76 21 8.76-21c.42-1.14 1.5-1.62 2.34-1.62 1.38 0 2.64.96 2.64 2.46 0 .3-.06.72-.24 1.14z"/><path id="AA" d="M557.128 67.68h-22.2c.84 5.64 4.44 9.24 9.72 9.24 2.7 0 5.4-.96 7.14-3.12.54-.6 1.14-.96 1.86-.96 1.32 0 2.7 1.2 2.7 2.64 0 .72-.18 1.26-1.44 2.52-2.7 2.64-6.42 4.02-10.26 4.02-9.66 0-15.06-7.98-15.06-16.98 0-8.94 5.4-16.92 15.06-16.92 9.78 0 15 7.98 15 16.92 0 1.32-.96 2.64-2.52 2.64zm-12.48-14.46c-5.64 0-8.94 4.14-9.72 9.3h19.438c-.84-5.76-4.44-9.3-9.72-9.3z"/><path id="AB" d="M782.725 81c-3.3 0-4.8-2.34-5.34-3.42-2.4 2.64-5.88 4.44-10.56 4.44-9.78 0-15.06-8.04-15.06-16.98s5.4-16.92 15.06-16.92c4.2 0 7.56 1.5 9.9 3.96v-.24c0-.66.24-2.7 2.52-2.7 1.26 0 2.64.66 2.64 2.52v23.16c0 .78.54 1.08.84 1.08 1.68 0 2.58 1.2 2.58 2.58 0 1.26-.9 2.52-2.58 2.52zm-15.898-27.78c-6 0-9.9 4.68-9.9 11.82 0 7.2 3.9 11.88 9.9 11.88 6.06 0 9.9-4.68 9.9-11.88 0-7.14-3.84-11.82-9.9-11.82z"/><path id="AC" d="M202.048 134.66c-2.64 2.94-6.3 4.56-10.74 4.56-9.66 0-15.06-7.92-15.06-16.98 0-9 5.4-16.92 15.06-16.92 4.44 0 8.1 1.62 10.74 4.56.48.54.72 1.14.72 1.74 0 1.32-1.32 2.58-2.7 2.58-.54 0-1.2-.24-1.86-.84-1.68-1.86-3.9-2.94-6.9-2.94-6 0-9.9 4.68-9.9 11.82 0 7.2 3.9 11.88 9.9 11.88 3 0 5.28-1.14 6.9-2.94.54-.66 1.26-.9 1.86-.9 1.38 0 2.7 1.2 2.7 2.64 0 .54-.24 1.2-.72 1.74z"/><path id="AD" d="M272.485 138.2c-1.32 0-2.52-.9-2.52-2.52V119c0-4.68-3.9-8.58-8.58-8.58-4.62 0-8.52 3.9-8.52 8.58v16.62c0 1.68-1.26 2.64-2.64 2.64-1.26 0-2.52-.9-2.52-2.58v-26.82c0-1.74 1.26-2.52 2.52-2.52 1.2 0 2.28.66 2.58 1.98 2.34-1.86 5.28-3 8.58-3 7.44 0 13.68 6.18 13.68 13.68v16.62c0 1.68-1.2 2.58-2.58 2.58z"/><path id="AE" d="M418.822 138.2h-1.02c-5.7 0-7.86-3-7.86-7.92v-18.84h-1.8c-1.44 0-2.58-1.14-2.58-2.52 0-1.44 1.14-2.58 2.52-2.58h1.8v-8.34c0-1.68 1.26-2.52 2.58-2.52s2.52.84 2.52 2.52v8.34h3.84c1.68 0 2.52 1.38 2.52 2.52 0 1.44-.96 2.58-2.52 2.58h-3.84v19.38c0 1.68.6 2.28 2.28 2.28h1.5c1.56 0 2.58 1.14 2.58 2.52 0 1.44-.96 2.58-2.52 2.58z"/><path id="AF" d="M63.94 182.428c-2.052 0-3.762-1.9-3.762-4.027v-22.188c0-.684.57-1.063 1.103-1.063.494 0 1.063.38 1.063 1.063V178.4c0 2.432 2.697 1.026 2.697 2.736 0 .645-.455 1.29-1.102 1.29z"/><path id="AG" d="M76.405 182.846c-6.117 0-9.536-5.015-9.536-10.752 0-5.7 3.42-10.715 9.536-10.715s9.537 5.016 9.537 10.715c0 5.737-3.42 10.752-9.537 10.752zm0-19.3c-4.483 0-7.37 3.61-7.37 8.55s2.888 8.587 7.37 8.587c4.52 0 7.37-3.647 7.37-8.587s-2.85-8.55-7.37-8.55z"/><path id="AH" d="M99.242 182.846c-3.306 0-5.775-1.367-7.37-3.61v1.9c0 .684-.57 1.063-1.063 1.063-.532 0-1.103-.38-1.103-1.063v-24.925c0-.684.57-1.063 1.103-1.063.494 0 1.063.38 1.063 1.063v8.74c1.596-2.204 4.065-3.572 7.37-3.572 6.117 0 9.536 5.016 9.536 10.715 0 5.737-3.42 10.752-9.536 10.752zm0-19.3c-4.52 0-7.37 3.61-7.37 8.55s2.85 8.587 7.37 8.587 7.37-3.647 7.37-8.587-2.85-8.55-7.37-8.55z"/><path id="AI" d="M132.377 182.2h-.038c-1.254 0-3.04-.684-3.762-2.964-1.596 2.242-4.065 3.61-7.37 3.61-6.193 0-9.536-5.09-9.536-10.752 0-5.737 3.42-10.715 9.536-10.715 3.306 0 5.775 1.368 7.37 3.572v-1.862c0-.607.494-1.063 1.102-1.063.532 0 1.064.38 1.064 1.063V178.4c0 2.432 2.735.912 2.735 2.736a1.04 1.04 0 0 1-1.102 1.063zm-11.17-18.655c-4.483 0-7.37 3.61-7.37 8.55s2.888 8.587 7.37 8.587c4.52 0 7.37-3.647 7.37-8.587s-2.85-8.55-7.37-8.55z"/><path id="AJ" d="M192.264 173.196h-15.768c.342 4.332 3.153 7.485 7.295 7.485 2.052 0 4.483-.912 5.585-2.622.267-.418.57-.53.912-.53.57 0 1.178.455 1.178 1.025 0 .342 0 .418-.722 1.254-1.748 2.052-4.293 3.04-6.953 3.04-6.117 0-9.536-5.015-9.536-10.752 0-5.7 3.42-10.715 9.536-10.715s9.537 5.054 9.537 10.715c0 .57-.532 1.102-1.064 1.102zm-8.473-9.65c-4.56 0-6.953 3.495-7.295 7.485h14.628c-.342-4.332-3.153-7.485-7.333-7.485z"/><path id="AK" d="M227.68 182.2h-1.178c-3 0-4.483-1.48-4.483-4.445V164.19h-1.937c-.684 0-1.063-.57-1.063-1.102 0-.494.38-1.063 1.063-1.063h1.938v-5.813c0-.684.57-1.063 1.103-1.063s1.063.38 1.063 1.063v5.813h3.495c.685 0 1.064.57 1.064 1.063 0 .532-.38 1.102-1.064 1.102h-3.495v13.564c0 1.86.532 2.28 2.317 2.28h1.178c.685 0 1.064.57 1.064 1.103 0 .493-.38 1.063-1.064 1.063z"/><path id="AL" d="M259.41 182.922c-2.28 0-6.117-.798-7.447-3-.15-.23-.15-.418-.15-.57 0-.607.53-1.14 1.102-1.14.228 0 .607.19.836.532 1.367 1.67 3.8 2.014 5.66 2.014 3.686 0 5.547-1.216 5.547-3.686 0-5.737-12.462-2.698-12.462-10.297 0-3.837 3.837-5.32 7.295-5.32 1.976 0 5.016.685 6.535 2.204.228.228.342.494.342.722 0 .57-.57 1.14-1.178 1.14-.23 0-.494-.076-.722-.304-1.18-1.14-3.306-1.596-4.978-1.596-3.344 0-5.13 1.292-5.13 3.153 0 5.32 12.462 2.508 12.462 10.297 0 4.33-3.8 5.85-7.713 5.85z"/><path id="AM" d="M298.512 163.887c-3.57 0-6.497 2.888-6.497 6.497v10.753c0 .684-.57 1.063-1.063 1.063-.532 0-1.103-.38-1.103-1.063V163.09c0-.684.57-1.063 1.103-1.063.494 0 1.063.38 1.063 1.063v1.558c1.7-1.86 3.95-2.925 6.497-2.925.684 0 1.102.57 1.102 1.063 0 .532-.418 1.102-1.102 1.102z"/><path id="AN" d="M611.354 182.922c-2.28 0-6.117-.798-7.447-3-.15-.23-.15-.418-.15-.57 0-.607.53-1.14 1.102-1.14.228 0 .607.19.836.532 1.367 1.67 3.8 2.014 5.66 2.014 3.686 0 5.547-1.216 5.547-3.686 0-5.737-12.462-2.698-12.462-10.297 0-3.837 3.837-5.32 7.295-5.32 1.976 0 5.015.685 6.535 2.204.228.228.342.494.342.722 0 .57-.57 1.14-1.178 1.14-.23 0-.494-.076-.722-.304-1.178-1.14-3.306-1.596-4.978-1.596-3.344 0-5.13 1.292-5.13 3.153 0 5.32 12.462 2.508 12.462 10.297 0 4.33-3.8 5.85-7.713 5.85z"/></defs></svg>