<svg xmlns="http://www.w3.org/2000/svg" xmlns:xlink="http://www.w3.org/1999/xlink" viewBox="0 0 1080 1080" xmlns:v="https://vecta.io/nano"><style><![CDATA[.S{stroke:#fff}.T{fill:#fff}.U{stroke-width:2}.V{opacity:.7}.W{stroke-miterlimit:10}]]></style><defs><linearGradient id="A" x1="11.716" y1="11.716" x2="1068.284" y2="1068.284" gradientUnits="userSpaceOnUse"><stop offset="0" stop-color="#f44336"/><stop offset=".22" stop-color="#f44b34"/><stop offset=".558" stop-color="#f6602e"/><stop offset=".971" stop-color="#f88325"/><stop offset="1" stop-color="#f88624"/></linearGradient><linearGradient id="B" x1="174.542" y1="658.676" x2="905.458" y2="658.676" gradientUnits="userSpaceOnUse"><stop offset="0" stop-color="#fff"/><stop offset=".085" stop-color="#fffff6"/><stop offset=".225" stop-color="#ffd"/><stop offset=".402" stop-color="#ffffb4"/><stop offset=".611" stop-color="#ffff7c"/><stop offset=".842" stop-color="#ffff35"/><stop offset="1" stop-color="#ff0"/></linearGradient><path id="C" d="M104.714 1045.51a1.36 1.36 0 0 1-1.4-1.101 7.763 7.763 0 0 1-4.804 1.668 7.666 7.666 0 0 1-7.604-7.605v-9.24a1.434 1.434 0 0 1 2.868-.033v9.272a4.753 4.753 0 1 0 9.507 0v-9.24a1.33 1.33 0 0 1 1.4-1.468 1.364 1.364 0 0 1 1.435 1.435v14.9a1.328 1.328 0 0 1-1.401 1.4z"/><path id="D" d="M574.327 1046.358c-1.2 0-3.22-.42-3.92-1.58a.482.482 0 0 1-.08-.3.546.546 0 0 1 1.021-.32 3.812 3.812 0 0 0 2.98 1.061c1.94 0 2.92-.64 2.92-1.94 0-3.02-6.562-1.42-6.562-5.422 0-2.02 2.02-2.8 3.84-2.8a5.415 5.415 0 0 1 3.44 1.16.558.558 0 0 1 .18.38.648.648 0 0 1-.62.6.531.531 0 0 1-.38-.16 4.001 4.001 0 0 0-2.62-.84c-1.76 0-2.7.68-2.7 1.66 0 2.8 6.562 1.32 6.562 5.422 0 2.28-2 3.08-4.06 3.08z"/><path id="E" d="M585.047 1046.318c-3.22 0-5.02-2.64-5.02-5.66 0-3 1.8-5.64 5.02-5.64s5.02 2.64 5.02 5.64c0 3.02-1.8 5.66-5.02 5.66zm0-10.162c-2.36 0-3.88 1.9-3.88 4.5s1.52 4.52 3.88 4.52c2.38 0 3.88-1.92 3.88-4.52s-1.5-4.5-3.88-4.5z"/><path id="F" d="M600.828 1045.98a.562.562 0 0 1-.58-.561v-.64a4.442 4.442 0 0 1-3.421 1.54 4.61 4.61 0 0 1-4.561-4.561v-5.842a.57.57 0 0 1 1.14 0v5.842a3.421 3.421 0 1 0 6.842 0v-5.842a.57.57 0 0 1 1.141 0v9.502a.558.558 0 0 1-.561.561z"/><path id="G" d="M608.787 1036.337a3.418 3.418 0 0 0-3.421 3.42v5.66a.57.57 0 0 1-1.141 0v-9.502a.57.57 0 0 1 1.141 0v.82a4.565 4.565 0 0 1 3.421-1.54.57.57 0 1 1 0 1.141z"/><path id="H" d="M618.967 1044.798a4.645 4.645 0 0 1-3.58 1.521c-3.22 0-5.02-2.64-5.02-5.66 0-3 1.8-5.64 5.02-5.64a4.647 4.647 0 0 1 3.58 1.52.531.531 0 0 1 .16.381.627.627 0 0 1-.58.6.587.587 0 0 1-.42-.2 3.526 3.526 0 0 0-2.74-1.16c-2.36 0-3.88 1.9-3.88 4.5s1.52 4.52 3.88 4.52a3.596 3.596 0 0 0 2.74-1.16.587.587 0 0 1 .42-.2.594.594 0 0 1 .58.58.571.571 0 0 1-.16.399z"/><path id="I" d="M630.547 1041.237h-8.302c.18 2.28 1.66 3.94 3.84 3.94a3.615 3.615 0 0 0 2.94-1.381.525.525 0 0 1 .479-.28.611.611 0 0 1 .62.541c0 .18 0 .22-.38.66a4.72 4.72 0 0 1-3.66 1.601c-3.22 0-5.02-2.64-5.02-5.66 0-3 1.8-5.64 5.02-5.64s5.02 2.66 5.02 5.64a.606.606 0 0 1-.56.58zm-4.46-5.08c-2.4 0-3.66 1.84-3.84 3.94h7.7c-.18-2.28-1.66-3.94-3.86-3.94z"/><path id="J" d="M689.605 1046.1a2.096 2.096 0 0 1-1.98-2.12v-11.683a.57.57 0 0 1 1.141 0v11.683c0 1.28 1.42.54 1.42 1.44a.645.645 0 0 1-.58.681z"/><path id="K" d="M744.606 1045.98h-.02a2.072 2.072 0 0 1-1.98-1.561 4.536 4.536 0 0 1-3.88 1.9c-3.26 0-5.02-2.68-5.02-5.66 0-3.02 1.8-5.64 5.02-5.64a4.571 4.571 0 0 1 3.88 1.88v-.98a.564.564 0 0 1 .581-.56.546.546 0 0 1 .56.56v8.063c0 1.28 1.44.48 1.44 1.44a.55.55 0 0 1-.58.561zm-5.88-9.822c-2.36 0-3.88 1.9-3.88 4.5s1.52 4.52 3.88 4.52c2.38 0 3.88-1.92 3.88-4.52s-1.5-4.5-3.88-4.5z"/><path id="L" d="M755.043 1045.98h-.62a2.075 2.075 0 0 1-2.36-2.341v-7.142h-1.02a.57.57 0 0 1 0-1.14h1.02v-3.06a.562.562 0 0 1 .58-.561.546.546 0 0 1 .56.561v3.06h1.84a.57.57 0 0 1 0 1.14h-1.84v7.142c0 .98.28 1.2 1.22 1.2h.62a.57.57 0 0 1 0 1.141z"/><path id="M" d="M828.324 1045.98a.563.563 0 0 1-.58-.561v-5.84a3.42 3.42 0 1 0-6.841 0v5.84a.57.57 0 0 1-1.141 0v-9.502a.57.57 0 0 1 1.141 0v.64a4.563 4.563 0 0 1 7.981 3.021v5.84a.558.558 0 0 1-.561.561z"/><path id="N" d="M832.122 1033.436a1.14 1.14 0 1 1 1.141-1.14 1.127 1.127 0 0 1-1.141 1.14zm0 12.543a.55.55 0 0 1-.58-.561v-9.502a.551.551 0 0 1 .58-.56.545.545 0 0 1 .561.56v9.502a.536.536 0 0 1-.561.561z"/><path id="O" d="M47.12 185.074c.36 2.592 1.8 3.023 2.808 3.023 2.304 0 3.744-3.168 3.815-10.402a5.647 5.647 0 0 1-3.995 1.979c-2.916 0-5.58-2.088-5.58-7.99 0-5.04 2.16-8.135 5.58-8.135 4.5 0 6.66 2.592 6.66 11.95 0 10.438-2.448 14.76-6.552 14.76-3.347 0-4.607-2.017-5.11-5.04zm6.695-12.238c0-5.256-1.368-7.128-3.672-7.128-2.016 0-3.383 1.513-3.383 6.012 0 4.644 1.583 5.795 3.24 5.795a4.932 4.932 0 0 0 3.815-2.231z"/><path id="P" d="M94.1 189.897v-2.16c2.304-7.702 9.503-12.022 9.503-17.926 0-2.735-1.368-4.104-3.132-4.104-2.052 0-3.563 1.584-3.78 5.472h-2.376c.288-5.903 2.952-7.63 6.084-7.63 3.42 0 5.795 2.304 5.795 6.623 0 6.48-5.83 8.495-9.72 17.565h9.862v2.16z"/><path id="Q" d="M114.437 190.258c-4.248 0-6.264-3.96-6.264-13.354s2.016-13.354 6.264-13.354 6.263 3.96 6.263 13.354-2.016 13.354-6.263 13.354zm0-24.55c-2.376 0-3.672 2.664-3.672 11.195s1.296 11.194 3.672 11.194 3.67-2.664 3.67-11.194-1.295-11.195-3.67-11.195z"/><path id="R" d="M123.293 189.897v-2.16h3.168V166.86l-3.24.288v-1.584a9.965 9.965 0 0 0 4.104-2.016h1.73v24.188h3.023v2.16z"/><path id="S" d="M439.92 235.906a3.502 3.502 0 0 1-3.204-2.052 8.248 8.248 0 0 1-6.335 2.664c-5.867 0-9.035-4.823-9.035-10.187s3.24-10.15 9.035-10.15a7.953 7.953 0 0 1 5.939 2.376v-.144a1.485 1.485 0 0 1 1.512-1.62 1.447 1.447 0 0 1 1.584 1.512V232.2a.582.582 0 0 0 .504.648 1.53 1.53 0 1 1 0 3.06zm-9.54-16.666c-3.6 0-5.94 2.808-5.94 7.09 0 4.32 2.34 7.127 5.94 7.127 3.636 0 5.94-2.808 5.94-7.127 0-4.284-2.304-7.09-5.94-7.09z"/><path id="T" d="M457.884 233.783a8.361 8.361 0 0 1-6.443 2.735c-5.795 0-9.035-4.75-9.035-10.187 0-5.4 3.24-10.15 9.035-10.15a8.362 8.362 0 0 1 6.443 2.736 1.568 1.568 0 0 1 .432 1.044 1.677 1.677 0 0 1-1.62 1.548 1.703 1.703 0 0 1-1.116-.504 5.288 5.288 0 0 0-4.14-1.764c-3.6 0-5.94 2.808-5.94 7.09 0 4.32 2.34 7.127 5.94 7.127a5.354 5.354 0 0 0 4.14-1.764 1.437 1.437 0 0 1 1.116-.54 1.554 1.554 0 0 1 1.188 2.628z"/><path id="U" d="M479.52 213.877a2.592 2.592 0 1 1 2.592-2.592 2.581 2.581 0 0 1-2.592 2.592zm0 22.03a1.512 1.512 0 0 1-1.584-1.512V218.34a1.52 1.52 0 0 1 1.584-1.548 1.483 1.483 0 0 1 1.512 1.548v16.054a1.452 1.452 0 0 1-1.512 1.512z"/><path id="V" d="M91.65 711.744h-3.192a1.572 1.572 0 0 1-1.596-1.596 1.595 1.595 0 0 1 1.596-1.596v-13.58a1.582 1.582 0 1 1 0-3.164h3.192a1.582 1.582 0 1 1 0 3.164v13.58a1.596 1.596 0 1 1 0 3.191z"/><path id="W" d="M953.592 711.757h-7.728a1.615 1.615 0 0 1-1.597-1.597v-16.77a1.596 1.596 0 0 1 3.192 0v15.176h6.132a1.596 1.596 0 0 1 0 3.192z"/><path id="X" d="M917.26 446.257h-.374c-2.09 0-2.883-1.1-2.883-2.904v-6.91h-.66a.935.935 0 1 1-.021-1.87h.66v-3.06a.893.893 0 0 1 .946-.924.876.876 0 0 1 .924.924v3.06h1.408a.912.912 0 0 1 .924.924.895.895 0 0 1-.924.946h-1.408v7.107c0 .616.22.836.836.836h.55a.908.908 0 0 1 .946.924.895.895 0 0 1-.924.946z"/><path id="Y" d="M930.13 446.257a2.141 2.141 0 0 1-1.959-1.254 5.041 5.041 0 0 1-3.872 1.628c-3.587 0-5.523-2.948-5.523-6.227s1.98-6.205 5.523-6.205a4.859 4.859 0 0 1 3.63 1.452v-.088a.909.909 0 0 1 .925-.99.884.884 0 0 1 .968.924v8.494a.356.356 0 0 0 .309.396.935.935 0 1 1 0 1.87zm-5.83-10.187c-2.2 0-3.63 1.716-3.63 4.334 0 2.64 1.43 4.357 3.63 4.357 2.222 0 3.63-1.716 3.63-4.357 0-2.618-1.408-4.334-3.63-4.334z"/><path id="Z" d="M950.79 470.257a2.142 2.142 0 0 1-1.958-1.254 5.044 5.044 0 0 1-3.873 1.628c-3.586 0-5.522-2.948-5.522-6.227s1.98-6.205 5.522-6.205a4.863 4.863 0 0 1 3.631 1.452v-.088a.908.908 0 0 1 .924-.99.885.885 0 0 1 .969.924V468a.356.356 0 0 0 .308.396.935.935 0 1 1 0 1.87zm-5.83-10.187c-2.2 0-3.63 1.716-3.63 4.335 0 2.64 1.43 4.356 3.63 4.356 2.223 0 3.63-1.717 3.63-4.356 0-2.62-1.408-4.335-3.63-4.335z"/><path id="a" d="M961.854 468.96a5.112 5.112 0 0 1-3.938 1.672c-3.543 0-5.523-2.904-5.523-6.227 0-3.3 1.98-6.205 5.523-6.205a5.112 5.112 0 0 1 3.938 1.672.96.96 0 0 1 .264.639 1.025 1.025 0 0 1-.99.946 1.045 1.045 0 0 1-.682-.309 3.235 3.235 0 0 0-2.53-1.078c-2.2 0-3.63 1.716-3.63 4.335 0 2.64 1.43 4.356 3.63 4.356a3.273 3.273 0 0 0 2.53-1.078.878.878 0 0 1 .682-.33.95.95 0 0 1 .727 1.606z"/><path id="b" d="M972.568 468.96a5.112 5.112 0 0 1-3.938 1.672c-3.543 0-5.523-2.904-5.523-6.227 0-3.3 1.98-6.205 5.523-6.205a5.112 5.112 0 0 1 3.938 1.672.96.96 0 0 1 .264.639 1.025 1.025 0 0 1-.99.946 1.045 1.045 0 0 1-.682-.309 3.235 3.235 0 0 0-2.53-1.078c-2.2 0-3.63 1.716-3.63 4.335 0 2.64 1.43 4.356 3.63 4.356a3.274 3.274 0 0 0 2.53-1.078.878.878 0 0 1 .682-.33.95.95 0 0 1 .727 1.606z"/><path id="c" d="M975.338 456.79a1.584 1.584 0 1 1 1.584-1.584 1.578 1.578 0 0 1-1.584 1.584zm0 13.466a.924.924 0 0 1-.968-.924v-9.813a.929.929 0 0 1 .968-.946.906.906 0 0 1 .924.946v9.813a.887.887 0 0 1-.924.924z"/><path id="d" d="M987.68 470.257a.888.888 0 0 1-.924-.924v-6.117a3.136 3.136 0 1 0-6.271 0v6.095a.936.936 0 0 1-.968.969.906.906 0 0 1-.924-.946v-9.836a.875.875 0 0 1 .924-.924.92.92 0 0 1 .946.726 5.026 5.026 0 0 1 8.163 3.917v6.095a.9.9 0 0 1-.946.946z"/><path id="e" d="M1018.656 470.63c-3.543 0-5.523-2.904-5.523-6.227 0-3.3 1.98-6.205 5.523-6.205s5.522 2.904 5.522 6.205c0 3.322-1.98 6.227-5.522 6.227zm0-10.562c-2.2 0-3.63 1.716-3.63 4.335 0 2.64 1.43 4.356 3.63 4.356 2.222 0 3.63-1.717 3.63-4.356 0-2.62-1.408-4.335-3.63-4.335z"/><path id="f" d="M1035.002 470.257a.889.889 0 0 1-.925-.924v-6.117a3.135 3.135 0 1 0-6.271 0v6.095a.936.936 0 0 1-.969.969.906.906 0 0 1-.924-.946v-9.836a.875.875 0 0 1 .924-.924.92.92 0 0 1 .946.726 5.026 5.026 0 0 1 8.163 3.917v6.095a.899.899 0 0 1-.945.946z"/><path id="g" d="M981.256 494.63a5.791 5.791 0 0 1-4.269-1.65.974.974 0 0 1 .792-1.562.906.906 0 0 1 .683.374 3.755 3.755 0 0 0 2.794.969c1.98 0 2.62-.683 2.62-1.672 0-2.816-6.71-1.08-6.71-5.61 0-2.398 2.244-3.278 4.334-3.278 1.188 0 3.982.594 3.982 1.826a.987.987 0 0 1-.924.99 1.329 1.329 0 0 1-.727-.286 3.568 3.568 0 0 0-2.332-.66c-1.826 0-2.464.682-2.464 1.408 0 2.618 6.732.924 6.732 5.61 0 2.596-2.178 3.542-4.51 3.542z"/><path id="h" d="M176.657 42.382h-9.96v35.1a2.424 2.424 0 0 1-2.52 2.52 2.505 2.505 0 0 1-2.58-2.52v-35.1h-9.84a2.534 2.534 0 0 1-2.64-2.58 2.506 2.506 0 0 1 2.58-2.52h24.96a2.55 2.55 0 1 1 0 5.1z"/><path id="i" d="M238.336 66.68h-22.2c.84 5.64 4.44 9.24 9.72 9.24a9.005 9.005 0 0 0 7.14-3.12 2.483 2.483 0 0 1 1.86-.96 2.8 2.8 0 0 1 2.7 2.64c0 .72-.18 1.26-1.44 2.52a14.622 14.622 0 0 1-10.26 4.02c-9.66 0-15.06-7.98-15.06-16.98 0-8.94 5.4-16.92 15.06-16.92 9.78 0 15 7.98 15 16.92a2.558 2.558 0 0 1-2.52 2.64zm-12.48-14.46c-5.64 0-8.94 4.14-9.72 9.3h19.44c-.84-5.76-4.44-9.3-9.72-9.3z"/><path id="j" d="M333.315 81.02c-9.66 0-15.06-7.92-15.06-16.98 0-9 5.4-16.92 15.06-16.92s15.06 7.92 15.06 16.92c0 9.06-5.4 16.98-15.06 16.98zm0-28.8c-6 0-9.9 4.68-9.9 11.82 0 7.2 3.9 11.88 9.9 11.88 6.06 0 9.9-4.68 9.9-11.88 0-7.14-3.84-11.82-9.9-11.82z"/><path id="k" d="M437.94 80a5.839 5.839 0 0 1-5.34-3.42 13.747 13.747 0 0 1-10.56 4.44c-9.78 0-15.06-8.04-15.06-16.98s5.4-16.92 15.06-16.92a13.258 13.258 0 0 1 9.899 3.96v-.24a2.476 2.476 0 0 1 2.52-2.7 2.412 2.412 0 0 1 2.64 2.52v23.16a.971.971 0 0 0 .84 1.08 2.55 2.55 0 1 1 0 5.1zm-15.9-27.78c-6 0-9.9 4.68-9.9 11.82 0 7.2 3.9 11.88 9.9 11.88 6.06 0 9.9-4.68 9.9-11.88 0-7.14-3.84-11.82-9.9-11.82z"/><path id="l" d="M538.97 76.46a13.936 13.936 0 0 1-10.74 4.56c-9.66 0-15.06-7.92-15.06-16.98 0-9 5.4-16.92 15.06-16.92a13.936 13.936 0 0 1 10.74 4.56 2.615 2.615 0 0 1 .72 1.74 2.794 2.794 0 0 1-2.7 2.58 2.84 2.84 0 0 1-1.86-.84 8.814 8.814 0 0 0-6.9-2.94c-6 0-9.9 4.68-9.9 11.82 0 7.2 3.9 11.88 9.9 11.88a8.923 8.923 0 0 0 6.9-2.939 2.396 2.396 0 0 1 1.86-.9 2.59 2.59 0 0 1 1.98 4.38z"/><path id="m" d="M638.926 66.68h-22.2c.84 5.64 4.44 9.24 9.72 9.24a9.004 9.004 0 0 0 7.14-3.12 2.484 2.484 0 0 1 1.86-.96 2.8 2.8 0 0 1 2.7 2.64c0 .72-.18 1.26-1.44 2.52a14.622 14.622 0 0 1-10.26 4.02c-9.66 0-15.06-7.98-15.06-16.98 0-8.94 5.4-16.92 15.06-16.92 9.78 0 15 7.98 15 16.92a2.558 2.558 0 0 1-2.521 2.64zm-12.48-14.46c-5.64 0-8.94 4.14-9.72 9.3h19.44c-.84-5.76-4.44-9.3-9.72-9.3z"/></defs><rect width="1080" height="1080" rx="40" fill="url(#A)"/><g opacity=".4" class="T"><path d="M42.328 1046.045a7.892 7.892 0 0 1-5.503-2.002 1.364 1.364 0 0 1-1.468 1.401 1.346 1.346 0 0 1-1.401-1.401v-20.88a1.435 1.435 0 0 1 2.869-.033v6.238a7.4 7.4 0 0 1 5.503-2.169c5.37 0 8.373 4.403 8.373 9.406 0 5.037-3.002 9.44-8.373 9.44zm0-16c-3.335 0-5.503 2.602-5.503 6.57 0 4.003 2.168 6.604 5.503 6.604s5.504-2.602 5.504-6.604c0-3.97-2.168-6.57-5.504-6.57zm25.555 8.037h-12.34c.467 3.136 2.468 5.137 5.403 5.137a5.003 5.003 0 0 0 3.969-1.734 1.383 1.383 0 0 1 1.034-.533 1.556 1.556 0 0 1 1.501 1.468c0 .4-.1.7-.8 1.4a8.129 8.129 0 0 1-5.704 2.235c-5.37 0-8.372-4.437-8.372-9.44 0-4.97 3.002-9.406 8.372-9.406 5.437 0 8.34 4.437 8.34 9.406a1.422 1.422 0 0 1-1.401 1.468zm-6.937-8.038c-3.136 0-4.97 2.3-5.403 5.17H66.35c-.467-3.202-2.468-5.17-5.403-5.17zM88 1045.478a3.247 3.247 0 0 1-2.969-1.901 7.642 7.642 0 0 1-5.87 2.469c-5.437 0-8.372-4.47-8.372-9.44s3.002-9.406 8.372-9.406a7.369 7.369 0 0 1 5.504 2.202v-.134a1.376 1.376 0 0 1 1.4-1.501 1.341 1.341 0 0 1 1.468 1.401v12.875a.54.54 0 0 0 .467.601 1.418 1.418 0 1 1 0 2.835zm-8.84-15.443c-3.336 0-5.504 2.602-5.504 6.57 0 4.003 2.168 6.604 5.504 6.604 3.37 0 5.504-2.602 5.504-6.604 0-3.97-2.135-6.57-5.504-6.57z"/><use xlink:href="#C"/><path d="M115.158 1045.478h-.567c-3.17 0-4.37-1.668-4.37-4.403V1030.6h-1a1.418 1.418 0 1 1-.033-2.835h1v-4.637a1.355 1.355 0 0 1 1.435-1.4 1.328 1.328 0 0 1 1.401 1.4v4.637h2.135a1.383 1.383 0 0 1 1.4 1.401 1.356 1.356 0 0 1-1.4 1.434h-2.135v10.774c0 .934.333 1.268 1.268 1.268h.833a1.376 1.376 0 0 1 1.435 1.4 1.357 1.357 0 0 1-1.4 1.435zm4.604-20.415a2.401 2.401 0 1 1 2.402-2.401 2.392 2.392 0 0 1-2.402 2.401zm0 20.414a1.4 1.4 0 0 1-1.467-1.401V1029.2a1.408 1.408 0 0 1 1.467-1.435 1.374 1.374 0 0 1 1.401 1.435v14.876a1.346 1.346 0 0 1-1.401 1.401zm10.376-14.877h-1.5v13.442a1.364 1.364 0 0 1-1.468 1.401 1.346 1.346 0 0 1-1.401-1.401V1030.6h-1.37a1.418 1.418 0 0 1 0-2.835h1.367v-2.27a3.801 3.801 0 0 1 3.836-3.769 1.418 1.418 0 1 1 0 2.835.934.934 0 0 0-.967.9v2.302h1.5a1.418 1.418 0 1 1 0 2.835z"/><use xlink:href="#C" x="42.068"/><path d="M154.725 1045.544a3.403 3.403 0 0 1-3.336-3.402v-18.98a1.435 1.435 0 0 1 2.869-.033v19.013a.527.527 0 0 0 .467.567 1.418 1.418 0 1 1 0 2.835zm15.37-.066v-1.264c1.886-.237 2.046-.437 2.046-3.157v-6.7c0-2.8-1.248-4.017-3.064-4.017a5.597 5.597 0 0 0-3.47 1.493v9.476c0 2.527.187 2.658 2.06 2.896v1.264h-8.968v-1.264c2.254-.33 2.5-.4 2.5-3v-8.2c0-2.446-.303-2.565-2.185-2.922v-1.184a34.101 34.101 0 0 0 6.653-1.533l-.052 2.95 2.6-1.745a5.659 5.659 0 0 1 3.159-1.086c3.194 0 5.2 2.338 5.2 6.3v7.5c0 2.54.237 2.657 2.277 2.92v1.264zm23.9-3.703c-2.458 3.427-5.488 4.178-7.014 4.178-5.142 0-8.124-3.936-8.124-8.594a10.333 10.333 0 0 1 2.832-7.062 8.602 8.602 0 0 1 6.082-2.814 6.386 6.386 0 0 1 6.37 6.347c-.014.715-.08 1.277-.612 1.4-.767.184-6.17.5-10.318.647.062 4.587 2.717 6.74 5.556 6.74a6.776 6.776 0 0 0 4.543-1.866zm-7.07-12.7c-1.667 0-3.167 1.807-3.516 4.963l5.486-.118c.6-.026.848-.146.848-.792.04-2.022-1.037-4.053-2.818-4.053zm34.284.145c-1.943.343-2.248.624-3.105 2.765-1.33 3.462-3.102 8.53-4.934 13.94h-1.512l-4.65-11.46-4.55 11.46h-1.472l-4.685-14.192c-.687-1.985-.94-2.274-2.855-2.512v-1.25h9.397v1.25c-2.325.345-2.535.672-2.058 2.133l2.52 8.214c1.507-3.68 2.988-7.62 4.327-11.424h1.456c1.4 3.76 2.986 7.702 4.573 11.568.742-2.107 2.062-5.964 2.557-8.108.412-1.674-.008-2.078-2.753-2.383v-1.25h7.742zm9.4 3.746c-.92-2.606-2.155-3.984-4.2-3.984a2.166 2.166 0 0 0-2.225 2.266c0 1.497 1.046 2.264 3.16 3.216 3.278 1.496 5.3 2.787 5.3 5.736 0 3.85-3.6 5.764-6.945 5.764a12.073 12.073 0 0 1-4.92-1.161l-.662-4.892 1.252-.224c.8 2.5 2.33 4.75 4.976 4.75a2.231 2.231 0 0 0 2.438-2.281c0-1.423-.76-2.333-3.092-3.467-2.67-1.295-5.107-2.64-5.107-5.775 0-3.046 2.533-5.42 6.565-5.42a18.751 18.751 0 0 1 4.112.567l.62 4.577z"/></g><g opacity=".8" class="T"><use xlink:href="#D"/><use xlink:href="#E"/><use xlink:href="#F"/><use xlink:href="#G"/><use xlink:href="#H"/><use xlink:href="#I"/><use xlink:href="#D" x="62.499"/><path d="M644.025 1039.417a1.14 1.14 0 1 1 0-2.28 1.14 1.14 0 0 1 0 2.28zm0 6.562a1.14 1.14 0 1 1 0-2.28 1.14 1.14 0 0 1 0 2.28zm23.083-13.523l-3.52 13.103a.553.553 0 0 1-.56.42.533.533 0 0 1-.541-.42l-3-11.083-2.98 11.083a.533.533 0 0 1-.54.42.554.554 0 0 1-.561-.42l-3.52-13.103a.545.545 0 0 1-.02-.181.581.581 0 0 1 .58-.58.499.499 0 0 1 .521.44l3 11.082 2.98-11.082a.529.529 0 0 1 .54-.4.537.537 0 0 1 .56.4l2.98 11.082 3-11.082a.526.526 0 0 1 .521-.44.581.581 0 0 1 .58.58.544.544 0 0 1-.021.181z"/><use xlink:href="#E" x="88.579"/><use xlink:href="#G" x="76.798"/><use xlink:href="#J"/><path d="M701.027 1045.98a.563.563 0 0 1-.581-.561v-1a4.536 4.536 0 0 1-3.88 1.9c-3.22 0-5.02-2.64-5.02-5.66 0-3 1.8-5.64 5.02-5.64a4.571 4.571 0 0 1 3.88 1.88v-4.6a.57.57 0 0 1 1.141 0v13.122a.558.558 0 0 1-.56.561zm-4.46-9.822c-2.36 0-3.88 1.9-3.88 4.5s1.52 4.52 3.88 4.52c2.38 0 3.88-1.92 3.88-4.52s-1.5-4.5-3.88-4.5zm22.22 9.822a.545.545 0 0 1-.56-.561v-6.5h-7.762v6.5a.536.536 0 0 1-.561.561.55.55 0 0 1-.58-.561v-13.122a.55.55 0 0 1 .58-.561.536.536 0 0 1 .561.561v5.48h7.762v-5.48a.535.535 0 0 1 .56-.561.55.55 0 0 1 .58.561v13.122a.551.551 0 0 1-.58.561z"/><use xlink:href="#I" x="100.679"/><use xlink:href="#K"/><use xlink:href="#J" x="59.379"/><use xlink:href="#L"/><path d="M765.984 1045.98a.563.563 0 0 1-.58-.561v-5.84a3.421 3.421 0 1 0-6.841 0v5.84a.57.57 0 0 1-1.141 0v-13.122a.57.57 0 0 1 1.141 0v4.26a4.442 4.442 0 0 1 3.421-1.54 4.597 4.597 0 0 1 4.561 4.561v5.84a.558.558 0 0 1-.561.561zm13.6.338c-4.3 0-5.82-3.56-5.82-7.46 0-3.92 1.52-7.482 5.82-7.482 4.28 0 5.82 3.562 5.82 7.482 0 3.9-1.54 7.46-5.82 7.46zm0-13.803c-3.32 0-4.682 2.6-4.682 6.342 0 3.72 1.36 6.32 4.682 6.32 3.3 0 4.68-2.6 4.68-6.32 0-3.74-1.38-6.342-4.68-6.342z"/><use xlink:href="#G" x="183.676"/><path d="M799.064 1050.54c-1.7 0-4.102-.64-4.102-1.36a.636.636 0 0 1 .58-.641 7.13 7.13 0 0 1 1.061.48 7.508 7.508 0 0 0 2.461.38c2.56 0 3.88-1.26 3.88-3.72v-1.4a4.776 4.776 0 0 1-3.88 1.7c-3.16 0-5.02-2.24-5.02-5.32 0-3 1.8-5.64 5.02-5.64a4.571 4.571 0 0 1 3.88 1.88v-.96a.57.57 0 0 1 1.141 0v9.742c0 3.18-1.9 4.86-5.02 4.86zm0-14.383c-2.36 0-3.88 1.9-3.88 4.5 0 2.58 1.42 4.18 3.88 4.18s3.88-1.6 3.88-4.18c0-2.6-1.5-4.5-3.88-4.5z"/><use xlink:href="#K" x="72.759"/><use xlink:href="#M"/><use xlink:href="#N"/><path d="M843.043 1045.98h-7.86a.542.542 0 0 1-.561-.54.723.723 0 0 1 .12-.4l7.102-8.542h-6.66a.57.57 0 0 1 0-1.14h7.86a.56.56 0 0 1 .58.54.549.549 0 0 1-.14.4l-7.082 8.54h6.642a.57.57 0 1 1 0 1.141z"/><use xlink:href="#K" x="111.398"/><use xlink:href="#L" x="107.02"/><use xlink:href="#N" x="32.9"/><use xlink:href="#E" x="287.936"/><use xlink:href="#M" x="60.619"/><path d="M892.96 1047.76a.513.513 0 0 1-.3.08.56.56 0 0 1-.54-.58c0-.56.86-.64 1-1.28a1.152 1.152 0 0 1 .08-2.301c.98 0 1.2 1 1.2 1.62a2.854 2.854 0 0 1-1.44 2.46zm18.283-15.284l-4.44 13.123a.562.562 0 0 1-.521.38.582.582 0 0 1-.56-.38l-4.44-13.123a.869.869 0 0 1-.04-.22.569.569 0 0 1 .58-.521.52.52 0 0 1 .521.38l3.9 11.522 3.92-11.522a.579.579 0 0 1 1.12.141.828.828 0 0 1-.04.22z"/><use xlink:href="#K" x="178.114"/><use xlink:href="#H" x="314.293"/><use xlink:href="#H" x="324.991"/><use xlink:href="#N" x="114.975"/><use xlink:href="#M" x="130.736"/><use xlink:href="#I" x="340.753"/><path d="M982.097 1046.26a3.599 3.599 0 0 1-3.621-3.581.58.58 0 0 1 1.16 0 2.433 2.433 0 0 0 2.421 2.44 2.459 2.459 0 0 0 2.48-2.44v-10.382a.546.546 0 0 1 .561-.561.563.563 0 0 1 .58.561v10.382a3.603 3.603 0 0 1-3.581 3.581z"/><use xlink:href="#E" x="408.031"/><use xlink:href="#F" x="408.03"/><use xlink:href="#G" x="408.031"/><use xlink:href="#M" x="199.093"/><use xlink:href="#K" x="296.474"/><use xlink:href="#J" x="355.851"/></g><g opacity=".6" fill="none" class="S U"><g class="W"><path d="M556.643 681.91q-.06.497-.123.992"/><path d="M555.672 688.85c-14.465 91.15-93.41 160.827-188.63 160.827-105.486 0-191-85.514-191-191s85.514-191 191-191c96.08 0 175.59 70.943 189.007 163.305" stroke-dasharray="2.00186 6.00559"/><path d="M556.457 633.957q.064.496.126.992"/></g><circle cx="446.542" cy="658.676" r="270.5" stroke-dasharray="2.00433 6.01298"/><circle cx="507.042" cy="658.676" r="331" stroke-dasharray="1.99982 5.99947"/></g><g fill="none"><g stroke-width="3"><circle cx="540" cy="658.676" r="363.958" stroke="url(#B)"/><circle cx="247.621" cy="658.676" r="71.578" class="S"/></g><g class="U"><circle cx="40.65" cy="266.848" r="5.625" class="S"/><circle cx="60.65" cy="266.848" r="5.625" class="S"/><circle cx="80.65" cy="266.848" r="5.625" class="S"/><circle cx="100.65" cy="266.848" r="5.625" class="S"/><circle cx="120.65" cy="266.848" r="5.625" class="S"/><circle cx="140.65" cy="266.848" r="5.625" class="S"/><circle cx="160.65" cy="266.848" r="5.625" class="S"/><circle cx="180.65" cy="266.848" r="5.625" class="S"/><circle cx="200.65" cy="266.848" r="5.625" class="S"/><circle cx="220.65" cy="266.848" r="5.625" class="S"/><circle cx="240.65" cy="266.848" r="5.625" class="S"/><circle cx="260.65" cy="266.848" r="5.625" class="S"/><circle cx="280.65" cy="266.848" r="5.625" class="S"/><g stroke="#f9c80e"><circle cx="1039.378" cy="266.844" r="5.625"/><circle cx="1019.378" cy="266.844" r="5.625"/><circle cx="999.378" cy="266.844" r="5.625"/><circle cx="979.378" cy="266.844" r="5.625"/><circle cx="959.378" cy="266.844" r="5.625"/><circle cx="939.378" cy="266.844" r="5.625"/><circle cx="919.378" cy="266.844" r="5.625"/><circle cx="899.378" cy="266.844" r="5.625"/><circle cx="879.378" cy="266.844" r="5.625"/><circle cx="859.378" cy="266.844" r="5.625"/><circle cx="839.378" cy="266.844" r="5.625"/><circle cx="819.378" cy="266.844" r="5.625"/><circle cx="799.378" cy="266.844" r="5.625"/><circle cx="779.378" cy="266.844" r="5.625"/><circle cx="759.378" cy="266.844" r="5.625"/><circle cx="1039.378" cy="286.844" r="5.625"/><circle cx="1019.378" cy="286.844" r="5.625"/><circle cx="999.378" cy="286.844" r="5.625"/><circle cx="979.378" cy="286.844" r="5.625"/><circle cx="959.378" cy="286.844" r="5.625"/><circle cx="939.378" cy="286.844" r="5.625"/><circle cx="919.378" cy="286.844" r="5.625"/><circle cx="899.378" cy="286.844" r="5.625"/><circle cx="879.378" cy="286.844" r="5.625"/><circle cx="859.378" cy="286.844" r="5.625"/><circle cx="839.378" cy="286.844" r="5.625"/><circle cx="819.378" cy="286.844" r="5.625"/><circle cx="799.378" cy="286.844" r="5.625"/><circle cx="779.378" cy="286.844" r="5.625"/><circle cx="759.378" cy="286.844" r="5.625"/><circle cx="1039.378" cy="306.844" r="5.625"/><circle cx="1019.378" cy="306.844" r="5.625"/><circle cx="999.378" cy="306.844" r="5.625"/><circle cx="979.378" cy="306.844" r="5.625"/><circle cx="959.378" cy="306.844" r="5.625"/><circle cx="939.378" cy="306.844" r="5.625"/><circle cx="919.378" cy="306.844" r="5.625"/><circle cx="899.378" cy="306.844" r="5.625"/><circle cx="879.378" cy="306.844" r="5.625"/><circle cx="859.378" cy="306.844" r="5.625"/><circle cx="839.378" cy="306.844" r="5.625"/><circle cx="819.378" cy="306.844" r="5.625"/><circle cx="799.378" cy="306.844" r="5.625"/><circle cx="779.378" cy="306.844" r="5.625"/><circle cx="759.378" cy="306.844" r="5.625"/><circle cx="1039.378" cy="326.844" r="5.625"/><circle cx="1019.378" cy="326.844" r="5.625"/><circle cx="999.378" cy="326.844" r="5.625"/><circle cx="979.378" cy="326.844" r="5.625"/><circle cx="959.378" cy="326.844" r="5.625"/><circle cx="939.378" cy="326.844" r="5.625"/><circle cx="919.378" cy="326.844" r="5.625"/><circle cx="899.378" cy="326.844" r="5.625"/><circle cx="879.378" cy="326.844" r="5.625"/><circle cx="859.378" cy="326.844" r="5.625"/><circle cx="839.378" cy="326.844" r="5.625"/><circle cx="819.378" cy="326.844" r="5.625"/><circle cx="799.378" cy="326.844" r="5.625"/><circle cx="779.378" cy="326.844" r="5.625"/><circle cx="1039.378" cy="346.844" r="5.625"/><circle cx="1019.378" cy="346.844" r="5.625"/><circle cx="999.378" cy="346.844" r="5.625"/><circle cx="979.378" cy="346.844" r="5.625"/><circle cx="959.378" cy="346.844" r="5.625"/><circle cx="939.378" cy="346.844" r="5.625"/><circle cx="919.378" cy="346.844" r="5.625"/><circle cx="899.378" cy="346.844" r="5.625"/><circle cx="879.378" cy="346.844" r="5.625"/><circle cx="859.378" cy="346.844" r="5.625"/><circle cx="839.378" cy="346.844" r="5.625"/><circle cx="819.378" cy="346.844" r="5.625"/><circle cx="799.378" cy="346.844" r="5.625"/><circle cx="1039.378" cy="366.844" r="5.625"/><circle cx="1019.378" cy="366.844" r="5.625"/><circle cx="999.378" cy="366.844" r="5.625"/><circle cx="979.378" cy="366.844" r="5.625"/><circle cx="959.378" cy="366.844" r="5.625"/><circle cx="939.378" cy="366.844" r="5.625"/><circle cx="919.378" cy="366.844" r="5.625"/><circle cx="899.378" cy="366.844" r="5.625"/><circle cx="879.378" cy="366.844" r="5.625"/><circle cx="859.378" cy="366.844" r="5.625"/><circle cx="839.378" cy="366.844" r="5.625"/><circle cx="819.378" cy="366.844" r="5.625"/><circle cx="1039.378" cy="386.844" r="5.625"/><circle cx="1019.378" cy="386.844" r="5.625"/><circle cx="999.378" cy="386.844" r="5.625"/><circle cx="979.378" cy="386.844" r="5.625"/><circle cx="959.378" cy="386.844" r="5.625"/><circle cx="939.378" cy="386.844" r="5.625"/><circle cx="919.378" cy="386.844" r="5.625"/><circle cx="899.378" cy="386.844" r="5.625"/><circle cx="879.378" cy="386.844" r="5.625"/><circle cx="859.378" cy="386.844" r="5.625"/><circle cx="839.378" cy="386.844" r="5.625"/><circle cx="1039.378" cy="406.844" r="5.625"/><circle cx="1019.378" cy="406.844" r="5.625"/><circle cx="999.378" cy="406.844" r="5.625"/><circle cx="979.378" cy="406.844" r="5.625"/><circle cx="959.378" cy="406.844" r="5.625"/><circle cx="939.378" cy="406.844" r="5.625"/><circle cx="919.378" cy="406.844" r="5.625"/><circle cx="899.378" cy="406.844" r="5.625"/><circle cx="879.378" cy="406.844" r="5.625"/></g></g><g stroke-width="3" class="W"><path d="M176.042 658.676H140.58" class="S"/><path d="M939.42 658.676h-35.464" stroke="#ff0"/></g></g><g class="T V"><path d="M34.017 189.897v-2.16h3.168V166.86l-3.24.288v-1.584a9.965 9.965 0 0 0 4.104-2.016h1.728v24.188H42.8v2.16z"/><use xlink:href="#O"/><use xlink:href="#O" x="13.823"/><path d="M72.103 163.9h11.662v1.367l-7.56 24.62H73.47l7.56-23.83h-8.927zM84.1 181.727v-2.376h8.854v2.376z"/><use xlink:href="#P"/><use xlink:href="#Q"/><use xlink:href="#R"/><use xlink:href="#P" x="40.21"/></g><g fill="#ff0" class="V"><use xlink:href="#P" x="833.112"/><use xlink:href="#Q" x="832.863"/><use xlink:href="#R" x="832.575"/><path d="M966.956 169.092c.287-3.06 1.943-5.543 5.3-5.543 2.915 0 5.795 2.016 5.795 6.335 0 3.672-1.512 5.76-3.384 6.12v.072c2.916.972 3.816 3.708 3.816 6.48 0 5.327-3.096 7.703-6.336 7.703-3.455 0-5.795-2.772-5.83-6.552h2.376c.216 2.808 1.44 4.392 3.743 4.392 1.728 0 3.456-1.872 3.456-5.436 0-4.283-1.8-5.507-5.903-5.507v-2.16c3.888 0 5.47-.936 5.47-4.967 0-3.096-1.224-4.32-3.023-4.32-2.23 0-3.023 1.872-3.096 3.672zm14.47 12.635v-2.376h8.854v2.376zm10.548 8.17v-2.16c2.304-7.702 9.503-12.022 9.503-17.926 0-2.735-1.368-4.104-3.132-4.104-2.052 0-3.563 1.584-3.78 5.472H992.2c.288-5.903 2.952-7.63 6.084-7.63 3.42 0 5.795 2.304 5.795 6.623 0 6.48-5.83 8.495-9.72 17.565h9.862v2.16z"/><use xlink:href="#Q" x="897.623"/><use xlink:href="#R" x="898.415"/><path d="M1039.708 190.258c-4.03 0-6.407-3.168-6.407-6.91 0-3.204 1.69-5.508 4.175-7.27-2.303-1.836-3.6-3.636-3.6-6.695a5.831 5.831 0 0 1 11.662 0c0 3.06-1.296 4.86-3.6 6.695 2.483 1.764 4.176 4.067 4.176 7.27 0 3.743-2.376 6.91-6.407 6.91zm0-12.814c-2.088 1.548-3.815 3.203-3.815 6.01 0 2.124 1.15 4.644 3.815 4.644s3.815-2.52 3.815-4.644c0-2.808-1.728-4.463-3.815-6.01zm0-11.735a3.165 3.165 0 0 0-3.24 3.384 3.791 3.791 0 1 0 6.479 0 3.165 3.165 0 0 0-3.239-3.384z"/></g><path d="M449.598 652.53l-6.55 15.767a1.642 1.642 0 0 1-1.548 1.224 1.744 1.744 0 0 1-1.548-1.224l-6.55-15.767a2.22 2.22 0 0 1-.108-.647 1.553 1.553 0 0 1 1.584-1.477 1.474 1.474 0 0 1 1.368.937l5.255 12.6 5.255-12.6a1.551 1.551 0 0 1 2.988.504 1.793 1.793 0 0 1-.144.684zm19.582 17a3.503 3.503 0 0 1-3.204-2.052 8.248 8.248 0 0 1-6.335 2.663c-5.867 0-9.035-4.823-9.035-10.187s3.24-10.15 9.035-10.15a7.952 7.952 0 0 1 5.939 2.376v-.145a1.486 1.486 0 0 1 1.512-1.62 1.448 1.448 0 0 1 1.584 1.513v13.894a.583.583 0 0 0 .504.648 1.53 1.53 0 1 1 0 3.06zm-9.54-16.666c-3.6 0-5.94 2.808-5.94 7.1 0 4.32 2.34 7.127 5.94 7.127 3.636 0 5.94-2.808 5.94-7.127 0-4.283-2.304-7.1-5.94-7.1zm27.65 14.542a8.361 8.361 0 0 1-6.443 2.735c-5.795 0-9.035-4.75-9.035-10.187 0-5.4 3.24-10.15 9.035-10.15a8.361 8.361 0 0 1 6.443 2.735 1.569 1.569 0 0 1 .432 1.044 1.676 1.676 0 0 1-1.62 1.548 1.702 1.702 0 0 1-1.116-.504 5.287 5.287 0 0 0-4.14-1.764c-3.6 0-5.94 2.808-5.94 7.1 0 4.32 2.34 7.127 5.94 7.127a5.352 5.352 0 0 0 4.14-1.764 1.439 1.439 0 0 1 1.116-.54 1.554 1.554 0 0 1 1.188 2.628zm17.53 0a8.361 8.361 0 0 1-6.443 2.735c-5.795 0-9.035-4.75-9.035-10.187 0-5.4 3.24-10.15 9.035-10.15a8.361 8.361 0 0 1 6.443 2.735 1.568 1.568 0 0 1 .432 1.044 1.676 1.676 0 0 1-1.62 1.548 1.702 1.702 0 0 1-1.116-.504 5.287 5.287 0 0 0-4.14-1.764c-3.6 0-5.94 2.808-5.94 7.1 0 4.32 2.34 7.127 5.94 7.127a5.352 5.352 0 0 0 4.14-1.764 1.439 1.439 0 0 1 1.116-.54 1.554 1.554 0 0 1 1.188 2.628zm5.185-19.896a2.592 2.592 0 1 1 2.592-2.592 2.581 2.581 0 0 1-2.592 2.592zm0 22.03a1.512 1.512 0 0 1-1.583-1.512v-16.055a1.52 1.52 0 0 1 1.583-1.548 1.483 1.483 0 0 1 1.512 1.548v16.055a1.452 1.452 0 0 1-1.512 1.512zm20.915-.01a1.454 1.454 0 0 1-1.512-1.512V658a5.13 5.13 0 1 0-10.259 0v9.97a1.53 1.53 0 0 1-1.583 1.584 1.483 1.483 0 0 1-1.512-1.548v-16.1a1.433 1.433 0 0 1 1.512-1.513 1.505 1.505 0 0 1 1.547 1.188 8.221 8.221 0 0 1 13.354 6.407v9.97a1.472 1.472 0 0 1-1.548 1.548zm20.6-7.992h-13.318c.504 3.384 2.664 5.543 5.83 5.543a5.402 5.402 0 0 0 4.284-1.871 1.488 1.488 0 0 1 1.116-.576 1.68 1.68 0 0 1 1.62 1.584c0 .432-.108.756-.864 1.512a8.771 8.771 0 0 1-6.155 2.411c-5.795 0-9.035-4.787-9.035-10.187 0-5.363 3.24-10.15 9.035-10.15 5.867 0 9 4.787 9 10.15a1.535 1.535 0 0 1-1.512 1.584zm-7.487-8.675c-3.383 0-5.363 2.483-5.83 5.58h11.663c-.504-3.455-2.664-5.58-5.832-5.58zm34.523 16.63a1.462 1.462 0 0 1-1.548-1.512 8.712 8.712 0 0 1-5.939 2.159c-5.795 0-9.035-4.75-9.035-10.187 0-5.4 3.24-10.15 9.035-10.15a7.929 7.929 0 0 1 5.939 2.34v-6.695a1.548 1.548 0 0 1 3.096-.036v22.57a1.462 1.462 0 0 1-1.548 1.512zm-7.487-16.63c-3.6 0-5.94 2.808-5.94 7.1 0 4.32 2.34 7.127 5.94 7.127 3.636 0 5.94-2.808 5.94-7.127 0-4.283-2.304-7.1-5.94-7.1zm20.916 17.277c-5.795 0-9.035-4.75-9.035-10.187 0-5.4 3.24-10.15 9.035-10.15s9.035 4.75 9.035 10.15c0 5.436-3.24 10.187-9.035 10.187zm0-17.277c-3.6 0-5.94 2.808-5.94 7.1 0 4.32 2.34 7.127 5.94 7.127 3.636 0 5.94-2.808 5.94-7.127 0-4.283-2.304-7.1-5.94-7.1zm17.892 17.277c-1.98 0-5.3-.6-6.983-2.7a1.593 1.593 0 0 1 1.296-2.556 1.479 1.479 0 0 1 1.116.611 6.148 6.148 0 0 0 4.571 1.584c3.24 0 4.284-1.115 4.284-2.735 0-4.607-10.98-1.764-10.98-9.18 0-3.924 3.67-5.363 7.1-5.363 1.943 0 6.515.972 6.515 2.987a1.616 1.616 0 0 1-1.512 1.62 2.168 2.168 0 0 1-1.187-.468 5.835 5.835 0 0 0-3.815-1.08c-2.988 0-4.032 1.115-4.032 2.304 0 4.283 11.015 1.512 11.015 9.18 0 4.247-3.564 5.795-7.38 5.795zm25.333-8.602h-13.318c.504 3.384 2.663 5.543 5.83 5.543a5.401 5.401 0 0 0 4.283-1.871 1.489 1.489 0 0 1 1.116-.576 1.679 1.679 0 0 1 1.619 1.584c0 .432-.107.756-.863 1.512a8.772 8.772 0 0 1-6.155 2.411c-5.795 0-9.035-4.787-9.035-10.187 0-5.363 3.24-10.15 9.035-10.15 5.867 0 9 4.787 9 10.15a1.535 1.535 0 0 1-1.512 1.584zm-7.487-8.675c-3.384 0-5.363 2.483-5.83 5.58h11.662c-.504-3.455-2.663-5.58-5.83-5.58zm17.47 17.277c-1.98 0-5.3-.6-6.982-2.7a1.593 1.593 0 0 1 1.296-2.556 1.477 1.477 0 0 1 1.115.611 6.15 6.15 0 0 0 4.571 1.584c3.24 0 4.284-1.115 4.284-2.735 0-4.607-10.98-1.764-10.98-9.18 0-3.924 3.67-5.363 7.1-5.363 1.943 0 6.515.972 6.515 2.987a1.616 1.616 0 0 1-1.512 1.62 2.168 2.168 0 0 1-1.187-.468 5.835 5.835 0 0 0-3.815-1.08c-2.987 0-4.03 1.115-4.03 2.304 0 4.283 11.015 1.512 11.015 9.18 0 4.247-3.563 5.795-7.38 5.795z" class="T V"/><g class="T V"><path d="M421.02 218.917l-6.55 15.766a1.642 1.642 0 0 1-1.548 1.224 1.743 1.743 0 0 1-1.548-1.224l-6.55-15.766a2.223 2.223 0 0 1-.108-.648 1.553 1.553 0 0 1 1.584-1.476 1.474 1.474 0 0 1 1.368.936l5.255 12.6 5.255-12.6a1.551 1.551 0 0 1 2.988.504 1.794 1.794 0 0 1-.144.684z"/><use xlink:href="#S"/><use xlink:href="#T"/><use xlink:href="#T" x="17.099"/><use xlink:href="#U"/><path d="M499.714 235.906a1.454 1.454 0 0 1-1.512-1.512v-10.007a5.129 5.129 0 1 0-10.259 0v9.97a1.53 1.53 0 0 1-1.584 1.584 1.483 1.483 0 0 1-1.512-1.548v-16.1a1.432 1.432 0 0 1 1.512-1.512 1.505 1.505 0 0 1 1.548 1.188 8.221 8.221 0 0 1 13.354 6.407v9.97a1.472 1.472 0 0 1-1.548 1.548z"/><use xlink:href="#S" x="81.358"/><path d="M530.82 235.906h-.612c-3.42 0-4.715-1.8-4.715-4.75v-11.303h-1.08a1.53 1.53 0 0 1-.036-3.06h1.08v-5.003a1.462 1.462 0 0 1 1.548-1.512 1.433 1.433 0 0 1 1.512 1.512v5.003h2.304a1.492 1.492 0 0 1 1.512 1.512 1.464 1.464 0 0 1-1.512 1.547h-2.304v11.627c0 1.008.36 1.368 1.368 1.368h.9a1.485 1.485 0 0 1 1.548 1.512 1.464 1.464 0 0 1-1.512 1.548z"/><use xlink:href="#U" x="56.267"/><path d="M549.322 236.518c-5.795 0-9.035-4.75-9.035-10.187 0-5.4 3.24-10.15 9.035-10.15s9.035 4.75 9.035 10.15c0 5.435-3.24 10.187-9.035 10.187zm0-17.278c-3.6 0-5.94 2.808-5.94 7.1 0 4.32 2.34 7.127 5.94 7.127 3.636 0 5.94-2.808 5.94-7.127 0-4.284-2.304-7.1-5.94-7.1zM575 235.906a1.454 1.454 0 0 1-1.512-1.512v-10.007a5.129 5.129 0 1 0-10.259 0v9.97a1.53 1.53 0 0 1-1.583 1.584 1.483 1.483 0 0 1-1.512-1.548v-16.1a1.432 1.432 0 0 1 1.512-1.512 1.505 1.505 0 0 1 1.548 1.188 8.221 8.221 0 0 1 13.354 6.407v9.97a1.472 1.472 0 0 1-1.548 1.548zm26.53-.036a1.462 1.462 0 0 1-1.548-1.512 8.711 8.711 0 0 1-5.939 2.16c-5.795 0-9.035-4.75-9.035-10.187 0-5.4 3.24-10.15 9.035-10.15a7.931 7.931 0 0 1 5.939 2.34v-6.695a1.548 1.548 0 0 1 3.096-.036v22.57a1.462 1.462 0 0 1-1.548 1.512zm-7.487-16.63c-3.6 0-5.94 2.808-5.94 7.1 0 4.32 2.34 7.127 5.94 7.127 3.636 0 5.94-2.808 5.94-7.127 0-4.284-2.304-7.1-5.94-7.1zm20.917 0a5.186 5.186 0 0 0-5.111 5.147v9.97a1.5 1.5 0 0 1-1.583 1.548 1.474 1.474 0 0 1-1.512-1.512V218.34a1.525 1.525 0 0 1 1.512-1.548 1.477 1.477 0 0 1 1.547 1.224 8.325 8.325 0 0 1 5.147-1.836 1.531 1.531 0 1 1 0 3.06z"/><use xlink:href="#U" x="139.317"/><path d="M638.85 218.917l-6.55 15.766a1.642 1.642 0 0 1-1.548 1.224 1.742 1.742 0 0 1-1.548-1.224l-6.552-15.766a2.238 2.238 0 0 1-.107-.648 1.553 1.553 0 0 1 1.584-1.476 1.474 1.474 0 0 1 1.367.936l5.256 12.6 5.255-12.6a1.551 1.551 0 0 1 2.988.504 1.786 1.786 0 0 1-.145.684zm17.856 8.998h-13.318c.504 3.384 2.664 5.543 5.83 5.543a5.403 5.403 0 0 0 4.284-1.872 1.489 1.489 0 0 1 1.115-.576 1.68 1.68 0 0 1 1.62 1.584c0 .432-.108.756-.864 1.512a8.77 8.77 0 0 1-6.155 2.412c-5.795 0-9.034-4.787-9.034-10.187 0-5.363 3.24-10.15 9.034-10.15 5.867 0 9 4.788 9 10.15a1.535 1.535 0 0 1-1.512 1.583zm-7.487-8.675c-3.383 0-5.363 2.484-5.83 5.58h11.663c-.504-3.456-2.664-5.58-5.832-5.58zm17.46 17.278c-1.98 0-5.3-.612-6.982-2.7a1.593 1.593 0 0 1 1.296-2.556 1.478 1.478 0 0 1 1.115.612 6.152 6.152 0 0 0 4.571 1.584c3.24 0 4.284-1.116 4.284-2.735 0-4.607-10.98-1.764-10.98-9.18 0-3.923 3.67-5.363 7.1-5.363 1.943 0 6.515.972 6.515 2.988a1.616 1.616 0 0 1-1.512 1.62 2.168 2.168 0 0 1-1.187-.468 5.835 5.835 0 0 0-3.815-1.08c-2.987 0-4.03 1.116-4.03 2.304 0 4.284 11.015 1.512 11.015 9.18 0 4.247-3.563 5.795-7.38 5.795z"/></g><g class="T V"><path d="M83.36 711.772a1.526 1.526 0 0 1-1.596-1.596v-10.5l-4.2 7.812a1.75 1.75 0 0 1-1.568 1.12 1.615 1.615 0 0 1-1.54-1.12l-4.2-7.784v10.473a1.596 1.596 0 0 1-3.192 0V693.6a1.618 1.618 0 0 1 1.708-1.848c.504 0 .952.252 1.4 1.063l5.824 10.808 5.852-10.863c.448-.812.896-1.064 1.4-1.064 1.092 0 1.708.645 1.708 1.85v16.632a1.541 1.541 0 0 1-1.596 1.596z"/><use xlink:href="#V"/><path d="M104.474 711.744h-7.728a1.613 1.613 0 0 1-1.596-1.596v-16.77a1.596 1.596 0 0 1 3.192 0v15.176h6.132a1.596 1.596 0 1 1 0 3.191zm12.346 0h-7.728a1.613 1.613 0 0 1-1.596-1.596v-16.77a1.596 1.596 0 0 1 3.192 0v15.176h6.132a1.596 1.596 0 0 1 0 3.191z"/><use xlink:href="#V" x="32.03"/><path d="M134.853 712.22c-6.02 0-8.148-4.984-8.148-10.444 0-5.488 2.128-10.472 8.148-10.472 5.992 0 8.148 4.983 8.148 10.472 0 5.46-2.156 10.444-8.148 10.444zm0-17.725c-3.22 0-4.956 2.27-4.956 7.28 0 4.984 1.736 7.252 4.956 7.252s4.956-2.268 4.956-7.252c0-5.012-1.736-7.28-4.956-7.28zm22.96 17.25a1.548 1.548 0 0 1-1.344-.784l-7.896-12.18v11.368a1.596 1.596 0 0 1-3.192 0v-16.77a1.592 1.592 0 0 1 1.624-1.568 1.437 1.437 0 0 1 1.344.756l7.896 12.18V693.38a1.519 1.519 0 0 1 1.596-1.568 1.534 1.534 0 0 1 1.596 1.568v16.77a1.617 1.617 0 0 1-1.624 1.596z"/></g><g fill="#ff0" class="V"><path d="M932.48 711.784a1.525 1.525 0 0 1-1.596-1.596v-10.5l-4.2 7.813a1.749 1.749 0 0 1-1.567 1.119 1.614 1.614 0 0 1-1.54-1.119l-4.2-7.784v10.472a1.596 1.596 0 0 1-3.192 0v-16.576a1.618 1.618 0 0 1 1.709-1.848c.504 0 .95.252 1.4 1.064l5.824 10.808 5.853-10.864c.447-.812.896-1.063 1.4-1.063 1.092 0 1.708.644 1.708 1.848V710.2a1.54 1.54 0 0 1-1.596 1.596zm8.288-.027h-3.2a1.572 1.572 0 0 1-1.596-1.597 1.596 1.596 0 0 1 1.596-1.596v-13.58a1.582 1.582 0 1 1 0-3.164h3.2a1.582 1.582 0 1 1 0 3.164v13.58a1.596 1.596 0 1 1 0 3.192z"/><use xlink:href="#W"/><use xlink:href="#W" x="12.348"/><path d="M972.8 711.757h-3.192a1.572 1.572 0 0 1-1.596-1.597 1.596 1.596 0 0 1 1.596-1.596v-13.58a1.582 1.582 0 1 1 0-3.164h3.192a1.582 1.582 0 1 1 0 3.164v13.58a1.596 1.596 0 1 1 0 3.192zm11.172.475c-6.02 0-8.147-4.983-8.147-10.443 0-5.488 2.128-10.473 8.147-10.473 5.992 0 8.147 4.984 8.147 10.473 0 5.46-2.155 10.443-8.147 10.443zm0-17.724c-3.22 0-4.956 2.268-4.956 7.28 0 4.983 1.736 7.252 4.956 7.252s4.956-2.27 4.956-7.252c0-5.013-1.736-7.28-4.956-7.28zm22.96 17.25a1.546 1.546 0 0 1-1.344-.784l-7.896-12.18v11.367a1.596 1.596 0 1 1-3.191 0V693.4a1.592 1.592 0 0 1 1.623-1.568 1.436 1.436 0 0 1 1.345.757l7.896 12.18V693.4a1.596 1.596 0 0 1 3.192 0v16.77a1.617 1.617 0 0 1-1.624 1.597z"/></g><path d="M75.584 639.076l.72-.54h4.14a.531.531 0 0 1 .6.6v37.02q-.18.6.48.6h7.62q.66-.18.54.487v2.924q.06.67-.54.55h-20.7c-.44.04-.64-.143-.6-.55v-2.924q-.12-.666.6-.487h7.86q.598 0 .54-.6v-31.26q0-.66-.54-.12a25.664 25.664 0 0 1-8.04 4.681q-.42.24-.54-.24v-3a.581.581 0 0 1 .42-.54 14.977 14.977 0 0 0 7.44-6.6h0zm24.18 38.94a3.489 3.489 0 0 1-3.54 3.66q-3.3-.24-3.54-3.66.3-3.36 3.54-3.54a3.349 3.349 0 0 1 3.54 3.54h0zm18.3-11.4q-.12.658.54.54h3.54q.6-.06.54.53v2.838q.06.6-.54.6h-3.54q-.6-.06-.54.54v8.4c.04.48-.14.7-.54.66h-3c-.32.04-.48-.18-.48-.66v-8.4q.06-.6-.54-.54h-13.62q-.54 0-.54-.6v-3.6l.24-1.02 12.48-26.76a.941.941 0 0 1 .84-.479h4.62q.6-.06.54.6zm-4.5-22.08l-10.2 22.08q-.3.54.36.54h9.78q.6.12.54-.54v-21.96c-.12-.4-.28-.44-.48-.12zm-71.688-439.57l.72-.54h4.14a.531.531 0 0 1 .6.6v37.02q-.18.6.48.6h7.62q.66-.18.54.487v2.924q.06.67-.54.55h-20.7c-.44.04-.64-.143-.6-.55v-2.924q-.12-.667.6-.487h7.86q.598 0 .54-.6v-31.26q0-.66-.54-.12a25.664 25.664 0 0 1-8.04 4.681q-.42.24-.54-.24v-3a.581.581 0 0 1 .42-.54 14.977 14.977 0 0 0 7.44-6.6h0zm28.08 38.64a7.064 7.064 0 0 0 5.34-2.4 8.323 8.323 0 0 0 1.98-5.76 9.011 9.011 0 0 0-2.34-6.66 8.279 8.279 0 0 0-6.12-2.34h-.66c-.44.08-.62-.123-.54-.6v-2.863q-.122-.666.54-.487h.36a8.217 8.217 0 0 0 3.18-.597 7.737 7.737 0 0 0 2.52-1.674 8.754 8.754 0 0 0 1.71-2.6 7.291 7.291 0 0 0 .51-3.376q-.18-6.334-6.06-6.514a5.449 5.449 0 0 0-4.2 1.56 7.492 7.492 0 0 0-2.16 4.62q0 .84-.54.72h-3.18q-.72.062-.54-.6a11.921 11.921 0 0 1 3.36-7.439 9.986 9.986 0 0 1 7.32-3.061 10.129 10.129 0 0 1 7.44 3.061 11.16 11.16 0 0 1 2.25 3.42 11.724 11.724 0 0 1 .27 7.8 9.197 9.197 0 0 1-1.5 2.76 11.271 11.271 0 0 1-4.08 3.42c-.32.2-.3.42.06.66a13.342 13.342 0 0 1 4.5 3.42q2.34 2.64 2.34 7.38a12.659 12.659 0 0 1-.87 4.71 12.49 12.49 0 0 1-2.49 3.931 12.365 12.365 0 0 1-3.78 2.699 11.814 11.814 0 0 1-4.68 1.021 11.302 11.302 0 0 1-7.86-3.061 11.928 11.928 0 0 1-3.54-8.52c-.12-.2.04-.36.48-.48h3.18q.6-.06.66.72.48 6.84 7.14 7.14h0z" class="T"/><path d="M980.297 204.966l.72-.54h4.14a.531.531 0 0 1 .601.6v37.02q-.182.6.48.6h7.62q.66-.18.54.487v2.924q.06.67-.54.55h-20.7c-.44.04-.64-.143-.6-.55v-2.924c-.08-.444.12-.607.6-.487h7.86c.398 0 .58-.2.54-.6v-31.26q0-.66-.54-.12a25.664 25.664 0 0 1-8.04 4.681q-.42.24-.54-.24v-3a.581.581 0 0 1 .42-.54 14.971 14.971 0 0 0 7.439-6.6h0zm27.18-1.44a11.619 11.619 0 0 1 8.46 3.48 11.867 11.867 0 0 1 2.489 3.84 12.903 12.903 0 0 1 .871 4.859v19.8a12.314 12.314 0 0 1-3.36 8.819 10.612 10.612 0 0 1-3.69 2.58 13.083 13.083 0 0 1-9.539 0 11.22 11.22 0 0 1-3.75-2.58 12.297 12.297 0 0 1-3.301-8.819v-19.8a12.012 12.012 0 0 1 3.301-8.699 11.507 11.507 0 0 1 8.519-3.48zm-7.38 12.18v19.8a8.366 8.366 0 0 0 1.979 5.88 6.78 6.78 0 0 0 5.4 2.279 7.011 7.011 0 0 0 5.4-2.279 8.628 8.628 0 0 0 2.039-5.88v-19.8a8.182 8.182 0 0 0-2.039-5.76 7.015 7.015 0 0 0-5.4-2.28 6.784 6.784 0 0 0-5.4 2.28 8.191 8.191 0 0 0-1.979 5.76h0zm41.34 16.8q-.12.658.54.54h3.54q.6-.06.54.53v2.838q.06.6-.54.6h-3.54q-.6-.06-.54.54v8.4c.04.48-.14.7-.54.66h-3c-.32.04-.48-.18-.48-.66v-8.4q.06-.6-.54-.54h-13.62c-.36 0-.54-.197-.54-.6v-3.6l.24-1.02 12.48-26.76a.942.942 0 0 1 .84-.479h4.62c.398-.04.58.16.54.6zm-4.5-22.08l-10.2 22.08q-.302.54.36.54h9.78q.6.12.54-.54v-21.96c-.12-.4-.28-.44-.48-.12zM969.762 677.77a7.066 7.066 0 0 0 5.34-2.4 8.323 8.323 0 0 0 1.979-5.76 9.009 9.009 0 0 0-2.34-6.66 8.277 8.277 0 0 0-6.12-2.34h-.66c-.44.08-.62-.123-.54-.6v-2.863q-.122-.667.54-.487h.36a8.215 8.215 0 0 0 3.18-.597 7.739 7.739 0 0 0 2.52-1.674 8.763 8.763 0 0 0 1.71-2.6 7.291 7.291 0 0 0 .51-3.376q-.18-6.334-6.06-6.514a5.449 5.449 0 0 0-4.2 1.56 7.49 7.49 0 0 0-2.16 4.62q0 .84-.54.72h-3.18q-.72.062-.54-.6a11.916 11.916 0 0 1 3.36-7.439 9.984 9.984 0 0 1 7.319-3.061 10.129 10.129 0 0 1 7.44 3.061 11.159 11.159 0 0 1 2.25 3.42 11.728 11.728 0 0 1 .27 7.8 9.175 9.175 0 0 1-1.5 2.76 11.271 11.271 0 0 1-4.08 3.42c-.32.2-.3.42.06.66a13.351 13.351 0 0 1 4.5 3.42q2.34 2.64 2.34 7.38a12.659 12.659 0 0 1-.87 4.71 12.122 12.122 0 0 1-6.27 6.63 11.817 11.817 0 0 1-4.681 1.021 11.3 11.3 0 0 1-7.859-3.061 11.926 11.926 0 0 1-3.54-8.52q-.18-.3.48-.48h3.18q.6-.06.66.72.48 6.84 7.14 7.14h0zm19.798-27.564v8.605c0 .4.16.48.48.24q1.92-2.52 7.14-3a10.534 10.534 0 0 1 8.22 3.651 13.519 13.519 0 0 1 3.12 9.1 13.868 13.868 0 0 1-3.239 9.158 11.078 11.078 0 0 1-3.66 2.963 10.617 10.617 0 0 1-4.8 1.048 11.046 11.046 0 0 1-4.83-1.02 10.625 10.625 0 0 1-3.69-2.939 13.991 13.991 0 0 1-2.37-4.23 15.609 15.609 0 0 1-.81-5.189v-18.42a13.829 13.829 0 0 1 .81-4.83 12.148 12.148 0 0 1 2.37-3.931 11.029 11.029 0 0 1 8.64-3.72 11.782 11.782 0 0 1 7.561 2.58 10.666 10.666 0 0 1 3.72 6.9q.06.54-.6.54h-3.42q-.6 0-.6-.66a7.706 7.706 0 0 0-2.04-3.66 6.65 6.65 0 0 0-4.68-1.5 6.475 6.475 0 0 0-5.4 2.351 8.967 8.967 0 0 0-1.92 5.965zm0 18.685a9.996 9.996 0 0 0 1.86 6.3 6.843 6.843 0 0 0 10.8 0 10.696 10.696 0 0 0 1.86-6.42 12.103 12.103 0 0 0-.48-3.51 9.763 9.763 0 0 0-1.319-2.79 6.095 6.095 0 0 0-5.341-2.46 6.999 6.999 0 0 0-5.55 2.399 10.12 10.12 0 0 0-1.83 6.48h0z" fill="#ff0"/><g fill="none" class="S U W"><rect x="386.933" y="201.187" width="306.133" height="46.961" rx="10"/><rect x="390.533" y="634.949" width="302.533" height="46.961" rx="10"/></g><g opacity=".8" fill="#ff0"><path d="M906.898 437.412a.502.502 0 0 1-.33-.088l-2.86-1.65v3.3a.627.627 0 1 1-1.254 0v-3.3l-2.86 1.65a.815.815 0 0 1-.33.088.65.65 0 0 1-.616-.638.622.622 0 0 1 .33-.528l2.86-1.65-2.86-1.65a.623.623 0 0 1-.33-.528.67.67 0 0 1 .616-.66.463.463 0 0 1 .33.11l2.86 1.65v-3.323a.627.627 0 0 1 1.254 0v3.323l2.86-1.65a.537.537 0 0 1 .33-.11.658.658 0 0 1 .639.66.623.623 0 0 1-.33.528l-2.86 1.65 2.86 1.65a.622.622 0 0 1 .33.528.639.639 0 0 1-.639.638z"/><use xlink:href="#X"/><use xlink:href="#Y"/><path d="M937.257 436.07a3.17 3.17 0 0 0-3.125 3.146v6.095a.917.917 0 0 1-.968.946.901.901 0 0 1-.924-.924v-9.813a.932.932 0 0 1 .924-.946.903.903 0 0 1 .946.748 5.087 5.087 0 0 1 3.146-1.122.936.936 0 1 1 0 1.87zm6.38 15.203c-1.343 0-4.665-.484-4.665-1.804a1.024 1.024 0 0 1 .946-.99c.506 0 .066.065 1.232.506a6.869 6.869 0 0 0 2.486.418c2.442 0 3.63-1.166 3.63-3.477v-1a5.144 5.144 0 0 1-3.63 1.32c-3.477 0-5.523-2.464-5.523-5.853 0-3.3 1.98-6.205 5.523-6.205a4.738 4.738 0 0 1 3.63 1.408v-.088a.937.937 0 0 1 .946-.946.924.924 0 0 1 .946.946v10.407c0 3.498-2.1 5.347-5.522 5.347zm0-15.204c-2.2 0-3.63 1.716-3.63 4.334 0 2.508 1.32 3.983 3.63 3.983s3.63-1.475 3.63-3.983c0-2.618-1.408-4.334-3.63-4.334zm17.36 5.303h-8.142a3.565 3.565 0 0 0 3.564 3.389 3.3 3.3 0 0 0 2.618-1.145.913.913 0 0 1 .683-.352 1.027 1.027 0 0 1 .99.968c0 .264-.066.462-.528.924a5.362 5.362 0 0 1-3.763 1.474c-3.542 0-5.522-2.926-5.522-6.227 0-3.278 1.98-6.205 5.522-6.205 3.587 0 5.5 2.926 5.5 6.205a.938.938 0 0 1-.924.968zm-4.577-5.303a3.608 3.608 0 0 0-3.564 3.411h7.13c-.308-2.112-1.628-3.4-3.564-3.4z"/><use xlink:href="#X" x="49.872"/><path d="M978.748 441.372h-8.14a3.564 3.564 0 0 0 3.564 3.389 3.3 3.3 0 0 0 2.618-1.145.911.911 0 0 1 .682-.352 1.027 1.027 0 0 1 .99.968c0 .264-.065.462-.527.924a5.362 5.362 0 0 1-3.763 1.474c-3.543 0-5.523-2.926-5.523-6.227 0-3.278 1.98-6.205 5.523-6.205 3.586 0 5.5 2.926 5.5 6.205a.938.938 0 0 1-.925.968zm-4.576-5.303a3.608 3.608 0 0 0-3.564 3.411h7.13c-.3-2.112-1.63-3.4-3.564-3.4zm16.588 10.166a.893.893 0 0 1-.946-.924 5.323 5.323 0 0 1-3.631 1.32c-3.542 0-5.522-2.904-5.522-6.227 0-3.3 1.98-6.205 5.522-6.205a4.849 4.849 0 0 1 3.631 1.43v-4.093a.947.947 0 0 1 1.893-.022V445.3a.894.894 0 0 1-.946.924zm-4.577-10.166c-2.2 0-3.63 1.716-3.63 4.334 0 2.64 1.43 4.357 3.63 4.357 2.223 0 3.63-1.716 3.63-4.357 0-2.618-1.408-4.334-3.63-4.334zm26.27 10.188a.901.901 0 0 1-.924-.924v-6.93a2.322 2.322 0 1 0-4.643-.022v6.93a.9.9 0 0 1-.946.946.889.889 0 0 1-.924-.924v-6.93a2.333 2.333 0 0 0-4.665-.022v6.93a.917.917 0 0 1-.968.946.901.901 0 0 1-.924-.924v-9.835a.965.965 0 0 1 1.76-.528 4.241 4.241 0 0 1 2.442-.77 4.199 4.199 0 0 0 6.535 0 4.203 4.203 0 0 1 4.225 4.181v6.93a.917.917 0 0 1-.969.946z"/><use xlink:href="#Y" x="96.183"/><path d="M1032.097 446.63a5.791 5.791 0 0 1-4.269-1.65.973.973 0 0 1 .792-1.562.903.903 0 0 1 .683.374 3.759 3.759 0 0 0 2.794.968c1.98 0 2.62-.682 2.62-1.672 0-2.816-6.7-1.078-6.7-5.6 0-2.398 2.244-3.278 4.334-3.278 1.188 0 3.982.594 3.982 1.826a.988.988 0 0 1-.924.99 1.329 1.329 0 0 1-.727-.286 3.568 3.568 0 0 0-2.332-.66c-1.826 0-2.464.682-2.464 1.408 0 2.618 6.732.924 6.732 5.6 0 2.596-2.178 3.542-4.5 3.542zm9.57 0a5.791 5.791 0 0 1-4.269-1.65.973.973 0 0 1 .792-1.562.902.902 0 0 1 .682.374 3.762 3.762 0 0 0 2.795.968c1.98 0 2.618-.682 2.618-1.672 0-2.816-6.7-1.078-6.7-5.6 0-2.398 2.244-3.278 4.335-3.278 1.188 0 3.982.594 3.982 1.826a.988.988 0 0 1-.924.99 1.327 1.327 0 0 1-.727-.286 3.568 3.568 0 0 0-2.332-.66c-1.826 0-2.465.682-2.465 1.408 0 2.618 6.733.924 6.733 5.6 0 2.596-2.18 3.542-4.5 3.542zm-103.045 13.24l-4.005 9.638a1.004 1.004 0 0 1-.946.748 1.066 1.066 0 0 1-.946-.748l-4.004-9.638a1.351 1.351 0 0 1-.066-.395.95.95 0 0 1 .969-.902.9.9 0 0 1 .836.572l3.212 7.7 3.213-7.7a.948.948 0 0 1 1.826.308 1.102 1.102 0 0 1-.088.418z"/><use xlink:href="#Z"/><use xlink:href="#a"/><use xlink:href="#b"/><use xlink:href="#c"/><use xlink:href="#d"/><use xlink:href="#Z" x="50.73"/><use xlink:href="#X" x="90.088" y="24"/><use xlink:href="#c" x="35.045"/><use xlink:href="#e"/><use xlink:href="#f"/><path d="M1041.667 470.63a5.791 5.791 0 0 1-4.269-1.65.974.974 0 0 1 .792-1.562.906.906 0 0 1 .682.374 3.759 3.759 0 0 0 2.795.969c1.98 0 2.618-.683 2.618-1.672 0-2.816-6.71-1.08-6.71-5.61 0-2.398 2.244-3.278 4.335-3.278 1.188 0 3.982.594 3.982 1.826a.988.988 0 0 1-.924.99 1.327 1.327 0 0 1-.727-.286 3.568 3.568 0 0 0-2.332-.66c-1.826 0-2.465.682-2.465 1.408 0 2.618 6.733.924 6.733 5.61 0 2.596-2.18 3.542-4.51 3.542z"/><use xlink:href="#c" x="-17.598" y="24"/><use xlink:href="#d" x="-17.6" y="24"/><use xlink:href="#g"/><path d="M992.674 494.63a4.815 4.815 0 0 1-3.63-1.452v4.774a.917.917 0 0 1-.969.946.906.906 0 0 1-.924-.946V483.52a.906.906 0 0 1 .924-.946.917.917 0 0 1 .969.946 5.278 5.278 0 0 1 3.63-1.343c3.543 0 5.523 2.904 5.523 6.205 0 3.345-1.98 6.25-5.523 6.25zm0-10.583c-2.178 0-3.63 1.737-3.63 4.334 0 2.64 1.43 4.38 3.63 4.38s3.63-1.717 3.63-4.356c0-2.62-1.43-4.356-3.63-4.356zm16.854 5.325h-8.142a3.565 3.565 0 0 0 3.564 3.389 3.302 3.302 0 0 0 2.618-1.145.913.913 0 0 1 .683-.352 1.026 1.026 0 0 1 .99.968c0 .265-.066.462-.528.924a5.36 5.36 0 0 1-3.763 1.475c-3.542 0-5.522-2.927-5.522-6.227 0-3.278 1.98-6.205 5.522-6.205 3.587 0 5.5 2.927 5.5 6.205a.938.938 0 0 1-.924.968zm-4.577-5.303a3.608 3.608 0 0 0-3.564 3.41h7.13c-.308-2.112-1.628-3.4-3.564-3.4zm15.95 8.89a5.109 5.109 0 0 1-3.938 1.672c-3.542 0-5.522-2.904-5.522-6.227 0-3.3 1.98-6.205 5.522-6.205a5.109 5.109 0 0 1 3.938 1.672.957.957 0 0 1 .265.639 1.026 1.026 0 0 1-.99.946 1.045 1.045 0 0 1-.683-.309 3.233 3.233 0 0 0-2.53-1.078c-2.2 0-3.63 1.716-3.63 4.335 0 2.64 1.43 4.356 3.63 4.356a3.271 3.271 0 0 0 2.53-1.078.879.879 0 0 1 .683-.33.949.949 0 0 1 .726 1.606z"/><use xlink:href="#c" x="48.332" y="24"/><path d="M1030.514 484.443h-1v8.867a.899.899 0 0 1-.969.924.887.887 0 0 1-.924-.924v-8.867h-.902a.935.935 0 0 1 0-1.87h.902v-1.496a2.507 2.507 0 0 1 2.53-2.486.936.936 0 1 1 0 1.87.616.616 0 0 0-.638.594v1.52h1a.936.936 0 1 1 0 1.87z"/><use xlink:href="#c" x="58.255" y="24"/><use xlink:href="#b" x="73.236" y="24"/><path d="M965.615 518.3a2.244 2.244 0 0 1-2.2-2.244v-12.52a.947.947 0 0 1 1.893-.022v12.542a.347.347 0 0 0 .308.374.935.935 0 1 1 0 1.87zm7.085.33c-3.542 0-5.522-2.904-5.522-6.227 0-3.3 1.98-6.205 5.522-6.205s5.523 2.904 5.523 6.205c0 3.322-1.98 6.227-5.523 6.227zm0-10.562c-2.2 0-3.63 1.716-3.63 4.335 0 2.64 1.43 4.356 3.63 4.356 2.223 0 3.63-1.717 3.63-4.356 0-2.62-1.408-4.335-3.63-4.335z"/><use xlink:href="#a" x="27.06" y="48"/><path d="M1001.52 518.257a2.142 2.142 0 0 1-1.958-1.254 5.044 5.044 0 0 1-3.873 1.628c-3.586 0-5.522-2.948-5.522-6.227s1.98-6.205 5.522-6.205a4.863 4.863 0 0 1 3.631 1.452v-.088a.908.908 0 0 1 .924-.99.885.885 0 0 1 .969.924V516a.356.356 0 0 0 .308.396.935.935 0 1 1 0 1.87zm-5.83-10.187c-2.2 0-3.63 1.716-3.63 4.335 0 2.64 1.43 4.356 3.63 4.356 2.223 0 3.63-1.717 3.63-4.356 0-2.62-1.408-4.335-3.63-4.335z"/><use xlink:href="#X" x="90.088" y="72"/><use xlink:href="#c" x="35.045" y="48"/><use xlink:href="#e" y="48"/><use xlink:href="#f" y="48"/><use xlink:href="#g" x="60.41" y="24"/></g><path d="M710.925 211.412a.636.636 0 0 1-.42-.112l-3.64-2.1v4.2a.798.798 0 1 1-1.596 0v-4.2l-3.64 2.1a1.03 1.03 0 0 1-.42.112.826.826 0 0 1-.783-.812.791.791 0 0 1 .42-.672l3.64-2.1-3.64-2.1a.791.791 0 0 1-.42-.672.852.852 0 0 1 .783-.84.588.588 0 0 1 .42.14l3.64 2.1v-4.228a.798.798 0 0 1 1.596 0v4.228l3.64-2.1a.684.684 0 0 1 .42-.14.837.837 0 0 1 .813.84.791.791 0 0 1-.42.672l-3.64 2.1 3.64 2.1a.791.791 0 0 1 .42.672.812.812 0 0 1-.812.812z" opacity=".5" class="T"/><g fill="none" stroke-dasharray="2 6" class="U W"><path d="M957.237 224.668h-216" stroke="#ff0"/><path d="M337.237 224.668h-238" class="S"/></g><g class="T"><use xlink:href="#h"/><path d="M205.217 80a2.424 2.424 0 0 1-2.52-2.52V60.8a8.55 8.55 0 1 0-17.099 0v16.62a2.55 2.55 0 0 1-2.64 2.64 2.472 2.472 0 0 1-2.52-2.58V39.862a2.58 2.58 0 0 1 5.16-.06v10.38a12.097 12.097 0 0 1 8.52-3.06 13.79 13.79 0 0 1 13.68 13.68v16.62a2.454 2.454 0 0 1-2.58 2.58z"/><use xlink:href="#i"/><path d="M284.655 74.48c-2.94 4.08-7.14 6.54-13.38 6.54-12.9 0-17.46-10.68-17.46-22.38 0-11.76 4.56-22.44 17.46-22.44 6.06 0 10.5 2.4 13.32 6.54a2.31 2.31 0 0 1 .54 1.5 2.6 2.6 0 0 1-2.64 2.52 2.51 2.51 0 0 1-2.04-1.08c-1.86-2.7-4.62-4.32-9.18-4.32-8.52 0-12.3 6.3-12.3 17.28s3.78 17.28 12.3 17.28c4.56 0 7.32-1.74 9.18-4.38a2.425 2.425 0 0 1 2.04-1.14 2.525 2.525 0 0 1 2.16 4.08zm28.02 5.52a2.424 2.424 0 0 1-2.52-2.52V60.8a8.55 8.55 0 1 0-17.099 0v16.62a2.551 2.551 0 0 1-2.64 2.64 2.472 2.472 0 0 1-2.52-2.58V39.862a2.58 2.58 0 0 1 5.16-.06v10.38a12.097 12.097 0 0 1 8.52-3.06 13.79 13.79 0 0 1 13.68 13.68v16.62a2.454 2.454 0 0 1-2.58 2.58z"/><use xlink:href="#j"/><path d="M357.554 80.12a6.122 6.122 0 0 1-6-6.12V39.862a2.58 2.58 0 0 1 5.16-.06V74a.947.947 0 0 0 .84 1.02 2.55 2.55 0 1 1 0 5.1z"/><use xlink:href="#i" x="149.817"/><path d="M407.233 52.222a8.644 8.644 0 0 0-8.52 8.58v16.62a2.501 2.501 0 0 1-2.64 2.58 2.456 2.456 0 0 1-2.52-2.52v-26.76a2.541 2.541 0 0 1 2.52-2.58 2.463 2.463 0 0 1 2.58 2.04 13.874 13.874 0 0 1 8.58-3.06 2.552 2.552 0 1 1 0 5.1z"/><use xlink:href="#k"/><path d="M481.08 40.642l-12.6 37.318A2.723 2.723 0 0 1 465.9 80a2.824 2.824 0 0 1-2.52-2.04l-12.66-37.318a2.561 2.561 0 0 1 4.859-1.62l10.32 30.42 10.38-30.42a2.387 2.387 0 0 1 2.34-1.74 2.56 2.56 0 0 1 2.7 2.46 1.841 1.841 0 0 1-.24.9zM510 80a5.839 5.839 0 0 1-5.34-3.42 13.747 13.747 0 0 1-10.56 4.44c-9.78 0-15.06-8.04-15.06-16.98s5.4-16.92 15.06-16.92a13.26 13.26 0 0 1 9.9 3.96v-.24a2.475 2.475 0 0 1 2.52-2.7 2.412 2.412 0 0 1 2.64 2.52v23.16a.971.971 0 0 0 .84 1.08 2.55 2.55 0 1 1 0 5.1zm-15.9-27.78c-6 0-9.9 4.68-9.9 11.82 0 7.2 3.9 11.88 9.9 11.88 6.06 0 9.9-4.68 9.9-11.88 0-7.14-3.84-11.82-9.9-11.82z"/><use xlink:href="#l"/><use xlink:href="#l" x="28.02"/><path d="M573.35 43.282a4.32 4.32 0 1 1 4.32-4.319 4.302 4.302 0 0 1-4.32 4.319zm0 36.72a2.52 2.52 0 0 1-2.64-2.52v-26.76a2.534 2.534 0 0 1 2.64-2.58 2.472 2.472 0 0 1 2.52 2.58v26.76a2.421 2.421 0 0 1-2.52 2.52zM605.807 80a2.424 2.424 0 0 1-2.52-2.52V60.8a8.55 8.55 0 1 0-17.099 0v16.62a2.551 2.551 0 0 1-2.64 2.64 2.472 2.472 0 0 1-2.52-2.58V50.66a2.387 2.387 0 0 1 2.52-2.52 2.509 2.509 0 0 1 2.58 1.98 13.703 13.703 0 0 1 22.259 10.68v16.62a2.454 2.454 0 0 1-2.58 2.58z"/><use xlink:href="#m"/><path d="M658.186 43.282a4.32 4.32 0 1 1 4.32-4.319 4.302 4.302 0 0 1-4.32 4.319zm0 36.72a2.52 2.52 0 0 1-2.64-2.52v-26.76a2.533 2.533 0 0 1 2.64-2.58 2.472 2.472 0 0 1 2.52 2.58v26.76a2.421 2.421 0 0 1-2.52 2.52zm17.7 1.018c-3.3 0-8.82-1.02-11.64-4.5a2.655 2.655 0 0 1 2.16-4.26 2.466 2.466 0 0 1 1.86 1.02c1.86 2.04 4.92 2.64 7.62 2.64 5.4 0 7.14-1.86 7.14-4.56 0-7.68-18.3-2.94-18.3-15.3 0-6.54 6.12-8.94 11.82-8.94 3.24 0 10.86 1.62 10.86 4.98a2.694 2.694 0 0 1-2.52 2.7 3.615 3.615 0 0 1-1.98-.78c-1.62-1.38-3.96-1.8-6.36-1.8-4.98 0-6.72 1.86-6.72 3.84 0 7.14 18.36 2.52 18.36 15.3 0 7.08-5.94 9.66-12.3 9.66z"/></g><g fill="#ff0"><path d="M729.224 80.06a2.574 2.574 0 0 1-1.98-1.08l-12.48-17.46h-7.74v15.9a2.502 2.502 0 0 1-2.641 2.58 2.456 2.456 0 0 1-2.52-2.52V39.862a2.491 2.491 0 0 1 2.52-2.58h15.54c5.28 0 12.06 4.14 12.06 12.06a12.096 12.096 0 0 1-11.04 12.12l10.5 14.46a2.355 2.355 0 0 1 .54 1.56 2.76 2.76 0 0 1-2.76 2.58zm-9.36-37.68h-12.84v14.04h12.78a7.02 7.02 0 0 0 .06-14.04z"/><use xlink:href="#m" x="122.757"/><path d="M796.663 80a5.839 5.839 0 0 1-5.34-3.42 13.746 13.746 0 0 1-10.56 4.44c-9.78 0-15.06-8.04-15.06-16.98s5.4-16.92 15.06-16.92a13.257 13.257 0 0 1 9.899 3.96v-.24a2.476 2.476 0 0 1 2.521-2.7 2.412 2.412 0 0 1 2.64 2.52v23.16a.971.971 0 0 0 .84 1.08 2.55 2.55 0 1 1 0 5.1zm-15.9-27.78c-6 0-9.9 4.68-9.9 11.82 0 7.2 3.9 11.88 9.9 11.88 6.06 0 9.9-4.68 9.9-11.88 0-7.14-3.84-11.82-9.9-11.82zm44.88 24.24a13.937 13.937 0 0 1-10.74 4.56c-9.66 0-15.06-7.92-15.06-16.98 0-9 5.4-16.92 15.06-16.92a13.937 13.937 0 0 1 10.74 4.56 2.618 2.618 0 0 1 .72 1.74 2.794 2.794 0 0 1-2.7 2.58 2.838 2.838 0 0 1-1.859-.84 8.816 8.816 0 0 0-6.9-2.94c-6 0-9.9 4.68-9.9 11.82 0 7.2 3.9 11.88 9.9 11.88a8.924 8.924 0 0 0 6.9-2.939 2.395 2.395 0 0 1 1.859-.9 2.59 2.59 0 0 1 1.98 4.38zm28.38 3.54a2.424 2.424 0 0 1-2.52-2.52V60.8a8.549 8.549 0 1 0-17.099 0v16.62a2.551 2.551 0 0 1-2.641 2.64 2.472 2.472 0 0 1-2.52-2.58V39.862a2.58 2.58 0 0 1 5.16-.06v10.38a12.097 12.097 0 0 1 8.52-3.06 13.791 13.791 0 0 1 13.68 13.68v16.62a2.454 2.454 0 0 1-2.58 2.58zm9.72-36.718a4.32 4.32 0 1 1 4.319-4.319 4.302 4.302 0 0 1-4.319 4.319zm0 36.72a2.521 2.521 0 0 1-2.641-2.52v-26.76a2.534 2.534 0 0 1 2.641-2.58 2.472 2.472 0 0 1 2.52 2.58v26.76a2.421 2.421 0 0 1-2.52 2.52zM896.2 80a2.423 2.423 0 0 1-2.52-2.52V60.8a8.55 8.55 0 1 0-17.1 0v16.62a2.55 2.55 0 0 1-2.64 2.64 2.472 2.472 0 0 1-2.52-2.58V50.66a2.387 2.387 0 0 1 2.52-2.52 2.509 2.509 0 0 1 2.58 1.98 13.702 13.702 0 0 1 22.259 10.68v16.62a2.454 2.454 0 0 1-2.58 2.58zm20.64 13.68c-3.66 0-12.72-1.32-12.72-4.92a2.794 2.794 0 0 1 2.58-2.7c1.38 0 .18.18 3.36 1.38a18.754 18.754 0 0 0 6.78 1.14c6.66 0 9.9-3.18 9.9-9.48v-2.7a14.038 14.038 0 0 1-9.899 3.6c-9.48 0-15.06-6.72-15.06-15.96 0-9 5.4-16.92 15.06-16.92 4.2 0 7.44 1.26 9.9 3.84v-.24a2.553 2.553 0 0 1 2.58-2.58 2.519 2.519 0 0 1 2.58 2.58V79.1c0 9.54-5.7 14.58-15.06 14.58zm0-41.458c-6 0-9.9 4.68-9.9 11.82 0 6.84 3.6 10.86 9.9 10.86s9.9-4.02 9.9-10.86c0-7.14-3.84-11.82-9.9-11.82zM216.588 141.26a2.472 2.472 0 0 1-2.52-2.58v-27.6l-11.64 21.72a2.626 2.626 0 0 1-2.4 1.62 2.857 2.857 0 0 1-2.4-1.62l-11.58-21.6v27.48a2.501 2.501 0 0 1-2.64 2.58 2.472 2.472 0 0 1-2.52-2.58v-37.5a2.526 2.526 0 0 1 2.76-2.7 2.3 2.3 0 0 1 2.16 1.5l14.22 26.46 14.28-26.46a2.303 2.303 0 0 1 2.34-1.5 2.485 2.485 0 0 1 2.58 2.7v37.5a2.501 2.501 0 0 1-2.64 2.58z"/><use xlink:href="#j" x="-95.485" y="61.2"/><path d="M270.108 113.422a8.644 8.644 0 0 0-8.52 8.58v16.62a2.501 2.501 0 0 1-2.64 2.58 2.456 2.456 0 0 1-2.52-2.52v-26.76a2.541 2.541 0 0 1 2.52-2.58 2.463 2.463 0 0 1 2.58 2.04 13.875 13.875 0 0 1 8.58-3.06 2.552 2.552 0 1 1 0 5.1z"/><use xlink:href="#i" x="59.06" y="61.2"/><path d="M331.895 122.72h-12.84v15.9a2.58 2.58 0 0 1-5.16.06v-37.618a2.491 2.491 0 0 1 2.52-2.58h15.54c5.28 0 12.06 4.14 12.06 12.06a12.099 12.099 0 0 1-12.12 12.179zm0-19.14h-12.84v14.04h12.78a7.02 7.02 0 0 0 .06-14.04z"/><use xlink:href="#i" x="134.718" y="61.2"/><use xlink:href="#j" x="58.819" y="61.2"/><path d="M425.793 142.22a13.13 13.13 0 0 1-9.899-3.96v13.02a2.501 2.501 0 0 1-2.64 2.58 2.472 2.472 0 0 1-2.52-2.58v-39.358a2.472 2.472 0 0 1 2.52-2.58 2.501 2.501 0 0 1 2.64 2.58 14.4 14.4 0 0 1 9.899-3.66c9.66 0 15.06 7.92 15.06 16.92 0 9.12-5.4 17.04-15.06 17.04zm0-28.86c-5.94 0-9.9 4.74-9.9 11.82 0 7.2 3.9 11.94 9.9 11.94s9.9-4.68 9.9-11.88c0-7.14-3.9-11.88-9.9-11.88zm24.24 27.96a6.122 6.122 0 0 1-6-6.12v-34.138a2.58 2.58 0 0 1 5.16-.06V135.2a.947.947 0 0 0 .84 1.02 2.55 2.55 0 1 1 0 5.1z"/><use xlink:href="#i" x="242.296" y="61.2"/></g><g class="T"><use xlink:href="#h" x="344.233" y="61.2"/><path d="M549.45 141.2a2.424 2.424 0 0 1-2.52-2.52V122a8.55 8.55 0 1 0-17.099 0v16.62a2.551 2.551 0 0 1-2.64 2.64 2.472 2.472 0 0 1-2.52-2.58v-37.618a2.58 2.58 0 0 1 5.16-.06v10.38a12.097 12.097 0 0 1 8.52-3.06 13.79 13.79 0 0 1 13.68 13.68v16.62a2.454 2.454 0 0 1-2.58 2.58z"/><use xlink:href="#k" x="148.06" y="61.2"/><path d="M615.33 141.2a2.423 2.423 0 0 1-2.52-2.52V122a8.55 8.55 0 1 0-17.099 0v16.62a2.55 2.55 0 0 1-2.64 2.64 2.472 2.472 0 0 1-2.52-2.58v-26.82a2.387 2.387 0 0 1 2.52-2.52 2.509 2.509 0 0 1 2.58 1.98A13.702 13.702 0 0 1 617.91 122v16.62a2.454 2.454 0 0 1-2.58 2.58zm45.66 0h-24.96a2.601 2.601 0 0 1-2.64-2.52v-37.618a2.612 2.612 0 0 1 2.64-2.58H661a2.425 2.425 0 0 1 2.52 2.52 2.504 2.504 0 0 1-2.52 2.58h-22.44v12.12h15.72a2.561 2.561 0 0 1 2.58 2.58 2.523 2.523 0 0 1-2.58 2.58h-15.72v15.24H661a2.471 2.471 0 0 1 2.52 2.58 2.425 2.425 0 0 1-2.52 2.52zm28.136-28.318l-10.92 26.28a2.737 2.737 0 0 1-2.58 2.04 2.906 2.906 0 0 1-2.58-2.04l-10.92-26.28a3.692 3.692 0 0 1-.181-1.08 2.589 2.589 0 0 1 2.641-2.46 2.456 2.456 0 0 1 2.279 1.56l8.76 21 8.76-21a2.584 2.584 0 0 1 4.979.84 2.99 2.99 0 0 1-.239 1.14z"/><use xlink:href="#m" x="78.759" y="61.2"/><path d="M736.765 113.422a8.644 8.644 0 0 0-8.52 8.58v16.62a2.501 2.501 0 0 1-2.64 2.58 2.456 2.456 0 0 1-2.52-2.52v-26.76a2.541 2.541 0 0 1 2.52-2.58 2.463 2.463 0 0 1 2.58 2.04 13.874 13.874 0 0 1 8.579-3.06 2.552 2.552 0 1 1 0 5.1zm32.4 27.778h-16.14a2.73 2.73 0 0 1-2.64-2.52v-37.618a2.511 2.511 0 0 1 2.52-2.58h14.88a11.255 11.255 0 0 1 11.22 11.1 10.802 10.802 0 0 1-3.42 7.979 12.411 12.411 0 0 1 6.3 10.919 12.804 12.804 0 0 1-12.72 12.72zm-1.38-37.62h-12.24v12.12h12.24a6.06 6.06 0 0 0 0-12.12zm1.38 17.22h-13.62v15.3h13.62a7.65 7.65 0 0 0 0-15.3zm41.4 7.08h-22.2c.84 5.64 4.44 9.24 9.72 9.24a9.007 9.007 0 0 0 7.14-3.12 2.483 2.483 0 0 1 1.859-.96 2.8 2.8 0 0 1 2.7 2.64c0 .72-.18 1.26-1.44 2.52a14.622 14.622 0 0 1-10.26 4.02c-9.66 0-15.06-7.98-15.06-16.98 0-8.94 5.4-16.92 15.06-16.92 9.78 0 15 7.98 15 16.92a2.558 2.558 0 0 1-2.519 2.64zm-12.48-14.46c-5.64 0-8.94 4.14-9.72 9.3h19.44c-.84-5.76-4.44-9.3-9.72-9.3zm27.66 1.022h-2.7v24.18a2.453 2.453 0 0 1-2.64 2.52 2.421 2.421 0 0 1-2.52-2.52v-24.18h-2.46a2.55 2.55 0 0 1 0-5.1h2.46v-4.08a6.836 6.836 0 0 1 6.899-6.78 2.551 2.551 0 1 1 0 5.1 1.681 1.681 0 0 0-1.74 1.62v4.14h2.7a2.552 2.552 0 1 1 0 5.1z"/><use xlink:href="#j" x="510.548" y="61.2"/><path d="M876.142 113.422a8.644 8.644 0 0 0-8.52 8.58v16.62a2.502 2.502 0 0 1-2.641 2.58 2.456 2.456 0 0 1-2.52-2.52v-26.76a2.541 2.541 0 0 1 2.52-2.58 2.463 2.463 0 0 1 2.58 2.04 13.874 13.874 0 0 1 8.58-3.06 2.552 2.552 0 1 1 0 5.1z"/><use xlink:href="#m" x="264.504" y="61.2"/></g></svg>