<svg xmlns="http://www.w3.org/2000/svg" xmlns:xlink="http://www.w3.org/1999/xlink" viewBox="0 0 1080 1080"><linearGradient id="A" gradientUnits="userSpaceOnUse" x1="0" y1="540" x2="1080" y2="540"><stop offset="0" stop-color="#141e30"/><stop offset=".063" stop-color="#152033"/><stop offset=".645" stop-color="#20344c"/><stop offset="1" stop-color="#243b55"/></linearGradient><path d="M1040 1080H40c-22.09 0-40-17.91-40-40V40C0 17.91 17.91 0 40 0h1000c22.09 0 40 17.91 40 40v1000c0 22.09-17.91 40-40 40z" fill="url(#A)"/><g opacity=".5" fill="#fff"><path d="M42.328 1046.045c-3.568 0-5.47-1.97-5.503-2.002 0 .935-.7 1.4-1.468 1.4-.7 0-1.4-.467-1.4-1.4v-20.88a1.35 1.35 0 0 1 1.401-1.434c.767 0 1.468.467 1.468 1.4v6.238c1.334-1.368 3.168-2.17 5.503-2.17 5.37 0 8.373 4.403 8.373 9.406 0 5.037-3.002 9.44-8.373 9.44zm0-16c-3.335 0-5.503 2.602-5.503 6.57 0 4.003 2.168 6.604 5.503 6.604s5.504-2.602 5.504-6.604c0-3.97-2.168-6.57-5.504-6.57zm25.555 8.037h-12.34c.467 3.136 2.468 5.137 5.403 5.137 1.5 0 3.002-.533 3.97-1.734.3-.333.634-.533 1.034-.533.734 0 1.5.667 1.5 1.468 0 .4-.1.7-.8 1.4-1.5 1.468-3.57 2.235-5.704 2.235-5.37 0-8.372-4.437-8.372-9.44 0-4.97 3.002-9.406 8.372-9.406 5.437 0 8.34 4.437 8.34 9.406 0 .734-.534 1.468-1.4 1.468zm-6.937-8.038c-3.136 0-4.97 2.3-5.403 5.17H66.35c-.467-3.202-2.468-5.17-5.403-5.17zM88 1045.478c-1.834 0-2.668-1.3-2.97-1.9-1.334 1.468-3.27 2.47-5.87 2.47-5.437 0-8.372-4.47-8.372-9.44s3.002-9.406 8.372-9.406c2.335 0 4.203.834 5.504 2.202v-.134c0-.367.133-1.5 1.4-1.5.7 0 1.468.367 1.468 1.4v12.875c0 .434.3.6.467.6.935 0 1.435.667 1.435 1.434a1.37 1.37 0 0 1-1.435 1.401zm-8.84-15.443c-3.336 0-5.504 2.602-5.504 6.57 0 4.003 2.168 6.604 5.504 6.604 3.37 0 5.504-2.602 5.504-6.604 0-3.97-2.135-6.57-5.504-6.57z"/><use xlink:href="#C"/><path d="M115.158 1045.478h-.567c-3.17 0-4.37-1.668-4.37-4.403V1030.6h-1c-.8 0-1.435-.634-1.435-1.4 0-.8.634-1.435 1.4-1.435h1v-4.637c0-.934.7-1.4 1.435-1.4s1.4.467 1.4 1.4v4.637h2.135c.934 0 1.4.768 1.4 1.4 0 .8-.533 1.434-1.4 1.434h-2.135v10.774c0 .934.333 1.268 1.268 1.268h.833c.868 0 1.435.634 1.435 1.4 0 .8-.533 1.435-1.4 1.435zm4.604-20.415a2.402 2.402 0 1 1 0-4.803 2.402 2.402 0 1 1 0 4.803zm0 20.414c-.733 0-1.467-.5-1.467-1.4V1029.2c0-.935.733-1.435 1.467-1.435a1.37 1.37 0 0 1 1.401 1.435v14.876c0 .935-.7 1.4-1.4 1.4zm10.376-14.877h-1.5v13.442c0 .935-.7 1.4-1.468 1.4-.7 0-1.4-.467-1.4-1.4V1030.6h-1.37c-.9 0-1.4-.667-1.4-1.4 0-.768.5-1.435 1.4-1.435h1.367v-2.27c0-2.135 1.77-3.77 3.836-3.77.968 0 1.468.667 1.468 1.434 0 .7-.5 1.4-1.468 1.4-.566 0-.967.434-.967.9v2.302h1.5c.967 0 1.468.667 1.468 1.435 0 .733-.5 1.4-1.468 1.4z"/><use xlink:href="#C" x="42.068"/><path d="M154.725 1045.544c-1.802 0-3.336-1.534-3.336-3.402v-18.98c0-.967.7-1.434 1.435-1.434s1.435.467 1.435 1.4v19.013c0 .4.3.567.467.567.934 0 1.435.667 1.435 1.435 0 .733-.5 1.4-1.435 1.4zm15.37-.066v-1.264c1.886-.237 2.046-.437 2.046-3.157v-6.7c0-2.8-1.248-4.017-3.064-4.017-1.237 0-2.345.6-3.47 1.493v9.476c0 2.527.187 2.658 2.06 2.896v1.264h-8.968v-1.264c2.254-.33 2.5-.4 2.5-3v-8.2c0-2.446-.303-2.565-2.185-2.922v-1.184c2.173-.292 4.63-.807 6.653-1.533l-.052 2.95 2.6-1.745c1.16-.713 2-1.086 3.16-1.086 3.194 0 5.2 2.338 5.2 6.3v7.5c0 2.54.237 2.657 2.277 2.92v1.264h-8.74zm23.9-3.703c-2.458 3.427-5.488 4.178-7.014 4.178-5.142 0-8.124-3.936-8.124-8.594 0-2.745 1.183-5.396 2.832-7.062 1.74-1.8 3.945-2.814 6.082-2.814 3.73 0 6.396 3.126 6.37 6.347-.014.715-.08 1.277-.612 1.4-.767.184-6.17.5-10.318.647.062 4.587 2.717 6.74 5.556 6.74 1.572 0 3.104-.597 4.543-1.866l.686 1.014zm-7.07-12.7c-1.667 0-3.167 1.807-3.516 4.963l5.486-.118c.6-.026.848-.146.848-.792.04-2.022-1.037-4.053-2.818-4.053zm34.284.145c-1.943.343-2.248.624-3.105 2.765-1.33 3.462-3.102 8.53-4.934 13.94h-1.512l-4.65-11.46-4.55 11.46h-1.472l-4.685-14.192c-.687-1.985-.94-2.274-2.855-2.512v-1.25h9.397v1.25c-2.325.345-2.535.672-2.058 2.133l2.52 8.214c1.507-3.68 2.988-7.62 4.327-11.424h1.456c1.4 3.76 2.986 7.702 4.573 11.568.742-2.107 2.062-5.964 2.557-8.108.412-1.674-.008-2.078-2.753-2.383v-1.25h7.742v1.25zm9.4 3.746c-.92-2.606-2.155-3.984-4.2-3.984-1.206 0-2.225.86-2.225 2.266 0 1.497 1.046 2.264 3.16 3.216 3.278 1.496 5.3 2.787 5.3 5.736 0 3.85-3.6 5.764-6.945 5.764-2.06 0-4.088-.737-4.92-1.16l-.662-4.892 1.252-.224c.8 2.5 2.33 4.75 4.976 4.75 1.505 0 2.438-.952 2.438-2.28 0-1.423-.76-2.333-3.092-3.467-2.67-1.295-5.107-2.64-5.107-5.775 0-3.046 2.533-5.42 6.565-5.42 1.818 0 3.242.396 4.112.567l.62 4.577-1.25.328z"/></g><g opacity=".5" fill="#fff"><use xlink:href="#D"/><use xlink:href="#E"/><use xlink:href="#F"/><use xlink:href="#G"/><path d="M661.4 1044.797c-.88.98-2.1 1.52-3.58 1.52-3.22 0-5.02-2.64-5.02-5.662 0-3 1.8-5.64 5.02-5.64 1.48 0 2.7.54 3.58 1.52.12.12.16.262.16.38 0 .3-.28.6-.58.6-.14 0-.28-.06-.42-.2-.66-.74-1.58-1.16-2.74-1.16-2.36 0-3.88 1.9-3.88 4.5s1.52 4.52 3.88 4.52c1.16 0 2.08-.44 2.74-1.16.14-.14.28-.2.42-.2.3 0 .58.26.58.58 0 .14-.04.26-.16.398z"/><use xlink:href="#H"/><path d="M676.948 1039.416c-.64 0-1.16-.5-1.16-1.14s.52-1.14 1.16-1.14c.62 0 1.12.5 1.12 1.14s-.5 1.14-1.12 1.14zm0 6.563c-.64 0-1.16-.5-1.16-1.14s.52-1.14 1.16-1.14c.62 0 1.12.5 1.12 1.14s-.5 1.14-1.12 1.14z"/><use xlink:href="#I"/><use xlink:href="#J"/><use xlink:href="#K"/><use xlink:href="#L"/><use xlink:href="#H" x="56.2"/><use xlink:href="#M"/><use xlink:href="#N"/><path d="M772.75 1045.98h-.02c-.66 0-1.6-.36-1.98-1.56-.84 1.18-2.14 1.9-3.88 1.9-3.26 0-5.02-2.682-5.02-5.662 0-3.02 1.8-5.64 5.02-5.64 1.74 0 3.04.72 3.88 1.88v-.98c0-.32.26-.56.58-.56.28 0 .56.2.56.56v8.063c0 1.28 1.44.48 1.44 1.44a.55.55 0 0 1-.58.561zm-5.88-9.822c-2.36 0-3.88 1.9-3.88 4.5s1.52 4.52 3.88 4.52c2.38 0 3.88-1.92 3.88-4.52s-1.5-4.5-3.88-4.5z"/><use xlink:href="#L" x="61.038"/><use xlink:href="#K" x="71.058"/><use xlink:href="#E" x="162.258"/><use xlink:href="#J" x="98.778"/><use xlink:href="#D" x="195.498"/><use xlink:href="#O"/><path d="M844.088 1045.98c-.28 0-.58-.2-.58-.56v-5.842c0-1.9-1.52-3.42-3.42-3.42a3.42 3.42 0 0 0-3.421 3.42v5.842c0 .36-.3.56-.56.56-.28 0-.58-.2-.58-.56v-13.123c0-.36.3-.56.58-.56.26 0 .56.2.56.56v4.262c.84-.98 2.06-1.54 3.42-1.54a4.6 4.6 0 0 1 4.561 4.561v5.842c0 .36-.3.56-.56.56z"/><use xlink:href="#K" x="137.179"/><path d="M853.267 1046.098c-1.08 0-1.98-1-1.98-2.12v-11.684c0-.36.3-.56.58-.56.26 0 .56.2.56.56v11.684c0 1.28 1.42.54 1.42 1.44 0 .34-.24.68-.58.68z"/><use xlink:href="#M" x="123.56"/><use xlink:href="#G" x="221.437"/><use xlink:href="#H" x="210.274"/><use xlink:href="#J" x="187.833"/><path d="M897.922 1035.875c-.12.06-.2.102-.3.102-.34 0-.56-.36-.56-.682 0-.44 1.14-.54 1.14-1.82v-1.52c0-.38.28-.6.56-.6s.58.22.58.6v1.52c0 .46-.22 1.74-1.42 2.4z"/><use xlink:href="#D" x="288.772"/><use xlink:href="#P"/><use xlink:href="#F" x="292.21"/><use xlink:href="#J" x="240.51"/><use xlink:href="#M" x="218.532"/><path d="M971.52 1048.64c-.1 0-.2-.04-.32-.1-2.64-1.94-3.58-5.502-3.58-8.623 0-2.6.96-6.94 3.6-8.44.1-.04.2-.1.3-.1.32 0 .54.32.54.62 0 .44-.08.24-.7.8-1.94 1.74-2.6 4.602-2.6 7.12 0 2.32.8 6.223 3.04 7.662.2.14.3.3.3.48 0 .3-.26.58-.58.58z"/><use xlink:href="#I" x="288.87"/><use xlink:href="#N" x="237.792"/><path d="M1002.5 1045.98h-2.28c-.36 0-.58-.3-.58-.56a.58.58 0 0 1 .58-.58h.56v-11.982h-.56c-.36 0-.58-.28-.58-.56s.22-.56.58-.56h2.28c.36 0 .56.28.56.56s-.2.56-.56.56h-.58v11.982h.58c.36 0 .56.3.56.58 0 .26-.2.56-.56.56z"/><use xlink:href="#O" x="182.15"/><path d="M1027.14 1045.98h-8.882a.61.61 0 0 1-.58-.561v-13.123c0-.3.28-.56.58-.56h8.882a.55.55 0 0 1 .58.561.55.55 0 0 1-.58.561h-8.32v4.92h6.1a.55.55 0 0 1 .58.561c0 .28-.2.58-.56.58h-6.12v5.922h8.32c.38 0 .58.3.58.58a.55.55 0 0 1-.58.561z"/><use xlink:href="#P" x="113.517"/><path d="M1042.52 1048.54c-.1.06-.22.1-.32.1-.3 0-.56-.28-.56-.58 0-.18.08-.38.26-.48 2.26-1.48 3.02-5.32 3.02-7.662 0-2.64-.7-5.86-3-7.44-.18-.14-.3-.3-.3-.48 0-.3.26-.62.58-.62.08 0 .2.06.28.1 2.64 1.48 3.58 5.842 3.58 8.44 0 3.12-.92 6.662-3.54 8.623z"/></g><path d="M33.956 176.62h956.648v802.6H33.956z" opacity=".1" fill="#fff"/><path d="M99.008 231.197h891.595V979.22H99.008z" fill="#0b7053"/><path d="M196.586 313.062h794.017V979.22H196.586z" fill="#09b44b"/><path d="M303.73 402.953h686.873V979.22H303.73z" fill="#2ae12e"/><path d="M341.997 435.057h648.607V979.22H341.997z" fill="#7be86b"/><g fill="#fff"><path d="M363.796 469.983h-10c-.948 0-1.504-.556-1.504-1.242 0-.294.098-.588.294-.882l8.923-13.564c.393-.62.62-1.373.62-1.96 0-1.93-1.437-3.4-3.366-3.4-1.732 0-3.203 1.47-3.76 2.517a1.22 1.22 0 0 1-1.111.687c-.752 0-1.437-.588-1.437-1.34 0-1.014 2.32-4.674 6.308-4.674a6.16 6.16 0 0 1 6.145 6.145c0 1.308-.458 2.582-1.1 3.53l-7.485 11.406h7.485c.948 0 1.438.654 1.438 1.405 0 .687-.5 1.373-1.438 1.373zm9.804.557c-3.987 0-7.223-3.235-7.223-7.2a7.01 7.01 0 0 1 3.17-5.948c-1.47-1.177-2.32-2.9-2.32-4.903 0-3.497 2.844-6.373 6.373-6.373 3.498 0 6.373 2.876 6.373 6.373 0 1.994-.85 3.727-2.32 4.903 1.896 1.307 3.14 3.432 3.14 5.915 0 3.988-3.203 7.224-7.2 7.224zm0-11.668c-2.45 0-4.445 2.06-4.445 4.444 0 2.452 2.027 4.445 4.413 4.445 2.45 0 4.444-2.026 4.444-4.412 0-2.45-2.025-4.478-4.412-4.478zm0-9.937c-2.06 0-3.562 1.602-3.562 3.563 0 1.994 1.504 3.628 3.563 3.628 1.96 0 3.563-1.634 3.563-3.628 0-1.96-1.602-3.562-3.562-3.562zm15.46 21.605a7.22 7.22 0 0 1-7.223-7.19 7.01 7.01 0 0 1 3.17-5.948c-1.47-1.177-2.32-2.9-2.32-4.903 0-3.497 2.843-6.373 6.373-6.373 3.497 0 6.373 2.876 6.373 6.373 0 1.994-.85 3.727-2.32 4.903 1.896 1.307 3.138 3.432 3.138 5.915 0 3.988-3.203 7.224-7.2 7.224zm0-11.668c-2.45 0-4.445 2.06-4.445 4.444 0 2.452 2.026 4.445 4.412 4.445 2.45 0 4.445-2.026 4.445-4.412 0-2.45-2.026-4.478-4.412-4.478zm0-9.937c-2.06 0-3.562 1.602-3.562 3.563 0 1.994 1.504 3.628 3.563 3.628 1.96 0 3.563-1.634 3.563-3.628 0-1.96-1.602-3.562-3.562-3.562zm-69.967-15.8c-2.517 0-4.74-1.308-5.948-3.334-.164-.262-.23-.522-.23-.752 0-.784.687-1.372 1.438-1.372.425 0 .883.163 1.177.653.72 1.242 2.026 2.026 3.53 2.026 2.452 0 4.48-2.026 4.48-4.412 0-2.45-1.994-4.478-4.445-4.478h-.033c-.85 0-1.372-.654-1.372-1.373s.556-1.405 1.405-1.405a3.54 3.54 0 0 0 3.595-3.596c0-1.96-1.602-3.562-3.595-3.562-3.17 0-3.203 3.203-4.902 3.203-.752 0-1.472-.588-1.472-1.373 0-.26.065-.522.23-.784.784-1.2 2.745-3.856 6.145-3.856 3.53 0 6.373 2.876 6.373 6.373 0 1.994-.85 3.727-2.32 4.903 1.896 1.307 3.17 3.432 3.17 5.915 0 3.988-3.235 7.224-7.223 7.224zm20.23-.555H329.32c-.947 0-1.503-.556-1.503-1.242 0-.294.098-.588.294-.882l8.923-13.564c.393-.62.62-1.373.62-1.96 0-1.93-1.438-3.4-3.366-3.4-1.732 0-3.203 1.47-3.76 2.517a1.22 1.22 0 0 1-1.111.687c-.752 0-1.438-.588-1.438-1.34 0-1.014 2.32-4.674 6.3-4.674a6.16 6.16 0 0 1 6.145 6.145c0 1.308-.458 2.582-1.1 3.53l-7.485 11.406h7.485c.947 0 1.438.654 1.438 1.405 0 .687-.5 1.373-1.437 1.373zm9.673.555c-2.517 0-4.74-1.308-5.948-3.334-.163-.262-.23-.522-.23-.752 0-.784.687-1.372 1.438-1.372.425 0 .883.163 1.177.653.72 1.242 2.026 2.026 3.53 2.026 2.45 0 4.478-2.026 4.478-4.412 0-2.45-1.993-4.478-4.445-4.478h-.032c-.85 0-1.373-.654-1.373-1.373s.556-1.405 1.405-1.405a3.54 3.54 0 0 0 3.596-3.596c0-1.96-1.602-3.562-3.596-3.562-3.17 0-3.203 3.203-4.902 3.203-.752 0-1.47-.588-1.47-1.373a1.45 1.45 0 0 1 .229-.784c.784-1.2 2.746-3.856 6.145-3.856 3.53 0 6.374 2.876 6.374 6.373 0 1.994-.85 3.727-2.32 4.903 1.896 1.307 3.17 3.432 3.17 5.915a7.23 7.23 0 0 1-7.224 7.224zM219.9 342.85h-1.405v2.55c0 .882-.752 1.373-1.406 1.373-.686 0-1.404-.5-1.404-1.373v-2.55h-7.812c-.914 0-1.47-.555-1.47-1.307 0-.196.033-.458.196-.72l9.02-17.16a1.32 1.32 0 0 1 1.178-.75c.752 0 1.47.588 1.47 1.34 0 .23-.033.458-.196.72l-7.9 15.1h5.523v-3.726c0-.948.686-1.438 1.372-1.438.72 0 1.438.458 1.438 1.405v3.76h1.405c.915 0 1.405.654 1.405 1.405a1.33 1.33 0 0 1-1.405 1.373zm9.37 4.48c-2.518 0-4.74-1.308-5.95-3.334-.163-.26-.23-.523-.23-.75 0-.785.687-1.373 1.438-1.373.426 0 .883.164 1.178.654.72 1.242 2.025 2.026 3.53 2.026 2.45 0 4.48-2.026 4.48-4.412 0-2.452-1.994-4.478-4.445-4.478h-.033c-.85 0-1.373-.653-1.373-1.373s.557-1.405 1.406-1.405a3.54 3.54 0 0 0 3.595-3.596c0-1.96-1.602-3.562-3.595-3.562-3.17 0-3.203 3.203-4.902 3.203-.752 0-1.472-.588-1.472-1.373a1.44 1.44 0 0 1 .229-.785c.783-1.2 2.745-3.856 6.145-3.856 3.53 0 6.373 2.876 6.373 6.373 0 1.994-.85 3.726-2.32 4.903 1.896 1.308 3.17 3.432 3.17 5.916 0 3.987-3.235 7.223-7.223 7.223zm16.7-.557c-.686 0-1.373-.523-1.373-1.373v-17.52l-2.614 2.55c-.294.294-.62.393-.915.393-.784 0-1.47-.72-1.47-1.438a1.34 1.34 0 0 1 .425-.98l4.87-4.707c.393-.36.816-.523 1.2-.523.916 0 1.308.915 1.308 1.667v20.526c0 .882-.687 1.405-1.438 1.405z"/><use xlink:href="#Q"/><path d="M137.533 260.092h-1.405v2.55c0 .882-.752 1.373-1.406 1.373-.686 0-1.405-.5-1.405-1.373v-2.55h-7.812c-.915 0-1.47-.555-1.47-1.307 0-.196.033-.458.196-.72l9.02-17.16c.262-.523.752-.75 1.177-.75.752 0 1.47.588 1.47 1.34 0 .23-.032.458-.195.72l-7.9 15.1h5.523v-3.726c0-.948.687-1.438 1.373-1.438.72 0 1.438.458 1.438 1.405v3.76h1.405c.915 0 1.405.654 1.405 1.405 0 .72-.5 1.373-1.405 1.373z"/><use xlink:href="#Q" x="30.787"/><path d="M52.147 209.857c-6.752 0-7.296-6.88-7.296-11.935 0-5.983 1.313-11.967 7.296-11.967 2.688 0 4.607 1.184 5.92 3.2.224.288.287.544.287.832 0 .736-.672 1.312-1.407 1.312-.416 0-.832-.192-1.152-.64-.832-1.248-1.92-1.952-3.647-1.952-3.04 0-4.448 2.72-4.544 8.832a6.62 6.62 0 0 1 4.544-1.824c3.84 0 6.88 3.328 6.88 7.072s-3.04 7.07-6.88 7.07zm0-11.423c-2.208 0-4.063 1.92-4.2 4.416.416 2.496 1.728 4.288 4.2 4.288 2.208 0 4.128-1.984 4.128-4.352s-1.92-4.352-4.128-4.352zm19.776 10.88h-9.8c-.928 0-1.472-.544-1.472-1.216 0-.288.096-.576.288-.864l8.735-13.28c.384-.608.607-1.344.607-1.92 0-1.888-1.407-3.328-3.296-3.328-1.695 0-3.136 1.44-3.68 2.464-.256.48-.672.672-1.088.672-.735 0-1.407-.576-1.407-1.312 0-.992 2.27-4.576 6.175-4.576a6.03 6.03 0 0 1 6.016 6.016c0 1.28-.447 2.528-1.088 3.456l-7.327 11.167h7.327c.928 0 1.408.64 1.408 1.376 0 .672-.48 1.344-1.408 1.344zm15.617-19.838l-7.36 18.975c-.256.64-.64.896-1.184.896-.704 0-1.44-.544-1.44-1.344 0-.192.064-.352.128-.544l6.976-18.207h-8.543c-.704 0-1.345-.512-1.345-1.376 0-.736.608-1.344 1.345-1.344h10.527c.703 0 1.407.448 1.407 1.376 0 .384-.416 1.248-.512 1.568z"/></g><g fill="#8aea6a"><use xlink:href="#R"/><path d="M1018.512 458.976c-3.775 0-5.566-3.52-5.566-11.87s1.8-11.87 5.566-11.87 5.568 3.52 5.568 11.87-1.793 11.87-5.568 11.87zm0-21.822c-2.1 0-3.264 2.367-3.264 9.95s1.152 9.95 3.264 9.95 3.264-2.368 3.264-9.95-1.15-9.95-3.264-9.95zm7.295 21.5v-1.92h2.816v-18.56l-2.88.256v-1.408c1.3-.32 2.592-.896 3.646-1.8h1.537v21.502h2.688v1.92h-7.8zm17.535-18.815c-.318-2.304-1.6-2.687-2.494-2.687-2.05 0-3.328 2.815-3.393 9.247.928-.992 2.176-1.76 3.55-1.76 2.592 0 4.96 1.855 4.96 7.104 0 4.48-1.92 7.23-4.96 7.23-3.998 0-5.918-2.304-5.918-10.624 0-9.28 2.176-13.118 5.822-13.118 2.977 0 4.096 1.8 4.545 4.48l-2.113.128zm-5.95 10.88c0 4.672 1.217 6.336 3.264 6.336 1.793 0 3.008-1.344 3.008-5.344 0-4.128-1.408-5.15-2.88-5.15s-2.625.96-3.393 1.983v2.176z"/></g><g fill="#2ae12e"><use xlink:href="#S"/><use xlink:href="#T"/><path d="M1025.423 426.457v-1.92h2.816v-18.56l-2.88.256v-1.408c1.312-.32 2.592-.896 3.647-1.8h1.536v21.502h2.688v1.92h-7.808zm10.177-18.495c.256-2.72 1.728-4.927 4.703-4.927 2.592 0 5.152 1.8 5.152 5.63 0 3.264-1.344 5.12-3.008 5.44v.064c2.592.864 3.392 3.296 3.392 5.76 0 4.735-2.752 6.848-5.632 6.848-3.07 0-5.15-2.464-5.184-5.824h2.112c.2 2.496 1.28 3.904 3.327 3.904 1.536 0 3.072-1.664 3.072-4.832 0-3.808-1.6-4.896-5.248-4.896v-1.92c3.456 0 4.864-.832 4.864-4.416 0-2.75-1.088-3.84-2.688-3.84-1.983 0-2.687 1.663-2.752 3.264l-2.1-.257z"/></g><g fill="#09b44b"><use xlink:href="#R" x="0.513" y="-121.672"/><use xlink:href="#U"/><path d="M1025.68 336.983v-1.92h2.816v-18.56l-2.88.256v-1.408c1.313-.32 2.592-.896 3.648-1.79h1.535v21.502h2.688v1.92h-7.807z"/><use xlink:href="#U" x="22.013"/></g><g fill="#0b7053"><use xlink:href="#S" x="-1.919" y="-172.024"/><use xlink:href="#T" x="-1.928" y="-172.024"/><path d="M1029.137 254.753c-3.775 0-5.567-3.52-5.567-11.87s1.792-11.87 5.567-11.87 5.567 3.52 5.567 11.87-1.792 11.87-5.567 11.87zm0-21.822c-2.112 0-3.264 2.367-3.264 9.95s1.15 9.95 3.264 9.95 3.264-2.368 3.264-9.95-1.15-9.95-3.264-9.95zm6.463-1.6h10.367v1.216l-6.72 21.887h-2.432l6.72-21.183h-7.936v-1.92z"/></g><g opacity=".3" fill="#fff"><use xlink:href="#S" x="-3.135" y="-225.945"/><use xlink:href="#T" x="-3.135" y="-225.944"/><use xlink:href="#T" x="9.152" y="-225.944"/><path d="M1044.206 177.4v15.935h2.4v1.92h-2.4v5.248h-2.304v-5.248h-7.392v-1.088l6.336-16.767h3.36zm-7.52 15.935h5.216v-13.822h-.063l-5.152 13.822z"/></g><g fill="#fff"><path d="M61.058 42.382H38.62V54.5h15.72a2.56 2.56 0 0 1 2.58 2.58c0 1.38-1.02 2.58-2.58 2.58H38.62v17.82a2.58 2.58 0 0 1-2.521 2.52c-1.44 0-2.64-1.14-2.64-2.52V39.862c0-1.44 1.2-2.58 2.64-2.58h24.96c1.56 0 2.52 1.14 2.52 2.52 0 1.26-.9 2.58-2.52 2.58z"/><use xlink:href="#V"/><path d="M137.373 51.562l-9.3 26.34c-.48 1.32-1.32 2.1-2.64 2.1-1.26 0-1.98-.54-2.52-2.1l-7.02-19.8-7.08 19.8c-.48 1.44-1.32 2.1-2.58 2.1-1.2 0-2.04-.66-2.52-2.1l-9.24-26.34c-.12-.36-.12-.6-.12-.96 0-1.5 1.38-2.46 2.64-2.46.96 0 1.92.48 2.34 1.68l6.96 20.04 7.08-19.62c.48-1.38 1.08-2.1 2.52-2.1 1.32 0 2.04.66 2.52 2.1l7.02 19.62 7.02-20.04c.42-1.2 1.38-1.68 2.28-1.68 1.38 0 2.76 1.02 2.76 2.52 0 .3 0 .54-.12.9z"/><use xlink:href="#V" x="77.879"/><use xlink:href="#W"/><path d="M237.03 74.48c-2.94 4.08-7.14 6.54-13.38 6.54-12.9 0-17.46-10.68-17.46-22.38 0-11.76 4.56-22.44 17.46-22.44 6.06 0 10.5 2.4 13.32 6.54.42.54.54 1.02.54 1.5 0 1.44-1.26 2.52-2.64 2.52-.78 0-1.5-.36-2.04-1.08-1.86-2.7-4.62-4.32-9.18-4.32-8.52 0-12.3 6.3-12.3 17.28s3.78 17.28 12.3 17.28c4.56 0 7.32-1.74 9.18-4.38.54-.78 1.26-1.14 2.04-1.14 1.38 0 2.7 1.14 2.7 2.58 0 .48-.18.96-.54 1.5zm30.3 5.52c-1.32 0-2.52-.9-2.52-2.52V60.8c0-4.68-3.9-8.58-8.58-8.58-4.62 0-8.52 3.9-8.52 8.58v16.62c0 1.68-1.26 2.64-2.64 2.64-1.26 0-2.52-.9-2.52-2.58V39.862c0-1.74 1.26-2.58 2.52-2.58 1.38 0 2.64.84 2.64 2.52v10.38c2.22-2.1 5.22-3.06 8.52-3.06 7.44 0 13.68 6.18 13.68 13.68v16.62c0 1.68-1.2 2.58-2.58 2.58z"/><use xlink:href="#X"/><use xlink:href="#Y"/><path d="M325.41 79.94c-1.32 0-2.58-.84-2.58-2.52 0 0-3.54 3.6-9.9 3.6-9.66 0-15.06-7.92-15.06-16.98 0-9 5.4-16.92 15.06-16.92 4.2 0 7.56 1.44 9.9 3.9v-11.16c0-1.74 1.26-2.58 2.58-2.58s2.58.84 2.58 2.52V77.42c0 1.68-1.26 2.52-2.58 2.52zm-12.48-27.72c-6 0-9.9 4.68-9.9 11.82 0 7.2 3.9 11.88 9.9 11.88 6.06 0 9.9-4.68 9.9-11.88 0-7.14-3.84-11.82-9.9-11.82z"/><use xlink:href="#W" x="158.637"/><use xlink:href="#V" x="288.654"/><use xlink:href="#Z"/><path d="M463.707 80c-.9 0-1.8-.48-2.28-1.56l-3.18-7.8h-19.98l-3.24 7.8c-.48 1.08-1.38 1.56-2.22 1.56-1.32 0-2.7-1.02-2.7-2.52 0-.36.06-.72.24-1.02l15.42-37.498c.72-1.56 1.68-1.86 2.46-1.86.54 0 1.86.3 2.46 1.86l15.48 37.498c.12.3.18.66.18 1.02 0 1.5-1.26 2.52-2.64 2.52zm-15.48-33.6l-7.86 19.08h15.72l-7.86-19.08z"/><use xlink:href="#W" x="295.913"/><path d="M515.725 66.68h-22.2c.84 5.64 4.44 9.24 9.72 9.24 2.7 0 5.4-.96 7.14-3.12.54-.6 1.14-.96 1.86-.96 1.32 0 2.7 1.2 2.7 2.64 0 .72-.18 1.26-1.44 2.52-2.7 2.64-6.42 4.02-10.26 4.02-9.66 0-15.06-7.98-15.06-16.98 0-8.94 5.4-16.92 15.06-16.92 9.78 0 15 7.98 15 16.92 0 1.32-.96 2.64-2.52 2.64zm-12.48-14.46c-5.64 0-8.94 4.14-9.72 9.3h19.438c-.84-5.76-4.44-9.3-9.72-9.3zm48.6 27.78h-12.42c-1.38 0-2.64-1.26-2.64-2.52V39.862c0-1.38 1.26-2.58 2.64-2.58h12.42c12.36 0 16.438 10.2 16.438 21.3 0 11.16-4.08 21.42-16.438 21.42zm0-37.62h-9.9V74.9h9.9c7.74 0 11.28-5.7 11.28-16.32 0-10.44-3.54-16.2-11.28-16.2zm49.798 9.362l-16.2 36.838c-1.2 2.76-3.84 4.02-6.6 4.02h-1.92c-1.74 0-2.52-1.26-2.52-2.64 0-1.26.78-2.52 2.52-2.52h1.86c.78 0 1.62-.12 1.98-.96l3.96-8.88-11.7-25.86c-.24-.42-.3-.78-.3-1.14 0-1.5 1.44-2.52 2.76-2.52.9 0 1.68.48 2.16 1.56l9.78 21.72 9.54-21.72c.48-1.08 1.38-1.5 2.22-1.5 1.38 0 2.76 1.02 2.76 2.46 0 .42-.06.72-.3 1.14z"/><use xlink:href="#X" x="332.033"/><use xlink:href="#Z" x="231.596"/><path d="M665.424 93.68c-3.66 0-12.72-1.32-12.72-4.92 0-1.38 1.26-2.7 2.58-2.7 1.38 0 .18.18 3.36 1.38 1.44.54 3.6 1.14 6.78 1.14 6.66 0 9.9-3.18 9.9-9.48v-2.7c-2.34 2.22-5.7 3.6-9.9 3.6-9.48 0-15.06-6.72-15.06-15.96 0-9 5.4-16.92 15.06-16.92 4.2 0 7.44 1.26 9.9 3.84v-.24c0-1.68 1.38-2.58 2.58-2.58 1.26 0 2.58.9 2.58 2.58V79.1c0 9.54-5.7 14.58-15.06 14.58zm0-41.458c-6 0-9.9 4.68-9.9 11.82 0 6.84 3.6 10.86 9.9 10.86s9.9-4.02 9.9-10.86c0-7.14-3.84-11.82-9.9-11.82zm63.24-9.84h-22.44V54.5h15.72a2.56 2.56 0 0 1 2.58 2.58c0 1.38-1.02 2.58-2.58 2.58h-15.72v17.82a2.58 2.58 0 0 1-2.52 2.52c-1.44 0-2.64-1.14-2.64-2.52V39.862c0-1.44 1.2-2.58 2.64-2.58h24.96c1.56 0 2.52 1.14 2.52 2.52 0 1.26-.9 2.58-2.52 2.58z"/><use xlink:href="#W" x="558.287"/><path d="M767 81.02c-9.66 0-15.06-7.92-15.06-16.98 0-9 5.4-16.92 15.06-16.92s15.06 7.92 15.06 16.92c0 9.06-5.4 16.98-15.06 16.98zm0-28.8c-6 0-9.9 4.68-9.9 11.82 0 7.2 3.9 11.88 9.9 11.88 6.06 0 9.9-4.68 9.9-11.88 0-7.14-3.84-11.82-9.9-11.82zM826.04 80c-1.26 0-2.52-.9-2.52-2.52v-18.9c0-3.48-2.88-6.36-6.3-6.36-3.54 0-6.36 2.88-6.36 6.3v18.9c0 1.68-1.2 2.58-2.58 2.58-1.32 0-2.52-.9-2.52-2.52v-18.9c0-3.48-2.88-6.36-6.36-6.36s-6.36 2.88-6.36 6.3v18.9c0 1.68-1.26 2.58-2.64 2.58-1.26 0-2.52-.9-2.52-2.52V50.66c0-1.74 1.32-2.58 2.64-2.58.84 0 1.68.36 2.16 1.14a11.56 11.56 0 0 1 6.66-2.1c3.6 0 6.84 1.62 8.94 4.26 2.1-2.64 5.28-4.26 8.88-4.26 6.36 0 11.52 5.1 11.52 11.4v18.9c0 1.68-1.26 2.58-2.64 2.58zm58.378.06c-1.26 0-2.52-.9-2.52-2.58v-27.6L870.26 71.6c-.78 1.5-1.92 1.62-2.4 1.62-.3 0-1.56-.12-2.4-1.62L853.88 50v27.48c0 1.68-1.26 2.58-2.64 2.58-1.26 0-2.52-.9-2.52-2.58v-37.5c0-1.98 1.38-2.7 2.76-2.7.9 0 1.62.42 2.16 1.5l14.22 26.46 14.28-26.46c.6-1.2 1.32-1.5 2.34-1.5 1.32 0 2.58.84 2.58 2.7v37.5c0 1.68-1.26 2.58-2.64 2.58z"/><use xlink:href="#a"/><use xlink:href="#Y" x="643.79"/><path d="M972.617 80c-3.3 0-4.8-2.34-5.34-3.42-2.4 2.64-5.88 4.44-10.56 4.44-9.78 0-15.06-8.04-15.06-16.98s5.4-16.92 15.06-16.92c4.2 0 7.56 1.5 9.9 3.96v-.24c0-.66.24-2.7 2.52-2.7 1.26 0 2.64.66 2.64 2.52v23.16c0 .78.54 1.08.84 1.08 1.68 0 2.58 1.2 2.58 2.58 0 1.26-.9 2.52-2.58 2.52zm-15.9-27.78c-6 0-9.9 4.68-9.9 11.82 0 7.2 3.9 11.88 9.9 11.88 6.06 0 9.9-4.68 9.9-11.88 0-7.14-3.84-11.82-9.9-11.82z"/><use xlink:href="#W" x="805.305"/><use xlink:href="#X" x="727.366"/><use xlink:href="#a" x="119.998"/><path d="M52.313 103.077h-7.37v23.86c0 .684-.532 1.063-1.102 1.063-.494 0-1.064-.342-1.064-1.063v-23.86h-7.37c-.685 0-1.103-.494-1.103-1.064 0-.532.38-1.063 1.103-1.063h16.907c.684 0 1.063.53 1.063 1.063s-.38 1.064-1.063 1.064z"/><use xlink:href="#b"/><use xlink:href="#c"/><path d="M115.164 128c-.53 0-1.102-.38-1.102-1.063v-1.216c-1.596 1.86-3.913 2.925-6.497 2.925-4.71 0-8.663-3.95-8.663-8.662V108.89c0-.684.57-1.063 1.103-1.063.493 0 1.063.38 1.063 1.063v11.095a6.47 6.47 0 1 0 12.994 0V108.89c0-.684.57-1.063 1.102-1.063.494 0 1.064.38 1.064 1.063v18.048c0 .684-.57 1.063-1.064 1.063z"/><use xlink:href="#d"/><path d="M158 128h-.038c-1.254 0-3.04-.684-3.762-2.964-1.596 2.242-4.065 3.6-7.37 3.6-6.193 0-9.536-5.1-9.536-10.752 0-5.737 3.42-10.715 9.536-10.715 3.306 0 5.775 1.368 7.37 3.572v-1.862c0-.607.494-1.063 1.102-1.063.532 0 1.064.38 1.064 1.063v15.31c0 2.432 2.735.912 2.735 2.736A1.04 1.04 0 0 1 157.99 128zm-11.17-18.655c-4.483 0-7.37 3.6-7.37 8.55s2.888 8.587 7.37 8.587c4.52 0 7.37-3.647 7.37-8.587s-2.85-8.55-7.37-8.55zM178.055 128c-.53 0-1.102-.38-1.102-1.063v-11.095a6.47 6.47 0 0 0-6.497-6.497c-3.57 0-6.497 2.888-6.497 6.497v11.095c0 .684-.57 1.063-1.063 1.063-.532 0-1.103-.38-1.103-1.063V108.9c0-.684.57-1.063 1.103-1.063.494 0 1.063.38 1.063 1.063v1.216c1.7-1.86 3.95-2.926 6.497-2.926 4.7 0 8.663 3.914 8.663 8.663v11.095c0 .684-.57 1.063-1.064 1.063zm22.495 0c-.53 0-1.102-.38-1.102-1.063v-1.9c-1.596 2.242-4.065 3.6-7.37 3.6-6.117 0-9.536-5.015-9.536-10.752 0-5.7 3.42-10.715 9.536-10.715 3.306 0 5.775 1.368 7.37 3.572v-8.74c0-.684.57-1.063 1.102-1.063.494 0 1.064.38 1.064 1.063v24.925c0 .684-.57 1.063-1.064 1.063zm-8.473-18.655c-4.483 0-7.37 3.6-7.37 8.55s2.888 8.587 7.37 8.587c4.52 0 7.37-3.647 7.37-8.587s-2.85-8.55-7.37-8.55z"/><use xlink:href="#d" x="85.388"/><use xlink:href="#c" x="154.812"/><path d="M261 103.077h-1.178c-.912 0-1.672.76-1.672 1.633v3.116H261c.723 0 1.064.57 1.064 1.063 0 .532-.38 1.102-1.064 1.102h-2.85v16.946c0 .684-.53 1.063-1.063 1.063s-1.063-.342-1.063-1.063V110H253.4c-.684 0-1.063-.57-1.063-1.102 0-.494.38-1.063 1.063-1.063h2.622v-3.116a3.77 3.77 0 0 1 3.761-3.761H261c.685 0 1.103.53 1.103 1.102 0 .532-.38 1.026-1.103 1.026zM290.684 128c-.532 0-1.102-.38-1.102-1.063v-1.9c-1.596 2.242-4.065 3.6-7.37 3.6-6.117 0-9.536-5.015-9.536-10.752 0-5.7 3.42-10.715 9.536-10.715 3.306 0 5.775 1.368 7.37 3.572v-8.74c0-.684.57-1.063 1.102-1.063.494 0 1.064.38 1.064 1.063v24.925c0 .684-.57 1.063-1.064 1.063zm-8.473-18.655c-4.483 0-7.37 3.6-7.37 8.55s2.888 8.587 7.37 8.587c4.52 0 7.37-3.647 7.37-8.587s-2.85-8.55-7.37-8.55z"/><use xlink:href="#e"/><use xlink:href="#f"/><path d="M348.938 128h-1.178c-3 0-4.483-1.48-4.483-4.445V109.99h-1.937c-.684 0-1.063-.57-1.063-1.102 0-.494.38-1.063 1.063-1.063h1.938v-5.813c0-.684.57-1.063 1.103-1.063s1.063.38 1.063 1.063v5.813h3.495c.685 0 1.064.57 1.064 1.063 0 .532-.38 1.102-1.064 1.102h-3.495v13.564c0 1.86.532 2.28 2.317 2.28h1.178c.685 0 1.064.57 1.064 1.103 0 .493-.38 1.063-1.064 1.063z"/><use xlink:href="#b" x="297.044"/><path d="M380.67 128.722c-2.28 0-6.117-.798-7.447-3-.15-.23-.15-.418-.15-.57 0-.607.53-1.14 1.102-1.14.228 0 .607.2.836.532 1.367 1.67 3.8 2.014 5.66 2.014 3.686 0 5.547-1.216 5.547-3.686 0-5.737-12.462-2.698-12.462-10.297 0-3.837 3.837-5.32 7.295-5.32 1.976 0 5.015.685 6.535 2.204.228.228.342.494.342.722 0 .57-.57 1.14-1.178 1.14-.23 0-.494-.076-.722-.304-1.178-1.14-3.306-1.596-4.978-1.596-3.344 0-5.13 1.292-5.13 3.153 0 5.32 12.462 2.508 12.462 10.297 0 4.33-3.8 5.85-7.713 5.85zm29.03-.076c-3.306 0-5.775-1.367-7.37-3.6v9.84c0 .684-.57 1.102-1.063 1.102-.532 0-1.103-.418-1.103-1.102V108.9c0-.684.57-1.063 1.103-1.063.494 0 1.063.38 1.063 1.063v1.862c1.596-2.204 4.065-3.572 7.37-3.572 6.117 0 9.536 5.016 9.536 10.715 0 5.737-3.42 10.752-9.536 10.752zm0-19.3c-4.52 0-7.37 3.6-7.37 8.55s2.85 8.587 7.37 8.587 7.37-3.647 7.37-8.587-2.85-8.55-7.37-8.55zm30.438 9.65H424.37c.342 4.332 3.153 7.485 7.295 7.485 2.052 0 4.483-.912 5.585-2.622.267-.418.57-.53.912-.53.57 0 1.178.455 1.178 1.025 0 .342 0 .418-.722 1.254-1.748 2.052-4.293 3.04-6.953 3.04-6.117 0-9.536-5.015-9.536-10.752 0-5.7 3.42-10.715 9.536-10.715s9.537 5.054 9.537 10.715c0 .57-.532 1.102-1.064 1.102zm-8.473-9.65c-4.56 0-6.953 3.495-7.295 7.485h14.628c-.342-4.332-3.153-7.485-7.333-7.485z"/><use xlink:href="#g"/><path d="M481.67 109.345L471.373 133.7c-.76 1.786-2.317 2.28-4.064 2.28h-1.672c-.685 0-1.064-.57-1.064-1.102 0-.494.38-1.063 1.064-1.063h1.672c.835 0 1.71-.038 2.05-.912l2.166-5.167-7.865-18.4c-.075-.2-.075-.342-.075-.494 0-.607.53-1.025 1.102-1.025.342 0 .76.15.95.646l7.066 16.5 6.99-16.5c.19-.494.607-.646.987-.646.57 0 1.064.418 1.064 1.025 0 .152 0 .304-.076.494z"/><use xlink:href="#e" x="187.258"/><use xlink:href="#f" x="187.258"/><use xlink:href="#g" x="84.28"/></g><defs ><path id="C" d="M104.714 1045.51c-.633 0-1.267-.367-1.4-1.1-1.334 1.034-2.97 1.668-4.804 1.668-4.136 0-7.604-3.436-7.604-7.605v-9.24a1.37 1.37 0 0 1 1.4-1.435c.768 0 1.468.5 1.468 1.4v9.272c0 2.602 2.168 4.77 4.736 4.77 2.603 0 4.77-2.17 4.77-4.77v-9.24c0-1.034.667-1.468 1.4-1.468.768 0 1.435.5 1.435 1.435v14.9c0 .934-.667 1.4-1.4 1.4z"/><path id="D" d="M616.75 1046.357c-1.2 0-3.22-.42-3.92-1.58-.08-.12-.08-.22-.08-.3 0-.32.28-.602.58-.602.12 0 .32.102.44.28.72.88 2 1.06 2.98 1.06 1.94 0 2.92-.64 2.92-1.94 0-3.02-6.562-1.42-6.562-5.422 0-2.02 2.02-2.8 3.84-2.8 1.04 0 2.64.36 3.44 1.16.12.12.18.26.18.38a.65.65 0 0 1-.62.6c-.12 0-.26-.04-.38-.16-.62-.6-1.74-.84-2.62-.84-1.76 0-2.7.682-2.7 1.66 0 2.8 6.562 1.32 6.562 5.422 0 2.28-2 3.08-4.06 3.08z"/><path id="E" d="M627.47 1046.318c-3.22 0-5.02-2.64-5.02-5.662 0-3 1.8-5.64 5.02-5.64s5.02 2.64 5.02 5.64c0 3.02-1.8 5.662-5.02 5.662zm0-10.162c-2.36 0-3.88 1.9-3.88 4.5s1.52 4.52 3.88 4.52c2.38 0 3.88-1.92 3.88-4.52s-1.5-4.5-3.88-4.5z"/><path id="F" d="M643.25 1045.98c-.28 0-.58-.2-.58-.56v-.64c-.84.98-2.06 1.54-3.42 1.54-2.48 0-4.56-2.08-4.56-4.56v-5.842c0-.36.3-.56.58-.56.26 0 .56.2.56.56v5.842c0 1.9 1.52 3.42 3.42 3.42s3.42-1.52 3.42-3.42v-5.842c0-.36.3-.56.58-.56.26 0 .56.2.56.56v9.502a.56.56 0 0 1-.561.561z"/><path id="G" d="M651.21 1036.336a3.42 3.42 0 0 0-3.421 3.42v5.662c0 .36-.3.56-.56.56-.28 0-.58-.2-.58-.56v-9.502c0-.36.3-.56.58-.56.26 0 .56.2.56.56v.82c.9-.98 2.08-1.54 3.42-1.54.36 0 .58.3.58.56a.58.58 0 0 1-.58.58z"/><path id="H" d="M672.97 1041.236h-8.302c.18 2.28 1.66 3.94 3.84 3.94 1.08 0 2.36-.48 2.94-1.38.14-.22.3-.28.48-.28.3 0 .62.24.62.54 0 .18 0 .22-.38.658-.92 1.082-2.26 1.602-3.66 1.602-3.22 0-5.02-2.64-5.02-5.662 0-3 1.8-5.64 5.02-5.64s5.02 2.66 5.02 5.64c0 .3-.28.58-.56.58zm-4.46-5.08c-2.4 0-3.66 1.84-3.84 3.94h7.7c-.18-2.28-1.66-3.94-3.86-3.94z"/><path id="I" d="M690.59 1046.338c-2.74 0-5.02-2.2-5.02-5.02v-9.02c0-.36.3-.56.58-.56s.58.2.58.56v9.02c0 2.12 1.74 3.88 3.86 3.88s3.88-1.76 3.88-3.88v-9.02c0-.36.3-.56.58-.56.26 0 .56.2.56.56v9.02a5.01 5.01 0 0 1-5.021 5.021z"/><path id="J" d="M706.91 1045.98c-.28 0-.58-.2-.58-.56v-5.842c0-1.9-1.52-3.42-3.42-3.42a3.42 3.42 0 0 0-3.421 3.42v5.842c0 .36-.3.56-.56.56-.28 0-.58-.2-.58-.56v-9.502c0-.36.3-.56.58-.56.26 0 .56.2.56.56v.64c.9-.98 2.08-1.54 3.42-1.54a4.6 4.6 0 0 1 4.561 4.561v5.842c0 .36-.3.56-.56.56z"/><path id="K" d="M710.708 1033.436c-.64 0-1.14-.5-1.14-1.14s.5-1.14 1.14-1.14 1.14.5 1.14 1.14-.5 1.14-1.14 1.14zm0 12.543c-.28 0-.58-.18-.58-.56v-9.502c0-.36.28-.56.58-.56.26 0 .56.18.56.56v9.502c0 .36-.26.56-.56.56z"/><path id="L" d="M717.77 1045.98h-.62c-1.58 0-2.36-.78-2.36-2.342v-7.14h-1.02c-.36 0-.56-.3-.56-.58 0-.26.2-.56.56-.56h1.02v-3.06c0-.36.3-.56.58-.56s.56.2.56.56v3.06h1.84c.36 0 .56.3.56.56 0 .28-.2.58-.56.58h-1.84v7.14c0 .98.28 1.2 1.22 1.2h.62c.36 0 .56.3.56.58 0 .26-.2.56-.56.56z"/><path id="M" d="M741.13 1045.98c-.28 0-.58-.2-.58-.56v-1c-.84 1.18-2.14 1.9-3.88 1.9-3.22 0-5.02-2.64-5.02-5.662 0-3 1.8-5.64 5.02-5.64 1.74 0 3.04.72 3.88 1.88v-4.602c0-.36.3-.56.58-.56.26 0 .56.2.56.56v13.123c0 .36-.3.56-.56.56zm-4.46-9.822c-2.36 0-3.88 1.9-3.88 4.5s1.52 4.52 3.88 4.52c2.38 0 3.88-1.92 3.88-4.52s-1.5-4.5-3.88-4.5z"/><path id="N" d="M758.87 1045.998c-.18 0-.34-.12-.48-.32l-7.82-11.543v11.283c0 .36-.3.56-.56.56-.28 0-.58-.2-.58-.56v-13.123c0-.34.3-.6.6-.6.18 0 .34.12.48.32l7.822 11.54v-11.262c0-.36.3-.56.56-.56.28 0 .58.2.58.56v13.123c0 .34-.3.58-.6.58z"/><path id="O" d="M833.25 1044.137c-.98 1.36-2.38 2.182-4.46 2.182-4.3 0-5.82-3.56-5.82-7.46 0-3.922 1.52-7.482 5.82-7.482 2.02 0 3.5.8 4.44 2.18.1.102.12.2.12.32 0 .32-.3.56-.62.56-.16 0-.32-.06-.44-.22-.72-1.04-1.8-1.7-3.5-1.7-3.32 0-4.682 2.6-4.682 6.342 0 3.72 1.36 6.32 4.682 6.32 1.7 0 2.8-.64 3.54-1.7.1-.2.28-.26.44-.26.3 0 .6.26.6.58a.63.63 0 0 1-.12.34z"/><path id="P" d="M926.043 1032.855h-8.32v4.92h6.1a.55.55 0 0 1 .58.561c0 .28-.2.58-.56.58h-6.12v6.502c0 .36-.3.56-.56.56-.28 0-.58-.2-.58-.56v-13.123c0-.3.28-.56.58-.56h8.882a.55.55 0 0 1 .58.561.55.55 0 0 1-.58.561z"/><path id="Q" d="M115.308 264.34c-2.19 0-4.674-1.176-5.883-3.105-.163-.26-.23-.523-.23-.784 0-.752.653-1.34 1.405-1.34.62 0 .85.23 1.34.883.817 1.013 2.092 1.57 3.366 1.57 2.256 0 4.544-2.06 4.544-5 0-2.974-2.288-5.033-4.544-5.033-1.73 0-2.908.882-3.464 1.83-.262.5-.72.752-1.275.752-.85 0-1.405-.556-1.405-1.634v-10.36c0-.752.654-1.373 1.405-1.373h9.937c.947 0 1.438.653 1.438 1.405 0 .687-.458 1.373-1.373 1.373h-8.63v6.112c.784-.555 2.026-.882 3.366-.882 4.02 0 7.32 3.4 7.32 7.812 0 4.347-3.3 7.78-7.32 7.78z"/><path id="R" d="M1000.017 458.655v-1.92c2.05-6.848 8.447-10.687 8.447-15.935 0-2.432-1.215-3.647-2.783-3.647-1.824 0-3.168 1.407-3.36 4.863h-2.113c.256-5.248 2.625-6.783 5.408-6.783 3.04 0 5.152 2.048 5.152 5.887 0 5.76-5.184 7.552-8.64 15.615h8.768v1.92h-10.88z"/><path id="S" d="M1000.273 426.457v-1.92c2.048-6.848 8.447-10.687 8.447-15.935 0-2.432-1.216-3.647-2.784-3.647-1.823 0-3.168 1.407-3.36 4.863h-2.112c.256-5.248 2.624-6.783 5.408-6.783 3.04 0 5.15 2.048 5.15 5.887 0 5.76-5.184 7.552-8.64 15.615h8.768v1.92h-10.88z"/><path id="T" d="M1018.128 426.777c-3.775 0-5.567-3.52-5.567-11.87s1.792-11.87 5.567-11.87 5.567 3.52 5.567 11.87-1.792 11.87-5.567 11.87zm0-21.822c-2.112 0-3.264 2.367-3.264 9.95s1.15 9.95 3.264 9.95 3.264-2.368 3.264-9.95-1.152-9.95-3.264-9.95z"/><path id="U" d="M1018.385 337.303c-3.775 0-5.568-3.52-5.568-11.87s1.793-11.87 5.568-11.87 5.566 3.52 5.566 11.87-1.79 11.87-5.566 11.87zm0-21.822c-2.113 0-3.264 2.367-3.264 9.95s1.15 9.95 3.264 9.95 3.264-2.368 3.264-9.95-1.152-9.95-3.264-9.95z"/><path id="V" d="M89.794 66.68h-22.2c.84 5.64 4.44 9.24 9.72 9.24 2.7 0 5.4-.96 7.14-3.12.54-.6 1.14-.96 1.86-.96 1.32 0 2.7 1.2 2.7 2.64 0 .72-.18 1.26-1.44 2.52-2.7 2.64-6.42 4.02-10.26 4.02-9.66 0-15.06-7.98-15.06-16.98 0-8.94 5.4-16.92 15.06-16.92 9.78 0 15 7.98 15 16.92 0 1.32-.96 2.64-2.52 2.64zm-12.48-14.46c-5.64 0-8.94 4.14-9.72 9.3h19.44c-.84-5.76-4.44-9.3-9.72-9.3z"/><path id="W" d="M189.033 52.222c-4.62 0-8.52 3.9-8.52 8.58v16.62c0 1.68-1.26 2.58-2.64 2.58-1.26 0-2.52-.9-2.52-2.52v-26.76c0-1.68 1.38-2.58 2.52-2.58 1.2 0 2.34.66 2.58 2.04 2.34-1.92 5.52-3.06 8.58-3.06 1.74 0 2.64 1.2 2.64 2.58 0 1.32-.9 2.52-2.64 2.52z"/><path id="X" d="M276.932 43.282a4.3 4.3 0 1 1 0-8.64 4.3 4.3 0 1 1 0 8.64zm0 36.72c-1.32 0-2.64-.9-2.64-2.52v-26.76c0-1.68 1.32-2.58 2.64-2.58 1.26 0 2.52.9 2.52 2.58v26.76c0 1.68-1.26 2.52-2.52 2.52z"/><path id="Y" d="M292.53 80.12c-3.24 0-6-2.76-6-6.12V39.862c0-1.74 1.26-2.58 2.58-2.58s2.58.84 2.58 2.52V74c0 .72.54 1.02.84 1.02 1.68 0 2.58 1.2 2.58 2.58 0 1.32-.9 2.52-2.58 2.52z"/><path id="Z" d="M410.908 80c-1.32 0-2.52-.9-2.52-2.52V60.8c0-4.68-3.9-8.58-8.58-8.58-4.62 0-8.52 3.9-8.52 8.58v16.62c0 1.68-1.26 2.64-2.64 2.64-1.26 0-2.52-.9-2.52-2.58v-26.82c0-1.74 1.26-2.52 2.52-2.52 1.2 0 2.28.66 2.58 1.98 2.34-1.86 5.28-3 8.58-3 7.44 0 13.68 6.18 13.68 13.68v16.62c0 1.68-1.2 2.58-2.58 2.58z"/><path id="a" d="M923.838 80c-3.3 0-4.8-2.34-5.34-3.42-2.4 2.64-5.88 4.44-10.56 4.44-9.78 0-15.06-8.04-15.06-16.98s5.4-16.92 15.06-16.92c4.2 0 7.56 1.5 9.9 3.96v-.24c0-.66.24-2.7 2.52-2.7 1.26 0 2.64.66 2.64 2.52v23.16c0 .78.54 1.08.84 1.08 1.68 0 2.58 1.2 2.58 2.58 0 1.26-.9 2.52-2.58 2.52zm-15.898-27.78c-6 0-9.9 4.68-9.9 11.82 0 7.2 3.9 11.88 9.9 11.88 6.06 0 9.9-4.68 9.9-11.88 0-7.14-3.84-11.82-9.9-11.82z"/><path id="b" d="M71.92 128c-.53 0-1.102-.38-1.102-1.063v-11.095a6.47 6.47 0 0 0-6.497-6.497c-3.57 0-6.497 2.888-6.497 6.497v11.095c0 .684-.57 1.063-1.063 1.063-.532 0-1.103-.38-1.103-1.063v-24.925c0-.684.57-1.063 1.103-1.063.494 0 1.063.38 1.063 1.063v8.093c1.596-1.86 3.913-2.926 6.497-2.926 4.71 0 8.663 3.914 8.663 8.663v11.095c0 .684-.57 1.063-1.064 1.063z"/><path id="c" d="M85.944 128.646c-6.117 0-9.536-5.015-9.536-10.752 0-5.7 3.42-10.715 9.536-10.715s9.537 5.016 9.537 10.715c0 5.737-3.42 10.752-9.537 10.752zm0-19.3c-4.483 0-7.37 3.61-7.37 8.55s2.888 8.587 7.37 8.587c4.52 0 7.37-3.647 7.37-8.587s-2.85-8.55-7.37-8.55z"/><path id="d" d="M127.212 128.722c-2.28 0-6.117-.798-7.447-3-.15-.23-.15-.418-.15-.57 0-.607.53-1.14 1.102-1.14.228 0 .607.19.836.532 1.367 1.67 3.8 2.014 5.66 2.014 3.686 0 5.547-1.216 5.547-3.686 0-5.737-12.462-2.698-12.462-10.297 0-3.837 3.837-5.32 7.295-5.32 1.976 0 5.016.685 6.535 2.204.228.228.342.494.342.722 0 .57-.57 1.14-1.178 1.14-.23 0-.494-.076-.722-.304-1.18-1.14-3.306-1.596-4.978-1.596-3.344 0-5.13 1.292-5.13 3.153 0 5.32 12.462 2.508 12.462 10.297 0 4.33-3.8 5.85-7.713 5.85z"/><path id="e" d="M313.522 118.996h-15.768c.342 4.332 3.153 7.485 7.295 7.485 2.052 0 4.483-.912 5.585-2.622.267-.418.57-.53.912-.53.57 0 1.178.455 1.178 1.025 0 .342 0 .418-.722 1.254-1.748 2.052-4.293 3.04-6.953 3.04-6.117 0-9.536-5.015-9.536-10.752 0-5.7 3.42-10.715 9.536-10.715s9.537 5.054 9.537 10.715c0 .57-.532 1.102-1.064 1.102zm-8.473-9.65c-4.56 0-6.953 3.495-7.295 7.485h14.628c-.342-4.332-3.153-7.485-7.333-7.485z"/><path id="f" d="M338.184 128h-.038c-1.254 0-3.04-.684-3.762-2.964-1.596 2.242-4.065 3.61-7.37 3.61-6.193 0-9.536-5.09-9.536-10.752 0-5.737 3.42-10.715 9.536-10.715 3.306 0 5.775 1.368 7.37 3.572v-1.862c0-.607.494-1.063 1.102-1.063.532 0 1.064.38 1.064 1.063V124.2c0 2.432 2.735.912 2.735 2.736a1.04 1.04 0 0 1-1.102 1.063zm-11.17-18.655c-4.483 0-7.37 3.61-7.37 8.55s2.888 8.587 7.37 8.587c4.52 0 7.37-3.647 7.37-8.587s-2.85-8.55-7.37-8.55z"/><path id="g" d="M453.628 109.687c-3.57 0-6.497 2.888-6.497 6.497v10.753c0 .684-.57 1.063-1.063 1.063-.532 0-1.103-.38-1.103-1.063V108.89c0-.684.57-1.063 1.103-1.063.494 0 1.063.38 1.063 1.063v1.558c1.7-1.86 3.95-2.925 6.497-2.925.684 0 1.102.57 1.102 1.063 0 .532-.418 1.102-1.102 1.102z"/></defs></svg>