<svg xmlns="http://www.w3.org/2000/svg" xmlns:xlink="http://www.w3.org/1999/xlink" viewBox="0 0 1080 1080"><defs><linearGradient id="A" x1="11.716" y1="11.716" x2="1068.284" y2="1068.284" gradientUnits="userSpaceOnUse"><stop offset="0" stop-color="#8a2387"/><stop offset=".325" stop-color="#cb3766"/><stop offset=".5" stop-color="#e94057"/><stop offset=".646" stop-color="#ec5243"/><stop offset=".866" stop-color="#f0692a"/><stop offset="1" stop-color="#f27121"/></linearGradient><linearGradient id="B" x1="157.989" y1="202.989" x2="922.011" y2="967.011" gradientUnits="userSpaceOnUse"><stop offset="0" stop-color="#132d76"/><stop offset="1" stop-color="#13682b"/></linearGradient><path id="C" d="M106.614 1045.51a1.36 1.36 0 0 1-1.4-1.101 7.763 7.763 0 0 1-4.804 1.668 7.666 7.666 0 0 1-7.604-7.605v-9.24a1.434 1.434 0 0 1 2.868-.033v9.272a4.753 4.753 0 1 0 9.507 0v-9.24a1.33 1.33 0 0 1 1.4-1.468 1.364 1.364 0 0 1 1.435 1.435v14.9a1.328 1.328 0 0 1-1.401 1.4z"/><path id="D" d="M623.546 1046.357c-1.2 0-3.22-.42-3.92-1.58a.478.478 0 0 1-.08-.299.546.546 0 0 1 1.021-.32 3.815 3.815 0 0 0 2.98 1.061c1.94 0 2.92-.64 2.92-1.94 0-3.02-6.562-1.42-6.562-5.422 0-2.02 2.02-2.8 3.84-2.8a5.415 5.415 0 0 1 3.44 1.16.556.556 0 0 1 .18.379.647.647 0 0 1-.62.6.527.527 0 0 1-.38-.16 4.001 4.001 0 0 0-2.62-.84c-1.76 0-2.7.682-2.7 1.66 0 2.8 6.562 1.32 6.562 5.422 0 2.28-2 3.08-4.06 3.08z"/><path id="E" d="M650.047 1045.98a.563.563 0 0 1-.58-.561v-.64a4.443 4.443 0 0 1-3.421 1.541 4.61 4.61 0 0 1-4.561-4.561v-5.842a.57.57 0 0 1 1.14 0v5.842a3.421 3.421 0 0 0 6.842 0v-5.842a.57.57 0 0 1 1.141 0v9.502a.559.559 0 0 1-.561.561z"/><path id="F" d="M658.006 1036.336a3.418 3.418 0 0 0-3.421 3.42v5.662a.57.57 0 0 1-1.141 0v-9.502a.57.57 0 0 1 1.141 0v.82a4.566 4.566 0 0 1 3.421-1.541.57.57 0 1 1 0 1.141z"/><path id="G" d="M679.767 1041.236h-8.302c.18 2.28 1.66 3.94 3.84 3.94a3.615 3.615 0 0 0 2.94-1.381.526.526 0 0 1 .479-.279.611.611 0 0 1 .62.541c0 .18 0 .22-.38.658a4.718 4.718 0 0 1-3.66 1.602c-3.22 0-5.02-2.64-5.02-5.662 0-3 1.8-5.64 5.02-5.64s5.02 2.66 5.02 5.64a.605.605 0 0 1-.56.58zm-4.46-5.08c-2.4 0-3.66 1.84-3.84 3.94h7.7c-.18-2.28-1.66-3.94-3.86-3.94z"/><path id="H" d="M722.966 1045.98a.563.563 0 0 1-.58-.561v-5.842a3.42 3.42 0 0 0-6.841 0v5.842a.57.57 0 0 1-1.141 0v-9.502a.57.57 0 0 1 1.141 0v.64a4.563 4.563 0 0 1 7.981 3.02v5.842a.558.558 0 0 1-.561.561z"/><path id="I" d="M798.746 1045.98h-.02a2.073 2.073 0 0 1-1.98-1.561 4.538 4.538 0 0 1-3.88 1.9c-3.26 0-5.02-2.682-5.02-5.662 0-3.02 1.8-5.64 5.02-5.64a4.572 4.572 0 0 1 3.88 1.881v-.98a.565.565 0 0 1 .581-.561.547.547 0 0 1 .56.561v8.063c0 1.28 1.44.48 1.44 1.44a.55.55 0 0 1-.58.561zm-5.88-9.822c-2.36 0-3.88 1.9-3.88 4.5s1.52 4.52 3.88 4.52c2.38 0 3.88-1.92 3.88-4.52s-1.5-4.5-3.88-4.5z"/><path id="J" d="M804.804 1045.98h-.62a2.075 2.075 0 0 1-2.36-2.342v-7.14h-1.02a.57.57 0 0 1 0-1.141h1.02v-3.06a.563.563 0 0 1 .58-.561.547.547 0 0 1 .56.561v3.06h1.84a.57.57 0 0 1 0 1.141h-1.84v7.14c0 .98.28 1.2 1.22 1.2h.62a.57.57 0 0 1 0 1.141z"/><path id="K" d="M915.138 1033.436a1.141 1.141 0 1 1 1.141-1.141 1.127 1.127 0 0 1-1.141 1.141zm0 12.543a.55.55 0 0 1-.58-.561v-9.502a.552.552 0 0 1 .58-.561.545.545 0 0 1 .561.561v9.502a.536.536 0 0 1-.561.561z"/><path id="L" d="M208.932 66.68h-22.2c.84 5.64 4.44 9.24 9.72 9.24a9.006 9.006 0 0 0 7.14-3.119 2.482 2.482 0 0 1 1.86-.96 2.8 2.8 0 0 1 2.7 2.64c0 .72-.18 1.26-1.44 2.52a14.62 14.62 0 0 1-10.26 4.021c-9.66 0-15.06-7.98-15.06-16.98 0-8.94 5.4-16.92 15.06-16.92 9.78 0 15 7.98 15 16.92a2.558 2.558 0 0 1-2.52 2.64zm-12.48-14.46c-5.64 0-8.94 4.14-9.72 9.3h19.44c-.84-5.76-4.44-9.3-9.72-9.3z"/><path id="M" d="M230.592 43.28a4.32 4.32 0 1 1 4.32-4.319 4.302 4.302 0 0 1-4.32 4.319zm0 36.72a2.52 2.52 0 0 1-2.64-2.52v-26.76a2.533 2.533 0 0 1 2.64-2.58 2.472 2.472 0 0 1 2.52 2.58v26.76a2.421 2.421 0 0 1-2.52 2.52z"/><path id="N" d="M483.666 81.02c-3.3 0-8.82-1.02-11.64-4.5a2.655 2.655 0 0 1 2.16-4.26 2.464 2.464 0 0 1 1.86 1.02c1.86 2.04 4.92 2.64 7.62 2.64 5.4 0 7.14-1.86 7.14-4.56 0-7.68-18.3-2.94-18.3-15.3 0-6.54 6.12-8.94 11.82-8.94 3.24 0 10.86 1.62 10.86 4.98a2.694 2.694 0 0 1-2.52 2.699 3.615 3.615 0 0 1-1.98-.779c-1.62-1.38-3.96-1.8-6.36-1.8-4.98 0-6.72 1.86-6.72 3.84 0 7.14 18.36 2.52 18.36 15.3 0 7.08-5.94 9.66-12.3 9.66z"/><path id="O" d="M621.65 80a5.839 5.839 0 0 1-5.34-3.42 13.745 13.745 0 0 1-10.56 4.44c-9.78 0-15.06-8.04-15.06-16.98s5.4-16.92 15.06-16.92a13.257 13.257 0 0 1 9.899 3.96v-.24a2.476 2.476 0 0 1 2.521-2.7 2.412 2.412 0 0 1 2.64 2.52v23.16a.971.971 0 0 0 .84 1.08 2.55 2.55 0 1 1 0 5.1zm-15.9-27.778c-6 0-9.9 4.68-9.9 11.82 0 7.2 3.9 11.88 9.9 11.88 6.06 0 9.9-4.68 9.9-11.88 0-7.14-3.84-11.82-9.9-11.82z"/><path id="P" d="M721.37 81.02c-9.66 0-15.06-7.92-15.06-16.98 0-9 5.4-16.92 15.06-16.92s15.06 7.92 15.06 16.92c0 9.06-5.4 16.98-15.06 16.98zm0-28.8c-6 0-9.9 4.68-9.9 11.82 0 7.2 3.9 11.88 9.9 11.88 6.06 0 9.9-4.68 9.9-11.88 0-7.14-3.84-11.82-9.9-11.82z"/><path id="Q" d="M513.33 141.32a6.122 6.122 0 0 1-6-6.12v-34.138a2.58 2.58 0 0 1 5.16-.061V135.2a.947.947 0 0 0 .84 1.02 2.55 2.55 0 1 1 0 5.1z"/></defs><rect width="1080" height="1080" rx="40" fill="url(#A)"/><g opacity=".3" fill="#fff"><path d="M44.228 1046.045a7.892 7.892 0 0 1-5.503-2.002 1.364 1.364 0 0 1-1.468 1.401 1.346 1.346 0 0 1-1.401-1.401v-20.88a1.435 1.435 0 0 1 2.869-.033v6.238a7.4 7.4 0 0 1 5.503-2.169c5.37 0 8.373 4.403 8.373 9.406 0 5.037-3.002 9.44-8.373 9.44zm0-16c-3.335 0-5.503 2.602-5.503 6.57 0 4.003 2.168 6.604 5.503 6.604s5.504-2.602 5.504-6.604c0-3.97-2.168-6.57-5.504-6.57zm25.555 8.037h-12.34c.467 3.136 2.468 5.137 5.403 5.137a5.003 5.003 0 0 0 3.969-1.734 1.383 1.383 0 0 1 1.034-.533 1.556 1.556 0 0 1 1.501 1.468c0 .4-.1.7-.8 1.4a8.129 8.129 0 0 1-5.704 2.235c-5.37 0-8.372-4.437-8.372-9.44 0-4.97 3.002-9.406 8.372-9.406 5.437 0 8.34 4.437 8.34 9.406a1.422 1.422 0 0 1-1.401 1.468zm-6.937-8.038c-3.136 0-4.97 2.3-5.403 5.17H68.25c-.467-3.202-2.468-5.17-5.403-5.17zm27.054 15.444a3.247 3.247 0 0 1-2.969-1.901 7.642 7.642 0 0 1-5.87 2.469c-5.437 0-8.372-4.47-8.372-9.44s3.002-9.406 8.372-9.406a7.369 7.369 0 0 1 5.504 2.202v-.134a1.376 1.376 0 0 1 1.4-1.501 1.341 1.341 0 0 1 1.468 1.401v12.875a.54.54 0 0 0 .467.601 1.418 1.418 0 1 1 0 2.835zm-8.84-15.443c-3.336 0-5.504 2.602-5.504 6.57 0 4.003 2.168 6.604 5.504 6.604 3.37 0 5.504-2.602 5.504-6.604 0-3.97-2.135-6.57-5.504-6.57z"/><use xlink:href="#C"/><path d="M117.058 1045.478h-.567c-3.17 0-4.37-1.668-4.37-4.403V1030.6h-1a1.418 1.418 0 1 1-.033-2.835h1v-4.637a1.355 1.355 0 0 1 1.435-1.4 1.328 1.328 0 0 1 1.401 1.4v4.637h2.135a1.383 1.383 0 0 1 1.4 1.401 1.356 1.356 0 0 1-1.4 1.434h-2.135v10.774c0 .934.333 1.268 1.268 1.268h.833a1.376 1.376 0 0 1 1.435 1.4 1.357 1.357 0 0 1-1.4 1.435zm4.604-20.415a2.401 2.401 0 1 1 2.402-2.401 2.392 2.392 0 0 1-2.402 2.401zm0 20.414a1.4 1.4 0 0 1-1.467-1.401V1029.2a1.408 1.408 0 0 1 1.467-1.435 1.374 1.374 0 0 1 1.401 1.435v14.876a1.346 1.346 0 0 1-1.401 1.401zm10.376-14.877h-1.5v13.442a1.364 1.364 0 0 1-1.468 1.401 1.346 1.346 0 0 1-1.401-1.401V1030.6h-1.37a1.418 1.418 0 0 1 0-2.835h1.367v-2.27a3.801 3.801 0 0 1 3.836-3.769 1.418 1.418 0 1 1 0 2.835.934.934 0 0 0-.967.9v2.302h1.5a1.418 1.418 0 1 1 0 2.835z"/><use xlink:href="#C" x="42.068"/><path d="M156.625 1045.544a3.403 3.403 0 0 1-3.336-3.402v-18.98a1.435 1.435 0 0 1 2.869-.033v19.013a.527.527 0 0 0 .467.567 1.418 1.418 0 1 1 0 2.835zm15.37-.066v-1.264c1.886-.237 2.046-.437 2.046-3.157v-6.7c0-2.8-1.248-4.017-3.064-4.017a5.597 5.597 0 0 0-3.47 1.493v9.476c0 2.527.187 2.658 2.06 2.896v1.264h-8.968v-1.264c2.254-.33 2.5-.4 2.5-3v-8.2c0-2.446-.303-2.565-2.185-2.922v-1.184a34.101 34.101 0 0 0 6.653-1.533l-.052 2.95 2.6-1.745a5.659 5.659 0 0 1 3.159-1.086c3.194 0 5.2 2.338 5.2 6.3v7.5c0 2.54.237 2.657 2.277 2.92v1.264zm23.9-3.703c-2.458 3.427-5.488 4.178-7.014 4.178-5.142 0-8.124-3.936-8.124-8.594a10.333 10.333 0 0 1 2.832-7.062 8.602 8.602 0 0 1 6.082-2.814 6.386 6.386 0 0 1 6.37 6.347c-.014.715-.08 1.277-.612 1.4-.767.184-6.17.5-10.318.647.062 4.587 2.717 6.74 5.556 6.74a6.776 6.776 0 0 0 4.543-1.866zm-7.07-12.7c-1.667 0-3.167 1.807-3.516 4.963l5.486-.118c.6-.026.848-.146.848-.792.04-2.022-1.037-4.053-2.818-4.053zm34.284.145c-1.943.343-2.248.624-3.105 2.765-1.33 3.462-3.102 8.53-4.934 13.94h-1.512l-4.65-11.46-4.55 11.46h-1.472l-4.685-14.192c-.687-1.985-.94-2.274-2.855-2.512v-1.25h9.397v1.25c-2.325.345-2.535.672-2.058 2.133l2.52 8.214c1.507-3.68 2.988-7.62 4.327-11.424H211c1.4 3.76 2.986 7.702 4.573 11.568.742-2.107 2.062-5.964 2.557-8.108.412-1.674-.008-2.078-2.753-2.383v-1.25h7.742zm9.4 3.746c-.92-2.606-2.155-3.984-4.2-3.984a2.166 2.166 0 0 0-2.225 2.266c0 1.497 1.046 2.264 3.16 3.216 3.278 1.496 5.3 2.787 5.3 5.736 0 3.85-3.6 5.764-6.945 5.764a12.073 12.073 0 0 1-4.92-1.161l-.662-4.892 1.252-.224c.8 2.5 2.33 4.75 4.976 4.75a2.231 2.231 0 0 0 2.438-2.281c0-1.423-.76-2.333-3.092-3.467-2.67-1.295-5.107-2.64-5.107-5.775 0-3.046 2.533-5.42 6.565-5.42a18.751 18.751 0 0 1 4.112.567l.62 4.577z"/></g><g opacity=".7" fill="#fff"><use xlink:href="#D"/><path d="M634.267 1046.318c-3.22 0-5.02-2.64-5.02-5.662 0-3 1.8-5.64 5.02-5.64s5.02 2.64 5.02 5.64c0 3.02-1.8 5.662-5.02 5.662zm0-10.162c-2.36 0-3.88 1.9-3.88 4.5s1.52 4.52 3.88 4.52c2.38 0 3.88-1.92 3.88-4.52s-1.5-4.5-3.88-4.5z"/><use xlink:href="#E"/><use xlink:href="#F"/><path d="M668.187 1044.797a4.646 4.646 0 0 1-3.58 1.521c-3.22 0-5.02-2.64-5.02-5.662 0-3 1.8-5.64 5.02-5.64a4.651 4.651 0 0 1 3.58 1.52.534.534 0 0 1 .16.381.626.626 0 0 1-.58.6.586.586 0 0 1-.42-.199 3.526 3.526 0 0 0-2.74-1.16c-2.36 0-3.88 1.9-3.88 4.5s1.52 4.52 3.88 4.52a3.592 3.592 0 0 0 2.74-1.16.586.586 0 0 1 .42-.199.594.594 0 0 1 .58.58.569.569 0 0 1-.16.398z"/><use xlink:href="#G"/><use xlink:href="#D" x="62.499"/><path d="M693.245 1039.416a1.14 1.14 0 1 1 0-2.279 1.14 1.14 0 0 1 0 2.279zm0 6.563a1.141 1.141 0 1 1 0-2.281 1.141 1.141 0 0 1 0 2.281zm18.202.001h-8.882a.607.607 0 0 1-.58-.561v-13.123a.59.59 0 0 1 .58-.561h8.882a.561.561 0 1 1 0 1.121h-8.32v4.92h6.1a.551.551 0 0 1 .58.561.561.561 0 0 1-.56.58h-6.12v5.922h8.32a.567.567 0 0 1 .58.58.55.55 0 0 1-.58.56z"/><use xlink:href="#H"/><use xlink:href="#G" x="55.439"/><use xlink:href="#F" x="84.7"/><path d="M749.305 1050.54c-1.7 0-4.102-.64-4.102-1.36a.636.636 0 0 1 .58-.641 7.13 7.13 0 0 1 1.061.48 7.513 7.513 0 0 0 2.461.379c2.56 0 3.88-1.26 3.88-3.72v-1.4a4.773 4.773 0 0 1-3.88 1.701c-3.16 0-5.02-2.24-5.02-5.322 0-3 1.8-5.64 5.02-5.64a4.572 4.572 0 0 1 3.88 1.881v-.96a.571.571 0 0 1 1.141 0v9.742c0 3.182-1.9 4.86-5.02 4.86zm0-14.383c-2.36 0-3.88 1.9-3.88 4.5 0 2.582 1.42 4.182 3.88 4.182s3.88-1.6 3.88-4.182c0-2.6-1.5-4.5-3.88-4.5zm16.48-.001l-5.42 12.822a2.072 2.072 0 0 1-2.141 1.201h-.88a.563.563 0 0 1-.56-.58.557.557 0 0 1 .56-.561h.88c.44 0 .9-.02 1.08-.48l1.14-2.72-4.142-9.682a.633.633 0 0 1-.04-.26.56.56 0 0 1 .58-.541.513.513 0 0 1 .5.34l3.722 8.682 3.68-8.682a.521.521 0 0 1 .52-.34.543.543 0 0 1 .561.541.633.633 0 0 1-.04.26zm19.1 9.824a.547.547 0 0 1-.561-.561v-10.863l-4.76 8.844a.528.528 0 0 1-.46.359.622.622 0 0 1-.541-.359l-4.74-8.844v10.863a.57.57 0 0 1-1.141 0v-13.123a.581.581 0 0 1 .601-.561.522.522 0 0 1 .479.281l5.302 9.902 5.32-9.902a.543.543 0 0 1 .48-.281.582.582 0 0 1 .601.561v13.123a.563.563 0 0 1-.58.561z"/><use xlink:href="#I"/><use xlink:href="#J"/><use xlink:href="#J" x="6.04"/><use xlink:href="#G" x="142.479"/><use xlink:href="#F" x="171.739"/><use xlink:href="#D" x="211.577"/><path d="M842.082 1047.758a.513.513 0 0 1-.3.08.559.559 0 0 1-.54-.58c0-.56.86-.64 1-1.28a1.152 1.152 0 0 1 .08-2.301c.98 0 1.2 1 1.2 1.62a2.852 2.852 0 0 1-1.44 2.459zm19.483-1.778a.585.585 0 0 1-.521-.34l-1.28-3.082h-7.2l-1.28 3.082a.564.564 0 0 1-1.081-.201.589.589 0 0 1 .04-.26l5.4-13.104a.632.632 0 0 1 .58-.379.516.516 0 0 1 .48.379l5.4 13.104a.589.589 0 0 1 .04.26.56.56 0 0 1-.58.541zm-5.4-12.184l-3.14 7.623h6.3z"/><use xlink:href="#E" x="222.217"/><path d="M879.003 1046.357c-1.2 0-3.22-.42-3.92-1.58a.478.478 0 0 1-.08-.299.546.546 0 0 1 1.02-.32 3.815 3.815 0 0 0 2.98 1.061c1.94 0 2.92-.64 2.92-1.94 0-3.02-6.562-1.42-6.562-5.422 0-2.02 2.02-2.8 3.84-2.8a5.415 5.415 0 0 1 3.44 1.16.556.556 0 0 1 .18.379.647.647 0 0 1-.62.6.527.527 0 0 1-.38-.16 4.001 4.001 0 0 0-2.62-.84c-1.76 0-2.7.682-2.7 1.66 0 2.8 6.562 1.32 6.562 5.422 0 2.28-2 3.08-4.06 3.08z"/><use xlink:href="#J" x="84.02"/><use xlink:href="#F" x="237.757"/><use xlink:href="#I" x="109.034"/><path d="M912.16 1046.098a2.096 2.096 0 0 1-1.98-2.119v-11.684a.57.57 0 0 1 1.141 0v11.684c0 1.28 1.42.54 1.42 1.44a.645.645 0 0 1-.58.68z"/><use xlink:href="#K"/><use xlink:href="#I" x="130.234"/><use xlink:href="#H" x="216.974"/><path d="M954.058 1039.816h-4.86v5.602a.57.57 0 0 1-1.141 0v-13.123a.59.59 0 0 1 .58-.561h5.4a4.041 4.041 0 1 1 .02 8.082zm0-6.96h-4.86v5.82h4.84a2.91 2.91 0 1 0 .02-5.82zm15.86-.38l-4.44 13.123a.563.563 0 0 1-.521.381.583.583 0 0 1-.56-.381l-4.44-13.123a.862.862 0 0 1-.04-.219.569.569 0 0 1 .58-.521.521.521 0 0 1 .52.381l3.9 11.52 3.92-11.52a.579.579 0 0 1 1.12.141.821.821 0 0 1-.04.219zm9.26 13.505h-2.28a.571.571 0 1 1 0-1.141h.56v-11.982h-.56a.561.561 0 1 1 0-1.121h2.28a.561.561 0 1 1 0 1.121h-.58v11.982h.58a.571.571 0 0 1 0 1.141z"/><use xlink:href="#H" x="267.732"/><use xlink:href="#D" x="373.711"/><use xlink:href="#J" x="202.274"/><use xlink:href="#K" x="94.899"/><use xlink:href="#J" x="212.293"/><use xlink:href="#E" x="377.811"/><use xlink:href="#J" x="230.113"/><use xlink:href="#G" x="366.553"/></g><path d="M252.967 358.732h49.783v49.783h-49.783zm157.606-11.97a164.176 164.176 0 1 1-164.176-164.176 164.176 164.176 0 0 1 164.176 164.176zm-60.543-17.203l-38.065-36.21v-51.532H289.06v29.743l-34.578-32.894-7.535-7.086-7.535 7.086-96.647 91.994 15.07 16.027L169 336.048v106.105h25.586v-83.42h37.137v83.42h93.17v-106.15l10.065 9.584zm490.144 78.956h49.783v-49.783h-49.783zm157.606-61.753a164.176 164.176 0 1 1-164.176-164.176 164.176 164.176 0 0 1 164.176 164.176zm-60.543-17.203l-38.065-36.21v-51.532h-22.905v29.743l-34.578-32.894-7.535-7.086-7.535 7.086-96.647 91.994 15.07 16.027 11.165-10.638v106.105h25.586v-83.42h37.137v83.42h93.17v-106.15l10.065 9.584zM840.173 884.99h49.783v-49.783h-49.783zm157.606-61.753a164.176 164.176 0 1 1-164.176-164.176 164.176 164.176 0 0 1 164.176 164.176zm-60.543-17.203l-38.065-36.21v-51.532h-22.905v29.743l-34.578-32.894-7.535-7.085-7.535 7.085-96.647 91.994 15.07 16.027 11.165-10.638V918.63h25.586v-83.42h37.137v83.42h93.17v-106.15l10.065 9.584zm-684.27 78.956h49.783v-49.783h-49.783zm157.606-61.753a164.176 164.176 0 1 1-164.176-164.176 164.176 164.176 0 0 1 164.176 164.176zm-60.543-17.203l-38.065-36.21v-51.532H289.06v29.743l-34.578-32.894-7.535-7.085-7.535 7.085-96.647 91.994 15.07 16.027L169 812.524V918.63h25.586v-83.42h37.137v83.42h93.17v-106.15l10.065 9.584z" opacity=".8" fill="url(#B)"/><circle cx="540" cy="585" r="164.176" fill="#ffa0a4"/><g fill="#fff"><path d="M643.633 567.797l-38.065-36.2v-51.532h-22.905v29.743l-34.578-32.894-7.535-7.086-7.535 7.086-96.647 91.994 15.07 16.027 11.165-10.638V680.4h25.586v-83.42h37.137v83.42h93.17V574.24l10.065 9.584zm-47.28 78.956H546.57V596.97h49.783zM127.273 81.02c-12.9 0-17.46-10.68-17.46-22.38 0-11.76 4.56-22.438 17.46-22.438 12.84 0 17.46 10.68 17.46 22.438 0 11.7-4.62 22.38-17.46 22.38zm0-39.66c-8.52 0-12.3 6.3-12.3 17.28s3.78 17.28 12.3 17.28c8.46 0 12.3-6.3 12.3-17.28s-3.84-17.28-12.3-17.28zM174.612 80a2.423 2.423 0 0 1-2.52-2.52V60.8a8.55 8.55 0 1 0-17.099 0v16.62a2.551 2.551 0 0 1-2.64 2.641 2.472 2.472 0 0 1-2.52-2.58V50.66a2.386 2.386 0 0 1 2.52-2.52 2.509 2.509 0 0 1 2.58 1.979 13.703 13.703 0 0 1 22.259 10.68v16.62a2.454 2.454 0 0 1-2.58 2.58z"/><use xlink:href="#L"/><use xlink:href="#M"/><path d="M264.25 80a2.423 2.423 0 0 1-2.52-2.52V60.8a8.55 8.55 0 1 0-17.099 0v16.62a2.55 2.55 0 0 1-2.64 2.641 2.472 2.472 0 0 1-2.52-2.58V50.66a2.386 2.386 0 0 1 2.52-2.52 2.509 2.509 0 0 1 2.58 1.979 13.703 13.703 0 0 1 22.259 10.68v16.62a2.454 2.454 0 0 1-2.58 2.58zm48.05-37.618h-22.44V54.5h15.72a2.561 2.561 0 0 1 2.58 2.58 2.524 2.524 0 0 1-2.58 2.58h-15.72v17.82a2.581 2.581 0 0 1-5.16 0V39.862a2.612 2.612 0 0 1 2.64-2.58h24.96a2.425 2.425 0 0 1 2.52 2.52 2.505 2.505 0 0 1-2.52 2.58z"/><use xlink:href="#M" x="92.638"/><path d="M356.588 51.682l-10.92 26.278a2.736 2.736 0 0 1-2.58 2.04 2.905 2.905 0 0 1-2.58-2.04l-10.92-26.278a3.693 3.693 0 0 1-.18-1.08 2.588 2.588 0 0 1 2.64-2.46 2.456 2.456 0 0 1 2.28 1.56l8.76 21 8.76-21a2.585 2.585 0 0 1 4.98.84 2.992 2.992 0 0 1-.24 1.141z"/><use xlink:href="#L" x="177.416"/><path d="M435.426 80a2.457 2.457 0 0 1-2.28-1.56l-3.18-7.8h-19.98l-3.24 7.8a2.44 2.44 0 0 1-2.22 1.56 2.65 2.65 0 0 1-2.7-2.52 1.978 1.978 0 0 1 .24-1.021l15.42-37.498a2.622 2.622 0 0 1 2.46-1.86 2.726 2.726 0 0 1 2.46 1.86l15.48 37.498a2.815 2.815 0 0 1 .18 1.021 2.56 2.56 0 0 1-2.64 2.519zm-15.48-33.6l-7.86 19.08h15.72zm45.06 33.66a2.446 2.446 0 0 1-2.52-1.98 13.963 13.963 0 0 1-8.64 3 13.79 13.79 0 0 1-13.679-13.68V50.78a2.58 2.58 0 0 1 5.16-.06V67.4a8.55 8.55 0 1 0 17.099 0V50.78a2.393 2.393 0 0 1 2.52-2.64 2.454 2.454 0 0 1 2.58 2.58v26.82a2.39 2.39 0 0 1-2.52 2.521z"/><use xlink:href="#N"/><path d="M511.086 80h-1.02c-5.7 0-7.86-3-7.86-7.92V53.24h-1.8a2.55 2.55 0 1 1-.06-5.1h1.8V39.8a2.436 2.436 0 0 1 2.58-2.52 2.39 2.39 0 0 1 2.52 2.52v8.34h3.84a2.487 2.487 0 0 1 2.52 2.52 2.44 2.44 0 0 1-2.52 2.58h-3.84v19.38c0 1.68.6 2.28 2.28 2.28h1.5a2.475 2.475 0 0 1 2.58 2.52 2.44 2.44 0 0 1-2.52 2.58zm20.4-27.778a8.643 8.643 0 0 0-8.52 8.579v16.62a2.501 2.501 0 0 1-2.64 2.58 2.456 2.456 0 0 1-2.52-2.52V50.72a2.541 2.541 0 0 1 2.52-2.58 2.463 2.463 0 0 1 2.58 2.04 13.874 13.874 0 0 1 8.58-3.061 2.552 2.552 0 1 1 0 5.101zM563.393 80a5.839 5.839 0 0 1-5.34-3.42 13.746 13.746 0 0 1-10.56 4.44c-9.78 0-15.06-8.04-15.06-16.98s5.4-16.92 15.06-16.92a13.259 13.259 0 0 1 9.899 3.96v-.24a2.476 2.476 0 0 1 2.52-2.7 2.412 2.412 0 0 1 2.641 2.52v23.16a.971.971 0 0 0 .84 1.08 2.55 2.55 0 1 1 0 5.1zm-15.9-27.778c-6 0-9.9 4.68-9.9 11.82 0 7.2 3.9 11.88 9.9 11.88 6.06 0 9.9-4.68 9.9-11.88 0-7.14-3.84-11.82-9.9-11.82zm27.3 27.898a6.122 6.122 0 0 1-6-6.12V39.862a2.58 2.58 0 0 1 5.16-.061V74a.947.947 0 0 0 .84 1.021 2.55 2.55 0 1 1 0 5.1zm9.6-36.84a4.32 4.32 0 1 1 4.32-4.319 4.302 4.302 0 0 1-4.32 4.319zm0 36.72a2.52 2.52 0 0 1-2.64-2.52V50.72a2.533 2.533 0 0 1 2.64-2.58 2.472 2.472 0 0 1 2.521 2.58v26.76a2.421 2.421 0 0 1-2.521 2.52z"/><use xlink:href="#O"/><path d="M652.2 80a2.423 2.423 0 0 1-2.521-2.52V60.8a8.549 8.549 0 1 0-17.099 0v16.62a2.551 2.551 0 0 1-2.641 2.641 2.472 2.472 0 0 1-2.52-2.58V50.66a2.386 2.386 0 0 1 2.52-2.52 2.509 2.509 0 0 1 2.58 1.979 13.703 13.703 0 0 1 22.26 10.68v16.62a2.454 2.454 0 0 1-2.58 2.58zm48.06 0a2.52 2.52 0 0 1-2.64-2.52V59.66h-19.8v17.82a2.581 2.581 0 0 1-5.16 0V39.8a2.581 2.581 0 0 1 5.16 0v14.76h19.8v-14.7a2.58 2.58 0 1 1 5.16 0v37.56a2.541 2.541 0 0 1-2.52 2.58z"/><use xlink:href="#P"/><path d="M778.127 80a2.456 2.456 0 0 1-2.52-2.52v-18.9a6.33 6.33 0 0 0-12.659-.06v18.9a2.454 2.454 0 0 1-2.58 2.58 2.423 2.423 0 0 1-2.521-2.52v-18.9a6.36 6.36 0 0 0-12.719-.06v18.9a2.501 2.501 0 0 1-2.641 2.58 2.456 2.456 0 0 1-2.52-2.52V50.66a2.632 2.632 0 0 1 4.8-1.439 11.559 11.559 0 0 1 6.66-2.101 11.359 11.359 0 0 1 8.939 4.261 11.237 11.237 0 0 1 8.88-4.261 11.46 11.46 0 0 1 11.52 11.4v18.9a2.501 2.501 0 0 1-2.641 2.58zm33.18-13.32h-22.2c.84 5.64 4.44 9.24 9.72 9.24a9.005 9.005 0 0 0 7.14-3.119 2.483 2.483 0 0 1 1.86-.96 2.8 2.8 0 0 1 2.7 2.64c0 .72-.18 1.26-1.44 2.52a14.62 14.62 0 0 1-10.26 4.021c-9.66 0-15.06-7.98-15.06-16.98 0-8.94 5.4-16.92 15.06-16.92 9.78 0 15 7.98 15 16.92a2.558 2.558 0 0 1-2.521 2.64zm-12.48-14.46c-5.64 0-8.94 4.14-9.72 9.3h19.44c-.84-5.76-4.44-9.3-9.72-9.3zm27.902 28.8c-3.3 0-8.82-1.02-11.64-4.5a2.655 2.655 0 0 1 2.159-4.26 2.462 2.462 0 0 1 1.86 1.02c1.86 2.04 4.92 2.64 7.62 2.64 5.4 0 7.14-1.86 7.14-4.56 0-7.68-18.3-2.94-18.3-15.3 0-6.54 6.12-8.94 11.82-8.94 3.24 0 10.86 1.62 10.86 4.98a2.694 2.694 0 0 1-2.521 2.699 3.612 3.612 0 0 1-1.979-.779c-1.62-1.38-3.96-1.8-6.36-1.8-4.98 0-6.72 1.86-6.72 3.84 0 7.14 18.36 2.52 18.36 15.3 0 7.08-5.94 9.66-12.3 9.66zM882.586 80a2.547 2.547 0 0 1-2.159-1.319l-20.16-30.3v29.04a2.501 2.501 0 0 1-2.641 2.58 2.456 2.456 0 0 1-2.52-2.52V39.862a2.533 2.533 0 0 1 2.64-2.58 2.477 2.477 0 0 1 2.16 1.26l20.16 30.3v-28.98a2.58 2.58 0 0 1 5.16-.061v37.62a2.571 2.571 0 0 1-2.641 2.58z"/><use xlink:href="#P" x="183.657"/><path d="M964.725 51.562l-9.3 26.34a2.725 2.725 0 0 1-2.64 2.1c-1.26 0-1.98-.54-2.52-2.1l-7.02-19.8-7.08 19.8a2.598 2.598 0 0 1-5.1 0l-9.24-26.34a2.642 2.642 0 0 1-.12-.96 2.585 2.585 0 0 1 2.641-2.46 2.378 2.378 0 0 1 2.34 1.68l6.96 20.04 7.08-19.62c.48-1.38 1.08-2.1 2.52-2.1 1.32 0 2.04.66 2.52 2.1l7.02 19.62 7.02-20.04a2.359 2.359 0 0 1 2.28-1.68 2.666 2.666 0 0 1 2.76 2.52 2.488 2.488 0 0 1-.12.9zM360.692 141.2a2.52 2.52 0 0 1-2.64-2.52v-17.82h-19.8v17.82a2.581 2.581 0 0 1-5.16 0V101a2.581 2.581 0 0 1 5.16 0v14.76h19.8v-14.7a2.58 2.58 0 1 1 5.16 0v37.558a2.541 2.541 0 0 1-2.52 2.58zm37.018 0a5.839 5.839 0 0 1-5.34-3.42 13.746 13.746 0 0 1-10.56 4.44c-9.78 0-15.06-8.04-15.06-16.98s5.4-16.92 15.06-16.92a13.258 13.258 0 0 1 9.899 3.96v-.24a2.476 2.476 0 0 1 2.52-2.7 2.412 2.412 0 0 1 2.64 2.52v23.16a.971.971 0 0 0 .84 1.08 2.55 2.55 0 1 1 0 5.1zm-15.9-27.778c-6 0-9.9 4.68-9.9 11.82 0 7.2 3.9 11.88 9.9 11.88 6.06 0 9.9-4.68 9.9-11.88 0-7.14-3.84-11.82-9.9-11.82z"/><use xlink:href="#N" x="-68.974" y="61.2"/><path d="M455.25 142.22c-4.38 0-10.5-1.8-13.92-4.98a2.4 2.4 0 0 1-.84-1.859 2.599 2.599 0 0 1 2.58-2.58c.9 0 1.2.3 2.28 1.14a16.242 16.242 0 0 0 9.899 3.18c7.14 0 10.26-2.58 10.26-7.02 0-12.48-23.94-5.4-23.94-21.72 0-7.32 6.18-10.98 14.1-10.98 4.14 0 10.08 1.62 13.02 5.1a2.366 2.366 0 0 1 .66 1.62 2.795 2.795 0 0 1-2.58 2.7c-.9 0-1.38-.42-2.4-1.32a13.179 13.179 0 0 0-8.7-2.94c-6.48 0-8.94 2.58-8.94 5.82 0 11.22 23.94 4.56 23.94 21.72 0 8.94-7.5 12.12-15.42 12.12z"/><use xlink:href="#P" x="-232.28" y="61.2"/><use xlink:href="#Q"/><path d="M548.548 141.2a5.839 5.839 0 0 1-5.34-3.42 13.746 13.746 0 0 1-10.56 4.44c-9.78 0-15.06-8.04-15.06-16.98s5.4-16.92 15.06-16.92a13.258 13.258 0 0 1 9.899 3.96v-.24a2.476 2.476 0 0 1 2.521-2.7 2.412 2.412 0 0 1 2.64 2.52v23.16a.971.971 0 0 0 .84 1.08 2.55 2.55 0 1 1 0 5.1zm-15.9-27.778c-6 0-9.9 4.68-9.9 11.82 0 7.2 3.9 11.88 9.9 11.88 6.06 0 9.9-4.68 9.9-11.88 0-7.14-3.84-11.82-9.9-11.82zm36.542 0a8.643 8.643 0 0 0-8.52 8.579v16.62a2.501 2.501 0 0 1-2.641 2.58 2.456 2.456 0 0 1-2.52-2.52v-26.76a2.541 2.541 0 0 1 2.52-2.58 2.463 2.463 0 0 1 2.58 2.04 13.875 13.875 0 0 1 8.58-3.061 2.552 2.552 0 1 1 0 5.101zm34.017 9.298h-12.84v15.9a2.58 2.58 0 0 1-5.16.061v-37.618a2.491 2.491 0 0 1 2.52-2.58h15.54c5.28 0 12.06 4.14 12.06 12.06a12.099 12.099 0 0 1-12.12 12.179zm0-19.14h-12.84v14.04h12.78a7.02 7.02 0 0 0 .06-14.039z"/><use xlink:href="#O" x="24.936" y="61.2"/><path d="M677.126 141.2a2.423 2.423 0 0 1-2.52-2.52V122a8.55 8.55 0 1 0-17.1 0v16.62a2.55 2.55 0 0 1-2.64 2.641 2.472 2.472 0 0 1-2.52-2.58v-26.82a2.386 2.386 0 0 1 2.52-2.52 2.509 2.509 0 0 1 2.58 1.979A13.702 13.702 0 0 1 679.705 122v16.62a2.454 2.454 0 0 1-2.58 2.58zm33.12-13.32h-22.2c.84 5.64 4.44 9.24 9.72 9.24a9.008 9.008 0 0 0 7.14-3.119 2.481 2.481 0 0 1 1.859-.96 2.8 2.8 0 0 1 2.7 2.64c0 .72-.18 1.26-1.44 2.52a14.62 14.62 0 0 1-10.26 4.02c-9.66 0-15.06-7.98-15.06-16.98 0-8.94 5.4-16.92 15.06-16.92 9.78 0 15 7.98 15 16.92a2.558 2.558 0 0 1-2.519 2.64zm-12.48-14.46c-5.64 0-8.94 4.14-9.72 9.3h19.44c-.84-5.76-4.44-9.3-9.72-9.3z"/><use xlink:href="#Q" x="210.357"/><path d="M741.746 142.22c-3.3 0-8.82-1.02-11.64-4.5a2.655 2.655 0 0 1 2.16-4.26 2.465 2.465 0 0 1 1.86 1.02c1.86 2.04 4.92 2.64 7.62 2.64 5.4 0 7.14-1.86 7.14-4.56 0-7.68-18.3-2.94-18.3-15.3 0-6.54 6.12-8.94 11.82-8.94 3.24 0 10.86 1.62 10.86 4.98a2.694 2.694 0 0 1-2.52 2.699 3.618 3.618 0 0 1-1.98-.779c-1.62-1.38-3.96-1.8-6.36-1.8-4.98 0-6.72 1.86-6.72 3.84 0 7.14 18.36 2.52 18.36 15.3 0 7.08-5.94 9.66-12.3 9.66z"/></g></svg>