<svg xmlns="http://www.w3.org/2000/svg" xmlns:xlink="http://www.w3.org/1999/xlink" viewBox="0 0 1080 1080"><linearGradient id="A" gradientUnits="userSpaceOnUse" x1="11.716" y1="1068.284" x2="1068.284" y2="11.716"><stop offset="0" stop-color="#2980b9"/><stop offset=".227" stop-color="#2a6d9a"/><stop offset=".567" stop-color="#2b5372"/><stop offset=".836" stop-color="#2c4459"/><stop offset="1" stop-color="#2c3e50"/></linearGradient><path d="M1040 1080H40c-22.09 0-40-17.91-40-40V40C0 17.91 17.91 0 40 0h1000c22.09 0 40 17.91 40 40v1000c0 22.09-17.91 40-40 40z" fill="url(#A)"/><g fill="#fff"><path d="M42.328 1046.045c-3.568 0-5.47-1.97-5.503-2.002 0 .935-.7 1.4-1.468 1.4-.7 0-1.4-.467-1.4-1.4v-20.88a1.35 1.35 0 0 1 1.401-1.434c.767 0 1.468.467 1.468 1.4v6.238c1.334-1.368 3.168-2.17 5.503-2.17 5.37 0 8.373 4.403 8.373 9.406 0 5.037-3.002 9.44-8.373 9.44zm0-16c-3.335 0-5.503 2.602-5.503 6.57 0 4.003 2.168 6.604 5.503 6.604s5.504-2.602 5.504-6.604c0-3.97-2.168-6.57-5.504-6.57zm25.555 8.037h-12.34c.467 3.136 2.468 5.137 5.403 5.137 1.5 0 3.002-.533 3.97-1.734.3-.333.634-.533 1.034-.533.734 0 1.5.667 1.5 1.468 0 .4-.1.7-.8 1.4-1.5 1.468-3.57 2.235-5.704 2.235-5.37 0-8.372-4.437-8.372-9.44 0-4.97 3.002-9.406 8.372-9.406 5.437 0 8.34 4.437 8.34 9.406 0 .734-.534 1.468-1.4 1.468zm-6.937-8.038c-3.136 0-4.97 2.3-5.403 5.17H66.35c-.467-3.202-2.468-5.17-5.403-5.17zM88 1045.478c-1.834 0-2.668-1.3-2.97-1.9-1.334 1.468-3.27 2.47-5.87 2.47-5.437 0-8.372-4.47-8.372-9.44s3.002-9.406 8.372-9.406c2.335 0 4.203.834 5.504 2.202v-.134c0-.367.133-1.5 1.4-1.5.7 0 1.468.367 1.468 1.4v12.875c0 .434.3.6.467.6.935 0 1.435.667 1.435 1.434a1.37 1.37 0 0 1-1.435 1.401zm-8.84-15.443c-3.336 0-5.504 2.602-5.504 6.57 0 4.003 2.168 6.604 5.504 6.604 3.37 0 5.504-2.602 5.504-6.604 0-3.97-2.135-6.57-5.504-6.57z"/><use xlink:href="#J"/><path d="M115.158 1045.478h-.567c-3.17 0-4.37-1.668-4.37-4.403V1030.6h-1c-.8 0-1.435-.634-1.435-1.4 0-.8.634-1.435 1.4-1.435h1v-4.637c0-.934.7-1.4 1.435-1.4s1.4.467 1.4 1.4v4.637h2.135c.934 0 1.4.768 1.4 1.4 0 .8-.533 1.434-1.4 1.434h-2.135v10.774c0 .934.333 1.268 1.268 1.268h.833c.868 0 1.435.634 1.435 1.4 0 .8-.533 1.435-1.4 1.435zm4.604-20.415a2.402 2.402 0 1 1 0-4.803 2.402 2.402 0 1 1 0 4.803zm0 20.414c-.733 0-1.467-.5-1.467-1.4V1029.2c0-.935.733-1.435 1.467-1.435a1.37 1.37 0 0 1 1.401 1.435v14.876c0 .935-.7 1.4-1.4 1.4zm10.376-14.877h-1.5v13.442c0 .935-.7 1.4-1.468 1.4-.7 0-1.4-.467-1.4-1.4V1030.6h-1.37c-.9 0-1.4-.667-1.4-1.4 0-.768.5-1.435 1.4-1.435h1.367v-2.27c0-2.135 1.77-3.77 3.836-3.77.968 0 1.468.667 1.468 1.434 0 .7-.5 1.4-1.468 1.4-.566 0-.967.434-.967.9v2.302h1.5c.967 0 1.468.667 1.468 1.435 0 .733-.5 1.4-1.468 1.4z"/><use xlink:href="#J" x="42.068"/><path d="M154.725 1045.544c-1.802 0-3.336-1.534-3.336-3.402v-18.98c0-.967.7-1.434 1.435-1.434s1.435.467 1.435 1.4v19.013c0 .4.3.567.467.567.934 0 1.435.667 1.435 1.435 0 .733-.5 1.4-1.435 1.4zm15.37-.066v-1.264c1.886-.237 2.046-.437 2.046-3.157v-6.7c0-2.8-1.248-4.017-3.064-4.017-1.237 0-2.345.6-3.47 1.493v9.476c0 2.527.187 2.658 2.06 2.896v1.264h-8.968v-1.264c2.254-.33 2.5-.4 2.5-3v-8.2c0-2.446-.303-2.565-2.185-2.922v-1.184c2.173-.292 4.63-.807 6.653-1.533l-.052 2.95 2.6-1.745c1.16-.713 2-1.086 3.16-1.086 3.194 0 5.2 2.338 5.2 6.3v7.5c0 2.54.237 2.657 2.277 2.92v1.264h-8.74zm23.9-3.703c-2.458 3.427-5.488 4.178-7.014 4.178-5.142 0-8.124-3.936-8.124-8.594 0-2.745 1.183-5.396 2.832-7.062 1.74-1.8 3.945-2.814 6.082-2.814 3.73 0 6.396 3.126 6.37 6.347-.014.715-.08 1.277-.612 1.4-.767.184-6.17.5-10.318.647.062 4.587 2.717 6.74 5.556 6.74 1.572 0 3.104-.597 4.543-1.866l.686 1.014zm-7.07-12.7c-1.667 0-3.167 1.807-3.516 4.963l5.486-.118c.6-.026.848-.146.848-.792.04-2.022-1.037-4.053-2.818-4.053zm34.284.145c-1.943.343-2.248.624-3.105 2.765-1.33 3.462-3.102 8.53-4.934 13.94h-1.512l-4.65-11.46-4.55 11.46h-1.472l-4.685-14.192c-.687-1.985-.94-2.274-2.855-2.512v-1.25h9.397v1.25c-2.325.345-2.535.672-2.058 2.133l2.52 8.214c1.507-3.68 2.988-7.62 4.327-11.424h1.456c1.4 3.76 2.986 7.702 4.573 11.568.742-2.107 2.062-5.964 2.557-8.108.412-1.674-.008-2.078-2.753-2.383v-1.25h7.742v1.25zm9.4 3.746c-.92-2.606-2.155-3.984-4.2-3.984-1.206 0-2.225.86-2.225 2.266 0 1.497 1.046 2.264 3.16 3.216 3.278 1.496 5.3 2.787 5.3 5.736 0 3.85-3.6 5.764-6.945 5.764-2.06 0-4.088-.737-4.92-1.16l-.662-4.892 1.252-.224c.8 2.5 2.33 4.75 4.976 4.75 1.505 0 2.438-.952 2.438-2.28 0-1.423-.76-2.333-3.092-3.467-2.67-1.295-5.107-2.64-5.107-5.775 0-3.046 2.533-5.42 6.565-5.42 1.818 0 3.242.396 4.112.567l.62 4.577-1.25.328z"/><use xlink:href="#K"/><use xlink:href="#L"/><path d="M771.962 1045.98c-.28 0-.58-.2-.58-.56v-.64c-.84.98-2.06 1.54-3.42 1.54-2.48 0-4.56-2.08-4.56-4.56v-5.842c0-.36.3-.56.58-.56.26 0 .56.2.56.56v5.842c0 1.9 1.52 3.42 3.42 3.42s3.42-1.52 3.42-3.42v-5.842c0-.36.3-.56.58-.56.26 0 .56.2.56.56v9.502c0 .36-.3.56-.56.56zm7.958-9.644a3.42 3.42 0 0 0-3.421 3.42v5.662c0 .36-.3.56-.56.56-.28 0-.58-.2-.58-.56v-9.502c0-.36.3-.56.58-.56.26 0 .56.2.56.56v.82c.9-.98 2.08-1.54 3.42-1.54.36 0 .58.3.58.56a.58.58 0 0 1-.58.58zm10.18 8.46c-.88.98-2.1 1.52-3.58 1.52-3.22 0-5.02-2.64-5.02-5.662 0-3 1.8-5.64 5.02-5.64 1.48 0 2.7.54 3.58 1.52.12.12.16.262.16.38a.63.63 0 0 1-.58.6c-.14 0-.28-.06-.42-.2-.66-.74-1.58-1.16-2.74-1.16-2.36 0-3.88 1.9-3.88 4.5s1.52 4.52 3.88 4.52c1.16 0 2.08-.44 2.74-1.16.14-.14.28-.2.42-.2.3 0 .58.26.58.58 0 .14-.04.26-.16.398zm11.582-3.56h-8.302c.18 2.28 1.66 3.94 3.84 3.94 1.08 0 2.36-.48 2.94-1.38.14-.22.3-.28.48-.28.3 0 .62.24.62.54 0 .18 0 .22-.38.658-.92 1.082-2.26 1.602-3.66 1.602-3.22 0-5.02-2.64-5.02-5.662 0-3 1.8-5.64 5.02-5.64s5.02 2.66 5.02 5.64c0 .3-.28.58-.56.58zm-4.46-5.08c-2.4 0-3.66 1.84-3.84 3.94h7.7c-.18-2.28-1.66-3.94-3.86-3.94z"/><use xlink:href="#K" x="62.5"/><path d="M815.16 1039.416c-.64 0-1.16-.5-1.16-1.14s.52-1.14 1.16-1.14c.62 0 1.12.5 1.12 1.14s-.5 1.14-1.12 1.14zm0 6.563c-.64 0-1.16-.5-1.16-1.14s.52-1.14 1.16-1.14c.62 0 1.12.5 1.12 1.14s-.5 1.14-1.12 1.14zm18.2-13.124h-8.32v4.92h6.1a.55.55 0 0 1 .58.561c0 .28-.2.58-.56.58h-6.12v6.502c0 .36-.3.56-.56.56-.28 0-.58-.2-.58-.56v-13.123c0-.3.28-.56.58-.56h8.882a.55.55 0 0 1 .58.561.55.55 0 0 1-.58.561zm4.38 13.243c-1.08 0-1.98-1-1.98-2.12v-11.684c0-.36.3-.56.58-.56.26 0 .56.2.56.56v11.684c0 1.28 1.42.54 1.42 1.44 0 .34-.24.68-.58.68z"/><use xlink:href="#L" x="88.518"/><path d="M865.262 1036.096l-3.26 9.402c-.14.38-.32.48-.58.48-.34 0-.44-.12-.56-.48l-2.62-7.803-2.62 7.803c-.14.38-.32.48-.58.48s-.46-.16-.56-.48l-3.24-9.402a.85.85 0 0 1-.04-.22c0-.318.32-.52.58-.52.2 0 .44.1.52.38l2.74 7.922 2.62-7.822c.12-.38.24-.48.58-.48.24 0 .44.08.56.48l2.66 7.822 2.7-7.922c.1-.28.3-.38.52-.38.3 0 .62.2.62.54 0 .08-.02.14-.04.2zm2.536-2.66c-.64 0-1.14-.5-1.14-1.14s.5-1.14 1.14-1.14 1.14.5 1.14 1.14-.5 1.14-1.14 1.14zm0 12.543c-.28 0-.58-.18-.58-.56v-9.502c0-.36.28-.56.58-.56.26 0 .56.18.56.56v9.502c0 .36-.26.56-.56.56zm11.962.001c-.28 0-.58-.2-.58-.56v-5.842c0-1.9-1.52-3.42-3.42-3.42a3.42 3.42 0 0 0-3.421 3.42v5.842c0 .36-.3.56-.56.56-.28 0-.58-.2-.58-.56v-9.502c0-.36.3-.56.58-.56.26 0 .56.2.56.56v.64c.9-.98 2.08-1.54 3.42-1.54a4.6 4.6 0 0 1 4.561 4.561v5.842c0 .36-.3.56-.56.56zm7.78 4.56c-1.7 0-4.102-.64-4.102-1.36 0-.32.26-.64.58-.64.22 0 .68.34 1.06.48.52.18 1.34.38 2.46.38 2.56 0 3.88-1.26 3.88-3.72v-1.4c-.88 1.06-2.14 1.7-3.88 1.7-3.16 0-5.02-2.24-5.02-5.322 0-3 1.8-5.64 5.02-5.64 1.74 0 3.04.72 3.88 1.88v-.96c0-.36.3-.56.58-.56.26 0 .56.2.56.56v9.742c0 3.182-1.9 4.86-5.02 4.86zm0-14.383c-2.36 0-3.88 1.9-3.88 4.5 0 2.582 1.42 4.182 3.88 4.182s3.88-1.6 3.88-4.182c0-2.6-1.5-4.5-3.88-4.5z"/><use xlink:href="#M"/><use xlink:href="#N"/><path d="M929.8 1045.98h-.62c-1.58 0-2.36-.78-2.36-2.342v-7.14h-1.02c-.36 0-.56-.3-.56-.58 0-.26.2-.56.56-.56h1.02v-3.06c0-.36.3-.56.58-.56s.56.2.56.56v3.06h1.84c.36 0 .56.3.56.56 0 .28-.2.58-.56.58h-1.84v7.14c0 .98.28 1.2 1.22 1.2h.62c.36 0 .56.3.56.58 0 .26-.2.56-.56.56z"/><use xlink:href="#N" x="18.88"/><path d="M945.818 1047.758c-.08.06-.2.08-.3.08-.32 0-.54-.28-.54-.58 0-.56.86-.64 1-1.28-.6-.04-1.08-.54-1.08-1.14a1.16 1.16 0 0 1 1.16-1.16c.98 0 1.2 1 1.2 1.62 0 .98-.52 1.92-1.44 2.46zm18.642-1.778c-.26 0-.56-.18-.56-.56v-6.502h-7.762v6.502c0 .36-.26.56-.56.56-.28 0-.58-.18-.58-.56v-13.123c0-.38.3-.56.58-.56.3 0 .56.2.56.56v5.48h7.762v-5.48c0-.36.26-.56.56-.56.28 0 .58.18.58.56v13.123c0 .36-.28.56-.58.56z"/><use xlink:href="#N" x="54.58"/><use xlink:href="#O"/><use xlink:href="#O" x="12.42"/><path d="M1014.18 1036.156l-5.42 12.822c-.4.94-1.22 1.2-2.14 1.2h-.88c-.36 0-.56-.3-.56-.58 0-.262.2-.56.56-.56h.88c.44 0 .9-.02 1.08-.48l1.14-2.72-4.142-9.682c-.04-.1-.04-.18-.04-.26 0-.32.28-.54.58-.54.18 0 .4.08.5.34l3.722 8.682 3.68-8.682a.52.52 0 0 1 .52-.34c.3 0 .56.22.56.54 0 .08 0 .16-.04.26z"/><use xlink:href="#M" x="120.778"/><path d="M1040.458 1045.98h-5.802a.61.61 0 0 1-.58-.561v-13.123c0-.34.18-.56.52-.56h5.42c1.98 0 3.6 1.64 3.6 3.56 0 1.182-.52 2.2-1.42 2.86a4.06 4.06 0 0 1 2.38 3.721c0 2.28-1.84 4.102-4.12 4.102zm-.44-13.123h-4.8v4.92h4.8c1.62 0 2.46-1.44 2.46-2.44 0-1.38-1.12-2.48-2.46-2.48zm.44 6.06h-5.24v5.922h5.24c1.64 0 2.98-1.32 2.98-2.96s-1.34-2.96-2.98-2.96z"/><use xlink:href="#P"/><use xlink:href="#Q"/><use xlink:href="#R"/><path d="M164.977 80h-16.14c-1.38 0-2.64-1.26-2.64-2.52V39.862c0-1.44 1.08-2.58 2.52-2.58h14.88c6.12 0 11.22 5.04 11.22 11.1 0 3.24-1.32 6-3.42 7.98 3.84 2.16 6.3 6.24 6.3 10.92 0 6.96-5.76 12.72-12.72 12.72zm-1.38-37.62h-12.24V54.5h12.24c3.84 0 6.06-3.24 6.06-6.06 0-3.3-2.7-6.06-6.06-6.06zm1.38 17.22h-13.62v15.3h13.62c4.08 0 7.56-3.54 7.56-7.62 0-4.2-3.48-7.68-7.56-7.68z"/><use xlink:href="#R" x="80.278"/><use xlink:href="#S"/><path d="M250.416 80h-1.02c-5.7 0-7.86-3-7.86-7.92v-18.84h-1.8c-1.44 0-2.58-1.14-2.58-2.52 0-1.44 1.14-2.58 2.52-2.58h1.8v-8.34c0-1.68 1.26-2.52 2.58-2.52s2.52.84 2.52 2.52v8.34h3.84c1.68 0 2.52 1.38 2.52 2.52 0 1.44-.96 2.58-2.52 2.58h-3.84v19.38c0 1.68.6 2.28 2.28 2.28h1.5c1.56 0 2.58 1.14 2.58 2.52 0 1.44-.96 2.58-2.52 2.58z"/><use xlink:href="#P" x="228.774"/><use xlink:href="#Q" x="228.776"/><use xlink:href="#T"/><use xlink:href="#U"/><path d="M388.173 93.68c-3.66 0-12.72-1.32-12.72-4.92 0-1.38 1.26-2.7 2.58-2.7 1.38 0 .18.18 3.36 1.38 1.44.54 3.6 1.14 6.78 1.14 6.66 0 9.9-3.18 9.9-9.48v-2.7c-2.34 2.22-5.7 3.6-9.9 3.6-9.48 0-15.06-6.72-15.06-15.96 0-9 5.4-16.92 15.06-16.92 4.2 0 7.44 1.26 9.9 3.84v-.24c0-1.68 1.38-2.58 2.58-2.58 1.26 0 2.58.9 2.58 2.58V79.1c0 9.54-5.7 14.58-15.06 14.58zm0-41.458c-6 0-9.9 4.68-9.9 11.82 0 6.84 3.6 10.86 9.9 10.86s9.9-4.02 9.9-10.86c0-7.14-3.84-11.82-9.9-11.82z"/><use xlink:href="#S" x="195.176"/><use xlink:href="#T" x="117.839"/><use xlink:href="#U" x="117.839"/><path d="M525.512 80h-18.24c-1.44 0-2.64-1.14-2.64-2.52V39.862c0-1.74 1.38-2.58 2.52-2.58 1.32 0 2.64.84 2.64 2.52v35.1h15.72c1.38 0 2.52 1.14 2.52 2.52 0 1.44-1.14 2.58-2.52 2.58z"/><use xlink:href="#T" x="201.177"/><path d="M552.512 53.242h-2.7v24.18c0 1.68-1.26 2.52-2.64 2.52-1.26 0-2.52-.84-2.52-2.52v-24.18h-2.46c-1.62 0-2.52-1.2-2.52-2.52 0-1.38.9-2.58 2.52-2.58h2.46v-4.08c0-3.84 3.18-6.78 6.9-6.78 1.74 0 2.64 1.2 2.64 2.58 0 1.26-.9 2.52-2.64 2.52-1.02 0-1.74.78-1.74 1.62v4.14h2.7c1.74 0 2.64 1.2 2.64 2.58 0 1.32-.9 2.52-2.64 2.52z"/><use xlink:href="#V"/><path d="M630.57 80.06c-.66 0-1.44-.36-1.98-1.08L616.1 61.52h-7.74v15.9c0 1.68-1.26 2.58-2.64 2.58-1.26 0-2.52-.9-2.52-2.52V39.862c0-1.08.72-2.58 2.52-2.58h15.54c5.28 0 12.06 4.14 12.06 12.06 0 6.3-4.74 11.58-11.04 12.12l10.5 14.46c.42.54.54 1.02.54 1.56 0 1.44-1.38 2.58-2.76 2.58zm-9.36-37.68h-12.84v14.04h12.78c3.9 0 7.02-3.18 7.02-7.08 0-4.08-3.48-6.96-6.96-6.96z"/><use xlink:href="#V" x="79.92"/><path d="M700.4 80c-3.3 0-4.8-2.34-5.34-3.42-2.4 2.64-5.88 4.44-10.56 4.44-9.78 0-15.06-8.04-15.06-16.98s5.4-16.92 15.06-16.92c4.2 0 7.56 1.5 9.9 3.96v-.24c0-.66.24-2.7 2.52-2.7 1.26 0 2.64.66 2.64 2.52v23.16c0 .78.54 1.08.84 1.08 1.68 0 2.58 1.2 2.58 2.58 0 1.26-.9 2.52-2.58 2.52zm-15.9-27.78c-6 0-9.9 4.68-9.9 11.82 0 7.2 3.9 11.88 9.9 11.88 6.06 0 9.9-4.68 9.9-11.88 0-7.14-3.84-11.82-9.9-11.82z"/><use xlink:href="#W"/><use xlink:href="#W" x="11.29"/><path d="M754.707 51.742l-16.2 36.838c-1.2 2.76-3.84 4.02-6.6 4.02h-1.92c-1.74 0-2.52-1.26-2.52-2.64 0-1.26.78-2.52 2.52-2.52h1.86c.78 0 1.62-.12 1.98-.96l3.96-8.88-11.7-25.86c-.24-.42-.3-.78-.3-1.14 0-1.5 1.44-2.52 2.76-2.52.9 0 1.68.48 2.16 1.56l9.78 21.72 9.54-21.72c.48-1.08 1.38-1.5 2.22-1.5 1.38 0 2.76 1.02 2.76 2.46 0 .42-.06.72-.3 1.14zM800.667 80c-.9 0-1.8-.48-2.28-1.56l-3.18-7.8h-19.98l-3.24 7.8c-.48 1.08-1.38 1.56-2.22 1.56-1.32 0-2.7-1.02-2.7-2.52 0-.36.06-.72.24-1.02l15.42-37.498c.72-1.56 1.68-1.86 2.46-1.86.54 0 1.86.3 2.46 1.86l15.48 37.498c.12.3.18.66.18 1.02 0 1.5-1.26 2.52-2.64 2.52zm-15.48-33.6l-7.86 19.08h15.72l-7.86-19.08z"/><use xlink:href="#X"/><use xlink:href="#V" x="263.804"/><path d="M894.613 42.382h-22.44V54.5h15.72a2.56 2.56 0 0 1 2.58 2.58c0 1.38-1.02 2.58-2.58 2.58h-15.72v17.82c0 1.38-1.2 2.52-2.52 2.52-1.44 0-2.64-1.14-2.64-2.52V39.862c0-1.44 1.2-2.58 2.64-2.58h24.96c1.56 0 2.52 1.14 2.52 2.52 0 1.26-.9 2.58-2.52 2.58z"/><use xlink:href="#X" x="92.564"/><use xlink:href="#V" x="356.37"/><use xlink:href="#V" x="389.13"/><path d="M64.7 102.316l-6.687 24.887a1.05 1.05 0 0 1-1.064.798c-.456 0-.91-.266-1.025-.798l-5.7-21.05-5.66 21.05c-.114.532-.57.798-1.026.798a1.05 1.05 0 0 1-1.063-.798l-6.687-24.887c-.038-.113-.038-.228-.038-.342 0-.646.53-1.102 1.102-1.102.494 0 .874.266.988.836l5.698 21.05 5.66-21.05c.152-.532.57-.76 1.026-.76.494 0 .912.228 1.063.76l5.66 21.05 5.7-21.05c.152-.57.532-.836.988-.836.57 0 1.102.456 1.102 1.102 0 .114 0 .23-.038.342z"/><use xlink:href="#Y"/><use xlink:href="#Z"/><path d="M119.88 128h-1.18c-3 0-4.483-1.48-4.483-4.445V110h-1.937c-.684 0-1.063-.57-1.063-1.102 0-.494.38-1.063 1.063-1.063h1.938v-5.813c0-.684.57-1.063 1.103-1.063s1.063.38 1.063 1.063v5.813h3.495c.685 0 1.064.57 1.064 1.063 0 .532-.38 1.102-1.064 1.102h-3.495v13.564c0 1.86.532 2.28 2.317 2.28h1.178c.685 0 1.064.57 1.064 1.103 0 .493-.38 1.063-1.064 1.063zm37.045 0c-.53 0-1.063-.38-1.063-1.063V114.17c0-2.62-2.203-4.825-4.825-4.825s-4.863 2.204-4.863 4.787v12.805c0 .684-.532 1.063-1.063 1.063s-1.103-.38-1.103-1.063V114.17c0-2.62-2.203-4.825-4.787-4.825-2.66 0-4.863 2.204-4.863 4.787v12.805c0 .684-.57 1.063-1.063 1.063-.532 0-1.103-.38-1.103-1.063V108.9c0-.684.57-1.063 1.103-1.063.494 0 1.063.38 1.063 1.063v.23c1.254-1.216 2.964-1.938 4.825-1.938 2.432 0 4.598 1.216 5.928 3.23 1.254-1.937 3.42-3.23 5.9-3.23 3.95 0 7.03 3.116 7.03 6.953v12.805c0 .684-.57 1.063-1.103 1.063z"/><use xlink:href="#Z" x="73.036"/><path d="M200.17 109.687l-6.534 6.535 6.46 10.106c.113.152.228.38.228.608 0 .53-.57 1.025-1.14 1.025-.342 0-.684-.152-.912-.494l-6.23-9.688-3.913 3.95v5.206c0 .684-.57 1.063-1.063 1.063-.532 0-1.103-.38-1.103-1.063V102c0-.684.57-1.063 1.103-1.063.494 0 1.063.38 1.063 1.063v16.642l10.486-10.486c.267-.266.532-.342.798-.342.608 0 1.103.494 1.103 1.063 0 .266-.076.532-.343.798zm20.406 9.31H204.8c.342 4.332 3.153 7.485 7.295 7.485 2.052 0 4.483-.912 5.585-2.622.267-.418.57-.53.912-.53.57 0 1.178.455 1.178 1.025 0 .342 0 .418-.722 1.254-1.748 2.052-4.293 3.04-6.953 3.04-6.117 0-9.536-5.015-9.536-10.752 0-5.7 3.42-10.715 9.536-10.715s9.537 5.054 9.537 10.715c0 .57-.532 1.102-1.064 1.102zm-8.473-9.65c-4.56 0-6.953 3.495-7.295 7.485h14.628c-.342-4.332-3.153-7.485-7.333-7.485zm19.647 19.376c-2.28 0-6.117-.798-7.447-3-.15-.23-.15-.418-.15-.57 0-.607.53-1.14 1.102-1.14.228 0 .607.2.836.532 1.367 1.67 3.8 2.014 5.66 2.014 3.686 0 5.547-1.216 5.547-3.686 0-5.737-12.462-2.698-12.462-10.297 0-3.837 3.837-5.32 7.295-5.32 1.976 0 5.015.685 6.535 2.204.228.228.342.494.342.722 0 .57-.57 1.14-1.178 1.14-.23 0-.494-.076-.722-.304-1.178-1.14-3.306-1.596-4.978-1.596-3.344 0-5.13 1.292-5.13 3.153 0 5.32 12.462 2.508 12.462 10.297 0 4.33-3.8 5.85-7.713 5.85z"/><use xlink:href="#a"/><path d="M291.217 118.996H275.45c.342 4.332 3.153 7.485 7.295 7.485 2.052 0 4.483-.912 5.585-2.622.267-.418.57-.53.912-.53.57 0 1.178.455 1.178 1.025 0 .342 0 .418-.722 1.254-1.748 2.052-4.293 3.04-6.953 3.04-6.117 0-9.536-5.015-9.536-10.752 0-5.7 3.42-10.715 9.536-10.715s9.537 5.054 9.537 10.715c0 .57-.532 1.102-1.064 1.102zm-8.473-9.65c-4.56 0-6.953 3.495-7.295 7.485h14.628c-.342-4.332-3.153-7.485-7.333-7.485z"/><use xlink:href="#b"/><use xlink:href="#a" x="66.765"/><path d="M344.607 128.228c-2.052 0-3.762-1.9-3.762-4.027v-22.188c0-.684.57-1.063 1.103-1.063.494 0 1.063.38 1.063 1.063V124.2c0 2.432 2.697 1.026 2.697 2.736 0 .645-.455 1.3-1.102 1.3zm20.936-9.232h-15.768c.342 4.332 3.153 7.485 7.295 7.485 2.052 0 4.483-.912 5.585-2.622.267-.418.57-.53.912-.53.57 0 1.178.455 1.178 1.025 0 .342 0 .418-.722 1.254-1.748 2.052-4.293 3.04-6.953 3.04-6.117 0-9.536-5.015-9.536-10.752 0-5.7 3.42-10.715 9.536-10.715s9.537 5.054 9.537 10.715c0 .57-.532 1.102-1.064 1.102zm-8.473-9.65c-4.56 0-6.953 3.495-7.295 7.485h14.628c-.342-4.332-3.153-7.485-7.333-7.485z"/><use xlink:href="#Y" x="311.252"/><use xlink:href="#Z" x="311.252"/><use xlink:href="#a" x="172.936"/><use xlink:href="#a" x="195.774"/><path d="M486.23 109.345L475.934 133.7c-.76 1.786-2.317 2.28-4.064 2.28h-1.672c-.685 0-1.064-.57-1.064-1.102 0-.494.38-1.063 1.064-1.063h1.672c.835 0 1.7-.038 2.05-.912l2.166-5.167-7.865-18.4c-.075-.2-.075-.342-.075-.494 0-.607.53-1.025 1.102-1.025.342 0 .76.15.95.646l7.066 16.5 7-16.5c.2-.494.607-.646.987-.646.57 0 1.064.418 1.064 1.025 0 .152 0 .304-.076.494zm4.563 22.037c-.152.113-.38.15-.57.15-.607 0-1.025-.53-1.025-1.102 0-1.063 1.634-1.216 1.9-2.432-1.14-.076-2.052-1.025-2.052-2.166 0-1.3 1.063-2.203 2.204-2.203 1.86 0 2.28 1.9 2.28 3.077 0 1.862-.988 3.647-2.735 4.674z"/><use xlink:href="#Z" x="417.424"/><use xlink:href="#c"/><use xlink:href="#c" x="19.571"/><use xlink:href="#b" x="273.444"/><path d="M600.115 109.687c-3.57 0-6.497 2.888-6.497 6.497v10.753c0 .684-.57 1.063-1.063 1.063-.532 0-1.103-.38-1.103-1.063V108.89c0-.684.57-1.063 1.103-1.063.494 0 1.063.38 1.063 1.063v1.558c1.7-1.86 3.95-2.925 6.497-2.925.684 0 1.102.57 1.102 1.063 0 .532-.418 1.102-1.102 1.102z"/><use xlink:href="#d"/><path d="M627.173 104.178a2.166 2.166 0 1 1 0-4.332 2.166 2.166 0 0 1 0 4.332zm0 23.822c-.532 0-1.103-.342-1.103-1.063V108.9c0-.684.532-1.063 1.103-1.063.494 0 1.063.342 1.063 1.063v18.048c0 .684-.494 1.063-1.063 1.063zm21.96 0c-.53 0-1.102-.38-1.102-1.063v-11.095a6.47 6.47 0 0 0-6.497-6.497c-3.57 0-6.497 2.888-6.497 6.497v11.095c0 .684-.57 1.063-1.063 1.063-.532 0-1.103-.38-1.103-1.063V108.9c0-.684.57-1.063 1.103-1.063.494 0 1.063.38 1.063 1.063v1.216c1.7-1.86 3.95-2.926 6.497-2.926 4.7 0 8.663 3.914 8.663 8.663v11.095c0 .684-.57 1.063-1.064 1.063zm14.023 8.664c-3.23 0-7.8-1.216-7.8-2.584 0-.608.494-1.216 1.103-1.216.418 0 1.3.646 2.014.912.987.342 2.545.722 4.673.722 4.863 0 7.37-2.394 7.37-7.067v-2.66c-1.672 2.014-4.065 3.23-7.37 3.23-6.003 0-9.536-4.256-9.536-10.106 0-5.7 3.42-10.715 9.536-10.715 3.306 0 5.775 1.368 7.37 3.572v-1.824c0-.684.57-1.063 1.102-1.063.494 0 1.064.38 1.064 1.063v18.503c0 6.04-3.6 9.233-9.537 9.233zm0-27.318c-4.483 0-7.37 3.6-7.37 8.55 0 4.9 2.698 7.94 7.37 7.94s7.37-3.04 7.37-7.94c0-4.94-2.85-8.55-7.37-8.55z"/><use xlink:href="#e"/><use xlink:href="#b" x="400.552"/><use xlink:href="#d" x="123.879"/><use xlink:href="#Z" x="660.658"/><use xlink:href="#e" x="87.702"/><use xlink:href="#Z" x="695.011"/><use xlink:href="#f"/><use xlink:href="#f" x="8.968"/><use xlink:href="#f" x="17.936"/></g><linearGradient id="B" gradientUnits="userSpaceOnUse" x1="448.138" y1="627.35" x2="1004.647" y2="70.841"><stop offset="0" stop-color="#4e4890"/><stop offset=".952" stop-color="#4f3566"/></linearGradient><path d="M369.25 163.53h666.673c5.47 0 9.902 4.375 9.902 9.772V572.5c0 5.397-4.433 9.772-9.902 9.772H369.25c-5.47 0-9.902-4.375-9.902-9.772V173.302c0-5.397 4.433-9.772 9.902-9.772z" fill="url(#B)"/><linearGradient id="C" gradientUnits="userSpaceOnUse" x1="429.163" y1="1067.045" x2="976.011" y2="520.198"><stop offset="0" stop-color="#4e4890"/><stop offset=".952" stop-color="#4f3566"/></linearGradient><path d="M369.25 584.25h666.673c5.47 0 9.902 4.375 9.902 9.772V993.22c0 5.397-4.433 9.772-9.902 9.772H369.25c-5.47 0-9.902-4.375-9.902-9.772V594.022c0-5.397 4.433-9.772 9.902-9.772z" fill="url(#C)"/><linearGradient id="D" gradientUnits="userSpaceOnUse" x1="79.946" y1="941.243" x2="381.843" y2="639.346"><stop offset=".205" stop-color="#3cc7d0"/><stop offset=".932" stop-color="#339fbd"/></linearGradient><path d="M145.835 546.094h201.622c5.47 0 9.902 4.375 9.902 9.772V993.22c0 5.397-4.433 9.772-9.902 9.772H145.835c-5.47 0-9.902-4.375-9.902-9.772V555.866c0-5.397 4.433-9.772 9.902-9.772z" fill="url(#D)"/><linearGradient id="E" gradientUnits="userSpaceOnUse" x1="99.024" y1="501.445" x2="394.268" y2="206.201"><stop offset=".205" stop-color="#3cc7d0"/><stop offset=".932" stop-color="#339fbd"/></linearGradient><path d="M145.835 163.53h201.622c5.47 0 9.902 4.375 9.902 9.772v361.042c0 5.397-4.433 9.772-9.902 9.772H145.835c-5.47 0-9.902-4.375-9.902-9.772V173.302c0-5.397 4.433-9.772 9.902-9.772z" fill="url(#E)"/><linearGradient id="F" gradientUnits="userSpaceOnUse" x1="-63.939" y1="688.607" x2="231.697" y2="392.972"><stop offset="0" stop-color="#16b0e1"/><stop offset="1" stop-color="#1790d6"/></linearGradient><path d="M43.727 289.446h80.304c5.47 0 9.902 4.375 9.902 9.772V782.36c0 5.397-4.433 9.772-9.902 9.772H43.727c-5.47 0-9.902-4.375-9.902-9.772V299.218c0-5.397 4.433-9.772 9.902-9.772z" fill="url(#F)"/><linearGradient id="G" gradientUnits="userSpaceOnUse" x1="9.512" y1="972.918" x2="158.246" y2="824.185"><stop offset="0" stop-color="#16b0e1"/><stop offset="1" stop-color="#1790d6"/></linearGradient><path d="M43.727 794.1h80.304c5.47 0 9.902 4.375 9.902 9.772V993.22c0 5.397-4.433 9.772-9.902 9.772H43.727c-5.47 0-9.902-4.375-9.902-9.772V803.882c0-5.397 4.433-9.772 9.902-9.772z" fill="url(#G)"/><linearGradient id="H" gradientUnits="userSpaceOnUse" x1="30.737" y1="279.142" x2="137.021" y2="172.857"><stop offset="0" stop-color="#16b0e1"/><stop offset="1" stop-color="#1790d6"/></linearGradient><path d="M43.727 164.03h80.304c5.47 0 9.902 4.34 9.902 9.694v104.55c0 5.354-4.433 9.694-9.902 9.694H43.727c-5.47 0-9.902-4.34-9.902-9.694v-104.55c0-5.354 4.433-9.694 9.902-9.694z" fill="url(#H)"/><g fill="#fff"><path d="M641.747 773.164h-.056c-1.848 0-4.48-1.008-5.544-4.368-2.352 3.304-5.992 5.32-10.864 5.32-9.128 0-14.056-7.504-14.056-15.85 0-8.456 5.04-15.792 14.056-15.792 4.872 0 8.512 2.017 10.864 5.265v-2.744c0-.896.728-1.568 1.624-1.568.784 0 1.568.56 1.568 1.568v22.567c0 3.584 4.032 1.345 4.032 4.032 0 .73-.504 1.568-1.624 1.568zm-16.464-27.496c-6.608 0-10.864 5.32-10.864 12.6s4.256 12.656 10.864 12.656c6.664 0 10.864-5.376 10.864-12.656s-4.2-12.6-10.864-12.6z"/><use xlink:href="#g"/><use xlink:href="#g" x="15.007"/><path d="M701.498 759.892h-23.24c.504 6.384 4.648 11.032 10.752 11.032 3.024 0 6.608-1.344 8.232-3.864.392-.615.84-.784 1.344-.784.84 0 1.736.673 1.736 1.513 0 .504 0 .616-1.064 1.848-2.576 3.024-6.328 4.48-10.248 4.48-9.016 0-14.056-7.393-14.056-15.85 0-8.4 5.04-15.792 14.056-15.792s14.056 7.448 14.056 15.792c0 .84-.784 1.624-1.568 1.624zM689 745.668c-6.72 0-10.248 5.152-10.752 11.032h21.56c-.504-6.384-4.648-11.032-10.808-11.032zm41.27 24.192c-2.464 2.744-5.88 4.257-10.024 4.257-9.016 0-14.056-7.393-14.056-15.85 0-8.4 5.04-15.792 14.056-15.792 4.144 0 7.56 1.513 10.024 4.257a1.48 1.48 0 0 1 .448 1.063c0 .84-.784 1.68-1.624 1.68-.392 0-.784-.168-1.176-.56-1.848-2.072-4.424-3.248-7.672-3.248-6.608 0-10.864 5.32-10.864 12.6s4.256 12.656 10.864 12.656c3.248 0 5.824-1.232 7.672-3.248.392-.392.784-.56 1.176-.56.84 0 1.624.728 1.624 1.624 0 .392-.112.728-.448 1.12zm15.176 3.304h-1.736c-4.424 0-6.608-2.185-6.608-6.552V746.62h-2.856c-1.008 0-1.568-.84-1.568-1.624 0-.73.56-1.568 1.568-1.568h2.856v-8.567c0-1 .84-1.568 1.624-1.568s1.568.56 1.568 1.568v8.567h5.152c1.008 0 1.568.84 1.568 1.568 0 .784-.56 1.624-1.568 1.624h-5.152v19.992c0 2.743.784 3.36 3.416 3.36h1.736c1.008 0 1.568.84 1.568 1.624 0 .73-.56 1.568-1.568 1.568zm6.048-35.112c-1.792 0-3.192-1.4-3.192-3.2s1.4-3.192 3.192-3.192 3.192 1.4 3.192 3.192a3.15 3.15 0 0 1-3.192 3.19zm0 35.112c-.784 0-1.624-.504-1.624-1.568v-26.6c0-1.008.784-1.568 1.624-1.568.728 0 1.568.504 1.568 1.568v26.6c0 1.008-.728 1.568-1.568 1.568zm20.048.952c-9.016 0-14.056-7.393-14.056-15.85 0-8.4 5.04-15.792 14.056-15.792s14.056 7.393 14.056 15.792c0 8.456-5.04 15.85-14.056 15.85zm0-28.448c-6.608 0-10.864 5.32-10.864 12.6s4.256 12.656 10.864 12.656c6.664 0 10.864-5.376 10.864-12.656s-4.2-12.6-10.864-12.6zM814 773.164c-.784 0-1.624-.56-1.624-1.568v-16.352c0-5.32-4.256-9.576-9.576-9.576-5.264 0-9.576 4.256-9.576 9.576v16.352c0 1.008-.84 1.568-1.568 1.568-.784 0-1.624-.56-1.624-1.568v-26.6c0-1.008.84-1.568 1.624-1.568.728 0 1.568.56 1.568 1.568v1.792c2.52-2.744 5.824-4.312 9.576-4.312 6.944 0 12.768 5.77 12.768 12.77v16.352c0 1.008-.84 1.568-1.568 1.568z"/><path d="M1035.923 165.53c4.357 0 7.902 3.487 7.902 7.772V572.5c0 4.286-3.545 7.772-7.902 7.772H369.25c-4.357 0-7.902-3.487-7.902-7.772V173.302c0-4.286 3.545-7.772 7.902-7.772h666.673m0-2H369.25c-5.47 0-9.902 4.375-9.902 9.772V572.5c0 5.397 4.433 9.772 9.902 9.772h666.673c5.47 0 9.902-4.375 9.902-9.772V173.302c0-5.397-4.433-9.772-9.902-9.772zm0 422.72c4.357 0 7.902 3.487 7.902 7.772V993.22c0 4.286-3.545 7.772-7.902 7.772H369.25c-4.357 0-7.902-3.487-7.902-7.772V594.022c0-4.286 3.545-7.772 7.902-7.772h666.673m0-2H369.25c-5.47 0-9.902 4.375-9.902 9.772V993.22c0 5.397 4.433 9.772 9.902 9.772h666.673c5.47 0 9.902-4.375 9.902-9.772V594.022c0-5.397-4.433-9.772-9.902-9.772zm-688.466-36.156c4.357 0 7.902 3.487 7.902 7.772V993.22c0 4.286-3.545 7.772-7.902 7.772H145.835c-4.357 0-7.902-3.487-7.902-7.772V555.866c0-4.286 3.545-7.772 7.902-7.772h201.622m0-2H145.835c-5.47 0-9.902 4.375-9.902 9.772V993.22c0 5.397 4.433 9.772 9.902 9.772h201.622c5.47 0 9.902-4.375 9.902-9.772V555.866c0-5.397-4.433-9.772-9.902-9.772zm0-380.564c4.357 0 7.902 3.487 7.902 7.772v361.042c0 4.286-3.545 7.772-7.902 7.772H145.835c-4.357 0-7.902-3.487-7.902-7.772V173.302c0-4.286 3.545-7.772 7.902-7.772h201.622m0-2H145.835c-5.47 0-9.902 4.375-9.902 9.772v361.042c0 5.397 4.433 9.772 9.902 9.772h201.622c5.47 0 9.902-4.375 9.902-9.772V173.302c0-5.397-4.433-9.772-9.902-9.772zM124.03 291.446c4.357 0 7.902 3.487 7.902 7.772V782.36c0 4.286-3.545 7.772-7.902 7.772H43.727c-4.357 0-7.902-3.487-7.902-7.772V299.218c0-4.286 3.545-7.772 7.902-7.772h80.304m0-2H43.727c-5.47 0-9.902 4.375-9.902 9.772V782.36c0 5.397 4.433 9.772 9.902 9.772h80.304c5.47 0 9.902-4.375 9.902-9.772V299.218c0-5.397-4.433-9.772-9.902-9.772zM124.03 796.1c4.357 0 7.902 3.487 7.902 7.772V993.22c0 4.286-3.545 7.772-7.902 7.772H43.727c-4.357 0-7.902-3.487-7.902-7.772V803.882c0-4.286 3.545-7.772 7.902-7.772h80.304m0-2H43.727c-5.47 0-9.902 4.375-9.902 9.772V993.22c0 5.397 4.433 9.772 9.902 9.772h80.304c5.47 0 9.902-4.375 9.902-9.772V803.882c0-5.397-4.433-9.772-9.902-9.772zm-.001-628.08c4.357 0 7.902 3.452 7.902 7.694v104.55c0 4.243-3.545 7.694-7.902 7.694H43.727c-4.357 0-7.902-3.452-7.902-7.694v-104.55c0-4.243 3.545-7.694 7.902-7.694h80.304m0-2H43.727c-5.47 0-9.902 4.34-9.902 9.694v104.55c0 5.354 4.433 9.694 9.902 9.694h80.304c5.47 0 9.902-4.34 9.902-9.694v-104.55c0-5.354-4.433-9.694-9.902-9.694z" opacity=".2"/><path d="M680.667 836.6c-4.85 0-9.135-2.52-11.466-6.426-.315-.504-.44-1.008-.44-1.45 0-1.512 1.323-2.646 2.772-2.646.818 0 1.7.314 2.268 1.26a7.78 7.78 0 0 0 6.805 3.906c4.726 0 8.632-3.906 8.632-8.506 0-4.725-3.844-8.63-8.57-8.63h-.062c-1.638 0-2.646-1.26-2.646-2.646s1.07-2.7 2.7-2.7c3.844 0 6.93-2.96 6.93-6.93 0-3.78-3.087-6.867-6.93-6.867-6.1 0-6.174 6.174-9.45 6.174-1.45 0-2.835-1.135-2.835-2.646 0-.504.126-1.008.44-1.512 1.512-2.332 5.292-7.434 11.844-7.434 6.805 0 12.286 5.543 12.286 12.285 0 3.844-1.638 7.182-4.474 9.45 3.654 2.52 6.1 6.617 6.1 11.404a13.93 13.93 0 0 1-13.924 13.924zm41.893-8.63h-2.7v4.914c0 1.7-1.45 2.646-2.7 2.646-1.323 0-2.7-.945-2.7-2.646v-4.914h-15.058c-1.765 0-2.835-1.072-2.835-2.52a2.56 2.56 0 0 1 .378-1.387l17.4-33.078c.504-1.008 1.45-1.447 2.27-1.447 1.448 0 2.835 1.133 2.835 2.582a2.44 2.44 0 0 1-.378 1.387l-15.247 29.107h10.647v-7.182c0-1.828 1.323-2.773 2.646-2.773 1.386 0 2.77.883 2.77 2.7v7.246h2.7c1.765 0 2.7 1.26 2.7 2.7 0 1.387-.945 2.646-2.7 2.646zm9.183-26.68c-3.195 0-5.804-2.9-5.804-6.463s2.608-6.428 5.804-6.428c3.158 0 5.766 2.865 5.766 6.428s-2.607 6.463-5.766 6.463zm0-9.77c-1.176 0-2.645 1.176-2.645 3.307s1.47 3.305 2.645 3.305 2.645-1.176 2.645-3.305-1.47-3.307-2.645-3.307zm15.315-1.8l-6.758 24.313c-.184.8-.8 1.176-1.433 1.176-.845 0-1.652-.588-1.652-1.543 0-.1 0-.293.036-.44l6.795-24.352c.22-.77.845-1.14 1.47-1.14.77 0 1.616.55 1.616 1.47 0 .184-.037.33-.073.514zm5.215 24.828c-3.158 0-5.766-2.902-5.766-6.465 0-3.525 2.607-6.428 5.766-6.428 3.195 0 5.804 2.902 5.804 6.428 0 3.562-2.608 6.465-5.804 6.465zm0-9.77c-1.14 0-2.607 1.174-2.607 3.305 0 2.168 1.47 3.342 2.607 3.342 1.176 0 2.645-1.174 2.645-3.342 0-2.13-1.47-3.305-2.645-3.305zM580.166 353.823h-.056c-1.848 0-4.48-1.008-5.544-4.368-2.352 3.304-5.992 5.32-10.864 5.32-9.128 0-14.056-7.504-14.056-15.848 0-8.456 5.04-15.792 14.056-15.792 4.872 0 8.512 2.016 10.864 5.264v-2.744c0-.896.728-1.568 1.624-1.568.784 0 1.568.56 1.568 1.568v22.568c0 3.584 4.032 1.344 4.032 4.032 0 .728-.504 1.568-1.624 1.568zm-16.464-27.496c-6.608 0-10.864 5.32-10.864 12.6s4.256 12.656 10.864 12.656c6.664 0 10.864-5.376 10.864-12.656s-4.2-12.6-10.864-12.6zm43.735 24.193c-2.464 2.744-5.88 4.256-10.024 4.256-9.016 0-14.056-7.392-14.056-15.848 0-8.4 5.04-15.792 14.056-15.792 4.144 0 7.56 1.512 10.024 4.256.336.336.448.728.448 1.064 0 .84-.784 1.68-1.624 1.68-.392 0-.784-.168-1.176-.56-1.848-2.072-4.424-3.248-7.672-3.248-6.608 0-10.864 5.32-10.864 12.6s4.256 12.656 10.864 12.656c3.248 0 5.824-1.232 7.672-3.248.392-.392.784-.56 1.176-.56.84 0 1.624.728 1.624 1.624 0 .392-.112.728-.448 1.12zm28.896 3.303c-.784 0-1.624-.56-1.624-1.568v-16.352c0-5.32-4.256-9.576-9.576-9.576-5.264 0-9.576 4.256-9.576 9.576v16.352c0 1.008-.84 1.568-1.568 1.568-.784 0-1.624-.56-1.624-1.568V315.52c0-1.008.84-1.568 1.624-1.568.728 0 1.568.56 1.568 1.568v11.928c2.352-2.744 5.768-4.312 9.576-4.312 6.944 0 12.768 5.768 12.768 12.768v16.352c0 1.008-.84 1.568-1.568 1.568zm8.4-35.113c-1.792 0-3.192-1.4-3.192-3.192s1.4-3.192 3.192-3.192 3.192 1.4 3.192 3.192-1.4 3.192-3.192 3.192zm0 35.112c-.784 0-1.624-.504-1.624-1.568v-26.6c0-1.008.784-1.568 1.624-1.568.728 0 1.568.504 1.568 1.568v26.6c0 1.008-.728 1.568-1.568 1.568z"/><use xlink:href="#h"/><path d="M706.108 326.27l-11.032 26.264c-.336.728-.84 1.288-1.568 1.288s-1.288-.56-1.624-1.288l-11.032-26.208c-.112-.28-.112-.504-.112-.728 0-.896.784-1.512 1.624-1.512.504 0 1.12.224 1.4.952l9.744 23.016 9.688-23.016c.336-.728.896-1.008 1.456-1.008.84 0 1.624.616 1.624 1.512 0 .168 0 .448-.168.728z"/><use xlink:href="#h" x="57.454"/><path d="M777.17 353.823c-.784 0-1.568-.56-1.568-1.568V333.44c0-3.864-3.248-7.112-7.112-7.112s-7.168 3.248-7.168 7.056v18.872c0 1.008-.784 1.568-1.568 1.568s-1.624-.56-1.624-1.568V333.44c0-3.864-3.248-7.112-7.056-7.112-3.92 0-7.168 3.248-7.168 7.056v18.872c0 1.008-.84 1.568-1.568 1.568-.784 0-1.624-.56-1.624-1.568v-26.6c0-1.008.84-1.568 1.624-1.568.728 0 1.568.56 1.568 1.568v.336c1.848-1.792 4.368-2.856 7.112-2.856 3.584 0 6.776 1.792 8.736 4.76 1.848-2.856 5.04-4.76 8.68-4.76 5.824 0 10.36 4.592 10.36 10.248v18.872c0 1.008-.84 1.568-1.624 1.568z"/><use xlink:href="#h" x="131.988"/><path d="M839.217 353.823c-.784 0-1.624-.56-1.624-1.568v-16.352c0-5.32-4.256-9.576-9.576-9.576-5.264 0-9.576 4.256-9.576 9.576v16.352c0 1.008-.84 1.568-1.568 1.568-.784 0-1.624-.56-1.624-1.568v-26.6c0-1.008.84-1.568 1.624-1.568.728 0 1.568.56 1.568 1.568v1.792c2.52-2.744 5.824-4.312 9.576-4.312 6.944 0 12.768 5.768 12.768 12.768v16.352c0 1.008-.84 1.568-1.568 1.568zm17.023 0h-1.736c-4.424 0-6.608-2.184-6.608-6.552v-19.99h-2.856c-1.008 0-1.568-.84-1.568-1.624 0-.728.56-1.568 1.568-1.568h2.856v-8.568c0-1.008.84-1.568 1.624-1.568s1.568.56 1.568 1.568v8.568h5.152c1.008 0 1.568.84 1.568 1.568 0 .784-.56 1.624-1.568 1.624h-5.152v19.992c0 2.744.784 3.36 3.416 3.36h1.736c1.008 0 1.568.84 1.568 1.624 0 .728-.56 1.568-1.568 1.568zM680.667 417.27c-4.85 0-9.135-2.52-11.466-6.427-.315-.504-.44-1.008-.44-1.45 0-1.512 1.323-2.646 2.772-2.646.818 0 1.7.314 2.268 1.26a7.78 7.78 0 0 0 6.805 3.906c4.726 0 8.632-3.906 8.632-8.506 0-4.725-3.844-8.63-8.57-8.63h-.062c-1.638 0-2.646-1.26-2.646-2.646s1.07-2.7 2.7-2.7c3.844 0 6.93-2.96 6.93-6.93 0-3.78-3.087-6.867-6.93-6.867-6.1 0-6.174 6.174-9.45 6.174-1.45 0-2.835-1.134-2.835-2.646a2.8 2.8 0 0 1 .44-1.513c1.512-2.33 5.292-7.434 11.844-7.434 6.805 0 12.286 5.544 12.286 12.285 0 3.844-1.638 7.183-4.474 9.45 3.654 2.52 6.1 6.616 6.1 11.404a13.93 13.93 0 0 1-13.924 13.924zm41.893-8.633h-2.7v4.914c0 1.7-1.45 2.646-2.7 2.646-1.323 0-2.7-.945-2.7-2.646v-4.914h-15.058c-1.765 0-2.835-1.07-2.835-2.52a2.56 2.56 0 0 1 .378-1.387l17.4-33.077c.504-1.008 1.45-1.448 2.27-1.448 1.448 0 2.835 1.134 2.835 2.583 0 .44-.063.882-.378 1.386l-15.247 29.107h10.647v-7.18c0-1.827 1.323-2.772 2.646-2.772 1.386 0 2.77.882 2.77 2.7v7.245h2.7c1.765 0 2.7 1.26 2.7 2.7 0 1.387-.945 2.646-2.7 2.646zm9.183-26.677c-3.195 0-5.804-2.9-5.804-6.464s2.608-6.428 5.804-6.428c3.158 0 5.766 2.865 5.766 6.428s-2.607 6.464-5.766 6.464zm0-9.77c-1.176 0-2.645 1.175-2.645 3.306s1.47 3.306 2.645 3.306 2.645-1.176 2.645-3.306-1.47-3.306-2.645-3.306zm15.315-1.8l-6.758 24.313c-.184.8-.8 1.176-1.433 1.176-.845 0-1.652-.588-1.652-1.543 0-.1 0-.294.036-.44l6.795-24.35c.22-.77.845-1.14 1.47-1.14.77 0 1.616.55 1.616 1.47 0 .184-.037.33-.073.514zm5.215 24.828c-3.158 0-5.766-2.9-5.766-6.464 0-3.526 2.607-6.428 5.766-6.428 3.195 0 5.804 2.9 5.804 6.428 0 3.563-2.608 6.464-5.804 6.464zm0-9.77c-1.14 0-2.607 1.175-2.607 3.306 0 2.167 1.47 3.342 2.607 3.342 1.176 0 2.645-1.175 2.645-3.342 0-2.13-1.47-3.306-2.645-3.306zm-563.38-21.622c-3.306 0-5.775-1.368-7.37-3.6v1.9c0 .684-.57 1.064-1.064 1.064-.532 0-1.102-.38-1.102-1.064V337.2c0-.684.57-1.063 1.102-1.063.494 0 1.064.38 1.064 1.063v8.74c1.596-2.204 4.065-3.57 7.37-3.57 6.117 0 9.537 5.015 9.537 10.714 0 5.737-3.42 10.752-9.537 10.752zm0-19.3c-4.52 0-7.37 3.6-7.37 8.55s2.85 8.587 7.37 8.587 7.37-3.647 7.37-8.587-2.85-8.55-7.37-8.55zm21.203 19.3c-6.117 0-9.537-5.015-9.537-10.752 0-5.7 3.42-10.714 9.537-10.714s9.537 5.015 9.537 10.714c0 5.737-3.42 10.752-9.537 10.752zm0-19.3c-4.483 0-7.37 3.6-7.37 8.55s2.887 8.587 7.37 8.587c4.52 0 7.37-3.647 7.37-8.587s-2.85-8.55-7.37-8.55z"/><use xlink:href="#i"/><path d="M260.633 363.18c-.532 0-1.102-.38-1.102-1.064v-1.9c-1.596 2.242-4.065 3.6-7.37 3.6-6.117 0-9.537-5.015-9.537-10.752 0-5.7 3.42-10.714 9.537-10.714 3.306 0 5.775 1.368 7.37 3.57v-8.74c0-.684.57-1.063 1.102-1.063.494 0 1.064.38 1.064 1.063v24.924c0 .684-.57 1.064-1.064 1.064zm-8.473-18.655c-4.483 0-7.37 3.6-7.37 8.55s2.887 8.587 7.37 8.587c4.52 0 7.37-3.647 7.37-8.587s-2.85-8.55-7.37-8.55zm14.517-5.168a2.166 2.166 0 1 1 0-4.332 2.166 2.166 0 1 1 0 4.332zm0 23.822c-.532 0-1.102-.342-1.102-1.064v-18.047c0-.684.532-1.063 1.102-1.063.494 0 1.064.342 1.064 1.063v18.047c0 .684-.494 1.064-1.064 1.064z"/><use xlink:href="#i" x="48.982"/><path d="M301.142 371.842c-3.23 0-7.8-1.216-7.8-2.584 0-.608.494-1.216 1.102-1.216.418 0 1.292.646 2.014.912.988.342 2.546.722 4.673.722 4.863 0 7.37-2.394 7.37-7.067v-2.66c-1.672 2.014-4.065 3.23-7.37 3.23-6.003 0-9.537-4.255-9.537-10.106 0-5.7 3.42-10.714 9.537-10.714 3.306 0 5.775 1.368 7.37 3.57v-1.824c0-.684.57-1.064 1.102-1.064.494 0 1.064.38 1.064 1.064V362.6c0 6.04-3.6 9.232-9.537 9.232zm0-27.318c-4.483 0-7.37 3.6-7.37 8.55 0 4.9 2.697 7.94 7.37 7.94s7.37-3.04 7.37-7.94c0-4.94-2.85-8.55-7.37-8.55zm-73.5 62.318c-.924 0-1.85-.704-1.85-1.848v-23.587l-3.52 3.433a1.7 1.7 0 0 1-1.232.528c-1.056 0-1.98-.968-1.98-1.936 0-.484.176-.924.572-1.32l6.557-6.337c.528-.484 1.1-.704 1.628-.704 1.232 0 1.76 1.232 1.76 2.244v27.636c0 1.188-.924 1.892-1.936 1.892zm15.62.758c-9.417 0-9.417-11.178-9.417-17.603 0-6.205.968-15.27 9.374-15.27s9.46 8.845 9.46 15.27c0 6.7-.176 17.603-9.417 17.603zm5.633-17.603c0-3.873-.088-11.485-5.633-11.485s-5.633 7.613-5.633 11.485v2.464c0 4.577.616 11.398 5.6 11.398 5.06 0 5.677-6.82 5.677-11.398v-2.464zm10.193-7.067c-2.23 0-4.053-2.026-4.053-4.514s1.82-4.5 4.053-4.5c2.206 0 4.027 2 4.027 4.5s-1.82 4.514-4.027 4.514zm0-6.823c-.82 0-1.847.82-1.847 2.3s1.026 2.3 1.847 2.3 1.847-.82 1.847-2.3-1.026-2.3-1.847-2.3zm10.696-1.257l-4.72 16.98c-.128.564-.564.82-1 .82-.6 0-1.154-.4-1.154-1.078 0-.077 0-.205.026-.308l4.745-17.006c.154-.54.6-.795 1.026-.795.54 0 1.13.385 1.13 1.026 0 .128-.026.23-.05.36zm3.642 17.34c-2.206 0-4.027-2.026-4.027-4.514 0-2.463 1.82-4.5 4.027-4.5 2.23 0 4.053 2.026 4.053 4.5 0 2.488-1.82 4.514-4.053 4.514zm0-6.823c-.795 0-1.82.82-1.82 2.3 0 1.513 1.026 2.334 1.82 2.334.82 0 1.847-.82 1.847-2.334 0-1.488-1.026-2.3-1.847-2.3zM55.278 888.96c-.42 0-.87-.3-.87-.84v-8.76a5.11 5.11 0 0 0-5.13-5.13 5.13 5.13 0 0 0-5.13 5.13v8.76c0 .54-.45.84-.84.84-.42 0-.87-.3-.87-.84v-14.25c0-.54.45-.84.87-.84a.83.83 0 0 1 .84.84v.96c1.35-1.47 3.12-2.3 5.13-2.3 3.72 0 6.84 3.1 6.84 6.84v8.76c0 .54-.45.84-.84.84zm19.3 0h-.03c-1 0-2.4-.54-2.97-2.34-1.26 1.77-3.2 2.85-5.82 2.85-4.9 0-7.53-4.02-7.53-8.5 0-4.53 2.7-8.46 7.53-8.46 2.6 0 4.56 1.08 5.82 2.82v-1.47c0-.48.4-.84.87-.84.42 0 .84.3.84.84v12.1c0 1.92 2.16.72 2.16 2.16 0 .4-.27.84-.87.84zm-8.82-14.73c-3.54 0-5.82 2.85-5.82 6.75s2.28 6.78 5.82 6.78c3.57 0 5.82-2.88 5.82-6.78s-2.25-6.75-5.82-6.75zm16.712 14.73h-.93c-2.37 0-3.54-1.17-3.54-3.5v-10.7h-1.53c-.54 0-.84-.45-.84-.87 0-.4.3-.84.84-.84H78v-4.6c0-.54.45-.84.87-.84s.84.3.84.84v4.6h2.76c.54 0 .84.45.84.84 0 .42-.3.87-.84.87H79.7v10.7c0 1.47.42 1.8 1.83 1.8h.93c.54 0 .84.45.84.87a.83.83 0 0 1-.84.84z"/><use xlink:href="#j"/><path d="M108.14 874.5a5.13 5.13 0 0 0-5.13 5.131v8.5c0 .54-.45.84-.84.84-.42 0-.87-.3-.87-.84v-14.25c0-.54.45-.84.87-.84a.83.83 0 0 1 .84.84v1.23c1.35-1.47 3.12-2.3 5.13-2.3.54 0 .87.45.87.84 0 .42-.33.87-.87.87zm14.692 7.35h-12.45c.27 3.42 2.5 5.9 5.76 5.9 1.62 0 3.54-.72 4.4-2.07.2-.33.45-.42.72-.42.45 0 .93.36.93.8 0 .27 0 .33-.57 1-1.38 1.62-3.4 2.4-5.5 2.4-4.83 0-7.53-3.96-7.53-8.5 0-4.5 2.7-8.46 7.53-8.46s7.53 4 7.53 8.46c0 .45-.42.87-.84.87zm-6.7-7.62c-3.6 0-5.5 2.76-5.76 5.9h11.55c-.27-3.42-2.5-5.9-5.8-5.9zm-43.05 59.14c-3.4 0-6.38-1.76-8-4.5-.22-.352-.308-.703-.308-1.012 0-1.056.924-1.848 1.937-1.848.572 0 1.188.22 1.584.88a5.44 5.44 0 0 0 4.753 2.73c3.3 0 6.03-2.73 6.03-5.94 0-3.3-2.685-6.03-5.985-6.03h-.044c-1.145 0-1.85-.88-1.85-1.85s.748-1.892 1.893-1.892c2.684 0 4.84-2.068 4.84-4.842 0-2.64-2.156-4.796-4.84-4.796-4.27 0-4.313 4.313-6.6 4.313-1.012 0-1.98-.792-1.98-1.85 0-.352.088-.704.308-1.056 1.056-1.628 3.697-5.192 8.273-5.192 4.752 0 8.58 3.872 8.58 8.58 0 2.686-1.144 5.018-3.125 6.602 2.552 1.76 4.27 4.62 4.27 7.965a9.73 9.73 0 0 1-9.725 9.726zM88.48 908.7c-2.23 0-4.053-2.027-4.053-4.515s1.82-4.5 4.053-4.5c2.206 0 4.027 2 4.027 4.5s-1.82 4.515-4.027 4.515zm0-6.823c-.82 0-1.847.82-1.847 2.3s1.026 2.3 1.847 2.3 1.847-.82 1.847-2.3-1.026-2.3-1.847-2.3zm10.696-1.257l-4.72 16.98c-.128.564-.564.82-1 .82-.6 0-1.154-.4-1.154-1.077 0-.077 0-.205.026-.308l4.745-17.006c.154-.54.6-.795 1.026-.795.54 0 1.13.385 1.13 1.025 0 .13-.026.23-.05.36zm3.642 17.34c-2.206 0-4.027-2.027-4.027-4.515 0-2.463 1.82-4.5 4.027-4.5 2.23 0 4.053 2.026 4.053 4.5 0 2.487-1.82 4.515-4.053 4.515zm0-6.823c-.795 0-1.82.82-1.82 2.3 0 1.513 1.026 2.334 1.82 2.334.82 0 1.847-.82 1.847-2.334 0-1.487-1.026-2.3-1.847-2.3zM46.64 540.97c-1.62 0-2.97-1.5-2.97-3.18v-17.52c0-.54.45-.84.87-.84a.83.83 0 0 1 .84.84v17.52c0 1.92 2.13.8 2.13 2.16 0 .5-.36 1.02-.87 1.02zm15.928-7.3H50.12c.27 3.42 2.5 5.9 5.76 5.9 1.62 0 3.54-.72 4.4-2.07.2-.33.45-.42.72-.42.45 0 .93.36.93.8 0 .27 0 .33-.57 1-1.38 1.62-3.4 2.4-5.5 2.4-4.83 0-7.53-3.96-7.53-8.5 0-4.5 2.7-8.46 7.53-8.46s7.53 4 7.53 8.46c0 .45-.42.87-.84.87zm-6.7-7.62c-3.6 0-5.5 2.76-5.76 5.9h11.55c-.27-3.42-2.5-5.9-5.8-5.9zm10.77-4.08a1.71 1.71 0 1 1 0-3.42 1.71 1.71 0 1 1 0 3.42zm0 18.8c-.42 0-.87-.27-.87-.84V525.7c0-.54.42-.84.87-.84.4 0 .84.27.84.84v14.25a.8.8 0 0 1-.84.84zm8.9.57c-1.8 0-4.83-.63-5.88-2.37-.12-.18-.12-.33-.12-.45a.92.92 0 0 1 .87-.899c.18 0 .48.15.66.42 1.08 1.32 3 1.6 4.47 1.6 2.9 0 4.38-.96 4.38-2.9 0-4.53-9.84-2.13-9.84-8.13 0-3.03 3.03-4.2 5.76-4.2 1.56 0 3.96.54 5.16 1.74.18.18.27.4.27.57 0 .45-.45.9-.93.9a.78.78 0 0 1-.57-.24c-.93-.9-2.6-1.26-3.93-1.26-2.64 0-4.05 1.02-4.05 2.5 0 4.2 9.84 1.98 9.84 8.13 0 3.42-3 4.62-6.1 4.62z"/><use xlink:href="#j" x="-1.231" y="-348.17"/><path d="M106.908 526.33a5.13 5.13 0 0 0-5.13 5.13v8.5c0 .54-.45.84-.84.84-.42 0-.87-.3-.87-.84V525.7c0-.54.45-.84.87-.84a.83.83 0 0 1 .84.84v1.23c1.35-1.47 3.12-2.3 5.13-2.3.54 0 .87.45.87.84 0 .42-.33.87-.87.87zm14.692 7.35h-12.45c.27 3.42 2.5 5.9 5.76 5.9 1.62 0 3.54-.72 4.4-2.07.2-.33.45-.42.72-.42.45 0 .93.36.93.8 0 .27 0 .33-.57 1-1.38 1.62-3.4 2.4-5.5 2.4-4.83 0-7.53-3.96-7.53-8.5 0-4.5 2.7-8.46 7.53-8.46s7.53 4 7.53 8.46c0 .45-.42.87-.84.87zm-6.7-7.62c-3.6 0-5.5 2.76-5.76 5.9h11.55c-.27-3.42-2.5-5.9-5.8-5.9zm-43.477 59.06c-10.206 0-11.028-9.46-11.028-16.414 0-8.23 1.983-16.46 11.028-16.46 4.063 0 6.966 1.63 8.95 4.4.338.396.436.748.436 1.144 0 1.013-1.016 1.805-2.128 1.805-.63 0-1.258-.265-1.74-.88-1.258-1.717-2.902-2.685-5.515-2.685-4.595 0-6.723 3.74-6.868 12.146 1.596-1.408 4.063-2.5 6.868-2.5 5.805 0 10.4 4.577 10.4 9.726s-4.595 9.726-10.4 9.726zm0-15.7c-3.337 0-6.143 2.64-6.336 6.072.63 3.433 2.612 5.897 6.336 5.897 3.338 0 6.24-2.73 6.24-5.985s-2.902-5.984-6.24-5.984zm16.87-8.96c-2.454 0-4.456-2.026-4.456-4.515s2.002-4.488 4.456-4.488c2.425 0 4.427 2 4.427 4.488s-2.002 4.515-4.427 4.515zm0-6.823c-.902 0-2.03.82-2.03 2.3s1.128 2.3 2.03 2.3 2.03-.82 2.03-2.3-1.128-2.3-2.03-2.3zm11.758-1.257l-5.188 16.98c-.14.564-.62.82-1.1.82-.648 0-1.27-.4-1.27-1.077 0-.077 0-.205.028-.3l5.217-17.006c.17-.538.648-.795 1.128-.795.592 0 1.24.385 1.24 1.026 0 .128-.028.23-.057.358zm4.004 17.34c-2.425 0-4.427-2.026-4.427-4.515 0-2.462 2.002-4.488 4.427-4.488 2.453 0 4.455 2.026 4.455 4.488 0 2.488-2.002 4.515-4.455 4.515zm0-6.823c-.874 0-2.002.82-2.002 2.3 0 1.514 1.128 2.334 2.002 2.334.902 0 2.03-.82 2.03-2.334 0-1.487-1.128-2.3-2.03-2.3zM57.183 217.48H47.64c.207 2.62 1.9 4.53 4.415 4.53 1.242 0 2.713-.552 3.38-1.586a.6.6 0 0 1 .552-.322c.345 0 .713.276.713.62 0 .207 0 .253-.437.76-1.058 1.242-2.6 1.84-4.208 1.84-3.702 0-5.772-3.036-5.772-6.508 0-3.45 2.07-6.484 5.772-6.484s5.77 3.058 5.77 6.484a.7.7 0 0 1-.644.667zm-5.128-5.84c-2.76 0-4.208 2.116-4.415 4.53h8.853c-.207-2.62-1.9-4.53-4.438-4.53zm16.352 11.312a.57.57 0 0 1-.483-.253l-4.07-5.15-4.07 5.15a.57.57 0 0 1-.483.253c-.368 0-.7-.276-.7-.644 0-.16.023-.3.138-.46l4.254-5.358-3.725-4.7a.8.8 0 0 1-.161-.46c0-.368.345-.644.713-.644.184 0 .345.07.483.253l3.54 4.484 3.564-4.484c.115-.184.276-.253.46-.253.368 0 .713.276.713.644 0 .138-.046.276-.16.414l-3.748 4.737 4.277 5.358c.138.16.184.3.184.46 0 .368-.368.644-.736.644zm12.373-5.472h-9.543c.207 2.62 1.9 4.53 4.415 4.53 1.242 0 2.713-.552 3.38-1.586a.6.6 0 0 1 .552-.322c.345 0 .713.276.713.62 0 .207 0 .253-.437.76-1.058 1.242-2.6 1.84-4.208 1.84-3.702 0-5.772-3.036-5.772-6.508 0-3.45 2.07-6.484 5.772-6.484s5.77 3.058 5.77 6.484a.7.7 0 0 1-.644.667zm-5.128-5.84c-2.76 0-4.208 2.116-4.415 4.53H80.1c-.207-2.62-1.9-4.53-4.438-4.53zm12.834.206a3.93 3.93 0 0 0-3.932 3.932v6.507c0 .414-.345.644-.644.644-.322 0-.666-.23-.666-.644v-10.922c0-.414.345-.644.666-.644.3 0 .644.23.644.644v.943c1.035-1.127 2.392-1.77 3.932-1.77.414 0 .667.345.667.644 0 .322-.253.667-.667.667zm10.786 9.726c-1.012 1.127-2.415 1.748-4.116 1.748-3.702 0-5.772-3.036-5.772-6.508 0-3.45 2.07-6.484 5.772-6.484 1.702 0 3.104.62 4.116 1.748a.61.61 0 0 1 .184.437c0 .345-.322.7-.666.7-.16 0-.322-.07-.483-.23-.76-.85-1.817-1.334-3.15-1.334-2.713 0-4.46 2.185-4.46 5.174S92.445 222 95.157 222c1.333 0 2.392-.506 3.15-1.333.16-.16.322-.23.483-.23.345 0 .666.3.666.667 0 .16-.046.3-.184.46zm2.692-13.062c-.736 0-1.3-.575-1.3-1.3s.575-1.3 1.3-1.3 1.3.575 1.3 1.3-.575 1.3-1.3 1.3zm0 14.418c-.322 0-.666-.207-.666-.644v-10.922c0-.414.322-.644.666-.644.3 0 .644.207.644.644v10.922c0 .414-.3.644-.644.644zm6.83.438c-1.38 0-3.702-.483-4.507-1.817-.092-.138-.092-.253-.092-.345 0-.368.322-.7.667-.7.138 0 .368.115.506.322.828 1.012 2.3 1.22 3.426 1.22 2.23 0 3.357-.736 3.357-2.23 0-3.472-7.542-1.632-7.542-6.23 0-2.323 2.323-3.22 4.415-3.22 1.196 0 3.035.414 3.955 1.333.138.138.207.3.207.437 0 .345-.345.7-.713.7a.61.61 0 0 1-.437-.184c-.712-.7-2-.966-3.012-.966-2.023 0-3.104.782-3.104 1.9 0 3.22 7.542 1.518 7.542 6.23 0 2.622-2.3 3.54-4.668 3.54zm16.535-5.886h-9.543c.207 2.62 1.9 4.53 4.415 4.53 1.242 0 2.713-.552 3.38-1.586a.6.6 0 0 1 .552-.322c.345 0 .713.276.713.62 0 .207 0 .253-.437.76-1.058 1.242-2.6 1.84-4.208 1.84-3.702 0-5.772-3.036-5.772-6.508 0-3.45 2.07-6.484 5.772-6.484s5.77 3.058 5.77 6.484a.7.7 0 0 1-.644.667zm-5.128-5.84c-2.76 0-4.208 2.116-4.415 4.53h8.853c-.207-2.62-1.9-4.53-4.438-4.53zm-36.755 44.782h-10.1c-.957 0-1.518-.56-1.518-1.254 0-.297.1-.594.297-.9l9-13.697c.396-.627.627-1.386.627-1.98 0-1.947-1.452-3.432-3.4-3.432-1.75 0-3.235 1.485-3.796 2.54a1.23 1.23 0 0 1-1.122.693c-.76 0-1.452-.594-1.452-1.354 0-1.023 2.343-4.72 6.37-4.72a6.22 6.22 0 0 1 6.205 6.205c0 1.32-.462 2.607-1.122 3.564l-7.558 11.52h7.558c.957 0 1.452.66 1.452 1.42 0 .693-.495 1.386-1.452 1.386zm5.765-17.935c-1.674 0-3.04-1.52-3.04-3.386s1.366-3.367 3.04-3.367c1.655 0 3.02 1.5 3.02 3.367s-1.366 3.386-3.02 3.386zm0-5.118c-.616 0-1.385.616-1.385 1.732s.77 1.73 1.385 1.73 1.385-.616 1.385-1.73-.77-1.732-1.385-1.732zm8.023-.943l-3.54 12.738c-.096.423-.423.616-.75.616-.443 0-.866-.308-.866-.808 0-.058 0-.154.02-.23l3.56-12.757c.115-.404.442-.597.77-.597.404 0 .847.3.847.77 0 .096-.02.173-.04.27zm2.732 13.007c-1.655 0-3.02-1.52-3.02-3.387 0-1.847 1.366-3.367 3.02-3.367 1.674 0 3.04 1.52 3.04 3.367 0 1.867-1.366 3.387-3.04 3.387zm0-5.118c-.597 0-1.366.616-1.366 1.73 0 1.135.77 1.75 1.366 1.75.616 0 1.385-.616 1.385-1.75 0-1.116-.77-1.73-1.385-1.73zm95.67 484.982h-15.768c.342 4.33 3.154 7.485 7.295 7.485 2.052 0 4.483-.912 5.585-2.622.266-.418.57-.532.912-.532.57 0 1.178.456 1.178 1.026 0 .342 0 .418-.722 1.254-1.748 2.052-4.293 3.04-6.953 3.04-6.117 0-9.537-5.015-9.537-10.752 0-5.7 3.42-10.715 9.537-10.715s9.537 5.054 9.537 10.715c0 .57-.532 1.102-1.064 1.102zm-8.473-9.65c-4.56 0-6.953 3.495-7.295 7.484h14.628c-.342-4.33-3.153-7.484-7.333-7.484z"/><use xlink:href="#k"/><path d="M218.4 742.356c-.152.076-.304.076-.418.076a1.13 1.13 0 0 1-1.102-1.103c0-.418.228-.798.722-1.025 1.48-.646 2.925-1.937 2.925-4.407V715.2c0-.684.532-1.063 1.102-1.063.494 0 1.063.342 1.063 1.063v20.707c0 3.533-2.204 5.623-4.293 6.46zm3.23-31.877a2.14 2.14 0 1 1 0-4.332c1.14 0 2.166.95 2.166 2.166s-1.026 2.166-2.166 2.166z"/><use xlink:href="#l"/><path d="M264.148 715.646L253.852 740c-.76 1.785-2.318 2.28-4.065 2.28h-1.672c-.684 0-1.063-.57-1.063-1.102 0-.494.38-1.064 1.063-1.064h1.672c.836 0 1.7-.037 2.052-.9l2.166-5.168-7.865-18.4c-.076-.2-.076-.342-.076-.494 0-.607.532-1.025 1.102-1.025.342 0 .76.15.95.646l7.067 16.5 7-16.5c.2-.494.608-.646.988-.646.57 0 1.064.418 1.064 1.025 0 .152 0 .304-.076.494zm3.385-5.166a2.166 2.166 0 1 1 0-4.332 2.166 2.166 0 0 1 0 4.332zm0 23.822c-.532 0-1.102-.342-1.102-1.064V715.2c0-.684.532-1.063 1.102-1.063.494 0 1.063.342 1.063 1.063v18.047c0 .685-.494 1.064-1.063 1.064z"/><use xlink:href="#k" x="72.768"/><path d="M301.998 742.964c-3.23 0-7.8-1.216-7.8-2.583 0-.608.494-1.216 1.102-1.216.418 0 1.292.646 2.014.912.988.342 2.546.722 4.673.722 4.863 0 7.37-2.394 7.37-7.067v-2.66c-1.672 2.014-4.065 3.23-7.37 3.23-6.003 0-9.537-4.256-9.537-10.106 0-5.7 3.42-10.715 9.537-10.715 3.306 0 5.775 1.368 7.37 3.57v-1.823c0-.684.57-1.064 1.102-1.064.494 0 1.064.38 1.064 1.064v18.503c0 6.04-3.6 9.232-9.537 9.232zm0-27.317c-4.483 0-7.37 3.6-7.37 8.55 0 4.9 2.697 7.94 7.37 7.94s7.37-3.04 7.37-7.94c0-4.94-2.85-8.55-7.37-8.55zM227.9 768.302h-1.178c-3 0-4.483-1.482-4.483-4.445v-13.564h-1.94c-.684 0-1.064-.57-1.064-1.102 0-.494.38-1.063 1.064-1.063h1.938v-5.813c0-.684.57-1.063 1.102-1.063s1.064.38 1.064 1.063v5.813h3.496c.684 0 1.063.57 1.063 1.063 0 .532-.38 1.102-1.063 1.102h-3.496v13.564c0 1.86.532 2.28 2.317 2.28h1.178c.684 0 1.063.57 1.063 1.102 0 .494-.38 1.064-1.063 1.064zm19.263 0c-.532 0-1.102-.38-1.102-1.064v-11.094a6.47 6.47 0 0 0-6.497-6.497c-3.57 0-6.497 2.888-6.497 6.497v11.094c0 .685-.57 1.064-1.063 1.064-.532 0-1.102-.38-1.102-1.064v-24.924c0-.684.57-1.063 1.102-1.063.494 0 1.063.38 1.063 1.063v8.093c1.596-1.86 3.914-2.926 6.497-2.926 4.7 0 8.663 3.913 8.663 8.663v11.094c0 .685-.57 1.064-1.063 1.064zm21.735-9.005H253.13c.342 4.33 3.154 7.485 7.295 7.485 2.052 0 4.483-.912 5.585-2.622.266-.418.57-.532.912-.532.57 0 1.178.456 1.178 1.026 0 .342 0 .418-.722 1.254-1.748 2.052-4.293 3.04-6.953 3.04-6.117 0-9.537-5.015-9.537-10.752 0-5.7 3.42-10.715 9.537-10.715s9.537 5.054 9.537 10.715c0 .57-.532 1.102-1.064 1.102zm-8.473-9.65c-4.56 0-6.953 3.495-7.295 7.484h14.628c-.342-4.33-3.153-7.484-7.333-7.484zm-54.72 52.655c-.532 0-1.064-.38-1.064-1.064v-12.766c0-2.622-2.204-4.825-4.825-4.825s-4.863 2.203-4.863 4.787v12.804c0 .685-.532 1.064-1.064 1.064s-1.102-.38-1.102-1.064v-12.766c0-2.622-2.204-4.825-4.788-4.825-2.66 0-4.863 2.203-4.863 4.787v12.804c0 .685-.57 1.064-1.064 1.064-.532 0-1.102-.38-1.102-1.064V783.2c0-.684.57-1.063 1.102-1.063.494 0 1.064.38 1.064 1.063v.228c1.254-1.216 2.964-1.937 4.825-1.937 2.432 0 4.598 1.216 5.927 3.23 1.254-1.937 3.42-3.23 5.9-3.23 3.952 0 7.03 3.115 7.03 6.953v12.804c0 .685-.57 1.064-1.102 1.064z"/><use xlink:href="#l" x="-16.225" y="68"/><path d="M256.282 802.302c-.532 0-1.064-.38-1.064-1.064v-12.766c0-2.622-2.204-4.825-4.825-4.825s-4.863 2.203-4.863 4.787v12.804c0 .685-.532 1.064-1.064 1.064s-1.102-.38-1.102-1.064v-12.766c0-2.622-2.204-4.825-4.788-4.825-2.66 0-4.863 2.203-4.863 4.787v12.804c0 .685-.57 1.064-1.063 1.064-.532 0-1.102-.38-1.102-1.064V783.2c0-.684.57-1.063 1.102-1.063.494 0 1.063.38 1.063 1.063v.228c1.254-1.216 2.964-1.937 4.825-1.937 2.432 0 4.598 1.216 5.927 3.23 1.254-1.937 3.42-3.23 5.9-3.23 3.952 0 7.03 3.115 7.03 6.953v12.804c0 .685-.57 1.064-1.102 1.064zm21.775-9.005H262.3c.342 4.33 3.154 7.485 7.295 7.485 2.052 0 4.483-.912 5.585-2.622.266-.418.57-.532.912-.532.57 0 1.178.456 1.178 1.026 0 .342 0 .418-.722 1.254-1.748 2.052-4.293 3.04-6.953 3.04-6.117 0-9.537-5.015-9.537-10.752 0-5.7 3.42-10.715 9.537-10.715s9.537 5.054 9.537 10.715c0 .57-.532 1.102-1.064 1.102zm-8.473-9.65c-4.56 0-6.953 3.495-7.295 7.484h14.628c-.342-4.33-3.153-7.484-7.333-7.484zm28.803 18.655c-.532 0-1.102-.38-1.102-1.064v-11.094a6.47 6.47 0 0 0-6.497-6.497c-3.57 0-6.497 2.888-6.497 6.497v11.094c0 .685-.57 1.064-1.064 1.064-.532 0-1.102-.38-1.102-1.064V783.2c0-.684.57-1.063 1.102-1.063.494 0 1.064.38 1.064 1.063v1.216c1.7-1.86 3.952-2.926 6.497-2.926 4.7 0 8.663 3.913 8.663 8.663v11.094c0 .685-.57 1.064-1.063 1.064zm11.553 0h-1.178c-3 0-4.483-1.482-4.483-4.445v-13.564h-1.938c-.684 0-1.064-.57-1.064-1.102 0-.494.38-1.063 1.064-1.063h1.938v-5.813c0-.684.57-1.063 1.102-1.063s1.064.38 1.064 1.063v5.813h3.496c.684 0 1.063.57 1.063 1.063 0 .532-.38 1.102-1.063 1.102h-3.496v13.564c0 1.86.532 2.28 2.317 2.28h1.178c.684 0 1.063.57 1.063 1.102 0 .494-.38 1.064-1.063 1.064z"/><use xlink:href="#m"/><use xlink:href="#m" x="12.318"/><path d="M248.705 821.052c-2.23 0-4.053-2.026-4.053-4.514s1.82-4.49 4.053-4.49c2.206 0 4.027 2 4.027 4.49s-1.82 4.514-4.027 4.514zm0-6.822c-.82 0-1.847.82-1.847 2.31s1.026 2.31 1.847 2.31 1.847-.82 1.847-2.31-1.026-2.31-1.847-2.31zm10.696-1.257l-4.72 16.98c-.128.563-.564.82-1 .82-.6 0-1.154-.4-1.154-1.077 0-.077 0-.205.026-.308l4.745-17.006c.154-.54.6-.796 1.026-.796.54 0 1.13.385 1.13 1.026 0 .128-.026.23-.05.36zm3.642 17.34c-2.206 0-4.027-2.026-4.027-4.514 0-2.463 1.82-4.49 4.027-4.49 2.23 0 4.053 2.026 4.053 4.49 0 2.487-1.82 4.514-4.053 4.514zm0-6.822c-.795 0-1.82.82-1.82 2.31 0 1.513 1.026 2.334 1.82 2.334.82 0 1.847-.82 1.847-2.334 0-1.488-1.026-2.31-1.847-2.31z"/></g><defs ><path id="J" d="M104.714 1045.51c-.633 0-1.267-.367-1.4-1.1-1.334 1.034-2.97 1.668-4.804 1.668-4.136 0-7.604-3.436-7.604-7.605v-9.24a1.37 1.37 0 0 1 1.4-1.435c.768 0 1.468.5 1.468 1.4v9.272c0 2.602 2.168 4.77 4.736 4.77 2.603 0 4.77-2.17 4.77-4.77v-9.24c0-1.034.667-1.468 1.4-1.468.768 0 1.435.5 1.435 1.435v14.9c0 .934-.667 1.4-1.4 1.4z"/><path id="K" d="M745.46 1046.357c-1.2 0-3.22-.42-3.92-1.58-.08-.12-.08-.22-.08-.3 0-.32.28-.602.58-.602.12 0 .32.102.44.28.72.88 2 1.06 2.98 1.06 1.94 0 2.92-.64 2.92-1.94 0-3.02-6.562-1.42-6.562-5.422 0-2.02 2.02-2.8 3.84-2.8 1.04 0 2.64.36 3.44 1.16.12.12.18.26.18.38a.65.65 0 0 1-.62.6c-.12 0-.26-.04-.38-.16-.62-.6-1.74-.84-2.62-.84-1.76 0-2.7.682-2.7 1.66 0 2.8 6.562 1.32 6.562 5.422 0 2.28-2 3.08-4.06 3.08z"/><path id="L" d="M756.182 1046.318c-3.22 0-5.02-2.64-5.02-5.662 0-3 1.8-5.64 5.02-5.64s5.02 2.64 5.02 5.64c0 3.02-1.8 5.662-5.02 5.662zm0-10.162c-2.36 0-3.88 1.9-3.88 4.5s1.52 4.52 3.88 4.52c2.38 0 3.88-1.92 3.88-4.52s-1.5-4.5-3.88-4.5z"/><path id="M" d="M905.32 1045.98h-4.44a.61.61 0 0 1-.58-.561v-13.123c0-.3.28-.56.58-.56h4.44c4.12 0 5.48 3.44 5.48 7.102 0 3.72-1.36 7.143-5.48 7.143zm0-13.123h-3.88v11.982h3.88c3.42 0 4.34-2.96 4.34-5.98 0-3.562-1.24-6.002-4.34-6.002z"/><path id="N" d="M923.74 1045.98h-.02c-.66 0-1.6-.36-1.98-1.56-.84 1.18-2.14 1.9-3.88 1.9-3.26 0-5.02-2.682-5.02-5.662 0-3.02 1.8-5.64 5.02-5.64 1.74 0 3.04.72 3.88 1.88v-.98c0-.32.26-.56.58-.56.28 0 .56.2.56.56v8.063c0 1.28 1.44.48 1.44 1.44a.55.55 0 0 1-.58.561zm-5.88-9.822c-2.36 0-3.88 1.9-3.88 4.5s1.52 4.52 3.88 4.52c2.38 0 3.88-1.92 3.88-4.52s-1.5-4.5-3.88-4.5z"/><path id="O" d="M985.74 1046.318c-1.74 0-3.04-.72-3.88-1.9v5.182c0 .36-.3.58-.56.58a.58.58 0 0 1-.58-.58v-13.684c0-.36.3-.56.58-.56.26 0 .56.2.56.56v.98c.84-1.16 2.14-1.88 3.88-1.88 3.22 0 5.02 2.64 5.02 5.64 0 3.02-1.8 5.662-5.02 5.662zm0-10.162c-2.38 0-3.88 1.9-3.88 4.5s1.5 4.52 3.88 4.52 3.88-1.92 3.88-4.52-1.5-4.5-3.88-4.5z"/><path id="P" d="M63.22 42.382h-9.96v35.1c0 1.62-1.2 2.52-2.52 2.52-1.26 0-2.58-.9-2.58-2.52v-35.1h-9.84c-1.74 0-2.64-1.32-2.64-2.58 0-1.2.9-2.52 2.58-2.52h24.96c1.68 0 2.58 1.32 2.58 2.52 0 1.26-.9 2.58-2.58 2.58z"/><path id="Q" d="M92.978 80c-1.32 0-2.52-.9-2.52-2.52V60.8c0-4.68-3.9-8.58-8.58-8.58-4.62 0-8.52 3.9-8.52 8.58v16.62c0 1.68-1.26 2.64-2.64 2.64-1.26 0-2.52-.9-2.52-2.58V39.862c0-1.74 1.26-2.58 2.52-2.58 1.38 0 2.64.84 2.64 2.52v10.38c2.22-2.1 5.22-3.06 8.52-3.06 7.44 0 13.68 6.18 13.68 13.68v16.62c0 1.68-1.2 2.58-2.58 2.58z"/><path id="R" d="M127.298 66.68h-22.2c.84 5.64 4.44 9.24 9.72 9.24 2.7 0 5.4-.96 7.14-3.12.54-.6 1.14-.96 1.86-.96 1.32 0 2.7 1.2 2.7 2.64 0 .72-.18 1.26-1.44 2.52-2.7 2.64-6.42 4.02-10.26 4.02-9.66 0-15.06-7.98-15.06-16.98 0-8.94 5.4-16.92 15.06-16.92 9.78 0 15 7.98 15 16.92 0 1.32-.96 2.64-2.52 2.64zm-12.48-14.46c-5.64 0-8.94 4.14-9.72 9.3h19.44c-.84-5.76-4.44-9.3-9.72-9.3z"/><path id="S" d="M224.197 81.02c-3.3 0-8.82-1.02-11.64-4.5-.36-.54-.54-1.08-.54-1.56 0-1.5 1.44-2.7 2.7-2.7.72 0 1.26.36 1.86 1.02 1.86 2.04 4.92 2.64 7.62 2.64 5.4 0 7.14-1.86 7.14-4.56 0-7.68-18.3-2.94-18.3-15.3 0-6.54 6.12-8.94 11.82-8.94 3.24 0 10.86 1.62 10.86 4.98 0 1.32-1.08 2.7-2.52 2.7-.54 0-1.38-.3-1.98-.78-1.62-1.38-3.96-1.8-6.36-1.8-4.98 0-6.72 1.86-6.72 3.84 0 7.14 18.36 2.52 18.36 15.3 0 7.08-5.94 9.66-12.3 9.66z"/><path id="T" d="M332.675 43.282a4.3 4.3 0 1 1 0-8.64 4.3 4.3 0 1 1 0 8.64zm0 36.72c-1.32 0-2.64-.9-2.64-2.52v-26.76c0-1.68 1.32-2.58 2.64-2.58 1.26 0 2.52.9 2.52 2.58v26.76c0 1.68-1.26 2.52-2.52 2.52z"/><path id="U" d="M366.333 80c-1.32 0-2.52-.9-2.52-2.52V60.8c0-4.68-3.9-8.58-8.58-8.58-4.62 0-8.52 3.9-8.52 8.58v16.62c0 1.68-1.26 2.64-2.64 2.64-1.26 0-2.52-.9-2.52-2.58v-26.82c0-1.74 1.26-2.52 2.52-2.52 1.2 0 2.28.66 2.58 1.98 2.34-1.86 5.28-3 8.58-3 7.44 0 13.68 6.18 13.68 13.68v16.62c0 1.68-1.2 2.58-2.58 2.58z"/><path id="V" d="M584.31 66.68h-22.2c.84 5.64 4.44 9.24 9.72 9.24 2.7 0 5.4-.96 7.14-3.12.54-.6 1.14-.96 1.86-.96 1.32 0 2.7 1.2 2.7 2.64 0 .72-.18 1.26-1.44 2.52-2.7 2.64-6.42 4.02-10.26 4.02-9.66 0-15.06-7.98-15.06-16.98 0-8.94 5.4-16.92 15.06-16.92 9.78 0 15 7.98 15 16.92 0 1.32-.96 2.64-2.52 2.64zm-12.48-14.46c-5.64 0-8.94 4.14-9.72 9.3h19.438c-.84-5.76-4.44-9.3-9.72-9.3z"/><path id="W" d="M711.8 80.12c-3.24 0-6-2.76-6-6.12V39.862c0-1.74 1.26-2.58 2.58-2.58s2.58.84 2.58 2.52V74c0 .72.54 1.02.84 1.02 1.68 0 2.58 1.2 2.58 2.58 0 1.32-.9 2.52-2.58 2.52z"/><path id="X" d="M819.628 52.222c-4.62 0-8.52 3.9-8.52 8.58v16.62c0 1.68-1.26 2.58-2.64 2.58-1.26 0-2.52-.9-2.52-2.52v-26.76c0-1.68 1.38-2.58 2.52-2.58 1.2 0 2.34.66 2.58 2.04 2.34-1.92 5.52-3.06 8.58-3.06 1.74 0 2.64 1.2 2.64 2.58 0 1.32-.9 2.52-2.64 2.52z"/><path id="Y" d="M83.93 128c-.53 0-1.102-.38-1.102-1.063v-11.095a6.47 6.47 0 0 0-6.497-6.497c-3.57 0-6.497 2.888-6.497 6.497v11.095c0 .684-.57 1.063-1.063 1.063-.532 0-1.103-.38-1.103-1.063v-24.925c0-.684.57-1.063 1.103-1.063.494 0 1.063.38 1.063 1.063v8.093c1.596-1.86 3.913-2.926 6.497-2.926 4.71 0 8.663 3.914 8.663 8.663v11.095c0 .684-.57 1.063-1.064 1.063z"/><path id="Z" d="M109.124 128h-.038c-1.254 0-3.04-.684-3.762-2.964-1.596 2.242-4.065 3.61-7.37 3.61-6.193 0-9.536-5.09-9.536-10.752 0-5.737 3.42-10.715 9.536-10.715 3.306 0 5.775 1.368 7.37 3.572v-1.862c0-.607.494-1.063 1.102-1.063.532 0 1.064.38 1.064 1.063V124.2c0 2.432 2.735.912 2.735 2.736a1.04 1.04 0 0 1-1.102 1.063zm-11.17-18.655c-4.483 0-7.37 3.61-7.37 8.55s2.888 8.587 7.37 8.587c4.52 0 7.37-3.647 7.37-8.587s-2.85-8.55-7.37-8.55z"/><path id="a" d="M260.78 128.646c-3.306 0-5.775-1.367-7.37-3.61v9.84c0 .684-.57 1.102-1.063 1.102-.532 0-1.103-.418-1.103-1.102V108.89c0-.684.57-1.063 1.103-1.063.494 0 1.063.38 1.063 1.063v1.862c1.596-2.204 4.065-3.572 7.37-3.572 6.117 0 9.536 5.016 9.536 10.715 0 5.737-3.42 10.752-9.536 10.752zm0-19.3c-4.52 0-7.37 3.61-7.37 8.55s2.85 8.587 7.37 8.587 7.37-3.647 7.37-8.587-2.85-8.55-7.37-8.55z"/><path id="b" d="M304.708 128.646c-6.117 0-9.536-5.015-9.536-10.752 0-5.7 3.42-10.715 9.536-10.715s9.537 5.016 9.537 10.715c0 5.737-3.42 10.752-9.537 10.752zm0-19.3c-4.483 0-7.37 3.61-7.37 8.55s2.888 8.587 7.37 8.587c4.52 0 7.37-3.647 7.37-8.587s-2.85-8.55-7.37-8.55z"/><path id="c" d="M545.813 125.76c-1.672 1.86-3.99 2.887-6.8 2.887-6.117 0-9.536-5.015-9.536-10.752 0-5.7 3.42-10.715 9.536-10.715 2.812 0 5.13 1.026 6.8 2.888.23.23.305.494.305.722 0 .57-.532 1.14-1.103 1.14-.266 0-.53-.114-.798-.38-1.254-1.406-3-2.204-5.205-2.204-4.483 0-7.37 3.61-7.37 8.55s2.888 8.587 7.37 8.587c2.204 0 3.95-.836 5.205-2.204.267-.266.532-.38.798-.38a1.13 1.13 0 0 1 1.103 1.102c0 .267-.076.494-.305.76z"/><path id="d" d="M620.367 128c-.53 0-1.102-.38-1.102-1.063v-1.9c-1.596 2.242-4.065 3.61-7.37 3.61-6.117 0-9.536-5.015-9.536-10.752 0-5.7 3.42-10.715 9.536-10.715 3.306 0 5.775 1.368 7.37 3.572v-8.74c0-.684.57-1.063 1.102-1.063.494 0 1.064.38 1.064 1.063v24.925c0 .684-.57 1.063-1.064 1.063zm-8.473-18.655c-4.483 0-7.37 3.61-7.37 8.55s2.888 8.587 7.37 8.587c4.52 0 7.37-3.647 7.37-8.587s-2.85-8.55-7.37-8.55z"/><path id="e" d="M692.835 128h-1.178c-3 0-4.483-1.48-4.483-4.445V109.99h-1.937c-.684 0-1.063-.57-1.063-1.102 0-.494.38-1.063 1.063-1.063h1.938v-5.813c0-.684.57-1.063 1.103-1.063s1.063.38 1.063 1.063v5.813h3.495c.685 0 1.064.57 1.064 1.063 0 .532-.38 1.102-1.064 1.102h-3.495v13.564c0 1.86.532 2.28 2.317 2.28h1.178c.685 0 1.064.57 1.064 1.103 0 .493-.38 1.063-1.064 1.063z"/><path id="f" d="M810.102 128a2.14 2.14 0 1 1 0-4.331 2.14 2.14 0 1 1 0 4.331z"/><path id="g" d="M656.475 736.428h-1.736c-1.344 0-2.464 1.12-2.464 2.408v4.592h4.2c1.064 0 1.568.84 1.568 1.568 0 .784-.56 1.624-1.568 1.624h-4.2v24.976c0 1.008-.784 1.568-1.568 1.568s-1.568-.504-1.568-1.568V746.62h-3.864c-1.008 0-1.568-.84-1.568-1.624 0-.73.56-1.568 1.568-1.568h3.864v-4.592a5.56 5.56 0 0 1 5.544-5.544h1.792c1.008 0 1.624.784 1.624 1.624 0 .784-.56 1.512-1.624 1.512z"/><path id="h" d="M677.27 340.55h-23.24c.504 6.384 4.648 11.032 10.752 11.032 3.024 0 6.608-1.344 8.232-3.864.392-.616.84-.784 1.344-.784.84 0 1.736.672 1.736 1.512 0 .504 0 .616-1.064 1.848-2.576 3.024-6.328 4.48-10.248 4.48-9.016 0-14.056-7.392-14.056-15.848 0-8.4 5.04-15.792 14.056-15.792s14.056 7.448 14.056 15.792c0 .84-.784 1.624-1.568 1.624zm-12.488-14.224c-6.72 0-10.248 5.152-10.752 11.032h21.56c-.504-6.384-4.648-11.032-10.808-11.032z"/><path id="i" d="M238.898 363.18c-.532 0-1.102-.38-1.102-1.064V351.02a6.47 6.47 0 0 0-6.497-6.497c-3.57 0-6.497 2.888-6.497 6.497v11.094c0 .684-.57 1.064-1.064 1.064-.532 0-1.102-.38-1.102-1.064v-18.047c0-.684.57-1.063 1.102-1.063.494 0 1.064.38 1.064 1.063v1.216c1.7-1.86 3.952-2.925 6.497-2.925 4.71 0 8.663 3.913 8.663 8.663v11.094c0 .684-.57 1.064-1.063 1.064z"/><path id="j" d="M97.398 888.96c-.42 0-.87-.3-.87-.84v-.96c-1.26 1.47-3.1 2.3-5.13 2.3-3.72 0-6.84-3.12-6.84-6.84v-8.76c0-.54.45-.84.87-.84.4 0 .84.3.84.84v8.76c0 2.85 2.28 5.13 5.13 5.13s5.13-2.28 5.13-5.13v-8.76c0-.54.45-.84.87-.84.4 0 .84.3.84.84v14.25c0 .54-.45.84-.84.84z"/><path id="k" d="M215.966 734.302c-.532 0-1.102-.38-1.102-1.064v-11.094a6.47 6.47 0 0 0-6.497-6.497c-3.57 0-6.497 2.888-6.497 6.497v11.094c0 .685-.57 1.064-1.063 1.064-.532 0-1.102-.38-1.102-1.064V715.2c0-.684.57-1.063 1.102-1.063.494 0 1.063.38 1.063 1.063v1.216c1.7-1.86 3.952-2.926 6.497-2.926 4.71 0 8.663 3.913 8.663 8.663v11.094c0 .685-.57 1.064-1.063 1.064z"/><path id="l" d="M235.232 734.947c-6.117 0-9.537-5.015-9.537-10.752 0-5.7 3.42-10.715 9.537-10.715s9.537 5.016 9.537 10.715c0 5.737-3.42 10.752-9.537 10.752zm0-19.3c-4.483 0-7.37 3.61-7.37 8.55s2.887 8.587 7.37 8.587c4.52 0 7.37-3.647 7.37-8.587s-2.85-8.55-7.37-8.55z"/><path id="m" d="M227.642 844.964c-.924 0-1.85-.704-1.85-1.85v-23.587l-3.52 3.433c-.396.396-.836.527-1.232.527-1.056 0-1.98-.968-1.98-1.936 0-.484.176-.925.572-1.32l6.557-6.337c.528-.484 1.1-.704 1.628-.704 1.232 0 1.76 1.23 1.76 2.244v27.636c0 1.188-.924 1.893-1.936 1.893z"/></defs></svg>