<svg xmlns="http://www.w3.org/2000/svg" xmlns:xlink="http://www.w3.org/1999/xlink" viewBox="0 0 1080 1080"><linearGradient id="A" gradientUnits="userSpaceOnUse" x1="11.716" y1="11.716" x2="1068.284" y2="1068.284"><stop offset="0" stop-color="#bbd2c5"/><stop offset=".34" stop-color="#71878d"/><stop offset=".5" stop-color="#536976"/><stop offset=".669" stop-color="#415063"/><stop offset=".875" stop-color="#303750"/><stop offset="1" stop-color="#292e49"/></linearGradient><path d="M1040 1080H40c-22.09 0-40-17.91-40-40V40C0 17.91 17.91 0 40 0h1000c22.09 0 40 17.91 40 40v1000c0 22.09-17.91 40-40 40z" fill="url(#A)"/><linearGradient id="B" gradientUnits="userSpaceOnUse" x1="683.479" y1="664.393" x2="1029.483" y2="1010.397"><stop offset="0" stop-color="#8aaace"/><stop offset=".433" stop-color="#6e83b1"/><stop offset=".786" stop-color="#5d6a9e"/><stop offset="1" stop-color="#566197"/></linearGradient><path d="M1045.544 979.627s6.057 12.263 0 14.07c0 0-37.718 7.892-30.07-3.32 0 0 1.06-2.798 3.973-3.823 0 0 1.564-1.548 1.824-8.96 0 0 1.6-27.087-12.653-41.394 0 0-18.72-9.976-26.107-15.598 0 0-17.12 15.833-22.405 47.815 0 0-3.964 16.878-3.18 20.666 0 0 4.24 8.205-5.77 7.684 0 0-32.712 5.37-27.95-6.65 0 0-.546-1.547 3.408-5.1 0 0 8.177-6.144 10.037-16.11 0 0 15.287-36.033 8.95-45.2 0 0-7.118-9.463-7.118-11.523 0 0-36.143-6.38-45.895-14.045 0 0-1.312 14.835-7.9 20.198 0 0-6.075 11.993-3.173 23.517 0 0 3.173 25.263 10.813 38.3 0 0 11.323 11.768 1.068 12.55 0 0-16.095 5.354-20.32 1.79 0 0-41.4 3.85-31.91-8.926 0 0 7.134-5.65 2.64-13.322 0 0-5.275-15.835-3.955-31.946 0 0-3.953-32.434-1.043-49.033 0 0 1.043-37.813-3.154-42.175 0 0-32.998-11.238-39.57-27.62 0 0-8.447-8.438-.808-14.295l10.82-7.675s-11.34-2.033-17.136-18.137l-1.573-5.1s-10.03-12.507-10.03-19.146l-4.893-2.095c-3.9-1.92-7.76-4.206-11.22-6.813-8.5-6.422-14.347-15.06-15.6-25.446-.226-2.06-2.008-11.384.817-12.67 1.815-.86 3.92 11.75 4.396 13.358 1.14 3.78 2.47 7.552 4.65 10.87 4.405 6.64 14.947 10.135 21.847 13.837l-.54-4.588s-12.93-14.313-11.863-29.654c0 0 2.122-7.673 3.973-1.034 0 0 2.632 14.297 5.78 17.668 0 0-2.885-27.627-5.52-39.377 0 0-15.025-60.817-18.736-68.986 0 0-2.364-6.91-7.118-10.47 0 0-6.336-2.8-2.113-3.843 0 0 4.224 0 4.224-3.076 0 0 0-6.1 3.18-1.773 0 0 15.018 21.447 21.874 42.688 2.79 10.647 5.615 21.25 8.892 31.747 4.944 15.694 8.586 32.425 17.25 46.712 1.878 3.077 4.024 6.3 7.09 8.422 0 0 7.63 3.024 11.854 3.805 0 0 26.107 4.362 38.23 19.703 0 0 12.67 7.142 15.312 11.218 0 0 22.136 17.138 25.82 26.342 0 0 13.463 14.55 28.76 10.482 0 0 45.347-14.33 67.498.748 0 0 30.33 20.44 36.9 48.023 0 0 .26 37.84 5.544 47.034 0 0 .52 6.117 4.483 11.523 0 0 5.555 10.7 2.122 28.09 0 0-4.754 9.707-3.973-4.346 0 0 2.903-19.162-3.667-21.735 0 0-2.92 16.87-.295 25.56 0 0 9.246 21.223 10.81 27.602 0 0 0 9.228 2.4 13.027zm-177.453 4.606l.235-4.346c-.235-4.848-5.25-13.808-5.25-13.808-1.564 15.364 5.016 18.154 5.016 18.154z" fill="url(#B)"/><linearGradient id="C" gradientUnits="userSpaceOnUse" x1="19" y1="604.58" x2="835.76" y2="604.58"><stop offset="0" stop-color="#f12711"/><stop offset=".032" stop-color="#f12d11"/><stop offset=".36" stop-color="#f36415"/><stop offset=".642" stop-color="#f48d17"/><stop offset=".865" stop-color="#f5a618"/><stop offset="1" stop-color="#f5af19"/></linearGradient><path d="M835.76 549.02H307.184V415.898H835.76V549.02zm-305.184 0H19V674.14h511.576V549.02zM308.792 674.14H19v119.122h289.792V674.14z" fill="url(#C)"/><g opacity=".5" fill="#fff"><use xlink:href="#E"/><path d="M818.322 1046.318c-3.22 0-5.02-2.64-5.02-5.662 0-3 1.8-5.64 5.02-5.64s5.02 2.64 5.02 5.64c0 3.02-1.8 5.662-5.02 5.662zm0-10.162c-2.36 0-3.88 1.9-3.88 4.5s1.52 4.52 3.88 4.52c2.38 0 3.88-1.92 3.88-4.52s-1.5-4.5-3.88-4.5zm15.78 9.824c-.28 0-.58-.2-.58-.56v-.64c-.84.98-2.06 1.54-3.42 1.54-2.48 0-4.56-2.08-4.56-4.56v-5.842c0-.36.3-.56.58-.56.26 0 .56.2.56.56v5.842c0 1.9 1.52 3.42 3.42 3.42s3.42-1.52 3.42-3.42v-5.842c0-.36.3-.56.58-.56.26 0 .56.2.56.56v9.502c0 .36-.3.56-.56.56z"/><use xlink:href="#F"/><path d="M852.242 1044.797c-.88.98-2.1 1.52-3.58 1.52-3.22 0-5.02-2.64-5.02-5.662 0-3 1.8-5.64 5.02-5.64 1.48 0 2.7.54 3.58 1.52.12.12.16.262.16.38 0 .3-.28.6-.58.6-.14 0-.28-.06-.42-.2-.66-.74-1.58-1.16-2.74-1.16-2.36 0-3.88 1.9-3.88 4.5s1.52 4.52 3.88 4.52c1.16 0 2.08-.44 2.74-1.16.14-.14.28-.2.42-.2.3 0 .58.26.58.58 0 .14-.04.26-.16.398z"/><use xlink:href="#G"/><path d="M867.8 1039.416c-.64 0-1.16-.5-1.16-1.14s.52-1.14 1.16-1.14c.62 0 1.12.5 1.12 1.14s-.5 1.14-1.12 1.14zm0 6.563c-.64 0-1.16-.5-1.16-1.14s.52-1.14 1.16-1.14c.62 0 1.12.5 1.12 1.14s-.5 1.14-1.12 1.14zm18.182.02c-.18 0-.34-.12-.48-.32l-7.82-11.543v11.283c0 .36-.3.56-.56.56-.28 0-.58-.2-.58-.56v-13.123c0-.34.3-.6.6-.6.18 0 .34.12.48.32l7.822 11.54v-11.262c0-.36.3-.56.56-.56.28 0 .58.2.58.56v13.123c0 .34-.3.58-.6.58zm12.46-13.424l-4.342 7.963v4.88c0 .36-.3.56-.58.56-.26 0-.56-.2-.56-.56v-4.88l-4.32-7.963c-.04-.1-.06-.22-.06-.3 0-.32.3-.54.6-.54a.54.54 0 0 1 .48.281l3.86 7.182 3.9-7.182a.54.54 0 0 1 .479-.281c.3 0 .62.22.62.54 0 .08-.04.2-.08.3zm10.278.28h-3.88v12.563c0 .36-.28.56-.58.56-.26 0-.56-.18-.56-.56v-12.562h-3.88a.55.55 0 0 1-.58-.561.55.55 0 0 1 .58-.561h8.9c.36 0 .56.28.56.56s-.2.56-.56.56zm2.74.58c-.64 0-1.14-.5-1.14-1.14s.5-1.14 1.14-1.14 1.14.5 1.14 1.14-.5 1.14-1.14 1.14zm0 12.543c-.28 0-.58-.18-.58-.56v-9.502c0-.36.28-.56.58-.56.26 0 .56.18.56.56v9.502c0 .36-.26.56-.56.56zm16.422.001c-.28 0-.56-.2-.56-.56v-6.72c0-1.38-1.16-2.54-2.54-2.54s-2.56 1.16-2.56 2.52v6.742c0 .36-.28.56-.56.56s-.58-.2-.58-.56v-6.72a2.57 2.57 0 0 0-2.521-2.541c-1.4 0-2.56 1.16-2.56 2.52v6.742c0 .36-.3.56-.56.56-.28 0-.58-.2-.58-.56v-9.502c0-.36.3-.56.58-.56.26 0 .56.2.56.56v.12a3.64 3.64 0 0 1 2.54-1.02 3.71 3.71 0 0 1 3.121 1.701 3.69 3.69 0 0 1 3.1-1.7c2.08 0 3.7 1.64 3.7 3.66v6.742c0 .36-.3.56-.58.56z"/><use xlink:href="#G" x="76.317"/><use xlink:href="#E" x="138.82"/><path d="M951.378 1047.758c-.08.06-.2.08-.3.08-.32 0-.54-.28-.54-.58 0-.56.86-.64 1-1.28-.6-.04-1.08-.54-1.08-1.14 0-.68.56-1.16 1.16-1.16.98 0 1.2 1 1.2 1.62 0 .98-.52 1.92-1.44 2.46z"/><use xlink:href="#G" x="105.757"/><path d="M982.96 1045.98h-.02c-.66 0-1.6-.36-1.98-1.56-.84 1.18-2.14 1.9-3.88 1.9-3.26 0-5.02-2.682-5.02-5.662 0-3.02 1.8-5.64 5.02-5.64 1.74 0 3.04.72 3.88 1.88v-.98c0-.32.26-.56.58-.56.28 0 .56.2.56.56v8.063c0 1.28 1.44.48 1.44 1.44a.55.55 0 0 1-.58.561zm-5.88-9.822c-2.36 0-3.88 1.9-3.88 4.5s1.52 4.52 3.88 4.52c2.38 0 3.88-1.92 3.88-4.52s-1.5-4.5-3.88-4.5z"/><use xlink:href="#F" x="147.86"/><path d="M993.94 1046.098c-1.08 0-1.98-1-1.98-2.12v-11.684c0-.36.3-.56.58-.56.26 0 .56.2.56.56v11.684c0 1.28 1.42.54 1.42 1.44 0 .34-.24.68-.58.68zm11.02-9.942l-5.42 12.822c-.4.94-1.22 1.2-2.14 1.2h-.88c-.36 0-.56-.3-.56-.58 0-.262.2-.56.56-.56h.88c.44 0 .9-.02 1.08-.48l1.14-2.72-4.142-9.682c-.04-.1-.04-.18-.04-.26 0-.32.28-.54.58-.54.18 0 .4.08.5.34l3.722 8.682 3.68-8.682a.52.52 0 0 1 .52-.34c.3 0 .56.22.56.54 0 .08 0 .16-.04.26zm13.22 9.824h-6.54c-.34 0-.58-.28-.58-.56 0-.12.06-.24.12-.32l5.96-8.422a2.82 2.82 0 0 0 .46-1.5c0-1.46-1.16-2.66-2.62-2.66-1.9 0-2.66 2.08-3.2 2.08-.3 0-.62-.24-.62-.56 0-.46 1.52-2.66 3.82-2.66 2.08 0 3.76 1.7 3.76 3.74 0 .76-.24 1.56-.7 2.2l-5.302 7.52h5.44c.36 0 .56.3.56.58 0 .26-.2.56-.56.56zm6.9.338c-4.24 0-4.28-5.082-4.28-8.002 0-2.86.44-6.94 4.26-6.94 3.74 0 4.3 3.84 4.3 6.94 0 2.9-.06 8.002-4.28 8.002zm3.14-8.002c0-2.86-.4-5.8-3.14-5.8-3 0-3.142 3.68-3.142 5.8v1.28c0 2.322.44 5.582 3.12 5.582 2.74 0 3.16-3.26 3.16-5.582v-1.28zm6.22 7.664c-.3 0-.56-.22-.56-.56v-11.963l-2.18 2.12c-.1.12-.24.18-.38.18-.32 0-.6-.3-.6-.62 0-.12.08-.26.18-.38l3.16-3.06c.16-.12.32-.16.38-.16.42 0 .58.3.58.7v13.184c0 .34-.24.56-.58.56zm10.54-13.484l-5.062 13.12c-.12.262-.3.38-.5.38-.28 0-.6-.24-.6-.58 0-.08.02-.14.04-.22l4.74-12.342h-6.3c-.3 0-.58-.26-.58-.56s.28-.56.58-.56h7.14c.36 0 .6.2.6.5 0 .08-.02.182-.06.262z"/></g><g opacity=".4" fill="#fff"><path d="M42.328 1046.045c-3.568 0-5.47-1.97-5.503-2.002 0 .935-.7 1.4-1.468 1.4-.7 0-1.4-.467-1.4-1.4v-20.88a1.35 1.35 0 0 1 1.401-1.434c.767 0 1.468.467 1.468 1.4v6.238c1.334-1.368 3.168-2.17 5.503-2.17 5.37 0 8.373 4.403 8.373 9.406 0 5.037-3.002 9.44-8.373 9.44zm0-16c-3.335 0-5.503 2.602-5.503 6.57 0 4.003 2.168 6.604 5.503 6.604s5.504-2.602 5.504-6.604c0-3.97-2.168-6.57-5.504-6.57zm25.555 8.037h-12.34c.467 3.136 2.468 5.137 5.403 5.137 1.5 0 3.002-.533 3.97-1.734.3-.333.634-.533 1.034-.533.734 0 1.5.667 1.5 1.468 0 .4-.1.7-.8 1.4-1.5 1.468-3.57 2.235-5.704 2.235-5.37 0-8.372-4.437-8.372-9.44 0-4.97 3.002-9.406 8.372-9.406 5.437 0 8.34 4.437 8.34 9.406 0 .734-.534 1.468-1.4 1.468zm-6.937-8.038c-3.136 0-4.97 2.3-5.403 5.17H66.35c-.467-3.202-2.468-5.17-5.403-5.17zM88 1045.478c-1.834 0-2.668-1.3-2.97-1.9-1.334 1.468-3.27 2.47-5.87 2.47-5.437 0-8.372-4.47-8.372-9.44s3.002-9.406 8.372-9.406c2.335 0 4.203.834 5.504 2.202v-.134c0-.367.133-1.5 1.4-1.5.7 0 1.468.367 1.468 1.4v12.875c0 .434.3.6.467.6.935 0 1.435.667 1.435 1.434a1.37 1.37 0 0 1-1.435 1.401zm-8.84-15.443c-3.336 0-5.504 2.602-5.504 6.57 0 4.003 2.168 6.604 5.504 6.604 3.37 0 5.504-2.602 5.504-6.604 0-3.97-2.135-6.57-5.504-6.57z"/><use xlink:href="#H"/><path d="M115.158 1045.478h-.567c-3.17 0-4.37-1.668-4.37-4.403V1030.6h-1c-.8 0-1.435-.634-1.435-1.4 0-.8.634-1.435 1.4-1.435h1v-4.637c0-.934.7-1.4 1.435-1.4s1.4.467 1.4 1.4v4.637h2.135c.934 0 1.4.768 1.4 1.4 0 .8-.533 1.434-1.4 1.434h-2.135v10.774c0 .934.333 1.268 1.268 1.268h.833c.868 0 1.435.634 1.435 1.4 0 .8-.533 1.435-1.4 1.435zm4.604-20.415a2.402 2.402 0 1 1 0-4.803 2.402 2.402 0 1 1 0 4.803zm0 20.414c-.733 0-1.467-.5-1.467-1.4V1029.2c0-.935.733-1.435 1.467-1.435a1.37 1.37 0 0 1 1.401 1.435v14.876c0 .935-.7 1.4-1.4 1.4zm10.376-14.877h-1.5v13.442c0 .935-.7 1.4-1.468 1.4-.7 0-1.4-.467-1.4-1.4V1030.6h-1.37c-.9 0-1.4-.667-1.4-1.4 0-.768.5-1.435 1.4-1.435h1.367v-2.27c0-2.135 1.77-3.77 3.836-3.77.968 0 1.468.667 1.468 1.434 0 .7-.5 1.4-1.468 1.4-.566 0-.967.434-.967.9v2.302h1.5c.967 0 1.468.667 1.468 1.435 0 .733-.5 1.4-1.468 1.4z"/><use xlink:href="#H" x="42.068"/><path d="M154.725 1045.544c-1.802 0-3.336-1.534-3.336-3.402v-18.98c0-.967.7-1.434 1.435-1.434s1.435.467 1.435 1.4v19.013c0 .4.3.567.467.567.934 0 1.435.667 1.435 1.435 0 .733-.5 1.4-1.435 1.4zm15.37-.066v-1.264c1.886-.237 2.046-.437 2.046-3.157v-6.7c0-2.8-1.248-4.017-3.064-4.017-1.237 0-2.345.6-3.47 1.493v9.476c0 2.527.187 2.658 2.06 2.896v1.264h-8.968v-1.264c2.254-.33 2.5-.4 2.5-3v-8.2c0-2.446-.303-2.565-2.185-2.922v-1.184c2.173-.292 4.63-.807 6.653-1.533l-.052 2.95 2.6-1.745c1.16-.713 2-1.086 3.16-1.086 3.194 0 5.2 2.338 5.2 6.3v7.5c0 2.54.237 2.657 2.277 2.92v1.264h-8.74zm23.9-3.703c-2.458 3.427-5.488 4.178-7.014 4.178-5.142 0-8.124-3.936-8.124-8.594 0-2.745 1.183-5.396 2.832-7.062 1.74-1.8 3.945-2.814 6.082-2.814 3.73 0 6.396 3.126 6.37 6.347-.014.715-.08 1.277-.612 1.4-.767.184-6.17.5-10.318.647.062 4.587 2.717 6.74 5.556 6.74 1.572 0 3.104-.597 4.543-1.866l.686 1.014zm-7.07-12.7c-1.667 0-3.167 1.807-3.516 4.963l5.486-.118c.6-.026.848-.146.848-.792.04-2.022-1.037-4.053-2.818-4.053zm34.284.145c-1.943.343-2.248.624-3.105 2.765-1.33 3.462-3.102 8.53-4.934 13.94h-1.512l-4.65-11.46-4.55 11.46h-1.472l-4.685-14.192c-.687-1.985-.94-2.274-2.855-2.512v-1.25h9.397v1.25c-2.325.345-2.535.672-2.058 2.133l2.52 8.214c1.507-3.68 2.988-7.62 4.327-11.424h1.456c1.4 3.76 2.986 7.702 4.573 11.568.742-2.107 2.062-5.964 2.557-8.108.412-1.674-.008-2.078-2.753-2.383v-1.25h7.742v1.25zm9.4 3.746c-.92-2.606-2.155-3.984-4.2-3.984-1.206 0-2.225.86-2.225 2.266 0 1.497 1.046 2.264 3.16 3.216 3.278 1.496 5.3 2.787 5.3 5.736 0 3.85-3.6 5.764-6.945 5.764-2.06 0-4.088-.737-4.92-1.16l-.662-4.892 1.252-.224c.8 2.5 2.33 4.75 4.976 4.75 1.505 0 2.438-.952 2.438-2.28 0-1.423-.76-2.333-3.092-3.467-2.67-1.295-5.107-2.64-5.107-5.775 0-3.046 2.533-5.42 6.565-5.42 1.818 0 3.242.396 4.112.567l.62 4.577-1.25.328z"/></g><g fill="#fff"><path d="M94.374 127.35c-1.125 0-2.125-.75-3-2L42.5 53.225v70.5c0 2.25-1.875 3.5-3.5 3.5-1.75 0-3.625-1.25-3.625-3.5v-82c0-2.125 1.875-3.75 3.75-3.75 1.125 0 2.125.75 3 2L91 112.1V41.725c0-2.25 1.875-3.5 3.5-3.5 1.75 0 3.625 1.25 3.625 3.5v82c0 2.125-1.875 3.625-3.75 3.625z"/><use xlink:href="#I"/><path d="M200.998 127.225h-3.875c-9.875 0-14.75-4.875-14.75-14.625V67.975h-6.375c-2.25 0-3.5-1.875-3.5-3.625 0-1.625 1.25-3.5 3.5-3.5h6.375V41.725c0-2.25 1.875-3.5 3.625-3.5s3.5 1.25 3.5 3.5V60.85h11.5c2.25 0 3.5 1.875 3.5 3.5 0 1.75-1.25 3.625-3.5 3.625h-11.5V112.6c0 6.125 1.75 7.5 7.625 7.5h3.875c2.25 0 3.5 1.875 3.5 3.625 0 1.625-1.25 3.5-3.5 3.5z"/><use xlink:href="#J"/><use xlink:href="#K"/><use xlink:href="#L"/><path d="M452.618 127.225c-1.75 0-3.625-1.25-3.625-3.5v-36.5c0-11.875-9.5-21.375-21.375-21.375a21.37 21.37 0 0 0-21.375 21.375v36.5c0 2.25-1.875 3.5-3.5 3.5-1.75 0-3.625-1.25-3.625-3.5V64.35c0-2.25 1.875-3.5 3.625-3.5 1.625 0 3.5 1.25 3.5 3.5v4c5.625-6.125 13-9.625 21.375-9.625 15.5 0 28.5 12.875 28.5 28.5v36.5c0 2.25-1.875 3.5-3.5 3.5zm43.624 28.5c-10.625 0-25.625-4-25.625-8.5 0-2 1.625-4 3.625-4 1.375 0 4.25 2.125 6.625 3 3.25 1.125 8.375 2.375 15.375 2.375 16 0 24.25-7.875 24.25-23.25v-8.75c-5.5 6.625-13.375 10.625-24.25 10.625-19.75 0-31.375-14-31.375-33.25 0-18.75 11.25-35.25 31.375-35.25 10.875 0 19 4.5 24.25 11.75v-6c0-2.25 1.875-3.5 3.625-3.5 1.625 0 3.5 1.25 3.5 3.5v60.875c0 19.875-11.875 30.375-31.375 30.375zm0-89.875c-14.75 0-24.25 11.875-24.25 28.125 0 16.125 8.875 26.125 24.25 26.125s24.25-10 24.25-26.125c0-16.25-9.375-28.125-24.25-28.125z"/><use xlink:href="#M"/><path d="M616.615 97.6H564.74c1.125 14.25 10.375 24.625 24 24.625 6.75 0 14.75-3 18.375-8.625.875-1.375 1.875-1.75 3-1.75 1.875 0 3.875 1.5 3.875 3.375 0 1.125 0 1.375-2.375 4.125-5.75 6.75-14.125 10-22.875 10-20.125 0-31.375-16.5-31.375-35.375 0-18.75 11.25-35.25 31.375-35.25s31.375 16.625 31.375 35.25c0 1.875-1.75 3.625-3.5 3.625zM588.74 65.85c-15 0-22.875 11.5-24 24.625h48.125C611.74 76.225 602.5 65.85 588.74 65.85zm138.122 61.375c-1.75 0-3.5-1.25-3.5-3.5V55.85l-29.75 55.25c-.75 1.625-1.875 2.25-2.875 2.25-1.375 0-2.5-.75-3.375-2.25l-29.625-55.25v67.875c0 2.25-1.875 3.5-3.5 3.5-1.75 0-3.625-1.25-3.625-3.5v-82c0-2.125 1.875-3.5 3.75-3.5 1.25 0 2.25.5 3 1.75l33.125 61.875 33.25-61.875c.75-1.25 1.875-1.75 3-1.75 1.875 0 3.75 1.375 3.75 3.5v82c0 2.25-1.875 3.5-3.625 3.5z"/><use xlink:href="#J" x="509.241"/><use xlink:href="#M" x="278.118"/><use xlink:href="#L" x="461.616"/><use xlink:href="#N"/><path d="M164.374 226.483H112.5c1.125 14.25 10.375 24.625 24 24.625 6.75 0 14.75-3 18.375-8.625.875-1.375 1.875-1.75 3-1.75 1.875 0 3.875 1.5 3.875 3.375 0 1.125 0 1.375-2.375 4.125-5.75 6.75-14.125 10-22.875 10-20.125 0-31.375-16.5-31.375-35.375 0-18.75 11.25-35.25 31.375-35.25s31.375 16.625 31.375 35.25c0 1.875-1.75 3.625-3.5 3.625zm-27.875-31.75c-15 0-22.875 11.5-24 24.625h48.125c-1.125-14.25-10.375-24.625-24.125-24.625z"/><use xlink:href="#K" x="-152.12" y="128.883"/><use xlink:href="#O"/><path d="M327.87 195.858a21.37 21.37 0 0 0-21.375 21.375v35.375c0 2.25-1.875 3.5-3.5 3.5-1.75 0-3.625-1.25-3.625-3.5v-59.375c0-2.25 1.875-3.5 3.625-3.5 1.625 0 3.5 1.25 3.5 3.5v5.125c5.625-6.125 13-9.625 21.375-9.625a3.6 3.6 0 0 1 3.625 3.5c0 1.75-1.375 3.625-3.625 3.625z"/><use xlink:href="#P"/><use xlink:href="#O" x="169.372"/><use xlink:href="#M" x="-74.125" y="128.883"/><path d="M542.5 226.483h-51.875c1.125 14.25 10.375 24.625 24 24.625 6.75 0 14.75-3 18.375-8.625.875-1.375 1.875-1.75 3-1.75 1.875 0 3.875 1.5 3.875 3.375 0 1.125 0 1.375-2.375 4.125-5.75 6.75-14.125 10-22.875 10-20.125 0-31.375-16.5-31.375-35.375 0-18.75 11.25-35.25 31.375-35.25S546 204.233 546 222.858c0 1.875-1.75 3.625-3.5 3.625zm-27.875-31.75c-15 0-22.875 11.5-24 24.625h48.125c-1.125-14.25-10.375-24.625-24.125-24.625z"/><use xlink:href="#Q"/><use xlink:href="#R"/><use xlink:href="#S"/><use xlink:href="#T"/><use xlink:href="#P" x="492.864"/><use xlink:href="#R" x="-590.614" y="128.882"/><path d="M166.75 384.99h-.125c-4.125 0-10-2.25-12.375-9.75-5.25 7.375-13.375 11.875-24.25 11.875-20.375 0-31.375-16.75-31.375-35.375 0-18.875 11.25-35.25 31.375-35.25 10.875 0 19 4.5 24.25 11.75v-6.125c0-2 1.625-3.5 3.625-3.5 1.75 0 3.5 1.25 3.5 3.5v50.375c0 8 9 3 9 9 0 1.625-1.125 3.5-3.625 3.5zM130 323.616c-14.75 0-24.25 11.875-24.25 28.125s9.5 28.25 24.25 28.25c14.875 0 24.25-12 24.25-28.25s-9.375-28.125-24.25-28.125z"/><use xlink:href="#K" x="-148.12" y="257.766"/><use xlink:href="#U"/><use xlink:href="#O" x="97.249" y="128.883"/><path d="M450.495 355.366H398.62c1.125 14.25 10.375 24.625 24 24.625 6.75 0 14.75-3 18.375-8.625.875-1.375 1.875-1.75 3-1.75 1.875 0 3.875 1.5 3.875 3.375 0 1.125 0 1.375-2.375 4.125-5.75 6.75-14.125 10-22.875 10-20.125 0-31.375-16.5-31.375-35.375 0-18.75 11.25-35.25 31.375-35.25s31.375 16.625 31.375 35.25c0 1.875-1.75 3.625-3.5 3.625zm-27.875-31.75c-15 0-22.875 11.5-24 24.625h48.125c-1.125-14.25-10.375-24.625-24.125-24.625z"/><use xlink:href="#T" x="-310.992" y="128.882"/><use xlink:href="#Q" x="-2.748" y="128.883"/><use xlink:href="#I" x="509.866" y="257.766"/><use xlink:href="#S" x="-6.624" y="128.882"/><use xlink:href="#V"/><use xlink:href="#R" x="194.124" y="128.882"/><use xlink:href="#O" x="656.612" y="128.883"/><use xlink:href="#N" x="915.61" y="128.882"/><path d="M61.25 516.25c-7.5 0-20.125-2.625-24.5-9.875-.5-.75-.5-1.375-.5-1.875 0-2 1.75-3.75 3.625-3.75.75 0 2 .625 2.75 1.75 4.5 5.5 12.5 6.625 18.625 6.625 12.125 0 18.25-4 18.25-12.125 0-18.875-41-8.875-41-33.875 0-12.625 12.625-17.5 24-17.5 6.5 0 16.5 2.25 21.5 7.25.75.75 1.125 1.625 1.125 2.375 0 1.875-1.875 3.75-3.875 3.75a3.31 3.31 0 0 1-2.375-1C75 454.25 68 452.75 62.5 452.75c-11 0-16.875 4.25-16.875 10.375 0 17.5 41 8.25 41 33.875 0 14.25-12.5 19.25-25.375 19.25z"/><use xlink:href="#W"/><path d="M163.124 513.874c-1.75 0-3.625-1.25-3.625-3.5v-36.5c0-11.875-9.5-21.375-21.375-21.375a21.37 21.37 0 0 0-21.375 21.375v36.5c0 2.25-1.875 3.5-3.5 3.5-1.75 0-3.625-1.25-3.625-3.5V451c0-2.25 1.875-3.5 3.625-3.5 1.625 0 3.5 1.25 3.5 3.5v4c5.625-6.125 13-9.625 21.375-9.625 15.5 0 28.5 12.875 28.5 28.5v36.5c0 2.25-1.875 3.5-3.5 3.5z"/><use xlink:href="#V" x="-584.989" y="128.884"/><path d="M291.5 484.25h-51.875c1.125 14.25 10.375 24.625 24 24.625 6.75 0 14.75-3 18.375-8.625.875-1.375 1.875-1.75 3-1.75 1.875 0 3.875 1.5 3.875 3.375 0 1.125 0 1.375-2.375 4.125-5.75 6.75-14.125 10-22.875 10-20.125 0-31.375-16.5-31.375-35.375 0-18.75 11.25-35.25 31.375-35.25S295 462 295 480.624c0 1.875-1.75 3.625-3.5 3.625zm-27.875-31.75c-15 0-22.875 11.5-24 24.625h48.125c-1.125-14.25-10.375-24.625-24.125-24.625zm127.12 61.374h-.125c-4.125 0-10-2.25-12.375-9.75C372.996 511.5 364.87 516 353.996 516c-20.375 0-31.375-16.75-31.375-35.375 0-18.875 11.25-35.25 31.375-35.25 10.875 0 19 4.5 24.25 11.75V451c0-2 1.625-3.5 3.625-3.5 1.75 0 3.5 1.25 3.5 3.5v50.375c0 8 9 3 9 9 0 1.625-1.125 3.5-3.625 3.5zm-36.75-61.375c-14.75 0-24.25 11.875-24.25 28.125s9.5 28.25 24.25 28.25c14.875 0 24.25-12 24.25-28.25s-9.375-28.125-24.25-28.125z"/><use xlink:href="#U" x="164.621" y="128.884"/><path d="M519.993 453.624a21.37 21.37 0 0 0-21.375 21.375v35.375c0 2.25-1.875 3.5-3.5 3.5-1.75 0-3.625-1.25-3.625-3.5V451c0-2.25 1.875-3.5 3.625-3.5 1.625 0 3.5 1.25 3.5 3.5v5.125c5.625-6.125 13-9.625 21.375-9.625a3.6 3.6 0 0 1 3.625 3.5c0 1.75-1.375 3.625-3.625 3.625z"/><use xlink:href="#W" x="437.993"/><path d="M576.117 542.374c-10.625 0-25.625-4-25.625-8.5 0-2 1.625-4 3.625-4 1.375 0 4.25 2.125 6.625 3 3.25 1.125 8.375 2.375 15.375 2.375 16 0 24.25-7.875 24.25-23.25v-8.75c-5.5 6.625-13.375 10.625-24.25 10.625-19.75 0-31.375-14-31.375-33.25 0-18.75 11.25-35.25 31.375-35.25 10.875 0 19 4.5 24.25 11.75v-6c0-2.25 1.875-3.5 3.625-3.5 1.625 0 3.5 1.25 3.5 3.5V512c0 19.875-11.875 30.375-31.375 30.375zm0-89.875c-14.75 0-24.25 11.875-24.25 28.125 0 16.125 8.875 26.125 24.25 26.125s24.25-10 24.25-26.125c0-16.25-9.375-28.125-24.25-28.125zm106.875 61.375h-.125c-4.125 0-10-2.25-12.375-9.75-5.25 7.375-13.375 11.875-24.25 11.875-20.375 0-31.375-16.75-31.375-35.375 0-18.875 11.25-35.25 31.375-35.25 10.875 0 19 4.5 24.25 11.75V451c0-2 1.625-3.5 3.625-3.5 1.75 0 3.5 1.25 3.5 3.5v50.375c0 8 9 3 9 9 0 1.625-1.125 3.5-3.625 3.5zm-36.75-61.375c-14.75 0-24.25 11.875-24.25 28.125s9.5 28.25 24.25 28.25c14.875 0 24.25-12 24.25-28.25s-9.375-28.125-24.25-28.125zm100.624 61.375c-1.75 0-3.625-1.25-3.625-3.5v-6.25C738 511.5 729.866 516 719 516c-20.125 0-31.375-16.5-31.375-35.375 0-18.75 11.25-35.25 31.375-35.25 10.875 0 19 4.5 24.25 11.75v-28.75c0-2.25 1.875-3.5 3.625-3.5 1.625 0 3.5 1.25 3.5 3.5v82c0 2.25-1.875 3.5-3.5 3.5zM719 452.5c-14.75 0-24.25 11.875-24.25 28.125s9.5 28.25 24.25 28.25c14.875 0 24.25-12 24.25-28.25S733.865 452.5 719 452.5zm98 31.75h-51.875c1.125 14.25 10.375 24.625 24 24.625 6.75 0 14.75-3 18.375-8.625.875-1.375 1.875-1.75 3-1.75 1.875 0 3.875 1.5 3.875 3.375 0 1.125 0 1.375-2.375 4.125-5.75 6.75-14.125 10-22.875 10-20.125 0-31.375-16.5-31.375-35.375 0-18.75 11.25-35.25 31.375-35.25S820.5 462 820.5 480.624c0 1.875-1.75 3.625-3.5 3.625zm-27.875-31.75c-15 0-22.875 11.5-24 24.625h48.125c-1.125-14.25-10.375-24.625-24.125-24.625zM63.25 642.756h-3.875c-9.875 0-14.75-4.875-14.75-14.625v-44.625H38.25c-2.25 0-3.5-1.875-3.5-3.625 0-1.625 1.25-3.5 3.5-3.5h6.375v-19.125c0-2.25 1.875-3.5 3.625-3.5s3.5 1.25 3.5 3.5v19.125h11.5c2.25 0 3.5 1.875 3.5 3.5 0 1.75-1.25 3.625-3.5 3.625h-11.5v44.625c0 6.125 1.75 7.5 7.625 7.5h3.875c2.25 0 3.5 1.875 3.5 3.625 0 1.625-1.25 3.5-3.5 3.5zm35.874 2.124c-20.125 0-31.375-16.5-31.375-35.375 0-18.75 11.25-35.25 31.375-35.25s31.375 16.5 31.375 35.25c0 18.875-11.25 35.375-31.375 35.375zm0-63.5c-14.75 0-24.25 11.875-24.25 28.125s9.5 28.25 24.25 28.25c14.875 0 24.25-12 24.25-28.25S114 581.38 99.124 581.38z"/><use xlink:href="#Q" x="-392.368" y="386.647"/><path d="M259.62 582.506a21.37 21.37 0 0 0-21.375 21.375v35.375c0 2.25-1.875 3.5-3.5 3.5-1.75 0-3.625-1.25-3.625-3.5V579.88c0-2.25 1.875-3.5 3.625-3.5 1.625 0 3.5 1.25 3.5 3.5v5.125c5.625-6.125 13-9.625 21.375-9.625a3.6 3.6 0 0 1 3.625 3.5c0 1.75-1.375 3.625-3.625 3.625z"/><use xlink:href="#I" x="153.996" y="515.53"/><use xlink:href="#P" x="-13.502" y="386.648"/><use xlink:href="#O" x="132.745" y="386.647"/><use xlink:href="#V" x="-331.123" y="257.764"/><path d="M511.865 642.756H508c-9.875 0-14.75-4.875-14.75-14.625v-44.625h-6.375c-2.25 0-3.5-1.875-3.5-3.625 0-1.625 1.25-3.5 3.5-3.5h6.375v-19.125c0-2.25 1.875-3.5 3.625-3.5s3.5 1.25 3.5 3.5v19.125h11.5c2.25 0 3.5 1.875 3.5 3.5 0 1.75-1.25 3.625-3.5 3.625h-11.5v44.625c0 6.125 1.75 7.5 7.625 7.5h3.875c2.25 0 3.5 1.875 3.5 3.625 0 1.625-1.25 3.5-3.5 3.5zM63.25 771.64h-3.875c-9.875 0-14.75-4.875-14.75-14.625V712.4H38.25c-2.25 0-3.5-1.875-3.5-3.625 0-1.625 1.25-3.5 3.5-3.5h6.375V686.14c0-2.25 1.875-3.5 3.625-3.5s3.5 1.25 3.5 3.5v19.125h11.5c2.25 0 3.5 1.875 3.5 3.5 0 1.75-1.25 3.625-3.5 3.625h-11.5v44.625c0 6.125 1.75 7.5 7.625 7.5h3.875c2.25 0 3.5 1.875 3.5 3.625 0 1.625-1.25 3.5-3.5 3.5z"/><use xlink:href="#R" x="-550.364" y="515.532"/><path d="M198.124 742.015H146.25c1.125 14.25 10.375 24.625 24 24.625 6.75 0 14.75-3 18.375-8.625.875-1.375 1.875-1.75 3-1.75 1.875 0 3.875 1.5 3.875 3.375 0 1.125 0 1.375-2.375 4.125-5.75 6.75-14.125 10-22.875 10-20.125 0-31.375-16.5-31.375-35.375 0-18.75 11.25-35.25 31.375-35.25s31.375 16.625 31.375 35.25c0 1.875-1.75 3.625-3.5 3.625zm-27.875-31.75c-15 0-22.875 11.5-24 24.625h48.125c-1.125-14.25-10.375-24.625-24.125-24.625zm120.124 61.375c-1.75 0-3.5-1.25-3.5-3.5v-42c0-8.625-7.25-15.875-15.875-15.875s-16 7.25-16 15.75v42.125c0 2.25-1.75 3.5-3.5 3.5s-3.625-1.25-3.625-3.5v-42c0-8.625-7.25-15.875-15.75-15.875-8.75 0-16 7.25-16 15.75v42.125c0 2.25-1.875 3.5-3.5 3.5-1.75 0-3.625-1.25-3.625-3.5v-59.375c0-2.25 1.875-3.5 3.625-3.5 1.625 0 3.5 1.25 3.5 3.5v.75c4.125-4 9.75-6.375 15.875-6.375 8 0 15.125 4 19.5 10.625 4.125-6.375 11.25-10.625 19.375-10.625 13 0 23.125 10.25 23.125 22.875v42.125c0 2.25-1.875 3.5-3.625 3.5zm118.123-61.74l-20.375 58.75c-.875 2.375-2 3-3.625 3-2.125 0-2.75-.75-3.5-3L364.62 719.9l-16.375 48.75c-.875 2.375-2 3-3.625 3s-2.875-1-3.5-3l-20.25-58.75c-.125-.375-.25-1-.25-1.375 0-2 2-3.25 3.625-3.25 1.25 0 2.75.625 3.25 2.375l17.125 49.5 16.375-48.875c.75-2.375 1.5-3 3.625-3 1.5 0 2.75.5 3.5 3l16.625 48.875 16.875-49.5c.625-1.75 1.875-2.375 3.25-2.375 1.875 0 3.875 1.25 3.875 3.375 0 .5-.125.875-.25 1.25z"/><use xlink:href="#S" x="-283.868" y="515.532"/><use xlink:href="#K" x="161.125" y="644.415"/><path d="M94.25 870.897H42.374c1.125 14.25 10.375 24.625 24 24.625 6.75 0 14.75-3 18.375-8.625.875-1.375 1.875-1.75 3-1.75 1.875 0 3.875 1.5 3.875 3.375 0 1.125 0 1.375-2.375 4.125-5.75 6.75-14.125 10-22.875 10-20.125 0-31.375-16.5-31.375-35.375 0-18.75 11.25-35.25 31.375-35.25s31.375 16.625 31.375 35.25c0 1.875-1.75 3.625-3.5 3.625zm-27.875-31.75c-15 0-22.875 11.5-24 24.625H90.5c-1.125-14.25-10.375-24.625-24.125-24.625z"/><use xlink:href="#K" x="-222.245" y="773.297"/><use xlink:href="#P" x="-183.623" y="644.414"/><use xlink:href="#S" x="-502.364" y="644.414"/><use xlink:href="#U" x="13.249" y="515.531"/><use xlink:href="#M" x="-200.246" y="773.297"/><path d="M368.62 822.147a7.04 7.04 0 1 1 0-14.25 7.04 7.04 0 1 1 0 14.25zm0 78.375c-1.75 0-3.625-1.125-3.625-3.5v-59.375c0-2.25 1.75-3.5 3.625-3.5 1.625 0 3.5 1.125 3.5 3.5v59.375c0 2.25-1.625 3.5-3.5 3.5z"/><use xlink:href="#K" x="55.002" y="773.297"/><use xlink:href="#R" x="-189.243" y="644.414"/><path d="M559.244 870.897H507.37c1.125 14.25 10.375 24.625 24 24.625 6.75 0 14.75-3 18.375-8.625.875-1.375 1.875-1.75 3-1.75 1.875 0 3.875 1.5 3.875 3.375 0 1.125 0 1.375-2.375 4.125-5.75 6.75-14.125 10-22.875 10-20.125 0-31.375-16.5-31.375-35.375 0-18.75 11.25-35.25 31.375-35.25s31.375 16.625 31.375 35.25c0 1.875-1.75 3.625-3.5 3.625zm-27.875-31.75c-15 0-22.875 11.5-24 24.625h48.125c-1.125-14.25-10.375-24.625-24.125-24.625z"/><use xlink:href="#N" x="532.242" y="644.414"/></g><defs ><path id="E" d="M807.6 1046.357c-1.2 0-3.22-.42-3.92-1.58-.08-.12-.08-.22-.08-.3 0-.32.28-.602.58-.602.12 0 .32.102.44.28.72.88 2 1.06 2.98 1.06 1.94 0 2.92-.64 2.92-1.94 0-3.02-6.562-1.42-6.562-5.422 0-2.02 2.02-2.8 3.84-2.8 1.04 0 2.64.36 3.44 1.16.12.12.18.26.18.38a.65.65 0 0 1-.62.6c-.12 0-.26-.04-.38-.16-.62-.6-1.74-.84-2.62-.84-1.76 0-2.7.682-2.7 1.66 0 2.8 6.562 1.32 6.562 5.422 0 2.28-2 3.08-4.06 3.08z"/><path id="F" d="M842.06 1036.336a3.42 3.42 0 0 0-3.421 3.42v5.662c0 .36-.3.56-.56.56-.28 0-.58-.2-.58-.56v-9.502c0-.36.3-.56.58-.56.26 0 .56.2.56.56v.82c.9-.98 2.08-1.54 3.42-1.54.36 0 .58.3.58.56a.58.58 0 0 1-.58.58z"/><path id="G" d="M863.823 1041.236h-8.302c.18 2.28 1.66 3.94 3.84 3.94 1.08 0 2.36-.48 2.94-1.38.14-.22.3-.28.48-.28.3 0 .62.24.62.54 0 .18 0 .22-.38.658-.92 1.082-2.26 1.602-3.66 1.602-3.22 0-5.02-2.64-5.02-5.662 0-3 1.8-5.64 5.02-5.64s5.02 2.66 5.02 5.64c0 .3-.28.58-.56.58zm-4.46-5.08c-2.4 0-3.66 1.84-3.84 3.94h7.7c-.18-2.28-1.66-3.94-3.86-3.94z"/><path id="H" d="M104.714 1045.51c-.633 0-1.267-.367-1.4-1.1-1.334 1.034-2.97 1.668-4.804 1.668-4.136 0-7.604-3.436-7.604-7.605v-9.24a1.37 1.37 0 0 1 1.4-1.435c.768 0 1.468.5 1.468 1.4v9.272c0 2.602 2.168 4.77 4.736 4.77 2.603 0 4.77-2.17 4.77-4.77v-9.24c0-1.034.667-1.468 1.4-1.468.768 0 1.435.5 1.435 1.435v14.9c0 .934-.667 1.4-1.4 1.4z"/><path id="I" d="M139.374 129.35c-20.125 0-31.375-16.5-31.375-35.375 0-18.75 11.25-35.25 31.375-35.25s31.375 16.5 31.375 35.25c0 18.875-11.25 35.375-31.375 35.375zm0-63.5c-14.75 0-24.25 11.875-24.25 28.125s9.5 28.25 24.25 28.25c14.875 0 24.25-12 24.25-28.25s-9.375-28.125-24.25-28.125z"/><path id="J" d="M296.746 127.225h-.125c-4.125 0-10-2.25-12.375-9.75-5.25 7.375-13.375 11.875-24.25 11.875-20.375 0-31.375-16.75-31.375-35.375 0-18.875 11.25-35.25 31.375-35.25 10.875 0 19 4.5 24.25 11.75V64.35c0-2 1.625-3.5 3.625-3.5 1.75 0 3.5 1.25 3.5 3.5v50.375c0 8 9 3 9 9 0 1.625-1.125 3.5-3.625 3.5zm-36.75-61.375c-14.75 0-24.25 11.875-24.25 28.125s9.5 28.25 24.25 28.25c14.875 0 24.25-12 24.25-28.25s-9.375-28.125-24.25-28.125z"/><path id="K" d="M348.243 129.6c-7.5 0-20.125-2.625-24.5-9.875-.5-.75-.5-1.375-.5-1.875 0-2 1.75-3.75 3.625-3.75.75 0 2 .625 2.75 1.75 4.5 5.5 12.5 6.625 18.625 6.625 12.125 0 18.25-4 18.25-12.125 0-18.875-41-8.875-41-33.875 0-12.625 12.625-17.5 24-17.5 6.5 0 16.5 2.25 21.5 7.25.75.75 1.125 1.625 1.125 2.375 0 1.875-1.875 3.75-3.875 3.75a3.31 3.31 0 0 1-2.375-1c-3.875-3.75-10.875-5.25-16.375-5.25-11 0-16.875 4.25-16.875 10.375 0 17.5 41 8.25 41 33.875 0 14.25-12.5 19.25-25.375 19.25z"/><path id="L" d="M385.368 48.85a7.04 7.04 0 0 1-7.125-7.125 7.04 7.04 0 1 1 14.25 0 7.04 7.04 0 0 1-7.125 7.125zm0 78.375c-1.75 0-3.625-1.125-3.625-3.5V64.35c0-2.25 1.75-3.5 3.625-3.5 1.625 0 3.5 1.125 3.5 3.5v59.375c0 2.25-1.625 3.5-3.5 3.5z"/><path id="M" d="M552.742 127.975c-6.75 0-12.375-6.25-12.375-13.25v-73c0-2.25 1.875-3.5 3.625-3.5 1.625 0 3.5 1.25 3.5 3.5v73c0 8 8.875 3.375 8.875 9 0 2.125-1.5 4.25-3.625 4.25z"/><path id="N" d="M94.25 256.108c-1.75 0-3.625-1.25-3.625-3.5v-6.25c-5.25 7.375-13.375 11.875-24.25 11.875-20.125 0-31.375-16.5-31.375-35.375 0-18.75 11.25-35.25 31.375-35.25 10.875 0 19 4.5 24.25 11.75v-28.75c0-2.25 1.875-3.5 3.625-3.5 1.625 0 3.5 1.25 3.5 3.5v82c0 2.25-1.875 3.5-3.5 3.5zm-27.875-61.375c-14.75 0-24.25 11.875-24.25 28.125s9.5 28.25 24.25 28.25c14.875 0 24.25-12 24.25-28.25s-9.375-28.125-24.25-28.125z"/><path id="O" d="M285.998 226.483h-51.875c1.125 14.25 10.375 24.625 24 24.625 6.75 0 14.75-3 18.375-8.625.875-1.375 1.875-1.75 3-1.75 1.875 0 3.875 1.5 3.875 3.375 0 1.125 0 1.375-2.375 4.125-5.75 6.75-14.125 10-22.875 10-20.125 0-31.375-16.5-31.375-35.375 0-18.75 11.25-35.25 31.375-35.25s31.375 16.625 31.375 35.25c0 1.875-1.75 3.625-3.5 3.625zm-27.875-31.75c-15 0-22.875 11.5-24 24.625h48.125c-1.125-14.25-10.375-24.625-24.125-24.625z"/><path id="P" d="M368.496 256.108h-3.875c-9.875 0-14.75-4.875-14.75-14.625v-44.625h-6.375c-2.25 0-3.5-1.875-3.5-3.625 0-1.625 1.25-3.5 3.5-3.5h6.375v-19.125c0-2.25 1.875-3.5 3.625-3.5s3.5 1.25 3.5 3.5v19.125h11.5c2.25 0 3.5 1.875 3.5 3.5 0 1.75-1.25 3.625-3.5 3.625h-11.5v44.625c0 6.125 1.75 7.5 7.625 7.5h3.875c2.25 0 3.5 1.875 3.5 3.625 0 1.625-1.25 3.5-3.5 3.5z"/><path id="Q" d="M584.738 258.233c-10.875 0-19-4.5-24.25-11.875v32.375a3.6 3.6 0 0 1-3.5 3.625c-1.75 0-3.625-1.375-3.625-3.625v-85.5c0-2.25 1.875-3.5 3.625-3.5 1.625 0 3.5 1.25 3.5 3.5v6.125c5.25-7.25 13.375-11.75 24.25-11.75 20.125 0 31.375 16.5 31.375 35.25 0 18.875-11.25 35.375-31.375 35.375zm0-63.5c-14.875 0-24.25 11.875-24.25 28.125s9.375 28.25 24.25 28.25 24.25-12 24.25-28.25-9.375-28.125-24.25-28.125z"/><path id="R" d="M679.488 256.108c-1.75 0-3.625-1.25-3.625-3.5v-36.5c0-11.875-9.5-21.375-21.375-21.375a21.37 21.37 0 0 0-21.375 21.375v36.5c0 2.25-1.875 3.5-3.5 3.5-1.75 0-3.625-1.25-3.625-3.5v-82c0-2.25 1.875-3.5 3.625-3.5 1.625 0 3.5 1.25 3.5 3.5v26.625c5.25-6.125 12.875-9.625 21.375-9.625 15.5 0 28.5 12.875 28.5 28.5v36.5c0 2.25-1.875 3.5-3.5 3.5z"/><path id="S" d="M759.862 256.108h-.125c-4.125 0-10-2.25-12.375-9.75-5.25 7.375-13.375 11.875-24.25 11.875-20.375 0-31.375-16.75-31.375-35.375 0-18.875 11.25-35.25 31.375-35.25 10.875 0 19 4.5 24.25 11.75v-6.125c0-2 1.625-3.5 3.625-3.5 1.75 0 3.5 1.25 3.5 3.5v50.375c0 8 9 3 9 9 0 1.625-1.125 3.5-3.625 3.5zm-36.75-61.375c-14.75 0-24.25 11.875-24.25 28.125s9.5 28.25 24.25 28.25c14.875 0 24.25-12 24.25-28.25s-9.375-28.125-24.25-28.125z"/><path id="T" d="M825.86 256.108c-1.75 0-3.625-1.25-3.625-3.5v-36.5c0-11.875-9.5-21.375-21.375-21.375a21.37 21.37 0 0 0-21.375 21.375v36.5c0 2.25-1.875 3.5-3.5 3.5-1.75 0-3.625-1.25-3.625-3.5v-59.375c0-2.25 1.875-3.5 3.625-3.5 1.625 0 3.5 1.25 3.5 3.5v4c5.625-6.125 13-9.625 21.375-9.625 15.5 0 28.5 12.875 28.5 28.5v36.5c0 2.25-1.875 3.5-3.5 3.5z"/><path id="U" d="M288.123 387.116c-10.875 0-19-4.5-24.25-11.875v6.25c0 2.25-1.875 3.5-3.5 3.5-1.75 0-3.625-1.25-3.625-3.5v-82c0-2.25 1.875-3.5 3.625-3.5 1.625 0 3.5 1.25 3.5 3.5v28.75c5.25-7.25 13.375-11.75 24.25-11.75 20.125 0 31.375 16.5 31.375 35.25 0 18.875-11.25 35.375-31.375 35.375zm0-63.5c-14.875 0-24.25 11.875-24.25 28.125s9.375 28.25 24.25 28.25 24.25-12 24.25-28.25-9.375-28.125-24.25-28.125z"/><path id="V" d="M811.613 377.616c-5.5 6.125-13.125 9.5-22.375 9.5-20.125 0-31.375-16.5-31.375-35.375 0-18.75 11.25-35.25 31.375-35.25 9.25 0 16.875 3.375 22.375 9.5a3.31 3.31 0 0 1 1 2.375c0 1.875-1.75 3.75-3.625 3.75-.875 0-1.75-.375-2.625-1.25-4.125-4.625-9.875-7.25-17.125-7.25-14.75 0-24.25 11.875-24.25 28.125s9.5 28.25 24.25 28.25c7.25 0 13-2.75 17.125-7.25.875-.875 1.75-1.25 2.625-1.25 1.875 0 3.625 1.625 3.625 3.625 0 .875-.25 1.625-1 2.5z"/><path id="W" d="M95.874 435.5a7.04 7.04 0 1 1 0-14.25 7.04 7.04 0 1 1 0 14.25zm0 78.375c-1.75 0-3.625-1.125-3.625-3.5V451c0-2.25 1.75-3.5 3.625-3.5 1.625 0 3.5 1.125 3.5 3.5v59.375c0 2.25-1.625 3.5-3.5 3.5z"/></defs></svg>