<svg xmlns="http://www.w3.org/2000/svg" xmlns:xlink="http://www.w3.org/1999/xlink" viewBox="0 0 1080 1080"><defs><linearGradient id="A" x1="540" x2="540" y2="1080" gradientUnits="userSpaceOnUse"><stop offset="0" stop-color="#83c5eb"/><stop offset="1" stop-color="#ffdd91"/></linearGradient><linearGradient id="B" x1="385.615" y1="458.351" x2="385.615" y2="284.351" gradientUnits="userSpaceOnUse"><stop offset="0" stop-color="#ffecbf"/><stop offset=".302" stop-color="#ffefc8"/><stop offset=".797" stop-color="#fff9e1"/><stop offset="1" stop-color="#fffded"/></linearGradient><linearGradient id="C" x1="835.702" x2="835.702" xlink:href="#B"/><linearGradient id="D" x1="990.772" x2="990.772" xlink:href="#B"/><path id="E" d="M104.714 1045.51a1.36 1.36 0 0 1-1.4-1.101 7.763 7.763 0 0 1-4.804 1.668 7.666 7.666 0 0 1-7.604-7.605v-9.24a1.434 1.434 0 0 1 2.868-.033v9.272a4.753 4.753 0 1 0 9.507 0v-9.24a1.33 1.33 0 0 1 1.4-1.468 1.364 1.364 0 0 1 1.435 1.435v14.9a1.328 1.328 0 0 1-1.401 1.4z"/><path id="F" d="M725.7 1046.318c-3.22 0-5.02-2.64-5.02-5.66 0-3 1.8-5.64 5.02-5.64s5.02 2.64 5.02 5.64c0 3.02-1.8 5.66-5.02 5.66zm0-10.162c-2.36 0-3.88 1.9-3.88 4.5s1.52 4.52 3.88 4.52c2.38 0 3.88-1.92 3.88-4.52s-1.5-4.5-3.88-4.5z"/><path id="G" d="M749.44 1036.337a3.418 3.418 0 0 0-3.421 3.42v5.66a.57.57 0 0 1-1.141 0v-9.502a.57.57 0 0 1 1.141 0v.82a4.565 4.565 0 0 1 3.421-1.54.57.57 0 1 1 0 1.141z"/><path id="H" d="M759.62 1044.798a4.645 4.645 0 0 1-3.58 1.521c-3.22 0-5.02-2.64-5.02-5.66 0-3 1.8-5.64 5.02-5.64a4.647 4.647 0 0 1 3.58 1.52.531.531 0 0 1 .16.381.627.627 0 0 1-.58.6.587.587 0 0 1-.42-.2 3.526 3.526 0 0 0-2.74-1.16c-2.36 0-3.88 1.9-3.88 4.5s1.52 4.52 3.88 4.52a3.596 3.596 0 0 0 2.74-1.16.587.587 0 0 1 .42-.2.594.594 0 0 1 .58.58.571.571 0 0 1-.16.399z"/><path id="I" d="M771.2 1041.237h-8.302c.18 2.28 1.66 3.94 3.84 3.94a3.615 3.615 0 0 0 2.94-1.381.525.525 0 0 1 .479-.28.611.611 0 0 1 .62.541c0 .18 0 .22-.38.66a4.72 4.72 0 0 1-3.66 1.601c-3.22 0-5.02-2.64-5.02-5.66 0-3 1.8-5.64 5.02-5.64s5.02 2.66 5.02 5.64a.606.606 0 0 1-.56.58zm-4.46-5.08c-2.4 0-3.66 1.84-3.84 3.94h7.7c-.18-2.28-1.66-3.94-3.86-3.94z"/><path id="J" d="M797.84 1045.978a.563.563 0 0 1-.58-.561v-5.84a3.42 3.42 0 1 0-6.841 0v5.84a.57.57 0 0 1-1.141 0v-9.502a.57.57 0 0 1 1.141 0v.64a4.563 4.563 0 0 1 7.981 3.021v5.84a.558.558 0 0 1-.561.561z"/><path id="K" d="M804.72 1045.978h-.62a2.075 2.075 0 0 1-2.36-2.341v-7.142h-1.02a.57.57 0 0 1 0-1.14h1.02v-3.06a.562.562 0 0 1 .58-.561.546.546 0 0 1 .56.561v3.06h1.84a.57.57 0 0 1 0 1.14h-1.84v7.142c0 .98.28 1.2 1.22 1.2h.62a.57.57 0 0 1 0 1.141z"/><path id="L" d="M847.88 1045.978h-.02a2.072 2.072 0 0 1-1.98-1.561 4.536 4.536 0 0 1-3.88 1.9c-3.26 0-5.02-2.68-5.02-5.66 0-3.02 1.8-5.64 5.02-5.64a4.571 4.571 0 0 1 3.88 1.88v-.98a.564.564 0 0 1 .581-.56.546.546 0 0 1 .56.56v8.063c0 1.28 1.44.48 1.44 1.44a.55.55 0 0 1-.58.561zm-5.88-9.822c-2.36 0-3.88 1.9-3.88 4.5s1.52 4.52 3.88 4.52c2.38 0 3.88-1.92 3.88-4.52s-1.5-4.5-3.88-4.5z"/><path id="M" d="M953.477 1050.54c-1.7 0-4.102-.64-4.102-1.36a.636.636 0 0 1 .58-.641 7.129 7.129 0 0 1 1.061.48 7.508 7.508 0 0 0 2.461.38c2.56 0 3.88-1.26 3.88-3.72v-1.4a4.776 4.776 0 0 1-3.88 1.7c-3.16 0-5.02-2.24-5.02-5.32 0-3 1.8-5.64 5.02-5.64a4.571 4.571 0 0 1 3.88 1.88v-.96a.57.57 0 0 1 1.141 0v9.742c0 3.18-1.9 4.86-5.02 4.86zm0-14.383c-2.36 0-3.88 1.9-3.88 4.5 0 2.58 1.42 4.18 3.88 4.18s3.88-1.6 3.88-4.18c0-2.6-1.5-4.5-3.88-4.5z"/><path id="N" d="M969.957 1036.156l-5.42 12.823a2.071 2.071 0 0 1-2.141 1.2h-.88a.57.57 0 0 1 0-1.141h.88c.44 0 .9-.02 1.08-.48l1.14-2.72-4.142-9.683a.633.633 0 0 1-.04-.26.56.56 0 0 1 .58-.54.513.513 0 0 1 .5.34l3.722 8.682 3.68-8.682a.521.521 0 0 1 .52-.34.542.542 0 0 1 .561.54.633.633 0 0 1-.04.26z"/><path id="O" d="M61.32 264.41a1.068 1.068 0 0 1-1.102-1.063v-11.095a6.497 6.497 0 1 0-12.994 0v11.095a1.083 1.083 0 0 1-2.166 0V245.3a1.083 1.083 0 0 1 2.166 0v1.216a8.667 8.667 0 0 1 15.16 5.737v11.095a1.059 1.059 0 0 1-1.064 1.063z"/><path id="P" d="M82.144 262.17a8.825 8.825 0 0 1-6.801 2.887c-6.117 0-9.536-5.015-9.536-10.752 0-5.7 3.42-10.715 9.536-10.715a8.826 8.826 0 0 1 6.801 2.888 1.006 1.006 0 0 1 .305.722 1.191 1.191 0 0 1-1.103 1.141 1.123 1.123 0 0 1-.798-.38 6.696 6.696 0 0 0-5.205-2.204c-4.483 0-7.37 3.61-7.37 8.55s2.888 8.587 7.37 8.587a6.826 6.826 0 0 0 5.205-2.204 1.079 1.079 0 0 1 1.9.722 1.089 1.089 0 0 1-.305.761z"/><path id="Q" d="M285.557 265.056a8.619 8.619 0 0 1-7.371-3.609v1.9a1.083 1.083 0 0 1-2.166 0v-24.925a1.083 1.083 0 0 1 2.166 0v8.74a8.686 8.686 0 0 1 7.371-3.572c6.117 0 9.536 5.016 9.536 10.715 0 5.737-3.42 10.752-9.536 10.752zm0-19.3c-4.52 0-7.37 3.61-7.37 8.55s2.85 8.587 7.37 8.587 7.37-3.647 7.37-8.587-2.85-8.55-7.37-8.55z"/><path id="R" d="M668.317 836.503h-11.62c.252 3.19 2.324 5.516 5.376 5.516a5.06 5.06 0 0 0 4.116-1.932.734.734 0 0 1 .672-.393.856.856 0 0 1 .868.757c0 .252 0 .308-.532.924a6.611 6.611 0 0 1-5.124 2.239c-4.508 0-7.027-3.695-7.027-7.924 0-4.2 2.52-7.895 7.027-7.895s7.028 3.724 7.028 7.895a.848.848 0 0 1-.784.813zm-6.244-7.112c-3.36 0-5.124 2.576-5.376 5.516h10.78c-.252-3.19-2.324-5.516-5.404-5.516z"/><path id="S" d="M686.165 878.738h-1.178c-3 0-4.483-1.48-4.483-4.445v-13.564h-1.937a1.083 1.083 0 0 1 0-2.165h1.938v-5.813a1.068 1.068 0 0 1 1.103-1.063 1.037 1.037 0 0 1 1.063 1.063v5.813h3.495a1.083 1.083 0 0 1 0 2.165h-3.495v13.564c0 1.86.532 2.28 2.317 2.28h1.178a1.083 1.083 0 0 1 0 2.166z"/><path id="T" d="M208.996 945.887l-4.34 12.29a1.273 1.273 0 0 1-1.232.98c-.588 0-.924-.252-1.176-.98l-3.276-9.24-3.304 9.24a1.212 1.212 0 0 1-2.38 0l-4.312-12.29a1.231 1.231 0 0 1-.056-.448 1.207 1.207 0 0 1 1.232-1.148 1.111 1.111 0 0 1 1.092.784l3.248 9.352 3.304-9.155c.224-.645.504-.98 1.176-.98.616 0 .952.31 1.176.98l3.276 9.155 3.276-9.352a1.102 1.102 0 0 1 1.064-.784 1.245 1.245 0 0 1 1.288 1.176 1.16 1.16 0 0 1-.056.421z"/><path id="U" d="M212.83 942.023a2.016 2.016 0 1 1 2.016-2.017 2.008 2.008 0 0 1-2.016 2.017zm0 17.136a1.176 1.176 0 0 1-1.232-1.176v-12.488a1.182 1.182 0 0 1 1.232-1.204 1.154 1.154 0 0 1 1.176 1.204v12.488a1.13 1.13 0 0 1-1.176 1.176z"/><path id="V" d="M230.303 959.13a1.137 1.137 0 0 1-1.204-1.176 6.775 6.775 0 0 1-4.62 1.68c-4.508 0-7.028-3.695-7.028-7.924 0-4.2 2.52-7.896 7.028-7.896a6.171 6.171 0 0 1 4.62 1.819v-5.207a1.204 1.204 0 0 1 2.408-.028v17.556a1.137 1.137 0 0 1-1.204 1.176zm-5.824-12.936c-2.8 0-4.62 2.184-4.62 5.516 0 3.36 1.82 5.544 4.62 5.544 2.828 0 4.62-2.184 4.62-5.544 0-3.332-1.792-5.516-4.62-5.516z"/><path id="W" d="M240.215 959.16h-.476c-2.66 0-3.668-1.4-3.668-3.696v-8.792h-.84a1.19 1.19 0 1 1-.028-2.38h.84V940.4a1.137 1.137 0 0 1 1.204-1.176 1.115 1.115 0 0 1 1.176 1.176v3.892h1.792a1.161 1.161 0 0 1 1.176 1.176 1.139 1.139 0 0 1-1.176 1.204h-1.792v9.044c0 .784.28 1.064 1.064 1.064h.7a1.155 1.155 0 0 1 1.204 1.176 1.139 1.139 0 0 1-1.176 1.204z"/><path id="X" d="M299.406 952.943h-10.36c.392 2.632 2.072 4.312 4.536 4.312a4.2 4.2 0 0 0 3.332-1.456 1.16 1.16 0 0 1 .868-.447 1.306 1.306 0 0 1 1.26 1.231c0 .336-.084.588-.672 1.176a6.82 6.82 0 0 1-4.788 1.876c-4.508 0-7.028-3.724-7.028-7.924 0-4.172 2.52-7.896 7.028-7.896 4.564 0 7 3.724 7 7.896a1.194 1.194 0 0 1-1.176 1.232zm-5.824-6.748c-2.632 0-4.172 1.932-4.536 4.34h9.072c-.392-2.688-2.072-4.34-4.536-4.34z"/><path id="Y" d="M342.9 946.195a4.034 4.034 0 0 0-3.976 4.004v7.756a1.167 1.167 0 0 1-1.232 1.204 1.146 1.146 0 0 1-1.176-1.176v-12.488a1.186 1.186 0 0 1 1.176-1.204 1.149 1.149 0 0 1 1.204.952 6.479 6.479 0 0 1 4.004-1.428 1.191 1.191 0 1 1 0 2.38z"/><path id="Z" d="M817.63 572.138a5.903 5.903 0 0 1-5.045-2.471v6.734a.741.741 0 1 1-1.481 0v-17.785a.741.741 0 0 1 1.481 0v1.273a5.946 5.946 0 0 1 5.045-2.443c4.186 0 6.526 3.432 6.526 7.332 0 3.926-2.34 7.36-6.526 7.36zm0-13.21c-3.095 0-5.045 2.47-5.045 5.85s1.95 5.877 5.045 5.877 5.044-2.496 5.044-5.877-1.95-5.85-5.044-5.85z"/><path id="a" d="M823.734 590.334h-10.79c.234 2.963 2.158 5.12 4.992 5.12a4.699 4.699 0 0 0 3.822-1.793.683.683 0 0 1 .624-.365.796.796 0 0 1 .807.703c0 .234 0 .285-.494.857a6.139 6.139 0 0 1-4.759 2.08c-4.186 0-6.526-3.432-6.526-7.357 0-3.9 2.34-7.334 6.526-7.334s6.526 3.46 6.526 7.334a.787.787 0 0 1-.728.754zm-5.8-6.605c-3.12 0-4.758 2.393-4.992 5.123h10.01c-.234-2.965-2.158-5.123-5.02-5.123z"/><path id="b" d="M268.795 81.023c-3.3 0-8.82-1.02-11.64-4.5a2.655 2.655 0 0 1 2.16-4.26 2.464 2.464 0 0 1 1.86 1.02c1.86 2.04 4.92 2.64 7.62 2.64 5.4 0 7.14-1.86 7.14-4.56 0-7.68-18.3-2.94-18.3-15.3 0-6.54 6.12-8.94 11.82-8.94 3.24 0 10.86 1.62 10.86 4.98a2.694 2.694 0 0 1-2.52 2.7 3.612 3.612 0 0 1-1.98-.78c-1.62-1.38-3.96-1.8-6.36-1.8-4.98 0-6.72 1.86-6.72 3.84 0 7.14 18.36 2.52 18.36 15.3 0 7.08-5.94 9.66-12.3 9.66z"/><path id="c" d="M381.413 66.683h-22.2c.84 5.64 4.44 9.24 9.72 9.24a9.005 9.005 0 0 0 7.14-3.12 2.483 2.483 0 0 1 1.86-.96 2.8 2.8 0 0 1 2.7 2.64c0 .72-.18 1.26-1.44 2.52a14.622 14.622 0 0 1-10.26 4.02c-9.66 0-15.06-7.98-15.06-16.98 0-8.94 5.4-16.92 15.06-16.92 9.78 0 15 7.98 15 16.92a2.558 2.558 0 0 1-2.52 2.64zm-12.48-14.46c-5.64 0-8.94 4.14-9.72 9.3h19.44c-.84-5.76-4.44-9.3-9.72-9.3z"/><path id="d" d="M457.187 80.003a5.839 5.839 0 0 1-5.34-3.42 13.747 13.747 0 0 1-10.56 4.44c-9.78 0-15.06-8.04-15.06-16.98s5.4-16.92 15.06-16.92a13.26 13.26 0 0 1 9.9 3.96v-.24a2.475 2.475 0 0 1 2.52-2.7 2.412 2.412 0 0 1 2.64 2.52v23.16a.971.971 0 0 0 .84 1.08 2.55 2.55 0 1 1 0 5.1zm-15.9-27.78c-6 0-9.9 4.68-9.9 11.82 0 7.2 3.9 11.88 9.9 11.88 6.06 0 9.9-4.68 9.9-11.88 0-7.14-3.84-11.82-9.9-11.82z"/><path id="e" d="M725.205 52.224a8.644 8.644 0 0 0-8.52 8.58v16.62a2.501 2.501 0 0 1-2.64 2.58 2.456 2.456 0 0 1-2.52-2.52v-26.76a2.541 2.541 0 0 1 2.52-2.58 2.463 2.463 0 0 1 2.58 2.04 13.874 13.874 0 0 1 8.58-3.06 2.552 2.552 0 1 1 0 5.1z"/><path id="f" d="M742.004 93.682c-3.66 0-12.72-1.32-12.72-4.92a2.794 2.794 0 0 1 2.58-2.7c1.38 0 .18.18 3.36 1.38a18.749 18.749 0 0 0 6.78 1.14c6.66 0 9.9-3.18 9.9-9.48v-2.7a14.038 14.038 0 0 1-9.899 3.6c-9.48 0-15.06-6.72-15.06-15.96 0-9 5.4-16.92 15.06-16.92 4.2 0 7.44 1.26 9.9 3.84v-.24a2.553 2.553 0 0 1 2.58-2.58 2.518 2.518 0 0 1 2.579 2.58v28.38c0 9.54-5.7 14.58-15.06 14.58zm0-41.458c-6 0-9.9 4.68-9.9 11.82 0 6.84 3.6 10.86 9.9 10.86s9.9-4.02 9.9-10.86c0-7.14-3.84-11.82-9.9-11.82z"/><path id="g" d="M814.484 80.003h-1.02c-5.7 0-7.86-3-7.86-7.92v-18.84h-1.8a2.55 2.55 0 0 1-.061-5.1h1.8v-8.34a2.436 2.436 0 0 1 2.579-2.52 2.39 2.39 0 0 1 2.521 2.52v8.34h3.84a2.487 2.487 0 0 1 2.52 2.52 2.441 2.441 0 0 1-2.52 2.58h-3.84v19.38c0 1.68.6 2.28 2.28 2.28h1.5a2.475 2.475 0 0 1 2.58 2.52 2.441 2.441 0 0 1-2.52 2.58z"/><path id="h" d="M833.082 81.023c-9.66 0-15.06-7.92-15.06-16.98 0-9 5.4-16.92 15.06-16.92s15.06 7.92 15.06 16.92c0 9.06-5.4 16.98-15.06 16.98zm0-28.8c-6 0-9.9 4.68-9.9 11.82 0 7.2 3.9 11.88 9.9 11.88 6.06 0 9.9-4.68 9.9-11.88 0-7.14-3.84-11.82-9.9-11.82z"/></defs><rect width="1080" height="1080" rx="40" fill="url(#A)"/><g opacity=".5" fill="#629fa6"><path d="M42.328 1046.045a7.892 7.892 0 0 1-5.503-2.002 1.364 1.364 0 0 1-1.468 1.401 1.346 1.346 0 0 1-1.401-1.401v-20.88a1.435 1.435 0 0 1 2.869-.033v6.238a7.4 7.4 0 0 1 5.503-2.169c5.37 0 8.373 4.403 8.373 9.406 0 5.037-3.002 9.44-8.373 9.44zm0-16c-3.335 0-5.503 2.602-5.503 6.57 0 4.003 2.168 6.604 5.503 6.604s5.504-2.602 5.504-6.604c0-3.97-2.168-6.57-5.504-6.57zm25.555 8.037h-12.34c.467 3.136 2.468 5.137 5.403 5.137a5.003 5.003 0 0 0 3.969-1.734 1.383 1.383 0 0 1 1.034-.533 1.556 1.556 0 0 1 1.501 1.468c0 .4-.1.7-.8 1.4a8.129 8.129 0 0 1-5.704 2.235c-5.37 0-8.372-4.437-8.372-9.44 0-4.97 3.002-9.406 8.372-9.406 5.437 0 8.34 4.437 8.34 9.406a1.422 1.422 0 0 1-1.401 1.468zm-6.937-8.038c-3.136 0-4.97 2.3-5.403 5.17H66.35c-.467-3.202-2.468-5.17-5.403-5.17zM88 1045.478a3.247 3.247 0 0 1-2.969-1.901 7.642 7.642 0 0 1-5.87 2.469c-5.437 0-8.372-4.47-8.372-9.44s3.002-9.406 8.372-9.406a7.369 7.369 0 0 1 5.504 2.202v-.134a1.376 1.376 0 0 1 1.4-1.501 1.341 1.341 0 0 1 1.468 1.401v12.875a.54.54 0 0 0 .467.601 1.418 1.418 0 1 1 0 2.835zm-8.84-15.443c-3.336 0-5.504 2.602-5.504 6.57 0 4.003 2.168 6.604 5.504 6.604 3.37 0 5.504-2.602 5.504-6.604 0-3.97-2.135-6.57-5.504-6.57z"/><use xlink:href="#E"/><path d="M115.158 1045.478h-.567c-3.17 0-4.37-1.668-4.37-4.403V1030.6h-1a1.418 1.418 0 1 1-.033-2.835h1v-4.637a1.355 1.355 0 0 1 1.435-1.4 1.328 1.328 0 0 1 1.401 1.4v4.637h2.135a1.383 1.383 0 0 1 1.4 1.401 1.356 1.356 0 0 1-1.4 1.434h-2.135v10.774c0 .934.333 1.268 1.268 1.268h.833a1.376 1.376 0 0 1 1.435 1.4 1.357 1.357 0 0 1-1.4 1.435zm4.604-20.415a2.401 2.401 0 1 1 2.402-2.401 2.392 2.392 0 0 1-2.402 2.401zm0 20.414a1.4 1.4 0 0 1-1.467-1.401V1029.2a1.408 1.408 0 0 1 1.467-1.435 1.374 1.374 0 0 1 1.401 1.435v14.876a1.346 1.346 0 0 1-1.401 1.401zm10.376-14.877h-1.5v13.442a1.364 1.364 0 0 1-1.468 1.401 1.346 1.346 0 0 1-1.401-1.401V1030.6h-1.37a1.418 1.418 0 0 1 0-2.835h1.367v-2.27a3.801 3.801 0 0 1 3.836-3.769 1.418 1.418 0 1 1 0 2.835.934.934 0 0 0-.967.9v2.302h1.5a1.418 1.418 0 1 1 0 2.835z"/><use xlink:href="#E" x="42.068"/><path d="M154.725 1045.544a3.403 3.403 0 0 1-3.336-3.402v-18.98a1.435 1.435 0 0 1 2.869-.033v19.013a.527.527 0 0 0 .467.567 1.418 1.418 0 1 1 0 2.835zm15.37-.066v-1.264c1.886-.237 2.046-.437 2.046-3.157v-6.7c0-2.8-1.248-4.017-3.064-4.017a5.597 5.597 0 0 0-3.47 1.493v9.476c0 2.527.187 2.658 2.06 2.896v1.264h-8.968v-1.264c2.254-.33 2.5-.4 2.5-3v-8.2c0-2.446-.303-2.565-2.185-2.922v-1.184a34.101 34.101 0 0 0 6.653-1.533l-.052 2.95 2.6-1.745a5.659 5.659 0 0 1 3.159-1.086c3.194 0 5.2 2.338 5.2 6.3v7.5c0 2.54.237 2.657 2.277 2.92v1.264zm23.9-3.703c-2.458 3.427-5.488 4.178-7.014 4.178-5.142 0-8.124-3.936-8.124-8.594a10.333 10.333 0 0 1 2.832-7.062 8.602 8.602 0 0 1 6.082-2.814 6.386 6.386 0 0 1 6.37 6.347c-.014.715-.08 1.277-.612 1.4-.767.184-6.17.5-10.318.647.062 4.587 2.717 6.74 5.556 6.74a6.776 6.776 0 0 0 4.543-1.866zm-7.07-12.7c-1.667 0-3.167 1.807-3.516 4.963l5.486-.118c.6-.026.848-.146.848-.792.04-2.022-1.037-4.053-2.818-4.053zm34.284.145c-1.943.343-2.248.624-3.105 2.765-1.33 3.462-3.102 8.53-4.934 13.94h-1.512l-4.65-11.46-4.55 11.46h-1.472l-4.685-14.192c-.687-1.985-.94-2.274-2.855-2.512v-1.25h9.397v1.25c-2.325.345-2.535.672-2.058 2.133l2.52 8.214c1.507-3.68 2.988-7.62 4.327-11.424h1.456c1.4 3.76 2.986 7.702 4.573 11.568.742-2.107 2.062-5.964 2.557-8.108.412-1.674-.008-2.078-2.753-2.383v-1.25h7.742zm9.4 3.746c-.92-2.606-2.155-3.984-4.2-3.984a2.166 2.166 0 0 0-2.225 2.266c0 1.497 1.046 2.264 3.16 3.216 3.278 1.496 5.3 2.787 5.3 5.736 0 3.85-3.6 5.764-6.945 5.764a12.073 12.073 0 0 1-4.92-1.161l-.662-4.892 1.252-.224c.8 2.5 2.33 4.75 4.976 4.75a2.231 2.231 0 0 0 2.438-2.281c0-1.423-.76-2.333-3.092-3.467-2.67-1.295-5.107-2.64-5.107-5.775 0-3.046 2.533-5.42 6.565-5.42a18.751 18.751 0 0 1 4.112.567l.62 4.577z"/></g><g opacity=".8" fill="#629fa6"><path d="M714.98 1046.358c-1.2 0-3.22-.42-3.92-1.58a.482.482 0 0 1-.08-.3.546.546 0 0 1 1.021-.32 3.812 3.812 0 0 0 2.98 1.061c1.94 0 2.92-.64 2.92-1.94 0-3.02-6.562-1.42-6.562-5.422 0-2.02 2.02-2.8 3.84-2.8a5.415 5.415 0 0 1 3.44 1.16.558.558 0 0 1 .18.38.648.648 0 0 1-.62.6.531.531 0 0 1-.38-.16 4.001 4.001 0 0 0-2.62-.84c-1.76 0-2.7.68-2.7 1.66 0 2.8 6.562 1.32 6.562 5.422 0 2.28-2 3.08-4.06 3.08z"/><use xlink:href="#F"/><path d="M741.48 1045.978a.562.562 0 0 1-.58-.561v-.64a4.442 4.442 0 0 1-3.421 1.54 4.61 4.61 0 0 1-4.561-4.561v-5.842a.57.57 0 0 1 1.14 0v5.842a3.421 3.421 0 0 0 6.842 0v-5.842a.57.57 0 0 1 1.141 0v9.502a.558.558 0 0 1-.561.561z"/><use xlink:href="#G"/><use xlink:href="#H"/><use xlink:href="#I"/><path d="M775.178 1039.417a1.14 1.14 0 1 1 0-2.28 1.14 1.14 0 0 1 0 2.28zm0 6.562a1.14 1.14 0 1 1 0-2.28 1.14 1.14 0 0 1 0 2.28zm11.14-.001h-2.28a.571.571 0 1 1 0-1.141h.56v-11.982h-.56a.56.56 0 1 1 0-1.12h2.28a.56.56 0 1 1 0 1.12h-.58v11.982h.58a.571.571 0 0 1 0 1.141z"/><use xlink:href="#J"/><use xlink:href="#K"/><path d="M816.12 1041.237h-8.302c.18 2.28 1.66 3.94 3.84 3.94a3.615 3.615 0 0 0 2.94-1.381.525.525 0 0 1 .48-.28.611.611 0 0 1 .62.541c0 .18 0 .22-.38.66a4.72 4.72 0 0 1-3.66 1.601c-3.22 0-5.02-2.64-5.02-5.66 0-3 1.8-5.64 5.02-5.64s5.02 2.66 5.02 5.64a.606.606 0 0 1-.56.58zm-4.46-5.08c-2.4 0-3.66 1.84-3.84 3.94h7.7c-.18-2.28-1.66-3.94-3.86-3.94z"/><use xlink:href="#G" x="74.178"/><use xlink:href="#J" x="36.38"/><use xlink:href="#L"/><use xlink:href="#K" x="49.217"/><path d="M856.896 1033.435a1.14 1.14 0 1 1 1.141-1.14 1.127 1.127 0 0 1-1.141 1.14zm0 12.543a.55.55 0 0 1-.58-.561v-9.502a.551.551 0 0 1 .58-.56.545.545 0 0 1 .561.56v9.502a.536.536 0 0 1-.561.561z"/><use xlink:href="#F" x="139.158"/><use xlink:href="#J" x="82.978"/><use xlink:href="#L" x="46.598"/><path d="M898.856 1046.098a2.096 2.096 0 0 1-1.98-2.12v-11.683a.571.571 0 0 1 1.141 0v11.683c0 1.28 1.42.54 1.42 1.44a.645.645 0 0 1-.58.681zm16.76-.12h-8.882a.606.606 0 0 1-.58-.561v-13.122a.59.59 0 0 1 .58-.561h8.882a.56.56 0 1 1 0 1.12h-8.32v4.92h6.1a.551.551 0 0 1 .58.561.561.561 0 0 1-.56.58h-6.12v5.92h8.32a.567.567 0 0 1 .58.58.55.55 0 0 1-.58.561z"/><use xlink:href="#J" x="129.297"/><use xlink:href="#I" x="168.178"/><use xlink:href="#G" x="197.437"/><use xlink:href="#M"/><use xlink:href="#N"/><path d="M987.157 1045.978a.583.583 0 0 1-.521-.34l-1.28-3.08h-7.2l-1.28 3.08a.564.564 0 0 1-1.081-.2.587.587 0 0 1 .04-.26l5.4-13.104a.631.631 0 0 1 .58-.38.517.517 0 0 1 .48.38l5.4 13.104a.587.587 0 0 1 .04.26.56.56 0 0 1-.58.54zm-5.4-12.183l-3.14 7.622h6.3z"/><use xlink:href="#M" x="40.559"/><use xlink:href="#I" x="239.717"/><use xlink:href="#J" x="224.576"/><use xlink:href="#H" x="274.155"/><use xlink:href="#N" x="74.999"/></g><path d="M728.353 898.39H46.146a10 10 0 0 1-10-10V468.35h702.207V888.39a10 10 0 0 1-10 10zm185.494-368.365V468.35H761.702v61.673a10 10 0 0 0 10 10h132.145a10 10 0 0 0 10-10zm134.108-23.89V468.35H936.772v37.782a10 10 0 0 0 10 10h91.183a10 10 0 0 0 10-10z" fill="#629fa6"/><path d="M35.615 458.35v-154.04a20.02 20.02 0 0 1 19.961-19.961h660.077a20.02 20.02 0 0 1 19.961 19.961v154.04" fill="url(#B)"/><path d="M759.702 458.35v-154.04a20.02 20.02 0 0 1 19.961-19.961H891.74a20.02 20.02 0 0 1 19.961 19.961v154.04" fill="url(#C)"/><path d="M934.772 458.35v-154.04a20.02 20.02 0 0 1 19.961-19.961h72.077a20.02 20.02 0 0 1 19.961 19.961v154.04" fill="url(#D)"/><g fill="#fff"><path d="M39.36 240.59a2.166 2.166 0 1 1 2.165-2.166 2.141 2.141 0 0 1-2.165 2.166zm0 23.822a1.045 1.045 0 0 1-1.103-1.063V245.3a1.047 1.047 0 0 1 1.103-1.063 1.034 1.034 0 0 1 1.063 1.063v18.048a1.016 1.016 0 0 1-1.063 1.063z"/><use xlink:href="#O"/><use xlink:href="#P"/><path d="M106.084 264.41h-.038a3.933 3.933 0 0 1-3.762-2.964 8.619 8.619 0 0 1-7.371 3.609c-6.193 0-9.536-5.09-9.536-10.752 0-5.737 3.42-10.715 9.536-10.715a8.686 8.686 0 0 1 7.371 3.572V245.3a1.071 1.071 0 0 1 1.102-1.063 1.037 1.037 0 0 1 1.064 1.063v15.31c0 2.432 2.735.912 2.735 2.736a1.045 1.045 0 0 1-1.102 1.063zm-11.17-18.655c-4.483 0-7.37 3.61-7.37 8.55s2.888 8.587 7.37 8.587c4.52 0 7.37-3.647 7.37-8.587s-2.85-8.55-7.37-8.55z"/><use xlink:href="#O" x="64.828"/><path d="M148.643 264.4a1.068 1.068 0 0 1-1.102-1.063v-1.9a8.619 8.619 0 0 1-7.371 3.609c-6.117 0-9.536-5.015-9.536-10.752 0-5.7 3.42-10.715 9.536-10.715a8.686 8.686 0 0 1 7.371 3.572v-8.74a1.083 1.083 0 0 1 2.166 0v24.925a1.059 1.059 0 0 1-1.064 1.063zm-8.473-18.655c-4.483 0-7.37 3.6-7.37 8.55s2.888 8.587 7.37 8.587c4.52 0 7.37-3.647 7.37-8.587s-2.85-8.55-7.37-8.55zm31.3 9.65h-15.768c.342 4.332 3.153 7.485 7.295 7.485a6.866 6.866 0 0 0 5.585-2.622.997.997 0 0 1 .912-.531 1.161 1.161 0 0 1 1.178 1.025c0 .342 0 .418-.722 1.254a8.969 8.969 0 0 1-6.953 3.039c-6.117 0-9.536-5.015-9.536-10.752 0-5.7 3.42-10.715 9.536-10.715s9.537 5.054 9.537 10.715a1.15 1.15 0 0 1-1.064 1.102zm-8.473-9.65c-4.56 0-6.953 3.495-7.295 7.485h14.628c-.342-4.332-3.153-7.485-7.333-7.485zm19.648 19.377c-2.28 0-6.117-.798-7.447-3a.922.922 0 0 1-.151-.57 1.036 1.036 0 0 1 1.938-.607c1.367 1.67 3.8 2.014 5.66 2.014 3.686 0 5.547-1.216 5.547-3.686 0-5.737-12.462-2.698-12.462-10.297 0-3.837 3.837-5.32 7.295-5.32 1.976 0 5.015.685 6.535 2.204a1.064 1.064 0 0 1 .342.722 1.232 1.232 0 0 1-1.178 1.14 1.006 1.006 0 0 1-.722-.304 7.597 7.597 0 0 0-4.978-1.596c-3.344 0-5.13 1.292-5.13 3.153 0 5.32 12.462 2.508 12.462 10.297 0 4.33-3.8 5.85-7.713 5.85z"/><use xlink:href="#P" x="126.919"/><path d="M230.304 255.406h-15.768c.342 4.332 3.153 7.485 7.295 7.485a6.866 6.866 0 0 0 5.585-2.622.997.997 0 0 1 .912-.531 1.161 1.161 0 0 1 1.178 1.025c0 .342 0 .418-.722 1.254a8.969 8.969 0 0 1-6.953 3.039c-6.117 0-9.536-5.015-9.536-10.752 0-5.7 3.42-10.715 9.536-10.715s9.537 5.054 9.537 10.715a1.15 1.15 0 0 1-1.065 1.102zm-8.473-9.65c-4.56 0-6.953 3.495-7.295 7.485h14.628c-.342-4.332-3.153-7.485-7.333-7.485z"/><use xlink:href="#O" x="190.074"/><path d="M263.707 264.41h-1.178c-3 0-4.483-1.48-4.483-4.445V246.4h-1.937a1.083 1.083 0 0 1 0-2.165h1.938v-5.813a1.068 1.068 0 0 1 1.103-1.063 1.037 1.037 0 0 1 1.063 1.063v5.813h3.495a1.083 1.083 0 0 1 0 2.165h-3.495v13.564c0 1.86.532 2.28 2.317 2.28h1.178a1.083 1.083 0 0 1 0 2.166z"/><use xlink:href="#Q"/><path d="M314.777 264.4a1.067 1.067 0 0 1-1.102-1.063v-1.216a8.44 8.44 0 0 1-6.497 2.925 8.758 8.758 0 0 1-8.663-8.662V245.3a1.083 1.083 0 0 1 2.166 0v11.095a6.497 6.497 0 1 0 12.994 0V245.3a1.083 1.083 0 0 1 2.166 0v18.048a1.059 1.059 0 0 1-1.064 1.063zm9.463.228a3.982 3.982 0 0 1-3.762-4.027v-22.188a1.083 1.083 0 0 1 2.166 0v22.188c0 2.432 2.697 1.026 2.697 2.736a1.224 1.224 0 0 1-1.102 1.291z"/><use xlink:href="#Q" x="52.021"/><path d="M782.9 260.916a9.734 9.734 0 0 1-8.473 4.141c-8.17 0-11.057-6.763-11.057-14.172 0-7.446 2.888-14.2 11.057-14.2a9.624 9.624 0 0 1 8.435 4.142.769.769 0 0 1 .228.608 1.138 1.138 0 0 1-1.178 1.063 1.008 1.008 0 0 1-.836-.418 7.473 7.473 0 0 0-6.648-3.23c-6.308 0-8.9 4.94-8.9 12.044 0 7.067 2.583 12.007 8.9 12.007a7.572 7.572 0 0 0 6.725-3.229.886.886 0 0 1 .836-.494 1.161 1.161 0 0 1 1.14 1.102 1.209 1.209 0 0 1-.228.647zm21.545-21.43H788.64v9.346h11.6a1.047 1.047 0 0 1 1.102 1.064 1.068 1.068 0 0 1-1.064 1.102H788.64v12.35a1.083 1.083 0 0 1-2.166 0v-24.925a1.122 1.122 0 0 1 1.103-1.063h16.87a1.065 1.065 0 1 1 0 2.128zm17.557 24.923H809.35a1.151 1.151 0 0 1-1.103-1.063v-24.925a1.047 1.047 0 0 1 1.103-1.063 1.034 1.034 0 0 1 1.063 1.063v23.822h11.6a1.083 1.083 0 0 1 0 2.166zm128.968 0h-12.652a1.151 1.151 0 0 1-1.103-1.063v-24.925a1.047 1.047 0 0 1 1.103-1.063 1.034 1.034 0 0 1 1.063 1.063v23.822h11.6a1.083 1.083 0 0 1 0 2.166zm21.735 0h-16.87a1.151 1.151 0 0 1-1.103-1.063v-24.925a1.122 1.122 0 0 1 1.103-1.063h16.87a1.065 1.065 0 1 1 0 2.128H956.9v9.346h11.6a1.047 1.047 0 0 1 1.102 1.064 1.068 1.068 0 0 1-1.064 1.102H956.9v11.246h15.806a1.077 1.077 0 0 1 1.102 1.103 1.045 1.045 0 0 1-1.102 1.063zm14.403 0h-8.435a1.151 1.151 0 0 1-1.103-1.063v-24.925a1.122 1.122 0 0 1 1.103-1.063h8.435c7.827 0 10.4 6.535 10.4 13.487 0 7.067-2.583 13.564-10.4 13.564zm0-24.924h-7.37v22.758h7.37c6.497 0 8.245-5.623 8.245-11.36 0-6.763-2.356-11.397-8.245-11.397z"/></g><g fill="#fdf0bd"><path d="M651.742 843.138a.787.787 0 0 1-.812-.784v-8.176a4.788 4.788 0 0 0-9.576 0v8.176a.798.798 0 0 1-1.596 0v-13.3a.798.798 0 0 1 1.596 0v.896a6.388 6.388 0 0 1 11.173 4.228v8.176a.781.781 0 0 1-.784.784z"/><use xlink:href="#R"/><use xlink:href="#R" x="16.183"/><path d="M700.684 843.138a.787.787 0 0 1-.812-.784v-1.4a6.355 6.355 0 0 1-5.433 2.659c-4.508 0-7.027-3.695-7.027-7.924 0-4.2 2.52-7.895 7.027-7.895a6.403 6.403 0 0 1 5.433 2.632v-6.44a.798.798 0 0 1 1.596 0v18.368a.781.781 0 0 1-.784.784zM694.44 829.4c-3.304 0-5.432 2.66-5.432 6.3s2.128 6.328 5.432 6.328c3.332 0 5.433-2.687 5.433-6.328s-2.1-6.3-5.433-6.3zm15.12 14.27c-1.68 0-4.508-.588-5.487-2.212a.675.675 0 0 1-.112-.42.764.764 0 0 1 1.428-.448c1.008 1.23 2.8 1.483 4.172 1.483 2.717 0 4.088-.896 4.088-2.716 0-4.228-9.184-1.987-9.184-7.588 0-2.828 2.828-3.92 5.376-3.92a7.587 7.587 0 0 1 4.816 1.624.784.784 0 0 1 .252.532.908.908 0 0 1-.868.84.742.742 0 0 1-.532-.224 5.599 5.599 0 0 0-3.668-1.177c-2.464 0-3.78.952-3.78 2.324 0 3.92 9.185 1.85 9.185 7.588 0 3.192-2.8 4.313-5.685 4.313zm-121.623 35.713c-7.94 0-8.662-8.13-8.662-14.172 0-7.104 1.52-14.2 8.662-14.2a7.919 7.919 0 0 1 7.029 3.8.853.853 0 0 1 .228.646 1.154 1.154 0 0 1-1.14 1.026 1.017 1.017 0 0 1-.874-.494 5.97 5.97 0 0 0-5.243-2.812c-4.787 0-6.497 4.56-6.497 12.006v.647a8.284 8.284 0 1 1 6.497 13.563zm0-14.628a6.334 6.334 0 0 0-6.079 6.46c.685 3.2 2.204 6.003 6.08 6.003a6.237 6.237 0 0 0 0-12.463zm19 14.628c-8.055 0-8.13-9.65-8.13-15.197 0-5.434.836-13.185 8.093-13.185 7.105 0 8.17 7.295 8.17 13.185 0 5.5-.114 15.197-8.13 15.197zm5.965-15.197c0-5.434-.76-11.02-5.965-11.02-5.7 0-5.965 7-5.965 11.02v2.432c0 4.407.836 10.6 5.927 10.6 5.205 0 6.003-6.193 6.003-10.6zm39.698-4.218l-6.193 17.857c-.266.722-.607.912-1.102.912-.646 0-.836-.228-1.064-.912l-4.977-14.817-4.978 14.817c-.266.722-.608.912-1.102.912a1.111 1.111 0 0 1-1.064-.912l-6.155-17.857a1.645 1.645 0 0 1-.075-.418 1.079 1.079 0 0 1 1.102-.987.986.986 0 0 1 .988.722l5.205 15.046 4.977-14.855c.23-.723.456-.912 1.103-.912.456 0 .836.15 1.063.912l5.054 14.855 5.13-15.046a.986.986 0 0 1 .988-.722 1.028 1.028 0 0 1 1.102 1.405zm22.8 18.77h-.038a3.933 3.933 0 0 1-3.762-2.964 8.619 8.619 0 0 1-7.371 3.609c-6.193 0-9.536-5.1-9.536-10.752 0-5.737 3.42-10.715 9.536-10.715a8.686 8.686 0 0 1 7.371 3.572v-1.862a1.071 1.071 0 0 1 1.102-1.063 1.037 1.037 0 0 1 1.064 1.063v15.312c0 2.432 2.735.912 2.735 2.736a1.045 1.045 0 0 1-1.102 1.063zm-11.17-18.655c-4.483 0-7.37 3.6-7.37 8.55s2.888 8.587 7.37 8.587c4.52 0 7.37-3.647 7.37-8.587s-2.85-8.55-7.37-8.55z"/><use xlink:href="#S"/><use xlink:href="#S" x="10.715"/><path d="M707 879.46c-2.28 0-6.117-.798-7.447-3a.922.922 0 0 1-.151-.57 1.036 1.036 0 0 1 1.938-.607c1.367 1.67 3.8 2.014 5.66 2.014 3.686 0 5.547-1.216 5.547-3.686 0-5.737-12.462-2.698-12.462-10.297 0-3.837 3.837-5.32 7.295-5.32 1.976 0 5.016.685 6.535 2.204a1.064 1.064 0 0 1 .342.722 1.232 1.232 0 0 1-1.178 1.14 1.006 1.006 0 0 1-.722-.304 7.599 7.599 0 0 0-4.978-1.596c-3.344 0-5.13 1.292-5.13 3.153 0 5.32 12.462 2.508 12.462 10.297 0 4.33-3.8 5.85-7.713 5.85zm155.323-349.038a.766.766 0 0 1-.784-.785v-16.744l-3.052 2.97a.691.691 0 0 1-.532.252.886.886 0 0 1-.84-.867.937.937 0 0 1 .252-.533l4.424-4.283a1.058 1.058 0 0 1 .532-.225c.588 0 .812.42.812.98v18.45a.758.758 0 0 1-.812.785zm8.65.474a6.001 6.001 0 0 1-5.096-2.826 1.046 1.046 0 0 1-.112-.449.878.878 0 0 1 .813-.84.752.752 0 0 1 .644.42 4.399 4.399 0 0 0 8.148-2.268 4.38 4.38 0 0 0-4.368-4.396h-.028a.812.812 0 0 1-.812-.812.788.788 0 0 1 .812-.783h.028a3.682 3.682 0 0 0 0-7.363c-3.052 0-3.444 2.912-4.564 2.912a.832.832 0 0 1-.84-.785c0-.615 2.128-3.723 5.404-3.723a5.293 5.293 0 0 1 5.264 5.264 5.164 5.164 0 0 1-2.408 4.424 5.844 5.844 0 0 1 3.108 5.236 5.998 5.998 0 0 1-5.992 5.99zm29.96-19.402l-4.928 18.34a.777.777 0 0 1-.784.588.746.746 0 0 1-.756-.588l-4.2-15.512-4.172 15.512a.746.746 0 0 1-.756.588.777.777 0 0 1-.784-.588l-4.928-18.34a.767.767 0 0 1-.028-.252.812.812 0 0 1 .812-.812.697.697 0 0 1 .729.615l4.2 15.512 4.172-15.512a.741.741 0 0 1 .756-.559.752.752 0 0 1 .784.559l4.172 15.512 4.2-15.512a.734.734 0 0 1 .728-.615.813.813 0 0 1 .813.813.767.767 0 0 1-.028.252zM984 506.6a5.812 5.812 0 0 1-5.18-2.771.667.667 0 0 1-.168-.477.852.852 0 0 1 .84-.783.82.82 0 0 1 .645.363 4.339 4.339 0 0 0 3.863 2.072c3.528 0 4.788-3.36 4.788-8.848v-.477a6.105 6.105 0 1 1-4.788-9.995c5.853 0 6.384 6.02 6.384 10.443 0 5.236-1.12 10.472-6.384 10.472zm0-19.32a4.611 4.611 0 0 0 0 9.212 4.686 4.686 0 0 0 4.48-4.76c-.504-2.38-1.624-4.452-4.48-4.452zm10.415 18.846a1.596 1.596 0 1 1 1.597-1.596 1.578 1.578 0 0 1-1.597 1.596zm9.968.28a6.189 6.189 0 0 1-5.04-2.66.754.754 0 0 1-.14-.448.855.855 0 0 1 .84-.812c.42 0 .448.224.868.672a4.406 4.406 0 0 0 3.472 1.651 5.099 5.099 0 0 0 0-10.163 4.526 4.526 0 0 0-3.696 1.987.802.802 0 0 1-.756.393.772.772 0 0 1-.812-.841v-9.212a.764.764 0 0 1 .784-.783h9.352a.786.786 0 1 1 0 1.567h-8.54v6.552a5.671 5.671 0 0 1 3.668-1.26 6.691 6.691 0 0 1 0 13.356zm30.492-19.208l-4.928 18.34a.776.776 0 0 1-.784.588.745.745 0 0 1-.756-.588l-4.2-15.512-4.172 15.512a.745.745 0 0 1-.756.588.776.776 0 0 1-.784-.588l-4.928-18.34a.767.767 0 0 1-.028-.252.812.812 0 0 1 .812-.812.698.698 0 0 1 .729.616l4.2 15.512 4.172-15.512a.741.741 0 0 1 .756-.56.752.752 0 0 1 .784.56l4.172 15.512 4.2-15.512a.735.735 0 0 1 .728-.616.813.813 0 0 1 .813.813.767.767 0 0 1-.028.252z"/></g><g fill="#629fa6"><use xlink:href="#T"/><use xlink:href="#U"/><use xlink:href="#V"/><use xlink:href="#W"/><path d="M255.475 959.16a1.131 1.131 0 0 1-1.176-1.176V950.2a3.99 3.99 0 1 0-7.98 0v7.756a1.19 1.19 0 0 1-1.232 1.232 1.154 1.154 0 0 1-1.176-1.204v-17.556a1.204 1.204 0 0 1 2.408-.028v4.844a5.649 5.649 0 0 1 3.976-1.428 6.435 6.435 0 0 1 6.384 6.384v7.756a1.145 1.145 0 0 1-1.204 1.204zm20.72-7.925h-8.764a1.19 1.19 0 0 1 0-2.38h8.764a1.191 1.191 0 1 1 0 2.38zm0 4.004h-8.764a1.113 1.113 0 0 1-1.176-1.176 1.129 1.129 0 0 1 1.176-1.232h8.764a1.174 1.174 0 0 1 1.232 1.232 1.161 1.161 0 0 1-1.232 1.176z"/><use xlink:href="#X"/><path d="M315.17 959.16a1.131 1.131 0 0 1-1.176-1.176V950.2a3.99 3.99 0 1 0-7.98 0v7.756a1.19 1.19 0 0 1-1.232 1.232 1.154 1.154 0 0 1-1.176-1.204v-12.517a1.114 1.114 0 0 1 1.176-1.176 1.171 1.171 0 0 1 1.204.924 6.395 6.395 0 0 1 10.388 4.984v7.756a1.145 1.145 0 0 1-1.204 1.204z"/><use xlink:href="#X" x="32.9"/><use xlink:href="#Y"/><path d="M352.13 965.543c-1.708 0-5.936-.616-5.936-2.296a1.304 1.304 0 0 1 1.204-1.26c.644 0 .084.084 1.568.644a8.748 8.748 0 0 0 3.164.532c3.108 0 4.62-1.484 4.62-4.424v-1.26a6.549 6.549 0 0 1-4.62 1.68c-4.424 0-7.028-3.136-7.028-7.448 0-4.2 2.52-7.896 7.028-7.896a6.032 6.032 0 0 1 4.62 1.792v-.112a1.192 1.192 0 0 1 1.204-1.204 1.176 1.176 0 0 1 1.204 1.204v13.244c0 4.452-2.66 6.804-7.028 6.804zm0-19.348c-2.8 0-4.62 2.184-4.62 5.516 0 3.192 1.68 5.068 4.62 5.068s4.62-1.876 4.62-5.068c0-3.332-1.792-5.516-4.62-5.516zm23.127-.225l-7.56 17.2a3.208 3.208 0 0 1-3.08 1.876h-.896a1.129 1.129 0 0 1-1.176-1.231 1.114 1.114 0 0 1 1.176-1.177h.868c.364 0 .756-.056.924-.447l1.848-4.145-5.46-12.067a1.014 1.014 0 0 1-.14-.532 1.262 1.262 0 0 1 1.288-1.176 1.078 1.078 0 0 1 1.008.728l4.564 10.136 4.452-10.136a1.109 1.109 0 0 1 1.036-.7 1.242 1.242 0 0 1 1.288 1.148.951.951 0 0 1-.14.532z"/><use xlink:href="#Y" x="48.345"/><path d="M405.66 952.943H395.3c.392 2.632 2.072 4.312 4.536 4.312a4.2 4.2 0 0 0 3.332-1.456 1.16 1.16 0 0 1 .868-.447 1.306 1.306 0 0 1 1.26 1.231c0 .336-.084.588-.672 1.176a6.82 6.82 0 0 1-4.788 1.876c-4.508 0-7.028-3.724-7.028-7.924 0-4.172 2.52-7.896 7.028-7.896 4.564 0 7 3.724 7 7.896a1.194 1.194 0 0 1-1.176 1.232zm-5.824-6.748c-2.632 0-4.172 1.932-4.536 4.34h9.072c-.392-2.688-2.072-4.34-4.536-4.34zm22.23 18.872a1.16 1.16 0 0 1-1.204-1.204v-6.048a6.049 6.049 0 0 1-4.62 1.819c-4.508 0-7.028-3.695-7.028-7.924s2.52-7.924 7.028-7.924a6.72 6.72 0 0 1 4.62 1.708 1.204 1.204 0 0 1 2.408-.028v18.397a1.16 1.16 0 0 1-1.204 1.204zm-5.824-18.9c-2.772 0-4.62 2.212-4.62 5.517 0 3.36 1.82 5.57 4.62 5.57 2.828 0 4.62-2.184 4.62-5.544 0-3.332-1.792-5.544-4.62-5.544zm22.343 13.02a1.142 1.142 0 0 1-1.176-.925 6.517 6.517 0 0 1-4.032 1.4 6.436 6.436 0 0 1-6.384-6.384v-7.756a1.204 1.204 0 0 1 2.408-.028v7.784a3.99 3.99 0 1 0 7.98 0v-7.756a1.117 1.117 0 0 1 1.176-1.232 1.145 1.145 0 0 1 1.204 1.204V958a1.116 1.116 0 0 1-1.176 1.177z"/><use xlink:href="#U" x="232.197"/><use xlink:href="#Y" x="113.775"/><use xlink:href="#X" x="171.684"/><use xlink:href="#V" x="257.194"/><path d="M504.128 962.855c-.448 0-.672-.112-1.568-1.093-2.744-2.91-3.668-7.195-3.696-11.088 0-3.836 1.232-9.044 4.48-11.62a1.267 1.267 0 0 1 .756-.28 1.237 1.237 0 0 1 1.232 1.204c0 .532-.168.56-.952 1.344-2.24 2.268-3.108 5.964-3.108 9.352 0 3.416 1.036 7.868 3.668 10.08a1.217 1.217 0 0 1 .42.868 1.262 1.262 0 0 1-1.232 1.232z"/><use xlink:href="#T" x="318.4"/><path d="M543.748 959.16a2.725 2.725 0 0 1-2.492-1.596 6.417 6.417 0 0 1-4.928 2.071c-4.564 0-7.028-3.752-7.028-7.924s2.52-7.896 7.028-7.896a6.188 6.188 0 0 1 4.62 1.848v-.112a1.155 1.155 0 0 1 1.176-1.26 1.126 1.126 0 0 1 1.232 1.176v10.81a.453.453 0 0 0 .392.504 1.19 1.19 0 1 1 0 2.38zm-7.42-12.964c-2.8 0-4.62 2.184-4.62 5.516 0 3.36 1.82 5.544 4.62 5.544 2.828 0 4.62-2.184 4.62-5.544 0-3.332-1.792-5.516-4.62-5.516z"/><use xlink:href="#W" x="312.073"/><use xlink:href="#W" x="320.5"/><path d="M569.087 959.634c-1.54 0-4.116-.476-5.432-2.1a1.239 1.239 0 0 1 1.008-1.988 1.149 1.149 0 0 1 .868.477 4.784 4.784 0 0 0 3.556 1.231c2.52 0 3.332-.868 3.332-2.128 0-3.584-8.54-1.372-8.54-7.14 0-3.052 2.856-4.172 5.516-4.172 1.512 0 5.068.756 5.068 2.324a1.258 1.258 0 0 1-1.176 1.26 1.688 1.688 0 0 1-.924-.364 4.542 4.542 0 0 0-2.968-.84c-2.324 0-3.136.868-3.136 1.792 0 3.332 8.568 1.176 8.568 7.14 0 3.305-2.772 4.508-5.74 4.508zm10.473 2.186c-.812.896-1.036 1.036-1.484 1.036a1.356 1.356 0 0 1-1.26-1.261 1.116 1.116 0 0 1 .42-.84c2.632-2.212 3.668-6.664 3.668-10.08 0-3.388-.868-7.084-3.136-9.352-.7-.7-.924-.812-.924-1.344a1.237 1.237 0 0 1 1.232-1.204 1.207 1.207 0 0 1 .756.28c3.22 2.548 4.48 7.812 4.48 11.62 0 3.92-1.008 8.12-3.752 11.145z"/></g><g opacity=".8" fill="#629fa6"><path d="M772.65 570.162a6.04 6.04 0 0 1-4.654 1.977c-4.186 0-6.526-3.434-6.526-7.36 0-3.9 2.34-7.332 6.526-7.332a6.037 6.037 0 0 1 4.654 1.977.688.688 0 0 1 .208.494.815.815 0 0 1-.754.779.767.767 0 0 1-.546-.26 4.581 4.581 0 0 0-3.562-1.508c-3.067 0-5.044 2.47-5.044 5.85s1.977 5.877 5.044 5.877a4.674 4.674 0 0 0 3.563-1.508.737.737 0 0 1 1.3.493.743.743 0 0 1-.208.52zm8.736 1.976c-4.186 0-6.525-3.434-6.525-7.36 0-3.9 2.34-7.332 6.525-7.332s6.526 3.432 6.526 7.332c0 3.926-2.34 7.36-6.526 7.36zm0-13.2c-3.067 0-5.044 2.47-5.044 5.85s1.977 5.877 5.044 5.877c3.095 0 5.045-2.496 5.045-5.877s-1.95-5.85-5.045-5.85zm26.027 12.767a.71.71 0 0 1-.729-.728v-8.736a3.315 3.315 0 0 0-6.63-.026v8.763a.71.71 0 0 1-.729.728.731.731 0 0 1-.754-.728v-8.736a3.302 3.302 0 0 0-6.604-.026v8.763a.741.741 0 0 1-1.481 0v-12.35a.741.741 0 0 1 1.481 0v.156a4.727 4.727 0 0 1 3.303-1.326 4.82 4.82 0 0 1 4.056 2.21 4.8 4.8 0 0 1 8.841 2.548v8.763a.731.731 0 0 1-.754.727z"/><use xlink:href="#Z"/><path d="M840.302 571.695h-.025a2.69 2.69 0 0 1-2.574-2.027 5.903 5.903 0 0 1-5.045 2.471c-4.238 0-6.525-3.484-6.525-7.36 0-3.926 2.34-7.332 6.525-7.332a5.946 5.946 0 0 1 5.045 2.443v-1.273a.733.733 0 0 1 .754-.729.71.71 0 0 1 .728.729v10.48c0 1.664 1.872.624 1.872 1.872a.714.714 0 0 1-.754.728zm-7.645-12.766c-3.067 0-5.044 2.47-5.044 5.85s1.977 5.877 5.044 5.877c3.095 0 5.045-2.496 5.045-5.877s-1.95-5.85-5.045-5.85zm20.826 11.233a6.04 6.04 0 0 1-4.654 1.977c-4.186 0-6.525-3.434-6.525-7.36 0-3.9 2.34-7.332 6.525-7.332a6.037 6.037 0 0 1 4.654 1.977.688.688 0 0 1 .208.494.815.815 0 0 1-.754.779.767.767 0 0 1-.546-.26 4.581 4.581 0 0 0-3.562-1.508c-3.067 0-5.044 2.47-5.044 5.85s1.977 5.877 5.044 5.877a4.674 4.674 0 0 0 3.563-1.508.737.737 0 0 1 1.3.493.743.743 0 0 1-.208.52zm7.567 1.533h-.806c-2.055 0-3.068-1.014-3.068-3.04v-9.283h-1.326a.741.741 0 0 1 0-1.482h1.326v-3.978a.731.731 0 0 1 .754-.728.71.71 0 0 1 .729.728v3.978h2.392a.741.741 0 0 1 0 1.482h-2.392v9.283c0 1.273.363 1.56 1.586 1.56h.806a.741.741 0 0 1 0 1.481zm-94.224 7.745h-.806a1.149 1.149 0 0 0-1.145 1.117v2.133h1.95a.708.708 0 0 1 .729.729.732.732 0 0 1-.729.754h-1.95v11.596a.709.709 0 0 1-.728.729.695.695 0 0 1-.729-.729v-11.596h-1.794a.741.741 0 0 1 0-1.482h1.794v-2.133a2.581 2.581 0 0 1 2.574-2.574h.832a.739.739 0 0 1 .754.754.697.697 0 0 1-.754.703zm5.304 17.212a2.726 2.726 0 0 1-2.574-2.758V578.7a.741.741 0 0 1 1.482 0v15.184c0 1.664 1.846.703 1.846 1.873a.84.84 0 0 1-.754.885zm13.494-.156a.731.731 0 0 1-.754-.729v-.832a5.779 5.779 0 0 1-4.446 2.002 5.993 5.993 0 0 1-5.929-5.928v-7.592a.741.741 0 0 1 1.482 0v7.592a4.447 4.447 0 0 0 8.893 0v-7.592a.741.741 0 0 1 1.481 0v12.35a.725.725 0 0 1-.728.728zm9.826.44c-4.186 0-6.526-3.432-6.526-7.357 0-3.9 2.34-7.334 6.526-7.334s6.526 3.434 6.526 7.334c0 3.926-2.34 7.357-6.526 7.357zm0-13.2c-3.067 0-5.044 2.47-5.044 5.852s1.977 5.875 5.044 5.875c3.095 0 5.045-2.496 5.045-5.875s-1.95-5.852-5.045-5.852zm15.03.236a4.444 4.444 0 0 0-4.445 4.447v7.357a.741.741 0 0 1-1.482 0v-12.35a.741.741 0 0 1 1.482 0v1.064a5.937 5.937 0 0 1 4.445-2.002.741.741 0 1 1 0 1.482z"/><use xlink:href="#a"/><path d="M831.378 597c-1.56 0-4.186-.547-5.096-2.055a.625.625 0 0 1-.104-.391.71.71 0 0 1 1.326-.416 4.954 4.954 0 0 0 3.874 1.379c2.522 0 3.797-.832 3.797-2.52 0-3.928-8.53-1.848-8.53-7.047 0-2.627 2.627-3.64 4.992-3.64a7.051 7.051 0 0 1 4.473 1.508.727.727 0 0 1 .234.494.844.844 0 0 1-.807.781.689.689 0 0 1-.494-.209 5.201 5.201 0 0 0-3.406-1.092c-2.287 0-3.5.885-3.5 2.158 0 3.64 8.528 1.715 8.528 7.047 0 2.963-2.6 4.004-5.278 4.004zm18.07-2.04a6.033 6.033 0 0 1-4.654 1.977c-4.186 0-6.525-3.432-6.525-7.357 0-3.9 2.34-7.334 6.525-7.334a6.04 6.04 0 0 1 4.654 1.977.688.688 0 0 1 .208.494.816.816 0 0 1-.754.781.762.762 0 0 1-.546-.262 4.588 4.588 0 0 0-3.562-1.508c-3.067 0-5.044 2.47-5.044 5.852s1.977 5.875 5.044 5.875a4.674 4.674 0 0 0 3.563-1.508.738.738 0 0 1 1.3.494.743.743 0 0 1-.208.52z"/><use xlink:href="#a" x="40.248"/><path d="M878.4 596.496a.731.731 0 0 1-.754-.729v-7.592a4.446 4.446 0 1 0-8.893 0v7.592a.741.741 0 0 1-1.481 0v-12.35a.741.741 0 0 1 1.481 0v.832a5.931 5.931 0 0 1 10.375 3.926v7.592a.725.725 0 0 1-.729.729zm8.425 0h-.806c-2.054 0-3.068-1.014-3.068-3.043v-9.28h-1.326a.741.741 0 0 1 0-1.482h1.326v-3.98a.731.731 0 0 1 .754-.729.71.71 0 0 1 .729.729v3.98h2.392a.741.741 0 0 1 0 1.482h-2.392v9.28c0 1.273.364 1.56 1.586 1.56h.806a.741.741 0 0 1 0 1.482zM764.643 621.45a2.725 2.725 0 0 1-2.574-2.756V603.5a.741.741 0 0 1 1.481 0v15.186c0 1.664 1.847.7 1.847 1.87a.839.839 0 0 1-.754.885zm16.17-.155h-.026a2.689 2.689 0 0 1-2.573-2.027 5.903 5.903 0 0 1-5.045 2.471c-4.237 0-6.526-3.484-6.526-7.36 0-3.926 2.34-7.332 6.526-7.332a5.946 5.946 0 0 1 5.045 2.443v-1.273a.733.733 0 0 1 .754-.729.709.709 0 0 1 .728.729v10.478c0 1.664 1.872.623 1.872 1.87a.714.714 0 0 1-.754.729zm-7.645-12.766c-3.067 0-5.044 2.47-5.044 5.85s1.977 5.877 5.044 5.877c3.095 0 5.045-2.496 5.045-5.877s-1.95-5.85-5.045-5.85zm27.17 12.766a.71.71 0 0 1-.729-.729v-8.736a3.315 3.315 0 0 0-6.63-.025v8.762a.71.71 0 0 1-.729.729.731.731 0 0 1-.754-.729v-8.736a3.302 3.302 0 0 0-6.604-.025v8.762a.741.741 0 0 1-1.481 0v-12.35a.741.741 0 0 1 1.481 0v.156a4.727 4.727 0 0 1 3.303-1.326 4.819 4.819 0 0 1 4.056 2.211 4.799 4.799 0 0 1 8.841 2.547v8.762a.731.731 0 0 1-.754.729z"/><use xlink:href="#Z" x="-7.072" y="49.6"/></g><g opacity=".6"><g fill="none" stroke="#629fa6" stroke-miterlimit="10" stroke-width="2"><path d="M38.615 924.06h1"/><path d="M43.613 924.06h675.652" stroke-dasharray="1.99897 3.99794"/><path d="M721.264 924.06h1"/></g><path d="M719.346 934.033l17.27-9.97-17.27-9.973v19.944z" fill="#629fa6"/></g><g fill="#fff"><path d="M56.338 80.003H38.1a2.601 2.601 0 0 1-2.64-2.52v-37.62a2.58 2.58 0 0 1 5.16-.06v35.1h15.72a2.55 2.55 0 0 1 0 5.1zm33.78 0H65.16a2.601 2.601 0 0 1-2.64-2.52v-37.62a2.612 2.612 0 0 1 2.64-2.58h24.96a2.425 2.425 0 0 1 2.52 2.52 2.505 2.505 0 0 1-2.52 2.58H67.68v12.12H83.4a2.561 2.561 0 0 1 2.58 2.58 2.523 2.523 0 0 1-2.58 2.58H67.68v15.24h22.44a2.471 2.471 0 0 1 2.52 2.58 2.425 2.425 0 0 1-2.52 2.52zm21.72 0h-12.42a2.73 2.73 0 0 1-2.64-2.52v-37.62a2.693 2.693 0 0 1 2.64-2.58h12.42c12.36 0 16.44 10.2 16.44 21.3 0 11.16-4.08 21.42-16.44 21.42zm0-37.62h-9.9v32.52h9.9c7.74 0 11.28-5.7 11.28-16.32 0-10.44-3.54-16.2-11.28-16.2zm51.418 37.62h-16.14a2.73 2.73 0 0 1-2.64-2.52v-37.62a2.511 2.511 0 0 1 2.52-2.58h14.88a11.255 11.255 0 0 1 11.22 11.1 10.801 10.801 0 0 1-3.42 7.979 12.411 12.411 0 0 1 6.3 10.919 12.804 12.804 0 0 1-12.72 12.72zm-1.38-37.62h-12.24v12.12h12.24a6.06 6.06 0 1 0 0-12.12zm1.38 17.22h-13.62v15.3h13.62a7.65 7.65 0 0 0 0-15.3zm40.14 20.46a2.446 2.446 0 0 1-2.52-1.98 13.966 13.966 0 0 1-8.64 3 13.79 13.79 0 0 1-13.679-13.68v-16.62a2.58 2.58 0 0 1 5.16-.06v16.68a8.55 8.55 0 1 0 17.099 0v-16.62a2.393 2.393 0 0 1 2.52-2.64 2.454 2.454 0 0 1 2.58 2.58v26.82a2.39 2.39 0 0 1-2.52 2.52zm13.68.06a6.122 6.122 0 0 1-6-6.12v-34.14a2.58 2.58 0 0 1 5.16-.06v34.198a.947.947 0 0 0 .84 1.02 2.55 2.55 0 1 1 0 5.1zm22.498.9a14.199 14.199 0 0 1-9.899-3.6 2.453 2.453 0 0 1-2.64 2.52 2.421 2.421 0 0 1-2.52-2.52v-37.56a2.58 2.58 0 0 1 5.16-.06v11.22a13.318 13.318 0 0 1 9.899-3.9c9.66 0 15.06 7.92 15.06 16.92 0 9.06-5.4 16.98-15.06 16.98zm0-28.8c-6 0-9.9 4.68-9.9 11.82 0 7.2 3.9 11.88 9.9 11.88s9.9-4.68 9.9-11.88c0-7.14-3.9-11.82-9.9-11.82z"/><use xlink:href="#b"/><path d="M310.674 81.083a15.03 15.03 0 0 1-15.06-15.06v-26.22a2.581 2.581 0 0 1 5.16 0v26.22a9.929 9.929 0 1 0 19.859 0v-26.16a2.55 2.55 0 0 1 5.1-.06v26.22a15.031 15.031 0 0 1-15.06 15.06z"/><use xlink:href="#b" x="70.979"/><use xlink:href="#c"/><path d="M426.712 42.384h-22.44v12.12h15.72a2.561 2.561 0 0 1 2.58 2.58 2.523 2.523 0 0 1-2.58 2.58h-15.72v17.82a2.581 2.581 0 0 1-5.16 0V39.864a2.612 2.612 0 0 1 2.64-2.58h24.96a2.425 2.425 0 0 1 2.52 2.52 2.505 2.505 0 0 1-2.52 2.58z"/><use xlink:href="#d"/><path d="M476.028 52.224a8.644 8.644 0 0 0-8.52 8.58v16.62a2.501 2.501 0 0 1-2.64 2.58 2.456 2.456 0 0 1-2.52-2.52v-26.76a2.541 2.541 0 0 1 2.52-2.58 2.463 2.463 0 0 1 2.58 2.04 13.875 13.875 0 0 1 8.58-3.06 2.552 2.552 0 1 1 0 5.1zm35.7 27.78h-18.24a2.601 2.601 0 0 1-2.64-2.52v-37.62a2.58 2.58 0 0 1 5.16-.06v35.1h15.72a2.55 2.55 0 0 1 0 5.1zm31.14-13.32h-22.2c.84 5.64 4.44 9.24 9.72 9.24a9.007 9.007 0 0 0 7.14-3.12 2.483 2.483 0 0 1 1.859-.96 2.8 2.8 0 0 1 2.7 2.64c0 .72-.18 1.26-1.44 2.52a14.618 14.618 0 0 1-10.259 4.02c-9.66 0-15.06-7.98-15.06-16.98 0-8.94 5.4-16.92 15.06-16.92 9.78 0 15 7.98 15 16.92a2.558 2.558 0 0 1-2.52 2.64zm-12.48-14.46c-5.64 0-8.94 4.14-9.72 9.3h19.438c-.84-5.76-4.44-9.3-9.72-9.3zm28.5 28.8c-3.3 0-8.82-1.02-11.64-4.5a2.655 2.655 0 0 1 2.16-4.26 2.463 2.463 0 0 1 1.859 1.02c1.86 2.04 4.92 2.64 7.62 2.64 5.4 0 7.14-1.86 7.14-4.56 0-7.68-18.3-2.94-18.3-15.3 0-6.54 6.12-8.94 11.82-8.94 3.24 0 10.86 1.62 10.86 4.98a2.694 2.694 0 0 1-2.52 2.7 3.612 3.612 0 0 1-1.98-.78c-1.62-1.38-3.96-1.8-6.36-1.8-4.98 0-6.72 1.86-6.72 3.84 0 7.14 18.36 2.52 18.36 15.3 0 7.08-5.94 9.66-12.3 9.66zm26.7 0c-3.3 0-8.82-1.02-11.64-4.5a2.655 2.655 0 0 1 2.16-4.26 2.463 2.463 0 0 1 1.859 1.02c1.86 2.04 4.92 2.64 7.62 2.64 5.4 0 7.14-1.86 7.14-4.56 0-7.68-18.3-2.94-18.3-15.3 0-6.54 6.12-8.94 11.82-8.94 3.24 0 10.86 1.62 10.86 4.98a2.694 2.694 0 0 1-2.521 2.7 3.612 3.612 0 0 1-1.979-.78c-1.62-1.38-3.96-1.8-6.36-1.8-4.98 0-6.72 1.86-6.72 3.84 0 7.14 18.36 2.52 18.36 15.3 0 7.08-5.94 9.66-12.3 9.66zm54.78-1.02h-24.96a2.602 2.602 0 0 1-2.64-2.52v-37.62a2.612 2.612 0 0 1 2.64-2.58h24.96a2.425 2.425 0 0 1 2.52 2.52 2.504 2.504 0 0 1-2.52 2.58h-22.44v12.12h15.72a2.561 2.561 0 0 1 2.58 2.58 2.523 2.523 0 0 1-2.58 2.58h-15.72v15.24h22.44a2.471 2.471 0 0 1 2.52 2.58 2.425 2.425 0 0 1-2.52 2.52zm31.44 0a2.423 2.423 0 0 1-2.52-2.52v-16.68a8.55 8.55 0 1 0-17.1 0v16.62a2.55 2.55 0 0 1-2.64 2.64 2.472 2.472 0 0 1-2.52-2.58v-26.82a2.387 2.387 0 0 1 2.52-2.52 2.509 2.509 0 0 1 2.58 1.98 13.702 13.702 0 0 1 22.259 10.68v16.62a2.454 2.454 0 0 1-2.58 2.58zm33.72-13.32h-22.2c.84 5.64 4.44 9.24 9.72 9.24a9.007 9.007 0 0 0 7.14-3.12 2.483 2.483 0 0 1 1.859-.96 2.8 2.8 0 0 1 2.7 2.64c0 .72-.18 1.26-1.44 2.52a14.618 14.618 0 0 1-10.259 4.02c-9.66 0-15.06-7.98-15.06-16.98 0-8.94 5.4-16.92 15.06-16.92 9.78 0 15 7.98 15 16.92a2.558 2.558 0 0 1-2.519 2.64zm-12.48-14.46c-5.64 0-8.94 4.14-9.72 9.3h19.438c-.84-5.76-4.44-9.3-9.72-9.3z"/><use xlink:href="#e"/><use xlink:href="#f"/><path d="M789.763 51.744l-16.2 36.838a6.876 6.876 0 0 1-6.6 4.02h-1.92a2.42 2.42 0 0 1-2.52-2.64 2.386 2.386 0 0 1 2.52-2.52h1.86a1.894 1.894 0 0 0 1.979-.96l3.96-8.88-11.7-25.86a2.165 2.165 0 0 1-.301-1.14 2.706 2.706 0 0 1 2.761-2.52 2.308 2.308 0 0 1 2.159 1.56l9.78 21.72 9.54-21.72a2.376 2.376 0 0 1 2.22-1.5 2.659 2.659 0 0 1 2.76 2.46 2.035 2.035 0 0 1-.3 1.14z"/><use xlink:href="#g"/><use xlink:href="#h"/><path d="M50.698 142.223c-13.2 0-17.46-11.1-17.46-22.38 0-11.58 4.56-22.44 17.46-22.44 5.46 0 10.02 1.92 13.32 6.54a2.558 2.558 0 0 1 .54 1.5 2.873 2.873 0 0 1-2.88 2.58c-1.08 0-1.2-.48-2.16-1.56-1.92-2.34-4.5-3.9-8.82-3.9-9.24 0-12.3 7.86-12.3 17.28 0 8.22 2.22 17.28 12.3 17.28 7.32 0 11.7-5.22 12.12-13.86h-5.4a2.501 2.501 0 0 1-2.64-2.58 2.471 2.471 0 0 1 2.52-2.58h8.22a2.52 2.52 0 0 1 2.64 2.64c-.24 11.22-4.74 21.48-17.46 21.48z"/><use xlink:href="#c" x="-283.316" y="61.2"/><path d="M128.877 141.203a2.424 2.424 0 0 1-2.52-2.52v-16.68a8.55 8.55 0 1 0-17.099 0v16.62a2.551 2.551 0 0 1-2.64 2.64 2.472 2.472 0 0 1-2.52-2.58v-26.82a2.387 2.387 0 0 1 2.52-2.52 2.509 2.509 0 0 1 2.58 1.98 13.703 13.703 0 0 1 22.259 10.68v16.62a2.454 2.454 0 0 1-2.58 2.58z"/><use xlink:href="#c" x="-218.816" y="61.2"/><use xlink:href="#e" x="-542.929" y="61.2"/><use xlink:href="#d" x="-243.603" y="61.2"/><path d="M228.884 141.203h-1.02c-5.7 0-7.86-3-7.86-7.92v-18.84h-1.8a2.55 2.55 0 0 1-.06-5.1h1.8v-8.34a2.436 2.436 0 0 1 2.58-2.52 2.389 2.389 0 0 1 2.52 2.52v8.34h3.84a2.488 2.488 0 0 1 2.52 2.52 2.441 2.441 0 0 1-2.52 2.58h-3.84v19.38c0 1.68.6 2.28 2.28 2.28h1.5a2.475 2.475 0 0 1 2.58 2.52 2.441 2.441 0 0 1-2.52 2.58z"/><use xlink:href="#c" x="-121.45" y="61.2"/><path d="M287.802 141.203h-1.02c-5.7 0-7.86-3-7.86-7.92v-18.84h-1.8a2.55 2.55 0 1 1-.06-5.1h1.8v-8.34a2.436 2.436 0 0 1 2.58-2.52 2.389 2.389 0 0 1 2.52 2.52v8.34h3.84a2.488 2.488 0 0 1 2.52 2.52 2.441 2.441 0 0 1-2.52 2.58h-3.84v19.38c0 1.68.6 2.28 2.28 2.28h1.5a2.475 2.475 0 0 1 2.58 2.52 2.441 2.441 0 0 1-2.52 2.58zm29.698 0a2.424 2.424 0 0 1-2.52-2.52v-16.68a8.55 8.55 0 1 0-17.099 0v16.62a2.551 2.551 0 0 1-2.64 2.64 2.472 2.472 0 0 1-2.52-2.58v-37.618a2.58 2.58 0 0 1 5.16-.06v10.38a12.097 12.097 0 0 1 8.52-3.06 13.79 13.79 0 0 1 13.68 13.68v16.62a2.454 2.454 0 0 1-2.58 2.58z"/><use xlink:href="#c" x="-30.193" y="61.2"/><path d="M381.1 142.223c-4.38 0-10.5-1.8-13.92-4.98a2.4 2.4 0 0 1-.84-1.86 2.599 2.599 0 0 1 2.58-2.58c.9 0 1.2.3 2.28 1.14a16.242 16.242 0 0 0 9.899 3.18c7.14 0 10.26-2.58 10.26-7.02 0-12.48-23.94-5.4-23.94-21.72 0-7.32 6.18-10.98 14.1-10.98 4.14 0 10.08 1.62 13.02 5.1a2.365 2.365 0 0 1 .66 1.62 2.795 2.795 0 0 1-2.58 2.7c-.9 0-1.38-.42-2.4-1.32a13.181 13.181 0 0 0-8.7-2.94c-6.48 0-8.94 2.58-8.94 5.82 0 11.22 23.94 4.56 23.94 21.72 0 8.94-7.5 12.12-15.42 12.12zm47.94-1.02a5.839 5.839 0 0 1-5.34-3.42 13.747 13.747 0 0 1-10.56 4.44c-9.78 0-15.06-8.04-15.06-16.98s5.4-16.92 15.06-16.92a13.258 13.258 0 0 1 9.899 3.96v-.24a2.476 2.476 0 0 1 2.52-2.7 2.412 2.412 0 0 1 2.64 2.52v23.16a.971.971 0 0 0 .84 1.08 2.55 2.55 0 1 1 0 5.1zm-15.9-27.78c-6 0-9.9 4.68-9.9 11.82 0 7.2 3.9 11.88 9.9 11.88 6.06 0 9.9-4.68 9.9-11.88 0-7.14-3.84-11.82-9.9-11.82zm59.218 27.78a2.457 2.457 0 0 1-2.52-2.52v-18.9a6.33 6.33 0 1 0-12.659-.06v18.9a2.454 2.454 0 0 1-2.58 2.58 2.424 2.424 0 0 1-2.52-2.52v-18.9a6.36 6.36 0 0 0-12.719-.06v18.9a2.501 2.501 0 0 1-2.64 2.58 2.456 2.456 0 0 1-2.52-2.52v-26.82a2.632 2.632 0 0 1 4.8-1.44 11.56 11.56 0 0 1 6.66-2.1 11.358 11.358 0 0 1 8.939 4.26 11.24 11.24 0 0 1 8.88-4.26 11.459 11.459 0 0 1 11.52 11.4v18.9a2.501 2.501 0 0 1-2.64 2.58zm33.782-13.32h-22.2c.84 5.64 4.44 9.24 9.72 9.24a9.007 9.007 0 0 0 7.14-3.12 2.483 2.483 0 0 1 1.859-.96 2.8 2.8 0 0 1 2.7 2.64c0 .72-.18 1.26-1.44 2.52a14.619 14.619 0 0 1-10.259 4.02c-9.66 0-15.06-7.98-15.06-16.98 0-8.94 5.4-16.92 15.06-16.92 9.78 0 15 7.98 15 16.92a2.558 2.558 0 0 1-2.52 2.64zm-12.48-14.46c-5.64 0-8.94 4.14-9.72 9.3h19.44c-.84-5.76-4.44-9.3-9.72-9.3zm60.358 27.78a2.457 2.457 0 0 1-2.28-1.56l-3.18-7.8h-19.98l-3.24 7.8a2.44 2.44 0 0 1-2.22 1.56 2.651 2.651 0 0 1-2.7-2.52 1.967 1.967 0 0 1 .24-1.02l15.42-37.498a2.621 2.621 0 0 1 2.46-1.86 2.724 2.724 0 0 1 2.46 1.86l15.48 37.498a2.802 2.802 0 0 1 .18 1.02 2.561 2.561 0 0 1-2.64 2.52zm-15.48-33.6l-7.86 19.08h15.72zm58.32 33.6a2.456 2.456 0 0 1-2.52-2.52v-18.9a6.33 6.33 0 0 0-12.66-.06v18.9a2.453 2.453 0 0 1-2.579 2.58 2.424 2.424 0 0 1-2.521-2.52v-18.9a6.36 6.36 0 0 0-12.72-.06v18.9a2.501 2.501 0 0 1-2.64 2.58 2.456 2.456 0 0 1-2.52-2.52v-26.82a2.632 2.632 0 0 1 4.8-1.44 11.557 11.557 0 0 1 6.659-2.1 11.36 11.36 0 0 1 8.94 4.26 11.238 11.238 0 0 1 8.879-4.26 11.459 11.459 0 0 1 11.52 11.4v18.9a2.501 2.501 0 0 1-2.64 2.58z"/><use xlink:href="#h" x="-214.924" y="61.2"/><path d="M661.656 141.263a2.445 2.445 0 0 1-2.52-1.98 13.967 13.967 0 0 1-8.64 3 13.79 13.79 0 0 1-13.68-13.68v-16.62a2.58 2.58 0 0 1 5.159-.06v16.68a8.55 8.55 0 1 0 17.1 0v-16.62a2.393 2.393 0 0 1 2.521-2.64 2.453 2.453 0 0 1 2.579 2.58v26.82a2.389 2.389 0 0 1-2.52 2.52zm32.82-.06a2.424 2.424 0 0 1-2.521-2.52v-16.68a8.55 8.55 0 1 0-17.1 0v16.62a2.55 2.55 0 0 1-2.64 2.64 2.472 2.472 0 0 1-2.52-2.58v-26.82a2.387 2.387 0 0 1 2.52-2.52 2.509 2.509 0 0 1 2.58 1.98 13.702 13.702 0 0 1 22.259 10.68v16.62a2.453 2.453 0 0 1-2.579 2.58z"/><use xlink:href="#g" x="-102.307" y="61.2"/><use xlink:href="#h" x="-90.607" y="61.2"/><path d="M771.454 114.444h-2.7v24.18a2.453 2.453 0 0 1-2.64 2.52 2.421 2.421 0 0 1-2.52-2.52v-24.18h-2.46a2.55 2.55 0 0 1 0-5.1h2.46v-4.08a6.836 6.836 0 0 1 6.899-6.78 2.551 2.551 0 1 1 0 5.1 1.682 1.682 0 0 0-1.74 1.62v4.14h2.7a2.552 2.552 0 1 1 0 5.1zm37.62 26.76h-18.24a2.602 2.602 0 0 1-2.64-2.52v-37.618a2.58 2.58 0 0 1 5.159-.06v35.1h15.72a2.55 2.55 0 0 1 0 5.1zm7.74-36.72a4.32 4.32 0 1 1 4.319-4.319 4.302 4.302 0 0 1-4.319 4.319zm0 36.72a2.52 2.52 0 0 1-2.64-2.52v-26.76a2.533 2.533 0 0 1 2.64-2.58 2.472 2.472 0 0 1 2.52 2.58v26.76a2.421 2.421 0 0 1-2.52 2.52z"/><use xlink:href="#f" x="96.768" y="61.201"/><path d="M884.13 141.203a2.423 2.423 0 0 1-2.52-2.52v-16.68a8.55 8.55 0 1 0-17.1 0v16.62a2.55 2.55 0 0 1-2.64 2.64 2.472 2.472 0 0 1-2.52-2.58v-37.618a2.58 2.58 0 0 1 5.159-.06v10.38a12.102 12.102 0 0 1 8.521-3.06 13.79 13.79 0 0 1 13.679 13.68v16.62a2.454 2.454 0 0 1-2.58 2.58zm17.7 0h-1.02c-5.7 0-7.86-3-7.86-7.92v-18.84h-1.8a2.55 2.55 0 0 1-.061-5.1h1.8v-8.34a2.436 2.436 0 0 1 2.579-2.52 2.39 2.39 0 0 1 2.521 2.52v8.34h3.84a2.487 2.487 0 0 1 2.52 2.52 2.441 2.441 0 0 1-2.52 2.58h-3.84v19.38c0 1.68.6 2.28 2.28 2.28h1.5a2.475 2.475 0 0 1 2.58 2.52 2.441 2.441 0 0 1-2.519 2.58z"/></g></svg>