<svg xmlns="http://www.w3.org/2000/svg" xmlns:xlink="http://www.w3.org/1999/xlink" viewBox="0 0 1080 1080"><style><![CDATA[.Q{opacity:.5}.R{fill:none}.S{stroke-width:2}.T{stroke-miterlimit:10}.U{fill:#6dd5fa}.V{stroke:#fff}.W{stroke-dasharray:2.01572,6.04715}]]></style><linearGradient id="A" gradientUnits="userSpaceOnUse" x1="11.75" y1="11.75" x2="1068.25" y2="1068.25"><stop offset="0" stop-color="#000428"/><stop offset=".233" stop-color="#001a48"/><stop offset=".57" stop-color="#003670"/><stop offset=".837" stop-color="#004889"/><stop offset="1" stop-color="#004e92"/></linearGradient><path d="M1080,1040c0,22-18,40-40,40H40c-22,0-40-18-40-40V40C0,18,18,0,40,0h1000c22,0,40,18,40,40V1040z" fill="url(#A)"/><path d="M658 260.5h4v172.22h-4zm.77 188.573h4v172.22h-4zm9 0h4v172.22h-4zm9 0h4v172.22h-4zm9 0h4v172.22h-4zm-27 188.573h4v172.22h-4zm9 0h4v172.22h-4zm9 0h4v172.22h-4zm9 0h4v172.22h-4zm9 0h4v172.22h-4zm9 0h4v172.22h-4zm9 0h4v172.22h-4zm9 0h4v172.22h-4zm9 0h4v172.22h-4zm9 0h4v172.22h-4zm9 0h4v172.22h-4zm9 0h4v172.22h-4zm9 0h4v172.22h-4zm-108 188.574h4v172.22h-4zm9 0h4v172.22h-4zm9 0h4v172.22h-4zm9 0h4v172.22h-4zm9 0h4v172.22h-4zm9 0h4v172.22h-4zm9 0h4v172.22h-4zm9 0h4v172.22h-4zm9 0h4v172.22h-4zm9 0h4v172.22h-4zm9 0h4v172.22h-4zm9 0h4v172.22h-4zm9 0h4v172.22h-4zm9 0h4v172.22h-4zm9 0h4v172.22h-4zm9 0h4v172.22h-4zm9 0h4v172.22h-4zm9 0h4v172.22h-4zm9 0h4v172.22h-4zm9 0h4v172.22h-4zm9 0h4v172.22h-4zm9 0h4v172.22h-4zm9 0h4v172.22h-4zm9 0h4v172.22h-4zm9 0h4v172.22h-4zm9 0h4v172.22h-4zm9 0h4v172.22h-4zm9 0h4v172.22h-4zm9 0h4v172.22h-4zm9 0h4v172.22h-4zm9 0h4v172.22h-4zm9 0h4v172.22h-4zm9 0h4v172.22h-4zm9 0h4v172.22h-4z" class="U"/><linearGradient id="B" gradientUnits="userSpaceOnUse" x1="34" y1="628.908" x2="417.556" y2="628.908"><stop offset="0" stop-color="#0091ff"/><stop offset=".067" stop-color="#0194f7"/><stop offset=".17" stop-color="#049ce1"/><stop offset=".296" stop-color="#09a9be"/><stop offset=".441" stop-color="#0fbb8d"/><stop offset=".589" stop-color="#17d053"/><stop offset=".676" stop-color="#42d947"/><stop offset=".87" stop-color="#aeef29"/><stop offset="1" stop-color="#f9fe14"/></linearGradient><path d="M34 401.595v-142.22h383.557v172.22H64c-16.57 0-30-13.43-30-30zm133.894 219.7h249.663v-172.22H137.894v142.22c0 16.57 13.43 30 30 30zm182.46 188.573h67.204v-172.22h-97.204v142.22c0 16.57 13.43 30 30 30zm17.602 188.573h49.602V826.22h-79.602v142.22c0 16.57 13.43 30 30 30z" fill="url(#B)"/><g fill="#fff"><path d="M465.24 312.92h-4.64v16.38c0 .756-.56 1.176-1.176 1.176-.588 0-1.204-.42-1.204-1.176v-16.38h-4.592a1.18 1.18 0 0 1-1.231-1.204c0-.56.42-1.176 1.203-1.176h11.648c.784 0 1.204.616 1.204 1.176 0 .588-.42 1.204-1.204 1.204zM482 330.503c-.308 0-.672-.168-.924-.504l-5.824-8.148h-3.6v7.42c0 .784-.588 1.204-1.232 1.204-.588 0-1.176-.42-1.176-1.176v-17.556c0-.504.336-1.204 1.176-1.204h7.252c2.464 0 5.628 1.932 5.628 5.628 0 2.94-2.212 5.404-5.15 5.656l4.9 6.748a1.1 1.1 0 0 1 .252.728c0 .672-.644 1.204-1.288 1.204zm-4.368-17.584h-6v6.552h5.964c1.82 0 3.275-1.484 3.275-3.304 0-1.904-1.624-3.248-3.248-3.248zm23.642 17.556c-.42 0-.84-.224-1.063-.728l-1.484-3.64h-9.324l-1.512 3.64c-.224.504-.644.728-1.036.728-.615 0-1.26-.476-1.26-1.176a.92.92 0 0 1 .112-.476l7.195-17.5c.337-.728.784-.868 1.148-.868.252 0 .868.14 1.148.868l7.224 17.5c.056.14.084.308.084.476 0 .7-.588 1.176-1.232 1.176zm-7.224-15.68l-3.668 8.904h7.336l-3.668-8.904z"/><use xlink:href="#D"/><use xlink:href="#E"/><path d="M543.498 312.92h-4.647v16.38c0 .756-.56 1.176-1.176 1.176-.588 0-1.204-.42-1.204-1.176v-16.38h-4.592a1.18 1.18 0 0 1-1.232-1.204c0-.56.42-1.176 1.204-1.176h11.647c.784 0 1.204.616 1.204 1.176 0 .588-.42 1.204-1.204 1.204z"/><use xlink:href="#E" x="23.324"/><path d="M563.406 330.95c-6.02 0-8.148-4.984-8.148-10.444 0-5.488 2.13-10.472 8.148-10.472 5.992 0 8.148 4.984 8.148 10.472 0 5.46-2.156 10.444-8.148 10.444zm0-18.508c-3.976 0-5.74 2.94-5.74 8.064s1.765 8.064 5.74 8.064c3.948 0 5.74-2.94 5.74-8.064s-1.792-8.064-5.74-8.064z"/><use xlink:href="#F"/><use xlink:href="#G"/><path d="M622.177 330.475h-8.513c-.672 0-1.23-.532-1.23-1.176v-17.556c0-.812.644-1.204 1.176-1.204.616 0 1.232.392 1.232 1.176v16.38h7.336c.644 0 1.176.532 1.176 1.176a1.19 1.19 0 0 1-1.176 1.204zm-180.19 26h-3.22c-.756 0-1.176-.588-1.176-1.176 0-.644.42-1.204 1.176-1.204h.42V338.92h-.42c-.756 0-1.176-.588-1.176-1.176 0-.644.42-1.204 1.176-1.204h3.22c.812 0 1.23.56 1.23 1.204 0 .588-.42 1.176-1.23 1.176h-.42v15.176h.42c.812 0 1.23.56 1.23 1.204 0 .588-.42 1.176-1.23 1.176zm17.61 0c-.364 0-.756-.196-1.008-.616l-9.408-14.14v13.552c0 .784-.588 1.204-1.23 1.204-.588 0-1.177-.42-1.177-1.176v-17.556c0-.784.616-1.204 1.232-1.204.392 0 .728.168 1.008.588l9.408 14.14v-13.524c0-.812.588-1.204 1.176-1.204.645 0 1.232.392 1.232 1.176v17.556c0 .756-.616 1.204-1.232 1.204zm19.683-2.575c-1.372 1.904-3.332 3.052-6.244 3.052-6.02 0-8.147-4.984-8.147-10.444 0-5.488 2.128-10.472 8.147-10.472 2.828 0 4.9 1.12 6.217 3.052a1.08 1.08 0 0 1 .252.7c0 .672-.588 1.176-1.232 1.176-.364 0-.7-.168-.952-.504-.868-1.26-2.155-2.016-4.284-2.016-3.976 0-5.74 2.94-5.74 8.064s1.764 8.064 5.74 8.064c2.13 0 3.416-.812 4.284-2.044.252-.364.588-.532.952-.532.645 0 1.26.532 1.26 1.204 0 .224-.084.448-.252.7z"/><use xlink:href="#G" x="-111.183" y="26"/><use xlink:href="#F" x="-74.353" y="26"/><use xlink:href="#D" x="14.434" y="26"/><path d="M551.492 356.475h-11.647c-.672 0-1.232-.532-1.232-1.176v-17.556c0-.672.56-1.204 1.232-1.204h11.647c.73 0 1.177.532 1.177 1.176 0 .588-.42 1.204-1.177 1.204H541.02v5.656h7.336c.7 0 1.204.56 1.204 1.204s-.476 1.204-1.204 1.204h-7.336v7.112h10.472c.757 0 1.177.588 1.177 1.204 0 .644-.448 1.176-1.177 1.176zm10.752.475c-2.044 0-4.9-.84-6.496-2.324a1.12 1.12 0 0 1-.392-.868c0-.644.532-1.204 1.204-1.204.42 0 .56.14 1.063.532 1.372 1.036 2.996 1.484 4.62 1.484 3.332 0 4.788-1.204 4.788-3.276 0-5.824-11.172-2.52-11.172-10.136 0-3.416 2.884-5.124 6.58-5.124 1.932 0 4.704.756 6.076 2.38.224.252.308.504.308.756 0 .672-.616 1.26-1.204 1.26-.42 0-.644-.196-1.12-.616-1.12-.952-2.548-1.372-4.06-1.372-3.024 0-4.172 1.204-4.172 2.716 0 5.236 11.172 2.128 11.172 10.136 0 4.172-3.5 5.656-7.196 5.656zm24.444-3.05c-1.372 1.904-3.332 3.052-6.244 3.052-6.02 0-8.148-4.984-8.148-10.444 0-5.488 2.13-10.472 8.148-10.472 2.828 0 4.9 1.12 6.216 3.052.196.252.252.476.252.7 0 .672-.588 1.176-1.23 1.176-.364 0-.7-.168-.952-.504-.868-1.26-2.156-2.016-4.284-2.016-3.976 0-5.74 2.94-5.74 8.064s1.765 8.064 5.74 8.064c2.128 0 3.416-.812 4.284-2.044.252-.364.588-.532.952-.532.644 0 1.26.532 1.26 1.204 0 .224-.084.448-.252.7zm16.632 2.575h-11.65c-.672 0-1.232-.532-1.232-1.176v-17.556c0-.672.56-1.204 1.232-1.204h11.647c.73 0 1.177.532 1.177 1.176 0 .588-.42 1.204-1.177 1.204h-10.472v5.656h7.336c.7 0 1.204.56 1.204 1.204s-.476 1.204-1.204 1.204h-7.336v7.112h10.472c.757 0 1.177.588 1.177 1.204 0 .644-.448 1.176-1.177 1.176z"/><use xlink:href="#F" x="32.772" y="26"/><path d="M638.067 338.92h-4.648v16.38c0 .756-.56 1.176-1.176 1.176-.588 0-1.204-.42-1.204-1.176v-16.38h-4.592a1.18 1.18 0 0 1-1.231-1.204c0-.56.42-1.176 1.203-1.176h11.648c.784 0 1.204.616 1.204 1.176 0 .588-.42 1.204-1.204 1.204zm-123.27 43.555h-7.532c-.644 0-1.232-.588-1.232-1.176v-17.556c0-.672.504-1.204 1.177-1.204h6.943c2.856 0 5.236 2.352 5.236 5.18a5.04 5.04 0 0 1-1.596 3.724c1.792 1.008 2.94 2.912 2.94 5.096 0 3.248-2.687 5.936-5.936 5.936zm-.645-17.556h-5.712v5.656h5.712c1.792 0 2.828-1.512 2.828-2.828a2.84 2.84 0 0 0-2.828-2.828zm.645 8.036h-6.356v7.14h6.356c1.903 0 3.527-1.652 3.527-3.556 0-1.96-1.624-3.584-3.527-3.584zM531 382.98c-3.837 0-7.028-3.08-7.028-7.028v-12.236c0-.784.588-1.176 1.204-1.176s1.204.392 1.204 1.176v12.236A4.63 4.63 0 0 0 531 380.6c2.55 0 4.647-2.072 4.647-4.648v-12.208c0-.812.56-1.204 1.176-1.204.645 0 1.204.392 1.204 1.176v12.236c0 3.836-3.08 7.028-7.027 7.028z"/><use xlink:href="#H"/><path d="M565.225 382.475h-7.532c-.644 0-1.23-.588-1.23-1.176v-17.556c0-.672.504-1.204 1.176-1.204h6.944c2.855 0 5.235 2.352 5.235 5.18a5.04 5.04 0 0 1-1.596 3.724c1.792 1.008 2.94 2.912 2.94 5.096a5.98 5.98 0 0 1-5.937 5.936zm-.644-17.556h-5.712v5.656h5.712c1.792 0 2.828-1.512 2.828-2.828a2.84 2.84 0 0 0-2.828-2.828zm.644 8.036h-6.355v7.14h6.355c1.904 0 3.528-1.652 3.528-3.556 0-1.96-1.624-3.584-3.528-3.584zm-120.51 160.093H433.07c-.672 0-1.23-.532-1.23-1.176v-17.556c0-.672.56-1.204 1.23-1.204h11.647c.73 0 1.177.532 1.177 1.176 0 .588-.42 1.204-1.177 1.204h-10.47v5.656h7.336c.7 0 1.203.56 1.203 1.204s-.476 1.203-1.203 1.203h-7.336v7.112h10.47c.757 0 1.177.588 1.177 1.204 0 .644-.448 1.176-1.177 1.176z"/><use xlink:href="#I"/><path d="M481.256 533.048H469.6c-.672 0-1.232-.532-1.232-1.176v-17.556c0-.672.56-1.204 1.232-1.204h11.647a1.13 1.13 0 0 1 1.177 1.176c0 .588-.42 1.204-1.177 1.204h-10.472v5.656h7.336c.7 0 1.204.56 1.204 1.204s-.476 1.203-1.204 1.203h-7.336v7.112h10.472c.757 0 1.177.588 1.177 1.204a1.13 1.13 0 0 1-1.177 1.176zm17.836.028c-.308 0-.672-.168-.924-.504l-5.824-8.148h-3.612v7.42c0 .784-.588 1.204-1.23 1.204-.6 0-1.177-.42-1.177-1.176v-17.556c0-.504.336-1.204 1.177-1.204h7.252c2.464 0 5.628 1.932 5.628 5.628 0 2.94-2.212 5.404-5.152 5.656l4.9 6.748a1.1 1.1 0 0 1 .252.728c0 .672-.645 1.204-1.288 1.204zm-4.368-17.584h-5.992v6.552h5.965c1.82 0 3.275-1.483 3.275-3.304 0-1.904-1.624-3.248-3.248-3.248zm17.22 18.032c-6.16 0-8.147-5.18-8.147-10.444 0-5.404 2.128-10.472 8.147-10.472 2.548 0 4.677.896 6.216 3.052.168.224.252.476.252.7 0 .672-.7 1.204-1.344 1.204-.504 0-.56-.225-1.008-.73-.896-1.092-2.1-1.82-4.116-1.82-4.312 0-5.74 3.668-5.74 8.063 0 3.836 1.035 8.064 5.74 8.064 3.416 0 5.46-2.437 5.656-6.47h-2.52c-.812 0-1.23-.588-1.23-1.204s.42-1.203 1.176-1.203h3.836a1.17 1.17 0 0 1 1.23 1.23c-.1 5.236-2.2 10.024-8.147 10.024zm24.388-18.648l-5.543 10.332v6.636c0 .784-.588 1.204-1.232 1.204-.588 0-1.176-.392-1.176-1.176v-6.664l-5.545-10.36a1.07 1.07 0 0 1-.168-.589c0-.672.645-1.203 1.26-1.203.364 0 .756.195 1.008.672l4.62 8.624 4.676-8.624a1.13 1.13 0 0 1 1.008-.616c.645 0 1.26.504 1.26 1.176a.99.99 0 0 1-.168.588zm12.124 10.248h-8.008c-.784 0-1.204-.56-1.204-1.176a1.14 1.14 0 0 1 1.204-1.204h8.008c.757 0 1.177.56 1.177 1.204 0 .616-.42 1.176-1.177 1.176zm10.752 8.4c-2.044 0-4.9-.84-6.496-2.324a1.12 1.12 0 0 1-.392-.868c0-.644.53-1.204 1.203-1.204.42 0 .56.14 1.064.532 1.372 1.036 2.996 1.484 4.62 1.484 3.332 0 4.788-1.204 4.788-3.276 0-5.824-11.172-2.52-11.172-10.136 0-3.416 2.884-5.124 6.58-5.124 1.932 0 4.703.756 6.076 2.38.224.252.308.504.308.756 0 .672-.616 1.26-1.204 1.26-.42 0-.645-.195-1.12-.616-1.12-.95-2.548-1.37-4.06-1.37-3.024 0-4.172 1.203-4.172 2.716 0 5.235 11.172 2.128 11.172 10.136 0 4.172-3.5 5.656-7.196 5.656z"/><use xlink:href="#J"/><path d="M599.187 514.68l-5.88 17.415c-.197.6-.645.952-1.205.952-.504 0-.95-.363-1.176-.952l-5.908-17.415c-.056-.14-.056-.3-.056-.42 0-.728.616-1.147 1.204-1.147a1.17 1.17 0 0 1 1.12.812l4.815 14.196 4.844-14.196c.168-.56.645-.812 1.093-.812.616 0 1.26.42 1.26 1.147a.86.86 0 0 1-.112.42zm6.663 18.368h-3.22c-.756 0-1.176-.588-1.176-1.176 0-.644.42-1.204 1.176-1.204h.42v-15.176h-.42c-.756 0-1.176-.588-1.176-1.176 0-.645.42-1.204 1.176-1.204h3.22c.813 0 1.232.56 1.232 1.204 0 .588-.42 1.176-1.232 1.176h-.42v15.176h.42c.813 0 1.232.56 1.232 1.204 0 .588-.42 1.176-1.232 1.176z"/><use xlink:href="#K"/><path d="M636.902 533.524c-6.16 0-8.147-5.18-8.147-10.444 0-5.404 2.128-10.472 8.147-10.472 2.55 0 4.677.896 6.217 3.052.168.224.252.476.252.7 0 .672-.7 1.204-1.344 1.204-.504 0-.56-.225-1.008-.73-.896-1.092-2.1-1.82-4.117-1.82-4.3 0-5.74 3.668-5.74 8.063 0 3.836 1.036 8.064 5.74 8.064 3.416 0 5.46-2.437 5.656-6.47h-2.52c-.812 0-1.232-.588-1.232-1.204s.42-1.203 1.176-1.203h3.836a1.17 1.17 0 0 1 1.232 1.23c-.1 5.236-2.212 10.024-8.148 10.024zm-194.916 25.524h-3.22c-.756 0-1.176-.588-1.176-1.176 0-.644.42-1.204 1.176-1.204h.42v-15.176h-.42c-.756 0-1.176-.588-1.176-1.176 0-.645.42-1.204 1.176-1.204h3.22c.812 0 1.23.56 1.23 1.204 0 .588-.42 1.176-1.23 1.176h-.42v15.176h.42c.812 0 1.23.56 1.23 1.204 0 .588-.42 1.176-1.23 1.176z"/><use xlink:href="#I" x="-3.013" y="26"/><path d="M479.28 556.472c-1.372 1.904-3.332 3.053-6.244 3.053-6.02 0-8.148-4.984-8.148-10.444 0-5.488 2.13-10.472 8.148-10.472 2.828 0 4.9 1.12 6.217 3.052a1.08 1.08 0 0 1 .252.7c0 .672-.588 1.176-1.232 1.176-.364 0-.7-.168-.952-.504-.868-1.26-2.155-2.016-4.284-2.016-3.976 0-5.74 2.94-5.74 8.063s1.765 8.064 5.74 8.064c2.13 0 3.416-.812 4.284-2.044.252-.364.588-.532.952-.532.645 0 1.26.532 1.26 1.204 0 .224-.084.447-.252.7z"/><use xlink:href="#J" x="-86.703" y="26"/><use xlink:href="#K" x="-109.378" y="26"/><path d="M526.88 559.048h-5.797c-.643 0-1.23-.588-1.23-1.176v-17.556c0-.645.6-1.204 1.23-1.204h5.797c5.768 0 7.672 4.76 7.672 9.94 0 5.208-1.904 9.996-7.672 9.996zm0-17.556h-4.62v15.176h4.62c3.6 0 5.264-2.66 5.264-7.616 0-4.872-1.652-7.56-5.264-7.56zm24.612 17.556h-11.648c-.672 0-1.23-.532-1.23-1.176v-17.556c0-.672.56-1.204 1.23-1.204h11.648c.73 0 1.176.532 1.176 1.176 0 .588-.42 1.204-1.176 1.204H541.02v5.656h7.336c.7 0 1.204.56 1.204 1.204s-.477 1.203-1.204 1.203h-7.336v7.112h10.472c.756 0 1.176.588 1.176 1.204 0 .644-.447 1.176-1.176 1.176zm10.752.476c-2.044 0-4.9-.84-6.496-2.324a1.12 1.12 0 0 1-.393-.868c0-.644.533-1.204 1.205-1.204.42 0 .56.14 1.063.532 1.372 1.036 2.996 1.484 4.62 1.484 3.332 0 4.788-1.204 4.788-3.276 0-5.824-11.172-2.52-11.172-10.136 0-3.416 2.884-5.124 6.58-5.124 1.933 0 4.705.756 6.076 2.38.225.252.3.504.3.756 0 .672-.616 1.26-1.204 1.26-.42 0-.644-.195-1.12-.616-1.12-.95-2.548-1.37-4.06-1.37-3.023 0-4.172 1.203-4.172 2.716 0 5.235 11.172 2.128 11.172 10.136 0 4.172-3.5 5.656-7.195 5.656zm24.443-3.052c-1.37 1.904-3.332 3.053-6.244 3.053-6.02 0-8.147-4.984-8.147-10.444 0-5.488 2.128-10.472 8.147-10.472 2.828 0 4.9 1.12 6.217 3.052a1.08 1.08 0 0 1 .252.7c0 .672-.588 1.176-1.232 1.176-.363 0-.7-.168-.95-.504-.87-1.26-2.156-2.016-4.285-2.016-3.975 0-5.74 2.94-5.74 8.063s1.765 8.064 5.74 8.064c2.13 0 3.416-.812 4.285-2.044.252-.364.588-.532.95-.532.645 0 1.26.532 1.26 1.204 0 .224-.084.447-.252.7zm16.633 2.576h-11.65c-.672 0-1.232-.532-1.232-1.176v-17.556c0-.672.56-1.204 1.232-1.204h11.647a1.13 1.13 0 0 1 1.177 1.176c0 .588-.42 1.204-1.177 1.204h-10.472v5.656h7.336c.7 0 1.204.56 1.204 1.204s-.476 1.203-1.204 1.203h-7.336v7.112h10.472c.757 0 1.177.588 1.177 1.204a1.13 1.13 0 0 1-1.177 1.176z"/><use xlink:href="#K" x="-2.252" y="26"/><path d="M638.066 541.492h-4.647v16.38c0 .756-.56 1.176-1.176 1.176-.588 0-1.204-.42-1.204-1.176v-16.38h-4.592a1.18 1.18 0 0 1-1.232-1.204c0-.56.42-1.176 1.204-1.176h11.647c.785 0 1.205.616 1.205 1.176 0 .588-.42 1.204-1.205 1.204zM457.482 704.065h-10.47v5.656h7.336c.7 0 1.203.56 1.203 1.204s-.476 1.204-1.203 1.204h-7.336v8.316c0 .644-.56 1.176-1.177 1.176-.672 0-1.23-.532-1.23-1.176V702.9c0-.672.56-1.204 1.23-1.204h11.647a1.13 1.13 0 0 1 1.177 1.177c0 .588-.42 1.203-1.177 1.203zm14.672 17.557h-8.512c-.672 0-1.232-.532-1.232-1.176V702.9c0-.812.645-1.204 1.177-1.204.616 0 1.23.393 1.23 1.177v16.38h7.336a1.18 1.18 0 0 1 1.176 1.176c0 .672-.53 1.204-1.176 1.204zm11.144.504c-3.836 0-7.028-3.08-7.028-7.028v-12.235c0-.784.588-1.177 1.204-1.177s1.204.393 1.204 1.177v12.235a4.63 4.63 0 0 0 4.62 4.648c2.55 0 4.648-2.072 4.648-4.648V702.9c0-.812.56-1.204 1.176-1.204.644 0 1.203.393 1.203 1.177v12.235c0 3.836-3.08 7.028-7.027 7.028zm19.096-.028c-6.02 0-8.148-4.983-8.148-10.443 0-5.488 2.13-10.473 8.148-10.473 5.992 0 8.148 4.984 8.148 10.473 0 5.46-2.156 10.443-8.148 10.443zm0-18.508c-3.977 0-5.74 2.94-5.74 8.064s1.764 8.063 5.74 8.063c3.947 0 5.74-2.94 5.74-8.063s-1.793-8.064-5.74-8.064zm24.976 18.06c-.308 0-.672-.168-.924-.504L520.622 713H517v7.42c0 .784-.588 1.204-1.23 1.204-.6 0-1.177-.42-1.177-1.176V702.9c0-.504.336-1.204 1.177-1.204h7.252c2.464 0 5.628 1.933 5.628 5.628 0 2.94-2.212 5.404-5.152 5.656l4.9 6.748a1.1 1.1 0 0 1 .252.729c0 .672-.645 1.203-1.288 1.203zm-4.368-17.584H517v6.553h5.965c1.82 0 3.275-1.484 3.275-3.305 0-1.903-1.624-3.248-3.248-3.248zm22.428 17.556h-11.647c-.672 0-1.23-.532-1.23-1.176V702.9c0-.672.56-1.204 1.23-1.204h11.647a1.13 1.13 0 0 1 1.177 1.177c0 .588-.42 1.203-1.177 1.203h-10.47v5.656h7.336c.7 0 1.203.56 1.203 1.204s-.476 1.204-1.203 1.204h-7.336v7.112h10.47c.757 0 1.177.588 1.177 1.204 0 .644-.448 1.176-1.177 1.176zm10.75.476c-2.043 0-4.9-.84-6.496-2.324a1.12 1.12 0 0 1-.391-.867 1.21 1.21 0 0 1 1.203-1.204c.42 0 .56.14 1.064.53 1.37 1.036 2.996 1.484 4.62 1.484 3.332 0 4.8-1.204 4.8-3.276 0-5.823-11.172-2.52-11.172-10.136 0-3.416 2.883-5.124 6.58-5.124 1.933 0 4.704.756 6.076 2.38.224.252.308.504.308.757 0 .672-.615 1.26-1.203 1.26-.42 0-.645-.196-1.12-.616-1.12-.952-2.547-1.372-4.06-1.372-3.024 0-4.172 1.204-4.172 2.716 0 5.236 11.172 2.128 11.172 10.136 0 4.173-3.5 5.656-7.196 5.656zm24.446-3.052c-1.372 1.904-3.332 3.052-6.244 3.052-6.02 0-8.147-4.983-8.147-10.443 0-5.488 2.128-10.473 8.147-10.473 2.828 0 4.9 1.12 6.216 3.053.196.252.252.476.252.7 0 .672-.588 1.177-1.23 1.177-.364 0-.7-.17-.952-.505-.868-1.26-2.156-2.016-4.284-2.016-3.976 0-5.74 2.94-5.74 8.064s1.764 8.063 5.74 8.063c2.128 0 3.416-.812 4.284-2.044.252-.364.588-.532.952-.532.644 0 1.26.532 1.26 1.204 0 .225-.084.448-.252.7zm16.63 2.576H585.6c-.672 0-1.232-.532-1.232-1.176V702.9c0-.672.56-1.204 1.232-1.204h11.648c.728 0 1.176.532 1.176 1.177 0 .588-.42 1.203-1.176 1.203h-10.473v5.656h7.336c.7 0 1.205.56 1.205 1.204s-.477 1.204-1.205 1.204h-7.336v7.112h10.473c.756 0 1.176.588 1.176 1.204 0 .644-.448 1.176-1.176 1.176zm17.893 0c-.364 0-.757-.196-1-.616l-9.407-14.14v13.552c0 .784-.588 1.204-1.23 1.204-.588 0-1.177-.42-1.177-1.176V702.9c0-.784.616-1.204 1.23-1.204.393 0 .73.168 1 .588l9.407 14.14V702.9c0-.812.588-1.204 1.177-1.204.644 0 1.23.393 1.23 1.177v17.556c0 .756-.615 1.204-1.23 1.204zm16.854-17.557h-4.647v16.38c0 .756-.56 1.176-1.176 1.176-.588 0-1.205-.42-1.205-1.176v-16.38h-4.592a1.18 1.18 0 0 1-1.231-1.203 1.17 1.17 0 0 1 1.204-1.177h11.647c.784 0 1.204.616 1.204 1.177 0 .588-.42 1.203-1.204 1.203zm-118.116 43.557h-8.513c-.672 0-1.23-.532-1.23-1.176V728.9c0-.812.644-1.204 1.176-1.204.615 0 1.232.393 1.232 1.177v16.38h7.336c.644 0 1.176.53 1.176 1.176a1.19 1.19 0 0 1-1.176 1.204zm18.367 0c-.42 0-.84-.225-1.064-.73l-1.483-3.64h-9.324l-1.512 3.64c-.224.504-.644.73-1.036.73-.615 0-1.26-.477-1.26-1.176 0-.17.027-.337.1-.477l7.196-17.5c.337-.728.784-.868 1.147-.868.253 0 .87.14 1.148.868l7.225 17.5a1.31 1.31 0 0 1 .084.477c0 .7-.588 1.176-1.232 1.176zm-7.225-15.68l-3.668 8.904h7.337l-3.67-8.904zm28.03 15.708a1.15 1.15 0 0 1-1.177-1.203v-12.88l-5.432 10.137c-.363.7-.896.756-1.12.756-.14 0-.73-.057-1.12-.756l-5.403-10.08v12.824c0 .783-.588 1.203-1.23 1.203a1.15 1.15 0 0 1-1.177-1.203v-17.5c0-.925.644-1.26 1.288-1.26.42 0 .756.196 1.008.7l6.637 12.348 6.664-12.348c.28-.56.615-.7 1.092-.7.615 0 1.203.393 1.203 1.26v17.5c0 .783-.588 1.203-1.23 1.203zm14.166-8.652h-6v7.42a1.17 1.17 0 0 1-1.177 1.204c-.672 0-1.23-.448-1.23-1.176V728.9c0-.504.336-1.204 1.177-1.204h7.252c2.463 0 5.627 1.933 5.627 5.628 0 3.164-2.52 5.685-5.656 5.685zm0-8.933h-6v6.553h5.964a3.26 3.26 0 0 0 3.275-3.276c0-1.82-1.455-3.276-3.248-3.276z"/><use xlink:href="#H" x="-27.495" y="539.719"/><path d="M541.846 922.194h-11.648c-.672 0-1.23-.532-1.23-1.176v-17.556c0-.672.56-1.204 1.23-1.204h11.648c.728 0 1.176.532 1.176 1.176 0 .588-.42 1.204-1.176 1.204h-10.472v5.656h7.336c.7 0 1.204.56 1.204 1.204s-.477 1.203-1.204 1.203h-7.336v7.112h10.472c.756 0 1.176.588 1.176 1.204 0 .644-.448 1.176-1.176 1.176zm12.096 0h-5.796c-.644 0-1.232-.588-1.232-1.176v-17.556c0-.645.6-1.204 1.232-1.204h5.796c5.768 0 7.672 4.76 7.672 9.94 0 5.208-1.904 9.996-7.672 9.996zm0-17.556h-4.62v15.176h4.62c3.612 0 5.264-2.66 5.264-7.616 0-4.872-1.65-7.56-5.264-7.56z"/></g><g opacity=".6" class="U"><use xlink:href="#L"/><use xlink:href="#M"/><path d="M1024.274 927.002c-.094 1.813-1.03 2.78-2.813 2.906-1.75-.125-2.687-1.094-2.812-2.906.125-1.78 1.063-2.734 2.813-2.86 1.78.125 2.72 1.078 2.813 2.86v-.047.047zm6.754-1.688c-.03.313.1.453.422.422h13.688c.344-.062.484.078.422.422v2.53c.063.344-.078.5-.422.47h-17.203c-.344.03-.484-.125-.422-.47V926.1c.156-4.22 1.375-7.422 3.656-9.6s4.547-4.155 6.797-5.906c2.28-1.718 3.516-3.968 3.703-6.75-.03-1.687-.5-3.062-1.406-4.125-.906-1.094-2.172-1.656-3.797-1.687-1.78.03-3.156.626-4.125 1.78s-1.484 2.563-1.547 4.22c.03.438-.14.626-.516.563h-2.53c-.344.063-.484-.077-.422-.422.125-2.562 1.016-4.765 2.672-6.6 1.625-1.844 3.797-2.796 6.516-2.86 2.53.03 4.6.9 6.234 2.578 1.625 1.657 2.47 3.797 2.53 6.422-.187 3.406-1.406 6.047-3.656 7.922l-6.797 5.672c-2.28 1.875-3.547 4.547-3.797 8.016v-.047.047z"/></g><g opacity=".6" class="U"><use xlink:href="#N"/><use xlink:href="#L" x="-169.052" y="-188.573"/><use xlink:href="#O"/><path d="M854.8 711.43c-2.844 4.78-4.937 9.485-6.28 14.11s-2.125 9.53-2.344 14.72c.063.406-.094.578-.47.516h-2.672c-.344-.03-.484-.203-.422-.516.22-4.906 1.094-9.875 2.625-14.906a61.97 61.97 0 0 1 6.422-14.437c.28-.437.266-.656-.047-.656h-14.437c-.344.063-.484-.094-.422-.47v-2.484c-.062-.344.078-.484.422-.422h17.39c.344-.062.484.078.422.422v3.47l-.187.656v-.047.047z"/></g><g opacity=".6" class="U"><use xlink:href="#M" x="-291.286" y="-377.146"/><use xlink:href="#O" x="-101.138" y="-188.575"/><use xlink:href="#N" x="-50.314" y="-188.575"/></g><g opacity=".6" class="U"><path d="M684.376 329.03l.563-.422h3.328c.344 0 .5.157.47.47v29.625c-.062.344.078.5.422.47h6.094c.344-.062.484.078.422.422v2.297c.03.344-.11.484-.422.422h-16.594c-.344.063-.5-.078-.47-.422v-2.297c-.03-.344.125-.484.47-.422h6.328c.313.03.453-.125.422-.47V333.72c-.03-.375-.187-.406-.47-.094-1.47 1.375-3.61 2.625-6.422 3.75-.25.125-.39.047-.422-.234v-2.39c0-.187.11-.328.328-.422 2.656-1.125 4.64-2.9 5.953-5.297v-.047.047z"/><use xlink:href="#O" x="-130.058" y="-378.274"/><path d="M721.696 350.97c-.03.344.11.5.422.47h2.86c.344-.062.484.078.422.422v2.297c.063.344-.078.5-.422.47h-2.86c-.312-.062-.453.078-.422.422v6.75c.063.406-.078.578-.422.516h-2.39c-.312.063-.453-.11-.422-.516v-6.75c.063-.344-.078-.484-.422-.422h-10.875c-.312.03-.453-.125-.422-.47v-2.953l.188-.797 9.984-21.422c.094-.25.313-.375.656-.375h3.703c.344-.03.484.125.422.47v21.89zm-11.766 0c-.187.344-.094.5.28.47h7.828c.344.03.484-.125.422-.47v-17.53c-.062-.375-.187-.406-.375-.094l-8.156 17.625z"/></g><g fill="#fff"><path d="M72 350.97c-.03.344.11.5.422.47h2.86c.344-.062.484.078.422.422v2.297c.063.344-.078.5-.422.47h-2.86c-.312-.062-.453.078-.422.422v6.75c.063.406-.078.578-.422.516h-2.39c-.312.063-.453-.11-.422-.516v-6.75c.063-.344-.078-.484-.422-.422H57.468c-.312.03-.453-.125-.422-.47v-2.953l.188-.797 9.984-21.422c.094-.25.313-.375.656-.375h3.703c.344-.03.484.125.422.47v21.89zm-11.766 0c-.187.344-.094.5.28.47h7.828c.344.03.484-.125.422-.47v-17.53c-.062-.375-.187-.406-.375-.094l-8.156 17.625z"/><use xlink:href="#O" x="-750.028" y="-378.274"/><path d="M102.336 330.625c1.624 1.688 2.468 3.828 2.53 6.422-.187 3.875-1.53 6.438-4.03 7.688-.157.125-.14.28.047.47 3.094 1.78 4.624 4.53 4.594 8.25-.063 2.875-.954 5.188-2.672 6.938-1.75 1.75-3.954 2.656-6.6 2.72-2.656-.062-4.845-.97-6.562-2.72s-2.6-4.062-2.672-6.937c-.03-3.72 1.5-6.47 4.594-8.25.188-.187.203-.344.047-.47-2.5-1.25-3.844-3.812-4.03-7.687.063-2.594.906-4.734 2.53-6.422 1.594-1.718 3.625-2.6 6.094-2.672 2.5.063 4.547.954 6.14 2.672zm-6.14 29.344c1.78-.03 3.203-.64 4.266-1.828 1.062-1.156 1.594-2.703 1.594-4.64 0-2.093-.516-3.766-1.547-5.016-1.03-1.28-2.47-1.937-4.312-1.97-1.812.03-3.234.688-4.266 1.97-1.03 1.25-1.547 2.922-1.547 5.016 0 1.938.53 3.484 1.594 4.64 1.062 1.187 2.468 1.797 4.22 1.828v-.047.047zm5.25-22.875c0-1.656-.47-3.062-1.406-4.22-.907-1.156-2.187-1.75-3.844-1.78-1.657.03-2.937.625-3.844 1.78s-1.36 2.563-1.36 4.22c.094 3.938 1.828 6.016 5.203 6.234 3.405-.218 5.156-2.297 5.25-6.234zM169.94 549.62c1.78-.062 3.203-.703 4.266-1.922s1.594-2.75 1.594-4.594c-.03-2.28-.656-4.062-1.875-5.344-1.25-1.25-2.876-1.875-4.875-1.875h-.562c-.312.03-.453-.125-.422-.47v-2.25c-.03-.344.1-.484.422-.422h.28c1.905-.03 3.438-.64 4.594-1.828 1.155-1.156 1.75-2.75 1.78-4.78-.187-3.312-1.812-5.062-4.875-5.25-1.282 0-2.4.422-3.328 1.266s-1.517 2.078-1.734 3.703c0 .438-.157.625-.47.563h-2.53c-.375.063-.516-.094-.422-.47.218-2.406 1.108-4.4 2.672-5.953 1.594-1.594 3.546-2.406 5.86-2.437 2.406.03 4.4.844 5.953 2.438s2.374 3.64 2.438 6.14c-.063 2.125-.594 3.813-1.594 5.063-.97 1.25-2.062 2.156-3.28 2.72-.25.156-.234.328.047.516 1.25.53 2.453 1.453 3.6 2.766 1.188 1.344 1.812 3.313 1.875 5.906-.063 2.688-.97 4.984-2.72 6.9-1.78 1.875-4.03 2.86-6.75 2.953-2.47-.03-4.563-.844-6.28-2.437-1.75-1.625-2.703-3.9-2.86-6.797-.063-.187.077-.312.422-.375h2.53c.344-.062.516.125.516.563.28 3.656 2.187 5.563 5.72 5.72v-.047.047z"/><use xlink:href="#P"/><path d="M194.37 544.324c.25 3.375 2.125 5.14 5.625 5.297 1.624 0 2.953-.53 3.984-1.594 1-1.062 1.516-2.547 1.547-4.453v-4.266c0-1.687-.453-3.062-1.36-4.125-.937-1.094-2.25-1.656-3.937-1.687-2.032.063-3.58.594-4.64 1.594-.157.22-.36.297-.6.234h-2.297c-.345.063-.485-.078-.422-.422v-16.078c-.063-.344.077-.484.422-.422h14.625c.344-.062.484.078.422.422v2.4c.063.344-.078.5-.422.47H195.87c-.312-.062-.453.078-.422.422v9.28c0 .28.14.344.422.188 1.25-.687 2.796-1.047 4.64-1.078 2.53.03 4.563.828 6.094 2.4 1.563 1.563 2.36 3.703 2.4 6.422v4.266c-.063 2.813-.954 5.047-2.672 6.703s-3.875 2.516-6.47 2.578c-2.625-.062-4.72-.9-6.28-2.484-1.594-1.594-2.454-3.656-2.578-6.187-.063-.312.077-.453.422-.422h2.438c.344-.03.516.156.516.563v-.047.047zm156.4 162.98l.563-.422h3.328c.344 0 .5.156.47.47v29.625c-.063.344.077.5.422.47h6.094c.344-.062.484.078.422.422v2.297c.03.344-.1.484-.422.422H345.04c-.345.063-.5-.078-.47-.422v-2.297c-.03-.344.124-.484.47-.422h6.328c.312.03.452-.125.422-.47v-24.984c-.03-.375-.187-.406-.47-.094-1.47 1.375-3.6 2.625-6.422 3.75-.25.125-.392.047-.422-.234v-2.4c0-.187.1-.328.328-.422 2.655-1.125 4.64-2.9 5.953-5.297v-.047.047z"/><use xlink:href="#P" x="182.458" y="188.575"/><path d="M377.204 736.742c-.03.313.1.453.422.422h13.688c.344-.062.484.078.422.422v2.53c.063.344-.078.5-.422.47H374.1c-.345.03-.485-.125-.422-.47v-2.578c.156-4.22 1.375-7.422 3.656-9.6s4.547-4.156 6.797-5.906c2.28-1.72 3.516-3.97 3.703-6.75-.03-1.687-.5-3.062-1.406-4.125-.907-1.094-2.173-1.656-3.797-1.687-1.78.03-3.157.625-4.125 1.78s-1.484 2.563-1.547 4.22c.03.438-.14.625-.516.563h-2.53c-.345.063-.485-.078-.422-.422.124-2.562 1.015-4.766 2.672-6.6 1.624-1.844 3.797-2.797 6.516-2.86 2.53.03 4.6.9 6.234 2.578 1.624 1.656 2.468 3.797 2.53 6.422-.187 3.406-1.406 6.047-3.656 7.922L381 728.727c-2.28 1.875-3.547 4.547-3.797 8.016v-.047.047zm-6.844 159.135l.563-.422h3.328c.344 0 .5.156.47.47v29.625c-.063.344.077.5.422.47h6.094c.344-.062.484.078.422.422v2.297c.03.344-.1.484-.422.422H364.64c-.345.063-.5-.078-.47-.422v-2.297c-.03-.344.124-.484.47-.422h6.328c.312.03.452-.125.422-.47v-24.984c-.03-.375-.187-.406-.47-.094-1.47 1.375-3.6 2.625-6.422 3.75-.25.125-.392.047-.422-.234v-2.4c0-.187.1-.328.328-.422 2.655-1.125 4.64-2.9 5.953-5.297v-.047.047z"/></g><g class="U"><use xlink:href="#Q"/><path d="M700.214 221.896c-.53 0-1.102-.38-1.102-1.063v-1.216c-1.596 1.86-3.913 2.925-6.497 2.925-4.71 0-8.663-3.95-8.663-8.662v-11.095c0-.684.57-1.063 1.103-1.063.493 0 1.063.38 1.063 1.063v11.095a6.47 6.47 0 1 0 12.994 0v-11.095c0-.684.57-1.063 1.102-1.063.494 0 1.064.38 1.064 1.063v18.048c0 .684-.57 1.063-1.064 1.063z"/><use xlink:href="#R"/><use xlink:href="#Q" x="52.022"/><use xlink:href="#R" x="38.948"/><use xlink:href="#S"/><path d="M766.183 196.973h-1.178c-.912 0-1.672.76-1.672 1.633v3.116h2.85c.723 0 1.064.57 1.064 1.063 0 .532-.38 1.102-1.064 1.102h-2.85v16.946c0 .684-.53 1.063-1.063 1.063s-1.063-.342-1.063-1.063v-16.946h-2.622c-.684 0-1.063-.57-1.063-1.102 0-.494.38-1.063 1.063-1.063h2.622v-3.116a3.77 3.77 0 0 1 3.761-3.761h1.216c.685 0 1.103.53 1.103 1.102 0 .532-.38 1.026-1.103 1.026z"/><use xlink:href="#T"/><path d="M799.1 221.896h-1.178c-3 0-4.483-1.48-4.483-4.445v-13.564h-1.937c-.684 0-1.063-.57-1.063-1.102 0-.494.38-1.063 1.063-1.063h1.938v-5.813c0-.684.57-1.063 1.103-1.063s1.063.38 1.063 1.063v5.813h3.495c.685 0 1.064.57 1.064 1.063 0 .532-.38 1.102-1.064 1.102h-3.495v13.564c0 1.86.532 2.28 2.317 2.28h1.178c.685 0 1.064.57 1.064 1.103 0 .493-.38 1.063-1.064 1.063z"/><use xlink:href="#S" x="50.426"/><path d="M834.39 221.896c-.53 0-1.063-.38-1.063-1.063v-12.767c0-2.62-2.203-4.825-4.825-4.825s-4.863 2.204-4.863 4.787v12.805c0 .684-.532 1.063-1.063 1.063s-1.103-.38-1.103-1.063v-12.767c0-2.62-2.203-4.825-4.787-4.825-2.66 0-4.863 2.204-4.863 4.787v12.805c0 .684-.57 1.063-1.063 1.063-.532 0-1.103-.38-1.103-1.063v-18.048c0-.684.57-1.063 1.103-1.063.494 0 1.063.38 1.063 1.063v.23c1.254-1.216 2.964-1.938 4.825-1.938 2.432 0 4.598 1.216 5.928 3.23 1.254-1.937 3.42-3.23 5.89-3.23 3.95 0 7.03 3.116 7.03 6.953v12.805c0 .684-.57 1.063-1.103 1.063z"/><use xlink:href="#T" x="69.614"/><path d="M874.376 225.62c-.14 0-.28-.056-.448-.14-3.696-2.716-5.012-7.7-5.012-12.068 0-3.64 1.344-9.716 5.04-11.815.14-.056.28-.14.42-.14.447 0 .756.447.756.867 0 .616-.112.336-.98 1.12-2.716 2.437-3.64 6.44-3.64 9.968 0 3.248 1.12 8.708 4.256 10.725.28.195.42.42.42.672 0 .42-.364.812-.812.812zm15.764-17.472l-7.588 17.948c-.56 1.315-1.708 1.68-2.996 1.68h-1.232c-.504 0-.784-.42-.784-.812 0-.364.28-.784.784-.784h1.232c.616 0 1.26-.028 1.512-.672l1.596-3.8-5.796-13.552c-.056-.14-.056-.252-.056-.364 0-.447.392-.756.812-.756.252 0 .56.112.7.477l5.208 12.15 5.152-12.15c.14-.364.448-.477.728-.477.42 0 .784.3.784.756 0 .112 0 .225-.056.364zm14.08 7.112H892.6c.252 3.2 2.324 5.516 5.376 5.516 1.513 0 3.305-.672 4.116-1.932.196-.3.42-.393.672-.393.42 0 .868.336.868.757 0 .252 0 .308-.532.924-1.288 1.512-3.164 2.24-5.124 2.24-4.508 0-7.027-3.695-7.027-7.924 0-4.2 2.52-7.896 7.027-7.896s7.028 3.724 7.028 7.896c0 .42-.392.813-.784.813zm-6.244-7.112c-3.36 0-5.124 2.576-5.376 5.516h10.78c-.252-3.2-2.324-5.516-5.404-5.516zm24.416 13.748h-.028c-.924 0-2.24-.504-2.77-2.184-1.177 1.65-2.996 2.66-5.433 2.66-4.563 0-7.027-3.752-7.027-7.924 0-4.228 2.52-7.896 7.027-7.896 2.437 0 4.256 1.008 5.433 2.632v-1.372c0-.448.363-.784.812-.784.393 0 .784.28.784.784v11.284c0 1.792 2.016.672 2.016 2.016a.77.77 0 0 1-.812.784zm-8.232-13.748c-3.304 0-5.432 2.66-5.432 6.3s2.128 6.328 5.432 6.328c3.332 0 5.433-2.687 5.433-6.328s-2.1-6.3-5.433-6.3zm17.416.252c-2.632 0-4.788 2.128-4.788 4.788v7.924c0 .504-.42.784-.783.784-.393 0-.812-.28-.812-.784v-13.3c0-.504.42-.784.813-.784.363 0 .783.28.783.784v1.148c1.26-1.372 2.912-2.156 4.788-2.156a.81.81 0 0 1 .813.784c0 .392-.3.812-.812.812zm6.97 14.03c-1.68 0-4.508-.588-5.487-2.212-.112-.168-.112-.3-.112-.42 0-.448.392-.84.812-.84.168 0 .448.14.616.393 1.008 1.23 2.8 1.483 4.172 1.483 2.717 0 4.088-.896 4.088-2.716 0-4.228-9.184-1.987-9.184-7.588 0-2.828 2.828-3.92 5.376-3.92 1.456 0 3.696.504 4.816 1.624.168.168.252.364.252.532 0 .42-.42.84-.868.84a.74.74 0 0 1-.532-.224c-.868-.84-2.436-1.177-3.668-1.177-2.464 0-3.78.952-3.78 2.324 0 3.92 9.185 1.85 9.185 7.588 0 3.192-2.8 4.312-5.685 4.312zm8.85 3.05a.93.93 0 0 1-.448.14c-.42 0-.784-.392-.784-.812 0-.252.112-.532.364-.672 3.164-2.072 4.23-7.448 4.23-10.725 0-3.695-.98-8.203-4.2-10.416-.252-.195-.42-.42-.42-.672 0-.42.363-.867.812-.867.112 0 .28.084.393.14 3.695 2.072 5.012 8.176 5.012 11.815 0 4.368-1.288 9.324-4.956 12.068z" class="Q"/></g><g fill="#ffff1c"><path d="M178.4 222.504v6.23c0 .684-.57 1.102-1.102 1.102a1.07 1.07 0 0 1-1.064-1.102v-6.23c-2.773-.228-6.192-1.33-8.17-3.306-.266-.266-.342-.494-.342-.76a1.16 1.16 0 0 1 1.103-1.102c.455 0 .418.114 1.216.722 2.014 1.482 4.52 2.317 7.104 2.317 4.787 0 7.56-1.786 7.56-5.205 0-9.004-16.07-4-16.07-14.362 0-4.18 3.306-6.23 7.6-6.573v-5.852c0-.76.532-1.14 1.064-1.14s1.102.38 1.102 1.14v5.852c2.62.2 5.9 1.368 7.4 3.495.15.228.228.418.228.646 0 .608-.532 1.064-1.14 1.064-.532 0-.532-.152-1.178-.798-1.596-1.596-3.95-2.318-6.193-2.318-4.52 0-6.725 1.748-6.725 4.483 0 8.17 16.07 3.42 16.07 14.362 0 4.863-3.913 7.03-8.473 7.333zm36.848-2.85c-1.672 1.862-4 2.888-6.8 2.888-6.117 0-9.536-5.015-9.536-10.752 0-5.7 3.42-10.714 9.536-10.714 2.812 0 5.13 1.026 6.8 2.888a1 1 0 0 1 .305.722c0 .57-.532 1.14-1.103 1.14-.266 0-.53-.114-.798-.38-1.254-1.406-3-2.204-5.205-2.204-4.483 0-7.37 3.6-7.37 8.55s2.888 8.586 7.37 8.586c2.204 0 3.95-.835 5.205-2.204.267-.266.532-.38.798-.38a1.13 1.13 0 0 1 1.103 1.102c0 .266-.076.494-.305.76zm12.768 2.887c-6.117 0-9.536-5.015-9.536-10.752 0-5.7 3.42-10.714 9.536-10.714s9.537 5.015 9.537 10.714c0 5.737-3.42 10.752-9.537 10.752zm0-19.3c-4.483 0-7.37 3.6-7.37 8.55s2.888 8.586 7.37 8.586c4.52 0 7.37-3.647 7.37-8.586s-2.85-8.55-7.37-8.55zm19.646 19.376c-2.28 0-6.117-.798-7.447-3-.15-.228-.15-.418-.15-.57 0-.608.53-1.14 1.102-1.14.228 0 .607.2.836.532 1.367 1.672 3.8 2.014 5.66 2.014 3.686 0 5.547-1.216 5.547-3.686 0-5.737-12.462-2.697-12.462-10.296 0-3.837 3.837-5.32 7.295-5.32 1.976 0 5.015.684 6.535 2.204.228.228.342.494.342.722 0 .57-.57 1.14-1.178 1.14-.23 0-.494-.076-.722-.304-1.178-1.14-3.306-1.596-4.978-1.596-3.344 0-5.13 1.3-5.13 3.153 0 5.32 12.462 2.508 12.462 10.296 0 4.332-3.8 5.85-7.713 5.85zm17.898-.722h-1.178c-3 0-4.483-1.482-4.483-4.445v-13.564h-1.937c-.684 0-1.063-.57-1.063-1.102 0-.494.38-1.063 1.063-1.063h1.938v-5.813c0-.684.57-1.064 1.103-1.064s1.063.38 1.063 1.064v5.813h3.495c.685 0 1.064.57 1.064 1.063 0 .532-.38 1.102-1.064 1.102h-3.495v13.564c0 1.862.532 2.28 2.317 2.28h1.178c.685 0 1.064.57 1.064 1.102 0 .494-.38 1.064-1.064 1.064zm21.85.646c-3.306 0-5.775-1.368-7.37-3.6v9.84c0 .684-.57 1.102-1.063 1.102-.532 0-1.103-.418-1.103-1.102v-25.988c0-.684.57-1.063 1.103-1.063.494 0 1.063.38 1.063 1.063v1.862c1.596-2.204 4.065-3.57 7.37-3.57 6.117 0 9.536 5.015 9.536 10.714 0 5.737-3.42 10.752-9.536 10.752zm0-19.3c-4.52 0-7.37 3.6-7.37 8.55s2.85 8.586 7.37 8.586 7.37-3.647 7.37-8.586-2.85-8.55-7.37-8.55zm30.435 9.65h-15.768c.342 4.332 3.153 7.485 7.295 7.485 2.052 0 4.483-.912 5.585-2.622.267-.417.57-.532.912-.532.57 0 1.178.456 1.178 1.026 0 .342 0 .418-.722 1.254-1.748 2.052-4.293 3.04-6.953 3.04-6.117 0-9.536-5.015-9.536-10.752 0-5.7 3.42-10.714 9.536-10.714s9.537 5.053 9.537 10.714c0 .57-.532 1.102-1.064 1.102zm-8.473-9.65c-4.56 0-6.953 3.496-7.295 7.485h14.628c-.342-4.33-3.153-7.485-7.333-7.485z"/><use xlink:href="#U"/><path d="M359.378 203.24l-10.297 24.354c-.76 1.786-2.317 2.28-4.065 2.28h-1.67c-.685 0-1.064-.57-1.064-1.102 0-.494.38-1.064 1.064-1.064h1.67c.836 0 1.7-.038 2.052-.912l2.166-5.167-7.864-18.4c-.076-.2-.076-.342-.076-.494 0-.608.53-1.026 1.102-1.026.342 0 .76.152.95.646l7.066 16.5 7-16.5c.2-.494.607-.646.988-.646.57 0 1.063.417 1.063 1.026 0 .152 0 .304-.076.494zm19.1 9.652H362.72c.342 4.332 3.153 7.485 7.295 7.485 2.052 0 4.483-.912 5.585-2.622.267-.417.57-.532.912-.532.57 0 1.178.456 1.178 1.026 0 .342 0 .418-.722 1.254-1.748 2.052-4.293 3.04-6.953 3.04-6.117 0-9.536-5.015-9.536-10.752 0-5.7 3.42-10.714 9.536-10.714s9.537 5.053 9.537 10.714c0 .57-.532 1.102-1.064 1.102zm-8.473-9.65c-4.56 0-6.953 3.496-7.295 7.485h14.628c-.342-4.33-3.153-7.485-7.333-7.485zm33.135 18.654h-.038c-1.254 0-3.04-.684-3.762-2.963-1.596 2.242-4.065 3.6-7.37 3.6-6.193 0-9.536-5.1-9.536-10.752 0-5.737 3.42-10.714 9.536-10.714 3.306 0 5.775 1.368 7.37 3.57v-1.862c0-.608.494-1.063 1.102-1.063.532 0 1.064.38 1.064 1.063v15.312c0 2.432 2.735.912 2.735 2.735a1.04 1.04 0 0 1-1.102 1.064zm-11.17-18.655c-4.483 0-7.37 3.6-7.37 8.55s2.888 8.586 7.37 8.586c4.52 0 7.37-3.647 7.37-8.586s-2.85-8.55-7.37-8.55z"/><use xlink:href="#U" x="84.28"/></g><g class="Q R S T V"><path d="M638.556 431.595h-1"/><path d="M631.508 431.595H441.023" class="W"/><path d="M438 431.595h-1"/></g><g class="Q R S T V"><path d="M638.556 621.294h-1"/><path d="M631.508 621.294H441.023" class="W"/><path d="M438 621.294h-1"/></g><g class="Q R S T V"><path d="M638.556 809.868h-1"/><path d="M631.508 809.868H441.023" class="W"/><path d="M438 809.868h-1"/></g><g class="Q R S T V"><path d="M638.556 998.44h-1"/><path d="M631.508 998.44H441.023" class="W"/><path d="M438 998.44h-1"/></g><g stroke="#ffff1c" class="Q R S T"><path d="M417.556 240.604h-1"/><path d="M410.563 240.604H37.996" stroke-dasharray="1.99768,5.99303"/><path d="M35 240.604h-1"/></g><g class="Q R S T V"><path d="M638.556 240.604h-1"/><path d="M631.508 240.604H441.023" class="W"/><path d="M438 240.604h-1"/></g><g stroke="#6dd5fa" class="Q R S T"><path d="M1046 240.604h-1"/><path d="M1039.062 240.604H661.97" stroke-dasharray="1.97949,5.93847"/><path d="M659 240.604h-1"/></g><path d="M65.958 926.125c-1.553-1.53-1.553-4.044-.022-5.596 1.54-1.54 4.044-1.553 5.596-.022l14.063 14.052 14.052-14.052a3.98 3.98 0 0 1 5.607 0 3.98 3.98 0 0 1 0 5.607L89.56 941.808v29.456h17.84V965.8c0-6.512 2.97-12.276 8.255-16.074 13.527-9.74 21.48-25.222 21.48-41.888 0-28.462-23.078-51.54-51.54-51.54s-51.54 23.1-51.54 51.54c0 16.666 7.953 32.148 21.48 41.888 5.295 3.798 8.255 9.562 8.255 16.074v5.473h17.84v-29.478l-15.672-15.66zm41.442 53.092v-1.988H63.8v1.988c0 6.557 5.328 11.885 11.885 11.885h5.786v3.206a4.14 4.14 0 0 0 4.133 4.133 4.14 4.14 0 0 0 4.133-4.133v-3.206h5.786c6.557 0 11.885-5.328 11.885-11.885z" fill="#005cc8"/><g fill="#fff"><path d="M874.22 1046.357c-1.2 0-3.22-.42-3.92-1.58-.08-.12-.08-.22-.08-.3 0-.32.28-.602.58-.602.12 0 .32.102.44.28.72.88 2 1.06 2.98 1.06 1.94 0 2.92-.64 2.92-1.94 0-3.02-6.562-1.42-6.562-5.422 0-2.02 2.02-2.8 3.84-2.8 1.04 0 2.64.36 3.44 1.16.12.12.18.26.18.38a.65.65 0 0 1-.62.6c-.12 0-.26-.04-.38-.16-.62-.6-1.74-.84-2.62-.84-1.76 0-2.7.682-2.7 1.66 0 2.8 6.562 1.32 6.562 5.422 0 2.28-2 3.08-4.06 3.08z"/><use xlink:href="#V"/><path d="M900.72 1045.98c-.28 0-.58-.2-.58-.56v-.64c-.84.98-2.06 1.54-3.42 1.54-2.48 0-4.56-2.08-4.56-4.56v-5.842c0-.36.3-.56.58-.56.26 0 .56.2.56.56v5.842c0 1.9 1.52 3.42 3.42 3.42s3.42-1.52 3.42-3.42v-5.842c0-.36.3-.56.58-.56.26 0 .56.2.56.56v9.502c0 .36-.3.56-.56.56z"/><use xlink:href="#W"/><path d="M918.86 1044.797c-.88.98-2.1 1.52-3.58 1.52-3.22 0-5.02-2.64-5.02-5.662 0-3 1.8-5.64 5.02-5.64 1.48 0 2.7.54 3.58 1.52.12.12.16.262.16.38 0 .3-.28.6-.58.6-.14 0-.28-.06-.42-.2-.66-.74-1.58-1.16-2.74-1.16-2.36 0-3.88 1.9-3.88 4.5s1.52 4.52 3.88 4.52c1.16 0 2.08-.44 2.74-1.16.14-.14.28-.2.42-.2.3 0 .58.26.58.58 0 .14-.04.26-.16.398z"/><use xlink:href="#X"/><path d="M934.42 1039.416c-.64 0-1.16-.5-1.16-1.14s.52-1.14 1.16-1.14c.62 0 1.12.5 1.12 1.14s-.5 1.14-1.12 1.14zm0 6.563c-.64 0-1.16-.5-1.16-1.14s.52-1.14 1.16-1.14c.62 0 1.12.5 1.12 1.14s-.5 1.14-1.12 1.14z"/><use xlink:href="#X" x="21.738"/><path d="M963.68 1045.98c-.28 0-.58-.2-.58-.56v-5.842c0-1.9-1.52-3.42-3.42-3.42a3.42 3.42 0 0 0-3.421 3.42v5.842c0 .36-.3.56-.56.56-.28 0-.58-.2-.58-.56v-9.502c0-.36.3-.56.58-.56.26 0 .56.2.56.56v.64c.9-.98 2.08-1.54 3.42-1.54a4.6 4.6 0 0 1 4.561 4.561v5.842c0 .36-.3.56-.56.56z"/><use xlink:href="#X" x="45.478"/><use xlink:href="#W" x="74.74"/><use xlink:href="#Y"/><path d="M1006.5 1036.156l-5.42 12.822c-.4.94-1.22 1.2-2.14 1.2h-.88c-.36 0-.56-.3-.56-.58 0-.262.2-.56.56-.56h.88c.44 0 .9-.02 1.08-.48l1.14-2.72-4.142-9.682c-.04-.1-.04-.18-.04-.26 0-.32.28-.54.58-.54.18 0 .4.08.5.34l3.722 8.682 3.68-8.682a.52.52 0 0 1 .52-.34c.3 0 .56.22.56.54 0 .08 0 .16-.04.26zm3.138 9.824c-.64 0-1.14-.5-1.14-1.14s.5-1.14 1.14-1.14 1.14.5 1.14 1.14-.5 1.14-1.14 1.14z"/><use xlink:href="#Y" x="28.16"/><use xlink:href="#V" x="145.66"/><path d="M1046.16 1036.137l-3.94 9.38c-.12.26-.3.46-.56.46s-.46-.2-.58-.46l-3.94-9.36c-.04-.1-.04-.18-.04-.26 0-.32.28-.54.58-.54.18 0 .4.08.5.34l3.48 8.223 3.46-8.223c.12-.26.32-.36.52-.36.3 0 .58.22.58.54 0 .06 0 .16-.06.262z"/></g><g fill="#0073a7"><path d="M42.328 1046.045c-3.568 0-5.47-1.97-5.503-2.002 0 .935-.7 1.4-1.468 1.4-.7 0-1.4-.467-1.4-1.4v-20.88a1.35 1.35 0 0 1 1.401-1.434c.767 0 1.468.467 1.468 1.4v6.238c1.334-1.368 3.168-2.17 5.503-2.17 5.37 0 8.373 4.403 8.373 9.406 0 5.037-3.002 9.44-8.373 9.44zm0-16c-3.335 0-5.503 2.602-5.503 6.57 0 4.003 2.168 6.604 5.503 6.604s5.504-2.602 5.504-6.604c0-3.97-2.168-6.57-5.504-6.57zm25.555 8.037h-12.34c.467 3.136 2.468 5.137 5.403 5.137 1.5 0 3.002-.533 3.97-1.734.3-.333.634-.533 1.034-.533.734 0 1.5.667 1.5 1.468 0 .4-.1.7-.8 1.4-1.5 1.468-3.57 2.235-5.704 2.235-5.37 0-8.372-4.437-8.372-9.44 0-4.97 3.002-9.406 8.372-9.406 5.437 0 8.34 4.437 8.34 9.406 0 .734-.534 1.468-1.4 1.468zm-6.937-8.038c-3.136 0-4.97 2.3-5.403 5.17H66.35c-.467-3.202-2.468-5.17-5.403-5.17zM88 1045.478c-1.834 0-2.668-1.3-2.97-1.9-1.334 1.468-3.27 2.47-5.87 2.47-5.437 0-8.372-4.47-8.372-9.44s3.002-9.406 8.372-9.406c2.335 0 4.203.834 5.504 2.202v-.134c0-.367.133-1.5 1.4-1.5.7 0 1.468.367 1.468 1.4v12.875c0 .434.3.6.467.6.935 0 1.435.667 1.435 1.434a1.37 1.37 0 0 1-1.435 1.401zm-8.84-15.443c-3.336 0-5.504 2.602-5.504 6.57 0 4.003 2.168 6.604 5.504 6.604 3.37 0 5.504-2.602 5.504-6.604 0-3.97-2.135-6.57-5.504-6.57z"/><use xlink:href="#Z"/><path d="M115.158 1045.478h-.567c-3.17 0-4.37-1.668-4.37-4.403V1030.6h-1c-.8 0-1.435-.634-1.435-1.4 0-.8.634-1.435 1.4-1.435h1v-4.637c0-.934.7-1.4 1.435-1.4s1.4.467 1.4 1.4v4.637h2.135c.934 0 1.4.768 1.4 1.4 0 .8-.533 1.434-1.4 1.434h-2.135v10.774c0 .934.333 1.268 1.268 1.268h.833c.868 0 1.435.634 1.435 1.4 0 .8-.533 1.435-1.4 1.435zm4.604-20.415a2.402 2.402 0 1 1 0-4.803 2.402 2.402 0 1 1 0 4.803zm0 20.414c-.733 0-1.467-.5-1.467-1.4V1029.2c0-.935.733-1.435 1.467-1.435a1.37 1.37 0 0 1 1.401 1.435v14.876c0 .935-.7 1.4-1.4 1.4zm10.376-14.877h-1.5v13.442c0 .935-.7 1.4-1.468 1.4-.7 0-1.4-.467-1.4-1.4V1030.6h-1.37c-.9 0-1.4-.667-1.4-1.4 0-.768.5-1.435 1.4-1.435h1.367v-2.27c0-2.135 1.77-3.77 3.836-3.77.968 0 1.468.667 1.468 1.434 0 .7-.5 1.4-1.468 1.4-.566 0-.967.434-.967.9v2.302h1.5c.967 0 1.468.667 1.468 1.435 0 .733-.5 1.4-1.468 1.4z"/><use xlink:href="#Z" x="42.068"/><path d="M154.725 1045.544c-1.802 0-3.336-1.534-3.336-3.402v-18.98c0-.967.7-1.434 1.435-1.434s1.435.467 1.435 1.4v19.013c0 .4.3.567.467.567.934 0 1.435.667 1.435 1.435 0 .733-.5 1.4-1.435 1.4zm15.37-.066v-1.264c1.886-.237 2.046-.437 2.046-3.157v-6.7c0-2.8-1.248-4.017-3.064-4.017-1.237 0-2.345.6-3.47 1.493v9.476c0 2.527.187 2.658 2.06 2.896v1.264h-8.968v-1.264c2.254-.33 2.5-.4 2.5-3v-8.2c0-2.446-.303-2.565-2.185-2.922v-1.184c2.173-.292 4.63-.807 6.653-1.533l-.052 2.95 2.6-1.745c1.16-.713 2-1.086 3.16-1.086 3.194 0 5.2 2.338 5.2 6.3v7.5c0 2.54.237 2.657 2.277 2.92v1.264h-8.74zm23.9-3.703c-2.458 3.427-5.488 4.178-7.014 4.178-5.142 0-8.124-3.936-8.124-8.594 0-2.745 1.183-5.396 2.832-7.062 1.74-1.8 3.945-2.814 6.082-2.814 3.73 0 6.396 3.126 6.37 6.347-.014.715-.08 1.277-.612 1.4-.767.184-6.17.5-10.318.647.062 4.587 2.717 6.74 5.556 6.74 1.572 0 3.104-.597 4.543-1.866l.686 1.014zm-7.07-12.7c-1.667 0-3.167 1.807-3.516 4.963l5.486-.118c.6-.026.848-.146.848-.792.04-2.022-1.037-4.053-2.818-4.053zm34.284.145c-1.943.343-2.248.624-3.105 2.765-1.33 3.462-3.102 8.53-4.934 13.94h-1.512l-4.65-11.46-4.55 11.46h-1.472l-4.685-14.192c-.687-1.985-.94-2.274-2.855-2.512v-1.25h9.397v1.25c-2.325.345-2.535.672-2.058 2.133l2.52 8.214c1.507-3.68 2.988-7.62 4.327-11.424h1.456c1.4 3.76 2.986 7.702 4.573 11.568.742-2.107 2.062-5.964 2.557-8.108.412-1.674-.008-2.078-2.753-2.383v-1.25h7.742v1.25zm9.4 3.746c-.92-2.606-2.155-3.984-4.2-3.984-1.206 0-2.225.86-2.225 2.266 0 1.497 1.046 2.264 3.16 3.216 3.278 1.496 5.3 2.787 5.3 5.736 0 3.85-3.6 5.764-6.945 5.764-2.06 0-4.088-.737-4.92-1.16l-.662-4.892 1.252-.224c.8 2.5 2.33 4.75 4.976 4.75 1.505 0 2.438-.952 2.438-2.28 0-1.423-.76-2.333-3.092-3.467-2.67-1.295-5.107-2.64-5.107-5.775 0-3.046 2.533-5.42 6.565-5.42 1.818 0 3.242.396 4.112.567l.62 4.577-1.25.328z"/></g><g fill="#fff"><path d="M78.072 80.06c-.66 0-1.44-.36-1.98-1.08l-12.48-17.46h-7.74v15.9c0 1.68-1.26 2.58-2.64 2.58-1.26 0-2.52-.9-2.52-2.52V39.862c0-1.08.72-2.58 2.52-2.58h15.54c5.28 0 12.06 4.14 12.06 12.06 0 6.3-4.74 11.58-11.04 12.12l10.5 14.46a2.35 2.35 0 0 1 .539 1.56c0 1.44-1.38 2.58-2.76 2.58zm-9.36-37.68h-12.84v14.04h12.78c3.9 0 7.02-3.18 7.02-7.08 0-4.08-3.48-6.96-6.96-6.96z"/><use xlink:href="#a"/><path d="M132.192 81.02c-4.2 0-7.5-1.44-9.9-3.96v13.02c0 1.68-1.26 2.58-2.64 2.58-1.26 0-2.52-.9-2.52-2.58V50.722c0-1.68 1.26-2.58 2.52-2.58 1.38 0 2.64.9 2.64 2.58 0 0 3.54-3.66 9.9-3.66 9.66 0 15.06 7.92 15.06 16.92 0 9.12-5.4 17.04-15.06 17.04zm0-28.86c-5.94 0-9.9 4.74-9.9 11.82 0 7.2 3.9 11.94 9.9 11.94s9.9-4.68 9.9-11.88c0-7.14-3.9-11.88-9.9-11.88z"/><use xlink:href="#b"/><use xlink:href="#c"/><path d="M223.03 76.46c-2.64 2.94-6.3 4.56-10.74 4.56-9.66 0-15.06-7.92-15.06-16.98 0-9 5.4-16.92 15.06-16.92 4.44 0 8.1 1.62 10.74 4.56.48.54.72 1.14.72 1.74 0 1.32-1.32 2.58-2.7 2.58-.54 0-1.2-.24-1.86-.84-1.68-1.86-3.9-2.94-6.9-2.94-6 0-9.9 4.68-9.9 11.82 0 7.2 3.9 11.88 9.9 11.88 3 0 5.28-1.14 6.9-2.94.54-.66 1.26-.9 1.86-.9 1.38 0 2.7 1.2 2.7 2.64 0 .54-.24 1.2-.72 1.74z"/><use xlink:href="#d"/><path d="M264.25 80c-1.32 0-2.52-.9-2.52-2.52V60.8c0-4.68-3.9-8.58-8.58-8.58-4.62 0-8.52 3.9-8.52 8.58v16.62c0 1.68-1.26 2.64-2.64 2.64-1.26 0-2.52-.9-2.52-2.58v-26.82c0-1.74 1.26-2.52 2.52-2.52 1.2 0 2.28.66 2.58 1.98 2.34-1.86 5.28-3 8.58-3 7.44 0 13.68 6.18 13.68 13.68v16.62c0 1.68-1.2 2.58-2.58 2.58z"/><use xlink:href="#e"/><path d="M349.748 80c-.9 0-1.8-.48-2.28-1.56l-3.18-7.8h-19.98l-3.24 7.8c-.48 1.08-1.38 1.56-2.22 1.56-1.32 0-2.7-1.02-2.7-2.52 0-.36.06-.72.24-1.02l15.42-37.498c.72-1.56 1.68-1.86 2.46-1.86.54 0 1.86.3 2.46 1.86l15.48 37.498c.12.3.18.66.18 1.02 0 1.5-1.26 2.52-2.64 2.52zm-15.48-33.6l-7.86 19.08h15.72l-7.86-19.08z"/><use xlink:href="#b" x="203.036"/><use xlink:href="#b" x="214.315"/><path d="M416.705 41.062l-11.88 22.14v14.22c0 1.68-1.26 2.58-2.64 2.58-1.26 0-2.52-.84-2.52-2.52V63.2l-11.88-22.2c-.3-.48-.36-.9-.36-1.26 0-1.44 1.38-2.58 2.7-2.58.78 0 1.62.42 2.16 1.44l9.898 18.48 10.02-18.48c.54-.96 1.38-1.32 2.16-1.32 1.38 0 2.7 1.08 2.7 2.52 0 .42-.06.78-.36 1.26z"/><use xlink:href="#f"/><use xlink:href="#g"/><use xlink:href="#h"/><path d="M534.955 80h-18.24c-1.44 0-2.64-1.14-2.64-2.52V39.862c0-1.74 1.38-2.58 2.52-2.58 1.32 0 2.64.84 2.64 2.52v35.1h15.72c1.38 0 2.52 1.14 2.52 2.52 0 1.44-1.14 2.58-2.52 2.58z"/><use xlink:href="#d" x="313.895"/><use xlink:href="#e" x="280.964"/><use xlink:href="#i"/><use xlink:href="#j"/><use xlink:href="#k"/><use xlink:href="#g" x="220.256"/><use xlink:href="#b" x="552.641"/><use xlink:href="#k" x="79.078"/><use xlink:href="#l"/><path d="M832.37 40.462l-9.9 37.438c-.3 1.44-1.08 2.1-2.46 2.1-1.26 0-2.16-.66-2.58-2.1l-8.1-28.74-8.04 28.74c-.42 1.44-1.26 2.1-2.52 2.1-1.32 0-2.16-.66-2.52-2.1l-9.9-37.438c-.06-.24-.12-.54-.12-.84 0-1.5 1.38-2.34 2.7-2.34 1.02 0 2.04.6 2.4 1.86l7.56 28.62 7.92-28.38c.42-1.44 1.26-2.1 2.52-2.1 1.32 0 2.16.66 2.58 2.1l7.92 28.38 7.56-28.62c.36-1.32 1.56-1.98 2.46-1.98 1.32 0 2.64.96 2.64 2.46 0 .3-.06.6-.12.84z"/><use xlink:href="#d" x="610.23"/><use xlink:href="#j" x="229.737"/><use xlink:href="#i" x="278.334"/><path d="M932.687 80H914.45c-1.44 0-2.64-1.14-2.64-2.52V39.862c0-1.74 1.38-2.58 2.52-2.58 1.32 0 2.64.84 2.64 2.52v35.1h15.72c1.38 0 2.52 1.14 2.52 2.52 0 1.44-1.14 2.58-2.52 2.58zm33.18 0h-24.96c-1.44 0-2.64-1.14-2.64-2.52V39.862c0-1.44 1.2-2.58 2.64-2.58h24.96c1.56 0 2.52 1.14 2.52 2.52 0 1.26-.9 2.58-2.52 2.58h-22.44V54.5h15.72a2.56 2.56 0 0 1 2.58 2.58c0 1.38-1.02 2.58-2.58 2.58h-15.72V74.9h22.44c1.62 0 2.52 1.26 2.52 2.58 0 1.38-.96 2.52-2.52 2.52zm22.32 0h-12.42c-1.38 0-2.64-1.26-2.64-2.52V39.862c0-1.38 1.26-2.58 2.64-2.58h12.42c12.36 0 16.44 10.2 16.44 21.3 0 11.16-4.08 21.42-16.44 21.42zm0-37.62h-9.898V74.9h9.898c7.74 0 11.28-5.7 11.28-16.32 0-10.44-3.54-16.2-11.28-16.2zm31.56 38.64c-3.3 0-8.82-1.02-11.64-4.5-.36-.54-.54-1.08-.54-1.56 0-1.5 1.44-2.7 2.7-2.7.72 0 1.26.36 1.86 1.02 1.86 2.04 4.92 2.64 7.62 2.64 5.4 0 7.14-1.86 7.14-4.56 0-7.68-18.3-2.94-18.3-15.3 0-6.54 6.12-8.94 11.82-8.94 3.24 0 10.86 1.62 10.86 4.98 0 1.32-1.08 2.7-2.52 2.7-.54 0-1.38-.3-1.98-.78-1.62-1.38-3.96-1.8-6.36-1.8-4.98 0-6.72 1.86-6.72 3.84 0 7.14 18.36 2.52 18.36 15.3 0 7.08-5.94 9.66-12.3 9.66zm-790.514 61.2c-4.38 0-10.5-1.8-13.92-4.98-.66-.6-.84-1.26-.84-1.86a2.6 2.6 0 0 1 2.58-2.58c.9 0 1.2.3 2.28 1.14 2.94 2.22 6.42 3.18 9.9 3.18 7.14 0 10.26-2.58 10.26-7.02 0-12.48-23.94-5.4-23.94-21.72 0-7.32 6.18-10.98 14.1-10.98 4.14 0 10.08 1.62 13.02 5.1.48.54.66 1.08.66 1.62 0 1.44-1.32 2.7-2.58 2.7-.9 0-1.38-.42-2.4-1.32-2.4-2.04-5.46-2.94-8.7-2.94-6.48 0-8.94 2.58-8.94 5.82 0 11.22 23.938 4.56 23.938 21.72 0 8.94-7.5 12.12-15.42 12.12z"/><use xlink:href="#c" x="87.323" y="61.2"/><path d="M309.212 112.882l-10.92 26.28c-.54 1.38-1.44 2.04-2.58 2.04-1.02 0-1.98-.66-2.58-2.04l-10.92-26.28c-.12-.42-.18-.72-.18-1.08 0-1.44 1.32-2.46 2.64-2.46.9 0 1.8.48 2.28 1.56l8.76 21 8.76-21c.42-1.14 1.5-1.62 2.34-1.62 1.38 0 2.64.96 2.64 2.46 0 .3-.06.72-.24 1.14z"/><use xlink:href="#a" x="227.24" y="61.2"/><use xlink:href="#l" x="-405.2" y="61.2"/><path d="M411.57 141.2h-24.96c-1.44 0-2.64-1.14-2.64-2.52v-37.618c0-1.44 1.2-2.58 2.64-2.58h24.96c1.56 0 2.52 1.14 2.52 2.52 0 1.26-.9 2.58-2.52 2.58H389.13v12.12h15.72a2.56 2.56 0 0 1 2.58 2.58c0 1.38-1.02 2.58-2.58 2.58h-15.72v15.24h22.438c1.62 0 2.52 1.26 2.52 2.58 0 1.38-.96 2.52-2.52 2.52z"/><use xlink:href="#m"/><use xlink:href="#a" x="366.198" y="61.2"/><use xlink:href="#h" x="0.154" y="61.2"/><path d="M516.8 154.88c-3.66 0-12.72-1.32-12.72-4.92 0-1.38 1.26-2.7 2.58-2.7 1.38 0 .18.18 3.36 1.38 1.44.54 3.6 1.14 6.78 1.14 6.66 0 9.9-3.18 9.9-9.48v-2.7c-2.34 2.22-5.7 3.6-9.9 3.6-9.48 0-15.06-6.72-15.06-15.96 0-9 5.4-16.92 15.06-16.92 4.2 0 7.44 1.26 9.9 3.84v-.24c0-1.68 1.38-2.58 2.58-2.58 1.26 0 2.58.9 2.58 2.58v28.38c0 9.54-5.7 14.58-15.06 14.58zm0-41.458c-6 0-9.9 4.68-9.9 11.82 0 6.84 3.6 10.86 9.9 10.86s9.9-4.02 9.9-10.86c0-7.14-3.84-11.82-9.9-11.82z"/><use xlink:href="#n"/><path d="M609.328 141.2c-3.3 0-4.8-2.34-5.34-3.42-2.4 2.64-5.88 4.44-10.56 4.44-9.78 0-15.06-8.04-15.06-16.98s5.4-16.92 15.06-16.92c4.2 0 7.56 1.5 9.9 3.96v-.24c0-.66.24-2.7 2.52-2.7 1.26 0 2.64.66 2.64 2.52v23.16c0 .78.54 1.08.84 1.08 1.68 0 2.58 1.2 2.58 2.58 0 1.26-.9 2.52-2.58 2.52zm-15.9-27.78c-6 0-9.9 4.68-9.9 11.82 0 7.2 3.9 11.88 9.9 11.88 6.06 0 9.9-4.68 9.9-11.88 0-7.14-3.84-11.82-9.9-11.82z"/><use xlink:href="#m" x="196.258"/><path d="M674.187 141.14c-1.32 0-2.58-.84-2.58-2.52 0 0-3.54 3.6-9.9 3.6-9.66 0-15.06-7.92-15.06-16.98 0-9 5.4-16.92 15.06-16.92 4.2 0 7.56 1.44 9.9 3.9v-11.16c0-1.74 1.26-2.58 2.58-2.58s2.58.84 2.58 2.52v37.618c0 1.68-1.26 2.52-2.58 2.52zm-12.48-27.72c-6 0-9.9 4.68-9.9 11.82 0 7.2 3.9 11.88 9.9 11.88 6.06 0 9.9-4.68 9.9-11.88 0-7.14-3.84-11.82-9.9-11.82zm69.178 27.84c-1.26 0-2.52-.9-2.52-2.58v-27.6l-11.64 21.72c-.78 1.5-1.92 1.62-2.4 1.62-.3 0-1.56-.12-2.4-1.62l-11.58-21.6v27.48c0 1.68-1.26 2.58-2.64 2.58-1.26 0-2.52-.9-2.52-2.58v-37.5c0-1.98 1.38-2.7 2.76-2.7.9 0 1.62.42 2.16 1.5l14.22 26.46 14.28-26.46c.6-1.2 1.32-1.5 2.34-1.5 1.32 0 2.58.84 2.58 2.7v37.5c0 1.68-1.26 2.58-2.64 2.58z"/><use xlink:href="#f" x="322.891" y="61.2"/><use xlink:href="#m" x="355.495"/><use xlink:href="#a" x="721.693" y="61.2"/><use xlink:href="#n" x="302.034"/></g><defs ><path id="D" d="M512.446 330.475h-5.796c-.644 0-1.232-.588-1.232-1.176v-17.556c0-.644.59-1.204 1.232-1.204h5.796c5.768 0 7.672 4.76 7.672 9.94 0 5.208-1.904 9.996-7.672 9.996zm0-17.556h-4.62v15.176h4.62c3.612 0 5.264-2.66 5.264-7.616 0-4.872-1.65-7.56-5.264-7.56z"/><path id="E" d="M527.622 330.475h-3.22c-.756 0-1.176-.588-1.176-1.176 0-.644.42-1.204 1.176-1.204h.42V312.92h-.42c-.756 0-1.176-.588-1.176-1.176 0-.644.42-1.204 1.176-1.204h3.22c.813 0 1.232.56 1.232 1.204 0 .588-.42 1.176-1.232 1.176h-.42v15.176h.42c.813 0 1.232.56 1.232 1.204 0 .588-.42 1.176-1.232 1.176z"/><path id="F" d="M588.438 330.475c-.364 0-.757-.196-1.01-.616l-9.407-14.14v13.552c0 .784-.588 1.204-1.232 1.204-.588 0-1.176-.42-1.176-1.176v-17.556c0-.784.616-1.204 1.23-1.204.393 0 .73.168 1.01.588l9.407 14.14v-13.524c0-.812.59-1.204 1.177-1.204.644 0 1.23.392 1.23 1.176v17.556c0 .756-.616 1.204-1.23 1.204z"/><path id="G" d="M608.3 330.475c-.42 0-.84-.224-1.064-.728l-1.483-3.64h-9.324l-1.512 3.64c-.225.504-.645.728-1.036.728-.616 0-1.26-.476-1.26-1.176 0-.168.027-.336.11-.476l7.196-17.5c.336-.728.784-.868 1.148-.868.252 0 .867.14 1.147.868l7.224 17.5c.057.14.084.308.084.476 0 .7-.588 1.176-1.23 1.176zm-7.224-15.68l-3.67 8.904h7.337l-3.668-8.904z"/><path id="H" d="M552.177 382.475h-8.512c-.672 0-1.232-.532-1.232-1.176v-17.556c0-.812.645-1.204 1.177-1.204.615 0 1.23.392 1.23 1.176v16.38h7.336c.645 0 1.176.532 1.176 1.176 0 .672-.53 1.204-1.176 1.204z"/><path id="I" d="M462.61 533.048c-.364 0-.756-.195-1.008-.616l-9.408-14.14v13.552c0 .784-.588 1.204-1.232 1.204-.588 0-1.176-.42-1.176-1.176v-17.556c0-.784.616-1.204 1.232-1.204.392 0 .728.168 1.008.588l9.408 14.14v-13.523c0-.812.588-1.204 1.176-1.204.645 0 1.232.392 1.232 1.176v17.556c0 .757-.617 1.204-1.232 1.204z"/><path id="J" d="M583.82 533.048c-.42 0-.84-.224-1.064-.728l-1.484-3.64h-9.324l-1.512 3.64c-.224.504-.644.728-1.035.728-.616 0-1.26-.476-1.26-1.176 0-.168.027-.336.11-.476l7.195-17.5c.337-.73.785-.868 1.148-.868.252 0 .868.14 1.148.868l7.224 17.5a1.31 1.31 0 0 1 .084.476c0 .7-.588 1.176-1.23 1.176zm-7.225-15.68l-3.668 8.904h7.336l-3.668-8.904z"/><path id="K" d="M623.462 533.048c-.363 0-.756-.195-1.008-.616l-9.408-14.14v13.552c0 .784-.588 1.204-1.23 1.204-.59 0-1.177-.42-1.177-1.176v-17.556c0-.784.617-1.204 1.232-1.204.393 0 .73.168 1.008.588l9.408 14.14v-13.523c0-.812.588-1.204 1.176-1.204.645 0 1.232.392 1.232 1.176v17.556c0 .757-.616 1.204-1.232 1.204z"/><path id="L" d="M985.126 926.768c1.78-.062 3.203-.703 4.266-1.922s1.594-2.75 1.594-4.594c-.03-2.28-.656-4.062-1.875-5.344-1.25-1.25-2.875-1.875-4.875-1.875h-.562c-.312.03-.453-.124-.422-.47v-2.25c-.03-.344.11-.484.422-.422h.28c1.906-.03 3.438-.64 4.594-1.828 1.156-1.155 1.75-2.75 1.78-4.78-.187-3.312-1.812-5.062-4.875-5.25-1.28 0-2.39.422-3.328 1.266s-1.516 2.08-1.734 3.703c0 .438-.156.626-.47.563h-2.53c-.375.063-.516-.094-.422-.47.22-2.406 1.11-4.4 2.672-5.953 1.594-1.594 3.547-2.406 5.86-2.437 2.406.03 4.39.844 5.953 2.438s2.375 3.64 2.438 6.14c-.062 2.126-.594 3.813-1.594 5.063-.97 1.25-2.062 2.156-3.28 2.72-.25.157-.234.328.047.516 1.25.532 2.453 1.453 3.61 2.766 1.188 1.344 1.813 3.313 1.875 5.906-.062 2.688-.97 4.984-2.72 6.89-1.78 1.875-4.03 2.86-6.75 2.953-2.47-.03-4.562-.844-6.28-2.437-1.75-1.625-2.703-3.89-2.86-6.797-.062-.187.078-.312.422-.375h2.53c.344-.062.516.125.516.563.28 3.656 2.188 5.563 5.72 5.72v-.047.047z"/><path id="M" d="M1012.176 917.814c-.03.344.11.5.422.47h2.86c.344-.062.484.078.422.422v2.297c.063.344-.078.5-.422.47h-2.86c-.312-.062-.453.078-.422.422v6.75c.063.406-.078.578-.422.516h-2.39c-.312.063-.453-.11-.422-.516v-6.75c.063-.344-.078-.484-.422-.422h-10.875c-.312.03-.453-.125-.422-.47v-2.953l.188-.797 9.984-21.422c.094-.25.313-.375.656-.375h3.703c.344-.03.484.125.422.47v21.89zm-11.766 0c-.187.344-.094.5.28.47h7.828c.344.03.484-.125.422-.47v-17.53c-.062-.375-.187-.405-.375-.094l-8.156 17.625z"/><path id="N" d="M793.336 707.305l.563-.422h3.328c.344 0 .5.157.47.47v29.625c-.062.344.078.5.422.47h6.094c.344-.062.484.078.422.422v2.297c.03.344-.11.484-.422.422h-16.594c-.344.063-.5-.078-.47-.422v-2.297c-.03-.344.125-.484.47-.422h6.328c.313.03.453-.125.422-.47v-24.984c-.03-.375-.187-.405-.47-.094-1.47 1.376-3.61 2.625-6.422 3.75-.25.125-.39.047-.422-.234v-2.39c0-.187.11-.328.328-.422 2.656-1.125 4.64-2.9 5.953-5.297v-.047.047z"/><path id="O" d="M834.125 738.43c-.094 1.813-1.03 2.78-2.812 2.906-1.75-.125-2.687-1.094-2.812-2.906.125-1.78 1.063-2.734 2.813-2.86 1.78.125 2.72 1.078 2.813 2.86v-.047.047z"/><path id="P" d="M187.992 549.855c-.094 1.813-1.03 2.78-2.812 2.906-1.75-.125-2.688-1.094-2.812-2.906.124-1.78 1.062-2.734 2.813-2.86 1.78.125 2.72 1.078 2.813 2.86v-.047.047z"/><path id="Q" d="M670.994 222.542c-3.306 0-5.775-1.367-7.37-3.61v1.9c0 .684-.57 1.063-1.063 1.063-.532 0-1.103-.38-1.103-1.063v-24.925c0-.684.57-1.063 1.103-1.063.494 0 1.063.38 1.063 1.063v8.74c1.596-2.204 4.065-3.572 7.37-3.572 6.117 0 9.536 5.016 9.536 10.715 0 5.737-3.42 10.752-9.536 10.752zm0-19.3c-4.52 0-7.37 3.61-7.37 8.55s2.85 8.587 7.37 8.587 7.37-3.647 7.37-8.587-2.85-8.55-7.37-8.55z"/><path id="R" d="M709.68 222.124c-2.052 0-3.762-1.9-3.762-4.027v-22.188c0-.684.57-1.063 1.103-1.063.494 0 1.063.38 1.063 1.063v22.188c0 2.432 2.697 1.026 2.697 2.736 0 .646-.455 1.29-1.102 1.29z"/><path id="S" d="M753.53 198.074a2.14 2.14 0 1 1 0-4.332 2.14 2.14 0 0 1 0 4.332zm0 23.822c-.532 0-1.103-.342-1.103-1.063v-18.048c0-.684.532-1.063 1.103-1.063.494 0 1.063.342 1.063 1.063v18.048c0 .684-.494 1.063-1.063 1.063z"/><path id="T" d="M787.31 212.892h-15.768c.342 4.332 3.153 7.485 7.295 7.485 2.052 0 4.483-.912 5.585-2.622.267-.418.57-.53.912-.53.57 0 1.178.455 1.178 1.025 0 .342 0 .418-.722 1.254-1.748 2.052-4.293 3.04-6.953 3.04-6.117 0-9.536-5.015-9.536-10.752 0-5.7 3.42-10.715 9.536-10.715s9.537 5.054 9.537 10.715c0 .57-.532 1.102-1.064 1.102zm-8.473-9.65c-4.56 0-6.953 3.495-7.295 7.485h14.628c-.342-4.332-3.153-7.485-7.333-7.485z"/><path id="U" d="M331.336 203.583c-3.57 0-6.497 2.888-6.497 6.497v10.752c0 .684-.57 1.064-1.063 1.064-.532 0-1.103-.38-1.103-1.064v-18.047c0-.684.57-1.063 1.103-1.063.494 0 1.063.38 1.063 1.063v1.558c1.7-1.862 3.95-2.926 6.497-2.926.684 0 1.102.57 1.102 1.064 0 .532-.418 1.102-1.102 1.102z"/><path id="V" d="M884.94 1046.318c-3.22 0-5.02-2.64-5.02-5.662 0-3 1.8-5.64 5.02-5.64s5.02 2.64 5.02 5.64c0 3.02-1.8 5.662-5.02 5.662zm0-10.162c-2.36 0-3.88 1.9-3.88 4.5s1.52 4.52 3.88 4.52c2.38 0 3.88-1.92 3.88-4.52s-1.5-4.5-3.88-4.5z"/><path id="W" d="M908.68 1036.336a3.42 3.42 0 0 0-3.421 3.42v5.662c0 .36-.3.56-.56.56-.28 0-.58-.2-.58-.56v-9.502c0-.36.3-.56.58-.56.26 0 .56.2.56.56v.82c.9-.98 2.08-1.54 3.42-1.54.36 0 .58.3.58.56a.58.58 0 0 1-.58.58z"/><path id="X" d="M930.442 1041.236h-8.302c.18 2.28 1.66 3.94 3.84 3.94 1.08 0 2.36-.48 2.94-1.38.14-.22.3-.28.48-.28.3 0 .62.24.62.54 0 .18 0 .22-.38.658-.92 1.082-2.26 1.602-3.66 1.602-3.22 0-5.02-2.64-5.02-5.662 0-3 1.8-5.64 5.02-5.64s5.02 2.66 5.02 5.64c0 .3-.28.58-.56.58zm-4.46-5.08c-2.4 0-3.66 1.84-3.84 3.94h7.7c-.18-2.28-1.66-3.94-3.86-3.94z"/><path id="Y" d="M990.02 1050.54c-1.7 0-4.102-.64-4.102-1.36 0-.32.26-.64.58-.64.22 0 .68.34 1.06.48.52.18 1.34.38 2.46.38 2.56 0 3.88-1.26 3.88-3.72v-1.4c-.88 1.06-2.14 1.7-3.88 1.7-3.16 0-5.02-2.24-5.02-5.322 0-3 1.8-5.64 5.02-5.64 1.74 0 3.04.72 3.88 1.88v-.96c0-.36.3-.56.58-.56.26 0 .56.2.56.56v9.742c0 3.182-1.9 4.86-5.02 4.86zm0-14.383c-2.36 0-3.88 1.9-3.88 4.5 0 2.582 1.42 4.182 3.88 4.182s3.88-1.6 3.88-4.182c0-2.6-1.5-4.5-3.88-4.5z"/><path id="Z" d="M104.714 1045.51c-.633 0-1.267-.367-1.4-1.1-1.334 1.034-2.97 1.668-4.804 1.668-4.136 0-7.604-3.436-7.604-7.605v-9.24a1.37 1.37 0 0 1 1.4-1.435c.768 0 1.468.5 1.468 1.4v9.272c0 2.602 2.168 4.77 4.736 4.77 2.603 0 4.77-2.17 4.77-4.77v-9.24c0-1.034.667-1.468 1.4-1.468.768 0 1.435.5 1.435 1.435v14.9c0 .934-.667 1.4-1.4 1.4z"/><path id="a" d="M111.732 66.68h-22.2c.84 5.64 4.44 9.24 9.72 9.24 2.7 0 5.4-.96 7.14-3.12.54-.6 1.14-.96 1.86-.96 1.32 0 2.7 1.2 2.7 2.64 0 .72-.18 1.26-1.44 2.52-2.7 2.64-6.42 4.02-10.26 4.02-9.66 0-15.06-7.98-15.06-16.98 0-8.94 5.4-16.92 15.06-16.92 9.78 0 15 7.98 15 16.92 0 1.32-.96 2.64-2.52 2.64zm-12.48-14.46c-5.64 0-8.94 4.14-9.72 9.3h19.44c-.84-5.76-4.44-9.3-9.72-9.3z"/><path id="b" d="M157.632 80.12c-3.24 0-6-2.76-6-6.12V39.862c0-1.74 1.26-2.58 2.58-2.58s2.58.84 2.58 2.52V74c0 .72.54 1.02.84 1.02 1.68 0 2.58 1.2 2.58 2.58 0 1.32-.9 2.52-2.58 2.52z"/><path id="c" d="M192.85 80c-3.3 0-4.8-2.34-5.34-3.42-2.4 2.64-5.88 4.44-10.56 4.44-9.78 0-15.06-8.04-15.06-16.98s5.4-16.92 15.06-16.92c4.2 0 7.56 1.5 9.9 3.96v-.24c0-.66.24-2.7 2.52-2.7 1.26 0 2.64.66 2.64 2.52v23.16c0 .78.54 1.08.84 1.08 1.68 0 2.58 1.2 2.58 2.58 0 1.26-.9 2.52-2.58 2.52zm-15.9-27.78c-6 0-9.898 4.68-9.898 11.82 0 7.2 3.9 11.88 9.898 11.88 6.06 0 9.9-4.68 9.9-11.88 0-7.14-3.84-11.82-9.9-11.82z"/><path id="d" d="M230.6 43.282a4.3 4.3 0 1 1 0-8.64 4.3 4.3 0 1 1 0 8.64zm0 36.72c-1.32 0-2.64-.9-2.64-2.52v-26.76c0-1.68 1.32-2.58 2.64-2.58 1.26 0 2.52.9 2.52 2.58v26.76c0 1.68-1.26 2.52-2.52 2.52z"/><path id="e" d="M286.09 93.68c-3.66 0-12.72-1.32-12.72-4.92 0-1.38 1.26-2.7 2.58-2.7 1.38 0 .18.18 3.36 1.38 1.44.54 3.6 1.14 6.78 1.14 6.66 0 9.9-3.18 9.9-9.48v-2.7c-2.34 2.22-5.7 3.6-9.9 3.6-9.48 0-15.06-6.72-15.06-15.96 0-9 5.4-16.92 15.06-16.92 4.2 0 7.44 1.26 9.9 3.84v-.24c0-1.68 1.38-2.58 2.58-2.58 1.26 0 2.58.9 2.58 2.58V79.1c0 9.54-5.7 14.58-15.06 14.58zm0-41.458c-6 0-9.9 4.68-9.9 11.82 0 6.84 3.6 10.86 9.9 10.86s9.9-4.02 9.9-10.86c0-7.14-3.84-11.82-9.9-11.82z"/><path id="f" d="M431.636 81.02c-9.66 0-15.06-7.92-15.06-16.98 0-9 5.4-16.92 15.06-16.92s15.06 7.92 15.06 16.92c0 9.06-5.4 16.98-15.06 16.98zm0-28.8c-6 0-9.9 4.68-9.9 11.82 0 7.2 3.9 11.88 9.9 11.88 6.06 0 9.9-4.68 9.9-11.88 0-7.14-3.84-11.82-9.9-11.82z"/><path id="g" d="M475.736 80.06c-1.14 0-2.28-.66-2.52-1.98-2.4 1.86-5.34 3-8.64 3-7.44 0-13.68-6.18-13.68-13.68v-16.62c0-1.68 1.26-2.58 2.52-2.58 1.38 0 2.64.9 2.64 2.52V67.4c0 4.68 3.9 8.58 8.52 8.58 4.68 0 8.58-3.9 8.58-8.58v-16.62c0-1.86 1.2-2.64 2.52-2.64 1.38 0 2.58.9 2.58 2.58v26.82c0 1.68-1.2 2.52-2.52 2.52z"/><path id="h" d="M498.056 52.222c-4.62 0-8.52 3.9-8.52 8.58v16.62c0 1.68-1.26 2.58-2.64 2.58-1.26 0-2.52-.9-2.52-2.52v-26.76c0-1.68 1.38-2.58 2.52-2.58 1.2 0 2.34.66 2.58 2.04 2.34-1.92 5.52-3.06 8.58-3.06 1.74 0 2.64 1.2 2.64 2.58 0 1.32-.9 2.52-2.64 2.52z"/><path id="i" d="M613.013 80c-1.32 0-2.52-.9-2.52-2.52V60.8c0-4.68-3.9-8.58-8.58-8.58-4.62 0-8.52 3.9-8.52 8.58v16.62c0 1.68-1.26 2.64-2.64 2.64-1.26 0-2.52-.9-2.52-2.58V39.862c0-1.74 1.26-2.58 2.52-2.58 1.38 0 2.64.84 2.64 2.52v10.38c2.22-2.1 5.22-3.06 8.52-3.06 7.44 0 13.68 6.18 13.68 13.68v16.62c0 1.68-1.2 2.58-2.58 2.58z"/><path id="j" d="M631.313 80h-1.02c-5.7 0-7.86-3-7.86-7.92v-18.84h-1.8c-1.44 0-2.58-1.14-2.58-2.52 0-1.44 1.14-2.58 2.52-2.58h1.8v-8.34c0-1.68 1.26-2.52 2.58-2.52s2.52.84 2.52 2.52v8.34h3.84c1.68 0 2.52 1.38 2.52 2.52 0 1.44-.96 2.58-2.52 2.58h-3.84v19.38c0 1.68.6 2.28 2.28 2.28h1.5c1.56 0 2.58 1.14 2.58 2.52 0 1.44-.96 2.58-2.52 2.58z"/><path id="k" d="M651.892 81.02c-6.42 0-9.84-3.54-9.9-3.6 0 1.68-1.26 2.52-2.64 2.52-1.26 0-2.52-.84-2.52-2.52V39.862c0-1.74 1.26-2.58 2.52-2.58 1.38 0 2.64.84 2.64 2.52v11.22c2.4-2.46 5.7-3.9 9.9-3.9 9.66 0 15.06 7.92 15.06 16.92 0 9.06-5.4 16.98-15.06 16.98zm0-28.8c-6 0-9.9 4.68-9.9 11.82 0 7.2 3.9 11.88 9.9 11.88s9.9-4.68 9.9-11.88c0-7.14-3.9-11.82-9.9-11.82z"/><path id="l" d="M760.792 81.02c-3.3 0-8.82-1.02-11.64-4.5-.36-.54-.54-1.08-.54-1.56 0-1.5 1.44-2.7 2.7-2.7.72 0 1.26.36 1.86 1.02 1.86 2.04 4.92 2.64 7.62 2.64 5.4 0 7.14-1.86 7.14-4.56 0-7.68-18.3-2.94-18.3-15.3 0-6.54 6.12-8.94 11.818-8.94 3.24 0 10.86 1.62 10.86 4.98 0 1.32-1.08 2.7-2.52 2.7-.54 0-1.38-.3-1.98-.78-1.62-1.38-3.96-1.8-6.36-1.8-4.98 0-6.72 1.86-6.72 3.84 0 7.14 18.36 2.52 18.36 15.3 0 7.08-5.94 9.66-12.3 9.66z"/><path id="m" d="M443.61 141.2c-1.32 0-2.52-.9-2.52-2.52V122c0-4.68-3.9-8.58-8.58-8.58-4.62 0-8.52 3.9-8.52 8.58v16.62c0 1.68-1.26 2.64-2.64 2.64-1.26 0-2.52-.9-2.52-2.58v-26.82c0-1.74 1.26-2.52 2.52-2.52 1.2 0 2.28.66 2.58 1.98 2.34-1.86 5.28-3 8.58-3 7.44 0 13.68 6.18 13.68 13.68v16.62c0 1.68-1.2 2.58-2.58 2.58z"/><path id="n" d="M563.97 112.942l-16.2 36.838c-1.2 2.76-3.84 4.02-6.6 4.02h-1.92c-1.74 0-2.52-1.26-2.52-2.64 0-1.26.78-2.52 2.52-2.52h1.86c.78 0 1.62-.12 1.98-.96l3.96-8.88-11.7-25.86a2.17 2.17 0 0 1-.3-1.14c0-1.5 1.44-2.52 2.76-2.52.9 0 1.68.48 2.16 1.56l9.78 21.72 9.54-21.72c.48-1.08 1.38-1.5 2.22-1.5 1.38 0 2.76 1.02 2.76 2.46a2.04 2.04 0 0 1-.3 1.14z"/></defs></svg>