<svg xmlns="http://www.w3.org/2000/svg" xmlns:xlink="http://www.w3.org/1999/xlink" viewBox="0 0 1080 1080"><defs><radialGradient id="A" cx="540" cy="540" r="460.6" gradientUnits="userSpaceOnUse"><stop offset="0" stop-color="#34e89e"/><stop offset="1" stop-color="#0f3443"/></radialGradient><radialGradient id="B" cx="541.144" cy="588.431" r="565.753" gradientUnits="userSpaceOnUse"><stop offset="0" stop-color="#aaffa9"/><stop offset=".113" stop-color="#93ffac"/><stop offset=".414" stop-color="#5cffb3"/><stop offset=".672" stop-color="#33ffb9"/><stop offset=".876" stop-color="#1affbc"/><stop offset="1" stop-color="#11ffbd"/></radialGradient><path id="C" d="M193.546 423.145h-.68c-3.8 0-5.24-2-5.24-5.28v-12.558h-1.2a1.7 1.7 0 0 1-.04-3.399h1.2v-5.56a1.624 1.624 0 0 1 1.72-1.68 1.593 1.593 0 0 1 1.68 1.68v5.56h2.56a1.658 1.658 0 0 1 1.68 1.68 1.627 1.627 0 0 1-1.68 1.72h-2.56v12.918c0 1.12.4 1.52 1.52 1.52h1a1.65 1.65 0 0 1 1.72 1.68 1.627 1.627 0 0 1-1.68 1.72z"/><path id="D" d="M168.372 706.4a2.879 2.879 0 1 1 2.879-2.88 2.868 2.868 0 0 1-2.879 2.88zm0 24.476a1.68 1.68 0 0 1-1.76-1.68v-17.837a1.688 1.688 0 0 1 1.76-1.72 1.647 1.647 0 0 1 1.68 1.72v17.837a1.613 1.613 0 0 1-1.68 1.68z"/><path id="E" d="M211.048 730.875a1.615 1.615 0 0 1-1.68-1.68v-11.118a5.699 5.699 0 1 0-11.398 0v11.078a1.7 1.7 0 0 1-1.759 1.76 1.648 1.648 0 0 1-1.68-1.72v-17.877a1.592 1.592 0 0 1 1.68-1.68 1.673 1.673 0 0 1 1.72 1.32 9.134 9.134 0 0 1 14.837 7.118v11.078a1.636 1.636 0 0 1-1.72 1.72z"/><path id="F" d="M227.21 739.994c-2.44 0-8.48-.88-8.48-3.28a1.861 1.861 0 0 1 1.72-1.799c.92 0 .12.12 2.24.92a12.482 12.482 0 0 0 4.519.761c4.44 0 6.6-2.12 6.6-6.32v-1.8a9.358 9.358 0 0 1-6.599 2.399c-6.32 0-10.038-4.48-10.038-10.638 0-6 3.6-11.278 10.038-11.278a8.618 8.618 0 0 1 6.599 2.56v-.16a1.702 1.702 0 0 1 1.72-1.72 1.679 1.679 0 0 1 1.72 1.72v18.917c0 6.358-3.8 9.72-10.04 9.72zm0-27.636c-4 0-6.6 3.12-6.6 7.88 0 4.56 2.4 7.238 6.6 7.238s6.6-2.68 6.6-7.238c0-4.76-2.56-7.88-6.6-7.88z"/><path id="G" d="M154.872 789.787a7.304 7.304 0 0 0 5.51-2.482 8.706 8.706 0 0 0 2.059-5.934 9.822 9.822 0 0 0-2.422-6.902 8.525 8.525 0 0 0-6.297-2.422h-.727q-.606.062-.545-.605v-2.906q-.06-.665.545-.545h.363a8.094 8.094 0 0 0 5.934-2.361 8.543 8.543 0 0 0 2.301-6.176q-.363-6.416-6.297-6.78a6.212 6.212 0 0 0-4.299 1.635 7.529 7.529 0 0 0-2.24 4.783q0 .85-.605.727h-3.27c-.484.082-.666-.12-.545-.605a12.036 12.036 0 0 1 3.451-7.689 10.817 10.817 0 0 1 15.258 0 11.286 11.286 0 0 1 3.148 7.932 10.703 10.703 0 0 1-2.059 6.539 11.49 11.49 0 0 1-4.238 3.512c-.324.203-.303.424.06.666a13.279 13.279 0 0 1 4.662 3.572q2.3 2.604 2.422 7.63a13.174 13.174 0 0 1-3.512 8.9 12.125 12.125 0 0 1-8.719 3.814 11.724 11.724 0 0 1-8.113-3.148 12.342 12.342 0 0 1-3.693-8.779c-.082-.242.1-.402.545-.484h3.27q.666-.12.666.727.545 7.084 7.387 7.387h0z"/><path id="H" d="M206.327 749.556a4.57 4.57 0 0 1 1.2 3.177v2.188a4.57 4.57 0 0 1-1.2 3.177 4.389 4.389 0 0 1-6.177 0 4.492 4.492 0 0 1-1.235-3.177v-2.188a4.492 4.492 0 0 1 1.235-3.177 4.387 4.387 0 0 1 6.177 0zm-4.765 24.71h-1.553c-.282.023-.353-.094-.212-.354l14.543-24.744q.14-.423.46-.353h1.553q.388-.035.212.317l-14.578 24.744q-.142.423-.424.39zm-.67-19.45q.14 2.47 2.33 2.507 2.224-.035 2.33-2.507v-1.977q-.106-2.47-2.33-2.506-2.19.035-2.33 2.506zm9.142 18.71a4.445 4.445 0 0 1-1.235-3.142v-2.153a4.447 4.447 0 0 1 1.235-3.142 4.202 4.202 0 0 1 3.071-1.235 4.245 4.245 0 0 1 3.106 1.235 4.526 4.526 0 0 1 1.2 3.142v2.153a4.524 4.524 0 0 1-1.2 3.142 4.389 4.389 0 0 1-6.177 0zm5.4-3.248v-1.94q-.106-2.4-2.33-2.436-2.19.037-2.33 2.436v1.94q.14 2.436 2.33 2.472 2.224-.035 2.33-2.472h0z"/><path id="I" d="M470.412 563.602a1.965 1.965 0 0 1-2.016-2.016v-15.122a5.065 5.065 0 0 0-10.129-.048v15.122a1.963 1.963 0 0 1-2.064 2.063 1.939 1.939 0 0 1-2.016-2.016v-15.122a5.089 5.089 0 0 0-10.177-.048v15.122a2 2 0 0 1-2.112 2.063 1.965 1.965 0 0 1-2.017-2.016v-21.458a2.106 2.106 0 0 1 3.84-1.152 9.252 9.252 0 0 1 5.329-1.68 9.088 9.088 0 0 1 7.153 3.408 8.992 8.992 0 0 1 7.104-3.408 9.168 9.168 0 0 1 9.217 9.12v15.122a2.001 2.001 0 0 1-2.112 2.063z"/><path id="J" d="M399.065 860.997h-14.798c.56 3.76 2.96 6.158 6.48 6.158a6.003 6.003 0 0 0 4.759-2.079 1.653 1.653 0 0 1 1.24-.64 1.867 1.867 0 0 1 1.8 1.76c0 .48-.12.84-.96 1.68a9.746 9.746 0 0 1-6.839 2.679c-6.44 0-10.038-5.318-10.038-11.317 0-5.96 3.6-11.278 10.038-11.278 6.52 0 10 5.32 10 11.278a1.705 1.705 0 0 1-1.68 1.76zm-8.32-9.64c-3.76 0-5.96 2.76-6.48 6.2h12.958c-.56-3.84-2.96-6.2-6.48-6.2z"/><path id="K" d="M583.988 289.534h-11.84c.448 3.008 2.368 4.928 5.184 4.928a4.804 4.804 0 0 0 3.808-1.664 1.324 1.324 0 0 1 .992-.512 1.493 1.493 0 0 1 1.44 1.408c0 .384-.096.672-.768 1.344a7.797 7.797 0 0 1-5.472 2.144c-5.15 0-8.03-4.256-8.03-9.055 0-4.768 2.88-9.023 8.03-9.023 5.216 0 8 4.256 8 9.023a1.364 1.364 0 0 1-1.344 1.408zm-6.656-7.71c-3.007 0-4.768 2.208-5.184 4.96h10.368c-.448-3.072-2.368-4.96-5.184-4.96z"/><path id="L" d="M633.01 296.637a3.114 3.114 0 0 1-2.848-1.824 7.332 7.332 0 0 1-5.632 2.368c-5.215 0-8.03-4.288-8.03-9.055s2.88-9.023 8.03-9.023a7.07 7.07 0 0 1 5.28 2.112v-.128a1.32 1.32 0 0 1 1.344-1.44 1.286 1.286 0 0 1 1.408 1.344v12.35a.518.518 0 0 0 .448.576 1.36 1.36 0 1 1 0 2.72zm-8.48-14.815c-3.2 0-5.28 2.496-5.28 6.304 0 3.84 2.08 6.335 5.28 6.335 3.232 0 5.28-2.496 5.28-6.335 0-3.808-2.048-6.304-5.28-6.304z"/><path id="M" d="M588.45 340.633q-.05.49.44.44h14.258q.537-.097.44.44v2.637q.097.538-.44.488h-17.92q-.538.048-.44-.488v-2.686q.244-6.592 3.81-10a90.971 90.971 0 0 1 7.08-6.152 9.228 9.228 0 0 0 3.857-7.031 6.59 6.59 0 0 0-1.465-4.297 4.988 4.988 0 0 0-3.955-1.758 5.428 5.428 0 0 0-4.297 1.855 7.047 7.047 0 0 0-1.611 4.395q.048.684-.537.586h-2.637q-.538.098-.44-.44a10.775 10.775 0 0 1 2.783-6.885 8.889 8.889 0 0 1 6.787-2.979 8.784 8.784 0 0 1 6.494 2.686 9.492 9.492 0 0 1 2.637 6.689 10.984 10.984 0 0 1-3.809 8.252l-7.08 5.908a11.315 11.315 0 0 0-3.955 8.35h0z"/><path id="N" d="M861.448 826.212a1.292 1.292 0 0 1-1.344-1.344v-8.895a4.56 4.56 0 1 0-9.119 0v8.863a1.361 1.361 0 0 1-1.408 1.408 1.319 1.319 0 0 1-1.344-1.376v-20.062a1.376 1.376 0 0 1 2.752-.032v5.535a6.449 6.449 0 0 1 4.543-1.632 7.355 7.355 0 0 1 7.296 7.296v8.863a1.309 1.309 0 0 1-1.376 1.376z"/><path id="O" d="M882.856 826.212a3.114 3.114 0 0 1-2.848-1.824 7.33 7.33 0 0 1-5.632 2.368c-5.215 0-8.03-4.288-8.03-9.056s2.88-9.023 8.03-9.023a7.07 7.07 0 0 1 5.28 2.112v-.128a1.32 1.32 0 0 1 1.344-1.44 1.287 1.287 0 0 1 1.408 1.344v12.352a.518.518 0 0 0 .447.576 1.36 1.36 0 1 1 0 2.72zm-8.48-14.815c-3.2 0-5.28 2.496-5.28 6.304 0 3.84 2.08 6.336 5.28 6.336 3.232 0 5.28-2.496 5.28-6.336 0-3.808-2.048-6.304-5.28-6.304z"/><path id="P" d="M995.692 486.955h-10.36c.392 2.632 2.072 4.312 4.536 4.312a4.203 4.203 0 0 0 3.332-1.456 1.158 1.158 0 0 1 .868-.448 1.307 1.307 0 0 1 1.26 1.232c0 .336-.084.588-.672 1.176a6.823 6.823 0 0 1-4.788 1.876c-4.508 0-7.028-3.724-7.028-7.924 0-4.172 2.52-7.896 7.028-7.896 4.564 0 7 3.724 7 7.896a1.194 1.194 0 0 1-1.176 1.232zm-5.824-6.748c-2.632 0-4.172 1.932-4.536 4.34h9.072c-.392-2.688-2.072-4.34-4.536-4.34z"/><path id="Q" d="M538.086 1046.357c-1.2 0-3.22-.42-3.92-1.58a.478.478 0 0 1-.08-.299.546.546 0 0 1 1.021-.32 3.815 3.815 0 0 0 2.98 1.061c1.94 0 2.92-.64 2.92-1.94 0-3.02-6.562-1.42-6.562-5.422 0-2.02 2.02-2.8 3.84-2.8a5.415 5.415 0 0 1 3.44 1.16.556.556 0 0 1 .18.379.647.647 0 0 1-.62.6.527.527 0 0 1-.38-.16 4.001 4.001 0 0 0-2.62-.84c-1.76 0-2.7.682-2.7 1.66 0 2.8 6.562 1.32 6.562 5.422 0 2.28-2 3.08-4.06 3.08z"/><path id="R" d="M548.807 1046.318c-3.22 0-5.02-2.64-5.02-5.662 0-3 1.8-5.64 5.02-5.64s5.02 2.64 5.02 5.64c0 3.02-1.8 5.662-5.02 5.662zm0-10.162c-2.36 0-3.88 1.9-3.88 4.5s1.52 4.52 3.88 4.52c2.38 0 3.88-1.92 3.88-4.52s-1.5-4.5-3.88-4.5z"/><path id="S" d="M564.587 1045.98a.563.563 0 0 1-.58-.561v-.64a4.443 4.443 0 0 1-3.421 1.541 4.61 4.61 0 0 1-4.561-4.561v-5.842a.57.57 0 0 1 1.14 0v5.842a3.421 3.421 0 0 0 6.842 0v-5.842a.57.57 0 0 1 1.141 0v9.502a.559.559 0 0 1-.561.561z"/><path id="T" d="M572.546 1036.336a3.418 3.418 0 0 0-3.421 3.42v5.662a.57.57 0 0 1-1.141 0v-9.502a.57.57 0 0 1 1.141 0v.82a4.566 4.566 0 0 1 3.421-1.541.57.57 0 1 1 0 1.141z"/><path id="U" d="M582.727 1044.797a4.646 4.646 0 0 1-3.58 1.521c-3.22 0-5.02-2.64-5.02-5.662 0-3 1.8-5.64 5.02-5.64a4.651 4.651 0 0 1 3.58 1.52.534.534 0 0 1 .16.381.626.626 0 0 1-.58.6.586.586 0 0 1-.42-.199 3.526 3.526 0 0 0-2.74-1.16c-2.36 0-3.88 1.9-3.88 4.5s1.52 4.52 3.88 4.52a3.592 3.592 0 0 0 2.74-1.16.586.586 0 0 1 .42-.199.594.594 0 0 1 .58.58.569.569 0 0 1-.16.398z"/><path id="V" d="M594.307 1041.236h-8.302c.18 2.28 1.66 3.94 3.84 3.94a3.615 3.615 0 0 0 2.94-1.381.526.526 0 0 1 .479-.279.611.611 0 0 1 .62.541c0 .18 0 .22-.38.658a4.718 4.718 0 0 1-3.66 1.602c-3.22 0-5.02-2.64-5.02-5.662 0-3 1.8-5.64 5.02-5.64s5.02 2.66 5.02 5.64a.605.605 0 0 1-.56.58zm-4.46-5.08c-2.4 0-3.66 1.84-3.84 3.94h7.7c-.18-2.28-1.66-3.94-3.86-3.94z"/><path id="W" d="M640.805 1046.318a4.54 4.54 0 0 1-3.881-1.9v1a.57.57 0 0 1-1.141 0v-13.123a.57.57 0 0 1 1.141 0v4.602a4.574 4.574 0 0 1 3.881-1.881c3.22 0 5.02 2.64 5.02 5.64 0 3.02-1.8 5.662-5.02 5.662zm0-10.162c-2.38 0-3.88 1.9-3.88 4.5s1.5 4.52 3.88 4.52 3.88-1.92 3.88-4.52-1.5-4.5-3.88-4.5z"/><path id="X" d="M658.646 1045.98h-.02a2.073 2.073 0 0 1-1.98-1.561 4.538 4.538 0 0 1-3.88 1.9c-3.26 0-5.02-2.682-5.02-5.662 0-3.02 1.8-5.64 5.02-5.64a4.572 4.572 0 0 1 3.88 1.881v-.98a.565.565 0 0 1 .581-.561.547.547 0 0 1 .56.561v8.063c0 1.28 1.44.48 1.44 1.44a.55.55 0 0 1-.58.561zm-5.88-9.822c-2.36 0-3.88 1.9-3.88 4.5s1.52 4.52 3.88 4.52c2.38 0 3.88-1.92 3.88-4.52s-1.5-4.5-3.88-4.5z"/><path id="Y" d="M669.605 1045.98a.563.563 0 0 1-.58-.561v-5.842a3.42 3.42 0 0 0-6.841 0v5.842a.57.57 0 0 1-1.141 0v-9.502a.57.57 0 0 1 1.141 0v.64a4.563 4.563 0 0 1 7.981 3.02v5.842a.558.558 0 0 1-.561.561z"/><path id="Z" d="M688.026 1045.98a.585.585 0 0 1-.521-.34l-1.28-3.082h-7.2l-1.28 3.082a.564.564 0 0 1-1.081-.201.589.589 0 0 1 .04-.26l5.4-13.104a.632.632 0 0 1 .58-.379.516.516 0 0 1 .48.379l5.4 13.104a.589.589 0 0 1 .04.26.56.56 0 0 1-.58.541zm-5.4-12.184l-3.14 7.623h6.3z"/><path id="a" d="M711.146 1045.98a.564.564 0 0 1-.581-.561v-1a4.538 4.538 0 0 1-3.88 1.9c-3.22 0-5.02-2.64-5.02-5.662 0-3 1.8-5.64 5.02-5.64a4.572 4.572 0 0 1 3.88 1.881v-4.602a.57.57 0 0 1 1.141 0v13.123a.558.558 0 0 1-.56.561zm-4.46-9.822c-2.36 0-3.88 1.9-3.88 4.5s1.52 4.52 3.88 4.52c2.38 0 3.88-1.92 3.88-4.52s-1.5-4.5-3.88-4.5z"/><path id="b" d="M725.362 1047.758a.513.513 0 0 1-.3.08.559.559 0 0 1-.54-.58c0-.56.86-.64 1-1.28a1.152 1.152 0 0 1 .08-2.301c.98 0 1.2 1 1.2 1.62a2.852 2.852 0 0 1-1.44 2.459z"/><path id="c" d="M869.32 1046.258a3.598 3.598 0 0 1-3.621-3.58.58.58 0 0 1 1.16 0 2.433 2.433 0 0 0 2.421 2.439 2.459 2.459 0 0 0 2.48-2.439v-10.383a.547.547 0 0 1 .56-.561.564.564 0 0 1 .581.561v10.383a3.603 3.603 0 0 1-3.581 3.58z"/><path id="d" d="M104.714 1045.51a1.36 1.36 0 0 1-1.4-1.101 7.763 7.763 0 0 1-4.804 1.668 7.666 7.666 0 0 1-7.604-7.605v-9.24a1.434 1.434 0 0 1 2.868-.033v9.272a4.753 4.753 0 1 0 9.507 0v-9.24a1.33 1.33 0 0 1 1.4-1.468 1.364 1.364 0 0 1 1.435 1.435v14.9a1.328 1.328 0 0 1-1.401 1.4z"/><path id="e" d="M139.953 43.282a4.32 4.32 0 1 1 4.32-4.319 4.302 4.302 0 0 1-4.32 4.319zm0 36.72a2.52 2.52 0 0 1-2.64-2.52v-26.76a2.534 2.534 0 0 1 2.64-2.58 2.472 2.472 0 0 1 2.52 2.58v26.76a2.421 2.421 0 0 1-2.52 2.52z"/><path id="f" d="M258.27 81.02c-9.66 0-15.06-7.92-15.06-16.98 0-9 5.4-16.92 15.06-16.92s15.06 7.92 15.06 16.92c0 9.06-5.4 16.98-15.06 16.98zm0-28.8c-6 0-9.9 4.68-9.9 11.82 0 7.2 3.9 11.88 9.9 11.88 6.06 0 9.9-4.68 9.9-11.88 0-7.14-3.84-11.82-9.9-11.82z"/><path id="g" d="M57.388 104.18a2.167 2.167 0 1 1 2.119-2.166 2.118 2.118 0 0 1-2.119 2.166zm0 23.822a1.031 1.031 0 0 1-1.077-1.063V108.9a1.034 1.034 0 0 1 1.077-1.063 1.023 1.023 0 0 1 1.041 1.063v18.048a1.005 1.005 0 0 1-1.041 1.064z"/><path id="h" d="M69.767 128h-1.152c-2.937 0-4.386-1.48-4.386-4.445V109.99h-1.896a1.083 1.083 0 0 1 0-2.165h1.896v-5.814a1.055 1.055 0 0 1 1.078-1.063 1.025 1.025 0 0 1 1.04 1.063v5.813h3.42a1.083 1.083 0 0 1 0 2.165h-3.42v13.564c0 1.86.52 2.28 2.268 2.28h1.152a1.084 1.084 0 0 1 0 2.166z"/><path id="i" d="M107.798 128.723c-2.23 0-5.984-.798-7.285-3a.936.936 0 0 1-.148-.57 1.151 1.151 0 0 1 1.077-1.14 1.139 1.139 0 0 1 .818.532c1.338 1.67 3.717 2.014 5.538 2.014 3.605 0 5.427-1.216 5.427-3.686 0-5.737-12.19-2.698-12.19-10.297 0-3.837 3.754-5.32 7.137-5.32 1.933 0 4.906.685 6.393 2.204a1.071 1.071 0 0 1 .335.722 1.217 1.217 0 0 1-1.152 1.14.975.975 0 0 1-.706-.304 7.326 7.326 0 0 0-4.869-1.596c-3.27 0-5.02 1.292-5.02 3.153 0 5.32 12.192 2.508 12.192 10.297 0 4.33-3.717 5.85-7.546 5.85z"/><path id="j" d="M225.084 128a1.025 1.025 0 0 1-1.04-1.063V114.17a4.74 4.74 0 1 0-9.479-.038v12.805a1.025 1.025 0 0 1-1.041 1.063 1.055 1.055 0 0 1-1.078-1.063V114.17a4.722 4.722 0 1 0-9.441-.038v12.805a1.059 1.059 0 1 1-2.118 0V108.9a1.059 1.059 0 1 1 2.118 0v.23a6.68 6.68 0 0 1 4.721-1.938 6.858 6.858 0 0 1 5.799 3.229 6.833 6.833 0 0 1 12.638 3.724v12.805a1.055 1.055 0 0 1-1.078 1.064z"/><path id="k" d="M238.842 128.646c-5.984 0-9.33-5.015-9.33-10.752 0-5.7 3.346-10.715 9.33-10.715s9.33 5.016 9.33 10.715c0 5.737-3.346 10.752-9.33 10.752zm0-19.3c-4.386 0-7.21 3.61-7.21 8.55s2.825 8.587 7.21 8.587c4.423 0 7.21-3.647 7.21-8.587s-2.788-8.55-7.21-8.55z"/><path id="l" d="M368.842 125.76a8.547 8.547 0 0 1-6.653 2.887c-5.984 0-9.33-5.015-9.33-10.752 0-5.7 3.346-10.715 9.33-10.715a8.547 8.547 0 0 1 6.653 2.888 1.021 1.021 0 0 1 .298.722 1.18 1.18 0 0 1-1.078 1.141 1.085 1.085 0 0 1-.78-.38 6.488 6.488 0 0 0-5.093-2.204c-4.386 0-7.21 3.61-7.21 8.55s2.825 8.587 7.21 8.587a6.613 6.613 0 0 0 5.093-2.204 1.085 1.085 0 0 1 .78-.38 1.107 1.107 0 0 1 .78 1.862z"/><path id="m" d="M397.02 118.996h-15.426c.335 4.332 3.085 7.485 7.137 7.485a6.663 6.663 0 0 0 5.464-2.622.971.971 0 0 1 .893-.531 1.145 1.145 0 0 1 1.152 1.025c0 .342 0 .418-.707 1.254a8.688 8.688 0 0 1-6.802 3.039c-5.984 0-9.33-5.015-9.33-10.752 0-5.7 3.346-10.715 9.33-10.715s9.33 5.054 9.33 10.715a1.138 1.138 0 0 1-1.041 1.102zm-8.29-9.65c-4.46 0-6.802 3.495-7.137 7.485h14.31c-.335-4.332-3.085-7.485-7.174-7.485z"/></defs><rect width="1080" height="1080" rx="40" fill="url(#A)"/><path d="M377.45 440.825a154.807 154.807 0 1 1-154.807-154.807 154.807 154.807 0 0 1 154.807 154.807zm-200.7 152.03a145.701 145.701 0 1 0 145.701 145.701 145.701 145.701 0 0 0-145.701-145.701zm642.064-58.6a113.829 113.829 0 1 0 113.829 113.829 113.829 113.829 0 0 0-113.829-113.829zM530 395.407a182.126 182.126 0 1 0 182.126 182.126A182.126 182.126 0 0 0 530 395.407zM425.088 740.96a136.595 136.595 0 1 0 136.595 136.595 136.595 136.595 0 0 0-136.595-136.595zm259.53-20.34a122.935 122.935 0 1 0 122.935 122.935A122.935 122.935 0 0 0 684.618 720.62zm98.98-401.07a109.276 109.276 0 1 0 109.276 109.276 109.276 109.276 0 0 0-109.276-109.276zm-171.64-111.602a100.169 100.169 0 1 0 100.169 100.169 100.169 100.169 0 0 0-100.169-100.169zM417.07 185.4a95.616 95.616 0 1 0 95.616 95.616 95.616 95.616 0 0 0-95.616-95.616zm481.547 561.09a91.063 91.063 0 1 0 91.063 91.063 91.063 91.063 0 0 0-91.063-91.063zm66.11-324.178a86.51 86.51 0 1 0 86.51 86.51 86.51 86.51 0 0 0-86.51-86.51zm-189.01-259.602a77.404 77.404 0 1 0 77.404 77.404 77.404 77.404 0 0 0-77.404-77.404z" fill="url(#B)"/><path d="M171.265 423.864a10.018 10.018 0 0 1-10.038-10.038V396.35a1.72 1.72 0 0 1 3.439 0v17.477a6.619 6.619 0 1 0 13.238 0V396.39a1.7 1.7 0 1 1 3.399-.04v17.477a10.019 10.019 0 0 1-10.039 10.038z"/><use xlink:href="#C"/><path d="M207.945 404.627a5.762 5.762 0 0 0-5.679 5.719v11.078a1.667 1.667 0 0 1-1.759 1.72 1.638 1.638 0 0 1-1.68-1.68v-17.837a1.694 1.694 0 0 1 1.68-1.72 1.641 1.641 0 0 1 1.719 1.36 9.25 9.25 0 0 1 5.719-2.04 1.701 1.701 0 1 1 0 3.399zm20.59 9.64h-14.798c.56 3.76 2.96 6.16 6.48 6.16a6.002 6.002 0 0 0 4.759-2.08 1.655 1.655 0 0 1 1.24-.64 1.867 1.867 0 0 1 1.8 1.76c0 .48-.12.84-.96 1.68a9.746 9.746 0 0 1-6.839 2.679c-6.44 0-10.038-5.32-10.038-11.318 0-5.96 3.6-11.278 10.038-11.278 6.52 0 10 5.32 10 11.278a1.705 1.705 0 0 1-1.68 1.76zm-8.32-9.64c-3.76 0-5.96 2.76-6.48 6.2h12.958c-.56-3.84-2.96-6.2-6.48-6.2zm30.6 16.16a9.289 9.289 0 0 1-7.159 3.039c-6.44 0-10.038-5.28-10.038-11.318 0-6 3.6-11.278 10.038-11.278a9.29 9.29 0 0 1 7.159 3.04 1.741 1.741 0 0 1 .48 1.16 1.863 1.863 0 0 1-1.8 1.72 1.893 1.893 0 0 1-1.24-.56 5.875 5.875 0 0 0-4.599-1.96c-4 0-6.6 3.12-6.6 7.88 0 4.8 2.6 7.918 6.6 7.918a5.947 5.947 0 0 0 4.599-1.959 1.597 1.597 0 0 1 1.24-.6 1.727 1.727 0 0 1 1.32 2.92zm21.32 2.36a1.615 1.615 0 0 1-1.68-1.68v-11.118a5.699 5.699 0 1 0-11.398 0v11.078a1.7 1.7 0 0 1-1.759 1.76 1.648 1.648 0 0 1-1.68-1.72V396.4a1.72 1.72 0 0 1 3.439-.04v6.92a8.065 8.065 0 0 1 5.679-2.04 9.193 9.193 0 0 1 9.119 9.119v11.078a1.636 1.636 0 0 1-1.72 1.72z"/><use xlink:href="#C" x="92.39"/><path d="M200.123 482.057a7.305 7.305 0 0 0 5.51-2.482 8.706 8.706 0 0 0 2.059-5.934 9.821 9.821 0 0 0-2.422-6.902 8.523 8.523 0 0 0-6.297-2.422h-.727q-.606.06-.545-.605v-2.906q-.06-.666.545-.545h.363a8.097 8.097 0 0 0 5.934-2.361 8.544 8.544 0 0 0 2.301-6.176q-.363-6.417-6.297-6.78a6.212 6.212 0 0 0-4.299 1.635 7.528 7.528 0 0 0-2.24 4.783q0 .85-.605.727h-3.27q-.727.122-.545-.605a12.034 12.034 0 0 1 3.451-7.689 10.817 10.817 0 0 1 15.258 0 11.285 11.285 0 0 1 3.148 7.932 10.705 10.705 0 0 1-2.059 6.539 11.495 11.495 0 0 1-4.238 3.512q-.486.304.06.666a13.273 13.273 0 0 1 4.662 3.572q2.3 2.604 2.422 7.63a13.176 13.176 0 0 1-3.512 8.9 12.125 12.125 0 0 1-8.719 3.814 11.726 11.726 0 0 1-8.113-3.148 12.343 12.343 0 0 1-3.693-8.779c-.082-.242.1-.403.545-.484h3.27q.666-.12.666.727.545 7.084 7.387 7.387h0zm36.18-11.565q-.06.667.545.605h3.693q.666-.12.545.545v2.967q.12.667-.545.605h-3.693q-.606-.12-.545.545v8.72q.12.787-.545.666h-3.088q-.606.12-.545-.666v-8.72q.12-.666-.545-.545h-14.047q-.606.06-.545-.605v-3.814l.242-1.03 12.896-27.67a.798.798 0 0 1 .848-.484h4.783q.666-.06.545.605zm-15.197 0q-.363.667.363.605h10.1q.666.06.545-.605v-22.645q-.122-.727-.484-.12zm31.712-28.667a4.571 4.571 0 0 1 1.2 3.177v2.188a4.571 4.571 0 0 1-1.2 3.177 4.389 4.389 0 0 1-6.177 0 4.493 4.493 0 0 1-1.235-3.177V445a4.493 4.493 0 0 1 1.235-3.177 4.388 4.388 0 0 1 6.177 0zm-4.765 24.7H246.5q-.423.035-.212-.353l14.543-24.744q.14-.424.46-.353h1.553q.388-.035.212.317l-14.578 24.745q-.142.423-.424.388zm-.67-19.45q.14 2.47 2.33 2.506 2.224-.034 2.33-2.506v-1.977q-.106-2.47-2.33-2.506-2.2.036-2.33 2.506zm9.142 18.7a4.444 4.444 0 0 1-1.235-3.142V460.5a4.447 4.447 0 0 1 1.235-3.142 4.206 4.206 0 0 1 3.071-1.235 4.249 4.249 0 0 1 3.106 1.235 4.525 4.525 0 0 1 1.2 3.142v2.153a4.523 4.523 0 0 1-1.2 3.142 4.388 4.388 0 0 1-6.177 0zm5.4-3.248v-1.94q-.106-2.4-2.33-2.436-2.2.036-2.33 2.436v1.94q.14 2.436 2.33 2.47 2.224-.035 2.33-2.47h0zM130.53 730.875h-10.758a1.82 1.82 0 0 1-1.76-1.68V704.12a1.674 1.674 0 0 1 1.68-1.72h9.918a7.503 7.503 0 0 1 7.479 7.398 7.202 7.202 0 0 1-2.28 5.319 8.272 8.272 0 0 1 4.199 7.278 8.534 8.534 0 0 1-8.479 8.479zm-.92-25.075h-8.16v8.078h8.16a4.039 4.039 0 1 0 0-8.078zm.92 11.478h-9.08v10.198h9.08a5.099 5.099 0 0 0 0-10.198zm30 4.72h-14.798c.56 3.76 2.96 6.158 6.48 6.158a6.003 6.003 0 0 0 4.759-2.079 1.653 1.653 0 0 1 1.24-.64 1.867 1.867 0 0 1 1.8 1.76c0 .48-.12.84-.96 1.68a9.746 9.746 0 0 1-6.839 2.679c-6.44 0-10.038-5.318-10.038-11.317 0-5.96 3.6-11.278 10.038-11.278 6.52 0 10 5.32 10 11.278a1.705 1.705 0 0 1-1.68 1.76zm-8.32-9.64c-3.76 0-5.96 2.76-6.48 6.2h12.97c-.56-3.84-2.96-6.2-6.48-6.2z"/><use xlink:href="#D"/><path d="M174.532 739.313a2.689 2.689 0 0 1-.72.12 1.665 1.665 0 0 1-1.64-1.72 1.782 1.782 0 0 1 1.04-1.6 4.194 4.194 0 0 0 2.759-4.119v-20.637a1.72 1.72 0 0 1 3.439-.04v20.677a7.702 7.702 0 0 1-4.879 7.318zm3.16-32.914a2.88 2.88 0 1 1 2.84-2.88 2.834 2.834 0 0 1-2.84 2.88z"/><use xlink:href="#D" x="18.628"/><use xlink:href="#E"/><use xlink:href="#F"/><use xlink:href="#G"/><path d="M175.765 787.9q-.06.606.545.545H194q.666-.12.545.545v3.27c.08.445-.1.646-.545.605h-22.22c-.445.04-.626-.16-.545-.605v-3.33q.302-8.174 4.723-12.412a113.112 113.112 0 0 1 8.779-7.629 11.442 11.442 0 0 0 4.783-8.719 8.172 8.172 0 0 0-1.816-5.328 6.189 6.189 0 0 0-4.904-2.18 6.734 6.734 0 0 0-5.328 2.301 8.741 8.741 0 0 0-1.998 5.449q.06.85-.666.727h-3.27q-.667.123-.545-.545a13.36 13.36 0 0 1 3.451-8.537 11.026 11.026 0 0 1 8.416-3.693 10.893 10.893 0 0 1 8.053 3.33 11.775 11.775 0 0 1 3.27 8.295q-.363 6.6-4.723 10.232l-8.78 7.326q-4.42 3.633-4.904 10.354h0z"/><use xlink:href="#H"/><path d="M788.308 634.465a1.483 1.483 0 0 1-1.512-1.548V616.36l-6.983 13.03a1.576 1.576 0 0 1-1.439.972 1.715 1.715 0 0 1-1.44-.972l-6.947-12.958v16.485a1.5 1.5 0 0 1-1.584 1.548 1.483 1.483 0 0 1-1.512-1.548V610.42a1.516 1.516 0 0 1 1.656-1.62 1.38 1.38 0 0 1 1.296.9l8.53 15.874 8.567-15.874a1.383 1.383 0 0 1 1.404-.9 1.491 1.491 0 0 1 1.548 1.62v22.497a1.501 1.501 0 0 1-1.584 1.548zm24.445-.035a3.501 3.501 0 0 1-3.204-2.052 8.248 8.248 0 0 1-6.335 2.664c-5.867 0-9.035-4.823-9.035-10.187s3.24-10.15 9.035-10.15a7.955 7.955 0 0 1 5.939 2.376v-.144a1.485 1.485 0 0 1 1.512-1.62 1.447 1.447 0 0 1 1.584 1.512v13.895a.582.582 0 0 0 .504.647 1.53 1.53 0 1 1 0 3.06zm-9.54-16.666c-3.6 0-5.94 2.808-5.94 7.092 0 4.32 2.34 7.127 5.94 7.127 3.636 0 5.94-2.808 5.94-7.127 0-4.284-2.304-7.092-5.94-7.092zm17.82 16.736a3.673 3.673 0 0 1-3.6-3.672v-20.48a1.548 1.548 0 0 1 3.096-.036v20.518a.568.568 0 0 0 .504.612 1.53 1.53 0 1 1 0 3.06zm27.716-.07a1.474 1.474 0 0 1-1.512-1.512v-11.34a3.798 3.798 0 1 0-7.595-.035v11.338a1.472 1.472 0 0 1-1.548 1.548 1.454 1.454 0 0 1-1.512-1.512v-11.34a3.816 3.816 0 0 0-7.631-.035v11.338a1.5 1.5 0 0 1-1.583 1.548 1.474 1.474 0 0 1-1.512-1.512v-16.1a1.579 1.579 0 0 1 2.88-.864 6.934 6.934 0 0 1 3.996-1.26 6.817 6.817 0 0 1 5.363 2.556 6.745 6.745 0 0 1 5.327-2.556 6.875 6.875 0 0 1 6.911 6.84v11.338a1.5 1.5 0 0 1-1.584 1.548zm14.583.6c-5.795 0-9.035-4.752-9.035-10.187 0-5.4 3.24-10.15 9.035-10.15s9.035 4.752 9.035 10.15c0 5.435-3.24 10.187-9.035 10.187zm-4.104-23.073a2.491 2.491 0 0 1-2.556-2.52 2.574 2.574 0 1 1 2.556 2.52zm4.104 5.795c-3.6 0-5.94 2.808-5.94 7.092 0 4.32 2.34 7.127 5.94 7.127 3.636 0 5.94-2.808 5.94-7.127 0-4.284-2.304-7.092-5.94-7.092zm4.104-5.795a2.521 2.521 0 0 1-2.592-2.52 2.581 2.581 0 0 1 2.592-2.592 2.556 2.556 0 0 1 0 5.111zM792.8 684.104q-.053.53.475.475h15.398q.58-.104.475.475v2.848c.07.388-.088.563-.475.527H789.32c-.387.035-.545-.14-.475-.527V685q.263-7.12 4.113-10.8a98.49 98.49 0 0 1 7.646-6.645 9.965 9.965 0 0 0 4.166-7.594 7.122 7.122 0 0 0-1.582-4.641 5.393 5.393 0 0 0-4.271-1.898 5.866 5.866 0 0 0-4.641 2.004 7.611 7.611 0 0 0-1.74 4.746q.052.74-.58.633h-2.848q-.58.107-.475-.475a11.638 11.638 0 0 1 3.006-7.436 9.604 9.604 0 0 1 7.33-3.217 9.49 9.49 0 0 1 7.014 2.9 10.254 10.254 0 0 1 2.848 7.225 11.861 11.861 0 0 1-4.113 8.912l-7.646 6.38a12.219 12.219 0 0 0-4.271 9.018h0zm24.392-4.324q.42 5.695 6.328 5.96a5.969 5.969 0 0 0 4.482-1.793 7.206 7.206 0 0 0 1.74-5.01v-4.8a6.906 6.906 0 0 0-1.529-4.641 5.674 5.674 0 0 0-4.43-1.898 7.715 7.715 0 0 0-5.221 1.793.6.6 0 0 1-.686.264h-2.584q-.58.107-.475-.475v-18.088q-.106-.58.475-.475h16.453q.58-.104.475.475v2.7q.105.582-.475.527H818.88q-.528-.104-.475.475v10.44c0 .316.158.388.475.2a11.138 11.138 0 0 1 5.221-1.213 9.345 9.345 0 0 1 6.855 2.689 9.939 9.939 0 0 1 2.689 7.225v4.8a10.325 10.325 0 0 1-3.006 7.541 10.45 10.45 0 0 1-7.277 2.9 9.791 9.791 0 0 1-7.066-2.795 10.167 10.167 0 0 1-2.9-6.961q-.106-.526.475-.475h2.742q.58-.05.58.633h0zm28.12-28.823a3.981 3.981 0 0 1 1.045 2.767v1.906a3.977 3.977 0 0 1-1.045 2.767 3.639 3.639 0 0 1-2.706 1.107 3.601 3.601 0 0 1-2.674-1.107 3.907 3.907 0 0 1-1.076-2.767v-1.906a3.91 3.91 0 0 1 1.076-2.767 3.605 3.605 0 0 1 2.674-1.107 3.643 3.643 0 0 1 2.706 1.107zm-4.15 21.52h-1.353c-.246.02-.308-.08-.185-.308l12.667-21.55c.082-.246.215-.35.4-.308h1.353q.338-.03.185.276l-12.7 21.553c-.083.246-.205.358-.37.338zm-.584-16.94q.122 2.152 2.03 2.183 1.937-.03 2.03-2.183v-1.722q-.092-2.152-2.03-2.184-1.907.032-2.03 2.184zm7.963 16.294a3.869 3.869 0 0 1-1.076-2.736v-1.875a3.871 3.871 0 0 1 1.076-2.736 3.66 3.66 0 0 1 2.674-1.076 3.7 3.7 0 0 1 2.706 1.076 3.942 3.942 0 0 1 1.045 2.736v1.875a3.94 3.94 0 0 1-1.045 2.736 3.639 3.639 0 0 1-2.706 1.106 3.6 3.6 0 0 1-2.674-1.106zm4.704-2.828v-1.7q-.092-2.1-2.03-2.12-1.906.03-2.03 2.12v1.7q.122 2.12 2.03 2.152 1.937-.03 2.03-2.152h0zm-419.505-105.4a1.965 1.965 0 0 1-1.824-1.248l-2.544-6.24h-15.985l-2.592 6.24a1.951 1.951 0 0 1-1.776 1.248 2.12 2.12 0 0 1-2.16-2.016 1.579 1.579 0 0 1 .192-.816l12.337-30.003a2.096 2.096 0 0 1 1.968-1.487 2.179 2.179 0 0 1 1.968 1.487l12.385 30.003a2.241 2.241 0 0 1 .144.816 2.048 2.048 0 0 1-2.112 2.016zm-12.385-26.882l-6.3 15.265h12.577z"/><use xlink:href="#I"/><path d="M486.922 564.418c-2.64 0-7.057-.816-9.313-3.6a2.124 2.124 0 0 1 1.728-3.408 1.971 1.971 0 0 1 1.488.816c1.488 1.632 3.937 2.112 6.097 2.112 4.32 0 5.712-1.488 5.712-3.648 0-6.145-14.64-2.353-14.64-12.24 0-5.232 4.896-7.152 9.457-7.152 2.592 0 8.7 1.296 8.7 3.984a2.156 2.156 0 0 1-2.017 2.16 2.892 2.892 0 0 1-1.584-.624 7.78 7.78 0 0 0-5.088-1.44c-3.984 0-5.376 1.488-5.376 3.072 0 5.712 14.7 2.016 14.7 12.24 0 5.664-4.752 7.73-9.84 7.73zm22.896-.816h-.816c-4.56 0-6.3-2.4-6.3-6.336v-15.073h-1.44a2.041 2.041 0 0 1-.048-4.081h1.44v-6.672a1.949 1.949 0 0 1 2.064-2.017 1.912 1.912 0 0 1 2.016 2.017v6.672h3.072a1.99 1.99 0 0 1 2.016 2.017 1.953 1.953 0 0 1-2.016 2.064h-3.072v15.505c0 1.344.48 1.824 1.824 1.824h1.2a1.98 1.98 0 0 1 2.064 2.017 1.953 1.953 0 0 1-2.016 2.063zm27.264-10.657H519.32c.672 4.512 3.552 7.393 7.777 7.393a7.204 7.204 0 0 0 5.712-2.497 1.989 1.989 0 0 1 1.488-.768 2.241 2.241 0 0 1 2.16 2.112c0 .576-.144 1.008-1.152 2.016a11.698 11.698 0 0 1-8.208 3.217c-7.73 0-12.05-6.385-12.05-13.585 0-7.153 4.32-13.537 12.05-13.537 7.825 0 12 6.384 12 13.537a2.047 2.047 0 0 1-2.016 2.112zm-9.985-11.57c-4.513 0-7.153 3.313-7.777 7.44h15.553c-.672-4.608-3.552-7.44-7.776-7.44zm28.128.001a6.916 6.916 0 0 0-6.817 6.864v13.298a2 2 0 0 1-2.112 2.063 1.965 1.965 0 0 1-2.017-2.016v-21.4a2.034 2.034 0 0 1 2.017-2.064 1.97 1.97 0 0 1 2.064 1.633 11.101 11.101 0 0 1 6.865-2.448 2.041 2.041 0 1 1 0 4.08zm25.825 22.178a1.949 1.949 0 0 1-2.064-2.016 11.616 11.616 0 0 1-7.92 2.88c-7.73 0-12.05-6.337-12.05-13.585 0-7.2 4.32-13.537 12.05-13.537a10.575 10.575 0 0 1 7.92 3.12v-8.93a2.064 2.064 0 0 1 4.128-.048v30.1a1.949 1.949 0 0 1-2.064 2.016zm-9.985-22.178c-4.8 0-7.92 3.744-7.92 9.457 0 5.76 3.12 9.505 7.92 9.505 4.848 0 7.92-3.745 7.92-9.505 0-5.713-3.072-9.457-7.92-9.457zm42.53 22.226a4.67 4.67 0 0 1-4.272-2.736 11 11 0 0 1-8.449 3.553c-7.825 0-12.05-6.433-12.05-13.585s4.32-13.537 12.05-13.537a10.608 10.608 0 0 1 7.92 3.168v-.192a1.981 1.981 0 0 1 2.016-2.16 1.93 1.93 0 0 1 2.112 2.017v18.53a.777.777 0 0 0 .672.864 2.04 2.04 0 1 1 0 4.08zm-12.72-22.226c-4.8 0-7.92 3.744-7.92 9.457 0 5.76 3.12 9.505 7.92 9.505 4.848 0 7.92-3.745 7.92-9.505 0-5.713-3.072-9.457-7.92-9.457z"/><use xlink:href="#I" x="180.238"/><path d="M509.614 620.77c-.05.56.177.813.686.762h4.646q.837-.152.686.686v3.732q.152.84-.686.762H510.3q-.762-.152-.686.686v10.97q.152 1-.686.838h-3.885q-.762.15-.686-.838v-10.97q.152-.838-.686-.686H486c-.508.05-.737-.202-.686-.762v-4.8l.305-1.295 16.225-34.8a1.004 1.004 0 0 1 1.066-.609h6.018q.837-.075.686.762zm-19.12 0q-.457.84.457.762h12.72q.837.076.686-.762v-28.5q-.154-.914-.6-.152zm57.02-33.07a16.204 16.204 0 0 1 4.342 11.35v25.746a16.483 16.483 0 0 1-4.342 11.426 15.149 15.149 0 0 1-11.045 4.494 15.317 15.317 0 0 1-11.045-4.494 16.188 16.188 0 0 1-4.266-11.426V599.06a15.917 15.917 0 0 1 4.266-11.35 14.919 14.919 0 0 1 11.045-4.494 14.761 14.761 0 0 1 11.045 4.494zm-20.643 11.35v25.746a11.494 11.494 0 0 0 2.59 7.617 9.751 9.751 0 0 0 14.016 0 11.287 11.287 0 0 0 2.666-7.617V599.06a10.993 10.993 0 0 0-2.666-7.541 9.751 9.751 0 0 0-14.016 0 11.191 11.191 0 0 0-2.59 7.541h0zm42.483-14.863a5.754 5.754 0 0 1 1.51 3.997v2.753a5.752 5.752 0 0 1-1.51 3.997 5.258 5.258 0 0 1-3.908 1.599 5.202 5.202 0 0 1-3.863-1.599 5.648 5.648 0 0 1-1.554-3.997v-2.753a5.65 5.65 0 0 1 1.554-3.997 5.203 5.203 0 0 1 3.863-1.599 5.258 5.258 0 0 1 3.908 1.599zm-5.995 31.086h-1.954q-.532.044-.267-.444l18.296-31.13q.177-.533.577-.444h1.954q.5-.044.267.4l-18.34 31.13q-.178.532-.533.488zm-.844-24.47q.177 3.108 2.93 3.152 2.798-.044 2.93-3.152v-2.487q-.133-3.108-2.93-3.153-2.754.045-2.93 3.153zm11.5 23.536a5.594 5.594 0 0 1-1.554-3.952v-2.7a5.598 5.598 0 0 1 1.554-3.953 5.287 5.287 0 0 1 3.864-1.554 5.341 5.341 0 0 1 3.908 1.554 5.7 5.7 0 0 1 1.51 3.953v2.7a5.696 5.696 0 0 1-1.51 3.952 5.26 5.26 0 0 1-3.908 1.599 5.207 5.207 0 0 1-3.864-1.599zm6.794-4.086v-2.442q-.133-3.02-2.93-3.064-2.754.045-2.93 3.064v2.442q.177 3.064 2.93 3.108 2.798-.044 2.93-3.108h0zM328.305 866.196a10.246 10.246 0 0 1-8.918 4.358c-8.6 0-11.638-7.118-11.638-14.917 0-7.84 3.04-14.958 11.638-14.958a10.131 10.131 0 0 1 8.878 4.359 1.544 1.544 0 0 1 .36 1 1.733 1.733 0 0 1-1.76 1.68 1.674 1.674 0 0 1-1.36-.72c-1.24-1.8-3.08-2.88-6.12-2.88-5.68 0-8.2 4.2-8.2 11.52s2.52 11.518 8.2 11.518a6.874 6.874 0 0 0 6.119-2.919 1.615 1.615 0 0 1 1.36-.76 1.683 1.683 0 0 1 1.44 2.72zm13.682 4.36c-6.44 0-10.038-5.278-10.038-11.317 0-6 3.6-11.278 10.038-11.278s10.04 5.28 10.04 11.278c0 6.04-3.6 11.317-10.04 11.317zm0-19.196c-4 0-6.6 3.12-6.6 7.88 0 4.8 2.6 7.918 6.6 7.918 4.04 0 6.6-3.12 6.6-7.918 0-4.76-2.56-7.88-6.6-7.88zm24.84 19.196a8.754 8.754 0 0 1-6.599-2.639v8.678a1.667 1.667 0 0 1-1.759 1.72 1.648 1.648 0 0 1-1.68-1.72V850.36a1.648 1.648 0 0 1 1.68-1.72 1.667 1.667 0 0 1 1.759 1.72 9.601 9.601 0 0 1 6.599-2.439c6.44 0 10.038 5.28 10.038 11.278 0 6.08-3.6 11.357-10.038 11.357zm0-19.236c-3.96 0-6.6 3.16-6.6 7.88 0 4.8 2.6 7.958 6.6 7.958s6.6-3.12 6.6-7.918c0-4.76-2.6-7.92-6.6-7.92z"/><use xlink:href="#J"/><path d="M421.584 869.875a1.615 1.615 0 0 1-1.68-1.68v-11.118a5.699 5.699 0 1 0-11.398 0v11.078a1.7 1.7 0 0 1-1.759 1.76 1.648 1.648 0 0 1-1.68-1.72v-17.877a1.591 1.591 0 0 1 1.68-1.68 1.672 1.672 0 0 1 1.719 1.32 9.134 9.134 0 0 1 14.838 7.118v11.078a1.636 1.636 0 0 1-1.72 1.72zm23.56 0a1.615 1.615 0 0 1-1.68-1.68v-11.118a5.699 5.699 0 1 0-11.398 0v11.078a1.7 1.7 0 0 1-1.759 1.76 1.648 1.648 0 0 1-1.68-1.72V843.12a1.72 1.72 0 0 1 3.439-.04V850a8.063 8.063 0 0 1 5.679-2.04 9.192 9.192 0 0 1 9.119 9.118v11.078a1.636 1.636 0 0 1-1.72 1.72zm26.76 0a3.891 3.891 0 0 1-3.559-2.279 9.164 9.164 0 0 1-7.039 2.959c-6.52 0-10.038-5.358-10.038-11.317s3.6-11.278 10.038-11.278a8.839 8.839 0 0 1 6.599 2.64v-.16a1.65 1.65 0 0 1 1.68-1.8 1.608 1.608 0 0 1 1.76 1.68v15.438a.647.647 0 0 0 .56.72 1.7 1.7 0 1 1 0 3.399zm-10.598-18.517c-4 0-6.6 3.12-6.6 7.88 0 4.8 2.6 7.918 6.6 7.918 4.04 0 6.6-3.12 6.6-7.918 0-4.76-2.56-7.88-6.6-7.88z"/><use xlink:href="#F" x="259.255" y="139"/><use xlink:href="#J" x="120.559"/><use xlink:href="#E" x="331.095" y="139"/><use xlink:href="#G" x="249.576" y="139"/><path d="M441.023 890.945a12.882 12.882 0 0 1 3.451 9.021v20.465a13.1 13.1 0 0 1-3.451 9.082 12.04 12.04 0 0 1-8.779 3.572 12.174 12.174 0 0 1-8.779-3.572 12.866 12.866 0 0 1-3.391-9.082v-20.465a12.654 12.654 0 0 1 3.391-9.021 11.863 11.863 0 0 1 8.779-3.572 11.737 11.737 0 0 1 8.779 3.572zm-16.408 9.02v20.465a9.133 9.133 0 0 0 2.059 6.055 7.751 7.751 0 0 0 11.141 0 8.968 8.968 0 0 0 2.119-6.055v-20.465a8.739 8.739 0 0 0-2.119-5.994 7.751 7.751 0 0 0-11.141 0 8.898 8.898 0 0 0-2.059 5.994h0z"/><use xlink:href="#H" x="247.096" y="139"/><path d="M647.306 827.86a1.474 1.474 0 0 1-1.368-.937l-1.908-4.68h-11.987l-1.944 4.68a1.464 1.464 0 0 1-1.332.937 1.591 1.591 0 0 1-1.62-1.512 1.183 1.183 0 0 1 .144-.612l9.25-22.497a1.573 1.573 0 0 1 1.476-1.116 1.635 1.635 0 0 1 1.476 1.116l9.287 22.497a1.673 1.673 0 0 1 .108.612 1.537 1.537 0 0 1-1.584 1.512zm-9.286-20.16l-4.716 11.447h9.43zm31.642 20.16a3.502 3.502 0 0 1-3.204-2.053 8.248 8.248 0 0 1-6.335 2.664c-5.867 0-9.035-4.823-9.035-10.187s3.24-10.15 9.035-10.15a7.952 7.952 0 0 1 5.939 2.377v-.145a1.485 1.485 0 0 1 1.512-1.62 1.447 1.447 0 0 1 1.584 1.513v13.894a.582.582 0 0 0 .504.647 1.531 1.531 0 1 1 0 3.061zm-9.54-16.666c-3.6 0-5.94 2.807-5.94 7.1 0 4.32 2.34 7.127 5.94 7.127 3.636 0 5.94-2.808 5.94-7.127 0-4.284-2.304-7.1-5.94-7.1zm22.644-.001a5.186 5.186 0 0 0-5.111 5.146v9.97a1.501 1.501 0 0 1-1.583 1.549 1.475 1.475 0 0 1-1.512-1.512V810.29a1.525 1.525 0 0 1 1.512-1.548 1.477 1.477 0 0 1 1.547 1.224 8.329 8.329 0 0 1 5.147-1.836 1.531 1.531 0 1 1 0 3.061zm18.54 16.667a1.454 1.454 0 0 1-1.512-1.512V816.34a5.13 5.13 0 1 0-10.259 0v9.97a1.53 1.53 0 0 1-1.583 1.584 1.482 1.482 0 0 1-1.512-1.547v-22.57a1.548 1.548 0 0 1 3.096-.035v6.227a7.26 7.26 0 0 1 5.111-1.836 8.274 8.274 0 0 1 8.207 8.207v9.97a1.473 1.473 0 0 1-1.548 1.549zm20.915.035a1.467 1.467 0 0 1-1.512-1.187 8.381 8.381 0 0 1-5.183 1.8 8.274 8.274 0 0 1-8.207-8.207v-9.97a1.548 1.548 0 0 1 3.096-.036V820.3a5.13 5.13 0 1 0 10.259 0v-9.97a1.435 1.435 0 0 1 1.512-1.584 1.472 1.472 0 0 1 1.548 1.548v16.1a1.434 1.434 0 0 1-1.512 1.512zm12.638.575c-1.98 0-5.3-.6-6.983-2.7a1.594 1.594 0 0 1 1.296-2.557 1.478 1.478 0 0 1 1.116.613 6.155 6.155 0 0 0 4.571 1.583c3.24 0 4.284-1.116 4.284-2.735 0-4.607-10.98-1.764-10.98-9.18 0-3.923 3.67-5.363 7.1-5.363 1.944 0 6.515.973 6.515 2.988a1.615 1.615 0 0 1-1.512 1.619 2.171 2.171 0 0 1-1.187-.467 5.836 5.836 0 0 0-3.816-1.08c-2.987 0-4.03 1.115-4.03 2.303 0 4.284 11.015 1.512 11.015 9.18 0 4.247-3.563 5.795-7.38 5.795zM658.6 877.535q-.053.527.475.475h15.398q.58-.105.475.475v2.848c.07.387-.088.562-.475.527H655.12c-.387.034-.545-.14-.475-.527v-2.9q.263-7.12 4.113-10.8a98.076 98.076 0 0 1 7.646-6.645 9.968 9.968 0 0 0 4.166-7.594 7.12 7.12 0 0 0-1.582-4.641 5.387 5.387 0 0 0-4.271-1.898 5.86 5.86 0 0 0-4.641 2.004 7.607 7.607 0 0 0-1.74 4.746q.052.738-.58.633h-2.848q-.58.105-.475-.475a11.634 11.634 0 0 1 3.006-7.436 9.598 9.598 0 0 1 7.33-3.217 9.486 9.486 0 0 1 7.014 2.9 10.252 10.252 0 0 1 2.848 7.225 11.863 11.863 0 0 1-4.113 8.912l-7.646 6.38a12.218 12.218 0 0 0-4.271 9.018h0zm40.477-28.475a68.592 68.592 0 0 0-7.066 15.873 69.627 69.627 0 0 0-2.637 16.559q.105.684-.527.58h-3.006c-.387-.036-.545-.23-.475-.58a67.797 67.797 0 0 1 2.953-16.77 69.697 69.697 0 0 1 7.225-16.242q.475-.738-.053-.738h-16.24q-.58.105-.475-.527v-2.795q-.106-.58.475-.475h19.564q.58-.105.475.475v3.902l-.2.738zm12.036-4.66a3.983 3.983 0 0 1 1.045 2.768v1.906a3.977 3.977 0 0 1-1.045 2.766 3.632 3.632 0 0 1-2.706 1.107 3.594 3.594 0 0 1-2.674-1.107 3.906 3.906 0 0 1-1.076-2.766v-1.906a3.913 3.913 0 0 1 1.076-2.768 3.608 3.608 0 0 1 2.674-1.107 3.647 3.647 0 0 1 2.706 1.107zm-4.15 21.52H705.6c-.246.02-.308-.082-.185-.3l12.667-21.55c.082-.246.215-.35.4-.308h1.353q.338-.03.185.276l-12.697 21.552c-.083.246-.205.358-.37.34zm-.584-16.94q.122 2.152 2.03 2.183 1.937-.03 2.03-2.183v-1.722q-.092-2.152-2.03-2.184-1.906.032-2.03 2.184zm7.963 16.294a3.869 3.869 0 0 1-1.076-2.736v-1.875a3.871 3.871 0 0 1 1.076-2.736 3.664 3.664 0 0 1 2.674-1.076 3.704 3.704 0 0 1 2.706 1.076 3.942 3.942 0 0 1 1.045 2.736v1.875a3.94 3.94 0 0 1-1.045 2.736 3.643 3.643 0 0 1-2.706 1.107 3.605 3.605 0 0 1-2.674-1.107zm4.704-2.828v-1.7q-.092-2.1-2.03-2.12-1.906.032-2.03 2.12v1.7q.122 2.12 2.03 2.152 1.937-.03 2.03-2.152h0zM714.28 418.17h-14.974a1.561 1.561 0 0 1-1.584-1.512V394.1a1.567 1.567 0 0 1 1.584-1.548h14.974a1.455 1.455 0 0 1 1.512 1.512 1.503 1.503 0 0 1-1.512 1.548h-13.46v7.27h9.43a1.536 1.536 0 0 1 1.548 1.547 1.514 1.514 0 0 1-1.548 1.548h-9.43v9.143h13.462a1.483 1.483 0 0 1 1.512 1.548 1.455 1.455 0 0 1-1.512 1.512zm7.455-22.028a2.592 2.592 0 1 1 2.592-2.592 2.581 2.581 0 0 1-2.592 2.592zm0 22.03a1.512 1.512 0 0 1-1.584-1.512v-16.054a1.52 1.52 0 0 1 1.584-1.548 1.483 1.483 0 0 1 1.512 1.548v16.054a1.452 1.452 0 0 1-1.512 1.512zm21.633-.002a1.454 1.454 0 0 1-1.512-1.512V406.65a5.13 5.13 0 1 0-10.259 0v9.97a1.53 1.53 0 0 1-1.584 1.584 1.483 1.483 0 0 1-1.512-1.548v-16.1a1.432 1.432 0 0 1 1.512-1.512 1.505 1.505 0 0 1 1.548 1.188 8.221 8.221 0 0 1 13.355 6.407v9.97a1.472 1.472 0 0 1-1.548 1.548zm22.032-.035a1.462 1.462 0 0 1-1.548-1.512 8.711 8.711 0 0 1-5.939 2.16c-5.795 0-9.035-4.75-9.035-10.187 0-5.4 3.24-10.15 9.035-10.15a7.933 7.933 0 0 1 5.939 2.34V394.1a1.548 1.548 0 0 1 3.096-.036v22.57a1.462 1.462 0 0 1-1.548 1.512zm-7.487-16.63c-3.6 0-5.94 2.808-5.94 7.1 0 4.32 2.34 7.127 5.94 7.127 3.636 0 5.94-2.808 5.94-7.127 0-4.284-2.304-7.1-5.94-7.1zm29.015 16.665a1.454 1.454 0 0 1-1.512-1.512V406.65a5.13 5.13 0 1 0-10.259 0v9.97a1.53 1.53 0 0 1-1.583 1.584 1.483 1.483 0 0 1-1.513-1.548V394.1a1.548 1.548 0 0 1 3.096-.036v6.228a7.26 7.26 0 0 1 5.111-1.836 8.273 8.273 0 0 1 8.207 8.207v9.97a1.472 1.472 0 0 1-1.548 1.548zm14.545.613c-5.795 0-9.035-4.75-9.035-10.187 0-5.4 3.24-10.15 9.035-10.15s9.035 4.75 9.035 10.15c0 5.435-3.24 10.187-9.035 10.187zm0-17.278c-3.6 0-5.94 2.808-5.94 7.1 0 4.32 2.34 7.127 5.94 7.127 3.636 0 5.94-2.808 5.94-7.127 0-4.284-2.304-7.1-5.94-7.1zm28.007-.323l-6.552 15.766a1.641 1.641 0 0 1-1.548 1.224 1.744 1.744 0 0 1-1.548-1.224l-6.55-15.766a2.208 2.208 0 0 1-.108-.648 1.553 1.553 0 0 1 1.584-1.476 1.474 1.474 0 0 1 1.368.936l5.255 12.6 5.256-12.6a1.551 1.551 0 0 1 2.987.504 1.801 1.801 0 0 1-.144.684zm19.295 8.998h-13.318c.504 3.384 2.664 5.543 5.83 5.543a5.403 5.403 0 0 0 4.284-1.872 1.489 1.489 0 0 1 1.115-.576 1.68 1.68 0 0 1 1.62 1.584c0 .432-.108.756-.864 1.512a8.77 8.77 0 0 1-6.155 2.412c-5.795 0-9.034-4.787-9.034-10.187 0-5.363 3.24-10.15 9.034-10.15 5.867 0 9 4.788 9 10.15a1.535 1.535 0 0 1-1.512 1.583zm-7.487-8.675c-3.383 0-5.363 2.484-5.83 5.58h11.663c-.504-3.456-2.664-5.58-5.832-5.58zm27.754 16.665a1.454 1.454 0 0 1-1.512-1.512V406.65a5.13 5.13 0 1 0-10.259 0v9.97a1.53 1.53 0 0 1-1.583 1.584 1.483 1.483 0 0 1-1.513-1.548v-16.1a1.432 1.432 0 0 1 1.513-1.512 1.504 1.504 0 0 1 1.547 1.188 8.221 8.221 0 0 1 13.354 6.407v9.97a1.472 1.472 0 0 1-1.548 1.548zM758.12 467.847q-.054.528.475.475h15.398q.58-.105.475.475v2.848c.07.387-.1.562-.475.527H754.64c-.388.035-.546-.14-.475-.527v-2.9q.262-7.12 4.113-10.8a98.192 98.192 0 0 1 7.646-6.645 9.968 9.968 0 0 0 4.166-7.594 7.126 7.126 0 0 0-1.582-4.641 5.391 5.391 0 0 0-4.271-1.898 5.862 5.862 0 0 0-4.641 2.004 7.603 7.603 0 0 0-1.74 4.746c.034.493-.158.704-.58.633h-2.848q-.582.106-.475-.475a11.631 11.631 0 0 1 3.006-7.436 9.6 9.6 0 0 1 7.33-3.217 9.489 9.489 0 0 1 7.014 2.9 10.257 10.257 0 0 1 2.848 7.225 11.862 11.862 0 0 1-4.113 8.912l-7.646 6.38a12.215 12.215 0 0 0-4.271 9.018h0zm35.968-8.447q-.053.58.475.527h3.217q.58-.105.475.475v2.584q.105.58-.475.527h-3.217q-.527-.105-.475.475v7.594c.07.458-.088.65-.475.58h-2.7c-.352.07-.5-.123-.475-.58v-7.594q.105-.58-.475-.475H777.74q-.527.053-.475-.527v-3.322l.2-.896 11.232-24.1a.696.696 0 0 1 .738-.422h4.166q.58-.052.475.527zm-13.236 0q-.316.58.316.527h8.807q.58.053.475-.527v-19.723q-.105-.633-.422-.105zm28.7-24.7a3.982 3.982 0 0 1 1.045 2.767v1.906a3.978 3.978 0 0 1-1.045 2.767 3.639 3.639 0 0 1-2.706 1.107 3.597 3.597 0 0 1-2.674-1.107 3.906 3.906 0 0 1-1.076-2.767v-1.906a3.909 3.909 0 0 1 1.076-2.767 3.602 3.602 0 0 1 2.674-1.107 3.644 3.644 0 0 1 2.706 1.107zm-4.15 21.52h-1.353c-.246.02-.308-.082-.185-.308l12.666-21.55q.123-.37.4-.308h1.353c.225-.02.286.072.185.277l-12.697 21.55c-.083.246-.205.358-.37.338zm-.584-16.94q.122 2.152 2.028 2.183 1.938-.03 2.03-2.183v-1.722q-.092-2.152-2.03-2.183-1.906.03-2.028 2.183zm7.963 16.294a3.869 3.869 0 0 1-1.076-2.736v-1.875a3.87 3.87 0 0 1 1.076-2.736 3.658 3.658 0 0 1 2.674-1.076 3.701 3.701 0 0 1 2.706 1.076 3.945 3.945 0 0 1 1.045 2.736v1.875a3.944 3.944 0 0 1-1.045 2.736 3.642 3.642 0 0 1-2.706 1.106 3.6 3.6 0 0 1-2.674-1.106zm4.703-2.83v-1.7q-.092-2.1-2.03-2.122-1.906.03-2.028 2.122v1.7q.122 2.12 2.028 2.152 1.938-.03 2.03-2.152h0zm-270.23-176.17h-5.312v18.72a1.293 1.293 0 0 1-1.344 1.344 1.336 1.336 0 0 1-1.376-1.344v-18.72h-5.248a1.352 1.352 0 0 1-1.408-1.376 1.336 1.336 0 0 1 1.376-1.344h13.3a1.36 1.36 0 1 1 0 2.72zm17.152 20.062a1.293 1.293 0 0 1-1.344-1.344v-8.895a4.56 4.56 0 1 0-9.119 0v8.863a1.36 1.36 0 0 1-1.408 1.408 1.319 1.319 0 0 1-1.344-1.376V275.23a1.376 1.376 0 0 1 2.752-.032v5.536a6.451 6.451 0 0 1 4.543-1.632 7.355 7.355 0 0 1 7.296 7.295v8.863a1.309 1.309 0 0 1-1.376 1.376z"/><use xlink:href="#K"/><path d="M611.348 296.637a1.344 1.344 0 0 1-1.408-1.344V285.8h-10.56v9.503a1.376 1.376 0 0 1-2.752 0V275.2a1.376 1.376 0 0 1 2.752 0v7.872h10.56v-7.84a1.376 1.376 0 1 1 2.752 0v20.03a1.355 1.355 0 0 1-1.344 1.376z"/><use xlink:href="#L"/><path d="M644.66 303.933c-1.952 0-6.783-.704-6.783-2.624a1.49 1.49 0 0 1 1.376-1.44c.736 0 .096.096 1.792.736a9.998 9.998 0 0 0 3.616.608c3.552 0 5.28-1.696 5.28-5.056v-1.44a7.485 7.485 0 0 1-5.28 1.92c-5.055 0-8.03-3.584-8.03-8.5 0-4.8 2.88-9.023 8.03-9.023a6.894 6.894 0 0 1 5.28 2.048v-.128a1.362 1.362 0 0 1 1.376-1.376 1.343 1.343 0 0 1 1.376 1.376v15.135c0 5.087-3.04 7.775-8.032 7.775zm0-22.1c-3.2 0-5.28 2.496-5.28 6.304 0 3.647 1.92 5.8 5.28 5.8s5.28-2.144 5.28-5.8c0-3.808-2.048-6.304-5.28-6.304zm25.535 14.837a1.304 1.304 0 0 1-1.344-1.056 7.449 7.449 0 0 1-4.607 1.6 7.355 7.355 0 0 1-7.295-7.296v-8.863a1.376 1.376 0 0 1 2.751-.032v8.895a4.56 4.56 0 1 0 9.12 0v-8.863a1.276 1.276 0 0 1 1.344-1.408 1.309 1.309 0 0 1 1.376 1.376v14.303a1.275 1.275 0 0 1-1.344 1.344z"/><use xlink:href="#K" x="106.047"/><use xlink:href="#M"/><use xlink:href="#M" x="21.976"/><path d="M636.073 310.1a3.688 3.688 0 0 1 .968 2.562v1.765a3.686 3.686 0 0 1-.968 2.562 3.369 3.369 0 0 1-2.505 1.025 3.334 3.334 0 0 1-2.477-1.025 3.62 3.62 0 0 1-.997-2.562v-1.765a3.622 3.622 0 0 1 .997-2.562 3.336 3.336 0 0 1 2.477-1.024 3.37 3.37 0 0 1 2.505 1.024zm-3.843 19.927h-1.253q-.34.03-.17-.285l11.728-19.955q.114-.34.37-.285h1.252q.313-.028.17.256l-11.757 19.955c-.076.228-.2.332-.34.313zm-.54-15.685q.114 1.993 1.88 2.02 1.793-.028 1.88-2.02v-1.594q-.086-1.992-1.88-2.02-1.766.03-1.88 2.02zm7.373 15.087a3.585 3.585 0 0 1-.997-2.534v-1.736a3.586 3.586 0 0 1 .997-2.534 3.388 3.388 0 0 1 2.477-.996 3.424 3.424 0 0 1 2.505.996 3.65 3.65 0 0 1 .968 2.534v1.736a3.649 3.649 0 0 1-.968 2.534 3.371 3.371 0 0 1-2.505 1.025 3.336 3.336 0 0 1-2.477-1.025zm4.355-2.62v-1.565q-.086-1.936-1.88-1.964-1.766.03-1.88 1.964v1.565q.114 1.964 1.88 1.993 1.793-.028 1.88-1.993h0zm-261.5-57.89c-6.88 0-9.312-5.696-9.312-11.935 0-6.27 2.432-11.967 9.312-11.967 6.848 0 9.312 5.696 9.312 11.967 0 6.24-2.464 11.935-9.312 11.935zm0-21.15c-4.544 0-6.56 3.36-6.56 9.215s2.016 9.215 6.56 9.215c4.512 0 6.56-3.36 6.56-9.215s-2.048-9.215-6.56-9.215zm18.656 21.15c-1.76 0-4.704-.544-6.208-2.4a1.416 1.416 0 0 1 1.152-2.272 1.317 1.317 0 0 1 .992.544 5.466 5.466 0 0 0 4.063 1.408c2.88 0 3.808-.992 3.808-2.432 0-4.096-9.76-1.568-9.76-8.16 0-3.488 3.264-4.768 6.304-4.768 1.728 0 5.792.864 5.792 2.656a1.437 1.437 0 0 1-1.344 1.44 1.929 1.929 0 0 1-1.056-.416 5.188 5.188 0 0 0-3.392-.96c-2.656 0-3.584.992-3.584 2.048 0 3.808 9.792 1.344 9.792 8.16 0 3.775-3.168 5.15-6.56 5.15z"/><use xlink:href="#L" x="-206.806" y="-28.273"/><path d="M442.812 253.71l-4.768 4.768 4.96 7.775a1.757 1.757 0 0 1 .224.768 1.443 1.443 0 0 1-1.44 1.376 1.295 1.295 0 0 1-1.088-.64l-4.672-7.264-2.72 2.72v3.808a1.376 1.376 0 0 1-2.752 0v-20.095a1.291 1.291 0 0 1 1.344-1.344 1.308 1.308 0 0 1 1.408 1.344v12.415l7.55-7.55a1.375 1.375 0 0 1 1.024-.416 1.431 1.431 0 0 1 1.376 1.376 1.408 1.408 0 0 1-.448.96z"/><use xlink:href="#L" x="-170.87" y="-28.273"/><path d="M394.562 312.36q-.05.5.44.44h14.258q.537-.097.44.44v2.637q.097.538-.44.488h-17.92q-.538.048-.44-.488V313.2q.244-6.592 3.8-10a90.97 90.97 0 0 1 7.08-6.152 9.228 9.228 0 0 0 3.857-7.031 6.59 6.59 0 0 0-1.465-4.297 4.988 4.988 0 0 0-3.955-1.758 5.428 5.428 0 0 0-4.297 1.855 7.047 7.047 0 0 0-1.611 4.395q.048.684-.537.586h-2.637q-.538.098-.44-.44a10.775 10.775 0 0 1 2.783-6.885 8.889 8.889 0 0 1 6.787-2.979 8.784 8.784 0 0 1 6.494 2.686 9.492 9.492 0 0 1 2.637 6.689 10.984 10.984 0 0 1-3.809 8.252l-7.08 5.908a11.315 11.315 0 0 0-3.955 8.35h0zm27.395-30.664l.586-.44H426q.537 0 .488.488v30.86q-.098.538.44.488h6.348q.537-.097.44.44v2.393q.048.538-.44.44H416q-.538.097-.488-.44v-2.393q-.05-.537.488-.44h6.592q.488.05.44-.488V286.58q-.05-.586-.488-.098a21.434 21.434 0 0 1-6.689 3.906q-.4.196-.44-.244v-2.5a.473.473 0 0 1 .342-.439 12.274 12.274 0 0 0 6.201-5.518h0zm18.228.12a3.688 3.688 0 0 1 .968 2.562v1.765a3.686 3.686 0 0 1-.968 2.562 3.369 3.369 0 0 1-2.505 1.025 3.334 3.334 0 0 1-2.477-1.025 3.62 3.62 0 0 1-.997-2.562v-1.765a3.622 3.622 0 0 1 .997-2.562 3.336 3.336 0 0 1 2.477-1.024 3.37 3.37 0 0 1 2.505 1.024zm-3.843 19.927H435.1q-.34.03-.17-.285l11.728-19.955q.114-.34.37-.285h1.252q.313-.028.17.256l-11.757 19.955c-.076.228-.2.332-.34.313zm-.54-15.685q.114 1.993 1.88 2.02 1.793-.028 1.88-2.02v-1.594q-.086-1.992-1.88-2.02-1.766.03-1.88 2.02zm7.373 15.087a3.585 3.585 0 0 1-.997-2.534v-1.736a3.586 3.586 0 0 1 .997-2.534 3.388 3.388 0 0 1 2.477-.996 3.424 3.424 0 0 1 2.505.996 3.65 3.65 0 0 1 .968 2.534v1.736a3.649 3.649 0 0 1-.968 2.534 3.371 3.371 0 0 1-2.505 1.025 3.336 3.336 0 0 1-2.477-1.025zm4.355-2.62v-1.565q-.086-1.936-1.88-1.964-1.766.03-1.88 1.964v1.565q.114 1.964 1.88 1.993 1.793-.028 1.88-1.993h0zm389.3 528.232a12.042 12.042 0 0 1-7.424-2.656 1.281 1.281 0 0 1-.448-.992 1.386 1.386 0 0 1 1.376-1.375c.48 0 .64.16 1.217.607a8.661 8.661 0 0 0 5.279 1.696c3.808 0 5.472-1.376 5.472-3.744 0-6.655-12.768-2.88-12.768-11.583 0-3.903 3.296-5.855 7.52-5.855 2.208 0 5.376.864 6.943 2.72a1.263 1.263 0 0 1 .353.864 1.49 1.49 0 0 1-1.376 1.439c-.48 0-.736-.224-1.28-.704a7.026 7.026 0 0 0-4.64-1.567c-3.455 0-4.768 1.376-4.768 3.104 0 5.983 12.768 2.432 12.768 11.583 0 4.768-4 6.464-8.224 6.464z"/><use xlink:href="#N"/><use xlink:href="#O"/><path d="M900.424 826.212a1.292 1.292 0 0 1-1.344-1.344v-8.895a4.56 4.56 0 1 0-9.119 0v8.863a1.361 1.361 0 0 1-1.408 1.408 1.319 1.319 0 0 1-1.344-1.376v-14.304a1.273 1.273 0 0 1 1.344-1.344 1.339 1.339 0 0 1 1.376 1.056 7.308 7.308 0 0 1 11.871 5.696v8.863a1.309 1.309 0 0 1-1.376 1.376zm12.928 7.295c-1.95 0-6.783-.704-6.783-2.623a1.49 1.49 0 0 1 1.376-1.44c.736 0 .096.096 1.792.736a9.997 9.997 0 0 0 3.615.607c3.552 0 5.28-1.695 5.28-5.056v-1.44a7.489 7.489 0 0 1-5.28 1.92c-5.055 0-8.03-3.584-8.03-8.512 0-4.8 2.88-9.023 8.03-9.023a6.896 6.896 0 0 1 5.28 2.048v-.128a1.362 1.362 0 0 1 1.376-1.376 1.344 1.344 0 0 1 1.376 1.376v15.135c0 5.088-3.04 7.775-8.032 7.775zm0-22.1c-3.2 0-5.28 2.496-5.28 6.304 0 3.647 1.92 5.792 5.28 5.792s5.28-2.145 5.28-5.792c0-3.808-2.048-6.304-5.28-6.304z"/><use xlink:href="#N" x="77.696"/><use xlink:href="#O" x="77.694"/><path d="M966.376 806.63a2.304 2.304 0 1 1 2.304-2.304 2.294 2.294 0 0 1-2.304 2.304zm0 19.583a1.344 1.344 0 0 1-1.408-1.344V810.6a1.352 1.352 0 0 1 1.408-1.376 1.319 1.319 0 0 1 1.344 1.376v14.27a1.291 1.291 0 0 1-1.344 1.344zM873.6 870.208q-.048.488.44.44h14.258q.538-.098.44.44v2.637q.098.538-.44.488h-17.92q-.538.048-.44-.488v-2.686q.245-6.592 3.8-10a90.971 90.971 0 0 1 7.08-6.152 9.228 9.228 0 0 0 3.857-7.031 6.584 6.584 0 0 0-1.465-4.297 4.985 4.985 0 0 0-3.955-1.758 5.426 5.426 0 0 0-4.297 1.855 7.051 7.051 0 0 0-1.611 4.395q.048.684-.537.586h-2.637q-.538.098-.44-.44a10.775 10.775 0 0 1 2.783-6.885 8.887 8.887 0 0 1 6.787-2.979 8.781 8.781 0 0 1 6.494 2.686 9.492 9.492 0 0 1 2.637 6.689 10.985 10.985 0 0 1-3.809 8.252l-7.08 5.908a11.319 11.319 0 0 0-3.955 8.35h0zm36.633-29.004a10.384 10.384 0 0 1 2.783 7.275v16.504a10.564 10.564 0 0 1-2.783 7.324 9.709 9.709 0 0 1-7.08 2.881 9.819 9.819 0 0 1-7.08-2.881 10.382 10.382 0 0 1-2.734-7.324V848.48a10.207 10.207 0 0 1 2.734-7.275 9.563 9.563 0 0 1 7.08-2.881 9.459 9.459 0 0 1 7.08 2.881zM897 848.48v16.504a7.37 7.37 0 0 0 1.66 4.883 6.251 6.251 0 0 0 8.984 0 7.232 7.232 0 0 0 1.709-4.883V848.48a7.041 7.041 0 0 0-1.709-4.834 6.251 6.251 0 0 0-8.984 0 7.174 7.174 0 0 0-1.66 4.834h0zm27.233-8.817a3.684 3.684 0 0 1 .968 2.563V844a3.683 3.683 0 0 1-.968 2.563 3.54 3.54 0 0 1-4.981 0 3.621 3.621 0 0 1-.996-2.562v-1.765a3.623 3.623 0 0 1 .996-2.562 3.54 3.54 0 0 1 4.981 0zM920.4 859.6h-1.253q-.34.03-.17-.284l11.728-19.955q.114-.34.37-.285h1.253q.313-.028.17.257l-11.757 19.955q-.114.34-.342.313zm-.54-15.685q.114 1.992 1.88 2.02 1.793-.028 1.88-2.02v-1.595q-.085-1.992-1.88-2.02-1.765.028-1.88 2.02zm7.373 15.087a3.584 3.584 0 0 1-.996-2.533v-1.736a3.586 3.586 0 0 1 .996-2.534 3.392 3.392 0 0 1 2.477-.996 3.427 3.427 0 0 1 2.505.996 3.647 3.647 0 0 1 .968 2.534v1.736a3.644 3.644 0 0 1-.968 2.533 3.538 3.538 0 0 1-4.981 0zm4.355-2.62v-1.565q-.085-1.935-1.88-1.964-1.765.028-1.88 1.964v1.565q.114 1.964 1.88 1.993 1.793-.028 1.88-1.993h0zM926.93 493.17h-7.532a1.274 1.274 0 0 1-1.232-1.176V474.44a1.172 1.172 0 0 1 1.176-1.204h6.944a5.253 5.253 0 0 1 5.236 5.18 5.042 5.042 0 0 1-1.596 3.724 5.791 5.791 0 0 1 2.94 5.096 5.975 5.975 0 0 1-5.936 5.936zm-.644-17.556h-5.712v5.656h5.712a2.828 2.828 0 1 0 0-5.656zm.644 8.036h-6.356v7.14h6.356a3.57 3.57 0 0 0 0-7.14zm15.176-3.443a4.034 4.034 0 0 0-3.976 4.004v7.756a1.167 1.167 0 0 1-1.232 1.204 1.147 1.147 0 0 1-1.176-1.176v-12.488a1.186 1.186 0 0 1 1.176-1.204 1.15 1.15 0 0 1 1.204.952 6.474 6.474 0 0 1 4.004-1.428 1.191 1.191 0 1 1 0 2.38zm14.414 6.748h-10.36c.392 2.632 2.072 4.312 4.536 4.312a4.204 4.204 0 0 0 3.332-1.456 1.158 1.158 0 0 1 .868-.448 1.307 1.307 0 0 1 1.26 1.232c0 .336-.084.588-.672 1.176a6.823 6.823 0 0 1-4.788 1.876c-4.508 0-7.028-3.724-7.028-7.924 0-4.172 2.52-7.896 7.028-7.896 4.564 0 7 3.724 7 7.896a1.194 1.194 0 0 1-1.176 1.232zm-5.824-6.748c-2.632 0-4.172 1.932-4.536 4.34h9.072c-.392-2.688-2.072-4.34-4.536-4.34zm27.834 12.963a1.147 1.147 0 0 1-1.176-1.176v-8.82a2.954 2.954 0 1 0-5.908-.028v8.82a1.145 1.145 0 0 1-1.204 1.204 1.131 1.131 0 0 1-1.176-1.176v-8.82a2.968 2.968 0 0 0-5.936-.028v8.82a1.167 1.167 0 0 1-1.232 1.204 1.146 1.146 0 0 1-1.176-1.176V479.48a1.228 1.228 0 0 1 2.24-.672 5.392 5.392 0 0 1 3.108-.98 5.301 5.301 0 0 1 4.172 1.988 5.245 5.245 0 0 1 4.144-1.988 5.348 5.348 0 0 1 5.376 5.32v8.82a1.167 1.167 0 0 1-1.232 1.204z"/><use xlink:href="#P"/><path d="M1011.456 493.17a1.131 1.131 0 0 1-1.176-1.176V484.2a3.99 3.99 0 1 0-7.98 0v7.756a1.19 1.19 0 0 1-1.232 1.232 1.154 1.154 0 0 1-1.176-1.204V479.48a1.114 1.114 0 0 1 1.176-1.176 1.171 1.171 0 0 1 1.204.924 6.395 6.395 0 0 1 10.388 4.984v7.756a1.145 1.145 0 0 1-1.204 1.204zm-67.318 13.333l.586-.44h3.467q.537 0 .488.488v30.86q-.098.538.44.488h6.348q.537-.097.44.44v2.393q.048.538-.44.44H938.18q-.538.098-.488-.44v-2.393q-.05-.536.488-.44h6.592q.488.05.44-.488v-26.025q-.05-.586-.488-.098a21.434 21.434 0 0 1-6.689 3.906c-.26.13-.407.05-.44-.244v-2.5a.473.473 0 0 1 .342-.439 12.274 12.274 0 0 0 6.201-5.518h0zm31.132 18.115q0-.488-.44-.146-1.563 2.05-6.006 2.393a8.77 8.77 0 0 1-6.836-3.027 11.474 11.474 0 0 1-2.539-7.568 11.905 11.905 0 0 1 2.588-7.617 9.396 9.396 0 0 1 14.209-.049 12.073 12.073 0 0 1 2.588 7.813V531.7a10.914 10.914 0 0 1-2.588 7.275 9.546 9.546 0 0 1-7.227 3.027 9.893 9.893 0 0 1-6.299-2.148 8.411 8.411 0 0 1-3.027-5.664q-.098-.44.44-.44h2.783q.488 0 .537.586a6.048 6.048 0 0 0 1.66 3.027 6.553 6.553 0 0 0 8.545-.684 7.565 7.565 0 0 0 1.611-4.98zm0-8.447a8.675 8.675 0 0 0-1.562-5.322 5.569 5.569 0 0 0-4.59-2.148 5.382 5.382 0 0 0-4.492 2.148 9.217 9.217 0 0 0-1.611 5.42 8.826 8.826 0 0 0 1.563 5.322 5.343 5.343 0 0 0 4.443 2.051q6.2-.4 6.25-7.47h0zm14.073-9.548a3.688 3.688 0 0 1 .968 2.562v1.765a3.686 3.686 0 0 1-.968 2.562 3.369 3.369 0 0 1-2.505 1.025 3.334 3.334 0 0 1-2.477-1.025 3.62 3.62 0 0 1-.997-2.562v-1.765a3.622 3.622 0 0 1 .997-2.562 3.336 3.336 0 0 1 2.477-1.024 3.37 3.37 0 0 1 2.505 1.024zM985.5 526.55h-1.253q-.34.028-.17-.285l11.728-19.955q.114-.34.37-.285h1.252q.313-.028.17.256l-11.757 19.955c-.076.228-.2.332-.34.313zm-.54-15.686q.114 1.993 1.88 2.02 1.793-.028 1.88-2.02v-1.594q-.086-1.992-1.88-2.02-1.766.03-1.88 2.02zm7.373 15.088a3.585 3.585 0 0 1-.997-2.534v-1.736a3.584 3.584 0 0 1 .997-2.533 3.384 3.384 0 0 1 2.477-.996 3.42 3.42 0 0 1 2.505.996 3.649 3.649 0 0 1 .968 2.533v1.736a3.649 3.649 0 0 1-.968 2.534 3.368 3.368 0 0 1-2.505 1.024 3.334 3.334 0 0 1-2.477-1.024zm4.355-2.62v-1.565q-.086-1.937-1.88-1.965-1.766.03-1.88 1.965v1.565q.114 1.964 1.88 1.992 1.793-.028 1.88-1.992h0zM731.9 230.883h-5.796a1.274 1.274 0 0 1-1.232-1.176V212.15a1.257 1.257 0 0 1 1.232-1.204h5.796c5.768 0 7.672 4.76 7.672 9.94 0 5.208-1.904 9.996-7.672 9.996zm0-17.556h-4.62v15.176h4.62c3.612 0 5.264-2.66 5.264-7.616 0-4.872-1.652-7.56-5.264-7.56zm17.556 4.593a4.034 4.034 0 0 0-3.976 4.004v7.756a1.167 1.167 0 0 1-1.232 1.204 1.147 1.147 0 0 1-1.176-1.176V217.22a1.186 1.186 0 0 1 1.176-1.204 1.15 1.15 0 0 1 1.204.952 6.474 6.474 0 0 1 4.004-1.428 1.191 1.191 0 1 1 0 2.38zm14.414 6.747H753.5c.392 2.632 2.072 4.312 4.536 4.312a4.204 4.204 0 0 0 3.332-1.456 1.158 1.158 0 0 1 .868-.448 1.307 1.307 0 0 1 1.26 1.232c0 .336-.084.588-.672 1.176a6.823 6.823 0 0 1-4.788 1.876c-4.508 0-7.028-3.724-7.028-7.924 0-4.172 2.52-7.896 7.028-7.896 4.564 0 7 3.724 7 7.896a1.194 1.194 0 0 1-1.176 1.232zm-5.824-6.748c-2.632 0-4.172 1.932-4.536 4.34h9.072c-.392-2.688-2.072-4.34-4.536-4.34zm14.7 13.44c-1.54 0-4.116-.476-5.432-2.1a1.239 1.239 0 0 1 1.008-1.988 1.149 1.149 0 0 1 .868.476 4.787 4.787 0 0 0 3.556 1.232c2.52 0 3.332-.868 3.332-2.128 0-3.584-8.54-1.372-8.54-7.14 0-3.052 2.856-4.172 5.516-4.172 1.512 0 5.068.756 5.068 2.324a1.257 1.257 0 0 1-1.176 1.26 1.684 1.684 0 0 1-.924-.364 4.54 4.54 0 0 0-2.968-.84c-2.324 0-3.136.868-3.136 1.792 0 3.332 8.568 1.176 8.568 7.14 0 3.304-2.772 4.508-5.74 4.508zm20.832-.505a1.137 1.137 0 0 1-1.204-1.176 6.774 6.774 0 0 1-4.62 1.68c-4.508 0-7.028-3.696-7.028-7.924 0-4.2 2.52-7.896 7.028-7.896a6.169 6.169 0 0 1 4.62 1.82v-5.208a1.204 1.204 0 0 1 2.408-.028v17.556a1.137 1.137 0 0 1-1.204 1.176zm-5.824-12.936c-2.8 0-4.62 2.184-4.62 5.516 0 3.36 1.82 5.544 4.62 5.544 2.828 0 4.62-2.184 4.62-5.544 0-3.332-1.792-5.516-4.62-5.516z"/><use xlink:href="#P" x="-184.726" y="-262.288"/><path d="M826.73 230.883a1.131 1.131 0 0 1-1.176-1.176v-7.784a3.99 3.99 0 1 0-7.98 0v7.756a1.19 1.19 0 0 1-1.232 1.232 1.154 1.154 0 0 1-1.176-1.204V217.2a1.114 1.114 0 0 1 1.176-1.176 1.171 1.171 0 0 1 1.204.924 6.395 6.395 0 0 1 10.388 4.984v7.756a1.145 1.145 0 0 1-1.204 1.204zm-70.602 13.332l.586-.44h3.467q.537 0 .488.488v30.86q-.098.538.44.488h6.348q.537-.097.44.44v2.393q.048.538-.44.44H750.17q-.538.097-.488-.44v-2.393q-.05-.537.488-.44h6.592q.488.05.44-.488v-26.025q-.05-.586-.488-.098a21.433 21.433 0 0 1-6.689 3.906q-.4.196-.44-.244v-2.5a.473.473 0 0 1 .342-.439 12.274 12.274 0 0 0 6.201-5.518h0zm31.06 4.297a63.535 63.535 0 0 0-6.543 14.697 64.495 64.495 0 0 0-2.441 15.332q.097.634-.488.537h-2.783q-.538-.05-.44-.537a62.799 62.799 0 0 1 2.734-15.527 64.542 64.542 0 0 1 6.689-15.039q.44-.683-.05-.684h-15.04q-.538.098-.44-.488v-2.588q-.098-.537.44-.44h18.115q.537-.097.44.44v3.613l-.195.684zm12.145-4.178a3.688 3.688 0 0 1 .968 2.562v1.765a3.686 3.686 0 0 1-.968 2.562 3.369 3.369 0 0 1-2.505 1.025 3.334 3.334 0 0 1-2.477-1.025 3.62 3.62 0 0 1-.997-2.562v-1.765a3.622 3.622 0 0 1 .997-2.562 3.336 3.336 0 0 1 2.477-1.024 3.37 3.37 0 0 1 2.505 1.024zM795.5 264.26h-1.253q-.34.03-.17-.285l11.728-19.955q.114-.34.37-.285h1.252q.313-.028.17.256l-11.757 19.955c-.076.228-.2.332-.34.313zm-.54-15.685q.114 1.993 1.88 2.02 1.793-.028 1.88-2.02v-1.594q-.086-1.992-1.88-2.02-1.766.03-1.88 2.02zm7.373 15.087a3.585 3.585 0 0 1-.997-2.534v-1.736a3.586 3.586 0 0 1 .997-2.534 3.388 3.388 0 0 1 2.477-.996 3.424 3.424 0 0 1 2.505.996 3.65 3.65 0 0 1 .968 2.534v1.736a3.649 3.649 0 0 1-.968 2.534 3.371 3.371 0 0 1-2.505 1.025 3.336 3.336 0 0 1-2.476-1.025zm4.355-2.62v-1.565q-.086-1.936-1.88-1.964-1.766.03-1.88 1.964v1.565q.114 1.964 1.88 1.993 1.793-.028 1.88-1.993h0z"/><g opacity=".6" fill="#fff"><use xlink:href="#Q"/><use xlink:href="#R"/><use xlink:href="#S"/><use xlink:href="#T"/><use xlink:href="#U"/><use xlink:href="#V"/><use xlink:href="#Q" x="62.499"/><path d="M607.784 1039.416a1.14 1.14 0 1 1 0-2.279 1.14 1.14 0 0 1 0 2.279zm0 6.563a1.141 1.141 0 1 1 0-2.281 1.141 1.141 0 0 1 0 2.281zm13.642.36a5.012 5.012 0 0 1-5.021-5.021v-9.02a.58.58 0 0 1 1.16 0v9.02a3.871 3.871 0 1 0 7.742 0v-9.02a.57.57 0 0 1 1.14 0v9.02a5.01 5.01 0 0 1-5.021 5.021z"/><use xlink:href="#T" x="61.199"/><use xlink:href="#W"/><use xlink:href="#X"/><use xlink:href="#Y"/><use xlink:href="#Z"/><use xlink:href="#S" x="134.138"/><use xlink:href="#a"/><path d="M715.123 1033.436a1.141 1.141 0 1 1 1.141-1.141 1.127 1.127 0 0 1-1.141 1.141zm0 12.543a.55.55 0 0 1-.58-.561v-9.502a.552.552 0 0 1 .58-.561.545.545 0 0 1 .561.561v9.502a.536.536 0 0 1-.561.561zm7.06.001h-.62a2.075 2.075 0 0 1-2.36-2.342v-7.14h-1.02a.571.571 0 0 1 0-1.141h1.02v-3.06a.563.563 0 0 1 .58-.561.547.547 0 0 1 .56.561v3.06h1.84a.571.571 0 0 1 0 1.141h-1.84v7.14c0 .98.28 1.2 1.22 1.2h.62a.571.571 0 0 1 0 1.141z"/><use xlink:href="#b"/><path d="M741.783 1045.98h-6.66a.607.607 0 0 1-.58-.561v-13.123a.552.552 0 0 1 .58-.561.545.545 0 0 1 .561.561v12.543h6.1a.571.571 0 0 1 0 1.141zm8.78-13.125h-3.88v12.563a.552.552 0 0 1-.58.561.545.545 0 0 1-.56-.561v-12.562h-3.88a.561.561 0 1 1 0-1.121h8.9a.561.561 0 1 1 0 1.121z"/><use xlink:href="#Z" x="73.176"/><use xlink:href="#Z" x="90.696"/><use xlink:href="#U" x="206.453"/><use xlink:href="#X" x="143.534"/><use xlink:href="#a" x="102.454"/><use xlink:href="#V" x="231.713"/><path d="M841.98 1045.98a.547.547 0 0 1-.56-.561v-6.72a2.551 2.551 0 0 0-5.102-.021v6.742a.546.546 0 0 1-.56.561.563.563 0 0 1-.58-.561v-6.72a2.541 2.541 0 0 0-5.081-.021v6.742a.57.57 0 0 1-1.141 0v-9.502a.57.57 0 0 1 1.141 0v.12a3.64 3.64 0 0 1 2.54-1.02 3.695 3.695 0 0 0 6.222 0 3.658 3.658 0 0 1 3.7 3.66v6.742a.563.563 0 0 1-.58.561zm11.86-9.824l-5.42 12.822a2.072 2.072 0 0 1-2.141 1.201h-.88a.563.563 0 0 1-.56-.58.557.557 0 0 1 .56-.561h.88c.44 0 .9-.02 1.08-.48l1.14-2.72-4.142-9.682a.633.633 0 0 1-.04-.26.56.56 0 0 1 .58-.541.513.513 0 0 1 .5.34l3.722 8.682 3.68-8.682a.521.521 0 0 1 .52-.34.543.543 0 0 1 .561.541.633.633 0 0 1-.04.26z"/><use xlink:href="#b" x="131.276"/><use xlink:href="#c"/><use xlink:href="#X" x="227.534"/><use xlink:href="#Y" x="227.535"/><path d="M909.38 1041.236h-8.302c.18 2.28 1.66 3.94 3.84 3.94a3.615 3.615 0 0 0 2.94-1.381.526.526 0 0 1 .48-.279.611.611 0 0 1 .62.541c0 .18 0 .22-.38.658a4.718 4.718 0 0 1-3.66 1.602c-3.22 0-5.02-2.64-5.02-5.662 0-3 1.8-5.64 5.02-5.64s5.02 2.66 5.02 5.64a.605.605 0 0 1-.56.58zm-4.46-5.08c-2.4 0-3.66 1.84-3.84 3.94h7.7c-.18-2.28-1.66-3.94-3.86-3.94zm15.798 10.102a3.598 3.598 0 0 1-3.621-3.58.58.58 0 0 1 1.16 0 2.433 2.433 0 0 0 2.421 2.439 2.459 2.459 0 0 0 2.48-2.439v-10.383a.547.547 0 0 1 .561-.561.563.563 0 0 1 .58.561v10.383a3.603 3.603 0 0 1-3.581 3.58z"/><use xlink:href="#X" x="278.934"/><use xlink:href="#U" x="365.391"/><use xlink:href="#R" x="406.431"/><use xlink:href="#W" x="326.853"/><use xlink:href="#Q" x="440.312"/><use xlink:href="#c" x="123.637"/><use xlink:href="#X" x="351.174"/><path d="M1017.237 1046.318a4.54 4.54 0 0 1-3.881-1.9v5.182a.57.57 0 1 1-1.141 0v-13.684a.57.57 0 0 1 1.141 0v.98a4.574 4.574 0 0 1 3.881-1.881c3.22 0 5.02 2.64 5.02 5.64 0 3.022-1.8 5.662-5.02 5.662zm0-10.162c-2.38 0-3.88 1.9-3.88 4.5s1.5 4.52 3.88 4.52 3.88-1.92 3.88-4.52-1.5-4.5-3.88-4.5z"/><use xlink:href="#X" x="376.432"/><use xlink:href="#Y" x="376.432"/></g><g opacity=".3" fill="#fff"><path d="M42.328 1046.045a7.892 7.892 0 0 1-5.503-2.002 1.364 1.364 0 0 1-1.468 1.401 1.346 1.346 0 0 1-1.401-1.401v-20.88a1.435 1.435 0 0 1 2.869-.033v6.238a7.4 7.4 0 0 1 5.503-2.169c5.37 0 8.373 4.403 8.373 9.406 0 5.037-3.002 9.44-8.373 9.44zm0-16c-3.335 0-5.503 2.602-5.503 6.57 0 4.003 2.168 6.604 5.503 6.604s5.504-2.602 5.504-6.604c0-3.97-2.168-6.57-5.504-6.57zm25.555 8.037h-12.34c.467 3.136 2.468 5.137 5.403 5.137a5.003 5.003 0 0 0 3.969-1.734 1.383 1.383 0 0 1 1.034-.533 1.556 1.556 0 0 1 1.501 1.468c0 .4-.1.7-.8 1.4a8.129 8.129 0 0 1-5.704 2.235c-5.37 0-8.372-4.437-8.372-9.44 0-4.97 3.002-9.406 8.372-9.406 5.437 0 8.34 4.437 8.34 9.406a1.422 1.422 0 0 1-1.401 1.468zm-6.937-8.038c-3.136 0-4.97 2.3-5.403 5.17H66.35c-.467-3.202-2.468-5.17-5.403-5.17zM88 1045.478a3.247 3.247 0 0 1-2.969-1.901 7.642 7.642 0 0 1-5.87 2.469c-5.437 0-8.372-4.47-8.372-9.44s3.002-9.406 8.372-9.406a7.369 7.369 0 0 1 5.504 2.202v-.134a1.376 1.376 0 0 1 1.4-1.501 1.341 1.341 0 0 1 1.468 1.401v12.875a.54.54 0 0 0 .467.601 1.418 1.418 0 1 1 0 2.835zm-8.84-15.443c-3.336 0-5.504 2.602-5.504 6.57 0 4.003 2.168 6.604 5.504 6.604 3.37 0 5.504-2.602 5.504-6.604 0-3.97-2.135-6.57-5.504-6.57z"/><use xlink:href="#d"/><path d="M115.158 1045.478h-.567c-3.17 0-4.37-1.668-4.37-4.403V1030.6h-1a1.418 1.418 0 1 1-.033-2.835h1v-4.637a1.355 1.355 0 0 1 1.435-1.4 1.328 1.328 0 0 1 1.401 1.4v4.637h2.135a1.383 1.383 0 0 1 1.4 1.401 1.356 1.356 0 0 1-1.4 1.434h-2.135v10.774c0 .934.333 1.268 1.268 1.268h.833a1.376 1.376 0 0 1 1.435 1.4 1.357 1.357 0 0 1-1.4 1.435zm4.604-20.415a2.401 2.401 0 1 1 2.402-2.401 2.392 2.392 0 0 1-2.402 2.401zm0 20.414a1.4 1.4 0 0 1-1.467-1.401V1029.2a1.408 1.408 0 0 1 1.467-1.435 1.374 1.374 0 0 1 1.401 1.435v14.876a1.346 1.346 0 0 1-1.401 1.401zm10.376-14.877h-1.5v13.442a1.364 1.364 0 0 1-1.468 1.401 1.346 1.346 0 0 1-1.401-1.401V1030.6h-1.37a1.418 1.418 0 0 1 0-2.835h1.367v-2.27a3.801 3.801 0 0 1 3.836-3.769 1.418 1.418 0 1 1 0 2.835.934.934 0 0 0-.967.9v2.302h1.5a1.418 1.418 0 1 1 0 2.835z"/><use xlink:href="#d" x="42.068"/><path d="M154.725 1045.544a3.403 3.403 0 0 1-3.336-3.402v-18.98a1.435 1.435 0 0 1 2.869-.033v19.013a.527.527 0 0 0 .467.567 1.418 1.418 0 1 1 0 2.835zm15.37-.066v-1.264c1.886-.237 2.046-.437 2.046-3.157v-6.7c0-2.8-1.248-4.017-3.064-4.017a5.597 5.597 0 0 0-3.47 1.493v9.476c0 2.527.187 2.658 2.06 2.896v1.264h-8.968v-1.264c2.254-.33 2.5-.4 2.5-3v-8.2c0-2.446-.303-2.565-2.185-2.922v-1.184a34.101 34.101 0 0 0 6.653-1.533l-.052 2.95 2.6-1.745a5.659 5.659 0 0 1 3.159-1.086c3.194 0 5.2 2.338 5.2 6.3v7.5c0 2.54.237 2.657 2.277 2.92v1.264zm23.9-3.703c-2.458 3.427-5.488 4.178-7.014 4.178-5.142 0-8.124-3.936-8.124-8.594a10.333 10.333 0 0 1 2.832-7.062 8.602 8.602 0 0 1 6.082-2.814 6.386 6.386 0 0 1 6.37 6.347c-.014.715-.08 1.277-.612 1.4-.767.184-6.17.5-10.318.647.062 4.587 2.717 6.74 5.556 6.74a6.776 6.776 0 0 0 4.543-1.866zm-7.07-12.7c-1.667 0-3.167 1.807-3.516 4.963l5.486-.118c.6-.026.848-.146.848-.792.04-2.022-1.037-4.053-2.818-4.053zm34.284.145c-1.943.343-2.248.624-3.105 2.765-1.33 3.462-3.102 8.53-4.934 13.94h-1.512l-4.65-11.46-4.55 11.46h-1.472l-4.685-14.192c-.687-1.985-.94-2.274-2.855-2.512v-1.25h9.397v1.25c-2.325.345-2.535.672-2.058 2.133l2.52 8.214c1.507-3.68 2.988-7.62 4.327-11.424h1.456c1.4 3.76 2.986 7.702 4.573 11.568.742-2.107 2.062-5.964 2.557-8.108.412-1.674-.008-2.078-2.753-2.383v-1.25h7.742zm9.4 3.746c-.92-2.606-2.155-3.984-4.2-3.984a2.166 2.166 0 0 0-2.225 2.266c0 1.497 1.046 2.264 3.16 3.216 3.278 1.496 5.3 2.787 5.3 5.736 0 3.85-3.6 5.764-6.945 5.764a12.073 12.073 0 0 1-4.92-1.161l-.662-4.892 1.252-.224c.8 2.5 2.33 4.75 4.976 4.75a2.231 2.231 0 0 0 2.438-2.281c0-1.423-.76-2.333-3.092-3.467-2.67-1.295-5.107-2.64-5.107-5.775 0-3.046 2.533-5.42 6.565-5.42a18.751 18.751 0 0 1 4.112.567l.62 4.577z"/></g><g fill="#fff"><path d="M64.48 74.48c-2.94 4.08-7.14 6.54-13.38 6.54-12.9 0-17.46-10.68-17.46-22.38 0-11.76 4.56-22.44 17.46-22.44 6.06 0 10.5 2.4 13.32 6.54a2.311 2.311 0 0 1 .54 1.5 2.6 2.6 0 0 1-2.64 2.52 2.51 2.51 0 0 1-2.04-1.08c-1.86-2.7-4.62-4.32-9.18-4.32-8.52 0-12.3 6.3-12.3 17.28s3.78 17.28 12.3 17.28c4.56 0 7.32-1.74 9.18-4.38a2.425 2.425 0 0 1 2.04-1.14 2.525 2.525 0 0 1 2.16 4.08zM94.9 51.742L78.7 88.58a6.876 6.876 0 0 1-6.6 4.02h-1.92a2.42 2.42 0 0 1-2.52-2.64 2.387 2.387 0 0 1 2.52-2.52h1.86a1.894 1.894 0 0 0 1.98-.96l3.96-8.88-11.7-25.86a2.168 2.168 0 0 1-.3-1.14 2.705 2.705 0 0 1 2.76-2.52 2.31 2.31 0 0 1 2.16 1.56l9.78 21.72 9.54-21.72a2.375 2.375 0 0 1 2.22-1.5 2.659 2.659 0 0 1 2.76 2.46 2.039 2.039 0 0 1-.3 1.14zm26.214 24.718a13.936 13.936 0 0 1-10.74 4.56c-9.66 0-15.06-7.92-15.06-16.98 0-9 5.4-16.92 15.06-16.92a13.936 13.936 0 0 1 10.74 4.56 2.615 2.615 0 0 1 .72 1.74 2.794 2.794 0 0 1-2.7 2.58 2.84 2.84 0 0 1-1.86-.84 8.814 8.814 0 0 0-6.9-2.94c-6 0-9.9 4.68-9.9 11.82 0 7.2 3.9 11.88 9.9 11.88a8.923 8.923 0 0 0 6.9-2.939 2.396 2.396 0 0 1 1.86-.9 2.59 2.59 0 0 1 1.98 4.38zm10.44 3.66a6.122 6.122 0 0 1-6-6.12V39.862a2.58 2.58 0 0 1 5.16-.06V74a.947.947 0 0 0 .84 1.02 2.55 2.55 0 1 1 0 5.1z"/><use xlink:href="#e"/><path d="M173.612 80a2.424 2.424 0 0 1-2.52-2.52V60.8a8.55 8.55 0 1 0-17.099 0v16.62a2.55 2.55 0 0 1-2.64 2.64 2.472 2.472 0 0 1-2.52-2.58V50.66a2.387 2.387 0 0 1 2.52-2.52 2.509 2.509 0 0 1 2.58 1.98 13.703 13.703 0 0 1 22.259 10.68v16.62a2.454 2.454 0 0 1-2.58 2.58zm21.84 13.68c-3.66 0-12.72-1.32-12.72-4.92a2.794 2.794 0 0 1 2.58-2.7c1.38 0 .18.18 3.36 1.38a18.748 18.748 0 0 0 6.78 1.14c6.66 0 9.9-3.18 9.9-9.48v-2.7a14.039 14.039 0 0 1-9.9 3.6c-9.48 0-15.06-6.72-15.06-15.96 0-9 5.4-16.92 15.06-16.92 4.2 0 7.44 1.26 9.9 3.84v-.24a2.553 2.553 0 0 1 2.58-2.58 2.519 2.519 0 0 1 2.58 2.58V79.1c0 9.54-5.7 14.58-15.06 14.58zm0-41.458c-6 0-9.9 4.68-9.9 11.82 0 6.84 3.6 10.86 9.9 10.86s9.9-4.02 9.9-10.86c0-7.14-3.84-11.82-9.9-11.82zM239.07 80h-1.02c-5.7 0-7.86-3-7.86-7.92V53.24h-1.8a2.55 2.55 0 1 1-.06-5.1h1.8V39.8a2.436 2.436 0 0 1 2.58-2.52 2.389 2.389 0 0 1 2.52 2.52v8.34h3.84a2.488 2.488 0 0 1 2.52 2.52 2.441 2.441 0 0 1-2.52 2.58h-3.84v19.38c0 1.68.6 2.28 2.28 2.28h1.5a2.475 2.475 0 0 1 2.58 2.52 2.441 2.441 0 0 1-2.52 2.58z"/><use xlink:href="#f"/><path d="M333.568 40.462l-9.9 37.438a2.277 2.277 0 0 1-2.46 2.1 2.543 2.543 0 0 1-2.58-2.1l-8.1-28.74-8.04 28.74a2.483 2.483 0 0 1-2.52 2.1 2.404 2.404 0 0 1-2.52-2.1l-9.9-37.438a3.558 3.558 0 0 1-.12-.84 2.504 2.504 0 0 1 2.7-2.34 2.451 2.451 0 0 1 2.4 1.86l7.56 28.62 7.92-28.38a2.598 2.598 0 0 1 5.1 0l7.92 28.38 7.56-28.62a2.67 2.67 0 0 1 2.46-1.98 2.547 2.547 0 0 1 2.64 2.46 3.558 3.558 0 0 1-.12.84z"/><use xlink:href="#f" x="89.878"/><path d="M381.627 52.222a8.644 8.644 0 0 0-8.52 8.58v16.62a2.501 2.501 0 0 1-2.64 2.58 2.456 2.456 0 0 1-2.52-2.52v-26.76a2.541 2.541 0 0 1 2.52-2.58 2.463 2.463 0 0 1 2.58 2.04 13.875 13.875 0 0 1 8.58-3.06 2.552 2.552 0 1 1 0 5.1zm29.1.298l-8.94 8.94 9.3 14.58a3.298 3.298 0 0 1 .42 1.44 2.705 2.705 0 0 1-2.7 2.58 2.428 2.428 0 0 1-2.04-1.2l-8.76-13.62-5.1 5.1v7.14a2.581 2.581 0 0 1-5.16 0V39.802a2.421 2.421 0 0 1 2.52-2.52 2.453 2.453 0 0 1 2.64 2.52v23.28l14.16-14.16a2.575 2.575 0 0 1 1.92-.78 2.682 2.682 0 0 1 2.58 2.58 2.641 2.641 0 0 1-.84 1.8z"/><use xlink:href="#e" x="290.094"/><path d="M448.946 81.02c-3.3 0-8.82-1.02-11.64-4.5a2.655 2.655 0 0 1 2.16-4.26 2.464 2.464 0 0 1 1.86 1.02c1.86 2.04 4.92 2.64 7.62 2.64 5.4 0 7.14-1.86 7.14-4.56 0-7.68-18.3-2.94-18.3-15.3 0-6.54 6.12-8.94 11.82-8.94 3.24 0 10.86 1.62 10.86 4.98a2.694 2.694 0 0 1-2.52 2.7 3.612 3.612 0 0 1-1.98-.78c-1.62-1.38-3.96-1.8-6.36-1.8-4.98 0-6.72 1.86-6.72 3.84 0 7.14 18.36 2.52 18.36 15.3 0 7.08-5.94 9.66-12.3 9.66z"/><use xlink:href="#f" x="232.735"/><path d="M535.584 80a2.424 2.424 0 0 1-2.52-2.52V60.8a8.55 8.55 0 1 0-17.1 0v16.62a2.55 2.55 0 0 1-2.64 2.64 2.472 2.472 0 0 1-2.52-2.58V50.66a2.387 2.387 0 0 1 2.52-2.52 2.509 2.509 0 0 1 2.58 1.98 13.702 13.702 0 0 1 22.259 10.68v16.62a2.453 2.453 0 0 1-2.579 2.58zm30.6 0h-1.02c-5.7 0-7.86-3-7.86-7.92V53.24h-1.8a2.55 2.55 0 0 1-.061-5.1h1.8V39.8a2.436 2.436 0 0 1 2.579-2.52 2.39 2.39 0 0 1 2.521 2.52v8.34h3.84a2.487 2.487 0 0 1 2.52 2.52 2.441 2.441 0 0 1-2.52 2.58h-3.84v19.38c0 1.68.6 2.28 2.28 2.28h1.5a2.475 2.475 0 0 1 2.58 2.52 2.441 2.441 0 0 1-2.52 2.58zm31.498 0a2.424 2.424 0 0 1-2.521-2.52V60.8a8.55 8.55 0 1 0-17.1 0v16.62a2.55 2.55 0 0 1-2.64 2.64 2.472 2.472 0 0 1-2.52-2.58V39.862a2.58 2.58 0 0 1 5.159-.06v10.38a12.1 12.1 0 0 1 8.521-3.06 13.79 13.79 0 0 1 13.679 13.68v16.62a2.453 2.453 0 0 1-2.579 2.58zm34.32-13.32h-22.2c.84 5.64 4.44 9.24 9.72 9.24a9.007 9.007 0 0 0 7.14-3.12 2.483 2.483 0 0 1 1.859-.96 2.8 2.8 0 0 1 2.7 2.64c0 .72-.18 1.26-1.44 2.52a14.618 14.618 0 0 1-10.259 4.02c-9.66 0-15.06-7.98-15.06-16.98 0-8.94 5.4-16.92 15.06-16.92 9.78 0 15 7.98 15 16.92a2.558 2.558 0 0 1-2.52 2.64zm-12.48-14.46c-5.64 0-8.94 4.14-9.72 9.3h19.438c-.84-5.76-4.44-9.3-9.72-9.3zM665.6 81.08a15.03 15.03 0 0 1-15.06-15.06V39.8a2.581 2.581 0 0 1 5.16 0v26.22a9.93 9.93 0 1 0 19.859 0V39.86a2.55 2.55 0 1 1 5.1-.06v26.22a15.03 15.03 0 0 1-15.06 15.06zm35.94-.06a13.132 13.132 0 0 1-9.9-3.96v13.02a2.501 2.501 0 0 1-2.64 2.58 2.472 2.472 0 0 1-2.52-2.58V50.722a2.472 2.472 0 0 1 2.52-2.58 2.501 2.501 0 0 1 2.64 2.58 14.402 14.402 0 0 1 9.9-3.66c9.66 0 15.06 7.92 15.06 16.92 0 9.12-5.4 17.04-15.06 17.04zm0-28.86c-5.94 0-9.9 4.74-9.9 11.82 0 7.2 3.9 11.94 9.9 11.94s9.9-4.68 9.9-11.88c0-7.14-3.9-11.88-9.9-11.88z"/></g><g opacity=".7" fill="#fff"><path d="M52.814 124.506a9.458 9.458 0 0 1-8.289 4.141c-7.992 0-10.816-6.763-10.816-14.172 0-7.446 2.824-14.2 10.816-14.2a9.352 9.352 0 0 1 8.252 4.142.781.781 0 0 1 .223.608 1.124 1.124 0 0 1-1.152 1.063.978.978 0 0 1-.817-.418 7.265 7.265 0 0 0-6.505-3.229c-6.17 0-8.698 4.94-8.698 12.044 0 7.067 2.527 12.007 8.698 12.007a7.357 7.357 0 0 0 6.579-3.23.862.862 0 0 1 .817-.494 1.148 1.148 0 0 1 1.115 1.102 1.232 1.232 0 0 1-.223.647z"/><use xlink:href="#g"/><use xlink:href="#h"/><path d="M74.527 104.18a2.167 2.167 0 1 1 2.118-2.166 2.119 2.119 0 0 1-2.118 2.166zm0 23.822a1.032 1.032 0 0 1-1.078-1.063V108.9a1.034 1.034 0 0 1 1.078-1.063 1.023 1.023 0 0 1 1.04 1.063v18.048a1.005 1.005 0 0 1-1.04 1.064zm22.34-9.006H81.44c.334 4.332 3.085 7.485 7.137 7.485a6.663 6.663 0 0 0 5.464-2.622.971.971 0 0 1 .893-.531 1.145 1.145 0 0 1 1.152 1.025c0 .342 0 .418-.707 1.254a8.689 8.689 0 0 1-6.802 3.039c-5.984 0-9.33-5.015-9.33-10.752 0-5.7 3.346-10.715 9.33-10.715s9.33 5.054 9.33 10.715a1.138 1.138 0 0 1-1.041 1.102zm-8.3-9.65c-4.46 0-6.803 3.495-7.137 7.485h14.3c-.335-4.332-3.085-7.485-7.174-7.485z"/><use xlink:href="#i"/><path d="M151.328 109.23l-6.06 17.857c-.26.722-.595.912-1.078.912-.632 0-.818-.228-1.04-.912l-4.87-14.817-4.87 14.817c-.26.722-.595.912-1.078.912a1.092 1.092 0 0 1-1.041-.912l-6.02-17.857a1.643 1.643 0 0 1-.074-.418 1.065 1.065 0 0 1 1.078-.987.966.966 0 0 1 .966.722l5.093 15.046 4.87-14.855c.223-.723.446-.912 1.078-.912.446 0 .817.15 1.04.912l4.943 14.855 5.018-15.046a.967.967 0 0 1 .967-.722 1.09 1.09 0 0 1 1.152 1.025 1.141 1.141 0 0 1-.074.38z"/><use xlink:href="#g" x="97.92"/><use xlink:href="#h" x="97.92"/><path d="M187.278 128a1.055 1.055 0 0 1-1.077-1.063v-11.095a6.358 6.358 0 1 0-12.713 0v11.095a1.059 1.059 0 1 1-2.118 0v-24.925a1.059 1.059 0 1 1 2.118 0v8.093a8.184 8.184 0 0 1 6.356-2.926 8.64 8.64 0 0 1 8.475 8.663v11.095a1.047 1.047 0 0 1-1.041 1.064z"/><use xlink:href="#j"/><use xlink:href="#k"/><use xlink:href="#i" x="150.262"/><use xlink:href="#h" x="205.803"/><path d="M296.946 128.646a8.374 8.374 0 0 1-7.211-3.609v1.9a1.059 1.059 0 1 1-2.118 0v-24.925a1.059 1.059 0 1 1 2.118 0v8.74a8.437 8.437 0 0 1 7.211-3.572c5.984 0 9.33 5.016 9.33 10.715 0 5.737-3.346 10.752-9.33 10.752zm0-19.3c-4.423 0-7.21 3.61-7.21 8.55s2.788 8.587 7.21 8.587 7.212-3.647 7.212-8.587-2.788-8.55-7.212-8.55z"/><use xlink:href="#g" x="253.649"/><path d="M331.743 125.76a8.547 8.547 0 0 1-6.653 2.887c-5.984 0-9.33-5.015-9.33-10.752 0-5.7 3.346-10.715 9.33-10.715a8.547 8.547 0 0 1 6.653 2.888 1.017 1.017 0 0 1 .298.722 1.18 1.18 0 0 1-1.078 1.141 1.088 1.088 0 0 1-.781-.38 6.485 6.485 0 0 0-5.092-2.204c-4.386 0-7.2 3.6-7.2 8.55s2.825 8.587 7.2 8.587a6.61 6.61 0 0 0 5.092-2.204 1.088 1.088 0 0 1 .781-.38 1.116 1.116 0 0 1 1.078 1.102 1.102 1.102 0 0 1-.298.761zm20.037-16.414L341.708 133.7c-.744 1.786-2.268 2.28-3.978 2.28h-1.636a1.083 1.083 0 0 1 0-2.165h1.636c.817 0 1.673-.038 2.007-.912l2.12-5.167-7.694-18.4a1.235 1.235 0 0 1-.074-.494 1.05 1.05 0 0 1 1.078-1.025.953.953 0 0 1 .929.646l6.914 16.5 6.84-16.5a.969.969 0 0 1 .967-.646 1.018 1.018 0 0 1 1.041 1.025 1.235 1.235 0 0 1-.074.494z"/><use xlink:href="#l"/><path d="M376.54 128.23a3.945 3.945 0 0 1-3.68-4.027v-22.188a1.059 1.059 0 1 1 2.118 0V124.2c0 2.432 2.64 1.026 2.64 2.736a1.217 1.217 0 0 1-1.078 1.291z"/><use xlink:href="#m"/><use xlink:href="#l" x="56.394"/><use xlink:href="#k" x="198.886"/><use xlink:href="#j" x="249.854"/><use xlink:href="#j" x="279.336"/><path d="M525.276 128a1.055 1.055 0 0 1-1.078-1.063v-1.216a8.182 8.182 0 0 1-6.356 2.925 8.665 8.665 0 0 1-8.475-8.662V108.9a1.06 1.06 0 1 1 2.119 0v11.095a6.357 6.357 0 1 0 12.712 0V108.9a1.06 1.06 0 1 1 2.119 0v18.048a1.047 1.047 0 0 1-1.041 1.064z"/><use xlink:href="#h" x="467.89"/><use xlink:href="#m" x="161.082"/><path d="M571.3 109.688a6.425 6.425 0 0 0-6.356 6.497v10.753a1.059 1.059 0 1 1-2.118 0V108.9a1.059 1.059 0 1 1 2.118 0v1.558a8.41 8.41 0 0 1 6.356-2.925 1.083 1.083 0 0 1 0 2.165z"/><use xlink:href="#i" x="472.759"/></g></svg>