<svg xmlns="http://www.w3.org/2000/svg" xmlns:xlink="http://www.w3.org/1999/xlink" viewBox="0 0 1080 1080"><defs><style>.cls-1{fill:url(#New_Gradient_Swatch_45);}.cls-2{opacity:0.7;}.cls-3,.cls-9{fill:#fff;}.cls-4{opacity:0.8;}.cls-5{fill:url(#New_Gradient_Swatch_290);}.cls-6,.cls-7,.cls-8{stroke:#fff;stroke-miterlimit:10;}.cls-6{stroke-width:2px;fill:url(#linear-gradient);}.cls-7,.cls-8{fill:none;}.cls-7{stroke-width:2.25055px;stroke-dasharray:2.25055 4.50109;}.cls-9{opacity:0.7;}</style><linearGradient id="New_Gradient_Swatch_45" x1="11.75" y1="11.75" x2="1068.25" y2="1068.25" gradientUnits="userSpaceOnUse"><stop offset="0" stop-color="#1a2980"/><stop offset="0.16877" stop-color="#1d4e91"/><stop offset="0.45026" stop-color="#2185ab"/><stop offset="0.69272" stop-color="#24aebe"/><stop offset="0.8839" stop-color="#25c7ca"/><stop offset="1" stop-color="#26d0ce"/></linearGradient><linearGradient id="New_Gradient_Swatch_290" x1="209.21625" y1="510.5" x2="870.78375" y2="510.5" gradientUnits="userSpaceOnUse"><stop offset="0" stop-color="#757f9a"/><stop offset="0.18664" stop-color="#8d96ad"/><stop offset="0.54412" stop-color="#b5bccd"/><stop offset="0.82769" stop-color="#ced4e1"/><stop offset="1" stop-color="#d7dde8"/></linearGradient><linearGradient id="linear-gradient" x1="380.90097" y1="351.40097" x2="699.09903" y2="669.59903" gradientUnits="userSpaceOnUse"><stop offset="0" stop-color="#26d0ce"/><stop offset="0.1161" stop-color="#25c7ca"/><stop offset="0.30728" stop-color="#24aebe"/><stop offset="0.54974" stop-color="#2185ab"/><stop offset="0.83123" stop-color="#1d4e91"/><stop offset="1" stop-color="#1a2980"/></linearGradient></defs><title>BNEWS - Lorem Ipsum Dolor - V.0 - A</title><g id="bg"><rect class="cls-1" width="1080" height="1080" rx="40"/></g><g id="credits"><g class="cls-2"><path class="cls-3" d="M44.228,1046.04492a7.89231,7.89231,0,0,1-5.50293-2.002,1.364,1.364,0,0,1-1.46778,1.40137A1.34631,1.34631,0,0,1,35.856,1044.043v-20.88086a1.43477,1.43477,0,0,1,2.86914-.0332v6.23828a7.3996,7.3996,0,0,1,5.50293-2.16895c5.37109,0,8.373,4.40332,8.373,9.40625C52.60107,1041.6416,49.59912,1046.04492,44.228,1046.04492Zm0-16.01074c-3.335,0-5.50293,2.60156-5.50293,6.57031,0,4.00293,2.168,6.60449,5.50293,6.60449,3.33593,0,5.5039-2.60156,5.5039-6.60449C49.73193,1032.63574,47.564,1030.03418,44.228,1030.03418Z"/><path class="cls-3" d="M69.78271,1038.07227H57.44189c.4668,3.13574,2.46778,5.13671,5.40332,5.13671a5.00316,5.00316,0,0,0,3.96875-1.73437,1.383,1.383,0,0,1,1.03418-.5332,1.55625,1.55625,0,0,1,1.501,1.46777c0,.39941-.09961.7002-.7998,1.40039a8.1294,8.1294,0,0,1-5.70411,2.23535c-5.37011,0-8.37207-4.43652-8.37207-9.44043,0-4.96972,3.002-9.40625,8.37207-9.40625,5.43653,0,8.33887,4.43653,8.33887,9.40625A1.42231,1.42231,0,0,1,69.78271,1038.07227Zm-6.9375-8.03809c-3.13574,0-4.96972,2.30078-5.40332,5.16992H68.24854C67.78174,1032.002,65.78076,1030.03418,62.84521,1030.03418Z"/><path class="cls-3" d="M89.89893,1045.47754a3.24732,3.24732,0,0,1-2.96875-1.90137,7.64165,7.64165,0,0,1-5.87012,2.46875c-5.4375,0-8.37207-4.46972-8.37207-9.44043,0-4.96972,3.002-9.40625,8.37207-9.40625a7.36946,7.36946,0,0,1,5.5039,2.20215v-.13379a1.37555,1.37555,0,0,1,1.4004-1.501,1.34127,1.34127,0,0,1,1.46777,1.40137v12.875a.53972.53972,0,0,0,.4668.60059,1.41758,1.41758,0,1,1,0,2.835Zm-8.83887-15.44336c-3.33594,0-5.50391,2.60156-5.50391,6.57031,0,4.00293,2.168,6.60449,5.50391,6.60449,3.36914,0,5.5039-2.60156,5.5039-6.60449C86.564,1032.63574,84.4292,1030.03418,81.06006,1030.03418Z"/><path class="cls-3" d="M106.61377,1045.51074a1.36024,1.36024,0,0,1-1.40039-1.10058,7.76342,7.76342,0,0,1-4.80371,1.668,7.66633,7.66633,0,0,1-7.60449-7.60546v-9.23926a1.43426,1.43426,0,0,1,2.86816-.0332v9.27246a4.75345,4.75345,0,1,0,9.50684,0v-9.23926a1.32991,1.32991,0,0,1,1.40039-1.46778,1.36414,1.36414,0,0,1,1.43457,1.43458v14.91015A1.32829,1.32829,0,0,1,106.61377,1045.51074Z"/><path class="cls-3" d="M117.05811,1045.47754h-.56739c-3.16894,0-4.36914-1.668-4.36914-4.40332v-10.47363h-1.001a1.41758,1.41758,0,1,1-.03321-2.835h1v-4.63671a1.35457,1.35457,0,0,1,1.43457-1.40039,1.32828,1.32828,0,0,1,1.40137,1.40039v4.63671h2.13477a1.38291,1.38291,0,0,1,1.40039,1.40137,1.35628,1.35628,0,0,1-1.40039,1.4336h-2.13477V1041.375c0,.93359.333,1.26758,1.26758,1.26758h.833a1.37565,1.37565,0,0,1,1.43457,1.40039A1.35654,1.35654,0,0,1,117.05811,1045.47754Z"/><path class="cls-3" d="M121.66162,1025.06348a2.40137,2.40137,0,1,1,2.40234-2.40137A2.39153,2.39153,0,0,1,121.66162,1025.06348Zm0,20.41406a1.40048,1.40048,0,0,1-1.4668-1.40137v-14.876a1.40779,1.40779,0,0,1,1.4668-1.43458,1.374,1.374,0,0,1,1.40137,1.43458v14.876A1.3458,1.3458,0,0,1,121.66162,1045.47754Z"/><path class="cls-3" d="M132.0376,1030.60059h-1.501V1044.043a1.364,1.364,0,0,1-1.46777,1.40137,1.3458,1.3458,0,0,1-1.40137-1.40137v-13.44238h-1.36719a1.41758,1.41758,0,0,1,0-2.835h1.36719v-2.26855a3.80073,3.80073,0,0,1,3.83594-3.76855,1.41834,1.41834,0,1,1,0,2.835.93433.93433,0,0,0-.9668.90039v2.30175h1.501a1.41835,1.41835,0,1,1,0,2.835Z"/><path class="cls-3" d="M148.68213,1045.51074a1.36024,1.36024,0,0,1-1.40039-1.10058,7.76342,7.76342,0,0,1-4.80371,1.668,7.66633,7.66633,0,0,1-7.60449-7.60546v-9.23926a1.43426,1.43426,0,0,1,2.86816-.0332v9.27246a4.75345,4.75345,0,1,0,9.50684,0v-9.23926a1.32991,1.32991,0,0,1,1.40039-1.46778,1.36414,1.36414,0,0,1,1.43457,1.43458v14.91015A1.32829,1.32829,0,0,1,148.68213,1045.51074Z"/><path class="cls-3" d="M156.62451,1045.544a3.40325,3.40325,0,0,1-3.33594-3.40235v-18.97949a1.43478,1.43478,0,0,1,2.86914-.0332v19.01269a.52664.52664,0,0,0,.4668.56738,1.41759,1.41759,0,1,1,0,2.835Z"/><path class="cls-3" d="M171.99365,1045.47754v-1.26367c1.88574-.23731,2.0459-.4375,2.0459-3.15723v-6.69043c0-2.79883-1.248-4.0166-3.06445-4.0166a5.5973,5.5973,0,0,0-3.46973,1.49316v9.47559c0,2.52734.18652,2.6582,2.05957,2.89551v1.26367h-8.96777v-1.26367c2.2539-.3291,2.49121-.41016,2.49121-2.999v-8.21093c0-2.44629-.30274-2.56543-2.18457-2.92188v-1.18359a34.1012,34.1012,0,0,0,6.65332-1.53321c-.02539.67872-.05176,2.02442-.05176,2.94922.792-.55468,1.6377-1.14941,2.59082-1.74511a5.659,5.659,0,0,1,3.15918-1.08594c3.19434,0,5.20117,2.33789,5.20117,6.30859v7.501c0,2.53906.23731,2.65723,2.27735,2.9209v1.26367Z"/><path class="cls-3" d="M195.90381,1041.77539c-2.458,3.42676-5.48828,4.17773-7.01367,4.17773-5.1416,0-8.124-3.93554-8.124-8.59374a10.33308,10.33308,0,0,1,2.832-7.06153,8.60238,8.60238,0,0,1,6.082-2.81445,6.38581,6.38581,0,0,1,6.37011,6.34668c-.01367.71484-.081,1.27734-.6123,1.41015-.7666.1836-6.1709.48926-10.31836.64747.06152,4.58691,2.7168,6.74023,5.55566,6.74023a6.776,6.776,0,0,0,4.543-1.86621Zm-7.07129-12.709c-1.667,0-3.167,1.80664-3.51563,4.96289,1.832-.02539,3.58692-.05078,5.48633-.11817.61035-.02636.84766-.14648.84766-.792C191.69092,1031.09668,190.61377,1029.06641,188.83252,1029.06641Z"/><path class="cls-3" d="M223.11768,1029.209c-1.94336.34278-2.24805.624-3.10547,2.76465-1.3291,3.46192-3.10157,8.53028-4.9336,13.93946h-1.51172c-1.50683-3.87793-3.15625-7.791-4.65039-11.46-1.49121,3.6709-3.06738,7.501-4.54882,11.46H202.896c-1.5293-4.81641-3.16309-9.64551-4.68457-14.19239-.68653-1.98535-.94043-2.27441-2.85547-2.51172v-1.25h9.39746v1.25c-2.3252.34473-2.53516.67188-2.05762,2.13282.80859,2.74121,1.69727,5.60351,2.51953,8.21386,1.50684-3.67968,2.98828-7.61914,4.32715-11.42382h1.45606c1.38867,3.75878,2.98632,7.70214,4.57324,11.56836.74218-2.10743,2.06152-5.96387,2.55664-8.1084.41211-1.67383-.00781-2.07813-2.75293-2.38282v-1.25h7.74219Z"/><path class="cls-3" d="M232.52783,1032.95605c-.91894-2.60644-2.15527-3.98437-4.21094-3.98437a2.16616,2.16616,0,0,0-2.2246,2.26562c0,1.49708,1.04589,2.26368,3.16113,3.21582,3.27832,1.4961,5.29,2.78711,5.29,5.73633,0,3.85059-3.61035,5.76367-6.94532,5.76367a12.07335,12.07335,0,0,1-4.91992-1.16113c-.17285-.99414-.52929-3.5332-.66211-4.8916l1.252-.22363c.79,2.50879,2.33105,4.749,4.97558,4.749a2.23127,2.23127,0,0,0,2.4375-2.28125c0-1.42285-.75976-2.333-3.09179-3.4668-2.66895-1.29492-5.10743-2.63964-5.10743-5.77539,0-3.04589,2.53321-5.41894,6.56543-5.41894a18.75124,18.75124,0,0,1,4.11231.56738c.11816,1.02734.44726,3.54883.61914,4.57715Z"/></g><g class="cls-4"><path class="cls-3" d="M745.80176,1046.35742c-1.2002,0-3.22071-.41992-3.9209-1.58008a.478.478,0,0,1-.08008-.29882.54556.54556,0,0,1,1.02051-.32032,3.81526,3.81526,0,0,0,2.98047,1.06055c1.94043,0,2.9209-.64063,2.9209-1.94141,0-3.02148-6.56153-1.41992-6.56153-5.42187,0-2.01953,2.02051-2.79883,3.84082-2.79883a5.41544,5.41544,0,0,1,3.44043,1.16016.5562.5562,0,0,1,.17969.3789.64727.64727,0,0,1-.62012.59961.52675.52675,0,0,1-.37988-.16015,4.00134,4.00134,0,0,0-2.62012-.83985c-1.76074,0-2.70117.68164-2.70117,1.66016,0,2.80078,6.56152,1.32031,6.56152,5.42187C749.8623,1045.55859,747.8623,1046.35742,745.80176,1046.35742Z"/><path class="cls-3" d="M756.52246,1046.31836c-3.2207,0-5.02148-2.64063-5.02148-5.66211,0-3,1.80078-5.64063,5.02148-5.64063s5.02051,2.64063,5.02051,5.64063C761.543,1043.67773,759.74316,1046.31836,756.52246,1046.31836Zm0-10.16211c-2.36133,0-3.88086,1.90039-3.88086,4.5,0,2.60156,1.51953,4.52148,3.88086,4.52148,2.37988,0,3.87988-1.91992,3.87988-4.52148C760.40234,1038.05664,758.90234,1036.15625,756.52246,1036.15625Z"/><path class="cls-3" d="M772.30273,1045.97852a.56291.56291,0,0,1-.58007-.56055v-.64063a4.443,4.443,0,0,1-3.4209,1.541,4.61044,4.61044,0,0,1-4.56055-4.56055V1035.916a.5699.5699,0,0,1,1.13965,0v5.84179a3.4209,3.4209,0,0,0,6.8418,0V1035.916a.57039.57039,0,0,1,1.14062,0v9.502A.55907.55907,0,0,1,772.30273,1045.97852Z"/><path class="cls-3" d="M780.26172,1036.33594a3.41837,3.41837,0,0,0-3.4209,3.41992v5.66211a.57039.57039,0,0,1-1.14062,0v-9.502a.57039.57039,0,0,1,1.14062,0v.82031a4.56565,4.56565,0,0,1,3.4209-1.541.5704.5704,0,1,1,0,1.14063Z"/><path class="cls-3" d="M790.44238,1044.79688a4.64558,4.64558,0,0,1-3.58008,1.52148c-3.2207,0-5.02148-2.64063-5.02148-5.66211,0-3,1.80078-5.64063,5.02148-5.64063a4.65071,4.65071,0,0,1,3.58008,1.51954.53436.53436,0,0,1,.16016.38086.626.626,0,0,1-.58008.5996.58566.58566,0,0,1-.41992-.19921,3.52577,3.52577,0,0,0-2.74024-1.16016c-2.36132,0-3.88085,1.90039-3.88085,4.5,0,2.60156,1.51953,4.52148,3.88085,4.52148a3.59227,3.59227,0,0,0,2.74024-1.16015.58563.58563,0,0,1,.41992-.19922.59374.59374,0,0,1,.58008.58008A.56931.56931,0,0,1,790.44238,1044.79688Z"/><path class="cls-3" d="M802.02246,1041.23633H793.7207c.17969,2.28125,1.66016,3.9414,3.84082,3.9414a3.61522,3.61522,0,0,0,2.94043-1.38085.52556.52556,0,0,1,.4795-.2793.61123.61123,0,0,1,.62011.541c0,.17969,0,.21875-.37988.65821a4.71753,4.71753,0,0,1-3.66016,1.60156c-3.2207,0-5.02148-2.64063-5.02148-5.66211,0-3,1.80078-5.64063,5.02148-5.64063s5.02051,2.66016,5.02051,5.64063A.605.605,0,0,1,802.02246,1041.23633Zm-4.46094-5.08008c-2.40136,0-3.66113,1.83984-3.84082,3.94141h7.70118C801.24219,1037.81641,799.76172,1036.15625,797.56152,1036.15625Z"/><path class="cls-3" d="M806,1039.416a1.13983,1.13983,0,1,1,0-2.2793,1.13982,1.13982,0,0,1,0,2.2793Zm0,6.5625a1.14079,1.14079,0,1,1,0-2.28125,1.14081,1.14081,0,0,1,0,2.28125Z"/><path class="cls-3" d="M818.88086,1046.31836a7.39277,7.39277,0,0,1-4.78027-1.75977.524.524,0,0,1-.18067-.40039.60786.60786,0,0,1,.58008-.58008c.24023,0,.2207.0586.64062.37891a6.3283,6.3283,0,0,0,3.74024,1.2207c2.52051,0,3.98144-.93945,3.98144-2.74023,0-4.74219-8.46191-2.10156-8.46191-7.5625,0-2.40039,2.10059-3.5,4.68066-3.5a5.73637,5.73637,0,0,1,4.36133,1.88086.55668.55668,0,0,1-.48047.90039c-.28027,0-.28027-.08008-.62011-.41992a4.62111,4.62111,0,0,0-3.26075-1.22071c-2.37988,0-3.541.91993-3.541,2.35938,0,4.30078,8.46191,1.80078,8.46191,7.5625C824.002,1045.21875,821.56152,1046.31836,818.88086,1046.31836Z"/><path class="cls-3" d="M830.56152,1046.31836c-3.2207,0-5.02148-2.64063-5.02148-5.66211,0-3,1.80078-5.64063,5.02148-5.64063s5.02051,2.64063,5.02051,5.64063C835.582,1043.67773,833.78223,1046.31836,830.56152,1046.31836Zm0-10.16211c-2.36132,0-3.88086,1.90039-3.88086,4.5,0,2.60156,1.51954,4.52148,3.88086,4.52148,2.37989,0,3.87989-1.91992,3.87989-4.52148C834.44141,1038.05664,832.94141,1036.15625,830.56152,1036.15625Z"/><path class="cls-3" d="M846.3418,1045.97852a.56292.56292,0,0,1-.58008-.56055v-.64063a4.443,4.443,0,0,1-3.4209,1.541,4.61044,4.61044,0,0,1-4.56055-4.56055V1035.916a.5699.5699,0,0,1,1.13965,0v5.84179a3.4209,3.4209,0,0,0,6.8418,0V1035.916a.57039.57039,0,0,1,1.14062,0v9.502A.55906.55906,0,0,1,846.3418,1045.97852Z"/><path class="cls-3" d="M853.40039,1045.97852h-.62012a2.07541,2.07541,0,0,1-2.36035-2.3418v-7.14063h-1.02051a.57039.57039,0,0,1,0-1.14062h1.02051v-3.06055a.56291.56291,0,0,1,.58008-.56054.54682.54682,0,0,1,.55957.56054v3.06055h1.84082a.57041.57041,0,0,1,0,1.14062h-1.84082v7.14063c0,.98047.28027,1.20117,1.2207,1.20117h.62012a.57042.57042,0,0,1,0,1.14063Z"/><path class="cls-3" d="M864.34082,1045.97852a.56349.56349,0,0,1-.58008-.56055v-5.8418a3.42041,3.42041,0,0,0-6.84082,0v5.8418a.57039.57039,0,0,1-1.14062,0v-13.123a.57039.57039,0,0,1,1.14062,0v4.26172a4.443,4.443,0,0,1,3.4209-1.541,4.59752,4.59752,0,0,1,4.56055,4.56055v5.8418A.55848.55848,0,0,1,864.34082,1045.97852Z"/><path class="cls-3" d="M882.40137,1044.13672a5.12344,5.12344,0,0,1-4.46094,2.18164c-4.30078,0-5.82129-3.56055-5.82129-7.46094,0-3.92187,1.52051-7.48242,5.82129-7.48242a5.06687,5.06687,0,0,1,4.44043,2.17969.40691.40691,0,0,1,.12012.32031.59952.59952,0,0,1-.62012.56055.528.528,0,0,1-.43945-.22071,3.9387,3.9387,0,0,0-3.501-1.69922c-3.32129,0-4.68164,2.59961-4.68164,6.3418,0,3.7207,1.36035,6.32031,4.68164,6.32031a3.988,3.988,0,0,0,3.541-1.70117.4654.4654,0,0,1,.43945-.25976.612.612,0,0,1,.60058.58008A.63.63,0,0,1,882.40137,1044.13672Z"/><path class="cls-3" d="M893.24023,1045.97852a.56348.56348,0,0,1-.58007-.56055v-5.8418a3.42041,3.42041,0,0,0-6.84082,0v5.8418a.5704.5704,0,0,1-1.14063,0v-13.123a.5704.5704,0,0,1,1.14063,0v4.26172a4.44293,4.44293,0,0,1,3.42089-1.541,4.59752,4.59752,0,0,1,4.56055,4.56055v5.8418A.55847.55847,0,0,1,893.24023,1045.97852Z"/><path class="cls-3" d="M897.03906,1033.43555a1.14063,1.14063,0,1,1,1.14063-1.14063A1.127,1.127,0,0,1,897.03906,1033.43555Zm0,12.543a.54962.54962,0,0,1-.58008-.56055v-9.502a.55189.55189,0,0,1,.58008-.56055.54528.54528,0,0,1,.56055.56055v9.502A.53633.53633,0,0,1,897.03906,1045.97852Z"/><path class="cls-3" d="M909,1045.97852a.56349.56349,0,0,1-.58008-.56055v-5.8418a3.42041,3.42041,0,0,0-6.84082,0v5.8418a.57039.57039,0,0,1-1.14062,0v-9.502a.57039.57039,0,0,1,1.14062,0v.64062a4.56272,4.56272,0,0,1,7.98145,3.01953v5.8418A.55848.55848,0,0,1,909,1045.97852Z"/><path class="cls-3" d="M922.66113,1045.97852h-.02051a2.0733,2.0733,0,0,1-1.98046-1.56055,4.538,4.538,0,0,1-3.87989,1.90039c-3.26074,0-5.02148-2.68164-5.02148-5.66211,0-3.01953,1.80078-5.64063,5.02148-5.64063a4.57208,4.57208,0,0,1,3.87989,1.88086v-.98046a.56463.56463,0,0,1,.58105-.56055.54682.54682,0,0,1,.55957.56055v8.0625c0,1.27929,1.44043.47851,1.44043,1.43945A.55045.55045,0,0,1,922.66113,1045.97852Zm-5.88086-9.82227c-2.36132,0-3.88086,1.90039-3.88086,4.5,0,2.60156,1.51954,4.52148,3.88086,4.52148,2.37989,0,3.87989-1.91992,3.87989-4.52148C920.66016,1038.05664,919.16016,1036.15625,916.78027,1036.15625Z"/><path class="cls-3" d="M942.16113,1045.97852a.547.547,0,0,1-.56054-.56055v-10.86328l-4.76075,8.84375a.52794.52794,0,0,1-.46.35937.62188.62188,0,0,1-.541-.35937l-4.74024-8.84375V1045.418a.57039.57039,0,0,1-1.14062,0v-13.123a.5809.5809,0,0,1,.60058-.56054.52157.52157,0,0,1,.4795.28124l5.30175,9.90235,5.32032-9.90235a.54336.54336,0,0,1,.48046-.28124.58151.58151,0,0,1,.60059.56054v13.123A.56349.56349,0,0,1,942.16113,1045.97852Z"/><path class="cls-3" d="M950.13965,1046.31836c-3.2207,0-5.02149-2.64063-5.02149-5.66211,0-3,1.80079-5.64063,5.02149-5.64063s5.02051,2.64063,5.02051,5.64063C955.16016,1043.67773,953.36035,1046.31836,950.13965,1046.31836Zm0-10.16211c-2.36133,0-3.88086,1.90039-3.88086,4.5,0,2.60156,1.51953,4.52148,3.88086,4.52148,2.37988,0,3.87988-1.91992,3.87988-4.52148C954.01953,1038.05664,952.51953,1036.15625,950.13965,1036.15625Z"/><path class="cls-3" d="M962.09961,1036.33594a3.41837,3.41837,0,0,0-3.4209,3.41992v5.66211a.57039.57039,0,0,1-1.14062,0v-9.502a.57039.57039,0,0,1,1.14062,0v.82031a4.56565,4.56565,0,0,1,3.4209-1.541.5704.5704,0,1,1,0,1.14063Z"/><path class="cls-3" d="M972.69922,1045.97852a.56349.56349,0,0,1-.58008-.56055v-5.8418a3.42041,3.42041,0,0,0-6.84082,0v5.8418a.57039.57039,0,0,1-1.14062,0v-9.502a.57039.57039,0,0,1,1.14062,0v.64062a4.56272,4.56272,0,0,1,7.98145,3.01953v5.8418A.55848.55848,0,0,1,972.69922,1045.97852Z"/><path class="cls-3" d="M976.49805,1033.43555a1.14063,1.14063,0,1,1,1.14062-1.14063A1.127,1.127,0,0,1,976.49805,1033.43555Zm0,12.543a.54962.54962,0,0,1-.58008-.56055v-9.502a.55189.55189,0,0,1,.58008-.56055.54527.54527,0,0,1,.56054.56055v9.502A.53633.53633,0,0,1,976.49805,1045.97852Z"/><path class="cls-3" d="M988.459,1045.97852a.56348.56348,0,0,1-.58007-.56055v-5.8418a3.42041,3.42041,0,0,0-6.84082,0v5.8418a.5704.5704,0,0,1-1.14063,0v-9.502a.5704.5704,0,0,1,1.14063,0v.64062a4.56271,4.56271,0,0,1,7.98144,3.01953v5.8418A.55847.55847,0,0,1,988.459,1045.97852Z"/><path class="cls-3" d="M996.23926,1050.53906c-1.70117,0-4.10156-.64062-4.10156-1.35937a.6357.6357,0,0,1,.58007-.64063,7.1293,7.1293,0,0,1,1.06055.48047,7.51267,7.51267,0,0,0,2.46094.37891c2.56054,0,3.87988-1.25977,3.87988-3.72071v-1.40039a4.77348,4.77348,0,0,1-3.87988,1.70118c-3.16114,0-5.02149-2.24024-5.02149-5.32227,0-3,1.80078-5.64063,5.02149-5.64063a4.57207,4.57207,0,0,1,3.87988,1.88086v-.96093a.5704.5704,0,0,1,1.14063,0v9.74218C1001.25977,1048.85938,999.35938,1050.53906,996.23926,1050.53906Zm0-14.38281c-2.36133,0-3.88086,1.90039-3.88086,4.5,0,2.582,1.41992,4.18164,3.88086,4.18164,2.46,0,3.87988-1.59961,3.87988-4.18164C1000.11914,1038.05664,998.61914,1036.15625,996.23926,1036.15625Z"/><path class="cls-3" d="M1014.99805,1039.81641h-4.86035v5.60156a.5704.5704,0,0,1-1.14063,0v-13.123a.5904.5904,0,0,1,.58008-.56054h5.40137a4.041,4.041,0,1,1,.01953,8.082Zm0-6.96094h-4.86035v5.82031h4.84082a2.91017,2.91017,0,1,0,.01953-5.82031Z"/><path class="cls-3" d="M1026.31836,1046.31836c-3.2207,0-5.02148-2.64063-5.02148-5.66211,0-3,1.80078-5.64063,5.02148-5.64063,3.21973,0,5.02051,2.64063,5.02051,5.64063C1031.33887,1043.67773,1029.53809,1046.31836,1026.31836,1046.31836Zm0-10.16211c-2.36133,0-3.88086,1.90039-3.88086,4.5,0,2.60156,1.51953,4.52148,3.88086,4.52148,2.37988,0,3.87988-1.91992,3.87988-4.52148C1030.19824,1038.05664,1028.69824,1036.15625,1026.31836,1036.15625Z"/><path class="cls-3" d="M1037.05762,1046.35742c-1.2002,0-3.22071-.41992-3.9209-1.58008a.478.478,0,0,1-.08008-.29882.54556.54556,0,0,1,1.02051-.32032,3.81526,3.81526,0,0,0,2.98047,1.06055c1.94043,0,2.9209-.64063,2.9209-1.94141,0-3.02148-6.56153-1.41992-6.56153-5.42187,0-2.01953,2.02051-2.79883,3.84082-2.79883a5.41544,5.41544,0,0,1,3.44043,1.16016.5562.5562,0,0,1,.17969.3789.64728.64728,0,0,1-.62012.59961.52675.52675,0,0,1-.37988-.16015,4.00134,4.00134,0,0,0-2.62012-.83985c-1.76074,0-2.70117.68164-2.70117,1.66016,0,2.80078,6.56152,1.32031,6.56152,5.42187C1041.11816,1045.55859,1039.11816,1046.35742,1037.05762,1046.35742Z"/><path class="cls-3" d="M1046.87793,1045.97852h-.62012a2.07541,2.07541,0,0,1-2.36035-2.3418v-7.14063H1042.877a.57039.57039,0,0,1,0-1.14062h1.02051v-3.06055a.56291.56291,0,0,1,.58008-.56054.54682.54682,0,0,1,.55957.56054v3.06055h1.84082a.57041.57041,0,0,1,0,1.14062h-1.84082v7.14063c0,.98047.28027,1.20117,1.2207,1.20117h.62012a.57042.57042,0,0,1,0,1.14063Z"/></g></g><g id="Layer_8" data-name="Layer 8"><circle class="cls-5" cx="540" cy="510.5" r="330.78375"/><circle class="cls-6" cx="540" cy="510.5" r="225"/></g><g id="lines"><circle class="cls-3" cx="43.65196" cy="933.54507" r="7.5"/><path class="cls-7" d="M185.31689,921.04507s0-117.07811,157.92542-117.17125C533.85827,803.7616,540,735.5,540,735.5"/><line class="cls-8" x1="38.23102" y1="933.54507" x2="1043.05546" y2="933.54507"/><circle class="cls-3" cx="184.65196" cy="933.54507" r="12.5"/><circle class="cls-3" cx="1038.4478" cy="933.54507" r="7.5"/></g><g id="labels"><path class="cls-3" d="M509.436,223.104q.04833.5376.43945.19532,1.56225-2.09913,5.9082-2.49024a8.85947,8.85947,0,0,1,6.88477,3.07617,11.45852,11.45852,0,0,1,2.58789,7.56836,11.81548,11.81548,0,0,1-2.68555,7.666,9.2526,9.2526,0,0,1-14.16016.04883,12.11366,12.11366,0,0,1-2.63671-7.86133v-15.332a10.848,10.848,0,0,1,2.63671-7.32422,9.28756,9.28756,0,0,1,7.17774-3.07617,9.89759,9.89759,0,0,1,6.29883,2.14843,8.9004,8.9004,0,0,1,3.125,5.76172q.09741.43945-.48828.43946h-2.88086q-.48854,0-.48828-.58594a6.39879,6.39879,0,0,0-1.709-3.02734,5.61628,5.61628,0,0,0-3.90625-1.26954,5.70088,5.70088,0,0,0-4.49219,1.95313,7.56729,7.56729,0,0,0-1.61132,4.98047Zm0,8.44727a8.45747,8.45747,0,0,0,1.5625,5.27344,5.69065,5.69065,0,0,0,8.98437,0,9.20707,9.20707,0,0,0,1.5625-5.3711,8.87535,8.87535,0,0,0-1.51367-5.22461,5.34622,5.34622,0,0,0-4.44336-2.05078q-6.104.39111-6.15234,7.373v0Z"/><path class="cls-3" d="M534.75635,239.21729a2.84607,2.84607,0,0,1-2.92969,3.02734,3.00384,3.00384,0,0,1,0-6.00586,2.82414,2.82414,0,0,1,2.92969,2.97852v0Z"/><path class="cls-3" d="M554.29346,211.09229a63.53425,63.53425,0,0,0-6.543,14.69726,64.49466,64.49466,0,0,0-2.44141,15.332q.09741.63428-.48828.53711h-2.7832q-.5376-.04907-.43946-.53711a62.79911,62.79911,0,0,1,2.73438-15.52734,64.54211,64.54211,0,0,1,6.68945-15.03906q.43945-.68336-.04883-.6836H535.93408q-.5376.09814-.43945-.48828v-2.58789q-.09815-.53687.43945-.43945h18.11524q.53687-.09741.43945.43945v3.61328l-.19531.6836v0Z"/><path class="cls-3" d="M562.37744,233.45557q.39039,5.27343,5.85938,5.51757a5.52953,5.52953,0,0,0,4.15039-1.66015,6.67212,6.67212,0,0,0,1.61133-4.63867V228.231a6.39136,6.39136,0,0,0-1.416-4.29688,5.24866,5.24866,0,0,0-4.10156-1.75781,7.13756,7.13756,0,0,0-4.834,1.66016.55711.55711,0,0,1-.63476.24414h-2.39258q-.5376.09814-.43945-.43946v-16.748q-.09815-.53687.43945-.43946H575.854q.53686-.09741.43946.43946v2.49023q.09741.5376-.43946.48828H563.93994q-.48852-.09741-.43945.43946v9.668q0,.43945.43945.19532a10.29749,10.29749,0,0,1,4.834-1.12305,8.646,8.646,0,0,1,6.34765,2.49023,9.19989,9.19989,0,0,1,2.49024,6.68946v4.44336a9.56038,9.56038,0,0,1-2.78321,6.98242,9.679,9.679,0,0,1-6.73828,2.68555,9.06762,9.06762,0,0,1-6.543-2.5879,9.41407,9.41407,0,0,1-2.68554-6.44531q-.09815-.48778.43945-.43945h2.53906q.53687-.04835.53711.58594v0Z"/><path class="cls-3" d="M403.82666,270.35645c-1.68018,0-4.5083-.58838-5.48828-2.21241a.6762.6762,0,0,1-.11182-.41992.7636.7636,0,0,1,1.42774-.44775c1.0083,1.23193,2.80029,1.48388,4.17236,1.48388,2.71582,0,4.08789-.896,4.08789-2.71582,0-4.228-9.18408-1.98828-9.18408-7.58838,0-2.82763,2.82812-3.91992,5.376-3.91992a7.58878,7.58878,0,0,1,4.81591,1.624.78385.78385,0,0,1,.252.53222.90753.90753,0,0,1-.86768.83985.74243.74243,0,0,1-.53223-.22412,5.5981,5.5981,0,0,0-3.668-1.17579c-2.46387,0-3.77979.95215-3.77979,2.32373,0,3.92041,9.18359,1.84815,9.18359,7.58838C409.51025,269.23633,406.71045,270.35645,403.82666,270.35645Z"/><path class="cls-3" d="M416.45459,269.82422h-.86768c-2.2124,0-3.3042-1.0918-3.3042-3.27588v-9.99609h-1.42822a.79823.79823,0,0,1,0-1.5962h1.42822v-4.28369a.78718.78718,0,0,1,.812-.78418.76459.76459,0,0,1,.78418.78418v4.28369h2.57568a.79822.79822,0,0,1,0,1.5962h-2.57568v9.99609c0,1.37207.3916,1.67969,1.708,1.67969h.86768a.79822.79822,0,0,1,0,1.59619Z"/><path class="cls-3" d="M433.28223,269.82422h-.02832a2.89913,2.89913,0,0,1-2.772-2.18408,6.35223,6.35223,0,0,1-5.43164,2.66015c-4.564,0-7.02832-3.752-7.02832-7.92383,0-4.228,2.52-7.896,7.02832-7.896a6.40039,6.40039,0,0,1,5.43164,2.63183v-1.37207a.7896.7896,0,0,1,.812-.78418.76458.76458,0,0,1,.78417.78418v11.28418c0,1.792,2.01612.67188,2.01612,2.01563A.77007.77007,0,0,1,433.28223,269.82422Zm-8.23194-13.74805c-3.3042,0-5.43213,2.66016-5.43213,6.30029,0,3.63965,2.12793,6.32764,5.43213,6.32764,3.332,0,5.43164-2.688,5.43164-6.32764C430.48193,258.73633,428.38232,256.07617,425.05029,256.07617Z"/><path class="cls-3" d="M447.50586,269.82422a.78714.78714,0,0,1-.812-.78418v-8.17578a4.78785,4.78785,0,1,0-9.57569,0V269.04a.79822.79822,0,0,1-1.59619,0V255.74023a.79822.79822,0,0,1,1.59619,0v.896a6.38734,6.38734,0,0,1,11.17188,4.228V269.04A.78049.78049,0,0,1,447.50586,269.82422Z"/><path class="cls-3" d="M463.522,269.82422a.78714.78714,0,0,1-.812-.78418v-1.3999a6.35223,6.35223,0,0,1-5.43164,2.66015c-4.5083,0-7.02832-3.69629-7.02832-7.92383,0-4.20019,2.52-7.896,7.02832-7.896A6.40039,6.40039,0,0,1,462.71,257.1123v-6.43994a.79822.79822,0,0,1,1.59619,0V269.04A.78049.78049,0,0,1,463.522,269.82422Zm-6.24365-13.74805c-3.3042,0-5.43213,2.66016-5.43213,6.30029,0,3.63965,2.12793,6.32764,5.43213,6.32764,3.332,0,5.43164-2.688,5.43164-6.32764C462.71,258.73633,460.61035,256.07617,457.27832,256.07617Z"/><path class="cls-3" d="M481.77783,269.82422h-.02832a2.89912,2.89912,0,0,1-2.772-2.18408,6.35224,6.35224,0,0,1-5.43164,2.66015c-4.564,0-7.02832-3.752-7.02832-7.92383,0-4.228,2.52-7.896,7.02832-7.896a6.4004,6.4004,0,0,1,5.43164,2.63183v-1.37207a.7896.7896,0,0,1,.812-.78418.76459.76459,0,0,1,.78418.78418v11.28418c0,1.792,2.01611.67188,2.01611,2.01563A.77007.77007,0,0,1,481.77783,269.82422Zm-8.23193-13.74805c-3.3042,0-5.43213,2.66016-5.43213,6.30029,0,3.63965,2.12793,6.32764,5.43213,6.32764,3.332,0,5.43164-2.688,5.43164-6.32764C478.97754,258.73633,476.87793,256.07617,473.5459,256.07617Z"/><path class="cls-3" d="M490.40186,256.32812a4.7857,4.7857,0,0,0-4.78809,4.78809V269.04a.79822.79822,0,0,1-1.59619,0V255.74023a.79822.79822,0,0,1,1.59619,0v1.14795a6.39271,6.39271,0,0,1,4.78809-2.15576.798.798,0,1,1,0,1.5957Z"/><path class="cls-3" d="M504.76514,269.82422a.78715.78715,0,0,1-.812-.78418v-1.3999a6.35223,6.35223,0,0,1-5.43164,2.66015c-4.5083,0-7.02832-3.69629-7.02832-7.92383,0-4.20019,2.52-7.896,7.02832-7.896a6.40039,6.40039,0,0,1,5.43164,2.63183v-6.43994a.79822.79822,0,0,1,1.5962,0V269.04A.7805.7805,0,0,1,504.76514,269.82422Zm-6.24366-13.74805c-3.30419,0-5.43212,2.66016-5.43212,6.30029,0,3.63965,2.12793,6.32764,5.43212,6.32764,3.332,0,5.43164-2.688,5.43164-6.32764C503.95312,258.73633,501.85352,256.07617,498.52148,256.07617Z"/><path class="cls-3" d="M519.269,251.45654h-.86767a1.23735,1.23735,0,0,0-1.23242,1.20362v2.29589H519.269a.763.763,0,0,1,.78418.78418.78717.78717,0,0,1-.78418.812H517.169V269.04a.76391.76391,0,0,1-.7837.78418.74789.74789,0,0,1-.78418-.78418V256.55225H513.669a.79823.79823,0,0,1,0-1.5962h1.93212v-2.29589a2.77844,2.77844,0,0,1,2.772-2.772h.896a.79469.79469,0,0,1,.812.812A.75072.75072,0,0,1,519.269,251.45654Z"/><path class="cls-3" d="M528.0332,256.32812a4.7857,4.7857,0,0,0-4.78808,4.78809V269.04a.79822.79822,0,0,1-1.59619,0V255.74023a.79822.79822,0,0,1,1.59619,0v1.14795a6.39269,6.39269,0,0,1,4.78808-2.15576.798.798,0,1,1,0,1.5957Z"/><path class="cls-3" d="M541.74707,263.18848H530.12744c.25195,3.19189,2.32373,5.51562,5.376,5.51562a5.06092,5.06092,0,0,0,4.11572-1.93164.73467.73467,0,0,1,.67188-.39209.85586.85586,0,0,1,.86816.75586c0,.25195,0,.30811-.53174.92383a6.61024,6.61024,0,0,1-5.124,2.24023c-4.5083,0-7.02832-3.69629-7.02832-7.92383,0-4.20019,2.52-7.896,7.02832-7.896,4.50781,0,7.02783,3.72363,7.02783,7.896A.8477.8477,0,0,1,541.74707,263.18848Zm-6.24365-7.11231c-3.36035,0-5.124,2.57617-5.376,5.51612h10.77979C540.65527,258.40039,538.583,256.07617,535.50342,256.07617Z"/><path class="cls-3" d="M549.419,270.35645c-1.68018,0-4.50831-.58838-5.48829-2.21241a.67624.67624,0,0,1-.11181-.41992.7636.7636,0,0,1,1.42773-.44775c1.0083,1.23193,2.8003,1.48388,4.17237,1.48388,2.71582,0,4.08789-.896,4.08789-2.71582,0-4.228-9.18409-1.98828-9.18409-7.58838,0-2.82763,2.82813-3.91992,5.376-3.91992a7.58785,7.58785,0,0,1,4.81592,1.624.78383.78383,0,0,1,.252.53222.90752.90752,0,0,1-.86767.83985.74243.74243,0,0,1-.53223-.22412,5.599,5.599,0,0,0-3.668-1.17579c-2.46387,0-3.77978.95215-3.77978,2.32373,0,3.92041,9.18359,1.84815,9.18359,7.58838C555.10254,269.23633,552.30273,270.35645,549.419,270.35645Z"/><path class="cls-3" d="M568.90674,269.82422a.78714.78714,0,0,1-.812-.78418v-8.17578a4.78785,4.78785,0,1,0-9.57569,0V269.04a.79822.79822,0,0,1-1.59619,0V250.67236a.79822.79822,0,0,1,1.59619,0v5.96387a6.21848,6.21848,0,0,1,4.78809-2.15576,6.43548,6.43548,0,0,1,6.38379,6.38379V269.04A.78049.78049,0,0,1,568.90674,269.82422Z"/><path class="cls-3" d="M590.71875,255.99219l-4.564,13.16015c-.19581.53174-.44776.67188-.812.67188-.47558,0-.61572-.168-.78369-.67188l-3.668-10.91992-3.668,10.91992c-.19628.53174-.44824.67188-.812.67188a.81832.81832,0,0,1-.78418-.67188l-4.53564-13.16015a1.17855,1.17855,0,0,1-.05615-.30811.79558.79558,0,0,1,.812-.728.72728.72728,0,0,1,.728.53223l3.83593,11.08789,3.668-10.94775c.168-.53223.33594-.67237.812-.67237.33594,0,.61573.11231.78369.67237l3.72413,10.94775,3.78027-11.08789a.72636.72636,0,0,1,.72754-.53223.75786.75786,0,0,1,.812,1.03614Z"/><path class="cls-3" d="M606.9585,269.82422h-.02832a2.89913,2.89913,0,0,1-2.772-2.18408,6.35223,6.35223,0,0,1-5.43164,2.66015c-4.564,0-7.02832-3.752-7.02832-7.92383,0-4.228,2.52-7.896,7.02832-7.896a6.40039,6.40039,0,0,1,5.43164,2.63183v-1.37207a.7896.7896,0,0,1,.812-.78418.76459.76459,0,0,1,.78418.78418v11.28418c0,1.792,2.01612.67188,2.01612,2.01563A.77007.77007,0,0,1,606.9585,269.82422Zm-8.23194-13.74805c-3.3042,0-5.43213,2.66016-5.43213,6.30029,0,3.63965,2.12793,6.32764,5.43213,6.32764,3.332,0,5.43164-2.688,5.43164-6.32764C604.1582,258.73633,602.05859,256.07617,598.72656,256.07617Z"/><path class="cls-3" d="M614.32227,269.82422h-.86768c-2.2124,0-3.3042-1.0918-3.3042-3.27588v-9.99609h-1.42822a.79823.79823,0,0,1,0-1.5962h1.42822v-4.28369a.78717.78717,0,0,1,.812-.78418.76459.76459,0,0,1,.78418.78418v4.28369h2.57569a.79822.79822,0,0,1,0,1.5962h-2.57569v9.99609c0,1.37207.3916,1.67969,1.708,1.67969h.86768a.79822.79822,0,0,1,0,1.59619Z"/><path class="cls-3" d="M629.16211,263.18848H617.54248c.252,3.19189,2.32373,5.51562,5.376,5.51562a5.06092,5.06092,0,0,0,4.11572-1.93164.73467.73467,0,0,1,.67187-.39209.85587.85587,0,0,1,.86817.75586c0,.25195,0,.30811-.53174.92383a6.61026,6.61026,0,0,1-5.124,2.24023c-4.5083,0-7.02832-3.69629-7.02832-7.92383,0-4.20019,2.52-7.896,7.02832-7.896,4.50781,0,7.02783,3.72363,7.02783,7.896A.8477.8477,0,0,1,629.16211,263.18848Zm-6.24365-7.11231c-3.36035,0-5.124,2.57617-5.376,5.51612h10.77979C628.07031,258.40039,625.99805,256.07617,622.91846,256.07617Z"/><path class="cls-3" d="M638.542,256.32812a4.7857,4.7857,0,0,0-4.78808,4.78809V269.04a.79822.79822,0,0,1-1.5962,0V255.74023a.79822.79822,0,0,1,1.5962,0v1.14795a6.39269,6.39269,0,0,1,4.78808-2.15576.798.798,0,1,1,0,1.5957Z"/><path class="cls-3" d="M652.40137,256.32812a4.7857,4.7857,0,0,0-4.78809,4.78809V269.04a.79822.79822,0,0,1-1.59619,0V255.74023a.79822.79822,0,0,1,1.59619,0v1.14795a6.39271,6.39271,0,0,1,4.78809-2.15576.798.798,0,1,1,0,1.5957Z"/><path class="cls-3" d="M654.94922,252.26807a1.596,1.596,0,1,1,1.59619-1.59571A1.57724,1.57724,0,0,1,654.94922,252.26807Zm0,17.55615a.76964.76964,0,0,1-.812-.78418V255.74023a.77152.77152,0,0,1,.812-.78418.763.763,0,0,1,.78418.78418V269.04A.7491.7491,0,0,1,654.94922,269.82422Z"/><path class="cls-3" d="M669.98486,268.17236a6.50272,6.50272,0,0,1-5.01172,2.12793c-4.5083,0-7.02832-3.69629-7.02832-7.92383,0-4.20019,2.52-7.896,7.02832-7.896a6.50272,6.50272,0,0,1,5.01172,2.12793.74135.74135,0,0,1,.22412.53174.87789.87789,0,0,1-.812.84033.82429.82429,0,0,1-.58789-.28027,4.93615,4.93615,0,0,0-3.83594-1.624c-3.30419,0-5.43212,2.66016-5.43212,6.30029,0,3.63965,2.12793,6.32764,5.43212,6.32764a5.031,5.031,0,0,0,3.83594-1.624.79464.79464,0,0,1,1.3999.53222A.80351.80351,0,0,1,669.98486,268.17236Z"/><path class="cls-3" d="M685.07666,263.18848H673.457c.25195,3.19189,2.32373,5.51562,5.376,5.51562a5.06092,5.06092,0,0,0,4.11572-1.93164.73467.73467,0,0,1,.67188-.39209.85586.85586,0,0,1,.86816.75586c0,.25195,0,.30811-.53174.92383a6.61024,6.61024,0,0,1-5.124,2.24023c-4.5083,0-7.02832-3.69629-7.02832-7.92383,0-4.20019,2.52-7.896,7.02832-7.896,4.50781,0,7.02783,3.72363,7.02783,7.896A.8477.8477,0,0,1,685.07666,263.18848Zm-6.24365-7.11231c-3.36035,0-5.124,2.57617-5.376,5.51612h10.77979C683.98486,258.40039,681.9126,256.07617,678.833,256.07617Z"/><path class="cls-3" d="M409.67969,553.57324c-1.68018,0-4.5083-.58886-5.48828-2.21289a.67621.67621,0,0,1-.11182-.41992.76344.76344,0,0,1,1.42773-.44727c1.0083,1.23145,2.8003,1.4834,4.17237,1.4834,2.71582,0,4.08789-.89551,4.08789-2.71582,0-4.22754-9.18408-1.98828-9.18408-7.58789,0-2.82812,2.82812-3.91992,5.376-3.91992a7.586,7.586,0,0,1,4.81592,1.624.78387.78387,0,0,1,.25195.53223.90751.90751,0,0,1-.86767.83984.74307.74307,0,0,1-.53223-.22461,5.59815,5.59815,0,0,0-3.668-1.17578c-2.46386,0-3.77978.95215-3.77978,2.32422,0,3.91992,9.18359,1.84766,9.18359,7.58789C415.36328,552.45312,412.56348,553.57324,409.67969,553.57324Z"/><path class="cls-3" d="M432.35938,553.041h-.02833a2.89907,2.89907,0,0,1-2.772-2.18457,6.351,6.351,0,0,1-5.43164,2.66015c-4.564,0-7.02832-3.752-7.02832-7.92383,0-4.22754,2.52-7.8955,7.02832-7.8955a6.40039,6.40039,0,0,1,5.43164,2.63183V538.957a.78929.78929,0,0,1,.812-.78418.76458.76458,0,0,1,.78418.78418v11.28418c0,1.792,2.01612.67188,2.01612,2.01563A.77008.77008,0,0,1,432.35938,553.041ZM424.12744,539.293c-3.3042,0-5.43213,2.66015-5.43213,6.2998s2.12793,6.32813,5.43213,6.32813c3.332,0,5.43164-2.68848,5.43164-6.32813S427.45947,539.293,424.12744,539.293Z"/><path class="cls-3" d="M437.93115,553.209a2.93478,2.93478,0,0,1-2.772-2.96777V533.88867a.79822.79822,0,0,1,1.59619,0v16.35254c0,1.792,1.98779.75586,1.98779,2.01563A.90331.90331,0,0,1,437.93115,553.209Z"/><path class="cls-3" d="M445.855,553.041h-.86768c-2.2124,0-3.30419-1.0918-3.30419-3.27637v-9.9961h-1.42823a.798.798,0,0,1,0-1.5957h1.42823v-4.28418a.78717.78717,0,0,1,.812-.78418.76459.76459,0,0,1,.78418.78418v4.28418H445.855a.798.798,0,0,1,0,1.5957H443.2793v9.9961c0,1.37207.3916,1.67969,1.708,1.67969h.86768a.79847.79847,0,0,1,0,1.59668Z"/><path class="cls-3" d="M467.05029,539.209l-4.564,13.16016c-.1958.53125-.44776.67188-.812.67188-.47559,0-.61573-.168-.7837-.67188l-3.668-10.91992-3.668,10.91992c-.19629.53125-.44824.67188-.812.67188a.81882.81882,0,0,1-.78418-.67188L447.42285,539.209a1.182,1.182,0,0,1-.05615-.30859.79552.79552,0,0,1,.812-.72754.72671.72671,0,0,1,.728.53223l3.83594,11.08789,3.668-10.94824c.168-.53223.33594-.67188.812-.67188.33593,0,.61572.11231.78369.67188l3.72412,10.94824,3.78027-11.08789a.7258.7258,0,0,1,.72754-.53223.75785.75785,0,0,1,.812,1.03613Z"/><path class="cls-3" d="M483.85059,553.041h-.02832a2.89907,2.89907,0,0,1-2.772-2.18457,6.351,6.351,0,0,1-5.43164,2.66015c-4.564,0-7.02832-3.752-7.02832-7.92383,0-4.22754,2.52-7.8955,7.02832-7.8955a6.40039,6.40039,0,0,1,5.43164,2.63183V538.957a.78929.78929,0,0,1,.812-.78418.76458.76458,0,0,1,.78418.78418v11.28418c0,1.792,2.01612.67188,2.01612,2.01563A.77008.77008,0,0,1,483.85059,553.041ZM475.61865,539.293c-3.3042,0-5.43213,2.66015-5.43213,6.2998s2.12793,6.32813,5.43213,6.32813c3.332,0,5.43164-2.68848,5.43164-6.32813S478.95068,539.293,475.61865,539.293Z"/><path class="cls-3" d="M491.77441,553.041h-.86767c-2.2124,0-3.3042-1.0918-3.3042-3.27637v-9.9961h-1.42822a.798.798,0,0,1,0-1.5957h1.42822v-4.28418a.78717.78717,0,0,1,.812-.78418.76459.76459,0,0,1,.78418.78418v4.28418h2.57568a.798.798,0,0,1,0,1.5957h-2.57568v9.9961c0,1.37207.3916,1.67969,1.708,1.67969h.86767a.79847.79847,0,0,1,0,1.59668Z"/><path class="cls-3" d="M507.17383,546.40527H495.5542c.252,3.19141,2.32373,5.51563,5.376,5.51563a5.061,5.061,0,0,0,4.11572-1.93164.73427.73427,0,0,1,.67187-.39258.85587.85587,0,0,1,.86817.75586c0,.252,0,.30859-.53174.92383a6.60867,6.60867,0,0,1-5.124,2.24023c-4.5083,0-7.02832-3.69629-7.02832-7.92383,0-4.20019,2.52-7.8955,7.02832-7.8955,4.50781,0,7.02783,3.72363,7.02783,7.8955A.84816.84816,0,0,1,507.17383,546.40527Zm-6.24365-7.1123c-3.36036,0-5.124,2.57617-5.376,5.51562H506.334C506.082,541.61719,504.00977,539.293,500.93018,539.293Z"/><path class="cls-3" d="M517.11377,539.54492a4.78571,4.78571,0,0,0-4.78809,4.78809v7.92383a.79822.79822,0,0,1-1.59619,0V538.957a.79822.79822,0,0,1,1.59619,0v1.14746a6.39224,6.39224,0,0,1,4.78809-2.15527.798.798,0,1,1,0,1.5957Z"/><path class="cls-3" d="M528.3418,544.333h-8.76416a.79846.79846,0,1,1,0-1.59668h8.76416a.79846.79846,0,1,1,0,1.59668Z"/><path class="cls-3" d="M537.04932,553.041h-.86768c-2.2124,0-3.3042-1.0918-3.3042-3.27637v-9.9961h-1.42822a.798.798,0,0,1,0-1.5957h1.42822v-4.28418a.78717.78717,0,0,1,.812-.78418.76459.76459,0,0,1,.78418.78418v4.28418h2.57569a.798.798,0,0,1,0,1.5957h-2.57569v9.9961c0,1.37207.3916,1.67969,1.708,1.67969h.86768a.79847.79847,0,0,1,0,1.59668Z"/><path class="cls-3" d="M546.20508,553.5166c-4.5083,0-7.02832-3.69629-7.02832-7.92383,0-4.20019,2.52-7.8955,7.02832-7.8955,4.50781,0,7.02783,3.69531,7.02783,7.8955C553.23291,549.82031,550.71289,553.5166,546.20508,553.5166Zm0-14.22363c-3.3042,0-5.43213,2.66015-5.43213,6.2998s2.12793,6.32813,5.43213,6.32813c3.332,0,5.43164-2.68848,5.43164-6.32813S549.53711,539.293,546.20508,539.293Z"/><path class="cls-3" d="M558.77637,553.209a2.93479,2.93479,0,0,1-2.772-2.96777V533.88867a.79822.79822,0,0,1,1.5962,0v16.35254c0,1.792,1.98779.75586,1.98779,2.01563A.90332.90332,0,0,1,558.77637,553.209Z"/><path class="cls-3" d="M574.2041,546.40527H562.58447c.252,3.19141,2.32373,5.51563,5.376,5.51563a5.061,5.061,0,0,0,4.11572-1.93164.73427.73427,0,0,1,.67188-.39258.85586.85586,0,0,1,.86816.75586c0,.252,0,.30859-.53174.92383a6.60865,6.60865,0,0,1-5.124,2.24023c-4.5083,0-7.02832-3.69629-7.02832-7.92383,0-4.20019,2.52-7.8955,7.02832-7.8955,4.50781,0,7.02783,3.72363,7.02783,7.8955A.84816.84816,0,0,1,574.2041,546.40527Zm-6.24365-7.1123c-3.36035,0-5.124,2.57617-5.376,5.51562h10.77979C573.1123,541.61719,571.04,539.293,567.96045,539.293Z"/><path class="cls-3" d="M584.144,539.54492A4.7857,4.7857,0,0,0,579.356,544.333v7.92383a.79822.79822,0,0,1-1.59619,0V538.957a.79822.79822,0,0,1,1.59619,0v1.14746a6.39222,6.39222,0,0,1,4.78808-2.15527.798.798,0,1,1,0,1.5957Z"/><path class="cls-3" d="M600.40674,553.041h-.02832a2.89905,2.89905,0,0,1-2.772-2.18457,6.35107,6.35107,0,0,1-5.43165,2.66015c-4.564,0-7.02832-3.752-7.02832-7.92383,0-4.22754,2.52-7.8955,7.02832-7.8955a6.40042,6.40042,0,0,1,5.43165,2.63183V538.957a.78928.78928,0,0,1,.812-.78418.76458.76458,0,0,1,.78418.78418v11.28418c0,1.792,2.01611.67188,2.01611,2.01563A.77007.77007,0,0,1,600.40674,553.041ZM592.1748,539.293c-3.30419,0-5.43212,2.66015-5.43212,6.2998s2.12793,6.32813,5.43212,6.32813c3.332,0,5.43165-2.68848,5.43165-6.32813S595.50684,539.293,592.1748,539.293Z"/><path class="cls-3" d="M615.18994,553.041a.78745.78745,0,0,1-.812-.78418v-8.17579a4.78784,4.78784,0,1,0-9.57568,0v8.17579a.79822.79822,0,0,1-1.5962,0V538.957a.79822.79822,0,0,1,1.5962,0v.89551a6.38763,6.38763,0,0,1,11.17187,4.22851v8.17579A.78082.78082,0,0,1,615.18994,553.041Z"/><path class="cls-3" d="M624.26221,553.041h-.86768c-2.2124,0-3.3042-1.0918-3.3042-3.27637v-9.9961h-1.42822a.798.798,0,0,1,0-1.5957h1.42822v-4.28418a.78717.78717,0,0,1,.812-.78418.76459.76459,0,0,1,.78418.78418v4.28418h2.57569a.798.798,0,0,1,0,1.5957h-2.57569v9.9961c0,1.37207.3916,1.67969,1.708,1.67969h.86768a.79847.79847,0,0,1,0,1.59668Z"/><path class="cls-3" d="M639.71777,539.54492a4.7857,4.7857,0,0,0-4.78808,4.78809v7.92383a.79822.79822,0,0,1-1.59619,0V538.957a.79822.79822,0,0,1,1.59619,0v1.14746a6.39222,6.39222,0,0,1,4.78808-2.15527.798.798,0,1,1,0,1.5957Z"/><path class="cls-3" d="M642.8252,535.48438a1.59571,1.59571,0,1,1,1.59619-1.59571A1.57694,1.57694,0,0,1,642.8252,535.48438Zm0,17.55664a.76965.76965,0,0,1-.812-.78418V538.957a.77152.77152,0,0,1,.812-.78418.7627.7627,0,0,1,.78418.78418v13.29981A.74938.74938,0,0,1,642.8252,553.041Z"/><path class="cls-3" d="M658.42139,551.38867a6.50274,6.50274,0,0,1-5.01172,2.12793c-4.5083,0-7.02832-3.69629-7.02832-7.92383,0-4.20019,2.52-7.8955,7.02832-7.8955a6.5027,6.5027,0,0,1,5.01172,2.12793.7403.7403,0,0,1,.22412.53125.87835.87835,0,0,1-.812.84082.82427.82427,0,0,1-.58789-.28028,4.9362,4.9362,0,0,0-3.83594-1.624c-3.3042,0-5.43213,2.66015-5.43213,6.2998s2.12793,6.32813,5.43213,6.32813a5.03271,5.03271,0,0,0,3.83594-1.624.79436.79436,0,0,1,1.3999.53222A.80324.80324,0,0,1,658.42139,551.38867Z"/><path class="cls-3" d="M674.07324,546.40527H662.45361c.252,3.19141,2.32373,5.51563,5.376,5.51563a5.061,5.061,0,0,0,4.11572-1.93164.73427.73427,0,0,1,.67188-.39258.85586.85586,0,0,1,.86816.75586c0,.252,0,.30859-.53174.92383a6.60865,6.60865,0,0,1-5.124,2.24023c-4.5083,0-7.02832-3.69629-7.02832-7.92383,0-4.20019,2.52-7.8955,7.02832-7.8955,4.50781,0,7.02783,3.72363,7.02783,7.8955A.84816.84816,0,0,1,674.07324,546.40527Zm-6.24365-7.1123c-3.36035,0-5.124,2.57617-5.376,5.51562H673.2334C672.98145,541.61719,670.90918,539.293,667.82959,539.293Z"/><path class="cls-3" d="M243.47559,866.00488c-2.38038,0-5.74024-.89648-5.74024-1.90429a.8882.8882,0,0,1,.812-.89551,10.05724,10.05724,0,0,1,1.48389.67187,10.49364,10.49364,0,0,0,3.44434.53223c3.584,0,5.43164-1.76465,5.43164-5.208v-1.96a6.68593,6.68593,0,0,1-5.43164,2.37988c-4.42432,0-7.02832-3.13671-7.02832-7.44824,0-4.20019,2.52-7.89551,7.02832-7.89551a6.40041,6.40041,0,0,1,5.43164,2.63184v-1.34473a.79823.79823,0,0,1,1.59619,0v13.63672C250.50342,863.65234,247.84326,866.00488,243.47559,866.00488Zm0-20.13183c-3.3042,0-5.43213,2.66015-5.43213,6.2998,0,3.61231,1.98779,5.85156,5.43213,5.85156,3.44384,0,5.43164-2.23925,5.43164-5.85156C248.90723,848.5332,246.80762,845.87305,243.47559,845.87305Z"/><path class="cls-3" d="M260.30322,846.125a4.7857,4.7857,0,0,0-4.78808,4.78809v7.92382a.79822.79822,0,0,1-1.59619,0v-13.2998a.79822.79822,0,0,1,1.59619,0v1.14746a6.39222,6.39222,0,0,1,4.78808-2.15527.798.798,0,1,1,0,1.5957Z"/><path class="cls-3" d="M268.9834,860.09668c-4.5083,0-7.02832-3.69629-7.02832-7.92383,0-4.20019,2.52-7.89551,7.02832-7.89551,4.50781,0,7.02783,3.69532,7.02783,7.89551C276.01123,856.40039,273.49121,860.09668,268.9834,860.09668Zm0-14.22363c-3.3042,0-5.43213,2.66015-5.43213,6.2998s2.12793,6.32813,5.43213,6.32813c3.332,0,5.43164-2.68848,5.43164-6.32813S272.31543,845.87305,268.9834,845.87305Z"/><path class="cls-3" d="M297.20654,845.78906l-4.564,13.16016c-.1958.53125-.44776.67187-.812.67187-.47559,0-.61573-.168-.78369-.67187l-3.668-10.91992-3.668,10.91992c-.19629.53125-.44824.67187-.812.67187a.81882.81882,0,0,1-.78418-.67187l-4.53565-13.16016a1.182,1.182,0,0,1-.05615-.30859.79552.79552,0,0,1,.812-.72754.72671.72671,0,0,1,.728.53223l3.83594,11.08789,3.668-10.94825c.168-.53222.33594-.67187.812-.67187.33593,0,.61572.1123.78369.67187l3.72412,10.94825,3.78027-11.08789a.7258.7258,0,0,1,.72754-.53223.75785.75785,0,0,1,.812,1.03613Z"/><path class="cls-3" d="M304.06641,860.15332c-1.68018,0-4.5083-.58887-5.48829-2.21289a.67626.67626,0,0,1-.11181-.41992.76344.76344,0,0,1,1.42773-.44727c1.0083,1.23145,2.8003,1.4834,4.17237,1.4834,2.71582,0,4.08789-.89551,4.08789-2.71582,0-4.22754-9.18409-1.98828-9.18409-7.58789,0-2.82813,2.82813-3.91992,5.376-3.91992a7.586,7.586,0,0,1,4.81592,1.624.78387.78387,0,0,1,.252.53223.90751.90751,0,0,1-.86767.83984.74307.74307,0,0,1-.53223-.22461,5.59819,5.59819,0,0,0-3.668-1.17578c-2.46387,0-3.77978.95215-3.77978,2.32422,0,3.91992,9.18359,1.84766,9.18359,7.58789C309.75,859.0332,306.9502,860.15332,304.06641,860.15332Z"/><path class="cls-3" d="M319.24219,842.06445a1.5957,1.5957,0,1,1,1.59619-1.5957A1.57694,1.57694,0,0,1,319.24219,842.06445Zm0,17.55664a.76964.76964,0,0,1-.812-.78418v-13.2998a.77152.77152,0,0,1,.812-.78418.7627.7627,0,0,1,.78418.78418v13.2998A.74937.74937,0,0,1,319.24219,859.62109Z"/><path class="cls-3" d="M335.42578,859.62109a.78745.78745,0,0,1-.812-.78418v-8.17578a4.78784,4.78784,0,1,0-9.57568,0v8.17578a.79822.79822,0,0,1-1.5962,0v-13.2998a.79822.79822,0,0,1,1.5962,0v.89551A6.38762,6.38762,0,0,1,336.21,850.66113v8.17578A.78081.78081,0,0,1,335.42578,859.62109Z"/><path class="cls-3" d="M528.63525,508.15088q-.05933.64526.52735.58594h3.57422q.6438-.11646.52734.52734v2.87109q.11646.64527-.52734.58594H529.1626q-.58668-.11646-.52735.52686v8.4375c.07764.50879-.09814.72265-.52734.64453h-2.98828c-.39111.07812-.5669-.13574-.52734-.64453v-8.4375q.11644-.64307-.52735-.52686H510.47119q-.58666.05933-.52734-.58594v-3.6914l.23437-.9961,12.48047-26.77734a.7733.7733,0,0,1,.82031-.46875h4.62891q.6438-.05785.52734.58594Zm-14.707,0q-.35155.64526.35157.58594h9.78515q.6438.05932.52735-.58594V486.23682q-.11793-.70312-.46875-.11719Z"/><path class="cls-3" d="M544.957,519.63477a3.41475,3.41475,0,0,1-3.51562,3.63281q-3.282-.23437-3.51563-3.63281a3.43273,3.43273,0,0,1,3.51563-3.57422,3.38938,3.38938,0,0,1,3.51562,3.57422v0Z"/><path class="cls-3" d="M554.13037,512.72119q.468,6.32739,7.03125,6.62061a6.63267,6.63267,0,0,0,4.98047-1.99219,8.00639,8.00639,0,0,0,1.93359-5.56592v-5.332a7.67163,7.67163,0,0,0-1.69922-5.15625,6.30031,6.30031,0,0,0-4.92187-2.10937,8.56664,8.56664,0,0,0-5.80078,1.99218.6682.6682,0,0,1-.76172.293H552.021q-.64527.11792-.52735-.52734V480.84619q-.11792-.6438.52735-.52734h18.28125q.6438-.11646.52734.52734v2.98828q.11646.64527-.52734.58594H556.00537q-.58667-.11646-.52734.52734v11.60157q0,.52734.52734.23437a12.3611,12.3611,0,0,1,5.80078-1.34765,10.378,10.378,0,0,1,7.61719,2.98828,11.04235,11.04235,0,0,1,2.98828,8.02734v5.332a11.47156,11.47156,0,0,1-3.33984,8.37842,11.61162,11.61162,0,0,1-8.08594,3.22266,10.87909,10.87909,0,0,1-7.85156-3.10547,11.2962,11.2962,0,0,1-3.22266-7.73389q-.11792-.58521.52734-.52734h3.04688q.6438-.05787.64453.70312v0Z"/><g class="cls-2"><path class="cls-3" d="M506.3252,968.2998a5.2973,5.2973,0,1,1,4.71-5.28027A5.041,5.041,0,0,1,506.3252,968.2998Zm0-8.8496a3.62394,3.62394,0,1,0,3,3.56933A3.328,3.328,0,0,0,506.3252,959.4502Zm11.33935-1.11036-5.72949,20.69922c-.15039.41992-.39014.63086-.75.63086a.923.923,0,0,1-.93018-.87109.57549.57549,0,0,1,.03028-.23926l5.72949-20.69922a.81079.81079,0,0,1,.78027-.66015.9432.9432,0,0,1,.8999.89941A.83352.83352,0,0,1,517.66455,958.33984Zm3.71973,20.78907a5.29366,5.29366,0,1,1,4.74023-5.2793A5.03666,5.03666,0,0,1,521.38428,979.12891Zm0-8.81934a3.60063,3.60063,0,1,0,3.03027,3.54A3.29658,3.29658,0,0,0,521.38428,970.30957Z"/><path class="cls-3" d="M540.85449,979.69922c-1.7998,0-4.83008-.62988-5.87988-2.36914a.7263.7263,0,0,1-.12012-.45117.81852.81852,0,0,1,1.53028-.4795c1.07959,1.31934,2.99951,1.58985,4.46972,1.58985,2.90967,0,4.37989-.96,4.37989-2.90918,0-4.53028-9.83985-2.13086-9.83985-8.13086,0-3.0293,3.02979-4.19922,5.75977-4.19922a8.12613,8.12613,0,0,1,5.15966,1.74023.83735.83735,0,0,1,.27.57032.97234.97234,0,0,1-.92968.89941.79107.79107,0,0,1-.56983-.24023A6.002,6.002,0,0,0,541.1543,964.46c-2.63965,0-4.04981,1.02051-4.04981,2.48926,0,4.20117,9.83985,1.98047,9.83985,8.13086C546.94434,978.5,543.94434,979.69922,540.85449,979.69922Z"/><path class="cls-3" d="M565.15381,979.12891H565.124a3.10516,3.10516,0,0,1-2.97021-2.33985,6.80365,6.80365,0,0,1-5.81934,2.84961c-4.89013,0-7.52978-4.01953-7.52978-8.48828,0-4.53027,2.6997-8.46094,7.52978-8.46094a6.85709,6.85709,0,0,1,5.81934,2.82032V964.04a.8458.8458,0,0,1,.87012-.83984.81863.81863,0,0,1,.83984.83984v12.08887c0,1.91992,2.16016.7207,2.16016,2.16015A.8247.8247,0,0,1,565.15381,979.12891Zm-8.81934-14.72852c-3.54,0-5.81982,2.84961-5.81982,6.75,0,3.89941,2.27978,6.7793,5.81982,6.7793,3.56983,0,5.81934-2.87989,5.81934-6.7793C562.15381,967.25,559.9043,964.40039,556.33447,964.40039Z"/><path class="cls-3" d="M571.12451,979.30957a3.14385,3.14385,0,0,1-2.96972-3.18066V958.61035a.85511.85511,0,0,1,1.71,0v17.51856c0,1.91992,2.12988.81054,2.12988,2.16015A.968.968,0,0,1,571.12451,979.30957Z"/><path class="cls-3" d="M579.61377,979.12891h-.93018c-2.36963,0-3.53955-1.16993-3.53955-3.50977v-10.709h-1.53027a.85511.85511,0,0,1,0-1.71H575.144v-4.58985a.84279.84279,0,0,1,.86963-.83984.81874.81874,0,0,1,.84033.83984v4.58985h2.75977a.85511.85511,0,0,1,0,1.71H576.854v10.709c0,1.4707.41993,1.80078,1.82959,1.80078h.93018a.85462.85462,0,0,1,0,1.709Z"/></g><path class="cls-3" d="M886.80127,980.13281c-1.68018,0-4.5083-.58789-5.48828-2.21191a.67621.67621,0,0,1-.11182-.41992.76377.76377,0,0,1,1.42774-.44825c1.0083,1.23243,2.80029,1.48438,4.17236,1.48438,2.71582,0,4.08789-.89649,4.08789-2.71582,0-4.22852-9.18408-1.98828-9.18408-7.58887,0-2.82715,2.82812-3.91992,5.376-3.91992a7.58506,7.58506,0,0,1,4.81592,1.624.78389.78389,0,0,1,.252.53223.90752.90752,0,0,1-.86768.83984.74171.74171,0,0,1-.53223-.22363,5.599,5.599,0,0,0-3.668-1.17578c-2.46386,0-3.77978.95215-3.77978,2.32324,0,3.9209,9.18359,1.84863,9.18359,7.58887C892.48486,979.0127,889.68506,980.13281,886.80127,980.13281Z"/><path class="cls-3" d="M906.93311,972.96484H895.31348c.25195,3.19239,2.32373,5.51563,5.376,5.51563a5.061,5.061,0,0,0,4.11573-1.93164.735.735,0,0,1,.67187-.3916.85585.85585,0,0,1,.86816.75586c0,.25195,0,.30761-.53173.92382a6.61191,6.61191,0,0,1-5.124,2.24024c-4.5083,0-7.02832-3.69629-7.02832-7.92383,0-4.2002,2.52-7.89648,7.02832-7.89648,4.50782,0,7.02784,3.72363,7.02784,7.89648A.84723.84723,0,0,1,906.93311,972.96484Zm-6.24366-7.1123c-3.36035,0-5.124,2.57617-5.376,5.5166h10.77978C905.84131,968.17676,903.769,965.85254,900.68945,965.85254Z"/><path class="cls-3" d="M924.54492,979.60059h-.02832a2.89917,2.89917,0,0,1-2.772-2.1836,6.35342,6.35342,0,0,1-5.43164,2.66016c-4.564,0-7.02832-3.75195-7.02832-7.92383,0-4.22852,2.52-7.89648,7.02832-7.89648a6.4004,6.4004,0,0,1,5.43164,2.63183V965.5166a.7899.7899,0,0,1,.812-.78418.76459.76459,0,0,1,.78418.78418v11.28418c0,1.792,2.01611.67188,2.01611,2.01563A.77007.77007,0,0,1,924.54492,979.60059ZM916.313,965.85254c-3.3042,0-5.43213,2.66016-5.43213,6.30078,0,3.63965,2.12793,6.32715,5.43213,6.32715,3.332,0,5.43164-2.6875,5.43164-6.32715C921.74463,968.5127,919.645,965.85254,916.313,965.85254Z"/><path class="cls-3" d="M945.208,965.76855l-4.564,13.16016c-.1958.53223-.44775.67188-.812.67188-.47558,0-.61572-.168-.78369-.67188l-3.668-10.91992-3.668,10.91992c-.19629.53223-.44824.67188-.812.67188a.81782.81782,0,0,1-.78418-.67188l-4.53613-13.16016a1.19446,1.19446,0,0,1-.05567-.30761.79564.79564,0,0,1,.812-.72852.72782.72782,0,0,1,.728.53223l3.83594,11.08789,3.668-10.94727c.168-.53222.33594-.67285.812-.67285.33594,0,.61572.11231.78369.67285l3.72412,10.94727,3.78028-11.08789a.72709.72709,0,0,1,.728-.53223.7578.7578,0,0,1,.81153,1.03613Z"/><path class="cls-3" d="M961.44824,979.60059h-.02832a2.89917,2.89917,0,0,1-2.772-2.1836,6.35342,6.35342,0,0,1-5.43164,2.66016c-4.564,0-7.02832-3.75195-7.02832-7.92383,0-4.22852,2.52-7.89648,7.02832-7.89648a6.4004,6.4004,0,0,1,5.43164,2.63183V965.5166a.7899.7899,0,0,1,.812-.78418.76459.76459,0,0,1,.78418.78418v11.28418c0,1.792,2.01611.67188,2.01611,2.01563A.77007.77007,0,0,1,961.44824,979.60059Zm-8.23193-13.74805c-3.3042,0-5.43213,2.66016-5.43213,6.30078,0,3.63965,2.12793,6.32715,5.43213,6.32715,3.332,0,5.43164-2.6875,5.43164-6.32715C958.648,968.5127,956.54834,965.85254,953.21631,965.85254Z"/><path class="cls-3" d="M968.812,979.60059h-.86767c-2.21241,0-3.3042-1.0918-3.3042-3.27539v-9.9961h-1.42823a.79847.79847,0,0,1,0-1.59668h1.42823v-4.2832a.78716.78716,0,0,1,.812-.78418.76458.76458,0,0,1,.78418.78418v4.2832H968.812a.79847.79847,0,0,1,0,1.59668h-2.57568v9.9961c0,1.37207.3916,1.67968,1.708,1.67968h.86767a.798.798,0,0,1,0,1.59571Z"/><path class="cls-3" d="M983.65137,972.96484H972.03174c.25195,3.19239,2.32373,5.51563,5.376,5.51563a5.061,5.061,0,0,0,4.11573-1.93164.735.735,0,0,1,.67187-.3916.85586.85586,0,0,1,.86817.75586c0,.25195,0,.30761-.53174.92382a6.6119,6.6119,0,0,1-5.124,2.24024c-4.5083,0-7.02832-3.69629-7.02832-7.92383,0-4.2002,2.52-7.89648,7.02832-7.89648,4.50782,0,7.02784,3.72363,7.02784,7.89648A.84723.84723,0,0,1,983.65137,972.96484Zm-6.24366-7.1123c-3.36035,0-5.124,2.57617-5.376,5.5166h10.77978C982.55957,968.17676,980.4873,965.85254,977.40771,965.85254Z"/><path class="cls-3" d="M993.03174,966.10449a4.7857,4.7857,0,0,0-4.78809,4.78809v7.92383a.79822.79822,0,0,1-1.59619,0V965.5166a.79822.79822,0,0,1,1.59619,0V966.665a6.39318,6.39318,0,0,1,4.78809-2.15625.798.798,0,1,1,0,1.5957Z"/><path class="cls-9" d="M1005.99023,978.00684a3.7686,3.7686,0,0,0,2.84375-1.28125,4.49331,4.49331,0,0,0,1.0625-3.0625,5.06874,5.06874,0,0,0-1.25-3.5625,4.3985,4.3985,0,0,0-3.25-1.25h-.375q-.31273.03222-.28125-.3125v-1.5q-.03148-.34278.28125-.28125h.1875a4.18,4.18,0,0,0,3.0625-1.21875,4.41017,4.41017,0,0,0,1.1875-3.1875q-.1875-3.312-3.25-3.5a3.20642,3.20642,0,0,0-2.21875.84375,3.88559,3.88559,0,0,0-1.15625,2.46875q0,.438-.3125.375h-1.6875q-.375.063-.28125-.3125a6.21305,6.21305,0,0,1,1.78125-3.96875,5.58272,5.58272,0,0,1,7.875,0,5.82523,5.82523,0,0,1,1.625,4.09375,5.52538,5.52538,0,0,1-1.0625,3.375,5.92782,5.92782,0,0,1-2.1875,1.8125q-.25048.15673.03125.34375a6.84915,6.84915,0,0,1,2.40625,1.84375,6.01083,6.01083,0,0,1,1.25,3.9375,6.80069,6.80069,0,0,1-1.8125,4.59375,6.2582,6.2582,0,0,1-4.5,1.96875,6.05038,6.05038,0,0,1-4.1875-1.625,6.37094,6.37094,0,0,1-1.90625-4.53125q-.063-.1875.28125-.25h1.6875q.34352-.06153.34375.375.28125,3.65625,3.8125,3.8125v0Z"/><path class="cls-9" d="M1018.66406,978.16309a1.821,1.821,0,0,1-1.875,1.9375,1.92246,1.92246,0,0,1,0-3.84375,1.80774,1.80774,0,0,1,1.875,1.90625v0Z"/><path class="cls-9" d="M1023.55664,974.47559q.24975,3.375,3.75,3.53125a3.537,3.537,0,0,0,2.65625-1.0625,4.26954,4.26954,0,0,0,1.03125-2.96875v-2.84375a4.09176,4.09176,0,0,0-.90625-2.75,3.3627,3.3627,0,0,0-2.625-1.125,4.57087,4.57087,0,0,0-3.09375,1.0625.35576.35576,0,0,1-.40625.15625h-1.53125q-.34424.063-.28125-.28125V957.47559q-.063-.34278.28125-.28125h9.75q.3435-.06153.28125.28125v1.59375q.06225.34423-.28125.3125h-7.625q-.31275-.06153-.28125.28125v6.1875q0,.28125.28125.125a6.59765,6.59765,0,0,1,3.09375-.71875,5.53783,5.53783,0,0,1,4.0625,1.59375,5.8886,5.8886,0,0,1,1.59375,4.28125v2.84375a6.11864,6.11864,0,0,1-1.78125,4.46875,6.19485,6.19485,0,0,1-4.3125,1.71875,5.80368,5.80368,0,0,1-4.1875-1.65625,6.0245,6.0245,0,0,1-1.71875-4.125q-.063-.312.28125-.28125h1.625q.3435-.03077.34375.375v0Z"/><path class="cls-9" d="M1040.22021,957.21a2.36076,2.36076,0,0,1,.61915,1.63965v1.12988a2.359,2.359,0,0,1-.61915,1.63965,2.161,2.161,0,0,1-1.60351.65625,2.13845,2.13845,0,0,1-1.585-.65625,2.31838,2.31838,0,0,1-.6377-1.63965v-1.12988a2.32009,2.32009,0,0,1,.6377-1.63965,2.1341,2.1341,0,0,1,1.585-.65527A2.15671,2.15671,0,0,1,1040.22021,957.21Zm-2.45947,12.75293h-.80176c-.146.0127-.18212-.04785-.10937-.18164l7.50635-12.77148c.04834-.14551.12744-.20606.23681-.18262h.80127c.13379-.01172.16992.043.10938.16406L1037.979,969.7627C1037.93066,969.9082,1037.85742,969.97559,1037.76074,969.96289Zm-.34619-10.03809q.07251,1.27589,1.20215,1.29395,1.14771-.019,1.20264-1.29395v-1.0205q-.05495-1.27441-1.20264-1.293-1.1294.01758-1.20215,1.293Zm4.71875,9.65625a2.29562,2.29562,0,0,1-.63769-1.62207v-1.11132a2.29327,2.29327,0,0,1,.63769-1.6211,2.16442,2.16442,0,0,1,1.585-.63769,2.18906,2.18906,0,0,1,1.603.63769,2.3356,2.3356,0,0,1,.61963,1.6211V967.959a2.338,2.338,0,0,1-.61963,1.62207,2.15639,2.15639,0,0,1-1.603.65528A2.1325,2.1325,0,0,1,1042.1333,969.58105Zm2.78711-1.67675v-1.002q-.05419-1.23779-1.20215-1.25683-1.13013.01758-1.20264,1.25683v1.002q.07251,1.25684,1.20264,1.27539,1.14771-.01758,1.20215-1.27539v0Z"/><path class="cls-9" d="M184.99609,958.47559a6.64827,6.64827,0,0,1,1.78125,4.65625v10.5625a6.76168,6.76168,0,0,1-1.78125,4.6875,6.21555,6.21555,0,0,1-4.53125,1.84375,6.28307,6.28307,0,0,1-4.53125-1.84375,6.63989,6.63989,0,0,1-1.75-4.6875v-10.5625a6.52945,6.52945,0,0,1,1.75-4.65625,6.12216,6.12216,0,0,1,4.53125-1.84375A6.05858,6.05858,0,0,1,184.99609,958.47559Zm-8.46875,4.65625v10.5625a4.7146,4.7146,0,0,0,1.0625,3.125,4.0004,4.0004,0,0,0,5.75,0,4.63126,4.63126,0,0,0,1.09375-3.125v-10.5625a4.514,4.514,0,0,0-1.09375-3.09375,4.0004,4.0004,0,0,0-5.75,0,4.59415,4.59415,0,0,0-1.0625,3.09375v0Z"/><path class="cls-9" d="M192.85742,978.16309a1.821,1.821,0,0,1-1.875,1.9375,1.92246,1.92246,0,0,1,0-3.84375,1.80774,1.80774,0,0,1,1.875,1.90625v0Z"/><path class="cls-9" d="M197.75,967.85059q.03077.34423.28125.125.999-1.34327,3.78125-1.59375a5.67243,5.67243,0,0,1,4.40625,1.96875,7.33814,7.33814,0,0,1,1.65625,4.84375,7.56354,7.56354,0,0,1-1.71875,4.90625,5.92166,5.92166,0,0,1-9.0625.03125,7.75019,7.75019,0,0,1-1.6875-5.03125v-9.8125a6.94161,6.94161,0,0,1,1.6875-4.6875,5.94316,5.94316,0,0,1,4.59375-1.96875,6.33868,6.33868,0,0,1,4.03125,1.375,5.70066,5.70066,0,0,1,2,3.6875c.041.1875-.0625.28125-.3125.28125H205.5625c-.209,0-.3125-.125-.3125-.375a4.10034,4.10034,0,0,0-1.09375-1.9375,3.59776,3.59776,0,0,0-2.5-.8125,3.6501,3.6501,0,0,0-2.875,1.25,4.84508,4.84508,0,0,0-1.03125,3.1875Zm0,5.40625a5.41209,5.41209,0,0,0,1,3.375,3.642,3.642,0,0,0,5.75,0,5.89582,5.89582,0,0,0,1-3.4375,5.68434,5.68434,0,0,0-.96875-3.34375,3.42522,3.42522,0,0,0-2.84375-1.3125q-3.90673.25048-3.9375,4.71875v0Z"/><path class="cls-9" d="M215.05371,957.21a2.36516,2.36516,0,0,1,.61914,1.63965v1.12988a2.3634,2.3634,0,0,1-.61914,1.63965,2.16186,2.16186,0,0,1-1.60351.65625,2.13689,2.13689,0,0,1-1.585-.65625,2.31631,2.31631,0,0,1-.63769-1.63965v-1.12988a2.318,2.318,0,0,1,.63769-1.63965,2.13255,2.13255,0,0,1,1.585-.65527A2.15753,2.15753,0,0,1,215.05371,957.21Zm-2.46,12.75293H211.792c-.14551.0127-.18164-.04785-.10937-.18164l7.50683-12.77148c.04785-.14551.127-.20606.23633-.18262h.80176c.13379-.01172.16992.043.10937.16406L212.8125,969.7627C212.76367,969.9082,212.69043,969.97559,212.59375,969.96289Zm-.3457-10.03809q.07177,1.27589,1.20215,1.29395,1.147-.019,1.20214-1.29395v-1.0205q-.0542-1.27441-1.20214-1.293-1.12939.01758-1.20215,1.293Zm4.71875,9.65625a2.29567,2.29567,0,0,1-.6377-1.62207v-1.11132a2.29332,2.29332,0,0,1,.6377-1.6211,2.16442,2.16442,0,0,1,1.585-.63769,2.18791,2.18791,0,0,1,1.60254.63769,2.336,2.336,0,0,1,.62011,1.6211V967.959a2.33838,2.33838,0,0,1-.62011,1.62207,2.15527,2.15527,0,0,1-1.60254.65528A2.1325,2.1325,0,0,1,216.9668,969.58105Zm2.78711-1.67675v-1.002q-.05421-1.23779-1.20215-1.25683-1.13086.01758-1.20313,1.25683v1.002q.07324,1.25684,1.20313,1.27539,1.147-.01758,1.20215-1.27539v0Z"/><path class="cls-3" d="M235.52441,980.13281c-1.67968,0-4.50781-.58789-5.48828-2.21191a.67852.67852,0,0,1-.11133-.41992.76378.76378,0,0,1,1.42774-.44825c1.00781,1.23243,2.7998,1.48438,4.17187,1.48438,2.71582,0,4.08789-.89649,4.08789-2.71582,0-4.22852-9.18359-1.98828-9.18359-7.58887,0-2.82715,2.82813-3.91992,5.376-3.91992a7.58279,7.58279,0,0,1,4.81543,1.624.78387.78387,0,0,1,.252.53223.90742.90742,0,0,1-.86719.83984.74167.74167,0,0,1-.53222-.22363,5.6,5.6,0,0,0-3.668-1.17578c-2.46387,0-3.78028.95215-3.78028,2.32324,0,3.9209,9.1836,1.84863,9.1836,7.58887C241.208,979.0127,238.4082,980.13281,235.52441,980.13281Z"/><path class="cls-3" d="M257.64453,979.60059h-.02832a2.89866,2.89866,0,0,1-2.77148-2.1836,6.354,6.354,0,0,1-5.43164,2.66016c-4.56446,0-7.02832-3.75195-7.02832-7.92383,0-4.22852,2.51953-7.89648,7.02832-7.89648a6.401,6.401,0,0,1,5.43164,2.63183V965.5166a.78977.78977,0,0,1,.81152-.78418.76431.76431,0,0,1,.78418.78418v11.28418c0,1.792,2.0166.67188,2.0166,2.01563A.77021.77021,0,0,1,257.64453,979.60059Zm-8.23144-13.74805c-3.30469,0-5.43262,2.66016-5.43262,6.30078,0,3.63965,2.12793,6.32715,5.43262,6.32715,3.332,0,5.43164-2.6875,5.43164-6.32715C254.84473,968.5127,252.74512,965.85254,249.41309,965.85254Z"/><path class="cls-3" d="M262.65625,979.76855a2.93453,2.93453,0,0,1-2.77246-2.96777V960.44922a.79847.79847,0,0,1,1.59668,0v16.35156c0,1.792,1.9873.75586,1.9873,2.01563A.90265.90265,0,0,1,262.65625,979.76855Z"/><path class="cls-3" d="M270.01953,979.60059h-.86719c-2.21289,0-3.30468-1.0918-3.30468-3.27539v-9.9961h-1.42774a.79847.79847,0,0,1,0-1.59668h1.42774v-4.2832a.78728.78728,0,0,1,.8125-.78418.76486.76486,0,0,1,.78418.78418v4.2832h2.57519a.79847.79847,0,0,1,0,1.59668h-2.57519v9.9961c0,1.37207.3916,1.67968,1.708,1.67968h.86719a.798.798,0,0,1,0,1.59571Z"/><path class="cls-3" d="M284.2998,965.85254l-7.58789,17.94824a2.89669,2.89669,0,0,1-2.99609,1.67969H272.4834a.798.798,0,0,1,0-1.5957h1.23242c.61621,0,1.25977-.02832,1.51172-.67188l1.59668-3.80762-5.7959-13.55273a.87813.87813,0,0,1-.05664-.36328.7843.7843,0,0,1,.8125-.75684.7183.7183,0,0,1,.69922.47656l5.208,12.15137,5.15234-12.15137a.73059.73059,0,0,1,.72852-.47656.759.759,0,0,1,.7832.75684A.8921.8921,0,0,1,284.2998,965.85254Z"/><path class="cls-3" d="M296.39551,980.13281c-1.67969,0-4.50781-.58789-5.48828-2.21191a.67852.67852,0,0,1-.11133-.41992.76377.76377,0,0,1,1.42773-.44825c1.00782,1.23243,2.79981,1.48438,4.17188,1.48438,2.71582,0,4.08789-.89649,4.08789-2.71582,0-4.22852-9.1836-1.98828-9.1836-7.58887,0-2.82715,2.82813-3.91992,5.376-3.91992a7.58277,7.58277,0,0,1,4.81543,1.624.78387.78387,0,0,1,.25195.53223.90742.90742,0,0,1-.86718.83984.74171.74171,0,0,1-.53223-.22363,5.59991,5.59991,0,0,0-3.668-1.17578c-2.46387,0-3.78027.95215-3.78027,2.32324,0,3.9209,9.18359,1.84863,9.18359,7.58887C302.0791,979.0127,299.2793,980.13281,296.39551,980.13281Z"/><path class="cls-3" d="M310.2832,980.07715c-4.50781,0-7.02832-3.69629-7.02832-7.92383,0-4.2002,2.52051-7.89648,7.02832-7.89648s7.02832,3.69628,7.02832,7.89648C317.31152,976.38086,314.791,980.07715,310.2832,980.07715Zm0-14.22461c-3.30371,0-5.43164,2.66016-5.43164,6.30078,0,3.63965,2.12793,6.32715,5.43164,6.32715,3.332,0,5.43164-2.6875,5.43164-6.32715C315.71484,968.5127,313.61523,965.85254,310.2832,965.85254Z"/><path class="cls-3" d="M320.335,962.04492a1.59619,1.59619,0,1,1,1.59668-1.5957A1.57783,1.57783,0,0,1,320.335,962.04492Zm0,17.55567a.76951.76951,0,0,1-.81152-.78418V965.5166a.77113.77113,0,0,1,.81152-.78418.7633.7633,0,0,1,.78418.78418v13.29981A.74883.74883,0,0,1,320.335,979.60059Z"/><path class="cls-3" d="M326.74707,979.76855a2.93453,2.93453,0,0,1-2.77246-2.96777V960.44922a.79847.79847,0,0,1,1.59668,0v16.35156c0,1.792,1.9873.75586,1.9873,2.01563A.90265.90265,0,0,1,326.74707,979.76855Z"/></g><g id="title"><path class="cls-3" d="M166.32422,82.06006a2.5735,2.5735,0,0,1-1.98-1.08008L151.86475,63.52051H144.125V79.41992A2.50113,2.50113,0,0,1,141.48486,82a2.45633,2.45633,0,0,1-2.51953-2.52V41.86182a2.4906,2.4906,0,0,1,2.51953-2.58008h15.53955c5.27979,0,12.05957,4.13965,12.05957,12.05957a12.09561,12.09561,0,0,1-11.03955,12.11963l10.49952,14.459a2.35545,2.35545,0,0,1,.54,1.56006A2.75962,2.75962,0,0,1,166.32422,82.06006Zm-9.35986-37.67871H144.125V58.4209h12.7793a7.0199,7.0199,0,0,0,.06006-14.03955Z"/><path class="cls-3" d="M176.585,45.28125a4.31983,4.31983,0,1,1,4.31983-4.31934A4.30175,4.30175,0,0,1,176.585,45.28125ZM176.585,82a2.52038,2.52038,0,0,1-2.64014-2.52V52.72119a2.53355,2.53355,0,0,1,2.64014-2.58008,2.472,2.472,0,0,1,2.52,2.58008V79.48A2.42092,2.42092,0,0,1,176.585,82Z"/><path class="cls-3" d="M209.8833,78.46A13.93584,13.93584,0,0,1,199.14355,83.02c-9.65966,0-15.05908-7.91992-15.05908-16.97949,0-8.99951,5.39942-16.91944,15.05908-16.91944a13.93584,13.93584,0,0,1,10.73975,4.56006,2.61521,2.61521,0,0,1,.71973,1.73975,2.79363,2.79363,0,0,1-2.69971,2.58008,2.84029,2.84029,0,0,1-1.85986-.83985,8.81442,8.81442,0,0,0-6.89991-2.93994c-5.99951,0-9.89941,4.67969-9.89941,11.81934,0,7.1997,3.8999,11.87939,9.89941,11.87939a8.92291,8.92291,0,0,0,6.89991-2.93945,2.39567,2.39567,0,0,1,1.85986-.90039,2.59,2.59,0,0,1,1.98,4.37988Z"/><path class="cls-3" d="M240.84229,68.68066H218.64307c.84033,5.63965,4.43994,9.23926,9.71972,9.23926a9.00462,9.00462,0,0,0,7.13965-3.11963,2.48351,2.48351,0,0,1,1.85986-.96,2.8,2.8,0,0,1,2.7002,2.64014c0,.71973-.18018,1.25976-1.43994,2.51953a14.62154,14.62154,0,0,1-10.25977,4.02c-9.65967,0-15.05957-7.98-15.05957-16.97949,0-8.93946,5.3999-16.91944,15.05957-16.91944,9.77979,0,14.99951,7.98,14.99951,16.91944A2.55832,2.55832,0,0,1,240.84229,68.68066Zm-12.4795-14.45947c-5.63965,0-8.93945,4.13965-9.71972,9.29932h19.43945C237.24268,57.76074,233.64258,54.22119,228.36279,54.22119Z"/><path class="cls-3" d="M289.561,76.48047c-2.94,4.07959-7.14014,6.53955-13.37989,6.53955-12.89941,0-17.459-10.67969-17.459-22.3794,0-11.75927,4.55957-22.439,17.459-22.439,6.06006,0,10.5,2.3999,13.31983,6.54a2.31048,2.31048,0,0,1,.53955,1.49951,2.5996,2.5996,0,0,1-2.63965,2.52,2.50994,2.50994,0,0,1-2.04-1.07959c-1.85986-2.70019-4.61963-4.32031-9.17969-4.32031-8.51953,0-12.29931,6.2998-12.29931,17.27929,0,10.98,3.77978,17.2793,12.29931,17.2793,4.56006,0,7.31983-1.73974,9.17969-4.37939a2.42475,2.42475,0,0,1,2.04-1.14014,2.52517,2.52517,0,0,1,2.16016,4.08008Z"/><path class="cls-3" d="M323.58008,82a5.8386,5.8386,0,0,1-5.33985-3.41992A13.74707,13.74707,0,0,1,307.68066,83.02c-9.77978,0-15.05908-8.03955-15.05908-16.97949,0-8.93946,5.39942-16.91944,15.05908-16.91944a13.25976,13.25976,0,0,1,9.89991,3.96v-.23974a2.47531,2.47531,0,0,1,2.51953-2.7002,2.41188,2.41188,0,0,1,2.64013,2.52V75.82031a.97116.97116,0,0,0,.83985,1.08008,2.55,2.55,0,1,1,0,5.09961ZM307.68066,54.22119c-5.99951,0-9.89941,4.67969-9.89941,11.81934,0,7.1997,3.8999,11.87939,9.89941,11.87939,6.06006,0,9.89991-4.67969,9.89991-11.87939C317.58057,58.90088,313.74072,54.22119,307.68066,54.22119Z"/><path class="cls-3" d="M354.11963,82a2.42356,2.42356,0,0,1-2.52-2.52V62.80078a8.54961,8.54961,0,1,0-17.09912,0V79.41992a2.55035,2.55035,0,0,1-2.64014,2.64014A2.47164,2.47164,0,0,1,329.34082,79.48V52.66113a2.38663,2.38663,0,0,1,2.51953-2.52,2.50859,2.50859,0,0,1,2.58008,1.98,13.70265,13.70265,0,0,1,22.25928,10.67969V79.41992A2.45407,2.45407,0,0,1,354.11963,82Z"/><path class="cls-3" d="M393.35889,82H377.21973a2.7295,2.7295,0,0,1-2.63965-2.52V41.86182a2.51066,2.51066,0,0,1,2.51953-2.58008H391.979a11.25527,11.25527,0,0,1,11.21973,11.09961,10.80053,10.80053,0,0,1-3.41992,7.97949,12.41078,12.41078,0,0,1,6.2998,10.91943A12.80382,12.80382,0,0,1,393.35889,82ZM391.979,44.38135H379.73975V56.501H391.979a6.05982,6.05982,0,1,0,0-12.11963Zm1.37989,17.21924H379.73975v15.2998h13.61914a7.65043,7.65043,0,0,0,0-15.2998Z"/><path class="cls-3" d="M435.958,68.68066H413.75879c.84033,5.63965,4.43994,9.23926,9.71973,9.23926a9.00529,9.00529,0,0,0,7.13964-3.11963,2.48352,2.48352,0,0,1,1.85987-.96,2.8,2.8,0,0,1,2.70019,2.64014c0,.71973-.18017,1.25976-1.43994,2.51953a14.62152,14.62152,0,0,1-10.25976,4.02c-9.65967,0-15.05909-7.98-15.05909-16.97949,0-8.93946,5.39942-16.91944,15.05909-16.91944,9.77978,0,14.99951,7.98,14.99951,16.91944A2.55832,2.55832,0,0,1,435.958,68.68066ZM423.47852,54.22119c-5.63965,0-8.93946,4.13965-9.71973,9.29932h19.43945C432.3584,57.76074,428.7583,54.22119,423.47852,54.22119Z"/><path class="cls-3" d="M471.29736,83.02c-13.19922,0-17.459-11.09961-17.459-22.3794,0-11.5791,4.55957-22.439,17.459-22.439,5.46,0,10.01953,1.91992,13.31983,6.54a2.5569,2.5569,0,0,1,.53955,1.49951,2.87288,2.87288,0,0,1-2.87988,2.58008c-1.07959,0-1.19971-.48-2.15967-1.56006-1.91992-2.33984-4.5-3.8999-8.81983-3.8999-9.23925,0-12.29931,7.85986-12.29931,17.27929,0,8.21973,2.21972,17.2793,12.29931,17.2793,7.31983,0,11.69971-5.21972,12.11963-13.85937h-5.3999a2.50118,2.50118,0,0,1-2.63965-2.57959,2.47134,2.47134,0,0,1,2.52-2.58008h8.21924a2.51991,2.51991,0,0,1,2.64014,2.64014C488.51709,72.76025,484.01709,83.02,471.29736,83.02Z"/><path class="cls-3" d="M506.81689,54.22119a8.64383,8.64383,0,0,0-8.51953,8.57959V79.41992A2.50087,2.50087,0,0,1,495.65723,82a2.45632,2.45632,0,0,1-2.51953-2.52V52.72119a2.54122,2.54122,0,0,1,2.51953-2.58008,2.46273,2.46273,0,0,1,2.58007,2.04,13.87509,13.87509,0,0,1,8.57959-3.06006,2.55159,2.55159,0,1,1,0,5.1001Z"/><path class="cls-3" d="M524.21631,83.02c-9.65967,0-15.05957-7.91992-15.05957-16.97949,0-8.99951,5.3999-16.91944,15.05957-16.91944s15.05957,7.91993,15.05957,16.91944C539.27588,75.1001,533.876,83.02,524.21631,83.02Zm0-28.79883c-5.99951,0-9.89942,4.67969-9.89942,11.81934,0,7.1997,3.89991,11.87939,9.89942,11.87939,6.05957,0,9.89941-4.67969,9.89941-11.87939C534.11572,58.90088,530.27588,54.22119,524.21631,54.22119Z"/><path class="cls-3" d="M583.91455,53.561,574.61523,79.8999A2.72667,2.72667,0,0,1,571.9751,82c-1.25977,0-1.97949-.54-2.51953-2.1001l-7.02-19.79883L555.356,79.8999a2.59791,2.59791,0,0,1-5.09961,0L541.0166,53.561a2.63958,2.63958,0,0,1-.12012-.96,2.58464,2.58464,0,0,1,2.64014-2.46,2.37828,2.37828,0,0,1,2.33984,1.68018l6.95948,20.03906,7.07959-19.61914c.48047-1.37988,1.08008-2.1001,2.52-2.1001,1.31982,0,2.04.66016,2.52,2.1001l7.01953,19.61914,7.02-20.03906a2.359,2.359,0,0,1,2.27978-1.68018,2.66639,2.66639,0,0,1,2.75977,2.52A2.48405,2.48405,0,0,1,583.91455,53.561Z"/><path class="cls-3" d="M611.75537,82a2.42369,2.42369,0,0,1-2.52051-2.52V62.80078a8.54961,8.54961,0,1,0-17.09912,0V79.41992a2.55061,2.55061,0,0,1-2.64013,2.64014A2.47164,2.47164,0,0,1,586.97607,79.48V52.66113a2.38663,2.38663,0,0,1,2.51954-2.52,2.50858,2.50858,0,0,1,2.58007,1.98,13.70228,13.70228,0,0,1,22.25879,10.67969V79.41992A2.45331,2.45331,0,0,1,611.75537,82Z"/><path class="cls-3" d="M634.9751,45.28125a4.31983,4.31983,0,1,1,4.31933-4.31934A4.30186,4.30186,0,0,1,634.9751,45.28125Zm0,36.71875a2.5197,2.5197,0,0,1-2.63965-2.52V52.72119a2.53289,2.53289,0,0,1,2.63965-2.58008,2.47164,2.47164,0,0,1,2.51953,2.58008V79.48A2.42054,2.42054,0,0,1,634.9751,82Z"/><path class="cls-3" d="M668.63232,82a2.42345,2.42345,0,0,1-2.51953-2.52V62.80078a8.54986,8.54986,0,1,0-17.09961,0V79.41992a2.55022,2.55022,0,0,1-2.63964,2.64014A2.47164,2.47164,0,0,1,643.854,79.48V52.66113a2.38663,2.38663,0,0,1,2.51954-2.52,2.50858,2.50858,0,0,1,2.58007,1.98A13.70228,13.70228,0,0,1,671.2124,62.80078V79.41992A2.45356,2.45356,0,0,1,668.63232,82Z"/><path class="cls-3" d="M701.273,83.02c-4.37988,0-10.5-1.79981-13.91992-4.98a2.39851,2.39851,0,0,1-.83985-1.85986,2.5987,2.5987,0,0,1,2.58008-2.57959c.89942,0,1.2002.2998,2.2793,1.13964a16.24344,16.24344,0,0,0,9.90039,3.17969c7.13965,0,10.25879-2.57959,10.25879-7.01953,0-12.47949-23.93848-5.3999-23.93848-21.71924,0-7.31933,6.17969-10.97949,14.09961-10.97949,4.13965,0,10.0791,1.62012,13.01953,5.1001a2.36543,2.36543,0,0,1,.65918,1.61963,2.79411,2.79411,0,0,1-2.5791,2.70019c-.90039,0-1.37988-.42041-2.40039-1.32031a13.1805,13.1805,0,0,0-8.69922-2.93994c-6.48047,0-8.93945,2.58008-8.93945,5.81982,0,11.21973,23.93847,4.56006,23.93847,21.71924C716.69189,79.83984,709.19189,83.02,701.273,83.02Z"/><path class="cls-3" d="M749.812,82a5.83608,5.83608,0,0,1-5.33984-3.41992A13.74784,13.74784,0,0,1,733.9126,83.02c-9.78028,0-15.05957-8.03955-15.05957-16.97949,0-8.93946,5.39941-16.91944,15.05957-16.91944a13.25859,13.25859,0,0,1,9.89941,3.96v-.23974a2.47563,2.47563,0,0,1,2.51953-2.7002,2.41173,2.41173,0,0,1,2.63965,2.52V75.82031a.97111.97111,0,0,0,.84082,1.08008,2.55,2.55,0,1,1,0,5.09961ZM733.9126,54.22119c-6,0-9.90039,4.67969-9.90039,11.81934,0,7.1997,3.90039,11.87939,9.90039,11.87939,6.05957,0,9.89941-4.67969,9.89941-11.87939C743.812,58.90088,739.97217,54.22119,733.9126,54.22119Z"/><path class="cls-3" d="M761.2124,82.12012a6.12175,6.12175,0,0,1-6-6.12012V41.86182a2.58043,2.58043,0,0,1,5.16016-.06006V76a.94718.94718,0,0,0,.83984,1.02,2.55023,2.55023,0,1,1,0,5.1001Z"/><path class="cls-3" d="M776.9917,82h-1.02051c-5.69922,0-7.85937-3-7.85937-7.91992V55.24121H766.312a2.55023,2.55023,0,0,1-.06055-5.1001h1.80079V41.80176a2.43578,2.43578,0,0,1,2.5791-2.52,2.38982,2.38982,0,0,1,2.52051,2.52v8.33935h3.83984a2.48743,2.48743,0,0,1,2.51953,2.52,2.44066,2.44066,0,0,1-2.51953,2.58008h-3.83984V74.62012c0,1.68017.5996,2.28027,2.27929,2.28027h1.5a2.47468,2.47468,0,0,1,2.58008,2.51953A2.44066,2.44066,0,0,1,776.9917,82Z"/><path class="cls-3" d="M808.48975,53.74121,792.29053,90.57959a6.87622,6.87622,0,0,1-6.59961,4.02H783.771a2.41972,2.41972,0,0,1-2.51954-2.64014,2.38632,2.38632,0,0,1,2.51954-2.52h1.86035a1.89429,1.89429,0,0,0,1.97949-.96l3.96-8.87939L779.87158,53.74121a2.165,2.165,0,0,1-.30078-1.14014,2.70559,2.70559,0,0,1,2.76074-2.52,2.30849,2.30849,0,0,1,2.15918,1.56006L794.271,73.36035l9.53906-21.71924a2.37554,2.37554,0,0,1,2.21973-1.5,2.65922,2.65922,0,0,1,2.75976,2.46A2.03464,2.03464,0,0,1,808.48975,53.74121Z"/><path class="cls-3" d="M867.46924,42.46143,857.56982,79.8999a2.27767,2.27767,0,0,1-2.46,2.1001,2.54235,2.54235,0,0,1-2.58007-2.1001l-8.09961-28.73877-8.04,28.73877A2.48326,2.48326,0,0,1,833.87061,82a2.40494,2.40494,0,0,1-2.52051-2.1001l-9.89942-37.43847a3.55757,3.55757,0,0,1-.12011-.83985,2.50417,2.50417,0,0,1,2.70019-2.33984,2.452,2.452,0,0,1,2.40039,1.85986l7.55957,28.61914,7.91895-28.3789a2.5985,2.5985,0,0,1,5.10058,0l7.91895,28.3789,7.56055-28.61914a2.6688,2.6688,0,0,1,2.459-1.98,2.54775,2.54775,0,0,1,2.64063,2.46A3.55755,3.55755,0,0,1,867.46924,42.46143Z"/><path class="cls-3" d="M900.34912,82a5.83608,5.83608,0,0,1-5.33984-3.41992A13.74785,13.74785,0,0,1,884.44971,83.02c-9.78028,0-15.05957-8.03955-15.05957-16.97949,0-8.93946,5.39941-16.91944,15.05957-16.91944a13.25859,13.25859,0,0,1,9.89941,3.96v-.23974a2.47563,2.47563,0,0,1,2.51953-2.7002,2.41173,2.41173,0,0,1,2.63965,2.52V75.82031a.97111.97111,0,0,0,.84082,1.08008,2.55,2.55,0,1,1,0,5.09961ZM884.44971,54.22119c-6,0-9.90039,4.67969-9.90039,11.81934,0,7.1997,3.90039,11.87939,9.90039,11.87939,6.05957,0,9.89941-4.67969,9.89941-11.87939C894.34912,58.90088,890.50928,54.22119,884.44971,54.22119Z"/><path class="cls-3" d="M916.24951,82H915.229c-5.69921,0-7.85937-3-7.85937-7.91992V55.24121h-1.79981a2.55023,2.55023,0,0,1-.06054-5.1001h1.80078V41.80176a2.43578,2.43578,0,0,1,2.5791-2.52,2.38982,2.38982,0,0,1,2.52051,2.52v8.33935h3.83984a2.48743,2.48743,0,0,1,2.51953,2.52,2.44066,2.44066,0,0,1-2.51953,2.58008h-3.83984V74.62012c0,1.68017.59961,2.28027,2.27929,2.28027h1.5a2.47468,2.47468,0,0,1,2.58008,2.51953A2.44066,2.44066,0,0,1,916.24951,82Z"/><path class="cls-3" d="M947.92822,68.68066H925.729c.83985,5.63965,4.43946,9.23926,9.71973,9.23926a9.00666,9.00666,0,0,0,7.13965-3.11963,2.48257,2.48257,0,0,1,1.85937-.96,2.8,2.8,0,0,1,2.7002,2.64014c0,.71973-.17969,1.25976-1.44043,2.51953a14.61752,14.61752,0,0,1-10.25879,4.02c-9.66016,0-15.05957-7.98-15.05957-16.97949,0-8.93946,5.39941-16.91944,15.05957-16.91944,9.7793,0,14.999,7.98,14.999,16.91944A2.55823,2.55823,0,0,1,947.92822,68.68066ZM935.44873,54.22119c-5.64062,0-8.94043,4.13965-9.71973,9.29932h19.43848C944.32764,57.76074,940.728,54.22119,935.44873,54.22119Z"/><path class="cls-3" d="M968.2085,54.22119a8.64434,8.64434,0,0,0-8.52051,8.57959V79.41992A2.50074,2.50074,0,0,1,957.04834,82a2.45632,2.45632,0,0,1-2.51953-2.52V52.72119a2.54122,2.54122,0,0,1,2.51953-2.58008,2.46306,2.46306,0,0,1,2.58008,2.04,13.87433,13.87433,0,0,1,8.58008-3.06006,2.55158,2.55158,0,1,1,0,5.1001Z"/><g class="cls-2"><path class="cls-3" d="M338.20166,105.07617h-7.37109v23.86035A1.04654,1.04654,0,0,1,329.729,130a1.0351,1.0351,0,0,1-1.06445-1.06348V105.07617h-7.37012a1.06464,1.06464,0,1,1,0-2.12793h16.90723a1.064,1.064,0,0,1,0,2.12793Z"/><path class="cls-3" d="M347.62158,130.64551c-6.11719,0-9.53613-5.01465-9.53613-10.752,0-5.69921,3.41894-10.71484,9.53613-10.71484s9.53711,5.01563,9.53711,10.71484C357.15869,125.63086,353.73877,130.64551,347.62158,130.64551Zm0-19.30078c-4.4834,0-7.37109,3.60937-7.37109,8.54882s2.88769,8.58692,7.37109,8.58692c4.52149,0,7.3711-3.64746,7.3711-8.58692S352.14307,111.34473,347.62158,111.34473Z"/><path class="cls-3" d="M377.18408,130a1.068,1.068,0,0,1-1.10156-1.06348V117.8418a6.49707,6.49707,0,1,0-12.99414,0v11.09472a1.08319,1.08319,0,0,1-2.166,0V110.88867a1.08319,1.08319,0,0,1,2.166,0v1.21582a8.66731,8.66731,0,0,1,15.16016,5.73731v11.09472A1.05948,1.05948,0,0,1,377.18408,130Z"/><path class="cls-3" d="M398.80615,130a1.068,1.068,0,0,1-1.10156-1.06348V117.8418a6.49707,6.49707,0,1,0-12.99414,0v11.09472a1.08319,1.08319,0,0,1-2.166,0V110.88867a1.08319,1.08319,0,0,1,2.166,0v1.21582a8.66731,8.66731,0,0,1,15.16016,5.73731v11.09472A1.05948,1.05948,0,0,1,398.80615,130Z"/><path class="cls-3" d="M421.30127,120.99512H405.53369c.3418,4.332,3.15332,7.48535,7.29492,7.48535a6.866,6.866,0,0,0,5.585-2.62207.99715.99715,0,0,1,.91211-.53125,1.16053,1.16053,0,0,1,1.17774,1.02539c0,.3418,0,.418-.72168,1.25391a8.96945,8.96945,0,0,1-6.95313,3.03906c-6.11718,0-9.53613-5.01465-9.53613-10.752,0-5.69921,3.41895-10.71484,9.53613-10.71484s9.53711,5.05371,9.53711,10.71484A1.14979,1.14979,0,0,1,421.30127,120.99512Zm-8.47266-9.65039c-4.55957,0-6.95312,3.49511-7.29492,7.48535h14.62793C419.81982,114.49805,417.0083,111.34473,412.82861,111.34473Z"/><path class="cls-3" d="M432.4751,130.72168c-2.28028,0-6.11719-.79785-7.44727-3.001a.92155.92155,0,0,1-.15137-.57031,1.0362,1.0362,0,0,1,1.9375-.60742c1.36719,1.6709,3.79883,2.01367,5.66114,2.01367,3.68554,0,5.54687-1.21582,5.54687-3.68555,0-5.7373-12.46191-2.69824-12.46191-10.29687,0-3.83692,3.83691-5.31934,7.29492-5.31934,1.97559,0,5.01563.68457,6.53516,2.2041a1.06411,1.06411,0,0,1,.34179.72168,1.23152,1.23152,0,0,1-1.17773,1.13965,1.00574,1.00574,0,0,1-.72168-.30371,7.59923,7.59923,0,0,0-4.97754-1.5957c-3.34375,0-5.12891,1.292-5.12891,3.15332,0,5.31933,12.46192,2.50781,12.46192,10.29687C440.188,129.20215,436.38818,130.72168,432.4751,130.72168Z"/><path class="cls-3" d="M468.34521,111.34473l-10.29687,24.35449c-.75977,1.78613-2.31738,2.2793-4.06445,2.2793H452.312a1.08267,1.08267,0,0,1,0-2.165h1.67188c.835,0,1.709-.03809,2.05078-.91211l2.166-5.167-7.86523-18.38965a1.22016,1.22016,0,0,1-.0752-.49414,1.06232,1.06232,0,0,1,1.10157-1.02539.97617.97617,0,0,1,.95019.6455l7.06641,16.49024,6.99121-16.49024a.98924.98924,0,0,1,.9873-.6455,1.0302,1.0302,0,0,1,1.06446,1.02539A1.20579,1.20579,0,0,1,468.34521,111.34473Z"/><path class="cls-3" d="M472.48975,106.17773a2.166,2.166,0,1,1,2.165-2.166A2.14145,2.14145,0,0,1,472.48975,106.17773Zm0,23.82227a1.04461,1.04461,0,0,1-1.10254-1.06348V110.88867a1.04679,1.04679,0,0,1,1.10254-1.06347,1.03432,1.03432,0,0,1,1.06347,1.06347v18.04785A1.01623,1.01623,0,0,1,472.48975,130Z"/><path class="cls-3" d="M495.32471,120.99512H479.55713c.3418,4.332,3.15332,7.48535,7.29492,7.48535a6.866,6.866,0,0,0,5.585-2.62207.99713.99713,0,0,1,.91211-.53125,1.16054,1.16054,0,0,1,1.17774,1.02539c0,.3418,0,.418-.72168,1.25391a8.96945,8.96945,0,0,1-6.95313,3.03906c-6.11719,0-9.53613-5.01465-9.53613-10.752,0-5.69921,3.41894-10.71484,9.53613-10.71484s9.53711,5.05371,9.53711,10.71484A1.1498,1.1498,0,0,1,495.32471,120.99512Zm-8.47266-9.65039c-4.55957,0-6.95312,3.49511-7.29492,7.48535h14.62793C493.84326,114.49805,491.03174,111.34473,486.85205,111.34473Z"/><path class="cls-3" d="M503.91357,130.22754a3.98179,3.98179,0,0,1-3.76171-4.02734V104.01172a1.08318,1.08318,0,0,1,2.166,0V126.2002c0,2.43164,2.69727,1.02636,2.69727,2.73632A1.22412,1.22412,0,0,1,503.91357,130.22754Z"/><path class="cls-3" d="M524.84912,130a1.068,1.068,0,0,1-1.10156-1.06348v-1.90039a8.61906,8.61906,0,0,1-7.3711,3.60938c-6.11718,0-9.53613-5.01465-9.53613-10.752,0-5.69921,3.41895-10.71484,9.53613-10.71484a8.68614,8.68614,0,0,1,7.3711,3.57227v-8.73926a1.08318,1.08318,0,0,1,2.166,0v24.9248A1.05947,1.05947,0,0,1,524.84912,130Zm-8.47266-18.65527c-4.48339,0-7.37109,3.60937-7.37109,8.54882s2.8877,8.58692,7.37109,8.58692c4.52149,0,7.3711-3.64746,7.3711-8.58692S520.898,111.34473,516.37646,111.34473Z"/><path class="cls-3" d="M547.687,120.99512H531.91943c.3418,4.332,3.15332,7.48535,7.29493,7.48535a6.866,6.866,0,0,0,5.585-2.62207.99713.99713,0,0,1,.91211-.53125,1.16053,1.16053,0,0,1,1.17773,1.02539c0,.3418,0,.418-.72168,1.25391a8.96944,8.96944,0,0,1-6.95312,3.03906c-6.11719,0-9.53614-5.01465-9.53614-10.752,0-5.69921,3.41895-10.71484,9.53614-10.71484s9.5371,5.05371,9.5371,10.71484A1.14979,1.14979,0,0,1,547.687,120.99512Zm-8.47265-9.65039c-4.55957,0-6.95313,3.49511-7.29493,7.48535h14.62793C546.20557,114.49805,543.394,111.34473,539.21436,111.34473Z"/><path class="cls-3" d="M569.65088,130a1.06738,1.06738,0,0,1-1.10156-1.06348v-1.90039a8.61907,8.61907,0,0,1-7.3711,3.60938c-6.11718,0-9.53613-5.01465-9.53613-10.752,0-5.69921,3.41895-10.71484,9.53613-10.71484a8.68616,8.68616,0,0,1,7.3711,3.57227v-8.73926a1.08318,1.08318,0,0,1,2.166,0v24.9248A1.05947,1.05947,0,0,1,569.65088,130Zm-8.47266-18.65527c-4.4834,0-7.37109,3.60937-7.37109,8.54882s2.88769,8.58692,7.37109,8.58692c4.52149,0,7.3711-3.64746,7.3711-8.58692S565.69971,111.34473,561.17822,111.34473Z"/><path class="cls-3" d="M593.43994,130.64551a8.61905,8.61905,0,0,1-7.37109-3.60938V136.877a1.08317,1.08317,0,1,1-2.166,0V110.88867a1.08319,1.08319,0,0,1,2.166,0V112.751a8.68614,8.68614,0,0,1,7.37109-3.57227c6.11719,0,9.53613,5.01563,9.53613,10.71484C602.97607,125.63086,599.55713,130.64551,593.43994,130.64551Zm0-19.30078c-4.52148,0-7.37109,3.60937-7.37109,8.54882s2.84961,8.58692,7.37109,8.58692,7.3711-3.64746,7.3711-8.58692S597.96143,111.34473,593.43994,111.34473Z"/><path class="cls-3" d="M623.87646,120.99512H608.10889c.34179,4.332,3.15332,7.48535,7.29492,7.48535a6.866,6.866,0,0,0,5.585-2.62207.99713.99713,0,0,1,.91211-.53125,1.16053,1.16053,0,0,1,1.17773,1.02539c0,.3418,0,.418-.72168,1.25391a8.96942,8.96942,0,0,1-6.95312,3.03906c-6.11719,0-9.53613-5.01465-9.53613-10.752,0-5.69921,3.41894-10.71484,9.53613-10.71484s9.53711,5.05371,9.53711,10.71484A1.1498,1.1498,0,0,1,623.87646,120.99512Zm-8.47265-9.65039c-4.55957,0-6.95313,3.49511-7.29492,7.48535h14.62793C622.395,114.49805,619.5835,111.34473,615.40381,111.34473Z"/><path class="cls-3" d="M637.3667,111.68652a6.49437,6.49437,0,0,0-6.49707,6.49707v10.75293a1.08319,1.08319,0,0,1-2.166,0V110.88867a1.08319,1.08319,0,0,1,2.166,0v1.55762a8.676,8.676,0,0,1,6.49707-2.92481,1.08269,1.08269,0,1,1,0,2.165Z"/><path class="cls-3" d="M665.29443,130a1.068,1.068,0,0,1-1.10156-1.06348V117.8418a6.49707,6.49707,0,1,0-12.99414,0v11.09472a1.08319,1.08319,0,0,1-2.166,0v-24.9248a1.08319,1.08319,0,0,1,2.166,0v8.09277a8.44044,8.44044,0,0,1,6.49707-2.92578,8.73383,8.73383,0,0,1,8.66309,8.66309v11.09472A1.05948,1.05948,0,0,1,665.29443,130Z"/><path class="cls-3" d="M687.79053,120.99512H672.023c.3418,4.332,3.15332,7.48535,7.29492,7.48535a6.866,6.866,0,0,0,5.585-2.62207.99713.99713,0,0,1,.91211-.53125,1.16054,1.16054,0,0,1,1.17774,1.02539c0,.3418,0,.418-.72168,1.25391a8.96945,8.96945,0,0,1-6.95313,3.03906c-6.11719,0-9.53613-5.01465-9.53613-10.752,0-5.69921,3.41894-10.71484,9.53613-10.71484s9.53711,5.05371,9.53711,10.71484A1.1498,1.1498,0,0,1,687.79053,120.99512Zm-8.47266-9.65039c-4.55957,0-6.95312,3.49511-7.29492,7.48535h14.62793C686.30908,114.49805,683.49756,111.34473,679.31787,111.34473Z"/><path class="cls-3" d="M708.08252,127.75879a8.82525,8.82525,0,0,1-6.80078,2.88672c-6.11719,0-9.53613-5.01465-9.53613-10.752,0-5.69921,3.41894-10.71484,9.53613-10.71484a8.826,8.826,0,0,1,6.80078,2.8877,1.00615,1.00615,0,0,1,.30469.72168,1.19141,1.19141,0,0,1-1.10254,1.14062,1.12258,1.12258,0,0,1-.79785-.37988,6.69625,6.69625,0,0,0-5.20508-2.2041c-4.4834,0-7.3711,3.60937-7.3711,8.54882s2.8877,8.58692,7.3711,8.58692a6.82593,6.82593,0,0,0,5.20508-2.2041,1.07868,1.07868,0,0,1,1.90039.72168A1.08909,1.08909,0,0,1,708.08252,127.75879Z"/><path class="cls-3" d="M719.14111,130h-1.17773c-3.001,0-4.4834-1.48145-4.4834-4.44531V111.99023h-1.9375a1.08268,1.08268,0,0,1,0-2.165H713.48v-5.81348a1.06819,1.06819,0,0,1,1.10254-1.06348,1.037,1.037,0,0,1,1.06348,1.06348v5.81348h3.49511a1.08267,1.08267,0,0,1,0,2.165H715.646v13.56446c0,1.86133.53222,2.27929,2.31738,2.27929h1.17773a1.08317,1.08317,0,0,1,0,2.166Z"/><path class="cls-3" d="M742.73779,130h-.03808a3.93333,3.93333,0,0,1-3.76172-2.96387,8.61906,8.61906,0,0,1-7.3711,3.60938c-6.19335,0-9.53613-5.09082-9.53613-10.752,0-5.7373,3.41895-10.71484,9.53613-10.71484a8.68614,8.68614,0,0,1,7.3711,3.57227v-1.86231a1.07087,1.07087,0,0,1,1.10156-1.06347,1.03727,1.03727,0,0,1,1.06445,1.06347V126.2002c0,2.43164,2.73536.9121,2.73536,2.73632A1.045,1.045,0,0,1,742.73779,130Zm-11.1709-18.65527c-4.48339,0-7.37109,3.60937-7.37109,8.54882s2.8877,8.58692,7.37109,8.58692c4.52149,0,7.3711-3.64746,7.3711-8.58692S736.08838,111.34473,731.56689,111.34473Z"/><path class="cls-3" d="M755.20264,111.68652a6.49437,6.49437,0,0,0-6.49707,6.49707v10.75293a1.08319,1.08319,0,0,1-2.166,0V110.88867a1.08319,1.08319,0,0,1,2.166,0v1.55762a8.676,8.676,0,0,1,6.49707-2.92481,1.08269,1.08269,0,1,1,0,2.165Z"/><path class="cls-3" d="M774.57373,120.99512H758.80615c.3418,4.332,3.15332,7.48535,7.29492,7.48535a6.866,6.866,0,0,0,5.585-2.62207.99712.99712,0,0,1,.9121-.53125,1.16053,1.16053,0,0,1,1.17774,1.02539c0,.3418,0,.418-.72168,1.25391a8.96945,8.96945,0,0,1-6.95313,3.03906c-6.11718,0-9.53613-5.01465-9.53613-10.752,0-5.69921,3.41895-10.71484,9.53613-10.71484s9.53711,5.05371,9.53711,10.71484A1.14979,1.14979,0,0,1,774.57373,120.99512Zm-8.47266-9.65039c-4.55957,0-6.95312,3.49511-7.29492,7.48535h14.62793C773.09229,114.49805,770.28076,111.34473,766.10107,111.34473Z"/></g></g></svg>