<svg xmlns="http://www.w3.org/2000/svg" xmlns:xlink="http://www.w3.org/1999/xlink" viewBox="0 0 1080 1080"><style><![CDATA[.S{fill:#fff}.T{clip-path:url(#d)}.U{stroke-miterlimit:10}]]></style><linearGradient id="A" gradientUnits="userSpaceOnUse" x1="11.716" y1="11.716" x2="1068.284" y2="1068.284"><stop offset="0" stop-color="#0073b0"/><stop offset=".021" stop-color="#006ab0"/><stop offset=".031" stop-color="#0063b0"/><stop offset=".229" stop-color="#006db5"/><stop offset=".567" stop-color="#0088c4"/><stop offset="1" stop-color="#00b4db"/></linearGradient><path d="M1040 1080H40c-22.09 0-40-17.91-40-40V40C0 17.91 17.91 0 40 0h1000c22.09 0 40 17.91 40 40v1000c0 22.09-17.91 40-40 40z" fill="url(#A)"/><g opacity=".8" class="S"><use xlink:href="#C"/><use xlink:href="#D"/><use xlink:href="#E"/><use xlink:href="#F"/><use xlink:href="#G"/><use xlink:href="#H"/><use xlink:href="#C" x="62.5"/><path d="M719.644 1039.416c-.64 0-1.16-.5-1.16-1.14s.52-1.14 1.16-1.14c.62 0 1.12.5 1.12 1.14s-.5 1.14-1.12 1.14zm0 6.563c-.64 0-1.16-.5-1.16-1.14s.52-1.14 1.16-1.14c.62 0 1.12.5 1.12 1.14s-.5 1.14-1.12 1.14zm18.2.001h-8.882a.61.61 0 0 1-.58-.561v-13.123c0-.3.28-.56.58-.56h8.882a.55.55 0 0 1 .58.561.55.55 0 0 1-.58.561h-8.32v4.92h6.1a.55.55 0 0 1 .58.561c0 .28-.2.58-.56.58h-6.12v5.922h8.32c.38 0 .58.3.58.58a.55.55 0 0 1-.58.561z"/><use xlink:href="#E" x="72.74"/><use xlink:href="#F" x="72.741"/><use xlink:href="#D" x="103.079"/><use xlink:href="#I"/><use xlink:href="#H" x="86.418"/><use xlink:href="#J"/><use xlink:href="#K"/><path d="M831.042 1039.816h-4.86v5.602c0 .36-.3.56-.56.56-.28 0-.58-.2-.58-.56v-13.123c0-.3.28-.56.58-.56h5.4c2.26 0 4.06 1.8 4.06 4.02 0 2.26-1.8 4.06-4.04 4.06zm0-6.96h-4.86v5.82h4.84c1.62 0 2.92-1.28 2.92-2.9s-1.3-2.92-2.9-2.92z"/><use xlink:href="#J" x="42.279"/><use xlink:href="#I" x="79.499"/><use xlink:href="#H" x="165.917"/><use xlink:href="#F" x="195.178"/><path d="M895.963 1045.998c-.16 0-.32-.08-.42-.24l-4.302-5.94h-3.58v5.602c0 .36-.3.56-.56.56-.28 0-.58-.2-.58-.56v-13.123c0-.3.28-.56.58-.56h5.4c2.26 0 4.06 1.8 4.06 4.02 0 2.2-1.72 3.94-3.9 4.06l3.78 5.242c.1.12.14.24.14.36 0 .3-.3.58-.62.58zm-3.44-13.143h-4.86v5.82h4.84a2.91 2.91 0 0 0 2.921-2.92c0-1.82-1.54-2.9-2.9-2.9zm15.78 8.38H900c.18 2.28 1.66 3.94 3.84 3.94 1.08 0 2.36-.48 2.94-1.38.14-.22.3-.28.48-.28.3 0 .62.24.62.54 0 .18 0 .22-.38.658-.92 1.082-2.26 1.602-3.66 1.602-3.22 0-5.02-2.64-5.02-5.662 0-3 1.8-5.64 5.02-5.64s5.02 2.66 5.02 5.64c0 .3-.28.58-.56.58zm-4.46-5.08c-2.4 0-3.66 1.84-3.84 3.94h7.7c-.18-2.28-1.66-3.94-3.86-3.94z"/><use xlink:href="#G" x="224.797"/><path d="M930.563 1036.156l-5.42 12.822c-.4.94-1.22 1.2-2.14 1.2h-.88c-.36 0-.56-.3-.56-.58 0-.262.2-.56.56-.56h.88c.44 0 .9-.02 1.08-.48l1.14-2.72-4.142-9.682c-.04-.1-.04-.18-.04-.26 0-.32.28-.54.58-.54.18 0 .4.08.5.34l3.722 8.682 3.68-8.682a.52.52 0 0 1 .52-.34c.3 0 .56.22.56.54 0 .08 0 .16-.04.26z"/><use xlink:href="#G" x="245.555"/><use xlink:href="#L"/><use xlink:href="#M"/><use xlink:href="#K" x="142.697"/><path d="M967.4 1050.54c-1.7 0-4.102-.64-4.102-1.36 0-.32.26-.64.58-.64.22 0 .68.34 1.06.48.52.18 1.34.38 2.46.38 2.56 0 3.88-1.26 3.88-3.72v-1.4c-.88 1.06-2.14 1.7-3.88 1.7-3.16 0-5.02-2.24-5.02-5.322 0-3 1.8-5.64 5.02-5.64 1.74 0 3.04.72 3.88 1.88v-.96c0-.36.3-.56.58-.56.26 0 .56.2.56.56v9.742c0 3.182-1.9 4.86-5.02 4.86zm0-14.383c-2.36 0-3.88 1.9-3.88 4.5 0 2.582 1.42 4.182 3.88 4.182s3.88-1.6 3.88-4.182c0-2.6-1.5-4.5-3.88-4.5zm22.7 7.98c-.98 1.36-2.38 2.182-4.46 2.182-4.3 0-5.82-3.56-5.82-7.46 0-3.922 1.52-7.482 5.82-7.482 2.02 0 3.5.8 4.44 2.18.1.102.12.2.12.32 0 .32-.3.56-.62.56a.53.53 0 0 1-.44-.22c-.72-1.04-1.8-1.7-3.5-1.7-3.32 0-4.682 2.6-4.682 6.342 0 3.72 1.36 6.32 4.682 6.32 1.7 0 2.8-.64 3.54-1.7.1-.2.28-.26.44-.26.3 0 .6.26.6.58a.63.63 0 0 1-.12.34z"/><use xlink:href="#D" x="336.275"/><path d="M1012.72 1045.98c-.28 0-.58-.2-.58-.56v-.64c-.84.98-2.06 1.54-3.42 1.54-2.48 0-4.56-2.08-4.56-4.56v-5.842c0-.36.3-.56.58-.56.26 0 .56.2.56.56v5.842c0 1.9 1.52 3.42 3.42 3.42s3.42-1.52 3.42-3.42v-5.842c0-.36.3-.56.58-.56.26 0 .56.2.56.56v9.502a.56.56 0 0 1-.561.561z"/><use xlink:href="#K" x="207.757"/><use xlink:href="#G" x="341.455"/><use xlink:href="#M" x="91.52"/><use xlink:href="#L" x="99.88"/></g><g opacity=".6" class="S"><use xlink:href="#N"/><path d="M943.208 681.98h-.028c-.924 0-2.24-.504-2.77-2.184-1.177 1.65-2.996 2.66-5.433 2.66-4.563 0-7.027-3.752-7.027-7.924 0-4.228 2.52-7.896 7.027-7.896 2.437 0 4.256 1.008 5.433 2.632v-1.372c0-.448.363-.784.812-.784.393 0 .784.28.784.784v11.284c0 1.792 2.016.672 2.016 2.016a.77.77 0 0 1-.812.784zm-8.232-13.748c-3.304 0-5.432 2.66-5.432 6.3s2.128 6.328 5.432 6.328c3.332 0 5.433-2.687 5.433-6.328s-2.1-6.3-5.433-6.3zm17.424.25c-2.632 0-4.788 2.128-4.788 4.788v7.924c0 .504-.42.784-.783.784-.393 0-.812-.28-.812-.784v-13.3c0-.504.42-.784.813-.784.363 0 .783.28.783.784v1.148c1.26-1.372 2.912-2.156 4.788-2.156a.81.81 0 0 1 .813.784c0 .392-.3.812-.812.812zm8.67 19.88c-2.38 0-5.74-.896-5.74-1.903 0-.448.363-.896.812-.896.308 0 .952.476 1.484.672.728.252 1.876.532 3.443.532 3.584 0 5.433-1.764 5.433-5.208v-1.96c-1.232 1.483-2.996 2.38-5.433 2.38-4.424 0-7.027-3.136-7.027-7.448 0-4.2 2.52-7.896 7.027-7.896 2.437 0 4.256 1.008 5.433 2.632v-1.344c0-.504.42-.784.812-.784.364 0 .784.28.784.784v13.636c0 4.452-2.66 6.804-7.028 6.804zm0-20.132c-3.304 0-5.432 2.66-5.432 6.3 0 3.612 1.988 5.853 5.432 5.853s5.433-2.24 5.433-5.853c0-3.64-2.1-6.3-5.433-6.3zm23.073 7.113h-11.62c.252 3.2 2.324 5.516 5.376 5.516 1.513 0 3.305-.672 4.116-1.932.196-.3.42-.393.672-.393.42 0 .868.336.868.757 0 .252 0 .308-.532.924-1.288 1.512-3.164 2.24-5.124 2.24-4.508 0-7.027-3.695-7.027-7.924 0-4.2 2.52-7.896 7.027-7.896s7.028 3.724 7.028 7.896c0 .42-.392.813-.784.813zm-6.244-7.112c-3.36 0-5.124 2.576-5.376 5.516h10.78c-.252-3.2-2.324-5.516-5.404-5.516z"/><use xlink:href="#N" x="67.002"/></g><g fill="#2fbadf"><path d="M42.328 1046.045c-3.568 0-5.47-1.97-5.503-2.002 0 .935-.7 1.4-1.468 1.4-.7 0-1.4-.467-1.4-1.4v-20.88a1.35 1.35 0 0 1 1.401-1.434c.767 0 1.468.467 1.468 1.4v6.238c1.334-1.368 3.168-2.17 5.503-2.17 5.37 0 8.373 4.403 8.373 9.406 0 5.037-3.002 9.44-8.373 9.44zm0-16c-3.335 0-5.503 2.602-5.503 6.57 0 4.003 2.168 6.604 5.503 6.604s5.504-2.602 5.504-6.604c0-3.97-2.168-6.57-5.504-6.57zm25.555 8.037h-12.34c.467 3.136 2.468 5.137 5.403 5.137 1.5 0 3.002-.533 3.97-1.734.3-.333.634-.533 1.034-.533.734 0 1.5.667 1.5 1.468 0 .4-.1.7-.8 1.4-1.5 1.468-3.57 2.235-5.704 2.235-5.37 0-8.372-4.437-8.372-9.44 0-4.97 3.002-9.406 8.372-9.406 5.437 0 8.34 4.437 8.34 9.406 0 .734-.534 1.468-1.4 1.468zm-6.937-8.038c-3.136 0-4.97 2.3-5.403 5.17H66.35c-.467-3.202-2.468-5.17-5.403-5.17zM88 1045.478c-1.834 0-2.668-1.3-2.97-1.9-1.334 1.468-3.27 2.47-5.87 2.47-5.437 0-8.372-4.47-8.372-9.44s3.002-9.406 8.372-9.406c2.335 0 4.203.834 5.504 2.202v-.134c0-.367.133-1.5 1.4-1.5.7 0 1.468.367 1.468 1.4v12.875c0 .434.3.6.467.6.935 0 1.435.667 1.435 1.434a1.37 1.37 0 0 1-1.435 1.401zm-8.84-15.443c-3.336 0-5.504 2.602-5.504 6.57 0 4.003 2.168 6.604 5.504 6.604 3.37 0 5.504-2.602 5.504-6.604 0-3.97-2.135-6.57-5.504-6.57z"/><use xlink:href="#O"/><path d="M115.158 1045.478h-.567c-3.17 0-4.37-1.668-4.37-4.403V1030.6h-1c-.8 0-1.435-.634-1.435-1.4 0-.8.634-1.435 1.4-1.435h1v-4.637c0-.934.7-1.4 1.435-1.4s1.4.467 1.4 1.4v4.637h2.135c.934 0 1.4.768 1.4 1.4 0 .8-.533 1.434-1.4 1.434h-2.135v10.774c0 .934.333 1.268 1.268 1.268h.833c.868 0 1.435.634 1.435 1.4 0 .8-.533 1.435-1.4 1.435zm4.604-20.415a2.402 2.402 0 1 1 0-4.803 2.402 2.402 0 1 1 0 4.803zm0 20.414c-.733 0-1.467-.5-1.467-1.4V1029.2c0-.935.733-1.435 1.467-1.435a1.37 1.37 0 0 1 1.401 1.435v14.876c0 .935-.7 1.4-1.4 1.4zm10.376-14.877h-1.5v13.442c0 .935-.7 1.4-1.468 1.4-.7 0-1.4-.467-1.4-1.4V1030.6h-1.37c-.9 0-1.4-.667-1.4-1.4 0-.768.5-1.435 1.4-1.435h1.367v-2.27c0-2.135 1.77-3.77 3.836-3.77.968 0 1.468.667 1.468 1.434 0 .7-.5 1.4-1.468 1.4-.566 0-.967.434-.967.9v2.302h1.5c.967 0 1.468.667 1.468 1.435 0 .733-.5 1.4-1.468 1.4z"/><use xlink:href="#O" x="42.068"/><path d="M154.725 1045.544c-1.802 0-3.336-1.534-3.336-3.402v-18.98c0-.967.7-1.434 1.435-1.434s1.435.467 1.435 1.4v19.013c0 .4.3.567.467.567.934 0 1.435.667 1.435 1.435 0 .733-.5 1.4-1.435 1.4zm15.37-.066v-1.264c1.886-.237 2.046-.437 2.046-3.157v-6.7c0-2.8-1.248-4.017-3.064-4.017-1.237 0-2.345.6-3.47 1.493v9.476c0 2.527.187 2.658 2.06 2.896v1.264h-8.968v-1.264c2.254-.33 2.5-.4 2.5-3v-8.2c0-2.446-.303-2.565-2.185-2.922v-1.184c2.173-.292 4.63-.807 6.653-1.533l-.052 2.95 2.6-1.745c1.16-.713 2-1.086 3.16-1.086 3.194 0 5.2 2.338 5.2 6.3v7.5c0 2.54.237 2.657 2.277 2.92v1.264h-8.74zm23.9-3.703c-2.458 3.427-5.488 4.178-7.014 4.178-5.142 0-8.124-3.936-8.124-8.594 0-2.745 1.183-5.396 2.832-7.062 1.74-1.8 3.945-2.814 6.082-2.814 3.73 0 6.396 3.126 6.37 6.347-.014.715-.08 1.277-.612 1.4-.767.184-6.17.5-10.318.647.062 4.587 2.717 6.74 5.556 6.74 1.572 0 3.104-.597 4.543-1.866l.686 1.014zm-7.07-12.7c-1.667 0-3.167 1.807-3.516 4.963l5.486-.118c.6-.026.848-.146.848-.792.04-2.022-1.037-4.053-2.818-4.053zm34.284.145c-1.943.343-2.248.624-3.105 2.765-1.33 3.462-3.102 8.53-4.934 13.94h-1.512l-4.65-11.46-4.55 11.46h-1.472l-4.685-14.192c-.687-1.985-.94-2.274-2.855-2.512v-1.25h9.397v1.25c-2.325.345-2.535.672-2.058 2.133l2.52 8.214c1.507-3.68 2.988-7.62 4.327-11.424h1.456c1.4 3.76 2.986 7.702 4.573 11.568.742-2.107 2.062-5.964 2.557-8.108.412-1.674-.008-2.078-2.753-2.383v-1.25h7.742v1.25zm9.4 3.746c-.92-2.606-2.155-3.984-4.2-3.984-1.206 0-2.225.86-2.225 2.266 0 1.497 1.046 2.264 3.16 3.216 3.278 1.496 5.3 2.787 5.3 5.736 0 3.85-3.6 5.764-6.945 5.764-2.06 0-4.088-.737-4.92-1.16l-.662-4.892 1.252-.224c.8 2.5 2.33 4.75 4.976 4.75 1.505 0 2.438-.952 2.438-2.28 0-1.423-.76-2.333-3.092-3.467-2.67-1.295-5.107-2.64-5.107-5.775 0-3.046 2.533-5.42 6.565-5.42 1.818 0 3.242.396 4.112.567l.62 4.577-1.25.328z"/></g><defs><path id="B" d="M1016.23 913.464h-952c-16.57 0-30-13.43-30-30v-644.57c0-16.57 13.43-30 30-30h952c16.57 0 30 13.43 30 30v644.57c0 16.57-13.432 30-30 30z"/><path id="C" d="M649.944 1046.357c-1.2 0-3.22-.42-3.92-1.58-.08-.12-.08-.22-.08-.3 0-.32.28-.602.58-.602.12 0 .32.102.44.28.72.88 2 1.06 2.98 1.06 1.94 0 2.92-.64 2.92-1.94 0-3.02-6.562-1.42-6.562-5.422 0-2.02 2.02-2.8 3.84-2.8 1.04 0 2.64.36 3.44 1.16.12.12.18.26.18.38a.65.65 0 0 1-.62.6c-.12 0-.26-.04-.38-.16-.62-.6-1.74-.84-2.62-.84-1.76 0-2.7.682-2.7 1.66 0 2.8 6.562 1.32 6.562 5.422 0 2.28-2 3.08-4.06 3.08z"/><path id="D" d="M660.665 1046.318c-3.22 0-5.02-2.64-5.02-5.662 0-3 1.8-5.64 5.02-5.64s5.02 2.64 5.02 5.64c0 3.02-1.8 5.662-5.02 5.662zm0-10.162c-2.36 0-3.88 1.9-3.88 4.5s1.52 4.52 3.88 4.52c2.38 0 3.88-1.92 3.88-4.52s-1.5-4.5-3.88-4.5z"/><path id="E" d="M676.445 1045.98c-.28 0-.58-.2-.58-.56v-.64c-.84.98-2.06 1.54-3.42 1.54-2.48 0-4.56-2.08-4.56-4.56v-5.842c0-.36.3-.56.58-.56.26 0 .56.2.56.56v5.842c0 1.9 1.52 3.42 3.42 3.42s3.42-1.52 3.42-3.42v-5.842c0-.36.3-.56.58-.56.26 0 .56.2.56.56v9.502c0 .36-.3.56-.56.56z"/><path id="F" d="M684.404 1036.336a3.42 3.42 0 0 0-3.421 3.42v5.662c0 .36-.3.56-.56.56-.28 0-.58-.2-.58-.56v-9.502c0-.36.3-.56.58-.56.26 0 .56.2.56.56v.82c.9-.98 2.08-1.54 3.42-1.54.36 0 .58.3.58.56a.58.58 0 0 1-.58.58z"/><path id="G" d="M694.585 1044.797c-.88.98-2.1 1.52-3.58 1.52-3.22 0-5.02-2.64-5.02-5.662 0-3 1.8-5.64 5.02-5.64 1.48 0 2.7.54 3.58 1.52.12.12.16.262.16.38 0 .3-.28.6-.58.6-.14 0-.28-.06-.42-.2-.66-.74-1.58-1.16-2.74-1.16-2.36 0-3.88 1.9-3.88 4.5s1.52 4.52 3.88 4.52c1.16 0 2.08-.44 2.74-1.16.14-.14.28-.2.42-.2.3 0 .58.26.58.58 0 .14-.04.26-.16.398z"/><path id="H" d="M706.166 1041.236h-8.302c.18 2.28 1.66 3.94 3.84 3.94 1.08 0 2.36-.48 2.94-1.38.14-.22.3-.28.48-.28.3 0 .62.24.62.54 0 .18 0 .22-.38.658-.92 1.082-2.26 1.602-3.66 1.602-3.22 0-5.02-2.64-5.02-5.662 0-3 1.8-5.64 5.02-5.64s5.02 2.66 5.02 5.64c0 .3-.28.58-.56.58zm-4.46-5.08c-2.4 0-3.66 1.84-3.84 3.94h7.7c-.18-2.28-1.66-3.94-3.86-3.94z"/><path id="I" d="M776.163 1046.318c-1.74 0-3.04-.72-3.88-1.9v5.182c0 .36-.3.58-.56.58a.58.58 0 0 1-.58-.58v-13.684c0-.36.3-.56.58-.56.26 0 .56.2.56.56v.98c.84-1.16 2.14-1.88 3.88-1.88 3.22 0 5.02 2.64 5.02 5.64 0 3.02-1.8 5.662-5.02 5.662zm0-10.162c-2.38 0-3.88 1.9-3.88 4.5s1.5 4.52 3.88 4.52 3.88-1.92 3.88-4.52-1.5-4.5-3.88-4.5z"/><path id="J" d="M805.964 1045.98h-.02c-.66 0-1.6-.36-1.98-1.56-.84 1.18-2.14 1.9-3.88 1.9-3.26 0-5.02-2.682-5.02-5.662 0-3.02 1.8-5.64 5.02-5.64 1.74 0 3.04.72 3.88 1.88v-.98c0-.32.26-.56.58-.56.28 0 .56.2.56.56v8.063c0 1.28 1.44.48 1.44 1.44a.55.55 0 0 1-.58.561zm-5.88-9.822c-2.36 0-3.88 1.9-3.88 4.5s1.52 4.52 3.88 4.52c2.38 0 3.88-1.92 3.88-4.52s-1.5-4.5-3.88-4.5z"/><path id="K" d="M816.923 1045.98c-.28 0-.58-.2-.58-.56v-5.842c0-1.9-1.52-3.42-3.42-3.42a3.42 3.42 0 0 0-3.421 3.42v5.842c0 .36-.3.56-.56.56-.28 0-.58-.2-.58-.56v-9.502c0-.36.3-.56.58-.56.26 0 .56.2.56.56v.64c.9-.98 2.08-1.54 3.42-1.54a4.6 4.6 0 0 1 4.561 4.561v5.842c0 .36-.3.56-.56.56z"/><path id="L" d="M944.68 1046.098c-1.08 0-1.98-1-1.98-2.12v-11.684c0-.36.3-.56.58-.56.26 0 .56.2.56.56v11.684c0 1.28 1.42.54 1.42 1.44 0 .34-.24.68-.58.68z"/><path id="M" d="M947.658 1033.436c-.64 0-1.14-.5-1.14-1.14s.5-1.14 1.14-1.14 1.14.5 1.14 1.14-.5 1.14-1.14 1.14zm0 12.543c-.28 0-.58-.18-.58-.56v-9.502c0-.36.28-.56.58-.56.26 0 .56.18.56.56v9.502c0 .36-.26.56-.56.56z"/><path id="N" d="M925.82 681.98h-.868c-2.212 0-3.304-1.092-3.304-3.276v-9.995h-1.428c-.504 0-.784-.42-.784-.812 0-.364.28-.784.784-.784h1.428v-4.284c0-.504.42-.783.812-.783s.784.28.784.783v4.284h2.576c.504 0 .784.42.784.784 0 .392-.28.813-.784.813h-2.576v9.995c0 1.372.393 1.68 1.708 1.68h.868c.504 0 .784.42.784.812 0 .364-.28.784-.784.784z"/><path id="O" d="M104.714 1045.51c-.633 0-1.267-.367-1.4-1.1-1.334 1.034-2.97 1.668-4.804 1.668-4.136 0-7.604-3.436-7.604-7.605v-9.24a1.37 1.37 0 0 1 1.4-1.435c.768 0 1.468.5 1.468 1.4v9.272c0 2.602 2.168 4.77 4.736 4.77 2.603 0 4.77-2.17 4.77-4.77v-9.24c0-1.034.667-1.468 1.4-1.468.768 0 1.435.5 1.435 1.435v14.9c0 .934-.667 1.4-1.4 1.4z"/><path id="P" d="M35.176 958.505v-2.04h2.992v-19.718l-3.06.272v-1.496c1.394-.34 2.754-.952 3.875-1.904h1.632v22.846h2.856v2.04h-8.295z"/><path id="Q" d="M840.313 958.505v-2.04c2.176-7.275 8.975-11.354 8.975-16.93 0-2.584-1.292-3.876-2.958-3.876-1.938 0-3.366 1.496-3.57 5.167h-2.244c.272-5.575 2.788-7.207 5.745-7.207 3.23 0 5.474 2.176 5.474 6.256 0 6.12-5.507 8.023-9.18 16.6h9.315v2.04h-11.56z"/><path id="R" d="M1013.994 958.845c-4.012 0-5.916-3.74-5.916-12.612s1.904-12.613 5.916-12.613 5.916 3.74 5.916 12.613-1.904 12.612-5.916 12.612zm0-23.186c-2.244 0-3.468 2.516-3.468 10.573s1.224 10.572 3.468 10.572 3.467-2.516 3.467-10.572-1.224-10.573-3.467-10.573z"/><path id="S" d="M67.175 248.314c-6.848 0-6.848-8.127-6.848-12.8 0-4.512.704-11.104 6.815-11.104s6.88 6.432 6.88 11.104c0 4.863-.128 12.8-6.848 12.8zm4.096-12.8c0-2.816-.064-8.352-4.096-8.352s-4.096 5.536-4.096 8.352v1.79c0 3.328.448 8.288 4.063 8.288 3.68 0 4.128-4.96 4.128-8.288v-1.79z"/><path id="T" d="M1046.235 398.067a5.59 5.59 0 0 1-5.583-5.583 5.59 5.59 0 0 1 5.583-5.583 5.59 5.59 0 0 1 5.583 5.583 5.59 5.59 0 0 1-5.583 5.583z"/><path id="U" d="M887.294 374.352c-1.624 0-2.948-1.474-2.948-3.284s1.325-3.266 2.948-3.266c1.605 0 2.93 1.456 2.93 3.266s-1.325 3.284-2.93 3.284zm0-4.964c-.597 0-1.343.597-1.343 1.68s.746 1.68 1.343 1.68 1.344-.597 1.344-1.68-.747-1.68-1.344-1.68zm7.782-.915l-3.434 12.354c-.093.41-.4.597-.728.597-.43 0-.84-.3-.84-.784 0-.056 0-.15.02-.224l3.453-12.373a.76.76 0 0 1 .746-.579c.392 0 .82.28.82.747 0 .093-.02.168-.037.26zm2.65 12.615c-1.605 0-2.93-1.474-2.93-3.285 0-1.79 1.325-3.266 2.93-3.266 1.624 0 2.948 1.475 2.948 3.266 0 1.81-1.325 3.285-2.948 3.285zm0-4.964c-.58 0-1.325.597-1.325 1.68 0 1.1.747 1.698 1.325 1.698.597 0 1.343-.597 1.343-1.698 0-1.082-.746-1.68-1.343-1.68z"/><path id="V" d="M119.52 81.02c-4.2 0-7.5-1.44-9.9-3.96v13.02c0 1.68-1.26 2.58-2.64 2.58-1.26 0-2.52-.9-2.52-2.58V50.72c0-1.68 1.26-2.58 2.52-2.58 1.38 0 2.64.9 2.64 2.58 0 0 3.54-3.66 9.9-3.66 9.66 0 15.06 7.92 15.06 16.92 0 9.12-5.4 17.04-15.06 17.04zm0-28.86c-5.94 0-9.9 4.74-9.9 11.82 0 7.2 3.9 11.94 9.9 11.94s9.9-4.68 9.9-11.88c0-7.14-3.9-11.88-9.9-11.88z"/><path id="W" d="M260.397 66.68h-22.2c.84 5.64 4.44 9.24 9.72 9.24 2.7 0 5.4-.96 7.14-3.12.54-.6 1.14-.96 1.86-.96 1.32 0 2.7 1.2 2.7 2.64 0 .72-.18 1.26-1.44 2.52-2.7 2.64-6.42 4.02-10.26 4.02-9.66 0-15.06-7.98-15.06-16.98 0-8.94 5.4-16.92 15.06-16.92 9.78 0 15 7.98 15 16.92 0 1.32-.96 2.64-2.52 2.64zm-12.48-14.46c-5.64 0-8.94 4.14-9.72 9.3h19.44c-.84-5.76-4.44-9.3-9.72-9.3z"/><path id="X" d="M291.417 76.46c-2.64 2.94-6.3 4.56-10.74 4.56-9.66 0-15.06-7.92-15.06-16.98 0-9 5.4-16.92 15.06-16.92 4.44 0 8.1 1.62 10.74 4.56.48.54.72 1.14.72 1.74 0 1.32-1.32 2.58-2.7 2.58-.54 0-1.2-.24-1.86-.84-1.68-1.86-3.9-2.94-6.9-2.94-6 0-9.9 4.68-9.9 11.82 0 7.2 3.9 11.88 9.9 11.88 3 0 5.28-1.14 6.9-2.94.54-.66 1.26-.9 1.86-.9 1.38 0 2.7 1.2 2.7 2.64 0 .54-.24 1.2-.72 1.74z"/><path id="Y" d="M361.25 80.12c-3.24 0-6-2.76-6-6.12V39.862c0-1.74 1.26-2.58 2.58-2.58s2.58.84 2.58 2.52V74c0 .72.54 1.02.84 1.02 1.68 0 2.58 1.2 2.58 2.58 0 1.32-.9 2.52-2.58 2.52z"/><path id="Z" d="M370.85 43.28a4.3 4.3 0 1 1 0-8.64 4.3 4.3 0 1 1 0 8.64zm0 36.72c-1.32 0-2.64-.9-2.64-2.52V50.72c0-1.68 1.32-2.58 2.64-2.58 1.26 0 2.52.9 2.52 2.58v26.76c0 1.68-1.26 2.52-2.52 2.52z"/><path id="a" d="M403.3 80c-1.32 0-2.52-.9-2.52-2.52V60.8c0-4.68-3.9-8.58-8.58-8.58-4.62 0-8.52 3.9-8.52 8.58v16.62c0 1.68-1.26 2.64-2.64 2.64-1.26 0-2.52-.9-2.52-2.58V50.66c0-1.74 1.26-2.52 2.52-2.52 1.2 0 2.28.66 2.58 1.98 2.34-1.86 5.28-3 8.58-3 7.44 0 13.68 6.18 13.68 13.68v16.62c0 1.68-1.2 2.58-2.58 2.58z"/><path id="b" d="M609.59 81.02c-9.66 0-15.06-7.92-15.06-16.98 0-9 5.4-16.92 15.06-16.92s15.06 7.92 15.06 16.92c0 9.06-5.4 16.98-15.06 16.98zm0-28.8c-6 0-9.9 4.68-9.9 11.82 0 7.2 3.9 11.88 9.9 11.88 6.06 0 9.9-4.68 9.9-11.88 0-7.14-3.84-11.82-9.9-11.82z"/><path id="c" d="M793.307 81.02c-3.3 0-8.82-1.02-11.64-4.5-.36-.54-.54-1.08-.54-1.56 0-1.5 1.44-2.7 2.7-2.7.72 0 1.26.36 1.86 1.02 1.86 2.04 4.92 2.64 7.62 2.64 5.4 0 7.14-1.86 7.14-4.56 0-7.68-18.3-2.94-18.3-15.3 0-6.54 6.12-8.94 11.82-8.94 3.24 0 10.86 1.62 10.86 4.98 0 1.32-1.08 2.7-2.52 2.7-.54 0-1.38-.3-1.98-.78-1.62-1.38-3.96-1.8-6.36-1.8-4.98 0-6.72 1.86-6.72 3.84 0 7.14 18.36 2.52 18.36 15.3 0 7.08-5.94 9.66-12.3 9.66z"/></defs><clipPath id="d"><use xlink:href="#B"/></clipPath><g opacity=".5" class="T S"><path d="M34.23 208.894h1012v704.57h-1012z"/></g><linearGradient id="e" gradientUnits="userSpaceOnUse" x1="450.021" y1="913.464" x2="450.021" y2="392.561"><stop offset="0" stop-color="#12c2e9"/><stop offset=".187" stop-color="#59a1eb"/><stop offset=".401" stop-color="#a67fec"/><stop offset=".5" stop-color="#c471ed"/><stop offset=".545" stop-color="#ca6ddb"/><stop offset=".699" stop-color="#dd60a4"/><stop offset=".832" stop-color="#eb577b"/><stop offset=".937" stop-color="#f35162"/><stop offset="1" stop-color="#f64f59"/></linearGradient><path d="M861.175 913.464h4.636V406.49l-4.636.358v.175c0 .048-1.783.303-4.655.676l-11.193 1.38-138.897 16.468c-4.358.517-10.044 1.486-15.693 2.63s-11.262 2.466-15.475 3.687L533.38 472.98c-4.213 1.22-9.737 2.92-15.243 4.676l-15.135 5.008-210.835 73.433c-4.14 1.442-9.628 3.255-15.133 5.013l-15.24 4.687L34.23 632v281.474" fill="url(#e)" class="T"/><path d="M830.165 410.87v502.594m-36.18-498.31v498.3m-36.18-494.025v494.024m-36.18-489.74v489.74M685.45 429.28v484.183M649.27 439.36v474.103m-36.178-463.628v463.63M576.913 460.3v453.156m-36.18-442.684v442.682m-36.18-431.414v431.415m-36.178-418.832v418.832m-36.18-406.245v406.244M396.02 519.808v393.656m-36.18-381.068v381.068m-36.18-368.48v368.48m-36.177-355.927v355.927m-36.18-344.784v344.785m-36.18-334.273v334.272m-36.18-323.76v323.76m-36.18-313.247v313.247M106.6 610.73v302.734m-36.2-292.22v292.22" opacity=".2" fill="none" stroke="#fff" stroke-width="1.5" class="T U"/><g fill="none" stroke-width="3" class="U"><path d="M865.81 406.49l-4.636.358v.175c0 .048-1.783.303-4.655.675l-11.193 1.377-138.897 16.45c-4.358.516-10.044 1.484-15.693 2.628s-11.262 2.464-15.475 3.683L533.38 472.91c-4.213 1.22-9.737 2.918-15.243 4.67l-15.135 5.003-210.835 73.356c-4.14 1.44-9.628 3.25-15.133 5.007l-15.24 4.682L34.23 631.756" stroke="#fff" class="T"/><path d="M1046.23 393l-90.237 6.533-90.18 6.957" stroke="#c2e9f4" class="T"/></g><g opacity=".4" fill="none" stroke="#fff" stroke-width="2" class="U"><path d="M34.23 563.958h1"/><path d="M41.207 563.958h1001.036" stroke-dasharray="1.99211,5.97633"/><path d="M1045.23 563.958h1"/></g><g opacity=".5" class="S"><use xlink:href="#P"/><path d="M47.824 953.95c.34 2.448 1.7 2.855 2.652 2.855 2.176 0 3.535-3 3.604-9.824-.986 1.054-2.312 1.87-3.774 1.87-2.753 0-5.27-1.972-5.27-7.547 0-4.76 2.04-7.684 5.27-7.684 4.25 0 6.3 2.448 6.3 11.287 0 9.86-2.312 13.938-6.187 13.938-3.162 0-4.352-1.903-4.827-4.76l2.244-.136zm6.323-11.56c0-4.964-1.292-6.73-3.468-6.73-1.904 0-3.196 1.428-3.196 5.678 0 4.386 1.496 5.474 3.06 5.474s2.788-1.02 3.604-2.108v-2.312zm8.093 11.56c.34 2.448 1.7 2.855 2.65 2.855 2.176 0 3.536-3 3.604-9.824-.986 1.054-2.312 1.87-3.774 1.87-2.753 0-5.27-1.972-5.27-7.547 0-4.76 2.04-7.684 5.27-7.684 4.25 0 6.3 2.448 6.3 11.287 0 9.86-2.312 13.938-6.187 13.938-3.162 0-4.352-1.903-4.828-4.76l2.244-.136zm6.323-11.56c0-4.964-1.292-6.73-3.468-6.73-1.904 0-3.195 1.428-3.195 5.678 0 4.386 1.496 5.474 3.06 5.474s2.788-1.02 3.604-2.108v-2.312z"/><use xlink:href="#P" x="37.807"/></g><g opacity=".5" class="S"><use xlink:href="#Q"/><path d="M859.284 958.845c-4.012 0-5.916-3.74-5.916-12.612s1.904-12.613 5.916-12.613 5.915 3.74 5.915 12.613-1.903 12.612-5.915 12.612zm0-23.186c-2.244 0-3.468 2.516-3.468 10.573s1.224 10.572 3.468 10.572 3.468-2.516 3.468-10.572-1.224-10.573-3.468-10.573z"/><use xlink:href="#P" x="833.22"/><path d="M881.995 952.793c.204 1.77.952 4.012 3.128 4.012 2.108 0 3.67-2.176 3.67-6.425 0-4.6-1.563-6.018-3.366-6.018-1.394 0-2.686 1.054-3.093 2.38l-1.904-.34.816-12.443h8.635l-.204 2.04h-6.46l-.476 7.48c.85-.714 2.006-1.156 3.264-1.156 2.856 0 5.235 2.652 5.235 7.99 0 5.61-2.72 8.533-5.983 8.533-3.536 0-5.303-2.65-5.507-5.848l2.244-.204z"/></g><g opacity=".5" class="S"><use xlink:href="#Q" x="154.709"/><use xlink:href="#R"/><use xlink:href="#Q" x="180.821"/><use xlink:href="#R" x="26.111"/></g><g fill="#2fbadf"><path d="M55.815 247.77c-.672 0-1.344-.512-1.344-1.344v-17.15l-2.56 2.496c-.288.288-.608.384-.896.384-.768 0-1.44-.704-1.44-1.408 0-.352.128-.672.416-.96l4.768-4.607c.384-.352.8-.512 1.184-.512.896 0 1.28.896 1.28 1.632v20.094c0 .864-.672 1.376-1.408 1.376z"/><use xlink:href="#S"/><use xlink:href="#S" x="16.512"/><path d="M95.2 230.377c-1.624 0-2.948-1.474-2.948-3.284s1.325-3.266 2.948-3.266c1.605 0 2.93 1.456 2.93 3.266s-1.325 3.284-2.93 3.284zm0-4.964c-.597 0-1.343.597-1.343 1.68s.746 1.68 1.343 1.68 1.344-.597 1.344-1.68-.747-1.68-1.344-1.68zm7.782-.915l-3.434 12.354c-.093.41-.4.597-.728.597-.43 0-.84-.3-.84-.784 0-.056 0-.15.02-.224l3.453-12.373a.76.76 0 0 1 .746-.579c.392 0 .82.28.82.747 0 .093-.02.168-.037.26zm2.65 12.615c-1.605 0-2.93-1.474-2.93-3.284 0-1.792 1.325-3.266 2.93-3.266 1.624 0 2.948 1.474 2.948 3.266 0 1.8-1.325 3.284-2.948 3.284zm0-4.964c-.58 0-1.325.597-1.325 1.68 0 1.1.747 1.698 1.325 1.698.597 0 1.343-.597 1.343-1.698 0-1.083-.746-1.68-1.343-1.68z"/></g><g class="S"><use xlink:href="#T"/><use xlink:href="#T" x="-180" y="14"/><use xlink:href="#T" x="-1012" y="239"/><path d="M50.663 610.06h-1.375v2.496c0 .864-.736 1.344-1.376 1.344-.672 0-1.376-.48-1.376-1.344v-2.496H38.89c-.896 0-1.44-.544-1.44-1.28 0-.192.032-.448.192-.704l8.832-16.8c.256-.513.736-.736 1.152-.736.736 0 1.44.576 1.44 1.312 0 .225-.032.448-.192.704L41.13 607.34h5.408v-3.647c0-.928.672-1.408 1.344-1.408.704 0 1.408.448 1.408 1.376v3.68h1.375c.896 0 1.376.64 1.376 1.376 0 .704-.48 1.344-1.376 1.344zm9.664 4.384c-6.848 0-6.848-8.127-6.848-12.8 0-4.512.704-11.104 6.815-11.104s6.88 6.432 6.88 11.104c0 4.863-.128 12.8-6.848 12.8zm4.096-12.8c0-2.816-.064-8.352-4.096-8.352s-4.096 5.535-4.096 8.352v1.792c0 3.327.448 8.287 4.063 8.287 3.68 0 4.128-4.96 4.128-8.287v-1.792zm7.417-4.136c-1.624 0-2.948-1.475-2.948-3.285s1.325-3.266 2.948-3.266c1.605 0 2.93 1.456 2.93 3.266s-1.325 3.285-2.93 3.285zm0-4.965c-.597 0-1.343.598-1.343 1.68s.746 1.68 1.343 1.68 1.344-.597 1.344-1.68-.747-1.68-1.344-1.68zm7.782-.914l-3.434 12.354c-.093.4-.4.598-.728.598-.43 0-.84-.3-.84-.784 0-.056 0-.15.02-.224l3.453-12.372a.76.76 0 0 1 .746-.579c.392 0 .82.28.82.747 0 .093-.02.168-.037.26zm2.65 12.615c-1.605 0-2.93-1.475-2.93-3.284 0-1.792 1.325-3.266 2.93-3.266 1.624 0 2.948 1.474 2.948 3.266 0 1.8-1.325 3.284-2.948 3.284zm0-4.964c-.58 0-1.325.597-1.325 1.68 0 1.1.747 1.698 1.325 1.698.597 0 1.343-.598 1.343-1.698 0-1.083-.746-1.68-1.343-1.68zm783.652-228.374l-7.36 18.975c-.256.64-.64.896-1.184.896-.704 0-1.44-.544-1.44-1.344 0-.192.064-.352.128-.544l6.976-18.207H854.5c-.704 0-1.344-.512-1.344-1.376 0-.736.608-1.344 1.344-1.344h10.527c.704 0 1.408.448 1.408 1.376 0 .384-.416 1.248-.512 1.568zm12.576 19.84h-9.792c-.928 0-1.472-.544-1.472-1.216 0-.288.096-.576.288-.864l8.735-13.28c.384-.608.608-1.344.608-1.92 0-1.888-1.408-3.328-3.296-3.328-1.696 0-3.136 1.44-3.68 2.464-.256.48-.672.672-1.088.672-.736 0-1.408-.576-1.408-1.312 0-.992 2.27-4.576 6.175-4.576a6.03 6.03 0 0 1 6.016 6.016 6.24 6.24 0 0 1-1.088 3.456l-7.328 11.167h7.328c.928 0 1.408.64 1.408 1.376 0 .672-.48 1.344-1.408 1.344z"/><use xlink:href="#U"/><path d="M1012.65 357.063l-7.36 18.975c-.256.64-.64.896-1.184.896-.704 0-1.44-.544-1.44-1.344 0-.192.064-.352.128-.544l6.976-18.207h-8.543c-.704 0-1.344-.512-1.344-1.376 0-.736.608-1.344 1.344-1.344h10.527c.704 0 1.408.448 1.408 1.376 0 .384-.416 1.248-.512 1.568zm12.767 15.997h-1.375v2.496c0 .864-.736 1.344-1.376 1.344-.672 0-1.376-.48-1.376-1.344v-2.496h-7.647c-.896 0-1.44-.544-1.44-1.28 0-.192.032-.448.192-.704l8.832-16.8c.256-.512.736-.736 1.152-.736.736 0 1.44.576 1.44 1.312a1.24 1.24 0 0 1-.192.704l-7.744 14.783h5.408v-3.647c0-.928.672-1.408 1.344-1.408.704 0 1.408.448 1.408 1.376v3.68h1.375c.896 0 1.376.64 1.376 1.376 0 .704-.48 1.344-1.376 1.344z"/><use xlink:href="#U" x="142.79" y="-13.844"/></g><g fill="#ef5b69"><path d="M52.92 61.52H40.08v15.9c0 1.56-1.2 2.58-2.52 2.58-1.44 0-2.64-.96-2.64-2.52V39.862c0-1.08.72-2.58 2.52-2.58h15.54c5.28 0 12.06 4.14 12.06 12.06 0 6.78-5.4 12.18-12.12 12.18zm0-19.14H40.08v14.04h12.78a6.99 6.99 0 0 0 7.02-7.02c0-3.9-3.12-7.02-6.96-7.02zM97.5 80c-3.3 0-4.8-2.34-5.34-3.42-2.4 2.64-5.88 4.44-10.56 4.44-9.78 0-15.06-8.04-15.06-16.98s5.4-16.92 15.06-16.92c4.2 0 7.56 1.5 9.9 3.96v-.24c0-.66.24-2.7 2.52-2.7 1.26 0 2.64.66 2.64 2.52v23.16c0 .78.54 1.08.84 1.08 1.68 0 2.58 1.2 2.58 2.58 0 1.26-.9 2.52-2.58 2.52zM81.6 52.22c-6 0-9.9 4.68-9.9 11.82 0 7.2 3.9 11.88 9.9 11.88 6.06 0 9.9-4.68 9.9-11.88 0-7.14-3.84-11.82-9.9-11.82z"/><use xlink:href="#V"/><path d="M164.28 66.68h-22.2c.84 5.64 4.44 9.24 9.72 9.24 2.7 0 5.4-.96 7.14-3.12.54-.6 1.14-.96 1.86-.96 1.32 0 2.7 1.2 2.7 2.64 0 .72-.18 1.26-1.44 2.52-2.7 2.64-6.42 4.02-10.26 4.02-9.66 0-15.06-7.98-15.06-16.98 0-8.94 5.4-16.92 15.06-16.92 9.78 0 15 7.98 15 16.92 0 1.32-.96 2.64-2.52 2.64zM151.8 52.22c-5.64 0-8.94 4.14-9.72 9.3h19.44c-.84-5.76-4.44-9.3-9.72-9.3zm32.76 0c-4.62 0-8.52 3.9-8.52 8.58v16.62c0 1.68-1.26 2.58-2.64 2.58-1.26 0-2.52-.9-2.52-2.52V50.72c0-1.68 1.38-2.58 2.52-2.58 1.2 0 2.34.66 2.58 2.04a13.88 13.88 0 0 1 8.58-3.06c1.74 0 2.64 1.2 2.64 2.58 0 1.32-.9 2.52-2.64 2.52zm43.378 27.84c-.66 0-1.44-.36-1.98-1.08l-12.48-17.46h-7.74v15.9c0 1.68-1.26 2.58-2.64 2.58-1.26 0-2.52-.9-2.52-2.52V39.862c0-1.08.72-2.58 2.52-2.58h15.54c5.28 0 12.06 4.14 12.06 12.06 0 6.3-4.74 11.58-11.04 12.12l10.5 14.46c.42.54.54 1.02.54 1.56 0 1.44-1.38 2.58-2.76 2.58zm-9.36-37.68h-12.84v14.04h12.78c3.9 0 7.02-3.18 7.02-7.08 0-4.08-3.48-6.96-6.96-6.96z"/><use xlink:href="#W"/><use xlink:href="#X"/><path d="M323.396 51.74l-16.2 36.838c-1.2 2.76-3.84 4.02-6.6 4.02h-1.92c-1.74 0-2.52-1.26-2.52-2.64 0-1.26.78-2.52 2.52-2.52h1.86c.78 0 1.62-.12 1.98-.96l3.96-8.88-11.7-25.86c-.24-.42-.3-.78-.3-1.14 0-1.5 1.44-2.52 2.76-2.52.9 0 1.68.48 2.16 1.56l9.78 21.72 9.54-21.72c.48-1.08 1.38-1.5 2.22-1.5 1.38 0 2.76 1.02 2.76 2.46 0 .42-.06.72-.3 1.14z"/><use xlink:href="#X" x="58.193"/><use xlink:href="#Y"/><use xlink:href="#Z"/><use xlink:href="#a"/><path d="M423.95 93.68c-3.66 0-12.72-1.32-12.72-4.92 0-1.38 1.26-2.7 2.58-2.7 1.38 0 .18.18 3.36 1.38 1.44.54 3.6 1.14 6.78 1.14 6.66 0 9.9-3.18 9.9-9.48v-2.7c-2.34 2.22-5.7 3.6-9.9 3.6-9.48 0-15.06-6.72-15.06-15.96 0-9 5.4-16.92 15.06-16.92 4.2 0 7.44 1.26 9.9 3.84v-.24c0-1.68 1.38-2.58 2.58-2.58 1.26 0 2.58.9 2.58 2.58V79.1c0 9.54-5.7 14.58-15.06 14.58zm0-41.458c-6 0-9.9 4.68-9.9 11.82 0 6.84 3.6 10.86 9.9 10.86s9.9-4.02 9.9-10.86c0-7.14-3.84-11.82-9.9-11.82z"/></g><g class="S"><use xlink:href="#Z" x="89.34"/><use xlink:href="#a" x="89.348"/><path d="M540.708 80h-24.96c-1.44 0-2.64-1.14-2.64-2.52V39.862c0-1.44 1.2-2.58 2.64-2.58h24.96c1.56 0 2.52 1.14 2.52 2.52 0 1.26-.9 2.58-2.52 2.58h-22.44V54.5h15.72a2.56 2.56 0 0 1 2.58 2.58c0 1.38-1.02 2.58-2.58 2.58h-15.72V74.9h22.44c1.62 0 2.52 1.26 2.52 2.58 0 1.38-.96 2.52-2.52 2.52zm29.16.06c-1.14 0-2.28-.66-2.52-1.98-2.4 1.86-5.34 3-8.64 3-7.44 0-13.68-6.18-13.68-13.68V50.78c0-1.68 1.26-2.58 2.52-2.58 1.38 0 2.64.9 2.64 2.52V67.4c0 4.68 3.9 8.58 8.52 8.58 4.68 0 8.58-3.9 8.58-8.58V50.78c0-1.86 1.2-2.64 2.52-2.64 1.38 0 2.58.9 2.58 2.58v26.82c0 1.68-1.2 2.52-2.52 2.52zM592.2 52.22c-4.62 0-8.52 3.9-8.52 8.58v16.62c0 1.68-1.26 2.58-2.64 2.58-1.26 0-2.52-.9-2.52-2.52V50.72c0-1.68 1.38-2.58 2.52-2.58 1.2 0 2.34.66 2.58 2.04a13.88 13.88 0 0 1 8.58-3.06c1.74 0 2.64 1.2 2.64 2.58 0 1.32-.9 2.52-2.64 2.52z"/><use xlink:href="#b"/><use xlink:href="#V" x="523.728"/><path d="M690.408 66.68h-22.2c.84 5.64 4.44 9.24 9.72 9.24 2.7 0 5.4-.96 7.14-3.12.54-.6 1.14-.96 1.86-.96 1.32 0 2.7 1.2 2.7 2.64 0 .72-.18 1.26-1.44 2.52-2.7 2.64-6.42 4.02-10.26 4.02-9.66 0-15.06-7.98-15.06-16.98 0-8.94 5.4-16.92 15.06-16.92 9.78 0 15 7.98 15 16.92 0 1.32-.96 2.64-2.52 2.64zm-12.48-14.46c-5.64 0-8.94 4.14-9.72 9.3h19.438c-.84-5.76-4.44-9.3-9.72-9.3zM736.907 80c-1.32 0-2.64-.9-2.64-2.52V59.66h-19.8v17.82c0 1.62-1.38 2.52-2.52 2.52-1.32 0-2.64-.9-2.64-2.52V39.802c0-1.68 1.32-2.52 2.64-2.52 1.14 0 2.52.84 2.52 2.52v14.76h19.8v-14.7c0-1.74 1.38-2.58 2.52-2.58 1.32 0 2.64.84 2.64 2.58V77.42c0 1.68-1.38 2.58-2.52 2.58zm38.22 0c-3.3 0-4.8-2.34-5.34-3.42-2.4 2.64-5.88 4.44-10.56 4.44-9.78 0-15.06-8.04-15.06-16.98s5.4-16.92 15.06-16.92c4.2 0 7.56 1.5 9.9 3.96v-.24c0-.66.24-2.7 2.52-2.7 1.26 0 2.64.66 2.64 2.52v23.16c0 .78.54 1.08.84 1.08 1.68 0 2.58 1.2 2.58 2.58 0 1.26-.9 2.52-2.58 2.52zm-15.9-27.78c-6 0-9.9 4.68-9.9 11.82 0 7.2 3.9 11.88 9.9 11.88 6.06 0 9.9-4.68 9.9-11.88 0-7.14-3.84-11.82-9.9-11.82z"/><use xlink:href="#c"/><path d="M851.865 80c-.9 0-1.8-.48-2.28-1.56l-3.18-7.8h-19.98l-3.24 7.8c-.48 1.08-1.38 1.56-2.22 1.56-1.32 0-2.7-1.02-2.7-2.52 0-.36.06-.72.24-1.02l15.42-37.498c.72-1.56 1.68-1.86 2.46-1.86.54 0 1.86.3 2.46 1.86l15.48 37.498c.12.3.18.66.18 1.02 0 1.5-1.26 2.52-2.64 2.52zm-15.48-33.6l-7.86 19.08h15.72l-7.86-19.08z"/><use xlink:href="#Y" x="503.937"/><path d="M911.384 80c-1.26 0-2.52-.9-2.52-2.52v-18.9c0-3.48-2.88-6.36-6.3-6.36-3.54 0-6.36 2.88-6.36 6.3v18.9c0 1.68-1.2 2.58-2.58 2.58-1.32 0-2.52-.9-2.52-2.52v-18.9c0-3.48-2.88-6.36-6.36-6.36s-6.36 2.88-6.36 6.3v18.9c0 1.68-1.26 2.58-2.64 2.58-1.26 0-2.52-.9-2.52-2.52V50.66c0-1.74 1.32-2.58 2.64-2.58.84 0 1.68.36 2.16 1.14 1.86-1.32 4.2-2.1 6.66-2.1 3.6 0 6.84 1.62 8.94 4.26 2.1-2.64 5.28-4.26 8.88-4.26 6.36 0 11.52 5.1 11.52 11.4v18.9c0 1.68-1.26 2.58-2.64 2.58z"/><use xlink:href="#b" x="324.895"/><use xlink:href="#c" x="170.998"/><path d="M992.925 80h-1.02c-5.7 0-7.86-3-7.86-7.92V53.24h-1.8c-1.44 0-2.58-1.14-2.58-2.52 0-1.44 1.14-2.58 2.52-2.58h1.8V39.8c0-1.68 1.26-2.52 2.58-2.52s2.52.84 2.52 2.52v8.34h3.84c1.68 0 2.52 1.38 2.52 2.52 0 1.44-.96 2.58-2.52 2.58h-3.84v19.38c0 1.68.6 2.28 2.28 2.28h1.5c1.56 0 2.58 1.14 2.58 2.52 0 1.44-.96 2.58-2.52 2.58zM49.98 145.2H37.56c-1.38 0-2.64-1.26-2.64-2.52v-37.618c0-1.38 1.26-2.58 2.64-2.58h12.42c12.36 0 16.44 10.2 16.44 21.3 0 11.16-4.08 21.42-16.44 21.42zm0-37.62h-9.9v32.52h9.9c7.74 0 11.28-5.7 11.28-16.32 0-10.44-3.54-16.2-11.28-16.2z"/><use xlink:href="#b" x="-525.59" y="65.2"/><path d="M129.3 145.26c-1.14 0-2.28-.66-2.52-1.98-2.4 1.86-5.34 3-8.64 3-7.44 0-13.68-6.18-13.68-13.68v-16.62c0-1.68 1.26-2.58 2.52-2.58 1.38 0 2.64.9 2.64 2.52v16.68c0 4.68 3.9 8.58 8.52 8.58 4.68 0 8.58-3.9 8.58-8.58v-16.62c0-1.86 1.2-2.64 2.52-2.64 1.38 0 2.58.9 2.58 2.58v26.82c0 1.68-1.2 2.52-2.52 2.52zm23.7.96c-6.42 0-9.84-3.54-9.9-3.6 0 1.68-1.26 2.52-2.64 2.52-1.26 0-2.52-.84-2.52-2.52v-37.558c0-1.74 1.26-2.58 2.52-2.58 1.38 0 2.64.84 2.64 2.52v11.22c2.4-2.46 5.7-3.9 9.9-3.9 9.66 0 15.06 7.92 15.06 16.92 0 9.06-5.4 16.98-15.06 16.98zm0-28.8c-6 0-9.9 4.68-9.9 11.82 0 7.2 3.9 11.88 9.9 11.88s9.9-4.68 9.9-11.88c0-7.14-3.9-11.82-9.9-11.82zm25.44 27.9c-3.24 0-6-2.76-6-6.12v-34.138c0-1.74 1.26-2.58 2.58-2.58s2.58.84 2.58 2.52V139.2c0 .72.54 1.02.84 1.02 1.68 0 2.58 1.2 2.58 2.58 0 1.32-.9 2.52-2.58 2.52z"/><use xlink:href="#W" x="-48.959" y="65.2"/><path d="M245.398 145.14c-1.32 0-2.58-.84-2.58-2.52 0 0-3.54 3.6-9.9 3.6-9.66 0-15.06-7.92-15.06-16.98 0-9 5.4-16.92 15.06-16.92 4.2 0 7.56 1.44 9.9 3.9v-11.16c0-1.74 1.26-2.58 2.58-2.58s2.58.84 2.58 2.52v37.618c0 1.68-1.26 2.52-2.58 2.52zm-12.48-27.72c-6 0-9.9 4.68-9.9 11.82 0 7.2 3.9 11.88 9.9 11.88 6.06 0 9.9-4.68 9.9-11.88 0-7.14-3.84-11.82-9.9-11.82z"/><use xlink:href="#b" x="-329.513" y="65.2"/><path d="M323.156 116.88l-10.92 26.28c-.54 1.38-1.44 2.04-2.58 2.04-1.02 0-1.98-.66-2.58-2.04l-10.92-26.28c-.12-.42-.18-.72-.18-1.08 0-1.44 1.32-2.46 2.64-2.46.9 0 1.8.48 2.28 1.56l8.76 21 8.76-21c.42-1.14 1.5-1.62 2.34-1.62 1.38 0 2.64.96 2.64 2.46a2.99 2.99 0 0 1-.24 1.14z"/><use xlink:href="#W" x="91.318" y="65.2"/><path d="M373.195 117.42c-4.62 0-8.52 3.9-8.52 8.58v16.62c0 1.68-1.26 2.58-2.64 2.58-1.26 0-2.52-.9-2.52-2.52v-26.76c0-1.68 1.38-2.58 2.52-2.58 1.2 0 2.34.66 2.58 2.04a13.88 13.88 0 0 1 8.58-3.06c1.74 0 2.64 1.2 2.64 2.58 0 1.32-.9 2.52-2.64 2.52zm34.62 27.78h-18.36c-1.74 0-2.76-1.02-2.76-2.28 0-.54.18-1.08.54-1.62l16.38-24.9c.72-1.14 1.14-2.52 1.14-3.6 0-3.54-2.64-6.24-6.18-6.24-3.18 0-5.88 2.7-6.9 4.62-.48.9-1.26 1.26-2.04 1.26-1.38 0-2.64-1.08-2.64-2.46 0-1.86 4.26-8.58 11.58-8.58a11.31 11.31 0 0 1 11.28 11.28c0 2.4-.84 4.74-2.04 6.48l-13.74 20.94h13.74c1.74 0 2.64 1.2 2.64 2.58 0 1.26-.9 2.52-2.64 2.52zm18.66.6c-4.02 0-8.58-2.16-10.8-5.7-.3-.48-.42-.96-.42-1.44 0-1.38 1.2-2.46 2.58-2.46 1.14 0 1.56.42 2.46 1.62 1.5 1.86 3.84 2.88 6.18 2.88 4.14 0 8.34-3.78 8.34-9.18 0-5.46-4.2-9.24-8.34-9.24-3.18 0-5.34 1.62-6.36 3.36-.48.9-1.32 1.38-2.34 1.38-1.56 0-2.58-1.02-2.58-3V105c0-1.38 1.2-2.52 2.58-2.52h18.24c1.74 0 2.64 1.2 2.64 2.58 0 1.26-.84 2.52-2.52 2.52h-15.84v11.22c1.44-1.02 3.72-1.62 6.18-1.62 7.38 0 13.44 6.24 13.44 14.34 0 7.98-6.06 14.28-13.44 14.28zm57.358-39.538l-11.88 22.14v14.22c0 1.68-1.26 2.58-2.64 2.58-1.26 0-2.52-.84-2.52-2.52V128.4l-11.88-22.2a2.26 2.26 0 0 1-.36-1.26c0-1.44 1.38-2.58 2.7-2.58.78 0 1.62.42 2.16 1.44l9.9 18.48 10.02-18.48c.54-.96 1.38-1.32 2.16-1.32 1.38 0 2.7 1.08 2.7 2.52a2.14 2.14 0 0 1-.36 1.26z"/><use xlink:href="#W" x="248.456" y="65.2"/><path d="M546.23 145.2c-3.3 0-4.8-2.34-5.34-3.42-2.4 2.64-5.88 4.44-10.56 4.44-9.78 0-15.06-8.04-15.06-16.98s5.4-16.92 15.06-16.92c4.2 0 7.56 1.5 9.9 3.96v-.24c0-.66.24-2.7 2.52-2.7 1.26 0 2.64.66 2.64 2.52v23.16c0 .78.54 1.08.84 1.08 1.68 0 2.58 1.2 2.58 2.58 0 1.26-.9 2.52-2.58 2.52zm-15.898-27.78c-6 0-9.9 4.68-9.9 11.82 0 7.2 3.9 11.88 9.9 11.88 6.06 0 9.9-4.68 9.9-11.88 0-7.14-3.84-11.82-9.9-11.82zm36.54 0c-4.62 0-8.52 3.9-8.52 8.58v16.62c0 1.68-1.26 2.58-2.64 2.58-1.26 0-2.52-.9-2.52-2.52v-26.76c0-1.68 1.38-2.58 2.52-2.58 1.2 0 2.34.66 2.58 2.04a13.88 13.88 0 0 1 8.58-3.06c1.74 0 2.64 1.2 2.64 2.58 0 1.32-.9 2.52-2.64 2.52z"/><use xlink:href="#c" x="-210.294" y="65.2"/></g></svg>