<svg xmlns="http://www.w3.org/2000/svg" xmlns:xlink="http://www.w3.org/1999/xlink" viewBox="0 0 1080 1080"><linearGradient id="A" gradientUnits="userSpaceOnUse" x1="11.716" y1="11.716" x2="1068.284" y2="1068.284"><stop offset="0" stop-color="#152094"/><stop offset="1" stop-color="#c754ff"/></linearGradient><path d="M1040 1080H40c-22.09 0-40-17.91-40-40V40C0 17.91 17.91 0 40 0h1000c22.09 0 40 17.91 40 40v1000c0 22.09-17.91 40-40 40z" fill="url(#A)"/><g opacity=".4" fill="#fff"><path d="M42.328 1046.045c-3.568 0-5.47-1.97-5.503-2.002 0 .935-.7 1.4-1.468 1.4-.7 0-1.4-.467-1.4-1.4v-20.88a1.35 1.35 0 0 1 1.401-1.434c.767 0 1.468.467 1.468 1.4v6.238c1.334-1.368 3.168-2.17 5.503-2.17 5.37 0 8.373 4.403 8.373 9.406 0 5.037-3.002 9.44-8.373 9.44zm0-16c-3.335 0-5.503 2.602-5.503 6.57 0 4.003 2.168 6.604 5.503 6.604s5.504-2.602 5.504-6.604c0-3.97-2.168-6.57-5.504-6.57zm25.555 8.037h-12.34c.467 3.136 2.468 5.137 5.403 5.137 1.5 0 3.002-.533 3.97-1.734.3-.333.634-.533 1.034-.533.734 0 1.5.667 1.5 1.468 0 .4-.1.7-.8 1.4-1.5 1.468-3.57 2.235-5.704 2.235-5.37 0-8.372-4.437-8.372-9.44 0-4.97 3.002-9.406 8.372-9.406 5.437 0 8.34 4.437 8.34 9.406 0 .734-.534 1.468-1.4 1.468zm-6.937-8.038c-3.136 0-4.97 2.3-5.403 5.17H66.35c-.467-3.202-2.468-5.17-5.403-5.17zM88 1045.478c-1.834 0-2.668-1.3-2.97-1.9-1.334 1.468-3.27 2.47-5.87 2.47-5.437 0-8.372-4.47-8.372-9.44s3.002-9.406 8.372-9.406c2.335 0 4.203.834 5.504 2.202v-.134c0-.367.133-1.5 1.4-1.5.7 0 1.468.367 1.468 1.4v12.875c0 .434.3.6.467.6.935 0 1.435.667 1.435 1.434a1.37 1.37 0 0 1-1.435 1.401zm-8.84-15.443c-3.336 0-5.504 2.602-5.504 6.57 0 4.003 2.168 6.604 5.504 6.604 3.37 0 5.504-2.602 5.504-6.604 0-3.97-2.135-6.57-5.504-6.57z"/><use xlink:href="#D"/><path d="M115.158 1045.478h-.567c-3.17 0-4.37-1.668-4.37-4.403V1030.6h-1c-.8 0-1.435-.634-1.435-1.4 0-.8.634-1.435 1.4-1.435h1v-4.637c0-.934.7-1.4 1.435-1.4s1.4.467 1.4 1.4v4.637h2.135c.934 0 1.4.768 1.4 1.4 0 .8-.533 1.434-1.4 1.434h-2.135v10.774c0 .934.333 1.268 1.268 1.268h.833c.868 0 1.435.634 1.435 1.4 0 .8-.533 1.435-1.4 1.435zm4.604-20.415a2.402 2.402 0 1 1 0-4.803 2.402 2.402 0 1 1 0 4.803zm0 20.414c-.733 0-1.467-.5-1.467-1.4V1029.2c0-.935.733-1.435 1.467-1.435a1.37 1.37 0 0 1 1.401 1.435v14.876c0 .935-.7 1.4-1.4 1.4zm10.376-14.877h-1.5v13.442c0 .935-.7 1.4-1.468 1.4-.7 0-1.4-.467-1.4-1.4V1030.6h-1.37c-.9 0-1.4-.667-1.4-1.4 0-.768.5-1.435 1.4-1.435h1.367v-2.27c0-2.135 1.77-3.77 3.836-3.77.968 0 1.468.667 1.468 1.434 0 .7-.5 1.4-1.468 1.4-.566 0-.967.434-.967.9v2.302h1.5c.967 0 1.468.667 1.468 1.435 0 .733-.5 1.4-1.468 1.4z"/><use xlink:href="#D" x="42.068"/><path d="M154.725 1045.544c-1.802 0-3.336-1.534-3.336-3.402v-18.98c0-.967.7-1.434 1.435-1.434s1.435.467 1.435 1.4v19.013c0 .4.3.567.467.567.934 0 1.435.667 1.435 1.435 0 .733-.5 1.4-1.435 1.4zm15.37-.066v-1.264c1.886-.237 2.046-.437 2.046-3.157v-6.7c0-2.8-1.248-4.017-3.064-4.017-1.237 0-2.345.6-3.47 1.493v9.476c0 2.527.187 2.658 2.06 2.896v1.264h-8.968v-1.264c2.254-.33 2.5-.4 2.5-3v-8.2c0-2.446-.303-2.565-2.185-2.922v-1.184c2.173-.292 4.63-.807 6.653-1.533l-.052 2.95 2.6-1.745c1.16-.713 2-1.086 3.16-1.086 3.194 0 5.2 2.338 5.2 6.3v7.5c0 2.54.237 2.657 2.277 2.92v1.264h-8.74zm23.9-3.703c-2.458 3.427-5.488 4.178-7.014 4.178-5.142 0-8.124-3.936-8.124-8.594 0-2.745 1.183-5.396 2.832-7.062 1.74-1.8 3.945-2.814 6.082-2.814 3.73 0 6.396 3.126 6.37 6.347-.014.715-.08 1.277-.612 1.4-.767.184-6.17.5-10.318.647.062 4.587 2.717 6.74 5.556 6.74 1.572 0 3.104-.597 4.543-1.866l.686 1.014zm-7.07-12.7c-1.667 0-3.167 1.807-3.516 4.963l5.486-.118c.6-.026.848-.146.848-.792.04-2.022-1.037-4.053-2.818-4.053zm34.284.145c-1.943.343-2.248.624-3.105 2.765-1.33 3.462-3.102 8.53-4.934 13.94h-1.512l-4.65-11.46-4.55 11.46h-1.472l-4.685-14.192c-.687-1.985-.94-2.274-2.855-2.512v-1.25h9.397v1.25c-2.325.345-2.535.672-2.058 2.133l2.52 8.214c1.507-3.68 2.988-7.62 4.327-11.424h1.456c1.4 3.76 2.986 7.702 4.573 11.568.742-2.107 2.062-5.964 2.557-8.108.412-1.674-.008-2.078-2.753-2.383v-1.25h7.742v1.25zm9.4 3.746c-.92-2.606-2.155-3.984-4.2-3.984-1.206 0-2.225.86-2.225 2.266 0 1.497 1.046 2.264 3.16 3.216 3.278 1.496 5.3 2.787 5.3 5.736 0 3.85-3.6 5.764-6.945 5.764-2.06 0-4.088-.737-4.92-1.16l-.662-4.892 1.252-.224c.8 2.5 2.33 4.75 4.976 4.75 1.505 0 2.438-.952 2.438-2.28 0-1.423-.76-2.333-3.092-3.467-2.67-1.295-5.107-2.64-5.107-5.775 0-3.046 2.533-5.42 6.565-5.42 1.818 0 3.242.396 4.112.567l.62 4.577-1.25.328z"/></g><g opacity=".6" fill="#fff"><path d="M819 1046.357c-1.2 0-3.22-.42-3.92-1.58-.08-.12-.08-.22-.08-.3 0-.32.28-.602.58-.602.12 0 .32.102.44.28.72.88 2 1.06 2.98 1.06 1.94 0 2.92-.64 2.92-1.94 0-3.02-6.562-1.42-6.562-5.422 0-2.02 2.02-2.8 3.84-2.8 1.04 0 2.64.36 3.44 1.16.12.12.18.26.18.38a.65.65 0 0 1-.62.6c-.12 0-.26-.04-.38-.16-.62-.6-1.74-.84-2.62-.84-1.76 0-2.7.682-2.7 1.66 0 2.8 6.562 1.32 6.562 5.422 0 2.28-2 3.08-4.06 3.08z"/><use xlink:href="#E"/><path d="M845.5 1045.98c-.28 0-.58-.2-.58-.56v-.64c-.84.98-2.06 1.54-3.42 1.54-2.48 0-4.56-2.08-4.56-4.56v-5.842c0-.36.3-.56.58-.56.26 0 .56.2.56.56v5.842c0 1.9 1.52 3.42 3.42 3.42s3.42-1.52 3.42-3.42v-5.842c0-.36.3-.56.58-.56.26 0 .56.2.56.56v9.502c0 .36-.3.56-.56.56z"/><use xlink:href="#F"/><path d="M863.64 1044.797c-.88.98-2.1 1.52-3.58 1.52-3.22 0-5.02-2.64-5.02-5.662 0-3 1.8-5.64 5.02-5.64 1.48 0 2.7.54 3.58 1.52.12.12.16.262.16.38a.63.63 0 0 1-.58.6c-.14 0-.28-.06-.42-.2-.66-.74-1.58-1.16-2.74-1.16-2.36 0-3.88 1.9-3.88 4.5s1.52 4.52 3.88 4.52c1.16 0 2.08-.44 2.74-1.16.14-.14.28-.2.42-.2.3 0 .58.26.58.58 0 .14-.04.26-.16.398zm11.58-3.56h-8.302c.18 2.28 1.66 3.94 3.84 3.94 1.08 0 2.36-.48 2.94-1.38.14-.22.3-.28.48-.28.3 0 .62.24.62.54 0 .18 0 .22-.38.658-.92 1.082-2.26 1.602-3.66 1.602-3.22 0-5.02-2.64-5.02-5.662 0-3 1.8-5.64 5.02-5.64s5.02 2.66 5.02 5.64c0 .3-.28.58-.56.58zm-4.46-5.08c-2.4 0-3.66 1.84-3.84 3.94h7.7c-.18-2.28-1.66-3.94-3.86-3.94zm8.44 3.26c-.64 0-1.16-.5-1.16-1.14s.52-1.14 1.16-1.14c.62 0 1.12.5 1.12 1.14s-.5 1.14-1.12 1.14zm0 6.563c-.64 0-1.16-.5-1.16-1.14s.52-1.14 1.16-1.14c.62 0 1.12.5 1.12 1.14s-.5 1.14-1.12 1.14zm14.22.34c-4.3 0-5.82-3.56-5.82-7.46 0-3.922 1.52-7.482 5.82-7.482 4.28 0 5.82 3.56 5.82 7.482 0 3.9-1.54 7.46-5.82 7.46zm0-13.803c-3.32 0-4.682 2.6-4.682 6.342 0 3.72 1.36 6.32 4.682 6.32 3.3 0 4.68-2.6 4.68-6.32 0-3.742-1.38-6.342-4.68-6.342zm16.7 13.465c-.28 0-.58-.2-.58-.56v-.64c-.84.98-2.06 1.54-3.42 1.54-2.48 0-4.56-2.08-4.56-4.56v-5.842c0-.36.3-.56.58-.56.26 0 .56.2.56.56v5.842c0 1.9 1.52 3.42 3.42 3.42s3.42-1.52 3.42-3.42v-5.842c0-.36.3-.56.58-.56.26 0 .56.2.56.56v9.502a.56.56 0 0 1-.561.561z"/><use xlink:href="#F" x="64.62"/><path d="M939.36 1032.455l-3.52 13.104c-.08.28-.3.42-.56.42-.24 0-.48-.14-.54-.42l-3-11.084-2.98 11.084c-.06.28-.3.42-.54.42-.26 0-.48-.14-.56-.42l-3.52-13.104c-.02-.06-.02-.12-.02-.18a.58.58 0 0 1 .58-.58c.26 0 .46.14.52.44l3 11.082 2.98-11.082a.53.53 0 0 1 .54-.4c.26 0 .48.12.56.4l2.98 11.082 3-11.082c.08-.3.28-.44.52-.44a.58.58 0 0 1 .58.58c0 .06 0 .12-.02.18z"/><use xlink:href="#E" x="116.158"/><use xlink:href="#F" x="104.378"/><path d="M961.857 1046.098c-1.08 0-1.98-1-1.98-2.12v-11.684c0-.36.3-.56.58-.56.26 0 .56.2.56.56v11.684c0 1.28 1.42.54 1.42 1.44 0 .34-.24.68-.58.68zm11.423-.118c-.28 0-.58-.2-.58-.56v-1c-.84 1.18-2.14 1.9-3.88 1.9-3.22 0-5.02-2.64-5.02-5.662 0-3 1.8-5.64 5.02-5.64 1.74 0 3.04.72 3.88 1.88v-4.602c0-.36.3-.56.58-.56.26 0 .56.2.56.56v13.123c0 .36-.3.56-.56.56zm-4.46-9.822c-2.36 0-3.88 1.9-3.88 4.5s1.52 4.52 3.88 4.52c2.38 0 3.88-1.92 3.88-4.52s-1.5-4.5-3.88-4.5zm13.336-2.722c-.64 0-1.14-.5-1.14-1.14s.5-1.14 1.14-1.14 1.14.5 1.14 1.14-.5 1.14-1.14 1.14zm0 12.543c-.28 0-.58-.18-.58-.56v-9.502c0-.36.28-.56.58-.56.26 0 .56.18.56.56v9.502c0 .36-.26.56-.56.56zm11.962.001c-.28 0-.58-.2-.58-.56v-5.842c0-1.9-1.52-3.42-3.42-3.42a3.42 3.42 0 0 0-3.421 3.42v5.842c0 .36-.3.56-.56.56-.28 0-.58-.2-.58-.56v-9.502c0-.36.3-.56.58-.56.26 0 .56.2.56.56v.64c.9-.98 2.08-1.54 3.42-1.54a4.6 4.6 0 0 1 4.561 4.561v5.842c0 .36-.3.56-.56.56zm13.14 0h-4.44a.61.61 0 0 1-.58-.561v-13.123c0-.3.28-.56.58-.56h4.44c4.12 0 5.48 3.44 5.48 7.102 0 3.72-1.36 7.143-5.48 7.143zm0-13.123h-3.88v11.982h3.88c3.42 0 4.34-2.96 4.34-5.98 0-3.562-1.24-6.002-4.34-6.002z"/><use xlink:href="#G"/><path d="M1031.737 1045.98h-.62c-1.58 0-2.36-.78-2.36-2.342v-7.14h-1.02c-.36 0-.56-.3-.56-.58 0-.26.2-.56.56-.56h1.02v-3.06c0-.36.3-.56.58-.56s.56.2.56.56v3.06h1.84c.36 0 .56.3.56.56 0 .28-.2.58-.56.58h-1.84v7.14c0 .98.28 1.2 1.22 1.2h.62c.36 0 .56.3.56.58 0 .26-.2.56-.56.56z"/><use xlink:href="#G" x="18.878"/></g><linearGradient id="B" gradientUnits="userSpaceOnUse" x1="540.15" y1="966.283" x2="540.15" y2="509.799"><stop offset="0" stop-color="#ff2094"/><stop offset="1" stop-color="#bf0"/></linearGradient><path d="M984.642 546.4l-30.637-25.205-30.637 22.573-30.637-18.266-30.72.638-30.637-2.473-30.637 9.81-30.637 19.462-30.72-6.94-30.637 4.307-30.637-35.893-30.637-4.626-30.72 1.037-30.637 3.35-30.637-2.87-30.637 1.037-30.72 6.62-30.637 20.738-30.637 11.326-30.637-.16-30.72 12.922-30.637 3.03-30.637-1.994-30.637 8.375-30.72-4.626-30.637 18.744-30.637 33.34-30.637 16.272-30.72-.638-30.637 22.174-30.637 8.056-30.637 2.313v267.436c0 16.57 13.435 30 30.01 30h951.682c16.573 0 30.01-13.43 30.01-30V546.65l-30.637-.08-30.72-.16z" opacity=".7" fill="url(#B)"/><g fill="#fff"><path d="M1015.99 168.653H64.31c-16.574 0-30.01 13.43-30.01 30v470.194l30.637-2.313 30.637-8.056 30.637-22.174 30.72.638 30.637-16.272 30.637-33.34 30.637-18.744 30.72 4.626 30.637-8.375 30.637 1.994 30.637-3.03 30.72-12.922 30.637.16 30.637-11.326 30.637-20.738 30.72-6.62 30.637-1.037 30.637 2.87 30.637-3.35 30.72-1.037 30.637 4.626 30.637 35.893 30.637-4.307 30.72 6.94 30.637-19.462 30.637-9.81 30.637 2.473 30.72-.638 30.637 18.266 30.637-22.573 30.637 25.205 30.72.16 30.637.08V198.653c0-16.57-13.435-30-30.01-30z" fill-opacity=".1"/><path d="M60.78 724.598c-4.02 0-7.57-2.24-9.503-5.712-.26-.448-.366-.896-.366-1.288 0-1.344 1.097-2.353 2.297-2.353.68 0 1.4.28 1.88 1.12 1.15 2.128 3.237 3.473 5.64 3.473 3.916 0 7.154-3.473 7.154-7.56 0-4.2-3.186-7.672-7.102-7.672h-.052c-1.357 0-2.193-1.12-2.193-2.352s.888-2.408 2.245-2.408c3.185 0 5.744-2.632 5.744-6.16 0-3.36-2.56-6.104-5.744-6.104-5.065 0-5.117 5.487-7.832 5.487-1.2 0-2.35-1.008-2.35-2.352a2.6 2.6 0 0 1 .366-1.344c1.253-2.072 4.386-6.608 9.816-6.608 5.64 0 10.182 4.928 10.182 10.92 0 3.416-1.357 6.384-3.708 8.4 3.03 2.24 5.065 5.88 5.065 10.136 0 6.832-5.17 12.376-11.54 12.376zm34.615-35.672l-12 33.208c-.418 1.12-1.044 1.567-1.932 1.567-1.15 0-2.35-.95-2.35-2.352 0-.336.104-.616.2-.952l11.383-31.864H76.754c-1.148 0-2.193-.896-2.193-2.407 0-1.288.992-2.353 2.193-2.353h17.18c1.15 0 2.297.784 2.297 2.408 0 .672-.68 2.184-.835 2.744z"/><use xlink:href="#H"/><path d="M56.297 758.445c-.405 0-.757-.32-.757-.812v-17.346l-2.947 3.074c-.135.175-.324.262-.514.262-.433 0-.8-.436-.8-.9 0-.174.108-.377.243-.55l4.272-4.438c.216-.174.433-.232.514-.232.568 0 .784.436.784 1.016v19.115c0 .493-.324.813-.784.813zm5.623 0c-.865 0-1.54-.726-1.54-1.653s.676-1.653 1.54-1.653 1.54.725 1.54 1.653-.676 1.653-1.54 1.653zm9.87.493c-3.164 0-5.786-2.756-5.786-6.18 0-2.378 1.163-4.4 2.974-5.453-1.38-.957-2.27-2.6-2.27-4.583 0-2.988 2.27-5.453 5.084-5.453s5.083 2.465 5.083 5.453c0 1.973-.92 3.626-2.298 4.583 1.812 1.044 2.975 3.075 2.975 5.424 0 3.395-2.542 6.208-5.76 6.208zm0-10.732c-2.298 0-4.245 2-4.245 4.524 0 2.495 1.893 4.555 4.218 4.555 2.352 0 4.245-2.06 4.245-4.525 0-2.523-1.866-4.554-4.218-4.554zm0-9.282c-1.974 0-3.542 1.7-3.542 3.8s1.568 3.83 3.542 3.83c1.947 0 3.542-1.712 3.542-3.83 0-2.1-1.595-3.8-3.542-3.8zm21.168 20.014c-2.352 0-4.1-1.044-5.245-2.756v1.45c0 .522-.406.813-.757.813a.79.79 0 0 1-.784-.812v-19.028c0-.522.406-.812.784-.812.352 0 .757.3.757.813v6.672c1.135-1.683 2.893-2.727 5.245-2.727 4.354 0 6.787 3.83 6.787 8.18 0 4.38-2.433 8.2-6.787 8.2zm0-14.735c-3.217 0-5.245 2.756-5.245 6.526s2.028 6.556 5.245 6.556 5.246-2.785 5.246-6.556-2.028-6.526-5.246-6.526z" opacity=".6"/><use xlink:href="#I" opacity=".6"/><use xlink:href="#J" opacity=".6"/><use xlink:href="#K" opacity=".6"/><use xlink:href="#I" x="15.601" opacity=".6"/><path d="M129.025 758.938c-4.354 0-6.787-3.83-6.787-8.2 0-4.35 2.433-8.18 6.787-8.18s6.787 3.83 6.787 8.18c0 4.38-2.434 8.2-6.787 8.2zm0-14.735c-3.2 0-5.246 2.756-5.246 6.526s2.055 6.556 5.246 6.556c3.217 0 5.245-2.785 5.245-6.556s-2.028-6.526-5.245-6.526zm21.035 14.242a.79.79 0 0 1-.784-.812v-8.47c0-2.756-2.055-4.96-4.624-4.96-2.542 0-4.624 2.204-4.624 4.96v8.47c0 .522-.406.813-.757.813a.79.79 0 0 1-.784-.812v-13.778c0-.52.406-.812.784-.812a.78.78 0 0 1 .757.812v.93c1.216-1.422 2.812-2.233 4.624-2.233 3.353 0 6.165 2.987 6.165 6.613v8.47a.78.78 0 0 1-.757.813z" opacity=".6"/><path d="M960.906 627.84c-3.5 0-7.467-2.016-9.4-5.32a2.62 2.62 0 0 1-.365-1.344c0-1.288 1.044-2.297 2.245-2.297.992 0 1.358.393 2.14 1.513 1.305 1.735 3.342 2.688 5.378 2.688 3.603 0 7.258-3.527 7.258-8.567 0-5.097-3.655-8.624-7.258-8.624-2.767 0-4.647 1.512-5.535 3.136-.418.84-1.15 1.288-2.037 1.288-1.357 0-2.245-.952-2.245-2.8V589.76c0-1.288 1.044-2.353 2.245-2.353h15.874c1.515 0 2.298 1.12 2.298 2.408 0 1.176-.73 2.352-2.193 2.352h-13.785v10.473c1.253-.952 3.237-1.513 5.378-1.513 6.423 0 11.696 5.824 11.696 13.385 0 7.447-5.273 13.327-11.696 13.327zm34.144-.56h-15.978c-1.514 0-2.402-.952-2.402-2.128 0-.504.157-1.008.47-1.512l14.255-23.24c.627-1.064.992-2.352.992-3.36 0-3.304-2.297-5.823-5.378-5.823-2.768 0-5.117 2.52-6.005 4.312-.418.84-1.097 1.176-1.775 1.176a2.33 2.33 0 0 1-2.297-2.296c0-1.735 3.707-8.008 10.078-8.008 5.43 0 9.816 4.76 9.816 10.528a11.47 11.47 0 0 1-1.775 6.048l-11.958 19.544h11.958c1.514 0 2.297 1.12 2.297 2.408 0 1.176-.783 2.352-2.297 2.352z"/><use xlink:href="#H" x="901.276" y="-96.365"/><path d="M956.834 658.223h-1.758v3.046c0 .522-.405.813-.784.813-.35 0-.757-.3-.757-.812v-3.046h-7.273c-.54 0-.8-.318-.8-.725 0-.146.027-.35.135-.522l7.625-15.605c.163-.32.433-.464.703-.464.378 0 .784.348.784.812 0 .116-.027.262-.108.436l-7.03 14.416h5.976v-3.74c0-.58.406-.87.757-.87.38 0 .784.3.784.84v3.77h1.758c.486 0 .757.406.757.813s-.27.84-.757.84zm14.626 4.35c-2.352 0-4.1-1.044-5.246-2.756v1.45a.78.78 0 0 1-.757.813.79.79 0 0 1-.784-.812v-19.03c0-.522.406-.812.784-.812a.78.78 0 0 1 .757.813v6.672c1.136-1.683 2.894-2.727 5.246-2.727 4.354 0 6.787 3.83 6.787 8.18 0 4.38-2.433 8.2-6.787 8.2zm0-14.735c-3.217 0-5.246 2.756-5.246 6.526s2.028 6.556 5.246 6.556 5.246-2.785 5.246-6.556-2.028-6.526-5.246-6.526zm10.246-3.945c-.865 0-1.54-.725-1.54-1.653s.676-1.653 1.54-1.653 1.54.726 1.54 1.653-.676 1.653-1.54 1.653zm0 18.188c-.378 0-.784-.26-.784-.812V647.5a.77.77 0 0 1 .784-.812.76.76 0 0 1 .757.812v13.778c0 .522-.352.813-.757.813z" opacity=".6"/><use xlink:href="#K" x="873.123" y="-96.365" opacity=".6"/><use xlink:href="#J" x="883.884" y="-96.365" opacity=".6"/><path d="M997.307 643.894c-.865 0-1.54-.725-1.54-1.653s.676-1.653 1.54-1.653 1.54.726 1.54 1.653-.676 1.653-1.54 1.653zm0 18.188c-.378 0-.784-.26-.784-.812V647.5a.77.77 0 0 1 .784-.812.76.76 0 0 1 .757.812v13.778c0 .522-.35.813-.757.813zm10.22.492c-4.354 0-6.787-3.83-6.787-8.2 0-4.35 2.434-8.18 6.787-8.18s6.787 3.83 6.787 8.18c0 4.38-2.434 8.2-6.787 8.2zm0-14.735c-3.2 0-5.246 2.756-5.246 6.526s2.055 6.556 5.246 6.556c3.217 0 5.245-2.785 5.245-6.556s-2.028-6.526-5.245-6.526zm21.035 14.24a.79.79 0 0 1-.784-.812v-8.47c0-2.756-2.055-4.96-4.623-4.96-2.542 0-4.624 2.204-4.624 4.96v8.47a.78.78 0 0 1-.757.813.79.79 0 0 1-.784-.812V647.5c0-.52.406-.812.784-.812a.78.78 0 0 1 .757.812v.93c1.217-1.422 2.813-2.233 4.624-2.233 3.352 0 6.164 2.987 6.164 6.613v8.47c0 .522-.406.813-.757.813z" opacity=".6"/></g><g opacity=".5" fill="#fff"><path d="M34.513 1004.486v-2.16h2.957V981.43l-3.024.288v-1.585c1.378-.36 2.722-1 3.83-2.018h1.613v24.2h2.822v2.16h-8.198zm13.17-4.826c.336 2.594 1.68 3.025 2.62 3.025 2.15 0 3.495-3.17 3.562-10.4-.974 1.117-2.285 1.98-3.73 1.98-2.722 0-5.208-2.1-5.208-7.998 0-5.043 2.016-8.142 5.208-8.142 4.2 0 6.216 2.594 6.216 11.96 0 10.447-2.285 14.77-6.115 14.77-3.125 0-4.3-2.018-4.77-5.044l2.218-.144zm6.25-12.25c0-5.26-1.277-7.134-3.427-7.134-1.88 0-3.158 1.514-3.158 6.017 0 4.647 1.478 5.8 3.024 5.8s2.755-1.08 3.562-2.234v-2.45zm10.278 17.437c-3.763 0-5.98-3.17-5.98-6.917 0-3.206 1.58-5.512 3.897-7.277-2.15-1.837-3.36-3.64-3.36-6.7 0-3.422 2.42-5.836 5.443-5.836s5.443 2.414 5.443 5.836c0 3.063-1.2 4.864-3.36 6.7 2.318 1.766 3.897 4.07 3.897 7.277 0 3.747-2.218 6.917-5.98 6.917zm0-12.825c-1.95 1.55-3.562 3.206-3.562 6.017 0 2.125 1.075 4.646 3.562 4.646s3.562-2.52 3.562-4.646c0-2.8-1.612-4.468-3.562-6.017zm0-11.745c-2.083 0-3.024 1.73-3.024 3.387 0 2.63 1.2 4.575 3.024 5.765 1.814-1.2 3.024-3.135 3.024-5.765 0-1.657-.94-3.387-3.024-3.387z"/><use xlink:href="#L"/></g><g opacity=".5" fill="#fff"><path d="M996.687 1004.986v-2.16c2.15-7.7 8.87-12.033 8.87-17.94 0-2.738-1.277-4.107-2.923-4.107-1.916 0-3.327 1.586-3.528 5.477h-2.218c.27-5.908 2.755-7.638 5.678-7.638 3.192 0 5.4 2.306 5.4 6.63 0 6.484-5.443 8.502-9.072 17.58h9.206v2.16h-11.424zm19.418.36c-3.965 0-5.846-3.963-5.846-13.366s1.88-13.365 5.846-13.365 5.847 3.963 5.847 13.365-1.882 13.366-5.847 13.366zm0-24.57c-2.217 0-3.427 2.666-3.427 11.204s1.2 11.204 3.427 11.204 3.427-2.665 3.427-11.204-1.2-11.204-3.427-11.204zm7.658 24.21v-2.16h2.957V981.93l-3.024.288v-1.585c1.378-.36 2.722-1 3.83-2.018h1.613v24.2h2.822v2.16h-8.198z"/><use xlink:href="#L" x="960.763" y="0.5"/></g><g fill="#9fc83a"><path d="M57.584 952.16c-6.784 0-6.848-8.127-6.848-12.8 0-4.576.704-11.104 6.815-11.104 5.984 0 6.88 6.144 6.88 11.104 0 4.64-.096 12.8-6.848 12.8zm5.023-12.8c0-4.576-.64-9.28-5.023-9.28-4.8 0-5.023 5.888-5.023 9.28v2.048c0 3.712.704 8.927 5 8.927 4.384 0 5.056-5.215 5.056-8.927v-2.048zm-5.663-362.184c-2.144 0-4.576-1.152-5.76-3.04-.128-.192-.16-.353-.16-.512 0-.513.48-.93.96-.93s.512.257.992.77c1.024 1.216 2.368 1.888 3.968 1.888 2.816 0 5.344-2.432 5.344-5.792 0-3.392-2.528-5.823-5.344-5.823-2.208 0-3.647 1.408-4.224 2.27-.192.32-.48.448-.864.448-.544 0-.928-.352-.928-.96V554.97c0-.544.416-.896.896-.896h10.688c.64 0 .96.448.96.896s-.32.896-.96.896h-9.76v7.487c1.024-.832 2.4-1.44 4.2-1.44 3.936 0 7.167 3.328 7.167 7.647 0 4.256-3.23 7.616-7.167 7.616zm17.568.224c-6.784 0-6.848-8.127-6.848-12.8 0-4.576.704-11.104 6.815-11.104 5.984 0 6.88 6.144 6.88 11.104 0 4.64-.096 12.8-6.848 12.8zm5.023-12.8c0-4.576-.64-9.28-5.023-9.28-4.8 0-5.023 5.888-5.023 9.28v2.048c0 3.712.704 8.927 5 8.927 4.384 0 5.056-5.215 5.056-8.927V564.6zM56.688 213.755c-.48 0-.896-.352-.896-.896v-19.135l-3.488 3.392a.79.79 0 0 1-.608.288c-.512 0-.96-.48-.96-.992 0-.192.128-.416.288-.608l5.056-4.896c.256-.192.512-.256.608-.256.672 0 .928.48.928 1.12v21.086c0 .544-.384.896-.928.896z"/><use xlink:href="#M"/><use xlink:href="#M" x="17.152"/><path d="M99.69 197.363c-1.624 0-2.948-1.474-2.948-3.284s1.325-3.266 2.948-3.266c1.605 0 2.93 1.456 2.93 3.266s-1.325 3.284-2.93 3.284zm0-5.505c-.933 0-1.885.877-1.885 2.22s.952 2.22 1.885 2.22 1.866-.877 1.866-2.22-.933-2.22-1.866-2.22zm7.054-.7l-3.564 12.876c-.093.26-.243.392-.466.392-.28 0-.58-.224-.58-.54 0-.056 0-.112.02-.15l3.564-12.876c.093-.28.26-.41.485-.41a.59.59 0 0 1 .56.56c0 .037 0 .075-.02.15zm2.314 12.933c-1.605 0-2.93-1.474-2.93-3.284 0-1.792 1.325-3.266 2.93-3.266 1.624 0 2.95 1.474 2.95 3.266 0 1.8-1.325 3.284-2.95 3.284zm0-5.486c-.933 0-1.866.877-1.866 2.202 0 1.343.933 2.22 1.866 2.22.952 0 1.885-.877 1.885-2.22 0-1.325-.933-2.202-1.885-2.202z"/><use xlink:href="#N"/><path d="M143.392 195.388h-.868c-.672 0-1.232.56-1.232 1.204v2.296h2.1c.532 0 .784.42.784.784 0 .392-.28.812-.784.812h-2.1v12.488c0 .504-.392.784-.784.784s-.784-.252-.784-.784v-12.488h-1.932c-.504 0-.784-.42-.784-.812 0-.364.28-.784.784-.784h1.932v-2.296a2.78 2.78 0 0 1 2.772-2.772h.896c.504 0 .812.392.812.812 0 .392-.28.756-.812.756zm15.624 24.752c-2.38 0-5.74-.896-5.74-1.904 0-.448.364-.896.812-.896.308 0 .952.476 1.484.672.728.252 1.876.532 3.444.532 3.584 0 5.432-1.764 5.432-5.208v-1.96c-1.232 1.484-2.996 2.38-5.432 2.38-4.424 0-7.028-3.136-7.028-7.448 0-4.2 2.52-7.896 7.028-7.896 2.436 0 4.256 1.008 5.432 2.632V199.7c0-.504.42-.784.812-.784.364 0 .784.28.784.784v13.636c0 4.452-2.66 6.804-7.028 6.804zm0-20.132c-3.304 0-5.432 2.66-5.432 6.3 0 3.612 1.988 5.852 5.432 5.852s5.432-2.24 5.432-5.852c0-3.64-2.1-6.3-5.432-6.3z"/><use xlink:href="#O"/><use xlink:href="#N" x="52.945"/><path d="M198.243 214.23c-2.436 0-4.256-1.008-5.432-2.66v1.4c0 .504-.42.784-.784.784-.392 0-.812-.28-.812-.784v-18.368c0-.504.42-.784.812-.784.364 0 .784.28.784.784v6.44c1.176-1.624 2.996-2.632 5.432-2.632 4.508 0 7.028 3.696 7.028 7.896 0 4.228-2.52 7.924-7.028 7.924zm0-14.224c-3.332 0-5.432 2.66-5.432 6.3s2.1 6.328 5.432 6.328 5.432-2.688 5.432-6.328-2.1-6.3-5.432-6.3z"/><use xlink:href="#P"/><use xlink:href="#O" x="56"/><use xlink:href="#Q"/><use xlink:href="#N" x="132.07"/><use xlink:href="#Q" x="33.013"/><path d="M298.9 213.755c-.392 0-.812-.28-.812-.784v-.896c-1.176 1.372-2.884 2.156-4.788 2.156-3.472 0-6.384-2.912-6.384-6.384v-8.176c0-.504.42-.784.812-.784.364 0 .784.28.784.784v8.176a4.77 4.77 0 1 0 9.576 0v-8.176c0-.504.42-.784.812-.784.364 0 .784.28.784.784v13.3c0 .504-.42.784-.784.784z"/><use xlink:href="#O" x="133.642"/><use xlink:href="#P" x="100.628"/><path d="M331.2 213.755h-.868c-2.212 0-3.304-1.092-3.304-3.276v-9.996H325.6c-.504 0-.784-.42-.784-.812 0-.364.28-.784.784-.784h1.428v-4.284c0-.504.42-.784.812-.784s.784.28.784.784v4.284h2.576c.504 0 .784.42.784.784 0 .392-.28.812-.784.812h-2.576v9.996c0 1.372.392 1.68 1.708 1.68h.868c.504 0 .784.42.784.812 0 .364-.28.784-.784.784zm3.585-17.555c-.896 0-1.596-.7-1.596-1.596s.7-1.596 1.596-1.596 1.596.7 1.596 1.596-.7 1.596-1.596 1.596zm0 17.556c-.392 0-.812-.252-.812-.784v-13.3c0-.504.392-.784.812-.784.364 0 .784.252.784.784v13.3c0 .504-.364.784-.784.784z"/><use xlink:href="#N" x="216.91"/><path d="M367.163 213.755c-.392 0-.812-.28-.812-.784v-8.176a4.77 4.77 0 0 0-4.788-4.788c-2.632 0-4.788 2.128-4.788 4.788v8.176c0 .504-.42.784-.784.784-.392 0-.812-.28-.812-.784v-13.3c0-.504.42-.784.812-.784.364 0 .784.28.784.784v.896c1.26-1.372 2.912-2.156 4.788-2.156a6.44 6.44 0 0 1 6.384 6.384v8.176c0 .504-.42.784-.784.784z"/></g><g opacity=".65" fill="none" stroke="#fff" stroke-width="2" stroke-miterlimit="10"><path d="M94.77 567.468h1"/><path d="M101.764 567.468h940.238" stroke-dasharray="1.99838,5.99514"/><path d="M1045 567.468h1"/></g><g fill="#fff"><path d="M199.66 80.06c-1.26 0-2.52-.9-2.52-2.58v-27.6l-11.64 21.72c-.78 1.5-1.92 1.62-2.4 1.62-.3 0-1.56-.12-2.4-1.62L169.123 50v27.48c0 1.68-1.26 2.58-2.64 2.58-1.26 0-2.52-.9-2.52-2.58v-37.5c0-1.98 1.38-2.7 2.76-2.7.9 0 1.62.42 2.16 1.5l14.22 26.46 14.28-26.46c.6-1.2 1.32-1.5 2.34-1.5 1.32 0 2.58.84 2.58 2.7v37.5c0 1.68-1.26 2.58-2.64 2.58z"/><use xlink:href="#R"/><use xlink:href="#S"/><use xlink:href="#T"/><path d="M326.727 42.382h-9.96v35.1c0 1.62-1.2 2.52-2.52 2.52-1.26 0-2.58-.9-2.58-2.52v-35.1h-9.84c-1.74 0-2.64-1.32-2.64-2.58 0-1.2.9-2.52 2.58-2.52h24.96c1.68 0 2.58 1.32 2.58 2.52 0 1.26-.9 2.58-2.58 2.58z"/><use xlink:href="#U"/><use xlink:href="#V"/><path d="M428.367 80c-1.32 0-2.52-.9-2.52-2.52V60.8c0-4.68-3.9-8.58-8.58-8.58-4.62 0-8.52 3.9-8.52 8.58v16.62c0 1.68-1.26 2.64-2.64 2.64-1.26 0-2.52-.9-2.52-2.58V50.66c0-1.74 1.26-2.52 2.52-2.52 1.2 0 2.28.66 2.58 1.98 2.34-1.86 5.28-3 8.58-3 7.44 0 13.68 6.18 13.68 13.68v16.62c0 1.68-1.2 2.58-2.58 2.58zm48.058 0c-1.32 0-2.64-.9-2.64-2.52V59.66h-19.8v17.82c0 1.62-1.38 2.52-2.52 2.52-1.32 0-2.64-.9-2.64-2.52V39.802c0-1.68 1.32-2.52 2.64-2.52 1.14 0 2.52.84 2.52 2.52v14.76h19.8v-14.7c0-1.74 1.38-2.58 2.52-2.58 1.32 0 2.64.84 2.64 2.58V77.42c0 1.68-1.38 2.58-2.52 2.58z"/><use xlink:href="#V" x="116.817"/><use xlink:href="#W"/><path d="M543.144 53.242h-2.7v24.18c0 1.68-1.26 2.52-2.64 2.52-1.26 0-2.52-.84-2.52-2.52v-24.18h-2.46c-1.62 0-2.52-1.2-2.52-2.52 0-1.38.9-2.58 2.52-2.58h2.46v-4.08c0-3.84 3.18-6.78 6.9-6.78 1.74 0 2.64 1.2 2.64 2.58 0 1.26-.9 2.52-2.64 2.52-1.02 0-1.74.78-1.74 1.62v4.14h2.7c1.74 0 2.64 1.2 2.64 2.58 0 1.32-.9 2.52-2.64 2.52zM571.223 80h-1.02c-5.7 0-7.86-3-7.86-7.92V53.24h-1.8c-1.44 0-2.58-1.14-2.58-2.52 0-1.44 1.14-2.58 2.52-2.58h1.8V39.8c0-1.68 1.26-2.52 2.58-2.52s2.52.84 2.52 2.52v8.34h3.84c1.68 0 2.52 1.38 2.52 2.52 0 1.44-.96 2.58-2.52 2.58h-3.84v19.38c0 1.68.6 2.28 2.28 2.28h1.5c1.56 0 2.58 1.14 2.58 2.52 0 1.44-.96 2.58-2.52 2.58z"/><use xlink:href="#U" x="242.635"/><use xlink:href="#T" x="352.97"/><path d="M699.14 40.462l-9.9 37.438c-.3 1.44-1.08 2.1-2.46 2.1-1.26 0-2.16-.66-2.58-2.1l-8.1-28.74-8.04 28.74c-.42 1.44-1.26 2.1-2.52 2.1-1.32 0-2.16-.66-2.52-2.1l-9.9-37.438c-.06-.24-.12-.54-.12-.84 0-1.5 1.38-2.34 2.7-2.34 1.02 0 2.04.6 2.4 1.86l7.56 28.62 7.92-28.38c.42-1.44 1.26-2.1 2.52-2.1 1.32 0 2.16.66 2.58 2.1l7.92 28.38 7.56-28.62c.36-1.32 1.56-1.98 2.46-1.98 1.32 0 2.64.96 2.64 2.46 0 .3-.06.6-.12.84z"/><use xlink:href="#R" x="491.618"/><use xlink:href="#S" x="490.42"/><use xlink:href="#W" x="231.714"/><path d="M790.76 79.94c-1.32 0-2.58-.84-2.58-2.52 0 0-3.54 3.6-9.9 3.6-9.66 0-15.06-7.92-15.06-16.98 0-9 5.4-16.92 15.06-16.92 4.2 0 7.56 1.44 9.9 3.9V39.86c0-1.74 1.26-2.58 2.58-2.58s2.58.84 2.58 2.52v37.62c0 1.68-1.26 2.52-2.58 2.52zm-12.48-27.72c-6 0-9.9 4.68-9.9 11.82 0 7.2 3.9 11.88 9.9 11.88 6.06 0 9.9-4.68 9.9-11.88 0-7.14-3.84-11.82-9.9-11.82zM839.237 80c-.78 0-1.62-.42-2.16-1.32l-20.16-30.3v29.04c0 1.68-1.26 2.58-2.64 2.58-1.26 0-2.52-.9-2.52-2.52V39.862c0-1.68 1.32-2.58 2.64-2.58.84 0 1.56.36 2.16 1.26l20.16 30.3v-28.98c0-1.74 1.26-2.58 2.52-2.58 1.38 0 2.64.84 2.64 2.52V77.42c0 1.62-1.32 2.58-2.64 2.58z"/><use xlink:href="#R" x="639.576"/><path d="M921.376 51.562l-9.3 26.34c-.48 1.32-1.32 2.1-2.64 2.1-1.26 0-1.98-.54-2.52-2.1l-7.02-19.8-7.08 19.8c-.48 1.44-1.32 2.1-2.58 2.1-1.2 0-2.04-.66-2.52-2.1l-9.24-26.34c-.12-.36-.12-.6-.12-.96 0-1.5 1.38-2.46 2.64-2.46.96 0 1.92.48 2.34 1.68l6.96 20.04 7.08-19.62c.48-1.38 1.08-2.1 2.52-2.1 1.32 0 2.04.66 2.52 2.1l7.02 19.62 7.02-20.04c.42-1.2 1.38-1.68 2.28-1.68 1.38 0 2.76 1.02 2.76 2.52 0 .3 0 .54-.12.9z"/></g><g fill="#9fc83a"><path d="M303.874 141.2h-18.24c-1.44 0-2.64-1.14-2.64-2.52v-37.618c0-1.74 1.38-2.58 2.52-2.58 1.32 0 2.64.84 2.64 2.52v35.1h15.72c1.38 0 2.52 1.14 2.52 2.52 0 1.44-1.14 2.58-2.52 2.58z"/><use xlink:href="#X"/><path d="M347.973 112.882l-10.92 26.28c-.54 1.38-1.44 2.04-2.58 2.04-1.02 0-1.98-.66-2.58-2.04l-10.92-26.28c-.12-.42-.18-.72-.18-1.08 0-1.44 1.32-2.46 2.64-2.46.9 0 1.8.48 2.28 1.56l8.76 21 8.76-21c.42-1.14 1.5-1.62 2.34-1.62 1.38 0 2.64.96 2.64 2.46a2.99 2.99 0 0 1-.24 1.14z"/><use xlink:href="#T" x="92.462" y="61.2"/><path d="M393.153 142.22c-3.3 0-8.82-1.02-11.64-4.5-.36-.54-.54-1.08-.54-1.56 0-1.5 1.44-2.7 2.7-2.7.72 0 1.26.36 1.86 1.02 1.86 2.04 4.92 2.64 7.62 2.64 5.4 0 7.14-1.86 7.14-4.56 0-7.68-18.3-2.94-18.3-15.3 0-6.54 6.12-8.94 11.82-8.94 3.24 0 10.86 1.62 10.86 4.98 0 1.32-1.08 2.7-2.52 2.7-.54 0-1.38-.3-1.98-.78-1.62-1.38-3.96-1.8-6.36-1.8-4.98 0-6.72 1.86-6.72 3.84 0 7.14 18.36 2.52 18.36 15.3 0 7.08-5.94 9.66-12.3 9.66z"/><use xlink:href="#X" x="110.878"/><path d="M457.95 141.2c-1.32 0-2.52-.9-2.52-2.52V122c0-4.68-3.9-8.58-8.58-8.58-4.62 0-8.52 3.9-8.52 8.58v16.62c0 1.68-1.26 2.64-2.64 2.64-1.26 0-2.52-.9-2.52-2.58v-26.82c0-1.74 1.26-2.52 2.52-2.52 1.2 0 2.28.66 2.58 1.98 2.34-1.86 5.28-3 8.58-3 7.44 0 13.68 6.18 13.68 13.68v16.62c0 1.68-1.2 2.58-2.58 2.58z"/><use xlink:href="#V" x="107.763" y="61.2"/><path d="M538.708 141.2h-12.42c-1.38 0-2.64-1.26-2.64-2.52v-37.618c0-1.38 1.26-2.58 2.64-2.58h12.42c12.36 0 16.44 10.2 16.44 21.3 0 11.16-4.08 21.42-16.44 21.42zm0-37.62h-9.9v32.52h9.9c7.74 0 11.28-5.7 11.28-16.32 0-10.44-3.54-16.2-11.28-16.2z"/><use xlink:href="#T" x="302.337" y="61.2"/><path d="M631.166 141.2c-1.26 0-2.52-.9-2.52-2.52v-18.9c0-3.48-2.88-6.36-6.3-6.36-3.54 0-6.36 2.88-6.36 6.3v18.9c0 1.68-1.2 2.58-2.58 2.58-1.32 0-2.52-.9-2.52-2.52v-18.9c0-3.48-2.88-6.36-6.36-6.36s-6.36 2.88-6.36 6.3v18.9c0 1.68-1.26 2.58-2.64 2.58-1.26 0-2.52-.9-2.52-2.52v-26.82c0-1.74 1.32-2.58 2.64-2.58.84 0 1.68.36 2.16 1.14a11.56 11.56 0 0 1 6.66-2.1c3.6 0 6.84 1.62 8.94 4.26 2.1-2.64 5.28-4.26 8.88-4.26 6.36 0 11.52 5.1 11.52 11.4v18.9c0 1.68-1.26 2.58-2.64 2.58z"/><use xlink:href="#R" x="429.765" y="61.2"/><use xlink:href="#Y"/><path d="M714.565 113.422c-4.62 0-8.52 3.9-8.52 8.58v16.62c0 1.68-1.26 2.58-2.64 2.58-1.26 0-2.52-.9-2.52-2.52v-26.76c0-1.68 1.38-2.58 2.52-2.58 1.2 0 2.34.66 2.58 2.04 2.34-1.92 5.52-3.06 8.58-3.06 1.74 0 2.64 1.2 2.64 2.58 0 1.32-.9 2.52-2.64 2.52z"/><use xlink:href="#V" x="349.857" y="61.2"/><use xlink:href="#Y" x="84.178"/><path d="M812.243 112.942l-16.2 36.838c-1.2 2.76-3.84 4.02-6.6 4.02h-1.92c-1.74 0-2.52-1.26-2.52-2.64 0-1.26.78-2.52 2.52-2.52h1.86c.78 0 1.62-.12 1.98-.96l3.96-8.88-11.7-25.86c-.24-.42-.3-.78-.3-1.14 0-1.5 1.44-2.52 2.76-2.52.9 0 1.68.48 2.16 1.56l9.78 21.72 9.54-21.72c.48-1.08 1.38-1.5 2.22-1.5 1.38 0 2.76 1.02 2.76 2.46 0 .42-.06.72-.3 1.14z"/></g><defs ><path id="D" d="M104.714 1045.51c-.633 0-1.267-.367-1.4-1.1-1.334 1.034-2.97 1.668-4.804 1.668-4.136 0-7.604-3.436-7.604-7.605v-9.24a1.37 1.37 0 0 1 1.4-1.435c.768 0 1.468.5 1.468 1.4v9.272c0 2.602 2.168 4.77 4.736 4.77 2.603 0 4.77-2.17 4.77-4.77v-9.24c0-1.034.667-1.468 1.4-1.468.768 0 1.435.5 1.435 1.435v14.9c0 .934-.667 1.4-1.4 1.4z"/><path id="E" d="M829.72 1046.318c-3.22 0-5.02-2.64-5.02-5.662 0-3 1.8-5.64 5.02-5.64s5.02 2.64 5.02 5.64c0 3.02-1.8 5.662-5.02 5.662zm0-10.162c-2.36 0-3.88 1.9-3.88 4.5s1.52 4.52 3.88 4.52c2.38 0 3.88-1.92 3.88-4.52s-1.5-4.5-3.88-4.5z"/><path id="F" d="M853.46 1036.336a3.42 3.42 0 0 0-3.421 3.42v5.662c0 .36-.3.56-.56.56-.28 0-.58-.2-.58-.56v-9.502c0-.36.3-.56.58-.56.26 0 .56.2.56.56v.82c.9-.98 2.08-1.54 3.42-1.54.36 0 .58.3.58.56a.58.58 0 0 1-.58.58z"/><path id="G" d="M1025.68 1045.98h-.02c-.66 0-1.6-.36-1.98-1.56-.84 1.18-2.14 1.9-3.88 1.9-3.26 0-5.02-2.682-5.02-5.662 0-3.02 1.8-5.64 5.02-5.64 1.74 0 3.04.72 3.88 1.88v-.98c0-.32.26-.56.58-.56.28 0 .56.2.56.56v8.063c0 1.28 1.44.48 1.44 1.44a.55.55 0 0 1-.58.561zm-5.88-9.822c-2.36 0-3.88 1.9-3.88 4.5s1.52 4.52 3.88 4.52c2.38 0 3.88-1.92 3.88-4.52s-1.5-4.5-3.88-4.5z"/><path id="H" d="M106.03 695.21c-2.648 0-4.8-2.58-4.8-5.747s2.162-5.714 4.8-5.714c2.618 0 4.78 2.547 4.78 5.714s-2.162 5.747-4.78 5.747zm0-8.686c-.974 0-2.192 1.045-2.192 2.938s1.218 2.938 2.192 2.938 2.19-1.045 2.19-2.938-1.217-2.938-2.19-2.938zm12.694-1.6l-5.6 21.617c-.152.718-.67 1.045-1.187 1.045-.7 0-1.37-.522-1.37-1.372 0-.098 0-.26.03-.392l5.632-21.65c.183-.686.7-1.012 1.218-1.012.64 0 1.34.49 1.34 1.306 0 .163-.03.294-.06.457zm4.323 22.074c-2.618 0-4.78-2.58-4.78-5.747 0-3.135 2.16-5.715 4.78-5.715 2.648 0 4.8 2.58 4.8 5.715 0 3.167-2.16 5.747-4.8 5.747zm0-8.686c-.944 0-2.162 1.045-2.162 2.938 0 1.927 1.218 2.972 2.162 2.972.974 0 2.192-1.045 2.192-2.972 0-1.894-1.218-2.938-2.192-2.938z"/><path id="I" d="M103.204 740.258c-.865 0-1.54-.725-1.54-1.653s.676-1.653 1.54-1.653 1.54.726 1.54 1.653-.676 1.653-1.54 1.653zm0 18.188c-.378 0-.784-.26-.784-.812v-13.778c0-.52.378-.812.784-.812a.76.76 0 0 1 .757.812v13.778c0 .522-.35.813-.757.813z"/><path id="J" d="M109.936 758.62c-1.46 0-2.677-1.45-2.677-3.074v-16.94c0-.522.406-.812.784-.812a.78.78 0 0 1 .757.813v16.94c0 1.856 1.92.783 1.92 2.088 0 .493-.324.986-.784.986z"/><path id="K" d="M115.317 758.62c-1.46 0-2.677-1.45-2.677-3.074v-16.94c0-.522.406-.812.784-.812.352 0 .757.3.757.813v16.94c0 1.856 1.92.783 1.92 2.088 0 .493-.324.986-.784.986z"/><path id="L" d="M75.765 998.434c.202 1.874.94 4.25 3.09 4.25 2.083 0 3.63-2.306 3.63-6.81 0-4.863-1.546-6.377-3.327-6.377-1.377 0-2.654 1.117-3.058 2.522l-1.88-.36.806-13.186h8.535l-.202 2.16h-6.384l-.47 7.926c.84-.756 1.982-1.225 3.226-1.225 2.822 0 5.174 2.81 5.174 8.466 0 5.944-2.688 9.043-5.914 9.043-3.494 0-5.242-2.81-5.443-6.196l2.217-.217z"/><path id="M" d="M69.104 214.3c-6.784 0-6.848-8.127-6.848-12.8 0-4.576.704-11.104 6.815-11.104 5.984 0 6.88 6.144 6.88 11.104 0 4.64-.096 12.8-6.848 12.8zm5.023-12.8c0-4.576-.64-9.28-5.023-9.28-4.8 0-5.023 5.888-5.023 9.28v2.048c0 3.71.704 8.927 4.99 8.927 4.384 0 5.056-5.216 5.056-8.927V201.5z"/><path id="N" d="M128.47 214.23c-4.508 0-7.028-3.696-7.028-7.924 0-4.2 2.52-7.896 7.028-7.896s7.028 3.696 7.028 7.896c0 4.228-2.52 7.924-7.028 7.924zm0-14.224c-3.304 0-5.432 2.66-5.432 6.3s2.128 6.328 5.432 6.328c3.332 0 5.432-2.688 5.432-6.328s-2.1-6.3-5.432-6.3z"/><path id="O" d="M172.23 213.923c-1.512 0-2.772-1.4-2.772-2.968v-16.352c0-.504.42-.784.812-.784.364 0 .784.28.784.784v16.352c0 1.792 1.988.756 1.988 2.016 0 .476-.336.952-.812.952z"/><path id="P" d="M222.66 213.755h-.028c-.924 0-2.24-.504-2.772-2.184-1.176 1.652-2.996 2.66-5.432 2.66-4.564 0-7.028-3.752-7.028-7.924 0-4.228 2.52-7.896 7.028-7.896 2.436 0 4.256 1.008 5.432 2.632v-1.372c0-.448.364-.784.812-.784.392 0 .784.28.784.784v11.284c0 1.792 2.016.672 2.016 2.016a.77.77 0 0 1-.812.784zm-8.232-13.748c-3.304 0-5.432 2.66-5.432 6.3s2.128 6.328 5.432 6.328c3.332 0 5.432-2.688 5.432-6.328s-2.1-6.3-5.432-6.3z"/><path id="Q" d="M244.357 214.23c-2.436 0-4.256-1.008-5.432-2.66v7.252c0 .504-.42.812-.784.812-.392 0-.812-.308-.812-.812V199.67c0-.504.42-.784.812-.784.364 0 .784.28.784.784v1.372c1.176-1.624 2.996-2.632 5.432-2.632 4.508 0 7.028 3.696 7.028 7.896 0 4.228-2.52 7.924-7.028 7.924zm0-14.224c-3.332 0-5.432 2.66-5.432 6.3s2.1 6.328 5.432 6.328 5.432-2.688 5.432-6.328-2.1-6.3-5.432-6.3z"/><path id="R" d="M222.102 81.02c-9.66 0-15.06-7.92-15.06-16.98 0-9 5.4-16.92 15.06-16.92s15.06 7.92 15.06 16.92c0 9.06-5.4 16.98-15.06 16.98zm0-28.8c-6 0-9.9 4.68-9.9 11.82 0 7.2 3.9 11.88 9.9 11.88 6.06 0 9.9-4.68 9.9-11.88 0-7.14-3.84-11.82-9.9-11.82z"/><path id="S" d="M255.58 52.222c-4.62 0-8.52 3.9-8.52 8.58v16.62c0 1.68-1.26 2.58-2.64 2.58-1.26 0-2.52-.9-2.52-2.52v-26.76c0-1.68 1.38-2.58 2.52-2.58 1.2 0 2.34.66 2.58 2.04a13.88 13.88 0 0 1 8.58-3.06c1.74 0 2.64 1.2 2.64 2.58 0 1.32-.9 2.52-2.64 2.52z"/><path id="T" d="M284.07 66.68h-22.2c.84 5.64 4.44 9.24 9.72 9.24 2.7 0 5.4-.96 7.14-3.12.54-.6 1.14-.96 1.86-.96 1.32 0 2.7 1.2 2.7 2.64 0 .72-.18 1.26-1.44 2.52-2.7 2.64-6.42 4.02-10.26 4.02-9.66 0-15.06-7.98-15.06-16.98 0-8.94 5.4-16.92 15.06-16.92 9.78 0 15 7.98 15 16.92 0 1.32-.96 2.64-2.52 2.64zm-12.48-14.46c-5.64 0-8.94 4.14-9.72 9.3h19.44c-.84-5.76-4.44-9.3-9.72-9.3z"/><path id="U" d="M360.087 80c-1.32 0-2.52-.9-2.52-2.52V60.8c0-4.68-3.9-8.58-8.58-8.58-4.62 0-8.52 3.9-8.52 8.58v16.62c0 1.68-1.26 2.64-2.64 2.64-1.26 0-2.52-.9-2.52-2.58V39.862c0-1.74 1.26-2.58 2.52-2.58 1.38 0 2.64.84 2.64 2.52v10.38c2.22-2.1 5.22-3.06 8.52-3.06 7.44 0 13.68 6.18 13.68 13.68v16.62c0 1.68-1.2 2.58-2.58 2.58z"/><path id="V" d="M397.827 80c-3.3 0-4.8-2.34-5.34-3.42-2.4 2.64-5.88 4.44-10.56 4.44-9.78 0-15.06-8.04-15.06-16.98s5.4-16.92 15.06-16.92c4.2 0 7.56 1.5 9.9 3.96v-.24c0-.66.24-2.7 2.52-2.7 1.26 0 2.64.66 2.64 2.52v23.16c0 .78.54 1.08.84 1.08 1.68 0 2.58 1.2 2.58 2.58 0 1.26-.9 2.52-2.58 2.52zm-15.9-27.78c-6 0-9.9 4.68-9.9 11.82 0 7.2 3.9 11.88 9.9 11.88 6.06 0 9.9-4.68 9.9-11.88 0-7.14-3.84-11.82-9.9-11.82z"/><path id="W" d="M527.246 80.12c-3.24 0-6-2.76-6-6.12V39.862c0-1.74 1.26-2.58 2.58-2.58s2.58.84 2.58 2.52V74c0 .72.54 1.02.84 1.02 1.68 0 2.58 1.2 2.58 2.58 0 1.32-.9 2.52-2.58 2.52z"/><path id="X" d="M313.414 104.482a4.3 4.3 0 1 1 0-8.64 4.3 4.3 0 1 1 0 8.64zm0 36.72c-1.32 0-2.64-.9-2.64-2.52v-26.76c0-1.68 1.32-2.58 2.64-2.58 1.26 0 2.52.9 2.52 2.58v26.76c0 1.68-1.26 2.52-2.52 2.52z"/><path id="Y" d="M696.086 137.66c-2.64 2.94-6.3 4.56-10.74 4.56-9.66 0-15.06-7.92-15.06-16.98 0-9 5.4-16.92 15.06-16.92 4.44 0 8.1 1.62 10.74 4.56.48.54.72 1.14.72 1.74 0 1.32-1.32 2.58-2.7 2.58-.54 0-1.2-.24-1.86-.84-1.68-1.86-3.9-2.94-6.9-2.94-6 0-9.9 4.68-9.9 11.82 0 7.2 3.9 11.88 9.9 11.88 3 0 5.28-1.14 6.9-2.94.54-.66 1.26-.9 1.86-.9 1.38 0 2.7 1.2 2.7 2.64 0 .54-.24 1.2-.72 1.74z"/></defs></svg>