<svg xmlns="http://www.w3.org/2000/svg" xmlns:xlink="http://www.w3.org/1999/xlink" viewBox="0 0 1080 1080"><radialGradient id="A" cx="540" cy="540" r="540" gradientUnits="userSpaceOnUse"><stop offset="0" stop-color="#0575e6"/><stop offset=".156" stop-color="#056fdf"/><stop offset=".39" stop-color="#045eca"/><stop offset=".672" stop-color="#0342a9"/><stop offset=".989" stop-color="#021c7b"/><stop offset="1" stop-color="#021b79"/></radialGradient><path d="M1040 1080H40c-22.09 0-40-17.91-40-40V40C0 17.91 17.91 0 40 0h1000c22.09 0 40 17.91 40 40v1000c0 22.09-17.91 40-40 40z" fill="url(#A)"/><g opacity=".3" fill="#fff"><path d="M42.228 1046.045c-3.568 0-5.47-1.97-5.503-2.002 0 .935-.7 1.4-1.468 1.4-.7 0-1.4-.467-1.4-1.4v-20.88a1.35 1.35 0 0 1 1.401-1.434c.767 0 1.468.467 1.468 1.4v6.238c1.334-1.368 3.168-2.17 5.503-2.17 5.37 0 8.373 4.403 8.373 9.406 0 5.037-3.002 9.44-8.373 9.44zm0-16c-3.335 0-5.503 2.602-5.503 6.57 0 4.003 2.168 6.604 5.503 6.604s5.504-2.602 5.504-6.604c0-3.97-2.168-6.57-5.504-6.57zm25.555 8.037h-12.34c.467 3.136 2.468 5.137 5.403 5.137 1.5 0 3.002-.533 3.97-1.734.3-.333.634-.533 1.034-.533.734 0 1.5.667 1.5 1.468 0 .4-.1.7-.8 1.4-1.5 1.468-3.57 2.235-5.704 2.235-5.37 0-8.372-4.437-8.372-9.44 0-4.97 3.002-9.406 8.372-9.406 5.437 0 8.34 4.437 8.34 9.406 0 .734-.534 1.468-1.4 1.468zm-6.937-8.038c-3.136 0-4.97 2.3-5.403 5.17H66.25c-.467-3.202-2.468-5.17-5.403-5.17zm27.054 15.444c-1.834 0-2.668-1.3-2.97-1.9-1.334 1.468-3.27 2.47-5.87 2.47-5.437 0-8.372-4.47-8.372-9.44s3.002-9.406 8.372-9.406c2.335 0 4.203.834 5.504 2.202v-.134c0-.367.133-1.5 1.4-1.5.7 0 1.468.367 1.468 1.4v12.875c0 .434.3.6.467.6.935 0 1.435.667 1.435 1.434a1.37 1.37 0 0 1-1.435 1.401zm-8.84-15.443c-3.336 0-5.504 2.602-5.504 6.57 0 4.003 2.168 6.604 5.504 6.604 3.37 0 5.504-2.602 5.504-6.604 0-3.97-2.135-6.57-5.504-6.57z"/><use xlink:href="#D"/><path d="M115.058 1045.478h-.567c-3.17 0-4.37-1.668-4.37-4.403V1030.6h-1c-.8 0-1.435-.634-1.435-1.4 0-.8.634-1.435 1.4-1.435h1v-4.637c0-.934.7-1.4 1.435-1.4s1.4.467 1.4 1.4v4.637h2.135c.934 0 1.4.768 1.4 1.4 0 .8-.533 1.434-1.4 1.434h-2.135v10.774c0 .934.333 1.268 1.268 1.268h.833c.868 0 1.435.634 1.435 1.4 0 .8-.533 1.435-1.4 1.435zm4.604-20.415a2.402 2.402 0 1 1 0-4.803 2.402 2.402 0 1 1 0 4.803zm0 20.414c-.733 0-1.467-.5-1.467-1.4V1029.2c0-.935.733-1.435 1.467-1.435a1.37 1.37 0 0 1 1.401 1.435v14.876c0 .935-.7 1.4-1.4 1.4zm10.376-14.877h-1.5v13.442c0 .935-.7 1.4-1.468 1.4-.7 0-1.4-.467-1.4-1.4V1030.6h-1.37c-.9 0-1.4-.667-1.4-1.4 0-.768.5-1.435 1.4-1.435h1.367v-2.27c0-2.135 1.77-3.77 3.836-3.77.968 0 1.468.667 1.468 1.434 0 .7-.5 1.4-1.468 1.4-.566 0-.967.434-.967.9v2.302h1.5c.967 0 1.468.667 1.468 1.435 0 .733-.5 1.4-1.468 1.4z"/><use xlink:href="#D" x="42.068"/><path d="M154.625 1045.544c-1.802 0-3.336-1.534-3.336-3.402v-18.98c0-.967.7-1.434 1.435-1.434s1.435.467 1.435 1.4v19.013c0 .4.3.567.467.567.934 0 1.435.667 1.435 1.435 0 .733-.5 1.4-1.435 1.4zm15.37-.066v-1.264c1.886-.237 2.046-.437 2.046-3.157v-6.7c0-2.8-1.248-4.017-3.064-4.017-1.237 0-2.345.6-3.47 1.493v9.476c0 2.527.187 2.658 2.06 2.896v1.264h-8.968v-1.264c2.254-.33 2.5-.4 2.5-3v-8.2c0-2.446-.303-2.565-2.185-2.922v-1.184c2.173-.292 4.63-.807 6.653-1.533l-.052 2.95 2.6-1.745c1.16-.713 2-1.086 3.16-1.086 3.194 0 5.2 2.338 5.2 6.3v7.5c0 2.54.237 2.657 2.277 2.92v1.264h-8.74zm23.9-3.703c-2.458 3.427-5.488 4.178-7.014 4.178-5.142 0-8.124-3.936-8.124-8.594 0-2.745 1.183-5.396 2.832-7.062 1.74-1.8 3.945-2.814 6.082-2.814 3.73 0 6.396 3.126 6.37 6.347-.014.715-.08 1.277-.612 1.4-.767.184-6.17.5-10.318.647.062 4.587 2.717 6.74 5.556 6.74 1.572 0 3.104-.597 4.543-1.866l.686 1.014zm-7.07-12.7c-1.667 0-3.167 1.807-3.516 4.963l5.486-.118c.6-.026.848-.146.848-.792.04-2.022-1.037-4.053-2.818-4.053zm34.284.145c-1.943.343-2.248.624-3.105 2.765-1.33 3.462-3.102 8.53-4.934 13.94h-1.512l-4.65-11.46-4.55 11.46h-1.472l-4.685-14.192c-.687-1.985-.94-2.274-2.855-2.512v-1.25h9.397v1.25c-2.325.345-2.535.672-2.058 2.133l2.52 8.214c1.507-3.68 2.988-7.62 4.327-11.424H209c1.4 3.76 2.986 7.702 4.573 11.568.742-2.107 2.062-5.964 2.557-8.108.412-1.674-.008-2.078-2.753-2.383v-1.25h7.742v1.25z"/><path d="M230.528 1032.956c-.92-2.606-2.155-3.984-4.21-3.984-1.206 0-2.225.86-2.225 2.266 0 1.497 1.046 2.264 3.16 3.216 3.278 1.496 5.3 2.787 5.3 5.736 0 3.85-3.6 5.764-6.945 5.764-2.06 0-4.088-.737-4.92-1.16l-.662-4.892 1.252-.224c.8 2.51 2.33 4.75 4.976 4.75 1.505 0 2.438-.952 2.438-2.28 0-1.423-.76-2.333-3.092-3.467-2.67-1.295-5.107-2.64-5.107-5.775 0-3.046 2.533-5.42 6.565-5.42 1.818 0 3.242.396 4.112.567l.62 4.577-1.25.328z"/></g><g opacity=".6" fill="#fff"><path d="M875.46 1046.357c-1.2 0-3.22-.42-3.92-1.58-.08-.12-.08-.22-.08-.3 0-.32.28-.6.58-.6.12 0 .32.1.44.28.72.88 2 1.06 2.98 1.06 1.94 0 2.92-.64 2.92-1.94 0-3.02-6.562-1.42-6.562-5.422 0-2.02 2.02-2.8 3.84-2.8 1.04 0 2.64.36 3.44 1.16.12.12.18.26.18.38a.65.65 0 0 1-.62.6.53.53 0 0 1-.38-.16c-.62-.6-1.74-.84-2.62-.84-1.76 0-2.7.68-2.7 1.66 0 2.8 6.562 1.32 6.562 5.422 0 2.28-2 3.08-4.06 3.08z"/><use xlink:href="#E"/><path d="M901.96 1045.978c-.28 0-.58-.2-.58-.56v-.64c-.84.98-2.06 1.54-3.42 1.54-2.48 0-4.56-2.08-4.56-4.56v-5.842c0-.36.3-.56.58-.56.26 0 .56.2.56.56v5.842c0 1.9 1.52 3.42 3.42 3.42s3.42-1.52 3.42-3.42v-5.842c0-.36.3-.56.58-.56.26 0 .56.2.56.56v9.502c0 .36-.3.56-.56.56z"/><use xlink:href="#F"/><path d="M920.1 1044.797c-.88.98-2.1 1.52-3.58 1.52-3.22 0-5.02-2.64-5.02-5.66 0-3 1.8-5.64 5.02-5.64 1.48 0 2.7.54 3.58 1.52a.53.53 0 0 1 .16.381.63.63 0 0 1-.58.6c-.14 0-.28-.06-.42-.2-.66-.74-1.58-1.16-2.74-1.16-2.36 0-3.88 1.9-3.88 4.5s1.52 4.52 3.88 4.52c1.16 0 2.08-.44 2.74-1.16.14-.14.28-.2.42-.2.3 0 .58.26.58.58a.57.57 0 0 1-.16.399zm11.58-3.56h-8.302c.18 2.28 1.66 3.94 3.84 3.94 1.08 0 2.36-.48 2.94-1.38.14-.22.3-.28.48-.28.3 0 .62.24.62.54 0 .18 0 .22-.38.66-.92 1.08-2.26 1.6-3.66 1.6-3.22 0-5.02-2.64-5.02-5.66 0-3 1.8-5.64 5.02-5.64s5.02 2.66 5.02 5.64c0 .3-.28.58-.56.58zm-4.46-5.08c-2.4 0-3.66 1.84-3.84 3.94h7.7c-.18-2.28-1.66-3.94-3.86-3.94zm8.437 3.26c-.64 0-1.16-.5-1.16-1.14s.52-1.14 1.16-1.14c.62 0 1.12.5 1.12 1.14s-.5 1.14-1.12 1.14zm0 6.562c-.64 0-1.16-.5-1.16-1.14s.52-1.14 1.16-1.14c.62 0 1.12.5 1.12 1.14s-.5 1.14-1.12 1.14zm23.083-13.523l-3.52 13.103a.55.55 0 0 1-.56.42c-.24 0-.48-.14-.54-.42l-3-11.083-2.98 11.083c-.06.28-.3.42-.54.42-.26 0-.48-.14-.56-.42l-3.52-13.103c-.02-.06-.02-.12-.02-.18a.58.58 0 0 1 .58-.58c.26 0 .46.14.52.44l3 11.082 2.98-11.082c.08-.28.3-.4.54-.4.26 0 .48.12.56.4l2.98 11.082 3-11.082c.08-.3.28-.44.52-.44a.58.58 0 0 1 .58.58c0 .06 0 .12-.02.18z"/><use xlink:href="#E" x="79.078"/><use xlink:href="#F" x="67.297"/><path d="M981.237 1046.098c-1.08 0-1.98-1-1.98-2.12v-11.683c0-.36.3-.56.58-.56.26 0 .56.2.56.56v11.683c0 1.28 1.42.54 1.42 1.44 0 .34-.24.68-.58.68zm11.423-.12c-.28 0-.58-.2-.58-.56v-1c-.84 1.18-2.14 1.9-3.88 1.9-3.22 0-5.02-2.64-5.02-5.66 0-3 1.8-5.64 5.02-5.64 1.74 0 3.04.72 3.88 1.88v-4.6c0-.36.3-.56.58-.56.26 0 .56.2.56.56v13.122c0 .36-.3.56-.56.56zm-4.46-9.822c-2.36 0-3.88 1.9-3.88 4.5s1.52 4.52 3.88 4.52c2.38 0 3.88-1.92 3.88-4.52s-1.5-4.5-3.88-4.5zm19.137 9.822h-5.802c-.3 0-.58-.28-.58-.56v-13.122c0-.34.18-.56.52-.56h5.42c1.98 0 3.6 1.64 3.6 3.56 0 1.18-.52 2.2-1.42 2.86a4.06 4.06 0 0 1 2.38 3.721c0 2.28-1.84 4.1-4.12 4.1zm-.44-13.123h-4.8v4.92h4.8c1.62 0 2.46-1.44 2.46-2.44 0-1.38-1.12-2.48-2.46-2.48zm.44 6.062h-5.24v5.92h5.24c1.64 0 2.98-1.32 2.98-2.96s-1.34-2.96-2.98-2.96zm16.94 7.06h-.02c-.66 0-1.6-.36-1.98-1.56-.84 1.18-2.14 1.9-3.88 1.9-3.26 0-5.02-2.68-5.02-5.66 0-3.02 1.8-5.64 5.02-5.64 1.74 0 3.04.72 3.88 1.88v-.98c0-.32.26-.56.58-.56.28 0 .56.2.56.56v8.063c0 1.28 1.44.48 1.44 1.44a.55.55 0 0 1-.58.561zm-5.88-9.822c-2.36 0-3.88 1.9-3.88 4.5s1.52 4.52 3.88 4.52c2.38 0 3.88-1.92 3.88-4.52s-1.5-4.5-3.88-4.5zm16.84 9.822c-.28 0-.58-.2-.58-.56v-5.84c0-1.9-1.52-3.42-3.42-3.42a3.42 3.42 0 0 0-3.421 3.421v5.84c0 .36-.3.56-.56.56-.28 0-.58-.2-.58-.56v-9.502c0-.36.3-.56.58-.56.26 0 .56.2.56.56v.64c.9-.98 2.08-1.54 3.42-1.54a4.6 4.6 0 0 1 4.561 4.561v5.84c0 .36-.3.56-.56.56zm10.7-9.642l-3.44 3.44 3.4 5.32c.06.08.12.2.12.32 0 .28-.3.54-.6.54-.18 0-.36-.08-.48-.26l-3.28-5.1-2.06 2.08v2.74c0 .36-.3.56-.56.56-.28 0-.58-.2-.58-.56v-13.122c0-.36.3-.56.58-.56.26 0 .56.2.56.56v8.762l5.52-5.52a.56.56 0 0 1 .42-.18c.32 0 .58.26.58.56a.56.56 0 0 1-.181.421z"/></g><linearGradient id="B" gradientUnits="userSpaceOnUse" x1="540.188" y1="943.729" x2="540.188" y2="188.56"><stop offset="0" stop-color="#11998e"/><stop offset=".104" stop-color="#16a58c"/><stop offset=".498" stop-color="#29cd84"/><stop offset=".81" stop-color="#34e67f"/><stop offset="1" stop-color="#38ef7d"/></linearGradient><path d="M349 383.027V943.73H34V343.027h275c22.09 0 40 17.91 40 40zM657.688 248.63h-275v695.1h315v-655.1c0-22.09-17.91-40-40-40zm348.688-60.07h-275v755.17h315V228.56c0-22.09-17.91-40-40-40z" fill="url(#B)"/><g fill="#fcee21"><path d="M52.167 303.68c-2.844 4.78-4.937 9.485-6.28 14.1s-2.125 9.532-2.344 14.72c.063.406-.094.578-.47.516H40.4c-.344-.03-.484-.203-.422-.516.22-4.906 1.094-9.875 2.625-14.906a61.97 61.97 0 0 1 6.422-14.437c.28-.437.266-.656-.047-.656H34.542c-.344.063-.484-.094-.422-.47v-2.484c-.062-.344.078-.484.422-.422h17.4c.344-.062.484.078.422.422v3.47l-.187.656v-.047.047zm19.316-2.533c1.72 1.78 2.6 4.1 2.672 6.984v15.844c-.062 2.875-.953 5.22-2.672 7.03-1.72 1.78-3.984 2.703-6.797 2.766-2.78-.063-5.047-.984-6.797-2.766-1.72-1.812-2.594-4.156-2.625-7.03V308.13c.03-2.875.906-5.203 2.625-6.984 1.75-1.812 4.016-2.734 6.797-2.766 2.813.03 5.078.954 6.797 2.766zM58.78 308.13v15.844c.03 1.938.563 3.5 1.594 4.688 1.063 1.188 2.5 1.797 4.312 1.828 1.813-.03 3.25-.64 4.313-1.828s1.6-2.75 1.64-4.687v-15.844c-.03-1.937-.578-3.484-1.64-4.64-1.062-1.187-2.5-1.797-4.312-1.828-1.812.03-3.25.64-4.312 1.828-1.03 1.156-1.562 2.703-1.594 4.64v-.047.047zm24.223-9.38c.602.638.9 1.458.93 2.46v1.695c-.02 1.002-.328 1.822-.93 2.46s-1.402.966-2.404.983c-.984-.018-1.776-.346-2.378-.983-.62-.638-.938-1.458-.956-2.46V301.2c.018-1 .337-1.82.956-2.46.602-.637 1.394-.965 2.378-.983 1.002.018 1.804.346 2.404.983zm-3.7 19.13H78.1c-.22.018-.273-.073-.164-.273l11.26-19.157c.072-.22.2-.3.354-.273h1.203c.2-.018.255.064.164.246L79.64 317.578c-.072.22-.182.32-.328.3zm-.52-15.058c.072 1.275.674 1.922 1.804 1.94 1.147-.018 1.75-.665 1.804-1.94v-1.53c-.055-1.275-.656-1.922-1.804-1.94-1.13.018-1.73.665-1.804 1.94v1.53zm7.078 14.484c-.62-.638-.938-1.45-.957-2.433v-1.667c.02-.983.337-1.794.957-2.432.6-.62 1.394-.938 2.377-.957 1.002.02 1.804.337 2.405.957.6.638.9 1.45.93 2.432v1.667c-.018.984-.328 1.795-.93 2.433s-1.403.965-2.405.983c-.983-.018-1.776-.346-2.377-.983zm4.18-2.514v-1.503c-.055-1.24-.655-1.867-1.804-1.885-1.13.018-1.73.646-1.804 1.885v1.503c.073 1.257.674 1.895 1.804 1.913 1.148-.018 1.75-.656 1.804-1.913v-.027.027z"/><use xlink:href="#G"/><path d="M409 233.88c-.03.313.1.453.422.422H423.1c.344-.062.484.078.422.422v2.53c.063.344-.078.5-.422.47h-17.204c-.344.03-.484-.125-.422-.47v-2.578c.156-4.22 1.375-7.422 3.656-9.6s4.547-4.156 6.797-5.906c2.28-1.718 3.516-3.968 3.704-6.75-.03-1.687-.5-3.062-1.407-4.125-.906-1.094-2.172-1.656-3.797-1.687-1.78.03-3.156.625-4.125 1.78s-1.484 2.563-1.547 4.22c.03.438-.14.625-.516.563h-2.53c-.344.063-.484-.078-.422-.422.125-2.562 1.016-4.765 2.672-6.6 1.625-1.844 3.797-2.796 6.516-2.86 2.53.03 4.6.9 6.235 2.578 1.625 1.657 2.47 3.797 2.53 6.422-.187 3.406-1.406 6.047-3.656 7.922l-6.798 5.672c-2.28 1.875-3.547 4.547-3.797 8.016v-.047.047zm25.57-30.244c.6.638.9 1.458.93 2.46v1.695c-.02 1.002-.328 1.822-.93 2.46s-1.403.966-2.405.983c-.983-.018-1.776-.346-2.378-.983-.62-.638-.938-1.458-.956-2.46v-1.695c.018-1 .337-1.82.956-2.46.602-.637 1.395-.965 2.378-.983 1.002.018 1.804.346 2.405.983zm-3.7 19.13h-1.203c-.218.018-.272-.073-.163-.273l11.26-19.157c.072-.22.2-.3.355-.273h1.202c.2-.018.255.064.164.246L431.2 222.465c-.073.22-.183.32-.328.3zm-.52-15.058c.072 1.275.674 1.922 1.804 1.94 1.147-.018 1.75-.665 1.804-1.94v-1.53c-.055-1.275-.656-1.922-1.804-1.94-1.13.018-1.73.665-1.804 1.94v1.53zm7.078 14.484c-.62-.638-.938-1.45-.957-2.433v-1.667c.02-.983.337-1.794.957-2.432.602-.62 1.394-.938 2.378-.957 1 .02 1.803.337 2.404.957.602.638.9 1.45.93 2.432v1.667c-.02.984-.328 1.795-.93 2.433s-1.403.965-2.404.983c-.984-.018-1.776-.346-2.378-.983zm4.18-2.514v-1.503c-.055-1.24-.655-1.867-1.803-1.885-1.13.018-1.73.646-1.804 1.885v1.503c.072 1.257.674 1.895 1.804 1.913 1.147-.018 1.748-.656 1.803-1.913v-.027.027z"/><use xlink:href="#G" x="348.688" y="-59.162"/><use xlink:href="#G" x="370.746" y="-59.162"/><path d="M781.34 144.474c.6.638.9 1.458.93 2.46v1.695c-.02 1.002-.328 1.822-.93 2.46s-1.403.966-2.405.983c-.983-.018-1.776-.346-2.378-.983-.62-.638-.938-1.458-.956-2.46v-1.695c.018-1 .337-1.82.956-2.46.602-.637 1.395-.965 2.378-.983 1.002.018 1.804.346 2.405.983zm-3.69 19.13h-1.203c-.218.018-.272-.073-.163-.273l11.26-19.157c.072-.22.19-.3.355-.273h1.202c.2-.018.255.064.164.246l-11.286 19.157c-.073.22-.183.32-.328.3zm-.52-15.058c.072 1.275.674 1.922 1.804 1.94 1.147-.018 1.75-.665 1.804-1.94v-1.53c-.055-1.275-.656-1.922-1.804-1.94-1.13.018-1.73.665-1.804 1.94v1.53zm7.078 14.484c-.62-.638-.938-1.45-.957-2.433v-1.667c.02-.983.337-1.794.957-2.432.602-.62 1.394-.938 2.378-.957 1 .02 1.803.337 2.404.957.602.638.91 1.45.93 2.432v1.667c-.02.984-.328 1.795-.93 2.433s-1.403.965-2.404.983c-.984-.018-1.776-.346-2.378-.983zm4.18-2.514v-1.503c-.055-1.24-.655-1.867-1.803-1.885-1.13.018-1.73.646-1.804 1.885v1.503c.072 1.257.674 1.895 1.804 1.913 1.147-.018 1.748-.656 1.803-1.913v-.027.027z"/></g><g opacity=".8" fill="#fcee21"><path d="M34.215 984.872v-2.16h3.168v-20.88l-3.24.288v-1.584a12.48 12.48 0 0 0 2.159-.774 8.72 8.72 0 0 0 1.944-1.241h1.73v24.2H43v2.16h-8.784zm12.672-4.824c.096.648.246 1.17.45 1.566s.438.702.702.918a2.12 2.12 0 0 0 .828.432 3.39 3.39 0 0 0 .827.108c1.152 0 2.064-.828 2.736-2.484s1.03-4.296 1.08-7.92a7.72 7.72 0 0 1-1.818 1.404c-.684.384-1.4.576-2.178.576a5.44 5.44 0 0 1-2.088-.414c-.672-.276-1.267-.732-1.782-1.368s-.93-1.458-1.242-2.466-.468-2.256-.468-3.744c0-2.544.498-4.536 1.494-5.977s2.358-2.16 4.086-2.16c1.128 0 2.106.186 2.935.558s1.518 1.008 2.07 1.908.966 2.124 1.242 3.672.414 3.486.414 5.813c0 2.616-.15 4.854-.45 6.715s-.732 3.384-1.296 4.57-1.248 2.064-2.052 2.628a4.68 4.68 0 0 1-2.754.847c-.84 0-1.555-.12-2.143-.36s-1.08-.582-1.476-1.026-.715-.972-.954-1.584-.42-1.302-.54-2.07l2.376-.145zm6.696-12.24c0-1.32-.085-2.43-.252-3.33s-.408-1.632-.72-2.196-.696-.972-1.15-1.225-.973-.378-1.548-.378c-.504 0-.967.103-1.387.307s-.773.54-1.062 1.008-.517 1.086-.685 1.854-.252 1.717-.252 2.845c0 1.15.1 2.105.27 2.86s.42 1.35.72 1.782.648.732 1.044.9.798.252 1.206.252c.84 0 1.578-.228 2.214-.685a7.29 7.29 0 0 0 1.603-1.548v-2.448zm17.423 10.512c0 .936-.144 1.824-.432 2.664s-.708 1.572-1.26 2.195-1.225 1.123-2.017 1.494-1.7.56-2.7.56-1.908-.187-2.7-.56-1.465-.87-2.017-1.494-.972-1.355-1.26-2.195-.432-1.73-.432-2.664c0-1.607.384-3 1.15-4.176s1.776-2.208 3.024-3.097c-1.152-.9-2.04-1.872-2.664-2.88s-.936-2.28-.936-3.815c0-.864.15-1.65.45-2.358a5.58 5.58 0 0 1 1.242-1.836 5.68 5.68 0 0 1 1.854-1.206c.708-.288 1.47-.432 2.286-.432s1.577.144 2.285.432 1.326.7 1.854 1.206a5.61 5.61 0 0 1 1.242 1.836c.3.708.45 1.494.45 2.358 0 1.536-.312 2.808-.937 3.815s-1.512 1.97-2.664 2.88c1.248.9 2.256 1.92 3.024 3.097s1.15 2.568 1.15 4.176zm-2.592.107c0-.695-.103-1.332-.306-1.907s-.48-1.104-.828-1.584-.75-.924-1.206-1.332a18.78 18.78 0 0 0-1.476-1.188l-1.477 1.188c-.456.408-.858.852-1.206 1.332a6.22 6.22 0 0 0-.828 1.584 5.68 5.68 0 0 0-.306 1.907 6.42 6.42 0 0 0 .216 1.62 4.58 4.58 0 0 0 .685 1.494 3.83 3.83 0 0 0 1.188 1.098c.48.288 1.056.433 1.73.433s1.247-.145 1.728-.433.876-.653 1.188-1.098a4.58 4.58 0 0 0 .684-1.494 6.42 6.42 0 0 0 .216-1.62zm-.576-14.363c0-.408-.066-.816-.197-1.225a3.39 3.39 0 0 0-.595-1.098 2.83 2.83 0 0 0-1.008-.774c-.408-.2-.888-.288-1.44-.288s-1.032.097-1.44.288a2.83 2.83 0 0 0-1.008.774 3.33 3.33 0 0 0-.594 1.098 3.93 3.93 0 0 0-.198 1.225c0 1.32.293 2.46.882 3.42a6.99 6.99 0 0 0 2.358 2.34 6.98 6.98 0 0 0 2.357-2.34c.588-.96.882-2.1.882-3.42z"/><use xlink:href="#H"/></g><g opacity=".8" fill="#fcee21"><path d="M382.975 984.872v-2.16c.384-1.27.888-2.466 1.513-3.582s1.283-2.172 1.98-3.168l2.124-2.88 1.944-2.736c.575-.9 1.044-1.806 1.403-2.718a7.67 7.67 0 0 0 .54-2.844c0-1.368-.3-2.395-.9-3.078s-1.345-1.026-2.232-1.026c-1.032 0-1.9.427-2.574 1.278s-1.086 2.25-1.206 4.194h-2.376c.072-1.464.282-2.687.63-3.672s.797-1.77 1.35-2.358 1.176-1.002 1.872-1.242 1.44-.36 2.23-.36c1.704 0 3.097.563 4.177 1.69s1.62 2.772 1.62 4.933c0 1.08-.15 2.052-.45 2.916s-.702 1.697-1.206 2.502-1.086 1.602-1.746 2.394l-2.07 2.6-2.178 3.15c-.732 1.152-1.422 2.484-2.07 3.996h9.864v2.16h-12.24z"/><use xlink:href="#H" x="324.64"/><path d="M424.6 971.876c0 2.353-.126 4.368-.378 6.048s-.636 3.06-1.152 4.14-1.17 1.878-1.962 2.394-1.716.774-2.77.774-1.98-.26-2.772-.774-1.446-1.313-1.962-2.394-.9-2.46-1.152-4.14-.378-3.695-.378-6.048.126-4.368.378-6.048.636-3.06 1.152-4.14 1.17-1.878 1.962-2.395 1.716-.773 2.772-.773 1.98.258 2.77.773 1.446 1.314 1.962 2.395.9 2.46 1.152 4.14.378 3.696.378 6.048zm-2.592 0l-.234-5.346c-.156-1.428-.4-2.574-.702-3.438s-.696-1.48-1.15-1.854-.984-.56-1.584-.56a2.43 2.43 0 0 0-1.584.559c-.457.372-.84 1-1.152 1.854s-.546 2.01-.702 3.438-.234 3.2-.234 5.346l.234 5.346c.156 1.43.4 2.574.702 3.438s.695 1.482 1.152 1.854.983.56 1.584.56a2.43 2.43 0 0 0 1.584-.559c.455-.37.84-.99 1.15-1.854s.546-2 .702-3.438.234-3.21.234-5.346z"/><use xlink:href="#I"/></g><g opacity=".8" fill="#fcee21"><path d="M731.663 984.872v-2.16c.384-1.27.888-2.466 1.513-3.582l1.98-3.168 2.124-2.88 1.944-2.736a15.82 15.82 0 0 0 1.404-2.718 7.69 7.69 0 0 0 .54-2.844c0-1.368-.3-2.395-.9-3.078s-1.345-1.026-2.232-1.026c-1.032 0-1.9.427-2.573 1.278s-1.087 2.25-1.206 4.194h-2.376c.07-1.464.28-2.687.63-3.672s.798-1.77 1.35-2.358 1.176-1.002 1.872-1.242 1.44-.36 2.232-.36c1.703 0 3.096.563 4.176 1.69s1.62 2.772 1.62 4.933c0 1.08-.15 2.052-.45 2.916s-.702 1.697-1.206 2.502-1.086 1.602-1.746 2.394l-2.07 2.6-2.178 3.15c-.732 1.152-1.422 2.484-2.07 3.996h9.864v2.16h-12.24z"/><use xlink:href="#I" x="319.601"/><path d="M760.75 984.872v-2.16c.384-1.27.888-2.466 1.513-3.582l1.98-3.168 2.124-2.88 1.944-2.736a15.82 15.82 0 0 0 1.404-2.718 7.69 7.69 0 0 0 .54-2.844c0-1.368-.3-2.395-.9-3.078s-1.345-1.026-2.232-1.026c-1.032 0-1.9.427-2.573 1.278s-1.087 2.25-1.206 4.194h-2.376c.07-1.464.28-2.687.63-3.672s.798-1.77 1.35-2.358 1.176-1.002 1.872-1.242 1.44-.36 2.232-.36c1.703 0 3.096.563 4.176 1.69s1.62 2.772 1.62 4.933c0 1.08-.15 2.052-.45 2.916s-.702 1.697-1.206 2.502-1.086 1.602-1.746 2.394l-2.07 2.6-2.178 3.15c-.732 1.152-1.422 2.484-2.07 3.996H773v2.16h-12.24z"/><use xlink:href="#I" x="348.688"/></g><g fill="#fff"><path d="M193.728 83.02c-13.2 0-17.46-11.1-17.46-22.38 0-11.58 4.56-22.44 17.46-22.44 5.46 0 10.02 1.92 13.32 6.54.36.48.54 1.02.54 1.5 0 1.44-1.5 2.58-2.88 2.58-1.08 0-1.2-.48-2.16-1.56-1.92-2.34-4.5-3.9-8.82-3.9-9.24 0-12.3 7.86-12.3 17.28 0 8.22 2.22 17.28 12.3 17.28 7.32 0 11.7-5.22 12.12-13.86h-5.4c-1.74 0-2.64-1.26-2.64-2.58s.9-2.58 2.52-2.58h8.22c1.56 0 2.64 1.08 2.64 2.64-.24 11.22-4.74 21.48-17.46 21.48z"/><use xlink:href="#J"/><path d="M242.926 83.02c-9.66 0-15.06-7.92-15.06-16.98 0-9 5.4-16.92 15.06-16.92s15.06 7.92 15.06 16.92c0 9.06-5.4 16.98-15.06 16.98zm0-28.8c-6 0-9.9 4.68-9.9 11.82 0 7.2 3.9 11.88 9.9 11.88 6.06 0 9.9-4.68 9.9-11.88 0-7.14-3.84-11.82-9.9-11.82zm36.06 28.8c-6.42 0-9.84-3.54-9.9-3.6 0 1.68-1.26 2.52-2.64 2.52-1.26 0-2.52-.84-2.52-2.52V41.862c0-1.74 1.26-2.58 2.52-2.58 1.38 0 2.64.84 2.64 2.52v11.22c2.4-2.46 5.7-3.9 9.9-3.9 9.66 0 15.06 7.92 15.06 16.92 0 9.06-5.4 16.98-15.06 16.98zm0-28.8c-6 0-9.9 4.68-9.9 11.82 0 7.2 3.9 11.88 9.9 11.88s9.9-4.68 9.9-11.88c0-7.14-3.9-11.82-9.9-11.82z"/><use xlink:href="#K"/><use xlink:href="#J" x="119.758"/><path d="M383.383 82h-18.24c-1.44 0-2.64-1.14-2.64-2.52V41.862c0-1.74 1.38-2.58 2.52-2.58 1.32 0 2.64.84 2.64 2.52v35.1h15.72c1.38 0 2.52 1.14 2.52 2.52 0 1.44-1.14 2.58-2.52 2.58z"/><use xlink:href="#L"/><path d="M413.143 82h-1.02c-5.7 0-7.86-3-7.86-7.92V55.24h-1.8c-1.44 0-2.58-1.14-2.58-2.52 0-1.44 1.14-2.58 2.52-2.58h1.8v-8.34c0-1.68 1.26-2.52 2.58-2.52s2.52.84 2.52 2.52v8.34h3.84c1.68 0 2.52 1.38 2.52 2.52 0 1.44-.96 2.58-2.52 2.58h-3.84v19.38c0 1.68.6 2.28 2.28 2.28h1.5c1.56 0 2.58 1.14 2.58 2.52 0 1.44-.96 2.58-2.52 2.58z"/><use xlink:href="#M"/><use xlink:href="#N"/><use xlink:href="#K" x="171.045"/><use xlink:href="#O"/><path d="M563.968 53.74l-16.2 36.838c-1.2 2.76-3.84 4.02-6.6 4.02h-1.92c-1.74 0-2.52-1.26-2.52-2.64 0-1.26.78-2.52 2.52-2.52h1.86c.78 0 1.62-.12 1.98-.96l3.96-8.88-11.7-25.86a2.17 2.17 0 0 1-.3-1.14c0-1.5 1.44-2.52 2.76-2.52.9 0 1.68.48 2.16 1.56l9.78 21.72 9.54-21.72c.48-1.08 1.38-1.5 2.22-1.5 1.38 0 2.76 1.02 2.76 2.46 0 .42-.06.72-.3 1.14z"/><use xlink:href="#L" x="191.984"/><use xlink:href="#P"/></g><g fill="#58ee21"><path d="M643.167 82h-6.9c-1.62 0-2.52-1.26-2.52-2.52 0-1.38.9-2.58 2.52-2.58h.9V44.38h-.9c-1.62 0-2.52-1.26-2.52-2.52 0-1.38.9-2.58 2.52-2.58h6.9c1.74 0 2.64 1.2 2.64 2.58 0 1.26-.9 2.52-2.64 2.52h-.9V76.9h.9c1.74 0 2.64 1.2 2.64 2.58 0 1.26-.9 2.52-2.64 2.52z"/><use xlink:href="#Q"/><use xlink:href="#O" x="177.586"/><use xlink:href="#N" x="261.762"/><use xlink:href="#M" x="312.931"/><use xlink:href="#K" x="466.767"/><use xlink:href="#P" x="208.305"/><use xlink:href="#L" x="440.428"/><use xlink:href="#Q" x="192.405"/><path d="M891.252 95.68c-3.66 0-12.72-1.32-12.72-4.92 0-1.38 1.26-2.7 2.58-2.7 1.38 0 .18.18 3.36 1.38 1.44.54 3.6 1.14 6.78 1.14 6.66 0 9.9-3.18 9.9-9.48v-2.7c-2.34 2.22-5.7 3.6-9.9 3.6-9.48 0-15.06-6.72-15.06-15.96 0-9 5.4-16.92 15.06-16.92 4.2 0 7.44 1.26 9.9 3.84v-.24c0-1.68 1.38-2.58 2.58-2.58 1.26 0 2.58.9 2.58 2.58V81.1c0 9.54-5.7 14.58-15.06 14.58zm0-41.458c-6 0-9.9 4.68-9.9 11.82 0 6.84 3.6 10.86 9.9 10.86s9.9-4.02 9.9-10.86c0-7.14-3.84-11.82-9.9-11.82z"/></g><defs ><path id="D" d="M104.614 1045.51c-.633 0-1.267-.367-1.4-1.1-1.334 1.034-2.97 1.668-4.804 1.668-4.136 0-7.604-3.436-7.604-7.605v-9.24a1.37 1.37 0 0 1 1.4-1.435c.768 0 1.468.5 1.468 1.4v9.272c0 2.602 2.168 4.77 4.736 4.77 2.603 0 4.77-2.17 4.77-4.77v-9.24c0-1.034.667-1.468 1.4-1.468.768 0 1.435.5 1.435 1.435v14.9c0 .934-.667 1.4-1.4 1.4z"/><path id="E" d="M886.18 1046.317c-3.22 0-5.02-2.64-5.02-5.66 0-3 1.8-5.64 5.02-5.64s5.02 2.64 5.02 5.64c0 3.02-1.8 5.66-5.02 5.66zm0-10.162c-2.36 0-3.88 1.9-3.88 4.5s1.52 4.52 3.88 4.52c2.38 0 3.88-1.92 3.88-4.52s-1.5-4.5-3.88-4.5z"/><path id="F" d="M909.92 1036.336a3.42 3.42 0 0 0-3.421 3.42v5.66c0 .36-.3.56-.56.56-.28 0-.58-.2-.58-.56v-9.502c0-.36.3-.56.58-.56.26 0 .56.2.56.56v.82c.9-.98 2.08-1.54 3.42-1.54.36 0 .58.3.58.56a.58.58 0 0 1-.58.581z"/><path id="G" d="M398.417 206.035c1.625 1.688 2.47 3.828 2.53 6.422-.187 3.875-1.53 6.438-4.03 7.688-.156.125-.14.28.047.47 3.094 1.78 4.625 4.53 4.594 8.25-.062 2.875-.953 5.188-2.672 6.938-1.75 1.75-3.953 2.656-6.61 2.72-2.656-.063-4.844-.968-6.562-2.72s-2.61-4.062-2.672-6.937c-.03-3.72 1.5-6.47 4.594-8.25.188-.187.203-.344.047-.47-2.5-1.25-3.844-3.812-4.03-7.687.063-2.594.906-4.734 2.53-6.422 1.594-1.718 3.625-2.61 6.094-2.672 2.5.063 4.547.954 6.14 2.672zm-6.14 29.344c1.78-.03 3.203-.64 4.266-1.828 1.063-1.156 1.594-2.703 1.594-4.64 0-2.093-.516-3.766-1.547-5.016-1.03-1.28-2.47-1.937-4.312-1.97-1.812.03-3.234.688-4.266 1.97-1.03 1.25-1.547 2.922-1.547 5.016 0 1.938.53 3.485 1.594 4.64 1.063 1.188 2.47 1.797 4.22 1.828v-.047.047zm5.25-22.875c0-1.656-.47-3.062-1.406-4.22-.906-1.156-2.187-1.75-3.844-1.78-1.656.03-2.937.625-3.844 1.78s-1.36 2.563-1.36 4.22c.094 3.938 1.828 6.016 5.203 6.234 3.406-.218 5.156-2.297 5.25-6.234z"/><path id="H" d="M85.406 971.876c0 2.353-.126 4.368-.378 6.048s-.636 3.06-1.15 4.14-1.17 1.878-1.962 2.394-1.717.774-2.772.774-1.98-.26-2.77-.774-1.446-1.313-1.963-2.394-.9-2.46-1.15-4.14-.378-3.695-.378-6.048.126-4.368.378-6.048.636-3.06 1.15-4.14 1.17-1.878 1.963-2.395 1.715-.773 2.77-.773 1.98.258 2.772.773 1.445 1.314 1.962 2.395.9 2.46 1.15 4.14.378 3.696.378 6.048zm-2.592 0l-.233-5.346c-.157-1.428-.39-2.574-.702-3.438s-.696-1.48-1.152-1.854-.984-.56-1.584-.56a2.43 2.43 0 0 0-1.584.559c-.456.372-.84 1-1.152 1.854s-.546 2.01-.7 3.438-.234 3.2-.234 5.346l.234 5.346c.155 1.43.4 2.574.7 3.438s.696 1.482 1.152 1.854.983.56 1.584.56 1.128-.186 1.584-.56.84-.99 1.152-1.854.545-2 .702-3.438.233-3.21.233-5.346z"/><path id="I" d="M439.134 971.876c0 2.353-.126 4.368-.378 6.048s-.636 3.06-1.152 4.14-1.17 1.878-1.962 2.394-1.716.774-2.77.774-1.98-.26-2.772-.774-1.446-1.313-1.962-2.394-.9-2.46-1.15-4.14-.38-3.695-.38-6.048.126-4.368.38-6.048.635-3.06 1.15-4.14 1.17-1.878 1.962-2.395 1.716-.773 2.772-.773 1.98.258 2.77.773 1.446 1.314 1.962 2.395.9 2.46 1.152 4.14.378 3.696.378 6.048zm-2.592 0l-.234-5.346c-.156-1.428-.4-2.574-.702-3.438s-.696-1.48-1.15-1.854-.984-.56-1.584-.56a2.43 2.43 0 0 0-1.584.559c-.456.372-.84 1-1.152 1.854s-.546 2.01-.702 3.438-.233 3.2-.233 5.346l.233 5.346c.156 1.43.4 2.574.702 3.438s.696 1.482 1.152 1.854.983.56 1.584.56 1.128-.186 1.584-.56.84-.99 1.15-1.854.546-2 .702-3.438.234-3.21.234-5.346z"/><path id="J" d="M222.408 82.12c-3.24 0-6-2.76-6-6.12V41.862c0-1.74 1.26-2.58 2.58-2.58s2.58.84 2.58 2.52V76c0 .72.54 1.02.84 1.02 1.68 0 2.58 1.2 2.58 2.58 0 1.32-.9 2.52-2.58 2.52z"/><path id="K" d="M329.565 82c-3.3 0-4.8-2.34-5.34-3.42-2.4 2.64-5.88 4.44-10.56 4.44-9.78 0-15.06-8.04-15.06-16.98s5.4-16.92 15.06-16.92c4.2 0 7.56 1.5 9.9 3.96v-.24c0-.66.24-2.7 2.52-2.7 1.26 0 2.64.66 2.64 2.52v23.16c0 .78.54 1.08.84 1.08 1.68 0 2.58 1.2 2.58 2.58 0 1.26-.9 2.52-2.58 2.52zm-15.9-27.78c-6 0-9.9 4.68-9.9 11.82 0 7.2 3.9 11.88 9.9 11.88 6.06 0 9.9-4.68 9.9-11.88 0-7.14-3.84-11.82-9.9-11.82z"/><path id="L" d="M392.924 45.28a4.3 4.3 0 1 1 0-8.64 4.3 4.3 0 1 1 0 8.64zm0 36.72c-1.32 0-2.64-.9-2.64-2.52V52.72c0-1.68 1.32-2.58 2.64-2.58 1.26 0 2.52.9 2.52 2.58v26.76c0 1.68-1.26 2.52-2.52 2.52z"/><path id="M" d="M446.022 68.68h-22.2c.84 5.64 4.44 9.24 9.72 9.24 2.7 0 5.4-.96 7.14-3.12.54-.6 1.14-.96 1.86-.96 1.32 0 2.7 1.2 2.7 2.64 0 .72-.18 1.26-1.44 2.52-2.7 2.64-6.42 4.02-10.26 4.02-9.66 0-15.06-7.98-15.06-16.98 0-8.94 5.4-16.92 15.06-16.92 9.78 0 15 7.98 15 16.92 0 1.32-.96 2.64-2.52 2.64zm-12.48-14.46c-5.64 0-8.94 4.14-9.72 9.3h19.44c-.84-5.76-4.44-9.3-9.72-9.3z"/><path id="N" d="M467.502 54.22c-4.62 0-8.52 3.9-8.52 8.58v16.62c0 1.68-1.26 2.58-2.64 2.58-1.26 0-2.52-.9-2.52-2.52V52.72c0-1.68 1.38-2.58 2.52-2.58 1.2 0 2.34.66 2.58 2.04 2.34-1.92 5.52-3.06 8.58-3.06 1.74 0 2.64 1.2 2.64 2.58 0 1.32-.9 2.52-2.64 2.52z"/><path id="O" d="M532 78.46c-2.64 2.94-6.3 4.56-10.74 4.56-9.66 0-15.06-7.92-15.06-16.98 0-9 5.4-16.92 15.06-16.92 4.44 0 8.1 1.62 10.74 4.56.48.54.72 1.14.72 1.74 0 1.32-1.32 2.58-2.7 2.58-.54 0-1.2-.24-1.86-.84-1.68-1.86-3.9-2.94-6.9-2.94-6 0-9.9 4.68-9.9 11.82 0 7.2 3.9 11.88 9.9 11.88 3 0 5.28-1.14 6.9-2.94.54-.66 1.26-.9 1.86-.9 1.38 0 2.7 1.2 2.7 2.64 0 .54-.24 1.2-.72 1.74z"/><path id="P" d="M605.007 83.02c-3.3 0-8.82-1.02-11.64-4.5-.36-.54-.54-1.08-.54-1.56 0-1.5 1.44-2.7 2.7-2.7.72 0 1.26.36 1.86 1.02 1.86 2.04 4.92 2.64 7.62 2.64 5.4 0 7.14-1.86 7.14-4.56 0-7.68-18.3-2.94-18.3-15.3 0-6.54 6.12-8.94 11.82-8.94 3.24 0 10.86 1.62 10.86 4.98 0 1.32-1.08 2.7-2.52 2.7-.54 0-1.38-.3-1.98-.78-1.62-1.38-3.96-1.8-6.36-1.8-4.98 0-6.72 1.86-6.72 3.84 0 7.14 18.36 2.52 18.36 15.3 0 7.08-5.94 9.66-12.3 9.66z"/><path id="Q" d="M675.805 82c-1.32 0-2.52-.9-2.52-2.52V62.8c0-4.68-3.9-8.58-8.58-8.58-4.62 0-8.52 3.9-8.52 8.58v16.62c0 1.68-1.26 2.64-2.64 2.64-1.26 0-2.52-.9-2.52-2.58V52.66c0-1.74 1.26-2.52 2.52-2.52 1.2 0 2.28.66 2.58 1.98 2.34-1.86 5.28-3 8.58-3 7.44 0 13.68 6.18 13.68 13.68v16.62c0 1.68-1.2 2.58-2.58 2.58z"/></defs></svg>