<svg xmlns="http://www.w3.org/2000/svg" xmlns:xlink="http://www.w3.org/1999/xlink" viewBox="0 0 1080 1080"><style><![CDATA[.L{opacity:.8}.M{opacity:.7}]]></style><linearGradient id="A" gradientUnits="userSpaceOnUse" x1="11.75" y1="11.75" x2="1068.25" y2="1068.25"><stop offset="0" stop-color="#4568dc"/><stop offset=".167" stop-color="#4f68d8"/><stop offset=".456" stop-color="#6c69cd"/><stop offset=".829" stop-color="#996abc"/><stop offset="1" stop-color="#b06ab3"/></linearGradient><path d="M1080,1040c0,22-18,40-40,40H40c-22,0-40-18-40-40V40C0,18,18,0,40,0h1000c22,0,40,18,40,40V1040z" fill="url(#A)"/><g fill="#a0a5e3"><use xlink:href="#D"/><use xlink:href="#E"/><use xlink:href="#F"/><use xlink:href="#E" x="-65.638"/><use xlink:href="#E" x="-98.456"/><use xlink:href="#E" x="-131.274"/><use xlink:href="#G"/><use xlink:href="#H"/><use xlink:href="#I"/><use xlink:href="#J"/><use xlink:href="#D" y="-32.818"/><use xlink:href="#E" y="-32.818"/><use xlink:href="#F" y="-32.818"/><use xlink:href="#E" x="-65.638" y="-32.818"/><use xlink:href="#E" x="-98.456" y="-32.818"/><use xlink:href="#E" x="-131.274" y="-32.818"/><use xlink:href="#G" y="-32.818"/><use xlink:href="#H" y="-32.818"/><use xlink:href="#I" y="-32.818"/><use xlink:href="#J" y="-32.818"/><use xlink:href="#D" y="-65.637"/><use xlink:href="#E" y="-65.637"/><use xlink:href="#F" y="-65.637"/><use xlink:href="#E" x="-65.638" y="-65.637"/><use xlink:href="#E" x="-98.456" y="-65.637"/><use xlink:href="#E" x="-131.274" y="-65.637"/><use xlink:href="#G" y="-65.637"/><use xlink:href="#H" y="-65.637"/><use xlink:href="#I" y="-65.637"/><use xlink:href="#J" y="-65.637"/><use xlink:href="#D" y="-98.455"/><use xlink:href="#E" y="-98.455"/><use xlink:href="#F" y="-98.455"/><use xlink:href="#E" x="-65.638" y="-98.455"/><use xlink:href="#E" x="-98.456" y="-98.455"/><use xlink:href="#E" x="-131.274" y="-98.455"/><use xlink:href="#G" y="-98.455"/><use xlink:href="#H" y="-98.455"/><use xlink:href="#I" y="-98.455"/><use xlink:href="#J" y="-98.455"/><use xlink:href="#D" y="-131.274"/><use xlink:href="#E" y="-131.274"/><use xlink:href="#F" y="-131.274"/><use xlink:href="#E" x="-65.638" y="-131.274"/><use xlink:href="#E" x="-98.456" y="-131.274"/><use xlink:href="#E" x="-131.274" y="-131.274"/><use xlink:href="#G" y="-131.274"/><use xlink:href="#H" y="-131.274"/><use xlink:href="#I" y="-131.274"/><use xlink:href="#J" y="-131.274"/><path d="M356.936 436.1H329.46v27.476h27.476V436.1zm-32.818 0h-27.476v27.476h27.476V436.1zm-32.818 0h-27.476v27.476H291.3V436.1zm-32.82 0h-27.476v27.476h27.476V436.1zm-32.818 0h-27.476v27.476h27.476V436.1zm-32.818 0h-27.476v27.476h27.476V436.1zm-32.82 0H132.55v27.476h27.476V436.1zm-32.82 0H99.73v27.476h27.476V436.1zm-32.818 0H66.912v27.476h27.476V436.1zm-32.818 0H34.093v27.476H61.57V436.1zm295.366-32.82H329.46v27.476h27.476V403.28zm-32.818 0h-27.476v27.476h27.476V403.28zm-32.818 0h-27.476v27.476H291.3V403.28zm-32.82 0h-27.476v27.476h27.476V403.28zm-32.818 0h-27.476v27.476h27.476V403.28zm-32.818 0h-27.476v27.476h27.476V403.28zm-32.82 0H132.55v27.476h27.476V403.28zm-32.82 0H99.73v27.476h27.476V403.28zm-32.818 0H66.912v27.476h27.476V403.28zm-32.818 0H34.093v27.476H61.57V403.28z"/><use xlink:href="#D" y="-229.729"/><use xlink:href="#E" y="-229.729"/><use xlink:href="#F" y="-229.729"/><use xlink:href="#E" x="-65.638" y="-229.729"/><use xlink:href="#E" x="-98.456" y="-229.729"/></g><g fill="#f6f"><use xlink:href="#E" x="-131.274" y="-229.729" class="L"/><use xlink:href="#G" y="-229.729" class="L"/><use xlink:href="#H" y="-229.729" class="L"/><use xlink:href="#I" y="-229.729" class="L"/><use xlink:href="#J" y="-229.729" class="L"/><use xlink:href="#D" y="-262.548" class="L"/><use xlink:href="#E" y="-262.548" class="L"/><use xlink:href="#F" y="-262.548" class="L"/><use xlink:href="#E" x="-65.638" y="-262.548" class="L"/><use xlink:href="#E" x="-98.456" y="-262.548" class="L"/><use xlink:href="#E" x="-131.274" y="-262.548" class="L"/><use xlink:href="#G" y="-262.548" class="L"/><use xlink:href="#H" y="-262.548" class="L"/><use xlink:href="#I" y="-262.548" class="L"/><use xlink:href="#J" y="-262.548" class="L"/><path d="M356.936 304.826H329.46V332.3h27.476v-27.476zm-32.818 0h-27.476V332.3h27.476v-27.476zm-32.818 0h-27.476V332.3H291.3v-27.476zm-32.82 0h-27.476V332.3h27.476v-27.476zm-32.818 0h-27.476V332.3h27.476v-27.476zm-32.818 0h-27.476V332.3h27.476v-27.476zm-32.82 0H132.55V332.3h27.476v-27.476zm-32.82 0H99.73V332.3h27.476v-27.476zm-32.818 0H66.912V332.3h27.476v-27.476zm-32.818 0H34.093V332.3H61.57v-27.476z" class="L"/></g><g fill="#a0a5e3"><use xlink:href="#K"/><use xlink:href="#K" x="-66.743"/><use xlink:href="#K" x="-133.483"/><use xlink:href="#K" x="-200.225"/><path d="M779.037 905.5H723.16v55.877h55.877V905.5z"/><use xlink:href="#K" x="-333.708"/><use xlink:href="#K" x="-400.45"/><use xlink:href="#K" x="-467.191"/><use xlink:href="#K" x="-533.933"/><use xlink:href="#K" x="-600.673"/><path d="M1046.003 838.758h-55.877v55.877h55.877v-55.877zm-66.743 0h-55.877v55.877h55.877v-55.877z"/></g><linearGradient id="B" gradientUnits="userSpaceOnUse" x1="406.138" y1="288.14" x2="995.947" y2="877.949"><stop offset="0" stop-color="#bc53ff"/><stop offset=".396" stop-color="#dd5cff"/><stop offset=".772" stop-color="#f663ff"/><stop offset="1" stop-color="#f6f"/></linearGradient><path d="M912.52 838.758v55.877h-55.877v-55.877h55.877zm-66.742 0h-55.877v55.877h55.877v-55.877zm-66.742 0H723.16v55.877h55.877v-55.877zm-66.742 0h-55.877v55.877h55.877v-55.877zm-66.742 0h-55.877v55.877h55.877v-55.877zm-66.742 0h-55.877v55.877h55.877v-55.877zm-66.742 0h-55.877v55.877h55.877v-55.877zm-66.742 0h-55.877v55.877h55.877v-55.877zm600.674-66.742h-55.877v55.877h55.877v-55.877zm-66.742 0h-55.877v55.877h55.877v-55.877zm-66.742 0h-55.877v55.877h55.877v-55.877zm-66.742 0h-55.877v55.877h55.877v-55.877zm-66.742 0H723.16v55.877h55.877v-55.877zm-66.742 0h-55.877v55.877h55.877v-55.877zm-66.742 0h-55.877v55.877h55.877v-55.877zm-66.742 0h-55.877v55.877h55.877v-55.877zm-66.742 0h-55.877v55.877h55.877v-55.877zm-66.742 0h-55.877v55.877h55.877v-55.877zm600.674-66.742h-55.877v55.877h55.877v-55.877zm-66.742 0h-55.877v55.877h55.877v-55.877zm-66.742 0h-55.877v55.877h55.877v-55.877zm-66.742 0h-55.877v55.877h55.877v-55.877zm-66.742 0H723.16v55.877h55.877v-55.877zm-66.742 0h-55.877v55.877h55.877v-55.877zm-66.742 0h-55.877v55.877h55.877v-55.877zm-66.742 0h-55.877v55.877h55.877v-55.877zm-66.742 0h-55.877v55.877h55.877v-55.877zm-66.742 0h-55.877v55.877h55.877v-55.877zm600.674-66.742h-55.877V694.4h55.877v-55.877zm-66.742 0h-55.877V694.4h55.877v-55.877zm-66.742 0h-55.877V694.4h55.877v-55.877zm-66.742 0h-55.877V694.4h55.877v-55.877zm-66.742 0H723.16V694.4h55.877v-55.877zm-66.742 0h-55.877V694.4h55.877v-55.877zm-66.742 0h-55.877V694.4h55.877v-55.877zm-66.742 0h-55.877V694.4h55.877v-55.877zm-66.742 0h-55.877V694.4h55.877v-55.877zm-66.742 0h-55.877V694.4h55.877v-55.877zm600.674-66.742h-55.877v55.877h55.877v-55.877zm-66.742 0h-55.877v55.877h55.877v-55.877zm-66.742 0h-55.877v55.877h55.877v-55.877zm-66.742 0h-55.877v55.877h55.877v-55.877zm-66.742 0H723.16v55.877h55.877v-55.877zm-66.742 0h-55.877v55.877h55.877v-55.877zm-66.742 0h-55.877v55.877h55.877v-55.877zm-66.742 0h-55.877v55.877h55.877v-55.877zm-66.742 0h-55.877v55.877h55.877v-55.877zm-66.742 0h-55.877v55.877h55.877v-55.877zm600.674-66.742h-55.877v55.877h55.877V505.05zm-66.742 0h-55.877v55.877h55.877V505.05zm-66.742 0h-55.877v55.877h55.877V505.05zm-66.742 0h-55.877v55.877h55.877V505.05zm-66.742 0H723.16v55.877h55.877V505.05zm-66.742 0h-55.877v55.877h55.877V505.05zm-66.742 0h-55.877v55.877h55.877V505.05zm-66.742 0h-55.877v55.877h55.877V505.05zm-66.742 0h-55.877v55.877h55.877V505.05zm-66.742 0h-55.877v55.877h55.877V505.05zm600.674-66.742h-55.877v55.877h55.877V438.31zm-66.742 0h-55.877v55.877h55.877V438.31zm-66.742 0h-55.877v55.877h55.877V438.31zm-66.742 0h-55.877v55.877h55.877V438.31zm-66.742 0H723.16v55.877h55.877V438.31zm-66.742 0h-55.877v55.877h55.877V438.31zm-66.742 0h-55.877v55.877h55.877V438.31zm-66.742 0h-55.877v55.877h55.877V438.31zm-66.742 0h-55.877v55.877h55.877V438.31zm-66.742 0h-55.877v55.877h55.877V438.31zm600.674-66.742h-55.877v55.877h55.877v-55.877zm-66.742 0h-55.877v55.877h55.877v-55.877zm-66.742 0h-55.877v55.877h55.877v-55.877zm-66.742 0h-55.877v55.877h55.877v-55.877zm-66.742 0H723.16v55.877h55.877v-55.877zm-66.742 0h-55.877v55.877h55.877v-55.877zm-66.742 0h-55.877v55.877h55.877v-55.877zm-66.742 0h-55.877v55.877h55.877v-55.877zm-66.742 0h-55.877v55.877h55.877v-55.877zm-66.742 0h-55.877v55.877h55.877v-55.877zm600.674-66.742h-55.877v55.877h55.877v-55.877zm-66.742 0h-55.877v55.877h55.877v-55.877zm-66.742 0h-55.877v55.877h55.877v-55.877zm-66.742 0h-55.877v55.877h55.877v-55.877zm-66.742 0H723.16v55.877h55.877v-55.877zm-66.742 0h-55.877v55.877h55.877v-55.877zm-66.742 0h-55.877v55.877h55.877v-55.877zm-66.742 0h-55.877v55.877h55.877v-55.877zm-66.742 0h-55.877v55.877h55.877v-55.877zm-66.742 0h-55.877v55.877h55.877v-55.877z" fill="url(#B)"/><g fill="#c7fff8"><path d="M34.47 284.826v-2.4H38V259.23l-3.6.32v-1.76c1.64-.4 3.24-1.12 4.56-2.24h1.92v26.876h3.36v2.4H34.47z"/><use xlink:href="#L"/><use xlink:href="#L" x="15.36"/><use xlink:href="#L" x="30.718"/><path d="M986.465 284.826v-2.4c2.56-8.56 10.56-13.358 10.56-19.917 0-3.04-1.52-4.56-3.48-4.56-2.28 0-3.96 1.76-4.2 6.078h-2.64c.32-6.56 3.28-8.48 6.76-8.48 3.8 0 6.438 2.56 6.438 7.36 0 7.198-6.48 9.438-10.798 19.517h10.958v2.4h-13.598zm23.118.4c-4.72 0-6.96-4.4-6.96-14.838s2.24-14.838 6.96-14.838 6.96 4.4 6.96 14.838-2.24 14.838-6.96 14.838zm0-27.275c-2.64 0-4.08 2.96-4.08 12.438s1.44 12.438 4.08 12.438 4.08-2.96 4.08-12.437-1.44-12.437-4.08-12.437zm9.92 26.875v-2.4h3.52V259.23l-3.6.32v-1.76c1.64-.4 3.24-1.12 4.56-2.24h1.92v26.876h3.36v2.4h-9.758zm19.196.4c-4.48 0-7.118-3.52-7.118-7.68 0-3.56 1.88-6.12 4.64-8.08-2.56-2.04-4-4.04-4-7.438 0-3.8 2.88-6.48 6.48-6.48s6.48 2.68 6.48 6.48c0 3.4-1.44 5.398-4 7.438 2.76 1.96 4.64 4.52 4.64 8.08 0 4.16-2.64 7.68-7.12 7.68zm0-14.238c-2.318 1.72-4.238 3.56-4.238 6.68 0 2.36 1.28 5.16 4.238 5.16s4.24-2.8 4.24-5.16c0-3.12-1.92-4.96-4.24-6.68zm0-13.037c-2.48 0-3.6 1.92-3.6 3.76 0 2.92 1.44 5.08 3.6 6.4 2.16-1.32 3.6-3.48 3.6-6.4 0-1.84-1.12-3.76-3.6-3.76z"/></g><g opacity=".5" fill="#fff"><path d="M42.328 1046.045c-3.568 0-5.47-1.97-5.503-2.002 0 .935-.7 1.4-1.468 1.4-.7 0-1.4-.467-1.4-1.4v-20.88a1.35 1.35 0 0 1 1.401-1.434c.767 0 1.468.467 1.468 1.4v6.238c1.334-1.368 3.168-2.17 5.503-2.17 5.37 0 8.373 4.403 8.373 9.406 0 5.037-3.002 9.44-8.373 9.44zm0-16c-3.335 0-5.503 2.602-5.503 6.57 0 4.003 2.168 6.604 5.503 6.604s5.504-2.602 5.504-6.604c0-3.97-2.168-6.57-5.504-6.57zm25.555 8.037h-12.34c.467 3.136 2.468 5.137 5.403 5.137 1.5 0 3.002-.533 3.97-1.734.3-.333.634-.533 1.034-.533.734 0 1.5.667 1.5 1.468 0 .4-.1.7-.8 1.4-1.5 1.468-3.57 2.235-5.704 2.235-5.37 0-8.372-4.437-8.372-9.44 0-4.97 3.002-9.406 8.372-9.406 5.437 0 8.34 4.437 8.34 9.406 0 .734-.534 1.468-1.4 1.468zm-6.937-8.038c-3.136 0-4.97 2.3-5.403 5.17H66.35c-.467-3.202-2.468-5.17-5.403-5.17zM88 1045.478c-1.834 0-2.668-1.3-2.97-1.9-1.334 1.468-3.27 2.47-5.87 2.47-5.437 0-8.372-4.47-8.372-9.44s3.002-9.406 8.372-9.406c2.335 0 4.203.834 5.504 2.202v-.134c0-.367.133-1.5 1.4-1.5.7 0 1.468.367 1.468 1.4v12.875c0 .434.3.6.467.6.935 0 1.435.667 1.435 1.434a1.37 1.37 0 0 1-1.435 1.401zm-8.84-15.443c-3.336 0-5.504 2.602-5.504 6.57 0 4.003 2.168 6.604 5.504 6.604 3.37 0 5.504-2.602 5.504-6.604 0-3.97-2.135-6.57-5.504-6.57z"/><use xlink:href="#M"/><path d="M115.158 1045.478h-.567c-3.17 0-4.37-1.668-4.37-4.403V1030.6h-1c-.8 0-1.435-.634-1.435-1.4 0-.8.634-1.435 1.4-1.435h1v-4.637c0-.934.7-1.4 1.435-1.4s1.4.467 1.4 1.4v4.637h2.135c.934 0 1.4.768 1.4 1.4 0 .8-.533 1.434-1.4 1.434h-2.135v10.774c0 .934.333 1.268 1.268 1.268h.833c.868 0 1.435.634 1.435 1.4 0 .8-.533 1.435-1.4 1.435zm4.604-20.415a2.402 2.402 0 1 1 0-4.803 2.402 2.402 0 1 1 0 4.803zm0 20.414c-.733 0-1.467-.5-1.467-1.4V1029.2c0-.935.733-1.435 1.467-1.435a1.37 1.37 0 0 1 1.401 1.435v14.876c0 .935-.7 1.4-1.4 1.4zm10.376-14.877h-1.5v13.442c0 .935-.7 1.4-1.468 1.4-.7 0-1.4-.467-1.4-1.4V1030.6h-1.37c-.9 0-1.4-.667-1.4-1.4 0-.768.5-1.435 1.4-1.435h1.367v-2.27c0-2.135 1.77-3.77 3.836-3.77.968 0 1.468.667 1.468 1.434 0 .7-.5 1.4-1.468 1.4-.566 0-.967.434-.967.9v2.302h1.5c.967 0 1.468.667 1.468 1.435 0 .733-.5 1.4-1.468 1.4z"/><use xlink:href="#M" x="42.068"/><path d="M154.725 1045.544c-1.802 0-3.336-1.534-3.336-3.402v-18.98c0-.967.7-1.434 1.435-1.434s1.435.467 1.435 1.4v19.013c0 .4.3.567.467.567.934 0 1.435.667 1.435 1.435 0 .733-.5 1.4-1.435 1.4zm15.37-.066v-1.264c1.886-.237 2.046-.437 2.046-3.157v-6.7c0-2.8-1.248-4.017-3.064-4.017-1.237 0-2.345.6-3.47 1.493v9.476c0 2.527.187 2.658 2.06 2.896v1.264h-8.968v-1.264c2.254-.33 2.5-.4 2.5-3v-8.2c0-2.446-.303-2.565-2.185-2.922v-1.184c2.173-.292 4.63-.807 6.653-1.533l-.052 2.95 2.6-1.745c1.16-.713 2-1.086 3.16-1.086 3.194 0 5.2 2.338 5.2 6.3v7.5c0 2.54.237 2.657 2.277 2.92v1.264h-8.74zm23.9-3.703c-2.458 3.427-5.488 4.178-7.014 4.178-5.142 0-8.124-3.936-8.124-8.594 0-2.745 1.183-5.396 2.832-7.062 1.74-1.8 3.945-2.814 6.082-2.814 3.73 0 6.396 3.126 6.37 6.347-.014.715-.08 1.277-.612 1.4-.767.184-6.17.5-10.318.647.062 4.587 2.717 6.74 5.556 6.74 1.572 0 3.104-.597 4.543-1.866l.686 1.014zm-7.07-12.7c-1.667 0-3.167 1.807-3.516 4.963l5.486-.118c.6-.026.848-.146.848-.792.04-2.022-1.037-4.053-2.818-4.053zm34.284.145c-1.943.343-2.248.624-3.105 2.765-1.33 3.462-3.102 8.53-4.934 13.94h-1.512l-4.65-11.46-4.55 11.46h-1.472l-4.685-14.192c-.687-1.985-.94-2.274-2.855-2.512v-1.25h9.397v1.25c-2.325.345-2.535.672-2.058 2.133l2.52 8.214c1.507-3.68 2.988-7.62 4.327-11.424h1.456c1.4 3.76 2.986 7.702 4.573 11.568.742-2.107 2.062-5.964 2.557-8.108.412-1.674-.008-2.078-2.753-2.383v-1.25h7.742v1.25zm9.4 3.746c-.92-2.606-2.155-3.984-4.2-3.984-1.206 0-2.225.86-2.225 2.266 0 1.497 1.046 2.264 3.16 3.216 3.278 1.496 5.3 2.787 5.3 5.736 0 3.85-3.6 5.764-6.945 5.764-2.06 0-4.088-.737-4.92-1.16l-.662-4.892 1.252-.224c.8 2.5 2.33 4.75 4.976 4.75 1.505 0 2.438-.952 2.438-2.28 0-1.423-.76-2.333-3.092-3.467-2.67-1.295-5.107-2.64-5.107-5.775 0-3.046 2.533-5.42 6.565-5.42 1.818 0 3.242.396 4.112.567l.62 4.577-1.25.328z"/></g><g fill="#fff" class="M"><path d="M833.185 1046.357c-1.2 0-3.22-.42-3.92-1.58-.08-.12-.08-.22-.08-.3 0-.32.28-.602.58-.602.12 0 .32.102.44.28.72.88 2 1.06 2.98 1.06 1.94 0 2.92-.64 2.92-1.94 0-3.02-6.562-1.42-6.562-5.422 0-2.02 2.02-2.8 3.84-2.8 1.04 0 2.64.36 3.44 1.16.12.12.18.26.18.38a.65.65 0 0 1-.62.6c-.12 0-.26-.04-.38-.16-.62-.6-1.74-.84-2.62-.84-1.76 0-2.7.682-2.7 1.66 0 2.8 6.562 1.32 6.562 5.422 0 2.28-2 3.08-4.06 3.08z"/><use xlink:href="#N"/><path d="M859.686 1045.98c-.28 0-.58-.2-.58-.56v-.64c-.84.98-2.06 1.54-3.42 1.54-2.48 0-4.56-2.08-4.56-4.56v-5.842c0-.36.3-.56.58-.56.26 0 .56.2.56.56v5.842c0 1.9 1.52 3.42 3.42 3.42s3.42-1.52 3.42-3.42v-5.842c0-.36.3-.56.58-.56.26 0 .56.2.56.56v9.502a.56.56 0 0 1-.561.561z"/><use xlink:href="#O"/><path d="M877.825 1044.797c-.88.98-2.1 1.52-3.58 1.52-3.22 0-5.02-2.64-5.02-5.662 0-3 1.8-5.64 5.02-5.64 1.48 0 2.7.54 3.58 1.52.12.12.16.262.16.38 0 .3-.28.6-.58.6-.14 0-.28-.06-.42-.2-.66-.74-1.58-1.16-2.74-1.16-2.36 0-3.88 1.9-3.88 4.5s1.52 4.52 3.88 4.52c1.16 0 2.08-.44 2.74-1.16.14-.14.28-.2.42-.2.3 0 .58.26.58.58 0 .14-.04.26-.16.398z"/><use xlink:href="#P"/><path d="M893.384 1039.416c-.64 0-1.16-.5-1.16-1.14s.52-1.14 1.16-1.14c.62 0 1.12.5 1.12 1.14s-.5 1.14-1.12 1.14zm0 6.563c-.64 0-1.16-.5-1.16-1.14s.52-1.14 1.16-1.14c.62 0 1.12.5 1.12 1.14s-.5 1.14-1.12 1.14z"/><use xlink:href="#Q"/><use xlink:href="#O" x="45.2"/><use xlink:href="#P" x="34.036"/><path d="M935.402 1041.236H927.1c.18 2.28 1.66 3.94 3.84 3.94 1.08 0 2.36-.48 2.94-1.38.14-.22.3-.28.48-.28.3 0 .62.24.62.54 0 .18 0 .22-.38.658-.92 1.082-2.26 1.602-3.66 1.602-3.22 0-5.02-2.64-5.02-5.662 0-3 1.8-5.64 5.02-5.64s5.02 2.66 5.02 5.64c0 .3-.28.58-.56.58zm-4.46-5.08c-2.4 0-3.66 1.84-3.84 3.94h7.7c-.18-2.28-1.66-3.94-3.86-3.94zm16.42 9.824c-.28 0-.58-.2-.58-.56v-1c-.84 1.18-2.14 1.9-3.88 1.9-3.22 0-5.02-2.64-5.02-5.662 0-3 1.8-5.64 5.02-5.64 1.74 0 3.04.72 3.88 1.88v-4.602c0-.36.3-.56.58-.56.26 0 .56.2.56.56v13.123c0 .36-.3.56-.56.56zm-4.46-9.822c-2.36 0-3.88 1.9-3.88 4.5s1.52 4.52 3.88 4.52c2.38 0 3.88-1.92 3.88-4.52s-1.5-4.5-3.88-4.5z"/><use xlink:href="#N" x="111.415"/><path d="M975.74 1045.98c-.28 0-.56-.2-.56-.56v-6.72c0-1.38-1.16-2.54-2.54-2.54s-2.56 1.16-2.56 2.52v6.742c0 .36-.28.56-.56.56s-.58-.2-.58-.56v-6.72a2.57 2.57 0 0 0-2.521-2.541c-1.4 0-2.56 1.16-2.56 2.52v6.742c0 .36-.3.56-.56.56-.28 0-.58-.2-.58-.56v-9.502c0-.36.3-.56.58-.56.26 0 .56.2.56.56v.12a3.64 3.64 0 0 1 2.54-1.02 3.71 3.71 0 0 1 3.121 1.701 3.69 3.69 0 0 1 3.1-1.7c2.08 0 3.7 1.64 3.7 3.66v6.742c0 .36-.3.56-.58.56zm3.82-12.544c-.64 0-1.14-.5-1.14-1.14s.5-1.14 1.14-1.14 1.14.5 1.14 1.14-.5 1.14-1.14 1.14zm0 12.543c-.28 0-.58-.18-.58-.56v-9.502c0-.36.28-.56.58-.56.26 0 .56.18.56.56v9.502c0 .36-.26.56-.56.56zm11.96.001c-.28 0-.58-.2-.58-.56v-5.842c0-1.9-1.52-3.42-3.42-3.42a3.42 3.42 0 0 0-3.421 3.42v5.842c0 .36-.3.56-.56.56-.28 0-.58-.2-.58-.56v-9.502c0-.36.3-.56.58-.56.26 0 .56.2.56.56v.64c.9-.98 2.08-1.54 3.42-1.54a4.6 4.6 0 0 1 4.561 4.561v5.842c0 .36-.3.56-.56.56z"/><use xlink:href="#Q" x="92.616"/><use xlink:href="#N" x="161.555"/><path d="M1014 1045.98c-.64 0-1.14-.5-1.14-1.14s.5-1.14 1.14-1.14 1.14.5 1.14 1.14-.5 1.14-1.14 1.14z"/><use xlink:href="#N" x="178.635"/><use xlink:href="#O" x="166.855"/><path d="M1041.1 1050.54c-1.7 0-4.102-.64-4.102-1.36 0-.32.26-.64.58-.64.22 0 .68.34 1.06.48.52.18 1.34.38 2.46.38 2.56 0 3.88-1.26 3.88-3.72v-1.4c-.88 1.06-2.14 1.7-3.88 1.7-3.16 0-5.02-2.24-5.02-5.322 0-3 1.8-5.64 5.02-5.64 1.74 0 3.04.72 3.88 1.88v-.96c0-.36.3-.56.58-.56.26 0 .56.2.56.56v9.742c0 3.182-1.9 4.86-5.02 4.86zm0-14.383c-2.36 0-3.88 1.9-3.88 4.5 0 2.582 1.42 4.182 3.88 4.182s3.88-1.6 3.88-4.182c0-2.6-1.5-4.5-3.88-4.5z"/></g><g fill="#fff"><path d="M70.358 80.06c-1.26 0-2.52-.9-2.52-2.58v-27.6L56.2 71.6c-.78 1.5-1.92 1.62-2.4 1.62-.3 0-1.56-.12-2.4-1.62L39.82 50v27.48c0 1.68-1.26 2.58-2.64 2.58-1.26 0-2.52-.9-2.52-2.58v-37.5c0-1.98 1.38-2.7 2.76-2.7.9 0 1.62.42 2.16 1.5L53.8 65.24l14.28-26.46c.6-1.2 1.32-1.5 2.34-1.5 1.32 0 2.58.84 2.58 2.7v37.5c0 1.68-1.26 2.58-2.64 2.58z"/><use xlink:href="#R"/><use xlink:href="#S"/><use xlink:href="#T"/><path d="M191.677 61.52h-12.84v15.9c0 1.56-1.2 2.58-2.52 2.58-1.44 0-2.64-.96-2.64-2.52V39.862c0-1.08.72-2.58 2.52-2.58h15.54c5.28 0 12.06 4.14 12.06 12.06 0 6.78-5.4 12.18-12.12 12.18zm0-19.14h-12.84v14.04h12.78a6.99 6.99 0 0 0 7.02-7.02c0-3.9-3.12-7.02-6.96-7.02z"/><use xlink:href="#T" x="79.258"/><use xlink:href="#R" x="161.516"/><path d="M287.975 81.02c-4.2 0-7.5-1.44-9.9-3.96v13.02c0 1.68-1.26 2.58-2.64 2.58-1.26 0-2.52-.9-2.52-2.58V50.722c0-1.68 1.26-2.58 2.52-2.58 1.38 0 2.64.9 2.64 2.58 0 0 3.54-3.66 9.9-3.66 9.66 0 15.06 7.92 15.06 16.92 0 9.12-5.4 17.04-15.06 17.04zm0-28.86c-5.94 0-9.9 4.74-9.9 11.82 0 7.2 3.9 11.94 9.9 11.94s9.9-4.68 9.9-11.88c0-7.14-3.9-11.88-9.9-11.88zm25.44 27.96c-3.24 0-6-2.76-6-6.12V39.862c0-1.74 1.26-2.58 2.58-2.58s2.58.84 2.58 2.52V74c0 .72.54 1.02.84 1.02 1.68 0 2.58 1.2 2.58 2.58 0 1.32-.9 2.52-2.58 2.52z"/><use xlink:href="#T" x="190.436"/><path d="M384.993 80h-18.24c-1.44 0-2.64-1.14-2.64-2.52V39.862c0-1.74 1.38-2.58 2.52-2.58 1.32 0 2.64.84 2.64 2.52v35.1h15.72c1.38 0 2.52 1.14 2.52 2.52 0 1.44-1.14 2.58-2.52 2.58z"/><use xlink:href="#U"/><path d="M430.292 51.682l-10.92 26.28c-.54 1.38-1.44 2.04-2.58 2.04-1.02 0-1.98-.66-2.58-2.04l-10.92-26.28c-.12-.42-.18-.72-.18-1.08 0-1.44 1.32-2.46 2.64-2.46.9 0 1.8.48 2.28 1.56l8.76 21 8.76-21c.42-1.14 1.5-1.62 2.34-1.62 1.38 0 2.64.96 2.64 2.46a2.99 2.99 0 0 1-.24 1.14z"/><use xlink:href="#T" x="304.072"/><path d="M492.45 81.08c-8.22 0-15.06-6.6-15.06-15.06V39.8c0-1.68 1.26-2.52 2.58-2.52s2.58.84 2.58 2.52v26.22c0 5.52 4.44 9.96 9.9 9.96s9.96-4.44 9.96-9.96V39.86c0-1.74 1.2-2.58 2.52-2.58 1.38 0 2.58.84 2.58 2.52v26.22c0 8.22-6.6 15.06-15.06 15.06zM536.908 80c-1.32 0-2.52-.9-2.52-2.52V60.8c0-4.68-3.9-8.58-8.58-8.58-4.62 0-8.52 3.9-8.52 8.58v16.62c0 1.68-1.26 2.64-2.64 2.64-1.26 0-2.52-.9-2.52-2.58V50.66c0-1.74 1.26-2.52 2.52-2.52 1.2 0 2.28.66 2.58 1.98 2.34-1.86 5.28-3 8.58-3 7.44 0 13.68 6.18 13.68 13.68v16.62c0 1.68-1.2 2.58-2.58 2.58z"/><use xlink:href="#V"/><use xlink:href="#W"/><use xlink:href="#S" x="501.29"/><path d="M669.987 42.382h-22.44V54.5h15.72a2.56 2.56 0 0 1 2.58 2.58c0 1.38-1.02 2.58-2.58 2.58h-15.72v17.82c0 1.38-1.2 2.52-2.52 2.52-1.44 0-2.64-1.14-2.64-2.52V39.862c0-1.44 1.2-2.58 2.64-2.58h24.96c1.56 0 2.52 1.14 2.52 2.52 0 1.26-.9 2.58-2.52 2.58z"/><use xlink:href="#S" x="562.486"/><use xlink:href="#W" x="111.166"/><use xlink:href="#W" x="145.125"/><use xlink:href="#V" x="213.955"/><use xlink:href="#R" x="714.765"/><path d="M864.323 80c-1.26 0-2.52-.9-2.52-2.52v-18.9c0-3.48-2.88-6.36-6.3-6.36-3.54 0-6.36 2.88-6.36 6.3v18.9c0 1.68-1.2 2.58-2.58 2.58-1.32 0-2.52-.9-2.52-2.52v-18.9c0-3.48-2.88-6.36-6.36-6.36s-6.36 2.88-6.36 6.3v18.9c0 1.68-1.26 2.58-2.64 2.58-1.26 0-2.52-.9-2.52-2.52v-26.82c0-1.74 1.32-2.58 2.64-2.58.84 0 1.68.36 2.16 1.14 1.86-1.32 4.2-2.1 6.66-2.1 3.6 0 6.84 1.62 8.94 4.26 2.1-2.64 5.28-4.26 8.88-4.26 6.36 0 11.52 5.1 11.52 11.4v18.9c0 1.68-1.26 2.58-2.64 2.58z"/><use xlink:href="#R" x="-43.26" y="61.2"/><path d="M79.12 114.442h-2.7v24.18c0 1.68-1.26 2.52-2.64 2.52-1.26 0-2.52-.84-2.52-2.52v-24.18H68.8c-1.62 0-2.52-1.2-2.52-2.52 0-1.38.9-2.58 2.52-2.58h2.46v-4.08c0-3.84 3.18-6.78 6.9-6.78 1.74 0 2.64 1.2 2.64 2.58 0 1.26-.9 2.52-2.64 2.52-1.02 0-1.74.78-1.74 1.62v4.14h2.7c1.74 0 2.64 1.2 2.64 2.58 0 1.32-.9 2.52-2.64 2.52zm25.317 26.758h-6.9c-1.62 0-2.52-1.26-2.52-2.52 0-1.38.9-2.58 2.52-2.58h.9v-32.52h-.9c-1.62 0-2.52-1.26-2.52-2.52 0-1.38.9-2.58 2.52-2.58h6.9c1.74 0 2.64 1.2 2.64 2.58 0 1.26-.9 2.52-2.64 2.52h-.9v32.52h.9c1.74 0 2.64 1.2 2.64 2.58 0 1.26-.9 2.52-2.64 2.52z"/><use xlink:href="#X"/><use xlink:href="#Y"/><use xlink:href="#R" x="80.336" y="61.2"/><use xlink:href="#S" x="81.535" y="61.2"/><path d="M252.094 141.2c-1.26 0-2.52-.9-2.52-2.52v-18.9c0-3.48-2.88-6.36-6.3-6.36-3.54 0-6.36 2.88-6.36 6.3v18.9c0 1.68-1.2 2.58-2.58 2.58-1.32 0-2.52-.9-2.52-2.52v-18.9c0-3.48-2.88-6.36-6.36-6.36s-6.36 2.88-6.36 6.3v18.9c0 1.68-1.26 2.58-2.64 2.58-1.26 0-2.52-.9-2.52-2.52v-26.82c0-1.74 1.32-2.58 2.64-2.58.84 0 1.68.36 2.16 1.14a11.56 11.56 0 0 1 6.66-2.1c3.6 0 6.84 1.62 8.94 4.26 2.1-2.64 5.28-4.26 8.88-4.26 6.36 0 11.52 5.1 11.52 11.4v18.9c0 1.68-1.26 2.58-2.64 2.58z"/><use xlink:href="#Z"/><path d="M306.994 141.2h-1.02c-5.7 0-7.86-3-7.86-7.92v-18.84h-1.8c-1.44 0-2.58-1.14-2.58-2.52 0-1.44 1.14-2.58 2.52-2.58h1.8v-8.34c0-1.68 1.26-2.52 2.58-2.52s2.52.84 2.52 2.52v8.34h3.84c1.68 0 2.52 1.38 2.52 2.52 0 1.44-.96 2.58-2.52 2.58h-3.84v19.38c0 1.68.6 2.28 2.28 2.28h1.5c1.56 0 2.58 1.14 2.58 2.52 0 1.44-.96 2.58-2.52 2.58z"/><use xlink:href="#U" x="-78.059" y="61.2"/><use xlink:href="#R" x="246.232" y="61.2"/><use xlink:href="#X" x="246.534"/><path d="M423.75 141.2h-18.24c-1.44 0-2.64-1.14-2.64-2.52v-37.618c0-1.74 1.38-2.58 2.52-2.58 1.32 0 2.64.84 2.64 2.52v35.1h15.72c1.38 0 2.52 1.14 2.52 2.52 0 1.44-1.14 2.58-2.52 2.58z"/><use xlink:href="#Z" x="169.006"/><path d="M505.77 112.762l-9.3 26.34c-.48 1.32-1.32 2.1-2.64 2.1-1.26 0-1.98-.54-2.52-2.1l-7.02-19.8-7.08 19.8c-.48 1.44-1.32 2.1-2.58 2.1-1.2 0-2.04-.66-2.52-2.1l-9.24-26.34c-.12-.36-.12-.6-.12-.96 0-1.5 1.38-2.46 2.64-2.46.96 0 1.92.48 2.34 1.68l6.96 20.04 7.08-19.62c.48-1.38 1.08-2.1 2.52-2.1 1.32 0 2.04.66 2.52 2.1l7.02 19.62 7.02-20.04c.42-1.2 1.38-1.68 2.28-1.68 1.38 0 2.76 1.02 2.76 2.52 0 .3 0 .54-.12.9zm14.28 29.458c-3.3 0-8.82-1.02-11.64-4.5-.36-.54-.54-1.08-.54-1.56 0-1.5 1.44-2.7 2.7-2.7.72 0 1.26.36 1.86 1.02 1.86 2.04 4.92 2.64 7.62 2.64 5.4 0 7.14-1.86 7.14-4.56 0-7.68-18.3-2.94-18.3-15.3 0-6.54 6.12-8.94 11.82-8.94 3.24 0 10.86 1.62 10.86 4.98 0 1.32-1.08 2.7-2.52 2.7-.54 0-1.38-.3-1.98-.78-1.62-1.38-3.96-1.8-6.36-1.8-4.98 0-6.72 1.86-6.72 3.84 0 7.14 18.36 2.52 18.36 15.3 0 7.08-5.94 9.66-12.3 9.66zm52.14-38.638h-9.96v35.1c0 1.62-1.2 2.52-2.52 2.52-1.26 0-2.58-.9-2.58-2.52v-35.1h-9.84c-1.74 0-2.64-1.32-2.64-2.58 0-1.2.9-2.52 2.58-2.52h24.96c1.68 0 2.58 1.32 2.58 2.52 0 1.26-.9 2.58-2.58 2.58zm30.958 37.618c-1.32 0-2.52-.9-2.52-2.52V122c0-4.68-3.9-8.58-8.58-8.58-4.62 0-8.52 3.9-8.52 8.58v16.62c0 1.68-1.26 2.64-2.64 2.64-1.26 0-2.52-.9-2.52-2.58v-37.618c0-1.74 1.26-2.58 2.52-2.58 1.38 0 2.64.84 2.64 2.52v10.38c2.22-2.1 5.22-3.06 8.52-3.06 7.44 0 13.68 6.18 13.68 13.68v16.62c0 1.68-1.2 2.58-2.58 2.58z"/><use xlink:href="#Z" x="350.996"/><use xlink:href="#X" x="536.754"/><path d="M720.688 141.2h-24.96c-1.44 0-2.64-1.14-2.64-2.52v-37.618c0-1.44 1.2-2.58 2.64-2.58h24.96c1.56 0 2.52 1.14 2.52 2.52 0 1.26-.9 2.58-2.52 2.58h-22.44v12.12h15.72a2.56 2.56 0 0 1 2.58 2.58c0 1.38-1.02 2.58-2.58 2.58h-15.72v15.24h22.44c1.62 0 2.52 1.26 2.52 2.58 0 1.38-.96 2.52-2.52 2.52zm30.54-28.318l-10.92 26.28c-.54 1.38-1.44 2.04-2.58 2.04-1.02 0-1.98-.66-2.58-2.04l-10.92-26.28c-.12-.42-.18-.72-.18-1.08 0-1.44 1.32-2.46 2.64-2.46.9 0 1.8.48 2.28 1.56l8.76 21 8.76-21c.42-1.14 1.5-1.62 2.34-1.62 1.38 0 2.64.96 2.64 2.46 0 .3-.06.72-.24 1.14z"/><use xlink:href="#W" x="173.687" y="61.2"/><use xlink:href="#S" x="674.987" y="61.2"/><path d="M837.267 141.2h-16.14c-1.38 0-2.64-1.26-2.64-2.52v-37.618c0-1.44 1.08-2.58 2.52-2.58h14.88c6.12 0 11.22 5.04 11.22 11.1 0 3.24-1.32 6-3.42 7.98 3.84 2.16 6.3 6.24 6.3 10.92 0 6.96-5.76 12.72-12.72 12.72zm-1.38-37.62h-12.24v12.12h12.24c3.84 0 6.06-3.24 6.06-6.06 0-3.3-2.7-6.06-6.06-6.06zm1.38 17.22h-13.62v15.3h13.62c4.08 0 7.56-3.54 7.56-7.62 0-4.2-3.48-7.68-7.56-7.68z"/><use xlink:href="#W" x="274.966" y="61.2"/><use xlink:href="#Y" x="744.83"/><use xlink:href="#R" x="823.967" y="61.2"/><use xlink:href="#S" x="823.966" y="61.2"/><use xlink:href="#W" x="372.644" y="61.2"/><path d="M40.307 176.285c-3.306 0-6.003-3.002-6.003-6.687s2.697-6.648 6.003-6.648c3.268 0 5.965 2.963 5.965 6.648s-2.697 6.688-5.965 6.688zm0-11.208c-1.9 0-3.838 1.785-3.838 4.52s1.938 4.52 3.838 4.52 3.8-1.785 3.8-4.52-1.9-4.52-3.8-4.52zm14.36-1.406l-7.257 26.216c-.19.532-.493.798-.95.798-.57 0-1.178-.456-1.178-1.102 0-.114 0-.228.037-.304l7.258-26.217c.19-.57.53-.835.987-.835.532 0 1.14.493 1.14 1.14 0 .076 0 .15-.038.304zM59.38 190c-3.268 0-5.966-3.002-5.966-6.687 0-3.646 2.698-6.648 5.966-6.648 3.306 0 6.003 3.002 6.003 6.648 0 3.686-2.697 6.688-6.003 6.688zm0-11.17c-1.9 0-3.8 1.785-3.8 4.482 0 2.736 1.9 4.52 3.8 4.52 1.938 0 3.837-1.785 3.837-4.52 0-2.697-1.9-4.482-3.837-4.482z" class="M"/><use xlink:href="#a" class="M"/><path d="M106.614 165.077h-1.178c-.912 0-1.672.76-1.672 1.633v3.116h2.85c.723 0 1.064.57 1.064 1.063 0 .532-.38 1.102-1.064 1.102h-2.85v16.946c0 .684-.53 1.063-1.063 1.063s-1.063-.342-1.063-1.063V172h-2.622c-.684 0-1.063-.57-1.063-1.102 0-.494.38-1.063 1.063-1.063h2.622v-3.116a3.77 3.77 0 0 1 3.761-3.761h1.216c.685 0 1.103.53 1.103 1.102 0 .532-.38 1.026-1.103 1.026zm37.54 6.153l-6.193 17.857c-.266.722-.607.912-1.102.912-.646 0-.836-.228-1.064-.912l-4.977-14.817-4.978 14.817c-.266.722-.608.912-1.102.912s-.874-.304-1.064-.912l-6.155-17.857a1.65 1.65 0 0 1-.075-.418c0-.607.607-.987 1.102-.987.38 0 .836.2.988.722l5.205 15.046 4.977-14.855c.23-.723.456-.912 1.103-.912.456 0 .836.15 1.063.912l5.054 14.855 5.13-15.046c.2-.532.57-.722.988-.722.57 0 1.178.38 1.178 1.025a1.12 1.12 0 0 1-.076.38z" class="M"/><use xlink:href="#a" x="69.425" class="M"/><path d="M177.748 171.687c-3.57 0-6.497 2.888-6.497 6.497v10.753c0 .684-.57 1.063-1.063 1.063-.532 0-1.103-.38-1.103-1.063V170.89c0-.684.57-1.063 1.103-1.063.494 0 1.063.38 1.063 1.063v1.558c1.7-1.86 3.95-2.925 6.497-2.925.684 0 1.102.57 1.102 1.063 0 .532-.418 1.102-1.102 1.102z" class="M"/><use xlink:href="#b" class="M"/><path d="M205.563 190c-.53 0-1.102-.38-1.102-1.063v-1.9c-1.596 2.242-4.065 3.61-7.37 3.61-6.117 0-9.536-5.015-9.536-10.752 0-5.7 3.42-10.715 9.536-10.715 3.306 0 5.775 1.368 7.37 3.572v-8.74c0-.684.57-1.063 1.102-1.063.494 0 1.064.38 1.064 1.063v24.925c0 .684-.57 1.063-1.064 1.063zm-8.473-18.655c-4.483 0-7.37 3.61-7.37 8.55s2.888 8.587 7.37 8.587c4.52 0 7.37-3.647 7.37-8.587s-2.85-8.55-7.37-8.55z" class="M"/><use xlink:href="#c" class="M"/><use xlink:href="#a" x="164.954" class="M"/><use xlink:href="#c" x="44.802" class="M"/><path d="M303.373 190c-.53 0-1.102-.38-1.102-1.063v-1.216c-1.596 1.86-3.913 2.925-6.497 2.925-4.71 0-8.663-3.95-8.663-8.662V170.89c0-.684.57-1.063 1.103-1.063.493 0 1.063.38 1.063 1.063v11.095a6.47 6.47 0 1 0 12.994 0V170.89c0-.684.57-1.063 1.102-1.063.494 0 1.064.38 1.064 1.063v18.048c0 .684-.57 1.063-1.064 1.063z" class="M"/><use xlink:href="#b" x="128.211" class="M"/><path d="M336.47 190h-.038c-1.254 0-3.04-.684-3.762-2.964-1.596 2.242-4.065 3.6-7.37 3.6-6.193 0-9.536-5.1-9.536-10.752 0-5.737 3.42-10.715 9.536-10.715 3.306 0 5.775 1.368 7.37 3.572v-1.862c0-.607.494-1.063 1.102-1.063.532 0 1.064.38 1.064 1.063v15.31c0 2.432 2.735.912 2.735 2.736a1.04 1.04 0 0 1-1.102 1.063zm-11.17-18.655c-4.483 0-7.37 3.6-7.37 8.55s2.888 8.587 7.37 8.587c4.52 0 7.37-3.647 7.37-8.587s-2.85-8.55-7.37-8.55zM347.227 190h-1.178c-3 0-4.483-1.48-4.483-4.445V172h-1.937c-.684 0-1.063-.57-1.063-1.102 0-.494.38-1.063 1.063-1.063h1.938v-5.813c0-.684.57-1.063 1.103-1.063s1.063.38 1.063 1.063v5.813h3.495c.685 0 1.064.57 1.064 1.063 0 .532-.38 1.102-1.064 1.102h-3.495v13.564c0 1.86.532 2.28 2.317 2.28h1.178c.685 0 1.064.57 1.064 1.103 0 .493-.38 1.063-1.064 1.063zm4.865-23.822a2.166 2.166 0 1 1 0-4.332 2.166 2.166 0 0 1 0 4.332zm0 23.822c-.532 0-1.103-.342-1.103-1.063V170.9c0-.684.532-1.063 1.103-1.063.494 0 1.063.342 1.063 1.063v18.048c0 .684-.494 1.063-1.063 1.063z" class="M"/><use xlink:href="#a" x="280.094" class="M"/><path d="M396.017 190c-.53 0-1.102-.38-1.102-1.063v-11.095a6.47 6.47 0 0 0-6.497-6.497c-3.57 0-6.497 2.888-6.497 6.497v11.095c0 .684-.57 1.063-1.063 1.063-.532 0-1.103-.38-1.103-1.063V170.89c0-.684.57-1.063 1.103-1.063.494 0 1.063.38 1.063 1.063v1.216c1.7-1.86 3.95-2.926 6.497-2.926 4.71 0 8.663 3.914 8.663 8.663v11.095c0 .684-.57 1.063-1.064 1.063z" class="M"/></g><g fill="#f6f"><path d="M425.314 190.04c-.723 0-1.444-.418-1.597-1.254-1.52 1.178-3.38 1.9-5.47 1.9-4.7 0-8.663-3.913-8.663-8.662V171.5a1.56 1.56 0 0 1 1.596-1.634c.874 0 1.672.57 1.672 1.596v10.563c0 2.963 2.47 5.433 5.396 5.433 2.964 0 5.434-2.47 5.434-5.433V171.5c0-1.178.76-1.672 1.596-1.672.873 0 1.634.57 1.634 1.634v16.983c0 1.063-.76 1.596-1.596 1.596zm21.926-.04c-.836 0-1.596-.57-1.596-1.596v-10.562c0-2.964-2.47-5.434-5.434-5.434-2.926 0-5.396 2.47-5.396 5.434v10.524c0 1.063-.798 1.672-1.67 1.672-.8 0-1.597-.57-1.597-1.634V171.42c0-1.102.798-1.596 1.597-1.596.76 0 1.443.418 1.633 1.254 1.482-1.178 3.344-1.9 5.434-1.9 4.7 0 8.663 3.914 8.663 8.663v10.524c0 1.063-.76 1.634-1.634 1.634zm22.497-.038c-.836 0-1.634-.532-1.634-1.596 0 0-2.242 2.28-6.27 2.28-6.117 0-9.536-5.015-9.536-10.752 0-5.7 3.42-10.715 9.536-10.715 2.66 0 4.787.912 6.27 2.47v-7.066c0-1.103.798-1.634 1.634-1.634s1.634.53 1.634 1.596v23.822c0 1.063-.798 1.596-1.634 1.596zm-7.903-17.554c-3.8 0-6.27 2.964-6.27 7.485 0 4.56 2.47 7.522 6.27 7.522 3.838 0 6.27-2.963 6.27-7.522 0-4.52-2.432-7.485-6.27-7.485zm30.74 9.158h-14.06c.532 3.57 2.812 5.85 6.155 5.85 1.7 0 3.42-.607 4.52-1.976.342-.38.722-.607 1.178-.607.836 0 1.7.76 1.7 1.672 0 .456-.114.798-.912 1.596-1.7 1.672-4.065 2.545-6.497 2.545-6.117 0-9.536-5.053-9.536-10.752 0-5.66 3.42-10.715 9.536-10.715 6.193 0 9.5 5.054 9.5 10.715 0 .836-.608 1.672-1.596 1.672zm-7.903-9.157c-3.57 0-5.66 2.622-6.155 5.9h12.3c-.532-3.647-2.812-5.9-6.155-5.9zm21.508.001c-2.926 0-5.396 2.47-5.396 5.434v10.524c0 1.063-.798 1.634-1.67 1.634-.8 0-1.597-.57-1.597-1.596V171.46c0-1.064.874-1.634 1.597-1.634.76 0 1.48.418 1.633 1.292a8.79 8.79 0 0 1 5.434-1.938c1.102 0 1.672.76 1.672 1.634 0 .836-.57 1.596-1.672 1.596zm30.397 17.6c-2.1 0-3.04-1.48-3.38-2.166-1.52 1.672-3.724 2.812-6.687 2.812-6.193 0-9.536-5.1-9.536-10.752s3.42-10.715 9.536-10.715c2.66 0 4.787.95 6.27 2.508v-.15c0-.418.15-1.7 1.596-1.7.798 0 1.672.418 1.672 1.596V186.1c0 .493.342.684.53.684 1.064 0 1.634.76 1.634 1.634a1.56 1.56 0 0 1-1.634 1.596zM526.5 172.4c-3.8 0-6.27 2.964-6.27 7.485 0 4.56 2.47 7.522 6.27 7.522 3.838 0 6.27-2.963 6.27-7.522 0-4.52-2.432-7.485-6.27-7.485zm40.504-6.232h-14.2v7.675h9.955a1.62 1.62 0 0 1 1.634 1.634c0 .874-.646 1.634-1.634 1.634h-9.955v11.284c0 .874-.76 1.596-1.596 1.596-.9 0-1.672-.722-1.672-1.596v-23.822c0-.912.76-1.634 1.672-1.634h15.806c.988 0 1.596.722 1.596 1.596 0 .798-.57 1.634-1.596 1.634zm13.83 24.468c-8.17 0-11.057-6.763-11.057-14.172 0-7.446 2.888-14.2 11.057-14.2 8.13 0 11.056 6.764 11.056 14.2 0 7.4-2.925 14.172-11.056 14.172zm0-25.114c-5.396 0-7.8 4-7.8 10.942s2.394 10.942 7.8 10.942c5.357 0 7.8-4 7.8-10.942s-2.432-10.942-7.8-10.942zM600.565 190h-4.37c-1.026 0-1.596-.798-1.596-1.596 0-.874.57-1.634 1.596-1.634h.57v-20.593h-.57c-1.026 0-1.596-.798-1.596-1.596 0-.874.57-1.634 1.596-1.634h4.37c1.102 0 1.672.76 1.672 1.634 0 .798-.57 1.596-1.672 1.596h-.57v20.593h.57c1.102 0 1.672.76 1.672 1.634 0 .798-.57 1.596-1.672 1.596z"/><use xlink:href="#d"/><path d="M640.727 190c-2.1 0-3.04-1.48-3.38-2.166-1.52 1.672-3.724 2.812-6.687 2.812-6.193 0-9.536-5.1-9.536-10.752s3.42-10.715 9.536-10.715c2.66 0 4.787.95 6.27 2.508v-.15c0-.418.15-1.7 1.596-1.7.798 0 1.672.418 1.672 1.596V186.1c0 .493.342.684.53.684 1.064 0 1.634.76 1.634 1.634a1.56 1.56 0 0 1-1.634 1.596zm-10.068-17.592c-3.8 0-6.27 2.964-6.27 7.485 0 4.56 2.47 7.522 6.27 7.522 3.838 0 6.27-2.963 6.27-7.522 0-4.52-2.432-7.485-6.27-7.485zm39.744-.418l-5.9 16.68c-.305.836-.836 1.33-1.672 1.33-.798 0-1.254-.342-1.596-1.33l-4.445-12.538-4.483 12.538c-.305.912-.836 1.33-1.634 1.33-.76 0-1.292-.418-1.596-1.33L643.235 172c-.076-.228-.076-.38-.076-.607 0-.95.874-1.558 1.672-1.558.608 0 1.216.304 1.482 1.063l4.407 12.7 4.483-12.425c.304-.873.684-1.33 1.596-1.33.836 0 1.292.418 1.596 1.33l4.445 12.425 4.445-12.7a1.49 1.49 0 0 1 1.443-1.063c.874 0 1.748.646 1.748 1.596 0 .2 0 .342-.076.57z"/><use xlink:href="#e"/><path d="M712.28 172.4c-2.926 0-5.396 2.47-5.396 5.434v10.524c0 1.063-.798 1.634-1.67 1.634-.798 0-1.597-.57-1.597-1.596V171.46c0-1.064.874-1.634 1.597-1.634.76 0 1.48.418 1.634 1.292 1.48-1.216 3.495-1.938 5.433-1.938 1.102 0 1.672.76 1.672 1.634 0 .836-.57 1.596-1.672 1.596zm21.202 18.236c-2.66 0-4.75-.9-6.27-2.507v8.244c0 1.064-.798 1.634-1.67 1.634-.798 0-1.597-.57-1.597-1.634V171.46c0-1.064.8-1.634 1.597-1.634.873 0 1.67.57 1.67 1.634 0 0 2.242-2.318 6.27-2.318 6.117 0 9.536 5.016 9.536 10.715 0 5.775-3.42 10.8-9.536 10.8zm0-18.274c-3.762 0-6.27 3-6.27 7.484 0 4.56 2.47 7.56 6.27 7.56s6.27-2.963 6.27-7.522c0-4.52-2.47-7.522-6.27-7.522z"/><use xlink:href="#e" x="65.131"/><use xlink:href="#d" x="154.657"/><path d="M778.398 166.748c-1.52 0-2.735-1.216-2.735-2.735s1.216-2.735 2.735-2.735 2.735 1.216 2.735 2.735-1.216 2.735-2.735 2.735zm0 23.253c-.836 0-1.672-.57-1.672-1.596V171.46c0-1.064.836-1.634 1.672-1.634a1.56 1.56 0 0 1 1.596 1.634v16.945c0 1.063-.798 1.596-1.596 1.596zm21.848-2.24c-1.672 1.86-4 2.887-6.8 2.887-6.117 0-9.536-5.015-9.536-10.752 0-5.7 3.42-10.715 9.536-10.715 2.812 0 5.13 1.026 6.8 2.888.305.342.456.722.456 1.103 0 .835-.836 1.634-1.7 1.634-.342 0-.76-.152-1.178-.532-1.063-1.178-2.47-1.862-4.37-1.862-3.8 0-6.27 2.964-6.27 7.485 0 4.56 2.47 7.522 6.27 7.522 1.9 0 3.344-.722 4.37-1.86.342-.418.798-.57 1.178-.57.874 0 1.7.76 1.7 1.672 0 .342-.15.76-.456 1.103zm20.254-15.655l-10.26 23.33c-.76 1.747-2.432 2.545-4.18 2.545h-1.217c-1.102 0-1.596-.798-1.596-1.672 0-.798.494-1.596 1.596-1.596h1.18c.493 0 1.025-.075 1.253-.607l2.508-5.623-7.408-16.376a1.39 1.39 0 0 1-.2-.722c0-.95.912-1.596 1.748-1.596.57 0 1.063.304 1.367.987l6.193 13.755 6.04-13.755c.304-.684.874-.95 1.406-.95.874 0 1.747.646 1.747 1.558a1.28 1.28 0 0 1-.19.722z"/></g><g fill="#fff"><path d="M75.97 957.082c-.42 0-.784-.308-.784-.784v-16.744l-3.052 2.97a.69.69 0 0 1-.532.252c-.448 0-.84-.42-.84-.868 0-.168.112-.364.252-.532l4.424-4.284c.224-.168.448-.224.532-.224.588 0 .812.42.812.98V956.3c0 .477-.336.784-.812.784zm8.007-10.108c-2.436 0-4.424-2.212-4.424-4.928s1.988-4.9 4.424-4.9c2.408 0 4.396 2.184 4.396 4.9s-1.988 4.928-4.396 4.928zm0-8.26c-1.4 0-2.828 1.316-2.828 3.332s1.428 3.332 2.828 3.332 2.8-1.315 2.8-3.332-1.4-3.332-2.8-3.332zm10.584-1.036l-5.348 19.32c-.14.392-.364.588-.7.588-.42 0-.868-.336-.868-.812 0-.084 0-.168.028-.225l5.348-19.32c.14-.42.392-.616.728-.616.392 0 .84.364.84.84a.79.79 0 0 1-.028.224zm3.472 19.404c-2.408 0-4.396-2.212-4.396-4.928 0-2.688 1.988-4.9 4.396-4.9 2.436 0 4.424 2.212 4.424 4.9 0 2.716-1.988 4.928-4.424 4.928zm0-8.232c-1.4 0-2.8 1.316-2.8 3.305 0 2.016 1.4 3.332 2.8 3.332 1.428 0 2.828-1.316 2.828-3.332 0-1.988-1.4-3.305-2.828-3.305zm31.92-5.6l-4.564 13.16c-.196.532-.448.672-.812.672-.476 0-.616-.168-.784-.672l-3.668-10.92-3.668 10.92c-.196.532-.448.672-.812.672s-.644-.224-.784-.672l-4.536-13.16a1.19 1.19 0 0 1-.056-.308c0-.448.448-.73.812-.73.28 0 .616.14.728.532l3.836 11.088 3.668-10.948c.168-.53.336-.672.812-.672.336 0 .616.112.784.672l3.724 10.948 3.78-11.088c.14-.392.42-.532.728-.532.42 0 .868.28.868.756a.82.82 0 0 1-.056.28z"/><use xlink:href="#f"/><path d="M154.704 943.586c-2.632 0-4.788 2.128-4.788 4.788v7.924c0 .504-.42.784-.784.784-.392 0-.812-.28-.812-.784v-13.3c0-.504.42-.784.812-.784.364 0 .784.28.784.784v1.148c1.26-1.372 2.912-2.156 4.788-2.156.504 0 .812.42.812.784 0 .392-.308.812-.812.812z"/><use xlink:href="#g"/><path d="M175.2 957.082c-.392 0-.812-.28-.812-.784v-1.4c-1.176 1.65-2.996 2.66-5.432 2.66-4.508 0-7.028-3.695-7.028-7.924 0-4.2 2.52-7.896 7.028-7.896 2.436 0 4.256 1.008 5.432 2.632v-6.44c0-.504.42-.783.812-.783a.78.78 0 0 1 .784.783v18.368c0 .504-.42.784-.784.784zm-6.244-13.748c-3.304 0-5.432 2.66-5.432 6.3s2.128 6.328 5.432 6.328c3.332 0 5.432-2.687 5.432-6.328s-2.1-6.3-5.432-6.3z"/><use xlink:href="#h"/><use xlink:href="#f" x="70.38"/><use xlink:href="#h" x="33.012"/><path d="M247.27 957.082c-.392 0-.812-.28-.812-.784v-.896c-1.176 1.372-2.884 2.155-4.788 2.155-3.472 0-6.384-2.91-6.384-6.384v-8.176c0-.504.42-.784.812-.784.364 0 .784.28.784.784v8.176a4.77 4.77 0 1 0 9.576 0v-8.176c0-.504.42-.784.812-.784.364 0 .784.28.784.784v13.3c0 .504-.42.784-.784.784z"/><use xlink:href="#g" x="94.47"/><path d="M271.657 957.082h-.028c-.924 0-2.24-.504-2.772-2.184-1.176 1.65-2.996 2.66-5.432 2.66-4.564 0-7.028-3.752-7.028-7.924 0-4.228 2.52-7.896 7.028-7.896 2.436 0 4.256 1.008 5.432 2.632v-1.372c0-.448.364-.784.812-.784.392 0 .784.28.784.784v11.284c0 1.792 2.016.672 2.016 2.016a.77.77 0 0 1-.812.784zm-8.232-13.748c-3.304 0-5.432 2.66-5.432 6.3s2.128 6.328 5.432 6.328c3.332 0 5.432-2.687 5.432-6.328s-2.1-6.3-5.432-6.3zm16.155 13.748h-.868c-2.212 0-3.304-1.092-3.304-3.276v-9.995h-1.428c-.504 0-.784-.42-.784-.812 0-.364.28-.784.784-.784h1.428v-4.284c0-.504.42-.783.812-.783s.784.28.784.783v4.284h2.576c.504 0 .784.42.784.784 0 .392-.28.813-.784.813h-2.576v9.995c0 1.372.392 1.68 1.708 1.68h.868c.504 0 .784.42.784.812 0 .364-.28.784-.784.784zm3.584-17.556c-.896 0-1.596-.7-1.596-1.597s.7-1.596 1.596-1.596 1.596.7 1.596 1.596-.7 1.597-1.596 1.597zm0 17.556c-.392 0-.812-.252-.812-.784v-13.3c0-.504.392-.784.812-.784.364 0 .784.252.784.784v13.3c0 .504-.364.784-.784.784z"/><use xlink:href="#f" x="155.228"/><path d="M315.53 957.082c-.392 0-.812-.28-.812-.784v-8.176a4.77 4.77 0 0 0-4.788-4.788c-2.632 0-4.788 2.128-4.788 4.788v8.176c0 .504-.42.784-.784.784-.392 0-.812-.28-.812-.784v-13.3c0-.504.42-.784.812-.784.364 0 .784.28.784.784v.896c1.26-1.372 2.912-2.156 4.788-2.156a6.44 6.44 0 0 1 6.384 6.384v8.176c0 .504-.42.784-.784.784z"/></g><path d="M34 934.8h26.578v26.578H34z" fill="#a7a5e1"/><defs ><path id="D" d="M356.936 600.192H329.46v27.476h27.476v-27.476z"/><path id="E" d="M324.118 600.192h-27.476v27.476h27.476v-27.476z"/><path id="F" d="M291.3 600.192h-27.476v27.476H291.3v-27.476z"/><path id="G" d="M160.025 600.192H132.55v27.476h27.476v-27.476z"/><path id="H" d="M127.206 600.192H99.73v27.476h27.476v-27.476z"/><path id="I" d="M94.388 600.192H66.912v27.476h27.476v-27.476z"/><path id="J" d="M61.57 600.192H34.093v27.476H61.57v-27.476z"/><path id="K" d="M1046.003 905.5h-55.877v55.877h55.877V905.5z"/><path id="L" d="M49.35 279.466c.4 2.88 2 3.36 3.12 3.36 2.56 0 4.16-3.52 4.24-11.558-1.16 1.24-2.72 2.2-4.44 2.2-3.24 0-6.2-2.32-6.2-8.878 0-5.6 2.4-9.04 6.2-9.04 5 0 7.398 2.88 7.398 13.278 0 11.598-2.72 16.397-7.28 16.397-3.72 0-5.12-2.24-5.68-5.6l2.64-.16zm7.44-13.598c0-5.84-1.52-7.92-4.08-7.92-2.24 0-3.76 1.68-3.76 6.68 0 5.16 1.76 6.438 3.6 6.438s3.28-1.2 4.24-2.48v-2.72z"/><path id="M" d="M104.714 1045.51c-.633 0-1.267-.367-1.4-1.1-1.334 1.034-2.97 1.668-4.804 1.668-4.136 0-7.604-3.436-7.604-7.605v-9.24a1.37 1.37 0 0 1 1.4-1.435c.768 0 1.468.5 1.468 1.4v9.272c0 2.602 2.168 4.77 4.736 4.77 2.603 0 4.77-2.17 4.77-4.77v-9.24c0-1.034.667-1.468 1.4-1.468.768 0 1.435.5 1.435 1.435v14.9c0 .934-.667 1.4-1.4 1.4z"/><path id="N" d="M843.905 1046.318c-3.22 0-5.02-2.64-5.02-5.662 0-3 1.8-5.64 5.02-5.64s5.02 2.64 5.02 5.64c0 3.02-1.8 5.662-5.02 5.662zm0-10.162c-2.36 0-3.88 1.9-3.88 4.5s1.52 4.52 3.88 4.52c2.38 0 3.88-1.92 3.88-4.52s-1.5-4.5-3.88-4.5z"/><path id="O" d="M867.645 1036.336a3.42 3.42 0 0 0-3.421 3.42v5.662c0 .36-.3.56-.56.56-.28 0-.58-.2-.58-.56v-9.502c0-.36.3-.56.58-.56.26 0 .56.2.56.56v.82c.9-.98 2.08-1.54 3.42-1.54.36 0 .58.3.58.56a.58.58 0 0 1-.58.58z"/><path id="P" d="M889.406 1041.236h-8.302c.18 2.28 1.66 3.94 3.84 3.94 1.08 0 2.36-.48 2.94-1.38.14-.22.3-.28.48-.28.3 0 .62.24.62.54 0 .18 0 .22-.38.658-.92 1.082-2.26 1.602-3.66 1.602-3.22 0-5.02-2.64-5.02-5.662 0-3 1.8-5.64 5.02-5.64s5.02 2.66 5.02 5.64c0 .3-.28.58-.56.58zm-4.46-5.08c-2.4 0-3.66 1.84-3.84 3.94h7.7c-.18-2.28-1.66-3.94-3.86-3.94z"/><path id="Q" d="M905.784 1032.855h-.62c-.48 0-.88.4-.88.86v1.64h1.5c.38 0 .56.3.56.56 0 .28-.2.58-.56.58h-1.5v8.922c0 .36-.28.56-.56.56s-.56-.18-.56-.56v-8.922h-1.38c-.36 0-.56-.3-.56-.58 0-.26.2-.56.56-.56h1.38v-1.64c0-1.1.9-1.98 1.98-1.98h.64c.36 0 .58.28.58.58 0 .28-.2.54-.58.54z"/><path id="R" d="M92.8 81.02c-9.66 0-15.06-7.92-15.06-16.98 0-9 5.4-16.92 15.06-16.92s15.06 7.92 15.06 16.92c0 9.06-5.4 16.98-15.06 16.98zm0-28.8c-6 0-9.9 4.68-9.9 11.82 0 7.2 3.9 11.88 9.9 11.88 6.06 0 9.9-4.68 9.9-11.88 0-7.14-3.84-11.82-9.9-11.82z"/><path id="S" d="M125.08 52.222c-4.62 0-8.52 3.9-8.52 8.58v16.62c0 1.68-1.26 2.58-2.64 2.58-1.26 0-2.52-.9-2.52-2.52v-26.76c0-1.68 1.38-2.58 2.52-2.58 1.2 0 2.34.66 2.58 2.04 2.34-1.92 5.52-3.06 8.58-3.06 1.74 0 2.64 1.2 2.64 2.58 0 1.32-.9 2.52-2.64 2.52z"/><path id="T" d="M154.778 66.68h-22.2c.84 5.64 4.44 9.24 9.72 9.24 2.7 0 5.4-.96 7.14-3.12.54-.6 1.14-.96 1.86-.96 1.32 0 2.7 1.2 2.7 2.64 0 .72-.18 1.26-1.44 2.52-2.7 2.64-6.42 4.02-10.26 4.02-9.66 0-15.06-7.98-15.06-16.98 0-8.94 5.4-16.92 15.06-16.92 9.78 0 15 7.98 15 16.92 0 1.32-.96 2.64-2.52 2.64zm-12.48-14.46c-5.64 0-8.94 4.14-9.72 9.3h19.44c-.84-5.76-4.44-9.3-9.72-9.3z"/><path id="U" d="M395.733 43.282a4.3 4.3 0 1 1 0-8.64 4.3 4.3 0 1 1 0 8.64zm0 36.72c-1.32 0-2.64-.9-2.64-2.52v-26.76c0-1.68 1.32-2.58 2.64-2.58 1.26 0 2.52.9 2.52 2.58v26.76c0 1.68-1.26 2.52-2.52 2.52z"/><path id="V" d="M571.23 79.94c-1.32 0-2.58-.84-2.58-2.52 0 0-3.54 3.6-9.9 3.6-9.66 0-15.06-7.92-15.06-16.98 0-9 5.4-16.92 15.06-16.92 4.2 0 7.56 1.44 9.9 3.9v-11.16c0-1.74 1.26-2.58 2.58-2.58s2.58.84 2.58 2.52V77.42c0 1.68-1.26 2.52-2.58 2.52zm-12.48-27.72c-6 0-9.9 4.68-9.9 11.82 0 7.2 3.9 11.88 9.9 11.88 6.06 0 9.9-4.68 9.9-11.88 0-7.14-3.84-11.82-9.9-11.82z"/><path id="W" d="M606.1 66.68h-22.2c.84 5.64 4.44 9.24 9.72 9.24 2.7 0 5.4-.96 7.14-3.12.54-.6 1.14-.96 1.86-.96 1.32 0 2.7 1.2 2.7 2.64 0 .72-.18 1.26-1.44 2.52-2.7 2.64-6.42 4.02-10.26 4.02-9.66 0-15.06-7.98-15.06-16.98 0-8.94 5.4-16.92 15.06-16.92 9.78 0 15 7.98 15 16.92 0 1.32-.96 2.64-2.52 2.64zm-12.48-14.46c-5.64 0-8.94 4.14-9.72 9.3h19.438c-.84-5.76-4.44-9.3-9.72-9.3z"/><path id="X" d="M135.876 141.2c-1.32 0-2.52-.9-2.52-2.52V122c0-4.68-3.9-8.58-8.58-8.58-4.62 0-8.52 3.9-8.52 8.58v16.62c0 1.68-1.26 2.64-2.64 2.64-1.26 0-2.52-.9-2.52-2.58v-26.82c0-1.74 1.26-2.52 2.52-2.52 1.2 0 2.28.66 2.58 1.98 2.34-1.86 5.28-3 8.58-3 7.44 0 13.68 6.18 13.68 13.68v16.62c0 1.68-1.2 2.58-2.58 2.58z"/><path id="Y" d="M153.816 114.442h-2.7v24.18c0 1.68-1.26 2.52-2.64 2.52-1.26 0-2.52-.84-2.52-2.52v-24.18h-2.46c-1.62 0-2.52-1.2-2.52-2.52 0-1.38.9-2.58 2.52-2.58h2.46v-4.08c0-3.84 3.18-6.78 6.9-6.78 1.74 0 2.64 1.2 2.64 2.58 0 1.26-.9 2.52-2.64 2.52-1.02 0-1.74.78-1.74 1.62v4.14h2.7c1.74 0 2.64 1.2 2.64 2.58 0 1.32-.9 2.52-2.64 2.52z"/><path id="Z" d="M289.894 141.2c-3.3 0-4.8-2.34-5.34-3.42-2.4 2.64-5.88 4.44-10.56 4.44-9.78 0-15.06-8.04-15.06-16.98s5.4-16.92 15.06-16.92c4.2 0 7.56 1.5 9.9 3.96v-.24c0-.66.24-2.7 2.52-2.7 1.26 0 2.64.66 2.64 2.52v23.16c0 .78.54 1.08.84 1.08 1.68 0 2.58 1.2 2.58 2.58 0 1.26-.9 2.52-2.58 2.52zm-15.9-27.78c-6 0-9.9 4.68-9.9 11.82 0 7.2 3.9 11.88 9.9 11.88 6.06 0 9.9-4.68 9.9-11.88 0-7.14-3.84-11.82-9.9-11.82z"/><path id="a" d="M86.36 190.646c-6.117 0-9.536-5.015-9.536-10.752 0-5.7 3.42-10.715 9.536-10.715s9.537 5.016 9.537 10.715c0 5.737-3.42 10.752-9.537 10.752zm0-19.3c-4.483 0-7.37 3.61-7.37 8.55s2.888 8.587 7.37 8.587c4.52 0 7.37-3.647 7.37-8.587s-2.85-8.55-7.37-8.55z"/><path id="b" d="M184.626 190.228c-2.052 0-3.762-1.9-3.762-4.027v-22.188c0-.684.57-1.063 1.103-1.063.494 0 1.063.38 1.063 1.063V186.2c0 2.432 2.697 1.026 2.697 2.736 0 .645-.455 1.29-1.102 1.29z"/><path id="c" d="M229.35 190.646c-3.306 0-5.775-1.367-7.37-3.61v9.84c0 .684-.57 1.102-1.063 1.102-.532 0-1.103-.418-1.103-1.102V170.89c0-.684.57-1.063 1.103-1.063.494 0 1.063.38 1.063 1.063v1.862c1.596-2.204 4.065-3.572 7.37-3.572 6.117 0 9.536 5.016 9.536 10.715 0 5.737-3.42 10.752-9.536 10.752zm0-19.3c-4.52 0-7.37 3.61-7.37 8.55s2.85 8.587 7.37 8.587 7.37-3.647 7.37-8.587-2.85-8.55-7.37-8.55z"/><path id="d" d="M617.663 190.077c-2.052 0-3.8-1.748-3.8-3.876v-21.618c0-1.103.798-1.634 1.634-1.634s1.634.53 1.634 1.596V186.2c0 .456.342.646.532.646 1.063 0 1.634.76 1.634 1.634a1.54 1.54 0 0 1-1.634 1.596z"/><path id="e" d="M690.317 190.646c-6.117 0-9.536-5.015-9.536-10.752 0-5.7 3.42-10.715 9.536-10.715s9.537 5.016 9.537 10.715c0 5.737-3.42 10.752-9.537 10.752zm0-18.237c-3.8 0-6.27 2.964-6.27 7.485 0 4.56 2.47 7.522 6.27 7.522 3.838 0 6.27-2.963 6.27-7.522 0-4.52-2.432-7.485-6.27-7.485z"/><path id="f" d="M138.52 957.558c-4.508 0-7.028-3.695-7.028-7.924 0-4.2 2.52-7.896 7.028-7.896s7.028 3.695 7.028 7.896c0 4.23-2.52 7.924-7.028 7.924zm0-14.224c-3.304 0-5.432 2.66-5.432 6.3s2.128 6.328 5.432 6.328c3.332 0 5.432-2.687 5.432-6.328s-2.1-6.3-5.432-6.3z"/><path id="g" d="M159.77 957.25c-1.512 0-2.772-1.4-2.772-2.968V937.93c0-.504.42-.783.812-.783a.78.78 0 0 1 .784.783v16.353c0 1.792 1.988.756 1.988 2.016 0 .477-.336.952-.812.952z"/><path id="h" d="M192.726 957.558c-2.436 0-4.256-1.008-5.432-2.66v7.252c0 .504-.42.812-.784.812-.392 0-.812-.308-.812-.812v-19.152c0-.504.42-.784.812-.784.364 0 .784.28.784.784v1.372c1.176-1.624 2.996-2.632 5.432-2.632 4.508 0 7.028 3.695 7.028 7.896 0 4.23-2.52 7.924-7.028 7.924zm0-14.224c-3.332 0-5.432 2.66-5.432 6.3s2.1 6.328 5.432 6.328 5.432-2.687 5.432-6.328-2.1-6.3-5.432-6.3z"/></defs></svg>