<svg xmlns="http://www.w3.org/2000/svg" xmlns:xlink="http://www.w3.org/1999/xlink" viewBox="0 0 1080 1080"><style><![CDATA[.N{fill:none}.O{stroke:#fff}.P{stroke-miterlimit:10}.Q{fill:#fff}.R{opacity:.2}.S{stroke-width:2}.T{stroke-dasharray:1.99124 5.97373}]]></style><defs><radialGradient id="A" cx="540" cy="540" r="447.493" gradientUnits="userSpaceOnUse"><stop offset="0" stop-color="#948e99"/><stop offset=".307" stop-color="#6c5e73"/><stop offset=".612" stop-color="#4a3652"/><stop offset=".853" stop-color="#361d3e"/><stop offset="1" stop-color="#2e1437"/></radialGradient><linearGradient id="B" x1="367.408" y1="205.334" x2="367.408" y2="594.093" gradientUnits="userSpaceOnUse"><stop offset="0" stop-color="#a770ef"/><stop offset=".116" stop-color="#b177f0"/><stop offset=".5" stop-color="#cf8bf3"/><stop offset=".559" stop-color="#d692e5"/><stop offset=".753" stop-color="#eba7bd"/><stop offset=".907" stop-color="#f8b4a4"/><stop offset="1" stop-color="#fdb99b"/></linearGradient><linearGradient id="C" x1="873.467" y1="597.703" x2="873.467" y2="986.462" gradientUnits="userSpaceOnUse"><stop offset="0" stop-color="#a6ffcb"/><stop offset=".063" stop-color="#9dfdce"/><stop offset=".168" stop-color="#84f6d6"/><stop offset=".301" stop-color="#5bebe3"/><stop offset=".455" stop-color="#24ddf4"/><stop offset=".5" stop-color="#12d8fa"/><stop offset=".792" stop-color="#19bafd"/><stop offset="1" stop-color="#1fa2ff"/></linearGradient><path id="D" d="M738.47 226.358c-3.304 0-4.87-3.08-4.87-10.388s1.567-10.388 4.87-10.388 4.872 3.08 4.872 10.388-1.567 10.388-4.872 10.388zm0-19.096c-1.848 0-2.855 2.072-2.855 8.708s1.008 8.708 2.855 8.708 2.856-2.072 2.856-8.708-1.008-8.708-2.856-8.708z"/><path id="E" d="M662.288 986.742c-3.304 0-4.87-3.08-4.87-10.388s1.567-10.39 4.87-10.39 4.872 3.08 4.872 10.39-1.567 10.388-4.872 10.388zm0-19.096c-1.848 0-2.855 2.07-2.855 8.708s1.008 8.708 2.855 8.708 2.856-2.072 2.856-8.708-1.008-8.708-2.856-8.708z"/><path id="F" d="M107.788 236.7q0-.352-.316-.105-1.126 1.477-4.324 1.723a6.316 6.316 0 0 1-4.922-2.18 8.26 8.26 0 0 1-1.828-5.449 8.57 8.57 0 0 1 1.863-5.484 6.765 6.765 0 0 1 10.23-.035 8.693 8.693 0 0 1 1.863 5.625v11.004a7.859 7.859 0 0 1-1.863 5.238 6.873 6.873 0 0 1-5.203 2.18 7.123 7.123 0 0 1-4.535-1.547 6.056 6.056 0 0 1-2.18-4.078q-.07-.316.316-.316h2.004c.234 0 .363.14.387.422a4.355 4.355 0 0 0 1.195 2.18 4.718 4.718 0 0 0 6.152-.492 5.448 5.448 0 0 0 1.16-3.586zm0-6.082a6.245 6.245 0 0 0-1.125-3.832 4.009 4.009 0 0 0-3.305-1.547 3.874 3.874 0 0 0-3.234 1.547 6.632 6.632 0 0 0-1.16 3.902 6.355 6.355 0 0 0 1.125 3.832 3.848 3.848 0 0 0 3.199 1.477q4.464-.28 4.5-5.38h0z"/><path id="G" d="M739.24 630.633h-6.152q-.352.035-.316-.352v-1.793q-.035-.352.316-.316h6.152q.387.07.352-.316v-6.187q-.07-.387.316-.352h1.863q.387-.035.316.352v6.188q-.035.387.352.316h6.152q.352-.035.316.316v1.793q.035.352-.316.352h-6.152q-.387-.07-.352.316v6.188q.07.387-.316.316h-1.863q-.352.035-.316-.316v-6.187q.035-.387-.352-.316h0z"/><path id="H" d="M762.234 633.48q-.035.387.316.352h2.145q.387-.07.316.316v1.723q.07.387-.316.352h-2.145q-.352-.07-.316.316v5.063q.07.457-.316.387h-1.793q-.352.07-.316-.387v-5.062q.07-.387-.316-.316h-8.156q-.352.035-.316-.352v-2.215l.14-.598 7.488-16.066a.463.463 0 0 1 .492-.281h2.777q.387-.035.316.352zm-8.824 0q-.21.387.21.352h5.87q.387.035.316-.352v-13.148c-.048-.28-.14-.305-.28-.07z"/><path id="I" d="M875.972 747.927l.422-.316h2.496c.258 0 .374.117.352.352v22.22q-.072.387.316.352h4.57q.387-.07.316.316v1.723q.034.387-.316.316h-12.445c-.26.047-.375-.06-.352-.316v-1.723c-.023-.258.093-.363.352-.316h4.746q.35.035.316-.352v-18.738q-.035-.422-.352-.07a15.445 15.445 0 0 1-4.816 2.813q-.283.14-.316-.176v-1.793a.341.341 0 0 1 .246-.316 8.841 8.841 0 0 0 4.465-3.973h0z"/><path id="J" d="M937.836 835.557q-.035.352.316.316h10.266q.387-.07.316.316v1.898q.07.387-.316.352h-12.902q-.387.035-.316-.352v-1.934q.176-4.746 2.742-7.207a65.442 65.442 0 0 1 5.098-4.43 6.644 6.644 0 0 0 2.777-5.062 4.743 4.743 0 0 0-1.055-3.094 3.59 3.59 0 0 0-2.848-1.266 3.907 3.907 0 0 0-3.094 1.336 5.075 5.075 0 0 0-1.16 3.164q.035.492-.387.422h-1.898q-.387.07-.316-.316a7.759 7.759 0 0 1 2.004-4.957 6.399 6.399 0 0 1 4.887-2.145 6.324 6.324 0 0 1 4.676 1.934 6.832 6.832 0 0 1 1.898 4.816 7.908 7.908 0 0 1-2.742 5.941l-5.098 4.254a8.148 8.148 0 0 0-2.848 6.012h0z"/><path id="K" d="M486.392 226.01h-9.13c.198 2.508 1.826 4.334 4.225 4.334a3.977 3.977 0 0 0 3.234-1.518.578.578 0 0 1 .528-.308.673.673 0 0 1 .682.594c0 .198 0 .242-.418.726a5.195 5.195 0 0 1-4.026 1.76c-3.542 0-5.523-2.904-5.523-6.227 0-3.3 1.98-6.205 5.523-6.205s5.523 2.926 5.523 6.205a.666.666 0 0 1-.616.638zm-4.907-5.59c-2.64 0-4.027 2.024-4.225 4.335h8.47c-.198-2.508-1.826-4.335-4.247-4.335z"/><path id="L" d="M504.74 231.226h-.022a2.278 2.278 0 0 1-2.178-1.716 4.992 4.992 0 0 1-4.269 2.09c-3.586 0-5.523-2.948-5.523-6.227 0-3.322 1.98-6.205 5.523-6.205a5.031 5.031 0 0 1 4.269 2.068v-1.078a.62.62 0 0 1 .638-.616.601.601 0 0 1 .616.616v8.867c0 1.408 1.584.528 1.584 1.584a.605.605 0 0 1-.638.616zm-6.47-10.804c-2.596 0-4.27 2.1-4.27 4.95s1.672 4.973 4.27 4.973c2.618 0 4.27-2.112 4.27-4.973s-1.65-4.95-4.27-4.95z"/><path id="M" d="M534.086 220.62a3.761 3.761 0 0 0-3.763 3.763v6.227a.627.627 0 0 1-1.254 0v-10.45a.627.627 0 0 1 1.254 0v.902a5.025 5.025 0 0 1 3.763-1.694.627.627 0 1 1 0 1.254z"/><path id="N" d="M640.45 231.226a.619.619 0 0 1-.638-.616v-6.425a3.763 3.763 0 0 0-7.525 0v6.425a.627.627 0 0 1-1.254 0v-10.45a.627.627 0 0 1 1.254 0v.704a5.019 5.019 0 0 1 8.779 3.322v6.425a.614.614 0 0 1-.616.616z"/><path id="O" d="M657.544 231.226a.619.619 0 0 1-.638-.616v-1.1a4.993 4.993 0 0 1-4.269 2.09c-3.543 0-5.523-2.904-5.523-6.227 0-3.3 1.98-6.205 5.523-6.205a5.031 5.031 0 0 1 4.269 2.068v-5.06a.627.627 0 0 1 1.254 0v14.434a.614.614 0 0 1-.616.616zm-4.906-10.804c-2.597 0-4.27 2.1-4.27 4.95s1.672 4.973 4.27 4.973c2.618 0 4.27-2.112 4.27-4.973s-1.65-4.95-4.27-4.95z"/><path id="P" d="M673.824 226.01h-9.132c.198 2.508 1.826 4.334 4.225 4.334a3.975 3.975 0 0 0 3.234-1.518.578.578 0 0 1 .528-.308.673.673 0 0 1 .683.594c0 .198 0 .242-.42.726a5.195 5.195 0 0 1-4.026 1.76c-3.542 0-5.522-2.904-5.522-6.227 0-3.3 1.98-6.205 5.522-6.205s5.523 2.926 5.523 6.205a.667.667 0 0 1-.616.638zm-4.907-5.59c-2.64 0-4.026 2.024-4.225 4.335h8.472c-.198-2.508-1.826-4.335-4.247-4.335z"/><path id="Q" d="M104.714 1045.51a1.36 1.36 0 0 1-1.4-1.101 7.763 7.763 0 0 1-4.804 1.668 7.666 7.666 0 0 1-7.604-7.605v-9.24a1.434 1.434 0 0 1 2.868-.033v9.272a4.753 4.753 0 1 0 9.507 0v-9.24a1.33 1.33 0 0 1 1.4-1.468 1.364 1.364 0 0 1 1.435 1.435v14.9a1.328 1.328 0 0 1-1.401 1.4z"/><path id="R" d="M909.48 1046.357c-1.2 0-3.22-.42-3.92-1.58a.478.478 0 0 1-.08-.299.546.546 0 0 1 1.021-.32 3.815 3.815 0 0 0 2.98 1.061c1.94 0 2.92-.64 2.92-1.94 0-3.02-6.562-1.42-6.562-5.422 0-2.02 2.02-2.8 3.84-2.8a5.415 5.415 0 0 1 3.44 1.16.556.556 0 0 1 .18.379.647.647 0 0 1-.62.6.527.527 0 0 1-.38-.16 4.001 4.001 0 0 0-2.62-.84c-1.76 0-2.7.682-2.7 1.66 0 2.8 6.562 1.32 6.562 5.422 0 2.28-2 3.08-4.06 3.08z"/><path id="S" d="M993.338 1045.98h-.62a2.075 2.075 0 0 1-2.36-2.342v-7.14h-1.02a.57.57 0 0 1 0-1.141h1.02v-3.06a.563.563 0 0 1 .58-.561.547.547 0 0 1 .56.561v3.06h1.84a.57.57 0 0 1 0 1.141h-1.84v7.14c0 .98.28 1.2 1.22 1.2h.62a.57.57 0 0 1 0 1.141z"/><path id="T" d="M1006.16 1045.98h-.02a2.073 2.073 0 0 1-1.98-1.561 4.538 4.538 0 0 1-3.88 1.9c-3.26 0-5.02-2.682-5.02-5.662 0-3.02 1.8-5.64 5.02-5.64a4.572 4.572 0 0 1 3.88 1.881v-.98a.565.565 0 0 1 .581-.561.547.547 0 0 1 .56.561v8.063c0 1.28 1.44.48 1.44 1.44a.55.55 0 0 1-.58.561zm-5.88-9.822c-2.36 0-3.88 1.9-3.88 4.5s1.52 4.52 3.88 4.52c2.38 0 3.88-1.92 3.88-4.52s-1.5-4.5-3.88-4.5z"/><path id="U" d="M126.054 66.68h-22.2c.84 5.64 4.44 9.24 9.72 9.24a9.005 9.005 0 0 0 7.14-3.12 2.484 2.484 0 0 1 1.86-.96 2.8 2.8 0 0 1 2.7 2.64c0 .72-.18 1.26-1.44 2.52a14.622 14.622 0 0 1-10.26 4.02c-9.66 0-15.06-7.98-15.06-16.98 0-8.94 5.4-16.92 15.06-16.92 9.78 0 15 7.98 15 16.92a2.558 2.558 0 0 1-2.52 2.64zm-12.48-14.46c-5.64 0-8.94 4.14-9.72 9.3h19.44c-.84-5.76-4.44-9.3-9.72-9.3z"/><path id="V" d="M175.133 80a2.457 2.457 0 0 1-2.28-1.56l-3.18-7.8h-19.98l-3.24 7.8a2.44 2.44 0 0 1-2.22 1.56 2.651 2.651 0 0 1-2.7-2.52 1.976 1.976 0 0 1 .24-1.02l15.42-37.498a2.621 2.621 0 0 1 2.46-1.86 2.725 2.725 0 0 1 2.46 1.86l15.48 37.498a2.812 2.812 0 0 1 .18 1.02 2.561 2.561 0 0 1-2.64 2.52zm-15.48-33.6l-7.86 19.08h15.72z"/><path id="W" d="M513.086 43.28a4.32 4.32 0 1 1 4.319-4.319 4.302 4.302 0 0 1-4.319 4.319zm0 36.72a2.52 2.52 0 0 1-2.64-2.52V50.72a2.533 2.533 0 0 1 2.64-2.58 2.472 2.472 0 0 1 2.52 2.58v26.76a2.421 2.421 0 0 1-2.52 2.52z"/><path id="X" d="M575.844 66.68h-22.2c.84 5.64 4.44 9.24 9.72 9.24a9.007 9.007 0 0 0 7.14-3.12 2.483 2.483 0 0 1 1.859-.96 2.8 2.8 0 0 1 2.7 2.64c0 .72-.18 1.26-1.44 2.52a14.618 14.618 0 0 1-10.259 4.02c-9.66 0-15.06-7.98-15.06-16.98 0-8.94 5.4-16.92 15.06-16.92 9.78 0 15 7.98 15 16.92a2.558 2.558 0 0 1-2.519 2.64zm-12.48-14.46c-5.64 0-8.94 4.14-9.72 9.3h19.438c-.84-5.76-4.44-9.3-9.72-9.3z"/><path id="Y" d="M677.603 81.02c-9.66 0-15.06-7.92-15.06-16.98 0-9 5.4-16.92 15.06-16.92s15.06 7.92 15.06 16.92c0 9.06-5.4 16.98-15.06 16.98zm0-28.8c-6 0-9.9 4.68-9.9 11.82 0 7.2 3.9 11.88 9.9 11.88 6.06 0 9.9-4.68 9.9-11.88 0-7.14-3.84-11.82-9.9-11.82z"/><path id="Z" d="M342.772 127.88h-22.2c.84 5.64 4.44 9.24 9.72 9.24a9.005 9.005 0 0 0 7.14-3.12 2.483 2.483 0 0 1 1.86-.96 2.8 2.8 0 0 1 2.7 2.64c0 .72-.18 1.26-1.44 2.52a14.622 14.622 0 0 1-10.26 4.02c-9.66 0-15.06-7.98-15.06-16.98 0-8.94 5.4-16.92 15.06-16.92 9.78 0 15 7.98 15 16.92a2.558 2.558 0 0 1-2.52 2.64zm-12.48-14.46c-5.64 0-8.94 4.14-9.72 9.3h19.44c-.84-5.76-4.44-9.3-9.72-9.3z"/><path id="a" d="M363.05 113.42a8.644 8.644 0 0 0-8.52 8.58v16.62a2.501 2.501 0 0 1-2.64 2.58 2.456 2.456 0 0 1-2.52-2.52v-26.76a2.541 2.541 0 0 1 2.52-2.58 2.463 2.463 0 0 1 2.58 2.04 13.874 13.874 0 0 1 8.58-3.06 2.552 2.552 0 1 1 0 5.1z"/><path id="b" d="M583.776 141.2h-1.02c-5.7 0-7.86-3-7.86-7.92v-18.84h-1.8a2.55 2.55 0 0 1-.061-5.1h1.8v-8.34a2.436 2.436 0 0 1 2.579-2.52 2.39 2.39 0 0 1 2.521 2.52v8.34h3.84a2.487 2.487 0 0 1 2.52 2.52 2.441 2.441 0 0 1-2.52 2.58h-3.84v19.38c0 1.68.6 2.28 2.28 2.28h1.5a2.475 2.475 0 0 1 2.58 2.52 2.441 2.441 0 0 1-2.52 2.58z"/></defs><rect width="1080" height="1080" rx="40" fill="url(#A)"/><g class="N O P R S"><path d="M816.473 205.264v1"/><path d="M816.473 212.238v769.615" class="T"/><path d="M816.473 984.84v1"/></g><g class="N O P R S"><path d="M931.236 205.264v1"/><path d="M931.236 212.238v769.615" class="T"/><path d="M931.236 984.84v1"/></g><g class="N O P R S"><path d="M586.196 205.264v1"/><path d="M586.196 212.238v769.615" class="T"/><path d="M586.196 984.84v1"/></g><g class="N O P R S"><path d="M355.92 205.264v1"/><path d="M355.92 212.238v769.615" class="T"/><path d="M355.92 984.84v1"/></g><g class="N O P R S"><path d="M470.683 205.264v1"/><path d="M470.683 212.238v769.615" class="T"/><path d="M470.683 984.84v1"/></g><g class="N O P R S"><path d="M125.643 205.264v1"/><path d="M125.643 212.238v769.615" class="T"/><path d="M125.643 984.84v1"/></g><g class="N O P R S"><path d="M240.406 205.264v1"/><path d="M240.406 212.238v769.615" class="T"/><path d="M240.406 984.84v1"/></g><g opacity=".6" class="Q"><path d="M712.598 226.08v-1.68h2.465v-16.24l-2.52.224v-1.232a7.752 7.752 0 0 0 3.192-1.568h1.344V224.4h2.352v1.68zm12.095-3.753c.28 2.016 1.4 2.352 2.185 2.352 1.792 0 2.912-2.464 2.968-8.092a4.393 4.393 0 0 1-3.108 1.54c-2.268 0-4.34-1.624-4.34-6.216 0-3.92 1.68-6.328 4.34-6.328 3.5 0 5.18 2.016 5.18 9.296 0 8.12-1.904 11.48-5.097 11.48-2.604 0-3.584-1.568-3.976-3.92zm5.208-9.52c0-4.088-1.063-5.544-2.855-5.544-1.568 0-2.632 1.176-2.632 4.676 0 3.612 1.23 4.508 2.52 4.508a3.836 3.836 0 0 0 2.968-1.736z"/><use xlink:href="#D"/><use xlink:href="#D" x="11.31"/></g><g opacity=".7" class="Q"><path d="M646.106 986.462v-1.68c1.792-5.992 7.392-9.352 7.392-13.944 0-2.128-1.064-3.19-2.437-3.19-1.596 0-2.77 1.23-2.94 4.256h-1.848c.224-4.592 2.296-5.937 4.73-5.937 2.66 0 4.508 1.792 4.508 5.152 0 5.04-4.536 6.608-7.56 13.664h7.672v1.68z"/><use xlink:href="#E"/><path d="M670.352 986.462v-1.68h2.465v-16.24l-2.52.225v-1.232a7.752 7.752 0 0 0 3.192-1.568h1.344v18.816h2.352v1.68z"/><use xlink:href="#E" x="22.622"/></g><path d="M700.96 205.334v61.785H59.39l-25.533-30.892 25.533-30.892zM174.402 270.73L148.87 301.62l25.533 30.892H700.96V270.73zm115.013 65.395l-25.533 30.892 25.533 30.892H700.96v-61.785zm161.02 65.395l-25.533 30.892 25.533 30.892H700.96v-61.785zm115.013 65.395l-25.533 30.892 25.533 30.892H700.96v-61.785zm115.013 65.395L654.93 563.2l25.533 30.892h20.498v-61.785z" fill="url(#B)"/><path d="M767.438 597.703l25.533 31.664-25.533 30.12h-66.503v-61.785zm-66.503 326.975v61.785h319.533L1046 955.57l-25.533-30.892zm0-65.395v61.785h296.53l25.533-30.12-25.533-31.664zm0-65.395v61.785H951.46l25.533-30.12-25.533-31.664zm0-65.395v61.785h203.243l25.533-30.892-25.533-30.892zm0-65.395v61.785h112.51l25.533-30.12-25.533-31.664z" fill="url(#C)"/><path d="M701.71 205.264V985.84" stroke-width="4" class="N O P"/><g class="Q"><path d="M74.703 234.837c.258-.047.375.06.352.316v1.863c0 .258-.118.375-.352.352H63.207c-.258.023-.375-.094-.352-.352v-1.863q-.035-.387.352-.316h11.496zm7.49 10.898q-.035.352.316.316h10.266q.387-.07.316.316v1.898q.07.387-.316.352H79.872q-.387.035-.316-.352v-1.934q.176-4.746 2.742-7.207a65.352 65.352 0 0 1 5.098-4.43 6.646 6.646 0 0 0 2.777-5.062 4.743 4.743 0 0 0-1.055-3.094 3.592 3.592 0 0 0-2.848-1.266 3.906 3.906 0 0 0-3.094 1.336 5.075 5.075 0 0 0-1.16 3.164q.034.492-.387.422H79.73q-.387.07-.316-.316a7.754 7.754 0 0 1 2.004-4.957 6.398 6.398 0 0 1 4.887-2.145 6.324 6.324 0 0 1 4.676 1.934 6.836 6.836 0 0 1 1.898 4.816 7.909 7.909 0 0 1-2.742 5.941l-5.098 4.254a8.148 8.148 0 0 0-2.848 6.012h0z"/><use xlink:href="#F"/></g><g fill="#2e3192"><use xlink:href="#G"/><use xlink:href="#H"/><use xlink:href="#G" x="45.306" y="65.639"/><path d="M799.103 694.41q.035.387.316.14 1.125-1.512 4.254-1.793a6.377 6.377 0 0 1 4.957 2.215 8.248 8.248 0 0 1 1.863 5.449 8.507 8.507 0 0 1-1.934 5.52 6.662 6.662 0 0 1-10.195.035 8.725 8.725 0 0 1-1.898-5.66v-11.04a7.813 7.813 0 0 1 1.898-5.273 6.686 6.686 0 0 1 5.168-2.215 7.123 7.123 0 0 1 4.535 1.547 6.406 6.406 0 0 1 2.25 4.148q.07.316-.352.316h-2.074q-.352 0-.352-.422a4.605 4.605 0 0 0-1.23-2.18 4.042 4.042 0 0 0-2.812-.914 4.105 4.105 0 0 0-3.234 1.406 5.448 5.448 0 0 0-1.16 3.586zm0 6.082a6.091 6.091 0 0 0 1.125 3.797 4.097 4.097 0 0 0 6.469 0 6.627 6.627 0 0 0 1.125-3.867 6.389 6.389 0 0 0-1.09-3.762 3.848 3.848 0 0 0-3.199-1.477q-4.395.28-4.43 5.31h0z"/><use xlink:href="#G" x="119.433" y="130.899"/><use xlink:href="#I"/><path d="M899.88 749.122a7.483 7.483 0 0 1 2.004 5.238v11.883a7.614 7.614 0 0 1-2.004 5.273 6.99 6.99 0 0 1-5.098 2.074 7.067 7.067 0 0 1-5.098-2.074 7.472 7.472 0 0 1-1.969-5.273V754.36a7.345 7.345 0 0 1 1.969-5.238 6.883 6.883 0 0 1 5.098-2.074 6.811 6.811 0 0 1 5.098 2.074zm-9.527 5.238v11.883a5.303 5.303 0 0 0 1.195 3.516 4.5 4.5 0 0 0 6.469 0 5.212 5.212 0 0 0 1.23-3.516V754.36a5.075 5.075 0 0 0-1.23-3.48 4.5 4.5 0 0 0-6.469 0 5.163 5.163 0 0 0-1.195 3.48h0z"/></g><g class="Q"><path d="M905.735 827.084h-6.152q-.352.035-.316-.352v-1.793q-.035-.352.316-.316h6.152q.387.07.352-.316v-6.187q-.07-.387.316-.352h1.863q.387-.035.316.352v6.188q-.035.387.352.316h6.152q.352-.035.316.316v1.793q.035.352-.316.352h-6.152q-.387-.07-.352.316v6.188q.07.387-.316.316h-1.863q-.352.035-.316-.316v-6.19q.035-.387-.352-.316h0zm17.3-13.604l.422-.316h2.496c.258 0 .374.117.352.352v22.22q-.072.387.316.352h4.57q.387-.07.316.316v1.723q.034.387-.316.316h-12.445c-.26.047-.375-.06-.352-.316V836.4c-.023-.258.093-.363.352-.316h4.746q.35.035.316-.352v-18.738q-.035-.422-.352-.07a15.445 15.445 0 0 1-4.816 2.813q-.283.14-.316-.176v-1.793a.341.341 0 0 1 .246-.316 8.841 8.841 0 0 0 4.465-3.973h0z"/><use xlink:href="#J"/><path d="M952.518 892.545h-6.152q-.352.035-.316-.352V890.4q-.035-.352.316-.316h6.152c.258.047.374-.06.352-.316v-6.187q-.072-.387.316-.352h1.863q.387-.035.316.352v6.188c-.023.258.093.363.352.316h6.152q.35-.035.316.316v1.793q.034.352-.316.352h-6.152c-.26-.047-.375.06-.352.316v6.188q.07.387-.316.316h-1.863q-.352.035-.316-.316v-6.187c.022-.258-.094-.363-.352-.316h0zm17.298-13.605l.422-.316h2.496q.387 0 .352.352v22.22q-.07.387.316.352h4.57q.387-.07.316.316v1.723q.035.387-.316.316h-12.445q-.387.07-.352-.316v-1.723q-.035-.387.352-.316h4.746q.352.035.316-.352v-18.738q-.035-.422-.352-.07a15.434 15.434 0 0 1-4.816 2.813q-.28.14-.316-.176v-1.793a.341.341 0 0 1 .246-.316 8.837 8.837 0 0 0 4.465-3.973h0zm22.96 16.453q-.035.387.316.352h2.145q.387-.07.316.316v1.723q.07.387-.316.352h-2.145q-.352-.07-.316.316v5.063q.07.457-.316.387h-1.793q-.352.07-.316-.387v-5.062q.07-.387-.316-.316h-8.156q-.352.035-.316-.352v-2.215l.14-.598 7.488-16.066a.464.464 0 0 1 .492-.281h2.777q.387-.035.316.352zm-8.824 0q-.2.387.2.352h5.87q.387.035.316-.352v-13.148q-.07-.422-.28-.07zm-8.676 62.652h-6.152q-.352.035-.316-.352V955.9q-.035-.352.316-.316h6.152q.387.07.352-.316v-6.187q-.07-.387.316-.352h1.863q.387-.035.316.352v6.188q-.035.387.352.316h6.152q.352-.035.316.316v1.793q.035.352-.316.352h-6.152q-.387-.07-.352.316v6.188q.07.387-.316.316h-1.863q-.352.035-.316-.316v-6.187q.035-.387-.352-.316h0z"/><use xlink:href="#I" x="116.601" y="196.513"/><path d="M1007.094 963.635q.28 3.797 4.22 3.973a3.981 3.981 0 0 0 2.988-1.195 4.803 4.803 0 0 0 1.16-3.34v-3.2a4.601 4.601 0 0 0-1.02-3.094 3.778 3.778 0 0 0-2.953-1.266 5.138 5.138 0 0 0-3.48 1.195.401.401 0 0 1-.457.176h-1.723q-.387.07-.316-.316V944.5q-.07-.387.316-.316h10.97q.387-.07.316.316v1.793q.07.387-.316.352h-8.578q-.352-.07-.316.316v6.96q0 .316.316.14a7.411 7.411 0 0 1 3.48-.809 6.224 6.224 0 0 1 4.57 1.793 6.623 6.623 0 0 1 1.793 4.816v3.2a6.882 6.882 0 0 1-2.004 5.027 6.968 6.968 0 0 1-4.852 1.934 6.528 6.528 0 0 1-4.711-1.863 6.779 6.779 0 0 1-1.934-4.641q-.07-.352.316-.316h1.828q.387-.035.387.422h0zM190.046 300.23c.258-.047.374.06.352.316v1.863c0 .258-.118.375-.352.352H178.55c-.26.023-.375-.094-.352-.352v-1.863c-.023-.258.093-.363.352-.316h11.496z"/><use xlink:href="#J" x="-740.301" y="-524.427"/><use xlink:href="#H" x="-539.279" y="-327.975"/><path d="M304.764 365.627q.387-.07.352.316v1.863c0 .258-.118.375-.352.352h-11.496c-.258.023-.375-.094-.352-.352v-1.863q-.035-.387.352-.316h11.496zm9.95-11.18l.422-.316h2.496c.258 0 .375.117.352.352v22.22q-.07.387.316.352h4.57q.387-.07.316.316v1.723q.034.387-.316.316h-12.445q-.387.07-.352-.316v-1.723q-.035-.387.352-.316h4.746q.35.035.316-.352v-18.738q-.035-.422-.352-.07a15.44 15.44 0 0 1-4.816 2.813q-.282.14-.316-.176v-1.793a.341.341 0 0 1 .246-.316 8.839 8.839 0 0 0 4.465-3.973h0z"/><use xlink:href="#F" x="230.062" y="130.8"/><path d="M465.6 431.02q.387-.07.352.316v1.863q0 .387-.352.352h-11.496q-.387.035-.352-.352v-1.863q-.035-.387.352-.316H465.6z"/><use xlink:href="#I" x="-400.42" y="-328.085"/><use xlink:href="#J" x="-447.482" y="-393.637"/><path d="M580.542 496.417q.387-.07.352.316v1.863c0 .258-.118.375-.352.352h-11.496c-.258.023-.375-.094-.352-.352v-1.863c-.023-.258.093-.363.352-.316h11.496zm17.93-8.087a45.735 45.735 0 0 0-4.711 10.582 46.427 46.427 0 0 0-1.758 11.039q.07.457-.352.387h-2.004q-.387-.035-.316-.387a45.205 45.205 0 0 1 1.969-11.18 46.458 46.458 0 0 1 4.816-10.828q.316-.492-.035-.492h-10.828q-.387.07-.316-.352v-1.863q-.07-.387.316-.316h13.043q.387-.07.316.316v2.602l-.14.492zm27.41 74.05q.387-.07.352.316v1.863q0 .387-.352.352h-11.496q-.387.035-.352-.352v-1.863q-.035-.387.352-.316h11.496zm7.5 10.9q-.035.352.316.316h10.266q.387-.07.316.316v1.898q.07.387-.316.352h-12.902q-.388.035-.316-.352v-1.934q.176-4.746 2.742-7.207a65.264 65.264 0 0 1 5.098-4.43 6.647 6.647 0 0 0 2.777-5.062 4.743 4.743 0 0 0-1.055-3.094 3.593 3.593 0 0 0-2.848-1.266 3.906 3.906 0 0 0-3.094 1.336 5.075 5.075 0 0 0-1.16 3.164c.022.328-.105.47-.387.422h-1.898q-.388.07-.316-.316a7.749 7.749 0 0 1 2.004-4.957 6.397 6.397 0 0 1 4.887-2.145 6.324 6.324 0 0 1 4.676 1.934 6.84 6.84 0 0 1 1.898 4.816 7.908 7.908 0 0 1-2.742 5.941l-5.098 4.254a8.148 8.148 0 0 0-2.848 6.012h0zM462.896 216.792h-4.27V230.6a.606.606 0 0 1-.638.616.599.599 0 0 1-.616-.616v-13.818h-4.27a.617.617 0 1 1 0-1.232h9.8a.616.616 0 0 1 0 1.232zm10.912 14.434a.619.619 0 0 1-.638-.616v-6.425a3.763 3.763 0 0 0-7.525 0v6.425a.627.627 0 0 1-1.254 0v-14.434a.627.627 0 0 1 1.254 0v4.687a4.887 4.887 0 0 1 3.763-1.694 5.057 5.057 0 0 1 5.017 5.017v6.425a.614.614 0 0 1-.616.616z"/><use xlink:href="#K"/><use xlink:href="#L"/><path d="M515.475 220.4l-4.334 10.32a.723.723 0 0 1-.616.506.75.75 0 0 1-.638-.506l-4.334-10.298a.698.698 0 0 1-.044-.286.615.615 0 0 1 .638-.594.565.565 0 0 1 .55.374l3.83 9.043 3.807-9.043a.628.628 0 0 1 1.21.198.527.527 0 0 1-.066.286z"/><use xlink:href="#K" x="40.325"/><use xlink:href="#M"/><use xlink:href="#L" x="41.684"/><path d="M553.2 236.242c-1.87 0-4.51-.704-4.51-1.496a.698.698 0 0 1 .638-.704 7.95 7.95 0 0 1 1.166.528 8.238 8.238 0 0 0 2.707.418c2.816 0 4.27-1.386 4.27-4.093v-1.54a5.254 5.254 0 0 1-4.269 1.87c-3.477 0-5.523-2.464-5.523-5.853 0-3.3 1.98-6.205 5.523-6.205a5.031 5.031 0 0 1 4.269 2.068v-1.056a.627.627 0 0 1 1.254 0v10.715c0 3.498-2.1 5.347-5.523 5.347zm0-15.82c-2.596 0-4.27 2.1-4.27 4.95 0 2.838 1.562 4.6 4.27 4.6s4.27-1.76 4.27-4.6c0-2.86-1.65-4.95-4.27-4.95z"/><use xlink:href="#K" x="84.496"/><path d="M583.273 231.6a4.992 4.992 0 0 1-4.269-2.09v5.7a.627.627 0 1 1-1.254 0v-15.05a.627.627 0 0 1 1.254 0v1.078a5.031 5.031 0 0 1 4.269-2.068c3.542 0 5.523 2.904 5.523 6.205 0 3.323-1.98 6.227-5.523 6.227zm0-11.178c-2.618 0-4.27 2.1-4.27 4.95s1.65 4.973 4.27 4.973 4.27-2.112 4.27-4.973-1.65-4.95-4.27-4.95z"/><use xlink:href="#K" x="114.064"/><path d="M607.824 220.62a3.761 3.761 0 0 0-3.763 3.763v6.227a.627.627 0 0 1-1.254 0v-10.45a.627.627 0 0 1 1.254 0v.902a5.024 5.024 0 0 1 3.763-1.694.627.627 0 1 1 0 1.254zm5.036 11.024c-1.32 0-3.542-.462-4.312-1.738a.531.531 0 0 1-.088-.33.6.6 0 0 1 1.122-.352 4.192 4.192 0 0 0 3.278 1.167c2.135 0 3.213-.704 3.213-2.134 0-3.323-7.217-1.562-7.217-5.963 0-2.223 2.222-3.08 4.225-3.08a5.963 5.963 0 0 1 3.784 1.276.618.618 0 0 1 .198.418.713.713 0 0 1-.683.66.584.584 0 0 1-.418-.176 4.397 4.397 0 0 0-2.882-.924c-1.937 0-2.97.75-2.97 1.827 0 3.08 7.217 1.452 7.217 5.963 0 2.508-2.2 3.388-4.467 3.388zm10.915-.044c-3.543 0-5.523-2.904-5.523-6.227 0-3.3 1.98-6.205 5.523-6.205s5.522 2.904 5.522 6.205c0 3.323-1.98 6.227-5.522 6.227zm0-11.178c-2.597 0-4.27 2.1-4.27 4.95s1.672 4.973 4.27 4.973c2.618 0 4.27-2.112 4.27-4.973s-1.65-4.95-4.27-4.95z"/><use xlink:href="#N"/><use xlink:href="#O"/><path d="M661.04 217.43a1.254 1.254 0 1 1 1.255-1.254 1.24 1.24 0 0 1-1.255 1.254zm0 13.796a.605.605 0 0 1-.638-.616v-10.45a.606.606 0 0 1 .638-.616.599.599 0 0 1 .616.616v10.45a.589.589 0 0 1-.616.616z"/><use xlink:href="#P"/><use xlink:href="#O" x="28.556"/><path d="M413.077 255.226h-5.94c-.814 0-1.32-.462-1.32-1.078a1.684 1.684 0 0 1 .242-.836l5.435-8.978a2.086 2.086 0 0 0 .33-.99 1.635 1.635 0 0 0-1.628-1.672c-1.782 0-1.694 2.024-3.036 2.024a1.287 1.287 0 0 1-1.298-1.232 1.205 1.205 0 0 1 .198-.682 5.119 5.119 0 0 1 4.136-2.619 4.142 4.142 0 0 1 4.137 4.181 4.831 4.831 0 0 1-.682 2.311l-4.27 7.063h3.697a1.254 1.254 0 0 1 0 2.508zm7.083.374a4.592 4.592 0 0 1-4.07-2.178 1.243 1.243 0 0 1-.242-.726 1.356 1.356 0 0 1 1.386-1.254 1.148 1.148 0 0 1 .946.572 2.175 2.175 0 0 0 1.98 1.078c1.408 0 2.376-1.056 2.508-4.93a4.704 4.704 0 0 1-2.508.748 4.877 4.877 0 0 1 0-9.748c4.687 0 5.017 4.73 5.017 8.208 0 4.114-.902 8.23-5.017 8.23zm0-13.928a2.369 2.369 0 1 0 2.245 2.289c-.264-1.276-.924-2.3-2.245-2.3zm20.857 3.652l-5.92 12.894a2.806 2.806 0 0 1-2.486 1.628h-.462a1.254 1.254 0 1 1 0-2.508h.44a.235.235 0 0 0 .22-.154l1.628-3.565-3.982-8.273a1.141 1.141 0 0 1-.132-.572 1.305 1.305 0 0 1 1.298-1.254 1.157 1.157 0 0 1 1.078.726l3.08 6.425 2.97-6.403a1.144 1.144 0 0 1 1.078-.726 1.286 1.286 0 0 1 1.32 1.188 1.535 1.535 0 0 1-.132.594zm9.877 5.303h-7.13a2.867 2.867 0 0 0 2.882 2.464 2.714 2.714 0 0 0 1.958-.704 1.284 1.284 0 0 1 .88-.396 1.392 1.392 0 0 1 1.386 1.276c0 1.188-2.53 2.333-4.225 2.333-3.586 0-5.523-2.926-5.523-6.227 0-3.256 1.937-6.205 5.523-6.205 3.06 0 5.5 2.3 5.5 6.205a1.212 1.212 0 0 1-1.254 1.254zm-4.247-4.95a2.859 2.859 0 0 0-2.86 2.442h5.743a2.847 2.847 0 0 0-2.882-2.442zm17.71 9.55a2.733 2.733 0 0 1-2.135-1.056 5.167 5.167 0 0 1-3.696 1.43c-3.586 0-5.523-2.948-5.523-6.227 0-3.256 1.937-6.205 5.523-6.205a5.226 5.226 0 0 1 3.168.99 1.311 1.311 0 0 1 1.1-.616 1.226 1.226 0 0 1 1.254 1.254v7.46c0 .242.1.33.33.33a1.305 1.305 0 0 1 1.298 1.32 1.324 1.324 0 0 1-1.32 1.32zm-5.83-9.55c-1.716 0-3.015 1.298-3.015 3.696 0 2.42 1.298 3.72 3.015 3.72 1.738 0 3.015-1.298 3.015-3.72 0-2.398-1.276-3.696-3.015-3.696zm13.088 0a2.48 2.48 0 0 0-2.508 2.508v5.787a1.254 1.254 0 1 1-2.508 0v-9.175a1.198 1.198 0 0 1 1.254-1.254 1.383 1.383 0 0 1 1.012.44 4.86 4.86 0 0 1 2.75-.814 1.199 1.199 0 0 1 1.254 1.254 1.211 1.211 0 0 1-1.254 1.254zm5.544 9.924a5.958 5.958 0 0 1-4.203-1.584 1.434 1.434 0 0 1-.33-.814 1.326 1.326 0 0 1 1.298-1.276 1.186 1.186 0 0 1 .924.44 3.232 3.232 0 0 0 2.31.726c1.826 0 2.046-.594 2.046-1.166 0-2.376-6.25-.528-6.25-5.28 0-2.663 2.354-3.477 4.467-3.477 1.298 0 4.048.572 4.048 2.002a1.322 1.322 0 0 1-1.276 1.276 1.166 1.166 0 0 1-.726-.22 3.507 3.507 0 0 0-2.046-.55c-1.804 0-1.958.572-1.958.968 0 2.112 6.25.462 6.25 5.28 0 2.684-2.178 3.674-4.555 3.674zm15.95 0a4.992 4.992 0 0 1-4.269-2.09v1.1a.627.627 0 0 1-1.254 0v-14.434a.627.627 0 0 1 1.254 0v5.06a5.031 5.031 0 0 1 4.269-2.068c3.542 0 5.523 2.904 5.523 6.205 0 3.323-1.98 6.227-5.523 6.227zm0-11.178c-2.618 0-4.27 2.1-4.27 4.95s1.65 4.973 4.27 4.973 4.27-2.112 4.27-4.973-1.65-4.95-4.27-4.95z"/><use xlink:href="#K" x="23.901" y="24"/><path d="M516.67 240.792h-.682a.973.973 0 0 0-.968.946v1.804h1.65a.6.6 0 0 1 .616.616.619.619 0 0 1-.616.638h-1.65v9.813a.6.6 0 0 1-.616.616.588.588 0 0 1-.616-.616v-9.813h-1.518a.627.627 0 0 1 0-1.254h1.518v-1.804a2.183 2.183 0 0 1 2.178-2.179h.704a.625.625 0 0 1 .638.638.59.59 0 0 1-.638.594zm6.887 14.808c-3.542 0-5.523-2.904-5.523-6.227 0-3.3 1.98-6.205 5.523-6.205s5.523 2.904 5.523 6.205c0 3.323-1.98 6.227-5.523 6.227zm0-11.178c-2.596 0-4.27 2.1-4.27 4.95s1.672 4.973 4.27 4.973c2.618 0 4.27-2.112 4.27-4.973s-1.65-4.95-4.27-4.95z"/><use xlink:href="#M" x="1.747" y="24"/><path d="M546.61 250.01h-9.13c.198 2.508 1.826 4.334 4.225 4.334a3.977 3.977 0 0 0 3.234-1.518.578.578 0 0 1 .528-.308.673.673 0 0 1 .682.594c0 .198 0 .242-.418.726a5.195 5.195 0 0 1-4.026 1.76c-3.542 0-5.523-2.904-5.523-6.227 0-3.3 1.98-6.205 5.523-6.205s5.523 2.926 5.523 6.205a.666.666 0 0 1-.616.638zm-4.907-5.59c-2.64 0-4.026 2.024-4.225 4.335h8.47c-.198-2.508-1.826-4.335-4.247-4.335z"/><use xlink:href="#M" x="24.402" y="24"/><use xlink:href="#K" x="82.872" y="24"/><path d="M575.643 255.226h-.682a2.282 2.282 0 0 1-2.596-2.574v-7.855h-1.122a.627.627 0 0 1 0-1.254h1.122v-3.367a.619.619 0 0 1 .638-.616.6.6 0 0 1 .616.616v3.367h2.024a.627.627 0 0 1 0 1.254h-2.024v7.855c0 1.078.308 1.32 1.342 1.32h.682a.627.627 0 0 1 0 1.254zm2.375-13.796a1.254 1.254 0 1 1 1.254-1.254 1.24 1.24 0 0 1-1.254 1.254zm0 13.796a.605.605 0 0 1-.638-.616v-10.45a.606.606 0 0 1 .638-.616.599.599 0 0 1 .616.616v10.45a.589.589 0 0 1-.616.616z"/><use xlink:href="#M" x="51.809" y="24"/><use xlink:href="#K" x="110.278" y="24"/><path d="M613.348 255.226a.601.601 0 0 1-.616-.616v-7.393a2.805 2.805 0 0 0-5.61-.022v7.415a.601.601 0 0 1-.616.616.619.619 0 0 1-.639-.616v-7.393a2.794 2.794 0 0 0-5.588-.022v7.415a.627.627 0 0 1-1.254 0v-10.45a.627.627 0 0 1 1.254 0v.132a3.999 3.999 0 0 1 2.794-1.122 4.082 4.082 0 0 1 3.433 1.87 4.061 4.061 0 0 1 7.48 2.156v7.415a.619.619 0 0 1-.638.616z"/><use xlink:href="#P" x="-47.871" y="24"/><use xlink:href="#N" x="-2.728" y="24"/><path d="M644.4 255.226h-.682a2.282 2.282 0 0 1-2.597-2.574v-7.855h-1.122a.627.627 0 0 1 0-1.254h1.122v-3.367a.619.619 0 0 1 .639-.616.6.6 0 0 1 .615.616v3.367h2.024a.627.627 0 0 1 0 1.254h-2.024v7.855c0 1.078.3 1.32 1.343 1.32h.682a.627.627 0 0 1 0 1.254zm17.732 0h-.02a2.278 2.278 0 0 1-2.179-1.716 4.992 4.992 0 0 1-4.269 2.09c-3.586 0-5.522-2.948-5.522-6.227 0-3.322 1.98-6.205 5.522-6.205a5.03 5.03 0 0 1 4.269 2.068v-1.078a.62.62 0 0 1 .639-.616.601.601 0 0 1 .616.616v8.867c0 1.408 1.584.528 1.584 1.584a.606.606 0 0 1-.639.616zm-6.47-10.804c-2.596 0-4.27 2.1-4.27 4.95s1.673 4.973 4.27 4.973c2.618 0 4.27-2.112 4.27-4.973s-1.65-4.95-4.27-4.95zm13.245 15.82c-1.87 0-4.5-.704-4.5-1.496a.698.698 0 0 1 .639-.704 7.95 7.95 0 0 1 1.166.528 8.235 8.235 0 0 0 2.706.418c2.816 0 4.27-1.386 4.27-4.093v-1.54a5.253 5.253 0 0 1-4.269 1.87c-3.477 0-5.522-2.464-5.522-5.853 0-3.3 1.98-6.205 5.522-6.205a5.03 5.03 0 0 1 4.269 2.068v-1.056a.628.628 0 0 1 1.255 0v10.715c0 3.498-2.1 5.347-5.523 5.347zm0-15.82c-2.596 0-4.27 2.1-4.27 4.95 0 2.838 1.563 4.6 4.27 4.6s4.27-1.76 4.27-4.6c0-2.86-1.65-4.95-4.27-4.95zm17.69 5.588h-9.13c.197 2.508 1.826 4.334 4.225 4.334a3.978 3.978 0 0 0 3.234-1.518.578.578 0 0 1 .528-.308.672.672 0 0 1 .682.594c0 .198 0 .242-.418.726a5.196 5.196 0 0 1-4.026 1.76c-3.543 0-5.523-2.904-5.523-6.227 0-3.3 1.98-6.205 5.523-6.205s5.522 2.926 5.522 6.205a.666.666 0 0 1-.616.638zm-4.906-5.6c-2.64 0-4.027 2.024-4.225 4.335h8.47c-.198-2.508-1.826-4.335-4.246-4.335z"/></g><g opacity=".3" class="Q"><path d="M42.328 1046.045a7.892 7.892 0 0 1-5.503-2.002 1.364 1.364 0 0 1-1.468 1.401 1.346 1.346 0 0 1-1.401-1.401v-20.88a1.435 1.435 0 0 1 2.869-.033v6.238a7.4 7.4 0 0 1 5.503-2.169c5.37 0 8.373 4.403 8.373 9.406 0 5.037-3.002 9.44-8.373 9.44zm0-16c-3.335 0-5.503 2.602-5.503 6.57 0 4.003 2.168 6.604 5.503 6.604s5.504-2.602 5.504-6.604c0-3.97-2.168-6.57-5.504-6.57zm25.555 8.037h-12.34c.467 3.136 2.468 5.137 5.403 5.137a5.003 5.003 0 0 0 3.969-1.734 1.383 1.383 0 0 1 1.034-.533 1.556 1.556 0 0 1 1.501 1.468c0 .4-.1.7-.8 1.4a8.129 8.129 0 0 1-5.704 2.235c-5.37 0-8.372-4.437-8.372-9.44 0-4.97 3.002-9.406 8.372-9.406 5.437 0 8.34 4.437 8.34 9.406a1.422 1.422 0 0 1-1.401 1.468zm-6.937-8.038c-3.136 0-4.97 2.3-5.403 5.17H66.35c-.467-3.202-2.468-5.17-5.403-5.17zM88 1045.478a3.247 3.247 0 0 1-2.969-1.901 7.642 7.642 0 0 1-5.87 2.469c-5.437 0-8.372-4.47-8.372-9.44s3.002-9.406 8.372-9.406a7.369 7.369 0 0 1 5.504 2.202v-.134a1.376 1.376 0 0 1 1.4-1.501 1.341 1.341 0 0 1 1.468 1.401v12.875a.54.54 0 0 0 .467.601 1.418 1.418 0 1 1 0 2.835zm-8.84-15.443c-3.336 0-5.504 2.602-5.504 6.57 0 4.003 2.168 6.604 5.504 6.604 3.37 0 5.504-2.602 5.504-6.604 0-3.97-2.135-6.57-5.504-6.57z"/><use xlink:href="#Q"/><path d="M115.158 1045.478h-.567c-3.17 0-4.37-1.668-4.37-4.403V1030.6h-1a1.418 1.418 0 1 1-.033-2.835h1v-4.637a1.355 1.355 0 0 1 1.435-1.4 1.328 1.328 0 0 1 1.401 1.4v4.637h2.135a1.383 1.383 0 0 1 1.4 1.401 1.356 1.356 0 0 1-1.4 1.434h-2.135v10.774c0 .934.333 1.268 1.268 1.268h.833a1.376 1.376 0 0 1 1.435 1.4 1.357 1.357 0 0 1-1.4 1.435zm4.604-20.415a2.401 2.401 0 1 1 2.402-2.401 2.392 2.392 0 0 1-2.402 2.401zm0 20.414a1.4 1.4 0 0 1-1.467-1.401V1029.2a1.408 1.408 0 0 1 1.467-1.435 1.374 1.374 0 0 1 1.401 1.435v14.876a1.346 1.346 0 0 1-1.401 1.401zm10.376-14.877h-1.5v13.442a1.364 1.364 0 0 1-1.468 1.401 1.346 1.346 0 0 1-1.401-1.401V1030.6h-1.37a1.418 1.418 0 0 1 0-2.835h1.367v-2.27a3.801 3.801 0 0 1 3.836-3.769 1.418 1.418 0 1 1 0 2.835.934.934 0 0 0-.967.9v2.302h1.5a1.418 1.418 0 1 1 0 2.835z"/><use xlink:href="#Q" x="42.068"/><path d="M154.725 1045.544a3.403 3.403 0 0 1-3.336-3.402v-18.98a1.435 1.435 0 0 1 2.869-.033v19.013a.527.527 0 0 0 .467.567 1.418 1.418 0 1 1 0 2.835zm15.37-.066v-1.264c1.886-.237 2.046-.437 2.046-3.157v-6.7c0-2.8-1.248-4.017-3.064-4.017a5.597 5.597 0 0 0-3.47 1.493v9.476c0 2.527.187 2.658 2.06 2.896v1.264h-8.968v-1.264c2.254-.33 2.5-.4 2.5-3v-8.2c0-2.446-.303-2.565-2.185-2.922v-1.184a34.101 34.101 0 0 0 6.653-1.533l-.052 2.95 2.6-1.745a5.659 5.659 0 0 1 3.159-1.086c3.194 0 5.2 2.338 5.2 6.3v7.5c0 2.54.237 2.657 2.277 2.92v1.264zm23.9-3.703c-2.458 3.427-5.488 4.178-7.014 4.178-5.142 0-8.124-3.936-8.124-8.594a10.333 10.333 0 0 1 2.832-7.062 8.602 8.602 0 0 1 6.082-2.814 6.386 6.386 0 0 1 6.37 6.347c-.014.715-.08 1.277-.612 1.4-.767.184-6.17.5-10.318.647.062 4.587 2.717 6.74 5.556 6.74a6.776 6.776 0 0 0 4.543-1.866zm-7.07-12.7c-1.667 0-3.167 1.807-3.516 4.963l5.486-.118c.6-.026.848-.146.848-.792.04-2.022-1.037-4.053-2.818-4.053zm34.284.145c-1.943.343-2.248.624-3.105 2.765-1.33 3.462-3.102 8.53-4.934 13.94h-1.512l-4.65-11.46-4.55 11.46h-1.472l-4.685-14.192c-.687-1.985-.94-2.274-2.855-2.512v-1.25h9.397v1.25c-2.325.345-2.535.672-2.058 2.133l2.52 8.214c1.507-3.68 2.988-7.62 4.327-11.424h1.456c1.4 3.76 2.986 7.702 4.573 11.568.742-2.107 2.062-5.964 2.557-8.108.412-1.674-.008-2.078-2.753-2.383v-1.25h7.742zm9.4 3.746c-.92-2.606-2.155-3.984-4.2-3.984a2.166 2.166 0 0 0-2.225 2.266c0 1.497 1.046 2.264 3.16 3.216 3.278 1.496 5.3 2.787 5.3 5.736 0 3.85-3.6 5.764-6.945 5.764a12.073 12.073 0 0 1-4.92-1.161l-.662-4.892 1.252-.224c.8 2.5 2.33 4.75 4.976 4.75a2.231 2.231 0 0 0 2.438-2.281c0-1.423-.76-2.333-3.092-3.467-2.67-1.295-5.107-2.64-5.107-5.775 0-3.046 2.533-5.42 6.565-5.42a18.751 18.751 0 0 1 4.112.567l.62 4.577z"/></g><g opacity=".7" class="Q"><use xlink:href="#R"/><path d="M920.2 1046.318c-3.22 0-5.02-2.64-5.02-5.662 0-3 1.8-5.64 5.02-5.64s5.02 2.64 5.02 5.64c0 3.02-1.8 5.662-5.02 5.662zm0-10.162c-2.36 0-3.88 1.9-3.88 4.5s1.52 4.52 3.88 4.52c2.38 0 3.88-1.92 3.88-4.52s-1.5-4.5-3.88-4.5zm15.78 9.824a.563.563 0 0 1-.58-.561v-.64a4.443 4.443 0 0 1-3.421 1.541 4.61 4.61 0 0 1-4.561-4.561v-5.842a.57.57 0 0 1 1.14 0v5.842a3.421 3.421 0 0 0 6.842 0v-5.842a.571.571 0 0 1 1.141 0v9.502a.559.559 0 0 1-.561.561zm7.96-9.644a3.418 3.418 0 0 0-3.421 3.42v5.662a.57.57 0 0 1-1.141 0v-9.502a.57.57 0 0 1 1.141 0v.82a4.566 4.566 0 0 1 3.421-1.541.571.571 0 1 1 0 1.141zm10.18 8.46a4.646 4.646 0 0 1-3.58 1.521c-3.22 0-5.02-2.64-5.02-5.662 0-3 1.8-5.64 5.02-5.64a4.651 4.651 0 0 1 3.58 1.52.534.534 0 0 1 .16.381.626.626 0 0 1-.58.6.586.586 0 0 1-.42-.199 3.526 3.526 0 0 0-2.74-1.16c-2.36 0-3.88 1.9-3.88 4.5s1.52 4.52 3.88 4.52a3.592 3.592 0 0 0 2.74-1.16.586.586 0 0 1 .42-.199.594.594 0 0 1 .58.58.569.569 0 0 1-.16.398zm11.58-3.56h-8.302c.18 2.28 1.66 3.94 3.84 3.94a3.615 3.615 0 0 0 2.94-1.381.526.526 0 0 1 .479-.279.611.611 0 0 1 .62.541c0 .18 0 .22-.38.658a4.718 4.718 0 0 1-3.66 1.602c-3.22 0-5.02-2.64-5.02-5.662 0-3 1.8-5.64 5.02-5.64s5.02 2.66 5.02 5.64a.605.605 0 0 1-.56.58zm-4.46-5.08c-2.4 0-3.66 1.84-3.84 3.94h7.7c-.18-2.28-1.66-3.94-3.86-3.94zm8.437 3.26a1.14 1.14 0 1 1 0-2.279 1.14 1.14 0 0 1 0 2.279zm0 6.563a1.141 1.141 0 1 1 0-2.281 1.141 1.141 0 0 1 0 2.281zm12.88.34a7.393 7.393 0 0 1-4.78-1.76.524.524 0 0 1-.181-.4.608.608 0 0 1 .58-.58c.24 0 .22.06.64.38a6.328 6.328 0 0 0 3.74 1.221c2.52 0 3.98-.94 3.98-2.74 0-4.742-8.462-2.102-8.462-7.562 0-2.4 2.1-3.5 4.68-3.5a5.736 5.736 0 0 1 4.361 1.881.557.557 0 0 1-.48.9c-.28 0-.28-.08-.62-.42a4.621 4.621 0 0 0-3.261-1.221c-2.38 0-3.54.92-3.54 2.36 0 4.3 8.462 1.8 8.462 7.563 0 2.78-2.44 3.88-5.12 3.88z"/><use xlink:href="#S"/><use xlink:href="#T"/><use xlink:href="#S" x="18.88"/><path d="M1015.176 1033.436a1.141 1.141 0 1 1 1.141-1.141 1.127 1.127 0 0 1-1.141 1.141zm0 12.543a.55.55 0 0 1-.58-.561v-9.502a.552.552 0 0 1 .58-.561.545.545 0 0 1 .561.561v9.502a.536.536 0 0 1-.561.561z"/><use xlink:href="#R" x="112.437"/><use xlink:href="#S" x="38.399"/><use xlink:href="#T" x="38.4"/></g><g class="Q"><path d="M61.975 42.38h-9.96v35.1a2.424 2.424 0 0 1-2.52 2.52 2.505 2.505 0 0 1-2.58-2.52v-35.1h-9.84a2.534 2.534 0 0 1-2.64-2.58 2.506 2.506 0 0 1 2.58-2.52h24.96a2.55 2.55 0 1 1 0 5.1zM91.734 80a2.424 2.424 0 0 1-2.52-2.52V60.8a8.55 8.55 0 1 0-17.099 0v16.62a2.551 2.551 0 0 1-2.64 2.64 2.472 2.472 0 0 1-2.52-2.58V39.862a2.58 2.58 0 0 1 5.16-.06v10.38a12.097 12.097 0 0 1 8.52-3.06 13.79 13.79 0 0 1 13.68 13.68v16.62a2.454 2.454 0 0 1-2.58 2.58z"/><use xlink:href="#U"/><use xlink:href="#V"/><path d="M202.124 51.68l-10.92 26.28a2.736 2.736 0 0 1-2.58 2.04 2.905 2.905 0 0 1-2.58-2.04l-10.92-26.28a3.69 3.69 0 0 1-.18-1.08 2.588 2.588 0 0 1 2.64-2.46 2.456 2.456 0 0 1 2.28 1.56l8.76 21 8.76-21a2.584 2.584 0 0 1 4.979.84 2.991 2.991 0 0 1-.24 1.14z"/><use xlink:href="#U" x="105.829"/><path d="M252.163 52.22a8.644 8.644 0 0 0-8.52 8.58v16.62a2.501 2.501 0 0 1-2.64 2.58 2.456 2.456 0 0 1-2.52-2.52V50.72a2.541 2.541 0 0 1 2.52-2.58 2.463 2.463 0 0 1 2.58 2.04 13.874 13.874 0 0 1 8.58-3.06 2.552 2.552 0 1 1 0 5.1zM284.07 80a5.839 5.839 0 0 1-5.34-3.42 13.747 13.747 0 0 1-10.56 4.44c-9.78 0-15.06-8.04-15.06-16.98s5.4-16.92 15.06-16.92a13.258 13.258 0 0 1 9.899 3.96v-.24a2.476 2.476 0 0 1 2.52-2.7 2.412 2.412 0 0 1 2.64 2.52v23.16a.971.971 0 0 0 .84 1.08 2.55 2.55 0 1 1 0 5.1zm-15.9-27.78c-6 0-9.9 4.68-9.9 11.82 0 7.2 3.9 11.88 9.9 11.88 6.06 0 9.9-4.68 9.9-11.88 0-7.14-3.84-11.82-9.9-11.82zm35.33 41.46c-3.66 0-12.72-1.32-12.72-4.92a2.794 2.794 0 0 1 2.58-2.7c1.38 0 .18.18 3.36 1.38a18.748 18.748 0 0 0 6.78 1.14c6.66 0 9.9-3.18 9.9-9.48v-2.7a14.039 14.039 0 0 1-9.9 3.6c-9.48 0-15.06-6.72-15.06-15.96 0-9 5.4-16.92 15.06-16.92 4.2 0 7.44 1.26 9.9 3.84v-.24a2.553 2.553 0 0 1 2.58-2.58 2.519 2.519 0 0 1 2.58 2.58V79.1c0 9.54-5.7 14.58-15.06 14.58zm0-41.458c-6 0-9.9 4.68-9.9 11.82 0 6.84 3.6 10.86 9.9 10.86s9.9-4.02 9.9-10.86c0-7.14-3.84-11.82-9.9-11.82z"/><use xlink:href="#U" x="224.796"/><path d="M384.45 81.08a15.03 15.03 0 0 1-15.06-15.06V39.8a2.581 2.581 0 0 1 5.16 0v26.22a9.929 9.929 0 1 0 19.859 0V39.86a2.55 2.55 0 0 1 5.1-.06v26.22a15.031 15.031 0 0 1-15.06 15.06zm33.058-.06c-4.38 0-10.5-1.8-13.92-4.98a2.4 2.4 0 0 1-.84-1.86 2.599 2.599 0 0 1 2.58-2.58c.9 0 1.2.3 2.28 1.14a16.241 16.241 0 0 0 9.899 3.18c7.14 0 10.26-2.58 10.26-7.02 0-12.48-23.94-5.4-23.94-21.72 0-7.32 6.18-10.98 14.1-10.98 4.14 0 10.08 1.62 13.02 5.1a2.365 2.365 0 0 1 .66 1.62 2.795 2.795 0 0 1-2.58 2.7c-.9 0-1.38-.42-2.4-1.32a13.181 13.181 0 0 0-8.7-2.94c-6.48 0-8.94 2.58-8.94 5.82 0 11.22 23.94 4.56 23.94 21.72 0 8.94-7.5 12.12-15.42 12.12zm61.08-6.54c-2.94 4.08-7.14 6.54-13.38 6.54-12.9 0-17.46-10.68-17.46-22.38 0-11.76 4.56-22.44 17.46-22.44 6.06 0 10.5 2.4 13.32 6.54a2.311 2.311 0 0 1 .54 1.5 2.6 2.6 0 0 1-2.64 2.52 2.51 2.51 0 0 1-2.04-1.08c-1.86-2.7-4.62-4.32-9.18-4.32-8.52 0-12.3 6.3-12.3 17.28s3.78 17.28 12.3 17.28c4.56 0 7.32-1.74 9.18-4.38a2.425 2.425 0 0 1 2.04-1.14 2.525 2.525 0 0 1 2.16 4.08zm7.2-31.2a4.32 4.32 0 1 1 4.32-4.319 4.302 4.302 0 0 1-4.32 4.319zm0 36.72a2.52 2.52 0 0 1-2.64-2.52V50.72a2.534 2.534 0 0 1 2.64-2.58 2.472 2.472 0 0 1 2.52 2.58v26.76a2.421 2.421 0 0 1-2.52 2.52zm19.02 0h-1.02c-5.7 0-7.86-3-7.86-7.92V53.24h-1.8a2.55 2.55 0 0 1-.06-5.1h1.8V39.8a2.436 2.436 0 0 1 2.58-2.52 2.389 2.389 0 0 1 2.52 2.52v8.34h3.84a2.488 2.488 0 0 1 2.521 2.52 2.441 2.441 0 0 1-2.521 2.58h-3.84v19.38c0 1.68.6 2.28 2.28 2.28h1.5a2.475 2.475 0 0 1 2.58 2.52 2.441 2.441 0 0 1-2.521 2.58z"/><use xlink:href="#W"/><path d="M543.744 80h-21.48c-2.88 0-2.94-1.98-2.94-2.88a2.223 2.223 0 0 1 .539-1.32l18.42-22.56h-16.44a2.55 2.55 0 0 1-.061-5.1h21.9a2.364 2.364 0 0 1 2.521 2.4 2.864 2.864 0 0 1-.66 1.74l-18.3 22.62h16.44a2.55 2.55 0 0 1 .061 5.1z"/><use xlink:href="#X"/><path d="M607.224 80a2.424 2.424 0 0 1-2.521-2.52V60.8a8.55 8.55 0 1 0-17.1 0v16.62a2.55 2.55 0 0 1-2.64 2.64 2.472 2.472 0 0 1-2.52-2.58V50.66a2.387 2.387 0 0 1 2.52-2.52 2.509 2.509 0 0 1 2.58 1.98 13.702 13.702 0 0 1 22.259 10.68v16.62a2.453 2.453 0 0 1-2.579 2.58zm47.938 0a2.546 2.546 0 0 1-2.16-1.32l-20.16-30.3v29.04a2.501 2.501 0 0 1-2.64 2.58 2.456 2.456 0 0 1-2.52-2.52V39.862a2.533 2.533 0 0 1 2.64-2.58 2.479 2.479 0 0 1 2.16 1.26l20.16 30.3v-28.98a2.58 2.58 0 0 1 5.159-.06V77.42a2.57 2.57 0 0 1-2.64 2.58z"/><use xlink:href="#Y"/><path d="M737.3 51.56L728 77.9a2.727 2.727 0 0 1-2.64 2.1c-1.26 0-1.98-.54-2.52-2.1l-7.02-19.8-7.08 19.8a2.598 2.598 0 0 1-5.1 0l-9.24-26.34a2.64 2.64 0 0 1-.12-.96 2.585 2.585 0 0 1 2.64-2.46 2.378 2.378 0 0 1 2.34 1.68l6.96 20.04 7.08-19.62c.48-1.38 1.08-2.1 2.52-2.1 1.32 0 2.04.66 2.52 2.1l7.02 19.62 7.02-20.04a2.359 2.359 0 0 1 2.28-1.68 2.666 2.666 0 0 1 2.76 2.52 2.484 2.484 0 0 1-.12.9zM773.54 80H755.3a2.602 2.602 0 0 1-2.64-2.52V39.862a2.58 2.58 0 0 1 5.159-.06v35.1h15.72a2.55 2.55 0 0 1 0 5.1z"/><use xlink:href="#W" x="268.794"/><path d="M815.238 51.68l-10.92 26.28a2.737 2.737 0 0 1-2.58 2.04 2.904 2.904 0 0 1-2.58-2.04l-10.92-26.28a3.721 3.721 0 0 1-.18-1.08 2.588 2.588 0 0 1 2.64-2.46 2.457 2.457 0 0 1 2.28 1.56l8.76 21 8.76-21a2.584 2.584 0 0 1 4.979.84 2.975 2.975 0 0 1-.24 1.14zm29.76 15h-22.2c.84 5.64 4.44 9.24 9.72 9.24a9.007 9.007 0 0 0 7.14-3.12 2.483 2.483 0 0 1 1.859-.96 2.8 2.8 0 0 1 2.7 2.64c0 .72-.18 1.26-1.44 2.52a14.618 14.618 0 0 1-10.259 4.02c-9.66 0-15.06-7.98-15.06-16.98 0-8.94 5.4-16.92 15.06-16.92 9.78 0 15 7.98 15 16.92a2.558 2.558 0 0 1-2.52 2.64zm-12.48-14.46c-5.64 0-8.94 4.14-9.72 9.3h19.438c-.84-5.76-4.44-9.3-9.72-9.3zm29.1 28.8c-3.3 0-8.82-1.02-11.64-4.5a2.655 2.655 0 0 1 2.16-4.26 2.463 2.463 0 0 1 1.859 1.02c1.86 2.04 4.92 2.64 7.62 2.64 5.4 0 7.14-1.86 7.14-4.56 0-7.68-18.3-2.94-18.3-15.3 0-6.54 6.12-8.94 11.82-8.94 3.24 0 10.86 1.62 10.86 4.98a2.694 2.694 0 0 1-2.52 2.7 3.612 3.612 0 0 1-1.98-.78c-1.62-1.38-3.96-1.8-6.36-1.8-4.98 0-6.72 1.86-6.72 3.84 0 7.14 18.36 2.52 18.36 15.3 0 7.08-5.94 9.66-12.3 9.66z"/></g><g fill="#1fc5ff"><path d="M72.714 141.26a2.472 2.472 0 0 1-2.52-2.58v-27.6l-11.64 21.72a2.626 2.626 0 0 1-2.4 1.62 2.857 2.857 0 0 1-2.4-1.62l-11.58-21.6v27.48a2.501 2.501 0 0 1-2.64 2.58 2.472 2.472 0 0 1-2.52-2.58v-37.5a2.526 2.526 0 0 1 2.76-2.7 2.3 2.3 0 0 1 2.16 1.5l14.22 26.46 14.28-26.46a2.303 2.303 0 0 1 2.34-1.5 2.485 2.485 0 0 1 2.58 2.7v37.5a2.501 2.501 0 0 1-2.64 2.58zm33.06 0a2.446 2.446 0 0 1-2.52-1.98 13.966 13.966 0 0 1-8.64 3 13.79 13.79 0 0 1-13.679-13.68v-16.62a2.58 2.58 0 0 1 5.16-.06v16.68a8.55 8.55 0 1 0 17.099 0v-16.62a2.393 2.393 0 0 1 2.52-2.64 2.454 2.454 0 0 1 2.58 2.58v26.82a2.39 2.39 0 0 1-2.52 2.52zm33.06-3.6a13.936 13.936 0 0 1-10.74 4.56c-9.66 0-15.06-7.92-15.06-16.98 0-9 5.4-16.92 15.06-16.92a13.936 13.936 0 0 1 10.74 4.56 2.615 2.615 0 0 1 .72 1.74 2.794 2.794 0 0 1-2.7 2.58 2.84 2.84 0 0 1-1.86-.84 8.814 8.814 0 0 0-6.9-2.94c-6 0-9.9 4.68-9.9 11.82 0 7.2 3.9 11.88 9.9 11.88a8.923 8.923 0 0 0 6.9-2.939 2.396 2.396 0 0 1 1.86-.9 2.59 2.59 0 0 1 1.98 4.38zm29.58 3.54a2.424 2.424 0 0 1-2.52-2.52V122a8.55 8.55 0 1 0-17.099 0v16.62a2.55 2.55 0 0 1-2.64 2.64 2.472 2.472 0 0 1-2.52-2.58v-37.618a2.58 2.58 0 0 1 5.16-.06v10.38a12.097 12.097 0 0 1 8.52-3.06 13.79 13.79 0 0 1 13.68 13.68v16.62a2.454 2.454 0 0 1-2.58 2.58zm41.34 0h-18.24a2.601 2.601 0 0 1-2.64-2.52v-37.618a2.58 2.58 0 0 1 5.16-.06v35.1h15.72a2.55 2.55 0 0 1 0 5.1z"/><use xlink:href="#Y" x="-448.59" y="61.2"/><path d="M273.592 141.2a2.424 2.424 0 0 1-2.52-2.52V122a8.55 8.55 0 1 0-17.099 0v16.62a2.55 2.55 0 0 1-2.64 2.64 2.472 2.472 0 0 1-2.52-2.58v-26.82a2.387 2.387 0 0 1 2.52-2.52 2.509 2.509 0 0 1 2.58 1.98A13.703 13.703 0 0 1 276.172 122v16.62a2.454 2.454 0 0 1-2.58 2.58zm21.84 13.68c-3.66 0-12.72-1.32-12.72-4.92a2.794 2.794 0 0 1 2.58-2.7c1.38 0 .18.18 3.36 1.38a18.748 18.748 0 0 0 6.78 1.14c6.66 0 9.9-3.18 9.9-9.48v-2.7a14.039 14.039 0 0 1-9.9 3.6c-9.48 0-15.06-6.72-15.06-15.96 0-9 5.4-16.92 15.06-16.92 4.2 0 7.44 1.26 9.9 3.84v-.24a2.553 2.553 0 0 1 2.58-2.58 2.519 2.519 0 0 1 2.58 2.58v28.38c0 9.54-5.7 14.58-15.06 14.58zm0-41.458c-6 0-9.9 4.68-9.9 11.82 0 6.84 3.6 10.86 9.9 10.86s9.9-4.02 9.9-10.86c0-7.14-3.84-11.82-9.9-11.82z"/><use xlink:href="#Z"/><use xlink:href="#a"/></g><g class="Q"><use xlink:href="#V" x="234.117" y="61.2"/><path d="M422.26 114.44h-2.7v24.18a2.453 2.453 0 0 1-2.64 2.52 2.421 2.421 0 0 1-2.52-2.52v-24.18h-2.46a2.55 2.55 0 0 1 0-5.1h2.46v-4.08a6.836 6.836 0 0 1 6.899-6.78 2.551 2.551 0 1 1 0 5.1 1.681 1.681 0 0 0-1.74 1.62v4.14h2.7a2.552 2.552 0 1 1 0 5.1z"/><path d="M438.04 141.2h-1.02c-5.7 0-7.86-3-7.86-7.92v-18.84h-1.8a2.55 2.55 0 0 1-.06-5.1h1.8v-8.34a2.436 2.436 0 0 1 2.58-2.52 2.39 2.39 0 0 1 2.52 2.52v8.34h3.84a2.487 2.487 0 0 1 2.52 2.52 2.441 2.441 0 0 1-2.52 2.58h-3.84v19.38c0 1.68.6 2.28 2.28 2.28h1.5a2.475 2.475 0 0 1 2.58 2.52 2.441 2.441 0 0 1-2.52 2.58z"/><use xlink:href="#Z" x="126.945"/><use xlink:href="#a" x="126.948"/><path d="M533.376 141.26a2.573 2.573 0 0 1-1.979-1.08l-12.48-17.46h-7.74v15.9a2.501 2.501 0 0 1-2.64 2.58 2.456 2.456 0 0 1-2.52-2.52v-37.618a2.491 2.491 0 0 1 2.52-2.58h15.54c5.28 0 12.06 4.14 12.06 12.06a12.095 12.095 0 0 1-11.039 12.12l10.5 14.46a2.354 2.354 0 0 1 .539 1.56 2.76 2.76 0 0 1-2.76 2.58zm-9.36-37.68h-12.84v14.04h12.78a7.02 7.02 0 0 0 .06-14.04z"/><use xlink:href="#X" x="-8.808" y="61.2"/><use xlink:href="#b"/><path d="M592.056 104.48a4.32 4.32 0 1 1 4.319-4.319 4.302 4.302 0 0 1-4.319 4.319zm0 36.72a2.52 2.52 0 0 1-2.64-2.52v-26.76a2.533 2.533 0 0 1 2.64-2.58 2.472 2.472 0 0 1 2.52 2.58v26.76a2.421 2.421 0 0 1-2.52 2.52z"/><use xlink:href="#a" x="251.564"/><use xlink:href="#X" x="67.259" y="61.2"/><path d="M687.86 141.2a2.456 2.456 0 0 1-2.52-2.52v-18.9a6.33 6.33 0 0 0-12.66-.06v18.9a2.453 2.453 0 0 1-2.579 2.58 2.424 2.424 0 0 1-2.521-2.52v-18.9a6.36 6.36 0 0 0-12.72-.06v18.9a2.501 2.501 0 0 1-2.64 2.58 2.456 2.456 0 0 1-2.52-2.52v-26.82a2.632 2.632 0 0 1 4.8-1.44 11.557 11.557 0 0 1 6.659-2.1 11.36 11.36 0 0 1 8.94 4.26 11.238 11.238 0 0 1 8.879-4.26 11.459 11.459 0 0 1 11.52 11.4v18.9a2.501 2.501 0 0 1-2.64 2.58z"/><use xlink:href="#X" x="146.396" y="61.2"/><path d="M753.62 141.2a2.423 2.423 0 0 1-2.52-2.52V122a8.55 8.55 0 1 0-17.1 0v16.62a2.55 2.55 0 0 1-2.64 2.64 2.472 2.472 0 0 1-2.52-2.58v-26.82a2.387 2.387 0 0 1 2.52-2.52 2.509 2.509 0 0 1 2.58 1.98 13.702 13.702 0 0 1 22.259 10.68v16.62a2.454 2.454 0 0 1-2.58 2.58z"/><use xlink:href="#b" x="188.144"/></g></svg>