<svg xmlns="http://www.w3.org/2000/svg" xmlns:xlink="http://www.w3.org/1999/xlink" viewBox="0 0 1080 1080"><linearGradient id="A" gradientUnits="userSpaceOnUse" x1="11.716" y1="11.716" x2="1068.284" y2="1068.284"><stop offset="0" stop-color="#43c6ac"/><stop offset=".217" stop-color="#76d6ad"/><stop offset=".482" stop-color="#ade8ad"/><stop offset=".711" stop-color="#d6f4ae"/><stop offset=".891" stop-color="#effcae"/><stop offset="1" stop-color="#f8ffae"/></linearGradient><path d="M1040 1080H40c-22.09 0-40-17.91-40-40V40C0 17.91 17.91 0 40 0h1000c22.09 0 40 17.91 40 40v1000c0 22.09-17.91 40-40 40z" fill="url(#A)"/><linearGradient id="B" gradientUnits="userSpaceOnUse" x1="202.65" y1="594.906" x2="1021.199" y2="113.733"><stop offset="0" stop-color="#645ac9"/><stop offset=".245" stop-color="#b24fb4"/><stop offset=".5" stop-color="#ff459f"/><stop offset=".616" stop-color="#fd7da3"/><stop offset=".746" stop-color="#fbb4a8"/><stop offset=".858" stop-color="#f9ddab"/><stop offset=".946" stop-color="#f8f6ad"/><stop offset="1" stop-color="#f8ffae"/></linearGradient><path d="M373.124 751.434h107.67L426.96 841.76l-53.835-90.326zM313.92 652.1l53.835-90.337h-107.67L313.92 652.1zm678.246-379.34L1046 182.432H938.324l53.844 90.328zm-2.685 1.458L935.638 183.9l-53.834 90.328h107.678zM879.12 272.76l53.834-90.328H825.285l53.835 90.328zm-2.685 1.458L822.6 183.88l-53.835 90.337h107.668zm-110.353-1.458l53.835-90.328h-107.67l53.835 90.328zm-2.684 1.458l-53.835-90.337-53.835 90.337h107.67zm-110.353-1.458l53.835-90.328H599.2l53.835 90.328zm-2.684 1.458l-53.835-90.337-53.845 90.337h107.68zm-110.363-1.458l53.844-90.328H486.162l53.835 90.328zm-2.684 1.458l-53.835-90.337-53.835 90.337h107.67zM426.96 272.76l53.835-90.328h-107.67l53.835 90.328zm-2.684 1.458L370.44 183.88l-53.835 90.337h107.67zM313.92 272.76l53.835-90.328h-107.67l53.835 90.328zm-2.684 1.458l-53.835-90.337-53.845 90.337h107.68zm-110.363-1.458l53.844-90.328H147.04l53.835 90.328zm-113.038 0l53.835-90.328H34l53.835 90.328zm110.354 1.458l-53.835-90.337-53.835 90.337h107.67zm-53.835 93.378l53.835-90.328H90.52l53.835 90.328zm110.363 1.457l-53.845-90.337-53.835 90.337h107.68zm2.684-1.457l53.835-90.328H203.56l53.844 90.328zm110.354 1.457l-53.835-90.337-53.835 90.337h107.67zm2.684-1.457l53.835-90.328h-107.67l53.835 90.328zm110.354 1.457l-53.835-90.337-53.835 90.337h107.67zm2.684-1.457l53.835-90.328h-107.67l53.835 90.328zm110.363 1.457l-53.845-90.337-53.835 90.337h107.68zm113.038 0l-53.835-90.337-53.835 90.337h107.67zm-110.354-1.457l53.835-90.328H542.682l53.844 90.328zm113.038 0l53.835-90.328H655.73l53.835 90.328zm110.354 1.457l-53.835-90.337-53.835 90.337h107.67zm2.684-1.457l53.834-90.328H768.766l53.835 90.328zm110.363 1.457l-53.845-90.337-53.835 90.337h107.68zm2.684-1.457l53.835-90.328H881.805l53.844 90.328zm-56.53 94.835l53.834-90.328H825.285l53.835 90.328zm-2.685 1.447L822.6 373.55l-53.835 90.328h107.668zm-110.353-1.447l53.835-90.328h-107.67l53.835 90.328zm-2.684 1.447l-53.835-90.328-53.835 90.328h107.67zm-110.353-1.447l53.835-90.328H599.2l53.835 90.328zm-2.684 1.447l-53.835-90.328-53.844 90.328H650.36zm-110.363-1.447l53.844-90.328H486.162l53.835 90.328zm-2.684 1.447l-53.835-90.328-53.835 90.328h107.67zM426.96 462.43l53.835-90.328h-107.67l53.835 90.328zm-2.684 1.447L370.44 373.55l-53.835 90.328h107.67zM313.92 462.43l53.835-90.328h-107.67l53.835 90.328zm-113.048 0l53.844-90.328H147.04l53.835 90.328zm110.363 1.447l-53.835-90.328-53.844 90.328h107.678zm-53.835 93.388l53.835-90.337h-107.68l53.845 90.337zm110.354 1.447l-53.835-90.328-53.835 90.328h107.67zm2.684-1.447l53.835-90.337h-107.67l53.835 90.337zm110.354 1.447l-53.835-90.328-53.835 90.328h107.67zm2.684-1.447l53.835-90.337h-107.67l53.835 90.337zm110.362 1.447l-53.844-90.328-53.835 90.328H593.84zm2.685-1.447l53.835-90.337H542.68l53.845 90.337zm110.354 1.447l-53.835-90.328-53.835 90.328h107.67zm2.684-1.447l53.835-90.337H655.73l53.835 90.337zm110.354 1.447l-53.835-90.328-53.835 90.328h107.67zm2.684-1.447l53.834-90.337H768.766l53.835 90.337zm-56.52 94.835l53.835-90.337h-107.67l53.835 90.337zm-2.684 1.448l-53.835-90.328-53.835 90.328h107.67zM653.044 652.1l53.835-90.337H599.2l53.835 90.337zm-2.684 1.448l-53.835-90.328-53.844 90.328H650.36zM539.997 652.1l53.845-90.337h-107.68l53.835 90.337zm-2.684 1.448l-53.835-90.328-53.835 90.328h107.67zM426.96 652.1l53.835-90.337h-107.67L426.96 652.1zm-2.684 1.448L370.44 563.22l-53.835 90.328h107.67zm-53.835 93.377l53.835-90.327h-107.67l53.835 90.327zm110.354 1.458l-53.835-90.327-53.835 90.327h107.67zm2.684-1.458l53.835-90.327h-107.67l53.835 90.327zm110.362 1.458l-53.844-90.327-53.835 90.327H593.84zm2.685-1.458L650.36 656.6H542.682l53.844 90.327zm113.038 0l53.835-90.327H655.73l53.835 90.327zm-2.684 1.458l-53.835-90.327-53.835 90.327h107.67zm-53.835 93.377l53.835-90.326H599.2l53.835 90.326zm-2.684 1.458l-53.835-90.328-53.844 90.328H650.36zm-110.363-1.458l53.844-90.326H486.162l53.835 90.326zm-2.684 1.458l-53.835-90.328-53.835 90.328h107.67z" fill="url(#B)"/><path d="M542.46 846.143h108.12l-54.06 90.7-54.06-90.7z" fill="#4e215c"/><path d="M596.52 936.843l-54.06-90.7h108.12l-54.06 90.7z" fill="#d9f5ae"/><path d="M650.58 846.143l-54.06 90.7-54.06-90.7zm-221.16 0h108.12l-54.06 90.7-54.06-90.7z" fill="#4e215c"/><path d="M483.482 936.843l-54.06-90.7h108.12l-54.06 90.7z" fill="#d9f5ae"/><path d="M537.54 846.143l-54.06 90.7-54.06-90.7zm2.462 1.33l54.06 90.7H485.94l54.06-90.7z" fill="#4e215c"/><path d="M540.002 847.473l54.06 90.7H485.94l54.06-90.7z" fill="#d9f5ae"/><path d="M594.06 938.183H485.94l54.06-90.7zm-108.12 2.8h108.12l-54.06 90.7-54.06-90.7z" fill="#4e215c"/><path d="M540.002 1031.683l-54.06-90.7h108.12l-54.06 90.7z" fill="#d9f5ae"/><path d="M594.06 940.983l-54.06 90.7-54.06-90.7z" fill="#4e215c"/><path d="M539.005 266.524c-2.12 2.41-7.888 1.92-7.888 1.92l-29.156-50.5c3.223-1.774 8.515.508 8.515.508l28.53 48.072z" fill="#f646a1"/><linearGradient id="C" gradientUnits="userSpaceOnUse" x1="574.118" y1="218.36" x2="551.829" y2="256.996"><stop offset="0" stop-color="#fd5aa1"/><stop offset="1" stop-color="#ff459f"/></linearGradient><path d="M551.295 250.037l.115 12.032 27.973-44.95s-6.616-.54-10.06 2.96l-18.03 29.958z" fill="url(#C)"/><path d="M512.307 903.766s-9.698 2.683-10.464-4.523l9.66-15.4c7.3-3.507 11.27 4.753 11.27 4.753l-10.464 15.18zm56.373-5.816c-4.34-3.255-16.096-10.5-16.096-10.5s6.52-7.048 17.387-3.044c3.974 1.464 11.394 8.8 11.394 8.8s-6.385 9.468-12.684 4.744z" fill="#4e215c"/><g fill="#fff"><path d="M515.98 930c-1.26 0-2.52-.96-2.52-2.52v-32.16l-4.8 4.68a2.32 2.32 0 0 1-1.68.72c-1.44 0-2.7-1.32-2.7-2.64 0-.66.24-1.26.78-1.8l8.94-8.64c.72-.66 1.5-.96 2.22-.96 1.68 0 2.398 1.68 2.398 3.06v37.68c0 1.62-1.26 2.58-2.64 2.58zm30.54-7.2h-2.58v4.68c0 1.62-1.38 2.52-2.58 2.52-1.26 0-2.58-.9-2.58-2.52v-4.68h-14.34c-1.68 0-2.7-1.02-2.7-2.4 0-.36.06-.84.36-1.32l16.56-31.498c.48-.96 1.38-1.38 2.16-1.38 1.38 0 2.7 1.08 2.7 2.46 0 .42-.06.84-.36 1.32l-14.52 27.72h10.14v-6.84c0-1.74 1.26-2.64 2.52-2.64 1.32 0 2.64.84 2.64 2.58v6.9h2.58c1.68 0 2.578 1.2 2.578 2.58 0 1.32-.898 2.52-2.578 2.52zm17.376 8.22c-12.658 0-13.678-12.9-13.678-22.38 0-11.22 2.46-22.438 13.678-22.438 5.04 0 8.64 2.22 11.1 6 .42.54.54 1.02.54 1.56 0 1.38-1.26 2.46-2.64 2.46-.78 0-1.56-.36-2.16-1.2-1.56-2.34-3.6-3.66-6.84-3.66-5.7 0-8.338 5.1-8.52 16.56a12.41 12.41 0 0 1 8.52-3.42c7.2 0 12.9 6.24 12.9 13.26s-5.7 13.26-12.9 13.26zm0-21.42c-4.14 0-7.62 3.6-7.86 8.28.78 4.68 3.24 8.04 7.86 8.04 4.14 0 7.74-3.72 7.74-8.16s-3.6-8.16-7.74-8.16zM526.1 970.088h-9.155c-.477 0-.812-.392-.812-.784 0-.168.084-.336.168-.448l8.345-11.787c.392-.6.644-1.372.644-2.1 0-2.044-1.624-3.724-3.668-3.724-2.66 0-3.724 2.912-4.48 2.912-.42 0-.867-.336-.867-.784 0-.645 2.128-3.724 5.348-3.724 2.912 0 5.264 2.38 5.264 5.235 0 1.064-.336 2.185-.98 3.08l-7.42 10.528h7.615c.505 0 .784.42.784.812 0 .364-.28.784-.784.784z"/><use xlink:href="#E"/><path d="M547.748 970.088c-.42 0-.784-.308-.784-.784V952.56l-3.052 2.97a.69.69 0 0 1-.532.252c-.448 0-.84-.42-.84-.868 0-.168.112-.364.252-.532l4.424-4.284c.224-.168.448-.224.532-.224.588 0 .812.42.812.98v18.452c0 .477-.336.784-.812.784zm9.252.28c-1.876 0-4.004-1.008-5.04-2.66-.112-.168-.14-.308-.14-.448 0-.448.42-.812.84-.812s.448.224.868.672c.896 1.063 2.07 1.65 3.472 1.65 2.464 0 4.676-2.128 4.676-5.067 0-2.968-2.212-5.096-4.676-5.096-1.932 0-3.192 1.23-3.696 1.987-.168.28-.42.393-.756.393-.476 0-.812-.3-.812-.84v-9.212c0-.476.363-.783.784-.783h9.352c.56 0 .84.392.84.783s-.28.784-.84.784h-8.54v6.552c.896-.728 2.1-1.26 3.668-1.26 3.444 0 6.272 2.912 6.272 6.692 0 3.724-2.828 6.664-6.272 6.664zM519.643 213.56c-.42 0-.784-.308-.784-.784V196.03l-3.052 2.97a.69.69 0 0 1-.532.252c-.448 0-.84-.42-.84-.868 0-.168.112-.364.252-.532l4.424-4.284c.224-.168.448-.224.532-.224.588 0 .812.42.812.98v18.452c0 .477-.336.784-.812.784zm9.6.475c-2.352 0-4.032-1.008-5.18-2.77-.14-.168-.168-.308-.168-.477 0-.42.42-.783.84-.783.224 0 .448.1.644.363.896 1.316 2.072 2.072 3.864 2.072 3.528 0 4.788-3.36 4.788-8.848v-.477c-1.176 1.513-2.968 2.408-4.788 2.408-3.36 0-6.02-2.912-6.02-6.187 0-3.305 2.66-6.216 6.02-6.216 5.853 0 6.384 6.02 6.384 10.443 0 5.236-1.12 10.472-6.384 10.472zm0-19.32c-2.408 0-4.396 2.128-4.396 4.62 0 2.464 1.987 4.592 4.396 4.592 2.185 0 4.48-1.932 4.48-4.76-.504-2.38-1.624-4.452-4.48-4.452zm15.5 19.32c-5.937 0-5.992-7.1-5.992-11.2 0-4.004.615-9.716 5.964-9.716 5.235 0 6.02 5.376 6.02 9.716 0 4.06-.084 11.2-6 11.2zm4.396-11.2c0-4.004-.56-8.12-4.396-8.12-4.2 0-4.396 5.15-4.396 8.12v1.792c0 3.248.616 7.812 4.368 7.812 3.836 0 4.424-4.563 4.424-7.812v-1.792z"/><use xlink:href="#E" x="24.315" y="-756.529"/><path d="M503.328 265.208c-4.62 0-8.7-2.398-10.92-6.12-.3-.48-.42-.96-.42-1.38 0-1.44 1.26-2.52 2.64-2.52.78 0 1.62.3 2.16 1.2a7.41 7.41 0 0 0 6.479 3.719c4.5 0 8.22-3.72 8.22-8.1 0-4.5-3.66-8.22-8.16-8.22h-.06c-1.56 0-2.52-1.2-2.52-2.52s1.02-2.58 2.58-2.58c3.66 0 6.6-2.82 6.6-6.6 0-3.6-2.94-6.54-6.6-6.54-5.82 0-5.88 5.88-9 5.88-1.38 0-2.7-1.08-2.7-2.52a2.66 2.66 0 0 1 .42-1.441c1.44-2.22 5.04-7.078 11.28-7.078a11.72 11.72 0 0 1 11.7 11.7c0 3.66-1.56 6.84-4.26 9 3.48 2.398 5.82 6.3 5.82 10.86 0 7.318-5.94 13.258-13.26 13.258zm28.487 0c-12.84 0-12.84-15.238-12.84-23.998 0-8.46 1.32-20.818 12.78-20.818s12.9 12.06 12.9 20.818c0 9.12-.24 23.998-12.84 23.998zm7.68-23.998c0-5.28-.12-15.66-7.68-15.66s-7.68 10.38-7.68 15.66v3.36c0 6.24.84 15.54 7.62 15.54 6.9 0 7.74-9.3 7.74-15.54v-3.36zM557.4 264.2c-1.26 0-2.52-.96-2.52-2.52V229.5l-4.8 4.68a2.32 2.32 0 0 1-1.68.72c-1.44 0-2.7-1.318-2.7-2.64 0-.66.24-1.26.78-1.8l8.94-8.64c.72-.66 1.5-.96 2.22-.96 1.68 0 2.4 1.68 2.4 3.06v37.678c0 1.62-1.26 2.58-2.64 2.58zm21.54 1.018c-12.66 0-13.68-12.898-13.68-22.38 0-11.22 2.46-22.437 13.68-22.437 5.04 0 8.64 2.22 11.1 5.998.42.54.54 1.02.54 1.56 0 1.38-1.26 2.46-2.64 2.46-.78 0-1.56-.36-2.16-1.2-1.56-2.34-3.6-3.66-6.84-3.66-5.7 0-8.34 5.1-8.52 16.56a12.41 12.41 0 0 1 8.52-3.42c7.2 0 12.9 6.24 12.9 13.26s-5.7 13.258-12.9 13.258zm0-21.418c-4.14 0-7.62 3.6-7.86 8.28.78 4.68 3.24 8.04 7.86 8.04 4.14 0 7.74-3.72 7.74-8.158s-3.6-8.16-7.74-8.16z"/></g><g fill="#8e9f8c"><path d="M42.328 1046.045c-3.568 0-5.47-1.97-5.503-2.002 0 .935-.7 1.4-1.468 1.4-.7 0-1.4-.467-1.4-1.4v-20.88a1.35 1.35 0 0 1 1.401-1.434c.767 0 1.468.467 1.468 1.4v6.238c1.334-1.368 3.168-2.17 5.503-2.17 5.37 0 8.373 4.403 8.373 9.406 0 5.037-3.002 9.44-8.373 9.44zm0-16c-3.335 0-5.503 2.602-5.503 6.57 0 4.003 2.168 6.604 5.503 6.604s5.504-2.602 5.504-6.604c0-3.97-2.168-6.57-5.504-6.57zm25.555 8.037h-12.34c.467 3.136 2.468 5.137 5.403 5.137 1.5 0 3.002-.533 3.97-1.734.3-.333.634-.533 1.034-.533.734 0 1.5.667 1.5 1.468 0 .4-.1.7-.8 1.4-1.5 1.468-3.57 2.235-5.704 2.235-5.37 0-8.372-4.437-8.372-9.44 0-4.97 3.002-9.406 8.372-9.406 5.437 0 8.34 4.437 8.34 9.406 0 .734-.534 1.468-1.4 1.468zm-6.937-8.038c-3.136 0-4.97 2.3-5.403 5.17H66.35c-.467-3.202-2.468-5.17-5.403-5.17zM88 1045.478c-1.834 0-2.668-1.3-2.97-1.9-1.334 1.468-3.27 2.47-5.87 2.47-5.437 0-8.372-4.47-8.372-9.44s3.002-9.406 8.372-9.406c2.335 0 4.203.834 5.504 2.202v-.134c0-.367.133-1.5 1.4-1.5.7 0 1.468.367 1.468 1.4v12.875c0 .434.3.6.467.6.935 0 1.435.667 1.435 1.434a1.37 1.37 0 0 1-1.435 1.401zm-8.84-15.443c-3.336 0-5.504 2.602-5.504 6.57 0 4.003 2.168 6.604 5.504 6.604 3.37 0 5.504-2.602 5.504-6.604 0-3.97-2.135-6.57-5.504-6.57z"/><use xlink:href="#F"/><path d="M115.158 1045.478h-.567c-3.17 0-4.37-1.668-4.37-4.403V1030.6h-1c-.8 0-1.435-.634-1.435-1.4 0-.8.634-1.435 1.4-1.435h1v-4.637c0-.934.7-1.4 1.435-1.4s1.4.467 1.4 1.4v4.637h2.135c.934 0 1.4.768 1.4 1.4 0 .8-.533 1.434-1.4 1.434h-2.135v10.774c0 .934.333 1.268 1.268 1.268h.833c.868 0 1.435.634 1.435 1.4 0 .8-.533 1.435-1.4 1.435zm4.604-20.415a2.402 2.402 0 1 1 0-4.803 2.402 2.402 0 1 1 0 4.803zm0 20.414c-.733 0-1.467-.5-1.467-1.4V1029.2c0-.935.733-1.435 1.467-1.435a1.37 1.37 0 0 1 1.401 1.435v14.876c0 .935-.7 1.4-1.4 1.4zm10.376-14.877h-1.5v13.442c0 .935-.7 1.4-1.468 1.4-.7 0-1.4-.467-1.4-1.4V1030.6h-1.37c-.9 0-1.4-.667-1.4-1.4 0-.768.5-1.435 1.4-1.435h1.367v-2.27c0-2.135 1.77-3.77 3.836-3.77.968 0 1.468.667 1.468 1.434 0 .7-.5 1.4-1.468 1.4-.566 0-.967.434-.967.9v2.302h1.5c.967 0 1.468.667 1.468 1.435 0 .733-.5 1.4-1.468 1.4z"/><use xlink:href="#F" x="42.068"/><path d="M154.725 1045.544c-1.802 0-3.336-1.534-3.336-3.402v-18.98c0-.967.7-1.434 1.435-1.434s1.435.467 1.435 1.4v19.013c0 .4.3.567.467.567.934 0 1.435.667 1.435 1.435 0 .733-.5 1.4-1.435 1.4zm15.37-.066v-1.264c1.886-.237 2.046-.437 2.046-3.157v-6.7c0-2.8-1.248-4.017-3.064-4.017-1.237 0-2.345.6-3.47 1.493v9.476c0 2.527.187 2.658 2.06 2.896v1.264h-8.968v-1.264c2.254-.33 2.5-.4 2.5-3v-8.2c0-2.446-.303-2.565-2.185-2.922v-1.184c2.173-.292 4.63-.807 6.653-1.533l-.052 2.95 2.6-1.745c1.16-.713 2-1.086 3.16-1.086 3.194 0 5.2 2.338 5.2 6.3v7.5c0 2.54.237 2.657 2.277 2.92v1.264h-8.74zm23.9-3.703c-2.458 3.427-5.488 4.178-7.014 4.178-5.142 0-8.124-3.936-8.124-8.594 0-2.745 1.183-5.396 2.832-7.062 1.74-1.8 3.945-2.814 6.082-2.814 3.73 0 6.396 3.126 6.37 6.347-.014.715-.08 1.277-.612 1.4-.767.184-6.17.5-10.318.647.062 4.587 2.717 6.74 5.556 6.74 1.572 0 3.104-.597 4.543-1.866l.686 1.014zm-7.07-12.7c-1.667 0-3.167 1.807-3.516 4.963l5.486-.118c.6-.026.848-.146.848-.792.04-2.022-1.037-4.053-2.818-4.053zm34.284.145c-1.943.343-2.248.624-3.105 2.765-1.33 3.462-3.102 8.53-4.934 13.94h-1.512l-4.65-11.46-4.55 11.46h-1.472l-4.685-14.192c-.687-1.985-.94-2.274-2.855-2.512v-1.25h9.397v1.25c-2.325.345-2.535.672-2.058 2.133l2.52 8.214c1.507-3.68 2.988-7.62 4.327-11.424h1.456c1.4 3.76 2.986 7.702 4.573 11.568.742-2.107 2.062-5.964 2.557-8.108.412-1.674-.008-2.078-2.753-2.383v-1.25h7.742v1.25zm9.4 3.746c-.92-2.606-2.155-3.984-4.2-3.984-1.206 0-2.225.86-2.225 2.266 0 1.497 1.046 2.264 3.16 3.216 3.278 1.496 5.3 2.787 5.3 5.736 0 3.85-3.6 5.764-6.945 5.764-2.06 0-4.088-.737-4.92-1.16l-.662-4.892 1.252-.224c.8 2.5 2.33 4.75 4.976 4.75 1.505 0 2.438-.952 2.438-2.28 0-1.423-.76-2.333-3.092-3.467-2.67-1.295-5.107-2.64-5.107-5.775 0-3.046 2.533-5.42 6.565-5.42 1.818 0 3.242.396 4.112.567l.62 4.577-1.25.328z"/></g><g fill="#c3c095"><use xlink:href="#G"/><use xlink:href="#H"/><use xlink:href="#I"/><path d="M896.306 1036.34a3.42 3.42 0 0 0-3.421 3.42v5.66c0 .36-.3.56-.56.56-.28 0-.58-.2-.58-.56v-9.502c0-.36.3-.56.58-.56.26 0 .56.2.56.56v.82c.9-.98 2.08-1.54 3.42-1.54.36 0 .58.3.58.56a.58.58 0 0 1-.58.581zm9.742 8.46c-.88.98-2.1 1.52-3.58 1.52-3.22 0-5.02-2.64-5.02-5.66 0-3 1.8-5.64 5.02-5.64 1.48 0 2.7.54 3.58 1.52a.53.53 0 0 1 .16.381.63.63 0 0 1-.58.6c-.14 0-.28-.06-.42-.2-.66-.74-1.58-1.16-2.74-1.16-2.36 0-3.88 1.9-3.88 4.5s1.52 4.52 3.88 4.52c1.16 0 2.08-.44 2.74-1.16.14-.14.28-.2.42-.2.3 0 .58.26.58.58a.57.57 0 0 1-.16.399z"/><use xlink:href="#J"/><path d="M920.806 1039.42c-.64 0-1.16-.5-1.16-1.14s.52-1.14 1.16-1.14c.62 0 1.12.5 1.12 1.14s-.5 1.14-1.12 1.14zm0 6.562c-.64 0-1.16-.5-1.16-1.14s.52-1.14 1.16-1.14c.62 0 1.12.5 1.12 1.14s-.5 1.14-1.12 1.14zm18.682-1.842c-.98 1.36-2.38 2.18-4.46 2.18-4.3 0-5.82-3.56-5.82-7.46 0-3.92 1.52-7.482 5.82-7.482 2.02 0 3.5.8 4.44 2.18.1.1.12.2.12.32 0 .32-.3.56-.62.56a.53.53 0 0 1-.44-.22c-.72-1.04-1.8-1.7-3.5-1.7-3.32 0-4.682 2.6-4.682 6.342 0 3.72 1.36 6.32 4.682 6.32 1.7 0 2.8-.64 3.54-1.7.1-.2.28-.26.44-.26.3 0 .6.26.6.58 0 .1-.04.22-.12.34zm12.562 1.84h-.02c-.66 0-1.6-.36-1.98-1.56-.84 1.18-2.14 1.9-3.88 1.9-3.26 0-5.02-2.68-5.02-5.66 0-3.02 1.8-5.64 5.02-5.64 1.74 0 3.04.72 3.88 1.88v-.98c0-.32.26-.56.58-.56.28 0 .56.2.56.56v8.063c0 1.28 1.44.48 1.44 1.44a.55.55 0 0 1-.58.561zm-5.88-9.822c-2.36 0-3.88 1.9-3.88 4.5s1.52 4.52 3.88 4.52c2.38 0 3.88-1.92 3.88-4.52s-1.5-4.5-3.88-4.5z"/><use xlink:href="#K"/><use xlink:href="#H" x="91.651"/><path d="M978.953 1045.98h-2.28c-.36 0-.58-.3-.58-.56a.58.58 0 0 1 .58-.58h.56v-11.982h-.56c-.36 0-.58-.28-.58-.56s.22-.56.58-.56h2.28c.36 0 .56.28.56.56s-.2.56-.56.56h-.58v11.982h.58c.36 0 .56.3.56.58 0 .26-.2.56-.56.56zm11.33 0c-.28 0-.58-.2-.58-.56v-5.84c0-1.9-1.52-3.42-3.42-3.42a3.42 3.42 0 0 0-3.421 3.421v5.84c0 .36-.3.56-.56.56-.28 0-.58-.2-.58-.56v-9.502c0-.36.3-.56.58-.56.26 0 .56.2.56.56v.64c.9-.98 2.08-1.54 3.42-1.54a4.6 4.6 0 0 1 4.561 4.561v5.84c0 .36-.3.56-.56.56z"/><use xlink:href="#G" x="134.794"/><use xlink:href="#K" x="48.868"/><path d="M1009.612 1033.438c-.64 0-1.14-.5-1.14-1.14s.5-1.14 1.14-1.14 1.14.5 1.14 1.14-.5 1.14-1.14 1.14zm0 12.543c-.28 0-.58-.18-.58-.56v-9.502c0-.36.28-.56.58-.56.26 0 .56.18.56.56v9.502c0 .36-.26.56-.56.56z"/><use xlink:href="#K" x="58.75"/><use xlink:href="#I" x="139.044"/><use xlink:href="#K" x="76.543"/><use xlink:href="#J" x="128.12"/></g><g fill="#fff"><path d="M72.493 41.064l-11.88 22.14v14.22c0 1.68-1.26 2.58-2.64 2.58-1.26 0-2.52-.84-2.52-2.52v-14.28l-11.88-22.2c-.3-.48-.36-.9-.36-1.26 0-1.44 1.38-2.58 2.7-2.58.78 0 1.62.42 2.16 1.44l9.9 18.48 10.02-18.48c.54-.96 1.38-1.32 2.16-1.32 1.38 0 2.7 1.08 2.7 2.52a2.14 2.14 0 0 1-.36 1.26z"/><use xlink:href="#L"/><use xlink:href="#M"/><use xlink:href="#N"/><path d="M163.518 80.122c-3.24 0-6-2.76-6-6.12V39.865c0-1.74 1.26-2.58 2.58-2.58s2.58.84 2.58 2.52v34.198c0 .72.54 1.02.84 1.02 1.68 0 2.58 1.2 2.58 2.58 0 1.32-.9 2.52-2.58 2.52zm30.9-28.38l-16.2 36.84c-1.2 2.76-3.84 4.02-6.6 4.02h-1.92c-1.74 0-2.52-1.26-2.52-2.64 0-1.26.78-2.52 2.52-2.52h1.86c.78 0 1.62-.12 1.98-.96l3.96-8.88-11.7-25.86c-.24-.42-.3-.78-.3-1.14 0-1.5 1.44-2.52 2.76-2.52.9 0 1.68.48 2.16 1.56l9.78 21.72 9.54-21.72c.48-1.08 1.38-1.5 2.22-1.5 1.38 0 2.76 1.02 2.76 2.46 0 .42-.06.72-.3 1.14z"/><use xlink:href="#O"/><use xlink:href="#P"/><use xlink:href="#Q"/><use xlink:href="#N" x="173.416"/><use xlink:href="#R"/><path d="M382.813 81.023c-4.38 0-10.5-1.8-13.92-4.98-.66-.6-.84-1.26-.84-1.86a2.6 2.6 0 0 1 2.58-2.58c.9 0 1.2.3 2.28 1.14 2.94 2.22 6.42 3.18 9.9 3.18 7.14 0 10.26-2.58 10.26-7.02 0-12.48-23.94-5.4-23.94-21.72 0-7.32 6.18-10.98 14.1-10.98 4.14 0 10.08 1.62 13.02 5.1.48.54.66 1.08.66 1.62 0 1.44-1.32 2.7-2.58 2.7-.9 0-1.38-.42-2.4-1.32-2.4-2.04-5.46-2.94-8.7-2.94-6.48 0-8.94 2.58-8.94 5.82 0 11.22 23.94 4.56 23.94 21.72 0 8.94-7.5 12.12-15.42 12.12zm33.947 0c-4.2 0-7.5-1.44-9.9-3.96v13.02c0 1.68-1.26 2.58-2.64 2.58-1.26 0-2.52-.9-2.52-2.58v-39.36c0-1.68 1.26-2.58 2.52-2.58 1.38 0 2.64.9 2.64 2.58 0 0 3.54-3.66 9.9-3.66 9.66 0 15.06 7.92 15.06 16.92 0 9.12-5.4 17.04-15.06 17.04zm0-28.86c-5.94 0-9.9 4.74-9.9 11.82 0 7.2 3.9 11.94 9.9 11.94s9.9-4.68 9.9-11.88c0-7.14-3.9-11.88-9.9-11.88zm45.44 14.52H440c.84 5.64 4.44 9.24 9.72 9.24 2.7 0 5.4-.96 7.14-3.12.54-.6 1.14-.96 1.86-.96 1.32 0 2.7 1.2 2.7 2.64 0 .72-.18 1.26-1.44 2.52-2.7 2.64-6.42 4.02-10.26 4.02-9.66 0-15.06-7.98-15.06-16.98 0-8.94 5.4-16.92 15.06-16.92 9.78 0 15 7.98 15 16.92 0 1.32-.96 2.64-2.52 2.64zm-12.48-14.46c-5.64 0-8.94 4.14-9.72 9.3h19.44c-.84-5.76-4.44-9.3-9.72-9.3z"/><use xlink:href="#S"/><use xlink:href="#T"/><use xlink:href="#P" x="282.225"/><path d="M587.5 80.002c-1.32 0-2.52-.9-2.52-2.52v-16.68c0-4.68-3.9-8.58-8.58-8.58-4.62 0-8.52 3.9-8.52 8.58v16.62c0 1.68-1.26 2.64-2.64 2.64-1.26 0-2.52-.9-2.52-2.58v-26.82c0-1.74 1.26-2.52 2.52-2.52 1.2 0 2.28.66 2.58 1.98 2.34-1.86 5.28-3 8.58-3 7.44 0 13.68 6.18 13.68 13.68v16.62c0 1.68-1.2 2.58-2.58 2.58z"/></g><g fill="#5c315a"><use xlink:href="#O" x="397.764"/><use xlink:href="#P" x="397.763"/><use xlink:href="#Q" x="397.764"/><use xlink:href="#R" x="379.907"/><use xlink:href="#L" x="664.87"/><path d="M808.62 51.564l-9.3 26.34c-.48 1.32-1.32 2.1-2.64 2.1-1.26 0-1.98-.54-2.52-2.1l-7.02-19.8-7.08 19.8c-.48 1.44-1.32 2.1-2.58 2.1-1.2 0-2.04-.66-2.52-2.1l-9.24-26.34c-.12-.36-.12-.6-.12-.96 0-1.5 1.38-2.46 2.64-2.46.96 0 1.92.48 2.34 1.68l6.96 20.04 7.08-19.62c.48-1.38 1.08-2.1 2.52-2.1 1.32 0 2.04.66 2.52 2.1l7.02 19.62 7.02-20.04c.42-1.2 1.38-1.68 2.28-1.68 1.38 0 2.76 1.02 2.76 2.52 0 .3 0 .54-.12.9z"/><use xlink:href="#P" x="563.229"/><use xlink:href="#N" x="704.082"/><path d="M884.747 52.524l-8.94 8.94 9.3 14.58c.24.48.42.96.42 1.44 0 1.44-1.32 2.58-2.7 2.58-.72 0-1.5-.36-2.04-1.2l-8.76-13.62-5.1 5.1v7.14c0 1.62-1.38 2.52-2.52 2.52-1.32 0-2.64-.9-2.64-2.52v-37.68c0-1.68 1.26-2.52 2.52-2.52 1.38 0 2.64.84 2.64 2.52v23.28l14.16-14.16c.6-.6 1.26-.78 1.92-.78 1.32 0 2.58 1.2 2.58 2.58 0 .6-.3 1.26-.84 1.8z"/></g><g fill="#fff"><use xlink:href="#O" x="691.11"/><use xlink:href="#M" x="834.078"/><path d="M997.52 51.684L986.6 77.962c-.54 1.38-1.44 2.04-2.58 2.04-1.02 0-1.98-.66-2.58-2.04l-10.92-26.278c-.12-.42-.18-.72-.18-1.08 0-1.44 1.32-2.46 2.64-2.46.9 0 1.8.48 2.28 1.56l8.76 21 8.76-21c.42-1.14 1.5-1.62 2.34-1.62 1.38 0 2.64.96 2.64 2.46 0 .3-.06.72-.24 1.14zm28.23 15h-22.2c.84 5.64 4.44 9.24 9.72 9.24 2.7 0 5.4-.96 7.14-3.12.54-.6 1.14-.96 1.86-.96 1.32 0 2.7 1.2 2.7 2.64 0 .72-.18 1.26-1.44 2.52-2.7 2.64-6.42 4.02-10.26 4.02-9.66 0-15.06-7.98-15.06-16.98 0-8.94 5.4-16.92 15.06-16.92 9.78 0 15 7.98 15 16.92 0 1.32-.96 2.64-2.52 2.64zm-12.48-14.46c-5.64 0-8.94 4.14-9.72 9.3H1023c-.84-5.76-4.44-9.3-9.72-9.3zm-707.118 70.5h-12.84v15.9c0 1.56-1.2 2.58-2.52 2.58-1.44 0-2.64-.96-2.64-2.52v-37.618c0-1.08.72-2.58 2.52-2.58h15.54c5.28 0 12.06 4.14 12.06 12.06 0 6.78-5.4 12.18-12.12 12.18zm0-19.14h-12.84v14.04h12.78a6.99 6.99 0 0 0 7.02-7.02c0-3.9-3.12-7.02-6.96-7.02zm21.283 37.74c-3.24 0-6-2.76-6-6.12v-34.138c0-1.74 1.26-2.58 2.58-2.58s2.58.84 2.58 2.52v34.198c0 .72.54 1.02.84 1.02 1.68 0 2.58 1.2 2.58 2.58 0 1.32-.9 2.52-2.58 2.52z"/><use xlink:href="#Q" x="52.139" y="61.2"/><use xlink:href="#U"/><use xlink:href="#U" x="46.32"/><use xlink:href="#L" x="385.89" y="61.2"/><use xlink:href="#T" x="-11.027" y="61.2"/><use xlink:href="#L" x="432.004" y="61.2"/><path d="M562.595 141.143c-1.32 0-2.58-.84-2.58-2.52 0 0-3.54 3.6-9.9 3.6-9.66 0-15.06-7.92-15.06-16.98 0-9 5.4-16.92 15.06-16.92 4.2 0 7.56 1.44 9.9 3.9v-11.16c0-1.74 1.26-2.58 2.58-2.58s2.58.84 2.58 2.52v37.618c0 1.68-1.26 2.52-2.58 2.52zm-12.48-27.72c-6 0-9.9 4.68-9.9 11.82 0 7.2 3.9 11.88 9.9 11.88 6.06 0 9.9-4.68 9.9-11.88 0-7.14-3.84-11.82-9.9-11.82zm37.44-8.94a4.32 4.32 0 1 1 0-8.64 4.32 4.32 0 1 1 0 8.64zm0 36.72c-1.32 0-2.64-.9-2.64-2.52v-26.76c0-1.68 1.32-2.58 2.64-2.58 1.26 0 2.52.9 2.52 2.58v26.76c0 1.68-1.26 2.52-2.52 2.52z"/><use xlink:href="#S" x="127.509" y="61.2"/><use xlink:href="#T" x="141.908" y="61.2"/><path d="M682.424 141.202c-1.32 0-2.52-.9-2.52-2.52v-16.68c0-4.68-3.9-8.58-8.58-8.58-4.62 0-8.52 3.9-8.52 8.58v16.62c0 1.68-1.26 2.64-2.64 2.64-1.26 0-2.52-.9-2.52-2.58v-37.618c0-1.74 1.26-2.58 2.52-2.58 1.38 0 2.64.84 2.64 2.52v10.38c2.22-2.1 5.22-3.06 8.52-3.06 7.44 0 13.68 6.18 13.68 13.68v16.62c0 1.68-1.2 2.58-2.58 2.58z"/><use xlink:href="#L" x="618.4" y="61.2"/><path d="M751.2 142.282c-8.22 0-15.06-6.6-15.06-15.06v-26.22c0-1.68 1.26-2.52 2.58-2.52s2.58.84 2.58 2.52v26.22c0 5.52 4.44 9.96 9.9 9.96s9.96-4.44 9.96-9.96v-26.158c0-1.74 1.2-2.58 2.52-2.58 1.38 0 2.58.84 2.58 2.52v26.22c0 8.22-6.6 15.06-15.06 15.06zm32.6-.06c-4.38 0-10.5-1.8-13.92-4.98-.66-.6-.84-1.26-.84-1.86a2.6 2.6 0 0 1 2.58-2.58c.9 0 1.2.3 2.28 1.14 2.94 2.22 6.42 3.18 9.9 3.18 7.14 0 10.26-2.58 10.26-7.02 0-12.48-23.938-5.4-23.938-21.72 0-7.32 6.18-10.98 14.1-10.98 4.14 0 10.08 1.62 13.02 5.1.48.54.66 1.08.66 1.62 0 1.44-1.32 2.7-2.58 2.7-.9 0-1.38-.42-2.4-1.32-2.4-2.04-5.46-2.94-8.7-2.94-6.48 0-8.94 2.58-8.94 5.82 0 11.22 23.94 4.56 23.94 21.72 0 8.94-7.5 12.12-15.42 12.12z"/></g><defs ><path id="E" d="M534.962 970.564c-5.936 0-5.99-7.11-5.99-11.2 0-4.004.616-9.716 5.964-9.716 5.235 0 6.02 5.376 6.02 9.716 0 4.06-.084 11.2-5.992 11.2zm4.396-11.2c0-4.004-.56-8.12-4.396-8.12-4.2 0-4.396 5.15-4.396 8.12v1.792c0 3.248.616 7.812 4.368 7.812 3.836 0 4.424-4.563 4.424-7.812v-1.792z"/><path id="F" d="M104.714 1045.51c-.633 0-1.267-.367-1.4-1.1-1.334 1.034-2.97 1.668-4.804 1.668-4.136 0-7.604-3.436-7.604-7.605v-9.24a1.37 1.37 0 0 1 1.4-1.435c.768 0 1.468.5 1.468 1.4v9.272c0 2.602 2.168 4.77 4.736 4.77 2.603 0 4.77-2.17 4.77-4.77v-9.24c0-1.034.667-1.468 1.4-1.468.768 0 1.435.5 1.435 1.435v14.9c0 .934-.667 1.4-1.4 1.4z"/><path id="G" d="M861.936 1046.36c-1.2 0-3.22-.42-3.92-1.58-.08-.12-.08-.22-.08-.3 0-.32.28-.6.58-.6.12 0 .32.1.44.28.72.88 2 1.06 2.98 1.06 1.94 0 2.92-.64 2.92-1.94 0-3.02-6.562-1.42-6.562-5.422 0-2.02 2.02-2.8 3.84-2.8 1.04 0 2.64.36 3.44 1.16.12.12.18.26.18.38a.65.65 0 0 1-.62.6.53.53 0 0 1-.38-.16c-.62-.6-1.74-.84-2.62-.84-1.76 0-2.7.68-2.7 1.66 0 2.8 6.562 1.32 6.562 5.422 0 2.28-2 3.08-4.06 3.08z"/><path id="H" d="M872.603 1046.32c-3.22 0-5.02-2.64-5.02-5.66 0-3 1.8-5.64 5.02-5.64s5.02 2.64 5.02 5.64c0 3.02-1.8 5.66-5.02 5.66zm0-10.162c-2.36 0-3.88 1.9-3.88 4.5s1.52 4.52 3.88 4.52c2.38 0 3.88-1.92 3.88-4.52s-1.5-4.5-3.88-4.5z"/><path id="I" d="M888.346 1045.98c-.28 0-.58-.2-.58-.56v-.64c-.84.98-2.06 1.54-3.42 1.54-2.48 0-4.56-2.08-4.56-4.56v-5.842c0-.36.3-.56.58-.56.26 0 .56.2.56.56v5.842c0 1.9 1.52 3.42 3.42 3.42s3.42-1.52 3.42-3.42v-5.842c0-.36.3-.56.58-.56.26 0 .56.2.56.56v9.502c0 .36-.3.56-.56.56z"/><path id="J" d="M917.14 1041.24h-8.302c.18 2.28 1.66 3.94 3.84 3.94 1.08 0 2.36-.48 2.94-1.38.14-.22.3-.28.48-.28.3 0 .62.24.62.54 0 .18 0 .22-.38.66-.92 1.08-2.26 1.6-3.66 1.6-3.22 0-5.02-2.64-5.02-5.66 0-3 1.8-5.64 5.02-5.64s5.02 2.66 5.02 5.64c0 .3-.28.58-.56.58zm-4.46-5.08c-2.4 0-3.66 1.84-3.84 3.94h7.7c-.18-2.28-1.66-3.94-3.86-3.94z"/><path id="K" d="M957.82 1045.98h-.62c-1.58 0-2.36-.78-2.36-2.34v-7.142h-1.02c-.36 0-.56-.3-.56-.58 0-.26.2-.56.56-.56h1.02v-3.06c0-.36.3-.56.58-.56s.56.2.56.56v3.06h1.84c.36 0 .56.3.56.56 0 .28-.2.58-.56.58h-1.84v7.142c0 .98.28 1.2 1.22 1.2h.62c.36 0 .56.3.56.58 0 .26-.2.56-.56.56z"/><path id="L" d="M98 66.683h-22.2c.84 5.64 4.44 9.24 9.72 9.24 2.7 0 5.4-.96 7.14-3.12.54-.6 1.14-.96 1.86-.96 1.32 0 2.7 1.2 2.7 2.64 0 .72-.18 1.26-1.44 2.52-2.7 2.64-6.42 4.02-10.26 4.02-9.66 0-15.06-7.98-15.06-16.98 0-8.94 5.4-16.92 15.06-16.92 9.78 0 15 7.98 15 16.92 0 1.32-.96 2.64-2.52 2.64zm-12.48-14.46c-5.64 0-8.94 4.14-9.72 9.3h19.44c-.84-5.76-4.44-9.3-9.72-9.3z"/><path id="M" d="M134.02 80.002c-3.3 0-4.8-2.34-5.34-3.42-2.4 2.64-5.88 4.44-10.56 4.44-9.78 0-15.06-8.04-15.06-16.98s5.4-16.92 15.06-16.92c4.2 0 7.56 1.5 9.9 3.96v-.24c0-.66.24-2.7 2.52-2.7 1.26 0 2.64.66 2.64 2.52v23.16c0 .78.54 1.08.84 1.08 1.68 0 2.58 1.2 2.58 2.58 0 1.26-.9 2.52-2.58 2.52zm-15.9-27.778c-6 0-9.9 4.68-9.9 11.82 0 7.2 3.9 11.88 9.9 11.88 6.06 0 9.9-4.68 9.9-11.88 0-7.14-3.84-11.82-9.9-11.82z"/><path id="N" d="M153.324 52.224c-4.62 0-8.52 3.9-8.52 8.58v16.62c0 1.68-1.26 2.58-2.64 2.58-1.26 0-2.52-.9-2.52-2.52v-26.76c0-1.68 1.38-2.58 2.52-2.58 1.2 0 2.34.66 2.58 2.04 2.34-1.92 5.52-3.06 8.58-3.06 1.74 0 2.64 1.2 2.64 2.58 0 1.32-.9 2.52-2.64 2.52z"/><path id="O" d="M238.996 80.002c-1.32 0-2.64-.9-2.64-2.52v-17.82h-19.8v17.82c0 1.62-1.38 2.52-2.52 2.52-1.32 0-2.64-.9-2.64-2.52v-37.68c0-1.68 1.32-2.52 2.64-2.52 1.14 0 2.52.84 2.52 2.52v14.76h19.8v-14.7c0-1.74 1.38-2.58 2.52-2.58 1.32 0 2.64.84 2.64 2.58v37.558c0 1.68-1.38 2.58-2.52 2.58z"/><path id="P" d="M261.087 81.023c-9.66 0-15.06-7.92-15.06-16.98 0-9 5.4-16.92 15.06-16.92s15.06 7.92 15.06 16.92c0 9.06-5.4 16.98-15.06 16.98zm0-28.8c-6 0-9.9 4.68-9.9 11.82 0 7.2 3.9 11.88 9.9 11.88 6.06 0 9.9-4.68 9.9-11.88 0-7.14-3.84-11.82-9.9-11.82z"/><path id="Q" d="M304.754 80.063c-1.14 0-2.28-.66-2.52-1.98-2.4 1.86-5.34 3-8.64 3-7.44 0-13.68-6.18-13.68-13.68v-16.62c0-1.68 1.26-2.58 2.52-2.58 1.38 0 2.64.9 2.64 2.52v16.68c0 4.68 3.9 8.58 8.52 8.58 4.68 0 8.58-3.9 8.58-8.58v-16.62c0-1.86 1.2-2.64 2.52-2.64 1.38 0 2.58.9 2.58 2.58v26.818c0 1.68-1.2 2.52-2.52 2.52z"/><path id="R" d="M341.055 81.023c-3.3 0-8.82-1.02-11.64-4.5-.36-.54-.54-1.08-.54-1.56 0-1.5 1.44-2.7 2.7-2.7.72 0 1.26.36 1.86 1.02 1.86 2.04 4.92 2.64 7.62 2.64 5.4 0 7.14-1.86 7.14-4.56 0-7.68-18.3-2.94-18.3-15.3 0-6.54 6.12-8.94 11.82-8.94 3.24 0 10.86 1.62 10.86 4.98 0 1.32-1.08 2.7-2.52 2.7-.54 0-1.38-.3-1.98-.78-1.62-1.38-3.96-1.8-6.36-1.8-4.98 0-6.72 1.86-6.72 3.84 0 7.14 18.36 2.52 18.36 15.3 0 7.08-5.94 9.66-12.3 9.66z"/><path id="S" d="M493.213 80.002c-1.32 0-2.52-.9-2.52-2.52v-16.68c0-4.68-3.9-8.58-8.58-8.58-4.62 0-8.52 3.9-8.52 8.58v16.62c0 1.68-1.26 2.64-2.64 2.64-1.26 0-2.52-.9-2.52-2.58v-26.82c0-1.74 1.26-2.52 2.52-2.52 1.2 0 2.28.66 2.58 1.98a13.67 13.67 0 0 1 8.58-3c7.44 0 13.68 6.18 13.68 13.68v16.62c0 1.68-1.2 2.58-2.58 2.58z"/><path id="T" d="M510.612 80.002h-1.02c-5.7 0-7.86-3-7.86-7.92v-18.84h-1.8c-1.44 0-2.58-1.14-2.58-2.52 0-1.44 1.14-2.58 2.52-2.58h1.8v-8.34c0-1.68 1.26-2.52 2.58-2.52s2.52.84 2.52 2.52v8.34h3.84c1.68 0 2.52 1.38 2.52 2.52 0 1.44-.96 2.58-2.52 2.58h-3.84v19.38c0 1.68.6 2.28 2.28 2.28h1.5c1.56 0 2.58 1.14 2.58 2.52 0 1.44-.96 2.58-2.52 2.58z"/><path id="U" d="M403.356 141.202c-1.26 0-2.52-.9-2.52-2.52v-18.9c0-3.48-2.88-6.36-6.3-6.36-3.54 0-6.36 2.88-6.36 6.3v18.898c0 1.68-1.2 2.58-2.58 2.58-1.32 0-2.52-.9-2.52-2.52v-18.9c0-3.48-2.88-6.36-6.36-6.36s-6.36 2.88-6.36 6.3v18.898c0 1.68-1.26 2.58-2.64 2.58-1.26 0-2.52-.9-2.52-2.52v-26.82c0-1.74 1.32-2.58 2.64-2.58.84 0 1.68.36 2.16 1.14 1.86-1.32 4.2-2.1 6.66-2.1 3.6 0 6.84 1.62 8.94 4.26 2.1-2.64 5.28-4.26 8.88-4.26 6.36 0 11.52 5.1 11.52 11.4v18.898c0 1.68-1.26 2.58-2.64 2.58z"/></defs></svg>