<svg xmlns="http://www.w3.org/2000/svg" xmlns:xlink="http://www.w3.org/1999/xlink" viewBox="0 0 1080 2166"><style><![CDATA[.N{fill:#fff}.O{opacity:.4}.P{opacity:.7}.Q{stroke-dasharray:1.99211,5.97633}.R{clip-path:url(#W)}.S{stroke-miterlimit:10}]]></style><linearGradient id="A" gradientUnits="userSpaceOnUse" x1="-259.784" y1="283.216" x2="1339.784" y2="1882.784"><stop offset="0" stop-color="#0f0c29"/><stop offset=".227" stop-color="#1f1b45"/><stop offset=".5" stop-color="#302b63"/><stop offset=".532" stop-color="#2f2a60"/><stop offset=".823" stop-color="#272647"/><stop offset="1" stop-color="#24243e"/></linearGradient><path d="M1040 2166H40c-22.09 0-40-17.91-40-40V40C0 17.91 17.91 0 40 0h1000c22.09 0 40 17.91 40 40v2086c0 22.09-17.91 40-40 40z" fill="url(#A)"/><g opacity=".2" class="N"><path d="M42.228 2132.545c-3.568 0-5.47-1.97-5.503-2.002 0 .935-.7 1.4-1.468 1.4-.7 0-1.4-.467-1.4-1.4v-20.88a1.35 1.35 0 0 1 1.401-1.434c.767 0 1.468.467 1.468 1.4v6.238c1.334-1.368 3.168-2.17 5.503-2.17 5.37 0 8.373 4.403 8.373 9.406 0 5.037-3.002 9.44-8.373 9.44zm0-16c-3.335 0-5.503 2.602-5.503 6.57 0 4.003 2.168 6.604 5.503 6.604s5.504-2.602 5.504-6.604c0-3.97-2.168-6.57-5.504-6.57zm25.555 8.037h-12.34c.467 3.136 2.468 5.137 5.403 5.137 1.5 0 3.002-.533 3.97-1.734.3-.333.634-.533 1.034-.533.734 0 1.5.667 1.5 1.468 0 .4-.1.7-.8 1.4-1.5 1.468-3.57 2.235-5.704 2.235-5.37 0-8.372-4.437-8.372-9.44 0-4.97 3.002-9.406 8.372-9.406 5.437 0 8.34 4.437 8.34 9.406 0 .734-.534 1.468-1.4 1.468zm-6.937-8.038c-3.136 0-4.97 2.3-5.403 5.17H66.25c-.467-3.202-2.468-5.17-5.403-5.17zm27.054 15.444c-1.834 0-2.668-1.3-2.97-1.9-1.334 1.468-3.27 2.47-5.87 2.47-5.437 0-8.372-4.47-8.372-9.44s3.002-9.406 8.372-9.406c2.335 0 4.203.834 5.504 2.202v-.134c0-.367.133-1.5 1.4-1.5.7 0 1.468.367 1.468 1.4v12.875c0 .434.3.6.467.6.935 0 1.435.667 1.435 1.434a1.37 1.37 0 0 1-1.435 1.401zm-8.84-15.443c-3.336 0-5.504 2.602-5.504 6.57 0 4.003 2.168 6.604 5.504 6.604 3.37 0 5.504-2.602 5.504-6.604 0-3.97-2.135-6.57-5.504-6.57z"/><use xlink:href="#C"/><path d="M115.058 2131.978h-.567c-3.17 0-4.37-1.668-4.37-4.403V2117.1h-1c-.8 0-1.435-.634-1.435-1.4 0-.8.634-1.435 1.4-1.435h1v-4.637c0-.934.7-1.4 1.435-1.4s1.4.467 1.4 1.4v4.637h2.135c.934 0 1.4.768 1.4 1.4 0 .8-.533 1.434-1.4 1.434h-2.135v10.774c0 .934.333 1.268 1.268 1.268h.833c.868 0 1.435.634 1.435 1.4 0 .8-.533 1.435-1.4 1.435zm4.604-20.415a2.401 2.401 0 1 1 0-4.803 2.401 2.401 0 1 1 0 4.803zm0 20.414c-.733 0-1.467-.5-1.467-1.4V2115.7c0-.935.733-1.435 1.467-1.435a1.37 1.37 0 0 1 1.401 1.435v14.876c0 .935-.7 1.4-1.4 1.4zm10.376-14.877h-1.5v13.442c0 .935-.7 1.4-1.468 1.4-.7 0-1.4-.467-1.4-1.4V2117.1h-1.37c-.9 0-1.4-.667-1.4-1.4 0-.768.5-1.435 1.4-1.435h1.367v-2.27c0-2.135 1.77-3.77 3.836-3.77.968 0 1.468.667 1.468 1.434 0 .7-.5 1.4-1.468 1.4-.566 0-.967.434-.967.9v2.302h1.5c.967 0 1.468.667 1.468 1.435 0 .733-.5 1.4-1.468 1.4z"/><use xlink:href="#C" x="42.068"/><path d="M154.625 2132.044c-1.802 0-3.336-1.534-3.336-3.402v-18.98c0-.967.7-1.434 1.435-1.434s1.435.467 1.435 1.4v19.013c0 .4.3.567.467.567.934 0 1.435.667 1.435 1.435 0 .733-.5 1.4-1.435 1.4zm15.37-.066v-1.264c1.886-.237 2.046-.437 2.046-3.157v-6.7c0-2.8-1.248-4.017-3.064-4.017-1.237 0-2.345.6-3.47 1.493v9.476c0 2.527.187 2.658 2.06 2.896v1.264h-8.968v-1.264c2.254-.33 2.5-.4 2.5-3v-8.2c0-2.446-.303-2.565-2.185-2.922v-1.184c2.173-.292 4.63-.807 6.653-1.533l-.052 2.95 2.6-1.745c1.16-.713 2-1.086 3.16-1.086 3.194 0 5.2 2.338 5.2 6.3v7.5c0 2.54.237 2.657 2.277 2.92v1.264h-8.74zm23.9-3.703c-2.458 3.427-5.488 4.178-7.014 4.178-5.142 0-8.124-3.936-8.124-8.594 0-2.745 1.183-5.396 2.832-7.062 1.74-1.8 3.945-2.814 6.082-2.814 3.73 0 6.396 3.126 6.37 6.347-.014.715-.08 1.277-.612 1.4-.767.184-6.17.5-10.318.647.062 4.587 2.717 6.74 5.556 6.74 1.572 0 3.104-.597 4.543-1.866l.686 1.014zm-7.07-12.7c-1.667 0-3.167 1.807-3.516 4.963l5.486-.118c.6-.026.848-.146.848-.792.04-2.022-1.037-4.053-2.818-4.053zm34.284.145c-1.943.343-2.248.624-3.105 2.765-1.33 3.462-3.102 8.53-4.934 13.94h-1.512l-4.65-11.46-4.55 11.46h-1.472l-4.685-14.192c-.687-1.985-.94-2.274-2.855-2.512v-1.25h9.397v1.25c-2.325.345-2.535.672-2.058 2.133l2.52 8.214c1.507-3.68 2.988-7.62 4.327-11.424H209c1.4 3.76 2.986 7.702 4.573 11.568.742-2.107 2.062-5.964 2.557-8.108.412-1.674-.008-2.078-2.753-2.383v-1.25h7.742v1.25z"/><path d="M230.528 2119.456c-.92-2.606-2.155-3.984-4.21-3.984-1.206 0-2.225.86-2.225 2.266 0 1.497 1.046 2.264 3.16 3.216 3.278 1.496 5.3 2.787 5.3 5.736 0 3.85-3.6 5.764-6.945 5.764-2.06 0-4.088-.737-4.92-1.16l-.662-4.892 1.252-.224c.8 2.51 2.33 4.75 4.976 4.75 1.505 0 2.438-.952 2.438-2.28 0-1.423-.76-2.333-3.092-3.467-2.67-1.295-5.107-2.64-5.107-5.775 0-3.046 2.533-5.42 6.565-5.42 1.818 0 3.242.396 4.112.567l.62 4.577-1.25.328z"/></g><g class="N O"><path d="M876.347 2132.357c-1.2 0-3.22-.42-3.92-1.58-.08-.12-.08-.22-.08-.3 0-.32.28-.6.58-.6.12 0 .32.1.44.28.72.88 2 1.06 2.98 1.06 1.94 0 2.92-.64 2.92-1.94 0-3.02-6.562-1.42-6.562-5.422 0-2.02 2.02-2.8 3.84-2.8 1.04 0 2.64.36 3.44 1.16a.56.56 0 0 1 .18.38.65.65 0 0 1-.62.6.53.53 0 0 1-.38-.16c-.62-.6-1.74-.84-2.62-.84-1.76 0-2.7.68-2.7 1.66 0 2.8 6.562 1.32 6.562 5.422 0 2.28-2 3.08-4.06 3.08zm10.72-.04c-3.22 0-5.02-2.64-5.02-5.66 0-3 1.8-5.64 5.02-5.64s5.02 2.64 5.02 5.64c0 3.02-1.8 5.66-5.02 5.66zm0-10.162c-2.36 0-3.88 1.9-3.88 4.5s1.52 4.52 3.88 4.52c2.38 0 3.88-1.92 3.88-4.52s-1.5-4.5-3.88-4.5zm15.78 9.823c-.28 0-.58-.2-.58-.56v-.64c-.84.98-2.06 1.54-3.42 1.54-2.48 0-4.56-2.08-4.56-4.56v-5.842c0-.36.3-.56.58-.56.26 0 .56.2.56.56v5.842c0 1.9 1.52 3.42 3.42 3.42s3.42-1.52 3.42-3.42v-5.842c0-.36.3-.56.58-.56.26 0 .56.2.56.56v9.502c0 .36-.3.56-.56.56z"/><use xlink:href="#D"/><path d="M920.987 2130.797c-.88.98-2.1 1.52-3.58 1.52-3.22 0-5.02-2.64-5.02-5.66 0-3 1.8-5.64 5.02-5.64 1.48 0 2.7.54 3.58 1.52a.53.53 0 0 1 .16.381.63.63 0 0 1-.58.6c-.14 0-.28-.06-.42-.2-.66-.74-1.58-1.16-2.74-1.16-2.36 0-3.88 1.9-3.88 4.5s1.52 4.52 3.88 4.52c1.16 0 2.08-.44 2.74-1.16.14-.14.28-.2.42-.2.3 0 .58.26.58.58a.57.57 0 0 1-.16.399z"/><use xlink:href="#E"/><path d="M936.545 2125.416c-.64 0-1.16-.5-1.16-1.14s.52-1.14 1.16-1.14c.62 0 1.12.5 1.12 1.14s-.5 1.14-1.12 1.14zm0 6.562c-.64 0-1.16-.5-1.16-1.14s.52-1.14 1.16-1.14c.62 0 1.12.5 1.12 1.14s-.5 1.14-1.12 1.14zm18.2 0h-8.882c-.3 0-.58-.28-.58-.56v-13.122c0-.3.28-.56.58-.56h8.882a.55.55 0 0 1 .58.561.55.55 0 0 1-.58.56h-8.32v4.92h6.1a.55.55 0 0 1 .58.561c0 .28-.2.58-.56.58h-6.12v5.92h8.32c.38 0 .58.3.58.58a.55.55 0 0 1-.58.561zm11.52 0c-.28 0-.58-.2-.58-.56v-5.84c0-1.9-1.52-3.42-3.42-3.42a3.42 3.42 0 0 0-3.421 3.421v5.84c0 .36-.3.56-.56.56-.28 0-.58-.2-.58-.56v-9.502c0-.36.3-.56.58-.56.26 0 .56.2.56.56v.64c.9-.98 2.08-1.54 3.42-1.54a4.6 4.6 0 0 1 4.561 4.561v5.84c0 .36-.3.56-.56.56z"/><use xlink:href="#E" x="45.939"/><use xlink:href="#D" x="75.199"/><path d="M992.607 2136.538c-1.7 0-4.102-.64-4.102-1.36 0-.32.26-.64.58-.64.22 0 .68.34 1.06.48.52.18 1.34.38 2.46.38 2.56 0 3.88-1.26 3.88-3.72v-1.4c-.88 1.06-2.14 1.7-3.88 1.7-3.16 0-5.02-2.24-5.02-5.32 0-3 1.8-5.64 5.02-5.64 1.74 0 3.04.72 3.88 1.88v-.96c0-.36.3-.56.58-.56.26 0 .56.2.56.56v9.742c0 3.18-1.9 4.86-5.02 4.86zm0-14.383c-2.36 0-3.88 1.9-3.88 4.5 0 2.58 1.42 4.18 3.88 4.18s3.88-1.6 3.88-4.18c0-2.6-1.5-4.5-3.88-4.5zm8.437-2.72c-.64 0-1.14-.5-1.14-1.14s.5-1.14 1.14-1.14 1.14.5 1.14 1.14-.5 1.14-1.14 1.14zm0 12.543c-.28 0-.58-.18-.58-.56v-9.502c0-.36.28-.56.58-.56.26 0 .56.18.56.56v9.502c0 .36-.26.56-.56.56z"/><use xlink:href="#E" x="80.899"/><path d="M1031.608 2131.978c-.2 0-.42-.12-.52-.34l-1.28-3.08h-7.2l-1.28 3.08c-.08.22-.32.34-.5.34-.3 0-.58-.22-.58-.54 0-.1 0-.16.04-.26l5.4-13.104a.63.63 0 0 1 .58-.38c.2 0 .38.12.48.38l5.4 13.104a.59.59 0 0 1 .04.26c0 .32-.28.54-.58.54zm-5.4-12.183l-3.14 7.622h6.3l-3.16-7.622zm12.735 12.522c-4.4 0-5.82-3.7-5.82-7.46 0-3.74 1.42-7.482 5.82-7.482 1.8 0 3.38.64 4.44 2.18.1.1.12.2.12.32 0 .32-.3.56-.62.56-.28 0-.44-.24-.66-.52-.7-.9-1.76-1.4-3.28-1.4-3.02 0-4.682 2.32-4.682 6.342 0 3.04.96 6.32 4.682 6.32 3.16 0 4.54-2.42 4.68-5.74h-2.44a.57.57 0 0 1-.6-.58c0-.28.2-.58.56-.58h3.04c.34 0 .58.24.58.58 0 3.9-1.54 7.46-5.82 7.46z"/></g><g opacity=".9"><defs><path id="B" d="M1000.113 2071.972H79.887c-25.343 0-45.887-20.544-45.887-45.887V280.29c0-25.343 20.544-45.887 45.887-45.887h920.226c25.343 0 45.887 20.544 45.887 45.887v1745.796c0 25.343-20.544 45.887-45.887 45.887z" opacity=".9"/><path id="C" d="M104.614 2132.01c-.633 0-1.267-.367-1.4-1.1-1.334 1.034-2.97 1.668-4.804 1.668-4.136 0-7.604-3.436-7.604-7.605v-9.24a1.37 1.37 0 0 1 1.4-1.435c.768 0 1.468.5 1.468 1.4v9.272c0 2.602 2.168 4.77 4.736 4.77 2.603 0 4.77-2.17 4.77-4.77v-9.24c0-1.034.667-1.468 1.4-1.468.768 0 1.435.5 1.435 1.435v14.9c0 .934-.667 1.4-1.4 1.4z"/><path id="D" d="M910.807 2122.336a3.42 3.42 0 0 0-3.421 3.42v5.66c0 .36-.3.56-.56.56-.28 0-.58-.2-.58-.56v-9.502c0-.36.3-.56.58-.56.26 0 .56.2.56.56v.82c.9-.98 2.08-1.54 3.42-1.54.36 0 .58.3.58.56a.58.58 0 0 1-.58.581z"/><path id="E" d="M932.568 2127.236h-8.302c.18 2.28 1.66 3.94 3.84 3.94 1.08 0 2.36-.48 2.94-1.38.14-.22.3-.28.48-.28.3 0 .62.24.62.54 0 .18 0 .22-.38.66-.92 1.08-2.26 1.6-3.66 1.6-3.22 0-5.02-2.64-5.02-5.66 0-3 1.8-5.64 5.02-5.64s5.02 2.66 5.02 5.64c0 .3-.28.58-.56.58zm-4.46-5.08c-2.4 0-3.66 1.84-3.84 3.94h7.7c-.18-2.28-1.66-3.94-3.86-3.94z"/><path id="F" d="M282.81 1997.07c-1.87 0-4.998-.578-6.596-2.55-.204-.306-.306-.612-.306-.884 0-.85.815-1.53 1.53-1.53.408 0 .714.204 1.054.578 1.055 1.156 2.788 1.496 4.318 1.496 3.06 0 4.045-1.054 4.045-2.584 0-4.352-10.368-1.666-10.368-8.67 0-3.706 3.467-5.065 6.697-5.065 1.835 0 6.153.918 6.153 2.82 0 .748-.612 1.53-1.43 1.53-.306 0-.78-.17-1.12-.442-.918-.782-2.244-1.02-3.604-1.02-2.822 0-3.808 1.054-3.808 2.176 0 4.046 10.402 1.428 10.402 8.67 0 4.012-3.365 5.474-6.97 5.474z"/><path id="G" d="M318.54 1996.56c-1.836 0-3.4-1.564-3.4-3.468v-19.345c0-.985.714-1.462 1.462-1.462s1.462.477 1.462 1.43v19.378c0 .408.306.578.476.578.952 0 1.462.68 1.462 1.46 0 .748-.5 1.43-1.462 1.43z"/><path id="H" d="M641.196 1988.944h-12.578c.476 3.195 2.516 5.235 5.507 5.235 1.53 0 3.06-.544 4.046-1.768.306-.34.646-.545 1.054-.545.748 0 1.53.68 1.53 1.496 0 .408-.103.714-.816 1.428-1.53 1.496-3.638 2.278-5.813 2.278-5.474 0-8.533-4.52-8.533-9.62 0-5.065 3.06-9.587 8.533-9.587 5.542 0 8.5 4.52 8.5 9.587 0 .748-.544 1.496-1.428 1.496zm-7.07-8.193c-3.195 0-5.065 2.346-5.507 5.27h11.015c-.477-3.264-2.516-5.27-5.508-5.27z"/><path id="I" d="M672.715 1980.75c-2.617 0-4.827 2.2-4.827 4.86v9.417c0 .952-.714 1.462-1.496 1.462-.714 0-1.428-.5-1.428-1.428V1979.9a1.44 1.44 0 0 1 1.428-1.461c.68 0 1.326.373 1.462 1.155 1.326-1.088 3.128-1.733 4.86-1.733.986 0 1.496.68 1.496 1.462 0 .748-.5 1.428-1.496 1.428z"/><path id="J" d="M306.554 2006.662c.64.68.97 1.555 1 2.623v1.807c-.02 1.07-.35 1.943-1 2.623s-1.497 1.03-2.565 1.05c-1.05-.02-1.895-.37-2.535-1.05-.66-.68-1-1.554-1.02-2.623v-1.807c.02-1.068.36-1.942 1.02-2.623.64-.68 1.486-1.03 2.535-1.05 1.068.02 1.924.37 2.565 1.05zm-3.935 20.4h-1.282c-.233.02-.292-.077-.176-.292l12.008-20.43c.077-.233.204-.33.38-.292h1.282c.214-.02.272.068.175.263l-12.036 20.43c-.078.232-.194.34-.35.32zm-.554-16.06c.077 1.36.718 2.05 1.923 2.07 1.225-.02 1.865-.71 1.924-2.07v-1.632c-.06-1.36-.7-2.05-1.924-2.07-1.205.02-1.846.71-1.923 2.07v1.632zm7.548 15.446c-.66-.68-1-1.545-1.02-2.594v-1.777c.02-1.05.36-1.914 1.02-2.595.642-.66 1.486-1 2.536-1.02 1.068.02 1.923.36 2.564 1.02.64.68.972 1.545.99 2.595v1.777c-.02 1.05-.35 1.914-.99 2.594s-1.496 1.03-2.564 1.05c-1.05-.02-1.895-.37-2.536-1.05zm4.46-2.682v-1.603c-.058-1.32-.7-1.99-1.923-2.01-1.205.02-1.847.69-1.924 2.01v1.603c.077 1.34.72 2.02 1.924 2.04 1.224-.02 1.865-.7 1.923-2.04v-.028.028z"/><path id="K" d="M132.455 205.706l.316-.237h1.87c.193 0 .28.088.264.264v16.642c-.035.194.043.28.236.264h3.424c.192-.035.27.044.236.237v1.29c.018.193-.062.272-.236.237h-9.322c-.193.035-.28-.043-.263-.237v-1.29c-.018-.193.07-.272.263-.237h3.556c.175.018.254-.07.236-.264V208.34c-.018-.21-.105-.228-.263-.053-.826.772-2.028 1.475-3.607 2.106-.142.07-.22.026-.237-.132v-1.343c0-.105.062-.185.185-.237 1.49-.632 2.606-1.624 3.344-2.976v-.026.026z"/><path id="L" d="M149.822 206.6c.966 1 1.466 2.31 1.5 3.924v8.9c-.035 1.616-.535 2.932-1.5 3.95-.965 1-2.238 1.518-3.817 1.554-1.563-.036-2.836-.553-3.818-1.554-.966-1.018-1.458-2.334-1.475-3.95v-8.9c.017-1.615.51-2.923 1.475-3.924.982-1.018 2.255-1.536 3.818-1.554 1.58.018 2.853.536 3.817 1.554zm-7.136 3.924v8.9c.018 1.09.316 1.966.896 2.633.597.667 1.404 1 2.423 1.027 1.018-.018 1.825-.36 2.422-1.027s.904-1.544.922-2.633v-8.9c-.018-1.088-.325-1.958-.922-2.607-.597-.667-1.404-1.01-2.422-1.027-1.02.018-1.826.36-2.423 1.027-.58.65-.878 1.52-.896 2.607v-.026.026z"/><path id="M" d="M157.372 205.692c.338.358.512.82.522 1.382v.952c-.01.563-.185 1.023-.522 1.382s-.788.542-1.35.553c-.553-.01-.998-.194-1.336-.553-.348-.358-.527-.82-.537-1.382v-.952c.01-.563.19-1.023.537-1.382.338-.358.783-.542 1.336-.553.563.01 1.013.195 1.35.553zm-2.072 10.746h-.676c-.123.01-.153-.04-.092-.153l6.325-10.762c.04-.123.107-.174.2-.153h.676c.112-.01.143.036.092.138l-6.34 10.762c-.04.123-.103.18-.185.168zm-.292-8.46c.04.716.38 1.08 1.014 1.1.645-.01.982-.374 1.013-1.1v-.86c-.03-.716-.368-1.08-1.013-1.1-.635.01-.973.374-1.014 1.1v.86zm3.977 8.136c-.35-.358-.527-.813-.537-1.366v-.937c.01-.553.188-1.008.537-1.366.338-.348.782-.527 1.335-.537.563.01 1.014.19 1.352.537.338.358.512.813.52 1.366v.937c-.01.553-.184 1.008-.52 1.366s-.788.542-1.352.553c-.553-.01-.997-.194-1.335-.553zm2.35-1.412v-.845c-.03-.696-.368-1.05-1.014-1.06-.635.01-.972.363-1.013 1.06v.845c.04.706.378 1.064 1.013 1.075.646-.01.982-.37 1.014-1.075v-.016.016z"/><path id="N" d="M44.223 880.677v-1.68c.3-.988.69-1.918 1.176-2.785l1.54-2.465 1.652-2.24 1.512-2.128a12.3 12.3 0 0 0 1.092-2.114c.28-.71.42-1.446.42-2.212 0-1.064-.234-1.862-.7-2.395a2.22 2.22 0 0 0-1.736-.798c-.803 0-1.47.332-2.002.994s-.846 1.75-.937 3.262h-1.85c.057-1.138.22-2.1.5-2.855s.62-1.377 1.05-1.834.914-.78 1.455-.966 1.12-.28 1.736-.28c1.326 0 2.408.438 3.248 1.315s1.26 2.156 1.26 3.836c0 .84-.117 1.597-.35 2.27s-.545 1.32-.937 1.946-.846 1.246-1.357 1.86l-1.61 2.03-1.693 2.45c-.57.896-1.105 1.932-1.61 3.107h7.672v1.68h-9.52z"/><path id="O" d="M77.15 870.568c0 1.83-.098 3.397-.293 4.704s-.496 2.38-.896 3.22-.9 1.46-1.525 1.862-1.336.602-2.156.602-1.54-.2-2.156-.602-1.125-1.022-1.525-1.862-.7-1.913-.896-3.22-.295-2.874-.295-4.704.1-3.397.295-4.704.494-2.38.896-3.22.9-1.46 1.525-1.862 1.334-.602 2.156-.602 1.54.2 2.156.602 1.123 1.022 1.525 1.862.7 1.914.896 3.22.293 2.875.293 4.704zm-2.016 0l-.182-4.158c-.12-1.1-.305-2.002-.547-2.674s-.54-1.152-.895-1.44a1.89 1.89 0 0 0-1.232-.435c-.467 0-.88.145-1.232.435s-.654.77-.896 1.44-.424 1.563-.545 2.674-.182 2.497-.182 4.158l.182 4.158c.12 1.1.303 2.002.545 2.674s.54 1.153.896 1.442a1.89 1.89 0 0 0 1.232.434c.467 0 .877-.145 1.232-.434s.652-.77.895-1.442.426-1.563.547-2.674.182-2.496.182-4.158z"/><path id="P" d="M64.377 1199.135c0 1.752-.094 3.253-.28 4.504s-.473 2.28-.857 3.084-.87 1.4-1.46 1.783-1.28.576-2.064.576-1.477-.192-2.066-.576-1.076-.98-1.46-1.783-.67-1.832-.857-3.084-.28-2.752-.28-4.504.094-3.254.28-4.505.473-2.28.857-3.084.87-1.398 1.46-1.783 1.28-.576 2.066-.576 1.475.192 2.064.576 1.076.98 1.46 1.783.67 1.833.857 3.084.28 2.753.28 4.505zm-1.93 0l-.174-3.982c-.117-1.063-.29-1.917-.523-2.56s-.52-1.104-.857-1.38-.734-.416-1.18-.416-.842.14-1.182.416-.625.737-.857 1.38-.406 1.497-.523 2.56-.174 2.392-.174 3.982l.174 3.98c.117 1.063.29 1.917.523 2.56s.518 1.104.857 1.38.734.416 1.182.416.84-.14 1.18-.416.625-.737.857-1.38.406-1.497.523-2.56.174-2.39.174-3.98z"/><path id="Q" d="M199.774 65.68h-22.2c.84 5.64 4.44 9.24 9.72 9.24 2.7 0 5.4-.96 7.14-3.12.54-.6 1.14-.96 1.86-.96 1.32 0 2.7 1.2 2.7 2.64 0 .72-.18 1.26-1.44 2.52-2.7 2.64-6.42 4.02-10.26 4.02-9.66 0-15.06-7.98-15.06-16.98 0-8.94 5.4-16.92 15.06-16.92 9.78 0 15 7.98 15 16.92 0 1.32-.96 2.64-2.52 2.64zm-12.48-14.46c-5.64 0-8.94 4.14-9.72 9.3h19.44c-.84-5.76-4.44-9.3-9.72-9.3z"/><path id="R" d="M220.054 51.222c-4.62 0-8.52 3.9-8.52 8.58v16.62c0 1.68-1.26 2.58-2.64 2.58-1.26 0-2.52-.9-2.52-2.52v-26.76c0-1.68 1.38-2.58 2.52-2.58 1.2 0 2.34.66 2.58 2.04a13.88 13.88 0 0 1 8.58-3.06c1.74 0 2.64 1.2 2.64 2.58 0 1.32-.9 2.52-2.64 2.52z"/><path id="S" d="M299.733 79c-3.3 0-4.8-2.34-5.34-3.42-2.4 2.64-5.88 4.44-10.56 4.44-9.78 0-15.06-8.04-15.06-16.98s5.4-16.92 15.06-16.92c4.2 0 7.56 1.5 9.9 3.96v-.24c0-.66.24-2.7 2.52-2.7 1.26 0 2.64.66 2.64 2.52v23.16c0 .78.54 1.08.84 1.08 1.68 0 2.58 1.2 2.58 2.58 0 1.26-.9 2.52-2.58 2.52zm-15.9-27.78c-6 0-9.9 4.68-9.9 11.82 0 7.2 3.9 11.88 9.9 11.88 6.06 0 9.9-4.68 9.9-11.88 0-7.14-3.84-11.82-9.9-11.82z"/><path id="T" d="M330.273 79c-1.32 0-2.52-.9-2.52-2.52V59.8c0-4.68-3.9-8.58-8.58-8.58-4.62 0-8.52 3.9-8.52 8.58v16.62c0 1.68-1.26 2.64-2.64 2.64-1.26 0-2.52-.9-2.52-2.58v-26.82c0-1.74 1.26-2.52 2.52-2.52 1.2 0 2.28.66 2.58 1.98 2.34-1.86 5.28-3 8.58-3 7.44 0 13.68 6.18 13.68 13.68v16.62c0 1.68-1.2 2.58-2.58 2.58z"/><path id="U" d="M388.772 80.02c-3.3 0-8.82-1.02-11.64-4.5-.36-.54-.54-1.08-.54-1.56 0-1.5 1.44-2.7 2.7-2.7.72 0 1.26.36 1.86 1.02 1.86 2.04 4.92 2.64 7.62 2.64 5.4 0 7.14-1.86 7.14-4.56 0-7.68-18.3-2.94-18.3-15.3 0-6.54 6.12-8.94 11.82-8.94 3.24 0 10.86 1.62 10.86 4.98 0 1.32-1.08 2.7-2.52 2.7-.54 0-1.38-.3-1.98-.78-1.62-1.38-3.96-1.8-6.36-1.8-4.98 0-6.72 1.86-6.72 3.84 0 7.14 18.36 2.52 18.36 15.3 0 7.08-5.94 9.66-12.3 9.66z"/><path id="V" d="M875.546 42.282a4.3 4.3 0 1 1 0-8.64 4.3 4.3 0 1 1 0 8.64zm0 36.72c-1.32 0-2.64-.9-2.64-2.52v-26.76c0-1.68 1.32-2.58 2.64-2.58 1.26 0 2.52.9 2.52 2.58v26.76c0 1.68-1.26 2.52-2.52 2.52z"/></defs><clipPath id="W"><use xlink:href="#B"/></clipPath><linearGradient id="X" gradientUnits="userSpaceOnUse" x1="370.49" y1="2071.972" x2="370.49" y2="234.402"><stop offset="0" stop-color="#7630ac"/><stop offset=".292" stop-color="#6e27ac"/><stop offset=".772" stop-color="#570eab"/><stop offset="1" stop-color="#4a00aa"/></linearGradient><path d="M34 234.402v1837.57h496.892l20.24-65.583 25.3-65.762-10.12-65.583 17.204-65.583 25.3-65.583 5.06-65.762 7.084-65.583-10.12-65.583 8.096-65.583 5.06-65.762 18.216-65.583-15.18-65.583 12.144-65.583 5.06-65.762 17.204-65.583-11.132-65.583-4.048-65.583-5.06-65.762 5.06-65.583 23.276-65.583-12.144-65.583 19.228-65.762-1.012-65.583 3.036-65.583 1.012-65.583-1.012-65.762 28.336-65.583-13.156-65.583z" fill="url(#X)" class="P R"/><linearGradient id="Y" gradientUnits="userSpaceOnUse" x1="757.074" y1="2071.972" x2="757.074" y2="234.402"><stop offset="0" stop-color="#605cfb"/><stop offset="1" stop-color="#20126e"/></linearGradient><path d="M693.824 234.402l13.156 65.583-28.336 65.583 1.012 65.762-1.012 65.583-3.036 65.583 1.012 65.583-19.228 65.762 12.144 65.583-23.276 65.583-5.06 65.583 5.06 65.762 4.048 65.583 11.132 65.583-17.204 65.583-5.06 65.762-12.144 65.583 15.18 65.583-18.216 65.583-5.06 65.762-8.096 65.583 10.12 65.583-7.084 65.583-5.06 65.762-25.3 65.583-17.204 65.583 10.12 65.583-25.3 65.762-20.24 65.583h119.416l19.228-65.583 38.456-65.762 2.024-65.583 30.36-65.583 22.264-65.583 11.132-65.762 25.3-65.583 36.432-65.583 12.144-65.583 11.132-65.762 5.06-65.583 27.324-65.583 26.312-131.345 18.216-65.583-1.012-65.583 8.096-65.583-3.036-65.762 17.204-65.583 7.084-65.583 5.06-65.583 3.036-65.762-6.072-65.583 2.024-65.583 7.084-65.583 2.024-65.762 6.072-65.583-9.108-65.583z" fill="url(#Y)" class="R"/><linearGradient id="Z" gradientUnits="userSpaceOnUse" x1="832.974" y1="2071.972" x2="832.974" y2="234.402"><stop offset="0" stop-color="#2ae4ff"/><stop offset=".154" stop-color="#2bc7f8"/><stop offset=".489" stop-color="#2f7ce8"/><stop offset=".977" stop-color="#3506cd"/><stop offset="1" stop-color="#3500cc"/></linearGradient><path d="M974.148 234.402l9.108 65.583-6.072 65.583-2.024 65.762-7.084 65.583-2.024 65.583 6.072 65.583-3.036 65.762-5.06 65.583-7.084 65.583-17.204 65.583 3.036 65.762-8.096 65.583 1.012 65.583-18.216 65.583-13.156 65.762-13.156 65.583-27.324 65.583-5.06 65.583-11.132 65.762-12.144 65.583-36.432 65.583-25.3 65.583-11.132 65.762-22.264 65.583-30.36 65.583-2.024 65.583-38.456 65.762-19.228 65.583h354.2V2006.4l-1.012-65.762 1.012-65.583-2.024-65.583 2.024-65.583v-65.762l-1.012-65.583 1.012-65.583 6.072-65.583-6.072-131.345 1.012-65.583 2.024-65.583 4.048-65.762 1.012-65.583 2.024-65.583-5.06-65.583-3.036-65.762 3.036-65.583 4.048-131.165 1.012-65.762-2.024-131.165 3.036-65.583V299.984l-5.06-65.583z" fill="url(#Z)" class="R"/><linearGradient id="a" gradientUnits="userSpaceOnUse" x1="1024.242" y1="2071.972" x2="1024.242" y2="234.402"><stop offset="0" stop-color="#999"/><stop offset=".262" stop-color="#aaa"/><stop offset=".72" stop-color="#c3c3c3"/><stop offset="1" stop-color="#ccc"/></linearGradient><path d="M1010.58 234.402l5.06 65.583V431.33l-3.036 65.583 2.024 131.165-1.012 65.762-4.048 131.165-3.036 65.583 3.036 65.762 5.06 65.583-2.024 65.583-1.012 65.583-4.048 65.762-2.024 65.583-1.012 65.583 6.072 131.345-6.072 65.583-1.012 65.583 1.012 65.583v65.762l-2.024 65.583 2.024 65.583-1.012 65.583 1.012 65.762v65.583H1046V234.402z" fill="url(#a)" class="P R"/></g><g class="N"><path d="M240.246 1967.808h85.66v32.446h-85.66zm319.294 0h120.606v32.446H559.54zm177.076 0H921.44v32.446H736.616zm233.78 5.322h75.996v27.125h-75.996z" opacity=".2"/><path d="M253.603 1981.33h-1.53v13.7c0 .952-.714 1.428-1.496 1.428-.714 0-1.428-.476-1.428-1.428v-13.7h-1.394c-.918 0-1.43-.68-1.43-1.43 0-.78.5-1.46 1.43-1.46h1.394v-2.312c0-2.176 1.802-3.842 3.9-3.842.986 0 1.496.68 1.496 1.462 0 .714-.5 1.43-1.496 1.43-.577 0-.985.44-.985.918v2.346h1.53c.986 0 1.496.68 1.496 1.46 0 .748-.5 1.43-1.496 1.43zm11.627 15.74c-5.474 0-8.533-4.487-8.533-9.62 0-5.1 3.06-9.587 8.533-9.587s8.533 4.487 8.533 9.587c0 5.134-3.06 9.62-8.533 9.62zm0-16.318c-3.4 0-5.6 2.65-5.6 6.697 0 4.08 2.2 6.73 5.6 6.73 3.434 0 5.6-2.652 5.6-6.73 0-4.046-2.176-6.697-5.6-6.697z"/><use xlink:href="#F"/><path d="M298.28 1997.07c-1.87 0-4.998-.578-6.596-2.55-.204-.306-.306-.612-.306-.884 0-.85.815-1.53 1.53-1.53.408 0 .714.204 1.054.578 1.055 1.156 2.788 1.496 4.318 1.496 3.06 0 4.045-1.054 4.045-2.584 0-4.352-10.37-1.666-10.37-8.67 0-3.706 3.468-5.065 6.698-5.065 1.835 0 6.153.918 6.153 2.82 0 .748-.612 1.53-1.428 1.53-.307 0-.782-.17-1.122-.442-.918-.782-2.244-1.02-3.604-1.02-2.822 0-3.808 1.054-3.808 2.176 0 4.046 10.402 1.428 10.402 8.67 0 4.012-3.365 5.474-6.97 5.474zm11.354-21.384c-1.36 0-2.447-1.088-2.447-2.448s1.088-2.447 2.447-2.447a2.44 2.44 0 1 1 0 4.895zm0 20.806c-.748 0-1.495-.5-1.495-1.428V1979.9c0-.95.747-1.46 1.495-1.46a1.39 1.39 0 0 1 1.428 1.46v15.163c0 .952-.714 1.428-1.428 1.428z"/><use xlink:href="#G"/><path d="M580.134 1996.5c-.747 0-1.428-.5-1.428-1.428v-9.45c0-2.65-2.2-4.86-4.86-4.86-2.617 0-4.827 2.2-4.827 4.86v9.417c0 .952-.714 1.496-1.496 1.496a1.39 1.39 0 0 1-1.428-1.462v-15.196c0-.986.714-1.428 1.428-1.428.68 0 1.292.373 1.462 1.12 1.326-1.054 2.992-1.7 4.86-1.7 4.216 0 7.75 3.5 7.75 7.75v9.417c0 .952-.68 1.462-1.462 1.462zm18.396.035c-.646 0-1.292-.374-1.428-1.122-1.36 1.054-3.025 1.7-4.896 1.7-4.216 0-7.75-3.502-7.75-7.752v-9.417a1.4 1.4 0 0 1 1.428-1.462c.78 0 1.496.5 1.496 1.428v9.45c0 2.652 2.2 4.862 4.827 4.862a4.91 4.91 0 0 0 4.861-4.862v-9.417c0-1.054.68-1.495 1.428-1.495.782 0 1.462.5 1.462 1.46v15.197c0 .95-.68 1.428-1.428 1.428zm18.732-2.04c-1.496 1.666-3.57 2.584-6.086 2.584-5.474 0-8.533-4.487-8.533-9.62 0-5.1 3.06-9.587 8.533-9.587 2.516 0 4.6.918 6.086 2.584.27.306.407.646.407.985 0 .748-.748 1.462-1.53 1.462-.307 0-.68-.136-1.054-.476-.952-1.055-2.2-1.666-3.9-1.666-3.4 0-5.6 2.65-5.6 6.697 0 4.08 2.2 6.73 5.6 6.73 1.7 0 2.992-.646 3.9-1.666.306-.374.714-.5 1.054-.5.78 0 1.53.68 1.53 1.496 0 .306-.136.68-.407.985z"/><use xlink:href="#G" x="304.638"/><use xlink:href="#H"/><path d="M661.698 1996.49c-1.87 0-2.72-1.326-3.025-1.937-1.36 1.495-3.33 2.516-5.983 2.516-5.54 0-8.533-4.556-8.533-9.62s3.06-9.587 8.533-9.587c2.38 0 4.284.85 5.61 2.243v-.136c0-.374.136-1.53 1.428-1.53.714 0 1.496.373 1.496 1.428v13.122c0 .442.306.612.476.612.952 0 1.462.68 1.462 1.462 0 .714-.5 1.428-1.462 1.428zm-9.01-15.74c-3.4 0-5.61 2.65-5.61 6.697 0 4.08 2.2 6.73 5.61 6.73 3.434 0 5.61-2.652 5.61-6.73 0-4.046-2.176-6.697-5.61-6.697z"/><use xlink:href="#I"/><path d="M981.1 1996.325c-4.162 0-6.488-3.412-6.488-7.315 0-3.877 2.326-7.3 6.488-7.3s6.487 3.412 6.487 7.3c0 3.903-2.326 7.315-6.487 7.315zm0-12.407c-2.585 0-4.266 2.017-4.266 5.092 0 3.103 1.68 5.118 4.266 5.118 2.6 0 4.265-2.016 4.265-5.118 0-3.075-1.654-5.092-4.265-5.092zm12.903 11.968h-.44c-2.456 0-3.386-1.292-3.386-3.412v-8.116h-.776c-.62 0-1.1-.5-1.1-1.086 0-.62.5-1.1 1.086-1.1h.775v-3.593c0-.724.543-1.086 1.1-1.086s1.086.362 1.086 1.086v3.593h1.654c.724 0 1.086.595 1.086 1.086 0 .62-.414 1.1-1.086 1.1h-1.654v8.35c0 .724.26.982.982.982h.646c.673 0 1.112.5 1.112 1.086 0 .62-.414 1.1-1.086 1.1zm13.567 0a1.04 1.04 0 0 1-1.085-1.086v-7.186a3.73 3.73 0 0 0-3.696-3.696c-2 0-3.67 1.68-3.67 3.696v7.16c0 .724-.543 1.137-1.138 1.137a1.06 1.06 0 0 1-1.085-1.111v-16.207c0-.75.542-1.1 1.085-1.1.595 0 1.138.362 1.138 1.086v4.472c.956-.904 2.25-1.318 3.67-1.318 3.205 0 5.893 2.662 5.893 5.894v7.16c0 .724-.517 1.1-1.1 1.1zm14.783-5.74h-9.563c.36 2.43 1.912 3.98 4.188 3.98 1.163 0 2.326-.413 3.075-1.344.233-.26.5-.414.802-.414.568 0 1.163.518 1.163 1.138 0 .3-.077.543-.62 1.086-1.163 1.137-2.766 1.73-4.42 1.73-4.162 0-6.488-3.437-6.488-7.315 0-3.852 2.326-7.3 6.488-7.3 4.213 0 6.462 3.438 6.462 7.3 0 .57-.414 1.138-1.086 1.138zm-5.376-6.23c-2.43 0-3.852 1.783-4.187 4.007h8.374c-.36-2.48-1.912-4.007-4.187-4.007zm13.59.001c-2 0-3.67 1.68-3.67 3.696v7.16c0 .724-.543 1.1-1.138 1.1-.542 0-1.085-.388-1.085-1.086v-11.528c0-.724.594-1.1 1.085-1.1.518 0 1 .284 1.112.88a5.98 5.98 0 0 1 3.696-1.318 1.06 1.06 0 0 1 1.137 1.111c0 .57-.388 1.086-1.137 1.086zm6.432 12.407c-1.422 0-3.8-.44-5.015-1.938-.155-.232-.232-.466-.232-.672 0-.646.62-1.163 1.163-1.163.3 0 .543.154.8.438.802.88 2.12 1.138 3.283 1.138 2.326 0 3.076-.8 3.076-1.964 0-3.3-7.884-1.267-7.884-6.592 0-2.817 2.637-3.852 5.092-3.852 1.396 0 4.68.698 4.68 2.146 0 .568-.466 1.163-1.086 1.163-.232 0-.595-.13-.853-.336-.698-.595-1.706-.775-2.74-.775-2.146 0-2.895.8-2.895 1.654 0 3.076 7.9 1.086 7.9 6.592 0 3.05-2.56 4.16-5.3 4.16z"/><use xlink:href="#I" x="77.689"/><path d="M767.227 1988.944H754.65c.476 3.195 2.516 5.235 5.507 5.235 1.53 0 3.06-.544 4.046-1.768.306-.34.646-.545 1.054-.545.748 0 1.53.68 1.53 1.496 0 .408-.103.714-.816 1.428-1.53 1.496-3.638 2.278-5.813 2.278-5.474 0-8.533-4.52-8.533-9.62 0-5.065 3.06-9.587 8.533-9.587 5.542 0 8.5 4.52 8.5 9.587 0 .748-.544 1.496-1.428 1.496zm-7.07-8.193c-3.195 0-5.065 2.346-5.507 5.27h11.015c-.477-3.264-2.516-5.27-5.508-5.27zm25.533 15.74c-.748 0-1.43-.5-1.43-1.428v-9.45c0-2.65-2.2-4.86-4.86-4.86-2.617 0-4.827 2.2-4.827 4.86v9.417c0 .952-.714 1.496-1.496 1.496a1.39 1.39 0 0 1-1.428-1.462v-15.196c0-.986.714-1.428 1.428-1.428.68 0 1.292.373 1.462 1.12a7.74 7.74 0 0 1 4.86-1.7c4.216 0 7.75 3.5 7.75 7.75v9.417c0 .952-.68 1.462-1.46 1.462z"/><use xlink:href="#H" x="164.621"/><path d="M832.845 1980.377l-5.27 14.925c-.27.747-.748 1.2-1.495 1.2-.714 0-1.122-.306-1.43-1.2l-3.978-11.22-4 11.22c-.272.815-.748 1.2-1.462 1.2-.68 0-1.156-.374-1.43-1.2l-5.235-14.925c-.067-.204-.067-.34-.067-.544 0-.85.78-1.394 1.495-1.394.544 0 1.088.27 1.326.95l3.943 11.355 4.012-11.117c.272-.782.612-1.2 1.428-1.2.748 0 1.156.373 1.43 1.2l3.978 11.117 3.978-11.355c.237-.68.78-.95 1.3-.95.782 0 1.564.577 1.564 1.428 0 .17 0 .306-.068.5zm19.178 16.113c-1.87 0-2.72-1.326-3.026-1.937-1.36 1.495-3.33 2.516-5.983 2.516-5.54 0-8.533-4.556-8.533-9.62s3.06-9.587 8.533-9.587c2.38 0 4.284.85 5.6 2.243v-.136c0-.374.137-1.53 1.428-1.53.714 0 1.496.373 1.496 1.428v13.122c0 .442.306.612.477.612.95 0 1.46.68 1.46 1.462a1.39 1.39 0 0 1-1.46 1.428zm-9-15.74c-3.4 0-5.6 2.65-5.6 6.697 0 4.08 2.2 6.73 5.6 6.73 3.434 0 5.6-2.652 5.6-6.73 0-4.046-2.176-6.697-5.6-6.697zm21.477 16.32c-3.638 0-5.575-2.006-5.6-2.04 0 .952-.714 1.428-1.496 1.428-.714 0-1.428-.476-1.428-1.428v-21.282c0-.985.714-1.462 1.428-1.462.782 0 1.496.477 1.496 1.43v6.357c1.36-1.395 3.23-2.2 5.6-2.2 5.474 0 8.533 4.487 8.533 9.587 0 5.134-3.06 9.62-8.533 9.62zm0-16.318c-3.4 0-5.6 2.65-5.6 6.697 0 4.08 2.2 6.73 5.6 6.73s5.6-2.652 5.6-6.73c0-4.046-2.2-6.697-5.6-6.697z"/><use xlink:href="#G" x="561.056"/><use xlink:href="#H" x="257.098"/><use xlink:href="#F" x="625.585"/><path d="M268.37 2029.982c-.033.367.116.533.45.5h3.05c.366-.066.517.083.45.45v2.45c.066.367-.084.533-.45.5h-3.05c-.334-.066-.483.083-.45.45v7.198c.066.434-.084.616-.45.55h-2.55c-.334.066-.483-.116-.45-.55v-7.198c.066-.367-.084-.517-.45-.45h-11.598c-.333.033-.483-.133-.45-.5v-3.15l.2-.85 10.648-22.846c.1-.267.332-.4.7-.4h3.95c.366-.032.517.134.45.5v23.346zm-12.548 0c-.2.367-.1.533.3.5h8.35c.366.033.517-.133.45-.5v-18.696c-.067-.4-.2-.433-.4-.1l-8.698 18.797zm36.323-4.848c0-.333-.15-.383-.45-.15-1.066 1.4-3.116 2.217-6.148 2.45-2.967-.066-5.3-1.1-7-3.1s-2.566-4.58-2.6-7.748c.033-3.065.917-5.665 2.65-7.8 1.767-2.132 4.183-3.25 7.25-3.35 3.1.066 5.532 1.167 7.3 3.3 1.732 2.1 2.615 4.767 2.65 8v15.646c-.034 2.967-.917 5.45-2.65 7.448-1.733 1.967-4.2 3-7.398 3.1-2.533-.033-4.683-.767-6.45-2.2-1.733-1.4-2.767-3.332-3.1-5.8-.066-.3.083-.45.45-.45h2.85c.333 0 .517.2.55.6a6.2 6.2 0 0 0 1.7 3.1c.9.834 2.25 1.268 4.05 1.3 2.032-.032 3.6-.7 4.7-2 1.1-1.333 1.65-3.033 1.65-5.1v-7.248zm0-8.648c0-2.2-.533-4.016-1.6-5.45-1.1-1.433-2.667-2.166-4.7-2.2-2 .033-3.533.767-4.6 2.2-1.067 1.467-1.617 3.316-1.65 5.55.033 2.267.566 4.083 1.6 5.45s2.55 2.066 4.55 2.1c4.23-.267 6.365-2.816 6.398-7.648v-.05.05z"/><use xlink:href="#J"/><path d="M596.94 2006.7l.6-.45h3.55c.366 0 .533.167.5.5v31.594c-.067.367.083.534.45.5h6.498c.366-.066.517.084.45.45v2.45c.033.367-.117.517-.45.45H590.84c-.367.066-.533-.083-.5-.45v-2.45c-.033-.366.133-.517.5-.45h6.75c.332.034.482-.133.45-.5V2011.7c-.033-.4-.2-.433-.5-.1-1.567 1.467-3.85 2.8-6.85 4-.267.134-.417.05-.45-.25v-2.55c0-.2.116-.35.35-.45 2.832-1.2 4.95-3.082 6.35-5.648v-.05.05zm20.023 31.404c-.033.334.116.484.45.45H632c.366-.066.517.084.45.45v2.7c.066.367-.084.533-.45.5h-18.347c-.367.033-.517-.133-.45-.5v-2.75c.166-4.5 1.466-7.915 3.898-10.248s4.85-4.433 7.25-6.3c2.433-1.833 3.75-4.232 3.95-7.2-.033-1.8-.533-3.266-1.5-4.398-.967-1.167-2.316-1.767-4.05-1.8-1.9.033-3.366.667-4.4 1.9s-1.583 2.733-1.65 4.5c.033.467-.15.667-.55.6h-2.7c-.367.067-.518-.082-.45-.45.133-2.732 1.082-5.082 2.85-7.05 1.732-1.966 4.05-2.982 6.948-3.05 2.7.034 4.916.95 6.648 2.75 1.733 1.767 2.633 4.05 2.7 6.85-.2 3.633-1.5 6.448-3.9 8.448l-7.25 6.05c-2.433 2-3.782 4.85-4.05 8.548v-.05.05z"/><use xlink:href="#J" x="335.642" y="0.123"/><path d="M808.008 2039.53c1.9-.066 3.416-.75 4.55-2.05s1.7-2.933 1.7-4.9c-.034-2.433-.7-4.332-2-5.7-1.333-1.332-3.066-2-5.2-2h-.6c-.334.033-.483-.133-.45-.5v-2.4c-.033-.367.116-.517.45-.45h.3c2.032-.033 3.666-.683 4.9-1.95 1.232-1.232 1.866-2.932 1.9-5.1-.2-3.532-1.934-5.4-5.2-5.6-1.367 0-2.55.45-3.55 1.35s-1.617 2.217-1.85 3.95c0 .467-.167.667-.5.6h-2.7c-.4.067-.55-.1-.45-.5.232-2.565 1.183-4.682 2.85-6.35 1.7-1.7 3.78-2.565 6.248-2.6 2.566.034 4.683.9 6.35 2.6s2.532 3.883 2.6 6.55c-.066 2.267-.633 4.066-1.7 5.4-1.033 1.333-2.2 2.3-3.5 2.9-.268.167-.25.35.05.55 1.332.566 2.616 1.55 3.85 2.95 1.266 1.434 1.932 3.533 2 6.3-.067 2.866-1.033 5.316-2.9 7.35-1.9 2-4.3 3.05-7.198 3.15-2.634-.034-4.866-.9-6.7-2.6-1.866-1.732-2.883-4.15-3.05-7.25-.067-.2.082-.332.45-.4h2.7c.366-.066.55.134.55.6.3 3.9 2.332 5.933 6.1 6.1v-.05.05zm17.874-5.648c.267 3.6 2.267 5.482 6 5.648 1.732 0 3.15-.566 4.25-1.7 1.066-1.133 1.616-2.716 1.65-4.75v-4.55c0-1.8-.483-3.266-1.45-4.398-1-1.166-2.4-1.767-4.2-1.8-2.167.067-3.816.634-4.95 1.7-.167.233-.383.317-.65.25h-2.45c-.367.067-.518-.082-.45-.45v-17.147c-.067-.366.083-.516.45-.45h15.597c.366-.066.517.083.45.45v2.55c.066.367-.084.533-.45.5H827.48c-.333-.066-.483.084-.45.45v9.897c0 .3.15.367.45.2 1.333-.732 2.982-1.116 4.95-1.15 2.7.033 4.866.883 6.5 2.55 1.666 1.667 2.516 3.95 2.55 6.85v4.55c-.067 3-1.018 5.383-2.85 7.148s-4.133 2.683-6.898 2.75c-2.8-.066-5.033-.95-6.7-2.65-1.7-1.7-2.616-3.898-2.75-6.6-.067-.333.082-.482.45-.45h2.6c.366-.033.55.167.55.6v-.05.05z"/><use xlink:href="#J" x="543.938"/><path d="M1023.365 2023.476c-.023.258.082.374.316.35h2.14c.258-.047.363.06.316.316v1.72c.047.258-.06.375-.316.352h-2.14c-.234-.047-.34.06-.316.315v5.057c.047.304-.06.433-.316.386h-1.8c-.234.047-.34-.082-.316-.386v-5.057c.047-.257-.06-.362-.316-.315h-8.146c-.232.023-.338-.094-.314-.352v-2.212l.14-.597 7.48-16.045c.068-.187.232-.28.5-.28h2.773c.258-.022.363.094.316.352v16.396zm-8.812 0c-.14.258-.07.374.2.35h5.863c.258.023.363-.093.316-.35v-13.132c-.047-.28-.14-.304-.28-.07l-6.1 13.202zm16.95-16.784c.45.478.682 1.092.695 1.842v1.27c-.014.75-.244 1.364-.695 1.842s-1.05.724-1.8.737c-.738-.014-1.33-.26-1.78-.737-.465-.478-.703-1.092-.717-1.842v-1.27c.014-.75.252-1.364.717-1.842.45-.478 1.043-.724 1.78-.737.75.014 1.35.26 1.8.737zm-2.764 14.328h-.9c-.164.014-.205-.055-.123-.205l8.434-14.35c.055-.163.143-.23.266-.204h.9c.15-.014.2.048.123.184l-8.453 14.35c-.055.164-.137.24-.246.226zm-.4-11.278c.055.955.504 1.44 1.352 1.453.86-.014 1.3-.498 1.35-1.453v-1.146c-.04-.955-.5-1.44-1.35-1.453-.848.014-1.297.498-1.352 1.453v1.146zm5.3 10.85c-.463-.478-.703-1.085-.715-1.822v-1.248c.012-.737.252-1.344.715-1.822.45-.464 1.045-.702 1.78-.716.75.014 1.352.252 1.8.716.45.48.684 1.085.697 1.822v1.248c-.014.737-.246 1.345-.697 1.822s-1.05.723-1.8.736c-.736-.014-1.33-.26-1.78-.736zm3.133-1.884v-1.125c-.04-.928-.492-1.4-1.352-1.413-.846.014-1.297.485-1.352 1.413v1.125c.055.942.506 1.42 1.352 1.434.86-.014 1.3-.5 1.352-1.434v-.02.02z"/></g><path d="M137.432 234.402v9.42m101.2-9.42v9.42m101.2-9.42v9.42m101.2-9.42v9.42m101.2-9.42v9.42m101.2-9.42v9.42m101.2-9.42v9.42m101.2-9.42v9.42m101.198-9.42v9.42" opacity=".5" fill="none" stroke="#fff" stroke-width="2" class="S"/><g class="N P"><use xlink:href="#K"/><use xlink:href="#L"/><use xlink:href="#M"/></g><g class="N P"><path d="M527.93 220.084c.14 1.896 1.193 2.888 3.16 2.976.912 0 1.658-.298 2.238-.896.562-.597.85-1.43.868-2.5v-2.396c0-.948-.254-1.72-.764-2.317-.526-.614-1.264-.93-2.212-.948-1.14.036-2 .334-2.606.896-.088.123-.202.167-.343.13h-1.3c-.193.036-.272-.043-.237-.237v-9.032c-.035-.193.044-.272.237-.237h8.216c.193-.035.272.044.237.237v1.343c.035.193-.044.28-.237.263h-6.425c-.176-.035-.255.044-.237.237v5.213c0 .158.08.193.237.105.7-.386 1.57-.588 2.606-.605 1.422.018 2.563.465 3.424 1.343.877.878 1.325 2.08 1.343 3.607v2.396c-.036 1.58-.536 2.835-1.5 3.766s-2.177 1.413-3.634 1.448c-1.475-.036-2.65-.5-3.53-1.396-.895-.895-1.378-2.054-1.448-3.476-.035-.175.044-.254.237-.237h1.37c.193-.018.3.088.3.316v-.026.026z"/><use xlink:href="#L" x="398.07"/><path d="M555.442 205.692c.338.358.512.82.522 1.382v.952c-.01.563-.185 1.023-.522 1.382s-.788.542-1.35.553c-.553-.01-.998-.194-1.336-.553-.348-.358-.527-.82-.537-1.382v-.952c.01-.563.19-1.023.537-1.382.338-.358.783-.542 1.336-.553.563.01 1.013.195 1.35.553zm-2.072 10.746h-.676c-.123.01-.153-.04-.092-.153l6.325-10.762c.04-.123.107-.174.2-.153h.676c.112-.01.143.036.092.138l-6.34 10.762c-.04.123-.103.18-.185.168zm-.292-8.46c.04.716.38 1.08 1.014 1.1.645-.01.982-.374 1.013-1.1v-.86c-.03-.716-.368-1.08-1.013-1.1-.635.01-.973.374-1.014 1.1v.86zm3.977 8.136c-.35-.358-.527-.813-.537-1.366v-.937c.01-.553.188-1.008.537-1.366.338-.348.782-.527 1.335-.537.563.01 1.014.19 1.352.537.338.358.512.813.52 1.366v.937c-.01.553-.184 1.008-.52 1.366s-.788.542-1.352.553c-.553-.01-.997-.194-1.335-.553zm2.35-1.412v-.845c-.03-.696-.368-1.05-1.014-1.06-.635.01-.972.363-1.013 1.06v.845c.04.706.378 1.064 1.013 1.075.645-.01.982-.37 1.014-1.075v-.016.016z"/></g><g class="N P"><use xlink:href="#K" x="870.815"/><use xlink:href="#L" x="870.276"/><use xlink:href="#L" x="883.746"/><use xlink:href="#M" x="883.745"/></g><path d="M48.424 196.472H35.992c-.42 0-.812-.392-.812-.784V177.32c0-.42.393-.784.813-.784h12.432a.77.77 0 0 1 .812.784.77.77 0 0 1-.812.784h-11.65v6.888h8.54a.77.77 0 0 1 .813.784c0 .392-.28.812-.784.812h-8.568v8.288h11.648c.532 0 .812.42.812.812a.77.77 0 0 1-.812.784zm15.008 0c-.393 0-.812-.28-.812-.784v-8.176a4.77 4.77 0 0 0-4.788-4.788c-2.632 0-4.788 2.128-4.788 4.788v8.176c0 .504-.42.784-.783.784-.393 0-.812-.28-.812-.784v-13.3c0-.504.42-.784.813-.784.363 0 .783.28.783.784v.896c1.26-1.372 2.912-2.156 4.788-2.156a6.44 6.44 0 0 1 6.385 6.384v8.176c0 .504-.42.784-.784.784zm16.015-6.636h-11.62c.252 3.192 2.324 5.516 5.376 5.516 1.513 0 3.305-.672 4.116-1.932.196-.308.42-.392.672-.392.42 0 .868.336.868.756 0 .252 0 .308-.532.924-1.288 1.512-3.164 2.24-5.124 2.24-4.508 0-7.027-3.696-7.027-7.924 0-4.2 2.52-7.896 7.027-7.896s7.028 3.724 7.028 7.896c0 .42-.392.812-.784.812zm-6.244-7.112c-3.36 0-5.124 2.576-5.376 5.516h10.78c-.252-3.192-2.324-5.516-5.404-5.516zm15.624.252c-2.632 0-4.788 2.128-4.788 4.788v7.924c0 .504-.42.784-.783.784-.393 0-.812-.28-.812-.784v-13.3c0-.504.42-.784.813-.784.363 0 .783.28.783.784v1.148c1.26-1.372 2.912-2.156 4.788-2.156a.81.81 0 0 1 .813.784c0 .392-.3.812-.812.812zm8.12 19.88c-2.38 0-5.74-.896-5.74-1.904 0-.448.363-.896.812-.896.308 0 .952.476 1.484.672.728.252 1.876.532 3.443.532 3.584 0 5.433-1.764 5.433-5.208v-1.96c-1.232 1.484-2.996 2.38-5.433 2.38-4.424 0-7.027-3.136-7.027-7.448 0-4.2 2.52-7.896 7.027-7.896 2.437 0 4.256 1.008 5.433 2.632v-1.344c0-.504.42-.784.812-.784.364 0 .784.28.784.784v13.636c0 4.452-2.66 6.804-7.028 6.804zm0-20.132c-3.304 0-5.432 2.66-5.432 6.3 0 3.612 1.988 5.852 5.432 5.852s5.433-2.24 5.433-5.852c0-3.64-2.1-6.3-5.433-6.3zm21.953 0l-7.588 17.948c-.56 1.316-1.708 1.68-2.996 1.68h-1.232c-.504 0-.784-.42-.784-.812 0-.364.28-.784.784-.784h1.232c.616 0 1.26-.028 1.512-.672l1.596-3.808-5.796-13.552c-.056-.14-.056-.252-.056-.364 0-.448.392-.756.812-.756.252 0 .56.112.7.476l5.208 12.152 5.152-12.152c.14-.364.448-.476.728-.476.42 0 .784.308.784.756 0 .112 0 .224-.056.364zm25.648 13.748c-.393 0-.784-.28-.784-.784v-9.408a3.6 3.6 0 0 0-3.557-3.556c-1.932 0-3.584 1.624-3.584 3.528v9.436c0 .504-.392.784-.783.784s-.812-.28-.812-.784v-9.408c0-1.932-1.624-3.556-3.528-3.556-1.96 0-3.584 1.624-3.584 3.528v9.436c0 .504-.42.784-.783.784-.393 0-.812-.28-.812-.784v-13.3c0-.504.42-.784.813-.784.363 0 .783.28.783.784v.168a5.09 5.09 0 0 1 3.557-1.428c1.792 0 3.388.896 4.368 2.38.924-1.428 2.52-2.38 4.34-2.38 2.912 0 5.18 2.296 5.18 5.124v9.436c0 .504-.42.784-.812.784zm4.228-17.556c-.896 0-1.597-.7-1.597-1.596s.7-1.596 1.597-1.596 1.596.7 1.596 1.596-.7 1.596-1.596 1.596zm0 17.556c-.393 0-.812-.252-.812-.784v-13.3c0-.504.393-.784.813-.784.363 0 .783.252.783.784v13.3c0 .504-.363.784-.783.784zm14.307.028c-.224 0-.42-.084-.588-.308l-4.956-6.272-4.956 6.272c-.168.224-.364.308-.588.308-.448 0-.84-.336-.84-.784 0-.196.028-.364.168-.56l5.18-6.524-4.536-5.712c-.14-.196-.195-.392-.195-.56 0-.448.42-.784.868-.784.224 0 .42.084.588.308l4.312 5.46 4.34-5.46a.62.62 0 0 1 .561-.308c.447 0 .868.336.868.784a.77.77 0 0 1-.196.504l-4.564 5.768 5.208 6.524c.168.196.225.364.225.56 0 .448-.448.784-.896.784z" class="N P"/><g opacity=".3" fill="none" stroke="#fff" stroke-width="2" class="S"><path d="M34 890.677h1"/><path d="M40.976 890.677h1001.036" class="Q"/><path d="M1045 890.677h1M34 562.54h1"/><path d="M40.976 562.54h1001.036" class="Q"/><path d="M1045 562.54h1M34 1218.814h1"/><path d="M40.976 1218.814h1001.036" class="Q"/><path d="M1045 1218.814h1M34 1875.1h1"/><path d="M40.976 1875.1h1001.036" class="Q"/><path d="M1045 1875.1h1M34 1546.952h1"/><path d="M40.976 1546.952h1001.036" class="Q"/><path d="M1045 1546.952h1"/></g><path d="M45.287 2041.972v-1.608a13.3 13.3 0 0 1 1.125-2.668l1.475-2.36 1.582-2.145 1.45-2.038c.428-.67.777-1.345 1.045-2.024a5.73 5.73 0 0 0 .402-2.118c0-1.02-.223-1.783-.67-2.293a2.12 2.12 0 0 0-1.662-.764c-.77 0-1.408.317-1.918.95s-.8 1.676-.898 3.124h-1.77c.055-1.1.2-2.002.47-2.735s.596-1.317 1.006-1.756.877-.746 1.395-.925a5.06 5.06 0 0 1 1.662-.269c1.27 0 2.307.42 3.1 1.26s1.207 2.064 1.207 3.673c0 .805-.113 1.528-.336 2.172a9.24 9.24 0 0 1-.898 1.864c-.375.6-.8 1.193-1.3 1.783l-1.54 1.943-1.623 2.347c-.545.857-1.06 1.85-1.54 2.977h7.346v1.608h-9.115zm19.627-9.68c0 1.752-.094 3.254-.28 4.505s-.475 2.28-.86 3.083-.87 1.4-1.46 1.783-1.277.577-2.064.577-1.475-.192-2.064-.577-1.078-.98-1.46-1.783-.672-1.832-.86-3.083-.28-2.753-.28-4.505.094-3.254.28-4.505.475-2.28.86-3.084.87-1.398 1.46-1.783 1.277-.576 2.064-.576 1.475.192 2.064.576 1.076.98 1.46 1.783.672 1.833.86 3.084.28 2.753.28 4.505zm-1.932 0l-.174-3.982c-.117-1.062-.3-1.917-.523-2.56s-.518-1.104-.857-1.38-.732-.415-1.18-.415a1.82 1.82 0 0 0-1.18.415c-.34.275-.627.737-.857 1.38s-.408 1.498-.523 2.56-.174 2.392-.174 3.982l.174 3.98c.115 1.064.3 1.917.523 2.56s.518 1.104.857 1.382a1.81 1.81 0 0 0 1.18.415 1.81 1.81 0 0 0 1.18-.415c.34-.277.625-.738.857-1.382s.406-1.496.523-2.56.174-2.4.174-3.98zm4.452 9.68v-1.608h2.36v-15.553l-2.412.215v-1.18c.553-.144 1.1-.335 1.607-.577a6.49 6.49 0 0 0 1.449-.925h1.287v18.02h2.252v1.608h-6.543zm18.18-4.88a6.07 6.07 0 0 1-.322 1.984c-.213.626-.527 1.17-.937 1.635a4.56 4.56 0 0 1-1.502 1.113c-.6.277-1.26.416-2 .416s-1.422-.14-2.012-.416a4.53 4.53 0 0 1-1.502-1.113c-.4-.466-.725-1-.937-1.635a6.07 6.07 0 0 1-.322-1.984c0-1.197.285-2.234.857-3.1a8.76 8.76 0 0 1 2.252-2.307c-.857-.68-1.52-1.394-1.984-2.145s-.697-1.698-.697-2.843a4.47 4.47 0 0 1 .336-1.756c.223-.527.53-.983.926-1.368a4.24 4.24 0 0 1 1.38-.897c.526-.213 1.094-.322 1.703-.322s1.174.107 1.7.322a4.26 4.26 0 0 1 1.38.897 4.2 4.2 0 0 1 .926 1.368 4.47 4.47 0 0 1 .336 1.756c0 1.145-.232 2.092-.697 2.843s-1.127 1.466-1.984 2.145c.928.662 1.68 1.43 2.252 2.307s.857 1.913.857 3.1zm-1.93.08c0-.52-.076-.992-.23-1.42a4.63 4.63 0 0 0-.617-1.18c-.258-.357-.56-.688-.898-.992a14.17 14.17 0 0 0-1.098-.885l-1.1.885a6.21 6.21 0 0 0-.898.992 4.63 4.63 0 0 0-.617 1.18 4.23 4.23 0 0 0-.23 1.42 4.78 4.78 0 0 0 .162 1.207c.107.41.275.782.5 1.112a2.77 2.77 0 0 0 .885.818c.36.214.785.32 1.287.32s.928-.107 1.287-.32a2.9 2.9 0 0 0 .885-.818 3.45 3.45 0 0 0 .508-1.112c.107-.4.162-.813.162-1.207zm-.43-10.698a3.02 3.02 0 0 0-.146-.912c-.096-.305-.246-.576-.443-.817a2.12 2.12 0 0 0-.75-.577c-.305-.143-.662-.214-1.072-.214a2.51 2.51 0 0 0-1.074.214 2.12 2.12 0 0 0-.75.577 2.5 2.5 0 0 0-.443.817 2.92 2.92 0 0 0-.146.912c0 .983.22 1.832.656 2.547a5.17 5.17 0 0 0 1.758 1.743c.732-.447 1.316-1.028 1.756-1.743s.656-1.563.656-2.547z" class="N O"/><path d="M44.168 552.54v-1.68h2.463v-16.24l-2.52.224V533.6a9.67 9.67 0 0 0 1.68-.602 6.85 6.85 0 0 0 1.512-.966h1.346v18.815H51v1.68h-6.832zm10.416-3.753c.074.504.2.9.35 1.218a2.11 2.11 0 0 0 .547.714c.207.168.42.28.643.336a2.68 2.68 0 0 0 .645.084c.896 0 1.605-.644 2.13-1.932s.8-3.342.84-6.16a6.04 6.04 0 0 1-1.414 1.092 3.4 3.4 0 0 1-1.695.448 4.23 4.23 0 0 1-1.623-.322c-.523-.214-.984-.57-1.387-1.063s-.723-1.135-.965-1.918-.365-1.755-.365-2.912c0-1.98.387-3.528 1.162-4.648a3.66 3.66 0 0 1 3.178-1.68c.877 0 1.64.145 2.283.434s1.18.784 1.6 1.484.752 1.652.967 2.855.32 2.712.32 4.522c0 2.035-.115 3.775-.35 5.222s-.568 2.632-1.008 3.557-.97 1.605-1.596 2.044-1.34.657-2.143.657c-.652 0-1.2-.093-1.666-.28s-.84-.452-1.146-.798a4.08 4.08 0 0 1-.742-1.232 7.49 7.49 0 0 1-.42-1.61l1.848-.1zm5.207-9.52c0-1.026-.064-1.9-.195-2.6s-.318-1.27-.56-1.708-.54-.756-.896-.952a2.45 2.45 0 0 0-1.203-.294c-.393 0-.752.08-1.078.238s-.602.42-.826.784-.4.845-.53 1.44-.197 1.335-.197 2.212c0 .896.07 1.64.2 2.227s.326 1.05.56 1.386.504.57.8.7.62.196.94.196c.652 0 1.227-.178 1.72-.532s.9-.756 1.246-1.204v-1.904zm6.104 9.52c.074.504.2.9.35 1.218s.342.546.547.714a1.64 1.64 0 0 0 .645.336c.223.056.438.084.643.084.896 0 1.605-.644 2.13-1.932s.803-3.342.84-6.16a5.96 5.96 0 0 1-1.414 1.092 3.4 3.4 0 0 1-1.693.448 4.24 4.24 0 0 1-1.625-.322c-.52-.214-.984-.57-1.385-1.063s-.725-1.135-.967-1.918-.363-1.755-.363-2.912c0-1.98.387-3.528 1.162-4.648a3.66 3.66 0 0 1 3.178-1.68c.877 0 1.637.145 2.28.434s1.182.784 1.6 1.484.75 1.652.965 2.855.322 2.712.322 4.522c0 2.035-.117 3.775-.35 5.222s-.57 2.632-1.008 3.557-.97 1.605-1.596 2.044-1.34.657-2.143.657c-.654 0-1.2-.093-1.666-.28a3.07 3.07 0 0 1-1.148-.798 4.07 4.07 0 0 1-.742-1.232c-.187-.476-.326-1.013-.42-1.6l1.848-.1zm5.2-9.52c0-1.026-.066-1.9-.197-2.6s-.316-1.27-.56-1.708-.543-.756-.896-.952-.756-.294-1.205-.294a2.44 2.44 0 0 0-1.076.238c-.326.158-.604.42-.826.784s-.402.845-.533 1.44-.195 1.335-.195 2.212c0 .896.07 1.64.2 2.227s.328 1.05.56 1.386.504.57.813.7a2.38 2.38 0 0 0 .938.196c.654 0 1.227-.178 1.723-.532s.9-.756 1.246-1.204v-1.904zm5.765 8.568a6.27 6.27 0 0 0 .223 1.134 4.62 4.62 0 0 0 .463 1.064c.195.327.447.593.756.798s.686.308 1.135.308c.877 0 1.6-.443 2.17-1.33s.854-2.207.854-3.962c0-.952-.074-1.745-.225-2.38s-.35-1.144-.602-1.526-.547-.652-.883-.812a2.44 2.44 0 0 0-1.062-.238c-.58 0-1.107.2-1.582.574s-.8.845-.967 1.386l-1.568-.28.672-10.248h7.113l-.168 1.68h-5.32l-.393 6.16a4.02 4.02 0 0 1 1.219-.7c.457-.168.947-.252 1.47-.252a3.54 3.54 0 0 1 1.652.406c.523.27.98.682 1.373 1.23s.703 1.237.938 2.06.35 1.782.35 2.884c0 1.157-.13 2.175-.393 3.052s-.615 1.6-1.062 2.198-.97 1.03-1.568 1.33-1.232.447-1.904.447c-.73 0-1.367-.126-1.918-.378a3.95 3.95 0 0 1-1.387-1.035 4.78 4.78 0 0 1-.867-1.54 6.82 6.82 0 0 1-.363-1.862l1.848-.168z" class="N O"/><g class="N O"><use xlink:href="#N"/><path d="M65.28 870.568c0 1.83-.098 3.397-.295 4.704s-.494 2.38-.895 3.22-.9 1.46-1.527 1.862-1.334.602-2.156.602-1.54-.2-2.156-.602-1.123-1.022-1.525-1.862-.7-1.913-.896-3.22-.293-2.874-.293-4.704.098-3.397.293-4.704.496-2.38.896-3.22.9-1.46 1.525-1.862 1.336-.602 2.156-.602 1.54.2 2.156.602 1.125 1.022 1.527 1.862.7 1.914.895 3.22.295 2.875.295 4.704zm-2.016 0l-.184-4.158c-.12-1.1-.303-2.002-.545-2.674s-.54-1.152-.896-1.44a1.89 1.89 0 0 0-1.232-.435 1.88 1.88 0 0 0-1.23.435c-.355.29-.654.77-.896 1.44s-.426 1.563-.547 2.674-.182 2.497-.182 4.158l.182 4.158c.12 1.1.303 2.002.547 2.674s.54 1.153.896 1.442.764.434 1.23.434.877-.145 1.232-.434.654-.77.896-1.442.424-1.563.545-2.674.184-2.496.184-4.158z"/><use xlink:href="#O"/><use xlink:href="#O" x="11.872"/></g><g class="N O"><path d="M44.215 1208.814v-1.61a13.3 13.3 0 0 1 1.125-2.668l1.475-2.36 1.582-2.146 1.45-2.037c.428-.67.777-1.345 1.045-2.024s.402-1.386.402-2.12c0-1.02-.223-1.782-.67-2.292s-1.002-.765-1.662-.765c-.77 0-1.408.318-1.918.952s-.81 1.676-.898 3.124h-1.77c.055-1.1.21-2.002.47-2.735s.596-1.317 1.006-1.756.877-.746 1.395-.926 1.072-.268 1.662-.268c1.27 0 2.307.42 3.11 1.26s1.207 2.065 1.207 3.674c0 .805-.113 1.528-.336 2.172a9.23 9.23 0 0 1-.898 1.863 16.18 16.18 0 0 1-1.301 1.783l-1.54 1.944-1.623 2.347c-.545.857-1.06 1.85-1.54 2.976h7.346v1.61h-9.115z"/><use xlink:href="#P"/><use xlink:href="#P" x="11.369"/><path d="M79.233 1204.3c.035.357.107.72.213 1.086s.256.706.443 1.02a2.36 2.36 0 0 0 .725.765c.295.196.656.295 1.086.295.84 0 1.53-.425 2.078-1.273s.816-2.114.816-3.795c0-.91-.07-1.67-.213-2.278s-.336-1.096-.578-1.462-.52-.625-.844-.777a2.37 2.37 0 0 0-1.02-.229c-.555 0-1.06.184-1.514.55s-.766.8-.926 1.327l-1.502-.268.645-9.814h6.81l-.162 1.61h-5.094l-.375 5.9c.338-.286.73-.5 1.166-.67a4.04 4.04 0 0 1 1.408-.241c.553 0 1.08.13 1.582.39s.938.653 1.313 1.18.676 1.185.898 1.97.336 1.708.336 2.763c0 1.108-.125 2.082-.375 2.922s-.6 1.542-1.02 2.105-.93.987-1.502 1.273a4.02 4.02 0 0 1-1.822.429c-.697 0-1.31-.12-1.838-.36a3.78 3.78 0 0 1-1.326-.992 4.56 4.56 0 0 1-.832-1.475c-.197-.563-.312-1.157-.348-1.783l1.77-.16z"/></g><g class="N O"><use xlink:href="#N" y="656.275"/><use xlink:href="#O" x="-12.43" y="656.276"/><path d="M66.79 1536.952v-1.68h2.463v-16.24l-2.52.224v-1.232a9.67 9.67 0 0 0 1.68-.602c.54-.252 1.045-.574 1.512-.966h1.346v18.815h2.352v1.68H66.79z"/><use xlink:href="#O" x="7.952" y="656.276"/></g><path d="M44.223 1865.1v-1.68a14.02 14.02 0 0 1 1.176-2.786l1.54-2.464 1.652-2.24 1.512-2.128a12.3 12.3 0 0 0 1.092-2.114 5.97 5.97 0 0 0 .42-2.212c0-1.063-.234-1.862-.7-2.394s-1.047-.8-1.736-.8c-.803 0-1.47.332-2.002.994s-.846 1.75-.937 3.262H44.4c.057-1.138.22-2.1.5-2.855s.62-1.377 1.05-1.834.914-.78 1.455-.966 1.12-.28 1.736-.28c1.326 0 2.408.44 3.248 1.316s1.26 2.156 1.26 3.836c0 .84-.117 1.596-.35 2.268s-.545 1.32-.937 1.946a17.36 17.36 0 0 1-1.357 1.862l-1.6 2.03-1.693 2.45c-.57.896-1.105 1.933-1.6 3.108h7.672v1.68h-9.52zm21.057-10.118c0 1.83-.098 3.396-.295 4.703s-.494 2.38-.895 3.22-.9 1.46-1.527 1.86-1.334.602-2.156.602-1.54-.2-2.156-.602-1.123-1.02-1.525-1.86-.7-1.914-.896-3.22-.293-2.874-.293-4.703.098-3.398.293-4.705.496-2.38.896-3.22.9-1.46 1.525-1.862 1.336-.602 2.156-.602 1.54.2 2.156.602 1.125 1.022 1.527 1.862.7 1.914.895 3.22.295 2.875.295 4.705zm-2.016 0l-.184-4.158c-.12-1.1-.303-2.002-.545-2.674s-.54-1.152-.896-1.442a1.89 1.89 0 0 0-1.232-.435 1.88 1.88 0 0 0-1.23.435c-.355.3-.654.77-.896 1.442s-.426 1.563-.547 2.674-.182 2.496-.182 4.158l.182 4.157c.12 1.1.303 2.002.547 2.675s.54 1.152.896 1.44.764.434 1.23.434.877-.145 1.232-.434.654-.77.896-1.44.424-1.564.545-2.675.184-2.496.184-4.157zM66.8 1865.1v-1.68h2.463v-16.24l-2.52.225v-1.232a9.75 9.75 0 0 0 1.68-.602 6.84 6.84 0 0 0 1.512-.967h1.346v18.816h2.352v1.68H66.8zm10.64-4.714a6.26 6.26 0 0 0 .225 1.134 4.52 4.52 0 0 0 .461 1.064 2.49 2.49 0 0 0 .758.798c.307.206.686.308 1.133.308.877 0 1.602-.443 2.17-1.33s.854-2.207.854-3.96c0-.953-.074-1.746-.223-2.38s-.35-1.143-.602-1.525-.547-.653-.883-.812a2.47 2.47 0 0 0-1.064-.238 2.46 2.46 0 0 0-1.582.574c-.477.384-.797.846-.965 1.387l-1.568-.28.672-10.248h7.1l-.168 1.68h-5.32l-.4 6.16a4.03 4.03 0 0 1 1.217-.7 4.23 4.23 0 0 1 1.471-.252 3.55 3.55 0 0 1 1.652.406c.52.27.98.682 1.37 1.232s.705 1.236.938 2.058.352 1.782.352 2.884c0 1.158-.13 2.175-.393 3.053s-.615 1.6-1.064 2.197-.97 1.03-1.568 1.33a4.18 4.18 0 0 1-1.904.447c-.727 0-1.367-.125-1.918-.377a3.95 3.95 0 0 1-1.385-1.036c-.373-.438-.664-.952-.87-1.54s-.326-1.2-.363-1.862l1.848-.168z" class="N O"/><path d="M44.168 284.853v-1.68h2.463v-16.24l-2.52.224v-1.232a9.71 9.71 0 0 0 1.68-.602 6.85 6.85 0 0 0 1.512-.966h1.346v18.816H51v1.68h-6.832zm10.416-3.753c.074.504.2.9.35 1.218a2.11 2.11 0 0 0 .547.714c.207.168.42.28.643.336a2.68 2.68 0 0 0 .645.084c.896 0 1.605-.644 2.13-1.932s.8-3.34.84-6.16c-.412.43-.883.794-1.414 1.092s-1.098.448-1.695.448a4.23 4.23 0 0 1-1.623-.322c-.523-.214-.984-.57-1.387-1.064s-.723-1.134-.965-1.918-.365-1.754-.365-2.912c0-1.98.387-3.528 1.162-4.648a3.66 3.66 0 0 1 3.178-1.68c.877 0 1.64.145 2.283.434s1.18.784 1.6 1.484.752 1.652.967 2.856.32 2.712.32 4.522c0 2.035-.115 3.776-.35 5.222s-.568 2.632-1.008 3.556-.97 1.605-1.596 2.044a3.64 3.64 0 0 1-2.143.658c-.652 0-1.2-.093-1.666-.28s-.84-.452-1.146-.798-.557-.756-.742-1.232-.328-1.013-.42-1.6l1.848-.112zm5.207-9.52c0-1.026-.064-1.9-.195-2.6s-.318-1.27-.56-1.708-.54-.756-.896-.952a2.45 2.45 0 0 0-1.203-.294c-.393 0-.752.08-1.078.238s-.602.42-.826.784-.4.845-.53 1.442-.197 1.335-.197 2.212c0 .896.07 1.638.2 2.226s.326 1.05.56 1.386.504.57.8.7.62.196.94.196c.652 0 1.227-.177 1.72-.532a5.95 5.95 0 0 0 1.246-1.204v-1.904zm6.104 9.52c.074.504.2.9.35 1.218s.342.546.547.714.42.28.645.336.438.084.643.084c.896 0 1.605-.644 2.13-1.932s.803-3.34.84-6.16c-.4.43-.88.794-1.414 1.092a3.4 3.4 0 0 1-1.693.448c-.56 0-1.102-.107-1.625-.322s-.984-.57-1.385-1.064-.725-1.134-.967-1.918-.363-1.754-.363-2.912c0-1.98.387-3.528 1.162-4.648a3.66 3.66 0 0 1 3.178-1.68c.877 0 1.637.145 2.28.434s1.182.784 1.6 1.484.75 1.652.965 2.856.322 2.712.322 4.522c0 2.035-.117 3.776-.35 5.222s-.57 2.632-1.008 3.556-.97 1.605-1.596 2.044-1.34.658-2.143.658c-.654 0-1.2-.093-1.666-.28a3.07 3.07 0 0 1-1.148-.798c-.308-.346-.555-.756-.742-1.232s-.326-1.013-.42-1.6l1.848-.112zm5.2-9.52c0-1.026-.066-1.9-.197-2.6s-.316-1.27-.56-1.708-.543-.756-.896-.952-.756-.294-1.205-.294a2.44 2.44 0 0 0-1.076.238c-.326.158-.604.42-.826.784s-.402.845-.533 1.442-.195 1.335-.195 2.212c0 .896.07 1.638.2 2.226s.328 1.05.56 1.386.504.57.813.7a2.38 2.38 0 0 0 .938.196 2.88 2.88 0 0 0 1.723-.532 5.88 5.88 0 0 0 1.246-1.204v-1.904zm13.997 3.165c0 1.83-.098 3.397-.293 4.704s-.496 2.38-.896 3.22-.9 1.46-1.525 1.862-1.336.602-2.156.602-1.54-.2-2.156-.602-1.125-1.022-1.525-1.862-.7-1.913-.896-3.22-.295-2.875-.295-4.704.1-3.397.295-4.704.494-2.38.896-3.22.9-1.46 1.525-1.862 1.334-.602 2.156-.602 1.54.2 2.156.602 1.123 1.022 1.525 1.862.7 1.914.896 3.22.293 2.875.293 4.704zm-2.016 0l-.182-4.158c-.12-1.1-.305-2.002-.547-2.674s-.54-1.152-.895-1.442a1.89 1.89 0 0 0-1.232-.434 1.89 1.89 0 0 0-1.232.434c-.355.3-.654.77-.896 1.442s-.424 1.563-.545 2.674-.182 2.497-.182 4.158l.182 4.158c.12 1.1.303 2.002.545 2.674s.54 1.153.896 1.442a1.89 1.89 0 0 0 1.232.434c.467 0 .877-.145 1.232-.434s.652-.77.895-1.442.426-1.563.547-2.674.182-2.496.182-4.158z" class="N O"/><g class="N"><path d="M151.775 80.02c-13.2 0-17.46-11.1-17.46-22.38 0-11.58 4.56-22.44 17.46-22.44 5.46 0 10.02 1.92 13.32 6.54.36.48.54 1.02.54 1.5 0 1.44-1.5 2.58-2.88 2.58-1.08 0-1.2-.48-2.16-1.56-1.92-2.34-4.5-3.9-8.82-3.9-9.24 0-12.3 7.86-12.3 17.28 0 8.22 2.22 17.28 12.3 17.28 7.32 0 11.7-5.22 12.12-13.86h-5.4c-1.74 0-2.64-1.26-2.64-2.58s.9-2.58 2.52-2.58h8.22c1.56 0 2.64 1.08 2.64 2.64-.24 11.22-4.74 21.48-17.46 21.48z"/><use xlink:href="#Q"/><use xlink:href="#R"/><path d="M261.933 79c-1.26 0-2.52-.9-2.52-2.52v-18.9c0-3.48-2.88-6.36-6.3-6.36-3.54 0-6.36 2.88-6.36 6.3v18.9c0 1.68-1.2 2.58-2.58 2.58-1.32 0-2.52-.9-2.52-2.52v-18.9c0-3.48-2.88-6.36-6.36-6.36s-6.36 2.88-6.36 6.3v18.9c0 1.68-1.26 2.58-2.64 2.58-1.26 0-2.52-.9-2.52-2.52v-26.82c0-1.74 1.32-2.58 2.64-2.58.84 0 1.68.36 2.16 1.14 1.86-1.32 4.2-2.1 6.66-2.1 3.6 0 6.84 1.62 8.94 4.26a11.24 11.24 0 0 1 8.88-4.26c6.36 0 11.52 5.1 11.52 11.4v18.9c0 1.68-1.26 2.58-2.64 2.58z"/><use xlink:href="#S"/><use xlink:href="#T"/><path d="M364.412 50.742l-16.2 36.838c-1.2 2.76-3.84 4.02-6.6 4.02h-1.92c-1.74 0-2.52-1.26-2.52-2.64 0-1.26.78-2.52 2.52-2.52h1.86c.78 0 1.62-.12 1.98-.96l3.96-8.88-11.7-25.86a2.17 2.17 0 0 1-.3-1.14c0-1.5 1.44-2.52 2.76-2.52.9 0 1.68.48 2.16 1.56l9.78 21.72 9.54-21.72c.48-1.08 1.38-1.5 2.22-1.5 1.38 0 2.76 1.02 2.76 2.46 0 .42-.06.72-.3 1.14zm8.34-2.04c-.12 1.62-1.38 2.46-2.52 2.46s-2.4-.84-2.52-2.46l-.84-9.96v-.36c0-1.86 1.62-3.18 3.36-3.18 1.8 0 3.42 1.38 3.42 3.12v.3l-.9 10.08z"/><use xlink:href="#U"/></g><g fill="#00d2ff"><path d="M444.51 79.06c-.66 0-1.44-.36-1.98-1.08l-12.48-17.46h-7.74v15.9c0 1.68-1.26 2.58-2.64 2.58-1.26 0-2.52-.9-2.52-2.52V38.862c0-1.08.72-2.58 2.52-2.58h15.54c5.28 0 12.06 4.14 12.06 12.06 0 6.3-4.74 11.58-11.04 12.12l10.5 14.46c.42.54.54 1.02.54 1.56 0 1.44-1.38 2.58-2.76 2.58zm-9.36-37.68h-12.84v14.04h12.78c3.9 0 7.02-3.18 7.02-7.08 0-4.08-3.48-6.96-6.96-6.96z"/><use xlink:href="#Q" x="278.396"/><use xlink:href="#T" x="179.277"/><use xlink:href="#Q" x="344.096"/><path d="M590.37 50.562l-9.3 26.34c-.48 1.32-1.32 2.1-2.64 2.1-1.26 0-1.98-.54-2.52-2.1l-7.02-19.8-7.08 19.8c-.48 1.44-1.32 2.1-2.58 2.1-1.2 0-2.04-.66-2.52-2.1l-9.24-26.34c-.12-.36-.12-.6-.12-.96 0-1.5 1.38-2.46 2.64-2.46.96 0 1.92.48 2.34 1.68l6.96 20.04 7.08-19.62c.48-1.38 1.08-2.1 2.52-2.1 1.32 0 2.04.66 2.52 2.1l7.02 19.62 7.02-20.04c.42-1.2 1.38-1.68 2.28-1.68 1.38 0 2.76 1.02 2.76 2.52 0 .3 0 .54-.12.9z"/><use xlink:href="#S" x="323.275"/><path d="M643.828 80.02c-6.42 0-9.84-3.54-9.9-3.6 0 1.68-1.26 2.52-2.64 2.52-1.26 0-2.52-.84-2.52-2.52V38.862c0-1.74 1.26-2.58 2.52-2.58 1.38 0 2.64.84 2.64 2.52v11.22c2.4-2.46 5.7-3.9 9.9-3.9 9.66 0 15.06 7.92 15.06 16.92 0 9.06-5.4 16.98-15.06 16.98zm0-28.8c-6 0-9.9 4.68-9.9 11.82 0 7.2 3.9 11.88 9.9 11.88s9.9-4.68 9.9-11.88c0-7.14-3.9-11.82-9.9-11.82zm25.442 27.9c-3.24 0-6-2.76-6-6.12V38.862c0-1.74 1.26-2.58 2.58-2.58s2.58.84 2.58 2.52V73c0 .72.54 1.02.84 1.02 1.68 0 2.58 1.2 2.58 2.58 0 1.32-.9 2.52-2.58 2.52z"/><use xlink:href="#Q" x="501.294"/><path d="M747.566 79h-24.96c-1.44 0-2.64-1.14-2.64-2.52V38.862c0-1.44 1.2-2.58 2.64-2.58h24.96c1.56 0 2.52 1.14 2.52 2.52 0 1.26-.9 2.58-2.52 2.58h-22.438V53.5h15.72a2.56 2.56 0 0 1 2.58 2.58c0 1.38-1.02 2.58-2.58 2.58h-15.72V73.9h22.438c1.62 0 2.52 1.26 2.52 2.58 0 1.38-.96 2.52-2.52 2.52z"/><use xlink:href="#T" x="449.333"/><use xlink:href="#Q" x="614.152"/><path d="M834.205 51.222c-4.62 0-8.52 3.9-8.52 8.58v16.62c0 1.68-1.26 2.58-2.64 2.58-1.26 0-2.52-.9-2.52-2.52v-26.76c0-1.68 1.38-2.58 2.52-2.58 1.2 0 2.34.66 2.58 2.04a13.88 13.88 0 0 1 8.58-3.06c1.74 0 2.64 1.2 2.64 2.58 0 1.32-.9 2.52-2.64 2.52zm17.4 41.458c-3.66 0-12.72-1.32-12.72-4.92 0-1.38 1.26-2.7 2.58-2.7 1.38 0 .18.18 3.36 1.38 1.44.54 3.6 1.14 6.78 1.14 6.66 0 9.9-3.18 9.9-9.48v-2.7c-2.34 2.22-5.7 3.6-9.9 3.6-9.48 0-15.06-6.72-15.06-15.96 0-9 5.4-16.92 15.06-16.92 4.2 0 7.44 1.26 9.9 3.84v-.24c0-1.68 1.38-2.58 2.58-2.58 1.26 0 2.58.9 2.58 2.58V78.1c0 9.54-5.7 14.58-15.06 14.58zm0-41.458c-6 0-9.9 4.68-9.9 11.82 0 6.84 3.6 10.86 9.9 10.86s9.9-4.02 9.9-10.86c0-7.14-3.84-11.82-9.9-11.82z"/><use xlink:href="#V"/><use xlink:href="#Q" x="710.809"/><use xlink:href="#U" x="538.432"/></g><g class="N"><path d="M293.98 140.2c-.9 0-1.8-.48-2.28-1.56l-3.18-7.8h-19.98l-3.24 7.8c-.48 1.08-1.38 1.56-2.22 1.56-1.32 0-2.7-1.02-2.7-2.52 0-.36.06-.72.24-1.02l15.42-37.498c.72-1.56 1.68-1.86 2.46-1.86.54 0 1.86.3 2.46 1.86l15.48 37.498c.12.3.18.66.18 1.02 0 1.5-1.26 2.52-2.64 2.52zm-15.48-33.6l-7.86 19.08h15.72l-7.86-19.08z"/><use xlink:href="#R" x="92.886" y="61.2"/><use xlink:href="#Q" x="141.653" y="61.2"/><path d="M378.326 121.72h-12.84v15.9c0 1.56-1.2 2.58-2.52 2.58-1.44 0-2.64-.96-2.64-2.52v-37.618c0-1.08.72-2.58 2.52-2.58h15.54c5.28 0 12.06 4.14 12.06 12.06 0 6.78-5.4 12.18-12.12 12.18zm0-19.14h-12.84v14.04h12.78a6.99 6.99 0 0 0 7.021-7.02c0-3.9-3.12-7.02-6.96-7.02zm40.5 37.68c-1.14 0-2.28-.66-2.52-1.98-2.4 1.86-5.34 3-8.64 3-7.44 0-13.68-6.18-13.68-13.68v-16.62c0-1.68 1.26-2.58 2.52-2.58 1.38 0 2.64.9 2.64 2.52v16.68c0 4.68 3.9 8.58 8.52 8.58 4.68 0 8.58-3.9 8.58-8.58v-16.62c0-1.86 1.2-2.64 2.52-2.64 1.38 0 2.58.9 2.58 2.58v26.82c0 1.68-1.2 2.52-2.52 2.52z"/><use xlink:href="#U" x="48.715" y="61.2"/><path d="M478.345 140.2c-1.32 0-2.52-.9-2.52-2.52V121c0-4.68-3.9-8.58-8.58-8.58-4.62 0-8.52 3.9-8.52 8.58v16.62c0 1.68-1.26 2.64-2.64 2.64-1.26 0-2.52-.9-2.52-2.58v-37.618c0-1.74 1.26-2.58 2.52-2.58 1.38 0 2.64.84 2.64 2.52v10.38c2.22-2.1 5.22-3.06 8.52-3.06 7.44 0 13.68 6.18 13.68 13.68v16.62c0 1.68-1.2 2.58-2.58 2.58z"/><use xlink:href="#V" x="-386.28" y="61.2"/><path d="M522.924 140.2c-1.32 0-2.52-.9-2.52-2.52V121c0-4.68-3.9-8.58-8.58-8.58-4.62 0-8.52 3.9-8.52 8.58v16.62c0 1.68-1.26 2.64-2.64 2.64-1.26 0-2.52-.9-2.52-2.58v-26.82c0-1.74 1.26-2.52 2.52-2.52 1.2 0 2.28.66 2.58 1.98 2.34-1.86 5.28-3 8.58-3 7.44 0 13.68 6.18 13.68 13.68v16.62c0 1.68-1.2 2.58-2.58 2.58zm21.84 13.68c-3.66 0-12.72-1.32-12.72-4.92 0-1.38 1.26-2.7 2.58-2.7 1.38 0 .18.18 3.36 1.38 1.44.54 3.6 1.14 6.78 1.14 6.66 0 9.9-3.18 9.9-9.48v-2.7c-2.34 2.22-5.7 3.6-9.9 3.6-9.48 0-15.06-6.72-15.06-15.96 0-9 5.4-16.92 15.06-16.92 4.2 0 7.44 1.26 9.9 3.84v-.24c0-1.68 1.38-2.58 2.58-2.58 1.26 0 2.58.9 2.58 2.58v28.38c0 9.54-5.7 14.58-15.06 14.58zm0-41.458c-6 0-9.9 4.68-9.9 11.82 0 6.84 3.6 10.86 9.9 10.86s9.9-4.02 9.9-10.86c0-7.14-3.84-11.82-9.9-11.82zm52.26 27.778h-16.14c-1.38 0-2.64-1.26-2.64-2.52v-37.618c0-1.44 1.08-2.58 2.52-2.58h14.88c6.12 0 11.22 5.04 11.22 11.1a10.8 10.8 0 0 1-3.42 7.979c3.84 2.16 6.3 6.24 6.3 10.92 0 6.96-5.76 12.72-12.72 12.72zm-1.38-37.62h-12.24v12.12h12.24c3.84 0 6.06-3.24 6.06-6.06 0-3.3-2.7-6.06-6.06-6.06zm1.38 17.22h-13.62v15.3h13.62c4.08 0 7.56-3.54 7.56-7.62 0-4.2-3.48-7.68-7.56-7.68z"/><use xlink:href="#S" x="343.309" y="61.2"/><path d="M673.223 136.66c-2.64 2.94-6.3 4.56-10.74 4.56-9.66 0-15.06-7.92-15.06-16.98 0-9 5.4-16.92 15.06-16.92 4.44 0 8.1 1.62 10.74 4.56.48.54.72 1.14.72 1.74 0 1.32-1.32 2.58-2.7 2.58-.54 0-1.2-.24-1.86-.84-1.68-1.86-3.9-2.94-6.9-2.94-6 0-9.9 4.68-9.9 11.82 0 7.2 3.9 11.88 9.9 11.88 3 0 5.28-1.14 6.9-2.94.54-.66 1.26-.9 1.86-.9 1.38 0 2.7 1.2 2.7 2.64 0 .54-.24 1.2-.72 1.74zM701 112.722l-8.94 8.94 9.3 14.58c.24.48.42.96.42 1.44 0 1.44-1.32 2.58-2.7 2.58-.72 0-1.5-.36-2.04-1.2l-8.76-13.62-5.1 5.1v7.14c0 1.62-1.38 2.52-2.52 2.52-1.32 0-2.64-.9-2.64-2.52v-37.678c0-1.68 1.26-2.52 2.52-2.52 1.38 0 2.64.84 2.64 2.52v23.28l14.16-14.16c.6-.6 1.26-.78 1.92-.78 1.32 0 2.58 1.2 2.58 2.58 0 .6-.3 1.26-.84 1.8z"/></g><g fill="#a64aff"><path d="M747.38 134.68c-2.94 4.08-7.14 6.54-13.38 6.54-12.9 0-17.46-10.68-17.46-22.38 0-11.76 4.56-22.44 17.46-22.44 6.06 0 10.5 2.4 13.32 6.54.42.54.54 1.02.54 1.5 0 1.44-1.26 2.52-2.64 2.52-.78 0-1.5-.36-2.04-1.08-1.86-2.7-4.62-4.32-9.18-4.32-8.52 0-12.3 6.3-12.3 17.28s3.78 17.28 12.3 17.28c4.56 0 7.32-1.74 9.18-4.38.54-.78 1.26-1.14 2.04-1.14 1.38 0 2.7 1.14 2.7 2.58 0 .48-.18.96-.54 1.5zm18.12 6.54c-9.66 0-15.06-7.92-15.06-16.98 0-9 5.4-16.92 15.06-16.92s15.06 7.92 15.06 16.92c0 9.06-5.4 16.98-15.06 16.98zm0-28.8c-6 0-9.9 4.68-9.9 11.82 0 7.2 3.9 11.88 9.9 11.88 6.06 0 9.9-4.68 9.9-11.88 0-7.14-3.84-11.82-9.9-11.82z"/><use xlink:href="#S" x="515.145" y="61.2"/><path d="M826.28 140.32c-3.24 0-6-2.76-6-6.12v-34.138c0-1.74 1.26-2.58 2.58-2.58s2.58.84 2.58 2.52V134.2c0 .72.54 1.02.84 1.02 1.68 0 2.58 1.2 2.58 2.58 0 1.32-.9 2.52-2.58 2.52z"/></g></svg>