<svg xmlns="http://www.w3.org/2000/svg" xmlns:xlink="http://www.w3.org/1999/xlink" viewBox="0 0 1080 1080"><linearGradient id="A" gradientUnits="userSpaceOnUse" x1="11.75" y1="11.75" x2="1068.25" y2="1068.25"><stop offset="0" stop-color="#c2e59c"/><stop offset=".161" stop-color="#aedaaf"/><stop offset=".53" stop-color="#86c5d4"/><stop offset=".822" stop-color="#6db8eb"/><stop offset="1" stop-color="#64b3f4"/></linearGradient><path d="M1080,1040c0,22-18,40-40,40H40c-22,0-40-18-40-40V40C0,18,18,0,40,0h1000c22,0,40,18,40,40V1040z" fill="url(#A)"/><g fill="#4497b4"><path d="M44.228 1046.045c-3.568 0-5.47-1.97-5.503-2.002 0 .935-.7 1.4-1.468 1.4-.7 0-1.4-.467-1.4-1.4v-20.88a1.35 1.35 0 0 1 1.401-1.434c.767 0 1.468.467 1.468 1.4v6.238c1.334-1.368 3.168-2.17 5.503-2.17 5.37 0 8.373 4.403 8.373 9.406 0 5.037-3.002 9.44-8.373 9.44zm0-16c-3.335 0-5.503 2.602-5.503 6.57 0 4.003 2.168 6.604 5.503 6.604s5.504-2.602 5.504-6.604c0-3.97-2.168-6.57-5.504-6.57zm25.555 8.037h-12.34c.467 3.136 2.468 5.137 5.403 5.137 1.5 0 3.002-.533 3.97-1.734.3-.333.634-.533 1.034-.533.734 0 1.5.667 1.5 1.468 0 .4-.1.7-.8 1.4-1.5 1.468-3.57 2.235-5.704 2.235-5.37 0-8.372-4.437-8.372-9.44 0-4.97 3.002-9.406 8.372-9.406 5.437 0 8.34 4.437 8.34 9.406 0 .734-.534 1.468-1.4 1.468zm-6.937-8.038c-3.136 0-4.97 2.3-5.403 5.17H68.25c-.467-3.202-2.468-5.17-5.403-5.17zm27.054 15.444c-1.834 0-2.668-1.3-2.97-1.9-1.334 1.468-3.27 2.47-5.87 2.47-5.437 0-8.372-4.47-8.372-9.44s3.002-9.406 8.372-9.406c2.335 0 4.203.834 5.504 2.202v-.134c0-.367.133-1.5 1.4-1.5.7 0 1.468.367 1.468 1.4v12.875c0 .434.3.6.467.6.935 0 1.435.667 1.435 1.434a1.37 1.37 0 0 1-1.435 1.401zm-8.84-15.443c-3.336 0-5.504 2.602-5.504 6.57 0 4.003 2.168 6.604 5.504 6.604 3.37 0 5.504-2.602 5.504-6.604 0-3.97-2.135-6.57-5.504-6.57z"/><use xlink:href="#F"/><path d="M117.058 1045.478h-.567c-3.17 0-4.37-1.668-4.37-4.403V1030.6h-1c-.8 0-1.435-.634-1.435-1.4 0-.8.634-1.435 1.4-1.435h1v-4.637c0-.934.7-1.4 1.435-1.4s1.4.467 1.4 1.4v4.637h2.135c.934 0 1.4.768 1.4 1.4 0 .8-.533 1.434-1.4 1.434h-2.135v10.774c0 .934.333 1.268 1.268 1.268h.833c.868 0 1.435.634 1.435 1.4 0 .8-.533 1.435-1.4 1.435zm4.604-20.415a2.402 2.402 0 1 1 0-4.803 2.402 2.402 0 1 1 0 4.803zm0 20.414c-.733 0-1.467-.5-1.467-1.4V1029.2c0-.935.733-1.435 1.467-1.435a1.37 1.37 0 0 1 1.401 1.435v14.876c0 .935-.7 1.4-1.4 1.4zm10.376-14.877h-1.5v13.442c0 .935-.7 1.4-1.468 1.4-.7 0-1.4-.467-1.4-1.4V1030.6h-1.37c-.9 0-1.4-.667-1.4-1.4 0-.768.5-1.435 1.4-1.435h1.367v-2.27c0-2.135 1.77-3.77 3.836-3.77.968 0 1.468.667 1.468 1.434 0 .7-.5 1.4-1.468 1.4-.566 0-.967.434-.967.9v2.302h1.5c.967 0 1.468.667 1.468 1.435 0 .733-.5 1.4-1.468 1.4z"/><use xlink:href="#F" x="42.068"/><path d="M156.625 1045.544c-1.802 0-3.336-1.534-3.336-3.402v-18.98c0-.967.7-1.434 1.435-1.434s1.435.467 1.435 1.4v19.013c0 .4.3.567.467.567.934 0 1.435.667 1.435 1.435 0 .733-.5 1.4-1.435 1.4zm15.37-.066v-1.264c1.886-.237 2.046-.437 2.046-3.157v-6.7c0-2.8-1.248-4.017-3.064-4.017-1.237 0-2.345.6-3.47 1.493v9.476c0 2.527.187 2.658 2.06 2.896v1.264h-8.968v-1.264c2.254-.33 2.5-.4 2.5-3v-8.2c0-2.446-.303-2.565-2.185-2.922v-1.184c2.173-.292 4.63-.807 6.653-1.533l-.052 2.95 2.6-1.745c1.16-.713 2-1.086 3.16-1.086 3.194 0 5.2 2.338 5.2 6.3v7.5c0 2.54.237 2.657 2.277 2.92v1.264h-8.74zm23.9-3.703c-2.458 3.427-5.488 4.178-7.014 4.178-5.142 0-8.124-3.936-8.124-8.594 0-2.745 1.183-5.396 2.832-7.062 1.74-1.8 3.945-2.814 6.082-2.814 3.73 0 6.396 3.126 6.37 6.347-.014.715-.08 1.277-.612 1.4-.767.184-6.17.5-10.318.647.062 4.587 2.717 6.74 5.556 6.74 1.572 0 3.104-.597 4.543-1.866l.686 1.014zm-7.07-12.7c-1.667 0-3.167 1.807-3.516 4.963l5.486-.118c.6-.026.848-.146.848-.792.04-2.022-1.037-4.053-2.818-4.053zm34.284.145c-1.943.343-2.248.624-3.105 2.765-1.33 3.462-3.102 8.53-4.934 13.94h-1.512l-4.65-11.46-4.55 11.46h-1.472l-4.685-14.192c-.687-1.985-.94-2.274-2.855-2.512v-1.25h9.397v1.25c-2.325.345-2.535.672-2.058 2.133l2.52 8.214c1.507-3.68 2.988-7.62 4.327-11.424H211c1.4 3.76 2.986 7.702 4.573 11.568.742-2.107 2.062-5.964 2.557-8.108.412-1.674-.008-2.078-2.753-2.383v-1.25h7.742v1.25z"/><path d="M232.528 1032.956c-.92-2.606-2.155-3.984-4.21-3.984-1.206 0-2.225.86-2.225 2.266 0 1.497 1.046 2.264 3.16 3.216 3.278 1.496 5.3 2.787 5.3 5.736 0 3.85-3.6 5.764-6.945 5.764-2.06 0-4.088-.737-4.92-1.16l-.662-4.892 1.252-.224c.8 2.51 2.33 4.75 4.976 4.75 1.505 0 2.438-.952 2.438-2.28 0-1.423-.76-2.333-3.092-3.467-2.67-1.295-5.107-2.64-5.107-5.775 0-3.046 2.533-5.42 6.565-5.42 1.818 0 3.242.396 4.112.567l.62 4.577-1.25.328z"/></g><g fill="#2771d9"><use xlink:href="#G"/><use xlink:href="#H"/><use xlink:href="#I"/><use xlink:href="#J"/><path d="M650.35 1044.797c-.88.98-2.1 1.52-3.58 1.52-3.22 0-5.02-2.64-5.02-5.662 0-3 1.8-5.64 5.02-5.64 1.48 0 2.7.54 3.58 1.52.12.12.16.262.16.38 0 .3-.28.6-.58.6-.14 0-.28-.06-.42-.2-.66-.74-1.58-1.16-2.74-1.16-2.36 0-3.88 1.9-3.88 4.5s1.52 4.52 3.88 4.52c1.16 0 2.08-.44 2.74-1.16.14-.14.28-.2.42-.2.3 0 .58.26.58.58 0 .14-.04.26-.16.398z"/><use xlink:href="#K"/><path d="M665.907 1039.416c-.64 0-1.16-.5-1.16-1.14s.52-1.14 1.16-1.14c.62 0 1.12.5 1.12 1.14s-.5 1.14-1.12 1.14zm0 6.563c-.64 0-1.16-.5-1.16-1.14s.52-1.14 1.16-1.14c.62 0 1.12.5 1.12 1.14s-.5 1.14-1.12 1.14zM689 1032.455l-3.52 13.104c-.08.28-.3.42-.56.42-.24 0-.48-.14-.54-.42l-3-11.084-2.98 11.084c-.06.28-.3.42-.54.42-.26 0-.48-.14-.56-.42l-3.52-13.104c-.02-.06-.02-.12-.02-.18a.58.58 0 0 1 .58-.58c.26 0 .46.14.52.44l3 11.082 2.98-11.082a.53.53 0 0 1 .54-.4c.26 0 .48.12.56.4l2.98 11.082 3-11.082c.08-.3.28-.44.52-.44a.58.58 0 0 1 .58.58c0 .06 0 .12-.02.18z"/><use xlink:href="#H" x="79.078"/><use xlink:href="#J" x="67.298"/><use xlink:href="#L"/><path d="M722.908 1045.98c-.28 0-.58-.2-.58-.56v-1c-.84 1.18-2.14 1.9-3.88 1.9-3.22 0-5.02-2.64-5.02-5.662 0-3 1.8-5.64 5.02-5.64 1.74 0 3.04.72 3.88 1.88v-4.602c0-.36.3-.56.58-.56.26 0 .56.2.56.56v13.123c0 .36-.3.56-.56.56zm-4.46-9.822c-2.36 0-3.88 1.9-3.88 4.5s1.52 4.52 3.88 4.52c2.38 0 3.88-1.92 3.88-4.52s-1.5-4.5-3.88-4.5zm22.22 9.822c-.26 0-.56-.18-.56-.56v-6.502h-7.762v6.502c0 .36-.26.56-.56.56-.28 0-.58-.18-.58-.56v-13.123c0-.38.3-.56.58-.56.3 0 .56.2.56.56v5.48h7.762v-5.48c0-.36.26-.56.56-.56.28 0 .58.18.58.56v13.123c0 .36-.28.56-.58.56z"/><use xlink:href="#K" x="91.177"/><use xlink:href="#M"/><use xlink:href="#L" x="59.379"/><use xlink:href="#N"/><path d="M787.865 1045.98c-.28 0-.58-.2-.58-.56v-5.842c0-1.9-1.52-3.42-3.42-3.42a3.42 3.42 0 0 0-3.421 3.42v5.842c0 .36-.3.56-.56.56-.28 0-.58-.2-.58-.56v-13.123c0-.36.3-.56.58-.56.26 0 .56.2.56.56v4.262c.84-.98 2.06-1.54 3.42-1.54a4.6 4.6 0 0 1 4.561 4.561v5.842c0 .36-.3.56-.56.56zm13.6.338c-4.3 0-5.82-3.56-5.82-7.46 0-3.922 1.52-7.482 5.82-7.482 4.28 0 5.82 3.56 5.82 7.482 0 3.9-1.54 7.46-5.82 7.46zm0-13.803c-3.32 0-4.682 2.6-4.682 6.342 0 3.72 1.36 6.32 4.682 6.32 3.3 0 4.68-2.6 4.68-6.32 0-3.742-1.38-6.342-4.68-6.342z"/><use xlink:href="#J" x="174.176"/><use xlink:href="#O"/><use xlink:href="#M" x="72.759"/><use xlink:href="#P"/><use xlink:href="#Q"/><path d="M864.926 1045.98h-7.86a.54.54 0 0 1-.561-.541.73.73 0 0 1 .12-.4l7.102-8.54h-6.66c-.36 0-.56-.3-.56-.58 0-.26.2-.56.56-.56h7.86c.32 0 .58.24.58.54a.55.55 0 0 1-.14.4l-7.082 8.54h6.642c.38 0 .58.3.58.58 0 .26-.2.56-.58.56z"/><use xlink:href="#M" x="111.399"/><use xlink:href="#N" x="107.019"/><use xlink:href="#Q" x="32.899"/><use xlink:href="#H" x="278.435"/><use xlink:href="#P" x="60.62"/><path d="M914.843 1047.758c-.08.06-.2.08-.3.08-.32 0-.54-.28-.54-.58 0-.56.86-.64 1-1.28-.6-.04-1.08-.54-1.08-1.14 0-.68.56-1.16 1.16-1.16.98 0 1.2 1 1.2 1.62 0 .98-.52 1.92-1.44 2.46z"/><use xlink:href="#O" x="107.64"/><use xlink:href="#L" x="226.938"/><use xlink:href="#H" x="328.955"/><path d="M957.804 1046.318c-1.74 0-3.04-.72-3.88-1.9v1c0 .36-.3.56-.56.56-.28 0-.58-.2-.58-.56v-13.123c0-.36.3-.56.58-.56.26 0 .56.2.56.56v4.602c.84-1.16 2.14-1.88 3.88-1.88 3.22 0 5.02 2.64 5.02 5.64 0 3.02-1.8 5.662-5.02 5.662zm0-10.162c-2.38 0-3.88 1.9-3.88 4.5s1.5 4.52 3.88 4.52 3.88-1.92 3.88-4.52-1.5-4.5-3.88-4.5z"/><use xlink:href="#M" x="209.158"/><use xlink:href="#L" x="268.536"/><path d="M990.983 1032.855h-.62c-.48 0-.88.4-.88.86v1.64h1.5c.38 0 .56.3.56.56 0 .28-.2.58-.56.58h-1.5v8.922c0 .36-.28.56-.56.56s-.56-.18-.56-.56v-8.922h-1.38c-.36 0-.56-.3-.56-.58 0-.26.2-.56.56-.56h1.38v-1.64c0-1.1.9-1.98 1.98-1.98h.64c.36 0 .58.28.58.58 0 .28-.2.54-.58.54z"/><use xlink:href="#Q" x="140.058"/><use xlink:href="#O" x="181.078"/><use xlink:href="#I" x="386.064"/><use xlink:href="#J" x="386.054"/><use xlink:href="#K" x="374.89"/><use xlink:href="#G" x="437.39"/></g><linearGradient id="B" gradientUnits="userSpaceOnUse" x1="186.439" y1="369.693" x2="186.439" y2="804.286"><stop offset="0" stop-color="#1b6882"/><stop offset=".369" stop-color="#1a4f65"/><stop offset=".761" stop-color="#183a4c"/><stop offset="1" stop-color="#183243"/></linearGradient><path d="M252.516 619.964h-131.67v-40.84l-48.832 44.982c-3.904 3.448-9.332 6.094-14.44 7.06-8.858 1.67-15.982-2.253-20.315-10.4-4.488-8.42-3.813-16.913 2.463-23.727l67.596-71.537c13.218-13.3 31.207-18.993 49.242-19.42 25.725-.62 51.632.794 77.248 3.43 14.432 1.478 26.883 9.788 37.064 20.69l61.256 65.352c8.566 9.232 8.402 21.63.182 30.003-8.01 8.155-20.598 8.365-29.967-.082l-43.386-40.074c-1.57-1.45-3.275-2.764-6.44-5.4v39.965zm-66.32-130.312c-33.826-.155-60.025-26.8-59.788-60.81.237-31.965 27.86-59.195 59.997-59.15 33.278.046 60.5 27.54 60.235 60.846-.274 33.27-26.856 59.268-60.444 59.113m52.29 240.21l-36.626-36.115 48.34-48.55 41.35 41.9c11.84 12.56 11.33 32.904-1.96 47.427-19.467 21.273-39.682 41.88-59.97 62.388-9.168 9.268-21.246 9.314-29.885 1.304-8.803-8.155-9.515-21.246-.41-30.65 12.28-12.68 25.415-24.54 39.162-37.703m-118.7-83.58l47.49 47.7-35.924 34.382 38.086 37.246c6.997 6.933 10.646 14.87 6.422 24.813-5.738 13.5-21.72 18.673-32.21 8.51-22.587-21.884-44.68-44.38-65.49-67.934-12.224-13.84-9.414-33.716 3.786-47.044l37.84-37.684" opacity=".9" fill="url(#B)"/><linearGradient id="C" gradientUnits="userSpaceOnUse" x1="840.854" y1="274.676" x2="840.854" y2="863.302"><stop offset="0" stop-color="#1b6882"/><stop offset=".369" stop-color="#1a4f65"/><stop offset=".761" stop-color="#183a4c"/><stop offset="1" stop-color="#183243"/></linearGradient><path d="M930.35 613.65H752.01v-55.316l-66.14 60.925c-5.288 4.67-12.64 8.253-19.56 9.563-11.997 2.26-21.647-3.052-27.516-14.073-6.08-11.404-5.165-22.907 3.336-32.137l91.555-96.892c17.903-18.014 42.268-25.724 66.695-26.305 34.843-.84 69.932 1.075 104.627 4.646 19.547 2.002 36.412 13.258 50.2 28.022l82.967 88.515c11.602 12.504 11.38 29.295.247 40.637-10.848 11.046-27.9 11.33-40.588-.11l-58.763-54.278c-2.125-1.965-4.436-3.744-8.723-7.327v54.13zm-89.825-176.5c-45.814-.2-81.3-36.313-80.978-82.362.32-43.294 37.734-80.175 81.262-80.113 45.073.062 81.942 37.3 81.584 82.41-.37 45.06-36.375 80.274-81.868 80.064m70.822 325.346l-49.607-48.916 65.472-65.756 56.008 56.75c16.037 17.014 15.346 44.566-2.656 64.237-26.367 28.813-53.747 56.724-81.225 84.5-12.417 12.553-28.776 12.615-40.477 1.767-11.923-11.046-12.887-28.776-.556-41.515 16.63-17.174 34.423-33.236 53.042-51.065m-160.77-113.2l64.323 64.62-48.656 46.568 51.584 50.448c9.477 9.4 14.42 20.14 8.698 33.607-7.772 18.3-29.42 25.292-43.627 11.528-30.592-29.64-60.517-60.1-88.7-92.012-16.556-18.743-12.75-45.666 5.128-63.718l51.25-51.04" opacity=".9" fill="url(#C)"/><linearGradient id="D" gradientUnits="userSpaceOnUse" x1="489.221" y1="284.97" x2="489.221" y2="859.008"><stop offset="0" stop-color="#1b6882"/><stop offset=".369" stop-color="#1a4f65"/><stop offset=".761" stop-color="#183a4c"/><stop offset="1" stop-color="#183243"/></linearGradient><path d="M576.5 615.544H402.58V561.6l-64.5 59.415c-5.157 4.555-12.326 8.05-19.074 9.326-11.7 2.205-21.1-2.976-26.834-13.724-5.928-11.122-5.037-22.34 3.253-31.34l89.285-94.49c17.46-17.568 41.22-25.087 65.042-25.653 33.98-.82 68.2 1.048 102.034 4.53 19.062 1.952 35.51 12.93 48.956 27.328l80.91 86.32c11.314 12.194 11.097 28.57.24 39.63-10.58 10.772-27.207 11.05-39.582-.108L585.006 569.9c-2.073-1.916-4.326-3.65-8.507-7.145v52.788zM488.9 443.42c-44.68-.205-79.285-35.413-78.97-80.32.313-42.22 36.8-78.188 79.248-78.128 43.956.06 79.91 36.377 79.562 80.37-.362 43.944-35.473 78.284-79.84 78.08m69.067 317.283L509.6 713l63.85-64.126 54.62 55.342c15.64 16.592 14.965 43.462-2.59 62.644-25.713 28.1-52.414 55.318-79.212 82.405-12.1 12.242-28.063 12.302-39.474 1.723-11.628-10.772-12.567-28.063-.542-40.486 16.218-16.75 33.57-32.413 51.728-49.8M401.182 650.306l62.73 63.018-47.45 45.414 50.306 49.197c9.242 9.157 14.062 19.64 8.483 32.774-7.58 17.845-28.69 24.665-42.546 11.242-29.834-28.906-59.018-58.62-86.502-89.73-16.146-18.28-12.435-44.534 5-62.138l49.98-49.776" opacity=".9" fill="url(#D)"/><path d="M683.495 621.172c9.24-10.986 8.885-26.3-1.84-37.86l-20.186-21.65-19.335 20.95c-8.5 9.23-9.415 20.733-3.336 32.137 5.87 11.02 15.52 16.334 27.516 14.073 5.938-1.124 12.185-3.93 17.182-7.652zm-351.37-25.612L308.88 570.7l-13.454 14.586c-8.106 8.8-9.12 19.722-3.62 30.6l10.536 9.607c2.756 2.485 5.794 4.2 8.9 5.205 2.452.262 5.04.164 7.755-.348 4.776-.904 9.75-2.933 14.084-5.648 7.416-8.346 7.313-20.2-.964-29.13z" fill="#04172e"/><g fill="#fff"><path d="M179.385 575.674h-1.548v2.808c0 .972-.828 1.512-1.548 1.512-.756 0-1.547-.54-1.547-1.512v-2.808h-8.603c-1.008 0-1.62-.612-1.62-1.44a1.46 1.46 0 0 1 .216-.792l9.935-18.898c.288-.575.828-.827 1.296-.827.828 0 1.62.647 1.62 1.476a1.39 1.39 0 0 1-.216.792l-8.7 16.63h6.084v-4.104c0-1.044.756-1.584 1.512-1.584.792 0 1.583.504 1.583 1.548v4.14h1.548c1.008 0 1.548.72 1.548 1.548 0 .792-.54 1.512-1.548 1.512zm16.525-17.998l-8.28 21.346c-.288.72-.72 1.008-1.332 1.008-.792 0-1.62-.612-1.62-1.512 0-.216.072-.396.144-.612l7.847-20.48h-9.6a1.48 1.48 0 0 1-1.512-1.548 1.52 1.52 0 0 1 1.512-1.512h11.84c.792 0 1.584.504 1.584 1.548 0 .432-.468 1.404-.576 1.764zm4.454 2.754c-1.825 0-3.315-1.657-3.315-3.692s1.5-3.672 3.315-3.672c1.804 0 3.294 1.637 3.294 3.672s-1.5 3.692-3.294 3.692zm0-5.58c-.67 0-1.5.672-1.5 1.9s.84 1.888 1.5 1.888 1.5-.67 1.5-1.888-.84-1.9-1.5-1.9zm8.75-1.027l-3.86 13.9c-.105.462-.462.672-.818.672-.482 0-.944-.336-.944-.882 0-.062 0-.167.02-.25l3.88-13.9c.126-.44.483-.65.84-.65.44 0 .923.315.923.84 0 .104-.02.188-.042.294zm2.98 14.183c-1.804 0-3.294-1.657-3.294-3.692 0-2.015 1.5-3.672 3.294-3.672 1.826 0 3.315 1.657 3.315 3.672 0 2.035-1.5 3.692-3.315 3.692zm0-5.58c-.65 0-1.5.672-1.5 1.9 0 1.237.84 1.9 1.5 1.9.67 0 1.5-.672 1.5-1.9 0-1.217-.84-1.9-1.5-1.9z"/><use xlink:href="#R"/><path d="M498.557 555.992h-11.015c-1.044 0-1.656-.612-1.656-1.368 0-.323.108-.647.324-.972l9.827-14.938c.432-.684.684-1.512.684-2.16 0-2.124-1.584-3.743-3.708-3.743-1.908 0-3.528 1.62-4.14 2.77-.288.54-.756.756-1.224.756-.828 0-1.584-.648-1.584-1.476 0-1.116 2.556-5.147 6.947-5.147 3.743 0 6.767 3.06 6.767 6.767 0 1.44-.504 2.844-1.224 3.888l-8.243 12.563h8.243c1.044 0 1.584.72 1.584 1.548 0 .756-.54 1.512-1.584 1.512z"/><use xlink:href="#S"/><use xlink:href="#R" x="354.751" y="-2.812"/><use xlink:href="#R" x="372.499" y="-2.812"/><use xlink:href="#S" x="356.516" y="-2.813"/></g><path d="M165.063 939.768v-1.92h2.816v-18.56l-2.88.256v-1.407c1.312-.32 2.592-.896 3.647-1.792h1.536v21.502h2.688v1.92h-7.808zm13.183-4.288c.32 2.304 1.6 2.688 2.496 2.688 2.048 0 3.328-2.815 3.392-9.247-.928 1-2.176 1.76-3.552 1.76-2.592 0-4.96-1.856-4.96-7.104 0-4.48 1.92-7.23 4.96-7.23 4 0 5.92 2.304 5.92 10.623 0 9.28-2.176 13.12-5.823 13.12-2.977 0-4.096-1.792-4.544-4.48l2.1-.128zm5.952-10.88c0-4.67-1.216-6.335-3.264-6.335-1.792 0-3.008 1.344-3.008 5.344 0 4.127 1.407 5.15 2.88 5.15s2.623-.96 3.392-1.984V924.6zm9.152 15.488c-3.584 0-5.695-2.815-5.695-6.144 0-2.848 1.504-4.896 3.712-6.464-2.048-1.632-3.2-3.23-3.2-5.95 0-3.04 2.304-5.184 5.184-5.184s5.184 2.144 5.184 5.184c0 2.72-1.15 4.32-3.2 5.95 2.208 1.568 3.7 3.616 3.7 6.464 0 3.328-2.1 6.144-5.695 6.144zm0-11.392c-1.855 1.376-3.392 2.848-3.392 5.344 0 1.888 1.024 4.128 3.392 4.128s3.392-2.24 3.392-4.128c0-2.496-1.535-3.968-3.392-5.344zm0-10.43c-1.983 0-2.88 1.535-2.88 3.008 0 2.336 1.152 4.063 2.88 5.12 1.73-1.056 2.88-2.783 2.88-5.12 0-1.473-.896-3.008-2.88-3.008zm12.288 21.822c-3.776 0-5.568-3.52-5.568-11.87s1.792-11.87 5.568-11.87 5.567 3.52 5.567 11.87-1.792 11.87-5.567 11.87zm0-21.822c-2.112 0-3.264 2.367-3.264 9.95s1.15 9.95 3.264 9.95 3.264-2.368 3.264-9.95-1.152-9.95-3.264-9.95z" fill="#4497b4"/><g fill="#247fc0"><path d="M465.99 939.768v-1.92c2.048-6.848 8.447-10.687 8.447-15.935 0-2.433-1.216-3.648-2.784-3.648-1.824 0-3.168 1.408-3.36 4.864h-2.112c.256-5.248 2.624-6.784 5.407-6.784 3.04 0 5.152 2.048 5.152 5.888 0 5.76-5.184 7.552-8.64 15.615h8.767v1.92h-10.88z"/><use xlink:href="#T"/><path d="M496.132 940.087c-3.776 0-5.567-3.52-5.567-11.87s1.79-11.87 5.567-11.87 5.567 3.52 5.567 11.87-1.792 11.87-5.567 11.87zm0-21.822c-2.112 0-3.264 2.368-3.264 9.95s1.152 9.95 3.264 9.95 3.264-2.367 3.264-9.95-1.152-9.95-3.264-9.95z"/><use xlink:href="#T" x="24.576"/></g><path d="M817.687 939.768v-1.92c2.048-6.848 8.447-10.687 8.447-15.936 0-2.432-1.216-3.647-2.784-3.647-1.824 0-3.168 1.407-3.36 4.864h-2.112c.256-5.248 2.624-6.784 5.407-6.784 3.04 0 5.152 2.048 5.152 5.888 0 5.76-5.184 7.55-8.64 15.615h8.767v1.92h-10.88zm17.855.32c-3.776 0-5.568-3.52-5.568-11.87s1.792-11.87 5.568-11.87 5.567 3.52 5.567 11.87-1.792 11.87-5.567 11.87zm0-21.822c-2.112 0-3.264 2.368-3.264 9.95s1.152 9.95 3.264 9.95 3.264-2.368 3.264-9.95-1.152-9.95-3.264-9.95zm8.576 21.503v-1.92h2.816v-18.56l-2.88.256v-1.408c1.312-.32 2.592-.896 3.648-1.792h1.536v21.503h2.688v1.92h-7.808zm18.815-18.815c-.32-2.305-1.6-2.688-2.496-2.688-2.048 0-3.328 2.815-3.392 9.247.928-.992 2.176-1.76 3.552-1.76 2.592 0 4.96 1.855 4.96 7.104 0 4.48-1.92 7.23-4.96 7.23-4 0-5.92-2.304-5.92-10.623 0-9.28 2.176-13.12 5.823-13.12 2.976 0 4.096 1.792 4.544 4.48l-2.112.13zm-5.952 10.88c0 4.672 1.216 6.335 3.264 6.335 1.792 0 3.008-1.344 3.008-5.343 0-4.13-1.408-5.152-2.88-5.152s-2.624.96-3.392 1.984v2.176z" fill="#2771d9"/><g fill="#fff"><path d="M119.542 80.06c-1.26 0-2.52-.9-2.52-2.58v-27.6l-11.64 21.72c-.78 1.5-1.92 1.62-2.4 1.62-.3 0-1.56-.12-2.4-1.62L89.003 50v27.48c0 1.68-1.26 2.58-2.64 2.58-1.26 0-2.52-.9-2.52-2.58v-37.5c0-1.98 1.38-2.7 2.76-2.7.9 0 1.62.42 2.16 1.5l14.22 26.46 14.28-26.46c.6-1.2 1.32-1.5 2.34-1.5 1.32 0 2.58.84 2.58 2.7v37.5c0 1.68-1.26 2.58-2.64 2.58zm22.44.96c-9.66 0-15.06-7.92-15.06-16.98 0-9 5.4-16.92 15.06-16.92s15.06 7.92 15.06 16.92c0 9.06-5.4 16.98-15.06 16.98zm0-28.8c-6 0-9.9 4.68-9.9 11.82 0 7.2 3.9 11.88 9.9 11.88 6.06 0 9.9-4.68 9.9-11.88 0-7.14-3.84-11.82-9.9-11.82z"/><use xlink:href="#U"/><use xlink:href="#V"/><use xlink:href="#W"/><use xlink:href="#X"/><use xlink:href="#Y"/><use xlink:href="#Z"/><path d="M372.978 41.062l-11.88 22.14v14.22c0 1.68-1.26 2.58-2.64 2.58-1.26 0-2.52-.84-2.52-2.52V63.2l-11.88-22.2a2.26 2.26 0 0 1-.36-1.26c0-1.44 1.38-2.58 2.7-2.58.78 0 1.62.42 2.16 1.44l9.9 18.48 10.02-18.48c.54-.96 1.38-1.32 2.16-1.32 1.38 0 2.7 1.08 2.7 2.52a2.14 2.14 0 0 1-.36 1.26z"/><use xlink:href="#Y" x="86.45"/><use xlink:href="#a"/><use xlink:href="#b"/><use xlink:href="#Z" x="139.188"/><use xlink:href="#W" x="269.508"/><path d="M529.988 80.12c-3.24 0-6-2.76-6-6.12V39.862c0-1.74 1.26-2.58 2.58-2.58s2.58.84 2.58 2.52V74c0 .72.54 1.02.84 1.02 1.68 0 2.58 1.2 2.58 2.58 0 1.32-.9 2.52-2.58 2.52z"/><use xlink:href="#c"/><use xlink:href="#U" x="408.705"/><use xlink:href="#d"/><use xlink:href="#b" x="202.015"/><use xlink:href="#Y" x="372.573"/><path d="M732.892 40.642l-12.6 37.318c-.42 1.26-1.38 2.04-2.58 2.04-1.08 0-2.04-.78-2.52-2.04l-12.66-37.318c-.12-.3-.12-.66-.12-.9 0-1.56 1.32-2.46 2.58-2.46.96 0 1.98.54 2.4 1.74l10.32 30.42 10.38-30.42c.36-1.2 1.38-1.74 2.34-1.74 1.32 0 2.7.9 2.7 2.46a1.84 1.84 0 0 1-.24.9z"/><use xlink:href="#a" x="326.432"/><use xlink:href="#e"/><use xlink:href="#e" x="29.218"/><use xlink:href="#f"/><use xlink:href="#X" x="584"/><use xlink:href="#a" x="464.79"/><use xlink:href="#V" x="719.238"/><use xlink:href="#Y" x="634.998"/><use xlink:href="#c" x="419.911"/><use xlink:href="#d" x="-442.585" y="61.2"/><path d="M215.44 154.88c-3.66 0-12.72-1.32-12.72-4.92 0-1.38 1.26-2.7 2.58-2.7 1.38 0 .18.18 3.36 1.38 1.44.54 3.6 1.14 6.78 1.14 6.66 0 9.9-3.18 9.9-9.48v-2.7c-2.34 2.22-5.7 3.6-9.9 3.6-9.48 0-15.06-6.72-15.06-15.96 0-9 5.4-16.92 15.06-16.92 4.2 0 7.44 1.26 9.9 3.84v-.24c0-1.68 1.38-2.58 2.58-2.58 1.26 0 2.58.9 2.58 2.58v28.38c0 9.54-5.7 14.58-15.06 14.58zm0-41.458c-6 0-9.9 4.68-9.9 11.82 0 6.84 3.6 10.86 9.9 10.86s9.9-4.02 9.9-10.86c0-7.14-3.84-11.82-9.9-11.82z"/><use xlink:href="#a" x="-170.37" y="61.2"/><use xlink:href="#f" x="-555.24" y="61.2"/><path d="M308.38 141.2c-1.32 0-2.52-.9-2.52-2.52V122c0-4.68-3.9-8.58-8.58-8.58-4.62 0-8.52 3.9-8.52 8.58v16.62c0 1.68-1.26 2.64-2.64 2.64-1.26 0-2.52-.9-2.52-2.58v-26.82c0-1.74 1.26-2.52 2.52-2.52 1.2 0 2.28.66 2.58 1.98 2.34-1.86 5.28-3 8.58-3 7.44 0 13.68 6.18 13.68 13.68v16.62c0 1.68-1.2 2.58-2.58 2.58z"/><use xlink:href="#U" x="154.758" y="61.2"/><use xlink:href="#V" x="154.758" y="61.2"/><path d="M394.357 103.582h-9.96v35.1c0 1.62-1.2 2.52-2.52 2.52-1.26 0-2.58-.9-2.58-2.52v-35.1h-9.84c-1.74 0-2.64-1.32-2.64-2.58 0-1.2.9-2.52 2.58-2.52h24.96c1.68 0 2.58 1.32 2.58 2.52 0 1.26-.9 2.58-2.58 2.58z"/><use xlink:href="#g"/><use xlink:href="#b" x="-10.053" y="61.2"/><use xlink:href="#Y" x="160.505" y="61.2"/><use xlink:href="#Y" x="193.264" y="61.2"/><path d="M546.983 141.2h-18.24c-1.44 0-2.64-1.14-2.64-2.52v-37.618c0-1.74 1.38-2.58 2.52-2.58 1.32 0 2.64.84 2.64 2.52v35.1h15.72c1.38 0 2.52 1.14 2.52 2.52 0 1.44-1.14 2.58-2.52 2.58z"/><use xlink:href="#Y" x="264.783" y="61.2"/><use xlink:href="#V" x="397.441" y="61.2"/><use xlink:href="#g" x="201.645"/><use xlink:href="#a" x="226.93" y="61.2"/><path d="M674.902 141.32c-3.24 0-6-2.76-6-6.12v-34.138c0-1.74 1.26-2.58 2.58-2.58s2.58.84 2.58 2.52V135.2c0 .72.54 1.02.84 1.02 1.68 0 2.58 1.2 2.58 2.58 0 1.32-.9 2.52-2.58 2.52zm32.998-.12h-12.42c-1.38 0-2.64-1.26-2.64-2.52v-37.618c0-1.38 1.26-2.58 2.64-2.58h12.42c12.36 0 16.44 10.2 16.44 21.3 0 11.16-4.08 21.42-16.44 21.42zm0-37.62H698v32.52h9.9c7.74 0 11.28-5.7 11.28-16.32 0-10.44-3.54-16.2-11.28-16.2z"/><use xlink:href="#f" x="-97.76" y="61.2"/><use xlink:href="#U" x="579.298" y="61.2"/><use xlink:href="#Y" x="479.398" y="61.2"/><use xlink:href="#a" x="392.948" y="61.2"/><use xlink:href="#U" x="673.498" y="61.2"/><use xlink:href="#Y" x="573.598" y="61.2"/><use xlink:href="#U" x="732.356" y="61.2"/></g><g opacity=".8" fill="#fff"><path d="M242.52 188h-8.435c-.57 0-1.103-.532-1.103-1.063v-24.925c0-.57.532-1.063 1.103-1.063h8.435c7.827 0 10.4 6.535 10.4 13.487 0 7.067-2.583 13.564-10.4 13.564zm0-24.924h-7.37v22.758h7.37c6.497 0 8.245-5.623 8.245-11.36 0-6.763-2.356-11.397-8.245-11.397z"/><use xlink:href="#h"/><use xlink:href="#i"/><use xlink:href="#j"/><use xlink:href="#k"/><path d="M336.037 178.996H320.27c.342 4.332 3.153 7.485 7.295 7.485 2.052 0 4.483-.912 5.585-2.622.267-.418.57-.53.912-.53.57 0 1.178.455 1.178 1.025 0 .342 0 .418-.722 1.254-1.748 2.052-4.293 3.04-6.953 3.04-6.117 0-9.536-5.015-9.536-10.752 0-5.7 3.42-10.715 9.536-10.715s9.537 5.054 9.537 10.715c0 .57-.532 1.102-1.064 1.102zm-8.473-9.65c-4.56 0-6.953 3.495-7.295 7.485h14.628c-.342-4.332-3.153-7.485-7.333-7.485zm21.964.34c-3.57 0-6.497 2.888-6.497 6.497v10.753c0 .684-.57 1.063-1.063 1.063-.532 0-1.103-.38-1.103-1.063V168.9c0-.684.57-1.063 1.103-1.063.494 0 1.063.38 1.063 1.063v1.558c1.7-1.86 3.95-2.925 6.497-2.925.684 0 1.102.57 1.102 1.063 0 .532-.418 1.102-1.102 1.102z"/><use xlink:href="#h" x="95.722"/><path d="M379.28 188h-.038c-1.254 0-3.04-.684-3.762-2.964-1.596 2.242-4.065 3.6-7.37 3.6-6.193 0-9.536-5.1-9.536-10.752 0-5.737 3.42-10.715 9.536-10.715 3.306 0 5.775 1.368 7.37 3.572v-1.862c0-.607.494-1.063 1.102-1.063.532 0 1.064.38 1.064 1.063v15.31c0 2.432 2.735.912 2.735 2.736A1.04 1.04 0 0 1 379.28 188zm-11.17-18.655c-4.483 0-7.37 3.6-7.37 8.55s2.888 8.587 7.37 8.587c4.52 0 7.37-3.647 7.37-8.587s-2.85-8.55-7.37-8.55zm16.493 22.037c-.152.113-.38.15-.57.15-.607 0-1.025-.53-1.025-1.102 0-1.063 1.634-1.216 1.9-2.432-1.14-.076-2.052-1.025-2.052-2.166 0-1.3 1.063-2.203 2.204-2.203 1.86 0 2.28 1.9 2.28 3.077 0 1.862-.988 3.647-2.735 4.674z"/><use xlink:href="#j" x="113.96"/><path d="M428.375 178.996h-15.768c.342 4.332 3.153 7.485 7.295 7.485 2.052 0 4.483-.912 5.585-2.622.267-.418.57-.53.912-.53.57 0 1.178.455 1.178 1.025 0 .342 0 .418-.722 1.254-1.748 2.052-4.293 3.04-6.953 3.04-6.117 0-9.536-5.015-9.536-10.752 0-5.7 3.42-10.715 9.536-10.715s9.537 5.054 9.537 10.715c0 .57-.532 1.102-1.064 1.102zm-8.473-9.65c-4.56 0-6.953 3.495-7.295 7.485h14.628c-.342-4.332-3.153-7.485-7.333-7.485z"/><use xlink:href="#j" x="146.64"/><path d="M463.752 188h-.038c-1.254 0-3.04-.684-3.762-2.964-1.596 2.242-4.065 3.61-7.37 3.61-6.193 0-9.536-5.09-9.536-10.752 0-5.737 3.42-10.715 9.536-10.715 3.306 0 5.775 1.368 7.37 3.572v-1.862c0-.607.494-1.063 1.102-1.063.532 0 1.064.38 1.064 1.063V184.2c0 2.432 2.735.912 2.735 2.736a1.04 1.04 0 0 1-1.102 1.063zm-11.17-18.655c-4.483 0-7.37 3.61-7.37 8.55s2.888 8.587 7.37 8.587c4.52 0 7.37-3.647 7.37-8.587s-2.85-8.55-7.37-8.55z"/><use xlink:href="#l"/><use xlink:href="#m"/><path d="M517.145 188.722c-2.28 0-6.117-.798-7.447-3-.15-.23-.15-.418-.15-.57 0-.607.53-1.14 1.102-1.14.228 0 .607.2.836.532 1.367 1.67 3.8 2.014 5.66 2.014 3.686 0 5.547-1.216 5.547-3.686 0-5.737-12.462-2.698-12.462-10.297 0-3.837 3.837-5.32 7.295-5.32 1.976 0 5.015.685 6.535 2.204.228.228.342.494.342.722 0 .57-.57 1.14-1.178 1.14-.23 0-.494-.076-.722-.304-1.178-1.14-3.306-1.596-4.978-1.596-3.344 0-5.13 1.292-5.13 3.153 0 5.32 12.462 2.508 12.462 10.297 0 4.33-3.8 5.85-7.713 5.85zm39.555-9.308l-3.8 3.838 3.534 3.533c.266.266.342.532.342.798 0 .608-.494 1.102-1.064 1.102-.266 0-.53-.076-.798-.342l-3.533-3.57-1.292 1.292c-1.558 1.558-3.57 2.583-5.965 2.583-4.445 0-8.13-3.6-8.13-8.093a8.08 8.08 0 0 1 4.065-7.066l-.722-.722c-1.558-1.56-2.394-3.23-2.394-5.357 0-3.914 3.23-7.144 7.143-7.144 4.445 0 7.333 4.218 7.333 5.054 0 .607-.57 1.063-1.14 1.063-1.102 0-2.508-3.95-6.193-3.95a5 5 0 0 0-4.978 4.978c0 1.596.532 2.583 1.7 3.762l10.563 10.562 3.8-3.837c.266-.228.53-.342.798-.342.53 0 1.063.53 1.063 1.102 0 .266-.076.494-.342.76zm-15.046-4.33c-2.052.912-3.495 3-3.495 5.433 0 3.268 2.697 5.966 5.927 5.966 1.672 0 3.04-.57 4.18-1.672l1.596-1.634-8.207-8.093zm52.74-5.854l-6.193 17.857c-.266.722-.607.912-1.102.912-.646 0-.836-.228-1.064-.912l-4.977-14.817-4.978 14.817c-.266.722-.608.912-1.102.912s-.874-.304-1.064-.912l-6.154-17.857a1.61 1.61 0 0 1-.076-.418c0-.607.607-.987 1.102-.987.38 0 .836.2.988.722l5.205 15.046 4.977-14.855c.23-.723.456-.912 1.103-.912.456 0 .836.15 1.063.912l5.054 14.855 5.13-15.046c.2-.532.57-.722.987-.722.57 0 1.18.38 1.18 1.025a1.12 1.12 0 0 1-.076.38z"/><use xlink:href="#k" x="300.083"/><use xlink:href="#n"/><use xlink:href="#n" x="21.954"/><use xlink:href="#i" x="399.185"/><use xlink:href="#h" x="428.825"/><use xlink:href="#l" x="224.996"/><use xlink:href="#o"/><path d="M761.023 185.76c-1.672 1.86-3.99 2.887-6.8 2.887-6.117 0-9.536-5.015-9.536-10.752 0-5.7 3.42-10.715 9.536-10.715 2.812 0 5.13 1.026 6.8 2.888.23.23.305.494.305.722 0 .57-.532 1.14-1.103 1.14-.266 0-.53-.114-.798-.38-1.254-1.406-3-2.204-5.205-2.204-4.483 0-7.37 3.61-7.37 8.55s2.888 8.587 7.37 8.587c2.204 0 3.95-.836 5.205-2.204.267-.266.532-.38.798-.38a1.13 1.13 0 0 1 1.103 1.102c0 .267-.076.494-.305.76z"/><use xlink:href="#n" x="146.146"/><use xlink:href="#m" x="297.916"/><use xlink:href="#o" x="94.542"/><use xlink:href="#k" x="534.275"/></g><defs ><path id="F" d="M106.614 1045.51c-.633 0-1.267-.367-1.4-1.1-1.334 1.034-2.97 1.668-4.804 1.668-4.136 0-7.604-3.436-7.604-7.605v-9.24a1.37 1.37 0 0 1 1.4-1.435c.768 0 1.468.5 1.468 1.4v9.272c0 2.602 2.168 4.77 4.736 4.77 2.603 0 4.77-2.17 4.77-4.77v-9.24c0-1.034.667-1.468 1.4-1.468.768 0 1.435.5 1.435 1.435v14.9c0 .934-.667 1.4-1.4 1.4z"/><path id="G" d="M605.71 1046.357c-1.2 0-3.22-.42-3.92-1.58-.08-.12-.08-.22-.08-.3 0-.32.28-.602.58-.602.12 0 .32.102.44.28.72.88 2 1.06 2.98 1.06 1.94 0 2.92-.64 2.92-1.94 0-3.02-6.562-1.42-6.562-5.422 0-2.02 2.02-2.8 3.84-2.8 1.04 0 2.64.36 3.44 1.16.12.12.18.26.18.38a.65.65 0 0 1-.62.6c-.12 0-.26-.04-.38-.16-.62-.6-1.74-.84-2.62-.84-1.76 0-2.7.682-2.7 1.66 0 2.8 6.562 1.32 6.562 5.422 0 2.28-2 3.08-4.06 3.08z"/><path id="H" d="M616.43 1046.318c-3.22 0-5.02-2.64-5.02-5.662 0-3 1.8-5.64 5.02-5.64s5.02 2.64 5.02 5.64c0 3.02-1.8 5.662-5.02 5.662zm0-10.162c-2.36 0-3.88 1.9-3.88 4.5s1.52 4.52 3.88 4.52c2.38 0 3.88-1.92 3.88-4.52s-1.5-4.5-3.88-4.5z"/><path id="I" d="M632.2 1045.98c-.28 0-.58-.2-.58-.56v-.64c-.84.98-2.06 1.54-3.42 1.54-2.48 0-4.56-2.08-4.56-4.56v-5.842c0-.36.3-.56.58-.56.26 0 .56.2.56.56v5.842c0 1.9 1.52 3.42 3.42 3.42s3.42-1.52 3.42-3.42v-5.842c0-.36.3-.56.58-.56.26 0 .56.2.56.56v9.502c0 .36-.3.56-.56.56z"/><path id="J" d="M640.17 1036.336a3.42 3.42 0 0 0-3.421 3.42v5.662c0 .36-.3.56-.56.56-.28 0-.58-.2-.58-.56v-9.502c0-.36.3-.56.58-.56.26 0 .56.2.56.56v.82c.9-.98 2.08-1.54 3.42-1.54.36 0 .58.3.58.56a.58.58 0 0 1-.58.58z"/><path id="K" d="M661.93 1041.236h-8.302c.18 2.28 1.66 3.94 3.84 3.94 1.08 0 2.36-.48 2.94-1.38.14-.22.3-.28.48-.28.3 0 .62.24.62.54 0 .18 0 .22-.38.658-.92 1.082-2.26 1.602-3.66 1.602-3.22 0-5.02-2.64-5.02-5.662 0-3 1.8-5.64 5.02-5.64s5.02 2.66 5.02 5.64c0 .3-.28.58-.56.58zm-4.46-5.08c-2.4 0-3.66 1.84-3.84 3.94h7.7c-.18-2.28-1.66-3.94-3.86-3.94z"/><path id="L" d="M711.486 1046.098c-1.08 0-1.98-1-1.98-2.12v-11.684c0-.36.3-.56.58-.56.26 0 .56.2.56.56v11.684c0 1.28 1.42.54 1.42 1.44 0 .34-.24.68-.58.68z"/><path id="M" d="M766.487 1045.98h-.02c-.66 0-1.6-.36-1.98-1.56-.84 1.18-2.14 1.9-3.88 1.9-3.26 0-5.02-2.682-5.02-5.662 0-3.02 1.8-5.64 5.02-5.64 1.74 0 3.04.72 3.88 1.88v-.98c0-.32.26-.56.58-.56.28 0 .56.2.56.56v8.063c0 1.28 1.44.48 1.44 1.44a.55.55 0 0 1-.58.561zm-5.88-9.822c-2.36 0-3.88 1.9-3.88 4.5s1.52 4.52 3.88 4.52c2.38 0 3.88-1.92 3.88-4.52s-1.5-4.5-3.88-4.5z"/><path id="N" d="M776.925 1045.98h-.62c-1.58 0-2.36-.78-2.36-2.342v-7.14h-1.02c-.36 0-.56-.3-.56-.58 0-.26.2-.56.56-.56h1.02v-3.06c0-.36.3-.56.58-.56s.56.2.56.56v3.06h1.84c.36 0 .56.3.56.56 0 .28-.2.58-.56.58h-1.84v7.14c0 .98.28 1.2 1.22 1.2h.62c.36 0 .56.3.56.58 0 .26-.2.56-.56.56z"/><path id="O" d="M820.945 1050.54c-1.7 0-4.102-.64-4.102-1.36 0-.32.26-.64.58-.64.22 0 .68.34 1.06.48.52.18 1.34.38 2.46.38 2.56 0 3.88-1.26 3.88-3.72v-1.4c-.88 1.06-2.14 1.7-3.88 1.7-3.16 0-5.02-2.24-5.02-5.322 0-3 1.8-5.64 5.02-5.64 1.74 0 3.04.72 3.88 1.88v-.96c0-.36.3-.56.58-.56.26 0 .56.2.56.56v9.742c0 3.182-1.9 4.86-5.02 4.86zm0-14.383c-2.36 0-3.88 1.9-3.88 4.5 0 2.582 1.42 4.182 3.88 4.182s3.88-1.6 3.88-4.182c0-2.6-1.5-4.5-3.88-4.5z"/><path id="P" d="M850.205 1045.98c-.28 0-.58-.2-.58-.56v-5.842c0-1.9-1.52-3.42-3.42-3.42a3.42 3.42 0 0 0-3.421 3.42v5.842c0 .36-.3.56-.56.56-.28 0-.58-.2-.58-.56v-9.502c0-.36.3-.56.58-.56.26 0 .56.2.56.56v.64c.9-.98 2.08-1.54 3.42-1.54a4.6 4.6 0 0 1 4.561 4.561v5.842c0 .36-.3.56-.56.56z"/><path id="Q" d="M854.004 1033.436c-.64 0-1.14-.5-1.14-1.14s.5-1.14 1.14-1.14 1.14.5 1.14 1.14-.5 1.14-1.14 1.14zm0 12.543c-.28 0-.58-.18-.58-.56v-9.502c0-.36.28-.56.58-.56.26 0 .56.18.56.56v9.502c0 .36-.26.56-.56.56z"/><path id="R" d="M476.346 556.604c-4.392 0-7.955-3.563-7.955-7.92 0-2.772 1.332-5.11 3.492-6.552-1.62-1.296-2.556-3.203-2.556-5.4a7.03 7.03 0 0 1 7.019-7.019c3.852 0 7.02 3.167 7.02 7.02 0 2.196-.936 4.104-2.556 5.4 2.088 1.44 3.456 3.78 3.456 6.516 0 4.392-3.527 7.955-7.92 7.955zm0-12.85c-2.7 0-4.896 2.268-4.896 4.896 0 2.7 2.232 4.896 4.86 4.896 2.7 0 4.896-2.232 4.896-4.86 0-2.7-2.23-4.932-4.86-4.932zm0-10.942a3.86 3.86 0 0 0-3.923 3.923c0 2.196 1.656 3.996 3.923 3.996 2.16 0 3.923-1.8 3.923-3.996 0-2.16-1.764-3.923-3.923-3.923z"/><path id="S" d="M504.848 536.43c-1.825 0-3.315-1.657-3.315-3.692s1.5-3.672 3.315-3.672c1.804 0 3.294 1.637 3.294 3.672s-1.5 3.692-3.294 3.692zm0-5.58c-.67 0-1.51.672-1.51 1.89s.84 1.888 1.51 1.888 1.51-.67 1.51-1.888-.84-1.89-1.51-1.89zm8.75-1.027l-3.86 13.89c-.105.462-.462.672-.818.672-.482 0-.944-.336-.944-.882 0-.062 0-.167.02-.25l3.88-13.91c.126-.44.483-.65.84-.65.44 0 .923.315.923.84 0 .105-.02.188-.042.294zm2.98 14.183c-1.804 0-3.294-1.657-3.294-3.692 0-2.015 1.5-3.672 3.294-3.672 1.826 0 3.315 1.657 3.315 3.672 0 2.035-1.5 3.692-3.315 3.692zm0-5.58c-.65 0-1.49.672-1.49 1.89 0 1.237.84 1.91 1.49 1.91.67 0 1.51-.672 1.51-1.91 0-1.217-.84-1.89-1.51-1.89z"/><path id="T" d="M483.844 940.087c-3.776 0-5.568-3.52-5.568-11.87s1.792-11.87 5.568-11.87 5.567 3.52 5.567 11.87-1.792 11.87-5.567 11.87zm0-21.822c-2.112 0-3.264 2.368-3.264 9.95s1.152 9.95 3.264 9.95 3.264-2.367 3.264-9.95-1.152-9.95-3.264-9.95z"/><path id="U" d="M171.802 81.02c-3.3 0-8.82-1.02-11.64-4.5-.36-.54-.54-1.08-.54-1.56 0-1.5 1.44-2.7 2.7-2.7.72 0 1.26.36 1.86 1.02 1.86 2.04 4.92 2.64 7.62 2.64 5.4 0 7.14-1.86 7.14-4.56 0-7.68-18.3-2.94-18.3-15.3 0-6.54 6.12-8.94 11.82-8.94 3.24 0 10.86 1.62 10.86 4.98 0 1.32-1.08 2.7-2.52 2.7-.54 0-1.38-.3-1.98-.78-1.62-1.38-3.96-1.8-6.36-1.8-4.98 0-6.72 1.86-6.72 3.84 0 7.14 18.36 2.52 18.36 15.3 0 7.08-5.94 9.66-12.3 9.66z"/><path id="V" d="M198.022 80h-1.02c-5.7 0-7.86-3-7.86-7.92v-18.84h-1.8c-1.44 0-2.58-1.14-2.58-2.52 0-1.44 1.14-2.58 2.52-2.58h1.8v-8.34c0-1.68 1.26-2.52 2.58-2.52s2.52.84 2.52 2.52v8.34h3.84c1.68 0 2.52 1.38 2.52 2.52 0 1.44-.96 2.58-2.52 2.58h-3.84v19.38c0 1.68.6 2.28 2.28 2.28h1.5c1.56 0 2.58 1.14 2.58 2.52 0 1.44-.96 2.58-2.52 2.58z"/><path id="W" d="M232.28 81.02c-12.9 0-17.46-10.68-17.46-22.38 0-11.76 4.56-22.44 17.46-22.44 12.84 0 17.46 10.68 17.46 22.44 0 11.7-4.62 22.38-17.46 22.38zm0-39.66c-8.52 0-12.3 6.3-12.3 17.28s3.78 17.28 12.3 17.28c8.46 0 12.3-6.3 12.3-17.28s-3.84-17.28-12.3-17.28z"/><path id="X" d="M279.62 80c-1.32 0-2.52-.9-2.52-2.52V60.8c0-4.68-3.9-8.58-8.58-8.58-4.62 0-8.52 3.9-8.52 8.58v16.62c0 1.68-1.26 2.64-2.64 2.64-1.26 0-2.52-.9-2.52-2.58v-26.82c0-1.74 1.26-2.52 2.52-2.52 1.2 0 2.28.66 2.58 1.98 2.34-1.86 5.28-3 8.58-3 7.44 0 13.68 6.18 13.68 13.68v16.62c0 1.68-1.2 2.58-2.58 2.58z"/><path id="Y" d="M313.94 66.68h-22.2c.84 5.64 4.44 9.24 9.72 9.24 2.7 0 5.4-.96 7.14-3.12.54-.6 1.14-.96 1.86-.96 1.32 0 2.7 1.2 2.7 2.64 0 .72-.18 1.26-1.44 2.52-2.7 2.64-6.42 4.02-10.26 4.02-9.66 0-15.06-7.98-15.06-16.98 0-8.94 5.4-16.92 15.06-16.92 9.78 0 15 7.98 15 16.92 0 1.32-.96 2.64-2.52 2.64zm-12.48-14.46c-5.64 0-8.94 4.14-9.72 9.3h19.44c-.84-5.76-4.44-9.3-9.72-9.3z"/><path id="Z" d="M338.9 63.02h-17.16c-1.68 0-2.58-1.2-2.58-2.52 0-1.38.9-2.58 2.58-2.58h17.16c1.62 0 2.52 1.2 2.52 2.58 0 1.32-.9 2.52-2.52 2.52z"/><path id="a" d="M436.57 80c-3.3 0-4.8-2.34-5.34-3.42-2.4 2.64-5.88 4.44-10.56 4.44-9.78 0-15.06-8.04-15.06-16.98s5.4-16.92 15.06-16.92c4.2 0 7.56 1.5 9.9 3.96v-.24c0-.66.24-2.7 2.52-2.7 1.26 0 2.64.66 2.64 2.52v23.16c0 .78.54 1.08.84 1.08 1.68 0 2.58 1.2 2.58 2.58 0 1.26-.9 2.52-2.58 2.52zm-15.9-27.78c-6 0-9.9 4.68-9.9 11.82 0 7.2 3.9 11.88 9.9 11.88 6.06 0 9.9-4.68 9.9-11.88 0-7.14-3.84-11.82-9.9-11.82z"/><path id="b" d="M456.01 52.222c-4.62 0-8.52 3.9-8.52 8.58v16.62c0 1.68-1.26 2.58-2.64 2.58-1.26 0-2.52-.9-2.52-2.52v-26.76c0-1.68 1.38-2.58 2.52-2.58 1.2 0 2.34.66 2.58 2.04 2.34-1.92 5.52-3.06 8.58-3.06 1.74 0 2.64 1.2 2.64 2.58 0 1.32-.9 2.52-2.64 2.52z"/><path id="c" d="M561.787 79.94c-1.32 0-2.58-.84-2.58-2.52 0 0-3.54 3.6-9.9 3.6-9.66 0-15.06-7.92-15.06-16.98 0-9 5.4-16.92 15.06-16.92 4.2 0 7.56 1.44 9.9 3.9v-11.16c0-1.74 1.26-2.58 2.58-2.58s2.58.84 2.58 2.52V77.42c0 1.68-1.26 2.52-2.58 2.52zm-12.48-27.72c-6 0-9.9 4.68-9.9 11.82 0 7.2 3.9 11.88 9.9 11.88 6.06 0 9.9-4.68 9.9-11.88 0-7.14-3.84-11.82-9.9-11.82z"/><path id="d" d="M639.065 80c-.9 0-1.8-.48-2.28-1.56l-3.18-7.8h-19.98l-3.24 7.8c-.48 1.08-1.38 1.56-2.22 1.56-1.32 0-2.7-1.02-2.7-2.52 0-.36.06-.72.24-1.02l15.42-37.498c.72-1.56 1.68-1.86 2.46-1.86.54 0 1.86.3 2.46 1.86l15.48 37.498c.12.3.18.66.18 1.02 0 1.5-1.26 2.52-2.64 2.52zm-15.48-33.6l-7.86 19.08h15.72l-7.86-19.08z"/><path id="e" d="M793.182 76.46c-2.64 2.94-6.3 4.56-10.74 4.56-9.66 0-15.06-7.92-15.06-16.98 0-9 5.4-16.92 15.06-16.92 4.44 0 8.1 1.62 10.74 4.56.48.54.72 1.14.72 1.74 0 1.32-1.32 2.58-2.7 2.58-.54 0-1.2-.24-1.86-.84-1.68-1.86-3.9-2.94-6.9-2.94-6 0-9.9 4.68-9.9 11.82 0 7.2 3.9 11.88 9.9 11.88 3 0 5.28-1.14 6.9-2.94.54-.66 1.26-.9 1.86-.9 1.38 0 2.7 1.2 2.7 2.64 0 .54-.24 1.2-.72 1.74z"/><path id="f" d="M829.96 43.282a4.3 4.3 0 1 1 0-8.64 4.3 4.3 0 1 1 0 8.64zm0 36.72c-1.32 0-2.64-.9-2.64-2.52v-26.76c0-1.68 1.32-2.58 2.64-2.58 1.26 0 2.52.9 2.52 2.58v26.76c0 1.68-1.26 2.52-2.52 2.52z"/><path id="g" d="M424.117 141.2c-1.32 0-2.52-.9-2.52-2.52V122c0-4.68-3.9-8.58-8.58-8.58-4.62 0-8.52 3.9-8.52 8.58v16.62c0 1.68-1.26 2.64-2.64 2.64-1.26 0-2.52-.9-2.52-2.58v-37.618c0-1.74 1.26-2.58 2.52-2.58 1.38 0 2.64.84 2.64 2.52v10.38c2.22-2.1 5.22-3.06 8.52-3.06 7.44 0 13.68 6.18 13.68 13.68v16.62c0 1.68-1.2 2.58-2.58 2.58z"/><path id="h" d="M258.025 164.178a2.14 2.14 0 1 1 0-4.332 2.14 2.14 0 0 1 0 4.332zm0 23.822c-.532 0-1.103-.342-1.103-1.063V168.89c0-.684.532-1.063 1.103-1.063.494 0 1.063.342 1.063 1.063v18.048c0 .684-.494 1.063-1.063 1.063z"/><path id="i" d="M273.262 188.646c-3.306 0-5.775-1.367-7.37-3.61v9.84c0 .684-.57 1.102-1.063 1.102-.532 0-1.103-.418-1.103-1.102V168.89c0-.684.57-1.063 1.103-1.063.494 0 1.063.38 1.063 1.063v1.862c1.596-2.204 4.065-3.572 7.37-3.572 6.117 0 9.536 5.016 9.536 10.715 0 5.737-3.42 10.752-9.536 10.752zm0-19.3c-4.52 0-7.37 3.61-7.37 8.55s2.85 8.587 7.37 8.587 7.37-3.647 7.37-8.587-2.85-8.55-7.37-8.55z"/><path id="j" d="M293.516 188h-1.178c-3 0-4.483-1.48-4.483-4.445V169.99h-1.937c-.684 0-1.063-.57-1.063-1.102 0-.494.38-1.063 1.063-1.063h1.938v-5.813c0-.684.57-1.063 1.103-1.063s1.063.38 1.063 1.063v5.813h3.495c.685 0 1.064.57 1.064 1.063 0 .532-.38 1.102-1.064 1.102h-3.495v13.564c0 1.86.532 2.28 2.317 2.28h1.178c.685 0 1.064.57 1.064 1.103 0 .493-.38 1.063-1.064 1.063z"/><path id="k" d="M313.54 188c-.53 0-1.102-.38-1.102-1.063v-11.095a6.47 6.47 0 0 0-6.497-6.497c-3.57 0-6.497 2.888-6.497 6.497v11.095c0 .684-.57 1.063-1.063 1.063-.532 0-1.103-.38-1.103-1.063v-24.925c0-.684.57-1.063 1.103-1.063.494 0 1.063.38 1.063 1.063v8.093c1.596-1.86 3.913-2.926 6.497-2.926 4.71 0 8.663 3.914 8.663 8.663v11.095c0 .684-.57 1.063-1.064 1.063z"/><path id="l" d="M483.816 188c-.53 0-1.102-.38-1.102-1.063v-11.095a6.47 6.47 0 0 0-6.497-6.497c-3.57 0-6.497 2.888-6.497 6.497v11.095c0 .684-.57 1.063-1.063 1.063-.532 0-1.103-.38-1.103-1.063V168.89c0-.684.57-1.063 1.103-1.063.494 0 1.063.38 1.063 1.063v1.216c1.7-1.86 3.95-2.926 6.497-2.926 4.71 0 8.663 3.914 8.663 8.663v11.095c0 .684-.57 1.063-1.064 1.063z"/><path id="m" d="M505.096 188c-.53 0-1.102-.38-1.102-1.063v-1.216c-1.596 1.86-3.913 2.925-6.497 2.925-4.71 0-8.663-3.95-8.663-8.662V168.89c0-.684.57-1.063 1.103-1.063.493 0 1.063.38 1.063 1.063v11.095a6.47 6.47 0 1 0 12.994 0V168.89c0-.684.57-1.063 1.102-1.063.494 0 1.064.38 1.064 1.063v18.048c0 .684-.57 1.063-1.064 1.063z"/><path id="n" d="M627.646 188.646c-6.117 0-9.536-5.015-9.536-10.752 0-5.7 3.42-10.715 9.536-10.715s9.537 5.016 9.537 10.715c0 5.737-3.42 10.752-9.537 10.752zm0-19.3c-4.483 0-7.37 3.61-7.37 8.55s2.888 8.587 7.37 8.587c4.52 0 7.37-3.647 7.37-8.587s-2.85-8.55-7.37-8.55z"/><path id="o" d="M722.835 196.664c-3.23 0-7.79-1.216-7.79-2.584 0-.608.494-1.216 1.103-1.216.418 0 1.29.646 2.014.912.987.342 2.545.722 4.673.722 4.863 0 7.37-2.394 7.37-7.067v-2.66c-1.672 2.014-4.065 3.23-7.37 3.23-6.003 0-9.536-4.256-9.536-10.106 0-5.7 3.42-10.715 9.536-10.715 3.306 0 5.775 1.368 7.37 3.572v-1.824c0-.684.57-1.063 1.102-1.063.494 0 1.064.38 1.064 1.063v18.503c0 6.04-3.6 9.233-9.537 9.233zm0-27.318c-4.483 0-7.37 3.61-7.37 8.55 0 4.9 2.698 7.94 7.37 7.94s7.37-3.04 7.37-7.94c0-4.94-2.85-8.55-7.37-8.55z"/></defs></svg>