<svg xmlns="http://www.w3.org/2000/svg" xmlns:xlink="http://www.w3.org/1999/xlink" viewBox="0 0 1080 1080"><linearGradient id="A" gradientUnits="userSpaceOnUse" x1="11.716" y1="11.716" x2="1068.284" y2="1068.284"><stop offset="0" stop-color="#134e5e"/><stop offset=".199" stop-color="#2b6867"/><stop offset=".551" stop-color="#519074"/><stop offset=".83" stop-color="#68a97d"/><stop offset="1" stop-color="#71b280"/></linearGradient><path d="M1040 1080H40c-22.09 0-40-17.91-40-40V40C0 17.91 17.91 0 40 0h1000c22.09 0 40 17.91 40 40v1000c0 22.09-17.91 40-40 40z" fill="url(#A)"/><linearGradient id="B" gradientUnits="userSpaceOnUse" x1="65.928" y1="746.68" x2="688.323" y2="124.285"><stop offset="0" stop-color="#e65c00"/><stop offset=".3" stop-color="#ed8a0d"/><stop offset=".608" stop-color="#f4b219"/><stop offset=".852" stop-color="#f8cb20"/><stop offset="1" stop-color="#f9d423"/></linearGradient><path d="M730.646 166.608h-696.8v548h661.8c19.33 0 35-15.67 35-35v-513z" fill="url(#B)"/><path d="M1044.936 168.317H35.056v819.59h974.88c19.33 0 35-15.67 35-35v-784.59z" opacity=".4" fill="none" stroke="#fff" stroke-width="2" stroke-miterlimit="10"/><g fill="#fff"><path d="M735.108 925.525c-.462 0-1.01-.252-1.387-.757l-8.737-12.224h-5.42v11.132c0 1.177-.882 1.807-1.85 1.807-.882 0-1.764-.63-1.764-1.765v-26.34c0-.756.504-1.806 1.764-1.806h10.88c3.697 0 8.444 2.898 8.444 8.443 0 4.4-3.32 8.107-7.73 8.485l7.35 10.124c.294.378.38.714.38 1.092 0 1.008-.967 1.807-1.933 1.807zm-6.554-26.38h-8.99v9.83h8.947c2.73 0 4.915-2.227 4.915-4.957 0-2.856-2.437-4.873-4.873-4.873z"/><use xlink:href="#D"/><path d="M771.98 926.197c-2.3 0-6.176-.714-8.15-3.15-.252-.378-.378-.756-.378-1.093 0-1.05 1.008-1.9 1.9-1.9.504 0 .883.252 1.303.714 1.302 1.43 3.444 1.85 5.335 1.85 3.78 0 5-1.303 5-3.193 0-5.377-12.812-2.058-12.812-10.7 0-4.58 4.284-6.26 8.275-6.26 2.27 0 7.604 1.135 7.604 3.486 0 .925-.757 1.9-1.765 1.9-.378 0-.966-.2-1.386-.546-1.135-.966-2.772-1.26-4.453-1.26-3.486 0-4.705 1.302-4.705 2.688 0 4.998 12.854 1.764 12.854 10.7 0 4.957-4.16 6.764-8.6 6.764zm19.195-.714h-.714c-4 0-5.503-2.1-5.503-5.545v-13.2h-1.26c-1 0-1.807-.8-1.807-1.765 0-1.008.798-1.807 1.765-1.807h1.26v-5.84c0-1.176.882-1.764 1.807-1.764s1.764.588 1.764 1.764v5.84h2.688c1.177 0 1.765.967 1.765 1.765 0 1.008-.672 1.807-1.765 1.807h-2.688v13.568c0 1.176.42 1.596 1.597 1.596h1.05a1.73 1.73 0 0 1 1.807 1.765c0 1.008-.672 1.807-1.765 1.807zm23.73.714c-6.763 0-10.544-5.545-10.544-11.888 0-6.302 3.78-11.847 10.544-11.847s10.544 5.545 10.544 11.847c0 6.343-3.78 11.888-10.544 11.888zm0-20.163c-4.2 0-6.93 3.276-6.93 8.275 0 5.04 2.73 8.317 6.93 8.317 4.243 0 6.932-3.277 6.932-8.317 0-5-2.688-8.275-6.932-8.275zm21.546.714h-1.9v16.93c0 1.177-.883 1.765-1.85 1.765-.883 0-1.765-.588-1.765-1.765v-16.93h-1.722c-1.135 0-1.765-.84-1.765-1.765 0-.966.63-1.807 1.765-1.807h1.722v-2.856c0-2.688 2.227-4.746 4.83-4.746 1.218 0 1.85.84 1.85 1.806 0 .883-.63 1.765-1.85 1.765-.714 0-1.218.546-1.218 1.134v2.898h1.9c1.22 0 1.85.84 1.85 1.807 0 .924-.63 1.765-1.85 1.765zm21.335 18.735h-.714c-4 0-5.504-2.1-5.504-5.545v-13.2h-1.26c-1.008 0-1.807-.8-1.807-1.765 0-1.008.8-1.807 1.765-1.807h1.26v-5.84c0-1.176.883-1.764 1.807-1.764s1.765.588 1.765 1.764v5.84h2.688c1.176 0 1.764.967 1.764 1.765 0 1.008-.672 1.807-1.764 1.807h-2.688v13.568c0 1.176.42 1.596 1.596 1.596h1.05a1.73 1.73 0 0 1 1.806 1.765c0 1.008-.672 1.807-1.764 1.807zm22.05 0c-.924 0-1.765-.63-1.765-1.765V912.04c0-3.276-2.73-6.007-6.007-6.007-3.234 0-5.965 2.73-5.965 6.007v11.636c0 1.177-.882 1.85-1.85 1.85-.882 0-1.764-.63-1.764-1.807v-26.34c0-1.218.882-1.806 1.764-1.806.967 0 1.85.588 1.85 1.764v7.268c1.555-1.47 3.654-2.143 5.965-2.143 5.2 0 9.578 4.327 9.578 9.578v11.636c0 1.177-.84 1.807-1.807 1.807z"/><use xlink:href="#D" x="145.2"/><path d="M949.85 897.8l-6.932 26.213c-.2 1-.756 1.47-1.722 1.47-.883 0-1.513-.462-1.807-1.47l-5.67-20.12-5.63 20.12c-.294 1-.883 1.47-1.765 1.47-.924 0-1.512-.462-1.764-1.47l-6.932-26.213a2.48 2.48 0 0 1-.084-.588c0-1.05.966-1.638 1.9-1.638.714 0 1.428.42 1.68 1.302l5.293 20.038 5.545-19.87c.294-1.008.883-1.47 1.765-1.47.924 0 1.512.462 1.807 1.47l5.545 19.87 5.293-20.038c.252-.924 1.092-1.386 1.722-1.386.925 0 1.85.672 1.85 1.722 0 .2-.042.42-.084.588zm12.724 28.397c-6.764 0-10.544-5.545-10.544-11.888 0-6.302 3.78-11.847 10.544-11.847s10.544 5.545 10.544 11.847c0 6.343-3.78 11.888-10.544 11.888zm0-20.163c-4.2 0-6.932 3.276-6.932 8.275 0 5.04 2.73 8.317 6.932 8.317 4.242 0 6.93-3.277 6.93-8.317 0-5-2.688-8.275-6.93-8.275zm24.276 0c-3.234 0-5.965 2.73-5.965 6.007v11.636c0 1.177-.883 1.807-1.85 1.807-.883 0-1.765-.63-1.765-1.765v-18.735c0-1.176.967-1.807 1.765-1.807.84 0 1.638.463 1.806 1.43a9.72 9.72 0 0 1 6.008-2.143c1.218 0 1.848.84 1.848 1.807 0 .924-.63 1.765-1.848 1.765zm9.9 19.533c-2.27 0-4.2-1.933-4.2-4.285V897.38c0-1.218.882-1.806 1.807-1.806s1.806.588 1.806 1.764v23.944c0 .504.38.714.6.714 1.176 0 1.806.84 1.806 1.807 0 .924-.63 1.765-1.806 1.765zm23.102-.127c-.924 0-1.807-.588-1.807-1.765 0 0-2.48 2.52-6.93 2.52-6.764 0-10.544-5.545-10.544-11.888 0-6.302 3.78-11.847 10.544-11.847 2.94 0 5.293 1 6.93 2.73v-7.813c0-1.218.883-1.806 1.807-1.806s1.807.588 1.807 1.764v26.34c0 1.177-.883 1.765-1.807 1.765zm-8.737-19.407c-4.2 0-6.932 3.276-6.932 8.275 0 5.04 2.73 8.317 6.932 8.317 4.242 0 6.93-3.277 6.93-8.317 0-5-2.688-8.275-6.93-8.275z"/><path d="M899.216 957.228h-2.08v3.36c0 .576-.48.896-.928.896-.416 0-.896-.32-.896-.896v-3.36h-8.607c-.64 0-.96-.353-.96-.8 0-.16.032-.384.16-.576l9.023-17.215a.93.93 0 0 1 .83-.512c.448 0 .93.384.93.896 0 .128-.032.288-.128.48l-8.32 15.902h7.072v-4.127c0-.64.48-.96.896-.96.448 0 .928.32.928.928v4.16h2.08c.576 0 .896.448.896.896s-.32.928-.896.928zm14.752-17.31l-8.096 21c-.2.416-.48.608-.8.608-.448 0-.96-.385-.96-.93 0-.128.032-.224.064-.352l7.583-19.743h-10.08c-.48 0-.928-.415-.928-.896s.447-.896.928-.896h11.423c.576 0 .96.32.96.8a.98.98 0 0 1-.096.416zm8.832 22.1c-6.783 0-6.848-8.128-6.848-12.8 0-4.576.704-11.104 6.815-11.104 5.984 0 6.88 6.144 6.88 11.104 0 4.64-.096 12.8-6.848 12.8zm5.023-12.8c0-4.576-.64-9.28-5.023-9.28-4.8 0-5.023 5.888-5.023 9.28v2.048c0 3.7.704 8.927 5 8.927 4.384 0 5.056-5.216 5.056-8.927v-2.048zm33.215 12.256c-.448 0-.896-.32-.896-.896v-10.75c0-2.208-1.855-4.063-4.063-4.063s-4.096 1.855-4.096 4.03v10.783c0 .576-.448.896-.896.896s-.928-.32-.928-.896v-10.75c0-2.208-1.856-4.063-4.032-4.063-2.24 0-4.096 1.855-4.096 4.03v10.783c0 .576-.48.896-.896.896-.448 0-.93-.32-.93-.896V945.4c0-.576.48-.896.93-.896.416 0 .896.32.896.896v.2a5.82 5.82 0 0 1 4.063-1.632c2.048 0 3.872 1.024 4.992 2.72 1.056-1.632 2.88-2.72 4.96-2.72 3.328 0 5.92 2.624 5.92 5.855v10.783c0 .576-.48.896-.928.896zm5.474-20.063a1.824 1.824 0 1 1 0-3.648 1.824 1.824 0 1 1 0 3.648zm0 20.063c-.448 0-.93-.288-.93-.896V945.4c0-.576.448-.896.93-.896.416 0 .896.288.896.896v15.198c0 .576-.416.896-.896.896zm7.968.192c-1.73 0-3.168-1.6-3.168-3.392v-18.687c0-.576.48-.896.928-.896.416 0 .896.32.896.896v18.687c0 2.048 2.27.864 2.27 2.304 0 .544-.384 1.088-.928 1.088zm6.367 0c-1.728 0-3.168-1.6-3.168-3.392v-18.687c0-.576.48-.896.93-.896.416 0 .896.32.896.896v18.687c0 2.048 2.27.864 2.27 2.304 0 .544-.384 1.088-.928 1.088zm4.127-20.255a1.8 1.8 0 0 1-1.824-1.824c0-1.023.8-1.824 1.824-1.824a1.824 1.824 0 1 1 0 3.648zm0 20.063c-.448 0-.928-.288-.928-.896V945.4c0-.576.448-.896.928-.896.416 0 .896.288.896.896v15.198c0 .576-.416.896-.896.896zm12.096.544c-5.15 0-8.03-4.224-8.03-9.056 0-4.8 2.88-9.023 8.03-9.023s8.03 4.224 8.03 9.023c0 4.832-2.88 9.056-8.03 9.056zm0-16.255c-3.775 0-6.208 3.04-6.208 7.2s2.433 7.23 6.208 7.23c3.808 0 6.208-3.07 6.208-7.23s-2.4-7.2-6.208-7.2zm24.895 15.71c-.448 0-.928-.32-.928-.896v-9.343a5.45 5.45 0 0 0-5.472-5.472 5.47 5.47 0 0 0-5.472 5.472v9.343c0 .576-.48.896-.896.896-.448 0-.93-.32-.93-.896V945.4c0-.576.48-.896.93-.896.416 0 .896.32.896.896v1.023c1.44-1.567 3.328-2.464 5.472-2.464a7.36 7.36 0 0 1 7.296 7.296v9.343c0 .576-.48.896-.896.896z" opacity=".6"/><path d="M73.043 219.985c-.63 0-1.26-.336-1.597-1.092l-2.226-5.46h-14l-2.268 5.46c-.336.756-.966 1.092-1.555 1.092-.924 0-1.9-.714-1.9-1.764 0-.252.042-.504.168-.714l10.796-26.254c.504-1.092 1.176-1.302 1.723-1.302.378 0 1.302.2 1.722 1.302l10.838 26.254c.084.2.126.462.126.714 0 1.05-.882 1.764-1.848 1.764zM62.205 196.46l-5.503 13.358h11.006l-5.503-13.358zm20.782 4.8h-1.9v16.93c0 1.176-.882 1.764-1.85 1.764-.882 0-1.764-.588-1.764-1.764v-16.93H75.75c-1.134 0-1.765-.84-1.765-1.764 0-.966.63-1.807 1.765-1.807h1.722v-2.856c0-2.688 2.227-4.747 4.83-4.747 1.218 0 1.85.84 1.85 1.806 0 .882-.63 1.764-1.85 1.764-.714 0-1.218.546-1.218 1.134v2.898h1.9c1.218 0 1.848.84 1.848 1.807 0 .924-.63 1.764-1.848 1.764zm14.363-.714c-3.234 0-5.965 2.73-5.965 6.007v11.636c0 1.176-.882 1.806-1.85 1.806-.882 0-1.764-.63-1.764-1.764v-18.735c0-1.176.966-1.807 1.764-1.807.84 0 1.638.462 1.807 1.428 1.638-1.344 3.864-2.142 6.007-2.142 1.218 0 1.848.84 1.848 1.806 0 .924-.63 1.765-1.848 1.765zm5.375-6.26a3.024 3.024 0 1 1 0-6.049 3.024 3.024 0 1 1 0 6.049zm0 25.708c-.924 0-1.848-.63-1.848-1.764v-18.735c0-1.176.924-1.807 1.848-1.807.882 0 1.765.63 1.765 1.807v18.735c0 1.176-.882 1.764-1.765 1.764zm24.153-2.478c-1.85 2.06-4.4 3.193-7.52 3.193-6.763 0-10.544-5.545-10.544-11.888 0-6.3 3.78-11.846 10.544-11.846 3.108 0 5.67 1.134 7.52 3.192.336.378.504.798.504 1.218 0 .924-.924 1.806-1.9 1.806-.378 0-.84-.168-1.302-.588-1.176-1.302-2.73-2.058-4.83-2.058-4.2 0-6.93 3.276-6.93 8.275 0 5.04 2.73 8.317 6.93 8.317 2.1 0 3.697-.798 4.83-2.06.378-.462.882-.63 1.302-.63.966 0 1.9.84 1.9 1.848 0 .378-.168.84-.504 1.218zm24.906 2.478c-2.3 0-3.36-1.638-3.74-2.395-1.68 1.85-4.117 3.1-7.393 3.1-6.847 0-10.544-5.63-10.544-11.888s3.78-11.846 10.544-11.846c2.94 0 5.293 1.05 6.93 2.772v-.168c0-.462.168-1.9 1.764-1.9.882 0 1.85.462 1.85 1.765v16.215c0 .546.378.756.588.756 1.176 0 1.807.84 1.807 1.807 0 .882-.63 1.764-1.807 1.764zm-11.132-19.45c-4.2 0-6.93 3.276-6.93 8.275 0 5.04 2.73 8.317 6.93 8.317 4.243 0 6.93-3.277 6.93-8.317 0-5-2.688-8.275-6.93-8.275z"/><path d="M56.058 256.53c-2.496 0-4.607-1.312-5.823-3.232a1.19 1.19 0 0 1-.128-.512c0-.512.48-.96.928-.96.288 0 .544.16.736.48.896 1.44 2.496 2.4 4.288 2.4 2.752 0 5.024-2.272 5.024-4.992 0-2.784-2.24-5.024-4.992-5.024h-.032c-.48 0-.928-.384-.928-.928s.448-.896.928-.896h.032c2.272 0 4.2-1.888 4.2-4.224a4.23 4.23 0 0 0-4.191-4.192c-3.488 0-3.936 3.328-5.216 3.328-.48 0-.96-.384-.96-.896 0-.704 2.432-4.256 6.176-4.256 3.296 0 6.016 2.72 6.016 6.016a5.9 5.9 0 0 1-2.752 5.056c2.176 1.152 3.552 3.392 3.552 5.983 0 3.744-3.04 6.848-6.848 6.848zm16.64 0c-2.687 0-4.607-1.152-5.92-3.168a.76.76 0 0 1-.192-.544c0-.48.48-.896.96-.896.256 0 .512.128.736.416 1.024 1.504 2.368 2.368 4.416 2.368 4.032 0 5.472-3.84 5.472-10.1v-.544c-1.344 1.728-3.392 2.752-5.472 2.752-3.84 0-6.88-3.328-6.88-7.072 0-3.776 3.04-7.104 6.88-7.104 6.688 0 7.295 6.88 7.295 11.935 0 5.984-1.28 11.967-7.295 11.967zm0-22.08c-2.75 0-5.023 2.432-5.023 5.28 0 2.816 2.272 5.248 5.023 5.248 2.496 0 5.12-2.208 5.12-5.44-.576-2.72-1.856-5.088-5.12-5.088zm18.56 22.08c-6.687 0-7.295-6.848-7.295-11.935 0-5.983 1.28-11.967 7.295-11.967 2.688 0 4.608 1.184 5.92 3.2.16.16.192.352.192.544 0 .448-.48.864-.96.864-.256 0-.512-.096-.736-.416-1.024-1.472-2.368-2.368-4.416-2.368-4.032 0-5.472 3.84-5.472 10.1v.544c1.312-1.696 3.392-2.72 5.472-2.72 3.84 0 6.88 3.328 6.88 7.072s-3.04 7.07-6.88 7.07zm0-12.32c-2.496 0-5.12 2.176-5.12 5.44.576 2.688 1.856 5.056 5.12 5.056 2.752 0 5.024-2.4 5.024-5.248S94 244.2 91.258 244.2zm37.726 11.775c-.448 0-.896-.32-.896-.896v-10.75c0-2.208-1.856-4.064-4.063-4.064s-4.096 1.856-4.096 4.032V255.1c0 .576-.448.896-.896.896s-.928-.32-.928-.896v-10.75c0-2.208-1.856-4.064-4.032-4.064-2.24 0-4.096 1.856-4.096 4.032v10.783c0 .576-.48.896-.896.896-.448 0-.928-.32-.928-.896v-15.2c0-.576.48-.896.928-.896.416 0 .896.32.896.896v.192c1.056-1.024 2.496-1.632 4.063-1.632 2.048 0 3.872 1.024 4.992 2.72 1.056-1.632 2.88-2.72 4.96-2.72 3.328 0 5.92 2.624 5.92 5.855v10.783c0 .576-.48.896-.928.896z" opacity=".6"/><use xlink:href="#E" opacity=".6"/><use xlink:href="#F" opacity=".6"/><use xlink:href="#F" x="6.368" opacity=".6"/><use xlink:href="#E" x="18.463" opacity=".6"/><path d="M165.016 256.53c-5.15 0-8.03-4.224-8.03-9.055 0-4.8 2.88-9.023 8.03-9.023s8.032 4.224 8.032 9.023c0 4.832-2.88 9.055-8.032 9.055zm0-16.255c-3.775 0-6.208 3.04-6.208 7.2s2.432 7.23 6.208 7.23c3.808 0 6.208-3.072 6.208-7.23s-2.4-7.2-6.208-7.2zm24.894 15.7c-.448 0-.928-.32-.928-.896v-9.343a5.45 5.45 0 0 0-5.472-5.472 5.47 5.47 0 0 0-5.471 5.472v9.343c0 .576-.48.896-.896.896-.448 0-.928-.32-.928-.896v-15.2c0-.576.48-.896.928-.896.416 0 .896.32.896.896v1.024c1.44-1.568 3.328-2.464 5.47-2.464 3.968 0 7.296 3.296 7.296 7.295v9.343c0 .576-.48.896-.896.896z" opacity=".6"/></g><g opacity=".5" fill="#fff"><path d="M42.328 1046.045c-3.568 0-5.47-1.97-5.503-2.002 0 .935-.7 1.4-1.468 1.4-.7 0-1.4-.467-1.4-1.4v-20.88a1.35 1.35 0 0 1 1.401-1.434c.767 0 1.468.467 1.468 1.4v6.238c1.334-1.368 3.168-2.17 5.503-2.17 5.37 0 8.373 4.403 8.373 9.406 0 5.037-3.002 9.44-8.373 9.44zm0-16c-3.335 0-5.503 2.602-5.503 6.57 0 4.003 2.168 6.604 5.503 6.604s5.504-2.602 5.504-6.604c0-3.97-2.168-6.57-5.504-6.57zm25.555 8.037h-12.34c.467 3.136 2.468 5.137 5.403 5.137 1.5 0 3.002-.533 3.97-1.734.3-.333.634-.533 1.034-.533.734 0 1.5.667 1.5 1.468 0 .4-.1.7-.8 1.4-1.5 1.468-3.57 2.235-5.704 2.235-5.37 0-8.372-4.437-8.372-9.44 0-4.97 3.002-9.406 8.372-9.406 5.437 0 8.34 4.437 8.34 9.406 0 .734-.534 1.468-1.4 1.468zm-6.937-8.038c-3.136 0-4.97 2.3-5.403 5.17H66.35c-.467-3.202-2.468-5.17-5.403-5.17zM88 1045.478c-1.834 0-2.668-1.3-2.97-1.9-1.334 1.468-3.27 2.47-5.87 2.47-5.437 0-8.372-4.47-8.372-9.44s3.002-9.406 8.372-9.406c2.335 0 4.203.834 5.504 2.202v-.134c0-.367.133-1.5 1.4-1.5.7 0 1.468.367 1.468 1.4v12.875c0 .434.3.6.467.6.935 0 1.435.667 1.435 1.434a1.37 1.37 0 0 1-1.435 1.401zm-8.84-15.443c-3.336 0-5.504 2.602-5.504 6.57 0 4.003 2.168 6.604 5.504 6.604 3.37 0 5.504-2.602 5.504-6.604 0-3.97-2.135-6.57-5.504-6.57z"/><use xlink:href="#G"/><path d="M115.158 1045.478h-.567c-3.17 0-4.37-1.668-4.37-4.403V1030.6h-1c-.8 0-1.435-.634-1.435-1.4 0-.8.634-1.435 1.4-1.435h1v-4.637c0-.934.7-1.4 1.435-1.4s1.4.467 1.4 1.4v4.637h2.135c.934 0 1.4.768 1.4 1.4 0 .8-.533 1.434-1.4 1.434h-2.135v10.774c0 .934.333 1.268 1.268 1.268h.833c.868 0 1.435.634 1.435 1.4 0 .8-.533 1.435-1.4 1.435zm4.604-20.415a2.402 2.402 0 1 1 0-4.803 2.402 2.402 0 1 1 0 4.803zm0 20.414c-.733 0-1.467-.5-1.467-1.4V1029.2c0-.935.733-1.435 1.467-1.435a1.37 1.37 0 0 1 1.401 1.435v14.876c0 .935-.7 1.4-1.4 1.4zm10.376-14.877h-1.5v13.442c0 .935-.7 1.4-1.468 1.4-.7 0-1.4-.467-1.4-1.4V1030.6h-1.37c-.9 0-1.4-.667-1.4-1.4 0-.768.5-1.435 1.4-1.435h1.367v-2.27c0-2.135 1.77-3.77 3.836-3.77.968 0 1.468.667 1.468 1.434 0 .7-.5 1.4-1.468 1.4-.566 0-.967.434-.967.9v2.302h1.5c.967 0 1.468.667 1.468 1.435 0 .733-.5 1.4-1.468 1.4z"/><use xlink:href="#G" x="42.068"/><path d="M154.725 1045.544c-1.802 0-3.336-1.534-3.336-3.402v-18.98c0-.967.7-1.434 1.435-1.434s1.435.467 1.435 1.4v19.013c0 .4.3.567.467.567.934 0 1.435.667 1.435 1.435 0 .733-.5 1.4-1.435 1.4zm15.37-.066v-1.264c1.886-.237 2.046-.437 2.046-3.157v-6.7c0-2.8-1.248-4.017-3.064-4.017-1.237 0-2.345.6-3.47 1.493v9.476c0 2.527.187 2.658 2.06 2.896v1.264h-8.968v-1.264c2.254-.33 2.5-.4 2.5-3v-8.2c0-2.446-.303-2.565-2.185-2.922v-1.184c2.173-.292 4.63-.807 6.653-1.533l-.052 2.95 2.6-1.745c1.16-.713 2-1.086 3.16-1.086 3.194 0 5.2 2.338 5.2 6.3v7.5c0 2.54.237 2.657 2.277 2.92v1.264h-8.74zm23.9-3.703c-2.458 3.427-5.488 4.178-7.014 4.178-5.142 0-8.124-3.936-8.124-8.594 0-2.745 1.183-5.396 2.832-7.062 1.74-1.8 3.945-2.814 6.082-2.814 3.73 0 6.396 3.126 6.37 6.347-.014.715-.08 1.277-.612 1.4-.767.184-6.17.5-10.318.647.062 4.587 2.717 6.74 5.556 6.74 1.572 0 3.104-.597 4.543-1.866l.686 1.014zm-7.07-12.7c-1.667 0-3.167 1.807-3.516 4.963l5.486-.118c.6-.026.848-.146.848-.792.04-2.022-1.037-4.053-2.818-4.053zm34.284.145c-1.943.343-2.248.624-3.105 2.765-1.33 3.462-3.102 8.53-4.934 13.94h-1.512l-4.65-11.46-4.55 11.46h-1.472l-4.685-14.192c-.687-1.985-.94-2.274-2.855-2.512v-1.25h9.397v1.25c-2.325.345-2.535.672-2.058 2.133l2.52 8.214c1.507-3.68 2.988-7.62 4.327-11.424h1.456c1.4 3.76 2.986 7.702 4.573 11.568.742-2.107 2.062-5.964 2.557-8.108.412-1.674-.008-2.078-2.753-2.383v-1.25h7.742v1.25zm9.4 3.746c-.92-2.606-2.155-3.984-4.2-3.984-1.206 0-2.225.86-2.225 2.266 0 1.497 1.046 2.264 3.16 3.216 3.278 1.496 5.3 2.787 5.3 5.736 0 3.85-3.6 5.764-6.945 5.764-2.06 0-4.088-.737-4.92-1.16l-.662-4.892 1.252-.224c.8 2.5 2.33 4.75 4.976 4.75 1.505 0 2.438-.952 2.438-2.28 0-1.423-.76-2.333-3.092-3.467-2.67-1.295-5.107-2.64-5.107-5.775 0-3.046 2.533-5.42 6.565-5.42 1.818 0 3.242.396 4.112.567l.62 4.577-1.25.328z"/></g><g opacity=".7" fill="#fff"><path d="M557.075 1046.357c-1.2 0-3.22-.42-3.92-1.58-.08-.12-.08-.22-.08-.3 0-.32.28-.602.58-.602.12 0 .32.102.44.28.72.88 2 1.06 2.98 1.06 1.94 0 2.92-.64 2.92-1.94 0-3.02-6.562-1.42-6.562-5.422 0-2.02 2.02-2.8 3.84-2.8 1.04 0 2.64.36 3.44 1.16.12.12.18.26.18.38a.65.65 0 0 1-.62.6c-.12 0-.26-.04-.38-.16-.62-.6-1.74-.84-2.62-.84-1.76 0-2.7.682-2.7 1.66 0 2.8 6.562 1.32 6.562 5.422 0 2.28-2 3.08-4.06 3.08z"/><use xlink:href="#H"/><use xlink:href="#I"/><use xlink:href="#J"/><use xlink:href="#K"/><path d="M613.297 1041.236h-8.302c.18 2.28 1.66 3.94 3.84 3.94 1.08 0 2.36-.48 2.94-1.38.14-.22.3-.28.48-.28.3 0 .62.24.62.54 0 .18 0 .22-.38.658-.92 1.082-2.26 1.602-3.66 1.602-3.22 0-5.02-2.64-5.02-5.662 0-3 1.8-5.64 5.02-5.64s5.02 2.66 5.02 5.64c0 .3-.28.58-.56.58zm-4.46-5.08c-2.4 0-3.66 1.84-3.84 3.94h7.7c-.18-2.28-1.66-3.94-3.86-3.94zm8.437 3.26c-.64 0-1.16-.5-1.16-1.14s.52-1.14 1.16-1.14c.62 0 1.12.5 1.12 1.14s-.5 1.14-1.12 1.14zm0 6.563c-.64 0-1.16-.5-1.16-1.14s.52-1.14 1.16-1.14c.62 0 1.12.5 1.12 1.14s-.5 1.14-1.12 1.14zm14.22.34c-4.3 0-5.82-3.56-5.82-7.46 0-3.922 1.52-7.482 5.82-7.482 4.28 0 5.82 3.56 5.82 7.482 0 3.9-1.54 7.46-5.82 7.46zm0-13.803c-3.32 0-4.682 2.6-4.682 6.342 0 3.72 1.36 6.32 4.682 6.32 3.3 0 4.68-2.6 4.68-6.32 0-3.742-1.38-6.342-4.68-6.342z"/><use xlink:href="#I" x="64.619"/><use xlink:href="#J" x="64.62"/><path d="M677.436 1032.455l-3.52 13.104c-.08.28-.3.42-.56.42-.24 0-.48-.14-.54-.42l-3-11.084-2.98 11.084c-.06.28-.3.42-.54.42-.26 0-.48-.14-.56-.42l-3.52-13.104c-.02-.06-.02-.12-.02-.18a.58.58 0 0 1 .58-.58c.26 0 .46.14.52.44l3 11.082 2.98-11.082a.53.53 0 0 1 .54-.4c.26 0 .48.12.56.4l2.98 11.082 3-11.082c.08-.3.28-.44.52-.44a.58.58 0 0 1 .58.58c0 .06 0 .12-.02.18z"/><use xlink:href="#H" x="116.158"/><use xlink:href="#J" x="104.379"/><path d="M699.933 1046.098c-1.08 0-1.98-1-1.98-2.12v-11.684c0-.36.3-.56.58-.56.26 0 .56.2.56.56v11.684c0 1.28 1.42.54 1.42 1.44 0 .34-.24.68-.58.68zm11.42-.118c-.28 0-.58-.2-.58-.56v-1c-.84 1.18-2.14 1.9-3.88 1.9-3.22 0-5.02-2.64-5.02-5.662 0-3 1.8-5.64 5.02-5.64 1.74 0 3.04.72 3.88 1.88v-4.602c0-.36.3-.56.58-.56.26 0 .56.2.56.56v13.123c0 .36-.3.56-.56.56zm-4.46-9.822c-2.36 0-3.88 1.9-3.88 4.5s1.52 4.52 3.88 4.52c2.38 0 3.88-1.92 3.88-4.52s-1.5-4.5-3.88-4.5z"/><use xlink:href="#L"/><use xlink:href="#M"/><path d="M745.334 1045.98h-4.44a.61.61 0 0 1-.58-.561v-13.123c0-.3.28-.56.58-.56h4.44c4.12 0 5.48 3.44 5.48 7.102 0 3.72-1.36 7.143-5.48 7.143zm0-13.123h-3.88v11.982h3.88c3.42 0 4.34-2.96 4.34-5.98 0-3.562-1.24-6.002-4.34-6.002z"/><use xlink:href="#N"/><path d="M769.812 1045.98h-.62c-1.58 0-2.36-.78-2.36-2.342v-7.14h-1.02c-.36 0-.56-.3-.56-.58 0-.26.2-.56.56-.56h1.02v-3.06c0-.36.3-.56.58-.56s.56.2.56.56v3.06h1.84c.36 0 .56.3.56.56 0 .28-.2.58-.56.58h-1.84v7.14c0 .98.28 1.2 1.22 1.2h.62c.36 0 .56.3.56.58 0 .26-.2.56-.56.56z"/><use xlink:href="#N" x="18.879"/><path d="M785.03 1047.758c-.08.06-.2.08-.3.08-.32 0-.54-.28-.54-.58 0-.56.86-.64 1-1.28-.6-.04-1.08-.54-1.08-1.14 0-.68.56-1.16 1.16-1.16.98 0 1.2 1 1.2 1.62 0 .98-.52 1.92-1.44 2.46z"/><use xlink:href="#O"/><use xlink:href="#P"/><use xlink:href="#J" x="225.335"/><use xlink:href="#L" x="99.258"/><use xlink:href="#K" x="229.314"/><path d="M844.03 1045.98H844c-.66 0-1.6-.36-1.98-1.56-.84 1.18-2.14 1.9-3.88 1.9-3.26 0-5.02-2.682-5.02-5.662 0-3.02 1.8-5.64 5.02-5.64 1.74 0 3.04.72 3.88 1.88v-.98c0-.32.26-.56.58-.56.28 0 .56.2.56.56v8.063c0 1.28 1.44.48 1.44 1.44a.55.55 0 0 1-.58.561zm-5.88-9.822c-2.36 0-3.88 1.9-3.88 4.5s1.52 4.52 3.88 4.52c2.38 0 3.88-1.92 3.88-4.52s-1.5-4.5-3.88-4.5zm19.55 3.598h-6.262a.58.58 0 0 1-.58-.58c0-.26.22-.56.58-.56h6.262a.56.56 0 0 1 .58.559c0 .28-.2.58-.58.58zm0 2.842h-6.262c-.36 0-.58-.3-.58-.56a.58.58 0 0 1 .58-.58h6.262c.38 0 .58.3.58.58a.56.56 0 0 1-.58.56z"/><use xlink:href="#Q"/><use xlink:href="#I" x="301.634"/><path d="M893.63 1046.318c-1.74 0-3.04-.72-3.88-1.9v1c0 .36-.3.56-.56.56-.28 0-.58-.2-.58-.56v-13.123c0-.36.3-.56.58-.56.26 0 .56.2.56.56v4.602c.84-1.16 2.14-1.88 3.88-1.88 3.22 0 5.02 2.64 5.02 5.64 0 3.02-1.8 5.662-5.02 5.662zm0-10.162c-2.38 0-3.88 1.9-3.88 4.5s1.5 4.52 3.88 4.52 3.88-1.92 3.88-4.52-1.5-4.5-3.88-4.5zm13.78 3.6h-6.262a.58.58 0 0 1-.58-.58c0-.26.22-.56.58-.56h6.262a.56.56 0 0 1 .58.559c0 .28-.2.58-.58.58z"/><use xlink:href="#Q" x="44.798"/><use xlink:href="#N" x="168.315"/><path d="M943.027 1045.98c-.28 0-.58-.2-.58-.56v-5.842c0-1.9-1.52-3.42-3.42-3.42a3.42 3.42 0 0 0-3.421 3.42v5.842c0 .36-.3.56-.56.56-.28 0-.58-.2-.58-.56v-13.123c0-.36.3-.56.58-.56.26 0 .56.2.56.56v4.262c.84-.98 2.06-1.54 3.42-1.54a4.6 4.6 0 0 1 4.561 4.561v5.842c0 .36-.3.56-.56.56z"/><use xlink:href="#N" x="192.933"/><use xlink:href="#J" x="372.112"/><use xlink:href="#N" x="211.909"/><use xlink:href="#M" x="254.43"/><use xlink:href="#O" x="200.53"/><use xlink:href="#P" x="200.532"/><use xlink:href="#J" x="425.865"/><use xlink:href="#L" x="299.787"/><use xlink:href="#K" x="429.842"/><use xlink:href="#N" x="280.805"/></g><g fill="#fff"><path d="M68.438 80c-.9 0-1.8-.48-2.28-1.56l-3.18-7.8H43l-3.24 7.8c-.48 1.08-1.38 1.56-2.22 1.56-1.32 0-2.7-1.02-2.7-2.52 0-.36.06-.72.24-1.02L50.5 38.962c.72-1.56 1.68-1.86 2.46-1.86.54 0 1.86.3 2.46 1.86L70.9 76.46c.12.3.18.66.18 1.02 0 1.5-1.26 2.52-2.64 2.52zm-15.48-33.6L45.1 65.48h15.72L52.96 46.4zm30.9 6.842h-2.7v24.18c0 1.68-1.26 2.52-2.64 2.52-1.26 0-2.52-.84-2.52-2.52v-24.18h-2.46c-1.62 0-2.52-1.2-2.52-2.52 0-1.38.9-2.58 2.52-2.58H76v-4.08c0-3.84 3.18-6.78 6.9-6.78 1.74 0 2.64 1.2 2.64 2.58 0 1.26-.9 2.52-2.64 2.52-1.02 0-1.74.78-1.74 1.62v4.14h2.7c1.74 0 2.64 1.2 2.64 2.58 0 1.32-.9 2.52-2.64 2.52z"/><use xlink:href="#R"/><use xlink:href="#S"/><path d="M145.356 76.46c-2.64 2.94-6.3 4.56-10.74 4.56-9.66 0-15.06-7.92-15.06-16.98 0-9 5.4-16.92 15.06-16.92 4.44 0 8.1 1.62 10.74 4.56.48.54.72 1.14.72 1.74 0 1.32-1.32 2.58-2.7 2.58-.54 0-1.2-.24-1.86-.84-1.68-1.86-3.9-2.94-6.9-2.94-6 0-9.9 4.68-9.9 11.82 0 7.2 3.9 11.88 9.9 11.88 3 0 5.28-1.14 6.9-2.94.54-.66 1.26-.9 1.86-.9 1.38 0 2.7 1.2 2.7 2.64 0 .54-.24 1.2-.72 1.74z"/><use xlink:href="#T"/><path d="M218.674 80h-18.24c-1.44 0-2.64-1.14-2.64-2.52V39.862c0-1.74 1.38-2.58 2.52-2.58 1.32 0 2.64.84 2.64 2.52v35.1h15.72c1.38 0 2.52 1.14 2.52 2.52 0 1.44-1.14 2.58-2.52 2.58z"/><use xlink:href="#U"/><use xlink:href="#T" x="106.859"/><use xlink:href="#V"/><path d="M337.233 81.02c-3.3 0-8.82-1.02-11.64-4.5-.36-.54-.54-1.08-.54-1.56 0-1.5 1.44-2.7 2.7-2.7.72 0 1.26.36 1.86 1.02 1.86 2.04 4.92 2.64 7.62 2.64 5.4 0 7.14-1.86 7.14-4.56 0-7.68-18.3-2.94-18.3-15.3 0-6.54 6.12-8.94 11.82-8.94 3.24 0 10.86 1.62 10.86 4.98 0 1.32-1.08 2.7-2.52 2.7-.54 0-1.38-.3-1.98-.78-1.62-1.38-3.96-1.8-6.36-1.8-4.98 0-6.72 1.86-6.72 3.84 0 7.14 18.36 2.52 18.36 15.3 0 7.08-5.94 9.66-12.3 9.66zm38.52-1.02h-1.02c-5.7 0-7.86-3-7.86-7.92V53.24h-1.8c-1.44 0-2.58-1.14-2.58-2.52 0-1.44 1.14-2.58 2.52-2.58h1.8V39.8c0-1.68 1.26-2.52 2.58-2.52s2.52.84 2.52 2.52v8.34h3.84c1.68 0 2.52 1.38 2.52 2.52 0 1.44-.96 2.58-2.52 2.58h-3.84v19.38c0 1.68.6 2.28 2.28 2.28h1.5c1.56 0 2.58 1.14 2.58 2.52 0 1.44-.96 2.58-2.52 2.58zm32.698 0c-1.32 0-2.52-.9-2.52-2.52V60.8c0-4.68-3.9-8.58-8.58-8.58-4.62 0-8.52 3.9-8.52 8.58v16.62c0 1.68-1.26 2.64-2.64 2.64-1.26 0-2.52-.9-2.52-2.58V39.862c0-1.74 1.26-2.58 2.52-2.58 1.38 0 2.64.84 2.64 2.52v10.38c2.22-2.1 5.22-3.06 8.52-3.06 7.44 0 13.68 6.18 13.68 13.68v16.62c0 1.68-1.2 2.58-2.58 2.58z"/><use xlink:href="#U" x="192.357"/><path d="M504.868 40.462l-9.9 37.438c-.3 1.44-1.08 2.1-2.46 2.1-1.26 0-2.16-.66-2.58-2.1l-8.1-28.74-8.04 28.74c-.42 1.44-1.26 2.1-2.52 2.1-1.32 0-2.16-.66-2.52-2.1l-9.9-37.438c-.06-.24-.12-.54-.12-.84 0-1.5 1.38-2.34 2.7-2.34 1.02 0 2.04.6 2.4 1.86l7.56 28.62 7.92-28.38c.42-1.44 1.26-2.1 2.52-2.1 1.32 0 2.16.66 2.58 2.1l7.92 28.38 7.56-28.62c.36-1.32 1.56-1.98 2.46-1.98 1.32 0 2.64.96 2.64 2.46 0 .3-.06.6-.12.84z"/><use xlink:href="#W"/><use xlink:href="#R" x="452.153"/><use xlink:href="#X"/><use xlink:href="#V" x="283.976"/><use xlink:href="#S" x="514.19"/><use xlink:href="#Y"/></g><g fill="#f7931e"><path d="M716.066 80.06c-1.26 0-2.52-.9-2.52-2.58v-27.6l-11.64 21.72c-.78 1.5-1.92 1.62-2.4 1.62-.3 0-1.56-.12-2.4-1.62L685.527 50v27.48c0 1.68-1.26 2.58-2.64 2.58-1.26 0-2.52-.9-2.52-2.58v-37.5c0-1.98 1.38-2.7 2.76-2.7.9 0 1.62.42 2.16 1.5l14.22 26.46 14.28-26.46c.6-1.2 1.32-1.5 2.34-1.5 1.32 0 2.58.84 2.58 2.7v37.5c0 1.68-1.26 2.58-2.64 2.58z"/><use xlink:href="#W" x="216.657"/><path d="M773.366 81.02c-6.42 0-9.84-3.54-9.9-3.6 0 1.68-1.26 2.52-2.64 2.52-1.26 0-2.52-.84-2.52-2.52V39.862c0-1.74 1.26-2.58 2.52-2.58 1.38 0 2.64.84 2.64 2.52v11.22c2.4-2.46 5.7-3.9 9.9-3.9 9.66 0 15.06 7.92 15.06 16.92 0 9.06-5.4 16.98-15.06 16.98zm0-28.8c-6 0-9.9 4.68-9.9 11.82 0 7.2 3.9 11.88 9.9 11.88s9.9-4.68 9.9-11.88c0-7.14-3.9-11.82-9.9-11.82z"/><use xlink:href="#S" x="683.869"/><use xlink:href="#X" x="240.956"/><use xlink:href="#Z"/><path d="M896.843 80.06c-1.26 0-2.52-.9-2.52-2.58v-27.6l-11.64 21.72c-.78 1.5-1.92 1.62-2.4 1.62-.3 0-1.56-.12-2.4-1.62L866.304 50v27.48c0 1.68-1.26 2.58-2.64 2.58-1.26 0-2.52-.9-2.52-2.58v-37.5c0-1.98 1.38-2.7 2.76-2.7.9 0 1.62.42 2.16 1.5l14.22 26.46 14.28-26.46c.6-1.2 1.32-1.5 2.34-1.5 1.32 0 2.58.84 2.58 2.7v37.5c0 1.68-1.26 2.58-2.64 2.58z"/><use xlink:href="#W" x="397.434"/><use xlink:href="#Y" x="303.957"/><use xlink:href="#Z" x="155.938"/><path d="M1030.762 51.742l-16.2 36.838c-1.2 2.76-3.84 4.02-6.6 4.02h-1.92c-1.74 0-2.52-1.26-2.52-2.64 0-1.26.78-2.52 2.52-2.52h1.86c.78 0 1.62-.12 1.98-.96l3.96-8.88-11.7-25.86c-.24-.42-.3-.78-.3-1.14 0-1.5 1.44-2.52 2.76-2.52.9 0 1.68.48 2.16 1.56l9.78 21.72 9.54-21.72c.48-1.08 1.38-1.5 2.22-1.5 1.38 0 2.76 1.02 2.76 2.46 0 .42-.06.72-.3 1.14zM53.1 128.04c-.304 0-.607-.152-.798-.456l-8.17-11.284h-6.8v10.64c0 .684-.57 1.063-1.063 1.063-.532 0-1.103-.38-1.103-1.063v-24.925c0-.57.532-1.063 1.103-1.063h10.258c4.294 0 7.713 3.42 7.713 7.637 0 4.18-3.268 7.484-7.408 7.713l7.18 9.954a1.04 1.04 0 0 1 .266.685c0 .57-.57 1.102-1.178 1.102zm-6.535-24.962h-9.232v11.056h9.194a5.53 5.53 0 0 0 5.548-5.547c0-3.458-2.926-5.5-5.5-5.5zm29.23 15.918H60.028c.342 4.332 3.153 7.485 7.295 7.485 2.052 0 4.483-.912 5.585-2.622.267-.418.57-.53.912-.53.57 0 1.178.455 1.178 1.025 0 .342 0 .418-.722 1.254-1.748 2.052-4.293 3.04-6.953 3.04-6.117 0-9.536-5.015-9.536-10.752 0-5.7 3.42-10.715 9.536-10.715s9.537 5.054 9.537 10.715c0 .57-.532 1.102-1.064 1.102zm-8.473-9.65c-4.56 0-6.953 3.495-7.295 7.485h14.628c-.342-4.332-3.153-7.485-7.333-7.485zm21.964 27.318c-3.23 0-7.8-1.216-7.8-2.584 0-.608.494-1.216 1.103-1.216.418 0 1.3.646 2.014.912.987.342 2.545.722 4.673.722 4.863 0 7.37-2.394 7.37-7.067v-2.66c-1.672 2.014-4.065 3.23-7.37 3.23-6.003 0-9.536-4.256-9.536-10.106 0-5.7 3.42-10.715 9.536-10.715 3.306 0 5.775 1.368 7.37 3.572v-1.824c0-.684.57-1.063 1.102-1.063.494 0 1.064.38 1.064 1.063v18.503c0 6.04-3.6 9.233-9.537 9.233zm0-27.318c-4.483 0-7.37 3.6-7.37 8.55 0 4.9 2.698 7.94 7.37 7.94s7.37-3.04 7.37-7.94c0-4.94-2.85-8.55-7.37-8.55zm15.277-5.168a2.166 2.166 0 1 1 0-4.332 2.166 2.166 0 0 1 0 4.332zm0 23.822c-.532 0-1.103-.342-1.103-1.063V108.9c0-.684.532-1.063 1.103-1.063.494 0 1.063.342 1.063 1.063v18.048c0 .684-.494 1.063-1.063 1.063zm12.046.722c-2.28 0-6.117-.798-7.447-3-.15-.23-.15-.418-.15-.57 0-.607.53-1.14 1.102-1.14.228 0 .607.2.836.532 1.367 1.67 3.8 2.014 5.66 2.014 3.686 0 5.547-1.216 5.547-3.686 0-5.737-12.462-2.698-12.462-10.297 0-3.837 3.837-5.32 7.295-5.32 1.976 0 5.015.685 6.535 2.204.228.228.342.494.342.722 0 .57-.57 1.14-1.178 1.14-.23 0-.494-.076-.722-.304-1.178-1.14-3.306-1.596-4.978-1.596-3.344 0-5.13 1.292-5.13 3.153 0 5.32 12.462 2.508 12.462 10.297 0 4.33-3.8 5.85-7.713 5.85zm17.897-.722h-1.178c-3 0-4.483-1.48-4.483-4.445V110h-1.937c-.684 0-1.063-.57-1.063-1.102 0-.494.38-1.063 1.063-1.063h1.937v-5.813c0-.684.57-1.063 1.103-1.063s1.063.38 1.063 1.063v5.813h3.495c.685 0 1.064.57 1.064 1.063 0 .532-.38 1.102-1.064 1.102h-3.495v13.564c0 1.86.532 2.28 2.317 2.28h1.178c.685 0 1.064.57 1.064 1.103 0 .493-.38 1.063-1.064 1.063zm20.9-9.004H139.64c.342 4.332 3.153 7.485 7.295 7.485 2.052 0 4.483-.912 5.585-2.622.267-.418.57-.53.912-.53.57 0 1.178.455 1.178 1.025 0 .342 0 .418-.722 1.254-1.748 2.052-4.293 3.04-6.953 3.04-6.117 0-9.536-5.015-9.536-10.752 0-5.7 3.42-10.715 9.536-10.715s9.537 5.054 9.537 10.715c0 .57-.532 1.102-1.064 1.102zm-8.473-9.65c-4.56 0-6.953 3.495-7.295 7.485h14.628c-.342-4.332-3.153-7.485-7.333-7.485zm21.963.34c-3.57 0-6.497 2.888-6.497 6.497v10.753c0 .684-.57 1.063-1.063 1.063-.532 0-1.103-.38-1.103-1.063V108.9c0-.684.57-1.063 1.103-1.063.494 0 1.063.38 1.063 1.063v1.558c1.7-1.86 3.95-2.925 6.497-2.925.684 0 1.102.57 1.102 1.063 0 .532-.418 1.102-1.102 1.102zm19.37 9.31H172.5c.342 4.332 3.153 7.485 7.295 7.485 2.052 0 4.483-.912 5.585-2.622.267-.418.57-.53.912-.53.57 0 1.178.455 1.178 1.025 0 .342 0 .418-.722 1.254-1.748 2.052-4.293 3.04-6.953 3.04-6.117 0-9.536-5.015-9.536-10.752 0-5.7 3.42-10.715 9.536-10.715s9.537 5.054 9.537 10.715c0 .57-.532 1.102-1.064 1.102zm-8.473-9.65c-4.56 0-6.953 3.495-7.295 7.485h14.628c-.342-4.332-3.153-7.485-7.333-7.485zM210.23 128c-.532 0-1.102-.38-1.102-1.063v-1.9c-1.596 2.242-4.065 3.6-7.37 3.6-6.117 0-9.536-5.015-9.536-10.752 0-5.7 3.42-10.715 9.536-10.715 3.306 0 5.775 1.368 7.37 3.572v-8.74c0-.684.57-1.063 1.102-1.063.494 0 1.064.38 1.064 1.063v24.925c0 .684-.57 1.063-1.064 1.063zm-8.473-18.655c-4.483 0-7.37 3.6-7.37 8.55s2.888 8.587 7.37 8.587c4.52 0 7.37-3.647 7.37-8.587s-2.85-8.55-7.37-8.55zM244.316 128h-.038c-1.254 0-3.04-.684-3.762-2.964-1.596 2.242-4.065 3.6-7.37 3.6-6.193 0-9.536-5.1-9.536-10.752 0-5.737 3.42-10.715 9.536-10.715 3.306 0 5.775 1.368 7.37 3.572v-1.862c0-.607.494-1.063 1.102-1.063.532 0 1.064.38 1.064 1.063v15.31c0 2.432 2.735.912 2.735 2.736a1.04 1.04 0 0 1-1.102 1.063zm-11.17-18.655c-4.483 0-7.37 3.6-7.37 8.55s2.888 8.587 7.37 8.587c4.52 0 7.37-3.647 7.37-8.587s-2.85-8.55-7.37-8.55z"/><use xlink:href="#a"/><use xlink:href="#a" x="19.57"/><path d="M295.92 128.646c-6.117 0-9.536-5.015-9.536-10.752 0-5.7 3.42-10.715 9.536-10.715s9.537 5.016 9.537 10.715c0 5.737-3.42 10.752-9.537 10.752zm0-19.3c-4.483 0-7.37 3.6-7.37 8.55s2.888 8.587 7.37 8.587c4.52 0 7.37-3.647 7.37-8.587s-2.85-8.55-7.37-8.55zM325.14 128c-.532 0-1.102-.38-1.102-1.063v-1.216c-1.596 1.86-3.913 2.925-6.497 2.925-4.7 0-8.663-3.95-8.663-8.662V108.9c0-.684.57-1.063 1.103-1.063.493 0 1.063.38 1.063 1.063v11.095a6.497 6.497 0 1 0 12.994 0V108.9c0-.684.57-1.063 1.102-1.063.494 0 1.064.38 1.064 1.063v18.048c0 .684-.57 1.063-1.064 1.063zm21.963 0c-.53 0-1.102-.38-1.102-1.063v-11.095a6.47 6.47 0 0 0-6.497-6.497c-3.57 0-6.497 2.888-6.497 6.497v11.095c0 .684-.57 1.063-1.063 1.063-.532 0-1.103-.38-1.103-1.063V108.9c0-.684.57-1.063 1.103-1.063.494 0 1.063.38 1.063 1.063v1.216c1.7-1.86 3.95-2.926 6.497-2.926 4.7 0 8.663 3.914 8.663 8.663v11.095c0 .684-.57 1.063-1.064 1.063zm12.315 0h-1.178c-3 0-4.483-1.48-4.483-4.445V110h-1.937c-.684 0-1.063-.57-1.063-1.102 0-.494.38-1.063 1.063-1.063h1.938v-5.813c0-.684.57-1.063 1.103-1.063s1.063.38 1.063 1.063v5.813h3.495c.685 0 1.064.57 1.064 1.063 0 .532-.38 1.102-1.064 1.102h-3.495v13.564c0 1.86.532 2.28 2.317 2.28h1.178c.685 0 1.064.57 1.064 1.103 0 .493-.38 1.063-1.064 1.063zm10.108.722c-2.28 0-6.117-.798-7.447-3-.15-.23-.15-.418-.15-.57 0-.607.53-1.14 1.102-1.14.228 0 .607.2.836.532 1.367 1.67 3.8 2.014 5.66 2.014 3.686 0 5.547-1.216 5.547-3.686 0-5.737-12.462-2.698-12.462-10.297 0-3.837 3.837-5.32 7.295-5.32 1.976 0 5.016.685 6.535 2.204.228.228.342.494.342.722 0 .57-.57 1.14-1.178 1.14-.23 0-.494-.076-.722-.304-1.18-1.14-3.306-1.596-4.978-1.596-3.344 0-5.13 1.292-5.13 3.153 0 5.32 12.462 2.508 12.462 10.297 0 4.33-3.8 5.85-7.713 5.85z"/></g><defs ><path id="D" d="M759.5 916.157h-15.543c.588 3.95 3.108 6.47 6.806 6.47 1.9 0 3.78-.673 5-2.185.378-.42.798-.672 1.302-.672.924 0 1.89.84 1.89 1.848 0 .504-.126.883-1.01 1.765-1.9 1.85-4.494 2.814-7.183 2.814-6.764 0-10.544-5.587-10.544-11.888 0-6.26 3.78-11.847 10.544-11.847 6.847 0 10.502 5.587 10.502 11.847 0 .924-.673 1.848-1.765 1.848zm-8.737-10.123c-3.95 0-6.26 2.898-6.806 6.51h13.6c-.588-4.033-3.108-6.51-6.805-6.51z"/><path id="E" d="M134.457 235.923a1.8 1.8 0 1 1 0-3.648 1.8 1.8 0 1 1 0 3.648zm0 20.063c-.448 0-.928-.288-.928-.896v-15.2c0-.576.448-.896.928-.896.416 0 .896.288.896.896v15.2c0 .576-.416.896-.896.896z"/><path id="F" d="M142.425 256.177c-1.728 0-3.168-1.6-3.168-3.392V234.1c0-.576.48-.896.928-.896.416 0 .896.32.896.896v18.687c0 2.048 2.27.864 2.27 2.304 0 .544-.384 1.088-.928 1.088z"/><path id="G" d="M104.714 1045.51c-.633 0-1.267-.367-1.4-1.1-1.334 1.034-2.97 1.668-4.804 1.668-4.136 0-7.604-3.436-7.604-7.605v-9.24a1.37 1.37 0 0 1 1.4-1.435c.768 0 1.468.5 1.468 1.4v9.272c0 2.602 2.168 4.77 4.736 4.77 2.603 0 4.77-2.17 4.77-4.77v-9.24c0-1.034.667-1.468 1.4-1.468.768 0 1.435.5 1.435 1.435v14.9c0 .934-.667 1.4-1.4 1.4z"/><path id="H" d="M567.796 1046.318c-3.22 0-5.02-2.64-5.02-5.662 0-3 1.8-5.64 5.02-5.64s5.02 2.64 5.02 5.64c0 3.02-1.8 5.662-5.02 5.662zm0-10.162c-2.36 0-3.88 1.9-3.88 4.5s1.52 4.52 3.88 4.52c2.38 0 3.88-1.92 3.88-4.52s-1.5-4.5-3.88-4.5z"/><path id="I" d="M583.576 1045.98c-.28 0-.58-.2-.58-.56v-.64c-.84.98-2.06 1.54-3.42 1.54-2.48 0-4.56-2.08-4.56-4.56v-5.842c0-.36.3-.56.58-.56.26 0 .56.2.56.56v5.842c0 1.9 1.52 3.42 3.42 3.42s3.42-1.52 3.42-3.42v-5.842c0-.36.3-.56.58-.56.26 0 .56.2.56.56v9.502c0 .36-.3.56-.56.56z"/><path id="J" d="M591.535 1036.336a3.42 3.42 0 0 0-3.421 3.42v5.662c0 .36-.3.56-.56.56-.28 0-.58-.2-.58-.56v-9.502c0-.36.3-.56.58-.56.26 0 .56.2.56.56v.82c.9-.98 2.08-1.54 3.42-1.54.36 0 .58.3.58.56a.58.58 0 0 1-.58.58z"/><path id="K" d="M601.716 1044.797c-.88.98-2.1 1.52-3.58 1.52-3.22 0-5.02-2.64-5.02-5.662 0-3 1.8-5.64 5.02-5.64 1.48 0 2.7.54 3.58 1.52.12.12.16.262.16.38 0 .3-.28.6-.58.6-.14 0-.28-.06-.42-.2-.66-.74-1.58-1.16-2.74-1.16-2.36 0-3.88 1.9-3.88 4.5s1.52 4.52 3.88 4.52c1.16 0 2.08-.44 2.74-1.16.14-.14.28-.2.42-.2.3 0 .58.26.58.58 0 .14-.04.26-.16.398z"/><path id="L" d="M720.23 1033.436c-.64 0-1.14-.5-1.14-1.14s.5-1.14 1.14-1.14 1.14.5 1.14 1.14-.5 1.14-1.14 1.14zm0 12.543c-.28 0-.58-.18-.58-.56v-9.502c0-.36.28-.56.58-.56.26 0 .56.18.56.56v9.502c0 .36-.26.56-.56.56z"/><path id="M" d="M732.193 1045.98c-.28 0-.58-.2-.58-.56v-5.842c0-1.9-1.52-3.42-3.42-3.42a3.42 3.42 0 0 0-3.421 3.42v5.842c0 .36-.3.56-.56.56-.28 0-.58-.2-.58-.56v-9.502c0-.36.3-.56.58-.56.26 0 .56.2.56.56v.64c.9-.98 2.08-1.54 3.42-1.54a4.6 4.6 0 0 1 4.561 4.561v5.842c0 .36-.3.56-.56.56z"/><path id="N" d="M763.755 1045.98h-.02c-.66 0-1.6-.36-1.98-1.56-.84 1.18-2.14 1.9-3.88 1.9-3.26 0-5.02-2.682-5.02-5.662 0-3.02 1.8-5.64 5.02-5.64 1.74 0 3.04.72 3.88 1.88v-.98c0-.32.26-.56.58-.56.28 0 .56.2.56.56v8.063c0 1.28 1.44.48 1.44 1.44a.55.55 0 0 1-.58.561zm-5.88-9.822c-2.36 0-3.88 1.9-3.88 4.5s1.52 4.52 3.88 4.52c2.38 0 3.88-1.92 3.88-4.52s-1.5-4.5-3.88-4.5z"/><path id="O" d="M804.514 1045.98c-.2 0-.42-.12-.52-.34l-1.28-3.082h-7.2l-1.28 3.082a.56.56 0 0 1-.501.34c-.3 0-.58-.22-.58-.54 0-.1 0-.16.04-.26l5.4-13.104c.1-.238.34-.38.58-.38.2 0 .38.12.48.38l5.4 13.104a.59.59 0 0 1 .04.26c0 .32-.28.54-.58.54zm-5.4-12.184l-3.14 7.623h6.3l-3.16-7.623z"/><path id="P" d="M809.808 1032.855h-.62c-.48 0-.88.4-.88.86v1.64h1.5c.38 0 .56.3.56.56 0 .28-.2.58-.56.58h-1.5v8.922c0 .36-.28.56-.56.56s-.56-.18-.56-.56v-8.922h-1.38c-.36 0-.56-.3-.56-.58 0-.26.2-.56.56-.56h1.38v-1.64c0-1.1.9-1.98 1.98-1.98h.64c.36 0 .58.28.58.58 0 .28-.2.54-.58.54z"/><path id="Q" d="M869.71 1046.318c-1.54 0-3.64-.62-4.78-1.76-.14-.14-.18-.262-.18-.4a.61.61 0 0 1 .58-.58c.24 0 .22.06.64.38a6.33 6.33 0 0 0 3.74 1.221c2.52 0 3.98-.94 3.98-2.74 0-4.742-8.462-2.102-8.462-7.562 0-2.4 2.1-3.5 4.68-3.5 1.44 0 3.46.62 4.36 1.88.08.12.12.22.12.34 0 .32-.28.56-.6.56-.28 0-.28-.08-.62-.42-.84-.842-2.08-1.22-3.26-1.22-2.38 0-3.54.92-3.54 2.36 0 4.3 8.462 1.8 8.462 7.563 0 2.78-2.44 3.88-5.12 3.88z"/><path id="R" d="M103.177 52.222c-4.62 0-8.52 3.9-8.52 8.58v16.62c0 1.68-1.26 2.58-2.64 2.58-1.26 0-2.52-.9-2.52-2.52v-26.76c0-1.68 1.38-2.58 2.52-2.58 1.2 0 2.34.66 2.58 2.04 2.34-1.92 5.52-3.06 8.58-3.06 1.74 0 2.64 1.2 2.64 2.58 0 1.32-.9 2.52-2.64 2.52z"/><path id="S" d="M112.058 43.282a4.3 4.3 0 1 1 0-8.64 4.3 4.3 0 1 1 0 8.64zm0 36.72c-1.32 0-2.64-.9-2.64-2.52v-26.76c0-1.68 1.32-2.58 2.64-2.58 1.26 0 2.52.9 2.52 2.58v26.76c0 1.68-1.26 2.52-2.52 2.52z"/><path id="T" d="M179.734 80c-3.3 0-4.8-2.34-5.34-3.42-2.4 2.64-5.88 4.44-10.56 4.44-9.78 0-15.06-8.04-15.06-16.98s5.4-16.92 15.06-16.92c4.2 0 7.56 1.5 9.9 3.96v-.24c0-.66.24-2.7 2.52-2.7 1.26 0 2.64.66 2.64 2.52v23.16c0 .78.54 1.08.84 1.08 1.68 0 2.58 1.2 2.58 2.58 0 1.26-.9 2.52-2.58 2.52zm-15.9-27.78c-6 0-9.9 4.68-9.9 11.82 0 7.2 3.9 11.88 9.9 11.88 6.06 0 9.9-4.68 9.9-11.88 0-7.14-3.84-11.82-9.9-11.82z"/><path id="U" d="M250.413 66.68h-22.2c.84 5.64 4.44 9.24 9.72 9.24 2.7 0 5.4-.96 7.14-3.12.54-.6 1.14-.96 1.86-.96 1.32 0 2.7 1.2 2.7 2.64 0 .72-.18 1.26-1.44 2.52-2.7 2.64-6.42 4.02-10.26 4.02-9.66 0-15.06-7.98-15.06-16.98 0-8.94 5.4-16.92 15.06-16.92 9.78 0 15 7.98 15 16.92 0 1.32-.96 2.64-2.52 2.64zm-12.48-14.46c-5.64 0-8.94 4.14-9.72 9.3h19.44c-.84-5.76-4.44-9.3-9.72-9.3z"/><path id="V" d="M318.512 79.94c-1.32 0-2.58-.84-2.58-2.52 0 0-3.54 3.6-9.9 3.6-9.66 0-15.06-7.92-15.06-16.98 0-9 5.4-16.92 15.06-16.92 4.2 0 7.56 1.44 9.9 3.9v-11.16c0-1.74 1.26-2.58 2.58-2.58s2.58.84 2.58 2.52V77.42c0 1.68-1.26 2.52-2.58 2.52zm-12.48-27.72c-6 0-9.9 4.68-9.9 11.82 0 7.2 3.9 11.88 9.9 11.88 6.06 0 9.9-4.68 9.9-11.88 0-7.14-3.84-11.82-9.9-11.82z"/><path id="W" d="M521.85 81.02c-9.66 0-15.06-7.92-15.06-16.98 0-9 5.4-16.92 15.06-16.92s15.06 7.92 15.06 16.92c0 9.06-5.4 16.98-15.06 16.98zm0-28.8c-6 0-9.9 4.68-9.9 11.82 0 7.2 3.9 11.88 9.9 11.88 6.06 0 9.9-4.68 9.9-11.88 0-7.14-3.84-11.82-9.9-11.82z"/><path id="X" d="M569.49 80.12c-3.24 0-6-2.76-6-6.12V39.862c0-1.74 1.26-2.58 2.58-2.58s2.58.84 2.58 2.52V74c0 .72.54 1.02.84 1.02 1.68 0 2.58 1.2 2.58 2.58 0 1.32-.9 2.52-2.58 2.52z"/><path id="Y" d="M659.906 80c-1.32 0-2.52-.9-2.52-2.52V60.8c0-4.68-3.9-8.58-8.58-8.58-4.62 0-8.52 3.9-8.52 8.58v16.62c0 1.68-1.26 2.64-2.64 2.64-1.26 0-2.52-.9-2.52-2.58v-26.82c0-1.74 1.26-2.52 2.52-2.52 1.2 0 2.28.66 2.58 1.98 2.34-1.86 5.28-3 8.58-3 7.44 0 13.68 6.18 13.68 13.68v16.62c0 1.68-1.2 2.58-2.58 2.58z"/><path id="Z" d="M842.245 66.68h-22.2c.84 5.64 4.44 9.24 9.72 9.24 2.7 0 5.4-.96 7.14-3.12.54-.6 1.14-.96 1.86-.96 1.32 0 2.7 1.2 2.7 2.64 0 .72-.18 1.26-1.44 2.52-2.7 2.64-6.42 4.02-10.26 4.02-9.66 0-15.06-7.98-15.06-16.98 0-8.94 5.4-16.92 15.06-16.92 9.78 0 15 7.98 15 16.92 0 1.32-.96 2.64-2.52 2.64zm-12.48-14.46c-5.64 0-8.94 4.14-9.72 9.3h19.438c-.84-5.76-4.44-9.3-9.72-9.3z"/><path id="a" d="M263.582 125.76c-1.672 1.86-3.99 2.887-6.8 2.887-6.117 0-9.536-5.015-9.536-10.752 0-5.7 3.42-10.715 9.536-10.715 2.812 0 5.13 1.026 6.8 2.888.23.23.305.494.305.722 0 .57-.532 1.14-1.103 1.14-.266 0-.53-.114-.798-.38-1.254-1.406-3-2.204-5.205-2.204-4.483 0-7.37 3.61-7.37 8.55s2.888 8.587 7.37 8.587c2.204 0 3.95-.836 5.205-2.204.267-.266.532-.38.798-.38a1.13 1.13 0 0 1 1.103 1.102c0 .267-.076.494-.305.76z"/></defs></svg>