<svg xmlns="http://www.w3.org/2000/svg" xmlns:xlink="http://www.w3.org/1999/xlink" viewBox="0 0 1080 1080"><linearGradient id="A" gradientUnits="userSpaceOnUse" x1="1068.363" y1="1068.363" x2="11.637" y2="11.637"><stop offset="0" stop-color="#f72455"/><stop offset=".266" stop-color="#b8306e"/><stop offset=".516" stop-color="#843882"/><stop offset=".73" stop-color="#5f3d90"/><stop offset=".898" stop-color="#493f98"/><stop offset="1" stop-color="#413f9a"/></linearGradient><path d="M1080 1040.385c0 21.788-17.827 39.615-39.615 39.615H39.615C17.827 1080 0 1062.173 0 1040.385V39.615C0 17.827 17.827 0 39.615 0h1000.77C1062.173 0 1080 17.827 1080 39.615v1000.77z" fill="url(#A)"/><linearGradient id="B" gradientUnits="userSpaceOnUse" x1="278.927" y1="194.669" x2="1029.827" y2="945.57"><stop offset="0" stop-color="#93d0dd"/><stop offset=".527" stop-color="#fffff1"/><stop offset="1" stop-color="#f284af"/></linearGradient><path d="M991.14 961.595H317.614c-30.217 0-54.712-24.495-54.712-54.712V233.357c0-30.217 24.495-54.712 54.712-54.712H991.14c30.217 0 54.712 24.495 54.712 54.712v673.526c0 30.217-24.495 54.712-54.712 54.712z" fill="url(#B)"/><linearGradient id="C" gradientUnits="userSpaceOnUse" x1="41.795" y1="186.27" x2="194.133" y2="338.608"><stop offset="0" stop-color="#93d0dd"/><stop offset=".527" stop-color="#fffff1"/><stop offset="1" stop-color="#f284af"/></linearGradient><path d="M175.724 346.233H60.203c-14.378 0-26.034-11.656-26.034-26.034v-115.52c0-14.378 11.656-26.034 26.034-26.034h115.52c14.378 0 26.034 11.656 26.034 26.034V320.2c0 14.378-11.656 26.034-26.034 26.034z" fill="url(#C)"/><g fill="#fff"><use xlink:href="#E"/><path d="M1011.053 1001.496c-4.72 0-6.96-4.4-6.96-14.838s2.24-14.838 6.96-14.838 6.958 4.4 6.958 14.838-2.24 14.838-6.958 14.838zm0-27.276c-2.64 0-4.08 2.96-4.08 12.438s1.44 12.438 4.08 12.438 4.08-2.96 4.08-12.437-1.44-12.438-4.08-12.438zm9.12 26.875v-2.4h3.52V975.5l-3.6.32v-1.76c1.64-.4 3.24-1.12 4.56-2.24h1.92v26.876h3.36v2.4h-9.76z"/><use xlink:href="#E" x="43.68"/></g><g opacity=".8" fill="#fff"><path d="M43.885 865.486H34.73a.81.81 0 0 1-.812-.784c0-.168.084-.336.168-.448l8.344-11.788c.392-.588.644-1.372.644-2.1 0-2.044-1.624-3.724-3.668-3.724-2.66 0-3.724 2.9-4.48 2.9-.42 0-.868-.336-.868-.783 0-.645 2.128-3.725 5.348-3.725 2.912 0 5.264 2.38 5.264 5.236a5.37 5.37 0 0 1-.98 3.08l-7.42 10.527h7.616c.504 0 .784.42.784.813 0 .364-.28.784-.784.784zm9.1.476c-5.936 0-5.992-7.1-5.992-11.2 0-4.004.616-9.716 5.964-9.716 5.236 0 6.02 5.376 6.02 9.716 0 4.06-.084 11.2-5.992 11.2zm4.396-11.2c0-4.004-.56-8.12-4.396-8.12-4.2 0-4.396 5.15-4.396 8.12v1.792c0 3.248.616 7.813 4.368 7.813 3.836 0 4.424-4.564 4.424-7.812v-1.792zm22.903-3.024l-7.588 17.948c-.56 1.315-1.708 1.68-2.996 1.68h-1.232c-.504 0-.784-.42-.784-.812 0-.363.28-.783.784-.783H69.7c.616 0 1.26-.028 1.512-.673l1.596-3.808-5.796-13.552c-.056-.14-.056-.252-.056-.364 0-.448.392-.756.812-.756.252 0 .56.112.7.476l5.208 12.152 5.152-12.152c.14-.363.448-.476.728-.476.42 0 .784.308.784.756 0 .112 0 .225-.056.364z"/><use xlink:href="#F"/><use xlink:href="#G"/><use xlink:href="#H"/><path d="M128.693 866.018c-1.68 0-4.508-.59-5.488-2.213-.112-.168-.112-.308-.112-.42a.86.86 0 0 1 .812-.84c.168 0 .448.14.616.393 1.008 1.23 2.8 1.483 4.172 1.483 2.716 0 4.088-.896 4.088-2.716 0-4.228-9.184-1.988-9.184-7.588 0-2.828 2.828-3.92 5.376-3.92 1.456 0 3.696.504 4.816 1.624.168.168.252.364.252.532 0 .42-.42.84-.868.84-.168 0-.364-.057-.532-.225-.868-.84-2.436-1.176-3.668-1.176-2.464 0-3.78.952-3.78 2.324 0 3.92 9.184 1.848 9.184 7.588 0 3.192-2.8 4.312-5.684 4.312z"/><use xlink:href="#G" x="45.134"/><path d="M166.856 871.87c-2.38 0-5.74-.896-5.74-1.904 0-.447.364-.896.812-.896.308 0 .952.476 1.484.672.728.252 1.876.532 3.444.532 3.584 0 5.432-1.765 5.432-5.208v-1.96c-1.232 1.483-2.996 2.38-5.432 2.38-4.424 0-7.028-3.136-7.028-7.448 0-4.2 2.52-7.896 7.028-7.896 2.436 0 4.256 1.008 5.432 2.632v-1.345c0-.504.42-.783.812-.783a.78.78 0 0 1 .784.783v13.637c0 4.452-2.66 6.804-7.028 6.804zm0-20.132c-3.304 0-5.432 2.66-5.432 6.3 0 3.612 1.988 5.852 5.432 5.852s5.432-2.24 5.432-5.852c0-3.64-2.1-6.3-5.432-6.3z"/><use xlink:href="#I"/><path d="M194.604 867.978c-.112.084-.28.1-.42.1-.448 0-.756-.392-.756-.812 0-.784 1.204-.896 1.4-1.792a1.62 1.62 0 0 1-1.512-1.597c0-.95.784-1.624 1.624-1.624 1.372 0 1.68 1.4 1.68 2.27 0 1.372-.728 2.687-2.016 3.444zM40.72 897.466h-.868c-2.212 0-3.304-1.092-3.304-3.276v-9.996H35.12c-.504 0-.784-.42-.784-.812 0-.364.28-.784.784-.784h1.428v-4.284c0-.504.42-.784.812-.784s.784.28.784.784v4.284h2.576c.504 0 .784.42.784.784 0 .392-.28.812-.784.812h-2.576v9.996c0 1.372.392 1.68 1.708 1.68h.868c.504 0 .784.42.784.813 0 .364-.28.784-.784.784zm14.757 0c-.392 0-.812-.28-.812-.784v-8.176a4.77 4.77 0 0 0-4.788-4.788c-2.632 0-4.788 2.128-4.788 4.788v8.176c0 .504-.42.784-.784.784-.392 0-.812-.28-.812-.784v-18.368c0-.504.42-.784.812-.784.364 0 .784.28.784.784v5.964c1.176-1.372 2.884-2.155 4.788-2.155a6.44 6.44 0 0 1 6.384 6.384v8.176c0 .504-.42.784-.784.784z"/><use xlink:href="#F" x="-22.312" y="31.98"/><path d="M93.304 895.814c-1.232 1.372-2.94 2.128-5.012 2.128-4.508 0-7.028-3.696-7.028-7.924 0-4.2 2.52-7.896 7.028-7.896 2.072 0 3.78.756 5.012 2.128a.74.74 0 0 1 .224.531c0 .42-.392.84-.812.84-.196 0-.392-.084-.588-.28-.924-1.036-2.212-1.624-3.836-1.624-3.304 0-5.432 2.66-5.432 6.3s2.128 6.328 5.432 6.328c1.624 0 2.912-.616 3.836-1.624.196-.196.392-.28.588-.28.42 0 .812.364.812.813 0 .195-.056.363-.224.56z"/><use xlink:href="#I" x="-80.972" y="31.98"/><path d="M124.244 897.466c-.392 0-.812-.28-.812-.784v-.896c-1.176 1.372-2.884 2.156-4.788 2.156-3.472 0-6.384-2.912-6.384-6.384v-8.176c0-.504.42-.784.812-.784.364 0 .784.28.784.784v8.176a4.788 4.788 0 1 0 9.576 0v-8.176c0-.504.42-.784.812-.784.364 0 .784.28.784.784v13.3c0 .504-.42.784-.784.784zm16.184 0c-.392 0-.812-.28-.812-.784v-8.176a4.77 4.77 0 0 0-4.788-4.788c-2.632 0-4.788 2.128-4.788 4.788v8.176c0 .504-.42.784-.784.784-.392 0-.812-.28-.812-.784v-13.3c0-.504.42-.784.812-.784.364 0 .784.28.784.784v.896c1.26-1.372 2.912-2.155 4.788-2.155a6.44 6.44 0 0 1 6.384 6.384v8.176c0 .504-.42.784-.784.784zm9.072 0h-.868c-2.212 0-3.304-1.092-3.304-3.276v-9.996H143.9c-.504 0-.784-.42-.784-.812 0-.364.28-.784.784-.784h1.428v-4.284c0-.504.42-.784.812-.784s.784.28.784.784v4.284h2.576c.504 0 .784.42.784.784 0 .392-.28.812-.784.812h-2.576v9.996c0 1.372.392 1.68 1.708 1.68h.868c.504 0 .784.42.784.813 0 .364-.28.784-.784.784z"/><use xlink:href="#H" x="36.935" y="31.97"/><path d="M173.02 883.718l-7.588 17.948c-.56 1.315-1.708 1.68-2.996 1.68h-1.232c-.504 0-.784-.42-.784-.812 0-.364.28-.784.784-.784h1.232c.616 0 1.26-.028 1.512-.673l1.596-3.808-5.796-13.552c-.056-.14-.056-.252-.056-.364 0-.448.392-.756.812-.756.252 0 .56.112.7.476l5.208 12.152 5.152-12.152c.14-.363.448-.476.728-.476.42 0 .784.308.784.756 0 .112 0 .225-.056.364z"/><use xlink:href="#J"/><path d="M65.025 929.447h-.028c-.924 0-2.24-.504-2.772-2.184-1.176 1.65-2.996 2.66-5.432 2.66-4.564 0-7.028-3.752-7.028-7.924 0-4.228 2.52-7.896 7.028-7.896 2.436 0 4.256 1.008 5.432 2.632v-1.372c0-.448.364-.784.812-.784.392 0 .784.28.784.784v11.284c0 1.792 2.016.672 2.016 2.016a.77.77 0 0 1-.812.784zM56.793 915.7c-3.304 0-5.432 2.66-5.432 6.3s2.128 6.328 5.432 6.328c3.332 0 5.432-2.687 5.432-6.328s-2.1-6.3-5.432-6.3zm23.66 13.747c-.392 0-.812-.28-.812-.784v-1.4c-1.176 1.65-2.996 2.66-5.432 2.66-4.508 0-7.028-3.695-7.028-7.924 0-4.2 2.52-7.896 7.028-7.896 2.436 0 4.256 1.008 5.432 2.632v-6.44c0-.504.42-.783.812-.783a.78.78 0 0 1 .784.783v18.368c0 .504-.42.784-.784.784zM74.2 915.7c-3.304 0-5.432 2.66-5.432 6.3s2.128 6.328 5.432 6.328c3.332 0 5.432-2.687 5.432-6.328s-2.1-6.3-5.432-6.3zm21.866 13.747h-.868c-2.212 0-3.304-1.092-3.304-3.276v-9.995h-1.428c-.504 0-.784-.42-.784-.812 0-.364.28-.784.784-.784h1.428v-4.284c0-.504.42-.783.812-.783s.784.28.784.783v4.284h2.576c.504 0 .784.42.784.784 0 .392-.28.813-.784.813H93.5v9.995c0 1.372.392 1.68 1.708 1.68h.868c.504 0 .784.42.784.812 0 .364-.28.784-.784.784z"/><use xlink:href="#J" x="64.372"/><path d="M127.408 922.81h-11.62c.252 3.19 2.324 5.516 5.376 5.516 1.512 0 3.304-.672 4.116-1.932.196-.31.42-.393.672-.393.42 0 .868.336.868.757 0 .252 0 .308-.532.924-1.288 1.512-3.164 2.24-5.124 2.24-4.508 0-7.028-3.695-7.028-7.924 0-4.2 2.52-7.896 7.028-7.896s7.028 3.724 7.028 7.896c0 .42-.392.813-.784.813zm-6.244-7.112c-3.36 0-5.124 2.576-5.376 5.516h10.78c-.252-3.19-2.324-5.516-5.404-5.516z"/><use xlink:href="#K"/><path d="M149.22 929.922c-4.508 0-7.028-3.695-7.028-7.924 0-4.2 2.52-7.896 7.028-7.896s7.028 3.695 7.028 7.896c0 4.23-2.52 7.924-7.028 7.924zm0-14.224c-3.304 0-5.432 2.66-5.432 6.3s2.128 6.328 5.432 6.328c3.332 0 5.432-2.687 5.432-6.328s-2.1-6.3-5.432-6.3z"/><use xlink:href="#L"/><path d="M192.254 922.8h-11.62c.252 3.2 2.324 5.516 5.376 5.516 1.512 0 3.304-.672 4.116-1.932.196-.3.42-.393.672-.393.42 0 .868.336.868.757 0 .252 0 .308-.532.924-1.288 1.512-3.164 2.24-5.124 2.24-4.508 0-7.028-3.695-7.028-7.924 0-4.2 2.52-7.896 7.028-7.896s7.028 3.724 7.028 7.896c0 .42-.392.813-.784.813zM186 915.7c-3.36 0-5.124 2.576-5.376 5.516h10.78c-.252-3.2-2.324-5.516-5.404-5.516zm14.486 14.28c-1.68 0-4.508-.588-5.488-2.212-.112-.168-.112-.3-.112-.42a.86.86 0 0 1 .812-.841c.168 0 .448.14.616.393 1.008 1.23 2.8 1.483 4.172 1.483 2.716 0 4.088-.896 4.088-2.716 0-4.228-9.184-1.987-9.184-7.588 0-2.828 2.828-3.92 5.376-3.92 1.456 0 3.696.504 4.816 1.624.168.168.252.364.252.532 0 .42-.42.84-.868.84a.74.74 0 0 1-.532-.224c-.868-.84-2.436-1.177-3.668-1.177-2.464 0-3.78.952-3.78 2.324 0 3.92 9.184 1.85 9.184 7.588 0 3.192-2.8 4.312-5.684 4.312z"/><use xlink:href="#M"/><use xlink:href="#N"/><path d="M57.124 961.426h-.028c-.924 0-2.24-.504-2.772-2.184-1.176 1.65-2.996 2.66-5.432 2.66-4.564 0-7.028-3.752-7.028-7.924 0-4.228 2.52-7.896 7.028-7.896 2.436 0 4.256 1.008 5.432 2.632v-1.372c0-.448.364-.784.812-.784.392 0 .784.28.784.784v11.284c0 1.792 2.016.672 2.016 2.016a.77.77 0 0 1-.812.784zm-8.232-13.748c-3.304 0-5.432 2.66-5.432 6.3s2.128 6.328 5.432 6.328c3.332 0 5.432-2.687 5.432-6.328s-2.1-6.3-5.432-6.3z"/><use xlink:href="#M" x="-148.626" y="31.979"/><use xlink:href="#O"/><use xlink:href="#L" x="-68.715" y="31.979"/><path d="M117.294 961.902c-4.508 0-7.028-3.695-7.028-7.924 0-4.2 2.52-7.896 7.028-7.896s7.028 3.696 7.028 7.896c0 4.23-2.52 7.924-7.028 7.924zm0-14.224c-3.304 0-5.432 2.66-5.432 6.3s2.128 6.328 5.432 6.328c3.332 0 5.432-2.687 5.432-6.328s-2.1-6.3-5.432-6.3z"/><use xlink:href="#N" x="92.618"/><use xlink:href="#K" x="-1.489" y="31.979"/><use xlink:href="#P"/><use xlink:href="#L" x="-0.845" y="31.979"/><path d="M179.593 943.87c-.896 0-1.596-.7-1.596-1.597s.7-1.596 1.596-1.596 1.596.7 1.596 1.596-.7 1.597-1.596 1.597zm0 17.556c-.392 0-.812-.252-.812-.784v-13.3c0-.504.392-.784.812-.784.364 0 .784.252.784.784v13.3c0 .504-.364.784-.784.784z"/><use xlink:href="#P" x="42.447"/><use xlink:href="#O" x="132.803"/></g><g fill="#fff"><path d="M34.41 388.272v-2.4h3.52v-23.196l-3.6.32v-1.76c1.64-.4 3.24-1.12 4.56-2.238h1.92v26.875h3.36v2.4H34.41z"/><use xlink:href="#Q"/><use xlink:href="#Q" x="16.959"/><use xlink:href="#Q" x="33.918"/></g><path d="M61.877 223.97h-1.72v3.12c0 1.08-.92 1.68-1.72 1.68-.84 0-1.72-.6-1.72-1.68v-3.12H47.16c-1.12 0-1.8-.68-1.8-1.6 0-.24.04-.56.24-.88l11.038-20.996c.32-.64.92-.92 1.44-.92.92 0 1.8.72 1.8 1.64 0 .28-.04.56-.24.88L49.96 220.57h6.76V216c0-1.16.84-1.76 1.68-1.76.88 0 1.76.56 1.76 1.72v4.6h1.72c1.12 0 1.72.8 1.72 1.72 0 .88-.6 1.68-1.72 1.68zm5.833-16.938c-2.028 0-3.684-1.842-3.684-4.104s1.655-4.08 3.684-4.08c2.005 0 3.66 1.82 3.66 4.08s-1.655 4.104-3.66 4.104zm0-6.2c-.746 0-1.68.746-1.68 2.098s.933 2.1 1.68 2.1 1.68-.746 1.68-2.1-.933-2.098-1.68-2.098zm9.723-1.143l-4.3 15.435c-.116.513-.513.746-.9.746-.536 0-1.05-.373-1.05-.98 0-.07 0-.187.023-.28l4.313-15.458a.95.95 0 0 1 .933-.723c.5 0 1.026.35 1.026.933 0 .116-.023.2-.047.326zm3.3 15.76c-2.005 0-3.66-1.842-3.66-4.104 0-2.238 1.655-4.08 3.66-4.08 2.028 0 3.684 1.842 3.684 4.08 0 2.262-1.655 4.104-3.684 4.104zm0-6.2c-.723 0-1.656.746-1.656 2.098 0 1.376.933 2.122 1.656 2.122.746 0 1.68-.746 1.68-2.122 0-1.352-.933-2.098-1.68-2.098zm219.61 34.924c-7.687 0-13.924-6.237-13.924-13.86 0-4.85 2.33-8.946 6.1-11.467-2.835-2.268-4.474-5.606-4.474-9.45 0-6.74 5.48-12.285 12.286-12.285 6.74 0 12.285 5.544 12.285 12.285 0 3.844-1.638 7.183-4.473 9.45 3.654 2.52 6.048 6.616 6.048 11.404 0 7.687-6.174 13.924-13.86 13.924zm0-22.492c-4.726 0-8.568 3.97-8.568 8.568 0 4.725 3.906 8.568 8.505 8.568 4.726 0 8.568-3.906 8.568-8.506 0-4.725-3.906-8.63-8.505-8.63zm0-19.153c-3.97 0-6.867 3.087-6.867 6.867 0 3.844 2.897 6.993 6.867 6.993 3.78 0 6.867-3.15 6.867-6.993 0-3.78-3.087-6.867-6.867-6.867zm41.643 1.512l-14.5 37.36c-.504 1.26-1.26 1.765-2.33 1.765-1.387 0-2.835-1.07-2.835-2.646 0-.378.126-.693.252-1.07l13.734-35.85h-16.822c-1.386 0-2.646-1-2.646-2.7 0-1.45 1.197-2.646 2.646-2.646h20.73c1.386 0 2.772.882 2.772 2.7 0 .756-.82 2.457-1 3.087zm12.835 7.825c-3.195 0-5.804-2.9-5.804-6.464s2.608-6.428 5.804-6.428c3.158 0 5.766 2.865 5.766 6.428s-2.607 6.464-5.766 6.464zm0-9.77c-1.176 0-2.645 1.175-2.645 3.306s1.47 3.306 2.645 3.306 2.645-1.176 2.645-3.306-1.47-3.306-2.645-3.306zm15.315-1.8l-6.758 24.313c-.184.8-.8 1.176-1.433 1.176-.845 0-1.652-.588-1.652-1.543 0-.1 0-.294.036-.44l6.795-24.35c.22-.77.845-1.14 1.47-1.14.77 0 1.616.55 1.616 1.47 0 .184-.037.33-.073.514zm5.215 24.828c-3.158 0-5.766-2.9-5.766-6.464 0-3.526 2.607-6.428 5.766-6.428 3.195 0 5.804 2.9 5.804 6.428 0 3.563-2.608 6.464-5.804 6.464zm0-9.77c-1.14 0-2.607 1.175-2.607 3.306 0 2.167 1.47 3.342 2.607 3.342 1.176 0 2.645-1.175 2.645-3.342 0-2.13-1.47-3.306-2.645-3.306z"/><g opacity=".5" fill="#fff"><path d="M42.328 1046.045c-3.568 0-5.47-1.97-5.503-2.002 0 .935-.7 1.4-1.468 1.4-.7 0-1.4-.467-1.4-1.4v-20.88a1.35 1.35 0 0 1 1.401-1.434c.767 0 1.468.467 1.468 1.4v6.238c1.334-1.368 3.168-2.17 5.503-2.17 5.37 0 8.373 4.403 8.373 9.406 0 5.037-3.002 9.44-8.373 9.44zm0-16c-3.335 0-5.503 2.602-5.503 6.57 0 4.003 2.168 6.604 5.503 6.604s5.504-2.602 5.504-6.604c0-3.97-2.168-6.57-5.504-6.57zm25.555 8.037h-12.34c.467 3.136 2.468 5.137 5.403 5.137 1.5 0 3.002-.533 3.97-1.734.3-.333.634-.533 1.034-.533.734 0 1.5.667 1.5 1.468 0 .4-.1.7-.8 1.4-1.5 1.468-3.57 2.235-5.704 2.235-5.37 0-8.372-4.437-8.372-9.44 0-4.97 3.002-9.406 8.372-9.406 5.437 0 8.34 4.437 8.34 9.406 0 .734-.534 1.468-1.4 1.468zm-6.937-8.038c-3.136 0-4.97 2.3-5.403 5.17H66.35c-.467-3.202-2.468-5.17-5.403-5.17zM88 1045.478c-1.834 0-2.668-1.3-2.97-1.9-1.334 1.468-3.27 2.47-5.87 2.47-5.437 0-8.372-4.47-8.372-9.44s3.002-9.406 8.372-9.406c2.335 0 4.203.834 5.504 2.202v-.134c0-.367.133-1.5 1.4-1.5.7 0 1.468.367 1.468 1.4v12.875c0 .434.3.6.467.6.935 0 1.435.667 1.435 1.434a1.37 1.37 0 0 1-1.435 1.401zm-8.84-15.443c-3.336 0-5.504 2.602-5.504 6.57 0 4.003 2.168 6.604 5.504 6.604 3.37 0 5.504-2.602 5.504-6.604 0-3.97-2.135-6.57-5.504-6.57z"/><use xlink:href="#R"/><path d="M115.158 1045.478h-.567c-3.17 0-4.37-1.668-4.37-4.403V1030.6h-1c-.8 0-1.435-.634-1.435-1.4 0-.8.634-1.435 1.4-1.435h1v-4.637c0-.934.7-1.4 1.435-1.4s1.4.467 1.4 1.4v4.637h2.135c.934 0 1.4.768 1.4 1.4 0 .8-.533 1.434-1.4 1.434h-2.135v10.774c0 .934.333 1.268 1.268 1.268h.833c.868 0 1.435.634 1.435 1.4 0 .8-.533 1.435-1.4 1.435zm4.604-20.415a2.402 2.402 0 1 1 0-4.803 2.402 2.402 0 1 1 0 4.803zm0 20.414c-.733 0-1.467-.5-1.467-1.4V1029.2c0-.935.733-1.435 1.467-1.435a1.37 1.37 0 0 1 1.401 1.435v14.876c0 .935-.7 1.4-1.4 1.4zm10.376-14.877h-1.5v13.442c0 .935-.7 1.4-1.468 1.4-.7 0-1.4-.467-1.4-1.4V1030.6h-1.37c-.9 0-1.4-.667-1.4-1.4 0-.768.5-1.435 1.4-1.435h1.367v-2.27c0-2.135 1.77-3.77 3.836-3.77.968 0 1.468.667 1.468 1.434 0 .7-.5 1.4-1.468 1.4-.566 0-.967.434-.967.9v2.302h1.5c.967 0 1.468.667 1.468 1.435 0 .733-.5 1.4-1.468 1.4z"/><use xlink:href="#R" x="42.068"/><path d="M154.725 1045.544c-1.802 0-3.336-1.534-3.336-3.402v-18.98c0-.967.7-1.434 1.435-1.434s1.435.467 1.435 1.4v19.013c0 .4.3.567.467.567.934 0 1.435.667 1.435 1.435 0 .733-.5 1.4-1.435 1.4zm15.37-.066v-1.264c1.886-.237 2.046-.437 2.046-3.157v-6.7c0-2.8-1.248-4.017-3.064-4.017-1.237 0-2.345.6-3.47 1.493v9.476c0 2.527.187 2.658 2.06 2.896v1.264h-8.968v-1.264c2.254-.33 2.5-.4 2.5-3v-8.2c0-2.446-.303-2.565-2.185-2.922v-1.184c2.173-.292 4.63-.807 6.653-1.533l-.052 2.95 2.6-1.745c1.16-.713 2-1.086 3.16-1.086 3.194 0 5.2 2.338 5.2 6.3v7.5c0 2.54.237 2.657 2.277 2.92v1.264h-8.74zm23.9-3.703c-2.458 3.427-5.488 4.178-7.014 4.178-5.142 0-8.124-3.936-8.124-8.594 0-2.745 1.183-5.396 2.832-7.062 1.74-1.8 3.945-2.814 6.082-2.814 3.73 0 6.396 3.126 6.37 6.347-.014.715-.08 1.277-.612 1.4-.767.184-6.17.5-10.318.647.062 4.587 2.717 6.74 5.556 6.74 1.572 0 3.104-.597 4.543-1.866l.686 1.014zm-7.07-12.7c-1.667 0-3.167 1.807-3.516 4.963l5.486-.118c.6-.026.848-.146.848-.792.04-2.022-1.037-4.053-2.818-4.053zm34.284.145c-1.943.343-2.248.624-3.105 2.765-1.33 3.462-3.102 8.53-4.934 13.94h-1.512l-4.65-11.46-4.55 11.46h-1.472l-4.685-14.192c-.687-1.985-.94-2.274-2.855-2.512v-1.25h9.397v1.25c-2.325.345-2.535.672-2.058 2.133l2.52 8.214c1.507-3.68 2.988-7.62 4.327-11.424h1.456c1.4 3.76 2.986 7.702 4.573 11.568.742-2.107 2.062-5.964 2.557-8.108.412-1.674-.008-2.078-2.753-2.383v-1.25h7.742v1.25zm9.4 3.746c-.92-2.606-2.155-3.984-4.2-3.984-1.206 0-2.225.86-2.225 2.266 0 1.497 1.046 2.264 3.16 3.216 3.278 1.496 5.3 2.787 5.3 5.736 0 3.85-3.6 5.764-6.945 5.764-2.06 0-4.088-.737-4.92-1.16l-.662-4.892 1.252-.224c.8 2.5 2.33 4.75 4.976 4.75 1.505 0 2.438-.952 2.438-2.28 0-1.423-.76-2.333-3.092-3.467-2.67-1.295-5.107-2.64-5.107-5.775 0-3.046 2.533-5.42 6.565-5.42 1.818 0 3.242.396 4.112.567l.62 4.577-1.25.328z"/></g><g opacity=".8" fill="#fff"><use xlink:href="#S"/><use xlink:href="#T"/><path d="M842.94 1045.978c-.28 0-.58-.2-.58-.56v-.64c-.84.98-2.06 1.54-3.42 1.54-2.48 0-4.56-2.08-4.56-4.56v-5.842c0-.36.3-.56.58-.56.26 0 .56.2.56.56v5.842c0 1.9 1.52 3.42 3.42 3.42s3.42-1.52 3.42-3.42v-5.842c0-.36.3-.56.58-.56.26 0 .56.2.56.56v9.502c0 .36-.3.56-.56.56z"/><use xlink:href="#U"/><path d="M861.08 1044.797c-.88.98-2.1 1.52-3.58 1.52-3.22 0-5.02-2.64-5.02-5.66 0-3 1.8-5.64 5.02-5.64 1.48 0 2.7.54 3.58 1.52a.53.53 0 0 1 .16.381.63.63 0 0 1-.58.6c-.14 0-.28-.06-.42-.2-.66-.74-1.58-1.16-2.74-1.16-2.36 0-3.88 1.9-3.88 4.5s1.52 4.52 3.88 4.52c1.16 0 2.08-.44 2.74-1.16.14-.14.28-.2.42-.2.3 0 .58.26.58.58a.57.57 0 0 1-.16.399zm11.582-3.56h-8.302c.18 2.28 1.66 3.94 3.84 3.94 1.08 0 2.36-.48 2.94-1.38.14-.22.3-.28.48-.28.3 0 .62.24.62.54 0 .18 0 .22-.38.66-.92 1.08-2.26 1.6-3.66 1.6-3.22 0-5.02-2.64-5.02-5.66 0-3 1.8-5.64 5.02-5.64s5.02 2.66 5.02 5.64c0 .3-.28.58-.56.58zm-4.46-5.08c-2.4 0-3.66 1.84-3.84 3.94h7.7c-.18-2.28-1.66-3.94-3.86-3.94z"/><use xlink:href="#S" x="62.5"/><path d="M886.14 1039.417c-.64 0-1.16-.5-1.16-1.14s.52-1.14 1.16-1.14c.62 0 1.12.5 1.12 1.14s-.5 1.14-1.12 1.14zm0 6.562c-.64 0-1.16-.5-1.16-1.14s.52-1.14 1.16-1.14c.62 0 1.12.5 1.12 1.14s-.5 1.14-1.12 1.14zm23.082-13.523l-3.52 13.103a.55.55 0 0 1-.56.42c-.24 0-.48-.14-.54-.42l-3-11.083-2.98 11.083c-.06.28-.3.42-.54.42-.26 0-.48-.14-.56-.42l-3.52-13.103c-.02-.06-.02-.12-.02-.18a.58.58 0 0 1 .58-.58c.26 0 .46.14.52.44l3 11.082 2.98-11.082c.08-.28.3-.4.54-.4.26 0 .48.12.56.4l2.98 11.082 3-11.082c.08-.3.28-.44.52-.44a.58.58 0 0 1 .58.58c0 .06 0 .12-.02.18z"/><use xlink:href="#T" x="88.58"/><use xlink:href="#U" x="76.8"/><path d="M931.72 1046.098c-1.08 0-1.98-1-1.98-2.12v-11.683c0-.36.3-.56.58-.56.26 0 .56.2.56.56v11.683c0 1.28 1.42.54 1.42 1.44 0 .34-.24.68-.58.68zm11.42-.12c-.28 0-.58-.2-.58-.56v-1c-.84 1.18-2.14 1.9-3.88 1.9-3.22 0-5.02-2.64-5.02-5.66 0-3 1.8-5.64 5.02-5.64 1.74 0 3.04.72 3.88 1.88v-4.6c0-.36.3-.56.58-.56.26 0 .56.2.56.56v13.122c0 .36-.3.56-.56.56zm-4.46-9.822c-2.36 0-3.88 1.9-3.88 4.5s1.52 4.52 3.88 4.52c2.38 0 3.88-1.92 3.88-4.52s-1.5-4.5-3.88-4.5zm19.14 9.822h-5.802c-.3 0-.58-.28-.58-.56v-13.122c0-.34.18-.56.52-.56h5.42c1.98 0 3.6 1.64 3.6 3.56 0 1.18-.52 2.2-1.42 2.86a4.06 4.06 0 0 1 2.38 3.721c0 2.28-1.84 4.1-4.12 4.1zm-.44-13.123h-4.8v4.92h4.8c1.62 0 2.46-1.44 2.46-2.44 0-1.38-1.12-2.48-2.46-2.48zm.44 6.062h-5.24v5.92h5.24c1.64 0 2.98-1.32 2.98-2.96s-1.34-2.96-2.98-2.96z"/><use xlink:href="#V"/><path d="M985.72 1045.978c-.28 0-.58-.2-.58-.56v-5.84c0-1.9-1.52-3.42-3.42-3.42a3.42 3.42 0 0 0-3.421 3.421v5.84c0 .36-.3.56-.56.56-.28 0-.58-.2-.58-.56v-9.502c0-.36.3-.56.58-.56.26 0 .56.2.56.56v.64c.9-.98 2.08-1.54 3.42-1.54a4.6 4.6 0 0 1 4.561 4.561v5.84c0 .36-.3.56-.56.56zm10.7-9.64l-3.44 3.44 3.4 5.32c.06.08.12.2.12.32 0 .28-.3.54-.6.54-.18 0-.36-.08-.48-.26l-3.28-5.1-2.06 2.08v2.74c0 .36-.3.56-.56.56-.28 0-.58-.2-.58-.56v-13.122c0-.36.3-.56.58-.56.26 0 .56.2.56.56v8.762l5.52-5.52a.56.56 0 0 1 .42-.18c.32 0 .58.26.58.56a.56.56 0 0 1-.181.421zm12.04 9.64h-4.44c-.3 0-.58-.28-.58-.56v-13.122c0-.3.28-.56.58-.56h4.44c4.12 0 5.48 3.44 5.48 7.102 0 3.72-1.36 7.142-5.48 7.142zm0-13.123h-3.88v11.982h3.88c3.42 0 4.34-2.96 4.34-5.98 0-3.562-1.24-6.002-4.34-6.002z"/><use xlink:href="#V" x="52.12"/><path d="M1032.938 1045.978h-.62c-1.58 0-2.36-.78-2.36-2.34v-7.142h-1.02c-.36 0-.56-.3-.56-.58 0-.26.2-.56.56-.56h1.02v-3.06c0-.36.3-.56.58-.56s.56.2.56.56v3.06h1.84c.36 0 .56.3.56.56 0 .28-.2.58-.56.58h-1.84v7.142c0 .98.28 1.2 1.22 1.2h.62c.36 0 .56.3.56.58 0 .26-.2.56-.56.56z"/><use xlink:href="#V" x="71"/></g><g fill="#fff"><path d="M70.358 80.06c-1.26 0-2.52-.9-2.52-2.58v-27.6L56.2 71.6c-.78 1.5-1.92 1.62-2.4 1.62-.3 0-1.56-.12-2.4-1.62L39.82 50v27.48c0 1.68-1.26 2.58-2.64 2.58-1.26 0-2.52-.9-2.52-2.58V39.982c0-1.98 1.38-2.7 2.76-2.7.9 0 1.62.42 2.16 1.5L53.8 65.24l14.28-26.46c.6-1.2 1.32-1.5 2.34-1.5 1.32 0 2.58.84 2.58 2.7v37.5c0 1.68-1.26 2.58-2.64 2.58zm22.442.96c-9.66 0-15.06-7.92-15.06-16.98 0-9 5.4-16.92 15.06-16.92s15.06 7.92 15.06 16.92c0 9.06-5.4 16.98-15.06 16.98zm0-28.8c-6 0-9.9 4.68-9.9 11.82 0 7.2 3.9 11.88 9.9 11.88 6.06 0 9.9-4.68 9.9-11.88 0-7.14-3.84-11.82-9.9-11.82z"/><use xlink:href="#W"/><path d="M155.978 66.68h-22.2c.84 5.64 4.44 9.24 9.72 9.24 2.7 0 5.4-.96 7.14-3.12.54-.6 1.14-.96 1.86-.96 1.32 0 2.7 1.2 2.7 2.64 0 .72-.18 1.26-1.44 2.52-2.7 2.64-6.42 4.02-10.26 4.02-9.66 0-15.06-7.98-15.06-16.98 0-8.94 5.4-16.92 15.06-16.92 9.78 0 15 7.98 15 16.92 0 1.32-.96 2.64-2.52 2.64zm-12.48-14.46c-5.64 0-8.94 4.14-9.72 9.3h19.44c-.84-5.76-4.44-9.3-9.72-9.3zM205.056 80c-.9 0-1.8-.48-2.28-1.56l-3.18-7.8h-19.98l-3.24 7.8c-.48 1.08-1.38 1.56-2.22 1.56-1.32 0-2.7-1.02-2.7-2.52 0-.36.06-.72.24-1.02l15.42-37.498c.72-1.56 1.68-1.86 2.46-1.86.54 0 1.86.3 2.46 1.86l15.48 37.498a2.81 2.81 0 0 1 .18 1.02c0 1.5-1.26 2.52-2.64 2.52zm-15.48-33.6l-7.86 19.08h15.72l-7.86-19.08zm29.7 6.842h-2.7v24.18c0 1.68-1.26 2.52-2.64 2.52-1.26 0-2.52-.84-2.52-2.52v-24.18h-2.46c-1.62 0-2.52-1.2-2.52-2.52 0-1.38.9-2.58 2.52-2.58h2.46v-4.08c0-3.84 3.18-6.78 6.9-6.78 1.74 0 2.64 1.2 2.64 2.58 0 1.26-.9 2.52-2.64 2.52-1.02 0-1.74.78-1.74 1.62v4.14h2.7c1.74 0 2.64 1.2 2.64 2.58 0 1.32-.9 2.52-2.64 2.52z"/><use xlink:href="#X"/><path d="M283.354 80c-1.32 0-2.52-.9-2.52-2.52V60.8c0-4.68-3.9-8.58-8.58-8.58-4.62 0-8.52 3.9-8.52 8.58v16.62c0 1.68-1.26 2.64-2.64 2.64-1.26 0-2.52-.9-2.52-2.58V39.862c0-1.74 1.26-2.58 2.52-2.58 1.38 0 2.64.84 2.64 2.52v10.38c2.22-2.1 5.22-3.06 8.52-3.06 7.44 0 13.68 6.18 13.68 13.68v16.62c0 1.68-1.2 2.58-2.58 2.58zm37.74 0c-3.3 0-4.8-2.34-5.34-3.42-2.4 2.64-5.88 4.44-10.56 4.44-9.78 0-15.06-8.04-15.06-16.98s5.4-16.92 15.06-16.92c4.2 0 7.56 1.5 9.9 3.96v-.24c0-.66.24-2.7 2.52-2.7 1.26 0 2.64.66 2.64 2.52v23.16c0 .78.54 1.08.84 1.08 1.68 0 2.58 1.2 2.58 2.58 0 1.26-.9 2.52-2.58 2.52zm-15.9-27.78c-6 0-9.9 4.68-9.9 11.82 0 7.2 3.9 11.88 9.9 11.88 6.06 0 9.9-4.68 9.9-11.88 0-7.14-3.84-11.82-9.9-11.82z"/><use xlink:href="#Y"/><path d="M388.533 81.02c-13.2 0-17.46-11.1-17.46-22.38 0-11.58 4.56-22.44 17.46-22.44 5.46 0 10.02 1.92 13.32 6.54.36.48.54 1.02.54 1.5 0 1.44-1.5 2.58-2.88 2.58-1.08 0-1.2-.48-2.16-1.56-1.92-2.34-4.5-3.9-8.82-3.9-9.24 0-12.3 7.86-12.3 17.28 0 8.22 2.22 17.28 12.3 17.28 7.32 0 11.7-5.22 12.12-13.86h-5.4c-1.74 0-2.64-1.26-2.64-2.58s.9-2.58 2.52-2.58h8.22c1.56 0 2.64 1.08 2.64 2.64-.24 11.22-4.74 21.48-17.46 21.48z"/><use xlink:href="#Z"/><use xlink:href="#W" x="308.214"/><path d="M447.452 80.12c-3.24 0-6-2.76-6-6.12V39.86c0-1.74 1.26-2.58 2.58-2.58s2.58.84 2.58 2.52V74c0 .72.54 1.02.84 1.02 1.68 0 2.58 1.2 2.58 2.58 0 1.32-.9 2.52-2.58 2.52zm18.048.9c-3.3 0-8.82-1.02-11.64-4.5-.36-.54-.54-1.08-.54-1.56 0-1.5 1.44-2.7 2.7-2.7.72 0 1.26.36 1.86 1.02 1.86 2.04 4.92 2.64 7.62 2.64 5.4 0 7.14-1.86 7.14-4.56 0-7.68-18.3-2.94-18.3-15.3 0-6.54 6.12-8.94 11.82-8.94 3.24 0 10.86 1.62 10.86 4.98 0 1.32-1.08 2.7-2.52 2.7-.54 0-1.38-.3-1.98-.78-1.62-1.38-3.96-1.8-6.36-1.8-4.98 0-6.72 1.86-6.72 3.84 0 7.14 18.36 2.52 18.36 15.3 0 7.08-5.94 9.66-12.3 9.66zM524.07 80c-.9 0-1.8-.48-2.28-1.56l-3.18-7.8h-19.98l-3.24 7.8C494.9 79.52 494 80 493.17 80c-1.32 0-2.7-1.02-2.7-2.52 0-.36.06-.72.24-1.02l15.42-37.498c.72-1.56 1.68-1.86 2.46-1.86.54 0 1.86.3 2.46 1.86l15.48 37.498a2.8 2.8 0 0 1 .181 1.02c0 1.5-1.26 2.52-2.64 2.52zM508.6 46.4l-7.86 19.08h15.72L508.6 46.4z"/><use xlink:href="#W" x="417.952"/><use xlink:href="#a"/><path d="M611.61 80h-16.14c-1.38 0-2.64-1.26-2.64-2.52V39.862c0-1.44 1.08-2.58 2.52-2.58h14.88c6.12 0 11.22 5.04 11.22 11.1 0 3.24-1.32 6-3.42 7.98 3.84 2.16 6.3 6.24 6.3 10.92 0 6.96-5.76 12.72-12.72 12.72zm-1.38-37.62h-12.24v12.12h12.24c3.84 0 6.06-3.24 6.06-6.06 0-3.3-2.7-6.06-6.06-6.06zm1.38 17.22h-13.62v15.3h13.62c4.08 0 7.56-3.54 7.56-7.62 0-4.2-3.48-7.68-7.56-7.68z"/><use xlink:href="#a" x="81.48"/><use xlink:href="#Z" x="252.837"/><use xlink:href="#Y" x="346.794"/><use xlink:href="#X" x="481.675"/><path d="M781.348 80h-24.96c-1.44 0-2.64-1.14-2.64-2.52V39.862c0-1.44 1.2-2.58 2.64-2.58h24.96c1.56 0 2.52 1.14 2.52 2.52 0 1.26-.9 2.58-2.52 2.58h-22.44v12.12h15.72a2.56 2.56 0 0 1 2.58 2.58c0 1.38-1.02 2.58-2.58 2.58h-15.72V74.9h22.44c1.62 0 2.52 1.26 2.52 2.58 0 1.38-.96 2.52-2.52 2.52z"/><use xlink:href="#b"/><path d="M843.688 80.06c-1.14 0-2.28-.66-2.52-1.98-2.4 1.86-5.34 3-8.64 3-7.44 0-13.68-6.18-13.68-13.68V50.78c0-1.68 1.26-2.58 2.52-2.58 1.38 0 2.64.9 2.64 2.52V67.4c0 4.68 3.9 8.58 8.52 8.58 4.68 0 8.58-3.9 8.58-8.58V50.78c0-1.86 1.2-2.64 2.52-2.64 1.38 0 2.58.9 2.58 2.58v26.82c0 1.68-1.2 2.52-2.52 2.52zm31.86-3.6c-2.64 2.94-6.3 4.56-10.74 4.56-9.66 0-15.06-7.92-15.06-16.98 0-9 5.4-16.92 15.06-16.92 4.44 0 8.1 1.62 10.74 4.56.48.54.72 1.14.72 1.74 0 1.32-1.32 2.58-2.7 2.58-.54 0-1.2-.24-1.86-.84-1.68-1.86-3.9-2.94-6.9-2.94-6 0-9.9 4.68-9.9 11.82 0 7.2 3.9 11.88 9.9 11.88 3 0 5.28-1.14 6.9-2.94.54-.66 1.26-.9 1.86-.9 1.38 0 2.7 1.2 2.7 2.64 0 .54-.24 1.2-.72 1.74zm33.18 3.54c-3.3 0-4.8-2.34-5.34-3.42-2.4 2.64-5.88 4.44-10.56 4.44-9.78 0-15.06-8.04-15.06-16.98s5.4-16.92 15.06-16.92c4.2 0 7.56 1.5 9.9 3.96v-.24c0-.66.24-2.7 2.52-2.7 1.26 0 2.64.66 2.64 2.52v23.16c0 .78.54 1.08.84 1.08 1.68 0 2.58 1.2 2.58 2.58 0 1.26-.9 2.52-2.58 2.52zM892.83 52.22c-6 0-9.9 4.68-9.9 11.82 0 7.2 3.9 11.88 9.9 11.88 6.06 0 9.9-4.68 9.9-11.88 0-7.14-3.84-11.82-9.9-11.82zm31.8 27.78h-1.02c-5.7 0-7.86-3-7.86-7.92V53.24h-1.8c-1.44 0-2.58-1.14-2.58-2.52 0-1.44 1.14-2.58 2.52-2.58h1.8V39.8c0-1.68 1.26-2.52 2.58-2.52s2.52.84 2.52 2.52v8.34h3.84c1.68 0 2.52 1.38 2.52 2.52 0 1.44-.96 2.58-2.52 2.58h-3.84v19.38c0 1.68.6 2.28 2.28 2.28h1.5c1.56 0 2.58 1.14 2.58 2.52 0 1.44-.96 2.58-2.52 2.58z"/><use xlink:href="#a" x="381.176"/><use xlink:href="#b" x="177.178"/></g><g fill="#92b6d7"><path d="M46.263 115.856h-9.58v11.04c0 .71-.592 1.104-1.104 1.104-.552 0-1.144-.395-1.144-1.104v-25.865c0-.592.552-1.104 1.144-1.104h10.646c4.456 0 8.004 3.55 8.004 7.925 0 4.456-3.548 8.004-7.964 8.004zm0-13.72h-9.58v11.474h9.54c3.194 0 5.757-2.523 5.757-5.717s-2.563-5.757-5.717-5.757z"/><use xlink:href="#c"/><path d="M72.165 103.28a2.248 2.248 0 1 1 0-4.495 2.248 2.248 0 1 1 0 4.495zm0 24.722c-.552 0-1.144-.355-1.144-1.104v-18.73c0-.7.552-1.104 1.144-1.104.513 0 1.104.354 1.104 1.104v18.73a1.05 1.05 0 0 1-1.104 1.104zm31.582-.002c-.552 0-1.104-.395-1.104-1.104V113.65c0-2.72-2.287-5.008-5.008-5.008s-5.047 2.287-5.047 4.968v13.288c0 .7-.552 1.104-1.104 1.104s-1.144-.395-1.144-1.104V113.65c0-2.72-2.287-5.008-4.97-5.008-2.76 0-5.047 2.287-5.047 4.968v13.288c0 .7-.6 1.104-1.104 1.104-.552 0-1.144-.395-1.144-1.104v-18.73c0-.7.592-1.104 1.144-1.104.513 0 1.104.395 1.104 1.104v.237c1.302-1.262 3.076-2.012 5.008-2.012 2.523 0 4.77 1.262 6.15 3.352 1.3-2 3.548-3.352 6.1-3.352 4.1 0 7.294 3.233 7.294 7.216v13.288c0 .7-.592 1.104-1.144 1.104zm26.97 0h-.04c-1.3 0-3.154-.7-3.903-3.075-1.655 2.326-4.22 3.745-7.648 3.745-6.427 0-9.897-5.283-9.897-11.158 0-5.953 3.55-11.12 9.897-11.12 3.43 0 5.993 1.42 7.648 3.707v-1.933c0-.63.513-1.104 1.144-1.104.553 0 1.104.395 1.104 1.104v15.9c0 2.523 2.84.947 2.84 2.84a1.08 1.08 0 0 1-1.144 1.104zm-11.592-19.36c-4.653 0-7.65 3.746-7.65 8.87s2.996 8.9 7.65 8.9c4.7 0 7.648-3.785 7.648-8.9s-2.957-8.87-7.648-8.87z"/><use xlink:href="#c" x="77.437"/><path d="M167.816 108.64l-10.686 25.273c-.788 1.854-2.405 2.366-4.22 2.366h-1.734c-.7 0-1.104-.592-1.104-1.144 0-.513.395-1.104 1.104-1.104h1.734c.867 0 1.774-.04 2.13-.946l2.248-5.362-8.162-19.083c-.08-.197-.08-.355-.08-.513 0-.63.552-1.064 1.144-1.064a1.01 1.01 0 0 1 .986.67l7.333 17.112 7.255-17.112c.197-.513.63-.67 1.025-.67.592 0 1.104.434 1.104 1.064 0 .157 0 .315-.078.513zm20.187 20.1c-2.366 0-6.35-.828-7.73-3.114-.157-.237-.157-.435-.157-.592 0-.63.552-1.183 1.144-1.183.236 0 .63.196.867.552 1.42 1.734 3.942 2.1 5.875 2.1 3.824 0 5.757-1.262 5.757-3.825 0-5.953-12.934-2.8-12.934-10.685 0-3.982 3.982-5.52 7.57-5.52 2.05 0 5.205.7 6.782 2.287.236.236.354.513.354.75 0 .592-.6 1.183-1.222 1.183a1.04 1.04 0 0 1-.749-.315c-1.223-1.183-3.43-1.655-5.166-1.655-3.47 0-5.322 1.34-5.322 3.272 0 5.52 12.933 2.602 12.933 10.685 0 4.495-3.943 6.072-8.004 6.072zm28.19-3.076c-1.735 1.932-4.14 2.996-7.058 2.996-6.35 0-9.896-5.204-9.896-11.158 0-5.914 3.548-11.12 9.896-11.12 2.917 0 5.322 1.065 7.058 2.997.236.236.315.513.315.75 0 .592-.553 1.183-1.144 1.183-.276 0-.552-.118-.828-.394-1.3-1.46-3.115-2.287-5.4-2.287-4.653 0-7.65 3.746-7.65 8.87s2.996 8.9 7.65 8.9c2.286 0 4.1-.867 5.4-2.287.276-.275.552-.394.828-.394.6 0 1.144.512 1.144 1.143 0 .276-.08.513-.315.8zM238.116 128c-.553 0-1.144-.395-1.144-1.104v-11.514c0-3.746-2.997-6.742-6.742-6.742a6.74 6.74 0 0 0-6.742 6.742v11.514c0 .7-.592 1.104-1.104 1.104-.552 0-1.144-.395-1.144-1.104V101.03c0-.7.592-1.104 1.144-1.104.513 0 1.104.395 1.104 1.104v8.397c1.655-1.932 4.06-3.036 6.742-3.036 4.9 0 9 4.062 9 9v11.514c0 .7-.6 1.104-1.104 1.104zm15.337.67c-6.35 0-9.896-5.204-9.896-11.158 0-5.914 3.548-11.12 9.896-11.12s9.896 5.205 9.896 11.12c0 5.954-3.55 11.158-9.896 11.158zm0-20.03c-4.653 0-7.65 3.746-7.65 8.87s2.996 8.9 7.65 8.9c4.7 0 7.648-3.785 7.648-8.9s-2.957-8.87-7.648-8.87z"/><use xlink:href="#d"/><use xlink:href="#e"/><path d="M327.693 118.656H311.33c.354 4.495 3.272 7.768 7.57 7.768 2.13 0 4.652-.946 5.796-2.72.275-.434.6-.552.946-.552.6 0 1.222.473 1.222 1.064 0 .354 0 .434-.75 1.3-1.813 2.13-4.455 3.154-7.215 3.154-6.35 0-9.897-5.204-9.897-11.158 0-5.914 3.55-11.12 9.897-11.12s9.896 5.244 9.896 11.12c0 .592-.552 1.144-1.105 1.144zM318.9 108.64c-4.73 0-7.216 3.627-7.57 7.768h15.18c-.354-4.495-3.272-7.768-7.6-7.768zM349.575 128c-.553 0-1.144-.395-1.144-1.104v-11.514c0-3.746-2.997-6.742-6.742-6.742a6.74 6.74 0 0 0-6.742 6.742v11.514c0 .7-.592 1.104-1.104 1.104-.552 0-1.144-.395-1.144-1.104v-18.73c0-.7.592-1.104 1.144-1.104.513 0 1.104.395 1.104 1.104v1.262c1.773-1.932 4.1-3.036 6.742-3.036 4.9 0 9 4.062 9 9v11.514c0 .7-.6 1.104-1.104 1.104z"/><use xlink:href="#c" x="296.335"/><use xlink:href="#d" x="97.74"/><use xlink:href="#e" x="96.162"/><path d="M422.08 128c-.552 0-1.104-.395-1.104-1.104V113.65c0-2.72-2.287-5.008-5.008-5.008s-5.047 2.287-5.047 4.968v13.288c0 .7-.552 1.104-1.104 1.104s-1.144-.395-1.144-1.104V113.65c0-2.72-2.287-5.008-4.968-5.008-2.76 0-5.047 2.287-5.047 4.968v13.288c0 .7-.592 1.104-1.104 1.104-.552 0-1.144-.395-1.144-1.104v-18.73c0-.7.592-1.104 1.144-1.104.513 0 1.104.395 1.104 1.104v.237c1.3-1.262 3.075-2.012 5.007-2.012 2.523 0 4.77 1.262 6.15 3.352 1.3-2 3.548-3.352 6.1-3.352 4.1 0 7.294 3.233 7.294 7.216v13.288c0 .7-.6 1.104-1.144 1.104zm23.38-9.344H429.1c.354 4.495 3.272 7.768 7.57 7.768 2.13 0 4.652-.946 5.796-2.72.275-.434.6-.552.946-.552.6 0 1.222.473 1.222 1.064 0 .354 0 .434-.75 1.3-1.813 2.13-4.455 3.154-7.215 3.154-6.35 0-9.897-5.204-9.897-11.158 0-5.914 3.55-11.12 9.897-11.12s9.896 5.244 9.896 11.12c0 .592-.552 1.144-1.105 1.144zm-8.792-10.015c-4.73 0-7.216 3.627-7.57 7.768h15.18c-.354-4.495-3.272-7.768-7.6-7.768zM467.344 128c-.553 0-1.144-.395-1.144-1.104v-11.514c0-3.746-2.997-6.742-6.742-6.742a6.74 6.74 0 0 0-6.743 6.742v11.514c0 .7-.6 1.104-1.104 1.104-.552 0-1.144-.395-1.144-1.104v-18.73c0-.7.592-1.104 1.144-1.104.513 0 1.104.395 1.104 1.104v1.262c1.774-1.932 4.102-3.036 6.743-3.036 4.9 0 9 4.062 9 9v11.514c0 .7-.592 1.104-1.104 1.104zm11.986 0h-1.223c-3.114 0-4.652-1.538-4.652-4.613V109.3h-2c-.7 0-1.104-.6-1.104-1.144 0-.513.395-1.104 1.104-1.104h2v-6.032c0-.7.6-1.104 1.144-1.104s1.104.395 1.104 1.104v6.032h3.628c.7 0 1.104.6 1.104 1.104 0 .553-.394 1.144-1.104 1.144h-3.63v14.076c0 1.932.553 2.366 2.405 2.366h1.223c.7 0 1.104.6 1.104 1.144 0 .512-.394 1.104-1.104 1.104zm23.34-19.004a6.74 6.74 0 0 0-6.742 6.742v11.16c0 .7-.592 1.104-1.104 1.104-.552 0-1.144-.395-1.144-1.104v-18.73c0-.7.592-1.104 1.144-1.104.513 0 1.104.395 1.104 1.104v1.617c1.773-1.933 4.1-3.036 6.742-3.036.7 0 1.143.592 1.143 1.104 0 .553-.434 1.144-1.143 1.144zM526.365 128h-.04c-1.302 0-3.154-.7-3.904-3.075-1.655 2.326-4.22 3.745-7.648 3.745-6.428 0-9.896-5.283-9.896-11.158 0-5.953 3.548-11.12 9.896-11.12 3.43 0 5.993 1.42 7.648 3.707v-1.933c0-.63.513-1.104 1.144-1.104.552 0 1.104.395 1.104 1.104v15.9c0 2.523 2.84.947 2.84 2.84a1.08 1.08 0 0 1-1.144 1.104zm-11.592-19.36c-4.653 0-7.65 3.746-7.65 8.87s2.996 8.9 7.65 8.9c4.7 0 7.648-3.785 7.648-8.9s-2.957-8.87-7.648-8.87zm22.75 19.36H536.3c-3.115 0-4.652-1.538-4.652-4.613V109.3h-2c-.7 0-1.104-.6-1.104-1.144 0-.513.395-1.104 1.104-1.104h2v-6.032c0-.7.592-1.104 1.144-1.104s1.104.395 1.104 1.104v6.032h3.628c.7 0 1.104.6 1.104 1.104 0 .553-.395 1.144-1.104 1.144h-3.628v14.076c0 1.932.552 2.366 2.405 2.366h1.223c.7 0 1.104.6 1.104 1.144 0 .512-.395 1.104-1.104 1.104zm20.897-9.344h-16.362c.354 4.495 3.272 7.768 7.57 7.768 2.13 0 4.652-.946 5.796-2.72.275-.434.6-.552.946-.552.6 0 1.222.473 1.222 1.064 0 .354 0 .434-.75 1.3-1.813 2.13-4.455 3.154-7.215 3.154-6.35 0-9.897-5.204-9.897-11.158 0-5.914 3.55-11.12 9.897-11.12s9.896 5.244 9.896 11.12c0 .592-.552 1.144-1.104 1.144zm-8.792-10.015c-4.73 0-7.216 3.627-7.57 7.768h15.18c-.355-4.495-3.272-7.768-7.6-7.768zm19.595 20.11c-2.366 0-6.35-.828-7.73-3.114-.157-.237-.157-.435-.157-.592 0-.63.552-1.183 1.144-1.183.236 0 .63.196.867.552 1.42 1.734 3.942 2.1 5.875 2.1 3.824 0 5.756-1.262 5.756-3.825 0-5.953-12.932-2.8-12.932-10.685 0-3.982 3.98-5.52 7.57-5.52 2.05 0 5.204.7 6.78 2.287.236.236.354.513.354.75 0 .592-.6 1.183-1.222 1.183a1.04 1.04 0 0 1-.749-.315c-1.223-1.183-3.43-1.655-5.165-1.655-3.47 0-5.323 1.34-5.323 3.272 0 5.52 12.933 2.602 12.933 10.685 0 4.495-3.943 6.072-8.004 6.072z"/></g><defs ><path id="E" d="M988.734 1001.095v-2.4c2.56-8.56 10.558-13.358 10.558-19.917 0-3.04-1.52-4.56-3.48-4.56-2.28 0-3.96 1.76-4.2 6.08h-2.64c.32-6.56 3.28-8.48 6.76-8.48 3.8 0 6.438 2.56 6.438 7.36 0 7.198-6.48 9.438-10.798 19.517h10.958v2.4h-13.598z"/><path id="F" d="M94.365 858.85h-11.62c.252 3.19 2.324 5.516 5.376 5.516 1.512 0 3.304-.672 4.116-1.932.196-.31.42-.393.672-.393.42 0 .868.336.868.756 0 .252 0 .31-.532.924-1.288 1.513-3.164 2.24-5.124 2.24-4.508 0-7.028-3.696-7.028-7.924 0-4.2 2.52-7.896 7.028-7.896s7.028 3.724 7.028 7.896c0 .42-.392.813-.784.813zm-6.244-7.112c-3.36 0-5.124 2.576-5.376 5.516h10.78c-.252-3.19-2.324-5.516-5.404-5.516z"/><path id="G" d="M112.538 865.486h-.028c-.924 0-2.24-.504-2.772-2.185-1.176 1.652-2.996 2.66-5.432 2.66-4.564 0-7.028-3.752-7.028-7.924 0-4.228 2.52-7.896 7.028-7.896 2.436 0 4.256 1.008 5.432 2.632v-1.372c0-.448.364-.784.812-.784.392 0 .784.28.784.784v11.284c0 1.792 2.016.672 2.016 2.016a.77.77 0 0 1-.812.784zm-8.232-13.748c-3.304 0-5.432 2.66-5.432 6.3s2.128 6.328 5.432 6.328c3.332 0 5.432-2.688 5.432-6.328s-2.1-6.3-5.432-6.3z"/><path id="H" d="M121.72 852c-2.632 0-4.788 2.128-4.788 4.788v7.924c0 .504-.42.784-.784.784-.392 0-.812-.28-.812-.784v-13.3c0-.504.42-.784.812-.784.364 0 .784.28.784.784v1.147c1.26-1.372 2.912-2.155 4.788-2.155.504 0 .812.42.812.783 0 .393-.308.812-.812.812z"/><path id="I" d="M183.684 865.962c-4.508 0-7.028-3.696-7.028-7.924 0-4.2 2.52-7.896 7.028-7.896s7.028 3.695 7.028 7.896c0 4.228-2.52 7.924-7.028 7.924zm0-14.224c-3.304 0-5.432 2.66-5.432 6.3s2.128 6.328 5.432 6.328c3.332 0 5.432-2.688 5.432-6.328s-2.1-6.3-5.432-6.3z"/><path id="J" d="M46.46 929.447c-.392 0-.812-.28-.812-.784v-8.176a4.77 4.77 0 0 0-4.788-4.788c-2.632 0-4.788 2.128-4.788 4.788v8.176c0 .504-.42.784-.784.784-.392 0-.812-.28-.812-.784v-18.368c0-.504.42-.783.812-.783a.78.78 0 0 1 .784.783v5.965c1.176-1.372 2.884-2.156 4.788-2.156a6.44 6.44 0 0 1 6.384 6.384v8.176c0 .504-.42.784-.784.784z"/><path id="K" d="M140.035 929.615c-1.512 0-2.772-1.4-2.772-2.968v-16.353c0-.504.42-.783.812-.783a.78.78 0 0 1 .784.783v16.353c0 1.792 1.988.756 1.988 2.016 0 .477-.336.952-.812.952z"/><path id="L" d="M177.442 915.615l-4.564 13.16c-.196.532-.448.672-.812.672-.476 0-.616-.168-.784-.672l-3.668-10.92-3.668 10.92c-.196.532-.448.672-.812.672s-.644-.224-.784-.672l-4.536-13.16c-.028-.084-.056-.224-.056-.308 0-.448.448-.73.812-.73.28 0 .616.14.728.532l3.836 11.088 3.668-10.948c.168-.53.336-.672.812-.672.336 0 .616.112.784.672l3.724 10.948 3.78-11.088c.14-.392.42-.532.728-.532.42 0 .868.28.868.756a.82.82 0 0 1-.056.28z"/><path id="M" d="M213.674 929.447h-.868c-2.212 0-3.304-1.092-3.304-3.276v-9.995h-1.428c-.504 0-.784-.42-.784-.812 0-.364.28-.784.784-.784h1.428v-4.284c0-.504.42-.783.812-.783s.784.28.784.783v4.284h2.576c.504 0 .784.42.784.784 0 .392-.28.813-.784.813h-2.576v9.995c0 1.372.392 1.68 1.708 1.68h.868c.504 0 .784.42.784.812 0 .364-.28.784-.784.784z"/><path id="N" d="M40.862 947.93c-2.632 0-4.788 2.128-4.788 4.788v7.924c0 .504-.42.784-.784.784-.392 0-.812-.28-.812-.784v-13.3c0-.504.42-.784.812-.784.364 0 .784.28.784.784v1.148c1.26-1.372 2.912-2.156 4.788-2.156.504 0 .812.42.812.784 0 .392-.308.812-.812.812z"/><path id="O" d="M80.447 954.79h-11.62c.252 3.19 2.324 5.516 5.376 5.516 1.512 0 3.304-.672 4.116-1.932.196-.31.42-.393.672-.393.42 0 .868.336.868.756 0 .253 0 .31-.532.925-1.288 1.512-3.164 2.24-5.124 2.24-4.508 0-7.028-3.695-7.028-7.924 0-4.2 2.52-7.896 7.028-7.896s7.028 3.724 7.028 7.896c0 .42-.392.813-.784.813zm-6.244-7.112c-3.36 0-5.124 2.576-5.376 5.516h10.78c-.252-3.19-2.324-5.516-5.404-5.516z"/><path id="P" d="M153.973 961.426c-.392 0-.812-.28-.812-.784v-1.4c-1.176 1.65-2.996 2.66-5.432 2.66-4.508 0-7.028-3.695-7.028-7.924 0-4.2 2.52-7.896 7.028-7.896 2.436 0 4.256 1.008 5.432 2.632v-6.44c0-.504.42-.783.812-.783a.78.78 0 0 1 .784.783v18.368c0 .504-.42.784-.784.784zm-6.244-13.748c-3.304 0-5.432 2.66-5.432 6.3s2.128 6.328 5.432 6.328c3.332 0 5.432-2.687 5.432-6.328s-2.1-6.3-5.432-6.3z"/><path id="Q" d="M49.288 382.914c.4 2.88 2 3.36 3.12 3.36 2.56 0 4.16-3.52 4.24-11.56-1.16 1.24-2.72 2.2-4.44 2.2-3.24 0-6.2-2.32-6.2-8.88 0-5.598 2.4-9.037 6.2-9.037 5 0 7.398 2.88 7.398 13.277 0 11.598-2.72 16.396-7.28 16.396-3.72 0-5.12-2.24-5.68-5.6l2.64-.16zm7.44-13.6c0-5.84-1.52-7.92-4.08-7.92-2.24 0-3.76 1.68-3.76 6.68 0 5.158 1.76 6.438 3.6 6.438s3.28-1.2 4.24-2.48v-2.72z"/><path id="R" d="M104.714 1045.51c-.633 0-1.267-.367-1.4-1.1-1.334 1.034-2.97 1.668-4.804 1.668-4.136 0-7.604-3.436-7.604-7.605v-9.24a1.37 1.37 0 0 1 1.4-1.435c.768 0 1.468.5 1.468 1.4v9.272c0 2.602 2.168 4.77 4.736 4.77 2.603 0 4.77-2.17 4.77-4.77v-9.24c0-1.034.667-1.468 1.4-1.468.768 0 1.435.5 1.435 1.435v14.9c0 .934-.667 1.4-1.4 1.4z"/><path id="S" d="M816.44 1046.358c-1.2 0-3.22-.42-3.92-1.58-.08-.12-.08-.22-.08-.3 0-.32.28-.6.58-.6.12 0 .32.1.44.28.72.88 2 1.06 2.98 1.06 1.94 0 2.92-.64 2.92-1.94 0-3.02-6.562-1.42-6.562-5.422 0-2.02 2.02-2.8 3.84-2.8 1.04 0 2.64.36 3.44 1.16.12.12.18.26.18.38a.65.65 0 0 1-.62.6.53.53 0 0 1-.38-.16c-.62-.6-1.74-.84-2.62-.84-1.76 0-2.7.68-2.7 1.66 0 2.8 6.562 1.32 6.562 5.422 0 2.28-2 3.08-4.06 3.08z"/><path id="T" d="M827.16 1046.318c-3.22 0-5.02-2.64-5.02-5.66 0-3 1.8-5.64 5.02-5.64s5.02 2.64 5.02 5.64c0 3.02-1.8 5.66-5.02 5.66zm0-10.162c-2.36 0-3.88 1.9-3.88 4.5s1.52 4.52 3.88 4.52c2.38 0 3.88-1.92 3.88-4.52s-1.5-4.5-3.88-4.5z"/><path id="U" d="M850.9 1036.337a3.42 3.42 0 0 0-3.421 3.42v5.66c0 .36-.3.56-.56.56-.28 0-.58-.2-.58-.56v-9.502c0-.36.3-.56.58-.56.26 0 .56.2.56.56v.82c.9-.98 2.08-1.54 3.42-1.54.36 0 .58.3.58.56a.58.58 0 0 1-.58.581z"/><path id="V" d="M974.76 1045.978h-.02c-.66 0-1.6-.36-1.98-1.56-.84 1.18-2.14 1.9-3.88 1.9-3.26 0-5.02-2.68-5.02-5.66 0-3.02 1.8-5.64 5.02-5.64 1.74 0 3.04.72 3.88 1.88v-.98c0-.32.26-.56.58-.56.28 0 .56.2.56.56v8.063c0 1.28 1.44.48 1.44 1.44a.55.55 0 0 1-.58.561zm-5.88-9.822c-2.36 0-3.88 1.9-3.88 4.5s1.52 4.52 3.88 4.52c2.38 0 3.88-1.92 3.88-4.52s-1.5-4.5-3.88-4.5z"/><path id="W" d="M126.278 52.22c-4.62 0-8.52 3.9-8.52 8.58v16.62c0 1.68-1.26 2.58-2.64 2.58-1.26 0-2.52-.9-2.52-2.52V50.72c0-1.68 1.38-2.58 2.52-2.58 1.2 0 2.34.66 2.58 2.04 2.34-1.92 5.52-3.06 8.58-3.06 1.74 0 2.64 1.2 2.64 2.58 0 1.32-.9 2.52-2.64 2.52z"/><path id="X" d="M238.595 93.68c-3.66 0-12.72-1.32-12.72-4.92 0-1.38 1.26-2.7 2.58-2.7 1.38 0 .18.18 3.36 1.38 1.44.54 3.6 1.14 6.78 1.14 6.66 0 9.9-3.18 9.9-9.48v-2.7c-2.34 2.22-5.7 3.6-9.9 3.6-9.48 0-15.06-6.72-15.06-15.96 0-9 5.4-16.92 15.06-16.92 4.2 0 7.44 1.26 9.9 3.84v-.24c0-1.68 1.38-2.58 2.58-2.58 1.26 0 2.58.9 2.58 2.58V79.1c0 9.54-5.7 14.58-15.06 14.58zm0-41.46c-6 0-9.9 4.68-9.9 11.82 0 6.84 3.6 10.86 9.9 10.86s9.9-4.02 9.9-10.86c0-7.14-3.84-11.82-9.9-11.82z"/><path id="Y" d="M351.634 80c-1.32 0-2.52-.9-2.52-2.52V60.8c0-4.68-3.9-8.58-8.58-8.58-4.62 0-8.52 3.9-8.52 8.58v16.62c0 1.68-1.26 2.64-2.64 2.64-1.26 0-2.52-.9-2.52-2.58V50.662c0-1.74 1.26-2.52 2.52-2.52 1.2 0 2.28.66 2.58 1.98 2.34-1.86 5.28-3 8.58-3 7.44 0 13.68 6.18 13.68 13.68v16.62c0 1.68-1.2 2.58-2.58 2.58z"/><path id="Z" d="M413.133 43.282a4.3 4.3 0 1 1 0-8.64 4.3 4.3 0 1 1 0 8.64zm0 36.72c-1.32 0-2.64-.9-2.64-2.52V50.72c0-1.68 1.32-2.58 2.64-2.58 1.26 0 2.52.9 2.52 2.58v26.76c0 1.68-1.26 2.52-2.52 2.52z"/><path id="a" d="M573.93 66.68h-22.2c.84 5.64 4.44 9.24 9.72 9.24 2.7 0 5.4-.96 7.14-3.12.54-.6 1.14-.96 1.86-.96 1.32 0 2.7 1.2 2.7 2.64 0 .72-.18 1.26-1.44 2.52-2.7 2.64-6.42 4.02-10.26 4.02-9.66 0-15.06-7.98-15.06-16.98 0-8.94 5.4-16.92 15.06-16.92 9.78 0 15 7.98 15 16.92 0 1.32-.96 2.64-2.52 2.64zm-12.48-14.46c-5.64 0-8.94 4.14-9.72 9.3h19.438c-.84-5.76-4.44-9.3-9.72-9.3z"/><path id="b" d="M811.888 79.94c-1.32 0-2.58-.84-2.58-2.52 0 0-3.54 3.6-9.9 3.6-9.66 0-15.06-7.92-15.06-16.98 0-9 5.4-16.92 15.06-16.92 4.2 0 7.56 1.44 9.9 3.9v-11.16c0-1.74 1.26-2.58 2.58-2.58s2.58.84 2.58 2.52V77.42c0 1.68-1.26 2.52-2.58 2.52zm-12.48-27.72c-6 0-9.9 4.68-9.9 11.82 0 7.2 3.9 11.88 9.9 11.88 6.06 0 9.9-4.68 9.9-11.88 0-7.14-3.84-11.82-9.9-11.82z"/><path id="c" d="M67 108.996a6.74 6.74 0 0 0-6.743 6.742v11.16c0 .71-.59 1.104-1.104 1.104-.552 0-1.144-.395-1.144-1.104v-18.73c0-.71.592-1.104 1.144-1.104.513 0 1.104.395 1.104 1.104v1.617c1.774-1.933 4.102-3.036 6.743-3.036.71 0 1.144.592 1.144 1.104 0 .553-.435 1.144-1.144 1.144z"/><path id="d" d="M277.03 128.67c-6.35 0-9.897-5.204-9.897-11.158 0-5.914 3.55-11.12 9.897-11.12s9.896 5.205 9.896 11.12c0 5.954-3.55 11.158-9.896 11.158zm0-20.03c-4.653 0-7.65 3.746-7.65 8.87s2.996 8.91 7.65 8.91c4.69 0 7.648-3.785 7.648-8.91s-2.957-8.87-7.648-8.87z"/><path id="e" d="M295.52 128.237c-2.13 0-3.903-1.97-3.903-4.18v-23.025c0-.7.592-1.104 1.144-1.104.513 0 1.104.395 1.104 1.104v23.025c0 2.523 2.8 1.065 2.8 2.84 0 .67-.473 1.34-1.144 1.34z"/></defs></svg>