<svg xmlns="http://www.w3.org/2000/svg" xmlns:xlink="http://www.w3.org/1999/xlink" viewBox="0 0 1080 1080"><linearGradient id="A" gradientUnits="userSpaceOnUse" x1="11.75" y1="1068.25" x2="1068.25" y2="11.75"><stop offset="0"/><stop offset=".217" stop-color="#070707"/><stop offset=".535" stop-color="#1b1b1b"/><stop offset=".913" stop-color="#3b3b3b"/><stop offset="1" stop-color="#434343"/></linearGradient><path d="M1080,1040c0,22-18,40-40,40H40c-22,0-40-18-40-40V40C0,18,18,0,40,0h1000c22,0,40,18,40,40V1040z" fill="url(#A)"/><g opacity=".25" fill="#fff"><path d="M42.428 1046.045c-3.568 0-5.47-1.97-5.503-2.002 0 .935-.7 1.4-1.468 1.4-.7 0-1.4-.467-1.4-1.4v-20.88a1.35 1.35 0 0 1 1.401-1.434c.767 0 1.468.467 1.468 1.4v6.238c1.334-1.368 3.168-2.17 5.503-2.17 5.37 0 8.373 4.403 8.373 9.406 0 5.037-3.002 9.44-8.373 9.44zm0-16c-3.335 0-5.503 2.602-5.503 6.57 0 4.003 2.168 6.604 5.503 6.604s5.504-2.602 5.504-6.604c0-3.97-2.168-6.57-5.504-6.57zm25.555 8.037h-12.34c.467 3.136 2.468 5.137 5.403 5.137 1.5 0 3.002-.533 3.97-1.734.3-.333.634-.533 1.034-.533.734 0 1.5.667 1.5 1.468 0 .4-.1.7-.8 1.4-1.5 1.468-3.57 2.235-5.704 2.235-5.37 0-8.372-4.437-8.372-9.44 0-4.97 3.002-9.406 8.372-9.406 5.437 0 8.34 4.437 8.34 9.406 0 .734-.534 1.468-1.4 1.468zm-6.937-8.038c-3.136 0-4.97 2.3-5.403 5.17H66.45c-.467-3.202-2.468-5.17-5.403-5.17zm27.054 15.444c-1.834 0-2.668-1.3-2.97-1.9-1.334 1.468-3.27 2.47-5.87 2.47-5.437 0-8.372-4.47-8.372-9.44s3.002-9.406 8.372-9.406c2.335 0 4.203.834 5.504 2.202v-.134c0-.367.133-1.5 1.4-1.5.7 0 1.468.367 1.468 1.4v12.875c0 .434.3.6.467.6.935 0 1.435.667 1.435 1.434a1.37 1.37 0 0 1-1.435 1.401zm-8.84-15.443c-3.336 0-5.504 2.602-5.504 6.57 0 4.003 2.168 6.604 5.504 6.604 3.37 0 5.504-2.602 5.504-6.604 0-3.97-2.135-6.57-5.504-6.57z"/><use xlink:href="#C"/><path d="M115.258 1045.478h-.567c-3.17 0-4.37-1.668-4.37-4.403V1030.6h-1c-.8 0-1.435-.634-1.435-1.4 0-.8.634-1.435 1.4-1.435h1v-4.637c0-.934.7-1.4 1.435-1.4s1.4.467 1.4 1.4v4.637h2.135c.934 0 1.4.768 1.4 1.4 0 .8-.533 1.434-1.4 1.434h-2.135v10.774c0 .934.333 1.268 1.268 1.268h.833c.868 0 1.435.634 1.435 1.4 0 .8-.533 1.435-1.4 1.435zm4.604-20.415a2.402 2.402 0 1 1 0-4.803 2.402 2.402 0 1 1 0 4.803zm0 20.414c-.733 0-1.467-.5-1.467-1.4V1029.2c0-.935.733-1.435 1.467-1.435a1.37 1.37 0 0 1 1.401 1.435v14.876c0 .935-.7 1.4-1.4 1.4zm10.376-14.877h-1.5v13.442c0 .935-.7 1.4-1.468 1.4-.7 0-1.4-.467-1.4-1.4V1030.6h-1.37c-.9 0-1.4-.667-1.4-1.4 0-.768.5-1.435 1.4-1.435h1.367v-2.27c0-2.135 1.77-3.77 3.836-3.77.968 0 1.468.667 1.468 1.434 0 .7-.5 1.4-1.468 1.4-.566 0-.967.434-.967.9v2.302h1.5c.967 0 1.468.667 1.468 1.435 0 .733-.5 1.4-1.468 1.4z"/><use xlink:href="#C" x="42.068"/><path d="M154.825 1045.544c-1.802 0-3.336-1.534-3.336-3.402v-18.98c0-.967.7-1.434 1.435-1.434s1.435.467 1.435 1.4v19.013c0 .4.3.567.467.567.934 0 1.435.667 1.435 1.435 0 .733-.5 1.4-1.435 1.4zm15.37-.066v-1.264c1.886-.237 2.046-.437 2.046-3.157v-6.7c0-2.8-1.248-4.017-3.064-4.017-1.237 0-2.345.6-3.47 1.493v9.476c0 2.527.187 2.658 2.06 2.896v1.264h-8.968v-1.264c2.254-.33 2.5-.4 2.5-3v-8.2c0-2.446-.303-2.565-2.185-2.922v-1.184c2.173-.292 4.63-.807 6.653-1.533l-.052 2.95 2.6-1.745c1.16-.713 2-1.086 3.16-1.086 3.194 0 5.2 2.338 5.2 6.3v7.5c0 2.54.237 2.657 2.277 2.92v1.264h-8.74zm23.9-3.703c-2.458 3.427-5.488 4.178-7.014 4.178-5.142 0-8.124-3.936-8.124-8.594 0-2.745 1.183-5.396 2.832-7.062 1.74-1.8 3.945-2.814 6.082-2.814 3.73 0 6.396 3.126 6.37 6.347-.014.715-.08 1.277-.612 1.4-.767.184-6.17.5-10.318.647.062 4.587 2.717 6.74 5.556 6.74 1.572 0 3.104-.597 4.543-1.866l.686 1.014zm-7.07-12.7c-1.667 0-3.167 1.807-3.516 4.963l5.486-.118c.6-.026.848-.146.848-.792.04-2.022-1.037-4.053-2.818-4.053zm34.284.145c-1.943.343-2.248.624-3.105 2.765-1.33 3.462-3.102 8.53-4.934 13.94h-1.512l-4.65-11.46-4.55 11.46h-1.472l-4.685-14.192c-.687-1.985-.94-2.274-2.855-2.512v-1.25h9.397v1.25c-2.325.345-2.535.672-2.058 2.133l2.52 8.214c1.507-3.68 2.988-7.62 4.327-11.424h1.456c1.4 3.76 2.986 7.702 4.573 11.568.742-2.107 2.062-5.964 2.557-8.108.412-1.674-.008-2.078-2.753-2.383v-1.25h7.742v1.25zm9.4 3.746c-.92-2.606-2.155-3.984-4.2-3.984-1.206 0-2.225.86-2.225 2.266 0 1.497 1.046 2.264 3.16 3.216 3.278 1.496 5.3 2.787 5.3 5.736 0 3.85-3.6 5.764-6.945 5.764-2.06 0-4.088-.737-4.92-1.16l-.662-4.892 1.252-.224c.8 2.5 2.33 4.75 4.976 4.75 1.505 0 2.438-.952 2.438-2.28 0-1.423-.76-2.333-3.092-3.467-2.67-1.295-5.107-2.64-5.107-5.775 0-3.046 2.533-5.42 6.565-5.42 1.818 0 3.242.396 4.112.567l.62 4.577-1.25.328z"/></g><g opacity=".5" fill="#fff"><use xlink:href="#D"/><use xlink:href="#E"/><path d="M366.575 1045.98c-.28 0-.58-.2-.58-.56v-.64c-.84.98-2.06 1.54-3.42 1.54-2.48 0-4.56-2.08-4.56-4.56v-5.842c0-.36.3-.56.58-.56.26 0 .56.2.56.56v5.842c0 1.9 1.52 3.42 3.42 3.42s3.42-1.52 3.42-3.42v-5.842c0-.36.3-.56.58-.56.26 0 .56.2.56.56v9.502a.56.56 0 0 1-.561.561z"/><use xlink:href="#F"/><use xlink:href="#G"/><use xlink:href="#H"/><use xlink:href="#D" x="62.499"/><path d="M409.772 1039.416c-.64 0-1.16-.5-1.16-1.14s.52-1.14 1.16-1.14c.62 0 1.12.5 1.12 1.14s-.5 1.14-1.12 1.14zm0 6.563c-.64 0-1.16-.5-1.16-1.14s.52-1.14 1.16-1.14c.62 0 1.12.5 1.12 1.14s-.5 1.14-1.12 1.14zm19.042.001c-.2 0-.42-.12-.52-.34l-1.28-3.082h-7.2l-1.28 3.082a.56.56 0 0 1-.501.34c-.3 0-.58-.22-.58-.54 0-.1 0-.16.04-.26l5.4-13.104c.1-.238.34-.38.58-.38.2 0 .38.12.48.38l5.4 13.104c.04.1.04.16.04.26 0 .32-.28.54-.58.54zm-5.4-12.184l-3.14 7.623h6.3l-3.16-7.623zm14.956 2.34l-3.94 9.38c-.12.26-.3.46-.56.46s-.46-.2-.58-.46l-3.94-9.36c-.04-.1-.04-.18-.04-.26 0-.32.28-.54.58-.54.18 0 .4.08.5.34l3.48 8.223 3.46-8.223c.12-.26.32-.36.52-.36.3 0 .58.22.58.54 0 .06 0 .16-.06.262z"/><use xlink:href="#I"/><use xlink:href="#J"/><use xlink:href="#K"/><use xlink:href="#I" x="22.86"/><use xlink:href="#E" x="120.975"/><use xlink:href="#L"/><path d="M497.33 1039.756h-6.262a.58.58 0 0 1-.58-.58c0-.26.22-.56.58-.56h6.262a.56.56 0 0 1 .58.559c0 .28-.2.58-.58.58zm7.1 6.562c-1.54 0-3.64-.62-4.78-1.76-.14-.14-.18-.262-.18-.4a.61.61 0 0 1 .58-.58c.24 0 .22.06.64.38a6.33 6.33 0 0 0 3.74 1.221c2.52 0 3.98-.94 3.98-2.74 0-4.742-8.462-2.102-8.462-7.562 0-2.4 2.1-3.5 4.68-3.5 1.44 0 3.46.62 4.36 1.88.08.12.12.22.12.34 0 .32-.28.56-.6.56-.28 0-.28-.08-.62-.42-.84-.842-2.08-1.22-3.26-1.22-2.38 0-3.54.92-3.54 2.36 0 4.3 8.462 1.8 8.462 7.563 0 2.78-2.44 3.88-5.12 3.88z"/><use xlink:href="#J" x="67.208"/><path d="M528.05 1032.855h-.62c-.48 0-.88.4-.88.86v1.64h1.5c.38 0 .56.3.56.56 0 .28-.2.58-.56.58h-1.5v8.922c0 .36-.28.56-.56.56s-.56-.18-.56-.56v-8.922h-1.38c-.36 0-.56-.3-.56-.58 0-.26.2-.56.56-.56h1.38v-1.64c0-1.1.9-1.98 1.98-1.98h.64c.36 0 .58.28.58.58 0 .28-.2.54-.58.54z"/><use xlink:href="#H" x="143.275"/><use xlink:href="#K" x="85.32"/><use xlink:href="#M"/><path d="M560.308 1045.98c-.64 0-1.14-.5-1.14-1.14s.5-1.14 1.14-1.14 1.14.5 1.14 1.14-.5 1.14-1.14 1.14z"/><use xlink:href="#L" x="85.12"/><use xlink:href="#H" x="188.805"/><use xlink:href="#K" x="130.838"/><use xlink:href="#N"/><path d="M618.4 1032.455l-3.52 13.104c-.08.28-.3.42-.56.42-.24 0-.48-.14-.54-.42l-3-11.084-2.98 11.084c-.06.28-.3.42-.54.42-.26 0-.48-.14-.56-.42l-3.52-13.104c-.02-.06-.02-.12-.02-.18a.58.58 0 0 1 .58-.58c.26 0 .46.14.52.44l3 11.082 2.98-11.082a.53.53 0 0 1 .54-.4c.26 0 .48.12.56.4l2.98 11.082 3-11.082c.08-.3.28-.44.52-.44a.58.58 0 0 1 .58.58c0 .06 0 .12-.02.18z"/><use xlink:href="#E" x="274.113"/><use xlink:href="#F" x="262.334"/><use xlink:href="#O"/><path d="M652.3 1045.98c-.28 0-.58-.2-.58-.56v-1c-.84 1.18-2.14 1.9-3.88 1.9-3.22 0-5.02-2.64-5.02-5.662 0-3 1.8-5.64 5.02-5.64 1.74 0 3.04.72 3.88 1.88v-4.602c0-.36.3-.56.58-.56.26 0 .56.2.56.56v13.123c0 .36-.3.56-.56.56zm-4.46-9.822c-2.36 0-3.88 1.9-3.88 4.5s1.52 4.52 3.88 4.52c2.38 0 3.88-1.92 3.88-4.52s-1.5-4.5-3.88-4.5zm19.138 9.822h-5.802a.61.61 0 0 1-.58-.561v-13.123c0-.34.18-.56.52-.56h5.42c1.98 0 3.6 1.64 3.6 3.56 0 1.182-.52 2.2-1.42 2.86a4.06 4.06 0 0 1 2.38 3.721c0 2.28-1.84 4.102-4.12 4.102zm-.44-13.123h-4.8v4.92h4.8c1.62 0 2.46-1.44 2.46-2.44 0-1.38-1.12-2.48-2.46-2.48zm.44 6.06h-5.24v5.922h5.24c1.64 0 2.98-1.32 2.98-2.96s-1.34-2.96-2.98-2.96z"/><use xlink:href="#J" x="229.138"/><use xlink:href="#L" x="207.157"/><path d="M705.587 1036.336l-3.44 3.44 3.4 5.32c.06.08.12.2.12.32 0 .28-.3.54-.6.54-.18 0-.36-.08-.48-.262l-3.28-5.1-2.06 2.08v2.74c0 .36-.3.56-.56.56-.28 0-.58-.2-.58-.56v-13.123c0-.36.3-.56.58-.56.26 0 .56.2.56.56v8.762l5.52-5.52c.14-.14.28-.18.42-.18.32 0 .58.26.58.56a.56.56 0 0 1-.181.42z"/><use xlink:href="#N" x="113.639"/><use xlink:href="#G" x="341.113"/><use xlink:href="#E" x="382.151"/><use xlink:href="#P"/><use xlink:href="#P" x="16.26"/><use xlink:href="#H" x="385.592"/><use xlink:href="#F" x="414.852"/><use xlink:href="#G" x="414.851"/><use xlink:href="#I" x="361.754"/><use xlink:href="#J" x="361.755"/><use xlink:href="#O" x="180.038"/><path d="M833.245 1046.318c-1.74 0-3.04-.72-3.88-1.9v5.182c0 .36-.3.58-.56.58a.58.58 0 0 1-.58-.58v-13.684c0-.36.3-.56.58-.56.26 0 .56.2.56.56v.98c.84-1.16 2.14-1.88 3.88-1.88 3.22 0 5.02 2.64 5.02 5.64 0 3.02-1.8 5.662-5.02 5.662zm0-10.162c-2.38 0-3.88 1.9-3.88 4.5s1.5 4.52 3.88 4.52 3.88-1.92 3.88-4.52-1.5-4.5-3.88-4.5z"/><use xlink:href="#J" x="396.294"/><use xlink:href="#D" x="516.75"/><use xlink:href="#D" x="526.25"/><use xlink:href="#H" x="485.211"/><use xlink:href="#L" x="405.274"/><path d="M900.784 1050.54c-1.7 0-4.102-.64-4.102-1.36 0-.32.26-.64.58-.64.22 0 .68.34 1.06.48.52.18 1.34.38 2.46.38 2.56 0 3.88-1.26 3.88-3.72v-1.4c-.88 1.06-2.14 1.7-3.88 1.7-3.16 0-5.02-2.24-5.02-5.322 0-3 1.8-5.64 5.02-5.64 1.74 0 3.04.72 3.88 1.88v-.96c0-.36.3-.56.58-.56.26 0 .56.2.56.56v9.742c0 3.182-1.9 4.86-5.02 4.86zm0-14.383c-2.36 0-3.88 1.9-3.88 4.5 0 2.582 1.42 4.182 3.88 4.182s3.88-1.6 3.88-4.182c0-2.6-1.5-4.5-3.88-4.5z"/><use xlink:href="#H" x="521.37"/><use xlink:href="#F" x="550.63"/><use xlink:href="#G" x="555.53"/><use xlink:href="#F" x="572.83"/><use xlink:href="#J" x="504.588"/><use xlink:href="#D" x="625.046"/><path d="M979.84 1045.98c-.28 0-.58-.2-.58-.56v-5.842c0-1.9-1.52-3.42-3.42-3.42a3.42 3.42 0 0 0-3.421 3.42v5.842c0 .36-.3.56-.56.56-.28 0-.58-.2-.58-.56v-13.123c0-.36.3-.56.58-.56.26 0 .56.2.56.56v4.262c.84-.98 2.06-1.54 3.42-1.54a4.6 4.6 0 0 1 4.561 4.561v5.842c0 .36-.3.56-.56.56z"/><use xlink:href="#H" x="595.785"/><use xlink:href="#D" x="658.284"/><use xlink:href="#E" x="663.185"/><use xlink:href="#L" x="542.21"/><use xlink:href="#O" x="394.251"/><use xlink:href="#M" x="488.99"/></g><g fill="#fff"><path d="M34.33 997.1v-1.92h2.816v-18.56l-2.88.256v-1.408c1.312-.32 2.592-.896 3.647-1.79h1.536v21.502h2.688v1.92H34.33z"/><use xlink:href="#Q"/><use xlink:href="#Q" x="12.927"/><path d="M69.72 978.604c.256-2.72 1.728-4.926 4.703-4.926 2.592 0 5.152 1.79 5.152 5.63 0 3.264-1.344 5.12-3.008 5.44v.064c2.592.863 3.392 3.295 3.392 5.76 0 4.734-2.752 6.848-5.632 6.848-3.07 0-5.15-2.465-5.184-5.824h2.112c.19 2.496 1.28 3.904 3.327 3.904 1.536 0 3.072-1.664 3.072-4.832 0-3.81-1.6-4.896-5.248-4.896v-1.92c3.456 0 4.864-.832 4.864-4.416 0-2.75-1.088-3.838-2.688-3.838-1.983 0-2.687 1.662-2.752 3.264l-2.11-.258z"/><use xlink:href="#R"/><use xlink:href="#S"/><use xlink:href="#T"/><use xlink:href="#Q" x="991.265"/></g><g fill="#f15a24"><use xlink:href="#R" x="-63.738"/><use xlink:href="#S" x="-63.74"/><use xlink:href="#T" x="-63.74"/><path d="M971.4 973.996h10.367v1.217l-6.72 21.887h-2.432l6.72-21.184H971.4v-1.92zm-308.193 23.77h-11.004c-.504 0-.784-.392-.784-.756a1.01 1.01 0 0 1 .168-.561l9.94-11.955h-9.323c-.504 0-.784-.42-.784-.812 0-.364.28-.784.784-.784h11.004c.448 0 .812.336.812.756 0 .196-.027.364-.195.56l-9.912 11.956h9.296c.532 0 .812.42.812.812 0 .364-.28.784-.812.784z"/><use xlink:href="#U"/><use xlink:href="#V"/><path d="M699.102 998.24c-4.508 0-7.027-3.695-7.027-7.924 0-4.2 2.52-7.896 7.027-7.896s7.028 3.695 7.028 7.896c0 4.23-2.52 7.924-7.028 7.924zm0-14.224c-3.304 0-5.432 2.66-5.432 6.3s2.128 6.328 5.432 6.328c3.332 0 5.433-2.687 5.433-6.328s-2.1-6.3-5.433-6.3zm22.343-4.62h-.868c-.672 0-1.23.56-1.23 1.204v2.296h2.1c.532 0 .784.42.784.784 0 .392-.28.813-.784.813h-2.1v12.487c0 .504-.393.784-.784.784s-.784-.252-.784-.784v-12.487h-1.932c-.504 0-.784-.42-.784-.812 0-.364.28-.784.784-.784h1.932v-2.296a2.78 2.78 0 0 1 2.772-2.771h.896c.504 0 .813.392.813.812 0 .393-.28.756-.812.756z"/><use xlink:href="#W"/><path d="M748.045 997.766h-.868c-2.212 0-3.304-1.092-3.304-3.276v-9.995h-1.428c-.504 0-.784-.42-.784-.812 0-.364.28-.784.784-.784h1.428v-4.284c0-.504.42-.783.812-.783s.784.28.784.783v4.284h2.576c.504 0 .784.42.784.784 0 .392-.28.813-.784.813h-2.576v9.995c0 1.372.393 1.68 1.708 1.68h.868c.504 0 .784.42.784.812 0 .364-.28.784-.784.784z"/><use xlink:href="#W" x="26.431"/><path d="M772.125 997.934c-1.513 0-2.772-1.4-2.772-2.968v-16.353c0-.504.42-.783.813-.783.363 0 .783.28.783.783v16.353c0 1.792 1.988.756 1.988 2.016 0 .477-.336.952-.812.952zm21.615-1.82c-1.232 1.372-2.94 2.128-5.013 2.128-4.508 0-7.027-3.695-7.027-7.924 0-4.2 2.52-7.896 7.027-7.896 2.072 0 3.78.756 5.013 2.128a.74.74 0 0 1 .224.532c0 .42-.392.84-.812.84-.195 0-.392-.084-.588-.28-.924-1.036-2.212-1.624-3.836-1.624-3.304 0-5.432 2.66-5.432 6.3s2.128 6.328 5.432 6.328c1.624 0 2.912-.616 3.836-1.624.196-.196.393-.28.588-.28.42 0 .813.364.813.813 0 .196-.056.364-.224.56z"/><use xlink:href="#V" x="113.847"/><use xlink:href="#W" x="80.968"/><use xlink:href="#X"/><path d="M849.174 997.766c-.393 0-.812-.28-.812-.784v-8.176a4.77 4.77 0 0 0-4.788-4.788c-2.632 0-4.788 2.128-4.788 4.788v8.176c0 .504-.42.784-.783.784-.393 0-.812-.28-.812-.784v-18.368c0-.504.42-.783.813-.783.363 0 .783.28.783.783v5.965c1.177-1.372 2.885-2.156 4.788-2.156a6.44 6.44 0 0 1 6.385 6.384v8.176c0 .504-.42.784-.784.784z"/><use xlink:href="#U" x="186.938"/><use xlink:href="#X" x="46.535"/><path d="M885.236 997.766c-.896 0-1.596-.7-1.596-1.596s.7-1.597 1.596-1.597a1.58 1.58 0 0 1 1.597 1.597c0 .897-.7 1.596-1.597 1.596zm-.056-5.572c-.392 0-.812-.28-.812-.812v-13.244c0-.532.42-.812.812-.812s.784.308.784.812v13.244a.79.79 0 0 1-.784.812zm19.712-1.316l-6.636 6.636a.7.7 0 0 1-.532.224c-.42 0-.812-.392-.812-.812 0-.168.084-.364.224-.532l6.05-6.076-6.02-6.02c-.14-.168-.224-.364-.224-.532 0-.448.392-.84.812-.84a.69.69 0 0 1 .56.252l6.58 6.58c.17.168.225.336.225.56s-.056.393-.225.56z"/><use xlink:href="#Y"/><use xlink:href="#Y" x="10.359"/></g><path d="M34.14 617.892h27.28v345.346H34.14zM72.043 592h27.28v371.247h-27.28zm37.62-17.266h27.28v388.514h-27.28zm37.904-21.584h27.28v410.098h-27.28zm37.903-12.95h27.28v423.05h-27.28zm37.904-2.16h27.28v425.207h-27.28zm37.904-21.583h27.28v446.8h-27.28zm37.904-28.06h27.28v474.85h-27.28zm37.903-6.476h27.28v481.326h-27.28zM375 514.288h27.28v448.95H375zm37.903-10.792h27.28v459.742h-27.28zm37.903-53.96h27.28v513.702h-27.28zm37.904-8.634h27.28v522.336H488.7zm37.904-12.95h27.28v535.286h-27.28zm37.903-25.902h27.28v561.187h-27.28zm37.903 10.793h27.28v550.395H602.4zm37.905-12.95h27.28v563.345h-27.28zm37.903-75.545h27.28v638.9h-27.28zm37.904-21.584h27.28v660.474h-27.28zm37.904-4.317h27.28v664.8h-27.28zm37.904-15.11h27.28v679.9h-27.28zm37.903-17.268h27.28v697.167h-27.28zm37.904-23.74h27.28v720.9h-27.28zm37.903-28.06h27.28v748.97h-27.28zm37.904-23.743h27.28v772.7h-27.28zm37.62-49.644h27.28v822.355h-27.28zm37.62-28.06h27.28v850.414h-27.28zM37.64 607.892v-1.92h2.816v-18.56l-2.88.256v-1.407c1.312-.32 2.592-.896 3.647-1.792h1.536v21.502h2.688v1.92H37.64zm18.815-18.815c-.32-2.304-1.6-2.687-2.496-2.687-2.048 0-3.327 2.815-3.392 9.247.928-.992 2.176-1.76 3.552-1.76 2.592 0 4.96 1.855 4.96 7.104 0 4.48-1.92 7.23-4.96 7.23-4 0-5.92-2.304-5.92-10.623 0-9.28 2.176-13.12 5.823-13.12 2.976 0 4.096 1.792 4.544 4.48l-2.112.128zm-5.95 10.88c0 4.672 1.216 6.336 3.264 6.336 1.792 0 3.008-1.344 3.008-5.344 0-4.128-1.408-5.15-2.88-5.15s-2.624.96-3.392 1.983v2.176zm971.99-515.627c.256-2.72 1.728-4.928 4.704-4.928 2.592 0 5.15 1.792 5.15 5.632 0 3.264-1.344 5.12-3.007 5.44v.064c2.592.864 3.392 3.296 3.392 5.76 0 4.735-2.752 6.847-5.632 6.847-3.072 0-5.15-2.464-5.184-5.823h2.112c.192 2.496 1.28 3.903 3.328 3.903 1.536 0 3.072-1.664 3.072-4.832 0-3.808-1.6-4.896-5.248-4.896v-1.92c3.456 0 4.863-.832 4.863-4.416 0-2.752-1.088-3.84-2.687-3.84-1.984 0-2.688 1.664-2.752 3.264l-2.112-.256zm14.654 14.207c.32 2.304 1.6 2.688 2.496 2.688 2.048 0 3.328-2.815 3.392-9.247-.928.992-2.176 1.76-3.552 1.76-2.592 0-4.96-1.856-4.96-7.104 0-4.48 1.92-7.23 4.96-7.23 4 0 5.92 2.304 5.92 10.624 0 9.28-2.176 13.12-5.823 13.12-2.976 0-4.096-1.8-4.544-4.48l2.112-.128zm5.952-10.88c0-4.67-1.216-6.335-3.264-6.335-1.792 0-3.008 1.344-3.008 5.344 0 4.127 1.408 5.15 2.88 5.15s2.624-.96 3.392-1.984v-2.176z" fill="#3fa9f5"/><path d="M47.496 174.343L85.4 196.777l37.904 43.52 37.904 66.733 75.807 88.977h37.904l37.904-45.456 37.904 111.22 37.904-21.277 37.904 198.264 37.904-43.52 37.904-154.743 37.904 154.743 37.904 88 37.904-43.52 37.904 88h37.904l37.904-176.987 37.904 154.743 37.904 88.977h37.904l37.904 88.977 37.904-66.733 37.904 133.465 37.904-111.22 37.904-43.52" fill="none" stroke="#f15a24" stroke-width="4" stroke-linecap="round" stroke-miterlimit="10"/><g fill="#f15a24"><circle cx="51.296" cy="174.343" r="17.409"/><circle cx="85.399" cy="196.777" r="9.671"/><circle cx="123.303" cy="240.298" r="9.671"/><circle cx="161.207" cy="307.031" r="9.671"/><circle cx="199.11" cy="351.519" r="9.671"/><circle cx="237.014" cy="396.008" r="17.409"/><circle cx="274.918" cy="396.008" r="9.671"/><circle cx="312.821" cy="350.552" r="9.671"/><circle cx="350.725" cy="461.773" r="9.671"/><circle cx="388.629" cy="440.496" r="9.671"/><circle cx="426.532" cy="638.76" r="17.409"/><circle cx="464.436" cy="595.239" r="9.671"/><circle cx="502.34" cy="440.496" r="17.409"/><circle cx="540.243" cy="595.239" r="9.671"/><circle cx="578.147" cy="683.249" r="9.671"/><circle cx="616.051" cy="639.727" r="9.671"/><circle cx="653.955" cy="727.737" r="17.409"/><circle cx="691.858" cy="727.737" r="9.671"/><circle cx="729.762" cy="550.75" r="17.409"/><circle cx="767.666" cy="705.493" r="9.671"/><circle cx="805.569" cy="794.47" r="9.671"/><circle cx="843.473" cy="794.47" r="9.671"/><circle cx="881.377" cy="883.447" r="17.409"/><circle cx="919.28" cy="816.714" r="9.671"/><circle cx="994.804" cy="838.959" r="9.671"/><circle cx="1029.275" cy="795.437" r="17.409"/><circle cx="957.184" cy="953.18" r="17.409"/></g><g fill="#fff"><use xlink:href="#Z"/><use xlink:href="#a"/><use xlink:href="#b"/><use xlink:href="#a" x="185.419" y="221.182"/><use xlink:href="#c"/><use xlink:href="#b" x="199.6" y="242.42"/><use xlink:href="#c" x="227.494" y="88.743"/><use xlink:href="#d"/><use xlink:href="#Z" x="836.1" y="708.905"/><use xlink:href="#d" x="298.502" y="226.443"/><use xlink:href="#c" x="303.37" y="-87.761"/><path d="M734.625 561.503c-3.36 0-5.34-2.64-5.34-5.76 0-2.67 1.4-4.6 3.48-6.06-1.92-1.53-3-3.03-3-5.58 0-2.85 2.16-4.86 4.86-4.86s4.86 2 4.86 4.86c0 2.55-1.08 4.05-3 5.58 2.07 1.47 3.48 3.4 3.48 6.06 0 3.12-1.98 5.76-5.34 5.76zm0-10.68c-1.74 1.3-3.18 2.67-3.18 5 0 1.77.96 3.87 3.18 3.87s3.18-2.1 3.18-3.87c0-2.34-1.44-3.72-3.18-5zm0-9.78c-1.86 0-2.7 1.44-2.7 2.82 0 2.2 1.08 3.8 2.7 4.8 1.62-1 2.7-2.6 2.7-4.8 0-1.38-.84-2.82-2.7-2.82zM491.943 451.45v-1.8c1.92-6.42 7.92-10.02 7.92-14.94 0-2.28-1.14-3.42-2.6-3.42-1.7 0-2.97 1.32-3.15 4.56h-1.98c.24-4.92 2.46-6.36 5.07-6.36 2.85 0 4.83 1.92 4.83 5.52 0 5.4-4.86 7.08-8.1 14.64h8.22v1.8h-10.2z"/><use xlink:href="#Z" x="463.646" y="266.087"/><path d="M1024.1 784.464h9.72v1.14l-6.3 20.52h-2.28l6.3-19.86h-7.44v-1.8zM67.24 80c-.9 0-1.8-.48-2.28-1.56l-3.18-7.8H41.8l-3.24 7.8c-.48 1.08-1.38 1.56-2.22 1.56-1.32 0-2.7-1.02-2.7-2.52 0-.36.06-.72.24-1.02L49.3 38.962c.72-1.56 1.68-1.86 2.46-1.86.54 0 1.86.3 2.46 1.86L69.7 76.46c.12.3.18.66.18 1.02 0 1.5-1.26 2.52-2.64 2.52zM51.76 46.4L43.9 65.48h15.72L51.76 46.4zm23.52-3.118a4.32 4.32 0 1 1 0-8.64 4.32 4.32 0 1 1 0 8.64zm0 36.72c-1.32 0-2.64-.9-2.64-2.52v-26.76c0-1.68 1.32-2.58 2.64-2.58 1.26 0 2.52.9 2.52 2.58v26.76c0 1.68-1.26 2.52-2.52 2.52z"/><use xlink:href="#e"/><path d="M137.616 42.382h-9.96v35.1c0 1.62-1.2 2.52-2.52 2.52-1.26 0-2.58-.9-2.58-2.52v-35.1h-9.84c-1.74 0-2.64-1.32-2.64-2.58 0-1.2.9-2.52 2.58-2.52h24.96c1.68 0 2.58 1.32 2.58 2.52 0 1.26-.9 2.58-2.58 2.58z"/><use xlink:href="#e" x="58.438"/><use xlink:href="#f"/><use xlink:href="#g"/><use xlink:href="#h"/><path d="M260.423 80.12c-3.24 0-6-2.76-6-6.12V39.862c0-1.74 1.26-2.58 2.58-2.58s2.58.84 2.58 2.52V74c0 .72.54 1.02.84 1.02 1.68 0 2.58 1.2 2.58 2.58 0 1.32-.9 2.52-2.58 2.52zM305.96 80c-1.32 0-2.64-.9-2.64-2.52V59.66h-19.8v17.82c0 1.62-1.38 2.52-2.52 2.52-1.32 0-2.64-.9-2.64-2.52V39.802c0-1.68 1.32-2.52 2.64-2.52 1.14 0 2.52.84 2.52 2.52v14.76h19.8v-14.7c0-1.74 1.38-2.58 2.52-2.58 1.32 0 2.64.84 2.64 2.58V77.42c0 1.68-1.38 2.58-2.52 2.58z"/><use xlink:href="#f" x="155.996"/><path d="M359.96 81.02c-3.3 0-8.82-1.02-11.64-4.5-.36-.54-.54-1.08-.54-1.56 0-1.5 1.44-2.7 2.7-2.7.72 0 1.26.36 1.86 1.02 1.86 2.04 4.92 2.64 7.62 2.64 5.4 0 7.14-1.86 7.14-4.56 0-7.68-18.3-2.94-18.3-15.3 0-6.54 6.12-8.94 11.82-8.94 3.24 0 10.86 1.62 10.86 4.98 0 1.32-1.08 2.7-2.52 2.7-.54 0-1.38-.3-1.98-.78-1.62-1.38-3.96-1.8-6.36-1.8-4.98 0-6.72 1.86-6.72 3.84 0 7.14 18.36 2.52 18.36 15.3 0 7.08-5.94 9.66-12.3 9.66zM415.82 80c-.78 0-1.62-.42-2.16-1.32l-20.16-30.3v29.04c0 1.68-1.26 2.58-2.64 2.58-1.26 0-2.52-.9-2.52-2.52V39.862c0-1.68 1.32-2.58 2.64-2.58.84 0 1.56.36 2.16 1.26l20.16 30.3v-28.98c0-1.74 1.26-2.58 2.52-2.58 1.38 0 2.64.84 2.64 2.52V77.42c0 1.62-1.32 2.58-2.64 2.58z"/><use xlink:href="#h" x="202.557"/><use xlink:href="#g" x="263.394"/><use xlink:href="#h" x="263.394"/><use xlink:href="#i"/><path d="M566.657 80h-16.14c-1.38 0-2.64-1.26-2.64-2.52V39.862c0-1.44 1.08-2.58 2.52-2.58h14.88c6.12 0 11.22 5.04 11.22 11.1 0 3.24-1.32 6-3.42 7.98 3.84 2.16 6.3 6.24 6.3 10.92 0 6.96-5.76 12.72-12.72 12.72zm-1.38-37.62h-12.24V54.5h12.24c3.84 0 6.06-3.24 6.06-6.06 0-3.3-2.7-6.06-6.06-6.06zm1.38 17.22h-13.62v15.3h13.62c4.08 0 7.56-3.54 7.56-7.62 0-4.2-3.48-7.68-7.56-7.68z"/><use xlink:href="#j"/><use xlink:href="#j" x="32.759"/><path d="M673.395 80c-1.32 0-2.52-.9-2.52-2.52V60.8c0-4.68-3.9-8.58-8.58-8.58-4.62 0-8.52 3.9-8.52 8.58v16.62c0 1.68-1.26 2.64-2.64 2.64-1.26 0-2.52-.9-2.52-2.58V50.66c0-1.74 1.26-2.52 2.52-2.52 1.2 0 2.28.66 2.58 1.98 2.34-1.86 5.28-3 8.58-3 7.44 0 13.68 6.18 13.68 13.68v16.62c0 1.68-1.2 2.58-2.58 2.58zm32.64 1.02c-4.38 0-10.5-1.8-13.92-4.98-.66-.6-.84-1.26-.84-1.86a2.6 2.6 0 0 1 2.58-2.58c.9 0 1.2.3 2.28 1.14 2.94 2.22 6.42 3.18 9.9 3.18 7.14 0 10.26-2.58 10.26-7.02 0-12.48-23.938-5.4-23.938-21.72 0-7.32 6.18-10.98 14.1-10.98 4.14 0 10.08 1.62 13.02 5.1.48.54.66 1.08.66 1.62 0 1.44-1.32 2.7-2.58 2.7-.9 0-1.38-.42-2.4-1.32-2.4-2.04-5.46-2.94-8.7-2.94-6.48 0-8.94 2.58-8.94 5.82 0 11.22 23.94 4.56 23.94 21.72 0 8.94-7.5 12.12-15.42 12.12zM754.574 80c-3.3 0-4.8-2.34-5.34-3.42-2.4 2.64-5.88 4.44-10.56 4.44-9.78 0-15.06-8.04-15.06-16.98s5.4-16.92 15.06-16.92c4.2 0 7.56 1.5 9.9 3.96v-.24c0-.66.24-2.7 2.52-2.7 1.26 0 2.64.66 2.64 2.52v23.16c0 .78.54 1.08.84 1.08 1.68 0 2.58 1.2 2.58 2.58 0 1.26-.9 2.52-2.58 2.52zm-15.898-27.78c-6 0-9.9 4.68-9.9 11.82 0 7.2 3.9 11.88 9.9 11.88 6.06 0 9.9-4.68 9.9-11.88 0-7.14-3.84-11.82-9.9-11.82zm31.438 1.022h-2.7v24.18c0 1.68-1.26 2.52-2.64 2.52-1.26 0-2.52-.84-2.52-2.52v-24.18h-2.46c-1.62 0-2.52-1.2-2.52-2.52 0-1.38.9-2.58 2.52-2.58h2.46v-4.08c0-3.84 3.18-6.78 6.9-6.78 1.74 0 2.64 1.2 2.64 2.58 0 1.26-.9 2.52-2.64 2.52-1.02 0-1.74.78-1.74 1.62v4.14h2.7c1.74 0 2.64 1.2 2.64 2.58 0 1.32-.9 2.52-2.64 2.52z"/><use xlink:href="#j" x="192.657"/><use xlink:href="#i" x="290.337"/></g><g fill="#3fa9f5"><path d="M57.594 128c-.53 0-1.063-.38-1.063-1.063v-20.63L47.487 123.1c-.228.494-.57.684-.874.684-.418 0-.76-.228-1.025-.684l-9.005-16.793v20.63c0 .684-.57 1.063-1.063 1.063-.532 0-1.103-.38-1.103-1.063v-24.925c0-.646.57-1.063 1.14-1.063.38 0 .684.15.91.53l10.07 18.808 10.106-18.808a1.03 1.03 0 0 1 .911-.531c.57 0 1.14.418 1.14 1.063v24.925c0 .684-.57 1.063-1.103 1.063z"/><use xlink:href="#k"/><use xlink:href="#l"/><use xlink:href="#l" x="7.56"/><use xlink:href="#k" x="21.925"/><use xlink:href="#m"/><use xlink:href="#n"/><use xlink:href="#o"/><use xlink:href="#m" x="69.424"/><use xlink:href="#p"/><use xlink:href="#p" x="19.492"/><use xlink:href="#l" x="143.75"/><use xlink:href="#k" x="158.114"/><path d="M236.914 136.664c-3.23 0-7.79-1.216-7.79-2.584 0-.608.494-1.216 1.103-1.216.418 0 1.29.646 2.014.912.987.342 2.545.722 4.673.722 4.863 0 7.37-2.394 7.37-7.067v-2.66c-1.672 2.014-4.065 3.23-7.37 3.23-6.003 0-9.536-4.256-9.536-10.106 0-5.7 3.42-10.715 9.536-10.715 3.306 0 5.775 1.368 7.37 3.572v-1.824c0-.684.57-1.063 1.102-1.063.494 0 1.064.38 1.064 1.063v18.503c0 6.04-3.6 9.233-9.537 9.233zm0-27.318c-4.483 0-7.37 3.61-7.37 8.55 0 4.9 2.698 7.94 7.37 7.94s7.37-3.04 7.37-7.94c0-4.94-2.85-8.55-7.37-8.55z"/><use xlink:href="#q"/><path d="M279.665 128h-1.178c-3 0-4.483-1.48-4.483-4.445V109.99h-1.937c-.684 0-1.063-.57-1.063-1.102 0-.494.38-1.063 1.063-1.063h1.938v-5.813c0-.684.57-1.063 1.103-1.063s1.063.38 1.063 1.063v5.813h3.495c.685 0 1.064.57 1.064 1.063 0 .532-.38 1.102-1.064 1.102h-3.495v13.564c0 1.86.532 2.28 2.317 2.28h1.178c.685 0 1.064.57 1.064 1.103 0 .493-.38 1.063-1.064 1.063z"/><use xlink:href="#o" x="147.779"/></g><g fill="#fff"><path d="M324.77 109.307l-7.484 17.82c-.23.494-.57.874-1.064.874s-.874-.38-1.102-.874l-7.484-17.78c-.076-.2-.076-.342-.076-.494 0-.607.53-1.025 1.102-1.025.342 0 .76.15.95.646l6.6 15.616 6.573-15.616c.23-.494.608-.684.988-.684.57 0 1.102.418 1.102 1.025 0 .114 0 .305-.114.494z"/><use xlink:href="#o" x="192.162"/><path d="M347.267 128a2.14 2.14 0 1 1 0-4.331 2.14 2.14 0 1 1 0 4.331z"/></g><g fill="#f15a24"><use xlink:href="#n" x="248.592"/><use xlink:href="#m" x="292.177"/><path d="M408.37 128a2.14 2.14 0 1 1 0-4.331 2.14 2.14 0 1 1 0 4.331z"/><use xlink:href="#m" x="331.658"/><use xlink:href="#p" x="262.233"/><use xlink:href="#p" x="281.726"/><use xlink:href="#r"/><path d="M506.71 128h-1.178c-3 0-4.483-1.48-4.483-4.445V109.99H499.1c-.684 0-1.063-.57-1.063-1.102 0-.494.38-1.063 1.063-1.063h1.938v-5.813c0-.684.57-1.063 1.103-1.063s1.063.38 1.063 1.063v5.813h3.495c.685 0 1.064.57 1.064 1.063 0 .532-.38 1.102-1.064 1.102h-3.495v13.564c0 1.86.532 2.28 2.317 2.28h1.178c.685 0 1.064.57 1.064 1.103 0 .493-.38 1.063-1.064 1.063z"/><use xlink:href="#r" x="34.353"/><use xlink:href="#l" x="463.97"/><path d="M565.683 125.76c-1.672 1.86-4 2.887-6.8 2.887-6.117 0-9.536-5.015-9.536-10.752 0-5.7 3.42-10.715 9.536-10.715 2.812 0 5.13 1.026 6.8 2.888.23.23.305.494.305.722 0 .57-.532 1.14-1.103 1.14-.266 0-.53-.114-.798-.38-1.254-1.406-3-2.204-5.205-2.204-4.483 0-7.37 3.6-7.37 8.55s2.888 8.587 7.37 8.587c2.204 0 3.95-.836 5.205-2.204.267-.266.532-.38.798-.38a1.13 1.13 0 0 1 1.103 1.102c0 .267-.076.494-.305.76zm12.77-16.073c-3.57 0-6.497 2.888-6.497 6.497v10.753c0 .684-.57 1.063-1.063 1.063-.532 0-1.103-.38-1.103-1.063V108.9c0-.684.57-1.063 1.103-1.063.494 0 1.063.38 1.063 1.063v1.558c1.7-1.86 3.95-2.925 6.497-2.925.684 0 1.102.57 1.102 1.063 0 .532-.418 1.102-1.102 1.102z"/><use xlink:href="#r" x="104.566"/><use xlink:href="#s"/><use xlink:href="#q" x="370.526"/><path d="M660.372 118.996h-15.768c.342 4.332 3.153 7.485 7.295 7.485 2.052 0 4.483-.912 5.585-2.622.267-.418.57-.53.912-.53.57 0 1.178.455 1.178 1.025 0 .342 0 .418-.722 1.254-1.748 2.052-4.293 3.04-6.953 3.04-6.117 0-9.536-5.015-9.536-10.752 0-5.7 3.42-10.715 9.536-10.715s9.537 5.054 9.537 10.715c0 .57-.532 1.102-1.064 1.102zm-8.473-9.65c-4.56 0-6.953 3.495-7.295 7.485h14.628c-.342-4.332-3.153-7.485-7.333-7.485z"/><use xlink:href="#s" x="60.874"/></g><defs ><path id="C" d="M104.814 1045.51c-.633 0-1.267-.367-1.4-1.1-1.334 1.034-2.97 1.668-4.804 1.668-4.136 0-7.604-3.436-7.604-7.605v-9.24a1.37 1.37 0 0 1 1.4-1.435c.768 0 1.468.5 1.468 1.4v9.272c0 2.602 2.168 4.77 4.736 4.77 2.603 0 4.77-2.17 4.77-4.77v-9.24c0-1.034.667-1.468 1.4-1.468.768 0 1.435.5 1.435 1.435v14.9c0 .934-.667 1.4-1.4 1.4z"/><path id="D" d="M340.074 1046.357c-1.2 0-3.22-.42-3.92-1.58-.08-.12-.08-.22-.08-.3 0-.32.28-.602.58-.602.12 0 .32.102.44.28.72.88 2 1.06 2.98 1.06 1.94 0 2.92-.64 2.92-1.94 0-3.02-6.562-1.42-6.562-5.422 0-2.02 2.02-2.8 3.84-2.8 1.04 0 2.64.36 3.44 1.16.12.12.18.26.18.38a.65.65 0 0 1-.62.6c-.12 0-.26-.04-.38-.16-.62-.6-1.74-.84-2.62-.84-1.76 0-2.7.682-2.7 1.66 0 2.8 6.562 1.32 6.562 5.422 0 2.28-2 3.08-4.06 3.08z"/><path id="E" d="M350.795 1046.318c-3.22 0-5.02-2.64-5.02-5.662 0-3 1.8-5.64 5.02-5.64s5.02 2.64 5.02 5.64c0 3.02-1.8 5.662-5.02 5.662zm0-10.162c-2.36 0-3.88 1.9-3.88 4.5s1.52 4.52 3.88 4.52c2.38 0 3.88-1.92 3.88-4.52s-1.5-4.5-3.88-4.5z"/><path id="F" d="M374.534 1036.336a3.42 3.42 0 0 0-3.421 3.42v5.662c0 .36-.3.56-.56.56-.28 0-.58-.2-.58-.56v-9.502c0-.36.3-.56.58-.56.26 0 .56.2.56.56v.82c.9-.98 2.08-1.54 3.42-1.54.36 0 .58.3.58.56a.58.58 0 0 1-.58.58z"/><path id="G" d="M384.714 1044.797c-.88.98-2.1 1.52-3.58 1.52-3.22 0-5.02-2.64-5.02-5.662 0-3 1.8-5.64 5.02-5.64 1.48 0 2.7.54 3.58 1.52.12.12.16.262.16.38 0 .3-.28.6-.58.6-.14 0-.28-.06-.42-.2-.66-.74-1.58-1.16-2.74-1.16-2.36 0-3.88 1.9-3.88 4.5s1.52 4.52 3.88 4.52c1.16 0 2.08-.44 2.74-1.16.14-.14.28-.2.42-.2.3 0 .58.26.58.58 0 .14-.04.26-.16.398z"/><path id="H" d="M396.295 1041.236h-8.302c.18 2.28 1.66 3.94 3.84 3.94 1.08 0 2.36-.48 2.94-1.38.14-.22.3-.28.48-.28.3 0 .62.24.62.54 0 .18 0 .22-.38.658-.92 1.082-2.26 1.602-3.66 1.602-3.22 0-5.02-2.64-5.02-5.662 0-3 1.8-5.64 5.02-5.64s5.02 2.66 5.02 5.64c0 .3-.28.58-.56.58zm-4.46-5.08c-2.4 0-3.66 1.84-3.84 3.94h7.7c-.18-2.28-1.66-3.94-3.86-3.94z"/><path id="I" d="M440.95 1033.436c-.64 0-1.14-.5-1.14-1.14s.5-1.14 1.14-1.14 1.14.5 1.14 1.14-.5 1.14-1.14 1.14zm0 12.543c-.28 0-.58-.18-.58-.56v-9.502c0-.36.28-.56.58-.56.26 0 .56.18.56.56v9.502c0 .36-.26.56-.56.56z"/><path id="J" d="M454.792 1045.98h-.02c-.66 0-1.6-.36-1.98-1.56-.84 1.18-2.14 1.9-3.88 1.9-3.26 0-5.02-2.682-5.02-5.662 0-3.02 1.8-5.64 5.02-5.64 1.74 0 3.04.72 3.88 1.88v-.98c0-.32.26-.56.58-.56.28 0 .56.2.56.56v8.063c0 1.28 1.44.48 1.44 1.44a.55.55 0 0 1-.58.561zm-5.88-9.822c-2.36 0-3.88 1.9-3.88 4.5s1.52 4.52 3.88 4.52c2.38 0 3.88-1.92 3.88-4.52s-1.5-4.5-3.88-4.5z"/><path id="K" d="M460.85 1045.98h-.62c-1.58 0-2.36-.78-2.36-2.342v-7.14h-1.02c-.36 0-.56-.3-.56-.58 0-.26.2-.56.56-.56h1.02v-3.06c0-.36.3-.56.58-.56s.56.2.56.56v3.06h1.84c.36 0 .56.3.56.56 0 .28-.2.58-.56.58h-1.84v7.14c0 .98.28 1.2 1.22 1.2h.62c.36 0 .56.3.56.58 0 .26-.2.56-.56.56z"/><path id="L" d="M487.73 1045.98c-.28 0-.58-.2-.58-.56v-5.842c0-1.9-1.52-3.42-3.42-3.42a3.42 3.42 0 0 0-3.421 3.42v5.842c0 .36-.3.56-.56.56-.28 0-.58-.2-.58-.56v-9.502c0-.36.3-.56.58-.56.26 0 .56.2.56.56v.64c.9-.98 2.08-1.54 3.42-1.54a4.6 4.6 0 0 1 4.561 4.561v5.842c0 .36-.3.56-.56.56z"/><path id="M" d="M557.17 1036.156l-5.42 12.822c-.4.94-1.22 1.2-2.14 1.2h-.88c-.36 0-.56-.3-.56-.58 0-.262.2-.56.56-.56h.88c.44 0 .9-.02 1.08-.48l1.14-2.72-4.142-9.682c-.04-.1-.04-.18-.04-.26 0-.32.28-.54.58-.54.18 0 .4.08.5.34l3.722 8.682 3.68-8.682a.52.52 0 0 1 .52-.34c.3 0 .56.22.56.54 0 .08 0 .16-.04.26z"/><path id="N" d="M594.866 1047.758c-.08.06-.2.08-.3.08-.32 0-.54-.28-.54-.58 0-.56.86-.64 1-1.28-.6-.04-1.08-.54-1.08-1.14 0-.68.56-1.16 1.16-1.16.98 0 1.2 1 1.2 1.62 0 .98-.52 1.92-1.44 2.46z"/><path id="O" d="M640.887 1046.098c-1.08 0-1.98-1-1.98-2.12v-11.684c0-.36.3-.56.58-.56.26 0 .56.2.56.56v11.684c0 1.28 1.42.54 1.42 1.44 0 .34-.24.68-.58.68z"/><path id="P" d="M753.367 1045.98c-.28 0-.56-.2-.56-.56v-6.72c0-1.38-1.16-2.54-2.54-2.54s-2.56 1.16-2.56 2.52v6.742c0 .36-.28.56-.56.56s-.58-.2-.58-.56v-6.72a2.57 2.57 0 0 0-2.521-2.541c-1.4 0-2.56 1.16-2.56 2.52v6.742c0 .36-.3.56-.56.56-.28 0-.58-.2-.58-.56v-9.502c0-.36.3-.56.58-.56.26 0 .56.2.56.56v.12a3.64 3.64 0 0 1 2.54-1.02 3.71 3.71 0 0 1 3.121 1.701c.66-1.02 1.8-1.7 3.1-1.7 2.08 0 3.7 1.64 3.7 3.66v6.742c0 .36-.3.56-.58.56z"/><path id="Q" d="M46.233 992.81c.32 2.305 1.6 2.69 2.495 2.69 2.048 0 3.328-2.816 3.392-9.248-.928.992-2.176 1.76-3.552 1.76-2.592 0-4.96-1.855-4.96-7.104 0-4.48 1.92-7.23 4.96-7.23 4 0 5.92 2.303 5.92 10.623 0 9.28-2.176 13.12-5.823 13.12-2.976 0-4.096-1.793-4.544-4.48l2.112-.13zm5.95-10.88c0-4.672-1.216-6.334-3.264-6.334-1.792 0-3.008 1.344-3.008 5.342 0 4.13 1.408 5.152 2.88 5.152s2.624-.96 3.392-1.984v-2.176z"/><path id="R" d="M997.883 997.1v-1.92c2.048-6.848 8.447-10.687 8.447-15.936 0-2.432-1.216-3.646-2.784-3.646-1.823 0-3.168 1.406-3.36 4.863h-2.112c.256-5.248 2.624-6.783 5.408-6.783 3.04 0 5.15 2.047 5.15 5.887 0 5.76-5.184 7.55-8.64 15.615h8.768v1.92h-10.88z"/><path id="S" d="M1015.74 997.42c-3.775 0-5.567-3.52-5.567-11.87s1.792-11.87 5.567-11.87 5.567 3.52 5.567 11.87-1.792 11.87-5.567 11.87zm0-21.822c-2.112 0-3.264 2.367-3.264 9.95s1.15 9.95 3.264 9.95 3.264-2.37 3.264-9.95-1.152-9.95-3.264-9.95z"/><path id="T" d="M1024.314 997.1v-1.92h2.816v-18.56l-2.88.256v-1.408c1.312-.32 2.592-.896 3.647-1.79h1.536v21.502h2.688v1.92h-7.808z"/><path id="U" d="M679.362 991.13h-11.62c.252 3.19 2.324 5.516 5.376 5.516 1.513 0 3.305-.672 4.116-1.932.196-.31.42-.393.672-.393.42 0 .868.336.868.757 0 .252 0 .308-.532.924-1.288 1.512-3.164 2.24-5.124 2.24-4.508 0-7.027-3.695-7.027-7.924 0-4.2 2.52-7.896 7.027-7.896s7.028 3.724 7.028 7.896c0 .42-.392.813-.784.813zm-6.244-7.112c-3.36 0-5.124 2.576-5.376 5.516h10.78c-.252-3.19-2.324-5.516-5.404-5.516z"/><path id="V" d="M689.86 984.27c-2.632 0-4.788 2.128-4.788 4.788v7.924c0 .504-.42.784-.783.784-.393 0-.812-.28-.812-.784v-13.3c0-.504.42-.784.813-.784.363 0 .783.28.783.784v1.148c1.26-1.372 2.912-2.156 4.788-2.156.504 0 .813.42.813.784 0 .392-.31.812-.812.812z"/><path id="W" d="M739.562 997.766h-.028c-.924 0-2.24-.504-2.77-2.184-1.177 1.65-2.996 2.66-5.433 2.66-4.563 0-7.027-3.752-7.027-7.924 0-4.228 2.52-7.896 7.027-7.896 2.437 0 4.256 1.008 5.433 2.632v-1.372c0-.448.363-.784.812-.784.393 0 .784.28.784.784v11.284c0 1.792 2.016.672 2.016 2.016 0 .364-.252.784-.812.784zm-8.232-13.748c-3.304 0-5.432 2.66-5.432 6.3s2.128 6.328 5.432 6.328c3.332 0 5.433-2.687 5.433-6.328s-2.1-6.3-5.433-6.3z"/><path id="X" d="M828.565 998.298c-1.68 0-4.508-.588-5.487-2.212-.112-.168-.112-.31-.112-.42 0-.448.392-.84.812-.84.168 0 .448.14.616.393 1.008 1.23 2.8 1.483 4.172 1.483 2.717 0 4.088-.896 4.088-2.716 0-4.228-9.184-1.987-9.184-7.588 0-2.828 2.828-3.92 5.376-3.92 1.456 0 3.696.504 4.816 1.624.168.168.252.364.252.532 0 .42-.42.84-.868.84a.74.74 0 0 1-.532-.224c-.868-.84-2.436-1.177-3.668-1.177-2.464 0-3.78.952-3.78 2.324 0 3.92 9.185 1.85 9.185 7.588 0 3.192-2.8 4.312-5.685 4.312z"/><path id="Y" d="M915.253 990.878l-6.637 6.636c-.168.168-.336.224-.53.224-.42 0-.812-.392-.812-.812 0-.168.084-.364.224-.532l6.05-6.076-6.02-6.02c-.14-.168-.224-.364-.224-.532 0-.448.392-.84.812-.84.196 0 .393.056.56.252l6.58 6.58c.168.168.224.336.224.56s-.056.393-.224.56z"/><path id="Z" d="M40.776 168.023c.24-2.55 1.62-4.62 4.4-4.62 2.43 0 4.83 1.68 4.83 5.28 0 3.06-1.26 4.8-2.82 5.1v.06c2.43.8 3.18 3.1 3.18 5.4 0 4.44-2.58 6.42-5.28 6.42-2.88 0-4.83-2.3-4.86-5.46h1.98c.18 2.34 1.2 3.66 3.12 3.66 1.44 0 2.88-1.56 2.88-4.53 0-3.57-1.5-4.6-4.92-4.6v-1.8c3.24 0 4.56-.78 4.56-4.14 0-2.58-1.02-3.6-2.52-3.6-1.86 0-2.52 1.56-2.58 3.06l-1.98-.24z"/><path id="a" d="M53.555 180.323c.18 1.56.84 3.54 2.76 3.54 1.86 0 3.24-1.92 3.24-5.67 0-4.05-1.38-5.3-2.97-5.3-1.23 0-2.37.93-2.73 2.1l-1.68-.3.72-10.98h7.62l-.18 1.8h-5.7l-.42 6.6c.75-.63 1.77-1.02 2.88-1.02 2.52 0 4.62 2.34 4.62 7.05 0 4.95-2.4 7.53-5.28 7.53-3.12 0-4.68-2.34-4.86-5.16l1.98-.18z"/><path id="b" d="M226.435 406.544v-1.8c1.92-6.42 7.92-10.02 7.92-14.94 0-2.28-1.14-3.42-2.6-3.42-1.7 0-2.97 1.32-3.15 4.56h-1.98c.24-4.92 2.46-6.36 5.07-6.36 2.85 0 4.83 1.92 4.83 5.52 0 5.4-4.86 7.08-8.1 14.64h8.22v1.8h-10.2z"/><path id="c" d="M417.456 648.964v-1.8h2.64v-17.4l-2.7.24v-1.32c1.23-.3 2.43-.84 3.42-1.68h1.44v20.16h2.52v1.8h-7.32z"/><path id="d" d="M658.75 738.007c-3.54 0-5.22-3.3-5.22-11.13s1.68-11.13 5.22-11.13 5.22 3.3 5.22 11.13-1.68 11.13-5.22 11.13zm0-20.46c-1.98 0-3.06 2.22-3.06 9.33s1.08 9.33 3.06 9.33 3.06-2.22 3.06-9.33-1.08-9.33-3.06-9.33z"/><path id="e" d="M97.838 52.222c-4.62 0-8.52 3.9-8.52 8.58v16.62c0 1.68-1.26 2.58-2.64 2.58-1.26 0-2.52-.9-2.52-2.52v-26.76c0-1.68 1.38-2.58 2.52-2.58 1.2 0 2.34.66 2.58 2.04a13.88 13.88 0 0 1 8.58-3.06c1.74 0 2.64 1.2 2.64 2.58 0 1.32-.9 2.52-2.64 2.52z"/><path id="f" d="M188.184 80c-3.3 0-4.8-2.34-5.34-3.42-2.4 2.64-5.88 4.44-10.56 4.44-9.78 0-15.06-8.04-15.06-16.98s5.4-16.92 15.06-16.92c4.2 0 7.56 1.5 9.9 3.96v-.24c0-.66.24-2.7 2.52-2.7 1.26 0 2.64.66 2.64 2.52v23.16c0 .78.54 1.08.84 1.08 1.68 0 2.58 1.2 2.58 2.58 0 1.26-.9 2.52-2.58 2.52zm-15.9-27.78c-6 0-9.9 4.68-9.9 11.82 0 7.2 3.9 11.88 9.9 11.88 6.06 0 9.9-4.68 9.9-11.88 0-7.14-3.84-11.82-9.9-11.82z"/><path id="g" d="M218.424 51.682l-10.92 26.28c-.54 1.38-1.44 2.04-2.58 2.04-1.02 0-1.98-.66-2.58-2.04l-10.92-26.28c-.12-.42-.18-.72-.18-1.08 0-1.44 1.32-2.46 2.64-2.46.9 0 1.8.48 2.28 1.56l8.76 21 8.76-21c.42-1.14 1.5-1.62 2.34-1.62 1.38 0 2.64.96 2.64 2.46a2.99 2.99 0 0 1-.24 1.14z"/><path id="h" d="M248.183 66.68h-22.2c.84 5.64 4.44 9.24 9.72 9.24 2.7 0 5.4-.96 7.14-3.12.54-.6 1.14-.96 1.86-.96 1.32 0 2.7 1.2 2.7 2.64 0 .72-.18 1.26-1.44 2.52-2.7 2.64-6.42 4.02-10.26 4.02-9.66 0-15.06-7.98-15.06-16.98 0-8.94 5.4-16.92 15.06-16.92 9.78 0 15 7.98 15 16.92 0 1.32-.96 2.64-2.52 2.64zm-12.48-14.46c-5.64 0-8.94 4.14-9.72 9.3h19.44c-.84-5.76-4.44-9.3-9.72-9.3z"/><path id="i" d="M531.857 52.222c-4.62 0-8.52 3.9-8.52 8.58v16.62c0 1.68-1.26 2.58-2.64 2.58-1.26 0-2.52-.9-2.52-2.52v-26.76c0-1.68 1.38-2.58 2.52-2.58 1.2 0 2.34.66 2.58 2.04 2.34-1.92 5.52-3.06 8.58-3.06 1.74 0 2.64 1.2 2.64 2.58 0 1.32-.9 2.52-2.64 2.52z"/><path id="j" d="M609.257 66.68h-22.2c.84 5.64 4.44 9.24 9.72 9.24 2.7 0 5.4-.96 7.14-3.12.54-.6 1.14-.96 1.86-.96 1.32 0 2.7 1.2 2.7 2.64 0 .72-.18 1.26-1.44 2.52-2.7 2.64-6.42 4.02-10.26 4.02-9.66 0-15.06-7.98-15.06-16.98 0-8.94 5.4-16.92 15.06-16.92 9.78 0 15 7.98 15 16.92 0 1.32-.96 2.64-2.52 2.64zm-12.48-14.46c-5.64 0-8.94 4.14-9.72 9.3h19.438c-.84-5.76-4.44-9.3-9.72-9.3z"/><path id="k" d="M64.438 104.178a2.14 2.14 0 1 1 0-4.332 2.14 2.14 0 0 1 0 4.332zm0 23.822c-.532 0-1.103-.342-1.103-1.063V108.89c0-.684.532-1.063 1.103-1.063.494 0 1.063.342 1.063 1.063v18.048c0 .684-.494 1.063-1.063 1.063z"/><path id="l" d="M73.9 128.228c-2.052 0-3.762-1.9-3.762-4.027v-22.188c0-.684.57-1.063 1.103-1.063.494 0 1.063.38 1.063 1.063V124.2c0 2.432 2.697 1.026 2.697 2.736 0 .645-.455 1.29-1.102 1.29z"/><path id="m" d="M100.726 128.646c-6.117 0-9.536-5.015-9.536-10.752 0-5.7 3.42-10.715 9.536-10.715s9.537 5.016 9.537 10.715c0 5.737-3.42 10.752-9.537 10.752zm0-19.3c-4.483 0-7.37 3.61-7.37 8.55s2.888 8.587 7.37 8.587c4.52 0 7.37-3.647 7.37-8.587s-2.85-8.55-7.37-8.55z"/><path id="n" d="M130.288 128c-.53 0-1.102-.38-1.102-1.063v-11.095a6.47 6.47 0 0 0-6.497-6.497c-3.57 0-6.497 2.888-6.497 6.497v11.095c0 .684-.57 1.063-1.063 1.063-.532 0-1.103-.38-1.103-1.063V108.89c0-.684.57-1.063 1.103-1.063.494 0 1.063.38 1.063 1.063v1.216c1.7-1.86 3.95-2.926 6.497-2.926 4.71 0 8.663 3.914 8.663 8.663v11.095c0 .684-.57 1.063-1.064 1.063z"/><path id="o" d="M141.994 128.722c-2.28 0-6.117-.798-7.447-3-.15-.23-.15-.418-.15-.57 0-.607.53-1.14 1.102-1.14.228 0 .607.19.836.532 1.367 1.67 3.8 2.014 5.66 2.014 3.686 0 5.547-1.216 5.547-3.686 0-5.737-12.462-2.698-12.462-10.297 0-3.837 3.837-5.32 7.295-5.32 1.976 0 5.015.685 6.535 2.204.228.228.342.494.342.722 0 .57-.57 1.14-1.178 1.14-.23 0-.494-.076-.722-.304-1.178-1.14-3.306-1.596-4.978-1.596-3.344 0-5.13 1.292-5.13 3.153 0 5.32 12.462 2.508 12.462 10.297 0 4.33-3.8 5.85-7.713 5.85z"/><path id="p" d="M190.404 103.077h-1.178c-.912 0-1.672.76-1.672 1.633v3.116h2.85c.723 0 1.064.57 1.064 1.063 0 .532-.38 1.102-1.064 1.102h-2.85v16.946c0 .684-.53 1.063-1.063 1.063s-1.063-.342-1.063-1.063V109.99h-2.622c-.684 0-1.063-.57-1.063-1.102 0-.494.38-1.063 1.063-1.063h2.622v-3.116a3.77 3.77 0 0 1 3.761-3.761h1.216c.685 0 1.103.53 1.103 1.102 0 .532-.38 1.026-1.103 1.026z"/><path id="q" d="M267.35 128c-.53 0-1.102-.38-1.102-1.063v-11.095a6.47 6.47 0 0 0-6.497-6.497c-3.57 0-6.497 2.888-6.497 6.497v11.095c0 .684-.57 1.063-1.063 1.063-.532 0-1.103-.38-1.103-1.063v-24.925c0-.684.57-1.063 1.103-1.063.494 0 1.063.38 1.063 1.063v8.093c1.596-1.86 3.913-2.926 6.497-2.926 4.71 0 8.663 3.914 8.663 8.663v11.095c0 .684-.57 1.063-1.064 1.063z"/><path id="r" d="M495.954 128h-.038c-1.254 0-3.04-.684-3.762-2.964-1.596 2.242-4.065 3.61-7.37 3.61-6.193 0-9.536-5.09-9.536-10.752 0-5.737 3.42-10.715 9.536-10.715 3.306 0 5.775 1.368 7.37 3.572v-1.862c0-.607.494-1.063 1.102-1.063.532 0 1.064.38 1.064 1.063V124.2c0 2.432 2.735.912 2.735 2.736a1.04 1.04 0 0 1-1.102 1.063zm-11.17-18.655c-4.483 0-7.37 3.61-7.37 8.55s2.888 8.587 7.37 8.587c4.52 0 7.37-3.647 7.37-8.587s-2.85-8.55-7.37-8.55z"/><path id="s" d="M610.67 128.722c-2.28 0-6.117-.798-7.447-3-.15-.23-.15-.418-.15-.57 0-.607.53-1.14 1.102-1.14.228 0 .607.19.836.532 1.367 1.67 3.8 2.014 5.66 2.014 3.686 0 5.547-1.216 5.547-3.686 0-5.737-12.462-2.698-12.462-10.297 0-3.837 3.837-5.32 7.295-5.32 1.976 0 5.016.685 6.535 2.204.228.228.342.494.342.722 0 .57-.57 1.14-1.178 1.14-.23 0-.494-.076-.722-.304-1.18-1.14-3.306-1.596-4.978-1.596-3.344 0-5.13 1.292-5.13 3.153 0 5.32 12.462 2.508 12.462 10.297 0 4.33-3.8 5.85-7.713 5.85z"/></defs></svg>