<svg xmlns="http://www.w3.org/2000/svg" xmlns:xlink="http://www.w3.org/1999/xlink" viewBox="0 0 1080 1080"><style>.J{isolation:isolate}</style><defs><linearGradient id="A" x1="1068.284" y1="1068.284" x2="11.716" y2="11.716" gradientUnits="userSpaceOnUse"><stop offset="0" stop-color="#108dc7"/><stop offset=".071" stop-color="#258dba"/><stop offset=".326" stop-color="#6c8d8c"/><stop offset=".556" stop-color="#a48e68"/><stop offset=".752" stop-color="#cd8e4e"/><stop offset=".906" stop-color="#e68e3e"/><stop offset="1" stop-color="#ef8e38"/></linearGradient><linearGradient id="B" x1="627.231" y1="287" x2="1047.231" y2="287" gradientUnits="userSpaceOnUse"><stop offset="0" stop-color="#e43a15"/><stop offset=".228" stop-color="#e54123"/><stop offset=".708" stop-color="#e64d3c"/><stop offset="1" stop-color="#e65245"/></linearGradient><linearGradient id="C" y1="448" y2="448" xlink:href="#B"/><linearGradient id="D" x1="36.314" y1="586" x2="622.314" y2="586" xlink:href="#B"/><path id="E" d="M814.464 1046.857c-1.2 0-3.22-.42-3.92-1.58a.482.482 0 0 1-.08-.3.546.546 0 0 1 1.021-.32 3.812 3.812 0 0 0 2.98 1.061c1.94 0 2.92-.64 2.92-1.94 0-3.02-6.562-1.42-6.562-5.422 0-2.02 2.02-2.8 3.84-2.8a5.415 5.415 0 0 1 3.44 1.16.558.558 0 0 1 .18.38.648.648 0 0 1-.62.6.531.531 0 0 1-.38-.16 4.001 4.001 0 0 0-2.62-.84c-1.76 0-2.7.68-2.7 1.66 0 2.8 6.562 1.32 6.562 5.422 0 2.28-2 3.08-4.06 3.08z"/><path id="F" d="M907.042 1033.935a1.14 1.14 0 1 1 1.141-1.14 1.127 1.127 0 0 1-1.141 1.14zm0 12.543a.55.55 0 0 1-.58-.561v-9.502a.551.551 0 0 1 .58-.56.545.545 0 0 1 .561.56v9.502a.536.536 0 0 1-.561.561z"/><path id="G" d="M106.614 1045.51a1.36 1.36 0 0 1-1.4-1.101 7.763 7.763 0 0 1-4.804 1.668 7.666 7.666 0 0 1-7.604-7.605v-9.24a1.434 1.434 0 0 1 2.868-.033v9.272a4.753 4.753 0 1 0 9.507 0v-9.24a1.33 1.33 0 0 1 1.4-1.468 1.364 1.364 0 0 1 1.435 1.435v14.9a1.328 1.328 0 0 1-1.401 1.4z"/><path id="H" d="M97.222 208.577q-.044.43.397.387h12.873q.485-.086.397.387v2.32c.06.315-.074.458-.397.43h-16.18c-.324.028-.456-.114-.397-.43v-2.363q.22-5.8 3.438-8.81a81.531 81.531 0 0 1 6.393-5.414 8.07 8.07 0 0 0 3.482-6.187 5.709 5.709 0 0 0-1.322-3.781 4.556 4.556 0 0 0-3.571-1.547 4.959 4.959 0 0 0-3.879 1.633 6.109 6.109 0 0 0-1.455 3.867q.043.602-.485.516h-2.38q-.486.086-.396-.387a9.354 9.354 0 0 1 2.513-6.059 8.119 8.119 0 0 1 6.128-2.621 8.035 8.035 0 0 1 5.863 2.363 8.242 8.242 0 0 1 2.38 5.887 9.568 9.568 0 0 1-3.438 7.262l-6.393 5.2a9.864 9.864 0 0 0-3.571 7.348h0z"/><path id="I" d="M155.018 194.964a2.017 2.017 0 1 1 2.068-2.016 2.034 2.034 0 0 1-2.068 2.016zm0 17.136a1.194 1.194 0 0 1-1.265-1.176v-12.488a1.2 1.2 0 0 1 1.265-1.204 1.169 1.169 0 0 1 1.207 1.204v12.488a1.146 1.146 0 0 1-1.207 1.176z"/><path id="J" d="M162.544 212.156a2.894 2.894 0 0 1-2.873-2.856v-15.932a1.236 1.236 0 0 1 2.471-.028v15.96a.446.446 0 0 0 .402.476 1.191 1.191 0 1 1 0 2.38z"/><path id="K" d="M89.083 225.636a1.596 1.596 0 1 1 1.638-1.596 1.598 1.598 0 0 1-1.638 1.596zm0 17.556a.781.781 0 0 1-.833-.784v-13.3a.783.783 0 0 1 .833-.784.774.774 0 0 1 .805.784v13.3a.759.759 0 0 1-.805.784z"/><path id="L" d="M105.69 243.192a.799.799 0 0 1-.833-.784v-8.176a4.915 4.915 0 0 0-9.826 0v8.176a.82.82 0 0 1-1.638 0v-13.3a.82.82 0 0 1 1.638 0v.896a6.636 6.636 0 0 1 4.913-2.156 6.522 6.522 0 0 1 6.551 6.384v8.176a.792.792 0 0 1-.805.784z"/><path id="M" d="M122.695 243.192a.798.798 0 0 1-.833-.784v-1.4a6.577 6.577 0 0 1-5.574 2.66c-4.626 0-7.212-3.696-7.212-7.924 0-4.2 2.586-7.896 7.212-7.896a6.629 6.629 0 0 1 5.574 2.632v-6.44a.82.82 0 0 1 1.638 0v18.368a.792.792 0 0 1-.805.784zm-6.407-13.748c-3.4 0-5.574 2.66-5.574 6.3s2.184 6.328 5.574 6.328c3.42 0 5.574-2.688 5.574-6.328s-2.155-6.3-5.574-6.3z"/><path id="N" d="M199.914 243.192h-.03a2.966 2.966 0 0 1-2.844-2.184 6.577 6.577 0 0 1-5.574 2.66c-4.683 0-7.212-3.752-7.212-7.924 0-4.228 2.586-7.896 7.212-7.896a6.629 6.629 0 0 1 5.574 2.632v-1.372a.801.801 0 0 1 .833-.784.775.775 0 0 1 .805.784v11.284c0 1.792 2.07.672 2.07 2.016a.78.78 0 0 1-.833.784zm-8.447-13.748c-3.4 0-5.574 2.66-5.574 6.3s2.184 6.328 5.574 6.328c3.42 0 5.574-2.688 5.574-6.328s-2.155-6.3-5.574-6.3z"/><path id="O" d="M645.57 237.75a6.577 6.577 0 0 1-5.574-2.66v1.4a.82.82 0 0 1-1.638 0v-18.368a.82.82 0 0 1 1.638 0v6.44a6.628 6.628 0 0 1 5.574-2.632c4.625 0 7.21 3.696 7.21 7.896 0 4.228-2.586 7.924-7.21 7.924zm0-14.224c-3.42 0-5.574 2.66-5.574 6.3s2.155 6.328 5.574 6.328 5.574-2.688 5.574-6.328-2.155-6.3-5.574-6.3z"/><path id="P" d="M691.59 237.75c-4.626 0-7.212-3.696-7.212-7.924 0-4.2 2.586-7.896 7.212-7.896s7.212 3.696 7.212 7.896c0 4.228-2.586 7.924-7.212 7.924zm0-14.224c-3.4 0-5.574 2.66-5.574 6.3s2.184 6.328 5.574 6.328c3.42 0 5.574-2.688 5.574-6.328s-2.155-6.3-5.574-6.3z"/><path id="Q" d="M680.173 422.357l.433-.316h2.56c.265 0 .384.118.36.352v22.22q-.073.387.325.352h4.69q.396-.07.325.316v1.723c.023.258-.084.363-.325.316h-12.77q-.397.07-.36-.316v-1.723q-.036-.387.36-.316h4.87c.24.023.35-.093.325-.352v-18.738q-.036-.422-.36-.07a15.924 15.924 0 0 1-4.942 2.813q-.29.14-.324-.176v-1.793a.342.342 0 0 1 .252-.316 8.991 8.991 0 0 0 4.581-3.973h0z"/><path id="R" d="M715.715 460.914a4.85 4.85 0 0 0-4.913 4.788v7.924a.82.82 0 0 1-1.638 0v-13.3a.82.82 0 0 1 1.638 0v1.148a6.636 6.636 0 0 1 4.913-2.156.799.799 0 1 1 0 1.596z"/><path id="S" d="M683.54 518.075c-.024.258.084.375.325.352h2.2q.396-.07.325.316v1.723q.072.387-.325.352h-2.2q-.36-.07-.325.316v5.063q.072.457-.325.387h-1.84q-.36.07-.325-.387v-5.062q.072-.387-.325-.316h-8.368c-.24.023-.35-.093-.324-.352v-2.215l.144-.598 7.683-16.066a.477.477 0 0 1 .505-.281h2.85q.397-.034.325.352zm-9.053 0q-.217.387.216.352h6.023q.397.035.325-.352v-13.148q-.073-.422-.29-.07z"/><path id="T" d="M653.182 558.15c-4.626 0-7.212-3.695-7.212-7.924 0-4.2 2.586-7.896 7.212-7.896s7.212 3.696 7.212 7.896c0 4.23-2.586 7.924-7.212 7.924zm0-14.224c-3.4 0-5.574 2.66-5.574 6.3s2.184 6.328 5.574 6.328c3.42 0 5.574-2.687 5.574-6.328s-2.155-6.3-5.574-6.3z"/><path id="U" d="M669.786 544.18a4.85 4.85 0 0 0-4.913 4.788v7.924a.82.82 0 0 1-1.638 0v-13.3a.82.82 0 0 1 1.638 0v1.148a6.637 6.637 0 0 1 4.913-2.156.799.799 0 1 1 0 1.596z"/><path id="V" d="M684.432 551.04h-11.924c.26 3.19 2.385 5.516 5.517 5.516a5.246 5.246 0 0 0 4.224-1.932.758.758 0 0 1 .689-.393.871.871 0 0 1 .891.756c0 .253 0 .31-.546.925a6.866 6.866 0 0 1-5.258 2.239c-4.626 0-7.212-3.695-7.212-7.924 0-4.2 2.586-7.896 7.212-7.896s7.212 3.724 7.212 7.896a.859.859 0 0 1-.805.813zm-6.407-7.112c-3.448 0-5.258 2.576-5.517 5.516h11.062c-.26-3.19-2.385-5.516-5.545-5.516z"/><path id="W" d="M688.91 540.12a1.597 1.597 0 1 1 1.638-1.597 1.599 1.599 0 0 1-1.638 1.597zm0 17.556a.781.781 0 0 1-.833-.784v-13.3a.783.783 0 0 1 .833-.784.774.774 0 0 1 .805.784v13.3a.76.76 0 0 1-.805.784z"/><path id="X" d="M722.782 557.675a.799.799 0 0 1-.834-.784v-8.176a4.915 4.915 0 0 0-9.826 0v8.176a.82.82 0 0 1-1.638 0v-13.3a.82.82 0 0 1 1.638 0v.896a6.637 6.637 0 0 1 4.913-2.156 6.522 6.522 0 0 1 6.551 6.384v8.176a.792.792 0 0 1-.805.784z"/><path id="Y" d="M748.292 557.675h-.03a2.966 2.966 0 0 1-2.844-2.184 6.578 6.578 0 0 1-5.574 2.659c-4.683 0-7.212-3.752-7.212-7.924 0-4.228 2.586-7.896 7.212-7.896a6.629 6.629 0 0 1 5.574 2.632v-1.372a.8.8 0 0 1 .833-.784.775.775 0 0 1 .805.784v11.284c0 1.792 2.07.672 2.07 2.016a.78.78 0 0 1-.833.784zm-8.447-13.748c-3.4 0-5.574 2.66-5.574 6.3s2.184 6.328 5.574 6.328c3.42 0 5.574-2.687 5.574-6.328s-2.155-6.3-5.574-6.3z"/><path id="Z" d="M643.616 588.767h-.89c-2.27 0-3.39-1.092-3.39-3.276v-9.995h-1.465a.798.798 0 1 1 0-1.597h1.465v-4.284a.798.798 0 0 1 .833-.783.774.774 0 0 1 .805.783v4.284h2.643a.798.798 0 1 1 0 1.597h-2.643v9.995c0 1.372.402 1.68 1.752 1.68h.89a.798.798 0 1 1 0 1.596z"/><path id="a" d="M809.824 588.767a.799.799 0 0 1-.833-.784v-8.176a4.915 4.915 0 0 0-9.826 0v8.176a.82.82 0 0 1-1.638 0v-13.3a.82.82 0 0 1 1.638 0v.896a6.637 6.637 0 0 1 4.913-2.156 6.522 6.522 0 0 1 6.551 6.384v8.176a.792.792 0 0 1-.805.784z"/><path id="b" d="M845.96 878.834c-4.626 0-7.212-3.695-7.212-7.924 0-4.2 2.586-7.896 7.212-7.896s7.212 3.696 7.212 7.896c0 4.228-2.586 7.924-7.212 7.924zm0-14.224c-3.4 0-5.574 2.66-5.574 6.3s2.184 6.328 5.574 6.328c3.42 0 5.574-2.687 5.574-6.328s-2.155-6.3-5.574-6.3z"/><path id="c" d="M93.695 128.228a3.982 3.982 0 0 1-3.762-4.027v-22.188a1.083 1.083 0 0 1 2.166 0V124.2c0 2.432 2.697 1.026 2.697 2.736a1.224 1.224 0 0 1-1.102 1.291z"/><path id="d" d="M120.522 128.646c-6.117 0-9.536-5.015-9.536-10.752 0-5.7 3.42-10.715 9.536-10.715s9.537 5.016 9.537 10.715c0 5.737-3.42 10.752-9.537 10.752zm0-19.3c-4.483 0-7.37 3.61-7.37 8.55s2.888 8.587 7.37 8.587c4.52 0 7.37-3.647 7.37-8.587s-2.85-8.55-7.37-8.55z"/><path id="e" d="M150.084 128a1.068 1.068 0 0 1-1.102-1.063v-11.095a6.497 6.497 0 1 0-12.994 0v11.095a1.083 1.083 0 0 1-2.166 0V108.89a1.083 1.083 0 0 1 2.166 0v1.216a8.667 8.667 0 0 1 15.16 5.737v11.095a1.059 1.059 0 0 1-1.064 1.063z"/><path id="f" d="M127.298 66.68h-22.2c.84 5.64 4.44 9.24 9.72 9.24a9.005 9.005 0 0 0 7.14-3.12 2.483 2.483 0 0 1 1.86-.96 2.8 2.8 0 0 1 2.7 2.64c0 .72-.18 1.26-1.44 2.52a14.622 14.622 0 0 1-10.26 4.02c-9.66 0-15.06-7.98-15.06-16.98 0-8.94 5.4-16.92 15.06-16.92 9.78 0 15 7.98 15 16.92a2.558 2.558 0 0 1-2.52 2.64zm-12.48-14.46c-5.64 0-8.94 4.14-9.72 9.3h19.44c-.84-5.76-4.44-9.3-9.72-9.3z"/><path id="g" d="M477.872 81.02c-9.66 0-15.06-7.92-15.06-16.98 0-9 5.4-16.92 15.06-16.92s15.06 7.92 15.06 16.92c0 9.06-5.4 16.98-15.06 16.98zm0-28.8c-6 0-9.9 4.68-9.9 11.82 0 7.2 3.9 11.88 9.9 11.88 6.06 0 9.9-4.68 9.9-11.88 0-7.14-3.84-11.82-9.9-11.82z"/><path id="h" d="M636.69 52.222a8.644 8.644 0 0 0-8.52 8.58v16.62a2.501 2.501 0 0 1-2.64 2.58 2.456 2.456 0 0 1-2.52-2.52v-26.76a2.541 2.541 0 0 1 2.52-2.58 2.463 2.463 0 0 1 2.58 2.04 13.874 13.874 0 0 1 8.58-3.06 2.552 2.552 0 1 1 0 5.1z"/><path id="i" d="M665.177 66.68h-22.2c.84 5.64 4.44 9.24 9.72 9.24a9.007 9.007 0 0 0 7.14-3.12 2.483 2.483 0 0 1 1.859-.96 2.8 2.8 0 0 1 2.7 2.64c0 .72-.18 1.26-1.44 2.52a14.618 14.618 0 0 1-10.259 4.02c-9.66 0-15.06-7.98-15.06-16.98 0-8.94 5.4-16.92 15.06-16.92 9.78 0 15 7.98 15 16.92a2.558 2.558 0 0 1-2.52 2.64zm-12.48-14.46c-5.64 0-8.94 4.14-9.72 9.3h19.438c-.84-5.76-4.44-9.3-9.72-9.3z"/></defs><rect width="1080" height="1080" rx="40" fill="url(#A)"/><g opacity=".7" fill="#fff"><use xlink:href="#E"/><path d="M825.185 1046.817c-3.22 0-5.02-2.64-5.02-5.66 0-3 1.8-5.64 5.02-5.64s5.02 2.64 5.02 5.64c0 3.02-1.8 5.66-5.02 5.66zm0-10.162c-2.36 0-3.88 1.9-3.88 4.5s1.52 4.52 3.88 4.52c2.38 0 3.88-1.92 3.88-4.52s-1.5-4.5-3.88-4.5zm15.78 9.823a.562.562 0 0 1-.58-.561v-.64a4.442 4.442 0 0 1-3.421 1.54 4.61 4.61 0 0 1-4.561-4.561v-5.842a.57.57 0 0 1 1.14 0v5.842a3.421 3.421 0 0 0 6.842 0v-5.842a.57.57 0 0 1 1.141 0v9.502a.558.558 0 0 1-.561.561zm7.96-9.642a3.418 3.418 0 0 0-3.421 3.42v5.66a.571.571 0 0 1-1.141 0v-9.502a.571.571 0 0 1 1.141 0v.82a4.565 4.565 0 0 1 3.421-1.54.571.571 0 1 1 0 1.141zm10.18 8.46a4.645 4.645 0 0 1-3.58 1.52c-3.22 0-5.02-2.64-5.02-5.66 0-3 1.8-5.64 5.02-5.64a4.647 4.647 0 0 1 3.58 1.52.531.531 0 0 1 .16.381.627.627 0 0 1-.58.6.587.587 0 0 1-.42-.2 3.526 3.526 0 0 0-2.74-1.16c-2.36 0-3.88 1.9-3.88 4.5s1.52 4.52 3.88 4.52a3.596 3.596 0 0 0 2.74-1.16.587.587 0 0 1 .42-.2.594.594 0 0 1 .58.58.571.571 0 0 1-.16.399zm11.58-3.56h-8.302c.18 2.28 1.66 3.94 3.84 3.94a3.615 3.615 0 0 0 2.94-1.381.525.525 0 0 1 .479-.28.611.611 0 0 1 .62.541c0 .18 0 .22-.38.66a4.72 4.72 0 0 1-3.66 1.601c-3.22 0-5.02-2.64-5.02-5.66 0-3 1.8-5.64 5.02-5.64s5.02 2.66 5.02 5.64a.606.606 0 0 1-.56.58zm-4.46-5.08c-2.4 0-3.66 1.84-3.84 3.94h7.7c-.18-2.28-1.66-3.94-3.86-3.94z"/><use xlink:href="#E" x="62.499"/><path d="M884.162 1039.916a1.14 1.14 0 1 1 0-2.28 1.14 1.14 0 0 1 0 2.28zm0 6.562a1.14 1.14 0 1 1 0-2.28 1.14 1.14 0 0 1 0 2.28zm14.222.34c-4.4 0-5.82-3.7-5.82-7.46 0-3.74 1.42-7.482 5.82-7.482a5.095 5.095 0 0 1 4.44 2.181.405.405 0 0 1 .12.32.6.6 0 0 1-.62.561c-.28 0-.44-.24-.66-.52a3.879 3.879 0 0 0-3.28-1.4c-3.02 0-4.682 2.32-4.682 6.342 0 3.04.96 6.32 4.682 6.32 3.16 0 4.54-2.42 4.68-5.74h-2.44a.572.572 0 0 1-.6-.58.561.561 0 0 1 .56-.58h3.04a.556.556 0 0 1 .58.58c0 3.9-1.54 7.46-5.82 7.46z"/><use xlink:href="#F"/><path d="M918.604 1036.636l-3.94 9.382a.657.657 0 0 1-.56.46.681.681 0 0 1-.58-.46l-3.94-9.362a.633.633 0 0 1-.04-.26.56.56 0 0 1 .58-.54.513.513 0 0 1 .5.34l3.48 8.222 3.46-8.222a.57.57 0 0 1 1.1.18.484.484 0 0 1-.06.261z"/><use xlink:href="#F" x="14.14"/><path d="M933.143 1046.478a.563.563 0 0 1-.58-.561v-5.84a3.421 3.421 0 1 0-6.841 0v5.84a.57.57 0 0 1-1.141 0v-9.502a.57.57 0 0 1 1.141 0v.64a4.563 4.563 0 0 1 7.981 3.021v5.84a.558.558 0 0 1-.561.561zm7.78 4.56c-1.7 0-4.102-.64-4.102-1.36a.636.636 0 0 1 .58-.641 7.13 7.13 0 0 1 1.061.48 7.508 7.508 0 0 0 2.461.38c2.56 0 3.88-1.26 3.88-3.72v-1.4a4.776 4.776 0 0 1-3.88 1.7c-3.16 0-5.02-2.24-5.02-5.32 0-3 1.8-5.64 5.02-5.64a4.571 4.571 0 0 1 3.88 1.88v-.96a.57.57 0 0 1 1.141 0v9.742c0 3.18-1.9 4.86-5.02 4.86zm0-14.383c-2.36 0-3.88 1.9-3.88 4.5 0 2.58 1.42 4.18 3.88 4.18s3.88-1.6 3.88-4.18c0-2.6-1.5-4.5-3.88-4.5zm17.66 10.183a5.012 5.012 0 0 1-5.021-5.021v-9.02a.58.58 0 0 1 1.16 0v9.02a3.871 3.871 0 1 0 7.742 0v-9.02a.57.57 0 0 1 1.14 0v9.02a5.011 5.011 0 0 1-5.021 5.021zm11.898-.02a7.388 7.388 0 0 1-4.78-1.76.523.523 0 0 1-.181-.4.609.609 0 0 1 .58-.58c.24 0 .22.06.64.38a6.335 6.335 0 0 0 3.74 1.221c2.52 0 3.98-.94 3.98-2.74 0-4.74-8.462-2.1-8.462-7.562 0-2.4 2.1-3.5 4.68-3.5a5.74 5.74 0 0 1 4.361 1.881.557.557 0 0 1-.48.9c-.28 0-.28-.08-.62-.42a4.625 4.625 0 0 0-3.261-1.221c-2.38 0-3.54.92-3.54 2.36 0 4.3 8.462 1.8 8.462 7.562 0 2.78-2.44 3.88-5.12 3.88zm17.423-.34a.583.583 0 0 1-.521-.34l-1.28-3.08h-7.2l-1.28 3.08a.564.564 0 0 1-1.081-.2.587.587 0 0 1 .04-.26l5.4-13.104a.631.631 0 0 1 .58-.38.517.517 0 0 1 .48.38l5.4 13.104a.587.587 0 0 1 .04.26.56.56 0 0 1-.58.54zm-5.4-12.183l-3.14 7.622h6.3zm8.517 13.963a.513.513 0 0 1-.3.08.56.56 0 0 1-.54-.58c0-.56.86-.64 1-1.28a1.152 1.152 0 0 1 .08-2.301c.98 0 1.2 1 1.2 1.62a2.854 2.854 0 0 1-1.44 2.46zm14.662-1.44c-4.3 0-5.82-3.56-5.82-7.46 0-3.92 1.52-7.482 5.82-7.482 4.28 0 5.82 3.562 5.82 7.482 0 3.9-1.54 7.46-5.82 7.46zm0-13.803c-3.32 0-4.682 2.6-4.682 6.342 0 3.72 1.36 6.32 4.682 6.32 3.3 0 4.68-2.6 4.68-6.32 0-3.74-1.38-6.342-4.68-6.342zm17.78 13.464h-8.882a.606.606 0 0 1-.58-.561v-13.122a.59.59 0 0 1 .58-.561h8.882a.56.56 0 1 1 0 1.12h-8.32v4.92h6.1a.551.551 0 0 1 .58.561.561.561 0 0 1-.56.58h-6.12v5.92h8.32a.567.567 0 0 1 .58.58.55.55 0 0 1-.58.561zm12.218-1.84a5.125 5.125 0 0 1-4.461 2.181c-4.3 0-5.82-3.56-5.82-7.46 0-3.92 1.52-7.482 5.82-7.482a5.065 5.065 0 0 1 4.44 2.181.405.405 0 0 1 .12.32.6.6 0 0 1-.62.561.528.528 0 0 1-.439-.221 3.937 3.937 0 0 0-3.501-1.7c-3.32 0-4.682 2.6-4.682 6.342 0 3.72 1.36 6.32 4.682 6.32a3.988 3.988 0 0 0 3.541-1.701.465.465 0 0 1 .439-.26.612.612 0 0 1 .601.58.633.633 0 0 1-.12.34zm7.298 1.84h-4.44a.606.606 0 0 1-.58-.561v-13.122a.59.59 0 0 1 .58-.561h4.44c4.12 0 5.48 3.44 5.48 7.102 0 3.72-1.36 7.142-5.48 7.142zm0-13.123h-3.88v11.982h3.88c3.42 0 4.34-2.96 4.34-5.98 0-3.562-1.24-6.002-4.34-6.002z"/></g><g opacity=".4" fill="#fff"><path d="M44.228 1046.045a7.892 7.892 0 0 1-5.503-2.002 1.364 1.364 0 0 1-1.468 1.401 1.346 1.346 0 0 1-1.401-1.401v-20.88a1.435 1.435 0 0 1 2.869-.033v6.238a7.4 7.4 0 0 1 5.503-2.169c5.37 0 8.373 4.403 8.373 9.406 0 5.037-3.002 9.44-8.373 9.44zm0-16c-3.335 0-5.503 2.602-5.503 6.57 0 4.003 2.168 6.604 5.503 6.604s5.504-2.602 5.504-6.604c0-3.97-2.168-6.57-5.504-6.57zm25.555 8.037h-12.34c.467 3.136 2.468 5.137 5.403 5.137a5.003 5.003 0 0 0 3.969-1.734 1.383 1.383 0 0 1 1.034-.533 1.556 1.556 0 0 1 1.501 1.468c0 .4-.1.7-.8 1.4a8.129 8.129 0 0 1-5.704 2.235c-5.37 0-8.372-4.437-8.372-9.44 0-4.97 3.002-9.406 8.372-9.406 5.437 0 8.34 4.437 8.34 9.406a1.422 1.422 0 0 1-1.401 1.468zm-6.937-8.038c-3.136 0-4.97 2.3-5.403 5.17H68.25c-.467-3.202-2.468-5.17-5.403-5.17zm27.054 15.444a3.247 3.247 0 0 1-2.969-1.901 7.642 7.642 0 0 1-5.87 2.469c-5.437 0-8.372-4.47-8.372-9.44s3.002-9.406 8.372-9.406a7.369 7.369 0 0 1 5.504 2.202v-.134a1.376 1.376 0 0 1 1.4-1.501 1.341 1.341 0 0 1 1.468 1.401v12.875a.54.54 0 0 0 .467.601 1.418 1.418 0 1 1 0 2.835zm-8.84-15.443c-3.336 0-5.504 2.602-5.504 6.57 0 4.003 2.168 6.604 5.504 6.604 3.37 0 5.504-2.602 5.504-6.604 0-3.97-2.135-6.57-5.504-6.57z"/><use xlink:href="#G"/><path d="M117.058 1045.478h-.567c-3.17 0-4.37-1.668-4.37-4.403V1030.6h-1a1.418 1.418 0 1 1-.033-2.835h1v-4.637a1.355 1.355 0 0 1 1.435-1.4 1.328 1.328 0 0 1 1.401 1.4v4.637h2.135a1.383 1.383 0 0 1 1.4 1.401 1.356 1.356 0 0 1-1.4 1.434h-2.135v10.774c0 .934.333 1.268 1.268 1.268h.833a1.376 1.376 0 0 1 1.435 1.4 1.357 1.357 0 0 1-1.4 1.435zm4.604-20.415a2.401 2.401 0 1 1 2.402-2.401 2.392 2.392 0 0 1-2.402 2.401zm0 20.414a1.4 1.4 0 0 1-1.467-1.401V1029.2a1.408 1.408 0 0 1 1.467-1.435 1.374 1.374 0 0 1 1.401 1.435v14.876a1.346 1.346 0 0 1-1.401 1.401zm10.376-14.877h-1.5v13.442a1.364 1.364 0 0 1-1.468 1.401 1.346 1.346 0 0 1-1.401-1.401V1030.6h-1.37a1.418 1.418 0 0 1 0-2.835h1.367v-2.27a3.801 3.801 0 0 1 3.836-3.769 1.418 1.418 0 1 1 0 2.835.934.934 0 0 0-.967.9v2.302h1.5a1.418 1.418 0 1 1 0 2.835z"/><use xlink:href="#G" x="42.068"/><path d="M156.625 1045.544a3.403 3.403 0 0 1-3.336-3.402v-18.98a1.435 1.435 0 0 1 2.869-.033v19.013a.527.527 0 0 0 .467.567 1.418 1.418 0 1 1 0 2.835zm15.37-.066v-1.264c1.886-.237 2.046-.437 2.046-3.157v-6.7c0-2.8-1.248-4.017-3.064-4.017a5.597 5.597 0 0 0-3.47 1.493v9.476c0 2.527.187 2.658 2.06 2.896v1.264h-8.968v-1.264c2.254-.33 2.5-.4 2.5-3v-8.2c0-2.446-.303-2.565-2.185-2.922v-1.184a34.101 34.101 0 0 0 6.653-1.533l-.052 2.95 2.6-1.745a5.659 5.659 0 0 1 3.159-1.086c3.194 0 5.2 2.338 5.2 6.3v7.5c0 2.54.237 2.657 2.277 2.92v1.264zm23.9-3.703c-2.458 3.427-5.488 4.178-7.014 4.178-5.142 0-8.124-3.936-8.124-8.594a10.333 10.333 0 0 1 2.832-7.062 8.602 8.602 0 0 1 6.082-2.814 6.386 6.386 0 0 1 6.37 6.347c-.014.715-.08 1.277-.612 1.4-.767.184-6.17.5-10.318.647.062 4.587 2.717 6.74 5.556 6.74a6.776 6.776 0 0 0 4.543-1.866zm-7.07-12.7c-1.667 0-3.167 1.807-3.516 4.963l5.486-.118c.6-.026.848-.146.848-.792.04-2.022-1.037-4.053-2.818-4.053zm34.284.145c-1.943.343-2.248.624-3.105 2.765-1.33 3.462-3.102 8.53-4.934 13.94h-1.512l-4.65-11.46-4.55 11.46h-1.472l-4.685-14.192c-.687-1.985-.94-2.274-2.855-2.512v-1.25h9.397v1.25c-2.325.345-2.535.672-2.058 2.133l2.52 8.214c1.507-3.68 2.988-7.62 4.327-11.424H211c1.4 3.76 2.986 7.702 4.573 11.568.742-2.107 2.062-5.964 2.557-8.108.412-1.674-.008-2.078-2.753-2.383v-1.25h7.742zm9.4 3.746c-.92-2.606-2.155-3.984-4.2-3.984a2.166 2.166 0 0 0-2.225 2.266c0 1.497 1.046 2.264 3.16 3.216 3.278 1.496 5.3 2.787 5.3 5.736 0 3.85-3.6 5.764-6.945 5.764a12.073 12.073 0 0 1-4.92-1.161l-.662-4.892 1.252-.224c.8 2.5 2.33 4.75 4.976 4.75a2.231 2.231 0 0 0 2.438-2.281c0-1.423-.76-2.333-3.092-3.467-2.67-1.295-5.107-2.64-5.107-5.775 0-3.046 2.533-5.42 6.565-5.42a18.751 18.751 0 0 1 4.112.567l.62 4.577z"/></g><path d="M637.77 488.788h398.923a10.398 10.398 0 0 1 10.538 10.251v495.498a10.398 10.398 0 0 1-10.538 10.251H637.77a10.398 10.398 0 0 1-10.538-10.251V499.04a10.398 10.398 0 0 1 10.538-10.251z" fill="#2d5470" opacity=".6"/><path d="M637.77 167h398.923a10.422 10.422 0 0 1 10.538 10.301v219.4A10.422 10.422 0 0 1 1036.693 407H637.77a10.422 10.422 0 0 1-10.538-10.301V177.3A10.422 10.422 0 0 1 637.769 167z" fill="url(#B)"/><path d="M822.66 775.118h203.174a10.451 10.451 0 0 1 10.583 10.315v198.032a10.451 10.451 0 0 1-10.583 10.315H822.66a10.451 10.451 0 0 1-10.583-10.315V785.433a10.451 10.451 0 0 1 10.583-10.315z" fill="none" stroke="#2299ce" stroke-miterlimit="10" stroke-width="2" stroke-dasharray="3.98187 3.98187"/><path d="M637.77 411h398.923a10.435 10.435 0 0 1 10.538 10.329v53.343A10.435 10.435 0 0 1 1036.693 485H637.77a10.435 10.435 0 0 1-10.538-10.329V421.33A10.435 10.435 0 0 1 637.769 411z" fill="url(#C)"/><path d="M46.883 167h564.862a10.459 10.459 0 0 1 10.569 10.346v817.31A10.459 10.459 0 0 1 611.745 1005H46.883a10.459 10.459 0 0 1-10.569-10.346v-817.31A10.459 10.459 0 0 1 46.883 167z" fill="url(#D)"/><g class="J" fill="#fff"><path d="M57.278 212.315q0-.43-.397-.43a7.973 7.973 0 0 1-6.524-7.863q-.132-.645.485-.56h1.896q.793-.086.88.516a6.125 6.125 0 0 0 1.411 3.652 5.112 5.112 0 0 0 3.879 1.504q5.246-.215 5.378-5.113a4.797 4.797 0 0 0-1.939-4.125 26.061 26.061 0 0 0-4.717-2.449 13.444 13.444 0 0 1-4.541-3.051 7.338 7.338 0 0 1-1.896-5.07q.308-6.06 6.26-7.777.397 0 .397-.473v-4.297q-.1-.472.396-.387h2.292q.44-.042.44.387v4.2c-.03.315.088.473.353.473a7.316 7.316 0 0 1 4.717 2.793 7.934 7.934 0 0 1 1.543 4.813q.132.688-.44.56h-1.94q-.75.086-.837-.516-.1-4.597-5.026-4.812a4.625 4.625 0 0 0-4.893 4.855 4.639 4.639 0 0 0 1.675 3.695 17.85 17.85 0 0 0 4.012 2.234 17.594 17.594 0 0 1 5.51 3.523 7.317 7.317 0 0 1 1.896 5.285 8.194 8.194 0 0 1-1.896 5.5 7.893 7.893 0 0 1-4.893 2.578q-.397 0-.397.43v4.2q.088.472-.397.43h-2.292q-.442.042-.397-.387zm22.926-2.405a5.379 5.379 0 0 0 4.012-1.762 6.082 6.082 0 0 0 1.499-4.211 6.866 6.866 0 0 0-1.763-4.898 6.294 6.294 0 0 0-4.585-1.719h-.53q-.44.043-.396-.43v-2.062q-.045-.472.396-.387h.265a5.746 5.746 0 0 0 5.996-6.059q-.264-4.554-4.585-4.812a4.591 4.591 0 0 0-3.13 1.16 5.288 5.288 0 0 0-1.631 3.395q0 .602-.44.516h-2.38q-.53.086-.396-.43a8.443 8.443 0 0 1 2.513-5.457 8.021 8.021 0 0 1 11.109 0 7.904 7.904 0 0 1 2.292 5.629 7.47 7.47 0 0 1-1.499 4.641 8.327 8.327 0 0 1-3.086 2.492q-.353.215.044.473a9.636 9.636 0 0 1 3.395 2.535 8.127 8.127 0 0 1 1.764 5.414 9.226 9.226 0 0 1-2.557 6.316 8.935 8.935 0 0 1-6.348 2.707 8.395 8.395 0 0 1-8.597-8.465q-.1-.258.397-.344h2.38q.485-.086.485.516.396 5.027 5.378 5.242h0z"/><use xlink:href="#H"/><use xlink:href="#H" x="21.648"/><path d="M143.643 212.576a6.887 6.887 0 0 1-4.741-1.68 1.162 1.162 0 0 1-1.264 1.176 1.146 1.146 0 0 1-1.207-1.176v-17.528a1.236 1.236 0 0 1 2.471-.028v5.236a6.467 6.467 0 0 1 4.741-1.82c4.625 0 7.21 3.696 7.21 7.896 0 4.228-2.586 7.924-7.21 7.924zm0-13.44c-2.874 0-4.74 2.184-4.74 5.516 0 3.36 1.868 5.544 4.74 5.544s4.74-2.184 4.74-5.544c0-3.332-1.868-5.516-4.74-5.516z" opacity=".6"/><use xlink:href="#I" opacity=".6"/><use xlink:href="#J" opacity=".6"/><use xlink:href="#J" x="5.976" opacity=".6"/><use xlink:href="#I" x="18.097" opacity=".6"/><path d="M184.5 212.576c-4.626 0-7.212-3.696-7.212-7.924 0-4.2 2.586-7.896 7.212-7.896s7.212 3.696 7.212 7.896c0 4.228-2.586 7.924-7.212 7.924zm0-13.44c-2.873 0-4.74 2.184-4.74 5.516 0 3.36 1.868 5.544 4.74 5.544 2.902 0 4.74-2.184 4.74-5.544 0-3.332-1.84-5.516-4.74-5.516zM206.4 212.1a1.147 1.147 0 0 1-1.207-1.176v-7.784a4.096 4.096 0 0 0-8.189 0v7.756a1.206 1.206 0 0 1-1.264 1.232 1.169 1.169 0 0 1-1.207-1.204v-12.516a1.13 1.13 0 0 1 1.207-1.176 1.196 1.196 0 0 1 1.235.924 6.653 6.653 0 0 1 4.109-1.4 6.522 6.522 0 0 1 6.551 6.384v7.756a1.161 1.161 0 0 1-1.236 1.204zm9.278.476c-1.58 0-4.224-.476-5.574-2.1a1.32 1.32 0 0 1-.259-.728 1.351 1.351 0 0 1 1.293-1.26 1.191 1.191 0 0 1 .891.476 4.989 4.989 0 0 0 3.649 1.232c2.586 0 3.42-.868 3.42-2.128 0-3.584-8.763-1.372-8.763-7.14 0-3.052 2.93-4.172 5.66-4.172 1.552 0 5.2.756 5.2 2.324a1.272 1.272 0 0 1-1.207 1.26 1.758 1.758 0 0 1-.948-.364 4.745 4.745 0 0 0-3.045-.84c-2.385 0-3.218.868-3.218 1.792 0 3.332 8.792 1.176 8.792 7.14 0 3.304-2.845 4.508-5.9 4.508z" opacity=".6"/><path d="M57.054 243.668a6.577 6.577 0 0 1-5.574-2.66v1.4a.82.82 0 0 1-1.638 0V224.04a.82.82 0 0 1 1.638 0v6.44a6.628 6.628 0 0 1 5.574-2.632c4.625 0 7.2 3.696 7.2 7.896 0 4.228-2.586 7.924-7.2 7.924zm0-14.224c-3.42 0-5.574 2.66-5.574 6.3s2.155 6.328 5.574 6.328 5.574-2.688 5.574-6.328-2.155-6.3-5.574-6.3zm22.446 0l-7.786 17.948a2.988 2.988 0 0 1-3.075 1.68h-1.264a.798.798 0 1 1 0-1.596h1.264c.632 0 1.293-.028 1.552-.672l1.638-3.808-5.947-13.552a.867.867 0 0 1-.058-.364.796.796 0 0 1 .833-.756.739.739 0 0 1 .718.476l5.344 12.152 5.287-12.152a.751.751 0 0 1 .747-.476.77.77 0 0 1 .804.756.867.867 0 0 1-.058.364z"/><use xlink:href="#K"/><use xlink:href="#L"/><use xlink:href="#M"/><use xlink:href="#K" x="38.752"/><path d="M143.867 229.416l-5.66 13.132a.938.938 0 0 1-.805.644.974.974 0 0 1-.833-.644l-5.66-13.104a.873.873 0 0 1-.057-.364.796.796 0 0 1 .833-.756.739.739 0 0 1 .718.476l5 11.508 4.97-11.508a.804.804 0 0 1 .747-.504.796.796 0 0 1 .833.756.656.656 0 0 1-.086.364z"/><use xlink:href="#K" x="57.913"/><use xlink:href="#M" x="41.568"/><path d="M180.608 243.192a.798.798 0 0 1-.833-.784v-.896a6.455 6.455 0 0 1-4.913 2.156 6.54 6.54 0 0 1-6.551-6.384v-8.176a.82.82 0 0 1 1.638 0v8.176a4.915 4.915 0 0 0 9.827 0v-8.176a.82.82 0 0 1 1.638 0v13.3a.792.792 0 0 1-.805.784z"/><use xlink:href="#N"/><path d="M205.628 243.36a2.968 2.968 0 0 1-2.844-2.968V224.04a.82.82 0 0 1 1.638 0v16.352c0 1.792 2.04.756 2.04 2.016a.911.911 0 0 1-.833.952zm7.67.364c-1.724 0-4.626-.588-5.632-2.212a.663.663 0 0 1-.115-.42.867.867 0 0 1 .833-.84.888.888 0 0 1 .632.392c1.034 1.232 2.873 1.484 4.28 1.484 2.787 0 4.195-.896 4.195-2.716 0-4.228-9.424-1.988-9.424-7.588 0-2.828 2.902-3.92 5.517-3.92a7.92 7.92 0 0 1 4.942 1.624.776.776 0 0 1 .259.532.921.921 0 0 1-.891.84.772.772 0 0 1-.546-.224 5.847 5.847 0 0 0-3.764-1.176c-2.528 0-3.88.952-3.88 2.324 0 3.92 9.424 1.848 9.424 7.588 0 3.192-2.873 4.312-5.833 4.312z"/></g><g fill="#fff"><path d="M643.967 206.36c0-.234-.108-.352-.325-.352a6.523 6.523 0 0 1-5.338-6.434q-.108-.527.396-.457h1.55q.65-.07.72.422a5.012 5.012 0 0 0 1.154 2.988 4.184 4.184 0 0 0 3.174 1.23q4.3-.176 4.4-4.184a3.926 3.926 0 0 0-1.587-3.375 21.325 21.325 0 0 0-3.859-2.004 10.991 10.991 0 0 1-3.715-2.496 6.004 6.004 0 0 1-1.551-4.148 6.457 6.457 0 0 1 5.122-6.363c.216 0 .325-.128.325-.387v-3.516q-.073-.387.324-.316h1.876c.24-.023.36.083.36.316v3.445c-.024.258.072.387.3.387a5.984 5.984 0 0 1 3.859 2.285 6.489 6.489 0 0 1 1.263 3.938q.108.563-.36.457h-1.587q-.614.07-.686-.422-.073-3.762-4.112-3.937a3.784 3.784 0 0 0-4.003 3.973 3.795 3.795 0 0 0 1.371 3.023 14.606 14.606 0 0 0 3.282 1.828 14.398 14.398 0 0 1 4.509 2.883 5.989 5.989 0 0 1 1.551 4.324 6.705 6.705 0 0 1-1.551 4.5 6.461 6.461 0 0 1-4.004 2.109q-.324 0-.325.352v3.445q.072.387-.325.352h-1.876q-.36.034-.325-.316zm14.68-13.395q.036.387.325.14 1.154-1.5 4.364-1.793a6.62 6.62 0 0 1 5.086 2.215 8.122 8.122 0 0 1 1.912 5.449 8.374 8.374 0 0 1-1.984 5.52 6.95 6.95 0 0 1-10.46.035 8.578 8.578 0 0 1-1.948-5.66v-11.04a7.691 7.691 0 0 1 1.948-5.273 6.945 6.945 0 0 1 5.302-2.215 7.434 7.434 0 0 1 4.653 1.547 6.367 6.367 0 0 1 2.309 4.148q.072.316-.36.316h-2.128q-.36 0-.36-.422a4.579 4.579 0 0 0-1.262-2.18 4.787 4.787 0 0 0-6.204.492 5.359 5.359 0 0 0-1.19 3.586zm0 6.082a5.98 5.98 0 0 0 1.154 3.797 4.271 4.271 0 0 0 6.637 0 6.511 6.511 0 0 0 1.154-3.867 6.279 6.279 0 0 0-1.118-3.762 3.989 3.989 0 0 0-3.282-1.477q-4.5.282-4.545 5.3h0zm28.712-14.73a42.932 42.932 0 0 0-6.637 21.621q.072.456-.36.387h-2.056q-.397-.035-.325-.387a44.19 44.19 0 0 1 2.02-11.18 45.901 45.901 0 0 1 4.941-10.828q.324-.492-.036-.492H673.8q-.397.07-.324-.352v-1.863q-.073-.387.324-.316h13.382q.397-.07.325.316v2.602l-.144.492z"/><use xlink:href="#O"/><path d="M668.006 223.527l-7.786 17.948a2.988 2.988 0 0 1-3.074 1.68h-1.265a.798.798 0 1 1 0-1.596h1.265c.632 0 1.292-.028 1.55-.672l1.638-3.808-5.948-13.552a.872.872 0 0 1-.057-.364.796.796 0 0 1 .833-.756.739.739 0 0 1 .718.476l5.344 12.152 5.287-12.152a.751.751 0 0 1 .747-.476.77.77 0 0 1 .805.756.866.866 0 0 1-.058.364zm14.017-4.62h-.9a1.255 1.255 0 0 0-1.264 1.204v2.296h2.155a.772.772 0 0 1 .805.784.796.796 0 0 1-.805.812h-2.155v12.488a.775.775 0 0 1-.805.784.758.758 0 0 1-.804-.784v-12.488h-1.983a.798.798 0 1 1 0-1.596h1.983v-2.296a2.815 2.815 0 0 1 2.844-2.772h.92a.805.805 0 0 1 .833.812.762.762 0 0 1-.833.756z"/><use xlink:href="#P"/><path d="M713.68 237.275a.799.799 0 0 1-.833-.784v-.896a6.455 6.455 0 0 1-4.913 2.156 6.54 6.54 0 0 1-6.551-6.384v-8.176a.82.82 0 0 1 1.638 0v8.176a4.915 4.915 0 0 0 9.827 0v-8.176a.82.82 0 0 1 1.638 0v13.3a.792.792 0 0 1-.805.784z"/><use xlink:href="#L" x="624.596" y="-5.917"/><use xlink:href="#M" x="624.597" y="-5.917"/><use xlink:href="#N" x="566.683" y="-5.917"/><path d="M774.725 237.275h-.89c-2.27 0-3.39-1.092-3.39-3.276v-9.996h-1.465a.798.798 0 1 1 0-1.596h1.465v-4.284a.799.799 0 0 1 .834-.784.775.775 0 0 1 .805.784v4.284h2.643a.798.798 0 1 1 0 1.596h-2.643V234c0 1.372.402 1.68 1.752 1.68h.89a.798.798 0 1 1 0 1.596z"/><use xlink:href="#K" x="689.317" y="-5.916"/><use xlink:href="#P" x="97.67"/><use xlink:href="#L" x="705.92" y="-5.917"/><path d="M820.458 237.808c-1.724 0-4.626-.588-5.632-2.212a.663.663 0 0 1-.115-.42.867.867 0 0 1 .833-.84.888.888 0 0 1 .632.392c1.034 1.232 2.873 1.484 4.28 1.484 2.787 0 4.195-.896 4.195-2.716 0-4.228-9.424-1.988-9.424-7.588 0-2.828 2.902-3.92 5.517-3.92a7.916 7.916 0 0 1 4.942 1.624.776.776 0 0 1 .259.532.921.921 0 0 1-.891.84.772.772 0 0 1-.546-.224 5.848 5.848 0 0 0-3.764-1.176c-2.528 0-3.88.952-3.88 2.324 0 3.92 9.424 1.848 9.424 7.588 0 3.192-2.873 4.312-5.833 4.312zm-175.49 209.686c0-.234-.108-.352-.325-.352a6.523 6.523 0 0 1-5.338-6.434q-.108-.527.396-.457h1.55q.65-.07.72.422a5.012 5.012 0 0 0 1.154 2.988 4.184 4.184 0 0 0 3.174 1.23q4.3-.176 4.4-4.184a3.926 3.926 0 0 0-1.587-3.375 21.326 21.326 0 0 0-3.859-2.004 10.991 10.991 0 0 1-3.715-2.496 6.004 6.004 0 0 1-1.551-4.148 6.457 6.457 0 0 1 5.122-6.363c.216 0 .325-.128.325-.387v-3.516q-.073-.387.324-.316h1.876c.24-.023.36.083.36.316v3.445c-.024.258.072.387.3.387a5.984 5.984 0 0 1 3.859 2.285 6.489 6.489 0 0 1 1.263 3.938q.108.563-.36.457h-1.587q-.614.07-.686-.422-.073-3.762-4.112-3.937a3.784 3.784 0 0 0-4.003 3.973 3.795 3.795 0 0 0 1.371 3.023 14.606 14.606 0 0 0 3.282 1.828 14.398 14.398 0 0 1 4.509 2.883 5.989 5.989 0 0 1 1.551 4.324 6.705 6.705 0 0 1-1.551 4.5 6.461 6.461 0 0 1-4.004 2.109q-.324 0-.325.352V451q.072.387-.325.352h-1.876q-.36.034-.325-.316zm14.97-3.058q-.036.352.325.316h10.532q.396-.07.325.316v1.898c.048.258-.06.375-.325.352h-13.237c-.265.023-.373-.093-.325-.352v-1.934q.18-4.746 2.813-7.207a66.78 66.78 0 0 1 5.23-4.43 6.604 6.604 0 0 0 2.85-5.062 4.673 4.673 0 0 0-1.082-3.094 3.727 3.727 0 0 0-2.922-1.266 4.056 4.056 0 0 0-3.174 1.336 4.997 4.997 0 0 0-1.19 3.164q.035.493-.397.422h-1.948q-.397.07-.325-.316a7.656 7.656 0 0 1 2.056-4.957 6.644 6.644 0 0 1 5.014-2.145 6.574 6.574 0 0 1 4.797 1.934 6.746 6.746 0 0 1 1.948 4.816 7.83 7.83 0 0 1-2.813 5.941l-5.23 4.254a8.07 8.07 0 0 0-2.922 6.012h0z"/><use xlink:href="#Q"/><use xlink:href="#O" x="1" y="237.136"/><path d="M669.006 460.662L661.22 478.6a2.988 2.988 0 0 1-3.074 1.68h-1.265a.798.798 0 1 1 0-1.596h1.265c.632 0 1.292-.028 1.55-.672l1.638-3.808-5.948-13.552a.872.872 0 0 1-.057-.364.796.796 0 0 1 .833-.756.739.739 0 0 1 .718.476l5.344 12.152 5.287-12.152a.751.751 0 0 1 .747-.476.77.77 0 0 1 .805.756.866.866 0 0 1-.058.364zm20.454 12.096a6.756 6.756 0 0 1-5.143 2.128c-4.626 0-7.212-3.696-7.212-7.924 0-4.2 2.586-7.896 7.212-7.896a6.756 6.756 0 0 1 5.143 2.128.732.732 0 0 1 .23.532.889.889 0 0 1-.833.84.856.856 0 0 1-.603-.28 5.128 5.128 0 0 0-3.937-1.624c-3.4 0-5.574 2.66-5.574 6.3s2.184 6.328 5.574 6.328a5.227 5.227 0 0 0 3.937-1.624.857.857 0 0 1 .603-.28.842.842 0 0 1 .833.812.792.792 0 0 1-.23.56z"/><use xlink:href="#P" x="7.52" y="237.136"/><use xlink:href="#R"/><path d="M725.28 474.886a6.577 6.577 0 0 1-5.574-2.66v7.252a.819.819 0 0 1-1.638 0v-19.152a.82.82 0 0 1 1.638 0v1.372a6.628 6.628 0 0 1 5.574-2.632c4.625 0 7.21 3.696 7.21 7.896 0 4.228-2.586 7.924-7.21 7.924zm0-14.224c-3.42 0-5.574 2.66-5.574 6.3s2.155 6.328 5.574 6.328 5.574-2.688 5.574-6.328-2.155-6.3-5.574-6.3z"/><use xlink:href="#P" x="50.295" y="237.136"/><use xlink:href="#R" x="42.775"/><path d="M775.175 474.4h-.03a2.966 2.966 0 0 1-2.844-2.184 6.577 6.577 0 0 1-5.574 2.66c-4.683 0-7.212-3.752-7.212-7.924 0-4.228 2.586-7.896 7.212-7.896a6.629 6.629 0 0 1 5.574 2.632v-1.372a.801.801 0 0 1 .833-.784.775.775 0 0 1 .805.784V471.6c0 1.792 2.07.672 2.07 2.016a.78.78 0 0 1-.833.784zm-8.447-13.748c-3.4 0-5.574 2.66-5.574 6.3s2.184 6.328 5.574 6.328c3.42 0 5.574-2.688 5.574-6.328s-2.155-6.3-5.574-6.3zm16.575 13.748h-.9c-2.27 0-3.4-1.092-3.4-3.276v-9.996h-1.465a.798.798 0 1 1 0-1.596h1.465v-4.284a.799.799 0 0 1 .833-.784.775.775 0 0 1 .805.784v4.284h2.643a.798.798 0 1 1 0 1.596h-2.643v9.996c0 1.372.402 1.68 1.752 1.68h.9a.798.798 0 1 1 0 1.596z"/><use xlink:href="#K" x="697.897" y="231.218"/><use xlink:href="#P" x="106.25" y="237.136"/><use xlink:href="#L" x="714.5" y="231.208"/><path d="M829.036 474.942c-1.724 0-4.626-.588-5.632-2.212a.663.663 0 0 1-.115-.42.867.867 0 0 1 .833-.84.888.888 0 0 1 .632.392c1.034 1.232 2.873 1.484 4.28 1.484 2.787 0 4.195-.896 4.195-2.716 0-4.228-9.424-1.988-9.424-7.588 0-2.828 2.902-3.92 5.517-3.92a7.918 7.918 0 0 1 4.942 1.624.776.776 0 0 1 .259.532.921.921 0 0 1-.891.84.772.772 0 0 1-.546-.224 5.847 5.847 0 0 0-3.764-1.176c-2.528 0-3.88.952-3.88 2.324 0 3.92 9.424 1.848 9.424 7.588 0 3.192-2.873 4.312-5.833 4.312zm-185.07 51.816c0-.234-.108-.352-.325-.352a6.523 6.523 0 0 1-5.338-6.434q-.108-.527.396-.457h1.55q.65-.07.72.422a5.012 5.012 0 0 0 1.154 2.988 4.184 4.184 0 0 0 3.174 1.23q4.3-.176 4.4-4.184a3.926 3.926 0 0 0-1.587-3.375 21.326 21.326 0 0 0-3.859-2.004 10.991 10.991 0 0 1-3.715-2.496 6.004 6.004 0 0 1-1.551-4.148 6.457 6.457 0 0 1 5.122-6.363c.216 0 .325-.128.325-.387v-3.516q-.073-.387.324-.316h1.876c.24-.023.36.083.36.316v3.445c-.024.258.072.387.3.387a5.984 5.984 0 0 1 3.859 2.285 6.489 6.489 0 0 1 1.263 3.938q.108.563-.36.457h-1.587q-.614.07-.686-.422-.073-3.762-4.112-3.937a3.784 3.784 0 0 0-4.003 3.973 3.795 3.795 0 0 0 1.371 3.023 14.606 14.606 0 0 0 3.282 1.828 14.398 14.398 0 0 1 4.509 2.883 5.989 5.989 0 0 1 1.551 4.324 6.705 6.705 0 0 1-1.551 4.5 6.461 6.461 0 0 1-4.004 2.109q-.324 0-.325.352v3.445q.072.387-.325.352h-1.876q-.36.034-.325-.316z"/><use xlink:href="#Q" x="-19.45" y="79.265"/><use xlink:href="#S"/><use xlink:href="#S" x="16.972"/><path d="M643.616 539.307h-.89a1.255 1.255 0 0 0-1.264 1.204v2.296h2.155a.772.772 0 0 1 .805.784.797.797 0 0 1-.805.813h-2.155v12.487a.775.775 0 0 1-.805.784.758.758 0 0 1-.804-.784v-12.487h-1.983a.798.798 0 1 1 0-1.597h1.983v-2.296a2.815 2.815 0 0 1 2.844-2.771h.92a.805.805 0 0 1 .833.812.761.761 0 0 1-.833.756z"/><use xlink:href="#T"/><use xlink:href="#U"/><use xlink:href="#V"/><use xlink:href="#W"/><path d="M699.77 564.06c-2.442 0-5.9-.895-5.9-1.904a.898.898 0 0 1 .834-.896 10.48 10.48 0 0 1 1.522.672 11.025 11.025 0 0 0 3.534.532c3.678 0 5.574-1.764 5.574-5.208v-1.96a6.937 6.937 0 0 1-5.574 2.38c-4.54 0-7.212-3.136-7.212-7.448 0-4.2 2.586-7.896 7.212-7.896a6.629 6.629 0 0 1 5.574 2.632v-1.344a.82.82 0 0 1 1.638 0v13.636c0 4.452-2.73 6.804-7.212 6.804zm0-20.132c-3.4 0-5.574 2.66-5.574 6.3 0 3.612 2.04 5.853 5.574 5.853s5.574-2.24 5.574-5.853c0-3.64-2.155-6.3-5.574-6.3z"/><use xlink:href="#X"/><use xlink:href="#Y"/><use xlink:href="#W" x="63.085"/><path d="M769.262 557.675a.799.799 0 0 1-.833-.784v-1.4a6.578 6.578 0 0 1-5.574 2.659c-4.626 0-7.212-3.695-7.212-7.924 0-4.2 2.586-7.896 7.212-7.896a6.629 6.629 0 0 1 5.574 2.632v-6.44a.82.82 0 0 1 1.638 0V556.9a.792.792 0 0 1-.805.784zm-6.407-13.748c-3.4 0-5.574 2.66-5.574 6.3s2.184 6.328 5.574 6.328c3.42 0 5.574-2.687 5.574-6.328s-2.155-6.3-5.574-6.3zm22.445-4.62h-.9a1.255 1.255 0 0 0-1.264 1.204v2.296h2.155a.772.772 0 0 1 .805.784.797.797 0 0 1-.805.813h-2.155v12.487a.775.775 0 0 1-.805.784.758.758 0 0 1-.804-.784v-12.487h-1.983a.798.798 0 1 1 0-1.597h1.983v-2.296a2.815 2.815 0 0 1 2.844-2.771h.92a.805.805 0 0 1 .834.812.761.761 0 0 1-.834.756z"/><use xlink:href="#U" x="125.07"/><use xlink:href="#T" x="150.578"/><path d="M832.52 557.675a.775.775 0 0 1-.805-.784v-9.408a3.665 3.665 0 0 0-7.327-.027v9.436a.775.775 0 0 1-.804.784.799.799 0 0 1-.833-.784v-9.408a3.651 3.651 0 0 0-7.298-.027v9.436a.82.82 0 0 1-1.638 0v-13.3a.82.82 0 0 1 1.638 0v.168a5.297 5.297 0 0 1 3.649-1.428 5.364 5.364 0 0 1 4.482 2.38 5.336 5.336 0 0 1 4.453-2.38 5.191 5.191 0 0 1 5.316 5.124v9.436a.799.799 0 0 1-.833.784z"/><use xlink:href="#Z"/><path d="M658.756 588.767a.799.799 0 0 1-.833-.784v-8.176a4.915 4.915 0 0 0-9.826 0v8.176a.82.82 0 0 1-1.638 0v-18.368a.82.82 0 0 1 1.638 0v5.965a6.455 6.455 0 0 1 4.913-2.156 6.522 6.522 0 0 1 6.551 6.384v8.176a.792.792 0 0 1-.805.784zm17.007-6.637H663.84c.26 3.2 2.385 5.516 5.517 5.516a5.246 5.246 0 0 0 4.224-1.932.758.758 0 0 1 .689-.393.871.871 0 0 1 .891.756c0 .253 0 .3-.546.925a6.866 6.866 0 0 1-5.258 2.239c-4.626 0-7.212-3.695-7.212-7.924 0-4.2 2.586-7.896 7.212-7.896s7.212 3.724 7.212 7.896a.859.859 0 0 1-.805.813zm-6.407-7.112c-3.448 0-5.258 2.576-5.517 5.516h11.06c-.26-3.2-2.385-5.516-5.545-5.516zm21.054 14.224a6.195 6.195 0 0 1-5.229-2.827 1.024 1.024 0 0 1-.115-.448.889.889 0 0 1 .834-.84.772.772 0 0 1 .661.42 4.578 4.578 0 0 0 3.85 2.1 4.383 4.383 0 1 0 .029-8.764h-.03a.823.823 0 0 1-.833-.812.799.799 0 0 1 .833-.783h.03a3.683 3.683 0 1 0 0-7.364c-3.132 0-3.534 2.912-4.684 2.912a.845.845 0 0 1-.862-.784c0-.616 2.184-3.724 5.545-3.724a5.365 5.365 0 0 1 5.402 5.264 5.134 5.134 0 0 1-2.471 4.424 5.827 5.827 0 0 1 3.189 5.236 6.078 6.078 0 0 1-6.149 5.991zm14.882 0c-6.005 0-6.55-6-6.55-10.443 0-5.236 1.15-10.472 6.55-10.472a6.025 6.025 0 0 1 5.315 2.8.616.616 0 0 1 .172.476.864.864 0 0 1-.862.756.774.774 0 0 1-.661-.363 4.545 4.545 0 0 0-3.965-2.072c-3.62 0-4.914 3.36-4.914 8.848v.477a6.379 6.379 0 0 1 4.914-2.381 6.188 6.188 0 0 1 0 12.376zm0-10.78a4.724 4.724 0 0 0-4.597 4.76c.517 2.352 1.667 4.424 4.597 4.424a4.593 4.593 0 0 0 0-9.184zm23.038 10.78c-6.177 0-8.36-4.983-8.36-10.443 0-5.488 2.184-10.472 8.36-10.472 6.15 0 8.36 4.983 8.36 10.472 0 5.46-2.212 10.443-8.36 10.443zm0-19.32c-4.77 0-6.723 3.64-6.723 8.876 0 5.208 1.954 8.848 6.723 8.848 4.74 0 6.723-3.64 6.723-8.848 0-5.236-1.982-8.876-6.723-8.876zm24.966 18.845H740.54a.859.859 0 0 1-.833-.784v-18.368a.838.838 0 0 1 .833-.783h12.757a.785.785 0 1 1 0 1.567h-11.953v6.9h8.763a.782.782 0 0 1 .833.783.796.796 0 0 1-.805.813h-8.792v8.288h11.953a.803.803 0 0 1 .833.812.78.78 0 0 1-.833.784zm16.972-2.567a7.423 7.423 0 0 1-6.407 3.052c-6.177 0-8.36-4.983-8.36-10.443 0-5.488 2.184-10.472 8.36-10.472a7.337 7.337 0 0 1 6.378 3.052.558.558 0 0 1 .172.448.852.852 0 0 1-.891.783.768.768 0 0 1-.632-.308 5.701 5.701 0 0 0-5.028-2.38c-4.77 0-6.723 3.64-6.723 8.876 0 5.208 1.954 8.848 6.723 8.848a5.776 5.776 0 0 0 5.085-2.38.672.672 0 0 1 .632-.364.869.869 0 0 1 .862.813.879.879 0 0 1-.172.476zm9.9 2.567h-6.38a.859.859 0 0 1-.833-.784v-18.368a.838.838 0 0 1 .833-.783h6.38c5.918 0 7.873 4.815 7.873 9.94 0 5.208-1.954 9.996-7.873 9.996zm0-18.368h-5.574v16.772h5.574c4.913 0 6.235-4.145 6.235-8.372 0-4.984-1.782-8.4-6.235-8.4z"/><use xlink:href="#a"/><use xlink:href="#Y" x="80.578" y="31.092"/><path d="M837 588.767h-.89c-2.27 0-3.39-1.092-3.39-3.276v-9.995h-1.465a.798.798 0 1 1 0-1.597h1.465v-4.284a.798.798 0 0 1 .833-.783.774.774 0 0 1 .805.783v4.284H837a.798.798 0 1 1 0 1.597h-2.643v9.995c0 1.372.402 1.68 1.752 1.68h.89a.798.798 0 1 1 0 1.596z"/><use xlink:href="#W" x="151.764" y="31.09"/><use xlink:href="#T" x="198.352" y="31.092"/><use xlink:href="#a" x="64.061"/><path d="M882.73 589.3c-1.724 0-4.626-.588-5.632-2.212a.664.664 0 0 1-.115-.42.868.868 0 0 1 .833-.841.889.889 0 0 1 .632.393c1.034 1.23 2.873 1.483 4.28 1.483 2.787 0 4.195-.896 4.195-2.716 0-4.228-9.424-1.987-9.424-7.588 0-2.828 2.902-3.92 5.517-3.92a7.916 7.916 0 0 1 4.942 1.624.776.776 0 0 1 .259.532.921.921 0 0 1-.891.84.771.771 0 0 1-.546-.224 5.848 5.848 0 0 0-3.764-1.177c-2.528 0-3.88.952-3.88 2.324 0 3.92 9.424 1.85 9.424 7.588 0 3.192-2.873 4.313-5.832 4.313z"/></g><g opacity=".5" fill="#fff"><path d="M830.223 816.35q0-.352-.325-.352a6.523 6.523 0 0 1-5.338-6.434q-.108-.527.396-.457h1.55q.65-.07.72.422a5.012 5.012 0 0 0 1.154 2.988 4.184 4.184 0 0 0 3.174 1.23q4.3-.176 4.4-4.184a3.926 3.926 0 0 0-1.587-3.375 21.326 21.326 0 0 0-3.859-2.004 10.998 10.998 0 0 1-3.715-2.496 6.005 6.005 0 0 1-1.551-4.148 6.457 6.457 0 0 1 5.122-6.363q.324 0 .325-.387v-3.516q-.073-.387.324-.316h1.876c.24-.023.36.082.36.316v3.445q-.036.387.3.387a5.984 5.984 0 0 1 3.859 2.285 6.489 6.489 0 0 1 1.263 3.938q.108.563-.36.457h-1.587q-.614.07-.686-.422-.073-3.762-4.112-3.937a3.784 3.784 0 0 0-4.003 3.973 3.795 3.795 0 0 0 1.371 3.023 14.626 14.626 0 0 0 3.282 1.828 14.398 14.398 0 0 1 4.509 2.883 5.989 5.989 0 0 1 1.551 4.324 6.706 6.706 0 0 1-1.551 4.5 6.461 6.461 0 0 1-4.004 2.109q-.324 0-.325.352v3.445q.072.387-.325.352h-1.875q-.36.035-.325-.316zm18.02-1.968a4.401 4.401 0 0 0 3.282-1.441 4.978 4.978 0 0 0 1.226-3.445 5.613 5.613 0 0 0-1.443-4.008 5.147 5.147 0 0 0-3.751-1.406h-.433q-.36.035-.325-.352v-1.687q-.037-.387.325-.316h.216a4.701 4.701 0 0 0 4.905-4.957q-.216-3.727-3.75-3.937a3.756 3.756 0 0 0-2.561.949 4.326 4.326 0 0 0-1.334 2.777q0 .492-.36.422h-1.948q-.433.07-.325-.352a6.91 6.91 0 0 1 2.056-4.465 6.563 6.563 0 0 1 9.089 0 6.465 6.465 0 0 1 1.875 4.605 6.113 6.113 0 0 1-1.226 3.797 6.817 6.817 0 0 1-2.525 2.039q-.3.176.036.387a7.886 7.886 0 0 1 2.777 2.074 6.647 6.647 0 0 1 1.442 4.43 7.548 7.548 0 0 1-2.092 5.168 7.311 7.311 0 0 1-5.194 2.215 6.869 6.869 0 0 1-7.034-6.926q-.073-.2.325-.28h1.948q.396-.07.396.422.325 4.113 4.4 4.3h0zm12.898-3.972q.3 3.797 4.33 3.973a4.142 4.142 0 0 0 3.066-1.195 4.732 4.732 0 0 0 1.19-3.34v-3.2a4.527 4.527 0 0 0-1.046-3.094 3.923 3.923 0 0 0-3.03-1.266 5.354 5.354 0 0 0-3.571 1.195.417.417 0 0 1-.469.176h-1.768q-.398.07-.325-.316v-12.06q-.072-.387.325-.316h11.253q.397-.07.325.316v1.793q.072.387-.325.352h-8.8q-.36-.07-.325.316v6.96q0 .316.325.14a7.762 7.762 0 0 1 3.571-.809 6.234 6.234 0 0 1 6.529 6.609v3.2a6.797 6.797 0 0 1-2.056 5.027 7.25 7.25 0 0 1-4.978 1.934 6.79 6.79 0 0 1-4.833-1.863 6.694 6.694 0 0 1-1.983-4.641q-.073-.352.324-.316h1.876q.396-.035.396.422h0zm-29.487 37.36a7.108 7.108 0 0 1-7.211-7.028v-12.628a.835.835 0 0 1 1.667 0v12.628a5.561 5.561 0 0 0 11.119 0v-12.628a.82.82 0 0 1 1.638 0v12.628a7.108 7.108 0 0 1-7.212 7.028zm16.517-.028a10.773 10.773 0 0 1-6.867-2.464.72.72 0 0 1-.259-.56.863.863 0 0 1 .834-.812c.345 0 .316.084.92.532a9.265 9.265 0 0 0 5.373 1.708c3.62 0 5.718-1.315 5.718-3.836 0-6.636-12.154-2.94-12.154-10.584 0-3.36 3.017-4.9 6.724-4.9 2.07 0 4.97.867 6.264 2.632a.808.808 0 0 1 .172.476.826.826 0 0 1-.862.784c-.402 0-.402-.112-.9-.588a6.749 6.749 0 0 0-4.683-1.708c-3.42 0-5.085 1.288-5.085 3.304 0 6.02 12.153 2.52 12.153 10.584 0 3.892-3.505 5.432-7.355 5.432zm22.666 5.908c-2.442 0-5.9-.896-5.9-1.904a.898.898 0 0 1 .834-.895 10.479 10.479 0 0 1 1.522.672 11.025 11.025 0 0 0 3.534.532c3.678 0 5.574-1.764 5.574-5.208v-1.96a6.937 6.937 0 0 1-5.574 2.38c-4.54 0-7.212-3.136-7.212-7.448 0-4.2 2.586-7.896 7.212-7.896a6.629 6.629 0 0 1 5.574 2.632v-1.344a.82.82 0 0 1 1.638 0v13.636c0 4.452-2.73 6.804-7.212 6.804zm0-20.132c-3.4 0-5.574 2.66-5.574 6.3 0 3.612 2.04 5.853 5.574 5.853s5.574-2.24 5.574-5.853c0-3.64-2.155-6.3-5.574-6.3z"/><use xlink:href="#T" x="234.92" y="289.592"/><path d="M909.877 833.5l-5.66 13.133a.939.939 0 0 1-.805.644.975.975 0 0 1-.833-.644l-5.66-13.105a.867.867 0 0 1-.058-.364.796.796 0 0 1 .833-.756.739.739 0 0 1 .718.477l5 11.508 4.97-11.508a.824.824 0 0 1 1.581.252.652.652 0 0 1-.086.363z"/><use xlink:href="#V" x="240.698" y="289.59"/><use xlink:href="#U" x="265.542" y="289.59"/><use xlink:href="#a" x="140.156" y="258.5"/><path d="M972.732 847.267a.775.775 0 0 1-.805-.784v-9.408a3.665 3.665 0 0 0-7.327-.027v9.436a.775.775 0 0 1-.804.784.799.799 0 0 1-.833-.784v-9.408a3.651 3.651 0 0 0-7.298-.027v9.436a.82.82 0 0 1-1.638 0v-13.3a.82.82 0 0 1 1.638 0v.168a5.297 5.297 0 0 1 3.649-1.428 5.384 5.384 0 0 0 8.936 0 5.191 5.191 0 0 1 5.316 5.124v9.436a.799.799 0 0 1-.833.784z"/><use xlink:href="#V" x="305.334" y="289.59"/><use xlink:href="#a" x="195.886" y="258.5"/><path d="M1015.016 847.267h-.9c-2.27 0-3.4-1.092-3.4-3.276v-9.995h-1.465a.798.798 0 1 1 0-1.597h1.465v-4.284a.798.798 0 0 1 .833-.783.774.774 0 0 1 .805.783v4.284h2.643a.798.798 0 1 1 0 1.597h-2.643V844c0 1.372.402 1.68 1.752 1.68h.9a.798.798 0 1 1 0 1.596zm-178.708 29.44a6.756 6.756 0 0 1-5.143 2.128c-4.626 0-7.212-3.695-7.212-7.924 0-4.2 2.586-7.896 7.212-7.896a6.756 6.756 0 0 1 5.143 2.128.733.733 0 0 1 .23.532.888.888 0 0 1-.833.84.856.856 0 0 1-.603-.28 5.128 5.128 0 0 0-3.937-1.624c-3.4 0-5.574 2.66-5.574 6.3s2.184 6.328 5.574 6.328a5.229 5.229 0 0 0 3.937-1.624.856.856 0 0 1 .603-.28.843.843 0 0 1 .833.813.789.789 0 0 1-.23.559z"/><use xlink:href="#b"/><use xlink:href="#X" x="145.518" y="320.683"/><use xlink:href="#Z" x="234" y="289.591"/><use xlink:href="#U" x="217.214" y="320.682"/><use xlink:href="#W" x="201.287" y="320.683"/><path d="M901.718 878.834a6.577 6.577 0 0 1-5.574-2.659v1.4a.82.82 0 0 1-1.638 0v-18.368a.82.82 0 0 1 1.638 0v6.44a6.628 6.628 0 0 1 5.574-2.632c4.625 0 7.2 3.696 7.2 7.896 0 4.23-2.586 7.924-7.2 7.924zm0-14.224c-3.42 0-5.574 2.66-5.574 6.3s2.155 6.328 5.574 6.328 5.574-2.687 5.574-6.328-2.155-6.3-5.574-6.3zm22.082 13.748a.799.799 0 0 1-.833-.784v-.896a6.454 6.454 0 0 1-4.913 2.155 6.54 6.54 0 0 1-6.551-6.384v-8.176a.82.82 0 0 1 1.638 0v8.176a4.915 4.915 0 0 0 9.827 0v-8.176a.82.82 0 0 1 1.638 0v13.3a.792.792 0 0 1-.805.784z"/><use xlink:href="#Z" x="289.759" y="289.591"/><use xlink:href="#W" x="248.14" y="320.683"/><use xlink:href="#b" x="101.95"/><use xlink:href="#a" x="160.436" y="289.591"/></g><g opacity=".7" fill="#fff"><path d="M46.576 128.608v6.23a1.101 1.101 0 0 1-1.102 1.102 1.07 1.07 0 0 1-1.064-1.102v-6.23c-2.773-.228-6.192-1.33-8.17-3.305a.994.994 0 0 1-.342-.76 1.156 1.156 0 0 1 1.103-1.103c.455 0 .418.114 1.216.722a12.033 12.033 0 0 0 7.105 2.318c4.787 0 7.56-1.786 7.56-5.205 0-9.005-16.07-4-16.07-14.362 0-4.18 3.306-6.23 7.6-6.573V94.5a1.058 1.058 0 0 1 1.064-1.14 1.086 1.086 0 0 1 1.102 1.14v5.85c2.62.2 5.9 1.368 7.4 3.496a1.117 1.117 0 0 1 .228.646 1.104 1.104 0 0 1-1.14 1.063c-.532 0-.532-.15-1.178-.798a8.792 8.792 0 0 0-6.193-2.317c-4.52 0-6.725 1.748-6.725 4.483 0 8.17 16.07 3.42 16.07 14.362 0 4.863-3.913 7.028-8.473 7.332zM71.542 128h-11.02a1.151 1.151 0 0 1-1.103-1.063v-24.925a.941.941 0 0 1 .988-1.063h10.297a6.869 6.869 0 0 1 6.839 6.763 6.592 6.592 0 0 1-2.698 5.434A7.787 7.787 0 0 1 71.542 128zm-.836-24.924h-9.12v9.346h9.12a4.673 4.673 0 1 0 0-9.346zm.836 11.512h-9.955v11.246h9.955a5.623 5.623 0 1 0 0-11.246zm12.692-10.4a2.166 2.166 0 1 1 2.165-2.166 2.141 2.141 0 0 1-2.165 2.166zm0 23.822a1.045 1.045 0 0 1-1.103-1.063V108.9a1.047 1.047 0 0 1 1.103-1.063 1.034 1.034 0 0 1 1.063 1.063v18.048A1.016 1.016 0 0 1 84.234 128z"/><use xlink:href="#c"/><use xlink:href="#c" x="7.562"/><path d="M106.16 104.178a2.166 2.166 0 1 1 2.165-2.166 2.141 2.141 0 0 1-2.165 2.166zm0 23.822a1.045 1.045 0 0 1-1.103-1.063V108.89a1.047 1.047 0 0 1 1.103-1.063 1.034 1.034 0 0 1 1.063 1.063v18.048a1.016 1.016 0 0 1-1.063 1.063z"/><use xlink:href="#d"/><use xlink:href="#e"/><path d="M161.8 128.722c-2.28 0-6.117-.798-7.447-3a.922.922 0 0 1-.151-.57 1.036 1.036 0 0 1 1.938-.607c1.367 1.67 3.8 2.014 5.66 2.014 3.686 0 5.547-1.216 5.547-3.686 0-5.737-12.462-2.698-12.462-10.297 0-3.837 3.837-5.32 7.295-5.32 1.976 0 5.016.685 6.535 2.204a1.064 1.064 0 0 1 .342.722 1.232 1.232 0 0 1-1.178 1.14 1.006 1.006 0 0 1-.722-.304 7.599 7.599 0 0 0-4.978-1.596c-3.344 0-5.13 1.292-5.13 3.153 0 5.32 12.462 2.508 12.462 10.297 0 4.33-3.8 5.85-7.713 5.85zm36.62-.722a1.068 1.068 0 0 1-1.102-1.063v-1.9a8.619 8.619 0 0 1-7.371 3.609c-6.117 0-9.536-5.015-9.536-10.752 0-5.7 3.42-10.715 9.536-10.715a8.686 8.686 0 0 1 7.371 3.572v-8.74a1.083 1.083 0 0 1 2.166 0v24.925A1.059 1.059 0 0 1 198.42 128zm-8.473-18.655c-4.483 0-7.37 3.6-7.37 8.55s2.888 8.587 7.37 8.587c4.52 0 7.37-3.647 7.37-8.587s-2.85-8.55-7.37-8.55z"/><use xlink:href="#d" x="92.263"/><use xlink:href="#e" x="92.263"/><path d="M267.54 128h-.038a3.933 3.933 0 0 1-3.762-2.964 8.619 8.619 0 0 1-7.371 3.609c-6.193 0-9.536-5.1-9.536-10.752 0-5.737 3.42-10.715 9.536-10.715a8.686 8.686 0 0 1 7.371 3.572v-1.862a1.071 1.071 0 0 1 1.102-1.063 1.037 1.037 0 0 1 1.064 1.063V124.2c0 2.432 2.735.912 2.735 2.736a1.045 1.045 0 0 1-1.102 1.064zm-11.17-18.655c-4.483 0-7.37 3.6-7.37 8.55s2.888 8.587 7.37 8.587c4.52 0 7.37-3.647 7.37-8.587s-2.85-8.55-7.37-8.55zM278.296 128h-1.178c-3 0-4.483-1.48-4.483-4.445V110h-1.937a1.083 1.083 0 0 1 0-2.165h1.938v-5.813a1.068 1.068 0 0 1 1.103-1.063 1.037 1.037 0 0 1 1.063 1.063v5.813h3.495a1.083 1.083 0 0 1 0 2.165H274.8v13.564c0 1.86.532 2.28 2.317 2.28h1.178a1.083 1.083 0 0 1 0 2.166zm20.898-9.004h-15.768c.342 4.332 3.153 7.485 7.295 7.485a6.866 6.866 0 0 0 5.585-2.622.997.997 0 0 1 .912-.531 1.161 1.161 0 0 1 1.178 1.025c0 .342 0 .418-.722 1.254a8.969 8.969 0 0 1-6.953 3.039c-6.117 0-9.536-5.015-9.536-10.752 0-5.7 3.42-10.715 9.536-10.715s9.537 5.054 9.537 10.715a1.15 1.15 0 0 1-1.064 1.102zm-8.473-9.65c-4.56 0-6.953 3.495-7.295 7.485h14.628c-.342-4.332-3.153-7.485-7.333-7.485zM321.158 128a1.068 1.068 0 0 1-1.102-1.063v-1.9a8.619 8.619 0 0 1-7.371 3.609c-6.117 0-9.536-5.015-9.536-10.752 0-5.7 3.42-10.715 9.536-10.715a8.686 8.686 0 0 1 7.371 3.572v-8.74a1.083 1.083 0 0 1 2.166 0v24.925a1.059 1.059 0 0 1-1.064 1.063zm-8.473-18.655c-4.483 0-7.37 3.6-7.37 8.55s2.888 8.587 7.37 8.587c4.52 0 7.37-3.647 7.37-8.587s-2.85-8.55-7.37-8.55z"/></g><g fill="#fff"><path d="M64.42 42.382h-9.96v35.1a2.424 2.424 0 0 1-2.52 2.52 2.505 2.505 0 0 1-2.58-2.52v-35.1h-9.84a2.534 2.534 0 0 1-2.64-2.58 2.506 2.506 0 0 1 2.58-2.52h24.96a2.55 2.55 0 1 1 0 5.1zM94.178 80a2.424 2.424 0 0 1-2.52-2.52V60.8a8.55 8.55 0 1 0-17.099 0v16.62a2.551 2.551 0 0 1-2.64 2.64 2.472 2.472 0 0 1-2.52-2.58V39.862a2.58 2.58 0 0 1 5.16-.06v10.38a12.097 12.097 0 0 1 8.52-3.06 13.79 13.79 0 0 1 13.68 13.68v16.62a2.454 2.454 0 0 1-2.58 2.58z"/><use xlink:href="#f"/><path d="M173.977 80a2.456 2.456 0 0 1-2.28-1.56l-3.18-7.8h-19.98l-3.24 7.8a2.439 2.439 0 0 1-2.22 1.56 2.651 2.651 0 0 1-2.7-2.52 1.976 1.976 0 0 1 .24-1.02l15.42-37.498a2.621 2.621 0 0 1 2.46-1.86 2.725 2.725 0 0 1 2.46 1.86l15.48 37.498a2.812 2.812 0 0 1 .18 1.02 2.561 2.561 0 0 1-2.64 2.52zm-15.48-33.6l-7.86 19.08h15.72zm60.12 33.6a2.457 2.457 0 0 1-2.52-2.52v-18.9a6.33 6.33 0 1 0-12.659-.06v18.9a2.454 2.454 0 0 1-2.58 2.58 2.424 2.424 0 0 1-2.52-2.52v-18.9a6.36 6.36 0 0 0-12.719-.06v18.9a2.501 2.501 0 0 1-2.64 2.58 2.456 2.456 0 0 1-2.52-2.52V50.66a2.632 2.632 0 0 1 4.8-1.44 11.56 11.56 0 0 1 6.66-2.1 11.358 11.358 0 0 1 8.939 4.26 11.24 11.24 0 0 1 8.88-4.26 11.459 11.459 0 0 1 11.52 11.4v18.9a2.501 2.501 0 0 1-2.64 2.58z"/><use xlink:href="#f" x="125.698"/><path d="M273.276 52.222a8.644 8.644 0 0 0-8.52 8.58v16.62a2.501 2.501 0 0 1-2.64 2.58 2.456 2.456 0 0 1-2.52-2.52v-26.76a2.541 2.541 0 0 1 2.52-2.58 2.463 2.463 0 0 1 2.58 2.04 13.875 13.875 0 0 1 8.58-3.06 2.552 2.552 0 1 1 0 5.1zm6.48-8.94a4.32 4.32 0 1 1 4.32-4.319 4.302 4.302 0 0 1-4.32 4.319zm0 36.72a2.52 2.52 0 0 1-2.64-2.52v-26.76a2.534 2.534 0 0 1 2.64-2.58 2.472 2.472 0 0 1 2.52 2.58v26.76a2.421 2.421 0 0 1-2.52 2.52zm33.3-3.542a13.936 13.936 0 0 1-10.74 4.56c-9.66 0-15.06-7.92-15.06-16.98 0-9 5.4-16.92 15.06-16.92a13.936 13.936 0 0 1 10.74 4.56 2.615 2.615 0 0 1 .72 1.74 2.794 2.794 0 0 1-2.7 2.58 2.84 2.84 0 0 1-1.86-.84 8.814 8.814 0 0 0-6.9-2.94c-6 0-9.9 4.68-9.9 11.82 0 7.2 3.9 11.88 9.9 11.88a8.923 8.923 0 0 0 6.9-2.939 2.396 2.396 0 0 1 1.86-.9 2.59 2.59 0 0 1 1.98 4.38zm34.38 3.54a5.839 5.839 0 0 1-5.34-3.42 13.747 13.747 0 0 1-10.56 4.44c-9.78 0-15.06-8.04-15.06-16.98s5.4-16.92 15.06-16.92a13.258 13.258 0 0 1 9.899 3.96v-.24a2.476 2.476 0 0 1 2.52-2.7 2.412 2.412 0 0 1 2.64 2.52v23.16a.971.971 0 0 0 .84 1.08 2.55 2.55 0 1 1 0 5.1zm-15.9-27.78c-6 0-9.9 4.68-9.9 11.82 0 7.2 3.9 11.88 9.9 11.88 6.06 0 9.9-4.68 9.9-11.88 0-7.14-3.84-11.82-9.9-11.82zM379.173 80a2.424 2.424 0 0 1-2.52-2.52V60.8a8.55 8.55 0 1 0-17.099 0v16.62a2.551 2.551 0 0 1-2.64 2.64 2.472 2.472 0 0 1-2.52-2.58V50.66a2.387 2.387 0 0 1 2.52-2.52 2.509 2.509 0 0 1 2.58 1.98 13.703 13.703 0 0 1 22.259 10.68v16.62a2.454 2.454 0 0 1-2.58 2.58zm38.46-18.48h-12.84v15.9a2.58 2.58 0 0 1-5.16.06V39.862a2.491 2.491 0 0 1 2.52-2.58h15.54c5.28 0 12.06 4.14 12.06 12.06a12.099 12.099 0 0 1-12.12 12.179zm0-19.14h-12.84v14.04h12.78a7.02 7.02 0 0 0 .06-14.04z"/><use xlink:href="#f" x="331.494"/><use xlink:href="#g"/><path d="M511.53 81.02a13.13 13.13 0 0 1-9.899-3.96v13.02a2.501 2.501 0 0 1-2.64 2.58 2.472 2.472 0 0 1-2.52-2.58V50.722a2.472 2.472 0 0 1 2.52-2.58 2.501 2.501 0 0 1 2.64 2.58 14.401 14.401 0 0 1 9.899-3.66c9.66 0 15.06 7.92 15.06 16.92 0 9.12-5.4 17.04-15.06 17.04zm0-28.86c-5.94 0-9.9 4.74-9.9 11.82 0 7.2 3.9 11.94 9.9 11.94s9.9-4.68 9.9-11.88c0-7.14-3.9-11.88-9.9-11.88zm25.442 27.96a6.122 6.122 0 0 1-6-6.12V39.862a2.58 2.58 0 0 1 5.16-.06V74a.947.947 0 0 0 .84 1.02 2.55 2.55 0 1 1 0 5.1zm31.798-13.44h-22.2c.84 5.64 4.44 9.24 9.72 9.24a9.007 9.007 0 0 0 7.14-3.12 2.483 2.483 0 0 1 1.859-.96 2.8 2.8 0 0 1 2.7 2.64c0 .72-.18 1.26-1.44 2.52a14.618 14.618 0 0 1-10.259 4.02c-9.66 0-15.06-7.98-15.06-16.98 0-8.94 5.4-16.92 15.06-16.92 9.78 0 15 7.98 15 16.92a2.558 2.558 0 0 1-2.52 2.64zM556.3 52.22c-5.64 0-8.94 4.14-9.72 9.3H566c-.84-5.76-4.44-9.3-9.72-9.3zM617.248 80a5.837 5.837 0 0 1-5.339-3.42 13.748 13.748 0 0 1-10.56 4.44c-9.78 0-15.06-8.04-15.06-16.98s5.4-16.92 15.06-16.92a13.259 13.259 0 0 1 9.899 3.96v-.24a2.475 2.475 0 0 1 2.52-2.7 2.412 2.412 0 0 1 2.64 2.52v23.16a.971.971 0 0 0 .84 1.08 2.55 2.55 0 1 1 0 5.1zM601.35 52.22c-6 0-9.9 4.68-9.9 11.82 0 7.2 3.9 11.88 9.9 11.88 6.06 0 9.9-4.68 9.9-11.88 0-7.14-3.84-11.82-9.9-11.82z"/><use xlink:href="#h"/><use xlink:href="#i"/><path d="M711.555 40.642l-12.6 37.318a2.722 2.722 0 0 1-2.58 2.04 2.825 2.825 0 0 1-2.52-2.04l-12.66-37.318a2.561 2.561 0 0 1 4.859-1.62l10.32 30.42 10.38-30.42a2.387 2.387 0 0 1 2.34-1.74 2.56 2.56 0 0 1 2.7 2.46 1.846 1.846 0 0 1-.24.9z"/><use xlink:href="#i" x="72.776"/><path d="M758.233 52.222a8.644 8.644 0 0 0-8.521 8.58v16.62a2.501 2.501 0 0 1-2.64 2.58 2.456 2.456 0 0 1-2.52-2.52v-26.76a2.541 2.541 0 0 1 2.52-2.58 2.463 2.463 0 0 1 2.58 2.04 13.874 13.874 0 0 1 8.58-3.06 2.552 2.552 0 1 1 0 5.1zm34.497-.48l-16.2 36.838a6.876 6.876 0 0 1-6.6 4.02H768a2.42 2.42 0 0 1-2.52-2.64 2.386 2.386 0 0 1 2.52-2.52h1.86a1.894 1.894 0 0 0 1.979-.96l3.96-8.88-11.7-25.86a2.165 2.165 0 0 1-.301-1.14 2.705 2.705 0 0 1 2.76-2.52 2.309 2.309 0 0 1 2.16 1.56l9.78 21.72 9.54-21.72a2.376 2.376 0 0 1 2.22-1.5 2.659 2.659 0 0 1 2.76 2.46 2.035 2.035 0 0 1-.3 1.14zm29.822 29.278c-13.2 0-17.46-11.1-17.46-22.38 0-11.58 4.56-22.44 17.46-22.44 5.46 0 10.02 1.92 13.32 6.54a2.561 2.561 0 0 1 .54 1.5 2.873 2.873 0 0 1-2.88 2.58c-1.08 0-1.2-.48-2.16-1.56-1.92-2.34-4.5-3.9-8.82-3.9-9.24 0-12.3 7.86-12.3 17.28 0 8.22 2.22 17.28 12.3 17.28 7.32 0 11.7-5.22 12.12-13.86h-5.4a2.502 2.502 0 0 1-2.641-2.58 2.472 2.472 0 0 1 2.521-2.58h8.22a2.52 2.52 0 0 1 2.64 2.64c-.24 11.22-4.74 21.48-17.46 21.48zm47.998-14.34h-22.2c.84 5.64 4.44 9.24 9.72 9.24a9.007 9.007 0 0 0 7.14-3.12 2.483 2.483 0 0 1 1.859-.96 2.8 2.8 0 0 1 2.7 2.64c0 .72-.18 1.26-1.44 2.52a14.618 14.618 0 0 1-10.259 4.02c-9.66 0-15.06-7.98-15.06-16.98 0-8.94 5.4-16.92 15.06-16.92 9.78 0 15 7.98 15 16.92a2.558 2.558 0 0 1-2.52 2.64zm-12.48-14.46c-5.64 0-8.94 4.14-9.72 9.3h19.45c-.84-5.76-4.44-9.3-9.72-9.3zM901.93 80a2.423 2.423 0 0 1-2.52-2.52V60.8a8.55 8.55 0 1 0-17.1 0v16.62a2.55 2.55 0 0 1-2.64 2.64 2.472 2.472 0 0 1-2.52-2.58V50.66a2.387 2.387 0 0 1 2.52-2.52 2.509 2.509 0 0 1 2.58 1.98 13.702 13.702 0 0 1 22.259 10.68v16.62a2.454 2.454 0 0 1-2.58 2.58z"/><use xlink:href="#i" x="271.073"/><use xlink:href="#h" x="319.84"/><use xlink:href="#g" x="496.058"/><path d="M1018.028 80.06a2.445 2.445 0 0 1-2.52-1.98 13.967 13.967 0 0 1-8.64 3 13.79 13.79 0 0 1-13.68-13.68V50.78a2.58 2.58 0 0 1 5.16-.06V67.4a8.55 8.55 0 1 0 17.099 0V50.78a2.393 2.393 0 0 1 2.521-2.64 2.453 2.453 0 0 1 2.579 2.58v26.82a2.389 2.389 0 0 1-2.52 2.52zm18.66.96c-3.3 0-8.82-1.02-11.64-4.5a2.655 2.655 0 0 1 2.16-4.26 2.463 2.463 0 0 1 1.859 1.02c1.86 2.04 4.92 2.64 7.62 2.64 5.4 0 7.14-1.86 7.14-4.56 0-7.68-18.3-2.94-18.3-15.3 0-6.54 6.12-8.94 11.82-8.94 3.24 0 10.86 1.62 10.86 4.98a2.694 2.694 0 0 1-2.521 2.7 3.612 3.612 0 0 1-1.979-.78c-1.62-1.38-3.96-1.8-6.36-1.8-4.98 0-6.72 1.86-6.72 3.84 0 7.14 18.36 2.52 18.36 15.3 0 7.08-5.94 9.66-12.3 9.66z"/></g></svg>