<svg xmlns="http://www.w3.org/2000/svg" xmlns:xlink="http://www.w3.org/1999/xlink" viewBox="0 0 1080 1080"><style><![CDATA[.L{opacity:.4}.M{fill:#fff}.N{stroke-miterlimit:10}]]></style><linearGradient id="A" gradientUnits="userSpaceOnUse" x1="540" y1="0" x2="540" y2="1080"><stop offset="0" stop-color="#ef8e38"/><stop offset=".094" stop-color="#e68e3e"/><stop offset=".248" stop-color="#cd8e4e"/><stop offset=".444" stop-color="#a48e68"/><stop offset=".674" stop-color="#6c8d8c"/><stop offset=".929" stop-color="#258dba"/><stop offset="1" stop-color="#108dc7"/></linearGradient><path d="M1080,1040c0,22-18,40-40,40H40c-22,0-40-18-40-40V40C0,18,18,0,40,0h1000c22,0,40,18,40,40V1040z" fill="url(#A)"/><linearGradient id="B" gradientUnits="userSpaceOnUse" x1="38.428" y1="531.301" x2="38.428" y2="939.871"><stop offset="0" stop-color="#fff"/><stop offset="1" stop-color="#fff"/></linearGradient><path d="M38.428 939.87c-2.47 0-4.472-2.002-4.472-4.472V535.772c0-2.47 2.002-4.472 4.472-4.472s4.472 2.002 4.472 4.472V935.4c0 2.47-2.002 4.472-4.472 4.472z" fill="url(#B)" class="L"/><g class="M"><use xlink:href="#D" class="L"/><use xlink:href="#E" class="L"/><use xlink:href="#E" x="24.466" class="L"/><path d="M136.3 939.87c-2.47 0-4.472-2.002-4.472-4.472V533.227c0-2.47 2.002-4.472 4.472-4.472s4.472 2.002 4.472 4.472V935.4c0 2.47-2.002 4.472-4.472 4.472z" class="L"/><use xlink:href="#D" x="97.871" class="L"/><use xlink:href="#D" x="122.338" class="L"/><path d="M209.702 939.87c-2.47 0-4.472-2.002-4.472-4.472V520.5c0-2.47 2.002-4.472 4.472-4.472s4.472 2.002 4.472 4.472v414.9c0 2.47-2.002 4.472-4.472 4.472zm24.468 0c-2.47 0-4.472-2.002-4.472-4.472V507.772c0-2.47 2.002-4.472 4.472-4.472s4.472 2.002 4.472 4.472V935.4c0 2.47-2.002 4.472-4.472 4.472zm24.467 0c-2.47 0-4.472-2.002-4.472-4.472v-420c0-2.47 2.002-4.472 4.472-4.472s4.472 2.002 4.472 4.472v420c0 2.47-2.002 4.472-4.472 4.472zm24.468 0c-2.47 0-4.472-2.002-4.472-4.472V456.865c0-2.47 2.002-4.472 4.472-4.472s4.472 2.002 4.472 4.472V935.4c0 2.47-2.002 4.472-4.472 4.472z" class="L"/><use xlink:href="#F" class="L"/><use xlink:href="#G" class="L"/><path d="M356.508 939.87c-2.47 0-4.472-2.002-4.472-4.472V449.23c0-2.47 2.002-4.472 4.472-4.472s4.472 2.002 4.472 4.472V935.4c0 2.47-2.002 4.472-4.472 4.472zm24.468 0c-2.47 0-4.472-2.002-4.472-4.472V479.773c0-2.47 2.002-4.472 4.472-4.472s4.472 2.002 4.472 4.472V935.4c0 2.47-2.002 4.472-4.472 4.472zm24.468 0c-2.47 0-4.472-2.002-4.472-4.472V484.864c0-2.47 2.002-4.472 4.472-4.472s4.472 2.002 4.472 4.472V935.4c0 2.47-2.002 4.472-4.472 4.472z" class="L"/><use xlink:href="#H" class="L"/><use xlink:href="#H" x="24.47" class="L"/><use xlink:href="#G" x="146.807" class="L"/><use xlink:href="#F" x="195.742" class="L"/><path d="M527.782 939.87c-2.47 0-4.472-2.002-4.472-4.472V446.683c0-2.47 2.002-4.472 4.472-4.472s4.472 2.002 4.472 4.472V935.4c0 2.47-2.002 4.472-4.472 4.472zm24.468 0c-2.47 0-4.472-2.002-4.472-4.472v-552.35c0-2.47 2.002-4.472 4.472-4.472s4.472 2.002 4.472 4.472V935.4c0 2.47-2.002 4.472-4.472 4.472zm24.466 0c-2.47 0-4.472-2.002-4.472-4.472V355.05c0-2.47 2.002-4.472 4.472-4.472s4.472 2.002 4.472 4.472V935.4c0 2.47-2.002 4.472-4.472 4.472zm24.467 0c-2.47 0-4.472-2.002-4.472-4.472V293.96c0-2.47 2.002-4.472 4.472-4.472s4.472 2.002 4.472 4.472V935.4c0 2.47-2.002 4.472-4.472 4.472z" class="L"/><use xlink:href="#I" class="L"/><path d="M650.116 939.872c-2.47 0-4.472-2.003-4.472-4.473V273.596c0-2.47 2.002-4.472 4.472-4.472s4.472 2.002 4.472 4.472V935.4c0 2.47-2.002 4.473-4.472 4.473zm24.467-.002c-2.47 0-4.472-2.002-4.472-4.472v-651.62c0-2.47 2.002-4.472 4.472-4.472s4.472 2.002 4.472 4.472V935.4c0 2.47-2.002 4.472-4.472 4.472z" class="L"/><use xlink:href="#J" class="L"/><path d="M723.517 939.872c-2.47 0-4.472-2.003-4.472-4.473V245.597c0-2.47 2.002-4.472 4.472-4.472s4.472 2.002 4.472 4.472V935.4c0 2.47-2.002 4.473-4.472 4.473zm24.466-.002c-2.47 0-4.472-2.002-4.472-4.472V202.325c0-2.47 2.002-4.472 4.472-4.472s4.472 2.002 4.472 4.472V935.4c0 2.47-2.002 4.472-4.472 4.472zm24.467 0c-2.47 0-4.472-2.002-4.472-4.472V227.78c0-2.47 2.002-4.472 4.472-4.472s4.472 2.002 4.472 4.472V935.4c0 2.47-2.002 4.472-4.472 4.472zm24.467.002c-2.47 0-4.472-2.003-4.472-4.473V225.234c0-2.47 2.002-4.472 4.472-4.472s4.472 2.002 4.472 4.472V935.4c0 2.47-2.002 4.473-4.472 4.473z" class="L"/><use xlink:href="#J" x="122.333" class="L"/><path d="M845.85 939.87c-2.47 0-4.472-2.002-4.472-4.472V357.594c0-2.47 2.002-4.472 4.472-4.472s4.472 2.002 4.472 4.472V935.4c0 2.47-2.002 4.472-4.472 4.472zm24.467.002c-2.47 0-4.472-2.003-4.472-4.473V342.322c0-2.47 2.002-4.472 4.472-4.472s4.472 2.002 4.472 4.472V935.4c0 2.47-2.002 4.473-4.472 4.473zm24.467-.002c-2.47 0-4.472-2.002-4.472-4.472v-590.53c0-2.47 2.002-4.472 4.472-4.472s4.472 2.002 4.472 4.472V935.4c0 2.47-2.002 4.472-4.472 4.472zm24.466.002c-2.47 0-4.472-2.003-4.472-4.473V291.414c0-2.47 2.002-4.472 4.472-4.472s4.472 2.002 4.472 4.472V935.4c0 2.47-2.002 4.473-4.472 4.473zm24.467-.002c-2.47 0-4.472-2.002-4.472-4.472V309.232c0-2.47 2.002-4.472 4.472-4.472s4.472 2.002 4.472 4.472V935.4c0 2.47-2.002 4.472-4.472 4.472zm24.467 0c-2.47 0-4.472-2.002-4.472-4.472V265.96c0-2.47 2.002-4.472 4.472-4.472s4.472 2.002 4.472 4.472V935.4c0 2.47-2.002 4.472-4.472 4.472z" class="L"/><use xlink:href="#I" x="367" class="L"/><path d="M1017.117 939.87c-2.47 0-4.472-2.002-4.472-4.472V240.506c0-2.47 2.002-4.472 4.472-4.472s4.472 2.002 4.472 4.472V935.4c0 2.47-2.002 4.472-4.472 4.472zm24.467.002c-2.47 0-4.472-2.003-4.472-4.473V220.143c0-2.47 2.002-4.472 4.472-4.472s4.472 2.002 4.472 4.472V935.4c0 2.47-2.002 4.473-4.472 4.473z" class="L"/></g><path d="M998.065 978.74v-2.04c2.176-7.275 8.975-11.354 8.975-16.93 0-2.584-1.3-3.875-2.957-3.875-1.937 0-3.366 1.496-3.57 5.166h-2.243c.27-5.574 2.788-7.207 5.745-7.207 3.23 0 5.474 2.176 5.474 6.256 0 6.12-5.508 8.023-9.18 16.6h9.314v2.04h-11.56zm18.97.34c-4.012 0-5.915-3.74-5.915-12.613s1.903-12.613 5.915-12.613 5.916 3.74 5.916 12.613-1.904 12.613-5.916 12.613zm0-23.186c-2.243 0-3.467 2.516-3.467 10.572s1.224 10.572 3.467 10.572 3.468-2.516 3.468-10.572-1.224-10.572-3.468-10.572zm7.752 22.846v-2.04h2.992v-19.717l-3.06.27v-1.496c1.395-.34 2.754-.95 3.876-1.904h1.632V976.7h2.855v2.04h-8.295zm10.132-24.547h11.015v1.293l-7.14 23.254h-2.583l7.14-22.506h-8.43v-2.04z" opacity=".6" class="M"/><path d="M34.16 978.74v-2.04h2.992v-19.717l-3.06.27v-1.496c1.394-.34 2.754-.95 3.875-1.904H39.6V976.7h2.856v2.04H34.16zm12.648-4.557c.34 2.45 1.7 2.855 2.652 2.855 2.176 0 3.535-3 3.604-9.824-.986 1.055-2.312 1.87-3.774 1.87-2.753 0-5.27-1.97-5.27-7.547 0-4.76 2.04-7.684 5.27-7.684 4.25 0 6.3 2.45 6.3 11.287 0 9.86-2.312 13.94-6.187 13.94-3.162 0-4.352-1.904-4.827-4.76l2.244-.137zm6.323-11.56c0-4.963-1.292-6.73-3.468-6.73-1.904 0-3.196 1.428-3.196 5.678 0 4.385 1.496 5.473 3.06 5.473s2.788-1.02 3.604-2.107v-2.312zm4.216-8.43h11.015v1.293l-7.14 23.254H58.64l7.14-22.506h-8.432v-2.04zm20.875 4.557c-.34-2.447-1.7-2.855-2.652-2.855-2.176 0-3.536 3-3.604 9.824.986-1.053 2.312-1.87 3.773-1.87 2.754 0 5.27 1.97 5.27 7.547 0 4.76-2.04 7.684-5.27 7.684-4.25 0-6.3-2.447-6.3-11.287 0-9.86 2.312-13.94 6.188-13.94 3.162 0 4.352 1.904 4.828 4.76l-2.244.137zM71.9 970.3c0 4.963 1.3 6.73 3.467 6.73 1.904 0 3.196-1.428 3.196-5.676 0-4.387-1.496-5.475-3.06-5.475s-2.788 1.02-3.604 2.107v2.313z" opacity=".6" class="M"/><path d="M33.856 939.94h1012.08" fill="none" stroke="#fff" stroke-width="1.806" class="N"/><g opacity=".9" class="M"><path d="M37.74 220.158c.068 2.313.748 4.114 2.788 4.7v-9.994c-2.482-1.666-5.03-3.468-5.03-6.766 0-3.094 2.074-5.37 5.03-5.745v-3.264h1.7v3.264c3.332.476 5.065 3.094 5.167 6.527h-2.448c-.102-1.87-.884-3.9-2.72-4.487v8.67c2.618 1.768 5.576 3.706 5.576 7.75 0 3.502-2.244 5.78-5.576 6.086v3.943h-1.7V226.9c-3.4-.5-5.235-3.162-5.235-6.732h2.448zm2.788-15.773c-1.564.34-2.584 1.7-2.584 3.434 0 1.768 1.122 2.957 2.584 4.045v-7.48zm1.7 20.465c1.938-.17 3.128-1.732 3.128-3.943 0-2.14-1.394-3.57-3.128-4.895v8.838zm8.432 2.05v-2.04h2.992v-19.717l-3.06.27v-1.496c1.394-.34 2.754-.95 3.875-1.904H56.1v22.846h2.856v2.04H50.66zm14.653-3.206v3.4L63.273 232h-1.02l1.564-5.1h-1.36v-3.196h2.856z"/><use xlink:href="#K"/><use xlink:href="#K" x="13.056"/><use xlink:href="#K" x="26.111"/></g><path d="M82.87 595.992H40.828c-3.795 0-6.872-3.077-6.872-6.872v-25.55c0-3.795 3.077-6.872 6.872-6.872H82.87c3.795 0 6.872 3.077 6.872 6.872v25.55c0 3.795-3.077 6.872-6.872 6.872z" opacity=".7" fill="#939d8f"/><g opacity=".9" class="M"><path d="M37.74 581.22c.068 2.312.748 4.113 2.788 4.7v-9.995c-2.482-1.666-5.03-3.468-5.03-6.766 0-3.093 2.074-5.37 5.03-5.745v-3.264h1.7v3.264c3.332.477 5.065 3.094 5.167 6.527h-2.448c-.102-1.87-.884-3.9-2.72-4.487v8.67c2.618 1.768 5.576 3.706 5.576 7.75 0 3.502-2.244 5.78-5.576 6.086v3.943h-1.7v-3.943c-3.4-.5-5.235-3.162-5.235-6.73h2.448zm2.788-15.774c-1.564.34-2.584 1.7-2.584 3.434 0 1.768 1.122 2.958 2.584 4.046v-7.48zm1.7 20.466c1.938-.17 3.128-1.733 3.128-3.943 0-2.142-1.394-3.57-3.128-4.896v8.84zm8.975-3.672c.204 1.77.952 4.012 3.128 4.012 2.107 0 3.67-2.176 3.67-6.425 0-4.6-1.564-6.018-3.366-6.018-1.394 0-2.686 1.054-3.094 2.38l-1.903-.34.815-12.443H59.1l-.204 2.04h-6.46l-.476 7.48c.85-.714 2.006-1.156 3.264-1.156 2.855 0 5.235 2.65 5.235 8 0 5.6-2.72 8.533-5.983 8.533-3.536 0-5.303-2.65-5.507-5.848l2.244-.204z"/><use xlink:href="#L"/><use xlink:href="#L" x="13.054"/></g><path d="M95.303 578.056h950.833M115.303 216.94h930.753" opacity=".7" fill="none" stroke="#fff" stroke-width="2" stroke-dasharray="2,6" class="N"/><g opacity=".5" class="M"><path d="M42.328 1046.045c-3.568 0-5.47-1.97-5.503-2.002 0 .935-.7 1.4-1.468 1.4-.7 0-1.4-.467-1.4-1.4v-20.88a1.35 1.35 0 0 1 1.401-1.434c.767 0 1.468.467 1.468 1.4v6.238c1.334-1.368 3.168-2.17 5.503-2.17 5.37 0 8.373 4.403 8.373 9.406 0 5.037-3.002 9.44-8.373 9.44zm0-16c-3.335 0-5.503 2.602-5.503 6.57 0 4.003 2.168 6.604 5.503 6.604s5.504-2.602 5.504-6.604c0-3.97-2.168-6.57-5.504-6.57zm25.555 8.037h-12.34c.467 3.136 2.468 5.137 5.403 5.137 1.5 0 3.002-.533 3.97-1.734.3-.333.634-.533 1.034-.533.734 0 1.5.667 1.5 1.468 0 .4-.1.7-.8 1.4-1.5 1.468-3.57 2.235-5.704 2.235-5.37 0-8.372-4.437-8.372-9.44 0-4.97 3.002-9.406 8.372-9.406 5.437 0 8.34 4.437 8.34 9.406 0 .734-.534 1.468-1.4 1.468zm-6.937-8.038c-3.136 0-4.97 2.3-5.403 5.17H66.35c-.467-3.202-2.468-5.17-5.403-5.17zM88 1045.478c-1.834 0-2.668-1.3-2.97-1.9-1.334 1.468-3.27 2.47-5.87 2.47-5.437 0-8.372-4.47-8.372-9.44s3.002-9.406 8.372-9.406c2.335 0 4.203.834 5.504 2.202v-.134c0-.367.133-1.5 1.4-1.5.7 0 1.468.367 1.468 1.4v12.875c0 .434.3.6.467.6.935 0 1.435.667 1.435 1.434a1.37 1.37 0 0 1-1.435 1.401zm-8.84-15.443c-3.336 0-5.504 2.602-5.504 6.57 0 4.003 2.168 6.604 5.504 6.604 3.37 0 5.504-2.602 5.504-6.604 0-3.97-2.135-6.57-5.504-6.57z"/><use xlink:href="#M"/><path d="M115.158 1045.478h-.567c-3.17 0-4.37-1.668-4.37-4.403V1030.6h-1c-.8 0-1.435-.634-1.435-1.4 0-.8.634-1.435 1.4-1.435h1v-4.637c0-.934.7-1.4 1.435-1.4s1.4.467 1.4 1.4v4.637h2.135c.934 0 1.4.768 1.4 1.4 0 .8-.533 1.434-1.4 1.434h-2.135v10.774c0 .934.333 1.268 1.268 1.268h.833c.868 0 1.435.634 1.435 1.4 0 .8-.533 1.435-1.4 1.435zm4.604-20.415a2.402 2.402 0 1 1 0-4.803 2.402 2.402 0 1 1 0 4.803zm0 20.414c-.733 0-1.467-.5-1.467-1.4V1029.2c0-.935.733-1.435 1.467-1.435a1.37 1.37 0 0 1 1.401 1.435v14.876c0 .935-.7 1.4-1.4 1.4zm10.376-14.877h-1.5v13.442c0 .935-.7 1.4-1.468 1.4-.7 0-1.4-.467-1.4-1.4V1030.6h-1.37c-.9 0-1.4-.667-1.4-1.4 0-.768.5-1.435 1.4-1.435h1.367v-2.27c0-2.135 1.77-3.77 3.836-3.77.968 0 1.468.667 1.468 1.434 0 .7-.5 1.4-1.468 1.4-.566 0-.967.434-.967.9v2.302h1.5c.967 0 1.468.667 1.468 1.435 0 .733-.5 1.4-1.468 1.4z"/><use xlink:href="#M" x="42.068"/><path d="M154.725 1045.544c-1.802 0-3.336-1.534-3.336-3.402v-18.98c0-.967.7-1.434 1.435-1.434s1.435.467 1.435 1.4v19.013c0 .4.3.567.467.567.934 0 1.435.667 1.435 1.435 0 .733-.5 1.4-1.435 1.4zm15.37-.066v-1.264c1.886-.237 2.046-.437 2.046-3.157v-6.7c0-2.8-1.248-4.017-3.064-4.017-1.237 0-2.345.6-3.47 1.493v9.476c0 2.527.187 2.658 2.06 2.896v1.264h-8.968v-1.264c2.254-.33 2.5-.4 2.5-3v-8.2c0-2.446-.303-2.565-2.185-2.922v-1.184c2.173-.292 4.63-.807 6.653-1.533l-.052 2.95 2.6-1.745c1.16-.713 2-1.086 3.16-1.086 3.194 0 5.2 2.338 5.2 6.3v7.5c0 2.54.237 2.657 2.277 2.92v1.264h-8.74zm23.9-3.703c-2.458 3.427-5.488 4.178-7.014 4.178-5.142 0-8.124-3.936-8.124-8.594 0-2.745 1.183-5.396 2.832-7.062 1.74-1.8 3.945-2.814 6.082-2.814 3.73 0 6.396 3.126 6.37 6.347-.014.715-.08 1.277-.612 1.4-.767.184-6.17.5-10.318.647.062 4.587 2.717 6.74 5.556 6.74 1.572 0 3.104-.597 4.543-1.866l.686 1.014zm-7.07-12.7c-1.667 0-3.167 1.807-3.516 4.963l5.486-.118c.6-.026.848-.146.848-.792.04-2.022-1.037-4.053-2.818-4.053zm34.284.145c-1.943.343-2.248.624-3.105 2.765-1.33 3.462-3.102 8.53-4.934 13.94h-1.512l-4.65-11.46-4.55 11.46h-1.472l-4.685-14.192c-.687-1.985-.94-2.274-2.855-2.512v-1.25h9.397v1.25c-2.325.345-2.535.672-2.058 2.133l2.52 8.214c1.507-3.68 2.988-7.62 4.327-11.424h1.456c1.4 3.76 2.986 7.702 4.573 11.568.742-2.107 2.062-5.964 2.557-8.108.412-1.674-.008-2.078-2.753-2.383v-1.25h7.742v1.25zm9.4 3.746c-.92-2.606-2.155-3.984-4.2-3.984-1.206 0-2.225.86-2.225 2.266 0 1.497 1.046 2.264 3.16 3.216 3.278 1.496 5.3 2.787 5.3 5.736 0 3.85-3.6 5.764-6.945 5.764-2.06 0-4.088-.737-4.92-1.16l-.662-4.892 1.252-.224c.8 2.5 2.33 4.75 4.976 4.75 1.505 0 2.438-.952 2.438-2.28 0-1.423-.76-2.333-3.092-3.467-2.67-1.295-5.107-2.64-5.107-5.775 0-3.046 2.533-5.42 6.565-5.42 1.818 0 3.242.396 4.112.567l.62 4.577-1.25.328z"/></g><g opacity=".5" class="M"><use xlink:href="#N"/><path d="M822.784 1046.318c-3.22 0-5.02-2.64-5.02-5.66 0-3 1.8-5.64 5.02-5.64s5.02 2.64 5.02 5.64c0 3.02-1.8 5.66-5.02 5.66zm0-10.162c-2.36 0-3.88 1.9-3.88 4.5s1.52 4.52 3.88 4.52c2.38 0 3.88-1.92 3.88-4.52s-1.5-4.5-3.88-4.5zm15.78 9.822c-.28 0-.58-.2-.58-.56v-.64c-.84.98-2.06 1.54-3.42 1.54-2.48 0-4.56-2.08-4.56-4.56v-5.842c0-.36.3-.56.58-.56.26 0 .56.2.56.56v5.842c0 1.9 1.52 3.42 3.42 3.42s3.42-1.52 3.42-3.42v-5.842c0-.36.3-.56.58-.56.26 0 .56.2.56.56v9.502c0 .36-.3.56-.56.56zm7.96-9.642a3.42 3.42 0 0 0-3.421 3.42v5.66c0 .36-.3.56-.56.56-.28 0-.58-.2-.58-.56v-9.502c0-.36.3-.56.58-.56.26 0 .56.2.56.56v.82c.9-.98 2.08-1.54 3.42-1.54.36 0 .58.3.58.56a.58.58 0 0 1-.58.581zm10.18 8.46c-.88.98-2.1 1.52-3.58 1.52-3.22 0-5.02-2.64-5.02-5.66 0-3 1.8-5.64 5.02-5.64 1.48 0 2.7.54 3.58 1.52a.53.53 0 0 1 .16.381.63.63 0 0 1-.58.6c-.14 0-.28-.06-.42-.2-.66-.74-1.58-1.16-2.74-1.16-2.36 0-3.88 1.9-3.88 4.5s1.52 4.52 3.88 4.52c1.16 0 2.08-.44 2.74-1.16.14-.14.28-.2.42-.2.3 0 .58.26.58.58a.57.57 0 0 1-.16.399zm11.58-3.56h-8.302c.18 2.28 1.66 3.94 3.84 3.94 1.08 0 2.36-.48 2.94-1.38.14-.22.3-.28.48-.28.3 0 .62.24.62.54 0 .18 0 .22-.38.66-.92 1.08-2.26 1.6-3.66 1.6-3.22 0-5.02-2.64-5.02-5.66 0-3 1.8-5.64 5.02-5.64s5.02 2.66 5.02 5.64c0 .3-.28.58-.56.58zm-4.46-5.08c-2.4 0-3.66 1.84-3.84 3.94h7.7c-.18-2.28-1.66-3.94-3.86-3.94z"/><use xlink:href="#N" x="62.5"/><path d="M881.763 1039.416c-.64 0-1.16-.5-1.16-1.14s.52-1.14 1.16-1.14c.62 0 1.12.5 1.12 1.14s-.5 1.14-1.12 1.14zm0 6.562c-.64 0-1.16-.5-1.16-1.14s.52-1.14 1.16-1.14c.62 0 1.12.5 1.12 1.14s-.5 1.14-1.12 1.14zm14.22.34c-4.4 0-5.82-3.7-5.82-7.46 0-3.74 1.42-7.482 5.82-7.482 1.8 0 3.38.64 4.44 2.18.1.1.12.2.12.32 0 .32-.3.56-.62.56-.28 0-.44-.24-.66-.52-.7-.9-1.76-1.4-3.28-1.4-3.02 0-4.682 2.32-4.682 6.342 0 3.04.96 6.32 4.682 6.32 3.16 0 4.54-2.42 4.68-5.74h-2.44a.57.57 0 0 1-.6-.58c0-.28.2-.58.56-.58h3.04c.34 0 .58.24.58.58 0 3.9-1.54 7.46-5.82 7.46z"/><use xlink:href="#O"/><path d="M916.204 1036.136l-3.94 9.382c-.12.26-.3.46-.56.46s-.46-.2-.58-.46l-3.94-9.362c-.04-.1-.04-.18-.04-.26 0-.32.28-.54.58-.54.18 0 .4.08.5.34l3.48 8.222 3.46-8.222c.12-.26.32-.36.52-.36.3 0 .58.22.58.54 0 .06 0 .16-.06.26z"/><use xlink:href="#O" x="14.14"/><path d="M930.743 1045.978c-.28 0-.58-.2-.58-.56v-5.84c0-1.9-1.52-3.42-3.42-3.42a3.42 3.42 0 0 0-3.421 3.421v5.84c0 .36-.3.56-.56.56-.28 0-.58-.2-.58-.56v-9.502c0-.36.3-.56.58-.56.26 0 .56.2.56.56v.64c.9-.98 2.08-1.54 3.42-1.54a4.6 4.6 0 0 1 4.561 4.561v5.84c0 .36-.3.56-.56.56zm7.78 4.56c-1.7 0-4.102-.64-4.102-1.36 0-.32.26-.64.58-.64.22 0 .68.34 1.06.48.52.18 1.34.38 2.46.38 2.56 0 3.88-1.26 3.88-3.72v-1.4c-.88 1.06-2.14 1.7-3.88 1.7-3.16 0-5.02-2.24-5.02-5.32 0-3 1.8-5.64 5.02-5.64 1.74 0 3.04.72 3.88 1.88v-.96c0-.36.3-.56.58-.56.26 0 .56.2.56.56v9.742c0 3.18-1.9 4.86-5.02 4.86zm0-14.383c-2.36 0-3.88 1.9-3.88 4.5 0 2.58 1.42 4.18 3.88 4.18s3.88-1.6 3.88-4.18c0-2.6-1.5-4.5-3.88-4.5zm17.66 10.183a5.01 5.01 0 0 1-5.02-5.02v-9.02c0-.36.3-.56.58-.56s.58.2.58.56v9.02c0 2.12 1.74 3.88 3.86 3.88s3.88-1.76 3.88-3.88v-9.02c0-.36.3-.56.58-.56.26 0 .56.2.56.56v9.02a5.01 5.01 0 0 1-5.02 5.02zm11.9-.02c-1.54 0-3.64-.62-4.78-1.76a.52.52 0 0 1-.18-.4.61.61 0 0 1 .58-.58c.24 0 .22.06.64.38 1.06.78 2.38 1.22 3.74 1.22 2.52 0 3.98-.94 3.98-2.74 0-4.74-8.462-2.1-8.462-7.562 0-2.4 2.1-3.5 4.68-3.5 1.44 0 3.46.62 4.36 1.88.08.12.12.22.12.34 0 .32-.28.56-.6.56-.28 0-.28-.08-.62-.42-.84-.84-2.08-1.22-3.26-1.22-2.38 0-3.54.92-3.54 2.36 0 4.3 8.462 1.8 8.462 7.562 0 2.78-2.44 3.88-5.12 3.88zm17.42-.34c-.2 0-.42-.12-.52-.34l-1.28-3.08h-7.2l-1.28 3.08c-.08.22-.32.34-.5.34-.3 0-.58-.22-.58-.54 0-.1 0-.16.04-.26l5.4-13.104a.63.63 0 0 1 .58-.38c.2 0 .38.12.48.38l5.4 13.104c.04.1.04.16.04.26 0 .32-.28.54-.58.54zm-5.4-12.183l-3.14 7.622h6.3l-3.16-7.622zm8.516 13.963c-.08.06-.2.08-.3.08-.32 0-.54-.28-.54-.58 0-.56.86-.64 1-1.28-.6-.04-1.08-.54-1.08-1.14a1.16 1.16 0 0 1 1.16-1.16c.98 0 1.2 1 1.2 1.62 0 .98-.52 1.92-1.44 2.46zm14.663-1.44c-4.3 0-5.82-3.56-5.82-7.46 0-3.92 1.52-7.482 5.82-7.482 4.28 0 5.82 3.562 5.82 7.482 0 3.9-1.54 7.46-5.82 7.46zm0-13.803c-3.32 0-4.682 2.6-4.682 6.342 0 3.72 1.36 6.32 4.682 6.32 3.3 0 4.68-2.6 4.68-6.32 0-3.74-1.38-6.342-4.68-6.342zm17.78 13.463h-8.882c-.3 0-.58-.28-.58-.56v-13.122c0-.3.28-.56.58-.56h8.882a.55.55 0 0 1 .58.561.55.55 0 0 1-.58.56h-8.32v4.92h6.1a.55.55 0 0 1 .58.561c0 .28-.2.58-.56.58h-6.12v5.92h8.32c.38 0 .58.3.58.58a.55.55 0 0 1-.58.561zm12.216-1.84c-.98 1.36-2.38 2.18-4.46 2.18-4.3 0-5.82-3.56-5.82-7.46 0-3.92 1.52-7.482 5.82-7.482 2.02 0 3.5.8 4.44 2.18.1.1.12.2.12.32 0 .32-.3.56-.62.56a.53.53 0 0 1-.44-.22c-.72-1.04-1.8-1.7-3.5-1.7-3.32 0-4.682 2.6-4.682 6.342 0 3.72 1.36 6.32 4.682 6.32 1.7 0 2.8-.64 3.54-1.7.1-.2.28-.26.44-.26.3 0 .6.26.6.58 0 .1-.04.22-.12.34zm7.298 1.84h-4.44c-.3 0-.58-.28-.58-.56v-13.122c0-.3.28-.56.58-.56h4.44c4.12 0 5.48 3.44 5.48 7.102 0 3.72-1.36 7.142-5.48 7.142zm0-13.123h-3.88v11.982h3.88c3.42 0 4.34-2.96 4.34-5.98 0-3.562-1.24-6.002-4.34-6.002z"/></g><g class="M"><path d="M62.02 42.38h-9.96v35.1c0 1.62-1.2 2.52-2.52 2.52-1.26 0-2.58-.9-2.58-2.52v-35.1h-9.84c-1.74 0-2.64-1.32-2.64-2.58 0-1.2.9-2.52 2.58-2.52h24.96c1.68 0 2.58 1.32 2.58 2.52 0 1.26-.9 2.58-2.58 2.58zM91.778 80c-1.32 0-2.52-.9-2.52-2.52V60.8c0-4.68-3.9-8.58-8.58-8.58-4.62 0-8.52 3.9-8.52 8.58v16.62c0 1.68-1.26 2.64-2.64 2.64-1.26 0-2.52-.9-2.52-2.58V39.862c0-1.74 1.26-2.58 2.52-2.58 1.38 0 2.64.84 2.64 2.52v10.38c2.22-2.1 5.22-3.06 8.52-3.06 7.44 0 13.68 6.18 13.68 13.68v16.62c0 1.68-1.2 2.58-2.58 2.58z"/><use xlink:href="#P"/><path d="M175.176 80c-.9 0-1.8-.48-2.28-1.56l-3.18-7.8h-19.98l-3.24 7.8c-.48 1.08-1.38 1.56-2.22 1.56-1.32 0-2.7-1.02-2.7-2.52 0-.36.06-.72.24-1.02l15.42-37.498c.72-1.56 1.68-1.86 2.46-1.86.54 0 1.86.3 2.46 1.86l15.48 37.498a2.81 2.81 0 0 1 .18 1.02c0 1.5-1.26 2.52-2.64 2.52zm-15.48-33.6l-7.86 19.08h15.72l-7.86-19.08zm58.92 33.6c-1.26 0-2.52-.9-2.52-2.52v-18.9c0-3.48-2.88-6.36-6.3-6.36-3.54 0-6.36 2.88-6.36 6.3v18.9c0 1.68-1.2 2.58-2.58 2.58-1.32 0-2.52-.9-2.52-2.52v-18.9c0-3.48-2.88-6.36-6.36-6.36s-6.36 2.88-6.36 6.3v18.9c0 1.68-1.26 2.58-2.64 2.58-1.26 0-2.52-.9-2.52-2.52V50.662c0-1.74 1.32-2.58 2.64-2.58.84 0 1.68.36 2.16 1.14a11.56 11.56 0 0 1 6.66-2.1c3.6 0 6.84 1.62 8.94 4.26 2.1-2.64 5.28-4.26 8.88-4.26 6.36 0 11.52 5.1 11.52 11.4v18.9c0 1.68-1.26 2.58-2.64 2.58z"/><use xlink:href="#P" x="126.898"/><use xlink:href="#Q"/><path d="M279.756 43.282a4.32 4.32 0 1 1 0-8.64 4.32 4.32 0 1 1 0 8.64zm0 36.72c-1.32 0-2.64-.9-2.64-2.52V50.72c0-1.68 1.32-2.58 2.64-2.58 1.26 0 2.52.9 2.52 2.58v26.76c0 1.68-1.26 2.52-2.52 2.52zm33.298-3.542c-2.64 2.94-6.3 4.56-10.74 4.56-9.66 0-15.06-7.92-15.06-16.98 0-9 5.4-16.92 15.06-16.92 4.44 0 8.1 1.62 10.74 4.56.48.54.72 1.14.72 1.74 0 1.32-1.32 2.58-2.7 2.58-.54 0-1.2-.24-1.86-.84-1.68-1.86-3.9-2.94-6.9-2.94-6 0-9.9 4.68-9.9 11.82 0 7.2 3.9 11.88 9.9 11.88 3 0 5.28-1.14 6.9-2.94.54-.66 1.26-.9 1.86-.9 1.38 0 2.7 1.2 2.7 2.64 0 .54-.24 1.2-.72 1.74zm34.38 3.54c-3.3 0-4.8-2.34-5.34-3.42-2.4 2.64-5.88 4.44-10.56 4.44-9.78 0-15.06-8.04-15.06-16.98s5.4-16.92 15.06-16.92c4.2 0 7.56 1.5 9.9 3.96v-.24c0-.66.24-2.7 2.52-2.7 1.26 0 2.64.66 2.64 2.52v23.16c0 .78.54 1.08.84 1.08 1.68 0 2.58 1.2 2.58 2.58 0 1.26-.9 2.52-2.58 2.52zm-15.9-27.78c-6 0-9.9 4.68-9.9 11.82 0 7.2 3.9 11.88 9.9 11.88 6.06 0 9.9-4.68 9.9-11.88 0-7.14-3.84-11.82-9.9-11.82z"/><use xlink:href="#R"/><path d="M416.432 61.52h-12.84v15.9c0 1.56-1.2 2.58-2.52 2.58-1.44 0-2.64-.96-2.64-2.52V39.862c0-1.08.72-2.58 2.52-2.58h15.54c5.28 0 12.06 4.14 12.06 12.06 0 6.78-5.4 12.18-12.12 12.18zm0-19.14h-12.84v14.04h12.78a6.99 6.99 0 0 0 7.02-7.02c0-3.9-3.12-7.02-6.96-7.02z"/><use xlink:href="#P" x="332.692"/><use xlink:href="#S"/><path d="M513.93 81.02c-4.2 0-7.5-1.44-9.9-3.96v13.02c0 1.68-1.26 2.58-2.64 2.58-1.26 0-2.52-.9-2.52-2.58V50.72c0-1.68 1.26-2.58 2.52-2.58 1.38 0 2.64.9 2.64 2.58 0 0 3.54-3.66 9.9-3.66 9.66 0 15.06 7.92 15.06 16.92 0 9.12-5.4 17.04-15.06 17.04zm0-28.858c-5.94 0-9.9 4.74-9.9 11.82 0 7.2 3.9 11.94 9.9 11.94s9.9-4.68 9.9-11.88c0-7.14-3.9-11.88-9.9-11.88zm25.44 27.958c-3.24 0-6-2.76-6-6.12V39.86c0-1.74 1.26-2.58 2.58-2.58s2.58.84 2.58 2.52V74c0 .72.54 1.02.84 1.02 1.68 0 2.58 1.2 2.58 2.58 0 1.32-.9 2.52-2.58 2.52zm31.8-13.44h-22.2c.84 5.64 4.44 9.24 9.72 9.24 2.7 0 5.4-.96 7.14-3.12.54-.6 1.14-.96 1.86-.96 1.32 0 2.7 1.2 2.7 2.64 0 .72-.18 1.26-1.44 2.52-2.7 2.64-6.42 4.02-10.26 4.02-9.66 0-15.06-7.98-15.06-16.98 0-8.94 5.4-16.92 15.06-16.92 9.78 0 15 7.98 15 16.92 0 1.32-.96 2.64-2.52 2.64zM558.7 52.22c-5.64 0-8.94 4.14-9.72 9.3h19.438c-.84-5.76-4.44-9.3-9.72-9.3zM620.248 80c-.9 0-1.8-.48-2.28-1.56l-3.18-7.8h-19.98l-3.24 7.8c-.48 1.08-1.38 1.56-2.22 1.56-1.32 0-2.7-1.02-2.7-2.52 0-.36.06-.72.24-1.02l15.42-37.498c.72-1.56 1.68-1.86 2.46-1.86.54 0 1.86.3 2.46 1.86l15.48 37.498a2.8 2.8 0 0 1 .18 1.02c0 1.5-1.26 2.52-2.64 2.52zm-15.48-33.6l-7.86 19.08h15.72l-7.86-19.08z"/><use xlink:href="#Q" x="365.935"/><use xlink:href="#T"/><path d="M712.874 40.642l-12.6 37.318c-.42 1.26-1.38 2.04-2.58 2.04-1.08 0-2.04-.78-2.52-2.04l-12.66-37.318c-.12-.3-.12-.66-.12-.9 0-1.56 1.32-2.46 2.58-2.46.96 0 1.98.54 2.4 1.74l10.32 30.42 10.38-30.42c.36-1.2 1.38-1.74 2.34-1.74 1.32 0 2.7.9 2.7 2.46 0 .24-.06.6-.24.9z"/><use xlink:href="#T" x="69.178"/><use xlink:href="#Q" x="483.879"/><path d="M789.253 51.742l-16.2 36.838c-1.2 2.76-3.84 4.02-6.6 4.02h-1.92c-1.74 0-2.52-1.26-2.52-2.64 0-1.26.78-2.52 2.52-2.52h1.86c.78 0 1.62-.12 1.98-.96l3.96-8.88-11.7-25.858c-.24-.42-.3-.78-.3-1.14 0-1.5 1.44-2.52 2.76-2.52.9 0 1.68.48 2.16 1.56l9.78 21.72 9.54-21.72c.48-1.08 1.38-1.5 2.22-1.5 1.38 0 2.76 1.02 2.76 2.46 0 .42-.06.72-.3 1.14zm31.02 29.278c-13.2 0-17.46-11.1-17.46-22.38 0-11.58 4.56-22.44 17.46-22.44 5.46 0 10.02 1.92 13.32 6.54.36.48.54 1.02.54 1.5 0 1.44-1.5 2.58-2.88 2.58-1.08 0-1.2-.48-2.16-1.56-1.92-2.34-4.5-3.9-8.82-3.9-9.24 0-12.3 7.86-12.3 17.28 0 8.22 2.22 17.28 12.3 17.28 7.32 0 11.7-5.22 12.12-13.86h-5.4c-1.74 0-2.64-1.26-2.64-2.58s.9-2.58 2.52-2.58h8.22c1.56 0 2.64 1.08 2.64 2.64-.24 11.22-4.74 21.48-17.46 21.48z"/><use xlink:href="#T" x="200.577"/><use xlink:href="#R" x="521.679"/><use xlink:href="#T" x="266.277"/><use xlink:href="#Q" x="680.977"/><use xlink:href="#S" x="492.582"/><path d="M1015.75 80.06c-1.14 0-2.28-.66-2.52-1.98-2.4 1.86-5.34 3-8.64 3-7.44 0-13.68-6.18-13.68-13.68V50.78c0-1.68 1.26-2.58 2.52-2.58 1.38 0 2.64.9 2.64 2.52V67.4c0 4.68 3.9 8.58 8.52 8.58 4.68 0 8.58-3.9 8.58-8.58V50.78c0-1.86 1.2-2.64 2.52-2.64 1.38 0 2.58.9 2.58 2.58v26.82c0 1.68-1.2 2.52-2.52 2.52zm18.662.96c-3.3 0-8.82-1.02-11.64-4.5-.36-.54-.54-1.08-.54-1.56 0-1.5 1.44-2.7 2.7-2.7.72 0 1.26.36 1.86 1.02 1.86 2.04 4.92 2.64 7.62 2.64 5.4 0 7.14-1.86 7.14-4.56 0-7.68-18.3-2.94-18.3-15.3 0-6.54 6.12-8.94 11.82-8.94 3.24 0 10.86 1.62 10.86 4.98 0 1.32-1.08 2.7-2.52 2.7-.54 0-1.38-.3-1.98-.78-1.62-1.38-3.96-1.8-6.36-1.8-4.98 0-6.72 1.86-6.72 3.84 0 7.14 18.36 2.52 18.36 15.3 0 7.08-5.94 9.66-12.3 9.66z"/></g><g opacity=".8" class="M"><path d="M45.057 128.608v6.23c0 .684-.57 1.102-1.102 1.102a1.07 1.07 0 0 1-1.064-1.102v-6.23c-2.773-.228-6.192-1.33-8.17-3.305-.266-.267-.342-.494-.342-.76a1.16 1.16 0 0 1 1.103-1.103c.455 0 .418.114 1.216.722 2.014 1.482 4.52 2.318 7.104 2.318 4.787 0 7.56-1.786 7.56-5.205 0-9.005-16.07-4-16.07-14.362 0-4.18 3.306-6.23 7.6-6.573V94.5c0-.76.532-1.14 1.064-1.14s1.102.38 1.102 1.14v5.85c2.62.2 5.9 1.368 7.4 3.496.15.228.228.418.228.646 0 .608-.532 1.063-1.14 1.063-.532 0-.532-.15-1.178-.798-1.596-1.596-3.95-2.317-6.193-2.317-4.52 0-6.725 1.748-6.725 4.483 0 8.17 16.07 3.42 16.07 14.362 0 4.863-3.913 7.028-8.473 7.332zm30.93-.608h-8.435c-.57 0-1.103-.532-1.103-1.063v-24.925c0-.57.532-1.063 1.103-1.063h8.435c7.827 0 10.4 6.535 10.4 13.487 0 7.067-2.583 13.564-10.4 13.564zm0-24.924h-7.37v22.758h7.37c6.497 0 8.245-5.623 8.245-11.36 0-6.763-2.356-11.397-8.245-11.397z"/><use xlink:href="#U"/><use xlink:href="#V"/><use xlink:href="#W"/><path d="M164.565 128h-1.178c-3 0-4.483-1.48-4.483-4.445V109.99h-1.937c-.684 0-1.063-.57-1.063-1.102 0-.494.38-1.063 1.063-1.063h1.938v-5.813c0-.684.57-1.063 1.103-1.063s1.063.38 1.063 1.063v5.813h3.495c.685 0 1.064.57 1.064 1.063 0 .532-.38 1.102-1.064 1.102h-3.495v13.564c0 1.86.532 2.28 2.317 2.28h1.178c.685 0 1.064.57 1.064 1.103 0 .493-.38 1.063-1.064 1.063z"/><use xlink:href="#X"/><path d="M207.426 128c-.53 0-1.102-.38-1.102-1.063v-1.9c-1.596 2.242-4.065 3.61-7.37 3.61-6.117 0-9.536-5.015-9.536-10.752 0-5.7 3.42-10.715 9.536-10.715 3.306 0 5.775 1.368 7.37 3.572v-8.74c0-.684.57-1.063 1.102-1.063.494 0 1.064.38 1.064 1.063v24.925c0 .684-.57 1.063-1.064 1.063zm-8.473-18.655c-4.483 0-7.37 3.61-7.37 8.55s2.888 8.587 7.37 8.587c4.52 0 7.37-3.647 7.37-8.587s-2.85-8.55-7.37-8.55z"/><use xlink:href="#Y"/><use xlink:href="#X" x="76.187"/><use xlink:href="#Z"/><use xlink:href="#Y" x="65.13"/><use xlink:href="#X" x="141.317"/><use xlink:href="#Z" x="65.13"/><path d="M349.734 128.722c-2.28 0-6.117-.798-7.447-3-.15-.23-.15-.418-.15-.57 0-.607.53-1.14 1.102-1.14.228 0 .607.19.836.532 1.367 1.67 3.8 2.014 5.66 2.014 3.686 0 5.547-1.216 5.547-3.686 0-5.737-12.462-2.698-12.462-10.297 0-3.837 3.837-5.32 7.295-5.32 1.976 0 5.015.685 6.535 2.204.228.228.342.494.342.722 0 .57-.57 1.14-1.178 1.14-.23 0-.494-.076-.722-.304-1.178-1.14-3.306-1.596-4.978-1.596-3.344 0-5.13 1.292-5.13 3.153 0 5.32 12.462 2.508 12.462 10.297 0 4.33-3.8 5.85-7.713 5.85z"/><use xlink:href="#U" x="270.289"/><use xlink:href="#V" x="270.289"/><use xlink:href="#Y" x="191.135"/><path d="M452.787 118.996H437.02c.342 4.332 3.153 7.485 7.295 7.485 2.052 0 4.483-.912 5.585-2.622.267-.418.57-.53.912-.53.57 0 1.178.455 1.178 1.025 0 .342 0 .418-.722 1.254-1.748 2.052-4.293 3.04-6.953 3.04-6.117 0-9.536-5.015-9.536-10.752 0-5.7 3.42-10.715 9.536-10.715s9.537 5.054 9.537 10.715c0 .57-.532 1.102-1.064 1.102zm-8.473-9.65c-4.56 0-6.953 3.495-7.295 7.485h14.628c-.342-4.332-3.153-7.485-7.333-7.485z"/><use xlink:href="#Z" x="191.135"/><path d="M494.32 109.345L484.023 133.7c-.76 1.786-2.317 2.28-4.065 2.28h-1.67c-.685 0-1.064-.57-1.064-1.102 0-.494.38-1.063 1.064-1.063h1.67c.836 0 1.7-.038 2.052-.912l2.166-5.167-7.864-18.4c-.076-.2-.076-.342-.076-.494 0-.607.53-1.025 1.102-1.025.342 0 .76.15.95.646l7.066 16.5 7-16.5c.2-.494.607-.646.988-.646.57 0 1.063.418 1.063 1.025 0 .152 0 .304-.076.494zm19.1 9.65h-15.768c.342 4.332 3.153 7.485 7.295 7.485 2.052 0 4.483-.912 5.585-2.622.267-.418.57-.53.912-.53.57 0 1.178.455 1.178 1.025 0 .342 0 .418-.722 1.254-1.748 2.052-4.293 3.04-6.953 3.04-6.117 0-9.536-5.015-9.536-10.752 0-5.7 3.42-10.715 9.536-10.715s9.537 5.054 9.537 10.715c0 .57-.532 1.102-1.064 1.102zm-8.473-9.65c-4.56 0-6.953 3.495-7.295 7.485H512.3c-.342-4.332-3.153-7.485-7.333-7.485z"/><use xlink:href="#W" x="384.283"/><use xlink:href="#Z" x="275.416"/></g><defs ><path id="D" d="M62.896 939.87c-2.47 0-4.472-2.002-4.472-4.472V525.59c0-2.47 2.002-4.472 4.472-4.472s4.472 2.002 4.472 4.472V935.4c0 2.47-2.002 4.472-4.472 4.472z"/><path id="E" d="M87.364 939.87c-2.47 0-4.472-2.002-4.472-4.472V523.045c0-2.47 2.002-4.472 4.472-4.472s4.472 2.002 4.472 4.472V935.4c0 2.47-2.002 4.472-4.472 4.472z"/><path id="F" d="M307.573 939.87c-2.47 0-4.472-2.002-4.472-4.472v-448c0-2.47 2.002-4.472 4.472-4.472s4.472 2.002 4.472 4.472v448c0 2.47-2.002 4.472-4.472 4.472z"/><path id="G" d="M332.04 939.87c-2.47 0-4.472-2.002-4.472-4.472v-458.17c0-2.47 2.002-4.472 4.472-4.472s4.472 2.002 4.472 4.472V935.4c0 2.47-2.002 4.472-4.472 4.472z"/><path id="H" d="M429.91 939.87c-2.47 0-4.472-2.002-4.472-4.472V472.137c0-2.47 2.002-4.472 4.472-4.472s4.472 2.002 4.472 4.472V935.4c0 2.47-2.002 4.472-4.472 4.472z"/><path id="I" d="M625.65 939.872c-2.47 0-4.472-2.003-4.472-4.473V243.052c0-2.47 2.002-4.472 4.472-4.472s4.472 2.002 4.472 4.472V935.4c0 2.47-2.002 4.473-4.472 4.473z"/><path id="J" d="M699.05 939.87c-2.47 0-4.472-2.002-4.472-4.472V288.87c0-2.47 2.002-4.472 4.472-4.472s4.472 2.002 4.472 4.472V935.4c0 2.47-2.002 4.472-4.472 4.472z"/><path id="K" d="M73.166 227.23c-4.012 0-5.916-3.74-5.916-12.613s1.904-12.613 5.916-12.613 5.915 3.74 5.915 12.613-1.903 12.613-5.915 12.613zm0-23.186c-2.244 0-3.468 2.516-3.468 10.572s1.224 10.573 3.468 10.573 3.468-2.517 3.468-10.573-1.224-10.572-3.468-10.572z"/><path id="L" d="M67.66 588.292c-4.012 0-5.916-3.74-5.916-12.613s1.904-12.612 5.916-12.612 5.916 3.74 5.916 12.612-1.904 12.613-5.916 12.613zm0-23.186c-2.244 0-3.468 2.516-3.468 10.572s1.224 10.573 3.468 10.573 3.467-2.516 3.467-10.573-1.224-10.572-3.467-10.572z"/><path id="M" d="M104.714 1045.51c-.633 0-1.267-.367-1.4-1.1-1.334 1.034-2.97 1.668-4.804 1.668-4.136 0-7.604-3.436-7.604-7.605v-9.24a1.37 1.37 0 0 1 1.4-1.435c.768 0 1.468.5 1.468 1.4v9.272c0 2.602 2.168 4.77 4.736 4.77 2.603 0 4.77-2.17 4.77-4.77v-9.24c0-1.034.667-1.468 1.4-1.468.768 0 1.435.5 1.435 1.435v14.9c0 .934-.667 1.4-1.4 1.4z"/><path id="N" d="M812.064 1046.358c-1.2 0-3.22-.42-3.92-1.58-.08-.12-.08-.22-.08-.3 0-.32.28-.6.58-.6.12 0 .32.1.44.28.72.88 2 1.06 2.98 1.06 1.94 0 2.92-.64 2.92-1.94 0-3.02-6.562-1.42-6.562-5.422 0-2.02 2.02-2.8 3.84-2.8 1.04 0 2.64.36 3.44 1.16.12.12.18.26.18.38a.65.65 0 0 1-.62.6.53.53 0 0 1-.38-.16c-.62-.6-1.74-.84-2.62-.84-1.76 0-2.7.68-2.7 1.66 0 2.8 6.562 1.32 6.562 5.422 0 2.28-2 3.08-4.06 3.08z"/><path id="O" d="M904.642 1033.435c-.64 0-1.14-.5-1.14-1.14s.5-1.14 1.14-1.14 1.14.5 1.14 1.14-.5 1.14-1.14 1.14zm0 12.543c-.28 0-.58-.18-.58-.56v-9.502c0-.36.28-.56.58-.56.26 0 .56.18.56.56v9.502c0 .36-.26.56-.56.56z"/><path id="P" d="M126.098 66.68h-22.2c.84 5.64 4.44 9.24 9.72 9.24 2.7 0 5.4-.96 7.14-3.12.54-.6 1.14-.96 1.86-.96 1.32 0 2.7 1.2 2.7 2.64 0 .72-.18 1.26-1.44 2.52-2.7 2.64-6.42 4.02-10.26 4.02-9.66 0-15.06-7.98-15.06-16.98 0-8.94 5.4-16.92 15.06-16.92 9.78 0 15 7.98 15 16.92 0 1.32-.96 2.64-2.52 2.64zm-12.48-14.46c-5.64 0-8.94 4.14-9.72 9.3h19.44c-.84-5.76-4.44-9.3-9.72-9.3z"/><path id="Q" d="M273.275 52.22c-4.62 0-8.52 3.9-8.52 8.58v16.62c0 1.68-1.26 2.58-2.64 2.58-1.26 0-2.52-.9-2.52-2.52V50.72c0-1.68 1.38-2.58 2.52-2.58 1.2 0 2.34.66 2.58 2.04 2.34-1.92 5.52-3.06 8.58-3.06 1.74 0 2.64 1.2 2.64 2.58 0 1.32-.9 2.52-2.64 2.52z"/><path id="R" d="M377.973 80c-1.32 0-2.52-.9-2.52-2.52V60.8c0-4.68-3.9-8.58-8.58-8.58-4.62 0-8.52 3.9-8.52 8.58v16.62c0 1.68-1.26 2.64-2.64 2.64-1.26 0-2.52-.9-2.52-2.58V50.662c0-1.74 1.26-2.52 2.52-2.52 1.2 0 2.28.66 2.58 1.98 2.34-1.86 5.28-3 8.58-3 7.44 0 13.68 6.18 13.68 13.68v16.62c0 1.68-1.2 2.58-2.58 2.58z"/><path id="S" d="M479.07 81.02c-9.66 0-15.06-7.92-15.06-16.98 0-9 5.4-16.92 15.06-16.92s15.06 7.92 15.06 16.92c0 9.06-5.4 16.98-15.06 16.98zm0-28.8c-6 0-9.9 4.68-9.9 11.82 0 7.2 3.9 11.88 9.9 11.88 6.06 0 9.9-4.68 9.9-11.88 0-7.14-3.84-11.82-9.9-11.82z"/><path id="T" d="M667.696 66.68h-22.2c.84 5.64 4.44 9.24 9.72 9.24 2.7 0 5.4-.96 7.14-3.12.54-.6 1.14-.96 1.86-.96 1.32 0 2.7 1.2 2.7 2.64 0 .72-.18 1.26-1.44 2.52-2.7 2.64-6.42 4.02-10.26 4.02-9.66 0-15.06-7.98-15.06-16.98 0-8.94 5.4-16.92 15.06-16.92 9.78 0 15 7.98 15 16.92 0 1.32-.96 2.64-2.52 2.64zm-12.48-14.46c-5.64 0-8.94 4.14-9.72 9.3h19.438c-.84-5.76-4.44-9.3-9.72-9.3z"/><path id="U" d="M99.053 128.646c-6.117 0-9.536-5.015-9.536-10.752 0-5.7 3.42-10.715 9.536-10.715s9.537 5.016 9.537 10.715c0 5.737-3.42 10.752-9.537 10.752zm0-19.3c-4.483 0-7.37 3.61-7.37 8.55s2.888 8.587 7.37 8.587c4.52 0 7.37-3.647 7.37-8.587s-2.85-8.55-7.37-8.55z"/><path id="V" d="M128.614 128c-.53 0-1.102-.38-1.102-1.063v-11.095a6.47 6.47 0 0 0-6.497-6.497c-3.57 0-6.497 2.888-6.497 6.497v11.095c0 .684-.57 1.063-1.063 1.063-.532 0-1.103-.38-1.103-1.063V108.89c0-.684.57-1.063 1.103-1.063.494 0 1.063.38 1.063 1.063v1.216c1.7-1.86 3.95-2.926 6.497-2.926 4.71 0 8.663 3.914 8.663 8.663v11.095c0 .684-.57 1.063-1.064 1.063z"/><path id="W" d="M153.81 128h-.038c-1.254 0-3.04-.684-3.762-2.964-1.596 2.242-4.065 3.61-7.37 3.61-6.193 0-9.536-5.09-9.536-10.752 0-5.737 3.42-10.715 9.536-10.715 3.306 0 5.775 1.368 7.37 3.572v-1.862c0-.607.494-1.063 1.102-1.063.532 0 1.064.38 1.064 1.063V124.2c0 2.432 2.735.912 2.735 2.736a1.04 1.04 0 0 1-1.102 1.063zm-11.17-18.655c-4.483 0-7.37 3.61-7.37 8.55s2.888 8.587 7.37 8.587c4.52 0 7.37-3.647 7.37-8.587s-2.85-8.55-7.37-8.55z"/><path id="X" d="M185.463 118.996h-15.768c.342 4.332 3.153 7.485 7.295 7.485 2.052 0 4.483-.912 5.585-2.622.267-.418.57-.53.912-.53.57 0 1.178.455 1.178 1.025 0 .342 0 .418-.722 1.254-1.748 2.052-4.293 3.04-6.953 3.04-6.117 0-9.536-5.015-9.536-10.752 0-5.7 3.42-10.715 9.536-10.715s9.537 5.054 9.537 10.715c0 .57-.532 1.102-1.064 1.102zm-8.473-9.65c-4.56 0-6.953 3.495-7.295 7.485h14.628c-.342-4.332-3.153-7.485-7.333-7.485z"/><path id="Y" d="M231.215 128.646c-3.306 0-5.775-1.367-7.37-3.61v9.84c0 .684-.57 1.102-1.063 1.102-.532 0-1.103-.418-1.103-1.102V108.89c0-.684.57-1.063 1.103-1.063.494 0 1.063.38 1.063 1.063v1.862c1.596-2.204 4.065-3.572 7.37-3.572 6.117 0 9.536 5.016 9.536 10.715 0 5.737-3.42 10.752-9.536 10.752zm0-19.3c-4.52 0-7.37 3.61-7.37 8.55s2.85 8.587 7.37 8.587 7.37-3.647 7.37-8.587-2.85-8.55-7.37-8.55z"/><path id="Z" d="M275.142 109.687c-3.57 0-6.497 2.888-6.497 6.497v10.753c0 .684-.57 1.063-1.063 1.063-.532 0-1.103-.38-1.103-1.063V108.89c0-.684.57-1.063 1.103-1.063.494 0 1.063.38 1.063 1.063v1.558c1.7-1.86 3.95-2.925 6.497-2.925.684 0 1.102.57 1.102 1.063 0 .532-.418 1.102-1.102 1.102z"/></defs></svg>