<svg xmlns="http://www.w3.org/2000/svg" xmlns:xlink="http://www.w3.org/1999/xlink" viewBox="0 0 1080 1080"><style><![CDATA[.X{opacity:.7}.Y{fill:#fff}]]></style><linearGradient id="A" gradientUnits="userSpaceOnUse" x1="1068.284" y1="11.716" x2="11.716" y2="1068.284"><stop offset="0" stop-color="#2bc0e4"/><stop offset=".145" stop-color="#40c5e1"/><stop offset=".446" stop-color="#77d2d8"/><stop offset=".874" stop-color="#cfe6ca"/><stop offset="1" stop-color="#eaecc6"/></linearGradient><path d="M1040 1080H40c-22.09 0-40-17.91-40-40V40C0 17.91 17.91 0 40 0h1000c22.09 0 40 17.91 40 40v1000c0 22.09-17.91 40-40 40z" fill="url(#A)"/><linearGradient id="B" gradientUnits="userSpaceOnUse" x1="172.664" y1="516.089" x2="172.664" y2="281.089"><stop offset="0" stop-color="#162666"/><stop offset=".072" stop-color="#18346c"/><stop offset=".387" stop-color="#1e6b85"/><stop offset=".657" stop-color="#229497"/><stop offset=".87" stop-color="#25ada2"/><stop offset="1" stop-color="#26b6a6"/></linearGradient><use xlink:href="#P" fill="url(#B)"/><linearGradient id="C" gradientUnits="userSpaceOnUse" x1="172.664" y1="516.089" x2="172.664" y2="281.089"><stop offset="0" stop-color="#188078"/><stop offset=".228" stop-color="#198976"/><stop offset=".604" stop-color="#1ca271"/><stop offset="1" stop-color="#20c36a"/></linearGradient><use xlink:href="#P" x="35.506" fill="url(#C)"/><linearGradient id="D" gradientUnits="userSpaceOnUse" x1="190.417" y1="516.089" x2="190.417" y2="287.221"><stop offset="0" stop-color="#041838"/><stop offset=".132" stop-color="#05213a"/><stop offset=".35" stop-color="#093a3f"/><stop offset=".626" stop-color="#0f6347"/><stop offset=".947" stop-color="#189a52"/><stop offset="1" stop-color="#19a454"/></linearGradient><path d="M189.967 287.22C139.396 324.2 131.423 516.09 70.67 516.09h239.495c-60.743 0-69.488-191.9-120.197-228.868z" fill="url(#D)"/><use xlink:href="#Q" fill="#0f0"/><use xlink:href="#P" x="341.321" fill="url(#B)"/><linearGradient id="E" gradientUnits="userSpaceOnUse" x1="172.665" y1="516.089" x2="172.665" y2="281.089"><stop offset="0" stop-color="#188078"/><stop offset=".228" stop-color="#198976"/><stop offset=".604" stop-color="#1ca271"/><stop offset="1" stop-color="#20c36a"/></linearGradient><use xlink:href="#P" x="365.826" fill="url(#E)"/><linearGradient id="F" gradientUnits="userSpaceOnUse" x1="526.238" y1="516.089" x2="526.238" y2="283.91"><stop offset="0" stop-color="#041838"/><stop offset=".132" stop-color="#05213a"/><stop offset=".35" stop-color="#093a3f"/><stop offset=".626" stop-color="#0f6347"/><stop offset=".947" stop-color="#189a52"/><stop offset="1" stop-color="#19a454"/></linearGradient><path d="M525.782 283.9c-55.57 26.562-61.902 232.178-124.79 232.178h250.495c-62.878 0-70.04-205.616-125.703-232.178z" fill="url(#F)"/><use xlink:href="#Q" x="333.284" fill="#0f0"/><use xlink:href="#P" x="719.96" fill="url(#B)"/><linearGradient id="G" gradientUnits="userSpaceOnUse" x1="172.663" y1="516.089" x2="172.663" y2="281.089"><stop offset="0" stop-color="#188078"/><stop offset=".228" stop-color="#198976"/><stop offset=".604" stop-color="#1ca271"/><stop offset="1" stop-color="#20c36a"/></linearGradient><use xlink:href="#P" x="735.466" fill="url(#G)"/><linearGradient id="H" gradientUnits="userSpaceOnUse" x1="900.377" y1="516.089" x2="900.377" y2="282.187"><stop offset="0" stop-color="#041838"/><stop offset=".132" stop-color="#05213a"/><stop offset=".35" stop-color="#093a3f"/><stop offset=".626" stop-color="#0f6347"/><stop offset=".947" stop-color="#189a52"/><stop offset="1" stop-color="#19a454"/></linearGradient><path d="M899.917 282.187c-59.773 17.302-64.742 233.9-129.288 233.9h259.495c-64.535 0-70.376-216.6-130.206-233.9z" fill="url(#H)"/><linearGradient id="I" gradientUnits="userSpaceOnUse" x1="172.664" y1="516.09" x2="172.664" y2="281.09"><stop offset="0" stop-color="#162666"/><stop offset=".072" stop-color="#18346c"/><stop offset=".387" stop-color="#1e6b85"/><stop offset=".657" stop-color="#229497"/><stop offset=".87" stop-color="#25ada2"/><stop offset="1" stop-color="#26b6a6"/></linearGradient><use xlink:href="#P" x="721.322" y="419.656" fill="url(#I)"/><linearGradient id="J" gradientUnits="userSpaceOnUse" x1="172.664" y1="516.09" x2="172.664" y2="281.09"><stop offset="0" stop-color="#188078"/><stop offset=".228" stop-color="#198976"/><stop offset=".604" stop-color="#1ca271"/><stop offset="1" stop-color="#20c36a"/></linearGradient><use xlink:href="#P" x="733.828" y="419.656" fill="url(#J)"/><linearGradient id="K" gradientUnits="userSpaceOnUse" x1="900.239" y1="935.746" x2="900.239" y2="701.455"><stop offset="0" stop-color="#041838"/><stop offset=".132" stop-color="#05213a"/><stop offset=".35" stop-color="#093a3f"/><stop offset=".626" stop-color="#0f6347"/><stop offset=".947" stop-color="#189a52"/><stop offset="1" stop-color="#19a454"/></linearGradient><path d="M899.78 701.455c-61.195 14.08-65.706 234.29-130.787 234.29h262.495c-65.07 0-70.47-220.2-131.707-234.29z" fill="url(#K)"/><linearGradient id="L" gradientUnits="userSpaceOnUse" x1="172.663" y1="516.09" x2="172.663" y2="281.09"><stop offset="0" stop-color="#162666"/><stop offset=".072" stop-color="#18346c"/><stop offset=".387" stop-color="#1e6b85"/><stop offset=".657" stop-color="#229497"/><stop offset=".87" stop-color="#25ada2"/><stop offset="1" stop-color="#26b6a6"/></linearGradient><use xlink:href="#P" x="349.651" y="419.656" fill="url(#L)"/><use xlink:href="#P" x="365.156" y="419.656" fill="url(#J)"/><linearGradient id="M" gradientUnits="userSpaceOnUse" x1="530.067" y1="935.746" x2="530.067" y2="701.845"><stop offset="0" stop-color="#041838"/><stop offset=".132" stop-color="#05213a"/><stop offset=".35" stop-color="#093a3f"/><stop offset=".626" stop-color="#0f6347"/><stop offset=".947" stop-color="#189a52"/><stop offset="1" stop-color="#19a454"/></linearGradient><path d="M529.608 701.845c-59.774 17.302-64.742 233.9-129.288 233.9h259.495c-64.535 0-70.376-216.6-130.206-233.9z" fill="url(#M)"/><use xlink:href="#P" x="3.166" y="419.656" fill="url(#L)"/><use xlink:href="#P" x="18.67" y="419.656" fill="url(#J)"/><linearGradient id="N" gradientUnits="userSpaceOnUse" x1="183.581" y1="935.746" x2="183.581" y2="701.845"><stop offset="0" stop-color="#041838"/><stop offset=".132" stop-color="#05213a"/><stop offset=".35" stop-color="#093a3f"/><stop offset=".626" stop-color="#0f6347"/><stop offset=".947" stop-color="#189a52"/><stop offset="1" stop-color="#19a454"/></linearGradient><path d="M183.122 701.845c-59.774 17.302-64.742 233.9-129.288 233.9H313.33c-64.535 0-70.376-216.6-130.206-233.9z" fill="url(#N)"/><g class="Y"><use xlink:href="#R" class="X"/><use xlink:href="#S" class="X"/><use xlink:href="#T" class="X"/><use xlink:href="#U" class="X"/><use xlink:href="#S" x="44.325" class="X"/><use xlink:href="#S" x="60.17" class="X"/><use xlink:href="#V" class="X"/><use xlink:href="#W"/><use xlink:href="#X"/><path d="M174.114 250.688c-.76 0-1.52-.44-1.68-1.32-1.6 1.24-3.56 2-5.76 2-4.96 0-9.118-4.12-9.118-9.118V231.17c0-1.12.84-1.72 1.68-1.72.92 0 1.76.6 1.76 1.68v11.118c0 3.12 2.6 5.72 5.68 5.72 3.12 0 5.72-2.6 5.72-5.72V231.17c0-1.24.8-1.76 1.68-1.76.92 0 1.72.6 1.72 1.72v17.877c0 1.12-.8 1.68-1.68 1.68z"/><use xlink:href="#Y"/><path d="M208.597 250.647h-.68c-3.8 0-5.24-2-5.24-5.28V232.81h-1.2c-.96 0-1.72-.76-1.72-1.68 0-.96.76-1.72 1.68-1.72h1.2v-5.56c0-1.12.84-1.68 1.72-1.68s1.68.56 1.68 1.68v5.56h2.56c1.12 0 1.68.92 1.68 1.68 0 .96-.64 1.72-1.68 1.72h-2.56v12.918c0 1.12.4 1.52 1.52 1.52h1c1.04 0 1.72.76 1.72 1.68 0 .96-.64 1.72-1.68 1.72z"/><use xlink:href="#Z"/><use xlink:href="#a"/><use xlink:href="#b"/><use xlink:href="#c"/><use xlink:href="#R" x="335.821" class="X"/><use xlink:href="#S" x="335.823" class="X"/><use xlink:href="#T" x="335.821" class="X"/><use xlink:href="#U" x="335.822" class="X"/><use xlink:href="#S" x="380.146" class="X"/><use xlink:href="#S" x="395.993" class="X"/><use xlink:href="#V" x="335.822" class="X"/><use xlink:href="#Z" x="246.805"/><use xlink:href="#b" x="238.118"/><path d="M495.353 250.728c-2.16 0-4-1.84-4-4.08v-22.757c0-1.16.84-1.72 1.72-1.72s1.72.56 1.72 1.68v22.797c0 .48.36.68.56.68 1.12 0 1.72.8 1.72 1.72 0 .88-.6 1.68-1.72 1.68z"/><use xlink:href="#a" x="275.238"/><path d="M515.992 259.766c-2.44 0-8.48-.88-8.48-3.28 0-.92.84-1.8 1.72-1.8.92 0 .12.12 2.24.92.96.36 2.4.76 4.52.76 4.44 0 6.6-2.12 6.6-6.318v-1.8c-1.56 1.48-3.8 2.4-6.6 2.4-6.32 0-10.038-4.48-10.038-10.64 0-6 3.6-11.277 10.038-11.277 2.8 0 4.96.84 6.6 2.56v-.16c0-1.12.92-1.72 1.72-1.72.84 0 1.72.6 1.72 1.72v18.917c0 6.358-3.8 9.718-10.038 9.718zm0-27.635c-4 0-6.6 3.12-6.6 7.878 0 4.56 2.4 7.24 6.6 7.24s6.6-2.68 6.6-7.24c0-4.76-2.56-7.878-6.6-7.878z"/><use xlink:href="#a" x="306.236"/><use xlink:href="#X" x="402.284"/><use xlink:href="#Y" x="380.314"/><use xlink:href="#c" x="328.675"/><use xlink:href="#R" x="713.06" class="X"/><use xlink:href="#S" x="713.062" class="X"/><use xlink:href="#T" x="713.06" class="X"/><use xlink:href="#U" x="713.06" class="X"/><use xlink:href="#S" x="757.385" class="X"/><use xlink:href="#S" x="773.23" class="X"/><use xlink:href="#V" x="713.061" class="X"/><use xlink:href="#Z" x="608.142"/><use xlink:href="#a" x="607.341"/><use xlink:href="#W" x="722.061"/><path d="M873.374 250.647c-.88 0-1.68-.6-1.68-1.68V237.85c0-3.12-2.6-5.72-5.72-5.72-3.08 0-5.68 2.6-5.68 5.72v11.078c0 1.12-.84 1.76-1.76 1.76-.84 0-1.68-.6-1.68-1.72v-25.076a1.62 1.62 0 0 1 1.68-1.72c.92 0 1.76.56 1.76 1.68v6.92c1.48-1.4 3.48-2.04 5.68-2.04 4.96 0 9.118 4.12 9.118 9.118v11.078c0 1.12-.8 1.72-1.72 1.72zm31.6.04c-.4 0-.8-.12-1.16-.56l-2.88-2.88-1.52 1.52a8.48 8.48 0 0 1-6.118 2.56c-4.68 0-8.56-3.8-8.56-8.52a8.5 8.5 0 0 1 4.28-7.438l-.8-.8c-1.6-1.6-2.48-3.24-2.48-5.6 0-4.12 3.4-7.52 7.52-7.52 5.358 0 7.798 5.12 7.798 5.64 0 .96-.92 1.72-1.8 1.72-1.6 0-2.56-3.92-6-3.92-2.24 0-4.08 1.76-4.08 4.08 0 1.28.4 2.08 1.44 3.12l10.318 10.318 2.76-2.76c.44-.36.8-.6 1.2-.6.92 0 1.72.84 1.72 1.8 0 .4-.12.88-.48 1.24l-2.8 2.72 2.88 2.92c.36.36.56.76.56 1.2 0 .96-.88 1.76-1.8 1.76zm-13.358-12.718a5.06 5.06 0 0 0-3.438 4.799c0 2.76 2.32 5.16 5.08 5.16 1.44 0 2.72-.56 3.6-1.48l1.64-1.64-6.88-6.84zm34.04 13.357c-2.8 0-5-.96-6.6-2.64v8.68c0 1.12-.84 1.72-1.76 1.72-.84 0-1.68-.6-1.68-1.72V231.13c0-1.12.84-1.72 1.68-1.72.92 0 1.76.6 1.76 1.72 0 0 2.36-2.44 6.6-2.44 6.438 0 10.038 5.28 10.038 11.278 0 6.078-3.6 11.357-10.038 11.357zm0-19.236c-3.96 0-6.6 3.16-6.6 7.88 0 4.8 2.6 7.958 6.6 7.958s6.6-3.12 6.6-7.92c0-4.76-2.6-7.918-6.6-7.918z"/><use xlink:href="#X" x="802.458"/><use xlink:href="#X" x="823.978"/><use xlink:href="#Z" x="768.818"/><use xlink:href="#d" class="X"/><use xlink:href="#e" class="X"/><use xlink:href="#f" class="X"/><use xlink:href="#g" class="X"/><use xlink:href="#e" x="44.322" class="X"/><use xlink:href="#e" x="60.17" class="X"/><use xlink:href="#h" class="X"/><use xlink:href="#i"/><use xlink:href="#j"/><use xlink:href="#k"/><path d="M201.436 666.258c-.924 0-1.806-.588-1.806-1.766 0 0-2.48 2.52-6.932 2.52-6.764 0-10.544-5.545-10.544-11.89 0-6.3 3.78-11.846 10.544-11.846 2.94 0 5.293 1.008 6.932 2.73v-7.812c0-1.22.882-1.807 1.806-1.807s1.807.588 1.807 1.764v26.338c0 1.178-.882 1.766-1.807 1.766zM192.7 646.85c-4.2 0-6.932 3.277-6.932 8.275 0 5.04 2.73 8.318 6.932 8.318 4.243 0 6.932-3.277 6.932-8.318 0-4.998-2.688-8.275-6.932-8.275z"/><use xlink:href="#j" x="67.873"/><use xlink:href="#l"/><use xlink:href="#m"/><use xlink:href="#d" x="346.485" class="X"/><use xlink:href="#e" x="346.485" class="X"/><use xlink:href="#f" x="346.484" class="X"/><use xlink:href="#g" x="346.485" class="X"/><use xlink:href="#e" x="390.808" class="X"/><use xlink:href="#e" x="406.655" class="X"/><use xlink:href="#h" x="346.485" class="X"/><use xlink:href="#n"/><use xlink:href="#i" x="342.516"/><path d="M499.642 656.975H484.1c.59 3.947 3.11 6.47 6.806 6.47 1.89 0 3.78-.672 5-2.186.378-.42.798-.672 1.302-.672.925 0 1.89.84 1.89 1.85 0 .504-.126.88-1.008 1.764-1.89 1.848-4.495 2.814-7.184 2.814-6.764 0-10.544-5.588-10.544-11.89 0-6.258 3.78-11.846 10.544-11.846 6.848 0 10.502 5.588 10.502 11.846 0 .924-.672 1.85-1.765 1.85zm-8.737-10.125c-3.948 0-6.26 2.898-6.806 6.512h13.61c-.59-4.033-3.11-6.512-6.806-6.512z"/><use xlink:href="#i" x="395.94"/><use xlink:href="#l" x="305.978"/><use xlink:href="#o"/><use xlink:href="#p"/><path d="M601.448 667.014c-2.94 0-5.25-1.008-6.93-2.773v9.117c0 1.176-.883 1.805-1.85 1.805-.882 0-1.765-.63-1.765-1.805V645.8c0-1.176.883-1.805 1.765-1.805.966 0 1.85.63 1.85 1.805 0 0 2.48-2.562 6.93-2.562 6.764 0 10.544 5.545 10.544 11.848 0 6.385-3.78 11.93-10.544 11.93zm0-20.205c-4.158 0-6.93 3.318-6.93 8.275 0 5.04 2.73 8.36 6.93 8.36s6.932-3.277 6.932-8.318c0-4.998-2.73-8.316-6.932-8.316z"/><use xlink:href="#m" x="374.35"/><use xlink:href="#d" x="716.658" class="X"/><use xlink:href="#e" x="716.657" class="X"/><use xlink:href="#f" x="716.657" class="X"/><use xlink:href="#g" x="716.657" class="X"/><use xlink:href="#e" x="760.982" class="X"/><use xlink:href="#e" x="776.827" class="X"/><use xlink:href="#h" x="716.658" class="X"/><use xlink:href="#j" x="626.275"/><path d="M805.493 666.258c-.924 0-1.806-.588-1.806-1.766 0 0-2.48 2.52-6.932 2.52-6.764 0-10.544-5.545-10.544-11.89 0-6.3 3.78-11.846 10.544-11.846 2.94 0 5.293 1.008 6.932 2.73v-7.812c0-1.22.882-1.807 1.806-1.807s1.807.588 1.807 1.764v26.338c0 1.178-.882 1.766-1.807 1.766zm-8.737-19.408c-4.2 0-6.932 3.277-6.932 8.275 0 5.04 2.73 8.318 6.932 8.318 4.243 0 6.932-3.277 6.932-8.318 0-4.998-2.688-8.275-6.932-8.275z"/><use xlink:href="#p" x="242.053"/><path d="M850.056 663.82c-1.85 2.06-4.41 3.193-7.52 3.193-6.764 0-10.544-5.545-10.544-11.89 0-6.3 3.78-11.846 10.544-11.846 3.108 0 5.67 1.135 7.52 3.193.336.377.504.797.504 1.217 0 .924-.924 1.807-1.89 1.807-.378 0-.84-.168-1.302-.588-1.177-1.303-2.73-2.06-4.83-2.06-4.2 0-6.932 3.277-6.932 8.275 0 5.04 2.73 8.318 6.932 8.318 2.1 0 3.696-.8 4.83-2.06.378-.463.882-.63 1.302-.63.967 0 1.89.84 1.89 1.85 0 .377-.168.84-.504 1.217z"/><use xlink:href="#n" x="418.702"/><path d="M883.568 666.3h-.714c-4 0-5.503-2.1-5.503-5.545v-13.2h-1.26c-1.008 0-1.806-.8-1.806-1.766 0-1.008.798-1.805 1.764-1.805h1.26v-5.84c0-1.176.882-1.764 1.806-1.764s1.765.588 1.765 1.764v5.84h2.688c1.177 0 1.765.965 1.765 1.764 0 1.008-.673 1.807-1.765 1.807h-2.688v13.568c0 1.176.42 1.596 1.597 1.596h1.05c1.092 0 1.807.8 1.807 1.764 0 1-.673 1.807-1.765 1.807zm4.954-25.7a3.01 3.01 0 0 1-3.024-3.023c0-1.68 1.345-3.025 3.024-3.025s3.024 1.346 3.024 3.025a3.01 3.01 0 0 1-3.024 3.023zm0 25.7c-.924 0-1.85-.63-1.85-1.764V645.8c0-1.176.925-1.805 1.85-1.805.882 0 1.765.63 1.765 1.805v18.736c0 1.176-.883 1.764-1.765 1.764z"/><use xlink:href="#o" x="347.808"/><use xlink:href="#k" x="755.593"/><use xlink:href="#q"/><path d="M971.852 656.975H956.3c.6 3.947 3.1 6.47 6.806 6.47 1.9 0 3.78-.672 5-2.186.378-.42.798-.672 1.302-.672.925 0 1.9.84 1.9 1.85 0 .504-.126.88-1.008 1.764-1.9 1.848-4.495 2.814-7.184 2.814-6.764 0-10.544-5.588-10.544-11.9 0-6.258 3.78-11.846 10.544-11.846 6.848 0 10.502 5.588 10.502 11.846 0 .924-.672 1.85-1.765 1.85zm-8.737-10.125c-3.948 0-6.26 2.898-6.806 6.512h13.6c-.6-4.033-3.1-6.512-6.806-6.512zm29.653-.377l-7.646 18.398c-.378.967-1.008 1.428-1.807 1.428-.714 0-1.386-.46-1.806-1.428l-7.646-18.398c-.084-.295-.126-.506-.126-.758 0-1.008.924-1.72 1.848-1.72.63 0 1.26.336 1.597 1.092l6.133 14.703 6.134-14.703c.294-.8 1.05-1.135 1.638-1.135.967 0 1.85.672 1.85 1.723 0 .2-.042.504-.168.8z"/><use xlink:href="#j" x="855.635"/><use xlink:href="#q" x="70.055"/><use xlink:href="#m" x="783.477"/></g><g opacity=".9" class="Y"><path d="M42.328 1046.045c-3.568 0-5.47-1.97-5.503-2.002 0 .935-.7 1.4-1.468 1.4-.7 0-1.4-.467-1.4-1.4v-20.88a1.35 1.35 0 0 1 1.401-1.434c.767 0 1.468.467 1.468 1.4v6.238c1.334-1.368 3.168-2.17 5.503-2.17 5.37 0 8.373 4.403 8.373 9.406 0 5.037-3.002 9.44-8.373 9.44zm0-16c-3.335 0-5.503 2.602-5.503 6.57 0 4.003 2.168 6.604 5.503 6.604s5.504-2.602 5.504-6.604c0-3.97-2.168-6.57-5.504-6.57zm25.555 8.037h-12.34c.467 3.136 2.468 5.137 5.403 5.137 1.5 0 3.002-.533 3.97-1.734.3-.333.634-.533 1.034-.533.734 0 1.5.667 1.5 1.468 0 .4-.1.7-.8 1.4-1.5 1.468-3.57 2.235-5.704 2.235-5.37 0-8.372-4.437-8.372-9.44 0-4.97 3.002-9.406 8.372-9.406 5.437 0 8.34 4.437 8.34 9.406 0 .734-.534 1.468-1.4 1.468zm-6.937-8.038c-3.136 0-4.97 2.3-5.403 5.17H66.35c-.467-3.202-2.468-5.17-5.403-5.17zM88 1045.478c-1.834 0-2.668-1.3-2.97-1.9-1.334 1.468-3.27 2.47-5.87 2.47-5.437 0-8.372-4.47-8.372-9.44s3.002-9.406 8.372-9.406c2.335 0 4.203.834 5.504 2.202v-.134c0-.367.133-1.5 1.4-1.5.7 0 1.468.367 1.468 1.4v12.875c0 .434.3.6.467.6.935 0 1.435.667 1.435 1.434a1.37 1.37 0 0 1-1.435 1.401zm-8.84-15.443c-3.336 0-5.504 2.602-5.504 6.57 0 4.003 2.168 6.604 5.504 6.604 3.37 0 5.504-2.602 5.504-6.604 0-3.97-2.135-6.57-5.504-6.57z"/><use xlink:href="#r"/><path d="M115.158 1045.478h-.567c-3.17 0-4.37-1.668-4.37-4.403V1030.6h-1c-.8 0-1.435-.634-1.435-1.4 0-.8.634-1.435 1.4-1.435h1v-4.637c0-.934.7-1.4 1.435-1.4s1.4.467 1.4 1.4v4.637h2.135c.934 0 1.4.768 1.4 1.4 0 .8-.533 1.434-1.4 1.434h-2.135v10.774c0 .934.333 1.268 1.268 1.268h.833c.868 0 1.435.634 1.435 1.4 0 .8-.533 1.435-1.4 1.435zm4.604-20.415a2.402 2.402 0 1 1 0-4.803 2.402 2.402 0 1 1 0 4.803zm0 20.414c-.733 0-1.467-.5-1.467-1.4V1029.2c0-.935.733-1.435 1.467-1.435a1.37 1.37 0 0 1 1.401 1.435v14.876c0 .935-.7 1.4-1.4 1.4zm10.376-14.877h-1.5v13.442c0 .935-.7 1.4-1.468 1.4-.7 0-1.4-.467-1.4-1.4V1030.6h-1.37c-.9 0-1.4-.667-1.4-1.4 0-.768.5-1.435 1.4-1.435h1.367v-2.27c0-2.135 1.77-3.77 3.836-3.77.968 0 1.468.667 1.468 1.434 0 .7-.5 1.4-1.468 1.4-.566 0-.967.434-.967.9v2.302h1.5c.967 0 1.468.667 1.468 1.435 0 .733-.5 1.4-1.468 1.4z"/><use xlink:href="#r" x="42.068"/><path d="M154.725 1045.544c-1.802 0-3.336-1.534-3.336-3.402v-18.98c0-.967.7-1.434 1.435-1.434s1.435.467 1.435 1.4v19.013c0 .4.3.567.467.567.934 0 1.435.667 1.435 1.435 0 .733-.5 1.4-1.435 1.4zm15.37-.066v-1.264c1.886-.237 2.046-.437 2.046-3.157v-6.7c0-2.8-1.248-4.017-3.064-4.017-1.237 0-2.345.6-3.47 1.493v9.476c0 2.527.187 2.658 2.06 2.896v1.264h-8.968v-1.264c2.254-.33 2.5-.4 2.5-3v-8.2c0-2.446-.303-2.565-2.185-2.922v-1.184c2.173-.292 4.63-.807 6.653-1.533l-.052 2.95 2.6-1.745c1.16-.713 2-1.086 3.16-1.086 3.194 0 5.2 2.338 5.2 6.3v7.5c0 2.54.237 2.657 2.277 2.92v1.264h-8.74zm23.9-3.703c-2.458 3.427-5.488 4.178-7.014 4.178-5.142 0-8.124-3.936-8.124-8.594 0-2.745 1.183-5.396 2.832-7.062 1.74-1.8 3.945-2.814 6.082-2.814 3.73 0 6.396 3.126 6.37 6.347-.014.715-.08 1.277-.612 1.4-.767.184-6.17.5-10.318.647.062 4.587 2.717 6.74 5.556 6.74 1.572 0 3.104-.597 4.543-1.866l.686 1.014zm-7.07-12.7c-1.667 0-3.167 1.807-3.516 4.963l5.486-.118c.6-.026.848-.146.848-.792.04-2.022-1.037-4.053-2.818-4.053zm34.284.145c-1.943.343-2.248.624-3.105 2.765-1.33 3.462-3.102 8.53-4.934 13.94h-1.512l-4.65-11.46-4.55 11.46h-1.472l-4.685-14.192c-.687-1.985-.94-2.274-2.855-2.512v-1.25h9.397v1.25c-2.325.345-2.535.672-2.058 2.133l2.52 8.214c1.507-3.68 2.988-7.62 4.327-11.424h1.456c1.4 3.76 2.986 7.702 4.573 11.568.742-2.107 2.062-5.964 2.557-8.108.412-1.674-.008-2.078-2.753-2.383v-1.25h7.742v1.25zm9.4 3.746c-.92-2.606-2.155-3.984-4.2-3.984-1.206 0-2.225.86-2.225 2.266 0 1.497 1.046 2.264 3.16 3.216 3.278 1.496 5.3 2.787 5.3 5.736 0 3.85-3.6 5.764-6.945 5.764-2.06 0-4.088-.737-4.92-1.16l-.662-4.892 1.252-.224c.8 2.5 2.33 4.75 4.976 4.75 1.505 0 2.438-.952 2.438-2.28 0-1.423-.76-2.333-3.092-3.467-2.67-1.295-5.107-2.64-5.107-5.775 0-3.046 2.533-5.42 6.565-5.42 1.818 0 3.242.396 4.112.567l.62 4.577-1.25.328z"/></g><g class="Y"><use xlink:href="#s"/><use xlink:href="#t"/><use xlink:href="#u"/><path d="M641.545 1036.336a3.42 3.42 0 0 0-3.421 3.42v5.662c0 .36-.3.56-.56.56-.28 0-.58-.2-.58-.56v-9.502c0-.36.3-.56.58-.56.26 0 .56.2.56.56v.82c.9-.98 2.08-1.54 3.42-1.54.36 0 .58.3.58.56a.58.58 0 0 1-.58.58zm10.18 8.46c-.88.98-2.1 1.52-3.58 1.52-3.22 0-5.02-2.64-5.02-5.662 0-3 1.8-5.64 5.02-5.64 1.48 0 2.7.54 3.58 1.52.12.12.16.262.16.38a.63.63 0 0 1-.58.6c-.14 0-.28-.06-.42-.2-.66-.74-1.58-1.16-2.74-1.16-2.36 0-3.88 1.9-3.88 4.5s1.52 4.52 3.88 4.52c1.16 0 2.08-.44 2.74-1.16.14-.14.28-.2.42-.2.3 0 .58.26.58.58 0 .14-.04.26-.16.398z"/><use xlink:href="#v"/><path d="M667.285 1039.416c-.64 0-1.16-.5-1.16-1.14s.52-1.14 1.16-1.14c.62 0 1.12.5 1.12 1.14s-.5 1.14-1.12 1.14zm0 6.563c-.64 0-1.16-.5-1.16-1.14s.52-1.14 1.16-1.14c.62 0 1.12.5 1.12 1.14s-.5 1.14-1.12 1.14zm18.2.001c-.26 0-.56-.18-.56-.56v-6.502h-7.762v6.502c0 .36-.26.56-.56.56-.28 0-.58-.18-.58-.56v-13.123c0-.38.3-.56.58-.56.3 0 .56.2.56.56v5.48h7.762v-5.48c0-.36.26-.56.56-.56.28 0 .58.18.58.56v13.123c0 .36-.28.56-.58.56z"/><use xlink:href="#w"/><path d="M710.305 1045.98c-.28 0-.58-.2-.58-.56v-5.842c0-1.9-1.52-3.42-3.42-3.42a3.42 3.42 0 0 0-3.421 3.42v5.842c0 .36-.3.56-.56.56-.28 0-.58-.2-.58-.56v-9.502c0-.36.3-.56.58-.56.26 0 .56.2.56.56v.64c.9-.98 2.08-1.54 3.42-1.54a4.6 4.6 0 0 1 4.561 4.561v5.842c0 .36-.3.56-.56.56z"/><use xlink:href="#v" x="59.239"/><use xlink:href="#x"/><use xlink:href="#v" x="80.479"/><use xlink:href="#y"/><use xlink:href="#w" x="68.76"/><use xlink:href="#x" x="45.019"/><path d="M783.343 1048.64c-.1 0-.2-.04-.32-.1-2.64-1.94-3.58-5.502-3.58-8.623 0-2.6.96-6.94 3.6-8.44.1-.04.2-.1.3-.1.32 0 .54.32.54.62 0 .44-.08.24-.7.8-1.94 1.74-2.6 4.602-2.6 7.12 0 2.32.8 6.223 3.04 7.662.2.14.3.3.3.48 0 .3-.26.58-.58.58zm9.362-2.66h-6.54c-.34 0-.58-.28-.58-.56 0-.12.06-.24.12-.32l5.96-8.422a2.82 2.82 0 0 0 .46-1.5c0-1.46-1.16-2.66-2.62-2.66-1.9 0-2.66 2.08-3.2 2.08-.3 0-.62-.24-.62-.56 0-.46 1.52-2.66 3.82-2.66 2.08 0 3.76 1.7 3.76 3.74 0 .76-.24 1.56-.7 2.2l-5.302 7.52h5.44c.36 0 .56.3.56.58 0 .26-.2.56-.56.56z"/><use xlink:href="#z"/><path d="M808.963 1045.98c-.3 0-.56-.22-.56-.56v-11.963l-2.18 2.12c-.1.12-.24.18-.38.18-.32 0-.6-.3-.6-.62 0-.12.08-.26.18-.38l3.16-3.06c.16-.12.32-.16.38-.16.42 0 .58.3.58.7v13.184c0 .34-.24.56-.58.56zm7.56.338c-1.68 0-2.88-.72-3.7-1.98-.1-.12-.12-.22-.12-.34 0-.3.3-.56.6-.56.16 0 .32.08.46.26.64.94 1.48 1.48 2.76 1.48 2.52 0 3.42-2.4 3.42-6.32v-.342c-.84 1.08-2.12 1.72-3.42 1.72-2.4 0-4.3-2.08-4.3-4.42 0-2.36 1.9-4.44 4.3-4.44 4.182 0 4.562 4.3 4.562 7.46 0 3.742-.8 7.482-4.562 7.482zm0-13.803c-1.72 0-3.14 1.52-3.14 3.3 0 1.76 1.42 3.28 3.14 3.28 1.56 0 3.2-1.38 3.2-3.4-.36-1.7-1.16-3.18-3.2-3.18zm8.46 16.025c-.1.06-.22.1-.32.1-.3 0-.56-.28-.56-.58 0-.18.08-.38.26-.48 2.26-1.48 3.02-5.32 3.02-7.662 0-2.64-.7-5.86-3-7.44-.18-.14-.3-.3-.3-.48 0-.3.26-.62.58-.62.08 0 .2.06.28.1 2.64 1.48 3.58 5.842 3.58 8.44 0 3.12-.92 6.662-3.54 8.623z"/><use xlink:href="#AA"/><use xlink:href="#s" x="237.257"/><use xlink:href="#y" x="103.779"/><use xlink:href="#u" x="231.337"/><path d="M877.344 1045.98c-.28 0-.58-.2-.58-.56v-1c-.84 1.18-2.14 1.9-3.88 1.9-3.22 0-5.02-2.64-5.02-5.662 0-3 1.8-5.64 5.02-5.64 1.74 0 3.04.72 3.88 1.88v-4.602c0-.36.3-.56.58-.56.26 0 .56.2.56.56v13.123c0 .36-.3.56-.56.56zm-4.46-9.822c-2.36 0-3.88 1.9-3.88 4.5s1.52 4.52 3.88 4.52c2.38 0 3.88-1.92 3.88-4.52s-1.5-4.5-3.88-4.5zm16.48-.002l-5.42 12.822c-.4.94-1.22 1.2-2.14 1.2h-.88c-.36 0-.56-.3-.56-.58 0-.262.2-.56.56-.56h.88c.44 0 .9-.02 1.08-.48l1.14-2.72-4.142-9.682c-.04-.1-.04-.18-.04-.26 0-.32.28-.54.58-.54.18 0 .4.08.5.34l3.722 8.682 3.68-8.682a.52.52 0 0 1 .52-.34c.3 0 .56.22.56.54 0 .08 0 .16-.04.26z"/><use xlink:href="#t" x="283.017"/><path d="M911.882 1032.855h-.62c-.48 0-.88.4-.88.86v1.64h1.5c.38 0 .56.3.56.56 0 .28-.2.58-.56.58h-1.5v8.922c0 .36-.28.56-.56.56s-.56-.18-.56-.56v-8.922h-1.38c-.36 0-.56-.3-.56-.58 0-.26.2-.56.56-.56h1.38v-1.64c0-1.1.9-1.98 1.98-1.98h.64c.36 0 .58.28.58.58 0 .28-.2.54-.58.54zm11.12 13.463c-2.34 0-4.28-1.9-4.28-4.262 0-1.64.86-3.04 2.2-3.76-1.02-.66-1.68-1.8-1.68-3.162a3.77 3.77 0 0 1 3.761-3.76 3.77 3.77 0 0 1 3.761 3.76 3.72 3.72 0 0 1-1.7 3.162c1.34.72 2.2 2.12 2.2 3.74 0 2.34-1.88 4.28-4.26 4.28zm0-7.402c-1.7 0-3.14 1.38-3.14 3.12 0 1.72 1.4 3.14 3.12 3.14 1.74 0 3.14-1.42 3.14-3.12 0-1.74-1.38-3.14-3.12-3.14zm0-6.4c-1.46 0-2.62 1.18-2.62 2.62s1.16 2.64 2.62 2.64c1.44 0 2.62-1.18 2.62-2.64a2.63 2.63 0 0 0-2.621-2.619zm10.078 13.662c-1.34 0-2.86-.72-3.6-1.9a.54.54 0 0 1-.1-.32c0-.32.3-.58.6-.58s.32.16.62.48c.64.76 1.48 1.18 2.48 1.18 1.76 0 3.34-1.52 3.34-3.62 0-2.12-1.58-3.643-3.34-3.643-1.38 0-2.28.88-2.64 1.422-.12.2-.3.28-.54.28-.34 0-.58-.22-.58-.6v-6.582c0-.34.26-.56.56-.56h6.682c.4 0 .6.28.6.56s-.2.56-.6.56h-6.102v4.682c.64-.52 1.5-.9 2.62-.9 2.46 0 4.48 2.08 4.48 4.78 0 2.66-2.02 4.76-4.48 4.76z"/><use xlink:href="#AA" x="108.698"/><use xlink:href="#z" x="149.137"/><path d="M959.46 1046.318c-4.24 0-4.28-5.082-4.28-8.002 0-2.86.44-6.94 4.26-6.94 3.74 0 4.3 3.84 4.3 6.94 0 2.9-.06 8.002-4.28 8.002zm3.142-8.002c0-2.86-.4-5.8-3.142-5.8-3 0-3.14 3.68-3.14 5.8v1.28c0 2.322.44 5.582 3.12 5.582 2.74 0 3.16-3.26 3.16-5.582v-1.28z"/><use xlink:href="#z" x="170.575"/><use xlink:href="#AB"/><path d="M1003.3 1041.236H995c.18 2.28 1.66 3.94 3.84 3.94 1.08 0 2.36-.48 2.94-1.38.14-.22.3-.28.48-.28.3 0 .62.24.62.54 0 .18 0 .22-.38.658-.92 1.082-2.26 1.602-3.66 1.602-3.22 0-5.02-2.64-5.02-5.662 0-3 1.8-5.64 5.02-5.64s5.02 2.66 5.02 5.64c0 .3-.28.58-.56.58zm-4.46-5.08c-2.4 0-3.66 1.84-3.84 3.94h7.7c-.18-2.28-1.66-3.94-3.86-3.94z"/><use xlink:href="#t" x="392.994"/><use xlink:href="#AB" x="36.34"/><use xlink:href="#x" x="305.134"/><use xlink:href="#v" x="380.713"/></g><g fill="#0f0"><path d="M162.9 454.695c-7.687 0-13.924-6.237-13.924-13.86 0-4.85 2.33-8.946 6.1-11.467-2.835-2.268-4.474-5.606-4.474-9.45 0-6.74 5.48-12.285 12.286-12.285 6.74 0 12.285 5.544 12.285 12.285 0 3.844-1.638 7.183-4.473 9.45 3.654 2.52 6.048 6.616 6.048 11.404 0 7.687-6.174 13.924-13.86 13.924zm0-22.492c-4.726 0-8.568 3.97-8.568 8.568 0 4.725 3.906 8.568 8.505 8.568 4.726 0 8.568-3.906 8.568-8.506 0-4.725-3.906-8.63-8.505-8.63zm0-19.153c-3.97 0-6.867 3.087-6.867 6.867 0 3.844 2.897 6.993 6.867 6.993 3.78 0 6.867-3.15 6.867-6.993 0-3.78-3.087-6.867-6.867-6.867zm41.77 33.013h-2.7v4.914c0 1.7-1.45 2.646-2.7 2.646-1.323 0-2.7-.945-2.7-2.646v-4.914h-15.058c-1.765 0-2.835-1.07-2.835-2.52a2.56 2.56 0 0 1 .378-1.387l17.4-33.077c.504-1.008 1.45-1.448 2.27-1.448 1.448 0 2.835 1.134 2.835 2.583 0 .44-.063.882-.378 1.386l-15.247 29.107h10.647v-7.182c0-1.827 1.323-2.772 2.646-2.772 1.386 0 2.77.882 2.77 2.7v7.245h2.7c1.765 0 2.7 1.26 2.7 2.7 0 1.387-.945 2.646-2.7 2.646z"/><use xlink:href="#AC"/><path d="M533.677 453.624c-1.323 0-2.646-1.008-2.646-2.646v-33.77l-5.04 4.914c-.567.567-1.197.756-1.765.756-1.512 0-2.835-1.386-2.835-2.77 0-.693.252-1.323.82-1.89l9.388-9.072c.756-.693 1.575-1.008 2.33-1.008 1.764 0 2.52 1.764 2.52 3.213v39.566c0 1.7-1.323 2.71-2.772 2.71z"/><use xlink:href="#AC" x="365.363"/><use xlink:href="#AD"/><use xlink:href="#Q" x="708.647"/><use xlink:href="#AC" x="365.683" y="399.732"/><path d="M913.976 814.293l-14.5 37.36c-.504 1.26-1.26 1.765-2.33 1.765-1.387 0-2.835-1.07-2.835-2.646 0-.378.126-.693.252-1.07l13.734-35.85h-16.822c-1.386 0-2.646-1.01-2.646-2.71 0-1.45 1.197-2.646 2.646-2.646h20.73c1.386 0 2.772.882 2.772 2.71 0 .756-.82 2.457-1.01 3.087z"/><use xlink:href="#Q" x="707.967" y="399.731"/><use xlink:href="#AC" x="-348.12" y="406.732"/><use xlink:href="#AD" x="-713.482" y="406.732"/><use xlink:href="#Q" x="-4.836" y="406.731"/><use xlink:href="#AC" x="0.399" y="406.732"/><use xlink:href="#AD" x="-364.963" y="406.732"/><use xlink:href="#Q" x="343.683" y="406.731"/></g><g class="Y"><path d="M118.727 42.382h-22.44V54.5h15.72a2.56 2.56 0 0 1 2.58 2.58c0 1.38-1.02 2.58-2.58 2.58h-15.72v17.82a2.58 2.58 0 0 1-2.52 2.52c-1.44 0-2.64-1.14-2.64-2.52V39.862c0-1.44 1.2-2.58 2.64-2.58h24.96c1.56 0 2.52 1.14 2.52 2.52 0 1.26-.9 2.58-2.52 2.58z"/><use xlink:href="#AE"/><path d="M169.243 52.222c-4.62 0-8.52 3.9-8.52 8.58v16.62c0 1.68-1.26 2.58-2.64 2.58-1.26 0-2.52-.9-2.52-2.52v-26.76c0-1.68 1.38-2.58 2.52-2.58 1.2 0 2.34.66 2.58 2.04a13.88 13.88 0 0 1 8.58-3.06c1.74 0 2.64 1.2 2.64 2.58 0 1.32-.9 2.52-2.64 2.52zM220.96 80.06c-1.26 0-2.52-.9-2.52-2.58v-27.6L206.8 71.6c-.78 1.5-1.92 1.62-2.4 1.62-.3 0-1.56-.12-2.4-1.62L190.422 50v27.48c0 1.68-1.26 2.58-2.64 2.58-1.26 0-2.52-.9-2.52-2.58v-37.5c0-1.98 1.38-2.7 2.76-2.7.9 0 1.62.42 2.16 1.5l14.22 26.46 14.28-26.46c.6-1.2 1.32-1.5 2.34-1.5 1.32 0 2.58.84 2.58 2.7v37.5c0 1.68-1.26 2.58-2.64 2.58zm22.44.96c-9.66 0-15.06-7.92-15.06-16.98 0-9 5.4-16.92 15.06-16.92s15.06 7.92 15.06 16.92c0 9.06-5.4 16.98-15.06 16.98zm0-28.8c-6 0-9.9 4.68-9.9 11.82 0 7.2 3.9 11.88 9.9 11.88 6.06 0 9.9-4.68 9.9-11.88 0-7.14-3.84-11.82-9.9-11.82zm33.48.002c-4.62 0-8.52 3.9-8.52 8.58v16.62c0 1.68-1.26 2.58-2.64 2.58-1.26 0-2.52-.9-2.52-2.52v-26.76c0-1.68 1.38-2.58 2.52-2.58 1.2 0 2.34.66 2.58 2.04a13.88 13.88 0 0 1 8.58-3.06c1.74 0 2.64 1.2 2.64 2.58 0 1.32-.9 2.52-2.64 2.52z"/><use xlink:href="#AF"/><use xlink:href="#AG"/><use xlink:href="#AH"/><use xlink:href="#AI"/><path d="M414.566 80h-1.02c-5.7 0-7.86-3-7.86-7.92v-18.84h-1.8c-1.44 0-2.58-1.14-2.58-2.52 0-1.44 1.14-2.58 2.52-2.58h1.8v-8.34c0-1.68 1.26-2.52 2.58-2.52s2.52.84 2.52 2.52v8.34h3.84c1.68 0 2.52 1.38 2.52 2.52 0 1.44-.96 2.58-2.52 2.58h-3.84v19.38c0 1.68.6 2.28 2.28 2.28h1.5c1.56 0 2.58 1.14 2.58 2.52 0 1.44-.96 2.58-2.52 2.58z"/><use xlink:href="#AF" x="140.877"/><use xlink:href="#AJ"/><use xlink:href="#AG" x="166.977"/><use xlink:href="#AJ" x="73.979"/><path d="M588.982 42.382h-9.96v35.1c0 1.62-1.2 2.52-2.52 2.52-1.26 0-2.58-.9-2.58-2.52v-35.1h-9.84c-1.74 0-2.64-1.32-2.64-2.58 0-1.2.9-2.52 2.58-2.52h24.96c1.68 0 2.58 1.32 2.58 2.52 0 1.26-.9 2.58-2.58 2.58zM618.742 80c-1.32 0-2.52-.9-2.52-2.52V60.8c0-4.68-3.9-8.58-8.58-8.58-4.62 0-8.52 3.9-8.52 8.58v16.62c0 1.68-1.26 2.64-2.64 2.64-1.26 0-2.52-.9-2.52-2.58V39.862c0-1.74 1.26-2.58 2.52-2.58 1.38 0 2.64.84 2.64 2.52v10.38c2.22-2.1 5.22-3.06 8.52-3.06 7.44 0 13.68 6.18 13.68 13.68v16.62c0 1.68-1.2 2.58-2.58 2.58z"/><use xlink:href="#AE" x="506.677"/><use xlink:href="#AH" x="302.394"/><path d="M722.54 80h-12.42c-1.38 0-2.64-1.26-2.64-2.52V39.862c0-1.38 1.26-2.58 2.64-2.58h12.42c12.36 0 16.44 10.2 16.44 21.3 0 11.16-4.08 21.42-16.44 21.42zm0-37.62h-9.9V74.9h9.9c7.74 0 11.28-5.7 11.28-16.32 0-10.44-3.54-16.2-11.28-16.2z"/><use xlink:href="#AI" x="351.293"/><path d="M780.2 51.682l-10.92 26.28c-.54 1.38-1.44 2.04-2.58 2.04-1.02 0-1.98-.66-2.58-2.04l-10.92-26.28c-.12-.42-.18-.72-.18-1.08 0-1.44 1.32-2.46 2.64-2.46.9 0 1.8.48 2.28 1.56l8.76 21 8.76-21c.42-1.14 1.5-1.62 2.34-1.62 1.38 0 2.64.96 2.64 2.46 0 .3-.06.72-.24 1.14z"/><use xlink:href="#AI" x="391.013"/><path d="M821.597 79.94c-1.32 0-2.58-.84-2.58-2.52 0 0-3.54 3.6-9.9 3.6-9.66 0-15.06-7.92-15.06-16.98 0-9 5.4-16.92 15.06-16.92 4.2 0 7.56 1.44 9.9 3.9v-11.16c0-1.74 1.26-2.58 2.58-2.58s2.58.84 2.58 2.52V77.42c0 1.68-1.26 2.52-2.58 2.52zm-12.48-27.72c-6 0-9.9 4.68-9.9 11.82 0 7.2 3.9 11.88 9.9 11.88 6.06 0 9.9-4.68 9.9-11.88 0-7.14-3.84-11.82-9.9-11.82z"/><use xlink:href="#AF" x="551.088"/><use xlink:href="#AJ" x="410.212"/><use xlink:href="#AG" x="577.189"/><use xlink:href="#AJ" x="484.191"/></g><path d="M268.255 96.984h455.25v41.377h-455.25z" fill="#0f0"/><g class="Y"><path d="M83.46 114.285c-3.306 0-6.003-3.002-6.003-6.687s2.697-6.648 6.003-6.648c3.268 0 5.965 2.963 5.965 6.648s-2.697 6.688-5.965 6.688zm0-11.208c-1.9 0-3.838 1.785-3.838 4.52s1.938 4.52 3.838 4.52 3.8-1.785 3.8-4.52-1.9-4.52-3.8-4.52zm14.36-1.406l-7.257 26.216c-.19.532-.494.798-.95.798-.57 0-1.178-.456-1.178-1.102 0-.114 0-.228.037-.304l7.258-26.217c.19-.57.53-.835.987-.835.532 0 1.14.493 1.14 1.14 0 .076 0 .15-.038.304zm4.712 26.33c-3.268 0-5.966-3.002-5.966-6.688 0-3.646 2.698-6.648 5.966-6.648 3.306 0 6.003 3.002 6.003 6.648 0 3.686-2.697 6.688-6.003 6.688zm0-11.17c-1.9 0-3.8 1.785-3.8 4.482 0 2.736 1.9 4.52 3.8 4.52 1.938 0 3.837-1.785 3.837-4.52 0-2.697-1.9-4.482-3.837-4.482z"/><use xlink:href="#AK"/><use xlink:href="#AL"/><use xlink:href="#AM"/><use xlink:href="#AN"/><use xlink:href="#AK" x="75.041"/><use xlink:href="#AO"/><use xlink:href="#AM" x="79.335"/></g><use xlink:href="#AP"/><use xlink:href="#AQ"/><use xlink:href="#AR"/><use xlink:href="#AQ" x="36.936"/><use xlink:href="#AS"/><use xlink:href="#AK" x="220.617"/><use xlink:href="#AN" x="180.11"/><use xlink:href="#AQ" x="86.716"/><path d="M390.638 128h-1.178c-3 0-4.483-1.48-4.483-4.445V110h-1.937c-.684 0-1.063-.57-1.063-1.102 0-.494.38-1.063 1.063-1.063h1.938v-5.813c0-.684.57-1.063 1.103-1.063s1.063.38 1.063 1.063v5.813h3.495c.685 0 1.064.57 1.064 1.063 0 .532-.38 1.102-1.064 1.102h-3.495v13.564c0 1.86.532 2.28 2.317 2.28h1.178c.685 0 1.064.57 1.064 1.103 0 .493-.38 1.063-1.064 1.063zm20.14-18.655L400.48 133.7c-.76 1.786-2.317 2.28-4.064 2.28h-1.672c-.685 0-1.064-.57-1.064-1.102 0-.494.38-1.063 1.064-1.063h1.672c.835 0 1.7-.038 2.05-.912l2.166-5.167-7.865-18.4c-.075-.2-.075-.342-.075-.494 0-.607.53-1.025 1.102-1.025.342 0 .76.15.95.646l7.066 16.5 7-16.5c.2-.494.607-.646.987-.646.57 0 1.064.418 1.064 1.025 0 .152 0 .304-.076.494z"/><use xlink:href="#AQ" x="132.2"/><use xlink:href="#AT"/><path d="M474.806 125.76c-1.672 1.86-3.99 2.887-6.8 2.887-6.117 0-9.536-5.015-9.536-10.752 0-5.7 3.42-10.715 9.536-10.715 2.812 0 5.13 1.026 6.8 2.888.23.23.305.494.305.722 0 .57-.532 1.14-1.103 1.14-.266 0-.53-.114-.798-.38-1.254-1.406-3-2.204-5.205-2.204-4.483 0-7.37 3.61-7.37 8.55s2.888 8.587 7.37 8.587c2.204 0 3.95-.836 5.205-2.204.267-.266.532-.38.798-.38a1.13 1.13 0 0 1 1.103 1.102c0 .267-.076.494-.305.76z"/><use xlink:href="#AU"/><path d="M525.6 128c-.53 0-1.063-.38-1.063-1.063V114.17c0-2.62-2.203-4.825-4.825-4.825s-4.863 2.204-4.863 4.787v12.805c0 .684-.532 1.063-1.063 1.063s-1.103-.38-1.103-1.063V114.17c0-2.62-2.203-4.825-4.787-4.825-2.66 0-4.863 2.204-4.863 4.787v12.805c0 .684-.57 1.063-1.063 1.063-.532 0-1.103-.38-1.103-1.063V108.89c0-.684.57-1.063 1.103-1.063.494 0 1.063.38 1.063 1.063v.23c1.254-1.216 2.964-1.938 4.825-1.938 2.432 0 4.598 1.216 5.928 3.23 1.254-1.937 3.42-3.23 5.89-3.23 3.95 0 7.03 3.116 7.03 6.953v12.805c0 .684-.57 1.063-1.103 1.063z"/><use xlink:href="#AR" x="234.039"/><use xlink:href="#AU" x="82.231"/><use xlink:href="#AT" x="153.938"/><use xlink:href="#AL" x="468.79"/><use xlink:href="#AK" x="510.971"/><use xlink:href="#AS" x="321.552"/><path d="M678.94 128c-.53 0-1.102-.38-1.102-1.063v-1.216c-1.596 1.86-3.913 2.925-6.497 2.925-4.7 0-8.663-3.95-8.663-8.662V108.9c0-.684.57-1.063 1.103-1.063.493 0 1.063.38 1.063 1.063v11.095a6.497 6.497 0 1 0 12.994 0V108.9c0-.684.57-1.063 1.102-1.063.494 0 1.064.38 1.064 1.063v18.048c0 .684-.57 1.063-1.064 1.063zm22.837-9.004H686c.342 4.332 3.153 7.485 7.295 7.485 2.052 0 4.483-.912 5.585-2.622.267-.418.57-.53.912-.53.57 0 1.178.455 1.178 1.025 0 .342 0 .418-.722 1.254-1.748 2.052-4.293 3.04-6.953 3.04-6.117 0-9.536-5.015-9.536-10.752 0-5.7 3.42-10.715 9.536-10.715s9.537 5.054 9.537 10.715c0 .57-.532 1.102-1.064 1.102zm-8.473-9.65c-4.56 0-6.953 3.495-7.295 7.485h14.628c-.342-4.332-3.153-7.485-7.333-7.485zm19.646 19.376c-2.28 0-6.117-.798-7.447-3-.15-.23-.15-.418-.15-.57 0-.607.53-1.14 1.102-1.14.228 0 .607.2.836.532 1.367 1.67 3.8 2.014 5.66 2.014 3.686 0 5.547-1.216 5.547-3.686 0-5.737-12.462-2.698-12.462-10.297 0-3.837 3.837-5.32 7.295-5.32 1.976 0 5.016.685 6.535 2.204.228.228.342.494.342.722 0 .57-.57 1.14-1.178 1.14-.23 0-.494-.076-.722-.304-1.18-1.14-3.306-1.596-4.978-1.596-3.344 0-5.13 1.292-5.13 3.153 0 5.32 12.462 2.508 12.462 10.297 0 4.33-3.8 5.85-7.713 5.85z"/><g class="Y"><path d="M741.98 128.646c-3.306 0-5.775-1.367-7.37-3.6v1.9c0 .684-.57 1.063-1.063 1.063-.532 0-1.103-.38-1.103-1.063V102.01c0-.684.57-1.063 1.103-1.063.494 0 1.063.38 1.063 1.063v8.74c1.596-2.204 4.065-3.572 7.37-3.572 6.117 0 9.536 5.016 9.536 10.715 0 5.737-3.42 10.752-9.536 10.752zm0-19.3c-4.52 0-7.37 3.6-7.37 8.55s2.85 8.587 7.37 8.587 7.37-3.647 7.37-8.587-2.85-8.55-7.37-8.55zm30.437 9.65H756.65c.342 4.332 3.153 7.485 7.295 7.485 2.052 0 4.483-.912 5.585-2.622.267-.418.57-.53.912-.53.57 0 1.178.455 1.178 1.025 0 .342 0 .418-.722 1.254-1.748 2.052-4.293 3.04-6.953 3.04-6.117 0-9.536-5.015-9.536-10.752 0-5.7 3.42-10.715 9.536-10.715s9.537 5.054 9.537 10.715c0 .57-.532 1.102-1.064 1.102zm-8.473-9.65c-4.56 0-6.953 3.495-7.295 7.485h14.628c-.342-4.332-3.153-7.485-7.333-7.485zM784.198 128h-1.178c-3 0-4.483-1.48-4.483-4.445V110H776.6c-.684 0-1.063-.57-1.063-1.102 0-.494.38-1.063 1.063-1.063h1.938v-5.813c0-.684.57-1.063 1.103-1.063s1.063.38 1.063 1.063v5.813h3.495c.685 0 1.064.57 1.064 1.063 0 .532-.38 1.102-1.064 1.102h-3.495v13.564c0 1.86.532 2.28 2.317 2.28h1.178c.685 0 1.064.57 1.064 1.103 0 .493-.38 1.063-1.064 1.063zm28.762-18.77l-6.193 17.857c-.266.722-.607.912-1.102.912-.646 0-.836-.228-1.064-.912l-4.977-14.817-4.978 14.817c-.266.722-.608.912-1.102.912s-.874-.304-1.064-.912l-6.154-17.857a1.61 1.61 0 0 1-.076-.418c0-.607.607-.987 1.102-.987.38 0 .836.2.988.722l5.205 15.046 4.977-14.855c.23-.723.456-.912 1.103-.912.456 0 .836.15 1.063.912l5.054 14.855 5.13-15.046c.2-.532.57-.722.987-.722.57 0 1.18.38 1.18 1.025a1.12 1.12 0 0 1-.076.38z"/><use xlink:href="#AM" x="652.899"/><path d="M855.028 118.996H839.26c.342 4.332 3.153 7.485 7.295 7.485 2.052 0 4.483-.912 5.585-2.622.267-.418.57-.53.912-.53.57 0 1.178.455 1.178 1.025 0 .342 0 .418-.722 1.254-1.748 2.052-4.293 3.04-6.953 3.04-6.117 0-9.536-5.015-9.536-10.752 0-5.7 3.42-10.715 9.536-10.715s9.537 5.054 9.537 10.715c0 .57-.532 1.102-1.064 1.102zm-8.473-9.65c-4.56 0-6.953 3.495-7.295 7.485h14.628c-.342-4.332-3.153-7.485-7.333-7.485z"/><use xlink:href="#AT" x="430.685"/><use xlink:href="#AO" x="670.51"/><use xlink:href="#AN" x="727.871"/><use xlink:href="#AU" x="445.732"/><path d="M962.528 128c-.532 0-1.102-.38-1.102-1.063v-1.216c-1.596 1.86-3.913 2.925-6.497 2.925-4.7 0-8.663-3.95-8.663-8.662V108.9c0-.684.57-1.063 1.103-1.063.493 0 1.063.38 1.063 1.063v11.095a6.497 6.497 0 1 0 12.994 0V108.9c0-.684.57-1.063 1.102-1.063.494 0 1.064.38 1.064 1.063v18.048c0 .684-.57 1.063-1.064 1.063zm15.24.646c-3.306 0-5.775-1.367-7.37-3.6v9.84c0 .684-.57 1.102-1.063 1.102-.532 0-1.103-.418-1.103-1.102V108.9c0-.684.57-1.063 1.103-1.063.494 0 1.063.38 1.063 1.063v1.862c1.596-2.204 4.065-3.572 7.37-3.572 6.117 0 9.536 5.016 9.536 10.715 0 5.737-3.42 10.752-9.536 10.752zm0-19.3c-4.52 0-7.37 3.6-7.37 8.55s2.85 8.587 7.37 8.587 7.37-3.647 7.37-8.587-2.85-8.55-7.37-8.55z"/><use xlink:href="#AP" x="718.19"/></g><defs ><path id="P" d="M310.164 516.09c-67.22 0-70.76-235-137.96-235-67.216 0-69.808 235-137.04 235"/><path id="Q" d="M214.383 420.387c-3.195 0-5.804-2.9-5.804-6.464s2.608-6.428 5.804-6.428c3.158 0 5.766 2.865 5.766 6.428s-2.607 6.464-5.766 6.464zm0-9.77c-1.176 0-2.645 1.175-2.645 3.306s1.47 3.306 2.645 3.306 2.645-1.176 2.645-3.306-1.47-3.306-2.645-3.306zm15.315-1.8l-6.758 24.313c-.184.81-.81 1.176-1.433 1.176-.845 0-1.652-.588-1.652-1.543 0-.11 0-.294.036-.44l6.795-24.35c.22-.77.845-1.14 1.47-1.14.77 0 1.616.55 1.616 1.47 0 .184-.037.33-.073.514zm5.215 24.828c-3.158 0-5.766-2.9-5.766-6.464 0-3.526 2.607-6.428 5.766-6.428 3.195 0 5.804 2.9 5.804 6.428 0 3.563-2.608 6.464-5.804 6.464zm0-9.77c-1.14 0-2.607 1.175-2.607 3.306 0 2.167 1.47 3.342 2.607 3.342 1.176 0 2.645-1.175 2.645-3.342 0-2.13-1.47-3.306-2.645-3.306z"/><path id="R" d="M145.804 213.923c-2.996 0-4.592-1.65-4.62-1.68 0 .784-.588 1.176-1.232 1.176-.588 0-1.176-.392-1.176-1.176v-17.527c0-.812.588-1.204 1.176-1.204.645 0 1.232.392 1.232 1.176v5.235c1.12-1.147 2.66-1.82 4.62-1.82 4.508 0 7.027 3.695 7.027 7.896 0 4.23-2.52 7.924-7.027 7.924zm0-13.44c-2.8 0-4.62 2.184-4.62 5.516 0 3.36 1.82 5.544 4.62 5.544s4.62-2.184 4.62-5.544c0-3.332-1.82-5.516-4.62-5.516z"/><path id="S" d="M167.81 207.23h-10.36c.393 2.632 2.072 4.312 4.536 4.312 1.26 0 2.52-.447 3.332-1.456.252-.28.532-.447.868-.447.616 0 1.26.56 1.26 1.23 0 .336-.084.588-.672 1.176-1.26 1.232-2.996 1.876-4.788 1.876-4.508 0-7.027-3.724-7.027-7.924 0-4.172 2.52-7.896 7.027-7.896 4.564 0 7 3.724 7 7.896 0 .616-.447 1.232-1.176 1.232zm-5.824-6.748c-2.632 0-4.172 1.932-4.536 4.34h9.072c-.392-2.687-2.072-4.34-4.536-4.34z"/><path id="T" d="M176.183 213.447h-.477c-2.66 0-3.668-1.4-3.668-3.696v-8.792h-.84c-.672 0-1.204-.53-1.204-1.176a1.19 1.19 0 0 1 1.176-1.204h.84v-3.892c0-.784.588-1.176 1.203-1.176s1.177.392 1.177 1.176v3.892h1.792c.784 0 1.176.645 1.176 1.176 0 .673-.448 1.204-1.176 1.204h-1.792v9.044c0 .784.28 1.064 1.063 1.064h.7c.728 0 1.204.532 1.204 1.176 0 .672-.448 1.204-1.176 1.204z"/><path id="U" d="M197.938 200.176l-4.34 12.29c-.225.616-.616.98-1.232.98-.588 0-.924-.252-1.176-.98l-3.276-9.24-3.304 9.24c-.224.673-.616.98-1.204.98-.56 0-.952-.308-1.176-.98l-4.312-12.29c-.057-.168-.057-.28-.057-.448 0-.7.645-1.148 1.232-1.148a1.11 1.11 0 0 1 1.092.784l3.248 9.352 3.304-9.155c.225-.645.504-.98 1.176-.98.616 0 .952.31 1.177.98l3.275 9.155 3.276-9.352a1.1 1.1 0 0 1 1.063-.784c.645 0 1.288.477 1.288 1.176 0 .14 0 .253-.056.42z"/><path id="V" d="M243.185 213.447c-.616 0-1.177-.42-1.177-1.176v-7.784c0-2.184-1.82-4.004-4.004-4.004-2.155 0-3.976 1.82-3.976 4.004v7.756c0 .784-.588 1.232-1.232 1.232a1.15 1.15 0 0 1-1.176-1.204v-12.517c0-.812.588-1.176 1.176-1.176.56 0 1.064.31 1.204.924a6.38 6.38 0 0 1 4.004-1.399 6.44 6.44 0 0 1 6.385 6.384v7.756c0 .784-.56 1.204-1.204 1.204z"/><path id="W" d="M132.395 248.288c-1.76 1.96-4.2 3.04-7.16 3.04-6.438 0-10.038-5.28-10.038-11.318 0-6 3.6-11.277 10.038-11.277 2.96 0 5.4 1.08 7.16 3.04.32.36.48.76.48 1.16 0 .88-.88 1.72-1.8 1.72-.36 0-.8-.16-1.24-.56-1.12-1.24-2.6-1.96-4.6-1.96-4 0-6.6 3.12-6.6 7.878 0 4.8 2.6 7.92 6.6 7.92 2 0 3.52-.76 4.6-1.96.36-.44.84-.6 1.24-.6.92 0 1.8.8 1.8 1.76 0 .36-.16.8-.48 1.16z"/><path id="X" d="M144.716 251.327c-6.438 0-10.038-5.28-10.038-11.318 0-6 3.6-11.277 10.038-11.277s10.038 5.278 10.038 11.277c0 6.04-3.6 11.318-10.038 11.318zm0-19.196c-4 0-6.6 3.12-6.6 7.878 0 4.8 2.6 7.92 6.6 7.92 4.04 0 6.6-3.12 6.6-7.92 0-4.76-2.56-7.878-6.6-7.878z"/><path id="Y" d="M196.394 250.647c-.88 0-1.68-.6-1.68-1.68V237.85c0-3.12-2.6-5.72-5.72-5.72-3.08 0-5.68 2.6-5.68 5.72v11.078c0 1.12-.84 1.76-1.76 1.76-.84 0-1.68-.6-1.68-1.72V231.09c0-1.16.84-1.68 1.68-1.68.8 0 1.52.44 1.72 1.32 1.56-1.24 3.52-2 5.72-2 4.96 0 9.118 4.12 9.118 9.118v11.078c0 1.12-.8 1.72-1.72 1.72z"/><path id="Z" d="M221.395 232.13c-3.08 0-5.68 2.6-5.68 5.72v11.078c0 1.12-.84 1.72-1.76 1.72-.84 0-1.68-.6-1.68-1.68V231.13c0-1.12.92-1.72 1.68-1.72.8 0 1.56.44 1.72 1.36a9.25 9.25 0 0 1 5.719-2.039c1.16 0 1.76.8 1.76 1.72 0 .88-.6 1.68-1.76 1.68z"/><path id="a" d="M225.717 226.172c-1.6 0-2.88-1.28-2.88-2.88s1.28-2.88 2.88-2.88 2.88 1.28 2.88 2.88-1.28 2.88-2.88 2.88zm0 24.476c-.88 0-1.76-.6-1.76-1.68V231.13c0-1.12.88-1.72 1.76-1.72.84 0 1.68.6 1.68 1.72v17.837c0 1.12-.84 1.68-1.68 1.68z"/><path id="b" d="M249.072 241.77h-14.797c.56 3.76 2.96 6.16 6.48 6.16 1.8 0 3.6-.64 4.76-2.08.36-.4.76-.64 1.24-.64.88 0 1.8.8 1.8 1.76 0 .48-.12.84-.96 1.68-1.8 1.76-4.28 2.68-6.84 2.68-6.438 0-10.038-5.32-10.038-11.318 0-5.96 3.6-11.277 10.038-11.277 6.52 0 9.998 5.318 9.998 11.277 0 .88-.64 1.76-1.68 1.76zm-8.318-9.638c-3.76 0-5.96 2.76-6.48 6.198h12.957c-.56-3.84-2.96-6.198-6.48-6.198z"/><path id="c" d="M260.155 251.327c-2.2 0-5.88-.68-7.76-3-.24-.36-.36-.72-.36-1.04 0-1 .96-1.8 1.8-1.8.48 0 .84.24 1.24.68 1.24 1.36 3.28 1.76 5.08 1.76 3.6 0 4.76-1.24 4.76-3.04 0-5.12-12.197-1.96-12.197-10.198 0-4.36 4.08-5.96 7.878-5.96 2.16 0 7.24 1.08 7.24 3.32 0 .88-.72 1.8-1.68 1.8-.36 0-.92-.2-1.32-.52-1.08-.92-2.64-1.2-4.24-1.2-3.32 0-4.48 1.24-4.48 2.56 0 4.76 12.237 1.68 12.237 10.198 0 4.72-3.96 6.438-8.198 6.438z"/><path id="d" d="M139.02 629.574c-2.996 0-4.592-1.65-4.62-1.68 0 .785-.588 1.176-1.232 1.176-.588 0-1.176-.39-1.176-1.176v-17.527c0-.812.588-1.203 1.176-1.203.645 0 1.232.39 1.232 1.176v5.234c1.12-1.146 2.66-1.818 4.62-1.818 4.508 0 7.027 3.695 7.027 7.895 0 4.23-2.52 7.924-7.027 7.924zm0-13.44c-2.8 0-4.62 2.184-4.62 5.516 0 3.36 1.82 5.545 4.62 5.545s4.62-2.184 4.62-5.545c0-3.332-1.82-5.516-4.62-5.516z"/><path id="e" d="M161.028 622.883h-10.36c.393 2.633 2.072 4.313 4.536 4.313 1.26 0 2.52-.447 3.332-1.457.252-.28.532-.447.868-.447.616 0 1.26.56 1.26 1.232 0 .336-.084.588-.672 1.176-1.26 1.232-2.996 1.875-4.788 1.875-4.508 0-7.027-3.723-7.027-7.924 0-4.172 2.52-7.895 7.027-7.895 4.564 0 7 3.723 7 7.895 0 .617-.447 1.232-1.176 1.232zm-5.824-6.748c-2.632 0-4.172 1.932-4.536 4.34h9.072c-.392-2.687-2.072-4.34-4.536-4.34z"/><path id="f" d="M169.4 629.1h-.477c-2.66 0-3.668-1.4-3.668-3.697v-8.79h-.84c-.672 0-1.204-.53-1.204-1.176 0-.672.532-1.205 1.176-1.205h.84v-3.89c0-.785.588-1.176 1.203-1.176s1.177.39 1.177 1.176v3.89h1.792c.784 0 1.176.645 1.176 1.176 0 .674-.448 1.205-1.176 1.205h-1.792v9.043c0 .785.28 1.064 1.063 1.064h.7c.728 0 1.204.533 1.204 1.176 0 .672-.448 1.205-1.176 1.205z"/><path id="g" d="M191.155 615.828l-4.34 12.29c-.225.615-.616.98-1.232.98-.588 0-.924-.252-1.176-.98l-3.276-9.24-3.304 9.24c-.224.672-.616.98-1.204.98-.56 0-.952-.31-1.176-.98l-4.312-12.29c-.057-.168-.057-.28-.057-.45 0-.7.645-1.148 1.232-1.148a1.11 1.11 0 0 1 1.092.785l3.248 9.352 3.304-9.156c.225-.645.504-.98 1.176-.98.616 0 .952.31 1.177.98l3.275 9.156 3.276-9.352c.196-.56.644-.785 1.063-.785.645 0 1.288.477 1.288 1.176 0 .14 0 .254-.056.422z"/><path id="h" d="M236.402 629.1c-.616 0-1.177-.42-1.177-1.176v-7.785c0-2.184-1.82-4.004-4.004-4.004-2.155 0-3.976 1.82-3.976 4.004v7.756c0 .785-.588 1.232-1.232 1.232a1.15 1.15 0 0 1-1.176-1.203v-12.518c0-.81.588-1.176 1.176-1.176.56 0 1.064.31 1.204.924a6.38 6.38 0 0 1 4.004-1.398c3.473 0 6.385 2.883 6.385 6.383v7.756c0 .785-.56 1.205-1.204 1.205z"/><path id="i" d="M124.827 675.877c-2.562 0-8.905-.924-8.905-3.445 0-.965.882-1.89 1.806-1.89.967 0 .126.125 2.353.965 1.01.38 2.52.8 4.747.8 4.663 0 6.932-2.227 6.932-6.637v-1.89c-1.64 1.555-3.99 2.52-6.932 2.52-6.637 0-10.544-4.705-10.544-11.174 0-6.3 3.78-11.846 10.544-11.846 2.94 0 5.21.883 6.932 2.688v-.168c0-1.176.966-1.805 1.806-1.805.883 0 1.807.63 1.807 1.805v19.87c0 6.678-3.99 10.207-10.544 10.207zm0-29.027c-4.2 0-6.932 3.277-6.932 8.275 0 4.79 2.52 7.604 6.932 7.604s6.932-2.814 6.932-7.604c0-4.998-2.688-8.275-6.932-8.275z"/><path id="j" d="M157.125 656.975h-15.543c.59 3.947 3.11 6.47 6.806 6.47 1.89 0 3.78-.672 5-2.186.378-.42.798-.672 1.302-.672.925 0 1.89.84 1.89 1.85 0 .504-.126.88-1.008 1.764-1.89 1.848-4.495 2.814-7.184 2.814-6.764 0-10.544-5.588-10.544-11.89 0-6.258 3.78-11.846 10.544-11.846 6.848 0 10.502 5.588 10.502 11.846 0 .924-.672 1.85-1.765 1.85zm-8.737-10.125c-3.948 0-6.26 2.898-6.806 6.512h13.61c-.59-4.033-3.11-6.512-6.806-6.512z"/><path id="k" d="M178.25 666.3c-.924 0-1.765-.63-1.765-1.764v-11.678c0-3.277-2.73-6.008-6.007-6.008-3.234 0-5.965 2.73-5.965 6.008v11.635c0 1.178-.883 1.85-1.85 1.85-.882 0-1.765-.63-1.765-1.807v-18.777c0-1.22.883-1.764 1.765-1.764.84 0 1.597.46 1.807 1.385 1.638-1.3 3.696-2.1 6.007-2.1 5.21 0 9.578 4.326 9.578 9.578v11.635c0 1.178-.84 1.807-1.807 1.807z"/><path id="l" d="M238.352 646.85c-3.234 0-5.965 2.73-5.965 6.008v11.635c0 1.178-.883 1.807-1.85 1.807-.882 0-1.765-.63-1.765-1.764V645.8c0-1.176.967-1.805 1.765-1.805.84 0 1.64.46 1.807 1.428 1.638-1.344 3.864-2.143 6.007-2.143 1.218 0 1.85.84 1.85 1.807 0 .924-.63 1.764-1.85 1.764z"/><path id="m" d="M247.13 667.014c-2.31 0-6.175-.715-8.15-3.15-.252-.38-.378-.756-.378-1.092 0-1.05 1.008-1.89 1.89-1.89.504 0 .882.252 1.302.713 1.303 1.43 3.444 1.85 5.335 1.85 3.78 0 5-1.303 5-3.193 0-5.377-12.812-2.06-12.812-10.71 0-4.58 4.285-6.26 8.275-6.26 2.27 0 7.604 1.135 7.604 3.486 0 .924-.756 1.89-1.765 1.89-.378 0-.966-.21-1.386-.547-1.135-.965-2.772-1.26-4.453-1.26-3.486 0-4.705 1.303-4.705 2.69 0 4.998 12.854 1.764 12.854 10.71 0 4.957-4.158 6.764-8.61 6.764z"/><path id="n" d="M454.578 666.3c-2.31 0-3.36-1.64-3.738-2.395-1.68 1.85-4.117 3.11-7.394 3.11-6.848 0-10.544-5.63-10.544-11.89s3.78-11.846 10.544-11.846c2.94 0 5.293 1.05 6.932 2.77v-.168c0-.46.168-1.89 1.764-1.89.883 0 1.85.46 1.85 1.764v16.215c0 .547.378.756.588.756 1.177 0 1.807.84 1.807 1.807 0 .883-.63 1.764-1.807 1.764zm-11.132-19.45c-4.2 0-6.932 3.277-6.932 8.275 0 5.04 2.73 8.318 6.932 8.318 4.243 0 6.932-3.277 6.932-8.318 0-4.998-2.688-8.275-6.932-8.275z"/><path id="o" d="M555.668 667.014c-6.764 0-10.544-5.545-10.544-11.89 0-6.3 3.78-11.846 10.544-11.846s10.544 5.545 10.544 11.846c0 6.344-3.78 11.89-10.544 11.89zm0-20.164c-4.2 0-6.932 3.277-6.932 8.275 0 5.04 2.73 8.318 6.932 8.318 4.243 0 6.932-3.277 6.932-8.318 0-4.998-2.688-8.275-6.932-8.275z"/><path id="p" d="M585.7 666.342c-.8 0-1.597-.463-1.765-1.387-1.68 1.303-3.738 2.1-6.05 2.1-5.21 0-9.578-4.326-9.578-9.576v-11.637c0-1.176.883-1.807 1.765-1.807.966 0 1.85.63 1.85 1.764v11.68c0 3.275 2.73 6.006 5.965 6.006 3.276 0 6.007-2.73 6.007-6.006v-11.637c0-1.303.84-1.848 1.765-1.848.966 0 1.806.63 1.806 1.805v18.777c0 1.178-.84 1.766-1.764 1.766z"/><path id="q" d="M950.43 666.383c-2.27 0-4.2-1.932-4.2-4.285v-23.9c0-1.22.883-1.807 1.807-1.807s1.807.588 1.807 1.764v23.943c0 .506.378.715.588.715 1.176 0 1.807.84 1.807 1.807 0 .924-.63 1.764-1.807 1.764z"/><path id="r" d="M104.714 1045.51c-.633 0-1.267-.367-1.4-1.1-1.334 1.034-2.97 1.668-4.804 1.668-4.136 0-7.604-3.436-7.604-7.605v-9.24a1.37 1.37 0 0 1 1.4-1.435c.768 0 1.468.5 1.468 1.4v9.272c0 2.602 2.168 4.77 4.736 4.77 2.603 0 4.77-2.17 4.77-4.77v-9.24c0-1.034.667-1.468 1.4-1.468.768 0 1.435.5 1.435 1.435v14.9c0 .934-.667 1.4-1.4 1.4z"/><path id="s" d="M607.085 1046.357c-1.2 0-3.22-.42-3.92-1.58-.08-.12-.08-.22-.08-.3 0-.32.28-.602.58-.602.12 0 .32.102.44.28.72.88 2 1.06 2.98 1.06 1.94 0 2.92-.64 2.92-1.94 0-3.02-6.562-1.42-6.562-5.422 0-2.02 2.02-2.8 3.84-2.8 1.04 0 2.64.36 3.44 1.16.12.12.18.26.18.38a.65.65 0 0 1-.62.6c-.12 0-.26-.04-.38-.16-.62-.6-1.74-.84-2.62-.84-1.76 0-2.7.682-2.7 1.66 0 2.8 6.562 1.32 6.562 5.422 0 2.28-2 3.08-4.06 3.08z"/><path id="t" d="M617.806 1046.318c-3.22 0-5.02-2.64-5.02-5.662 0-3 1.8-5.64 5.02-5.64s5.02 2.64 5.02 5.64c0 3.02-1.8 5.662-5.02 5.662zm0-10.162c-2.36 0-3.88 1.9-3.88 4.5s1.52 4.52 3.88 4.52c2.38 0 3.88-1.92 3.88-4.52s-1.5-4.5-3.88-4.5z"/><path id="u" d="M633.586 1045.98c-.28 0-.58-.2-.58-.56v-.64c-.84.98-2.06 1.54-3.42 1.54-2.48 0-4.56-2.08-4.56-4.56v-5.842c0-.36.3-.56.58-.56.26 0 .56.2.56.56v5.842c0 1.9 1.52 3.42 3.42 3.42s3.42-1.52 3.42-3.42v-5.842c0-.36.3-.56.58-.56.26 0 .56.2.56.56v9.502c0 .36-.3.56-.56.56z"/><path id="v" d="M663.307 1041.236h-8.302c.18 2.28 1.66 3.94 3.84 3.94 1.08 0 2.36-.48 2.94-1.38.14-.22.3-.28.48-.28.3 0 .62.24.62.54 0 .18 0 .22-.38.658-.92 1.082-2.26 1.602-3.66 1.602-3.22 0-5.02-2.64-5.02-5.662 0-3 1.8-5.64 5.02-5.64s5.02 2.66 5.02 5.64c0 .3-.28.58-.56.58zm-4.46-5.08c-2.4 0-3.66 1.84-3.84 3.94h7.7c-.18-2.28-1.66-3.94-3.86-3.94z"/><path id="w" d="M699.346 1045.98h-.02c-.66 0-1.6-.36-1.98-1.56-.84 1.18-2.14 1.9-3.88 1.9-3.26 0-5.02-2.682-5.02-5.662 0-3.02 1.8-5.64 5.02-5.64 1.74 0 3.04.72 3.88 1.88v-.98c0-.32.26-.56.58-.56.28 0 .56.2.56.56v8.063c0 1.28 1.44.48 1.44 1.44a.55.55 0 0 1-.58.561zm-5.88-9.822c-2.36 0-3.88 1.9-3.88 4.5s1.52 4.52 3.88 4.52c2.38 0 3.88-1.92 3.88-4.52s-1.5-4.5-3.88-4.5z"/><path id="x" d="M727.464 1046.098c-1.08 0-1.98-1-1.98-2.12v-11.684c0-.36.3-.56.58-.56.26 0 .56.2.56.56v11.684c0 1.28 1.42.54 1.42 1.44 0 .34-.24.68-.58.68z"/><path id="y" d="M750.384 1045.98h-.62c-1.58 0-2.36-.78-2.36-2.342v-7.14h-1.02c-.36 0-.56-.3-.56-.58 0-.26.2-.56.56-.56h1.02v-3.06c0-.36.3-.56.58-.56s.56.2.56.56v3.06h1.84c.36 0 .56.3.56.56 0 .28-.2.58-.56.58h-1.84v7.14c0 .98.28 1.2 1.22 1.2h.62c.36 0 .56.3.56.58 0 .26-.2.56-.56.56z"/><path id="z" d="M799.605 1046.318c-4.24 0-4.28-5.082-4.28-8.002 0-2.86.44-6.94 4.26-6.94 3.74 0 4.3 3.84 4.3 6.94 0 2.9-.06 8.002-4.28 8.002zm3.14-8.002c0-2.86-.4-5.8-3.14-5.8-3 0-3.142 3.68-3.142 5.8v1.28c0 2.322.44 5.582 3.12 5.582 2.74 0 3.16-3.26 3.16-5.582v-1.28z"/><path id="AA" d="M831.822 1047.758c-.08.06-.2.08-.3.08-.32 0-.54-.28-.54-.58 0-.56.86-.64 1-1.28-.6-.04-1.08-.54-1.08-1.14 0-.68.56-1.16 1.16-1.16.98 0 1.2 1 1.2 1.62 0 .98-.52 1.92-1.44 2.46z"/><path id="AB" d="M986.88 1046.318c-1.74 0-3.04-.72-3.88-1.9v5.182c0 .36-.3.58-.56.58a.58.58 0 0 1-.58-.58v-13.684c0-.36.3-.56.58-.56.26 0 .56.2.56.56v.98c.84-1.16 2.14-1.88 3.88-1.88 3.22 0 5.02 2.64 5.02 5.64 0 3.02-1.8 5.662-5.02 5.662zm0-10.162c-2.38 0-3.88 1.9-3.88 4.5s1.5 4.52 3.88 4.52 3.88-1.92 3.88-4.52-1.5-4.5-3.88-4.5z"/><path id="AC" d="M503.815 454.695c-5.23 0-9-2.27-11.593-6.237-.44-.567-.63-1.07-.63-1.64 0-1.45 1.386-2.583 2.835-2.583.756 0 1.64.315 2.205 1.197 1.64 2.52 3.844 3.906 7.183 3.906 6.048 0 8.758-5.418 9-17.39-2.08 2.016-5.355 3.59-9 3.59-7.497 0-13.482-6.553-13.482-13.924 0-7.435 5.985-13.986 13.482-13.986 13.294 0 14.365 13.608 14.365 23.5 0 11.78-2.584 23.563-14.365 23.563zm0-41.646c-4.284 0-8.128 3.843-8.128 8.568 0 4.662 3.844 8.506 8.128 8.506 4.4 0 8.064-3.718 8.254-8.694-.757-4.852-3.34-8.38-8.254-8.38z"/><path id="AD" d="M901.748 454.695c-13.294 0-14.365-13.546-14.365-23.5 0-11.78 2.583-23.562 14.365-23.562 5.292 0 9.072 2.33 11.655 6.3a2.47 2.47 0 0 1 .567 1.639c0 1.448-1.323 2.583-2.772 2.583-.82 0-1.638-.378-2.27-1.26-1.638-2.457-3.78-3.843-7.182-3.843-5.985 0-8.758 5.355-8.947 17.39 2.08-2.016 5.293-3.59 8.947-3.59 7.56 0 13.545 6.552 13.545 13.924s-5.984 13.924-13.545 13.924zm0-22.492c-4.348 0-8.002 3.78-8.254 8.694.82 4.914 3.402 8.442 8.254 8.442 4.347 0 8.127-3.906 8.127-8.568s-3.78-8.568-8.127-8.568z"/><path id="AE" d="M149.803 80c-3.3 0-4.8-2.34-5.34-3.42-2.4 2.64-5.88 4.44-10.56 4.44-9.78 0-15.06-8.04-15.06-16.98s5.4-16.92 15.06-16.92c4.2 0 7.56 1.5 9.9 3.96v-.24c0-.66.24-2.7 2.52-2.7 1.26 0 2.64.66 2.64 2.52v23.16c0 .78.54 1.08.84 1.08 1.68 0 2.58 1.2 2.58 2.58 0 1.26-.9 2.52-2.58 2.52zm-15.9-27.78c-6 0-9.9 4.68-9.9 11.82 0 7.2 3.9 11.88 9.9 11.88 6.06 0 9.9-4.68 9.9-11.88 0-7.14-3.84-11.82-9.9-11.82z"/><path id="AF" d="M305.368 66.68h-22.2c.84 5.64 4.44 9.24 9.72 9.24 2.7 0 5.4-.96 7.14-3.12.54-.6 1.14-.96 1.86-.96 1.32 0 2.7 1.2 2.7 2.64 0 .72-.18 1.26-1.44 2.52-2.7 2.64-6.42 4.02-10.26 4.02-9.66 0-15.06-7.98-15.06-16.98 0-8.94 5.4-16.92 15.06-16.92 9.78 0 15 7.98 15 16.92 0 1.32-.96 2.64-2.52 2.64zm-12.48-14.46c-5.64 0-8.94 4.14-9.72 9.3h19.44c-.84-5.76-4.44-9.3-9.72-9.3z"/><path id="AG" d="M338.967 81.08c-8.22 0-15.06-6.6-15.06-15.06v-26.22c0-1.68 1.26-2.52 2.58-2.52s2.58.84 2.58 2.52v26.22c0 5.52 4.44 9.96 9.9 9.96s9.96-4.44 9.96-9.96v-26.16c0-1.74 1.2-2.58 2.52-2.58 1.38 0 2.58.84 2.58 2.52v26.22c0 8.22-6.6 15.06-15.06 15.06z"/><path id="AH" d="M384.626 80c-1.32 0-2.52-.9-2.52-2.52V60.8c0-4.68-3.9-8.58-8.58-8.58-4.62 0-8.52 3.9-8.52 8.58v16.62c0 1.68-1.26 2.64-2.64 2.64-1.26 0-2.52-.9-2.52-2.58v-26.82c0-1.74 1.26-2.52 2.52-2.52 1.2 0 2.28.66 2.58 1.98 2.34-1.86 5.28-3 8.58-3 7.44 0 13.68 6.18 13.68 13.68v16.62c0 1.68-1.2 2.58-2.58 2.58z"/><path id="AI" d="M395.547 43.282a4.3 4.3 0 1 1 0-8.64 4.3 4.3 0 1 1 0 8.64zm0 36.72c-1.32 0-2.64-.9-2.64-2.52v-26.76c0-1.68 1.32-2.58 2.64-2.58 1.26 0 2.52.9 2.52 2.58v26.76c0 1.68-1.26 2.52-2.52 2.52z"/><path id="AJ" d="M462.865 81.02c-3.3 0-8.82-1.02-11.64-4.5-.36-.54-.54-1.08-.54-1.56 0-1.5 1.44-2.7 2.7-2.7.72 0 1.26.36 1.86 1.02 1.86 2.04 4.92 2.64 7.62 2.64 5.4 0 7.14-1.86 7.14-4.56 0-7.68-18.3-2.94-18.3-15.3 0-6.54 6.12-8.94 11.82-8.94 3.24 0 10.86 1.62 10.86 4.98 0 1.32-1.08 2.7-2.52 2.7-.54 0-1.38-.3-1.98-.78-1.62-1.38-3.96-1.8-6.36-1.8-4.98 0-6.72 1.86-6.72 3.84 0 7.14 18.36 2.52 18.36 15.3 0 7.08-5.94 9.66-12.3 9.66z"/><path id="AK" d="M140.685 128h-.038c-1.254 0-3.04-.684-3.762-2.964-1.596 2.242-4.065 3.61-7.37 3.61-6.193 0-9.536-5.09-9.536-10.752 0-5.737 3.42-10.715 9.536-10.715 3.306 0 5.775 1.368 7.37 3.572v-1.862c0-.607.494-1.063 1.102-1.063.532 0 1.064.38 1.064 1.063V124.2c0 2.432 2.735.912 2.735 2.736a1.04 1.04 0 0 1-1.102 1.063zm-11.17-18.655c-4.483 0-7.37 3.61-7.37 8.55s2.888 8.587 7.37 8.587c4.52 0 7.37-3.647 7.37-8.587s-2.85-8.55-7.37-8.55z"/><path id="AL" d="M159.99 109.307l-7.484 17.82c-.23.494-.57.874-1.064.874s-.874-.38-1.102-.874l-7.485-17.78c-.075-.2-.075-.342-.075-.494 0-.607.53-1.025 1.102-1.025.342 0 .76.15.95.646l6.6 15.616 6.573-15.616c.23-.494.608-.684.988-.684.57 0 1.102.418 1.102 1.025 0 .114 0 .305-.114.494z"/><path id="AM" d="M180.165 118.996h-15.768c.342 4.332 3.153 7.485 7.295 7.485 2.052 0 4.483-.912 5.585-2.622.267-.418.57-.53.912-.53.57 0 1.178.455 1.178 1.025 0 .342 0 .418-.722 1.254-1.748 2.052-4.293 3.04-6.953 3.04-6.117 0-9.536-5.015-9.536-10.752 0-5.7 3.42-10.715 9.536-10.715s9.537 5.054 9.537 10.715c0 .57-.532 1.102-1.064 1.102zm-8.473-9.65c-4.56 0-6.953 3.495-7.295 7.485h14.628c-.342-4.332-3.153-7.485-7.333-7.485z"/><path id="AN" d="M193.657 109.687c-3.57 0-6.497 2.888-6.497 6.497v10.753c0 .684-.57 1.063-1.063 1.063-.532 0-1.103-.38-1.103-1.063V108.89c0-.684.57-1.063 1.103-1.063.494 0 1.063.38 1.063 1.063v1.558c1.7-1.86 3.95-2.925 6.497-2.925.684 0 1.102.57 1.102 1.063 0 .532-.418 1.102-1.102 1.102z"/><path id="AO" d="M228.19 136.664c-3.23 0-7.79-1.216-7.79-2.584 0-.608.494-1.216 1.103-1.216.418 0 1.29.646 2.014.912.987.342 2.545.722 4.673.722 4.863 0 7.37-2.394 7.37-7.067v-2.66c-1.672 2.014-4.065 3.23-7.37 3.23-6.003 0-9.536-4.256-9.536-10.106 0-5.7 3.42-10.715 9.536-10.715 3.306 0 5.775 1.368 7.37 3.572v-1.824c0-.684.57-1.063 1.102-1.063.494 0 1.064.38 1.064 1.063v18.503c0 6.04-3.6 9.233-9.537 9.233zm0-27.318c-4.483 0-7.37 3.61-7.37 8.55 0 4.9 2.698 7.94 7.37 7.94s7.37-3.04 7.37-7.94c0-4.94-2.85-8.55-7.37-8.55z"/><path id="AP" d="M279.224 128.722c-2.28 0-6.117-.798-7.447-3-.15-.23-.15-.418-.15-.57 0-.607.53-1.14 1.102-1.14.228 0 .607.19.836.532 1.367 1.67 3.8 2.014 5.66 2.014 3.686 0 5.547-1.216 5.547-3.686 0-5.737-12.462-2.698-12.462-10.297 0-3.837 3.837-5.32 7.295-5.32 1.976 0 5.015.685 6.535 2.204.228.228.342.494.342.722 0 .57-.57 1.14-1.178 1.14-.23 0-.494-.076-.722-.304-1.178-1.14-3.306-1.596-4.978-1.596-3.344 0-5.13 1.292-5.13 3.153 0 5.32 12.462 2.508 12.462 10.297 0 4.33-3.8 5.85-7.713 5.85z"/><path id="AQ" d="M291.27 104.178a2.14 2.14 0 1 1 0-4.332 2.14 2.14 0 0 1 0 4.332zm0 23.822c-.532 0-1.103-.342-1.103-1.063V108.89c0-.684.532-1.063 1.103-1.063.494 0 1.063.342 1.063 1.063v18.048c0 .684-.494 1.063-1.063 1.063z"/><path id="AR" d="M321.705 128c-.53 0-1.063-.38-1.063-1.063V114.17c0-2.62-2.204-4.825-4.825-4.825s-4.863 2.204-4.863 4.787v12.805c0 .684-.532 1.063-1.063 1.063s-1.103-.38-1.103-1.063V114.17c0-2.62-2.203-4.825-4.787-4.825-2.66 0-4.863 2.204-4.863 4.787v12.805c0 .684-.57 1.063-1.063 1.063-.532 0-1.103-.38-1.103-1.063V108.89c0-.684.57-1.063 1.103-1.063.494 0 1.063.38 1.063 1.063v.23c1.254-1.216 2.964-1.938 4.825-1.938 2.432 0 4.598 1.216 5.928 3.23 1.253-1.937 3.42-3.23 5.89-3.23 3.95 0 7.03 3.116 7.03 6.953v12.805c0 .684-.57 1.063-1.103 1.063z"/><path id="AS" d="M337.668 128.228c-2.052 0-3.762-1.9-3.762-4.027v-22.188c0-.684.57-1.063 1.103-1.063.494 0 1.063.38 1.063 1.063V124.2c0 2.432 2.697 1.026 2.697 2.736 0 .645-.455 1.29-1.102 1.29z"/><path id="AT" d="M445.432 128c-.53 0-1.102-.38-1.102-1.063v-11.095a6.47 6.47 0 0 0-6.497-6.497c-3.57 0-6.497 2.888-6.497 6.497v11.095c0 .684-.57 1.063-1.063 1.063-.532 0-1.103-.38-1.103-1.063V108.89c0-.684.57-1.063 1.103-1.063.494 0 1.063.38 1.063 1.063v1.216c1.7-1.86 3.95-2.926 6.497-2.926 4.71 0 8.663 3.914 8.663 8.663v11.095c0 .684-.57 1.063-1.064 1.063z"/><path id="AU" d="M487.575 128.646c-6.117 0-9.536-5.015-9.536-10.752 0-5.7 3.42-10.715 9.536-10.715s9.537 5.016 9.537 10.715c0 5.737-3.42 10.752-9.537 10.752zm0-19.3c-4.483 0-7.37 3.61-7.37 8.55s2.888 8.587 7.37 8.587c4.52 0 7.37-3.647 7.37-8.587s-2.85-8.55-7.37-8.55z"/></defs></svg>