<svg xmlns="http://www.w3.org/2000/svg" xmlns:xlink="http://www.w3.org/1999/xlink" viewBox="0 0 1080 1080"><style><![CDATA[.K{fill:#fff}.L{opacity:.5}.M{fill:#ffe369}]]></style><defs><linearGradient id="A" x1="11.716" y1="11.716" x2="1068.284" y2="1068.284" gradientUnits="userSpaceOnUse"><stop offset="0" stop-color="#f3904f"/><stop offset=".226" stop-color="#bd7959"/><stop offset=".488" stop-color="#866263"/><stop offset=".714" stop-color="#5d516b"/><stop offset=".892" stop-color="#44476f"/><stop offset="1" stop-color="#3b4371"/></linearGradient><linearGradient id="B" x1="33.956" y1="662.497" x2="1045.936" y2="662.497" gradientUnits="userSpaceOnUse"><stop offset="0" stop-color="#ffe369"/><stop offset="1" stop-color="#ff7038"/></linearGradient><path id="C" d="M35.492 1004.915v-1.92c2.048-6.848 8.447-10.687 8.447-15.935 0-2.433-1.216-3.648-2.784-3.648-1.824 0-3.168 1.408-3.36 4.864h-2.112c.256-5.248 2.624-6.784 5.407-6.784 3.04 0 5.152 2.048 5.152 5.888 0 5.76-5.184 7.552-8.64 15.615h8.767v1.92z"/><path id="D" d="M1024.212 1004.915v-1.92h2.816v-18.56l-2.88.256v-1.408a8.847 8.847 0 0 0 3.648-1.792h1.536v21.503h2.688v1.92z"/><path id="E" d="M256.198 336.034a1.596 1.596 0 1 1 1.596-1.596 1.578 1.578 0 0 1-1.596 1.596zm0 17.556a.77.77 0 0 1-.812-.784v-13.3a.772.772 0 0 1 .812-.784.763.763 0 0 1 .784.784v13.3a.749.749 0 0 1-.784.784z"/><path id="F" d="M104.714 1045.51a1.36 1.36 0 0 1-1.4-1.101 7.763 7.763 0 0 1-4.804 1.668 7.666 7.666 0 0 1-7.604-7.605v-9.24a1.434 1.434 0 0 1 2.868-.033v9.272a4.753 4.753 0 1 0 9.507 0v-9.24a1.33 1.33 0 0 1 1.4-1.468 1.364 1.364 0 0 1 1.435 1.435v14.9a1.328 1.328 0 0 1-1.401 1.4z"/><path id="G" d="M706.846 1046.358c-1.2 0-3.22-.42-3.92-1.58a.482.482 0 0 1-.08-.3.546.546 0 0 1 1.021-.32 3.812 3.812 0 0 0 2.98 1.061c1.94 0 2.92-.64 2.92-1.94 0-3.02-6.562-1.42-6.562-5.422 0-2.02 2.02-2.8 3.84-2.8a5.415 5.415 0 0 1 3.44 1.16.558.558 0 0 1 .18.38.648.648 0 0 1-.62.6.531.531 0 0 1-.38-.16 4.001 4.001 0 0 0-2.62-.84c-1.76 0-2.7.68-2.7 1.66 0 2.8 6.562 1.32 6.562 5.422 0 2.28-2 3.08-4.06 3.08z"/><path id="H" d="M717.567 1046.318c-3.22 0-5.02-2.64-5.02-5.66 0-3 1.8-5.64 5.02-5.64s5.02 2.64 5.02 5.64c0 3.02-1.8 5.66-5.02 5.66zm0-10.162c-2.36 0-3.88 1.9-3.88 4.5s1.52 4.52 3.88 4.52c2.38 0 3.88-1.92 3.88-4.52s-1.5-4.5-3.88-4.5z"/><path id="I" d="M733.347 1045.978a.562.562 0 0 1-.58-.561v-.64a4.442 4.442 0 0 1-3.421 1.54 4.61 4.61 0 0 1-4.561-4.561v-5.842a.57.57 0 0 1 1.14 0v5.842a3.421 3.421 0 1 0 6.842 0v-5.842a.57.57 0 0 1 1.141 0v9.502a.558.558 0 0 1-.561.561z"/><path id="J" d="M741.306 1036.336a3.418 3.418 0 0 0-3.421 3.42v5.66a.57.57 0 0 1-1.141 0v-9.502a.57.57 0 0 1 1.141 0v.82a4.565 4.565 0 0 1 3.421-1.54.57.57 0 1 1 0 1.141z"/><path id="K" d="M751.487 1044.797a4.645 4.645 0 0 1-3.58 1.521c-3.22 0-5.02-2.64-5.02-5.66 0-3 1.8-5.64 5.02-5.64a4.647 4.647 0 0 1 3.58 1.52.531.531 0 0 1 .16.381.627.627 0 0 1-.58.6.587.587 0 0 1-.42-.2 3.526 3.526 0 0 0-2.74-1.16c-2.36 0-3.88 1.9-3.88 4.5s1.52 4.52 3.88 4.52a3.596 3.596 0 0 0 2.74-1.16.587.587 0 0 1 .42-.2.594.594 0 0 1 .58.58.571.571 0 0 1-.16.399z"/><path id="L" d="M763.067 1041.237h-8.302c.18 2.28 1.66 3.94 3.84 3.94a3.615 3.615 0 0 0 2.94-1.381.525.525 0 0 1 .479-.28.611.611 0 0 1 .62.541c0 .18 0 .22-.38.66a4.72 4.72 0 0 1-3.66 1.601c-3.22 0-5.02-2.64-5.02-5.66 0-3 1.8-5.64 5.02-5.64s5.02 2.66 5.02 5.64a.606.606 0 0 1-.56.58zm-4.46-5.08c-2.4 0-3.66 1.84-3.84 3.94h7.7c-.18-2.28-1.66-3.94-3.86-3.94z"/><path id="M" d="M792.584 1046.318a7.388 7.388 0 0 1-4.78-1.76.523.523 0 0 1-.181-.4.609.609 0 0 1 .58-.58c.24 0 .22.06.64.38a6.335 6.335 0 0 0 3.74 1.221c2.52 0 3.98-.94 3.98-2.74 0-4.74-8.462-2.1-8.462-7.562 0-2.4 2.1-3.5 4.68-3.5a5.74 5.74 0 0 1 4.361 1.881.557.557 0 0 1-.48.9c-.28 0-.28-.08-.62-.42a4.625 4.625 0 0 0-3.261-1.221c-2.38 0-3.54.92-3.54 2.36 0 4.3 8.462 1.8 8.462 7.562 0 2.78-2.44 3.88-5.12 3.88z"/><path id="N" d="M857.8 1045.978h-.02a2.072 2.072 0 0 1-1.98-1.561 4.536 4.536 0 0 1-3.88 1.9c-3.26 0-5.02-2.68-5.02-5.66 0-3.02 1.8-5.64 5.02-5.64a4.571 4.571 0 0 1 3.88 1.88v-.98a.564.564 0 0 1 .581-.56.546.546 0 0 1 .56.56v8.063c0 1.28 1.44.48 1.44 1.44a.55.55 0 0 1-.58.561zm-5.88-9.822c-2.36 0-3.88 1.9-3.88 4.5s1.52 4.52 3.88 4.52c2.38 0 3.88-1.92 3.88-4.52s-1.5-4.5-3.88-4.5z"/><path id="O" d="M934.76 1045.978h-.62a2.075 2.075 0 0 1-2.36-2.341v-7.142h-1.02a.57.57 0 0 1 0-1.14h1.02v-3.06a.562.562 0 0 1 .58-.561.546.546 0 0 1 .56.561v3.06h1.84a.57.57 0 0 1 0 1.14h-1.84v7.142c0 .98.28 1.2 1.22 1.2h.62a.57.57 0 0 1 0 1.141z"/><path id="P" d="M937.718 1033.435a1.14 1.14 0 1 1 1.141-1.14 1.127 1.127 0 0 1-1.141 1.14zm0 12.543a.55.55 0 0 1-.58-.561v-9.502a.551.551 0 0 1 .58-.56.545.545 0 0 1 .561.56v9.502a.536.536 0 0 1-.561.561z"/><path id="Q" d="M75.52 80.12a6.122 6.122 0 0 1-6-6.12V39.862a2.58 2.58 0 0 1 5.16-.061V74a.947.947 0 0 0 .84 1.021 2.55 2.55 0 1 1 0 5.1z"/><path id="R" d="M110.738 80a5.839 5.839 0 0 1-5.34-3.42 13.746 13.746 0 0 1-10.56 4.44c-9.78 0-15.06-8.04-15.06-16.98s5.4-16.92 15.06-16.92a13.26 13.26 0 0 1 9.9 3.96v-.24a2.475 2.475 0 0 1 2.52-2.7 2.412 2.412 0 0 1 2.64 2.52v23.16a.971.971 0 0 0 .84 1.08 2.55 2.55 0 1 1 0 5.1zm-15.9-27.778c-6 0-9.9 4.68-9.9 11.82 0 7.2 3.9 11.88 9.9 11.88 6.06 0 9.9-4.68 9.9-11.88 0-7.14-3.84-11.82-9.9-11.82z"/><path id="S" d="M140.917 76.46a13.935 13.935 0 0 1-10.74 4.561c-9.66 0-15.06-7.92-15.06-16.98 0-9 5.4-16.92 15.06-16.92a13.935 13.935 0 0 1 10.74 4.561 2.614 2.614 0 0 1 .72 1.739 2.794 2.794 0 0 1-2.7 2.58 2.84 2.84 0 0 1-1.86-.84 8.816 8.816 0 0 0-6.9-2.939c-6 0-9.9 4.68-9.9 11.82 0 7.2 3.9 11.88 9.9 11.88a8.923 8.923 0 0 0 6.9-2.939 2.396 2.396 0 0 1 1.86-.9 2.59 2.59 0 0 1 1.98 4.38z"/><path id="T" d="M369.573 66.68h-22.2c.84 5.64 4.44 9.24 9.72 9.24a9.006 9.006 0 0 0 7.14-3.119 2.482 2.482 0 0 1 1.86-.96 2.8 2.8 0 0 1 2.7 2.64c0 .72-.18 1.26-1.44 2.52a14.62 14.62 0 0 1-10.26 4.021c-9.66 0-15.06-7.98-15.06-16.98 0-8.94 5.4-16.92 15.06-16.92 9.78 0 15 7.98 15 16.92a2.558 2.558 0 0 1-2.52 2.64zm-12.48-14.46c-5.64 0-8.94 4.14-9.72 9.3h19.44c-.84-5.76-4.44-9.3-9.72-9.3z"/><path id="U" d="M645.556 66.68h-22.2c.84 5.64 4.44 9.24 9.72 9.24a9.008 9.008 0 0 0 7.14-3.119 2.481 2.481 0 0 1 1.859-.96 2.8 2.8 0 0 1 2.7 2.64c0 .72-.18 1.26-1.44 2.52a14.616 14.616 0 0 1-10.259 4.021c-9.66 0-15.06-7.98-15.06-16.98 0-8.94 5.4-16.92 15.06-16.92 9.78 0 15 7.98 15 16.92a2.558 2.558 0 0 1-2.52 2.64zm-12.48-14.46c-5.64 0-8.94 4.14-9.72 9.3h19.438c-.84-5.76-4.44-9.3-9.72-9.3z"/><path id="V" d="M104.735 141.32a6.122 6.122 0 0 1-6-6.12v-34.138a2.58 2.58 0 0 1 5.16-.061V135.2a.947.947 0 0 0 .84 1.021 2.55 2.55 0 1 1 0 5.1z"/><path id="W" d="M124.414 104.48a4.32 4.32 0 1 1 4.32-4.319 4.302 4.302 0 0 1-4.32 4.319zm0 36.72a2.52 2.52 0 0 1-2.64-2.52v-26.76a2.533 2.533 0 0 1 2.64-2.58 2.472 2.472 0 0 1 2.52 2.58v26.76a2.421 2.421 0 0 1-2.52 2.52z"/><path id="X" d="M86.736 169.8a6.494 6.494 0 0 0-6.497 6.497v10.753a1.083 1.083 0 0 1-2.166 0v-18.048a1.083 1.083 0 0 1 2.166 0v1.558a8.676 8.676 0 0 1 6.497-2.925 1.083 1.083 0 1 1 0 2.165z"/><path id="Y" d="M90.956 164.29a2.166 2.166 0 1 1 2.165-2.166 2.141 2.141 0 0 1-2.165 2.166zm0 23.822a1.045 1.045 0 0 1-1.103-1.063v-18.048a1.047 1.047 0 0 1 1.103-1.063 1.034 1.034 0 0 1 1.063 1.063v18.048a1.016 1.016 0 0 1-1.063 1.063z"/><path id="Z" d="M116.49 188.113h-.038a3.933 3.933 0 0 1-3.762-2.964 8.619 8.619 0 0 1-7.371 3.609c-6.193 0-9.536-5.09-9.536-10.752 0-5.737 3.42-10.715 9.536-10.715a8.686 8.686 0 0 1 7.371 3.572v-1.862a1.071 1.071 0 0 1 1.102-1.063 1.037 1.037 0 0 1 1.064 1.063v15.312c0 2.432 2.735.912 2.735 2.736a1.045 1.045 0 0 1-1.102 1.064zm-11.17-18.655c-4.483 0-7.37 3.61-7.37 8.55s2.888 8.587 7.37 8.587c4.52 0 7.37-3.647 7.37-8.587s-2.85-8.55-7.37-8.55z"/><path id="a" d="M127.244 188.113h-1.178c-3 0-4.483-1.48-4.483-4.445v-13.564h-1.937a1.083 1.083 0 0 1 0-2.165h1.938v-5.814a1.068 1.068 0 0 1 1.103-1.063 1.037 1.037 0 0 1 1.063 1.063v5.813h3.495a1.083 1.083 0 0 1 0 2.165h-3.495v13.564c0 1.86.532 2.28 2.317 2.28h1.178a1.083 1.083 0 0 1 0 2.166z"/><path id="b" d="M146.472 188.76c-6.117 0-9.536-5.015-9.536-10.752 0-5.7 3.42-10.715 9.536-10.715s9.537 5.016 9.537 10.715c0 5.737-3.42 10.752-9.537 10.752zm0-19.3c-4.483 0-7.37 3.61-7.37 8.55s2.888 8.587 7.37 8.587c4.52 0 7.37-3.647 7.37-8.587s-2.85-8.55-7.37-8.55z"/><path id="c" d="M213.007 188.113a1.068 1.068 0 0 1-1.102-1.063v-11.095a6.497 6.497 0 0 0-12.994 0v11.095a1.083 1.083 0 0 1-2.166 0v-18.048a1.083 1.083 0 0 1 2.166 0v1.216a8.667 8.667 0 0 1 15.16 5.737v11.095a1.059 1.059 0 0 1-1.064 1.063z"/><path id="d" d="M441.802 188.835c-2.28 0-6.117-.798-7.447-3a.922.922 0 0 1-.151-.57 1.036 1.036 0 0 1 1.938-.607c1.367 1.67 3.8 2.014 5.66 2.014 3.686 0 5.547-1.216 5.547-3.686 0-5.737-12.462-2.698-12.462-10.297 0-3.837 3.837-5.32 7.295-5.32 1.976 0 5.016.685 6.535 2.204a1.064 1.064 0 0 1 .342.722 1.232 1.232 0 0 1-1.178 1.14 1.006 1.006 0 0 1-.722-.304 7.599 7.599 0 0 0-4.978-1.596c-3.344 0-5.13 1.292-5.13 3.153 0 5.32 12.462 2.508 12.462 10.297 0 4.33-3.8 5.85-7.713 5.85z"/></defs><rect width="1080" height="1080" rx="40" fill="url(#A)"/><g class="K L"><use xlink:href="#C"/><path d="M53.347 1005.235c-3.776 0-5.568-3.52-5.568-11.87s1.792-11.87 5.568-11.87 5.567 3.52 5.567 11.87-1.8 11.87-5.567 11.87zm0-21.822c-2.112 0-3.264 2.368-3.264 9.95s1.152 9.95 3.264 9.95 3.264-2.367 3.264-9.95-1.152-9.95-3.264-9.95zm12.288 21.822c-3.776 0-5.567-3.52-5.567-11.87s1.8-11.87 5.567-11.87 5.567 3.52 5.567 11.87-1.8 11.87-5.567 11.87zm0-21.822c-2.112 0-3.264 2.368-3.264 9.95s1.152 9.95 3.264 9.95 3.264-2.367 3.264-9.95-1.152-9.95-3.264-9.95zm7.105-1.6h10.367v1.216l-6.72 21.887h-2.432l6.72-21.183H72.74z"/></g><g class="K L"><use xlink:href="#C" x="962.288"/><path d="M1015.636 1005.235c-3.776 0-5.568-3.52-5.568-11.87s1.792-11.87 5.568-11.87 5.567 3.52 5.567 11.87-1.792 11.87-5.567 11.87zm0-21.822c-2.112 0-3.264 2.368-3.264 9.95s1.152 9.95 3.264 9.95 3.264-2.367 3.264-9.95-1.152-9.95-3.264-9.95z"/><use xlink:href="#D"/><path d="M1035.028 981.813h10.367v1.216l-6.72 21.887h-2.432l6.72-21.183h-7.936z"/></g><path d="M35.332 944.178v-2.1h7.872v2.1zm17.278-11.55c-.32-2.304-1.6-2.687-2.496-2.687-2.048 0-3.328 2.815-3.392 9.247a5.017 5.017 0 0 1 3.552-1.76c2.592 0 4.96 1.855 4.96 7.104 0 4.48-1.92 7.23-4.96 7.23-4 0-5.92-2.304-5.92-10.624 0-9.28 2.176-13.118 5.823-13.118 2.976 0 4.096 1.8 4.544 4.48zm-5.952 10.88c0 4.672 1.216 6.336 3.264 6.336 1.792 0 3.008-1.344 3.008-5.344 0-4.128-1.408-5.15-2.88-5.15a4.385 4.385 0 0 0-3.392 1.983z" class="K L"/><path d="M35.332 746.228v-2.1h7.872v2.1zM53.155 730.4v15.935h2.4v1.92h-2.4v5.248H50.85v-5.248h-7.4v-1.088l6.335-16.767zm-7.52 15.935h5.215V732.5h-.064z" class="K L"/><path d="M35.332 844.703v-2.1h7.872v2.1zm11.264 1.887c.192 1.664.896 3.776 2.944 3.776 1.984 0 3.456-2.048 3.456-6.048 0-4.32-1.472-5.663-3.168-5.663a3.184 3.184 0 0 0-2.912 2.239l-1.792-.32.768-11.7h8.127l-.192 1.92h-6.08l-.448 7.04a4.788 4.788 0 0 1 3.072-1.088c2.688 0 4.927 2.495 4.927 7.52 0 5.28-2.56 8.032-5.63 8.032-3.328 0-4.992-2.496-5.184-5.504z" class="K L"/><path d="M35.332 547.277v-2.1h7.872v2.1zm8.896 7.263v-1.92c2.048-6.848 8.447-10.687 8.447-15.934 0-2.432-1.216-3.648-2.784-3.648-1.824 0-3.168 1.408-3.36 4.863h-2.11c.256-5.248 2.624-6.783 5.407-6.783 3.04 0 5.152 2.05 5.152 5.887 0 5.76-5.184 7.553-8.64 15.615h8.767v1.92z" class="K L"/><path d="M35.332 646.753v-2.1h7.872v2.1zm9.28-11.23c.256-2.72 1.728-4.927 4.704-4.927 2.592 0 5.152 1.8 5.152 5.63 0 3.264-1.344 5.12-3.008 5.44v.064c2.592.864 3.392 3.296 3.392 5.76 0 4.735-2.752 6.848-5.632 6.848-3.072 0-5.15-2.464-5.184-5.824h2.112c.192 2.496 1.28 3.904 3.328 3.904 1.536 0 3.072-1.664 3.072-4.832 0-3.808-1.6-4.896-5.248-4.896v-1.92c3.456 0 4.864-.832 4.864-4.416 0-2.75-1.088-3.84-2.687-3.84-1.984 0-2.688 1.663-2.752 3.264z" class="K L"/><path d="M41.06 355.9c-3.776 0-5.568-3.52-5.568-11.87s1.792-11.87 5.568-11.87 5.567 3.52 5.567 11.87-1.792 11.87-5.567 11.87zm0-21.822c-2.112 0-3.264 2.367-3.264 9.95S38.948 354 41.06 354s3.264-2.368 3.264-9.95-1.152-9.95-3.264-9.95z" class="K L"/><g class="K L"><path d="M42.5 240.477h2.112v7.263h7.263v2.112H44.61v7.264H42.5v-7.264h-7.264v-2.112H42.5z"/><use xlink:href="#D" x="-969.585" y="-747.8"/></g><path d="M35.332 447.802v-2.1h7.872v2.1zm10.75 7.264v-1.92H48.9v-18.56l-2.88.256v-1.408a8.857 8.857 0 0 0 3.648-1.791h1.536v21.502h2.688v1.92z" class="K L"/><g fill="none" stroke-linejoin="round"><g stroke="#fff"><path d="M33.956 861.975h1011.98M33.956 663.493h1011.98M33.956 465.02h1011.98M33.956 266.548h1011.98M33.956 961.206h1011.98M33.956 762.734h1011.98M33.956 564.26h1011.98M33.956 365.8h1011.98" opacity=".2" stroke-width="2"/><g stroke-width="5"><path d="M33.956 364.79c25.328 0 75.905 99.23 101.198 99.23H236.35c16.482 0 101.198 99.24 101.198 99.24h404.796c25.118 0 75.703 99.233 101.196 99.233h202.394"/><path d="M33.956 364.79c25.328 0 75.905 99.23 101.198 99.23 25.284 0 75.87-99.23 101.196-99.23H337.55c25.23 0 75.817-99.24 101.196-99.24h101.198c25.178 0 75.764 99.24 101.196 99.24h101.205c25.118 0 75.703-99.24 101.196-99.24h202.394"/></g></g><path d="M33.956 364.79c25.328 0 75.905 99.23 101.198 99.23H236.35c25.26 0 177.015 198.474 202.395 198.474h101.198c25.178 0 101.196 99.24 101.196 99.24s75.738 99.24 101.205 99.24H843.54c25.092 0 75.678 99.23 101.198 99.23h101.196" stroke-width="7" stroke="url(#B)"/></g><g class="K"><path d="M250.878 353.6a.787.787 0 0 1-.812-.784v-8.176a4.788 4.788 0 1 0-9.576 0v8.176a.798.798 0 0 1-1.596 0V334.44a.798.798 0 0 1 1.596 0v5.963a6.221 6.221 0 0 1 4.788-2.155 6.435 6.435 0 0 1 6.384 6.384v8.176a.781.781 0 0 1-.784.784z"/><use xlink:href="#E"/><path d="M265.635 354.122c-1.68 0-4.508-.588-5.488-2.213a.675.675 0 0 1-.112-.42.763.763 0 0 1 1.428-.447c1.008 1.232 2.8 1.484 4.172 1.484 2.716 0 4.088-.896 4.088-2.717 0-4.228-9.184-1.988-9.184-7.588 0-2.828 2.828-3.92 5.376-3.92a7.585 7.585 0 0 1 4.816 1.624.784.784 0 0 1 .252.532.908.908 0 0 1-.868.84.743.743 0 0 1-.532-.225 5.599 5.599 0 0 0-3.668-1.176c-2.464 0-3.78.953-3.78 2.324 0 3.92 9.184 1.848 9.184 7.588 0 3.192-2.8 4.313-5.684 4.313zm15.652-.056a6.352 6.352 0 0 1-5.432-2.66v7.252a.798.798 0 1 1-1.596 0v-19.15a.798.798 0 0 1 1.596 0v1.372a6.401 6.401 0 0 1 5.432-2.632c4.508 0 7.028 3.696 7.028 7.896 0 4.23-2.52 7.924-7.028 7.924zm0-14.224c-3.332 0-5.432 2.66-5.432 6.3s2.1 6.328 5.432 6.328 5.432-2.687 5.432-6.328-2.1-6.3-5.432-6.3zm24.976 13.758h-.028a2.899 2.899 0 0 1-2.772-2.185 6.351 6.351 0 0 1-5.432 2.66c-4.564 0-7.028-3.752-7.028-7.924 0-4.228 2.52-7.896 7.028-7.896a6.4 6.4 0 0 1 5.432 2.632v-1.372a.789.789 0 0 1 .812-.784.765.765 0 0 1 .784.784V350.8c0 1.792 2.016.672 2.016 2.016a.77.77 0 0 1-.812.784zm-8.232-13.748c-3.304 0-5.432 2.66-5.432 6.3s2.128 6.328 5.432 6.328c3.332 0 5.432-2.687 5.432-6.328s-2.1-6.3-5.432-6.3zm23.575 13.748a.787.787 0 0 1-.812-.784v-8.176a4.788 4.788 0 1 0-9.576 0v8.176a.798.798 0 0 1-1.596 0v-13.3a.798.798 0 0 1 1.596 0v.896a6.388 6.388 0 0 1 11.172 4.229v8.176a.781.781 0 0 1-.784.784z"/><use xlink:href="#E" x="70.728"/><path d="M343.082 351.94a6.505 6.505 0 0 1-5.012 2.127c-4.508 0-7.028-3.695-7.028-7.924 0-4.2 2.52-7.896 7.028-7.896a6.503 6.503 0 0 1 5.012 2.128.74.74 0 0 1 .224.531.878.878 0 0 1-.812.841.824.824 0 0 1-.588-.28 4.936 4.936 0 0 0-3.836-1.624c-3.304 0-5.432 2.66-5.432 6.3s2.128 6.328 5.432 6.328a5.029 5.029 0 0 0 3.836-1.624.794.794 0 0 1 1.4.532.807.807 0 0 1-.224.56zM367.33 537.7l-4.564 13.16c-.196.53-.448.672-.812.672-.476 0-.616-.168-.784-.672l-3.668-10.92-3.668 10.92c-.196.53-.448.672-.812.672a.819.819 0 0 1-.784-.672l-4.536-13.16a1.182 1.182 0 0 1-.056-.309.796.796 0 0 1 .812-.728.727.727 0 0 1 .728.532l3.836 11.088 3.668-10.948c.168-.532.336-.672.812-.672.336 0 .616.112.784.672l3.714 10.96 3.78-11.088a.726.726 0 0 1 .728-.532.758.758 0 0 1 .812 1.036zm14.728 13.842a.787.787 0 0 1-.812-.784v-8.176a4.788 4.788 0 1 0-9.576 0v8.176a.798.798 0 0 1-1.596 0V532.4a.798.798 0 0 1 1.596 0v5.964a6.218 6.218 0 0 1 4.788-2.155 6.435 6.435 0 0 1 6.384 6.384v8.176a.781.781 0 0 1-.784.784zm5.32-17.556a1.596 1.596 0 1 1 1.596-1.596 1.577 1.577 0 0 1-1.596 1.596zm0 17.557a.77.77 0 0 1-.812-.784v-13.3a.772.772 0 0 1 .812-.784.763.763 0 0 1 .784.784v13.3a.749.749 0 0 1-.784.784zm9.884-.001h-.868c-2.212 0-3.304-1.092-3.304-3.276v-9.996h-1.428a.798.798 0 0 1 0-1.596h1.428V532.4a.787.787 0 0 1 .812-.784.765.765 0 0 1 .784.784v4.284h2.576a.798.798 0 0 1 0 1.596h-2.576v9.996c0 1.372.392 1.68 1.708 1.68h.868a.798.798 0 0 1 0 1.597zm15.96-6.636h-11.62c.252 3.2 2.324 5.516 5.376 5.516a5.061 5.061 0 0 0 4.116-1.932.734.734 0 0 1 .672-.393.856.856 0 0 1 .868.756c0 .252 0 .3-.532.924a6.609 6.609 0 0 1-5.124 2.24c-4.508 0-7.028-3.696-7.028-7.924 0-4.2 2.52-7.895 7.028-7.895s7.028 3.724 7.028 7.895a.848.848 0 0 1-.784.813zm-6.244-7.112c-3.36 0-5.124 2.576-5.376 5.516h10.78c-.252-3.2-2.324-5.516-5.404-5.516z"/></g><path d="M451.644 651.494a6.354 6.354 0 0 1-5.432-2.66v1.4a.798.798 0 0 1-1.596 0v-18.367a.798.798 0 0 1 1.596 0v6.44a6.401 6.401 0 0 1 5.432-2.632c4.508 0 7.028 3.696 7.028 7.896 0 4.228-2.52 7.924-7.028 7.924zm0-14.225c-3.332 0-5.432 2.66-5.432 6.3s2.1 6.327 5.432 6.327 5.432-2.687 5.432-6.327-2.1-6.3-5.432-6.3zm13.132 13.917a2.934 2.934 0 0 1-2.772-2.968v-16.352a.798.798 0 0 1 1.596 0v16.352c0 1.792 1.988.756 1.988 2.016a.903.903 0 0 1-.812.952zm17.976-.168h-.028a2.899 2.899 0 0 1-2.772-2.184 6.353 6.353 0 0 1-5.432 2.66c-4.564 0-7.028-3.752-7.028-7.924 0-4.23 2.52-7.896 7.028-7.896a6.4 6.4 0 0 1 5.432 2.632v-1.372a.79.79 0 0 1 .812-.784.765.765 0 0 1 .784.784v11.284c0 1.792 2.016.672 2.016 2.016a.77.77 0 0 1-.812.784zm-8.232-13.748c-3.304 0-5.432 2.66-5.432 6.3s2.128 6.327 5.432 6.327c3.332 0 5.432-2.687 5.432-6.327s-2.1-6.3-5.432-6.3zm22.987 12.096a6.503 6.503 0 0 1-5.012 2.128c-4.508 0-7.028-3.696-7.028-7.924 0-4.2 2.52-7.896 7.028-7.896a6.503 6.503 0 0 1 5.012 2.128.742.742 0 0 1 .224.532.877.877 0 0 1-.812.84.824.824 0 0 1-.588-.28 4.936 4.936 0 0 0-3.836-1.624c-3.304 0-5.432 2.66-5.432 6.3s2.128 6.327 5.432 6.327a5.029 5.029 0 0 0 3.836-1.624.795.795 0 0 1 1.4.532.804.804 0 0 1-.224.56zm14.056-11.844l-4.816 4.816 4.76 7.448a.79.79 0 0 1 .168.447.851.851 0 0 1-.84.757.792.792 0 0 1-.672-.364l-4.592-7.14-2.884 2.9v3.836a.798.798 0 0 1-1.596 0v-18.367a.798.798 0 0 1 1.596 0v12.264l7.728-7.728a.785.785 0 0 1 .588-.253.808.808 0 0 1 .812.784.784.784 0 0 1-.252.588z" fill="#ffaf53"/><g opacity=".4" class="M"><path d="M42.328 1046.045a7.892 7.892 0 0 1-5.503-2.002 1.364 1.364 0 0 1-1.468 1.401 1.346 1.346 0 0 1-1.401-1.401v-20.88a1.435 1.435 0 0 1 2.869-.033v6.238a7.4 7.4 0 0 1 5.503-2.169c5.37 0 8.373 4.403 8.373 9.406 0 5.037-3.002 9.44-8.373 9.44zm0-16c-3.335 0-5.503 2.602-5.503 6.57 0 4.003 2.168 6.604 5.503 6.604s5.504-2.602 5.504-6.604c0-3.97-2.168-6.57-5.504-6.57zm25.555 8.037h-12.34c.467 3.136 2.468 5.137 5.403 5.137a5.003 5.003 0 0 0 3.969-1.734 1.383 1.383 0 0 1 1.034-.533 1.556 1.556 0 0 1 1.501 1.468c0 .4-.1.7-.8 1.4a8.129 8.129 0 0 1-5.704 2.235c-5.37 0-8.372-4.437-8.372-9.44 0-4.97 3.002-9.406 8.372-9.406 5.437 0 8.34 4.437 8.34 9.406a1.422 1.422 0 0 1-1.401 1.468zm-6.937-8.038c-3.136 0-4.97 2.3-5.403 5.17H66.35c-.467-3.202-2.468-5.17-5.403-5.17zM88 1045.478a3.247 3.247 0 0 1-2.969-1.901 7.642 7.642 0 0 1-5.87 2.469c-5.437 0-8.372-4.47-8.372-9.44s3.002-9.406 8.372-9.406a7.369 7.369 0 0 1 5.504 2.202v-.134a1.376 1.376 0 0 1 1.4-1.501 1.341 1.341 0 0 1 1.468 1.401v12.875a.54.54 0 0 0 .467.601 1.418 1.418 0 1 1 0 2.835zm-8.84-15.443c-3.336 0-5.504 2.602-5.504 6.57 0 4.003 2.168 6.604 5.504 6.604 3.37 0 5.504-2.602 5.504-6.604 0-3.97-2.135-6.57-5.504-6.57z"/><use xlink:href="#F"/><path d="M115.158 1045.478h-.567c-3.17 0-4.37-1.668-4.37-4.403V1030.6h-1a1.418 1.418 0 1 1-.033-2.835h1v-4.637a1.355 1.355 0 0 1 1.435-1.4 1.328 1.328 0 0 1 1.401 1.4v4.637h2.135a1.383 1.383 0 0 1 1.4 1.401 1.356 1.356 0 0 1-1.4 1.434h-2.135v10.774c0 .934.333 1.268 1.268 1.268h.833a1.376 1.376 0 0 1 1.435 1.4 1.357 1.357 0 0 1-1.4 1.435zm4.604-20.415a2.401 2.401 0 1 1 2.402-2.401 2.392 2.392 0 0 1-2.402 2.401zm0 20.414a1.4 1.4 0 0 1-1.467-1.401V1029.2a1.408 1.408 0 0 1 1.467-1.435 1.374 1.374 0 0 1 1.401 1.435v14.876a1.346 1.346 0 0 1-1.401 1.401zm10.376-14.877h-1.5v13.442a1.364 1.364 0 0 1-1.468 1.401 1.346 1.346 0 0 1-1.401-1.401V1030.6h-1.37a1.418 1.418 0 0 1 0-2.835h1.367v-2.27a3.801 3.801 0 0 1 3.836-3.769 1.418 1.418 0 1 1 0 2.835.934.934 0 0 0-.967.9v2.302h1.5a1.418 1.418 0 1 1 0 2.835z"/><use xlink:href="#F" x="42.068"/><path d="M154.725 1045.544a3.403 3.403 0 0 1-3.336-3.402v-18.98a1.435 1.435 0 0 1 2.869-.033v19.013a.527.527 0 0 0 .467.567 1.418 1.418 0 1 1 0 2.835zm15.37-.066v-1.264c1.886-.237 2.046-.437 2.046-3.157v-6.7c0-2.8-1.248-4.017-3.064-4.017a5.597 5.597 0 0 0-3.47 1.493v9.476c0 2.527.187 2.658 2.06 2.896v1.264h-8.968v-1.264c2.254-.33 2.5-.4 2.5-3v-8.2c0-2.446-.303-2.565-2.185-2.922v-1.184a34.101 34.101 0 0 0 6.653-1.533l-.052 2.95 2.6-1.745a5.659 5.659 0 0 1 3.159-1.086c3.194 0 5.2 2.338 5.2 6.3v7.5c0 2.54.237 2.657 2.277 2.92v1.264zm23.9-3.703c-2.458 3.427-5.488 4.178-7.014 4.178-5.142 0-8.124-3.936-8.124-8.594a10.333 10.333 0 0 1 2.832-7.062 8.602 8.602 0 0 1 6.082-2.814 6.386 6.386 0 0 1 6.37 6.347c-.014.715-.08 1.277-.612 1.4-.767.184-6.17.5-10.318.647.062 4.587 2.717 6.74 5.556 6.74a6.776 6.776 0 0 0 4.543-1.866zm-7.07-12.7c-1.667 0-3.167 1.807-3.516 4.963l5.486-.118c.6-.026.848-.146.848-.792.04-2.022-1.037-4.053-2.818-4.053zm34.284.145c-1.943.343-2.248.624-3.105 2.765-1.33 3.462-3.102 8.53-4.934 13.94h-1.512l-4.65-11.46-4.55 11.46h-1.472l-4.685-14.192c-.687-1.985-.94-2.274-2.855-2.512v-1.25h9.397v1.25c-2.325.345-2.535.672-2.058 2.133l2.52 8.214c1.507-3.68 2.988-7.62 4.327-11.424h1.456c1.4 3.76 2.986 7.702 4.573 11.568.742-2.107 2.062-5.964 2.557-8.108.412-1.674-.008-2.078-2.753-2.383v-1.25h7.742zm9.4 3.746c-.92-2.606-2.155-3.984-4.2-3.984a2.166 2.166 0 0 0-2.225 2.266c0 1.497 1.046 2.264 3.16 3.216 3.278 1.496 5.3 2.787 5.3 5.736 0 3.85-3.6 5.764-6.945 5.764a12.073 12.073 0 0 1-4.92-1.161l-.662-4.892 1.252-.224c.8 2.5 2.33 4.75 4.976 4.75a2.231 2.231 0 0 0 2.438-2.281c0-1.423-.76-2.333-3.092-3.467-2.67-1.295-5.107-2.64-5.107-5.775 0-3.046 2.533-5.42 6.565-5.42a18.751 18.751 0 0 1 4.112.567l.62 4.577z"/></g><g class="L M"><use xlink:href="#G"/><use xlink:href="#H"/><use xlink:href="#I"/><use xlink:href="#J"/><use xlink:href="#K"/><use xlink:href="#L"/><path d="M767.044 1039.416a1.14 1.14 0 1 1 0-2.28 1.14 1.14 0 0 1 0 2.28zm0 6.562a1.14 1.14 0 1 1 0-2.28 1.14 1.14 0 0 1 0 2.28zm13.642.36a5.012 5.012 0 0 1-5.021-5.021v-9.02a.58.58 0 0 1 1.16 0v9.02a3.871 3.871 0 1 0 7.742 0v-9.02a.57.57 0 0 1 1.14 0v9.02a5.011 5.011 0 0 1-5.021 5.021z"/><use xlink:href="#M"/><path d="M810.986 1045.978h-5.802a.606.606 0 0 1-.58-.561v-13.122a.495.495 0 0 1 .521-.561h5.42a3.616 3.616 0 0 1 3.601 3.561 3.471 3.471 0 0 1-1.42 2.861 4.1 4.1 0 0 1-1.74 7.821zm-.44-13.123h-4.8v4.92h4.8a2.46 2.46 0 1 0 0-4.921zm.44 6.062h-5.24v5.92h5.24a2.961 2.961 0 1 0 0-5.921z"/><use xlink:href="#I" x="92.519"/><use xlink:href="#J" x="92.519"/><use xlink:href="#L" x="81.355"/><use xlink:href="#N"/><use xlink:href="#I" x="135.233"/><use xlink:href="#H" x="163.873"/><path d="M892.5 1032.855h-.62a.885.885 0 0 0-.881.86v1.64h1.5a.544.544 0 0 1 .56.56.562.562 0 0 1-.56.58H891v8.922a.546.546 0 0 1-.56.561.534.534 0 0 1-.561-.561v-8.922h-1.38a.57.57 0 0 1 0-1.14h1.38v-1.64a1.985 1.985 0 0 1 1.98-1.98h.64a.568.568 0 0 1 .58.58.536.536 0 0 1-.58.54zm10.9 13.403a3.599 3.599 0 0 1-3.621-3.581.58.58 0 1 1 1.16 0 2.433 2.433 0 0 0 2.421 2.44 2.459 2.459 0 0 0 2.48-2.44v-10.382a.546.546 0 0 1 .561-.561.563.563 0 0 1 .58.561v10.382a3.603 3.603 0 0 1-3.581 3.581z"/><use xlink:href="#I" x="184.853"/><use xlink:href="#G" x="218.094"/><use xlink:href="#O"/><use xlink:href="#P"/><use xlink:href="#K" x="197.773"/><use xlink:href="#L" x="197.773"/><use xlink:href="#M" x="180.234"/><use xlink:href="#O" x="48.838"/><use xlink:href="#N" x="138.62"/><use xlink:href="#O" x="67.718"/><use xlink:href="#P" x="67.719"/><use xlink:href="#G" x="305.331"/><use xlink:href="#O" x="87.237"/><use xlink:href="#P" x="87.238"/><use xlink:href="#K" x="285.011"/><use xlink:href="#G" x="335.551"/></g><g class="M"><path d="M53.44 80H37.3a2.729 2.729 0 0 1-2.64-2.52V39.862a2.51 2.51 0 0 1 2.52-2.58h14.88a11.255 11.255 0 0 1 11.22 11.1 10.802 10.802 0 0 1-3.42 7.98 12.41 12.41 0 0 1 6.3 10.919 12.804 12.804 0 0 1-12.719 12.72zM52.06 42.38H39.82V54.5h12.24a6.06 6.06 0 1 0 0-12.119zm1.38 17.22H39.82v15.3h13.62a7.65 7.65 0 0 0 0-15.3z"/><use xlink:href="#Q"/><use xlink:href="#R"/><use xlink:href="#S"/><path d="M168.697 52.52l-8.94 8.94 9.3 14.58a3.293 3.293 0 0 1 .42 1.44 2.705 2.705 0 0 1-2.7 2.58 2.429 2.429 0 0 1-2.04-1.2l-8.76-13.62-5.1 5.1v7.14a2.581 2.581 0 0 1-5.16 0V39.8a2.42 2.42 0 0 1 2.52-2.52 2.453 2.453 0 0 1 2.64 2.52v23.28l14.16-14.16a2.573 2.573 0 0 1 1.92-.78 2.682 2.682 0 0 1 2.58 2.58 2.642 2.642 0 0 1-.84 1.8zM192.636 80h-6.9a2.55 2.55 0 0 1 0-5.1h.9V42.38h-.9a2.55 2.55 0 0 1 0-5.1h6.9a2.551 2.551 0 1 1 0 5.1h-.9V74.9h.9a2.551 2.551 0 1 1 0 5.1zm31.44 0a2.423 2.423 0 0 1-2.52-2.52V60.8a8.55 8.55 0 1 0-17.099 0v16.62a2.55 2.55 0 0 1-2.64 2.641 2.472 2.472 0 0 1-2.52-2.58V50.66a2.386 2.386 0 0 1 2.52-2.52 2.509 2.509 0 0 1 2.58 1.979 13.703 13.703 0 0 1 22.259 10.68v16.62a2.454 2.454 0 0 1-2.58 2.58z"/><use xlink:href="#S" x="115.738"/><path d="M291.034 80a5.839 5.839 0 0 1-5.34-3.42 13.746 13.746 0 0 1-10.56 4.44c-9.78 0-15.06-8.04-15.06-16.98s5.4-16.92 15.06-16.92a13.258 13.258 0 0 1 9.899 3.96v-.24a2.476 2.476 0 0 1 2.52-2.7 2.412 2.412 0 0 1 2.64 2.52v23.16a.971.971 0 0 0 .84 1.08 2.55 2.55 0 1 1 0 5.1zm-15.9-27.778c-6 0-9.9 4.68-9.9 11.82 0 7.2 3.9 11.88 9.9 11.88 6.06 0 9.9-4.68 9.9-11.88 0-7.14-3.84-11.82-9.9-11.82zm35.34-.002a8.643 8.643 0 0 0-8.52 8.579v16.62a2.501 2.501 0 0 1-2.64 2.58 2.456 2.456 0 0 1-2.52-2.52V50.72a2.541 2.541 0 0 1 2.52-2.58 2.463 2.463 0 0 1 2.58 2.04 13.874 13.874 0 0 1 8.58-3.061 2.552 2.552 0 1 1 0 5.101z"/><use xlink:href="#S" x="197.697"/><use xlink:href="#T"/><path d="M389.852 52.22a8.643 8.643 0 0 0-8.52 8.579v16.62a2.501 2.501 0 0 1-2.64 2.58 2.456 2.456 0 0 1-2.52-2.52V50.72a2.541 2.541 0 0 1 2.52-2.58 2.463 2.463 0 0 1 2.58 2.04 13.876 13.876 0 0 1 8.58-3.061 2.552 2.552 0 1 1 0 5.101z"/><use xlink:href="#R" x="311.022"/><path d="M437.66 80h-1.02c-5.7 0-7.86-3-7.86-7.92V53.24h-1.8a2.55 2.55 0 1 1-.06-5.1h1.8V39.8a2.436 2.436 0 0 1 2.58-2.52 2.389 2.389 0 0 1 2.52 2.52v8.34h3.84a2.487 2.487 0 0 1 2.52 2.52 2.441 2.441 0 0 1-2.52 2.58h-3.84v19.38c0 1.68.6 2.28 2.28 2.28h1.5a2.475 2.475 0 0 1 2.58 2.52 2.441 2.441 0 0 1-2.52 2.58zm8.28-36.72a4.32 4.32 0 1 1 4.32-4.319 4.302 4.302 0 0 1-4.32 4.319zm0 36.72a2.52 2.52 0 0 1-2.64-2.52V50.72a2.533 2.533 0 0 1 2.64-2.58 2.472 2.472 0 0 1 2.52 2.58v26.76a2.421 2.421 0 0 1-2.52 2.52zm22.558 1.02c-9.66 0-15.06-7.92-15.06-16.98 0-9 5.4-16.92 15.06-16.92s15.06 7.92 15.06 16.92c0 9.06-5.4 16.98-15.06 16.98zm0-28.8c-6 0-9.9 4.68-9.9 11.82 0 7.2 3.9 11.88 9.9 11.88 6.06 0 9.9-4.68 9.9-11.88 0-7.14-3.84-11.82-9.9-11.82zM513.078 80a2.423 2.423 0 0 1-2.521-2.52V60.8a8.55 8.55 0 1 0-17.099 0v16.62a2.551 2.551 0 0 1-2.64 2.641 2.472 2.472 0 0 1-2.52-2.58V50.66a2.386 2.386 0 0 1 2.52-2.52 2.509 2.509 0 0 1 2.58 1.979 13.702 13.702 0 0 1 22.259 10.68v16.62a2.453 2.453 0 0 1-2.579 2.58z"/></g><g class="K"><path d="M560.896 80.06a2.574 2.574 0 0 1-1.979-1.08l-12.48-17.46h-7.74v15.9a2.5 2.5 0 0 1-2.64 2.58 2.456 2.456 0 0 1-2.52-2.52V39.862a2.491 2.491 0 0 1 2.52-2.58h15.54c5.28 0 12.06 4.14 12.06 12.06a12.095 12.095 0 0 1-11.039 12.119l10.5 14.46a2.355 2.355 0 0 1 .539 1.561 2.76 2.76 0 0 1-2.76 2.58zm-9.36-37.68h-12.84v14.04h12.78a7.02 7.02 0 0 0 .06-14.039zM597.977 80a5.836 5.836 0 0 1-5.34-3.42 13.746 13.746 0 0 1-10.56 4.44c-9.78 0-15.06-8.04-15.06-16.98s5.4-16.92 15.06-16.92a13.259 13.259 0 0 1 9.899 3.96v-.24a2.476 2.476 0 0 1 2.52-2.7 2.412 2.412 0 0 1 2.64 2.52v23.16a.971.971 0 0 0 .841 1.08 2.55 2.55 0 1 1 0 5.1zm-15.9-27.778c-6 0-9.9 4.68-9.9 11.82 0 7.2 3.9 11.88 9.9 11.88 6.06 0 9.9-4.68 9.9-11.88 0-7.14-3.84-11.82-9.9-11.82zM613.877 80h-1.02c-5.7 0-7.86-3-7.86-7.92V53.24h-1.8a2.55 2.55 0 1 1-.061-5.1h1.8V39.8a2.436 2.436 0 0 1 2.579-2.52 2.39 2.39 0 0 1 2.52 2.52v8.34h3.84a2.487 2.487 0 0 1 2.52 2.52 2.44 2.44 0 0 1-2.52 2.58h-3.84v19.38c0 1.68.6 2.28 2.28 2.28h1.5a2.475 2.475 0 0 1 2.58 2.52 2.44 2.44 0 0 1-2.519 2.58z"/><use xlink:href="#U"/><path d="M662.175 81.02c-3.3 0-8.82-1.02-11.64-4.5a2.655 2.655 0 0 1 2.16-4.26 2.462 2.462 0 0 1 1.859 1.02c1.86 2.04 4.92 2.64 7.62 2.64 5.4 0 7.14-1.86 7.14-4.56 0-7.68-18.3-2.94-18.3-15.3 0-6.54 6.12-8.94 11.82-8.94 3.24 0 10.86 1.62 10.86 4.98a2.694 2.694 0 0 1-2.521 2.699 3.615 3.615 0 0 1-1.979-.779c-1.62-1.38-3.96-1.8-6.36-1.8-4.98 0-6.72 1.86-6.72 3.84 0 7.14 18.36 2.52 18.36 15.3 0 7.08-5.94 9.66-12.3 9.66zM720.733 80a2.456 2.456 0 0 1-2.28-1.56l-3.18-7.8h-19.98l-3.24 7.8a2.439 2.439 0 0 1-2.22 1.56 2.65 2.65 0 0 1-2.7-2.52 1.969 1.969 0 0 1 .24-1.021l15.42-37.498a2.621 2.621 0 0 1 2.46-1.86 2.725 2.725 0 0 1 2.46 1.86l15.48 37.498a2.805 2.805 0 0 1 .18 1.021 2.56 2.56 0 0 1-2.64 2.52zm-15.48-33.6l-7.86 19.08h15.72zm34.44 5.82a8.644 8.644 0 0 0-8.521 8.579v16.62a2.5 2.5 0 0 1-2.64 2.58 2.456 2.456 0 0 1-2.52-2.52V50.72a2.541 2.541 0 0 1 2.52-2.58 2.463 2.463 0 0 1 2.58 2.04 13.875 13.875 0 0 1 8.58-3.061 2.552 2.552 0 1 1 0 5.101z"/><use xlink:href="#U" x="122.626"/><path d="M814.68 42.38h-22.44V54.5h15.72a2.561 2.561 0 0 1 2.58 2.58 2.524 2.524 0 0 1-2.58 2.58h-15.72v17.82a2.574 2.574 0 0 1-2.52 2.52 2.601 2.601 0 0 1-2.64-2.52V39.862a2.612 2.612 0 0 1 2.64-2.58h24.96a2.425 2.425 0 0 1 2.52 2.52 2.505 2.505 0 0 1-2.52 2.58zm9.72.9a4.32 4.32 0 1 1 4.319-4.319 4.302 4.302 0 0 1-4.319 4.319zm0 36.72a2.519 2.519 0 0 1-2.64-2.52V50.72a2.533 2.533 0 0 1 2.64-2.58 2.471 2.471 0 0 1 2.52 2.58v26.76A2.42 2.42 0 0 1 824.4 80zm33.66 0a2.423 2.423 0 0 1-2.52-2.52V60.8a8.55 8.55 0 1 0-17.1 0v16.62a2.55 2.55 0 0 1-2.64 2.641 2.472 2.472 0 0 1-2.52-2.58V50.66a2.386 2.386 0 0 1 2.52-2.52 2.509 2.509 0 0 1 2.58 1.979 13.702 13.702 0 0 1 22.259 10.68v16.62a2.453 2.453 0 0 1-2.58 2.58zm37.74 0a5.836 5.836 0 0 1-5.34-3.42 13.746 13.746 0 0 1-10.56 4.44c-9.78 0-15.06-8.04-15.06-16.98s5.4-16.92 15.06-16.92a13.259 13.259 0 0 1 9.899 3.96v-.24a2.476 2.476 0 0 1 2.52-2.7 2.412 2.412 0 0 1 2.64 2.52v23.16a.971.971 0 0 0 .841 1.08 2.55 2.55 0 1 1 0 5.1zm-15.9-27.78c-6 0-9.9 4.68-9.9 11.82 0 7.2 3.9 11.88 9.9 11.88 6.06 0 9.9-4.68 9.9-11.88 0-7.14-3.84-11.82-9.9-11.82z"/><use xlink:href="#Q" x="831.68"/><use xlink:href="#Q" x="842.958"/><path d="M950.097 51.74l-16.2 36.84a6.876 6.876 0 0 1-6.6 4.02h-1.92a2.419 2.419 0 0 1-2.52-2.64 2.387 2.387 0 0 1 2.52-2.521h1.86a1.894 1.894 0 0 0 1.979-.96l3.96-8.88-11.7-25.86a2.164 2.164 0 0 1-.301-1.14 2.706 2.706 0 0 1 2.76-2.521 2.309 2.309 0 0 1 2.16 1.561l9.78 21.72 9.54-21.72a2.375 2.375 0 0 1 2.22-1.5 2.659 2.659 0 0 1 2.76 2.46 2.033 2.033 0 0 1-.3 1.14zM62.26 103.58H39.82v12.12h15.72a2.561 2.561 0 0 1 2.58 2.58 2.524 2.524 0 0 1-2.58 2.58H39.82v17.82a2.581 2.581 0 0 1-5.16 0v-37.618a2.612 2.612 0 0 1 2.64-2.58h24.96a2.425 2.425 0 0 1 2.52 2.52 2.505 2.505 0 0 1-2.52 2.58z"/><use xlink:href="#R" x="-17.404" y="61.2"/><use xlink:href="#V"/><use xlink:href="#V" x="11.279"/><use xlink:href="#W"/><path d="M158.072 141.2a2.423 2.423 0 0 1-2.52-2.52V122a8.55 8.55 0 1 0-17.099 0v16.62a2.551 2.551 0 0 1-2.64 2.641 2.472 2.472 0 0 1-2.52-2.58v-26.82a2.387 2.387 0 0 1 2.52-2.52 2.509 2.509 0 0 1 2.58 1.98A13.703 13.703 0 0 1 160.652 122v16.62a2.454 2.454 0 0 1-2.58 2.58zm21.84 13.68c-3.66 0-12.72-1.32-12.72-4.92a2.794 2.794 0 0 1 2.58-2.7c1.38 0 .18.18 3.36 1.38a18.746 18.746 0 0 0 6.78 1.141c6.66 0 9.9-3.18 9.9-9.48v-2.7a14.037 14.037 0 0 1-9.899 3.6c-9.48 0-15.06-6.72-15.06-15.96 0-9 5.4-16.92 15.06-16.92 4.2 0 7.44 1.26 9.9 3.84v-.24a2.553 2.553 0 0 1 2.58-2.58 2.519 2.519 0 0 1 2.58 2.58v28.38c0 9.54-5.7 14.58-15.06 14.58zm0-41.458c-6 0-9.9 4.68-9.9 11.82 0 6.84 3.6 10.86 9.9 10.86s9.9-4.02 9.9-10.86c0-7.14-3.84-11.82-9.9-11.82z"/><use xlink:href="#W" x="91.738"/><path d="M249.8 141.2a2.423 2.423 0 0 1-2.52-2.52V122a8.55 8.55 0 1 0-17.099 0v16.62a2.551 2.551 0 0 1-2.64 2.641 2.472 2.472 0 0 1-2.52-2.58v-26.82a2.387 2.387 0 0 1 2.52-2.52 2.509 2.509 0 0 1 2.58 1.98A13.703 13.703 0 0 1 252.39 122v16.62a2.454 2.454 0 0 1-2.58 2.58zm30.6 0h-1.02c-5.7 0-7.86-3-7.86-7.92v-18.84h-1.8a2.55 2.55 0 1 1-.06-5.1h1.8V101a2.436 2.436 0 0 1 2.58-2.52 2.39 2.39 0 0 1 2.52 2.52v8.34h3.84a2.487 2.487 0 0 1 2.52 2.52 2.44 2.44 0 0 1-2.52 2.58h-3.84v19.38c0 1.68.6 2.28 2.28 2.28h1.5a2.475 2.475 0 0 1 2.58 2.52 2.44 2.44 0 0 1-2.52 2.58zm30.308 0a2.423 2.423 0 0 1-2.52-2.52V122a8.55 8.55 0 1 0-17.099 0v16.62a2.551 2.551 0 0 1-2.64 2.641 2.472 2.472 0 0 1-2.52-2.58v-37.618a2.58 2.58 0 0 1 5.16-.061v10.38a12.096 12.096 0 0 1 8.52-3.061 13.791 13.791 0 0 1 13.68 13.68v16.62a2.454 2.454 0 0 1-2.58 2.58z"/><use xlink:href="#T" x="-24.545" y="61.2"/><path d="M378.628 142.28a15.03 15.03 0 0 1-15.06-15.06V101a2.581 2.581 0 0 1 5.16 0v26.22a9.929 9.929 0 1 0 19.859 0v-26.158a2.55 2.55 0 0 1 5.1-.061v26.22a15.031 15.031 0 0 1-15.06 15.06zm33.06-.06c-4.38 0-10.5-1.8-13.92-4.98a2.4 2.4 0 0 1-.84-1.859 2.599 2.599 0 0 1 2.58-2.58c.9 0 1.2.3 2.28 1.14a16.241 16.241 0 0 0 9.899 3.18c7.14 0 10.26-2.58 10.26-7.02 0-12.48-23.94-5.4-23.94-21.72 0-7.32 6.18-10.98 14.1-10.98 4.14 0 10.08 1.62 13.02 5.1a2.366 2.366 0 0 1 .66 1.62 2.795 2.795 0 0 1-2.58 2.7c-.9 0-1.38-.42-2.4-1.32a13.179 13.179 0 0 0-8.7-2.94c-6.48 0-8.94 2.58-8.94 5.82 0 11.22 23.94 4.56 23.94 21.72 0 8.94-7.5 12.12-15.42 12.12z"/></g><g opacity=".7" class="K"><path d="M53.226 162.467l-8.435 24.925a1.067 1.067 0 0 1-.988.722 1.107 1.107 0 0 1-1.063-.722l-8.435-24.925a1.605 1.605 0 0 1-.076-.418 1.079 1.079 0 0 1 1.102-.987.986.986 0 0 1 .988.722l7.408 21.885 7.447-21.885a1.101 1.101 0 0 1 2.128.266 1.605 1.605 0 0 1-.076.418zm21.044 25.646h-.038a3.933 3.933 0 0 1-3.762-2.964 8.619 8.619 0 0 1-7.371 3.609c-6.193 0-9.536-5.1-9.536-10.752 0-5.737 3.42-10.715 9.536-10.715a8.686 8.686 0 0 1 7.371 3.572V169a1.071 1.071 0 0 1 1.102-1.063 1.037 1.037 0 0 1 1.064 1.063v15.312c0 2.432 2.735.912 2.735 2.736a1.045 1.045 0 0 1-1.102 1.064zM63.1 169.458c-4.483 0-7.37 3.6-7.37 8.55s2.888 8.587 7.37 8.587c4.52 0 7.37-3.647 7.37-8.587s-2.85-8.55-7.37-8.55z"/><use xlink:href="#X"/><use xlink:href="#Y"/><use xlink:href="#Z"/><use xlink:href="#a"/><use xlink:href="#Y" x="41.154"/><use xlink:href="#b"/><path d="M176.033 188.113a1.068 1.068 0 0 1-1.102-1.063v-11.095a6.497 6.497 0 1 0-12.994 0v11.095a1.083 1.083 0 0 1-2.166 0v-18.048a1.083 1.083 0 0 1 2.166 0v1.216a8.667 8.667 0 0 1 15.16 5.737v11.095a1.059 1.059 0 0 1-1.064 1.063z"/><use xlink:href="#Y" x="100.09"/><use xlink:href="#c"/><path d="M232.047 174.398c-3.306 0-6.003-3.002-6.003-6.687s2.697-6.648 6.003-6.648c3.268 0 5.965 2.963 5.965 6.648s-2.697 6.688-5.965 6.688zm0-11.208c-1.9 0-3.838 1.785-3.838 4.52s1.938 4.52 3.838 4.52 3.8-1.785 3.8-4.52-1.9-4.52-3.8-4.52zm14.36-1.406L239.15 188c-.19.532-.493.798-.95.798a1.168 1.168 0 0 1-1.178-1.102.756.756 0 0 1 .037-.304l7.258-26.217a1.026 1.026 0 0 1 .987-.835 1.194 1.194 0 0 1 1.14 1.14 1.066 1.066 0 0 1-.038.304zm4.712 26.33c-3.268 0-5.966-3.002-5.966-6.687 0-3.646 2.698-6.648 5.966-6.648 3.306 0 6.003 3.002 6.003 6.648 0 3.686-2.697 6.687-6.003 6.687zm0-11.17c-1.9 0-3.8 1.785-3.8 4.482 0 2.736 1.9 4.52 3.8 4.52 1.938 0 3.837-1.785 3.837-4.52 0-2.697-1.9-4.482-3.837-4.482z"/><use xlink:href="#b" x="131.63"/><path d="M298.354 163.2h-1.178a1.679 1.679 0 0 0-1.672 1.633v3.116h2.85a1.035 1.035 0 0 1 1.064 1.063 1.068 1.068 0 0 1-1.064 1.102h-2.85v16.946a1.037 1.037 0 0 1-1.063 1.063 1.014 1.014 0 0 1-1.063-1.063v-16.946h-2.622a1.083 1.083 0 0 1 0-2.165h2.622v-3.116a3.769 3.769 0 0 1 3.761-3.761h1.216a1.078 1.078 0 0 1 1.103 1.102 1.019 1.019 0 0 1-1.103 1.026z"/><use xlink:href="#a" x="190.604"/><use xlink:href="#b" x="183.801"/><use xlink:href="#a" x="223.283"/><use xlink:href="#Z" x="257.634"/><path d="M381.687 188.34a3.982 3.982 0 0 1-3.762-4.027v-22.188a1.083 1.083 0 0 1 2.166 0v22.188c0 2.432 2.697 1.026 2.697 2.736a1.224 1.224 0 0 1-1.102 1.291zm21.887.42a8.619 8.619 0 0 1-7.371-3.609V195a1.083 1.083 0 1 1-2.166 0v-25.988a1.083 1.083 0 0 1 2.166 0v1.862a8.686 8.686 0 0 1 7.371-3.572c6.117 0 9.536 5.016 9.536 10.715 0 5.737-3.42 10.752-9.536 10.752zm0-19.3c-4.52 0-7.37 3.6-7.37 8.55s2.85 8.587 7.37 8.587 7.37-3.647 7.37-8.587-2.85-8.55-7.37-8.55z"/><use xlink:href="#X" x="338.802"/><use xlink:href="#Y" x="338.801"/><use xlink:href="#d"/><use xlink:href="#b" x="314.938"/><use xlink:href="#c" x="277.965"/><path d="M513.468 179.11H497.7c.342 4.332 3.153 7.485 7.295 7.485a6.866 6.866 0 0 0 5.585-2.622.997.997 0 0 1 .912-.531 1.161 1.161 0 0 1 1.178 1.025c0 .342 0 .418-.722 1.254a8.969 8.969 0 0 1-6.953 3.039c-6.117 0-9.536-5.015-9.536-10.752 0-5.7 3.42-10.715 9.536-10.715s9.537 5.054 9.537 10.715a1.15 1.15 0 0 1-1.064 1.102zm-8.473-9.65c-4.56 0-6.953 3.495-7.295 7.485h14.628c-.342-4.332-3.153-7.485-7.333-7.485z"/><use xlink:href="#X" x="440.222"/><use xlink:href="#d" x="94.618"/></g></svg>