<svg xmlns="http://www.w3.org/2000/svg" xmlns:xlink="http://www.w3.org/1999/xlink" viewBox="0 0 1080 1080"><style><![CDATA[.U{stroke-width:2}.V{stroke-miterlimit:10}]]></style><linearGradient id="A" gradientUnits="userSpaceOnUse" x1="11.75" y1="11.75" x2="1068.25" y2="1068.25"><stop offset="0" stop-color="#333"/><stop offset=".22" stop-color="#323b35"/><stop offset=".569" stop-color="#30523b"/><stop offset="1" stop-color="#2c7744"/></linearGradient><path d="M1080,1040c0,22-18,40-40,40H40c-22,0-40-18-40-40V40C0,18,18,0,40,0h1000c22,0,40,18,40,40V1040z" fill="url(#A)"/><path d="M215.184 827.04c-1.188-3.96-4.092-10.565-7.923-16.903s-3.3-9.372-2.773-9.638 2.773-5.942 2.773-12.545-1.585-9.638-2.508-11.353.396-3.434.396-3.434 3.3 1.32 8.45-3.434 1.715-12.28-1.775-15.184-.998-5.02-.998-5.02 2.246-2.638 0-7.526-8.715-6.073-8.715-6.073l-1.715-2.642s-9.507-6.073-17.564-5.546-17.69 14.395-21.918 21.656-10.96 9.507-10.96 9.507-5.28 2.11-8.053 4.488c-4.357 3.304-6.207 3.7-9.773 3.7-9.242.13-23.768 1.846-31.294 3.17s-13.6 9.77-14.787 12.676-7.396 12.807-7.396 12.807-4.092 5.15-7.657 14.26-2.773 13.6-2.773 18.353-6.207 14.657-11.092 21.39-5.28 11.08-5.28 11.08-5.02 10.565 6.865 9.246 10.565-.3 17.957.11 11.884.68 11.622-2.753-3.434-6.338-5.02-6.603 3.193-3.815 5.027-5.93c1.248-1.434 4.207-5.18 5.978-8.184 0 0-3.676 17.164 5.633 19.145s19.212 3.367 20.203 4.357 6.932-1.783 9.507-4.16-8.517-8.715-8.517-8.715-1.585-1.188-.198-8.32-5.348-11.686-6.734-12.874 8.798-3.213 8.556-16.76c3.185.412 11.313 1.26 21.284-3.046 1.412-.6 2.905-1.354 4.436-2.2.8 1.476 1.608 3.61 1.99 6.56-.025.136-.033.266-.02.385.396 3.565.875 15.21.285 28.284-2.963 8.32-3.557 11.686-3.953 13.666s0 6.932 7.328 7.328 10.497-1.783 13.468-4.952 10.894-12.28 11.092-16.043-2.67-26.5-1.68-29.274 1.973-4.16 1.973-4.16c.13 2.06.372 4.532.733 7.657 1.323 11.488 11.488 20.733 14.922 25.09s2.963 8.073 4.282 10.585 1.058 2.508-2.246 4.357 3.038 5.546 3.96 6.203-1.188 2.202 13.072-5.546c10.17-14.39 2.717-33.295 1.53-37.256z" fill="#708778"/><path d="M434.636 817.55c-1.448-4.828-4.987-12.876-9.656-20.6s-4.022-11.423-3.38-11.746 3.38-7.242 3.38-15.3-1.93-11.746-3.056-13.837.483-4.186.483-4.186 4.022 1.608 10.298-4.186 2.1-14.966-2.163-18.505-1.217-6.117-1.217-6.117 2.737-3.215 0-9.173-10.62-7.4-10.62-7.4l-2.1-3.22s-11.587-7.4-21.407-6.76-21.56 17.544-26.712 26.394-13.36 11.587-13.36 11.587-6.435 2.573-9.815 5.47c-5.31 4.026-7.565 4.51-11.9 4.51-11.263.16-28.967 2.25-38.14 3.862s-16.574 11.905-18.022 15.45-9.014 15.608-9.014 15.608-4.987 6.276-9.332 17.38-3.38 16.574-3.38 22.367-7.565 17.863-13.518 26.07-6.436 13.503-6.436 13.503-6.117 12.876 8.367 11.268 12.876-.367 21.884.135 14.483.83 14.165-3.355-4.186-7.724-6.117-8.048 3.89-4.65 6.126-7.227c1.52-1.748 5.127-6.315 7.285-9.974 0 0-4.48 20.92 6.865 23.333s23.415 4.104 24.622 5.31 8.45-2.173 11.587-5.07-10.38-10.62-10.38-10.62-1.93-1.448-.24-10.138-6.518-14.242-8.207-15.7 10.723-3.915 10.428-20.427c3.882.502 13.788 1.535 25.94-3.713 1.72-.743 3.54-1.65 5.407-2.67.974 1.798 1.96 4.4 2.424 7.993-.03.166-.04.324-.024.47.483 4.345 1.067 18.54.348 34.47-3.61 10.138-4.335 14.242-4.818 16.656s0 8.45 8.93 8.93 12.794-2.173 16.415-6.035 13.276-14.966 13.518-19.553-3.254-32.298-2.047-35.677 2.404-5.07 2.404-5.07c.16 2.5.454 5.523.893 9.332 1.612 14 14 25.27 18.186 30.58s3.61 9.84 5.22 12.9 1.29 3.056-2.737 5.31 3.703 6.76 4.828 7.56-1.448 2.684 15.932-6.76c12.393-17.54 3.312-40.578 1.864-45.406z" fill="#6f8e7a"/><path d="M680.593 810.77c-1.634-5.447-5.627-14.527-10.894-23.24s-4.537-12.887-3.813-13.252 3.813-8.17 3.813-17.25c0-9.074-2.18-13.252-3.448-15.6-1.275-2.364.545-4.722.545-4.722s4.537 1.814 11.618-4.722 2.358-16.885-2.44-20.877c-4.804-3.992-1.373-6.9-1.373-6.9s3.088-3.628 0-10.35c-3.088-6.716-11.983-8.35-11.983-8.35l-2.358-3.633s-13.072-8.35-24.15-7.625c-11.073.73-24.325 19.794-30.137 29.777s-15.07 13.072-15.07 13.072-7.26 2.903-11.073 6.17c-5.99 4.543-8.535 5.087-13.437 5.087-12.707.18-32.68 2.538-43.03 4.357-10.35 1.814-18.7 13.432-20.333 17.43-1.634 3.992-10.17 17.61-10.17 17.61s-5.626 7.08-10.53 19.608-3.813 18.7-3.813 25.235-8.535 20.153-15.25 29.413-7.26 15.235-7.26 15.235-6.9 14.526 9.44 12.713c16.34-1.82 14.527-.414 24.7.153 10.17.572 16.34.937 15.98-3.785-.365-4.722-4.722-8.715-6.9-9.08-2.18-.36 4.4-5.245 6.912-8.154 1.716-1.972 5.785-7.124 8.22-11.253 0 0-5.055 23.6 7.745 26.324s26.417 4.63 27.78 5.99 9.532-2.45 13.072-5.72-11.71-11.983-11.71-11.983-2.18-1.634-.272-11.438-7.353-16.068-9.26-17.702 12.097-4.417 11.765-23.045c4.38.567 15.556 1.732 29.265-4.19 1.94-.838 3.994-1.862 6.1-3.012 1.1 2.03 2.21 4.965 2.735 9.018a1.82 1.82 0 0 0-.027.53c.545 4.902 1.204 20.916.392 38.9-4.074 11.438-4.89 16.068-5.436 18.79s0 9.532 10.077 10.077 14.434-2.45 18.52-6.808 14.98-16.885 15.25-22.06-3.67-36.44-2.31-40.252 2.712-5.72 2.712-5.72c.18 2.832.512 6.23 1.008 10.53 1.82 15.796 15.796 28.508 20.518 34.5s4.074 11.1 5.888 14.554c1.814 3.448 1.454 3.448-3.088 5.99-4.537 2.538 4.178 7.625 5.447 8.53 1.275.9-1.634 3.028 17.974-7.625 13.982-19.788 3.736-45.78 2.102-51.227z" fill="#6e947c"/><path d="M1028.743 785.103c-2.314-7.714-7.97-20.574-15.428-32.916s-6.426-18.25-5.4-18.768 5.4-11.57 5.4-24.43c0-12.852-3.086-18.768-4.883-22.11-1.805-3.348.77-6.688.77-6.688s6.426 2.57 16.454-6.688 3.34-23.914-3.456-29.568c-6.804-5.654-1.944-9.774-1.944-9.774s4.374-5.138 0-14.657c-4.374-9.51-16.97-11.826-16.97-11.826l-3.34-5.145s-18.514-11.826-34.204-10.8c-15.683 1.034-34.45 28.033-42.682 42.173s-21.345 18.514-21.345 18.514-10.283 4.112-15.683 8.74c-8.485 6.434-12.088 7.205-19.03 7.205-17.997.255-46.285 3.595-60.94 6.17-14.657 2.57-26.482 19.023-28.797 24.685-2.314 5.654-14.402 24.94-14.402 24.94s-7.97 10.028-14.91 27.77-5.4 26.482-5.4 35.74-12.088 28.542-21.6 41.656-10.283 21.576-10.283 21.576-9.774 20.573 13.37 18.005c23.142-2.576 20.573-.586 34.968.216 14.402.8 23.142 1.327 22.633-5.36-.517-6.688-6.688-12.343-9.774-12.86-3.086-.51 6.218-7.43 9.79-11.548 2.43-2.792 8.192-10.1 11.64-15.937 0 0-7.16 33.425 10.97 37.282s37.413 6.557 39.342 8.485 13.5-3.47 18.514-8.1-16.585-16.97-16.585-16.97-3.086-2.314-.386-16.2-10.414-22.757-13.114-25.07 17.133-6.256 16.662-32.638c6.202.802 22.03 2.453 41.448-5.932 2.75-1.187 5.656-2.638 8.64-4.265 1.556 2.873 3.13 7.032 3.873 12.772a2.58 2.58 0 0 0-.039.75c.77 6.943 1.705 29.622.555 55.078-5.77 16.2-6.927 22.757-7.7 26.614s0 13.5 14.27 14.27 20.442-3.47 26.228-9.643 21.214-23.914 21.6-31.242-5.2-51.607-3.27-57.007 3.842-8.1 3.842-8.1c.255 4.01.725 8.825 1.427 14.91 2.576 22.37 22.37 40.375 29.06 48.86s5.77 15.72 8.34 20.612c2.57 4.883 2.06 4.883-4.374 8.485-6.426 3.595 5.917 10.8 7.714 12.08 1.805 1.288-2.314 4.29 25.456-10.8 19.802-28.025 5.292-64.837 2.978-72.55z" fill="#6c9c7e"/><g fill="#708778"><use xlink:href="#C"/><path d="M113.618 393.712c.32 2.305 1.6 2.688 2.495 2.688 2.048 0 3.328-2.816 3.392-9.248-.928.992-2.176 1.76-3.552 1.76-2.592 0-4.96-1.856-4.96-7.104 0-4.48 1.92-7.23 4.96-7.23 4 0 5.92 2.304 5.92 10.623 0 9.28-2.176 13.12-5.823 13.12-2.976 0-4.096-1.792-4.544-4.48l2.112-.128zm5.95-10.88c0-4.672-1.216-6.335-3.264-6.335-1.792 0-3.008 1.344-3.008 5.343 0 4.128 1.408 5.152 2.88 5.152s2.624-.96 3.392-1.984v-2.176z"/><use xlink:href="#D"/><use xlink:href="#C" x="36.221"/></g><g fill="#6f8e7a"><use xlink:href="#E"/><use xlink:href="#F"/><path d="M341.868 398.32c-3.775 0-5.567-3.52-5.567-11.87s1.792-11.87 5.567-11.87 5.567 3.52 5.567 11.87-1.792 11.87-5.567 11.87zm0-21.822c-2.112 0-3.264 2.367-3.264 9.95s1.15 9.95 3.264 9.95 3.264-2.368 3.264-9.95-1.15-9.95-3.264-9.95zm9.024 3.007c.256-2.72 1.728-4.927 4.703-4.927 2.593 0 5.152 1.8 5.152 5.63 0 3.264-1.344 5.12-3.008 5.44v.064c2.592.864 3.392 3.296 3.392 5.76 0 4.735-2.752 6.848-5.632 6.848-3.07 0-5.15-2.464-5.184-5.824h2.112c.2 2.496 1.28 3.904 3.327 3.904 1.536 0 3.072-1.664 3.072-4.832 0-3.808-1.6-4.896-5.248-4.896v-1.92c3.456 0 4.864-.832 4.864-4.416 0-2.75-1.088-3.84-2.688-3.84-1.983 0-2.687 1.663-2.752 3.264l-2.1-.257z"/></g><g fill="#6e947c"><use xlink:href="#E" x="247.419"/><use xlink:href="#F" x="247.42"/><use xlink:href="#C" x="482.58"/><use xlink:href="#F" x="271.353"/></g><g fill="#6c9c7e"><use xlink:href="#E" x="538.714"/><use xlink:href="#F" x="538.715"/><path d="M875.6 398v-1.92h2.816v-18.56l-2.88.256v-1.408c1.312-.32 2.592-.896 3.647-1.79h1.536v21.502h2.688V398H875.6z"/><use xlink:href="#D" x="762.23"/></g><g fill="none" class="U V"><path d="M73.6 353.746h97.978m114.528 0h97.978m147.713 0h97.978m193.573 0h97.978" stroke="#fff"/><g stroke="#708778"><path d="M122.578 418v1"/><path d="M122.578 424.943v321.905" stroke-dasharray="1.98095,5.94286"/><path d="M122.578 749.82v1"/></g><g stroke="#6f8e7a"><path d="M335.085 418v1"/><path d="M335.085 424.933v297.63" stroke-dasharray="1.97761,5.93282"/><path d="M335.085 725.53v1"/></g><g stroke="#6e947c"><path d="M580.776 418v1"/><path d="M580.776 425.07v280.257" stroke-dasharray="2.02352,6.07055"/><path d="M580.776 708.363v1"/></g><g stroke="#6c9c7e"><path d="M872.327 418v1"/><path d="M872.327 425v229.054" stroke-dasharray="2.00047,6.00141"/><path d="M872.327 657.056v1"/></g></g><g fill="#fff"><path d="M82.404 333.746v-4.32c4.608-15.4 19-24.05 19-35.86 0-5.473-2.736-8.2-6.265-8.2-4.104 0-7.128 3.17-7.56 10.945h-4.752c.576-11.8 5.904-15.266 12.17-15.266 6.84 0 11.593 4.608 11.593 13.25 0 12.96-11.665 16.993-19.44 35.14h19.73v4.32H82.404zm32.976-12.096c.432 3.744 2.016 8.496 6.624 8.496 4.465 0 7.776-4.608 7.776-13.6 0-9.72-3.312-12.745-7.128-12.745-2.952 0-5.688 2.232-6.553 5.04l-4.032-.72 1.728-26.354h18.3l-.432 4.32H117.98l-1.008 15.84c1.8-1.512 4.248-2.448 6.912-2.448 6.05 0 11.1 5.617 11.1 16.922 0 11.88-5.76 18.073-12.673 18.073-7.488 0-11.232-5.616-11.665-12.385l4.753-.432zm45.288-39.893v35.86h5.4v4.32h-5.4v11.8h-5.185v-11.8H138.85v-2.448l14.257-37.73h7.56zm-16.92 35.86h11.736V286.5h-.144l-11.593 31.107zm152.027-25.49c.576-6.12 3.9-11.1 10.585-11.1 5.833 0 11.593 4.033 11.593 12.674 0 7.345-3.024 11.52-6.77 12.24v.144c5.833 1.944 7.633 7.417 7.633 12.96 0 10.657-6.192 15.4-12.673 15.4-6.913 0-11.593-5.544-11.665-13.104h4.752c.433 5.616 2.88 8.784 7.5 8.784 3.456 0 6.912-3.744 6.912-10.873 0-8.568-3.6-11.017-11.8-11.017v-4.32c7.776 0 10.944-1.872 10.944-9.937 0-6.193-2.448-8.642-6.048-8.642-4.465 0-6.05 3.745-6.192 7.345l-4.753-.575z"/><use xlink:href="#G"/><use xlink:href="#H"/><path d="M560.69 281.757v35.86h5.4v4.32h-5.4v11.81h-5.185v-11.81h-16.633v-2.448l14.257-37.73h7.56zm-16.92 35.86h11.736V286.51h-.144l-11.593 31.107z"/><use xlink:href="#G" x="245.691"/><use xlink:href="#I"/><path d="M822.506 333.746v-4.32h6.336v-41.764l-6.48.576v-3.168c2.952-.72 5.833-2.017 8.21-4.033h3.456v48.39h6.05v4.32h-17.57z"/><use xlink:href="#H" x="490.011"/><use xlink:href="#I" x="274.858"/><path d="M905.014 292.126c.576-6.12 3.89-11.1 10.585-11.1 5.832 0 11.593 4.033 11.593 12.674 0 7.345-3.024 11.52-6.77 12.24v.144c5.833 1.944 7.633 7.417 7.633 12.96 0 10.657-6.192 15.41-12.673 15.41-6.913 0-11.593-5.544-11.665-13.104h4.752c.433 5.616 2.88 8.784 7.49 8.784 3.456 0 6.912-3.744 6.912-10.873 0-8.568-3.6-11.017-11.81-11.017v-4.32c7.776 0 10.944-1.872 10.944-9.937 0-6.193-2.448-8.642-6.048-8.642-4.465 0-6.05 3.745-6.192 7.345l-4.753-.575z"/></g><g opacity=".3" fill="#fff"><path d="M42.328 1046.045c-3.568 0-5.47-1.97-5.503-2.002 0 .935-.7 1.4-1.468 1.4-.7 0-1.4-.467-1.4-1.4v-20.88a1.35 1.35 0 0 1 1.401-1.434c.767 0 1.468.467 1.468 1.4v6.238c1.334-1.368 3.168-2.17 5.503-2.17 5.37 0 8.373 4.403 8.373 9.406 0 5.037-3.002 9.44-8.373 9.44zm0-16c-3.335 0-5.503 2.602-5.503 6.57 0 4.003 2.168 6.604 5.503 6.604s5.504-2.602 5.504-6.604c0-3.97-2.168-6.57-5.504-6.57zm25.555 8.037h-12.34c.467 3.136 2.468 5.137 5.403 5.137 1.5 0 3.002-.533 3.97-1.734.3-.333.634-.533 1.034-.533.734 0 1.5.667 1.5 1.468 0 .4-.1.7-.8 1.4-1.5 1.468-3.57 2.235-5.704 2.235-5.37 0-8.372-4.437-8.372-9.44 0-4.97 3.002-9.406 8.372-9.406 5.437 0 8.34 4.437 8.34 9.406 0 .734-.534 1.468-1.4 1.468zm-6.937-8.038c-3.136 0-4.97 2.3-5.403 5.17H66.35c-.467-3.202-2.468-5.17-5.403-5.17zM88 1045.478c-1.834 0-2.668-1.3-2.97-1.9-1.334 1.468-3.27 2.47-5.87 2.47-5.437 0-8.372-4.47-8.372-9.44s3.002-9.406 8.372-9.406c2.335 0 4.203.834 5.504 2.202v-.134c0-.367.133-1.5 1.4-1.5.7 0 1.468.367 1.468 1.4v12.875c0 .434.3.6.467.6.935 0 1.435.667 1.435 1.434a1.37 1.37 0 0 1-1.435 1.401zm-8.84-15.443c-3.336 0-5.504 2.602-5.504 6.57 0 4.003 2.168 6.604 5.504 6.604 3.37 0 5.504-2.602 5.504-6.604 0-3.97-2.135-6.57-5.504-6.57z"/><use xlink:href="#J"/><path d="M115.158 1045.478h-.567c-3.17 0-4.37-1.668-4.37-4.403V1030.6h-1c-.8 0-1.435-.634-1.435-1.4 0-.8.634-1.435 1.4-1.435h1v-4.637c0-.934.7-1.4 1.435-1.4s1.4.467 1.4 1.4v4.637h2.135c.934 0 1.4.768 1.4 1.4 0 .8-.533 1.434-1.4 1.434h-2.135v10.774c0 .934.333 1.268 1.268 1.268h.833c.868 0 1.435.634 1.435 1.4 0 .8-.533 1.435-1.4 1.435zm4.604-20.415a2.402 2.402 0 1 1 0-4.803 2.402 2.402 0 1 1 0 4.803zm0 20.414c-.733 0-1.467-.5-1.467-1.4V1029.2c0-.935.733-1.435 1.467-1.435a1.37 1.37 0 0 1 1.401 1.435v14.876c0 .935-.7 1.4-1.4 1.4zm10.376-14.877h-1.5v13.442c0 .935-.7 1.4-1.468 1.4-.7 0-1.4-.467-1.4-1.4V1030.6h-1.37c-.9 0-1.4-.667-1.4-1.4 0-.768.5-1.435 1.4-1.435h1.367v-2.27c0-2.135 1.77-3.77 3.836-3.77.968 0 1.468.667 1.468 1.434 0 .7-.5 1.4-1.468 1.4-.566 0-.967.434-.967.9v2.302h1.5c.967 0 1.468.667 1.468 1.435 0 .733-.5 1.4-1.468 1.4z"/><use xlink:href="#J" x="42.068"/><path d="M154.725 1045.544c-1.802 0-3.336-1.534-3.336-3.402v-18.98c0-.967.7-1.434 1.435-1.434s1.435.467 1.435 1.4v19.013c0 .4.3.567.467.567.934 0 1.435.667 1.435 1.435 0 .733-.5 1.4-1.435 1.4zm15.37-.066v-1.264c1.886-.237 2.046-.437 2.046-3.157v-6.7c0-2.8-1.248-4.017-3.064-4.017-1.237 0-2.345.6-3.47 1.493v9.476c0 2.527.187 2.658 2.06 2.896v1.264h-8.968v-1.264c2.254-.33 2.5-.4 2.5-3v-8.2c0-2.446-.303-2.565-2.185-2.922v-1.184c2.173-.292 4.63-.807 6.653-1.533l-.052 2.95 2.6-1.745c1.16-.713 2-1.086 3.16-1.086 3.194 0 5.2 2.338 5.2 6.3v7.5c0 2.54.237 2.657 2.277 2.92v1.264h-8.74zm23.9-3.703c-2.458 3.427-5.488 4.178-7.014 4.178-5.142 0-8.124-3.936-8.124-8.594 0-2.745 1.183-5.396 2.832-7.062 1.74-1.8 3.945-2.814 6.082-2.814 3.73 0 6.396 3.126 6.37 6.347-.014.715-.08 1.277-.612 1.4-.767.184-6.17.5-10.318.647.062 4.587 2.717 6.74 5.556 6.74 1.572 0 3.104-.597 4.543-1.866l.686 1.014zm-7.07-12.7c-1.667 0-3.167 1.807-3.516 4.963l5.486-.118c.6-.026.848-.146.848-.792.04-2.022-1.037-4.053-2.818-4.053zm34.284.145c-1.943.343-2.248.624-3.105 2.765-1.33 3.462-3.102 8.53-4.934 13.94h-1.512l-4.65-11.46-4.55 11.46h-1.472l-4.685-14.192c-.687-1.985-.94-2.274-2.855-2.512v-1.25h9.397v1.25c-2.325.345-2.535.672-2.058 2.133l2.52 8.214c1.507-3.68 2.988-7.62 4.327-11.424h1.456c1.4 3.76 2.986 7.702 4.573 11.568.742-2.107 2.062-5.964 2.557-8.108.412-1.674-.008-2.078-2.753-2.383v-1.25h7.742v1.25zm9.4 3.746c-.92-2.606-2.155-3.984-4.2-3.984-1.206 0-2.225.86-2.225 2.266 0 1.497 1.046 2.264 3.16 3.216 3.278 1.496 5.3 2.787 5.3 5.736 0 3.85-3.6 5.764-6.945 5.764-2.06 0-4.088-.737-4.92-1.16l-.662-4.892 1.252-.224c.8 2.5 2.33 4.75 4.976 4.75 1.505 0 2.438-.952 2.438-2.28 0-1.423-.76-2.333-3.092-3.467-2.67-1.295-5.107-2.64-5.107-5.775 0-3.046 2.533-5.42 6.565-5.42 1.818 0 3.242.396 4.112.567l.62 4.577-1.25.328z"/></g><g opacity=".6" fill="#fff"><use xlink:href="#K"/><use xlink:href="#L"/><use xlink:href="#M"/><use xlink:href="#N"/><use xlink:href="#O"/><path d="M679.97 1041.237h-8.302c.18 2.28 1.66 3.94 3.84 3.94 1.08 0 2.36-.48 2.94-1.38.14-.22.3-.28.48-.28.3 0 .62.24.62.54 0 .18 0 .22-.38.66-.92 1.08-2.26 1.6-3.66 1.6-3.22 0-5.02-2.64-5.02-5.66 0-3 1.8-5.64 5.02-5.64s5.02 2.66 5.02 5.64c0 .3-.28.58-.56.58zm-4.46-5.08c-2.4 0-3.66 1.84-3.84 3.94h7.7c-.18-2.28-1.66-3.94-3.86-3.94z"/><use xlink:href="#K" x="62.499"/><path d="M693.446 1039.417c-.64 0-1.16-.5-1.16-1.14s.52-1.14 1.16-1.14c.62 0 1.12.5 1.12 1.14s-.5 1.14-1.12 1.14zm0 6.562c-.64 0-1.16-.5-1.16-1.14s.52-1.14 1.16-1.14c.62 0 1.12.5 1.12 1.14s-.5 1.14-1.12 1.14zm14.22.34c-4.3 0-5.82-3.56-5.82-7.46 0-3.92 1.52-7.482 5.82-7.482 4.28 0 5.82 3.562 5.82 7.482 0 3.9-1.54 7.46-5.82 7.46zm0-13.803c-3.32 0-4.682 2.6-4.682 6.342 0 3.72 1.36 6.32 4.682 6.32 3.3 0 4.68-2.6 4.68-6.32 0-3.74-1.38-6.342-4.68-6.342z"/><use xlink:href="#N" x="62.339"/><use xlink:href="#P"/><path d="M741.628 1045.998c-.16 0-.3-.06-.42-.22l-3.54-4.48-3.54 4.48c-.12.16-.26.22-.42.22-.32 0-.6-.24-.6-.56 0-.14.02-.26.12-.4l3.7-4.66-3.24-4.08c-.1-.14-.14-.28-.14-.4 0-.32.3-.56.62-.56.16 0 .3.06.42.22l3.08 3.9 3.1-3.9a.44.44 0 0 1 .399-.221c.32 0 .62.24.62.56 0 .12-.04.24-.14.36l-3.26 4.12 3.72 4.66c.12.14.16.26.16.4 0 .32-.32.56-.64.56z"/><use xlink:href="#Q"/><use xlink:href="#R"/><use xlink:href="#R" x="16.3"/><path d="M796.207 1032.855h-8.32v4.92h6.1a.55.55 0 0 1 .58.561c0 .28-.2.58-.56.58h-6.12v6.5c0 .36-.3.56-.56.56-.28 0-.58-.2-.58-.56v-13.122c0-.3.28-.56.58-.56h8.882a.55.55 0 0 1 .58.561.55.55 0 0 1-.58.56z"/><use xlink:href="#Q" x="54.439"/><path d="M818.888 1045.98c-.2 0-.42-.12-.52-.34l-1.28-3.08h-7.2l-1.28 3.08c-.08.22-.32.34-.5.34-.3 0-.58-.22-.58-.54 0-.1 0-.16.04-.26l5.4-13.104a.63.63 0 0 1 .58-.38c.2 0 .38.12.48.38l5.4 13.104c.04.1.04.16.04.26 0 .32-.28.54-.58.54zm-5.4-12.183l-3.14 7.622h6.3l-3.16-7.622z"/><use xlink:href="#S"/><use xlink:href="#N" x="173.035"/><path d="M833.862 1033.436c-.64 0-1.14-.5-1.14-1.14s.5-1.14 1.14-1.14 1.14.5 1.14 1.14-.5 1.14-1.14 1.14zm0 12.543c-.28 0-.58-.18-.58-.56v-9.502c0-.36.28-.56.58-.56.26 0 .56.18.56.56v9.502c0 .36-.26.56-.56.56z"/><use xlink:href="#O" x="177.015"/><use xlink:href="#T"/><use xlink:href="#U"/><path d="M880.983 1046.26c-2 0-3.62-1.6-3.62-3.58 0-.38.3-.58.58-.58s.58.2.58.58c0 1.34 1.08 2.44 2.42 2.44 1.38 0 2.48-1.1 2.48-2.44v-10.382c0-.36.28-.56.56-.56s.58.2.58.56v10.382c0 1.98-1.64 3.58-3.58 3.58z"/><use xlink:href="#L" x="257.493"/><use xlink:href="#M" x="257.493"/><use xlink:href="#N" x="257.495"/><use xlink:href="#U" x="56.941"/><use xlink:href="#T" x="81.561"/><use xlink:href="#V"/><use xlink:href="#L" x="321.733"/><use xlink:href="#S" x="143.08"/><path d="M984.123 1045.98h-8.882c-.3 0-.58-.28-.58-.56v-13.122c0-.3.28-.56.58-.56h8.882a.55.55 0 0 1 .58.561.55.55 0 0 1-.58.56h-8.32v4.92h6.1a.55.55 0 0 1 .58.561c0 .28-.2.58-.56.58h-6.12v5.92h8.32c.38 0 .58.3.58.58a.55.55 0 0 1-.58.561z"/><use xlink:href="#O" x="326.272"/><use xlink:href="#L" x="367.31"/><use xlink:href="#V" x="66.818"/><use xlink:href="#L" x="383.65"/><path d="M1030.08 1050.54c-1.7 0-4.102-.64-4.102-1.36 0-.32.26-.64.58-.64.22 0 .68.34 1.06.48.52.18 1.34.38 2.46.38 2.56 0 3.88-1.26 3.88-3.72v-1.4c-.88 1.06-2.14 1.7-3.88 1.7-3.16 0-5.02-2.24-5.02-5.32 0-3 1.8-5.64 5.02-5.64 1.74 0 3.04.72 3.88 1.88v-.96c0-.36.3-.56.58-.56.26 0 .56.2.56.56v9.742c0 3.18-1.9 4.86-5.02 4.86zm0-14.383c-2.36 0-3.88 1.9-3.88 4.5 0 2.58 1.42 4.18 3.88 4.18s3.88-1.6 3.88-4.18c0-2.6-1.5-4.5-3.88-4.5z"/><use xlink:href="#P" x="314.552"/></g><g fill="#fff"><path d="M84.818 80.06c-1.26 0-2.52-.9-2.52-2.58v-27.6L70.66 71.6c-.78 1.5-1.92 1.62-2.4 1.62-.3 0-1.56-.12-2.4-1.62L54.28 50v27.48c0 1.68-1.26 2.58-2.64 2.58-1.26 0-2.52-.9-2.52-2.58v-37.5c0-1.98 1.38-2.7 2.76-2.7.9 0 1.62.42 2.16 1.5l14.22 26.46 14.28-26.46c.6-1.2 1.32-1.5 2.34-1.5 1.32 0 2.58.84 2.58 2.7v37.5c0 1.68-1.26 2.58-2.64 2.58z"/><use xlink:href="#W"/><use xlink:href="#X"/><use xlink:href="#Y"/><use xlink:href="#Z"/><use xlink:href="#a"/><use xlink:href="#b"/><use xlink:href="#Y" x="95.578"/><path d="M317.254 81.02c-13.2 0-17.46-11.1-17.46-22.38 0-11.58 4.56-22.44 17.46-22.44 5.46 0 10.02 1.92 13.32 6.54.36.48.54 1.02.54 1.5 0 1.44-1.5 2.58-2.88 2.58-1.08 0-1.2-.48-2.16-1.56-1.92-2.34-4.5-3.9-8.82-3.9-9.24 0-12.3 7.86-12.3 17.28 0 8.22 2.22 17.28 12.3 17.28 7.32 0 11.7-5.22 12.12-13.86h-5.4c-1.74 0-2.64-1.26-2.64-2.58s.9-2.58 2.52-2.58h8.22c1.56 0 2.64 1.08 2.64 2.64-.24 11.22-4.74 21.48-17.46 21.48z"/><use xlink:href="#W" x="245.513"/><use xlink:href="#c"/><use xlink:href="#b" x="148.436"/><use xlink:href="#d"/><use xlink:href="#d" x="11.278"/><use xlink:href="#a" x="219.174"/><path d="M493.41 61.52h-12.84v15.9c0 1.56-1.2 2.58-2.52 2.58-1.44 0-2.64-.96-2.64-2.52V39.862c0-1.08.72-2.58 2.52-2.58h15.54c5.28 0 12.06 4.14 12.06 12.06 0 6.78-5.4 12.18-12.12 12.18zm0-19.14h-12.84v14.04h12.78a6.99 6.99 0 0 0 7.02-7.02c0-3.9-3.12-7.02-6.96-7.02z"/><use xlink:href="#W" x="416.03"/><path d="M556.948 81.02c-4.2 0-7.5-1.44-9.9-3.96v13.02c0 1.68-1.26 2.58-2.64 2.58-1.26 0-2.52-.9-2.52-2.58V50.722c0-1.68 1.26-2.58 2.52-2.58 1.38 0 2.64.9 2.64 2.58 0 0 3.54-3.66 9.9-3.66 9.66 0 15.06 7.92 15.06 16.92 0 9.12-5.4 17.04-15.06 17.04zm0-28.86c-5.94 0-9.9 4.74-9.9 11.82 0 7.2 3.9 11.94 9.9 11.94s9.9-4.68 9.9-11.88c0-7.14-3.9-11.88-9.9-11.88z"/><use xlink:href="#X" x="449.69"/><use xlink:href="#d" x="204.476"/><use xlink:href="#a" x="412.37"/><use xlink:href="#Z" x="463.369"/><use xlink:href="#b" x="430.43"/><use xlink:href="#W" x="592.426"/><use xlink:href="#Y" x="559.488"/><use xlink:href="#e"/><path d="M821.003 80c-.9 0-1.8-.48-2.28-1.56l-3.18-7.8h-19.98l-3.24 7.8c-.48 1.08-1.38 1.56-2.22 1.56-1.32 0-2.7-1.02-2.7-2.52 0-.36.06-.72.24-1.02l15.42-37.498c.72-1.56 1.68-1.86 2.46-1.86.54 0 1.86.3 2.46 1.86l15.48 37.498c.12.3.18.66.18 1.02 0 1.5-1.26 2.52-2.64 2.52zm-15.48-33.6l-7.86 19.08h15.72l-7.86-19.08z"/><use xlink:href="#c" x="454.91"/><path d="M870.862 66.68h-22.2c.84 5.64 4.44 9.24 9.72 9.24 2.7 0 5.4-.96 7.14-3.12.54-.6 1.14-.96 1.86-.96 1.32 0 2.7 1.2 2.7 2.64 0 .72-.18 1.26-1.44 2.52-2.7 2.64-6.42 4.02-10.26 4.02-9.66 0-15.06-7.98-15.06-16.98 0-8.94 5.4-16.92 15.06-16.92 9.78 0 15 7.98 15 16.92 0 1.32-.96 2.64-2.52 2.64zm-12.48-14.46c-5.64 0-8.94 4.14-9.72 9.3h19.44c-.84-5.76-4.44-9.3-9.72-9.3zm58.738 27.84c-.66 0-1.44-.36-1.98-1.08l-12.48-17.46h-7.74v15.9c0 1.68-1.26 2.58-2.64 2.58-1.26 0-2.52-.9-2.52-2.52V39.862c0-1.08.72-2.58 2.52-2.58h15.54c5.28 0 12.06 4.14 12.06 12.06 0 6.3-4.74 11.58-11.04 12.12l10.5 14.46c.42.54.54 1.02.54 1.56 0 1.44-1.38 2.58-2.76 2.58zm-9.36-37.68h-12.84v14.04h12.78c3.9 0 7.02-3.18 7.02-7.08 0-4.08-3.48-6.96-6.96-6.96z"/><use xlink:href="#b" x="681.885"/><use xlink:href="#e" x="185.035"/><use xlink:href="#b" x="719.625"/><use xlink:href="#Y" x="814.003"/><path d="M1020.622 93.68c-3.66 0-12.72-1.32-12.72-4.92 0-1.38 1.26-2.7 2.58-2.7 1.38 0 .18.18 3.36 1.38 1.44.54 3.6 1.14 6.78 1.14 6.66 0 9.9-3.18 9.9-9.48v-2.7c-2.34 2.22-5.7 3.6-9.9 3.6-9.48 0-15.06-6.72-15.06-15.96 0-9 5.4-16.92 15.06-16.92 4.2 0 7.44 1.26 9.9 3.84v-.24c0-1.68 1.38-2.58 2.58-2.58 1.26 0 2.58.9 2.58 2.58V79.1c0 9.54-5.7 14.58-15.06 14.58zm0-41.458c-6 0-9.9 4.68-9.9 11.82 0 6.84 3.6 10.86 9.9 10.86s9.9-4.02 9.9-10.86c0-7.14-3.84-11.82-9.9-11.82z"/></g><g opacity=".7" fill="#fff"><path d="M110.512 128.646c-2.926 0-6.915-1.178-9.08-3.343-.266-.267-.342-.494-.342-.76a1.16 1.16 0 0 1 1.103-1.103c.455 0 .418.114 1.216.722 2.014 1.482 4.52 2.318 7.104 2.318 4.787 0 7.56-1.786 7.56-5.205 0-9.005-16.07-4-16.07-14.362 0-4.56 3.99-6.65 8.89-6.65 2.735 0 6.573 1.18 8.283 3.572.15.228.228.418.228.646 0 .608-.532 1.063-1.14 1.063-.532 0-.532-.15-1.178-.798-1.596-1.596-3.95-2.317-6.193-2.317-4.52 0-6.725 1.748-6.725 4.483 0 8.17 16.07 3.42 16.07 14.362 0 5.28-4.635 7.37-9.727 7.37z"/><use xlink:href="#f"/><use xlink:href="#g"/><use xlink:href="#h"/><use xlink:href="#h" x="7.563"/><use xlink:href="#i"/><use xlink:href="#j"/><use xlink:href="#k"/><use xlink:href="#i" x="74.098"/><path d="M267.486 103.077h-1.178c-.912 0-1.672.76-1.672 1.633v3.116h2.85c.723 0 1.064.57 1.064 1.063 0 .532-.38 1.102-1.064 1.102h-2.85v16.946c0 .684-.53 1.063-1.063 1.063s-1.063-.342-1.063-1.063V110h-2.622c-.684 0-1.063-.57-1.063-1.102 0-.494.38-1.063 1.063-1.063h2.622v-3.116a3.77 3.77 0 0 1 3.761-3.761h1.216c.685 0 1.103.53 1.103 1.102 0 .532-.38 1.026-1.103 1.026zM286.98 128h-1.18c-3 0-4.483-1.48-4.483-4.445V110h-1.937c-.684 0-1.063-.57-1.063-1.102 0-.494.38-1.063 1.063-1.063h1.938v-5.813c0-.684.57-1.063 1.103-1.063s1.063.38 1.063 1.063v5.813h3.495c.685 0 1.064.57 1.064 1.063 0 .532-.38 1.102-1.064 1.102h-3.495v13.564c0 1.86.532 2.28 2.317 2.28h1.178c.685 0 1.064.57 1.064 1.103 0 .493-.38 1.063-1.064 1.063z"/><use xlink:href="#l"/><use xlink:href="#k" x="105.067"/><path d="M368.37 128c-.53 0-1.063-.38-1.063-1.063V114.17c0-2.62-2.203-4.825-4.825-4.825s-4.863 2.204-4.863 4.787v12.805c0 .684-.532 1.063-1.063 1.063s-1.103-.38-1.103-1.063V114.17c0-2.62-2.203-4.825-4.787-4.825-2.66 0-4.863 2.204-4.863 4.787v12.805c0 .684-.57 1.063-1.063 1.063-.532 0-1.103-.38-1.103-1.063V108.89c0-.684.57-1.063 1.103-1.063.494 0 1.063.38 1.063 1.063v.23c1.254-1.216 2.964-1.938 4.825-1.938 2.432 0 4.598 1.216 5.928 3.23 1.254-1.937 3.42-3.23 5.89-3.23 3.95 0 7.03 3.116 7.03 6.953v12.805c0 .684-.57 1.063-1.103 1.063z"/><use xlink:href="#i" x="210.059"/><use xlink:href="#m"/><path d="M419.977 128H418.8c-3 0-4.483-1.48-4.483-4.445V109.99h-1.937c-.684 0-1.063-.57-1.063-1.102 0-.494.38-1.063 1.063-1.063h1.938v-5.813c0-.684.57-1.063 1.103-1.063s1.063.38 1.063 1.063v5.813h3.495c.685 0 1.064.57 1.064 1.063 0 .532-.38 1.102-1.064 1.102h-3.495v13.564c0 1.86.532 2.28 2.317 2.28h1.178c.685 0 1.064.57 1.064 1.103 0 .493-.38 1.063-1.064 1.063z"/><use xlink:href="#k" x="224.231"/><use xlink:href="#j" x="267.817"/><use xlink:href="#n"/><path d="M519.306 128h-.038c-1.254 0-3.04-.684-3.762-2.964-1.596 2.242-4.065 3.61-7.37 3.61-6.193 0-9.536-5.09-9.536-10.752 0-5.737 3.42-10.715 9.536-10.715 3.306 0 5.775 1.368 7.37 3.572v-1.862c0-.607.494-1.063 1.102-1.063.532 0 1.064.38 1.064 1.063V124.2c0 2.432 2.735.912 2.735 2.736a1.04 1.04 0 0 1-1.102 1.063zm-11.17-18.655c-4.483 0-7.37 3.61-7.37 8.55s2.888 8.587 7.37 8.587c4.52 0 7.37-3.647 7.37-8.587s-2.85-8.55-7.37-8.55z"/><use xlink:href="#j" x="336.673"/><path d="M553.394 136.664c-3.23 0-7.79-1.216-7.79-2.584 0-.608.494-1.216 1.103-1.216.418 0 1.29.646 2.014.912.987.342 2.545.722 4.673.722 4.863 0 7.37-2.394 7.37-7.067v-2.66c-1.672 2.014-4.065 3.23-7.37 3.23-6.003 0-9.536-4.256-9.536-10.106 0-5.7 3.42-10.715 9.536-10.715 3.306 0 5.775 1.368 7.37 3.572v-1.824c0-.684.57-1.063 1.102-1.063.494 0 1.064.38 1.064 1.063v18.503c0 6.04-3.6 9.233-9.537 9.233zm0-27.318c-4.483 0-7.37 3.61-7.37 8.55 0 4.9 2.698 7.94 7.37 7.94s7.37-3.04 7.37-7.94c0-4.94-2.85-8.55-7.37-8.55z"/><use xlink:href="#k" x="359.512"/><use xlink:href="#o"/><use xlink:href="#k" x="393.141"/><path d="M640.296 128c-.532 0-1.102-.38-1.102-1.063v-1.9c-1.596 2.242-4.065 3.61-7.37 3.61-6.117 0-9.536-5.015-9.536-10.752 0-5.7 3.42-10.715 9.536-10.715 3.306 0 5.775 1.368 7.37 3.572v-8.74c0-.684.57-1.063 1.102-1.063.494 0 1.064.38 1.064 1.063v24.925c0 .684-.57 1.063-1.064 1.063zm-8.473-18.655c-4.483 0-7.37 3.61-7.37 8.55s2.888 8.587 7.37 8.587c4.52 0 7.37-3.647 7.37-8.587s-2.85-8.55-7.37-8.55z"/><use xlink:href="#m" x="258.814"/><path d="M682.136 128.646c-3.306 0-5.775-1.367-7.37-3.61v9.84c0 .684-.57 1.102-1.063 1.102-.532 0-1.103-.418-1.103-1.102V108.89c0-.684.57-1.063 1.103-1.063.494 0 1.063.38 1.063 1.063v1.862c1.596-2.204 4.065-3.572 7.37-3.572 6.117 0 9.536 5.016 9.536 10.715 0 5.737-3.42 10.752-9.536 10.752zm0-19.3c-4.52 0-7.37 3.61-7.37 8.55s2.85 8.587 7.37 8.587 7.37-3.647 7.37-8.587-2.85-8.55-7.37-8.55z"/><use xlink:href="#k" x="487.38"/><path d="M732.864 125.76c-1.672 1.86-3.99 2.887-6.8 2.887-6.117 0-9.536-5.015-9.536-10.752 0-5.7 3.42-10.715 9.536-10.715 2.812 0 5.13 1.026 6.8 2.888.23.23.305.494.305.722 0 .57-.532 1.14-1.103 1.14-.266 0-.53-.114-.798-.38-1.254-1.406-3-2.204-5.205-2.204-4.483 0-7.37 3.61-7.37 8.55s2.888 8.587 7.37 8.587c2.204 0 3.95-.836 5.205-2.204.267-.266.532-.38.798-.38a1.13 1.13 0 0 1 1.103 1.102c0 .267-.076.494-.305.76z"/><use xlink:href="#g" x="602.972"/><path d="M760.908 118.996H745.14c.342 4.332 3.153 7.485 7.295 7.485 2.052 0 4.483-.912 5.585-2.622.267-.418.57-.53.912-.53.57 0 1.178.455 1.178 1.025 0 .342 0 .418-.722 1.254-1.748 2.052-4.293 3.04-6.953 3.04-6.117 0-9.536-5.015-9.536-10.752 0-5.7 3.42-10.715 9.536-10.715s9.537 5.054 9.537 10.715c0 .57-.532 1.102-1.064 1.102zm-8.473-9.65c-4.56 0-6.953 3.495-7.295 7.485h14.628c-.342-4.332-3.153-7.485-7.333-7.485zm19.645 19.376c-2.28 0-6.117-.798-7.447-3-.15-.23-.15-.418-.15-.57 0-.607.53-1.14 1.102-1.14.228 0 .607.2.836.532 1.367 1.67 3.8 2.014 5.66 2.014 3.686 0 5.547-1.216 5.547-3.686 0-5.737-12.462-2.698-12.462-10.297 0-3.837 3.837-5.32 7.295-5.32 1.976 0 5.015.685 6.535 2.204.228.228.342.494.342.722 0 .57-.57 1.14-1.178 1.14-.23 0-.494-.076-.722-.304-1.178-1.14-3.306-1.596-4.978-1.596-3.344 0-5.13 1.292-5.13 3.153 0 5.32 12.462 2.508 12.462 10.297 0 4.33-3.8 5.85-7.713 5.85z"/><use xlink:href="#g" x="657.576"/><use xlink:href="#j" x="611.941"/><use xlink:href="#f" x="705.266"/><use xlink:href="#l" x="547.763"/><use xlink:href="#k" x="652.829"/><path d="M916.4 109.23l-6.193 17.857c-.266.722-.607.912-1.102.912-.646 0-.836-.228-1.064-.912l-4.977-14.817-4.978 14.817c-.266.722-.608.912-1.102.912s-.874-.304-1.064-.912l-6.155-17.857c-.037-.113-.075-.304-.075-.418 0-.607.607-.987 1.102-.987.38 0 .836.19.988.722l5.205 15.046 4.977-14.855c.23-.723.456-.912 1.103-.912.456 0 .836.15 1.063.912l5.054 14.855 5.13-15.046c.19-.532.57-.722.988-.722.57 0 1.178.38 1.178 1.025 0 .152-.038.267-.076.38z"/><use xlink:href="#i" x="754.895"/><use xlink:href="#o" x="351.797"/><use xlink:href="#h" x="813.07"/><use xlink:href="#n" x="484.797"/></g><defs ><path id="C" d="M101.715 398v-1.92h2.816v-18.56l-2.88.256v-1.408c1.312-.32 2.592-.896 3.647-1.79h1.536v21.502h2.688V398h-7.808z"/><path id="D" d="M129.36 398.32c-3.584 0-5.695-2.816-5.695-6.144 0-2.848 1.504-4.896 3.71-6.464-2.047-1.632-3.2-3.23-3.2-5.95 0-3.04 2.304-5.184 5.184-5.184s5.184 2.144 5.184 5.184c0 2.72-1.152 4.32-3.2 5.95 2.208 1.568 3.712 3.616 3.712 6.464 0 3.327-2.11 6.144-5.695 6.144zm0-11.392c-1.855 1.376-3.392 2.848-3.392 5.344 0 1.888 1.023 4.128 3.392 4.128s3.392-2.24 3.392-4.128c0-2.496-1.536-3.968-3.392-5.344zm0-10.43c-1.984 0-2.88 1.535-2.88 3.007 0 2.336 1.152 4.064 2.88 5.12 1.728-1.056 2.88-2.784 2.88-5.12 0-1.472-.896-3.007-2.88-3.007z"/><path id="E" d="M310.446 398v-1.92c2.048-6.848 8.447-10.687 8.447-15.935 0-2.432-1.216-3.647-2.784-3.647-1.823 0-3.168 1.407-3.36 4.863h-2.112c.256-5.248 2.624-6.783 5.408-6.783 3.04 0 5.15 2.048 5.15 5.887 0 5.76-5.184 7.552-8.64 15.615h8.768V398h-10.88z"/><path id="F" d="M328.3 398.32c-3.775 0-5.567-3.52-5.567-11.87s1.792-11.87 5.567-11.87 5.567 3.52 5.567 11.87-1.792 11.87-5.567 11.87zm0-21.822c-2.112 0-3.264 2.367-3.264 9.95s1.15 9.95 3.264 9.95 3.264-2.368 3.264-9.95-1.152-9.95-3.264-9.95z"/><path id="G" d="M336.527 334.465c-8.064 0-12.817-6.336-12.817-13.825 0-6.408 3.385-11.017 8.353-14.545-4.607-3.672-7.2-7.272-7.2-13.394 0-6.84 5.185-11.665 11.665-11.665s11.665 4.825 11.665 11.665c0 6.12-2.592 9.722-7.2 13.394 4.968 3.528 8.353 8.137 8.353 14.545 0 7.49-4.753 13.825-12.817 13.825zm0-25.634c-4.177 3.096-7.633 6.408-7.633 12.025 0 4.248 2.305 9.288 7.633 9.288s7.633-5.04 7.633-9.288c0-5.617-3.456-8.93-7.633-12.025zm0-23.475c-4.465 0-6.48 3.457-6.48 6.77 0 5.256 2.592 9.145 6.48 11.52 3.89-2.376 6.48-6.265 6.48-11.52 0-3.312-2.016-6.77-6.48-6.77z"/><path id="H" d="M365.614 334.465c-8.497 0-12.53-7.92-12.53-26.714s4.032-26.715 12.53-26.715 12.53 7.92 12.53 26.715-4.032 26.714-12.53 26.714zm0-49.108c-4.752 0-7.345 5.33-7.345 22.395s2.593 22.394 7.345 22.394 7.345-5.328 7.345-22.394-2.592-22.395-7.345-22.395z"/><path id="I" d="M617.642 291.406c-.72-5.185-3.6-6.05-5.617-6.05-4.608 0-7.488 6.337-7.632 20.81 2.088-2.232 4.896-3.96 7.992-3.96 5.833 0 11.16 4.177 11.16 15.985 0 10.08-4.32 16.273-11.16 16.273-9 0-13.32-5.185-13.32-23.905 0-20.882 4.896-29.523 13.105-29.523 6.696 0 9.217 4.033 10.225 10.08l-4.752.288zm-13.394 24.482c0 10.513 2.736 14.257 7.345 14.257 4.032 0 6.77-3.024 6.77-12.024 0-9.29-3.168-11.594-6.48-11.594s-5.904 2.16-7.633 4.465v4.896z"/><path id="J" d="M104.714 1045.51c-.633 0-1.267-.367-1.4-1.1-1.334 1.034-2.97 1.668-4.804 1.668-4.136 0-7.604-3.436-7.604-7.605v-9.24a1.37 1.37 0 0 1 1.4-1.435c.768 0 1.468.5 1.468 1.4v9.272c0 2.602 2.168 4.77 4.736 4.77 2.603 0 4.77-2.17 4.77-4.77v-9.24c0-1.034.667-1.468 1.4-1.468.768 0 1.435.5 1.435 1.435v14.9c0 .934-.667 1.4-1.4 1.4z"/><path id="K" d="M623.748 1046.358c-1.2 0-3.22-.42-3.92-1.58-.08-.12-.08-.22-.08-.3 0-.32.28-.6.58-.6.12 0 .32.1.44.28.72.88 2 1.06 2.98 1.06 1.94 0 2.92-.64 2.92-1.94 0-3.02-6.562-1.42-6.562-5.422 0-2.02 2.02-2.8 3.84-2.8 1.04 0 2.64.36 3.44 1.16.12.12.18.26.18.38a.65.65 0 0 1-.62.6.53.53 0 0 1-.38-.16c-.62-.6-1.74-.84-2.62-.84-1.76 0-2.7.68-2.7 1.66 0 2.8 6.562 1.32 6.562 5.422 0 2.28-2 3.08-4.06 3.08z"/><path id="L" d="M634.47 1046.318c-3.22 0-5.02-2.64-5.02-5.66 0-3 1.8-5.64 5.02-5.64s5.02 2.64 5.02 5.64c0 3.02-1.8 5.66-5.02 5.66zm0-10.162c-2.36 0-3.88 1.9-3.88 4.5s1.52 4.52 3.88 4.52c2.38 0 3.88-1.92 3.88-4.52s-1.5-4.5-3.88-4.5z"/><path id="M" d="M650.25 1045.98c-.28 0-.58-.2-.58-.56v-.64c-.84.98-2.06 1.54-3.42 1.54-2.48 0-4.56-2.08-4.56-4.56v-5.842c0-.36.3-.56.58-.56.26 0 .56.2.56.56v5.842c0 1.9 1.52 3.42 3.42 3.42s3.42-1.52 3.42-3.42v-5.842c0-.36.3-.56.58-.56.26 0 .56.2.56.56v9.502c0 .36-.3.56-.56.56z"/><path id="N" d="M658.208 1036.337a3.42 3.42 0 0 0-3.421 3.42v5.66c0 .36-.3.56-.56.56-.28 0-.58-.2-.58-.56v-9.502c0-.36.3-.56.58-.56.26 0 .56.2.56.56v.82c.9-.98 2.08-1.54 3.42-1.54.36 0 .58.3.58.56a.58.58 0 0 1-.58.581z"/><path id="O" d="M668.388 1044.798c-.88.98-2.1 1.52-3.58 1.52-3.22 0-5.02-2.64-5.02-5.66 0-3 1.8-5.64 5.02-5.64 1.48 0 2.7.54 3.58 1.52a.53.53 0 0 1 .16.381.63.63 0 0 1-.58.6c-.14 0-.28-.06-.42-.2-.66-.74-1.58-1.16-2.74-1.16-2.36 0-3.88 1.9-3.88 4.5s1.52 4.52 3.88 4.52c1.16 0 2.08-.44 2.74-1.16.14-.14.28-.2.42-.2.3 0 .58.26.58.58a.57.57 0 0 1-.16.399z"/><path id="P" d="M732.008 1036.156l-5.42 12.823c-.4.94-1.22 1.2-2.14 1.2h-.88c-.36 0-.56-.3-.56-.58 0-.26.2-.56.56-.56h.88c.44 0 .9-.02 1.08-.48l1.14-2.72-4.142-9.683c-.04-.1-.04-.18-.04-.26 0-.32.28-.54.58-.54.18 0 .4.08.5.34l3.722 8.682 3.68-8.682a.52.52 0 0 1 .52-.34c.3 0 .56.22.56.54 0 .08 0 .16-.04.26z"/><path id="Q" d="M744.966 1047.76c-.08.06-.2.08-.3.08-.32 0-.54-.28-.54-.58 0-.56.86-.64 1-1.28-.6-.04-1.08-.54-1.08-1.14 0-.68.56-1.16 1.16-1.16.98 0 1.2 1 1.2 1.62 0 .98-.52 1.92-1.44 2.46z"/><path id="R" d="M768.488 1032.456l-3.52 13.103a.55.55 0 0 1-.56.42c-.24 0-.48-.14-.54-.42l-3-11.083-2.98 11.083c-.06.28-.3.42-.54.42-.26 0-.48-.14-.56-.42l-3.52-13.103c-.02-.06-.02-.12-.02-.18a.58.58 0 0 1 .58-.58c.26 0 .46.14.52.44l3 11.082 2.98-11.082c.08-.28.3-.4.54-.4.26 0 .48.12.56.4l2.98 11.082 3-11.082c.08-.3.28-.44.52-.44a.58.58 0 0 1 .58.58c0 .06 0 .12-.02.18z"/><path id="S" d="M824.183 1032.855h-.62c-.48 0-.88.4-.88.86v1.64h1.5c.38 0 .56.3.56.56 0 .28-.2.58-.56.58h-1.5v8.922c0 .36-.28.56-.56.56s-.56-.18-.56-.56v-8.922h-1.38c-.36 0-.56-.3-.56-.58 0-.26.2-.56.56-.56h1.38v-1.64c0-1.1.9-1.98 1.98-1.98h.64c.36 0 .58.28.58.58 0 .28-.2.54-.58.54z"/><path id="T" d="M858.404 1045.98h-.02c-.66 0-1.6-.36-1.98-1.56-.84 1.18-2.14 1.9-3.88 1.9-3.26 0-5.02-2.68-5.02-5.66 0-3.02 1.8-5.64 5.02-5.64 1.74 0 3.04.72 3.88 1.88v-.98c0-.32.26-.56.58-.56.28 0 .56.2.56.56v8.063c0 1.28 1.44.48 1.44 1.44a.55.55 0 0 1-.58.561zm-5.88-9.822c-2.36 0-3.88 1.9-3.88 4.5s1.52 4.52 3.88 4.52c2.38 0 3.88-1.92 3.88-4.52s-1.5-4.5-3.88-4.5z"/><path id="U" d="M869.363 1045.98c-.28 0-.58-.2-.58-.56v-5.84c0-1.9-1.52-3.42-3.42-3.42a3.42 3.42 0 0 0-3.421 3.421v5.84c0 .36-.3.56-.56.56-.28 0-.58-.2-.58-.56v-9.502c0-.36.3-.56.58-.56.26 0 .56.2.56.56v.64c.9-.98 2.08-1.54 3.42-1.54a4.6 4.6 0 0 1 4.561 4.561v5.84c0 .36-.3.56-.56.56z"/><path id="V" d="M944.342 1046.1c-1.08 0-1.98-1-1.98-2.12v-11.683c0-.36.3-.56.58-.56.26 0 .56.2.56.56v11.683c0 1.28 1.42.54 1.42 1.44 0 .34-.24.68-.58.68z"/><path id="W" d="M107.26 81.02c-9.66 0-15.06-7.92-15.06-16.98 0-9 5.4-16.92 15.06-16.92s15.06 7.92 15.06 16.92c0 9.06-5.4 16.98-15.06 16.98zm0-28.8c-6 0-9.9 4.68-9.9 11.82 0 7.2 3.9 11.88 9.9 11.88 6.06 0 9.9-4.68 9.9-11.88 0-7.14-3.84-11.82-9.9-11.82z"/><path id="X" d="M151.357 80.06c-1.14 0-2.28-.66-2.52-1.98-2.4 1.86-5.34 3-8.64 3-7.44 0-13.68-6.18-13.68-13.68v-16.62c0-1.68 1.26-2.58 2.52-2.58 1.38 0 2.64.9 2.64 2.52V67.4c0 4.68 3.9 8.58 8.52 8.58 4.68 0 8.58-3.9 8.58-8.58v-16.62c0-1.86 1.2-2.64 2.52-2.64 1.38 0 2.58.9 2.58 2.58v26.82c0 1.68-1.2 2.52-2.52 2.52z"/><path id="Y" d="M184.777 80c-1.32 0-2.52-.9-2.52-2.52V60.8c0-4.68-3.9-8.58-8.58-8.58-4.62 0-8.52 3.9-8.52 8.58v16.62c0 1.68-1.26 2.64-2.64 2.64-1.26 0-2.52-.9-2.52-2.58v-26.82c0-1.74 1.26-2.52 2.52-2.52 1.2 0 2.28.66 2.58 1.98 2.34-1.86 5.28-3 8.58-3 7.44 0 13.68 6.18 13.68 13.68v16.62c0 1.68-1.2 2.58-2.58 2.58z"/><path id="Z" d="M203.078 80h-1.02c-5.7 0-7.86-3-7.86-7.92v-18.84h-1.8c-1.44 0-2.58-1.14-2.58-2.52 0-1.44 1.14-2.58 2.52-2.58h1.8v-8.34c0-1.68 1.26-2.52 2.58-2.52s2.52.84 2.52 2.52v8.34h3.84c1.68 0 2.52 1.38 2.52 2.52 0 1.44-.96 2.58-2.52 2.58h-3.84v19.38c0 1.68.6 2.28 2.28 2.28h1.5c1.56 0 2.58 1.14 2.58 2.52 0 1.44-.96 2.58-2.52 2.58z"/><path id="a" d="M238.176 80c-3.3 0-4.8-2.34-5.34-3.42-2.4 2.64-5.88 4.44-10.56 4.44-9.78 0-15.06-8.04-15.06-16.98s5.4-16.92 15.06-16.92c4.2 0 7.56 1.5 9.9 3.96v-.24c0-.66.24-2.7 2.52-2.7 1.26 0 2.64.66 2.64 2.52v23.16c0 .78.54 1.08.84 1.08 1.68 0 2.58 1.2 2.58 2.58 0 1.26-.9 2.52-2.58 2.52zm-15.9-27.78c-6 0-9.9 4.68-9.9 11.82 0 7.2 3.9 11.88 9.9 11.88 6.06 0 9.9-4.68 9.9-11.88 0-7.14-3.84-11.82-9.9-11.82z"/><path id="b" d="M246.697 43.282a4.3 4.3 0 1 1 0-8.64 4.3 4.3 0 1 1 0 8.64zm0 36.72c-1.32 0-2.64-.9-2.64-2.52v-26.76c0-1.68 1.32-2.58 2.64-2.58 1.26 0 2.52.9 2.52 2.58v26.76c0 1.68-1.26 2.52-2.52 2.52z"/><path id="c" d="M386.253 52.222c-4.62 0-8.52 3.9-8.52 8.58v16.62c0 1.68-1.26 2.58-2.64 2.58-1.26 0-2.52-.9-2.52-2.52v-26.76c0-1.68 1.38-2.58 2.52-2.58 1.2 0 2.34.66 2.58 2.04 2.34-1.92 5.52-3.06 8.58-3.06 1.74 0 2.64 1.2 2.64 2.58 0 1.32-.9 2.52-2.64 2.52z"/><path id="d" d="M410.852 80.12c-3.24 0-6-2.76-6-6.12V39.862c0-1.74 1.26-2.58 2.58-2.58s2.58.84 2.58 2.52V74c0 .72.54 1.02.84 1.02 1.68 0 2.58 1.2 2.58 2.58 0 1.32-.9 2.52-2.58 2.52z"/><path id="e" d="M762.445 81.02c-3.3 0-8.82-1.02-11.64-4.5-.36-.54-.54-1.08-.54-1.56 0-1.5 1.44-2.7 2.7-2.7.72 0 1.26.36 1.86 1.02 1.86 2.04 4.92 2.64 7.62 2.64 5.4 0 7.14-1.86 7.14-4.56 0-7.68-18.3-2.94-18.3-15.3 0-6.54 6.12-8.94 11.82-8.94 3.24 0 10.86 1.62 10.86 4.98 0 1.32-1.08 2.7-2.52 2.7-.54 0-1.38-.3-1.98-.78-1.62-1.38-3.96-1.8-6.36-1.8-4.98 0-6.72 1.86-6.72 3.84 0 7.14 18.36 2.52 18.36 15.3 0 7.08-5.94 9.66-12.3 9.66z"/><path id="f" d="M130.234 128h-1.178c-3 0-4.483-1.48-4.483-4.445V109.99h-1.937c-.684 0-1.063-.57-1.063-1.102 0-.494.38-1.063 1.063-1.063h1.938v-5.813c0-.684.57-1.063 1.103-1.063s1.063.38 1.063 1.063v5.813h3.495c.685 0 1.064.57 1.064 1.063 0 .532-.38 1.102-1.064 1.102h-3.495v13.564c0 1.86.532 2.28 2.317 2.28h1.178c.685 0 1.064.57 1.064 1.103 0 .493-.38 1.063-1.064 1.063z"/><path id="g" d="M135.1 104.178a2.14 2.14 0 1 1 0-4.332 2.14 2.14 0 0 1 0 4.332zm0 23.822c-.532 0-1.103-.342-1.103-1.063V108.89c0-.684.532-1.063 1.103-1.063.494 0 1.063.342 1.063 1.063v18.048c0 .684-.494 1.063-1.063 1.063z"/><path id="h" d="M144.56 128.228c-2.052 0-3.762-1.9-3.762-4.027v-22.188c0-.684.57-1.063 1.103-1.063.494 0 1.063.38 1.063 1.063V124.2c0 2.432 2.697 1.026 2.697 2.736 0 .645-.455 1.29-1.102 1.29z"/><path id="i" d="M173.135 128.646c-6.117 0-9.536-5.015-9.536-10.752 0-5.7 3.42-10.715 9.536-10.715s9.537 5.016 9.537 10.715c0 5.737-3.42 10.752-9.537 10.752zm0-19.3c-4.483 0-7.37 3.61-7.37 8.55s2.888 8.587 7.37 8.587c4.52 0 7.37-3.647 7.37-8.587s-2.85-8.55-7.37-8.55z"/><path id="j" d="M202.697 128c-.53 0-1.102-.38-1.102-1.063v-11.095a6.47 6.47 0 0 0-6.497-6.497c-3.57 0-6.497 2.888-6.497 6.497v11.095c0 .684-.57 1.063-1.063 1.063-.532 0-1.103-.38-1.103-1.063V108.89c0-.684.57-1.063 1.103-1.063.494 0 1.063.38 1.063 1.063v1.216c1.7-1.86 3.95-2.926 6.497-2.926 4.71 0 8.663 3.914 8.663 8.663v11.095c0 .684-.57 1.063-1.064 1.063z"/><path id="k" d="M225.193 118.996h-15.768c.342 4.332 3.153 7.485 7.295 7.485 2.052 0 4.483-.912 5.585-2.622.267-.418.57-.53.912-.53.57 0 1.178.455 1.178 1.025 0 .342 0 .418-.722 1.254-1.748 2.052-4.293 3.04-6.953 3.04-6.117 0-9.536-5.015-9.536-10.752 0-5.7 3.42-10.715 9.536-10.715s9.537 5.054 9.537 10.715c0 .57-.532 1.102-1.064 1.102zm-8.473-9.65c-4.56 0-6.953 3.495-7.295 7.485h14.628c-.342-4.332-3.153-7.485-7.333-7.485z"/><path id="l" d="M307.763 128c-.53 0-1.102-.38-1.102-1.063v-11.095a6.47 6.47 0 0 0-6.497-6.497c-3.57 0-6.497 2.888-6.497 6.497v11.095c0 .684-.57 1.063-1.063 1.063-.532 0-1.103-.38-1.103-1.063v-24.925c0-.684.57-1.063 1.103-1.063.494 0 1.063.38 1.063 1.063v8.093c1.596-1.86 3.913-2.926 6.497-2.926 4.71 0 8.663 3.914 8.663 8.663v11.095c0 .684-.57 1.063-1.064 1.063z"/><path id="m" d="M402.08 128.722c-2.28 0-6.117-.798-7.447-3-.15-.23-.15-.418-.15-.57 0-.607.53-1.14 1.102-1.14.228 0 .607.19.836.532 1.367 1.67 3.8 2.014 5.66 2.014 3.686 0 5.547-1.216 5.547-3.686 0-5.737-12.462-2.698-12.462-10.297 0-3.837 3.837-5.32 7.295-5.32 1.976 0 5.016.685 6.535 2.204.228.228.342.494.342.722 0 .57-.57 1.14-1.178 1.14-.23 0-.494-.076-.722-.304-1.18-1.14-3.306-1.596-4.978-1.596-3.344 0-5.13 1.292-5.13 3.153 0 5.32 12.462 2.508 12.462 10.297 0 4.33-3.8 5.85-7.713 5.85z"/><path id="n" d="M493.77 128c-.53 0-1.102-.38-1.102-1.063v-1.9c-1.596 2.242-4.065 3.61-7.37 3.61-6.117 0-9.536-5.015-9.536-10.752 0-5.7 3.42-10.715 9.536-10.715 3.306 0 5.775 1.368 7.37 3.572v-8.74c0-.684.57-1.063 1.102-1.063.494 0 1.064.38 1.064 1.063v24.925c0 .684-.57 1.063-1.064 1.063zm-8.473-18.655c-4.483 0-7.37 3.61-7.37 8.55s2.888 8.587 7.37 8.587c4.52 0 7.37-3.647 7.37-8.587s-2.85-8.55-7.37-8.55z"/><path id="o" d="M598.196 109.687c-3.57 0-6.497 2.888-6.497 6.497v10.753c0 .684-.57 1.063-1.063 1.063-.532 0-1.103-.38-1.103-1.063V108.89c0-.684.57-1.063 1.103-1.063.494 0 1.063.38 1.063 1.063v1.558c1.7-1.86 3.95-2.925 6.497-2.925.684 0 1.102.57 1.102 1.063 0 .532-.418 1.102-1.102 1.102z"/></defs></svg>