<svg xmlns="http://www.w3.org/2000/svg" xmlns:xlink="http://www.w3.org/1999/xlink" viewBox="0 0 1080 1080"><style><![CDATA[.U{fill:#fff}.V{opacity:.4}.W{fill:none}.X{stroke-width:2}.Y{opacity:.6}.Z{stroke:#fff}.a{fill:#fbb03b}.b{fill:#b3b3b3}.c{stroke-miterlimit:10}.d{stroke-dasharray:1.99211 5.97633}]]></style><defs><radialGradient id="A" cx="372.91" cy="547.162" r="679.752" gradientUnits="userSpaceOnUse"><stop offset="0" stop-color="#754c24"/><stop offset=".2" stop-color="#503419"/><stop offset=".429" stop-color="#2e1e0e"/><stop offset=".645" stop-color="#140d06"/><stop offset=".841" stop-color="#050302"/><stop offset="1"/></radialGradient><linearGradient id="B" x1="539.978" y1="963.823" x2="539.978" y2="527.029" gradientUnits="userSpaceOnUse"><stop offset="0" stop-color="#f9d423"/><stop offset=".137" stop-color="#f9cb26"/><stop offset=".362" stop-color="#fbb22e"/><stop offset=".647" stop-color="#fc893c"/><stop offset=".979" stop-color="#ff524f"/><stop offset="1" stop-color="#ff4e50"/></linearGradient><linearGradient id="C" x1="107.2" y1="224.229" x2="198.284" y2="315.314" gradientUnits="userSpaceOnUse"><stop offset="0" stop-color="#ffc837"/><stop offset=".217" stop-color="#ffbf31"/><stop offset=".573" stop-color="#ffa621"/><stop offset="1" stop-color="#ff8008"/></linearGradient><linearGradient id="D" x1="433.001" y1="239.13" x2="479.07" y2="239.13" xlink:href="#C"/><linearGradient id="E" x1="644.362" y1="237.498" x2="722.123" y2="315.259" xlink:href="#C"/><linearGradient id="F" x1="906.188" y1="237.564" x2="983.949" y2="315.324" xlink:href="#C"/><path id="G" d="M34.683 997.304v-1.68h2.464v-16.24l-2.52.224v-1.23a7.754 7.754 0 0 0 3.191-1.568h1.345v18.816h2.352v1.68z"/><path id="H" d="M46.22 993.552c.28 2.016 1.4 2.352 2.184 2.352 1.792 0 2.912-2.464 2.97-8.092a4.393 4.393 0 0 1-3.108 1.54c-2.268 0-4.34-1.624-4.34-6.216 0-3.92 1.68-6.328 4.34-6.328 3.5 0 5.18 2.017 5.18 9.296 0 8.12-1.903 11.48-5.096 11.48-2.604 0-3.584-1.568-3.976-3.92zm5.208-9.52c0-4.09-1.064-5.545-2.856-5.545-1.567 0-2.632 1.177-2.632 4.677 0 3.61 1.232 4.508 2.52 4.508a3.835 3.835 0 0 0 2.968-1.736z"/><path id="I" d="M367.858 498.77a1.594 1.594 0 0 1-1.641 1.695 1.682 1.682 0 0 1 0-3.363 1.582 1.582 0 0 1 1.641 1.668h0z"/><path id="J" d="M104.714 1045.51a1.36 1.36 0 0 1-1.4-1.101 7.763 7.763 0 0 1-4.804 1.668 7.666 7.666 0 0 1-7.604-7.605v-9.24a1.434 1.434 0 0 1 2.868-.033v9.272a4.753 4.753 0 1 0 9.507 0v-9.24a1.33 1.33 0 0 1 1.4-1.468 1.364 1.364 0 0 1 1.435 1.435v14.9a1.328 1.328 0 0 1-1.401 1.4z"/><path id="K" d="M808.203 1046.357c-1.2 0-3.22-.42-3.92-1.58a.478.478 0 0 1-.08-.299.546.546 0 0 1 1.021-.32 3.815 3.815 0 0 0 2.98 1.061c1.94 0 2.92-.64 2.92-1.94 0-3.02-6.562-1.42-6.562-5.422 0-2.02 2.02-2.8 3.84-2.8a5.415 5.415 0 0 1 3.44 1.16.556.556 0 0 1 .18.379.647.647 0 0 1-.62.6.527.527 0 0 1-.38-.16 4.001 4.001 0 0 0-2.62-.84c-1.76 0-2.7.682-2.7 1.66 0 2.8 6.562 1.32 6.562 5.422 0 2.28-2 3.08-4.06 3.08z"/><path id="L" d="M818.924 1046.318c-3.22 0-5.02-2.64-5.02-5.662 0-3 1.8-5.64 5.02-5.64s5.02 2.64 5.02 5.64c0 3.02-1.8 5.662-5.02 5.662zm0-10.162c-2.36 0-3.88 1.9-3.88 4.5s1.52 4.52 3.88 4.52c2.38 0 3.88-1.92 3.88-4.52s-1.5-4.5-3.88-4.5z"/><path id="M" d="M842.663 1036.336a3.418 3.418 0 0 0-3.421 3.42v5.662a.57.57 0 0 1-1.141 0v-9.502a.57.57 0 0 1 1.141 0v.82a4.566 4.566 0 0 1 3.421-1.541.57.57 0 1 1 0 1.141z"/><path id="N" d="M864.424 1041.236h-8.302c.18 2.28 1.66 3.94 3.84 3.94a3.615 3.615 0 0 0 2.94-1.381.526.526 0 0 1 .479-.279.611.611 0 0 1 .62.541c0 .18 0 .22-.38.658a4.718 4.718 0 0 1-3.66 1.602c-3.22 0-5.02-2.64-5.02-5.662 0-3 1.8-5.64 5.02-5.64s5.02 2.66 5.02 5.64a.605.605 0 0 1-.56.58zm-4.46-5.08c-2.4 0-3.66 1.84-3.84 3.94h7.7c-.18-2.28-1.66-3.94-3.86-3.94z"/><path id="O" d="M922.484 1045.98a.585.585 0 0 1-.521-.34l-1.28-3.082h-7.2l-1.28 3.082a.564.564 0 0 1-1.081-.201.589.589 0 0 1 .04-.26l5.4-13.104a.632.632 0 0 1 .58-.379.516.516 0 0 1 .48.379l5.4 13.104a.589.589 0 0 1 .04.26.56.56 0 0 1-.58.541zm-5.4-12.184l-3.14 7.623h6.3z"/><path id="P" d="M84.28 81.02c-9.66 0-15.06-7.92-15.06-16.98 0-9 5.4-16.92 15.06-16.92s15.06 7.92 15.06 16.92c0 9.06-5.4 16.98-15.06 16.98zm0-28.8c-6 0-9.9 4.68-9.9 11.82 0 7.2 3.9 11.88 9.9 11.88 6.06 0 9.9-4.68 9.9-11.88 0-7.14-3.84-11.82-9.9-11.82z"/><path id="Q" d="M128.378 80.06a2.446 2.446 0 0 1-2.52-1.98 13.966 13.966 0 0 1-8.64 3 13.79 13.79 0 0 1-13.679-13.68v-16.62a2.58 2.58 0 0 1 5.16-.06V67.4a8.55 8.55 0 1 0 17.099 0v-16.62a2.393 2.393 0 0 1 2.52-2.64 2.454 2.454 0 0 1 2.58 2.58v26.82a2.39 2.39 0 0 1-2.52 2.52z"/><path id="R" d="M266.905 43.282a4.32 4.32 0 1 1 4.32-4.319 4.302 4.302 0 0 1-4.32 4.319zm0 36.72a2.52 2.52 0 0 1-2.64-2.52v-26.76a2.534 2.534 0 0 1 2.64-2.58 2.472 2.472 0 0 1 2.52 2.58v26.76a2.421 2.421 0 0 1-2.52 2.52z"/><path id="S" d="M503.958 43.282a4.32 4.32 0 1 1 4.319-4.319 4.302 4.302 0 0 1-4.319 4.319zm0 36.72a2.52 2.52 0 0 1-2.64-2.52v-26.76a2.533 2.533 0 0 1 2.64-2.58 2.472 2.472 0 0 1 2.52 2.58v26.76a2.421 2.421 0 0 1-2.52 2.52z"/><path id="T" d="M637.756 80h-6.9a2.55 2.55 0 0 1 0-5.1h.9v-32.52h-.9a2.55 2.55 0 0 1 0-5.1h6.9a2.551 2.551 0 1 1 0 5.1h-.9V74.9h.9a2.551 2.551 0 1 1 0 5.1z"/><path id="U" d="M89.705 128.723c-2.28 0-6.117-.798-7.447-3a.922.922 0 0 1-.151-.57 1.036 1.036 0 0 1 1.938-.607c1.367 1.67 3.8 2.014 5.66 2.014 3.686 0 5.547-1.216 5.547-3.686 0-5.737-12.462-2.698-12.462-10.297 0-3.837 3.837-5.32 7.295-5.32 1.976 0 5.016.685 6.535 2.204a1.064 1.064 0 0 1 .342.722 1.232 1.232 0 0 1-1.178 1.14 1.006 1.006 0 0 1-.722-.304 7.599 7.599 0 0 0-4.978-1.596c-3.344 0-5.13 1.292-5.13 3.153 0 5.32 12.462 2.508 12.462 10.297 0 4.33-3.8 5.85-7.713 5.85z"/><path id="V" d="M110.187 128.646a8.619 8.619 0 0 1-7.371-3.609v9.84a1.083 1.083 0 1 1-2.166 0V108.9a1.083 1.083 0 0 1 2.166 0v1.862a8.686 8.686 0 0 1 7.371-3.572c6.117 0 9.536 5.016 9.536 10.715 0 5.737-3.42 10.752-9.536 10.752zm0-19.3c-4.52 0-7.37 3.61-7.37 8.55s2.85 8.587 7.37 8.587 7.37-3.647 7.37-8.587-2.85-8.55-7.37-8.55z"/><path id="W" d="M124.59 104.18a2.166 2.166 0 1 1 2.165-2.166 2.141 2.141 0 0 1-2.165 2.166zm0 23.822a1.045 1.045 0 0 1-1.103-1.063V108.9a1.047 1.047 0 0 1 1.103-1.063 1.034 1.034 0 0 1 1.063 1.063v18.048a1.016 1.016 0 0 1-1.063 1.064z"/><path id="X" d="M137.242 128h-1.178c-3 0-4.483-1.48-4.483-4.445V109.99h-1.937a1.083 1.083 0 0 1 0-2.165h1.938v-5.814a1.068 1.068 0 0 1 1.103-1.063 1.037 1.037 0 0 1 1.063 1.063v5.813h3.495a1.083 1.083 0 0 1 0 2.165h-3.495v13.564c0 1.86.532 2.28 2.317 2.28h1.178a1.083 1.083 0 0 1 0 2.166z"/><path id="Y" d="M217.383 103.077h-1.178a1.679 1.679 0 0 0-1.672 1.633v3.116h2.85a1.035 1.035 0 0 1 1.064 1.063 1.068 1.068 0 0 1-1.064 1.102h-2.85v16.946a1.037 1.037 0 0 1-1.063 1.063 1.014 1.014 0 0 1-1.063-1.063V109.99h-2.622a1.083 1.083 0 0 1 0-2.165h2.622V104.7a3.769 3.769 0 0 1 3.761-3.761h1.216a1.078 1.078 0 0 1 1.103 1.102 1.019 1.019 0 0 1-1.103 1.026z"/><path id="Z" d="M249.452 118.996h-15.768c.342 4.332 3.153 7.485 7.295 7.485a6.866 6.866 0 0 0 5.585-2.622.997.997 0 0 1 .912-.531 1.161 1.161 0 0 1 1.178 1.025c0 .342 0 .418-.722 1.254a8.969 8.969 0 0 1-6.953 3.039c-6.117 0-9.536-5.015-9.536-10.752 0-5.7 3.42-10.715 9.536-10.715s9.537 5.054 9.537 10.715a1.15 1.15 0 0 1-1.064 1.102zm-8.473-9.65c-4.56 0-6.953 3.495-7.295 7.485h14.628c-.342-4.332-3.153-7.485-7.333-7.485z"/><path id="a" d="M262.944 109.688a6.494 6.494 0 0 0-6.497 6.497v10.753a1.083 1.083 0 0 1-2.166 0V108.9a1.083 1.083 0 0 1 2.166 0v1.558a8.676 8.676 0 0 1 6.497-2.925 1.083 1.083 0 1 1 0 2.165z"/><path id="b" d="M303.148 136.664c-3.23 0-7.79-1.216-7.79-2.584a1.206 1.206 0 0 1 1.103-1.216 13.689 13.689 0 0 1 2.014.912 14.237 14.237 0 0 0 4.673.722c4.863 0 7.37-2.394 7.37-7.067v-2.66a9.072 9.072 0 0 1-7.371 3.229c-6.003 0-9.536-4.256-9.536-10.106 0-5.7 3.42-10.715 9.536-10.715a8.686 8.686 0 0 1 7.371 3.572v-1.824a1.083 1.083 0 0 1 2.166 0v18.503c0 6.04-3.6 9.233-9.537 9.233zm0-27.318c-4.483 0-7.37 3.61-7.37 8.55 0 4.9 2.698 7.94 7.37 7.94s7.37-3.04 7.37-7.94c0-4.94-2.85-8.55-7.37-8.55z"/><path id="c" d="M121.075 372.09a5.691 5.691 0 0 1-4.291-1.716v5.642a1.084 1.084 0 0 1-1.144 1.118 1.071 1.071 0 0 1-1.092-1.118V358.96a1.071 1.071 0 0 1 1.092-1.118 1.084 1.084 0 0 1 1.144 1.118 6.242 6.242 0 0 1 4.291-1.586c4.186 0 6.526 3.432 6.526 7.332 0 3.952-2.34 7.384-6.526 7.384zm0-12.506c-2.574 0-4.29 2.054-4.29 5.122 0 3.12 1.7 5.174 4.29 5.174s4.3-2.028 4.3-5.148c0-3.094-1.7-5.148-4.3-5.148z"/><path id="d" d="M81.816 399.805a2.725 2.725 0 0 1-2.574-2.756v-15.185a.741.741 0 0 1 1.482 0v15.185c0 1.664 1.846.702 1.846 1.872a.838.838 0 0 1-.754.884z"/><path id="e" d="M102.51 383.347a1.482 1.482 0 1 1 1.482-1.482 1.465 1.465 0 0 1-1.482 1.482zm0 16.303a.714.714 0 0 1-.754-.728v-12.35a.716.716 0 0 1 .754-.728.708.708 0 0 1 .728.728v12.35a.696.696 0 0 1-.728.728z"/><path id="f" d="M42.164 527.297a5.446 5.446 0 0 1-4.656-2.28v6.216a.684.684 0 1 1-1.368 0v-16.417a.684.684 0 0 1 1.368 0v1.176a5.489 5.489 0 0 1 4.656-2.256c3.865 0 6.025 3.168 6.025 6.77 0 3.624-2.16 6.793-6.025 6.793zm0-12.193c-2.856 0-4.656 2.28-4.656 5.4s1.8 5.425 4.656 5.425 4.657-2.305 4.657-5.425-1.8-5.4-4.657-5.4z"/><path id="g" d="M61.39 521.2h-9.96c.216 2.736 1.992 4.73 4.608 4.73a4.339 4.339 0 0 0 3.528-1.656.628.628 0 0 1 .576-.336.734.734 0 0 1 .744.647c0 .216 0 .265-.456.792a5.664 5.664 0 0 1-4.392 1.921c-3.864 0-6.024-3.17-6.024-6.793 0-3.6 2.16-6.77 6.024-6.77s6.024 3.192 6.024 6.77a.726.726 0 0 1-.672.696zm-5.353-6.097c-2.88 0-4.393 2.208-4.608 4.73h9.24c-.216-2.736-1.992-4.73-4.632-4.73z"/><path id="h" d="M94.34 527.297c-5.088 0-5.136-6.097-5.136-9.602 0-3.432.528-8.328 5.112-8.328 4.488 0 5.16 4.608 5.16 8.328 0 3.48-.072 9.602-5.136 9.602zm3.77-9.602c0-3.432-.48-6.96-3.77-6.96-3.6 0-3.77 4.416-3.77 6.96v1.536c0 2.784.528 6.697 3.745 6.697 3.288 0 3.792-3.913 3.792-6.697z"/><path id="i" d="M370.863 355.737a1.872 1.872 0 1 1 1.872-1.872 1.864 1.864 0 0 1-1.872 1.872zm0 15.913a1.092 1.092 0 0 1-1.144-1.092V358.96a1.098 1.098 0 0 1 1.144-1.118 1.072 1.072 0 0 1 1.093 1.118v11.596a1.05 1.05 0 0 1-1.093 1.092z"/><path id="j" d="M385.97 371.65a1.051 1.051 0 0 1-1.093-1.092v-7.228a3.705 3.705 0 1 0-7.41 0v7.202a1.105 1.105 0 0 1-1.144 1.144 1.071 1.071 0 0 1-1.092-1.118v-11.622a1.034 1.034 0 0 1 1.092-1.092 1.088 1.088 0 0 1 1.118.858 5.939 5.939 0 0 1 9.646 4.628v7.202a1.064 1.064 0 0 1-1.118 1.118z"/><path id="k" d="M394.263 360.053h-1.17v10.478a1.063 1.063 0 0 1-1.144 1.092 1.049 1.049 0 0 1-1.092-1.092v-10.478h-1.066a1.105 1.105 0 0 1 0-2.21h1.066v-1.768a2.962 2.962 0 0 1 2.989-2.938 1.106 1.106 0 1 1 0 2.21.729.729 0 0 0-.754.702v1.794h1.17a1.106 1.106 0 1 1 0 2.21z"/><path id="l" d="M408.564 365.877h-9.62c.364 2.444 1.924 4.004 4.212 4.004a3.902 3.902 0 0 0 3.094-1.352 1.076 1.076 0 0 1 .807-.416 1.213 1.213 0 0 1 1.17 1.144c0 .312-.078.546-.624 1.092a6.335 6.335 0 0 1-4.446 1.742c-4.187 0-6.526-3.458-6.526-7.358 0-3.874 2.34-7.332 6.526-7.332 4.238 0 6.5 3.458 6.5 7.332a1.109 1.109 0 0 1-1.092 1.145zm-5.408-6.267c-2.444 0-3.874 1.794-4.212 4.03h8.424c-.363-2.496-1.924-4.03-4.212-4.03z"/><path id="m" d="M422.525 370.115a6.037 6.037 0 0 1-4.653 1.976c-4.187 0-6.526-3.432-6.526-7.358 0-3.9 2.34-7.332 6.526-7.332a6.037 6.037 0 0 1 4.653 1.976 1.134 1.134 0 0 1 .313.754 1.211 1.211 0 0 1-1.17 1.118 1.232 1.232 0 0 1-.807-.364 3.817 3.817 0 0 0-2.989-1.274c-2.6 0-4.29 2.028-4.29 5.122 0 3.12 1.7 5.148 4.29 5.148a3.865 3.865 0 0 0 2.989-1.274 1.04 1.04 0 0 1 .807-.39 1.122 1.122 0 0 1 .857 1.898z"/><path id="n" d="M429.52 371.65h-.442c-2.47 0-3.406-1.3-3.406-3.432v-8.164h-.78a1.105 1.105 0 0 1-.025-2.21h.78v-3.614a1.055 1.055 0 0 1 1.117-1.092 1.036 1.036 0 0 1 1.093 1.092v3.614h1.664a1.078 1.078 0 0 1 1.092 1.092 1.058 1.058 0 0 1-1.092 1.118h-1.664v8.398c0 .728.26.988.987.988h.65a1.073 1.073 0 0 1 1.118 1.092 1.058 1.058 0 0 1-1.092 1.118z"/><path id="o" d="M458.483 371.624a1.056 1.056 0 0 1-1.118-1.092 6.292 6.292 0 0 1-4.29 1.56c-4.187 0-6.526-3.432-6.526-7.358 0-3.9 2.34-7.332 6.526-7.332a5.732 5.732 0 0 1 4.29 1.69v-4.836a1.118 1.118 0 0 1 2.235-.026v16.302a1.056 1.056 0 0 1-1.117 1.092zm-5.408-12.013c-2.6 0-4.29 2.028-4.29 5.122 0 3.12 1.7 5.148 4.29 5.148 2.626 0 4.3-2.028 4.3-5.148 0-3.094-1.664-5.122-4.3-5.122z"/><path id="p" d="M335.205 399.65h-.025a2.692 2.692 0 0 1-2.574-2.028 5.9 5.9 0 0 1-5.044 2.47c-4.238 0-6.526-3.484-6.526-7.358 0-3.926 2.34-7.332 6.526-7.332a5.944 5.944 0 0 1 5.044 2.444v-1.274a.733.733 0 0 1 .754-.728.709.709 0 0 1 .728.728v10.48c0 1.664 1.872.624 1.872 1.872a.715.715 0 0 1-.754.728zm-7.644-12.767c-3.068 0-5.045 2.47-5.045 5.85s1.977 5.876 5.045 5.876c3.094 0 5.044-2.496 5.044-5.876s-1.95-5.85-5.044-5.85z"/><path id="q" d="M378.156 399.65h-.806c-2.055 0-3.068-1.014-3.068-3.042v-9.283h-1.326a.741.741 0 0 1 0-1.482h1.326v-3.978a.731.731 0 0 1 .754-.728.709.709 0 0 1 .728.728v3.978h2.393a.741.741 0 0 1 0 1.482h-2.393v9.283c0 1.274.364 1.56 1.587 1.56h.806a.741.741 0 0 1 0 1.482z"/><path id="r" d="M507.14 399.65a.732.732 0 0 1-.755-.728v-7.592a4.446 4.446 0 1 0-8.892 0v7.592a.741.741 0 0 1-1.482 0v-12.35a.741.741 0 0 1 1.482 0v.832a5.931 5.931 0 0 1 10.374 3.926v7.592a.725.725 0 0 1-.728.728z"/><path id="s" d="M740.108 371.702a2.653 2.653 0 0 1-2.601-2.652v-14.794a1.118 1.118 0 0 1 2.236-.026v14.82a.411.411 0 0 0 .364.442 1.105 1.105 0 1 1 0 2.21z"/><path id="t" d="M609.89 383.347a1.482 1.482 0 1 1 1.481-1.482 1.465 1.465 0 0 1-1.481 1.482zm0 16.303a.714.714 0 0 1-.754-.728v-12.35a.716.716 0 0 1 .754-.728.708.708 0 0 1 .728.728v12.35a.695.695 0 0 1-.728.728z"/><path id="u" d="M647.694 387.117a4.444 4.444 0 0 0-4.446 4.446v7.358a.741.741 0 0 1-1.482 0v-12.35a.741.741 0 0 1 1.482 0v1.066a5.936 5.936 0 0 1 4.446-2.002.741.741 0 1 1 0 1.482z"/><path id="v" d="M660.95 393.487h-10.8c.233 2.964 2.157 5.122 4.992 5.122a4.699 4.699 0 0 0 3.821-1.794.683.683 0 0 1 .624-.364.795.795 0 0 1 .807.702c0 .234 0 .286-.494.858a6.138 6.138 0 0 1-4.758 2.08c-4.187 0-6.526-3.432-6.526-7.358 0-3.9 2.34-7.332 6.526-7.332s6.525 3.458 6.525 7.332a.787.787 0 0 1-.728.754zm-5.798-6.604c-3.12 0-4.76 2.392-4.992 5.123h10c-.233-2.964-2.158-5.123-5.018-5.123z"/><path id="w" d="M685.18 399.65h-.806c-2.054 0-3.068-1.014-3.068-3.042v-9.283h-1.326a.741.741 0 0 1 0-1.482h1.326v-3.978a.731.731 0 0 1 .754-.728.71.71 0 0 1 .729.728v3.978h2.392a.741.741 0 0 1 0 1.482h-2.392v9.283c0 1.274.364 1.56 1.586 1.56h.806a.741.741 0 0 1 0 1.482z"/><path id="x" d="M720.098 393.487h-10.8c.234 2.964 2.158 5.122 4.992 5.122a4.699 4.699 0 0 0 3.822-1.794.682.682 0 0 1 .624-.364.795.795 0 0 1 .806.702c0 .234 0 .286-.494.858a6.136 6.136 0 0 1-4.758 2.08c-4.187 0-6.526-3.432-6.526-7.358 0-3.9 2.34-7.332 6.526-7.332s6.526 3.458 6.526 7.332a.788.788 0 0 1-.729.754zm-5.798-6.604c-3.12 0-4.758 2.392-4.992 5.123h10.01c-.234-2.964-2.158-5.123-5.02-5.123z"/><path id="y" d="M859.497 371.65a1.05 1.05 0 0 1-1.092-1.092v-7.228a3.705 3.705 0 1 0-7.41 0v7.202a1.105 1.105 0 0 1-1.145 1.144 1.071 1.071 0 0 1-1.092-1.118v-11.622a1.034 1.034 0 0 1 1.092-1.092 1.087 1.087 0 0 1 1.118.858 5.939 5.939 0 0 1 9.646 4.628v7.202a1.063 1.063 0 0 1-1.118 1.118z"/><path id="z" d="M882.092 365.877h-9.62c.364 2.444 1.925 4.004 4.213 4.004a3.902 3.902 0 0 0 3.094-1.352 1.076 1.076 0 0 1 .806-.416 1.213 1.213 0 0 1 1.17 1.144c0 .312-.077.546-.624 1.092a6.332 6.332 0 0 1-4.445 1.742c-4.187 0-6.526-3.458-6.526-7.358 0-3.874 2.34-7.332 6.526-7.332 4.237 0 6.5 3.458 6.5 7.332a1.109 1.109 0 0 1-1.092 1.145zm-5.408-6.267c-2.444 0-3.875 1.794-4.213 4.03h8.425c-.364-2.496-1.924-4.03-4.212-4.03z"/><path id="AA" d="M896.053 370.115a6.041 6.041 0 0 1-4.654 1.976c-4.187 0-6.526-3.432-6.526-7.358 0-3.9 2.34-7.332 6.526-7.332a6.041 6.041 0 0 1 4.654 1.976 1.133 1.133 0 0 1 .312.754 1.21 1.21 0 0 1-1.17 1.118 1.232 1.232 0 0 1-.806-.364 3.821 3.821 0 0 0-2.99-1.274c-2.6 0-4.3 2.028-4.3 5.122 0 3.12 1.7 5.148 4.3 5.148a3.868 3.868 0 0 0 2.99-1.274 1.038 1.038 0 0 1 .806-.39 1.123 1.123 0 0 1 .858 1.898z"/><path id="AB" d="M932 371.624a1.056 1.056 0 0 1-1.118-1.092 6.292 6.292 0 0 1-4.29 1.56c-4.187 0-6.526-3.432-6.526-7.358 0-3.9 2.34-7.332 6.526-7.332a5.729 5.729 0 0 1 4.29 1.69v-4.836a1.118 1.118 0 0 1 2.236-.026v16.302a1.056 1.056 0 0 1-1.118 1.092zm-5.408-12.013c-2.6 0-4.3 2.028-4.3 5.122 0 3.12 1.7 5.148 4.3 5.148 2.626 0 4.3-2.028 4.3-5.148 0-3.094-1.664-5.122-4.3-5.122z"/></defs><rect width="1080" height="1080" rx="40" fill="url(#A)"/><g class="U Y"><use xlink:href="#G"/><use xlink:href="#H"/><use xlink:href="#H" x="10.75"/><path d="M70.186 997.584c-3.304 0-4.872-3.08-4.872-10.39s1.568-10.388 4.872-10.388 4.872 3.08 4.872 10.388-1.568 10.39-4.872 10.39zm0-19.097c-1.848 0-2.855 2.072-2.855 8.708s1.008 8.708 2.855 8.708 2.856-2.07 2.856-8.708-1.01-8.708-2.856-8.708z"/></g><g class="U Y"><path d="M341.388 997.304v-1.68h2.464v-16.24l-2.52.224v-1.23a7.755 7.755 0 0 0 3.191-1.568h1.345v18.816h2.352v1.68z"/><use xlink:href="#H" x="306.704"/><use xlink:href="#H" x="317.455"/><use xlink:href="#H" x="328.207"/></g><g class="U Y"><path d="M1003.777 997.304v-1.68c1.792-5.992 7.393-9.353 7.393-13.944 0-2.128-1.064-3.192-2.437-3.192-1.596 0-2.77 1.232-2.94 4.257h-1.85c.225-4.593 2.296-5.937 4.732-5.937 2.66 0 4.508 1.792 4.508 5.152 0 5.04-4.536 6.607-7.56 13.664h7.672v1.68zm15.625.28c-3.304 0-4.872-3.08-4.872-10.4s1.568-10.388 4.872-10.388 4.872 3.08 4.872 10.388-1.568 10.4-4.872 10.4zm0-19.097c-1.848 0-2.855 2.072-2.855 8.708s1.008 8.708 2.855 8.708 2.856-2.07 2.856-8.708-1.008-8.708-2.856-8.708z"/><use xlink:href="#G" x="992.221"/><path d="M1040.904 997.584c-3.136 0-4.983-2.464-4.983-5.376a6.769 6.769 0 0 1 3.247-5.656c-1.79-1.428-2.8-2.828-2.8-5.208a4.536 4.536 0 0 1 9.072 0c0 2.38-1.008 3.78-2.8 5.208a6.77 6.77 0 0 1 3.248 5.656c0 2.912-1.85 5.376-4.984 5.376zm0-9.968c-1.624 1.203-2.968 2.49-2.968 4.676 0 1.65.895 3.61 2.968 3.61s2.968-1.96 2.968-3.61c0-2.185-1.344-3.473-2.968-4.676zm0-9.13a2.462 2.462 0 0 0-2.52 2.633 2.949 2.949 0 1 0 5.04 0 2.462 2.462 0 0 0-2.52-2.633z"/></g><path d="M37.283 621.295l.28-.2h1.664q.258 0 .234.234v14.813q-.047.258.2.234h3.047q.258-.047.2.2v1.148q.023.258-.2.2H34.42q-.258.047-.234-.2v-1.148q-.023-.258.234-.2h3.164q.234.023.2-.234V623.64q-.023-.28-.234-.047a10.289 10.289 0 0 1-3.211 1.875q-.187.094-.2-.117v-1.195a.227.227 0 0 1 .164-.211 5.891 5.891 0 0 0 2.977-2.648h0zm14.98.797a4.983 4.983 0 0 1 1.336 3.492v7.922a5.07 5.07 0 0 1-1.336 3.516 4.66 4.66 0 0 1-3.398 1.383 4.713 4.713 0 0 1-3.398-1.383 4.984 4.984 0 0 1-1.312-3.516v-7.922a4.899 4.899 0 0 1 1.313-3.492 4.59 4.59 0 0 1 3.398-1.383 4.541 4.541 0 0 1 3.398 1.383zm-6.352 3.492v7.922a3.539 3.539 0 0 0 .797 2.344 3 3 0 0 0 4.313 0 3.471 3.471 0 0 0 .82-2.344v-7.922a3.38 3.38 0 0 0-.82-2.32 3 3 0 0 0-4.312 0 3.445 3.445 0 0 0-.797 2.32h0z" class="U Y"/><g class="U"><path d="M35.935 792.236a2.605 2.605 0 0 0 2.813 2.648 2.654 2.654 0 0 0 1.992-.797 3.202 3.202 0 0 0 .773-2.227v-2.133a3.067 3.067 0 0 0-.68-2.062 2.519 2.519 0 0 0-1.969-.844 3.425 3.425 0 0 0-2.32.797.268.268 0 0 1-.305.117H35.09q-.258.047-.21-.21v-8.04q-.047-.258.21-.21h7.313q.258-.047.21.21v1.195q.047.258-.21.234h-5.72q-.234-.047-.21.21v4.64q0 .21.21.094a4.941 4.941 0 0 1 2.32-.539 4.149 4.149 0 0 1 3.047 1.195 4.415 4.415 0 0 1 1.195 3.211v2.133a4.588 4.588 0 0 1-1.336 3.352 4.646 4.646 0 0 1-3.234 1.289 4.352 4.352 0 0 1-3.141-1.242 4.52 4.52 0 0 1-1.289-3.094q-.047-.234.21-.21h1.22q.258-.023.258.28h0z" class="Y"/><rect x="40.806" y="167.835" width="223.873" height="268" rx="20" opacity=".1"/><rect x="302.697" y="167.835" width="223.873" height="268" rx="20" opacity=".1"/></g><path d="M33.956 963.823H1046V807.576l-36.12-18.66c-12.073-5.86-24.146-11.857-36.22-16.447-12.04-4.577-24.08-7.38-36.12-11.07s-24.08-6.906-36.12-11.07-24.08-8.76-36.12-13.917c-12.073-5.172-24.146-10.743-36.22-17.08-12.04-6.32-24.08-13.76-36.12-20.875s-24.08-15.13-36.12-21.824-24.08-12.448-36.12-18.345c-12.073-5.913-24.146-11.167-36.22-17.08l-36.12-18.345c-12.04-6.378-24.08-14.128-36.12-19.926a347.146 347.146 0 0 0-36.12-14.866c-12.073-4.225-24.146-7.377-36.22-10.438-12.04-3.052-24.08-5.166-36.12-7.907s-24.08-4.902-36.12-8.54-24.08-8.8-36.12-13.284c-12.073-4.487-24.146-10.12-36.22-13.6-12.04-3.472-24.08-7.275-36.12-7.275a175.189 175.189 0 0 0-36.12 3.795c-12.04 2.53-24.08 10.253-36.12 21.508-12.073 11.285-24.146 27.535-36.22 46.178-12.04 18.592-24.08 42.014-36.12 65.472s-24.08 50.922-36.12 75.277-24.08 49.68-36.12 70.85c-12.073 21.227-24.146 40.418-36.22 56.3a263.277 263.277 0 0 1-36.12 38.903c-12.04 10.596-24.08 17.633-36.12 24.67z" fill="url(#B)"/><g class="U"><rect x="564.589" y="167.835" width="223.873" height="268" rx="20" opacity=".1"/><rect x="826.48" y="167.835" width="223.873" height="268" rx="20" opacity=".1"/></g><path d="M33.956 963.823H1046" stroke-width="4" class="W Z c"/><g class="U"><path d="M344.065 480.615l.328-.246h1.94q.3 0 .273.273v17.28q-.055.3.246.273h3.555q.3-.054.246.246v1.34c.018.2-.064.282-.246.246h-9.68c-.2.036-.292-.045-.273-.246v-1.34q-.028-.3.273-.246h3.7q.273.028.246-.273V483.35q-.028-.328-.273-.055a12.003 12.003 0 0 1-3.746 2.188q-.22.1-.246-.137v-1.395a.265.265 0 0 1 .191-.246 6.873 6.873 0 0 0 3.473-3.09h0zm13.263 18.02a3.299 3.299 0 0 0 2.488-1.121 3.932 3.932 0 0 0 .93-2.68 4.44 4.44 0 0 0-1.094-3.117 3.848 3.848 0 0 0-2.844-1.094h-.328q-.274.028-.246-.273v-1.312q-.028-.3.246-.246h.164a3.659 3.659 0 0 0 2.68-1.066 3.86 3.86 0 0 0 1.039-2.789q-.164-2.898-2.844-3.062a2.806 2.806 0 0 0-1.941.738 3.4 3.4 0 0 0-1.012 2.16q0 .383-.273.328h-1.477q-.328.055-.246-.273a5.437 5.437 0 0 1 1.559-3.473 4.885 4.885 0 0 1 6.891 0 5.103 5.103 0 0 1 1.422 3.582 4.845 4.845 0 0 1-.93 2.953 5.2 5.2 0 0 1-1.915 1.586q-.22.137.027.3a6.002 6.002 0 0 1 2.106 1.613 5.267 5.267 0 0 1 1.094 3.445 5.958 5.958 0 0 1-1.586 4.02 5.478 5.478 0 0 1-3.938 1.723 5.297 5.297 0 0 1-3.664-1.422 5.575 5.575 0 0 1-1.668-3.965q-.055-.164.246-.22h1.477q.3-.054.3.328.246 3.2 3.336 3.336h0z"/><use xlink:href="#I"/><path d="M378.497 481.544a5.385 5.385 0 0 1 1.477 3.746q-.164 3.39-2.352 4.484c-.092.073-.082.164.027.273a5.123 5.123 0 0 1 2.68 4.813 5.719 5.719 0 0 1-1.559 4.047 5.421 5.421 0 0 1-3.855 1.586 5.321 5.321 0 0 1-3.828-1.586 5.71 5.71 0 0 1-1.559-4.047 5.121 5.121 0 0 1 2.68-4.812c.11-.11.118-.2.027-.273q-2.188-1.094-2.352-4.484a5.376 5.376 0 0 1 1.477-3.746 4.864 4.864 0 0 1 7.137 0zm-3.582 17.117a3.255 3.255 0 0 0 2.488-1.066 3.847 3.847 0 0 0 .93-2.707 4.456 4.456 0 0 0-.902-2.926 3.3 3.3 0 0 0-5.004 0 4.456 4.456 0 0 0-.902 2.926 3.842 3.842 0 0 0 .93 2.707 3.221 3.221 0 0 0 2.461 1.066h0zm3.063-13.344a3.784 3.784 0 0 0-.82-2.461 2.939 2.939 0 0 0-4.484 0 3.865 3.865 0 0 0-.793 2.461q.082 3.445 3.035 3.637 2.98-.19 3.063-3.637z"/><path d="M962.505 557.454q.643-.117.586.527v3.105c0 .43-.196.625-.586.586h-19.16q-.646.06-.586-.586v-3.105q-.06-.645.586-.527h19.16zm9.615.938q.06.645.527.234 1.875-2.52 7.1-2.988a10.628 10.628 0 0 1 8.262 3.691 13.746 13.746 0 0 1 3.105 9.082 14.179 14.179 0 0 1-3.223 9.199 11.105 11.105 0 0 1-16.992.059 14.542 14.542 0 0 1-3.164-9.434v-18.398a13.022 13.022 0 0 1 3.164-8.789 11.143 11.143 0 0 1 8.613-3.691 11.872 11.872 0 0 1 7.559 2.578 10.676 10.676 0 0 1 3.75 6.914q.117.527-.586.527h-3.457q-.586 0-.586-.703a7.675 7.675 0 0 0-2.051-3.633 6.736 6.736 0 0 0-4.687-1.523 6.841 6.841 0 0 0-5.391 2.344 9.08 9.08 0 0 0-1.934 5.977zm0 10.137a10.151 10.151 0 0 0 1.875 6.328 6.829 6.829 0 0 0 10.781 0 11.046 11.046 0 0 0 1.875-6.445 10.648 10.648 0 0 0-1.816-6.27 6.414 6.414 0 0 0-5.332-2.461q-7.324.47-7.383 8.848h0zm40.433-2.286q-.06.645.527.586h3.574q.645-.117.527.527v2.87q.117.645-.527.586h-3.574q-.586-.117-.527.527v8.438c.078.508-.098.722-.527.645h-2.988c-.4.077-.566-.137-.527-.645v-8.437q.117-.645-.527-.527H994.4q-.586.06-.527-.586v-3.7l.234-.996 12.48-26.777a.773.773 0 0 1 .82-.469h4.63q.645-.06.527.586zm-14.707 0q-.352.645.352.586h9.785q.645.06.527-.586V544.33q-.117-.703-.47-.117zm25.89-26.68a4.423 4.423 0 0 1 1.161 3.074v2.118a4.419 4.419 0 0 1-1.161 3.074 4.245 4.245 0 0 1-5.978 0 4.336 4.336 0 0 1-1.195-3.074v-2.118a4.34 4.34 0 0 1 1.195-3.074 4.247 4.247 0 0 1 5.978 0zm-4.6 23.912h-1.503c-.273.022-.342-.1-.205-.342l14.074-23.946c.1-.272.238-.387.443-.34h1.504q.375-.034.205.307l-14.1 23.946c-.1.273-.227.398-.4.376zm-.65-18.822q.136 2.392 2.255 2.426 2.152-.034 2.255-2.426v-1.913q-.103-2.4-2.255-2.425-2.118.034-2.255 2.425zm8.848 18.105a4.303 4.303 0 0 1-1.195-3.041v-2.083a4.305 4.305 0 0 1 1.195-3.041 4.072 4.072 0 0 1 2.973-1.195 4.115 4.115 0 0 1 3.006 1.195 4.383 4.383 0 0 1 1.161 3.041v2.083a4.381 4.381 0 0 1-1.161 3.041 4.048 4.048 0 0 1-3.006 1.229 4.007 4.007 0 0 1-2.973-1.229zm5.227-3.144v-1.878q-.103-2.323-2.254-2.357-2.12.034-2.256 2.357v1.878q.138 2.358 2.256 2.392 2.15-.034 2.254-2.392h0z" class="V"/><path d="M1019.2 772.623q-.028.302.246.273h1.668q.3-.054.246.246v1.34q.054.302-.246.273h-1.668q-.274-.054-.246.246v3.938c.036.237-.046.337-.246.3h-1.395c-.183.036-.265-.063-.246-.3v-3.937q.054-.3-.246-.246h-6.344q-.274.028-.246-.273v-1.723l.11-.465 5.824-12.496a.361.361 0 0 1 .383-.219h2.16q.3-.026.246.273zm-6.863 0q-.164.302.164.273h4.566q.3.028.246-.273v-10.227c-.036-.22-.11-.236-.22-.055z"/><use xlink:href="#I" x="658.409" y="279.212"/><path d="M1036.688 769.97q0-.272-.246-.082a4.494 4.494 0 0 1-3.363 1.34 4.911 4.911 0 0 1-3.828-1.695 6.422 6.422 0 0 1-1.422-4.238 6.663 6.663 0 0 1 1.449-4.266 5.262 5.262 0 0 1 7.957-.027 6.766 6.766 0 0 1 1.449 4.375v8.56a6.114 6.114 0 0 1-1.449 4.074 5.344 5.344 0 0 1-4.047 1.695 5.539 5.539 0 0 1-3.527-1.203 4.706 4.706 0 0 1-1.695-3.172q-.056-.246.246-.246h1.56q.272 0 .3.328a3.381 3.381 0 0 0 .93 1.695 3.67 3.67 0 0 0 4.785-.383 4.235 4.235 0 0 0 .902-2.789zm0-4.73a4.86 4.86 0 0 0-.875-2.98 3.121 3.121 0 0 0-2.57-1.203 3.015 3.015 0 0 0-2.516 1.203 5.157 5.157 0 0 0-.902 3.035 4.937 4.937 0 0 0 .875 2.98 2.989 2.989 0 0 0 2.488 1.148q3.472-.218 3.5-4.184h0z"/><circle cx="360.092" cy="527.029" r="16.517" class="V"/><circle cx="360.092" cy="527.029" r="5.337"/><circle cx="1045.935" cy="806.08" r="16.517" class="V"/><circle cx="1045.935" cy="806.08" r="5.337"/></g><path d="M360.092 527.03H1026a20.059 20.059 0 0 1 20 20v259.05" class="V W X Z c"/><g opacity=".3" class="U"><path d="M42.328 1046.045a7.892 7.892 0 0 1-5.503-2.002 1.364 1.364 0 0 1-1.468 1.401 1.346 1.346 0 0 1-1.401-1.401v-20.88a1.435 1.435 0 0 1 2.869-.033v6.238a7.4 7.4 0 0 1 5.503-2.169c5.37 0 8.373 4.403 8.373 9.406 0 5.037-3.002 9.44-8.373 9.44zm0-16c-3.335 0-5.503 2.602-5.503 6.57 0 4.003 2.168 6.604 5.503 6.604s5.504-2.602 5.504-6.604c0-3.97-2.168-6.57-5.504-6.57zm25.555 8.037h-12.34c.467 3.136 2.468 5.137 5.403 5.137a5.003 5.003 0 0 0 3.969-1.734 1.383 1.383 0 0 1 1.034-.533 1.556 1.556 0 0 1 1.501 1.468c0 .4-.1.7-.8 1.4a8.129 8.129 0 0 1-5.704 2.235c-5.37 0-8.372-4.437-8.372-9.44 0-4.97 3.002-9.406 8.372-9.406 5.437 0 8.34 4.437 8.34 9.406a1.422 1.422 0 0 1-1.401 1.468zm-6.937-8.038c-3.136 0-4.97 2.3-5.403 5.17H66.35c-.467-3.202-2.468-5.17-5.403-5.17zM88 1045.478a3.247 3.247 0 0 1-2.969-1.901 7.642 7.642 0 0 1-5.87 2.469c-5.437 0-8.372-4.47-8.372-9.44s3.002-9.406 8.372-9.406a7.369 7.369 0 0 1 5.504 2.202v-.134a1.376 1.376 0 0 1 1.4-1.501 1.341 1.341 0 0 1 1.468 1.401v12.875a.54.54 0 0 0 .467.601 1.418 1.418 0 1 1 0 2.835zm-8.84-15.443c-3.336 0-5.504 2.602-5.504 6.57 0 4.003 2.168 6.604 5.504 6.604 3.37 0 5.504-2.602 5.504-6.604 0-3.97-2.135-6.57-5.504-6.57z"/><use xlink:href="#J"/><path d="M115.158 1045.478h-.567c-3.17 0-4.37-1.668-4.37-4.403V1030.6h-1a1.418 1.418 0 1 1-.033-2.835h1v-4.637a1.355 1.355 0 0 1 1.435-1.4 1.328 1.328 0 0 1 1.401 1.4v4.637h2.135a1.383 1.383 0 0 1 1.4 1.401 1.356 1.356 0 0 1-1.4 1.434h-2.135v10.774c0 .934.333 1.268 1.268 1.268h.833a1.376 1.376 0 0 1 1.435 1.4 1.357 1.357 0 0 1-1.4 1.435zm4.604-20.415a2.401 2.401 0 1 1 2.402-2.401 2.392 2.392 0 0 1-2.402 2.401zm0 20.414a1.4 1.4 0 0 1-1.467-1.401V1029.2a1.408 1.408 0 0 1 1.467-1.435 1.374 1.374 0 0 1 1.401 1.435v14.876a1.346 1.346 0 0 1-1.401 1.401zm10.376-14.877h-1.5v13.442a1.364 1.364 0 0 1-1.468 1.401 1.346 1.346 0 0 1-1.401-1.401V1030.6h-1.37a1.418 1.418 0 0 1 0-2.835h1.367v-2.27a3.801 3.801 0 0 1 3.836-3.769 1.418 1.418 0 1 1 0 2.835.934.934 0 0 0-.967.9v2.302h1.5a1.418 1.418 0 1 1 0 2.835z"/><use xlink:href="#J" x="42.068"/><path d="M154.725 1045.544a3.403 3.403 0 0 1-3.336-3.402v-18.98a1.435 1.435 0 0 1 2.869-.033v19.013a.527.527 0 0 0 .467.567 1.418 1.418 0 1 1 0 2.835zm15.37-.066v-1.264c1.886-.237 2.046-.437 2.046-3.157v-6.7c0-2.8-1.248-4.017-3.064-4.017a5.597 5.597 0 0 0-3.47 1.493v9.476c0 2.527.187 2.658 2.06 2.896v1.264h-8.968v-1.264c2.254-.33 2.5-.4 2.5-3v-8.2c0-2.446-.303-2.565-2.185-2.922v-1.184a34.101 34.101 0 0 0 6.653-1.533l-.052 2.95 2.6-1.745a5.659 5.659 0 0 1 3.159-1.086c3.194 0 5.2 2.338 5.2 6.3v7.5c0 2.54.237 2.657 2.277 2.92v1.264zm23.9-3.703c-2.458 3.427-5.488 4.178-7.014 4.178-5.142 0-8.124-3.936-8.124-8.594a10.333 10.333 0 0 1 2.832-7.062 8.602 8.602 0 0 1 6.082-2.814 6.386 6.386 0 0 1 6.37 6.347c-.014.715-.08 1.277-.612 1.4-.767.184-6.17.5-10.318.647.062 4.587 2.717 6.74 5.556 6.74a6.776 6.776 0 0 0 4.543-1.866zm-7.07-12.7c-1.667 0-3.167 1.807-3.516 4.963l5.486-.118c.6-.026.848-.146.848-.792.04-2.022-1.037-4.053-2.818-4.053zm34.284.145c-1.943.343-2.248.624-3.105 2.765-1.33 3.462-3.102 8.53-4.934 13.94h-1.512l-4.65-11.46-4.55 11.46h-1.472l-4.685-14.192c-.687-1.985-.94-2.274-2.855-2.512v-1.25h9.397v1.25c-2.325.345-2.535.672-2.058 2.133l2.52 8.214c1.507-3.68 2.988-7.62 4.327-11.424h1.456c1.4 3.76 2.986 7.702 4.573 11.568.742-2.107 2.062-5.964 2.557-8.108.412-1.674-.008-2.078-2.753-2.383v-1.25h7.742zm9.4 3.746c-.92-2.606-2.155-3.984-4.2-3.984a2.166 2.166 0 0 0-2.225 2.266c0 1.497 1.046 2.264 3.16 3.216 3.278 1.496 5.3 2.787 5.3 5.736 0 3.85-3.6 5.764-6.945 5.764a12.073 12.073 0 0 1-4.92-1.161l-.662-4.892 1.252-.224c.8 2.5 2.33 4.75 4.976 4.75a2.231 2.231 0 0 0 2.438-2.281c0-1.423-.76-2.333-3.092-3.467-2.67-1.295-5.107-2.64-5.107-5.775 0-3.046 2.533-5.42 6.565-5.42a18.751 18.751 0 0 1 4.112.567l.62 4.577z"/></g><g opacity=".7" class="U"><use xlink:href="#K"/><use xlink:href="#L"/><path d="M834.704 1045.98a.563.563 0 0 1-.58-.561v-.64a4.443 4.443 0 0 1-3.421 1.541 4.61 4.61 0 0 1-4.561-4.561v-5.842a.57.57 0 0 1 1.14 0v5.842a3.421 3.421 0 0 0 6.842 0v-5.842a.57.57 0 0 1 1.141 0v9.502a.559.559 0 0 1-.561.561z"/><use xlink:href="#M"/><path d="M852.844 1044.797a4.646 4.646 0 0 1-3.58 1.521c-3.22 0-5.02-2.64-5.02-5.662 0-3 1.8-5.64 5.02-5.64a4.651 4.651 0 0 1 3.58 1.52.534.534 0 0 1 .16.381.626.626 0 0 1-.58.6.586.586 0 0 1-.42-.199 3.526 3.526 0 0 0-2.74-1.16c-2.36 0-3.88 1.9-3.88 4.5s1.52 4.52 3.88 4.52a3.592 3.592 0 0 0 2.74-1.16.586.586 0 0 1 .42-.199.594.594 0 0 1 .58.58.569.569 0 0 1-.16.398z"/><use xlink:href="#N"/><use xlink:href="#K" x="62.499"/><path d="M877.902 1039.416a1.14 1.14 0 1 1 0-2.279 1.14 1.14 0 0 1 0 2.279zm0 6.563a1.141 1.141 0 1 1 0-2.281 1.141 1.141 0 0 1 0 2.281zm13.64.36a5.012 5.012 0 0 1-5.021-5.021v-9.02a.58.58 0 0 1 1.16 0v9.02a3.871 3.871 0 1 0 7.742 0v-9.02a.57.57 0 0 1 1.14 0v9.02a5.01 5.01 0 0 1-5.021 5.021zm17.2-.34a.615.615 0 0 1-.48-.32l-7.82-11.543v11.283a.57.57 0 0 1-1.141 0v-13.123a.569.569 0 0 1 1.08-.279l7.822 11.54v-11.262a.57.57 0 0 1 1.14 0v13.123a.597.597 0 0 1-.6.58z"/><use xlink:href="#O"/><path d="M927.2 1045.98h-2.28a.571.571 0 1 1 0-1.141h.56v-11.982h-.56a.561.561 0 1 1 0-1.121h2.28a.561.561 0 1 1 0 1.121h-.58v11.982h.58a.571.571 0 0 1 0 1.141zm7.982 0h-4.44a.607.607 0 0 1-.58-.561v-13.123a.59.59 0 0 1 .58-.561h4.44c4.12 0 5.48 3.44 5.48 7.102 0 3.72-1.36 7.143-5.48 7.143zm0-13.123h-3.88v11.982h3.88c3.42 0 4.34-2.96 4.34-5.98 0-3.563-1.24-6.002-4.34-6.002zm12.118 13.46a7.393 7.393 0 0 1-4.78-1.76.524.524 0 0 1-.181-.4.608.608 0 0 1 .58-.58c.24 0 .22.06.64.38a6.328 6.328 0 0 0 3.74 1.221c2.52 0 3.98-.94 3.98-2.74 0-4.742-8.462-2.102-8.462-7.562 0-2.4 2.1-3.5 4.68-3.5a5.736 5.736 0 0 1 4.361 1.881.557.557 0 0 1-.48.9c-.28 0-.28-.08-.62-.42a4.621 4.621 0 0 0-3.261-1.221c-2.38 0-3.54.92-3.54 2.36 0 4.3 8.462 1.8 8.462 7.563 0 2.78-2.44 3.88-5.12 3.88zm7.92 1.44a.513.513 0 0 1-.3.08.559.559 0 0 1-.54-.58c0-.56.86-.64 1-1.28a1.152 1.152 0 0 1 .08-2.301c.98 0 1.2 1 1.2 1.62a2.852 2.852 0 0 1-1.44 2.459z"/><use xlink:href="#O" x="52.218"/><path d="M984.26 1036.137l-3.94 9.38c-.12.26-.3.46-.56.46a.682.682 0 0 1-.58-.461l-3.94-9.36a.633.633 0 0 1-.04-.26.56.56 0 0 1 .58-.541.513.513 0 0 1 .5.34l3.48 8.223 3.46-8.223a.57.57 0 0 1 1.1.18.489.489 0 0 1-.06.262z"/><use xlink:href="#N" x="130.856"/><use xlink:href="#M" x="160.114"/><path d="M1008.478 1045.98h-.62a2.075 2.075 0 0 1-2.36-2.342v-7.14h-1.02a.571.571 0 0 1 0-1.141h1.02v-3.06a.563.563 0 0 1 .58-.561.547.547 0 0 1 .56.561v3.06h1.84a.571.571 0 0 1 0 1.141h-1.84v7.14c0 .98.28 1.2 1.22 1.2h.62a.571.571 0 0 1 0 1.141zm3.52 0a1.141 1.141 0 1 1 1.14-1.141 1.127 1.127 0 0 1-1.14 1.141z"/><use xlink:href="#L" x="201.613"/><use xlink:href="#M" x="189.834"/><path d="M1039.097 1050.54c-1.7 0-4.102-.64-4.102-1.36a.636.636 0 0 1 .58-.641 7.13 7.13 0 0 1 1.061.48 7.513 7.513 0 0 0 2.461.379c2.56 0 3.88-1.26 3.88-3.72v-1.4a4.774 4.774 0 0 1-3.88 1.701c-3.16 0-5.02-2.24-5.02-5.322 0-3 1.8-5.64 5.02-5.64a4.572 4.572 0 0 1 3.88 1.881v-.96a.57.57 0 0 1 1.141 0v9.742c0 3.182-1.9 4.86-5.02 4.86zm0-14.383c-2.36 0-3.88 1.9-3.88 4.5 0 2.582 1.42 4.182 3.88 4.182s3.88-1.6 3.88-4.182c0-2.6-1.5-4.5-3.88-4.5z"/></g><circle cx="938.417" cy="269.771" r="61.937" class="V W X Z"/><g class="U"><path d="M51.64 81.02c-4.38 0-10.5-1.8-13.92-4.98a2.4 2.4 0 0 1-.84-1.86 2.599 2.599 0 0 1 2.58-2.58c.9 0 1.2.3 2.28 1.14a16.241 16.241 0 0 0 9.899 3.18c7.14 0 10.26-2.58 10.26-7.02 0-12.48-23.94-5.4-23.94-21.72 0-7.32 6.18-10.98 14.1-10.98 4.14 0 10.08 1.62 13.02 5.1a2.365 2.365 0 0 1 .66 1.62 2.795 2.795 0 0 1-2.58 2.7c-.9 0-1.38-.42-2.4-1.32a13.181 13.181 0 0 0-8.7-2.94c-6.48 0-8.94 2.58-8.94 5.82 0 11.22 23.94 4.56 23.94 21.72 0 8.94-7.5 12.12-15.42 12.12z"/><use xlink:href="#P"/><use xlink:href="#Q"/><path d="M147.158 80h-1.02c-5.7 0-7.86-3-7.86-7.92V53.24h-1.8a2.55 2.55 0 0 1-.06-5.1h1.8V39.8a2.436 2.436 0 0 1 2.58-2.52 2.389 2.389 0 0 1 2.52 2.52v8.34h3.84a2.488 2.488 0 0 1 2.52 2.52 2.441 2.441 0 0 1-2.52 2.58h-3.84v19.38c0 1.68.6 2.28 2.28 2.28h1.5a2.475 2.475 0 0 1 2.58 2.52 2.441 2.441 0 0 1-2.52 2.58zm30.3 0a2.424 2.424 0 0 1-2.52-2.52V60.8a8.55 8.55 0 1 0-17.099 0v16.62a2.55 2.55 0 0 1-2.64 2.64 2.472 2.472 0 0 1-2.52-2.58V39.862a2.58 2.58 0 0 1 5.16-.06v10.38a12.097 12.097 0 0 1 8.52-3.06 13.79 13.79 0 0 1 13.68 13.68v16.62a2.454 2.454 0 0 1-2.58 2.58zm50.64 0a2.456 2.456 0 0 1-2.28-1.56l-3.18-7.8h-19.98l-3.24 7.8a2.439 2.439 0 0 1-2.22 1.56 2.651 2.651 0 0 1-2.7-2.52 1.976 1.976 0 0 1 .24-1.02l15.42-37.498a2.621 2.621 0 0 1 2.46-1.86 2.725 2.725 0 0 1 2.46 1.86l15.48 37.498a2.812 2.812 0 0 1 .18 1.02 2.561 2.561 0 0 1-2.64 2.52zm-15.48-33.6l-7.86 19.08h15.72zm28.5 6.842h-2.7v24.18a2.453 2.453 0 0 1-2.64 2.52 2.421 2.421 0 0 1-2.52-2.52v-24.18h-2.46a2.55 2.55 0 0 1 0-5.1h2.46v-4.08a6.836 6.836 0 0 1 6.899-6.78 2.551 2.551 0 1 1 0 5.1 1.681 1.681 0 0 0-1.74 1.62v4.14h2.7a2.552 2.552 0 1 1 0 5.1zm19.32-1.02a8.644 8.644 0 0 0-8.52 8.58v16.62a2.501 2.501 0 0 1-2.64 2.58 2.456 2.456 0 0 1-2.52-2.52v-26.76a2.541 2.541 0 0 1 2.52-2.58 2.463 2.463 0 0 1 2.58 2.04 13.875 13.875 0 0 1 8.58-3.06 2.552 2.552 0 1 1 0 5.1z"/><use xlink:href="#R"/><path d="M300.203 76.46a13.936 13.936 0 0 1-10.74 4.56c-9.66 0-15.06-7.92-15.06-16.98 0-9 5.4-16.92 15.06-16.92a13.936 13.936 0 0 1 10.74 4.56 2.615 2.615 0 0 1 .72 1.74 2.794 2.794 0 0 1-2.7 2.58 2.84 2.84 0 0 1-1.86-.84 8.814 8.814 0 0 0-6.9-2.94c-6 0-9.9 4.68-9.9 11.82 0 7.2 3.9 11.88 9.9 11.88a8.923 8.923 0 0 0 6.9-2.939 2.396 2.396 0 0 1 1.86-.9 2.59 2.59 0 0 1 1.98 4.38zm34.38 3.54a5.839 5.839 0 0 1-5.34-3.42 13.747 13.747 0 0 1-10.56 4.44c-9.78 0-15.06-8.04-15.06-16.98s5.4-16.92 15.06-16.92a13.258 13.258 0 0 1 9.899 3.96v-.24a2.476 2.476 0 0 1 2.52-2.7 2.412 2.412 0 0 1 2.64 2.52v23.16a.971.971 0 0 0 .84 1.08 2.55 2.55 0 1 1 0 5.1zm-15.9-27.78c-6 0-9.9 4.68-9.9 11.82 0 7.2 3.9 11.88 9.9 11.88 6.06 0 9.9-4.68 9.9-11.88 0-7.14-3.84-11.82-9.9-11.82z"/><use xlink:href="#R" x="88.497"/><path d="M374.3 81.02c-3.3 0-8.82-1.02-11.64-4.5a2.655 2.655 0 0 1 2.16-4.26 2.464 2.464 0 0 1 1.86 1.02c1.86 2.04 4.92 2.64 7.62 2.64 5.4 0 7.14-1.86 7.14-4.56 0-7.68-18.3-2.94-18.3-15.3 0-6.54 6.12-8.94 11.82-8.94 3.24 0 10.86 1.62 10.86 4.98a2.694 2.694 0 0 1-2.52 2.7 3.612 3.612 0 0 1-1.98-.78c-1.62-1.38-3.96-1.8-6.36-1.8-4.98 0-6.72 1.86-6.72 3.84 0 7.14 18.36 2.52 18.36 15.3 0 7.08-5.94 9.66-12.3 9.66zm58.2-6.54c-2.94 4.08-7.14 6.54-13.38 6.54-12.9 0-17.46-10.68-17.46-22.38 0-11.76 4.56-22.44 17.46-22.44 6.06 0 10.5 2.4 13.32 6.54a2.311 2.311 0 0 1 .54 1.5 2.6 2.6 0 0 1-2.64 2.52 2.51 2.51 0 0 1-2.04-1.08c-1.86-2.7-4.62-4.32-9.18-4.32-8.52 0-12.3 6.3-12.3 17.28s3.78 17.28 12.3 17.28c4.56 0 7.32-1.74 9.18-4.38a2.425 2.425 0 0 1 2.04-1.14 2.525 2.525 0 0 1 2.16 4.08z"/><use xlink:href="#Q" x="332.862"/><path d="M480.02 80H479c-5.7 0-7.86-3-7.86-7.92v-18.84h-1.8a2.55 2.55 0 0 1-.06-5.1h1.8v-8.34a2.436 2.436 0 0 1 2.58-2.52 2.39 2.39 0 0 1 2.52 2.52v8.34h3.84a2.487 2.487 0 0 1 2.52 2.52 2.441 2.441 0 0 1-2.52 2.58h-3.84v19.38c0 1.68.6 2.28 2.28 2.28h1.5a2.475 2.475 0 0 1 2.58 2.52 2.441 2.441 0 0 1-2.52 2.58z"/><path d="M495.68 80h-1.02c-5.7 0-7.86-3-7.86-7.92v-18.84H485a2.55 2.55 0 0 1-.06-5.1h1.8v-8.34a2.436 2.436 0 0 1 2.58-2.52 2.39 2.39 0 0 1 2.52 2.52v8.34h3.84a2.487 2.487 0 0 1 2.52 2.52 2.441 2.441 0 0 1-2.52 2.58h-3.84v19.38c0 1.68.6 2.28 2.28 2.28h1.5a2.475 2.475 0 0 1 2.58 2.52 2.441 2.441 0 0 1-2.52 2.58z"/><use xlink:href="#S"/><path d="M537.617 80a2.424 2.424 0 0 1-2.521-2.52V60.8a8.55 8.55 0 1 0-17.1 0v16.62a2.55 2.55 0 0 1-2.64 2.64 2.472 2.472 0 0 1-2.52-2.58V50.66a2.387 2.387 0 0 1 2.52-2.52 2.509 2.509 0 0 1 2.58 1.98 13.702 13.702 0 0 1 22.259 10.68v16.62a2.453 2.453 0 0 1-2.579 2.58zm21.84 13.68c-3.66 0-12.72-1.32-12.72-4.92a2.794 2.794 0 0 1 2.58-2.7c1.38 0 .18.18 3.36 1.38a18.749 18.749 0 0 0 6.78 1.14c6.66 0 9.9-3.18 9.9-9.48v-2.7a14.038 14.038 0 0 1-9.899 3.6c-9.48 0-15.06-6.72-15.06-15.96 0-9 5.4-16.92 15.06-16.92 4.2 0 7.44 1.26 9.9 3.84v-.24a2.553 2.553 0 0 1 2.58-2.58 2.518 2.518 0 0 1 2.579 2.58V79.1c0 9.54-5.7 14.58-15.06 14.58zm0-41.458c-6 0-9.9 4.68-9.9 11.82 0 6.84 3.6 10.86 9.9 10.86s9.9-4.02 9.9-10.86c0-7.14-3.84-11.82-9.9-11.82zM620.535 80a2.52 2.52 0 0 1-2.64-2.52V59.66h-19.8v17.82a2.58 2.58 0 0 1-5.159 0V39.802a2.58 2.58 0 0 1 5.159 0v14.76h19.8v-14.7a2.58 2.58 0 1 1 5.159 0V77.42a2.541 2.541 0 0 1-2.52 2.58z"/><use xlink:href="#T"/><path d="M674.294 40.642l-12.6 37.318a2.722 2.722 0 0 1-2.579 2.04 2.825 2.825 0 0 1-2.521-2.04l-12.66-37.318a2.561 2.561 0 0 1 4.859-1.62l10.32 30.42 10.38-30.42a2.387 2.387 0 0 1 2.34-1.74 2.56 2.56 0 0 1 2.7 2.46 1.835 1.835 0 0 1-.24.9z"/><use xlink:href="#T" x="59.518"/><path d="M728.713 80a2.424 2.424 0 0 1-2.52-2.52V60.8a8.55 8.55 0 1 0-17.1 0v16.62a2.55 2.55 0 0 1-2.64 2.64 2.472 2.472 0 0 1-2.52-2.58V50.66a2.387 2.387 0 0 1 2.52-2.52 2.509 2.509 0 0 1 2.58 1.98 13.702 13.702 0 0 1 22.259 10.68v16.62a2.453 2.453 0 0 1-2.579 2.58zm17.94-26.758h-2.7v24.18a2.453 2.453 0 0 1-2.64 2.52 2.421 2.421 0 0 1-2.52-2.52v-24.18h-2.46a2.55 2.55 0 0 1 0-5.1h2.46v-4.08a6.836 6.836 0 0 1 6.899-6.78 2.551 2.551 0 1 1 0 5.1 1.682 1.682 0 0 0-1.74 1.62v4.14h2.7a2.552 2.552 0 1 1 0 5.1zm31.8 13.438h-22.2c.84 5.64 4.44 9.24 9.72 9.24a9.007 9.007 0 0 0 7.14-3.12 2.483 2.483 0 0 1 1.859-.96 2.8 2.8 0 0 1 2.7 2.64c0 .72-.18 1.26-1.44 2.52a14.618 14.618 0 0 1-10.259 4.02c-9.66 0-15.06-7.98-15.06-16.98 0-8.94 5.4-16.92 15.06-16.92 9.78 0 15 7.98 15 16.92a2.558 2.558 0 0 1-2.519 2.64zm-12.48-14.46c-5.64 0-8.94 4.14-9.72 9.3H775.7c-.84-5.76-4.44-9.3-9.72-9.3zm43.5 24.24a13.935 13.935 0 0 1-10.739 4.56c-9.66 0-15.06-7.92-15.06-16.98 0-9 5.4-16.92 15.06-16.92a13.935 13.935 0 0 1 10.739 4.56 2.618 2.618 0 0 1 .72 1.74 2.794 2.794 0 0 1-2.7 2.58 2.84 2.84 0 0 1-1.859-.84 8.814 8.814 0 0 0-6.899-2.94c-6 0-9.9 4.68-9.9 11.82 0 7.2 3.9 11.88 9.9 11.88a8.923 8.923 0 0 0 6.899-2.939 2.395 2.395 0 0 1 1.859-.9 2.59 2.59 0 0 1 1.98 4.38zM824.4 80h-1.02c-5.7 0-7.86-3-7.86-7.92V53.24h-1.8a2.55 2.55 0 0 1-.061-5.1h1.8V39.8a2.436 2.436 0 0 1 2.579-2.52 2.39 2.39 0 0 1 2.521 2.52v8.34h3.84a2.487 2.487 0 0 1 2.52 2.52 2.441 2.441 0 0 1-2.52 2.58h-3.84v19.38c0 1.68.6 2.28 2.28 2.28h1.5a2.475 2.475 0 0 1 2.58 2.52 2.441 2.441 0 0 1-2.52 2.58z"/><use xlink:href="#S" x="328.732"/><use xlink:href="#P" x="770.97"/><path d="M899.828 80a2.423 2.423 0 0 1-2.52-2.52V60.8a8.55 8.55 0 1 0-17.1 0v16.62a2.55 2.55 0 0 1-2.64 2.64 2.472 2.472 0 0 1-2.519-2.58V50.66a2.387 2.387 0 0 1 2.52-2.52 2.509 2.509 0 0 1 2.58 1.98 13.702 13.702 0 0 1 22.259 10.68v16.62a2.454 2.454 0 0 1-2.58 2.58zM918 81.02c-3.3 0-8.82-1.02-11.64-4.5a2.655 2.655 0 0 1 2.16-4.26 2.463 2.463 0 0 1 1.859 1.02c1.86 2.04 4.92 2.64 7.62 2.64 5.4 0 7.14-1.86 7.14-4.56 0-7.68-18.3-2.94-18.3-15.3 0-6.54 6.12-8.94 11.82-8.94 3.24 0 10.86 1.62 10.86 4.98a2.694 2.694 0 0 1-2.52 2.7 3.612 3.612 0 0 1-1.98-.78c-1.62-1.38-3.96-1.8-6.36-1.8-4.98 0-6.72 1.86-6.72 3.84 0 7.14 18.36 2.52 18.36 15.3 0 7.08-5.94 9.66-12.3 9.66z"/></g><g opacity=".7" class="U"><path d="M46.993 128H38.56a1.151 1.151 0 0 1-1.103-1.063v-24.925a1.122 1.122 0 0 1 1.103-1.063h8.435c7.827 0 10.4 6.535 10.4 13.487 0 7.067-2.583 13.564-10.4 13.564zm0-24.924h-7.37v22.758h7.37c6.497 0 8.245-5.623 8.245-11.36 0-6.763-2.356-11.397-8.245-11.397zm31.537 15.92H62.764c.342 4.332 3.153 7.485 7.295 7.485a6.866 6.866 0 0 0 5.585-2.622.997.997 0 0 1 .912-.531 1.161 1.161 0 0 1 1.178 1.025c0 .342 0 .418-.722 1.254a8.969 8.969 0 0 1-6.953 3.039c-6.117 0-9.536-5.015-9.536-10.752 0-5.7 3.42-10.715 9.536-10.715s9.537 5.054 9.537 10.715a1.15 1.15 0 0 1-1.064 1.102zm-8.473-9.65c-4.56 0-6.953 3.495-7.295 7.485H77.4c-.342-4.332-3.153-7.485-7.333-7.485z"/><use xlink:href="#U"/><use xlink:href="#V"/><use xlink:href="#W"/><use xlink:href="#X"/><path d="M158.14 118.996h-15.768c.342 4.332 3.153 7.485 7.295 7.485a6.866 6.866 0 0 0 5.585-2.622.997.997 0 0 1 .912-.531 1.161 1.161 0 0 1 1.178 1.025c0 .342 0 .418-.722 1.254a8.969 8.969 0 0 1-6.953 3.039c-6.117 0-9.536-5.015-9.536-10.752 0-5.7 3.42-10.715 9.536-10.715s9.537 5.054 9.537 10.715a1.15 1.15 0 0 1-1.064 1.102zm-8.473-9.65c-4.56 0-6.953 3.495-7.295 7.485H157c-.342-4.332-3.153-7.485-7.333-7.485z"/><use xlink:href="#U" x="88.158"/><path d="M204.728 128a1.068 1.068 0 0 1-1.102-1.063v-1.216a8.44 8.44 0 0 1-6.497 2.925 8.758 8.758 0 0 1-8.663-8.662V108.9a1.083 1.083 0 0 1 2.166 0v11.095a6.497 6.497 0 1 0 12.994 0V108.9a1.083 1.083 0 0 1 2.166 0v18.048a1.059 1.059 0 0 1-1.064 1.064z"/><use xlink:href="#Y"/><use xlink:href="#Y" x="10.943"/><use xlink:href="#Z"/><use xlink:href="#a"/><use xlink:href="#W" x="142.573"/><path d="M289.124 128a1.068 1.068 0 0 1-1.102-1.063v-11.095a6.497 6.497 0 1 0-12.994 0v11.095a1.083 1.083 0 0 1-2.166 0V108.9a1.083 1.083 0 0 1 2.166 0v1.216a8.667 8.667 0 0 1 15.16 5.737v11.095a1.059 1.059 0 0 1-1.064 1.064z"/><use xlink:href="#b"/><use xlink:href="#X" x="195.582"/><path d="M352.85 128a1.068 1.068 0 0 1-1.102-1.063v-11.095a6.497 6.497 0 1 0-12.994 0v11.095a1.083 1.083 0 0 1-2.166 0v-24.925a1.083 1.083 0 0 1 2.166 0v8.093a8.44 8.44 0 0 1 6.497-2.926 8.734 8.734 0 0 1 8.663 8.663v11.095a1.059 1.059 0 0 1-1.064 1.064z"/><use xlink:href="#Z" x="125.893"/><path d="M413.723 109.23l-6.193 17.857c-.266.722-.607.912-1.102.912-.646 0-.836-.228-1.064-.912l-4.977-14.817-4.978 14.817c-.266.722-.608.912-1.102.912a1.111 1.111 0 0 1-1.064-.912l-6.154-17.857a1.605 1.605 0 0 1-.076-.418 1.079 1.079 0 0 1 1.102-.987.986.986 0 0 1 .988.722l5.205 15.046 4.977-14.855c.23-.723.456-.912 1.103-.912.456 0 .836.15 1.063.912l5.054 14.855 5.13-15.046a.985.985 0 0 1 .987-.722 1.028 1.028 0 0 1 1.103 1.405zm11.63 19.416c-6.117 0-9.536-5.015-9.536-10.752 0-5.7 3.42-10.715 9.536-10.715s9.537 5.016 9.537 10.715c0 5.737-3.42 10.752-9.537 10.752zm0-19.3c-4.483 0-7.37 3.6-7.37 8.55s2.888 8.587 7.37 8.587c4.52 0 7.37-3.647 7.37-8.587s-2.85-8.55-7.37-8.55z"/><use xlink:href="#a" x="184.373"/><path d="M454.194 128.23a3.982 3.982 0 0 1-3.762-4.027v-22.188a1.083 1.083 0 0 1 2.166 0V124.2c0 2.432 2.697 1.026 2.697 2.736a1.224 1.224 0 0 1-1.102 1.291zm20.936-.23a1.068 1.068 0 0 1-1.102-1.063v-1.9a8.619 8.619 0 0 1-7.371 3.609c-6.117 0-9.536-5.015-9.536-10.752 0-5.7 3.42-10.715 9.536-10.715a8.686 8.686 0 0 1 7.371 3.572v-8.74a1.083 1.083 0 0 1 2.166 0v24.925A1.059 1.059 0 0 1 475.13 128zm-8.473-18.655c-4.483 0-7.37 3.6-7.37 8.55s2.888 8.587 7.37 8.587c4.52 0 7.37-3.647 7.37-8.587s-2.85-8.55-7.37-8.55zm14.1-.532a1.259 1.259 0 0 1-.57.19 1.22 1.22 0 0 1-1.063-1.292c0-.836 2.165-1.025 2.165-3.457v-2.888a1.081 1.081 0 0 1 1.064-1.14 1.11 1.11 0 0 1 1.102 1.14v2.888a5.416 5.416 0 0 1-2.697 4.559z"/><use xlink:href="#U" x="404.731"/><path d="M523.467 128.646a8.619 8.619 0 0 1-7.371-3.609v1.9a1.083 1.083 0 0 1-2.166 0v-24.925a1.083 1.083 0 0 1 2.166 0v8.74a8.686 8.686 0 0 1 7.371-3.572c6.117 0 9.536 5.016 9.536 10.715 0 5.737-3.42 10.752-9.536 10.752zm0-19.3c-4.52 0-7.37 3.61-7.37 8.55s2.85 8.587 7.37 8.587 7.37-3.647 7.37-8.587-2.85-8.55-7.37-8.55z"/><use xlink:href="#W" x="413.28"/><use xlink:href="#b" x="249.085"/><use xlink:href="#b" x="271.922"/><path d="M606.38 118.996h-15.768c.342 4.332 3.153 7.485 7.295 7.485a6.866 6.866 0 0 0 5.585-2.622.997.997 0 0 1 .912-.531 1.161 1.161 0 0 1 1.178 1.025c0 .342 0 .418-.722 1.254a8.969 8.969 0 0 1-6.953 3.039c-6.117 0-9.536-5.015-9.536-10.752 0-5.7 3.42-10.715 9.536-10.715s9.537 5.054 9.537 10.715a1.15 1.15 0 0 1-1.065 1.102zm-8.473-9.65c-4.56 0-6.953 3.495-7.295 7.485h14.628c-.342-4.332-3.153-7.485-7.333-7.485zm19.647 19.377c-2.28 0-6.117-.798-7.447-3a.922.922 0 0 1-.151-.57 1.036 1.036 0 0 1 1.938-.607c1.367 1.67 3.8 2.014 5.66 2.014 3.686 0 5.547-1.216 5.547-3.686 0-5.737-12.462-2.698-12.462-10.297 0-3.837 3.837-5.32 7.295-5.32 1.976 0 5.015.685 6.535 2.204a1.064 1.064 0 0 1 .342.722 1.232 1.232 0 0 1-1.178 1.14 1.006 1.006 0 0 1-.722-.304 7.598 7.598 0 0 0-4.978-1.596c-3.344 0-5.13 1.292-5.13 3.153 0 5.32 12.462 2.508 12.462 10.297 0 4.33-3.8 5.85-7.713 5.85z"/><use xlink:href="#X" x="498.208"/><path d="M665.735 128a1.034 1.034 0 0 1-1.063-1.063v-12.35H649.93v12.35a1.016 1.016 0 0 1-1.063 1.063 1.045 1.045 0 0 1-1.103-1.063v-24.925a1.045 1.045 0 0 1 1.103-1.063 1.016 1.016 0 0 1 1.063 1.063v10.4h14.742v-10.4a1.016 1.016 0 0 1 1.063-1.063 1.044 1.044 0 0 1 1.102 1.063v24.925a1.046 1.046 0 0 1-1.102 1.064zm10.3 0h-4.33a1.083 1.083 0 1 1 0-2.166h1.063v-22.758h-1.063a1.065 1.065 0 1 1 0-2.128h4.33a1.064 1.064 0 1 1 0 2.128h-1.102v22.758h1.102a1.083 1.083 0 0 1 0 2.166zm22.153-25.646l-8.435 24.925a1.067 1.067 0 0 1-.988.722 1.107 1.107 0 0 1-1.063-.722l-8.435-24.925a1.605 1.605 0 0 1-.076-.418 1.079 1.079 0 0 1 1.102-.987.986.986 0 0 1 .988.722l7.408 21.885 7.447-21.885a1.101 1.101 0 0 1 2.128.266 1.605 1.605 0 0 1-.076.418zm28.65 16.642H711.07c.342 4.332 3.153 7.485 7.295 7.485a6.866 6.866 0 0 0 5.585-2.622.997.997 0 0 1 .912-.531 1.161 1.161 0 0 1 1.178 1.025c0 .342 0 .418-.722 1.254a8.969 8.969 0 0 1-6.953 3.039c-6.117 0-9.536-5.015-9.536-10.752 0-5.7 3.42-10.715 9.536-10.715s9.537 5.054 9.537 10.715a1.15 1.15 0 0 1-1.065 1.102zm-8.473-9.65c-4.56 0-6.953 3.495-7.295 7.485h14.628c-.342-4.332-3.153-7.485-7.333-7.485z"/><use xlink:href="#V" x="631.016"/><use xlink:href="#W" x="631.017"/><path d="M778.442 128a1.067 1.067 0 0 1-1.102-1.064v-1.9a8.619 8.619 0 0 1-7.371 3.609c-6.117 0-9.536-5.015-9.536-10.752 0-5.7 3.42-10.715 9.536-10.715a8.686 8.686 0 0 1 7.371 3.572v-8.74a1.083 1.083 0 0 1 2.166 0v24.925a1.059 1.059 0 0 1-1.064 1.064zm-8.473-18.655c-4.483 0-7.37 3.61-7.37 8.55s2.888 8.587 7.37 8.587c4.52 0 7.37-3.647 7.37-8.587s-2.85-8.55-7.37-8.55z"/><use xlink:href="#Z" x="551.828"/><path d="M830.84 128a1.037 1.037 0 0 1-1.063-1.063V114.17a4.844 4.844 0 0 0-9.688-.038v12.805a1.037 1.037 0 0 1-1.063 1.063 1.068 1.068 0 0 1-1.103-1.063V114.17a4.825 4.825 0 0 0-9.65-.038v12.805a1.083 1.083 0 0 1-2.166 0V108.9a1.083 1.083 0 0 1 2.166 0v.23a6.906 6.906 0 0 1 4.825-1.938 7.048 7.048 0 0 1 5.928 3.229 7.013 7.013 0 0 1 12.918 3.724v12.805a1.068 1.068 0 0 1-1.103 1.064z"/><use xlink:href="#W" x="712.753"/><path d="M858.506 125.76a8.825 8.825 0 0 1-6.801 2.887c-6.117 0-9.536-5.015-9.536-10.752 0-5.7 3.42-10.715 9.536-10.715a8.826 8.826 0 0 1 6.801 2.888 1.006 1.006 0 0 1 .305.722 1.191 1.191 0 0 1-1.103 1.141 1.123 1.123 0 0 1-.798-.38 6.696 6.696 0 0 0-5.205-2.204c-4.483 0-7.37 3.61-7.37 8.55s2.888 8.587 7.37 8.587a6.826 6.826 0 0 0 5.205-2.204 1.079 1.079 0 0 1 1.9.722 1.089 1.089 0 0 1-.305.761z"/></g><g class="a"><use xlink:href="#c"/><path d="M141.5 365.877h-9.62c.364 2.444 1.924 4.004 4.212 4.004a3.903 3.903 0 0 0 3.094-1.352 1.075 1.075 0 0 1 .806-.416 1.213 1.213 0 0 1 1.17 1.144c0 .312-.078.546-.624 1.092a6.333 6.333 0 0 1-4.446 1.742c-4.186 0-6.526-3.458-6.526-7.358 0-3.874 2.34-7.332 6.526-7.332 4.238 0 6.5 3.458 6.5 7.332a1.109 1.109 0 0 1-1.092 1.145zm-5.408-6.267c-2.444 0-3.875 1.794-4.212 4.03h8.424c-.364-2.496-1.924-4.03-4.212-4.03zm14.718 12.48c-4.186 0-6.526-3.432-6.526-7.358 0-3.9 2.34-7.332 6.526-7.332s6.526 3.432 6.526 7.332c0 3.926-2.34 7.358-6.526 7.358zm0-12.48c-2.6 0-4.3 2.028-4.3 5.122 0 3.12 1.7 5.148 4.3 5.148 2.626 0 4.3-2.028 4.3-5.148 0-3.094-1.664-5.122-4.3-5.122z"/><use xlink:href="#c" x="45.369"/><path d="M177.988 371.702a2.653 2.653 0 0 1-2.6-2.652v-14.794a1.118 1.118 0 0 1 2.236-.026v14.82a.41.41 0 0 0 .364.442 1.105 1.105 0 1 1 0 2.21zm14.3-5.825h-9.62c.364 2.444 1.924 4.004 4.212 4.004a3.902 3.902 0 0 0 3.094-1.352 1.076 1.076 0 0 1 .806-.416 1.214 1.214 0 0 1 1.17 1.144c0 .312-.078.546-.624 1.092a6.335 6.335 0 0 1-4.446 1.742c-4.187 0-6.526-3.458-6.526-7.358 0-3.874 2.34-7.332 6.526-7.332 4.238 0 6.5 3.458 6.5 7.332a1.109 1.109 0 0 1-1.092 1.145zm-5.408-6.267c-2.444 0-3.874 1.794-4.212 4.03h8.424c-.364-2.496-1.924-4.03-4.212-4.03z"/></g><g class="b"><use xlink:href="#d"/><path d="M85.17 383.347a1.482 1.482 0 1 1 1.482-1.482 1.465 1.465 0 0 1-1.482 1.482zm0 16.303a.715.715 0 0 1-.754-.728v-12.35a.716.716 0 0 1 .754-.728.708.708 0 0 1 .728.728v12.35a.696.696 0 0 1-.728.728zm14.508-12.793l-5.122 12.194a.855.855 0 0 1-.729.598.886.886 0 0 1-.754-.598l-5.122-12.168a.829.829 0 0 1-.052-.338.727.727 0 0 1 .754-.702.668.668 0 0 1 .65.442l4.524 10.687 4.5-10.687a.742.742 0 0 1 1.43.234.621.621 0 0 1-.078.338z"/><use xlink:href="#e"/><path d="M117.54 399.65a.731.731 0 0 1-.754-.728v-7.592a4.446 4.446 0 1 0-8.892 0v7.592a.741.741 0 0 1-1.482 0v-12.35a.741.741 0 0 1 1.482 0v.832a5.931 5.931 0 0 1 10.375 3.926v7.592a.725.725 0 0 1-.728.728zm9.593 5.928c-2.2 0-5.33-.832-5.33-1.768a.826.826 0 0 1 .754-.832 9.396 9.396 0 0 1 1.378.624 9.749 9.749 0 0 0 3.198.494c3.328 0 5.044-1.638 5.044-4.836v-1.82a6.207 6.207 0 0 1-5.044 2.21c-4.108 0-6.526-2.912-6.526-6.916 0-3.9 2.34-7.332 6.526-7.332a5.943 5.943 0 0 1 5.044 2.444v-1.248a.741.741 0 0 1 1.482 0v12.662c0 4.134-2.47 6.318-6.526 6.318zm0-18.695c-3.068 0-5.044 2.47-5.044 5.85 0 3.354 1.846 5.435 5.044 5.435s5.044-2.08 5.044-5.435c0-3.38-1.95-5.85-5.044-5.85zm32.657-.078l-4.238 12.22c-.182.494-.416.624-.754.624-.442 0-.572-.156-.728-.624l-3.406-10.14-3.406 10.14c-.182.494-.416.624-.754.624a.76.76 0 0 1-.729-.624l-4.212-12.22a1.111 1.111 0 0 1-.052-.286.739.739 0 0 1 .754-.676.675.675 0 0 1 .676.494l3.563 10.296 3.406-10.167c.156-.494.312-.624.754-.624.312 0 .572.104.728.624l3.458 10.167 3.5-10.296a.675.675 0 0 1 .676-.494.704.704 0 0 1 .754.962z"/><use xlink:href="#e" x="60.06"/><path d="M171.23 399.65h-.806c-2.054 0-3.068-1.014-3.068-3.042v-9.283h-1.326a.741.741 0 0 1 0-1.482h1.326v-3.978a.731.731 0 0 1 .754-.728.71.71 0 0 1 .728.728v3.978h2.393a.741.741 0 0 1 0 1.482h-2.393v9.283c0 1.274.364 1.56 1.586 1.56h.806a.741.741 0 0 1 0 1.482zm13.7 0a.731.731 0 0 1-.754-.728v-7.592a4.447 4.447 0 1 0-8.893 0v7.592a.741.741 0 0 1-1.482 0v-17.057a.741.741 0 0 1 1.482 0v5.538a5.776 5.776 0 0 1 4.446-2.002 5.976 5.976 0 0 1 5.928 5.928v7.592a.725.725 0 0 1-.728.728zm21.814 0a.708.708 0 0 1-.728-.728v-8.45h-10.088v8.45a.696.696 0 0 1-.728.728.715.715 0 0 1-.754-.728v-17.057a.715.715 0 0 1 .754-.728.696.696 0 0 1 .728.728v7.124h10.088v-7.124a.696.696 0 0 1 .728-.728.714.714 0 0 1 .754.728v17.057a.716.716 0 0 1-.754.728zm7.056 0h-2.964a.741.741 0 1 1 0-1.482h.728v-15.575h-.728a.728.728 0 1 1 0-1.456h2.964a.728.728 0 1 1 0 1.456h-.754v15.575h.754a.741.741 0 0 1 0 1.482zm15.148-17.55l-5.772 17.057a.729.729 0 0 1-.676.494.759.759 0 0 1-.729-.494L216 382.1a1.109 1.109 0 0 1-.052-.286.739.739 0 0 1 .754-.676.675.675 0 0 1 .676.494l5.07 14.977 5.096-14.977a.753.753 0 0 1 1.456.182 1.108 1.108 0 0 1-.052.286z"/></g><g class="U"><path d="M53.8 496.9a1.512 1.512 0 0 1-1.584-1.512v-10.7h-11.88v10.7a1.548 1.548 0 0 1-3.096 0V472.77a1.548 1.548 0 0 1 3.096 0v8.855h11.878v-8.82a1.548 1.548 0 1 1 3.096 0v22.533a1.525 1.525 0 0 1-1.512 1.548zm11.052 0h-4.14a1.53 1.53 0 0 1 0-3.06h.54v-19.5h-.54a1.53 1.53 0 0 1 0-3.06h4.14a1.531 1.531 0 1 1 0 3.06h-.54v19.5h.54a1.531 1.531 0 1 1 0 3.06zm21.923-23.614l-7.56 22.4a1.633 1.633 0 0 1-1.548 1.224 1.694 1.694 0 0 1-1.512-1.224l-7.595-22.4a1.544 1.544 0 0 1 1.476-2.016 1.504 1.504 0 0 1 1.44 1.044l6.2 18.25 6.227-18.25a1.432 1.432 0 0 1 1.404-1.044 1.536 1.536 0 0 1 1.62 1.476 1.106 1.106 0 0 1-.144.54zm26.89 21.49a8.361 8.361 0 0 1-6.443 2.735c-5.795 0-9.035-4.75-9.035-10.187 0-5.4 3.24-10.15 9.035-10.15a8.362 8.362 0 0 1 6.443 2.736 1.568 1.568 0 0 1 .432 1.044 1.677 1.677 0 0 1-1.62 1.548 1.703 1.703 0 0 1-1.116-.504 5.288 5.288 0 0 0-4.14-1.764c-3.6 0-5.94 2.808-5.94 7.1 0 4.32 2.34 7.127 5.94 7.127a5.354 5.354 0 0 0 4.14-1.764 1.437 1.437 0 0 1 1.116-.54 1.554 1.554 0 0 1 1.188 2.628zm22.067 2.125a3.502 3.502 0 0 1-3.204-2.052 8.248 8.248 0 0 1-6.335 2.664c-5.867 0-9.035-4.823-9.035-10.187s3.24-10.15 9.035-10.15a7.953 7.953 0 0 1 5.939 2.376v-.144a1.485 1.485 0 0 1 1.512-1.62 1.447 1.447 0 0 1 1.584 1.512v13.894a.582.582 0 0 0 .504.648 1.53 1.53 0 1 1 0 3.06zm-9.54-16.666c-3.6 0-5.94 2.808-5.94 7.1 0 4.32 2.34 7.127 5.94 7.127 3.636 0 5.94-2.808 5.94-7.127 0-4.284-2.304-7.1-5.94-7.1zm20.45 17.276c-1.98 0-5.3-.612-6.983-2.7a1.593 1.593 0 0 1 1.296-2.556 1.479 1.479 0 0 1 1.116.612 6.15 6.15 0 0 0 4.571 1.584c3.24 0 4.284-1.116 4.284-2.735 0-4.607-10.98-1.764-10.98-9.18 0-3.923 3.67-5.363 7.1-5.363 1.944 0 6.515.972 6.515 2.988a1.616 1.616 0 0 1-1.512 1.62 2.165 2.165 0 0 1-1.187-.468 5.836 5.836 0 0 0-3.816-1.08c-2.987 0-4.03 1.116-4.03 2.304 0 4.284 11.015 1.512 11.015 9.18 0 4.247-3.563 5.795-7.38 5.795zm26.783-8.603h-13.318c.504 3.384 2.664 5.543 5.83 5.543a5.402 5.402 0 0 0 4.284-1.872 1.49 1.49 0 0 1 1.116-.576 1.68 1.68 0 0 1 1.62 1.584c0 .432-.108.756-.864 1.512a8.771 8.771 0 0 1-6.155 2.412c-5.795 0-9.035-4.787-9.035-10.187 0-5.363 3.24-10.15 9.035-10.15 5.867 0 9 4.788 9 10.15a1.535 1.535 0 0 1-1.512 1.583zm-7.487-8.675c-3.383 0-5.363 2.484-5.83 5.58h11.663c-.504-3.456-2.664-5.58-5.832-5.58zm18.9 17.278c-1.98 0-5.3-.612-6.983-2.7a1.593 1.593 0 0 1 1.296-2.556 1.48 1.48 0 0 1 1.116.612 6.15 6.15 0 0 0 4.571 1.584c3.24 0 4.284-1.116 4.284-2.735 0-4.607-10.98-1.764-10.98-9.18 0-3.923 3.67-5.363 7.1-5.363 1.944 0 6.515.972 6.515 2.988a1.616 1.616 0 0 1-1.512 1.62 2.165 2.165 0 0 1-1.187-.468 5.836 5.836 0 0 0-3.816-1.08c-2.987 0-4.03 1.116-4.03 2.304 0 4.284 11.015 1.512 11.015 9.18 0 4.247-3.563 5.795-7.38 5.795z"/><use xlink:href="#f"/><use xlink:href="#g"/><path d="M69.908 515.32a4.103 4.103 0 0 0-4.104 4.104v6.793a.684.684 0 0 1-1.368 0v-11.4a.684.684 0 0 1 1.368 0v.984a5.478 5.478 0 0 1 4.104-1.849.684.684 0 1 1 0 1.368zM80.37 526.9a.656.656 0 0 1-.672-.672v-14.354l-2.616 2.544a.59.59 0 0 1-.456.216.76.76 0 0 1-.72-.744.801.801 0 0 1 .216-.456l3.792-3.672a.906.906 0 0 1 .456-.192c.504 0 .696.36.696.84v15.817a.649.649 0 0 1-.696.672zm4.585 2.134a.622.622 0 0 1-.36.097.672.672 0 0 1-.648-.696c0-.672 1.032-.77 1.2-1.536a1.382 1.382 0 0 1 .096-2.761c1.176 0 1.44 1.2 1.44 1.944a3.425 3.425 0 0 1-1.729 2.952z"/><use xlink:href="#h"/><use xlink:href="#h" x="12.383"/><use xlink:href="#h" x="24.767"/><use xlink:href="#f" x="96.022"/><use xlink:href="#g" x="96.02"/><path d="M165.93 527.297c-3.864 0-6.024-3.17-6.024-6.793 0-3.6 2.16-6.77 6.024-6.77s6.024 3.168 6.024 6.77c0 3.624-2.16 6.793-6.024 6.793zm0-12.193c-2.833 0-4.656 2.28-4.656 5.4s1.824 5.425 4.656 5.425c2.856 0 4.656-2.305 4.656-5.425s-1.8-5.4-4.656-5.4z"/><use xlink:href="#f" x="138.189"/><path d="M191.13 527.032a2.515 2.515 0 0 1-2.376-2.544V510.47a.684.684 0 0 1 1.368 0v14.017c0 1.536 1.704.648 1.704 1.73a.774.774 0 0 1-.696.815zm13.224-5.832h-9.96c.216 2.736 1.992 4.73 4.608 4.73a4.339 4.339 0 0 0 3.528-1.656.628.628 0 0 1 .576-.336.734.734 0 0 1 .744.647c0 .216 0 .265-.456.792a5.664 5.664 0 0 1-4.392 1.921c-3.864 0-6.024-3.17-6.024-6.793 0-3.6 2.16-6.77 6.024-6.77s6.024 3.192 6.024 6.77a.726.726 0 0 1-.672.696zM199 515.104c-2.88 0-4.393 2.208-4.608 4.73h9.24c-.216-2.736-1.992-4.73-4.632-4.73z"/></g><g class="a"><use xlink:href="#i"/><use xlink:href="#j"/><use xlink:href="#k"/><use xlink:href="#l"/><use xlink:href="#m"/><use xlink:href="#n"/><use xlink:href="#l" x="35.203"/><use xlink:href="#o"/></g><g class="b"><use xlink:href="#p"/><path d="M349.53 399.65a.731.731 0 0 1-.754-.728v-1.3a5.9 5.9 0 0 1-5.044 2.47c-4.187 0-6.526-3.432-6.526-7.358 0-3.9 2.34-7.332 6.526-7.332a5.944 5.944 0 0 1 5.044 2.444v-5.98a.741.741 0 0 1 1.481 0v17.057a.725.725 0 0 1-.728.728zm-5.798-12.767c-3.068 0-5.045 2.47-5.045 5.85s1.977 5.876 5.045 5.876c3.094 0 5.044-2.496 5.044-5.876s-1.95-5.85-5.044-5.85zm20.593 12.767a.731.731 0 0 1-.754-.728v-.832a5.776 5.776 0 0 1-4.446 2.002 5.993 5.993 0 0 1-5.929-5.928v-7.592a.741.741 0 0 1 1.482 0v7.592a4.447 4.447 0 1 0 8.893 0v-7.592a.741.741 0 0 1 1.481 0v12.35a.725.725 0 0 1-.728.728z"/><use xlink:href="#d" x="288.984"/><use xlink:href="#q"/><path d="M393.106 400.1a5.9 5.9 0 0 1-5.044-2.47v6.734a.741.741 0 1 1-1.481 0V386.57a.741.741 0 0 1 1.481 0v1.274a5.944 5.944 0 0 1 5.044-2.444c4.187 0 6.526 3.432 6.526 7.332 0 3.926-2.34 7.358-6.526 7.358zm0-13.2c-3.094 0-5.044 2.47-5.044 5.85s1.95 5.876 5.044 5.876 5.045-2.496 5.045-5.876-1.95-5.85-5.045-5.85zm15.028 13.2c-4.187 0-6.526-3.432-6.526-7.358 0-3.9 2.34-7.332 6.526-7.332s6.526 3.432 6.526 7.332c0 3.926-2.34 7.358-6.526 7.358zm0-13.2c-3.068 0-5.044 2.47-5.044 5.85s1.976 5.876 5.044 5.876c3.094 0 5.044-2.496 5.044-5.876s-1.95-5.85-5.044-5.85zm15.626 13.2a5.9 5.9 0 0 1-5.044-2.47v6.734a.741.741 0 1 1-1.482 0V386.57a.741.741 0 0 1 1.482 0v1.274a5.944 5.944 0 0 1 5.044-2.444c4.187 0 6.526 3.432 6.526 7.332 0 3.926-2.34 7.358-6.526 7.358zm0-13.2c-3.094 0-5.044 2.47-5.044 5.85s1.95 5.876 5.044 5.876 5.044-2.496 5.044-5.876-1.95-5.85-5.044-5.85zm19.993 12.77a.731.731 0 0 1-.754-.728v-.832a5.775 5.775 0 0 1-4.446 2.002 5.993 5.993 0 0 1-5.928-5.928v-7.592a.741.741 0 0 1 1.482 0v7.592a4.446 4.446 0 1 0 8.892 0v-7.592a.741.741 0 0 1 1.482 0v12.35a.725.725 0 0 1-.729.728zm6.474.155a2.724 2.724 0 0 1-2.573-2.756v-15.185a.741.741 0 0 1 1.481 0v15.185c0 1.664 1.847.702 1.847 1.872a.839.839 0 0 1-.755.884zm16.173-.155h-.026a2.693 2.693 0 0 1-2.574-2.028 5.9 5.9 0 0 1-5.044 2.47c-4.238 0-6.526-3.484-6.526-7.358 0-3.926 2.34-7.332 6.526-7.332a5.944 5.944 0 0 1 5.044 2.444v-1.274a.733.733 0 0 1 .754-.728.71.71 0 0 1 .729.728v10.48c0 1.664 1.872.624 1.872 1.872a.715.715 0 0 1-.754.728zm-7.645-12.767c-3.068 0-5.044 2.47-5.044 5.85s1.976 5.876 5.044 5.876c3.094 0 5.044-2.496 5.044-5.876s-1.95-5.85-5.044-5.85z"/><use xlink:href="#q" x="95.601"/><path d="M477.084 383.347a1.482 1.482 0 1 1 1.482-1.482 1.464 1.464 0 0 1-1.482 1.482zm0 16.303a.714.714 0 0 1-.754-.728v-12.35a.716.716 0 0 1 .754-.728.709.709 0 0 1 .729.728v12.35a.696.696 0 0 1-.729.728zm9.83.44c-4.187 0-6.526-3.432-6.526-7.358 0-3.9 2.34-7.332 6.526-7.332s6.525 3.432 6.525 7.332c0 3.926-2.34 7.358-6.525 7.358zm0-13.2c-3.068 0-5.045 2.47-5.045 5.85s1.977 5.876 5.045 5.876c3.094 0 5.044-2.496 5.044-5.876s-1.95-5.85-5.044-5.85z"/><use xlink:href="#r"/></g><g class="a"><use xlink:href="#i" x="222.789"/><use xlink:href="#j" x="222.788"/><use xlink:href="#k" x="222.787"/><use xlink:href="#l" x="222.788"/><use xlink:href="#m" x="222.788"/><use xlink:href="#n" x="222.787"/><use xlink:href="#l" x="257.991"/><use xlink:href="#o" x="222.787"/><path d="M704.228 371.65a2.529 2.529 0 0 1-2.313-1.482 5.959 5.959 0 0 1-4.576 1.924c-4.238 0-6.526-3.484-6.526-7.358s2.34-7.332 6.526-7.332a5.748 5.748 0 0 1 4.29 1.716v-.104a1.073 1.073 0 0 1 1.092-1.17 1.045 1.045 0 0 1 1.144 1.092v10.036a.421.421 0 0 0 .364.468 1.105 1.105 0 1 1 0 2.21zm-6.9-12.04c-2.6 0-4.29 2.028-4.29 5.122 0 3.12 1.7 5.148 4.29 5.148 2.626 0 4.3-2.028 4.3-5.148 0-3.094-1.664-5.122-4.3-5.122z"/><use xlink:href="#o" x="260.097"/><path d="M733.4 371.675a1.059 1.059 0 0 1-1.092-.858 6.052 6.052 0 0 1-3.744 1.3 5.976 5.976 0 0 1-5.929-5.929v-7.202a1.118 1.118 0 0 1 2.236-.026v7.228a3.705 3.705 0 1 0 7.41 0v-7.202a1.037 1.037 0 0 1 1.093-1.144 1.063 1.063 0 0 1 1.117 1.118v11.623a1.035 1.035 0 0 1-1.092 1.092z"/><use xlink:href="#s"/><path d="M747.465 371.65h-.44c-2.47 0-3.406-1.3-3.406-3.432v-8.164h-.78a1.105 1.105 0 0 1-.026-2.21h.78v-3.614a1.056 1.056 0 0 1 1.118-1.092 1.035 1.035 0 0 1 1.092 1.092v3.614h1.664a1.078 1.078 0 0 1 1.092 1.092 1.058 1.058 0 0 1-1.092 1.118H745.8v8.398c0 .728.26.988.988.988h.65a1.072 1.072 0 0 1 1.117 1.092 1.058 1.058 0 0 1-1.092 1.118zm7.255.44c-1.43 0-3.822-.442-5.044-1.95a1.15 1.15 0 0 1 .936-1.846 1.069 1.069 0 0 1 .807.442 4.441 4.441 0 0 0 3.302 1.144c2.34 0 3.094-.806 3.094-1.976 0-3.328-7.93-1.274-7.93-6.63 0-2.834 2.65-3.874 5.122-3.874 1.404 0 4.706.702 4.706 2.158a1.167 1.167 0 0 1-1.092 1.17 1.564 1.564 0 0 1-.858-.338 4.214 4.214 0 0 0-2.756-.78c-2.158 0-2.912.806-2.912 1.664 0 3.094 7.956 1.092 7.956 6.63 0 3.068-2.574 4.186-5.33 4.186z"/></g><g class="b"><use xlink:href="#t"/><use xlink:href="#r" x="117.78"/><path d="M639.192 399.65h-.806c-2.054 0-3.068-1.014-3.068-3.042v-9.283h-1.326a.741.741 0 0 1 0-1.482h1.326v-3.978a.731.731 0 0 1 .754-.728.71.71 0 0 1 .729.728v3.978h2.392a.741.741 0 0 1 0 1.482H636.8v9.283c0 1.274.364 1.56 1.586 1.56h.806a.741.741 0 0 1 0 1.482z"/><use xlink:href="#u"/><use xlink:href="#v"/><use xlink:href="#p" x="342.617"/><use xlink:href="#w"/><path d="M704.68 399.65a.71.71 0 0 1-.729-.728v-8.736a3.315 3.315 0 0 0-6.63-.026v8.762a.71.71 0 0 1-.728.728.732.732 0 0 1-.755-.728v-8.736a3.302 3.302 0 0 0-6.604-.026v8.762a.741.741 0 0 1-1.482 0v-12.35a.741.741 0 0 1 1.482 0v.156a4.723 4.723 0 0 1 3.302-1.326 4.823 4.823 0 0 1 4.057 2.21 4.799 4.799 0 0 1 8.84 2.548v8.762a.731.731 0 0 1-.754.728z"/><use xlink:href="#x"/><use xlink:href="#r" x="227.388"/><use xlink:href="#w" x="57.77"/></g><g class="a"><path d="M844.392 355.737a1.872 1.872 0 1 1 1.872-1.872 1.864 1.864 0 0 1-1.872 1.872zm0 15.913a1.093 1.093 0 0 1-1.145-1.092V358.96a1.098 1.098 0 0 1 1.145-1.118 1.071 1.071 0 0 1 1.092 1.118v11.596a1.049 1.049 0 0 1-1.092 1.092z"/><use xlink:href="#y"/><path d="M867.79 360.053h-1.17v10.478a1.063 1.063 0 0 1-1.145 1.092 1.049 1.049 0 0 1-1.092-1.092v-10.478h-1.066a1.105 1.105 0 0 1 0-2.21h1.066v-1.768a2.963 2.963 0 0 1 2.99-2.938 1.106 1.106 0 1 1 0 2.21.728.728 0 0 0-.754.702v1.794h1.17a1.106 1.106 0 1 1 0 2.21z"/><use xlink:href="#z"/><use xlink:href="#AA"/><path d="M903.046 371.65h-.44c-2.47 0-3.406-1.3-3.406-3.432v-8.164h-.78a1.105 1.105 0 0 1-.026-2.21h.78v-3.614a1.056 1.056 0 0 1 1.118-1.092 1.035 1.035 0 0 1 1.092 1.092v3.614h1.664a1.078 1.078 0 0 1 1.092 1.092 1.058 1.058 0 0 1-1.092 1.118h-1.664v8.398c0 .728.26.988.988.988h.65a1.072 1.072 0 0 1 1.117 1.092 1.058 1.058 0 0 1-1.092 1.118z"/><use xlink:href="#z" x="35.203"/><use xlink:href="#AB"/><use xlink:href="#AA" x="56.679"/><path d="M966.07 371.65a1.051 1.051 0 0 1-1.093-1.092v-7.228a3.705 3.705 0 1 0-7.41 0v7.202a1.105 1.105 0 0 1-1.144 1.144 1.071 1.071 0 0 1-1.092-1.118v-16.302a1.118 1.118 0 0 1 2.235-.026v4.498a5.244 5.244 0 0 1 3.692-1.326 5.976 5.976 0 0 1 5.929 5.928v7.202a1.064 1.064 0 0 1-1.118 1.118z"/><use xlink:href="#i" x="600.457"/><use xlink:href="#s" x="238.025"/><use xlink:href="#AB" x="60.433"/><path d="M1002.65 359.61a3.746 3.746 0 0 0-3.692 3.718v7.202a1.084 1.084 0 0 1-1.144 1.118 1.065 1.065 0 0 1-1.092-1.092V358.96a1.101 1.101 0 0 1 1.092-1.118 1.068 1.068 0 0 1 1.118.884 6.011 6.011 0 0 1 3.718-1.326 1.106 1.106 0 1 1 0 2.21z"/><use xlink:href="#z" x="133.424"/><use xlink:href="#y" x="170.136"/></g><g class="b"><use xlink:href="#t" x="261.112"/><use xlink:href="#r" x="378.89"/><use xlink:href="#w" x="215.123"/><use xlink:href="#u" x="261.112"/><use xlink:href="#v" x="261.11"/><use xlink:href="#p" x="603.729"/><path d="M946.3 399.65h-.806c-2.054 0-3.068-1.014-3.068-3.042v-9.283H941.1a.741.741 0 0 1 0-1.482h1.326v-3.978a.731.731 0 0 1 .754-.728.71.71 0 0 1 .729.728v3.978h2.392a.741.741 0 0 1 0 1.482h-2.39v9.283c0 1.274.364 1.56 1.586 1.56h.806a.741.741 0 0 1 0 1.482zm19.502 0a.71.71 0 0 1-.729-.728v-8.736a3.315 3.315 0 0 0-6.63-.026v8.762a.71.71 0 0 1-.728.728.732.732 0 0 1-.755-.728v-8.736a3.302 3.302 0 0 0-6.604-.026v8.762a.741.741 0 0 1-1.482 0v-12.35a.741.741 0 0 1 1.482 0v.156a4.723 4.723 0 0 1 3.302-1.326 4.803 4.803 0 0 0 8.086 0 4.756 4.756 0 0 1 4.811 4.758v8.762a.731.731 0 0 1-.754.728z"/><use xlink:href="#x" x="261.112"/><use xlink:href="#r" x="488.5"/><use xlink:href="#w" x="318.883"/></g><path d="M146.146 253.823a76.227 76.227 0 0 0-7.852 17.637 77.377 77.377 0 0 0-2.93 18.398q.116.76-.586.645h-3.34c-.43-.04-.606-.253-.527-.645a75.342 75.342 0 0 1 3.281-18.633 77.452 77.452 0 0 1 8.027-18.047q.527-.82-.06-.82h-18.047q-.645.118-.527-.586v-3.105q-.118-.644.527-.527h21.738q.644-.116.527.527v4.336l-.234.82zm6.514 33.75a3.415 3.415 0 0 1-3.516 3.633q-3.282-.235-3.516-3.633a3.432 3.432 0 0 1 3.516-3.574 3.389 3.389 0 0 1 3.516 3.574h0zm23.444-33.75a76.227 76.227 0 0 0-7.852 17.637 77.377 77.377 0 0 0-2.93 18.398q.116.76-.586.645h-3.34c-.43-.04-.606-.253-.527-.645a75.343 75.343 0 0 1 3.281-18.633 77.452 77.452 0 0 1 8.027-18.047q.527-.82-.06-.82H154.07q-.645.118-.527-.586v-3.105q-.118-.644.527-.527h21.738q.644-.116.527.527v4.336l-.234.82zm213.048 31.64q-.06.587.527.527h17.1q.644-.116.527.527v3.164c.078.43-.098.625-.527.586h-21.504c-.43.04-.606-.156-.527-.586v-3.223q.292-7.9 4.57-12.012a109.19 109.19 0 0 1 8.496-7.383 11.074 11.074 0 0 0 4.629-8.437 7.912 7.912 0 0 0-1.758-5.156 5.988 5.988 0 0 0-4.746-2.109 6.514 6.514 0 0 0-5.156 2.227 8.455 8.455 0 0 0-1.934 5.273q.058.82-.645.703h-3.164q-.645.118-.527-.527a12.929 12.929 0 0 1 3.34-8.262 10.667 10.667 0 0 1 8.145-3.574 10.542 10.542 0 0 1 7.793 3.223 11.391 11.391 0 0 1 3.164 8.027q-.352 6.387-4.57 9.902l-8.496 7.1q-4.278 3.516-4.746 10.02h0zM430.7 250.66a12.463 12.463 0 0 1 3.34 8.73v19.805a12.677 12.677 0 0 1-3.34 8.789 11.652 11.652 0 0 1-8.496 3.457 11.782 11.782 0 0 1-8.496-3.457 12.454 12.454 0 0 1-3.281-8.789V259.4a12.245 12.245 0 0 1 3.281-8.73 11.477 11.477 0 0 1 8.496-3.457 11.356 11.356 0 0 1 8.496 3.457zm-15.88 8.73v19.805a8.842 8.842 0 0 0 1.992 5.859 7.501 7.501 0 0 0 10.781 0 8.681 8.681 0 0 0 2.051-5.859V259.4a8.457 8.457 0 0 0-2.051-5.801 7.501 7.501 0 0 0-10.781 0 8.612 8.612 0 0 0-1.992 5.801h0zm31.48-12.98a4.425 4.425 0 0 1 1.162 3.074v2.118a4.423 4.423 0 0 1-1.162 3.074 4.042 4.042 0 0 1-3.006 1.23 4.002 4.002 0 0 1-2.972-1.23 4.346 4.346 0 0 1-1.195-3.074v-2.118a4.347 4.347 0 0 1 1.195-3.074 4.005 4.005 0 0 1 2.972-1.23 4.046 4.046 0 0 1 3.006 1.23zm-4.6 23.912h-1.503c-.273.022-.342-.1-.205-.342l14.074-23.946q.136-.4.444-.34h1.5q.376-.034.205.307l-14.108 23.946q-.137.4-.4.376zm-.65-18.822q.135 2.4 2.254 2.425 2.152-.034 2.254-2.425v-1.913q-.103-2.4-2.254-2.425-2.118.034-2.254 2.425zm8.847 18.105a4.303 4.303 0 0 1-1.195-3.041v-2.083a4.304 4.304 0 0 1 1.195-3.041 4.067 4.067 0 0 1 2.972-1.195 4.11 4.11 0 0 1 3.006 1.195 4.382 4.382 0 0 1 1.162 3.041v2.083a4.381 4.381 0 0 1-1.162 3.041 4.046 4.046 0 0 1-3.006 1.229 4.004 4.004 0 0 1-2.972-1.23zm5.227-3.143v-1.878q-.103-2.323-2.254-2.357-2.12.034-2.255 2.357v1.878q.136 2.358 2.255 2.392 2.152-.034 2.254-2.392h0zm195.6 1.775q.057.645.527.234 1.874-2.52 7.1-2.988a10.634 10.634 0 0 1 8.262 3.691 13.758 13.758 0 0 1 3.105 9.082 14.182 14.182 0 0 1-3.223 9.199 11.103 11.103 0 0 1-16.992.059 14.529 14.529 0 0 1-3.164-9.434v-18.398a13.012 13.012 0 0 1 3.164-8.789 11.143 11.143 0 0 1 8.613-3.691 11.882 11.882 0 0 1 7.559 2.578 10.687 10.687 0 0 1 3.75 6.914c.077.352-.117.527-.586.527h-3.457c-.392 0-.586-.234-.586-.703a7.686 7.686 0 0 0-2.051-3.633 6.742 6.742 0 0 0-4.687-1.523 6.841 6.841 0 0 0-5.391 2.344 9.082 9.082 0 0 0-1.934 5.977zm0 10.137a10.145 10.145 0 0 0 1.875 6.328 6.829 6.829 0 0 0 10.781 0 11.057 11.057 0 0 0 1.875-6.445 10.656 10.656 0 0 0-1.816-6.27 6.418 6.418 0 0 0-5.332-2.461q-7.326.47-7.383 8.848h0zm26.84 7.09q-.06.587.527.527h17.1q.643-.116.527.527v3.164c.077.43-.1.625-.527.586h-21.504c-.43.04-.606-.156-.527-.586v-3.223q.292-7.9 4.57-12.012a109.1 109.1 0 0 1 8.496-7.383 11.075 11.075 0 0 0 4.629-8.437 7.917 7.917 0 0 0-1.758-5.156 5.989 5.989 0 0 0-4.746-2.109 6.514 6.514 0 0 0-5.156 2.227 8.449 8.449 0 0 0-1.934 5.273c.038.547-.176.782-.645.703h-3.164q-.646.118-.527-.527a12.924 12.924 0 0 1 3.34-8.262 10.667 10.667 0 0 1 8.145-3.574 10.543 10.543 0 0 1 7.793 3.223 11.396 11.396 0 0 1 3.164 8.027q-.352 6.387-4.57 9.902l-8.496 7.1q-4.28 3.516-4.746 10.02h0zM705.92 246.4a4.427 4.427 0 0 1 1.162 3.074v2.118a4.425 4.425 0 0 1-1.162 3.074 4.246 4.246 0 0 1-5.978 0 4.346 4.346 0 0 1-1.195-3.074v-2.118a4.347 4.347 0 0 1 1.195-3.074 4.246 4.246 0 0 1 5.978 0zm-4.6 23.912h-1.503c-.273.022-.342-.1-.205-.342l14.074-23.946q.136-.4.444-.34h1.503q.375-.034.205.307l-14.108 23.946c-.092.273-.228.398-.4.376zm-.648-18.822q.135 2.4 2.254 2.425 2.152-.034 2.255-2.425v-1.913q-.103-2.4-2.255-2.425-2.118.034-2.254 2.425zm8.847 18.105a4.303 4.303 0 0 1-1.195-3.041v-2.083a4.304 4.304 0 0 1 1.195-3.041 4.068 4.068 0 0 1 2.973-1.195 4.111 4.111 0 0 1 3.006 1.195 4.381 4.381 0 0 1 1.161 3.041v2.083a4.381 4.381 0 0 1-1.161 3.041 4.046 4.046 0 0 1-3.006 1.229 4.005 4.005 0 0 1-2.973-1.23zm5.227-3.143v-1.878q-.103-2.323-2.254-2.357-2.12.034-2.255 2.357v1.878q.136 2.358 2.255 2.392 2.152-.034 2.254-2.392h0zm199.46.785q.057.645.527.234 1.874-2.52 7.1-2.988a10.634 10.634 0 0 1 8.262 3.691 13.758 13.758 0 0 1 3.105 9.082 14.182 14.182 0 0 1-3.223 9.199 11.103 11.103 0 0 1-16.992.059 14.529 14.529 0 0 1-3.164-9.434v-18.398a13.012 13.012 0 0 1 3.164-8.789 11.143 11.143 0 0 1 8.613-3.691 11.882 11.882 0 0 1 7.559 2.578 10.687 10.687 0 0 1 3.75 6.914c.077.352-.117.527-.586.527h-3.457c-.392 0-.586-.234-.586-.703a7.686 7.686 0 0 0-2.051-3.633 6.742 6.742 0 0 0-4.687-1.523 6.841 6.841 0 0 0-5.391 2.344 9.082 9.082 0 0 0-1.934 5.977zm0 10.137a10.145 10.145 0 0 0 1.875 6.328 6.829 6.829 0 0 0 10.781 0 11.058 11.058 0 0 0 1.875-6.445 10.656 10.656 0 0 0-1.816-6.27 6.418 6.418 0 0 0-5.332-2.461q-7.326.47-7.383 8.848h0zm32.995 8.906a7.07 7.07 0 0 0 5.332-2.402 8.427 8.427 0 0 0 1.992-5.742 9.507 9.507 0 0 0-2.344-6.68 8.248 8.248 0 0 0-6.094-2.344h-.703q-.587.06-.527-.586v-2.812q-.06-.644.527-.527h.352a7.84 7.84 0 0 0 5.742-2.285 8.274 8.274 0 0 0 2.227-5.977q-.352-6.2-6.094-6.563a6.011 6.011 0 0 0-4.16 1.582 7.283 7.283 0 0 0-2.168 4.629c0 .547-.196.782-.586.703h-3.164q-.703.118-.527-.586a11.644 11.644 0 0 1 3.34-7.441 10.468 10.468 0 0 1 14.766 0 10.926 10.926 0 0 1 3.047 7.676 10.367 10.367 0 0 1-1.992 6.328 11.127 11.127 0 0 1-4.102 3.398c-.313.196-.293.4.06.645a12.85 12.85 0 0 1 4.512 3.457q2.225 2.52 2.344 7.383a12.757 12.757 0 0 1-3.398 8.613 11.734 11.734 0 0 1-8.437 3.691 11.348 11.348 0 0 1-7.852-3.047 11.941 11.941 0 0 1-3.574-8.496q-.12-.352.527-.47h3.164c.43-.078.645.157.645.703q.527 6.855 7.148 7.148h0zm21.02-40.88a4.427 4.427 0 0 1 1.162 3.074v2.118a4.425 4.425 0 0 1-1.162 3.074 4.246 4.246 0 0 1-5.978 0 4.346 4.346 0 0 1-1.195-3.074v-2.118a4.347 4.347 0 0 1 1.195-3.074 4.246 4.246 0 0 1 5.978 0zm-4.6 23.912h-1.503c-.273.022-.342-.1-.205-.342l14.074-23.946q.136-.4.444-.34h1.503q.375-.034.205.307L964 268.946c-.092.273-.228.398-.4.376zm-.648-18.822q.135 2.4 2.254 2.425 2.152-.034 2.255-2.425v-1.913q-.103-2.4-2.255-2.425-2.118.034-2.254 2.425zm8.847 18.105a4.303 4.303 0 0 1-1.195-3.041v-2.083a4.304 4.304 0 0 1 1.195-3.041 4.068 4.068 0 0 1 2.973-1.195 4.111 4.111 0 0 1 3.006 1.195 4.381 4.381 0 0 1 1.161 3.041v2.083a4.38 4.38 0 0 1-1.161 3.041 4.046 4.046 0 0 1-3.006 1.229 4.005 4.005 0 0 1-2.973-1.23zm5.227-3.143v-1.878q-.103-2.323-2.254-2.357-2.12.034-2.255 2.357v1.878q.136 2.358 2.255 2.392 2.152-.034 2.254-2.392h0z" class="U"/><path d="M152.742 334.208a64.437 64.437 0 1 1 64.437-64.437 64.51 64.51 0 0 1-64.437 64.437zm0-123.873a59.437 59.437 0 1 0 59.437 59.437 59.504 59.504 0 0 0-59.437-59.437z" fill="url(#C)"/><circle cx="414.634" cy="269.771" r="61.937" class="V W X Z"/><path d="M479.07 269.77h-5a59.438 59.438 0 0 0-41.07-56.528l1.545-4.755a64.437 64.437 0 0 1 44.525 61.283z" fill="url(#D)"/><circle cx="676.525" cy="269.771" r="61.937" class="V W X Z"/><path d="M676.526 334.208a64.475 64.475 0 0 1-41.973-15.545l3.258-3.794a59.436 59.436 0 1 0 38.715-104.534v-5a64.437 64.437 0 1 1 0 128.873z" fill="url(#E)"/><path d="M938.417 334.208a64.676 64.676 0 0 1-46.973-20.327l3.645-3.423a59.437 59.437 0 1 0 43.328-100.123v-5a64.437 64.437 0 1 1 0 128.873z" fill="url(#F)"/><g stroke="#eee" class="V W X"><path d="M34 647.936h1"/><path d="M40.976 647.936h1001.036" class="d"/><path d="M1045 647.936h1"/></g><g stroke="#eee" class="V W X"><path d="M34 806.08h1"/><path d="M40.976 806.08h1001.036" class="d"/><path d="M1045 806.08h1"/></g><path d="M184.232 290.27a.546.546 0 0 1-.56-.56v-6.722a2.551 2.551 0 0 0-5.101-.02v6.742a.546.546 0 0 1-.56.56.563.563 0 0 1-.581-.56v-6.722a2.541 2.541 0 0 0-5.081-.02v6.742a.57.57 0 0 1-1.14 0v-9.502a.57.57 0 0 1 1.14 0v.12a3.636 3.636 0 0 1 2.541-1.021 3.711 3.711 0 0 1 3.121 1.7 3.693 3.693 0 0 1 6.801 1.96v6.742a.562.562 0 0 1-.58.56z" class="U"/></svg>