<svg xmlns="http://www.w3.org/2000/svg" xmlns:xlink="http://www.w3.org/1999/xlink" viewBox="0 0 1080 1080"><style><![CDATA[.W{fill:#fff}.X{opacity:.1}.Y{opacity:.3}.Z{fill:#c90d7d}.a{fill:#37af56}.b{fill:none}.c{stroke:#fff}.d{stroke-width:2}.e{stroke-miterlimit:10}]]></style><linearGradient id="A" gradientUnits="userSpaceOnUse" x1="11.75" y1="1068.25" x2="1068.25" y2="11.75"><stop offset="0"/><stop offset=".396" stop-color="#212121"/><stop offset=".772" stop-color="#3a3a3a"/><stop offset="1" stop-color="#434343"/></linearGradient><path d="M1080,1040c0,22-18,40-40,40H40c-22,0-40-18-40-40V40C0,18,18,0,40,0h1000c22,0,40,18,40,40V1040z" fill="url(#A)"/><g opacity=".6" class="W"><path d="M920.26 1046.357c-1.2 0-3.22-.42-3.922-1.58-.08-.12-.08-.22-.08-.3 0-.32.28-.602.58-.602.12 0 .32.102.44.28.72.88 2 1.06 2.98 1.06 1.94 0 2.92-.64 2.92-1.94 0-3.02-6.56-1.42-6.56-5.422 0-2.02 2.02-2.8 3.84-2.8 1.04 0 2.64.36 3.44 1.16a.56.56 0 0 1 .18.38.65.65 0 0 1-.621.6.53.53 0 0 1-.38-.16c-.62-.6-1.74-.84-2.62-.84-1.76 0-2.7.682-2.7 1.66 0 2.8 6.563 1.32 6.563 5.422 0 2.28-2 3.08-4.06 3.08zm10.72-.04c-3.22 0-5.02-2.64-5.02-5.662 0-3 1.8-5.64 5.02-5.64s5.02 2.64 5.02 5.64c0 3.02-1.8 5.662-5.02 5.662zm0-10.162c-2.36 0-3.88 1.9-3.88 4.5s1.52 4.52 3.88 4.52c2.38 0 3.88-1.92 3.88-4.52s-1.5-4.5-3.88-4.5z"/><use xlink:href="#O"/><path d="M954.718 1036.336a3.42 3.42 0 0 0-3.42 3.42v5.662c0 .36-.3.56-.56.56-.28 0-.58-.2-.58-.56v-9.502c0-.36.3-.56.58-.56.26 0 .56.2.56.56v.82c.898-.98 2.08-1.54 3.42-1.54.36 0 .58.3.58.56a.58.58 0 0 1-.58.58zm10.182 8.46c-.88.98-2.102 1.52-3.58 1.52-3.22 0-5.02-2.64-5.02-5.662 0-3 1.8-5.64 5.02-5.64 1.48 0 2.7.54 3.58 1.52a.54.54 0 0 1 .16.381.63.63 0 0 1-.58.6c-.14 0-.28-.06-.42-.2-.66-.74-1.58-1.16-2.74-1.16-2.36 0-3.88 1.9-3.88 4.5s1.52 4.52 3.88 4.52c1.16 0 2.08-.44 2.74-1.16.14-.14.28-.2.42-.2.3 0 .58.26.58.58 0 .14-.04.26-.16.398zm11.58-3.56h-8.3c.18 2.28 1.66 3.94 3.84 3.94 1.08 0 2.36-.48 2.94-1.38.14-.22.3-.28.48-.28.3 0 .62.24.62.54 0 .18 0 .22-.38.658-.92 1.082-2.26 1.602-3.66 1.602-3.22 0-5.02-2.64-5.02-5.662 0-3 1.8-5.64 5.02-5.64s5.02 2.66 5.02 5.64c0 .3-.28.58-.56.58zm-4.46-5.08c-2.4 0-3.66 1.84-3.84 3.94h7.7c-.18-2.28-1.66-3.94-3.86-3.94zm8.438 3.26c-.64 0-1.16-.5-1.16-1.14s.52-1.14 1.16-1.14c.62 0 1.12.5 1.12 1.14s-.5 1.14-1.12 1.14zm0 6.563c-.64 0-1.16-.5-1.16-1.14s.52-1.14 1.16-1.14c.62 0 1.12.5 1.12 1.14s-.5 1.14-1.12 1.14zm14.222.34c-4.402 0-5.822-3.7-5.822-7.46 0-3.742 1.42-7.482 5.822-7.482 1.8 0 3.38.64 4.44 2.18a.4.4 0 0 1 .12.32c0 .32-.3.56-.62.56-.28 0-.44-.24-.66-.52-.7-.9-1.76-1.4-3.28-1.4-3.02 0-4.682 2.32-4.682 6.342 0 3.04.96 6.32 4.682 6.32 3.16 0 4.54-2.42 4.68-5.74h-2.44a.57.57 0 0 1-.6-.58c0-.28.2-.58.56-.58h3.04c.34 0 .58.238.58.58 0 3.9-1.54 7.46-5.82 7.46zm18.52-.338h-.02c-.66 0-1.6-.36-1.98-1.56-.84 1.18-2.14 1.9-3.88 1.9-3.26 0-5.02-2.682-5.02-5.662 0-3.02 1.8-5.64 5.02-5.64 1.74 0 3.04.72 3.88 1.88v-.98c0-.32.26-.56.58-.56.28 0 .56.2.56.56v8.063c0 1.28 1.44.48 1.44 1.44a.55.55 0 0 1-.58.561zm-5.88-9.822c-2.36 0-3.88 1.9-3.88 4.5s1.52 4.52 3.88 4.52c2.38 0 3.88-1.92 3.88-4.52s-1.5-4.5-3.88-4.5z"/><use xlink:href="#P"/><use xlink:href="#P" x="4.379"/><use xlink:href="#O" x="85.978"/><path d="M1041.158 1046.318c-1.74 0-3.04-.72-3.88-1.9v5.182c0 .36-.3.58-.56.58a.58.58 0 0 1-.58-.58v-13.684c0-.36.3-.56.58-.56.26 0 .56.2.56.56v.98c.84-1.16 2.14-1.88 3.88-1.88 3.22 0 5.02 2.64 5.02 5.64 0 3.02-1.8 5.662-5.02 5.662zm0-10.162c-2.38 0-3.88 1.9-3.88 4.5s1.5 4.52 3.88 4.52 3.88-1.92 3.88-4.52-1.502-4.5-3.88-4.5z"/></g><g class="W Y"><path d="M42.328 1046.045c-3.568 0-5.47-1.97-5.503-2.002 0 .935-.7 1.4-1.468 1.4-.7 0-1.4-.467-1.4-1.4v-20.88a1.35 1.35 0 0 1 1.401-1.434c.767 0 1.468.467 1.468 1.4v6.238c1.334-1.368 3.168-2.17 5.503-2.17 5.37 0 8.373 4.403 8.373 9.406 0 5.037-3.002 9.44-8.373 9.44zm0-16c-3.335 0-5.503 2.602-5.503 6.57 0 4.003 2.168 6.604 5.503 6.604s5.504-2.602 5.504-6.604c0-3.97-2.168-6.57-5.504-6.57zm25.555 8.037h-12.34c.467 3.136 2.468 5.137 5.403 5.137 1.5 0 3.002-.533 3.97-1.734.3-.333.634-.533 1.034-.533.734 0 1.5.667 1.5 1.468 0 .4-.1.7-.8 1.4-1.5 1.468-3.57 2.235-5.704 2.235-5.37 0-8.372-4.437-8.372-9.44 0-4.97 3.002-9.406 8.372-9.406 5.437 0 8.34 4.437 8.34 9.406 0 .734-.534 1.468-1.4 1.468zm-6.937-8.038c-3.136 0-4.97 2.3-5.403 5.17H66.35c-.467-3.202-2.468-5.17-5.403-5.17zM88 1045.478c-1.834 0-2.668-1.3-2.97-1.9-1.334 1.468-3.27 2.47-5.87 2.47-5.437 0-8.372-4.47-8.372-9.44s3.002-9.406 8.372-9.406c2.335 0 4.203.834 5.504 2.202v-.134c0-.367.133-1.5 1.4-1.5.7 0 1.468.367 1.468 1.4v12.875c0 .434.3.6.467.6.935 0 1.435.667 1.435 1.434a1.37 1.37 0 0 1-1.435 1.401zm-8.84-15.443c-3.336 0-5.504 2.602-5.504 6.57 0 4.003 2.168 6.604 5.504 6.604 3.37 0 5.504-2.602 5.504-6.604 0-3.97-2.135-6.57-5.504-6.57z"/><use xlink:href="#Q"/><path d="M115.158 1045.478h-.567c-3.17 0-4.37-1.668-4.37-4.403V1030.6h-1c-.8 0-1.435-.634-1.435-1.4 0-.8.634-1.435 1.4-1.435h1v-4.637c0-.934.7-1.4 1.435-1.4s1.4.467 1.4 1.4v4.637h2.135c.934 0 1.4.768 1.4 1.4 0 .8-.533 1.434-1.4 1.434h-2.135v10.774c0 .934.333 1.268 1.268 1.268h.833c.868 0 1.435.634 1.435 1.4 0 .8-.533 1.435-1.4 1.435zm4.604-20.415a2.402 2.402 0 1 1 0-4.803 2.402 2.402 0 1 1 0 4.803zm0 20.414c-.733 0-1.467-.5-1.467-1.4V1029.2c0-.935.733-1.435 1.467-1.435a1.37 1.37 0 0 1 1.401 1.435v14.876c0 .935-.7 1.4-1.4 1.4zm10.376-14.877h-1.5v13.442c0 .935-.7 1.4-1.468 1.4-.7 0-1.4-.467-1.4-1.4V1030.6h-1.37c-.9 0-1.4-.667-1.4-1.4 0-.768.5-1.435 1.4-1.435h1.367v-2.27c0-2.135 1.77-3.77 3.836-3.77.968 0 1.468.667 1.468 1.434 0 .7-.5 1.4-1.468 1.4-.566 0-.967.434-.967.9v2.302h1.5c.967 0 1.468.667 1.468 1.435 0 .733-.5 1.4-1.468 1.4z"/><use xlink:href="#Q" x="42.068"/><path d="M154.725 1045.544c-1.802 0-3.336-1.534-3.336-3.402v-18.98c0-.967.7-1.434 1.435-1.434s1.435.467 1.435 1.4v19.013c0 .4.3.567.467.567.934 0 1.435.667 1.435 1.435 0 .733-.5 1.4-1.435 1.4zm15.37-.066v-1.264c1.886-.237 2.046-.437 2.046-3.157v-6.7c0-2.8-1.248-4.017-3.064-4.017-1.237 0-2.345.6-3.47 1.493v9.476c0 2.527.187 2.658 2.06 2.896v1.264h-8.968v-1.264c2.254-.33 2.5-.4 2.5-3v-8.2c0-2.446-.303-2.565-2.185-2.922v-1.184c2.173-.292 4.63-.807 6.653-1.533l-.052 2.95 2.6-1.745c1.16-.713 2-1.086 3.16-1.086 3.194 0 5.2 2.338 5.2 6.3v7.5c0 2.54.237 2.657 2.277 2.92v1.264h-8.74zm23.9-3.703c-2.458 3.427-5.488 4.178-7.014 4.178-5.142 0-8.124-3.936-8.124-8.594 0-2.745 1.183-5.396 2.832-7.062 1.74-1.8 3.945-2.814 6.082-2.814 3.73 0 6.396 3.126 6.37 6.347-.014.715-.08 1.277-.612 1.4-.767.184-6.17.5-10.318.647.062 4.587 2.717 6.74 5.556 6.74 1.572 0 3.104-.597 4.543-1.866l.686 1.014zm-7.07-12.7c-1.667 0-3.167 1.807-3.516 4.963l5.486-.118c.6-.026.848-.146.848-.792.04-2.022-1.037-4.053-2.818-4.053zm34.284.145c-1.943.343-2.248.624-3.105 2.765-1.33 3.462-3.102 8.53-4.934 13.94h-1.512l-4.65-11.46-4.55 11.46h-1.472l-4.685-14.192c-.687-1.985-.94-2.274-2.855-2.512v-1.25h9.397v1.25c-2.325.345-2.535.672-2.058 2.133l2.52 8.214c1.507-3.68 2.988-7.62 4.327-11.424h1.456c1.4 3.76 2.986 7.702 4.573 11.568.742-2.107 2.062-5.964 2.557-8.108.412-1.674-.008-2.078-2.753-2.383v-1.25h7.742v1.25zm9.4 3.746c-.92-2.606-2.155-3.984-4.2-3.984-1.206 0-2.225.86-2.225 2.266 0 1.497 1.046 2.264 3.16 3.216 3.278 1.496 5.3 2.787 5.3 5.736 0 3.85-3.6 5.764-6.945 5.764-2.06 0-4.088-.737-4.92-1.16l-.662-4.892 1.252-.224c.8 2.5 2.33 4.75 4.976 4.75 1.505 0 2.438-.952 2.438-2.28 0-1.423-.76-2.333-3.092-3.467-2.67-1.295-5.107-2.64-5.107-5.775 0-3.046 2.533-5.42 6.565-5.42 1.818 0 3.242.396 4.112.567l.62 4.577-1.25.328z"/></g><g class="W"><path d="M901.476 649.07l.235 48.26.492-.012c36.865 0 66.75 29.885 66.75 66.75 0 36.812-29.8 66.66-66.592 66.746l.235 48.253c62.96-.307 113.748-52.042 113.438-115.554s-51.6-114.75-114.56-114.443zM831.15 764.068c0-36.6 29.46-66.303 65.957-66.73l-.235-48.198c-62.96.307-113.748 52.042-113.438 115.554s51.6 114.75 114.56 114.443l-.235-48.324c-36.8-.078-66.607-29.93-66.607-66.746z" class="X"/><use xlink:href="#R" class="X"/><use xlink:href="#S" class="X"/><path d="M830.982 362.107c0-36.764 29.723-66.58 66.45-66.742v-48.258c-62.96 0-114 51.487-114 115s51.04 115 114 115V428.85c-36.726-.163-66.45-29.978-66.45-66.742z" class="X"/><use xlink:href="#S" x="719.432" class="X"/></g><linearGradient id="B" gradientUnits="userSpaceOnUse" x1="150.033" y1="847.139" x2="288.493" y2="708.679"><stop offset="0" stop-color="#ecd452"/><stop offset=".103" stop-color="#ebcd54"/><stop offset=".257" stop-color="#e7b858"/><stop offset=".442" stop-color="#e1975f"/><stop offset=".652" stop-color="#d96969"/><stop offset=".879" stop-color="#cf2f76"/><stop offset="1" stop-color="#c90d7d"/></linearGradient><path d="M227.617 658.692l-18.746 43.32c24.693 9.792 42.165 33.876 42.165 62.055 0 36.865-29.885 66.75-66.75 66.75-.767 0-1.525-.032-2.285-.058v48.347c62.96 0 114-51.487 114-115 0-47.15-28.132-87.664-68.383-105.414z" fill="url(#B)"/><path d="M182 649.106v48.268l2.285-.058c36.865 0 66.75 29.885 66.75 66.75s-29.885 66.75-66.75 66.75c-.767 0-1.525-.032-2.285-.058v48.347c62.96 0 114-51.487 114-115s-51.04-115-114-115zm-69.893 114.962c0-36.375 29.1-65.933 65.288-66.713v-48.248c-62.96 0-114 51.487-114 115s51.04 115 114 115V830.78c-36.187-.78-65.288-30.338-65.288-66.713z" class="X W"/><linearGradient id="C" gradientUnits="userSpaceOnUse" x1="78.801" y1="700.779" x2="217.262" y2="839.24"><stop offset="0" stop-color="#37af56"/><stop offset="1" stop-color="#ecff52"/></linearGradient><path d="M112.107 764.068c0-32.09 22.647-58.88 52.827-65.285l-9.083-47.616c-52.658 10.162-92.456 56.86-92.456 112.94 0 63.513 51.04 115 114 115V830.78c-36.187-.78-65.288-30.338-65.288-66.713z" fill="url(#C)"/><path d="M141.096 776.1h-8.607c-.736 0-1.408-.672-1.408-1.344v-20.062c0-.768.576-1.376 1.345-1.376h7.935c3.265 0 5.983 2.688 5.983 5.92 0 1.728-.703 3.2-1.824 4.256 2.05 1.15 3.36 3.327 3.36 5.823a6.83 6.83 0 0 1-6.783 6.783zm-.736-20.062h-6.527v6.464h6.527c2.048 0 3.23-1.728 3.23-3.23 0-1.76-1.44-3.232-3.23-3.232zm.736 9.184h-7.264v8.16h7.264c2.176 0 4.032-1.888 4.032-4.063 0-2.24-1.856-4.096-4.032-4.096zM165 776.1c-1.76 0-2.56-1.248-2.848-1.823-1.28 1.407-3.137 2.367-5.633 2.367-5.215 0-8.03-4.287-8.03-9.055s2.88-9.023 8.03-9.023c2.24 0 4.032.8 5.28 2.1v-.128c0-.352.128-1.44 1.344-1.44.673 0 1.408.352 1.408 1.344v12.35c0 .416.288.576.448.576.896 0 1.375.64 1.375 1.376 0 .672-.48 1.344-1.375 1.344zm-8.48-14.814c-3.2 0-5.28 2.495-5.28 6.304 0 3.84 2.08 6.335 5.28 6.335 3.232 0 5.28-2.496 5.28-6.335 0-3.8-2.048-6.304-5.28-6.304zm24.128 14.814c-.705 0-1.345-.48-1.345-1.344v-8.896a4.62 4.62 0 0 0-4.575-4.575c-2.464 0-4.544 2.08-4.544 4.575v8.863c0 .896-.672 1.408-1.407 1.408-.673 0-1.345-.48-1.345-1.376v-20.062c0-.928.672-1.376 1.345-1.376.735 0 1.407.448 1.407 1.344v5.536c1.185-1.12 2.784-1.632 4.544-1.632 3.967 0 7.295 3.296 7.295 7.295v8.863c0 .897-.64 1.376-1.375 1.376zm11.008-14.804c-2.464 0-4.544 2.08-4.544 4.575v8.863c0 .896-.672 1.376-1.407 1.376-.673 0-1.345-.48-1.345-1.344v-14.27c0-.896.736-1.376 1.345-1.376.64 0 1.247.352 1.375 1.088a7.4 7.4 0 0 1 4.576-1.632c.928 0 1.408.64 1.408 1.376 0 .703-.48 1.344-1.408 1.344zm16.377 14.804c-1.76 0-2.56-1.248-2.848-1.823-1.28 1.407-3.136 2.367-5.632 2.367-5.216 0-8.03-4.287-8.03-9.055s2.88-9.023 8.03-9.023c2.24 0 4.032.8 5.28 2.1v-.128c0-.352.127-1.44 1.344-1.44.672 0 1.408.352 1.408 1.344v12.35c0 .416.287.576.447.576.896 0 1.376.64 1.376 1.376 0 .672-.48 1.344-1.376 1.344zm-8.48-14.814c-3.2 0-5.28 2.495-5.28 6.304 0 3.84 2.08 6.335 5.28 6.335 3.23 0 5.28-2.496 5.28-6.335 0-3.8-2.05-6.304-5.28-6.304zm12.384-4.758c-1.28 0-2.303-1.024-2.303-2.304s1.023-2.305 2.303-2.305 2.305 1.024 2.305 2.305-1.024 2.304-2.305 2.304zm0 19.582c-.703 0-1.408-.48-1.408-1.344v-14.27c0-.896.705-1.376 1.408-1.376.672 0 1.344.48 1.344 1.376v14.27c0 .896-.672 1.344-1.344 1.344zm17.3-.01c-.703 0-1.344-.48-1.344-1.344v-8.896a4.62 4.62 0 0 0-4.576-4.575c-2.463 0-4.543 2.08-4.543 4.575v8.863c0 .896-.672 1.408-1.408 1.408-.672 0-1.344-.48-1.344-1.376v-14.303c0-.928.672-1.344 1.344-1.344.64 0 1.217.352 1.376 1.056 1.248-.992 2.815-1.6 4.575-1.6 3.97 0 7.297 3.296 7.297 7.295v8.863c0 .896-.64 1.376-1.377 1.376z" class="W"/><linearGradient id="D" gradientUnits="userSpaceOnUse" x1="518.784" y1="855.748" x2="657.243" y2="717.288"><stop offset="0" stop-color="#ecd452"/><stop offset=".103" stop-color="#ebcd54"/><stop offset=".257" stop-color="#e7b858"/><stop offset=".442" stop-color="#e1975f"/><stop offset=".652" stop-color="#d96969"/><stop offset=".879" stop-color="#cf2f76"/><stop offset="1" stop-color="#c90d7d"/></linearGradient><path d="M609.533 671.35L581.4 710.087c16.664 12.136 27.503 31.787 27.503 53.98 0 36.865-29.885 66.75-66.75 66.75v48.3c62.96 0 114-51.487 114-115a115.15 115.15 0 0 0-46.609-92.755z" fill="url(#D)"/><path d="M542.142 649.106v48.2c36.865 0 66.75 29.885 66.75 66.75s-29.885 66.75-66.75 66.75v48.3c62.96 0 114-51.487 114-115s-51.04-115-114-115zm-4.866 181.71c-36.865 0-66.75-29.885-66.75-66.75s29.885-66.75 66.75-66.75c.088 0 .174.006.26.007v-48.218c-62.96 0-114 51.487-114 115s51.04 115 114 115V830.8c-.088 0-.174.007-.26.007z" class="X W"/><linearGradient id="E" gradientUnits="userSpaceOnUse" x1="424.939" y1="714.776" x2="563.404" y2="853.241"><stop offset="0" stop-color="#37af56"/><stop offset="1" stop-color="#ecff52"/></linearGradient><path d="M537.276 830.817c-36.865 0-66.75-29.885-66.75-66.75 0-23.776 12.44-44.633 31.157-56.458l-25.618-40.368a115.15 115.15 0 0 0-52.528 96.865c0 63.513 51.04 115 114 115V830.81c-.088 0-.174.007-.26.007z" fill="url(#E)"/><path d="M515.992 776.658c-2.336 0-5.6-.96-7.424-2.656a1.28 1.28 0 0 1-.447-.992c0-.735.607-1.375 1.375-1.375.48 0 .64.16 1.217.607 1.568 1.184 3.424 1.696 5.28 1.696 3.808 0 5.472-1.376 5.472-3.744 0-6.655-12.767-2.88-12.767-11.583 0-3.903 3.295-5.855 7.52-5.855 2.207 0 5.375.864 6.943 2.72.256.288.352.576.352.864 0 .768-.704 1.44-1.376 1.44-.48 0-.735-.224-1.28-.704-1.28-1.088-2.9-1.567-4.64-1.567-3.456 0-4.768 1.376-4.768 3.104 0 5.983 12.767 2.432 12.767 11.583 0 4.768-4 6.464-8.224 6.464zm23.328-15.615l-8.64 19.646c-.64 1.472-2.047 2.145-3.52 2.145h-1.023c-.928 0-1.344-.673-1.344-1.408 0-.672.416-1.344 1.344-1.344h.992c.416 0 .863-.064 1.056-.513l2.112-4.735-6.24-13.8c-.128-.224-.16-.416-.16-.607 0-.8.768-1.345 1.473-1.345.48 0 .896.257 1.15.832l5.216 11.583 5.088-11.583c.256-.575.735-.8 1.184-.8.736 0 1.472.544 1.472 1.313a1.08 1.08 0 0 1-.16.607zm8.5.257c-2.463 0-4.543 2.08-4.543 4.576v8.863c0 .896-.672 1.376-1.408 1.376-.672 0-1.344-.48-1.344-1.344V760.5c0-.896.736-1.376 1.344-1.376.64 0 1.248.353 1.376 1.088a7.4 7.4 0 0 1 4.575-1.632c.928 0 1.408.64 1.408 1.376 0 .704-.48 1.344-1.408 1.344zm2.818-4.77c-1.28 0-2.304-1.023-2.304-2.304s1.024-2.304 2.304-2.304 2.304 1.023 2.304 2.304-1.024 2.304-2.304 2.304zm0 19.583c-.704 0-1.408-.48-1.408-1.344V760.5c0-.896.704-1.376 1.408-1.376.672 0 1.344.48 1.344 1.376v14.27c0 .896-.672 1.344-1.344 1.344zm19.872.001c-1.76 0-2.56-1.248-2.848-1.824-1.28 1.408-3.137 2.368-5.633 2.368-5.215 0-8.03-4.288-8.03-9.056s2.88-9.023 8.03-9.023c2.24 0 4.032.8 5.28 2.112v-.128c0-.353.128-1.44 1.344-1.44.673 0 1.408.353 1.408 1.344v12.352c0 .416.288.576.448.576.896 0 1.375.64 1.375 1.376 0 .672-.48 1.344-1.375 1.344zm-8.48-14.815c-3.2 0-5.28 2.496-5.28 6.304 0 3.84 2.08 6.336 5.28 6.336 3.232 0 5.28-2.496 5.28-6.336 0-3.808-2.048-6.304-5.28-6.304z" class="W"/><linearGradient id="F" gradientUnits="userSpaceOnUse" x1="880.025" y1="856.496" x2="1018.204" y2="718.317"><stop offset="0" stop-color="#ecd452"/><stop offset=".103" stop-color="#ebcd54"/><stop offset=".257" stop-color="#e7b858"/><stop offset=".442" stop-color="#e1975f"/><stop offset=".652" stop-color="#d96969"/><stop offset=".879" stop-color="#cf2f76"/><stop offset="1" stop-color="#c90d7d"/></linearGradient><path d="M971.848 673.155l-29.102 37.898c15.927 12.2 26.207 31.4 26.207 53.013 0 36.812-29.8 66.66-66.592 66.746l.235 48.253c62.96-.307 113.748-52.042 113.438-115.554-.18-36.776-17.453-69.436-44.187-90.357z" fill="url(#F)"/><linearGradient id="G" gradientUnits="userSpaceOnUse" x1="789.553" y1="710.087" x2="928.297" y2="848.832"><stop offset="0" stop-color="#37af56"/><stop offset="1" stop-color="#ecff52"/></linearGradient><path d="M831.15 764.068c0-26.42 15.354-49.253 37.623-60.07L848.03 660.47c-38.402 18.653-64.82 58.366-64.597 104.224.31 63.512 51.6 114.75 114.56 114.443l-.235-48.324c-36.8-.078-66.607-29.93-66.607-66.746z" fill="url(#G)"/><path d="M877.76 776.238l-13.3.064c-.768.004-1.4-.6-1.414-1.336l-.098-20.062c-.004-.77.633-1.38 1.4-1.383l13.312-.065a1.29 1.29 0 0 1 1.351 1.337c.003.672-.474 1.38-1.338 1.383l-11.967.06.03 6.463 8.384-.04c.8-.004 1.38.634 1.382 1.37s-.537 1.38-1.37 1.383l-8.383.04.04 8.128 11.968-.06c.864-.004 1.347.665 1.35 1.37a1.29 1.29 0 0 1-1.338 1.35zm9.667 7.248c-1.952.01-6.787-.67-6.797-2.6-.004-.736.665-1.443 1.37-1.447.736-.003.096.096 1.795.728.77.284 1.924.6 3.62.6 3.552-.018 5.27-1.722 5.255-5.082l-.007-1.44c-1.242 1.2-3.03 1.935-5.27 1.945-5.056.025-8.05-3.545-8.073-8.473-.023-4.8 2.836-9.037 7.988-9.062 2.24-.01 3.97.653 5.3 2.023v-.13c-.004-.896.73-1.38 1.37-1.383.672-.003 1.38.474 1.383 1.37l.073 15.135c.024 5.088-3.002 7.8-7.993 7.814zm-.108-22.1c-3.2.016-5.267 2.52-5.25 6.33.02 3.647 1.95 5.782 5.3 5.766s5.27-2.17 5.25-5.817c-.02-3.808-2.08-6.293-5.3-6.277zm24.51-.374l-8.544 19.688c-.633 1.475-2.038 2.154-3.5 2.162l-1.024.004c-.928.006-1.347-.665-1.35-1.4-.004-.672.4-1.346 1.338-1.352l.992-.004c.415-.002.862-.068 1.053-.518l2.088-4.746-6.306-13.76a1.16 1.16 0 0 1-.163-.607c-.004-.8.762-1.348 1.465-1.352.48-.002.898.252 1.156.826l5.27 11.558 5.03-11.607c.254-.577.732-.804 1.18-.806.735-.004 1.474.537 1.478 1.305a1.08 1.08 0 0 1-.156.609zm9.324 15.568c-2.24.01-4.004-.75-5.3-2.087l.034 6.943c.004.896-.666 1.38-1.4 1.383-.672.004-1.347-.473-1.35-1.37l-.104-21c-.004-.896.666-1.38 1.338-1.383.736-.003 1.4.474 1.414 1.37 0 0 1.88-1.96 5.27-1.977 5.15-.025 8.05 4.184 8.074 8.983.024 4.864-2.835 9.102-7.986 9.127zm-.075-15.392c-3.168.016-5.268 2.554-5.25 6.33.02 3.84 2.1 6.357 5.3 6.342s5.268-2.52 5.248-6.36c-.018-3.8-2.1-6.326-5.3-6.3zm15.4 14.775l-.544.002c-3.04.015-4.2-1.58-4.212-4.203l-.05-10.047-.96.004c-.768.004-1.38-.602-1.383-1.337-.004-.77.602-1.38 1.338-1.382l.96-.006-.02-4.447c-.004-.896.666-1.347 1.37-1.35s1.346.44 1.35 1.336l.022 4.448 2.047-.01c.896-.005 1.348.73 1.35 1.337.004.768-.505 1.38-1.337 1.383l-2.048.01.05 10.336c.005.896.326 1.214 1.223 1.2l.8-.004c.83-.004 1.378.602 1.382 1.338.004.768-.505 1.378-1.337 1.383z" class="W"/><path d="M196.437 517.57c-1.876 0-4.004-1.008-5.04-2.66a1.24 1.24 0 0 1-.196-.672c0-.645.56-1.148 1.205-1.148.53 0 .728.196 1.147.756.7.868 1.792 1.344 2.884 1.344 1.932 0 3.893-1.764 3.893-4.284 0-2.548-1.96-4.312-3.893-4.312-1.484 0-2.492.756-2.968 1.568-.224.42-.616.644-1.093.644-.728 0-1.203-.476-1.203-1.4v-8.876c0-.644.56-1.176 1.203-1.176h8.513c.812 0 1.23.56 1.23 1.204 0 .588-.392 1.176-1.176 1.176h-7.392v5.236c.672-.476 1.735-.756 2.884-.756 3.443 0 6.27 2.912 6.27 6.692 0 3.724-2.828 6.664-6.272 6.664zm13.607.198c-2.156 0-4.06-1.12-5.096-2.855a1.22 1.22 0 0 1-.196-.645c0-.672.588-1.176 1.23-1.176a1.13 1.13 0 0 1 1.01.56c.616 1.064 1.735 1.736 3.024 1.736 2.1 0 3.836-1.736 3.836-3.78a3.84 3.84 0 0 0-3.81-3.836h-.027c-.73 0-1.177-.56-1.177-1.176s.476-1.204 1.204-1.204c1.708 0 3.08-1.316 3.08-3.08 0-1.68-1.372-3.052-3.08-3.052-2.716 0-2.744 2.744-4.2 2.744-.644 0-1.26-.504-1.26-1.176a1.23 1.23 0 0 1 .196-.672c.672-1.036 2.352-3.304 5.264-3.304a5.47 5.47 0 0 1 5.46 5.46c0 1.708-.728 3.192-1.987 4.2 1.623 1.12 2.715 2.94 2.715 5.068a6.19 6.19 0 0 1-6.187 6.188zm9.794-14.695c-1.42 0-2.58-1.3-2.58-2.874s1.158-2.857 2.58-2.857c1.404 0 2.563 1.274 2.563 2.857s-1.16 2.874-2.563 2.874zm0-4.343c-.522 0-1.176.522-1.176 1.47s.653 1.47 1.176 1.47 1.175-.522 1.175-1.47-.652-1.47-1.175-1.47zm6.808-.8l-3.004 10.8c-.08.36-.36.522-.637.522-.375 0-.734-.26-.734-.686 0-.05 0-.13.017-.196l3.02-10.825c.098-.343.375-.506.652-.506.344 0 .72.245.72.653 0 .082-.016.147-.033.23zm2.318 11.037c-1.403 0-2.562-1.3-2.562-2.874 0-1.567 1.16-2.857 2.563-2.857 1.42 0 2.58 1.3 2.58 2.857 0 1.584-1.16 2.874-2.58 2.874zm0-4.343c-.506 0-1.158.522-1.158 1.47 0 .963.652 1.486 1.158 1.486.523 0 1.176-.522 1.176-1.486 0-.947-.652-1.47-1.176-1.47z" class="Z"/><g class="a"><path d="M133.716 517.768c-5.908 0-6.384-6.02-6.384-10.444 0-5.236 1.147-10.472 6.384-10.472 2.353 0 4.032 1.036 5.18 2.8.196.252.252.476.252.728 0 .644-.588 1.148-1.23 1.148-.364 0-.73-.168-1.008-.56-.73-1.092-1.68-1.708-3.192-1.708-2.66 0-3.892 2.38-3.976 7.728a5.79 5.79 0 0 1 3.976-1.596c3.36 0 6.02 2.912 6.02 6.188s-2.66 6.188-6.02 6.188zm0-9.996c-1.932 0-3.556 1.68-3.668 3.864.364 2.184 1.512 3.752 3.668 3.752 1.932 0 3.612-1.736 3.612-3.808s-1.68-3.808-3.612-3.808z"/><use xlink:href="#T"/><path d="M157.285 503.073c-1.42 0-2.58-1.3-2.58-2.874s1.16-2.857 2.58-2.857c1.404 0 2.563 1.274 2.563 2.857s-1.16 2.874-2.563 2.874zm0-4.343c-.522 0-1.176.522-1.176 1.47s.653 1.47 1.176 1.47 1.176-.522 1.176-1.47-.653-1.47-1.176-1.47zm6.81-.8l-3.004 10.81c-.082.36-.36.522-.637.522-.376 0-.735-.26-.735-.686 0-.05 0-.13.017-.196l3.02-10.825c.098-.343.376-.506.653-.506.343 0 .718.245.718.653 0 .082-.016.147-.032.23zm2.318 11.037c-1.404 0-2.563-1.3-2.563-2.874 0-1.567 1.16-2.857 2.563-2.857 1.42 0 2.58 1.3 2.58 2.857 0 1.584-1.16 2.874-2.58 2.874zm0-4.343c-.506 0-1.16.522-1.16 1.47 0 .963.653 1.486 1.16 1.486.522 0 1.176-.522 1.176-1.486 0-.947-.653-1.47-1.176-1.47z"/></g><path d="M180.053 497.107v20.85" class="Y b c d e"/><path d="M556.444 517.57c-1.876 0-4.004-1.008-5.04-2.66a1.24 1.24 0 0 1-.195-.672c0-.645.56-1.148 1.203-1.148.532 0 .73.196 1.148.756.7.868 1.792 1.344 2.884 1.344 1.933 0 3.892-1.764 3.892-4.284 0-2.548-1.96-4.312-3.892-4.312-1.483 0-2.5.756-2.968 1.568-.225.42-.616.644-1.092.644-.73 0-1.204-.476-1.204-1.4v-8.876c0-.644.56-1.176 1.204-1.176h8.512c.813 0 1.232.56 1.232 1.204 0 .588-.393 1.176-1.177 1.176h-7.392v5.236c.672-.476 1.736-.756 2.884-.756 3.444 0 6.272 2.912 6.272 6.692 0 3.724-2.828 6.664-6.272 6.664zm14.56.198c-2.324 0-4.004-1.008-5.152-2.77-.195-.252-.28-.477-.28-.73 0-.644.615-1.147 1.26-1.147.336 0 .728.14.98.53.728 1.12 1.708 1.736 3.192 1.736 2.688 0 3.892-2.408 4.004-7.728-.924.896-2.38 1.596-4.004 1.596-3.332 0-5.992-2.912-5.992-6.188 0-3.304 2.66-6.216 5.992-6.216 5.908 0 6.384 6.048 6.384 10.444 0 5.236-1.147 10.472-6.384 10.472zm0-18.508c-1.904 0-3.612 1.708-3.612 3.808 0 2.072 1.708 3.78 3.612 3.78 1.96 0 3.584-1.652 3.668-3.864-.336-2.156-1.484-3.724-3.668-3.724z" class="Z"/><g class="a"><use xlink:href="#T" x="362.549"/><path d="M528.605 499.932l-6.44 16.604c-.224.56-.56.784-1.036.784-.615 0-1.26-.477-1.26-1.176 0-.168.056-.31.112-.477l6.104-15.932h-7.476a1.15 1.15 0 0 1-1.176-1.204c0-.644.53-1.176 1.176-1.176h9.212c.616 0 1.23.392 1.23 1.204 0 .336-.363 1.092-.447 1.372z"/></g><path d="M540.06 497.107v20.85" class="Y b c d e"/><path d="M915.986 517.57c-1.877 0-4.004-1.008-5.04-2.66a1.25 1.25 0 0 1-.195-.672c0-.645.56-1.148 1.204-1.148.532 0 .728.196 1.147.756.7.868 1.793 1.344 2.885 1.344 1.932 0 3.892-1.764 3.892-4.284 0-2.548-1.96-4.312-3.892-4.312-1.484 0-2.492.756-2.97 1.568-.224.42-.615.644-1.092.644-.73 0-1.203-.476-1.203-1.4v-8.876c0-.644.56-1.176 1.203-1.176h8.512c.813 0 1.232.56 1.232 1.204 0 .588-.393 1.176-1.176 1.176H913.1v5.236c.672-.476 1.736-.756 2.885-.756 3.443 0 6.27 2.912 6.27 6.692 0 3.724-2.828 6.664-6.27 6.664zm14.8.198c-5.908 0-6.384-6.02-6.384-10.444 0-5.236 1.147-10.472 6.384-10.472 2.353 0 4.032 1.036 5.18 2.8a1.09 1.09 0 0 1 .252.728c0 .644-.588 1.148-1.23 1.148-.364 0-.728-.168-1.008-.56-.728-1.092-1.68-1.708-3.192-1.708-2.66 0-3.892 2.38-3.976 7.728a5.79 5.79 0 0 1 3.976-1.596c3.36 0 6.02 2.912 6.02 6.188s-2.66 6.188-6.02 6.188zm0-9.996c-1.932 0-3.556 1.68-3.668 3.864.364 2.184 1.512 3.752 3.668 3.752 1.932 0 3.612-1.736 3.612-3.808s-1.68-3.808-3.612-3.808z" class="Z"/><path d="M869.6 517.768c-5.908 0-6.385-6.02-6.385-10.444 0-5.236 1.148-10.472 6.385-10.472 2.352 0 4.03 1.036 5.18 2.8a1.1 1.1 0 0 1 .252.728c0 .644-.588 1.148-1.232 1.148-.363 0-.728-.168-1.008-.56-.728-1.092-1.68-1.708-3.2-1.708-2.66 0-3.893 2.38-3.977 7.728a5.79 5.79 0 0 1 3.977-1.596c3.36 0 6.02 2.912 6.02 6.188s-2.66 6.188-6.02 6.188zm0-9.996c-1.932 0-3.557 1.68-3.668 3.864.363 2.184 1.512 3.752 3.668 3.752 1.932 0 3.6-1.736 3.6-3.808s-1.68-3.808-3.6-3.808zm18.534-7.84l-6.44 16.604c-.225.56-.56.784-1.036.784-.616 0-1.26-.477-1.26-1.176 0-.168.056-.3.112-.477l6.104-15.932h-7.477a1.15 1.15 0 0 1-1.176-1.204c0-.644.532-1.176 1.176-1.176h9.213c.615 0 1.23.392 1.23 1.204 0 .336-.364 1.092-.448 1.372z" class="a"/><path d="M899.602 497.107v20.85" class="Y b c d e"/><g class="Z"><use xlink:href="#U"/><use xlink:href="#V"/></g><path d="M147.747 919.8c-2.324 0-4.004-1.008-5.152-2.77-.195-.252-.28-.477-.28-.73 0-.644.616-1.147 1.26-1.147.336 0 .728.14.98.53.73 1.12 1.708 1.736 3.192 1.736 2.688 0 3.892-2.408 4.004-7.728-.924.896-2.38 1.596-4.004 1.596-3.332 0-5.992-2.912-5.992-6.188 0-3.304 2.66-6.216 5.992-6.216 5.908 0 6.384 6.048 6.384 10.444 0 5.236-1.147 10.472-6.384 10.472zm0-18.508c-1.904 0-3.612 1.708-3.612 3.808 0 2.072 1.708 3.78 3.612 3.78 1.96 0 3.584-1.65 3.668-3.864-.336-2.155-1.484-3.724-3.668-3.724zm19.823 14.67h-1.204v2.185c0 .756-.644 1.176-1.204 1.176-.588 0-1.204-.42-1.204-1.176v-2.185h-6.7c-.784 0-1.26-.476-1.26-1.12a1.13 1.13 0 0 1 .168-.616l7.728-14.7c.224-.448.645-.645 1.008-.645.645 0 1.26.504 1.26 1.148 0 .196-.027.392-.168.616l-6.775 12.936h4.73V910.4c0-.812.6-1.23 1.177-1.23.615 0 1.23.392 1.23 1.204v3.22h1.204a1.14 1.14 0 0 1 1.204 1.204c0 .616-.42 1.176-1.204 1.176z" class="a"/><path d="M180.16 899.14v20.85" class="Y b c d e"/><g class="Z"><use xlink:href="#U" x="360.301"/><path d="M571.206 919.8c-5.992 0-5.992-7.11-5.992-11.2 0-3.947.617-9.716 5.965-9.716s6.02 5.628 6.02 9.716c0 4.257-.11 11.2-5.992 11.2zm3.584-11.2c0-2.464-.056-7.308-3.584-7.308s-3.584 4.844-3.584 7.308v1.568c0 2.912.393 7.252 3.557 7.252 3.22 0 3.61-4.34 3.61-7.252V908.6z"/></g><g class="a"><use xlink:href="#U" x="314.066"/><path d="M528.136 919.323h-8.567c-.812 0-1.288-.477-1.288-1.064 0-.252.084-.504.252-.756l7.645-11.62c.336-.532.53-1.176.53-1.68 0-1.652-1.232-2.912-2.884-2.912-1.483 0-2.744 1.26-3.22 2.156-.225.42-.588.588-.952.588-.644 0-1.23-.504-1.23-1.148 0-.867 1.987-4.004 5.403-4.004a5.28 5.28 0 0 1 5.265 5.265c0 1.12-.393 2.212-.953 3.023l-6.412 9.772h6.412c.813 0 1.232.56 1.232 1.204 0 .588-.42 1.176-1.232 1.176z"/></g><path d="M540.46 899.14v20.85" class="Y b c d e"/><g class="Z"><use xlink:href="#V" x="705.538"/><path d="M928.654 919.8c-2.324 0-4.005-1.008-5.152-2.77-.196-.252-.28-.477-.28-.73 0-.644.616-1.147 1.26-1.147.337 0 .728.14.98.53.73 1.12 1.71 1.736 3.193 1.736 2.688 0 3.89-2.408 4.004-7.728a5.87 5.87 0 0 1-4.004 1.596c-3.332 0-5.992-2.912-5.992-6.188 0-3.304 2.66-6.216 5.992-6.216 5.907 0 6.383 6.048 6.383 10.444 0 5.236-1.147 10.472-6.383 10.472zm0-18.508c-1.904 0-3.613 1.708-3.613 3.808 0 2.072 1.71 3.78 3.613 3.78 1.96 0 3.584-1.65 3.668-3.864-.336-2.155-1.484-3.724-3.668-3.724z"/></g><g class="a"><use xlink:href="#U" x="671.736"/><path d="M882.867 919.8c-5.908 0-6.385-6.02-6.385-10.443 0-5.236 1.148-10.473 6.385-10.473 2.352 0 4.03 1.036 5.18 2.8a1.1 1.1 0 0 1 .252.729c0 .644-.588 1.147-1.232 1.147-.363 0-.728-.168-1.008-.56-.728-1.092-1.68-1.708-3.19-1.708-2.66 0-3.893 2.38-3.977 7.73a5.79 5.79 0 0 1 3.977-1.597c3.36 0 6.02 2.912 6.02 6.188s-2.66 6.188-6.02 6.188zm0-9.996c-1.932 0-3.557 1.68-3.668 3.864.363 2.184 1.512 3.752 3.668 3.752 1.932 0 3.61-1.736 3.61-3.808s-1.68-3.81-3.61-3.81z"/></g><path d="M899.502 899.14v20.85" class="Y b c d e"/><linearGradient id="H" gradientUnits="userSpaceOnUse" x1="53.5" y1="328.866" x2="189.87" y2="465.237"><stop offset="0" stop-color="#37af56"/><stop offset="1" stop-color="#ecff52"/></linearGradient><path d="M111.25 362.107a66.41 66.41 0 0 1 10.4-35.761l-40.15-25.48C70.418 318.6 64 339.596 64 362.107c0 63.513 51.04 115 114 115v-48.25c-36.865 0-66.75-29.885-66.75-66.75z" fill="url(#H)"/><linearGradient id="I" gradientUnits="userSpaceOnUse" x1="180.628" y1="475.131" x2="300.244" y2="355.515"><stop offset="0" stop-color="#ecd452"/><stop offset=".103" stop-color="#ebcd54"/><stop offset=".257" stop-color="#e7b858"/><stop offset=".442" stop-color="#e1975f"/><stop offset=".652" stop-color="#d96969"/><stop offset=".879" stop-color="#cf2f76"/><stop offset="1" stop-color="#c90d7d"/></linearGradient><path d="M296.106 351.378l-47.055 4.448.303 6.28c0 36.865-29.885 66.75-66.75 66.75v48.25c62.96 0 114-51.487 114-115a117.36 117.36 0 0 0-.498-10.729z" fill="url(#I)"/><g class="W"><path d="M151.158 350.133l-6.335 11.807v7.584c0 .896-.673 1.376-1.408 1.376-.672 0-1.344-.448-1.344-1.344v-7.616l-6.335-11.84c-.16-.256-.192-.48-.192-.672 0-.768.735-1.376 1.44-1.376.416 0 .864.224 1.152.768l5.28 9.855 5.344-9.855c.288-.512.735-.704 1.15-.704.736 0 1.44.576 1.44 1.344a1.14 1.14 0 0 1-.192.672z"/><use xlink:href="#W"/><path d="M188.368 370.9c-.672 0-1.344-.48-1.344-1.344v-10.08c0-1.855-1.536-3.392-3.36-3.392-1.89 0-3.393 1.536-3.393 3.36v10.08c0 .896-.64 1.376-1.375 1.376-.705 0-1.344-.48-1.344-1.344v-10.08a3.42 3.42 0 0 0-3.393-3.392c-1.855 0-3.392 1.536-3.392 3.36v10.08c0 .896-.672 1.376-1.407 1.376-.673 0-1.345-.48-1.345-1.344v-14.303c0-.928.704-1.376 1.408-1.376.448 0 .896.192 1.15.608a6.17 6.17 0 0 1 3.553-1.12c1.92 0 3.646.864 4.768 2.272a5.99 5.99 0 0 1 4.735-2.272c3.392 0 6.144 2.72 6.144 6.08v10.08c0 .896-.672 1.376-1.408 1.376z"/><use xlink:href="#W" x="40.928"/><use xlink:href="#X"/><use xlink:href="#R" x="359.716" class="X"/><path d="M542.32 247.107v48.257l.26-.007c36.865 0 66.75 29.885 66.75 66.75s-29.885 66.75-66.75 66.75c-.088 0-.174-.006-.26-.007v48.257c62.96 0 114-51.487 114-115s-51.04-115-114-115z" class="X"/></g><linearGradient id="J" gradientUnits="userSpaceOnUse" x1="431.204" y1="306.68" x2="569.665" y2="445.14"><stop offset="0" stop-color="#37af56"/><stop offset="1" stop-color="#ecff52"/></linearGradient><path d="M470.948 362.107c0-27.442 16.566-51.007 40.238-61.265l-19.105-44.15c-40.25 17.75-68.383 58.265-68.383 105.414 0 63.513 51.04 115 114 115v-48.25c-36.865 0-66.75-29.885-66.75-66.75z" fill="url(#J)"/><linearGradient id="K" gradientUnits="userSpaceOnUse" x1="536.696" y1="471.501" x2="664.899" y2="343.298"><stop offset="0" stop-color="#ecd452"/><stop offset=".103" stop-color="#ebcd54"/><stop offset=".257" stop-color="#e7b858"/><stop offset=".442" stop-color="#e1975f"/><stop offset=".652" stop-color="#d96969"/><stop offset=".879" stop-color="#cf2f76"/><stop offset="1" stop-color="#c90d7d"/></linearGradient><path d="M651.874 330.274l-45.233 13.14c1.728 5.933 2.672 12.2 2.672 18.692 0 36.865-29.885 66.75-66.75 66.75-.088 0-.174-.006-.26-.007v48.257c62.96 0 114-51.487 114-115 0-11.045-1.547-21.724-4.428-31.834z" fill="url(#K)"/><g class="W"><path d="M509.8 350.837h-5.312v18.72c0 .864-.64 1.344-1.345 1.344-.672 0-1.375-.48-1.375-1.344v-18.72h-5.248a1.35 1.35 0 0 1-1.408-1.376c0-.64.48-1.344 1.377-1.344h13.3c.896 0 1.376.704 1.376 1.344 0 .672-.48 1.376-1.376 1.376zm13.5 20.095c-.608 0-1.216-.352-1.345-1.056-1.28.992-2.848 1.6-4.607 1.6-3.967 0-7.295-3.296-7.295-7.296v-8.863c0-.896.672-1.376 1.344-1.376.736 0 1.408.48 1.408 1.344v8.895c0 2.496 2.08 4.576 4.543 4.576a4.62 4.62 0 0 0 4.576-4.576v-8.863c0-.992.64-1.408 1.344-1.408.736 0 1.376.48 1.376 1.376v14.303c0 .896-.64 1.344-1.344 1.344z"/><use xlink:href="#X" x="318.333"/><use xlink:href="#Y"/><path d="M555.117 371.444c-1.76 0-4.703-.544-6.207-2.4-.19-.288-.288-.576-.288-.832 0-.8.77-1.44 1.44-1.44.384 0 .672.192.992.544.99 1.088 2.623 1.408 4.063 1.408 2.88 0 3.81-.992 3.81-2.432 0-4.096-9.76-1.568-9.76-8.16 0-3.488 3.264-4.768 6.304-4.768 1.728 0 5.792.864 5.792 2.656 0 .704-.576 1.44-1.344 1.44-.29 0-.736-.16-1.057-.416-.863-.736-2.11-.96-3.392-.96-2.655 0-3.584.992-3.584 2.048 0 3.808 9.792 1.344 9.792 8.16 0 3.776-3.168 5.152-6.56 5.152z"/><use xlink:href="#Y" x="18.848"/><path d="M584.396 370.9c-1.76 0-2.56-1.248-2.848-1.824-1.28 1.408-3.137 2.368-5.633 2.368-5.215 0-8.03-4.288-8.03-9.055s2.88-9.023 8.03-9.023c2.24 0 4.032.8 5.28 2.112v-.128c0-.352.128-1.44 1.344-1.44.673 0 1.408.352 1.408 1.344v12.35c0 .416.288.576.448.576.896 0 1.375.64 1.375 1.376 0 .672-.48 1.344-1.375 1.344zm-8.48-14.815c-3.2 0-5.28 2.496-5.28 6.304 0 3.84 2.08 6.335 5.28 6.335 3.232 0 5.28-2.496 5.28-6.335 0-3.808-2.048-6.304-5.28-6.304z"/></g><linearGradient id="L" gradientUnits="userSpaceOnUse" x1="772.742" y1="330.175" x2="908.503" y2="465.935"><stop offset="0" stop-color="#37af56"/><stop offset="1" stop-color="#ecff52"/></linearGradient><path d="M830.882 362.107a66.42 66.42 0 0 1 9.222-33.844l-41.127-24.323c-9.94 17.066-15.646 36.943-15.646 58.167 0 63.513 51.04 115 114 115V428.85c-36.726-.163-66.45-29.978-66.45-66.742z" fill="url(#L)"/><linearGradient id="M" gradientUnits="userSpaceOnUse" x1="898.182" y1="473.353" x2="1022.381" y2="349.155"><stop offset="0" stop-color="#ecd452"/><stop offset=".103" stop-color="#ebcd54"/><stop offset=".257" stop-color="#e7b858"/><stop offset=".442" stop-color="#e1975f"/><stop offset=".652" stop-color="#d96969"/><stop offset=".879" stop-color="#cf2f76"/><stop offset="1" stop-color="#c90d7d"/></linearGradient><path d="M1013.963 340.737l-46.465 8.864c.77 4.053 1.188 8.23 1.188 12.507 0 36.865-29.885 66.75-66.75 66.75v48.25c62.96 0 114-51.487 114-115 0-7.303-.683-14.445-1.973-21.37z" fill="url(#M)"/><g class="W"><path d="M878.116 370.9h-9.728c-.768 0-1.408-.608-1.408-1.344v-20.062c0-.928.736-1.376 1.345-1.376.704 0 1.407.448 1.407 1.344v18.72h8.384c.735 0 1.345.608 1.345 1.344 0 .768-.6 1.376-1.345 1.376zm3.808-19.583c-1.28 0-2.304-1.024-2.304-2.304s1.023-2.304 2.304-2.304 2.304 1.024 2.304 2.304-1.023 2.304-2.304 2.304zm0 19.583c-.704 0-1.408-.48-1.408-1.344v-14.27c0-.896.704-1.376 1.408-1.376.672 0 1.344.48 1.344 1.376v14.27c0 .896-.672 1.344-1.344 1.344zm12.128.544c-3.424 0-5.248-1.888-5.28-1.92 0 .896-.672 1.344-1.407 1.344-.672 0-1.345-.448-1.345-1.344v-20.03c0-.928.673-1.376 1.345-1.376.735 0 1.407.448 1.407 1.344v5.983c1.28-1.312 3.04-2.08 5.28-2.08 5.15 0 8.03 4.224 8.03 9.023 0 4.832-2.88 9.055-8.03 9.055zm0-15.36c-3.2 0-5.28 2.496-5.28 6.304 0 3.84 2.08 6.335 5.28 6.335s5.28-2.496 5.28-6.335c0-3.808-2.08-6.304-5.28-6.304zm23.774-.254l-8.64 19.646c-.64 1.472-2.047 2.144-3.52 2.144h-1.023c-.928 0-1.344-.672-1.344-1.408 0-.672.416-1.344 1.344-1.344h.992c.416 0 .863-.064 1.055-.512l2.113-4.735-6.24-13.8c-.128-.224-.16-.416-.16-.608 0-.8.768-1.344 1.473-1.344.48 0 .896.256 1.15.832l5.216 11.583 5.088-11.583c.256-.576.735-.8 1.184-.8.736 0 1.472.544 1.472 1.312 0 .224-.032.384-.16.608zm16.094 15.07c-1.76 0-2.56-1.248-2.848-1.824-1.28 1.408-3.136 2.368-5.632 2.368-5.215 0-8.03-4.288-8.03-9.055s2.88-9.023 8.03-9.023c2.24 0 4.03.8 5.28 2.112v-.128c0-.352.13-1.44 1.344-1.44.673 0 1.408.352 1.408 1.344v12.35c0 .416.3.576.448.576.896 0 1.376.64 1.376 1.376 0 .672-.48 1.344-1.376 1.344zm-8.48-14.815c-3.2 0-5.28 2.496-5.28 6.304 0 3.84 2.08 6.335 5.28 6.335 3.232 0 5.28-2.496 5.28-6.335 0-3.808-2.047-6.304-5.28-6.304zM122.292 80c-.9 0-1.8-.48-2.28-1.56l-3.18-7.8h-19.98l-3.24 7.8c-.48 1.08-1.38 1.56-2.22 1.56-1.32 0-2.7-1.02-2.7-2.52 0-.36.06-.72.24-1.02l15.42-37.498c.72-1.56 1.68-1.86 2.46-1.86.54 0 1.86.3 2.46 1.86l15.48 37.498c.12.3.18.66.18 1.02 0 1.5-1.26 2.52-2.64 2.52zm-15.48-33.6l-7.86 19.08h15.72l-7.86-19.08zm34.44 5.822c-4.62 0-8.52 3.9-8.52 8.58v16.62c0 1.68-1.26 2.58-2.64 2.58-1.26 0-2.52-.9-2.52-2.52v-26.76c0-1.68 1.38-2.58 2.52-2.58 1.2 0 2.34.66 2.58 2.04a13.88 13.88 0 0 1 8.58-3.06c1.74 0 2.64 1.2 2.64 2.58 0 1.32-.9 2.52-2.64 2.52z"/><use xlink:href="#Z"/><path d="M196.38 81.02c-6.42 0-9.84-3.54-9.9-3.6 0 1.68-1.26 2.52-2.64 2.52-1.26 0-2.52-.84-2.52-2.52V39.862c0-1.74 1.26-2.58 2.52-2.58 1.38 0 2.64.84 2.64 2.52v11.22c2.4-2.46 5.7-3.9 9.9-3.9 9.66 0 15.06 7.92 15.06 16.92 0 9.06-5.4 16.98-15.06 16.98zm0-28.8c-6 0-9.9 4.68-9.9 11.82 0 7.2 3.9 11.88 9.9 11.88s9.9-4.68 9.9-11.88c0-7.14-3.9-11.82-9.9-11.82z"/></g><g class="a"><path d="M271.678 40.462l-9.9 37.438c-.3 1.44-1.08 2.1-2.46 2.1-1.26 0-2.16-.66-2.58-2.1l-8.1-28.74-8.04 28.74c-.42 1.44-1.26 2.1-2.52 2.1-1.32 0-2.16-.66-2.52-2.1l-9.9-37.438a3.56 3.56 0 0 1-.119-.84c0-1.5 1.38-2.34 2.7-2.34 1.02 0 2.04.6 2.4 1.86l7.56 28.62 7.92-28.38c.42-1.44 1.26-2.1 2.52-2.1 1.32 0 2.16.66 2.58 2.1l7.92 28.38 7.56-28.62c.36-1.32 1.56-1.98 2.46-1.98 1.32 0 2.64.96 2.64 2.46 0 .3-.06.6-.12.84zM288.66 81.02c-9.66 0-15.06-7.92-15.06-16.98 0-9 5.4-16.92 15.06-16.92s15.06 7.92 15.06 16.92c0 9.06-5.4 16.98-15.06 16.98zm0-28.8c-6 0-9.9 4.68-9.9 11.82 0 7.2 3.9 11.88 9.9 11.88 6.06 0 9.898-4.68 9.898-11.88 0-7.14-3.84-11.82-9.898-11.82zM346.617 80c-1.26 0-2.52-.9-2.52-2.52v-18.9c0-3.48-2.88-6.36-6.3-6.36-3.54 0-6.36 2.88-6.36 6.3v18.9c0 1.68-1.2 2.58-2.58 2.58-1.32 0-2.52-.9-2.52-2.52v-18.9c0-3.48-2.88-6.36-6.36-6.36s-6.36 2.88-6.36 6.3v18.9c0 1.68-1.26 2.58-2.64 2.58-1.26 0-2.52-.9-2.52-2.52V50.66c0-1.74 1.32-2.58 2.64-2.58.84 0 1.68.36 2.16 1.14a11.56 11.56 0 0 1 6.66-2.1c3.6 0 6.84 1.62 8.94 4.26a11.24 11.24 0 0 1 8.88-4.26c6.36 0 11.52 5.1 11.52 11.4v18.9c0 1.68-1.26 2.58-2.64 2.58z"/><use xlink:href="#a"/><use xlink:href="#b"/></g><g class="W"><use xlink:href="#Z" x="289.255"/><use xlink:href="#b" x="80.578"/><path d="M527.275 79.94c-1.32 0-2.58-.84-2.58-2.52 0 0-3.54 3.6-9.898 3.6-9.66 0-15.06-7.92-15.06-16.98 0-9 5.4-16.92 15.06-16.92 4.2 0 7.56 1.44 9.898 3.9v-11.16c0-1.74 1.26-2.58 2.58-2.58s2.58.84 2.58 2.52V77.42c0 1.68-1.26 2.52-2.58 2.52zm-12.48-27.72c-6 0-9.9 4.68-9.9 11.82 0 7.2 3.9 11.88 9.9 11.88 6.06 0 9.898-4.68 9.898-11.88 0-7.14-3.84-11.82-9.898-11.82z"/></g><g class="Z"><path d="M583.974 80.06c-1.26 0-2.52-.9-2.52-2.58v-27.6l-11.64 21.72c-.78 1.5-1.92 1.62-2.4 1.62-.3 0-1.56-.12-2.4-1.62L553.435 50v27.48c0 1.68-1.26 2.58-2.64 2.58-1.26 0-2.52-.9-2.52-2.58v-37.5c0-1.98 1.38-2.7 2.76-2.7.9 0 1.62.42 2.16 1.5l14.22 26.46 14.28-26.46c.6-1.2 1.32-1.5 2.34-1.5 1.32 0 2.58.84 2.58 2.7v37.5c0 1.68-1.26 2.58-2.64 2.58z"/><use xlink:href="#a" x="237.897"/><use xlink:href="#b" x="237.896"/></g><g class="W"><path d="M689.513 80h-16.14c-1.38 0-2.64-1.26-2.64-2.52V39.862c0-1.44 1.08-2.58 2.52-2.58h14.88c6.12 0 11.22 5.04 11.22 11.1a10.8 10.8 0 0 1-3.42 7.979c3.84 2.16 6.3 6.24 6.3 10.92 0 6.96-5.76 12.72-12.72 12.72zm-1.38-37.62h-12.238V54.5h12.238c3.84 0 6.06-3.24 6.06-6.06 0-3.3-2.7-6.06-6.06-6.06zm1.38 17.22h-13.62v15.3h13.62c4.08 0 7.56-3.54 7.56-7.62 0-4.2-3.48-7.68-7.56-7.68zm30.12 21.42c-9.66 0-15.06-7.92-15.06-16.98 0-9 5.398-16.92 15.06-16.92s15.06 7.92 15.06 16.92c0 9.06-5.4 16.98-15.06 16.98zm0-28.8c-6 0-9.9 4.68-9.9 11.82 0 7.2 3.9 11.88 9.9 11.88 6.06 0 9.9-4.68 9.9-11.88 0-7.14-3.84-11.82-9.9-11.82zM749.572 80h-1.02c-5.7 0-7.86-3-7.86-7.92V53.24h-1.8c-1.44 0-2.58-1.14-2.58-2.52 0-1.44 1.14-2.58 2.52-2.58h1.8V39.8c0-1.68 1.26-2.52 2.58-2.52s2.52.84 2.52 2.52v8.34h3.84c1.68 0 2.52 1.38 2.52 2.52 0 1.44-.96 2.58-2.52 2.58h-3.84v19.38c0 1.68.6 2.28 2.28 2.28h1.5c1.56 0 2.58 1.14 2.58 2.52 0 1.44-.96 2.58-2.52 2.58zm30.298 0c-1.32 0-2.52-.9-2.52-2.52V60.8c0-4.68-3.9-8.58-8.58-8.58-4.62 0-8.52 3.9-8.52 8.58v16.62c0 1.68-1.26 2.64-2.64 2.64-1.26 0-2.52-.9-2.52-2.58V39.862c0-1.74 1.26-2.58 2.52-2.58 1.38 0 2.64.84 2.64 2.52v10.38c2.22-2.1 5.22-3.06 8.52-3.06 7.44 0 13.68 6.18 13.68 13.68v16.62c0 1.68-1.2 2.58-2.58 2.58zm39.24 0h-16.14c-1.38 0-2.64-1.26-2.64-2.52V39.862c0-1.44 1.08-2.58 2.52-2.58h14.88c6.12 0 11.22 5.04 11.22 11.1 0 3.24-1.32 6-3.42 7.98 3.84 2.16 6.3 6.24 6.3 10.92 0 6.96-5.76 12.72-12.72 12.72zm-1.38-37.62H805.5V54.5h12.24c3.84 0 6.06-3.24 6.06-6.06 0-3.3-2.7-6.06-6.06-6.06zm1.38 17.22H805.5v15.3h13.62c4.08 0 7.56-3.54 7.56-7.62 0-4.2-3.48-7.68-7.56-7.68z"/><use xlink:href="#a" x="480.711"/><path d="M873.95 80.12c-3.24 0-6-2.76-6-6.12V39.862c0-1.74 1.26-2.58 2.58-2.58s2.58.84 2.58 2.52V74c0 .72.54 1.02.84 1.02 1.68 0 2.58 1.2 2.58 2.58 0 1.32-.9 2.52-2.58 2.52z"/><use xlink:href="#c"/><use xlink:href="#d"/><use xlink:href="#e"/><use xlink:href="#a" x="597.229"/><path d="M81.697 101.662l-9.9 37.438c-.3 1.44-1.08 2.1-2.46 2.1-1.26 0-2.16-.66-2.58-2.1l-8.1-28.74-8.04 28.74c-.42 1.44-1.26 2.1-2.52 2.1-1.32 0-2.16-.66-2.52-2.1l-9.898-37.438c-.06-.24-.12-.54-.12-.84 0-1.5 1.38-2.34 2.7-2.34 1.02 0 2.04.6 2.4 1.86l7.56 28.62 7.92-28.38c.42-1.44 1.26-2.1 2.52-2.1 1.32 0 2.16.66 2.58 2.1l7.92 28.38 7.56-28.62c.36-1.32 1.56-1.98 2.46-1.98 1.32 0 2.64.96 2.64 2.46a3.51 3.51 0 0 1-.119.84z"/><use xlink:href="#f"/><path d="M156.636 141.2c-1.26 0-2.52-.9-2.52-2.52v-18.9c0-3.48-2.88-6.36-6.3-6.36-3.54 0-6.36 2.88-6.36 6.3v18.9c0 1.68-1.2 2.58-2.58 2.58-1.32 0-2.52-.9-2.52-2.52v-18.9c0-3.48-2.88-6.36-6.36-6.36s-6.36 2.88-6.36 6.3v18.9c0 1.68-1.26 2.58-2.64 2.58-1.26 0-2.52-.9-2.52-2.52v-26.82c0-1.74 1.32-2.58 2.64-2.58.84 0 1.68.36 2.16 1.14 1.86-1.32 4.2-2.1 6.66-2.1 3.6 0 6.84 1.62 8.94 4.26 2.1-2.64 5.28-4.26 8.88-4.26 6.36 0 11.52 5.1 11.52 11.4v18.9c0 1.68-1.26 2.58-2.64 2.58z"/><use xlink:href="#d" x="-726.371" y="61.2"/><path d="M222.396 141.2c-1.32 0-2.52-.9-2.52-2.52V122c0-4.68-3.9-8.58-8.58-8.58-4.62 0-8.52 3.9-8.52 8.58v16.62c0 1.68-1.26 2.64-2.64 2.64-1.26 0-2.52-.9-2.52-2.58v-26.82c0-1.74 1.26-2.52 2.52-2.52 1.2 0 2.28.66 2.58 1.98 2.34-1.86 5.28-3 8.58-3 7.44 0 13.68 6.18 13.68 13.68v16.62c0 1.68-1.2 2.58-2.58 2.58zm32.64 1.02c-4.38 0-10.5-1.8-13.92-4.98a2.4 2.4 0 0 1-.84-1.86 2.6 2.6 0 0 1 2.58-2.58c.9 0 1.2.3 2.28 1.14 2.94 2.22 6.42 3.18 9.898 3.18 7.14 0 10.26-2.58 10.26-7.02 0-12.48-23.938-5.4-23.938-21.72 0-7.32 6.18-10.98 14.1-10.98 4.14 0 10.08 1.62 13.02 5.1.48.54.66 1.08.66 1.62 0 1.44-1.32 2.7-2.58 2.7-.9 0-1.38-.42-2.4-1.32-2.4-2.04-5.46-2.94-8.7-2.94-6.48 0-8.94 2.58-8.94 5.82 0 11.22 23.94 4.56 23.94 21.72 0 8.94-7.5 12.12-15.42 12.12z"/><use xlink:href="#g"/><use xlink:href="#f" x="223.137"/><use xlink:href="#h"/><use xlink:href="#i"/><path d="M414.392 141.14c-1.32 0-2.58-.84-2.58-2.52 0 0-3.54 3.6-9.898 3.6-9.66 0-15.06-7.92-15.06-16.98 0-9 5.4-16.92 15.06-16.92 4.2 0 7.56 1.44 9.898 3.9v-11.16c0-1.74 1.26-2.58 2.58-2.58s2.58.84 2.58 2.52v37.618c0 1.68-1.26 2.52-2.58 2.52zm-12.48-27.72c-6 0-9.9 4.68-9.9 11.82 0 7.2 3.9 11.88 9.9 11.88 6.06 0 9.898-4.68 9.898-11.88 0-7.14-3.84-11.82-9.898-11.82zm61.08 27.78c-1.32 0-2.64-.9-2.64-2.52v-17.82h-19.8v17.82c0 1.62-1.38 2.52-2.52 2.52-1.32 0-2.64-.9-2.64-2.52v-37.678c0-1.68 1.32-2.52 2.64-2.52 1.14 0 2.52.84 2.52 2.52v14.76h19.8v-14.7c0-1.74 1.38-2.58 2.52-2.58 1.32 0 2.64.84 2.64 2.58v37.558c0 1.68-1.38 2.58-2.52 2.58zm39.418 0c-3.3 0-4.8-2.34-5.34-3.42-2.4 2.64-5.88 4.44-10.56 4.44-9.78 0-15.06-8.04-15.06-16.98s5.4-16.92 15.06-16.92c4.2 0 7.56 1.5 9.9 3.96v-.24c0-.66.24-2.7 2.52-2.7 1.26 0 2.64.66 2.64 2.52v23.16c0 .78.54 1.08.84 1.08 1.68 0 2.58 1.2 2.58 2.58 0 1.26-.9 2.52-2.58 2.52zm-15.9-27.78c-6 0-9.898 4.68-9.898 11.82 0 7.2 3.9 11.88 9.898 11.88 6.06 0 9.9-4.68 9.9-11.88 0-7.14-3.84-11.82-9.9-11.82z"/><use xlink:href="#e" x="-415.817" y="61.2"/><use xlink:href="#d" x="-357.387" y="61.2"/><path d="M606.5 141.2h-24.96c-1.44 0-2.64-1.14-2.64-2.52v-37.618c0-1.44 1.2-2.58 2.64-2.58h24.96c1.56 0 2.52 1.14 2.52 2.52 0 1.26-.9 2.58-2.52 2.58h-22.44v12.12h15.72a2.56 2.56 0 0 1 2.58 2.58c0 1.38-1.02 2.58-2.58 2.58h-15.72v15.24h22.44c1.62 0 2.52 1.26 2.52 2.58 0 1.38-.96 2.52-2.52 2.52zm32.218 12.66c-1.32 0-2.58-.9-2.58-2.58v-12.96c-2.46 2.58-5.7 3.9-9.898 3.9-9.66 0-15.06-7.92-15.06-16.98s5.4-16.98 15.06-16.98c6.36 0 9.898 3.66 9.898 3.66 0-1.68 1.26-2.58 2.58-2.58s2.58.9 2.58 2.52v39.418c0 1.68-1.26 2.58-2.58 2.58zm-12.48-40.5c-5.94 0-9.9 4.74-9.9 11.82 0 7.2 3.9 11.94 9.9 11.94 6.06 0 9.898-4.68 9.898-11.88 0-7.14-3.84-11.88-9.898-11.88z"/><use xlink:href="#h" x="305.815"/><use xlink:href="#j"/><use xlink:href="#i" x="341.154"/><path d="M761.367 141.2h-18.24c-1.44 0-2.64-1.14-2.64-2.52v-37.618c0-1.74 1.38-2.58 2.52-2.58 1.32 0 2.64.84 2.64 2.52v35.1h15.72c1.38 0 2.52 1.14 2.52 2.52 0 1.44-1.14 2.58-2.52 2.58z"/><use xlink:href="#a" x="410.909" y="61.2"/><use xlink:href="#k"/><use xlink:href="#j" x="154.197"/><use xlink:href="#i" x="494.152"/><path d="M920.843 141.26c-.66 0-1.44-.36-1.98-1.08l-12.48-17.46h-7.74v15.9c0 1.68-1.26 2.58-2.64 2.58-1.26 0-2.52-.9-2.52-2.52v-37.618c0-1.08.72-2.58 2.52-2.58h15.54c5.28 0 12.06 4.14 12.06 12.06 0 6.3-4.74 11.58-11.04 12.12l10.5 14.46a2.35 2.35 0 0 1 .539 1.56c0 1.44-1.38 2.58-2.76 2.58zm-9.36-37.68h-12.84v14.04h12.78c3.9 0 7.02-3.18 7.02-7.08 0-4.08-3.48-6.96-6.96-6.96z"/><use xlink:href="#c" x="48.755" y="61.2"/><use xlink:href="#k" x="140.277"/><use xlink:href="#g" x="699.649"/><path d="M1017.925 141.2h-1.02c-5.7 0-7.86-3-7.86-7.92v-18.84h-1.8c-1.44 0-2.58-1.14-2.58-2.52 0-1.44 1.14-2.58 2.52-2.58h1.8V101c0-1.68 1.26-2.52 2.578-2.52s2.52.84 2.52 2.52v8.34h3.84c1.68 0 2.52 1.38 2.52 2.52 0 1.44-.96 2.58-2.52 2.58h-3.84v19.38c0 1.68.6 2.28 2.28 2.28h1.5c1.56 0 2.58 1.14 2.58 2.52 0 1.44-.96 2.58-2.52 2.58zm16.738 1.02c-3.3 0-8.82-1.02-11.64-4.5-.36-.54-.54-1.08-.54-1.56 0-1.5 1.44-2.7 2.7-2.7.72 0 1.26.36 1.86 1.02 1.86 2.04 4.92 2.64 7.62 2.64 5.398 0 7.14-1.86 7.14-4.56 0-7.68-18.3-2.94-18.3-15.3 0-6.54 6.12-8.94 11.82-8.94 3.238 0 10.86 1.62 10.86 4.98 0 1.32-1.08 2.7-2.52 2.7-.54 0-1.38-.3-1.98-.78-1.62-1.38-3.96-1.8-6.36-1.8-4.98 0-6.72 1.86-6.72 3.84 0 7.14 18.36 2.52 18.36 15.3 0 7.08-5.94 9.66-12.3 9.66z"/></g><defs ><path id="O" d="M946.76 1045.98c-.28 0-.58-.2-.58-.56v-.64c-.84.98-2.06 1.54-3.42 1.54-2.48 0-4.56-2.08-4.56-4.56v-5.842c0-.36.3-.56.58-.56.26 0 .56.2.56.56v5.842c0 1.9 1.52 3.42 3.422 3.42s3.42-1.52 3.42-3.42v-5.842c0-.36.3-.56.58-.56.26 0 .56.2.56.56v9.502c0 .36-.3.56-.56.56z"/><path id="P" d="M1017.577 1046.098c-1.08 0-1.98-1-1.98-2.12v-11.684c0-.36.3-.56.58-.56.26 0 .56.2.56.56v11.684c0 1.28 1.42.54 1.42 1.44 0 .34-.24.68-.58.68z"/><path id="Q" d="M104.714 1045.51c-.633 0-1.267-.367-1.4-1.1-1.334 1.034-2.97 1.668-4.804 1.668-4.136 0-7.604-3.436-7.604-7.605v-9.24a1.37 1.37 0 0 1 1.4-1.435c.768 0 1.468.5 1.468 1.4v9.272c0 2.602 2.168 4.77 4.736 4.77 2.603 0 4.77-2.17 4.77-4.77v-9.24c0-1.034.667-1.468 1.4-1.468.768 0 1.435.5 1.435 1.435v14.9c0 .934-.667 1.4-1.4 1.4z"/><path id="R" d="M111.25 362.107c0-36.865 29.885-66.75 66.75-66.75v-48.25c-62.96 0-114 51.487-114 115s51.04 115 114 115v-48.25c-36.865 0-66.75-29.885-66.75-66.75z"/><path id="S" d="M182.604 247.107v48.25c36.865 0 66.75 29.885 66.75 66.75s-29.885 66.75-66.75 66.75v48.25c62.96 0 114-51.487 114-115s-51.04-115-114-115z"/><path id="T" d="M147.548 517.768c-3.416 0-6.188-2.772-6.188-6.16 0-2.156 1.036-3.976 2.717-5.096-1.26-1.008-1.988-2.492-1.988-4.2a5.47 5.47 0 0 1 5.46-5.46c2.996 0 5.46 2.464 5.46 5.46 0 1.708-.73 3.192-1.988 4.2 1.624 1.12 2.688 2.94 2.688 5.068 0 3.416-2.744 6.188-6.16 6.188zm0-9.996c-2.1 0-3.81 1.764-3.81 3.808 0 2.1 1.736 3.808 3.78 3.808 2.1 0 3.81-1.736 3.81-3.78 0-2.1-1.736-3.836-3.78-3.836zm0-8.512c-1.764 0-3.052 1.372-3.052 3.052 0 1.708 1.288 3.108 3.052 3.108 1.68 0 3.052-1.4 3.052-3.108a3.06 3.06 0 0 0-3.052-3.052z"/><path id="U" d="M196.794 919.8c-3.416 0-6.187-2.77-6.187-6.16 0-2.155 1.035-3.976 2.716-5.096-1.26-1.008-1.988-2.492-1.988-4.2a5.47 5.47 0 0 1 5.46-5.46c2.996 0 5.46 2.464 5.46 5.46 0 1.708-.728 3.192-1.987 4.2 1.623 1.12 2.688 2.94 2.688 5.068 0 3.416-2.744 6.188-6.16 6.188zm0-9.996c-2.1 0-3.81 1.765-3.81 3.81 0 2.1 1.736 3.808 3.78 3.808 2.1 0 3.808-1.736 3.808-3.78 0-2.1-1.736-3.836-3.78-3.836zm0-8.512c-1.764 0-3.052 1.372-3.052 3.052 0 1.708 1.288 3.108 3.052 3.108 1.68 0 3.053-1.4 3.053-3.108a3.06 3.06 0 0 0-3.053-3.052z"/><path id="V" d="M215.302 901.963l-6.44 16.604c-.225.56-.56.783-1.037.783-.615 0-1.26-.476-1.26-1.176 0-.168.057-.308.112-.476l6.104-15.933h-7.477a1.15 1.15 0 0 1-1.176-1.203c0-.645.53-1.177 1.176-1.177h9.212c.616 0 1.23.393 1.23 1.204 0 .336-.363 1.092-.447 1.372z"/><path id="W" d="M165.137 363.796h-11.84c.447 3.008 2.367 4.928 5.184 4.928 1.44 0 2.88-.512 3.808-1.664.288-.32.608-.512.99-.512.705 0 1.44.64 1.44 1.408 0 .384-.097.672-.77 1.344-1.44 1.408-3.424 2.144-5.47 2.144-5.152 0-8.03-4.256-8.03-9.055 0-4.768 2.88-9.023 8.03-9.023 5.215 0 8 4.256 8 9.023 0 .704-.512 1.408-1.344 1.408zm-6.655-7.71c-3.008 0-4.768 2.208-5.184 4.96h10.367c-.448-3.072-2.368-4.96-5.184-4.96z"/><path id="X" d="M222.16 370.9c-.705 0-1.345-.48-1.345-1.344v-8.896a4.62 4.62 0 0 0-4.575-4.576c-2.464 0-4.544 2.08-4.544 4.576v8.863c0 .896-.672 1.408-1.407 1.408-.673 0-1.345-.48-1.345-1.376v-14.303c0-.928.672-1.344 1.345-1.344.64 0 1.215.352 1.375 1.056a7.29 7.29 0 0 1 4.576-1.6c3.967 0 7.295 3.296 7.295 7.295v8.863c0 .896-.64 1.376-1.375 1.376z"/><path id="Y" d="M545.677 351.317c-1.28 0-2.303-1.024-2.303-2.304s1.023-2.304 2.303-2.304 2.305 1.024 2.305 2.304-1.024 2.304-2.305 2.304zm0 19.583c-.703 0-1.408-.48-1.408-1.344v-14.27c0-.896.705-1.376 1.408-1.376.672 0 1.344.48 1.344 1.376v14.27c0 .896-.672 1.344-1.344 1.344z"/><path id="Z" d="M173.16 80c-3.3 0-4.8-2.34-5.34-3.42-2.4 2.64-5.88 4.44-10.56 4.44-9.78 0-15.06-8.04-15.06-16.98s5.4-16.92 15.06-16.92c4.2 0 7.56 1.5 9.898 3.96v-.24c0-.66.24-2.7 2.52-2.7 1.26 0 2.64.66 2.64 2.52v23.16c0 .78.54 1.08.84 1.08 1.68 0 2.58 1.2 2.58 2.58 0 1.26-.9 2.52-2.58 2.52zm-15.898-27.78c-6 0-9.9 4.68-9.9 11.82 0 7.2 3.9 11.88 9.9 11.88 6.06 0 9.898-4.68 9.898-11.88 0-7.14-3.84-11.82-9.898-11.82z"/><path id="a" d="M380.997 66.68h-22.2c.84 5.64 4.44 9.24 9.72 9.24 2.7 0 5.4-.96 7.14-3.12.54-.6 1.14-.96 1.86-.96 1.32 0 2.7 1.2 2.7 2.64 0 .72-.18 1.26-1.44 2.52-2.7 2.64-6.42 4.02-10.26 4.02-9.66 0-15.06-7.98-15.06-16.98 0-8.94 5.4-16.92 15.06-16.92 9.78 0 15 7.98 15 16.92 0 1.32-.96 2.64-2.52 2.64zm-12.48-14.46c-5.64 0-8.94 4.14-9.72 9.3h19.44c-.84-5.76-4.44-9.3-9.72-9.3z"/><path id="b" d="M412.377 80c-1.32 0-2.52-.9-2.52-2.52V60.8c0-4.68-3.9-8.58-8.58-8.58-4.62 0-8.52 3.9-8.52 8.58v16.62c0 1.68-1.26 2.64-2.64 2.64-1.26 0-2.52-.9-2.52-2.58v-26.82c0-1.74 1.26-2.52 2.52-2.52 1.2 0 2.28.66 2.58 1.98 2.34-1.86 5.28-3 8.58-3 7.44 0 13.68 6.18 13.68 13.68v16.62c0 1.68-1.2 2.58-2.58 2.58z"/><path id="c" d="M882.35 43.282a4.3 4.3 0 1 1 0-8.64 4.3 4.3 0 1 1 0 8.64zm0 36.72c-1.32 0-2.64-.9-2.64-2.52v-26.76c0-1.68 1.32-2.58 2.64-2.58 1.26 0 2.52.9 2.52 2.58v26.76c0 1.68-1.26 2.52-2.52 2.52z"/><path id="d" d="M917.387 66.68h-22.2c.84 5.64 4.44 9.24 9.72 9.24 2.7 0 5.4-.96 7.14-3.12.54-.6 1.14-.96 1.86-.96 1.32 0 2.7 1.2 2.7 2.64 0 .72-.18 1.26-1.44 2.52-2.7 2.64-6.42 4.02-10.26 4.02-9.66 0-15.06-7.98-15.06-16.98 0-8.94 5.398-16.92 15.06-16.92 9.78 0 15 7.98 15 16.92 0 1.32-.96 2.64-2.52 2.64zm-12.48-14.46c-5.64 0-8.94 4.14-9.72 9.3h19.44c-.84-5.76-4.44-9.3-9.72-9.3z"/><path id="e" d="M948.467 51.682l-10.92 26.28c-.54 1.38-1.44 2.04-2.58 2.04-1.02 0-1.98-.66-2.58-2.04l-10.92-26.28c-.12-.42-.18-.72-.18-1.08 0-1.44 1.32-2.46 2.64-2.46.9 0 1.8.48 2.28 1.56l8.76 21 8.76-21c.42-1.14 1.5-1.62 2.34-1.62 1.38 0 2.64.96 2.64 2.46a2.99 2.99 0 0 1-.239 1.14z"/><path id="f" d="M98.677 142.22c-9.66 0-15.06-7.92-15.06-16.98 0-9 5.4-16.92 15.06-16.92s15.06 7.92 15.06 16.92c0 9.06-5.4 16.98-15.06 16.98zm0-28.8c-6 0-9.898 4.68-9.898 11.82 0 7.2 3.9 11.88 9.898 11.88 6.06 0 9.9-4.68 9.9-11.88 0-7.14-3.84-11.82-9.9-11.82z"/><path id="g" d="M299.974 141.2c-1.32 0-2.52-.9-2.52-2.52V122c0-4.68-3.9-8.58-8.58-8.58-4.62 0-8.52 3.9-8.52 8.58v16.62c0 1.68-1.26 2.64-2.64 2.64-1.26 0-2.52-.9-2.52-2.58v-37.618c0-1.74 1.26-2.58 2.52-2.58 1.38 0 2.64.84 2.64 2.52v10.38c2.22-2.1 5.22-3.06 8.52-3.06 7.44 0 13.68 6.18 13.68 13.68v16.62c0 1.68-1.2 2.58-2.58 2.58z"/><path id="h" d="M365.913 141.26c-1.14 0-2.28-.66-2.52-1.98-2.4 1.86-5.34 3-8.64 3-7.44 0-13.68-6.18-13.68-13.68v-16.62c0-1.68 1.26-2.58 2.52-2.58 1.38 0 2.64.9 2.64 2.52v16.68c0 4.68 3.9 8.58 8.52 8.58 4.68 0 8.58-3.9 8.58-8.58v-16.62c0-1.86 1.2-2.64 2.52-2.64 1.38 0 2.58.9 2.58 2.58v26.82c0 1.68-1.2 2.52-2.52 2.52z"/><path id="i" d="M381.394 141.32c-3.24 0-6-2.76-6-6.12v-34.138c0-1.74 1.26-2.58 2.58-2.58s2.58.84 2.58 2.52V135.2c0 .72.54 1.02.84 1.02 1.68 0 2.58 1.2 2.58 2.58 0 1.32-.9 2.52-2.58 2.52z"/><path id="j" d="M709.948 141.2c-3.3 0-4.8-2.34-5.34-3.42-2.4 2.64-5.88 4.44-10.56 4.44-9.78 0-15.06-8.04-15.06-16.98s5.398-16.92 15.06-16.92c4.2 0 7.56 1.5 9.9 3.96v-.24c0-.66.24-2.7 2.52-2.7 1.26 0 2.64.66 2.64 2.52v23.16c0 .78.54 1.08.84 1.08 1.68 0 2.58 1.2 2.58 2.58 0 1.26-.9 2.52-2.58 2.52zm-15.9-27.78c-6 0-9.9 4.68-9.9 11.82 0 7.2 3.9 11.88 9.9 11.88 6.06 0 9.9-4.68 9.9-11.88 0-7.14-3.84-11.82-9.9-11.82z"/><path id="k" d="M813.386 154.88c-3.66 0-12.72-1.32-12.72-4.92 0-1.38 1.26-2.7 2.58-2.7 1.38 0 .18.18 3.36 1.38 1.44.54 3.6 1.14 6.78 1.14 6.66 0 9.9-3.18 9.9-9.48v-2.7c-2.34 2.22-5.7 3.6-9.9 3.6-9.48 0-15.06-6.72-15.06-15.96 0-9 5.398-16.92 15.06-16.92 4.2 0 7.44 1.26 9.9 3.84v-.24c0-1.68 1.38-2.58 2.58-2.58 1.26 0 2.58.9 2.58 2.58v28.38c0 9.54-5.7 14.58-15.06 14.58zm0-41.458c-6 0-9.9 4.68-9.9 11.82 0 6.84 3.6 10.86 9.9 10.86s9.9-4.02 9.9-10.86c0-7.14-3.84-11.82-9.9-11.82z"/></defs></svg>