<svg xmlns="http://www.w3.org/2000/svg" xmlns:xlink="http://www.w3.org/1999/xlink" viewBox="0 0 1080 1080"><style><![CDATA[.K{stroke-dasharray:2.00611,6.01833}.L{fill:none}.M{stroke:#fff}.N{stroke-width:2}.O{stroke-miterlimit:10}.P{enable-background:new}]]></style><linearGradient id="A" gradientUnits="userSpaceOnUse" x1="11.75" y1="11.75" x2="1068.25" y2="1068.25"><stop offset="0" stop-color="#ba5370"/><stop offset=".068" stop-color="#bf6079"/><stop offset=".383" stop-color="#d697a2"/><stop offset=".655" stop-color="#e6c0bf"/><stop offset=".87" stop-color="#f0d9d1"/><stop offset="1" stop-color="#f4e2d8"/></linearGradient><path d="M1080,1040c0,22-18,40-40,40H40c-22,0-40-18-40-40V40C0,18,18,0,40,0h1000c22,0,40,18,40,40V1040z" fill="url(#A)"/><linearGradient id="B" gradientUnits="userSpaceOnUse" x1="556.595" y1="165.82" x2="556.595" y2="964.437"><stop offset="0" stop-color="#c31432"/><stop offset=".138" stop-color="#a61233"/><stop offset=".43" stop-color="#6f0f34"/><stop offset=".681" stop-color="#460d35"/><stop offset=".88" stop-color="#2d0c36"/><stop offset="1" stop-color="#240b36"/></linearGradient><path d="M66.96 165.82h22.256v21.56h44.512v16.17h44.512v10.78h44.512v5.4h44.512v16.17h44.512v32.338H356.3v21.56h44.512v5.4h44.512v10.78h89.025v16.17h44.512v16.17h44.512v5.4h44.512v5.4h44.512v5.4H756.9v5.4h44.512v16.17h44.512v10.78h44.512v5.4h44.512v5.4h44.512v5.4h66.77v561.468H66.96z" fill="url(#B)"/><g opacity=".3" class="L M N O"><g class="P"><path d="M66.96 913.644h1"/><path d="M73.978 913.644h967.95" class="K"/><path d="M1044.936 913.644h1"/><path d="M66.96 859.557h1"/><path d="M73.978 859.557h967.95" class="K"/><path d="M1044.936 859.557h1"/><path d="M66.96 805.47h1"/><path d="M73.978 805.47h967.95" class="K"/><path d="M1044.936 805.47h1"/><path d="M66.96 751.382h1"/><path d="M73.978 751.382h967.95" class="K"/><path d="M1044.936 751.382h1"/><path d="M66.96 697.294h1"/><path d="M73.978 697.294h967.95" class="K"/><path d="M1044.936 697.294h1"/><path d="M66.96 643.206h1"/><path d="M73.978 643.206h967.95" class="K"/><path d="M1044.936 643.206h1"/><path d="M66.96 589.12h1"/><path d="M73.978 589.12h967.95" class="K"/><path d="M1044.936 589.12h1"/><path d="M66.96 535.03h1"/><path d="M73.978 535.03h967.95" class="K"/><path d="M1044.936 535.03h1"/><path d="M66.96 480.943h1"/><path d="M73.978 480.943h967.95" class="K"/><path d="M1044.936 480.943h1"/><path d="M66.96 426.856h1"/><path d="M73.978 426.856h967.95" class="K"/><path d="M1044.936 426.856h1"/><path d="M66.96 372.768h1"/><path d="M73.978 372.768h967.95" class="K"/><path d="M1044.936 372.768h1"/><path d="M66.96 318.68h1"/><path d="M73.978 318.68h967.95" class="K"/><path d="M1044.936 318.68h1"/></g><path d="M66.96 264.593h1"/><path d="M73.978 264.593h967.95" class="K"/><path d="M1044.936 264.593h1M66.96 156.418h1"/><path d="M73.978 156.418h967.95" class="K"/><path d="M1044.936 156.418h1M66.96 210.505h1"/><path d="M73.978 210.505h967.95" class="K"/><path d="M1044.936 210.505h1"/></g><g fill="#240b36"><path d="M998.286 1001.946v-1.92c2.063-6.848 8.508-10.687 8.508-15.935 0-2.432-1.225-3.648-2.804-3.648-1.837 0-3.2 1.408-3.384 4.864h-2.127c.258-5.248 2.643-6.783 5.446-6.783 3.062 0 5.188 2.048 5.188 5.887 0 5.76-5.22 7.552-8.7 15.615h8.83v1.92h-10.957zm17.98.32c-3.803 0-5.607-3.52-5.607-11.87s1.805-11.87 5.607-11.87 5.607 3.52 5.607 11.87-1.805 11.87-5.607 11.87zm0-21.823c-2.127 0-3.287 2.368-3.287 9.952s1.16 9.95 3.287 9.95 3.287-2.368 3.287-9.95-1.16-9.952-3.287-9.952z"/><use xlink:href="#D"/><path d="M1035.792 978.844h10.44v1.216l-6.768 21.887h-2.45l6.768-21.183h-7.992v-1.92z"/><use xlink:href="#D" x="-957.725"/><use xlink:href="#E"/><use xlink:href="#E" x="12.374"/><path d="M111.417 978.844v15.936h2.417v1.92h-2.417v5.248h-2.32v-5.248h-7.444V995.6l6.38-16.767h3.384zm-7.573 15.936h5.253v-13.823h-.064l-5.188 13.823z"/><use xlink:href="#F"/><path d="M47.532 163.353c.198 1.664.926 3.775 3.042 3.775 2.05 0 3.57-2.048 3.57-6.047 0-4.32-1.52-5.664-3.273-5.664-1.355 0-2.612.992-3.01 2.24l-1.852-.32.793-11.71h8.398l-.198 1.92h-6.282l-.463 7.04c.826-.672 1.95-1.088 3.174-1.088 2.778 0 5.092 2.496 5.092 7.52 0 5.28-2.645 8.03-5.82 8.03-3.44 0-5.158-2.496-5.357-5.503l2.183-.192z"/><use xlink:href="#F" y="269.172"/><path d="M50.838 438.22c-3.902 0-5.754-3.52-5.754-11.87s1.852-11.87 5.754-11.87 5.753 3.52 5.753 11.87-1.852 11.87-5.753 11.87zm0-21.822c-2.183 0-3.373 2.368-3.373 9.95s1.2 9.95 3.373 9.95 3.373-2.368 3.373-9.95-1.2-9.95-3.373-9.95zM47.38 701.694c.198 1.664.926 3.776 3.042 3.776 2.05 0 3.57-2.048 3.57-6.048 0-4.32-1.52-5.663-3.273-5.663-1.355 0-2.612 1-3 2.24l-1.852-.32.793-11.7h8.398l-.198 1.92h-6.28l-.463 7.04c.826-.672 1.95-1.088 3.174-1.088 2.778 0 5.092 2.495 5.092 7.52 0 5.28-2.645 8.032-5.82 8.032-3.44 0-5.158-2.496-5.357-5.504l2.183-.192zm3.263 263.063c-3.902 0-5.754-3.52-5.754-11.87s1.852-11.87 5.754-11.87 5.753 3.52 5.753 11.87-1.852 11.87-5.753 11.87zm0-21.822c-2.183 0-3.373 2.367-3.373 9.95s1.2 9.95 3.373 9.95 3.373-2.368 3.373-9.95-1.2-9.95-3.373-9.95zM53.1 128.04c-.342 0-.646-.23-.912-.608L37.333 105.5v21.43c0 .684-.57 1.063-1.063 1.063-.532 0-1.103-.38-1.103-1.063v-24.925a1.17 1.17 0 0 1 1.14-1.14c.342 0 .646.228.9.607l14.856 21.923v-21.4c0-.684.57-1.063 1.063-1.063.532 0 1.102.38 1.102 1.063v24.925c0 .646-.57 1.102-1.14 1.102z"/><use xlink:href="#G"/><path d="M83.018 128a2.14 2.14 0 1 1 0-4.331 2.14 2.14 0 1 1 0 4.331z"/><use xlink:href="#G" x="39.48"/><path d="M127.284 103.077h-1.178c-.912 0-1.672.76-1.672 1.633v3.116h2.85c.723 0 1.064.57 1.064 1.063 0 .532-.38 1.102-1.064 1.102h-2.85v16.946c0 .684-.53 1.063-1.063 1.063s-1.063-.342-1.063-1.063V110h-2.622c-.684 0-1.063-.57-1.063-1.102 0-.494.38-1.063 1.063-1.063h2.622v-3.116a3.77 3.77 0 0 1 3.761-3.761h1.216c.685 0 1.103.53 1.103 1.102 0 .532-.38 1.026-1.103 1.026zm18.886 25.645c-2.28 0-6.117-.798-7.447-3-.15-.23-.15-.418-.15-.57 0-.607.53-1.14 1.102-1.14.228 0 .607.2.836.532 1.367 1.67 3.8 2.014 5.66 2.014 3.686 0 5.547-1.216 5.547-3.686 0-5.737-12.462-2.698-12.462-10.297 0-3.837 3.837-5.32 7.295-5.32 1.976 0 5.015.685 6.535 2.204.228.228.342.494.342.722 0 .57-.57 1.14-1.178 1.14-.23 0-.494-.076-.722-.304-1.178-1.14-3.306-1.596-4.978-1.596-3.344 0-5.13 1.292-5.13 3.153 0 5.32 12.462 2.508 12.462 10.297 0 4.33-3.8 5.85-7.713 5.85zm26.864-.722c-.532 0-1.102-.38-1.102-1.063v-1.216c-1.596 1.86-3.913 2.925-6.497 2.925-4.7 0-8.663-3.95-8.663-8.662V108.9c0-.684.57-1.063 1.103-1.063.493 0 1.063.38 1.063 1.063v11.095a6.497 6.497 0 1 0 12.994 0V108.9c0-.684.57-1.063 1.102-1.063.494 0 1.064.38 1.064 1.063v18.048c0 .684-.57 1.063-1.064 1.063z"/><use xlink:href="#H"/><path d="M201.003 125.76c-1.672 1.86-3.99 2.887-6.8 2.887-6.117 0-9.536-5.015-9.536-10.752 0-5.7 3.42-10.715 9.536-10.715 2.812 0 5.13 1.026 6.8 2.888.23.23.305.494.305.722 0 .57-.532 1.14-1.103 1.14-.266 0-.53-.114-.798-.38-1.254-1.406-3-2.204-5.205-2.204-4.483 0-7.37 3.61-7.37 8.55s2.888 8.587 7.37 8.587c2.204 0 3.95-.836 5.205-2.204.267-.266.532-.38.798-.38a1.13 1.13 0 0 1 1.103 1.102c0 .267-.076.494-.305.76z"/><use xlink:href="#H" x="26.37"/><path d="M229.046 128c-.532 0-1.102-.38-1.102-1.063v-1.9c-1.596 2.242-4.065 3.61-7.37 3.61-6.117 0-9.536-5.015-9.536-10.752 0-5.7 3.42-10.715 9.536-10.715 3.306 0 5.775 1.368 7.37 3.572v-8.74c0-.684.57-1.063 1.102-1.063.494 0 1.064.38 1.064 1.063v24.925c0 .684-.57 1.063-1.064 1.063zm-8.473-18.655c-4.483 0-7.37 3.61-7.37 8.55s2.888 8.587 7.37 8.587c4.52 0 7.37-3.647 7.37-8.587s-2.85-8.55-7.37-8.55z"/><use xlink:href="#I"/><path d="M263.058 128.722c-2.28 0-6.117-.798-7.447-3-.15-.23-.15-.418-.15-.57 0-.607.53-1.14 1.102-1.14.228 0 .607.19.836.532 1.367 1.67 3.8 2.014 5.66 2.014 3.686 0 5.547-1.216 5.547-3.686 0-5.737-12.462-2.698-12.462-10.297 0-3.837 3.837-5.32 7.295-5.32 1.976 0 5.016.685 6.535 2.204.228.228.342.494.342.722 0 .57-.57 1.14-1.178 1.14-.23 0-.494-.076-.722-.304-1.18-1.14-3.306-1.596-4.978-1.596-3.344 0-5.13 1.292-5.13 3.153 0 5.32 12.462 2.508 12.462 10.297 0 4.33-3.8 5.85-7.713 5.85z"/><use xlink:href="#J"/><use xlink:href="#I" x="70.64"/><path d="M336.016 109.687c-3.57 0-6.497 2.888-6.497 6.497v10.753c0 .684-.57 1.063-1.063 1.063-.532 0-1.103-.38-1.103-1.063V108.9c0-.684.57-1.063 1.103-1.063.494 0 1.063.38 1.063 1.063v1.558c1.7-1.86 3.95-2.925 6.497-2.925.684 0 1.102.57 1.102 1.063 0 .532-.418 1.102-1.102 1.102zM352.583 128c-.57 0-1.063-.418-1.063-1.063v-22.72l-4.142 4.027c-.2.228-.456.342-.722.342-.607 0-1.14-.57-1.14-1.178 0-.23.15-.494.342-.722l6.003-5.813c.304-.228.608-.304.722-.304.798 0 1.103.57 1.103 1.33v25.04c0 .646-.456 1.063-1.103 1.063z"/><use xlink:href="#K"/><use xlink:href="#K" x="19.607"/><path d="M399.057 131.382c-.152.113-.38.15-.57.15-.607 0-1.025-.53-1.025-1.102 0-1.063 1.634-1.216 1.9-2.432-1.14-.076-2.052-1.025-2.052-2.166 0-1.29 1.063-2.203 2.204-2.203 1.86 0 2.28 1.9 2.28 3.077 0 1.862-.988 3.647-2.735 4.674z"/><use xlink:href="#K" x="48.107"/><use xlink:href="#K" x="67.713"/><use xlink:href="#K" x="87.323"/><use xlink:href="#J" x="191.25"/><use xlink:href="#I" x="261.889"/><use xlink:href="#G" x="459.715"/><use xlink:href="#J" x="258.015"/><path d="M567.165 128.228c-2.052 0-3.762-1.9-3.762-4.027v-22.188c0-.684.57-1.063 1.103-1.063.494 0 1.063.38 1.063 1.063V124.2c0 2.432 2.697 1.026 2.697 2.736 0 .645-.455 1.29-1.102 1.29z"/><use xlink:href="#I" x="336.215"/></g><g opacity=".5" fill="#c31432"><path d="M42.428 1046.045c-3.568 0-5.47-1.97-5.503-2.002 0 .935-.7 1.4-1.468 1.4-.7 0-1.4-.467-1.4-1.4v-20.88a1.35 1.35 0 0 1 1.401-1.434c.767 0 1.468.467 1.468 1.4v6.238c1.334-1.368 3.168-2.17 5.503-2.17 5.37 0 8.373 4.403 8.373 9.406 0 5.037-3.002 9.44-8.373 9.44zm0-16c-3.335 0-5.503 2.602-5.503 6.57 0 4.003 2.168 6.604 5.503 6.604s5.504-2.602 5.504-6.604c0-3.97-2.168-6.57-5.504-6.57zm25.555 8.037h-12.34c.467 3.136 2.468 5.137 5.403 5.137 1.5 0 3.002-.533 3.97-1.734.3-.333.634-.533 1.034-.533.734 0 1.5.667 1.5 1.468 0 .4-.1.7-.8 1.4-1.5 1.468-3.57 2.235-5.704 2.235-5.37 0-8.372-4.437-8.372-9.44 0-4.97 3.002-9.406 8.372-9.406 5.437 0 8.34 4.437 8.34 9.406 0 .734-.534 1.468-1.4 1.468zm-6.937-8.038c-3.136 0-4.97 2.3-5.403 5.17H66.45c-.467-3.202-2.468-5.17-5.403-5.17zm27.054 15.444c-1.834 0-2.668-1.3-2.97-1.9-1.334 1.468-3.27 2.47-5.87 2.47-5.437 0-8.372-4.47-8.372-9.44s3.002-9.406 8.372-9.406c2.335 0 4.203.834 5.504 2.202v-.134c0-.367.133-1.5 1.4-1.5.7 0 1.468.367 1.468 1.4v12.875c0 .434.3.6.467.6.935 0 1.435.667 1.435 1.434a1.37 1.37 0 0 1-1.435 1.401zm-8.84-15.443c-3.336 0-5.504 2.602-5.504 6.57 0 4.003 2.168 6.604 5.504 6.604 3.37 0 5.504-2.602 5.504-6.604 0-3.97-2.135-6.57-5.504-6.57z"/><use xlink:href="#L"/><path d="M115.258 1045.478h-.567c-3.17 0-4.37-1.668-4.37-4.403V1030.6h-1c-.8 0-1.435-.634-1.435-1.4 0-.8.634-1.435 1.4-1.435h1v-4.637c0-.934.7-1.4 1.435-1.4s1.4.467 1.4 1.4v4.637h2.135c.934 0 1.4.768 1.4 1.4 0 .8-.533 1.434-1.4 1.434h-2.135v10.774c0 .934.333 1.268 1.268 1.268h.833c.868 0 1.435.634 1.435 1.4 0 .8-.533 1.435-1.4 1.435zm4.604-20.415a2.402 2.402 0 1 1 0-4.803 2.402 2.402 0 1 1 0 4.803zm0 20.414c-.733 0-1.467-.5-1.467-1.4V1029.2c0-.935.733-1.435 1.467-1.435a1.37 1.37 0 0 1 1.401 1.435v14.876c0 .935-.7 1.4-1.4 1.4zm10.376-14.877h-1.5v13.442c0 .935-.7 1.4-1.468 1.4-.7 0-1.4-.467-1.4-1.4V1030.6h-1.37c-.9 0-1.4-.667-1.4-1.4 0-.768.5-1.435 1.4-1.435h1.367v-2.27c0-2.135 1.77-3.77 3.836-3.77.968 0 1.468.667 1.468 1.434 0 .7-.5 1.4-1.468 1.4-.566 0-.967.434-.967.9v2.302h1.5c.967 0 1.468.667 1.468 1.435 0 .733-.5 1.4-1.468 1.4z"/><use xlink:href="#L" x="42.068"/><path d="M154.825 1045.544c-1.802 0-3.336-1.534-3.336-3.402v-18.98c0-.967.7-1.434 1.435-1.434s1.435.467 1.435 1.4v19.013c0 .4.3.567.467.567.934 0 1.435.667 1.435 1.435 0 .733-.5 1.4-1.435 1.4zm15.37-.066v-1.264c1.886-.237 2.046-.437 2.046-3.157v-6.7c0-2.8-1.248-4.017-3.064-4.017-1.237 0-2.345.6-3.47 1.493v9.476c0 2.527.187 2.658 2.06 2.896v1.264h-8.968v-1.264c2.254-.33 2.5-.4 2.5-3v-8.2c0-2.446-.303-2.565-2.185-2.922v-1.184c2.173-.292 4.63-.807 6.653-1.533l-.052 2.95 2.6-1.745c1.16-.713 2-1.086 3.16-1.086 3.194 0 5.2 2.338 5.2 6.3v7.5c0 2.54.237 2.657 2.277 2.92v1.264h-8.74zm23.9-3.703c-2.458 3.427-5.488 4.178-7.014 4.178-5.142 0-8.124-3.936-8.124-8.594 0-2.745 1.183-5.396 2.832-7.062 1.74-1.8 3.945-2.814 6.082-2.814 3.73 0 6.396 3.126 6.37 6.347-.014.715-.08 1.277-.612 1.4-.767.184-6.17.5-10.318.647.062 4.587 2.717 6.74 5.556 6.74 1.572 0 3.104-.597 4.543-1.866l.686 1.014zm-7.07-12.7c-1.667 0-3.167 1.807-3.516 4.963l5.486-.118c.6-.026.848-.146.848-.792.04-2.022-1.037-4.053-2.818-4.053zm34.284.145c-1.943.343-2.248.624-3.105 2.765-1.33 3.462-3.102 8.53-4.934 13.94h-1.512l-4.65-11.46-4.55 11.46h-1.472l-4.685-14.192c-.687-1.985-.94-2.274-2.855-2.512v-1.25h9.397v1.25c-2.325.345-2.535.672-2.058 2.133l2.52 8.214c1.507-3.68 2.988-7.62 4.327-11.424h1.456c1.4 3.76 2.986 7.702 4.573 11.568.742-2.107 2.062-5.964 2.557-8.108.412-1.674-.008-2.078-2.753-2.383v-1.25h7.742v1.25zm9.4 3.746c-.92-2.606-2.155-3.984-4.2-3.984-1.206 0-2.225.86-2.225 2.266 0 1.497 1.046 2.264 3.16 3.216 3.278 1.496 5.3 2.787 5.3 5.736 0 3.85-3.6 5.764-6.945 5.764-2.06 0-4.088-.737-4.92-1.16l-.662-4.892 1.252-.224c.8 2.5 2.33 4.75 4.976 4.75 1.505 0 2.438-.952 2.438-2.28 0-1.423-.76-2.333-3.092-3.467-2.67-1.295-5.107-2.64-5.107-5.775 0-3.046 2.533-5.42 6.565-5.42 1.818 0 3.242.396 4.112.567l.62 4.577-1.25.328z"/></g><g opacity=".7" fill="#c31432"><path d="M706.723 1046.357c-1.2 0-3.22-.42-3.92-1.58-.08-.12-.08-.22-.08-.3 0-.32.28-.602.58-.602.12 0 .32.102.44.28.72.88 2 1.06 2.98 1.06 1.94 0 2.92-.64 2.92-1.94 0-3.02-6.562-1.42-6.562-5.422 0-2.02 2.02-2.8 3.84-2.8 1.04 0 2.64.36 3.44 1.16.12.12.18.26.18.38a.65.65 0 0 1-.62.6c-.12 0-.26-.04-.38-.16-.62-.6-1.74-.84-2.62-.84-1.76 0-2.7.682-2.7 1.66 0 2.8 6.562 1.32 6.562 5.422 0 2.28-2 3.08-4.06 3.08z"/><use xlink:href="#M"/><path d="M733.224 1045.98c-.28 0-.58-.2-.58-.56v-.64c-.84.98-2.06 1.54-3.42 1.54-2.48 0-4.56-2.08-4.56-4.56v-5.842c0-.36.3-.56.58-.56.26 0 .56.2.56.56v5.842c0 1.9 1.52 3.42 3.42 3.42s3.42-1.52 3.42-3.42v-5.842c0-.36.3-.56.58-.56.26 0 .56.2.56.56v9.502c0 .36-.3.56-.56.56zm7.96-9.644a3.42 3.42 0 0 0-3.421 3.42v5.662c0 .36-.3.56-.56.56-.28 0-.58-.2-.58-.56v-9.502c0-.36.3-.56.58-.56.26 0 .56.2.56.56v.82c.9-.98 2.08-1.54 3.42-1.54.36 0 .58.3.58.56a.58.58 0 0 1-.58.58z"/><use xlink:href="#N"/><use xlink:href="#O"/><path d="M766.92 1039.416c-.64 0-1.16-.5-1.16-1.14s.52-1.14 1.16-1.14c.62 0 1.12.5 1.12 1.14s-.5 1.14-1.12 1.14zm0 6.563c-.64 0-1.16-.5-1.16-1.14s.52-1.14 1.16-1.14c.62 0 1.12.5 1.12 1.14s-.5 1.14-1.12 1.14zm14.222.34c-4.4 0-5.82-3.7-5.82-7.46 0-3.742 1.42-7.482 5.82-7.482 1.8 0 3.38.64 4.44 2.18.1.102.12.2.12.32 0 .32-.3.56-.62.56-.28 0-.44-.24-.66-.52-.7-.9-1.76-1.4-3.28-1.4-3.02 0-4.682 2.32-4.682 6.342 0 3.04.96 6.32 4.682 6.32 3.16 0 4.54-2.42 4.68-5.74h-2.44a.57.57 0 0 1-.6-.58c0-.28.2-.58.56-.58h3.04c.34 0 .58.238.58.58 0 3.9-1.54 7.46-5.82 7.46z"/><use xlink:href="#P"/><use xlink:href="#M" x="80.717"/><path d="M810.58 1046.318c-1.74 0-3.04-.72-3.88-1.9v1c0 .36-.3.56-.56.56-.28 0-.58-.2-.58-.56v-13.123c0-.36.3-.56.58-.56.26 0 .56.2.56.56v4.602c.84-1.16 2.14-1.88 3.88-1.88 3.22 0 5.02 2.64 5.02 5.64 0 3.02-1.8 5.662-5.02 5.662zm0-10.162c-2.38 0-3.88 1.9-3.88 4.5s1.5 4.52 3.88 4.52 3.88-1.92 3.88-4.52-1.5-4.5-3.88-4.5z"/><use xlink:href="#Q"/><use xlink:href="#P" x="41.6"/><path d="M849.56 1045.98c-.26 0-.56-.18-.56-.56v-6.502h-7.762v6.502c0 .36-.26.56-.56.56-.28 0-.58-.18-.58-.56v-13.123c0-.38.3-.56.58-.56.3 0 .56.2.56.56v5.48H849v-5.48c0-.36.26-.56.56-.56.28 0 .58.18.58.56v13.123c0 .36-.28.56-.58.56zm12.44-4.744h-8.3c.18 2.28 1.66 3.94 3.84 3.94 1.08 0 2.36-.48 2.94-1.38.14-.22.3-.28.48-.28.3 0 .62.24.62.54 0 .18 0 .22-.38.658-.92 1.082-2.26 1.602-3.66 1.602-3.22 0-5.02-2.64-5.02-5.662 0-3 1.8-5.64 5.02-5.64s5.02 2.66 5.02 5.64c0 .3-.28.58-.56.58zm-4.46-5.08c-2.4 0-3.66 1.84-3.84 3.94h7.7c-.18-2.28-1.66-3.94-3.86-3.94z"/><use xlink:href="#Q" x="46.958"/><use xlink:href="#P" x="88.558"/><use xlink:href="#R"/><use xlink:href="#S"/><path d="M909.9 1045.98h-4.44a.61.61 0 0 1-.58-.561v-13.123c0-.3.28-.56.58-.56h4.44c4.12 0 5.48 3.44 5.48 7.102 0 3.72-1.36 7.143-5.48 7.143zm0-13.123h-3.88v11.982h3.88c3.42 0 4.34-2.96 4.34-5.98 0-3.562-1.24-6.002-4.34-6.002z"/><use xlink:href="#Q" x="99.898"/><use xlink:href="#R" x="48.56"/><use xlink:href="#Q" x="118.778"/><path d="M963.96 1045.98h-8.882a.61.61 0 0 1-.58-.561v-13.123c0-.3.28-.56.58-.56h8.882a.55.55 0 0 1 .58.561.55.55 0 0 1-.58.561h-8.32v4.92h6.1a.55.55 0 0 1 .58.561c0 .28-.2.58-.56.58h-6.12v5.922h8.32c.38 0 .58.3.58.58a.55.55 0 0 1-.58.561zm10.578.018c-.16 0-.3-.06-.42-.22l-3.54-4.48-3.54 4.48c-.12.16-.26.22-.42.22-.32 0-.6-.24-.6-.56a.63.63 0 0 1 .12-.4l3.7-4.66-3.24-4.08a.7.7 0 0 1-.14-.4c0-.32.3-.56.62-.56.16 0 .3.06.42.22l3.08 3.9 3.1-3.9a.44.44 0 0 1 .399-.221c.32 0 .62.24.62.56 0 .12-.04.24-.14.36l-3.26 4.12 3.72 4.66c.12.14.16.262.16.4 0 .32-.32.56-.64.56z"/><use xlink:href="#N" x="233.856"/><use xlink:href="#S" x="99.578"/><use xlink:href="#Q" x="181.578"/><path d="M1020.958 1045.98c-.28 0-.58-.2-.58-.56v-5.842c0-1.9-1.52-3.42-3.42-3.42a3.42 3.42 0 0 0-3.421 3.42v5.842c0 .36-.3.56-.56.56-.28 0-.58-.2-.58-.56v-9.502c0-.36.3-.56.58-.56.26 0 .56.2.56.56v.64c.9-.98 2.08-1.54 3.42-1.54a4.6 4.6 0 0 1 4.561 4.561v5.842c0 .36-.3.56-.56.56zm7.78 4.56c-1.7 0-4.102-.64-4.102-1.36 0-.32.26-.64.58-.64.22 0 .68.34 1.06.48.52.18 1.34.38 2.46.38 2.56 0 3.88-1.26 3.88-3.72v-1.4c-.88 1.06-2.14 1.7-3.88 1.7-3.16 0-5.02-2.24-5.02-5.322 0-3 1.8-5.64 5.02-5.64 1.74 0 3.04.72 3.88 1.88v-.96c0-.36.3-.56.58-.56.26 0 .56.2.56.56v9.742c0 3.182-1.9 4.86-5.02 4.86zm0-14.383c-2.36 0-3.88 1.9-3.88 4.5 0 2.582 1.42 4.182 3.88 4.182s3.88-1.6 3.88-4.182c0-2.6-1.5-4.5-3.88-4.5z"/><use xlink:href="#O" x="282.675"/></g><g fill="#240b36"><path d="M52.3 81.02c-13.2 0-17.46-11.1-17.46-22.38 0-11.58 4.56-22.44 17.46-22.44 5.46 0 10.02 1.92 13.32 6.54.36.48.54 1.02.54 1.5 0 1.44-1.5 2.58-2.88 2.58-1.08 0-1.2-.48-2.16-1.56-1.92-2.34-4.5-3.9-8.82-3.9-9.24 0-12.3 7.86-12.3 17.28 0 8.22 2.22 17.28 12.3 17.28 7.32 0 11.7-5.22 12.12-13.86h-5.4c-1.74 0-2.64-1.26-2.64-2.58s.9-2.58 2.52-2.58h8.22c1.56 0 2.64 1.08 2.64 2.64-.24 11.22-4.74 21.48-17.46 21.48z"/><use xlink:href="#T"/><path d="M95.258 81.02c-9.66 0-15.06-7.92-15.06-16.98 0-9 5.4-16.92 15.06-16.92s15.06 7.92 15.06 16.92c0 9.06-5.4 16.98-15.06 16.98zm0-28.8c-6 0-9.9 4.68-9.9 11.82 0 7.2 3.9 11.88 9.9 11.88 6.06 0 9.9-4.68 9.9-11.88 0-7.14-3.84-11.82-9.9-11.82z"/><use xlink:href="#U"/><use xlink:href="#V"/><use xlink:href="#T" x="107.279"/><path d="M211.415 81.02c-4.38 0-10.5-1.8-13.92-4.98-.66-.6-.84-1.26-.84-1.86a2.6 2.6 0 0 1 2.58-2.58c.9 0 1.2.3 2.28 1.14 2.94 2.22 6.42 3.18 9.9 3.18 7.14 0 10.26-2.58 10.26-7.02 0-12.48-23.94-5.4-23.94-21.72 0-7.32 6.18-10.98 14.1-10.98 4.14 0 10.08 1.62 13.02 5.1.48.54.66 1.08.66 1.62 0 1.44-1.32 2.7-2.58 2.7-.9 0-1.38-.42-2.4-1.32-2.4-2.04-5.46-2.94-8.7-2.94-6.48 0-8.94 2.58-8.94 5.82 0 11.22 23.94 4.56 23.94 21.72 0 8.94-7.5 12.12-15.42 12.12zm42.54-.96c-1.14 0-2.28-.66-2.52-1.98-2.4 1.86-5.34 3-8.64 3-7.44 0-13.68-6.18-13.68-13.68V50.78c0-1.68 1.26-2.58 2.52-2.58 1.38 0 2.64.9 2.64 2.52V67.4c0 4.68 3.9 8.58 8.52 8.58 4.68 0 8.58-3.9 8.58-8.58V50.78c0-1.86 1.2-2.64 2.52-2.64 1.38 0 2.58.9 2.58 2.58v26.82c0 1.68-1.2 2.52-2.52 2.52z"/><use xlink:href="#W"/><path d="M294.813 76.46c-2.64 2.94-6.3 4.56-10.74 4.56-9.66 0-15.06-7.92-15.06-16.98 0-9 5.4-16.92 15.06-16.92 4.44 0 8.1 1.62 10.74 4.56.48.54.72 1.14.72 1.74 0 1.32-1.32 2.58-2.7 2.58-.54 0-1.2-.24-1.86-.84-1.68-1.86-3.9-2.94-6.9-2.94-6 0-9.9 4.68-9.9 11.82 0 7.2 3.9 11.88 9.9 11.88 3 0 5.28-1.14 6.9-2.94.54-.66 1.26-.9 1.86-.9 1.38 0 2.7 1.2 2.7 2.64 0 .54-.24 1.2-.72 1.74z"/><use xlink:href="#W" x="37.017"/><use xlink:href="#X"/><use xlink:href="#Y"/><path d="M407.73 80.06c-.66 0-1.44-.36-1.98-1.08l-12.48-17.46h-7.74v15.9c0 1.68-1.26 2.58-2.64 2.58-1.26 0-2.52-.9-2.52-2.52V39.862c0-1.08.72-2.58 2.52-2.58h15.54c5.28 0 12.06 4.14 12.06 12.06 0 6.3-4.74 11.58-11.04 12.12l10.5 14.46c.42.54.54 1.02.54 1.56 0 1.44-1.38 2.58-2.76 2.58zm-9.36-37.68h-12.84v14.04h12.78c3.9 0 7.02-3.18 7.02-7.08 0-4.08-3.48-6.96-6.96-6.96zM442.9 80c-3.3 0-4.8-2.34-5.34-3.42-2.4 2.64-5.88 4.44-10.56 4.44-9.78 0-15.06-8.04-15.06-16.98s5.4-16.92 15.06-16.92c4.2 0 7.56 1.5 9.9 3.96v-.24c0-.66.24-2.7 2.52-2.7 1.26 0 2.64.66 2.64 2.52v23.16c0 .78.54 1.08.84 1.08 1.68 0 2.58 1.2 2.58 2.58 0 1.26-.9 2.52-2.58 2.52zM427 52.222c-6 0-9.9 4.68-9.9 11.82 0 7.2 3.9 11.88 9.9 11.88 6.06 0 9.9-4.68 9.9-11.88 0-7.14-3.84-11.82-9.9-11.82zM458.07 80h-1.02c-5.7 0-7.86-3-7.86-7.92V53.24h-1.8c-1.44 0-2.58-1.14-2.58-2.52 0-1.44 1.14-2.58 2.52-2.58h1.8V39.8c0-1.68 1.26-2.52 2.58-2.52s2.52.84 2.52 2.52v8.34h3.84c1.68 0 2.52 1.38 2.52 2.52 0 1.44-.96 2.58-2.52 2.58h-3.84v19.38c0 1.68.6 2.28 2.28 2.28h1.5c1.56 0 2.58 1.14 2.58 2.52 0 1.44-.96 2.58-2.52 2.58z"/><use xlink:href="#Y" x="121.32"/><path d="M502.528 81.02c-3.3 0-8.82-1.02-11.64-4.5-.36-.54-.54-1.08-.54-1.56 0-1.5 1.44-2.7 2.7-2.7.72 0 1.26.36 1.86 1.02 1.86 2.04 4.92 2.64 7.62 2.64 5.4 0 7.14-1.86 7.14-4.56 0-7.68-18.3-2.94-18.3-15.3 0-6.54 6.12-8.94 11.82-8.94 3.24 0 10.86 1.62 10.86 4.98 0 1.32-1.08 2.7-2.52 2.7-.54 0-1.38-.3-1.98-.78-1.62-1.38-3.96-1.8-6.36-1.8-4.98 0-6.72 1.86-6.72 3.84 0 7.14 18.36 2.52 18.36 15.3 0 7.08-5.94 9.66-12.3 9.66zm50.94-1.02c-1.32 0-2.64-.9-2.64-2.52V59.66h-19.8v17.82c0 1.62-1.38 2.52-2.52 2.52-1.32 0-2.64-.9-2.64-2.52V39.802c0-1.68 1.32-2.52 2.64-2.52 1.14 0 2.52.84 2.52 2.52v14.76h19.8v-14.7c0-1.74 1.38-2.58 2.52-2.58 1.32 0 2.64.84 2.64 2.58V77.42c0 1.68-1.38 2.58-2.52 2.58zm37.5 0c-3.3 0-4.8-2.34-5.34-3.42-2.4 2.64-5.88 4.44-10.56 4.44-9.78 0-15.06-8.04-15.06-16.98s5.4-16.92 15.06-16.92c4.2 0 7.56 1.5 9.9 3.96v-.24c0-.66.24-2.7 2.52-2.7 1.26 0 2.64.66 2.64 2.52v23.16c0 .78.54 1.08.84 1.08 1.68 0 2.58 1.2 2.58 2.58 0 1.26-.9 2.52-2.58 2.52zM575.07 52.22c-6 0-9.9 4.68-9.9 11.82 0 7.2 3.9 11.88 9.9 11.88 6.06 0 9.9-4.68 9.9-11.88 0-7.14-3.84-11.82-9.9-11.82zm46.618-.538l-10.92 26.28c-.54 1.38-1.44 2.04-2.58 2.04-1.02 0-1.98-.66-2.58-2.04l-10.92-26.28c-.12-.42-.18-.72-.18-1.08 0-1.44 1.32-2.46 2.64-2.46.9 0 1.8.48 2.28 1.56l8.76 21 8.76-21c.42-1.14 1.5-1.62 2.34-1.62 1.38 0 2.64.96 2.64 2.46 0 .3-.06.72-.24 1.14z"/><use xlink:href="#Z"/><path d="M690.984 42.382h-22.44V54.5h15.72a2.56 2.56 0 0 1 2.58 2.58c0 1.38-1.02 2.58-2.58 2.58h-15.72v17.82c0 1.38-1.2 2.52-2.52 2.52-1.44 0-2.64-1.14-2.64-2.52V39.862c0-1.44 1.2-2.58 2.64-2.58h24.96c1.56 0 2.52 1.14 2.52 2.52 0 1.26-.9 2.58-2.52 2.58z"/><use xlink:href="#V" x="544.484"/><use xlink:href="#T" x="654.162"/><use xlink:href="#T" x="667.122"/><use xlink:href="#Z" x="126.534"/><path d="M805.518 80c-1.32 0-2.52-.9-2.52-2.52V60.8c0-4.68-3.9-8.58-8.58-8.58-4.62 0-8.52 3.9-8.52 8.58v16.62c0 1.68-1.26 2.64-2.64 2.64-1.26 0-2.52-.9-2.52-2.58v-26.82c0-1.74 1.26-2.52 2.52-2.52 1.2 0 2.28.66 2.58 1.98 2.34-1.86 5.28-3 8.58-3 7.44 0 13.68 6.18 13.68 13.68v16.62c0 1.68-1.2 2.58-2.58 2.58z"/><use xlink:href="#U" x="707.801"/><path d="M879.857 51.742l-16.2 36.838c-1.2 2.76-3.84 4.02-6.6 4.02h-1.92c-1.74 0-2.52-1.26-2.52-2.64 0-1.26.78-2.52 2.52-2.52H857c.78 0 1.62-.12 1.98-.96l3.96-8.88-11.7-25.86c-.24-.42-.3-.78-.3-1.14 0-1.5 1.44-2.52 2.76-2.52.9 0 1.68.48 2.16 1.56l9.78 21.72 9.54-21.72c.48-1.08 1.38-1.5 2.22-1.5 1.38 0 2.76 1.02 2.76 2.46 0 .42-.06.72-.3 1.14z"/><use xlink:href="#V" x="744.522"/><path d="M955.757 42.382h-9.96v35.1c0 1.62-1.2 2.52-2.52 2.52-1.26 0-2.58-.9-2.58-2.52v-35.1h-9.84c-1.74 0-2.64-1.32-2.64-2.58 0-1.2.9-2.52 2.58-2.52h24.96c1.68 0 2.58 1.32 2.58 2.52 0 1.26-.9 2.58-2.58 2.58zM984.795 80c-1.32 0-2.52-.9-2.52-2.52V60.8c0-4.68-3.9-8.58-8.58-8.58-4.62 0-8.52 3.9-8.52 8.58v16.62c0 1.68-1.26 2.64-2.64 2.64-1.26 0-2.52-.9-2.52-2.58V39.862c0-1.74 1.26-2.58 2.52-2.58 1.38 0 2.64.84 2.64 2.52v10.38c2.22-2.1 5.22-3.06 8.52-3.06 7.44 0 13.68 6.18 13.68 13.68v16.62c0 1.68-1.2 2.58-2.58 2.58z"/><use xlink:href="#W" x="731.561"/><path d="M1015.636 52.222c-4.62 0-8.52 3.9-8.52 8.58v16.62c0 1.68-1.26 2.58-2.64 2.58-1.26 0-2.52-.9-2.52-2.52v-26.76c0-1.68 1.38-2.58 2.52-2.58 1.2 0 2.34.66 2.58 2.04 2.34-1.92 5.52-3.06 8.58-3.06 1.74 0 2.64 1.2 2.64 2.58 0 1.32-.9 2.52-2.64 2.52z"/><use xlink:href="#X" x="710.026"/></g><defs ><path id="D" d="M1024.9 1001.946v-1.92h2.836v-18.56l-2.9.256v-1.408c1.32-.32 2.6-.896 3.674-1.79h1.547v21.502h2.707v1.92h-7.863z"/><path id="E" d="M80.45 997.658c.322 2.305 1.61 2.688 2.514 2.688 2.063 0 3.352-2.816 3.416-9.248-.935.992-2.19 1.76-3.577 1.76-2.6 0-4.995-1.856-4.995-7.104 0-4.48 1.934-7.23 4.995-7.23 4.028 0 5.962 2.304 5.962 10.623 0 9.28-2.19 13.12-5.865 13.12-2.997 0-4.125-1.792-4.576-4.48l2.127-.128zm5.994-10.88c0-4.672-1.225-6.336-3.287-6.336-1.805 0-3.03 1.345-3.03 5.344 0 4.128 1.418 5.152 2.9 5.152s2.643-.96 3.416-1.984v-2.176z"/><path id="F" d="M34.305 168.728v-1.92h2.9v-18.56l-2.976.256v-1.408c1.355-.32 2.678-.896 3.77-1.792h1.587v21.502h2.778v1.92h-8.068z"/><path id="G" d="M67.55 128.646c-6.117 0-9.536-5.015-9.536-10.752 0-5.7 3.42-10.715 9.536-10.715s9.537 5.016 9.537 10.715c0 5.737-3.42 10.752-9.537 10.752zm0-19.3c-4.483 0-7.37 3.61-7.37 8.55s2.888 8.587 7.37 8.587c4.52 0 7.37-3.647 7.37-8.587s-2.85-8.55-7.37-8.55z"/><path id="H" d="M179.84 104.178a2.14 2.14 0 1 1 0-4.332 2.14 2.14 0 0 1 0 4.332zm0 23.822c-.532 0-1.103-.342-1.103-1.063V108.89c0-.684.532-1.063 1.103-1.063.494 0 1.063.342 1.063 1.063v18.048c0 .684-.494 1.063-1.063 1.063z"/><path id="I" d="M251.885 118.996h-15.768c.342 4.332 3.153 7.485 7.295 7.485 2.052 0 4.483-.912 5.585-2.622.267-.418.57-.53.912-.53.57 0 1.178.455 1.178 1.025 0 .342 0 .418-.722 1.254-1.748 2.052-4.293 3.04-6.953 3.04-6.117 0-9.536-5.015-9.536-10.752 0-5.7 3.42-10.715 9.536-10.715s9.537 5.054 9.537 10.715c0 .57-.532 1.102-1.064 1.102zm-8.473-9.65c-4.56 0-6.953 3.495-7.295 7.485h14.628c-.342-4.332-3.153-7.485-7.333-7.485z"/><path id="J" d="M292.088 128.646c-3.306 0-5.775-1.367-7.37-3.61v9.84c0 .684-.57 1.102-1.063 1.102-.532 0-1.103-.418-1.103-1.102V108.89c0-.684.57-1.063 1.103-1.063.494 0 1.063.38 1.063 1.063v1.862c1.596-2.204 4.065-3.572 7.37-3.572 6.117 0 9.536 5.016 9.536 10.715 0 5.737-3.42 10.752-9.536 10.752zm0-19.3c-4.52 0-7.37 3.61-7.37 8.55s2.85 8.587 7.37 8.587 7.37-3.647 7.37-8.587-2.85-8.55-7.37-8.55z"/><path id="K" d="M365.807 128.646c-8.055 0-8.13-9.65-8.13-15.197 0-5.434.836-13.185 8.093-13.185 7.105 0 8.17 7.295 8.17 13.185 0 5.51-.114 15.197-8.13 15.197zm5.965-15.197c0-5.434-.76-11.02-5.965-11.02-5.7 0-5.965 6.99-5.965 11.02v2.432c0 4.407.836 10.6 5.927 10.6 5.205 0 6.003-6.193 6.003-10.6v-2.432z"/><path id="L" d="M104.814 1045.51c-.633 0-1.267-.367-1.4-1.1-1.334 1.034-2.97 1.668-4.804 1.668-4.136 0-7.604-3.436-7.604-7.605v-9.24a1.37 1.37 0 0 1 1.4-1.435c.768 0 1.468.5 1.468 1.4v9.272c0 2.602 2.168 4.77 4.736 4.77 2.603 0 4.77-2.17 4.77-4.77v-9.24c0-1.034.667-1.468 1.4-1.468.768 0 1.435.5 1.435 1.435v14.9c0 .934-.667 1.4-1.4 1.4z"/><path id="M" d="M717.443 1046.318c-3.22 0-5.02-2.64-5.02-5.662 0-3 1.8-5.64 5.02-5.64s5.02 2.64 5.02 5.64c0 3.02-1.8 5.662-5.02 5.662zm0-10.162c-2.36 0-3.88 1.9-3.88 4.5s1.52 4.52 3.88 4.52c2.38 0 3.88-1.92 3.88-4.52s-1.5-4.5-3.88-4.5z"/><path id="N" d="M751.362 1044.797c-.88.98-2.1 1.52-3.58 1.52-3.22 0-5.02-2.64-5.02-5.662 0-3 1.8-5.64 5.02-5.64 1.48 0 2.7.54 3.58 1.52.12.12.16.262.16.38 0 .3-.28.6-.58.6-.14 0-.28-.06-.42-.2-.66-.74-1.58-1.16-2.74-1.16-2.36 0-3.88 1.9-3.88 4.5s1.52 4.52 3.88 4.52c1.16 0 2.08-.44 2.74-1.16.14-.14.28-.2.42-.2.3 0 .58.26.58.58 0 .14-.04.26-.16.398z"/><path id="O" d="M762.943 1041.236h-8.302c.18 2.28 1.66 3.94 3.84 3.94 1.08 0 2.36-.48 2.94-1.38.14-.22.3-.28.48-.28.3 0 .62.24.62.54 0 .18 0 .22-.38.658-.92 1.082-2.26 1.602-3.66 1.602-3.22 0-5.02-2.64-5.02-5.662 0-3 1.8-5.64 5.02-5.64s5.02 2.66 5.02 5.64c0 .3-.28.58-.56.58zm-4.46-5.08c-2.4 0-3.66 1.84-3.84 3.94h7.7c-.18-2.28-1.66-3.94-3.86-3.94z"/><path id="P" d="M791.2 1046.098c-1.08 0-1.98-1-1.98-2.12v-11.684c0-.36.3-.56.58-.56.26 0 .56.2.56.56v11.684c0 1.28 1.42.54 1.42 1.44 0 .34-.24.68-.58.68z"/><path id="Q" d="M828.422 1045.98h-.02c-.66 0-1.6-.36-1.98-1.56-.84 1.18-2.14 1.9-3.88 1.9-3.26 0-5.02-2.682-5.02-5.662 0-3.02 1.8-5.64 5.02-5.64 1.74 0 3.04.72 3.88 1.88v-.98c0-.32.26-.56.58-.56.28 0 .56.2.56.56v8.063c0 1.28 1.44.48 1.44 1.44a.55.55 0 0 1-.58.561zm-5.88-9.822c-2.36 0-3.88 1.9-3.88 4.5s1.52 4.52 3.88 4.52c2.38 0 3.88-1.92 3.88-4.52s-1.5-4.5-3.88-4.5z"/><path id="R" d="M885.818 1045.98h-.62c-1.58 0-2.36-.78-2.36-2.342v-7.14h-1.02c-.36 0-.56-.3-.56-.58 0-.26.2-.56.56-.56h1.02v-3.06c0-.36.3-.56.58-.56s.56.2.56.56v3.06h1.84c.36 0 .56.3.56.56 0 .28-.2.58-.56.58h-1.84v7.14c0 .98.28 1.2 1.22 1.2h.62c.36 0 .56.3.56.58 0 .26-.2.56-.56.56z"/><path id="S" d="M896.76 1045.98c-.28 0-.58-.2-.58-.56v-5.842c0-1.9-1.52-3.42-3.42-3.42a3.42 3.42 0 0 0-3.421 3.42v5.842c0 .36-.3.56-.56.56-.28 0-.58-.2-.58-.56v-13.123c0-.36.3-.56.58-.56.26 0 .56.2.56.56v4.262c.84-.98 2.06-1.54 3.42-1.54a4.6 4.6 0 0 1 4.561 4.561v5.842c0 .36-.3.56-.56.56z"/><path id="T" d="M77.858 80.12c-3.24 0-6-2.76-6-6.12V39.862c0-1.74 1.26-2.58 2.58-2.58s2.58.84 2.58 2.52V74c0 .72.54 1.02.84 1.02 1.68 0 2.58 1.2 2.58 2.58 0 1.32-.9 2.52-2.58 2.52z"/><path id="U" d="M128.197 81.02c-6.42 0-9.84-3.54-9.9-3.6 0 1.68-1.26 2.52-2.64 2.52-1.26 0-2.52-.84-2.52-2.52V39.862c0-1.74 1.26-2.58 2.52-2.58 1.38 0 2.64.84 2.64 2.52v11.22c2.4-2.46 5.7-3.9 9.9-3.9 9.66 0 15.06 7.92 15.06 16.92 0 9.06-5.4 16.98-15.06 16.98zm0-28.8c-6 0-9.9 4.68-9.9 11.82 0 7.2 3.9 11.88 9.9 11.88s9.9-4.68 9.9-11.88c0-7.14-3.9-11.82-9.9-11.82z"/><path id="V" d="M175.656 80c-3.3 0-4.8-2.34-5.34-3.42-2.4 2.64-5.88 4.44-10.56 4.44-9.78 0-15.06-8.04-15.06-16.98s5.4-16.92 15.06-16.92c4.2 0 7.56 1.5 9.9 3.96v-.24c0-.66.24-2.7 2.52-2.7 1.26 0 2.64.66 2.64 2.52v23.16c0 .78.54 1.08.84 1.08 1.68 0 2.58 1.2 2.58 2.58 0 1.26-.9 2.52-2.58 2.52zm-15.9-27.78c-6 0-9.9 4.68-9.9 11.82 0 7.2 3.9 11.88 9.9 11.88 6.06 0 9.9-4.68 9.9-11.88 0-7.14-3.84-11.82-9.9-11.82z"/><path id="W" d="M263.436 43.282a4.3 4.3 0 1 1 0-8.64 4.3 4.3 0 1 1 0 8.64zm0 36.72c-1.32 0-2.64-.9-2.64-2.52v-26.76c0-1.68 1.32-2.58 2.64-2.58 1.26 0 2.52.9 2.52 2.58v26.76c0 1.68-1.26 2.52-2.52 2.52z"/><path id="X" d="M333.57 79.94c-1.32 0-2.58-.84-2.58-2.52 0 0-3.54 3.6-9.9 3.6-9.66 0-15.06-7.92-15.06-16.98 0-9 5.4-16.92 15.06-16.92 4.2 0 7.56 1.44 9.9 3.9v-11.16c0-1.74 1.26-2.58 2.58-2.58s2.58.84 2.58 2.52V77.42c0 1.68-1.26 2.52-2.58 2.52zm-12.48-27.72c-6 0-9.9 4.68-9.9 11.82 0 7.2 3.9 11.88 9.9 11.88 6.06 0 9.9-4.68 9.9-11.88 0-7.14-3.84-11.82-9.9-11.82z"/><path id="Y" d="M366.51 66.68h-22.2c.84 5.64 4.44 9.24 9.72 9.24 2.7 0 5.4-.96 7.14-3.12.54-.6 1.14-.96 1.86-.96 1.32 0 2.7 1.2 2.7 2.64 0 .72-.18 1.26-1.44 2.52-2.7 2.64-6.42 4.02-10.26 4.02-9.66 0-15.06-7.98-15.06-16.98 0-8.94 5.4-16.92 15.06-16.92 9.78 0 15 7.98 15 16.92 0 1.32-.96 2.64-2.52 2.64zm-12.48-14.46c-5.64 0-8.94 4.14-9.72 9.3h19.44c-.84-5.76-4.44-9.3-9.72-9.3z"/><path id="Z" d="M649.526 66.68h-22.2c.84 5.64 4.44 9.24 9.72 9.24 2.7 0 5.4-.96 7.14-3.12.54-.6 1.14-.96 1.86-.96 1.32 0 2.7 1.2 2.7 2.64 0 .72-.18 1.26-1.44 2.52-2.7 2.64-6.42 4.02-10.26 4.02-9.66 0-15.06-7.98-15.06-16.98 0-8.94 5.4-16.92 15.06-16.92 9.78 0 15 7.98 15 16.92 0 1.32-.96 2.64-2.52 2.64zm-12.48-14.46c-5.64 0-8.94 4.14-9.72 9.3h19.438c-.84-5.76-4.44-9.3-9.72-9.3z"/></defs></svg>