<svg xmlns="http://www.w3.org/2000/svg" xmlns:xlink="http://www.w3.org/1999/xlink" viewBox="0 0 1080 1080"><style><![CDATA[.T{stroke-miterlimit:10}.U{fill:#fff}.V{stroke-width:2}.W{stroke-linecap:round}]]></style><linearGradient id="A" gradientUnits="userSpaceOnUse" x1="11.75" y1="11.75" x2="1068.25" y2="1068.25"><stop offset="0" stop-color="#4d7fee"/><stop offset=".22" stop-color="#7388ba"/><stop offset=".484" stop-color="#9c9183"/><stop offset=".712" stop-color="#ba975a"/><stop offset=".891" stop-color="#cc9b41"/><stop offset="1" stop-color="#d39d38"/></linearGradient><path d="M1080,1040c0,22-18,40-40,40H40c-22,0-40-18-40-40V40C0,18,18,0,40,0h1000c22,0,40,18,40,40V1040z" fill="url(#A)"/><g fill="#ff0"><path d="M127.946 426.887v-1.806h2.464v-17.46l-2.52.24v-1.325c1.148-.3 2.268-.843 3.192-1.686h1.344v20.23h2.352v1.806h-6.832zm8.354-21.737h9.072v1.144l-5.88 20.592h-2.128l5.88-19.93H136.3v-1.807zm14.717 22.038c-3.136 0-4.984-2.65-4.984-5.78 0-2.68 1.316-4.606 3.248-6.082-1.792-1.535-2.8-3.04-2.8-5.6 0-2.86 2.016-4.877 4.536-4.877s4.536 2.017 4.536 4.877c0 2.56-1.008 4.064-2.8 5.6 1.932 1.475 3.248 3.402 3.248 6.082 0 3.13-1.848 5.78-4.984 5.78zm0-10.718c-1.624 1.294-2.968 2.68-2.968 5.028 0 1.776.896 3.883 2.968 3.883s2.968-2.107 2.968-3.883c0-2.35-1.344-3.733-2.968-5.028zm0-9.814c-1.736 0-2.52 1.445-2.52 2.83 0 2.198 1.008 3.823 2.52 4.817 1.512-.994 2.52-2.62 2.52-4.817 0-1.385-.784-2.83-2.52-2.83zm-24.192 242.91v-1.807h2.464V630.3l-2.52.24v-1.325c1.148-.3 2.268-.843 3.192-1.686h1.344v20.23h2.352v1.807h-6.832zm9.128 0v-1.807c1.792-6.442 7.392-10.055 7.392-14.992 0-2.288-1.064-3.433-2.436-3.433-1.596 0-2.772 1.325-2.94 4.576h-1.848c.224-4.937 2.296-6.382 4.732-6.382 2.66 0 4.508 1.927 4.508 5.54 0 5.42-4.536 7.105-7.56 14.7h7.672v1.807h-9.52zm11.087-17.4c.224-2.56 1.512-4.636 4.116-4.636 2.268 0 4.508 1.686 4.508 5.3 0 3.07-1.176 4.816-2.632 5.117v.06c2.268.813 2.968 3.1 2.968 5.42 0 4.456-2.408 6.442-4.928 6.442-2.688 0-4.508-2.317-4.536-5.48h1.848c.168 2.348 1.12 3.673 2.912 3.673 1.344 0 2.688-1.565 2.688-4.546 0-3.583-1.4-4.606-4.592-4.606v-1.807c3.024 0 4.256-.782 4.256-4.154 0-2.6-.952-3.613-2.352-3.613-1.736 0-2.352 1.566-2.408 3.07l-1.848-.24z"/><use xlink:href="#E"/><use xlink:href="#E" x="9.632"/><use xlink:href="#E" x="19.264"/><use xlink:href="#F"/><path d="M148.217 786.063c.168 1.565.784 3.553 2.576 3.553 1.736 0 3.024-1.927 3.024-5.7 0-4.064-1.288-5.328-2.772-5.328-1.148 0-2.212.933-2.548 2.106l-1.568-.3.672-11.02h7.112l-.168 1.807h-5.32l-.392 6.623c.7-.632 1.652-1.023 2.688-1.023 2.352 0 4.312 2.348 4.312 7.074 0 4.968-2.24 7.557-4.928 7.557-2.912 0-4.368-2.348-4.536-5.178l1.848-.18z"/><use xlink:href="#F" y="30.351"/><path d="M147.04 804.07c.224-2.56 1.512-4.636 4.116-4.636 2.268 0 4.508 1.686 4.508 5.3 0 3.07-1.176 4.816-2.632 5.117v.06c2.268.813 2.968 3.1 2.968 5.42 0 4.456-2.408 6.442-4.928 6.442-2.688 0-4.508-2.317-4.536-5.48h1.848c.168 2.348 1.12 3.673 2.912 3.673 1.344 0 2.688-1.565 2.688-4.546 0-3.583-1.4-4.606-4.592-4.606v-1.807c3.024 0 4.256-.782 4.256-4.154 0-2.6-.952-3.612-2.352-3.612-1.736 0-2.352 1.565-2.408 3.07l-1.848-.24zm781.5 103.375c.168 1.565.784 3.553 2.576 3.553 1.735 0 3.023-1.927 3.023-5.7 0-4.064-1.288-5.33-2.77-5.33-1.148 0-2.213.934-2.55 2.107l-1.567-.3.672-11.02h7.112l-.168 1.807h-5.32l-.393 6.623c.7-.632 1.652-1.023 2.688-1.023 2.352 0 4.312 2.348 4.312 7.074 0 4.968-2.24 7.557-4.928 7.557-2.912 0-4.368-2.348-4.536-5.178l1.85-.18zm13.55 5.36c-3.136 0-4.983-2.65-4.983-5.78 0-2.68 1.315-4.605 3.248-6.08-1.792-1.535-2.8-3.04-2.8-5.6 0-2.86 2.016-4.877 4.535-4.877s4.536 2.017 4.536 4.877c0 2.56-1.008 4.064-2.8 5.6 1.932 1.476 3.248 3.402 3.248 6.08 0 3.13-1.848 5.78-4.984 5.78zm0-10.718c-1.624 1.295-2.968 2.68-2.968 5.028 0 1.776.896 3.884 2.968 3.884s2.97-2.107 2.97-3.884c0-2.35-1.345-3.733-2.97-5.028zm0-9.814c-1.735 0-2.52 1.445-2.52 2.83 0 2.198 1.008 3.824 2.52 4.817 1.513-.993 2.52-2.62 2.52-4.817 0-1.385-.784-2.83-2.52-2.83zm-15.204-280.1v-1.807h2.465v-17.46l-2.52.24v-1.325c1.148-.3 2.27-.843 3.192-1.686h1.344v20.23h2.352v1.807h-6.832zm9.464-17.402c.224-2.56 1.512-4.636 4.116-4.636 2.268 0 4.508 1.686 4.508 5.3 0 3.07-1.176 4.816-2.632 5.117v.06c2.268.813 2.968 3.1 2.968 5.42 0 4.456-2.408 6.442-4.928 6.442-2.688 0-4.508-2.317-4.536-5.48h1.848c.168 2.348 1.12 3.673 2.912 3.673 1.344 0 2.688-1.565 2.688-4.546 0-3.583-1.4-4.606-4.593-4.606v-1.807c3.024 0 4.257-.782 4.257-4.154 0-2.6-.952-3.613-2.353-3.613-1.735 0-2.352 1.566-2.408 3.07l-1.848-.24zm10.415 17.402v-1.807c1.792-6.442 7.393-10.055 7.393-14.992 0-2.288-1.064-3.433-2.437-3.433-1.596 0-2.77 1.325-2.94 4.576h-1.848c.224-4.937 2.296-6.382 4.73-6.382 2.66 0 4.508 1.927 4.508 5.54 0 5.42-4.536 7.105-7.56 14.7h7.672v1.807h-9.52zM927.06 310.08v-1.806c1.792-6.443 7.392-10.056 7.392-14.993 0-2.288-1.064-3.432-2.437-3.432-1.596 0-2.77 1.325-2.94 4.576h-1.848c.224-4.937 2.296-6.382 4.73-6.382 2.66 0 4.508 1.927 4.508 5.54 0 5.42-4.536 7.105-7.56 14.692h7.672v1.806h-9.52zm15.623.3c-3.304 0-4.872-3.312-4.872-11.17s1.568-11.17 4.872-11.17 4.872 3.312 4.872 11.17-1.568 11.17-4.872 11.17zm0-20.532c-1.848 0-2.856 2.228-2.856 9.363s1 9.363 2.856 9.363 2.855-2.228 2.855-9.363-1.008-9.363-2.855-9.363zm6.217-1.505h9.072v1.144l-5.88 20.592h-2.128l5.88-19.93H948.9v-1.807zm-13.427 663.4v14.992h2.1v1.807h-2.1v4.938h-2.016v-4.937H927v-1.023l5.544-15.775h2.94zm-6.58 14.992h4.563V953.73h-.056l-4.508 13.005zm9.857-10.657c.224-2.56 1.512-4.636 4.115-4.636 2.27 0 4.5 1.686 4.5 5.3 0 3.07-1.177 4.816-2.633 5.117v.06c2.27.813 2.97 3.1 2.97 5.42 0 4.456-2.408 6.442-4.93 6.442-2.687 0-4.508-2.317-4.536-5.48h1.85c.168 2.348 1.12 3.673 2.912 3.673 1.344 0 2.688-1.565 2.688-4.546 0-3.583-1.4-4.606-4.592-4.606v-1.807c3.024 0 4.256-.782 4.256-4.154 0-2.6-.952-3.612-2.352-3.612-1.736 0-2.353 1.565-2.408 3.07l-1.848-.24z"/></g><path d="M142.945 257.366v-2.16c2.304-7.703 9.502-12.022 9.502-17.926 0-2.736-1.368-4.104-3.13-4.104-2.052 0-3.563 1.584-3.78 5.47h-2.375c.288-5.903 2.952-7.63 6.083-7.63 3.42 0 5.795 2.304 5.795 6.623 0 6.48-5.83 8.495-9.72 17.566h9.863v2.16h-12.238zm20.087.36c-4.248 0-6.263-3.96-6.263-13.354s2.016-13.354 6.263-13.354 6.263 3.96 6.263 13.354-2.016 13.354-6.263 13.354zm0-24.55c-2.376 0-3.672 2.664-3.672 11.195s1.296 11.194 3.672 11.194 3.67-2.664 3.67-11.194-1.296-11.195-3.67-11.195zm13.823 24.55c-4.248 0-6.264-3.96-6.264-13.354s2.016-13.354 6.264-13.354 6.263 3.96 6.263 13.354-2.016 13.354-6.263 13.354zm0-24.55c-2.376 0-3.672 2.664-3.672 11.195s1.296 11.194 3.672 11.194 3.67-2.664 3.67-11.194-1.296-11.195-3.67-11.195zm10.655 19.366c.36 2.6 1.8 3.023 2.808 3.023 2.304 0 3.744-3.167 3.816-10.403-1.044 1.116-2.448 1.98-3.996 1.98-2.916 0-5.58-2.088-5.58-8 0-5.04 2.16-8.135 5.58-8.135 4.5 0 6.66 2.592 6.66 11.95 0 10.44-2.448 14.758-6.55 14.758-3.348 0-4.607-2.016-5.1-5.04l2.375-.144zm6.695-12.24c0-5.255-1.368-7.127-3.67-7.127-2.016 0-3.384 1.512-3.384 6 0 4.644 1.584 5.795 3.24 5.795s2.952-1.08 3.815-2.232V240.3zm694.715 17.064v-2.16c2.304-7.703 9.503-12.022 9.503-17.926 0-2.736-1.368-4.104-3.132-4.104-2.052 0-3.563 1.584-3.78 5.47h-2.375c.288-5.903 2.95-7.63 6.083-7.63 3.42 0 5.796 2.304 5.796 6.623 0 6.48-5.832 8.495-9.72 17.566h9.862v2.16H888.92zm20.087.36c-4.248 0-6.264-3.96-6.264-13.354s2.016-13.354 6.264-13.354 6.263 3.96 6.263 13.354-2.017 13.354-6.263 13.354zm0-24.55c-2.377 0-3.672 2.664-3.672 11.195s1.295 11.194 3.672 11.194 3.67-2.664 3.67-11.194-1.296-11.195-3.67-11.195zm9.648 24.2v-2.16h3.167V234.33l-3.238.288v-1.584c1.475-.36 2.915-1.008 4.104-2.016h1.727v24.2h3.024v2.16h-8.783zm18 .36c-4.03 0-6.407-3.167-6.407-6.9 0-3.204 1.7-5.507 4.175-7.27-2.303-1.836-3.6-3.636-3.6-6.695 0-3.42 2.592-5.83 5.832-5.83s5.83 2.412 5.83 5.83c0 3.06-1.296 4.86-3.6 6.695 2.483 1.764 4.176 4.067 4.176 7.27 0 3.744-2.376 6.9-6.407 6.9zm0-12.814c-2.088 1.548-3.816 3.204-3.816 6 0 2.124 1.152 4.644 3.816 4.644s3.815-2.52 3.815-4.644c0-2.808-1.728-4.463-3.815-6zm0-11.734c-2.232 0-3.24 1.728-3.24 3.384 0 2.627 1.297 4.57 3.24 5.76 1.943-1.188 3.24-3.132 3.24-5.76 0-1.656-1.008-3.384-3.24-3.384z" class="U"/><g fill="none" class="T V"><path d="M169.112 287.025V972.48m746.103-685.455V972.48" opacity=".3" stroke="#000" class="W"/><g stroke="#ff0"><path d="M169.112 799.1l.99.134"/><path d="M176.056 800.038l735.19 99.328" stroke-dasharray="2.00235,6.00705"/><path d="M914.224 899.768l1 .134M169.112 637.816l.9-.413"/><path d="M175.51 634.912L911.562 300.78" stroke-dasharray="2.0083,6.02491"/><path d="M914.305 299.535l.9-.413M169.112 686.2l.994-.113"/><path d="M176.06 685.413l735.186-83.435" stroke-dasharray="1.99705,5.99114"/><path d="M914.222 601.64l.994-.113"/></g></g><linearGradient id="B" gradientUnits="userSpaceOnUse" x1="165.112" y1="688.217" x2="919.215" y2="688.217"><stop offset="0" stop-color="#ff4e50"/><stop offset=".15" stop-color="#fe6847"/><stop offset=".407" stop-color="#fc9239"/><stop offset=".638" stop-color="#fbb22e"/><stop offset=".863" stop-color="#f9cb26"/><stop offset="1" stop-color="#f9d423"/></linearGradient><path d="M169.112 416.052l746.103 544.33" fill="none" stroke="url(#B)" stroke-width="8" class="T W"/><linearGradient id="C" gradientUnits="userSpaceOnUse" x1="165.112" y1="875.709" x2="919.215" y2="875.709"><stop offset="0" stop-color="#5433ff"/><stop offset=".105" stop-color="#4852ff"/><stop offset=".375" stop-color="#2b9fff"/><stop offset=".5" stop-color="#20bdff"/><stop offset=".508" stop-color="#23befe"/><stop offset=".675" stop-color="#5adae8"/><stop offset=".818" stop-color="#83edd8"/><stop offset=".931" stop-color="#9cfacf"/><stop offset="1" stop-color="#a5fecb"/></linearGradient><path d="M169.112 791.035l746.103 169.348" fill="none" stroke="url(#C)" stroke-width="8" class="T W"/><g fill="#ff0"><circle cx="169.112" cy="686.201" r="4"/><circle cx="169.112" cy="799.1" r="4"/><circle cx="915.215" cy="899.902" r="4"/><circle cx="915.215" cy="601.495" r="4"/><circle cx="915.215" cy="299.122" r="4"/><circle cx="169.112" cy="637.816" r="4"/></g><g class="U"><circle cx="169.112" cy="416.659" r="6"/><circle cx="914.919" cy="960.897" r="6"/><circle cx="169.112" cy="791.035" r="6"/><path d="M183.72 412.384c-1.887-1.377-3.958-4.076-4.432-6.52-.096-.466.034-.807.223-1.065.434-.595 1.302-.753 1.922-.3.388.283.422.506.624 1.208.568 1.88 1.766 3.388 3.265 4.482 3.076 2.244 5.23 2.114 6.627.2 3.923-5.376-8.616-9.852-3.486-16.882 2.3-3.153 6.114-2.788 9.525-.298 1.784 1.3 3.834 3.866 4.006 6.3.037.384-.055.673-.225.905-.453.62-1.417.75-1.96.353-.388-.283-.462-.615-.62-1.323-.393-1.633-1.428-2.983-2.824-4-2.792-2.037-4.663-1.698-5.68-.303-3.526 4.834 8.88 9.5 3.486 16.882-2.8 3.852-7.04 2.864-10.453.375zm16.817 12.268c-5.558-4.055-4.165-10.1-.487-15.13 3.696-5.066 9.018-8.234 14.575-4.18 5.532 4.036 4.165 10.1.47 15.155-3.678 5.04-9.025 8.2-14.557 4.153zm12.466-17.086c-3.67-2.678-7.28-1.152-10.73 3.578s-3.803 8.633-.132 11.3c3.645 2.66 7.28 1.152 10.73-3.578s3.777-8.65.133-11.3zm7.597 31.057l-7.858-5.733c-.62-.453-.78-1.32-.345-1.915l11.825-16.207c.547-.75 1.406-.678 1.897-.32.568.415.873 1.2.345 1.915l-11.033 15.122 6.772 4.94a1.35 1.35 0 0 1 .293 1.877c-.453.62-1.302.753-1.896.32zm17.483 12.747c-.388-.283-.625-.772-.492-1.4l1.082-4.36-8.607-6.28-3.848 2.342c-.546.314-1.085.238-1.447-.026-.57-.415-.843-1.288-.37-1.934.113-.155.252-.292.424-.364l18.43-11.308c.8-.446 1.3-.273 1.645-.028.232.17.707.714.475 1.574l-5.12 21.02c-.042.167-.13.34-.243.496-.47.646-1.335.7-1.93.256zm3.893-19.34l-9.384 5.75 6.772 4.94 2.6-10.7zm11.194 30.387c-.284-.208-.507-.608-.513-1.088l.1-11.444-3.334-2.433-4.998 6.85c-.528.724-1.354.715-1.948.282-.543-.396-.803-1.18-.293-1.878L254.02 436.5c.34-.465 1.122-.885 1.897-.32l6.695 4.884c2.274 1.66 3.894 5.575 1.404 8.987-1.98 2.714-5.682 3.5-8.565 1.75l-.022 9.53a1.26 1.26 0 0 1-.258.842c-.453.62-1.405.678-2 .244zm7.8-19.175l-5.53-4.036-4.413 6.048 5.505 4.017c1.68 1.226 4.024.837 5.25-.843 1.282-1.758.688-4.092-.8-5.186zm-55.183 319.495l-9.566 18.303c-.326.714-.8.965-1.527.802-.655-.148-1.045-.598-1.094-1.396l-.82-15.902-7.573 13.998c-.388.7-.903.943-1.56.795-.686-.156-1.045-.6-1.062-1.4l-.73-20.64a1.84 1.84 0 0 1 .037-.45c.177-.78.994-1.054 1.68-.898a1.3 1.3 0 0 1 1.03 1.25l.554 15.776 7.468-13.825c.4-.7.903-.943 1.56-.795.687.156 1.045.6 1.094 1.396l.77 15.694 7.3-13.992c.343-.645 1.045-.846 1.513-.74.687.155 1.26.8 1.083 1.6a1.88 1.88 0 0 1-.162.423zm2.765 22.25l-3.588-.813c-.843-.2-1.162-.953-1.013-1.608.163-.718.772-1.235 1.615-1.044l.468.105 3.837-16.912-.468-.106c-.842-.2-1.162-.952-1.013-1.607.163-.718.772-1.236 1.615-1.045l3.588.814c.905.205 1.23.936 1.068 1.653-.148.655-.765 1.204-1.67 1l-.468-.106-3.837 16.913.468.105c.905.206 1.23.937 1.07 1.653-.15.655-.766 1.205-1.67 1zm19.622 4.452c-.406-.092-.793-.4-.968-.94l-6.9-18.137-3.427 15.103c-.198.874-.96 1.193-1.677 1.03-.655-.148-1.205-.766-1.014-1.607l4.44-19.565c.198-.874 1-1.186 1.677-1.03.437.1.77.37.975.9l6.9 18.137 3.42-15.07c.205-.905.96-1.193 1.615-1.044.717.162 1.273.748 1.075 1.622l-4.44 19.564c-.2.843-1 1.187-1.677 1.03zm14.266 3.24l-6.46-1.466c-.718-.163-1.224-.967-1.076-1.622l4.44-19.565c.163-.718.96-1.193 1.677-1.03l6.46 1.466c6.428 1.458 7.346 7.244 6.037 13.018-1.317 5.804-4.65 10.658-11.078 9.2zm4.44-19.565l-5.148-1.168-3.837 16.912 5.148 1.168c4.025.914 6.54-1.633 7.792-7.156 1.232-5.43.07-8.843-3.955-9.756z"/></g><path d="M850.267 881.608c-6.103-.826-7.378-6.225-6.672-11.44.7-5.187 3.373-10.108 9.476-9.283 2.497.338 4.568 1.522 5.75 3.857a.57.57 0 0 1 .106.467c-.06.443-.52.72-.966.66-.388-.053-.564-.416-.817-.846-.802-1.38-2.18-2.27-4.287-2.557-4.188-.567-6.927 2.34-7.68 7.915-.57 4.217.146 8.946 5.305 9.645 4.383.593 6.752-2.505 7.568-7.083l-3.384-.458a.8.8 0 0 1-.724-.917c.053-.4.387-.768.886-.7l4.217.57c.472.063.76.44.695.913-.73 5.4-3.536 10.058-9.473 9.255zm26.13 3.052c-.277-.037-.56-.245-.657-.57l-1.197-4.512-9.987-1.352-2.354 4.032c-.15.3-.507.4-.757.378-.416-.057-.764-.414-.703-.858.02-.14.03-.222.104-.354l9.948-17.156c.184-.313.543-.463.876-.418.277.037.505.237.595.617l5.03 19.184c.036.146.025.23.006.368-.06.443-.5.696-.905.64zm-5.204-17.907l-5.785 9.98 8.738 1.183-2.953-11.162zm14.668 19.665c-2.136-.3-4.933-1.543-6.3-3.338-.168-.22-.2-.395-.175-.6.057-.416.497-.752.914-.695.332.045.294.124.816.647a8.86 8.86 0 0 0 4.958 2.394c3.495.474 5.697-.557 6.034-3.054.9-6.574-11.34-4.5-10.314-12.073.45-3.33 3.57-4.46 7.147-3.977 1.998.27 4.683 1.5 5.695 3.426.088.182.125.328.103.494-.06.444-.494.725-.937.664-.4-.052-.373-.163-.78-.698-1.008-1.323-2.656-2.083-4.293-2.305-3.3-.446-5.083.612-5.353 2.6-.808 5.964 11.396 4.085 10.315 12.074-.522 3.855-4.113 4.923-7.83 4.42z" opacity=".6" fill="#ff0"/><path d="M801.066 340.967c-.23.104-.503.043-.797-.13l-16.652-10.184 6.532 14.38c.208.46-.06.888-.4 1.04-.357.162-.855.08-1.063-.378l-7.598-16.726c-.197-.434.035-.938.417-1.112.23-.104.503-.044.798.13l16.65 10.184-6.52-14.355c-.2-.46.058-.888.4-1.038.356-.162.854-.08 1.063.378l7.598 16.727c.196.433-.047.913-.43 1.087zm11.338-4.623c-3.493 1.587-7.674.103-9.307-3.493l-5.223-11.5c-.2-.46.058-.888.415-1.05s.855-.08 1.063.378l5.224 11.5c1.228 2.703 4.465 3.94 7.167 2.7a5.48 5.48 0 0 0 2.7-7.193l-5.224-11.5c-.208-.46.06-.887.416-1.05.33-.15.83-.07 1.038.4l5.223 11.5c1.587 3.493.103 7.674-3.493 9.307zm21.804-13.282c-.462 2.3-1.77 4.158-4.424 5.362-5.48 2.5-9.48-1.168-11.74-6.14-2.27-4.998-2.394-10.416 3.088-12.906 2.575-1.17 4.926-1.007 6.923.208.186.07.27.186.34.338.185.408-.06.888-.467 1.073a.74.74 0 0 1-.688-.026c-1.52-.9-3.278-1.125-5.446-.14-4.232 1.923-4.46 6.025-2.295 10.793 2.154 4.743 5.394 7.27 9.626 5.347 2.168-.984 3.2-2.437 3.53-4.217.012-.313.206-.494.4-.586.382-.173.915-.016 1.1.392.058.127.076.304.044.503zm13.72-3.398l-8.5 3.857a.85.85 0 0 1-1.063-.378l-7.598-16.726c-.2-.46.032-.876.415-1.05.33-.15.818-.095 1.038.4l7.262 15.987 7.776-3.532c.46-.2.888.058 1.05.415.15.332.07.83-.4 1.038zm15.607-7.084l-11.32 5.142a.85.85 0 0 1-1.063-.378l-7.598-16.726c-.174-.382.033-.876.415-1.05l11.32-5.142a.77.77 0 0 1 1.063.378.77.77 0 0 1-.415 1.05l-10.606 4.818 2.85 6.272 7.776-3.532a.77.77 0 0 1 1.064.378c.162.357.08.855-.378 1.063l-7.803 3.544 3.428 7.547 10.607-4.818c.484-.22.913.047 1.075.404a.77.77 0 0 1-.415 1.05zm16.7-7.582c-.256.116-.605.1-.86-.132l-3.415-3.185-9.18 4.17.152 4.668a.78.78 0 0 1-.44.723c-.383.174-.867.055-1.053-.353-.058-.127-.093-.204-.1-.354l-.7-19.828a.88.88 0 0 1 .52-.82c.255-.116.554-.067.832.207l14.47 13.574c.1.104.144.18.2.3.186.408-.044.85-.426 1.024zm-13.937-12.4l.4 11.533 8.03-3.648-8.44-7.885zM895.74 298a.69.69 0 0 1-.674-.063l-8.922-5.083-4.564 2.073 3.243 7.14c.208.46-.06.887-.4 1.038-.357.162-.855.08-1.063-.378l-7.598-16.726c-.174-.382.032-.876.415-1.05l6.885-3.127c2.88-1.3 6.218-.056 7.503 2.774 1.274 2.805.1 6.02-2.62 7.435l7.853 4.5c.197.095.317.225.388.378.174.382-.047.913-.455 1.1zm-11.994-14.76l-6.196 2.814 3.37 7.42 6.17-2.803c2.065-.938 2.97-3.348 2.03-5.414-1.054-2.32-3.643-2.805-5.376-2.018z" opacity=".6" fill="#ff0"/><path d="M841.426 597.3c-1.148 2.046-2.966 3.407-5.858 3.736-5.98.68-8.657-4.032-9.273-9.457-.62-5.452.933-10.644 6.913-11.322 2.8-.32 4.995.56 6.52 2.33a.57.57 0 0 1 .217.426c.05.445-.33.826-.773.877-.223.025-.455-.033-.647-.236-1.165-1.333-2.77-2.08-5.136-1.812-4.618.524-6.1 4.355-5.508 9.558.587 5.174 2.9 8.575 7.507 8.05 2.364-.27 3.793-1.332 4.655-2.924a.65.65 0 0 1 .57-.43c.417-.048.875.267.926.712.016.14-.02.313-.113.492zm11.692 1.744c-5.98.68-8.657-4.032-9.273-9.457-.62-5.452.933-10.644 6.913-11.322 5.953-.676 8.657 4.032 9.276 9.484.616 5.424-.964 10.62-6.916 11.295zm-2.18-19.194c-4.618.524-6.1 4.355-5.508 9.558.587 5.174 2.9 8.575 7.507 8.05 4.6-.52 6.1-4.355 5.5-9.53-.6-5.2-2.92-8.6-7.5-8.08zm28.598 15.714a.82.82 0 0 1-.777-.39l-2.267-4.082-10.014 1.138-1.294 4.485a.78.78 0 0 1-.642.552c-.418.048-.842-.214-.893-.66a.82.82 0 0 1 .015-.368l5.442-19.072a.88.88 0 0 1 .746-.62c.278-.032.548.106.728.452l9.58 17.367c.072.133.08.217.097.355.05.445-.304.795-.72.843zm-9.435-16.088l-3.163 11.095 8.762-.995-5.6-10.1zm23.28 14.518l-9.264 1.052c-.417.047-.85-.298-.895-.687l-2.072-18.248c-.057-.5.3-.822.718-.87.362-.04.808.162.868.7l1.98 17.44 8.483-.964c.5-.057.826.33.87.72a.79.79 0 0 1-.7.867z" opacity=".6" fill="#ff0"/><g opacity=".3" class="U"><path d="M44.228 1046.045c-3.568 0-5.47-1.97-5.503-2.002 0 .935-.7 1.4-1.468 1.4-.7 0-1.4-.467-1.4-1.4v-20.88a1.35 1.35 0 0 1 1.401-1.434c.767 0 1.468.467 1.468 1.4v6.238c1.334-1.368 3.168-2.17 5.503-2.17 5.37 0 8.373 4.403 8.373 9.406 0 5.037-3.002 9.44-8.373 9.44zm0-16c-3.335 0-5.503 2.602-5.503 6.57 0 4.003 2.168 6.604 5.503 6.604s5.504-2.602 5.504-6.604c0-3.97-2.168-6.57-5.504-6.57zm25.555 8.037h-12.34c.467 3.136 2.468 5.137 5.403 5.137 1.5 0 3.002-.533 3.97-1.734.3-.333.634-.533 1.034-.533.734 0 1.5.667 1.5 1.468 0 .4-.1.7-.8 1.4-1.5 1.468-3.57 2.235-5.704 2.235-5.37 0-8.372-4.437-8.372-9.44 0-4.97 3.002-9.406 8.372-9.406 5.437 0 8.34 4.437 8.34 9.406 0 .734-.534 1.468-1.4 1.468zm-6.937-8.038c-3.136 0-4.97 2.3-5.403 5.17H68.25c-.467-3.202-2.468-5.17-5.403-5.17zm27.054 15.444c-1.834 0-2.668-1.3-2.97-1.9-1.334 1.468-3.27 2.47-5.87 2.47-5.437 0-8.372-4.47-8.372-9.44s3.002-9.406 8.372-9.406c2.335 0 4.203.834 5.504 2.202v-.134c0-.367.133-1.5 1.4-1.5.7 0 1.468.367 1.468 1.4v12.875c0 .434.3.6.467.6.935 0 1.435.667 1.435 1.434a1.37 1.37 0 0 1-1.435 1.401zm-8.84-15.443c-3.336 0-5.504 2.602-5.504 6.57 0 4.003 2.168 6.604 5.504 6.604 3.37 0 5.504-2.602 5.504-6.604 0-3.97-2.135-6.57-5.504-6.57z"/><use xlink:href="#G"/><path d="M117.058 1045.478h-.567c-3.17 0-4.37-1.668-4.37-4.403V1030.6h-1c-.8 0-1.435-.634-1.435-1.4 0-.8.634-1.435 1.4-1.435h1v-4.637c0-.934.7-1.4 1.435-1.4s1.4.467 1.4 1.4v4.637h2.135c.934 0 1.4.768 1.4 1.4 0 .8-.533 1.434-1.4 1.434h-2.135v10.774c0 .934.333 1.268 1.268 1.268h.833c.868 0 1.435.634 1.435 1.4 0 .8-.533 1.435-1.4 1.435zm4.604-20.415a2.402 2.402 0 1 1 0-4.803 2.402 2.402 0 1 1 0 4.803zm0 20.414c-.733 0-1.467-.5-1.467-1.4V1029.2c0-.935.733-1.435 1.467-1.435a1.37 1.37 0 0 1 1.401 1.435v14.876c0 .935-.7 1.4-1.4 1.4zm10.376-14.877h-1.5v13.442c0 .935-.7 1.4-1.468 1.4-.7 0-1.4-.467-1.4-1.4V1030.6h-1.37c-.9 0-1.4-.667-1.4-1.4 0-.768.5-1.435 1.4-1.435h1.367v-2.27c0-2.135 1.77-3.77 3.836-3.77.968 0 1.468.667 1.468 1.434 0 .7-.5 1.4-1.468 1.4-.566 0-.967.434-.967.9v2.302h1.5c.967 0 1.468.667 1.468 1.435 0 .733-.5 1.4-1.468 1.4z"/><use xlink:href="#G" x="42.068"/><path d="M156.625 1045.544c-1.802 0-3.336-1.534-3.336-3.402v-18.98c0-.967.7-1.434 1.435-1.434s1.435.467 1.435 1.4v19.013c0 .4.3.567.467.567.934 0 1.435.667 1.435 1.435 0 .733-.5 1.4-1.435 1.4zm15.37-.066v-1.264c1.886-.237 2.046-.437 2.046-3.157v-6.7c0-2.8-1.248-4.017-3.064-4.017-1.237 0-2.345.6-3.47 1.493v9.476c0 2.527.187 2.658 2.06 2.896v1.264h-8.968v-1.264c2.254-.33 2.5-.4 2.5-3v-8.2c0-2.446-.303-2.565-2.185-2.922v-1.184c2.173-.292 4.63-.807 6.653-1.533l-.052 2.95 2.6-1.745c1.16-.713 2-1.086 3.16-1.086 3.194 0 5.2 2.338 5.2 6.3v7.5c0 2.54.237 2.657 2.277 2.92v1.264h-8.74zm23.9-3.703c-2.458 3.427-5.488 4.178-7.014 4.178-5.142 0-8.124-3.936-8.124-8.594 0-2.745 1.183-5.396 2.832-7.062 1.74-1.8 3.945-2.814 6.082-2.814 3.73 0 6.396 3.126 6.37 6.347-.014.715-.08 1.277-.612 1.4-.767.184-6.17.5-10.318.647.062 4.587 2.717 6.74 5.556 6.74 1.572 0 3.104-.597 4.543-1.866l.686 1.014zm-7.07-12.7c-1.667 0-3.167 1.807-3.516 4.963l5.486-.118c.6-.026.848-.146.848-.792.04-2.022-1.037-4.053-2.818-4.053zm34.284.145c-1.943.343-2.248.624-3.105 2.765-1.33 3.462-3.102 8.53-4.934 13.94h-1.512l-4.65-11.46-4.55 11.46h-1.472l-4.685-14.192c-.687-1.985-.94-2.274-2.855-2.512v-1.25h9.397v1.25c-2.325.345-2.535.672-2.058 2.133l2.52 8.214c1.507-3.68 2.988-7.62 4.327-11.424H211c1.4 3.76 2.986 7.702 4.573 11.568.742-2.107 2.062-5.964 2.557-8.108.412-1.674-.008-2.078-2.753-2.383v-1.25h7.742v1.25z"/><path d="M232.528 1032.956c-.92-2.606-2.155-3.984-4.21-3.984-1.206 0-2.225.86-2.225 2.266 0 1.497 1.046 2.264 3.16 3.216 3.278 1.496 5.3 2.787 5.3 5.736 0 3.85-3.6 5.764-6.945 5.764-2.06 0-4.088-.737-4.92-1.16l-.662-4.892 1.252-.224c.8 2.51 2.33 4.75 4.976 4.75 1.505 0 2.438-.952 2.438-2.28 0-1.423-.76-2.333-3.092-3.467-2.67-1.295-5.107-2.64-5.107-5.775 0-3.046 2.533-5.42 6.565-5.42 1.818 0 3.242.396 4.112.567l.62 4.577-1.25.328z"/></g><g opacity=".8" class="U"><path d="M817.107 1046.358c-1.2 0-3.22-.42-3.922-1.58-.08-.12-.08-.22-.08-.3 0-.32.28-.6.58-.6.12 0 .32.1.44.28.72.88 2 1.06 2.98 1.06 1.94 0 2.92-.64 2.92-1.94 0-3.02-6.56-1.42-6.56-5.422 0-2.02 2.02-2.8 3.84-2.8 1.04 0 2.64.36 3.44 1.16.12.12.18.26.18.38 0 .3-.3.6-.62.6-.12 0-.26-.04-.38-.16-.62-.6-1.74-.84-2.62-.84-1.76 0-2.7.68-2.7 1.66 0 2.8 6.563 1.32 6.563 5.422 0 2.28-2 3.08-4.06 3.08z"/><use xlink:href="#H"/><path d="M843.607 1045.98c-.28 0-.58-.2-.58-.56v-.64c-.84.98-2.06 1.54-3.42 1.54-2.48 0-4.56-2.08-4.56-4.56v-5.842c0-.36.3-.56.58-.56.26 0 .56.2.56.56v5.842c0 1.9 1.52 3.42 3.422 3.42s3.42-1.52 3.42-3.42v-5.842c0-.36.3-.56.58-.56.26 0 .56.2.56.56v9.502c0 .36-.3.56-.56.56z"/><use xlink:href="#I"/><path d="M861.747 1044.798c-.88.98-2.102 1.52-3.58 1.52-3.22 0-5.02-2.64-5.02-5.66 0-3 1.8-5.64 5.02-5.64 1.48 0 2.7.54 3.58 1.52.12.12.16.26.16.38a.63.63 0 0 1-.58.6c-.14 0-.28-.06-.42-.2-.66-.74-1.58-1.16-2.74-1.16-2.36 0-3.88 1.9-3.88 4.5s1.52 4.52 3.88 4.52c1.16 0 2.08-.44 2.74-1.16.14-.14.28-.2.42-.2.3 0 .58.26.58.58 0 .14-.04.26-.16.4z"/><use xlink:href="#J"/><path d="M877.306 1039.417c-.64 0-1.16-.5-1.16-1.14s.52-1.14 1.16-1.14c.62 0 1.12.5 1.12 1.14s-.5 1.14-1.12 1.14zm0 6.562c-.64 0-1.16-.5-1.16-1.14s.52-1.14 1.16-1.14c.62 0 1.12.5 1.12 1.14s-.5 1.14-1.12 1.14zm18.2-13.124h-8.322v4.92h6.102a.55.55 0 0 1 .58.561c0 .28-.2.58-.56.58h-6.12v6.5c0 .36-.3.56-.56.56-.28 0-.58-.2-.58-.56v-13.122c0-.3.28-.56.58-.56h8.883a.55.55 0 0 1 .58.561.55.55 0 0 1-.58.56z"/><use xlink:href="#H" x="72.819"/><use xlink:href="#I" x="61.039"/><path d="M919.665 1046.318c-1.74 0-3.04-.72-3.88-1.9v1c0 .36-.3.56-.56.56-.28 0-.58-.2-.58-.56v-13.122c0-.36.3-.56.58-.56.26 0 .56.2.56.56v4.6c.84-1.16 2.14-1.88 3.88-1.88 3.22 0 5.02 2.64 5.02 5.64 0 3.02-1.8 5.66-5.02 5.66zm0-10.162c-2.38 0-3.88 1.9-3.88 4.5s1.5 4.52 3.88 4.52 3.88-1.92 3.88-4.52-1.502-4.5-3.88-4.5z"/><use xlink:href="#J" x="62.758"/><use xlink:href="#K"/><path d="M949.322 1047.76a.51.51 0 0 1-.299.08c-.32 0-.54-.28-.54-.58 0-.56.86-.64 1-1.28-.6-.04-1.08-.54-1.08-1.14a1.16 1.16 0 0 1 1.16-1.16c.98 0 1.2 1 1.2 1.62 0 .98-.52 1.92-1.44 2.46zm14.082-1.42a5.01 5.01 0 0 1-5.02-5.02v-9.02c0-.36.3-.56.58-.56s.58.2.58.56v9.02c0 2.12 1.74 3.88 3.86 3.88s3.88-1.76 3.88-3.88v-9.02c0-.36.3-.56.58-.56.26 0 .56.2.56.56v9.02a5.01 5.01 0 0 1-5.022 5.02zm11.9-.022c-1.54 0-3.64-.62-4.78-1.76a.52.52 0 0 1-.18-.4.61.61 0 0 1 .58-.58c.24 0 .22.06.64.38a6.33 6.33 0 0 0 3.74 1.221c2.52 0 3.98-.94 3.98-2.74 0-4.74-8.46-2.1-8.46-7.562 0-2.4 2.1-3.5 4.68-3.5 1.44 0 3.46.62 4.36 1.88.08.12.12.22.12.34 0 .32-.28.56-.602.56-.28 0-.28-.08-.62-.42-.84-.84-2.08-1.22-3.262-1.22-2.38 0-3.54.92-3.54 2.36 0 4.3 8.463 1.8 8.463 7.562 0 2.78-2.44 3.88-5.12 3.88zm15.68-13.463h-.62c-.48 0-.88.4-.88.86v1.64h1.502c.38 0 .56.3.56.56 0 .28-.2.58-.56.58h-1.502v8.922c0 .36-.28.56-.56.56s-.56-.18-.56-.56v-8.922h-1.38c-.36 0-.56-.3-.56-.58 0-.26.2-.56.56-.56h1.38v-1.64c0-1.1.9-1.98 1.98-1.98h.64c.36 0 .58.28.58.58 0 .28-.2.54-.58.54zm3.078.58c-.64 0-1.14-.5-1.14-1.14s.5-1.14 1.14-1.14 1.14.5 1.14 1.14-.5 1.14-1.14 1.14zm0 12.543c-.28 0-.58-.18-.58-.56v-9.502c0-.36.28-.56.58-.56.26 0 .56.18.56.56v9.502c0 .36-.26.56-.56.56zm7.963 4.56c-1.7 0-4.102-.64-4.102-1.36 0-.32.26-.64.58-.64.22 0 .68.34 1.06.48.52.18 1.34.38 2.46.38 2.56 0 3.88-1.26 3.88-3.72v-1.4c-.88 1.06-2.14 1.7-3.88 1.7-3.162 0-5.02-2.24-5.02-5.32 0-3 1.8-5.64 5.02-5.64 1.74 0 3.04.72 3.88 1.88v-.96c0-.36.3-.56.582-.56.26 0 .56.2.56.56v9.742c0 3.18-1.9 4.86-5.02 4.86zm0-14.383c-2.36 0-3.88 1.9-3.88 4.5 0 2.58 1.42 4.18 3.88 4.18s3.88-1.6 3.88-4.18c0-2.6-1.5-4.5-3.88-4.5zm16.24 9.823c-.28 0-.58-.2-.58-.56v-.64c-.84.98-2.06 1.54-3.422 1.54-2.48 0-4.56-2.08-4.56-4.56v-5.842c0-.36.3-.56.58-.56.26 0 .56.2.56.56v5.842c0 1.9 1.52 3.42 3.42 3.42s3.422-1.52 3.422-3.42v-5.842c0-.36.3-.56.58-.56.26 0 .56.2.56.56v9.502c0 .36-.3.56-.56.56zm7.96-9.643a3.42 3.42 0 0 0-3.422 3.42v5.66c0 .36-.3.56-.56.56-.28 0-.58-.2-.58-.56v-9.502c0-.36.3-.56.58-.56.26 0 .56.2.56.56v.82c.9-.98 2.08-1.54 3.422-1.54.36 0 .58.3.58.56a.58.58 0 0 1-.58.581zm10.598 4.9h-8.303c.18 2.28 1.66 3.94 3.842 3.94 1.08 0 2.36-.48 2.94-1.38.14-.22.3-.28.48-.28.3 0 .62.24.62.54 0 .18 0 .22-.38.66-.92 1.08-2.262 1.6-3.66 1.6-3.22 0-5.02-2.64-5.02-5.66 0-3 1.8-5.64 5.02-5.64s5.02 2.66 5.02 5.64c0 .3-.28.58-.56.58zm-4.46-5.08c-2.402 0-3.662 1.84-3.842 3.94h7.7c-.18-2.28-1.66-3.94-3.86-3.94z"/><use xlink:href="#K" x="100.737"/></g><g opacity=".7" class="U"><path d="M345.804 189.276c-5.205 0-9.536-4.18-9.536-9.536v-17.136c0-.684.57-1.063 1.102-1.063s1.103.38 1.103 1.063v17.136c0 4.027 3.305 7.37 7.332 7.37s7.37-3.344 7.37-7.37v-17.136c0-.684.57-1.063 1.103-1.063.493 0 1.063.38 1.063 1.063v17.136c0 5.205-4.18 9.536-9.537 9.536zm23.37-.038c-2.926 0-6.915-1.178-9.08-3.343-.266-.267-.342-.494-.342-.76a1.16 1.16 0 0 1 1.103-1.103c.455 0 .418.114 1.216.722 2.014 1.482 4.52 2.318 7.104 2.318 4.787 0 7.56-1.786 7.56-5.205 0-9.005-16.07-4-16.07-14.362 0-4.56 4-6.65 8.9-6.65 2.735 0 6.573 1.18 8.283 3.572.15.228.228.418.228.646 0 .608-.532 1.063-1.14 1.063-.532 0-.532-.15-1.178-.798-1.596-1.596-3.95-2.317-6.193-2.317-4.52 0-6.725 1.748-6.725 4.483 0 8.17 16.07 3.42 16.07 14.362 0 5.28-4.636 7.37-9.727 7.37zm24.928-.038v6.23c0 .684-.57 1.102-1.102 1.102a1.07 1.07 0 0 1-1.064-1.102v-6.23c-2.773-.228-6.192-1.33-8.17-3.305-.266-.267-.342-.494-.342-.76a1.16 1.16 0 0 1 1.103-1.103c.455 0 .418.114 1.216.722 2.014 1.482 4.52 2.318 7.104 2.318 4.787 0 7.56-1.786 7.56-5.205 0-9.005-16.07-4-16.07-14.362 0-4.18 3.306-6.23 7.6-6.573v-5.85c0-.76.532-1.14 1.064-1.14s1.102.38 1.102 1.14v5.85c2.622.2 5.9 1.368 7.4 3.496.15.228.228.418.228.646 0 .608-.532 1.063-1.14 1.063-.532 0-.532-.15-1.178-.798-1.596-1.596-3.95-2.317-6.193-2.317-4.52 0-6.725 1.748-6.725 4.483 0 8.17 16.07 3.42 16.07 14.362 0 4.863-3.913 7.028-8.473 7.332zm30.93.038c-3.306 0-5.775-1.367-7.37-3.6v9.84c0 .684-.57 1.102-1.063 1.102-.532 0-1.103-.418-1.103-1.102V169.48c0-.684.57-1.063 1.103-1.063.494 0 1.063.38 1.063 1.063v1.862c1.596-2.204 4.065-3.572 7.37-3.572 6.117 0 9.536 5.016 9.536 10.715 0 5.737-3.42 10.752-9.536 10.752zm0-19.3c-4.52 0-7.37 3.6-7.37 8.55s2.85 8.587 7.37 8.587 7.37-3.647 7.37-8.587-2.85-8.55-7.37-8.55zm30.438 9.65H439.7c.342 4.332 3.153 7.485 7.295 7.485 2.052 0 4.483-.912 5.585-2.622.267-.418.57-.53.912-.53.57 0 1.178.455 1.178 1.025 0 .342 0 .418-.722 1.254-1.748 2.052-4.293 3.04-6.953 3.04-6.117 0-9.536-5.015-9.536-10.752 0-5.7 3.42-10.715 9.536-10.715s9.537 5.054 9.537 10.715c0 .57-.532 1.102-1.064 1.102zm-8.473-9.65c-4.56 0-6.953 3.495-7.295 7.485h14.628c-.342-4.332-3.153-7.485-7.333-7.485z"/><use xlink:href="#L"/><path d="M505.36 188.592c-.53 0-1.063-.38-1.063-1.063v-12.767c0-2.62-2.203-4.825-4.825-4.825s-4.863 2.204-4.863 4.787v12.805c0 .684-.532 1.063-1.063 1.063s-1.103-.38-1.103-1.063v-12.767c0-2.62-2.203-4.825-4.787-4.825-2.66 0-4.863 2.204-4.863 4.787v12.805c0 .684-.57 1.063-1.063 1.063-.532 0-1.103-.38-1.103-1.063v-18.05c0-.684.57-1.063 1.103-1.063.494 0 1.063.38 1.063 1.063v.23c1.254-1.216 2.964-1.938 4.825-1.938 2.432 0 4.598 1.216 5.928 3.23 1.254-1.937 3.42-3.23 5.9-3.23 3.95 0 7.03 3.116 7.03 6.953v12.805c0 .684-.57 1.063-1.103 1.063zm22.535-9.005h-15.768c.342 4.332 3.153 7.485 7.295 7.485 2.052 0 4.483-.912 5.585-2.622.267-.418.57-.53.912-.53.57 0 1.178.455 1.178 1.025 0 .342 0 .418-.722 1.254-1.748 2.052-4.293 3.04-6.953 3.04-6.117 0-9.536-5.015-9.536-10.752 0-5.7 3.42-10.715 9.536-10.715s9.537 5.054 9.537 10.715c0 .57-.532 1.102-1.064 1.102zm-8.473-9.65c-4.56 0-6.953 3.495-7.295 7.485h14.628c-.342-4.332-3.153-7.485-7.333-7.485zm21.963 27.318c-3.23 0-7.8-1.216-7.8-2.584 0-.608.494-1.216 1.103-1.216.418 0 1.3.646 2.014.912.987.342 2.545.722 4.673.722 4.863 0 7.37-2.394 7.37-7.067v-2.66c-1.672 2.014-4.065 3.23-7.37 3.23-6.003 0-9.536-4.256-9.536-10.106 0-5.7 3.42-10.715 9.536-10.715 3.306 0 5.775 1.368 7.37 3.572v-1.824c0-.684.57-1.063 1.102-1.063.494 0 1.064.38 1.064 1.063v18.503c0 6.04-3.6 9.233-9.537 9.233zm0-27.318c-4.483 0-7.37 3.6-7.37 8.55 0 4.9 2.698 7.94 7.37 7.94s7.37-3.04 7.37-7.94c0-4.94-2.85-8.55-7.37-8.55z"/><use xlink:href="#M"/><path d="M604.198 169.823l-6.193 17.857c-.266.722-.607.912-1.102.912-.646 0-.836-.228-1.064-.912l-4.977-14.817-4.978 14.817c-.266.722-.608.912-1.102.912s-.874-.304-1.064-.912l-6.154-17.857c-.038-.113-.076-.304-.076-.418 0-.607.607-.987 1.102-.987.38 0 .836.19.988.722l5.205 15.046 4.977-14.855c.23-.723.456-.912 1.103-.912.456 0 .836.15 1.063.912l5.054 14.855 5.13-15.046c.19-.532.57-.722.987-.722.57 0 1.18.38 1.18 1.025 0 .152-.038.267-.076.38z"/><use xlink:href="#M" x="51.603"/><use xlink:href="#N"/><use xlink:href="#N" x="10.717"/><path d="M677.043 188.592c-.53 0-1.102-.38-1.102-1.063v-11.095a6.47 6.47 0 0 0-6.497-6.497c-3.57 0-6.497 2.888-6.497 6.497v11.095c0 .684-.57 1.063-1.063 1.063-.532 0-1.103-.38-1.103-1.063v-24.925c0-.684.57-1.063 1.103-1.063.494 0 1.063.38 1.063 1.063v8.093c1.596-1.86 3.913-2.926 6.497-2.926 4.7 0 8.663 3.914 8.663 8.663v11.095c0 .684-.57 1.063-1.064 1.063zm14.024.646c-6.117 0-9.536-5.015-9.536-10.752 0-5.7 3.42-10.715 9.536-10.715s9.537 5.016 9.537 10.715c0 5.737-3.42 10.752-9.537 10.752zm0-19.3c-4.483 0-7.37 3.6-7.37 8.55s2.888 8.587 7.37 8.587c4.52 0 7.37-3.647 7.37-8.587s-2.85-8.55-7.37-8.55zm29.22 18.654c-.532 0-1.102-.38-1.102-1.063v-1.216c-1.596 1.86-3.913 2.925-6.497 2.925-4.7 0-8.663-3.95-8.663-8.662V169.48c0-.684.57-1.063 1.103-1.063.493 0 1.063.38 1.063 1.063v11.095a6.497 6.497 0 1 0 12.994 0V169.48c0-.684.57-1.063 1.102-1.063.494 0 1.064.38 1.064 1.063v18.048c0 .684-.57 1.063-1.064 1.063z"/><use xlink:href="#L" x="265.693"/></g><g class="U"><path d="M100.357 42.382h-9.96v35.1c0 1.62-1.2 2.52-2.52 2.52-1.26 0-2.58-.9-2.58-2.52v-35.1h-9.84c-1.74 0-2.64-1.32-2.64-2.58 0-1.2.9-2.52 2.58-2.52h24.96c1.68 0 2.58 1.32 2.58 2.52 0 1.26-.9 2.58-2.58 2.58zM131.317 80c-1.32 0-2.52-.9-2.52-2.52V60.8c0-4.68-3.9-8.58-8.58-8.58-4.62 0-8.52 3.9-8.52 8.58v16.62c0 1.68-1.26 2.64-2.64 2.64-1.26 0-2.52-.9-2.52-2.58V39.862c0-1.74 1.26-2.58 2.52-2.58 1.38 0 2.64.84 2.64 2.52v10.38c2.22-2.1 5.22-3.06 8.52-3.06 7.44 0 13.68 6.18 13.68 13.68v16.62c0 1.68-1.2 2.58-2.58 2.58z"/><use xlink:href="#O"/><path d="M217.955 74.48c-2.94 4.08-7.14 6.54-13.38 6.54-12.9 0-17.46-10.68-17.46-22.38 0-11.76 4.56-22.44 17.46-22.44 6.06 0 10.5 2.4 13.32 6.54.42.54.54 1.02.54 1.5 0 1.44-1.26 2.52-2.64 2.52-.78 0-1.5-.36-2.04-1.08-1.86-2.7-4.62-4.32-9.18-4.32-8.52 0-12.3 6.3-12.3 17.28s3.78 17.28 12.3 17.28c4.56 0 7.32-1.74 9.18-4.38.54-.78 1.26-1.14 2.04-1.14 1.38 0 2.7 1.14 2.7 2.58 0 .48-.18.96-.54 1.5z"/><use xlink:href="#P"/><use xlink:href="#Q"/><path d="M295.714 80h-1.02c-5.7 0-7.86-3-7.86-7.92v-18.84h-1.8c-1.44 0-2.58-1.14-2.58-2.52 0-1.44 1.14-2.58 2.52-2.58h1.8v-8.34c0-1.68 1.26-2.52 2.58-2.52s2.52.84 2.52 2.52v8.34h3.84c1.68 0 2.52 1.38 2.52 2.52 0 1.44-.96 2.58-2.52 2.58h-3.84v19.38c0 1.68.6 2.28 2.28 2.28h1.5c1.56 0 2.58 1.14 2.58 2.52 0 1.44-.96 2.58-2.52 2.58z"/><use xlink:href="#P" x="92.338"/><path d="M360.392 53.242h-2.7v24.18c0 1.68-1.26 2.52-2.64 2.52-1.26 0-2.52-.84-2.52-2.52v-24.18h-2.46c-1.62 0-2.52-1.2-2.52-2.52 0-1.38.9-2.58 2.52-2.58h2.46v-4.08c0-3.84 3.18-6.78 6.9-6.78 1.74 0 2.64 1.2 2.64 2.58 0 1.26-.9 2.52-2.64 2.52-1.02 0-1.74.78-1.74 1.62v4.14h2.7c1.74 0 2.64 1.2 2.64 2.58 0 1.32-.9 2.52-2.64 2.52z"/></g><g fill="#f93"><path d="M397.7 81.02c-4.38 0-10.5-1.8-13.92-4.98-.66-.6-.84-1.26-.84-1.86a2.6 2.6 0 0 1 2.58-2.58c.9 0 1.2.3 2.28 1.14 2.94 2.22 6.42 3.18 9.9 3.18 7.14 0 10.26-2.58 10.26-7.02 0-12.48-23.94-5.4-23.94-21.72 0-7.32 6.18-10.98 14.1-10.98 4.14 0 10.08 1.62 13.02 5.1.48.54.66 1.08.66 1.62 0 1.44-1.32 2.7-2.58 2.7-.9 0-1.38-.42-2.4-1.32-2.4-2.04-5.46-2.94-8.7-2.94-6.48 0-8.94 2.58-8.94 5.82 0 11.22 23.94 4.56 23.94 21.72 0 8.94-7.5 12.12-15.42 12.12z"/><use xlink:href="#P" x="194.275"/><path d="M458.2 80.12c-3.24 0-6-2.76-6-6.12V39.862c0-1.74 1.26-2.58 2.58-2.58s2.58.84 2.58 2.52V74c0 .72.54 1.02.84 1.02 1.68 0 2.58 1.2 2.58 2.58 0 1.32-.9 2.52-2.58 2.52z"/><use xlink:href="#R"/><path d="M515.25 52.222c-4.62 0-8.52 3.9-8.52 8.58v16.62c0 1.68-1.26 2.58-2.64 2.58-1.26 0-2.52-.9-2.52-2.52v-26.76c0-1.68 1.38-2.58 2.52-2.58 1.2 0 2.34.66 2.58 2.04a13.88 13.88 0 0 1 8.58-3.06c1.74 0 2.64 1.2 2.64 2.58 0 1.32-.9 2.52-2.64 2.52z"/></g><g class="U"><use xlink:href="#R" x="73.439"/><use xlink:href="#S"/><use xlink:href="#T"/></g><g fill="#20d6ff"><path d="M706.704 40.462l-9.9 37.438c-.3 1.44-1.08 2.1-2.46 2.1-1.26 0-2.16-.66-2.58-2.1l-8.1-28.74-8.04 28.74c-.42 1.44-1.26 2.1-2.52 2.1-1.32 0-2.16-.66-2.52-2.1l-9.9-37.438a3.56 3.56 0 0 1-.119-.84c0-1.5 1.38-2.34 2.7-2.34 1.02 0 2.04.6 2.4 1.86l7.56 28.62 7.92-28.38c.42-1.44 1.26-2.1 2.52-2.1 1.32 0 2.16.66 2.58 2.1l7.92 28.38 7.56-28.62c.36-1.32 1.56-1.98 2.46-1.98 1.32 0 2.64.96 2.64 2.46 0 .3-.06.6-.12.84z"/><use xlink:href="#U"/><use xlink:href="#S" x="149.038"/><use xlink:href="#T" x="149.038"/></g><g class="U"><path d="M840.143 80h-24.96c-1.44 0-2.64-1.14-2.64-2.52V39.862c0-1.44 1.2-2.58 2.64-2.58h24.96c1.56 0 2.52 1.14 2.52 2.52 0 1.26-.9 2.58-2.52 2.58h-22.44V54.5h15.72a2.56 2.56 0 0 1 2.58 2.58c0 1.38-1.02 2.58-2.58 2.58h-15.72V74.9h22.44c1.62 0 2.52 1.26 2.52 2.58 0 1.38-.96 2.52-2.52 2.52z"/><use xlink:href="#S" x="273.596"/><use xlink:href="#O" x="742.066"/><path d="M930.382 52.222c-4.62 0-8.52 3.9-8.52 8.58v16.62c0 1.68-1.26 2.58-2.64 2.58-1.26 0-2.52-.9-2.52-2.52v-26.76c0-1.68 1.38-2.58 2.52-2.58 1.2 0 2.34.66 2.58 2.04a13.88 13.88 0 0 1 8.58-3.06c1.74 0 2.64 1.2 2.64 2.58 0 1.32-.9 2.52-2.64 2.52zm18.6 41.458c-3.66 0-12.72-1.32-12.72-4.92 0-1.38 1.26-2.7 2.58-2.7 1.38 0 .18.18 3.36 1.38 1.44.54 3.6 1.14 6.78 1.14 6.66 0 9.9-3.18 9.9-9.48v-2.7c-2.34 2.22-5.7 3.6-9.9 3.6-9.48 0-15.06-6.72-15.06-15.96 0-9 5.4-16.92 15.06-16.92 4.2 0 7.44 1.26 9.9 3.84v-.24c0-1.68 1.38-2.58 2.58-2.58 1.26 0 2.58.9 2.58 2.58V79.1c0 9.54-5.7 14.58-15.06 14.58zm0-41.458c-6 0-9.9 4.68-9.9 11.82 0 6.84 3.6 10.86 9.9 10.86s9.9-4.02 9.9-10.86c0-7.14-3.84-11.82-9.9-11.82zm48.358-.48l-16.2 36.838c-1.2 2.76-3.84 4.02-6.6 4.02h-1.92c-1.74 0-2.52-1.26-2.52-2.64 0-1.26.78-2.52 2.52-2.52h1.86c.78 0 1.62-.12 1.98-.96l3.96-8.88-11.7-25.86a2.16 2.16 0 0 1-.3-1.14c0-1.5 1.44-2.52 2.76-2.52.9 0 1.68.48 2.16 1.56l9.78 21.72 9.54-21.72c.48-1.08 1.38-1.5 2.22-1.5 1.38 0 2.76 1.02 2.76 2.46 0 .42-.06.72-.3 1.14zM407.8 141.2h-6.9c-1.62 0-2.52-1.26-2.52-2.52 0-1.38.9-2.58 2.52-2.58h.9v-32.52h-.9c-1.62 0-2.52-1.26-2.52-2.52 0-1.38.9-2.58 2.52-2.58h6.9c1.74 0 2.64 1.2 2.64 2.58 0 1.26-.9 2.52-2.64 2.52h-.9v32.52h.9c1.74 0 2.64 1.2 2.64 2.58 0 1.26-.9 2.52-2.64 2.52z"/><use xlink:href="#Q" x="157.376" y="61.2"/><path d="M474.45 122.72H461.6v15.9c0 1.56-1.2 2.58-2.52 2.58-1.44 0-2.64-.96-2.64-2.52v-37.618c0-1.08.72-2.58 2.52-2.58h15.54c5.28 0 12.06 4.14 12.06 12.06 0 6.78-5.4 12.18-12.12 12.18zm0-19.14H461.6v14.04h12.78a6.99 6.99 0 0 0 7.02-7.02c0-3.9-3.12-7.02-6.96-7.02zm23.05 37.74c-3.24 0-6-2.76-6-6.12v-34.138c0-1.74 1.26-2.58 2.58-2.58s2.58.84 2.58 2.52V135.2c0 .72.54 1.02.84 1.02 1.68 0 2.58 1.2 2.58 2.58 0 1.32-.9 2.52-2.58 2.52zm31.13-.06c-1.14 0-2.28-.66-2.52-1.98-2.4 1.86-5.34 3-8.64 3-7.44 0-13.68-6.18-13.68-13.68v-16.62c0-1.68 1.26-2.58 2.52-2.58 1.38 0 2.64.9 2.64 2.52v16.68c0 4.68 3.9 8.58 8.52 8.58 4.68 0 8.58-3.9 8.58-8.58v-16.62c0-1.86 1.2-2.64 2.52-2.64 1.38 0 2.58.9 2.58 2.58v26.82c0 1.68-1.2 2.52-2.52 2.52z"/><use xlink:href="#V"/><use xlink:href="#W"/><use xlink:href="#U" x="-102.536" y="61.2"/><use xlink:href="#V" x="83.038"/><use xlink:href="#W" x="83.038"/></g><defs ><path id="E" d="M130.186 698.32v-1.807h2.464v-17.46l-2.52.24v-1.325c1.148-.3 2.268-.843 3.192-1.686h1.344v20.23h2.352v1.807h-6.832z"/><path id="F" d="M139.705 791.422c-3.136 0-4.984-2.65-4.984-5.78 0-2.68 1.316-4.605 3.248-6.08-1.792-1.535-2.8-3.04-2.8-5.6 0-2.86 2.016-4.877 4.536-4.877s4.536 2.017 4.536 4.877c0 2.56-1.008 4.064-2.8 5.6 1.932 1.476 3.248 3.402 3.248 6.08 0 3.13-1.848 5.78-4.984 5.78zm0-10.718c-1.624 1.295-2.968 2.68-2.968 5.028 0 1.776.896 3.884 2.968 3.884s2.968-2.107 2.968-3.884c0-2.35-1.344-3.733-2.968-5.028zm0-9.813c-1.736 0-2.52 1.444-2.52 2.83 0 2.198 1.008 3.824 2.52 4.817 1.512-.993 2.52-2.62 2.52-4.817 0-1.385-.784-2.83-2.52-2.83z"/><path id="G" d="M106.614 1045.51c-.633 0-1.267-.367-1.4-1.1-1.334 1.034-2.97 1.668-4.804 1.668-4.136 0-7.604-3.436-7.604-7.605v-9.24a1.37 1.37 0 0 1 1.4-1.435c.768 0 1.468.5 1.468 1.4v9.272c0 2.602 2.168 4.77 4.736 4.77 2.603 0 4.77-2.17 4.77-4.77v-9.24c0-1.034.667-1.468 1.4-1.468.768 0 1.435.5 1.435 1.435v14.9c0 .934-.667 1.4-1.4 1.4z"/><path id="H" d="M827.827 1046.318c-3.22 0-5.02-2.64-5.02-5.66 0-3 1.8-5.64 5.02-5.64s5.02 2.64 5.02 5.64c0 3.02-1.8 5.66-5.02 5.66zm0-10.162c-2.36 0-3.88 1.9-3.88 4.5s1.52 4.52 3.88 4.52c2.38 0 3.88-1.92 3.88-4.52s-1.5-4.5-3.88-4.5z"/><path id="I" d="M851.566 1036.337a3.42 3.42 0 0 0-3.42 3.42v5.66c0 .36-.3.56-.56.56-.28 0-.58-.2-.58-.56v-9.502c0-.36.3-.56.58-.56.26 0 .56.2.56.56v.82c.898-.98 2.08-1.54 3.42-1.54.36 0 .58.3.58.56a.58.58 0 0 1-.58.581z"/><path id="J" d="M873.327 1041.237h-8.3c.18 2.28 1.66 3.94 3.84 3.94 1.08 0 2.36-.48 2.94-1.38a.52.52 0 0 1 .479-.28c.3 0 .62.24.62.54 0 .18 0 .22-.38.66-.92 1.08-2.26 1.6-3.66 1.6-3.22 0-5.02-2.64-5.02-5.66 0-3 1.8-5.64 5.02-5.64s5.02 2.66 5.02 5.64a.61.61 0 0 1-.561.58zm-4.46-5.08c-2.4 0-3.66 1.84-3.84 3.94h7.7c-.18-2.28-1.66-3.94-3.86-3.94z"/><path id="K" d="M942.363 1046.358c-1.2 0-3.22-.42-3.92-1.58-.08-.12-.08-.22-.08-.3 0-.32.28-.6.58-.6.12 0 .32.1.44.28.72.88 2 1.06 2.98 1.06 1.94 0 2.922-.64 2.922-1.94 0-3.02-6.562-1.42-6.562-5.422 0-2.02 2.02-2.8 3.842-2.8 1.04 0 2.64.36 3.44 1.16.12.12.18.26.18.38a.65.65 0 0 1-.619.6c-.12 0-.26-.04-.38-.16-.62-.6-1.74-.84-2.62-.84-1.762 0-2.7.68-2.7 1.66 0 2.8 6.56 1.32 6.56 5.422 0 2.28-2 3.08-4.06 3.08z"/><path id="L" d="M468.96 170.28c-3.57 0-6.497 2.888-6.497 6.497v10.753c0 .684-.57 1.063-1.063 1.063-.532 0-1.103-.38-1.103-1.063V169.48c0-.684.57-1.063 1.103-1.063.494 0 1.063.38 1.063 1.063v1.558c1.7-1.86 3.95-2.925 6.497-2.925.684 0 1.102.57 1.102 1.063 0 .532-.418 1.102-1.102 1.102z"/><path id="M" d="M575.395 188.592h-.038c-1.254 0-3.04-.684-3.762-2.964-1.596 2.242-4.065 3.61-7.37 3.61-6.193 0-9.536-5.09-9.536-10.752 0-5.737 3.42-10.715 9.536-10.715 3.306 0 5.775 1.368 7.37 3.572v-1.862c0-.607.494-1.063 1.102-1.063.532 0 1.064.38 1.064 1.063v15.312c0 2.432 2.735.912 2.735 2.736a1.04 1.04 0 0 1-1.102 1.063zm-11.17-18.655c-4.483 0-7.37 3.61-7.37 8.55s2.888 8.587 7.37 8.587c4.52 0 7.37-3.647 7.37-8.587s-2.85-8.55-7.37-8.55z"/><path id="N" d="M637.753 188.592h-1.178c-3 0-4.483-1.48-4.483-4.445v-13.564h-1.937c-.684 0-1.063-.57-1.063-1.102 0-.494.38-1.063 1.063-1.063h1.938v-5.813c0-.684.57-1.063 1.103-1.063s1.063.38 1.063 1.063v5.813h3.495c.685 0 1.064.57 1.064 1.063 0 .532-.38 1.102-1.064 1.102h-3.495v13.564c0 1.86.532 2.28 2.317 2.28h1.178c.685 0 1.064.57 1.064 1.103 0 .493-.38 1.063-1.064 1.063z"/><path id="O" d="M166.836 66.68h-22.2c.84 5.64 4.44 9.24 9.72 9.24 2.7 0 5.4-.96 7.14-3.12.54-.6 1.14-.96 1.86-.96 1.32 0 2.7 1.2 2.7 2.64 0 .72-.18 1.26-1.44 2.52-2.7 2.64-6.42 4.02-10.26 4.02-9.66 0-15.06-7.98-15.06-16.98 0-8.94 5.4-16.92 15.06-16.92 9.78 0 15 7.98 15 16.92 0 1.32-.96 2.64-2.52 2.64zm-12.48-14.46c-5.64 0-8.94 4.14-9.72 9.3h19.44c-.84-5.76-4.44-9.3-9.72-9.3z"/><path id="P" d="M237.275 81.02c-9.66 0-15.06-7.92-15.06-16.98 0-9 5.4-16.92 15.06-16.92s15.06 7.92 15.06 16.92c0 9.06-5.4 16.98-15.06 16.98zm0-28.8c-6 0-9.9 4.68-9.9 11.82 0 7.2 3.9 11.88 9.9 11.88 6.06 0 9.9-4.68 9.9-11.88 0-7.14-3.84-11.82-9.9-11.82z"/><path id="Q" d="M268.294 81.02c-3.3 0-8.82-1.02-11.64-4.5-.36-.54-.54-1.08-.54-1.56 0-1.5 1.44-2.7 2.7-2.7.72 0 1.26.36 1.86 1.02 1.86 2.04 4.92 2.64 7.62 2.64 5.4 0 7.14-1.86 7.14-4.56 0-7.68-18.3-2.94-18.3-15.3 0-6.54 6.12-8.94 11.82-8.94 3.24 0 10.86 1.62 10.86 4.98 0 1.32-1.08 2.7-2.52 2.7-.54 0-1.38-.3-1.98-.78-1.62-1.38-3.96-1.8-6.36-1.8-4.98 0-6.72 1.86-6.72 3.84 0 7.14 18.36 2.52 18.36 15.3 0 7.08-5.94 9.66-12.3 9.66z"/><path id="R" d="M494.608 80c-3.3 0-4.8-2.34-5.34-3.42-2.4 2.64-5.88 4.44-10.56 4.44-9.78 0-15.06-8.04-15.06-16.98s5.4-16.92 15.06-16.92c4.2 0 7.56 1.5 9.9 3.96v-.24c0-.66.24-2.7 2.52-2.7 1.26 0 2.64.66 2.64 2.52v23.16c0 .78.54 1.08.84 1.08 1.68 0 2.58 1.2 2.58 2.58 0 1.26-.9 2.52-2.58 2.52zm-15.9-27.78c-6 0-9.9 4.68-9.9 11.82 0 7.2 3.9 11.88 9.9 11.88 6.06 0 9.9-4.68 9.9-11.88 0-7.14-3.84-11.82-9.9-11.82z"/><path id="S" d="M599.786 80c-1.32 0-2.52-.9-2.52-2.52V60.8c0-4.68-3.9-8.58-8.58-8.58-4.62 0-8.52 3.9-8.52 8.58v16.62c0 1.68-1.26 2.64-2.64 2.64-1.26 0-2.52-.9-2.52-2.58v-26.82c0-1.74 1.26-2.52 2.52-2.52 1.2 0 2.28.66 2.58 1.98 2.34-1.86 5.28-3 8.58-3 7.44 0 13.68 6.18 13.68 13.68v16.62c0 1.68-1.2 2.58-2.58 2.58z"/><path id="T" d="M635.306 79.94c-1.32 0-2.58-.84-2.58-2.52 0 0-3.54 3.6-9.9 3.6-9.66 0-15.06-7.92-15.06-16.98 0-9 5.4-16.92 15.06-16.92 4.2 0 7.56 1.44 9.9 3.9v-11.16c0-1.74 1.26-2.58 2.58-2.58s2.58.84 2.58 2.52V77.42c0 1.68-1.26 2.52-2.58 2.52zm-12.48-27.72c-6 0-9.9 4.68-9.9 11.82 0 7.2 3.9 11.88 9.9 11.88 6.06 0 9.9-4.68 9.9-11.88 0-7.14-3.84-11.82-9.9-11.82z"/><path id="U" d="M713.966 43.282a4.3 4.3 0 1 1 0-8.64 4.3 4.3 0 1 1 0 8.64zm0 36.72c-1.32 0-2.64-.9-2.64-2.52v-26.76c0-1.68 1.32-2.58 2.64-2.58 1.26 0 2.52.9 2.52 2.58v26.76c0 1.68-1.26 2.52-2.52 2.52z"/><path id="V" d="M563.248 141.2c-1.32 0-2.52-.9-2.52-2.52V122c0-4.68-3.9-8.58-8.58-8.58-4.62 0-8.52 3.9-8.52 8.58v16.62c0 1.68-1.26 2.64-2.64 2.64-1.26 0-2.52-.9-2.52-2.58v-26.82c0-1.74 1.26-2.52 2.52-2.52 1.2 0 2.28.66 2.58 1.98 2.34-1.86 5.28-3 8.58-3 7.44 0 13.68 6.18 13.68 13.68v16.62c0 1.68-1.2 2.58-2.58 2.58z"/><path id="W" d="M586.288 154.88c-3.66 0-12.72-1.32-12.72-4.92 0-1.38 1.26-2.7 2.58-2.7 1.38 0 .18.18 3.36 1.38 1.44.54 3.6 1.14 6.78 1.14 6.66 0 9.9-3.18 9.9-9.48v-2.7c-2.34 2.22-5.7 3.6-9.9 3.6-9.48 0-15.06-6.72-15.06-15.96 0-9 5.4-16.92 15.06-16.92 4.2 0 7.44 1.26 9.9 3.84v-.24c0-1.68 1.38-2.58 2.58-2.58 1.26 0 2.58.9 2.58 2.58v28.38c0 9.54-5.7 14.58-15.06 14.58zm0-41.458c-6 0-9.9 4.68-9.9 11.82 0 6.84 3.6 10.86 9.9 10.86s9.9-4.02 9.9-10.86c0-7.14-3.84-11.82-9.9-11.82z"/></defs></svg>