<svg xmlns="http://www.w3.org/2000/svg" xmlns:xlink="http://www.w3.org/1999/xlink" viewBox="0 0 1080 1080"><style><![CDATA[.N{opacity:.8}.O{fill:#fff}.P{opacity:.6}.Q{opacity:.4}.R{fill:#ff0}.S{stroke-width:2}.T{stroke-miterlimit:10}]]></style><linearGradient id="A" gradientUnits="userSpaceOnUse" x1="540" y1="0" x2="540" y2="1080"><stop offset="0" stop-color="#0e5cad"/><stop offset=".126" stop-color="#1565ac"/><stop offset=".334" stop-color="#267eab"/><stop offset=".598" stop-color="#44a7a8"/><stop offset=".904" stop-color="#6bdea5"/><stop offset="1" stop-color="#79f1a4"/></linearGradient><path d="M1040 1080H40c-22.09 0-40-17.91-40-40V40C0 17.91 17.91 0 40 0h1000c22.09 0 40 17.91 40 40v1000c0 22.09-17.91 40-40 40z" fill="url(#A)"/><g fill="none" stroke="#fff" class="S T"><path d="M681.546 588.537h59.7c10.702 0 20.4 4.338 27.405 11.352a38.63 38.63 0 0 1 11.352 27.405v94.65c0 10.8-4.378 20.578-11.455 27.655s-16.855 11.455-27.655 11.455h-59.356M797.654 782.6h96.255c10.912 0 20.8 4.595 27.94 12.024s11.573 17.692 11.573 29.028v90.05c0 11.522-4.495 21.954-11.763 29.504s-17.3 12.22-28.4 12.22h-95.606" class="P" stroke-dasharray="2,4"/><path d="M33.956 199.96h972.314c10.97 0 20.903 4.447 28.093 11.637S1046 228.72 1046 239.69v91.686c0 11.436-4.635 21.79-12.13 29.284s-17.848 12.13-29.284 12.13H33.956" opacity=".3"/></g><g class="N R"><use xlink:href="#C"/><use xlink:href="#D"/><path d="M87.613 275.68c-2.488 4.184-4.32 8.3-5.496 12.346s-1.86 8.34-2.05 12.88c.055.355-.082.506-.4.45H77.33c-.3-.027-.424-.178-.37-.45.2-4.292.957-8.64 2.297-13.043 1.313-4.402 3.185-8.613 5.62-12.633.246-.383.232-.574-.04-.574H72.2c-.3.055-.424-.082-.37-.4v-2.174c-.055-.3.068-.424.37-.37h15.217c.3-.055.424.068.37.37v3.035l-.164.574v-.04.04zm19.3 0c-2.488 4.184-4.32 8.3-5.496 12.346s-1.86 8.34-2.05 12.88c.055.355-.082.506-.4.45H96.62c-.3-.027-.424-.178-.37-.45.2-4.292.957-8.64 2.297-13.043 1.313-4.402 3.185-8.613 5.62-12.633.246-.383.232-.574-.04-.574H91.492c-.3.055-.424-.082-.37-.4v-2.174c-.055-.3.068-.424.37-.37h15.217c.3-.055.424.068.37.37v3.035l-.164.574v-.04.04z"/></g><g class="N R"><use xlink:href="#C" x="0.138" y="194.3"/><use xlink:href="#D" x="-1.542" y="194.299"/><path d="M83.937 467.765c1.42 1.477 2.16 3.35 2.215 5.62-.164 3.4-1.34 5.633-3.527 6.727-.137.1-.123.246.04.4 2.707 1.56 4.046 3.965 4.02 7.22-.055 2.516-.834 4.54-2.338 6.07-1.532 1.532-3.46 2.324-5.783 2.38-2.324-.055-4.24-.847-5.742-2.38s-2.283-3.554-2.338-6.07c-.027-3.254 1.313-5.66 4.02-7.22.164-.164.178-.3.04-.4-2.188-1.093-3.363-3.336-3.527-6.727.055-2.27.793-4.143 2.215-5.62 1.395-1.503 3.172-2.283 5.332-2.338 2.187.055 3.98.834 5.373 2.338zm-5.373 25.676c1.56-.027 2.803-.56 3.732-1.6.93-1 1.395-2.365 1.395-4.06 0-1.832-.45-3.295-1.354-4.4-.902-1.12-2.16-1.695-3.773-1.723-1.586.027-2.83.602-3.732 1.723-.902 1.094-1.354 2.557-1.354 4.4 0 1.696.465 3.05 1.395 4.06.93 1.04 2.16 1.573 3.7 1.6v-.04.04zm4.594-20.016c0-1.45-.4-2.68-1.23-3.7-.793-1-1.914-1.53-3.363-1.56-1.45.027-2.57.547-3.363 1.56s-1.2 2.242-1.2 3.7c.082 3.445 1.6 5.264 4.553 5.455 2.98-.2 4.512-2 4.594-5.455zm20.08-5.66c1.42 1.477 2.16 3.35 2.215 5.62-.164 3.4-1.34 5.633-3.527 6.727-.137.1-.123.246.04.4 2.707 1.56 4.046 3.965 4.02 7.22-.055 2.516-.834 4.54-2.338 6.07-1.532 1.532-3.46 2.324-5.783 2.38-2.324-.055-4.24-.847-5.742-2.38s-2.283-3.554-2.338-6.07c-.027-3.254 1.313-5.66 4.02-7.22.164-.164.178-.3.04-.4-2.188-1.093-3.363-3.336-3.527-6.727.055-2.27.793-4.143 2.215-5.62 1.395-1.503 3.172-2.283 5.332-2.338 2.188.055 3.98.834 5.373 2.338zm-5.373 25.676c1.56-.027 2.803-.56 3.732-1.6.93-1 1.395-2.365 1.395-4.06 0-1.832-.45-3.295-1.354-4.4-.902-1.12-2.16-1.695-3.773-1.723-1.586.027-2.83.602-3.732 1.723-.902 1.094-1.354 2.557-1.354 4.4 0 1.696.465 3.05 1.395 4.06.93 1.04 2.16 1.573 3.7 1.6v-.04.04zm4.594-20.016c0-1.45-.4-2.68-1.23-3.7-.793-1-1.914-1.53-3.363-1.56-1.45.027-2.57.547-3.363 1.56s-1.2 2.242-1.2 3.7c.082 3.445 1.6 5.264 4.553 5.455 2.98-.2 4.512-2 4.594-5.455z"/></g><g class="N R"><path d="M36.83 686.26c-.027.273.096.396.37.37h11.977c.3-.055.424.068.37.37v2.215c.055.3-.068.438-.37.4H34.124c-.3.027-.424-.11-.37-.4v-2.256c.137-3.69 1.203-6.494 3.2-8.408s3.98-3.637 5.947-5.168c1.996-1.504 3.076-3.473 3.24-5.906-.027-1.477-.437-2.68-1.23-3.61-.793-.957-1.9-1.45-3.322-1.477-1.56.027-2.762.547-3.61 1.56s-1.3 2.242-1.354 3.69c.027.383-.123.547-.45.492H33.96c-.3.055-.424-.068-.37-.37.11-2.242.888-4.17 2.338-5.783 1.42-1.613 3.322-2.447 5.7-2.502 2.215.027 4.033.78 5.455 2.256 1.42 1.45 2.16 3.322 2.215 5.62-.164 2.98-1.23 5.29-3.2 6.932l-5.947 4.963c-1.996 1.64-3.104 3.98-3.322 7.014v-.04.04z"/><use xlink:href="#E"/><use xlink:href="#E" x="19.301"/><path d="M104.247 679.696c-.027.3.096.438.37.4h2.502c.3-.055.424.068.37.37v2c.055.3-.068.438-.37.4h-2.502c-.273-.055-.396.068-.37.37v5.906c.055.355-.068.506-.37.45h-2.092c-.273.055-.396-.096-.37-.45v-5.906c.055-.3-.068-.424-.37-.37h-9.516c-.273.027-.396-.11-.37-.4V679.9l.164-.697 8.736-18.744c.082-.22.273-.328.574-.328h3.24c.3-.027.424.11.37.4v19.154zm-10.295 0c-.164.3-.082.438.246.4h6.85c.3.027.424-.11.37-.4v-15.34c-.055-.328-.164-.355-.328-.082l-7.137 15.422z"/></g><path d="M37.052 880.613c-.027.273.096.396.37.37H49.4c.3-.055.424.068.37.37v2.215c.055.3-.068.438-.37.4H34.345c-.3.027-.424-.1-.37-.4v-2.256c.137-3.7 1.203-6.494 3.2-8.408l5.947-5.168c1.996-1.504 3.076-3.473 3.24-5.906-.027-1.477-.437-2.68-1.23-3.6-.793-.957-1.9-1.45-3.322-1.477-1.56.027-2.762.547-3.6 1.56s-1.3 2.242-1.354 3.7c.027.383-.123.547-.45.492H34.18c-.3.055-.424-.068-.37-.37.1-2.242.888-4.17 2.338-5.783 1.42-1.613 3.322-2.447 5.7-2.502 2.215.027 4.033.78 5.455 2.256 1.42 1.45 2.16 3.322 2.215 5.62-.164 2.98-1.23 5.3-3.2 6.932L40.37 873.6c-1.996 1.64-3.104 3.98-3.322 7.014v-.04.04zm29.923-24.363c1.503 1.56 2.283 3.596 2.338 6.1v13.863c-.055 2.516-.834 4.566-2.338 6.152-1.504 1.56-3.486 2.365-5.947 2.42-2.434-.055-4.416-.86-5.947-2.42-1.504-1.586-2.27-3.637-2.297-6.152V862.36c.027-2.516.793-4.553 2.297-6.1 1.53-1.586 3.513-2.393 5.947-2.42 2.46.027 4.443.834 5.947 2.42zm-11.115 6.1v13.863c.027 1.695.492 3.063 1.395 4.102.93 1.04 2.188 1.572 3.773 1.6 1.585-.027 2.844-.56 3.773-1.6s1.408-2.406 1.436-4.102V862.36c-.027-1.695-.506-3.05-1.436-4.06-.93-1.04-2.188-1.572-3.773-1.6-1.586.027-2.844.56-3.773 1.6-.902 1.012-1.368 2.365-1.395 4.06v-.04.04zm22.663-7.505l.492-.37h2.912c.3 0 .437.137.4.4v25.922c-.055.3.068.438.37.4h5.332c.3-.055.424.068.37.37v2c.027.3-.096.424-.37.37H73.52c-.3.055-.437-.068-.4-.37v-2c-.027-.3.1-.424.4-.37h5.537c.273.027.396-.1.37-.4v-21.86c-.027-.328-.164-.355-.4-.082-1.286 1.203-3.158 2.297-5.62 3.28-.22.1-.342.04-.37-.205v-2.092c0-.164.096-.287.287-.37 2.324-.984 4.06-2.53 5.2-4.635v-.04.04zm25.945 19.195c-.027.3.096.438.37.4h2.502c.3-.055.424.068.37.37v2c.055.3-.068.438-.37.4h-2.502c-.273-.055-.396.068-.37.37v5.906c.055.355-.068.506-.37.45h-2.092c-.273.055-.396-.096-.37-.45V877.6c.055-.3-.068-.424-.37-.37H91.75c-.273.027-.396-.1-.37-.4v-2.584l.164-.697 8.736-18.744c.082-.22.273-.328.574-.328h3.24c.3-.027.424.1.37.4v19.154zm-10.295 0c-.164.3-.082.438.246.4h6.85c.3.027.424-.1.37-.4V858.7c-.055-.328-.164-.355-.328-.082l-7.137 15.422z" class="N R"/><g fill="none" stroke="#fff" class="T"><path d="M33.956 782.59h747.11c11.225 0 21.388 4.55 28.744 11.906s11.906 17.52 11.906 28.744v92.146c0 11.055-4.48 21.063-11.725 28.307s-17.253 11.725-28.308 11.725H33.956" opacity=".3" class="S"/><path d="M33.956 588.38h636.838c10.75 0 20.48 4.428 27.525 11.587s11.4 17.05 11.4 27.972v93.593c0 10.956-4.37 20.875-11.435 28.055s-16.826 11.62-27.607 11.62H33.956" opacity=".3" stroke-width="1.984"/><path d="M35.033 394.17h502.675c10.686 0 20.36 4.33 27.363 11.334s11.334 16.677 11.334 27.363v92.897c0 11.387-4.615 21.695-12.077 29.157S546.557 567 535.17 567H35.033" opacity=".3" class="S"/></g><g class="O Q"><use xlink:href="#F"/><use xlink:href="#G"/><path d="M972.975 296.076h-1.806v3.277c0 1.134-.966 1.764-1.807 1.764-.882 0-1.806-.63-1.806-1.764v-3.277h-10.04c-1.176 0-1.9-.714-1.9-1.68a1.71 1.71 0 0 1 .252-.924l11.594-22.054c.336-.672.966-.966 1.512-.966.966 0 1.9.756 1.9 1.722 0 .294-.042.588-.252.924l-10.166 19.408h7.1v-4.8c0-1.218.882-1.848 1.764-1.848.924 0 1.85.588 1.85 1.806v4.83h1.806c1.176 0 1.806.84 1.806 1.806 0 .924-.63 1.764-1.806 1.764zm11.842 5.46c-2.814 0-6.007-1.512-7.56-4-.2-.336-.294-.672-.294-1.008 0-.966.84-1.723 1.806-1.723.798 0 1.092.294 1.722 1.134 1.05 1.302 2.688 2.017 4.327 2.017 2.9 0 5.84-2.646 5.84-6.427 0-3.823-2.94-6.47-5.84-6.47-2.226 0-3.738 1.134-4.453 2.353-.336.63-.924.966-1.638.966-1.092 0-1.807-.714-1.807-2.1v-13.316c0-.966.84-1.764 1.807-1.764h12.77c1.218 0 1.85.84 1.85 1.806 0 .882-.588 1.764-1.765 1.764h-11.1v7.855c1.008-.714 2.604-1.134 4.327-1.134 5.167 0 9.4 4.37 9.4 10.04 0 5.587-4.243 9.998-9.4 9.998zm21.84.295c-3.487 0-6.007-1.513-7.73-4.16-.294-.378-.42-.714-.42-1.092 0-.966.924-1.723 1.9-1.723.504 0 1.092.2 1.47.798 1.092 1.68 2.563 2.604 4.8 2.604 4.033 0 5.84-3.613 6.007-11.594-1.386 1.344-3.57 2.395-6.007 2.395-5 0-9-4.37-9-9.284 0-4.957 4-9.326 9-9.326 8.864 0 9.578 9.074 9.578 15.67 0 7.855-1.722 15.7-9.578 15.7zm0-27.767c-2.856 0-5.42 2.563-5.42 5.713 0 3.108 2.563 5.67 5.42 5.67 2.94 0 5.377-2.48 5.503-5.797-.504-3.234-2.227-5.587-5.503-5.587z"/></g><g class="O Q"><use xlink:href="#H"/><use xlink:href="#G" x="-459.746" y="194.35"/><use xlink:href="#F" x="-431.271" y="194.35"/><use xlink:href="#H" x="40.237"/><path d="M537.293 496.182c-8.863 0-9.578-9.032-9.578-15.67 0-7.855 1.722-15.71 9.578-15.71 3.53 0 6.05 1.554 7.77 4.2a1.65 1.65 0 0 1 .378 1.092c0 .966-.882 1.722-1.848 1.722-.546 0-1.092-.252-1.512-.84-1.092-1.638-2.52-2.562-4.79-2.562-3.99 0-5.84 3.57-5.965 11.594 1.386-1.345 3.528-2.395 5.965-2.395 5.04 0 9.032 4.37 9.032 9.284s-3.99 9.284-9.032 9.284zm0-14.997c-2.898 0-5.335 2.52-5.503 5.797.546 3.276 2.27 5.63 5.503 5.63 2.898 0 5.42-2.604 5.42-5.713s-2.52-5.713-5.42-5.713z"/></g><g class="O Q"><path d="M600.42 689.615c-.894 0-1.788-.682-1.788-1.788V665.01l-3.406 3.32c-.383.383-.81.51-1.192.51-1.022 0-1.916-.937-1.916-1.873 0-.468.17-.894.554-1.277l6.343-6.13c.51-.47 1.064-.682 1.575-.682 1.192 0 1.703 1.192 1.703 2.172v26.734c0 1.15-.894 1.83-1.873 1.83z"/><use xlink:href="#I"/><path d="M624.64 690.04c-2.852 0-6.088-1.532-7.663-4.044-.213-.34-.298-.682-.298-1.022 0-.98.852-1.745 1.83-1.745.8 0 1.107.298 1.746 1.15 1.064 1.32 2.725 2.043 4.385 2.043 2.938 0 5.917-2.682 5.917-6.513 0-3.874-2.98-6.557-5.917-6.557-2.256 0-3.8 1.15-4.513 2.384a1.8 1.8 0 0 1-1.66.979c-1.107 0-1.83-.724-1.83-2.13V661.1c0-.98.852-1.788 1.83-1.788H631.4c1.234 0 1.873.852 1.873 1.83 0 .894-.596 1.788-1.788 1.788h-11.24v7.96c1.02-.724 2.64-1.15 4.385-1.15 5.236 0 9.536 4.427 9.536 10.175 0 5.662-4.3 10.132-9.536 10.132zm22.136.3c-3.534 0-6.088-1.532-7.833-4.215-.298-.383-.426-.724-.426-1.106 0-.98.937-1.745 1.916-1.745.5 0 1.107.212 1.5.8 1.107 1.703 2.597 2.64 4.854 2.64 4.087 0 5.917-3.66 6.088-11.75-1.405 1.362-3.62 2.427-6.088 2.427-5.066 0-9.1-4.428-9.1-9.4 0-5.023 4.044-9.45 9.1-9.45 8.982 0 9.707 9.195 9.707 15.88 0 7.96-1.746 15.922-9.707 15.922zm0-28.14c-2.895 0-5.492 2.597-5.492 5.8 0 3.15 2.597 5.748 5.492 5.748 2.98 0 5.45-2.512 5.577-5.875-.5-3.278-2.256-5.662-5.577-5.662z"/><use xlink:href="#J"/></g><g class="O Q"><use xlink:href="#K"/><use xlink:href="#I" x="115.189" y="194.2"/><path d="M740.213 884.538c-5.194 0-9.4-4.215-9.4-9.366 0-3.277 1.575-6.045 4.13-7.748-1.916-1.532-3.023-3.788-3.023-6.386 0-4.555 3.704-8.3 8.302-8.3 4.555 0 8.3 3.746 8.3 8.3 0 2.598-1.106 4.854-3.022 6.386 2.47 1.703 4.087 4.47 4.087 7.706 0 5.193-4.172 9.408-9.366 9.408zm0-15.198c-3.193 0-5.8 2.683-5.8 5.8 0 3.192 2.64 5.8 5.748 5.8 3.193 0 5.8-2.64 5.8-5.748 0-3.192-2.64-5.832-5.747-5.832zm0-12.94c-2.682 0-4.64 2.086-4.64 4.64 0 2.598 1.958 4.726 4.64 4.726 2.554 0 4.64-2.128 4.64-4.726 0-2.554-2.086-4.64-4.64-4.64zm21.794 28.138c-8.982 0-9.706-9.153-9.706-15.88 0-7.96 1.745-15.922 9.706-15.922 3.576 0 6.13 1.575 7.876 4.257a1.67 1.67 0 0 1 .383 1.106c0 .98-.894 1.746-1.873 1.746-.554 0-1.107-.256-1.533-.852-1.107-1.66-2.554-2.597-4.854-2.597-4.044 0-5.917 3.618-6.045 11.75 1.405-1.363 3.576-2.427 6.045-2.427 5.1 0 9.153 4.427 9.153 9.408s-4.044 9.408-9.153 9.408zm0-15.198c-2.937 0-5.406 2.555-5.577 5.875.553 3.32 2.3 5.705 5.577 5.705 2.938 0 5.492-2.64 5.492-5.8s-2.555-5.8-5.492-5.8zm28.265 9.366h-1.83v3.32c0 1.15-.98 1.788-1.83 1.788-.894 0-1.83-.64-1.83-1.788v-3.32h-10.175c-1.192 0-1.916-.724-1.916-1.703 0-.256.043-.596.256-.937l11.75-22.35c.34-.68.98-.98 1.533-.98.98 0 1.916.766 1.916 1.745 0 .298-.042.596-.255.937l-10.302 19.668h7.195v-4.853c0-1.235.894-1.874 1.788-1.874.937 0 1.873.597 1.873 1.83v4.896h1.83c1.192 0 1.83.852 1.83 1.83 0 .937-.64 1.788-1.83 1.788z"/></g><g class="N O"><path d="M851.068 884.538c-3.278 0-6.173-1.703-7.748-4.342-.213-.34-.298-.682-.298-.98 0-1.02.894-1.788 1.873-1.788.554 0 1.15.213 1.533.852a5.26 5.26 0 0 0 4.598 2.64c3.193 0 5.833-2.64 5.833-5.748 0-3.192-2.597-5.832-5.8-5.832h-.042c-1.107 0-1.788-.852-1.788-1.788s.724-1.83 1.83-1.83c2.597 0 4.683-2 4.683-4.684 0-2.554-2.086-4.64-4.683-4.64-4.13 0-4.172 4.172-6.386 4.172-.98 0-1.916-.767-1.916-1.788a1.88 1.88 0 0 1 .298-1.021c1.022-1.575 3.576-5.023 8.003-5.023 4.598 0 8.302 3.746 8.302 8.3 0 2.598-1.107 4.854-3.022 6.386 2.47 1.703 4.13 4.47 4.13 7.706 0 5.193-4.215 9.408-9.41 9.408z"/><use xlink:href="#L"/><use xlink:href="#L" x="21.964"/></g><g class="N O"><use xlink:href="#K" x="7.988" y="-194.299"/><use xlink:href="#J" x="68.555" y="-0.102"/><use xlink:href="#J" x="90.392" y="-0.102"/></g><g fill="#094b71"><path d="M42.328 1046.045c-3.568 0-5.47-1.97-5.503-2.002 0 .935-.7 1.4-1.468 1.4-.7 0-1.4-.467-1.4-1.4v-20.88a1.35 1.35 0 0 1 1.401-1.434c.767 0 1.468.467 1.468 1.4v6.238c1.334-1.368 3.168-2.17 5.503-2.17 5.37 0 8.373 4.403 8.373 9.406 0 5.037-3.002 9.44-8.373 9.44zm0-16c-3.335 0-5.503 2.602-5.503 6.57 0 4.003 2.168 6.604 5.503 6.604s5.504-2.602 5.504-6.604c0-3.97-2.168-6.57-5.504-6.57zm25.555 8.037h-12.34c.467 3.136 2.468 5.137 5.403 5.137 1.5 0 3.002-.533 3.97-1.734.3-.333.634-.533 1.034-.533.734 0 1.5.667 1.5 1.468 0 .4-.1.7-.8 1.4-1.5 1.468-3.57 2.235-5.704 2.235-5.37 0-8.372-4.437-8.372-9.44 0-4.97 3.002-9.406 8.372-9.406 5.437 0 8.34 4.437 8.34 9.406 0 .734-.534 1.468-1.4 1.468zm-6.937-8.038c-3.136 0-4.97 2.3-5.403 5.17H66.35c-.467-3.202-2.468-5.17-5.403-5.17zM88 1045.478c-1.834 0-2.668-1.3-2.97-1.9-1.334 1.468-3.27 2.47-5.87 2.47-5.437 0-8.372-4.47-8.372-9.44s3.002-9.406 8.372-9.406c2.335 0 4.203.834 5.504 2.202v-.134c0-.367.133-1.5 1.4-1.5.7 0 1.468.367 1.468 1.4v12.875c0 .434.3.6.467.6.935 0 1.435.667 1.435 1.434a1.37 1.37 0 0 1-1.435 1.401zm-8.84-15.443c-3.336 0-5.504 2.602-5.504 6.57 0 4.003 2.168 6.604 5.504 6.604 3.37 0 5.504-2.602 5.504-6.604 0-3.97-2.135-6.57-5.504-6.57z"/><use xlink:href="#M"/><path d="M115.158 1045.478h-.567c-3.17 0-4.37-1.668-4.37-4.403V1030.6h-1c-.8 0-1.435-.634-1.435-1.4 0-.8.634-1.435 1.4-1.435h1v-4.637c0-.934.7-1.4 1.435-1.4s1.4.467 1.4 1.4v4.637h2.135c.934 0 1.4.768 1.4 1.4 0 .8-.533 1.434-1.4 1.434h-2.135v10.774c0 .934.333 1.268 1.268 1.268h.833c.868 0 1.435.634 1.435 1.4 0 .8-.533 1.435-1.4 1.435zm4.604-20.415a2.402 2.402 0 1 1 0-4.803 2.402 2.402 0 1 1 0 4.803zm0 20.414c-.733 0-1.467-.5-1.467-1.4V1029.2c0-.935.733-1.435 1.467-1.435a1.37 1.37 0 0 1 1.401 1.435v14.876c0 .935-.7 1.4-1.4 1.4zm10.376-14.877h-1.5v13.442c0 .935-.7 1.4-1.468 1.4-.7 0-1.4-.467-1.4-1.4V1030.6h-1.37c-.9 0-1.4-.667-1.4-1.4 0-.768.5-1.435 1.4-1.435h1.367v-2.27c0-2.135 1.77-3.77 3.836-3.77.968 0 1.468.667 1.468 1.434 0 .7-.5 1.4-1.468 1.4-.566 0-.967.434-.967.9v2.302h1.5c.967 0 1.468.667 1.468 1.435 0 .733-.5 1.4-1.468 1.4z"/><use xlink:href="#M" x="42.068"/><path d="M154.725 1045.544c-1.802 0-3.336-1.534-3.336-3.402v-18.98c0-.967.7-1.434 1.435-1.434s1.435.467 1.435 1.4v19.013c0 .4.3.567.467.567.934 0 1.435.667 1.435 1.435 0 .733-.5 1.4-1.435 1.4zm15.37-.066v-1.264c1.886-.237 2.046-.437 2.046-3.157v-6.7c0-2.8-1.248-4.017-3.064-4.017-1.237 0-2.345.6-3.47 1.493v9.476c0 2.527.187 2.658 2.06 2.896v1.264h-8.968v-1.264c2.254-.33 2.5-.4 2.5-3v-8.2c0-2.446-.303-2.565-2.185-2.922v-1.184c2.173-.292 4.63-.807 6.653-1.533l-.052 2.95 2.6-1.745c1.16-.713 2-1.086 3.16-1.086 3.194 0 5.2 2.338 5.2 6.3v7.5c0 2.54.237 2.657 2.277 2.92v1.264h-8.74zm23.9-3.703c-2.458 3.427-5.488 4.178-7.014 4.178-5.142 0-8.124-3.936-8.124-8.594 0-2.745 1.183-5.396 2.832-7.062 1.74-1.8 3.945-2.814 6.082-2.814 3.73 0 6.396 3.126 6.37 6.347-.014.715-.08 1.277-.612 1.4-.767.184-6.17.5-10.318.647.062 4.587 2.717 6.74 5.556 6.74 1.572 0 3.104-.597 4.543-1.866l.686 1.014zm-7.07-12.7c-1.667 0-3.167 1.807-3.516 4.963l5.486-.118c.6-.026.848-.146.848-.792.04-2.022-1.037-4.053-2.818-4.053zm34.284.145c-1.943.343-2.248.624-3.105 2.765-1.33 3.462-3.102 8.53-4.934 13.94h-1.512l-4.65-11.46-4.55 11.46h-1.472l-4.685-14.192c-.687-1.985-.94-2.274-2.855-2.512v-1.25h9.397v1.25c-2.325.345-2.535.672-2.058 2.133l2.52 8.214c1.507-3.68 2.988-7.62 4.327-11.424h1.456c1.4 3.76 2.986 7.702 4.573 11.568.742-2.107 2.062-5.964 2.557-8.108.412-1.674-.008-2.078-2.753-2.383v-1.25h7.742v1.25zm9.4 3.746c-.92-2.606-2.155-3.984-4.2-3.984-1.206 0-2.225.86-2.225 2.266 0 1.497 1.046 2.264 3.16 3.216 3.278 1.496 5.3 2.787 5.3 5.736 0 3.85-3.6 5.764-6.945 5.764-2.06 0-4.088-.737-4.92-1.16l-.662-4.892 1.252-.224c.8 2.5 2.33 4.75 4.976 4.75 1.505 0 2.438-.952 2.438-2.28 0-1.423-.76-2.333-3.092-3.467-2.67-1.295-5.107-2.64-5.107-5.775 0-3.046 2.533-5.42 6.565-5.42 1.818 0 3.242.396 4.112.567l.62 4.577-1.25.328z"/></g><g fill="#012275"><use xlink:href="#N"/><use xlink:href="#O"/><use xlink:href="#P"/><use xlink:href="#Q"/><path d="M712.486 1044.798c-.88.98-2.1 1.52-3.58 1.52-3.22 0-5.02-2.64-5.02-5.66 0-3 1.8-5.64 5.02-5.64 1.48 0 2.7.54 3.58 1.52a.53.53 0 0 1 .16.381.63.63 0 0 1-.58.6c-.14 0-.28-.06-.42-.2-.66-.74-1.58-1.16-2.74-1.16-2.36 0-3.88 1.9-3.88 4.5s1.52 4.52 3.88 4.52c1.16 0 2.08-.44 2.74-1.16.14-.14.28-.2.42-.2.3 0 .58.26.58.58a.57.57 0 0 1-.16.399z"/><use xlink:href="#R"/><use xlink:href="#N" x="62.5"/><path d="M737.544 1039.417c-.64 0-1.16-.5-1.16-1.14s.52-1.14 1.16-1.14c.62 0 1.12.5 1.12 1.14s-.5 1.14-1.12 1.14zm0 6.562c-.64 0-1.16-.5-1.16-1.14s.52-1.14 1.16-1.14c.62 0 1.12.5 1.12 1.14s-.5 1.14-1.12 1.14z"/><use xlink:href="#S"/><use xlink:href="#O" x="88.579"/><use xlink:href="#Q" x="76.8"/><use xlink:href="#T"/><use xlink:href="#U"/><use xlink:href="#S" x="56.56"/><use xlink:href="#V"/><use xlink:href="#T" x="41.98"/><use xlink:href="#U" x="41.98"/><use xlink:href="#T" x="58.779"/><use xlink:href="#V" x="25.159"/><path d="M851.944 1032.855h-.62c-.48 0-.88.4-.88.86v1.64h1.5c.38 0 .56.3.56.56 0 .28-.2.58-.56.58h-1.5v8.922c0 .36-.28.56-.56.56s-.56-.18-.56-.56v-8.922h-1.38c-.36 0-.56-.3-.56-.58 0-.26.2-.56.56-.56h1.38v-1.64c0-1.1.9-1.98 1.98-1.98h.64c.36 0 .58.28.58.58 0 .28-.2.54-.58.54z"/><use xlink:href="#R" x="139.398"/><path d="M880.764 1032.855h-8.32v4.92h6.1a.55.55 0 0 1 .58.561c0 .28-.2.58-.56.58h-6.12v6.5c0 .36-.3.56-.56.56-.28 0-.58-.2-.58-.56v-13.122c0-.3.28-.56.58-.56h8.882a.55.55 0 0 1 .58.561.55.55 0 0 1-.58.56z"/><use xlink:href="#P" x="195.836"/><path d="M902.142 1045.98c-.28 0-.58-.2-.58-.56v-5.84c0-1.9-1.52-3.42-3.42-3.42a3.42 3.42 0 0 0-3.421 3.421v5.84c0 .36-.3.56-.56.56-.28 0-.58-.2-.58-.56v-9.502c0-.36.3-.56.58-.56.26 0 .56.2.56.56v.64c.9-.98 2.08-1.54 3.42-1.54a4.6 4.6 0 0 1 4.561 4.561v5.84c0 .36-.3.56-.56.56z"/><use xlink:href="#U" x="119.838"/><path d="M918.58 1047.76c-.08.06-.2.08-.3.08-.32 0-.54-.28-.54-.58 0-.56.86-.64 1-1.28-.6-.04-1.08-.54-1.08-1.14a1.16 1.16 0 0 1 1.16-1.16c.98 0 1.2 1 1.2 1.62 0 .98-.52 1.92-1.44 2.46zm11.58-1.78h-2.28c-.36 0-.58-.3-.58-.56a.58.58 0 0 1 .58-.58h.56v-11.982h-.56c-.36 0-.58-.28-.58-.56s.22-.56.58-.56h2.28c.36 0 .56.28.56.56s-.2.56-.56.56h-.58v11.982h.58c.36 0 .56.3.56.58 0 .26-.2.56-.56.56zm12.903-1.842c-.98 1.36-2.38 2.18-4.46 2.18-4.3 0-5.82-3.56-5.82-7.46 0-3.92 1.52-7.482 5.82-7.482 2.02 0 3.5.8 4.44 2.18.1.1.12.2.12.32 0 .32-.3.56-.62.56a.53.53 0 0 1-.44-.22c-.72-1.04-1.8-1.7-3.5-1.7-3.32 0-4.682 2.6-4.682 6.342 0 3.72 1.36 6.32 4.682 6.32 1.7 0 2.8-.64 3.54-1.7.1-.2.28-.26.44-.26.3 0 .6.26.6.58 0 .1-.04.22-.12.34zm7.18 2.202a5.01 5.01 0 0 1-5.02-5.02v-9.02c0-.36.3-.56.58-.56s.58.2.58.56v9.02c0 2.12 1.74 3.88 3.86 3.88s3.88-1.76 3.88-3.88v-9.02c0-.36.3-.56.58-.56.26 0 .56.2.56.56v9.02a5.01 5.01 0 0 1-5.02 5.02zm17.2-.342c-.18 0-.34-.12-.48-.32l-7.82-11.543v11.282c0 .36-.3.56-.56.56-.28 0-.58-.2-.58-.56v-13.122c0-.34.3-.6.6-.6.18 0 .34.12.48.32l7.822 11.542v-11.262c0-.36.3-.56.56-.56.28 0 .58.2.58.56v13.122c0 .34-.3.58-.6.58zm17.78 0a.49.49 0 0 1-.42-.239l-4.302-5.94h-3.58v5.6c0 .36-.3.56-.56.56-.28 0-.58-.2-.58-.56v-13.122c0-.3.28-.56.58-.56h5.4c2.26 0 4.06 1.8 4.06 4.02 0 2.2-1.72 3.94-3.9 4.062l3.78 5.24c.1.12.14.24.14.36 0 .3-.3.58-.62.58zm-3.44-13.143h-4.86v5.82h4.84a2.91 2.91 0 0 0 2.921-2.921c0-1.82-1.54-2.9-2.9-2.9z"/><use xlink:href="#R" x="273.495"/><use xlink:href="#U" x="214.977"/><path d="M1025.06 1045.98h-6.66c-.3 0-.58-.28-.58-.56v-13.122c0-.36.28-.56.58-.56.26 0 .56.18.56.56v12.542h6.1c.36 0 .56.3.56.58 0 .26-.2.56-.56.56z"/><use xlink:href="#V" x="208.297"/><use xlink:href="#N" x="366.915"/><path d="M1044.58 1045.98h-.62c-1.58 0-2.36-.78-2.36-2.34v-7.142h-1.02c-.36 0-.56-.3-.56-.58 0-.26.2-.56.56-.56h1.02v-3.06c0-.36.3-.56.58-.56s.56.2.56.56v3.06h1.84c.36 0 .56.3.56.56 0 .28-.2.58-.56.58h-1.84v7.142c0 .98.28 1.2 1.22 1.2h.62c.36 0 .56.3.56.58 0 .26-.2.56-.56.56z"/></g><g class="R"><path d="M51.1 81.02c-13.2 0-17.46-11.1-17.46-22.38 0-11.58 4.56-22.44 17.46-22.44 5.46 0 10.02 1.92 13.32 6.54.36.48.54 1.02.54 1.5 0 1.44-1.5 2.58-2.88 2.58-1.08 0-1.2-.48-2.16-1.56-1.92-2.34-4.5-3.9-8.82-3.9-9.24 0-12.3 7.86-12.3 17.28 0 8.22 2.22 17.28 12.3 17.28 7.32 0 11.7-5.22 12.12-13.86h-5.4c-1.74 0-2.64-1.26-2.64-2.58s.9-2.58 2.52-2.58h8.22c1.56 0 2.64 1.08 2.64 2.64-.24 11.22-4.74 21.48-17.46 21.48z"/><use xlink:href="#W"/><use xlink:href="#X"/><use xlink:href="#Y"/><path d="M162.997 80h-1.02c-5.7 0-7.86-3-7.86-7.92V53.24h-1.8c-1.44 0-2.58-1.14-2.58-2.52 0-1.44 1.14-2.58 2.52-2.58h1.8V39.8c0-1.68 1.26-2.52 2.58-2.52s2.52.84 2.52 2.52v8.34h3.84c1.68 0 2.52 1.38 2.52 2.52 0 1.44-.96 2.58-2.52 2.58h-3.84v19.38c0 1.68.6 2.28 2.28 2.28h1.5c1.56 0 2.58 1.14 2.58 2.52 0 1.44-.96 2.58-2.52 2.58zm39.418-18.48h-12.84v15.9c0 1.56-1.2 2.58-2.52 2.58-1.44 0-2.64-.96-2.64-2.52V39.862c0-1.08.72-2.58 2.52-2.58h15.54c5.28 0 12.06 4.14 12.06 12.06 0 6.78-5.4 12.18-12.12 12.18zm0-19.14h-12.84v14.04h12.78a6.99 6.99 0 0 0 7.02-7.02c0-3.9-3.12-7.02-6.96-7.02z"/><use xlink:href="#X" x="132.838"/><use xlink:href="#Y" x="132.838"/><use xlink:href="#Z"/><use xlink:href="#X" x="235.977"/><path d="M365.914 81.02c-3.3 0-8.82-1.02-11.64-4.5-.36-.54-.54-1.08-.54-1.56 0-1.5 1.44-2.7 2.7-2.7.72 0 1.26.36 1.86 1.02 1.86 2.04 4.92 2.64 7.62 2.64 5.4 0 7.14-1.86 7.14-4.56 0-7.68-18.3-2.94-18.3-15.3 0-6.54 6.12-8.94 11.82-8.94 3.24 0 10.86 1.62 10.86 4.98 0 1.32-1.08 2.7-2.52 2.7-.54 0-1.38-.3-1.98-.78-1.62-1.38-3.96-1.8-6.36-1.8-4.98 0-6.72 1.86-6.72 3.84 0 7.14 18.36 2.52 18.36 15.3 0 7.08-5.94 9.66-12.3 9.66zm62.16-1.02c-.9 0-1.8-.48-2.28-1.56l-3.18-7.8h-19.98l-3.24 7.8c-.48 1.08-1.38 1.56-2.22 1.56-1.32 0-2.7-1.02-2.7-2.52 0-.36.06-.72.24-1.02l15.42-37.498c.72-1.56 1.68-1.86 2.46-1.86.54 0 1.86.3 2.46 1.86l15.48 37.498c.12.3.18.66.18 1.02 0 1.5-1.26 2.52-2.64 2.52zm-15.48-33.6l-7.86 19.08h15.72l-7.86-19.08zm36.84 5.822c-4.62 0-8.52 3.9-8.52 8.58v16.62c0 1.68-1.26 2.58-2.64 2.58-1.26 0-2.52-.9-2.52-2.52v-26.76c0-1.68 1.38-2.58 2.52-2.58 1.2 0 2.34.66 2.58 2.04a13.88 13.88 0 0 1 8.58-3.06c1.74 0 2.64 1.2 2.64 2.58 0 1.32-.9 2.52-2.64 2.52zM477.92 66.68h-22.2c.84 5.64 4.44 9.24 9.72 9.24 2.7 0 5.4-.96 7.14-3.12.54-.6 1.14-.96 1.86-.96 1.32 0 2.7 1.2 2.7 2.64 0 .72-.18 1.26-1.44 2.52-2.7 2.64-6.42 4.02-10.26 4.02-9.66 0-15.06-7.98-15.06-16.98 0-8.94 5.4-16.92 15.06-16.92 9.78 0 15 7.98 15 16.92 0 1.32-.96 2.64-2.52 2.64zm-12.48-14.46c-5.64 0-8.94 4.14-9.72 9.3h19.44c-.84-5.76-4.44-9.3-9.72-9.3zm61.14 27.84c-.66 0-1.44-.36-1.98-1.08l-12.48-17.46h-7.74v15.9c0 1.68-1.26 2.58-2.64 2.58-1.26 0-2.52-.9-2.52-2.52V39.862c0-1.08.72-2.58 2.52-2.58h15.54c5.28 0 12.06 4.14 12.06 12.06 0 6.3-4.74 11.58-11.04 12.12l10.5 14.46c.42.54.54 1.02.54 1.56 0 1.44-1.38 2.58-2.76 2.58zm-9.36-37.68h-12.84v14.04h12.78c3.9 0 7.02-3.18 7.02-7.08 0-4.08-3.48-6.96-6.96-6.96zm43.02 24.3h-22.2c.84 5.64 4.44 9.24 9.72 9.24 2.7 0 5.4-.96 7.14-3.12.54-.6 1.14-.96 1.86-.96 1.32 0 2.7 1.2 2.7 2.64 0 .72-.18 1.26-1.44 2.52-2.7 2.64-6.42 4.02-10.26 4.02-9.66 0-15.06-7.98-15.06-16.98 0-8.94 5.4-16.92 15.06-16.92 9.78 0 15 7.98 15 16.92 0 1.32-.96 2.64-2.52 2.64zm-12.48-14.46c-5.64 0-8.94 4.14-9.72 9.3h19.438c-.84-5.76-4.44-9.3-9.72-9.3zm34.14 28.8c-6.42 0-9.84-3.54-9.9-3.6 0 1.68-1.26 2.52-2.64 2.52-1.26 0-2.52-.84-2.52-2.52V39.862c0-1.74 1.26-2.58 2.52-2.58 1.38 0 2.64.84 2.64 2.52v11.22c2.4-2.46 5.7-3.9 9.9-3.9 9.66 0 15.06 7.92 15.06 16.92 0 9.06-5.4 16.98-15.06 16.98zm0-28.8c-6 0-9.9 4.68-9.9 11.82 0 7.2 3.9 11.88 9.9 11.88s9.9-4.68 9.9-11.88c0-7.14-3.9-11.82-9.9-11.82zm33.48 28.8c-9.66 0-15.06-7.92-15.06-16.98 0-9 5.4-16.92 15.06-16.92s15.06 7.92 15.06 16.92c0 9.06-5.4 16.98-15.06 16.98zm0-28.8c-6 0-9.9 4.68-9.9 11.82 0 7.2 3.9 11.88 9.9 11.88 6.06 0 9.9-4.68 9.9-11.88 0-7.14-3.84-11.82-9.9-11.82zm44.097 27.84c-1.14 0-2.28-.66-2.52-1.98-2.4 1.86-5.34 3-8.64 3-7.44 0-13.68-6.18-13.68-13.68V50.78c0-1.68 1.26-2.58 2.52-2.58 1.38 0 2.64.9 2.64 2.52V67.4c0 4.68 3.9 8.58 8.52 8.58 4.68 0 8.58-3.9 8.58-8.58V50.78c0-1.86 1.2-2.64 2.52-2.64 1.38 0 2.58.9 2.58 2.58v26.82c0 1.68-1.2 2.52-2.52 2.52z"/><use xlink:href="#Y" x="548.199"/><use xlink:href="#Z" x="415.363"/><use xlink:href="#W" x="662.978"/><use xlink:href="#Y" x="627.639"/><path d="M794.177 93.68c-3.66 0-12.72-1.32-12.72-4.92 0-1.38 1.26-2.7 2.58-2.7 1.38 0 .18.18 3.36 1.38 1.44.54 3.6 1.14 6.78 1.14 6.66 0 9.9-3.18 9.9-9.48v-2.7c-2.34 2.22-5.7 3.6-9.9 3.6-9.48 0-15.06-6.72-15.06-15.96 0-9 5.4-16.92 15.06-16.92 4.2 0 7.44 1.26 9.9 3.84v-.24c0-1.68 1.38-2.58 2.58-2.58 1.26 0 2.58.9 2.58 2.58V79.1c0 9.54-5.7 14.58-15.06 14.58zm0-41.458c-6 0-9.9 4.68-9.9 11.82 0 6.84 3.6 10.86 9.9 10.86s9.9-4.02 9.9-10.86c0-7.14-3.84-11.82-9.9-11.82z"/><path d="M52.35 128.04c-.342 0-.646-.23-.912-.608L36.583 105.5v21.43c0 .684-.57 1.063-1.063 1.063-.532 0-1.103-.38-1.103-1.063v-24.925a1.17 1.17 0 0 1 1.14-1.14c.342 0 .646.228.9.607l14.856 21.923v-21.4c0-.684.57-1.063 1.063-1.063.532 0 1.102.38 1.102 1.063v24.925c0 .646-.57 1.102-1.14 1.102zm21.697-.04c-.532 0-1.102-.38-1.102-1.063v-1.216c-1.596 1.86-3.913 2.925-6.497 2.925-4.7 0-8.663-3.95-8.663-8.662V108.9c0-.684.57-1.063 1.103-1.063.493 0 1.063.38 1.063 1.063v11.095a6.497 6.497 0 1 0 12.994 0V108.9c0-.684.57-1.063 1.102-1.063.494 0 1.064.38 1.064 1.063v18.048c0 .684-.57 1.063-1.064 1.063zm30.438 0c-.53 0-1.063-.38-1.063-1.063V114.17c0-2.62-2.203-4.825-4.825-4.825s-4.863 2.204-4.863 4.787v12.805c0 .684-.532 1.063-1.063 1.063s-1.103-.38-1.103-1.063V114.17c0-2.62-2.203-4.825-4.787-4.825-2.66 0-4.863 2.204-4.863 4.787v12.805c0 .684-.57 1.063-1.063 1.063-.532 0-1.103-.38-1.103-1.063V108.9c0-.684.57-1.063 1.103-1.063.494 0 1.063.38 1.063 1.063v.23c1.254-1.216 2.964-1.938 4.825-1.938 2.432 0 4.598 1.216 5.928 3.23 1.254-1.937 3.42-3.23 5.9-3.23 3.95 0 7.03 3.116 7.03 6.953v12.805c0 .684-.57 1.063-1.103 1.063zm14.935.646c-3.306 0-5.775-1.367-7.37-3.6v1.9c0 .684-.57 1.063-1.063 1.063-.532 0-1.103-.38-1.103-1.063V102.01c0-.684.57-1.063 1.103-1.063.494 0 1.063.38 1.063 1.063v8.74c1.596-2.204 4.065-3.572 7.37-3.572 6.117 0 9.536 5.016 9.536 10.715 0 5.737-3.42 10.752-9.536 10.752zm0-19.3c-4.52 0-7.37 3.6-7.37 8.55s2.85 8.587 7.37 8.587 7.37-3.647 7.37-8.587-2.85-8.55-7.37-8.55zm30.438 9.65H134.1c.342 4.332 3.153 7.485 7.295 7.485 2.052 0 4.483-.912 5.585-2.622.267-.418.57-.53.912-.53.57 0 1.178.455 1.178 1.025 0 .342 0 .418-.722 1.254-1.748 2.052-4.293 3.04-6.953 3.04-6.117 0-9.536-5.015-9.536-10.752 0-5.7 3.42-10.715 9.536-10.715s9.537 5.054 9.537 10.715c0 .57-.532 1.102-1.064 1.102zm-8.473-9.65c-4.56 0-6.953 3.495-7.295 7.485h14.628c-.342-4.332-3.153-7.485-7.333-7.485zm21.963.34c-3.57 0-6.497 2.888-6.497 6.497v10.753c0 .684-.57 1.063-1.063 1.063-.532 0-1.103-.38-1.103-1.063V108.9c0-.684.57-1.063 1.103-1.063.494 0 1.063.38 1.063 1.063v1.558c1.7-1.86 3.95-2.925 6.497-2.925.684 0 1.102.57 1.102 1.063 0 .532-.418 1.102-1.102 1.102zm9.462 19.035c-2.28 0-6.117-.798-7.447-3-.15-.23-.15-.418-.15-.57 0-.607.53-1.14 1.102-1.14.228 0 .607.2.836.532 1.367 1.67 3.8 2.014 5.66 2.014 3.686 0 5.547-1.216 5.547-3.686 0-5.737-12.462-2.698-12.462-10.297 0-3.837 3.837-5.32 7.295-5.32 1.976 0 5.016.685 6.535 2.204.228.228.342.494.342.722 0 .57-.57 1.14-1.178 1.14-.23 0-.494-.076-.722-.304-1.18-1.14-3.306-1.596-4.978-1.596-3.344 0-5.13 1.292-5.13 3.153 0 5.32 12.462 2.508 12.462 10.297 0 4.33-3.8 5.85-7.713 5.85zm20.597-24.544a2.166 2.166 0 1 1 0-4.332 2.166 2.166 0 0 1 0 4.332zm0 23.822c-.532 0-1.103-.342-1.103-1.063V108.9c0-.684.532-1.063 1.103-1.063.494 0 1.063.342 1.063 1.063v18.048c0 .684-.494 1.063-1.063 1.063z" class="P"/><use xlink:href="#a" class="P"/><path d="M236.23 128h-1.178c-3 0-4.483-1.48-4.483-4.445V110h-1.937c-.684 0-1.063-.57-1.063-1.102 0-.494.38-1.063 1.063-1.063h1.938v-5.813c0-.684.57-1.063 1.103-1.063s1.063.38 1.063 1.063v5.813h3.495c.685 0 1.064.57 1.064 1.063 0 .532-.38 1.102-1.064 1.102h-3.495v13.564c0 1.86.532 2.28 2.317 2.28h1.178c.685 0 1.064.57 1.064 1.103 0 .493-.38 1.063-1.064 1.063zm20.025 0c-.53 0-1.102-.38-1.102-1.063v-11.095a6.47 6.47 0 0 0-6.497-6.497c-3.57 0-6.497 2.888-6.497 6.497v11.095c0 .684-.57 1.063-1.063 1.063-.532 0-1.103-.38-1.103-1.063v-24.925c0-.684.57-1.063 1.103-1.063.494 0 1.063.38 1.063 1.063v8.093c1.596-1.86 3.913-2.926 6.497-2.926 4.7 0 8.663 3.914 8.663 8.663v11.095c0 .684-.57 1.063-1.064 1.063zm22.497-9.004h-15.768c.342 4.332 3.153 7.485 7.295 7.485 2.052 0 4.483-.912 5.585-2.622.267-.418.57-.53.912-.53.57 0 1.178.455 1.178 1.025 0 .342 0 .418-.722 1.254-1.748 2.052-4.293 3.04-6.953 3.04-6.117 0-9.536-5.015-9.536-10.752 0-5.7 3.42-10.715 9.536-10.715s9.537 5.054 9.537 10.715c0 .57-.532 1.102-1.064 1.102zm-8.473-9.65c-4.56 0-6.953 3.495-7.295 7.485h14.628c-.342-4.332-3.153-7.485-7.333-7.485z" class="P"/></g><g class="O"><path d="M317.395 109.99l-5.89 16.68c-.305.836-.836 1.33-1.672 1.33-.798 0-1.254-.342-1.596-1.33l-4.445-12.538-4.483 12.538c-.305.912-.836 1.33-1.634 1.33-.76 0-1.292-.418-1.596-1.33l-5.852-16.68c-.076-.228-.076-.38-.076-.607 0-.95.874-1.558 1.672-1.558.608 0 1.216.304 1.482 1.063l4.407 12.7 4.483-12.425c.304-.873.684-1.33 1.596-1.33.836 0 1.292.418 1.596 1.33l4.445 12.425 4.445-12.7c.266-.76.874-1.063 1.443-1.063.874 0 1.748.646 1.748 1.596 0 .19 0 .342-.076.57z" class="Q"/><use xlink:href="#b" class="Q"/><path d="M331.8 128.077c-2.052 0-3.8-1.748-3.8-3.876v-21.618c0-1.103.798-1.634 1.634-1.634s1.634.53 1.634 1.596V124.2c0 .456.342.646.532.646 1.063 0 1.634.76 1.634 1.634a1.54 1.54 0 0 1-1.634 1.596zm20.898-.115c-.836 0-1.634-.532-1.634-1.596 0 0-2.242 2.28-6.27 2.28-6.117 0-9.536-5.015-9.536-10.752 0-5.7 3.42-10.715 9.536-10.715 2.66 0 4.787.912 6.27 2.47v-7.066c0-1.103.798-1.634 1.634-1.634s1.634.53 1.634 1.596v23.822c0 1.063-.798 1.596-1.634 1.596zm-7.903-17.554c-3.8 0-6.27 2.964-6.27 7.485 0 4.56 2.47 7.522 6.27 7.522 3.838 0 6.27-2.963 6.27-7.522 0-4.52-2.432-7.485-6.27-7.485z" class="Q"/></g><g class="R"><path d="M387.353 128h-.038c-1.254 0-3.04-.684-3.762-2.964-1.596 2.242-4.065 3.61-7.37 3.61-6.193 0-9.536-5.09-9.536-10.752 0-5.737 3.42-10.715 9.536-10.715 3.306 0 5.775 1.368 7.37 3.572v-1.862c0-.607.494-1.063 1.102-1.063.532 0 1.064.38 1.064 1.063V124.2c0 2.432 2.735.912 2.735 2.736a1.04 1.04 0 0 1-1.102 1.063zm-11.17-18.655c-4.483 0-7.37 3.61-7.37 8.55s2.888 8.587 7.37 8.587c4.52 0 7.37-3.647 7.37-8.587s-2.85-8.55-7.37-8.55z" class="P"/><use xlink:href="#a" x="192.046" class="P"/><path d="M429.914 128c-.53 0-1.102-.38-1.102-1.063v-1.9c-1.596 2.242-4.065 3.61-7.37 3.61-6.117 0-9.536-5.015-9.536-10.752 0-5.7 3.42-10.715 9.536-10.715 3.306 0 5.775 1.368 7.37 3.572v-8.74c0-.684.57-1.063 1.102-1.063.494 0 1.064.38 1.064 1.063v24.925c0 .684-.57 1.063-1.064 1.063zm-8.473-18.655c-4.483 0-7.37 3.61-7.37 8.55s2.888 8.587 7.37 8.587c4.52 0 7.37-3.647 7.37-8.587s-2.85-8.55-7.37-8.55z" class="P"/></g><g class="O"><path d="M459.627 125.76c-1.672 1.86-4 2.887-6.8 2.887-6.117 0-9.536-5.015-9.536-10.752 0-5.7 3.42-10.715 9.536-10.715 2.812 0 5.13 1.026 6.8 2.888.305.342.456.722.456 1.103 0 .835-.836 1.634-1.7 1.634-.342 0-.76-.152-1.178-.532-1.063-1.178-2.47-1.862-4.37-1.862-3.8 0-6.27 2.964-6.27 7.485 0 4.56 2.47 7.522 6.27 7.522 1.9 0 3.344-.722 4.37-1.86.342-.418.798-.57 1.178-.57.874 0 1.7.76 1.7 1.672 0 .342-.15.76-.456 1.103zM482.16 128c-2.1 0-3.04-1.48-3.38-2.166-1.52 1.672-3.724 2.812-6.687 2.812-6.193 0-9.536-5.1-9.536-10.752s3.42-10.715 9.536-10.715c2.66 0 4.787.95 6.27 2.508v-.15c0-.418.15-1.7 1.596-1.7.798 0 1.672.418 1.672 1.596V124.1c0 .493.342.684.53.684 1.064 0 1.634.76 1.634 1.634a1.56 1.56 0 0 1-1.634 1.596zm-10.068-17.592c-3.8 0-6.27 2.964-6.27 7.485 0 4.56 2.47 7.522 6.27 7.522 3.838 0 6.27-2.963 6.27-7.522 0-4.52-2.432-7.485-6.27-7.485zm24.018 18.238c-2.66 0-4.75-.9-6.27-2.507v8.244c0 1.064-.798 1.634-1.67 1.634-.798 0-1.597-.57-1.597-1.634V109.46c0-1.064.8-1.634 1.597-1.634.873 0 1.67.57 1.67 1.634 0 0 2.242-2.318 6.27-2.318 6.117 0 9.536 5.016 9.536 10.715 0 5.775-3.42 10.8-9.536 10.8zm0-18.274c-3.762 0-6.27 3-6.27 7.484 0 4.56 2.47 7.56 6.27 7.56s6.27-2.963 6.27-7.522c0-4.52-2.47-7.522-6.27-7.522zM515.83 128h-.646c-3.6 0-4.977-1.9-4.977-5.016v-11.93h-1.14c-.9 0-1.634-.722-1.634-1.596 0-.912.723-1.634 1.596-1.634h1.14v-5.28c0-1.064.798-1.596 1.634-1.596s1.596.53 1.596 1.596v5.28h2.432c1.063 0 1.596.874 1.596 1.596 0 .912-.608 1.634-1.596 1.634h-2.43v12.272c0 1.063.38 1.443 1.443 1.443h.95c.987 0 1.634.722 1.634 1.596 0 .912-.608 1.634-1.596 1.634z" class="N"/><use xlink:href="#b" x="199.991" class="N"/><path d="M543.72 110.067l-6.915 16.642c-.342.874-.91 1.292-1.634 1.292-.646 0-1.254-.418-1.634-1.292l-6.915-16.642a2.36 2.36 0 0 1-.113-.684c0-.912.836-1.558 1.672-1.558.57 0 1.14.304 1.443.987l5.547 13.3 5.548-13.3c.266-.722.95-1.025 1.48-1.025.874 0 1.672.607 1.672 1.558 0 .2-.038.456-.152.722z" class="N"/><use xlink:href="#b" x="226.656" class="N"/><path d="M561.315 128h-.646c-3.6 0-4.978-1.9-4.978-5.016v-11.93h-1.14c-.9 0-1.634-.722-1.634-1.596 0-.912.723-1.634 1.596-1.634h1.14v-5.28c0-1.064.798-1.596 1.634-1.596s1.596.53 1.596 1.596v5.28h2.432c1.063 0 1.596.874 1.596 1.596 0 .912-.608 1.634-1.596 1.634h-2.432v12.272c0 1.063.38 1.443 1.443 1.443h.95c.987 0 1.634.722 1.634 1.596 0 .912-.608 1.634-1.596 1.634zm20.708-17.895l-10.26 23.33c-.76 1.747-2.432 2.545-4.18 2.545h-1.217c-1.102 0-1.596-.798-1.596-1.672 0-.798.494-1.596 1.596-1.596h1.18c.493 0 1.025-.075 1.253-.607l2.508-5.623-7.408-16.376a1.39 1.39 0 0 1-.2-.722c0-.95.912-1.596 1.748-1.596.57 0 1.063.304 1.367.987l6.193 13.755 6.04-13.755c.304-.684.874-.95 1.406-.95.874 0 1.747.646 1.747 1.558a1.28 1.28 0 0 1-.19.722z" class="N"/></g><defs ><path id="C" d="M39.702 272.07l.492-.37h2.912c.3 0 .437.137.4.4v25.922c-.055.3.068.438.37.4h5.332c.3-.055.424.068.37.37v2c.027.3-.096.424-.37.37h-14.52c-.3.055-.437-.068-.4-.37v-2c-.027-.3.11-.424.4-.37h5.537c.273.027.396-.11.37-.4v-21.86c-.027-.328-.164-.355-.4-.082-1.286 1.204-3.158 2.297-5.62 3.28-.22.11-.342.04-.37-.205v-2.092c0-.164.096-.287.287-.37 2.324-.984 4.06-2.53 5.21-4.635v-.04.04z"/><path id="D" d="M65.852 287.288c0-.273-.123-.314-.37-.123-.875 1.148-2.557 1.82-5.045 2-2.434-.055-4.348-.902-5.742-2.543s-2.106-3.76-2.133-6.357c.027-2.516.752-4.648 2.174-6.398 1.45-1.75 3.43-2.666 5.947-2.748 2.543.055 4.54.958 5.988 2.707 1.42 1.723 2.146 3.91 2.174 6.563v12.838c-.027 2.434-.752 4.47-2.174 6.11-1.422 1.614-3.445 2.46-6.07 2.543-2.078-.027-3.842-.63-5.29-1.805-1.422-1.148-2.27-2.734-2.543-4.758-.055-.246.068-.37.37-.37h2.338c.273 0 .424.164.45.492a5.08 5.08 0 0 0 1.395 2.543c.738.684 1.846 1.04 3.322 1.066 1.667-.027 2.953-.574 3.855-1.64.902-1.093 1.354-2.488 1.354-4.184v-5.947zm0-7.096c0-1.805-.437-3.295-1.312-4.47-.902-1.175-2.188-1.777-3.855-1.805-1.64.027-2.898.63-3.773 1.805-.875 1.204-1.327 2.72-1.354 4.553.027 1.86.465 3.35 1.313 4.47s2.092 1.696 3.732 1.723c3.472-.22 5.223-2.31 5.25-6.275v-.04.04z"/><path id="E" d="M66.754 661.896c1.503 1.56 2.283 3.596 2.338 6.11v13.863c-.055 2.516-.834 4.566-2.338 6.152-1.504 1.56-3.486 2.365-5.947 2.42-2.434-.055-4.416-.86-5.947-2.42-1.504-1.586-2.27-3.637-2.297-6.152v-13.863c.027-2.516.793-4.553 2.297-6.11 1.53-1.586 3.513-2.393 5.947-2.42 2.46.027 4.443.834 5.947 2.42zm-11.115 6.11v13.863c.027 1.695.492 3.063 1.395 4.102.93 1.04 2.188 1.572 3.773 1.6 1.585-.027 2.844-.56 3.773-1.6s1.408-2.406 1.436-4.102v-13.863c-.027-1.695-.506-3.05-1.436-4.06-.93-1.04-2.188-1.572-3.773-1.6-1.586.027-2.844.56-3.773 1.6-.902 1.012-1.368 2.365-1.395 4.06v-.04.04z"/><path id="F" d="M942.567 301.117h-12.854c-1.218 0-1.932-.714-1.932-1.596 0-.378.126-.756.378-1.134l11.468-17.433c.504-.798.798-1.764.798-2.52 0-2.48-1.848-4.37-4.327-4.37-2.227 0-4.117 1.9-4.83 3.234-.336.63-.882.882-1.428.882-.966 0-1.848-.756-1.848-1.722 0-1.302 2.982-6.007 8.107-6.007a7.92 7.92 0 0 1 7.897 7.897c0 1.68-.588 3.32-1.428 4.537l-9.62 14.66h9.62c1.218 0 1.848.84 1.848 1.807 0 .882-.63 1.764-1.848 1.764z"/><path id="G" d="M950.292 304.814c-.252.168-.588.294-.882.294-.966 0-1.765-.882-1.765-1.848 0-1.428 1.597-1.723 1.597-2.395v-.042s-1.68-.462-1.68-2.982c0-1.555 1.386-2.604 2.814-2.604 1.975 0 3.15 2.226 3.15 4.033 0 2.058-1.176 4.327-3.235 5.545z"/><path id="H" d="M481.81 495.467c-.882 0-1.765-.672-1.765-1.764v-22.516l-3.36 3.276c-.378.378-.798.504-1.176.504-1.008 0-1.9-.924-1.9-1.85 0-.462.168-.882.546-1.26l6.26-6.05c.504-.462 1.05-.672 1.554-.672 1.176 0 1.68 1.176 1.68 2.143v26.38c0 1.134-.882 1.806-1.848 1.806z"/><path id="I" d="M609.274 693.36c-.255.17-.596.298-.894.298-.98 0-1.788-.894-1.788-1.873 0-1.447 1.618-1.745 1.618-2.427v-.042s-1.703-.47-1.703-3.022c0-1.575 1.405-2.64 2.853-2.64 2 0 3.193 2.256 3.193 4.087 0 2.086-1.192 4.385-3.278 5.62z"/><path id="J" d="M670.485 690.34c-8.983 0-9.707-9.153-9.707-15.88 0-7.96 1.745-15.922 9.707-15.922 3.576 0 6.13 1.575 7.875 4.257.298.383.383.724.383 1.106 0 .98-.894 1.746-1.873 1.746-.554 0-1.107-.256-1.533-.852-1.107-1.66-2.554-2.597-4.853-2.597-4.044 0-5.918 3.618-6.045 11.75 1.405-1.363 3.576-2.427 6.045-2.427 5.108 0 9.153 4.427 9.153 9.408s-4.044 9.408-9.153 9.408zm0-15.198c-2.937 0-5.407 2.555-5.577 5.875.553 3.32 2.3 5.705 5.577 5.705 2.937 0 5.492-2.64 5.492-5.8s-2.555-5.8-5.492-5.8z"/><path id="K" d="M715.6 883.814c-.894 0-1.788-.682-1.788-1.788v-22.818l-3.406 3.32c-.383.383-.81.51-1.192.51-1.022 0-1.916-.937-1.916-1.873 0-.468.17-.894.554-1.277l6.343-6.13c.51-.47 1.064-.682 1.575-.682 1.192 0 1.703 1.192 1.703 2.172v26.734c0 1.15-.894 1.83-1.873 1.83z"/><path id="L" d="M872.606 884.538c-9.1 0-9.1-10.813-9.1-17.028 0-6.003.937-14.772 9.068-14.772s9.153 8.557 9.153 14.772c0 6.47-.17 17.028-9.1 17.028zm5.45-17.028c0-3.747-.085-11.11-5.45-11.11s-5.45 7.364-5.45 11.11v2.384c0 4.428.596 11.026 5.407 11.026 4.896 0 5.492-6.6 5.492-11.026V867.5z"/><path id="M" d="M104.714 1045.51c-.633 0-1.267-.367-1.4-1.1-1.334 1.034-2.97 1.668-4.804 1.668-4.136 0-7.604-3.436-7.604-7.605v-9.24a1.37 1.37 0 0 1 1.4-1.435c.768 0 1.468.5 1.468 1.4v9.272c0 2.602 2.168 4.77 4.736 4.77 2.603 0 4.77-2.17 4.77-4.77v-9.24c0-1.034.667-1.468 1.4-1.468.768 0 1.435.5 1.435 1.435v14.9c0 .934-.667 1.4-1.4 1.4z"/><path id="N" d="M667.845 1046.358c-1.2 0-3.22-.42-3.92-1.58-.08-.12-.08-.22-.08-.3 0-.32.28-.6.58-.6.12 0 .32.1.44.28.72.88 2 1.06 2.98 1.06 1.94 0 2.92-.64 2.92-1.94 0-3.02-6.562-1.42-6.562-5.422 0-2.02 2.02-2.8 3.84-2.8 1.04 0 2.64.36 3.44 1.16.12.12.18.26.18.38a.65.65 0 0 1-.62.6.53.53 0 0 1-.38-.16c-.62-.6-1.74-.84-2.62-.84-1.76 0-2.7.68-2.7 1.66 0 2.8 6.562 1.32 6.562 5.422 0 2.28-2 3.08-4.06 3.08z"/><path id="O" d="M678.566 1046.318c-3.22 0-5.02-2.64-5.02-5.66 0-3 1.8-5.64 5.02-5.64s5.02 2.64 5.02 5.64c0 3.02-1.8 5.66-5.02 5.66zm0-10.162c-2.36 0-3.88 1.9-3.88 4.5s1.52 4.52 3.88 4.52c2.38 0 3.88-1.92 3.88-4.52s-1.5-4.5-3.88-4.5z"/><path id="P" d="M694.346 1045.98c-.28 0-.58-.2-.58-.56v-.64c-.84.98-2.06 1.54-3.42 1.54-2.48 0-4.56-2.08-4.56-4.56v-5.842c0-.36.3-.56.58-.56.26 0 .56.2.56.56v5.842c0 1.9 1.52 3.42 3.42 3.42s3.42-1.52 3.42-3.42v-5.842c0-.36.3-.56.58-.56.26 0 .56.2.56.56v9.502c0 .36-.3.56-.56.56z"/><path id="Q" d="M702.305 1036.337a3.42 3.42 0 0 0-3.421 3.42v5.66c0 .36-.3.56-.56.56-.28 0-.58-.2-.58-.56v-9.502c0-.36.3-.56.58-.56.26 0 .56.2.56.56v.82c.9-.98 2.08-1.54 3.42-1.54.36 0 .58.3.58.56a.58.58 0 0 1-.58.581z"/><path id="R" d="M724.067 1041.237h-8.302c.18 2.28 1.66 3.94 3.84 3.94 1.08 0 2.36-.48 2.94-1.38.14-.22.3-.28.48-.28.3 0 .62.24.62.54 0 .18 0 .22-.38.66-.92 1.08-2.26 1.6-3.66 1.6-3.22 0-5.02-2.64-5.02-5.66 0-3 1.8-5.64 5.02-5.64s5.02 2.66 5.02 5.64c0 .3-.28.58-.56.58zm-4.46-5.08c-2.4 0-3.66 1.84-3.84 3.94h7.7c-.18-2.28-1.66-3.94-3.86-3.94z"/><path id="S" d="M760.626 1032.456l-3.52 13.103a.55.55 0 0 1-.56.42c-.24 0-.48-.14-.54-.42l-3-11.083-2.98 11.083c-.06.28-.3.42-.54.42-.26 0-.48-.14-.56-.42l-3.52-13.103c-.02-.06-.02-.12-.02-.18a.58.58 0 0 1 .58-.58c.26 0 .46.14.52.44l3 11.082 2.98-11.082c.08-.28.3-.4.54-.4.26 0 .48.12.56.4l2.98 11.082 3-11.082c.08-.3.28-.44.52-.44a.58.58 0 0 1 .58.58c0 .06 0 .12-.02.18z"/><path id="T" d="M783.124 1046.1c-1.08 0-1.98-1-1.98-2.12v-11.683c0-.36.3-.56.58-.56.26 0 .56.2.56.56v11.683c0 1.28 1.42.54 1.42 1.44 0 .34-.24.68-.58.68z"/><path id="U" d="M794.545 1045.98c-.28 0-.58-.2-.58-.56v-1c-.84 1.18-2.14 1.9-3.88 1.9-3.22 0-5.02-2.64-5.02-5.66 0-3 1.8-5.64 5.02-5.64 1.74 0 3.04.72 3.88 1.88v-4.6c0-.36.3-.56.58-.56.26 0 .56.2.56.56v13.122c0 .36-.3.56-.56.56zm-4.46-9.822c-2.36 0-3.88 1.9-3.88 4.5s1.52 4.52 3.88 4.52c2.38 0 3.88-1.92 3.88-4.52s-1.5-4.5-3.88-4.5z"/><path id="V" d="M819.723 1033.436c-.64 0-1.14-.5-1.14-1.14s.5-1.14 1.14-1.14 1.14.5 1.14 1.14-.5 1.14-1.14 1.14zm0 12.543c-.28 0-.58-.18-.58-.56v-9.502c0-.36.28-.56.58-.56.26 0 .56.18.56.56v9.502c0 .36-.26.56-.56.56z"/><path id="W" d="M75.7 43.282a4.3 4.3 0 1 1 0-8.64 4.3 4.3 0 1 1 0 8.64zm0 36.72c-1.32 0-2.64-.9-2.64-2.52v-26.76c0-1.68 1.32-2.58 2.64-2.58 1.26 0 2.52.9 2.52 2.58v26.76c0 1.68-1.26 2.52-2.52 2.52z"/><path id="X" d="M114.157 80c-3.3 0-4.8-2.34-5.34-3.42-2.4 2.64-5.88 4.44-10.56 4.44-9.78 0-15.06-8.04-15.06-16.98s5.4-16.92 15.06-16.92c4.2 0 7.56 1.5 9.9 3.96v-.24c0-.66.24-2.7 2.52-2.7 1.26 0 2.64.66 2.64 2.52v23.16c0 .78.54 1.08.84 1.08 1.68 0 2.58 1.2 2.58 2.58 0 1.26-.9 2.52-2.58 2.52zm-15.9-27.78c-6 0-9.9 4.68-9.9 11.82 0 7.2 3.9 11.88 9.9 11.88 6.06 0 9.9-4.68 9.9-11.88 0-7.14-3.84-11.82-9.9-11.82z"/><path id="Y" d="M144.697 80c-1.32 0-2.52-.9-2.52-2.52V60.8c0-4.68-3.9-8.58-8.58-8.58-4.62 0-8.52 3.9-8.52 8.58v16.62c0 1.68-1.26 2.64-2.64 2.64-1.26 0-2.52-.9-2.52-2.58v-26.82c0-1.74 1.26-2.52 2.52-2.52 1.2 0 2.28.66 2.58 1.98 2.34-1.86 5.28-3 8.58-3 7.44 0 13.68 6.18 13.68 13.68v16.62c0 1.68-1.2 2.58-2.58 2.58z"/><path id="Z" d="M311.854 79.94c-1.32 0-2.58-.84-2.58-2.52 0 0-3.54 3.6-9.9 3.6-9.66 0-15.06-7.92-15.06-16.98 0-9 5.4-16.92 15.06-16.92 4.2 0 7.56 1.44 9.9 3.9v-11.16c0-1.74 1.26-2.58 2.58-2.58s2.58.84 2.58 2.52V77.42c0 1.68-1.26 2.52-2.58 2.52zm-12.48-27.72c-6 0-9.9 4.68-9.9 11.82 0 7.2 3.9 11.88 9.9 11.88 6.06 0 9.9-4.68 9.9-11.88 0-7.14-3.84-11.82-9.9-11.82z"/><path id="a" d="M215.37 128c-.53 0-1.102-.38-1.102-1.063v-11.095a6.47 6.47 0 0 0-6.497-6.497c-3.57 0-6.497 2.888-6.497 6.497v11.095c0 .684-.57 1.063-1.063 1.063-.532 0-1.103-.38-1.103-1.063V108.89c0-.684.57-1.063 1.103-1.063.494 0 1.063.38 1.063 1.063v1.216c1.7-1.86 3.95-2.926 6.497-2.926 4.71 0 8.663 3.914 8.663 8.663v11.095c0 .684-.57 1.063-1.064 1.063z"/><path id="b" d="M321.844 104.748c-1.52 0-2.735-1.216-2.735-2.735s1.216-2.735 2.735-2.735 2.735 1.216 2.735 2.735-1.216 2.735-2.735 2.735zm0 23.253c-.836 0-1.672-.57-1.672-1.596V109.46c0-1.064.836-1.634 1.672-1.634a1.56 1.56 0 0 1 1.596 1.634v16.945c0 1.063-.798 1.596-1.596 1.596z"/></defs></svg>