<svg xmlns="http://www.w3.org/2000/svg" xmlns:xlink="http://www.w3.org/1999/xlink" viewBox="0 0 1080 1080"><style><![CDATA[.U{opacity:.7}.V{opacity:.6}.W{fill:#fff}.X{fill:none}.Y{stroke:#fff}.Z{stroke-width:2}.a{stroke-miterlimit:10}.b{fill:#7af9bc}.c{opacity:.15}.d{opacity:.3}.e{stroke-dasharray:1.9716 5.9148}]]></style><defs><linearGradient id="A" x1="11.716" y1="11.716" x2="1068.284" y2="1068.284" gradientUnits="userSpaceOnUse"><stop offset="0" stop-color="#c31432"/><stop offset=".138" stop-color="#a61233"/><stop offset=".43" stop-color="#6f0f34"/><stop offset=".681" stop-color="#460d35"/><stop offset=".88" stop-color="#2d0c36"/><stop offset="1" stop-color="#240b36"/></linearGradient><clipPath id="B"><path d="M907.71 731.736a121.637 121.637 0 1 0 121.637 121.637 121.637 121.637 0 0 0-121.637-121.637zm12.39 158.7V849.54h89.54v40.886z" class="X"/></clipPath><path id="C" d="M85.568 248.29a47.663 47.663 0 1 1-47.663 47.663 47.663 47.663 0 0 1 47.663-47.663m0-2a49.663 49.663 0 1 0 49.663 49.663 49.719 49.719 0 0 0-49.663-49.663z"/><path id="D" d="M943.71 857.54a2.576 2.576 0 1 1 2.576-2.576 2.566 2.566 0 0 1-2.576 2.576zm0 21.898a1.503 1.503 0 0 1-1.574-1.503v-15.96a1.51 1.51 0 0 1 1.574-1.538 1.474 1.474 0 0 1 1.503 1.538v15.96a1.444 1.444 0 0 1-1.503 1.503z"/><path id="E" d="M877.345 406.314a13.6 13.6 0 0 1 3.644 9.526v21.61a13.835 13.835 0 0 1-3.644 9.591 12.714 12.714 0 0 1-9.271 3.771 12.856 12.856 0 0 1-9.271-3.771 13.591 13.591 0 0 1-3.581-9.591v-21.61a13.362 13.362 0 0 1 3.581-9.526 12.523 12.523 0 0 1 9.271-3.772 12.39 12.39 0 0 1 9.271 3.773zm-17.326 9.526v21.61a9.644 9.644 0 0 0 2.174 6.394 8.183 8.183 0 0 0 11.764 0 9.473 9.473 0 0 0 2.237-6.394v-21.61a9.23 9.23 0 0 0-2.237-6.33 8.185 8.185 0 0 0-11.764 0 9.395 9.395 0 0 0-2.174 6.33h0z"/><path id="F" d="M966.273 449.534a1.877 1.877 0 0 1-1.925-1.925v-14.434a4.834 4.834 0 1 0-9.668-.046v14.434a1.874 1.874 0 0 1-1.971 1.971 1.851 1.851 0 0 1-1.924-1.925v-14.434a4.858 4.858 0 0 0-9.715-.046v14.434a1.91 1.91 0 0 1-2.016 1.971 1.876 1.876 0 0 1-1.925-1.925v-20.482a2.011 2.011 0 0 1 3.666-1.1 8.827 8.827 0 0 1 5.086-1.604 8.676 8.676 0 0 1 6.827 3.253 8.586 8.586 0 0 1 6.782-3.253 8.752 8.752 0 0 1 8.798 8.706v14.434a1.911 1.911 0 0 1-2.017 1.971z"/><path id="G" d="M68.968 954.137c-6.44 0-10.04-5.28-10.04-11.318 0-6 3.6-11.278 10.04-11.278s10.037 5.28 10.037 11.278c0 6.04-3.598 11.318-10.037 11.318zm0-20.316c-4.72 0-7.76 3.8-7.76 8.998s3.04 9.04 7.76 9.04c4.758 0 7.758-3.84 7.758-9.04s-3-8.998-7.758-8.998z"/><path id="H" d="M174.523 953.457h-.04a4.14 4.14 0 0 1-3.959-3.12 9.073 9.073 0 0 1-7.76 3.8c-6.518 0-10.037-5.36-10.037-11.318 0-6.04 3.6-11.278 10.037-11.278a9.145 9.145 0 0 1 7.76 3.76v-1.96a1.127 1.127 0 0 1 1.16-1.119 1.091 1.091 0 0 1 1.119 1.119v16.117c0 2.56 2.88.96 2.88 2.88a1.1 1.1 0 0 1-1.16 1.12zm-11.758-19.637c-4.72 0-7.758 3.8-7.758 8.998s3.04 9.04 7.758 9.04c4.76 0 7.76-3.84 7.76-9.04s-3-8.998-7.76-8.998z"/><path id="I" d="M217.724 953.457a1.124 1.124 0 0 1-1.16-1.12v-2a9.072 9.072 0 0 1-7.758 3.8c-6.44 0-10.04-5.28-10.04-11.318 0-6 3.6-11.278 10.04-11.278a9.144 9.144 0 0 1 7.758 3.76v-9.198a1.14 1.14 0 0 1 2.279 0v26.235a1.115 1.115 0 0 1-1.119 1.12zm-8.918-19.637c-4.72 0-7.76 3.8-7.76 8.998s3.04 9.04 7.76 9.04c4.758 0 7.758-3.84 7.758-9.04s-3-8.998-7.758-8.998z"/><path id="J" d="M435.32 954.137a9.073 9.073 0 0 1-7.76-3.8v10.358a1.14 1.14 0 1 1-2.279 0V933.34a1.14 1.14 0 0 1 2.279 0v1.96a9.145 9.145 0 0 1 7.76-3.76c6.438 0 10.037 5.28 10.037 11.278 0 6.04-3.6 11.318-10.037 11.318zm0-20.316c-4.76 0-7.76 3.8-7.76 8.998s3 9.04 7.76 9.04 7.758-3.84 7.758-9.04-3-8.998-7.758-8.998z"/><path id="K" d="M146.59 993.94a1.124 1.124 0 0 1-1.16-1.119v-2a9.075 9.075 0 0 1-7.76 3.799c-6.437 0-10.037-5.278-10.037-11.317 0-6 3.6-11.278 10.037-11.278a9.143 9.143 0 0 1 7.76 3.76v-9.2a1.14 1.14 0 0 1 2.279 0v26.236a1.114 1.114 0 0 1-1.119 1.119zm-8.92-19.637c-4.72 0-7.758 3.8-7.758 9s3.04 9.038 7.758 9.038c4.76 0 7.76-3.84 7.76-9.038s-3-9-7.76-9z"/><path id="L" d="M182.43 968.864a2.28 2.28 0 1 1 2.281-2.28 2.254 2.254 0 0 1-2.281 2.28zm0 25.075a1.098 1.098 0 0 1-1.158-1.119v-18.997a1.101 1.101 0 0 1 1.158-1.12 1.09 1.09 0 0 1 1.121 1.12v18.997a1.069 1.069 0 0 1-1.121 1.119z"/><path id="M" d="M671.347 370.66q.48 6.464 7.183 6.764a6.777 6.777 0 0 0 5.088-2.035 8.181 8.181 0 0 0 1.976-5.687v-5.446a7.835 7.835 0 0 0-1.736-5.268 6.437 6.437 0 0 0-5.027-2.155 8.753 8.753 0 0 0-5.926 2.035.683.683 0 0 1-.778.3h-2.933c-.44.08-.62-.1-.54-.54v-20.53c-.08-.438.1-.618.54-.54h18.675q.658-.12.538.54v3.053q.12.66-.538.6h-14.605q-.598-.12-.538.538v11.852q0 .54.538.24a12.63 12.63 0 0 1 5.926-1.376 10.597 10.597 0 0 1 7.781 3.053 11.276 11.276 0 0 1 3.053 8.2v5.446a11.721 11.721 0 0 1-3.411 8.56 11.866 11.866 0 0 1-8.261 3.292 11.115 11.115 0 0 1-8.021-3.172 11.54 11.54 0 0 1-3.292-7.901q-.12-.598.54-.538h3.112q.658-.06.658.718h0z"/><path id="N" d="M42.684 215.77h-6.86a1.508 1.508 0 0 1-1.459-1.392v-20.78a1.488 1.488 0 0 1 1.459-1.425h6.86c6.827 0 9.08 5.634 9.08 11.766 0 6.164-2.253 11.832-9.08 11.832zm0-20.78h-5.47v17.963h5.47c4.275 0 6.23-3.15 6.23-9.015 0-5.767-1.955-8.95-6.23-8.95z"/><path id="O" d="M94.517 215.77h-3.812a1.409 1.409 0 0 1 0-2.817h.497V194.99h-.497a1.409 1.409 0 0 1 0-2.817h3.812a1.409 1.409 0 1 1 0 2.817h-.497v17.963h.497a1.409 1.409 0 1 1 0 2.817z"/><path id="P" d="M246.933 215.77h-13.787a1.437 1.437 0 0 1-1.459-1.392v-20.78a1.443 1.443 0 0 1 1.459-1.425h13.787a1.34 1.34 0 0 1 1.392 1.392 1.383 1.383 0 0 1-1.392 1.425h-12.396v6.695h8.684a1.415 1.415 0 0 1 1.425 1.425 1.394 1.394 0 0 1-1.425 1.425h-8.684v8.418h12.396a1.365 1.365 0 0 1 1.392 1.425 1.34 1.34 0 0 1-1.392 1.392z"/><path id="Q" d="M62.734 542.036a8.302 8.302 0 0 1-8.318-8.318v-14.483a1.425 1.425 0 0 1 2.85 0v14.483a5.485 5.485 0 1 0 10.971 0v-14.45a1.408 1.408 0 1 1 2.816-.033v14.483a8.302 8.302 0 0 1-8.318 8.318z"/><path id="R" d="M797.34 574.897q6.192 6.42 6.42 16.78v38.067q-.227 10.364-6.42 16.894-6.195 6.42-16.33 6.646-10.025-.227-16.33-6.646-6.196-6.53-6.308-16.894V591.68q.11-10.36 6.308-16.78 6.306-6.53 16.33-6.645 10.137.113 16.33 6.645zm-30.52 16.78v38.067q.11 6.984 3.83 11.263a14.417 14.417 0 0 0 20.723 0q3.828-4.28 3.942-11.263V591.68q-.114-6.98-3.942-11.15a14.417 14.417 0 0 0-20.723 0q-3.716 4.167-3.83 11.15h0z"/><path id="S" d="M642.313 694.037h-16.598c.36 4.56 3.32 7.88 7.68 7.88 2.16 0 4.72-.96 5.88-2.76a1.05 1.05 0 0 1 .96-.56 1.223 1.223 0 0 1 1.24 1.08c0 .36 0 .44-.76 1.32a9.441 9.441 0 0 1-7.318 3.199c-6.438 0-10.038-5.28-10.038-11.318 0-6 3.6-11.277 10.038-11.277s10.038 5.318 10.038 11.277a1.21 1.21 0 0 1-1.119 1.16zm-8.92-10.158c-4.8 0-7.318 3.68-7.68 7.88h15.397c-.36-4.56-3.32-7.88-7.72-7.88z"/><path id="T" d="M655.713 684.24a6.835 6.835 0 0 0-6.839 6.839v11.317a1.14 1.14 0 0 1-2.279 0V683.4a1.14 1.14 0 0 1 2.279 0v1.64a9.131 9.131 0 0 1 6.839-3.08 1.14 1.14 0 1 1 0 2.28z"/><path id="U" d="M731.9 703.516h-.04a4.14 4.14 0 0 1-3.959-3.119 9.074 9.074 0 0 1-7.759 3.799c-6.52 0-10.038-5.36-10.038-11.318 0-6.038 3.6-11.277 10.038-11.277a9.144 9.144 0 0 1 7.759 3.759v-1.96a1.127 1.127 0 0 1 1.16-1.12 1.091 1.091 0 0 1 1.119 1.12v16.117c0 2.56 2.88.96 2.88 2.88a1.1 1.1 0 0 1-1.16 1.12zm-11.758-19.637c-4.72 0-7.76 3.8-7.76 8.998s3.04 9.04 7.76 9.04c4.76 0 7.76-3.84 7.76-9.04s-3-8.998-7.76-8.998z"/><path id="V" d="M622.01 435.56c-4.52 0-7.047-3.706-7.047-7.945 0-4.21 2.527-7.917 7.047-7.917s7.047 3.706 7.047 7.917c0 4.24-2.525 7.945-7.047 7.945zm0-14.263c-3.312 0-5.445 2.667-5.445 6.317s2.133 6.345 5.445 6.345c3.342 0 5.447-2.695 5.447-6.345s-2.105-6.317-5.447-6.317z"/><path id="W" d="M576.837 798.066a4.799 4.799 0 0 0-4.801 4.801v7.946a.8.8 0 0 1-1.601 0v-13.337a.8.8 0 0 1 1.601 0v1.15a6.41 6.41 0 0 1 4.801-2.162.8.8 0 1 1 0 1.601z"/><path id="X" d="M585.54 812.076c-4.52 0-7.047-3.706-7.047-7.945 0-4.21 2.527-7.917 7.047-7.917s7.047 3.706 7.047 7.917c0 4.24-2.526 7.945-7.047 7.945zm0-14.263c-3.312 0-5.446 2.668-5.446 6.317s2.134 6.346 5.446 6.346c3.342 0 5.447-2.695 5.447-6.346s-2.105-6.317-5.447-6.317z"/><path id="Y" d="M641.622 793.995a1.6 1.6 0 1 1 1.601-1.6 1.582 1.582 0 0 1-1.601 1.6zm0 17.604a.772.772 0 0 1-.814-.786v-13.337a.774.774 0 0 1 .814-.786.765.765 0 0 1 .786.786v13.337a.751.751 0 0 1-.786.786z"/><path id="Z" d="M663.742 811.6h-.87c-2.218 0-3.312-1.096-3.312-3.285V798.29h-1.432a.8.8 0 0 1 0-1.601h1.432v-4.295a.789.789 0 0 1 .814-.786.766.766 0 0 1 .785.786v4.295h2.584a.8.8 0 0 1 0 1.601h-2.584v10.023c0 1.376.394 1.685 1.713 1.685h.87a.8.8 0 0 1 0 1.601z"/><path id="a" d="M754.27 811.6a.79.79 0 0 1-.814-.786v-8.198a4.801 4.801 0 1 0-9.602 0v8.198a.8.8 0 0 1-1.601 0v-13.337a.8.8 0 0 1 1.601 0v.898a6.405 6.405 0 0 1 11.202 4.24v8.198a.783.783 0 0 1-.786.786z"/><path id="b" d="M376.738 383.693a4.8 4.8 0 0 0-4.801 4.802v7.945a.8.8 0 0 1-1.601 0v-13.336a.8.8 0 0 1 1.601 0v1.15a6.41 6.41 0 0 1 4.801-2.162.8.8 0 1 1 0 1.6z"/><path id="c" d="M578.06 541.44h-13.787a1.437 1.437 0 0 1-1.459-1.393v-20.78a1.444 1.444 0 0 1 1.459-1.426h13.787a1.34 1.34 0 0 1 1.392 1.393 1.384 1.384 0 0 1-1.392 1.425h-12.395v6.694h8.684a1.415 1.415 0 0 1 1.425 1.426 1.394 1.394 0 0 1-1.425 1.425h-8.684v8.418h12.395a1.365 1.365 0 0 1 1.392 1.425 1.34 1.34 0 0 1-1.392 1.393z"/><path id="d" d="M104.714 1045.51a1.36 1.36 0 0 1-1.4-1.101 7.763 7.763 0 0 1-4.804 1.668 7.666 7.666 0 0 1-7.604-7.605v-9.24a1.434 1.434 0 0 1 2.868-.033v9.272a4.753 4.753 0 1 0 9.507 0v-9.24a1.33 1.33 0 0 1 1.4-1.468 1.364 1.364 0 0 1 1.435 1.435v14.9a1.328 1.328 0 0 1-1.401 1.4z"/><path id="e" d="M879.7 1045.98a.562.562 0 0 1-.58-.561v-.64a4.442 4.442 0 0 1-3.421 1.54 4.61 4.61 0 0 1-4.561-4.561v-5.842a.57.57 0 0 1 1.14 0v5.842a3.421 3.421 0 1 0 6.842 0v-5.842a.57.57 0 0 1 1.141 0v9.502a.558.558 0 0 1-.561.561z"/><path id="f" d="M887.66 1036.337a3.418 3.418 0 0 0-3.421 3.42v5.66a.57.57 0 0 1-1.141 0v-9.502a.57.57 0 0 1 1.141 0v.82a4.565 4.565 0 0 1 3.421-1.54.57.57 0 1 1 0 1.141z"/><path id="g" d="M996.94 1045.98h-.02a2.072 2.072 0 0 1-1.98-1.561 4.536 4.536 0 0 1-3.88 1.9c-3.26 0-5.02-2.68-5.02-5.66 0-3.02 1.8-5.64 5.02-5.64a4.571 4.571 0 0 1 3.88 1.88v-.98a.564.564 0 0 1 .581-.56.546.546 0 0 1 .56.56v8.063c0 1.28 1.44.48 1.44 1.44a.55.55 0 0 1-.58.561zm-5.88-9.822c-2.36 0-3.88 1.9-3.88 4.5s1.52 4.52 3.88 4.52c2.38 0 3.88-1.92 3.88-4.52s-1.5-4.5-3.88-4.5z"/><path id="h" d="M102.34 81.02c-9.66 0-15.06-7.92-15.06-16.98 0-9 5.4-16.92 15.06-16.92s15.06 7.92 15.06 16.92c0 9.06-5.4 16.98-15.06 16.98zm0-28.8c-6 0-9.9 4.68-9.9 11.82 0 7.2 3.9 11.88 9.9 11.88 6.06 0 9.9-4.68 9.9-11.88 0-7.14-3.84-11.82-9.9-11.82z"/><path id="i" d="M181.237 66.68h-22.2c.84 5.64 4.44 9.24 9.72 9.24a9.007 9.007 0 0 0 7.14-3.12 2.483 2.483 0 0 1 1.859-.96 2.8 2.8 0 0 1 2.7 2.64c0 .72-.18 1.26-1.44 2.52a14.622 14.622 0 0 1-10.26 4.02c-9.66 0-15.06-7.98-15.06-16.98 0-8.94 5.4-16.92 15.06-16.92 9.78 0 15 7.98 15 16.92a2.558 2.558 0 0 1-2.52 2.64zm-12.48-14.46c-5.64 0-8.94 4.14-9.72 9.3h19.44c-.84-5.76-4.44-9.3-9.72-9.3z"/><path id="j" d="M292.055 80a5.839 5.839 0 0 1-5.34-3.42 13.746 13.746 0 0 1-10.56 4.44c-9.78 0-15.06-8.04-15.06-16.98s5.4-16.92 15.06-16.92a13.257 13.257 0 0 1 9.899 3.96v-.24a2.476 2.476 0 0 1 2.521-2.7 2.412 2.412 0 0 1 2.64 2.52v23.16a.971.971 0 0 0 .84 1.08 2.55 2.55 0 1 1 0 5.1zm-15.9-27.78c-6 0-9.9 4.68-9.9 11.82 0 7.2 3.9 11.88 9.9 11.88 6.06 0 9.9-4.68 9.9-11.88 0-7.14-3.84-11.82-9.9-11.82z"/><path id="k" d="M352.054 66.68h-22.2c.84 5.64 4.44 9.24 9.72 9.24a9.004 9.004 0 0 0 7.14-3.12 2.484 2.484 0 0 1 1.86-.96 2.8 2.8 0 0 1 2.7 2.64c0 .72-.18 1.26-1.44 2.52a14.622 14.622 0 0 1-10.26 4.02c-9.66 0-15.06-7.98-15.06-16.98 0-8.94 5.4-16.92 15.06-16.92 9.78 0 15 7.98 15 16.92a2.558 2.558 0 0 1-2.521 2.64zm-12.48-14.46c-5.64 0-8.94 4.14-9.72 9.3h19.44c-.84-5.76-4.44-9.3-9.72-9.3z"/><path id="l" d="M463.053 51.682l-10.92 26.28a2.737 2.737 0 0 1-2.58 2.04 2.906 2.906 0 0 1-2.58-2.04l-10.92-26.28a3.692 3.692 0 0 1-.181-1.08 2.589 2.589 0 0 1 2.641-2.46 2.456 2.456 0 0 1 2.279 1.56l8.76 21 8.76-21a2.584 2.584 0 0 1 4.979.84 2.99 2.99 0 0 1-.239 1.14z"/><path id="m" d="M505.772 80.12a6.122 6.122 0 0 1-6-6.12V39.862a2.58 2.58 0 0 1 5.16-.06V74a.947.947 0 0 0 .84 1.02 2.55 2.55 0 1 1 0 5.1z"/><path id="n" d="M562.77 43.282a4.32 4.32 0 1 1 4.319-4.319 4.302 4.302 0 0 1-4.319 4.319zm0 36.72a2.52 2.52 0 0 1-2.64-2.52v-26.76a2.533 2.533 0 0 1 2.64-2.58 2.472 2.472 0 0 1 2.52 2.58v26.76a2.421 2.421 0 0 1-2.52 2.52z"/><path id="o" d="M701.967 66.68h-22.2c.84 5.64 4.44 9.24 9.72 9.24a9.007 9.007 0 0 0 7.14-3.12 2.483 2.483 0 0 1 1.859-.96 2.8 2.8 0 0 1 2.7 2.64c0 .72-.18 1.26-1.44 2.52a14.618 14.618 0 0 1-10.259 4.02c-9.66 0-15.06-7.98-15.06-16.98 0-8.94 5.4-16.92 15.06-16.92 9.78 0 15 7.98 15 16.92a2.558 2.558 0 0 1-2.519 2.64zm-12.48-14.46c-5.64 0-8.94 4.14-9.72 9.3h19.438c-.84-5.76-4.44-9.3-9.72-9.3z"/><path id="p" d="M734.727 79.94a2.436 2.436 0 0 1-2.58-2.52 14.518 14.518 0 0 1-9.899 3.6c-9.66 0-15.06-7.92-15.06-16.98 0-9 5.4-16.92 15.06-16.92a13.224 13.224 0 0 1 9.899 3.9v-11.16a2.58 2.58 0 0 1 5.159-.06V77.42a2.436 2.436 0 0 1-2.579 2.52zm-12.48-27.72c-6 0-9.9 4.68-9.9 11.82 0 7.2 3.9 11.88 9.9 11.88 6.06 0 9.9-4.68 9.9-11.88 0-7.14-3.84-11.82-9.9-11.82z"/><path id="q" d="M938.242 80a5.837 5.837 0 0 1-5.339-3.42 13.748 13.748 0 0 1-10.56 4.44c-9.78 0-15.06-8.04-15.06-16.98s5.4-16.92 15.06-16.92a13.259 13.259 0 0 1 9.899 3.96v-.24a2.475 2.475 0 0 1 2.52-2.7 2.412 2.412 0 0 1 2.64 2.52v23.16a.971.971 0 0 0 .84 1.08 2.55 2.55 0 1 1 0 5.1zm-15.898-27.78c-6 0-9.9 4.68-9.9 11.82 0 7.2 3.9 11.88 9.9 11.88 6.06 0 9.9-4.68 9.9-11.88 0-7.14-3.84-11.82-9.9-11.82z"/><path id="r" d="M118.06 104.482a4.32 4.32 0 1 1 4.319-4.319 4.302 4.302 0 0 1-4.319 4.319zm0 36.72a2.521 2.521 0 0 1-2.641-2.52v-26.76a2.534 2.534 0 0 1 2.641-2.58 2.472 2.472 0 0 1 2.52 2.58v26.76a2.421 2.421 0 0 1-2.52 2.52z"/></defs><rect width="1080" height="1080" rx="40" fill="url(#A)"/><g opacity=".07" stroke="#ff2bc2" class="X Z a"><path d="M-120.544 613.8v25.72l72.726 164.078-15.52 7.687 22.468 52.032 318.104-135.992-1.183 18.92 11.825 4.73 48.484-34.294s119.437 31.93 206.945 15.373l21.286-7.095.887 56.466 129.488-56.466 5.32 1.183L801.7 837.9l188.024 172.65s69.77-23.65 50.258-64.45-95.195-156.687-104.064-167.33-124.167-154.322-124.167-154.322l.59-7.095L889.8 586.61s67.405-67.405 87.508-121.802-23.65-66.222-23.65-66.222-44.937-31.93-98.742-24.242-162.6 60.3-162.6 60.3-20.694 15.373-32.52 4.14-215.223-221.727-215.223-221.727L248.26 43.233l-79.822 41.39 132.445 187.433 146.044 171.47-15.964 17.147s-2.365 7.687 8.87 8.278 32.52.59 32.52.59l34.885 46.7 1.183 16.556s-110.568 64.45-170.286 107.61l-70.952 50.258-193.937 87.508s-11.825 14.782-24.833-18.33-36.068-65.04-36.068-65.04l-73.318-83.37-9.46-18.33z"/><path d="M564.6 724.968l196.006-89.873 4.435 57.65-70.066 32.224m-139.243 3.547l-50.258-55.58 182.702-77.457-2.512-46.858 35.032 44.493 12.417-1.183 5.913 10.052-4.14 4.73 1.774 7.095 23.946 21.286"/><path d="M505.464 672.937l-25.573 12.268.444-50.553 205.32-86.03 2.512 46.858m24.537-170.58v95.786s-7.982 15.52-2.217 23.946 75.387 85.586 75.387 85.586l26.46-12.86"/><path d="M805.736 387.374l3.64 89.852s-9.056 15.077-3.64 23.06 39.56 52.032 39.56 52.032l-94.454 38.827"/><path d="M878.37 591.144l-33.073-38.827"/></g><path d="M962.994 313.635l-37.163 37.128a12.87 12.87 0 0 0-14.38 2.192 12.563 12.563 0 0 0-.024 17.762 12.609 12.609 0 0 0 8.911 3.689 12.533 12.533 0 0 0 11.185-18.175l37.047-37.03a3.895 3.895 0 0 0 1.155-2.782 3.738 3.738 0 0 0-1.155-2.77 4.011 4.011 0 0 0-5.575-.024zm-39.367 51.52a4.653 4.653 0 0 1-3.288 1.226h-.012a4.683 4.683 0 0 1-3.312-1.261 4.6 4.6 0 0 1-1.367-3.277 4.706 4.706 0 0 1 1.379-3.312 4.667 4.667 0 0 1 6.624 0 4.699 4.699 0 0 1-.024 6.624zm70.86-77.768a105.443 105.443 0 0 0-180.04 74.456 103.52 103.52 0 0 0 7.791 39.461l-.035.33.554.93a105.136 105.136 0 0 0 26.732 37.693 3.95 3.95 0 0 0 6.565-3.135 3.809 3.809 0 0 0-1.308-2.723 96.855 96.855 0 0 1-23.326-31.682l11.386-4.726a3.999 3.999 0 0 0 2.169-2.133 3.89 3.89 0 0 0-.035-3.041 4.02 4.02 0 0 0-2.228-2.122 3.929 3.929 0 0 0-2.864 0l-11.374 4.715a95.862 95.862 0 0 1-5.999-29.679h12.376a3.937 3.937 0 1 0 0-7.873h-12.376a95.672 95.672 0 0 1 5.893-29.714l11.315 4.7a3.98 3.98 0 0 0 3.017.059 3.907 3.907 0 0 0 .141-7.296l-11.515-4.703a97.164 97.164 0 0 1 16.89-25.129l8.698 8.7a3.94 3.94 0 0 0 2.746 1.155h.047a3.92 3.92 0 0 0 2.805-6.718l-8.7-8.722a97.204 97.204 0 0 1 25.141-16.855l4.75 11.48a3.944 3.944 0 0 0 5.127 2.11 3.889 3.889 0 0 0 2.133-2.145 4.047 4.047 0 0 0 0-3.017l-4.738-11.445a96.84 96.84 0 0 1 29.726-5.834v12.33a3.937 3.937 0 1 0 7.873 0v-12.33a96.562 96.562 0 0 1 29.714 5.834l-4.774 11.492a4.052 4.052 0 0 0 .012 3.041 3.813 3.813 0 0 0 1.933 2.016 4.022 4.022 0 0 0 5.363-2.051l4.75-11.48a97.113 97.113 0 0 1 25.153 16.867l-8.77 8.77a3.981 3.981 0 0 0 .024 5.587 4.03 4.03 0 0 0 5.563-.024l8.77-8.77a97.328 97.328 0 0 1 16.89 25.176l-11.55 4.762a3.937 3.937 0 0 0 1.509 7.567 3.622 3.622 0 0 0 1.509-.283l11.54-4.774a96.333 96.333 0 0 1 5.87 29.726h-12.458a3.949 3.949 0 0 0 0 7.897l12.458-.012a95.577 95.577 0 0 1-6.035 29.679L999.9 390.8a3.944 3.944 0 1 0-3.029 7.284l11.468 4.726a97.936 97.936 0 0 1-23.337 31.671 4.088 4.088 0 0 0-1.344 2.734 3.915 3.915 0 0 0 3.937 4.137 3.76 3.76 0 0 0 2.628-1.002A106.219 106.219 0 0 0 1017 402.624l.377-.825.106-.354a104.81 104.81 0 0 0-22.996-114.059z" class="W c"/><path d="M764.895 408.72l-24.67-79.166a30.904 30.904 0 0 0-23.254-21.35v-21.307a38.65 38.65 0 0 0-38.605-38.605h-23.74a38.603 38.603 0 0 0-38.605 38.605v21.307a30.91 30.91 0 0 0-23.248 21.35l-24.67 79.166a31.458 31.458 0 0 0 30.032 40.815h136.72a31.462 31.462 0 0 0 30.037-40.815zM647.546 279.8a9.22 9.22 0 0 1 7.084-2.933h23.74a10.029 10.029 0 0 1 10.017 10.017v18.302l-10.186-.986a6.848 6.848 0 0 0-.686-.034H655.49q-.343 0-.686.034l-10.19.986v-18.302a9.206 9.206 0 0 1 2.93-7.084z" class="W c"/><g class="W Y c"><circle cx="359.991" cy="295.954" r="47.663"/><circle cx="466.883" cy="295.954" r="47.663"/><circle cx="359.991" cy="401.871" r="47.663"/><circle cx="466.883" cy="401.871" r="47.663"/></g><g class="X Y Z a d"><path d="M540 197.14v1"/><path d="M540 204.056v241.52" class="e"/><path d="M540 448.534v1"/></g><g class="X Y Z a d"><path d="M540 517.776v1"/><path d="M540 524.74v474.113" stroke-dasharray="1.9879 5.96369"/><path d="M540 1001.835v1"/></g><g class="X Y Z a d"><path d="M793 197.14v1"/><path d="M793 204.056v241.52" class="e"/><path d="M793 448.534v1"/></g><g class="W"><path d="M377.57 807.814l31.1 22.6a163.71 163.71 0 1 1-132.429-259.947v38.403A125.315 125.315 0 1 0 377.57 807.814z" opacity=".2"/><path d="M439.928 734.186a162.889 162.889 0 0 1-31.258 96.229l-31.1-22.6a124.513 124.513 0 0 0 23.955-73.628c0-69.095-56.19-125.315-125.283-125.315v-38.403a163.709 163.709 0 0 1 163.687 163.718z" class="V"/><g class="c"><use xlink:href="#C"/><use xlink:href="#C" x="106.892"/><use xlink:href="#C" y="105.918"/><use xlink:href="#C" x="106.892" y="105.918"/><path d="M85.568 343.14a47.186 47.186 0 1 1 0-94.373z" class="Y a"/></g></g><g clip-path="url(#B)"><g class="U"><g class="d X Y Z"><circle cx="907.709" cy="853.373" r="28.621"/></g><g class="d X Y Z"><circle cx="907.709" cy="853.373" r="57.241"/></g><g class="d X Y Z"><circle cx="907.709" cy="853.373" r="85.862"/></g><g class="X Y Z"><circle cx="907.709" cy="853.373" r="121.637"/><path d="M907.71 853.373v-119.35" class="a"/></g><path d="M911.1 738.006l-3.4-3.393-3.39 3.393v-2.88l3.39-3.39 3.4 3.39v2.88z" class="W"/><path d="M907.71 853.373l-103.36-59.676" class="X Y Z a"/><path d="M809.493 792.753l-4.633 1.24 1.242 4.633-2.493-1.44-1.24-4.63 4.632-1.24 2.493 1.44z" class="W"/><path d="M907.71 853.373l-103.36 59.676" class="X Y Z a"/><path d="M806.102 908.12l-1.242 4.633 4.633 1.24-2.493 1.44-4.632-1.24 1.24-4.632 2.493-1.44z" class="W"/><path d="M907.71 853.373v119.35" class="X Y Z a"/><path d="M904.318 968.74l3.39 3.393 3.4-3.393v2.88l-3.4 3.39-3.39-3.39v-2.88z" class="W"/><path d="M907.71 853.373l103.362 59.676" class="X Y Z a"/><path d="M1005.925 913.994l4.633-1.24-1.242-4.633 2.493 1.44 1.24 4.632-4.632 1.24-2.493-1.44z" class="W"/><path d="M907.71 853.373l103.362-59.676" class="X Y Z a"/><path d="M1009.316 798.626l1.242-4.633-4.633-1.24 2.493-1.44 4.632 1.24-1.24 4.63-2.493 1.44z" class="W"/></g></g><path d="M1042.782 869.996l-2.582-2.578-3.073-1.517-3.137.684 2.187-9.813-.455-4.457-5.092-.805.844-1.35 1.01-1.094 2.765-2.157-1.32-3.02.948-2.6 1.734-2.54.967-2.846-1.38-6.767-.577-1.775 1.98-4.62-.455-1.57-1.466-2.302-.43-.867.04-1.816 2.23-13.285.12-4.334-1.258-3.572-4.022 1.52-2.62-2.066-1.694-3.807-1.61-6.066-.76-1.3-2.11-2.238-2.823-3.712-.952-2.2.89-.97.474-1.992.37-4.392-.95-4.395-3.363-1.99-3.303-.457-11.185-4.128-1.545-.95-2.56-2.393-1.816-1.26-4.95-2.052-2.2-1.652-.887-2.68.166-1.266.433-.993.37-.745.186-.526-.388-1.372-1.53-2.053-1.035-3.412-3.052-5.098-1.033-2.453-.7-4.342-.722-1.067-2.043-1.493-.726.185-1.13.59-1.344.217-1.465-.99-.33-1.024.476-.988.66-.95.37-.99-.6-2.28-2.433-1.69-.535-1.818.535-1.908 1.26-1.835 1.296-1.354-.186-.12-4.248-1.33-2.33.32-2.21 1-2.682.65-2.828-.373-2.948-.843-2.764-.423-2.623.907-1.42 2.403-1.095 6.975-.844 2.558-1.076.865-2.805 1.272-1.218.97-.473 1.01-.413 2.433-.333 1.113-1.793 3.044-2.186 2.807-7.596 7.128-2.578 1.536-1.256.382-1.385.103-1.322.24-1.38.78-1.194 2.3-1.012 6.53-.887 2.56-1.816 1.702-6.933 2.693-5.858 3.113-2.23 2.27-1.526 3.672-1.756.363-11.554 6.33-3.736 1.376-3.527.38-3.324-.93-2.885-2.704-1.692-3.567-.413-6.934-.722-3.526-4.788-6.892-1.858-.928-1.504-.23-1.486.444-1.568.97-1.527 1.795-1.032 3.343-1.364.824-1.196-.432-3.608-2.17-2.047-.442-4.122.714-2.827 1.463-2.622 1.88-3.488 1.96-3.135.845-3.547.26-6.81-.362-6.645 2.34-6.747 4.84-5.882 6.046-3.835 6-.373.372-.35.26-.453.104-12.96.522-2.64 1.127-2.003 2.517-4.6 9.5-1.733 2.22-8.21 6.746-2.045 2.98-2.035 3.8 4.328 1.626 1.42.928.31 1.054-.4 1-.724.99-.31 1.083.435.392 2.266.64.788.587.577 1.796.247 2.217-.473 2.237-1.55 1.932 2.682 3.372.435 8.367 1.42 3.22-2.083 3.3 1.548 3.484 4.127 4.163.432-1.16.828 1.313.78 1.957.188.766 1.55 3.63 1.007.94 2.046-1.106-.456 3.167.886 2.805 1.32 2.603.66 2.456-.413 2.658-.987-.02-.893-1.205-.12-.866-1.6 1-1.176 1.09-1.26.908-1.794.484.826 1.672.37 1.837-.25 1.814-.947 1.695-1.86-3.65-1.277-1.166-1.508.1-1.133 1.6-.724 2.642-.412 4.94h-1.072l-.91-1.577.064-1.89.845-4.58-2.393 1.207-.97 2.082-.126 5.375.786.93 1.734.968 1.545 1.65.476 2.808-3.775-3.572-4.746.282-3.095 3.105 1.26 4.9-3.426-.444-1.732 1.856-.413 3.172.845 3.464 1.237-.444 1.158-.826-.58 2.455-1.857.732-2.392-.524-2.187-1.393-7.056 13.71.31-1.984.783-2.77.187-2.066h-1.28l-.518 2.04-.845 1.427-2.124 2.404.205-.824-.72-.486-1.075-.128-.722.187-.3.85.125 2.276-.372.98-1.548 2.663-.844 2.807-1.26 2.516-2.745 1.732 1.96-3.3 1.505-3.528-1.606-2.426-.188-4.293-.783-3.803-3.177-1.095-1.405.848-.967 1.537-2.27 7.964-.724 1.063-.453.372-.476.212-.722.674-3.216 2.35-7.387 2.802-3.26 2.88-1.857 4.477-1.113 4.462-2.24 2.607.054.094.577 2.076-2.932 2.615-.598 2.22.598 2.154 1.486 1.033 1.92.91 1.734 1.752 1.133 3.93-1.133 12.865 1.318 1.33 6.356 4.13 2.27.888 5.034.524 3.464 1.712 2.58 2.868 2.932-16.858 3.836-3.754 9.908-.64 2.742.402 10.274 4.46 3.858 1.166 7.12.886 3.588.866 3.094 1.752 2.063 1.537.126.786-.186 1.992.58 2.425 3.734 3.444 1.01 2.097-.372 1.896-2.312 2.868-.598 1.754.352 1.97 1.628 3.51.166 2.116 1.506 3.207 4.2-.402 7.302-3.15 3.075-.34 9.387 1.75 3.965 2.204 3.236-1.078 3.157-2.012 3.713-.484 1.735.063 1.36-.527 1.26-.763 5.033-1.817 1.198.065 8.895 2.917 3.197.484 3.774-.464 1.693-.986.704-1.572.535-3.526 1.26-1.56 1.98-.02 3.796 1.135 4.252.123 3.382-.65 3.18-1.854 3.484-3.512 2.27-3.064 2.023-3.484 1.63-3.676.886-3.72.848-19.187 3.65-12.745-1.218-12.967 1.094-8.625v-1.56l.454-.93 1.753-.035 1.363.75 4.437 3.806 1.32.185 1.425-.125 1.63.04 1.92.68 2.08 1.58 5.282 6.172 2.743 2.433 3.53 2.34 3.918 1.507 3.84-.134 2.867-1.98 7.654-9.553.393-1.185.064-1.58.575-1.148 2 .197 5.323 2.55 2.084.47 2.707-.132 3.235-.65 3.202-1.028 2.412-1.25 2.21-2.014 1.466-1.916 1.628-1.548 2.746-.806.846.425 5.323 1.267.597-.207.784.91.9 2.36.965 1.332 9.247 7.522 5.632 2.64 5.552.215 3.3-1.927 3.593.445 3.71 1.043 3.526-.2 1.92-1.577 2.393-4.527 1.983-1.52 2.166-.297 1.856.58 8.873 4.355 1.384.327 1.525-.422 1.216-.69 2.375-.58 2.58-1.498 2.885-1.245 2.2-1.6 1.733-3.144.723-3.417-.723-11.542 1.485-7.42 5.8-18.757-1.424-4.882-1.794-2.453z" class="W c"/><g class="b"><circle cx="907.709" cy="853.373" r="9.241"/><path d="M937.702 879.438a1.424 1.424 0 0 1-1.288-.858l-5.868-12.13-4.115 5.153v6.333a1.539 1.539 0 0 1-3.077 0v-22.47a1.539 1.539 0 0 1 3.077 0V866.7l9.77-12.13a1.367 1.367 0 0 1 1.109-.608 1.621 1.621 0 0 1 1.647 1.538 1.476 1.476 0 0 1-.394.967l-5.87 7.335 6.44 13.418a1.418 1.418 0 0 1 .179.716 1.581 1.581 0 0 1-1.61 1.503z"/><use xlink:href="#D"/><path d="M957.88 887.597c-2.183 0-7.585-.787-7.585-2.934a1.666 1.666 0 0 1 1.538-1.61c.823 0 .107.107 2.004.822a11.169 11.169 0 0 0 4.043.681c3.972 0 5.904-1.896 5.904-5.654v-1.6a8.375 8.375 0 0 1-5.904 2.146c-5.653 0-8.98-4.008-8.98-9.518 0-5.368 3.22-10.1 8.98-10.1a7.708 7.708 0 0 1 5.904 2.29v-.144a1.523 1.523 0 0 1 1.539-1.538 1.502 1.502 0 0 1 1.538 1.538V878.9c0 5.7-3.4 8.695-8.98 8.695zm0-24.726c-3.578 0-5.903 2.8-5.903 7.05 0 4.08 2.146 6.477 5.903 6.477s5.904-2.397 5.904-6.477c0-4.26-2.3-7.05-5.904-7.05zm30.983 16.567a3.482 3.482 0 0 1-3.185-2.04 8.198 8.198 0 0 1-6.298 2.648c-5.832 0-8.98-4.795-8.98-10.126s3.22-10.1 8.98-10.1a7.908 7.908 0 0 1 5.904 2.361v-.143a1.477 1.477 0 0 1 1.503-1.61 1.438 1.438 0 0 1 1.574 1.503v13.812a.58.58 0 0 0 .501.645 1.521 1.521 0 1 1 0 3.041zm-9.482-16.567c-3.578 0-5.903 2.8-5.903 7.05 0 4.293 2.325 7.084 5.903 7.084 3.614 0 5.904-2.8 5.904-7.084 0-4.26-2.3-7.05-5.904-7.05zm16.994 16.63a3.651 3.651 0 0 1-3.579-3.649V855.5a1.539 1.539 0 0 1 3.078-.035v20.396a.564.564 0 0 0 .501.608 1.521 1.521 0 1 1 0 3.041z"/><use xlink:href="#D" x="58.388"/><path d="M835.176 404.14l.768-.575h4.54q.703 0 .64.64v40.406q-.13.705.575.64h8.312q.703-.127.575.575v3.133c.042.47-.15.66-.575.575h-22.633c-.47.085-.683-.105-.64-.575v-3.133q-.064-.703.64-.575h8.63q.64.064.575-.64v-34.077q-.064-.768-.64-.128a28.073 28.073 0 0 1-8.76 5.115q-.51.255-.575-.32v-3.26a.62.62 0 0 1 .448-.575 16.066 16.066 0 0 0 8.119-7.225h0z"/><use xlink:href="#E"/><use xlink:href="#E" x="30.085"/><path d="M932.957 428.547l-6.827 6.827 7.103 11.135a2.528 2.528 0 0 1 .32 1.1 2.066 2.066 0 0 1-2.062 1.971 1.854 1.854 0 0 1-1.558-.917l-6.69-10.4-3.896 3.896v5.452a1.971 1.971 0 0 1-3.94 0v-28.776a1.849 1.849 0 0 1 1.925-1.924 1.873 1.873 0 0 1 2.016 1.924v17.78l10.814-10.814a1.966 1.966 0 0 1 1.466-.596 2.049 2.049 0 0 1 1.971 1.971 2.021 2.021 0 0 1-.642 1.375z"/><use xlink:href="#F"/><path d="M992.58 418.97l-17.274 30.884a1.905 1.905 0 0 1-1.649 1.055 2.056 2.056 0 0 1-2.017-1.971 3.101 3.101 0 0 1 .275-.962l17.23-30.885a1.918 1.918 0 0 1 1.695-1.054 2.019 2.019 0 0 1 2.063 1.879 1.88 1.88 0 0 1-.321 1.054zm23.235 30.564a1.851 1.851 0 0 1-1.925-1.925v-12.74a6.53 6.53 0 1 0-13.06 0v12.692a1.948 1.948 0 0 1-2.016 2.017 1.888 1.888 0 0 1-1.925-1.971v-28.73a1.97 1.97 0 0 1 3.94-.046v7.928a9.241 9.241 0 0 1 6.507-2.337 10.532 10.532 0 0 1 10.447 10.447v12.692a1.874 1.874 0 0 1-1.97 1.971z"/></g><g class="U W"><use xlink:href="#G" class="U"/><path d="M89.487 927.22h-1.24a1.769 1.769 0 0 0-1.76 1.72v3.28h3a1.089 1.089 0 0 1 1.119 1.119 1.124 1.124 0 0 1-1.119 1.16h-3v17.837a1.092 1.092 0 0 1-1.119 1.12 1.069 1.069 0 0 1-1.121-1.12V934.5H81.5a1.14 1.14 0 0 1 0-2.279h2.758v-3.28a3.969 3.969 0 0 1 3.961-3.959h1.28a1.136 1.136 0 0 1 1.16 1.16 1.072 1.072 0 0 1-1.16 1.079zm30.477 26.277a.985.985 0 0 1-.84-.48l-8.598-11.878h-7.16v11.198a1.14 1.14 0 0 1-2.279 0v-26.235a1.181 1.181 0 0 1 1.16-1.12h10.8a8.057 8.057 0 0 1 8.117 8.039 8.141 8.141 0 0 1-7.799 8.118l7.56 10.48a1.092 1.092 0 0 1 .281.72 1.262 1.262 0 0 1-1.24 1.16zm-6.88-26.276h-9.72v11.64h9.68a5.82 5.82 0 0 0 .039-11.639zm38.24 6.48l-6.52 18.797c-.28.76-.64.96-1.16.96-.68 0-.88-.24-1.12-.96l-5.24-15.598-5.238 15.598c-.28.76-.64.96-1.16.96a1.168 1.168 0 0 1-1.119-.96l-6.48-18.797a1.662 1.662 0 0 1-.08-.44 1.135 1.135 0 0 1 1.158-1.039 1.038 1.038 0 0 1 1.041.76l5.48 15.837 5.24-15.637c.238-.76.48-.96 1.158-.96.48 0 .88.16 1.12.96l5.318 15.637 5.398-15.837a1.04 1.04 0 0 1 1.041-.76 1.164 1.164 0 0 1 1.24 1.079 1.209 1.209 0 0 1-.08.4z" class="U"/><use xlink:href="#H" class="U"/><path d="M194.845 953.457a1.124 1.124 0 0 1-1.16-1.12V940.66a6.839 6.839 0 1 0-13.678 0v11.678a1.14 1.14 0 0 1-2.279 0V933.34a1.14 1.14 0 0 1 2.279 0v1.28a9.123 9.123 0 0 1 15.957 6.039v11.678a1.115 1.115 0 0 1-1.119 1.12z" class="U"/><use xlink:href="#I" class="U"/><use xlink:href="#H" x="69.279" class="U"/><path d="M246.927 933.26a1.328 1.328 0 0 1-.6.2 1.284 1.284 0 0 1-1.121-1.359c0-.88 2.28-1.08 2.28-3.64v-3.04a1.138 1.138 0 0 1 1.121-1.2 1.169 1.169 0 0 1 1.16 1.2v3.04a5.703 5.703 0 0 1-2.84 4.799zm13.598 20.957c-2.398 0-6.44-.84-7.838-3.16a.967.967 0 0 1-.16-.601 1.091 1.091 0 0 1 2.039-.64c1.44 1.76 4 2.12 5.96 2.12 3.88 0 5.84-1.28 5.84-3.88 0-6.04-13.12-2.84-13.12-10.838 0-4.04 4.04-5.6 7.68-5.6 2.08 0 5.28.72 6.88 2.32a1.115 1.115 0 0 1 .359.76 1.296 1.296 0 0 1-1.24 1.199 1.064 1.064 0 0 1-.76-.319 7.989 7.989 0 0 0-5.238-1.68c-3.52 0-5.398 1.36-5.398 3.32 0 5.6 13.117 2.64 13.117 10.838 0 4.56-4 6.16-8.12 6.16zm28.96-.08a9.072 9.072 0 0 1-7.758-3.8v2a1.14 1.14 0 0 1-2.279 0v-26.235a1.14 1.14 0 0 1 2.279 0v9.198a9.144 9.144 0 0 1 7.758-3.76c6.44 0 10.04 5.28 10.04 11.278 0 6.04-3.6 11.318-10.04 11.318zm0-20.316c-4.758 0-7.758 3.8-7.758 8.998s3 9.04 7.758 9.04 7.76-3.84 7.76-9.04-3-8.998-7.76-8.998zm17.16 19.875a4.192 4.192 0 0 1-3.959-4.239v-23.355a1.14 1.14 0 0 1 2.279 0v23.355c0 2.56 2.84 1.08 2.84 2.88a1.29 1.29 0 0 1-1.16 1.359zm12.318.44c-6.437 0-10.037-5.28-10.037-11.318 0-6 3.6-11.278 10.037-11.278S329 936.82 329 942.818c0 6.04-3.6 11.318-10.04 11.318zm0-20.316c-4.72 0-7.758 3.8-7.758 8.998s3.04 9.04 7.758 9.04c4.76 0 7.76-3.84 7.76-9.04s-3-8.998-7.76-8.998z" class="U"/><use xlink:href="#G" x="272.314" class="U"/><use xlink:href="#I" x="154.796" class="U"/><path d="M392.6 954.217c-2.398 0-6.44-.84-7.838-3.16a.967.967 0 0 1-.16-.601 1.091 1.091 0 0 1 2.039-.64c1.44 1.76 4 2.12 5.96 2.12 3.88 0 5.84-1.28 5.84-3.88 0-6.04-13.12-2.84-13.12-10.838 0-4.04 4.04-5.6 7.68-5.6 2.08 0 5.28.72 6.88 2.32a1.115 1.115 0 0 1 .359.76 1.296 1.296 0 0 1-1.24 1.199 1.064 1.064 0 0 1-.76-.319 7.988 7.988 0 0 0-5.238-1.68c-3.52 0-5.398 1.36-5.398 3.32 0 5.6 13.117 2.64 13.117 10.838 0 4.56-4 6.16-8.12 6.16zm27.48-.76a1.126 1.126 0 0 1-1.16-1.12v-1.28a8.885 8.885 0 0 1-6.838 3.079 9.219 9.219 0 0 1-9.119-9.118v-11.68a1.14 1.14 0 0 1 2.279 0v11.68a6.839 6.839 0 1 0 13.678 0v-11.68a1.141 1.141 0 0 1 2.281 0v18.997a1.117 1.117 0 0 1-1.121 1.12z" class="U"/><use xlink:href="#J" class="U"/><use xlink:href="#J" x="23.242" class="U"/><path d="M475.722 953.696a4.19 4.19 0 0 1-3.959-4.239v-23.355a1.14 1.14 0 0 1 2.279 0v23.355c0 2.56 2.84 1.08 2.84 2.88a1.29 1.29 0 0 1-1.16 1.359zm20.438-19.876l-10.84 25.636c-.8 1.88-2.44 2.4-4.28 2.4h-1.76a1.14 1.14 0 0 1 0-2.279h1.76c.88 0 1.8-.04 2.16-.96l2.28-5.44-8.277-19.356a1.272 1.272 0 0 1-.08-.521 1.117 1.117 0 0 1 1.158-1.079 1.025 1.025 0 0 1 1 .68l7.44 17.356 7.36-17.356a1.04 1.04 0 0 1 1.039-.68 1.083 1.083 0 0 1 1.119 1.079 1.302 1.302 0 0 1-.078.521z" class="U"/><use xlink:href="#K" class="U"/><path d="M169.83 984.46h-16.598c.36 4.56 3.318 7.88 7.678 7.88 2.16 0 4.72-.96 5.88-2.76a1.051 1.051 0 0 1 .961-.56 1.223 1.223 0 0 1 1.24 1.08c0 .36 0 .44-.762 1.32a9.435 9.435 0 0 1-7.318 3.199c-6.437 0-10.037-5.278-10.037-11.317 0-6 3.6-11.278 10.037-11.278s10.04 5.32 10.04 11.278a1.211 1.211 0 0 1-1.119 1.159zm-8.92-10.158c-4.8 0-7.318 3.68-7.678 7.88h15.396c-.36-4.56-3.318-7.88-7.72-7.88zm17.16 19.878a4.192 4.192 0 0 1-3.959-4.239v-23.356a1.14 1.14 0 0 1 2.279 0v23.356c0 2.56 2.84 1.08 2.84 2.88a1.29 1.29 0 0 1-1.16 1.359z" class="U"/><use xlink:href="#L" class="U"/><path d="M203.948 974.263l-7.88 18.757a1.313 1.313 0 0 1-1.121.92 1.358 1.358 0 0 1-1.158-.92l-7.88-18.717a1.268 1.268 0 0 1-.08-.52 1.118 1.118 0 0 1 1.158-1.08 1.026 1.026 0 0 1 1 .68l6.96 16.438 6.92-16.437a1.141 1.141 0 0 1 2.199.36.961.961 0 0 1-.119.52zm20.438 10.197h-16.598c.36 4.56 3.32 7.88 7.68 7.88 2.16 0 4.72-.96 5.88-2.76a1.049 1.049 0 0 1 .959-.56 1.223 1.223 0 0 1 1.24 1.08c0 .36 0 .44-.76 1.32a9.44 9.44 0 0 1-7.318 3.199c-6.44 0-10.04-5.278-10.04-11.317 0-6 3.6-11.278 10.04-11.278s10.037 5.32 10.037 11.278a1.209 1.209 0 0 1-1.119 1.159zm-8.918-10.158c-4.8 0-7.318 3.68-7.68 7.88h15.398c-.36-4.56-3.32-7.88-7.72-7.88zm22.318.36a6.834 6.834 0 0 0-6.838 6.839v11.318a1.14 1.14 0 0 1-2.279 0v-18.997a1.14 1.14 0 0 1 2.279 0v1.64a9.127 9.127 0 0 1 6.838-3.079 1.14 1.14 0 1 1 0 2.279zm19.592 9.797H240.78c.36 4.56 3.32 7.88 7.68 7.88 2.16 0 4.72-.96 5.88-2.76a1.048 1.048 0 0 1 .959-.56 1.223 1.223 0 0 1 1.24 1.08c0 .36 0 .44-.76 1.32a9.44 9.44 0 0 1-7.318 3.199c-6.44 0-10.04-5.278-10.04-11.317 0-6 3.6-11.278 10.04-11.278s10.037 5.32 10.037 11.278a1.209 1.209 0 0 1-1.119 1.159zm-8.918-10.158c-4.8 0-7.318 3.68-7.68 7.88h15.398c-.36-4.56-3.32-7.88-7.72-7.88z" class="U"/><use xlink:href="#K" x="133.108" class="U"/><path d="M300.42 993.94h-1.24c-3.16 0-4.72-1.56-4.72-4.68v-14.278h-2.04a1.14 1.14 0 0 1 0-2.279h2.04v-6.12a1.124 1.124 0 0 1 1.16-1.119 1.091 1.091 0 0 1 1.119 1.119v6.12h3.68a1.14 1.14 0 0 1 0 2.279h-3.68v14.278c0 1.96.56 2.4 2.44 2.4h1.24a1.14 1.14 0 0 1 0 2.279zm20.276 0a1.124 1.124 0 0 1-1.16-1.119v-11.68a6.839 6.839 0 1 0-13.678 0v11.68a1.14 1.14 0 0 1-2.279 0v-26.236a1.14 1.14 0 0 1 2.279 0v8.52a8.886 8.886 0 0 1 6.84-3.079 9.191 9.191 0 0 1 9.117 9.118v11.68a1.114 1.114 0 0 1-1.119 1.119z" class="U"/><use xlink:href="#L" x="144.268" class="U"/><path d="M338.577 994.7c-2.398 0-6.44-.84-7.838-3.16a.964.964 0 0 1-.16-.6 1.09 1.09 0 0 1 2.039-.64c1.44 1.76 4 2.12 5.96 2.12 3.88 0 5.84-1.28 5.84-3.88 0-6.04-13.12-2.84-13.12-10.84 0-4.04 4.04-5.6 7.68-5.6 2.08 0 5.28.72 6.88 2.32a1.118 1.118 0 0 1 .359.76 1.296 1.296 0 0 1-1.24 1.2 1.062 1.062 0 0 1-.76-.32 7.994 7.994 0 0 0-5.238-1.68c-3.52 0-5.398 1.36-5.398 3.32 0 5.6 13.117 2.64 13.117 10.84 0 4.56-4 6.158-8.12 6.158zm45.237-20.517l-6.518 18.797c-.28.76-.64.96-1.16.96-.68 0-.88-.24-1.12-.96l-5.238-15.597-5.24 15.597c-.28.76-.64.96-1.158.96a1.169 1.169 0 0 1-1.121-.96l-6.48-18.797a1.73 1.73 0 0 1-.08-.439 1.137 1.137 0 0 1 1.16-1.04 1.037 1.037 0 0 1 1.039.76l5.48 15.838 5.238-15.638c.24-.76.48-.96 1.16-.96.48 0 .88.16 1.12.96l5.32 15.638 5.398-15.838a1.037 1.037 0 0 1 1.039-.76 1.164 1.164 0 0 1 1.24 1.08 1.151 1.151 0 0 1-.08.399zm23.2 19.757h-.04a4.141 4.141 0 0 1-3.959-3.119 9.073 9.073 0 0 1-7.758 3.799c-6.52 0-10.04-5.358-10.04-11.317 0-6.04 3.6-11.278 10.04-11.278a9.142 9.142 0 0 1 7.758 3.76v-1.96a1.127 1.127 0 0 1 1.16-1.12 1.091 1.091 0 0 1 1.119 1.12v16.117c0 2.56 2.88.96 2.88 2.88a1.101 1.101 0 0 1-1.16 1.119zm-11.758-19.637c-4.72 0-7.76 3.8-7.76 9s3.04 9.038 7.76 9.038c4.758 0 7.758-3.84 7.758-9.038s-3-9-7.758-9zm32.2 0l-10.84 25.636c-.8 1.88-2.44 2.4-4.28 2.4h-1.76a1.14 1.14 0 0 1 0-2.279h1.76c.88 0 1.8-.04 2.16-.96l2.28-5.438-8.277-19.357a1.268 1.268 0 0 1-.08-.52 1.118 1.118 0 0 1 1.158-1.08 1.026 1.026 0 0 1 1 .68l7.44 17.357 7.36-17.357a1.042 1.042 0 0 1 1.039-.68 1.084 1.084 0 0 1 1.119 1.08 1.297 1.297 0 0 1-.078.52z" class="U"/></g><g class="b"><path d="M603.763 337.978l.718-.538h4.25q.658 0 .6.6v37.828q-.12.66.54.6h7.78q.658-.12.538.54v2.933c.04.44-.14.618-.538.54h-21.2c-.44.08-.64-.1-.6-.54v-2.933q-.06-.658.6-.54h8.08q.598.062.538-.6v-31.902q-.06-.72-.6-.12a26.257 26.257 0 0 1-8.2 4.788q-.48.24-.538-.3v-3.053a.58.58 0 0 1 .419-.539 15.047 15.047 0 0 0 7.602-6.764h0zm27.597 39.745a3.488 3.488 0 0 1-3.591 3.711q-3.353-.24-3.592-3.7a3.506 3.506 0 0 1 3.592-3.651 3.461 3.461 0 0 1 3.591 3.651h0zm28.85-34.478a77.928 77.928 0 0 0-8.021 18.017 79.051 79.051 0 0 0-2.992 18.795q.12.778-.6.658h-3.412q-.66-.06-.54-.658a76.972 76.972 0 0 1 3.353-19.034 79.065 79.065 0 0 1 8.2-18.436c.36-.56.338-.838-.06-.838h-18.436q-.66.12-.538-.6v-3.173q-.122-.658.538-.538h22.207q.658-.12.54.538v4.43l-.24.838z"/><use xlink:href="#M"/><path d="M713.23 380.476a1.707 1.707 0 0 1-1.544-1.03L704.65 364.9l-4.935 6.18v7.595a1.846 1.846 0 0 1-3.69 0V351.73a1.846 1.846 0 0 1 3.69 0v13.47l11.714-14.546a1.638 1.638 0 0 1 1.33-.729 1.944 1.944 0 0 1 1.974 1.845 1.77 1.77 0 0 1-.472 1.158l-7.037 8.796 7.724 16.1a1.697 1.697 0 0 1 .214.858 1.895 1.895 0 0 1-1.931 1.802zm15.868.73c-9.44 0-12.486-7.937-12.486-16.005 0-8.28 3.262-16.047 12.486-16.047a10.977 10.977 0 0 1 9.525 4.677 1.826 1.826 0 0 1 .387 1.072 2.056 2.056 0 0 1-2.06 1.846c-.772 0-.858-.344-1.545-1.116a7.485 7.485 0 0 0-6.308-2.789c-6.607 0-8.796 5.62-8.796 12.357 0 5.88 1.588 12.357 8.796 12.357 5.235 0 8.367-3.732 8.668-9.9h-3.862a1.789 1.789 0 0 1-1.888-1.846 1.767 1.767 0 0 1 1.802-1.845h5.88a1.802 1.802 0 0 1 1.888 1.888c-.172 8.024-3.4 15.36-12.486 15.36zm-624.876-22.892a7.8 7.8 0 0 0 5.881-2.649 9.297 9.297 0 0 0 2.195-6.333 10.482 10.482 0 0 0-2.584-7.366 9.094 9.094 0 0 0-6.719-2.584h-.775q-.647.064-.582-.646v-3.102q-.064-.7.582-.58h.387a8.644 8.644 0 0 0 6.332-2.521 9.114 9.114 0 0 0 2.455-6.591q-.387-6.848-6.72-7.236a6.626 6.626 0 0 0-4.588 1.744 8.03 8.03 0 0 0-2.391 5.104c0 .604-.217.862-.646.775h-3.5c-.516.087-.7-.13-.58-.646a12.841 12.841 0 0 1 3.682-8.206 11.543 11.543 0 0 1 16.283 0 12.043 12.043 0 0 1 3.361 8.464 11.438 11.438 0 0 1-2.197 6.979 12.271 12.271 0 0 1-4.523 3.748c-.346.216-.322.452.064.7a14.144 14.144 0 0 1 4.975 3.813q2.455 2.78 2.586 8.14a14.066 14.066 0 0 1-3.748 9.499 12.936 12.936 0 0 1-9.305 4.07 12.514 12.514 0 0 1-8.658-3.359q-3.62-3.36-3.94-9.37c-.088-.26.107-.43.582-.518h3.488c.473-.086.7.173.7.775q.58 7.56 7.883 7.884h0zm41.678-40.385a13.746 13.746 0 0 1 3.684 9.627v21.84a13.986 13.986 0 0 1-3.684 9.692 12.85 12.85 0 0 1-9.369 3.812 12.995 12.995 0 0 1-9.369-3.812 13.741 13.741 0 0 1-3.619-9.692v-21.84a13.507 13.507 0 0 1 3.619-9.627 12.655 12.655 0 0 1 9.369-3.812 12.519 12.519 0 0 1 9.369 3.813zm-17.512 9.627v21.84a9.751 9.751 0 0 0 2.197 6.461 8.27 8.27 0 0 0 11.889 0 9.566 9.566 0 0 0 2.262-6.461v-21.84a9.318 9.318 0 0 0-2.262-6.396 8.272 8.272 0 0 0-11.889 0 9.496 9.496 0 0 0-2.197 6.396h0zm56.21 34.052a1.888 1.888 0 0 1-1.937-1.937v-14.525a4.865 4.865 0 1 0-9.729-.046v14.525a1.887 1.887 0 0 1-1.984 1.982 1.862 1.862 0 0 1-1.936-1.937v-14.525a4.888 4.888 0 0 0-9.775-.046v14.525a1.922 1.922 0 0 1-2.029 1.982 1.888 1.888 0 0 1-1.937-1.937V339.06a2.023 2.023 0 0 1 3.689-1.106 8.886 8.886 0 0 1 5.119-1.614 8.727 8.727 0 0 1 6.869 3.274 8.641 8.641 0 0 1 6.826-3.274 8.808 8.808 0 0 1 8.854 8.762v14.525a1.922 1.922 0 0 1-2.029 1.982z"/></g><g class="W"><path d="M96.786 383.357L92.2 396.553c-.197.533-.45.674-.814.674-.477 0-.617-.168-.785-.674l-3.678-10.95-3.68 10.95c-.195.533-.45.674-.812.674a.821.821 0 0 1-.787-.674l-4.55-13.195a1.228 1.228 0 0 1-.055-.31.797.797 0 0 1 .813-.729.728.728 0 0 1 .73.533l3.848 11.118 3.678-10.978c.168-.533.336-.674.814-.674.336 0 .617.112.785.674l3.734 10.978 3.8-11.118a.726.726 0 0 1 .729-.533.817.817 0 0 1 .871.758.808.808 0 0 1-.057.281zm2.44-3.734a1.601 1.601 0 1 1 1.6-1.601 1.583 1.583 0 0 1-1.6 1.601zm0 17.604a.772.772 0 0 1-.814-.786v-13.336a.773.773 0 0 1 .814-.786.763.763 0 0 1 .785.786v13.336a.751.751 0 0 1-.785.786zm8.787 0h-.87c-2.22 0-3.312-1.095-3.312-3.285V383.92H102.4a.8.8 0 0 1 0-1.6h1.432v-4.296a.789.789 0 0 1 .814-.786.766.766 0 0 1 .785.786v4.296h2.584a.8.8 0 0 1 0 1.6h-2.584v10.023c0 1.376.393 1.685 1.713 1.685h.87a.8.8 0 0 1 0 1.601zm14.232 0a.79.79 0 0 1-.814-.786v-8.198a4.801 4.801 0 0 0-9.602 0v8.198a.801.801 0 0 1-1.602 0v-18.418a.801.801 0 0 1 1.602 0v5.98a6.235 6.235 0 0 1 4.801-2.162 6.453 6.453 0 0 1 6.4 6.401v8.198a.782.782 0 0 1-.785.786zm21.81 0a.789.789 0 0 1-.814-.786v-1.403a6.371 6.371 0 0 1-5.447 2.667c-4.52 0-7.047-3.706-7.047-7.946 0-4.2 2.527-7.917 7.047-7.917a6.419 6.419 0 0 1 5.447 2.64v-6.458a.8.8 0 0 1 1.6 0v18.418a.783.783 0 0 1-.785.786zm-6.262-13.785c-3.312 0-5.447 2.667-5.447 6.316s2.135 6.346 5.447 6.346c3.342 0 5.447-2.695 5.447-6.346s-2.105-6.316-5.447-6.316zm16.31.25a4.8 4.8 0 0 0-4.801 4.802v7.945a.8.8 0 0 1-1.6 0v-13.336a.8.8 0 0 1 1.6 0v1.15a6.41 6.41 0 0 1 4.801-2.162.8.8 0 1 1 0 1.6zm8.14 14.01c-4.52 0-7.047-3.706-7.047-7.946 0-4.2 2.527-7.917 7.047-7.917s7.047 3.706 7.047 7.917c0 4.24-2.527 7.946-7.047 7.946zm0-14.263c-3.312 0-5.447 2.667-5.447 6.316s2.135 6.346 5.447 6.346c3.342 0 5.447-2.695 5.447-6.346s-2.105-6.316-5.447-6.316zm21.277 13.786a.788.788 0 0 1-.812-.786v-8.198a4.802 4.802 0 0 0-9.604 0v8.198a.8.8 0 0 1-1.6 0v-13.336a.8.8 0 0 1 1.6 0v.898a6.405 6.405 0 0 1 11.203 4.239v8.198a.784.784 0 0 1-.787.786zm16.06-6.655h-11.652c.252 3.2 2.33 5.53 5.4 5.53a5.075 5.075 0 0 0 4.127-1.937.738.738 0 0 1 .674-.393.859.859 0 0 1 .871.758c0 .253 0 .3-.533.927a6.634 6.634 0 0 1-5.139 2.246c-4.52 0-7.047-3.706-7.047-7.946 0-4.2 2.527-7.917 7.047-7.917s7.047 3.734 7.047 7.917a.849.849 0 0 1-.785.814zm-6.262-7.13c-3.37 0-5.14 2.583-5.4 5.53h10.8c-.252-3.2-2.33-5.53-5.418-5.53z" class="V"/><use xlink:href="#N"/><path d="M70.5 215.77H56.702a1.437 1.437 0 0 1-1.459-1.392v-20.78a1.443 1.443 0 0 1 1.459-1.425H70.5a1.34 1.34 0 0 1 1.392 1.392 1.383 1.383 0 0 1-1.392 1.425H58.094v6.695h8.684a1.415 1.415 0 0 1 1.425 1.425 1.394 1.394 0 0 1-1.425 1.425h-8.684v8.418H70.5a1.365 1.365 0 0 1 1.392 1.425 1.34 1.34 0 0 1-1.392 1.392zm16.205 0H76.62a1.437 1.437 0 0 1-1.459-1.392v-20.78a1.426 1.426 0 0 1 2.851-.033v19.388h8.684a1.409 1.409 0 0 1 0 2.817z"/><use xlink:href="#O"/><path d="M114.036 194.028l-6.96 20.614a1.505 1.505 0 0 1-1.426 1.127 1.561 1.561 0 0 1-1.392-1.127l-6.993-20.614a1.415 1.415 0 0 1 2.685-.895l5.7 16.803 5.734-16.803a1.318 1.318 0 0 1 1.292-.961 1.414 1.414 0 0 1 1.491 1.359 1.025 1.025 0 0 1-.132.497zm17.73 21.742H117.98a1.437 1.437 0 0 1-1.459-1.392v-20.78a1.443 1.443 0 0 1 1.459-1.425h13.787a1.34 1.34 0 0 1 1.392 1.392 1.383 1.383 0 0 1-1.392 1.425H119.37v6.695h8.684a1.415 1.415 0 0 1 1.425 1.425 1.394 1.394 0 0 1-1.425 1.425h-8.684v8.418h12.396a1.365 1.365 0 0 1 1.392 1.425 1.34 1.34 0 0 1-1.392 1.392zm19.785.032a1.421 1.421 0 0 1-1.094-.597l-6.894-9.645h-4.275v8.783a1.382 1.382 0 0 1-1.458 1.425 1.357 1.357 0 0 1-1.393-1.392v-20.78a1.377 1.377 0 0 1 1.393-1.425h8.583a6.691 6.691 0 0 1 .563 13.356l5.8 7.987a1.299 1.299 0 0 1 .299.862 1.525 1.525 0 0 1-1.524 1.425zm-5.17-20.813h-7.093v7.755h7.06a3.878 3.878 0 0 0 .033-7.755zm24.788-.73l-6.562 12.23v7.854a1.382 1.382 0 0 1-1.459 1.425 1.337 1.337 0 0 1-1.392-1.392v-7.888l-6.562-12.263a1.247 1.247 0 0 1-.199-.696 1.517 1.517 0 0 1 1.491-1.425 1.354 1.354 0 0 1 1.193.795l5.468 10.208 5.535-10.208a1.34 1.34 0 0 1 1.193-.729 1.466 1.466 0 0 1 1.491 1.392 1.182 1.182 0 0 1-.199.696zm23.466.73h-5.502v19.388a1.339 1.339 0 0 1-1.392 1.392 1.384 1.384 0 0 1-1.426-1.392V195h-5.435a1.4 1.4 0 0 1-1.458-1.425 1.384 1.384 0 0 1 1.426-1.392h13.787a1.409 1.409 0 1 1 0 2.817z"/><use xlink:href="#O" x="107.608"/><path d="M226.186 215.802a1.365 1.365 0 0 1-1.392-1.425v-15.245l-6.43 11.998a1.451 1.451 0 0 1-1.326.895 1.579 1.579 0 0 1-1.325-.895l-6.396-11.932v15.18a1.382 1.382 0 0 1-1.458 1.425 1.366 1.366 0 0 1-1.393-1.425v-20.714a1.395 1.395 0 0 1 1.524-1.491 1.27 1.27 0 0 1 1.193.829l7.855 14.616L224.926 193a1.273 1.273 0 0 1 1.293-.829 1.372 1.372 0 0 1 1.425 1.491v20.714a1.381 1.381 0 0 1-1.458 1.425z"/><use xlink:href="#P"/><path d="M51.5 538.39a8.488 8.488 0 0 1-7.391 3.612c-7.125 0-9.645-5.9-9.645-12.362 0-6.495 2.52-12.395 9.645-12.395a8.392 8.392 0 0 1 7.357 3.612 1.275 1.275 0 0 1 .299.828 1.437 1.437 0 0 1-1.458 1.393 1.385 1.385 0 0 1-1.127-.597 5.608 5.608 0 0 0-5.071-2.387c-4.706 0-6.794 3.48-6.794 9.545s2.088 9.545 6.794 9.545a5.699 5.699 0 0 0 5.071-2.419 1.339 1.339 0 0 1 1.127-.63 1.394 1.394 0 0 1 1.192 2.254z"/><use xlink:href="#Q"/><path d="M90.042 541.473a1.42 1.42 0 0 1-1.094-.597l-6.894-9.645H77.78v8.783a1.381 1.381 0 0 1-1.458 1.425 1.357 1.357 0 0 1-1.393-1.392v-20.78a1.376 1.376 0 0 1 1.393-1.425h8.583a6.691 6.691 0 0 1 .563 13.356l5.8 7.986a1.301 1.301 0 0 1 .299.862 1.525 1.525 0 0 1-1.524 1.425zm-5.17-20.813H77.78v7.756h7.06a3.878 3.878 0 0 0 .033-7.756zm25.088 20.813a1.42 1.42 0 0 1-1.094-.597l-6.894-9.645h-4.275v8.783a1.381 1.381 0 0 1-1.458 1.425 1.357 1.357 0 0 1-1.393-1.392v-20.78a1.376 1.376 0 0 1 1.393-1.425h8.583a6.691 6.691 0 0 1 .563 13.356l5.8 7.986a1.301 1.301 0 0 1 .299.862 1.525 1.525 0 0 1-1.524 1.425zm-5.17-20.813h-7.093v7.756h7.06a3.878 3.878 0 0 0 .033-7.756zM130 541.44h-13.787a1.437 1.437 0 0 1-1.459-1.392v-20.78a1.443 1.443 0 0 1 1.459-1.425H130a1.34 1.34 0 0 1 1.392 1.392 1.383 1.383 0 0 1-1.392 1.425h-12.396v6.695h8.684a1.414 1.414 0 0 1 1.425 1.425 1.393 1.393 0 0 1-1.425 1.425h-8.684v8.42H130a1.364 1.364 0 0 1 1.392 1.425 1.34 1.34 0 0 1-1.392 1.392zm19.852 0a1.406 1.406 0 0 1-1.193-.729l-11.136-16.737v16.04a1.381 1.381 0 0 1-1.458 1.425 1.357 1.357 0 0 1-1.393-1.392v-20.78a1.4 1.4 0 0 1 1.459-1.425 1.367 1.367 0 0 1 1.192.695l11.136 16.737v-16.008a1.426 1.426 0 0 1 2.851-.033v20.78a1.42 1.42 0 0 1-1.458 1.425zm18.625-20.78h-5.502v19.4a1.339 1.339 0 0 1-1.392 1.392 1.384 1.384 0 0 1-1.426-1.392v-19.4h-5.436a1.399 1.399 0 0 1-1.458-1.425 1.384 1.384 0 0 1 1.426-1.392h13.787a1.408 1.408 0 1 1 0 2.816z"/><use xlink:href="#Q" x="124.743"/><path d="M206.4 542.003a12.473 12.473 0 0 1-7.689-2.751 1.325 1.325 0 0 1-.464-1.027 1.436 1.436 0 0 1 1.425-1.425c.497 0 .663.166 1.26.63a8.974 8.974 0 0 0 5.469 1.756c3.943 0 5.667-1.425 5.667-3.877 0-6.894-13.224-2.983-13.224-11.998 0-4.043 3.413-6.064 7.788-6.064 2.287 0 5.568.895 7.192 2.817a1.306 1.306 0 0 1 .364.895 1.544 1.544 0 0 1-1.425 1.491c-.497 0-.763-.232-1.326-.73a7.283 7.283 0 0 0-4.806-1.624c-3.58 0-4.938 1.426-4.938 3.215 0 6.198 13.225 2.52 13.225 11.998 0 4.938-4.144 6.694-8.518 6.694zm27.806-.563a1.357 1.357 0 0 1-1.26-.861l-1.756-4.3h-11.037l-1.8 4.3a1.348 1.348 0 0 1-1.227.861 1.464 1.464 0 0 1-1.491-1.392 1.088 1.088 0 0 1 .133-.563l8.518-20.714a1.448 1.448 0 0 1 1.358-1.027 1.505 1.505 0 0 1 1.358 1.027l8.55 20.714a1.546 1.546 0 0 1 .1.563 1.415 1.415 0 0 1-1.458 1.392zm-8.55-18.56l-4.342 10.54h8.684zm20.44 19.123c-7.3 0-9.645-6.13-9.645-12.362 0-6.395 2.52-12.395 9.645-12.395a8.478 8.478 0 0 1 7.357 3.612 1.412 1.412 0 0 1 .299.828 1.588 1.588 0 0 1-1.591 1.426c-.597 0-.663-.266-1.193-.862a5.782 5.782 0 0 0-4.872-2.154c-5.104 0-6.794 4.342-6.794 9.545 0 4.54 1.227 9.545 6.794 9.545 4.044 0 6.463-2.883 6.695-7.655h-2.983a1.382 1.382 0 0 1-1.458-1.425 1.365 1.365 0 0 1 1.392-1.426h4.54a1.392 1.392 0 0 1 1.458 1.459c-.133 6.197-2.618 11.864-9.645 11.864zm27.97-.563H260.28a1.437 1.437 0 0 1-1.459-1.392v-20.78a1.443 1.443 0 0 1 1.459-1.425h13.787a1.34 1.34 0 0 1 1.392 1.392 1.383 1.383 0 0 1-1.392 1.425h-12.395v6.695h8.684a1.414 1.414 0 0 1 1.425 1.425 1.393 1.393 0 0 1-1.425 1.425h-8.684v8.42h12.396a1.364 1.364 0 0 1 1.392 1.425 1.34 1.34 0 0 1-1.392 1.392zm308.464-325.638a1.365 1.365 0 0 1-1.392-1.425v-15.245l-6.43 11.998a1.451 1.451 0 0 1-1.326.895 1.579 1.579 0 0 1-1.325-.895l-6.396-11.932v15.18a1.382 1.382 0 0 1-1.458 1.425 1.366 1.366 0 0 1-1.393-1.425v-20.714a1.395 1.395 0 0 1 1.524-1.491 1.271 1.271 0 0 1 1.193.829l7.855 14.616 7.9-14.616a1.271 1.271 0 0 1 1.292-.829 1.372 1.372 0 0 1 1.425 1.491v20.714a1.381 1.381 0 0 1-1.458 1.425zm22.172-.032a1.358 1.358 0 0 1-1.26-.862l-1.756-4.308H590.65l-1.8 4.308a1.348 1.348 0 0 1-1.227.862 1.464 1.464 0 0 1-1.491-1.392 1.089 1.089 0 0 1 .133-.563l8.518-20.713a1.447 1.447 0 0 1 1.358-1.028 1.505 1.505 0 0 1 1.358 1.028l8.55 20.713a1.547 1.547 0 0 1 .1.563 1.415 1.415 0 0 1-1.458 1.392zm-8.55-18.56l-4.342 10.54h8.684zm25.85 18.592a1.3 1.3 0 0 1-1.126-.663l-5.8-9.114-5.767 9.114a1.339 1.339 0 0 1-1.126.663 1.495 1.495 0 0 1-1.492-1.425 1.818 1.818 0 0 1 .232-.795l6.53-10.208-5.768-9.08a1.344 1.344 0 0 1-.231-.729 1.553 1.553 0 0 1 1.524-1.458 1.309 1.309 0 0 1 1.127.696l5.037 7.92 5.005-7.92a1.308 1.308 0 0 1 1.127-.696 1.525 1.525 0 0 1 1.524 1.425 1.32 1.32 0 0 1-.266.762l-5.733 9.08 6.496 10.208a1.818 1.818 0 0 1 .232.762 1.53 1.53 0 0 1-1.525 1.458zm22.967-.032h-10.075a1.437 1.437 0 0 1-1.459-1.392v-20.78a1.426 1.426 0 0 1 2.851-.033v19.388h8.684a1.409 1.409 0 0 1 0 2.817zm12.825.563c-7.125 0-9.645-5.9-9.645-12.362 0-6.496 2.52-12.395 9.645-12.395 7.093 0 9.645 5.9 9.645 12.395 0 6.463-2.552 12.362-9.645 12.362zm0-21.907c-4.706 0-6.794 3.48-6.794 9.545s2.088 9.545 6.794 9.545c4.673 0 6.794-3.48 6.794-9.545s-2.12-9.545-6.794-9.545zM687.6 215.77a1.358 1.358 0 0 1-1.26-.862l-1.756-4.308h-11.037l-1.8 4.308a1.348 1.348 0 0 1-1.227.862 1.464 1.464 0 0 1-1.491-1.392 1.089 1.089 0 0 1 .133-.563l8.518-20.713a1.447 1.447 0 0 1 1.358-1.028 1.505 1.505 0 0 1 1.358 1.028l8.55 20.713a1.547 1.547 0 0 1 .1.563 1.415 1.415 0 0 1-1.458 1.392zm-8.55-18.56l-4.342 10.54h8.684zm20.437 18.56h-6.86a1.508 1.508 0 0 1-1.459-1.392v-20.78a1.488 1.488 0 0 1 1.459-1.425h6.86c6.827 0 9.08 5.634 9.08 11.766 0 6.164-2.254 11.832-9.08 11.832zm0-20.78h-5.47v17.963h5.47c4.275 0 6.23-3.15 6.23-9.015 0-5.767-1.955-8.95-6.23-8.95zm133 17.73a8.489 8.489 0 0 1-7.391 3.612c-7.125 0-9.645-5.9-9.645-12.362 0-6.496 2.52-12.395 9.645-12.395a8.392 8.392 0 0 1 7.357 3.613 1.275 1.275 0 0 1 .299.828 1.436 1.436 0 0 1-1.458 1.392 1.385 1.385 0 0 1-1.127-.596 5.606 5.606 0 0 0-5.071-2.387c-4.706 0-6.794 3.48-6.794 9.545s2.088 9.545 6.794 9.545a5.699 5.699 0 0 0 5.071-2.419 1.338 1.338 0 0 1 1.127-.63 1.394 1.394 0 0 1 1.192 2.254zm18.228 3.082a1.42 1.42 0 0 1-1.094-.597l-6.894-9.645h-4.275v8.783a1.382 1.382 0 0 1-1.458 1.425 1.357 1.357 0 0 1-1.393-1.392v-20.78a1.377 1.377 0 0 1 1.393-1.425h8.584a6.691 6.691 0 0 1 .563 13.356l5.8 7.987a1.303 1.303 0 0 1 .298.862 1.525 1.525 0 0 1-1.524 1.425zm-5.17-20.813h-7.093v7.755h7.06a3.878 3.878 0 0 0 .033-7.755zm18.095 21.377a8.303 8.303 0 0 1-8.318-8.319v-14.483a1.425 1.425 0 0 1 2.85 0v14.483a5.486 5.486 0 1 0 10.971 0v-14.45a1.408 1.408 0 1 1 2.816-.033v14.483a8.303 8.303 0 0 1-8.318 8.319zm16.272-.596H876.1a1.409 1.409 0 0 1 0-2.817h.497V195h-.497a1.409 1.409 0 0 1 0-2.817h3.812a1.409 1.409 0 1 1 0 2.817h-.497v17.963h.497a1.409 1.409 0 1 1 0 2.817zm11.07.563a12.473 12.473 0 0 1-7.689-2.751 1.326 1.326 0 0 1-.464-1.027 1.436 1.436 0 0 1 1.425-1.425c.497 0 .663.166 1.26.63a8.972 8.972 0 0 0 5.469 1.756c3.943 0 5.667-1.425 5.667-3.877 0-6.894-13.224-2.983-13.224-11.998 0-4.043 3.413-6.065 7.788-6.065 2.287 0 5.568.895 7.192 2.817a1.308 1.308 0 0 1 .364.895 1.544 1.544 0 0 1-1.425 1.492c-.497 0-.763-.232-1.326-.73a7.281 7.281 0 0 0-4.806-1.624c-3.58 0-4.937 1.425-4.937 3.215 0 6.198 13.224 2.52 13.224 11.998 0 4.938-4.144 6.695-8.518 6.695zm26.38-.563h-13.787a1.437 1.437 0 0 1-1.459-1.392v-20.78a1.443 1.443 0 0 1 1.459-1.425h13.787a1.34 1.34 0 0 1 1.392 1.392 1.383 1.383 0 0 1-1.392 1.425h-12.395v6.695h8.684a1.415 1.415 0 0 1 1.425 1.425 1.394 1.394 0 0 1-1.425 1.425h-8.684v8.418h12.395a1.365 1.365 0 0 1 1.392 1.425 1.34 1.34 0 0 1-1.392 1.392zm18.858.563a12.473 12.473 0 0 1-7.689-2.751 1.326 1.326 0 0 1-.464-1.027 1.436 1.436 0 0 1 1.425-1.425c.497 0 .663.166 1.26.63a8.972 8.972 0 0 0 5.469 1.756c3.943 0 5.667-1.425 5.667-3.877 0-6.894-13.224-2.983-13.224-11.998 0-4.043 3.413-6.065 7.788-6.065 2.287 0 5.568.895 7.192 2.817a1.308 1.308 0 0 1 .364.895 1.544 1.544 0 0 1-1.425 1.492c-.497 0-.763-.232-1.326-.73a7.281 7.281 0 0 0-4.806-1.624c-3.58 0-4.938 1.425-4.938 3.215 0 6.198 13.225 2.52 13.225 11.998 0 4.938-4.144 6.695-8.518 6.695zm21.077-10.773h-7.093v8.783a1.426 1.426 0 0 1-2.851.033v-20.78a1.377 1.377 0 0 1 1.393-1.425h8.584a6.695 6.695 0 0 1-.033 13.389zm0-10.572h-7.093v7.755h7.06a3.878 3.878 0 0 0 .033-7.755z"/><use xlink:href="#P" x="735.22"/><use xlink:href="#P" x="755.137"/><use xlink:href="#N" x="972.379"/></g><g class="b"><path d="M229.52 770.694a15.331 15.331 0 0 0 11.563-5.21 18.27 18.27 0 0 0 4.32-12.452q-.127-9.272-5.082-14.484-5.084-5.08-13.215-5.083h-1.524q-1.27.13-1.144-1.27v-6.1q-.13-1.396 1.144-1.144h.763q7.748-.125 12.45-4.955 4.7-4.7 4.83-12.96-.763-13.466-13.215-14.23a13.037 13.037 0 0 0-9.021 3.431q-3.812 3.43-4.7 10.038 0 1.78-1.27 1.524h-6.86q-1.525.256-1.144-1.27a25.26 25.26 0 0 1 7.242-16.137 22.699 22.699 0 0 1 32.02 0q6.352 6.48 6.607 16.645-.256 8.643-4.32 13.723a24.118 24.118 0 0 1-8.895 7.37q-1.018.637.128 1.397a27.849 27.849 0 0 1 9.783 7.496q4.827 5.465 5.082 16a27.648 27.648 0 0 1-7.369 18.679 25.444 25.444 0 0 1-18.297 8.004 24.612 24.612 0 0 1-17.026-6.606q-7.116-6.605-7.75-18.424c-.17-.5.2-.846 1.144-1.017h6.86q1.396-.253 1.397 1.524 1.144 14.867 15.5 15.502h0zm42.83-14.358q1.015 13.723 15.247 14.358a14.387 14.387 0 0 0 10.8-4.32q4.065-4.318 4.193-12.07V742.74q0-6.86-3.685-11.18-3.812-4.446-10.673-4.574-8.262.256-12.58 4.32a1.45 1.45 0 0 1-1.652.635h-6.226q-1.4.256-1.144-1.144v-43.582q-.256-1.396 1.144-1.144h39.643q1.397-.252 1.144 1.144v6.48q.253 1.4-1.144 1.27h-31.003q-1.27-.253-1.144 1.144v25.158c0 .762.382.933 1.144.508a26.799 26.799 0 0 1 12.579-2.922q10.292.127 16.52 6.48 6.352 6.356 6.48 17.407v11.563q-.256 11.436-7.242 18.17a25.187 25.187 0 0 1-17.534 6.988q-10.673-.256-17.026-6.734-6.48-6.48-6.988-16.77-.256-1.27 1.144-1.144h6.607q1.396-.126 1.397 1.524h0zm59.948-70.268a9.597 9.597 0 0 1 2.519 6.667v4.593a9.592 9.592 0 0 1-2.519 6.666 8.766 8.766 0 0 1-6.519 2.667 8.676 8.676 0 0 1-6.445-2.667 9.426 9.426 0 0 1-2.593-6.666v-4.593a9.43 9.43 0 0 1 2.593-6.667 8.683 8.683 0 0 1 6.445-2.667 8.773 8.773 0 0 1 6.519 2.667zm-10 51.854h-3.26c-.593.048-.74-.197-.444-.74l30.52-51.928c.196-.593.52-.84.963-.74h3.26q.814-.073.444.666l-30.593 51.928c-.198.593-.494.863-.9.815zm-1.407-40.816q.296 5.186 4.9 5.26 4.667-.073 4.9-5.26v-4.148q-.223-5.184-4.9-5.26-4.594.075-4.9 5.26zm19.186 39.26a9.331 9.331 0 0 1-2.592-6.593v-4.52a9.329 9.329 0 0 1 2.592-6.593 8.82 8.82 0 0 1 6.445-2.593 8.912 8.912 0 0 1 6.519 2.593 9.498 9.498 0 0 1 2.519 6.593v4.52a9.5 9.5 0 0 1-2.519 6.593 8.776 8.776 0 0 1-6.519 2.666 8.686 8.686 0 0 1-6.445-2.666zm11.334-6.815v-4.074q-.223-5.036-4.9-5.1-4.594.075-4.9 5.1v4.074q.296 5.1 4.9 5.186 4.667-.073 4.9-5.186h0zm225.505-87.754q-.114 1.128 1.014 1.014h32.887q1.238-.224 1.014 1.014v6.082c.15.827-.188 1.2-1.014 1.126h-41.334c-.827.074-1.165-.3-1.014-1.126v-6.194q.563-15.205 8.785-23.1a210.184 210.184 0 0 1 16.33-14.19 21.282 21.282 0 0 0 8.897-16.218 15.196 15.196 0 0 0-3.379-9.911 11.509 11.509 0 0 0-9.122-4.055q-6.42.114-9.9 4.28a16.251 16.251 0 0 0-3.717 10.136q.1 1.58-1.238 1.352h-6.082q-1.24.227-1.014-1.014a24.849 24.849 0 0 1 6.42-15.88q5.854-6.645 15.654-6.87a20.26 20.26 0 0 1 14.98 6.194q5.855 5.97 6.082 15.43-.677 12.277-8.785 19.033l-16.33 13.628q-8.222 6.757-9.122 19.26h0zm55.304 0q-.114 1.128 1.014 1.014h32.887q1.238-.224 1.014 1.014v6.082c.15.827-.188 1.2-1.014 1.126h-41.334c-.827.074-1.165-.3-1.014-1.126v-6.194q.563-15.205 8.785-23.1a210.182 210.182 0 0 1 16.33-14.19 21.282 21.282 0 0 0 8.897-16.218 15.196 15.196 0 0 0-3.379-9.911 11.509 11.509 0 0 0-9.122-4.055q-6.42.114-9.9 4.28a16.251 16.251 0 0 0-3.717 10.136q.1 1.58-1.238 1.352h-6.082q-1.24.227-1.014-1.014a24.849 24.849 0 0 1 6.42-15.88q5.854-6.645 15.654-6.87a20.26 20.26 0 0 1 14.98 6.194q5.855 5.97 6.082 15.43-.677 12.277-8.785 19.033l-16.33 13.628q-8.222 6.757-9.122 19.26h0zm60.596 7.096q-.45 9.798-5.067 14.303-4.73 4.393-8.897 4.393c-.603 0-.864-.376-.8-1.126v-3.04q-.113-1.014.9-1.014a9.383 9.383 0 0 0 5.293-3.266 10.98 10.98 0 0 0 2.479-6.983c-.15-.376-.338-.526-.563-.45l-2.14.338q-4.957-.114-5.52-6.082.56-6.643 6.645-6.87 4.73.338 6.42 3.717 1.124 1.58 1.238 6.082h0zm19.15-16.33q.9 12.164 13.516 12.727a12.752 12.752 0 0 0 9.572-3.829q3.604-3.828 3.717-10.7V620.5a14.744 14.744 0 0 0-3.266-9.911q-3.38-3.94-9.46-4.055-7.323.227-11.15 3.83a1.285 1.285 0 0 1-1.464.563h-5.52q-1.24.227-1.014-1.014v-38.63q-.226-1.238 1.014-1.014h35.14q1.238-.224 1.014 1.014v5.743q.224 1.24-1.014 1.127h-27.48q-1.128-.224-1.014 1.014v22.3q0 1.014 1.014.45a23.765 23.765 0 0 1 11.149-2.591q9.123.114 14.642 5.744 5.63 5.634 5.744 15.43v10.25q-.227 10.137-6.42 16.105a22.325 22.325 0 0 1-15.542 6.194q-9.46-.227-15.092-5.97-5.744-5.745-6.194-14.867-.227-1.124 1.014-1.014h5.856q1.238-.1 1.238 1.352h0z"/><use xlink:href="#R"/><use xlink:href="#R" x="55.305"/><path d="M899.76 614.217l-11.977 11.977 12.46 19.533a4.419 4.419 0 0 1 .563 1.93 3.624 3.624 0 0 1-3.617 3.456 3.252 3.252 0 0 1-2.732-1.607L882.72 631.26l-6.833 6.833v9.565a3.457 3.457 0 0 1-6.913 0v-50.48a3.243 3.243 0 0 1 3.377-3.376 3.285 3.285 0 0 1 3.536 3.376v31.188l18.97-18.97a3.45 3.45 0 0 1 2.572-1.045 3.593 3.593 0 0 1 3.456 3.457 3.537 3.537 0 0 1-1.125 2.411zm60.045 36.815a3.292 3.292 0 0 1-3.376-3.376v-25.32a8.481 8.481 0 1 0-16.961-.08v25.32a3.287 3.287 0 0 1-3.456 3.456 3.247 3.247 0 0 1-3.376-3.376v-25.32a8.521 8.521 0 0 0-17.042-.08v25.32a3.35 3.35 0 0 1-3.536 3.456 3.292 3.292 0 0 1-3.377-3.376v-35.932a3.526 3.526 0 0 1 6.431-1.929 15.487 15.487 0 0 1 8.923-2.813 15.218 15.218 0 0 1 11.978 5.707 15.057 15.057 0 0 1 11.896-5.707 15.352 15.352 0 0 1 15.434 15.272v25.32a3.351 3.351 0 0 1-3.537 3.456zm25.7-26.766h-14.34c-1.36 0-2.156-.797-2.156-1.78a2.268 2.268 0 0 1 .422-1.266l12.793-19.447a5.632 5.632 0 0 0 .891-2.812 4.744 4.744 0 0 0-4.827-4.873c-2.483 0-4.592 2.108-5.4 3.608a1.75 1.75 0 0 1-1.594.984 2.024 2.024 0 0 1-2.062-1.922c0-1.452 3.327-6.7 9.044-6.7a8.829 8.829 0 0 1 8.81 8.81 9.143 9.143 0 0 1-1.593 5.062l-10.73 16.354h10.73a1.993 1.993 0 1 1 0 3.983z"/></g><g class="W"><path d="M579.714 701.156a9.291 9.291 0 0 1-7.159 3.039c-6.438 0-10.038-5.28-10.038-11.318 0-6 3.6-11.277 10.038-11.277a9.288 9.288 0 0 1 7.159 3.039 1.063 1.063 0 0 1 .319.76 1.253 1.253 0 0 1-1.159 1.2 1.176 1.176 0 0 1-.84-.4 7.053 7.053 0 0 0-5.479-2.319c-4.72 0-7.76 3.8-7.76 8.998s3.04 9.04 7.76 9.04a7.19 7.19 0 0 0 5.479-2.319 1.134 1.134 0 0 1 1.999.76 1.15 1.15 0 0 1-.319.8zm12.64 3.04c-6.438 0-10.038-5.28-10.038-11.318 0-6 3.6-11.277 10.038-11.277s10.038 5.278 10.038 11.277c0 6.04-3.6 11.318-10.038 11.318zm0-20.316c-4.72 0-7.76 3.8-7.76 8.998s3.04 9.04 7.76 9.04c4.76 0 7.76-3.84 7.76-9.04s-3-8.998-7.76-8.998zm29.518-.04l-7.88 18.757a1.314 1.314 0 0 1-1.12.92 1.362 1.362 0 0 1-1.159-.92l-7.88-18.717a1.27 1.27 0 0 1-.08-.52 1.118 1.118 0 0 1 1.159-1.08 1.027 1.027 0 0 1 1 .68l6.96 16.438 6.92-16.437a1.141 1.141 0 0 1 2.199.36.962.962 0 0 1-.119.52z" class="U"/><use xlink:href="#S" class="U"/><use xlink:href="#T" class="U"/><use xlink:href="#S" x="32.991" class="U"/><path d="M697.623 703.516a1.124 1.124 0 0 1-1.16-1.12v-2a9.074 9.074 0 0 1-7.759 3.799c-6.438 0-10.038-5.28-10.038-11.318 0-6 3.6-11.277 10.038-11.277a9.144 9.144 0 0 1 7.759 3.759v-9.198a1.14 1.14 0 0 1 2.279 0v26.235a1.115 1.115 0 0 1-1.119 1.12zm-8.92-19.637c-4.72 0-7.76 3.8-7.76 8.998s3.04 9.04 7.76 9.04c4.76 0 7.76-3.84 7.76-9.04s-3-8.998-7.76-8.998z" class="U"/><use xlink:href="#U" class="U"/><use xlink:href="#T" x="88.511" class="U"/><use xlink:href="#S" x="121.502" class="U"/><use xlink:href="#U" x="57.073" class="U"/><path d="M606.925 411.464h-.87c-2.22 0-3.312-1.095-3.312-3.285v-10.023H601.3a.8.8 0 0 1 0-1.601h1.434v-4.295a.788.788 0 0 1 .813-.786.766.766 0 0 1 .787.786v4.295h2.582a.8.8 0 0 1 0 1.601h-2.582v10.023c0 1.375.393 1.685 1.713 1.685h.87a.8.8 0 0 1 0 1.6zm15.357 0a.79.79 0 0 1-.814-.786v-8.198a4.801 4.801 0 1 0-9.602 0v8.198a.801.801 0 0 1-1.602 0V392.26a.801.801 0 0 1 1.602 0v5.98a6.233 6.233 0 0 1 4.801-2.162 6.453 6.453 0 0 1 6.4 6.401v8.198a.782.782 0 0 1-.785.786zM633.2 397.93a4.799 4.799 0 0 0-4.801 4.801v7.946a.801.801 0 0 1-1.602 0V397.34a.801.801 0 0 1 1.602 0v1.15a6.41 6.41 0 0 1 4.801-2.162.8.8 0 1 1 0 1.601zm14.873 6.87H636.42c.254 3.2 2.33 5.53 5.4 5.53a5.07 5.07 0 0 0 4.127-1.937.738.738 0 0 1 .674-.394.859.859 0 0 1 .871.758c0 .252 0 .3-.533.926a6.626 6.626 0 0 1-5.139 2.246c-4.52 0-7.047-3.706-7.047-7.945 0-4.2 2.527-7.917 7.047-7.917s7.047 3.734 7.047 7.917a.85.85 0 0 1-.785.814zm-6.262-7.132c-3.37 0-5.137 2.583-5.4 5.53h10.8c-.254-3.2-2.33-5.53-5.42-5.53zm23.05 7.132h-11.652c.254 3.2 2.33 5.53 5.4 5.53a5.07 5.07 0 0 0 4.127-1.937.738.738 0 0 1 .674-.394.859.859 0 0 1 .871.758c0 .252 0 .3-.533.926a6.626 6.626 0 0 1-5.139 2.246c-4.52 0-7.047-3.706-7.047-7.945 0-4.2 2.527-7.917 7.047-7.917s7.047 3.734 7.047 7.917a.85.85 0 0 1-.785.814zm-6.262-7.132c-3.37 0-5.137 2.583-5.4 5.53h10.8c-.254-3.2-2.33-5.53-5.42-5.53zm29.024 13.796a.788.788 0 0 1-.812-.786v-.898a6.24 6.24 0 0 1-4.803 2.162 6.472 6.472 0 0 1-6.4-6.401v-8.198a.8.8 0 0 1 1.6 0v8.198a4.802 4.802 0 0 0 9.604 0v-8.198a.8.8 0 0 1 1.6 0v13.336a.783.783 0 0 1-.787.786zm16.788 0a.79.79 0 0 1-.814-.786v-8.198a4.801 4.801 0 1 0-9.602 0v8.198a.801.801 0 0 1-1.602 0V397.34a.801.801 0 0 1 1.602 0v.898a6.404 6.404 0 0 1 11.201 4.24v8.198a.782.782 0 0 1-.785.786zm5.33-17.604a1.6 1.6 0 1 1 1.602-1.6 1.581 1.581 0 0 1-1.602 1.6zm0 17.604a.772.772 0 0 1-.814-.786V397.34a.775.775 0 0 1 .814-.786.766.766 0 0 1 .787.786v13.336a.751.751 0 0 1-.787.786zm9.9 0h-.87c-2.217 0-3.312-1.095-3.312-3.285v-10.023h-1.432a.8.8 0 0 1 0-1.601h1.432v-4.295a.79.79 0 0 1 .814-.786.766.766 0 0 1 .785.786v4.295h2.584a.8.8 0 0 1 0 1.601h-2.584v10.023c0 1.375.395 1.685 1.713 1.685h.87a.8.8 0 0 1 0 1.6zm8.027.534c-1.684 0-4.52-.6-5.502-2.218a.674.674 0 0 1-.113-.421.767.767 0 0 1 1.434-.449c1 1.235 2.807 1.488 4.182 1.488 2.725 0 4.1-.898 4.1-2.724 0-4.24-9.2-1.993-9.2-7.608 0-2.836 2.836-3.93 5.4-3.93a7.608 7.608 0 0 1 4.83 1.628.786.786 0 0 1 .252.534.911.911 0 0 1-.871.842.744.744 0 0 1-.533-.225 5.611 5.611 0 0 0-3.678-1.179c-2.47 0-3.8.954-3.8 2.33 0 3.93 9.2 1.853 9.2 7.608 0 3.2-2.8 4.324-5.7 4.324z" class="V"/><use xlink:href="#V" class="V"/><path d="M637.534 416.665h-.87a1.24 1.24 0 0 0-1.234 1.208v2.302h2.105a.764.764 0 0 1 .785.786.788.788 0 0 1-.785.814h-2.105v12.522a.766.766 0 0 1-.787.786.749.749 0 0 1-.785-.786v-12.522h-1.937a.8.8 0 0 1 0-1.601h1.938v-2.302a2.786 2.786 0 0 1 2.779-2.78h.898a.797.797 0 0 1 .814.814.753.753 0 0 1-.814.758zm17.432 18.895a6.371 6.371 0 0 1-5.447-2.667v1.404a.8.8 0 0 1-1.6 0V415.88a.8.8 0 0 1 1.6 0v6.458a6.42 6.42 0 0 1 5.447-2.639c4.52 0 7.047 3.706 7.047 7.917 0 4.24-2.527 7.945-7.047 7.945zm0-14.263c-3.342 0-5.447 2.667-5.447 6.317s2.105 6.345 5.447 6.345 5.447-2.695 5.447-6.345-2.105-6.317-5.447-6.317zm13.164 13.953a2.943 2.943 0 0 1-2.779-2.976V415.88a.8.8 0 0 1 1.6 0v16.396c0 1.797 1.994.758 1.994 2.02a.906.906 0 0 1-.814.955z" class="V"/><use xlink:href="#V" x="55.888" class="V"/><path d="M694.685 435.56c-4.52 0-7.047-3.706-7.047-7.945 0-4.2 2.525-7.917 7.047-7.917s7.047 3.706 7.047 7.917c0 4.24-2.527 7.945-7.047 7.945zm0-14.263c-3.312 0-5.447 2.667-5.447 6.317s2.135 6.345 5.447 6.345c3.34 0 5.447-2.695 5.447-6.345s-2.107-6.317-5.447-6.317zm23.045 13.786a.788.788 0 0 1-.812-.786v-1.404a6.374 6.374 0 0 1-5.447 2.667c-4.52 0-7.047-3.706-7.047-7.945 0-4.2 2.525-7.917 7.047-7.917a6.422 6.422 0 0 1 5.447 2.639v-6.458a.8.8 0 0 1 1.6 0v18.418a.783.783 0 0 1-.787.786zm-6.26-13.786c-3.312 0-5.447 2.667-5.447 6.317s2.135 6.345 5.447 6.345c3.34 0 5.447-2.695 5.447-6.345s-2.107-6.317-5.447-6.317z" class="V"/></g><g class="b"><path d="M583.56 738.148a11.781 11.781 0 0 1 3.232 8.2q-.36 7.422-5.147 9.816-.3.24.06.6a11.213 11.213 0 0 1 5.866 10.535 12.513 12.513 0 0 1-3.412 8.858 11.862 11.862 0 0 1-8.439 3.472 11.649 11.649 0 0 1-8.38-3.472 12.504 12.504 0 0 1-3.412-8.858 11.212 11.212 0 0 1 5.866-10.535q.36-.36.06-.6-4.79-2.394-5.147-9.816a11.772 11.772 0 0 1 3.232-8.2 10.649 10.649 0 0 1 15.622 0zm-7.84 37.47a7.121 7.121 0 0 0 5.446-2.334 8.415 8.415 0 0 0 2.035-5.926 9.753 9.753 0 0 0-1.975-6.404 7.222 7.222 0 0 0-10.954 0 9.753 9.753 0 0 0-1.975 6.404 8.414 8.414 0 0 0 2.034 5.926 7.054 7.054 0 0 0 5.388 2.334h0zm6.704-29.21a8.28 8.28 0 0 0-1.796-5.388 6.433 6.433 0 0 0-9.816 0 8.462 8.462 0 0 0-1.736 5.388q.18 7.54 6.645 7.96 6.523-.42 6.704-7.96z"/><use xlink:href="#M" x="-73.539" y="398.135"/><path d="M640.3 757.625l-6.827 6.827 7.103 11.135a2.528 2.528 0 0 1 .32 1.1 2.066 2.066 0 0 1-2.062 1.971 1.854 1.854 0 0 1-1.558-.917l-6.69-10.4-3.896 3.896v5.452a1.971 1.971 0 0 1-3.94 0V747.9a1.849 1.849 0 0 1 1.925-1.924 1.873 1.873 0 0 1 2.016 1.924v17.78l10.814-10.814a1.966 1.966 0 0 1 1.466-.596 2.049 2.049 0 0 1 1.971 1.971 2.021 2.021 0 0 1-.642 1.375z"/><use xlink:href="#F" x="-292.658" y="329.076"/></g><g class="W"><path d="M567.5 793.182h-.87a1.241 1.241 0 0 0-1.235 1.207v2.302h2.106a.764.764 0 0 1 .785.786.789.789 0 0 1-.785.814h-2.106v12.522a.766.766 0 0 1-.786.786.75.75 0 0 1-.786-.786V798.29h-1.937a.8.8 0 0 1 0-1.601h1.937v-2.302a2.786 2.786 0 0 1 2.78-2.779h.898a.796.796 0 0 1 .813.813.752.752 0 0 1-.813.759z" class="V"/><use xlink:href="#W" class="V"/><use xlink:href="#X" class="V"/><path d="M613.64 811.6a.766.766 0 0 1-.785-.786v-9.434a3.58 3.58 0 0 0-7.16-.028v9.462a.766.766 0 0 1-.786.786.789.789 0 0 1-.813-.786v-9.434a3.566 3.566 0 0 0-7.132-.028v9.462a.8.8 0 0 1-1.601 0v-13.337a.8.8 0 0 1 1.601 0v.17a5.103 5.103 0 0 1 3.565-1.432 5.208 5.208 0 0 1 4.38 2.386 5.183 5.183 0 0 1 9.546 2.752v9.462a.789.789 0 0 1-.814.786zm22.96 0a.789.789 0 0 1-.814-.786V809.4a6.371 6.371 0 0 1-5.447 2.667c-4.52 0-7.047-3.706-7.047-7.945 0-4.2 2.527-7.917 7.047-7.917a6.42 6.42 0 0 1 5.447 2.639v-6.457a.8.8 0 0 1 1.6 0v18.418a.783.783 0 0 1-.785.786zm-6.262-13.786c-3.312 0-5.446 2.668-5.446 6.317s2.134 6.346 5.446 6.346c3.342 0 5.447-2.695 5.447-6.346s-2.105-6.317-5.447-6.317z" class="V"/><use xlink:href="#Y" class="V"/><path d="M650.522 812.133c-1.686 0-4.52-.6-5.504-2.218a.685.685 0 0 1-.111-.422.766.766 0 0 1 1.432-.449c1.01 1.235 2.808 1.488 4.184 1.488 2.723 0 4.1-.898 4.1-2.724 0-4.24-9.21-1.993-9.21-7.608 0-2.836 2.836-3.93 5.39-3.93a7.608 7.608 0 0 1 4.829 1.629.786.786 0 0 1 .253.533.91.91 0 0 1-.87.842.743.743 0 0 1-.534-.225 5.614 5.614 0 0 0-3.678-1.179c-2.47 0-3.8.954-3.8 2.33 0 3.93 9.21 1.854 9.21 7.608 0 3.2-2.808 4.324-5.7 4.324z" class="V"/><use xlink:href="#Z" class="V"/><use xlink:href="#W" x="96.083" class="V"/><use xlink:href="#Y" x="34.414" class="V"/><path d="M687.293 812.076a6.369 6.369 0 0 1-5.446-2.667v1.404a.8.8 0 0 1-1.601 0v-18.418a.8.8 0 0 1 1.601 0v6.457a6.419 6.419 0 0 1 5.446-2.639c4.52 0 7.048 3.706 7.048 7.917 0 4.24-2.527 7.945-7.048 7.945zm0-14.263c-3.34 0-5.446 2.668-5.446 6.317s2.105 6.346 5.446 6.346 5.447-2.695 5.447-6.346-2.105-6.317-5.447-6.317zM708.88 811.6a.789.789 0 0 1-.814-.786v-.898a6.24 6.24 0 0 1-4.801 2.161 6.472 6.472 0 0 1-6.402-6.401v-8.198a.8.8 0 0 1 1.601 0v8.198a4.801 4.801 0 1 0 9.603 0v-8.198a.8.8 0 0 1 1.6 0v13.337a.783.783 0 0 1-.785.786z" class="V"/><use xlink:href="#Z" x="54.485" class="V"/><use xlink:href="#Y" x="80.196" class="V"/><use xlink:href="#X" x="146.89" class="V"/><use xlink:href="#a" class="V"/><path d="M573.78 833.562a6.523 6.523 0 0 1-5.026 2.134c-4.52 0-7.047-3.706-7.047-7.945 0-4.2 2.526-7.917 7.047-7.917a6.523 6.523 0 0 1 5.026 2.134.744.744 0 0 1 .225.533.88.88 0 0 1-.814.842.827.827 0 0 1-.59-.28 4.949 4.949 0 0 0-3.847-1.629c-3.312 0-5.446 2.668-5.446 6.317s2.134 6.346 5.446 6.346a5.046 5.046 0 0 0 3.847-1.629.797.797 0 0 1 1.404.533.805.805 0 0 1-.225.562zm15.7-4.998h-11.652c.253 3.2 2.33 5.53 5.4 5.53a5.072 5.072 0 0 0 4.127-1.937.739.739 0 0 1 .674-.394.859.859 0 0 1 .871.759c0 .252 0 .3-.533.926a6.628 6.628 0 0 1-5.139 2.246c-4.52 0-7.047-3.706-7.047-7.945 0-4.2 2.527-7.917 7.047-7.917s7.047 3.733 7.047 7.917a.85.85 0 0 1-.785.814zm-6.262-7.132c-3.37 0-5.138 2.583-5.4 5.53h10.8c-.253-3.2-2.33-5.53-5.42-5.53z" class="V"/><use xlink:href="#a" x="-149.22" y="23.62" class="V"/><path d="M614.143 835.22h-.87c-2.218 0-3.312-1.096-3.312-3.285V821.9h-1.432a.8.8 0 0 1 0-1.601h1.432v-4.295a.789.789 0 0 1 .814-.786.766.766 0 0 1 .785.786v4.295h2.584a.8.8 0 0 1 0 1.601h-2.584v10.023c0 1.376.394 1.685 1.713 1.685h.87a.8.8 0 0 1 0 1.601zm15.44-6.656h-11.65c.253 3.2 2.33 5.53 5.4 5.53a5.075 5.075 0 0 0 4.128-1.937.737.737 0 0 1 .674-.394.858.858 0 0 1 .87.759c0 .252 0 .3-.534.926a6.625 6.625 0 0 1-5.138 2.246c-4.52 0-7.047-3.706-7.047-7.945 0-4.2 2.526-7.917 7.047-7.917s7.048 3.733 7.048 7.917a.851.851 0 0 1-.787.814zm-6.26-7.132c-3.37 0-5.138 2.583-5.4 5.53h10.8c-.253-3.2-2.33-5.53-5.42-5.53z" class="V"/><use xlink:href="#W" x="62.709" y="23.62" class="V"/></g><path d="M408.358 345.97q-.066.712.58.646h3.94q.7-.127.582.582v3.166q.13.712-.582.646h-3.94q-.646-.13-.58.58v9.305q.13.84-.582.7h-3.295q-.647.13-.582-.7V351.6q.13-.7-.58-.58h-15q-.646.064-.58-.646v-4.07l.258-1.1 13.764-29.53a.851.851 0 0 1 .904-.517h5.104q.7-.064.582.646zm-16.22 0q-.388.712.388.646h10.8q.7.066.58-.646v-24.166c-.087-.518-.258-.56-.517-.13zm46.376 15.637a1.862 1.862 0 0 1-1.937-1.937v-12.82a6.571 6.571 0 1 0-13.142 0v12.773a1.96 1.96 0 0 1-2.029 2.028 1.9 1.9 0 0 1-1.937-1.982v-28.91a1.983 1.983 0 0 1 3.966-.047v7.978a9.301 9.301 0 0 1 6.548-2.352 10.599 10.599 0 0 1 10.514 10.514v12.773a1.886 1.886 0 0 1-1.983 1.982z" class="b"/><g class="W"><path d="M361.075 397.704a6.369 6.369 0 0 1-5.446-2.667v7.27a.8.8 0 1 1-1.601 0v-19.204a.8.8 0 0 1 1.601 0v1.376a6.417 6.417 0 0 1 5.446-2.64c4.52 0 7.048 3.706 7.048 7.917 0 4.24-2.527 7.946-7.048 7.946zm0-14.263c-3.34 0-5.446 2.667-5.446 6.316s2.105 6.346 5.446 6.346 5.447-2.695 5.447-6.346-2.105-6.316-5.447-6.316z" class="U"/><use xlink:href="#b" class="U"/><path d="M390.5 390.572h-11.652c.253 3.2 2.33 5.53 5.4 5.53a5.072 5.072 0 0 0 4.127-1.937.738.738 0 0 1 .674-.393.859.859 0 0 1 .871.758c0 .253 0 .3-.533.927a6.632 6.632 0 0 1-5.139 2.246c-4.52 0-7.047-3.706-7.047-7.946 0-4.2 2.527-7.917 7.047-7.917s7.047 3.734 7.047 7.917a.849.849 0 0 1-.785.814zm-6.262-7.13c-3.37 0-5.138 2.583-5.4 5.53h10.8c-.253-3.2-2.33-5.53-5.42-5.53zm18.218 5.053h-8.788a.8.8 0 1 1 0-1.601h8.788a.8.8 0 1 1 0 1.601zm15.692 8.732a.789.789 0 0 1-.814-.786v-1.403a6.371 6.371 0 0 1-5.447 2.667c-4.52 0-7.047-3.706-7.047-7.946 0-4.2 2.527-7.917 7.047-7.917a6.419 6.419 0 0 1 5.447 2.64v-6.458a.8.8 0 0 1 1.6 0v18.418a.783.783 0 0 1-.785.786zm-6.262-13.785c-3.312 0-5.446 2.667-5.446 6.316s2.134 6.346 5.446 6.346c3.342 0 5.447-2.695 5.447-6.346s-2.105-6.316-5.447-6.316z" class="U"/><use xlink:href="#b" x="51.448" class="U"/><path d="M436.325 397.704c-4.52 0-7.047-3.706-7.047-7.946 0-4.2 2.527-7.917 7.047-7.917s7.047 3.706 7.047 7.917c0 4.24-2.526 7.946-7.047 7.946zm0-14.263c-3.312 0-5.446 2.667-5.446 6.316s2.134 6.346 5.446 6.346c3.342 0 5.447-2.695 5.447-6.346s-2.105-6.316-5.447-6.316zm21.28 13.786a.789.789 0 0 1-.813-.786v-8.198a4.802 4.802 0 0 0-9.603 0v8.198a.8.8 0 0 1-1.601 0v-13.336a.8.8 0 0 1 1.601 0v.898a6.404 6.404 0 0 1 11.202 4.239v8.198a.783.783 0 0 1-.786.786zm16.056-6.655H462c.253 3.2 2.33 5.53 5.4 5.53a5.072 5.072 0 0 0 4.127-1.937.738.738 0 0 1 .674-.393.859.859 0 0 1 .871.758c0 .253 0 .3-.533.927a6.632 6.632 0 0 1-5.139 2.246c-4.52 0-7.047-3.706-7.047-7.946 0-4.2 2.527-7.917 7.047-7.917s7.047 3.734 7.047 7.917a.849.849 0 0 1-.785.814zm-6.262-7.13c-3.37 0-5.138 2.583-5.4 5.53h10.8c-.253-3.2-2.33-5.53-5.42-5.53z" class="U"/><path d="M277.47 343.853l-7.1 16.925a1.186 1.186 0 0 1-1.011.83 1.229 1.229 0 0 1-1.046-.83l-7.1-16.9a1.146 1.146 0 0 1-.072-.469 1.009 1.009 0 0 1 1.046-.975.927.927 0 0 1 .902.613l6.28 14.832 6.243-14.832a1.029 1.029 0 0 1 1.984.325.869.869 0 0 1-.107.469zm8.192 18.44c-2.165 0-5.8-.758-7.073-2.85a.871.871 0 0 1-.145-.541.985.985 0 0 1 1.841-.578c1.3 1.588 3.608 1.913 5.377 1.913 3.5 0 5.27-1.155 5.27-3.5 0-5.45-11.837-2.562-11.837-9.78 0-3.645 3.646-5.052 6.93-5.052 1.877 0 4.764.65 6.207 2.093a1.009 1.009 0 0 1 .325.686 1.17 1.17 0 0 1-1.119 1.083.956.956 0 0 1-.686-.289 7.212 7.212 0 0 0-4.728-1.516c-3.175 0-4.87 1.227-4.87 2.995 0 5.052 11.836 2.382 11.836 9.78 0 4.114-3.608 5.558-7.325 5.558z"/><use xlink:href="#c"/><path d="M597.977 520.66H585.58v6.694h8.684a1.415 1.415 0 0 1 1.425 1.426 1.394 1.394 0 0 1-1.425 1.425h-8.684v9.843a1.423 1.423 0 0 1-1.392 1.393 1.437 1.437 0 0 1-1.459-1.393v-20.78a1.444 1.444 0 0 1 1.459-1.426h13.787a1.34 1.34 0 0 1 1.392 1.393 1.384 1.384 0 0 1-1.392 1.425zm19.753 0h-12.396v6.694h8.684a1.415 1.415 0 0 1 1.425 1.426 1.394 1.394 0 0 1-1.425 1.425h-8.684v9.843a1.423 1.423 0 0 1-1.392 1.393 1.438 1.438 0 0 1-1.459-1.393v-20.78a1.444 1.444 0 0 1 1.459-1.426h13.787a1.34 1.34 0 0 1 1.392 1.393 1.384 1.384 0 0 1-1.392 1.425zm19.75 20.78h-13.787a1.437 1.437 0 0 1-1.459-1.393v-20.78a1.444 1.444 0 0 1 1.459-1.426h13.787a1.34 1.34 0 0 1 1.392 1.393 1.384 1.384 0 0 1-1.392 1.425h-12.396v6.694h8.684a1.415 1.415 0 0 1 1.425 1.426 1.394 1.394 0 0 1-1.425 1.425h-8.684v8.418h12.396a1.365 1.365 0 0 1 1.392 1.425 1.34 1.34 0 0 1-1.392 1.393zm20-3.048a8.491 8.491 0 0 1-7.391 3.612c-7.125 0-9.645-5.9-9.645-12.362 0-6.496 2.52-12.396 9.645-12.396a8.393 8.393 0 0 1 7.357 3.613 1.275 1.275 0 0 1 .299.828 1.436 1.436 0 0 1-1.458 1.392 1.384 1.384 0 0 1-1.127-.596 5.605 5.605 0 0 0-5.071-2.387c-4.706 0-6.794 3.48-6.794 9.545s2.088 9.545 6.794 9.545a5.699 5.699 0 0 0 5.071-2.419 1.336 1.336 0 0 1 1.127-.63 1.394 1.394 0 0 1 1.192 2.254zm16.24-17.732h-5.502v19.388a1.339 1.339 0 0 1-1.392 1.393 1.384 1.384 0 0 1-1.426-1.393V520.66h-5.435a1.4 1.4 0 0 1-1.459-1.425 1.385 1.385 0 0 1 1.426-1.393h13.787a1.409 1.409 0 1 1 0 2.817zm7.5 20.78h-3.812a1.409 1.409 0 0 1 0-2.817h.497V520.66h-.497a1.409 1.409 0 0 1 0-2.817h3.812a1.41 1.41 0 1 1 0 2.817h-.497v17.963h.497a1.41 1.41 0 1 1 0 2.817zm19.52-21.74l-6.96 20.614a1.504 1.504 0 0 1-1.425 1.127 1.561 1.561 0 0 1-1.393-1.127L683.97 519.7a1.415 1.415 0 0 1 2.685-.896l5.7 16.804 5.733-16.804a1.318 1.318 0 0 1 1.292-.961 1.414 1.414 0 0 1 1.491 1.359 1.017 1.017 0 0 1-.132.497z"/><use xlink:href="#c" x="140.41"/><path d="M745.713 541.474a1.421 1.421 0 0 1-1.094-.597l-6.894-9.645h-4.275v8.782a1.382 1.382 0 0 1-1.458 1.426 1.357 1.357 0 0 1-1.393-1.393v-20.78a1.377 1.377 0 0 1 1.393-1.426h8.584a6.691 6.691 0 0 1 .563 13.356l5.8 7.987a1.302 1.302 0 0 1 .298.861 1.525 1.525 0 0 1-1.524 1.426zm-5.17-20.813h-7.093v7.755h7.06a3.878 3.878 0 0 0 .033-7.755zm26.645 20.78a1.358 1.358 0 0 1-1.26-.862l-1.756-4.308h-11.037l-1.8 4.308a1.349 1.349 0 0 1-1.227.862 1.464 1.464 0 0 1-1.491-1.393 1.09 1.09 0 0 1 .133-.563l8.518-20.713a1.447 1.447 0 0 1 1.358-1.028 1.505 1.505 0 0 1 1.358 1.028l8.55 20.713a1.55 1.55 0 0 1 .1.563 1.415 1.415 0 0 1-1.458 1.393zm-8.55-18.56l-4.342 10.54h8.684zm27.308 18.56a1.407 1.407 0 0 1-1.193-.729l-11.136-16.736v16.04a1.382 1.382 0 0 1-1.458 1.426 1.357 1.357 0 0 1-1.393-1.393v-20.78a1.4 1.4 0 0 1 1.459-1.426 1.368 1.368 0 0 1 1.192.696l11.136 16.736V519.27a1.426 1.426 0 0 1 2.851-.033v20.78a1.42 1.42 0 0 1-1.458 1.426zm14.58.564c-7.3 0-9.645-6.132-9.645-12.362 0-6.396 2.52-12.396 9.645-12.396a8.477 8.477 0 0 1 7.357 3.613 1.41 1.41 0 0 1 .299.828 1.587 1.587 0 0 1-1.591 1.425c-.597 0-.663-.265-1.193-.86a5.779 5.779 0 0 0-4.872-2.154c-5.104 0-6.794 4.342-6.794 9.545 0 4.54 1.227 9.545 6.794 9.545 4.044 0 6.463-2.884 6.695-7.656h-2.983a1.381 1.381 0 0 1-1.458-1.425 1.365 1.365 0 0 1 1.392-1.425h4.54a1.392 1.392 0 0 1 1.458 1.458c-.133 6.197-2.618 11.865-9.645 11.865zm27.973-.564h-13.787a1.437 1.437 0 0 1-1.459-1.393v-20.78a1.444 1.444 0 0 1 1.459-1.426H828.5a1.34 1.34 0 0 1 1.392 1.393 1.384 1.384 0 0 1-1.392 1.425h-12.395v6.694h8.684a1.415 1.415 0 0 1 1.425 1.426 1.394 1.394 0 0 1-1.425 1.425h-8.684v8.418H828.5a1.365 1.365 0 0 1 1.392 1.425 1.34 1.34 0 0 1-1.392 1.393z"/></g><g class="V b"><path d="M42.328 1046.045a7.892 7.892 0 0 1-5.503-2.002 1.364 1.364 0 0 1-1.468 1.401 1.346 1.346 0 0 1-1.401-1.401v-20.88a1.435 1.435 0 0 1 2.869-.033v6.238a7.4 7.4 0 0 1 5.503-2.169c5.37 0 8.373 4.403 8.373 9.406 0 5.037-3.002 9.44-8.373 9.44zm0-16c-3.335 0-5.503 2.602-5.503 6.57 0 4.003 2.168 6.604 5.503 6.604s5.504-2.602 5.504-6.604c0-3.97-2.168-6.57-5.504-6.57zm25.555 8.037h-12.34c.467 3.136 2.468 5.137 5.403 5.137a5.003 5.003 0 0 0 3.969-1.734 1.383 1.383 0 0 1 1.034-.533 1.556 1.556 0 0 1 1.501 1.468c0 .4-.1.7-.8 1.4a8.129 8.129 0 0 1-5.704 2.235c-5.37 0-8.372-4.437-8.372-9.44 0-4.97 3.002-9.406 8.372-9.406 5.437 0 8.34 4.437 8.34 9.406a1.422 1.422 0 0 1-1.401 1.468zm-6.937-8.038c-3.136 0-4.97 2.3-5.403 5.17H66.35c-.467-3.202-2.468-5.17-5.403-5.17zM88 1045.478a3.247 3.247 0 0 1-2.969-1.901 7.642 7.642 0 0 1-5.87 2.469c-5.437 0-8.372-4.47-8.372-9.44s3.002-9.406 8.372-9.406a7.369 7.369 0 0 1 5.504 2.202v-.134a1.376 1.376 0 0 1 1.4-1.501 1.341 1.341 0 0 1 1.468 1.401v12.875a.54.54 0 0 0 .467.601 1.418 1.418 0 1 1 0 2.835zm-8.84-15.443c-3.336 0-5.504 2.602-5.504 6.57 0 4.003 2.168 6.604 5.504 6.604 3.37 0 5.504-2.602 5.504-6.604 0-3.97-2.135-6.57-5.504-6.57z"/><use xlink:href="#d"/><path d="M115.158 1045.478h-.567c-3.17 0-4.37-1.668-4.37-4.403V1030.6h-1a1.418 1.418 0 1 1-.033-2.835h1v-4.637a1.355 1.355 0 0 1 1.435-1.4 1.328 1.328 0 0 1 1.401 1.4v4.637h2.135a1.383 1.383 0 0 1 1.4 1.401 1.356 1.356 0 0 1-1.4 1.434h-2.135v10.774c0 .934.333 1.268 1.268 1.268h.833a1.376 1.376 0 0 1 1.435 1.4 1.357 1.357 0 0 1-1.4 1.435zm4.604-20.415a2.401 2.401 0 1 1 2.402-2.401 2.392 2.392 0 0 1-2.402 2.401zm0 20.414a1.4 1.4 0 0 1-1.467-1.401V1029.2a1.408 1.408 0 0 1 1.467-1.435 1.374 1.374 0 0 1 1.401 1.435v14.876a1.346 1.346 0 0 1-1.401 1.401zm10.376-14.877h-1.5v13.442a1.364 1.364 0 0 1-1.468 1.401 1.346 1.346 0 0 1-1.401-1.401V1030.6h-1.37a1.418 1.418 0 0 1 0-2.835h1.367v-2.27a3.801 3.801 0 0 1 3.836-3.769 1.418 1.418 0 1 1 0 2.835.934.934 0 0 0-.967.9v2.302h1.5a1.418 1.418 0 1 1 0 2.835z"/><use xlink:href="#d" x="42.068"/><path d="M154.725 1045.544a3.403 3.403 0 0 1-3.336-3.402v-18.98a1.435 1.435 0 0 1 2.869-.033v19.013a.527.527 0 0 0 .467.567 1.418 1.418 0 1 1 0 2.835zm15.37-.066v-1.264c1.886-.237 2.046-.437 2.046-3.157v-6.7c0-2.8-1.248-4.017-3.064-4.017a5.597 5.597 0 0 0-3.47 1.493v9.476c0 2.527.187 2.658 2.06 2.896v1.264h-8.968v-1.264c2.254-.33 2.5-.4 2.5-3v-8.2c0-2.446-.303-2.565-2.185-2.922v-1.184a34.101 34.101 0 0 0 6.653-1.533l-.052 2.95 2.6-1.745a5.659 5.659 0 0 1 3.159-1.086c3.194 0 5.2 2.338 5.2 6.3v7.5c0 2.54.237 2.657 2.277 2.92v1.264zm23.9-3.703c-2.458 3.427-5.488 4.178-7.014 4.178-5.142 0-8.124-3.936-8.124-8.594a10.333 10.333 0 0 1 2.832-7.062 8.602 8.602 0 0 1 6.082-2.814 6.386 6.386 0 0 1 6.37 6.347c-.014.715-.08 1.277-.612 1.4-.767.184-6.17.5-10.318.647.062 4.587 2.717 6.74 5.556 6.74a6.776 6.776 0 0 0 4.543-1.866zm-7.07-12.7c-1.667 0-3.167 1.807-3.516 4.963l5.486-.118c.6-.026.848-.146.848-.792.04-2.022-1.037-4.053-2.818-4.053zm34.284.145c-1.943.343-2.248.624-3.105 2.765-1.33 3.462-3.102 8.53-4.934 13.94h-1.512l-4.65-11.46-4.55 11.46h-1.472l-4.685-14.192c-.687-1.985-.94-2.274-2.855-2.512v-1.25h9.397v1.25c-2.325.345-2.535.672-2.058 2.133l2.52 8.214c1.507-3.68 2.988-7.62 4.327-11.424h1.456c1.4 3.76 2.986 7.702 4.573 11.568.742-2.107 2.062-5.964 2.557-8.108.412-1.674-.008-2.078-2.753-2.383v-1.25h7.742zm9.4 3.746c-.92-2.606-2.155-3.984-4.2-3.984a2.166 2.166 0 0 0-2.225 2.266c0 1.497 1.046 2.264 3.16 3.216 3.278 1.496 5.3 2.787 5.3 5.736 0 3.85-3.6 5.764-6.945 5.764a12.073 12.073 0 0 1-4.92-1.161l-.662-4.892 1.252-.224c.8 2.5 2.33 4.75 4.976 4.75a2.231 2.231 0 0 0 2.438-2.281c0-1.423-.76-2.333-3.092-3.467-2.67-1.295-5.107-2.64-5.107-5.775 0-3.046 2.533-5.42 6.565-5.42a18.751 18.751 0 0 1 4.112.567l.62 4.577z"/></g><g class="U b"><path d="M853.2 1046.358c-1.2 0-3.22-.42-3.92-1.58a.482.482 0 0 1-.08-.3.546.546 0 0 1 1.021-.32 3.812 3.812 0 0 0 2.98 1.061c1.94 0 2.92-.64 2.92-1.94 0-3.02-6.562-1.42-6.562-5.422 0-2.02 2.02-2.8 3.84-2.8a5.415 5.415 0 0 1 3.44 1.16.558.558 0 0 1 .18.38.648.648 0 0 1-.62.6.531.531 0 0 1-.38-.16 4.001 4.001 0 0 0-2.62-.84c-1.76 0-2.7.68-2.7 1.66 0 2.8 6.562 1.32 6.562 5.422 0 2.28-2 3.08-4.06 3.08zm10.72-.04c-3.22 0-5.02-2.64-5.02-5.66 0-3 1.8-5.64 5.02-5.64s5.02 2.64 5.02 5.64c0 3.02-1.8 5.66-5.02 5.66zm0-10.162c-2.36 0-3.88 1.9-3.88 4.5s1.52 4.52 3.88 4.52c2.38 0 3.88-1.92 3.88-4.52s-1.5-4.5-3.88-4.5z"/><use xlink:href="#e"/><use xlink:href="#f"/><path d="M897.84 1044.798a4.645 4.645 0 0 1-3.58 1.521c-3.22 0-5.02-2.64-5.02-5.66 0-3 1.8-5.64 5.02-5.64a4.647 4.647 0 0 1 3.58 1.52.531.531 0 0 1 .16.381.627.627 0 0 1-.58.6.587.587 0 0 1-.42-.2 3.526 3.526 0 0 0-2.74-1.16c-2.36 0-3.88 1.9-3.88 4.5s1.52 4.52 3.88 4.52a3.596 3.596 0 0 0 2.74-1.16.587.587 0 0 1 .42-.2.594.594 0 0 1 .58.58.571.571 0 0 1-.16.399zm11.58-3.56h-8.302c.18 2.28 1.66 3.94 3.84 3.94a3.615 3.615 0 0 0 2.94-1.381.525.525 0 0 1 .48-.28.611.611 0 0 1 .62.541c0 .18 0 .22-.38.66a4.72 4.72 0 0 1-3.66 1.601c-3.22 0-5.02-2.64-5.02-5.66 0-3 1.8-5.64 5.02-5.64s5.02 2.66 5.02 5.64a.606.606 0 0 1-.56.58zm-4.46-5.08c-2.4 0-3.66 1.84-3.84 3.94h7.7c-.18-2.28-1.66-3.94-3.86-3.94zm8.438 3.26a1.14 1.14 0 1 1 0-2.28 1.14 1.14 0 0 1 0 2.28zm0 6.562a1.14 1.14 0 1 1 0-2.28 1.14 1.14 0 0 1 0 2.28zm16.962-13.124h-3.88v12.563a.551.551 0 0 1-.58.561.545.545 0 0 1-.56-.561v-12.562h-3.88a.56.56 0 1 1 0-1.12h8.9a.56.56 0 1 1 0 1.12zm10.72 13.125a.563.563 0 0 1-.58-.561v-5.84a3.421 3.421 0 1 0-6.841 0v5.84a.57.57 0 0 1-1.141 0v-13.122a.57.57 0 0 1 1.141 0v4.26a4.442 4.442 0 0 1 3.421-1.54 4.597 4.597 0 0 1 4.561 4.561v5.84a.558.558 0 0 1-.561.561zm12.24-4.743h-8.302c.18 2.28 1.66 3.94 3.84 3.94a3.615 3.615 0 0 0 2.94-1.381.525.525 0 0 1 .479-.28.611.611 0 0 1 .62.541c0 .18 0 .22-.38.66a4.72 4.72 0 0 1-3.66 1.601c-3.22 0-5.02-2.64-5.02-5.66 0-3 1.8-5.64 5.02-5.64s5.02 2.66 5.02 5.64a.606.606 0 0 1-.56.58zm-4.46-5.08c-2.4 0-3.66 1.84-3.84 3.94h7.7c-.18-2.28-1.66-3.94-3.86-3.94zm17.778 10.16c-4.4 0-5.82-3.7-5.82-7.46 0-3.74 1.42-7.482 5.82-7.482a5.095 5.095 0 0 1 4.44 2.181.405.405 0 0 1 .12.32.6.6 0 0 1-.62.561c-.28 0-.44-.24-.66-.52a3.879 3.879 0 0 0-3.28-1.4c-3.02 0-4.682 2.32-4.682 6.342 0 3.04.96 6.32 4.682 6.32 3.16 0 4.54-2.42 4.68-5.74h-2.44a.572.572 0 0 1-.6-.58.561.561 0 0 1 .56-.58h3.04a.556.556 0 0 1 .58.58c0 3.9-1.54 7.46-5.82 7.46z"/><use xlink:href="#e" x="103.398"/><use xlink:href="#g"/><use xlink:href="#f" x="116.238"/><path d="M1014.958 1045.98a.563.563 0 0 1-.581-.561v-1a4.536 4.536 0 0 1-3.88 1.9c-3.22 0-5.02-2.64-5.02-5.66 0-3 1.8-5.64 5.02-5.64a4.571 4.571 0 0 1 3.88 1.88v-4.6a.571.571 0 0 1 1.141 0v13.122a.558.558 0 0 1-.56.561zm-4.46-9.822c-2.36 0-3.88 1.9-3.88 4.5s1.52 4.52 3.88 4.52c2.38 0 3.88-1.92 3.88-4.52s-1.5-4.5-3.88-4.5zm8.438-2.722a1.14 1.14 0 1 1 1.141-1.14 1.127 1.127 0 0 1-1.141 1.14zm0 12.543a.55.55 0 0 1-.58-.561v-9.502a.551.551 0 0 1 .58-.56.545.545 0 0 1 .561.56v9.502a.536.536 0 0 1-.561.561z"/><use xlink:href="#g" x="35.838"/><path d="M1043.737 1045.98a.563.563 0 0 1-.58-.561v-5.84a3.42 3.42 0 1 0-6.841 0v5.84a.57.57 0 0 1-1.141 0v-9.502a.57.57 0 0 1 1.141 0v.64a4.563 4.563 0 0 1 7.981 3.021v5.84a.558.558 0 0 1-.561.561z"/></g><g class="b"><path d="M49.72 80H37.3a2.73 2.73 0 0 1-2.64-2.52V39.862a2.693 2.693 0 0 1 2.64-2.58h12.42c12.36 0 16.44 10.2 16.44 21.3C66.16 69.74 62.08 80 49.72 80zm0-37.62h-9.9V74.9h9.9C57.46 74.9 61 69.2 61 58.58c0-10.44-3.54-16.2-11.28-16.2zm35.22 9.842a8.644 8.644 0 0 0-8.52 8.58v16.62a2.501 2.501 0 0 1-2.64 2.58 2.456 2.456 0 0 1-2.52-2.52v-26.76a2.541 2.541 0 0 1 2.52-2.58 2.463 2.463 0 0 1 2.58 2.04 13.874 13.874 0 0 1 8.579-3.06 2.552 2.552 0 1 1 0 5.1z"/><use xlink:href="#h"/><path d="M146.917 80a2.423 2.423 0 0 1-2.52-2.52V60.8a8.55 8.55 0 1 0-17.1 0v16.62a2.55 2.55 0 0 1-2.64 2.64 2.472 2.472 0 0 1-2.52-2.58v-26.82a2.387 2.387 0 0 1 2.52-2.52 2.509 2.509 0 0 1 2.58 1.98 13.702 13.702 0 0 1 22.259 10.68v16.62a2.454 2.454 0 0 1-2.58 2.58z"/><use xlink:href="#i"/><path d="M197.858 81.02c-3.3 0-8.82-1.02-11.64-4.5a2.655 2.655 0 0 1 2.159-4.26 2.463 2.463 0 0 1 1.86 1.02c1.86 2.04 4.92 2.64 7.62 2.64 5.4 0 7.14-1.86 7.14-4.56 0-7.68-18.3-2.94-18.3-15.3 0-6.54 6.12-8.94 11.82-8.94 3.24 0 10.86 1.62 10.86 4.98a2.694 2.694 0 0 1-2.52 2.7 3.609 3.609 0 0 1-1.98-.78c-1.62-1.38-3.96-1.8-6.36-1.8-4.98 0-6.72 1.86-6.72 3.84 0 7.14 18.36 2.52 18.36 15.3 0 7.08-5.94 9.66-12.3 9.66zM253.836 80a2.52 2.52 0 0 1-2.64-2.52V59.66h-19.8v17.82a2.58 2.58 0 0 1-5.159 0V39.802a2.58 2.58 0 0 1 5.159 0v14.76h19.8v-14.7a2.58 2.58 0 1 1 5.159 0V77.42a2.541 2.541 0 0 1-2.52 2.58z"/><use xlink:href="#j"/><path d="M322.295 51.682l-10.92 26.28a2.736 2.736 0 0 1-2.579 2.04 2.904 2.904 0 0 1-2.58-2.04l-10.92-26.28a3.688 3.688 0 0 1-.18-1.08 2.588 2.588 0 0 1 2.64-2.46 2.457 2.457 0 0 1 2.28 1.56l8.76 21 8.76-21a2.585 2.585 0 0 1 4.98.84 2.993 2.993 0 0 1-.24 1.14z"/><use xlink:href="#k"/><path d="M398.314 80.06a2.574 2.574 0 0 1-1.98-1.08l-12.48-17.46h-7.74v15.9a2.502 2.502 0 0 1-2.641 2.58 2.456 2.456 0 0 1-2.52-2.52V39.862a2.491 2.491 0 0 1 2.52-2.58h15.54c5.28 0 12.06 4.14 12.06 12.06a12.096 12.096 0 0 1-11.04 12.12l10.5 14.46a2.355 2.355 0 0 1 .54 1.56 2.76 2.76 0 0 1-2.76 2.58zm-9.36-37.68h-12.84v14.04h12.78a7.02 7.02 0 0 0 .06-14.04zm43.02 24.3h-22.2c.84 5.64 4.44 9.24 9.72 9.24a9.007 9.007 0 0 0 7.14-3.12 2.483 2.483 0 0 1 1.859-.96 2.8 2.8 0 0 1 2.7 2.64c0 .72-.18 1.26-1.44 2.52a14.622 14.622 0 0 1-10.26 4.02c-9.66 0-15.06-7.98-15.06-16.98 0-8.94 5.4-16.92 15.06-16.92 9.78 0 15 7.98 15 16.92a2.558 2.558 0 0 1-2.519 2.64zm-12.48-14.46c-5.64 0-8.94 4.14-9.72 9.3h19.44c-.84-5.76-4.44-9.3-9.72-9.3z"/><use xlink:href="#l"/><use xlink:href="#h" x="377.992"/><use xlink:href="#m"/><path d="M535.7 80.06a2.445 2.445 0 0 1-2.52-1.98 13.967 13.967 0 0 1-8.64 3 13.79 13.79 0 0 1-13.68-13.68V50.78a2.58 2.58 0 0 1 5.16-.06V67.4a8.55 8.55 0 1 0 17.099 0V50.78a2.393 2.393 0 0 1 2.521-2.64 2.453 2.453 0 0 1 2.579 2.58v26.82a2.389 2.389 0 0 1-2.52 2.52zm18.8-.06h-1.02c-5.7 0-7.86-3-7.86-7.92V53.24h-1.8a2.55 2.55 0 0 1-.061-5.1h1.8V39.8a2.436 2.436 0 0 1 2.579-2.52 2.39 2.39 0 0 1 2.521 2.52v8.34h3.84a2.487 2.487 0 0 1 2.52 2.52 2.441 2.441 0 0 1-2.52 2.58h-3.84v19.38c0 1.68.6 2.28 2.28 2.28h1.5a2.475 2.475 0 0 1 2.58 2.52 2.441 2.441 0 0 1-2.52 2.58z"/><use xlink:href="#n"/><use xlink:href="#h" x="482.99"/><path d="M629.908 80a2.424 2.424 0 0 1-2.52-2.52V60.8a8.55 8.55 0 1 0-17.1 0v16.62a2.55 2.55 0 0 1-2.64 2.64 2.472 2.472 0 0 1-2.52-2.58v-26.82a2.387 2.387 0 0 1 2.52-2.52 2.509 2.509 0 0 1 2.58 1.98 13.702 13.702 0 0 1 22.259 10.68v16.62a2.453 2.453 0 0 1-2.579 2.58z"/><use xlink:href="#n" x="78.058"/><path d="M659.728 81.02c-3.3 0-8.82-1.02-11.64-4.5a2.655 2.655 0 0 1 2.16-4.26 2.463 2.463 0 0 1 1.859 1.02c1.86 2.04 4.92 2.64 7.62 2.64 5.4 0 7.14-1.86 7.14-4.56 0-7.68-18.3-2.94-18.3-15.3 0-6.54 6.12-8.94 11.82-8.94 3.24 0 10.86 1.62 10.86 4.98a2.694 2.694 0 0 1-2.521 2.7 3.612 3.612 0 0 1-1.979-.78c-1.62-1.38-3.96-1.8-6.36-1.8-4.98 0-6.72 1.86-6.72 3.84 0 7.14 18.36 2.52 18.36 15.3 0 7.08-5.94 9.66-12.3 9.66z"/><use xlink:href="#o"/><use xlink:href="#p"/><path d="M791.424 80.06a2.472 2.472 0 0 1-2.52-2.58v-27.6l-11.64 21.72a2.627 2.627 0 0 1-2.4 1.62 2.857 2.857 0 0 1-2.399-1.62L760.885 50v27.48a2.501 2.501 0 0 1-2.64 2.58 2.472 2.472 0 0 1-2.52-2.58v-37.5a2.526 2.526 0 0 1 2.76-2.7 2.301 2.301 0 0 1 2.16 1.5l14.22 26.46 14.28-26.46a2.302 2.302 0 0 1 2.34-1.5 2.485 2.485 0 0 1 2.579 2.7v37.5a2.501 2.501 0 0 1-2.64 2.58z"/><use xlink:href="#o" x="124.378"/><use xlink:href="#p" x="124.378"/><use xlink:href="#n" x="307.796"/><path d="M903.863 76.46a13.935 13.935 0 0 1-10.739 4.56c-9.66 0-15.06-7.92-15.06-16.98 0-9 5.4-16.92 15.06-16.92a13.935 13.935 0 0 1 10.739 4.56 2.618 2.618 0 0 1 .72 1.74 2.793 2.793 0 0 1-2.7 2.58 2.842 2.842 0 0 1-1.859-.84 8.814 8.814 0 0 0-6.899-2.94c-6 0-9.9 4.68-9.9 11.82 0 7.2 3.9 11.88 9.9 11.88a8.923 8.923 0 0 0 6.899-2.939 2.395 2.395 0 0 1 1.859-.9 2.59 2.59 0 0 1 1.98 4.38z"/><use xlink:href="#q"/><use xlink:href="#m" x="443.871"/><path d="M49.72 141.2H37.3a2.73 2.73 0 0 1-2.64-2.52v-37.618a2.693 2.693 0 0 1 2.64-2.58h12.42c12.36 0 16.44 10.2 16.44 21.3 0 11.16-4.08 21.42-16.44 21.42zm0-37.62h-9.9v32.52h9.9c7.74 0 11.28-5.7 11.28-16.32 0-10.44-3.54-16.2-11.28-16.2z"/><use xlink:href="#k" x="-254.636" y="61.2"/><path d="M109.66 141.32a6.122 6.122 0 0 1-6-6.12v-34.138a2.58 2.58 0 0 1 5.16-.06V135.2a.947.947 0 0 0 .84 1.02 2.55 2.55 0 1 1 0 5.1z"/><use xlink:href="#r"/><use xlink:href="#l" x="-311.636" y="61.2"/><use xlink:href="#i" x="-0.061" y="61.2"/><path d="M201.456 113.422a8.644 8.644 0 0 0-8.52 8.58v16.62a2.502 2.502 0 0 1-2.641 2.58 2.456 2.456 0 0 1-2.52-2.52v-26.76a2.541 2.541 0 0 1 2.52-2.58 2.463 2.463 0 0 1 2.58 2.04 13.874 13.874 0 0 1 8.58-3.06 2.552 2.552 0 1 1 0 5.1z"/><use xlink:href="#r" x="89.877"/><use xlink:href="#i" x="61.738" y="61.2"/><path d="M259.595 142.22c-3.3 0-8.82-1.02-11.64-4.5a2.655 2.655 0 0 1 2.159-4.26 2.463 2.463 0 0 1 1.86 1.02c1.86 2.04 4.92 2.64 7.62 2.64 5.4 0 7.14-1.86 7.14-4.56 0-7.68-18.3-2.94-18.3-15.3 0-6.54 6.12-8.94 11.82-8.94 3.24 0 10.86 1.62 10.86 4.98a2.694 2.694 0 0 1-2.521 2.7 3.609 3.609 0 0 1-1.979-.78c-1.62-1.38-3.96-1.8-6.36-1.8-4.98 0-6.72 1.86-6.72 3.84 0 7.14 18.36 2.52 18.36 15.3 0 7.08-5.94 9.66-12.3 9.66z"/><use xlink:href="#r" x="172.675"/><path d="M324.393 141.2a2.424 2.424 0 0 1-2.521-2.52V122a8.549 8.549 0 1 0-17.099 0v16.62a2.551 2.551 0 0 1-2.641 2.64 2.472 2.472 0 0 1-2.52-2.58v-26.82a2.387 2.387 0 0 1 2.52-2.52 2.509 2.509 0 0 1 2.58 1.98 13.703 13.703 0 0 1 22.26 10.68v16.62a2.454 2.454 0 0 1-2.58 2.58zm47.82.06a2.574 2.574 0 0 1-1.98-1.08l-12.48-17.46h-7.74v15.9a2.502 2.502 0 0 1-2.641 2.58 2.456 2.456 0 0 1-2.52-2.52v-37.618a2.491 2.491 0 0 1 2.52-2.58h15.54c5.28 0 12.06 4.14 12.06 12.06a12.096 12.096 0 0 1-11.04 12.12l10.5 14.46a2.355 2.355 0 0 1 .54 1.56 2.76 2.76 0 0 1-2.76 2.58zm-9.36-37.68h-12.84v14.04h12.78a7.02 7.02 0 0 0 .06-14.04zm56.748 9.182l-9.3 26.34a2.726 2.726 0 0 1-2.64 2.1c-1.26 0-1.98-.54-2.52-2.1l-7.02-19.8-7.08 19.8a2.598 2.598 0 0 1-5.1 0l-9.24-26.34a2.64 2.64 0 0 1-.12-.96 2.585 2.585 0 0 1 2.641-2.46 2.378 2.378 0 0 1 2.34 1.68l6.96 20.04 7.08-19.62c.48-1.38 1.08-2.1 2.52-2.1 1.32 0 2.04.66 2.52 2.1l7.02 19.62 7.02-20.04a2.359 2.359 0 0 1 2.28-1.68 2.666 2.666 0 0 1 2.76 2.52 2.484 2.484 0 0 1-.12.9z"/><use xlink:href="#j" x="160.195" y="61.2"/><path d="M482.8 141.2a2.423 2.423 0 0 1-2.52-2.52V122a8.55 8.55 0 1 0-17.1 0v16.62a2.55 2.55 0 0 1-2.64 2.64 2.472 2.472 0 0 1-2.52-2.58v-26.82a2.387 2.387 0 0 1 2.52-2.52 2.509 2.509 0 0 1 2.58 1.98A13.702 13.702 0 0 1 485.379 122v16.62a2.454 2.454 0 0 1-2.58 2.58zm34.3-.06a2.436 2.436 0 0 1-2.58-2.52 14.518 14.518 0 0 1-9.899 3.6c-9.66 0-15.06-7.92-15.06-16.98 0-9 5.4-16.92 15.06-16.92a13.222 13.222 0 0 1 9.899 3.9v-11.16a2.58 2.58 0 0 1 5.16-.06v37.618a2.436 2.436 0 0 1-2.58 2.52zm-12.48-27.72c-6 0-9.9 4.68-9.9 11.82 0 7.2 3.9 11.88 9.9 11.88 6.06 0 9.9-4.68 9.9-11.88 0-7.14-3.84-11.82-9.9-11.82z"/><use xlink:href="#q" x="-382.852" y="61.2"/></g></svg>