<svg xmlns="http://www.w3.org/2000/svg" xmlns:xlink="http://www.w3.org/1999/xlink" viewBox="0 0 1080 1080"><style><![CDATA[.U{fill:#2265a8}.V{fill:#3551a6}.W{fill:#3d419c}.X{fill:#10879e}.Y{fill:#00b3a7}.Z{fill:#fff}.a{fill:#35378c}.b{enable-background:new}]]></style><linearGradient id="A" gradientUnits="userSpaceOnUse" x1="11.716" y1="11.716" x2="1068.284" y2="1068.284"><stop offset="0" stop-color="#0e0030"/><stop offset=".278" stop-color="#201859"/><stop offset=".595" stop-color="#323181"/><stop offset=".847" stop-color="#3d3f9a"/><stop offset="1" stop-color="#4145a3"/></linearGradient><path d="M1040 1080H40c-22.09 0-40-17.91-40-40V40C0 17.91 17.91 0 40 0h1000c22.09 0 40 17.91 40 40v1000c0 22.09-17.91 40-40 40z" fill="url(#A)"/><g stroke="#2c3175" stroke-width=".75" stroke-miterlimit="10"><use xlink:href="#C" class="a"/><path d="M68.132 243.117H33.235v-18.605c0-9.347 7.577-16.924 16.924-16.924h17.973v35.53z" class="U"/><use xlink:href="#D" class="X"/><use xlink:href="#D" y="35.529" class="V"/><g class="U"><use xlink:href="#D" y="142.113"/><use xlink:href="#D" y="177.643"/></g><use xlink:href="#D" y="213.171" class="Y"/><g class="U"><use xlink:href="#D" y="248.7"/><use xlink:href="#D" y="319.757"/></g><g class="V"><use xlink:href="#D" y="355.285"/><use xlink:href="#D" y="390.813"/></g><use xlink:href="#D" y="426.343" class="Y"/><use xlink:href="#D" y="461.871" class="V"/><use xlink:href="#D" y="568.456" class="U"/><use xlink:href="#D" y="603.985" class="V"/><g class="X"><use xlink:href="#E"/><use xlink:href="#E" y="35.527"/></g><use xlink:href="#E" y="71.056" class="V"/><g class="U"><use xlink:href="#E" y="177.64"/><use xlink:href="#E" y="213.17"/></g><use xlink:href="#E" y="248.698" class="Y"/><use xlink:href="#E" y="284.227" class="U"/><use xlink:href="#E" y="355.284" class="V"/><use xlink:href="#E" y="390.812" class="U"/><use xlink:href="#E" y="461.87" class="Y"/><use xlink:href="#E" y="497.398" class="V"/><use xlink:href="#E" y="532.926" class="W"/><use xlink:href="#E" y="603.983" class="U"/><use xlink:href="#E" y="639.512" class="V"/><use xlink:href="#C" x="-34.897" y="-675.04" class="U"/><use xlink:href="#C" x="-34.897" y="-603.984" class="V"/><g class="X"><use xlink:href="#C" x="-34.897" y="-497.4"/><use xlink:href="#C" x="-34.897" y="-426.342"/></g><use xlink:href="#C" x="-34.897" y="-390.813" class="U"/><g class="X"><use xlink:href="#C" x="-34.897" y="-319.756"/><use xlink:href="#C" x="-34.897" y="-248.7"/></g><use xlink:href="#C" x="-34.897" y="-213.17" class="Y"/><use xlink:href="#C" x="-34.897" y="-177.642" class="V"/><g class="U"><use xlink:href="#C" x="-34.897" y="-142.114"/><use xlink:href="#C" x="-34.897" y="-71.057"/></g><use xlink:href="#C" x="-34.897" y="-35.528" class="Y"/><use xlink:href="#C" y="-675.04" class="U"/><use xlink:href="#C" y="-639.513" class="X"/><g class="V"><use xlink:href="#C" y="-603.984"/><use xlink:href="#C" y="-532.927"/><use xlink:href="#C" y="-461.87"/></g><use xlink:href="#C" y="-426.342" class="X"/><g class="U"><use xlink:href="#C" y="-390.813"/><use xlink:href="#C" y="-284.228"/></g><use xlink:href="#C" y="-248.7" class="V"/><use xlink:href="#C" y="-213.17" class="Y"/><use xlink:href="#C" y="-177.642" class="W"/><use xlink:href="#C" y="-142.114" class="V"/><g class="U"><use xlink:href="#C" y="-106.585"/><use xlink:href="#C" y="-71.057"/></g><use xlink:href="#C" y="-35.528" class="Y"/><use xlink:href="#F" class="X"/><use xlink:href="#F" y="35.527" class="U"/><use xlink:href="#F" y="71.056" class="W"/><g class="U"><use xlink:href="#F" y="142.113"/><use xlink:href="#F" y="177.64"/><use xlink:href="#F" y="213.17"/></g><use xlink:href="#F" y="248.698" class="X"/><use xlink:href="#F" y="284.227" class="V"/><use xlink:href="#F" y="319.755" class="W"/><use xlink:href="#F" y="355.284" class="X"/><use xlink:href="#F" y="390.812" class="U"/><g class="X"><use xlink:href="#F" y="426.34"/><use xlink:href="#F" y="461.87"/></g><use xlink:href="#F" y="532.926" class="V"/><use xlink:href="#F" y="568.455" class="U"/><g class="X"><use xlink:href="#F" y="603.983"/><use xlink:href="#F" y="639.512"/></g><g class="U"><use xlink:href="#C" x="69.792" y="-675.04"/><use xlink:href="#C" x="69.792" y="-639.513"/></g><use xlink:href="#C" x="69.792" y="-603.984" class="W"/><use xlink:href="#C" x="69.792" y="-532.927" class="V"/><g class="U"><use xlink:href="#C" x="69.792" y="-497.4"/><use xlink:href="#C" x="69.792" y="-461.87"/><use xlink:href="#C" x="69.792" y="-426.342"/></g><use xlink:href="#C" x="69.792" y="-390.813" class="V"/><use xlink:href="#C" x="69.792" y="-355.285" class="W"/><g class="U"><use xlink:href="#C" x="69.792" y="-319.756"/><use xlink:href="#C" x="69.792" y="-284.228"/></g><g class="X"><use xlink:href="#C" x="69.792" y="-248.7"/><use xlink:href="#C" x="69.792" y="-213.17"/></g><use xlink:href="#C" x="69.792" y="-142.114" class="V"/><use xlink:href="#C" x="69.792" y="-106.585" class="X"/><use xlink:href="#C" x="69.792" y="-71.057" class="U"/><use xlink:href="#C" x="69.792" y="-35.528" class="X"/><use xlink:href="#C" x="69.792" class="W"/><g class="U"><use xlink:href="#G"/><use xlink:href="#G" y="35.527"/></g><g class="W"><use xlink:href="#G" y="71.056"/><use xlink:href="#G" y="106.584"/></g><use xlink:href="#G" y="142.113" class="V"/><use xlink:href="#G" y="177.64" class="U"/><use xlink:href="#G" y="213.17" class="W"/><use xlink:href="#G" y="248.698" class="U"/><g class="W"><use xlink:href="#G" y="284.227"/><use xlink:href="#G" y="319.755"/></g><g class="U"><use xlink:href="#G" y="355.284"/><use xlink:href="#G" y="390.812"/></g><g class="X"><use xlink:href="#G" y="426.34"/><use xlink:href="#G" y="461.87"/></g><use xlink:href="#G" y="532.926" class="W"/><use xlink:href="#G" y="568.455" class="X"/><g class="U"><use xlink:href="#G" y="603.983"/><use xlink:href="#G" y="639.512"/></g><use xlink:href="#G" y="675.04" class="W"/><g class="U"><use xlink:href="#H"/><use xlink:href="#H" y="35.527"/></g><use xlink:href="#H" y="71.056" class="W"/><use xlink:href="#H" y="142.113" class="V"/><use xlink:href="#H" y="177.64" class="U"/><use xlink:href="#H" y="213.17" class="W"/><g class="U"><use xlink:href="#H" y="248.698"/><use xlink:href="#H" y="355.284"/></g><use xlink:href="#H" y="390.812" class="V"/><use xlink:href="#H" y="426.34" class="U"/><use xlink:href="#H" y="461.87" class="X"/><use xlink:href="#H" y="532.926" class="W"/><use xlink:href="#H" y="568.455" class="Y"/><g class="U"><use xlink:href="#H" y="603.983"/><use xlink:href="#H" y="639.512"/></g><use xlink:href="#H" y="675.04" class="W"/><use xlink:href="#C" x="174.482" y="-675.04" class="V"/><use xlink:href="#C" x="174.482" y="-639.513" class="U"/><g class="W"><use xlink:href="#C" x="174.482" y="-603.984"/><use xlink:href="#C" x="174.482" y="-532.927"/></g><use xlink:href="#C" x="174.482" y="-497.4" class="U"/><use xlink:href="#C" x="174.482" y="-461.87" class="W"/><g class="U"><use xlink:href="#C" x="174.482" y="-426.342"/><use xlink:href="#C" x="174.482" y="-319.756"/></g><use xlink:href="#C" x="174.482" y="-284.228" class="V"/><use xlink:href="#C" x="174.482" y="-248.7" class="U"/><g class="X"><use xlink:href="#C" x="174.482" y="-213.17"/><use xlink:href="#C" x="174.482" y="-106.585"/></g><g class="U"><use xlink:href="#C" x="174.482" y="-71.057"/><use xlink:href="#C" x="174.482" y="-35.528"/></g><use xlink:href="#I" class="V"/><use xlink:href="#I" y="35.527" class="U"/><g class="W"><use xlink:href="#I" y="71.056"/><use xlink:href="#I" y="106.584"/></g><use xlink:href="#I" y="177.64" class="U"/><use xlink:href="#I" y="213.17" class="W"/><use xlink:href="#I" y="248.698" class="U"/><g class="V"><use xlink:href="#I" y="355.284"/><use xlink:href="#I" y="390.812"/></g><use xlink:href="#I" y="426.34" class="U"/><g class="X"><use xlink:href="#I" y="461.87"/><use xlink:href="#I" y="568.455"/></g><g class="U"><use xlink:href="#I" y="603.983"/><use xlink:href="#I" y="639.512"/></g><use xlink:href="#J" class="V"/><use xlink:href="#J" y="35.527" class="U"/><g class="W"><use xlink:href="#J" y="106.584"/><use xlink:href="#J" y="177.64"/><use xlink:href="#J" y="213.17"/></g><use xlink:href="#J" y="248.698" class="U"/><g class="V"><use xlink:href="#J" y="355.284"/><use xlink:href="#J" y="390.812"/></g><use xlink:href="#J" y="426.34" class="U"/><g class="X"><use xlink:href="#J" y="461.87"/><use xlink:href="#J" y="568.455"/></g><use xlink:href="#J" y="603.983" class="U"/><g class="V"><use xlink:href="#J" y="639.512"/><use xlink:href="#C" x="279.171" y="-675.04"/></g><use xlink:href="#C" x="279.171" y="-639.513" class="U"/><g class="W"><use xlink:href="#C" x="279.171" y="-568.456"/><use xlink:href="#C" x="279.171" y="-497.4"/><use xlink:href="#C" x="279.171" y="-461.87"/></g><use xlink:href="#C" x="279.171" y="-426.342" class="U"/><g class="V"><use xlink:href="#C" x="279.171" y="-319.756"/><use xlink:href="#C" x="279.171" y="-284.228"/></g><use xlink:href="#C" x="279.171" y="-248.7" class="U"/><use xlink:href="#C" x="279.171" y="-213.17" class="V"/><use xlink:href="#C" x="279.171" y="-106.585" class="X"/><use xlink:href="#C" x="279.171" y="-71.057" class="V"/><use xlink:href="#C" x="279.171" y="-35.528" class="W"/><use xlink:href="#C" x="314.067" y="-675.04" class="V"/><use xlink:href="#C" x="314.067" y="-639.513" class="U"/><g class="W"><use xlink:href="#C" x="314.067" y="-568.456"/><use xlink:href="#C" x="314.067" y="-497.4"/><use xlink:href="#C" x="314.067" y="-461.87"/></g><use xlink:href="#C" x="314.067" y="-426.342" class="U"/><use xlink:href="#C" x="314.067" y="-319.756" class="V"/><use xlink:href="#C" x="314.067" y="-284.228" class="W"/><g class="V"><use xlink:href="#C" x="314.067" y="-248.7"/><use xlink:href="#C" x="314.067" y="-213.17"/></g><use xlink:href="#C" x="314.067" y="-106.585" class="X"/><use xlink:href="#C" x="314.067" y="-71.057" class="U"/><use xlink:href="#C" x="314.067" y="-35.528" class="W"/><g class="V"><use xlink:href="#K"/><use xlink:href="#K" y="35.527"/></g><g class="W"><use xlink:href="#K" y="177.64"/><use xlink:href="#K" y="213.17"/></g><use xlink:href="#K" y="248.698" class="U"/><use xlink:href="#K" y="319.755" class="W"/><use xlink:href="#K" y="355.284" class="V"/><use xlink:href="#K" y="390.812" class="W"/><g class="V"><use xlink:href="#K" y="426.34"/><use xlink:href="#K" y="461.87"/></g><use xlink:href="#K" y="568.455" class="X"/><use xlink:href="#K" y="603.983" class="U"/><g class="W"><use xlink:href="#K" y="639.512"/><use xlink:href="#C" x="383.86" y="-675.04"/></g><use xlink:href="#C" x="383.86" y="-639.513" class="V"/><g class="W"><use xlink:href="#C" x="383.86" y="-497.4"/><use xlink:href="#C" x="383.86" y="-461.87"/></g><use xlink:href="#C" x="383.86" y="-426.342" class="U"/><use xlink:href="#C" x="383.86" y="-355.285" class="W"/><use xlink:href="#C" x="383.86" y="-319.756" class="V"/><use xlink:href="#C" x="383.86" y="-284.228" class="W"/><g class="V"><use xlink:href="#C" x="383.86" y="-248.7"/><use xlink:href="#C" x="383.86" y="-213.17"/></g><use xlink:href="#C" x="383.86" y="-106.585" class="X"/><use xlink:href="#C" x="383.86" y="-71.057" class="V"/><g class="W"><use xlink:href="#C" x="383.86" y="-35.528"/><use xlink:href="#C" x="418.757" y="-639.513"/><use xlink:href="#C" x="418.757" y="-497.4"/><use xlink:href="#C" x="418.757" y="-461.87"/></g><use xlink:href="#C" x="418.757" y="-426.342" class="U"/><g class="V"><use xlink:href="#C" x="418.757" y="-319.756"/><use xlink:href="#C" x="418.757" y="-248.7"/><use xlink:href="#C" x="418.757" y="-213.17"/></g><use xlink:href="#C" x="418.757" y="-106.585" class="U"/><use xlink:href="#C" x="418.757" y="-71.057" class="V"/><g class="W"><use xlink:href="#C" x="453.653" y="-639.513"/><use xlink:href="#C" x="453.653" y="-497.4"/><use xlink:href="#C" x="453.653" y="-461.87"/></g><use xlink:href="#C" x="453.653" y="-426.342" class="U"/><g class="V"><use xlink:href="#C" x="453.653" y="-319.756"/><use xlink:href="#C" x="453.653" y="-248.7"/><use xlink:href="#C" x="453.653" y="-213.17"/></g><use xlink:href="#C" x="453.653" y="-106.585" class="U"/><use xlink:href="#C" x="453.653" y="-71.057" class="W"/><use xlink:href="#C" x="488.549" y="-426.342" class="U"/><g class="V"><use xlink:href="#C" x="488.549" y="-319.756"/><use xlink:href="#C" x="488.549" y="-248.7"/></g><use xlink:href="#C" x="488.549" y="-213.17" class="W"/><use xlink:href="#C" x="488.549" y="-106.585" class="X"/><use xlink:href="#C" x="488.549" y="-71.057" class="W"/><use xlink:href="#L" class="U"/><use xlink:href="#L" y="106.586" class="V"/><g class="W"><use xlink:href="#L" y="177.642"/><use xlink:href="#L" y="213.172"/></g><use xlink:href="#L" y="319.757" class="U"/><use xlink:href="#C" x="558.342" y="-461.87" class="W"/><g class="V"><use xlink:href="#C" x="558.342" y="-426.342"/><use xlink:href="#C" x="558.342" y="-319.756"/></g><use xlink:href="#C" x="558.342" y="-213.17" class="W"/><use xlink:href="#C" x="558.342" y="-106.585" class="U"/><use xlink:href="#C" x="593.239" y="-461.87" class="W"/><g class="V"><use xlink:href="#C" x="593.239" y="-426.342"/><use xlink:href="#C" x="593.239" y="-319.756"/></g><use xlink:href="#C" x="593.239" y="-106.585" class="U"/><g class="W"><use xlink:href="#M"/><use xlink:href="#M" y="71.057"/><use xlink:href="#M" y="213.171"/></g><use xlink:href="#M" y="426.342" class="U"/><g class="W"><use xlink:href="#C" x="663.031" y="-532.927"/><use xlink:href="#C" x="663.031" y="-319.756"/></g><use xlink:href="#C" x="663.031" y="-106.585" class="U"/><use xlink:href="#C" x="697.928" y="-532.927" class="W"/><use xlink:href="#C" x="697.928" y="-106.585" class="V"/><g class="W"><use xlink:href="#N"/><use xlink:href="#N" y="213.171"/></g><use xlink:href="#N" y="426.342" class="V"/><g class="W"><use xlink:href="#C" x="767.721" y="-532.927"/><use xlink:href="#C" x="767.721" y="-319.756"/><use xlink:href="#C" x="767.721" y="-106.585"/><use xlink:href="#C" x="802.617" y="-532.927"/><use xlink:href="#C" x="837.513" y="-532.927"/><use xlink:href="#C" x="872.41" y="-532.927"/><use xlink:href="#C" x="872.41" y="-461.87"/></g><g class="a"><use xlink:href="#D" y="71.057"/><use xlink:href="#D" y="106.586"/><use xlink:href="#D" y="284.228"/><use xlink:href="#D" y="497.399"/><use xlink:href="#D" y="532.928"/><path d="M68.132 918.16H50.16c-9.347 0-16.924-7.577-16.924-16.924V882.63h34.896v35.53z"/><use xlink:href="#E" y="106.584"/><use xlink:href="#E" y="142.113"/><use xlink:href="#E" y="319.755"/><use xlink:href="#E" y="426.34"/><use xlink:href="#E" y="568.455"/><use xlink:href="#E" y="675.04"/><use xlink:href="#C" x="-34.897" y="-639.513"/><use xlink:href="#C" x="-34.897" y="-568.456"/><use xlink:href="#C" x="-34.897" y="-532.927"/><use xlink:href="#C" x="-34.897" y="-461.87"/><use xlink:href="#C" x="-34.897" y="-355.285"/><use xlink:href="#C" x="-34.897" y="-284.228"/><use xlink:href="#C" x="-34.897" y="-106.585"/><use xlink:href="#C" x="-34.897"/><use xlink:href="#C" y="-568.456"/><use xlink:href="#C" y="-497.4"/><use xlink:href="#C" y="-355.285"/><use xlink:href="#C" y="-319.756"/><use xlink:href="#F" y="106.584"/><use xlink:href="#F" y="497.398"/><use xlink:href="#F" y="675.04"/><use xlink:href="#C" x="69.792" y="-568.456"/><use xlink:href="#C" x="69.792" y="-177.642"/><use xlink:href="#G" y="497.398"/><use xlink:href="#H" y="106.584"/><use xlink:href="#H" y="284.227"/><use xlink:href="#H" y="319.755"/><use xlink:href="#H" y="497.398"/><use xlink:href="#C" x="174.482" y="-568.456"/><use xlink:href="#C" x="174.482" y="-390.813"/><use xlink:href="#C" x="174.482" y="-355.285"/><use xlink:href="#C" x="174.482" y="-177.642"/><use xlink:href="#C" x="174.482" y="-142.114"/><use xlink:href="#C" x="174.482"/><use xlink:href="#I" y="142.113"/><use xlink:href="#I" y="284.227"/><use xlink:href="#I" y="319.755"/><use xlink:href="#I" y="497.398"/><use xlink:href="#I" y="532.926"/><use xlink:href="#I" y="675.04"/><use xlink:href="#J" y="71.056"/><use xlink:href="#J" y="142.113"/><use xlink:href="#J" y="284.227"/><use xlink:href="#J" y="319.755"/><use xlink:href="#J" y="497.398"/><use xlink:href="#J" y="532.926"/><use xlink:href="#J" y="675.04"/><use xlink:href="#C" x="279.171" y="-603.984"/><use xlink:href="#C" x="279.171" y="-532.927"/><use xlink:href="#C" x="279.171" y="-390.813"/><use xlink:href="#C" x="279.171" y="-355.285"/><use xlink:href="#C" x="279.171" y="-177.642"/><use xlink:href="#C" x="279.171" y="-142.114"/><use xlink:href="#C" x="279.171"/><use xlink:href="#C" x="314.067" y="-603.984"/><use xlink:href="#C" x="314.067" y="-532.927"/><use xlink:href="#C" x="314.067" y="-390.813"/><use xlink:href="#C" x="314.067" y="-355.285"/><use xlink:href="#C" x="314.067" y="-177.642"/><use xlink:href="#C" x="314.067" y="-142.114"/><use xlink:href="#C" x="314.067"/><use xlink:href="#K" y="71.056"/><use xlink:href="#K" y="106.584"/><use xlink:href="#K" y="142.113"/><use xlink:href="#K" y="284.227"/><use xlink:href="#K" y="497.398"/><use xlink:href="#K" y="532.926"/><use xlink:href="#K" y="675.04"/><use xlink:href="#C" x="383.86" y="-603.984"/><use xlink:href="#C" x="383.86" y="-568.456"/><use xlink:href="#C" x="383.86" y="-532.927"/><use xlink:href="#C" x="383.86" y="-390.813"/><use xlink:href="#C" x="383.86" y="-177.642"/><use xlink:href="#C" x="383.86" y="-142.114"/><use xlink:href="#C" x="383.86"/><use xlink:href="#C" x="418.757" y="-675.04"/><use xlink:href="#C" x="418.757" y="-603.984"/><use xlink:href="#C" x="418.757" y="-568.456"/><use xlink:href="#C" x="418.757" y="-532.927"/><use xlink:href="#C" x="418.757" y="-390.813"/><use xlink:href="#C" x="418.757" y="-355.285"/><use xlink:href="#C" x="418.757" y="-284.228"/><use xlink:href="#C" x="418.757" y="-177.642"/><use xlink:href="#C" x="418.757" y="-142.114"/><use xlink:href="#C" x="418.757" y="-35.528"/><use xlink:href="#C" x="418.757"/><use xlink:href="#C" x="453.653" y="-675.04"/><use xlink:href="#C" x="453.653" y="-603.984"/><use xlink:href="#C" x="453.653" y="-568.456"/><use xlink:href="#C" x="453.653" y="-532.927"/><use xlink:href="#C" x="453.653" y="-390.813"/><use xlink:href="#C" x="453.653" y="-355.285"/><use xlink:href="#C" x="453.653" y="-284.228"/><use xlink:href="#C" x="453.653" y="-177.642"/><use xlink:href="#C" x="453.653" y="-142.114"/><use xlink:href="#C" x="453.653" y="-35.528"/><use xlink:href="#C" x="453.653"/><use xlink:href="#C" x="488.549" y="-675.04"/><use xlink:href="#C" x="488.549" y="-639.513"/><use xlink:href="#C" x="488.549" y="-603.984"/><use xlink:href="#C" x="488.549" y="-568.456"/><use xlink:href="#C" x="488.549" y="-532.927"/><use xlink:href="#C" x="488.549" y="-497.4"/><use xlink:href="#C" x="488.549" y="-461.87"/><use xlink:href="#C" x="488.549" y="-390.813"/><use xlink:href="#C" x="488.549" y="-355.285"/><use xlink:href="#C" x="488.549" y="-284.228"/><use xlink:href="#C" x="488.549" y="-177.642"/><use xlink:href="#C" x="488.549" y="-142.114"/><use xlink:href="#C" x="488.549" y="-35.528"/><use xlink:href="#C" x="488.549"/><use xlink:href="#L" y="-248.698"/><use xlink:href="#L" y="-213.171"/><use xlink:href="#L" y="-177.642"/><use xlink:href="#L" y="-142.114"/><use xlink:href="#L" y="-106.585"/><use xlink:href="#L" y="-71.058"/><use xlink:href="#L" y="-35.528"/><use xlink:href="#L" y="35.529"/><use xlink:href="#L" y="71.057"/><use xlink:href="#L" y="142.114"/><use xlink:href="#L" y="248.7"/><use xlink:href="#L" y="284.228"/><use xlink:href="#L" y="355.285"/><use xlink:href="#L" y="390.814"/><use xlink:href="#L" y="426.342"/><use xlink:href="#C" x="558.342" y="-675.04"/><use xlink:href="#C" x="558.342" y="-639.513"/><use xlink:href="#C" x="558.342" y="-603.984"/><use xlink:href="#C" x="558.342" y="-568.456"/><use xlink:href="#C" x="558.342" y="-532.927"/><use xlink:href="#C" x="558.342" y="-497.4"/><use xlink:href="#C" x="558.342" y="-390.813"/><use xlink:href="#C" x="558.342" y="-355.285"/><use xlink:href="#C" x="558.342" y="-284.228"/><use xlink:href="#C" x="558.342" y="-248.7"/><use xlink:href="#C" x="558.342" y="-177.642"/><use xlink:href="#C" x="558.342" y="-142.114"/><use xlink:href="#C" x="558.342" y="-71.057"/><use xlink:href="#C" x="558.342" y="-35.528"/><use xlink:href="#C" x="558.342"/><use xlink:href="#C" x="593.239" y="-675.04"/><use xlink:href="#C" x="593.239" y="-639.513"/><use xlink:href="#C" x="593.239" y="-603.984"/><use xlink:href="#C" x="593.239" y="-568.456"/><use xlink:href="#C" x="593.239" y="-532.927"/><use xlink:href="#C" x="593.239" y="-497.4"/><use xlink:href="#C" x="593.239" y="-390.813"/><use xlink:href="#C" x="593.239" y="-355.285"/><use xlink:href="#C" x="593.239" y="-284.228"/><use xlink:href="#C" x="593.239" y="-248.7"/><use xlink:href="#C" x="593.239" y="-213.17"/><use xlink:href="#C" x="593.239" y="-177.642"/><use xlink:href="#C" x="593.239" y="-142.114"/><use xlink:href="#C" x="593.239" y="-71.057"/><use xlink:href="#C" x="593.239" y="-35.528"/><use xlink:href="#C" x="593.239"/><use xlink:href="#M" y="-142.113"/><use xlink:href="#M" y="-106.586"/><use xlink:href="#M" y="-71.057"/><use xlink:href="#M" y="-35.529"/><use xlink:href="#M" y="35.527"/><use xlink:href="#M" y="106.585"/><use xlink:href="#M" y="142.114"/><use xlink:href="#M" y="177.642"/><use xlink:href="#M" y="248.699"/><use xlink:href="#M" y="284.227"/><use xlink:href="#M" y="319.757"/><use xlink:href="#M" y="355.285"/><use xlink:href="#M" y="390.813"/><use xlink:href="#M" y="461.87"/><use xlink:href="#M" y="497.399"/><use xlink:href="#M" y="532.927"/><use xlink:href="#C" x="663.031" y="-675.04"/><use xlink:href="#C" x="663.031" y="-639.513"/><use xlink:href="#C" x="663.031" y="-603.984"/><use xlink:href="#C" x="663.031" y="-568.456"/><use xlink:href="#C" x="663.031" y="-497.4"/><use xlink:href="#C" x="663.031" y="-461.87"/><use xlink:href="#C" x="663.031" y="-426.342"/><use xlink:href="#C" x="663.031" y="-390.813"/><use xlink:href="#C" x="663.031" y="-355.285"/><use xlink:href="#C" x="663.031" y="-284.228"/><use xlink:href="#C" x="663.031" y="-248.7"/><use xlink:href="#C" x="663.031" y="-213.17"/><use xlink:href="#C" x="663.031" y="-177.642"/><use xlink:href="#C" x="663.031" y="-142.114"/><use xlink:href="#C" x="663.031" y="-71.057"/><use xlink:href="#C" x="663.031" y="-35.528"/><use xlink:href="#C" x="663.031"/><use xlink:href="#C" x="697.928" y="-675.04"/><use xlink:href="#C" x="697.928" y="-639.513"/><use xlink:href="#C" x="697.928" y="-603.984"/><use xlink:href="#C" x="697.928" y="-568.456"/><use xlink:href="#C" x="697.928" y="-497.4"/><use xlink:href="#C" x="697.928" y="-461.87"/><use xlink:href="#C" x="697.928" y="-426.342"/><use xlink:href="#C" x="697.928" y="-390.813"/><use xlink:href="#C" x="697.928" y="-355.285"/><use xlink:href="#C" x="697.928" y="-319.756"/><use xlink:href="#C" x="697.928" y="-284.228"/><use xlink:href="#C" x="697.928" y="-248.7"/><use xlink:href="#C" x="697.928" y="-213.17"/><use xlink:href="#C" x="697.928" y="-177.642"/><use xlink:href="#C" x="697.928" y="-142.114"/><use xlink:href="#C" x="697.928" y="-71.057"/><use xlink:href="#C" x="697.928" y="-35.528"/><use xlink:href="#C" x="697.928"/><use xlink:href="#N" y="-142.113"/><use xlink:href="#N" y="-106.586"/><use xlink:href="#N" y="-71.057"/><use xlink:href="#N" y="-35.529"/><use xlink:href="#N" y="35.527"/><use xlink:href="#N" y="71.057"/><use xlink:href="#N" y="106.585"/><use xlink:href="#N" y="142.114"/><use xlink:href="#N" y="177.642"/><use xlink:href="#N" y="248.699"/><use xlink:href="#N" y="284.227"/><use xlink:href="#N" y="319.757"/><use xlink:href="#N" y="355.285"/><use xlink:href="#N" y="390.813"/><use xlink:href="#N" y="461.87"/><use xlink:href="#N" y="497.399"/><use xlink:href="#N" y="532.927"/><use xlink:href="#C" x="767.721" y="-675.04"/><use xlink:href="#C" x="767.721" y="-639.513"/><use xlink:href="#C" x="767.721" y="-603.984"/><use xlink:href="#C" x="767.721" y="-568.456"/><use xlink:href="#C" x="767.721" y="-497.4"/><use xlink:href="#C" x="767.721" y="-461.87"/><use xlink:href="#C" x="767.721" y="-426.342"/><use xlink:href="#C" x="767.721" y="-390.813"/><use xlink:href="#C" x="767.721" y="-355.285"/><use xlink:href="#C" x="767.721" y="-284.228"/><use xlink:href="#C" x="767.721" y="-248.7"/><use xlink:href="#C" x="767.721" y="-213.17"/><use xlink:href="#C" x="767.721" y="-177.642"/><use xlink:href="#C" x="767.721" y="-142.114"/><use xlink:href="#C" x="767.721" y="-71.057"/><use xlink:href="#C" x="767.721" y="-35.528"/><use xlink:href="#C" x="767.721"/><path d="M940.542 207.59h34.896v35.53h-34.896v-35.53"/><use xlink:href="#C" x="802.617" y="-639.513"/><use xlink:href="#C" x="802.617" y="-603.984"/><use xlink:href="#C" x="802.617" y="-568.456"/><use xlink:href="#C" x="802.617" y="-497.4"/><use xlink:href="#C" x="802.617" y="-461.87"/><use xlink:href="#C" x="802.617" y="-426.342"/><use xlink:href="#C" x="802.617" y="-390.813"/><use xlink:href="#C" x="802.617" y="-355.285"/><use xlink:href="#C" x="802.617" y="-319.756"/><use xlink:href="#C" x="802.617" y="-284.228"/><use xlink:href="#C" x="802.617" y="-248.7"/><use xlink:href="#C" x="802.617" y="-213.17"/><use xlink:href="#C" x="802.617" y="-177.642"/><use xlink:href="#C" x="802.617" y="-142.114"/><use xlink:href="#C" x="802.617" y="-106.585"/><use xlink:href="#C" x="802.617" y="-71.057"/><use xlink:href="#C" x="802.617" y="-35.528"/><use xlink:href="#C" x="802.617"/><use xlink:href="#C" x="837.513" y="-675.04"/><use xlink:href="#C" x="837.513" y="-639.513"/><use xlink:href="#C" x="837.513" y="-603.984"/><use xlink:href="#C" x="837.513" y="-568.456"/><use xlink:href="#C" x="837.513" y="-497.4"/><use xlink:href="#C" x="837.513" y="-461.87"/><use xlink:href="#C" x="837.513" y="-426.342"/><use xlink:href="#C" x="837.513" y="-390.813"/><use xlink:href="#C" x="837.513" y="-355.285"/><use xlink:href="#C" x="837.513" y="-319.756"/><use xlink:href="#C" x="837.513" y="-284.228"/><use xlink:href="#C" x="837.513" y="-248.7"/><use xlink:href="#C" x="837.513" y="-213.17"/><use xlink:href="#C" x="837.513" y="-177.642"/><use xlink:href="#C" x="837.513" y="-142.114"/><use xlink:href="#C" x="837.513" y="-106.585"/><use xlink:href="#C" x="837.513" y="-71.057"/><use xlink:href="#C" x="837.513" y="-35.528"/><use xlink:href="#C" x="837.513"/><path d="M1045.23 243.117h-34.896v-35.53h17.12a17.78 17.78 0 0 1 17.778 17.778v17.75z"/><use xlink:href="#C" x="872.41" y="-639.513"/><use xlink:href="#C" x="872.41" y="-603.984"/><use xlink:href="#C" x="872.41" y="-568.456"/><use xlink:href="#C" x="872.41" y="-497.4"/><use xlink:href="#C" x="872.41" y="-426.342"/><use xlink:href="#C" x="872.41" y="-390.813"/><use xlink:href="#C" x="872.41" y="-355.285"/><use xlink:href="#C" x="872.41" y="-319.756"/><use xlink:href="#C" x="872.41" y="-284.228"/><use xlink:href="#C" x="872.41" y="-248.7"/><use xlink:href="#C" x="872.41" y="-213.17"/><use xlink:href="#C" x="872.41" y="-177.642"/><use xlink:href="#C" x="872.41" y="-142.114"/><use xlink:href="#C" x="872.41" y="-106.585"/><use xlink:href="#C" x="872.41" y="-71.057"/><use xlink:href="#C" x="872.41" y="-35.528"/><path d="M1027.453 918.16h-17.12v-35.53h34.896v17.75a17.78 17.78 0 0 1-17.778 17.778z"/></g></g><g opacity=".8" class="Z"><use xlink:href="#O"/><path d="M54.938 123.32h-11.62c.252 3.192 2.324 5.516 5.376 5.516 1.512 0 3.304-.672 4.116-1.932.196-.308.42-.392.672-.392.42 0 .868.336.868.756 0 .252 0 .308-.532.924-1.288 1.512-3.164 2.24-5.124 2.24-4.508 0-7.028-3.696-7.028-7.924 0-4.2 2.52-7.896 7.028-7.896s7.028 3.724 7.028 7.896c0 .42-.393.812-.784.812zm-6.244-7.112c-3.36 0-5.124 2.576-5.376 5.516h10.78c-.252-3.192-2.324-5.516-5.404-5.516zm16.828 14.224c-2.436 0-4.256-1.008-5.432-2.66v7.252c0 .504-.42.812-.784.812-.393 0-.812-.308-.812-.812v-19.152c0-.504.42-.784.813-.784.364 0 .784.28.784.784v1.372c1.176-1.624 2.996-2.632 5.432-2.632 4.508 0 7.028 3.696 7.028 7.896 0 4.228-2.52 7.924-7.028 7.924zm0-14.224c-3.332 0-5.432 2.66-5.432 6.3s2.1 6.328 5.432 6.328 5.432-2.688 5.432-6.328-2.1-6.3-5.432-6.3zm16.184 14.224c-4.508 0-7.028-3.696-7.028-7.924 0-4.2 2.52-7.896 7.028-7.896s7.028 3.696 7.028 7.896c0 4.228-2.52 7.924-7.028 7.924zm0-14.224c-3.304 0-5.432 2.66-5.432 6.3s2.128 6.328 5.432 6.328c3.332 0 5.432-2.688 5.432-6.328s-2.1-6.3-5.432-6.3z"/><use xlink:href="#O" x="57.226"/><path d="M105.31 129.956h-.867c-2.213 0-3.305-1.092-3.305-3.276v-9.996H99.7c-.504 0-.784-.42-.784-.812 0-.364.28-.784.784-.784h1.428v-4.284c0-.504.42-.784.813-.784s.784.28.784.784v4.284h2.575c.504 0 .784.42.784.784 0 .392-.28.812-.784.812h-2.575v9.996c0 1.372.392 1.68 1.708 1.68h.867c.504 0 .784.42.784.812 0 .364-.28.784-.784.784z"/><use xlink:href="#P"/><path d="M136.893 129.956c-.392 0-.812-.28-.812-.784v-1.4c-1.176 1.652-2.995 2.66-5.432 2.66-4.508 0-7.028-3.696-7.028-7.924 0-4.2 2.52-7.896 7.028-7.896 2.437 0 4.256 1.008 5.432 2.632v-6.44c0-.504.42-.784.813-.784.364 0 .784.28.784.784v18.368c0 .504-.42.784-.784.784zm-6.244-13.748c-3.304 0-5.432 2.66-5.432 6.3s2.128 6.328 5.432 6.328c3.332 0 5.432-2.688 5.432-6.328s-2.1-6.3-5.432-6.3zm28.14 12.096c-1.23 1.372-2.94 2.128-5.012 2.128-4.508 0-7.028-3.696-7.028-7.924 0-4.2 2.52-7.896 7.028-7.896 2.072 0 3.78.756 5.012 2.128a.74.74 0 0 1 .225.532c0 .42-.393.84-.812.84-.195 0-.392-.084-.588-.28-.924-1.036-2.212-1.624-3.836-1.624-3.304 0-5.432 2.66-5.432 6.3s2.128 6.328 5.432 6.328c1.624 0 2.912-.616 3.836-1.624.196-.196.393-.28.588-.28.42 0 .813.364.813.812 0 .196-.057.364-.225.56zm17.64 1.652h-.028c-.924 0-2.24-.504-2.77-2.184-1.176 1.652-2.996 2.66-5.432 2.66-4.564 0-7.028-3.752-7.028-7.924 0-4.228 2.52-7.896 7.028-7.896 2.436 0 4.256 1.008 5.432 2.632v-1.372c0-.448.364-.784.812-.784.393 0 .784.28.784.784v11.284c0 1.792 2.017.672 2.017 2.016a.77.77 0 0 1-.812.784zm-8.23-13.748c-3.305 0-5.433 2.66-5.433 6.3s2.128 6.328 5.433 6.328c3.332 0 5.432-2.688 5.432-6.328s-2.1-6.3-5.432-6.3z"/><use xlink:href="#Q"/><use xlink:href="#P" x="83.885"/><use xlink:href="#Q" x="28.924"/></g><path d="M407.25 130.16h-19.844v-17.764h19.844a5 5 0 0 1 5 5v7.764a5 5 0 0 1-5 5z" class="Y"/><path d="M362.562 112.394h24.844v17.764h-24.844z" class="X"/><path d="M362.562 112.394v17.764h-24.844v-17.764h24.844" class="U"/><path d="M312.874 112.394h24.844v17.764h-24.844z" class="V"/><path d="M288.03 112.394h24.844v17.764H288.03z" class="W"/><path d="M288.03 130.16h-19.844a5 5 0 0 1-5-5v-7.764a5 5 0 0 1 5-5h19.844v17.764z" class="a"/><use xlink:href="#R" opacity=".8" class="Z"/><g opacity=".8" class="Z"><path d="M423.654 129.956c-.42 0-.784-.308-.784-.784v-16.744l-3.052 2.968a.69.69 0 0 1-.532.252c-.448 0-.84-.42-.84-.868 0-.168.112-.364.252-.532l4.424-4.284c.224-.168.448-.224.532-.224.588 0 .812.42.812.98v18.452c0 .476-.336.784-.812.784z"/><use xlink:href="#R" x="188.228"/><use xlink:href="#R" x="202.676"/><path d="M457.898 132.448c-.112.084-.28.112-.42.112-.448 0-.756-.392-.756-.812 0-.784 1.204-.896 1.4-1.792-.84-.056-1.512-.756-1.512-1.596 0-.952.784-1.624 1.624-1.624 1.372 0 1.68 1.4 1.68 2.268 0 1.372-.728 2.688-2.016 3.444z"/><use xlink:href="#R" x="223.675"/><use xlink:href="#R" x="238.123"/><use xlink:href="#R" x="252.57"/><path d="M515.605 121.248h-3.584v3.556a.8.8 0 0 1-.812.84c-.392 0-.784-.28-.784-.784v-3.612h-3.584c-.504 0-.812-.42-.812-.812 0-.364.308-.784.812-.784h3.584v-3.584c0-.532.392-.84.784-.84s.812.308.812.812v3.612h3.584c.532 0 .812.42.812.784 0 .392-.28.812-.812.812z"/></g><g opacity=".4" class="Z"><path d="M41.608 1049.08c-3.568 0-5.47-1.97-5.503-2.002 0 .935-.7 1.4-1.468 1.4-.7 0-1.4-.467-1.4-1.4v-20.88a1.35 1.35 0 0 1 1.401-1.434c.767 0 1.468.467 1.468 1.4v6.238c1.334-1.368 3.168-2.17 5.503-2.17 5.37 0 8.373 4.403 8.373 9.406 0 5.037-3.002 9.44-8.373 9.44zm0-16c-3.335 0-5.503 2.602-5.503 6.57 0 4.003 2.168 6.604 5.503 6.604s5.504-2.602 5.504-6.604c0-3.97-2.168-6.57-5.504-6.57zm25.554 8.038H54.82c.467 3.136 2.468 5.137 5.403 5.137 1.5 0 3.002-.533 3.97-1.734.3-.333.634-.533 1.034-.533.734 0 1.5.667 1.5 1.468 0 .4-.1.7-.8 1.4-1.5 1.468-3.57 2.235-5.704 2.235-5.37 0-8.372-4.437-8.372-9.44 0-4.97 3.002-9.406 8.372-9.406 5.437 0 8.34 4.437 8.34 9.406 0 .734-.534 1.468-1.4 1.468zm-6.938-8.038c-3.136 0-4.97 2.3-5.403 5.17h10.807c-.467-3.202-2.468-5.17-5.403-5.17zm27.054 15.443c-1.834 0-2.668-1.3-2.97-1.9-1.334 1.468-3.27 2.47-5.87 2.47-5.437 0-8.372-4.47-8.372-9.44s3.002-9.406 8.372-9.406c2.335 0 4.203.834 5.504 2.202v-.134c0-.367.133-1.5 1.4-1.5.7 0 1.468.367 1.468 1.4v12.875c0 .434.3.6.467.6.935 0 1.435.667 1.435 1.434a1.37 1.37 0 0 1-1.435 1.401zm-8.84-15.443c-3.336 0-5.504 2.602-5.504 6.57 0 4.003 2.168 6.604 5.504 6.604 3.37 0 5.504-2.602 5.504-6.604 0-3.97-2.135-6.57-5.504-6.57z"/><use xlink:href="#S"/><path d="M114.438 1048.513h-.567c-3.17 0-4.37-1.668-4.37-4.403v-10.474h-1c-.8 0-1.435-.634-1.435-1.4 0-.8.634-1.435 1.4-1.435h1v-4.637c0-.934.7-1.4 1.435-1.4s1.4.467 1.4 1.4v4.637h2.135c.934 0 1.4.768 1.4 1.4 0 .8-.533 1.434-1.4 1.434H112.3v10.774c0 .934.333 1.268 1.268 1.268h.833c.868 0 1.435.634 1.435 1.4 0 .8-.533 1.435-1.4 1.435zm4.602-20.413a2.401 2.401 0 1 1 0-4.803 2.401 2.401 0 1 1 0 4.803zm0 20.414c-.733 0-1.467-.5-1.467-1.4v-14.876c0-.935.733-1.435 1.467-1.435a1.37 1.37 0 0 1 1.401 1.435v14.876c0 .935-.7 1.4-1.4 1.4zm10.377-14.878h-1.5v13.442c0 .935-.7 1.4-1.468 1.4-.7 0-1.4-.467-1.4-1.4v-13.442h-1.367c-.9 0-1.4-.667-1.4-1.4 0-.768.5-1.435 1.4-1.435h1.367v-2.27c0-2.135 1.77-3.77 3.836-3.77.968 0 1.468.667 1.468 1.434 0 .7-.5 1.4-1.468 1.4-.566 0-.967.434-.967.9v2.302h1.5c.967 0 1.468.667 1.468 1.435 0 .733-.5 1.4-1.468 1.4z"/><use xlink:href="#S" x="42.069"/><path d="M154.004 1048.58c-1.802 0-3.336-1.534-3.336-3.402v-18.98c0-.967.7-1.434 1.435-1.434s1.435.467 1.435 1.4v19.013c0 .4.3.567.467.567.934 0 1.435.667 1.435 1.435 0 .733-.5 1.4-1.435 1.4zm15.37-.067v-1.264c1.886-.237 2.046-.437 2.046-3.157v-6.7c0-2.8-1.248-4.017-3.064-4.017-1.237 0-2.345.6-3.47 1.493v9.476c0 2.527.187 2.658 2.06 2.896v1.264h-8.968v-1.264c2.254-.33 2.5-.4 2.5-3v-8.2c0-2.446-.303-2.565-2.185-2.922v-1.184c2.173-.292 4.63-.807 6.653-1.533l-.052 2.95 2.6-1.745c1.16-.713 2-1.086 3.16-1.086 3.194 0 5.2 2.338 5.2 6.3v7.5c0 2.54.237 2.657 2.277 2.92v1.264h-8.74zm23.9-3.703c-2.458 3.427-5.488 4.178-7.014 4.178-5.142 0-8.124-3.936-8.124-8.594 0-2.745 1.183-5.396 2.832-7.062 1.74-1.8 3.945-2.814 6.082-2.814 3.73 0 6.396 3.126 6.37 6.347-.014.715-.08 1.277-.612 1.4-.767.184-6.17.5-10.318.647.062 4.587 2.717 6.74 5.556 6.74 1.572 0 3.104-.597 4.543-1.866l.686 1.014zm-7.07-12.7c-1.667 0-3.167 1.807-3.516 4.963l5.486-.118c.6-.026.848-.146.848-.792.04-2.022-1.037-4.053-2.818-4.053zm34.284.144c-1.943.343-2.248.624-3.105 2.765-1.33 3.462-3.102 8.53-4.934 13.94h-1.512l-4.65-11.46-4.55 11.46h-1.472l-4.685-14.192c-.687-1.985-.94-2.274-2.855-2.512v-1.25h9.397v1.25c-2.325.345-2.535.672-2.058 2.133l2.52 8.214c1.507-3.68 2.988-7.62 4.327-11.424h1.456c1.4 3.76 2.986 7.702 4.573 11.568.742-2.107 2.062-5.964 2.557-8.108.412-1.674-.008-2.078-2.753-2.383v-1.25h7.742v1.25zm9.4 3.746c-.92-2.606-2.155-3.984-4.2-3.984-1.206 0-2.225.86-2.225 2.266 0 1.497 1.046 2.264 3.16 3.216 3.278 1.496 5.3 2.787 5.3 5.736 0 3.85-3.6 5.764-6.945 5.764-2.06 0-4.088-.737-4.92-1.16l-.662-4.892 1.252-.224c.8 2.5 2.33 4.75 4.976 4.75 1.505 0 2.438-.952 2.438-2.28 0-1.423-.76-2.333-3.092-3.467-2.67-1.295-5.107-2.64-5.107-5.775 0-3.046 2.533-5.42 6.565-5.42 1.818 0 3.242.396 4.112.567l.62 4.577-1.25.328z"/></g><g opacity=".4" class="Z"><path d="M832.427 1049.493c-1.2 0-3.22-.42-3.92-1.58-.08-.12-.08-.22-.08-.3 0-.32.28-.6.58-.6.12 0 .32.1.44.28.72.88 2 1.06 2.98 1.06 1.94 0 2.92-.64 2.92-1.94 0-3.02-6.562-1.42-6.562-5.422 0-2.02 2.02-2.8 3.84-2.8 1.04 0 2.64.36 3.44 1.16.12.12.18.26.18.38a.65.65 0 0 1-.62.6.53.53 0 0 1-.38-.16c-.62-.6-1.74-.84-2.62-.84-1.76 0-2.7.68-2.7 1.66 0 2.8 6.562 1.32 6.562 5.422 0 2.28-2 3.08-4.06 3.08z"/><use xlink:href="#T"/><use xlink:href="#U"/><use xlink:href="#V"/><path d="M877.068 1047.932c-.88.98-2.1 1.52-3.58 1.52-3.22 0-5.02-2.64-5.02-5.66 0-3 1.8-5.64 5.02-5.64 1.48 0 2.7.54 3.58 1.52a.53.53 0 0 1 .16.381.63.63 0 0 1-.58.6c-.14 0-.28-.06-.42-.2-.66-.74-1.58-1.16-2.74-1.16-2.36 0-3.88 1.9-3.88 4.5s1.52 4.52 3.88 4.52c1.16 0 2.08-.44 2.74-1.16.14-.14.28-.2.42-.2.3 0 .58.26.58.58a.57.57 0 0 1-.16.399zm11.582-3.56h-8.302c.18 2.28 1.66 3.94 3.84 3.94 1.08 0 2.36-.48 2.94-1.38.14-.22.3-.28.48-.28.3 0 .62.24.62.54 0 .18 0 .22-.38.66-.92 1.08-2.26 1.6-3.66 1.6-3.22 0-5.02-2.64-5.02-5.66 0-3 1.8-5.64 5.02-5.64s5.02 2.66 5.02 5.64c0 .3-.28.58-.56.58zm-4.46-5.08c-2.4 0-3.66 1.84-3.84 3.94h7.7c-.18-2.28-1.66-3.94-3.86-3.94zm8.436 3.26c-.64 0-1.16-.5-1.16-1.14s.52-1.14 1.16-1.14c.62 0 1.12.5 1.12 1.14s-.5 1.14-1.12 1.14zm0 6.562c-.64 0-1.16-.5-1.16-1.14s.52-1.14 1.16-1.14c.62 0 1.12.5 1.12 1.14s-.5 1.14-1.12 1.14zm14.22.34c-4.3 0-5.82-3.56-5.82-7.46 0-3.92 1.52-7.482 5.82-7.482 4.28 0 5.82 3.562 5.82 7.482 0 3.9-1.54 7.46-5.82 7.46zm0-13.803c-3.32 0-4.682 2.6-4.682 6.342 0 3.72 1.36 6.32 4.682 6.32 3.3 0 4.68-2.6 4.68-6.32 0-3.74-1.38-6.342-4.68-6.342z"/><use xlink:href="#U" x="64.619"/><use xlink:href="#V" x="64.62"/><path d="M947.888 1035.59l-3.52 13.103a.55.55 0 0 1-.56.42c-.24 0-.48-.14-.54-.42l-3-11.083-2.98 11.083c-.06.28-.3.42-.54.42-.26 0-.48-.14-.56-.42l-3.52-13.103c-.02-.06-.02-.12-.02-.18a.58.58 0 0 1 .58-.58c.26 0 .46.14.52.44l3 11.082 2.98-11.082c.08-.28.3-.4.54-.4.26 0 .48.12.56.4l2.98 11.082 3-11.082c.08-.3.28-.44.52-.44a.58.58 0 0 1 .58.58c0 .06 0 .12-.02.18z"/><use xlink:href="#T" x="111.258"/><use xlink:href="#V" x="99.478"/><use xlink:href="#W"/><use xlink:href="#X"/><path d="M987.605 1049.113h-2.28c-.36 0-.58-.3-.58-.56a.58.58 0 0 1 .58-.58h.56V1036h-.56c-.36 0-.58-.28-.58-.56s.22-.56.58-.56h2.28c.36 0 .56.28.56.56s-.2.56-.56.56h-.58v11.982h.58c.36 0 .56.3.56.58 0 .26-.2.56-.56.56z"/><use xlink:href="#Y"/><path d="M1007.365 1049.113h-4.44c-.3 0-.58-.28-.58-.56v-13.122c0-.3.28-.56.58-.56h4.44c4.12 0 5.48 3.44 5.48 7.102 0 3.72-1.36 7.142-5.48 7.142zm0-13.123h-3.88v11.982h3.88c3.42 0 4.34-2.96 4.34-5.98 0-3.562-1.24-6.002-4.34-6.002z"/><use xlink:href="#Z"/><use xlink:href="#a"/><use xlink:href="#Z" x="18.88"/></g><g opacity=".5" class="Z"><path d="M441.106 1041.07c-.1 0-.18 0-.3-.08l-2.6-1.5v3a.56.56 0 0 1-.56.58c-.28 0-.58-.2-.58-.58v-3l-2.6 1.5c-.08.04-.2.08-.3.08-.3 0-.56-.28-.56-.58 0-.18.1-.36.3-.48l2.6-1.5-2.6-1.5c-.2-.12-.3-.3-.3-.48 0-.3.26-.6.56-.6.1 0 .22.02.3.1l2.6 1.5v-3.02c0-.36.3-.56.58-.56.26 0 .56.2.56.56v3.02l2.6-1.5c.12-.08.2-.1.3-.1.34 0 .58.3.58.6 0 .18-.1.36-.3.48l-2.6 1.5 2.6 1.5c.2.12.3.3.3.48a.58.58 0 0 1-.581.58zm8.218-4.5c-.64 0-1.14-.5-1.14-1.14s.5-1.14 1.14-1.14 1.14.5 1.14 1.14-.5 1.14-1.14 1.14zm0 12.543c-.28 0-.58-.18-.58-.56v-9.502c0-.36.28-.56.58-.56.26 0 .56.18.56.56v9.502c0 .36-.26.56-.56.56z"/><use xlink:href="#Y" x="-537.84"/><path d="M472.646 1047.932c-.88.98-2.1 1.52-3.58 1.52-3.22 0-5.02-2.64-5.02-5.66 0-3 1.8-5.64 5.02-5.64 1.48 0 2.7.54 3.58 1.52a.53.53 0 0 1 .16.381c0 .3-.28.6-.58.6-.14 0-.28-.06-.42-.2-.66-.74-1.58-1.16-2.74-1.16-2.36 0-3.88 1.9-3.88 4.5s1.52 4.52 3.88 4.52c1.16 0 2.08-.44 2.74-1.16.14-.14.28-.2.42-.2.3 0 .58.26.58.58a.57.57 0 0 1-.16.399z"/><use xlink:href="#W" x="-493.2"/><use xlink:href="#U" x="-370.962"/><use xlink:href="#X" x="-481.421"/><path d="M512.806 1044.372h-8.302c.18 2.28 1.66 3.94 3.84 3.94 1.08 0 2.36-.48 2.94-1.38.14-.22.3-.28.48-.28.3 0 .62.24.62.54 0 .18 0 .22-.38.66-.92 1.08-2.26 1.6-3.66 1.6-3.22 0-5.02-2.64-5.02-5.66 0-3 1.8-5.64 5.02-5.64s5.02 2.66 5.02 5.64c0 .3-.28.58-.56.58zm-4.46-5.08c-2.4 0-3.66 1.84-3.84 3.94h7.702c-.18-2.28-1.66-3.94-3.86-3.94zm10.738 10.2c-1.2 0-3.22-.42-3.92-1.58-.08-.12-.08-.22-.08-.3 0-.32.28-.6.58-.6.12 0 .32.1.44.28.72.88 2 1.06 2.98 1.06 1.94 0 2.92-.64 2.92-1.94 0-3.02-6.56-1.42-6.56-5.422 0-2.02 2.02-2.8 3.84-2.8 1.04 0 2.64.36 3.44 1.16a.56.56 0 0 1 .18.38.65.65 0 0 1-.62.6.53.53 0 0 1-.38-.16c-.62-.6-1.74-.84-2.62-.84-1.76 0-2.7.68-2.7 1.66 0 2.8 6.562 1.32 6.562 5.422 0 2.28-2 3.08-4.06 3.08z"/><use xlink:href="#b"/><use xlink:href="#T" x="-297.184"/><use xlink:href="#U" x="-297.183"/><use xlink:href="#a" x="-463.042"/><path d="M579.745 1049.113c-.28 0-.58-.2-.58-.56v-5.84c0-1.9-1.52-3.42-3.42-3.42a3.42 3.42 0 0 0-3.421 3.421v5.84c0 .36-.3.56-.56.56-.28 0-.58-.2-.58-.56v-13.122c0-.36.3-.56.58-.56.26 0 .56.2.56.56v4.26c.84-.98 2.06-1.54 3.42-1.54a4.6 4.6 0 0 1 4.561 4.561v5.84c0 .36-.3.56-.56.56z"/><use xlink:href="#b" x="57.72"/><use xlink:href="#U" x="-251.423"/><use xlink:href="#X" x="-361.883"/><use xlink:href="#Z" x="-392.021"/><use xlink:href="#Y" x="-354.402"/></g><g opacity=".6" class="Z"><path d="M190.634 724.272h-5.992v7.42a1.17 1.17 0 0 1-1.176 1.204c-.672 0-1.232-.448-1.232-1.176v-17.556c0-.505.336-1.204 1.176-1.204h7.252c2.464 0 5.628 1.932 5.628 5.628 0 3.164-2.52 5.684-5.656 5.684zm0-8.932h-5.992v6.552h5.964a3.26 3.26 0 0 0 3.276-3.276c0-1.82-1.456-3.275-3.248-3.275z"/><use xlink:href="#c"/><path d="M226.53 720.072l-4.172 4.172 4.34 6.805c.112.224.196.447.196.672 0 .672-.616 1.204-1.26 1.204-.336 0-.7-.168-.952-.56l-4.088-6.355-2.38 2.38v3.332c0 .756-.644 1.176-1.176 1.176-.616 0-1.232-.42-1.232-1.176v-17.584c0-.784.588-1.176 1.176-1.176.644 0 1.232.392 1.232 1.176V725l6.608-6.608a1.2 1.2 0 0 1 .896-.364c.616 0 1.204.56 1.204 1.204 0 .28-.14.588-.392.84z"/><use xlink:href="#d"/><path d="M239.746 733.372c-1.54 0-4.116-.476-5.432-2.1-.168-.252-.252-.504-.252-.728 0-.7.672-1.26 1.26-1.26.336 0 .588.168.868.477.868.952 2.296 1.23 3.556 1.23 2.52 0 3.332-.868 3.332-2.128 0-3.584-8.54-1.372-8.54-7.14 0-3.052 2.856-4.172 5.516-4.172 1.512 0 5.068.756 5.068 2.324 0 .615-.504 1.26-1.176 1.26-.252 0-.644-.14-.924-.364-.756-.644-1.848-.84-2.968-.84-2.324 0-3.136.868-3.136 1.792 0 3.332 8.568 1.176 8.568 7.14 0 3.305-2.772 4.508-5.74 4.508z"/><use xlink:href="#e"/><use xlink:href="#c" x="56.924"/><use xlink:href="#f"/><use xlink:href="#g"/><path d="M977.62 803.52c-.532 0-1.064-.31-1.176-.925-1.12.868-2.492 1.4-4.032 1.4a6.44 6.44 0 0 1-6.384-6.384v-7.756a1.15 1.15 0 0 1 1.176-1.204c.644 0 1.232.42 1.232 1.176v7.784c0 2.184 1.82 4.004 3.976 4.004 2.184 0 4.004-1.82 4.004-4.004v-7.756c0-.868.56-1.232 1.176-1.232.644 0 1.204.42 1.204 1.204v12.516c0 .784-.56 1.177-1.176 1.177z"/><use xlink:href="#h"/><use xlink:href="#c" x="800.287" y="70.594"/><path d="M1027.656 803.5c-.616 0-1.176-.42-1.176-1.176v-7.784c0-2.184-1.82-4.004-4.004-4.004-2.156 0-3.976 1.82-3.976 4.004v7.756c0 .784-.588 1.232-1.232 1.232a1.15 1.15 0 0 1-1.176-1.204V789.8c0-.812.588-1.176 1.176-1.176.56 0 1.064.3 1.204.924a6.38 6.38 0 0 1 4.004-1.399 6.44 6.44 0 0 1 6.384 6.384v7.756c0 .784-.56 1.204-1.204 1.204zm8.544-15.305c-.112 0-.24-.048-.352-.096l-1.537-.896v1.776c0 .448-.32.688-.688.688-.352 0-.672-.24-.672-.672v-1.793l-1.553.896a.8.8 0 0 1-.368.096c-.384 0-.688-.352-.688-.72 0-.225.096-.417.352-.56l1.553-.896-1.52-.896c-.256-.144-.368-.353-.368-.56 0-.368.304-.72.688-.72.112 0 .24.016.352.096l1.52.896v-1.776a.66.66 0 0 1 .688-.688c.352 0 .688.24.688.672v1.793l1.553-.896c.128-.08.256-.096.368-.096.384 0 .672.352.672.72 0 .208-.096.417-.352.56l-1.553.896 1.537.896c.256.144.368.336.368.56 0 .352-.32.72-.688.72zm-354.34 32.277h-4.648v16.38c0 .756-.56 1.176-1.176 1.176-.588 0-1.204-.42-1.204-1.176v-16.38h-4.592a1.18 1.18 0 0 1-1.232-1.204c0-.56.42-1.176 1.204-1.176h11.648c.784 0 1.204.615 1.204 1.176 0 .588-.42 1.204-1.204 1.204z"/><use xlink:href="#i"/><use xlink:href="#j"/><use xlink:href="#i" x="33.013"/><path d="M572.316 874.05c-3.836 0-7.028-3.08-7.028-7.028v-12.235c0-.784.588-1.176 1.204-1.176s1.204.392 1.204 1.176v12.235c0 2.576 2.072 4.648 4.62 4.648s4.648-2.072 4.648-4.648v-12.207c0-.812.56-1.204 1.176-1.204.644 0 1.204.392 1.204 1.176v12.235c0 3.837-3.08 7.028-7.028 7.028z"/><use xlink:href="#j" x="-116.401" y="35.53"/><use xlink:href="#c" x="400.694" y="140.65"/><use xlink:href="#k"/><use xlink:href="#h" x="-349.78" y="70.055"/><use xlink:href="#c" x="450.506" y="140.65"/><path d="M335.083 893.127l-5.544 10.332v6.636c0 .784-.588 1.204-1.232 1.204-.588 0-1.176-.392-1.176-1.176v-6.664l-5.544-10.36c-.14-.224-.168-.42-.168-.588 0-.672.644-1.204 1.26-1.204.364 0 .756.196 1.008.672l4.62 8.624 4.676-8.624c.252-.447.644-.615 1.008-.615.644 0 1.26.504 1.26 1.176 0 .196-.028.364-.168.588z"/><use xlink:href="#l"/><path d="M369.882 911.3c-.588 0-1.176-.42-1.176-1.176v-8.82c0-1.624-1.344-2.968-2.94-2.968-1.652 0-2.968 1.344-2.968 2.94v8.82c0 .784-.56 1.204-1.204 1.204-.616 0-1.176-.42-1.176-1.176v-8.82a2.99 2.99 0 0 0-2.968-2.968c-1.624 0-2.968 1.344-2.968 2.94v8.82c0 .784-.588 1.204-1.232 1.204-.588 0-1.176-.42-1.176-1.176v-12.517c0-.812.616-1.203 1.232-1.203.392 0 .784.168 1.008.53a5.4 5.4 0 0 1 3.108-.979c1.68 0 3.192.756 4.172 1.988.98-1.232 2.464-1.988 4.144-1.988 2.968 0 5.376 2.38 5.376 5.32v8.82c0 .784-.588 1.204-1.232 1.204z"/><use xlink:href="#l" x="38.052"/><use xlink:href="#k" x="-226.364" y="37.754"/><path d="M647.532 270.67H640c-.644 0-1.232-.588-1.232-1.176v-17.556c0-.672.504-1.204 1.176-1.204h6.944c2.856 0 5.236 2.352 5.236 5.18a5.04 5.04 0 0 1-1.596 3.724c1.792 1.008 2.94 2.912 2.94 5.096a5.98 5.98 0 0 1-5.936 5.936zm-.644-17.556h-5.712v5.656h5.712c1.792 0 2.828-1.512 2.828-2.828a2.84 2.84 0 0 0-2.828-2.828zm.644 8.036h-6.356v7.14h6.356c1.904 0 3.528-1.652 3.528-3.556 0-1.96-1.624-3.584-3.528-3.584zm19.57 9.548c-.532 0-1.064-.308-1.176-.924-1.12.868-2.492 1.4-4.032 1.4a6.44 6.44 0 0 1-6.384-6.384v-7.756a1.15 1.15 0 0 1 1.176-1.204c.644 0 1.232.42 1.232 1.176v7.784c0 2.184 1.82 4.004 3.976 4.004 2.184 0 4.004-1.82 4.004-4.004v-7.756c0-.868.56-1.232 1.176-1.232.644 0 1.204.42 1.204 1.204v12.516c0 .784-.56 1.176-1.176 1.176z"/><use xlink:href="#m"/><path d="M691.1 257.846l-4.172 4.172 4.34 6.804c.112.224.196.448.196.672 0 .672-.616 1.204-1.26 1.204-.336 0-.7-.168-.952-.56l-4.088-6.356-2.38 2.38v3.332c0 .756-.644 1.176-1.176 1.176-.616 0-1.232-.42-1.232-1.176V251.9c0-.784.588-1.176 1.176-1.176.644 0 1.232.392 1.232 1.176v10.864l6.608-6.608a1.2 1.2 0 0 1 .896-.364c.616 0 1.204.56 1.204 1.204 0 .28-.14.588-.392.84z"/><use xlink:href="#n"/><path d="M711.203 270.67c-.616 0-1.176-.42-1.176-1.176V261.7c0-2.184-1.82-4.004-4.004-4.004-2.156 0-3.976 1.82-3.976 4.004v7.756c0 .784-.588 1.232-1.232 1.232a1.15 1.15 0 0 1-1.176-1.204v-12.516c0-.812.588-1.176 1.176-1.176.56 0 1.064.308 1.204.924 1.092-.868 2.464-1.4 4.004-1.4a6.44 6.44 0 0 1 6.384 6.384v7.756c0 .784-.56 1.204-1.204 1.204z"/><use xlink:href="#o"/><path d="M751.802 253.114H741.33v5.656h7.336c.7 0 1.204.56 1.204 1.204s-.476 1.204-1.204 1.204h-7.336v8.316c0 .644-.56 1.176-1.176 1.176-.672 0-1.232-.532-1.232-1.176v-17.556c0-.672.56-1.204 1.232-1.204h11.648c.728 0 1.176.532 1.176 1.176 0 .588-.42 1.204-1.176 1.204z"/><use xlink:href="#o" x="37.489"/><path d="M774.788 271.146c-1.54 0-4.116-.476-5.432-2.1-.168-.252-.252-.504-.252-.728 0-.7.672-1.26 1.26-1.26.336 0 .588.168.868.476.868.952 2.296 1.232 3.556 1.232 2.52 0 3.332-.868 3.332-2.128 0-3.584-8.54-1.372-8.54-7.14 0-3.052 2.856-4.172 5.516-4.172 1.512 0 5.068.756 5.068 2.324 0 .616-.504 1.26-1.176 1.26-.252 0-.644-.14-.924-.364-.756-.644-1.848-.84-2.968-.84-2.324 0-3.136.868-3.136 1.792 0 3.332 8.568 1.176 8.568 7.14 0 3.304-2.772 4.508-5.74 4.508z"/><use xlink:href="#p"/><path d="M577.15 235.033h-7.532c-.644 0-1.232-.588-1.232-1.176V216.3c0-.672.504-1.204 1.176-1.204h6.944c2.856 0 5.236 2.352 5.236 5.18a5.04 5.04 0 0 1-1.596 3.724c1.792 1.008 2.94 2.912 2.94 5.096a5.98 5.98 0 0 1-5.936 5.936zm-.644-17.556h-5.712v5.656h5.712c1.792 0 2.828-1.512 2.828-2.828a2.84 2.84 0 0 0-2.828-2.828zm.644 8.036h-6.356v7.14h6.356c1.904 0 3.528-1.652 3.528-3.556 0-1.96-1.624-3.584-3.528-3.584z"/><use xlink:href="#q"/><path d="M612.795 235.033c-.616 0-1.176-.42-1.176-1.176v-7.784c0-2.184-1.82-4.004-4.004-4.004-2.156 0-3.976 1.82-3.976 4.004v7.756c0 .784-.588 1.232-1.232 1.232a1.15 1.15 0 0 1-1.176-1.204V221.34c0-.812.588-1.176 1.176-1.176.56 0 1.064.308 1.204.924a6.38 6.38 0 0 1 4.004-1.4 6.44 6.44 0 0 1 6.384 6.384v7.756c0 .784-.56 1.204-1.204 1.204zm5.655-17.136c-1.12 0-2.016-.896-2.016-2.016s.896-2.016 2.016-2.016 2.016.896 2.016 2.016-.896 2.016-2.016 2.016zm0 17.136c-.616 0-1.232-.42-1.232-1.176V221.37c0-.784.616-1.204 1.232-1.204a1.15 1.15 0 0 1 1.176 1.204v12.488c0 .784-.588 1.176-1.176 1.176zm16.268 0c-.616 0-1.176-.42-1.176-1.176v-7.784c0-2.184-1.82-4.004-4.004-4.004-2.156 0-3.976 1.82-3.976 4.004v7.756c0 .784-.588 1.232-1.232 1.232a1.15 1.15 0 0 1-1.176-1.204V221.34c0-.812.588-1.176 1.176-1.176.56 0 1.064.308 1.204.924 1.092-.868 2.464-1.4 4.004-1.4a6.44 6.44 0 0 1 6.384 6.384v7.756c0 .784-.56 1.204-1.204 1.204z"/><use xlink:href="#r"/><use xlink:href="#o" x="-306.407" y="35.42"/><path d="M444.024 306.09c-.588 0-1.176-.42-1.176-1.176v-8.82c0-1.624-1.344-2.968-2.94-2.968-1.652 0-2.968 1.344-2.968 2.94v8.82c0 .784-.56 1.204-1.204 1.204-.616 0-1.176-.42-1.176-1.176v-8.82a2.99 2.99 0 0 0-2.968-2.968c-1.624 0-2.968 1.344-2.968 2.94v8.82c0 .784-.588 1.204-1.232 1.204-.588 0-1.176-.42-1.176-1.176V292.4c0-.812.616-1.204 1.232-1.204.392 0 .784.168 1.008.532.868-.616 1.96-.98 3.108-.98a5.3 5.3 0 0 1 4.172 1.988c.98-1.232 2.464-1.988 4.144-1.988 2.968 0 5.376 2.38 5.376 5.32v8.82c0 .784-.588 1.204-1.232 1.204z"/><use xlink:href="#q" x="-136.962" y="71.058"/><use xlink:href="#m" x="-207.43" y="35.421"/><use xlink:href="#p" x="-309.904" y="35.421"/><use xlink:href="#p" x="-293.721" y="35.421"/><path d="M516.88 306.09c-.616 0-1.176-.42-1.176-1.176v-7.784c0-2.184-1.82-4.004-4.004-4.004-2.156 0-3.976 1.82-3.976 4.004v7.756c0 .784-.588 1.232-1.232 1.232a1.15 1.15 0 0 1-1.176-1.204V292.4c0-.812.588-1.176 1.176-1.176.56 0 1.064.308 1.204.924a6.38 6.38 0 0 1 4.004-1.4 6.44 6.44 0 0 1 6.384 6.384v7.756c0 .784-.56 1.204-1.204 1.204z"/><use xlink:href="#r" x="103.994" y="34.528"/><use xlink:href="#s"/><path d="M540.148 340.62c-.42 0-.84-.224-1.064-.728l-1.484-3.64h-9.324l-1.512 3.64c-.224.504-.644.728-1.036.728-.616 0-1.26-.476-1.26-1.176a.92.92 0 0 1 .112-.476l7.196-17.5c.336-.728.784-.868 1.148-.868.252 0 .868.14 1.148.868l7.224 17.5c.056.14.084.308.084.476 0 .7-.588 1.176-1.232 1.176zm-7.224-15.68l-3.668 8.904h7.336l-3.668-8.904zm13.854 3.192h-1.26v11.284c0 .784-.588 1.176-1.232 1.176-.588 0-1.176-.392-1.176-1.176v-11.284h-1.148c-.756 0-1.176-.56-1.176-1.176 0-.644.42-1.204 1.176-1.204h1.148v-1.904c0-1.792 1.484-3.164 3.22-3.164.812 0 1.232.56 1.232 1.204 0 .588-.42 1.176-1.232 1.176-.476 0-.812.364-.812.756v1.932h1.26c.812 0 1.232.56 1.232 1.204 0 .616-.42 1.176-1.232 1.176z"/><use xlink:href="#m" x="-121.725" y="69.95"/><use xlink:href="#n" x="-134.997" y="69.95"/><path d="M576.038 338.968c-1.232 1.372-2.94 2.128-5.012 2.128-4.508 0-7.028-3.696-7.028-7.924 0-4.2 2.52-7.896 7.028-7.896 2.072 0 3.78.756 5.012 2.128.224.252.336.532.336.812 0 .616-.616 1.204-1.26 1.204-.252 0-.56-.112-.868-.392-.784-.868-1.82-1.372-3.22-1.372-2.8 0-4.62 2.184-4.62 5.516 0 3.36 1.82 5.544 4.62 5.544 1.4 0 2.464-.532 3.22-1.372.252-.308.588-.42.868-.42.644 0 1.26.56 1.26 1.232 0 .252-.112.56-.336.812z"/><use xlink:href="#o" x="-136.733" y="69.95"/><use xlink:href="#t"/><path d="M630.89 340.647c-.308 0-.672-.168-.924-.504l-5.824-8.148h-3.612v7.42c0 .784-.588 1.204-1.232 1.204-.588 0-1.176-.42-1.176-1.176v-17.556c0-.504.336-1.204 1.176-1.204h7.252c2.464 0 5.628 1.932 5.628 5.628 0 2.94-2.212 5.404-5.152 5.656l4.9 6.748a1.1 1.1 0 0 1 .252.728c0 .672-.644 1.204-1.288 1.204zm-4.368-17.584h-5.992v6.552h5.964c1.82 0 3.276-1.484 3.276-3.304 0-1.904-1.624-3.248-3.248-3.248z"/><use xlink:href="#q" x="49.566" y="105.587"/><use xlink:href="#u"/><use xlink:href="#s" x="154.467"/><use xlink:href="#r" x="579.658" y="72.057"/><use xlink:href="#v"/><use xlink:href="#o" x="289.182" y="107.478"/><use xlink:href="#w"/><use xlink:href="#r" x="243.39" y="106.585"/><use xlink:href="#p" x="-130.298" y="142.007"/><path d="M673.47 412.677h-.476c-2.66 0-3.668-1.4-3.668-3.696v-8.792h-.84a1.19 1.19 0 1 1-.028-2.38h.84v-3.892c0-.784.588-1.176 1.204-1.176s1.176.392 1.176 1.176v3.892h1.792c.784 0 1.176.644 1.176 1.176 0 .672-.448 1.204-1.176 1.204h-1.792v9.044c0 .784.28 1.064 1.064 1.064h.7c.728 0 1.204.532 1.204 1.176 0 .672-.448 1.204-1.176 1.204z"/><use xlink:href="#q" x="91.223" y="177.643"/><use xlink:href="#w" x="-323.052" y="34.53"/><path d="M717.848 398.537c-.056.756-.644 1.148-1.176 1.148s-1.12-.392-1.176-1.148l-.392-4.648v-.168c0-.868.756-1.484 1.568-1.484.84 0 1.596.644 1.596 1.456v.14l-.42 4.704zm6.804 14.14h-3.22c-.756 0-1.176-.588-1.176-1.176 0-.644.42-1.204 1.176-1.204h.42V395.12h-.42c-.756 0-1.176-.588-1.176-1.176 0-.644.42-1.204 1.176-1.204h3.22c.812 0 1.232.56 1.232 1.204 0 .588-.42 1.176-1.232 1.176h-.42v15.176h.42c.812 0 1.232.56 1.232 1.204 0 .588-.42 1.176-1.232 1.176zm15.092-13.217l-5.096 12.264c-.252.644-.672.952-1.204.952-.476 0-.924-.308-1.204-.952l-5.096-12.264a1.72 1.72 0 0 1-.084-.504c0-.672.616-1.148 1.232-1.148.42 0 .84.224 1.064.728l4.088 9.8 4.088-9.8a1.17 1.17 0 0 1 1.092-.756c.644 0 1.232.448 1.232 1.148 0 .14-.028.336-.112.532z"/><use xlink:href="#p" x="-40.868" y="142.007"/><path d="M759.456 395.54c-1.12 0-2.016-.896-2.016-2.016s.896-2.016 2.016-2.016 2.016.896 2.016 2.016-.896 2.016-2.016 2.016zm0 17.136c-.616 0-1.232-.42-1.232-1.176v-12.488c0-.784.616-1.204 1.232-1.204a1.15 1.15 0 0 1 1.176 1.204V411.5c0 .784-.588 1.176-1.176 1.176z"/><use xlink:href="#m" x="92.464" y="142.007"/><use xlink:href="#q" x="186.808" y="177.643"/><path d="M826.334 447.206h-11.648c-.672 0-1.232-.532-1.232-1.176v-17.556c0-.672.56-1.204 1.232-1.204h11.648c.728 0 1.176.532 1.176 1.176 0 .588-.42 1.204-1.176 1.204h-10.472v5.656h7.336c.7 0 1.204.56 1.204 1.204s-.476 1.204-1.204 1.204h-7.336v7.112h10.472c.756 0 1.176.588 1.176 1.204 0 .644-.448 1.176-1.176 1.176zm8.68 0h-.476c-2.66 0-3.668-1.4-3.668-3.696v-8.792h-.84a1.19 1.19 0 0 1-.028-2.38h.84v-3.892c0-.784.588-1.176 1.204-1.176s1.176.392 1.176 1.176v3.892h1.792c.784 0 1.176.644 1.176 1.176 0 .672-.448 1.204-1.176 1.204h-1.792v9.044c0 .784.28 1.064 1.064 1.064h.7c.728 0 1.204.532 1.204 1.176 0 .672-.448 1.204-1.176 1.204z"/><use xlink:href="#v" x="-150.67" y="69.058"/><use xlink:href="#n" x="160.435" y="176.536"/><use xlink:href="#p" x="77.222" y="176.536"/><use xlink:href="#u" x="225.461" y="106.586"/><use xlink:href="#n" x="199.438" y="176.536"/><use xlink:href="#o" x="183.505" y="176.536"/><path d="M783.078 484.2c-6.16 0-8.148-5.18-8.148-10.444 0-5.404 2.128-10.472 8.148-10.472 2.548 0 4.676.896 6.216 3.052.168.224.252.476.252.7 0 .672-.7 1.204-1.344 1.204-.504 0-.56-.224-1.008-.728-.896-1.092-2.1-1.82-4.116-1.82-4.312 0-5.74 3.668-5.74 8.064 0 3.836 1.036 8.064 5.74 8.064 3.416 0 5.46-2.436 5.656-6.468h-2.52c-.812 0-1.232-.588-1.232-1.204s.42-1.204 1.176-1.204h3.836c.728 0 1.232.504 1.232 1.232-.112 5.236-2.212 10.024-8.148 10.024z"/><use xlink:href="#v" x="-194.991" y="105.586"/><use xlink:href="#o" x="94.191" y="213.064"/><use xlink:href="#t" x="230.924" y="143.114"/><use xlink:href="#o" x="127.175" y="213.064"/><path d="M292.786 520.044h-3.22c-.756 0-1.176-.588-1.176-1.176 0-.645.42-1.204 1.176-1.204h.42v-15.176h-.42c-.756 0-1.176-.588-1.176-1.176 0-.644.42-1.204 1.176-1.204h3.22c.812 0 1.232.56 1.232 1.204 0 .588-.42 1.176-1.232 1.176h-.42v15.176h.42c.812 0 1.232.56 1.232 1.204 0 .588-.42 1.176-1.232 1.176zm15.232 0c-.616 0-1.176-.42-1.176-1.176v-7.784c0-2.185-1.82-4.004-4.004-4.004-2.156 0-3.976 1.82-3.976 4.004v7.756c0 .784-.588 1.23-1.232 1.23a1.15 1.15 0 0 1-1.176-1.203V506.35c0-.812.588-1.176 1.176-1.176.56 0 1.064.308 1.204.924a6.38 6.38 0 0 1 4.004-1.4 6.44 6.44 0 0 1 6.384 6.384v7.756c0 .784-.56 1.204-1.204 1.204z"/><use xlink:href="#w" x="-709.418" y="141.896"/><path d="M330.502 502.908c-1.12 0-2.016-.896-2.016-2.016s.896-2.016 2.016-2.016 2.016.896 2.016 2.016-.896 2.016-2.016 2.016zm0 17.136c-.616 0-1.232-.42-1.232-1.176V506.38c0-.784.616-1.204 1.232-1.204a1.15 1.15 0 0 1 1.176 1.204v12.488c0 .783-.588 1.176-1.176 1.176zm18.508 0c-1.54 0-2.24-1.092-2.492-1.597-1.12 1.232-2.744 2.072-4.928 2.072-4.564 0-7.028-3.752-7.028-7.924s2.52-7.896 7.028-7.896c1.96 0 3.528.7 4.62 1.848v-.112c0-.308.112-1.26 1.176-1.26.588 0 1.232.308 1.232 1.176v10.808c0 .363.252.504.392.504.784 0 1.204.56 1.204 1.204a1.15 1.15 0 0 1-1.204 1.176zm-7.42-12.964c-2.8 0-4.62 2.184-4.62 5.516 0 3.36 1.82 5.544 4.62 5.544 2.828 0 4.62-2.184 4.62-5.544 0-3.332-1.792-5.516-4.62-5.516zm237.723 46.713c-.364 0-.784-.196-1.008-.672l-4.592-9.492-3.22 4.032v4.956c0 .756-.644 1.176-1.176 1.176-.616 0-1.232-.42-1.232-1.176v-17.584c0-.784.644-1.176 1.176-1.176.616 0 1.232.392 1.232 1.176v8.792l7.644-9.492c.252-.336.56-.476.868-.476.672 0 1.288.53 1.288 1.204 0 .224-.084.504-.308.756l-4.592 5.74 5.04 10.5a1.11 1.11 0 0 1 .14.561c0 .7-.644 1.176-1.26 1.176z"/><use xlink:href="#l" x="245.211" y="-357.506"/><path d="M608.85 553.793c-.616 0-1.176-.42-1.176-1.176v-7.784c0-2.184-1.82-4.004-4.004-4.004-2.156 0-3.976 1.82-3.976 4.004v7.756c0 .784-.588 1.232-1.232 1.232a1.15 1.15 0 0 1-1.176-1.204V540.1c0-.812.588-1.176 1.176-1.176.56 0 1.064.3 1.204.924 1.092-.867 2.464-1.4 4.004-1.4a6.44 6.44 0 0 1 6.384 6.384v7.756c0 .784-.56 1.204-1.204 1.204zm16.5-13.188l-7.56 17.2c-.56 1.288-1.792 1.876-3.08 1.876h-.896c-.812 0-1.176-.588-1.176-1.23 0-.6.364-1.177 1.176-1.177h.868c.364 0 .756-.056.924-.447l1.848-4.145-5.46-12.067a1.01 1.01 0 0 1-.14-.532c0-.7.672-1.176 1.288-1.176.42 0 .784.224 1.008.728l4.564 10.136 4.452-10.136c.224-.504.644-.7 1.036-.7.644 0 1.288.477 1.288 1.148a.95.95 0 0 1-.14.532z"/><use xlink:href="#c" x="427.984" y="-179.103"/><path d="M968.83 591.35a1.15 1.15 0 0 1-1.176-1.204v-12.88l-5.432 10.136c-.364.7-.896.756-1.12.756-.14 0-.728-.056-1.12-.756l-5.404-10.08v12.824c0 .784-.588 1.204-1.232 1.204a1.15 1.15 0 0 1-1.176-1.204v-17.5c0-.924.644-1.26 1.288-1.26.42 0 .756.195 1.008.7l6.636 12.35 6.664-12.35c.28-.56.616-.7 1.092-.7.616 0 1.204.392 1.204 1.26v17.5c0 .784-.588 1.204-1.232 1.204z"/><use xlink:href="#c" x="774.722" y="-141.576"/><path d="M993.162 591.377c-1.512 0-2.8-1.288-2.8-2.855V572.6c0-.812.588-1.204 1.204-1.204s1.204.392 1.204 1.176v15.96c0 .336.252.476.392.476.784 0 1.204.56 1.204 1.204 0 .616-.42 1.176-1.204 1.176z"/><use xlink:href="#d" x="767.274" y="-141.575"/><path d="M584.745 625.983a1.15 1.15 0 0 1-1.176-1.204V611.9l-5.432 10.136c-.364.7-.896.756-1.12.756-.14 0-.728-.056-1.12-.756l-5.404-10.08v12.824c0 .784-.588 1.204-1.232 1.204a1.15 1.15 0 0 1-1.176-1.204v-17.5c0-.924.644-1.26 1.288-1.26.42 0 .756.195 1.008.7l6.636 12.35 6.664-12.35c.28-.56.616-.7 1.092-.7.616 0 1.204.392 1.204 1.26v17.5c0 .784-.588 1.204-1.232 1.204z"/><use xlink:href="#c" x="390.639" y="-106.941"/><path d="M617.785 625.983c-.532 0-1.064-.3-1.176-.924-1.12.867-2.492 1.4-4.032 1.4a6.44 6.44 0 0 1-6.384-6.384v-7.756a1.15 1.15 0 0 1 1.176-1.204c.644 0 1.232.42 1.232 1.176v7.784c0 2.184 1.82 4.004 3.976 4.004 2.184 0 4.004-1.82 4.004-4.004v-7.756c0-.868.56-1.232 1.176-1.232.644 0 1.204.42 1.204 1.204v12.516c0 .784-.56 1.177-1.176 1.177zM628.76 613c-2.156 0-3.976 1.82-3.976 4.004v7.756c0 .784-.588 1.204-1.232 1.204-.588 0-1.176-.42-1.176-1.176V612.3c0-.784.644-1.204 1.176-1.204.56 0 1.092.3 1.204.952a6.48 6.48 0 0 1 4.004-1.428c.812 0 1.232.56 1.232 1.204 0 .615-.42 1.176-1.232 1.176z"/><use xlink:href="#x"/><use xlink:href="#e" x="389.238" y="-106.941"/><use xlink:href="#c" x="446.162" y="-106.941"/><use xlink:href="#f" x="389.238" y="-106.941"/><use xlink:href="#x" x="46.844"/><use xlink:href="#c" x="485.138" y="-106.941"/><path d="M721.277 660.377c-.364 0-.756-.196-1.008-.616l-9.408-14.14v13.552c0 .784-.588 1.204-1.232 1.204-.588 0-1.176-.42-1.176-1.176v-17.556c0-.784.616-1.204 1.232-1.204.392 0 .728.168 1.008.588l9.408 14.14v-13.523c0-.812.588-1.204 1.176-1.204.644 0 1.232.392 1.232 1.176v17.556c0 .756-.616 1.204-1.232 1.204zm5.936-17.137a2.016 2.016 0 1 1 0-4.032 2.016 2.016 0 1 1 0 4.032zm0 17.136c-.616 0-1.232-.42-1.232-1.176v-12.488c0-.784.616-1.204 1.232-1.204a1.15 1.15 0 0 1 1.176 1.204V659.2c0 .784-.588 1.176-1.176 1.176z"/><use xlink:href="#j" x="32.895" y="-177.64"/><use xlink:href="#l" x="412.518" y="-250.923"/><path d="M770.976 647.413c-2.156 0-3.976 1.82-3.976 4.004v7.756c0 .784-.588 1.204-1.232 1.204-.588 0-1.176-.42-1.176-1.176v-12.488c0-.784.644-1.204 1.176-1.204.56 0 1.092.3 1.204.952a6.48 6.48 0 0 1 4.004-1.428c.812 0 1.232.56 1.232 1.204 0 .615-.42 1.176-1.232 1.176zm-16.313 48.492c-.364 0-.756-.196-1.008-.616l-9.408-14.14v13.55c0 .784-.588 1.204-1.232 1.204-.588 0-1.176-.42-1.176-1.176v-17.556c0-.784.616-1.204 1.232-1.204.392 0 .728.168 1.008.588l9.408 14.14v-13.523c0-.812.588-1.204 1.176-1.204.644 0 1.232.392 1.232 1.176V694.7c0 .756-.616 1.204-1.232 1.204z"/><use xlink:href="#y"/><use xlink:href="#j" x="66.281" y="-142.11"/><use xlink:href="#l" x="445.904" y="-215.393"/><path d="M804.36 682.94c-2.156 0-3.976 1.82-3.976 4.004v7.756c0 .784-.588 1.204-1.232 1.204-.588 0-1.176-.42-1.176-1.176V682.24c0-.784.644-1.204 1.176-1.204.56 0 1.092.31 1.204.952a6.48 6.48 0 0 1 4.004-1.428c.812 0 1.232.56 1.232 1.204 0 .615-.42 1.176-1.232 1.176z"/><use xlink:href="#y" x="47.347"/><use xlink:href="#c" x="613.895" y="-36.991"/><use xlink:href="#g" x="-628.74" y="-36.53"/><use xlink:href="#l" x="1.316" y="-144.337"/><path d="M364.953 766.962c-.616 0-1.176-.42-1.176-1.176v-7.784c0-2.184-1.82-4.004-4.004-4.004-2.156 0-3.976 1.82-3.976 4.004v7.756c0 .784-.588 1.232-1.232 1.232a1.15 1.15 0 0 1-1.176-1.204V753.27c0-.812.588-1.176 1.176-1.176.56 0 1.064.31 1.204.924 1.092-.867 2.464-1.4 4.004-1.4a6.44 6.44 0 0 1 6.384 6.384v7.756c0 .784-.56 1.204-1.204 1.204z"/><use xlink:href="#l" x="33.096" y="-144.337"/><use xlink:href="#j" x="-313.852" y="-71.054"/><use xlink:href="#c" x="203.242" y="34.066"/><path d="M421.68 767.018c-1.512 0-2.8-1.288-2.8-2.855V748.23c0-.812.588-1.204 1.204-1.204s1.204.392 1.204 1.176v15.96c0 .336.252.476.392.476.784 0 1.204.56 1.204 1.204 0 .616-.42 1.176-1.204 1.176z"/><g opacity=".7" class="b"><use xlink:href="#z"/><use xlink:href="#AA"/><path d="M60.913 956.008c-3.584 0-5.695-2.816-5.695-6.144 0-2.848 1.504-4.896 3.712-6.464-2.048-1.632-3.2-3.23-3.2-5.95 0-3.04 2.304-5.184 5.184-5.184s5.184 2.144 5.184 5.184c0 2.72-1.15 4.32-3.2 5.95 2.208 1.568 3.712 3.616 3.712 6.464 0 3.327-2.112 6.144-5.696 6.144zm0-11.392c-1.855 1.376-3.392 2.848-3.392 5.344 0 1.888 1.024 4.128 3.392 4.128s3.392-2.24 3.392-4.128c0-2.496-1.535-3.968-3.392-5.344zm0-10.432c-1.983 0-2.88 1.536-2.88 3.008 0 2.336 1.152 4.064 2.88 5.12 1.73-1.056 2.88-2.784 2.88-5.12 0-1.472-.896-3.008-2.88-3.008z"/><use xlink:href="#AA" x="25.44"/></g><g opacity=".7" class="b"><path d="M999.16 955.687v-1.92c2.048-6.848 8.447-10.687 8.447-15.935 0-2.432-1.216-3.648-2.783-3.648-1.824 0-3.168 1.408-3.36 4.864h-2.1c.256-5.248 2.623-6.783 5.407-6.783 3.04 0 5.15 2.048 5.15 5.887 0 5.76-5.184 7.552-8.64 15.615h8.767v1.92h-10.88zm18.846.32c-3.775 0-5.567-3.52-5.567-11.87s1.792-11.87 5.567-11.87 5.567 3.52 5.567 11.87-1.8 11.87-5.567 11.87zm0-21.823c-2.1 0-3.264 2.368-3.264 9.952s1.152 9.95 3.264 9.95 3.264-2.368 3.264-9.95-1.15-9.952-3.264-9.952z"/><use xlink:href="#z" x="992.069"/><path d="M1034.743 932.585h10.367v1.216l-6.72 21.887h-2.432l6.72-21.183h-7.936v-1.92z"/></g></g><g class="Z"><path d="M52.362 83.02c-13.2 0-17.46-11.1-17.46-22.38 0-11.58 4.56-22.438 17.46-22.438 5.46 0 10.02 1.92 13.32 6.54.36.48.54 1.02.54 1.5 0 1.44-1.5 2.58-2.88 2.58-1.08 0-1.2-.48-2.16-1.56-1.92-2.34-4.5-3.9-8.82-3.9-9.24 0-12.3 7.86-12.3 17.28 0 8.22 2.22 17.28 12.3 17.28 7.32 0 11.7-5.22 12.12-13.86h-5.4c-1.74 0-2.64-1.26-2.64-2.58s.9-2.58 2.52-2.58h8.22c1.56 0 2.64 1.08 2.64 2.64-.24 11.22-4.74 21.48-17.46 21.48zm45.538-.96c-1.14 0-2.28-.66-2.52-1.98-2.4 1.86-5.34 3-8.64 3-7.44 0-13.68-6.18-13.68-13.68V52.78c0-1.68 1.26-2.58 2.52-2.58 1.38 0 2.64.9 2.64 2.52V69.4c0 4.68 3.9 8.58 8.52 8.58 4.68 0 8.58-3.9 8.58-8.58V52.78c0-1.86 1.2-2.64 2.52-2.64 1.38 0 2.58.9 2.58 2.58v26.82c0 1.68-1.2 2.52-2.52 2.52z"/><use xlink:href="#AB"/><path d="M141.76 82c-1.32 0-2.52-.9-2.52-2.52V62.8c0-4.68-3.9-8.58-8.58-8.58-4.62 0-8.52 3.9-8.52 8.58v16.62c0 1.68-1.26 2.64-2.64 2.64-1.26 0-2.52-.9-2.52-2.58V52.66c0-1.74 1.26-2.52 2.52-2.52 1.2 0 2.28.66 2.58 1.98a13.67 13.67 0 0 1 8.58-3c7.44 0 13.68 6.18 13.68 13.68v16.62c0 1.68-1.2 2.58-2.58 2.58zm33.72-13.32h-22.2c.84 5.64 4.44 9.24 9.72 9.24 2.7 0 5.4-.96 7.14-3.12.54-.6 1.14-.96 1.86-.96 1.32 0 2.7 1.2 2.7 2.64 0 .72-.18 1.26-1.44 2.52-2.7 2.64-6.42 4.02-10.26 4.02-9.66 0-15.06-7.98-15.06-16.98 0-8.94 5.4-16.92 15.06-16.92 9.78 0 15 7.98 15 16.92 0 1.32-.96 2.64-2.52 2.64zM163 54.222c-5.64 0-8.94 4.14-9.72 9.3h19.44c-.84-5.76-4.44-9.3-9.72-9.3z"/><use xlink:href="#AC"/><path d="M268.717 42.462l-9.9 37.438c-.3 1.44-1.08 2.1-2.46 2.1-1.26 0-2.16-.66-2.58-2.1l-8.1-28.74-8.04 28.74c-.42 1.44-1.26 2.1-2.52 2.1-1.32 0-2.16-.66-2.52-2.1l-9.9-37.438c-.06-.24-.12-.54-.12-.84 0-1.5 1.38-2.34 2.7-2.34 1.02 0 2.04.6 2.4 1.86l7.56 28.62 7.92-28.38c.42-1.44 1.26-2.1 2.52-2.1 1.32 0 2.16.66 2.58 2.1l7.92 28.38 7.56-28.62c.36-1.32 1.56-1.98 2.46-1.98 1.32 0 2.64.96 2.64 2.46 0 .3-.06.6-.12.84z"/><use xlink:href="#AD"/><use xlink:href="#AE"/><use xlink:href="#AF"/><path d="M396.036 82h-12.42c-1.38 0-2.64-1.26-2.64-2.52V41.862c0-1.38 1.26-2.58 2.64-2.58h12.42c12.36 0 16.44 10.2 16.44 21.3 0 11.16-4.08 21.42-16.44 21.42zm0-37.618h-9.9V76.9h9.9c7.74 0 11.28-5.7 11.28-16.32 0-10.44-3.54-16.2-11.28-16.2z"/><use xlink:href="#AB" x="311.033"/><use xlink:href="#AG"/><path d="M479.674 68.68h-22.2c.84 5.64 4.44 9.24 9.72 9.24 2.7 0 5.4-.96 7.14-3.12.54-.6 1.14-.96 1.86-.96 1.32 0 2.7 1.2 2.7 2.64 0 .72-.18 1.26-1.44 2.52-2.7 2.64-6.42 4.02-10.26 4.02-9.66 0-15.06-7.98-15.06-16.98 0-8.94 5.4-16.92 15.06-16.92 9.78 0 15 7.98 15 16.92 0 1.32-.96 2.64-2.52 2.64zm-12.48-14.46c-5.64 0-8.94 4.14-9.72 9.3h19.44c-.84-5.76-4.44-9.3-9.72-9.3z"/><use xlink:href="#AC" x="304.194"/><use xlink:href="#AG" x="92.4"/><use xlink:href="#AH"/><path d="M618.753 82c-.9 0-1.8-.48-2.28-1.56l-3.18-7.8h-19.98l-3.24 7.8c-.48 1.08-1.38 1.56-2.22 1.56-1.32 0-2.7-1.02-2.7-2.52 0-.36.06-.72.24-1.02l15.42-37.498c.72-1.56 1.68-1.86 2.46-1.86.54 0 1.86.3 2.46 1.86l15.48 37.498c.12.3.18.66.18 1.02 0 1.5-1.26 2.52-2.64 2.52zm-15.48-33.6l-7.86 19.08h15.72l-7.86-19.08zm25.8 33.72c-3.24 0-6-2.76-6-6.12V41.862c0-1.74 1.26-2.58 2.58-2.58s2.58.84 2.58 2.52V76c0 .72.54 1.02.84 1.02 1.68 0 2.58 1.2 2.58 2.58 0 1.32-.9 2.52-2.58 2.52z"/><use xlink:href="#AF" x="309.416"/><use xlink:href="#AD" x="408.474"/><use xlink:href="#AG" x="284.757"/><use xlink:href="#AI"/></g><g class="Y"><path d="M791.43 82h-24.96c-1.44 0-2.64-1.14-2.64-2.52V41.862c0-1.44 1.2-2.58 2.64-2.58h24.96c1.56 0 2.52 1.14 2.52 2.52 0 1.26-.9 2.58-2.52 2.58H769V56.5h15.72a2.56 2.56 0 0 1 2.58 2.58c0 1.38-1.02 2.58-2.58 2.58H769V76.9h22.44c1.62 0 2.52 1.26 2.52 2.58 0 1.38-.96 2.52-2.52 2.52z"/><use xlink:href="#AE" x="494.993"/><path d="M845.48 82c-3.3 0-4.8-2.34-5.34-3.42-2.4 2.64-5.88 4.44-10.56 4.44-9.78 0-15.06-8.04-15.06-16.98s5.4-16.92 15.06-16.92c4.2 0 7.56 1.5 9.9 3.96v-.24c0-.66.24-2.7 2.52-2.7 1.26 0 2.64.66 2.64 2.52v23.16c0 .78.54 1.08.84 1.08 1.68 0 2.58 1.2 2.58 2.58 0 1.26-.9 2.52-2.58 2.52zM829.58 54.222c-6 0-9.9 4.68-9.9 11.82 0 7.2 3.9 11.88 9.9 11.88 6.06 0 9.9-4.68 9.9-11.88 0-7.14-3.84-11.82-9.9-11.82z"/><use xlink:href="#AJ"/><use xlink:href="#AB" x="781.358"/><path d="M923.958 78.46c-2.64 2.94-6.3 4.56-10.74 4.56-9.66 0-15.06-7.92-15.06-16.98 0-9 5.4-16.92 15.06-16.92 4.44 0 8.1 1.62 10.74 4.56.48.54.72 1.14.72 1.74 0 1.32-1.32 2.58-2.7 2.58-.54 0-1.2-.24-1.86-.84-1.68-1.86-3.9-2.94-6.9-2.94-6 0-9.9 4.68-9.9 11.82 0 7.2 3.9 11.88 9.9 11.88 3 0 5.28-1.14 6.9-2.94.54-.66 1.26-.9 1.86-.9 1.38 0 2.7 1.2 2.7 2.64 0 .54-.24 1.2-.72 1.74z"/><use xlink:href="#AC" x="747.878"/><use xlink:href="#AI" x="227.028"/><use xlink:href="#AH" x="435.643"/><use xlink:href="#AJ" x="163.076"/></g><defs ><path id="C" d="M137.925 882.63h34.896v35.53h-34.896z"/><path id="D" d="M33.235 243.117h34.896v35.53H33.235z"/><path id="E" d="M68.132 207.59h34.896v35.53H68.132z"/><path id="F" d="M172.82 207.59h34.896v35.53H172.82z"/><path id="G" d="M242.614 207.59H277.5v35.53h-34.896z"/><path id="H" d="M277.5 207.59h34.896v35.53H277.5z"/><path id="I" d="M347.303 207.59H382.2v35.53h-34.896z"/><path id="J" d="M382.2 207.59h34.896v35.53H382.2z"/><path id="K" d="M486.89 207.59h34.896v35.53H486.89z"/><path id="L" d="M661.37 456.288h34.896v35.53H661.37z"/><path id="M" d="M766.06 349.703h34.896v35.53H766.06z"/><path id="N" d="M870.75 349.703h34.896v35.53H870.75z"/><path id="O" d="M40.664 116.46c-2.632 0-4.788 2.128-4.788 4.788v7.924c0 .504-.42.784-.784.784-.392 0-.812-.28-.812-.784v-13.3c0-.504.42-.784.812-.784.364 0 .784.28.784.784v1.148c1.26-1.372 2.912-2.156 4.788-2.156.504 0 .813.42.813.784 0 .392-.31.812-.812.812z"/><path id="P" d="M120.71 123.32h-11.62c.252 3.192 2.323 5.516 5.376 5.516 1.512 0 3.304-.672 4.115-1.932.196-.308.42-.392.672-.392.42 0 .868.336.868.756 0 .252 0 .308-.53.924-1.288 1.512-3.164 2.24-5.124 2.24-4.51 0-7.028-3.696-7.028-7.924 0-4.2 2.52-7.896 7.028-7.896s7.027 3.724 7.027 7.896c0 .42-.392.812-.784.812zm-6.243-7.112c-3.36 0-5.124 2.576-5.376 5.516h10.78c-.252-3.192-2.324-5.516-5.403-5.516z"/><path id="Q" d="M183.904 130.488c-1.68 0-4.508-.588-5.488-2.212-.11-.168-.11-.308-.11-.42 0-.448.392-.84.812-.84.168 0 .448.14.616.392 1.008 1.232 2.8 1.484 4.172 1.484 2.716 0 4.088-.896 4.088-2.716 0-4.228-9.184-1.988-9.184-7.588 0-2.828 2.828-3.92 5.376-3.92 1.456 0 3.696.504 4.815 1.624.168.168.252.364.252.532 0 .42-.42.84-.867.84a.74.74 0 0 1-.532-.224c-.868-.84-2.437-1.176-3.668-1.176-2.464 0-3.78.952-3.78 2.324 0 3.92 9.184 1.848 9.184 7.588 0 3.192-2.8 4.312-5.684 4.312z"/><path id="R" d="M245.17 130.432c-5.936 0-5.992-7.112-5.992-11.2 0-4.004.616-9.716 5.964-9.716 5.236 0 6.02 5.376 6.02 9.716 0 4.06-.084 11.2-5.992 11.2zm4.396-11.2c0-4.004-.56-8.12-4.396-8.12-4.2 0-4.396 5.152-4.396 8.12v1.792c0 3.248.616 7.812 4.368 7.812 3.836 0 4.424-4.564 4.424-7.812v-1.792z"/><path id="S" d="M103.993 1048.546c-.633 0-1.267-.367-1.4-1.1-1.334 1.034-2.97 1.668-4.804 1.668-4.136 0-7.604-3.436-7.604-7.605v-9.24a1.37 1.37 0 0 1 1.4-1.435c.768 0 1.468.5 1.468 1.4v9.272c0 2.602 2.168 4.77 4.736 4.77 2.603 0 4.77-2.17 4.77-4.77v-9.24c0-1.034.667-1.468 1.4-1.468.768 0 1.435.5 1.435 1.435v14.9c0 .934-.667 1.4-1.4 1.4z"/><path id="T" d="M843.148 1049.453c-3.22 0-5.02-2.64-5.02-5.66 0-3 1.8-5.64 5.02-5.64s5.02 2.64 5.02 5.64c0 3.02-1.8 5.66-5.02 5.66zm0-10.162c-2.36 0-3.88 1.9-3.88 4.5s1.52 4.52 3.88 4.52c2.38 0 3.88-1.92 3.88-4.52s-1.5-4.5-3.88-4.5z"/><path id="U" d="M858.928 1049.113c-.28 0-.58-.2-.58-.56v-.64c-.84.98-2.06 1.54-3.42 1.54-2.48 0-4.56-2.08-4.56-4.56v-5.842c0-.36.3-.56.58-.56.26 0 .56.2.56.56v5.842c0 1.9 1.52 3.42 3.42 3.42s3.42-1.52 3.42-3.42v-5.842c0-.36.3-.56.58-.56.26 0 .56.2.56.56v9.502c0 .36-.3.56-.56.56z"/><path id="V" d="M866.887 1039.472a3.42 3.42 0 0 0-3.421 3.42v5.66c0 .36-.3.56-.56.56-.28 0-.58-.2-.58-.56v-9.502c0-.36.3-.56.58-.56.26 0 .56.2.56.56v.82c.9-.98 2.08-1.54 3.42-1.54.36 0 .58.3.58.56a.58.58 0 0 1-.58.581z"/><path id="W" d="M970.385 1049.233c-1.08 0-1.98-1-1.98-2.12v-11.683c0-.36.3-.56.58-.56.26 0 .56.2.56.56v11.683c0 1.28 1.42.54 1.42 1.44 0 .34-.24.68-.58.68z"/><path id="X" d="M981.807 1049.113c-.28 0-.58-.2-.58-.56v-1c-.84 1.18-2.14 1.9-3.88 1.9-3.22 0-5.02-2.64-5.02-5.66 0-3 1.8-5.64 5.02-5.64 1.74 0 3.04.72 3.88 1.88v-4.6c0-.36.3-.56.58-.56.26 0 .56.2.56.56v13.122c0 .36-.3.56-.56.56zm-4.46-9.822c-2.36 0-3.88 1.9-3.88 4.5s1.52 4.52 3.88 4.52c2.38 0 3.88-1.92 3.88-4.52s-1.5-4.5-3.88-4.5z"/><path id="Y" d="M999.126 1049.113c-.28 0-.58-.2-.58-.56v-5.84c0-1.9-1.52-3.42-3.42-3.42a3.42 3.42 0 0 0-3.421 3.421v5.84c0 .36-.3.56-.56.56-.28 0-.58-.2-.58-.56v-9.502c0-.36.3-.56.58-.56.26 0 .56.2.56.56v.64c.9-.98 2.08-1.54 3.42-1.54a4.6 4.6 0 0 1 4.561 4.561v5.84c0 .36-.3.56-.56.56z"/><path id="Z" d="M1025.786 1049.113h-.02c-.66 0-1.6-.36-1.98-1.56-.84 1.18-2.14 1.9-3.88 1.9-3.26 0-5.02-2.68-5.02-5.66 0-3.02 1.8-5.64 5.02-5.64 1.74 0 3.04.72 3.88 1.88v-.98c0-.32.26-.56.58-.56.28 0 .56.2.56.56v8.063c0 1.28 1.44.48 1.44 1.44a.55.55 0 0 1-.58.561zm-5.88-9.822c-2.36 0-3.88 1.9-3.88 4.5s1.52 4.52 3.88 4.52c2.38 0 3.88-1.92 3.88-4.52s-1.5-4.5-3.88-4.5z"/><path id="a" d="M1031.845 1049.113h-.62c-1.58 0-2.36-.78-2.36-2.34v-7.142h-1.02c-.36 0-.56-.3-.56-.58 0-.26.2-.56.56-.56h1.02v-3.06c0-.36.3-.56.58-.56s.56.2.56.56v3.06h1.84c.36 0 .56.3.56.56 0 .28-.2.58-.56.58h-1.84v7.142c0 .98.28 1.2 1.22 1.2h.62c.36 0 .56.3.56.58 0 .26-.2.56-.56.56z"/><path id="b" d="M534.284 1049.453c-1.54 0-3.64-.62-4.78-1.76-.14-.14-.18-.26-.18-.4a.61.61 0 0 1 .581-.58c.24 0 .22.06.64.38 1.06.78 2.38 1.22 3.74 1.22 2.52 0 3.98-.94 3.98-2.74 0-4.74-8.46-2.1-8.46-7.562 0-2.4 2.1-3.5 4.68-3.5 1.44 0 3.46.62 4.36 1.88.08.12.12.22.12.34 0 .32-.28.56-.6.56-.28 0-.28-.08-.62-.42-.84-.84-2.08-1.22-3.26-1.22-2.38 0-3.54.92-3.54 2.36 0 4.3 8.462 1.8 8.462 7.562 0 2.78-2.44 3.88-5.12 3.88z"/><path id="c" d="M212.558 732.896c-1.54 0-2.24-1.092-2.492-1.596-1.12 1.23-2.744 2.07-4.928 2.07-4.564 0-7.028-3.752-7.028-7.924s2.52-7.896 7.028-7.896c1.96 0 3.528.7 4.62 1.848v-.112c0-.308.112-1.26 1.176-1.26.588 0 1.232.31 1.232 1.176v10.81c0 .364.252.504.392.504.784 0 1.204.56 1.204 1.204a1.15 1.15 0 0 1-1.204 1.176zm-7.42-12.964c-2.8 0-4.62 2.184-4.62 5.516 0 3.36 1.82 5.544 4.62 5.544 2.828 0 4.62-2.184 4.62-5.544 0-3.332-1.792-5.516-4.62-5.516z"/><path id="d" d="M230.366 715.76a2.01 2.01 0 1 1 0-4.032 2.01 2.01 0 1 1 0 4.032zm0 17.136c-.616 0-1.232-.42-1.232-1.176v-12.488c0-.784.616-1.204 1.232-1.204a1.15 1.15 0 0 1 1.176 1.204v12.488c0 .784-.588 1.176-1.176 1.176z"/><path id="e" d="M252.542 732.896h-.476c-2.66 0-3.668-1.4-3.668-3.696v-8.792h-.84c-.672 0-1.204-.53-1.204-1.176a1.19 1.19 0 0 1 1.176-1.204h.84v-3.892c0-.784.588-1.176 1.204-1.176s1.176.392 1.176 1.176v3.892h1.792c.784 0 1.176.645 1.176 1.176 0 .673-.448 1.204-1.176 1.204h-1.792v9.044c0 .784.28 1.064 1.064 1.064h.7c.728 0 1.204.532 1.204 1.176 0 .672-.448 1.204-1.176 1.204z"/><path id="f" d="M284.294 732.896c-.616 0-1.176-.42-1.176-1.176v-7.784c0-2.184-1.82-4.004-4.004-4.004-2.156 0-3.976 1.82-3.976 4.004v7.756c0 .784-.588 1.232-1.232 1.232a1.15 1.15 0 0 1-1.176-1.204v-12.517c0-.812.588-1.176 1.176-1.176.56 0 1.064.31 1.204.924a6.38 6.38 0 0 1 4.004-1.399 6.44 6.44 0 0 1 6.384 6.384v7.756c0 .784-.56 1.204-1.204 1.204z"/><path id="g" d="M956.873 803.967c-2.044 0-4.9-.84-6.496-2.323a1.12 1.12 0 0 1-.392-.868c0-.645.532-1.204 1.204-1.204.42 0 .56.14 1.064.532 1.372 1.036 2.996 1.483 4.62 1.483 3.332 0 4.788-1.204 4.788-3.275 0-5.824-11.172-2.52-11.172-10.137 0-3.415 2.884-5.123 6.58-5.123 1.932 0 4.704.756 6.076 2.38.224.252.308.504.308.756 0 .672-.616 1.26-1.204 1.26-.42 0-.644-.196-1.12-.616-1.12-.952-2.548-1.372-4.06-1.372-3.024 0-4.172 1.204-4.172 2.716 0 5.236 11.172 2.13 11.172 10.137 0 4.172-3.5 5.655-7.196 5.655z"/><path id="h" d="M994.42 803.463c-.616 0-1.204-.392-1.204-1.176 0 0-1.652 1.68-4.62 1.68-4.508 0-7.028-3.695-7.028-7.924 0-4.2 2.52-7.896 7.028-7.896 1.96 0 3.528.672 4.62 1.82v-5.207c0-.812.588-1.204 1.204-1.204s1.204.392 1.204 1.176v17.556c0 .784-.588 1.176-1.204 1.176zm-5.824-12.936c-2.8 0-4.62 2.184-4.62 5.516 0 3.36 1.82 5.544 4.62 5.544 2.828 0 4.62-2.184 4.62-5.544 0-3.332-1.792-5.516-4.62-5.516z"/><path id="i" d="M689.22 838.493c-4.508 0-7.028-3.695-7.028-7.924 0-4.2 2.52-7.896 7.028-7.896s7.028 3.696 7.028 7.896c0 4.23-2.52 7.924-7.028 7.924zm0-13.44c-2.8 0-4.62 2.184-4.62 5.516 0 3.36 1.82 5.544 4.62 5.544 2.828 0 4.62-2.184 4.62-5.544 0-3.332-1.792-5.516-4.62-5.516z"/><path id="j" d="M705.405 844.4c-1.708 0-5.936-.616-5.936-2.296 0-.644.588-1.26 1.204-1.26.644 0 .084.084 1.568.644.672.252 1.68.532 3.164.532 3.108 0 4.62-1.484 4.62-4.424v-1.26c-1.092 1.036-2.66 1.68-4.62 1.68-4.424 0-7.028-3.136-7.028-7.448 0-4.2 2.52-7.896 7.028-7.896 1.96 0 3.472.588 4.62 1.792v-.112c0-.784.644-1.204 1.204-1.204.588 0 1.204.42 1.204 1.204v13.244c0 4.452-2.66 6.804-7.028 6.804zm0-19.348c-2.8 0-4.62 2.184-4.62 5.516 0 3.192 1.68 5.068 4.62 5.068s4.62-1.876 4.62-5.068c0-3.332-1.792-5.516-4.62-5.516z"/><path id="k" d="M628.064 873.546c-.616 0-1.176-.42-1.176-1.176v-7.784c0-2.184-1.82-4.004-4.004-4.004-2.156 0-3.976 1.82-3.976 4.004v7.756c0 .784-.588 1.232-1.232 1.232a1.15 1.15 0 0 1-1.176-1.204v-12.517c0-.812.588-1.176 1.176-1.176.56 0 1.064.31 1.204.924 1.092-.867 2.464-1.4 4.004-1.4a6.44 6.44 0 0 1 6.384 6.384v7.756c0 .784-.56 1.204-1.204 1.204z"/><path id="l" d="M348.434 905.083h-10.36c.392 2.632 2.072 4.312 4.536 4.312 1.26 0 2.52-.447 3.332-1.456.252-.28.532-.447.868-.447.616 0 1.26.56 1.26 1.23 0 .336-.084.588-.672 1.176-1.26 1.232-2.996 1.876-4.788 1.876-4.508 0-7.028-3.724-7.028-7.924 0-4.172 2.52-7.896 7.028-7.896 4.564 0 7 3.724 7 7.896 0 .616-.448 1.232-1.176 1.232zm-5.824-6.748c-2.632 0-4.172 1.932-4.536 4.34h9.072c-.392-2.687-2.072-4.34-4.536-4.34z"/><path id="m" d="M678.08 257.706c-2.156 0-3.976 1.82-3.976 4.004v7.756c0 .784-.588 1.204-1.232 1.204-.588 0-1.176-.42-1.176-1.176v-12.488c0-.784.644-1.204 1.176-1.204.56 0 1.092.308 1.204.952 1.092-.896 2.576-1.428 4.004-1.428.812 0 1.232.56 1.232 1.204 0 .616-.42 1.176-1.232 1.176z"/><path id="n" d="M694.935 253.534c-1.12 0-2.016-.896-2.016-2.016s.896-2.016 2.016-2.016 2.016.896 2.016 2.016-.896 2.016-2.016 2.016zm0 17.136c-.616 0-1.232-.42-1.232-1.176v-12.488c0-.784.616-1.204 1.232-1.204a1.15 1.15 0 0 1 1.176 1.204v12.488c0 .784-.588 1.176-1.176 1.176z"/><path id="o" d="M729.375 270.67c-1.54 0-2.24-1.092-2.492-1.596-1.12 1.232-2.744 2.072-4.928 2.072-4.564 0-7.028-3.752-7.028-7.924s2.52-7.896 7.028-7.896c1.96 0 3.528.7 4.62 1.848v-.112c0-.308.112-1.26 1.176-1.26.588 0 1.232.308 1.232 1.176v10.808c0 .364.252.504.392.504.784 0 1.204.56 1.204 1.204a1.15 1.15 0 0 1-1.204 1.176zm-7.42-12.964c-2.8 0-4.62 2.184-4.62 5.516 0 3.36 1.82 5.544 4.62 5.544 2.828 0 4.62-2.184 4.62-5.544 0-3.332-1.792-5.516-4.62-5.516z"/><path id="p" d="M789.236 271.146c-4.508 0-7.028-3.696-7.028-7.924 0-4.2 2.52-7.896 7.028-7.896s7.028 3.696 7.028 7.896c0 4.228-2.52 7.924-7.028 7.924zm0-13.44c-2.8 0-4.62 2.184-4.62 5.516 0 3.36 1.82 5.544 4.62 5.544 2.828 0 4.62-2.184 4.62-5.544 0-3.332-1.792-5.516-4.62-5.516z"/><path id="q" d="M597.59 228.817h-10.36c.392 2.632 2.072 4.312 4.536 4.312 1.26 0 2.52-.448 3.332-1.456.252-.28.532-.448.868-.448.616 0 1.26.56 1.26 1.232 0 .336-.084.588-.672 1.176-1.26 1.232-2.996 1.876-4.788 1.876-4.508 0-7.028-3.724-7.028-7.924 0-4.172 2.52-7.896 7.028-7.896 4.564 0 7 3.724 7 7.896 0 .616-.448 1.232-1.176 1.232zm-5.824-6.748c-2.632 0-4.172 1.932-4.536 4.34h9.072c-.392-2.688-2.072-4.34-4.536-4.34z"/><path id="r" d="M406.532 303.515c-1.372 1.904-3.332 3.052-6.244 3.052-6.02 0-8.148-4.984-8.148-10.444 0-5.488 2.128-10.472 8.148-10.472 2.828 0 4.9 1.12 6.216 3.052.196.252.252.476.252.7 0 .672-.588 1.176-1.232 1.176-.364 0-.7-.168-.952-.504-.868-1.26-2.156-2.016-4.284-2.016-3.976 0-5.74 2.94-5.74 8.064s1.764 8.064 5.74 8.064c2.128 0 3.416-.812 4.284-2.044.252-.364.588-.532.952-.532.644 0 1.26.532 1.26 1.204 0 .224-.084.448-.252.7z"/><path id="s" d="M514.753 340.647c-1.12 0-2.016-.896-2.016-2.016s.896-1.96 2.016-1.96 2.016.84 2.016 1.96-.896 2.016-2.016 2.016z"/><path id="t" d="M607.453 340.62c-.616 0-1.176-.42-1.176-1.176v-7.784c0-2.184-1.82-4.004-4.004-4.004-2.156 0-3.976 1.82-3.976 4.004v7.756c0 .784-.588 1.232-1.232 1.232a1.15 1.15 0 0 1-1.176-1.204v-12.516c0-.812.588-1.176 1.176-1.176.56 0 1.064.308 1.204.924a6.38 6.38 0 0 1 4.004-1.4 6.44 6.44 0 0 1 6.384 6.384v7.756c0 .784-.56 1.204-1.204 1.204z"/><path id="u" d="M657.825 341.096c-1.96 0-3.5-.672-4.62-1.848v6.076c0 .784-.588 1.204-1.232 1.204a1.15 1.15 0 0 1-1.176-1.204v-18.368a1.15 1.15 0 0 1 1.176-1.204c.644 0 1.232.42 1.232 1.204 0 0 1.652-1.708 4.62-1.708 4.508 0 7.028 3.696 7.028 7.896 0 4.256-2.52 7.952-7.028 7.952zm0-13.468c-2.772 0-4.62 2.212-4.62 5.516 0 3.36 1.82 5.572 4.62 5.572s4.62-2.184 4.62-5.544c0-3.332-1.82-5.544-4.62-5.544z"/><path id="v" d="M1000.384 378.148c-.616 0-1.176-.42-1.176-1.176v-7.784c0-2.184-1.82-4.004-4.004-4.004-2.156 0-3.976 1.82-3.976 4.004v7.756c0 .784-.588 1.232-1.232 1.232a1.15 1.15 0 0 1-1.176-1.204v-17.556c0-.812.588-1.204 1.176-1.204.644 0 1.232.392 1.232 1.176v4.844c1.036-.98 2.436-1.428 3.976-1.428a6.44 6.44 0 0 1 6.384 6.384v7.756c0 .784-.56 1.204-1.204 1.204z"/><path id="w" d="M1034.012 378.12c-.616 0-1.204-.392-1.204-1.176 0 0-1.652 1.68-4.62 1.68-4.508 0-7.028-3.696-7.028-7.924 0-4.2 2.52-7.896 7.028-7.896 1.96 0 3.528.672 4.62 1.82v-5.208c0-.812.588-1.204 1.204-1.204s1.204.392 1.204 1.176v17.556c0 .784-.588 1.176-1.204 1.176zm-5.824-12.936c-2.8 0-4.62 2.184-4.62 5.516 0 3.36 1.82 5.544 4.62 5.544 2.828 0 4.62-2.184 4.62-5.544 0-3.332-1.792-5.516-4.62-5.516z"/><path id="x" d="M632.344 608.82a2.01 2.01 0 1 1 0-4.032 2.01 2.01 0 1 1 0 4.032zm0 17.136c-.616 0-1.232-.42-1.232-1.176V612.29c0-.784.616-1.204 1.232-1.204a1.15 1.15 0 0 1 1.176 1.204v12.488c0 .784-.588 1.176-1.176 1.176z"/><path id="y" d="M760.598 678.77a2.01 2.01 0 1 1 0-4.032 2.01 2.01 0 1 1 0 4.032zm0 17.136c-.616 0-1.232-.42-1.232-1.176V682.24c0-.784.616-1.204 1.232-1.204a1.15 1.15 0 0 1 1.176 1.204v12.488c0 .784-.588 1.176-1.176 1.176z"/><path id="z" d="M33.426 955.687v-1.92h2.815v-18.56l-2.88.256v-1.408c1.313-.32 2.592-.896 3.648-1.79h1.535v21.502h2.688v1.92h-7.808z"/><path id="AA" d="M45.33 951.4c.32 2.305 1.6 2.688 2.496 2.688 2.048 0 3.327-2.816 3.392-9.248-.928.992-2.176 1.76-3.552 1.76-2.592 0-4.96-1.856-4.96-7.104 0-4.48 1.92-7.23 4.96-7.23 4 0 5.92 2.304 5.92 10.623 0 9.28-2.176 13.12-5.823 13.12-2.976 0-4.096-1.792-4.544-4.48l2.112-.128zm5.95-10.88c0-4.672-1.216-6.336-3.264-6.336-1.792 0-3.008 1.345-3.008 5.344 0 4.128 1.408 5.152 2.88 5.152s2.624-.96 3.392-1.984v-2.176z"/><path id="AB" d="M108.702 45.28a4.3 4.3 0 1 1 0-8.64 4.3 4.3 0 1 1 0 8.64zm0 36.72c-1.32 0-2.64-.9-2.64-2.52v-26.76c0-1.68 1.32-2.58 2.64-2.58 1.26 0 2.52.9 2.52 2.58v26.76c0 1.68-1.26 2.52-2.52 2.52z"/><path id="AC" d="M211.06 82c-3.3 0-4.8-2.34-5.34-3.42-2.4 2.64-5.88 4.44-10.56 4.44-9.78 0-15.06-8.04-15.06-16.98s5.4-16.92 15.06-16.92c4.2 0 7.56 1.5 9.9 3.96v-.24c0-.66.24-2.7 2.52-2.7 1.26 0 2.64.66 2.64 2.52v23.16c0 .78.54 1.08.84 1.08 1.68 0 2.58 1.2 2.58 2.58 0 1.26-.9 2.52-2.58 2.52zm-15.9-27.778c-6 0-9.9 4.68-9.9 11.82 0 7.2 3.9 11.88 9.9 11.88 6.06 0 9.9-4.68 9.9-11.88 0-7.14-3.84-11.82-9.9-11.82z"/><path id="AD" d="M285.098 83.02c-9.66 0-15.06-7.92-15.06-16.98 0-9 5.4-16.92 15.06-16.92s15.06 7.92 15.06 16.92c0 9.06-5.4 16.98-15.06 16.98zm0-28.8c-6 0-9.9 4.68-9.9 11.82 0 7.2 3.9 11.88 9.9 11.88 6.06 0 9.9-4.68 9.9-11.88 0-7.14-3.84-11.82-9.9-11.82z"/><path id="AE" d="M317.977 54.222c-4.62 0-8.52 3.9-8.52 8.58v16.62c0 1.68-1.26 2.58-2.64 2.58-1.26 0-2.52-.9-2.52-2.52v-26.76c0-1.68 1.38-2.58 2.52-2.58 1.2 0 2.34.66 2.58 2.04 2.34-1.92 5.52-3.06 8.58-3.06 1.74 0 2.64 1.2 2.64 2.58 0 1.32-.9 2.52-2.64 2.52z"/><path id="AF" d="M362.856 82c-1.26 0-2.52-.9-2.52-2.52v-18.9c0-3.48-2.88-6.36-6.3-6.36-3.54 0-6.36 2.88-6.36 6.3V79.42c0 1.68-1.2 2.58-2.58 2.58-1.32 0-2.52-.9-2.52-2.52v-18.9c0-3.48-2.88-6.36-6.36-6.36s-6.36 2.88-6.36 6.3V79.42c0 1.68-1.26 2.58-2.64 2.58-1.26 0-2.52-.9-2.52-2.52V52.66c0-1.74 1.32-2.58 2.64-2.58.84 0 1.68.36 2.16 1.14 1.86-1.32 4.2-2.1 6.66-2.1 3.6 0 6.84 1.62 8.94 4.26 2.1-2.64 5.28-4.26 8.88-4.26 6.36 0 11.52 5.1 11.52 11.4V79.42c0 1.68-1.26 2.58-2.64 2.58z"/><path id="AG" d="M438.035 83.02c-3.3 0-8.82-1.02-11.64-4.5-.36-.54-.54-1.08-.54-1.56 0-1.5 1.44-2.7 2.7-2.7.72 0 1.26.36 1.86 1.02 1.86 2.04 4.92 2.64 7.62 2.64 5.4 0 7.14-1.86 7.14-4.56 0-7.68-18.3-2.94-18.3-15.3 0-6.54 6.12-8.94 11.82-8.94 3.24 0 10.86 1.62 10.86 4.98 0 1.32-1.08 2.7-2.52 2.7-.54 0-1.38-.3-1.98-.78-1.62-1.38-3.96-1.8-6.36-1.8-4.98 0-6.72 1.86-6.72 3.84 0 7.14 18.36 2.52 18.36 15.3 0 7.08-5.94 9.66-12.3 9.66z"/><path id="AH" d="M572.074 68.68h-22.2c.84 5.64 4.44 9.24 9.72 9.24 2.7 0 5.4-.96 7.14-3.12.54-.6 1.14-.96 1.86-.96 1.32 0 2.7 1.2 2.7 2.64 0 .72-.18 1.26-1.44 2.52-2.7 2.64-6.42 4.02-10.26 4.02-9.66 0-15.06-7.98-15.06-16.98 0-8.94 5.4-16.92 15.06-16.92 9.78 0 15 7.98 15 16.92 0 1.32-.96 2.64-2.52 2.64zm-12.48-14.46c-5.64 0-8.94 4.14-9.72 9.3h19.438c-.84-5.76-4.44-9.3-9.72-9.3z"/><path id="AI" d="M748.412 82h-1.02c-5.7 0-7.86-3-7.86-7.92V55.24h-1.8c-1.44 0-2.58-1.14-2.58-2.52 0-1.44 1.14-2.58 2.52-2.58h1.8v-8.34c0-1.68 1.26-2.52 2.58-2.52s2.52.84 2.52 2.52v8.34h3.84c1.68 0 2.52 1.38 2.52 2.52 0 1.44-.96 2.58-2.52 2.58h-3.84v19.38c0 1.68.6 2.28 2.28 2.28h1.5c1.56 0 2.58 1.14 2.58 2.52 0 1.44-.96 2.58-2.52 2.58z"/><path id="AJ" d="M878 81.94c-1.32 0-2.58-.84-2.58-2.52 0 0-3.54 3.6-9.9 3.6-9.66 0-15.06-7.92-15.06-16.98 0-9 5.4-16.92 15.06-16.92 4.2 0 7.56 1.44 9.9 3.9v-11.16c0-1.74 1.26-2.58 2.58-2.58s2.58.84 2.58 2.52V79.42c0 1.68-1.26 2.52-2.58 2.52zm-12.48-27.72c-6 0-9.9 4.68-9.9 11.82 0 7.2 3.9 11.88 9.9 11.88 6.06 0 9.9-4.68 9.9-11.88 0-7.14-3.84-11.82-9.9-11.82z"/></defs></svg>